<svg id="Capa_1" enable-background="new 0 0 510 510" height="512" viewBox="0 0 510 510" width="512" xmlns="http://www.w3.org/2000/svg"><g><path d="m215 0c-19.329 0-35 15.669-35 35v145l150 150h15l10-165-10-165c-15.711 0-114.185 0-130 0z" fill="#fd9"/><path d="m475 0c-15.711 0-114.185 0-130 0v330h130c19.329 0 35-15.669 35-35 0-7.336 0-252.672 0-260 0-19.329-15.669-35-35-35z" fill="#ffc473"/><path d="m255 105c-10.492 0-19.508 0-30 0 0-7.259 0-52.692 0-60h60v30c-10.492 0-19.508 0-30 0z" fill="#fbb064"/><path d="m435 105h-30v-60h60v30h-30z" fill="#fb9264"/><path d="m435 195c-10.492 0-19.508 0-30 0 0-7.259 0-52.692 0-60h60v30c-10.492 0-19.508 0-30 0z" fill="#fb9264"/><path d="m435 285h-30v-60h60v30h-30z" fill="#fb9264"/><path d="m35 180c-19.329 0-35 15.669-35 35v260c0 19.329 15.669 35 35 35h130l10-165-10-165c-15.711 0-114.185 0-130 0z" fill="#fd9"/><g fill="#fbb064"><path d="m75 285h-30v-60h60v30h-30z"/><path d="m75 375h-30v-60h60v30h-30z"/><path d="m75 465h-30v-60h60v30h-30z"/><path d="m135 465h30v-30l10-15-10-15h-30z"/><path d="m135 285h30v-30l10-15-10-15h-30z"/><path d="m135 375h30v-30l10-15-10-15h-30z"/></g><path d="m295 180c-15.711 0-114.185 0-130 0v330h130c19.329 0 35-15.669 35-35 0-7.336 0-252.672 0-260 0-19.329-15.669-35-35-35z" fill="#ffc473"/><path d="m255 465h-30v-60h60v30h-30z" fill="#fb9264"/><path d="m255 285h-30v-60h60v30h-30z" fill="#fb9264"/><path d="m255 375c-10.492 0-19.508 0-30 0 0-7.259 0-52.692 0-60h60v30c-10.492 0-19.508 0-30 0z" fill="#fb9264"/><path d="m165 405h30v30h-30z" fill="#fb9264"/><path d="m165 225h30v30h-30z" fill="#fb9264"/><path d="m195 345c0-10.492 0-19.508 0-30h-30v30z" fill="#fb9264"/><path d="m315 45v60h30v-30l10-15-10-15z" fill="#fbb064"/><path d="m345 45h30v30h-30z" fill="#fb9264"/></g></svg>