<svg id="Capa_1" enable-background="new 0 0 510.005 510.005" height="512" viewBox="0 0 510.005 510.005" width="512" xmlns="http://www.w3.org/2000/svg"><g><path d="m8.42 320.321c28.352 107.76 126.859 189.682 246.585 189.682l10-90-10-90-75.429-79.333 75.429-70.667 15-89.998-15-89.998-178.5 147.496z" fill="#ffc473"/><path d="m330.005 252.502-75-72.5c0-10 0-169.996 0-179.996.001-.001.001-.001.002-.002 0-.001.001-.001.002-.002 140.958.048 254.996 114.044 254.996 255 0 140.957-114.053 255-255 255 0-10 0-170 0-180z" fill="#fbb064"/><path d="m8.42 320.321c4.397-3.414 8.347-7.408 11.994-11.73 24.405-28.93 9.119-41.827 33.525-70.757 24.404-28.929 39.691-16.033 64.096-44.962 24.403-28.927 9.118-41.825 33.521-70.752s39.69-16.031 64.093-44.957c25.357-30.059 7.991-43.112 36.405-73.988 1.563-1.698 2.969-3.172 2.951-3.172-107.786 0-198.076 66.488-235.717 157.363-20.953 50.584-25.24 108.33-10.868 162.955z" fill="#9d4f14"/><path d="m104.576 310.461h30v54.083h-30z" fill="#ffb037" transform="matrix(.832 -.555 .555 .832 -167.13 123.012)"/><path d="m368.266 326.519h54.083v30h-54.083z" fill="#ff9037" transform="matrix(.196 -.981 .981 .196 -17.097 662.184)"/><path d="m347.096 158.323 30 45c8.73-5.82 16.231-10.82 24.961-16.641-9.533-14.299-20.467-30.701-30-45-8.73 5.82-16.232 10.821-24.961 16.641z" fill="#ff7cb9"/><path d="m280.035 90.002h54.083v30.001h-54.083z" fill="#ff9037" transform="matrix(.832 -.555 .555 .832 -6.674 187.962)"/><path d="m272.963 397.503h54.083v29.999h-54.083z" fill="#ff9ac9" transform="matrix(.832 -.555 .555 .832 -178.429 235.692)"/><path d="m179.576 375.002h30v30h-30z" fill="#fff5f5"/><path d="m405.005 240.002h30v30h-30z" fill="#ece6f2"/><path d="m205.005 255.002c0-27.57 22.43-50 50-50l10-10.667-10-14.333c-41.355 0-75 33.645-75 75s33.645 75 75 75l10-12.333-10-12.667c-27.57 0-50-22.429-50-50z" fill="#fbb064"/><path d="m255.005 180.002v25c27.57 0 50 22.43 50 50s-22.43 50-50 50v25c41.355 0 75-33.645 75-75s-33.645-75-75-75z" fill="#fb9264"/></g></svg>