<svg id="Capa_1" enable-background="new 0 0 510 510" height="512" viewBox="0 0 510 510" width="512" xmlns="http://www.w3.org/2000/svg"><g><path d="m0 412.5v45l127.5 10 127.5-10 10-22.5-10-22.5-127.5-10z" fill="#ffc473"/><path d="m510 412.5-127.5-10-127.5 10v45l127.5 10 127.5-10z" fill="#fbb064"/><path d="m150 22.5c-28.949 0-55.199 11.775-74.211 30.789-41.239 41.238-41.132 108.156.807 149.211l89.202 10 89.202-10 10-90-10-90c-28.278 0-88.527 0-105 0z" fill="#ffc473"/><path d="m285 142.5c2.714 34.69 32.13 58.526 67.958 60l-48.979 10-48.979-10c0-10 0-170 0-180h120z" fill="#fbb064"/><path d="m375 22.5c-49.704 0-90 40.293-90 90l90 10 90-10c0-49.704-40.293-90-90-90z" fill="#fd9"/><path d="m285 112.5h180v30h-180z" fill="#ffc473"/><path d="m0 202.5v210h255l24-132.5-144-77.5z" fill="#fd9"/><path d="m255 202.5h255v210h-255z" fill="#ffc473"/><path d="m0 457.5v30h255l10-15-10-15z" fill="#fd9"/><path d="m510 457.5c-7.193 0-247.807 0-255 0v30h255c0-10.492 0-19.508 0-30z" fill="#ffc473"/><path id="XMLID_37_" d="m165 322.5c-16.568 0-30-13.431-30-30 0-10.889 0-79.039 0-90h60l10 45-10 45c0 8.284-3.358 15.784-8.787 21.213s-12.929 8.787-21.213 8.787z" fill="#fbb064"/><path id="XMLID_3_" d="m225 352.5c-16.568 0-30-13.431-30-30 0-14.518 0-105.386 0-120h60c0 .86 0 125.213 0 120 0 8.284-3.358 15.784-8.787 21.213s-12.929 8.787-21.213 8.787z" fill="#fb9264"/></g></svg>