<svg id="Capa_1" enable-background="new 0 0 510.009 510.009" height="512" viewBox="0 0 510.009 510.009" width="512" xmlns="http://www.w3.org/2000/svg"><g><path d="m212.577 191.37c-7.438-7.44-126.665-126.666-134.12-134.122 7.318-1.302 15.167.02 22.245 2.168 26.051 7.909 53.188 30.838 72.445 50.095 20.174 20.175 39.314 43.801 54.595 66.693l17.866-3.724 3.724-17.866c-30.444-44.28-82.655-102.83-133.242-121.642 22.401-5.971 44.227-2.713 64.499 7.77 25.182 13.021 46.981 36.742 62.564 60.598 8.008 12.259 14.969 25.414 20.564 38.89l18.421-4.278 4.278-18.421c-19.959-42.328-53.647-85.089-96.076-105.318-52.553-25.058-106.095-10.003-147.095 30.98-.005.005-.01.01-.015.014s-.01.009-.014.013l72.306 86.449 86.449 72.306 12.374 1.768z" fill="#fff5f5"/><path d="m191.364 212.582 12.375 1.768-1.768-12.375c-10.718-10.717-148.009-148.009-158.754-158.755-1.903 2.217-18.439 17.377-30.386 41.625-7.869 15.972-12.2 32.707-12.764 49.722-2.244 67.737 56.499 123.11 117.458 151.854l18.421-4.278 4.278-18.421c-27.069-11.239-53.112-28.112-73.144-48.145-27.8-27.8-44.19-61.677-34.112-99.482 18.812 50.585 77.361 102.799 121.643 133.242l17.866-3.724 3.724-17.866c-22.897-15.283-46.521-34.424-66.693-54.595-19.249-19.25-42.186-46.39-50.095-72.446-2.159-7.112-3.449-14.946-2.153-22.23l67.053 67.053z" fill="#ece6f2"/><path d="m433.184 433.189-69.644-55.502-55.502-69.645 3.429-17.571 17.57-3.428 133.441 133.044-12.4 11.257z" fill="#ff6c6c"/><path d="m431.516 449.552 1.668-16.362v-.001l-125.146-125.147-17.509 3.367-3.367 17.508 132.921 133.55z" fill="#e63950"/><path d="m496.824 433.19c-17.573-17.573-46.065-17.574-63.64 0l24.749 38.891 38.891 24.749c17.573-17.574 17.574-46.067 0-63.64z" fill="#e63950"/><path d="m433.184 433.189c-17.573 17.573-17.574 46.066 0 63.64 17.573 17.573 46.065 17.574 63.64 0v-.001c-7.75-7.749-55.886-55.885-63.64-63.639z" fill="#ae2538"/><path d="m101.109 387.492c-9.774 5.761-70.595 41.611-80.393 47.387-19.106 14.145-21.172 41.968-4.36 58.779l54.801-40.659 40.658-54.801 1.718-12.424z" fill="#fd9"/><path d="m16.356 493.658c16.741 16.741 44.429 14.775 58.635-4.167 5.754-9.821 41.562-70.94 47.331-80.786l1.817-12.325-12.324 1.818c-11.625 11.626-83.834 83.835-95.459 95.46z" fill="#ffc473"/><path d="m79.895 366.279 31.92 31.92 28.284-14.143 14.143-28.284-8.889-23.031-23.031-8.889z" fill="#ffc473"/><path d="m143.535 429.918 42.427-42.427-8.789-22.93-22.931-8.789-42.427 42.427z" fill="#fbb064"/><path d="m493.653 16.361c-16.741-16.741-44.43-14.774-58.635 4.167-5.755 9.821-41.563 70.941-47.332 80.786l-1.817 12.325 12.325-1.818 54.801-40.658z" fill="#fd9"/><path d="m398.194 111.82.05.05.05.05-1.768 12.375 12.374-1.768c9.773-5.762 70.595-41.612 80.392-47.387 19.107-14.145 21.172-41.969 4.361-58.779l-47.73 47.729z" fill="#ffc473"/><path d="m366.474 80.1-42.427 42.426 8.789 22.932 22.931 8.789 28.285-14.143 14.142-28.284z" fill="#ffc473"/><path d="m355.767 154.247 8.889 23.031 23.031 8.888 42.426-42.426-31.919-31.92z" fill="#fbb064"/><path d="m302.734 101.213-201.526 201.526 53.034 53.033 107.834-93.692 93.691-107.833z" fill="#fd9"/><path d="m154.242 355.772 53.032 53.033 201.526-201.525-21.114-21.114-18.363-4.221-2.949-17.092-10.607-10.606z" fill="#ffc473"/><path d="m196.278 235.167h211.589v30h-211.589z" fill="#fb9264" transform="matrix(.708 -.706 .706 .708 -88.469 286.344)"/></g></svg>