<svg id="Capa_1" enable-background="new 0 0 510 510" height="512" viewBox="0 0 510 510" width="512" xmlns="http://www.w3.org/2000/svg"><g><path d="m120 450-31.333 10-28.667-10v-30l30-10 30 10z" fill="#ffb037"/><path d="m450 450-30 10-30-10v-30l30-10 30 10z" fill="#ff9037"/><path d="m60 120v30l97.5 10 97.5-10 10-15-10-15-97.5-10z" fill="#ffb037"/><path d="m450 120-97.5-10-97.5 10v30l97.5 10 97.5-10c0-10.492 0-19.508 0-30z" fill="#ff9037"/><path d="m60 150v270h60l135-240 10-14.582-10-15.418z" fill="#ffd237"/><path d="m255 180.14 135 239.86h60c0-15 0-255 0-270h-195z" fill="#ffb037"/><path d="m120 315v135l14.25 10 15.75-10 105-240 10-16.5-10-13.5c-74.438 0-135 60.559-135 135z" fill="#9d4f14"/><path d="m390 315c0-74.438-60.559-135-135-135v30l105 240 16 10 14-10c0-16.333 0-118.559 0-135z" fill="#8a4711"/><path d="m105 60-10 30 10 30h150l10-30-10-30-75-10z" fill="#9d4f14"/><path d="m405 60-75-10-75 10v60h150l10-30z" fill="#8a4711"/><path d="m405 120h75c0-7.259 0-52.692 0-60l-37.5-10-37.5 10z" fill="#723c15"/><path id="XMLID_626_" d="m105 120h-75v-60l34.333-10 40.667 10z" fill="#8a4711"/><path d="m0 0v60h255l10-30-10-30z" fill="#ab5a1d"/><path d="m510 0h-255v60h255c0-7.259 0-52.692 0-60z" fill="#9d4f14"/><path d="m150 315v135l52.5 10 52.5-10 10-120-10-120c-57.895 0-105 47.101-105 105z" fill="#8a4711"/><path d="m360 315c0-57.896-47.101-105-105-105v240l52.5 10 52.5-10c0-16.333 0-118.559 0-135z" fill="#723c15"/><path d="m219.035 311.028c-8.067 13.799-14.825 28.643-14.825 39.651 0 28.836 23.638 54.32 50.79 54.32l10-72.199-10-72.199-5.915 7.588c-3.968 5.183-18.053 22.321-30.05 42.839z" fill="#ff6c6c"/><path d="m305.79 350.68c0-21.472-25.81-58.032-38.96-74.901-4.138-5.308-7.692-9.869-11.83-15.177v144.398c13.81 0 26.756-6.613 36.12-16.938 8.982-9.901 14.67-23.215 14.67-37.382z" fill="#e63950"/><path d="m0 450v60h255l10-30-10-30c-7.193 0-247.807 0-255 0z" fill="#ab5a1d"/><path d="m255 450h255v60h-255z" fill="#9d4f14"/></g></svg>