<svg id="Capa_1" enable-background="new 0 0 510 510" height="512" viewBox="0 0 510 510" width="512" xmlns="http://www.w3.org/2000/svg"><g><path d="m91.633 269.006 26.374 210.994 35.703 10 35.702-10-2.988-105-22.988-105-40.938-10z" fill="#9d4f14"/><path d="m193.123 510 8.145-15-11.855-15c-8.672 0-62.703 0-71.406 0 1.311 10.492 2.438 19.508 3.75 30z" fill="#8a4711"/><path d="m375.311 260-29.688 10-22.578 105-2.578 105 35.762 10 35.762-10 26.374-210.994z" fill="#8a4711"/><path d="m388.241 510 3.75-30c-8.673 0-62.82 0-71.523 0l-11.797 15 8.203 15z" fill="#723c15"/><path d="m264.998 382.5-10-112.5-45.781-10-45.781 10 25.976 210 32.793 10 32.793-10z" fill="#ab5a1d"/><path d="m345.623 270-45.312-10-45.313 10v210l32.735 10 32.734-10z" fill="#9d4f14"/><path d="m254.998 510 10-15-10-15c-7.964 0-57.593 0-65.586 0l3.711 30z" fill="#9d4f14"/><path d="m316.873 510 3.594-30c-7.939 0-57.496 0-65.469 0v30z" fill="#8a4711"/><path d="m175.923 25.611c-22.62 16.352-40.104 39.609-49.141 67.039-7.068-1.762-14.348-2.65-21.784-2.65-49.625 0-90 40.373-90 90 0 49.624 40.373 90 90 90h150l10-135-10-135c-1.394.232-40.409-2.34-79.075 25.611z" fill="#ffd237"/><path d="m383.214 92.65c-17.907-54.354-69.178-92.65-128.216-92.65v270h150c24.813 0 47.313-10.094 63.61-26.39 35.18-35.18 35.202-92.018 0-127.219-22.533-22.534-54.931-31.334-85.394-23.741z" fill="#ffb037"/><path d="m194.998 90h30v30h-30z" fill="#ab5a1d"/><path d="m284.998 90h30v30h-30z" fill="#9d4f14"/><path d="m119.998 195c-10.492 0-19.508 0-30 0 0-10.492 0-19.508 0-30h30z" fill="#ab5a1d"/><path d="m209.998 210c-10.492 0-19.508 0-30 0 0-10.492 0-19.508 0-30h30z" fill="#ab5a1d"/><path d="m389.998 165h30v30h-30z" fill="#9d4f14"/><path d="m299.998 180h30v30h-30z" fill="#9d4f14"/><path d="m254.998 180h-15v-30h15l10 15z" fill="#ab5a1d"/><path d="m269.998 180c-5.246 0-9.754 0-15 0 0-10.492 0-19.508 0-30h15z" fill="#9d4f14"/></g></svg>