<svg id="Capa_1" enable-background="new 0 0 510 510" height="512" viewBox="0 0 510 510" width="512" xmlns="http://www.w3.org/2000/svg"><g><path d="m375 405.004h75c0-4.473 0-154.119 0-158.591 12.584-6.786 23.005-14.781 30.638-23.644 9.21-10.692 14.362-22.647 14.362-35.265 0-26.721-23.098-50.475-58.911-65.552-28.483-11.991-61.159-17.028-91.947-16.942z" fill="#fbb064"/><path d="m300 93.538c46.967-7.588 103.022-3.444 147.217 16.895 38.457 17.698 62.783 45.397 62.783 77.071 0 29.356-20.11 52.213-45 67.567v164.933c-10.889 0-79.04 0-90 0l-10-15 10-15h60c0-18.523 0-133.954 0-152.544l3.94-2.125c2.115-1.305 17.195-8.222 28.57-20.439 8.114-8.714 12.49-18.107 12.49-27.393 0-9.129-4.248-18.384-12.125-26.992-13.901-15.192-36.171-25.396-55.793-31.249-10.56-3.149-21.847-5.529-33.622-7.086z" fill="#fb9264"/><path d="m285 390.004 37.5 15h37.5c0-4.473 0-154.119 0-158.591 12.584-6.786 23.005-14.781 30.638-23.644 9.21-10.692 14.362-22.647 14.362-35.265 0-26.721-23.098-50.475-58.911-65.552-28.483-11.991-61.159-17.028-91.947-16.942z" fill="#fd9"/><path d="m243.25 114.004-33.25-20.466c46.967-7.588 103.022-3.444 147.217 16.895 38.457 17.698 62.783 45.397 62.783 77.071 0 29.356-20.11 52.213-45 67.567v164.933c-10.889 0-79.04 0-90 0l-10-15 10-15h60c0-18.523 0-133.954 0-152.544.114-.062 8.26-4.455 7.88-4.25 10.174-5.486 18.477-11.705 24.63-18.314 8.114-8.714 12.49-18.107 12.49-27.393 0-9.129-4.248-18.384-12.125-26.992-5.999-6.556-14.103-12.736-24.038-18.201-19.707-10.839-42.904-17.163-65.377-20.134z" fill="#ffc473"/><path d="m60 246.413v158.591h105l10-150-10-150c-34.259 0-65.836 6.317-91.089 16.948-72.462 30.506-79.214 89.247-13.911 124.461z" fill="#fd9"/><path d="m165 105.004v300h105c0-4.473 0-154.119 0-158.591 12.584-6.786 23.005-14.781 30.638-23.644 9.21-10.692 14.362-22.647 14.362-35.265 0-26.721-23.098-50.475-58.911-65.552-25.253-10.631-56.83-16.948-91.089-16.948z" fill="#ffc473"/><path d="m75 390.004c0-18.523 0-133.954 0-152.544-.114-.062-8.26-4.455-7.88-4.25-10.174-5.486-18.477-11.705-24.63-18.314-8.114-8.714-12.49-18.107-12.49-27.392 0-9.129 4.248-18.384 12.125-26.992 5.999-6.556 14.103-12.736 24.038-18.201 23.24-12.782 57.308-22.307 98.837-22.307l10-15-10-15c-38.92 0-74.294 7.579-102.217 20.429-38.457 17.698-62.783 45.397-62.783 77.071 0 29.356 20.11 52.213 45 67.567v164.933h120l10-15-10-15c-10.889 0-79.04 0-90 0z" fill="#ffc473"/><path d="m210 180.004h30v30h-30z" fill="#fbb064"/><path d="m105 330.004h30v30h-30z" fill="#ffc473"/><path d="m195 330.004h30v30h-30z" fill="#fbb064"/><path d="m90 180.004h30v30h-30z" fill="#ffc473"/><path d="m165 90.004v30c41.538 0 75.579 9.515 98.837 22.307 9.936 5.464 18.039 11.645 24.038 18.201 7.877 8.608 12.125 17.863 12.125 26.992 0 9.285-4.376 18.678-12.49 27.393-6.153 6.609-14.456 12.827-24.63 18.314-.114.061-8.26 4.455-7.88 4.25v152.544c-10.889 0-79.04 0-90 0v30h120c0-4.649 0-160.283 0-164.933 24.888-15.354 45-38.212 45-67.567 0-31.674-24.326-59.373-62.783-77.071-27.923-12.851-63.297-20.43-102.217-20.43z" fill="#fbb064"/><path d="m165 285.004h-15v-30h15l10 15z" fill="#ffc473"/><path d="m165 255.004h15v30h-15z" fill="#fbb064"/></g></svg>