<svg id="Capa_1" enable-background="new 0 0 510 510" height="512" viewBox="0 0 510 510" width="512" xmlns="http://www.w3.org/2000/svg"><g><path d="m45 135v345l105 10 105-10 15-172.5-15-172.5-105-10z" fill="#ff6c6c"/><path d="m465 135-105-10-105 10v345l105 10 105-10z" fill="#e63950"/><path d="m45 0v105l105 15 105-15 15-52.5-15-52.5c-11.664 0-198.336 0-210 0z" fill="#fff5f5"/><path d="m465 0c-11.664 0-198.336 0-210 0v105l105 15 105-15z" fill="#ece6f2"/><path d="m45 480v30h210l10-15-10-15c-11.664 0-198.336 0-210 0z" fill="#e63950"/><path d="m465 480c-11.664 0-198.336 0-210 0v30h210c0-10.492 0-19.508 0-30z" fill="#ae2538"/><path d="m45 105v30h210l15-15-15-15z" fill="#e63950"/><path d="m255 105h210v30h-210z" fill="#ae2538"/><path d="m90 37h30v30h-30z" fill="#d7cfe6"/><path d="m285 37h30v30h-30z" fill="#ffb037"/><path d="m345 37h30v30h-30z" fill="#e63950"/><path d="m405 37h30v30h-30z" fill="#ab5a1d"/><path d="m90 173v270h30l135-240 10-15.333-10-14.667z" fill="#ece6f2"/><path d="m420 173h-165v30l135 240h30z" fill="#d7cfe6"/><path d="m120 203v240h135v-240z" fill="#fff5f5"/><path d="m390 203h-135v240h135z" fill="#ece6f2"/><path d="m212.58 278h-17.58c-24.813 0-45 20.186-45 45v45l27.5 10 32.5-10 10.651-42.5z" fill="#ffc473"/><path d="m290 330.5 10 37.5 30 10 30-10c0-14.981 0-30.019 0-45 0-24.813-20.186-45-45-45-6.148 0-11.432 0-17.58 0z" fill="#fbb064"/><path d="m210 398h-60v-30h60l10 15z" fill="#fbb064"/><path d="m300 398h60v-30h-60l-10 15z" fill="#fb9264"/><path d="m210 293v75l22.5 10 22.5-10 10-60-10-60c-24.812 0-45 20.186-45 45z" fill="#fd9"/><path d="m300 293c0-24.813-20.186-45-45-45v120l22.5 10 22.5-10c0-20.194 0-63.236 0-75z" fill="#ffc473"/><path d="m210 368v30h45l10-15-10-15z" fill="#ffc473"/><path d="m255 368h45v30h-45z" fill="#fbb064"/></g></svg>