<svg id="Capa_1" enable-background="new 0 0 509.939 509.939" height="512" viewBox="0 0 509.939 509.939" width="512" xmlns="http://www.w3.org/2000/svg"><g><path d="m134.97 269.94v180l60 10 60-10 10-90-10-90-60-10z" fill="#ff6c6c"/><path d="m374.97 269.94-60-10-60 10v180l60 10 60-10z" fill="#e63950"/><path d="m224.97 209.94v30l15 10 15-10 10-15-10-15-15-10z" fill="#ece6f2"/><path d="m284.97 209.94-15-10-15 10v30l15 10 15-10z" fill="#d7cfe6"/><path d="m203.803 31.053-49.679 88.887 50.423 10 50.423-10 10-45.038-10-45.037c-4.769.001-51.167 1.188-51.167 1.188z" fill="#ffd237"/><path d="m254.97 29.866v90.074l50.423 10 50.423-10-66.179-92.637s-29.899 2.563-34.667 2.563z" fill="#ffb037"/><path d="m134.97 449.94v29.999l60 10 60-10 10-14.999-10-15z" fill="#e63950"/><path d="m374.97 449.94h-120v29.999l60 10 60-10z" fill="#ae2538"/><path d="m134.97 239.94v30h120l10-15-10-15z" fill="#e63950"/><path d="m254.97 239.94h120v30h-120z" fill="#ae2538"/><path d="m106.296 149.94c3.246 17.676 12.402 32.231 26.847 42.684 17.559 12.708 40.235 17.316 61.827 17.316h60l10-30-10-30-74.337-10z" fill="#fff5f5"/><path d="m403.643 149.94-74.337-10-74.337 10v60h60c11.596 0 22.445-1.31 32.31-3.863 29.235-7.565 50.914-26.457 56.364-56.137z" fill="#ece6f2"/><path d="m89.97 479.939v30h165l10-15-10-15z" fill="#d7cfe6"/><path d="m254.97 479.939h165v30h-165z" fill="#c6bfd8"/><path d="m208.043 17.013c-41.961 45.572-33.934 36.827-94.661 102.927l20.371 10 20.371-10c9.081-9.883 65.457-71.237 74.536-81.117 7.084-6.167 16.956-8.957 26.31-8.957l10-14.933-10-14.933c-17.18 0-34.407 5.651-46.927 17.013z" fill="#ffb037"/><path d="m355.815 119.94 20.371 10 20.371-10c-58.822-64.027-49.163-53.513-94.661-102.927-12.52-11.362-29.746-17.013-46.926-17.013v29.866c9.355 0 19.227 2.791 26.31 8.957 9.08 9.882 65.456 71.237 74.535 81.117z" fill="#ff9037"/><path d="m74.97 119.94v30h180l10-15-10-15z" fill="#ece6f2"/><path d="m254.97 119.94h180v30h-180z" fill="#d7cfe6"/><path d="m204.97 359.94-8.107 14.977c6.636 25.731 30.062 45.023 58.107 45.023l10-60-10-60c-28.011 0-51.45 19.249-58.102 45z" fill="#fff5f5"/><path d="m254.97 344.94h-58.102v30h58.102l10-15z" fill="#ffd237"/><path d="m297.376 317.533c-10.864-10.864-25.864-17.593-42.406-17.593v120c16.542 0 31.542-6.729 42.406-17.594 23.453-23.453 23.469-61.345 0-84.813z" fill="#ece6f2"/></g></svg>