<svg id="Capa_1" enable-background="new 0 0 510 510" height="512" viewBox="0 0 510 510" width="512" xmlns="http://www.w3.org/2000/svg"><g><path d="m255 0c-26.219 0-45.462 23.015-61.043 27.179-16.46 4.403-44.333-5.858-66.491 6.96-22.382 12.95-27.433 42.355-39.201 54.125-11.793 11.792-41.176 16.819-54.125 39.201-12.812 22.145-2.568 50.058-6.96 66.491-4.195 15.688-27.18 34.769-27.18 61.044 0 26.219 23.013 45.458 27.179 61.044 4.398 16.446-5.852 44.345 6.961 66.49 12.95 22.382 42.355 27.433 54.124 39.202 11.763 11.76 16.823 41.176 39.201 54.124 22.125 12.802 50.102 2.578 66.491 6.96 15.687 4.194 34.77 27.18 61.044 27.18l10-264.333z" fill="#ffc473"/><path d="m482.821 193.957c-4.404-16.473 5.857-44.336-6.961-66.491-12.95-22.383-42.355-27.433-54.124-39.202-11.792-11.791-16.821-41.176-39.201-54.125-22.141-12.811-50.062-2.568-66.492-6.96-15.683-4.191-34.769-27.179-61.043-27.179v510c26.219 0 45.458-23.013 61.044-27.179 16.431-4.393 44.354 5.847 66.49-6.961 22.382-12.95 27.434-42.355 39.202-54.124 11.76-11.763 41.176-16.823 54.124-39.201 12.84-22.194 2.555-50.009 6.96-66.491 4.194-15.687 27.18-34.77 27.18-61.044 0-16.349-23.013-45.46-27.179-61.043z" fill="#fbb064"/><path d="m255 30c-7.359 0-15.98 5.676-25.107 11.686-8.727 5.745-17.75 11.686-28.189 14.476-10.83 2.895-21.874 2.28-32.556 1.685-10.676-.593-20.756-1.156-26.658 2.259-6.086 3.521-10.663 12.63-15.509 22.273-4.765 9.481-9.691 19.286-17.503 27.098s-17.616 12.738-27.098 17.503c-9.644 4.846-18.752 9.423-22.273 15.509-3.415 5.903-2.854 15.985-2.259 26.659.595 10.681 1.209 21.724-1.686 32.556-5.735 21.46-26.162 39.047-26.162 53.296 0 7.359 5.676 15.98 11.685 25.107 5.746 8.727 11.687 17.75 14.476 28.19 2.896 10.831 2.28 21.875 1.686 32.556-.594 10.674-1.155 20.755 2.26 26.658 3.521 6.086 12.63 10.663 22.273 15.509 9.48 4.765 19.285 9.691 27.097 17.503s12.739 17.617 17.505 27.1c4.846 9.642 9.422 18.751 15.507 22.271 8.277 4.788 24.61 1.761 40.144 1.761 20.604 0 30.13 5.381 47.26 16.66 9.127 6.009 17.748 11.685 25.107 11.685l10-231.667z" fill="#fbb064"/><path d="m468.315 229.892c-5.746-8.726-11.686-17.75-14.477-28.189-2.896-10.831-2.28-21.876-1.686-32.557.594-10.673 1.155-20.755-2.26-26.658-3.521-6.086-12.63-10.663-22.273-15.509-9.48-4.764-19.285-9.691-27.097-17.503s-12.739-17.617-17.505-27.099c-4.846-9.643-9.422-18.751-15.507-22.272-5.904-3.415-15.985-2.853-26.658-2.259-10.682.595-21.726 1.21-32.557-1.686-10.44-2.79-19.463-8.731-28.19-14.476-9.125-6.008-17.746-11.684-25.105-11.684v450c7.359 0 15.98-5.676 25.107-11.685 8.727-5.746 17.75-11.686 28.19-14.477 10.831-2.896 21.873-2.281 32.556-1.686 10.676.594 20.756 1.154 26.658-2.26 6.086-3.521 10.663-12.63 15.509-22.273 4.765-9.48 9.691-19.285 17.503-27.097s17.617-12.739 27.1-17.505c9.642-4.846 18.751-9.422 22.271-15.507 3.415-5.903 2.854-15.985 2.259-26.659-.595-10.681-1.209-21.725 1.686-32.556 2.79-10.44 8.731-19.463 14.477-28.189 6.008-9.126 11.684-17.747 11.684-25.106 0-7.36-5.676-15.98-11.685-25.108z" fill="#fb9264"/><path d="m210.092 96.215c-74.362 21.043-125.392 91.989-119.671 170.601 6.052 85.405 77.511 153.184 164.578 153.184l10-165-10-165c-1.459.136-20.547-.688-44.907 6.215z" fill="#fd9"/><path d="m254.999 90v330c91.035 0 165-74.078 165-165 0-90.952-73.979-165-165-165z" fill="#ffc473"/><path d="m227.733 351.95c9.536-9.536 17.73-17.73 27.267-27.267l10-21.213-10-21.213c-9.533-9.533-17.725-17.724-27.257-27.257 9.532-9.533 17.724-17.724 27.257-27.257l10-21.213-10-21.213c-9.535-9.536-17.732-17.732-27.268-27.268 9.537-9.536 17.731-17.73 27.268-27.267l10-27.891-10-27.891c-99.249 0-180 80.745-180 180 0 99.25 80.745 180 180 180l10-27.892-10-27.892c-9.536-9.535-17.73-17.73-27.267-27.266zm6.054-48.48c-9.536 9.537-17.73 17.731-27.268 27.267-9.532-9.533-17.724-17.724-27.256-27.257 9.536-9.537 17.73-17.73 27.267-27.267 9.531 9.532 17.726 17.726 27.257 27.257zm-75.736-21.203c-9.537-9.537-17.731-17.73-27.268-27.267 9.535-9.535 17.731-17.732 27.267-27.267 9.536 9.537 17.73 17.731 27.268 27.267-9.536 9.535-17.733 17.732-27.267 27.267zm75.736-75.737c-9.533 9.533-17.724 17.724-27.257 27.257-9.537-9.536-17.732-17.73-27.268-27.267 9.533-9.533 17.725-17.724 27.257-27.257 9.538 9.537 17.732 17.731 27.268 27.267zm-2.662-99.622c.51.509 2.768 2.767 2.662 2.662-9.535 9.535-17.732 17.732-27.268 27.267-5.892-5.892-10.954-10.955-16.847-16.847 12.692-6.166 26.604-10.697 41.453-13.082zm-67.635 29.326c7.63 7.629 14.188 14.188 21.816 21.816-9.532 9.533-17.725 17.724-27.257 27.257-7.63-7.63-14.187-14.186-21.816-21.816 7.884-10.207 17.05-19.374 27.257-27.257zm-43.5 53.439c5.892 5.891 10.956 10.956 16.847 16.847-9.536 9.537-17.73 17.731-27.267 27.267-.101-.101-2.766-2.766-2.662-2.662 2.242-13.96 6.524-27.952 13.082-41.452zm0 130.654c-6.166-12.693-10.697-26.603-13.082-41.452.509-.509 2.768-2.767 2.662-2.662 9.535 9.535 17.732 17.732 27.268 27.267-1.224 1.223 5.063-5.064-16.848 16.847zm43.5 53.439c-10.126-7.821-19.311-16.968-27.256-27.257 7.629-7.63 14.186-14.186 21.816-21.816 9.532 9.533 17.724 17.724 27.256 27.257-7.628 7.629-14.186 14.187-21.816 21.816zm67.635 29.326c-13.933-2.238-27.925-6.51-41.452-13.082 5.892-5.892 10.956-10.956 16.847-16.847 9.537 9.537 17.732 17.731 27.268 27.267-.511.509-2.768 2.767-2.663 2.662z" fill="#ffc473"/><path d="m382.22 127.78c-32.594-32.593-77.594-52.78-127.22-52.78v55.783c9.537 9.537 17.73 17.731 27.268 27.267-9.536 9.536-17.732 17.732-27.268 27.268v42.426l27.257 27.257c-9.532 9.533-17.724 17.724-27.257 27.257v42.426c9.536 9.537 17.73 17.731 27.268 27.267-9.537 9.537-17.732 17.731-27.268 27.267v55.783c49.626 0 94.626-20.187 127.22-52.78 70.36-70.362 70.403-184.036 0-254.441zm7.79 192.547c-1.224-1.223 5.064 5.065-16.848-16.847 9.536-9.535 17.732-17.732 27.268-27.267.105.105 2.831 2.831 2.662 2.662-2.242 13.961-6.524 27.952-13.082 41.452zm-38.061-38.06c-9.535-9.535-17.731-17.732-27.267-27.267 9.536-9.536 17.73-17.73 27.268-27.267 9.535 9.535 17.731 17.732 27.267 27.267-9.536 9.537-17.731 17.73-27.268 27.267zm38.061-92.594c6.166 12.691 10.697 26.603 13.082 41.452-.1.1-2.766 2.766-2.662 2.662-9.536-9.536-17.73-17.731-27.267-27.267zm-43.5-53.439c10.207 7.883 19.373 17.05 27.257 27.257-7.63 7.63-14.186 14.186-21.816 21.816-9.533-9.533-17.725-17.724-27.257-27.257 7.628-7.629 14.187-14.187 21.816-21.816zm-70.297-26.664c.51-.51 2.767-2.768 2.662-2.662 13.96 2.242 27.952 6.523 41.452 13.082-5.892 5.892-10.955 10.955-16.847 16.847-9.535-9.535-17.732-17.732-27.267-27.267zm0 96.96c9.536-9.536 17.73-17.73 27.268-27.267 9.532 9.533 17.724 17.724 27.257 27.257-9.537 9.537-17.731 17.731-27.268 27.267-9.532-9.533-17.724-17.723-27.257-27.257zm0 96.94c9.531-9.531 17.726-17.725 27.257-27.257 9.536 9.537 17.73 17.73 27.267 27.267-9.532 9.533-17.724 17.724-27.257 27.257-9.537-9.536-17.731-17.731-27.267-27.267zm2.662 99.622c-.509-.509-2.768-2.767-2.662-2.662l27.267-27.267c5.893 5.892 10.956 10.956 16.848 16.847-12.694 6.166-26.604 10.697-41.453 13.082zm67.634-29.326c-7.63-7.63-14.186-14.187-21.816-21.816 9.533-9.533 17.725-17.724 27.257-27.257 7.63 7.629 14.188 14.188 21.816 21.816-7.821 10.127-16.968 19.311-27.257 27.257z" fill="#fbb064"/></g></svg>