<svg id="Capa_1" enable-background="new 0 0 510.024 510.024" height="512" viewBox="0 0 510.024 510.024" width="512" xmlns="http://www.w3.org/2000/svg"><g><path d="m58.479 220.722-58.479 30.5 127.514 10 127.513-10 10-15.25-10-15.25-98.274-10z" fill="#9d4f14"/><path d="m507.59 220.722-126.281-10-126.282 10v30.5l127.499 10 127.498-10z" fill="#8a4711"/><path d="m0 395.315v75l127.514 10 127.513-10 10-27.999-10-47-133-20.334z" fill="#fd9"/><path d="m255.027 395.316v74.999l127.487 10 127.486-10v-74.991l-130.973-14.009z" fill="#ffc473"/><path d="m255.027 320.572 10-29.303-10-40.047h-255.027v80.093l136.527 46z" fill="#fd9"/><path d="m510 320.315.024-69.093h-254.997v69.35l123.667 59.41z" fill="#ffc473"/><path d="m0 469.815v30.5h255.027l10-15.25-10-15.25z" fill="#ffc473"/><path d="m255.027 469.815h254.973v30.5h-254.973z" fill="#fbb064"/><path d="m203.902 144.884c-46.896 24.463-118.939 62.027-145.423 75.838h196.548l10-16.406-10-19.001z" fill="#ab5a1d"/><path d="m255.027 185.315v35.407h252.563c-14.038-93.803-88.303-150.05-206.736-124.962-2.238.474-4.48 1.163-6.682 2.093z" fill="#9d4f14"/><path d="m248.361 88.315-7.903-5.957c1.45-16.646 6.387-32.673 14.569-47.178l10 24.067-10 21.067z" fill="#fd9"/><path d="m270.579 82.664c2.167-19.002 10.543-37.249 25.036-51.742-7.419-7.419-13.794-13.794-21.213-21.213-7.629 7.629-14.135 16.184-19.374 25.472v45.135l6.563 9.125z" fill="#ffc473"/><path d="m217.885 95.692c-9.5 9.5-15.377 22.625-15.377 37.123 0 28.994 23.504 52.5 52.5 52.5h.01.009l10-52.5-10-52.499c-.003 0-.006 0-.009 0-.408.086-20.514-1.242-37.133 15.376z" fill="#ff6c6c"/><path d="m292.138 95.699c-9.497-9.5-22.617-15.378-37.11-15.383v104.999c14.493-.005 27.613-5.883 37.11-15.383 20.48-20.486 20.514-53.713 0-74.233z" fill="#e63950"/><path d="m254.984 320.567c-29.999 0-29.999 20-59.997 20-29.999 0-30-20-59.999-20s-30 20-59.999 20c-29.998 0-29.998-20-59.997-20-5.243 0-9.748 0-14.992 0v75h14.992c29.999 0 29.999 20 59.997 20 30 0 30-20 59.999-20s30 20 59.999 20c29.998 0 29.998-20 59.997-20h.021c.007 0 .014.001.021.001l10-37.5-10-37.5c-.049-.002-.037-.001-.042-.001z" fill="#9d4f14"/><path d="m374.984 395.567c30.002 0 30.002 20 60.004 20 29.843 0 30.002-19.764 59.505-19.99-.101 0-.613 0-.512 0 .101-.001 1.111-.011 1.011-.01-.171 0-.329.009-.499.01 5.422 0 10.084-.001 15.506-.002 0-20.195 0-63.018 0-75.26-5.249.088-9.759.164-15.008.251-30.001 0-30.002 20-60.004 20-30.001 0-30.002-20-60.004-20-30 0-30.001 20-60.001 20-29.993 0-29.994-19.979-59.956-19.999v75c29.956.02 29.971 19.999 59.956 19.999 30.001.001 30.002-19.999 60.002-19.999z" fill="#8a4711"/></g></svg>