<svg id="Capa_1" enable-background="new 0 0 510 510" height="512" viewBox="0 0 510 510" width="512" xmlns="http://www.w3.org/2000/svg"><g><path d="m90 257.27v252.73h165l10-34.5-10-40.5-90-131.44-27.667-32.227z" fill="#ffd237"/><path d="m420 260-48.75 25-26.25 41.71-90 108.29v75h165z" fill="#ffb037"/><g fill="#ab5a1d"><path d="m261.857 83h46.286v46.286h-46.286z"/><path d="m261.857 143h46.286v46.286h-46.286z"/><path d="m201.857 143h46.286v46.286h-46.286z"/><path d="m201.857 83h46.286v46.286h-46.286z"/><path d="m201.857 23h46.286v46.286h-46.286z"/><path d="m141.857 23h46.286v46.286h-46.286z"/><path d="m141.857 83h46.286v46.286h-46.286z"/><path d="m141.857 143h46.286v46.286h-46.286z"/><path d="m141.857 203h46.286v46.286h-46.286z"/><path d="m201.857 203h46.286v46.286h-46.286z"/><path d="m261.857 203h46.286v46.286h-46.286z"/><path d="m321.857 203h46.286v46.286h-46.286z"/><path d="m321.857 143h46.286v46.286h-46.286z"/><path d="m321.857 83h46.286v46.286h-46.286z"/></g><path d="m120 0v240l14.5 10 15.5-10v-30h30v30l14.5 10 15.5-10v-30h30v30l7.5 10 7.5-10 10-105-10-135c-19.242 0-115.556 0-135 0zm60 180h-30v-30h30zm0-60h-30v-30h30zm0-60h-30v-30h30zm60 120h-30v-30h30zm0-60h-30v-30h30zm-30-60v-30h30v30z" fill="#9d4f14"/><path d="m270 60v-60h-15v240l8 10 7-10v-30h30v30l14.75 10 15.25-10v-30h30v30l13.75 10 16.25-10c0-8.486 0-173.259 0-180zm30 120h-30v-30h30zm0-60h-30v-30h30zm60 60h-30v-30h30zm0-60h-30v-30h30z" fill="#8a4711"/><path d="m119.13 240 64.87 55 71 28.854 10-44.354-10-39.5z" fill="#ff6c6c"/><path d="m397.35 240h-142.35v83.854l28.38 17.516 64.62-41.814z" fill="#e63950"/><path d="m165 303.56v131.44h90l10-37.082-10-38.806-45-40.612z" fill="#ffb037"/><path d="m345 326.71-90 32.402v75.888h90z" fill="#ff9037"/><path d="m119.13 240h-29.13v17.27l165 101.842 10-17.742-10-17.516z" fill="#e63950"/><path d="m397.35 240-113.97 101.37-28.38-17.516v35.258l31.62 19.518 133.38-118.63v-20z" fill="#ae2538"/></g></svg>