<svg id="Capa_1" enable-background="new 0 0 510.006 510.006" height="512" viewBox="0 0 510.006 510.006" width="512" xmlns="http://www.w3.org/2000/svg"><g><path d="m0 345.003c0 91.124 73.87 165 165 165l10-165-10-165c-91.124 0-165 73.871-165 165z" fill="#ffc473"/><path d="m180.742 180.744c-5.181-.49-10.432-.741-15.742-.741v330c97.052 0 173.466-83.449 164.259-180.741z" fill="#fbb064"/><path d="m180 165.003c0 91.124 73.871 165 165 165l10-165-10-165c-91.124 0-165 73.871-165 165z" fill="#fd9"/><path d="m345 .003v330c45.563 0 86.813-18.468 116.673-48.327 64.392-64.393 64.497-168.848 0-233.346-29.86-29.858-71.11-48.327-116.673-48.327z" fill="#ffc473"/><path d="m255.754 75.757h29.999v30h-29.999z" fill="#ab5a1d" transform="matrix(.707 -.707 .707 .707 15.127 218.034)"/><path d="m225 150.003h30v30h-30z" fill="#ab5a1d"/><path d="m255.754 224.249h30v30h-30z" fill="#ab5a1d" transform="matrix(.707 -.707 .707 .707 -89.873 261.518)"/><g fill="#9d4f14"><path d="m404.246 224.25h30v30h-30z" transform="matrix(.707 -.707 .707 .707 -46.381 366.526)"/><path d="m435 150.003h30v30h-30z"/><path d="m404.246 75.757h30v30h-30z" transform="matrix(.707 -.707 .707 .707 58.62 323.034)"/><path d="m75.754 255.757h30v30h-30z" transform="matrix(.707 -.707 .707 .707 -164.873 143.475)"/><path d="m45 330.003h30v30h-30z"/><path d="m75.754 404.25h30v30h-30z" transform="matrix(.707 -.707 .707 .707 -269.873 186.968)"/></g><path d="m224.246 404.25h30v30h-30z" fill="#8a4711" transform="matrix(.707 -.707 .707 .707 -226.381 291.968)"/><path d="m345 75.003h-15v-30h15l10 15z" fill="#ab5a1d"/><path d="m345 285.003h-15v-30h15l10 15z" fill="#ab5a1d"/><path d="m345 181.253h-15v-30.75h15l10 15.375z" fill="#ab5a1d"/><path d="m345 45.003h15v30h-15z" fill="#9d4f14"/><path d="m345 255.003h15v30h-15z" fill="#9d4f14"/><path d="m345 150.503h15v30.75h-15z" fill="#9d4f14"/><path d="m165 465.003h-15v-30h15l10 15z" fill="#9d4f14"/><path d="m165 360.003h-15v-30h15l10 15z" fill="#9d4f14"/><path d="m165 435.003h15v30h-15z" fill="#8a4711"/><path d="m165 330.003h15v30h-15z" fill="#8a4711"/></g></svg>