<svg id="Capa_1" enable-background="new 0 0 510 510" height="512" viewBox="0 0 510 510" width="512" xmlns="http://www.w3.org/2000/svg"><g><path d="m195 150 67.5 10 67.5-10 10-37.5-10-37.5-105-10-105 10 27 48.5z" fill="#fff5f5"/><path d="m465 150-45-75-45-10-45 10v75l67.5 10z" fill="#ece6f2"/><path d="m195 510 10-180-10-180-75-75-75 75v360l71.667-18.333z" fill="#ece6f2"/><path d="m195 510-60-72v-258h-30v258l-60 72z" fill="#d7cfe6"/><path d="m330 450-67.5 10-67.5-10v-30l67.5-10 67.5 10 10 15z" fill="#ff9037"/><path d="m465 450-67.5 10-67.5-10v-30l67.5-10 67.5 10z" fill="#fe7705"/><path d="m330 240-67.5 10-67.5-10c0-10.492 0-19.508 0-30l67.5-10 67.5 10 10 15z" fill="#ff9037"/><path d="m465 240-67.5 10-67.5-10v-30l67.5-10 67.5 10z" fill="#fe7705"/><path d="m195 210h135l10-30-10-30h-135z" fill="#ffb037"/><path d="m330 210h135c0-7.259 0-52.693 0-60h-135z" fill="#ff9037"/><path d="m330 30-105 10-105-10c0-8.923 0-20.89 0-30h210l10 15z" fill="#ff9037"/><path d="m330 75h-210c0-14.095 0-30.95 0-45h210l10 24z" fill="#ffb037"/><path d="m195 510h135l10-30-10-30h-135z" fill="#ffb037"/><path d="m420 30-45 10-45-10v-30h90z" fill="#fe7705"/><path d="m420 75h-90v-45h90z" fill="#ff9037"/><path d="m330 450h135v60h-135z" fill="#ff9037"/><path d="m330 420h-135v-180h135l10 90z" fill="#ffd237"/><path d="m330 240h135v180h-135z" fill="#ffb037"/><path d="m297.521 312.733c-6.849 10.749-12.521 22.578-12.521 32.267 0 24.813 20.185 45 45 45l10-58.729-10-58.73c-8.849 10.024-21.372 22.76-32.479 40.192z" fill="#fff5f5"/><path d="m335.582 278.761-5.582-6.22v117.459c24.813 0 45-20.185 45-45 0-9.689-5.673-21.518-12.522-32.267-10.39-16.309-22.722-29.221-26.896-33.972z" fill="#ece6f2"/></g></svg>