<svg id="Capa_1" enable-background="new 0 0 495 495" height="512" viewBox="0 0 495 495" width="512" xmlns="http://www.w3.org/2000/svg"><g><path d="m247.5 0c-35.142 0-64.421 27.044-67.256 61.969-38.208-10.008-75.244 18.876-75.244 58.031 0 30.435 22.745 55.799 52.5 59.52v60.48l43.867 10 43.867-10h2.266l10-120z" fill="#fff5f5"/><path d="m372.428 77.572c-15.387-15.387-37.387-20.924-57.672-15.606-2.823-34.759-31.913-61.966-67.256-61.966v240l43.867 10 46.133-10c0-21.166 0-39.314 0-60.48 14.875-1.86 28.061-9.158 37.498-19.843 21.02-23.801 19.762-59.772-2.57-82.105z" fill="#ece6f2"/><path d="m157.5 240v45l43.867 10 46.133-10 10-22.5-10-22.5c-11.223 0-79.676 0-90 0z" fill="#ffd237"/><path d="m337.5 240c-11.223 0-79.676 0-90 0v45l43.867 10 46.133-10z" fill="#ffb037"/><path d="m157.5 285v30h90l10-15-10-15z" fill="#ffb037"/><path d="m337.5 285h-90v30h90z" fill="#ff9037"/><path id="XMLID_48_" d="m298.236 371.921c-27.874 1.653-53.234 22.507-50.539 57.547 10.195 132.543 212.266 23.019 212.266 23.019-116.578-34.272-118.6-83.123-161.727-80.566z" fill="#9d4f14"/><path id="XMLID_47_" d="m196.764 371.921c27.874 1.653 53.234 22.507 50.539 57.547-10.195 132.543-212.266 23.019-212.266 23.019 116.578-34.272 118.6-83.123 161.727-80.566z" fill="#ab5a1d"/></g></svg>