<svg id="Capa_1" enable-background="new 0 0 510 510" height="512" viewBox="0 0 510 510" width="512" xmlns="http://www.w3.org/2000/svg"><g><path d="m202.5 0c-28.995 0-52.5 23.505-52.5 52.5 0 28.995 23.505 52.5 52.5 52.5l24.833 10 27.667-10 10-47.667-10-57.333-21.188 6.813-16.322-6.813z" fill="#fd9"/><path d="m307.5 0h-52.5v105l27 10 25.5-10c28.995 0 52.5-23.505 52.5-52.5 0-17.715-8.774-33.38-22.213-42.888l-15.079-2.987z" fill="#ffc473"/><path d="m255 300-210 180-15 10-15-10v-214.828l60-52.838 180 12.666 10 48.667z" fill="#ffd237"/><path d="m495 480-120 10-120-10-14.667-75 14.667-105v-67.5l146-25.5 94 58.172z" fill="#ffb037"/><path d="m495 510h-30l-60-10-60 10h-90l-10-15 10-15h240z" fill="#ff9037"/><path d="m45 510c-10.492 0-19.508 0-30 0v-30h30l10 15z" fill="#ffb037"/><path d="m45 300v210h30l75-10 75 10h30v-210c-11.664 0-198.336 0-210 0z" fill="#ff6c6c"/><path d="m465 510c-10.492 0-19.508 0-30 0l-30-10-30 10c-10.492 0-19.508 0-30 0v-210h120z" fill="#8a4711"/><path d="m375 510h60v-180c-7.259 0-52.693 0-60 0z" fill="#9d4f14"/><path d="m225 420-73.667 10-76.333-10v-90h150z" fill="#fff5f5"/><path d="m135 420-15 10-15-10v-45h30z" fill="#ab5a1d"/><path d="m195 420-15 10-15-10v-45h30z" fill="#ffc473"/><path d="m127.5 195 10-45-10-45c-9.728 0-53.748 0-63.75 0l-10 45 10 45 31.875 10z" fill="#fff5f5"/><path d="m63.75 195-10 21.563 10 21.562c0 17.604 14.271 31.875 31.875 31.875 17.604 0 31.875-14.27 31.875-31.875l10-21.562-10-21.563c-9.728 0-53.748 0-63.75 0z" fill="#ece6f2"/><path d="m255 195 10-45-10-45c-9.728 0-53.748 0-63.75 0l-10 45 10 45 31.875 10z" fill="#fff5f5"/><path d="m191.25 195-10 21.563 10 21.562c0 17.604 14.27 31.875 31.875 31.875 17.604 0 31.875-14.27 31.875-31.875l10-21.562-10-21.563c-9.728 0-53.748 0-63.75 0z" fill="#ece6f2"/><path d="m382.5 195 10-45-10-45c-9.728 0-53.748 0-63.75 0l-10 45 10 45 31.875 10z" fill="#ece6f2"/><path d="m318.75 195-10 21.563 10 21.562c0 17.604 14.271 31.875 31.875 31.875.304-.064 12.472.731 22.539-9.336 5.768-5.768 9.336-13.737 9.336-22.539l10-21.562-10-21.563c-9.728 0-53.748 0-63.75 0z" fill="#d7cfe6"/><path d="m510 195c0-10.889 0-79.04 0-90-9.728 0-53.748 0-63.75 0l-10 45 10 45 31.875 10z" fill="#ece6f2"/><path d="m446.25 195-10 21.563 10 21.562c0 17.604 14.271 31.875 31.875 31.875.304-.064 12.472.731 22.539-9.336 5.768-5.768 9.336-13.737 9.336-22.539 0-15.078 0-28.047 0-43.125-9.728 0-53.748 0-63.75 0z" fill="#d7cfe6"/><path d="m63.75 105c-9.728 0-53.748 0-63.75 0v90l31.875 10 31.875-10z" fill="#ff6c6c"/><path d="m0 195v43.125c0 17.604 14.271 31.875 31.875 31.875 17.604 0 31.875-14.27 31.875-31.875 0-15.078 0-28.047 0-43.125h-31.875z" fill="#e63950"/><path d="m191.25 195v-90c-9.728 0-53.748 0-63.75 0v90l31.875 10z" fill="#ff6c6c"/><path d="m127.5 195v43.125c0 17.604 14.27 31.875 31.875 31.875.304-.064 12.472.731 22.539-9.336 5.768-5.768 9.336-13.737 9.336-22.539 0-15.078 0-28.047 0-43.125h-31.875z" fill="#e63950"/><path d="m318.75 195v-90c-9.728 0-53.748 0-63.75 0v90l31.875 10z" fill="#e63950"/><path d="m255 195v43.125c0 17.604 14.271 31.875 31.875 31.875 17.603 0 31.875-14.27 31.875-31.875 0-15.078 0-28.047 0-43.125-9.728 0-53.748 0-63.75 0z" fill="#ae2538"/><path d="m446.25 195v-90c-9.728 0-53.748 0-63.75 0v90l31.875 10z" fill="#e63950"/><path d="m382.5 195v43.125c0 17.604 14.271 31.875 31.875 31.875 17.603 0 31.875-14.27 31.875-31.875 0-15.078 0-28.047 0-43.125h-31.875z" fill="#ae2538"/><path d="m225 510h-30l-15-10-15 10c-10.492 0-19.508 0-30 0l-15-10-15 10h-30v-90h150z" fill="#ece6f2"/><path d="m135 510c-10.492 0-19.508 0-30 0v-45h30z" fill="#fbb064"/><path d="m195 510c-10.492 0-19.508 0-30 0v-45h30z" fill="#9d4f14"/><path d="m337.78 9.62-36.89 49.19-24-18 30.61-40.81z" fill="#fb9264"/><path d="m254.99 0-40.5 54-24-18 27-36z" fill="#fbb064"/></g></svg>