<svg id="Capa_1" enable-background="new 0 0 510 510" height="512" viewBox="0 0 510 510" width="512" xmlns="http://www.w3.org/2000/svg"><g><path d="m132.739 126.445c-8.547-4.205-17.998-6.445-27.739-6.445-33.104 0-60.661 25.857-62.775 58.883l-8.943 121.117 33.718 10 41.012-10z" fill="#ffd237"/><path d="m33.282 300-2.216 30h74.915l11.015-15-8.984-15z" fill="#ffb037"/><path d="m182.784 300-36.784 10-37.989-10 9.212-136.103c2.066-32.993 29.642-58.897 62.777-58.897 9.764 0 19.238 2.25 27.801 6.475z" fill="#ffb037"/><path d="m108.012 300-2.031 30h74.928l10.938-15-9.063-15z" fill="#ff9037"/><path d="m377.282 126.412c4.596 5.227 24.706 173.588 24.706 173.588l37.365 10 37.365-10c-1.088-14.731-7.854-106.36-8.943-121.115-.512-7.999-2.516-15.712-5.854-22.796-15.007-31.858-53.238-45.09-84.639-29.677z" fill="#ffb037"/><path d="m401.988 300-8.984 15 11.015 15h74.914l-2.215-30z" fill="#ff9037"/><path d="m302.188 111.46c4.542 5.15 25.028 188.54 25.028 188.54l37.386 10 37.387-10c-1.12-16.543-8.086-119.45-9.208-136.027-.502-8.016-2.503-15.745-5.841-22.845-15.056-32.019-53.421-45.113-84.752-29.668z" fill="#ff9037"/><path d="m327.215 300-9.062 15 10.938 15h74.928l-2.031-30z" fill="#fe7705"/><path d="m203.719 405c4.081 9.312 6.281 19.462 6.281 30l22.5 10 22.5-10 10-15-10-15-25.641-10z" fill="#d7cfe6"/><path d="m306.281 405-25.64-10-25.641 10v30l22.5 10 22.5-10c0-10.187 2.06-20.368 6.281-30z" fill="#c6bfd8"/><path d="m135 360c30.251 0 56.94 18.125 68.719 45h51.281l10-22.5-10-22.5-60-10z" fill="#ece6f2"/><path d="m375 360-60-10-60 10v45h51.281c11.805-26.935 38.533-45 68.719-45z" fill="#d7cfe6"/><path d="m150 435v45l52.5 10 52.5-10 10-22.5-10-22.5c-28.278 0-88.527 0-105 0z" fill="#ece6f2"/><path d="m360 435c-28.278 0-88.527 0-105 0v45l52.5 10 52.5-10z" fill="#d7cfe6"/><path d="m150 480v30h105l10-15-10-15z" fill="#d7cfe6"/><path d="m360 480h-105v30h105z" fill="#c6bfd8"/><path d="m0 330v30h255l10-15-10-15z" fill="#fff5f5"/><path d="m255 330h255v30h-255z" fill="#ece6f2"/><path d="m226.796 96.787c-19.565 9.864-33.15 29.497-34.574 52.277-.524 8.382-8.914 142.554-9.438 150.936l36.108 10 36.108-10 10-104.956-10-90.044z" fill="#ffd237"/><path d="m255 105v195l36.107 10 36.108-10c-1.148-18.358-8.288-132.547-9.438-150.935-1.033-16.536-8.443-31.28-19.737-41.89-4.403-4.137-9.397-7.646-14.834-10.387z" fill="#ffb037"/><path d="m182.784 300-1.875 30h74.091l10-15-10-15z" fill="#ffb037"/><path d="m327.215 300h-72.215v30h74.091z" fill="#ff9037"/><path d="m202.5 52.5c0 28.994 23.504 52.5 52.5 52.5l10-52.5-10-52.5c-28.994 0-52.5 23.504-52.5 52.5z" fill="#ff6c6c"/><path d="m307.5 52.5c0-28.994-23.504-52.5-52.5-52.5v105c28.994 0 52.5-23.504 52.5-52.5z" fill="#e63950"/></g></svg>