<svg id="Capa_1" enable-background="new 0 0 510 510" height="512" viewBox="0 0 510 510" width="512" xmlns="http://www.w3.org/2000/svg"><g><path d="m151.135 147.729-37.815-25.21-16.64 24.962 40.935 27.29 16.385-9.771z" fill="#d7cfe6"/><path d="m358.864 147.729-2.197 17.271 15.719 9.771c13.02-8.68 27.915-18.61 40.935-27.29l-16.641-24.962c-12.582 8.388-25.254 16.836-37.816 25.21z" fill="#c6bfd8"/><path d="m120 450v30l67.5 10 67.5-10 10-15-10-15-67.5-10z" fill="#ece6f2"/><path d="m390 450-67.5-10-67.5 10v30l67.5 10 67.5-10z" fill="#d7cfe6"/><path d="m120 240v30l67.5 10 67.5-10 10-15-10-15-67.5-10z" fill="#ece6f2"/><path d="m390 240-67.5-10-67.5 10v30l67.5 10 67.5-10z" fill="#d7cfe6"/><path d="m165 120c-12.196 24.392-37.818 75.636-45 90l67.5 10 67.5-10 10-45-10-45-45-10z" fill="#fff5f5"/><path d="m345 120-45-10-45 10v90l67.5 10 67.5-10c-12.195-24.392-37.818-75.636-45-90z" fill="#ece6f2"/><path d="m196.552 30-1.552 11.167v18.833l30 10 30-10 10-15-10-15-29.224-10z" fill="#fff5f5"/><path d="m314.609 35.53-1.161-5.53-29.224-10-29.224 10v30l30 10 30-10v-9.416z" fill="#ece6f2"/><path d="m120 270v180h135v-117.459l10-28.208-10-34.333z" fill="#d7cfe6"/><path d="m255 270h135v180h-135z" fill="#c6bfd8"/><path d="m165 60v60h90l10-30-10-30z" fill="#ece6f2"/><path d="m255 60h90v60h-90z" fill="#d7cfe6"/><path d="m222.521 372.733c-6.849 10.749-12.521 22.578-12.521 32.267 0 24.813 20.186 45 45 45l10-58.729-10-58.73-5.582 6.22c-3.939 4.483-16.362 17.438-26.897 33.972z" fill="#fff5f5"/><path d="m300 405c0-9.689-5.673-21.518-12.522-32.267-11.094-17.413-23.554-30.083-32.478-40.192v117.459c24.814 0 45-20.186 45-45z" fill="#ece6f2"/><path d="m236.167 0c-18.797 0-34.726 12.68-39.615 30h58.448l10-15-10-15c-6.587 0-12.246 0-18.833 0z" fill="#ece6f2"/><path d="m273.833 0c-6.587 0-12.246 0-18.833 0v30h58.448c-4.887-17.311-20.809-30-39.615-30z" fill="#d7cfe6"/><path d="m120 480v30h135l10-15-10-15z" fill="#d7cfe6"/><path d="m255 480h135v30h-135z" fill="#c6bfd8"/><path d="m120 210v30h135l10-15-10-15c-16.333 0-118.559 0-135 0z" fill="#d7cfe6"/><path d="m255 210h135v30h-135z" fill="#c6bfd8"/></g></svg>