<svg id="Capa_1" enable-background="new 0 0 510 510" height="512" viewBox="0 0 510 510" width="512" xmlns="http://www.w3.org/2000/svg"><g><path d="m146.08 58.47-146.08 168.06 127.5 10 127.5-10 10-30.837-10-31.729-45.005-75.978z" fill="#ffb037"/><path d="m510 226.53-225.006-103.909-29.994 41.343v62.566l6.727 65.579z" fill="#ff9037"/><path d="m0 226.53v194.999l62.018 10 62.018-10c8.39-14.466 26.771-19.199 40.951-10.977 4.546 2.635 8.34 6.431 10.977 10.977l39.518 10 39.518-10 10-97.5-10-97.499c-7.193 0-247.807 0-255 0z" fill="#ffd237"/><path d="m510 226.53c-4.655 0-160.348 0-165 0 0 24.852-20.147 45-45 45s-45-20.146-45-45v194.999l127.5 10 127.5-10c0-10.821 0-184.177 0-194.999z" fill="#ffb037"/><path d="m210 87.99c-9.287 8.309-15 20.309-15 33.54 0 24.849 20.149 45 45 45 5.127 0 10.18-.863 15-2.566l10-27.597-10-27.597c-13.024-6.014-31.986-14.77-45-20.78z" fill="#ffd237"/><g fill="#ffb037"><path d="m284.99 122.62c-10.487-4.843-19.503-9.006-29.99-13.85v55.193c17.305-6.116 29.538-22.381 29.99-41.343z"/><path d="m120 451.53v-15l4.036-15h-124.036v30z"/><path d="m175.964 421.53 4.036 15v15h75l10-15-10-15z"/></g><path d="m255 421.53h255v30h-255z" fill="#ff9037"/><path d="m378.496 305.026c-14.658 14.658-14.668 38.341 0 53.008 6.79 6.79 16.165 10.996 26.504 10.996 20.677 0 37.5-16.821 37.5-37.5 0-10.339-4.205-19.714-10.996-26.504-14.657-14.658-38.341-14.668-53.008 0z" fill="#fe7705"/><path d="m150 286.53h30v29.999h-30z" fill="#ff9037"/><path d="m75 316.53h30v30h-30z" fill="#ff9037"/><path d="m225 331.53h30v30h-30z" fill="#ff9037"/><path d="m300 361.53h30v30h-30z" fill="#fe7705"/></g></svg>