<svg id="Capa_1" enable-background="new 0 0 510 510" height="512" viewBox="0 0 510 510" width="512" xmlns="http://www.w3.org/2000/svg"><g><path d="m255 240-45-10-40 10-2.862 85.656 16.612 79.344 32.318 10 38.932-10 10-82.5z" fill="#fd9"/><path d="m338.75 240-41.875-10-41.875 10v165l35 10 35-10 16.875-82.5z" fill="#ffc473"/><path d="m255 435 10-15-10-15h-71.25l-8.75 15 11.25 15 33.75 10.333z" fill="#ffc473"/><path d="m334.5 420-9.5-15h-70v30l35.333 10.333 32.167-10.333z" fill="#fbb064"/><path d="m170 240-43.486-10.777-39.484 9.295 27.763 166.482 35.207 10 33.75-10z" fill="#ffc473"/><path d="m325 405 35.103 10 35.104-10 13.75-82.5 14.11-84.01-42.339-8.49-41.978 10z" fill="#fbb064"/><path d="m150.521 445.333 35.729-10.333-2.5-30h-68.957l5 30z" fill="#fbb064"/><path d="m358.853 445.333 31.354-10.333 5-30h-70.207l-2.5 30z" fill="#fb9264"/><path d="m240 30c-16.568 0-30-13.431-30-30-5.246 0-9.754 0-15 0-24.852 0-45 20.147-45 45 0 24.853 20.146 45 45 45l30 10 30-10 15-30-15-30c-5.246 0-9.754 0-15 0z" fill="#ff9ac9"/><path d="m360 60c0-16.568-13.431-30-30-30-20.194 0-63.236 0-75 0v60l37.5 10 37.5-10c8.284 0 15.784-3.358 21.213-8.787 5.43-5.429 8.787-12.929 8.787-21.213z" fill="#ff7cb9"/><path d="m142.5 90c-20.71 0-37.5 16.789-37.5 37.5 0 20.71 16.789 37.5 37.5 37.5l56.25 10 56.25-10 10-37.5-10-37.5c-30.292 0-94.855 0-112.5 0z" fill="#ff7cb9"/><path d="m405 127.5c0-20.71-16.789-37.5-37.5-37.5-30.291 0-94.854 0-112.5 0v75l56.25 10 56.25-10c20.71 0 37.5-16.789 37.5-37.5z" fill="#ff5ca8"/><path d="m97.5 165c-20.71 0-37.5 16.789-37.5 37.5 0 20.71 16.789 37.5 37.5 37.5h157.5l10-37.5-10-37.5c-8.742 0-148.758 0-157.5 0z" fill="#ff5ca8"/><path d="m450 202.5c0-20.71-16.789-37.5-37.5-37.5-19.161 0-138.309 0-157.5 0v75h157.5c20.71 0 37.5-16.789 37.5-37.5z" fill="#ff45a2"/><path d="m135 510h120l10-17.5-10-27.5-87.862-10-100.857 10c11.815 26.958 38.522 45 68.719 45z" fill="#ece6f2"/><path d="m60 435c0 10.664 2.252 20.807 6.281 30h188.719l10-15-10-15c-10.822 0-184.178 0-195 0z" fill="#d7cfe6"/><path d="m255 510h120c30.156 0 56.89-18.009 68.719-45l-104.219-10-84.5 10z" fill="#d7cfe6"/><path d="m255 435v30h188.719c4.029-9.193 6.281-19.336 6.281-30-10.822 0-184.178 0-195 0z" fill="#c6bfd8"/></g></svg>