<svg id="Capa_1" enable-background="new 0 0 510 510" height="512" viewBox="0 0 510 510" width="512" xmlns="http://www.w3.org/2000/svg"><g><path d="m150 180c-7.259 0-52.693 0-60 0 0-8.284-3.358-15.784-8.787-21.213s-12.929-8.787-21.213-8.787c-16.568 0-30 13.431-30 30-16.568 0-30 13.431-30 30 0 16.568 13.431 30 30 30v60c-16.568 0-30 13.431-30 30 0 16.568 13.431 30 30 30v60c-16.568 0-30 13.431-30 30 0 16.568 13.431 30 30 30 0 16.568 13.431 30 30 30 16.568 0 30-13.431 30-30h60c0 16.568 13.431 30 30 30l10-180s-4.474-91.326-10-120z" fill="#ffc473"/><path d="m180 450v60c16.568 0 30-13.431 30-30h60c0 16.568 13.431 30 30 30 16.568 0 30-13.431 30-30 16.568 0 30-13.431 30-30 0-16.568-13.431-30-30-30 0-7.259 0-52.693 0-60l-30-30z" fill="#fbb064"/><path d="m180 450h-120v-240h120l10 120z" fill="#ff9ac9"/><path d="m300 450h-120v-120l52-13.5 68 13.5z" fill="#ff7cb9"/><path d="m300 30c-7.259 0-52.693 0-60 0 0-16.568-13.431-30-30-30-16.568 0-30 13.431-30 30-16.568 0-30 13.431-30 30 0 16.568 13.431 30 30 30v60c-16.568 0-30 13.431-30 30 0 16.568 13.431 30 30 30v60c-16.568 0-30 13.431-30 30 0 16.568 13.431 30 30 30 0 16.568 13.431 30 30 30 16.568 0 30-13.431 30-30h60c0 16.568 13.431 30 30 30l10-180-10-180c-16.568 0-30 13.431-30 30z" fill="#fd9"/><g fill="#ffc473"><path d="m240 90h60v60h-60z"/><path d="m240 210h60v60h-60z"/><path d="m480 90c16.568 0 30-13.431 30-30 0-16.568-13.431-30-30-30 0-16.568-13.431-30-30-30-16.568 0-30 13.431-30 30-7.259 0-52.693 0-60 0 0-16.568-13.431-30-30-30v360c16.568 0 30-13.431 30-30h60c0 16.568 13.431 30 30 30 16.568 0 30-13.431 30-30 16.568 0 30-13.431 30-30 0-16.568-13.431-30-30-30 0-7.259 0-52.693 0-60 16.568 0 30-13.431 30-30 0-16.568-13.431-30-30-30 0-7.259 0-52.693 0-60z"/></g><path d="m360 90h60v60h-60z" fill="#fbb064"/><path d="m360 210h60v60h-60z" fill="#fbb064"/></g></svg>