<svg id="Capa_1" enable-background="new 0 0 510 510" height="512" viewBox="0 0 510 510" width="512" xmlns="http://www.w3.org/2000/svg"><g><path d="m150 397.5h105l10-52.5-10-52.5-64.5 46.672z" fill="#ffc473"/><path d="m307.5 327.5-52.5-35v105h105z" fill="#fbb064"/><path d="m229.999 112.5c-41.955 0-83.693 11.206-120.803 34.197l18.304 42.803 45 20.5 47.167-38.667 35.333-58.833c-10.894 0-14.016 0-25.001 0z" fill="#fbb064"/><path d="m400.803 146.697c-37.107-22.99-78.846-34.197-120.803-34.197-10.962 0-13.943 0-25 0l33.75 58.25 48.75 39.25 52.5-23z" fill="#fb9264"/><path d="m172.5 210 23.5 49 59 33.5 10-90-10-90z" fill="#ffc473"/><path d="m255 112.5v180l52.5-31.5 30-51z" fill="#fbb064"/><path d="m360 397.5h95c30.326 0 55-24.672 55-55 0-61.434-23.922-119.192-67.365-162.635-12.355-12.355-26.314-23.555-41.832-33.168-28.369 28.369-115.382 115.382-145.803 145.803z" fill="#ffc473"/><path d="m172.5 210c-7.353-7.353-55.769-55.769-63.303-63.303-66.284 41.066-109.197 113.596-109.197 195.803 0 30.327 24.673 55 55 55h95l105-105z" fill="#fd9"/><path d="m75 277.5h30v30h-30z" fill="#ffc473"/><path d="m405 277.5h30v30h-30z" fill="#fbb064"/></g></svg>