<svg id="Capa_1" enable-background="new 0 0 510 510" height="512" viewBox="0 0 510 510" width="512" xmlns="http://www.w3.org/2000/svg"><g><path d="m297.343 279.292 62.653-31.792h.004l10-26-10-34-35.614-25.749c-25.977 6.327-49.88 19.546-69.379 38.672z" fill="#ab5a1d"/><path d="m395.613 161.751c44.529 10.846 82.873 42.193 101.899 85.749l-68.757 40-68.755-40v-60z" fill="#9d4f14"/><path d="m270 397.5h90l10-15-10-15-60-8z" fill="#ffc473"/><path d="m360 367.5v30h120c16.569 0 30-13.43 30-30l-75-10z" fill="#fbb064"/><path d="m285 318.5 9.585-51.039c31.656-.815 32.38-19.961 65.411-19.961h.004l10 70-10 50h-60z" fill="#fd9"/><path d="m333.496 176.504c6.79 6.79 16.165 10.996 26.504 10.996l15-37.5-15-37.5c-10.339 0-19.714 4.206-26.504 10.996-14.658 14.658-14.668 38.34 0 53.008z" fill="#ff6c6c"/><path d="m386.504 123.496c-6.79-6.79-16.165-10.996-26.504-10.996v75c10.339 0 19.714-4.206 26.504-10.996 14.658-14.658 14.668-38.34 0-53.008z" fill="#e63950"/><path d="m510 307.5c0-21.455-4.51-41.735-12.487-60h-2.513c-33.751 0-33.751 20-67.502 20-33.75 0-33.751-19.998-67.498-20v120h150z" fill="#ffc473"/><path d="m149.996 247.5h.004l10-26-10-34-35.614-25.749c-45.564 11.097-83.265 43.123-101.893 85.749l70.007 34.25z" fill="#ab5a1d"/><path d="m185.613 161.751c44.479 10.833 82.85 42.14 101.9 85.749l-68.757 40-68.756-40v-60z" fill="#9d4f14"/><path d="m112.5 150c0 20.677 16.822 37.5 37.5 37.5l15-37.5-15-37.5c-20.677 0-37.5 16.822-37.5 37.5z" fill="#ff6c6c"/><path d="m176.504 123.496c-6.79-6.79-16.165-10.996-26.504-10.996v75c10.339 0 19.714-4.206 26.504-10.996 14.659-14.658 14.667-38.34 0-53.008z" fill="#e63950"/><path d="m0 367.5c0 16.57 13.43 30 30 30h120l10-15-10-15-75-10z" fill="#ffc473"/><path d="m150 367.5v30h120c16.569 0 30-13.43 30-30l-75-10z" fill="#fbb064"/><path d="m149.996 247.5c-33.749 0-33.749 20-67.498 20s-33.749-20-67.497-20h-2.507c-8.03 18.375-12.494 38.664-12.494 60v60h150l10-50-10-70c-.002 0-.003 0-.004 0z" fill="#fd9"/><path d="m300 307.5c0-21.455-4.51-41.735-12.487-60h-2.513c-33.751 0-33.751 20-67.502 20-33.75 0-33.751-19.998-67.498-20v120h150z" fill="#ffc473"/></g></svg>