<svg id="Capa_1" enable-background="new 0 0 510 510" height="512" viewBox="0 0 510 510" width="512" xmlns="http://www.w3.org/2000/svg"><g><path d="m135 240-52.5 10-52.5-10v-30l52.5-10 52.5 10 10 15z" fill="#d7cfe6"/><path d="m240 240-52.5 10-52.5-10v-30l52.5-10 52.5 10z" fill="#c6bfd8"/><path d="m30 240v137.555l105-17.555 10-48.362-10-71.638z" fill="#ece6f2"/><path d="m240 240h-105v120l52.5 13.25 52.5-13.25z" fill="#d7cfe6"/><path d="m135 150-37.5 10-37.5-10c0-9.316 0-46.297 0-60l10-15-10-15v-22.5c0-20.71 16.789-37.5 37.5-37.5 20.71 0 37.5 16.789 37.5 37.5l10 9.834-10 12.666-10 16.167 10 13.833 9.5 30z" fill="#fd9"/><path d="m210 150-37.5 10-37.5-10v-30l10-14.376-10-11.874c0-4.109 0-56.428 0-56.25 0-10.355 4.197-19.73 10.983-26.517 14.631-14.63 38.375-14.659 53.033 0 6.787 6.787 10.984 16.162 10.984 26.517v52.5l-10 14.75 10 15.251z" fill="#9d4f14"/><path d="m60 60h75v30h-75z" fill="#ffc473"/><path d="m135 90h75v30h-75z" fill="#8a4711"/><path d="m22 150c-12.149 0-22 9.85-22 22 0 .158 0 16.633 0 16 0 12.15 9.85 22 22 22h113l10-30-10-30c-3.85 0-116.655 0-113 0z" fill="#ffb037"/><path d="m248 150c-30.416 0-95.282 0-113 0v60c3.85 0 116.655 0 113 0 12.149 0 22-9.85 22-22 0-.158 0-16.633 0-16 0-12.15-9.85-22-22-22z" fill="#ff9037"/><path d="m77.498 360.039c-42.933 1.348-77.498 36.507-77.498 79.961v40l127.5 10 127.5-10 10-21.333-10-23.667-30-75c-8.72 0-62.44 0-75 0l-30.763 10.895-29.237-10.895c-10.044.011-10.472-.025-12.502.039z" fill="#fd9"/><path d="m510 440c0-43.488-34.602-78.614-77.499-79.961-2.052-.064-2.698-.028-12.501-.039l-30 10-30-10c-13.112 0-66.833 0-75 0l-30 75v45l127.5 10 127.5-10c0-13.99 0-26.01 0-40z" fill="#ffc473"/><path d="m411.213 426.213c5.43-5.429 8.787-12.929 8.787-21.213 0-14.981 0-30.019 0-45-7.259 0-52.693 0-60 0v45c0 8.284 3.357 15.784 8.787 21.213 11.707 11.708 30.699 11.727 42.426 0z" fill="#fbb064"/><path d="m141.213 426.213c5.43-5.429 8.787-12.929 8.787-21.213 0-14.981 0-30.019 0-45-7.259 0-52.693 0-60 0v45c0 8.284 3.357 15.784 8.787 21.213 11.707 11.708 30.699 11.727 42.426 0z" fill="#ffc473"/><path d="m255 360v75c16.568 0 30-13.431 30-30 0-14.981 0-30.019 0-45-10.492 0-19.508 0-30 0z" fill="#fbb064"/><path d="m225 360v45c0 16.568 13.431 30 30 30 0-20.194 0-63.236 0-75-10.492 0-19.508 0-30 0z" fill="#ffc473"/><path d="m255 510h-255v-30h255l10 15z" fill="#ffc473"/><path d="m255 480h255v30h-255z" fill="#fbb064"/></g></svg>