<svg id="Capa_1" enable-background="new 0 0 510.001 510.001" height="512" viewBox="0 0 510.001 510.001" width="512" xmlns="http://www.w3.org/2000/svg"><g><path d="m319.667 145.089-4.141-15.51c8.056-6.8 137.172-115.794 145.245-122.609 11.932-9.963 29.656-9.249 40.77 2.168l-74.875 75.363-89.042 62.967z" fill="#ffd237"/><path d="m339.25 165.751 14.76 9.861c8.052-6.797 137.142-115.768 145.218-122.586 12.717-10.619 14.419-29.538 3.8-42.256-.473-.565-.969-1.101-1.485-1.632-9.082 7.665-154.815 130.648-163.917 138.33z" fill="#ffb037"/><path d="m271.325 115.985c-57.164-6.346-126.429 19.345-171.37 56.87v.001c-15.938 13.308-28.57 27.85-37.685 43.245-19.041 32.159-21.743 66.443-11.045 98.901l24.052 10 24.052-10c18.379-58.708 135.344-135.794 194.101-147.363-9.792 8.176-166.67 139.169-176.484 147.363l12.425 10 12.426-10 92.872-67.333 91.593-90.476c3.975-3.401 7.39-6.323 11.365-9.723-16.892-19.192-40.803-28.654-66.302-31.485zm-132.914 102.925c-23.69 19.782-48.809 45.157-62.113 73-6.686-38.764 12.928-71.013 42.886-96.028v.001c38.917-32.496 96.864-53.603 143.118-50.492-42.262 15.144-89.621 44.904-123.891 73.519z" fill="#ece6f2"/><path d="m347.716 161.679c-2.894-5.148-6.351-9.953-9.378-13.403-.237-.27-.476-.539-.713-.808-4.477 3.83-189.803 162.376-195.83 167.533l10.978 10 10.979-10c8.265-6.9 140.643-117.436 148.907-124.336-4.109 10.477-10.423 21.425-16.592 30.906-21.746 33.42-54.698 68.498-85.599 93.43l22.713 10 22.713-10c26.468-25.152 54.694-57.851 73.101-89.738-3.511 31.154-18.621 63.797-36.896 89.738l17.84 10 17.841-10c16.644-27.884 29.548-61.106 31.763-93.424 1.15-16.817-1.621-41.742-11.827-59.898z" fill="#d7cfe6"/><path d="m0 375.001c0 41.132 18.637 79.433 50.252 105l83.624 10 83.624-10 10-52.5-10-52.5-108.75-10z" fill="#ff6c6c"/><g fill="#e63950"><path d="m0 375.001h217.5l10-30-10-30h-217.5z"/><path d="m135 510.001h82.5l10-15-10-15c-20.324 0-146.864 0-167.248 0 23.917 19.342 53.595 30 84.748 30z"/><path d="m217.5 375.001v105l83.624 10 83.624-10c31.575-25.535 50.252-63.818 50.252-105l-108.75-10z"/></g><path d="m217.5 315.001h217.5v60h-217.5z" fill="#ae2538"/><path d="m300 510.001c31.129 0 60.812-10.643 84.748-30-20.323 0-146.864 0-167.248 0v30z" fill="#ae2538"/></g></svg>