<svg id="Capa_1" enable-background="new 0 0 510.001 510.001" height="512" viewBox="0 0 510.001 510.001" width="512" xmlns="http://www.w3.org/2000/svg"><g><path d="m332 300.334 161.897-51.49c-25.272-50.567-75.929-82.325-130.816-83.8-2.154-.058-227.973-.043-228.082-.043l123.711 80.897z" fill="#ffc473"/><path d="m510 345.001c-6.771 0-233.232 0-240 0 0-10.492 0-19.508 0-30h240z" fill="#ff9ac9"/><path d="m510 345.001c-.009-11.847.022-26.651-.028-30l-119.986-10-119.986 10-10 15 10 15z" fill="#fbb064"/><path d="m256.875 283.001 13.125 32h239.972c-.347-23.114-5.817-45.634-16.074-66.157-10.826 4.615-20.883 6.157-32.65 6.157-40.876 0-40.876-20-81.753-20-40.874 0-40.874 20-81.749 20-8.093 0-14.583-.784-20.107-2.042-7.588-1.727-13.349-4.351-18.929-7.061z" fill="#ff7cb9"/><path d="m135 165.001c-74.557 0-135 60.439-135 135v15l47.5 10 45.071-10 42.429-60 10-42.667z" fill="#ab5a1d"/><path d="m0 345.001h135l-42.429-30h-92.571z" fill="#9d4f14"/><path d="m135 255.001c-31.036 0-52.773 30.742-42.429 60l21.214 10 21.215-10 10-30z" fill="#ff9ac9"/><path d="m135 345.001 10-15-10-15c-14.847 0-27.582 0-42.429 0 6.202 17.542 22.906 30 42.429 30z" fill="#ff7cb9"/><path d="m270 300.001c0-74.557-60.439-135-135-135v90.074l42.429 59.926 45.071 10 47.5-10c0-5.246 0-9.753 0-15z" fill="#9d4f14"/><path d="m135 345.001h135v-30h-92.571z" fill="#8a4711"/><path d="m135 255.001v60l21.215 10 21.214-10c10.368-29.325-11.464-60-42.429-60z" fill="#ff7cb9"/><path d="m177.429 315.001c-14.847 0-27.582 0-42.429 0v30c19.518 0 36.226-12.453 42.429-30z" fill="#ff5ca8"/></g></svg>