<svg id="Capa_1" enable-background="new 0 0 502.109 502.109" height="512" viewBox="0 0 502.109 502.109" width="512" xmlns="http://www.w3.org/2000/svg"><g><path d="m144.607 34.19c-11.409-11.408-22.783-22.782-34.191-34.19-5.946 5.946-46.489 46.489-52.755 52.755 11.502 11.502 24.679 24.679 36.181 36.181-14.041 92.925-14.193 228.294-.438 321.281-11.309 11.31-27.807 27.808-39.137 39.138 5.946 5.946 46.489 46.488 52.755 52.755 10.028-10.028 24.659-24.659 34.708-34.708 36.214 6.634 72.656 10.013 109.326 10.013l10-226.356-10-226.355c-36.113-.002-71.6 3.272-106.449 9.486z" fill="#ab5a1d"/><path d="m360.38 467.401c10.028 10.028 24.659 24.659 34.707 34.708l52.755-52.755c-12.448-12.448-26.69-26.689-39.137-39.138 13.679-92.474 13.611-227.351-.213-319.809 11.974-11.974 25.679-25.68 37.653-37.653-5.946-5.945-46.488-46.487-52.754-52.754-9.969 9.969-24.48 24.48-34.449 34.449-35.457-6.409-71.42-9.747-107.887-9.747v452.712c36.743 0 73.184-3.392 109.325-10.013z" fill="#9d4f14"/><path d="m236.055 270.781h-25c-19.33 0-35-15.67-35-35v-25h25c19.33 0 35 15.67 35 35l10 12.773z" fill="#ffb037"/><path d="m256.055 257.781 10-12c0-19.329 15.669-35 35-35h25v25c0 19.329-15.669 35-35 35-8.697 0-16.127 0-25 0z" fill="#ff9037"/><path d="m236.055 330.062h-25c-19.33 0-35-15.67-35-35v-25h25c19.33 0 35 15.67 35 35l10 13.159z" fill="#ffb037"/><path d="m233.377 159.02c-13.668 13.668-13.669 35.829 0 49.497l2.679 2.68 7.499 3.545s7.37-3.547 7.5-3.547l10-27.633-10-42.22c-1.284 1.285 5.314-5.313-17.678 17.678z" fill="#ffb037"/><path d="m268.732 208.518c13.668-13.668 13.669-35.828 0-49.497-6.183-6.183-11.496-11.495-17.678-17.678v69.852l7.5 3.797 7.5-3.796z" fill="#ff9037"/><path d="m256.055 317.062 10-12c0-19.329 15.669-35 35-35h25v25c0 19.33-15.669 35-35 35-8.697 0-16.127 0-25 0z" fill="#ff9037"/><path d="m236.054 211.195v149.586h15.001l10-77.927-10-71.659z" fill="#ffd237"/><path d="m251.055 211.195h15v149.586h-15z" fill="#ffb037"/></g></svg>