<svg id="Capa_1" enable-background="new 0 0 510 510" height="512" viewBox="0 0 510 510" width="512" xmlns="http://www.w3.org/2000/svg"><g><path d="m129.442 195h-39.442l-10-15 10-15h52.039l7.961 15z" fill="#d7cfe6"/><path d="m142.039 345h-52.039l-15-15 15-15h39.545l16.955 12z" fill="#d7cfe6"/><path d="m90 510h-60l-10-255 10-255h60z" fill="#ece6f2"/><path d="m30 510h-30v-510h30z" fill="#d7cfe6"/><path d="m177.179 392.821c35.309 35.31 84.059 57.179 137.821 57.179l10-195-10-195c-53.762 0-102.512 21.869-137.821 57.179-76.223 76.223-76.271 199.372 0 275.642z" fill="#ab5a1d"/><path d="m315 60v390c107.52 0 195-87.474 195-195 0-107.52-87.474-195-195-195z" fill="#9d4f14"/><path d="m274.211 137.981c-4.826 3.324-7.255 4.393-13.5 5.595-16.381 3.154-42.359 2.768-51.94 31.069-3.012 8.897-3.699 18.299-5.195 26.066-1.205 6.255-2.276 8.683-5.594 13.499-9.173 13.315-28.319 32.065-14.82 59.501 5.732 11.65 15.396 21.009 18.41 28.274 1.671 4.03 2.536 10.172 3.234 14.786.908 6.002 1.878 12.417 3.966 18.582 11.161 32.973 44.643 27.018 59.244 33.075 10.82 4.484 25.435 23.07 46.985 23.07l9.999-136.498-10-136.5c-6.936 0-13.136 1.918-18.712 4.661-8.641 4.252-15.728 10.446-22.077 14.82z" fill="#ffc473"/><path d="m432.019 214.211c-3.316-4.814-4.39-7.242-5.595-13.498-3.155-16.392-2.766-42.36-31.069-51.941-8.897-3.012-18.299-3.699-26.066-5.195-6.257-1.205-8.684-2.277-13.499-5.595-10.548-7.266-23.182-19.482-40.79-19.482v273c17.52 0 30.062-12.094 40.79-19.482 4.824-3.323 7.254-4.391 13.497-5.594 16.383-3.154 42.361-2.767 51.942-31.069 3.012-8.897 3.703-18.319 5.194-26.067 1.215-6.307 2.32-8.745 5.595-13.499 9.219-13.384 28.312-32.076 14.82-59.499-4.25-8.641-10.447-15.732-14.819-22.079z" fill="#fbb064"/><path d="m289.09 164.123c-6.647 4.324-12.171 6.638-20.315 8.417-11.497 2.511-24.839 2.911-29.081 7.153-4.237 4.237-4.685 17.781-7.153 29.081-1.783 8.166-4.102 13.683-8.417 20.315-6.255 9.616-15.623 19.366-15.623 25.91 0 6.545 9.364 16.286 15.623 25.91 4.324 6.648 6.638 12.172 8.417 20.315 2.465 11.284 2.921 24.849 7.153 29.081 4.239 4.238 17.792 4.688 29.081 7.153 12.597 2.752 18.737 6.941 29.189 14.747 2.686 2.006 5.41 4.042 8.013 5.695 3.323 2.111 6.445 3.598 9.024 3.598l9.999-106.498-10-106.5c-2.579 0-5.701 1.486-9.025 3.598-5.244 3.332-10.733 8.024-16.885 12.025z" fill="#fd9"/><path d="m405.877 229.09c-4.326-6.651-6.639-12.172-8.417-20.315-2.466-11.293-2.913-24.841-7.153-29.081-4.238-4.237-17.781-4.685-29.082-7.153-8.123-1.774-13.648-4.08-20.314-8.417-9.65-6.276-19.365-15.623-25.91-15.623v213c6.546 0 16.26-9.347 25.91-15.623 3.009-1.957 6.169-3.743 9.585-5.16 10.551-4.375 22.171-4.818 31.145-6.802 3.804-.841 6.995-1.938 8.666-3.608 4.239-4.237 4.689-17.795 7.154-29.081 1.784-8.164 4.104-13.684 8.418-20.316 6.268-9.637 15.622-19.366 15.622-25.909 0-2.579-1.486-5.701-3.598-9.025-3.299-5.193-8.051-10.777-12.026-16.887z" fill="#ffc473"/><path d="m272.594 297.406c10.864 10.866 25.864 17.594 42.406 17.594l10-60-10-60c-16.542 0-31.542 6.73-42.406 17.594-23.454 23.453-23.469 61.345 0 84.812z" fill="#ab5a1d"/><path d="m315 195v120c33.083 0 60-26.915 60-60 0-33.083-26.915-60-60-60z" fill="#9d4f14"/><path d="m293.797 276.203c5.431 5.433 12.931 8.797 21.203 8.797l10-30-10-30c-8.272 0-15.772 3.364-21.203 8.797-11.727 11.726-11.735 30.673 0 42.406z" fill="#9d4f14"/><path d="m315 225v60c16.541 0 30-13.457 30-30 0-16.541-13.457-30-30-30z" fill="#8a4711"/></g></svg>