<svg id="Capa_1" enable-background="new 0 0 510 510" height="512" viewBox="0 0 510 510" width="512" xmlns="http://www.w3.org/2000/svg"><g><path d="m420 90h-30l-10-30 10-30h30l10 30z" fill="#c6bfd8"/><path d="m510 60v255c-16.155-12.117-50.589-37.941-60-45 0-10.128 0-139.871 0-150 0-16.569-13.43-30-30-30 0-7.259 0-52.693 0-60h60c8.285 0 15.785 3.357 21.214 8.786s8.786 12.929 8.786 21.214z" fill="#d7cfe6"/><path d="m225 480h-165v-30l82.5-10 82.5 10 10 15z" fill="#ffb037"/><path d="m390 480h-165v-30l82.5-10 82.5 10v15z" fill="#ff9037"/><path d="m225 165-82.5 10-82.5-10v-30l82.5-10 82.5 10 10 15z" fill="#ece6f2"/><path d="m390 165-82.5 10-82.5-10v-30l82.5-10 82.5 10z" fill="#d7cfe6"/><path d="m60 165h165v285h-165z" fill="#ffd237"/><path d="m225 450h-165v-30l10-15-10-15v-30l10-15-10-15v-30l10-15-10-15v-30l10-15-10-15v-45h165l10 142.5z" fill="#ffd237"/><g fill="#fff5f5"><path d="m0 30c16.26 20.324 50.422 63.027 60 75v30h165l15-45-15-60c-15.192 0-209.806 0-225 0z"/><path d="m60 210h75v30h-75z"/><path d="m60 330h75v30h-75z"/><path d="m60 390h60v30h-60z"/><path d="m60 270h60v30h-60z"/></g><path d="m225 165h165v285h-165z" fill="#ffb037"/><path d="m225 30h165v105h-165z" fill="#ece6f2"/></g></svg>