<svg id="Capa_1" enable-background="new 0 0 510 510" height="512" viewBox="0 0 510 510" width="512" xmlns="http://www.w3.org/2000/svg"><g><path d="m0 352.097v74.133l127.5 10 127.5-10 10-27.5-10-27.5s-.003 0-.004 0c0 0-.002 0-.004 0l-95.992-35z" fill="#fd9"/><path d="m255 371.229v55l127.5 10 127.5-10c0-8.992 0-65.109 0-74.133l-181.094-9.773z" fill="#ffc473"/><path d="m159.75 172.98 95.242 33.25h.003.004l10.001 27.5-10 27.5-105 10-105-10c0-7.165 0-51.88 0-59.075z" fill="#ffc473"/><path d="m255 206.23v55l105 10 105-10c0-7.147 0-51.881 0-59.076l-108.333-31.257z" fill="#fbb064"/><path d="m165 53.771-11.164 12.441c-7.938 8.845-33.836 39.315-33.836 60.017l41.667 10 48.333-10c0-20.702-25.898-51.173-33.836-60.018z" fill="#e63950"/><path d="m243.836 66.212c-12.505 13.934-33.836 41.292-33.836 60.017l22.5 10 22.5-10 10-36.229-10-36.229c-3.904 4.35-7.26 8.09-11.164 12.441z" fill="#ff6c6c"/><path d="m260.582 59.991-5.582-6.22v72.459l22.5 10 22.5-10c0-9.688-5.673-21.517-12.522-32.267-10.39-16.309-22.722-29.221-26.896-33.972z" fill="#e63950"/><path d="m345 53.771c-3.904 4.351-7.26 8.091-11.164 12.441-12.505 13.934-33.836 41.292-33.836 60.017l45 10 45-10c0-18.726-21.332-46.083-33.836-60.018-3.904-4.35-7.26-8.09-11.164-12.44z" fill="#ae2538"/><path d="m45 126.229v75.925c7.963 2.48 17.267 4.075 29.997 4.075 44.999 0 44.999-20 89.999-20 44.998 0 44.998 20 89.996 20h.003.004l10.001-40-10-40c-11.664 0-198.336 0-210 0z" fill="#ff7cb9"/><path d="m434.996 206.23c12.712 0 22.022-1.591 30.004-4.076 0-20.453 0-64.01 0-75.924-11.664 0-198.336 0-210 0v80c44.99-.002 44.996-20 89.992-20 45.001 0 45.003 20 90.004 20z" fill="#ff5ca8"/><path d="m45 261.229v30l105 10 105-10 10-15-10-15z" fill="#fbb064"/><path d="m465 261.229h-210v30l105 10 105-10z" fill="#fb9264"/><path d="m0 291.229v60.867c30.693 3.839 35.656 19.133 74.997 19.133 44.999 0 44.999-20 89.999-20 44.998 0 44.998 20 89.996 20h.003.004l10.001-40-10-40c-7.193 0-247.807 0-255 0z" fill="#ff9ac9"/><path d="m434.996 371.229c39.369 0 44.275-15.29 75.004-19.133 0-21.297 0-39.57 0-60.867-7.193 0-247.807 0-255 0v80c44.99-.002 44.996-20 89.992-20 22.501 0 33.752 5 45.002 10s22.501 10 45.002 10z" fill="#ff7cb9"/><path d="m0 426.229v30h255l10-15-10-15z" fill="#ffc473"/><path d="m255 426.229h255v30h-255z" fill="#fbb064"/></g></svg>