<svg id="Capa_1" enable-background="new 0 0 510 510" height="512" viewBox="0 0 510 510" width="512" xmlns="http://www.w3.org/2000/svg"><g><path d="m225.002 510h-195v-30l97.5-10 97.5 10 10 15z" fill="#ff9037"/><path d="m420.002 510h-195v-30l97.5-10 97.5 10z" fill="#fe7705"/><path d="m60.002 435 82.5 10 82.5-10 10-30-10-30-82.5-10-82.5 10z" fill="#ffd237"/><path d="m155.371 114.625 69.625-9.625 10-52.5-10-52.5c-57.736.002-110.082 30.022-139.927 77.672z" fill="#ffd237"/><path d="m95.226 82.17c31.853 13.112 76.68 22.83 129.77 22.83l10 122.04-10 147.96c-12.087 0-112.306 0-124.39 0l-18.277-10-22.323 10c0-11.664 0-198.336 0-210 0-21.172 4.027-42.555 12.55-63.06z" fill="#ffb037"/><path d="m95.226 82.17-10.16-4.5-12.51 24.27 131.08 129.3-143.63 143.76h40.6l124.39-122.69 10-21.075-10-21.075z" fill="#ff6c6c"/><path d="m225.002 435 82.5 10 82.5-10v-60l-82.5-10-82.5 10z" fill="#ffb037"/><path d="m364.943 77.668c-29.801-47.582-82.122-77.668-139.941-77.668 0 0-.002 0-.003 0s-.002 0-.002 0c-.001 28.278-.001 88.527-.001 105 90.923 8.323 68.718 6.29 72.375 6.625z" fill="#ffb037"/><path d="m377.466 101.93c5.461 13.146 9.308 27.24 11.2 42.051 5.851-2.148 10.879-3.993 16.73-6.141 12.685-4.16 26.061-3.559 37.943.966 21.009 8.003 34.498 26.925 36.421 47.877 2.317 25.253-12.441 49.35-36.664 58.438-17.674 6.731-35.417 13.488-53.09 20.22v109.66l-23.426-6.583-17.184 6.582c-4.715 0-114.801 0-124.399 0 0-10 0-137.939 0-147.94l.005-.005.005-.005-.005-.005-.005-.005c0-14.764 0-107.179 0-122.04 2.81-.115 31.078.511 65.995-5.286 23.725-3.938 45.318-9.94 63.765-17.534z" fill="#ff9037"/><path d="m246.366 231.24 131.1-129.31-12.52-24.26-10.19 4.51-129.76 127.98v42.15l124.4 122.69h40.61z" fill="#e63950"/><path d="m225.002 480h-195v-45h195l10 22.5z" fill="#ffb037"/><path d="m420.002 480h-195v-45h195z" fill="#ff9037"/></g></svg>