<svg id="Capa_1" enable-background="new 0 0 510 510" height="512" viewBox="0 0 510 510" width="512" xmlns="http://www.w3.org/2000/svg"><g><path d="m150 375-52.5 10-52.5-10c0-10.492 0-19.508 0-30l52.5-10 52.5 10z" fill="#d7cfe6"/><path d="m315 300c0-10.66 8.672-19.333 19.333-19.333h10.667v19.333l7.5 10 7.5-10 10-52.5-10-52.5-7.5-10-7.5 10v55.667c-3.73 0-6.936 0-10.667 0-27.201 0-49.333 22.13-49.333 49.333l15 10z" fill="#ece6f2"/><g fill="#d7cfe6"><path d="m315 330-15 10-15-10c0-10.492 0-19.508 0-30h30z"/><path d="m360 330-7.5 10-7.5-10c0-10.492 0-19.508 0-30h15l10 15z"/><path d="m375 280.667h10.667c10.66 0 19.333 8.673 19.333 19.333l15 10 15-10c0-27.201-22.13-49.333-49.333-49.333-3.73 0-6.936 0-10.667 0 0-62.591 0-6.5 0-55.667l-7.5-10-7.5 10v105l7.5 10 7.5-10c0-6.762 0-12.571 0-19.333z"/></g><path d="m375 330-7.5 10-7.5-10c0-10.492 0-19.508 0-30h15z" fill="#c6bfd8"/><path d="m435 330-15 10-15-10c0-10.492 0-19.508 0-30h30z" fill="#c6bfd8"/><path d="m360 195h-75v-60l37.5-10 37.5 10 10 30z" fill="#d7cfe6"/><path d="m240 330 4.356 30 57.822 10 57.822-10 10-15-10-15z" fill="#e63950"/><path d="m435 195h-75v-60l37.5-10 37.5 10z" fill="#c6bfd8"/><path d="m480 330h-120v30l57.822 10 57.822-10z" fill="#ae2538"/><path d="m150 345h-105c0-5.621 0-210.121 0-213.465l52.5-11.535 52.5 15z" fill="#ece6f2"/><path d="m67.5 0c-18.64 0-35.515 7.555-47.729 19.771-21.329 21.328-19.619 47.012-19.771 47.729 0 37.278 30.22 67.5 67.5 67.5h292.5l10-67.5-10-67.5c-16.233 0-276.267 0-292.5 0z" fill="#fff5f5"/><path d="m360 83h-15v-30h15l10 15z" fill="#ff6c6c"/><path d="m285 53h30v30h-30z" fill="#ffd237"/><path d="m90 53h135v30h-135z" fill="#ffd237"/><path d="m360 0h150v135h-150z" fill="#ece6f2"/><path d="m360 53h15v30h-15z" fill="#e63950"/><path d="m405 53h30v30h-30z" fill="#9d4f14"/><path d="m345 435h15l10-37.5-10-37.5c-14.051 0-101.549 0-115.644 0 12.995 43.658 53.373 75 100.644 75z" fill="#ff6c6c"/><path d="m360 435h15c47.25 0 87.643-31.323 100.644-75-14.051 0-101.549 0-115.644 0z" fill="#e63950"/><path d="m150 435-52.5 15-52.5-15c0-7.259 0-52.693 0-60h105z" fill="#c6bfd8"/><path d="m360 480-180 10-180-10v-45h360l10 22.5z" fill="#ffd237"/><path d="m510 480-75 10-75-10v-45h150z" fill="#ffb037"/><path d="m360 510h-360v-30h360l10 15z" fill="#ffb037"/><path d="m510 510h-150v-30h150z" fill="#ff9037"/></g></svg>