<svg id="Capa_1" enable-background="new 0 0 510 510" height="512" viewBox="0 0 510 510" width="512" xmlns="http://www.w3.org/2000/svg"><g><path d="m210 300.006v44.994l9.333 30.333 35.667 17.694c0-15.77 0-57.979 0-78.027l-21-15z" fill="#ffbda9"/><path d="m300 345c0-10.263 0-35.921 0-45l-24.667-1.5-20.333 16.5v78.027l30.333-15.694z" fill="#ffa68c"/><path d="m202.02 31.82c-.235-.061-7.469-1.936-7.02-1.82-33.139 0-60 26.859-60 60 0 30.305 15.179 55.791 45 59.52v30.239l37.5 10.49 37.5-10.249 10-75-10-105c-22.742 0-42.788 12.697-52.98 31.82z" fill="#fff5f5"/><path d="m330 149.52c29.825-3.729 45-29.22 45-59.52 0-33.139-26.859-60-60-60-.235.06-7.48 1.926-7.03 1.81-10.408-19.542-30.697-31.81-52.97-31.81v180l37.5 10.25 37.5-10.49z" fill="#ece6f2"/><path d="m180 210v30c0 41.42 33.577 75 75 75l10-52.5-10-52.5-37.5-10z" fill="#ffccbd"/><path d="m330 240c0-10.492 0-19.508 0-30l-37.5-10-37.5 10v105c41.42 0 75-33.577 75-75z" fill="#ffbda9"/><path d="m180 180v30h75l10-15-10-15z" fill="#ffd237"/><path d="m255 180h75v30h-75z" fill="#ffb037"/><path d="m142.463 345.375c-2.526.253-5.015.63-7.463 1.125l-10 81.75 10 81.75h75l15-10 15 10h15l10-42.5-10-74.473-45-48.027c-62.026.121-60.969-.281-67.537.375z" fill="#fff5f5"/><path d="m375 346.5c-4.991-1.002-10.007-1.5-15-1.5h-15.25l-56.083 41.833-33.667 49.339v73.828h120l10-81.75z" fill="#ece6f2"/><path d="m300 435h30v30h-30z" fill="#c6bfd8"/><path d="m210 439.93v70.07h30v-58.59l15-15.238 10-21.572-10-21.573z" fill="#d7cfe6"/><path d="m300 345-45 48.027v43.145l89.75-91.172z" fill="#c6bfd8"/><path d="m75 420v90h60v-163.497c-34.233 6.95-60 37.213-60 73.497z" fill="#ece6f2"/><path d="m375 346.503v163.497h60c0-11.026 0-78.971 0-90-.195-1.062 1.443-24.992-16.904-47.435-10.738-13.133-25.841-22.559-43.096-26.062z" fill="#d7cfe6"/></g></svg>