<svg id="Capa_1" enable-background="new 0 0 510.133 510.133" height="512" viewBox="0 0 510.133 510.133" width="512" xmlns="http://www.w3.org/2000/svg"><g><path d="m84.894 265.733-.674 55.42-31.165 6.428-29.494-49.182 13.431-54.34 32.925-12.374z" fill="#fd9"/><path d="m418.78 266.643 7.127 54.514 31.168 6.435 31.47-57.205-15.414-46.328-32.924-12.373z" fill="#ffc473"/><path d="m161.353 173.539-29.645 5.258v80.134l14.694 80.135h30.124l2.285-84z" fill="#ffc473"/><path d="m348.874 173.557-17.586 82.754 2.414 82.755h30.126l17.344-80.124-2.654-80.125z" fill="#fbb064"/><path d="m205.764 120.066c-26.459 0-47.393 22.865-44.784 49.402.808 8.809 15.812 172.489 16.507 180.075 2.311 23.101 21.56 40.523 44.777 40.523h32.797l10-135-10-135c-15.68 0-33.618 0-49.297 0z" fill="#fd9"/><path d="m103.042 183.887c-18.905 3.776-33.888 19.124-35.971 39.93l-.01.075-.01.075c-.15 1.595-.213 3.205-.187 4.82.068 4.078.347 4.211 4.241 35.984.015.116 4.379 34.973 4.365 34.865 2.8 22.477 21.987 39.43 44.64 39.43h26.291c-.414-4.52-14.278-155.75-14.693-160.27-15.535 2.755-17.659 3.134-28.666 5.091z" fill="#fbb064"/><path d="m41.343 268.525c-3.815-31.212-4.243-32.296-4.426-37.829-.072-2.206-.046-4.424.074-6.638-28.254 15.995-41.817 42.223-35.439 75.934 3.851 20.352 22.668 32.824 41.939 29.561.142-.029 9.943-2.051 9.563-1.973-1.885-3.761-3.469-7.705-4.713-11.804-2.281-7.515-2.665-12.97-2.87-14.238.001.001-3.28-26.235-4.128-33.013z" fill="#ffc473"/><path d="m255.115 210.066h-15v-30h15l10 15z" fill="#fbb064"/><path d="m255.115 270.066h-15v-30h15l10 15z" fill="#fbb064"/><path d="m255.115 330.066h-15v-30h15l10 15z" fill="#fbb064"/><path d="m304.465 120.066c-15.712 0-33.693 0-49.404 0v270h32.904c23.216 0 42.467-17.42 44.776-40.523.916-9.999 15.59-170.069 16.507-180.069 2.591-26.331-18.112-49.408-44.783-49.408z" fill="#ffc473"/><path d="m473.131 224.059c.24 4.425.103 8.891-.457 13.321-2.237 17.885-6.939 55.471-8.257 66.013-1.049 8.418-3.521 16.575-7.343 24.199.134.027 9.367 1.934 9.022 1.862.1.019.634.118.534.1 19.34 3.273 38.102-9.276 41.94-29.561 1.936-10.235 2.071-19.843.416-28.766-3.86-20.805-17.125-36.566-35.855-47.168z" fill="#fbb064"/><g fill="#fb9264"><path d="m407.085 183.887c-9.991-1.773-18.575-3.296-28.566-5.069-.414 4.52-14.276 155.73-14.69 160.249h26.18c22.629 0 41.842-16.928 44.641-39.398 8.983-71.824 8.55-67.497 8.606-70.872.368-21.792-14.699-40.622-36.171-44.91z"/><path d="m255.115 180.066h15v30h-15z"/><path d="m255.115 240.066h15v30h-15z"/><path d="m270.115 330.066c-5.246 0-9.754 0-15 0 0-10.492 0-19.508 0-30h15z"/></g></g></svg>