<svg id="Capa_1" enable-background="new 0 0 510.657 510.657" height="512" viewBox="0 0 510.657 510.657" width="512" xmlns="http://www.w3.org/2000/svg"><g><path d="m315.657 162.241 15-80.952-15-80.953c-86.035-.29-158.302 54.878-184.836 130.859z" fill="#ffc473"/><path d="m379.138 379.518c53.845-18.718 96.084-60.008 116.75-111.185 8.07-19.986 13.803-44.319 14.769-72.887-5.649-.046-10.504-.086-16.153-.132-35.867-.295-63.94-32.29-58.923-68.247.81-5.799 5.377-21.088 5.411-21.203-4.435-1.732-8.246-3.222-12.681-4.955-28.563-11.161-43.609-41.465-36.07-70.584 1.186-4.583 2.207-8.522 3.393-13.104-19.01-7.067-42.662-16.764-79.978-16.886v161.905z" fill="#fbb064"/><path d="m315.007 90.329c-5.246 0-9.754 0-15 0v-30h15l10 15z" fill="#9d4f14"/><path d="m315.007 60.329h15v30h-15z" fill="#8a4711"/><path d="m57.185 177.508c-76.224 76.224-76.271 199.372 0 275.643 36.559 36.559 85.966 57.348 138.472 57.171l10-194.992-10-194.992c-52.364-.177-101.813 20.511-138.472 57.17z" fill="#ab5a1d"/><path d="m333.057 177.742c-35.186-35.3-83.78-57.229-137.4-57.405v389.984c53.62-.177 102.215-22.105 137.4-57.405 75.902-76.148 75.98-198.947 0-275.174z" fill="#9d4f14"/><path d="m206.653 266.833c-14.658-14.658-14.668-38.341 0-53.008 14.658-14.658 38.341-14.668 53.008 0 14.658 14.658 14.668 38.341 0 53.008-14.658 14.658-38.341 14.668-53.008 0z" fill="#8a4711"/><path d="m93.503 386.833c-14.658-14.658-14.668-38.341 0-53.008 14.658-14.658 38.341-14.668 53.008 0 14.658 14.658 14.668 38.341 0 53.008-14.659 14.658-38.341 14.668-53.008 0z" fill="#9d4f14"/><path d="m285.007 360.329c-10.492 0-19.508 0-30 0 0-10.492 0-19.508 0-30h30z" fill="#8a4711"/><path d="m195.007 405.329h30v30h-30z" fill="#8a4711"/><path d="m135.007 270.329c-10.492 0-19.508 0-30 0 0-10.492 0-19.508 0-30h30z" fill="#9d4f14"/></g></svg>