<svg id="Capa_1" enable-background="new 0 0 510 510" height="512" viewBox="0 0 510 510" width="512" xmlns="http://www.w3.org/2000/svg"><g><path d="m134.565 318.228.096-.095c67.087-3.684 120.339-58.901 120.339-126.466 0-69.952-57.088-126.667-127.5-126.667s-127.5 56.715-127.5 126.667c0 139.913 114.165 253.333 255 253.333l10-36.667-10-42.5c-46.633 0-89.038-18.092-120.435-47.605zm-54.877-126.561c0-26.231 21.409-47.5 47.812-47.5s47.812 21.269 47.812 47.5-21.409 47.5-47.812 47.5c-26.297 0-47.812-21.17-47.812-47.5z" fill="#ffc473"/><path d="m382.5 65c-70.412 0-127.5 56.715-127.5 126.667 0 67.629 53.348 122.877 120.53 126.477-31.408 29.556-73.844 47.689-120.53 47.689v79.167c140.835 0 255-113.42 255-253.333 0-69.952-57.088-126.667-127.5-126.667zm0 174.167c-26.403 0-47.812-21.27-47.812-47.5s21.409-47.5 47.812-47.5 47.812 21.269 47.812 47.5c0 26.358-21.542 47.5-47.812 47.5z" fill="#fbb064"/></g></svg>