<svg id="Capa_1" enable-background="new 0 0 510 510" height="512" viewBox="0 0 510 510" width="512" xmlns="http://www.w3.org/2000/svg"><g><path d="m30 411.787v66.017l112.5 10 112.5-10 10-30-10-30-112.5-10z" fill="#fd9"/><path d="m480 411.787-112.5-3.983-112.5 10v60l112.5 10 112.5-10z" fill="#ffc473"/><path d="m30 477.804v30h225l10-15-10-15z" fill="#ffc473"/><g fill="#fbb064"><path d="m255 477.804h225v30h-225z"/><path d="m120 447.804h-30v-30l15-10 15 10z"/><path d="m180 447.804h-30v-30l15-10 15 10z"/><path d="m240 447.804h-30v-30l15-10 15 10z"/></g><path d="m300 447.804h-30v-30l15-10 15 10z" fill="#fb9264"/><path d="m360 447.804h-30v-30l15-10 15 10z" fill="#fb9264"/><path d="m420 447.804h-30v-30l15-10 15 10z" fill="#fb9264"/><path d="m27.98 252.804c-18.392 33.699-27.98 71.416-27.98 110 0 30.329 24.669 55 55 55h200l10-31.291-10-31.29-52.5-114.993z" fill="#ffc473"/><path d="m316.5 218.304 161.95 28.21c20.658 35.164 31.55 75.174 31.55 116.29 0 30.329-24.669 55-55 55-11.101 0-188.899 0-200 0 0-20.87 0-41.726 0-62.581z" fill="#fbb064"/><path d="m147.5 330.804 59.167-62.334 48.333 29.334 10-80-10-40-51.702-43.443c-62.108 7.188-118.188 39.333-155.778 88.443l54.146 40z" fill="#ff9ac9"/><path d="m461.61 221.684c-36.773-47.384-91.901-80.03-154.908-87.323-4.314 24.691-25.89 43.443-51.702 43.443v138.166l10 37.167 26.667-26 23-97 35-4.333 21 103.213 43.333 6.287z" fill="#ff7cb9"/><path d="m255 297.804c0-12.405-5.047-23.655-13.196-31.804-17.592-17.593-46.006-17.602-63.607 0-8.15 8.148-13.197 19.398-13.197 31.804 0 4.135-1.683 7.885-4.398 10.601-5.864 5.864-15.335 5.868-21.203 0-2.716-2.716-4.399-6.466-4.399-10.601 0-41.359-33.639-75-75-75-4.365 0-8.115 0-12.48 0-6.89 8.923-13.567 19.043-19.54 30h32.02c24.81 0 45 20.189 45 45 0 24.81 20.189 45 45 45 24.809 0 45-20.189 45-45 0-8.271 6.73-15 15-15s15 6.729 15 15v15c0 19.53 12.522 36.219 30 42.419l3.75-8.169-3.75-34.25v-7.5z" fill="#ab5a1d"/><path d="m315 312.804c0-7.26 0-52.693 0-60 0-8.27 6.729-15 15-15 8.27 0 15 6.73 15 15v60c0 24.81 20.19 45 45 45 24.809 0 45-20.189 45-45 0-11.575 2.875-22.735 8.158-32.606 9.887-18.476 24.493-25.825 26.382-27.394l3.78-2.52c.1-.07.82-.58.72-.51 1.454-1.099 2.934-2.191 4.41-3.26-4.84-8.277-10.428-16.586-16.84-24.83-1.566 1.131-3.735 2.711-5.28 3.87l-3.605 2.405c-1.914 1.609-22.239 12.319-36.025 38.079-7.577 14.158-11.7 30.164-11.7 46.766 0 8.27-6.729 15-15 15-8.27 0-15-6.73-15-15 0-7.26 0-52.693 0-60 0-24.81-20.19-45-45-45-24.809 0-45 20.189-45 45v60c0 8.27-6.729 15-15 15-8.27 0-15-6.73-15-15v42.419c15.884 5.635 34.172 2.016 46.804-10.615 8.149-8.149 13.196-19.399 13.196-31.804z" fill="#9d4f14"/><path d="m247.5 87.804 7.5-15 10-15.051-10-30.051c-8.167 14.489-13.102 30.506-14.551 47.153z" fill="#ffc473"/><path d="m255 72.804c0-14.124 0-31.011 0-45.102 5.242-9.3 11.753-17.865 19.394-25.506 7.419 7.42 13.794 13.795 21.213 21.214-14.553 14.553-22.88 32.823-25.037 51.75l-8.07 12.644z" fill="#fbb064"/><path d="m202.5 125.304c0 28.947 23.551 52.5 52.5 52.5l10-52.5-10-52.5c-28.948 0-52.5 23.55-52.5 52.5z" fill="#ff6c6c"/><path d="m292.105 88.197c-9.506-9.506-22.631-15.394-37.105-15.394v105c14.474 0 27.599-5.888 37.105-15.395 20.522-20.52 20.535-53.676 0-74.211z" fill="#e63950"/></g></svg>