<svg id="Capa_1" enable-background="new 0 0 510 510" height="512" viewBox="0 0 510 510" width="512" xmlns="http://www.w3.org/2000/svg"><g><path d="m10.948 427.459-8.228-14.959c8.986-60.546 40.166-115 87.28-153.8l45-11.2 45-35.88c9.762-2.733 19.77-4.871 30-6.38l45 147.26 15 60-15 75c-11.814 0-200.917 0-212.73 0-23.093 0-42.27-16.935-42.27-38.18 0-2.26.029-4.535.1-6.82z" fill="#fd9"/><path d="m499.052 427.459 8.228-14.959c-9.244-62.285-41.563-116.151-87.28-153.8l-45-13.54-45-33.54c-9.762-2.733-19.77-4.871-30-6.38l-45 147.26v135h212.73c23.093 0 42.27-16.935 42.27-38.18 0-2.296-.03-4.57-.1-6.82z" fill="#ffc473"/><path d="m233.786 328.714 21.214-6.214 10-52.5-10-67.5c-5.523.025-9.655-.064-15 .1z" fill="#ffc473"/><path d="m284.167 327.333-14.167-124.733c-5.345-.164-9.479-.074-15-.1v120z" fill="#fbb064"/><path d="m390 237.46c-9.281-5.572-19.28-10.739-30-15.31l-5.625 87.1 20.625 13.25 21.214-8.786z" fill="#fbb064"/><g fill="#ffc473"><path d="m165 292.5c0 16.57-13.43 30-30 30s-30-13.43-30-30l15-55.04c9.66-5.8 19.68-10.91 30-15.31l.06-.021z"/><path d="m120 412.5h30v30h-30z"/><path d="m180 382.5h30v30h-30z"/><path d="m240 412.5v30h15l10-15-10-15z"/></g><path d="m255 412.5h15v30h-15z" fill="#fbb064"/><path d="m300 382.5h30v30h-30z" fill="#fbb064"/><path d="m360 412.5h30v30h-30z" fill="#fbb064"/><path d="m75 412.5v30h-74.9c.26-10.12 1.14-20.13 2.62-30z" fill="#ffc473"/><path d="m435 412.5v30h74.9c-.917-10.492-1.704-19.508-2.62-30-19.66 0-60.813 0-72.28 0z" fill="#fbb064"/><path d="m240 172.5h-30c0-2.442-.39-3.242-5.26-7.809-5.869-5.503-14.74-13.82-14.74-29.693 0-15.874 8.871-24.191 14.74-29.694 4.87-4.565 5.26-5.365 5.26-7.808 0-2.441-.39-3.24-5.259-7.806-5.87-5.502-14.741-13.819-14.741-29.692s8.871-24.189 14.741-29.692c4.869-4.566 5.259-5.365 5.259-7.806h30c0 15.873-8.871 24.189-14.741 29.692-4.869 4.566-5.259 5.365-5.259 7.806s.39 3.24 5.259 7.806c5.87 5.503 14.741 13.819 14.741 29.692s-8.871 24.189-14.74 29.693c-4.87 4.566-5.26 5.365-5.26 7.809 0 2.442.39 3.242 5.26 7.809 5.87 5.503 14.74 13.82 14.74 29.693z" fill="#ece6f2"/><path d="m320 22.5c-10.492 0-19.508 0-30 0 0 1.65-.178 2.551-1.798 4.371-5.112 5.745-18.202 13.813-18.202 33.127 0 6.754 1.605 12.14 3.903 16.522 3.103 5.918 7.466 10.009 10.838 13.17 4.686 4.394 5.259 5.27 5.259 7.806 0 1.65-.178 2.551-1.798 4.372-5.115 5.749-18.202 13.815-18.202 33.13 0 6.753 1.605 12.138 3.902 16.521 4.273 8.155 10.87 12.755 14.3 16.609 1.62 1.82 1.798 2.721 1.798 4.372h30c0-19.294-13.039-27.326-18.202-33.13-1.62-1.82-1.798-2.721-1.798-4.372s.178-2.552 1.798-4.373c5.115-5.749 18.202-13.815 18.202-33.129 0-6.754-1.605-12.14-3.903-16.522-4.273-8.153-10.87-12.752-14.299-16.604-1.62-1.82-1.798-2.721-1.798-4.371s.178-2.55 1.798-4.371c5.12-5.755 18.202-13.819 18.202-33.128z" fill="#d7cfe6"/><path d="m240 307.5c0-28.164 0-87.828 0-104.9-10.057.28-20.131 1.151-30 2.641v102.26c0 24.81 20.189 45 45 45l10-15-10-15c-4.135 0-7.885-1.683-10.601-4.398-2.716-2.718-4.399-6.468-4.399-10.603z" fill="#fbb064"/><path d="m300 307.5c0-27.717 0-85.942 0-102.26-9.353-1.412-19.408-2.346-30-2.641v104.9c0 8.27-6.729 15-15 15v30c24.81.001 45-20.189 45-44.999z" fill="#fb9264"/><path d="m180 211.62v80.88c0 24.81-20.19 45-45 45s-45-20.19-45-45v-33.8c9.397-7.796 19.633-15.032 30-21.24v55.04c0 8.27 6.73 15 15 15s15-6.73 15-15v-70.35l.06-.021z" fill="#fbb064"/><path d="m390 292.5c0 4.135-1.683 7.885-4.398 10.602-5.864 5.863-15.336 5.867-21.203 0-2.716-2.717-4.398-6.467-4.398-10.602 0-18.938 0-59.318 0-70.35-9.694-4.13-19.606-7.628-30-10.53v80.88c0 24.81 20.189 45 45 45 24.81 0 45-20.19 45-45 0-11.821 0-21.978 0-33.8-10.492-7.429-19.508-13.811-30-21.24-.001 17.496-.001 37.544-.001 55.04z" fill="#fb9264"/></g></svg>