<svg id="Capa_1" enable-background="new 0 0 510.05 510.05" height="512" viewBox="0 0 510.05 510.05" width="512" xmlns="http://www.w3.org/2000/svg"><g><path d="m74.739 74.714c-75.882 75.88-93.27 186.535-55.405 277.949 25.715 62.082 75.955 112.347 138.08 138.08 30.543 12.651 63.58 19.282 97.637 19.282l10-255-10-255c-68.112 0-132.148 26.523-180.312 74.689z" fill="#fd9"/><path d="m510.05 255.025c0-142.576-115.762-255-255-255v510c142.576 0 255-115.762 255-255z" fill="#ffc473"/><path d="m214.261 138.007c-4.814 3.315-7.242 4.389-13.498 5.594-16.382 3.154-42.361 2.768-51.941 31.069-3.012 8.896-3.699 18.299-5.195 26.066-1.206 6.26-2.28 8.688-5.595 13.499-9.173 13.315-28.319 32.065-14.82 59.501 4.252 8.642 10.447 15.729 14.82 22.077 4.322 6.274 4.969 8.721 6.823 20.983.908 6.002 1.879 12.417 3.966 18.582 4.27 12.611 12.435 21.324 25.874 25.875 6.166 2.087 12.581 3.058 18.584 3.966 12.358 1.869 14.816 2.576 20.982 6.823 10.542 7.262 23.18 19.481 40.789 19.481l10-136.5-10-136.5c-17.56.002-30.204 12.192-40.789 19.484z" fill="#ab5a1d"/><path d="m309.337 366.449c16.383-3.154 42.361-2.766 51.942-31.069 3.012-8.897 3.702-18.319 5.194-26.067 1.215-6.307 2.319-8.744 5.595-13.499 9.172-13.315 28.318-32.064 14.82-59.499-5.762-11.71-15.38-20.967-18.41-28.275-3.198-7.714-3.131-21.348-7.199-33.368-11.163-32.976-44.633-27.017-59.244-33.074-10.828-4.491-25.433-23.071-46.985-23.071v273c17.529 0 30.1-12.119 40.79-19.482 2.224-1.534 7.254-4.394 13.497-5.596z" fill="#9d4f14"/><path d="m240.05 60.025v30h15l10-15-10-15c-5.246 0-9.754 0-15 0z" fill="#fbb064"/><path d="m270.05 60.025c-5.246 0-9.754 0-15 0v30h15z" fill="#fb9264"/><g fill="#fbb064"><path d="m112.771 112.746h30v30h-30z" transform="matrix(.707 -.707 .707 .707 -52.907 127.763)"/><path d="m60.05 240.025h30v30h-30z"/><path d="m112.771 367.305h30v30h-30z" transform="matrix(.707 -.707 .707 .707 -232.907 202.322)"/><path d="m240.05 421.025v30h15l10-15-10-15z"/></g><path d="m255.05 421.025h15v30h-15z" fill="#fb9264"/><path d="m367.33 367.305h30v30h-30z" fill="#fb9264" transform="matrix(.707 -.707 .707 .707 -158.348 382.322)"/><path d="m420.05 240.025h30v30h-30z" fill="#fb9264"/><path d="m367.33 112.746h30v30h-30z" fill="#fb9264" transform="matrix(.707 -.707 .707 .707 21.652 307.764)"/><path d="m195.05 255.025c0 33.083 26.915 60 60 60l15-60-15-60c-33.083 0-60 26.915-60 60z" fill="#9d4f14"/><path d="m315.05 255.025c0-33.083-26.915-60-60-60v120c33.083 0 60-26.915 60-60z" fill="#8a4711"/></g></svg>