<svg id="Capa_1" enable-background="new 0 0 510 510" height="512" viewBox="0 0 510 510" width="512" xmlns="http://www.w3.org/2000/svg"><g><path d="m480 204.16v-19.16c0-35.839-29.159-65-65-65-6.772 0-233.232 0-240 0l65 93.95 17.25 11.05 111-5 98 2.75z" fill="#fd9"/><path d="m240 244.53-65 85.47 120 10 120-10c35.839 0 65-29.159 65-65v-18.605-6.195l-52.99-18.552-131.343-7.315z" fill="#9d4f14"/><path d="m457.5 215c-3.956 0-6.749-.591-9.26-1.721-9.062-4.075-18.216-18.279-43.25-18.279-7.598 0-13.75 1.317-18.867 3.253-7.136 2.7-12.257 6.603-16.473 9.817-6.112 4.654-9.262 6.93-17.16 6.93-7.858 0-11.018-2.254-17.16-6.93-4.211-3.215-9.334-7.118-16.472-9.818-5.118-1.936-11.272-3.252-18.868-3.252-7.598 0-13.75 1.317-18.867 3.253-7.136 2.7-12.257 6.603-16.473 9.817-6.105 4.656-9.256 6.93-17.15 6.93-2.551 0-5.081-.244-7.5-1.05l-10 5.524 10 5.526 18.667 3.833 41.323-3.833 52.5 3.833 52.5-3.833 46.26 3.833 28.75-3.833c0-7.289 0-13.552 0-20.84-.943.641-1.841 1.283-2.698 1.915-7.538 5.562-10.459 8.925-19.802 8.925z" fill="#8a4711"/><g fill="#723c15"><path d="m240 244.53c2.492.331 5.017.47 7.5.47 7.593 0 13.745-1.316 18.862-3.253 7.135-2.7 12.258-6.603 16.468-9.817 6.112-4.654 9.262-6.93 17.16-6.93-7.26 0-52.684 0-59.99 0l-10 9.765z"/><path d="m457.5 245c8 0 15.443-1.455 22.5-4.8 0-5.316 0-9.884 0-15.2-20.194 0-63.246 0-75.01 0 3.951 0 6.744.591 9.255 1.721 9.102 4.093 18.193 18.279 43.255 18.279z"/><path d="m352.49 245c25.047 0 34.175-14.193 43.244-18.277 2.511-1.131 5.303-1.723 9.256-1.723-28.278 0-88.527 0-105 0 3.951 0 6.744.591 9.255 1.721 9.121 4.101 18.185 18.279 43.245 18.279z"/></g><path d="m175 120c-9.679 0-70.258 0-80 0-35.84 0-65 29.158-65 65v40l107 10 103-10c0-13.99 0-26.01 0-40 0-17.921-7.29-34.171-19.06-45.94-11.769-11.77-28.019-19.06-45.94-19.06z" fill="#ffc473"/><path d="m30 265c0 35.84 29.158 65 65 65l40 10 40-10c35.84 0 65-29.158 65-65v-20-20c-11.664 0-198.336 0-210 0z" fill="#fbb064"/><path d="m0 330c0 33.137 26.862 60 60 60h195l10-30-10-30c-7.193 0-247.807 0-255 0z" fill="#ece6f2"/><path d="m163.571 150c-19.985 0-37.157 0-57.143 0-25.6 0-46.428 20.827-46.428 46.429v28.571l75 14 75-14c0-9.992 0-18.579 0-28.571 0-25.601-20.827-46.429-46.429-46.429z" fill="#fbb064"/><path d="m60 253.571c0 25.6 20.827 46.429 46.429 46.429h57.143c25.6 0 46.429-20.827 46.429-46.429v-14.286-14.285c-10.128 0-139.871 0-150 0-.001 9.992-.001 18.579-.001 28.571z" fill="#fb9264"/><path d="m145 180c-6.995 0-13.005 0-20 0-19.298 0-35 15.7-35 35v5 5l45 10 45-10v-5-5c0-9.649-3.925-18.399-10.263-24.737-6.338-6.337-15.088-10.263-24.737-10.263z" fill="#8a4711"/><path d="m90 235c0 19.299 15.701 35 35 35h20c19.299 0 35-15.7 35-35v-5-5c-10.889 0-79.039 0-90 0v5z" fill="#723c15"/><path d="m255 330v60h195c33.136 0 60-26.862 60-60-7.193 0-247.807 0-255 0z" fill="#d7cfe6"/></g></svg>