<svg id="Capa_1" enable-background="new 0 0 510 510" height="512" viewBox="0 0 510 510" width="512" xmlns="http://www.w3.org/2000/svg"><g><path d="m210 45v15l22.5 10 22.5-10 10-30-10-30c-24.852 0-45 20.146-45 45z" fill="#ffb037"/><path d="m300 45c0-24.853-20.147-45-45-45v60l22.5 10 22.5-10c0-5.246 0-9.754 0-15z" fill="#ff9037"/><path d="m95 60c-35.84 0-65 29.158-65 65v235l13.667 10 16.333-10 195-270 10-15.836-10-14.164c-4.514 0-155.488 0-160 0z" fill="#ffd237"/><path d="m480 125c0-35.84-29.158-65-65-65-4.514 0-155.488 0-160 0v60l195 240 15.667 10 14.333-10c0-13.055 0-221.945 0-235z" fill="#ffb037"/><path d="m95 90c-19.299 0-35 15.7-35 35v235l13.666 10 16.334-10 165-240 10-14.333-10-15.667c-4.514 0-155.488 0-160 0z" fill="#fff5f5"/><path d="m450 125c0-19.299-15.7-35-35-35-4.514 0-155.488 0-160 0v30l165 240 13.667 10 16.333-10c0-13.055 0-221.945 0-235z" fill="#ece6f2"/><path d="m254.996 175h.002.002l15-27.5-15-27.5c-16.333 0-118.559 0-135 0v55l75 32.273z" fill="#ab5a1d"/><path d="m390 175c0-17.496 0-37.504 0-55-16.333 0-118.559 0-135 0v55l67.5 34.667z" fill="#9d4f14"/><path d="m254.996 175c-29.998 0-30 10-59.999 10-29.998 0-29.999-10-59.997-10-5.246 0-9.754 0-15 0v65l67.5 15 67.5-15 15-32.5-15-32.5c-.001 0-.002 0-.004 0z" fill="#fd9"/><path d="m390 175c-5.246 0-9.754 0-15 0-30 0-30.002 10-60.002 10s-30-9.999-59.998-10v65l67.5 15 67.5-15c0-17.613 0-54.623 0-65z" fill="#ffc473"/><path d="m254.996 296h.002.002l15-28-15-28c-4.655 0-160.348 0-165 0v56l90 37.333z" fill="#9d4f14"/><path d="m420 296c0-17.793 0-38.207 0-56-4.655 0-160.348 0-165 0v56l91.667 36z" fill="#8a4711"/><path d="m254.996 296c-37.499 0-37.501 8-74.999 8s-37.499-8-74.997-8c-5.246 0-9.754 0-15 0v64l82.5 15 82.5-15 15-32-15-32c-.001 0-.001 0-.001 0-.002 0-.003 0-.003 0z" fill="#ffc473"/><path d="m420 296c-5.246 0-9.754 0-15 0-37.5 0-37.502 8-75.002 8s-37.5-7.999-74.998-8v64l82.5 15 82.5-15c0-17.394 0-53.834 0-64z" fill="#fbb064"/><path d="m135 390c22.203 0 38.109 2.289 49.386 6.46 20.336 7.521 25.614 21.164 25.614 38.54l22.5 15 22.5-15 15-22.5-15-22.5-60-15z" fill="#fff5f5"/><path d="m375 390-60-15-60 15v45l22.5 15 22.5-15c0-17.376 5.278-31.019 25.614-38.54 11.276-4.171 27.182-6.46 49.386-6.46z" fill="#ece6f2"/><path d="m150 435v45l52.5 8.333 52.5-8.333 10-22.333-10-22.667c-28.278 0-88.527 0-105 0z" fill="#ece6f2"/><path d="m360 435c-28.278 0-88.527 0-105 0v45l52.5 10 52.5-10c0-14.981 0-30.019 0-45z" fill="#d7cfe6"/><path d="m150 480v30h105l10-15-10-15z" fill="#d7cfe6"/><path d="m360 480h-105v30h105c0-10.492 0-19.508 0-30z" fill="#c6bfd8"/><path d="m0 360v30h255l15-15-15-15z" fill="#ece6f2"/><path d="m255 360h255v30h-255z" fill="#d7cfe6"/></g></svg>