<svg id="Capa_1" enable-background="new 0 0 510 510" height="512" viewBox="0 0 510 510" width="512" xmlns="http://www.w3.org/2000/svg"><g><path d="m199.333 0c2.32 10.492 4.313 19.508 6.633 30l24.517 10 24.517-10 10-15-10-15z" fill="#d7cfe6"/><path d="m311 0h-56v30l24.65 10 24.65-10z" fill="#c6bfd8"/><path d="m242.367 145.959-12.413-7.477-24.753-53.482.766-55h49.033l10 52.506-10 52.507z" fill="#ece6f2"/><path d="m255 135.013v-105.013h49.3l-2.075 54.067-22.075 54.068-12.119 7.679z" fill="#d7cfe6"/><path d="m230.481 138.351-.527.131-23.987-108.482h-74.666l34.122 153.552z" fill="#d7cfe6"/><path d="m306 163.667-25.85-25.533 24.15-108.134h74.399l-33.772 151.976z" fill="#c6bfd8"/><path d="m187 168.375-14.079 5.545c-.29.311-.56.63-.83.939-16.335 19.117-25.055 42.94-21.18 67.48.016.101 53.434 183.873 56.57 194.641l22.281-2.627 25.238-14.353 10-142.492-10-142.492c-21.156.165-42.108 7.544-59.299 19.004z" fill="#fff5f5"/><path d="m324.917 167.167 12.795 5.813c17.065 18.893 26.881 43.707 22.83 69.359-.016.101-54.551 184.163-57.73 194.87l-22.396-2.795-25.415-14.414h-.001c0-15.815 0-269.17 0-284.984 20.69-.164 41.793 6.643 59.742 18.334z" fill="#ece6f2"/><path d="m314.742 153.35-42.22 63.33c8.729 5.82 16.23 10.82 24.96 16.641 10.894-16.34 33.799-50.695 40.23-60.34-6.645-7.433-14.396-14.06-22.97-19.631z" fill="#d7cfe6"/><path d="m237.481 216.68-24.96 16.64-39.6-59.4 22.78-19.9z" fill="#ece6f2"/><path d="m207.477 436.981c2.572 8.832 18.679 64.129 21.268 73.019h26.254l10-45-10-45c-17.409 0-34.09 5.967-47.522 16.981z" fill="#ff6c6c"/><path d="m302.808 437.214c-13.451-11.141-30.24-17.214-47.808-17.214v90h26.193c5.823-19.606 18.223-61.365 21.615-72.786z" fill="#e63950"/></g></svg>