<svg id="Capa_1" enable-background="new 0 0 505.377 505.377" height="512" viewBox="0 0 505.377 505.377" width="512" xmlns="http://www.w3.org/2000/svg"><g><path d="m72.688 309.527v33.6l85.501 55.062 94.5 35.688 10-16.78-10-16.78-87.5-55.96z" fill="#ff7cb9"/><path d="m432.689 310.857-96 35.832-84 53.628v33.56l92.5-33.56 87.5-55.96z" fill="#ff5ca8"/><path d="m72.688 197.524v33.601l86.001 57.165 94 33.585 10-16.78-10-16.78-86.25-52.376z" fill="#ffc473"/><path d="m432.689 198.855-98.667 34.834-81.333 54.626v33.56l95.666-35.853 84.334-53.667z" fill="#fbb064"/><path d="m72.688 343.127v72.25l180.001 90 10-35.75-10-35.75z" fill="#ffc473"/><path d="m432.689 344.357-180 89.52v71.5l180-90z" fill="#fbb064"/><path d="m72.688 231.125v78.482l180.001 90.71 10-39.221-10-39.221z" fill="#ff9ac9"/><path d="m432.689 232.355-180 89.52v78.442l180-89.429z" fill="#ff7cb9"/><path d="m201.439 134.462-128.751 63.062 180.001 90.766 10-56.342-10-56.341z" fill="#fd9"/><path d="m252.689 175.607v112.683l.024.012.025.013 179.951-89.478-128.751-64.375z" fill="#ffc473"/><path d="m245.343 81.126-7.198-8.454c1.416-16.301 6.224-32.348 14.544-47.124l10 22.529-10 22.529z" fill="#fd9"/><path d="m260.574 81.198 7.706-8.228c2.156-18.92 10.462-37.205 25.015-51.757-7.419-7.419-13.794-13.794-21.213-21.213-7.618 7.618-14.128 16.195-19.394 25.548v45.059z" fill="#ffb037"/><path d="m200.189 123.106c0 28.948 23.551 52.5 52.5 52.5l10-52.5-10-52.5c-28.948 0-52.5 23.551-52.5 52.5z" fill="#ff6c6c"/><path d="m289.794 86.001c-9.506-9.506-22.631-15.395-37.105-15.395v105c14.475 0 27.6-5.888 37.105-15.395 20.522-20.52 20.535-53.676 0-74.21z" fill="#e63950"/></g></svg>