<svg id="Capa_1" enable-background="new 0 0 510 510" height="512" viewBox="0 0 510 510" width="512" xmlns="http://www.w3.org/2000/svg"><g><path d="m345 315 10-150-10-150h-109.023c-5.188-8.965-14.875-15-25.977-15-16.568 0-30 13.432-30 30 0 11.103 6.035 20.789 15 25.977v139.023l120 120z" fill="#fd9"/><path d="m495 274.023v-218.046c8.965-5.188 15-14.874 15-25.977 0-16.568-13.432-30-30-30-11.103 0-20.789 6.035-25.977 15h-109.023v300h109.023c5.188 8.965 14.874 15 25.977 15 16.568 0 30-13.432 30-30 0-11.103-6.035-20.789-15-25.977z" fill="#ffc473"/><path d="m495 274.023v-218.046c8.965-5.188 15-14.874 15-25.977 0-16.568-13.432-30-30-30-11.103 0-20.789 6.035-25.977 15h-109.023v300h109.023c5.188 8.965 14.874 15 25.977 15 16.568 0 30-13.432 30-30 0-11.103-6.035-20.789-15-25.977z" fill="#ffc473"/><path d="m55.977 195c-5.188-8.965-14.874-15-25.977-15-16.568 0-30 13.432-30 30 0 11.102 6.035 20.789 15 25.977v218.047c-8.965 5.187-15 14.873-15 25.976 0 16.568 13.432 30 30 30 11.102 0 20.789-6.035 25.977-15h109.023l10-150-10-150z" fill="#fd9"/><path d="m240 60h30v30h-30z" fill="#ffc473"/><path d="m300 60h30v30h-30z" fill="#ffc473"/><g fill="#fbb064"><path d="m360 60h30v30h-30z"/><path d="m420 60h30v30h-30z"/><path d="m420 120h30v30h-30z"/><path d="m420 180h30v30h-30z"/><path d="m420 240h30v30h-30z"/></g><path d="m315 454.023v-218.046c8.965-5.188 15-14.874 15-25.977 0-16.568-13.432-30-30-30-11.103 0-20.789 6.035-25.977 15h-109.023v300h109.023c5.188 8.965 14.874 15 25.977 15 16.568 0 30-13.432 30-30 0-11.103-6.035-20.789-15-25.977z" fill="#ffc473"/><path d="m315 454.023v-218.046c8.965-5.188 15-14.874 15-25.977 0-16.568-13.432-30-30-30-11.103 0-20.789 6.035-25.977 15h-109.023v300h109.023c5.188 8.965 14.874 15 25.977 15 16.568 0 30-13.432 30-30 0-11.103-6.035-20.789-15-25.977z" fill="#ffc473"/><path d="m60 240h30v30h-30z" fill="#ffc473"/><path d="m120 240h30v30h-30z" fill="#ffc473"/><path d="m180 240h30v30h-30z" fill="#fbb064"/><path d="m240 240h30v30h-30z" fill="#fbb064"/><path d="m60 300h30v30h-30z" fill="#ffc473"/><path d="m120 300h30v30h-30z" fill="#ffc473"/><path d="m180 300h30v30h-30z" fill="#fbb064"/><path d="m240 300h30v30h-30z" fill="#fbb064"/><path d="m60 360h30v30h-30z" fill="#ffc473"/><path d="m120 360h30v30h-30z" fill="#ffc473"/><path d="m180 360h30v30h-30z" fill="#fbb064"/><path d="m240 360h30v30h-30z" fill="#fbb064"/><path d="m60 420h30v30h-30z" fill="#ffc473"/><path d="m120 420h30v30h-30z" fill="#ffc473"/><path d="m180 420h30v30h-30z" fill="#fbb064"/><path d="m240 420h30v30h-30z" fill="#fbb064"/></g></svg>