<svg id="Capa_1" enable-background="new 0 0 510.003 510.003" height="512" viewBox="0 0 510.003 510.003" width="512" xmlns="http://www.w3.org/2000/svg"><g><path d="m146.511 60.003-5.24-15c11.58-26.46 38.03-45 68.73-45h30v45l-10 15 10 15v30l-10 15 10 15v45l-55.75 10-49.25-10v-45l10-15-10-15v-30z" fill="#fbb064"/><path d="m380.001 60.003 8.1-15c-3.371-13.045-11.03-24.384-21.377-32.416-23.773-18.456-57.644-16.473-79.128 5.011-10.865 10.865-17.595 25.865-17.595 42.405v120l60 10 60-10v-45l-10-15 10-15v-30z" fill="#9d4f14"/><path d="m330.001 105.003h60v30h-60z" fill="#8a4711"/><path d="m330.001 45.003v30h60l-.474-22.561-1.426-7.439z" fill="#8a4711"/><path d="m240.001 45.003v30h-105l6.27-30z" fill="#fb9264"/><path d="m135.001 105.003h105v30h-105z" fill="#fb9264"/><path d="m80.926 210.003c-1.249 12.495-21.25 212.505-22.5 225l98.288 10 98.287-10 10-112.5-10-112.5-87.037-10z" fill="#ffd237"/><path d="m429.077 210.003-87.038-10-87.037 10v225l98.287 10 98.288-10c-1.25-12.495-21.251-212.505-22.5-225z" fill="#ffb037"/><path d="m83.926 180.003-3 30h174.075l10-15-10-15z" fill="#ff9037"/><path d="m426.077 180.003h-171.076v30h174.076z" fill="#fe7705"/><path d="m180.001 300.003-14.285 11.376c5.576 44.014 43.252 78.624 89.285 78.624l10-15-10-15c-29.571 0-54.151-21.482-59.094-49.574z" fill="#fff5f5"/><path d="m330.001 300.003 14.284 11.376c-5.576 44.014-43.252 78.624-89.284 78.624 0-10.492 0-19.508 0-30 29.572 0 54.151-21.483 59.093-49.574z" fill="#ece6f2"/><path d="m180.001 315.003c-16.542 0-30-13.458-30-30s13.458-30 30-30 30 13.458 30 30-13.458 30-30 30z" fill="#ece6f2"/><path d="m308.798 263.8c-5.433 5.432-8.797 12.932-8.797 21.203 0 16.541 13.457 30 30 30 8.271 0 15.771-3.364 21.203-8.797 11.727-11.727 11.734-30.673 0-42.406-5.432-5.433-30.672-11.735-42.406 0z" fill="#d7cfe6"/><path d="m265.001 457.503-10-22.5h-196.575l-4.5 45 104.038 10 97.037-10z" fill="#ffb037"/><path d="m255.001 510.003 10-15-10-15h-201.075l-3 30z" fill="#ff9037"/><path d="m451.577 435.003h-196.576v45l98.287 10 102.789-10z" fill="#ff9037"/><path d="m459.077 510.003-3-30h-201.076v30z" fill="#fe7705"/></g></svg>