<svg id="Capa_1" enable-background="new 0 0 510 510" height="512" viewBox="0 0 510 510" width="512" xmlns="http://www.w3.org/2000/svg"><g><path d="m120 300-15.001-14.296c-51.718 5.097-63.957 36.692-66.431 56.758l-3.284 14.517-.093.835c-3.072 27.652-12.854 54.506-28.289 77.657l-4.384 6.576 24.962 16.641c2.042-3.91 30.818-39.405 37.431-96.711l3.278-14.485.092-.835c.851-7.652 2.946-26.514 36.718-30.786z" fill="#ece6f2"/><path d="m390 300 15-14.296c16.357 1.612 28.765 5.875 38.164 11.585 20.319 12.344 26.576 31.453 28.267 45.173 1.149 5.077 2.136 9.439 3.285 14.517.011.1.104.936.092.835 5.546 49.919 30.786 80.627 32.673 84.233-8.731 5.82-16.232 10.82-24.963 16.641l-2.192-3.288c-1.279-2.488-28.823-37.823-35.237-93.423-1.146-5.066-2.132-9.419-3.278-14.485-.011-.101-.104-.935-.093-.835-.662-5.955-2.078-18.698-18.589-26.071-4.705-2.102-10.636-3.767-18.124-4.714z" fill="#d7cfe6"/><path d="m105 435v45l75 10 75-10 10-22.5-10-22.5-75-10z" fill="#ffb037"/><path d="m405 435-75-10-75 10v45l75 10 75-10c0-14.981 0-30.019 0-45z" fill="#ff9037"/><path d="m255 0c-33.083 0-60 26.915-60 60v30l15 10 15-10c0-10.492 0-19.508 0-30 0-16.541 13.458-30 30-30l10-15z" fill="#ece6f2"/><path d="m285 60v30l15 10 15-10c0-10.492 0-19.508 0-30 0-33.083-26.915-60-60-60v30c8.271 0 15.771 3.364 21.203 8.797 5.432 5.432 8.797 12.932 8.797 21.203z" fill="#d7cfe6"/><path d="m165 90v37.918c0 35.658-19.812 67.718-51.708 83.666-.125.062-8.622 4.311-8.292 4.146v219.27h150l10-172.5-10-172.5c-10.889 0-79.04 0-90 0z" fill="#ffd237"/><path d="m405 215.73c-.125-.062-8.622-4.311-8.292-4.146-31.894-15.947-51.708-48.006-51.708-83.666 0-13.262 0-24.656 0-37.918-10.889 0-79.04 0-90 0v345h150c0-12.167 0-207.104 0-219.27z" fill="#ffb037"/><path d="m189.999 315-8.49-15c6.925-34.019 37.099-60 73.49-60h.001l10 60-10 60-37.501 10-37.501-10c0-9.114 0-21.077 0-30z" fill="#ff6c6c"/><path d="m329.999 315c0-41.358-33.638-74.999-74.999-75v120l37.5 10 37.499-10c0-14.981 0-30.019 0-45z" fill="#e63950"/><path d="m105 480v30h150l10-15-10-15z" fill="#ff9037"/><path d="m405 480h-150v30h150c0-10.492 0-19.508 0-30z" fill="#fe7705"/><path d="m254.999 300v30h-75v-15c0-5.13.52-10.15 1.51-15z" fill="#ae2538"/><path d="m179.999 360v30h75.001l10-15-10-15z" fill="#e63950"/><path d="m255 360h74.999v30h-74.999z" fill="#ae2538"/></g></svg>