<svg id="Capa_1" enable-background="new 0 0 510.139 510.139" height="512" viewBox="0 0 510.139 510.139" width="512" xmlns="http://www.w3.org/2000/svg"><g><path d="m30.038 387.873v30l112.5 10 112.5-10 10-15-10-15-112.5-10z" fill="#ffc473"/><path d="m480.038 387.873-112.5-10-112.5 10v30l112.5 10 112.5-10z" fill="#fbb064"/><path d="m30.038 177.873v210h225l10-41.667-10-33.333-29.5-152z" fill="#fd9"/><path d="m480.038 179.118-190.5 10.756-34.5 123v75h225c0-11.543 0-197.119 0-208.756z" fill="#ffc473"/><path d="m.038 117.873v60h30c41.42 0 75 33.577 75 75 0 16.567 13.431 30 30 30 16.568 0 30-13.431 30-30 0-14.981 0-30.018 0-45 0-16.568 13.431-30 30-30 16.568 0 30 13.431 30 30v75c0 16.567 13.431 30 30 30l10-97.5-10-82.5-33.511-15c-27.897 0-217.511 0-221.489 0z" fill="#ab5a1d"/><path d="m285.038 282.873c0-5.246 0-9.754 0-15 0-16.568 13.431-30 30-30 16.568 0 30 13.431 30 30v60c0 16.567 13.431 30 30 30 16.568 0 30-13.431 30-30 0-7.26 0-52.693 0-60.001 0-24.851 10.074-47.351 26.36-63.639 28.438-28.439 62.684-26.157 63.64-26.36h15c0-7.26 0-52.693 0-60-32.074 0-193.129 0-221.488 0l-33.512 15v180c16.568 0 30-13.43 30-30z" fill="#9d4f14"/><path d="m249.458 46.706 5.58-3.833v-19.416c-4.696 6.23-8.54 12.919-11.16 20.816z" fill="#fd9"/><path d="m275 47.548c.647-1.192 1.361-2.364 2.145-3.533 4.141-6.177 10.208-12.243 18.5-20.535-7.419-7.419-13.794-13.794-21.213-21.214-6.711 6.71-13.763 13.721-19.394 21.191v19.416l6.688 6.625z" fill="#fbb064"/><path d="m223.233 119.678c8.148 8.148 19.398 13.195 31.805 13.195l10-45-10-45c-12.406 0-23.656 5.046-31.805 13.194-17.59 17.592-17.601 46.01 0 63.611z" fill="#ff6c6c"/><path d="m286.843 56.068c-8.148-8.148-19.398-13.194-31.805-13.194v90c12.407 0 23.657-5.047 31.805-13.195 17.59-17.591 17.601-46.01 0-63.611z" fill="#e63950"/><path d="m.038 417.873c0 14.29-.416 20.555 1.509 30l126.745 10 126.746-10 10-15-10-15c-7.194 0-247.807 0-255 0z" fill="#d7cfe6"/><path d="m510.038 417.873c-7.193 0-247.807 0-255 0v30l126.746 10 126.745-10c1.398-6.862 1.832-13.497 1.509-30z" fill="#c6bfd8"/><path d="m1.547 447.873c6.933 34.019 37.099 60 73.491 60h180l10-30-10-30c-7.149 0-246.342 0-253.491 0z" fill="#ece6f2"/><path d="m508.529 447.873c-7.149 0-246.342 0-253.491 0v60h180c36.415 0 66.562-26.003 73.491-60z" fill="#d7cfe6"/></g></svg>