<svg id="Capa_1" enable-background="new 0 0 510 510" height="512" viewBox="0 0 510 510" width="512" xmlns="http://www.w3.org/2000/svg"><g id="XMLID_1_"><g id="XMLID_4_"><path id="XMLID_6_" d="m77.492 343.789 146.175-122.123 120.269-144.033c-10.1-9.822-21.498-17.875-35.631-21.648-40.99-10.941-69.56 17.682-127.49 26.08-24.234 3.513-51.701 7.494-71.479 27.271-27.4 27.4-24.454 69.416-32.095 98.034-7.919 29.661-30.908 64.777-21.255 100.935 3.754 14.064 11.749 25.42 21.506 35.484z" fill="#ece6f2"/><path id="XMLID_8_" d="m432.508 166.211-144.841 121.456-121.602 144.7c15.442 15.017 32.133 23.965 53.779 23.965 29.856 0 57.962-16.945 82.787-23.573 28.657-7.648 70.627-4.688 98.033-32.095 27.398-27.397 24.455-69.408 32.095-98.033 7.919-29.662 30.909-64.777 21.256-100.936-3.755-14.064-11.75-25.421-21.507-35.484z" fill="#d7cfe6"/></g><g id="XMLID_9_"><path d="m100.179 409.612 1.842-12.893-12.893 1.842c-8.834 4.655-63.848 33.65-72.71 38.321-19.907 14.738-22.059 43.728-4.544 61.243l51.572-36.837 36.837-51.572-.052-.052z" fill="#fd9"/><path d="m11.874 498.126c17.443 17.443 46.291 15.393 61.093-4.342 4.626-8.84 33.607-64.222 38.264-73.12l1.894-12.841-12.841 1.894c-10.697 10.695-77.643 77.642-88.41 88.409z" fill="#ffc473"/><path id="XMLID_17_" d="m437.033 16.215c-4.626 8.84-33.607 64.223-38.264 73.121l-1.893 12.842 12.841-1.895 51.572-36.837 36.837-51.572c-17.442-17.443-46.291-15.394-61.093 4.341z" fill="#fd9"/><path d="m409.82 100.386-1.842 12.894 12.894-1.842c8.834-4.655 63.848-33.651 72.71-38.321 19.907-14.738 22.06-43.728 4.544-61.243-10.695 10.696-77.643 77.643-88.409 88.409l.052.053z" fill="#ffc473"/><path id="XMLID_32_" d="m365.512 56.078-309.6 309.266 44.371 44.373 162.084-147.35 147.35-162.084z" fill="#ffc473"/><path id="XMLID_2_" d="m454.088 144.654-44.371-44.371-309.434 309.434 44.205 44.204z" fill="#fbb064"/></g></g></svg>