<svg id="Capa_1" enable-background="new 0 0 510 510" height="512" viewBox="0 0 510 510" width="512" xmlns="http://www.w3.org/2000/svg"><g><path d="m252.875 375.75 12.135-12.11c2.181-15.359 3.63-32.28 4.38-51.02l-6.765-21.12 7.375-14.53c-.009-45.357.017-45.52-.02-53.96l-7.063-19.76 5.923-17.05c-2.87-50.15-11.21-86.601-25.99-115.13-26.318-50.787-71.784-71.07-127.85-71.07-2.89 0-6.28.269-10 .79l-10 254.21 10 254.21c3.72.521 7.11.79 10 .79 76.905 0 124.632-37.912 143.85-114.41z" fill="#ffc473"/><path d="m30 55v400c0 31.537 47.006 50.25 75 54.206v-508.412c-27.994 3.956-75 22.669-75 54.206z" fill="#fd9"/><g fill="#fbb064"><path d="m269.98 223.01-113.3-75.53 16.64-24.96 95.52 63.68z"/><path d="m270 276.97-.61 35.65-112.71-75.14 16.64-24.96z"/><path d="m265.01 363.64c-1.64 11.48-3.68 22.101-6.16 31.95l-102.17-68.11 16.641-24.961z"/></g><path d="m480 0c-10.492 0-19.508 0-30 0v99l17.25-.5 12.75-16.273z" fill="#ffb037"/><path d="m330 0c-10.492 0-19.508 0-30 0v81.291l15 23.709 15-6.564z" fill="#ffd237"/><path d="m405 124.366-10 65.318 10 93.39 41.5-7.574 33.5-34.564v-158.709z" fill="#ff9037"/><path d="m385 189.576-10-65.425-75-42.86v158.709l34.5 38 40.5 4.859z" fill="#ffb037"/><path d="m405 443.493 75-45v-157.557l-75 42.138-10 80.21z" fill="#fe7705"/><path d="m300 240v158.493l75 45 10-80.316-10-80.318z" fill="#ff9037"/><path d="m375 0v510h15c0-11.16 10-297.922 10-297.922l-10-212.078c-5.246 0-9.754 0-15 0z" fill="#ffd237"/><path d="m390 0v510h15v-510c-5.246 0-9.754 0-15 0z" fill="#ffb037"/></g></svg>