<svg id="Capa_1" enable-background="new 0 0 510 510" height="512" viewBox="0 0 510 510" width="512" xmlns="http://www.w3.org/2000/svg"><g><path d="m63.421 110.559c-20.968 27.672-33.421 62.136-33.421 99.453v75l60 10 60-10s73.952-216.552 105.041-228.721c-67.224-26.319-145.914-6.053-191.62 54.268z" fill="#fd9"/><path d="m150 210.012v75l82.5 10 82.5-10 15-120-15-120c-90.979 0-165 74.016-165 165z" fill="#ffc473"/><path d="m277.881 182.178 37.119-2.166 10-37.5-10-37.5c-40.788 0-75.557 27.336-86.464 65z" fill="#ff9ac9"/><path d="m228.536 170.012c-2.35 8.112-3.536 16.506-3.536 25v60h90l10-37.5-10-37.5c-11.082-2.955-22.165-5.91-37.119-7.834-22.166-2.849-42.209-2.012-49.345-2.166z" fill="#ff7cb9"/><path d="m480 210.012c0-90.979-74.016-165-165-165v240l82.5 10 82.5-10c0-20.194 0-63.236 0-75z" fill="#fbb064"/><path d="m352.119 197.846 52.74-7.834c-2.612-47.451-42.053-85-89.859-85v75z" fill="#ff7cb9"/><path d="m404.859 190.012c-18.128 0-33.693.283-52.74-2.166-14.954-1.924-26.037-4.879-37.119-7.834v75h90v-30c-.08-28.674.134-30-.141-35z" fill="#ff5ca8"/><path d="m203.719 360.012c4.081 9.312 6.281 19.463 6.281 30l22.5 10 22.5-10 10-15-10-15-25.641-10z" fill="#d7cfe6"/><path d="m306.281 360.012-25.641-10-25.641 10v30l22.5 10 22.5-10c.001-10.186 2.061-20.367 6.282-30z" fill="#c6bfd8"/><path d="m135 315.012c30.25 0 56.939 18.124 68.719 45h51.281l10-22.5-10-22.5-60-10z" fill="#ece6f2"/><path d="m375 315.012-60-10-60 10v45h51.281c11.805-26.935 38.533-45 68.719-45z" fill="#d7cfe6"/><path d="m150 390.012v45l52.5 10 52.5-10 10-22.5-10-22.5c-28.278 0-88.527 0-105 0z" fill="#ece6f2"/><path d="m360 390.012c-28.278 0-88.527 0-105 0v45l52.5 10 52.5-10z" fill="#d7cfe6"/><path d="m150 435.012v30h105l10-15-10-15z" fill="#d7cfe6"/><path d="m255 435.012h105v30h-105z" fill="#c6bfd8"/><path d="m0 285.012v30h255l10-15-10-15z" fill="#fff5f5"/><path d="m255 285.012h255v30h-255z" fill="#ece6f2"/></g></svg>