<svg id="Capa_1" enable-background="new 0 0 497 497" height="512" viewBox="0 0 497 497" width="512" xmlns="http://www.w3.org/2000/svg"><g><path d="m33.555 113.143.092 372.232c0 2.761 2.239 5 5 5l421.826 3.889c2.761 0 5-2.239 5-5l2.505-9.95v-361.64l-219.478-99.389z" fill="#f8f7f7"/><path d="m467.98 479.315v12c0 2.761-2.239 5-5 5h-51.01l-64.56-8.6-72.5 8.6h-69.48l-60.91-7.11-55.66 7.11h-54.84c-2.761 0-5-2.239-5-5v-373.64l17-7.7v358.34c0 6.075 4.925 11 11 11z" fill="#e8e8e8"/><path d="m281.352 487.654 12.328-104.918c1.323-13.16 4.046-25.225 12.332-35.534l15.347-6.367 61.518-.003 1.542 1.957c8.286 10.309 13.402 22.802 14.725 35.962l10.973 100.564-16.289 8.56z" fill="#e8e8e8"/><path d="m411.97 496.315h-137.06l12.82-117.56c1.33-13.16 6.44-25.66 14.73-35.97l1.57-1.95h17.33l-.74 1.11c-4.95 7.43-15.16 30.45-15.97 38.51l-9.943 91.1c-.452 4.142 2.792 7.759 6.959 7.759h108.454z" fill="#d8d8d8"/><path d="m199.338 387.623h11.601c11.046 0 20-8.954 20-20v-13.968l-31.18-3.602z" fill="#f2d1a5"/><path d="m103.472 491.759h99.591v-117.203l-5.05-10.762h-94.541z" fill="#857e87"/><path d="m497 115.099v24.196l-.841 5.773c0 3.634-3.753 6.054-7.063 4.555l-238.33-109.817c-1.573-.713-3.378-.713-4.951 0l-237.104 109.541c-3.31 1.499-7.063-.921-7.063-4.555l-1.648-5.257v-24.436c0-1.963 1.149-3.745 2.937-4.555l239.785-108.611c3.672-1.664 7.883-1.664 11.555 0l239.785 108.612c1.789.81 2.938 2.591 2.938 4.554z" fill="#c38c66"/><path d="m497 139.295v7.79c0 3.63-3.75 6.05-7.06 4.55l-238.96-108.23c-1.58-.71-3.38-.71-4.96 0l-238.96 108.23c-3.31 1.5-7.06-.92-7.06-4.55v-7.55l240.25-108.88c2.61-1.18 5.38-1.78 8.25-1.78s5.64.6 8.25 1.78z" fill="#b57f5f"/><g><path d="m163.55 375.685v119.272h-15v-119.272c0-4.15 3.36-7.5 7.5-7.5 4.15 0 7.5 3.35 7.5 7.5z" fill="#6f6571"/></g><path d="m195.317 210.531c-27.195-7.689-48.272-6.473-72.434 1.284-22.468 7.236-38.305 28.191-38.073 54.47v91.35l3.854-.864 39.564 17.785h59.835l15-20.901h30.747c2.209 0 4-1.791 4-4v-83.37c0-21.299-11.098-40.006-27.827-50.654-.001 0-9.931-3.536-14.666-5.1z" fill="#afefa5"/><g><path d="m382.761 239.073c23.589 12.991 38.681 38.051 38.681 65.907v12.341c0 13.674-11.085 24.759-24.759 24.759h-45.713l-7.074-6.957-7.926 6.957h-46.773c-3.855 0-7.504-.881-10.757-2.453 0 0-11.343-15.103-11.343-24.922l-.385-9.688c0-28.201 15.264-52.822 39.358-65.67 4.539-2.421 71.898-2.914 76.691-.274z" fill="#c38c66"/></g><g><path d="m315.81 237.345c-3.494 2.119-7.454 3.472-10.56 6.2-16.771 14.734-26.81 38.691-26.81 61.43v34.65c-8.29-4-14-12.48-14-22.3v-12.35c0-28.2 15.47-53.53 39.56-66.38 1.04-.55 5.5-.97 11.81-1.25z" fill="#b57f5f"/></g><path d="m381.867 238.687-.303 5.119-14.624 57.829h-47l-14.688-58.09-.146-4.996c4.54-2.42 8.294-6.071 13.404-7.541 16.54-4.53 34.069-4.505 50.119.165 5.44 1.56 8.448 4.874 13.238 7.514z" fill="#f8f7f7"/><path d="m319.4 340.835h-.44c.03-.03.05-.07.07-.1z" fill="#857e87"/><path d="m157.225 493.989v-3.007c0-4.499.684-5.852 2.642-9.575 1.19-2.262 3.707-6.718 3.707-6.718 4.875-5.049 11.715-8.19 19.288-8.19 11.903 0 21.951 7.941 25.137 18.813 0 0-.414 3.457-.414 6.018 0 2.003-1.624 3.626-3.626 3.626z" fill="#6f6571"/><path d="m209.05 492.685c0 1.01-.41 1.91-1.06 2.57s-1.56 1.06-2.56 1.06h-49.38v-3.01c0-7.23 2.86-13.79 7.53-18.61-.72 2.41-1.1 4.97-1.1 7.61 0 1.662 1.348 3.01 3.01 3.01h42.5c.69 2.34 1.06 4.81 1.06 7.37z" fill="#635a63"/><path d="m108.499 476.238c1.564-1.882 3.458-2.129 5.57-3.551 2.184-1.47 7.163-4.915 7.163-4.915 2.57-.821 5.276-1.272 8.013-1.272 12.022 0 22.196 7.913 25.597 18.815 0 0-1.195 5.209-1.195 7.993v1.893l-51.578-.936z" fill="#6f6571"/><path d="m156.05 493.305v3.01h-47.039l-.511-20.08c3.18-3.83 7.692-6.853 12.732-8.463-2.72 4.18-4.292 9.173-4.292 14.533 0 1.662 1.348 3.01 3.01 3.01h34.89c.79 2.52 1.21 5.21 1.21 7.99z" fill="#635a63"/><path d="m195.563 265.798c-4.142 0-7.5 3.358-7.5 7.5v18.277l-5.809-3.529c-1.595-.969-3.598-.969-5.193 0l-16.024 9.738c-1.595.969-3.598.969-5.193 0l-16.023-9.737c-1.595-.969-3.598-.969-5.193 0l-6.399 3.889v-18.637c0-4.142-3.358-7.5-7.5-7.5s-7.5 3.358-7.5 7.5v27.757l6.551 10.849-6.551 24.151v28.081l-1.845 10.42h16.845v-47.621l6.399-3.889c1.595-.969 3.598-.969 5.193 0l16.023 9.737c1.595.969 3.598.969 5.193 0l16.024-9.738c1.595-.969 3.598-.969 5.193 0l5.809 3.529v47.981h15v-38.871l-8.788-21.69 8.788-13.31v-27.387c0-4.142-3.358-7.5-7.5-7.5z" fill="#8ce1a4"/><g fill="#7ad396"><path d="m113.23 301.055 15-9.12v35l-15 9.12z"/><path d="m203.06 300.685v35l-15-9.11v-35z"/></g><path d="m196.64 209.295c-2.156-.609-4.3-1.152-6.437-1.664l.027-.006c-24.392-5.656-53.358-7.052-79.634 6.796-17.215 10.236-30.017 30.038-29.826 51.864v87.969c0 1.818 1.557 3.246 3.369 3.088l5.717-.497c.528-.046 1.058.044 1.541.262l.001.001c2.051.923 4.372-.577 4.372-2.827v-88.125c-.14-16.267 9.881-32.291 24.144-39.807.962-.507 2.101-.462 3.051.067.545.303 1.179.546 2.019.766.637.167 1.204.534 1.625 1.04 7.629 9.176 19.234 14.744 31.68 14.744 12.695 0 24.326-5.558 31.829-14.727.442-.54 1.047-.917 1.725-1.079 6.954-1.659 11.957-4.984 15.524-8.563 1.474-1.479 1.108-3.935-.721-4.942-3.169-1.747-6.514-3.211-10.006-4.36z" fill="#8ce1a4"/><path d="m196.642 140.315c-7.843-13.064-22.092-21.816-38.352-21.491-15.442-.309-29.071 7.57-37.121 19.554-6.472 10.646-7.652 21.937-7.652 32.59v17.137c0 12.301 4.042 24.579 20.037 25.157.731.026 1.38.441 1.72 1.089 4.409 8.407 13.323 13.615 23.017 13.615 9.677 0 18.853-5.19 23.028-13.572.334-.671.992-1.106 1.741-1.133 16.069-.59 20.003-12.862 20.003-25.156v-14.714c0-11.793 0-23.6-6.421-33.076z" fill="#f2d1a5"/><g><path d="m207.94 140.315h-4.89l-4.788.918c-8.422 0-13.165 4.815-13.165 13.238 0 7.268 3.477 14.29 9.843 16.044 1.016.245 2.095.3 3.25.3h9.75c3.866 0 7-3.134 7-7v-16.5c0-3.866-3.134-7-7-7z" fill="#e8e8e8"/><path d="m203.05 140.315c-4.82 2.49-8.11 7.52-8.11 13.32v16.88c-6.85-1.39-12-7.45-12-14.7v-.5c0-8.28 6.72-15 15-15z" fill="#d8d8d8"/><g><path d="m120.052 140.315c7.504.955 13.888 7.486 13.888 15.25 0 8.422-6.828 15.25-15.25 15.25h-5.173l-7.305-17.226 7.008-10.605c-.001 0 6.58-2.701 6.832-2.669z" fill="#e8e8e8"/><path d="m120.052 140.315c-4.039 2.702-6.532 8.185-6.532 13.45v17.05h-4.58c-3.87 0-7-3.13-7-7v-16.5c0-3.87 3.13-7 7-7z" fill="#d8d8d8"/></g></g><path d="m88.86 364.556h20.152v131.759h-20.152z" fill="#c38c66"/><path d="m110.931 373.824-23.603-.319c-4.414 0-7.993-3.579-7.993-7.993l.165-2.202c0-8.017 6.499-14.517 14.517-14.517l1.753-.548h9.089c7.611 0 13.854 5.857 14.467 13.31.033.398-1.019 1.019-1.019 1.425l-.826 3.248c.001 4.414-2.135 7.596-6.55 7.596z" fill="#f2d1a5"/><path d="m119.38 362.765v3.8c0 4.41-3.58 7.99-8 7.99h-24.89c-4.42 0-8-3.58-8-7.99v-3.8c0-8.02 6.5-14.52 14.52-14.52h2.76l-.016 5.32c0 4.41 3.316 7.99 7.736 7.99h15.84c.03.4.05.8.05 1.21z" fill="#f2bb88"/><path d="m335.97 232.585h15v67.2h-15z" fill="#e8e8e8"/><path d="m393.83 301.635c0 4.15-3.36 7.5-7.5 7.5h-35.36v32.94h-15v-32.94h-37.13c-4.14 0-7.5-3.35-7.5-7.5 0-4.14 3.36-7.5 7.5-7.5h87.49c4.14 0 7.5 3.36 7.5 7.5z" fill="#b57f5f"/><path d="m382.76 239.075-1.2 4.73c-2.33 1.07-4.85 1.88-7.56 2.42-.57.12-1.1.4-1.52.81-7.89 7.73-17.99 11.93-29.01 11.93-11.34 0-21.72-4.45-29.7-12.63-2.91-.56-5.79-1.47-8.52-2.79l-1.25-4.95c4.54-2.42 9.38-4.4 14.49-5.87 16.54-4.53 32.84-4.67 48.89 0 5.44 1.56 10.59 3.71 15.38 6.35z" fill="#e8e8e8"/><path d="m350.97 232.585v25.7c-2.44.45-4.95.68-7.5.68s-5.06-.23-7.5-.67v-25.71z" fill="#d8d8d8"/><path d="m385.61 186.74v21.585c0 11.524-3.672 23.028-18.64 23.672-.84.036-1.63.447-2.145 1.112-5.083 6.563-12.332 10.856-21.355 10.856-9.013 0-16.271-4.294-21.355-10.857-.515-.665-1.304-1.075-2.144-1.112-14.875-.647-18.641-12.15-18.641-23.671v-20.95c15.023-26.909 68.931-25.7 84.28-.635z" fill="#f2d1a5"/><path d="m369.499 153.382c.63-2.326.966-4.772.966-7.297 0-15.373-12.462-27.835-27.835-27.835s-27.835 12.462-27.835 27.835c0 2.749.398 5.405 1.141 7.913z" fill="#d8d8d8"/><path d="m385.61 185.18v1.56c-14.554 5.053-31.623 1.944-41.478-13.008-.781-1.185-2.55-1.175-3.332.01-6.387 9.681-15.793 14.394-25.581 15.141 0 0-8.035-1.266-12.564-2.586l-.083-2.271c0-9.134 3.008-15.18 7.954-22.128 1.911-2.684 5.253-8.612 5.253-8.612 7.409-6.491 17.097-10.375 27.69-10.165 23.261-.461 42.141 18.799 42.141 42.059z" fill="#e8e8e8"/><path d="m315.78 153.285c-.37 3.18-.56 6.55-.56 10.12v25.48c-4.64.35-9.36-.19-13.89-1.51v-2.2c0-12.66 5.6-24.14 14.45-31.89z" fill="#d8d8d8"/></g></svg>