<svg id="Capa_1" enable-background="new 0 0 497 497" height="512" viewBox="0 0 497 497" width="512" xmlns="http://www.w3.org/2000/svg"><g><path d="m467.859 497c4.418 0 8-3.582 8-8v-66.29c0-42.16-22.36-81.06-58.57-102.31l-6.809-2.985-317.089.434-6.726 3.964c-36.21 21.25-58.57 60.15-58.57 102.31l-5.163 62.937c0 4.418 3.582 8 8 8l5.209 1.94h98.41l111.978-14.839 115.92 14.839z" fill="#ffe07d"/><path d="m362.449 497c39.734-63.242 52.316-112.537 53.78-175.431.189-8.108-4.05-15.676-11.094-19.694l-34.685-19.783-12.178-1.455-10.473-11.052-199.404.979-8.215 8.065-45.083 23.697c-7.045 4.018-11.283 11.587-11.094 19.694.123 5.263-2.91 9.981-2.622 15.07 3.15 55.722 16.761 101.961 53.17 159.91h76.584l37.365-7.243 37.365 7.243z" fill="#c38c66"/><path d="m81.381 337.09c-28.07 19.17-45.24 51.36-45.24 85.62v74.29h-7c-4.42 0-8-3.58-8-8v-66.29c0-42.16 22.36-81.06 58.57-102.31l1.09-.64 3.296 2.591z" fill="#ffd064"/><path d="m359.981 276.12-12.18-6.53-164.874.802.004-.002-34.54.17-11.37 5.56-45.16 25.75c-6.51 3.72-10.63 10.48-11.06 17.89-.03.6-.04 1.2-.03 1.81.12 5.26.32 10.43.61 15.52 1.92-1.31 3.9-2.56 5.92-3.75l3.424-2.019c2.873-1.694 4.711-4.709 4.903-8.038l.153-2.653c.09-1.56.68-3.01 1.64-4.16.52-.62 1.16-1.16 1.88-1.57l33.271-18.97c2.269-1.294 5.099-.954 7.032.803 6.341 5.765 13.469 10.667 21.127 14.487 8.667 4.394 19.255 7.554 29.737 8.975 1.234.167 2.333.872 2.948 1.955 8.772 15.443 29.908 25.78 55.085 25.78 25.135 0 46.249-10.306 55.04-25.708.618-1.083 1.721-1.786 2.958-1.951 24.504-3.266 47.773-16.577 62.513-36.211.49-.65.98-1.31 1.44-1.97z" fill="#b57f5f"/><path d="m330.219 292.521c0 5.382-3.565 9.819-3.654 14.869-.034 1.946 3.398 6.54 3.398 6.54-2.157 86.527-17.861 125.144-44.098 183.07h-29.864l-7.986-3.445-7.014 3.445h-29.866c-26.223-57.894-41.924-96.501-44.094-182.93 0 0 4.628-3.719 4.598-5.31-.103-5.417-4.858-10.436-4.858-16.239z" fill="#f8f7f7"/><g><path d="m256.001 313.63v183.37h-15v-183.37c0-4.14 3.36-7.5 7.5-7.5s7.5 3.36 7.5 7.5z" fill="#e8e8e8"/></g><path d="m377.246 149.947h16.672c14.228 0 24.325 13.867 19.957 27.408l-4.777 14.809c-3.804 11.791-14.779 19.783-27.168 19.783h-6.213l-253.529.053h-6.213c-12.39 0-23.365-7.992-27.168-19.783l-4.777-14.809c-4.369-13.541 5.729-27.408 19.956-27.408h16.508z" fill="#f2bb88"/><path d="m330.221 292.52c0 7.46-.09 14.58-.26 21.41-7.52 3.12-15.42 5.27-23.46 6.34-1.24.17-2.34.87-2.96 1.95-8.79 15.4-29.9 25.71-55.04 25.71-25.18 0-46.31-10.34-55.08-25.78-.62-1.08-1.72-1.79-2.95-1.96-8.06-1.09-16.17-3.21-23.43-6.12-.17-6.87-.26-14.04-.26-21.55z" fill="#e8e8e8"/><path d="m256.001 313.63v33.98c-2.45.21-4.96.32-7.5.32s-5.05-.11-7.5-.32v-33.98c0-4.14 3.36-7.5 7.5-7.5s7.5 3.36 7.5 7.5z" fill="#d8d8d8"/><path d="m373.037 124.44v103.29c0 8.53-1.4 16.95-4.08 24.94-2.68 7.98-6.66 15.53-11.81 22.33-14.075 18.76-37.453 30.783-61.426 31.04-1.441.016-2.668 1.076-2.887 2.5-2.099 13.682-21.105 24.39-44.238 24.39-23.145 0-42.153-10.718-44.24-24.404-.217-1.425-1.443-2.473-2.884-2.498-10.929-.191-23.772-3.058-33.906-8.208-10.67-5.31-20.13-13.06-27.52-22.82-10.31-13.6-15.89-30.2-15.89-47.27v-101.985c.001-68.922 55.476-125.722 124.399-125.745 34.377-.011 65.513 13.921 88.032 36.45 22.52 22.51 36.45 53.63 36.45 87.99z" fill="#f2d1a5"/><g fill="#f8f7f7"><path d="m215.422 259.559c1.354 2.556 5.191 2.896 6.748 5.033 1.285 1.762 1.662 6.866 1.662 6.866 14.545 15.347 34.792 15.347 49.337 0 0 0 1.289-3.258 2.32-4.596 1.87-2.427 4.497-4.298 6.09-7.304l1.922-3.059-34.5-16.5-36.606 14.181z"/><ellipse cx="195.108" cy="149.947" rx="33.457" ry="38.83"/><ellipse cx="301.895" cy="149.947" rx="33.457" ry="38.83"/></g><path d="m391.655 142.5h-47.885c-.489 0-.899-.357-.979-.839-3.544-21.508-20.53-37.863-40.897-37.863-17.817 0-33.043 12.52-38.951 30.053-.193.574-.835.841-1.382.581-8.628-4.11-17.493-4.11-26.124-.002-.547.26-1.188-.007-1.381-.581-5.908-17.532-21.133-30.05-38.95-30.05-20.367 0-37.352 16.355-40.897 37.863-.08.482-.49.839-.979.839h-57.457c-4.107 0-7.688 3.164-7.811 7.269-.128 4.247 3.278 7.731 7.497 7.731h57.774c.489 0 .899.357.979.839 3.544 21.508 20.53 37.863 40.897 37.863 22.392 0 40.694-19.77 41.54-44.422.01-.295.151-.577.383-.758 7.911-6.17 15.035-6.168 22.942.007.232.181.372.463.383.758.849 24.65 19.149 44.416 41.54 44.416 20.367 0 37.352-16.355 40.897-37.863.079-.482.49-.839.979-.839h48.2c4.219 0 7.624-3.483 7.497-7.731-.127-4.107-3.708-7.271-7.815-7.271zm-196.547 38.702c-14.659 0-26.584-13.997-26.584-31.202s11.925-31.202 26.584-31.202 26.584 13.997 26.584 31.202-11.926 31.202-26.584 31.202zm106.787 0c-14.659 0-26.584-13.997-26.584-31.202s11.925-31.202 26.584-31.202 26.584 13.997 26.584 31.202-11.926 31.202-26.584 31.202z" fill="#857e87"/><g><g><path d="m301.895 163.203c-4.142 0-7.5-3.358-7.5-7.5v-11.405c0-4.142 3.358-7.5 7.5-7.5s7.5 3.358 7.5 7.5v11.405c0 4.142-3.358 7.5-7.5 7.5z" fill="#e8e8e8"/></g><g><path d="m195.108 163.203c-4.142 0-7.5-3.358-7.5-7.5v-11.405c0-4.142 3.358-7.5 7.5-7.5s7.5 3.358 7.5 7.5v11.405c0 4.142-3.358 7.5-7.5 7.5z" fill="#e8e8e8"/></g></g><path d="m283.501 256.5-1.92 3.06c-2.47 4.66-5.301 8.628-8.411 11.898-9.68-.54-17.179-3.028-22.799-5.988-1.17-.62-2.57-.62-3.74 0-5.62 2.96-13.119 5.448-22.799 5.988-3.11-3.27-5.941-7.238-8.411-11.898l-3.03-5.38 36.61-14.18z" fill="#e8e8e8"/><path d="m229.887 214.065c-11.253 0-29.205 8.617-45.355 11.426 0 0-1.155.413-2.55.561-2.231.236-3.474 2.719-2.246 4.597 12.021 18.383 26.684 25.979 41.489 25.979 12.761 0 19.482-2.515 24.834-6.957 1.094-.908 2.681-.908 3.775 0 5.352 4.443 14.906 8.128 27.667 8.128 14.805 0 27.523-7.679 39.544-26.063 1.228-1.878-2.246-4.597-2.246-4.597-1.394-.148-2.328-1.647-2.328-1.647-16.151-2.809-34.102-11.426-45.356-11.426h-37.228z" fill="#c38c66"/><path d="m318.951 230.69c-12.02 18.38-27.03 28.87-41.84 28.87-12.76 0-21.37-3.96-26.72-8.4-1.1-.91-2.68-.91-3.78 0-5.35 4.44-13.96 8.4-26.72 8.4-14.81 0-29.82-10.49-41.84-28.87-1.23-1.88.01-4.36 2.24-4.6 1.39-.15 2.81-.349 4.24-.599 10.72 12.89 23.11 20.069 35.36 20.069 12.76 0 21.37-3.96 26.72-8.4 1.1-.91 2.68-.91 3.78 0 5.35 4.44 13.96 8.4 26.72 8.4 12.25 0 24.64-7.179 35.36-20.069 1.43.25 2.85.449 4.24.599 2.23.24 3.47 2.72 2.24 4.6z" fill="#b57f5f"/><g><g><path d="m295.817 89.13c-.548 0-1.104-.06-1.661-.186-30.3-6.851-61.021-6.851-91.31 0-4.039.909-8.056-1.621-8.97-5.661s1.621-8.056 5.661-8.97c32.484-7.347 65.432-7.346 97.926 0 4.041.914 6.575 4.929 5.662 8.969-.787 3.484-3.881 5.848-7.308 5.848z" fill="#f2bb88"/></g><g><path d="m280.211 60.191c-.375 0-.754-.028-1.136-.086-20.287-3.082-40.86-3.082-61.147 0-4.1.622-7.919-2.193-8.542-6.289-.622-4.095 2.193-7.919 6.289-8.542 21.782-3.309 43.871-3.309 65.653 0 4.095.622 6.911 4.446 6.289 8.542-.565 3.714-3.762 6.375-7.406 6.375z" fill="#f2bb88"/></g></g><path d="m168.158 51.462c0-14.551-11.781-26.346-26.313-26.346-11.391 0-21.087 7.25-24.748 17.391-.389 1.077-1.568 1.61-2.635 1.194-.013-.005-.026-.01-.04-.015 0 0-6.818-.687-10.511-.295-10.368 1.099-17.373 9.961-18.343 20.342-.143 1.534-.13 3.039.026 4.502.119 1.119-.663 2.119-1.782 2.238-13.191 1.412-22.459 11.205-22.459 24.771 0 8.98 4.629 16.236 11.499 20.979.834.576 1.095 1.685.611 2.576-2.354 4.343-4.538 9.415-4.294 14.757.693 15.154 12.098 26.31 27.268 26.298 4.03-.003 11.412.663 11.412.663 9.592-.947 16.237-4.223 16.237-15.516 0-.896-.017-12.98-.023-17.772-.001-1.054.817-1.931 1.869-1.992 16.455-.952 29.024-14.404 29.024-32.11 0-5.364-1.156-10.455-3.222-15.048-.451-1.003-.004-2.171.997-2.627 9.1-4.146 15.427-13.328 15.427-23.99z" fill="#e8e8e8"/><path d="m107.866 160.516c-3.44.34-7.275.384-11.305.384-15.17.01-28.1-11.7-28.79-26.86-.25-5.34 1-10.37 3.35-14.71.49-.89.23-2-.61-2.58-6.87-4.74-11.37-12.67-11.37-21.65 0-13.56 10.27-24.72 23.47-26.13 1.11-.12 1.9-1.12 1.78-2.24-.16-1.46-.17-2.97-.03-4.5.97-10.38 9.29-18.81 19.66-19.91 3.69-.39 7.222.135 10.402 1.365-7.64 2.97-13.272 10.115-14.062 18.545-.14 1.53-.13 3.04.03 4.5.12 1.12-.67 2.12-1.78 2.24-13.2 1.41-23.47 12.57-23.47 26.13 0 8.98 4.5 16.91 11.37 21.65.84.58 1.1 1.69.61 2.58-2.35 4.34-3.6 9.37-3.35 14.71.62 13.56 11.045 24.356 24.095 26.476z" fill="#d8d8d8"/><path d="m331.822 52.307c0-12.309 16.847-26.385 16.847-26.385 2.075-.527 4.249-.807 6.488-.807 11.391 0 21.087 7.25 24.748 17.391.389 1.077 1.568 1.61 2.635 1.194 3.188-1.243 6.732-1.773 10.441-1.38 10.368 1.099 18.69 9.526 19.659 19.907.143 1.534.13 3.039-.026 4.502-.119 1.119.663 2.119 1.782 2.238 13.191 1.412 23.465 12.571 23.465 26.137 0 8.98-4.504 16.904-11.373 21.648-.834.576-1.095 1.685-.611 2.576 2.354 4.343 3.604 9.371 3.359 14.712-.292 6.391-2.76 12.171-6.655 16.717 0 0-13.701 8.345-22.474 8.339-15.263-.012-24.419-.093-24.419-15.438 0-.896.017-12.98.023-17.772.001-1.054-.817-1.931-1.869-1.992-16.455-.952-28.639-13.584-28.639-31.289 0-5.364 1.156-10.455 3.222-15.048.451-1.003.004-2.171-.997-2.627-9.099-4.145-15.606-11.96-15.606-22.623z" fill="#e8e8e8"/><path d="m422.58 150.758c-5.33 6.24-13.359 10.152-22.139 10.142-15.26-.01-27.53-.55-27.53-15.9 0-.9.02-12.98.03-17.77 0-1.06-.82-1.93-1.87-1.99-16.46-.96-29.03-14.41-29.03-32.11 0-5.37 1.16-10.46 3.23-15.05.45-1 0-2.17-1-2.63-9.1-4.14-15.43-13.33-15.43-23.99 0-12.31 8.428-22.647 19.828-25.537-3.65 4.52-5.828 10.267-5.828 16.537 0 10.66 6.33 19.85 15.43 23.99 1 .46 1.45 1.63 1 2.63-2.07 4.59-3.23 9.68-3.23 15.05 0 17.7 12.57 31.15 29.03 32.11 1.05.06 1.87.93 1.87 1.99-.01 4.79-.03 16.87-.03 17.77 0 15.35 12.27 15.89 27.53 15.9 2.81 0 5.549-.392 8.139-1.142z" fill="#d8d8d8"/><path d="m248.501 227.91c-12.425 0-23.616-7.616-30.701-20.895-1.95-3.654-.568-8.198 3.086-10.147 3.654-1.951 8.197-.569 10.147 3.086 4.394 8.233 10.761 12.956 17.468 12.956s13.074-4.723 17.468-12.956c1.949-3.654 6.493-5.037 10.147-3.086 3.654 1.95 5.036 6.493 3.086 10.147-7.085 13.279-18.276 20.895-30.701 20.895z" fill="#f2bb88"/></g></svg>