<svg id="Capa_1" enable-background="new 0 0 497 497" height="512" viewBox="0 0 497 497" width="512" xmlns="http://www.w3.org/2000/svg"><g><g><path d="m105.75 41.5h-40l-1.755 1.046c-5.523 0-10 4.477-10 10v16.954h60.385l1.369-13v-5c.001-5.523-4.476-10-9.999-10z" fill="#f8f7f7"/><path d="m115.75 56.5v13l-30.323 2.917-32.677-2.917v-18c0-5.523 4.477-10 10-10h3v10c0 2.761 2.239 5 5 5z" fill="#e8e8e8"/></g><g><path d="m434.25 41.5h-40l-1.755 1.046c-5.523 0-10 4.477-10 10v16.954h60.385l1.369-13v-5c.001-5.523-4.476-10-9.999-10z" fill="#f8f7f7"/><path d="m444.25 56.5v13l-30.323 2.917-32.677-2.917v-18c0-5.523 4.477-10 10-10h3v10c0 2.761 2.239 5 5 5z" fill="#e8e8e8"/></g><path d="m328.5 110.674-16 2.826h-128l-16-2.826v-24.935l16-2.239h128l16 2.239z" fill="#8ce1a4"/><path d="m164.583 83.5h19.917v30h-19.917z" fill="#7ad396"/><path d="m312.5 83.5h27.459v30h-27.459z" fill="#7ad396"/><path d="m328.5 81.5v50c0 6.627-5.373 12-12 12h-136c-6.627 0-12-5.373-12-12v-50c0-6.627-5.373-12-12-12h-138.5l-4.353 2c-6.627 0-12 5.373-12 12l2.917 354.312c0 6.627 5.373 12 12 12l465.495 3.605c6.627 0 12-5.373 12-12l2.941-3.917v-356c0-6.627-5.373-12-12-12h-144.5c-6.627 0-12 5.373-12 12z" fill="#afefa5"/><path d="m326.5 251.5c0-43.078-34.922-78-78-78-17.715 0-34.051 5.906-47.146 15.855 0 0-9.747 11.386-14.396 18.007-8.897 12.671-11.807 27.479-11.807 44.138 0 43.078 30.27 73.523 73.349 73.523 13.519 0 25.713-1.104 36.798-7.156 9.547-5.212 25.006-18.776 25.006-18.776 10.156-13.169 16.196-29.675 16.196-47.591z" fill="#8ce1a4"/><path d="m310.64 298.652c-14.25 18.75-36.78 30.848-62.14 30.848-43.08 0-78-34.92-78-78 0-25.36 12.1-47.9 30.85-62.15-9.94 13.09-15.85 29.43-15.85 47.15 0 43.08 34.92 78 78 78 17.72 0 34.05-5.908 47.14-15.848z" fill="#7ad396"/><path d="m497 437.5v6c0 6.627-5.373 12-12 12h-473c-6.627 0-12-5.373-12-12v-362c0-6.627 5.373-12 12-12h6v348c0 11.046 8.954 20 20 20z" fill="#8ce1a4"/><path d="m290.5 237.289h-24.789c-1.657 0-3-1.343-3-3v-24.789c0-1.657-1.343-3-3-3h-22.421c-1.657 0-3 1.343-3 3v24.789c0 1.657-1.343 3-3 3h-24.79c-1.657 0-3 1.343-3 3v22.421c0 1.657 1.343 3 3 3h24.789c1.657 0 3 1.343 3 3v24.79c0 1.657 1.343 3 3 3h22.421c1.657 0 3-1.343 3-3v-24.789c0-1.657 1.343-3 3-3h24.79c1.657 0 3-1.343 3-3v-22.421c0-1.657-1.343-3.001-3-3.001z" fill="#f8f7f7"/><path d="m361 395.5h-225c-2.761 0-5-2.239-5-5v-25c0-2.761 2.239-5 5-5h225c2.761 0 5 2.239 5 5v25c0 2.761-2.239 5-5 5z" fill="#f8f7f7"/><g><path d="m366 428h-235c-4.143 0-7.5-3.358-7.5-7.5s3.357-7.5 7.5-7.5h235c4.143 0 7.5 3.358 7.5 7.5s-3.357 7.5-7.5 7.5z" fill="#f8f7f7"/></g></g></svg>