<svg id="Capa_1" enable-background="new 0 0 497 497" height="512" viewBox="0 0 497 497" width="512" xmlns="http://www.w3.org/2000/svg"><g><path d="m427.5 407v30h-358l5.532-13.755-5.532-16.245z" fill="#857e87"/><path d="m427.5 30v30l-17.66 179.245 17.66 167.755h-350v-377l168-8.968z" fill="#7bb1ff"/><g><g><path d="m307.5 80.761c-4.142 0-7.5-3.358-7.5-7.5v-47.56c0-4.142 3.358-7.5 7.5-7.5s7.5 3.358 7.5 7.5v47.56c0 4.142-3.358 7.5-7.5 7.5z" fill="#e8e8e8"/></g><g><path d="m337.5 80.761c-4.142 0-7.5-3.358-7.5-7.5v-47.56c0-4.142 3.358-7.5 7.5-7.5s7.5 3.358 7.5 7.5v47.56c0 4.142-3.358 7.5-7.5 7.5z" fill="#e8e8e8"/></g><g><path d="m367.5 80.761c-4.142 0-7.5-3.358-7.5-7.5v-47.56c0-4.142 3.358-7.5 7.5-7.5s7.5 3.358 7.5 7.5v47.56c0 4.142-3.358 7.5-7.5 7.5z" fill="#e8e8e8"/></g><g><path d="m397.5 80.761c-4.142 0-7.5-3.358-7.5-7.5v-47.56c0-4.142 3.358-7.5 7.5-7.5s7.5 3.358 7.5 7.5v47.56c0 4.142-3.358 7.5-7.5 7.5z" fill="#e8e8e8"/></g></g><path d="m292.5 437v-367c0-5.523 4.477-10 10-10h12.5l7.5 2.904 7.5-2.904h8.181 6.819l7.138 2.904 7.862-2.904h15l6.33 3.755 8.67-3.755h37.5v377l-70 9.053z" fill="#ff8086"/><g><g><path d="m315 60h15v386.053h-15z" fill="#e5646e"/></g><g><path d="m345 60h15v386.053h-15z" fill="#e5646e"/></g><g><path d="m375 60h15v386.053h-15z" fill="#e5646e"/></g></g><path d="m427.5 437v44l-2.96 8c0 2.761-2.239 5-5 5h-342.04c-2.761 0-5-2.239-5-5l-3-52z" fill="#f8f7f7"/><path d="m427.5 5v25h-358l1.362-23.521c0-2.761 2.239-5 5-5l9.638-1.479h337c2.761 0 5 2.239 5 5z" fill="#f8f7f7"/><path d="m85.5 407v30l-8 2.074-8-2.074v-30l8-4.011z" fill="#6f6571"/><path d="m85.5 30v377h-16v-109l6.553-10.585-6.553-15.415v-40.5l4.596-6.936-4.596-8.064v-15l4.596-7.5-4.596-7.5v-119l3.83-7.5-3.83-7.5v-22.5l7.319-4.117z" fill="#62a5f4"/><path d="m427.5 481v11c0 2.76-2.24 5-5 5h-147l-28.809-4.606-31.191 4.606h-34.5l-31.33-4.606-28.67 4.606h-46.5c-2.76 0-5-2.24-5-5v-55h16v31c0 7.18 5.82 13 13 13z" fill="#e8e8e8"/><path d="m85.5 0v30h-16v-25c0-2.76 2.24-5 5-5z" fill="#e8e8e8"/><g><path d="m196.5 70v27.37c0 4.14-3.36 7.5-7.5 7.5s-7.5-3.36-7.5-7.5v-27.37c0-1.38-1.12-2.5-2.5-2.5h-109.5l6.128-7.5-6.128-7.5h109.5c9.65 0 17.5 7.85 17.5 17.5z" fill="#e8e8e8"/></g><path d="m127 210v29c0 4.14-3.36 7.5-7.5 7.5s-7.5-3.36-7.5-7.5v-7.5h-42.5l3.702-7.5-3.702-7.5h42.5v-6.5c0-4.69-3.81-8.5-8.5-8.5h-34l3.702-6.936-3.702-8.064h34c12.96 0 23.5 10.54 23.5 23.5z" fill="#e8e8e8"/><g><path d="m258.5 467-13 7.649-13-7.649v-154c0-8.284-6.716-15-15-15h-148l10.468-12.287-10.468-13.713h149c22.091 0 40 17.909 40 40z" fill="#e8e8e8"/></g><g><path d="m69.5 52.5h16v15h-16z" fill="#d8d8d8"/></g><path d="m69.5 186.5h16v15h-16z" fill="#d8d8d8"/><path d="m69.5 216.5h16v15h-16z" fill="#d8d8d8"/><g><path d="m69.5 272h16v26h-16z" fill="#d8d8d8"/></g><path d="m164 467-13 10.968-13-10.968v-169h26z" fill="#e8e8e8"/><g><g><path d="m140 175.681c-4.142 0-7.5-3.358-7.5-7.5v-20c0-4.142 3.358-7.5 7.5-7.5s7.5 3.358 7.5 7.5v20c0 4.142-3.358 7.5-7.5 7.5z" fill="#62a5f4"/></g><g><path d="m172.667 175.681c-4.142 0-7.5-3.358-7.5-7.5v-20c0-4.142 3.358-7.5 7.5-7.5s7.5 3.358 7.5 7.5v20c0 4.142-3.358 7.5-7.5 7.5z" fill="#62a5f4"/></g><g><path d="m205.333 175.681c-4.142 0-7.5-3.358-7.5-7.5v-20c0-4.142 3.358-7.5 7.5-7.5s7.5 3.358 7.5 7.5v20c0 4.142-3.357 7.5-7.5 7.5z" fill="#62a5f4"/></g><g><path d="m238 175.681c-4.142 0-7.5-3.358-7.5-7.5v-20c0-4.142 3.358-7.5 7.5-7.5s7.5 3.358 7.5 7.5v20c0 4.142-3.358 7.5-7.5 7.5z" fill="#62a5f4"/></g><g><path d="m156.667 225.681c-4.142 0-7.5-3.358-7.5-7.5v-20c0-4.142 3.358-7.5 7.5-7.5s7.5 3.358 7.5 7.5v20c0 4.142-3.358 7.5-7.5 7.5z" fill="#62a5f4"/></g><g><path d="m189.333 225.681c-4.142 0-7.5-3.358-7.5-7.5v-20c0-4.142 3.358-7.5 7.5-7.5s7.5 3.358 7.5 7.5v20c0 4.142-3.357 7.5-7.5 7.5z" fill="#62a5f4"/></g><g><path d="m222 225.681c-4.142 0-7.5-3.358-7.5-7.5v-20c0-4.142 3.358-7.5 7.5-7.5s7.5 3.358 7.5 7.5v20c0 4.142-3.358 7.5-7.5 7.5z" fill="#62a5f4"/></g></g><path d="m181 497-31.585-4.479-28.415 4.479v-15c0-8.284 6.716-15 15-15h30c8.284 0 15 6.716 15 15z" fill="#857e87"/><path d="m275.5 497-30-3-30 3v-15c0-8.284 6.716-15 15-15h30c8.284 0 15 6.716 15 15z" fill="#857e87"/><path d="m181 482v15h-60v-15c0-.34.01-.67.04-1h59.92c.03.33.04.66.04 1z" fill="#6f6571"/><path d="m275.5 482v15h-60v-15c0-.34.01-.67.04-1h59.92c.03.33.04.66.04 1z" fill="#6f6571"/><path d="m238.777 116.691-98.777.405c-1.105 0-2-.895-2-2l-.266-5.096c0-8.933 12.704-19.065 12.704-19.065 1.912-.607 3.949-.935 6.062-.935h65c9.319 0 17.15 6.374 19.37 15 0 0-.902 3.273-.902 5l.809 4.691c0 1.105-.896 2-2 2z" fill="#f8f7f7"/><path d="m241.5 110v6c0 1.1-.9 2-2 2h-101c-1.1 0-2-.9-2-2v-6c0-8.94 5.848-16.505 13.938-19.065-.61 1.91-.938 3.955-.938 6.065v4c0 2.21 1.79 4 4 4h87.37c.41 1.6.63 3.28.63 5z" fill="#e8e8e8"/></g></svg>