<svg id="Capa_1" enable-background="new 0 0 497.002 497.002" height="512" viewBox="0 0 497.002 497.002" width="512" xmlns="http://www.w3.org/2000/svg"><g><path d="m415.723 226.984-4.518-6.213.634-8.28-1.287-4.805c-6.425-23.98-31.074-38.211-55.055-31.786l-155.934 41.782-64.902-148.64c-8.896-20.378-31.354-31.19-52.832-25.435l-11.047 2.96-13.262 6.242 105.585 241.864z" fill="#f8f7f7"/><path d="m415.91 227.677-148.828 49.114-103.389 19.23-6.659-15.251 58.64-15.71 4.1-1.1 192.07-51.47z" fill="#e8e8e8"/><path d="m420.66 257.39-272.121 70.679-4.508-11.221c-2.356-8.793 2.862-17.831 11.655-20.187l263.414-70.582c8.793-2.356 17.831 2.862 20.187 11.655.194.725.337 1.451.43 2.176 1.042 8.062-10.989 15.318-19.057 17.48z" fill="#c38c66"/><path d="m177.484 290.82-16.696 4.662-75.688-164.422-29.682-80.377 15.366-4.113 105.69 241.67c.37.85.71 1.71 1.01 2.58z" fill="#e8e8e8"/><path d="m54.957 47.812 42.259 96.635 15.957 27.567 4.571 19.375 44.983 102.864c4.426 10.12-.191 21.912-10.311 26.338l-9.542 1.286-114.361-258.689c-3.436-7.858-4.021-19.105 3.336-23.177.45-.249.915-.479 1.395-.689l.014-.006c8.337-3.646 18.052.158 21.699 8.496z" fill="#c38c66"/><path d="m439.854 242.01c0 7.28-4.86 13.93-12.22 15.91l-279.34 74.85-3.76-14.04 295.184-78.82c.09.7.136 1.4.136 2.1z" fill="#b57f5f"/><path d="m153.594 320.03c-.38.2-.78.38-1.18.56l-11.88 5.2-115.79-264.77c-3.43-7.86-.255-16.949 7.105-21.009z" fill="#b57f5f"/><g><g><path d="m133.519 419.97-28.967-7.803 36.695-111.676 22.305-107.324 28.967 7.803-8.749 21.814.683 8.126-41.916 155.588-4.208 7.461z" fill="#b57f5f"/></g><g><path d="m363.552 419.97-23.149-110.341-35.851-108.659 28.967-7.803 3.911 24.315 4.259 6.01 41.211 152.969-.387 8.539 10.006 27.167z" fill="#b57f5f"/></g></g><g fill="#9f6e50"><path d="m163.554 193.17-59 219 28.97 7.8 9.013-33.472c-4.089-1.35-8.143-2.783-12.18-4.289-1.927-.719-2.982-2.798-2.447-4.784l39.494-146.596c.574-2.13 2.761-3.38 4.896-2.823 4.032 1.053 8.083 2.025 12.154 2.904l8.07-29.94z"/><path d="m392.524 412.17-9.624-35.709c-3.726 1.583-7.478 3.093-11.259 4.541-2.222.851-4.693-.392-5.312-2.69l-39.43-146.389c-.576-2.138.699-4.324 2.835-4.906 4.007-1.091 7.99-2.261 11.954-3.527l-8.165-30.321-28.97 7.8 59 219z"/></g><path d="m249.207 455.831c-46.853 0-89.14-7.356-132.756-23.339-39.965-14.646-79.072-33.026-112.451-59.635-2.996-2.388-3.466-6.768-1.029-9.724l15.641-18.22c2.365-2.868 6.588-3.321 9.498-1.009 2.179 1.732 6.496 2.754 6.496 2.754 61.572 46.588 137.266 72.088 214.803 72.088 79.574 0 157.343-26.909 219.759-75.906 2.915-2.288 7.131-1.787 9.472 1.086l11.155 13.692 2.875 7.055c2.42 2.971 1.924 7.347-1.085 9.717-33.226 26.167-67.946 43.051-107.587 57.44-43.277 15.711-88.35 24.001-134.791 24.001z" fill="#c38c66"/><path d="m494.384 374.3c-33.23 26.16-70.12 46.7-109.76 61.09-43.28 15.71-88.77 23.68-135.21 23.68-46.86 0-92.73-8.11-136.34-24.09-39.97-14.65-77.1-35.54-110.48-62.15-3-2.39-3.47-6.76-1.03-9.72l16.95-20.56c2.37-2.86 6.59-3.32 9.5-1.01 2.18 1.73 4.374 3.448 6.594 5.118l-11.457 13.861c-2.564 3.103-1.996 7.732 1.252 10.11 28.816 21.107 60.309 37.981 93.831 50.271 41.96 15.37 86.09 23.17 131.18 23.17 44.69 0 88.46-7.66 130.09-22.78 35.52-12.89 68.8-30.95 99.04-53.73l11.253-9.942 5.667 6.962c2.42 2.97 1.93 7.35-1.08 9.72z" fill="#b57f5f"/><path d="m101.707 151.057c7.342 5.266 18.263 7.979 18.263 7.979 39.115 22.292 83.723 34.268 129.197 34.268 58.227 0 115.134-19.674 160.806-55.496 2.133-1.673 5.218-1.307 6.931.794l12.312 15.1c1.771 2.172 1.408 5.371-.794 7.104-24.313 19.131-51.308 34.147-80.315 44.668-31.668 11.486-64.957 17.31-98.94 17.31-34.284 0-67.849-5.925-99.765-17.611-3.755-1.375-7.475-2.825-11.16-4.349 0 0-15.092-10.788-21.792-14.195z" fill="#c38c66"/><path d="m138.242 200.824c-6.97-2.88-13.799-6.023-20.499-9.433l-20.53-46.94c7.34 5.27 14.937 10.136 22.757 14.586z" fill="#b57f5f"/></g></svg>