<svg id="Capa_1" enable-background="new 0 0 497 497" height="512" viewBox="0 0 497 497" width="512" xmlns="http://www.w3.org/2000/svg"><g><path d="m496.289 111.127-3.079 24.373-51.838 3.681-44.652-3.681-5.781-25.81 15.391-4.19h84.999c3.01 0 5.337 2.64 4.96 5.627z" fill="#ff8086"/><path d="m493.21 135.5-5.312 42-1.609 1.755c-.95 7.5-8.083 11.615-15.633 11.615l-61.431-.936-12.505-54.434z" fill="#857e87"/><path d="m412.95 135.5-9.23 3.681-7-3.681-8.358-9.53.441-20.47h17.527z" fill="#e5646e"/><path d="m420.828 171.223-7.878-35.723h-16.23l1.551 28.5 8.67 28.5h18.58 47.26c7.55 0 13.93-5.62 14.88-13.12l.24-1.88h-59.26c-3.755 0-7.005-2.611-7.813-6.277z" fill="#6f6571"/><path d="m146 156.025h29v46.95h-29z" fill="#6f6571"/><path d="m27 397-15.28-1.654c-5.523 0-10-4.477-10-10l-.716-31.211c0-5.523 4.477-10 10-10l.996-1.135h15l4.225 25.5z" fill="#f8f7f7"/><path d="m27 385 3.61 6.291-3.61 5.709h-17c-5.52 0-10-4.48-10-10v-34c0-5.52 4.48-10 10-10h2v29c0 7.18 5.82 13 13 13z" fill="#e8e8e8"/><path d="m438.985 412.503c-6.885 0-13.089-4.77-14.633-11.772l-62.192-296.449c-4.574-20.733-23.304-35.782-44.536-35.782l-51.505 2.066c-7.948 0-18.572-4.248-19.086-12.066-.022-.331-.033-.664-.033-1 0-8.284 6.716-15 15-15h53.306c17.16 0 33.978 5.919 47.354 16.667s22.78 25.896 26.477 42.652l64.511 292.45c1.785 8.09-3.326 16.094-11.416 17.879-1.089.24-2.176.355-3.247.355z" fill="#f8f7f7"/><path d="m440.65 412.4c-.55.07-1.11.1-1.66.1-6.89 0-13.09-4.77-14.64-11.77l-64.51-292.45c-4.57-20.73-23.3-35.78-44.53-35.78h-53.31c-7.94 0-14.457-6.18-14.967-14h68.277c27.74 0 52.23 19.67 58.2 46.77z" fill="#e8e8e8"/><path d="m473 319.5-97.06 21.142 5.102-55.589c.819-6.187 5.384-11.221 11.462-12.639l5.006-2.765 32.269-7.53c6.617-1.544 13.446 1.553 16.644 7.549l13.75 25.782 2.667 10.126z" fill="#ff8086"/><path d="m155.5 319.59h-40l5.78-40.042-5.78-37.958h40l-2.294 13.188 2.294 6.812z" fill="#6f6571"/><path d="m155.5 241.59v20h-19c-3.866 0-7 3.134-7 7v51h-14v-78z" fill="#635a63"/><path d="m133.591 304.39c-27.219-7.194-55.87-6.784-82.842 1.158 0 0-.462 1.794-1.381 2.083-12.492 3.934-20.988 15.518-20.988 28.614l.972 58.734 174.648 2.021v-1.173c0-4.561-4.252-9.066-4.885-13.48-.678-4.727.86-13.848.86-13.848-9.307-30.833-34.015-55.554-66.384-64.109z" fill="#ff8086"/><path d="m50.75 305.55v91.45h-23.75v-62c0-6.55 2.12-12.71 5.81-17.74s8.93-8.91 15.18-10.87c.92-.29 1.84-.57 2.76-.84z" fill="#e5646e"/><path d="m460.173 295.449c-6.69-1.34-13.563-2.019-20.543-2.019-14.892 0-29.056 3.16-41.865 8.842-2.128.944-4.464-.84-4.158-3.148l3.903-29.473-6.41 1.49c-6.08 1.42-10.64 6.46-11.46 12.64l-4.237 32.007c-.001.001-.002.002-.003.003l-3.4 25.709 101-22z" fill="#e5646e"/><path d="m494.058 342.643c4.255-4.255 3.847-11.306-.916-14.983-14.802-11.428-33.361-18.227-53.508-18.227-16.71 0-32.328 4.677-45.616 12.794 0 0-8.257 6.435-12.137 9.877-18.098 16.054-27.042 38.869-27.042 64.963l84.294.501z" fill="#ff8086"/><path d="m394.02 322.23c-16.1 19.36-26.33 46.08-26.98 74.93l-15.04-.09c0-31.69 16.82-59.45 42.02-74.84z" fill="#e5646e"/><path d="m204 395.83v1.17h-87v-28.5l82.975-.001c2.63 8.7 4.025 17.881 4.025 27.331z" fill="#e5646e"/><path d="m133 384.5h257v19h-257z" fill="#f8f7f7"/><path d="m133 397.5h257v12h-257z" fill="#e8e8e8"/><g><path d="m142 397c0-31.756-25.744-57.5-57.5-57.5-12.558 0-24.175 4.026-33.632 10.857 0 0-4.971 5.139-7.514 7.859-9.612 10.277-12.744 23.602-12.744 38.784 0 31.756 22.134 55.172 53.89 55.172 11.568 0 21.807-3.37 30.826-9.248 5.945-3.875 15.809-12.281 15.809-12.281 6.836-9.459 10.865-21.08 10.865-33.643z" fill="#857e87"/><path d="m131.13 430.64c-10.43 14.46-27.43 23.86-46.63 23.86-31.76 0-57.5-25.74-57.5-57.5 0-19.2 9.41-36.21 23.87-46.64-6.84 9.46-10.87 21.08-10.87 33.64 0 31.76 25.74 57.5 57.5 57.5 12.56 0 24.18-4.02 33.63-10.86z" fill="#6f6571"/><circle cx="84.5" cy="397" fill="#f8f7f7" r="27.5"/></g><g><path d="m497 397c0-31.756-25.744-57.5-57.5-57.5-12.558 0-24.175 4.026-33.632 10.857 0 0-4.971 5.139-7.514 7.859-9.611 10.277-12.743 23.603-12.743 38.784 0 31.756 22.134 55.172 53.89 55.172 11.568 0 21.807-3.37 30.826-9.248 5.945-3.875 15.809-12.281 15.809-12.281 6.835-9.459 10.864-21.08 10.864-33.643z" fill="#857e87"/><path d="m486.13 430.64c-10.43 14.46-27.43 23.86-46.63 23.86-31.76 0-57.5-25.74-57.5-57.5 0-19.2 9.41-36.21 23.87-46.64-6.84 9.46-10.87 21.08-10.87 33.64 0 31.76 25.74 57.5 57.5 57.5 12.56 0 24.18-4.02 33.63-10.86z" fill="#6f6571"/><circle cx="439.5" cy="397" fill="#f8f7f7" r="27.5"/></g><path d="m61.358 109.637-5.469-28.113c-3.125-16.062-18.543-26.657-34.657-23.815l-4.452.785-1.563 1.26c-6.546 1.154-10.906 7.409-9.725 13.95l24.522 123.826 83.78-.22-.661-6.275c0-.433 2.861-6.083 2.849-6.514-.497-17.906-11.264-33.985-27.731-41.23-13.938-6.133-23.985-18.707-26.893-33.654z" fill="#857e87"/><path d="m115.982 184.521.018 14.979-42.28 7.24-46.72-7.24-22.85-126.54c-1.19-6.54 3.18-12.8 9.72-13.95l2.909-.516 21.86 121.072c.516 2.856 3.002 4.934 5.905 4.934z" fill="#6f6571"/><path d="m207 129.5h-113c-.678 0-1.346.045-2.001.132 0 0-11.371 9.127-11.371 16.732v6.771c0 2.761 2.239 5 5 5l129.67-.128c2.761 0 5-2.239 5-5l1.702-6.507v-2c0-8.284-6.716-15-15-15z" fill="#6f6571"/><path d="m222 146.5v8c0 2.761-2.239 5-5 5h-133c-2.761 0-5-2.239-5-5v-10c0-7.6 5.659-13.898 12.999-14.868l.001 9.868c0 3.866 3.134 7 7 7z" fill="#635a63"/><path d="m220.968 246.741-177.908-3.028c-6.627 0-12-5.373-12-12l-4.06-32.213h177c16.569 0 30 13.431 30 30v4l-1.032 1.241c0 6.627-5.373 12-12 12z" fill="#857e87"/><path d="m234 233.5v3c0 6.627-5.373 12-12 12h-183c-6.627 0-12-5.373-12-12v-37l8.05-4.255 6.95 4.255v22c0 6.627 5.373 12 12 12z" fill="#6f6571"/></g></svg>