<svg id="Capa_1" enable-background="new 0 0 497 497" height="512" viewBox="0 0 497 497" width="512" xmlns="http://www.w3.org/2000/svg"><g><path d="m435.665 283.879c-7.3 65.66-35.606 131.984-79.486 176.854l-9.769 2.22-18.412-25.892c-11.87-12.35-13.14-31.53-2.81-45.19 28.79-38.09 43.659-83.848 44.009-135.088l37.608-5.004c17.25-.01 30.77 14.96 28.86 32.1z" fill="#f8f7f7"/><path d="m432.086 53.834 24.304-13.458c6.399-3.695 14.582-1.502 18.276 4.897l2.254 1.84 11.438 19.811c3.695 6.399 1.502 14.582-4.897 18.276l-10.143 5.809-8.093.394-6.613 8.029z" fill="#7bb1ff"/><path d="m476.92 47.113-1.94-3.36c-3.7-6.4-11.88-8.59-18.28-4.9l-25 14.32 26.91 46.26 14.708-8.424c-4.703-9.605-9.843-19.02-15.4-28.24-1.16-1.925-.53-4.423 1.418-5.543z" fill="#62a5f4"/><path d="m171.012 13.792c-93.343 0-169.012 67.669-169.012 161.011v33.331c0 28.987 23.499 52.486 52.486 52.486 32.312 0 58.507 26.194 58.507 58.507v65.007l37.004 3v-65.007c0-53.854-43.657-97.511-97.511-97.511-7.446 0-13.482-6.036-13.482-13.482v-33.331c0-71.801 58.206-130.007 130.007-130.007 45.005 0 88.273 13.863 124.493 39.494 7.949 5.625 15.559 11.818 22.773 18.554l28.623-23.506c-47.335-44.203-109.089-68.546-173.888-68.546z" fill="#f8f7f7"/><path d="m342.9 77.343-10.87 11.63-12.11-10.47c-42.54-34.75-95.54-53.71-150.91-53.71-84.37 0-153.01 68.64-153.01 153.01v33.33c0 20.12 16.37 36.49 36.49 36.49 41.08 0 74.5 33.42 74.5 74.5v65.01h-16v-65.01c0-16.15-6.55-30.78-17.13-41.37-10.59-10.58-25.22-17.13-41.37-17.13-28.99 0-52.49-23.5-52.49-52.49v-33.33c0-93.34 75.67-169.01 169.01-169.01 64.8 0 126.56 24.34 173.89 68.55z" fill="#e8e8e8"/><path d="m497 255.163c0 78.47-24.92 153.11-71.02 214.88-6.713 8.996-16.028 14.707-26.019 17.005 0 0-15.993-1.58-22.92-3.305-7.88-1.963-13.638-4.855-19.761-11.229l-9.468-10.459 2.998-3.571c43.88-44.87 73.29-103.95 80.59-169.61 1.91-17.14-11.61-32.11-28.86-32.1l-18.01.005-15.911-2.687c.01-.54.01-1.08.01-1.62 0-66.18-23.457-123.649-68.377-165.609l6.978-11.738 45.809-40.601c22.27-19.73 56.76-16.24 74.4 7.72 45.161 61.389 69.561 135.279 69.561 212.919z" fill="#7bb1ff"/><path d="m334.54 404.273c-5 6.6-4.4 15.8 1.42 21.85l23.86 22.72c-2.93 3.28 1.19 9.521-1.88 12.661l-11.53 1.449-23.42-24.35c-11.87-12.35-13.14-31.53-2.81-45.19 28.79-38.09 46-85.39 46.35-136.63l9.135-5.004 8.865 5.004v.21c-.39 53.59-17.67 104.51-49.99 147.28z" fill="#e8e8e8"/><path d="m199.995 404.294c0-38.384-31.116-69.5-69.5-69.5-16.672 0-31.972 5.87-43.947 15.656 0 0-7.962 9.164-11.502 14.049-8.296 11.447-10.5 24.576-10.5 39.795 0 38.384 27.566 66.457 65.95 66.457 16.848 0 31.946-4.009 43.977-13.982 4.804-3.983 12.999-12.666 12.999-12.666 7.892-11.274 12.523-25.001 12.523-39.809z" fill="#e8e8e8"/><path d="m187.47 444.103c-12.56 17.95-33.4 29.69-56.97 29.69-38.39 0-69.5-31.11-69.5-69.5 0-21.71 9.96-41.1 25.55-53.84-7.91 11.28-12.55 25.02-12.55 39.84 0 38.39 31.11 69.5 69.5 69.5 16.68 0 31.99-5.88 43.97-15.69z" fill="#d8d8d8"/><circle cx="130.495" cy="404.294" fill="#f8f7f7" r="37.423"/><g><path d="m130.515 411.795c-4.142 0-7.505-3.358-7.505-7.5s3.354-7.5 7.495-7.5h.01c4.143 0 7.5 3.358 7.5 7.5s-3.358 7.5-7.5 7.5z" fill="#e8e8e8"/></g><circle cx="390.312" cy="104.837" fill="#62a5f4" r="16.724"/><circle cx="425.53" cy="190.916" fill="#62a5f4" r="16.724"/><g fill="#e8e8e8"><path d="m394.02 302.293h-.01c-4.142 0-7.495 3.358-7.495 7.5s3.363 7.5 7.505 7.5c4.143 0 7.5-3.358 7.5-7.5s-3.358-7.5-7.5-7.5z"/><path d="m385.52 331.793h-.01c-4.142 0-7.495 3.358-7.495 7.5s3.363 7.5 7.505 7.5c4.143 0 7.5-3.358 7.5-7.5s-3.358-7.5-7.5-7.5z"/><path d="m374.52 359.793h-.01c-4.142 0-7.495 3.358-7.495 7.5s3.363 7.5 7.505 7.5c4.143 0 7.5-3.358 7.5-7.5s-3.358-7.5-7.5-7.5z"/><path d="m359.52 386.793h-.01c-4.142 0-7.495 3.358-7.495 7.5s3.363 7.5 7.505 7.5c4.143 0 7.5-3.358 7.5-7.5s-3.358-7.5-7.5-7.5z"/></g><g fill="#62a5f4"><path d="m399.961 487.048c-14.78 3.41-31.051-.675-42.561-12.655l-10.99-11.44 4.4-4.47c3.07-3.14 6.08-6.36 9.01-9.64z"/><path d="m384.54 255.163c0 .54 0 1.08-.01 1.62h-18c.01-.54.01-1.08.01-1.62 0-66.18-28.12-125.91-73.04-167.87l13.73-12.17 12.42 13.05c41.45 45.45 64.89 105.27 64.89 166.99z"/></g></g></svg>