<svg id="Capa_1" enable-background="new 0 0 497 497" height="512" viewBox="0 0 497 497" width="512" xmlns="http://www.w3.org/2000/svg"><g><g><path d="m164.25 497h-74c-15.888-15.888 16.57-42.968 37-42.968s51.774 28.194 37 42.968z" fill="#edc258"/><path d="m41.61 166-1.156 319.206c0 5.52 4.48 10 10 10l36.881-1.596c0-20.43 19.485-36.495 39.915-36.495s39.846 17.387 39.846 37.816l37.596-.22c5.52 0 10-4.48 10-10l2.558-3.711v-315l-97.93-9.436z" fill="#ffe07d"/><path d="m217.25 481v6c0 5.523-4.477 10-10 10h-43c0-20.43-16.57-37-37-37s-37 16.57-37 37h-43c-5.523 0-10-4.477-10-10v-321l8.58-7 7.42 7v305c0 5.523 4.477 10 10 10h10.632c1.665 0 3.15-1.034 3.735-2.592 7.547-20.082 26.948-34.408 49.633-34.408s42.086 14.326 49.632 34.408c.586 1.558 2.071 2.592 3.735 2.592z" fill="#ffd064"/><path d="m187.75 257v149c0 8.28-6.72 15-15 15h-90c-8.28 0-15-6.72-15-15v-149c0-8.28 6.72-15 15-15h90c8.28 0 15 6.72 15 15z" fill="#f8f7f7"/><path d="m223.628 163.61-194.608-.844c-5.523 0-10-4.477-10-10v-51.193c0-5.523 4.477-10 10-10l2.23-1.573h10.36l6.947 3.977 8.053-3.977h16.35l7.695 3.977 7.305-3.977h16.36l7.695 3.977 7.305-3.977h16.36l7.695 3.977 7.305-3.977h16.36l7.695 3.977 7.305-3.977h16.35l6.553 3.977 8.447-3.977h13.86c5.523 0 10 4.477 10 10v52l-3.622 1.61c0 5.523-4.477 10-10 10z" fill="#f8f7f7"/><path d="m31.25 142v-52h-4c-5.523 0-10 4.477-10 10v56c0 5.523 4.477 10 10 10h14.36l7.5-5.142 7.5 5.142h16.35l8.76-5.142 6.24 5.142h16.36l7.5-5.142 7.5 5.142h16.36l7.5-5.142 7.5 5.142h16.36l7.5-5.142 7.5 5.142h16.35l7.5-5.142 7.5 5.142h13.86c5.523 0 10-4.477 10-10v-4h-196c-5.523 0-10-4.477-10-10z" fill="#e8e8e8"/><g><path d="m229.48 191c0 4.14-3.36 7.5-7.5 7.5h-190.46c-4.14 0-7.5-3.36-7.5-7.5s3.36-7.5 7.5-7.5h190.46c4.14 0 7.5 3.36 7.5 7.5z" fill="#ffd064"/></g><g><path d="m53.25 183.5v15h-21.73c-4.14 0-7.5-3.36-7.5-7.5s3.36-7.5 7.5-7.5z" fill="#edc258"/></g><g><g><path d="m41.61 90h15v73.61h-15z" fill="#e8e8e8"/></g><g><path d="m72.96 90h15v73.61h-15z" fill="#e8e8e8"/></g><g><path d="m104.32 90h15v73.61h-15z" fill="#e8e8e8"/></g><g><path d="m135.68 90h15v73.61h-15z" fill="#e8e8e8"/></g><g><path d="m167.04 90h15v73.61h-15z" fill="#e8e8e8"/></g><g><path d="m198.39 90h15v73.61h-15z" fill="#e8e8e8"/></g></g><g><g><path d="m41.61 152h15v14h-15z" fill="#d8d8d8"/></g><g><path d="m72.96 152h15v14h-15z" fill="#d8d8d8"/></g><g><path d="m104.32 152h15v14h-15z" fill="#d8d8d8"/></g><g><path d="m135.68 152h15v14h-15z" fill="#d8d8d8"/></g><g><path d="m167.04 152h15v14h-15z" fill="#d8d8d8"/></g><g><path d="m198.39 152h15v14h-15z" fill="#d8d8d8"/></g></g><g><g><path d="m157.75 279.5h-60c-4.142 0-7.5-3.358-7.5-7.5s3.358-7.5 7.5-7.5h60c4.142 0 7.5 3.358 7.5 7.5s-3.358 7.5-7.5 7.5z" fill="#ffe07d"/></g><g><path d="m157.75 309.5h-60c-4.142 0-7.5-3.358-7.5-7.5s3.358-7.5 7.5-7.5h60c4.142 0 7.5 3.358 7.5 7.5s-3.358 7.5-7.5 7.5z" fill="#ffe07d"/></g><g><path d="m157.75 339.5h-60c-4.142 0-7.5-3.358-7.5-7.5s3.358-7.5 7.5-7.5h60c4.142 0 7.5 3.358 7.5 7.5s-3.358 7.5-7.5 7.5z" fill="#ffe07d"/></g><g><path d="m137.75 399.5h-20c-4.142 0-7.5-3.358-7.5-7.5s3.358-7.5 7.5-7.5h20c4.142 0 7.5 3.358 7.5 7.5s-3.358 7.5-7.5 7.5z" fill="#ffe07d"/></g></g></g><g><path d="m406.75 497h-74c-15.888-15.888 16.57-42.968 37-42.968s51.774 28.194 37 42.968z" fill="#edc258"/><path d="m284.11 76-1.156 409.206c0 5.52 4.48 10 10 10l36.881-1.596c0-20.43 19.485-36.495 39.915-36.495s39.846 17.387 39.846 37.816l37.596-.22c5.52 0 10-4.48 10-10l2.558-3.711v-405l-97.93-9.436z" fill="#ffe07d"/><path d="m459.75 481v6c0 5.523-4.477 10-10 10h-43c0-20.43-16.57-37-37-37s-37 16.57-37 37h-43c-5.523 0-10-4.477-10-10v-411l8.58-7 7.42 7v395c0 5.523 4.477 10 10 10h10.632c1.665 0 3.15-1.034 3.735-2.592 7.547-20.082 26.948-34.408 49.633-34.408s42.086 14.326 49.632 34.408c.586 1.558 2.071 2.592 3.735 2.592z" fill="#ffd064"/><path d="m430.25 167v239c0 8.28-6.72 15-15 15h-90c-8.28 0-15-6.72-15-15v-239c0-8.28 6.72-15 15-15h90c8.28 0 15 6.72 15 15z" fill="#f8f7f7"/><path d="m466.128 73.61-194.608-.844c-5.523 0-10-4.477-10-10v-51.193c0-5.523 4.477-10 10-10l2.23-1.573h10.36l6.947 3.977 8.053-3.977h16.35l7.695 3.977 7.305-3.977h16.36l7.695 3.977 7.305-3.977h16.36l7.695 3.977 7.305-3.977h16.36l7.695 3.977 7.305-3.977h16.35l6.553 3.977 8.447-3.977h13.86c5.523 0 10 4.477 10 10v52l-3.622 1.61c0 5.523-4.477 10-10 10z" fill="#f8f7f7"/><path d="m273.75 52v-52h-4c-5.523 0-10 4.477-10 10v56c0 5.523 4.477 10 10 10h14.36l7.5-5.142 7.5 5.142h16.35l8.76-5.142 6.24 5.142h16.36l7.5-5.142 7.5 5.142h16.36l7.5-5.142 7.5 5.142h16.36l7.5-5.142 7.5 5.142h16.35l7.5-5.142 7.5 5.142h13.86c5.523 0 10-4.477 10-10v-4h-196c-5.523 0-10-4.477-10-10z" fill="#e8e8e8"/><g><path d="m471.98 101c0 4.14-3.36 7.5-7.5 7.5h-190.46c-4.14 0-7.5-3.36-7.5-7.5s3.36-7.5 7.5-7.5h190.46c4.14 0 7.5 3.36 7.5 7.5z" fill="#ffd064"/></g><g><path d="m295.75 93.5v15h-21.73c-4.14 0-7.5-3.36-7.5-7.5s3.36-7.5 7.5-7.5z" fill="#edc258"/></g><g><g><path d="m284.11 0h15v73.61h-15z" fill="#e8e8e8"/></g><g><path d="m315.46 0h15v73.61h-15z" fill="#e8e8e8"/></g><g><path d="m346.82 0h15v73.61h-15z" fill="#e8e8e8"/></g><g><path d="m378.18 0h15v73.61h-15z" fill="#e8e8e8"/></g><g><path d="m409.54 0h15v73.61h-15z" fill="#e8e8e8"/></g><g><path d="m440.89 0h15v73.61h-15z" fill="#e8e8e8"/></g></g><g><g><path d="m284.11 62h15v14h-15z" fill="#d8d8d8"/></g><g><path d="m315.46 62h15v14h-15z" fill="#d8d8d8"/></g><g><path d="m346.82 62h15v14h-15z" fill="#d8d8d8"/></g><g><path d="m378.18 62h15v14h-15z" fill="#d8d8d8"/></g><g><path d="m409.54 62h15v14h-15z" fill="#d8d8d8"/></g><g><path d="m440.89 62h15v14h-15z" fill="#d8d8d8"/></g></g><g><g><path d="m385.25 189.5h-30c-4.142 0-7.5-3.358-7.5-7.5s3.358-7.5 7.5-7.5h30c4.142 0 7.5 3.358 7.5 7.5s-3.358 7.5-7.5 7.5z" fill="#ffe07d"/></g><g><path d="m400.25 219.5h-60c-4.142 0-7.5-3.358-7.5-7.5s3.358-7.5 7.5-7.5h60c4.142 0 7.5 3.358 7.5 7.5s-3.358 7.5-7.5 7.5z" fill="#ffe07d"/></g><g><path d="m400.25 249.5h-60c-4.142 0-7.5-3.358-7.5-7.5s3.358-7.5 7.5-7.5h60c4.142 0 7.5 3.358 7.5 7.5s-3.358 7.5-7.5 7.5z" fill="#ffe07d"/></g><g><path d="m400.25 279.5h-60c-4.142 0-7.5-3.358-7.5-7.5s3.358-7.5 7.5-7.5h60c4.142 0 7.5 3.358 7.5 7.5s-3.358 7.5-7.5 7.5z" fill="#ffe07d"/></g><g><path d="m369.25 309.5h-29c-4.142 0-7.5-3.358-7.5-7.5s3.358-7.5 7.5-7.5h29c4.142 0 7.5 3.358 7.5 7.5s-3.358 7.5-7.5 7.5z" fill="#ffe07d"/></g><g><path d="m380.25 399.5h-20c-4.142 0-7.5-3.358-7.5-7.5s3.358-7.5 7.5-7.5h20c4.142 0 7.5 3.358 7.5 7.5s-3.358 7.5-7.5 7.5z" fill="#ffe07d"/></g><g><path d="m400.25 369.5h-60c-4.142 0-7.5-3.358-7.5-7.5s3.358-7.5 7.5-7.5h60c4.142 0 7.5 3.358 7.5 7.5s-3.358 7.5-7.5 7.5z" fill="#ffe07d"/></g></g></g></g></svg>