<svg id="Capa_1" enable-background="new 0 0 512 512" height="512" viewBox="0 0 512 512" width="512" xmlns="http://www.w3.org/2000/svg"><g><path d="m117.147 101.472h277.431v337.055h-277.431z" fill="#f8f7f7"/><g><g><path d="m414.615 224.972h-318.615c-4.142 0-7.5-3.358-7.5-7.5s3.358-7.5 7.5-7.5h318.615c4.142 0 7.5 3.358 7.5 7.5s-3.358 7.5-7.5 7.5z" fill="#e8e8e8"/></g><g><path d="m414.615 288.972h-318.615c-4.142 0-7.5-3.358-7.5-7.5s3.358-7.5 7.5-7.5h318.615c4.142 0 7.5 3.358 7.5 7.5s-3.358 7.5-7.5 7.5z" fill="#e8e8e8"/></g><g><path d="m414.615 352.972h-318.615c-4.142 0-7.5-3.358-7.5-7.5s3.358-7.5 7.5-7.5h318.615c4.142 0 7.5 3.358 7.5 7.5s-3.358 7.5-7.5 7.5z" fill="#e8e8e8"/></g><g><path d="m414.615 416.972h-318.615c-4.142 0-7.5-3.358-7.5-7.5s3.358-7.5 7.5-7.5h318.615c4.142 0 7.5 3.358 7.5 7.5s-3.358 7.5-7.5 7.5z" fill="#e8e8e8"/></g></g><path d="m117.15 425.532h277.43v16.422h-277.43z" fill="#e8e8e8"/><g><path d="m307.5 445.697-3.528-9.908 3.528-10.257v-279.284h-97.876v299.449z" fill="#c38c66"/></g><g><path d="m307.5 425.532v20.16h-103v-299.44h13v273.28c0 3.314 2.686 6 6 6z" fill="#b57f5f"/></g><g><path d="m269.167 179.275h-26.333c-1.105 0-2 .895-2 2v36.197h30.333v-36.197c0-1.104-.896-2-2-2z" fill="#f8f7f7"/><path d="m275.128 224.972h-38.257c-4.142 0-7.5-3.358-7.5-7.5s3.358-7.5 7.5-7.5h38.257c4.142 0 7.5 3.358 7.5 7.5s-3.357 7.5-7.5 7.5z" fill="#b57f5f"/><path d="m269.167 243.349h-26.333c-1.105 0-2 .895-2 2v36.197h30.333v-36.197c0-1.105-.896-2-2-2z" fill="#f8f7f7"/><g><path d="m275.128 289.046h-38.257c-4.142 0-7.5-3.358-7.5-7.5s3.358-7.5 7.5-7.5h38.257c4.142 0 7.5 3.358 7.5 7.5s-3.357 7.5-7.5 7.5z" fill="#b57f5f"/></g><path d="m269.167 307.422h-26.333c-1.105 0-2 .895-2 2v36.197l13.598 3.968 16.735-3.968v-36.197c0-1.105-.896-2-2-2z" fill="#f8f7f7"/></g><path d="m386.873 438.472 1.092-285 51.09-7.224 48.445 7.224v272.74l-4.845 13.26z" fill="#c38c66"/><path d="m487.5 426.212v13.26h-103v-286l8.096-4.142 4.904 4.142v266.068c0 3.295 2.657 5.973 5.952 6z" fill="#b57f5f"/><g><path d="m26.873 438.472 1.092-285 51.09-7.224 48.445 7.224v272.74l-4.845 13.26z" fill="#c38c66"/><path d="m127.5 425.532v13.94l-103-1v-285l8.096-4.142 4.904 4.142v265.388c0 3.295 2.657 5.973 5.952 6z" fill="#b57f5f"/></g><g><path d="m449.167 179.275h-26.333c-1.105 0-2 .895-2 2v36.197h30.333v-36.197c0-1.104-.896-2-2-2z" fill="#f8f7f7"/><path d="m455.128 224.972h-38.257c-4.142 0-7.5-3.358-7.5-7.5s3.358-7.5 7.5-7.5h38.257c4.142 0 7.5 3.358 7.5 7.5s-3.357 7.5-7.5 7.5z" fill="#b57f5f"/><path d="m449.167 243.349h-26.333c-1.105 0-2 .895-2 2v36.197h30.333v-36.197c0-1.105-.896-2-2-2z" fill="#f8f7f7"/><g><path d="m455.128 289.046h-38.257c-4.142 0-7.5-3.358-7.5-7.5s3.358-7.5 7.5-7.5h38.257c4.142 0 7.5 3.358 7.5 7.5s-3.357 7.5-7.5 7.5z" fill="#b57f5f"/></g><path d="m449.167 307.422h-26.333c-1.105 0-2 .895-2 2v36.197h30.333v-36.197c0-1.105-.896-2-2-2z" fill="#f8f7f7"/><g><path d="m455.128 353.119h-38.257c-4.142 0-7.5-3.358-7.5-7.5s3.358-7.5 7.5-7.5h38.257c4.142 0 7.5 3.358 7.5 7.5s-3.357 7.5-7.5 7.5z" fill="#b57f5f"/></g><path d="m449.167 371.495h-26.333c-1.105 0-2 .895-2 2v36.197h30.333v-36.197c0-1.104-.896-2-2-2z" fill="#f8f7f7"/><g><path d="m455.128 417.193h-38.257c-4.142 0-7.5-3.358-7.5-7.5s3.358-7.5 7.5-7.5h38.257c4.142 0 7.5 3.358 7.5 7.5s-3.357 7.5-7.5 7.5z" fill="#b57f5f"/></g></g><path d="m273.5 405.472h-35c-2.209 0-4 1.791-4 4v30h43v-30c0-2.209-1.791-4-4-4z" fill="#f8f7f7"/><path d="m234.5 425.532h43v13.94h-43z" fill="#e8e8e8"/><g><path d="m89.167 179.275h-26.334c-1.105 0-2 .895-2 2v36.197h30.333v-36.197c.001-1.104-.895-2-1.999-2z" fill="#f8f7f7"/><path d="m95.128 224.972h-38.256c-4.142 0-7.5-3.358-7.5-7.5s3.358-7.5 7.5-7.5h38.257c4.142 0 7.5 3.358 7.5 7.5s-3.358 7.5-7.501 7.5z" fill="#b57f5f"/><path d="m89.167 243.349h-26.334c-1.105 0-2 .895-2 2v36.197h30.333v-36.197c.001-1.105-.895-2-1.999-2z" fill="#f8f7f7"/><g><path d="m95.128 289.046h-38.256c-4.142 0-7.5-3.358-7.5-7.5s3.358-7.5 7.5-7.5h38.257c4.142 0 7.5 3.358 7.5 7.5s-3.358 7.5-7.501 7.5z" fill="#b57f5f"/></g><path d="m89.167 307.422h-26.334c-1.105 0-2 .895-2 2v36.197h30.333v-36.197c.001-1.105-.895-2-1.999-2z" fill="#f8f7f7"/><g><path d="m95.128 353.119h-38.256c-4.142 0-7.5-3.358-7.5-7.5s3.358-7.5 7.5-7.5h38.257c4.142 0 7.5 3.358 7.5 7.5s-3.358 7.5-7.501 7.5z" fill="#b57f5f"/></g><path d="m89.167 371.495h-26.334c-1.105 0-2 .895-2 2v36.197h30.333v-36.197c.001-1.104-.895-2-1.999-2z" fill="#f8f7f7"/><g><path d="m95.128 417.193h-38.256c-4.142 0-7.5-3.358-7.5-7.5s3.358-7.5 7.5-7.5h38.257c4.142 0 7.5 3.358 7.5 7.5s-3.358 7.5-7.501 7.5z" fill="#b57f5f"/></g></g><g><g><path d="m174.5 190.972h-17c-4.142 0-7.5-3.358-7.5-7.5s3.358-7.5 7.5-7.5h17c4.142 0 7.5 3.358 7.5 7.5s-3.358 7.5-7.5 7.5z" fill="#e8e8e8"/></g><g><path d="m354.5 190.972h-17c-4.142 0-7.5-3.358-7.5-7.5s3.358-7.5 7.5-7.5h17c4.142 0 7.5 3.358 7.5 7.5s-3.358 7.5-7.5 7.5z" fill="#e8e8e8"/></g><g><path d="m174.5 254.972h-17c-4.142 0-7.5-3.358-7.5-7.5s3.358-7.5 7.5-7.5h17c4.142 0 7.5 3.358 7.5 7.5s-3.358 7.5-7.5 7.5z" fill="#e8e8e8"/></g><g><path d="m354.5 254.972h-17c-4.142 0-7.5-3.358-7.5-7.5s3.358-7.5 7.5-7.5h17c4.142 0 7.5 3.358 7.5 7.5s-3.358 7.5-7.5 7.5z" fill="#e8e8e8"/></g><g><path d="m174.5 318.972h-17c-4.142 0-7.5-3.358-7.5-7.5s3.358-7.5 7.5-7.5h17c4.142 0 7.5 3.358 7.5 7.5s-3.358 7.5-7.5 7.5z" fill="#e8e8e8"/></g><g><path d="m354.5 318.972h-17c-4.142 0-7.5-3.358-7.5-7.5s3.358-7.5 7.5-7.5h17c4.142 0 7.5 3.358 7.5 7.5s-3.358 7.5-7.5 7.5z" fill="#e8e8e8"/></g></g><g><path d="m504.5 453.528h-497c-4.142 0-7.5-3.358-7.5-7.5s3.358-7.5 7.5-7.5h497c4.142 0 7.5 3.358 7.5 7.5s-3.358 7.5-7.5 7.5z" fill="#afefa5"/></g><path d="m123 83.472h266v30h-266z" fill="#e8e8e8"/><g><path d="m131.799 58.472h-100.219l-10.422 1.314c-1.535 0-2.823 1.159-2.984 2.686l-6.672 84.81c-.186 1.771 1.202 3.314 2.984 3.314l124.927 1.651c1.781 0 3.17-1.543 2.984-3.314l.63-9.462-8.244-78.313c-.161-1.526-1.449-2.686-2.984-2.686z" fill="#b57f5f"/><path d="m144.15 150.162c.19 1.77-1.2 3.31-2.98 3.31h-130.34c-1.78 0-3.17-1.54-2.98-3.31l9.37-89c.16-1.53 1.45-2.69 2.98-2.69h11.38l-7.716 73.267c-.435 4.133 2.805 7.733 6.962 7.733l112.2-.001z" fill="#9f6e50"/></g><g><path d="m311.799 58.472h-100.219l-10.422 1.314c-1.535 0-2.823 1.159-2.984 2.686l-6.672 84.81c-.186 1.771 1.202 3.314 2.984 3.314l124.927 1.651c1.781 0 3.17-1.543 2.984-3.314l.63-9.462-8.243-78.313c-.162-1.526-1.449-2.686-2.985-2.686z" fill="#b57f5f"/><path d="m324.15 150.162c.19 1.77-1.2 3.31-2.98 3.31h-130.34c-1.78 0-3.17-1.54-2.98-3.31l9.37-89c.16-1.53 1.45-2.69 2.98-2.69h11.38l-7.716 73.267c-.435 4.133 2.805 7.733 6.962 7.733l112.2-.001z" fill="#9f6e50"/></g><g><path d="m491.799 58.472h-100.219l-10.422 1.314c-1.535 0-2.823 1.159-2.984 2.686l-6.672 84.81c-.186 1.771 1.202 3.314 2.984 3.314l124.927 1.651c1.781 0 3.17-1.543 2.984-3.314l.63-9.462-8.243-78.313c-.162-1.526-1.449-2.686-2.985-2.686z" fill="#b57f5f"/><path d="m504.15 150.162c.19 1.77-1.2 3.31-2.98 3.31h-130.34c-1.78 0-3.17-1.54-2.98-3.31l9.37-89c.16-1.53 1.45-2.69 2.98-2.69h11.38l-7.716 73.267c-.435 4.133 2.805 7.733 6.962 7.733l112.2-.001z" fill="#9f6e50"/></g><g fill="#f8f7f7"><g><path d="m231 88.472c-6.904 0-12.5 5.596-12.5 12.5v20.5c0 1.105.895 2 2 2h21c1.105 0 2-.895 2-2v-20.5c0-6.903-5.596-12.5-12.5-12.5z"/><path d="m281 88.472c-6.904 0-12.5 5.596-12.5 12.5v20.5c0 1.105.895 2 2 2h21c1.105 0 2-.895 2-2v-20.5c0-6.903-5.596-12.5-12.5-12.5z"/></g><g><path d="m411 88.472c-6.904 0-12.5 5.596-12.5 12.5v20.5c0 1.105.895 2 2 2h21c1.105 0 2-.895 2-2v-20.5c0-6.903-5.596-12.5-12.5-12.5z"/><path d="m461 88.472c-6.904 0-12.5 5.596-12.5 12.5v20.5c0 1.105.895 2 2 2h21c1.105 0 2-.895 2-2v-20.5c0-6.903-5.596-12.5-12.5-12.5z"/></g><g><path d="m51 88.472c-6.904 0-12.5 5.596-12.5 12.5v20.5c0 1.105.895 2 2 2h21c1.105 0 2-.895 2-2v-20.5c0-6.903-5.596-12.5-12.5-12.5z"/><path d="m101 88.472c-6.904 0-12.5 5.596-12.5 12.5v20.5c0 1.105.895 2 2 2h21c1.105 0 2-.895 2-2v-20.5c0-6.903-5.596-12.5-12.5-12.5z"/></g></g><path d="m325.422 374.376-138.972-.018c-1.105 0-2-.895-2-2l-.092-22.716c0-1.105.895-2 2-2l10.142-2.17h130c1.105 0 2 .895 2 2v15l-1.078 9.904c0 1.105-.895 2-2 2z" fill="#b57f5f"/><path d="m328.5 362.472v11c0 1.1-.9 2-2 2h-141c-1.1 0-2-.9-2-2v-26c0-1.1.9-2 2-2h11v11c0 3.314 2.686 6 6 6z" fill="#9f6e50"/></g></svg>