<svg id="Capa_1" enable-background="new 0 0 497 497" height="512" viewBox="0 0 497 497" width="512" xmlns="http://www.w3.org/2000/svg"><g><path d="m205.5 378-4.851-4h-159.83l-4.319 4c0 11.795-6.161 22.734-16.249 28.848l-1.344.815c-1.195.724-2.332 1.52-3.407 2.38l-9 20.394c0 17.664 14.32 33.563 31.984 33.563h165.031c11.423 0 24.443-2.99 30.101-11.998 3.092-4.922 4.883-10.745 4.883-16.987 0-11.184-5.842-21.556-15.407-27.353l-1.344-.815c-10.087-6.113-16.248-17.052-16.248-28.847z" fill="#f8f7f7"/><path d="m15.5 422v-11.958c-7.527 6.022-12 15.186-12 24.973 0 17.665 14.32 31.985 31.984 31.985l4.313 4h161.363l5.356-4c11.422 0 21.443-5.99 27.101-14.998l-188.117-.002c-16.569 0-30-13.431-30-30z" fill="#e8e8e8"/><path d="m45.025 347.98c26.253-21.509 39.475-53.658 39.475-87.597v-24.383h79v23.573c0 27.141 9.737 53.119 27.038 73.429 0 0 5.793 10.462 11.462 14.997z" fill="#f8f7f7"/><path d="m206 348.008c-5.669-4.535-10.835-9.573-15.462-15.005l-103.84-.003c-7.637 0-12.449-8.211-8.72-14.876 9.665-17.278 14.522-37.18 14.522-57.741v-23.383h-15v23.427c0 33.926-15.223 66.062-41.475 87.553l-.025.027 4.138 1.993 161.862.048z" fill="#e8e8e8"/><path d="m186 118c-10.785 13.323-16.768 29.88-16.997 47-.005.339-2.003.679-2.003 1.018v13.982h-92v-15.239c0-16.711-5.485-32.959-15.612-46.251l-.388-.51 3.943-3.168 117.28.168z" fill="#f8f7f7"/><path d="m96.416 165c-5.052 0-9.343-3.764-9.921-8.783-1.569-13.63-6.762-26.754-15.107-37.708l-.388-.509-7.202-3.011-7.813 3.004.405.518c10.126 13.293 15.61 29.54 15.61 46.25v18.239h97l.003-18z" fill="#e8e8e8"/><path d="m121 51c-5.604 0-11.088.814-16.313 2.35 0 0-22.506 8.916-31.593 28l-3.594 6.65h103l-3.595-6.65c-1.604-2.967-.447-5.757-2.495-8.351-10.859-13.751-27.529-21.999-45.41-21.999z" fill="#f8f7f7"/><path d="m166.41 72.999-55.387.001c-10.362 0-14.893-13.241-6.598-19.452.088-.066.174-.134.263-.199-14.591 4.289-27.151 14.233-34.593 28l-3.595 6.651 3.255 2 101.959.072 3.786-2.072-3.595-6.65c-1.604-2.968-3.446-5.757-5.495-8.351z" fill="#e8e8e8"/><path d="m146.5 25.5c0 4.207-1.022 8.174-2.826 11.672 0 0-7.961 11.828-22.674 11.828-14.083 0-23.5-9.417-23.5-23.5 0-15.191 11.828-22.674 11.828-22.674 3.498-1.804 7.465-2.826 11.672-2.826 14.083 0 25.5 11.417 25.5 25.5z" fill="#e8e8e8"/><path d="m132 40c-14.083 0-25.5-11.417-25.5-25.5 0-4.207 1.024-8.176 2.828-11.674-8.211 4.236-13.828 12.798-13.828 22.674 0 14.083 11.417 25.5 25.5 25.5 9.876 0 18.438-5.617 22.674-13.828-3.498 1.804-7.467 2.828-11.674 2.828z" fill="#d8d8d8"/><path d="m229 467h-206l-8 2c-2.761 0-5 2.239-5 5v16c0 2.761 2.239 5 5 5h212c2.761 0 5-2.239 5-5l2-8v-10c0-2.761-2.239-5-5-5z" fill="#f8f7f7"/><path d="m33 482c-5.523 0-10-4.477-10-10v-5h-10c-2.761 0-5 2.239-5 5v20c0 2.761 2.239 5 5 5h216c2.761 0 5-2.239 5-5v-10z" fill="#e8e8e8"/><path d="m205.5 348h-169c-.167 0-.334.002-.5.007-1.571.046-3.088.31-4.5.801-5.831 2.029-7 14.086-7 14.086 0 8.284 3.716 12.105 12 12.105h166c8.284 0 18-3.716 18-12 0-8.117-6.447-14.728-14.5-14.992-.166-.004-.333-.007-.5-.007z" fill="#f8f7f7"/><path d="m31.5 348.808c-5.814 1.992-10 7.597-10 14.086 0 8.401 6.81 15.105 15.211 15.105h168.789c8.284 0 15-6.716 15-15h-174.808c-7.838.001-14.192-6.353-14.192-14.191z" fill="#e8e8e8"/><path d="m186 88h-130c-1.755 0-3.436.312-5.002.866-5.823 2.061-7.998 14.134-7.998 14.134 0 8.284 6.716 13 15 13h125c8.284 0 18-9.947 18-13 0-8.284-6.716-15-15-15z" fill="#f8f7f7"/><path d="m50.998 88.866c-5.9 2.089-10.11 7.755-9.996 14.397.139 8.104 6.923 14.501 14.983 14.73.149.004.298.006.448.006h129.567c8.284 0 15-6.716 15-15h-135.872c-7.803.001-14.13-6.33-14.13-14.133z" fill="#e8e8e8"/><path d="m169.5 180h-97c-1.755 0-3.436.312-5.002.866-5.823 2.061-6.998 10.605-6.998 17.134 0 0 5.716 10 14 10h92c8.284 0 18-8.585 18-13 0-8.284-6.716-15-15-15z" fill="#f8f7f7"/><path d="m67.498 180.866c-5.9 2.089-10.11 7.755-9.996 14.397.142 8.254 7.176 14.737 15.431 14.737l17.418 3 64.499.5 14.65-3.5c8.284 0 15-6.716 15-15h-102.872c-7.803 0-14.13-6.331-14.13-14.134z" fill="#e8e8e8"/><path d="m177.552 210h-113.104c-1.736 0-3.399.304-4.95.848-5.821 2.044-7.998 14.204-7.998 14.204 0 8.255 4.692 12.948 12.948 12.948h108.104c8.255 0 19.948-4.732 19.948-12.987 0-8.255-6.692-15.013-14.948-15.013z" fill="#f8f7f7"/><path d="m73.576 225c-7.774 0-14.078-6.302-14.078-14.076v-.076c-5.82 2.044-9.998 7.581-9.998 14.1v.104c0 8.255 6.692 14.948 14.948 14.948h113.104c8.255 0 14.948-6.732 14.948-14.987z" fill="#e8e8e8"/><g><g><path d="m314.025 367.98c26.253-21.509 41.475-53.658 41.475-87.597v-6.383h63v5.573c0 27.141 9.737 53.119 27.038 73.429 0 0 4.793 10.462 10.462 14.997z" fill="#857e87"/><path d="m445.538 353.003-83.84-.003c-7.637 0-12.449-8.211-8.72-14.876 9.665-17.278 14.522-37.18 14.522-57.741v-6.383h-15v6.427c0 33.926-15.223 66.089-41.475 87.58l3.98 1.988c-.001.001 143.516.569 143.516.569l2.479-2.556c-5.669-4.535-10.835-9.573-15.462-15.005z" fill="#6f6571"/></g><g><path d="m466.197 408.824-5.697-10.824-3.255-4h-143.22l-2.525 4-5.697 10.824c-2.704 5.137-7.033 9.221-12.3 11.638-.159.073-12.004 16.57-12.004 16.57 0 13.343 11.817 26.968 25.16 26.968l158.681 1c10.1 0 22.751-4.199 26.36-12.999 1.159-2.825 1.8-5.918 1.8-9.161 0-9.619-5.706-18.321-14.527-22.156-5.484-2.384-9.991-6.568-12.776-11.86z" fill="#857e87"/><g><path d="m319.112 452c-14.145 0-25.612-11.467-25.612-25.612l.004-5.927c-.144.066-.286.135-.43.201-8.599 3.935-14.574 11.97-14.574 21.426v.752c0 13.343 10.817 24.16 24.16 24.16l4.202 4h157.787l4.691-4c10.1 0 18.75-6.199 22.36-14.999z" fill="#6f6571"/></g></g><g><path d="m441.287 240.787-25.787-25.776-59.322.303-19.678 19.686-5.786 8.787c-3.978 3.978-3.213 6.374-3.213 12 0 11.716 9.497 19.213 21.213 19.213h74.574c9.553 0 20.63-4.316 23.286-12.999.601-1.965.927-4.052.927-6.214-.001-5.626-2.236-11.022-6.214-15z" fill="#857e87"/><path d="m336.5 244.803v-9.804l-5.44 5.441c-3.762 3.762-6.201 8.726-6.52 14.036-.74 12.31 9.024 22.524 21.173 22.524h80.574c9.553 0 17.629-6.316 20.286-14.999l-92.876-.001c-9.498 0-17.197-7.699-17.197-17.197z" fill="#6f6571"/></g><g><path d="m451.5 158.5c0-36.175-29.325-65.5-65.5-65.5-14.772 0-28.401 4.892-39.358 13.142 0 0-24.142 20.167-24.142 52.358 0 36.175 27.325 63.5 63.5 63.5 32.862 0 52.358-24.142 52.358-24.142 8.25-10.957 13.142-24.586 13.142-39.358z" fill="#6f6571"/><path d="m399 211c-36.175 0-65.5-29.325-65.5-65.5 0-14.772 4.892-28.401 13.142-39.358-15.875 11.952-26.142 30.955-26.142 52.358 0 36.175 29.325 65.5 65.5 65.5 21.403 0 40.406-10.267 52.358-26.142-10.957 8.25-24.586 13.142-39.358 13.142z" fill="#635a63"/></g><g><path d="m460.5 368h-149c-.159 0-.317.002-.475.007-1.575.045-3.112.313-4.525.801-5.844 2.022-8 12.086-8 12.086 0 8.284 4.716 15.105 13 15.105h146c8.284 0 18-4.716 18-13 0-8.117-6.447-14.728-14.5-14.992-.166-.004-.333-.007-.5-.007z" fill="#857e87"/><path d="m306.5 368.808c-5.814 1.992-10 7.597-10 14.086 0 8.401 6.81 15.105 15.211 15.105h148.789c8.284 0 15-6.716 15-15h-154.808c-7.838.001-14.192-6.353-14.192-14.191z" fill="#6f6571"/></g><g><path d="m484 467h-186l-8 2c-2.761 0-5 2.239-5 5v16c0 2.761 2.239 5 5 5h192c2.761 0 5-2.239 5-5l2-8v-10c0-2.761-2.239-5-5-5z" fill="#857e87"/><path d="m308 482c-5.523 0-10-4.477-10-10v-5h-10c-2.761 0-5 2.239-5 5v20c0 2.761 2.239 5 5 5h196c2.761 0 5-2.239 5-5v-10z" fill="#6f6571"/></g></g></g></svg>