<svg id="Capa_1" enable-background="new 0 0 497 497" height="512" viewBox="0 0 497 497" width="512" xmlns="http://www.w3.org/2000/svg"><g><g><path d="m420 495h-343c-8.284 0-15-6.716-15-15v-463c0-8.284 4.716-17 13-17h347c8.284 0 15 6.716 15 15v467c0 8.284-8.716 13-17 13z" fill="#857e87"/><path d="m75 0c-8.284 0-15 6.716-15 15v467c0 8.284 6.716 15 15 15h347c8.284 0 15-6.716 15-15h-342c-11.046 0-20-8.954-20-20z" fill="#6f6571"/></g><g><path d="m343.5 342.5c0-52.467-42.533-95-95-95-23.433 0-44.883 8.487-61.448 22.551 0 0-31.552 28.683-31.552 72.449 0 52.467 40.533 93 93 93 44.66 0 72.449-31.552 72.449-31.552 14.064-16.565 22.551-38.015 22.551-61.448z" fill="#6f6571"/><path d="m259.5 426.5c-52.467 0-95-42.533-95-95 0-23.433 8.487-44.883 22.552-61.449-20.525 17.426-33.552 43.415-33.552 72.449 0 52.467 42.533 95 95 95 29.034 0 55.023-13.027 72.449-33.552-16.566 14.065-38.016 22.552-61.449 22.552z" fill="#635a63"/></g><g><path d="m313.5 342.5c0-35.898-29.102-65-65-65-14.634 0-28.137 4.837-39.001 12.998 0 0-23.999 25.172-23.999 52.002 0 35.898 27.101 63 63 63 29.851 0 52.002-23.999 52.002-23.999 8.161-10.864 12.998-24.367 12.998-39.001z" fill="#ff8086"/><path d="m261.5 394.5c-35.898 0-65-29.102-65-65 0-14.634 4.838-28.138 12.999-39.002-15.787 11.859-25.999 30.737-25.999 52.002 0 35.898 29.102 65 65 65 21.265 0 40.143-10.212 52.002-25.999-10.864 8.161-24.368 12.999-39.002 12.999z" fill="#e5646e"/></g><g><path d="m120 45c0-8.284-6.716-15-15-15-1.227 0-2.418.156-3.56.434 0 0-9.44 4.385-9.44 14.566 0 8.284 4.716 13 13 13 11.606 0 14.566-9.44 14.566-9.44.278-1.142.434-2.333.434-3.56z" fill="#6f6571"/><path d="m116 49c-8.284 0-15-6.716-15-15 0-1.228.162-2.424.44-3.566-6.564 1.6-11.44 7.51-11.44 14.566 0 8.284 6.716 15 15 15 7.056 0 12.966-4.876 14.566-11.44-1.142.278-2.338.44-3.566.44z" fill="#635a63"/></g><g><path d="m407 45c0-8.284-6.716-15-15-15-1.227 0-2.418.156-3.56.434 0 0-9.44 4.385-9.44 14.566 0 8.284 4.716 13 13 13 11.606 0 14.566-9.44 14.566-9.44.278-1.142.434-2.333.434-3.56z" fill="#6f6571"/><path d="m403 49c-8.284 0-15-6.716-15-15 0-1.228.162-2.424.44-3.566-6.564 1.6-11.44 7.51-11.44 14.566 0 8.284 6.716 15 15 15 7.056 0 12.966-4.876 14.566-11.44-1.142.278-2.338.44-3.566.44z" fill="#635a63"/></g><g><path d="m120 452c0-8.284-6.716-15-15-15-1.227 0-2.418.156-3.56.434 0 0-9.44 4.385-9.44 14.566 0 8.284 4.716 13 13 13 11.606 0 14.566-9.44 14.566-9.44.278-1.142.434-2.333.434-3.56z" fill="#6f6571"/><path d="m116 456c-8.284 0-15-6.716-15-15 0-1.228.162-2.424.44-3.566-6.564 1.6-11.44 7.51-11.44 14.566 0 8.284 6.716 15 15 15 7.056 0 12.966-4.876 14.566-11.44-1.142.278-2.338.44-3.566.44z" fill="#635a63"/></g><g><path d="m407 452c0-8.284-6.716-15-15-15-1.227 0-2.418.156-3.56.434 0 0-9.44 4.385-9.44 14.566 0 8.284 4.716 13 13 13 11.606 0 14.566-9.44 14.566-9.44.278-1.142.434-2.333.434-3.56z" fill="#6f6571"/><path d="m403 456c-8.284 0-15-6.716-15-15 0-1.228.162-2.424.44-3.566-6.564 1.6-11.44 7.51-11.44 14.566 0 8.284 6.716 15 15 15 7.056 0 12.966-4.876 14.566-11.44-1.142.278-2.338.44-3.566.44z" fill="#635a63"/></g><g><g><path d="m173.5 202c0 1.514-.227 2.976-.644 4.354 0 0-4.611 9.646-14.356 9.646-8.284 0-14-5.716-14-14 0-9.202 9.593-14.339 9.593-14.339 1.409-.438 2.854-.661 4.407-.661 8.284 0 15 6.716 15 15z" fill="#afefa5"/><path d="m168.5 207c-8.284 0-15-6.716-15-15 0-1.515.176-2.961.593-4.339-6.16 1.866-10.593 7.57-10.593 14.339 0 8.284 6.716 15 15 15 6.77 0 12.489-4.486 14.356-10.646-1.379.417-2.841.646-4.356.646z" fill="#8ce1a4"/></g><g><path d="m233.5 202c0 1.514-.227 2.976-.644 4.354 0 0-4.611 9.646-14.356 9.646-8.284 0-14-5.716-14-14 0-9.202 9.593-14.339 9.593-14.339 1.409-.438 2.854-.661 4.407-.661 8.284 0 15 6.716 15 15z" fill="#afefa5"/><path d="m228.5 207c-8.284 0-15-6.716-15-15 0-1.515.176-2.961.593-4.339-6.16 1.866-10.593 7.57-10.593 14.339 0 8.284 6.716 15 15 15 6.77 0 12.489-4.486 14.356-10.646-1.379.417-2.841.646-4.356.646z" fill="#8ce1a4"/></g><g><path d="m293.5 202c0 1.514-.227 2.976-.644 4.354 0 0-4.611 9.646-14.356 9.646-8.284 0-14-5.716-14-14 0-9.202 9.593-14.339 9.593-14.339 1.409-.438 2.854-.661 4.407-.661 8.284 0 15 6.716 15 15z" fill="#ff8086"/><path d="m288.5 207c-8.284 0-15-6.716-15-15 0-1.515.176-2.961.593-4.339-6.16 1.866-10.593 7.57-10.593 14.339 0 8.284 6.716 15 15 15 6.77 0 12.49-4.486 14.356-10.646-1.379.417-2.841.646-4.356.646z" fill="#e5646e"/></g><g><path d="m353.5 202c0 1.514-.227 2.976-.644 4.354 0 0-4.611 9.646-14.356 9.646-8.284 0-14-5.716-14-14 0-9.202 9.593-14.339 9.593-14.339 1.409-.438 2.854-.661 4.407-.661 8.284 0 15 6.716 15 15z" fill="#afefa5"/><path d="m348.5 207c-8.284 0-15-6.716-15-15 0-1.515.176-2.961.593-4.339-6.16 1.866-10.593 7.57-10.593 14.339 0 8.284 6.716 15 15 15 6.77 0 12.49-4.486 14.356-10.646-1.379.417-2.841.646-4.356.646z" fill="#8ce1a4"/></g></g><g fill="#6f6571"><g><path d="m168.5 164.5h-20c-4.143 0-7.5-3.358-7.5-7.5s3.357-7.5 7.5-7.5h20c4.143 0 7.5 3.358 7.5 7.5s-3.357 7.5-7.5 7.5z"/><path d="m228.5 164.5h-20c-4.143 0-7.5-3.358-7.5-7.5s3.357-7.5 7.5-7.5h20c4.143 0 7.5 3.358 7.5 7.5s-3.357 7.5-7.5 7.5z"/><path d="m288.5 164.5h-20c-4.143 0-7.5-3.358-7.5-7.5s3.357-7.5 7.5-7.5h20c4.143 0 7.5 3.358 7.5 7.5s-3.357 7.5-7.5 7.5z"/><path d="m348.5 164.5h-20c-4.143 0-7.5-3.358-7.5-7.5s3.357-7.5 7.5-7.5h20c4.143 0 7.5 3.358 7.5 7.5s-3.357 7.5-7.5 7.5z"/></g><path d="m178.809 123.5c-9.598 0-18.609-3.87-24.725-10.616-2.781-3.069-2.548-7.812.521-10.594 3.07-2.781 7.812-2.549 10.595.521 3.229 3.562 8.316 5.689 13.609 5.689 4.987 0 8.488-2.917 8.992-5.738.665-3.725-5.046-6.14-6.812-6.792-8.549-3.154-16.141-6.533-16.46-6.676-.361-.161-.709-.35-1.04-.566-6.006-3.915-9.101-10.78-8.076-17.917 1.09-7.59 6.63-13.77 14.458-16.128 15.342-4.623 27.966 5.785 28.496 6.23 3.17 2.665 3.58 7.396.915 10.567-2.653 3.157-7.353 3.577-10.524.951-.215-.173-7.151-5.616-14.561-3.386-3.186.96-3.813 3.045-3.937 3.897-.082.578-.126 1.949 1.061 2.954 2.015.881 8.211 3.549 14.859 6.001 14.238 5.252 17.802 15.584 16.388 23.501-1.874 10.489-11.866 18.102-23.759 18.102z"/><path d="m320.809 123.5c-9.598 0-18.609-3.87-24.725-10.616-2.781-3.069-2.548-7.812.521-10.594 3.07-2.781 7.812-2.549 10.595.521 3.229 3.562 8.316 5.689 13.609 5.689 4.987 0 8.488-2.917 8.992-5.738.665-3.725-5.046-6.14-6.812-6.792-8.549-3.154-16.141-6.533-16.46-6.676-.361-.161-.709-.35-1.04-.566-6.006-3.915-9.101-10.78-8.076-17.917 1.09-7.59 6.63-13.77 14.458-16.128 15.342-4.623 27.966 5.785 28.496 6.23 3.17 2.665 3.58 7.396.915 10.567-2.653 3.157-7.353 3.577-10.524.951-.216-.173-7.152-5.616-14.561-3.386-3.186.96-3.813 3.045-3.937 3.897-.082.578-.126 1.949 1.061 2.954 2.015.881 8.211 3.549 14.859 6.001 14.238 5.252 17.802 15.584 16.388 23.501-1.874 10.489-11.866 18.102-23.759 18.102z"/><path d="m248.5 123.5c-19.299 0-35-15.701-35-35s15.701-35 35-35 35 15.701 35 35-15.701 35-35 35zm0-55c-11.028 0-20 8.972-20 20s8.972 20 20 20 20-8.972 20-20-8.972-20-20-20z"/></g></g></svg>