<svg id="Capa_1" enable-background="new 0 0 497 497" height="512" viewBox="0 0 497 497" width="512" xmlns="http://www.w3.org/2000/svg"><g><path d="m242.564 180.555v-48.96h45.808v48.123z" fill="#e8e8e8"/><path d="m252.37 131.6v48.72l-14 .23v-48.95z" fill="#d8d8d8"/><path d="m434.16 261.51v35l-74.405 4.83-173.255-4.83v-60l131.596 2.149 7.124-2.149h83.94c13.81 0 25 11.19 25 25z" fill="#857e87"/><g><path d="m403.968 296.515-13.873 2.4-14.128-2.4.319-80.004c0-8.284-6.716-15-15-15l-153.915 3.7v-30l45.959 3.789 15.13-3.789h90.508c24.853 0 45 20.147 45 45z" fill="#f8f7f7"/></g><path d="m358.97 192.21h-65.964c-1.981 0-3.88-.748-5.36-2.065-6.052-5.386-12.457-10.383-19.186-14.935h-61.09v17 13h95.38 56.22c8.28 0 15 6.71 15 15v76.3l5.487 2.404 7.513-2.404v-76.3c0-15.464-12.536-28-28-28z" fill="#e8e8e8"/><path d="m193.177 196.652-44.916 1-18.506-82.907-4.578-60.093 19.37-1c14.723 0 27.27 10.684 29.617 25.219l10.662 66.05-.603 7.472z" fill="#857e87"/><path d="m403.97 326.51v70.277c-4.76-1.42-9.79-2.18-15-2.18s-10.25.76-15 2.18v-70.277l15-4.702z" fill="#f8f7f7"/><g><path d="m123.377 206.346-28.09-163.091c-1.095-6.783-6.95-11.768-13.821-11.768l-65.051 1.353c-7.615 0-16.278-11.769-16.278-11.769-.09-.667-.137-1.348-.137-2.04 0-8.307 6.734-15.041 15.042-15.041h66.194c20.612 0 38.177 14.957 41.463 35.305l17.221 106.646-.377 14.07 9.457 42.165z" fill="#f8f7f7"/></g><path d="m434.16 296.51v20c0 5.52-4.48 10-10 10h-75.16l-9.926-4.106-152.574 4.106v-30z" fill="#6f6571"/><g><path d="m148.27 197.65h-.01l-8.35-51.71h.01z" fill="#635a63"/></g><path d="m148.27 197.65h-.01l-8.35-51.71h.01z" fill="#635a63"/><path d="m307.543 134.872-88.021.191c-5.523 0-10-4.477-10-10l.043-8c0-5.523 4.477-10 10-10l1.806-.796h87.002c5.523 0 10 4.477 10 10v7.003l-.83 1.602c0 5.523-4.478 10-10 10z" fill="#857e87"/><path d="m318.372 123.27-.002 3c0 5.52-4.47 10-10 10h-90c-5.52 0-10-4.48-10-10v-10c0-5.53 4.48-10 10-10h3v4c0 7.18 5.82 13 13 13z" fill="#6f6571"/><path d="m149 202.18-.73-4.53h-.01l-4.717-45.204-3.633-6.506c-4.012.588-7.994 1.312-11.941 2.164-2.809.607-5.549-1.264-5.995-4.103l-15.744-100.231c-2.12-13.15-13.33-22.7-26.65-22.7h-79.44c.99 7.34 7.28 13 14.9 13h64.54c6.87 0 12.73 4.99 13.82 11.77l26.02 161.15 12.14-1.97-.001-.004z" fill="#e8e8e8"/><path d="m193.18 196.65-44.91 1-8.35-51.71c8.74-1.28 17.62-1.93 26.58-1.93 6.19 0 12.296.311 18.326.911z" fill="#6f6571"/><path d="m346.53 296.51-10.519 5.468-149.511-5.468v-60h138.72c10.41 18.27 17.75 38.51 21.31 60z" fill="#6f6571"/><path d="m349 326.51h-162.5v-30h160.03c1.63 9.77 2.47 19.79 2.47 30z" fill="#635a63"/><path d="m333 326.51c0-91.955-74.545-166.5-166.5-166.5-43.234 0-82.619 16.478-112.218 43.497 0 0-16.401 18.738-23.697 29.408-18.275 26.725-28.404 58.329-28.404 93.149 0 91.955 72.364 164.532 164.319 164.532 45.631 0 86.68-16.307 116.755-46.037 2.425-2.398 7.346-7.045 7.346-7.045 26.367-29.458 42.399-68.359 42.399-111.004z" fill="#857e87"/><path d="m291.027 437.035c-30.5 34.33-74.987 55.975-124.527 55.975-91.96 0-166.5-74.54-166.5-166.5 0-49.54 21.644-94.026 55.973-124.526-26.109 29.41-41.973 68.106-41.973 110.526 0 91.96 74.54 166.5 166.5 166.5 42.42 0 81.117-15.865 110.527-41.975z" fill="#6f6571"/><circle cx="166.5" cy="326.51" fill="#f8f7f7" r="125"/><path d="m166.5 219.01c-59.276 0-107.5 48.224-107.5 107.5s48.224 107.5 107.5 107.5 107.5-48.224 107.5-107.5-48.224-107.5-107.5-107.5zm92.195 100h-79.205l39.584-68.562c22.173 15.374 37.332 40.177 39.621 68.562zm-52.598-76.084-39.597 68.584-39.597-68.584c12.01-5.713 25.436-8.916 39.597-8.916s27.587 3.203 39.597 8.916zm-92.171 7.523 39.584 68.562h-79.205c2.289-28.386 17.448-53.189 39.621-68.562zm-39.621 83.561h79.204l-39.584 68.562c-22.172-15.373-37.331-40.176-39.62-68.562zm52.598 76.085 39.597-68.585 39.597 68.584c-12.01 5.713-25.436 8.916-39.597 8.916s-27.587-3.203-39.597-8.915zm92.171-7.523-39.584-68.562h79.204c-2.288 28.386-17.447 53.189-39.62 68.562z" fill="#857e87"/><circle cx="166.5" cy="326.51" fill="#857e87" r="45"/><circle cx="166.5" cy="326.51" fill="#6f6571" r="30"/><circle cx="166.5" cy="326.51" fill="#f8f7f7" r="15"/><path d="m487 455.51h-34.26l-8.219-3.085-17.404 3.085v-30l17.979 1.383 7.644-1.383h34.26c5.523 0 10 4.477 10 10v10c0 5.523-4.477 10-10 10z" fill="#f8f7f7"/><path d="m454.47 440.51c0 5.16-.6 10.18-1.73 15h-25.62v-30h25.62c1.13 4.82 1.73 9.84 1.73 15z" fill="#e8e8e8"/><path d="m441.471 440.51c0-28.995-23.505-52.5-52.5-52.5-12.065 0-23.18 4.07-32.047 10.912 0 0-4.096 4.728-6.318 7.247-8.16 9.253-12.426 21.034-12.426 34.34 0 28.995 21.795 50.489 50.79 50.489 12.273 0 22.909-3.369 31.849-10.426 4.456-3.517 12.101-11.335 12.101-11.335 5.407-8.252 8.551-18.122 8.551-28.727z" fill="#857e87"/><circle cx="388.971" cy="440.51" fill="#f8f7f7" r="22.5"/><path d="m433.017 469.09c-9.37 14.39-25.597 23.92-44.047 23.92-28.99 0-52.5-23.51-52.5-52.5 0-16.93 8.02-31.99 20.46-41.58-5.35 8.22-8.46 18.04-8.46 28.58 0 28.99 23.51 52.5 52.5 52.5 12.06 0 23.187-4.09 32.047-10.92z" fill="#6f6571"/></g></svg>