<svg id="Capa_1" enable-background="new 0 0 497 497" height="512" viewBox="0 0 497 497" width="512" xmlns="http://www.w3.org/2000/svg"><g><g><path d="m368 112.25h-239c-16.845 0-30.5 13.655-30.5 30.5v86.5h15v-86.5c0-8.56 6.94-15.5 15.5-15.5h40c.552 0 1 .448 1 1v105.186l15 .314v-105.5c0-.552.448-1 1-1h54c.552 0 1 .448 1 1v91.186l15 .314v-91.5c0-.552.448-1 1-1h54c.552 0 1 .448 1 1v105.186l15 .314v-105.5c0-.552.448-1 1-1h40c8.56 0 15.5 6.94 15.5 15.5v86.5h15v-86.5c0-16.845-13.655-30.5-30.5-30.5z" fill="#857e87"/><g><path d="m19 370.25c-4.143 0-7.5-.358-7.5-4.5v-52c0-4.142 3.357-7.5 7.5-7.5s7.5 3.358 7.5 7.5v49c0 4.142-3.357 7.5-7.5 7.5z" fill="#857e87"/></g><g><path d="m478 370.25c-4.143 0-7.5-3.358-7.5-7.5v-49c0-4.142 3.357-7.5 7.5-7.5s7.5 3.358 7.5 7.5v52c0 4.142-3.357 4.5-7.5 4.5z" fill="#857e87"/></g></g><g><path d="m177 226.75h-135v-10.84c0-20.926 17.209-34.734 17.209-34.734 7.414-4.228 16.26-6.14 25.474-4.805l55.7 8.072c15.766 2.285 28.48 12.992 33.852 27.164.017.045.034.099.051.143 0 0-.285 9.74-.285 15z" fill="#f8f7f7"/><path d="m64.84 211.75c-5.987 0-10.84-4.853-10.84-10.84 0-7.221 1.908-13.94 5.209-19.734-11.973 6.827-20.209 19.699-20.209 34.734v13.84h138v-3c0-5.257-.958-10.316-2.715-15z" fill="#e8e8e8"/></g><g><circle cx="39" cy="365.75" fill="#857e87" r="20"/><g><path d="m39 393.25c-15.163 0-27.5-12.336-27.5-27.5s12.337-27.5 27.5-27.5 27.5 12.336 27.5 27.5-12.337 27.5-27.5 27.5zm0-40c-6.893 0-12.5 5.607-12.5 12.5s5.607 12.5 12.5 12.5 12.5-5.607 12.5-12.5-5.607-12.5-12.5-12.5z" fill="#6f6571"/></g></g><g><circle cx="458" cy="365.75" fill="#857e87" r="20"/><g><path d="m458 393.25c-15.163 0-27.5-12.336-27.5-27.5s12.337-27.5 27.5-27.5 27.5 12.336 27.5 27.5-12.337 27.5-27.5 27.5zm0-40c-6.893 0-12.5 5.607-12.5 12.5s5.607 12.5 12.5 12.5 12.5-5.607 12.5-12.5-5.607-12.5-12.5-12.5z" fill="#6f6571"/></g></g><g><path d="m269 226.75h192v60.5h-192z" fill="#bde4ff"/><path d="m269 272.25h192v18h-192z" fill="#99dbff"/></g><g><path d="m221 226.75h-167l-22 3v57.5h189z" fill="#bde4ff"/><path d="m54 262.25v-35.5h-25v63.5h199v-18h-164c-5.523 0-10-4.477-10-10z" fill="#99dbff"/></g><g><path d="m270 287.25h-61v-63.5c0-6.627 5.373-12 12-12l1-2h38c6.627 0 12 5.373 12 12v50.5z" fill="#f8f7f7"/><path d="m222 262.25v-52.5h-3c-6.627 0-12 5.373-12 12v68.5h65v-18h-40c-5.523 0-10-4.477-10-10z" fill="#e8e8e8"/></g><g><path d="m461 286.75h-407l-15 3v25h421z" fill="#b57f5f"/><path d="m54 291.75v-5h-18l3 30h419l3-15h-397c-5.523 0-10-4.477-10-10z" fill="#9f6e50"/></g><g><path d="m490 314.75h-30v-204c0-2.761 2.239-5 5-5l8-2h19c2.761 0 5 2.239 5 5v193l-2 8c0 2.761-2.239 5-5 5z" fill="#c38c66"/><path d="m473 291.75v-188h-10c-2.761 0-5 2.239-5 5v208h34c2.761 0 5-2.239 5-5v-10h-14c-5.523 0-10-4.477-10-10z" fill="#b57f5f"/></g><g><path d="m37 314.75h-30c-2.761 0-5-2.239-5-5v-199c0-2.761 2.239-5 5-5l8-2h19c2.761 0 5 2.239 5 5v193z" fill="#c38c66"/><path d="m25 301.75c-5.523 0-10-4.477-10-10v-188h-10c-2.761 0-5 2.239-5 5v203c0 2.761 2.239 5 5 5h34v-15z" fill="#b57f5f"/></g></g></svg>