<svg id="Capa_1" enable-background="new 0 0 497 497" height="512" viewBox="0 0 497 497" width="512" xmlns="http://www.w3.org/2000/svg"><g><g><path d="m410 495h-323c-5.523 0-10-4.477-10-10v-473c0-5.523 4.477-10 10-10l3-2h322c5.523 0 10 4.477 10 10v472l-2 3c0 5.523-4.477 10-10 10z" fill="#f8f7f7"/><path d="m104 482c-7.732 0-14-6.268-14-14v-468h-5c-5.523 0-10 4.477-10 10v477c0 5.523 4.477 10 10 10h327c5.523 0 10-4.477 10-10v-5z" fill="#e8e8e8"/></g><path d="m388 326h-279v-118.926l-4-7.074v-70l4.127-3.053-.127-92.947 84.584.198 4.416-4.198h191c1.657 0 3 1.343 3 3v67l-4.071 4.098z" fill="#d8d8d8"/><g><g><path d="m388 303h-30v-76l34 3v55z" fill="#b57f5f"/><path d="m358 303 34-3v-15h-34z" fill="#9f6e50"/></g><g><path d="m358 303h-25l-3-18v-58h31v58z" fill="#c38c66"/><path d="m330 285h31v18h-31z" fill="#b57f5f"/></g><g><g><path d="m169 302.5h-35v-17.5-57.5h35v57.5z" fill="#b57f5f"/><path d="m134 285h35v18h-35z" fill="#9f6e50"/></g><g><path d="m231 302.5h-35v-17.5-57.5h35v57.5z" fill="#b57f5f"/><path d="m196 285h35v18h-35z" fill="#9f6e50"/></g><g><path d="m133 302.5h-25v-75h28v57.5z" fill="#c38c66"/><path d="m120 275v-48l-15 3v70l31 3v-18h-6c-5.523 0-10-4.477-10-10z" fill="#b57f5f"/></g><g><path d="m195 302.5h-25l-3-17.5v-57.5h31v57.5z" fill="#c38c66"/><path d="m167 285h31v18h-31z" fill="#b57f5f"/></g><g><path d="m257 302.5h-25l-3-17.5v-57.5h31v57.5z" fill="#c38c66"/><path d="m229 285h31v18h-31z" fill="#b57f5f"/></g></g><g><g><path d="m299 197h-29l-2-12v-55l15.5-2 15.5 2 2 34z" fill="#ffe07d"/><path d="m268 200 14.862 2 16.138-2 3-15h-34z" fill="#ffd064"/></g><g><path d="m361 197h-31l-2-33 2-34 15.5-2 15.5 2 2 34z" fill="#ffe07d"/><path d="m330 200 15.5 2 15.5-2 3-15h-37z" fill="#ffd064"/></g><g><path d="m390 198h-27l-2-13v-55l15.5-2 15.5 2v55z" fill="#ffd064"/><path d="m361 200 15.5 2 15.5-2v-15h-31z" fill="#edc258"/></g><g><path d="m328 198h-27l-2-13v-55l15.5-2 15.5 2v55z" fill="#ffd064"/><path d="m299 200 15.5 2 15.5-2v-15h-31z" fill="#edc258"/></g></g><g><g><path d="m194 96h-31v-63.053l4-2.947h31v55z" fill="#ffe07d"/><path d="m167 100 14 3 17-3v-15h-31l-3 7.5z" fill="#ffd064"/></g><g><path d="m139 98h-32v-63c0-1.657 1.343-3 3-3l10-2h16l3 2.947z" fill="#ffe07d"/><path d="m120 75v-45h-12c-1.657 0-3 1.343-3 3v52 15l15 3 16-3 3-7.5-3-7.5h-6c-5.523 0-10-4.477-10-10z" fill="#ffd064"/></g><g><path d="m165 98h-27l-2-13v-55h31v55z" fill="#c38c66"/><path d="m136 100 15.5 3 15.5-3v-15h-31z" fill="#b57f5f"/></g></g></g><g><g><path d="m153 180.5v-15.5c0-1.657 1.343-3 3-3l10-2h13c1.657 0 3 1.343 3 3v21.5c0 3.882-1.432 7.426-3.79 10.145-2.842 3.278-11.71 2.355-11.71 2.355-8.56 0-13.5-7.94-13.5-16.5z" fill="#f8f7f7"/><path d="m166 179.5v-19.5h-12c-1.657 0-3 1.343-3 3v21.5c0 8.56 6.94 15.5 15.5 15.5 4.678 0 8.868-2.077 11.71-5.355-6.976-1.511-12.21-7.716-12.21-15.145z" fill="#e8e8e8"/></g><g><path d="m257 76.669v-2.669c0-1.657 1.343-3 3-3l10-2h28c1.657 0 3 1.343 3 3v7.669c0 3.699-.996 7.163-2.722 10.151 0 0-5.501 8.18-19.608 8.18h-1.339c-11.229 0-20.331-10.102-20.331-21.331z" fill="#f8f7f7"/><path d="m295.669 90h-4.669c-11.598 0-21-9.402-21-21h-12c-1.657 0-3 1.343-3 3v7.669c0 11.229 9.102 20.331 20.331 20.331l2.51 2.053 2.829-2.053c7.529 0 14.094-4.098 17.608-10.18-.854.109-1.726.18-2.609.18z" fill="#e8e8e8"/></g><g><path d="m333 79.5v-14.5c0-1.657 1.343-3 3-3l10-2h13c1.657 0 3 1.343 3 3v21.5c0 3.882-1.432 7.426-3.79 10.145-2.842 3.278-11.71 3.355-11.71 3.355-11.553 0-13.5-13.053-13.5-18.5z" fill="#f8f7f7"/><path d="m346 79.5v-19.5h-12c-1.657 0-3 1.343-3 3v21.5c0 8.56 6.94 15.5 15.5 15.5 4.678 0 8.868-2.077 11.71-5.355-6.976-1.511-12.21-7.716-12.21-15.145z" fill="#e8e8e8"/></g></g><g><path d="m248.5 464h-135.5c-2.761 0-5-2.239-5-5v-126l7.606-6h132.894l4 7.5v127.447z" fill="#ffe07d"/><path d="m125 454c-2.761 0-7-4.239-7-7l2-5.606v-85.787l-2-19.213-11-4.394-2 8.606v115.787l2 3.606c0 2.761 2.239 5 5 5l3.606 2h122.223l-2.967-9.117-12.248-5.882h-92.007z" fill="#ffd064"/></g><g><g><path d="m107 340.606 13 15 22.101 22.101 10.607-10.606-32.708-32.708-4.394-2.393z" fill="#ffd064"/><path d="m120 334.394-4.394-4.394-5.319-3-5.287 3v10.606l15 15z" fill="#edc258"/></g><path d="m251.5 327-13.667 3-38.126 37.598 10.519 10.695 38.274-37.745z" fill="#ffd064"/><g><path d="m211.401 419.883-10.518 10.694 21.731 21.423 13.099 2.334 8.267-2.334z" fill="#ffd064"/><path d="m222.614 452 15.215 15h10.671l3-5.117-3-5.427-4.52-4.456z" fill="#edc258"/></g><g><path d="m108 456.394 7.606 7.606 15-12 21.059-21.059-10.606-10.606-21.059 21.059z" fill="#ffd064"/><path d="m130.606 452c-5.858 0-10.606-4.749-10.606-10.606l-15 15v5.606c0 2.761 2.239 5 5 5h5.606z" fill="#edc258"/></g></g><g><path d="m392 464h-135.5c-2.761 0-5-2.239-5-5v-126l7.606-6h122.226l10.668 13.548v115.908z" fill="#ffe07d"/><path d="m268.5 454c-2.761 0-7-4.239-7-7l2-5.606v-85.787l-2-19.213-11-4.394-2 8.606v115.787l2 3.606c0 2.761 2.239 5 5 5l3.606 2h122.223l-2.967-9.117-12.249-5.882h-92.007z" fill="#ffd064"/></g><g><g><path d="m250.5 340.606 13 15 22.101 22.101 10.606-10.606-32.707-32.708-4.394-2.393z" fill="#ffd064"/><path d="m263.5 334.394-4.394-4.394-10.606-3v13.606l15 15z" fill="#edc258"/></g><path d="m392 330-5.649-3-5.018 3-38.126 37.598 10.519 10.695 38.274-37.745z" fill="#ffd064"/><g><path d="m354.901 419.883-10.519 10.694 21.731 21.423 13.1 2.334 8.267-2.334z" fill="#ffd064"/><path d="m366.113 452 15.216 15h5.671c2.761 0 5-2.239 5-5v-5.544l-4.52-4.456z" fill="#edc258"/></g><g><path d="m251.5 456.394 7.606 7.606 15-12 21.059-21.059-10.607-10.606-21.058 21.059z" fill="#ffd064"/><path d="m274.106 452c-5.858 0-10.606-4.749-10.606-10.606l-15 15v10.606h10.606z" fill="#edc258"/></g></g><g><path d="m350 435h-59c-5.523 0-10-4.477-10-10v-53c0-5.523 4.477-10 10-10l3-2h58c5.523 0 10 4.477 10 10v52l-2 3c0 5.523-4.477 10-10 10z" fill="#ffd064"/><path d="m304 422c-5.523 0-10-4.477-10-10v-52h-5c-5.523 0-10 4.477-10 10v20.5l3 8-3 7v21.5c0 5.523 4.477 10 10 10h63c5.523 0 10-4.477 10-10v-5z" fill="#edc258"/></g><g><path d="m147 435h59c5.523 0 10-4.477 10-10l2-3v-16.5l-2-7 2-8v-20.5c0-5.523-4.477-10-10-10h-58l-3 2c-5.523 0-10 4.477-10 10v53c0 5.523 4.477 10 10 10z" fill="#ffd064"/><path d="m160 422c-5.523 0-10-4.477-10-10v-52h-5c-5.523 0-10 4.477-10 10v57c0 5.523 4.477 10 10 10h63c5.523 0 10-4.477 10-10v-5z" fill="#edc258"/></g><g><g><path d="m299 405.5h-5l-13-2v-11l13-2h5c4.142 0 7.5 3.358 7.5 7.5s-3.358 7.5-7.5 7.5z" fill="#f8f7f7"/><path d="m279 390.5h15v15h-15z" fill="#e8e8e8"/></g><path d="m218 405.5h-20c-4.142 0-7.5-3.358-7.5-7.5s3.358-7.5 7.5-7.5h20z" fill="#f8f7f7"/></g><g fill="#f8f7f7"><path d="m100.436 100h296.128v30h-296.128z"/><path d="m100.436 200h296.128v30h-296.128z"/><path d="m100.436 300h296.128v30h-296.128z"/></g></g></svg>