<svg id="Capa_1" enable-background="new 0 0 497 497" height="512" viewBox="0 0 497 497" width="512" xmlns="http://www.w3.org/2000/svg"><g><g><path d="m448.5 467.54h-394.339v-316.08h394.339v30.04l-4.658 7.5 4.658 7.5v16l-4.658 7.5 4.658 7.5v15l-4.658 7.5 4.658 7.5v15l-4.658 8.541 4.658 6.459v15l-4.658 8.046 4.658 6.954v15l-4.658 8.651 4.658 6.349v15l-4.658 7.5 4.658 7.5v15l-4.658 8.541 4.658 6.459v15l-4.658 8.596 4.658 6.404z" fill="#857e87"/><path d="m64.5 151.46v316.08h-16v-30.04l8-8.385-8-6.615v-15l8-7.5-8-7.5v-15l8-7.5-8-7.5v-15l8-7.5-8-7.5v-15l8-7.5-8-7.5v-15l8-7.5-8-7.5v-15l8-9-8-6v-15l8-7.5-8-7.5v-16l8-7.5-8-7.5v-30.04z" fill="#6f6571"/><g><g><path d="m54.161 181.5h394.339v15h-394.339z" fill="#6f6571"/></g><g><path d="m54.161 272.5h394.339v15h-394.339z" fill="#6f6571"/></g><g><path d="m54.161 242.5h394.339v15h-394.339z" fill="#6f6571"/></g><g><path d="m54.161 212.5h394.339v15h-394.339z" fill="#6f6571"/></g><g><path d="m54.161 302.5h394.339v15h-394.339z" fill="#6f6571"/></g><g><path d="m54.161 332.5h394.339v15h-394.339z" fill="#6f6571"/></g><g><path d="m54.161 362.5h394.339v15h-394.339z" fill="#6f6571"/></g><g><path d="m54.161 392.5h394.339v15h-394.339z" fill="#6f6571"/></g><g><path d="m54.161 422.5h394.339v15h-394.339z" fill="#6f6571"/></g></g><g><g><path d="m48.5 181.5h16v15h-16z" fill="#635a63"/></g><g><path d="m48.5 272.5h16v15h-16z" fill="#635a63"/></g><g><path d="m48.5 242.5h16v15h-16z" fill="#635a63"/></g><g><path d="m48.5 212.5h16v15h-16z" fill="#635a63"/></g><g><path d="m48.5 302.5h16v15h-16z" fill="#635a63"/></g><g><path d="m48.5 332.5h16v15h-16z" fill="#635a63"/></g><g><path d="m48.5 362.5h16v15h-16z" fill="#635a63"/></g><g><path d="m48.5 392.5h16v15h-16z" fill="#635a63"/></g><g><path d="m48.5 422.5h16v15h-16z" fill="#635a63"/></g></g><g><path d="m492 460h-478l-7.133 2c-2.761 0-5 2.239-5 5l-.156 23.06c0 2.761 2.239 5 5 5l483.633.275c2.761 0 5-2.239 5-5l1.656-7.335v-18c0-2.761-2.239-5-5-5z" fill="#c38c66"/><path d="m497 483v9c0 2.76-2.24 5-5 5h-487c-2.76 0-5-2.24-5-5v-27c0-2.76 2.24-5 5-5h9v13c0 5.52 4.48 10 10 10z" fill="#b57f5f"/></g><path d="m118.5 181.5h260v256h-260z" fill="#635a63"/><g><path d="m318.923 327.137-2.571 6.837c-2.39 6.356-5.813 10.489-10.508 15.396l-.182.19c-1.89 1.975-4.789 2.871-7.502 3.079-.187.014-.375.024-.563.029l-.24.006c-7.825.201-13.609-7.201-11.511-14.724 1.274-4.57 2.669-9.608 3.953-14.256 2.914-10.55 1.891-21.797-2.876-31.649l-.198-.41c-5.225-10.798-14.329-19.118-25.472-23.32-.828-.312-1.66-.626-2.491-.94 0 0-10.18-3.1-13.625-4.403-.916-.346-1.749.658-1.247 1.5l3.046 6.035c4.826 8.096 4.41 18.356-1.196 25.934l-.272.368c-1.936 2.617-4.8 4.636-7.759 5.6-1.278.416-3.214.564-4.58.625-.225.01-.45.015-.677.015h-.22c-4.164-.004-8.146-1.68-11.057-4.64-.104-.105-.456.085-.557-.023l-7.758-8.063c-.46-.496-1.275-.43-1.637.142-6.248 9.893-7.534 20.793-6.599 32.481l1.378 17.223c.575 7.183-4.908 13.517-11.433 15.514-1.073.328-2.921.407-4.084.486-.34.023-.684.035-1.03.035-5.135-.151-11.073-2.744-15.786-6.795 0 0-5.368-3.232-6.856-6.721-.313-.733-1.299-.874-1.773-.234-9.415 12.739-12.457 27.924-10.465 44.34l.068.602c1.552 13.779 7.596 26.763 16.975 36.799l.191.204c7.811 8.359 16.396 13.104 27.836 13.104h68.782c20.289 0 39.746-8.06 54.092-22.406l.522-.522c11.553-11.553 18.043-27.222 18.043-43.56 1.32-13.558-2.808-26.862-11.119-37.174 0 0-5.84-4.522-9.463-7.181-.549-.407-1.339-.162-1.579.477z" fill="#ffe07d"/><path d="m214.13 437.5h-14.48c-11.439 0-22.372-4.747-30.181-13.105l-.197-.207c-9.371-10.033-15.266-22.817-16.818-36.604l-.072-.6c-1.996-16.414 3.134-34.277 12.546-47.02.476-.641 1.458-.496 1.769.238 1.489 3.496 3.982 6.64 6.971 9.205-5.637 11.377-8.347 24.906-6.806 37.577l.072.6c1.551 13.787 7.447 26.571 16.818 36.604l.197.207c7.809 8.358 18.742 13.105 30.181 13.105z" fill="#ffd064"/><g><path d="m174.457 300.454c-14.97-2.741-20.632-18.849-14.063-32.396 6.448-11.097 6.911-16.98 7.231-29.008.035-1.33 1.294-2.267 2.588-1.958 4.114.982 9.586 3.974 9.586 3.974 7.662 7.209 10.911 19.197 6.629 29.497-6.502 13.277-8.853 12.937-8.927 25.349 0 0-.586 1.114-.557 2.457.029 1.332-1.178 2.325-2.487 2.085z" fill="#ffe07d"/><path d="m177.501 295.913c-.01 1.117.004 2.338.035 3.682.031 1.334-1.179 2.327-2.493 2.079-14.966-2.741-22.91-21.11-16.342-34.66 6.444-11.098 7.478-17.811 7.788-29.84.041-1.334 1.303-2.265 2.596-1.965 4.117.983 7.744 3.064 10.713 5.857-.476 9.712-1.932 16.101-7.651 25.948-4.675 9.651-2 21.752 5.354 28.899z" fill="#ffd064"/></g><g><path d="m331.16 295.301c-14.97-2.741-20.632-18.849-14.063-32.396 6.448-11.097 6.911-16.98 7.231-29.008.035-1.33 1.294-2.267 2.588-1.958 4.114.982 9.586 3.974 9.586 3.974 7.662 7.209 10.911 19.197 6.629 29.497-6.502 13.277-8.853 12.937-8.927 25.349 0 0-.586 1.114-.557 2.457.03 1.332-1.178 2.324-2.487 2.085z" fill="#ffe07d"/><path d="m334.205 290.76c-.01 1.117.004 2.338.035 3.682.031 1.334-1.179 2.327-2.493 2.079-14.966-2.741-22.91-21.11-16.342-34.66 6.444-11.098 7.478-17.811 7.788-29.84.041-1.334 1.303-2.265 2.596-1.965 4.117.983 7.744 3.064 10.713 5.857-.476 9.712-1.932 16.101-7.651 25.948-4.675 9.651-2 21.752 5.354 28.899z" fill="#ffd064"/></g><g fill="#ffd064"><path d="m218.857 340.037c.693 8.709-6.185 16.166-14.925 16.166h-14.48c8.74 0 15.618-7.457 14.925-16.166l-1.376-17.221c-.941-11.688 1.945-23.355 8.192-33.243.362-.569 1.179-.641 1.634-.145l8.037 8.657c.103.114.207.218.31.321-3.082 7.695-4.365 16.042-3.692 24.409z"/><path d="m259.402 296.482-.279.372c-2.906 3.93-7.406 6.196-12.195 6.196h-14.48c4.789 0 9.288-2.265 12.195-6.196l.279-.372c5.378-7.282 6.051-16.983 1.82-24.906-.134-.279-.31-.6-.538-.972l-4.623-7.747c-.496-.838.331-1.851 1.252-1.5.434.165.9.341 1.417.538.207.072.424.155.652.248 1.541.579 3.362 1.262 5.347 2.017.528.197 1.065.403 1.624.61.062.021.134.052.207.083.414.155.838.31 1.262.476 1.758.662 3.579 1.355 5.42 2.048l1.924 3.227c4.818 8.098 4.311 18.297-1.284 25.878z"/><path d="m329.967 333.838c-2.369 5.637-5.755 10.802-9.996 15.228l-.176.186c-2.027 2.11-4.799 3.341-7.716 3.413l-.238.01h-14.48l.238-.01c2.917-.072 5.689-1.303 7.716-3.413l.176-.186c4.696-4.913 8.347-10.715 10.736-17.076l2.575-6.837c.238-.631 1.024-.879 1.583-.476 3.62 2.659 6.841 5.737 9.582 9.161z"/></g></g><path d="m437.748 155.977-378.826 1.156c-16.842 0-33.606-11.786-33.606-28.629l-1.816-.504 225.855-9.014 224.145 9.014v.504c0 6.511-2.04 12.545-5.517 17.498 0 0-19.904 9.975-30.235 9.975z" fill="#f8f7f7"/><path d="m467.983 146.002c-5.51 7.86-14.643 12.998-24.983 12.998h-389c-16.85 0-30.5-13.65-30.5-30.5v-.5l8.917-6.041 6.763 6.041c4.76 10.61 15.43 18 27.82 18z" fill="#e8e8e8"/><path d="m128 60h-32c-4.388 0-8.548.974-12.275 2.719 0 0-5.211 3.879-7.546 6.176-5.348 5.26-7.321 12.011-7.321 20.105h86.037c0-5.078-1.492-14.001-1.492-14.001-4.94-8.943-14.464-14.999-25.403-14.999z" fill="#f8f7f7"/><path d="m157 89-41.739 4.775-48.261-4.775c0-11.63 6.845-21.681 16.725-26.281-1.12 2.373-1.914 4.927-2.348 7.593-.399 2.451 1.464 4.688 3.947 4.688l68.078-.001c2.3 4.15 3.598 8.921 3.598 14.001z" fill="#e8e8e8"/><path d="m133.5 31h-43c-1.105 0-2 .895-2 2v3.5c0 12.979 10.521 23.5 23.5 23.5 12.979 0 23.5-10.521 23.5-23.5v-3.5c0-1.105-.895-2-2-2z" fill="#e8e8e8"/><path d="m225 29.208v-27.208c0-1.105-.895-2-2-2h-9l-10.812.729c-1.105 0-2 .895-2 2l1.546 26.874c0 7.706-2.166 15.258-6.25 21.792-3.39 5.272-6.295 14.111-6.25 21.792l-.22 15.813h44.945l2.541-14v-2.208c0-7.706-2.166-15.258-6.25-21.792-4.084-6.535-6.25-14.086-6.25-21.792z" fill="#857e87"/><path d="m205.575 75c-2.285 0-4.137-1.912-3.996-4.192.391-6.325 2.085-13.238 6.172-19.808 4.08-6.53 6.25-14.09 6.25-21.79v-29.21h-12c-1.1 0-2 .9-2 2v27.21c0 7.7-2.17 15.26-6.25 21.79-3.861 6.201-6.573 14.702-6.25 24v14l24.257 5.381 25.742-5.381v-14z" fill="#6f6571"/><g><path d="m492 89h-478l-7.133 2c-2.761 0-5 2.239-5 5l-.156 25.06c0 2.761 2.239 5 5 5l483.633.275c2.761 0 5-2.239 5-5l1.656-7.335v-20c0-2.761-2.239-5-5-5z" fill="#c38c66"/><path d="m497 114v9c0 2.76-2.24 5-5 5h-487c-2.76 0-5-2.24-5-5v-29c0-2.76 2.24-5 5-5h9v15c0 5.52 4.48 10 10 10z" fill="#b57f5f"/></g><path d="m427 47.66h-49.44l-9.597.569c-1.657 0-3 1.343-3 3v4.84c0 18.502 13.035 31.583 31.537 31.583 8.936 0 15.975-2.899 21.982-8.601 1.54-1.462 5.26-4.049 5.26-4.049 3.939-5.494 6.258-12.227 6.258-19.502v-4.84c0-1.657-1.343-3-3-3z" fill="#f8f7f7"/><path d="m423.74 75c-1.07 1.49-2.26 2.89-3.55 4.19-6.07 6.06-14.44 9.81-23.69 9.81-18.5 0-33.5-15-33.5-33.5v-4.84c0-1.66 1.34-3 3-3h11.56c2.9 15.56 16.54 27.34 32.94 27.34z" fill="#e8e8e8"/></g></g></svg>