<svg id="Capa_1" enable-background="new 0 0 497.004 497.004" height="512" viewBox="0 0 497.004 497.004" width="512" xmlns="http://www.w3.org/2000/svg"><g><path d="m421.597 442.51v46.49c0 4.42-3.58 8-8 8h-71.5l-4.487-31.06c0-30.11 14.93-58.27 39.86-75.17l23.887-11.07c12.74 17.67 20.24 39.36 20.24 62.81z" fill="#f8f7f7"/><path d="m159.757 464.454-4.66 32.546h-64.5l-5.069-2.573c-4.42 0-8-3.58-8-8l.817-43.936c0-23.31 4.673-44.871 17.273-62.481l23.99 9.074c25.099 16.87 40.149 45.13 40.149 75.37z" fill="#f8f7f7"/><path d="m401.357 379.7-19.4 13.28c-24.93 16.9-39.86 45.06-39.86 75.17v28.85h-187v-28.62c0-30.24-15.05-58.5-40.15-75.37l-19.33-13s52.686-42.602 88.746-42.602l129.724-2.408c11.277 0 19.751 3.538 29.964 6.757 2.782.877 10.59 1.153 10.59 1.153 18.824 7.671 34.985 20.524 46.716 36.79z" fill="#ff8086"/><path d="m108.077 388.39c-.09.11-.18.23-.26.35-11.27 15.74-17.22 34.34-17.22 53.77v54.49h-7c-4.42 0-8-3.58-8-8v-46.49c0-23.31 7.42-44.89 20.02-62.5l8.324.307z" fill="#e8e8e8"/><path d="m314.087 335h-121.72c-15.519-.188-28.772.185-46.241 6.54-20.472 7.5-38.034 21.038-50.509 38.47l12.46 8.38c10.671-14.775 25.361-25.878 41.975-32.249 1.573-.603 3.343-.388 4.716.588 7.916 5.626 16.065 7.922 22.769 9.812 7.74 2.17 12.31 3.61 16.27 7.9 16.76 18.14 46.67 19.06 52.5 19.06.37 0 37.91-.22 55.6-18.93 3.22-3.4 7.92-4.95 15.32-7.2 11.11-3.38 26.004-7.92 37.414-24.46-12.51-5.111-26.204-7.911-40.554-7.911z" fill="#e5646e"/><path d="m314.656 350.634c-1.371 6.235-.619 17.731-.619 17.731-12.182 24.72-36.913 41.635-65.44 41.635-28.593 0-53.373-16.994-65.525-41.807 0 0 2.4-11.314 1.043-17.442z" fill="#f2d1a5"/><path d="m395.134 227.04c14.432-5.366 27.487-16.414 34.83-29.751 13.566-22.624 9.172-55.864-10.178-75.306-.698-.702-.786-1.785-.219-2.597 8.896-12.754 9.56-29.18.44-40.693-7.463-9.421-19.63-13.224-31.725-11.149-1.076.185-2.103-.546-2.273-1.625-2.746-17.402-16.029-31.293-33.11-34.951-9.617-18.401-28.871-30.968-51.071-30.968-17.442 0-33.062 7.761-43.624 20.009-.876 1.016-2.466.888-3.186-.244-3.572-5.615-8.422-10.337-14.14-13.756 0 0-13.847-4.491-21.824-4.491-19.874 0-35.565 14.094-40.269 32.503-.249.974-1.208 1.609-2.201 1.448-2.237-.363-4.533-.553-6.873-.553-19.266 0-35.539 12.793-40.802 30.346-.308 1.027-1.386 1.618-2.417 1.327-13.356-3.763-25.457-2.239-33.751 8.23-8.201 10.353-8.49 24.68-1.998 36.737.44.817.294 1.83-.392 2.455-7.056 6.43-17.294 7.103-25.255 30.988-5 15-5.058 33.139 12 59 10.175 13.383 19.199 20.059 25.394 22.977z" fill="#e8e8e8"/><path d="m240.877 6.01c-.27-.01-.55-.01-.82-.01-19.88 0-36.57 13.61-41.27 32.02-.25.98-1.21 1.61-2.2 1.45-2.24-.36-4.54-.55-6.88-.55-19.26 0-35.53 12.79-40.8 30.34-.31 1.03-1.38 1.62-2.41 1.33-13.36-3.76-27.46-.24-35.76 10.23-8.2 10.35-8.49 24.68-1.99 36.74.44.81.29 1.83-.39 2.45-7.06 6.43-17.3 7.1-25.26 30.99-5 15-5.06 33.14 12 59 5.85 7.69 12.31 13.17 17.92 16.98h-10.53c-6.19-2.92-18.22-9.6-28.39-22.98-17.06-25.86-17-44-12-59 7.96-23.89 18.2-24.56 25.26-30.99.68-.62.83-1.64.39-2.45-6.5-12.06-6.21-26.39 1.99-36.74 8.3-10.47 22.4-13.99 35.76-10.23 1.03.29 2.1-.3 2.41-1.33 5.27-17.55 21.54-30.34 40.8-30.34 2.34 0 4.64.19 6.88.55.99.16 1.95-.47 2.2-1.45 4.7-18.41 21.39-32.02 41.27-32.02 7.97 0 15.44 2.19 21.82 6.01z" fill="#d8d8d8"/><path d="m388.686 226.002c13.749 0 23.507 13.401 19.286 26.486l-4.616 14.311c-3.676 11.395-14.282 19.117-26.254 19.117l-257.009.051c-11.973 0-22.579-7.723-26.254-19.117l-4.616-14.311c-4.221-13.085 5.537-26.486 19.286-26.486z" fill="#f2bb88"/><path d="m320.247 350.63c-1.37 6.24-3.47 12.185-6.21 17.735-5.6 1.78-9.4 3.325-12.13 6.205-17.69 18.71-55.23 18.93-55.6 18.93-5.83 0-35.74-.92-52.5-19.06-2.91-3.15-6.155-4.767-10.735-6.247-2.68-5.46-4.735-11.313-6.095-17.443z" fill="#f2bb88"/><path d="m136.545 177.97c9.185-6.79 16.086-21.41 18.1-39.191.133-1.172.913-2.182 2.038-2.538 13.711-4.33 24.657-14.852 29.58-28.283.604-1.648 2.437-2.45 4.047-1.75 7.191 3.128 15.306 4.893 23.897 4.893 11.963 0 23.004-3.411 31.907-9.164 1.463-.945 3.393-.484 4.264 1.023 9.422 16.301 27.814 27.377 48.984 27.377 7.586 0 14.822-1.435 21.413-4.009 1.048-.409 2.241-.244 3.085.499 4.781 4.207 10.426 7.447 16.644 9.412 1.127.356 1.911 1.364 2.044 2.539 2.015 17.791 8.922 32.418 18.115 39.203 9.011 6.651 14.872 16.83 15.177 28.025.009.327.014.645.014.953-.007 4.578-.343 13.701-.343 13.697-2.015 40.478-13.164 79.01-30.943 110.107-14.967 26.179-38.887 17.988-53.559 33.502-10.395 10.991-34.972 14.234-44.707 14.234-9.536 0-30.682-2.551-41.474-14.234-16.306-17.652-38.214-6.595-53.193-33.502-17.256-30.997-27.964-69.382-29.95-109.717-.001.014-.335-9.061-.346-13.625 0-.67.021-1.384.06-2.133.566-10.935 6.34-20.808 15.146-27.318z" fill="#f2d1a5"/><g fill="#f2bb88"><path d="m218.605 165.375c19.621-5.605 40.363-5.606 59.982 0 .688.197 1.382.291 2.064.291 3.264 0 6.267-2.147 7.208-5.441 1.138-3.983-1.169-8.134-5.151-9.272-22.315-6.376-45.907-6.376-68.225 0-3.982 1.138-6.289 5.289-5.151 9.272 1.14 3.982 5.293 6.287 9.273 5.15z"/><path d="m270.366 316.767c-6.444 7.109-13.972 10.867-21.77 10.867s-15.325-3.758-21.77-10.867c-2.783-3.069-7.525-3.3-10.594-.52-3.068 2.782-3.302 7.525-.52 10.594 9.231 10.184 20.909 15.793 32.883 15.793s23.651-5.609 32.883-15.793c2.782-3.069 2.549-7.812-.52-10.594-3.067-2.78-7.811-2.549-10.592.52z"/><path d="m259.199 269.067c-6.539 3.919-14.666 3.919-21.205 0-3.554-2.128-8.158-.976-10.289 2.578-2.129 3.553-.975 8.159 2.578 10.288 5.648 3.385 11.98 5.077 18.313 5.077s12.665-1.692 18.313-5.077c3.553-2.129 4.707-6.735 2.578-10.288-2.13-3.554-6.736-4.708-10.288-2.578z"/><path d="m322.637 233.776-4.835-4.96c-10.691-10.97-26.865-14.576-41.208-9.183-3.877 1.458-5.838 5.783-4.381 9.66 1.459 3.877 5.784 5.839 9.66 4.38 1.165-.438 2.35-.772 3.544-1.018v11.839c0 4.142 3.357 7.5 7.5 7.5s7.5-3.358 7.5-7.5v-9.978c2.432 1.173 4.689 2.765 6.643 4.77l4.835 4.96c1.471 1.508 3.42 2.265 5.372 2.265 1.887 0 3.775-.708 5.234-2.129 2.966-2.892 3.026-7.64.136-10.606z"/><path d="m215.364 233.689c3.887 1.435 8.199-.555 9.632-4.441 1.434-3.886-.555-8.199-4.44-9.632-14.455-5.333-30.723-1.624-41.438 9.447l-4.579 4.731c-2.881 2.977-2.804 7.725.173 10.605 1.456 1.41 3.337 2.111 5.215 2.111 1.961 0 3.919-.764 5.39-2.284l4.58-4.731c2.016-2.083 4.354-3.737 6.88-4.942v9.94c0 4.142 3.357 7.5 7.5 7.5s7.5-3.358 7.5-7.5v-11.811c1.208.242 2.407.572 3.587 1.007z"/><path d="m183.612 203.625c9.618-5.103 21.122-5.14 30.772-.103l.239.125c1.109.58 2.296.854 3.467.854 2.703 0 5.314-1.466 6.653-4.028 1.918-3.671.497-8.203-3.175-10.121l-.241-.126c-14.033-7.328-30.761-7.272-44.747.148-3.658 1.941-5.051 6.481-3.109 10.14 1.941 3.66 6.479 5.054 10.141 3.111z"/><path d="m272.46 200.493c1.929 3.664 6.463 5.075 10.13 3.144 9.709-5.11 21.305-5.11 31.014 0 1.114.587 2.31.865 3.486.865 2.696 0 5.301-1.458 6.644-4.008 1.93-3.666.521-8.201-3.144-10.13-14.084-7.413-30.902-7.413-44.986 0-3.666 1.928-5.074 6.464-3.144 10.129z"/></g><g><path d="m180.706 496.07 20.208-20.316c1.229-1.235 1.229-3.231 0-4.467l-20.208-20.316c-1.238-1.245-3.252-1.245-4.49 0l-20.208 20.316c-1.229 1.235-1.229 3.231 0 4.467l20.208 20.316c1.238 1.245 3.252 1.245 4.49 0z" fill="#f8f7f7"/></g><g><path d="m222.957 450.981-20.199 20.307c-1.228 1.235-1.228 3.23 0 4.465l20.199 20.307c1.238 1.244 3.251 1.244 4.488 0l20.199-20.307c1.228-1.235 1.228-3.23 0-4.465l-20.199-20.307c-1.237-1.244-3.251-1.244-4.488 0z" fill="#f8f7f7"/></g><g><path d="m269.685 450.988-20.199 20.307c-1.228 1.235-1.228 3.23 0 4.465l20.199 20.307c1.238 1.244 3.251 1.244 4.488 0l20.199-20.307c1.228-1.235 1.228-3.23 0-4.465l-20.199-20.307c-1.237-1.244-3.25-1.244-4.488 0z" fill="#f8f7f7"/></g><g><path d="m316.487 450.84-20.264 20.372c-1.232 1.239-1.232 3.24 0 4.479l20.264 20.372c1.241 1.248 3.261 1.248 4.503 0l20.264-20.372c1.232-1.239 1.232-3.24 0-4.479l-20.264-20.372c-1.242-1.248-3.262-1.248-4.503 0z" fill="#f8f7f7"/></g></g></svg>