<svg id="Capa_1" enable-background="new 0 0 504.5 504.5" height="512" viewBox="0 0 504.5 504.5" width="512" xmlns="http://www.w3.org/2000/svg"><g><path d="m395.02 364.01-30.174 24.481c-23.19 36.23-65.588 60.44-111.798 60.44-46.22 0-90.104-24.531-113.284-60.771l-26.964-25.27 28.34-4.785 19.39-11.376.9 2.41c2.39 6.36 6.761 10.83 10.371 16.48 17.23 26.94 46.089 42.192 80.44 42.192 42.27 0 78.24-22.852 91.53-60.582l.18-.5 4.713 4.66 9.477.141z" fill="#e8e8e8"/><path d="m395.97 364.33-96.122 132.67h-95.197l-101.371-130.87c.37-.14.75-.27 1.13-.4l8.39-2.84 29.44 22.34c23.18 36.24 63.79 60.27 110.01 60.27 46.21 0 86.81-24.02 110-60.25l32.77-21.24z" fill="#f8f7f7"/><path d="m479.2 474.84v14.16c0 4.42-3.59 8-8 8h-131.352l56.122-132.67 4.12 1.4c45.97 15.56 78.01 57.97 79.08 106.49.02.87.03 1.75.03 2.62z" fill="#7bb1ff"/><path d="m164.652 497h-124.352l-4.364-1.243c-4.41 0-8-3.58-8-8v-14.16c0-.87.01-1.75.03-2.62 1.06-48.12 33.015-88.094 78.385-103.954z" fill="#7bb1ff"/><path d="m343.95 346.73-.18.5c-13.29 37.73-49.25 64.77-91.52 64.77-34.35 0-64.54-17.86-81.77-44.8-3.61-5.65-6.66-11.7-9.05-18.06l-.9-2.41 3.03-1.02h177.38z" fill="#e3a76f"/><path d="m111.23 379.25c-.374.139-1.522.492-3 1.04-39.71 13.88-66.99 50.96-67.9 92.27-.02.75-.03 1.52-.03 2.28v22.16h-7c-4.41 0-8-3.58-8-8v-14.16c0-.87.01-1.75.03-2.62 1.06-48.12 32.58-90.23 77.95-106.09z" fill="#62a5f4"/><path d="m403.985 202.468 4.652-9.871c15.933-33.811 10.871-74.015-13.545-102.315-5.558-6.442-11.332-11.445-16.942-13.545-4.125-1.544-6.667-5.595-6.499-9.996.017-.436.025-.879.025-1.328 0-29.399-35.409-54.268-84.143-62.511 0 0-23.001-2.175-35.283-2.175-65.381 0-115.428 25.671-115.428 66.131 0 .479.009.95.028 1.414.177 4.362-2.36 8.372-6.453 9.891-5.581 2.071-11.273 7.022-16.725 13.41-24.111 28.249-28.865 66.771-13.033 100.367 1.31 2.777 5.424 11.543 6.593 13.909l295.411-.929z" fill="#e8e8e8"/><path d="m288.59 3.09c-6.61-.65-13.41-.98-20.34-.98-65.38 0-119.43 25.66-119.43 67.28 0 .49.01.98.03 1.46.18 4.48-2.36 8.61-6.45 10.17-5.58 2.13-11.27 7.22-16.73 13.79-24.11 29.06-28.95 70.17-13.12 104.73l2.87 6.27-12.28.04c-1.138-2.298-5.556-11.72-6.59-13.91-15.83-33.6-10.99-73.56 13.12-101.81 5.46-6.39 11.15-11.34 16.73-13.41 4.09-1.52 6.63-5.53 6.45-9.89-.02-.47-.03-.94-.03-1.42 0-40.46 54.05-65.41 119.43-65.41 12.67 0 24.88 1.08 36.34 3.09z" fill="#d8d8d8"/><path d="m380.762 202.576h16.642c14.202 0 24.281 13.842 19.921 27.358l-4.769 14.782c-3.797 11.77-14.752 19.747-27.119 19.747h-6.202l-253.068.053h-6.202c-12.367 0-23.322-7.977-27.119-19.747l-4.769-14.782c-4.36-13.516 5.719-27.358 19.921-27.358h16.478z" fill="#d6995c"/><g fill="#d8d8d8"><path d="m170.755 355.243-10.225-8.513-47.73 16.16 14.43 10.95 32.965-11.158c1.039-.352 2.169-.262 3.141.247.958.502 2.71 1.362 6.344 2.991z"/><path d="m343.95 346.73-7.342 5.596-1.598 13.294c8.35-3.59 16.19-8.36 23.13-14.09z"/></g><path d="m343.95 346.73-.18.5c-2.28 6.48-5.23 12.64-8.76 18.4-8.108 3.515-16.681 5.924-25.338 7.047-.946.123-1.757.697-2.217 1.533-8.594 15.613-29.664 26.02-55.205 26.02-25.579 0-46.669-10.435-55.236-26.086-.459-.838-1.27-1.415-2.217-1.538-8.659-1.123-17.397-3.445-25.117-6.696-2.956-4.695-6.819-12.526-9.15-19.18l3.03-1.02h177.38z" fill="#d6995c"/><path d="m363.913 134.02c-9-22.765-35.99-32.919-57.566-21.356-15.346 8.224-32.084 10.893-54.097 10.893-21.324 0-40.696-4.336-55.029-11.401-21.518-10.607-47.735-.587-56.574 21.713-8.41 21.219-12.818 47.86-12.818 63.854l.208 11.27v71.226c0 17.039 5.57 33.609 15.861 47.184 7.377 9.742 16.819 17.478 27.47 22.779 10.357 5.266 23.556 8.138 34.635 8.202 1.034.006 1.885.773 1.999 1.801 1.376 12.464 16.789 22.599 36.748 24.658l7.5-3.123 7.5 3.123c19.95-2.058 35.359-12.187 36.746-24.643.115-1.03.971-1.797 2.007-1.795 23.487.036 48.142-12.146 62.101-31.002 5.141-6.788 9.114-14.324 11.789-22.29 2.675-7.975 4.073-16.38 4.073-24.895v-71.226l.206-11.27c.942-3.574-.277-32.127-12.759-63.702z" fill="#e3a76f"/><path d="m226.575 310.401 4.18 8.401c7.83 20.659 35.56 21.045 43.39.386l3.839-8.891c.107-.283.386-.643.441-.927.573-2.999-1.721-5.921-4.917-5.921h-42.516c-3.196 0-5.489 2.922-4.917 5.921 0 .001.392.749.5 1.031z" fill="#f8f7f7"/><path d="m278.42 309.37c-.05.28-.13.57-.24.85l-3.49 9.21c-7.83 20.66-37.05 20.66-44.88 0l-3.49-9.21c-.11-.28-.195-.569-.245-.849 11.6 15.41 40.745 15.409 52.345-.001z" fill="#e8e8e8"/><g><g><path d="m252.25 279.5c-11.274 0-21.631-5.081-28.414-13.94-2.518-3.289-1.894-7.997 1.396-10.515 3.29-2.519 7.997-1.892 10.515 1.396 3.922 5.122 9.937 8.06 16.504 8.06s12.582-2.938 16.504-8.06c2.518-3.288 7.226-3.915 10.515-1.396 3.289 2.518 3.913 7.226 1.396 10.515-6.785 8.859-17.142 13.94-28.416 13.94z" fill="#d6995c"/></g><g><path d="m300.557 237.093c-4.143 0-7.5-3.358-7.5-7.5v-15c0-4.142 3.357-7.5 7.5-7.5s7.5 3.358 7.5 7.5v15c0 4.142-3.358 7.5-7.5 7.5z" fill="#d6995c"/></g><g><path d="m203.945 237.093c-4.143 0-7.5-3.358-7.5-7.5v-15c0-4.142 3.357-7.5 7.5-7.5s7.5 3.358 7.5 7.5v15c0 4.142-3.357 7.5-7.5 7.5z" fill="#d6995c"/></g><g><g><path d="m325.791 202.298c-1.097 0-2.211-.242-3.265-.752l-9.001-4.361c-7.933-3.844-17.045-3.872-25.003-.08-3.738 1.78-8.215.195-9.997-3.544s-.195-8.215 3.544-9.997c12.092-5.763 25.939-5.719 37.997.122l9.001 4.361c3.728 1.806 5.285 6.292 3.479 10.02-1.295 2.673-3.97 4.23-6.755 4.231z" fill="#d6995c"/></g><g><path d="m178.709 202.298c-2.785 0-5.46-1.558-6.755-4.231-1.807-3.728-.249-8.214 3.479-10.02l9.001-4.361c12.056-5.841 25.905-5.886 37.996-.123 3.739 1.782 5.326 6.258 3.544 9.997-1.783 3.74-6.262 5.323-9.997 3.544-7.958-3.793-17.071-3.763-25.002.081l-9.001 4.361c-1.054.51-2.168.752-3.265.752z" fill="#d6995c"/></g></g><g><path d="m284.306 164.991c-.683 0-1.376-.094-2.064-.291-19.619-5.605-40.363-5.605-59.982 0-3.985 1.14-8.134-1.168-9.272-5.151-1.138-3.982 1.169-8.134 5.151-9.271 22.316-6.376 45.908-6.376 68.225 0 3.982 1.138 6.289 5.289 5.151 9.271-.943 3.294-3.946 5.442-7.209 5.442z" fill="#d6995c"/></g><g><g><path d="m309.854 310.954c-2.251 0-4.477-1.009-5.954-2.932-5.813-7.569-9.887-17.027-11.78-27.353l-.241-1.317c-.747-4.074 1.951-7.982 6.025-8.729 4.08-.75 7.981 1.951 8.729 6.025l.241 1.316c1.466 7.995 4.552 15.229 8.923 20.919 2.522 3.285 1.905 7.994-1.38 10.517-1.361 1.047-2.969 1.554-4.563 1.554z" fill="#d6995c"/></g><g><path d="m194.646 310.954c-1.594 0-3.201-.506-4.562-1.553-3.285-2.523-3.902-7.231-1.38-10.517 4.371-5.69 7.457-12.924 8.923-20.92l.241-1.315c.746-4.075 4.661-6.774 8.729-6.025 4.074.746 6.772 4.654 6.025 8.729l-.241 1.316c-1.894 10.327-5.967 19.785-11.78 27.354-1.479 1.922-3.705 2.931-5.955 2.931z" fill="#d6995c"/></g></g></g><path d="m339.848 497 96.502-116.622c8.399-11.378.405-27.089-13.435-28.13l-24.205-1.821c-8.65-.651-16.937 3.526-21.619 10.829-36.322 56.651-77.243 135.744-77.243 135.744z" fill="#bde4ff"/><path d="m164.652 497-84.239-101.802-10.956-15.583c-8.399-11.378.197-25.629 14.037-26.67l22.294-1.486c8.65-.651 16.249 2.977 20.931 10.28 2.159 3.368 5.025 6.333 7.208 9.838 34.525 55.455 70.725 125.423 70.725 125.423z" fill="#bde4ff"/><path d="m133.92 371.58c-5.166 1.762-20.215 6.798-25.69 8.71-10.17 3.55-19.52 8.63-27.82 14.91l-9.59-11.6-2.67-3.22c-8.4-11.38-.41-27.09 13.43-28.13l24.21-1.82c7.54-.57 14.81 2.53 19.65 8.18.71.83 1.37 1.71 1.97 2.65 2.16 3.37 4.33 6.81 6.51 10.32z" fill="#99dbff"/><g><path d="m259.75 370v14.84c-2.44.26-4.94.39-7.5.39s-5.06-.13-7.5-.39v-14.84c0-4.14 3.36-7.5 7.5-7.5s7.5 3.36 7.5 7.5z" fill="#d6995c"/></g><g fill="#f8f7f7"><path d="m315.56 497-4.55 7.5"/><path d="m187.15 504.5-4.55-7.5"/></g></g></svg>