<svg id="Capa_1" enable-background="new 0 0 494.743 494.743" height="512" viewBox="0 0 494.743 494.743" width="512" xmlns="http://www.w3.org/2000/svg"><g><path d="m420.451 486.743v-56.495c0-59.374-48.132-107.505-107.505-107.505h-130.989c-59.374 0-104.831 47.952-104.831 107.326v54.33c0 4.418 3.582 8 8 8l4.328 2.344h42.58l9.496-3.573 7.344 3.573h263.578c4.418 0 7.999-3.582 7.999-8z" fill="#857e87"/><path d="m185.903 322.743-3.95 15c-51 0-92.5 41.5-92.5 92.5v64.5h-7c-4.42 0-8-3.58-8-8v-56.49c0-59.38 48.13-107.51 107.5-107.51z" fill="#6f6571"/><g><path d="m387.6 201.415c1.829 0 3.588.237 5.252.679 10.846 2.881 17.693 14.462 14.034 25.807l-4.616 14.311c-3.676 11.395-14.282 19.117-26.254 19.117l-257.009.051c-11.973 0-22.579-7.723-26.254-19.117l-4.616-14.311c-3.28-10.168 1.881-20.527 10.796-24.64 2.558-1.18 5.425-1.846 8.49-1.846z" fill="#f2bb88"/></g><g><path d="m187.873 418.313-39 76.43h-16.84l42.48-83.25c1.88-3.69 6.4-5.15 10.09-3.27s5.15 6.4 3.27 10.09z" fill="#6f6571"/></g><g><path d="m321.951 403.743-101-25 135.037-73.408c4.026-2.26 13.075-6.369 13.075-6.369 10.014-.651 20.053 3.753 26.279 12.367l15.521 21.476c11.845 16.39 4.412 39.566-14.757 46.009l-57.172 19.216-10.51 1.029z" fill="#afefa5"/></g><path d="m338.933 398.033-17.275 5.814-100.705-25.104 42.92-24.09 65.11 35.97c3.71 2.05 7.05 4.55 9.95 7.41z" fill="#8ce1a4"/><path d="m259.663 476.381-159.869-88.589-9.127-7.512c-15.736-8.72-19.455-27.364-8.917-41.945l18.33-23.599c8.885-12.294 25.548-16.021 38.824-8.685l132.788 70.055 50.041 27.651c20.155 11.137 20.767 39.89 1.104 51.875l-33.02 20.126c-9.209 5.612-20.722 5.85-30.154.623z" fill="#afefa5"/><path d="m369.063 298.966c-3.72 8.83-7.91 17.357-12.56 25.487-11.68 20.44-28.26 25.48-40.36 29.16-7.4 2.25-12.1 3.8-15.32 7.2-7.57 8-18.77 12.62-29.13 15.29l-23.2-12.82 107.85-60.54c4.02-2.26 8.37-3.507 12.72-3.777z" fill="#8ce1a4"/><path d="m289.953 369.063c-5.76 3.22-12.16 5.47-18.26 7.04l-16.164-5.759-7.036-7.061 15.38-8.63z" fill="#7ad396"/><path d="m248.493 363.283-110-60.78c-3.459-1.801-7.774-3.542-13.27-3.72v.001c-9.777-.4-19.484 3.998-25.56 12.399l-19.68 27.24c-9.83 13.6-6.51 32.35 6.75 41.89.96.69 1.97 1.33 3.03 1.92l10.03 5.56c10.64-20.528 28.754-36.579 50.712-44.541 1.47-.533 3.109-.298 4.41.569 7.521 5.015 15.175 7.172 21.538 8.962 7.74 2.17 12.31 3.61 16.27 7.9 8.56 9.27 20.56 14.04 31.02 16.49 10.02 2.35 18.62 2.57 21.47 2.57.22 0 12.61-.07 26.48-3.64z" fill="#8ce1a4"/><path d="m373.541 202.786c.028.132.056.264.083.397l-2.608 7.918 2.609 7.083c-3.354 36.325-14.023 70.63-30.141 98.823-14.967 26.179-38.887 17.988-53.559 33.502-10.395 10.991-34.972 14.234-44.707 14.234-9.536 0-30.682-2.551-41.474-14.234-16.306-17.652-38.214-6.595-53.193-33.502-15.695-28.193-25.973-62.498-29.199-98.823l2.784-6.152s-3.229-6.038-2.524-9.012l28.197-119.073c3.385-14.293 16.621-24.034 31.274-23.015l141.891 9.87c13.328.927 24.436 10.555 27.247 23.616z" fill="#f2d1a5"/><path d="m213.199 34.385c-3.333-2.786-8.33-5.518-14.367-5.532-24.122 0-45.074 8.271-62.092 22.789-21.464 16.659-34.373 46.521-34.238 74.172l-2.009 75.801 12.441 1.693h6.193c14.052 0 25.443-11.391 25.443-25.443v-16.946c0-24.241 19.652-43.893 43.893-43.893 13.649 0 25.352-8.329 30.305-20.181l.789-13.826 1.737-10.61z" fill="#e8e8e8"/><path d="m212.198 32.662c-3.612-2.885-9.634-5.801-15.815-5.659-12.06 0-23.61 2.19-34.27 6.19-10.66 4.01-20.44 9.83-28.95 17.09-21.46 16.66-34.37 46.52-34.23 74.17l-.001 78.86 14.001-.01v-72.85c-.14-27.65 12.77-57.51 34.23-74.17 8.51-7.26 18.29-13.08 28.95-17.09 4.506-1.691 9.17-3.058 13.965-4.073 3.575-.757 6.937 1.906 7.169 5.553 1.28 20.057 8.895 40.469 21.519 56.172 1.63-3.9 2.526-8.172 2.526-12.652v-11.1z" fill="#d8d8d8"/><path d="m277.178 118.3c-3.646-.529-7.236-1.422-10.677-2.74-11.275-4.32-21.398-11.02-29.77-19.496-15.244-15.432-24.68-36.76-24.68-60.322 0-19.735 15.985-35.742 35.709-35.742h29.669c31.87 0 60.731 12.932 81.617 33.828 20.885 20.908 33.806 49.791 33.806 81.683l.001 86.583-15.781-.2c-15.193-.195-27.582-12.085-28.572-27.246-.554-8.485-2.219-16.099-6.096-24.209-7.324-15.317-21.942-25.857-38.744-28.295z" fill="#e8e8e8"/><g><g><path d="m279.567 156.909c-.683 0-1.375-.094-2.064-.291-19.62-5.605-40.362-5.605-59.982 0-3.983 1.141-8.134-1.168-9.272-5.15s1.168-8.134 5.151-9.271c22.316-6.377 45.908-6.377 68.225 0 3.982 1.138 6.289 5.289 5.151 9.271-.943 3.294-3.946 5.441-7.209 5.441z" fill="#f2bb88"/></g><g><path d="m247.511 325.759c-8.098 0-16.196-2.972-22.953-8.914-3.11-2.735-3.414-7.475-.679-10.585s7.474-3.414 10.585-.679c7.804 6.863 18.29 6.863 26.094 0 3.11-2.736 7.849-2.431 10.585.679 2.735 3.11 2.432 7.85-.679 10.585-6.757 5.942-14.855 8.914-22.953 8.914z" fill="#f2bb88"/></g><g><path d="m247.511 275.743c-5.272 0-13.105-2.087-20.482-12.032-2.468-3.326-1.771-8.023 1.555-10.491 3.327-2.469 8.024-1.772 10.492 1.556 2.854 3.849 5.85 5.968 8.435 5.968s5.58-2.119 8.435-5.968c2.469-3.328 7.167-4.024 10.492-1.556 3.327 2.468 4.023 7.165 1.555 10.491-7.377 9.945-15.21 12.032-20.482 12.032z" fill="#f2bb88"/></g><g><g><path d="m292.079 306.407c-2.677 0-5.268-1.438-6.619-3.963-3.698-6.911-6.337-15.226-7.631-24.046l-.193-1.318c-.601-4.098 2.235-7.907 6.333-8.508 4.104-.596 7.908 2.235 8.508 6.334l.193 1.316c1.045 7.123 3.125 13.743 6.016 19.144 1.954 3.652.578 8.197-3.074 10.151-1.127.604-2.339.89-3.533.89z" fill="#f2bb88"/></g><g><path d="m202.823 306.409c-1.195 0-2.406-.286-3.533-.89-3.652-1.954-5.028-6.499-3.073-10.151 2.891-5.4 4.971-12.021 6.016-19.147l.193-1.317c.602-4.099 4.414-6.935 8.51-6.33 4.098.602 6.933 4.412 6.331 8.51l-.193 1.316c-1.293 8.819-3.933 17.136-7.632 24.047-1.352 2.525-3.942 3.962-6.619 3.962z" fill="#f2bb88"/></g></g></g><ellipse cx="299.574" cy="210.68" fill="#f8f7f7" rx="29.6" ry="31.785"/><ellipse cx="198.949" cy="210.68" fill="#f8f7f7" rx="29.6" ry="31.785"/><g><path d="m373.623 203.183h-36.99c-3.33-19.32-19.25-34-38.35-34-16.4 0-30.89 10.99-36.51 26.91-8.68-4.42-17.63-4.41-26.32 0-5.56-15.71-19.82-26.91-36.5-26.91-19.1 0-35.03 14.68-38.35 34h-39.03c-.668 2.832-.9 5.75-.708 8.654.14 2.122.293 4.239.486 6.347l39.253-.001c3.32 19.31 19.25 34 38.35 34 20.98 0 38.14-17.74 38.96-39.86 7.47-6.03 13.94-6.03 21.41 0 .81 22.12 17.97 39.86 38.96 39.86 19.1 0 35.02-14.69 38.35-34l36.991.001c.221-2.359.399-4.728.556-7.103.174-2.646 0-5.305-.558-7.898zm-174.67 34c-13.24 0-24-11.89-24-26.5 0-14.62 10.76-26.5 24-26.5 13.23 0 24 11.88 24 26.5 0 14.61-10.77 26.5-24 26.5zm99.33 0c-13.24 0-24-11.89-24-26.5 0-1.84.17-3.68.51-5.46 2.31-12.19 12.19-21.04 23.49-21.04 13.23 0 24 11.88 24 26.5 0 14.61-10.77 26.5-24 26.5z" fill="#857e87"/><g fill="#e8e8e8"><path d="m305.783 204.183v13c0 4.14-3.36 7.5-7.5 7.5s-7.5-3.36-7.5-7.5v-13c0-4.15 3.36-7.5 7.5-7.5s7.5 3.35 7.5 7.5z"/><path d="m206.453 204.183v13c0 4.14-3.36 7.5-7.5 7.5-4.15 0-7.5-3.36-7.5-7.5v-13c0-4.15 3.35-7.5 7.5-7.5 4.14 0 7.5 3.35 7.5 7.5z"/></g></g></g></svg>