<svg id="Capa_1" enable-background="new 0 0 497 497" height="512" viewBox="0 0 497 497" width="512" xmlns="http://www.w3.org/2000/svg"><g><path d="m304.8 399.59-.02.41c-1.47 27.73-11.137 54.26-32.727 71.84l-18.266 14.086c-3.17 2.59-7.73 2.59-10.9 0l-17.983-12.554c-25.98-22.15-32.684-44.962-32.684-73.372l-.02-.41c2.669 2.669 12.628-4.9 13.258-9.87l.172-36.5h85.74l-2.576 9.335 4.838 8.515 2.269 17.91c.629 4.97 4.109 9.11 8.899 10.61z" fill="#f2d1a5"/><path d="m400.82 497h-296.54l-4.973-3.18c-4.35 0-7.64-3.92-6.89-8.21l4.018-24.275c3.28-18.74 16.77-34.14 35-39.97l60.765-21.775.02.41c0 28.41 10.22 48.99 36.2 71.14l14.63 11.91c3.17 2.59 7.73 2.59 10.9 0l14.63-11.91c21.59-17.58 34.73-43.41 36.2-71.14l.02-.41 62.73 19.64c18.23 5.83 31.72 21.23 35 39.97l5.18 29.59c.75 4.29-2.54 8.21-6.89 8.21z" fill="#f8f7f7"/><path d="m193.47 415.96-59.13 18.51c-12.61 4.03-21.85 14.57-24.11 27.49l-5.95 35.04h-8.1c-4.35 0-7.64-3.92-6.89-8.21l5.18-29.59c3.28-18.74 16.77-34.14 35-39.97l62.73-19.64 3.649 6.534z" fill="#e8e8e8"/><path d="m123.16 218.478c-10.449 0-18.919 8.47-18.919 18.919 0 25.6 20.753 46.352 46.352 46.352h195.814c25.6 0 46.352-20.753 46.352-46.352 0-10.449-8.47-18.919-18.919-18.919z" fill="#f2bb88"/><path d="m317.149 64.874c.871-5.161 2.921-14.555 2.921-14.555-3.081-40.517-51.476-56.475-90.611-48.203 0 0-8.56 2.999-12.728 4.588-24.163 9.212-38.694 28.373-32.973 58.943l.585 3.459 133.927 1.651z" fill="#b57f5f"/><path d="m320.071 50.313c-20.94-10.52-44.92-16.109-70.09-16.109l-.75-.01c-14.689 0-28.911 1.935-42.356 5.663-3.893 1.079-7.44-2.627-6.098-6.437 5.007-14.209 15.546-24.659 28.683-31.309-25.924 5.48-47.782 21.593-49.721 48.233 0 .005.001.01.001.015-.348 4.756-.058 9.851.961 15.285l.59 3.46 18.16.22v-.001l118.82 1.431 1.05-5.89c.87-5.161 1.1-10.011.75-14.551z" fill="#9f6e50"/><path d="m150.381 249.362c-16.289-22.06-26.202-49.493-26.202-79.215-.353-52.058 26.809-93.121 71.694-111.425 2.271-.926 6.886-2.885 6.886-2.885 14.605-5.034 30.509-7.708 47.161-7.632 71.571 0 129.597 49.065 129.597 121.942 0 31.766-9.851 60.911-28.212 83.68z" fill="#c38c66"/><path d="m135.32 169.18c0 30.01 7.75 57.8 22.88 80.47l-13.24-.29c-16.29-22.06-24.64-49.49-24.64-79.21-.37-54.72 33.893-97.609 82.513-114.339-40.51 20.74-67.843 62.099-67.513 113.369z" fill="#b57f5f"/><path d="m291.37 353.22h-85.74l-4.53 35.76c-.63 4.97-4.11 9.11-8.9 10.61l.02.41c0 5.6.4 10.9 1.25 15.96l3.51-1.1c10.73-3.36 18.58-12.73 19.99-23.87l.839-6.843c.321-2.621 3.052-4.212 5.494-3.207 9.922 4.08 18.685 6.31 24.757 6.31h.88c13.24 0 29.3-6.61 44.69-16.18z" fill="#f2bb88"/><path d="m351.514 251.885c2.884-36.065-5.741-72.124-24.395-103.125-5.678-9.436-15.885-15.207-26.897-15.207h-103.444c-11.012 0-21.22 5.771-26.897 15.207l-.308.512c-18.646 30.989-27.341 67.032-24.395 103.078.175 2.145 3.732 23.141 6.352 30.454 3.595 10.765 8.022 20.934 13.177 30.271 19.231 34.859 68.686 58.177 83.349 58.177.151 0 .151-.019.889 0 25.106 0 71.064-35.942 83.349-58.177 6.886-12.463 9.583-19.506 13.177-30.271 2.109-5.884 5.712-26.772 6.043-30.919z" fill="#f2d1a5"/><g><path d="m220.328 308.154h56.345c1.625 0 2.861 1.357 2.803 2.891 0 0-.325.58-.391.808-2.199 7.546-11.743 23.203-30.585 23.203s-28.451-15.776-30.65-23.323c-.066-.228-.325-.688-.325-.688-.058-1.534 1.177-2.891 2.803-2.891z" fill="#f8f7f7"/><path d="m279.476 311.045c0 .22-.041.456-.108.684-2.204 7.54-12.023 24.426-30.868 24.426s-28.664-16.886-30.868-24.426c-.068-.228-.108-.464-.108-.684 6.273 6.754 16.471 13.289 30.976 13.289s24.703-6.535 30.976-13.289z" fill="#e8e8e8"/></g><g><g><path d="m291.542 248.682c-4.142 0-7.5-3.357-7.5-7.5v-14.189c0-4.143 3.358-7.5 7.5-7.5s7.5 3.357 7.5 7.5v14.189c0 4.142-3.358 7.5-7.5 7.5z" fill="#f2bb88"/></g><g><path d="m205.458 248.682c-4.142 0-7.5-3.357-7.5-7.5v-14.189c0-4.143 3.358-7.5 7.5-7.5s7.5 3.357 7.5 7.5v14.189c0 4.142-3.357 7.5-7.5 7.5z" fill="#f2bb88"/></g><g><path d="m248.973 280.227c-5.716 0-11.432-1.328-16.642-3.982-3.691-1.881-5.158-6.396-3.278-10.088 1.88-3.69 6.397-5.157 10.087-3.277 6.157 3.137 13.508 3.137 19.666 0 3.688-1.882 8.207-.413 10.087 3.277 1.88 3.691.413 8.207-3.278 10.088-5.21 2.653-10.926 3.982-16.642 3.982z" fill="#f2bb88"/></g><g><path d="m187.579 209.898c-2.451 0-4.854-1.2-6.292-3.407-2.26-3.471-1.279-8.117 2.191-10.378 12.491-8.138 28.422-9.657 42.615-4.065 3.854 1.518 5.747 5.873 4.229 9.727s-5.874 5.75-9.727 4.229c-9.683-3.813-20.498-2.813-28.93 2.679-1.263.822-2.683 1.215-4.086 1.215z" fill="#f2bb88"/></g><g><path d="m309.421 209.898c-1.404 0-2.823-.394-4.086-1.217-8.432-5.49-19.246-6.491-28.93-2.679-3.854 1.519-8.208-.375-9.727-4.229-1.518-3.854.375-8.209 4.229-9.727 14.192-5.594 30.122-4.072 42.615 4.065 3.471 2.261 4.452 6.907 2.191 10.378-1.439 2.209-3.841 3.409-6.292 3.409z" fill="#f2bb88"/></g></g><g><path d="m350.527 485.927h-54.242c-4.142 0-7.5-3.357-7.5-7.5s3.358-7.5 7.5-7.5h54.242c4.142 0 7.5 3.357 7.5 7.5s-3.358 7.5-7.5 7.5z" fill="#bde4ff"/></g></g></svg>