<svg id="Capa_1" enable-background="new 0 0 497 497" height="512" viewBox="0 0 497 497" width="512" xmlns="http://www.w3.org/2000/svg"><g><path d="m309.853 384.475-2.328-40.215-3.123-9.696 1.304-21.733h-115.462l3.02 40.504-7.271 31.139 61.93 87.76z" fill="#e3a76f"/><path d="m344.624 392.25-72.754 100.681c-1.71 2.19-9.642 4.039-12.412 4.039l-22.194.03c-2.77 0-7.197-.062-8.907-2.252l-77.093-102.478c5.625-1.264 12.152 1.527 17.78.263 5.949-1.336 10.999-6.727 16.95-8.063l59.6 73.85c1.2 1.5 3.48 1.5 4.68 0l59.58-73.85z" fill="#bde4ff"/><path d="m258.603 497c2.77 0 5.391-1.3 7.101-3.49l78.92-101.26 55.3 12.36c27.27 9.01 47.35 31.11 52.17 59.16l5.77 33.23z" fill="#f8f7f7"/><path d="m237.264 497h-183.85l-5.753-1.663c-3.72 0-6.54-3.36-5.91-7.03l4.128-24.11c2.99-17.27 12.393-30.527 25.073-41.667 3.24-2.78 7.38-5.86 12.48-8.72 7.16-4.02 13.85-6.27 19.05-7.58 17.16-3.86 48.782-13.96 48.782-13.96l78.9 101.24c1.71 2.19 4.33 3.49 7.1 3.49z" fill="#f8f7f7"/><path d="m197.194 398.35-1.21.27-33.84 7.61-13.137-4.235 2.257-9.725c11.57-2.6 23.15-5.2 34.73-7.8l9.912 2.113z" fill="#99dbff"/><path d="m305.704 312.83h-99.43-16.03l-4.25 71.64 11.2 13.88.003-.001c2.402-.538 4.157-2.602 4.303-5.059l1.767-29.79c.213-3.59 4.037-5.795 7.24-4.161 11.469 5.848 24.133 8.911 37.116 8.911 16.49 0 32.43-4.91 46.09-14.19 4.78-3.24 9.38-6.51 13.81-9.8z" fill="#d6995c"/><path d="m162.144 406.23-.33.07-7.04 1.58-51.29 11.53c-5.24 1.34-10.27 3.35-14.94 5.97-3.5 1.96-6.8 4.27-9.82 6.85-10.09 8.89-16.9 21.1-19.21 34.39l-6.1 30.38h-8.28c-3.72 0-6.54-3.36-5.91-7.03l4.53-26.09c2.99-17.27 11.8-32.59 24.48-43.73 3.24-2.78 7.38-5.86 12.48-8.72 7.16-4.02 13.85-6.27 19.05-7.58 17.16-3.86 34.33-7.72 51.5-11.58z" fill="#e8e8e8"/><g><path d="m382.014 484.457h-63.273c-4.143 0-7.5-3.357-7.5-7.5s3.357-7.5 7.5-7.5h63.273c4.143 0 7.5 3.357 7.5 7.5s-3.357 7.5-7.5 7.5z" fill="#bde4ff"/></g><path d="m373.173 179.674h7.005c16.743 0 30.317 13.57 30.317 30.309 0 23.089-18.722 41.806-41.816 41.806h-241.489c-23.094 0-41.816-18.717-41.816-41.806 0-16.739 13.573-30.309 30.317-30.309h7.005z" fill="#d6995c"/><path d="m373.181 174.903c0 53.026-1.326 75.003-22.681 105.187-17.611 24.891-44.165 46.059-65.771 60.733-22.119 15.022-51.064 15.253-73.385.533-21.812-14.384-48.456-35.435-65.975-61.266-21.651-29.973-22.681-52.162-22.681-105.187l14.1-76.321 216-32.936z" fill="#e3a76f"/><g><g><path d="m295.5 211.202c-4.143 0-7.5-3.357-7.5-7.5v-15.677c0-4.143 3.357-7.5 7.5-7.5s7.5 3.357 7.5 7.5v15.677c0 4.143-3.358 7.5-7.5 7.5z" fill="#d6995c"/></g><g><path d="m200.368 211.202c-4.142 0-7.5-3.357-7.5-7.5v-15.677c0-4.143 3.358-7.5 7.5-7.5s7.5 3.357 7.5 7.5v15.677c0 4.143-3.358 7.5-7.5 7.5z" fill="#d6995c"/></g><g><path d="m315.879 169.395c-1.238 0-2.492-.307-3.65-.953-9.848-5.501-23.608-5.499-33.456 0-3.62 2.021-8.186.726-10.205-2.891-2.02-3.617-.726-8.186 2.891-10.205 14.38-8.031 33.703-8.031 48.085 0 3.616 2.02 4.91 6.588 2.891 10.205-1.375 2.458-3.927 3.844-6.556 3.844z" fill="#d6995c"/></g><g><path d="m220.747 169.395c-1.238 0-2.492-.307-3.65-.953-9.85-5.5-23.608-5.5-33.458 0-3.616 2.021-8.185.726-10.205-2.892-2.02-3.616-.725-8.185 2.892-10.204 14.381-8.03 33.704-8.031 48.084 0 3.616 2.02 4.911 6.588 2.892 10.204-1.373 2.459-3.925 3.845-6.555 3.845z" fill="#d6995c"/></g><g><path d="m248.457 251.281c-6.194 0-12.387-1.438-18.034-4.315-3.69-1.88-5.158-6.396-3.278-10.087 1.88-3.692 6.396-5.159 10.087-3.278 7.029 3.581 15.421 3.581 22.448 0 3.691-1.879 8.207-.412 10.088 3.277 1.881 3.691.413 8.207-3.277 10.088-5.647 2.877-11.84 4.315-18.034 4.315z" fill="#d6995c"/></g></g><path d="m373.173 179.674s-26.269-35.479-29.085-78.884c-.225-3.465-3.876-5.601-7.042-4.176-52.891 23.802-133.865 24.603-183.069 20.053-2.469-.228-4.715 1.386-5.305 3.795-3.768 15.403-10.074 29.918-15.529 40.721l-10.456 10.059c-18.449-45.547-18.621-63.491-17.386-80.367 1.625-22.204 8.24-35.783 19.211-44.477 8.051-6.38 26.292-11.936 26.292-11.936 1.445-.12 2.882-.179 4.306-.179 53.254 0 103.256-17.116 119.031-25.883 21.435-11.915 52.664-13.232 80.75 9.793 15.348 12.584 27.921 29.927 31.788 45.042 11.019 43.077-7.268 101.037-13.506 116.439z" fill="#857e87"/><path d="m119.184 86.28c-1.1 15.01.599 37.994 13.959 74.904-5.68 11.26-10.449 18.486-10.449 18.486-18.45-45.54-20.75-72.51-19.51-89.39 2.81-38.49 26.03-54.016 47.62-55.816-15.839 6.89-29.5 22.856-31.62 51.816z" fill="#6f6571"/><path d="m214.566 274.876h66.736c1.925 0 3.388 1.607 3.32 3.424 0 0-.385.686-.463.957-2.604 8.938-13.909 27.482-36.225 27.482s-33.698-18.686-36.303-27.624c-.079-.27-.385-.815-.385-.815-.068-1.816 1.395-3.424 3.32-3.424z" fill="#f8f7f7"/><path d="m284.622 278.3c0 .26-.048.54-.128.81-2.61 8.93-14.24 28.93-36.56 28.93s-33.95-20-36.56-28.93c-.08-.27-.128-.55-.128-.81 7.43 8 19.508 15.74 36.688 15.74s29.258-7.74 36.688-15.74z" fill="#e8e8e8"/></g></svg>