<svg id="Capa_1" enable-background="new 0 0 495.616 495.616" height="512" viewBox="0 0 495.616 495.616" width="512" xmlns="http://www.w3.org/2000/svg"><g><g><path d="m443.787 400.656 4.021-14.01v-16.031l-5.17-28.882 5.17-31.118v-67.308l-393 .308v156.71z" fill="#ff8086"/></g><g><path d="m447.808 386.646v21.6l-400-.35v-37.28l8.489-28.245-8.489-31.755v-66.99l14-.01v132.718c0 5.52 4.472 9.995 9.992 10z" fill="#e5646e"/></g><g><path d="m53.574 310.616h394.234v60h-394.234z" fill="#f8f7f7"/></g><g><path d="m47.808 310.616h14v60h-14z" fill="#e8e8e8"/></g><g><path d="m280.308 425.605v44.979h-65v-44.895z" fill="#d8d8d8"/></g><g><g><path d="m247.808 96.7c-4.142 0-7.5-3.358-7.5-7.5v-39.17c0-4.142 3.358-7.5 7.5-7.5 4.143 0 7.5 3.358 7.5 7.5v39.17c0 4.143-3.358 7.5-7.5 7.5z" fill="#e8e8e8"/></g><path d="m269.974 33.449c0-12.598-13.502-26.749-19.431-32.355-1.539-1.455-3.938-1.458-5.48-.007-.998.939-2.211 2.12-3.537 3.494 0 0-14.592 18.313-14.592 28.869 0 12.242 8.63 20.475 20.872 20.475 9.146 0 16.421-3.998 19.809-11.904.438-1.021 1.659-3.025 1.659-3.025.458-1.774.7-3.632.7-5.547z" fill="#ffe07d"/><path d="m269.277 38.988c-2.46 9.56-11.139 16.627-21.469 16.627-12.24 0-22.17-9.92-22.17-22.17 0-10.56 9.339-22.076 15.889-28.866-2.85 4.78-4.889 9.926-4.889 14.866 0 12.25 9.93 22.17 22.17 22.17 3.79 0 7.349-.957 10.469-2.627z" fill="#ffd064"/></g><g><g><path d="m364.812 96.7c-4.142 0-7.5-3.358-7.5-7.5v-39.17c0-4.142 3.358-7.5 7.5-7.5 4.143 0 7.5 3.358 7.5 7.5v39.17c0 4.143-3.357 7.5-7.5 7.5z" fill="#e8e8e8"/></g><path d="m386.979 33.449c0-12.598-13.502-26.749-19.431-32.355-1.539-1.455-3.938-1.458-5.48-.007-.998.939-2.211 2.12-3.537 3.494 0 0-14.592 18.313-14.592 28.869 0 12.242 8.63 20.475 20.872 20.475 9.146 0 16.421-3.998 19.809-11.904.438-1.021 1.659-3.025 1.659-3.025.457-1.774.7-3.632.7-5.547z" fill="#ffe07d"/><path d="m386.281 38.988c-2.46 9.56-11.139 16.627-21.469 16.627-12.24 0-22.17-9.92-22.17-22.17 0-10.56 9.339-22.076 15.889-28.866-2.85 4.78-4.889 9.926-4.889 14.866 0 12.25 9.93 22.17 22.17 22.17 3.79 0 7.349-.957 10.469-2.627z" fill="#ffd064"/></g><g><g><path d="m130.807 96.7c-4.142 0-7.5-3.358-7.5-7.5v-39.17c0-4.142 3.358-7.5 7.5-7.5 4.143 0 7.5 3.358 7.5 7.5v39.17c0 4.143-3.358 7.5-7.5 7.5z" fill="#e8e8e8"/></g><path d="m152.973 33.449c0-12.598-13.502-26.749-19.431-32.355-1.539-1.455-3.938-1.458-5.48-.007-.998.939-2.211 2.12-3.537 3.494 0 0-14.592 18.313-14.592 28.869 0 12.242 8.63 20.475 20.872 20.475 9.146 0 16.421-3.998 19.809-11.904.438-1.021 1.659-3.025 1.659-3.025.457-1.774.7-3.632.7-5.547z" fill="#ffe07d"/><path d="m152.275 38.988c-2.46 9.56-11.139 16.627-21.469 16.627-12.24 0-22.17-9.92-22.17-22.17 0-10.56 9.339-22.076 15.889-28.866-2.85 4.78-4.889 9.926-4.889 14.866 0 12.25 9.93 22.17 22.17 22.17 3.791 0 7.349-.957 10.469-2.627z" fill="#ffd064"/></g><g fill="#bde4ff"><path d="m407.115 216.615v-26.232c0-1.668-1.352-3.021-3.021-3.021h-19.13c-1.668 0-3.021-1.352-3.021-3.021v-97.705c0-1.668-1.352-3.021-3.021-3.021h-30.407c-1.133 0-2.171.634-2.688 1.642l-17.055 33.256c-1.024 1.996.426 4.369 2.669 4.369h13.227c1.105 0 2 .895 2 2v59.459c0 1.668-1.352 3.021-3.021 3.021h-18.124c-1.668 0-3.021 1.352-3.021 3.021v26.232l41.956 11.543z"/><path d="m173.11 216.615v-26.232c0-1.668-1.352-3.021-3.021-3.021h-19.13c-1.668 0-3.021-1.352-3.021-3.021v-97.705c0-1.668-1.352-3.021-3.021-3.021h-30.407c-1.133 0-2.171.634-2.688 1.642l-17.055 33.256c-1.024 1.996.426 4.369 2.669 4.369h13.227c1.105 0 2 .895 2 2v59.459c0 1.668-1.352 3.021-3.021 3.021h-18.121c-1.668 0-3.021 1.352-3.021 3.021v26.232l38.095 11.543z"/><path d="m247.808 216.615c-27.42 0-49.729-22.308-49.729-49.729v-33.543c0-27.42 22.308-49.729 49.729-49.729s49.728 22.308 49.728 49.729v33.543c0 27.421-22.308 49.729-49.728 49.729zm0-97.891c-8.134 0-14.728 6.594-14.728 14.728v33.327c0 8.134 6.594 14.728 14.728 14.728 8.134 0 14.728-6.594 14.728-14.728v-33.327c0-8.134-6.594-14.728-14.728-14.728z"/></g><path d="m471.308 400.616c8.284 0 15 6.716 15 15 0 .336-.011.67-.033 1 0 0-9.817 12.138-17.765 12.138l-443.872-.085c-8.284 0-13.66-4.769-13.66-13.053 0-7.962 12.369-14.97 12.369-14.97.318-.02.638-.03.961-.03z" fill="#f8f7f7"/><path d="m486.275 416.616c-.24 3.74-1.867 7.11-4.367 9.6-2.71 2.72-6.46 4.4-10.6 4.4h-447c-8.28 0-15-6.72-15-15 0-4.14 1.68-7.89 4.4-10.6 2.5-2.51 5.879-4.14 9.639-4.37-.03.32-.039.65-.039.97 0 8.28 6.72 15 15 15z" fill="#e8e8e8"/><path d="m333.531 494.413-170.957-.17c-2.761 0-5-2.239-5-5v-.957c0-9.601 14.523-22.226 14.523-22.226 1.358-.291 2.767-.444 4.211-.444h143c9.665 0 17.729 6.856 19.594 15.969 0 0-.051 2.65-.051 4.031l-.319 3.798c-.001 2.761-2.239 4.999-5.001 4.999z" fill="#f8f7f7"/><path d="m339.308 485.616v5c0 2.76-2.24 5-5 5h-173c-2.76 0-5-2.24-5-5v-5c0-9.6 6.76-17.62 15.79-19.55-.52 1.76-.79 3.63-.79 5.55v3c0 3.87 3.13 7 7 7l160.594-.031c.259 1.29.406 2.661.406 4.031z" fill="#e8e8e8"/><path d="m54.776 217.121c-11.598 0-20.649 8.652-20.649 20.25 0 5.523 3.647 9.745 9.17 9.745l2.511.5h16.5c.383 0 .763.015 1.139.046 7.199.58 13.616 3.999 13.616 11.348l.34 7.574c0 7.732 5.172 13.745 12.904 13.745 2.347 0 6.501-1.081 6.501-1.081 4.458-2.342 7.499-7.017 7.499-12.402v-5.23c0-7.732 6.268-14 14-14h61.5c.416 0 .827.018 1.234.054 2.57.224 5.57.256 7.553 1.68 3.537 2.541 6.894 7.589 6.894 12.277l-.255 64.596c0 7.732 4.842 13.915 12.574 13.915 2.347 0 6.501-.889 6.501-.889 4.458-2.342 7.499-7.017 7.499-12.402v-65.23c0-7.732 6.268-14 14-14h141.5c.73 0 1.447.056 2.147.164 6.416.081 12.884 4.22 12.884 11.222v5.23c0 7.732 5.236 15.821 12.968 15.821 2.347 0 6.501-.804 6.501-.804 4.458-2.342 7.499-7.017 7.499-12.402v-5.23c0-7.732 6.268-14 14-14h19.5c5.523 0 10-4.477 10-10 0-11.598-9.402-21-21-21h-376.546z" fill="#ffe07d"/><g fill="#ffd064"><path d="m66.808 216.615c-11.6 0-21 9.4-21 21v10h-3c-2.76 0-5.26-1.12-7.07-2.93s-2.93-4.31-2.93-7.07c0-11.6 9.4-21 21-21z"/><path d="m96.809 279.247c-1.94 1.02-4.161 1.598-6.501 1.598-7.73 0-14-6.27-14-14v-5.23c0-7.73-6.27-14-14-14h13c7.73 0 14 6.27 14 14v5.23c0 5.38 3.041 10.062 7.501 12.402z"/><path d="m214.309 339.247c-1.94 1.02-4.161 1.598-6.501 1.598-7.73 0-14-6.27-14-14v-65.23c0-7.73-6.27-14-14-14h13c7.73 0 14 6.27 14 14v65.23c0 5.38 3.041 10.062 7.501 12.402z"/><path d="m411.808 279.246c-1.94 1.02-4.16 1.6-6.5 1.6-7.73 0-14-6.27-14-14v-5.23c0-7.73-6.27-14-14-14h13c7.73 0 14 6.27 14 14v5.23c0 5.379 3.04 10.06 7.5 12.4z"/></g><g fill="#e8e8e8"><path d="m287.827 333.116h-.01c-4.142 0-7.495 3.358-7.495 7.5s3.363 7.5 7.505 7.5c4.143 0 7.5-3.358 7.5-7.5s-3.357-7.5-7.5-7.5z"/><path d="m327.827 333.116h-.01c-4.142 0-7.495 3.358-7.495 7.5s3.363 7.5 7.505 7.5c4.143 0 7.5-3.358 7.5-7.5s-3.357-7.5-7.5-7.5z"/><path d="m367.827 333.116h-.01c-4.142 0-7.495 3.358-7.495 7.5s3.363 7.5 7.505 7.5c4.143 0 7.5-3.358 7.5-7.5s-3.357-7.5-7.5-7.5z"/><path d="m407.827 333.116h-.01c-4.142 0-7.495 3.358-7.495 7.5s3.363 7.5 7.505 7.5c4.143 0 7.5-3.358 7.5-7.5s-3.357-7.5-7.5-7.5z"/><path d="m247.828 333.116h-.01c-4.142 0-7.495 3.358-7.495 7.5s3.363 7.5 7.505 7.5 7.5-3.358 7.5-7.5-3.358-7.5-7.5-7.5z"/><path d="m167.828 333.116h-.01c-4.142 0-7.495 3.358-7.495 7.5s3.363 7.5 7.505 7.5 7.5-3.358 7.5-7.5-3.358-7.5-7.5-7.5z"/><path d="m127.828 333.116h-.01c-4.142 0-7.495 3.358-7.495 7.5s3.363 7.5 7.505 7.5 7.5-3.358 7.5-7.5-3.358-7.5-7.5-7.5z"/><path d="m87.828 333.116h-.01c-4.142 0-7.495 3.358-7.495 7.5s3.363 7.5 7.505 7.5 7.5-3.358 7.5-7.5-3.358-7.5-7.5-7.5z"/></g></g></svg>