<svg id="Capa_1" enable-background="new 0 0 497 497" height="512" viewBox="0 0 497 497" width="512" xmlns="http://www.w3.org/2000/svg"><g><path d="m386 30v30l-139.338 3.794-133.602-3.794v-30l133.82-6.06z" fill="#f8f7f7"/><g><path d="m146.748 84.381h209.252v51.239h-209.252z" fill="#f8f7f7"/></g><g><path d="m141 84.381h16v51.239h-16z" fill="#d8d8d8"/></g><path d="m386 10v20h-275l.986-18.775c0-5.52 4.48-10 10-10l4.014-1.225h250c5.52 0 10 4.48 10 10z" fill="#857e87"/><path d="m386 60v15l-1.142 3.784c0 5.52-4.48 10-10 10l-251.358-1.981c-5.52 0-10-4.48-10-10l-2.5-16.803z" fill="#857e87"/><path d="m126 30v30l-7.904 2.665-7.096-2.665v-30l7.5-3.417z" fill="#d8d8d8"/><path d="m391.151 494.803-285.138-3.529c-8.284 0-15-6.716-15-15l-1.073-286.425c0-15.373 3.105-36.066 13.561-45.747 9.453-8.753 22.101-14.102 35.999-14.102h218c29.271 0 53 23.729 53 53v.5l-4.899 16.89 4.899 13.11v200l-6.248 15 6.248 15v36.5l-2.284 2.032c0 8.284-8.78 12.771-17.065 12.771z" fill="#ff8086"/><path d="m410.5 480v2c0 8.284-6.716 15-15 15h-294c-8.284 0-15-6.716-15-15v-38.5l5.917-12.991-5.917-17.009v-200l7.183-15-7.183-15v-.5c0-15.37 6.55-29.22 17-38.9v315.9c0 11.046 8.954 20 20 20z" fill="#e5646e"/><path d="m90.931 183.5h319.569v30h-319.569z" fill="#f8f7f7"/><path d="m93.243 413.5h317.257v30h-317.257z" fill="#f8f7f7"/><path d="m86.5 183.5h17v30h-17z" fill="#e8e8e8"/><path d="m86.5 413.5h17v30h-17z" fill="#e8e8e8"/><g fill="#f8f7f7"><path d="m152.908 241.24c-.026-.069-.053-.139-.081-.207-1.408-3.42-4.705-5.627-8.402-5.627-.003 0-.007 0-.011 0-3.7.004-6.998 2.22-8.399 5.645-.023.057-.046.114-.067.172l-26.285 69.015c-1.475 3.87.469 8.203 4.34 9.678 3.865 1.475 8.203-.468 9.678-4.34l4.706-12.357h31.879l4.656 12.337c1.133 3.003 3.987 4.854 7.018 4.854.88 0 1.775-.156 2.647-.485 3.875-1.462 5.831-5.789 4.368-9.665zm-18.809 46.978 10.3-27.043 10.206 27.043z"/><path d="m241.768 307.778c2.794-3.878 4.447-8.631 4.447-13.765 0-13.017-10.59-23.606-23.607-23.606h-20.333c-4.143 0-7.5 3.357-7.5 7.5v32.232.053 37.715c0 1.995.795 3.907 2.208 5.315 1.406 1.399 3.309 2.185 5.292 2.185h.033c.002 0 18.698-.083 23.852-.083 14.525 0 26.342-11.816 26.342-26.342-.001-8.687-4.229-16.403-10.734-21.204zm-19.161-22.372c4.746 0 8.607 3.86 8.607 8.606s-3.861 8.607-8.607 8.607c-1.471 0-4.221.008-7.234.019h-5.599v-17.232zm3.552 54.917c-2.996 0-10.559.028-16.385.052v-22.715c1.808-.007 3.748-.015 5.594-.021h10.791c6.254 0 11.342 5.088 11.342 11.343 0 6.253-5.088 11.341-11.342 11.341z"/><path d="m335.146 367.277c-3.176-2.661-7.904-2.244-10.565.931-.646.771-1.346 1.493-2.081 2.147-3.763 3.352-8.548 5.051-14.221 5.051-15.163 0-27.5-12.337-27.5-27.5s12.337-27.5 27.5-27.5c5.512 0 10.827 1.622 15.371 4.692 3.433 2.318 8.094 1.416 10.413-2.017 2.318-3.432 1.416-8.094-2.017-10.413-7.033-4.751-15.252-7.263-23.768-7.263-23.435 0-42.5 19.065-42.5 42.5s19.065 42.5 42.5 42.5c9.329 0 17.696-3.061 24.195-8.849 1.277-1.137 2.489-2.387 3.603-3.715 2.662-3.173 2.245-7.903-.93-10.564z"/></g><g><path d="m381.02 376h-.01c-4.142 0-7.495 3.357-7.495 7.5s3.363 7.5 7.505 7.5c4.143 0 7.5-3.357 7.5-7.5s-3.358-7.5-7.5-7.5z" fill="#e5646e"/><path d="m356.02 376h-.01c-4.142 0-7.495 3.357-7.495 7.5s3.363 7.5 7.505 7.5c4.143 0 7.5-3.357 7.5-7.5s-3.358-7.5-7.5-7.5z" fill="#e5646e"/><g><path d="m380 250h-178c-4.143 0-7.5-3.357-7.5-7.5s3.357-7.5 7.5-7.5h178c4.143 0 7.5 3.357 7.5 7.5s-3.357 7.5-7.5 7.5z" fill="#e5646e"/></g><g><path d="m380 280h-107c-4.143 0-7.5-3.357-7.5-7.5s3.357-7.5 7.5-7.5h107c4.143 0 7.5 3.357 7.5 7.5s-3.357 7.5-7.5 7.5z" fill="#e5646e"/></g><g><path d="m380 310h-26c-4.143 0-7.5-3.357-7.5-7.5s3.357-7.5 7.5-7.5h26c4.143 0 7.5 3.357 7.5 7.5s-3.357 7.5-7.5 7.5z" fill="#e5646e"/></g><g><path d="m172 361h-55c-4.143 0-7.5-3.357-7.5-7.5s3.357-7.5 7.5-7.5h55c4.143 0 7.5 3.357 7.5 7.5s-3.357 7.5-7.5 7.5z" fill="#e5646e"/></g><g><path d="m192 391h-75c-4.143 0-7.5-3.357-7.5-7.5s3.357-7.5 7.5-7.5h75c4.143 0 7.5 3.357 7.5 7.5s-3.357 7.5-7.5 7.5z" fill="#e5646e"/></g></g><g fill="#6f6571"><path d="m126 0v30h-15v-20c0-5.52 4.48-10 10-10z"/><path d="m386 75v5c0 5.523-4.477 10-10 10h-255c-5.523 0-10-4.477-10-10v-20h15v4c0 6.075 4.925 11 11 11z"/></g></g></svg>