<svg id="Capa_1" enable-background="new 0 0 497 497" height="512" viewBox="0 0 497 497" width="512" xmlns="http://www.w3.org/2000/svg"><g><path d="m350.335 148.585c0-11.231-9.104-20.335-20.335-20.335-2.903 0-5.664.608-8.162 1.704 0 0-3.212 2.424-4.714 3.704-4.376 3.73-7.459 8.726-7.459 14.927 0 11.231 9.104 20.335 20.335 20.335 8.649 0 15.354-5.583 18.294-13.195.574-1.486 1.872-4.504 1.872-4.504.111-.863.169-1.743.169-2.636z" fill="#ff8086"/><path d="m350.166 151.221c-1.29 9.99-9.826 17.699-20.166 17.699-11.23 0-20.33-9.1-20.33-20.34 0-8.33 5.008-15.495 12.168-18.625-.11.86-.168 1.735-.168 2.625 0 11.24 9.1 20.34 20.33 20.34 2.9 0 5.666-.609 8.166-1.699z" fill="#e5646e"/><path d="m321.009 151.505c0-8.977-7.277-16.255-16.255-16.255-1.698 0-3.335.26-4.874.743 0 0-4.177 2.607-5.959 4.312-3.092 2.959-4.459 6.581-4.459 11.2 0 8.977 6.314 16.255 15.291 16.255 6.715 0 11.914-4.243 14.392-10.053.391-.916 1.483-2.696 1.483-2.696.25-1.13.381-2.303.381-3.506z" fill="#ff8086"/><path d="m320.63 155.01c-1.6 7.29-8.11 12.75-15.88 12.75-8.97 0-16.25-7.28-16.25-16.26 0-7.27 4.791-13.437 11.381-15.507-.25 1.13-.381 2.297-.381 3.507 0 8.98 7.28 16.26 16.25 16.26 1.7 0 3.34-.26 4.88-.75z" fill="#e5646e"/><path d="m371.95 192.241-106.982-.33c-8.284 0-15.138-5.376-15.138-13.661 0-7.992 4.42-14.524 12.299-14.975.288-.016.578-.025.87-.025h111c8.284 0 15 6.716 15 15 0 .678-.045 1.346-.132 2.001-.978 7.338-9.312 11.99-16.917 11.99z" fill="#ffe07d"/><path d="m388.868 180.251c-.44 3.34-1.998 6.329-4.268 8.599-2.71 2.72-6.46 4.4-10.6 4.4l-54.585 5.596-56.415-5.596c-8.28 0-15-6.72-15-15 0-4.14 1.68-7.89 4.4-10.6 2.52-2.53 5.93-4.165 9.73-4.375-.09.64-.13 1.305-.13 1.975 0 8.28 6.72 15 15 15z" fill="#ffd064"/><path d="m371.95 222.195-106.982-.33c-8.284 0-15.138-5.376-15.138-13.661 0-7.992 4.42-14.524 12.299-14.975.288-.016.578-.025.87-.025h111c8.284 0 15 6.716 15 15 0 .678-.045 1.346-.132 2.001-.978 7.338-9.312 11.99-16.917 11.99z" fill="#ffe07d"/><path d="m388.868 210.205c-.44 3.34-1.998 6.329-4.268 8.599-2.71 2.72-6.46 4.4-10.6 4.4l-54.585 5.596-56.415-5.596c-8.28 0-15-6.72-15-15 0-4.14 1.68-7.89 4.4-10.6 2.52-2.53 5.93-4.165 9.73-4.375-.09.64-.13 1.305-.13 1.975 0 8.28 6.72 15 15 15z" fill="#ffd064"/><path d="m375.454 258.626h-167.679l46.105-35.479h158.12c1.105 0 2 .895 2 2v.584c0 7.685-2.511 14.784-6.758 20.52-6.289 8.493-20.409 12.375-31.788 12.375z" fill="#f8f7f7"/><path d="m407.24 246.25c-6.29 8.5-16.38 14-27.76 14l-51.36 5.862-128.69-5.862c-19.07 0-34.52-15.45-34.52-34.52v-.58c0-1.11.9-2 2-2h13.93c4.72 13.46 17.52 23.1 32.59 23.1z" fill="#e8e8e8"/><path d="m254 225.15c.302 12.569-6.931 28.996-16.638 38.265l-35.562-2.417 12.691-24.088 22.509-13.76h16.88c.08.66.12 1.32.12 2z" fill="#e8e8e8"/><path d="m249.12 246.25c-2.67 5.91-6.27 11.48-10.38 15.79l-39.31-1.79 14-14z" fill="#d8d8d8"/><g><path d="m106.392 212.812c-.786 0-1.585-.124-2.373-.387l-35.378-11.792c-15.337-5.112-25.641-19.409-25.641-35.575v-2.521c0-15.191 12.359-27.551 27.551-27.551h30.655c4.142 0 7.5 3.357 7.5 7.5s-3.358 7.5-7.5 7.5h-30.655c-6.921 0-12.551 5.63-12.551 12.551v2.521c0 9.7 6.183 18.278 15.385 21.346l35.377 11.792c3.93 1.31 6.053 5.558 4.744 9.487-1.047 3.142-3.974 5.129-7.114 5.129z" fill="#d8d8d8"/></g><g><path d="m34 219.25h-20l-3.335.697c-5.523 0-10 4.477-10 10l.165 30.303h41.284l1.885-14v-17c.001-5.523-4.476-10-9.999-10z" fill="#b57f5f"/><path d="m44 246.25v14l-22.665 4.156-21.335-4.156v-31c0-5.523 4.477-10 10-10h4v20c0 3.866 3.134 7 7 7z" fill="#9f6e50"/></g><g><path d="m24.756 437.25h-7.906l-6.985-.815c-3.202 0-5.579-2.968-4.879-6.093l31.376-130.092 59.229.08-4.909 13.951-61.474 120.245c-.855 1.672-2.575 2.724-4.452 2.724z" fill="#b57f5f"/></g><g><path d="m98.256 299.458-7.576 14.822-38.278-.017c-4.683-.002-8.739 3.245-9.763 7.815l-25.789 115.172h-8.11c-3.2 0-5.58-2.97-4.88-6.09l29.434-131.394 29.711-8.773z" fill="#9f6e50"/></g><g><path d="m468.83 432.709-66.743-132.379 61.728-.08-2.058 7.972 5.2 6.056 26.178 116.879c.7 3.125-1.677 6.093-4.879 6.093h-3.346l-11.628-1.817c-1.878 0-3.597-1.052-4.452-2.724z" fill="#b57f5f"/></g><g><path d="m484.91 437.25h-12.67c-1.87 0-3.59-1.05-4.45-2.72l-68.813-134.619 34.651-7.596 30.182 7.936 3.14 14.03-33.465.015c-5.23.002-8.61 5.53-6.23 10.187z" fill="#9f6e50"/></g><g><path d="m487 219.25h-20l-3.335.697c-5.523 0-10 4.477-10 10l.165 30.303h41.284l1.885-14v-17c.001-5.523-4.476-10-9.999-10z" fill="#b57f5f"/><path d="m497 246.25v14l-22.665 4.156-21.335-4.156v-31c0-5.523 4.477-10 10-10h4v20c0 3.866 3.134 7 7 7z" fill="#9f6e50"/></g><path d="m156.5 248.735c-34.977 0-61.129-28.344-61.129-63.32l-.358-52.128c0-1.105.895-2 2-2l11.156-1.537h109.661c1.105 0 2 .895 2 2v53.654c0 8.017-1.49 15.687-4.208 22.747 0 0-5.206 6.778-7.187 10.016-11.127 18.189-29.051 30.568-51.935 30.568z" fill="#f8f7f7"/><path d="m128.258 208.15c-10.433 0-19.232-8.01-19.941-18.418-.097-1.427-.147-2.872-.147-4.332v-55.65h-13c-1.105 0-2 .895-2 2v53.65c0 8.019 1.49 15.69 4.208 22.751.003.007.008.013.011.02 9.136 23.729 32.16 40.569 59.111 40.569 26.96 0 49.99-16.85 59.12-40.59z" fill="#e8e8e8"/><g><path d="m200.454 258.626-86.561-.743c-19.064 0-37.447-10.248-37.447-29.312v-.584c0-1.105.895-2 2-2l11.483-2.84h147.071c1.105 0 2 .895 2 2v.584c0 7.685-2.511 14.784-6.758 20.52-6.289 8.493-20.409 12.375-31.788 12.375z" fill="#f8f7f7"/><path d="m232.24 246.25c-6.29 8.5-16.38 14-27.76 14l-51.36 5.862-44.6-5.862c-19.07 0-34.52-15.45-34.52-34.52v-.58c0-1.11.9-2 2-2h13.93c4.72 13.46 17.52 23.1 32.59 23.1z" fill="#e8e8e8"/></g><g><g><path d="m122 103.75c-4.142 0-7.5-3.357-7.5-7.5 0-9.389 3.121-14.416 5.628-18.455 2.03-3.271 3.372-5.434 3.372-10.545 0-4.143 3.358-7.5 7.5-7.5s7.5 3.357 7.5 7.5c0 9.389-3.121 14.416-5.628 18.455-2.03 3.271-3.372 5.434-3.372 10.545 0 4.143-3.358 7.5-7.5 7.5z" fill="#e8e8e8"/></g><g><path d="m152 103.75c-4.142 0-7.5-3.357-7.5-7.5 0-9.389 3.121-14.416 5.628-18.455 2.03-3.271 3.372-5.434 3.372-10.545 0-4.143 3.358-7.5 7.5-7.5s7.5 3.357 7.5 7.5c0 9.389-3.121 14.416-5.628 18.455-2.03 3.271-3.372 5.434-3.372 10.545 0 4.143-3.358 7.5-7.5 7.5z" fill="#e8e8e8"/></g><g><path d="m182 103.75c-4.142 0-7.5-3.357-7.5-7.5 0-9.389 3.121-14.416 5.628-18.455 2.03-3.271 3.372-5.434 3.372-10.545 0-4.143 3.358-7.5 7.5-7.5s7.5 3.357 7.5 7.5c0 9.389-3.121 14.416-5.628 18.455-2.03 3.271-3.372 5.434-3.372 10.545 0 4.143-3.358 7.5-7.5 7.5z" fill="#e8e8e8"/></g></g><path d="m485.867 299.305-473.395-1.046c-5.523 0-10-4.477-10-10l.312-25.78 11.216-2.229h483v26l-1.133 3.055c0 5.523-4.477 10-10 10z" fill="#c38c66"/><path d="m497 286.25v4c0 5.523-4.477 10-10 10h-477c-5.523 0-10-4.477-10-10v-30h14v15c0 6.075 4.925 11 11 11z" fill="#b57f5f"/></g></svg>