<svg id="Capa_1" enable-background="new 0 0 497 497" height="512" viewBox="0 0 497 497" width="512" xmlns="http://www.w3.org/2000/svg"><g><g fill="#bde4ff"><path d="m70 497-24.647-2.674c-23.748 0-43-19.252-43-43l.395-335.386c0-11.017 3.488-25.845 13.248-30.739.517-.259 1.044-.504 1.581-.734l31.515-13.506c9.897-4.242 20.908 3.018 20.908 13.787l14.5 186.835z"/><path d="m334.179 495.922-24.179-.1-18.633-212.456 18.633-198.618c0-10.769 11.011-18.029 20.909-13.787l31.515 13.506c10.662 4.57 17.576 15.055 17.576 26.655v342.878c0 10.228-3.571 19.623-9.535 27.004-7.883 9.757-22.766 14.918-36.286 14.918z"/></g><g><path d="m491.872 479.195-25.307.403c-22.091 0-40-17.909-40-40l.524-233.598c0-5.523-4.477-10-10-10l-77.089 1.078-2.821-12.55 2.821-15.028h74c22.091 0 40 17.909 40 40v231.5c0 5.523 4.477 10 10 10h29c2.209 0 4 1.791 4 4v12l-1.128 8.195c0 2.209-1.791 4-4 4z" fill="#f8f7f7"/></g><g><path d="m497 467v10c0 2.21-1.79 4-4 4h-29c-22.09 0-40-17.91-40-40v-231.5c0-5.52-4.48-10-10-10h-74l-3.895-7.459 3.895-6.541h74c13.23 0 24 10.77 24 24v231.5c0 14.34 11.66 26 26 26z" fill="#e8e8e8"/></g><path d="m321.078 214.968-11.078-.22-4.775-29.248 4.775-34h12c9.941 0 18 8.059 18 18v16l-.922 11.468c0 9.941-8.059 18-18 18z" fill="#7bb1ff"/><path d="m340 185.5v13c0 .33-.01.67-.03 1-.51 9.47-8.36 17-17.97 17h-12l-3.619-15.5 3.619-15.5z" fill="#62a5f4"/><path d="m287.2 19.69c-4.32-11.82-15.58-19.69-28.17-19.69h-138.06c-.294 0-.587.004-.88.013 0 0-23.178 12.292-27.397 23.836l-18.331 58.151-1.266 410.234 110.752-.55 126.152 5.316v-415zm-28.35 62.31h-137.7c-10.48 0-17.73-10.46-14.05-20.27l10.68-28.49c.74-1.95 2.6-3.24 4.69-3.24h135.06c2.09 0 3.95 1.29 4.69 3.24l10.68 28.49c3.68 9.81-3.57 20.27-14.05 20.27z" fill="#f8f7f7"/><path d="m250 274-60 6.858-60-6.858v-85c0-2.761 2.239-5 5-5h110c2.761 0 5 2.239 5 5z" fill="#7bb1ff"/><g><path d="m205.5 221.5h-31c-4.142 0-7.5-3.357-7.5-7.5s3.358-7.5 7.5-7.5h31c4.142 0 7.5 3.357 7.5 7.5s-3.358 7.5-7.5 7.5z" fill="#62a5f4"/></g><g><path d="m215 251.5h-50c-4.142 0-7.5-3.357-7.5-7.5s3.358-7.5 7.5-7.5h50c4.142 0 7.5 3.357 7.5 7.5s-3.358 7.5-7.5 7.5z" fill="#62a5f4"/></g><path d="m214 310h-48c-19.882 0-36-16.118-36-36h120c0 19.882-16.118 36-36 36z" fill="#bde4ff"/><g><g><g><path d="m253.217 474h-26.966c-2.84 0-5.437-1.604-6.708-4.145-1.271-2.54-.998-5.58.706-7.854.078-.104 2.396-3.245 18.693-26.53 2.793-3.991 3.929-6.816 4.385-8.559l.135-1.059c-.198-3.153-2.826-5.658-6.028-5.658-2.881 0-5.374 2.045-5.927 4.861-.798 4.064-4.74 6.711-8.805 5.914-4.064-.799-6.712-4.74-5.914-8.805 1.932-9.834 10.615-16.971 20.646-16.971 11.602 0 21.041 9.439 21.041 21.041 0 .317-.02.635-.061.949l-.261 2.047c-.032.251-.076.499-.133.745-1.012 4.361-3.295 9.104-6.787 14.094-4.437 6.34-7.85 11.203-10.47 14.928h12.456c4.142 0 7.5 3.357 7.5 7.5s-3.36 7.502-7.502 7.502z" fill="#7bb1ff"/></g></g><g><path d="m166.019 444.475c-25.771 0-46.736-24.999-46.736-55.727 0-30.739 20.966-55.748 46.736-55.748s46.736 25.009 46.736 55.748c0 30.728-20.966 55.727-46.736 55.727zm0-96.475c-17.5 0-31.736 18.279-31.736 40.748 0 22.457 14.237 40.727 31.736 40.727s31.736-18.27 31.736-40.727c0-22.469-14.237-40.748-31.736-40.748z" fill="#7bb1ff"/></g></g><circle cx="190" cy="133" fill="#bde4ff" r="21"/><g fill="#99dbff"><path d="m70 481 5.518 8.922-5.518 7.078h-27c-23.75 0-43-19.25-43-43v-342.88c0-11.02 6.226-21.029 15.996-25.919l.004 345.799c0 27.61 22.39 50 50 50z"/><path d="m370.46 481c-7.88 9.76-19.94 16-33.46 16h-27l-6.427-8 6.427-8z"/></g><path d="m87 470v-384.116c0-2.565.493-5.106 1.453-7.485l31.637-78.386c-12.23.36-23.07 8.137-27.29 19.677l-22.8 62.31v415h240v-16h-212c-6.075 0-11-4.925-11-11z" fill="#e8e8e8"/></g></svg>