<svg id="Capa_1" enable-background="new 0 0 497 497" height="512" viewBox="0 0 497 497" width="512" xmlns="http://www.w3.org/2000/svg"><g><g><g><path d="m333.49 460.5h-29.064l-.165-149.917c0-8.284 5.945-18.083 14.229-18.083 8.284 0 15 6.716 15 15v5l2.532 44.211z" fill="#e8e8e8"/></g><g><path d="m318.49 292.5v168h-15l-4.128-114.138 4.128-33.862v-5c0-8.28 6.72-15 15-15z" fill="#d8d8d8"/></g><path d="m388.49 170-22.081-2.977-5.919 2.977h-84l-5.861-2.647-22.139 2.647v-37l22.469 2.317 5.531-2.317h84l6.744 2.812 21.256-2.812z" fill="#6f6571"/><path d="m360.49 133h28v37h-28z" fill="#635a63"/><path d="m403.49 40-14.184-2.995-13.721 2.995.131 169.954c0 6.046-1.219 12.031-3.583 17.596l-36.33 84.794-.881 88.656 15.165 3.821 13.403-3.821v-75.896c0-6.234 1.295-12.401 3.804-18.108l29.855-67.92c4.181-9.512 6.34-19.79 6.34-30.18v-168.896z" fill="#e8e8e8"/><path d="m248.49 133h28v37h-28z" fill="#635a63"/><path d="m236.655 207.852c0 10.391 2.159 20.668 6.34 30.18l29.389 69.11c2.509 5.707 3.804 11.874 3.804 18.108l-.325 75.75 13.646 2.115 13.981-2.115v-88.5l-36.417-85.718c-2.364-5.565-3.583-11.55-3.583-17.596z" fill="#e8e8e8"/><path d="m388.49 40v169.19c0 6.04-1.22 12.03-3.58 17.59l-34.827 81.972c-1.051 2.473-1.593 5.133-1.593 7.821v87.038h-15v-91.111l36.42-85.72c2.36-5.56 3.58-11.55 3.58-17.59v-169.19l6.459-3.986z" fill="#d8d8d8"/><path d="m333.503 460h-29.077l-9.302 14.729c-1.577 2.431-2.416 5.266-2.416 8.163l-.392 9.424c0 2.209 1.791 4 4 4l10.174.684h35c2.209 0 4-1.791 4-4v-10.061c0-2.897-.839-5.732-2.416-8.163z" fill="#6f6571"/><path d="m318.49 460-9.58 14.78c-1.58 2.43-2.42 5.26-2.42 8.16v14.06h-11c-2.21 0-4-1.79-4-4v-10.06c0-2.9.84-5.73 2.42-8.16l9.562-14.78z" fill="#635a63"/><path d="m353.49 431h-65l-3.789-1.234c-5.523 0-10-4.477-10-10l.743-18.766h88.046v20c0 5.523-4.477 10-10 10z" fill="#6f6571"/><path d="m248.49 208.9c0 10.39 2.16 20.66 6.34 30.18l29.86 67.92c2.5 5.7 3.8 11.87 3.8 18.1v75.9l-8.174 2.61-6.826-2.61v-75.9c0-6.23-1.3-12.4-3.8-18.1l-29.86-67.92z" fill="#d8d8d8"/><path d="m288.49 401v30h-5c-5.52 0-10-4.48-10-10v-20z" fill="#635a63"/><path d="m401.527 38.546-168.037-.22c-11.046 0-18.569-7.28-18.569-18.326 0-9.795 14.908-19.666 14.908-19.666 1.187-.219 2.411-.334 3.661-.334h170c11.046 0 20 8.954 20 20 0 1.37-.138 2.708-.4 4 0 0-11.887 14.546-21.563 14.546z" fill="#6f6571"/><path d="m423.09 24c-.8 3.92-2.74 7.42-5.46 10.14-3.62 3.62-8.62 5.86-14.14 5.86h-170c-11.05 0-20-8.95-20-20 0-5.52 2.24-10.52 5.86-14.14 2.8-2.8 6.419-4.776 10.479-5.526-.22 1.18-.339 2.416-.339 3.666 0 11.05 8.95 20 20 20z" fill="#635a63"/></g><g><g><path d="m193.51 460.5h-29.064l-.165-149.917c0-8.284 5.945-18.083 14.229-18.083 8.284 0 15 6.716 15 15v5l2.532 44.211z" fill="#f8f7f7"/></g><g><path d="m178.51 292.5v168h-15l-4.128-114.138 4.128-33.862v-5c0-8.28 6.72-15 15-15z" fill="#e8e8e8"/></g><path d="m248.51 170-21.863-1.656-6.137 1.656h-84l-6.743-1.986-21.257 1.986v-37l21.367 1.546 6.633-1.546h84l6.027 1.986 21.973-1.986z" fill="#857e87"/><path d="m220.51 133h28v37h-28z" fill="#6f6571"/><path d="m263.51 40-14.183-2.995-13.723 2.995.131 169.954c0 6.046-1.219 12.031-3.583 17.596l-36.33 84.794-.881 88.656 15.165 3.821 13.404-3.821v-75.896c0-6.234 1.295-12.401 3.804-18.108l29.855-67.92c4.181-9.512 6.34-19.79 6.34-30.18v-168.896z" fill="#f8f7f7"/><path d="m108.51 133h28v37h-28z" fill="#6f6571"/><path d="m123.51 209.186v-169.186l-14.385-4.509-14.202 4.509 1.751 167.852c0 10.391 2.159 20.668 6.34 30.18l29.389 69.11c2.509 5.707 3.804 11.874 3.804 18.108l-.325 75.75 13.646 2.115 13.982-2.115v-88.5l-36.417-85.718c-2.365-5.565-3.583-11.55-3.583-17.596z" fill="#f8f7f7"/><path d="m248.51 40v169.19c0 6.04-1.22 12.03-3.58 17.59l-34.827 81.972c-1.051 2.473-1.593 5.133-1.593 7.821v87.038h-15v-91.111l36.42-85.72c2.36-5.56 3.58-11.55 3.58-17.59v-169.19l6.459-3.986z" fill="#e8e8e8"/><path d="m193.522 460h-29.077l-9.302 14.729c-1.577 2.431-2.416 5.266-2.416 8.163l-.392 9.424c0 2.209 1.791 4 4 4l10.175.684h35c2.209 0 4-1.791 4-4v-10.061c0-2.897-.839-5.732-2.416-8.163z" fill="#857e87"/><path d="m178.51 460-9.58 14.78c-1.58 2.43-2.42 5.26-2.42 8.16v14.06h-11c-2.21 0-4-1.79-4-4v-10.06c0-2.9.84-5.73 2.42-8.16l9.562-14.78z" fill="#6f6571"/><path d="m213.51 431h-65l-3.789-1.234c-5.523 0-10-4.477-10-10l.743-18.766h88.046v20c0 5.523-4.477 10-10 10z" fill="#857e87"/><path d="m148.51 325.1v75.9l-8.174 2.61-6.826-2.61v-75.9c0-6.23-1.3-12.4-3.8-18.1l-29.86-67.92c-4.18-9.52-6.34-19.79-6.34-30.18v-168.9l8.431-3.436 6.569 3.436v168.9c0 10.39 2.16 20.66 6.34 30.18l29.86 67.92c2.5 5.7 3.8 11.87 3.8 18.1z" fill="#e8e8e8"/><path d="m148.51 401v30h-5c-5.52 0-10-4.48-10-10v-20z" fill="#6f6571"/><path d="m261.546 38.546-168.036-.22c-11.046 0-18.569-7.28-18.569-18.326 0-9.795 14.908-19.666 14.908-19.666 1.187-.219 2.41-.334 3.661-.334h170c11.046 0 20 8.954 20 20 0 1.37-.138 2.708-.4 4 0 0-11.888 14.546-21.564 14.546z" fill="#857e87"/><path d="m283.11 24c-.8 3.92-2.74 7.42-5.46 10.14-3.62 3.62-8.62 5.86-14.14 5.86h-170c-11.05 0-20-8.95-20-20 0-5.52 2.24-10.52 5.86-14.14 2.8-2.8 6.419-4.776 10.479-5.526-.22 1.18-.339 2.416-.339 3.666 0 11.05 8.95 20 20 20z" fill="#6f6571"/></g></g></svg>