<svg id="Capa_1" enable-background="new 0 0 497 497" height="512" viewBox="0 0 497 497" width="512" xmlns="http://www.w3.org/2000/svg"><g><g><path d="m497 10v54l-212.29 232.266-220.71 200.734h-54c-1.73 0-3.36-.44-4.78-1.22l221.05-253.57 269.51-236.99c.78 1.42 1.22 3.05 1.22 4.78z" fill="#6f6571"/></g><path d="m495.78 5.22-490.56 490.56c-3.11-1.69-5.22-4.99-5.22-8.78v-240.11l4.011-14.897-4.011-13.453v-89.48l2.521-5.049-2.521-6.201v-107.81c0-5.52 4.48-10 10-10h53.367l66.559 10.819 73.707-10.819h283.367c3.79 0 7.09 2.11 8.78 5.22z" fill="#857e87"/><path d="m497 64v211l-90 13c-5.52 0-10 4.48-10 10v91c0 5.52-4.48 10-10 10h-91c-5.52 0-10 4.48-10 10l-11 88h-211z" fill="#857e87"/><path d="m497 275v212c0 5.52-4.48 10-10 10h-212v-101c0-5.52 4.48-10 10-10h91c5.52 0 10-4.48 10-10v-91c0-5.52 4.48-10 10-10z" fill="#f8f7f7"/><g><path d="m202.436 385.027h-140.596v-40.25c0-14.232 3.732-31.494 13.55-40.307 8.522-7.649 19.788-12.302 32.141-12.302h51.937c26.584 0 48.135 21.551 48.135 48.135v29.727z" fill="#f8f7f7"/><path d="m207.6 370.03v15l-73.464 5.704-74.736-5.704v-44.73c0-14.23 6.171-27.03 15.991-35.83l.009 56.56c0 4.971 4.029 9 9 9z" fill="#e8e8e8"/><path d="m113.701 158.138h39.597v226.889h-39.597z" fill="#6f6571"/><path d="m113.7 370.03h39.6v20.704h-39.6z" fill="#635a63"/><path d="m217.08 161.287-181.622-1.021-1.575-131.575c0-9.636 3.675-23.92 12.16-27.187 2.524-.971 5.266-1.504 8.132-1.504h140.267c12.503 0 22.638 10.135 22.638 22.638z" fill="#ffe07d"/><path d="m226.27 149.33v16.01h-185.54v-142.7c0-9.63 6.02-17.87 14.51-21.12v147.81z" fill="#ffd064"/><g><g><path d="m68.032 138.606-55.66.319c-6.277 0-11.366-5.089-11.366-11.366l-.187-8.995c0-6.277 5.089-11.366 11.366-11.366l1.815-.749h55.634c6.277 0 11.366 5.089 11.366 11.366v8.605l-1.602.82c0 6.278-5.089 11.366-11.366 11.366z" fill="#f8f7f7"/><path d="m55.5 210.989h-30v-58.569l2.468-5.431-2.468-6.444h30l-2.255 5.934 2.255 5.941z" fill="#e8e8e8"/><path d="m25.5 138.053h30v14.367h-30z" fill="#d8d8d8"/><path d="m81 126.42v2.64c0 6.27-5.09 11.36-11.37 11.36h-58.26c-6.28 0-11.37-5.09-11.37-11.36v-11.25c0-6.27 5.09-11.36 11.37-11.36h2.63v4.97c0 8.29 6.72 15 15 15z" fill="#e8e8e8"/></g><g><path d="m253.803 138.606-55.66.319c-6.277 0-11.366-5.089-11.366-11.366l-.187-8.995c0-6.277 5.089-11.366 11.366-11.366l1.815-.749h55.634c6.277 0 11.366 5.089 11.366 11.366v8.605l-1.602.82c0 6.278-5.088 11.366-11.366 11.366z" fill="#f8f7f7"/><path d="m241.271 210.989h-30v-58.569l2.468-5.431-2.468-6.444h30l-2.255 5.934 2.255 5.941z" fill="#e8e8e8"/><path d="m211.271 138.053h30v14.367h-30z" fill="#d8d8d8"/><path d="m266.771 126.42v2.64c0 6.27-5.09 11.36-11.37 11.36h-58.26c-6.28 0-11.37-5.09-11.37-11.36v-11.25c0-6.27 5.09-11.36 11.37-11.36h2.63v4.97c0 8.29 6.72 15 15 15z" fill="#e8e8e8"/></g></g><path d="m254.415 256.772-241.596-.719c-6.254 0-11.323-5.07-11.323-11.323l-.421-24.804c0-6.254 5.07-11.323 11.323-11.323l3.602-1.388h239.677c6.254 0 11.323 5.07 11.323 11.323v23.672l-1.262 3.238c0 6.254-5.069 11.324-11.323 11.324z" fill="#ffe07d"/><path d="m267 242.21v4.68c0 6.252-5.068 11.32-11.32 11.32h-244.36c-6.252 0-11.32-5.068-11.32-11.32v-28.35c0-6.26 5.07-11.33 11.32-11.33l4.68.005v21.995c0 7.18 5.82 13 13 13z" fill="#ffd064"/><path d="m221.926 417.415-176.847-.294c-3.574 0-6.472-2.898-6.472-6.472l.936-17.702c0-3.574 2.898-6.472 6.472-6.472l5.316-1.448h171.863c3.574 0 6.472 2.898 6.472 6.472v13.501l-1.268 5.943c-.001 3.574-2.898 6.472-6.472 6.472z" fill="#6f6571"/><path d="m229.67 405v7.53c0 3.57-2.9 6.47-6.48 6.47h-179.38c-3.58 0-6.48-2.9-6.48-6.47v-21.03c0-3.573 2.897-6.47 6.47-6.47h7.53v9.97c0 5.523 4.477 10 10 10z" fill="#635a63"/></g></g></svg>