<svg id="Capa_1" enable-background="new 0 0 497.002 497.002" height="512" viewBox="0 0 497.002 497.002" width="512" xmlns="http://www.w3.org/2000/svg"><g><path d="m387.587 31.355-344.687 197.03-12.257-21.209 344.253-198.514c4.248-2.45 8.98-3.94 13.865-4.366l19.203-1.674c1.321-.115 2.399.6 2.923 1.606 0 0-.37 2.063-1.072 3.063l-11.501 14.24c-2.815 4.02-6.477 7.373-10.727 9.824z" fill="#f8f7f7"/><path d="m410.661 7.328-11.04 15.77c-2.82 4.02-6.48 7.37-10.73 9.82l-344.25 198.51-6.92-11.98 373.15-215.22c.48.93.501 2.1-.21 3.1z" fill="#e8e8e8"/><g><path d="m42.052 216.756c3.526 6.101 3.867 13.167 1.538 19.275 0 0-.75 1.085-1.043 1.686-1.9 3.903-4.819 6.507-8.864 8.84-10.777 6.216-23.268 3.009-29.489-7.755-6.221-10.765-3.405-23.369 7.372-29.585 1.046-.604 2.922-2.23 2.922-2.23 10.167-3.9 21.947.05 27.564 9.769z" fill="#f8f7f7"/><path d="m43.59 236.031c-1.77 4.67-5.118 8.777-9.788 11.467-10.78 6.22-24.56 2.53-30.78-8.23-6.22-10.77-2.53-24.53 8.25-30.75 1.05-.6 2.126-1.12 3.216-1.53-2.34 6.11-1.986 13.18 1.534 19.28 5.62 9.71 17.398 13.673 27.568 9.763z" fill="#e8e8e8"/></g><g><path d="m102.242 324.008v.81c-1.32-.33-2.76.03-3.79 1.06l2.83-2.83z" fill="#7ad396"/></g><g><path d="m253.316 478.461c.034-.574.739-14.119-8.096-21.057-9.34-7.334-22.387-2.847-22.514-2.797-4.058 1.633-8.491 5.733-13.624 10.481-.328.303-.66.61-.996.921 0 0-4.71 3.863-7.328 6.06-4.92 4.128-11.576 7.261-18.404 10.649-31.732 15.748-77.99 7.557-97.447-27.277-7.371-13.198-9.381-27.494-6.511-43.787 2.811-15.96 7.164-31.853 18.648-44.539 5.571-6.155 15.079-6.63 21.234-1.056 6.155 5.572 6.628 15.079 1.056 21.234-15.093 16.673-19.58 39.157-10.911 54.678 11.618 20.8 44.865 23.531 61.608 15.221 7.138-3.542 12.722-8.707 18.634-14.175 6.701-6.199 13.63-12.608 22.826-16.305 9.91-3.985 33.593-7.644 52.301 7.047 20.292 15.935 19.837 41.53 19.54 46.499-.478 7.983-7.102 14.136-14.994 14.136-.302.001-.606-.009-.911-.026-8.289-.498-14.606-7.619-14.111-15.907" fill="#afefa5"/></g><g><path d="m208.272 465.838c-6.4 5.91-14.31 13.04-24.88 18.29-31.73 15.74-81.76 7.34-101.22-27.5-7.37-13.19-9.85-29.43-6.98-45.73 2.81-15.96 10.37-31.1 21.85-43.78 2.12-2.34 4.8-3.86 7.65-4.53-8.49 11.23-14.15 23.98-16.5 37.31-2.87 16.3-.39 32.54 6.98 45.73 19.46 34.84 69.49 43.24 101.22 27.5 4.39-2.18 8.32-4.68 11.88-7.29z" fill="#8ce1a4"/></g><g><path d="m116.313 167.096c0-7.98-6.217-14.508-14.072-15.003-.32-.02-.64-.035-.96-.035 0 0-8.76 3.234-11.493 7.021-1.783 2.472-1.734 5.041-1.734 8.319l-.255 134.08h28.514z" fill="#8ce1a4"/><g><path d="m101.28 320.164 25.432 28.313 23.311 23.311c6.437 6.437 6.437 16.874 0 23.311-6.437 6.437-16.874 6.437-23.311 0l-22.604-22.604c-.781-.781-1.803-1.171-2.826-1.172-.945-.402-2.078-.09-2.86.691l-23.133 21.256c-6.437 6.437-14.499 6.948-20.936.511-6.437-6.437-6.352-14.414.085-20.851l21.411-24.454z" fill="#8ce1a4"/></g><g><path d="m116.162 291.306 33.86 33.86c6.437 6.437 6.437 16.874 0 23.311-6.437 6.437-16.874 6.437-23.311 0l-22.604-22.604c-.781-.781-1.803-1.171-2.826-1.172-.912-.268-2.049-.207-2.83.574l-23.588 21.527c-6.437 6.437-14.244 6.097-20.681-.34-6.437-6.437-5.841-15.562.596-21.999l32.34-31.363c1.59-1.59 2.943-4.19 4.84-5.165 3.009-1.546 9.323-2.794 9.323-2.794.32 0 .64.007.96.022 5.062.23 10.056 2.278 13.921 6.143z" fill="#afefa5"/></g><path d="m101.282 152.058v133.09l-7.089 4.974-7.951 1.346v-124.37c0-8.3 6.74-15.04 15.04-15.04z" fill="#7ad396"/><g><path d="m101.282 324.701v46.622c-1.03 0-2.05.394-2.83 1.174l-22.6 22.6c-6.44 6.44-16.88 6.44-23.31 0-3.22-3.22-4.83-7.44-4.83-11.65 0-4.22 1.61-8.44 4.83-11.66l45.609-46.379c.779-.789 2.196-1.084 3.131-.707z" fill="#7ad396"/></g><g><path d="m101.282 285.141v39.56c-1.03 0-2.05.386-2.83 1.176l-22.6 22.6c-6.44 6.44-16.88 6.44-23.31 0-3.22-3.22-4.83-7.44-4.83-11.66s1.61-8.43 4.83-11.65l33.86-33.86c4.11-4.119 9.5-6.166 14.88-6.166z" fill="#8ce1a4"/></g></g><g><path d="m213.794 106.742c0-7.98-6.217-14.508-14.072-15.003-.32-.02-.64-.035-.96-.035 0 0-8.76 3.234-11.493 7.021-1.783 2.472-1.734 5.041-1.734 8.319l-.255 171.125h28.514z" fill="#8ce1a4"/><g><path d="m198.76 296.854 25.432 28.313 23.311 23.311c6.437 6.437 6.437 16.874 0 23.311-6.437 6.437-16.874 6.437-23.311 0l-22.604-22.604c-.781-.781-1.803-1.171-2.826-1.172-.945-.402-2.078-.09-2.86.691l-23.133 21.255c-6.437 6.437-14.499 6.948-20.936.511-6.437-6.437-6.352-14.414.085-20.851l21.411-24.454z" fill="#8ce1a4"/></g><g><path d="m213.643 267.996 33.86 33.86c6.437 6.437 6.437 16.874 0 23.311-6.437 6.437-16.874 6.437-23.311 0l-22.604-22.604c-.781-.781-1.803-1.171-2.826-1.172-.912-.268-2.049-.207-2.83.574l-23.588 21.527c-6.437 6.437-14.244 6.097-20.681-.34-6.437-6.437-5.841-15.562.596-21.999l32.34-31.363c1.59-1.59 2.943-4.19 4.84-5.165 3.009-1.546 9.323-2.794 9.323-2.794.32 0 .64.007.96.022 5.062.23 10.056 2.278 13.921 6.143z" fill="#afefa5"/></g><path d="m198.762 91.703v170.135l-7.089 4.974-7.951 1.346v-161.415c0-8.3 6.74-15.04 15.04-15.04z" fill="#7ad396"/><g><path d="m198.762 301.392v46.622c-1.03 0-2.05.394-2.83 1.174l-22.6 22.6c-6.44 6.44-16.88 6.44-23.31 0-3.22-3.22-4.83-7.44-4.83-11.65 0-4.22 1.61-8.44 4.83-11.66l45.609-46.379c.78-.79 2.196-1.085 3.131-.707z" fill="#7ad396"/></g><g><path d="m198.762 261.831v39.56c-1.03 0-2.05.386-2.83 1.176l-22.6 22.6c-6.44 6.44-16.88 6.44-23.31 0-3.22-3.22-4.83-7.44-4.83-11.66s1.61-8.43 4.83-11.65l33.86-33.86c4.11-4.119 9.5-6.166 14.88-6.166z" fill="#8ce1a4"/></g></g><g><path d="m89.629 52.228 364.276 208.602 12.471-21.58-364.758-210.387c-4.248-2.45-8.98-3.94-13.865-4.366l-19.203-1.674c-1.395-.122-2.518.682-3.005 1.777-.4.898.51 1.986 1.169 2.926l12.187 14.878c2.816 4.019 6.478 7.372 10.728 9.824z" fill="#f8f7f7"/></g><g><path d="m459.181 251.698-6.82 11.81-364.759-210.39c-4.25-2.45-7.91-5.8-10.72-9.82l-11.05-15.77c-.66-.94-.687-2.028-.287-2.928z" fill="#e8e8e8"/></g><g><path d="m493.981 248.832c3.526 6.101 3.867 13.167 1.538 19.275 0 0-.75 1.085-1.043 1.686-1.9 3.903-4.819 6.507-8.864 8.84-10.777 6.216-23.268 3.009-29.489-7.755s-3.405-23.369 7.372-29.585c1.046-.604 2.922-2.23 2.922-2.23 10.167-3.899 21.947.05 27.564 9.769z" fill="#f8f7f7"/><path d="m495.519 268.107c-1.77 4.67-5.118 8.777-9.788 11.467-10.78 6.22-24.56 2.53-30.78-8.23-6.22-10.77-2.53-24.53 8.25-30.75 1.05-.6 2.126-1.12 3.216-1.53-2.34 6.11-1.986 13.18 1.534 19.28 5.62 9.71 17.398 13.673 27.568 9.763z" fill="#e8e8e8"/></g><g><path d="m311.27 140.199c0-7.98-6.217-14.508-14.072-15.003-.32-.02-.64-.035-.96-.035 0 0-8.76 3.234-11.493 7.021-1.783 2.472-1.734 5.041-1.734 8.319l-.255 160.978h28.514z" fill="#8ce1a4"/><g><path d="m296.236 320.164 25.432 28.313 23.311 23.311c6.437 6.437 6.437 16.874 0 23.311-6.437 6.437-16.874 6.437-23.311 0l-22.604-22.604c-.781-.781-1.803-1.171-2.826-1.172-.945-.402-2.078-.09-2.86.691l-23.133 21.255c-6.437 6.437-14.499 6.948-20.936.511-6.437-6.437-6.352-14.414.085-20.851l21.411-24.454z" fill="#8ce1a4"/></g><g><path d="m311.119 291.306 33.86 33.86c6.437 6.437 6.437 16.874 0 23.311-6.437 6.437-16.874 6.437-23.311 0l-22.604-22.604c-.781-.781-1.803-1.171-2.826-1.172-.912-.268-2.048-.207-2.83.574l-23.588 21.527c-6.437 6.437-14.244 6.097-20.681-.34-6.437-6.437-5.841-15.562.596-21.999l32.34-31.363c1.59-1.59 2.943-4.19 4.84-5.165 3.009-1.546 9.323-2.794 9.323-2.794.32 0 .64.007.96.022 5.062.23 10.056 2.278 13.921 6.143z" fill="#afefa5"/></g><path d="m296.238 125.16v159.988l-7.089 4.974-7.952 1.346v-151.268c.001-8.3 6.741-15.04 15.041-15.04z" fill="#7ad396"/><g><path d="m296.238 324.701v46.622c-1.03 0-2.05.394-2.83 1.174l-22.6 22.6c-6.44 6.44-16.88 6.44-23.31 0-3.22-3.22-4.83-7.44-4.83-11.65 0-4.22 1.61-8.44 4.83-11.66l45.609-46.379c.78-.789 2.196-1.084 3.131-.707z" fill="#7ad396"/></g><g><path d="m296.238 285.141v39.56c-1.03 0-2.05.386-2.83 1.176l-22.6 22.6c-6.44 6.44-16.88 6.44-23.31 0-3.22-3.22-4.83-7.44-4.83-11.66s1.61-8.43 4.83-11.65l33.86-33.86c4.11-4.119 9.5-6.166 14.88-6.166z" fill="#8ce1a4"/></g></g><g><path d="m408.756 196.16c0-7.98-6.217-14.508-14.072-15.003-.32-.02-.64-.035-.96-.035 0 0-8.76 3.234-11.493 7.021-1.783 2.472-1.734 5.041-1.734 8.319l-.255 81.707h28.514z" fill="#8ce1a4"/><g><path d="m393.722 296.854 25.432 28.313 23.311 23.311c6.437 6.437 6.437 16.874 0 23.311-6.437 6.437-16.874 6.437-23.311 0l-22.604-22.604c-.781-.781-1.803-1.171-2.826-1.172-.945-.402-2.078-.09-2.86.691l-23.133 21.255c-6.437 6.437-14.499 6.948-20.936.511-6.437-6.437-6.352-14.414.085-20.851l21.411-24.454z" fill="#8ce1a4"/></g><g><path d="m408.605 267.996 33.86 33.86c6.437 6.437 6.437 16.874 0 23.311-6.437 6.437-16.874 6.437-23.311 0l-22.604-22.604c-.781-.781-1.803-1.171-2.826-1.172-.912-.268-2.048-.207-2.83.574l-23.588 21.527c-6.437 6.437-14.244 6.097-20.681-.34-6.437-6.437-5.841-15.562.596-21.999l32.34-31.363c1.59-1.59 2.943-4.19 4.84-5.165 3.009-1.546 9.323-2.794 9.323-2.794.32 0 .64.007.96.022 5.062.23 10.056 2.278 13.921 6.143z" fill="#afefa5"/></g><path d="m393.724 181.121v80.717l-7.089 4.974-7.952 1.346v-71.997c.001-8.3 6.741-15.04 15.041-15.04z" fill="#7ad396"/><g><path d="m393.724 301.392v46.622c-1.03 0-2.05.394-2.83 1.174l-22.6 22.6c-6.44 6.44-16.88 6.44-23.31 0-3.22-3.22-4.83-7.44-4.83-11.65 0-4.22 1.61-8.44 4.83-11.66l45.609-46.379c.78-.79 2.196-1.085 3.131-.707z" fill="#7ad396"/></g><g><path d="m393.724 261.831v39.56c-1.03 0-2.05.386-2.83 1.176l-22.6 22.6c-6.44 6.44-16.88 6.44-23.31 0-3.22-3.22-4.83-7.44-4.83-11.66s1.61-8.43 4.83-11.65l33.86-33.86c4.11-4.119 9.5-6.166 14.88-6.166z" fill="#8ce1a4"/></g></g></g></svg>