<svg id="Capa_1" enable-background="new 0 0 497 497" height="512" viewBox="0 0 497 497" width="512" xmlns="http://www.w3.org/2000/svg"><g><path d="m92 298.904v93.096l-31.676-27.479c-16.57 0-31.676-15.951-31.676-32.521 0-8.55 4.207-20.405 9.957-25.855 5.38-5.14 12.66-8.29 20.68-8.29z" fill="#edc258"/><path d="m92 392c0 8.28-3.36 15.78-8.79 21.21s-12.93 8.79-21.21 8.79h-57c-2.76 0-5-2.24-5-5v-125c0-2.76 2.24-5 5-5h27l2.138 10.855-2.138 34.145c0 16.57 13.43 30 30 30s30 13.43 30 30z" fill="#ffd064"/><path d="m473.351 389.989-326.83-.532c-11.046 0-20-8.954-20-20l-2.702-269.894c0-9.665 5.036-22.293 14.15-24.157 1.302-.266 2.65-.406 4.031-.406h335c11.046 0 20 8.954 20 20v279c0 1.37-.138 2.708-.4 4-1.853 9.129-13.573 11.989-23.249 11.989z" fill="#f8f7f7"/><path d="m273 332h-16.5l-7.5-4.372-7.5 4.372h-22.5l-13.585-99.138 13.585-95.862h22.5l7.5 3.16 7.5-3.16h16.5c3.314 0 6 2.686 6 6v183c0 3.314-2.686 6-6 6z" fill="#d8d8d8"/><g><path d="m241.5 137h15v195h-15z" fill="#e8e8e8"/></g><path d="m496.6 378c-1.85 9.13-9.92 16-19.6 16h-335c-11.05 0-20-8.95-20-20v-18l8-129.266-8-113.734v-18c0-9.68 6.87-17.75 16-19.6v281.6c0 11.6 9.4 21 21 21z" fill="#e8e8e8"/><path d="m219 137v195c0 6.62-2.69 12.62-7.03 16.97-4.35 4.34-10.35 7.03-16.97 7.03h-73l10.547-129.616-10.547-113.384h73c13.25 0 24 10.75 24 24z" fill="#e8e8e8"/><path d="m122 113h16v243h-16z" fill="#d8d8d8"/><path d="m450.181 234.7-123.362-.923c-2.761 0-5-2.239-5-5l-.83-83.404c0-2.761 2.239-5 5-5l6.011-3.373h120c2.761 0 5 2.239 5 5v82l-1.819 5.7c0 2.761-2.239 5-5 5z" fill="#afefa5"/><path d="m457 224v8c0 2.761-2.239 5-5 5h-128c-2.761 0-5-2.239-5-5v-90c0-2.761 2.239-5 5-5h8v77c0 5.523 4.477 10 10 10z" fill="#8ce1a4"/><path d="m449.16 329.16-122.277-1c-2.761 0-5-2.239-5-5l-.064-45.191c0-2.761 2.239-5 5-5l5.181-1.969h120c2.761 0 5 2.239 5 5v42l-2.84 6.16c0 2.761-2.239 5-5 5z" fill="#7bb1ff"/><path d="m457 318v8c0 2.761-2.239 5-5 5h-128c-2.761 0-5-2.239-5-5v-50c0-2.761 2.239-5 5-5h8v37c0 5.523 4.477 10 10 10z" fill="#62a5f4"/><g><path d="m387.992 217.5c-3.056 0-5.806-1.854-6.953-4.686l-10.587-26.154-1.681 3.55c-1.24 2.619-3.879 4.29-6.778 4.29h-15.993c-4.142 0-7.5-3.357-7.5-7.5s3.358-7.5 7.5-7.5h11.246l6.965-14.71c1.273-2.69 4.005-4.38 6.994-4.287 2.976.086 5.619 1.924 6.736 4.683l10.048 24.824 10.046-24.823c1.117-2.759 3.759-4.597 6.734-4.684 2.979-.08 5.72 1.596 6.995 4.285l6.974 14.712h11.262c4.142 0 7.5 3.357 7.5 7.5s-3.358 7.5-7.5 7.5h-16.006c-2.897 0-5.536-1.669-6.777-4.288l-1.687-3.559-10.587 26.16c-1.146 2.833-3.896 4.687-6.951 4.687z" fill="#f8f7f7"/></g><g><g><path d="m427.02 308.5c-4.142 0-7.505-3.357-7.505-7.5s3.353-7.5 7.495-7.5h.01c4.142 0 7.5 3.357 7.5 7.5s-3.358 7.5-7.5 7.5z" fill="#62a5f4"/></g><g><path d="m397.02 308.5c-4.142 0-7.505-3.357-7.505-7.5s3.353-7.5 7.495-7.5h.01c4.142 0 7.5 3.357 7.5 7.5s-3.358 7.5-7.5 7.5z" fill="#62a5f4"/></g><g><path d="m367 308.5h-18c-4.142 0-7.5-3.357-7.5-7.5s3.358-7.5 7.5-7.5h18c4.142 0 7.5 3.357 7.5 7.5s-3.358 7.5-7.5 7.5z" fill="#62a5f4"/></g></g><g><g><path d="m371.883 114.5h-15.883c-4.142 0-7.5-3.357-7.5-7.5s3.358-7.5 7.5-7.5h15.883c4.142 0 7.5 3.357 7.5 7.5s-3.358 7.5-7.5 7.5z" fill="#7bb1ff"/></g><g><path d="m457 114.5h-50.117c-4.142 0-7.5-3.357-7.5-7.5s3.358-7.5 7.5-7.5h50.117c4.142 0 7.5 3.357 7.5 7.5s-3.358 7.5-7.5 7.5z" fill="#7bb1ff"/></g></g><path d="m256.5 173v123c0 3.314-2.686 6-6 6h-188.5c-8.02 0-15.3 3.15-20.68 8.29-5.75 5.45-9.32 13.16-9.32 21.71v-135c0-16.569 13.431-30 30-30h188.5c3.314 0 6 2.686 6 6z" fill="#ffe07d"/><g><path d="m140.492 279.5c-3.18 0-6.028-2.011-7.081-5.033l-12.949-37.175-9.519 23.521c-1.146 2.833-3.896 4.687-6.952 4.687s-5.806-1.854-6.953-4.686l-10.586-26.154-1.681 3.55c-1.24 2.619-3.879 4.29-6.778 4.29h-15.993c-4.142 0-7.5-3.357-7.5-7.5s3.358-7.5 7.5-7.5h11.246l6.965-14.71c1.273-2.691 3.995-4.397 6.994-4.287 2.976.086 5.619 1.924 6.736 4.683l10.048 24.824 10.046-24.823c1.171-2.896 4.022-4.716 7.137-4.685 3.123.077 5.87 2.082 6.897 5.031l11.427 32.807 13.239-50.251c.861-3.269 3.803-5.558 7.183-5.589h.07c3.352 0 6.3 2.226 7.215 5.455l11.039 38.956 8.792-21.725c1.117-2.759 3.759-4.597 6.734-4.684 2.966-.1 5.72 1.595 6.995 4.285l6.974 14.712h11.263c4.142 0 7.5 3.357 7.5 7.5s-3.358 7.5-7.5 7.5h-16.006c-2.897 0-5.536-1.669-6.777-4.288l-1.687-3.559-10.587 26.16c-1.202 2.971-4.165 4.836-7.358 4.676-3.2-.174-5.936-2.361-6.81-5.444l-9.522-33.605-12.507 47.472c-.84 3.189-3.666 5.455-6.962 5.583-.097.004-.195.006-.292.006z" fill="#ffd064"/></g></g></svg>