<svg id="Capa_1" enable-background="new 0 0 497 497" height="512" viewBox="0 0 497 497" width="512" xmlns="http://www.w3.org/2000/svg"><g><path d="m470.734 495.372-443.191-1.915c-5.523 0-10-4.477-10-10l-1.703-471.212c0-5.523 4.477-10 10-10l4.66-2.245h442c5.523 0 10 4.477 10 10v471l-1.766 4.372c0 5.523-4.477 10-10 10z" fill="#857e87"/><path d="m482.5 481v6c0 5.523-4.477 10-10 10h-110l-151.979-6.862-156.021 6.862h-30c-5.523 0-10-4.477-10-10v-477c0-5.523 4.477-10 10-10h6v469c0 6.627 5.373 12 12 12z" fill="#6f6571"/><g><g><path d="m153.915 56.5c-1.811 0-3.626-.651-5.066-1.972-3.054-2.799-3.26-7.543-.461-10.597l17.417-19c1.421-1.549 3.427-2.432 5.529-2.432 2.103 0 4.108.883 5.529 2.432l17.417 19c2.799 3.054 2.592 7.798-.461 10.597-3.053 2.8-7.797 2.593-10.597-.46l-11.889-12.968-11.888 12.969c-1.479 1.613-3.502 2.431-5.53 2.431z" fill="#afefa5"/></g><g><path d="m245.667 56.5c-2.103 0-4.108-.883-5.529-2.432l-17.417-19c-2.799-3.054-2.592-7.798.461-10.597 3.053-2.8 7.797-2.593 10.597.46l11.888 12.969 11.888-12.969c2.8-3.054 7.543-3.26 10.597-.46 3.054 2.799 3.26 7.543.461 10.597l-17.417 19c-1.422 1.549-3.427 2.432-5.529 2.432z" fill="#ff8086"/></g></g><path d="m362.5 489h-308v-394c0-8.284 6.716-15 15-15h278c8.284 0 15 6.716 15 15z" fill="#6f6571"/><path d="m362.5 481v16h-30l-124-10.181-124 10.181h-30v-16z" fill="#635a63"/><path d="m332.5 491.585h-239.681l-6.128-376.255c0-2.209 1.791-4 4-4l9.809-1.33h101l7 11.202 8-11.202h112c2.209 0 4 1.791 4 4z" fill="#f8f7f7"/><path d="m100.5 470v-360h-12c-2.209 0-4 1.791-4 4v383h117l7.5-3.926 7.5 3.926h116v-16h-221c-6.075 0-11-4.925-11-11z" fill="#e8e8e8"/><path d="m442.5 250.5v35c0 2.76-2.24 5-5 5h-30c-2.76 0-5-2.24-5-5v-35l20-6.489z" fill="#e8e8e8"/><path d="m442.5 215.5v35h-40v-35c0-2.76 2.24-5 5-5h30c2.76 0 5 2.24 5 5z" fill="#f8f7f7"/><g><path d="m201.5 110h15v383.074h-15z" fill="#e8e8e8"/></g><g><path d="m201.5 481h15v16h-15z" fill="#d8d8d8"/></g></g></svg>