<svg id="Capa_1" enable-background="new 0 0 497.169 497.169" height="512" viewBox="0 0 497.169 497.169" width="512" xmlns="http://www.w3.org/2000/svg"><g><g><path d="m301.951 319.658v63.745c0 27.86 10.597 51.805 31.211 67.429 6.189 4.69 19.057 12.246 19.057 12.246 9.683 3.802 20.227 5.889 31.258 5.889 47.256 0 85.564-38.308 85.564-85.564v-63.745z" fill="#c38c66"/><path d="m352.546 463.194c-31.97-12.39-54.63-43.45-54.63-79.79v-63.75h15v67.31c0 32.05 15.8 60.191 39.63 76.23z" fill="#b57f5f"/><path d="m332.117 319.658v63.745c0 19.549 6.631 35.284 21.936 45.191 5.102 3.302 16.153 8.632 16.153 8.632.295.073.887.35.887.35 3.984.91 8.13 1.391 12.385 1.391 30.639 0 55.564-24.926 55.564-55.564v-63.745z" fill="#f8f7f7"/><path d="m371.116 437.581c-24.72-5.62-43.2-27.777-43.2-54.177v-63.75h15v67.06c0 21.78 11.37 40.817 28.2 50.867z" fill="#e8e8e8"/><circle cx="383.478" cy="381.585" fill="#e8e8e8" r="22.5"/><path d="m288.077 245.095.443-117.437c0-25.033 6.113-47.392 21.413-64.844 3.775-4.306 11.149-12.664 11.149-12.664 17.017-13.729 38.663-21.948 62.23-21.948h.005c54.776 0 99.18 44.404 99.18 99.18v103.513l-7.481 15.069z" fill="#c38c66"/><path d="m482.496 230.895v16.653l-104.141 8.257-94.219-7.541v-120.879c0-31.21 14.41-59.05 36.95-77.23-13.73 17.01-21.95 38.66-21.95 62.23v107.75c0 5.51 4.45 9.98 9.95 10z" fill="#b57f5f"/><path d="m486.269 323.053-204.643-.426c-5.523 0-10-4.477-10-10l-.979-54.66c0-5.523 4.477-10 10-10l3.488-2.004h203.033c5.523 0 10 4.477 10 10v52.341l-.9 4.748c.001 5.523-4.476 10.001-9.999 10.001z" fill="#f8f7f7"/><path d="m497.169 308.305v6c0 5.523-4.477 10-10 10h-207.71c-5.523 0-10-4.477-10-10v-58.34c0-5.523 4.477-10 10-10h4.677v49.34c0 7.18 5.82 13 13 13z" fill="#e8e8e8"/><g fill="#f8f7f7"><path d="m396.616 193.77c-2.929-2.928-7.678-2.928-10.606 0l-2.531 2.531-2.531-2.531c-2.929-2.928-7.678-2.928-10.606 0-2.929 2.93-2.929 7.678 0 10.607l2.53 2.53-2.53 2.53c-2.929 2.93-2.929 7.678 0 10.607 1.464 1.464 3.384 2.196 5.303 2.196s3.839-.732 5.303-2.196l2.531-2.531 2.531 2.531c1.464 1.464 3.384 2.196 5.303 2.196s3.839-.732 5.303-2.196c2.929-2.93 2.929-7.678 0-10.607l-2.53-2.53 2.53-2.53c2.929-2.929 2.929-7.677 0-10.607z"/><path d="m370.341 173.743c1.465 1.465 3.384 2.197 5.304 2.197s3.839-.732 5.303-2.196l2.531-2.531 2.531 2.531c1.464 1.464 3.384 2.196 5.303 2.196s3.839-.732 5.304-2.197c2.929-2.929 2.928-7.678 0-10.606l-2.53-2.53 2.53-2.53c2.929-2.929 2.929-7.678 0-10.606-2.93-2.93-7.678-2.929-10.607-.001l-2.532 2.53-2.531-2.531c-2.929-2.928-7.677-2.929-10.607.001-2.929 2.929-2.928 7.678 0 10.606l2.53 2.53-2.53 2.53c-2.928 2.929-2.928 7.678.001 10.607z"/><path d="m394.085 113.945 2.53-2.53c2.929-2.93 2.929-7.678 0-10.607-2.929-2.928-7.678-2.928-10.606 0l-2.531 2.531-2.531-2.531c-2.929-2.928-7.678-2.928-10.606 0-2.929 2.93-2.929 7.678 0 10.607l2.53 2.53-2.53 2.53c-2.929 2.93-2.929 7.678 0 10.607 1.464 1.464 3.384 2.196 5.303 2.196s3.839-.732 5.303-2.196l2.531-2.531 2.531 2.531c1.464 1.464 3.384 2.196 5.303 2.196s3.839-.732 5.303-2.196c2.929-2.93 2.929-7.678 0-10.607z"/><path d="m372.702 67.452-2.338 2.348c-2.922 2.936-2.911 7.685.024 10.606 1.463 1.457 3.377 2.185 5.291 2.185 1.925 0 3.85-.736 5.315-2.209l2.314-2.324 2.336 2.336c1.464 1.465 3.384 2.197 5.303 2.197s3.839-.732 5.303-2.196c2.929-2.93 2.929-7.678 0-10.606l-2.36-2.361 2.701-2.714c2.922-2.936 2.911-7.685-.024-10.606-2.936-2.923-7.685-2.914-10.606.024l-2.677 2.689-2.301-2.301c-2.929-2.93-7.678-2.929-10.606-.001-2.929 2.93-2.929 7.678 0 10.607z"/></g></g><g><path d="m32.492 319.658v63.745c0 27.86 10.597 51.805 31.211 67.429 6.189 4.69 19.057 12.246 19.057 12.246 9.683 3.802 20.227 5.889 31.258 5.889 47.256 0 85.564-38.308 85.564-85.564v-63.745z" fill="#c38c66"/><path d="m83.087 463.194c-31.97-12.39-54.63-43.45-54.63-79.79v-63.75h15v67.31c0 32.05 15.8 60.191 39.63 76.23z" fill="#b57f5f"/><path d="m62.657 319.658v63.745c0 19.549 6.631 35.284 21.936 45.191 5.102 3.302 16.153 8.632 16.153 8.632.295.073.887.35.887.35 3.984.91 8.13 1.391 12.385 1.391 30.639 0 55.564-24.926 55.564-55.564v-63.745z" fill="#f8f7f7"/><path d="m101.657 437.581c-24.72-5.62-43.2-27.777-43.2-54.177v-63.75h15v67.06c0 21.78 11.37 40.817 28.2 50.867z" fill="#e8e8e8"/><circle cx="114.019" cy="381.585" fill="#e8e8e8" r="22.5"/><path d="m18.618 245.095.443-117.437c0-25.033 6.113-47.392 21.413-64.844 3.775-4.306 11.149-12.664 11.149-12.664 17.017-13.729 38.663-21.948 62.23-21.948h.005c54.776 0 99.18 44.404 99.18 99.18v103.513l-7.481 15.069z" fill="#c38c66"/><path d="m213.037 230.895v16.653l-104.141 8.257-94.219-7.541v-120.879c0-31.21 14.41-59.05 36.95-77.23-13.73 17.01-21.95 38.66-21.95 62.23v107.75c0 5.51 4.45 9.98 9.95 10z" fill="#b57f5f"/><path d="m216.81 323.053-204.643-.426c-5.523 0-10-4.477-10-10l-.979-54.66c0-5.523 4.477-10 10-10l3.488-2.004h203.034c5.523 0 10 4.477 10 10v52.341l-.9 4.748c0 5.523-4.477 10.001-10 10.001z" fill="#f8f7f7"/><path d="m227.71 308.305v6c0 5.523-4.477 10-10 10h-207.71c-5.523 0-10-4.477-10-10v-58.34c0-5.523 4.477-10 10-10h4.677v49.34c0 7.18 5.82 13 13 13z" fill="#e8e8e8"/><g fill="#f8f7f7"><path d="m127.156 193.77c-2.929-2.928-7.678-2.928-10.606 0l-2.531 2.531-2.531-2.531c-2.929-2.928-7.678-2.928-10.606 0-2.929 2.93-2.929 7.678 0 10.607l2.53 2.53-2.53 2.53c-2.929 2.93-2.929 7.678 0 10.607 1.464 1.464 3.384 2.196 5.303 2.196s3.839-.732 5.303-2.196l2.531-2.531 2.531 2.531c1.464 1.464 3.384 2.196 5.303 2.196s3.839-.732 5.303-2.196c2.929-2.93 2.929-7.678 0-10.607l-2.53-2.53 2.53-2.53c2.93-2.929 2.93-7.677 0-10.607z"/><path d="m100.881 173.743c1.465 1.465 3.384 2.197 5.304 2.197s3.839-.732 5.303-2.196l2.531-2.531 2.531 2.531c1.464 1.464 3.384 2.196 5.303 2.196s3.839-.732 5.304-2.197c2.929-2.929 2.928-7.678 0-10.606l-2.53-2.53 2.53-2.53c2.929-2.929 2.929-7.678 0-10.606-2.93-2.93-7.678-2.929-10.607-.001l-2.531 2.53-2.531-2.531c-2.929-2.928-7.677-2.929-10.607.001-2.929 2.929-2.928 7.678 0 10.606l2.53 2.53-2.53 2.53c-2.928 2.929-2.928 7.678 0 10.607z"/><path d="m124.626 113.945 2.53-2.53c2.929-2.93 2.929-7.678 0-10.607-2.929-2.928-7.678-2.928-10.606 0l-2.531 2.531-2.531-2.531c-2.929-2.928-7.678-2.928-10.606 0-2.929 2.93-2.929 7.678 0 10.607l2.53 2.53-2.53 2.53c-2.929 2.93-2.929 7.678 0 10.607 1.464 1.464 3.384 2.196 5.303 2.196s3.839-.732 5.303-2.196l2.531-2.531 2.531 2.531c1.464 1.464 3.384 2.196 5.303 2.196s3.839-.732 5.303-2.196c2.929-2.93 2.929-7.678 0-10.607z"/><path d="m103.243 67.452-2.338 2.348c-2.922 2.936-2.911 7.685.024 10.606 1.463 1.457 3.377 2.185 5.291 2.185 1.925 0 3.85-.736 5.315-2.209l2.314-2.324 2.336 2.336c1.464 1.465 3.384 2.197 5.303 2.197s3.839-.732 5.303-2.196c2.929-2.93 2.929-7.678 0-10.606l-2.36-2.361 2.701-2.714c2.922-2.936 2.911-7.685-.024-10.606-2.936-2.923-7.685-2.914-10.606.024l-2.677 2.689-2.301-2.301c-2.929-2.93-7.678-2.929-10.606-.001-2.929 2.93-2.929 7.678 0 10.607z"/></g></g></g></svg>