<svg id="Capa_1" enable-background="new 0 0 497 497" height="512" viewBox="0 0 497 497" width="512" xmlns="http://www.w3.org/2000/svg"><g><path d="m416.309 493.372-333.277-2.979c-4.971 0-9-4.029-9-9l-3.958-470.361c0-4.971 4.029-9 9-9l5.426-2.032h335c4.971 0 9 4.029 9 9v472l-3.191 3.372c0 4.971-4.03 9-9 9z" fill="#f8f7f7"/><path d="m428.5 481v7c0 4.971-4.029 9-9 9h-342c-4.971 0-9-4.029-9-9v-479c0-4.971 4.029-9 9-9h7v462c0 10.493 8.507 19 19 19z" fill="#e8e8e8"/><path d="m248 30c-9.038 0-17.313 3.224-23.71 8.57-7.953 6.647-10.449 21.838-10.449 32.93l-.17 49h68.596l2.447-13v-41.262c-.001-20.014-16.438-36.238-36.714-36.238z" fill="#6f6571"/><path d="m284.71 107.5v13l-36.71 4.149-36.71-4.149v-54.26c0-11.1 5.05-21.02 13-27.67v61.93c0 3.866 3.134 7 7 7z" fill="#635a63"/><path d="m259 62.5h-3.5v-4c0-4.143-3.357-7.5-7.5-7.5s-7.5 3.357-7.5 7.5v4h-3.5c-4.143 0-7.5 3.357-7.5 7.5s3.357 7.5 7.5 7.5h3.5v13c0 4.143 3.357 7.5 7.5 7.5s7.5-3.357 7.5-7.5v-13h3.5c4.143 0 7.5-3.357 7.5-7.5s-3.357-7.5-7.5-7.5z" fill="#f8f7f7"/><g><g><path d="m298.5 187.5h-100c-4.143 0-7.5-3.357-7.5-7.5s3.357-7.5 7.5-7.5h100c4.143 0 7.5 3.357 7.5 7.5s-3.357 7.5-7.5 7.5z" fill="#d8d8d8"/></g><g><path d="m379.5 247.5h-156.5c-4.143 0-7.5-3.357-7.5-7.5s3.357-7.5 7.5-7.5h156.5c4.143 0 7.5 3.357 7.5 7.5s-3.357 7.5-7.5 7.5z" fill="#d8d8d8"/></g><g><path d="m193 247.5h-75.5c-4.143 0-7.5-3.357-7.5-7.5s3.357-7.5 7.5-7.5h75.5c4.143 0 7.5 3.357 7.5 7.5s-3.357 7.5-7.5 7.5z" fill="#d8d8d8"/></g><g><path d="m379.5 277.5h-262c-4.143 0-7.5-3.357-7.5-7.5s3.357-7.5 7.5-7.5h262c4.143 0 7.5 3.357 7.5 7.5s-3.357 7.5-7.5 7.5z" fill="#d8d8d8"/></g><g><path d="m379.5 307.5h-56.585c-4.143 0-7.5-3.357-7.5-7.5s3.357-7.5 7.5-7.5h56.585c4.143 0 7.5 3.357 7.5 7.5s-3.357 7.5-7.5 7.5z" fill="#d8d8d8"/></g><g><path d="m292.915 307.5h-175.415c-4.143 0-7.5-3.357-7.5-7.5s3.357-7.5 7.5-7.5h175.415c4.143 0 7.5 3.357 7.5 7.5s-3.357 7.5-7.5 7.5z" fill="#d8d8d8"/></g><g><path d="m209.5 337.5h-92c-4.143 0-7.5-3.357-7.5-7.5s3.357-7.5 7.5-7.5h92c4.143 0 7.5 3.357 7.5 7.5s-3.357 7.5-7.5 7.5z" fill="#d8d8d8"/></g><g><path d="m163 404.5h-45.5c-4.143 0-7.5-3.357-7.5-7.5s3.357-7.5 7.5-7.5h45.5c4.143 0 7.5 3.357 7.5 7.5s-3.357 7.5-7.5 7.5z" fill="#d8d8d8"/></g><g><path d="m193 434.5h-75.5c-4.143 0-7.5-3.357-7.5-7.5s3.357-7.5 7.5-7.5h75.5c4.143 0 7.5 3.357 7.5 7.5s-3.357 7.5-7.5 7.5z" fill="#d8d8d8"/></g><g><path d="m275.5 217.5h-54c-4.143 0-7.5-3.357-7.5-7.5s3.357-7.5 7.5-7.5h54c4.143 0 7.5 3.357 7.5 7.5s-3.357 7.5-7.5 7.5z" fill="#d8d8d8"/></g></g><path d="m379.5 414.5c0-29.547-23.953-53.5-53.5-53.5-11.711 0-22.543 3.763-31.353 10.145 0 0-4.088 4.395-6.168 6.504-9.529 9.66-12.681 22.019-12.681 36.66 0 29.547 20.655 51.83 50.202 51.83 11.176 0 20.908-2.98 29.489-8.84 5.081-3.47 13.794-11.346 13.794-11.346 6.426-8.829 10.217-19.698 10.217-31.453z" fill="#ff8086"/><path d="m369.35 445.85c-9.71 13.42-25.51 22.15-43.35 22.15-29.55 0-53.5-23.95-53.5-53.5 0-17.84 8.73-33.64 22.15-43.35-6.39 8.8-10.15 19.63-10.15 31.35 0 29.55 23.95 53.5 53.5 53.5 11.72 0 22.55-3.76 31.35-10.15z" fill="#e5646e"/><g><path d="m302.5 422c-4.143 0-7.5-3.357-7.5-7.5 0-17.094 13.906-31 31-31 4.143 0 7.5 3.357 7.5 7.5s-3.357 7.5-7.5 7.5c-8.822 0-16 7.178-16 16 0 4.143-3.357 7.5-7.5 7.5z" fill="#e5646e"/></g><g><path d="m326 445.5c-4.143 0-7.5-3.357-7.5-7.5s3.357-7.5 7.5-7.5c8.822 0 16-7.178 16-16 0-4.143 3.357-7.5 7.5-7.5s7.5 3.357 7.5 7.5c0 17.094-13.906 31-31 31z" fill="#e5646e"/></g><path d="m294 120.5h-82.7l-8.226 1.17c-2.209 0-4 1.791-4 4l-.255 19.83c0 2.209 1.791 4 4 4l8.481 1h82.7c2.209 0 4-1.791 4-4v-22c0-2.209-1.791-4-4-4z" fill="#857e87"/><path d="m211.3 120.5v30h-9.3c-2.21 0-4-1.79-4-4v-22c0-2.21 1.79-4 4-4z" fill="#6f6571"/></g></svg>