<svg id="Capa_1" enable-background="new 0 0 497 497" height="512" viewBox="0 0 497 497" width="512" xmlns="http://www.w3.org/2000/svg"><g><path d="m417.755 493.947-342.383-1.34c-8.284 0-13.362-4.737-13.362-13.021l-.713-462c0-8.006 12.872-17.563 12.872-17.563.276-.015.553-.023.831-.023h242.529c2.885 0 5.706.623 8.283 1.796 0 0 2.956 3.313 4.667 5.023l96.638 101.021c1.71 1.71 8.087 3.348 8.087 3.348 1.172 2.577 1.796 5.398 1.796 8.283v362.529c0 .336-.011.67-.033 1 0 0-11.264 10.947-19.212 10.947z" fill="#f8f7f7"/><g><path d="m436.967 483c-.51 7.82-7.027 14-14.967 14h-347c-8.28 0-15-6.72-15-15v-467c0-8 6.27-14.548 14.17-14.977-.1 8.42-.17 14.827-.17 14.977v448c0 11.05 8.95 20 20 20z" fill="#e8e8e8"/></g><path d="m366.938 190.312h-39.563-39.563v-40.552h-39.562v40.552h-39.562-39.563v-39.563-39.562h-39.562v39.562 39.563 39.562 39.563 39.562h-39.563v39.563h39.563v39.562h39.562v-39.562h39.563 39.562v-39.563h-39.562-39.563v-39.562-39.563h39.563 39.562v39.563h39.562v-39.563h39.563 39.563 39.562v-39.562z" fill="#e8e8e8"/><path d="m406.5 182.812h-39.562-39.562-32.062v-33.052c0-4.142-3.357-7.5-7.5-7.5h-39.564c-4.143 0-7.5 3.358-7.5 7.5v33.052h-32.062-32.062v-32.062-39.562c0-4.142-3.357-7.5-7.5-7.5h-39.562c-4.143 0-7.5 3.358-7.5 7.5v39.562 39.562 39.562 39.563 32.063h-32.064c-4.143 0-7.5 3.358-7.5 7.5v39.562c0 4.142 3.357 7.5 7.5 7.5h32.062v32.062c0 4.142 3.357 7.5 7.5 7.5h39.562c4.143 0 7.5-3.358 7.5-7.5v-32.062h32.062 39.562c4.143 0 7.5-3.358 7.5-7.5v-39.562c0-4.142-3.357-7.5-7.5-7.5h-39.562-32.062v-32.062-32.063h32.062 32.062v32.063c0 4.142 3.357 7.5 7.5 7.5h39.562c4.143 0 7.5-3.358 7.5-7.5v-32.063h32.062 39.562 39.566c4.143 0 7.5-3.358 7.5-7.5v-39.562c0-4.143-3.357-7.501-7.5-7.501zm-150.75 39.563v-24.562h24.562v24.562zm0-65.115h24.562v25.552h-24.562zm-118.687 183.802v-24.562h24.562v24.562zm24.562-158.25h-24.562v-24.562h24.562zm0 118.688h-24.562v-24.562h24.562zm0-39.563h-24.562v-24.563h24.562zm-24.562-39.562v-24.562h24.562v24.562zm0-103.688h24.562v24.562h-24.562zm-39.563 197.813h24.562v24.562h-24.562zm64.125 64.125h-24.562v-24.562h24.562zm79.125-39.563h-24.562v-24.562h24.562zm-39.562 0h-24.562v-24.562h24.562zm-24.563-143.25h24.562v24.562h-24.562zm39.563 0h24.562v24.562h-24.562zm64.124 64.125h-24.562v-24.563h24.562zm15-64.125h24.562v24.562h-24.562zm39.563 0h24.562v24.562h-24.562zm64.125 24.563h-24.562v-24.562h24.562z" fill="#857e87"/><path d="m332.479 81.187h-232.479c-5.523 0-10-4.477-10-10v-31.187c0-5.523 4.477-10 10-10h232.479z" fill="#ff8086"/><g fill="#e8e8e8"><path d="m308.25 316.5h98.25c4.143 0 7.5-3.358 7.5-7.5s-3.357-7.5-7.5-7.5h-98.25c-4.143 0-7.5 3.358-7.5 7.5s3.357 7.5 7.5 7.5z"/><path d="m406.5 331.5h-98.25c-4.143 0-7.5 3.358-7.5 7.5s3.357 7.5 7.5 7.5h98.25c4.143 0 7.5-3.358 7.5-7.5s-3.357-7.5-7.5-7.5z"/><path d="m406.5 361.5h-26.149c-4.143 0-7.5 3.358-7.5 7.5s3.357 7.5 7.5 7.5h26.149c4.143 0 7.5-3.358 7.5-7.5s-3.357-7.5-7.5-7.5z"/><path d="m308.25 376.5h42.101c4.143 0 7.5-3.358 7.5-7.5s-3.357-7.5-7.5-7.5h-42.101c-4.143 0-7.5 3.358-7.5 7.5s3.357 7.5 7.5 7.5z"/><path d="m406.5 391.5h-98.25c-4.143 0-7.5 3.358-7.5 7.5s3.357 7.5 7.5 7.5h98.25c4.143 0 7.5-3.358 7.5-7.5s-3.357-7.5-7.5-7.5z"/><path d="m406.5 421.5h-167.812c-4.143 0-7.5 3.358-7.5 7.5s3.357 7.5 7.5 7.5h167.812c4.143 0 7.5-3.358 7.5-7.5s-3.357-7.5-7.5-7.5z"/><path d="m120 436.5h88.688c4.143 0 7.5-3.358 7.5-7.5s-3.357-7.5-7.5-7.5h-88.688c-4.143 0-7.5 3.358-7.5 7.5s3.357 7.5 7.5 7.5z"/><path d="m356.5 451.5h-236.5c-4.143 0-7.5 3.358-7.5 7.5s3.357 7.5 7.5 7.5h236.5c4.143 0 7.5-3.358 7.5-7.5s-3.357-7.5-7.5-7.5z"/><path d="m278.27 316.5c4.143 0 7.5-3.358 7.5-7.5s-3.357-7.5-7.5-7.5h-.01c-4.142 0-7.495 3.358-7.495 7.5s3.363 7.5 7.505 7.5z"/><path d="m278.27 346.5c4.143 0 7.5-3.358 7.5-7.5s-3.357-7.5-7.5-7.5h-.01c-4.142 0-7.495 3.358-7.495 7.5s3.363 7.5 7.505 7.5z"/><path d="m278.27 376.5c4.143 0 7.5-3.358 7.5-7.5s-3.357-7.5-7.5-7.5h-.01c-4.142 0-7.495 3.358-7.495 7.5s3.363 7.5 7.505 7.5z"/><path d="m278.27 406.5c4.143 0 7.5-3.358 7.5-7.5s-3.357-7.5-7.5-7.5h-.01c-4.142 0-7.495 3.358-7.495 7.5s3.363 7.5 7.505 7.5z"/><path d="m90.02 421.5h-.01c-4.142 0-7.495 3.358-7.495 7.5s3.363 7.5 7.505 7.5c4.143 0 7.5-3.358 7.5-7.5s-3.358-7.5-7.5-7.5z"/><path d="m90.02 451.5h-.01c-4.142 0-7.495 3.358-7.495 7.5s3.363 7.5 7.505 7.5c4.143 0 7.5-3.358 7.5-7.5s-3.358-7.5-7.5-7.5z"/></g><g><g><path d="m341.159 63.093h-124.212c-4.143 0-7.5-3.358-7.5-7.5s3.357-7.5 7.5-7.5h124.212c4.143 0 7.5 3.358 7.5 7.5s-3.357 7.5-7.5 7.5z" fill="#e5646e"/></g><g><path d="m186.947 63.093h-55.947c-4.143 0-7.5-3.358-7.5-7.5s3.357-7.5 7.5-7.5h55.947c4.143 0 7.5 3.358 7.5 7.5s-3.357 7.5-7.5 7.5z" fill="#e5646e"/></g></g><path d="m435.2 111.19h-88.58c-11.49 0-20.81-9.32-20.81-20.81v-88.58c2.16.98 4.16 2.35 5.86 4.06l99.47 99.47c1.71 1.7 3.08 3.7 4.06 5.86z" fill="#e8e8e8"/></g></svg>