<svg id="Capa_1" enable-background="new 0 0 497 497" height="512" viewBox="0 0 497 497" width="512" xmlns="http://www.w3.org/2000/svg"><g><path d="m25.966 490.692-18.873-20.553c-5.969-5.969-5.969-15.648 0-21.617l75.723-73.745 41.319 41.319-25.745 25.747-7.701 3.956-2.909 6.654-17.485 17.485-7.861 1.308-2.744 9.297-11.981 11.981c-.547.547-1.125 1.044-1.729 1.49-5.983 4.429-14.592 2.101-20.014-3.322z" fill="#857e87"/><path d="m35.288 483.331c4.48 4.48 7.99 7.99 10.69 10.68-5.98 4.43-14.47 3.93-19.89-1.49l-21.61-21.61c-5.97-5.97-5.97-15.65 0-21.62l11.979-11.981 6.913-.979 3.691-9.626 17.484-17.486 6.972-1.038 3.637-9.572 25.743-25.747 9.2 9.2-69.56 69.55c-4.69 4.69-4.69 12.29 0 16.97z" fill="#6f6571"/><path d="m454.477 431.121c-16.477-6.613-34.345-7.185-51.448-7.21-17.297-.025-33.829.573-50.482 7.28l-4.412-25.243 4.342-27.997c16.8 6.782 34.382 6.306 51.829 6.231 17.001-.073 33.867.428 50.242-6.161 8.619 16.6 8.59 36.52-.071 53.1z" fill="#f8f7f7"/><path d="m308.167 309.171-30.5 1.607-5.28 6.143-47.09 10.2c-25.17 5.45-48.23 18.03-66.44 36.24l-21.92 21.92-22.722-23.094 21.92-21.92c18.21-18.21 31.146-40.192 36.596-65.362l17.564-83.606 23.612 23.612-11.335 43.75-.257 10.1-5.317 24.701c-.76 3.51 2.33 6.65 5.85 5.95l25.39-4.999 9.43-.102 45.02-10.619z" fill="#ffd064"/><path d="m308.167 309.171-35.78 7.75c-15.91-4.87-30.74-12.42-44.15-22.51l54.45-10.72z" fill="#edc258"/><path d="m213.907 214.911-14.08-14.08-12-12-7.79 35.94c.001.003.002.007.003.01l-10.163 46.92c-5.45 25.17-18.03 48.23-36.24 66.44l-21.92 21.92 12 12 21.92-21.92c18.21-18.21 30.79-41.27 36.24-66.44l5.416-25.004c.764-3.527 5.434-4.316 7.314-1.236 2.367 3.877 4.934 7.648 7.707 11.3z" fill="#edc258"/><path d="m441.923 55.075c44.725 44.725 36.397 125.826-18.564 180.786-48.953 49.45-129.881 67.278-180.787 18.564-44.725-44.725-36.397-125.826 18.564-180.786 19.954-19.953 43.352-33.761 67.205-41.114 18.628-5.743 37.532-7.549 55.289-5.274 22.135 2.837 42.486 12.017 58.293 27.824z" fill="#f8f7f7"/><g><g><path d="m70.298 469.941-10.611 10.6-41.631-41.631 10.6-10.611z" fill="#6f6571"/></g><g><path d="m65.273 398.119h15.005v57.438h-15.005z" fill="#6f6571" transform="matrix(.707 -.707 .707 .707 -280.506 176.48)"/></g></g><g><g><path d="m36.258 435.901-10.61 10.6-9.191-9.19 10.601-10.61z" fill="#635a63"/></g><g><path d="m46.945 402.012h15.005v12.997h-15.005z" fill="#635a63" transform="matrix(.707 -.707 .707 .707 -272.912 158.148)"/></g></g><path d="m463.638 115.351-18.22 18.22-20.26-20.26 36.32-36.311c-2.26-4.63-4.9-9.07-7.95-13.27l-38.981 38.981-20.26-20.26 38.981-38.981c-4.2-3.04-8.63-5.69-13.26-7.95l-36.321 36.321-20.26-20.26 18.22-18.22c-6.67-.85-16.941-12.436-23.881-12.096-4.98.25-10.01.81-15.06 1.68-5.7.97-8.009 13.676-13.699 15.436l13.2 13.2-19.55 19.55-28.171-28.171c-4.46 2.44-8.85 5.13-13.15 8.06l30.721 30.721-19.61 19.61-32.67-32.701c-.62.6-7.974-.99-8.584-.39-2.96 2.96.974 8.2-1.706 11.31l32.351 32.381-19.49 19.5-29.191-29.191c-2.71 4.56-5.15 9.2-7.32 13.89l25.901 25.901-20.16 20.17-8.8-8.8c-1.33 6.24-12.012 10.857-12.402 17.027-.04.55-.07 1.09-.1 1.64-.34 6.94 9.732 15.393 10.581 22.063l10.72-10.72 20.26 20.26-28.821 28.811c2.26 4.63 4.9 9.07 7.95 13.27l31.471-31.471 20.26 20.26-31.341 31.341c4.27 3.05 8.71 5.69 13.28 7.94l28.671-28.671 20.26 20.25-10.68 10.68c6.73.89 16.169 10.238 23.029 9.888.54-.03 1.08-.06 1.62-.1 6.2-.39 9.831-10.368 16.011-11.698l-8.77-8.77 20.17-20.16 25.861 25.861c4.73-2.18 9.38-4.62 13.91-7.3l-29.171-29.171 19.45-19.44 32.371 32.391c3.17-2.72 6.24-5.58 9.18-8.55.58-.58 1.16-1.17 1.73-1.76l-32.671-32.691 19.65-19.65 30.711 30.711c2.94-4.3 5.63-8.69 8.07-13.15l-28.171-28.171 19.55-19.55 13.2 13.2c1.76-5.69 13.287-12.427 14.257-18.128.87-5.05 1.43-10.08 1.68-15.06.34-6.94-10.067-12.782-10.916-19.452zm-59.691-2.04-19.55 19.55-20.26-20.26 19.55-19.55zm-70.05 29.53 19.63-19.63 20.26 20.26-19.64 19.64zm9.641 30.88-19.46 19.46-20.26-20.26 19.48-19.47zm9.28-111.53 20.26 20.26-19.55 19.55-20.26-20.26zm-30.161 30.16 20.26 20.25-19.62 19.63-20.25-20.27zm-30.22 30.22 20.25 20.26-19.48 19.48-20.26-20.26zm-50.26 50.25 20.17-20.16 20.26 20.26-20.17 20.16zm30.871 30.87 20.16-20.16 20.26 20.26-20.16 20.16zm51.129 51.13-20.26-20.26 20.16-20.16 20.26 20.25zm30.77-30.77-20.26-20.26 19.46-19.46 20.25 20.27zm30.05-30.06-20.25-20.27 19.65-19.64 20.26 20.26zm30.261-30.26-20.26-20.26 19.55-19.55 20.26 20.26z" fill="#e8e8e8"/><path d="m125.019 421.235-49.606-49.174c-4.298-4.298-4.298-11.268 0-15.566l9.021-8.739c4.298-4.298 11.268-4.298 15.566 0l1.09.243 49.318 49.318c4.298 4.298 4.298 11.268 0 15.566l-8.244 8.244-1.579.108c-4.299 4.298-11.268 4.298-15.566 0z" fill="#ffe07d"/><path d="m142.164 421.127-1.406 1.414c-4.3 4.29-11.27 4.29-15.57 0l-50.73-50.73c-4.29-4.3-4.29-11.27 0-15.57l9.66-9.65c4.3-4.3 11.27-4.3 15.56 0l1.41 1.41-11.071 11.071c-2.733 2.733-2.734 7.165 0 9.899z" fill="#ffd064"/><path d="m454.548 378.021c-33.18 13.35-68.9 13.32-102.07-.07 2.65-5.08 6.717-8.658 10.977-12.918 3.161-3.159 6.609-5.9 10.245-8.17 2.64-1.649 7.575-5.408 7.575-5.408 20.886-8.738 45.879-4.609 62.883 12.387 4.279 4.279 7.739 9.069 10.39 14.179z" fill="#8ce1a4"/><path d="m454.477 431.121c-2.31 4.419-5.233 8.608-8.768 12.426 0 0-1.249.81-1.779 1.34-22.46 22.45-57.058 21.042-79.518-1.408-4.22-4.23-9.225-7.259-11.865-12.289 33.12-13.339 68.791-13.369 101.93-.069z" fill="#8ce1a4"/><path d="m376.697 423.911c-4.743.966-7.161 8.955-11.838 10.441-3.359 1.067-8.997-4.495-12.312-3.161-8.71-16.62-8.73-36.6-.07-53.24 1.739.701 7.121-2.439 8.871-1.812 2.92 1.047 2.218 5.794 5.169 6.632-1.58 11.67.43 23.74 6.03 34.42 1.211 2.31 2.591 4.56 4.15 6.72z" fill="#e8e8e8"/><path d="m381.275 351.454c-3.55 3.84-6.477 8.047-8.797 12.497-3.1 5.95-5.08 12.32-5.96 18.82-4.72-1.34-9.4-2.95-14.04-4.82 2.65-5.08 6.1-9.85 10.36-14.11 5.46-5.45 11.737-9.587 18.437-12.387z" fill="#7ad396"/><path d="m445.71 443.547c-.5.54-1.022 1.083-1.553 1.613-22.46 22.45-58.86 22.45-81.32 0-4.22-4.23-7.65-8.94-10.29-13.97 7.93-3.19 16-5.62 24.15-7.28 1.81 2.54 3.86 4.96 6.14 7.25 17.001 16.991 41.993 21.117 62.873 12.387z" fill="#7ad396"/><path d="m460.197 36.801c-15.17-15.18-33.56-25.59-53.59-31.37-9.4-2.71-20.11-2.71-30.07-3.4-46.18-3.17-94.35 18.57-133.17 57.38-65.04 65.04-72.99 156.46-17.7 211.75 15.18 14.56 31.37 25.1 49.54 30.94 6.7 2.15 20.09 5.72 20.09 5.72 51.97 8.05 108.45-13.61 147.23-52.79 65.041-65.04 72.97-162.94 17.67-218.23zm-40.72 195.18c-46.61 47.08-123.66 64.05-172.13 17.67-42.58-42.58-34.65-119.8 17.67-172.13 19-18.99 41.28-32.14 63.99-39.14 17.74-5.47 35.73-7.19 52.64-5.02 21.07 2.7 40.45 11.44 55.5 26.49 42.58 42.58 34.651 119.8-17.67 172.13z" fill="#ffe07d"/><path d="m407.357 5.661c-53.1-15.67-117.98 1.4-165.39 48.81-65.04 65.04-72.97 162.94-17.67 218.23 20.89 20.03 45.6 31.26 71.4 35.18-19.22-5.69-37.43-15.87-53.4-31.18-55.3-55.29-47.37-153.19 17.67-218.23 42.171-42.17 98.171-60.34 147.39-52.81z" fill="#ffd064"/></g></svg>