<svg id="Capa_1" enable-background="new 0 0 497 497" height="512" viewBox="0 0 497 497" width="512" xmlns="http://www.w3.org/2000/svg"><g><g><path d="m417.56 487.319h-205.805l-11.976-.632c-38.186 0-64.662-32.065-64.662-70.251l-1.787-108.753c0-7.18 3.6-13 10.78-13s13 5.82 13 13v110.385c0 23.849 19.402 43.251 43.251 43.251h217.199c.605 0 1.203-.03 1.793-.09 8.939-.902 18.509-8.47 18.509-17.643 0-8.843-9.075-16.196-17.552-17.521-.897-.14-1.815-.213-2.75-.213h-144.081l-12.498-.905c-24.206 0-40.715-18.789-40.715-42.995 0-24.207 16.509-43.197 40.715-43.197l11.732-.703h112.01c.523 0 1.035-.048 1.532-.141 3.879-.722 8.479-3.178 8.479-7.262l.298-28.098c0-7.18 3.869-13 11.048-13s13 5.82 13 13v27.145c0 18.944-15.413 34.356-34.357 34.356h-123.742c-9.87 0-17.899 8.03-17.899 17.9s8.03 17.899 17.899 17.899h156.579c24.115 0 43.734 19.619 43.734 43.734s-19.62 43.734-43.734 43.734z" fill="#f8f7f7"/></g><path d="m215.36 487.32h-15c-38.18 0-69.25-31.07-69.25-69.25v-110.39c0-7.18 5.82-13 13-13 2.79 0 5.38.88 7.5 2.39-3.33 2.34-5.5 6.22-5.5 10.61v110.39c0 38.18 31.07 69.25 69.25 69.25z" fill="#e8e8e8"/><path d="m164.047 322.351h-17.937l-20.461-1.681c-2.761 0-5-2.239-5-5l-.255-26.119h48.654v27.8c-.001 2.761-2.239 5-5.001 5z" fill="#e8e8e8"/><path d="m146.11 289.551v32.799h-21.63c-2.76 0-5-2.24-5-5v-27.799z" fill="#d8d8d8"/><g fill="#e8e8e8"><path d="m275.98 425.85h-15c-24.21 0-43.9-19.69-43.9-43.9 0-24.2 19.69-43.9 43.9-43.9h15c-24.21 0-43.9 19.7-43.9 43.9 0 24.21 19.69 43.9 43.9 43.9z"/><path d="m413.58 291.93c-3.33 2.35-5.5 6.23-5.5 10.62v27.15c0 4.6-3.75 8.35-8.36 8.35h-15c4.61 0 8.36-3.75 8.36-8.35v-27.15c0-7.18 5.82-13 13-13 2.79 0 5.38.88 7.5 2.38z"/><path d="m450.29 443.59c0 9.77-7.95 17.73-17.73 17.73h-15c9.78 0 17.73-7.96 17.73-17.73 0-9.78-7.95-17.74-17.73-17.74h15c9.78 0 17.73 7.96 17.73 17.74z"/></g><path d="m264.564 290.606-239.915-1.617c-11.046 0-20-8.954-20-20l-2.681-225.574c0-9.32 13.033-23.381 13.033-23.381 1.598-.411 3.273-.63 4.999-.63h248.527c11.046 0 20 8.954 20 20v12.612l-26.601 103.277 26.601 104.923v12.612c0 1.727-.219 3.403-.631 5.002 0-.001-14.014 12.776-23.332 12.776z" fill="#afefa5"/><path d="m287.896 277.829c-2.22 8.62-10.056 15.001-19.366 15.001h-248.53c-5.262 0-10.047-2.032-13.617-5.352 0 0-3.35-10.007-3.35-15.79l-1.448-231.848c0-5.785 4.795-15.085 4.795-15.085 2.399-2.231 5.348-3.88 8.621-4.722l-.001 234.797c0 12.7 10.3 23 23 23z" fill="#8ce1a4"/><path d="m288.527 52.015h-182.995c-11.046 0-20 8.954-20 20v168.2c0 11.046 8.954 20 20 20h182.995z" fill="#8ce1a4"/><path d="m139.96 104.89v102.45c0 19.44-12.3 36.88-30.61 43.41l-102.96 36.72s-1.422-10.967-1.422-16.757l-2.41-230.341c0-5.78 3.832-15.612 3.832-15.612l102.96 36.72c18.31 6.53 30.61 23.98 30.61 43.41z" fill="#8ce1a4"/><path d="m34.27 277.53-27.869 9.965c-3.93-3.64-6.401-8.935-6.401-14.725l2.989-6.334.958-212.681-3.947-14.355c0-5.78 2.468-10.992 6.388-14.652.01.01 0 0 0 0l8.612 3.082v227c0 11.43 8.34 20.91 19.27 22.7z" fill="#7ad396"/><g><path d="m139.96 104.89v102.45c0 19.44-12.3 36.88-30.61 43.41l-15.66 5.58c-4.95-3.64-8.16-9.5-8.16-16.11v-168.2c0-6.62 3.22-12.49 8.17-16.12l15.65 5.58c18.31 6.53 30.61 23.98 30.61 43.41z" fill="#7ad396"/></g><path d="m103.977 235.68-85.898 30.639-16.877 3.628 7.838-116.32-7.455-111.829 13.414 3.016 88.979 31.738c11.982 4.274 19.981 15.62 19.981 28.341v102.447c-.001 12.719-8 24.066-19.982 28.34z" fill="#afefa5"/><path d="m18.08 266.32-18.08 6.45v-233.31l15 5.35v210.02c0 4.19 1.12 8.11 3.08 11.49z" fill="#8ce1a4"/><path d="m473.734 300.904-135.213-1.353c-11.046 0-20-8.954-20-20l-.021-247.562c0-8.584 9.97-21.051 9.97-21.051 2.178-.813 4.536-1.258 6.997-1.258h141.533c11.046 0 20 8.954 20 20v252.87c0 2.463-.445 4.821-1.259 7 0 0-13.424 11.354-22.007 11.354z" fill="#f8f7f7"/><path d="m495.741 289.55c-2.83 7.59-10.151 13-18.741 13h-141.53c-11.05 0-20-8.95-20-20v-252.87c0-8.59 5.41-15.911 13-18.741v258.611c0 11.05 8.95 20 20 20z" fill="#e8e8e8"/><path d="m345.591 160.477 1.143-90.977c0-2.209 1.791-4 4-4l4.816-1.658h110.369c2.209 0 4 1.791 4 4v87.568l-2 7.002c0 2.209-1.791 4-4 4l-114.328-1.935c-2.209 0-4-1.791-4-4z" fill="#afefa5"/><path d="m469.919 155.41.001 9c0 2.209-1.791 4-4 4h-119.37c-2.209 0-4-1.791-4-4v-96.57c0-2.209 1.791-4 4-4l9 .002v81.568c0 5.523 4.477 10 10 10z" fill="#8ce1a4"/><g><path d="m435.605 44.143h-58.744c-4.142 0-7.5-3.357-7.5-7.5s3.358-7.5 7.5-7.5h58.744c4.142 0 7.5 3.357 7.5 7.5s-3.357 7.5-7.5 7.5z" fill="#e8e8e8"/></g><circle cx="406.233" cy="254.441" fill="#e8e8e8" r="24.5"/><g><path d="m406.233 255.198c-4.142 0-7.5-3.357-7.5-7.5v-19.922c0-4.143 3.358-7.5 7.5-7.5s7.5 3.357 7.5 7.5v19.922c0 4.142-3.358 7.5-7.5 7.5z" fill="#d8d8d8"/></g><path d="m465.919 195.513h-19.426c-2.209 0-4 1.791-4 4v19.426c0 2.209 1.791 4 4 4h19.426c2.209 0 4-1.791 4-4v-19.426c0-2.209-1.791-4-4-4z" fill="#e8e8e8"/><path d="m346.548 195.513h19.426c2.209 0 4 1.791 4 4v19.426c0 2.209-1.791 4-4 4h-19.426c-2.209 0-4-1.791-4-4v-19.426c0-2.209 1.79-4 4-4z" fill="#e8e8e8"/><path d="m435.616 108.081c.129-9.244-7.294-16.935-16.39-16.962-4.489-.014-8.569 1.792-11.569 4.73-.786.77-2.007.769-2.794 0-2.98-2.914-7.041-4.694-11.52-4.661-8.911.065-16.314 7.481-16.491 16.536-.336 17.137 23.535 30.386 28.508 32.959.565.292 1.233.287 1.795-.013 4.894-2.621 28.23-15.973 28.461-32.589z" fill="#ff8086"/></g></svg>