<svg id="Capa_1" enable-background="new 0 0 497 497" height="512" viewBox="0 0 497 497" width="512" xmlns="http://www.w3.org/2000/svg"><g><path d="m203.651 423.313 156.511.468c10.683 0 29.616-10.662 29.616-10.662 2.928-4.632 4.623-10.122 4.623-16.008v-367.111c0-16.569-13.431-30-30-30h-166.08c-5.885 0-11.375 1.695-16.007 4.623 0 0-4.982 5.096-7.152 7.946-3.839 5.041-4.745 11.515-4.745 18.34l3.234 362.404c0 16.568 13.431 30 30 30z" fill="#857e87"/><g fill="#6f6571"><path d="m343.679 408.117v-308.227c0-24.853-20.147-45-45-45h-111.364c-2.761 0-5-2.238-5-5l-.001-45.268c-8.41 5.29-13.989 14.688-13.989 25.378v367.11c0 16.569 13.431 30 30 30h166.08c10.68 0 20.073-5.582 25.372-13.992l-41.099-.002c-2.761.001-4.999-2.238-4.999-4.999z"/><path d="m368.402 31.984v166.156c0 1.105-.895 2-2 2h-170.086c-1.105 0-2-.895-2-2v-166.156c0-3.308 2.682-5.991 5.991-5.991h162.106c3.307.001 5.989 2.683 5.989 5.991z"/><path d="m368.402 229.135v165.986c0 3.308-2.682 5.991-5.991 5.991h-162.105c-3.308 0-5.991-2.682-5.991-5.991v-165.986c0-1.105.895-2 2-2h170.087c1.105 0 2 .896 2 2z"/></g><path d="m343.679 227.14v173.97h-143.37c-3.31 0-5.99-2.68-5.99-5.99v-165.98c0-1.11.89-2 2-2z" fill="#635a63"/><path d="m343.679 99.89v100.25h-147.36c-1.11 0-2-.89-2-2v-143.25h104.36c24.81 0 45 20.19 45 45z" fill="#635a63"/><path d="m137.924 493.202 156.511.468c10.683 0 29.616-10.662 29.616-10.662 2.928-4.632 4.623-10.122 4.623-16.008v-367.111c0-16.569-13.431-30-30-30h-166.08c-5.885 0-11.375 1.695-16.007 4.623 0 0-4.982 5.096-7.152 7.946-3.839 5.041-4.745 11.515-4.745 18.34l3.234 362.404c0 16.569 13.432 30 30 30z" fill="#857e87"/><path d="m324.051 483.008c-5.3 8.41-14.693 13.992-25.373 13.992h-166.08c-16.57 0-30-13.43-30-30v-367.11c0-10.69 5.579-20.088 13.988-25.378l.013 385.488c0 12.7 10.29 23 23 23z" fill="#6f6571"/><path d="m302.676 101.874v166.156c0 1.105-.895 2-2 2h-170.087c-1.105 0-2-.895-2-2v-166.156c0-3.308 2.682-5.991 5.991-5.991h162.106c3.308 0 5.99 2.682 5.99 5.991z" fill="#6f6571"/><path d="m302.676 299.025v165.986c0 3.308-2.682 5.991-5.991 5.991h-162.105c-3.308 0-5.991-2.682-5.991-5.991v-165.986c0-1.105.895-2 2-2h170.087c1.104 0 2 .895 2 2z" fill="#6f6571"/><path d="m274.96 153.457c0 2.193-.327 4.31-.936 6.304 0 0-2.168 2.952-3.026 4.403-3.754 6.352-9.699 9.176-17.613 9.176-11.915 0-20.802-7.968-20.802-19.883 0-6.306 2.463-11.364 6.777-15.308 1.466-1.341 4.385-3.997 4.385-3.997 2.902-1.452 6.176-2.269 9.641-2.269 11.915.001 21.574 9.659 21.574 21.574z" fill="#f8f7f7"/><path d="m274.024 159.762c-2.69 8.84-10.916 15.268-20.636 15.268-11.92 0-21.58-9.66-21.58-21.57 0-8.45 4.856-15.778 11.936-19.308-.61 1.99-.936 4.118-.936 6.308 0 11.91 9.66 21.57 21.58 21.57 3.461 0 6.736-.808 9.636-2.268z" fill="#e8e8e8"/><path d="m199.458 212.512c0 2.193-.327 4.31-.936 6.304 0 0-2.168 2.952-3.026 4.403-3.754 6.352-9.699 9.176-17.613 9.176-11.915 0-20.802-7.968-20.802-19.883 0-6.306 2.463-11.364 6.777-15.308 1.466-1.341 4.385-3.997 4.385-3.997 2.902-1.452 6.176-2.269 9.641-2.269 11.915 0 21.574 9.659 21.574 21.574z" fill="#f8f7f7"/><path d="m198.523 218.817c-2.69 8.84-10.916 15.268-20.636 15.268-11.92 0-21.58-9.66-21.58-21.57 0-8.45 4.856-15.778 11.936-19.308-.61 1.99-.936 4.118-.936 6.308 0 11.91 9.66 21.57 21.58 21.57 3.46 0 6.735-.809 9.636-2.268z" fill="#e8e8e8"/><path d="m199.458 350.398c0 2.193-.327 4.31-.936 6.304 0 0-2.168 2.952-3.026 4.403-3.754 6.352-9.699 9.176-17.613 9.176-11.915 0-20.802-7.968-20.802-19.883 0-6.306 2.463-11.364 6.777-15.308 1.466-1.341 4.385-3.997 4.385-3.997 2.902-1.452 6.176-2.269 9.641-2.269 11.915 0 21.574 9.659 21.574 21.574z" fill="#f8f7f7"/><path d="m198.523 356.703c-2.69 8.84-10.916 15.268-20.636 15.268-11.92 0-21.58-9.66-21.58-21.57 0-8.45 4.856-15.778 11.936-19.308-.61 1.99-.936 4.118-.936 6.308 0 11.91 9.66 21.57 21.58 21.57 3.46 0 6.735-.808 9.636-2.268z" fill="#e8e8e8"/><path d="m199.458 425.345c0 2.193-.327 4.31-.936 6.304 0 0-2.168 2.952-3.026 4.403-3.754 6.352-9.699 9.176-17.613 9.176-11.915 0-20.802-7.968-20.802-19.883 0-6.306 2.463-11.364 6.777-15.308 1.466-1.341 4.385-3.997 4.385-3.997 2.902-1.452 6.176-2.269 9.641-2.269 11.915 0 21.574 9.659 21.574 21.574z" fill="#f8f7f7"/><path d="m198.523 431.65c-2.69 8.84-10.916 15.268-20.636 15.268-11.92 0-21.58-9.66-21.58-21.57 0-8.45 4.856-15.778 11.936-19.308-.61 1.99-.936 4.118-.936 6.308 0 11.91 9.66 21.57 21.58 21.57 3.46 0 6.735-.808 9.636-2.268z" fill="#e8e8e8"/><path d="m274.962 350.398c0 2.193-.327 4.31-.936 6.304 0 0-2.168 2.952-3.026 4.403-3.754 6.352-9.699 9.176-17.613 9.176-11.915 0-20.802-7.968-20.802-19.883 0-6.306 2.463-11.364 6.777-15.308 1.466-1.341 4.385-3.997 4.385-3.997 2.902-1.452 6.176-2.269 9.641-2.269 11.915 0 21.574 9.659 21.574 21.574z" fill="#f8f7f7"/><path d="m274.026 356.703c-2.69 8.84-10.916 15.268-20.636 15.268-11.92 0-21.58-9.66-21.58-21.57 0-8.45 4.856-15.778 11.936-19.308-.61 1.99-.936 4.118-.936 6.308 0 11.91 9.66 21.57 21.58 21.57 3.461 0 6.736-.808 9.636-2.268z" fill="#e8e8e8"/><path d="m274.962 425.345c0 2.193-.327 4.31-.936 6.304 0 0-2.168 2.952-3.026 4.403-3.754 6.352-9.699 9.176-17.613 9.176-11.915 0-20.802-7.968-20.802-19.883 0-6.306 2.463-11.364 6.777-15.308 1.466-1.341 4.385-3.997 4.385-3.997 2.902-1.452 6.176-2.269 9.641-2.269 11.915 0 21.574 9.659 21.574 21.574z" fill="#f8f7f7"/><path d="m274.026 431.65c-2.69 8.84-10.916 15.268-20.636 15.268-11.92 0-21.58-9.66-21.58-21.57 0-8.45 4.856-15.778 11.936-19.308-.61 1.99-.936 4.118-.936 6.308 0 11.91 9.66 21.57 21.58 21.57 3.461 0 6.736-.808 9.636-2.268z" fill="#e8e8e8"/></g></svg>