<svg id="Capa_1" enable-background="new 0 0 497 497" height="512" viewBox="0 0 497 497" width="512" xmlns="http://www.w3.org/2000/svg"><g><path d="m435.322 0c17.552 0 31.781 14.182 31.781 31.676v119.622c0 17.494-14.229 31.676-31.781 31.676h-74.891c-4.337 0-8.557 1.41-12.023 4.018l-54.909 41.307-9.254 2.908c-2.636 1.983-6.405.102-6.405-3.196l.191-37.181c0-4.901-5.06-6.834-9.713-7.69-.591-.109-1.199-.165-1.821-.165h-12.253l-14.255-1.176c-17.552 0-29.128-14.421-29.128-31.915l-.489-113.681c0-12.175 14.731-32.575 14.731-32.575 4.416-2.317 9.445-3.628 14.782-3.628z" fill="#ff8086"/><path d="m293.5 192.97-.001 35.329-10.599 7.971c-2.63 1.98-6.4.1-6.4-3.2v-40.1c0-5.52-4.48-10-10-10h17c5.52 0 10 4.48 10 10z" fill="#e5646e"/><path d="m256.88 182.97h-17c-17.55 0-31.78-14.18-31.78-31.67v-119.62c0-12.18 6.894-22.743 17.004-28.053l-.004 147.673c0 17.49 14.23 31.67 31.78 31.67z" fill="#e5646e"/><g><path d="m393.033 400.665-.462-1.714-46.683-46.684c-7.115-7.115-17.908-9.034-27.041-4.796l-40.272 18.647c-9.134 4.217-19.926 2.299-27.041-4.816l.199.199c-.067-.066-.14-.127-.206-.194l-85.947-85.947c-7.115-7.114-9.034-17.912-4.808-27.043l18.645-40.283c4.226-9.131 2.307-19.929-4.808-27.043l-47.535-47.536c-9.37-9.37-24.561-9.37-33.931 0l-49.2 49.199.001.001-.008.008.034.017.005.004c-1.186 1.186-2.303 2.428-3.349 3.72-11.393 14.069-10.729 34.971-2.253 52.288 56.101 114.521 136.929 194.798 251.45 250.899 16.948 8.313 34.868 6.319 48.881-4.459 1.62-1.246 4.645-4.082 4.651-4.094.006-.006 47.973-48.585 47.973-48.585 9.368-9.369 11.075-22.418 1.705-31.788z" fill="#f8f7f7"/><path d="m393.432 399.81-.86-.86s-46.21 45.517-67.69 66.176c-6.138 5.903-15.335 7.269-22.932 3.423-110.25-55.806-192.436-138.84-247.168-250.839-.47-.96-9.34-20.58-14.15-31.3-11.4 14.07-14.32 33.98-5.85 51.3 56.1 114.52 139.88 198.28 254.4 254.38.772.255-.116.202 3.156 1.282-.035.029-.071.059-.106.088 16.19 6.6 34.19 3.7 47.37-6.44 1.62-1.25 3.16-2.6 4.63-4.06.01-.01.01-.02.02-.04 0 0 .01-.01.02-.01l49.16-49.17c9.37-9.37 9.37-24.56 0-33.93z" fill="#e8e8e8"/></g><path d="m396.104 68.049h-31.062c-2.209 0-4-1.791-4-4v-31.062c0-2.209-1.791-4-4-4h-38.875c-2.209 0-4 1.791-4 4v31.062c0 2.209-1.791 4-4 4h-31.062c-2.209 0-4 1.791-4 4v38.875c0 2.209 1.791 4 4 4h31.062c2.209 0 4 1.791 4 4v31.063c0 2.209 1.791 4 4 4h38.875c2.209 0 4-1.791 4-4v-31.063c0-2.209 1.791-4 4-4h31.062c2.209 0 4-1.791 4-4v-38.875c0-2.209-1.791-4-4-4z" fill="#f8f7f7"/></g></svg>