<svg id="Capa_1" enable-background="new 0 0 497 497" height="512" viewBox="0 0 497 497" width="512" xmlns="http://www.w3.org/2000/svg"><g><g><path d="m417.583 377.53-16.764-1.434-7.869 1.434h-285.4l-6.816-1.881-11.588 1.881v-31.06l13.822 2.434 7.392-2.434h278.91l6.485 1.987 21.828-1.987z" fill="#7bb1ff"/></g><g fill="#62a5f4"><path d="m417.58 346.47v31.06h-24.63v-6.59c0-8.37-1.23-16.57-3.68-24.47z"/><path d="m110.36 346.47-2.81 31.06h-18.4v-31.06z"/></g><g><path d="m356.257 197.339-23.885-2.775-8.932 2.775h-199.55l-6.73-2.435-23.468 2.435v-31.06l27 1.136 6.008-1.136h182.89l6.442 1.732 40.225-1.732z" fill="#e8e8e8"/></g><path d="m356.26 166.28v31.06h-32.82l-13.85-31.06z" fill="#d8d8d8"/><path d="m439.014 414.71h-24.06v-43.768c0-13.879-2.866-27.343-8.519-40.021l-133.205-298.714 21.366-12.65 10.712 29.22 5.721 7.633 116.772 261.862c7.439 16.685 11.212 34.406 11.212 52.67v43.768z" fill="#f8f7f7"/><path d="m415.43 330.92-119.899-268.881c-1.18-2.646.757-5.629 3.653-5.629h11.845l-16.429-36.85-28.37 12.65 10.79 24.2h.001l122.409 274.51c5.66 12.68 8.52 26.14 8.52 40.02v43.77h16v-43.77c0-13.88-2.86-27.34-8.52-40.02z" fill="#e8e8e8"/><path d="m126.7 166.28-2.81 31.06h-30.2v-31.06z" fill="#d8d8d8"/><path d="m88.983 416.113-25.866-2.805 29.277-313.463c2.381-26.254 15.465-50.286 36.528-66.598 16.892-13.082 37.845-19.817 59.21-19.817l65.758-3.078h78.014c8.577 0 15.53 6.953 15.53 15.53 0 8.577-6.953 15.53-15.53 15.53h-78.014l-72.529-7.827c-33.293 0-64.726 31.44-67.733 64.596l.766 9.064 1.939 7.266z" fill="#f8f7f7"/><path d="m188.82 155.11h-26.654c-4.003 0-7.247 3.245-7.247 7.247v38.902c0 4.003 3.245 7.247 7.247 7.247h26.654c4.003 0 7.247-3.245 7.247-7.247v-38.902c0-4.002-3.245-7.247-7.247-7.247z" fill="#857e87"/><path d="m198.49 10.35h-15.988c-21.362 0-42.314 6.731-59.206 19.808-21.069 16.31-34.155 40.345-36.546 66.612l-28.7 316.54 16.43 1.49 26.371-296.666c.245-2.754 2.679-4.787 5.433-4.537l10.046.913 1.36-14.94c3-33.15 30.38-58.16 63.67-58.16h72.53v-31.06z" fill="#e8e8e8"/><path d="m85.878 95.947c-4.853-.441-6.875-5.161-6.016-9.957 4.578-25.564 18.162-45.17 38.872-61.213 18.305-14.174 40.628-22.085 64.596-22.085l45.787-1.617c4.574 0 8.283 3.708 8.283 8.283l1.488 5.642v28.484c0 4.574-3.708 8.283-8.283 8.283h-49.24c-25.488 0-46.838 17.486-52.267 41.694-.903 4.025-4.699 6.723-8.807 6.35l-29.481-2.677z" fill="#7bb1ff"/><path d="m238.89 8.28-.002 6.72h-56.398c-20.65 0-40.67 6.69-56.36 18.84-15.84 12.27-27.07 29.3-32.14 48.52l-3.18 14.774-5.75-.524c-4.86-.44-8.27-4.95-7.41-9.75 4.58-25.56 18.59-48.84 39.3-64.88 18.3-14.17 41.58-21.98 65.54-21.98h48.12c4.57 0 8.28 3.71 8.28 8.28z" fill="#62a5f4"/><g><path d="m468.096 452.387c0 8.998-2.664 17.374-7.246 24.383 0 0-2.79 2.713-4.116 4.241-8.18 9.425-19.791 14.447-33.251 14.447-24.639 0-42.707-18.431-42.707-43.07 0-11.125 3.138-20.563 9.872-28.376 2.739-3.177 8.47-9.002 8.47-9.002 7.004-4.575 15.374-7.234 24.364-7.234 24.64-.002 44.614 19.972 44.614 44.611z" fill="#857e87"/><path d="m460.85 476.77c-7.96 12.18-21.73 20.23-37.37 20.23-24.64 0-44.61-19.97-44.61-44.61 0-15.65 8.05-29.42 20.25-37.38-4.59 7.01-7.25 15.38-7.25 24.38 0 24.64 19.97 44.61 44.61 44.61 8.99 0 17.37-2.66 24.37-7.23z" fill="#6f6571"/><path d="m423.484 466.69c-7.887 0-14.303-6.417-14.303-14.303 0-7.887 6.417-14.302 14.303-14.302 7.887 0 14.302 6.415 14.302 14.302 0 7.886-6.416 14.303-14.302 14.303z" fill="#f8f7f7"/></g><g><path d="m118.13 452.387c0 8.998-2.664 17.374-7.246 24.383 0 0-2.79 2.713-4.116 4.241-8.18 9.425-19.791 14.447-33.251 14.447-24.639 0-42.707-18.431-42.707-43.07 0-11.125 3.138-20.563 9.872-28.376 2.739-3.177 8.47-9.002 8.47-9.002 7.004-4.575 15.374-7.234 24.364-7.234 24.64-.002 44.614 19.972 44.614 44.611z" fill="#857e87"/><path d="m110.884 476.77c-7.96 12.18-21.73 20.23-37.37 20.23-24.64 0-44.61-19.97-44.61-44.61 0-15.65 8.05-29.42 20.25-37.38-4.59 7.01-7.25 15.38-7.25 24.38 0 24.64 19.97 44.61 44.61 44.61 8.99 0 17.37-2.66 24.37-7.23z" fill="#6f6571"/><path d="m73.517 466.69c-7.887 0-14.303-6.417-14.303-14.303 0-7.887 6.417-14.302 14.303-14.302s14.302 6.415 14.302 14.302c0 7.886-6.415 14.303-14.302 14.303z" fill="#f8f7f7"/></g></g></svg>