<svg id="Capa_1" enable-background="new 0 0 497 497" height="512" viewBox="0 0 497 497" width="512" xmlns="http://www.w3.org/2000/svg"><g><path d="m430.303 14.074c-1.089-3.996-5.213-6.35-9.208-5.264l-171.784 46.828c-.521.142-1.07.141-1.59-.003l-169.051-46.816c-3.986-1.102-8.124 1.233-9.229 5.226s1.234 8.124 5.227 9.229l147.539 40.858c-1.768 1.84-1.839 7.17-1.839 7.17l60.88.282s.187-6.614-3.805-7.72l-.631-.175 148.228-40.406c3.996-1.09 6.353-5.213 5.263-9.209z" fill="#e8e8e8"/><g fill="#f8f7f7"><circle cx="423.067" cy="16.047" r="16.047"/><circle cx="76.668" cy="16.047" r="16.047"/><path d="m193.97 92.181c0-8.072 1.965-13.458 7.362-18.638 2.913-2.796 9.557-8.241 9.557-8.241 2.943-1.029 6.106-1.589 9.4-1.589h56.426c10.632 0 19.903 5.829 24.792 14.465 0 0-.813 8.913-.813 14.003z"/></g><path d="m305.182 92.18-60.68 6.98-52.68-6.98c0-7.86 3.18-14.98 8.34-20.13 2.99-2.99 6.647-5.329 10.727-6.749-.858 1.685-1.548 3.474-2.056 5.328-1.043 3.802 1.861 7.55 5.804 7.55l86.87-.002c2.349 4.131 3.675 8.913 3.675 14.003z" fill="#e8e8e8"/><g><path d="m395.652 464.819h-74.387l15.617 25.319c1.799 3.047 5.073 4.916 8.611 4.916l7.17 1.946h18.28c3.538 0 6.812-1.869 8.611-4.916l9.011-15.263.891-5.981z" fill="#b57f5f"/><path d="m388.566 476.821-37.304-.001c-4.644 0-7.528 5.05-5.167 9.05l6.569 11.13h-8.2c-3.542 0-6.821-1.872-8.622-4.923l-16.088-27.257 36.49-9.831 39.41 9.831z" fill="#9f6e50"/></g><g><path d="m177.25 464.819h-74.387l15.617 25.319c1.799 3.047 5.073 4.916 8.611 4.916l7.17 1.946h18.28c3.538 0 6.812-1.869 8.611-4.916l9.011-15.263.891-5.981z" fill="#b57f5f"/><path d="m170.164 476.821-37.304-.001c-4.644 0-7.528 5.05-5.167 9.05l6.569 11.13h-8.2c-3.542 0-6.821-1.872-8.622-4.923l-16.088-27.257 36.49-9.831 39.41 9.831z" fill="#9f6e50"/></g><path d="m407.129 462.926-314.521-1.468c-22.091 0-40-17.909-40-40l-1.489-284.085c0-13.085 13.433-37.192 13.433-37.192 6.686-5.023 14.997-7.999 24.003-7.999h319.894c22.091 0 40 17.909 40 40v292.638c0 9.005-2.976 17.315-7.997 24.001 0 0-8.774 5.824-12.737 8.393-6.258 4.056-12.573 5.712-20.586 5.712z" fill="#c38c66"/><path d="m440.451 448.82c-7.3 9.72-18.919 16-31.999 16h-319.9c-22.09 0-40-17.91-40-40v-292.64c0-13.08 6.28-24.7 16-32v310.64c0 20.99 17.02 38 38 38z" fill="#b57f5f"/><circle cx="393.677" cy="403.819" fill="#f8f7f7" r="24.771"/><g><path d="m417.672 411.319h-47.99c-4.142 0-7.5-3.357-7.5-7.5s3.358-7.5 7.5-7.5h47.99c4.142 0 7.5 3.357 7.5 7.5s-3.358 7.5-7.5 7.5z" fill="#e8e8e8"/></g><circle cx="105.895" cy="403.819" fill="#f8f7f7" r="24.771"/><g><path d="m88.602 428.613c-1.919 0-3.839-.732-5.303-2.196-2.929-2.93-2.929-7.678 0-10.607l34.587-34.588c2.929-2.928 7.678-2.928 10.606 0 2.929 2.93 2.929 7.678 0 10.607l-34.587 34.588c-1.465 1.464-3.384 2.196-5.303 2.196z" fill="#e8e8e8"/></g><g><g><path d="m338.507 383.319h-180.011c-4.142 0-7.5-3.357-7.5-7.5s3.358-7.5 7.5-7.5h180.011c4.142 0 7.5 3.357 7.5 7.5s-3.358 7.5-7.5 7.5z" fill="#b57f5f"/></g><g><path d="m338.507 411.319h-180.011c-4.142 0-7.5-3.357-7.5-7.5s3.358-7.5 7.5-7.5h180.011c4.142 0 7.5 3.357 7.5 7.5s-3.358 7.5-7.5 7.5z" fill="#b57f5f"/></g><g><path d="m338.507 439.319h-180.011c-4.142 0-7.5-3.357-7.5-7.5s3.358-7.5 7.5-7.5h180.011c4.142 0 7.5 3.357 7.5 7.5s-3.358 7.5-7.5 7.5z" fill="#b57f5f"/></g></g><g><path d="m191.952 122.18 10.06 111.938-10.06 104.105h-56.7l-9.495-102.167 9.495-113.876z" fill="#ffe07d"/><path d="m305.352 122.18 9.681 106.543-9.681 109.5h-56.7l-10.555-108.021 10.555-108.022z" fill="#bde4ff"/><path d="m418.452 162.18v140.64c0 9.005-2.976 17.315-7.999 24.001 0 0-4.667 3.504-6.802 5.36-7.022 6.103-15.165 7.574-25.199 7.574h-16.4l-14.678-107.255 14.678-110.32h16.4c22.09 0 40 17.91 40 40z" fill="#ff8086"/><path d="m135.252 122.18v216.554h-16.7c-22.09 0-36.029-18.251-36.029-40.34l-.34-130.043c0-13.085 12.368-38.172 12.368-38.172 6.686-5.022 14.996-7.999 24.001-7.999z" fill="#f8f7f7"/><path d="m191.952 122.18h56.7v216.043h-56.7z" fill="#afefa5"/><path d="m305.352 122.18h56.7v213.405h-56.7z" fill="#7bb1ff"/><path d="m191.952 326.82 5.72 9.105-5.72 6.895h-56.7l-7.367-8 7.367-8.07c.76.05 1.53.07 2.3.07z" fill="#ffd064"/><path d="m305.352 326.82 6.022 6.297-6.022 9.703h-56.7l-5.533-7.235 5.533-8.765z" fill="#99dbff"/><path d="m410.452 326.82c-7.3 9.72-18.92 16-32 16h-16.4l-6.593-7.15 6.593-8.85z" fill="#e5646e"/><path d="m135.252 326.75v16.07h-16.7c-22.09 0-40-17.91-40-40v-140.64c0-13.08 6.28-24.7 16-32v153.64c0 22.98 18.02 41.74 40.7 42.93z" fill="#e8e8e8"/><path d="m191.952 326.82h56.7v16h-56.7z" fill="#8ce1a4"/><path d="m305.352 326.82h56.7v16h-56.7z" fill="#62a5f4"/></g></g></svg>