<svg id="Capa_1" enable-background="new 0 0 497 497" height="512" viewBox="0 0 497 497" width="512" xmlns="http://www.w3.org/2000/svg"><g><path d="m385.839 493.968-272.936-2.723c-22.091 0-40-17.909-40-40l-1.021-407.234c0-13.087 13.575-36.014 13.575-36.014 6.685-5.022 14.994-7.997 23.999-7.997h278.085c22.091 0 40 17.909 40 40v417c0 9.006-2.976 17.317-7.999 24.003 0 0-9.52 4.555-13.363 7.093-6.315 4.172-12.204 5.872-20.34 5.872z" fill="#857e87"/><path d="m419.542 481.003c-7.3 9.72-18.923 15.997-32.004 15.997h-278.08c-22.09 0-40-17.91-40-40v-417c0-13.08 6.278-24.703 15.998-32.003l.003 440.003c0 18.23 14.77 33 33 33z" fill="#6f6571"/><g fill="#6f6571"><path d="m233.499 33v119.7c0 1.657-1.343 3-3 3h-128.04c-1.657 0-3-1.343-3-3v-112.7c0-5.51 4.48-10 10-10h121.04c1.657 0 3 1.343 3 3z"/><path d="m233.499 188.7v119.7c0 1.657-1.343 3-3 3h-128.04c-1.657 0-3-1.343-3-3v-119.7c0-1.657 1.343-3 3-3h128.04c1.657 0 3 1.343 3 3z"/><path d="m233.499 344.4v119.6c0 1.657-1.343 3-3 3h-121.04c-5.52 0-10-4.49-10-10v-112.6c0-1.657 1.343-3 3-3h128.04c1.657 0 3 1.343 3 3z"/><path d="m397.539 40v112.7c0 1.657-1.343 3-3 3h-128.04c-1.657 0-3-1.343-3-3v-119.7c0-1.657 1.343-3 3-3h121.04c5.52 0 10 4.49 10 10z"/><path d="m397.539 188.7v119.7c0 1.657-1.343 3-3 3h-128.04c-1.657 0-3-1.343-3-3v-119.7c0-1.657 1.343-3 3-3h128.04c1.657 0 3 1.343 3 3z"/><path d="m394.539 341.4c1.657 0 3 1.343 3 3v112.6c0 5.51-4.48 10-10 10h-121.04c-1.657 0-3-1.343-3-3v-119.6c0-1.657 1.343-3 3-3z"/></g><path d="m344.659 262.69-15.01 15c-7.81 7.81-20.47 7.81-28.27 0-3.9-3.9-5.86-9.01-5.86-14.13s1.96-10.24 5.86-14.14l15.01-15 19.663 7.803z" fill="#f8f7f7"/><path d="m365.519 233.54c0 5.12-1.96 10.24-5.86 14.14l-15 15.01-28.27-28.27 15-15.01c7.81-7.81 20.47-7.81 28.27 0 3.9 3.9 5.86 9.01 5.86 14.13z" fill="#7bb1ff"/><path d="m316.389 234.42-.01-.01" fill="#ff8086"/><g><path d="m180.619 418.34-15.01 15c-7.81 7.81-20.47 7.81-28.27 0-3.9-3.9-5.86-9.02-5.86-14.13 0-5.12 1.96-10.23 5.86-14.14l15.01-15 16.554 11.387z" fill="#f8f7f7"/><path d="m201.479 389.19c0 5.12-1.96 10.23-5.86 14.14l-15 15.01-28.27-28.27 15-15.01c7.81-7.81 20.47-7.81 28.27 0 3.9 3.9 5.86 9.02 5.86 14.13z" fill="#ff8086"/><path d="m152.349 390.07-.01-.01" fill="#f8f7f7"/></g><g><path d="m354.971 68.398 11.121 8.441c6.455 14.349 3.79 31.802-7.996 43.589-11.786 11.786-29.239 14.452-43.589 7.996l-9.306-11.519-10.255-8.043c-6.455-14.349-3.79-31.802 7.996-43.589 11.786-11.786 29.239-14.452 43.589-7.996z" fill="#afefa5"/><path d="m358.096 65.273c3.444 3.444 6.115 7.366 7.996 11.566l-51.585 51.585c-4.2-1.881-8.122-4.552-11.566-7.996s-6.115-7.366-7.996-11.566l51.585-51.585c4.2 1.881 8.122 4.552 11.566 7.996z" fill="#8ce1a4"/></g><g><path d="m190.931 224.098 11.121 8.441c6.455 14.349 3.79 31.802-7.996 43.589-11.786 11.786-29.239 14.452-43.589 7.996l-9.306-11.519-10.255-8.043c-6.455-14.349-3.79-31.802 7.996-43.589 11.786-11.786 29.239-14.452 43.589-7.996z" fill="#ffe07d"/><path d="m194.056 220.973c3.444 3.444 6.115 7.366 7.996 11.566l-51.585 51.585c-4.2-1.881-8.122-4.552-11.566-7.996s-6.115-7.366-7.996-11.566l51.585-51.585c4.2 1.881 8.122 4.552 11.566 7.996z" fill="#ffd064"/></g><g><circle cx="179.693" cy="79.636" fill="#e8e8e8" r="25.786"/><circle cx="153.265" cy="106.064" fill="#f8f7f7" r="25.786"/></g><g><circle cx="343.733" cy="390.986" fill="#e8e8e8" r="25.786"/><circle cx="317.305" cy="417.414" fill="#f8f7f7" r="25.786"/></g></g></svg>