<svg id="Capa_1" enable-background="new 0 0 497 497" height="512" viewBox="0 0 497 497" width="512" xmlns="http://www.w3.org/2000/svg"><g><path d="m467 0h-437c-4.354 0-8.492.928-12.226 2.596 0 0-14.231 23.583-14.231 35.797l1.021 423.064c0 16.569 13.431 30 30 30l432.298.468c5.987 0 7.084.128 11.766-2.894 4.876-3.147 15.785-9.826 15.785-9.826 1.663-3.728 2.587-7.859 2.587-12.205v-437c0-16.569-13.431-30-30-30z" fill="#c38c66"/><path d="m494.413 479.206c-4.66 10.49-15.193 17.794-27.413 17.794h-437c-16.57 0-30-13.43-30-30v-437c0-12.22 7.294-22.744 17.774-27.404l.006 442.604c0 18.78 15.22 34 34 34z" fill="#b57f5f"/><g><path d="m443 61c0-3.866-3.134-7-7-7h-70.8l-38.9 29.585-38.9-29.585h-77.8l-38.9 29.585-38.9-29.585h-70.8c-3.866 0-7 3.134-7 7v70.8l29.585 38.9-29.585 38.9v77.8l29.585 38.9-29.585 38.9v70.8c0 3.866 3.134 7 7 7h70.8l38.9-29.585 38.9 29.585h77.8l38.9-29.585 38.9 29.585h70.8c3.866 0 7-3.134 7-7v-70.8l-29.585-38.9 29.585-38.9v-77.8l-29.585-38.9 29.585-38.9z" fill="#f8f7f7"/><g fill="#b57f5f"><path d="m131.8 54h77.8v77.8h-77.8z"/><path d="m287.4 54h77.8v77.8h-77.8z"/><path d="m54 131.8h77.8v77.8h-77.8z"/><path d="m365.2 131.8h77.8v77.8h-77.8z"/><path d="m54 287.4h77.8v77.8h-77.8z"/><path d="m365.2 287.4h77.8v77.8h-77.8z"/><path d="m287.4 365.2h77.8v77.8h-77.8z"/><path d="m131.8 365.2h77.8v77.8h-77.8z"/><path d="m209.6 131.8h77.8v77.8h-77.8z"/><path d="m209.6 287.4h77.8v77.8h-77.8z"/><path d="m131.8 209.6h77.8v77.8h-77.8z"/><path d="m287.4 209.6h77.8v77.8h-77.8z"/></g></g><g><g fill="#f8f7f7"><circle cx="326.3" cy="92.9" r="17"/><circle cx="170.7" cy="92.9" r="17"/><circle cx="92.9" cy="170.7" r="17"/></g><g fill="#857e87"><circle cx="92.9" cy="404.1" r="17"/><circle cx="248.5" cy="404.1" r="17"/><circle cx="404.1" cy="404.1" r="17"/><circle cx="326.3" cy="326.3" r="17"/><circle cx="170.7" cy="326.3" r="17"/></g><circle cx="248.5" cy="170.7" fill="#f8f7f7" r="17"/><circle cx="404.1" cy="170.7" fill="#f8f7f7" r="17"/><g><g><path d="m471.702 100.4h-3.404c-4.143 0-7.5-3.357-7.5-7.5s3.357-7.5 7.5-7.5h3.404c4.143 0 7.5 3.357 7.5 7.5s-3.357 7.5-7.5 7.5z" fill="#f8f7f7"/></g><g><path d="m471.702 178.2h-3.404c-4.143 0-7.5-3.357-7.5-7.5s3.357-7.5 7.5-7.5h3.404c4.143 0 7.5 3.357 7.5 7.5s-3.357 7.5-7.5 7.5z" fill="#f8f7f7"/></g><g><path d="m471.702 256h-3.404c-4.143 0-7.5-3.357-7.5-7.5s3.357-7.5 7.5-7.5h3.404c4.143 0 7.5 3.357 7.5 7.5s-3.357 7.5-7.5 7.5z" fill="#f8f7f7"/></g><g><path d="m471.702 333.8h-3.404c-4.143 0-7.5-3.357-7.5-7.5s3.357-7.5 7.5-7.5h3.404c4.143 0 7.5 3.357 7.5 7.5s-3.357 7.5-7.5 7.5z" fill="#f8f7f7"/></g><g><path d="m471.702 411.6h-3.404c-4.143 0-7.5-3.357-7.5-7.5s3.357-7.5 7.5-7.5h3.404c4.143 0 7.5 3.357 7.5 7.5s-3.357 7.5-7.5 7.5z" fill="#f8f7f7"/></g><g><path d="m28.702 100.4h-3.404c-4.142 0-7.5-3.357-7.5-7.5s3.358-7.5 7.5-7.5h3.404c4.142 0 7.5 3.357 7.5 7.5s-3.358 7.5-7.5 7.5z" fill="#f8f7f7"/></g><g><path d="m28.702 178.2h-3.404c-4.142 0-7.5-3.357-7.5-7.5s3.358-7.5 7.5-7.5h3.404c4.142 0 7.5 3.357 7.5 7.5s-3.358 7.5-7.5 7.5z" fill="#f8f7f7"/></g><g><path d="m28.702 256h-3.404c-4.142 0-7.5-3.357-7.5-7.5s3.358-7.5 7.5-7.5h3.404c4.142 0 7.5 3.357 7.5 7.5s-3.358 7.5-7.5 7.5z" fill="#f8f7f7"/></g><g><path d="m28.702 333.8h-3.404c-4.142 0-7.5-3.357-7.5-7.5s3.358-7.5 7.5-7.5h3.404c4.142 0 7.5 3.357 7.5 7.5s-3.358 7.5-7.5 7.5z" fill="#f8f7f7"/></g><g><path d="m28.702 411.6h-3.404c-4.142 0-7.5-3.357-7.5-7.5s3.358-7.5 7.5-7.5h3.404c4.142 0 7.5 3.357 7.5 7.5s-3.358 7.5-7.5 7.5z" fill="#f8f7f7"/></g><g><path d="m92.9 479.202c-4.142 0-7.5-3.357-7.5-7.5v-3.404c0-4.143 3.358-7.5 7.5-7.5s7.5 3.357 7.5 7.5v3.404c0 4.143-3.358 7.5-7.5 7.5z" fill="#f8f7f7"/></g><g><path d="m170.7 479.202c-4.142 0-7.5-3.357-7.5-7.5v-3.404c0-4.143 3.358-7.5 7.5-7.5s7.5 3.357 7.5 7.5v3.404c0 4.143-3.358 7.5-7.5 7.5z" fill="#f8f7f7"/></g><g><path d="m248.5 479.202c-4.142 0-7.5-3.357-7.5-7.5v-3.404c0-4.143 3.358-7.5 7.5-7.5 4.143 0 7.5 3.357 7.5 7.5v3.404c0 4.143-3.357 7.5-7.5 7.5z" fill="#f8f7f7"/></g><g><path d="m326.3 479.202c-4.143 0-7.5-3.357-7.5-7.5v-3.404c0-4.143 3.357-7.5 7.5-7.5s7.5 3.357 7.5 7.5v3.404c0 4.143-3.358 7.5-7.5 7.5z" fill="#f8f7f7"/></g><g><path d="m404.1 479.202c-4.143 0-7.5-3.357-7.5-7.5v-3.404c0-4.143 3.357-7.5 7.5-7.5s7.5 3.357 7.5 7.5v3.404c0 4.143-3.358 7.5-7.5 7.5z" fill="#f8f7f7"/></g><g><path d="m92.9 36.202c-4.142 0-7.5-3.357-7.5-7.5v-3.404c0-4.143 3.358-7.5 7.5-7.5s7.5 3.357 7.5 7.5v3.404c0 4.143-3.358 7.5-7.5 7.5z" fill="#f8f7f7"/></g><g><path d="m170.7 36.202c-4.142 0-7.5-3.357-7.5-7.5v-3.404c0-4.143 3.358-7.5 7.5-7.5s7.5 3.357 7.5 7.5v3.404c0 4.143-3.358 7.5-7.5 7.5z" fill="#f8f7f7"/></g><g><path d="m248.5 36.202c-4.142 0-7.5-3.357-7.5-7.5v-3.404c0-4.143 3.358-7.5 7.5-7.5 4.143 0 7.5 3.357 7.5 7.5v3.404c0 4.143-3.357 7.5-7.5 7.5z" fill="#f8f7f7"/></g><g><path d="m326.3 36.202c-4.143 0-7.5-3.357-7.5-7.5v-3.404c0-4.143 3.357-7.5 7.5-7.5s7.5 3.357 7.5 7.5v3.404c0 4.143-3.358 7.5-7.5 7.5z" fill="#f8f7f7"/></g><g><path d="m404.1 36.202c-4.143 0-7.5-3.357-7.5-7.5v-3.404c0-4.143 3.357-7.5 7.5-7.5s7.5 3.357 7.5 7.5v3.404c0 4.143-3.358 7.5-7.5 7.5z" fill="#f8f7f7"/></g></g></g></g></svg>