<svg id="Capa_1" enable-background="new 0 0 497 497" height="512" viewBox="0 0 497 497" width="512" xmlns="http://www.w3.org/2000/svg"><g><path d="m467 0h-437c-5.058 0-9.824 1.252-14.004 3.462 0 0-13.262 20.102-13.262 31.612l.681 426.926c0 16.569 13.431 30 30 30l431.574 1.628c5.595 0 11.091.369 15.574-2.298 4.74-2.82 12.974-10.326 12.974-10.326 2.211-4.18 3.462-8.946 3.462-14.004v-437c.001-16.569-13.43-30-29.999-30z" fill="#7bb1ff"/><path d="m493.538 481.004c-5.02 9.52-15.028 15.996-26.538 15.996h-437c-16.57 0-30-13.43-30-30v-437c0-11.51 6.476-21.518 15.996-26.538l.004 452.538c0 13.81 11.19 25 25 25z" fill="#62a5f4"/><path d="m33.287 452.819-.298-410.34c0-5.523 4.477-10 10-10l3.011-2.479h411c5.523 0 10 4.477 10 10v411l-3.585 4.543c0 5.523-4.477 10-10 10l-410.128-2.723c-5.523-.001-10-4.478-10-10.001z" fill="#f8f7f7"/><path d="m467 451v6c0 5.523-4.477 10-10 10h-417c-5.523 0-10-4.477-10-10v-417c0-5.523 4.477-10 10-10h6v408c0 7.18 5.82 13 13 13z" fill="#e8e8e8"/><g fill="#ffe07d"><path d="m100.353 59.278 5.539 11.224c.291.59.854.999 1.506 1.094l12.386 1.8c1.64.238 2.295 2.254 1.108 3.411l-8.963 8.736c-.471.459-.686 1.121-.575 1.77l2.116 12.336c.28 1.634-1.435 2.88-2.902 2.108l-11.078-5.823c-.583-.306-1.279-.306-1.861 0l-11.079 5.824c-1.467.771-3.182-.475-2.902-2.108l2.116-12.336c.111-.649-.104-1.311-.575-1.77l-8.963-8.736c-1.187-1.157-.532-3.173 1.108-3.411l12.386-1.8c.651-.095 1.215-.504 1.506-1.094l5.539-11.224c.735-1.488 2.855-1.488 3.588-.001z"/><path d="m400.234 59.278 5.539 11.224c.291.59.854.999 1.506 1.094l12.386 1.8c1.64.238 2.295 2.254 1.108 3.411l-8.963 8.736c-.471.459-.686 1.121-.575 1.77l2.116 12.336c.28 1.634-1.435 2.88-2.902 2.108l-11.079-5.824c-.583-.306-1.279-.306-1.861 0l-11.079 5.824c-1.467.771-3.182-.475-2.902-2.108l2.116-12.336c.111-.649-.104-1.311-.575-1.77l-8.963-8.736c-1.187-1.157-.532-3.173 1.108-3.411l12.386-1.8c.651-.095 1.215-.504 1.506-1.094l5.539-11.224c.735-1.487 2.855-1.487 3.589 0z"/></g><path d="m323.356 93.898h-149.712c-7.87 0-14.25-6.38-14.25-14.25v-.008c0-7.87 6.38-14.25 14.25-14.25h149.713c7.87 0 14.25 6.38 14.25 14.25v.008c-.001 7.87-6.381 14.25-14.251 14.25z" fill="#afefa5"/><g><circle cx="423.3" cy="171.79" fill="#afefa5" r="17.021"/><circle cx="335.9" cy="171.79" fill="#ffd064" r="17.021"/><circle cx="335.9" cy="256.787" fill="#7bb1ff" r="17.021"/><circle cx="335.9" cy="430.935" fill="#ffd064" r="17.021"/><circle cx="161.1" cy="341.79" fill="#afefa5" r="17.021"/></g><path d="m297.43 378.91c2.97 2.89 3.03 7.64.15 10.61-1.47 1.51-3.43 2.27-5.38 2.27-1.88 0-3.77-.71-5.23-2.12l-38.47-37.42-38.47 37.42c-1.46 1.41-3.35 2.12-5.23 2.12-1.95 0-3.91-.76-5.38-2.27-2.88-2.97-2.82-7.72.15-10.61l38.17-37.12-38.17-37.12c-2.97-2.89-3.03-7.64-.15-10.61 2.89-2.97 7.64-3.03 10.61-.15l38.47 37.42 38.47-37.42c2.97-2.88 7.72-2.82 10.61.15 2.88 2.97 2.82 7.72-.15 10.61l-38.17 37.12z" fill="#ff8086"/><path d="m118.91 389.53c-1.47 1.51-3.42 2.26-5.37 2.26-1.89 0-3.78-.71-5.24-2.14l-38.25-37.4-40.05 39.11v-20.96l29.32-28.64-29.32-28.66v-20.98l40.05 39.16 38.25-37.36c2.97-2.89 7.72-2.83 10.61.13s2.84 7.71-.13 10.61l-38 37.11 38.01 37.16c2.96 2.89 3.01 7.64.12 10.6z" fill="#ff8086"/><path d="m118.91 219.5c-1.47 1.5-3.42 2.25-5.37 2.25-1.89 0-3.78-.71-5.24-2.13l-38.25-37.4-40.05 39.11v-20.97l29.32-28.63-29.32-28.66v-20.99l40.05 39.16 38.25-37.35c2.97-2.9 6.821.65 9.711 3.61 2.89 2.97 3.739 4.22.769 7.12l-38 37.11 38.01 37.16c2.96 2.9 3.01 7.64.12 10.61z" fill="#ff8086"/><path d="m46 307.76v20.98l-16-15.64v-20.98z" fill="#e5646e"/><path d="m46 354.77v20.97l-16 15.62v-20.96z" fill="#e5646e"/><path d="m46 137.72v20.99l-16-15.64v-20.99z" fill="#e5646e"/><path d="m46 184.74v20.97l-16 15.62v-20.97z" fill="#e5646e"/><path d="m477 136.79v-15h-457v15h89.9v70h-89.9v15h89.9v70h-89.9v15h89.9v70h-89.9v15h89.9v85.21h15v-85.21h72.4v85.21h15v-85.21h72.4v85.21h15v-85.21h72.4v85.21h15v-85.21h89.9v-15h-89.9v-70h89.9v-15h-89.9v-70h89.9v-15h-89.9v-70zm-279.7 240h-72.4v-70h72.4zm0-85h-72.4v-70h72.4zm0-85h-72.4v-70h72.4zm87.4 170h-72.4v-70h72.4zm0-85h-72.4v-70h72.4zm0-85h-72.4v-70h72.4zm87.4 170h-72.4v-70h72.4zm0-85h-72.4v-70h72.4zm0-85h-72.4v-70h72.4z" fill="#7bb1ff"/><g fill="#62a5f4"><path d="m372.1 451h15v16h-15z"/><path d="m284.7 451h15v16h-15z"/><path d="m197.3 451h15v16h-15z"/><path d="m109.9 451h15v16h-15z"/><path d="m30 121.79h16v15h-16z"/><path d="m30 206.79h16v15h-16z"/><path d="m30 291.79h16v15h-16z"/><path d="m30 376.79h16v15h-16z"/></g></g></svg>