<svg id="Capa_1" enable-background="new 0 0 497 497" height="512" viewBox="0 0 497 497" width="512" xmlns="http://www.w3.org/2000/svg"><g><path d="m466.5 137.5h-436l2-71.541c0-8.284 6.716-15 15-15l2-2.459h9.83l6.83 7.995 8.17-7.995h21.34l6.261 7.995 8.739-7.995h28.83l15.661 7.995 20.669-7.995h28.84l6.142 7.995 8.858-7.995h21.33l6.83 7.995 8.17-7.995h21.33l4.491 7.995 10.509-7.995h28.84l17.496 7.995 18.834-7.995h28.83l7 7.995 8-7.995h21.34l6.83 7.995 8.17-7.995h13.83c8.284 0 15 6.716 15 15z" fill="#f8f7f7"/><path d="m466.5 121.5v16l-221.33 16-214.67-16v-16z" fill="#e8e8e8"/><g><path d="m204.67 48.5h15v89h-15z" fill="#e8e8e8"/><g><path d="m386.33 48.5h15v89h-15z" fill="#e8e8e8"/><g><path d="m59.33 48.5h15v89h-15z" fill="#e8e8e8"/></g><g><path d="m95.67 48.5h15v89h-15z" fill="#e8e8e8"/></g><g><path d="m241 48.5h15v89h-15z" fill="#e8e8e8"/></g><g><path d="m277.33 48.5h15v89h-15z" fill="#e8e8e8"/></g><g><path d="m422.67 48.5h15v89h-15z" fill="#e8e8e8"/></g></g></g><g><path d="m241 121.5h15v26h-15z" fill="#d8d8d8"/><path d="m204.67 121.5h15v26h-15z" fill="#d8d8d8"/><g><path d="m386.33 121.5h15v26h-15z" fill="#d8d8d8"/><g><path d="m95.67 121.5h15v26h-15z" fill="#d8d8d8"/></g><g><path d="m277.33 121.5h15v26h-15z" fill="#d8d8d8"/></g></g></g><path d="m340.206 403.06-183.881.826c-6.08 0-17.835 1.93-17.835 1.93-61.44-7.608-111.346-53.724-123.956-114.107 0 0 2.184-4.46 1.81-6.833-.721-4.575-4.333-9.45-4.619-14.163l-2.049-33.713h477.607l-2.038 33.68c-.247 4.086-4.097 7.763-4.672 11.747-.435 3.012 1.857 9.301 1.857 9.301-12.611 60.352-62.483 106.451-123.89 114.081 0-.001-12.232-2.749-18.334-2.749z" fill="#e8e8e8"/><path d="m9.68 237 2.04 33.71c.43 7.16 1.384 14.169 2.814 20.999 51.29 17.73 94.086 55.231 118.316 104.001 1.73 3.47 3.611 6.836 5.641 10.106 5.89.72 11.889 1.104 17.969 1.104h184.05c6.1 0 12.12-.38 18.03-1.11 2.03-3.25 3.9-6.6 5.61-10.05l.08-.15c24.23-48.71 66.98-86.15 118.2-103.88 1.43-6.84 2.39-13.88 2.82-21.05l2.03-33.68z" fill="#d8d8d8"/><path d="m254.792 448.5h-12.552c-24.558 0-47.837-8.395-66.414-23.064 0 0-20.417-25.276-27.592-39.716-2.131-4.289-8.73-9.302-8.73-9.302-28.414-49.017-74.559-85.55-129.201-101.828l-.303-.09 15.867-72.578-5.867-64.422h457l10 137c-54.776 16.244-101.042 52.837-129.502 101.969 0 0-7.435 3.992-9.542 8.23l-.07.141c-7.18 14.435-26.713 40.623-26.713 40.623-18.573 14.652-41.838 23.037-66.381 23.037z" fill="#f8f7f7"/><path d="m49.5 48.5v89h-19v-74c0-8.28 6.72-15 15-15z" fill="#e8e8e8"/><path d="m39 137.5-5.17 72.63-4.695 62.48c-5.96-2.36-12.645 3.829-18.835 1.98l-.3-.09 10-137z" fill="#e8e8e8"/><path d="m175.83 137.5v287.93c-12.2-9.63-22.37-21.97-29.55-36.4-2.13-4.29-4.39-8.49-6.78-12.61v-238.92z" fill="#7bb1ff"/><path d="m357.5 137.5v238.97c-2.36 4.07-4.59 8.22-6.7 12.46l-.07.14c-7.18 14.44-17.348 26.773-29.558 36.393l-.002-287.963z" fill="#7bb1ff"/><g><path d="m415.28 273.637 70.826.45c5.523 0 10-4.477 10-10l.895-3.954v-40c0-5.523-4.477-10-10-10h-49.33l-8.207 2.344-6.793-2.344h-8.671c-1.726 0-3.401.219-4.998.63 0 0-12.566 12.5-12.566 21.82l-1.156 21.055c0 11.044 8.954 19.999 20 19.999z" fill="#7bb1ff"/><path d="m497 260.132v5c0 5.52-4.48 10-10 10h-49.33l-8.427-2.367-6.573 2.367h-8.67c-11.05 0-20-8.95-20-20v-25c0-9.32 6.37-17.15 15-19.37v26.37c0 12.7 10.3 23 23 23z" fill="#62a5f4"/><g><path d="m422.67 210.132h15v62.413h-15z" fill="#f8f7f7"/></g><g><path d="m437.67 260.132v15h-15v-16.98c2.85 1.27 6.01 1.98 9.33 1.98z" fill="#e8e8e8"/></g></g><g><path d="m415.28 168.005 70.826.45c5.523 0 10-4.477 10-10l.894-3.955v-40c0-5.523-4.477-10-10-10h-49.33l-8.207 2.344-6.793-2.344h-8.67c-1.726 0-3.401.219-4.998.63 0 0-12.566 12.5-12.566 21.82l-1.156 21.055c0 11.045 8.954 20 20 20z" fill="#7bb1ff"/><path d="m497 154.5v5c0 5.52-4.48 10-10 10h-49.33l-8.427-2.367-6.573 2.367h-8.67c-11.05 0-20-8.95-20-20v-25c0-9.32 6.37-17.15 15-19.37v26.37c0 12.7 10.3 23 23 23z" fill="#62a5f4"/><g><path d="m422.67 104.5h15v62.413h-15z" fill="#f8f7f7"/></g><g><path d="m437.67 154.5v15h-15v-16.98c2.85 1.27 6.01 1.98 9.33 1.98z" fill="#e8e8e8"/></g></g><g><path d="m11.674 272.528 69.183.486c9.665 0 21.736-13.851 21.736-13.851.266-1.302.406-2.65.406-4.031v-25c0-11.046-8.954-20-20-20h-12.499l-7.5 3.46-7.5-3.46h-21.67l-21.165 2.267c-5.523 0-10 4.477-10 10l-.991 40.128c0 5.523 4.477 10.001 10 10.001z" fill="#7bb1ff"/><path d="m55.5 210.132h15v61.808h-15z" fill="#f8f7f7"/><path d="m12.307 166.83 67.89.661c9.665 0 22.396-13.96 22.396-13.96.266-1.302.406-2.65.406-4.031v-25c0-11.046-8.954-20-20-20h-8.67l-8.417 3.046-6.582-3.046h-17.58l-29.002 2.376c-5.523 0-10 4.477-10 10l-.44 39.954c-.001 5.523 4.476 10 9.999 10z" fill="#7bb1ff"/><path d="m30.803 250.532 3.027-40.402h-23.83c-5.523 0-10 4.477-10 10v45c0 5.523 4.477 10 10 10h45.5l7.028-2.447 7.972 2.447h12.5c9.68 0 17.75-6.87 19.6-16h-63.819c-4.654 0-8.326-3.957-7.978-8.598z" fill="#62a5f4"/><path d="m38.723 144.902 3.027-40.402h-31.75c-5.523 0-10 4.477-10 10v45c0 5.523 4.477 10 10 10h49.33l6.418-2.67 8.582 2.67h8.67c9.68 0 17.75-6.87 19.6-16h-55.899c-4.654 0-8.326-3.957-7.978-8.598z" fill="#62a5f4"/><path d="m59.33 104.5h15v62.33h-15z" fill="#f8f7f7"/><g fill="#e8e8e8"><path d="m55.5 259.13h15v16h-15z"/><path d="m59.33 153.5h15v16h-15z"/></g></g><path d="m139.5 48.5h36.33v97.385h-36.33z" fill="#7bb1ff"/><path d="m321.17 48.5h36.33v97.385h-36.33z" fill="#7bb1ff"/><g fill="#62a5f4"><path d="m139.5 121.5h36.33v16h-36.33z"/><path d="m321.17 121.5h36.33v16h-36.33z"/></g></g></svg>