<svg id="Capa_1" enable-background="new 0 0 496.955 496.955" height="512" viewBox="0 0 496.955 496.955" width="512" xmlns="http://www.w3.org/2000/svg"><g><g><path d="m323.437 463.941c0 18.233 14.781 33.014 33.014 33.014s33.014-14.781 33.014-33.014c0-7.385-2.424-14.203-6.521-19.702 0 0-2.979-1.26-4.118-2.398-5.974-5.968-13.265-8.894-22.376-8.894-9.938 0-18.519 3.02-24.571 9.968-.552.634-1.916 1.316-1.916 1.316-4.099 5.5-6.526 12.322-6.526 19.71z" fill="#f8f7f7"/><path d="m382.943 444.24v6.21c0 14.61-11.89 26.49-26.49 26.49-14.61 0-26.49-11.88-26.49-26.49l.001-6.219c6.02-8.07 15.649-13.301 26.489-13.301 10.85 0 20.47 5.23 26.49 13.31z" fill="#e8e8e8"/><path d="m356.451 463.941c7.45 0 13.489-6.039 13.489-13.488v-49.943h-26.977v49.943c0 7.449 6.039 13.488 13.488 13.488z" fill="#857e87"/></g><g><path d="m449.873 194.034-38.657-77.812-1.311-9.999-14.114-21.052 26.844-13.336 4.547 17.452 6.396 4.574 43.139 86.837z" fill="#f8f7f7"/></g><g><path d="m107.494 463.941c0 18.233 14.781 33.014 33.014 33.014s33.014-14.781 33.014-33.014c0-7.385-2.424-14.203-6.521-19.702 0 0-2.979-1.26-4.118-2.398-5.974-5.968-13.265-8.894-22.376-8.894-9.938 0-18.519 3.02-24.571 9.968-.552.634-1.916 1.316-1.916 1.316-4.099 5.5-6.526 12.322-6.526 19.71z" fill="#f8f7f7"/><path d="m167 444.24v6.21c0 14.61-11.89 26.49-26.49 26.49-14.61 0-26.49-11.88-26.49-26.49l.001-6.219c6.02-8.07 15.649-13.301 26.489-13.301 10.85 0 20.47 5.23 26.49 13.31z" fill="#e8e8e8"/><path d="m140.509 463.941c7.449 0 13.488-6.039 13.488-13.488v-49.943h-26.977v49.943c0 7.449 6.039 13.488 13.489 13.488z" fill="#857e87"/></g><g><path d="m345.439 406.547-194.079-176.737-1.497-4.906-28.233-22.166 18.369-18.369 42.843 40.705 7.058 4.736 173.908 158.368z" fill="#f8f7f7"/></g><g><path d="m153.161 404.907-18.369-18.369 172.109-156.727 10.579-7.673 41.075-39.364 18.369 18.369-28.21 23.123-3.272 5.546z" fill="#f8f7f7"/></g><path d="m267.67 300.63 17.88 16.28c-3.63 8.12-9.84 14.83-17.59 19.09l-19.56-17.82-19.5 17.76c-7.73-4.28-13.93-11.01-17.54-19.13l17.77-16.18-17.92-16.32c3.53-8.16 9.67-14.94 17.35-19.29l19.84 18.06 19.9-18.12c7.7 4.33 13.85 11.09 17.41 19.24z" fill="#e8e8e8"/><circle cx="248.48" cy="300.384" fill="#857e87" r="27.592"/><path d="m248.48 292.879c-4.143 0-7.505 3.363-7.505 7.506s3.362 7.505 7.505 7.505 7.505-3.362 7.505-7.505-3.362-7.506-7.505-7.506z" fill="#6f6571"/><path d="m433.58 93.86-22.364 22.362-15.426-31.052 26.85-13.34z" fill="#e8e8e8"/><path d="m326.586 174.479-301.191 2.365-.364-17.576c0-8.95 11.587-21.477 11.587-21.477 1.891-.593 3.902-.913 5.989-.913h273.042l131.024-131.025c7.804-7.804 20.456-7.804 28.26 0l.001.001c1.474 1.474 2.67 3.121 3.587 4.876 0 0-2.541 16.866-8.871 23.196z" fill="#ff8086"/><path d="m480.79 19.98c0 5.12-1.95 10.23-5.86 14.13l-142.73 142.73-158.805 8.065-150.775-8.065v-19.98c0-8.95 5.887-16.529 13.997-19.069l.003 15.049c0 5.523 4.477 10 10 10h271.496c5.304 0 10.391-2.107 14.142-5.857l146.262-146.253c1.52 2.89 2.27 6.07 2.27 9.25z" fill="#e5646e"/><g><path d="m300.661 206.968c-8.277 0-14.987-6.71-14.987-14.987v-73.108c0-3.358-1.11-6.462-2.983-8.964-2.736-3.654-6.475-7.643-11.381-7.643l-123.489-.17c-4.72 0-6.762 3.983-9.511 7.404-2.064 2.569-3.301 5.829-3.301 9.373v73.108c0 8.277-6.71 14.987-14.987 14.987s-14.987-6.71-14.987-14.987v-73.108c0-20.636 13.973-38.069 32.955-43.334 0 0 7.85 1.068 12.006 1.068l120.691-.426c4.156 0 12.004-.643 12.004-.643 18.983 5.265 32.958 22.698 32.958 43.335v73.108c-.001 8.277-6.711 14.987-14.988 14.987z" fill="#f8f7f7"/></g><g fill="#e8e8e8"><path d="m315.65 162.84v29.14c0 8.28-6.71 14.99-14.99 14.99s-14.99-6.71-14.99-14.99v-29.14z"/><path d="m135.01 162.84v29.14c0 8.28-6.71 14.99-14.99 14.99s-14.99-6.71-14.99-14.99v-29.14z"/></g><path d="m282.69 75.54v34.37c-2.73-3.65-7.1-6.02-12-6.02l-57.295-5.497-63.395 5.497c-4.91 0-9.27 2.37-12.01 6.02v-34.37c3.83-1.06 7.85-1.63 12.01-1.63l63.395 7.292 57.295-7.292c4.15 0 8.18.57 12 1.63z" fill="#e8e8e8"/><path d="m149.99 73.91h120.7v29.98h-120.7z" fill="#857e87"/><g><path d="m391.608 409.372-288.851-.681c-7.449 0-11.915-3.795-11.915-11.245 0-5.419 2.05-9.504 6.66-11.649 1.592-.741 4.659-1.831 4.659-1.831.158-.005.317-.008.477-.008h291.687c7.28 0 13.212 5.767 13.479 12.981.006.168-.801.337-.801.507-.002 7.45-7.946 11.926-15.395 11.926z" fill="#857e87"/></g><g><path d="m407.81 397.45c0 3.73-1.51 7.1-3.95 9.54s-5.82 3.95-9.54 3.95h-291.68c-7.45 0-13.49-6.04-13.49-13.49 0-3.73 1.51-7.1 3.95-9.54 2.33-2.33 5.53-3.823 9.06-3.943.27 7.21 6.2 12.973 13.48 12.973h292.16c.01.17.01.34.01.51z" fill="#6f6571"/></g><path d="m376.92 201.14-31.478 28.672-38.541-.001 51.649-47.041z" fill="#e8e8e8"/><path d="m189.9 229.81h-38.54l-29.73-27.07 18.37-18.37z" fill="#e8e8e8"/><path d="m461.799 215.266-427.659-.766c-11.036 0-19.983-8.947-19.983-19.983l-.315-13.528c0-1.657 1.343-3 3-3l10.388-1.145h454.495c1.657 0 3 1.343 3 3v16.983c0 1.72-.217 3.39-.626 4.982 0 .001-12.984 13.457-22.3 13.457z" fill="#857e87"/><g><path d="m484.099 201.81c-2.21 8.62-10.039 15-19.359 15h-432.52c-11.04 0-19.99-8.95-19.99-19.98v-16.99c0-1.65 1.35-3 3-3h12v1.97c0 12.7 10.3 23 23 23z" fill="#6f6571"/></g></g></svg>