<svg id="Capa_1" enable-background="new 0 0 497 497" height="512" viewBox="0 0 497 497" width="512" xmlns="http://www.w3.org/2000/svg"><g><g><path d="m165.552 497h-37.012l-1.563-1.133c-5.523 0-10-4.477-10-10l.872-12.11c0-4.327 1.404-8.538 4-12l8.703-14.757 16.233-2.995 13.767 2.995 11 14.667c2.596 3.462 4 7.673 4 12v13.333c0 5.523-4.477 10-10 10z" fill="#bde4ff"/><path d="m143.54 447-11 14.67c-2.59 3.46-4 7.67-4 12v23.33h-2.99c-5.52 0-10-4.48-10-10v-13.33c0-4.33 1.41-8.54 4-12l11-14.67 6.409-2.417z" fill="#99dbff"/><path d="m160.552 417h-30l6.737 15-6.737 15h30v-17l-3.034-5.564z" fill="#e8e8e8"/><path d="m160.55 417v13h-12c-2.761 0-5 2.239-5 5v12h-13v-30l14.666-6.849z" fill="#d8d8d8"/></g><g><path d="m268.501 497h-37.012l-1.563-1.133c-5.523 0-10-4.477-10-10l.872-12.11c0-4.327 1.404-8.538 4-12l8.703-14.757 16.233-2.995 13.767 2.995 11 14.667c2.596 3.462 4 7.673 4 12v13.333c0 5.523-4.477 10-10 10z" fill="#bde4ff"/><path d="m246.489 447-11 14.67c-2.59 3.46-4 7.67-4 12v23.33h-2.99c-5.52 0-10-4.48-10-10v-13.33c0-4.33 1.41-8.54 4-12l11-14.67 6.409-2.417z" fill="#99dbff"/><path d="m263.501 417h-30l6.737 15-6.737 15h30v-17l-3.034-5.564z" fill="#e8e8e8"/><path d="m263.499 417v13h-12c-2.761 0-5 2.239-5 5v12h-13v-30l14.666-6.849z" fill="#d8d8d8"/></g><g><path d="m371.45 497h-37.012l-1.563-1.133c-5.523 0-10-4.477-10-10l.872-12.11c0-4.327 1.404-8.538 4-12l8.703-14.757 16.233-2.995 13.767 2.995 11 14.667c2.596 3.462 4 7.673 4 12v13.333c0 5.523-4.477 10-10 10z" fill="#bde4ff"/><path d="m349.438 447-11 14.67c-2.59 3.46-4 7.67-4 12v23.33h-2.99c-5.52 0-10-4.48-10-10v-13.33c0-4.33 1.41-8.54 4-12l11-14.67 6.409-2.417z" fill="#99dbff"/><path d="m366.45 417h-30l6.737 15-6.737 15h30v-17l-3.033-5.564z" fill="#e8e8e8"/><path d="m366.448 417v13h-12c-2.761 0-5 2.239-5 5v12h-13v-30l14.666-6.849z" fill="#d8d8d8"/></g><path d="m240.5 51h23v336h-23z" fill="#f8f7f7"/><path d="m233.5 51h14v336h-14z" fill="#e8e8e8"/><path d="m264.5 85h-31l-1.174-.995c-4.971 0-7.514-5.268-7.514-10.239l-1.312-43.766h50l-2.862 31.628 2.862 6.522v7.85c0 4.971-4.029 9-9 9z" fill="#e8e8e8"/><path d="m273.5 30h-40-10v38.15 7.85c0 4.971 4.029 9 9 9h1v-10.85c0-3.314 2.686-6 6-6h34z" fill="#d8d8d8"/><path d="m331.512 5.253-1.779 1.537c-9.747 8.422-22.198 13.056-35.08 13.056h-78.323c-9.588 0-18.823-3-27.036-7.948-1.893-1.141-3.901-1.738-5.884-1.87 0 0-12.845 7.542-12.571 16.095l.633 20.394c-.275 9.789 9.252 16.82 18.074 11.429 8.339-5.096 17.924-7.794 27.699-7.794h77.841c13.449 0 26.408 5.051 36.31 14.153 3.984 3.662 9.197 5.694 14.608 5.694 11.922 0 20.619-6.565 20.619-18.486l.967-4.885v-25.042c.001-11.922-9.663-21.586-21.585-21.586h-.38c-5.182 0-10.192 1.864-14.113 5.253z" fill="#bde4ff"/><path d="m363.27 52.68c-.051.046-.101.091-.152.137-7.299 6.492-18.247 6.836-26.053.963-11.927-8.972-25.893-14.839-41.974-14.63h-77.84c-8.333 0-16.549 1.547-24.246 4.531-4.616 1.79-9.594-1.545-9.594-6.495v-27.157c-7.15-.48-14 5.112-14 13.112v26.72c0 10.34 11.31 16.48 20.14 11.09 8.34-5.1 17.92-7.8 27.7-7.8h73.82 4.02c13.45 0 26.41 5.05 36.31 14.16 1.99 1.83 4.29 3.25 6.76 4.22 2.48.96 5.14 1.47 7.85 1.47 5.96 0 11.35-2.42 15.26-6.32 3.91-3.91 6.32-9.3 6.32-15.27v-4.92c-1.071 2.319-2.541 4.409-4.321 6.189z" fill="#99dbff"/><path d="m278.5 387-29.701 5.564-27.785-5.564 15-31h27.486z" fill="#bde4ff"/><path d="m247.5 356-15 31-7.688 4.491-6.312-4.491 15-31z" fill="#99dbff"/><path d="m371.784 414.982-246.807.537c-4.418 0-8-3.582-8-8 0-5.559 1.595-8.068 4.995-11.94 2.557-2.912 8.676-7.473 8.676-7.473 2.171-.717 4.492-1.105 6.903-1.105h221.896c10.07 0 18.56 6.766 21.172 16 0 0-.836 1.902-.836 3.982.001 4.417-3.58 7.999-7.999 7.999z" fill="#f8f7f7"/><path d="m381.45 409c0 2.21-.89 4.21-2.34 5.66-1.45 1.44-3.45 2.34-5.66 2.34h-249.9c-4.42 0-8-3.58-8-8 0-6.08 2.46-11.58 6.44-15.56 2.41-2.4 5.36-4.25 8.66-5.33-.71 2.17-1.1 4.48-1.1 6.89 0 4.42 3.58 8 8 8h243.07c.54 1.91.83 3.92.83 6z" fill="#e8e8e8"/></g></svg>