<svg id="Capa_1" enable-background="new 0 0 497 497" height="512" viewBox="0 0 497 497" width="512" xmlns="http://www.w3.org/2000/svg"><g><path d="m398.335 429.5h45.33v41.009h-45.33z" fill="#857e87"/><path d="m398.33 458.5h45.34v16h-45.34z" fill="#6f6571"/><path d="m399.628 407h-101.394l-17.945 79.115c-1.11 4.996 2.691 9.735 7.809 9.735l6.232 1.15h102.17c4.418 0 8-3.582 8-8v-67z" fill="#e8e8e8"/><path d="m404.5 407v15h-84.676c-5.156 0-9.619 3.581-10.738 8.613l-14.756 66.387h-8.36c-5.12 0-8.92-4.74-7.81-9.74l17.84-80.26 63.775-9.482z" fill="#d8d8d8"/><path d="m458.142 486.362-9.942-.805c-5.484 0-9.929-4.446-9.929-9.929l-.55-47.615c0-5.484 4.445-9.929 9.929-9.929l1.35-1.084h10c1.657 0 3 1.343 3 3v53l-.858 10.362c0 1.657-1.343 3-3 3z" fill="#857e87"/><path d="m462 473v11c0 1.66-1.34 3-3 3h-12.07c-5.48 0-9.93-4.45-9.93-9.93v-50.14c0-5.48 4.45-9.93 9.93-9.93h2.07v45c0 6.08 4.92 11 11 11z" fill="#6f6571"/><g><path d="m181 69-2.326 14.757 2.326 5.953v44.29h-100l-3.518-2.261c-5.523 0-10-4.477-10-10l-2.482-52.739z" fill="#e8e8e8"/><path d="m65 69v20.71 34.29c0 5.523 4.477 10 10 10h6v-37c0-2.761 2.239-5 5-5h85c3.58 0 6.98-.82 10-2.29v-20.71z" fill="#d8d8d8"/><path d="m196 54.5h-2l-71.252-3.29-70.748 3.29h-2c-8.284 0-15-6.716-15-15 0-8.284 6.716-15 15-15h2l71 3.853 71-3.853h2c8.284 0 15 6.716 15 15 0 8.284-6.716 15-15 15z" fill="#857e87"/><path d="m52 24.5h142v30h-142z" fill="#6f6571"/><path d="m171 79h-90l-3.656-2.5c-5.523 0-10-4.477-10-10l-.578-54.743c0-5.523 4.477-10 10-10l4.234-1.757h90c5.523 0 10 4.477 10 10v16.05l-2.601 10.065 2.601 6.835v26.05c0 5.523-4.477 10-10 10z" fill="#f8f7f7"/><path d="m81 0v79h-6c-5.52 0-10-4.48-10-10v-26.06l3.995-5.504-3.995-11.376v-16.06c0-5.52 4.48-10 10-10z" fill="#e8e8e8"/><g><path d="m181 26.05v16.9l-15.89 8.21c-2.16 1.12-4.73 1.12-6.89 0l-15.89-8.22-15.89 8.22c-2.16 1.12-4.73 1.12-6.89 0l-15.89-8.22-15.88 8.22c-1.08.56-2.27.84-3.45.84s-2.36-.28-3.44-.84l-15.89-8.22 3.665-7.486-3.665-9.394 19.33 10 15.89-8.22c2.16-1.12 4.73-1.12 6.89 0l15.89 8.22 15.88-8.22c2.16-1.12 4.73-1.12 6.89 0l15.89 8.22z" fill="#e8e8e8"/></g><g><path d="m81 34.34v16.87c-.04-.01-.07-.03-.11-.05l-15.89-8.22v-16.88z" fill="#d8d8d8"/></g></g><g><path d="m120 467-15 3.509-13.408-3.509.991-291.537c0-35.899 26.427-65.862 62.326-65.862l10.568-.601h201.523v30h-212c-19.33 0-35 15.67-35 35z" fill="#857e87"/></g><g><path d="m169 109c-35.9 0-65 29.1-65 65v293l-7.564 3.509-6.436-3.509v-293c0-35.9 29.1-65 65-65z" fill="#6f6571"/></g><path d="m130.427 495.362-51.165.193c-1.657 0-3-1.343-3-3l.248-9.33c0-7.249 10.468-15.92 10.468-15.92.975-.2 1.986-.305 3.022-.305h30c8.284 0 15 6.716 15 15v2l-1.573 8.362c0 1.657-1.344 3-3 3z" fill="#857e87"/><path d="m135 484v10c0 1.66-1.34 3-3 3h-54c-1.66 0-3-1.34-3-3v-12c0-7.25 5.15-13.31 12-14.7v13.7c0 1.66 1.34 3 3 3z" fill="#6f6571"/><path d="m367 280h-185c-8.284 0-13.922-6.716-13.922-15 0-7.616 4.599-13.907 11.952-14.872.645-.085 1.302-.128 1.97-.128h185l4.115 15z" fill="#e8e8e8"/><path d="m367 266 3.041 6.509-3.041 7.491-89.034 7.206-95.966-7.206c-8.28 0-15-6.72-15-15 0-4.14 1.68-7.89 4.4-10.6 2.27-2.28 5.27-3.83 8.63-4.27-.02.29-.03.58-.03.87 0 8.28 6.72 15 15 15z" fill="#d8d8d8"/><path d="m459.336 280h-88.221v-171l43.385-4.436 47.5 4.436v156z" fill="#f8f7f7"/><path d="m462 265v15l-43.656 7.206-51.344-7.206v-171l7.968-2.894 7.032 2.894v149c0 3.866 3.134 7 7 7z" fill="#e8e8e8"/><path d="m462 109h-93.528l-.11-7.959c0-9.319 5.011-19.191 13.638-21.411 1.598-.411 3.273-.63 5-.63h55c11.046 0 20 8.954 20 20z" fill="#e8e8e8"/><path d="m382 79.63v29.37h-15v-10c0-9.32 6.37-17.15 15-19.37z" fill="#d8d8d8"/><path d="m400.95 404.124h-131.266c-20.726 0-40.958-6.324-57.994-18.128-27.456-19.023-42.69-46.782-42.69-80.184v-9.128c0-8.86 5.369-16.083 14.229-16.083l.771-.601h278v21.205c0 5.479-2.796 10.578-7.414 13.525-27.21 17.358-45.041 45.768-49.17 77.269-.001 0-4.509 7.069-4.466 12.125z" fill="#f8f7f7"/><path d="m405.42 392c-.61 4.64-.92 9.35-.92 14.1v.9h-135.67c-20.73 0-40.96-6.32-57.99-18.13-13.73-9.51-24.69-22.09-32.22-36.46-7.52-14.37-11.62-30.54-11.62-47.24v-9.13c0-8.86 7.18-16.04 16.04-16.04h.96v10.17c0 16.7 4.1 32.87 11.62 47.24 7.53 14.37 18.49 26.95 32.22 36.46 17.03 11.81 37.26 18.13 57.99 18.13z" fill="#e8e8e8"/></g></svg>