<svg id="Capa_1" enable-background="new 0 0 497 497" height="512" viewBox="0 0 497 497" width="512" xmlns="http://www.w3.org/2000/svg"><g><g><path d="m97.501 158.857c-3.037 0-5.895-1.858-7.023-4.869-1.454-3.878.511-8.202 4.39-9.655l362-135.713c3.879-1.454 8.201.511 9.655 4.39 1.454 3.878-.511 8.202-4.39 9.655l-362 135.713c-.867.324-1.758.479-2.632.479z" fill="#d8d8d8"/></g><path d="m110.904 181.355h-26.973l-.716-33.074c0-7.948 5.466-16.378 13.284-16.893.331-.022.664-.033 1.001-.033 8.284 0 15 6.716 15 15v22.004z" fill="#f8f7f7"/><path d="m112.5 168.358v13l-15.991 5.702-14.009-5.702v-35c0-7.95 6.18-14.45 14-14.96v31.96c0 2.761 2.239 5 5 5z" fill="#e8e8e8"/><g><path d="m487 231.355-11.555 4.256-11.229-4.256v-128.075c0-4.208-4.814-4.734-8.494-6.21-1.15-.461-2.406-.715-3.721-.715h-407.001c-5.523 0-10 4.477-10 10v125l-12.693 3.485-10.459-3.485-.661-123.45c0-19.33 14.441-36.069 33.771-36.069l9.413-.481h397.629c19.33 0 35 15.67 35 35z" fill="#e8e8e8"/></g><g fill="#d8d8d8"><path d="m57 71.358c-19.33 0-35 15.67-35 35v125l-6.408 4.142-5.592-4.142v-125c0-19.33 15.67-35 35-35z"/><path d="m474 106.358v125l-5.711 4.996-6.289-4.996v-125c0-5.53-4.48-10-10-10h12c5.52 0 10 4.47 10 10z"/></g><circle cx="459.5" cy="15.642" fill="#f8f7f7" r="15"/><path d="m462 304.968 12 3.386h19c2.209 0 4-1.791 4-4v-69c0-2.209-1.791-4-4-4h-19l-12 2.274z" fill="#857e87"/><path d="m474 231.358v77h-12l-8.353-39.72 8.353-37.28z" fill="#6f6571"/><path d="m5.115 307.482 7.885.873h22l9.216-35.753-9.216-41.247h-22l-8.05 1.485c-2.209 0-4 1.791-4 4l.165 66.642c0 2.209 1.791 4 4 4z" fill="#857e87"/><path d="m13 231.358v77h-9c-2.21 0-4-1.79-4-4v-69c0-2.21 1.79-4 4-4z" fill="#6f6571"/><g><path d="m232.894 153.355h35c8.284 0 15 6.716 15 15l-1.981 13h-61.899l.028-11.799c0-7.947 12.848-16.168 12.848-16.168.331-.022.666-.033 1.004-.033z" fill="#857e87"/><path d="m282.89 168.358 6.83 5.931-6.83 7.069-34.39 6.28-30.61-6.28v-13c0-7.95 6.18-14.45 14-14.96v9.96c0 2.761 2.239 5 5 5z" fill="#6f6571"/></g><g><path d="m297.895 153.355h35c8.284 0 15 6.716 15 15l-1.981 13h-61.899l.028-11.799c0-7.947 12.848-16.168 12.848-16.168.332-.022.667-.033 1.004-.033z" fill="#857e87"/><path d="m347.892 168.358 3.92 7.693-3.92 5.307-34.39 6.28-30.61-6.28v-13c0-7.95 6.18-14.45 14-14.96v9.96c0 2.761 2.239 5 5 5z" fill="#6f6571"/></g><g><path d="m362.897 153.355h35c8.284 0 15 6.716 15 15l-1.981 13h-61.899l.028-11.799c0-7.947 12.848-16.168 12.848-16.168.332-.022.667-.033 1.004-.033z" fill="#857e87"/><path d="m412.894 168.358v13l-34.39 6.28-30.61-6.28v-13c0-7.95 6.18-14.45 14-14.96v9.96c0 2.761 2.239 5 5 5z" fill="#6f6571"/></g><path d="m418.995 493.638-344.495-1.89c-19.33 0-35-15.67-35-35l-1.229-232.807c0-11.892 2.66-29.984 11.725-36.309 5.67-3.956 12.566-6.277 20.005-6.277h357c19.33 0 35 15.67 35 35v245c0 7.439-2.321 14.335-6.277 20.006-6.326 9.063-24.837 12.277-36.729 12.277z" fill="#afefa5"/><path d="m455.72 481.358c-6.32 9.07-16.83 15-28.72 15h-357c-19.33 0-35-15.67-35-35v-245c0-11.89 5.93-22.4 15-28.72v259.72c0 18.77 15.22 34 34 34z" fill="#8ce1a4"/><path d="m432 221.358v95l-197.216 11.729-169.784-11.729v-95c0-5.53 4.48-10 10-10h347c5.52 0 10 4.47 10 10z" fill="#857e87"/><path d="m432 316.358v22.5l-4.5 6.975 4.5 8.025v15l-4.5 6.975 4.5 8.025v15l-4.5 6.975 4.5 8.025v15l-4.5 8.025 4.5 6.975v12.5c0 5.52-4.48 10-10 10h-347c-5.52 0-10-4.48-10-10v-12.5l5.858-7.5-5.858-7.5v-15l5.858-7.5-5.858-7.5v-15l5.858-8.871-5.858-6.129v-15l5.858-7.5-5.858-7.5v-22.5z" fill="#f8f7f7"/><g><path d="m142.5 263.855c0-13.807-11.193-25-25-25-3.729 0-7.267.816-10.446 2.28 0 0-5.266 4.333-7.572 6.971-3.844 4.396-5.972 9.45-5.972 15.749 0 13.807 10.184 23.554 23.991 23.554 7.333 0 13.34-2.76 17.913-7.789 2.126-2.338 5.526-7.048 5.526-7.048 1.008-2.715 1.56-5.652 1.56-8.717z" fill="#f8f7f7"/><path d="m140.938 272.571c-3.53 9.51-12.698 16.287-23.438 16.287-13.81 0-25-11.2-25-25 0-10.08 5.954-18.783 14.554-22.723-1.01 2.71-1.554 5.653-1.554 8.723 0 13.8 11.19 25 25 25 3.72 0 7.268-.807 10.438-2.287z" fill="#e8e8e8"/></g><g><path d="m404.5 263.855c0-13.807-11.193-25-25-25-3.729 0-7.267.816-10.446 2.28 0 0-5.266 4.333-7.572 6.971-3.844 4.396-5.972 9.45-5.972 15.749 0 13.807 10.184 23.554 23.991 23.554 7.333 0 13.34-2.76 17.913-7.789 2.126-2.338 5.526-7.048 5.526-7.048 1.008-2.715 1.56-5.652 1.56-8.717z" fill="#f8f7f7"/><path d="m402.938 272.571c-3.53 9.51-12.698 16.287-23.438 16.287-13.81 0-25-11.2-25-25 0-10.08 5.954-18.783 14.554-22.723-1.01 2.71-1.554 5.653-1.554 8.723 0 13.8 11.19 25 25 25 3.72 0 7.268-.807 10.438-2.287z" fill="#e8e8e8"/></g><g><g><path d="m65 338.858h367v15h-367z" fill="#e8e8e8"/></g><g><path d="m65 368.858h367v15h-367z" fill="#e8e8e8"/></g><g><path d="m65 398.858h367v15h-367z" fill="#e8e8e8"/></g><g><path d="m65 428.858h367v15h-367z" fill="#e8e8e8"/></g></g><g><g><path d="m218.5 285.855c-4.142 0-7.5-3.358-7.5-7.5v-29c0-4.142 3.358-7.5 7.5-7.5s7.5 3.358 7.5 7.5v29c0 4.142-3.358 7.5-7.5 7.5z" fill="#6f6571"/></g><g><path d="m188.5 285.855c-4.142 0-7.5-3.358-7.5-7.5v-29c0-4.142 3.358-7.5 7.5-7.5s7.5 3.358 7.5 7.5v29c0 4.142-3.358 7.5-7.5 7.5z" fill="#6f6571"/></g><g><path d="m248.5 285.855c-4.142 0-7.5-3.358-7.5-7.5v-29c0-4.142 3.358-7.5 7.5-7.5 4.143 0 7.5 3.358 7.5 7.5v29c0 4.142-3.357 7.5-7.5 7.5z" fill="#6f6571"/></g><g><path d="m278.5 285.855c-4.143 0-7.5-3.358-7.5-7.5v-29c0-4.142 3.357-7.5 7.5-7.5s7.5 3.358 7.5 7.5v29c0 4.142-3.357 7.5-7.5 7.5z" fill="#ff8086"/></g><g><path d="m308.5 285.855c-4.143 0-7.5-3.358-7.5-7.5v-29c0-4.142 3.357-7.5 7.5-7.5s7.5 3.358 7.5 7.5v29c0 4.142-3.357 7.5-7.5 7.5z" fill="#6f6571"/></g></g><g><path d="m330 291.355h-163c-4.142 0-7.5-3.358-7.5-7.5s3.358-7.5 7.5-7.5h163c4.143 0 7.5 3.358 7.5 7.5s-3.357 7.5-7.5 7.5z" fill="#f8f7f7"/></g><g><path d="m330 251.355h-163c-4.142 0-7.5-3.358-7.5-7.5s3.358-7.5 7.5-7.5h163c4.143 0 7.5 3.358 7.5 7.5s-3.357 7.5-7.5 7.5z" fill="#f8f7f7"/></g></g></svg>