<svg id="Capa_1" enable-background="new 0 0 497.001 497.001" height="512" viewBox="0 0 497.001 497.001" width="512" xmlns="http://www.w3.org/2000/svg"><g><path d="m370.148 8.372-3.757-1.872h-235.79l-4.32 1.211c-2.761 0-5 2.239-5 5l-1.28 4.389v145.79l1.353 3.656c0 2.761 2.239 5 5 5l4.257 1.954h235.78l3.835-1.624c2.761 0 5-2.239 5-5l1.775-3.986v-145.779l-1.853-3.738c0-2.762-2.238-5.001-5-5.001z" fill="#c38c66"/><g fill="#b57f5f"><path d="m377.001 11.501v5.61l-34.89 34.89c-1.47 1.46-3.39 2.2-5.31 2.2s-3.84-.74-5.3-2.2c-2.93-2.93-2.93-7.68 0-10.61l34.89-34.89h5.61c2.76 0 5 2.24 5 5z"/><path d="m377.001 162.891v5.61c0 2.76-2.24 5-5 5h-5.61l-33.67-33.67c-2.93-2.93-2.93-7.68 0-10.61s7.68-2.93 10.61 0z"/><path d="m164.082 140.031-33.47 33.47h-5.61c-2.76 0-5-2.24-5-5v-5.61l33.47-33.47c2.93-2.93 7.68-2.93 10.61 0 2.929 2.93 2.929 7.68 0 10.61z"/><path d="m165.322 51.821c-1.46 1.47-3.38 2.2-5.3 2.2s-3.84-.73-5.3-2.2l-34.72-34.72v-5.6c0-2.76 2.24-5 5-5h5.6l34.72 34.72c2.929 2.93 2.929 7.68 0 10.6z"/></g><g><path d="m347.001 42.501v24l-35.33 20.06-39.89-15.95c-1.75-.7-3.73-.54-5.34.44l-30.8 18.74-19.97-9.08c-1.69-.76-3.63-.71-5.27.15l-60.4 27.64 1.463-64.596c0-3.31 2.69-6 6-6l4.537-1.404h179c3.311 0 6 2.69 6 6z" fill="#bde4ff"/><path d="m347.001 136.411-1.5.962c0 3.31-6.048 4.294-9.358 4.294l-177.142-1.101c-3.31 0-6-2.69-6-6l-3-26.064 60.4-31.64c1.64-.86 3.58-.91 5.27-.15l19.97 9.08 38.015 12.719z" fill="#ffe07d"/><path d="m347.001 66.501v56.73l-2.38 9.297-71.45-31.077 6.826-10.207 31.674-8.683z" fill="#ffe07d"/><path d="m347.001 123.231v13.18l-76.9-34.96 4.634-4.972 9.866-1.618z" fill="#ffd064"/><path d="m162.001 36.501v65.71l-6.573 7.628-5.427-1.338v-66c0-3.31 2.69-6 6-6z" fill="#99dbff"/><path d="m308.551 82.877-38.45 18.574-31.059-15.711 8.997-7.492 18.402-11.197c1.61-.98 3.59-1.14 5.34-.44l24.469 9.784z" fill="#ffd064"/><path d="m296.251 76.391-24.496 11.13c-1.051.478-2.258.478-3.309 0l-20.405-9.27-12.4 7.54 34.46 15.66 41.57-18.89z" fill="#edc258"/><path d="m347.001 136.411v1.09c0 3.314-2.686 6-6 6h-185c-3.314 0-6-2.686-6-6v-29l12-6.29v22.29c0 3.866 3.134 7 7 7h167.2l5.887-1.174z" fill="#ffd064"/></g><g><path d="m45.001 337.611 2.536-57.615-2.536-4.995v-10c0-5.523 4.477-10 10-10h387c5.523 0 10 4.477 10 10v10l-1.914 5.931 1.914 56.679z" fill="#ffd064"/><path d="m105.002 337.611h-60v-62.61c28.09 0 51.73 19.4 58.23 45.5z" fill="#edc258"/><path d="m452.002 275.001v62.61h-60l1.77-17.11c6.5-26.1 30.14-45.5 58.23-45.5z" fill="#edc258"/><path d="m248.501 368.592 4.412-62.287-4.412-51.805c0-12.15-9.85-22-22-22h-114.5c-2.08 0-4.093.289-6 .828-9.234 2.612-14.07 14.414-14.07 24.484l-1.93 77.688-4.427 14.5 4.427 40.5z" fill="#f8f7f7"/><path d="m407.001 390.501 5.105-42.743-5.105-12.257v-81c0-12.15-9.85-22-22-22h-114.5c-2.08 0-4.093.289-6 .828-9.234 2.612-14.34 15.074-14.34 25.144l-1.66 110.119z" fill="#f8f7f7"/><path d="m411.556 436.657h-321.555l-9.161 29.945 9.161 23.899h34l7.922-8.724 17.078 8.724h50l10.794-8.724 14.206 8.724h50l11.665-8.724 13.335 8.724h50l13.784-8.724 11.216 8.724h37.555z" fill="#ffd064"/><g fill="#edc258"><path d="m124.001 436.657h25v53.844h-25z"/><path d="m199.001 436.657h25v53.844h-25z"/><path d="m274.001 436.657h25v53.844h-25z"/><path d="m349.001 436.657h25v53.844h-25z"/></g><path d="m248.502 345.501-135.504-.079c-3.864-.002-6.996-3.136-6.996-7v-105.091c-9.23 2.61-16 11.1-16 21.17v81l-6.85 19.413 6.85 35.587 16-2.21v-.002l142.5-19.697 6.613-15.982z" fill="#e8e8e8"/><path d="m382.002 345.501h-110.5c-3.866 0-7-3.134-7-7v-105.17c-9.23 2.61-16 11.1-16 21.17v91 23.09.002l158.5 21.908 5.104-19.404-5.104-16.796c-6.86-5.51-15.55-8.8-25-8.8z" fill="#e8e8e8"/><path d="m382.001 360.501h-8.5l-13.559 3.44-11.441-3.44h-50l-14.357 3.44-10.643-3.44h-50l-13.889 3.44-11.111-3.44h-50l-11.44 3.44-13.56-3.44h-8.5c-13.807 0-25 11.193-25 25l-9.161 14 9.161 11 153.774 7.495 163.225-7.495 6.866-11.33-6.866-13.67c.001-13.807-11.191-25-24.999-25z" fill="#ffd064"/><g fill="#edc258"><path d="m123.501 360.501h25v53.862h-25z"/><path d="m198.501 360.501h25v53.862h-25z"/><path d="m273.501 360.501h25v53.862h-25z"/><path d="m348.501 360.501h25v53.862h-25z"/></g><path d="m87.759 409.001h326.109v30h-326.109z" fill="#f8f7f7"/><path d="m90.001 335.001c0-25.445-21.12-45.958-46.786-44.965-5.971.231-11.66 1.649-16.834 4.023 0 0-4.649 3.036-6.917 4.639-10.998 7.774-16.278 19.852-16.954 34.087-.891 18.752 9.046 32.662 24.694 40.243 3.432 1.663 5.595 5.155 5.595 8.968l-.619 89.615c0 7.606 4.483 17.78 11.821 18.758.654.087 1.322.132 2 .132h44v-155h-.013c.003-.168.013-.333.013-.5z" fill="#ffe07d"/><path d="m44.002 375.481v114.88c-7.34-.97-13-7.26-13-14.86v-91.02c0-3.82-2.16-7.31-5.6-8.97-15.64-7.58-26.24-23.95-25.35-42.7.82-17.17 11.45-31.92 26.33-38.75-7.77 7.69-12.78 18.17-13.33 29.75-.89 18.75 9.71 35.12 25.35 42.7 3.44 1.66 5.6 5.15 5.6 8.97z" fill="#ffd064"/><circle cx="45.001" cy="335.001" fill="#ffd064" r="15"/><path d="m496.949 332.806c-1.007-21.2-16.968-38.703-37.439-42.177-1.873-.318-4.015.232-5.955.157-25.666-.993-43.884 20.348-43.884 45.794 0 .168.011.333.013.5h-.013l1.582 152.624 10.749.798h28.999c8.284 0 15-6.716 15-15v-91.023c0-3.813 2.164-7.306 5.595-8.968 15.649-7.583 26.244-23.954 25.353-42.705z" fill="#ffe07d"/><g fill="#ffd064"><path d="m422.002 335.001c0 .17.01.33.01.5h-.01v155h-15v-155h.01c0-.17-.01-.33-.01-.5 0-25.45 21.12-45.96 46.79-44.97 1.94.08 3.85.28 5.72.59-21.29 3.57-37.51 22.08-37.51 44.38z"/><circle cx="452.001" cy="335.001" r="15"/></g></g></g></svg>