<svg id="Capa_1" enable-background="new 0 0 497 497" height="512" viewBox="0 0 497 497" width="512" xmlns="http://www.w3.org/2000/svg"><g><path d="m446.229 22.148-44.436-5.243v441.198l50.567-428.183c.453-3.839-2.292-7.319-6.131-7.772z" fill="#dcf2f6"/><path d="m414.409 489-7-489h-347.818c-8.284 0-15 6.716-15 15l.029 467z" fill="#6bbdd5"/><path d="m415.409 0h-8v475c0 3.866-3.134 7-7 7h-355.789c0 8.284 6.716 15 15 15h50.794l87.498-7 87.498 7h62.658l22.231-7 22.232 7h22.878c3.866 0 7-3.134 7-7v-325.629l-7-14.382 7-13.98v-129.009c0-3.866-3.134-7-7-7z" fill="#5595a2"/><path d="m246.011 220.761v-62.045h-56.501c-4.82 4.216-9.79 6.674-9.79 11.734 0 6.985 15.409 15.471 15.409 15.471s0 12.022 0 24c9.585 18.378 50.882 10.84 50.882 10.84z" fill="#e3a76f"/><path d="m198.45 138.488c0 10.735-4.404 16.26-8.941 20.228 14.747 6.127 29.984 12.364 46.502 17.838v37.208s-29.746 3.834-40.883-3.84c0 27.739 55.883 15.84 55.883 15.84l17.439-87.273h-70z" fill="#c48958"/><path d="m371.424 270.491c-4.633-2.142-9.789-3.346-15.229-3.346l-105.184-8.098c-17.582 3.173-36.949.569-50.698-4.153-12.572-4.318-26.411-2.805-37.783 4.079s-22.378 20.914-22.378 20.914l-80.785 40.898c-7.81 3.954-10.557 13.706-6.03 21.199 27.261 45.129 81.256 93.63 99.69 104.108h28.865v-42.529h-35.739c-24.42-17.271-40.562-55.587-40.562-55.587l43.756-39.585c15.335-7.915 51.987 18.787 51.987 18.787l146.733 35.299v119.523l22.473 10 14.49-6.589v-181.931c.001-13.611-4.735-24.974-13.606-32.989z" fill="#e3a76f"/><path d="m149.347 308.391-43.673 22.542c-3.551 1.833-5.041 6.128-3.389 9.766l3.305 7.276 50.012-25.814c11.483-5.927 26.649-5.7 36.406 2.773l9.326 2.243v-13.191c-11.934-10.363-36.651-13.511-51.987-5.595z" fill="#c48958"/><path d="m371.424 270.491c4.551 8.675 6.107 19.378 6.107 32.989v178.52h-29.463v15h29.463l15-15v-178.52c0-14.627-8.648-27.228-21.107-32.989z" fill="#c48958"/><path d="m377.531 482h15v15h-15z" fill="#9a6a53"/><path d="m333.068 330.075c-3.989-6.814-6.552-13.905-6.552-20.709v-7.773h-107.124v-42.245c-5.33-.746-10.401-1.84-15-3.176v54.226l-12.383 14.538c-6.53 7.666-10.117 17.407-10.117 27.478v51.15c0 28.714-49.462 53.693-66.092 78.438l162.435 7c2.625-24.935 8.643-51.169 23.681-72.848l39.805-55.62z" fill="#f5fcff"/><path d="m333.068 330.075v28.403l-35.152 50.674c-15.038 21.679-24.056 47.913-26.681 72.848h-155.435c-3.36 5-5.386 9.99-5.386 15h159.996l15.856-15c2.669-23.894 11.676-47.262 26.649-68.848l35.152-50.674v-13.473c-5.668-5.669-11.037-12.163-14.999-18.93z" fill="#dcf2f6"/><path d="m270.41 497h15c0-5.016.3-10.019.856-15h-15.031c-.533 5.069-.825 10.088-.825 15z" fill="#bae6ef"/><path d="m339.23 233.724c0-24.386 0-52.543 0-52.543h-88.219v77.866c0 64.507 7.352 90.594 22.225 104.219 1.44 1.319 3.254 1.97 5.064 1.97 2.03 0 4.053-.819 5.532-2.434 2.798-3.054 2.59-7.798-.464-10.597-10.545-9.66-15.413-23.305-16.665-50.565 4.201 6.495 12.475 16.131 26.849 16.131 36.097 0 52.642-51.625 52.642-51.625s-6.964-8.036-6.964-32.422z" fill="#9a6a53"/><path d="m347.23 233.724c0-24.386 0-76.706 0-76.706h-96.219v24.163c23.612 6.735 50.02 11.58 81.219 12.323v40.22s6.965 32.421 6.965 32.421-13.545 45.625-49.642 45.625c-14.377 0-22.291-9.442-22.852-10.134 8.461 15.323 21.163 22.134 31.852 22.134 36.097 0 57.642-56.625 57.642-56.625s-8.965-9.035-8.965-33.421z" fill="#7a5341"/><path d="m407.409 132.768-66.782-14.431s.879-63.828-72.966-63.828c-62.616 0-69.21 53.979-69.21 53.979h-123.86c-4.142 0-7.5 3.358-7.5 7.5s3.358 7.5 7.5 7.5c91.575 0 141.188 50.114 266.035 50.114 22.634 0 45.861-2.739 66.782-6.392l4.952-17.386z" fill="#f5fcff"/><path d="m422.409 136.009-15-3.241v34.443c5.155-.9 10.169-1.855 15-2.839z" fill="#dcf2f6"/><path d="m114.591 146.248c-4.142 0-7.5-3.358-7.5-7.5v-108.748c0-4.142 3.358-7.5 7.5-7.5h58.748c4.142 0 7.5 3.358 7.5 7.5s-3.358 7.5-7.5 7.5h-51.248v29h41.248c4.142 0 7.5 3.358 7.5 7.5s-3.358 7.5-7.5 7.5h-41.248v57.248c0 4.142-3.358 7.5-7.5 7.5z" fill="#bae6ef"/></g></svg>