<svg id="Capa_1" enable-background="new 0 0 497 497" height="512" viewBox="0 0 497 497" width="512" xmlns="http://www.w3.org/2000/svg"><g><path d="m255.5 384.362-22 9.64v57.998l22 10z" fill="#87a0af"/><path d="m233.5 364.621v29.381c4.581.204 9.79.361 15 .361v50.137c0 4.142-3.358 7.5-7.5 7.5h-7.5v25h30v-112.379z" fill="#738c96"/><path d="m352.437 482.356c0-2.798-1.852-11.233-8.347-14.533-1.794-.528-3.688-.824-5.653-.824h-179.874c-9.316 0-17.121 6.379-19.344 15l206.574 7c3.669.001 6.644-2.974 6.644-6.643z" fill="#87a0af"/><path d="m344.09 467.824c1.477 2.141 2.347 4.734 2.347 7.533 0 3.669-2.975 6.644-6.644 6.644h-200.574c-.413 1.601-.656 3.27-.656 5 0 5.523 4.477 10 10 10h199.874c5.523 0 10-4.477 10-10 0-9.082-6.057-16.737-14.347-19.177z" fill="#738c96"/><path d="m313.102 359.252s15.066-52.881 15.066-87.072-16.09-75.408-16.09-88.714c0-14.195 23.459-124.115 23.459-124.115-37.83-16.811-43.722-18.908-43.722-41.066h-86.631c0 23.185-6.423 24.394-49.164 43.49-6.92 3.092-10.453 10.854-8.226 18.098 8.346 27.146 27.126 89.763 27.126 103.593 0 13.306-16.09 54.523-16.09 88.714 0 21.533 6.783 53.011 11.806 73.372 2.981 11.65 26.071 18.81 77.862 18.81 38.238 0 64.604-5.11 64.604-5.11z" fill="#f4e2c1"/><g fill="#f3d69e"><path d="m299.785 285.75c-4.142 0-7.5-3.358-7.5-7.5 0-20.636-2.839-45.919-5.121-66.235-1.444-12.86-2.585-23.018-2.585-28.549 0-14.236 2.527-27.303 6.893-45.063.988-4.022 5.049-6.483 9.073-5.493 4.022.989 6.482 5.051 5.493 9.073-4.091 16.643-6.459 28.767-6.459 41.483 0 4.692 1.154 14.972 2.491 26.875 2.323 20.688 5.215 46.434 5.215 67.909 0 4.143-3.358 7.5-7.5 7.5z"/><path d="m197.215 285.75c-4.142 0-7.5-3.358-7.5-7.5 0-21.475 2.892-47.222 5.215-67.909 1.337-11.903 2.491-22.183 2.491-26.875 0-12.717-2.368-24.84-6.459-41.483-.989-4.022 1.471-8.084 5.493-9.073 4.022-.988 8.084 1.471 9.073 5.493 4.365 17.76 6.893 30.827 6.893 45.063 0 5.531-1.141 15.689-2.585 28.549-2.282 20.315-5.121 45.599-5.121 66.235 0 4.143-3.358 7.5-7.5 7.5z"/><path d="m340.979 61.775c-1.893-.846-3.689-1.645-5.442-2.424-9.617 31.185-33.459 109.92-33.459 124.115 0 13.306 16.09 54.523 16.09 88.714s-13.066 77.072-13.066 77.072-18.366 5.11-56.602 5.11c-35.209 0-65.565-5.999-77.862-8.81 1.11 4.5 2.136 8.465 2.981 11.65 1.433 5.397 5.744 9.534 11.19 10.771 11.365 2.58 33.29 6.389 63.691 6.389s52.326-3.809 63.691-6.389c5.445-1.236 9.757-5.374 11.19-10.771 4.673-17.599 14.787-58.729 14.787-85.022 0-34.19-16.09-75.408-16.09-88.714 0-13.83 18.78-76.447 27.126-103.593 2.228-7.244-1.306-15.006-8.225-18.098z"/></g><path d="m248.5 28.572c32.674 0 43.315-10.286 36.066-20.412-7.764-4.918-21.016-8.16-36.066-8.16-18.732 0-34.684 5.02-40.726 12.047 0 9.737 8.998 16.525 40.726 16.525z" fill="#edc472"/><path d="m284.566 8.16c-.003 6.2-12.147 13.412-36.066 13.412-18.732 0-34.684-3.261-40.726-9.525-1.674 1.947-2.59 4.048-2.59 6.239 0 10.099 19.393 18.286 43.315 18.286s43.315-8.187 43.315-18.286c.001-3.746-2.671-7.227-7.248-10.126z" fill="#e3a76f"/></g></svg>