<svg id="Capa_1" enable-background="new 0 0 497 497" height="512" viewBox="0 0 497 497" width="512" xmlns="http://www.w3.org/2000/svg"><g><path d="m376.306 79.742c-4.143 0-7.5-3.358-7.5-7.5v-31c0-4.142 3.357-7.5 7.5-7.5s7.5 3.358 7.5 7.5v31c0 4.143-3.358 7.5-7.5 7.5z" fill="#dcf2f6"/><path d="m295.766 79.742c-4.143 0-7.5-3.358-7.5-7.5v-31c0-4.142 3.357-7.5 7.5-7.5s7.5 3.358 7.5 7.5v31c0 4.143-3.358 7.5-7.5 7.5z" fill="#dcf2f6"/><path d="m95.074 387.887c-4.142 0-7.5-3.358-7.5-7.5v-32.077c0-4.142 3.358-7.5 7.5-7.5s7.5 3.358 7.5 7.5v32.077c0 4.142-3.358 7.5-7.5 7.5z" fill="#bae6ef"/><path d="m477.491 239.804-7-64.497h-28.661v54.497z" fill="#87a0af"/><path d="m470.491 175.307v46.997c0 4.142-3.358 7.5-7.5 7.5h-21.161v20h28.661c8.284 0 15-6.716 15-15v-44.497c0-8.284-6.715-15-15-15z" fill="#738c96"/><path d="m295.766 55.242h-7.32c-3.725 0-6.885 2.734-7.422 6.42l-2.61 17.94-2.548 7.514v10l-3.959 27.209 42.629 10z" fill="#da8bc1"/><path d="m303.086 55.242h-7.32l9.205 65.092c.298 2.107-1.338 3.99-3.466 3.99h-29.599l-2.91 20 26.77 10 26.77-10-12.028-82.662c-.537-3.686-3.697-6.42-7.422-6.42z" fill="#d273b3"/><path d="m376.305 55.242h-7.32c-3.725 0-6.885 2.734-7.422 6.42l-9.118 62.662 42.629 10z" fill="#6bbdd5"/><path d="m391.047 61.662c-.536-3.686-3.697-6.42-7.422-6.42h-7.32l9.205 65.092c.298 2.107-1.338 3.99-3.466 3.99h-29.599l-2.91 20 26.77 10 26.77-10z" fill="#5595a2"/><path d="m102.074 348.188c0-5.49-7-58.37-7-58.37h-15v59.37c4.191 4.151 22 4.49 22-1z" fill="#87a0af"/><path d="m95.074 289.818v53.926c0 3.006-6.716 5.444-15 5.444 0 5.038 6.716 9.122 15 9.122s15-4.084 15-9.122c0-2.212 0-59.37 0-59.37z" fill="#738c96"/><path d="m415.233 335.558c0-7.956 3.161-15.587 8.787-21.213l17.317-17.317c2.66-2.66 4.155-6.268 4.155-10.03v-91.186c0-20.557-15.658-40.066-26.608-49.765-4.817-1.132-10.082-1.722-15.809-1.722h-322.385c-34.7 0-52.017 27.011-52.017 57.487 0 20.997 14.531 66.897 23.57 93.42l66.051 10c3.024 0 5.752-1.816 6.919-4.605l12.414-29.672c6.271-14.989 20.929-24.746 37.177-24.746h87.075c11.889 0 21.345 4.947 27.629 15.732 7.495 5.454 12.371 14.289 12.371 24.268v113.049l113.354 10z" fill="#f5fcff"/><path d="m418.883 146.047c10.95 9.699 16.608 25.207 16.608 45.765v91.186c0 3.762-1.495 7.37-4.155 10.03l-17.317 17.317c-5.626 5.626-8.787 13.257-8.787 21.213v60.199c0 4.142-3.358 7.5-7.5 7.5h-95.854v30h123.354v-87.699c0-7.957 3.161-15.587 8.787-21.213l12.684-12.684c5.626-5.626 8.787-13.257 8.787-21.213v-84.636c.001-30.684-12.601-50.121-36.607-55.765z" fill="#dcf2f6"/><path d="m251.879 236.209h-80.331c-18.516 0-35.221 11.119-42.367 28.2l-10.968 26.217c-1.167 2.789-3.895 4.605-6.919 4.605h-59.051c1.279 3.752 2.448 7.119 3.451 9.97 2.112 6.009 7.784 10.03 14.153 10.03h50.455c6.048 0 11.504-3.632 13.838-9.211l13.133-31.391c4.668-11.158 15.58-18.422 27.676-18.422h96.931c6.59 0 12.679 2.13 17.629 5.732-5.868-15.055-20.498-25.73-37.63-25.73z" fill="#dcf2f6"/><path d="m95.075 315.232v-66.652c0-2.417 1.164-4.685 3.127-6.093l33.314-23.907-33.314-23.907c-1.963-1.409-3.127-3.677-3.127-6.093v-99.943c0-2.486 1.232-4.811 3.29-6.207 2.057-1.396 4.673-1.681 6.983-.762.36.143 37.093 14.469 85.062 14.469 43.907 0 76.906-11.764 83.075-14.122 3.871-1.479 4.93-2.413 4.93-2.413l-2.548 17.514c-11.095 3.918-43.759 14.021-85.457 14.021-35.983 0-65.512-7.42-80.334-12.01v85.604l38.679 27.756c1.963 1.409 3.127 3.677 3.127 6.093s-1.164 4.685-3.127 6.093l-38.679 27.756v62.802h-15.001z" fill="#eaacde"/><g fill="#bae6ef"><path d="m403.075 266.739h-57.322c-4.143 0-7.5-3.358-7.5-7.5s3.357-7.5 7.5-7.5h57.322c4.143 0 7.5 3.358 7.5 7.5s-3.357 7.5-7.5 7.5z"/><path d="m403.075 236.739h-57.322c-4.143 0-7.5-3.358-7.5-7.5s3.357-7.5 7.5-7.5h57.322c4.143 0 7.5 3.358 7.5 7.5s-3.357 7.5-7.5 7.5z"/><path d="m403.075 206.739h-57.322c-4.143 0-7.5-3.358-7.5-7.5s3.357-7.5 7.5-7.5h57.322c4.143 0 7.5 3.358 7.5 7.5s-3.357 7.5-7.5 7.5z"/></g><path d="" fill="#f4e2c1"/><path d="" fill="#f4e2c1"/><path d="m487 453.258-10-34h-462c-8.284 0-15 6.716-15 15v9z" fill="#87a0af"/><path d="m482 419.258h-5v16.5c0 4.142-3.358 7.5-7.5 7.5h-469.5v12.5c0 4.142 3.358 7.5 7.5 7.5h482c4.142 0 7.5-3.358 7.5-7.5v-21.5c0-8.285-6.716-15-15-15z" fill="#738c96"/></g></svg>