<svg id="Capa_1" enable-background="new 0 0 497 497" height="512" viewBox="0 0 497 497" width="512" xmlns="http://www.w3.org/2000/svg"><g><path d="m401.474 459h29l-7-459h-312.448c-4.142 0-7.5 3.358-7.5 7.5v37.5z" fill="#f4e2c1"/><path d="m430.974 0h-7.5v444.5c0 4.142-3.358 7.5-7.5 7.5h-7.5v-399.5c0-4.142-3.358-7.5-7.5-7.5h-297.448v414.5c0 4.142 3.358 7.5 7.5 7.5h319.949c4.142 0 7.5-3.358 7.5-7.5v-452c-.001-4.142-3.359-7.5-7.501-7.5z" fill="#f3d69e"/><path d="m385.474 489-7-459h-312.448c-4.142 0-7.5 3.358-7.5 7.5v444.5z" fill="#f5fcff"/><path d="m385.974 30h-7.5v444.5c0 4.142-3.358 7.5-7.5 7.5h-312.448v7.5c0 4.142 3.358 7.5 7.5 7.5h319.949c4.142 0 7.5-3.358 7.5-7.5v-452c-.001-4.142-3.359-7.5-7.501-7.5z" fill="#dcf2f6"/><path d="m222.219 218.62 14.04-34.979c-11.85-8.137-31.255-18.695-52.211-18.695-13.123 0-18.247 7.231-3.048 53.786-17.489 31.875-47.677 96.371-62.473 189.637 0 0 34.675 14.07 92.537 14.07 96.536 0 152.53-44.578 152.53-44.578-49.344-92.113-120.343-145.729-141.375-159.241z" fill="#da8bc1"/><path d="m212.715 61.008c-3.576 0-6.785.366-9.671 1.036.003 24.033 9.12 32.996 33.286 32.996.735 0 1.439.018 2.151.031l7.771-19.657c-.001 0-9.922-14.406-33.537-14.406z" fill="#bae6ef"/><path d="m267.486 125.534c13.391-13.391 6.633-29.824-29.005-30.463l-18.93 47.883c9.896 3.804 20.194 9.402 27.432 13.967 0 0 7.508 4.735 16.759 11.203 0 0 9.226-2.867 22.574-16.216 7.202-7.201 9.225-26.374-18.83-26.374z" fill="#bae6ef"/><path d="m88.525 248.084c-4.143 0-7.5-3.358-7.5-7.5v-21c0-3.747 2.766-6.919 6.477-7.43.135-.02 15.149-2.229 33.158-11.614 23.82-12.413 41.416-30.896 52.297-54.935 1.708-3.773 6.149-5.447 9.926-3.74 3.773 1.708 5.448 6.152 3.74 9.925-15.433 34.093-40.922 52.719-59.587 62.34-12.855 6.626-24.246 9.997-31.011 11.597v14.856c0 4.144-3.357 7.501-7.5 7.501zm101.132 233.717c-3.075 0-5.959-1.906-7.059-4.966-4.911-13.671-11.351-35.918-14.692-57.358-.639-4.093 2.162-7.928 6.255-8.566 4.1-.64 7.928 2.163 8.565 6.255 3.181 20.396 9.312 41.577 13.989 54.597 1.4 3.898-.625 8.193-4.522 9.594-.838.302-1.694.444-2.536.444zm47.413-21.507c-.577 0-1.163-.067-1.749-.207-4.028-.963-6.514-5.009-5.552-9.038 2.22-9.291 3.581-15.759 3.767-27.229.066-4.142 3.465-7.454 7.62-7.378 4.142.067 7.445 3.479 7.378 7.62-.21 12.971-1.789 20.486-4.175 30.472-.823 3.444-3.897 5.76-7.289 5.76zm25.792-232.172c-3.328 0-6.367-2.231-7.25-5.601-1.05-4.007 1.348-8.106 5.354-9.156 13.149-3.456 26.472-9.499 29.18-13.124-2.825-4.997-18.292-18.013-39.591-32.087l-8.421 20.98c-1.542 3.845-5.912 5.709-9.754 4.167-3.844-1.543-5.709-5.91-4.166-9.754l11.809-29.42c.828-2.065 2.532-3.656 4.649-4.342 2.112-.685 4.428-.396 6.312.792.529.334 13.115 8.287 25.924 17.774 25.046 18.549 28.498 26.288 28.498 31.886 0 10.736-12.615 17.3-22.104 21.302-9.149 3.86-18.155 6.236-18.534 6.335-.637.168-1.277.248-1.906.248zm27.637-27.122c.001 0 .001 0 0 0zm-81.068-24.949c-.918 0-1.851-.169-2.756-.527-3.852-1.522-5.74-5.88-4.217-9.732l11.996-30.346h-25.407c-3.03 0-5.763-1.823-6.926-4.622-9.426-22.68-10.702-44.692-3.412-58.884 4.564-8.885 12.392-14.838 22.638-17.214 4.034-.934 8.065 1.576 9 5.612.937 4.035-1.576 8.065-5.611 9-5.979 1.387-10.128 4.479-12.684 9.455-4.781 9.308-3.923 24.965 2.123 41.652h26.21l11.696-29.587c1.523-3.852 5.883-5.74 9.732-4.217 3.852 1.522 5.74 5.88 4.217 9.732l-29.623 74.933c-1.165 2.947-3.989 4.745-6.976 4.745z" fill="#87a0af"/><path d="m211.062 429.94c-58.651 0-93.886-14.023-95.357-14.621-3.232-1.312-5.134-4.679-4.587-8.125 13.802-86.992 40.875-150.508 61.755-189.219-9.775-30.594-11.109-45.275-5.023-53.665 4.98-6.865 13.423-6.865 16.197-6.865 36.619 0 67.9 28.732 69.214 29.955 3.032 2.823 3.201 7.568.379 10.6-2.82 3.03-7.562 3.202-10.593.385-.058-.053-1.28-1.172-3.453-2.919l-8.151 20.309c20.519 14.203 89.451 66.493 138.761 158.546 1.71 3.193.895 7.153-1.94 9.409-.5.398-7.959 6.27-21.787 13.715 1.236 2.253 2.479 4.544 3.728 6.876 1.956 3.651.581 8.197-3.07 10.153-3.65 1.956-8.196.582-10.152-3.07-1.323-2.47-2.636-4.89-3.94-7.266-6.424 2.958-13.688 5.978-21.767 8.865-3.9 1.394-8.193-.638-9.587-4.539-1.394-3.9.638-8.192 4.538-9.586 7.162-2.56 13.65-5.238 19.43-7.87-27.298-47.371-50.235-74.43-67.54-94.844-2.565-3.026-4.987-5.883-7.258-8.613-2.648-3.185-2.214-7.913.971-10.562s7.914-2.214 10.562.97c2.241 2.695 4.633 5.517 7.167 8.505 16.797 19.815 41.205 48.609 69.559 97.88 6.431-3.456 11.363-6.528 14.699-8.746-53.239-95.909-127.237-145.263-135.652-150.668-3.027-1.945-4.247-5.765-2.906-9.104l11.742-29.254c-11.053-6.847-26.64-14.126-42.954-14.126-2.822 0-3.887.44-4.056.673-.97 1.336-3.248 8.408 8.138 43.286.643 1.97.442 4.118-.555 5.935-20.01 36.472-46.532 97.184-60.629 181.011 7.121 2.257 20.822 6.015 39.921 8.637-.796-6.595-1.198-12.677-1.198-18.153 0-4.142 3.357-7.5 7.5-7.5s7.5 3.358 7.5 7.5c0 5.822.52 12.493 1.548 19.869 8.804.765 18.447 1.236 28.847 1.236 22.229 0 44.119-2.445 65.06-7.268 4.034-.927 8.063 1.588 8.992 5.625.93 4.037-1.589 8.062-5.626 8.992-22.044 5.077-45.066 7.651-68.427 7.651z" fill="#ca59a6"/><path d="m286.316 159.408c-1.919 0-3.839-.732-5.303-2.196-2.93-2.929-2.93-7.678-.001-10.607 1.84-1.839 3.083-5.56 2.004-8.167-1.402-3.384-7.208-5.405-15.53-5.405-3.033 0-5.769-1.827-6.929-4.63-1.161-2.802-.52-6.028 1.625-8.173 3.383-3.383 4.839-6.762 3.896-9.04-2.829-6.829-20.03-8.65-29.748-8.65-28.204 0-40.783-12.489-40.786-40.496 0-3.489 2.405-6.518 5.805-7.307 3.517-.816 7.341-1.23 11.366-1.23 27.243 0 39.217 16.932 39.713 17.652 1.418 2.058 1.717 4.687.798 7.011l-4.003 10.125c12.334 1.529 26.035 5.859 30.714 17.153 1.869 4.513 1.919 9.347.263 14.104 6.778 1.787 13.523 5.536 16.675 13.143 3.876 9.356-.007 19.266-5.254 24.514-1.466 1.467-3.386 2.199-5.305 2.199zm-75.508-90.858c1.25 13.722 7.179 18.448 22.603 18.945l4.145-10.484c-3.695-3.304-11.611-8.503-24.84-8.503-.648 0-1.283.014-1.908.042z" fill="#738c96"/></g></svg>