<svg id="Capa_1" enable-background="new 0 0 512 512" height="512" viewBox="0 0 512 512" width="512" xmlns="http://www.w3.org/2000/svg"><g><path d="m493.542 383.069c-47.819-163.092-102.006-240.435-102.006-247.527 1.215-3.021 12.396-34.711 13.635-37.714 8.333-20.203 6.68-36.262-5.616-57.057l-25.531-26.265c-6.563 16.025-14.378 30.865-23.018 44.584 0 8.631-1.651 13.337-8.88 13.337-13.263-18.862-25.008-40.163-34.083-63.857-2.245-5.862-10.263-6.537-13.458-1.134l-19.711 33.334c-12.297 20.795-13.949 36.855-5.616 57.057 6.647 16.117 13.635 33.953 13.635 37.714 0 6.961-55.076 89.282-102.324 246.493 11.533 15.391 89.362 27.13 151.646 27.13 81.785 0 139.243-13.569 157.337-18.83 3.109-.903 4.901-4.157 3.99-7.265z" fill="#6bbdd5"/><path d="m503.86 382.035c-47.248-157.211-102.324-239.533-102.324-246.493v-15.2h4.689c2.53-6.755 5.776-14.829 8.946-22.514 8.333-20.203 6.68-36.262-5.616-57.057l-19.712-33.336c-3.195-5.404-11.213-4.729-13.458 1.134-.765 1.999-1.558 3.973-2.362 5.936l15.531 26.265c12.297 20.795 13.949 36.855 5.616 57.057-1.239 3.004-2.49 6.067-3.705 9.088-14.086-13.668-27.879-29.624-40.461-47.826-2.876 4.567-5.838 9.016-8.88 13.337 13.355 18.993 28.251 35.506 43.509 49.504-2.452 6.646-4.099 11.788-4.099 13.613 0 7.093 52.187 77.435 100.006 240.527.911 3.108-.881 6.362-3.99 7.266-18.094 5.261-63.553 15.83-145.337 15.83-62.284 0-124.899-10.16-151.646-17.13-2.451 8.154 2.364 16.706 10.603 18.853 25.079 6.535 80.019 18.277 151.043 18.277s125.964-11.742 151.042-18.277c8.241-2.148 13.056-10.7 10.605-18.854z" fill="#5595a2"/><path d="m385.635 121.929c5.273 4.838 10.589 9.379 15.901 13.613 0-1.967 1.914-7.79 4.689-15.2-4.929-4.198-9.861-8.674-14.759-13.427-2.141 5.325-4.17 10.513-5.831 15.014z" fill="#488089"/><path d="m387.357 277.168h-90.286l45.143-90.286z" fill="#bae6ef"/><path d="m194.279 236.474c0-28.979 10.07-77.74 23.539-136.434l-2.094-.819c-5.129-2.007-10.921-1.058-15.185 2.428-8.168 6.677-25.014 16.829-53.486 18.927-1.825.134-3.24 1.656-3.24 3.486v28.145c0 4.107-3.165 7.688-7.27 7.811-4.247.127-7.73-3.278-7.73-7.497v-28.459c0-1.83-1.415-3.351-3.24-3.486-28.473-2.098-45.319-12.25-53.487-18.928-4.264-3.486-10.056-4.434-15.184-2.427l-13.433 5.256c-3.84 1.502-5.746 5.819-4.27 9.669 7.689 20.059 29.149 98.202 29.149 122.328 0 15.289-29.146 57.102-29.146 102.435 0 33.416 13.759 105.743 20.992 135.931 14.742 13.592 48.8 15.911 73.119 15.911 28.882 0 53.814-4.197 62.241-6.287 3.81-.945 6.81-3.866 7.852-7.651 4.522-16.417 20.018-101.007 20.018-137.904.001-45.333-29.145-87.146-29.145-102.435z" fill="#da8bc1"/><path d="m229.158 104.476-11.339-4.437c-14.809 36.704-33.539 107.455-33.539 136.434 0 15.289 29.146 57.102 29.146 102.435 0 36.897-15.496 111.487-20.018 127.904-1.042 3.784-4.042 6.705-7.852 7.651-8.427 2.091-28.359 6.287-57.241 6.287-24.319 0-52.785-3.182-68.119-5.911.754 3.145 1.437 5.834 2.026 7.973 1.439 5.225 5.581 9.258 10.841 10.563 11.635 2.887 34.37 7.375 63.252 7.375s51.617-4.488 63.252-7.375c5.26-1.305 9.402-5.338 10.841-10.563 6.243-22.667 23.018-107.007 23.018-143.904 0-45.333-29.146-87.145-29.146-102.435 0-24.126 21.46-102.269 29.149-122.328 1.475-3.85-.431-8.167-4.271-9.669z" fill="#d273b3"/><path d="m167.572 319.246c0-22.165-14.821-41.867-31.259-56.726s-31.259-34.561-31.259-56.726h62.518c0 22.165-14.821 41.867-31.259 56.726s-31.259 34.561-31.259 56.726z" fill="#eaacde"/><path d="m258.436 508.25c-1.919 0-3.839-.732-5.304-2.197l-16.859-16.859c-2.929-2.929-2.929-7.678 0-10.606l16.859-16.859c2.93-2.929 7.678-2.929 10.607 0s2.929 7.678 0 10.606l-4.057 4.056h12.741c4.143 0 7.5 3.358 7.5 7.5s-3.357 7.5-7.5 7.5h-12.741l4.057 4.056c2.929 2.929 2.929 7.678 0 10.606-1.465 1.465-3.385 2.197-5.303 2.197z" fill="#738c96"/><path d="m487.641 473.901c-1.919 0-3.839-.732-5.304-2.197-2.929-2.929-2.929-7.678 0-10.606l4.057-4.056h-12.741c-4.143 0-7.5-3.358-7.5-7.5s3.357-7.5 7.5-7.5h12.741l-4.057-4.056c-2.929-2.929-2.929-7.678 0-10.606 2.93-2.929 7.678-2.929 10.607 0l16.859 16.859c2.929 2.929 2.929 7.678 0 10.606l-16.859 16.859c-1.465 1.465-3.384 2.197-5.303 2.197z" fill="#738c96"/><path d="m167.572 326.746h-62.518c-4.143 0-7.5-3.358-7.5-7.5 0-18.883 9.609-38.373 27.885-56.726-18.275-18.353-27.885-37.843-27.885-56.726 0-4.142 3.357-7.5 7.5-7.5h62.518c4.143 0 7.5 3.358 7.5 7.5 0 18.882-9.61 38.373-27.885 56.726 18.274 18.354 27.885 37.844 27.885 56.726 0 4.142-3.357 7.5-7.5 7.5zm-54.35-15h46.184c-2.672-15.167-12.95-28.751-23.092-38.886-10.143 10.135-20.42 23.718-23.092 38.886zm0-98.452c2.672 15.168 12.95 28.751 23.092 38.886 10.142-10.135 20.42-23.719 23.092-38.886z" fill="#ca59a6"/><path d="m387.357 284.669h-90.286c-2.6 0-5.014-1.346-6.38-3.557s-1.491-4.972-.328-7.297l45.143-90.287c1.271-2.541 3.867-4.146 6.708-4.146s5.438 1.605 6.708 4.146l45.144 90.287c1.163 2.325 1.038 5.086-.328 7.297-1.367 2.211-3.781 3.557-6.381 3.557zm-78.151-15h66.017l-33.009-66.016z" fill="#5595a2"/><g fill="#738c96"><path d="m21.488 260.833c-1.919 0-3.839-.732-5.304-2.197-2.929-2.929-2.929-7.678 0-10.606l4.057-4.056h-12.741c-4.143 0-7.5-3.358-7.5-7.5s3.357-7.5 7.5-7.5h12.741l-4.057-4.056c-2.929-2.929-2.929-7.678 0-10.606 2.93-2.929 7.678-2.929 10.607 0l16.859 16.859c2.929 2.929 2.929 7.678 0 10.606l-16.859 16.859c-1.464 1.464-3.384 2.197-5.303 2.197z"/><path d="m448.396 159.901c-1.919 0-3.839-.732-5.304-2.197l-16.859-16.859c-2.929-2.929-2.929-7.678 0-10.606l16.859-16.859c2.93-2.93 7.678-2.928 10.607 0 2.929 2.929 2.929 7.678 0 10.606l-4.057 4.056h12.741c4.143 0 7.5 3.358 7.5 7.5s-3.357 7.5-7.5 7.5h-12.741l4.057 4.056c2.929 2.929 2.929 7.678 0 10.606-1.465 1.465-3.384 2.197-5.303 2.197z"/></g></g></svg>