<svg id="Capa_1" enable-background="new 0 0 496.994 496.994" height="512" viewBox="0 0 496.994 496.994" width="512" xmlns="http://www.w3.org/2000/svg"><g><path d="m395.477 435.124s26.291 13.161 34.937 13.161 19.964-36.235 4.539-45.187l-147.251-204.397-272.9 162.891c-8.801 11.949-14.272 31.248-14.765 44.15 2.805 12.552 46.574 6.308 46.574 6.308-.868 10.074 1.77 21.947 5.773 30.518 9.015 11.148 49.128-7.443 49.128-7.443.81 10.079 5.375 21.352 10.74 29.143 10.734 9.504 47.221-15.464 47.221-15.464 2.11 9.889 8.098 20.475 14.428 27.504 11.876 8.032 44.817-21.456 44.817-21.456 3.103 9.624 10.136 19.547 17.147 25.897 12.63 6.784 42.407-25.897 42.407-25.897 4.065 9.259 12.068 18.417 19.688 24.022 13.254 5.467 39.557-30.069 39.557-30.069 5.223 8.64 14.326 16.671 22.598 21.245 13.888 3.72 35.362-34.926 35.362-34.926z" fill="#dc805a"/><path d="m101.512 435.124c-10.902 12.688-32.043 21.983-40.113 18.591-3.192-1.342-6.395-5.539-9.015-11.148 8.524 1.951 29.623-6.465 39.333-17.766 5.827-6.785 16.48 2.503 9.795 10.323zm-61.306-35.783c-12.69 8.111-33.019 10.848-40.169 6.4-.233 6.092.64 10.765 2.805 12.552 6.751 5.573 29.673 2.764 43.769-6.245 8.655-5.56 1.13-17.524-6.405-12.707zm107.9 40.9c-7.708 12.752-27.125 24.541-35.854 24.026 3.511 5.098 7.364 8.708 10.734 9.504 8.52 2.011 27.833-10.651 36.487-24.967 5.3-8.818-6.742-16.217-11.367-8.563zm175.867 4.193c-3.109 14.572-17.597 32.068-26.014 34.438 4.986 3.668 9.809 5.818 13.254 5.467 8.709-.889 22.813-19.176 26.304-35.536 2.122-10.067-11.679-13.116-13.544-4.369zm-58.732 4.694c-4.573 14.181-20.763 30.115-29.377 31.619 4.588 4.155 9.167 6.784 12.63 6.784 8.754 0 24.642-16.76 29.777-32.681 3.134-9.798-10.286-14.233-13.03-5.722zm-58.904-1.293c-5.99 13.644-23.714 27.851-32.436 28.472 4.142 4.6 8.431 7.68 11.876 8.032 8.709.889 26.217-14.171 32.941-29.488 4.112-9.431-8.788-15.205-12.381-7.016zm176.108-24.072c-4.114 1.241-8.346 2.45-12.733 3.61-3.772.998-7.68-1.085-8.975-4.766-7.447-21.169-33.018-92.797-73.035-193.906-5.378 106.387-21.441 184.073-25.858 204.293-.759 3.477-3.859 5.933-7.417 5.9-139.615-1.318-210.634-40.83-239.625-77.302l230.693-239.301 222.372 224.823 14.321 14.478c12.956 17.592 18.711 51.129 11.96 56.702s-29.673 2.764-43.769-6.245c1.436 16.667-6.717 38.273-14.788 41.665-8.07 3.392-29.211-5.902-40.113-18.591-1.34 16.675-12.953 36.636-21.474 38.647-3.378.797-8.455-.718-13.889-3.723 7.888-3.775 18.512-19.667 21.368-37.5.502-3.142.799-6.095.962-8.784m9.589-3.032c1.318 1.508 2.589 2.917 3.685 4.053 13.468 13.969 29.665 19.749 32.756 17.829 5.6-3.479 8.643-19.561 7.675-30.791-.152-1.758-.594-4.899-1.197-8.725-12.008 6.032-26.249 12.106-42.919 17.634" fill="#d66b3e"/><path d="m304.894 119.303 26.398-72.702c-16.458-11.006-34.988-17.342-56.817-17.342l-7.663 81.977 34.952 10c1.325 0 2.536-.748 3.13-1.933z" fill="#f8fdff"/><path d="m332.968 47.723c-.554-.385-1.117-.749-1.676-1.123l-31.398 62.702c-.593 1.185-1.805 1.933-3.13 1.933h-29.952l-2.337 25 43.451-10 29.811-59.532c3.322-6.634 1.327-14.75-4.769-18.98z" fill="#e7f6f9"/><path d="m259.475 10.025c-35.534 3.57-70.423 19.194-95.715 37.73-5.91 4.331-7.845 12.284-4.564 18.836l22.356 44.645 87.924 10z" fill="#f8fdff"/><path d="m266.592 9.474c-2.374.128-4.747.313-7.117.551v97.711c0 1.933-1.567 3.5-3.5 3.5h-74.424l7.511 15 46.802 10 38.611-10v-109.267c0-4.292-3.597-7.727-7.883-7.495z" fill="#e7f6f9"/><path d="m244.111 415.211c4.341-18.09 25.364-131.357 25.364-268.975l-80.412 10s-16.564 3.382-22.086 6.977c-78.009 50.788-140.11 142.825-160.142 174.663 3.615 28.247 102.766 78.148 233.819 80.015 1.636.023 3.075-1.089 3.457-2.68z" fill="#f8fdff"/><path d="m259.475 156.236c0 137.618-18.023 233.885-22.364 251.975-.382 1.591-1.821 2.703-3.457 2.68-122.012-1.739-193.624-43.54-226.819-73.015-.15.238-.305.484-.451.716-3.963 6.319-2.665 14.58 3.026 19.402 23.553 19.956 93.401 66.582 233.016 67.9 3.558.033 6.658-2.423 7.417-5.9 5.33-24.404 24.628-122.507 24.628-263.758l-14.997-10v10z" fill="#e7f6f9"/><path d="m141.969 318.054c-.808 0-1.629-.131-2.435-.408-3.918-1.345-6.004-5.611-4.659-9.528 26.663-77.684 75.393-147.58 80.861-155.294 2.395-3.38 7.076-4.177 10.456-1.781 3.379 2.396 4.177 7.077 1.781 10.456-5.341 7.534-52.929 75.791-78.911 151.489-1.067 3.11-3.978 5.066-7.093 5.066z" fill="#e7f6f9"/><path d="m485.646 343.801c-34.937-58.329-117.418-159.724-177.721-187.565l-18.5-15-14.954 15c48.573 119.695 81.015 209.214 92.697 242.107 10.097 10.523 90.311-22.237 117.974-50.298 1.119-1.135 1.323-2.877.504-4.244z" fill="#f8fdff"/><path d="m490.603 338.591c-19.546-31.162-81.999-124.21-160.592-175.378-5.522-3.595-22.086-6.977-22.086-6.977 48.774 30.341 132.783 129.236 167.721 187.565.819 1.367.615 3.109-.504 4.245-7.775 7.887-39.664 31.203-107.974 50.298 1.013 2.851 1.871 5.281 2.568 7.264 1.295 3.681 5.203 5.764 8.975 4.766 59.558-15.76 93.78-39.592 108.892-52.401 5.681-4.816 6.957-13.073 3-19.382z" fill="#e7f6f9"/><path d="m292.926 126.236h-18.455c-5.188-8.964-14.874-15-25.977-15-11.102 0-20.789 6.036-25.977 15h-33.455v15l110.863 7z" fill="#87a0af"/><path d="m307.926 126.236h-15v11.5c0 1.933-1.567 3.5-3.5 3.5h-100.364v15h33.455c5.188 8.964 14.874 15 25.977 15 11.102 0 20.789-6.036 25.977-15h33.455z" fill="#738c96"/><path d="m248.494 178.736c-20.678 0-37.5-16.822-37.5-37.5s16.822-37.5 37.5-37.5 37.5 16.822 37.5 37.5-16.822 37.5-37.5 37.5zm0-60c-12.407 0-22.5 10.093-22.5 22.5s10.093 22.5 22.5 22.5 22.5-10.093 22.5-22.5-10.093-22.5-22.5-22.5z" fill="#edc472"/><path d="m270.994 148.736h-22.5c-4.142 0-7.5-3.358-7.5-7.5s3.358-7.5 7.5-7.5h22.5c4.142 0 7.5 3.358 7.5 7.5s-3.358 7.5-7.5 7.5z" fill="#f3d69e"/></g></svg>