<svg id="Capa_1" enable-background="new 0 0 497 497" height="512" viewBox="0 0 497 497" width="512" xmlns="http://www.w3.org/2000/svg"><g><path d="m365.947 0h-70.872l-46.244 20-31.244-20h-98.372c-4.142 0-7.5 3.358-7.5 7.5v163.073l264.233 10z" fill="#e7f6f9"/><path d="m378.447 0h-12.5v170.573h-70.872v-170.573h-15l-31.244 20v150.573h-137.116v25h274.233v-188.073c-.001-4.142-3.359-7.5-7.501-7.5z" fill="#d0eef4"/><path d="m265.075 170.573h30v25h-30z" fill="#99d2e2"/><path d="m97.398 256.478h302.039l-.077-22-10.232-7.5h-299.227v15.067c.036 4.111 3.377 14.433 7.497 14.433z" fill="#e3a76f"/><path d="m389.793 226.978-1.768 7.5s.008 5.942.047 11.475c.013 1.943-1.557 3.525-3.5 3.525h-286.509c-4.12 0-7.461-3.322-7.497-7.433v14.933c0 4.142 3.358 7.5 7.5 7.5h301.53c4.142 0 7.5-3.358 7.5-7.5v-30z" fill="#c48958"/><path d="m136.106 487h221.62l-10-53.945h-219.12v36.445c0 4.142 3.358 17.5 7.5 17.5z" fill="#e3a76f"/><path d="m348.391 433.055v40.445c0 1.933-1.567 3.5-3.5 3.5h-208.12c-4.142 0-7.5-3.358-7.5-7.5v20c0 4.142 3.358 7.5 7.5 7.5h224.114c4.142 0 7.5-3.358 7.5-7.5v-56.445z" fill="#c48958"/><path d="m403.093 227.273-37.146-41.7h-254.232l-20.255 37.868c-.668 1.249-.943 2.563-.891 3.832.156 3.807 3.255 7.205 7.504 7.205h87.761l-56.269 196.513c-.199.693-.293 1.386-.294 2.064-.008 4.009 3.241 7.5 7.505 7.5h211.615l-36.563-206.077h81.198z" fill="#f3d69e"/><g fill="#edc472"><path d="m348.391 440.555h12.495c4.263 0 7.512-3.491 7.505-7.5-.001-.678-.096-1.371-.294-2.064l-56.269-196.513h-15.41c-2.31 0-3.987 2.199-3.375 4.426z"/><path d="m406.202 223.441-20.255-37.867h-20l22.078 48.905h5 6.564c4.249 0 7.348-3.398 7.504-7.205.052-1.27-.223-2.584-.891-3.833z"/><path d="m295.075 185.573h-25l10 15z"/></g><path d="m265.075 0h-47.488v185.573l54.488 7z" fill="#f8fdff"/><path d="m265.075 0v185.573h-47.488v11.5c0 1.933 1.567 3.5 3.5 3.5h55.488c1.933 0 3.5-1.567 3.5-3.5v-197.073z" fill="#e7f6f9"/></g></svg>