<svg id="Capa_1" enable-background="new 0 0 504.5 504.5" height="512" viewBox="0 0 504.5 504.5" width="512" xmlns="http://www.w3.org/2000/svg"><g><path d="m275.493 220.797v-13.927h-7.5c-11.348 12.439-23.485 22.353-35.79 29.381v12.656h7.993c12.185-7.036 24.106-16.495 35.297-28.11z" fill="#da8bc1"/><path d="m190.548 248.5c-12.732 0-23.119-5.633-29.247-15.861-13.224-22.073-6.326-61.802 18.925-108.999 14.659-27.398 36.742-77.546 19.948-105.577-8.944-14.929-25.584-18.063-37.967-18.063-42.679 0-75.81 36.277-101.285 110.904-1.338 3.92-35.022 110.431-31.101 111.769 3.919 1.34 43.958-103.003 45.297-106.923 12.665-37.098 27.377-64.297 43.729-80.842 13.238-13.396 27.422-19.908 43.36-19.908 12.547 0 20.757 3.523 25.1 10.772 9.351 15.607 1.759 49.548-20.306 90.792-28.208 52.724-34.802 96.684-18.566 123.784 8.815 14.713 24.165 23.152 42.114 23.152 16.256 0 33.19-5.09 49.647-14.593-2.906-4.032-5.572-8.255-7.993-12.656-13.975 7.981-28.164 12.249-41.655 12.249z" fill="#eaacde"/><path d="m308.462 265.034c-57.364-23.401-68.435-79.04-60.485-119.575 6.246-31.846 23.62-54.959 41.311-54.959 7.861 0 13.695 2.142 17.339 6.366 3.533 4.096 5.325 10.276 5.325 18.369 0 23.163-15.133 57.073-37.656 84.38-2.069 2.509-4.174 4.922-6.303 7.255 2.093 4.968 4.589 9.617 7.5 13.927 3.535-3.67 7-7.547 10.375-11.638 24.957-30.259 41.084-67.126 41.084-93.924 0-11.792-3.018-21.269-8.968-28.167-6.621-7.676-16.276-11.568-28.696-11.568-25.245 0-48.286 27.582-56.031 67.073-5.138 26.195-2.616 53.248 7.101 76.174 11.635 27.451 33.226 48.259 62.438 60.176.928.378 1.887.558 2.83.558 2.958 0 5.761-1.761 6.947-4.669 1.565-3.836-.276-8.214-4.111-9.778z" fill="#eaacde"/><path d="m14.497 287.33c-2.693 6.388-12.305 3.107-10.53-3.595 17.758-67.036 41.05-154.666 42.875-160.01 2.977-8.719 12.458-13.375 21.177-10.398s13.375 12.458 10.398 21.177c-1.824 5.345-36.979 88.925-63.92 152.826z" fill="#87a0af"/><path d="m393.205 183.818-63.207 63.206v11.506h-11.506l-71.275 71.275v11.506h-11.506l-50.34 50.34 72.873 72.874 111.917-95.434 95.917-112.4z" fill="#da8bc1"/><g fill="#d273b3"><path d="m258.244 464.525 16 16 46.744-46.744v-11.506h11.506l15.706-15.706v-11.506h11.507l10.286-10.286v-11.506h11.506l44.208-44.208v-11.506h11.506l10.295-10.296v-11.506h11.506l23.064-23.064-16-16z"/><path d="m314.183 365.223c1.564-3.835-.276-8.213-4.111-9.777l-62.854-25.641-11.506 11.506 68.694 28.023c3.833 1.563 8.212-.276 9.777-4.111z"/><path d="m256.747 391.375c-3.837-1.566-8.213.276-9.777 4.111s.276 8.213 4.111 9.777l47.179 19.246h11.506v-11.506z"/></g><path d="m298.26 424.51 22.728 9.271 11.506-11.506-22.728-9.272z" fill="#ca59a6"/><path d="m326.063 312.593c-1.564-3.835-5.94-5.676-9.777-4.111-3.835 1.564-5.676 5.942-4.111 9.777l26.754 65.582h11.506v-11.506z" fill="#d273b3"/><path d="m338.929 383.841 9.271 22.728 11.507-11.506-9.272-22.728z" fill="#ca59a6"/><path d="m351.039 298.603 51.939 21.188h11.507v-11.506l-71.373-29.116-13.114-32.145-11.506 11.506 42.229 103.518h11.506v-11.506z" fill="#d273b3"/><path d="m402.978 319.791 22.729 9.272 11.506-11.506-22.728-9.272z" fill="#ca59a6"/><path d="m360.721 362.048 9.272 22.729 11.506-11.506-9.272-22.729z" fill="#ca59a6"/><path d="m368.385 258.784c-3.837-1.564-8.212.276-9.777 4.111-1.564 3.835.276 8.213 4.111 9.777l62.061 25.317h11.506v-11.506z" fill="#d273b3"/><path d="m436.286 286.483-11.506 11.507 22.728 9.271 11.506-11.506z" fill="#ca59a6"/><path d="m263.709 492.274 15.768-15.768c2.968-2.968 4.767-5.981-6-16.748l-.001-.002-83.337-83.337c-2.968-2.968-7.78-2.968-10.748 0l-15.768 15.769c-2.968 2.968-2.968 7.78 0 10.748l83.339 83.339c10.767 10.766 13.779 8.967 16.747 5.999z" fill="#f8fdff"/><path d="m289.477 475.758-16-16c2.968 2.968 2.968 7.78 0 10.748l-15.768 15.768c-2.968 2.968-7.78 2.968-10.748 0l16 16c2.968 2.968 7.78 2.968 10.748 0l15.768-15.768c2.968-2.968 2.968-7.781 0-10.748z" fill="#e7f6f9"/><path d="m478.059 277.924 10.465-10.465c2.968-2.968 4.767-5.981-6-16.748l-.001-.002-83.337-83.337c-2.968-2.968-7.78-2.968-10.748 0l-10.465 10.465c-2.968 2.968-2.968 7.78 0 10.748l83.339 83.339c10.767 10.767 13.779 8.968 16.747 6z" fill="#f8fdff"/><path d="m498.524 266.711-16-16c2.968 2.968 2.968 7.78 0 10.748l-10.465 10.465c-2.968 2.968-7.78 2.968-10.748 0l16 16c2.968 2.968 7.78 2.968 10.748 0l10.465-10.465c2.968-2.968 2.968-7.781 0-10.748z" fill="#e7f6f9"/></g></svg>