<svg id="Capa_1" enable-background="new 0 0 497 497" height="512" viewBox="0 0 497 497" width="512" xmlns="http://www.w3.org/2000/svg"><g><path d="m328.688 458.093c80.28 0 158.312-33.323 158.312-58.122 0-28.666-10-111-10-111h-220s-20.544 54.293-18.142 105.33c5.876 10.706 10.966 29.979 13.682 34.927 9.659 17.595 35.179 28.865 76.148 28.865z" fill="#f3d69e"/><path d="m467 288.971v120c0 15.261-58.032 39.122-138.312 39.122-40.969 0-66.489-11.27-76.147-28.865-2.716-4.948-7.806-14.221-13.682-24.927.814 17.29 4.257 34.207 12.03 48.512 4.969 9.146 14.689 15.604 28.609 19.703l15.002 3.279c8.925 1.391 19.01 2.132 30.171 2.274l15-.117c9.745-.25 19.775-.833 29.829-1.773l15-1.672c10.203-1.326 20.295-3.036 30-5.154l15.001-3.699c10.897-3.022 21.05-6.634 30.002-10.878l15-8.524c13.942-9.603 22.497-21.599 22.497-36.28 0-29.295 0-111 0-111h-30z" fill="#edc472"/><path d="m471 408.971c0-5.381-4-19.5-4-19.5-4.143 0-7.5 3.358-7.5 7.5v22.562c0 5.348 11.5-7.325 11.5-10.562z" fill="#e3a76f"/><path d="m467 389.471v19.5c0 3.237-2.62 6.861-7.5 10.562v25.235c5.485-2.601 10.521-5.437 15-8.522v-39.276c0-4.142-3.357-7.499-7.5-7.499z" fill="#c48958"/><path d="m429.5 413.679c0-4.142-3.357-7.5-7.5-7.5s-7.5 3.358-7.5 7.5v24.424c0 4.71 15 .745 15-4.355z" fill="#e3a76f"/><path d="m414.5 438.103v21.246c5.122-1.118 10.134-2.352 15-3.701v-21.9c-4.636 1.528-9.647 2.989-15 4.355z" fill="#c48958"/><path d="m384.5 421.478c0-4.142-3.357-7.5-7.5-7.5s-7.5 3.358-7.5 7.5v24.499c0 4.676 15 2.681 15-1.901z" fill="#e3a76f"/><path d="m369.5 445.977v20.197c5.005-.468 10.015-1.024 15-1.672v-20.427c-4.84.721-9.846 1.358-15 1.902z" fill="#c48958"/><path d="m339.671 447.943v-23.793c0-4.142-3.357-7.5-7.5-7.5s-7.5 3.358-7.5 7.5v23.905c0 5.089 15 5.089 15-.112z" fill="#e3a76f"/><path d="m328.688 448.093c-1.357 0-2.694-.014-4.017-.039v20.012c1.325.017 2.662.026 4.017.026 3.61 0 7.277-.049 10.983-.144v-20.006c-3.612.099-7.273.151-10.983.151z" fill="#c48958"/><path d="m294.5 420.467c0-4.142-3.357-7.5-7.5-7.5s-7.5 3.358-7.5 7.5v20.028c0 6.053 15 9.16 15 4.376z" fill="#e3a76f"/><path d="m279.5 440.495v22.012c4.559 1.343 9.559 2.438 15 3.286v-20.922c-5.485-1.166-10.483-2.635-15-4.376z" fill="#c48958"/><path d="m497 288.971c0-49.047-95.479-68.122-168.312-68.122l-39.005 30 177.317 79.05c18.309-10.288 30-23.772 30-40.928z" fill="#da8bc1"/><path d="m453.783 327.093s13.217-11.944 13.217-38.122-76.897-38.122-135.555-38.122c-9.091 0-25.747 0-41.762 0l-73.313 56.387v19.858h237.413z" fill="#d273b3"/><path d="m408.968 332.989v-33.345c0-4.583-4.07-8.099-8.601-7.414-22.175 3.351-46.841 4.863-68.922 4.863-58.658 0-102.639-3.214-112.736-15.995v51.891z" fill="#e3a76f"/><path d="m331.445 327.093c-58.658 0-102.639-3.214-112.736-15.995l-2.339-3.862-27.661 21.275c12.536 22.839 67.146 28.583 139.979 28.583 47.357 0 104.279-8.069 138.312-27.194v-40.929c0 26.178-76.897 38.122-135.555 38.122z" fill="#edc472"/><path d="m374.055 188.446c1.35-2.338 2.653-4.666 3.909-6.982l6.794-13.398c4.627-9.826 8.295-19.323 10.885-28.279l3.447-15.334c2.314-15.049.796-27.876-5.282-37.191-28.456-14.553-64.004 5.522-90.746 51.841l-108.322 187.04s42.419 65.061 54.994 87.971c3.092-12.448 9.342-25.911 15.863-37.717v-10l7.458-3.015 15.085-26.128v-10l7.5-2.99 15.085-26.128v-10l7.5-2.99 15.085-26.128v-10l7.5-2.99 15.085-26.128v-10l7.5-2.99c.001-.002 8.641-14.967 10.66-18.464z" fill="#eaacde"/><path d="m307.912 153.444c26.742-46.319 59.274-74.977 85.895-66.181-2.701-4.14-6.284-7.6-10.852-10.238-32.417-18.716-67.422-9.64-67.422-9.64l-109.576 190.215c-13.151 22.778-26.721 53.651-17.248 70.91 9.658 17.595 62.179 114.302 62.179 114.302-4.15-7.561-3.877-17.736-1.154-28.698-12.575-22.91-44.994-81.971-44.994-81.971z" fill="#da8bc1"/><g fill="#d273b3"><path d="m365.035 104.796c-3.59-2.072-8.175-.842-10.245 2.745-2.071 3.587-.842 8.174 2.745 10.245l38.103 21.999c1.537-5.318 2.689-10.441 3.441-15.334z"/><path d="m338.645 150.104c-2.071 3.587-.842 8.174 2.745 10.245l36.568 21.113c2.451-4.52 4.716-8.992 6.792-13.399l-35.86-20.704c-3.588-2.073-8.174-.843-10.245 2.745z"/><path d="m249.084 306.045c-2.071 3.587-.842 8.174 2.745 10.245l36.311 20.964c2.371-4.106 4.883-8.457 7.5-12.99l-36.311-20.964c-3.589-2.072-8.175-.842-10.245 2.745z"/><path d="m226.499 345.163c-2.071 3.587-.842 8.174 2.745 10.245l36.355 20.99c.844-1.527 1.691-3.03 2.537-4.496.882-1.528 2.583-4.474 4.919-8.519l-36.311-20.964c-3.589-2.073-8.175-.844-10.245 2.744z"/><path d="m294.254 227.807c-2.071 3.587-.842 8.174 2.745 10.245l36.311 20.964c2.371-4.106 4.883-8.457 7.5-12.99l-36.311-20.964c-3.589-2.071-8.175-.841-10.245 2.745z"/><path d="m271.669 266.926c-2.071 3.587-.842 8.174 2.745 10.245l36.355 20.99c.844-1.527 1.691-3.03 2.537-4.496.882-1.528 2.583-4.474 4.919-8.519l-36.311-20.964c-3.589-2.073-8.175-.844-10.245 2.744z"/><path d="m316.839 188.689c-2.071 3.587-.842 8.174 2.745 10.245l36.311 20.964c2.371-4.106 4.883-8.457 7.5-12.99l-36.311-20.964c-3.589-2.072-8.175-.842-10.245 2.745z"/></g><path d="m22.5 383.347 96.129 55.5 162.283-304.404c24.57-42.556 48.345-69.012 72.296-74.594-21.996-12.699-50.738-29.293-66.381-38.325-27.63-15.953-63.204 13.468-92.043 63.419z" fill="#f3d69e"/><path d="m353.208 59.85c-25.27-2.609-54.726 25.038-79.296 67.594l-173.662 300.792 18.379 10.611 18.835-32.624v-10l7.5-2.99 14.915-25.833v-10l7.5-2.99 14.915-25.833v-10l7.5-2.99 14.915-25.833v-10l7.5-2.99 14.915-25.833v-10l7.5-2.99 14.915-25.833v-10l7.5-2.99 14.915-25.833v-10l7.5-2.99 11.461-19.85c1.338-2.318 2.691-4.591 4.056-6.818v-10l8.203-2.585c6.206-8.942 12.608-16.887 19.082-23.624v-10l11.55-.653c17.159-13.78 34.302-18.311 49.152-9.738-.002-.002-12.897-7.447-29.75-17.177z" fill="#edc472"/><path d="m119.085 395.612-17.932-10.353c-3.588-2.071-4.816-6.658-2.745-10.245s6.658-4.816 10.245-2.745l17.932 10.353c3.588 2.071 4.816 6.658 2.745 10.245s-6.657 4.817-10.245 2.745z" fill="#e3a76f"/><path d="m124.525 383.811h15v21.223h-15z" fill="#c48958" transform="matrix(.5 -.866 .866 .5 -275.568 311.547)"/><path d="m141.499 356.789-17.932-10.353c-3.588-2.071-4.816-6.658-2.745-10.245s6.658-4.816 10.245-2.745l17.933 10.353c3.588 2.071 4.816 6.658 2.745 10.245s-6.658 4.816-10.246 2.745z" fill="#e3a76f"/><path d="m146.939 344.988h15v21.223h-15z" fill="#c48958" transform="matrix(.5 -.866 .866 .5 -230.739 311.547)"/><path d="m163.914 317.966-17.932-10.353c-3.588-2.071-4.816-6.658-2.745-10.245s6.658-4.816 10.245-2.745l17.932 10.353c3.588 2.071 4.816 6.658 2.745 10.245s-6.657 4.816-10.245 2.745z" fill="#e3a76f"/><path d="m169.354 306.165h15v21.223h-15z" fill="#c48958" transform="matrix(.5 -.866 .866 .5 -185.91 311.548)"/><path d="m186.329 279.143-17.932-10.353c-3.588-2.071-4.816-6.658-2.745-10.245s6.658-4.816 10.245-2.745l17.932 10.353c3.588 2.071 4.816 6.658 2.745 10.245s-6.658 4.816-10.245 2.745z" fill="#e3a76f"/><path d="m191.768 267.342h15v21.223h-15z" fill="#c48958" transform="matrix(.5 -.866 .866 .5 -141.081 311.548)"/><path d="m208.743 240.32-17.932-10.353c-3.588-2.071-4.816-6.658-2.745-10.245s6.658-4.816 10.245-2.745l17.932 10.353c3.588 2.071 4.816 6.658 2.745 10.245s-6.657 4.816-10.245 2.745z" fill="#e3a76f"/><path d="m214.183 228.519h15v21.223h-15z" fill="#c48958" transform="matrix(.5 -.866 .866 .5 -96.251 311.548)"/><path d="m231.158 201.497-17.932-10.353c-3.588-2.071-4.816-6.658-2.745-10.245s6.658-4.816 10.245-2.745l17.932 10.353c3.588 2.071 4.816 6.658 2.745 10.245s-6.658 4.816-10.245 2.745z" fill="#e3a76f"/><path d="m236.598 189.696h15v21.223h-15z" fill="#c48958" transform="matrix(.5 -.866 .866 .5 -51.422 311.548)"/><path d="m253.572 162.673-17.932-10.353c-3.588-2.071-4.816-6.658-2.745-10.245s6.658-4.816 10.245-2.745l17.932 10.353c3.588 2.071 4.816 6.658 2.745 10.245-2.07 3.587-6.657 4.817-10.245 2.745z" fill="#e3a76f"/><path d="m259.012 150.873h15v21.223h-15z" fill="#c48958" transform="matrix(.5 -.866 .866 .5 -6.593 311.548)"/><path d="m276.538 122.984-17.97-10.375c-3.588-2.071-4.816-6.658-2.745-10.245s6.658-4.816 10.245-2.745l18.547 10.708c3.588 2.071 4.201 6.303 2.13 9.89-2.072 3.587-6.62 4.839-10.207 2.767z" fill="#e3a76f"/><path d="m276.541 122.986 18.428 10.639c2.688-4.383 5.426-8.582 8.204-12.584l-18.558-10.715c-2.735 4.037-5.431 8.258-8.074 12.66z" fill="#c48958"/><path d="m303.31 86.48-15.568-8.988c-3.588-2.071-4.816-6.658-2.745-10.245s6.658-4.816 10.245-2.745l19.294 11.14c3.588 2.071 3.454 5.871 1.383 9.458s-9.022 3.451-12.609 1.38z" fill="#e3a76f"/><path d="m303.312 86.481 18.942 10.936c3.834-3.99 7.693-7.553 11.552-10.651l-19.258-11.119c-3.757 3.194-7.51 6.81-11.236 10.834z" fill="#c48958"/><path d="m22.5 383.347-15.52 26.881 77.75 54.889 18.421-41.906c-22.607-19.35-54.954-35.798-80.651-39.864z" fill="#f8fdff"/><path d="m103.151 423.211-16.671 28.875c-.966 1.674-3.107 2.248-4.781 1.281l-74.719-43.139-5.974 10.348c-2.071 3.587-.842 8.174 2.745 10.245l83.138 48c3.587 2.071 8.174.842 10.245-2.745l21.494-37.229c-4.289-5.298-9.554-10.565-15.477-15.636z" fill="#e7f6f9"/></g></svg>