<svg id="Capa_1" enable-background="new 0 0 504.502 504.502" height="512" viewBox="0 0 504.502 504.502" width="512" xmlns="http://www.w3.org/2000/svg"><g><path d="m256.272 179.838c0-17.958-6.421-39.764-26.032-59.375-13.752-9.468-30.407-15.022-48.364-15.022-47.169 0-85.408 38.238-85.408 85.408 0 17.958 5.554 34.613 15.022 48.364 17.362 17.362 41.417 26.032 59.375 26.032 47.168 0 85.407-38.238 85.407-85.407z" fill="#edc472"/><g fill="#e3a76f"><path d="m230.239 120.462c9.468 13.752 15.022 30.407 15.022 48.365 0 47.169-38.238 85.408-85.408 85.408-17.958 0-34.613-5.554-48.365-15.022 15.4 22.369 41.175 37.043 70.386 37.043 47.169 0 85.408-38.238 85.408-85.408 0-29.211-14.674-54.985-37.043-70.386z"/><path d="m181.875 71.195c-4.143 0-7.5-3.358-7.5-7.5v-56.193c0-4.142 3.357-7.5 7.5-7.5s7.5 3.358 7.5 7.5v56.193c0 4.142-3.358 7.5-7.5 7.5z"/><path d="m181.875 381.695c-4.143 0-7.5-3.358-7.5-7.5v-56.193c0-4.142 3.357-7.5 7.5-7.5s7.5 3.358 7.5 7.5v56.193c0 4.142-3.358 7.5-7.5 7.5z"/><path d="m68.078 153.873c-1.28 3.94-5.511 6.095-9.451 4.815l-53.443-17.364c-3.939-1.28-6.095-5.511-4.815-9.451s5.511-6.095 9.451-4.815l53.443 17.365c3.939 1.28 6.095 5.511 4.815 9.45z"/><path d="m363.381 249.823c-1.28 3.94-5.511 6.095-9.451 4.815l-53.443-17.365c-3.939-1.28-6.095-5.511-4.815-9.451s5.511-6.095 9.451-4.815l53.443 17.365c3.939 1.28 6.095 5.511 4.815 9.451z"/><path d="m111.545 287.65c3.351 2.435 4.094 7.125 1.659 10.476l-33.03 45.461c-2.435 3.351-7.125 4.094-10.476 1.659s-4.094-7.125-1.659-10.476l33.03-45.461c2.434-3.351 7.124-4.094 10.476-1.659z"/><path d="m294.052 36.45c3.351 2.435 4.094 7.125 1.659 10.476l-33.03 45.461c-2.435 3.351-7.125 4.094-10.476 1.659s-4.094-7.125-1.659-10.476l33.03-45.461c2.434-3.351 7.124-4.094 10.476-1.659z"/><path d="m252.205 287.65c3.351-2.435 8.041-1.692 10.476 1.659l33.03 45.461c2.435 3.351 1.692 8.041-1.659 10.476s-8.041 1.692-10.476-1.659l-33.03-45.461c-2.435-3.351-1.692-8.041 1.659-10.476z"/><path d="m69.698 36.45c3.351-2.435 8.041-1.692 10.476 1.659l33.03 45.461c2.435 3.351 1.692 8.041-1.659 10.476s-8.041 1.692-10.476-1.659l-33.03-45.461c-2.435-3.351-1.692-8.041 1.659-10.476z"/><path d="m295.672 153.873c-1.28-3.94.876-8.171 4.815-9.451l53.443-17.365c3.939-1.28 8.17.875 9.451 4.815 1.28 3.94-.876 8.171-4.815 9.451l-53.443 17.365c-3.94 1.281-8.171-.875-9.451-4.815z"/><path d="m.369 249.823c-1.28-3.94.876-8.171 4.815-9.451l53.443-17.365c3.939-1.28 8.17.875 9.451 4.815 1.28 3.94-.876 8.171-4.815 9.451l-53.443 17.365c-3.94 1.28-8.171-.875-9.451-4.815z"/></g><path d="m259.207 479.416c28.8-7.717 58.558-36.384 58.558-56.198-17.695-6.325-47.238-12.893-70.292-6.716-31.576 8.461-45.677 39.412-47.262 48.182 11.491 11.491 37.722 20.433 58.996 14.732z" fill="#6bbdd5"/><path d="m333.169 431.007c-.366-1.365-6.328-4.545-15.404-7.789-8.147 12.49-35.758 42.482-64.558 50.198-21.274 5.7-40.769-1.407-52.996-8.732-.166.917-.196 1.593-.094 1.974 1.078 4.025 31.213 29.104 66.09 19.758 34.877-9.345 68.04-51.384 66.962-55.409z" fill="#5595a2"/><path d="m402.499 381.097c-5.289-19.74-23.171-50.579-34.285-50.579-18.142 0-37.695 19.553-37.695 37.695 0 11.114 30.839 28.996 50.579 34.285z" fill="#eaacde"/><path d="m406.764 493.51c8.145-4.703 8.973-45.878.445-56.881l-18.277-4.897c-14.45 14.45-32.217 45.356-26.66 54.981 8.766 8.767 28.78 15.869 44.492 6.797z" fill="#eaacde"/><path d="m418.166 439.565-10.957-2.936c2.999 19.925 1.7 46.178-6.445 50.881-15.712 9.071-32.248 4.184-38.492-.797 9.071 15.712 35.781 22.869 51.492 13.797 9.625-5.557 9.691-41.205 4.402-60.945z" fill="#da8bc1"/><path d="m484.146 446.449c0-1.166-1.248-5.353-7.987-10.7-10.681-7.556-25.414-14.589-36.592-17.584l-21.401 21.401c2.995 11.178 10.029 25.911 17.584 36.592 4.852 5.561 9.535 7.987 10.7 7.987 18.143-.001 37.696-19.553 37.696-37.696z" fill="#eaacde"/><path d="m476.159 435.749c.63 1.292.987 2.535.987 3.7 0 18.142-19.552 37.695-37.695 37.695-1.165 0-2.408-.357-3.7-.987 5.787 8.181 11.88 13.987 16.7 13.987 18.143 0 37.695-19.553 37.695-37.695 0-4.82-5.806-10.913-13.987-16.7z" fill="#da8bc1"/><path d="m384.305 414.464-3.206-11.966c-19.74-5.289-55.388-5.223-60.945 4.402-6.285 10.887-4.775 27.05 1.969 38.97 11.828 12.522 66.809-14.138 62.182-31.406z" fill="#eaacde"/><path d="m384.305 414.464c-15.216 13.985-51.253 34.635-62.182 31.406 2.989 5.283 7.003 9.736 11.828 12.522 9.625 5.557 40.531-12.21 54.981-26.66z" fill="#da8bc1"/><path d="m479.418 259.205c-7.717 28.8-36.384 58.558-56.198 58.558-6.325-17.695-12.893-47.238-6.716-70.292 8.461-31.576 39.412-45.677 48.182-47.262 11.491 11.491 20.433 37.722 14.732 58.996z" fill="#6bbdd5"/><path d="m431.009 333.167c-1.365-.366-4.545-6.328-7.789-15.404 12.49-8.147 42.482-35.758 50.198-64.558 5.7-21.274-1.407-40.769-8.732-52.996.917-.166 1.593-.196 1.974-.094 4.025 1.078 29.104 31.213 19.758 66.09-9.345 34.877-51.384 68.04-55.409 66.962z" fill="#5595a2"/><path d="m493.512 406.762c-4.703 8.145-45.878 8.973-56.881.445l-4.897-18.277c14.45-14.45 45.356-32.217 54.981-26.66 8.767 8.767 15.868 28.78 6.797 44.492z" fill="#eaacde"/><path d="m439.567 418.164-2.936-10.957c19.925 2.999 46.178 1.7 50.881-6.445 9.071-15.712 4.184-32.248-.797-38.492 15.712 9.071 22.869 35.781 13.797 51.492-5.557 9.625-41.205 9.692-60.945 4.402z" fill="#da8bc1"/><path d="m414.466 384.303-11.966-3.206c-5.289-19.74-5.223-55.388 4.402-60.945 10.887-6.285 27.05-4.775 38.97 1.969 12.522 11.828-14.138 66.809-31.406 62.182z" fill="#eaacde"/><path d="m414.466 384.303c13.985-15.216 34.635-51.253 31.406-62.182 5.283 2.989 9.736 7.003 12.522 11.828 5.557 9.625-12.21 40.531-26.66 54.981z" fill="#da8bc1"/><path d="m433.602 403.331c0-5.009-1.868-14.401-9.378-19.891-4.161-2.154-8.882-3.378-13.891-3.378-16.717 0-30.269 13.552-30.269 30.269 0 5.009 1.224 9.73 3.378 13.891 5.49 7.51 14.882 9.378 19.891 9.378 16.717 0 30.269-13.552 30.269-30.269z" fill="#f3d69e"/><path d="m424.224 383.44c2.154 4.161 3.378 8.882 3.378 13.891 0 16.717-13.552 30.269-30.269 30.269-5.009 0-9.73-1.224-13.891-3.378 5.035 9.726 15.183 16.378 26.891 16.378 16.717 0 30.269-13.552 30.269-30.269 0-11.708-6.652-21.856-16.378-26.891z" fill="#edc472"/></g></svg>