<svg id="Capa_1" enable-background="new 0 0 512.003 512.003" height="512" viewBox="0 0 512.003 512.003" width="512" xmlns="http://www.w3.org/2000/svg"><g><path d="m484.254 321.702c-10.182-11.042-24.191-18.53-42.022-21.535 0 0 9.988-59.814-40.128-95.064-13.246-7.61-29.078-13.806-47.089-18.333-5.236-1.316-10.093 3.239-9.175 8.56 4.977 28.835 13.79 53.928 13.79 53.928-40.331-13.958-86.758-11.342-118.987.058-5.114 1.809-6.638 8.346-2.868 12.247 26.599 27.528 59.31 50.537 77.32 59.202-17.953 10.365-62.93 50.236-84.419 88.305 26.675 7.31 85.91 7.898 130.151-9.095-1.349 17.905 1.401 51.876 9.617 85.279 37.289-14.559 61.825-61.115 74.577-88.095 0 0 12.607 14.679 30.263 30.616 27.777-24.848 28.222-83.448 8.97-106.073z" fill="#dc805a"/><g fill="#d66b3e"><path d="m230.676 409.068c-1.646 2.916-3.155 5.822-4.503 8.703-2.217 4.736.899 10.249 6.108 10.702 44.538 3.871 109.207-17.335 128.546-28.5.311-4.13 1.117-11.07 1.75-16.259.344-2.816-2.615-4.826-5.128-3.509-38.643 20.252-91.211 29.493-126.773 28.863z"/><path d="m423.368 311.058 18.864-10.891c14.703-39.464-1.97-73.141-40.128-95.064 29.25 28.922 38.401 67.756 21.264 105.955z"/><path d="m370.443 485.252c.929 3.778 1.927 7.55 2.998 11.289 1.492 5.212 7.915 7.155 12.036 3.633 25.987-22.211 51.467-61.11 59.544-103.017-4.525-5.271-8.525-10.521-11.394-14.453-1.768-2.424-5.579-1.657-6.238 1.27-10.443 46.396-31.784 80.007-56.946 101.278z"/><path d="m484.254 321.702c10.338 23.833 4.717 64.158-8.971 106.072 3.037 2.741 6.222 5.519 9.518 8.266 4.181 3.484 10.559 1.52 12.048-3.715 13.42-47.193 9.158-87.033-12.595-110.623z"/></g><path d="m397.725 333.368c-2.592 0-5.113-1.345-6.502-3.751-2.071-3.587-.842-8.174 2.745-10.245l44.514-25.7c38.721-22.355 54.25-51.166 59.129-62.515 1.637-3.806 6.049-5.562 9.853-3.928 3.805 1.636 5.564 6.047 3.928 9.853-6.795 15.806-24.329 45.863-65.409 69.581l-44.514 25.7c-1.182.681-2.471 1.005-3.744 1.005z" fill="#9a6a53"/><path d="m96.737 377.041c-4.142 0-7.5-3.358-7.5-7.5v-9.221l-7.985 4.61c-3.587 2.071-8.174.842-10.245-2.745s-.842-8.174 2.745-10.245l7.985-4.61-7.985-4.61c-3.587-2.071-4.816-6.658-2.745-10.245s6.657-4.817 10.245-2.745l7.985 4.61v-9.221c0-4.142 3.358-7.5 7.5-7.5s7.5 3.358 7.5 7.5v9.221l7.985-4.61c3.587-2.071 8.174-.842 10.245 2.745s.842 8.174-2.745 10.245l-7.985 4.61 7.985 4.61c3.587 2.071 4.816 6.658 2.745 10.245s-6.658 4.816-10.245 2.745l-7.985-4.61v9.221c0 4.142-3.358 7.5-7.5 7.5z" fill="#dcf2f6"/><path d="m40.3 261.239c-4.142 0-7.5-3.358-7.5-7.5v-24.882l-21.549 12.441c-3.587 2.072-8.174.842-10.245-2.745s-.842-8.174 2.745-10.245l21.549-12.442-21.549-12.441c-3.587-2.071-4.816-6.658-2.745-10.245 2.071-3.588 6.657-4.817 10.245-2.745l21.549 12.441v-24.882c0-4.142 3.358-7.5 7.5-7.5s7.5 3.358 7.5 7.5v24.882l21.549-12.441c3.587-2.07 8.174-.842 10.245 2.745s.842 8.174-2.745 10.245l-21.549 12.441 21.549 12.441c3.587 2.071 4.816 6.658 2.745 10.245s-6.658 4.817-10.245 2.745l-21.549-12.441v24.882c0 4.143-3.358 7.501-7.5 7.501z" fill="#bae6ef"/><path d="m293.146 106.385c-4.142 0-7.5-3.358-7.5-7.5v-9.221l-7.985 4.61c-3.587 2.071-8.174.842-10.245-2.745s-.842-8.174 2.745-10.245l7.985-4.611-7.985-4.61c-3.587-2.071-4.816-6.658-2.745-10.245 2.071-3.588 6.657-4.816 10.245-2.745l7.985 4.61v-9.221c0-4.142 3.358-7.5 7.5-7.5s7.5 3.358 7.5 7.5v9.221l7.985-4.61c3.586-2.071 8.174-.843 10.245 2.745 2.071 3.587.842 8.174-2.745 10.245l-7.985 4.61 7.985 4.611c3.587 2.071 4.816 6.658 2.745 10.245s-6.66 4.816-10.245 2.745l-7.985-4.61v9.221c0 4.142-3.358 7.5-7.5 7.5z" fill="#dcf2f6"/><path d="m78.024 100.224 43.301-25-5-47.113-29.551-17.061c-2.321-1.34-5.179-1.34-7.5 0l-35.801 20.67c-2.321 1.34-3.75 3.816-3.75 6.495v34.123z" fill="#e7f6f9"/><path d="m126.326 38.215c0-2.68-1.43-5.155-3.75-6.495l-6.25-3.608v34.123c0 2.68-1.43 5.155-3.75 6.495l-35.801 20.67c-2.32 1.34-5.18 1.34-7.5 0l-29.552-17.063v7.217c0 2.679 1.43 5.155 3.75 6.495l35.801 20.67c2.32 1.34 5.18 1.34 7.5 0l35.801-20.67c2.32-1.34 3.75-3.816 3.75-6.495v-41.339z" fill="#bae6ef"/><path d="m164.011 186.295 34.778-20.079-5-37.271-21.028-12.14c-2.321-1.34-5.179-1.34-7.5 0l-27.278 15.749c-2.32 1.34-3.75 3.816-3.75 6.495v24.281z" fill="#e7f6f9"/><path d="m200.039 132.553-6.25-3.608v24.281c0 2.679-1.43 5.155-3.75 6.495l-27.278 15.749c-2.32 1.34-5.18 1.34-7.5 0l-21.028-12.141v7.217c0 2.68 1.43 5.155 3.75 6.495l27.278 15.749c2.32 1.34 5.18 1.34 7.5 0l27.278-15.749c2.32-1.34 3.75-3.816 3.75-6.495v-31.498c0-2.68-1.43-5.156-3.75-6.495z" fill="#bae6ef"/></g></svg>