<svg id="Capa_1" enable-background="new 0 0 497 497" height="512" viewBox="0 0 497 497" width="512" xmlns="http://www.w3.org/2000/svg"><g><path d="m285.24 327.845-208.333 109.475 25.855 49.763c9.438-4.905 24.264-12.506 37.073-19.055 16.531-8.452 34.644-13.341 53.182-14.358l30.123-1.652c22.549-1.237 40.043-20.706 38.666-43.25-.849-13.903-8.915-25.259.399-41.286z" fill="#f3d69e"/><path d="m366.313 29.743-59.091 101.623 105.198-75.263z" fill="#f3d69e"/><path d="m373.516 43.809c6.367 3.65 15.847-.924 15.847-.924s.192 2.375 1.077 5.257l25.818-15.82v-10l-27.822-15.915c-3.588-2.052-8.157-.819-10.219 2.764-2.71 4.708-6.76 11.706-11.903 20.571.086.917 1.138 10.59 7.202 14.067z" fill="#dc805a"/><path d="m45.217 444.173c-1.64 8.514-.54 17.618 3.768 25.909 10.156 19.547 34.233 27.159 53.777 17.002l-36.778-70.786z" fill="#dc805a"/><path d="m151.061 372.766c-28.092 14.325-72.095 36.786-85.076 43.532l10.922 21.022c11.956-2.584 21.532-4.651 25.326-5.462 18.155-3.885 36.916-3.918 55.085-.102l29.524 6.201c22.1 4.642 44.037-9.636 48.541-31.767 2.778-13.649-2.075-26.706 11.069-39.776l38.787-38.568 150.238-258.524-42.107-24.11-86.148 86.154c-34.989 60.132-77.024 132.377-114.188 196.462-8.956 15.443-26.071 36.829-41.973 44.938z" fill="#edc472"/><path d="m396.572 57.027c6.367 3.65 15.847-.924 15.847-.924s.843 10.492 7.21 14.143c6.367 3.65 15.847-.924 15.847-.924l11.91-20.495c2.091-3.599.852-8.213-2.76-10.279l-28.368-16.226-25.818 25.82c.976 3.177 2.794 6.971 6.132 8.885z" fill="#d66b3e"/><path d="m65.985 416.298c-11.255 5.849-18.541 16.317-20.767 27.875 10.931-2.365 22.079-4.776 31.69-6.853z" fill="#d66b3e"/><path d="m421.402 47.218s-161.089 161.409-250.562 250.539c-12.647 12.598-28.653 21.273-46.112 24.989-30.841 6.565-79.158 16.87-93.443 20.026l12.392 66.1c61.337-12.602 74.47-10.933 92.64-7.117l29.524 6.201c22.1 4.642 44.037-9.636 48.541-31.767 2.778-13.649-2.075-26.706 11.069-39.776l252.527-233.15z" fill="#f4e2c1"/><path d="m477.98 103.264-16.588-16.432-240.939 239.582c-13.144 13.07-8.292 26.127-11.069 39.776-4.504 22.132-26.441 36.409-48.541 31.767l-29.524-6.201c-18.169-3.816-36.93-3.783-55.085.102-10.768 2.304-32.555 7.015-32.555 7.015v10l4.814 11.794s26.674-5.799 40.741-8.809c18.155-3.885 36.916-3.918 55.085-.102l29.524 6.201c22.1 4.642 44.037-9.636 48.541-31.767 2.778-13.649-2.075-26.706 11.069-39.776z" fill="#f3d69e"/><path d="m43.678 408.872v-10l-12.392-56.1c-21.507 4.752-35.09 26.041-30.339 47.551.159.718.339 1.427.534 2.127 6.469 13.156 29.722 19.179 42.197 16.422z" fill="#eaab8a"/><path d="m35.492 400.666c-12.475 2.756-24.868-.665-34.011-8.216 5.643 20.268 26.222 32.809 47.011 28.216l-4.814-21.794c-2.98.65-5.75 1.256-8.186 1.794z" fill="#dc805a"/><path d="m438.237 30.341c-3.785 3.796-9.52 9.546-16.834 16.877-.211 1.309-1.5 10.565 3.331 15.366 5.205 5.174 15.547 3.209 15.547 3.209s-1.902 10.353 3.304 15.527c5.205 5.174 15.547 3.209 15.547 3.209s-.384 2.102-.333 4.884l26.225-9.81c2.951-2.935 2.006-11.317-6.816-20.139l-29.382-29.147c-2.937-2.912-7.67-2.903-10.589.024z" fill="#eaab8a"/><path d="m477.98 103.264 16.808-16.714c2.951-2.935 2.949-7.712-.006-10.643l-16.576-16.444c2.955 2.931 2.958 7.709.006 10.643l-19.415 19.305c.063 3.394.775 7.8 3.636 10.643 5.206 5.175 15.547 3.21 15.547 3.21z" fill="#dc805a"/></g></svg>