<svg id="Capa_1" enable-background="new 0 0 494.704 494.704" height="512" viewBox="0 0 494.704 494.704" width="512" xmlns="http://www.w3.org/2000/svg"><g><path d="m428.954 118.721h-8.047l-72.63 195.609-165.019 83.043 41.856 71.644 181.725-92.903 34.406-59.59z" fill="#da8bc1"/><path d="m462.478 315.211-45.854 79.212c-25.431 5.985-42.858 12.729-64.422 25.071h-20l-38.479 33.43c-25.926 14.82-50.837 29.073-58.444 33.49l-10.164-17.398c13.933-8.016 36.642-21.032 58.429-33.514l58.495-33.403c18.388-10.107 37.997-19.454 59.103-24.449 1.968-.466 3.861-.982 5.697-1.536l34.406-59.59c-.442-1.971-.951-3.981-1.549-6.044-5.123-17.654-10.204-34.641-11.378-57.348l.149-67.205.488-67.205h21.109l-.35 67.205-10 35 9.65 32.205c-.194 28.608 7.174 41.615 13.114 62.079zm-41.571-196.49h-92.992c-.041 21.014-.09 45.098-.14 67.205l10 35-10.196 32.205c-.15 25.787-10.941 46.079-36.975 60.928v14l-58.497 19.4c-24.504 14.008-48.147 27.552-58.426 33.52l9.577 16.393c23.893-6.816 49.77-14.188 66.869-19.069l71.78-10.664c.917.003 1.824.001 2.76.01 41.264.418 65.081-27.759 63.557-65.946-.684-17.14-3.425-29.812-.781-48.573l16.324-67.205z" fill="#d273b3"/><path d="m390.79 329.042s13.044-8.913 50.454-12.518c11.85 29.795-3.78 56-34.406 59.59-15.108-30.767-16.048-47.072-16.048-47.072zm-140.663 38.599v10.664l33.417 57.199 48.657-16.009 9.838-17.395-20.132-34.459zm179.063-291.394-8.282 42.474h8.047l10.115-20.716zm10.523 144.68-11.247-35h-24.699l-16.324 37.205v30h40.874zm-225.743 264.523c2.457-.995 11.143-16.433 11.143-16.433l-41.856-71.644-33.818 9.659c-8.585 17.661-8.483 39.125 2.171 57.361 3.947 6.755 9.004 12.459 14.794 17.047 14.007 7.824 31.632 10.467 47.566 4.01z" fill="#5595a2"/><path d="m420.907 118.721h-92.992c.055-28.166.097-50.812.11-55.775.016-6.322 5.161-11.43 11.503-11.43h99.316c6.386 0 11.551 5.184 11.508 11.55l-.29 55.655h-21.109l.236-32.474zm7.154 123.145c-.027 3.922.07 7.659.256 11.266h21.046l.35-67.205h-21.247zm-97.172 166.505c-11.221 6.438-28.952 16.593-47.346 27.131l10.178 17.422c22.131-12.651 45.001-25.716 58.479-33.43l-10.162-17.395c-3.765 2.07-7.484 4.169-11.149 6.272zm-116.919 67.079c-14.976 8.716-32.119 10.364-47.565 5.991 19.164 15.185 46.449 17.993 68.873 4.974l-10.164-17.398c-4.985 2.868-8.853 5.1-11.144 6.433zm248.508-160.239c-7.828.236-14.872.7-21.233 1.313 6.995 31.169-5.453 50.858-34.406 59.59 2.762 5.624 5.994 11.729 9.784 18.309 40.16-9.451 56.511-42.499 45.855-79.212zm-288.797 65.769c-10.91 6.334-19.12 15.517-24.241 26.052 9.768-2.796 21.527-6.153 33.818-9.659zm216.728-142.674 13.359-52.379h-75.992c-.069 30.784-.141 57.734-.196 67.205h59.864c.639-4.537 1.589-9.426 2.965-14.826zm-134.317 138.294c23.047-6.586 41.13-9.03 65.815-8.96l-31.303-53.581c-14.364 8.193-36.769 20.979-58.497 33.4l18.02 30.844c2.129-.607 4.129-1.178 5.965-1.703z" fill="#488089"/><path d="m360.977 219.739c3.477-14.06 38.813-156.933 38.813-156.933h-114c-5.09 20.391-10.925 43.76-16.286 65.21l2.879 35.225-19.219 29.972c-6.343 24.998-21.696 42.12-50.542 50.316l-27.088 18.924-37.735-.473c-27.158 7.746-53.369 15.246-64.783 18.585l28.718 97.535s128.732-27.357 151.06-32.036 49.955-5.225 49.955-5.225l55.5-57.303c-.754-18.908-.75-49.737 2.728-63.797z" fill="#eaacde"/><path d="m404.388 91.986-20.757-5.107-16.49 65.16-16.184 65.235c-4.321 22.337-3.467 40.055-2.733 58.431.085 2.133.096 4.193.053 6.2l-47.712 49.623c-1.915.097-3.876.143-5.897.123-21.703-.22-42.997 4.15-63.287 9.55l-64.842 18.388c-24.183 6.895-49.381 14.083-64.805 18.511l5.752 19.536c8.447-2.471 36.059-10.356 64.793-18.551l29.969-19.981 34.844 1.496c23.903-6.831 42.445-9.214 68.575-8.949l63.557-65.946c-.849-21.286-4.877-35.673 2.185-63.4v-36l16.49-29.16z" fill="#da8bc1"/><path d="m348.277 281.905c0 37.246-10.075 49.623-47.712 49.623-7.273-33.471-4.268-49.521-4.268-49.521s14.802-5.535 51.98-.102zm-145.655-38.375c-15.916 4.522-40.742 11.583-64.823 18.451l28.74 97.609 35.709-.485 29.132-17.903zm-120.136 147.376c13.294 0 19.248-12.805 19.248-12.805l-28.718-97.535c-32.424 9.483-50.992 43.378-41.474 75.706 2.125 7.217 5.477 13.74 9.752 19.423 14.081 12.211 30.741 15.211 41.192 15.211zm216.814-382.22c-1.205 4.816-6.688 26.791-13.51 54.121l97.841 24.072 16.49-31.16v-34l-86.906-21.382c-6.158-1.515-12.38 2.215-13.915 8.349zm-46.136 184.527 97.794 24.061 16.184-28.146v-37.089l-97.638-24.022c-7.465 29.869-14.011 56.014-16.34 65.196z" fill="#6bbdd5"/><path d="m101.734 378.1 5.752 19.536c-25.185 7.366-51.316-2.169-66.192-21.942 14.05 8.218 31.33 10.874 48.192 5.942 2.526-.739 6.775-1.964 12.248-3.536zm117.358-33.5c-12.455 3.559-32.14 9.169-52.554 14.989l5.74 19.496c24.528-6.995 49.873-14.215 64.813-18.485l-5.712-19.399c-4.137 1.101-8.237 2.242-12.287 3.399zm81.472-13.072c1.33 6.123 3.003 12.825 5.103 20.123 41.264.418 65.081-27.759 63.557-65.946-7.663-1.642-14.619-2.875-20.947-3.8-.683 31.964-17.497 48.1-47.713 49.623zm109.081-307.466-9.524-2.343-16.49 65.16 20.757 5.107 13.656-53.961c1.571-6.17-2.199-12.437-8.399-13.963zm-56.236 182.244c-.965 3.79-1.767 7.432-2.451 10.968l20.451 5.032 16.49-65.16-20.757-5.107z" fill="#5595a2"/></g></svg>