<svg id="Capa_1" enable-background="new 0 0 504.5 504.5" height="512" viewBox="0 0 504.5 504.5" width="512" xmlns="http://www.w3.org/2000/svg"><g><path d="m133.248 290.66c6.702 9.75 19.936 11.899 29.56 4.801 7.055 9.514 20.352 11.198 29.7 3.761 7.514 9.18 20.871 10.242 29.833 2.373 8.003 8.785 21.394 9.16 29.91.839 8.516 8.321 21.907 7.945 29.91-.839 8.962 7.869 22.319 6.807 29.833-2.373 9.347 7.437 22.644 5.753 29.7-3.761 9.624 7.098 22.858 4.949 29.56-4.801 6.68-9.718 9.109-30.592 9.125-45.044l-113.129 15.848s-7.641 2-15 2-15-2-15-2l-133.129-18.65v33.752c5.893 10.226 18.933 20.402 29.127 14.094z" fill="#eaacde"/><path d="m133.248 298.66c6.702 9.75 19.936 11.899 29.56 4.801 7.055 9.514 20.352 11.198 29.7 3.761 7.514 9.18 20.871 10.242 29.833 2.373 8.003 8.785 21.394 9.16 29.91.839 8.516 8.321 21.907 7.945 29.91-.839 8.962 7.869 22.319 6.807 29.833-2.373 9.347 7.437 22.644 5.753 29.7-3.761 9.624 7.098 22.858 4.949 29.56-4.801 7.335 4.539 16.145 4.167 22.704-.209 4.081-2.723 6.422-7.404 6.422-12.31v-43.327l-20.002 2.802c-.016 14.452-2.445 28.326-9.125 38.044-6.702 9.75-19.936 11.899-29.56 4.801-7.055 9.514-20.352 11.198-29.7 3.761-7.514 9.18-20.871 10.242-29.833 2.373-8.003 8.785-21.394 9.16-29.91.839-8.516 8.321-21.907 7.945-29.91-.839-8.962 7.869-22.319 6.807-29.833-2.373-9.347 7.437-22.644 5.753-29.7-3.761-9.624 7.098-22.858 4.949-29.56-4.801-10.194 6.307-23.234 3.131-29.126-7.094v9.575c0 4.906 2.341 9.587 6.422 12.31 6.56 4.376 15.369 4.748 22.705.209z" fill="#da8bc1"/><path d="m361.122 20.207v-7.818h-20.836c-5.602 2.209-10.579 5.886-14.411 10.807l-136.069 174.724c-2.545 3.268-1.959 7.98 1.309 10.526 1.369 1.066 2.992 1.583 4.604 1.583 2.233 0 4.443-.994 5.922-2.892l136.067-174.725c5.885-7.557 14.526-11.723 23.414-12.205z" fill="#d273b3"/><path d="m352.873 10c-4.391 0-8.643.833-12.588 2.388 17.542.014 31.809 14.288 31.809 31.833v83.736c0 4.142 3.357 7.5 7.5 7.5s7.5-3.358 7.5-7.5v-83.735c.001-18.87-15.351-34.222-34.221-34.222z" fill="#da8bc1"/><path d="m331.122 10.206v-7.818h-20.836c-5.602 2.209-10.579 5.886-14.411 10.807l-136.069 174.725c-2.545 3.268-1.959 7.98 1.309 10.526 1.369 1.066 2.992 1.583 4.604 1.583 2.233 0 4.443-.994 5.922-2.892l136.067-174.725c5.885-7.557 14.526-11.724 23.414-12.206z" fill="#d273b3"/><path d="m322.873 0c-4.391 0-8.643.833-12.588 2.388 17.542.014 31.809 14.288 31.809 31.833v93.736c0 4.142 3.357 7.5 7.5 7.5s7.5-3.358 7.5-7.5v-93.736c.001-18.869-15.351-34.221-34.221-34.221z" fill="#da8bc1"/><path d="m143.379 20.207v-7.818h20.836c5.602 2.209 10.579 5.886 14.411 10.807l136.069 174.724c2.545 3.268 1.959 7.98-1.309 10.526-1.369 1.066-2.992 1.583-4.604 1.583-2.233 0-4.443-.994-5.922-2.892l-136.068-174.725c-5.885-7.557-14.526-11.723-23.413-12.205z" fill="#d273b3"/><path d="m151.627 10c4.391 0 8.643.833 12.588 2.388-17.542.014-31.809 14.288-31.809 31.833v83.736c0 4.142-3.357 7.5-7.5 7.5s-7.5-3.358-7.5-7.5v-83.735c0-18.87 15.351-34.222 34.221-34.222z" fill="#da8bc1"/><path d="m173.379 10.206v-7.818h20.836c5.602 2.209 10.579 5.886 14.411 10.807l136.069 174.725c2.545 3.268 1.959 7.98-1.309 10.526-1.369 1.066-2.992 1.583-4.604 1.583-2.233 0-4.443-.994-5.922-2.892l-136.068-174.725c-5.885-7.557-14.526-11.724-23.413-12.206z" fill="#d273b3"/><path d="m181.627 0c4.391 0 8.643.833 12.588 2.388-17.542.014-31.809 14.288-31.809 31.833v93.736c0 4.142-3.357 7.5-7.5 7.5s-7.5-3.358-7.5-7.5v-93.736c0-18.869 15.351-34.221 34.221-34.221z" fill="#da8bc1"/><path d="m228.427 241.773c-35.314-75.022-66.022-113.815-66.022-113.815h-45c-34.416 57.074-30.645 88.79-13.284 114.857 16.216 28.247 104.45 36.81 124.306-1.042z" fill="#da8bc1"/><path d="m104.122 242.814c21.736 32.636 84.114 39.319 133.129 18.65-2.904-6.819-5.853-13.383-8.823-19.691-48.826 20.322-100.913 13.276-124.306 1.041z" fill="#d273b3"/><path d="m391.691 236.035c9.259-21.992 8.688-69.111-27.096-108.077h-22.5s-31.989 40.093-67.78 117.585c36.236 28.694 105.797 17.995 117.376-9.508z" fill="#da8bc1"/><path d="m387.095 127.958h-22.5c23.259 38.572 27.463 75.284 18.204 97.277-11.579 27.503-63.063 32.796-108.484 20.308-2.375 5.143-4.735 10.45-7.065 15.922 49.015 20.669 111.392 13.986 133.129-18.65 17.361-26.068 21.132-57.783-13.284-114.857z" fill="#d273b3"/><path d="m231.637 490.381c7.73 2.826 32.766 2.826 40.496 0 29.03-46.531 79.728-89.642 136.219-106.093v-22h-312.204l-3.061 11.411c65.608 31.174 100.323 63.734 138.55 116.682z" fill="#da8bc1"/><path d="m412.396 377.362-4.044-15.074h-20l4.446 16.572c-54.379 20.028-100.776 59.803-125.935 101.521-6.533 2.826-27.692 2.826-34.226 0-32.309-52.948-81.16-86.998-139.551-106.682l-.983 3.663c-2.015 7.51 2.021 15.378 9.349 17.978 55.705 19.764 103.935 67.362 124.185 105.042 12.699 5.492 40.527 5.492 53.226 0 20.25-37.679 68.479-85.278 124.185-105.042 7.328-2.6 11.363-10.468 9.348-17.978z" fill="#d273b3"/><path d="m371.253 339.66c-9.443-7.128-22.677-4.979-29.56 4.801-9.204-7.455-22.501-5.771-29.7 3.761-8.871-7.877-22.227-6.814-29.833 2.373-8.483-8.322-21.874-7.946-29.91.839-8.036-8.785-21.427-9.161-29.91-.839-7.606-9.187-20.962-10.249-29.833-2.373-7.199-9.532-20.496-11.216-29.7-3.761-6.883-9.779-20.117-11.928-29.56-4.801-3.331-5.572-8.682-9.057-14.467-10.071-7.545-1.322-14.811 3.54-16.796 10.939l-5.837 21.759c32.354 8.68 94.49 19.146 156.102 19.146 51.214 0 102.774-7.234 137.306-14.659v-20l-9.474-15.313c-3.519 1.749-6.621 4.507-8.828 8.199z" fill="#eaacde"/><path d="m408.352 362.288-5.834-21.745c-1.984-7.395-9.244-12.267-16.785-10.94-1.953.344-3.857.969-5.652 1.86l9.474 35.313c7.012-1.509 13.337-3.024 18.797-4.488z" fill="#da8bc1"/></g></svg>