<svg id="Capa_1" enable-background="new 0 0 497 497" height="512" viewBox="0 0 497 497" width="512" xmlns="http://www.w3.org/2000/svg"><g><path d="m342.287 253.169c0-24.871 2.698-69.866 11.983-99.444l-13.051-28.971h-185.438l-25.731 57.12c1.982 6.692 4.009 13.861 5.899 21.102l3.666 5v10c3.007 13.321 5.1 25.924 5.1 35.194 0 30.217-9.87 62.936-27.323 108.49l43.697 27.806h172.671s25.766-18.386 34.607-24.364c-16.746-44.033-26.08-79.929-26.08-111.933z" fill="#87a0af"/><path d="m379.609 361.659c-17.453-45.554-27.323-78.273-27.323-108.49 0-9.271 2.093-21.873 5.1-35.194v-10l3.666-5c1.89-7.241 3.917-14.409 5.899-21.102l-12.68-28.149c-9.285 29.578-21.983 74.573-21.983 99.444 0 32.004 9.334 67.9 26.08 111.932-8.841 5.979-16.99 12.168-24.607 18.67l-172.672 5.694c-13.6-11.291-28.215-20.775-43.697-27.806-2.673 6.976.169 14.901 6.715 18.499 12.133 6.668 22.539 13.637 32.132 21.868l184.525-.001c9.592-8.23 19.998-15.199 32.131-21.867 6.545-3.597 9.386-11.523 6.714-18.498z" fill="#738c96"/><path d="m194.714 253.169c0 36.53-12.165 79.945-33.627 136.296 0 0 43.734 46.682 60.799 103.416h53.226c11.956-56.733 58.647-109.11 58.647-109.11-20.12-53.596-31.473-95.312-31.473-130.601 0-39.2 31.549-128.415 31.549-128.415h7.382l-22.227-49.347c-30.408 47.578-110.571 47.578-140.979 0l-22.229 49.345h7.384c-.001.001 31.548 89.216 31.548 128.416z" fill="#f8fdff"/><path d="m264.168 473.418c-9.385 4.059-25.952 4.059-35.337 0-17.696-31.881-40.703-61.503-67.744-83.953-1.569 4.119-3.183 8.301-4.85 12.56 22.448 19.261 40.437 45.433 65.649 90.855 12.699 5.492 40.527 5.492 53.226 0 25.213-45.423 43.201-71.596 65.65-90.856-2.441-6.238-4.773-12.316-7.002-18.254-27.964 23.873-48.689 51.99-69.592 89.648z" fill="#e7f6f9"/><path d="m326.101 1.975-3.96-1.488c-4.966-1.867-10.255 1.879-10.142 7.183 1.592 74.365 19.272 119.012 40.225 152.646l15.978-18.866c-26.308-37.951-40.94-98.252-42.101-139.475z" fill="#edc472"/><path d="m374.741 139.356c-17.157-26.833-35.324-62.11-36.223-127.621-.042-3.084-1.969-5.833-4.856-6.918l-7.561-2.843c.127 63.764 12.262 105.389 30.433 136.658 1.061 1.827 1.274 4.021.624 6.031-1.507 4.658-3.184 9.948-4.932 15.651 4.789 7.686 9.748 14.798 14.726 21.557 3.663-12.37 7.172-23.115 9.375-29.682 1.442-4.298.857-9.011-1.586-12.833z" fill="#e3a76f"/><g fill="#edc472"><path d="m174.86.486-11.522 4.331c-2.889 1.086-4.814 3.838-4.856 6.924-.9 65.508-19.067 100.783-36.223 127.615-2.444 3.822-3.028 8.535-1.585 12.835 2.204 6.567 5.713 17.312 9.375 29.682 26.76-36.338 52.998-82.848 54.951-174.215.114-5.3-5.177-9.037-10.14-7.172z"/><path d="m135.949 202.975c1.308 5.01 2.548 10.054 3.665 15h50.467c-1.026-4.904-2.179-9.935-3.418-15z"/><path d="m336.921 217.975 3.42-15h-30.001c-1.239 5.065-2.392 10.096-3.418 15z"/></g><path d="m357.387 217.975c1.116-4.946 2.357-9.99 3.665-15h-20.71c-1.239 5.065-2.394 10.096-3.42 15z" fill="#e3a76f"/><path d="m310.34 202.975h-123.678l3.418 15h116.841z" fill="#f3d69e"/></g></svg>