<svg id="Capa_1" enable-background="new 0 0 491.087 491.087" height="512" viewBox="0 0 491.087 491.087" width="512" xmlns="http://www.w3.org/2000/svg"><g><path d="m127.123 22.965c-4.142 0-7.5 3.358-7.5 7.5v47.5h324.437l-10-55z" fill="#f8fdff"/><path d="m446.56 22.965h-12.5v55h20v-47.5c0-4.142-3.358-7.5-7.5-7.5z" fill="#dcf2f6"/><path d="m311.267 271.687 9.673 31.278 27.637 45.834 124.841-17.585c4.099-.593 6.942-4.397 6.349-8.497l-45.707-254.752h-314.437l-36.329 251.058 137.99 29.099c3.67.531 7.178-1.7 8.252-5.25l30.472-93.358h51.259z" fill="#6bbdd5"/><path d="m490.931 322.763-36.871-254.798h-20l35.706 246.752c.593 4.099-2.249 7.904-6.349 8.497l-100.353 14.522v-27.27c0-4.142-3.358-7.5-7.5-7.5h-34.624l13.339 44.734c2.149 7.099 9.164 11.561 16.505 10.499l127.45-18.443c8.198-1.186 13.883-8.795 12.697-16.993z" fill="#5595a2"/><path d="m346.665 165.242c0 55.372-69.804 81.833-111.695 65.154 3.541 6.705 8.109 13.048 13.799 19.128l-25.233 83.349c-1.075 3.549-4.582 5.781-8.252 5.25l-131.99-19.099-.541 3.74c-1.186 8.199 4.498 15.807 12.697 16.994l127.45 18.443c7.341 1.062 14.356-3.4 16.505-10.499l23.012-76.013c.03-.1.061-.2.092-.3v-12.4h8.392c2.537-2.004 5.413-3.452 8.439-4.345l7.502-10 7.502 10c3.026.894 5.901 2.342 8.439 4.345h5.128v5.545c35.131-26.165 45.018-56.003 38.754-99.292z" fill="#5595a2"/><path d="m234.441 166.316 14.232-98.351h-15.157l-13.921 96.203c-4.615 31.892-.543 56.682 13.469 77.66h12.622v-8.219c-12.013-18.003-15.305-39.232-11.245-67.293z" fill="#dcf2f6"/><path d="m270.91 259c-.244-.177-.466-.339-.657-.482-10.469-7.797-18.592-15.956-24.567-24.91l-12.622 8.219c6.929 10.373 16.276 19.819 28.229 28.721.124.092.568.396 1.226.842 1.677-5.325 4.67-9.452 8.391-12.39z" fill="#bae6ef"/><path d="m354.087 164.168-13.921-96.203h-15.156l14.232 98.351c1.309 9.048 1.851 17.384 1.587 25.133l7.597 6 7.414-6c.241-8.499-.345-17.555-1.753-27.281z" fill="#dcf2f6"/><path d="m303.43 258.518c-.191.142-.413.305-.657.482 3.721 2.938 6.714 7.065 8.391 12.391.659-.446 1.103-.75 1.226-.842 28.753-21.414 42.506-45.949 43.449-79.099h-15.01c-.961 28.235-12.669 48.651-37.399 67.068z" fill="#bae6ef"/><path d="m286.842 211.507c-4.142 0-7.5 3.358-7.5 7.5v14.837h7.5l7.5-3.887v-10.95c0-4.143-3.358-7.5-7.5-7.5z" fill="#5595a2"/><path d="m279.342 254.649c2.435-.719 4.967-1.084 7.5-1.084s5.065.365 7.5 1.084v-24.692c-4.906 1.684-9.939 2.988-15 3.887z" fill="#488089"/><path d="m16.127 282.965c-4.142 0-7.5 3.358-7.5 7.5v47.5h324.437l-10-55z" fill="#f8fdff"/><path d="m335.564 282.965h-12.5v55h20v-47.5c0-4.142-3.357-7.5-7.5-7.5z" fill="#dcf2f6"/><path d="m175.846 458.122c23.113 0 37.773-13.295 61.854-28.847 20.789-13.426 61.572-30.546 103.805-36.984l-18.44-64.326h-314.438l-7.747 53.536c59.037 16.543 92.636 34.551 113.112 47.774 24.081 15.552 38.741 28.847 61.854 28.847z" fill="#87a0af"/><path d="m351.536 386.507-8.471-58.542h-20l7.945 54.909c.274 1.895-1.03 3.647-2.919 3.956-40.483 6.612-70.166 19.384-90.391 32.445-24.081 15.552-38.74 28.847-61.854 28.847-23.113 0-37.773-13.295-61.854-28.847-20.475-13.224-51.432-28.075-113.111-37.774l-.724 5.006c-1.158 8.003 4.242 15.489 12.203 16.911 47.369 8.462 74.98 20.091 93.984 31.159h8l6.568 9.257c20.16 13.504 34.119 24.288 54.935 24.288s34.775-10.784 54.935-24.288l5.875-8.852h8c19.024-11.189 46.729-22.999 94.677-31.565 7.959-1.421 13.36-8.907 12.202-16.91z" fill="#738c96"/><path d="m123.548 425.608 14.129-97.643h-15.156l-12.823 88.615 5.85 9.028z" fill="#dcf2f6"/><path d="m113.992 419.275c-1.38-.891-2.813-1.791-4.294-2.695l-2.663 18.405c2.453 1.443 4.769 2.876 6.958 4.289 2.394 1.546 4.693 3.069 6.918 4.56l2.637-18.226c-3.036-2.048-6.202-4.167-9.556-6.333z" fill="#bae6ef"/><path d="m241.996 416.596-12.825-88.631h-15.157l14.13 97.643h8z" fill="#dcf2f6"/><path d="m237.7 419.275c-3.354 2.166-6.519 4.285-9.556 6.333l2.637 18.226c2.226-1.491 4.524-3.013 6.918-4.56 2.189-1.414 4.505-2.847 6.958-4.289l-2.661-18.39c-1.475.891-2.91 1.785-4.296 2.68z" fill="#bae6ef"/></g></svg>