<svg id="Capa_1" enable-background="new 0 0 497 497" height="512" viewBox="0 0 497 497" width="512" xmlns="http://www.w3.org/2000/svg"><g><path d="m405.718 24.658h-326.936c-4.142 0-7.5 3.358-7.5 7.5v32.5l344.437 10z" fill="#f4e2c1"/><path d="m418.218 24.658h-12.5v36.5c0 1.933-1.567 3.5-3.5 3.5h-330.936v25h354.437v-57.5c-.001-4.142-3.358-7.5-7.501-7.5z" fill="#f3d69e"/><path d="m20.586 284.891s27.99 23.58 78.143 23.58c121.007 0 174.242-104.89 281.569-104.89h63.258l1.428-60.289c-3.826-26.906-19.265-53.634-39.265-63.634h-334.437l-10.892 14.461c-10.638 14.124-17.008 30.439-20.213 52.981z" fill="#f4e2c1"/><path d="m1.008 422.588 202.686 36.352 28.651-107.08-218.887-16.837z" fill="#6bbdd5"/><path d="m196.992 442.877c-.583 4.101-4.38 6.953-8.481 6.37l-187.503-26.659-.857 6.026c-1.166 8.202 4.537 15.796 12.739 16.962l187.195 26.615c8.202 1.166 15.796-4.537 16.962-12.739l15.297-107.591-22.17-1.705z" fill="#5595a2"/><path d="m485.022 431.334-26.586-123.09c-124.815 0-161.965 4.04-195.057 34.642l15.561 109.449z" fill="#6bbdd5"/><path d="m487.807 365.023s-11.201-44.826-29.371-56.779l15.468 108.795c.583 4.101-2.269 7.898-6.37 8.481l-188.594 26.814 1.012 7.118c1.166 8.202 8.76 13.905 16.962 12.739l187.195-26.615c8.202-1.166 13.905-8.76 12.739-16.962z" fill="#5595a2"/><path d="m13.458 335.023s50.981 30 125.271 30c25.892 0 48.976-3.06 70.412-7.595 0 0 17.773-51.481 19.603-56.783 4.557-13.201 19.696-14.954 26.571-3.568 1.14 1.252 1.965 2.902 2.258 4.963l5.807 40.845c38.451-11.727 74.439-23.733 116.918-23.733 39.806 0 66.109 10.472 82.733 21.408v-60l-19.476-76.979c-14.31-7.411-35.247-14.429-63.258-14.429-107.326 0-160.561 109.319-281.569 109.319-50.153 0-78.143-13.58-78.143-13.58z" fill="#f5fcff"/><path d="m467.282 220.662s-7.713-8.787-23.727-17.08l19.476 136.979c18.17 11.953 24.777 24.462 24.777 24.462z" fill="#dcf2f6"/><path d="m255.314 297.077c-4.86-19.984-34.854-19.267-37.9 2.158l-8.274 58.193c7.942-1.68 15.658-3.561 23.204-5.567l7.083-49.82c1.2-8.437 11.222-10.088 15.887-4.964z" fill="#dcf2f6"/><path d="m456.823 147.1c-3.205-22.542-9.575-38.857-20.213-52.981l-10.892-14.461h-20c13.925 18.488 25.439 36.728 29.265 63.634l8.572 60.289 23.727 17.08z" fill="#f3d69e"/><g><path d="m177.554 169.022c-.442 0-.891-.04-1.341-.121-4.076-.736-6.784-4.637-6.048-8.713 7.982-44.208 26.376-86.422 49.205-112.925 2.704-3.138 7.439-3.491 10.578-.788 3.138 2.704 3.491 7.439.788 10.578-21.158 24.562-38.282 64.114-45.809 105.8-.656 3.626-3.814 6.169-7.373 6.169z" fill="#5595a2"/></g><g><path d="m319.446 169.022c-3.559 0-6.717-2.543-7.372-6.169-7.526-41.687-24.651-81.238-45.809-105.8-2.703-3.139-2.351-7.874.788-10.578 3.139-2.703 7.874-2.35 10.578.788 22.829 26.503 41.223 68.718 49.205 112.925.736 4.076-1.972 7.977-6.048 8.713-.451.081-.9.121-1.342.121z" fill="#5595a2"/></g></g></svg>