<svg id="Capa_1" enable-background="new 0 0 496.861 496.861" height="512" viewBox="0 0 496.861 496.861" width="512" xmlns="http://www.w3.org/2000/svg"><g><path d="m357.446 0h-218.03c-8.284 0-15 6.715-15 14.999v.001l240.03 7z" fill="#f8fdff"/><path d="m372.446 40v-25c0-8.284-6.716-15-15-15v11.5c0 1.933-1.567 3.5-3.5 3.5h-229.53l-.001 25z" fill="#dcf2f6"/><path d="m248.431 25-7.5-10v-15h15v15z" fill="#dcf2f6"/><path d="m240.931 15h15v25h-15z" fill="#bae6ef"/><path d="m361.915 51.965c-3.261-14.739-21.22-21.965-38.721-21.965-65.236 0-98.799 0-149.527 0-17.501 0-35.459 7.226-38.721 21.965-1.814 8.2-78.686 417.395-78.686 417.395l73.936 14.897s86.871-281.009 91.781-296.892 26.452-18.451 37.079-3.63c1.629 1.635 2.933 3.727 3.718 6.292l17.015 55.621h10l-5.257 15.506 4.967 16.237h10l-5.257 15.506 4.967 16.236h10l-5.257 15.506 46.988 153.602 95.501-10.876c.002-.001-82.715-407.214-84.526-415.4z" fill="#87a0af"/><path d="m429.441 484.257 17.003-16.893-21.114-4.578-74.387 15.454 2.064 6.747c2.625 8.58 10.06 13.208 17.391 11.536z" fill="#738c96"/><path d="m126.464 496.523c7.331 1.672 14.766-2.956 17.391-11.536l49.052-160.348-5.256-15.506h10l4.967-16.236-5.256-15.506h10l4.967-16.237-5.256-15.506h10l17.015-55.621c3.544-11.585 17.611-13.678 24.97-6.292-9.062-20.703-40.071-19.722-47.015 2.977l-85.693 280.125c-1.353 4.423-5.186 6.809-8.965 5.947l-45.938-9.544-15.187 6.12 11.16 14.897z" fill="#738c96"/><g fill="#dcf2f6"><path d="m352.687 185.903c10.458-8.571 15.375-22.145 12.832-35.425-.779-4.068 1.887-7.998 5.956-8.777 4.071-.781 7.998 1.887 8.777 5.956 3.579 18.687-3.34 37.788-18.056 49.848l-77.662 63.648-4.743-15.506z"/><path d="m359.259 220.219c10.458-8.571 15.375-22.145 12.832-35.425-.779-4.068 1.887-7.998 5.956-8.777 4.071-.781 7.998 1.887 8.777 5.956 3.579 18.687-3.34 37.788-18.056 49.848l-74.523 61.076-4.745-15.507z"/><path d="m365.831 254.534c10.458-8.571 15.375-22.145 12.832-35.425-.779-4.068 1.887-7.998 5.956-8.777 4.071-.781 7.998 1.887 8.777 5.956 3.579 18.687-3.34 37.788-18.056 49.848l-71.384 58.503-4.743-15.506z"/><path d="m144.174 185.903c-10.458-8.571-15.375-22.145-12.832-35.425.779-4.068-1.887-7.998-5.956-8.777-4.071-.781-7.998 1.887-8.777 5.956-3.579 18.687 3.34 37.788 18.056 49.848l59.225 48.538h4.743v-15.506z"/></g><path d="m217.072 245.647-18.437-15.11-4.743 15.506 18.436 15.11z" fill="#bae6ef"/><path d="m137.603 220.219c-10.458-8.571-15.375-22.145-12.832-35.425.779-4.068-1.887-7.998-5.956-8.777-4.071-.781-7.998 1.887-8.777 5.956-3.579 18.687 3.34 37.788 18.056 49.848l56.086 45.966h4.743v-15.507z" fill="#dcf2f6"/><path d="m207.361 277.39-18.437-15.11-4.743 15.506 18.437 15.11z" fill="#bae6ef"/><path d="m131.031 254.534c-10.458-8.571-15.375-22.145-12.832-35.425.779-4.068-1.887-7.998-5.956-8.777-4.071-.781-7.998 1.887-8.777 5.956-3.579 18.687 3.34 37.788 18.056 49.848l52.948 43.393h4.743v-15.506z" fill="#dcf2f6"/><path d="m197.651 309.132-18.437-15.11-4.743 15.507 18.436 15.11z" fill="#bae6ef"/><path d="m346.652 51.965c.748 3.907 62.067 324.093 78.677 410.822l21.114 4.578-88.997-437.365c-11.588 0-19.308 0-34.251 0 17.5 0 22.11 14.93 23.457 21.965z" fill="#f8fdff"/><path d="m444.118 481.208c7.878-1.796 12.918-9.51 11.398-17.446l-83.07-433.762c-4.22 0-9.925 0-15 0l80.589 420.807c.941 4.916-2.18 9.694-7.06 10.806l-5.646 1.173 4.112 21.47z" fill="#dcf2f6"/><path d="m150.209 51.965c1.347-7.035 5.957-21.965 23.458-21.965-16.709 0-43.322 0-49.251 0l-81.823 427.247 13.667 12.113 15.185-6.119c16.483-86.067 78.015-407.362 78.764-411.276z" fill="#f8fdff"/><path d="m67.421 484.257s1.473-7.694 4.025-21.016l-28.852-5.994-1.248 6.515c-1.52 7.936 3.52 15.65 11.398 17.446z" fill="#dcf2f6"/><path d="m248.431 123.901c-4.142 0-7.5-3.358-7.5-7.5v-86.401h15v86.401c0 4.142-3.358 7.5-7.5 7.5z" fill="#738c96"/><path d="m275.957 95.502c-3.329 0-6.369-2.232-7.251-5.604-3.462-13.231-12.548-28.229-20.275-35.829-7.728 7.6-16.813 22.598-20.275 35.829-1.049 4.007-5.146 6.406-9.154 5.357-4.007-1.049-6.406-5.147-5.357-9.154 4.641-17.735 18.348-38.951 30.556-47.294 2.55-1.743 5.911-1.744 8.463 0 12.208 8.342 25.915 29.558 30.556 47.294 1.049 4.007-1.351 8.105-5.357 9.154-.638.167-1.278.247-1.906.247z" fill="#edc472"/><path d="m279.962 67.5c-10.474 0-21.128-6.423-31.531-13.43-10.404 7.007-21.058 13.43-31.531 13.43-12.407 0-22.5-10.093-22.5-22.5s10.093-22.5 22.5-22.5c10.474 0 21.127 6.423 31.531 13.43 10.403-7.007 21.058-13.43 31.531-13.43 12.406 0 22.5 10.093 22.5 22.5s-10.094 22.5-22.5 22.5zm-18.013-22.5c6.678 4.228 13.032 7.5 18.013 7.5 4.136 0 7.5-3.364 7.5-7.5s-3.364-7.5-7.5-7.5c-4.98 0-11.335 3.272-18.013 7.5zm-45.05-7.5c-4.136 0-7.5 3.364-7.5 7.5s3.364 7.5 7.5 7.5c4.98 0 11.334-3.273 18.013-7.5-6.678-4.227-13.033-7.5-18.013-7.5z" fill="#f3d69e"/></g></svg>