<svg id="Capa_1" enable-background="new 0 0 504.847 504.847" height="512" viewBox="0 0 504.847 504.847" width="512" xmlns="http://www.w3.org/2000/svg"><g><path d="m129.128 27.63c-.758 4.738-1.667 10.643-2.634 17.37l241.859 10c-2.583-17.988-14.753-40-14.753-40h-10.595l-7.5 10-7.5-10h-42.79l-32.793-7-32.793 7h-42.79l-7.5 10-7.5-10h-17.899c-7.372 0-13.647 5.351-14.812 12.63z" fill="#e3a76f"/><path d="m375.719 27.63c-1.165-7.279-7.44-12.63-14.812-12.63h-7.306s1.851 10.248 4.169 25.988c.311 2.112-1.327 4.012-3.462 4.012h-227.814c-.667 4.641-1.36 9.667-2.051 15l127.98 10 127.981-10c-1.694-13.064-3.403-24.363-4.685-32.37z" fill="#c48958"/><path d="m169.341 52.5-7.5-7.5v-30h15v30z" fill="#f3d69e"/><path d="m335.507 52.5-7.5-7.5v-30h15v30z" fill="#f3d69e"/><path d="m161.841 45h15v30h-15z" fill="#edc472"/><path d="m328.007 45h15v30h-15z" fill="#edc472"/><path d="m376.859 144.076c0-27.349-5.834-63.162-16.455-84.076h-75.188l-32.793 7-32.793-7h-95.188c-3.255 25.103-6.455 56.728-6.455 84.076v340.771l73.22 10 36.533-322.033c2.095-17.88 30.774-21.661 38.11-3.301.725 1.507 1.245 3.211 1.471 5.138l36.345 310.196 73.192 10c.001 0 .001-295.099.001-350.771z" fill="#f3d69e"/><g fill="#edc472"><path d="m360.404 60c3.255 25.103 6.455 56.727 6.455 84.076v333.275c0 4.142-3.358 7.497-7.5 7.497h-55.692l.778 6.636c.835 7.605 7.26 13.364 14.91 13.364h16.289l7.5-5 7.5 5h21.215c8.284 0 15-6.71 15-14.994 0-62.024 0-297.538 0-345.777 0-27.348-3.199-58.973-6.455-84.076h-20z"/><path d="m217.741 172.814-35.757 305.405c-.442 3.779-3.644 6.628-7.449 6.628h-56.547v5.006c0 8.281 6.713 14.994 14.994 14.994h21.221l7.5-5 7.5 5h16.29c7.651 0 14.076-5.758 14.911-13.364l37.123-316.832c1.845-15.746 22.398-17.45 28.325-5.138-6.085-25.529-44.861-24.44-48.111 3.301z"/><path d="m161.703 492.347-7.5-7.5v-340.347c0-4.142 3.357-7.5 7.5-7.5s7.5 3.358 7.5 7.5v340.347z"/></g><path d="m154.203 484.847h15v20h-15z" fill="#e3a76f"/><path d="m343.143 492.347 7.5-7.5v-340.347c0-4.142-3.357-7.5-7.5-7.5s-7.5 3.358-7.5 7.5v340.347z" fill="#edc472"/><path d="m335.643 484.847h15v20h-15z" fill="#e3a76f" transform="matrix(-1 0 0 -1 686.287 989.694)"/><path d="m237.424 139.531c-4.143 0-7.5-3.358-7.5-7.5v-61.2c0-4.142 3.357-7.5 7.5-7.5s7.5 3.358 7.5 7.5v61.2c0 4.142-3.358 7.5-7.5 7.5z" fill="#edc472"/><path d="m285.217 75h-65.586c-8.271 0-15-6.729-15-15v-45c0-8.271 6.729-15 15-15h65.586c8.271 0 15 6.729 15 15v45c0 8.271-6.729 15-15 15zm-65.586-60v45h65.586v-45z" fill="#dcf2f6"/><path d="m285.217 45h-31.95c-4.143 0-7.5-3.358-7.5-7.5s3.357-7.5 7.5-7.5h31.95c4.143 0 7.5 3.358 7.5 7.5s-3.358 7.5-7.5 7.5z" fill="#f5fcff"/></g></svg>