<svg id="Capa_1" enable-background="new 0 0 497 497" height="512" viewBox="0 0 497 497" width="512" xmlns="http://www.w3.org/2000/svg"><g><path d="m368.803 282.756c0-22.6 14.697-95.391 14.697-156.333 0-18.37-1.536-38.278-3.6-56.743l-55.589-69.68h-153.072l-64.188 70.372c-.008 0-.019 0-.027 0-2.026 18.27-3.524 37.91-3.524 56.051 0 60.941 14.697 133.732 14.697 156.333 0 15.511.002 193.982.002 193.982l105.301 10.262v-334.288c0-12.652 9.241-18.924 16.977-19.123 7.039-.181 16.296 6.438 19.633 13.358 2.112 2.585 3.39 5.878 3.39 9.477v320.619l103.301 9.639c.001-19.318 2.002-188.415 2.002-203.926z" fill="#6bbdd5"/><path d="m236.477 128.589c-12.648.326-22.977 11.471-22.977 24.123v324.288l-95.302-.262s.023 3.218 0 4.943c-.109 8.423 6.772 15.319 15.196 15.319h85.106c8.284 0 15-6.716 15-15 0-15.511 0-72.196 0-72.196l-6.162-7.502 6.162-7.502v-237.953c0-8.077 6.207-15.027 14.275-15.406 4.978-.234 9.444 1.968 12.335 5.506-2.425-10.708-12.125-18.655-23.633-18.358z" fill="#5595a2"/><path d="m378.803 282.756c0-22.6 14.697-95.391 14.697-156.333 0-18.141-1.498-37.781-3.524-56.051-.612 0-20.076-.691-20.076-.691 2.065 18.465 3.6 38.373 3.6 56.743 0 60.941-14.697 133.732-14.697 156.333 0 15.511-.002 193.925-.002 193.925l-95.301.361s.008 3.301 0 5.075c-.039 8.239 6.762 14.883 15 14.883h85.105c8.424 0 15.306-6.895 15.197-15.319-.165-12.653 0-32.028 0-32.028l-6.998-7.502 6.998-7.502c0-.001.001-136.383.001-151.894z" fill="#5595a2"/><path d="m213.5 394.802h-36.472c-4.143 0-7.5 3.358-7.5 7.5s3.357 7.5 7.5 7.5h36.472l10-7.501z" fill="#5595a2"/><path d="m213.5 394.8h20v15.002h-20z" fill="#488089"/><path d="m358.801 434.651h-36.472c-4.143 0-7.5 3.358-7.5 7.5s3.357 7.5 7.5 7.5h36.472l10-7.501z" fill="#5595a2"/><path d="m358.801 434.649h20v15.002h-20z" fill="#488089"/><path d="m115.476 12.357c-.527 2.949-1.12 6.355-1.752 10.143l4.907 7.505-7.288 7.495c-1.486 9.873-3.012 21.088-4.319 32.872h.027c43.689 0 64.188-8.929 64.188-40.372v-30h-40.997c-7.268 0-13.487 5.202-14.766 12.357z" fill="#5595a2"/><path d="m324.311 30c0 26.584 14.656 37.073 45.589 39.681v-40l-10.697-29.681h-34.892z" fill="#5595a2"/><path d="m388.499 70.372h1.477c-1.307-11.784-2.833-22.999-4.319-32.872l-7.289-7.5 4.908-7.5c-.632-3.788-1.225-7.195-1.752-10.143-1.279-7.155-7.498-12.357-14.765-12.357h-7.555s6.461 31.804 10.696 69.681c5.653.476 11.847.691 18.599.691z" fill="#488089"/><path d="m328.403 30-4.092-7.5h-84.761v-22.5h-15v22.5h-53.311l-4.092 7.5 3.636 7.5h53.766v76.112c0 4.142 3.357 7.5 7.5 7.5s7.5-3.358 7.5-7.5v-76.112h85.21z" fill="#5595a2"/><path d="m224.55 22.5h15v15h-15z" fill="#488089"/><path d="m383.275 22.5h-20l-3.81 7.5 6.19 7.5h20c-.82-5.458-1.627-10.492-2.38-15z" fill="#3c6a73"/><path d="m363.276 22.5h-38.965v7.5c0 2.661.154 5.153.449 7.5h40.896c-.82-5.453-1.628-10.495-2.38-15z" fill="#488089"/><path d="m171.239 22.5h-57.514c-.753 4.508-1.56 9.542-2.381 15h59.44c.296-2.348.455-4.837.455-7.5z" fill="#488089"/><g fill="#5595a2"><path d="m188.803 330.105h-40.605c-4.143 0-7.5-3.358-7.5-7.5s3.357-7.5 7.5-7.5h40.605c4.143 0 7.5 3.358 7.5 7.5s-3.358 7.5-7.5 7.5z"/><path d="m334.105 369.954h-40.605c-4.143 0-7.5-3.358-7.5-7.5s3.357-7.5 7.5-7.5h40.605c4.143 0 7.5 3.358 7.5 7.5s-3.357 7.5-7.5 7.5z"/><path d="m200.168 145.175h-55.304c-4.143 0-7.5-3.358-7.5-7.5s3.357-7.5 7.5-7.5h55.304c4.143 0 7.5 3.358 7.5 7.5s-3.357 7.5-7.5 7.5z"/><path d="m350.686 145.175h-55.304c-4.143 0-7.5-3.358-7.5-7.5s3.357-7.5 7.5-7.5h55.304c4.143 0 7.5 3.358 7.5 7.5s-3.358 7.5-7.5 7.5z"/></g></g></svg>