<svg id="Capa_1" enable-background="new 0 0 497 497" height="512" viewBox="0 0 497 497" width="512" xmlns="http://www.w3.org/2000/svg"><g><path d="m315.992 0h-163.313c-6.481 0-12.228 4.16-14.25 10.317-4.791 14.587-14.299 43.538-26.17 79.683l265.766 10z" fill="#e3a76f"/><circle cx="300.907" cy="60" fill="#f4e2c1" r="8"/><circle cx="294.907" cy="30" fill="#f4e2c1" r="8"/><path d="m378.024 100-42.843-100h-19.19c5.263 19.916 13.718 51.91 23.785 90z" fill="#c48958"/><path d="m384.74 90-26.169-79.68c-2.023-6.158-7.771-10.32-14.251-10.32h-9.138l29.559 90 13.284 10z" fill="#9a6a53"/><path d="m442.151 449.193c35.847-.001 42.481-12.061 42.481-17.797 0-1.329-.159-2.284-.722-3.999l-119.17-337.397h-24.963l82.373 349.193z" fill="#e3a76f"/><path d="m59.497 459.273c.005-.02.012-.045.018-.066.001-.005.002-.009.003-.014z" fill="#edc472"/><path d="m497 435.843c0-2.978-.356-5.119-1.618-8.961l-110.642-336.882h-20l109.17 332.397c.563 1.715.722 2.67.722 3.999 0 5.735-6.634 12.796-42.481 12.797h-10s15.068 19.043 15.331 20c40.531 0 59.518-10.497 59.518-23.35z" fill="#c48958"/><path d="m61.299 451.468c-1.781 7.725 10.294 26.476 42.106 26.476 30.72 0 44.003-8.745 69.683-6.43 28.204 2.543 37.642 15.486 75.412 15.486s47.208-12.943 75.412-15.486c25.68-2.315 38.963 6.43 69.683 6.43 31.824 0 43.887-18.751 38.548-38.751h.007c-15.614-58.825-61.545-232.558-92.373-349.193h-227.518c-38.167 116.21-100.762 306.801-109.601 333.714 0 13.787 11.753 27.754 58.641 27.754z" fill="#edc472"/><path d="m437.482 459.193c-.422-1.532-2.31-8.62-5.331-20-.002 0-.005 0-.007 0 3.952 14.337-6.724 28.751-38.548 28.751-30.72 0-44.003-8.745-69.683-6.43-28.205 2.543-37.643 15.486-75.413 15.486s-47.208-12.943-75.412-15.486c-25.68-2.315-38.963 6.43-69.683 6.43-31.812 0-42.488-14.403-38.55-28.734 14.611-55.033 53.075-200.871 55.01-208.21 1.056-4.005-1.334-8.108-5.339-9.165-4.003-1.053-8.108 1.334-9.165 5.339-.486 1.843-55.959 211.779-55.959 211.779-25.677-1.236-40.972-7.236-46.745-15.239-.609 1.854-.967 2.944-1.04 3.167-1.261 3.843-1.617 5.984-1.617 8.962 0 12.853 18.987 23.35 59.518 23.35-.001.005-.002.009-.003.014-3.937 14.332 12.076 28.737 43.89 28.737 30.72 0 44.003-8.745 69.683-6.43 28.204 2.543 37.642 15.486 75.412 15.486s47.208-12.943 75.412-15.486c25.68-2.315 38.963 6.43 69.683 6.43 31.824 0 47.839-14.415 43.887-28.751z" fill="#e3a76f"/></g></svg>