<svg id="Capa_1" enable-background="new 0 0 504.5 504.5" height="512" viewBox="0 0 504.5 504.5" width="512" xmlns="http://www.w3.org/2000/svg"><g><path d="m326.047 119.776c0 32.589-15.962 60.061-15.962 77.725 0 16.49 102.123 211.822 102.123 246.116 0 8.701-13.719 14.473-18.975 15.691-27.335 6.335-36.353.305-60.928 6.031-24.126 5.622-38.845 29.161-80.055 29.161s-55.929-23.539-80.055-29.161c-24.576-5.727-33.632 1.028-63.928-6.031-8.977-2.092-23.076-9.464-23.076-25.36 28.074-90.533 86.399-197.419 97.41-229.007l6.814-7.44-5.914-8.15c-3.39-17.727-15.048-45.075-15.048-69.575 0-28.668 16.982-51.776 16.982-71.106v-41.17c0-4.142 3.358-7.5 7.5-7.5s7.5 3.358 7.5 7.5v41.17c0 20.936 21.509 55.827 51.814 86.566h10.028v-10.676c18.512-20.699 32.584-42.299 38.594-59.641.001 0 25.176 22.268 25.176 54.857z" fill="#eaacde"/><path d="m422.208 443.617c-29.491-101.989-102.123-229.626-102.123-246.116v-16.562h2.887c4.598-17.303 13.075-40.266 13.075-61.163 0-28.668-16.982-51.776-16.982-71.106v-41.17c0-4.142-3.358-7.5-7.5-7.5s-7.5 3.358-7.5 7.5v41.17c0 4.763-1.121 10.253-3.198 16.248 8.681 18.58 15.18 38.573 15.18 54.859 0 15.583-4.715 32.313-9.02 46.992-12.142-10.972-30.655-26.016-44.749-42.208-2.96 3.594-6.564 7.163-10.028 10.676 18.352 18.614 37.168 35.695 50.317 47.242-1.49 5.8-2.482 10.912-2.482 15.023 0 16.49 72.633 144.127 102.123 246.116.406 1.403-3.719 4.473-8.975 5.691-27.335 6.335-36.353.305-60.928 6.031-24.126 5.622-38.845 29.161-80.055 29.161s-55.929-23.539-80.055-29.161c-24.576-5.727-33.632 1.028-63.928-6.031-8.977-2.092-18.326-8.638-23.076-15.36-1.006 3.245-1.974 6.47-2.899 9.669-2.524 8.728 12.172 22.475 25.975 25.691 30.296 7.06 39.353.305 63.928 6.031 24.126 5.622 38.845 29.161 80.055 29.161s55.929-23.539 80.055-29.161c24.576-5.727 33.632 1.028 63.928-6.031 13.803-3.218 28.499-16.964 25.975-25.692z" fill="#da8bc1"/><path d="m320.085 197.501c0-2.395.344-5.137.92-8.149-5.129 2.074-14.096 5.542-21.448 7.564-10.094 2.776-26.495 6.085-47.307 6.085s-37.212-3.309-47.307-6.085c-7.352-2.022-16.319-5.489-21.448-7.564.575 3.012.92 5.754.92 8.149 0 1.542-.641 4.066-1.817 7.439 6.415 2.923 31.418 13.061 69.652 13.061s63.237-10.137 69.652-13.061c-1.176-3.373-1.817-5.897-1.817-7.439z" fill="#da8bc1"/><path d="m302.567 182.478c10.597 9.307 17.518 15.023 17.518 15.023 0-4.47 1.178-10.128 2.887-16.562-3.507-3.059-9.069-7.958-15.946-14.171-1.64 5.593-3.221 10.892-4.459 15.71z" fill="#d273b3"/><path d="m269.077 392.546c-3.897-7.649-.856-17.01 6.793-20.907s17.01-.856 20.907 6.793c6.07-6.07 15.913-6.07 21.983 0s6.07 15.913 0 21.983c7.649 3.897 10.691 13.258 6.793 20.907-3.897 7.649-13.258 10.691-20.907 6.793-1.343 8.479-9.306 14.264-17.785 12.921s-14.264-9.306-12.921-17.785c-8.479 1.343-16.442-4.442-17.785-12.921s4.443-16.441 12.922-17.784z" fill="#f4e2c1"/><path d="m374.54 379.755c-8.165-2.653-16.934 1.815-19.587 9.98s1.815 16.934 9.98 19.587c-5.046 6.945-3.506 16.666 3.439 21.713 6.945 5.046 16.666 3.506 21.713-3.439 2.301 3.167 5.576 5.195 9.114 6.002-6.264-20.153-14.021-41.107-22.415-61.857-1.415 2.343-2.244 5.078-2.244 8.014z" fill="#f4e2c1"/><path d="m411.797 431.035c2.101-1.526 3.698-3.484 4.777-5.659-6.505-19.901-14.321-40.437-22.661-60.67-1.227-.311-2.505-.495-3.828-.495-5.649 0-10.579 3.023-13.301 7.53 8.395 20.751 16.152 41.705 22.415 61.857 4.222.964 8.82.183 12.598-2.563z" fill="#f3d69e"/><path d="m322.372 287.181c-6.945 5.046-8.485 14.767-3.439 21.713-8.165 2.653-12.633 11.422-9.98 19.587s11.422 12.633 19.587 9.98c0 8.585 6.959 15.544 15.544 15.544s15.544-6.96 15.544-15.544c1.139.37 2.289.588 3.433.69-8.089-18.55-16.332-36.473-24.077-53.006-5.109-2.803-11.584-2.617-16.612 1.036z" fill="#f4e2c1"/><path d="m378.823 329.512c-7.01-15.801-14.052-31.04-20.703-45.217-5.286-.493-10.688 1.718-14.035 6.324-1.393-1.918-3.15-3.407-5.099-4.475 7.745 16.533 15.988 34.456 24.077 53.006 6.702.599 13.169-3.233 15.76-9.638z" fill="#f3d69e"/><path d="m291.623 291.995c-4.142 0-7.5-3.358-7.5-7.5 0-41.138 15.312-75.909 30.487-92.119 2.832-3.024 7.578-3.181 10.601-.35 3.024 2.831 3.181 7.577.35 10.601-12.733 13.602-26.438 45.023-26.438 81.868 0 4.142-3.358 7.5-7.5 7.5z" fill="#f3d69e"/><path d="m288.552 220.193c-12.343 0-22.422-10.003-22.498-22.364-.037-6.009 2.269-11.674 6.493-15.95 4.224-4.275 9.859-6.65 15.87-6.687h.157c10.424 0 21.062 6.329 31.456 13.238 10.361-7.07 20.975-13.558 31.449-13.622 6.016-.006 11.674 2.269 15.95 6.493 4.275 4.224 6.65 9.859 6.687 15.87.037 6.009-2.269 11.674-6.493 15.95-4.224 4.275-9.859 6.65-15.87 6.687-.051 0-.105 0-.156 0-10.424 0-21.062-6.329-31.456-13.238-10.36 7.07-20.975 13.558-31.449 13.622-.047.001-.093.001-.14.001zm-.044-30c-2.003.012-3.882.804-5.29 2.229s-2.176 3.313-2.164 5.316c.025 4.12 3.385 7.455 7.499 7.455h.046c4.98-.03 11.314-3.342 17.967-7.609-6.672-4.167-13.019-7.391-17.989-7.391-.023 0-.077-.006-.069 0zm45.096 7.225c6.672 4.167 13.019 7.391 17.988 7.391h.069c2.004-.012 3.882-.804 5.29-2.229s2.176-3.313 2.164-5.316c-.012-2.004-.804-3.882-2.229-5.29s-3.285-2.199-5.316-2.164c-4.98.03-11.314 3.341-17.966 7.608zm-45.141-14.725h.01z" fill="#f4e2c1"/></g></svg>