<svg id="Capa_1" enable-background="new 0 0 504.5 504.5" height="512" viewBox="0 0 504.5 504.5" width="512" xmlns="http://www.w3.org/2000/svg"><g><path d="m127.099 137.709c-9.672 18.99-18.675 39.722-18.675 62.498 0 39.206 15 60.903 15 99.206 0 21.975-15.309 110.438-22.156 148.901 0 13.98 67.52 46.186 150.982 46.186 63.893 0 141.703-26.221 141.703-37.924-.293-1.652-22.876-129.044-22.876-157.162 0-38.303 15-60 15-99.206 0-18.485-1.27-46.544-8.676-62.498z" fill="#dc805a"/><path d="m377.401 137.71-14.66 10.92c7.405 15.954 13.336 33.092 13.336 51.577 0 39.206-15 60.903-15 99.206 0 25.905 19.167 136.066 22.414 154.544.275 1.565-.532 3.111-1.975 3.778-24.32 11.248-67.525 26.765-129.266 26.765-83.462 0-137.614-28.353-150.982-36.186-.502 2.822-.961 5.384-1.362 7.621-1.158 6.45 2.001 12.894 7.802 15.941 20.158 10.585 70.962 32.624 144.542 32.624s124.384-22.039 144.543-32.625c5.801-3.047 8.96-9.491 7.802-15.941-5.878-32.734-23.518-132.934-23.518-156.521 0-38.303 15-60 15-99.206 0-22.776-9.004-43.507-18.676-62.497z" fill="#d66b3e"/><path d="m304.204 257.449c-27.089-15.737-41.84-51.284-44.454-58.057v-.001l-15-.002v.008c-2.604 6.779-17.273 42.262-44.454 58.052-3.582 2.081-4.798 6.671-2.718 10.253 1.392 2.396 3.907 3.734 6.492 3.734 1.279 0 2.575-.328 3.761-1.016 16.299-9.469 28.494-24.438 36.919-37.855v55.62c0 4.142 3.358 7.5 7.5 7.5 4.143 0 7.5-3.358 7.5-7.5v-55.62c8.425 13.417 20.62 28.387 36.919 37.856 3.58 2.08 8.171.863 10.253-2.718 2.08-3.583.863-8.173-2.718-10.254z" fill="#d66b3e"/><path d="m342.665 88.197c-1.475 1.86-3.447 3.705-6.041 5.378-26.85 17.318-76.108 41.167-84.374 41.167s-57.525-23.849-84.375-41.166c-7.728-4.984-9.931-11.483-9.931-15.413v-70.663c0-4.142-3.358-7.5-7.5-7.5s-7.5 3.358-7.5 7.5v70.662c0 17.82-4.623 37.511-15.845 59.547 15.94 15.94 107.152 63.033 125.151 63.033 14.824 0 79.294-31.937 110.49-52.112z" fill="#f3d69e"/><g fill="#edc472"><path d="m361.556 78.163.001-70.663c0-4.142-3.357-7.5-7.5-7.5-4.142 0-7.5 3.358-7.5 7.5l-.001 70.662c0 2.611-.973 6.354-3.89 10.035 1.363 9.561 5.382 28.778 20.075 60.433 6.684-4.322 11.848-8.108 14.66-10.92-11.223-22.036-15.845-41.727-15.845-59.547z"/><path d="m259.75 199.391v-66.583c-3.483 1.238-6.089 1.934-7.5 1.934s-4.017-.696-7.5-1.934v66.581c3.135.871 5.692 1.353 7.5 1.353 1.809 0 4.362-.479 7.5-1.351z"/></g></g></svg>