<svg id="Capa_1" enable-background="new 0 0 498.772 498.772" height="512" viewBox="0 0 498.772 498.772" width="512" xmlns="http://www.w3.org/2000/svg"><g><path d="m249.386 487.886c60.523 0 108.835-10.506 122.42-14.133 3.276-.875 5.546-3.851 5.546-7.241v-291.517l61.371 33.109 51.282-75.259c-19.912-24.089-59.242-67.129-76.653-76.347-24.48-12.96-74.735-19.208-92.052-38.11h-143.828c-17.317 18.902-67.572 25.15-92.052 38.11-19.226 10.179-65.181 61.6-82.201 83.204-4.378 5.557-4.281 13.413.235 18.858l40.079 48.336 67.887-15.901v263.151c0 20 55.712 33.74 137.966 33.74z" fill="#f8fdff"/><path d="m249.386 66.84c9.744 0 85.79-35.926 61.407-56.008-12.335-6.155-32.257-9.946-61.407-9.946-36.155 0-58.125 5.828-69.012 14.771 0 23.238 61.148 51.183 69.012 51.183z" fill="#dcf2f6"/><path d="m321.3 18.388c-2.552-2.786-6.036-5.325-10.507-7.556 4.781 18.721-51.663 46.008-61.407 46.008-7.864 0-53.367-22.219-69.012-41.182-1.073.881-2.042 1.791-2.903 2.731-16.921 18.47 61.366 58.451 71.915 58.451s88.836-39.981 71.914-58.452z" fill="#d0eef4"/><path d="m191.42 342.386 130.932-15v-165.768h-15z" fill="#eaacde"/><path d="m322.352 161.618v162.269c0 1.933-1.567 3.5-3.5 3.5h-117.812l-9.62 15h138.432c4.142 0 7.5-3.358 7.5-7.5v-165.769c0-4.142-3.358-7.5-7.5-7.5z" fill="#da8bc1"/><path d="m307.352 161.618h-138.432c-4.142 0-7.5 3.358-7.5 7.5v158.269h56.142c34.191-23.212 89.79-74.918 89.79-165.769z" fill="#edc472"/><path d="m161.42 327.386v7.5c0 4.142 3.358 7.5 7.5 7.5h22.5s10.965-4.696 26.142-15z" fill="#e3a76f"/><g fill="#738c96"><path d="m267.56 229.071h-61.467c-4.143 0-7.5-3.358-7.5-7.5s3.357-7.5 7.5-7.5h61.467c4.143 0 7.5 3.358 7.5 7.5s-3.357 7.5-7.5 7.5z"/><path d="m249.386 259.071h-43.293c-4.143 0-7.5-3.358-7.5-7.5s3.357-7.5 7.5-7.5h43.293c4.143 0 7.5 3.358 7.5 7.5s-3.357 7.5-7.5 7.5z"/><path d="m300.629 289.071h-94.536c-4.143 0-7.5-3.358-7.5-7.5s3.357-7.5 7.5-7.5h94.536c4.143 0 7.5 3.358 7.5 7.5s-3.357 7.5-7.5 7.5z"/></g><path d="m111.42 161.618c0-64.519-5.569-76.531-7.639-80.421-1.898-3.565-6.248-5.248-9.91-3.546-3.949 1.835-5.489 6.581-3.455 10.361 1.408 2.618 6.005 15.663 6.005 73.606v15.201c0 1.297-.717 2.488-1.864 3.094l-51.024 26.983 3.756 4.53c4.697 5.664 12.808 7.085 19.151 3.356l44.98-23.787s0-27.745 0-29.377z" fill="#dcf2f6"/><path d="m395.148 80.904c-5.333 9.911-27.796 49.78-27.796 110.091v267.517c0 3.391-2.271 6.367-5.546 7.241-13.585 3.627-51.897 12.133-112.42 12.133-61.64 0-137.966-10.78-137.966-23.74v20c0 12.96 76.326 23.74 137.966 23.74s137.966-10.78 137.966-23.74c0-1.556 0-203.953 0-283.151l44.98 23.787c6.343 3.73 14.454 2.308 19.151-3.356l43.836-52.866c4.516-5.446 4.613-13.302.235-18.858-1.607-2.04-3.472-4.346-5.548-6.857l-49.391 59.567c-2.267 2.734-6.14 3.503-9.28 1.843l-42.118-22.274c-1.147-.606-1.864-1.797-1.864-3.094v-7.303c.011-32.065 16.078-64.417 21.004-73.572 1.963-3.647.597-8.196-3.051-10.158s-8.194-.593-10.158 3.05z" fill="#dcf2f6"/><path d="m328.856 389.886h-159.936c-4.143 0-7.5-3.358-7.5-7.5s3.357-7.5 7.5-7.5h159.936c4.143 0 7.5 3.358 7.5 7.5s-3.357 7.5-7.5 7.5z" fill="#bae6ef"/></g></svg>