<svg id="Capa_1" enable-background="new 0 0 497 497" height="512" viewBox="0 0 497 497" width="512" xmlns="http://www.w3.org/2000/svg"><g><path d="m57.257 150.957c1.362 12.525 12.619 21.574 25.144 20.212 3.516 12.098 16.174 19.055 28.272 15.539h275.653c12.098 3.516 24.756-3.441 28.272-15.539 12.525 1.362 23.782-7.687 25.144-20.212 5.006-.332 9.527-2.255 13.104-5.243 5.153-4.305 3.215-18.57-3.045-21.742 0 0-11.052-20.208-27.16-32.873-9.633-5.078-20.374-7.391-30.315-7.391h-287.653c-22.351 0-48.765 11.661-57.474 40.264l-5.987 3.034c-2.381 1.207-4.274 2.932-5.645 4.947 0 8.922 8.614 18.137 21.69 19.004z" fill="#dcf2f6"/><path d="m455.788 127.006-5.987-3.034c-4.836-15.882-15.133-26.533-27.16-32.873 6.636 7.34 12.019 16.406 15.186 26.804l7.671 3.888c6.26 3.172 7.501 12.617 2.348 16.923-3.576 2.988-8.098 4.911-13.104 5.243-1.362 12.525-12.619 21.574-25.144 20.212-3.516 12.098-16.174 19.055-28.272 15.539h-265.653c-12.098 3.516-24.756-3.441-28.272-15.539-12.525 1.362-23.782-7.687-25.144-20.212-13.076-.867-22.408-4.492-26.691-12.004-4.1 6.025-3.538 14.643 2.587 19.761 3.576 2.988 8.098 4.911 13.104 5.243 1.362 12.525 12.619 21.574 25.144 20.212 3.516 12.098 16.174 19.055 28.272 15.539h287.653c12.098 3.516 24.756-3.441 28.272-15.539 12.525 1.362 23.782-7.687 25.144-20.212 5.006-.332 9.527-2.255 13.104-5.243 8.173-6.829 6.442-19.893-3.058-24.708z" fill="#bae6ef"/><path d="m110.796 449.25c3.223 11.539 15.589 18.386 27.619 15.294 5.264 10.826 18.681 15.51 29.969 10.462 7.144 9.785 21.205 12.163 31.407 5.312 8.807 8.447 23.085 8.447 31.892 0 9.288 8.909 24.347 8.909 33.635 0 8.419 8.075 22.068 8.075 30.487 0 9.753 6.55 23.195 4.277 30.024-5.078 10.79 4.826 23.616.348 28.648-10.001 11.5 2.956 23.321-3.59 26.402-14.621 9.309.781 19.898-4.472 19.898-20.578 0-11.944-33.45-118.86-33.45-138.128 0-28.303 15-89.822 15-99.206l-10-116.118-10-3.379-227.34-.105-30.314 10.602v109c0 9.384 15 70.903 15 99.206 0 18.308-20.665 95.493-29.915 129.125 0 21.11 10.466 29.101 21.038 28.213z" fill="#6bbdd5"/><path d="m264.63 486.319s4.771 7.878 7.499 8.992c8.248 3.366 18.068 1.703 24.762-4.992 10.32 7.226 24.544 4.718 31.771-5.602 11.418 5.324 24.991.384 30.315-11.034 12.169 3.261 24.678-3.961 27.938-16.13 10.694.936 20.31-5.667 23.599-15.405.946-2.8.973-5.824.177-8.67-5.503-19.669-33.364-120.307-33.364-141.564 0-28.303 15-89.822 15-99.206v-109c-3.72-1.495-11.421-4.195-20-7.118v116.118c0 9.384-15 70.903-15 99.206 0 19.268 30.232 126.626 33.45 138.128 1.23 4.398-6.378 11.359-15.307 10.578-2.956 11.03-14.293 17.576-25.324 14.621-4.826 10.35-17.128 14.827-27.478 10.001-6.55 9.354-19.443 11.628-28.797 5.078-8.075 8.075-21.167 8.075-29.241 0-8.909 8.909-23.352 8.909-32.261 0-8.447 8.447-22.142 8.447-30.589 0-9.785 6.852-23.272 4.474-30.124-5.312-10.827 5.048-23.696.364-28.744-10.462-11.539 3.092-23.399-3.756-26.491-15.294-10.14.887-23.545-8.979-26.664-18.212-1.49 5.418-2.685 9.71-3.449 12.439-.796 2.846-.77 5.87.176 8.67 3.29 9.738 12.905 16.341 23.599 15.405 3.261 12.169 15.769 19.391 27.939 16.13 5.324 11.418 18.897 16.358 30.315 11.034 7.226 10.32 21.45 12.828 31.771 5.602 6.681 6.681 16.476 8.352 24.714 5.011 2.746-1.114 7.546-9.011 7.546-9.011s4.771 7.878 7.499 8.992c5.519 2.253 11.743 2.253 17.262 0 2.73-1.115 7.501-8.993 7.501-8.993z" fill="#5595a2"/><path d="m248.657 250.322c68.431 0 113.67-28.613 113.67-57.614 0-21.235 0-86.213 0-119.496-13.987-4.692-27.212-9.007-27.212-9.007h-173.23s-13.028 4.251-26.899 8.902v119.602c.001 29 45.239 57.613 113.671 57.613z" fill="#dcf2f6"/><path d="m248.657 250.322c-2.974 0-5.902-.058-8.787-.163v225.149c5.519 2.253 11.741 2.253 17.26 0v-225.139c-2.784.098-5.606.153-8.473.153z" fill="none"/><path d="m257.13 475.308 7.5 5.011 7.5-5.228v-225.948l-15 1.026z" fill="#5595a2"/><path d="m239.87 475.308v-225.149l-15-1.048v226.08l7.5 5.128z" fill="#5595a2"/><path d="m264.63 470.319c-2.215 2.215-4.772 3.876-7.5 4.99v20c2.729-1.114 5.286-2.775 7.5-4.99 2.214 2.214 4.771 3.876 7.5 4.989v-20.217c-2.734-1.001-5.305-2.578-7.5-4.772z" fill="#488089"/><path d="m232.37 470.319c-2.204 2.204-4.768 3.818-7.5 4.872v20.118c2.728-1.114 5.286-2.775 7.5-4.99 2.214 2.214 4.772 3.876 7.5 4.99v-20c-2.729-1.114-5.286-2.776-7.5-4.99z" fill="#488089"/><path d="m264.63 91.418c-4.143 0-7.5 3.358-7.5 7.5v151.251c5.148-.182 10.151-.528 15-1.026v-150.225c0-4.142-3.358-7.5-7.5-7.5z" fill="#bae6ef"/><path d="m239.87 98.918c0-4.142-3.357-7.5-7.5-7.5s-7.5 3.358-7.5 7.5v150.193c4.848.505 9.851.859 15 1.048z" fill="#bae6ef"/><path d="m298.922 147.328c12.5-20.889 27.625-61.434 27.625-84.973 0-3.87-4.588-42.276-25.729-49.632-39.55-5.926-120.566-3.475-125.777 7.356-6.737 14.003-13.156 39.828-13.156 44.125 0 30.169 12.21 59.425 23.669 80.243 6.474 7.734 19.839 8.144 22.938 1.666l40.008-61.918 28.867 60.353c3.14 6.565 18.287 8.242 21.555 2.78z" fill="#6bbdd5"/><path d="m335.114 64.204c0 34.2-15.692 67.234-28.193 88.124-6.149 10.275-21.248 9.587-26.415-1.215l-3.14-6.565c5.49.605 11.287-1.759 14.555-7.22 12.5-20.889 24.625-51.434 24.625-74.973 0-3.87-4.417-23.076-15.729-49.632 11.579 1.735 19.615 4.185 21.14 7.356 6.739 14.003 13.157 39.829 13.157 44.125zm-133.622 71.909c-3.098 6.478-9.768 9.314-15.938 8.334 1.531 2.782 3.05 5.419 4.523 7.881 6.149 10.275 21.248 9.587 26.415-1.215l32.008-66.918-15-15z" fill="#5595a2"/><path d="m248.498 74.143s79.356-38.917 61.104-64.293c-13.111-6.136-34.887-9.85-61.102-9.85-32.967 0-58.921 5.872-69.431 15.052-.001 19.983 69.429 59.091 69.429 59.091z" fill="#dcf2f6"/><path d="m321.959 20.08c-1.86-3.865-6.138-7.319-12.357-10.23 5.476 20.791-61.104 54.293-61.104 54.293s-53.084-27.802-69.429-49.091c-1.812 1.583-3.178 3.261-4.028 5.028-10.005 20.793 73.459 64.115 73.459 64.115s83.434-43.382 73.459-64.115z" fill="#bae6ef"/></g></svg>