<svg id="Capa_1" enable-background="new 0 0 496.999 496.999" height="512" viewBox="0 0 496.999 496.999" width="512" xmlns="http://www.w3.org/2000/svg"><g><path d="m108.555 65.483c-13.113 7.735-22.958 20.25-27.221 35.192l-79.253 277.726 48.909 23.975 89.006-294.001c-3.238-23.433-11.357-42.892-31.441-42.892z" fill="#87a0af"/><path d="m37.434 388.489-35.353-10.088-1.502 5.263c-2.273 7.966 2.342 16.267 10.308 18.54l32.68 9.326c7.691 2.195 15.751-2.031 18.321-9.605l80.13-236.193c0-16.044.645-38.05-2.023-57.357l-93.4 275.311c-1.285 3.788-5.315 5.9-9.161 4.803z" fill="#738c96"/><path d="m405.666 100.674c-4.018-14.08-17.222-32.492-28.874-32.492-24.253 12.591-21.812 66.343-21.812 97.549l78.413 231.132 55.886-7.125z" fill="#87a0af"/><path d="m496.42 383.664-80.754-282.989c-4.264-14.941-14.108-27.456-27.221-35.192-4.446 0-8.302.961-11.652 2.7 8.057 8.048 14.856 18.412 18.874 32.492l78.939 276.63c1.137 3.983-1.171 8.134-5.154 9.27l-36.058 10.289 1.717 5.061c2.57 7.574 10.63 11.8 18.321 9.605l32.68-9.326c7.966-2.273 12.581-10.574 10.308-18.54z" fill="#738c96"/><path d="m361.814 455.435c0-.629 0-287.633 0-291.769 0-44.529 1.243-80.36 7.78-105.927-23.319-7.909-47.332-16.684-56.817-27.037h-128.554c-10.508 11.47-38.851 21.004-64.324 29.569-3.998 1.344-7.785 3.112-11.344 5.212 10.664 26.021 16.631 56.259 16.631 98.182h.001v51.683 234.938c9.678 17.963 84.508 21.655 123.314 21.655 55.093 0 113.313-10.635 113.313-16.506z" fill="#f5fcff"/><path d="m377.101 60.27c-2.481-.834-4.99-1.678-7.507-2.532-11.435 28.354-17.78 61.397-17.78 105.927v284.769c0 5.872-48.22 13.507-103.314 13.507-38.805 0-94.043-4.78-123.314-11.655v10.436c0 11.584 68.22 21.219 123.314 21.219s123.314-9.635 123.314-21.219c0-1.241 0-293.454 0-297.057 0-41.923 5.966-72.162 16.631-98.183-3.56-2.099-7.346-3.867-11.344-5.212z" fill="#e7f6f9"/><path d="m263.495 178.069c-4.142 0-7.5-3.357-7.5-7.5v-77.838c0-2.223-1.237-4.231-3.229-5.242-1.388-.704-2.838-1.451-4.266-2.204-3.664-1.932-5.068-6.469-3.136-10.132 1.932-3.665 6.471-5.067 10.133-3.136 1.357.716 2.736 1.426 4.057 2.096 7.057 3.582 11.44 10.716 11.44 18.618v77.838c.001 4.142-3.357 7.5-7.499 7.5z" fill="#d0eef4"/><g fill="#bae6ef"><circle cx="233.5" cy="169.785" r="8"/><circle cx="233.5" cy="139.785" r="8"/><circle cx="233.5" cy="109.785" r="8"/></g><path d="m248.5 75.284c24.615-13.017 68.166-30.113 49.682-53.587-11.137-4.16-27.393-6.639-49.681-6.639-29.787 0-48.801 4.426-59.215 11.379-.001 23.498 41.526 39.494 59.214 48.847z" fill="#dcf2f6"/><path d="m312.777 30.701c-3.191-3.483-7.995-6.539-14.595-9.004 6.36 12.345-25.067 30.57-49.682 43.587-17.687-9.353-46.303-25.566-59.215-38.847-1.997 1.333-3.682 2.758-5.062 4.264-11.273 12.305 38.297 40.845 64.277 54.583 25.977-13.737 75.551-42.277 64.277-54.583z" fill="#bae6ef"/></g></svg>