<svg id="Capa_1" enable-background="new 0 0 497 497" height="512" viewBox="0 0 497 497" width="512" xmlns="http://www.w3.org/2000/svg"><g><path d="m405.667 100.616s-7.771-33.412-28.566-40.404-43.502-14.63-56.858-23.439h-143.486c-13.356 8.81-36.063 16.447-56.858 23.439-18.725 6.296-33.145 21.407-38.566 40.404-4.347 15.237-52.703 184.694-71.675 251.179l36.938 31.834 78.591-168.338v200.938c6.832 26.019 84.431 70.771 123.313 70.771 55.094 0 113.314-50.752 113.314-56.624 0-.521 0-180.555 0-244.56l62.419 183.988 50.373 7.442z" fill="#eaacde"/><path d="m373.838 95.636c-19.07 42.702-22.023 74.826-22.023 119.53v211.21c0 5.872-54.116 50.624-103.314 50.624s-108.988-42.426-123.314-60.771v14.436c0 11.584 58.77 66.336 123.314 66.336s123.314-54.752 123.314-66.336c0-1.24 0-267.054 0-267.055 0-17.188 5.583-39.158 15.719-61.855 1.689-3.782-.008-8.218-3.79-9.907-3.781-1.688-8.217.008-9.906 3.788z" fill="#da8bc1"/><path d="m415.666 100.616c-5.421-18.997-19.84-34.108-38.566-40.404 8.057 8.048 14.549 26.324 18.566 40.404l78.939 276.63 12.737-25.451z" fill="#da8bc1"/><path d="m125.187 163.607c0-28.791-.506-52.639-1.389-65.428-.285-4.133-3.854-7.238-7.999-6.966-4.132.285-7.251 3.866-6.966 7.999.86 12.461 1.354 35.933 1.354 64.395v32.576l-63.592 187.445 26.172-13.825 52.42-154.513s0-50.625 0-51.683z" fill="#da8bc1"/><path d="m424.233 369.804 9.161 27.002 55.886-7.125-20.431-32.609z" fill="#da8bc1"/><path d="m496.42 383.606-9.078-31.811-18.493 5.277 5.757 20.174c1.137 3.983-1.171 8.134-5.154 9.27l-36.058 10.289 1.717 5.061c2.57 7.574 10.63 11.8 18.321 9.605l32.68-9.326c7.966-2.272 12.581-10.573 10.308-18.539z" fill="#d273b3"/><path d="m2.082 378.343 48.909 23.975 2.191-38.103-43.524-12.42c-4.682 16.406-7.576 26.548-7.576 26.548z" fill="#da8bc1"/><path d="m46.595 383.628c-1.285 3.787-5.315 5.9-9.16 4.803l-35.353-10.088-1.502 5.263c-2.273 7.966 2.342 16.267 10.308 18.54l32.68 9.326c7.691 2.195 15.751-2.031 18.321-9.605l10.878-32.063-19.585-5.589z" fill="#d273b3"/><path d="m309.99 26.604-10.772-10.96h-114.994c-5.681 16.509-7.213 20.96-7.213 20.96-5.393 17.001 5.92 39.929 24.921 61.804l46.569-32.52 21.647 31.128c38.96-26.574 45.949-51.163 39.842-70.412z" fill="#da8bc1"/><path d="m201.931 98.408c2.364 2.722 4.84 5.428 7.425 8.103 3.279 3.394 8.854 2.934 11.548-.941l27.596-39.683-12.647-16.26z" fill="#d273b3"/><path d="m319.99 36.604s-1.532-4.451-7.213-20.96h-13.559c2.892 8.404 3.772 10.96 3.772 10.96 6.107 19.25-9.203 46.097-32.843 70.412l5.949 8.555c2.695 3.875 8.269 4.336 11.548.941 23.361-24.181 38.411-50.792 32.346-69.908z" fill="#d273b3"/><path d="m300.153 6.501c-11.409-4.077-29.612-6.501-51.653-6.501-26.071 0-46.766 3.393-57.203 8.9 0 18.543 57.203 45.987 57.203 45.987s70.917-27.443 51.653-48.386z" fill="#da8bc1"/><g fill="#d273b3"><path d="m312.777 15.643c-1.221-3.548-5.658-6.653-12.624-9.142-.929 16.356-51.653 38.386-51.653 38.386s-40.242-19.408-57.202-35.987c-3.774 1.992-6.219 4.257-7.074 6.743-5.682 16.509 64.276 50.244 64.276 50.244s69.959-33.735 64.277-50.244z"/><circle cx="248.5" cy="429.727" r="8"/><circle cx="248.5" cy="354.727" r="8"/><circle cx="248.5" cy="279.727" r="8"/><circle cx="248.5" cy="204.727" r="8"/><circle cx="248.5" cy="129.727" r="8"/></g></g></svg>