<svg id="Capa_1" enable-background="new 0 0 497 497" height="512" viewBox="0 0 497 497" width="512" xmlns="http://www.w3.org/2000/svg"><g><path d="m248.5 0c-62.667 0-91.841 85.938-91.841 131.978h163.681c11.335-50.959-7.444-98.449-43.168-125.333-8.633-4.227-18.181-6.645-28.672-6.645z" fill="#eaacde"/><path d="m277.173 6.645c25.328 29.522 43.168 91.164 43.168 125.333h20c0-38.332-20.228-104.313-63.168-125.333z" fill="#da8bc1"/><path d="m391.727 246.62c-14.15-32.572-43.706-52.968-62.376-61.452l-98.078-12.34h-53.903c-45.468 20.662-64.141 32.459-82.096 73.792l-83.67 170.87 39.771 25.408 95.748-133.026 101.377 16.343h101.376l79.438 114.014 51.49-12.788z" fill="#eaacde"/><path d="m487.13 421.031-85.403-174.411c-17.955-41.333-36.629-53.131-82.096-73.792h-88.358l-178.387 256.032c-2.042 2.93-5.866 4.014-9.142 2.591l-32.14-13.962-1.734 3.542c-3.761 7.681-.349 16.947 7.495 20.355l26.747 11.619c6.551 2.846 14.201.678 18.284-5.183l84.728-121.606h101.376v-103.37s46.767-8.416 80.851-30.677c18.671 8.484 38.227 21.88 52.376 54.452l83.483 169.466c1.88 3.84.174 8.474-3.748 10.177l-32.148 13.966 5.29 7.593c4.083 5.861 11.733 8.029 18.284 5.183l26.747-11.619c7.844-3.409 11.256-12.675 7.495-20.356z" fill="#da8bc1"/><path d="m329.876 435.927s9.923-147.203 9.923-156.391c0-31.045-10.273-53.816-29.986-72.123l-61.313-15.933h-50.155c-33.47 20.846-51.221 47.335-51.221 88.056v156.391z" fill="#f8fdff"/><path d="m298.655 191.48h-50.155v31.365s24.721-4.449 51.314-15.432c19.712 18.307 29.986 41.078 29.986 72.123v156.391h20.077s0-147.261 0-156.391c-.001-40.722-17.752-67.21-51.222-88.056z" fill="#e7f6f9"/><path d="m339.8 473.345c0-.132-10-44.918-10-44.918-10.345-7.449-19.499-19.859-22.809-34.543-1.544-6.849-7.61-11.724-14.631-11.724h-87.719c-7.015 0-13.087 4.864-14.627 11.708-5.419 24.08-26.545 42.06-42.89 42.06v25.602c4.809 21.802 60.301 25.47 104.299 25.47 40.856 0 88.377-10.556 88.377-13.655z" fill="#eaacde"/><path d="m329.8 466.345c0 3.099-37.52 10.655-78.376 10.655-43.999 0-86.903-6.393-104.299-15.471v16.306c-.001 10.463 51.615 19.165 101.375 19.165s101.376-8.702 101.376-19.165c0-.453 0-17.719 0-41.909-6.371 0-13.466-2.741-20.077-7.501.001 22.17.001 37.787.001 37.92z" fill="#da8bc1"/><g><path d="m203.959 279.767c-.48 0-.968-.046-1.458-.143-4.063-.801-6.709-4.744-5.908-8.809 4.54-23.043 12.879-46.69 22.305-63.257 2.047-3.602 6.626-4.858 10.228-2.81 3.601 2.048 4.858 6.627 2.81 10.228-8.67 15.237-16.38 37.196-20.625 58.739-.706 3.575-3.841 6.052-7.352 6.052z" fill="#bae6ef"/></g><g><path d="m293.041 279.767c-3.511 0-6.646-2.477-7.351-6.051-4.245-21.543-11.955-43.501-20.625-58.739-2.049-3.601-.791-8.18 2.81-10.228 3.601-2.049 8.18-.792 10.228 2.81 9.427 16.567 17.765 40.215 22.305 63.257.801 4.064-1.845 8.008-5.908 8.809-.49.096-.979.142-1.459.142z" fill="#bae6ef"/></g><path d="m248.5 55c-19.547 0-83.841 37.965-83.841 77.978 0 20.266 12.71 39.85 12.71 39.85 20.413 21.49 50.459 38.997 64.024 46.319 4.447 2.4 9.795 2.386 14.241-.015 18.08-9.761 65.311-37.551 80.159-68.755 4.548-53.665-62.93-95.377-87.293-95.377z" fill="#da8bc1"/><path d="m177.369 172.828c-4.635-14.263-3.951-33.448-2.71-39.85 7.618-39.282 54.294-67.978 73.841-67.978 24.363 0 80.094 39.129 87.294 85.377 2.874-6.041 4.547-12.208 4.547-18.399 0-46.04-64.654-86.978-91.841-86.978s-91.841 40.938-91.841 86.978c0 14.155 8.687 28.192 20.71 40.85z" fill="#d273b3"/></g></svg>