<svg id="Capa_1" enable-background="new 0 0 497 497" height="512" viewBox="0 0 497 497" width="512" xmlns="http://www.w3.org/2000/svg"><g><path d="m113.461 89.424-4.783-15.617c-3.969 1.483-7.917 2.956-11.807 4.412-4.444 1.664-7.82 5.354-9.122 9.916l-85.723 300.404 41.694 21.471c3.845 1.097 7.876-1.016 9.16-4.803l60.581-179.783z" fill="#6bbdd5"/><path d="m108.678 73.807c-11.807 4.412-11.395 51.775-9.865 70.116 2.407 28.853 4.163 48.552 6.727 80.325l-57.66 169.959c-1.285 3.787-5.315 5.9-9.16 4.803l-36.694-10.471-1.446 5.067c-2.273 7.966 2.342 16.267 10.308 18.54l32.68 9.326c7.691 2.195 15.751-2.031 18.321-9.605l79.005-232.878z" fill="#5595a2"/><path d="m486.356 392.37-77.105-304.235c-1.302-4.563-4.678-8.253-9.122-9.916-3.889-1.456-7.838-2.929-11.807-4.412l-32.217 105.182 76.996 226.953 48.1-4.302c3.984-1.136 6.291-5.286 5.155-9.27z" fill="#6bbdd5"/><path d="m496.42 393.606-87.169-305.471-2.655 34.919c-1.027 13.507.35 27.09 4.067 40.116l63.693 223.201c1.136 3.983-1.171 8.134-5.154 9.27l-36.1 10.302 2.01 5.924c2.57 7.574 10.63 11.8 18.321 9.605l32.68-9.326c7.966-2.273 12.581-10.574 10.307-18.54z" fill="#5595a2"/><path d="m289.33 16.356c-9.479-3.988-22.849-6.356-40.83-6.356-29.313 0-46.392 6.285-54.288 15.643 0 50.983 54.288 167.542 54.288 167.542s71.973-146.581 40.83-176.829z" fill="#87a0af"/><path d="m302.788 25.643c-3.052-3.618-7.485-6.774-13.458-9.287 19.21 36.237-40.83 156.829-40.83 156.829s-44.278-99.379-54.288-147.542c-36.848 43.674 54.288 238.542 54.288 238.542s91.136-194.868 54.288-238.542z" fill="#738c96"/><path d="m231.615 218.142-23.629-40.625s-31.458-86.434-31.458-130.913c-17.01 8.146-42.841 17.861-67.85 27.203 0 0 16.509 191.16 16.509 221.483 0 11.855-13.583 97.679-18.57 131.702 0 17.914 45.459 49.786 124.999 49.786v-258.636z" fill="#6bbdd5"/><path d="m203.5 294.185v4.564 140.977c0 10.327 2.321 19.35 6.49 27.052-47.333-2.46-87.819-24.807-103.374-39.786-1.121 7.647-1.809 12.688-1.809 13.672 0 11.584 49.149 46.336 113.693 46.336 32.942 0 60-16.041 60-47.273v-140.978l-46.885-80.608c-15.623 35.762-28.115 65.206-28.115 76.044z" fill="#5595a2"/><path d="m194.212 25.643c-13.929 16.509-17.684 20.96-17.684 20.96-10.966 14.1-19.53 41.202-23.916 57.231-1.984 7.251 1.684 14.852 8.605 17.788l18.93 8.031-14.891 22.48c-3.728 5.629-3.237 13.055 1.201 18.143l57.381 65.795h15.994v-36.706c-29.834-68.86-63.267-152.806-45.62-173.722z" fill="#bae6ef"/><path d="m223.836 236.071 54.664 62.678v-4.564c0-8.652-18.513-48.293-38.67-94.821-5.639 12.901-11.096 25.302-15.994 36.707z" fill="#6bbdd5"/><path d="m382.193 439.152c0-5.361-20.379-120.611-20.379-143.862 0-23.419 7.69-228.552 7.69-228.552-18.592-7.048-36.287-14.032-49.031-20.135 0 44.479-31.458 130.913-31.458 130.913l-70.515 121.233v140.977c0 20.901 12.127 34.987 30.016 42.027 71.838 10.596 133.677-36.616 133.677-42.601z" fill="#6bbdd5"/><path d="m371.814 295.29c0-30.323 16.509-221.483 16.509-221.483-6.272-2.343-12.595-4.709-18.818-7.068-5.535 63.349-17.69 205.132-17.69 228.552 0 23.251 20.379 134.501 20.379 139.862 0 5.985-49.053 43.232-123.677 46.602 8.843 3.48 19.087 5.246 29.984 5.246 64.543 0 113.693-34.752 113.693-46.336-.001-5.362-20.38-130.856-20.38-145.375z" fill="#5595a2"/><path d="m302.788 25.643c29.57 35.047-84.288 247.085-84.288 268.542v4.564l112.045-128.473c4.438-5.088 4.929-12.514 1.201-18.143l-14.891-22.48 18.93-8.031c6.921-2.936 10.589-10.537 8.605-17.788-4.386-16.029-12.95-43.131-23.916-57.231-.001.001-3.757-4.451-17.686-20.96z" fill="#bae6ef"/><g fill="#488089"><ellipse cx="248.5" cy="424.727" rx="8.083" ry="8"/><circle cx="248.5" cy="364.727" r="8"/><circle cx="248.5" cy="304.727" r="8"/></g></g></svg>