<svg id="Capa_1" enable-background="new 0 0 497 497" height="512" viewBox="0 0 497 497" width="512" xmlns="http://www.w3.org/2000/svg"><g><path d="m64.673 352.958 70.742-210.096-11.835-86.049c-8.984 3.354-15.978 10.561-19.059 19.634l-85.209 251.175z" fill="#f3d69e"/><path d="m116.213 124.571c2.216 19.67 4.201 37.291 4.201 37.291l-59.741 176.096c-.621 1.831-2.608 2.811-4.439 2.19l-36.922-12.526-1.248 3.678c-2.661 7.845 1.541 16.362 9.386 19.024l29.762 10.097c7.845 2.661 16.362-1.541 19.024-9.386l60.425-178.109v-116.113h-13.082c-8.519 21.01-9.582 48.088-7.366 67.758z" fill="#edc472"/><path d="m470.358 337.547-78.61-263.026c-3.373-8.161-9.99-14.595-18.328-17.708h-13.082v116.113l58.784 173.271z" fill="#f3d69e"/><path d="m478.936 331.3-86.456-254.853c-.222-.653-.47-1.293-.731-1.927l-2.947 30.348c-.98 10.09.198 20.273 3.454 29.873l65.979 194.49c.621 1.831-.359 3.818-2.19 4.439l-36.922 12.526 1.641 4.838c2.661 7.845 11.179 12.047 19.024 9.386l29.762-10.097c7.845-2.661 12.047-11.178 9.386-19.023z" fill="#edc472"/><path d="m467.695 310.312-4.819-14.205c-1.331-3.922-12.411-2.668-16.333-1.337l-8.513 2.888c-1.831.621-2.811 2.608-2.19 4.439l7.389 21.781c.621 1.831 2.608 2.811 4.439 2.19l8.512-2.888c3.923-1.331 12.846-8.945 11.515-12.868z" fill="#edc472"/><path d="m478.81 307.583-4.819-14.205c-1.331-3.923-5.589-6.024-9.512-4.693l-17.935 6.085c3.922-1.33 8.181.771 9.511 4.693l4.819 14.205c1.331 3.923-.77 8.181-4.693 9.512l17.936-6.085c3.922-1.331 6.023-5.589 4.693-9.512z" fill="#e3a76f"/><path d="m49.331 326.068-26.448-8.973c-3.923-1.331-6.024-5.589-4.693-9.512l4.819-14.205c1.331-3.923 5.589-6.024 9.512-4.693l26.448 8.973c1.831.621 2.811 2.608 2.19 4.439l-7.389 21.781c-.621 1.83-2.608 2.811-4.439 2.19z" fill="#edc472"/><path d="m386.159 457.211-39.207-248.194 7.277-159.375c-19.861-7.455-29.808-11.411-42.628-17.55h-126.202c-16.392 7.85-28.086 12.129-61.82 24.722 0 0 5.961 52.911 13.082 116.113 2.292 20.341 2.054 49.005-1.618 71.142l-33.259 200.463c18.375 24.221 86.837 42.468 146.716 42.468 90.699 0 137.659-29.789 137.659-29.789z" fill="#f3d69e"/><path d="m248.5 477c-59.879 0-111.985-16.516-146.716-32.469l-1.352 8.15c-1.078 6.497 2.206 12.923 8.093 15.874 19.138 9.594 66.139 28.445 139.975 28.445 23.851 0 44.885-1.973 63.101-4.96v-20.224c-17.318 3.056-38.284 5.184-63.101 5.184z" fill="#edc472"/><path d="m396.568 452.681-34.611-208.613c-3.673-22.137-3.91-50.802-1.618-71.142 7.121-63.202 13.082-116.113 13.082-116.113-7.352-2.745-13.657-5.094-19.192-7.172-3.11 27.601-8.947 79.416-13.89 123.284-2.292 20.341-2.054 49.005 1.618 71.142l33.352 201.026c.527 3.179-1.027 6.338-3.874 7.849-6.943 3.684-21.649 10.407-44.835 15.81v20.484c29.99-6.319 50.695-15.078 61.875-20.682 5.888-2.95 9.171-9.377 8.093-15.873z" fill="#edc472"/><path d="m322.838 186.267c-9.446-10.672-45.821-53.557-70.023-85.859l-22.918 18.353 81.704 76.725v276.33c5.349-.944 10.342-1.977 15-3.063v-272.55c0-3.66-1.337-7.195-3.763-9.936z" fill="#edc472"/><path d="m311.601 471.816v20.224c5.234-.858 10.235-1.799 15-2.803v-20.484c-4.658 1.086-9.651 2.119-15 3.063z" fill="#e3a76f"/><path d="m338.382 80.429c-6.607-15.648-16.35-35.973-26.782-48.338-3.293-3.903-3.293-3.903-15.505-18.377l-40.781 90.007c0 31.964 23.135 56.976 45.733 56.976l20.282-6.101c6.612-1.989 9.267-9.922 5.183-15.49l-47.5-64.772 46.324 19.222c8.265 3.43 16.527-4.884 13.046-13.127z" fill="#f4e2c1"/><path d="m248.499 118.761v57.743l52.548-15.807c-13.999-16.751-31.599-38.321-45.733-56.976z" fill="#f3d69e"/><path d="m311.601 195.486-135.932-40.889c-6.612-1.989-9.267-9.922-5.183-15.49l47.5-64.772-46.324 19.222c-8.265 3.429-16.526-4.884-13.046-13.128 6.608-15.648 16.35-35.973 26.782-48.338 3.293-3.903 3.293-3.903 15.505-18.377l47.596 105.046c30.378 40.548 63.102 76.726 63.102 76.726z" fill="#f4e2c1"/><path d="m283.471 5.229c-8.255-3.29-19.725-5.229-34.971-5.229-25.7 0-40.674 5.51-47.596 13.715 0 21.543 15.904 52.745 47.596 95.046 29.465-39.327 59.433-86.583 34.971-103.532z" fill="#edc472"/><g fill="#e3a76f"><path d="m296.096 13.715c-2.816-3.338-6.965-6.229-12.625-8.485 8.772 16.333-5.507 44.204-34.971 83.531-31.693-42.301-47.645-69.172-47.596-75.046-13.237 15.689 15.903 62.745 47.596 105.046 31.693-42.301 60.833-89.357 47.596-105.046z"/><ellipse cx="281.163" cy="383.167" rx="8.011" ry="7.938"/><ellipse cx="215.837" cy="383.167" rx="8.011" ry="7.938"/><circle cx="281.163" cy="300.562" r="7.938"/><circle cx="215.837" cy="300.562" r="7.938"/><circle cx="281.163" cy="217.959" r="7.938"/><circle cx="215.837" cy="217.959" r="7.938"/></g></g></svg>