<svg id="Capa_1" enable-background="new 0 0 497 497" height="512" viewBox="0 0 497 497" width="512" xmlns="http://www.w3.org/2000/svg"><g><path d="m361.054 22.951s-64.932 38.237-112.554 38.237-112.483-38.184-112.554-38.237c-11.661 8.182-21.79 18.382-29.892 30.142l-76.897 111.613 54.009 124.4 165.834 140.505 164.9-140.289 53.944-124.616c-.001 0-95.283-133.686-106.79-141.755z" fill="#f5fcff"/><g fill="#dcf2f6"><path d="m372.146 99.812c-1.202-3.964-5.387-6.206-9.353-5.003-3.964 1.201-6.204 5.389-5.002 9.353l37.082 122.37 28.247 41.492z"/><path d="m134.207 94.809c-3.966-1.203-8.151 1.039-9.353 5.003l-50.919 168.033 28.193-41.313 37.082-122.37c1.201-3.964-1.039-8.151-5.003-9.353z"/><path d="m345.722 33.387c11.507 8.069 20.838 17.696 26.923 26.528l86.323 125.294 8.875-20.502-76.897-111.614c-8.102-11.76-18.231-21.96-29.892-30.142-.021.016-15.332 3.067-15.332 10.436 0-.001 0-.001 0 0z"/></g><path d="m341.598 10.634c-5.034-3.128-11.431-2.988-16.342.33-14.906 10.07-48.292 30.225-76.756 30.225s-61.851-20.154-76.756-30.225c-4.911-3.318-11.308-3.458-16.342-.33l-13.868 8.618c-1.9 1.181-3.761 2.417-5.588 3.699.071.053 64.932 48.237 112.554 48.237 33.342 0 75.131-23.618 97.222-37.802l-.141-20.277z" fill="#6bbdd5"/><path d="m345.581 13.109c-7.941 4.462-9.381 13.6.141 20.277 9.461-6.074 15.311-10.419 15.332-10.435-1.827-1.282-3.688-2.518-5.588-3.699z" fill="#5595a2"/><path d="m12.052 189.534 74.591 87.502 3.013-61.071-60.499-51.259z" fill="#6bbdd5"/><path d="m75.213 263.628 17.434-5.809 9.481-31.287-12.472-10.567z" fill="#5595a2"/><path d="m2.648 203.182c-4.372 6.346-3.224 14.973 2.656 19.955l65.39 55.403 15.949-1.504-6.468-29.784-68.124-57.719z" fill="#dc805a"/><path d="m70.694 278.54 15.949 13.512v-15.016l6.004-19.217-12.472-10.567z" fill="#d66b3e"/><path d="m407.344 215.965 2.881 61.231 79.12-64.955-36.025-35.23z" fill="#6bbdd5"/><path d="m470.426 201.838 14.522-12.304-17.105-24.828-14.523 12.305z" fill="#5595a2"/><path d="m407.344 215.965-12.472 10.567 9.481 31.287 12.472-10.567z" fill="#5595a2"/><path d="m410.225 277.196 79.12-64.955-18.919-10.403-53.601 45.414z" fill="#dc805a"/><path d="m494.352 203.182-9.403-13.648-14.523 12.305.926 1.344c4.372 6.346 3.224 14.973-2.656 19.955l-47.089 39.897-4.782-15.781-12.471 10.567 5.872 19.377v15.423l81.471-69.482c5.879-4.984 7.027-13.611 2.655-19.957z" fill="#d66b3e"/><path d="m248.53 470.918 171.187-162.398-9.492-31.324-151.986 129.09c-5.6 4.756-13.821 4.756-19.421 0l-152.175-129.25-9.397 31.402z" fill="#6bbdd5"/><path d="m423.502 321.013-3.786-12.493-161.476 137.15c-5.6 4.756-13.821 4.756-19.421 0l-161.573-137.232-3.778 12.626c-3.414 11.409.243 23.757 9.32 31.466l154.144 130.923 175.584-139.115c12.277-10.165 10.986-23.325 10.986-23.325z" fill="#dc805a"/><path d="m423.502 321.013s-2.185 5.832-11.29 13.566l-175.28 148.875 1.886 1.602c5.6 4.756 13.821 4.756 19.421 0l155.974-132.476c9.105-7.735 12.754-20.134 9.289-31.567z" fill="#d66b3e"/></g></svg>