<svg id="Capa_1" enable-background="new 0 0 496.995 496.995" height="512" viewBox="0 0 496.995 496.995" width="512" xmlns="http://www.w3.org/2000/svg"><g><path d="m220.513 319.616-101.488-23.42c-7.597-1.753-15.239 2.613-17.653 10.026-2.971 9.126-8.286 22.116-17.488 36.302l72.548 62.09c31.318-18.741 64.081-57.88 64.081-84.998z" fill="#f3d69e"/><path d="m220.513 319.616c-13.776 28.775-31.046 53.791-59.738 72.299-2.58 1.665-5.927 1.561-8.421-.23l-68.47-49.162c-4.384 6.759-2.777 15.752 3.768 20.451l87.95 63.149 90.239-53.048v-43z" fill="#edc472"/><path d="m247.838 77.014c-4.803-3.574-11.27-3.95-16.455-.956l-129.271 74.635c-5.615 3.242-8.511 9.724-7.181 16.07l7.386 35.212 167.747 10c12.169-24.009 30.922-57.846 48.769-81.613z" fill="#f3d69e"/><path d="m318.833 130.361c-20.106 22.105-34.879 44.917-46.71 67.608-1.287 2.468-3.85 4.005-6.633 4.005h-163.173l1.695 8.079c1.457 6.946 7.583 11.921 14.68 11.921h226.618v-71.718z" fill="#edc472"/><path d="m179.843 433.842c55.176-31.855 76.787-77.691 98.485-134.082 31.43-81.678 54.135-136.835 134.401-188.377l10.661-17.13c-4.389-6.903-13.706-9.026-20.766-4.492-169.083 108.579-122.79 258.877-232.281 322.091-44.003 25.405-95.699 42.066-143.855 55.627-7.404 2.085-12.412 9.318-11.201 16.914.094.588.224 1.159.381 1.716h16.038c46.754-13.165 101.661-25.434 148.137-52.267z" fill="#da8bc1"/><path d="m471.282 248.496-55.717-134.003c-121.66 56.988-109.523 174.822-181.677 272.766l230.788-120.674c6.293-3.634 9.076-11.255 6.606-18.089z" fill="#f4e2c1"/><path d="m480.993 252.865-51.499-144.394c-4.832 1.922-9.468 3.932-13.929 6.022l45.428 127.372c2.47 6.834-.314 14.456-6.607 18.089l-220.498 127.305c-13.009 17.658-28.756 34.67-48.523 50.562l289.022-166.867c6.293-3.634 9.077-11.255 6.606-18.089z" fill="#f3d69e"/><path d="m429.494 108.471c-1.799-4.978-3.549-9.232-5.298-12.786-.245-.498-.515-.976-.805-1.433l-12.661 8.13c-80.266 51.542-104.972 106.699-136.401 188.377-21.698 56.391-41.309 102.227-96.485 134.082-46.476 26.833-100.537 43.91-147.29 57.075l-14.885 4.192c2.245 7.949 10.718 12.568 18.716 10.316 47.654-13.42 103.05-30.932 150.959-58.592.007-.004.014-.008.021-.012l-.021.012.021-.012c131.926-76.187 77.875-233.362 244.129-329.349z" fill="#d273b3"/><path d="m253.209.67c-7.569-1.42-15.722-.727-16.443 3.467-.199 1.159-13.13 76.392-13.13 76.392v10l-3.305 9.229-17.569 102.215 20.847 10z" fill="#da8bc1"/><path d="m253.209.67c-6.749 39.268-28.453 165.541-33.531 195.081-.619 3.599-3.739 6.223-7.39 6.223h-9.526c-2.128 12.381-3.438 20-3.438 20h30.44l21.277-123.789v-10l2.856-6.617s12.108-70.443 12.435-72.348c.683-3.971-5.958-7.206-13.123-8.55z" fill="#d273b3"/><path d="m230.424 76.611-6.788 3.919-3.305 19.229 20.193-11.658v-13.624c-3.435-.366-6.971.328-10.1 2.134z" fill="#eaacde"/><path d="m248.778 77.721c-2.464-1.851-5.323-2.933-8.255-3.245l-2.6 15.125c.581-.336 1.306-.293 1.843.112l11.274 8.472 2.856-16.617z" fill="#da8bc1"/></g></svg>