<svg id="Capa_1" enable-background="new 0 0 497 497" height="512" viewBox="0 0 497 497" width="512" xmlns="http://www.w3.org/2000/svg"><g><path d="m401.33 252.776c-16.187-45.074-36.614-125.071-36.614-160.494-35.071 10.037-45.771 48.753-47.607 105.123 31.553 0 55.631 19.847 84.221 55.371z" fill="#eaab8a"/><path d="m384.709 89.696c-7.417 0-14.052.886-19.994 2.586.559 39.041 3.495 71.741 12.272 105.388 1.845 7.073-6.478 12.27-12.099 7.598-18.159-15.097-33.107-16.2-47.78-7.862-.212 6.496-.307 13.221-.307 20.169 28.444-16.422 55.095 11.682 106.628 100.008l14.254 2.154 6.198-13.962c-47.565-85.36-58.085-138.022-59.172-216.079z" fill="#dc805a"/><path d="m443.881 305.774-20.452 11.808c2.334 4 4.715 8.115 7.154 12.364 2.071 3.587 6.658 4.816 10.245 2.745l7.357-4.248c3.587-2.071 4.816-6.658 2.745-10.245-2.436-4.22-4.783-8.358-7.049-12.424z" fill="#d66b3e"/><path d="m134.61 347.652c-5.426 22.981-87.519 85.368-89.478 112.688-.514 7.164 1.884 13.824 5.248 19.484 58.935 0 118.598-15.193 185.804-47.562z" fill="#87a0af"/><path d="m50.381 479.824c3.243 5.456 7.385 9.981 10.69 13.121 3.319 3.152 7.921 4.56 12.449 3.893 22.175-3.266 95.013-15.793 162.664-47.611v-16.965h-16.964c-65.135 28.891-141.153 43.155-168.839 47.562z" fill="#738c96"/><path d="m284.809 0c-5.495 0-10.581 2.984-13.18 7.825-5.146 9.588-8.603 21.285-10.915 34.68l86.407 52.784 27.479-11.923c0-18.031-9.317-48.748-28.743-65.308-23.662-14.922-51.18-18.058-61.048-18.058z" fill="#87a0af"/><path d="m381.445 65.334c-6.096-22.521-20.006-37.452-35.587-47.277 9.796 11.606 17.107 31.238 18.572 60.584-6.257 5.383-12.03 10.937-17.308 16.647l5.811 27.597c9.208-11.937 19.907-23.142 31.777-33.19-.126-8.976-1.29-17.062-3.265-24.361z" fill="#738c96"/><path d="m260.714 42.505c-3.885 22.51-4.537 49.817-4.537 79.974v140s-17.357 45.436-41.77 47.49l-61.496 5.174c-6.467.544-11.85 5.185-13.341 11.5l-4.96 21.008 84.609 84.609c20 0 43.947-10.783 52.482-16.902 33.007-23.664 37.091-50.708 37.099-81.786.005-18.818.002-92.244.002-116 0-41.872 13.6-84.439 38.318-122.285-11.197-32.781-36.571-46.14-86.406-52.782z" fill="#e7f6f9"/><path d="m352.942 122.89c-1.192-10.484-3.091-19.611-5.82-27.601-34.251 37.053-48.318 80.413-48.318 122.285 0 23.756.003 97.182-.002 116-.008 31.077-5.08 58.122-46.067 81.786-10.599 6.119-21.884 11.743-33.515 16.902l16.965 16.965c9.677-4.551 19.248-9.497 28.549-14.867 40.987-23.664 52.059-51.708 52.067-82.786.005-18.818 0-110.244 0-134 0-31.882 13.613-65.48 36.141-94.684z" fill="#d0eef4"/></g></svg>