<svg id="Capa_1" enable-background="new 0 0 497 497" height="512" viewBox="0 0 497 497" width="512" xmlns="http://www.w3.org/2000/svg"><g><path d="m388.782 116.948 27.557-27.557c0-14.633-5.27-40.61-23.52-60.943-32.363-22.582-73.335-28.448-87.134-28.448-8.176 0-14.997 6.551-14.997 14.727 0 124.616-100.034 151.107-100.034 151.107l-13.372-14.687c-7.101-6.078-15.511-10.589-24.622-10.103-7.181.383-12.964 6.067-13.804 13.209l-13.562 115.225c-3.001 25.499-14.102 49.363-31.671 68.086l-76.489 81.512c-5.346 5.697-5.424 14.544-.179 20.334l.79.852h10.225v11.023l6.161 6.642c33.755 0 121.214-45.26 188.427-111.79 66.358-65.682 110.507-173.475 166.224-229.189z" fill="#e3a76f"/><path d="m17.745 440.262 10.225 11.023 120.55-128.465c17.443-18.589 28.691-42.769 31.671-68.086l10.464-88.901c-3.574-4.826-8.117-10.183-13.375-14.683l-11.986 101.83c-2.608 22.153-12.449 43.311-27.712 59.576z" fill="#c48958"/><path d="m432.141 81.588c-6.786-23.774-21.793-40.907-39.323-53.139 11.139 15.69 13.52 36.309 13.52 50.943l-27.557 27.557c-55.717 55.714-99.865 163.507-166.223 229.189-67.213 66.528-155.398 108.974-178.427 121.788l22.858 24.641c21.104-11.99 111.191-54.749 179.57-122.431 66.358-65.682 110.506-173.475 166.223-229.189l39.36-39.36z" fill="#c48958"/><path d="m442.748 81.588c-2.929-2.929-7.678-2.929-10.607 0l-39.36 39.36c-55.717 55.714-99.865 163.507-166.223 229.189-68.378 67.682-158.465 110.441-179.569 122.431-3.514 1.996-4.81 6.411-2.937 9.993l3.34 6.389c14.731 5.437 130.846-57 195.913-122.067 63.45-63.45 102.959-152.706 130.041-171.112l9.002 9.003 50.79-41.003 41.003-50.79z" fill="#f3d69e"/><g fill="#edc472"><path d="m237.305 360.882c-65.068 65.068-150.39 106.139-189.914 128.068 3.973 7.599 13.49 10.319 20.889 5.985 27.965-16.38 114.423-58.518 179.491-123.586 63.45-63.45 94.15-137.329 125.574-175.579l-7.297-7.297c-1.485-1.485-3.933-1.344-5.229.308-30.607 39.014-61.723 110.311-123.514 172.101z"/><path d="m479.534 118.374-5.393-5.393-91.793 91.793 5.394 5.393c5.858 5.858 15.355 5.858 21.213 0l70.579-70.58c5.858-5.858 5.858-15.356 0-21.213z"/></g></g></svg>