<svg id="Capa_1" enable-background="new 0 0 497.153 497.153" height="512" viewBox="0 0 497.153 497.153" width="512" xmlns="http://www.w3.org/2000/svg"><g><path d="m158.78 161.697s-1.476-2.515-12.096-20.615-33.902-24.163-52.002-13.543c-9.05 5.31-12.082 16.951-6.772 26.001s23.958 40.832 23.958 40.832l-3.273 12.002v20l-12.273 25-12.273 45v20l-12.273 25c-51.388 51.389-71.776 70.948-71.776 98.625 0 3.772.532 7.462 1.515 11.025 106.229 0 186.932-25.458 235.03-60.519z" fill="#dcf2f6"/><path d="m156.595 206.374h-48l-12.272 45h48z" fill="#f5fcff"/><path d="m119.777 341.374 12.273-45h-48l-12.273 45z" fill="#f5fcff"/><path d="m1.515 451.024c1.587 5.755 4.357 11.176 8.004 16.058 80.927 0 143.24-1.38 227.025-76.577h-55.396c-48.097 35.061-105.827 59.273-179.633 60.519z" fill="#bae6ef"/><path d="m425.355 87.098c-14.952-28.158-55.915-49.847-123.877-61.078l-20.952-15.813c-13.177-9.945-32.048-.545-32.048 15.964v76.033c0 32.857-26.636 59.494-59.494 59.494h-30.204l-12.185 44.677v20l-12.273 25-12.273 45v20l-12.273 25-3.065 11.237c-.995 3.65-1.27 7.288-.933 10.787 6.019 4.694 16.033 17.106 29.876 17.106h80.667c68.707-59.131 215.509-267.481 209.034-293.407z" fill="#87a0af"/><path d="m431.83 113.024c0-9.119-2.155-17.792-6.475-25.926-12.797 18.816-46.393 67.905-83.276 119.276l-32.798 45c-11.779 15.884-23.374 31.176-34.235 45l-37.877 45c-1.48 1.563-2.912 3.039-4.288 4.415-8.533 8.533-17.37 16.805-26.559 24.715h-70.667c-13.843 0-23.857-2.412-29.876-7.106 1.426 14.802 13.877 27.106 29.876 27.106h100.889c6.707-6.019 13.548-12.5 20.55-19.502 9.708-9.708 19.014-19.621 27.933-29.628v-20l37.191-25c11.711-15.249 22.505-30.366 32.371-45v-20l28.554-25c32.221-53.994 48.687-93.35 48.687-93.35z" fill="#738c96"/><path d="m134.323 251.374h174.958l32.798-25v-20h-195.484z" fill="#eaacde"/><path d="m342.079 206.374c-10.798 15.039-21.876 30.272-32.798 45h45.309c10.592-15.711 20.113-30.856 28.554-45z" fill="#da8bc1"/><path d="m109.777 341.374h127.392l37.877-25v-20h-152.996z" fill="#eaacde"/><path d="m237.169 341.374h47.859c13.278-14.898 25.678-30.009 37.191-45h-47.173c-14.326 18.233-27.372 33.906-37.877 45z" fill="#da8bc1"/><path d="m263.095 376.002c34.848-34.848 224.115-244.386 224.115-244.386l-55.379-18.592s-129.642 191.458-184.949 246.765c-58.804 58.805-131.87 107.292-237.363 107.292 3.681 4.927 8.267 9.287 13.409 12.908 0 0 11.648 6.03 20.525 6.03 63.666 0 136.43-26.805 219.642-110.017z" fill="#f5fcff"/><path d="m487.209 131.616s-195.267 204.538-230.115 239.386c-83.212 83.212-161.322 107.492-224.97 109.016-3.237 0-6.299.002-9.196-.03 9.75 6.867 21.534 11.03 33.196 11.03 57.931 0 136.758-34.804 211.97-110.016l224.659-224.659c7.782-7.781 4.815-21.013-5.544-24.727z" fill="#dcf2f6"/></g></svg>