<svg id="Capa_1" enable-background="new 0 0 497 497" height="512" viewBox="0 0 497 497" width="512" xmlns="http://www.w3.org/2000/svg"><g><path d="m226.068 459.019 161.301-38.441 90.89-146.022s-24.52-32.268-24.52-54.958v-87.663h-160c-11.046 0-20-10-20-10v96.977c0 19.827-9.794 38.373-26.169 49.552l-103.371 70.576-10 35.785z" fill="#e3a76f"/><path d="m293.739 141.935h150v77.663c0 22.689 7.673 38.841 15.649 57.605l18.871-2.647c-7.555-17.66-14.52-33.342-14.52-54.958v-117.663l-190 20c0 11.046 8.954 20 20 20z" fill="#c48958"/><path d="m388.16 390.43 90.34 5.42s8.5-22.594 8.5-36.965c0-38.019-12.952-61.448-27.612-81.683-34.919 9.915-65.948 47.697-71.228 113.228z" fill="#c48958"/><path d="m224.952 429.12c-4.109-31.946-20.991-52.475-73.467-54.18-4.054-.132-7.285-3.438-7.285-7.494v-28.406h-86.156c-24.397 0-44.35 19.441-44.985 43.83l-1.071 21.101c7.698 18.973 93.445 36.404 185.295 36.404 17.359-.001 27.669-11.255 27.669-11.255z" fill="#c48958"/><path d="m224.952 429.12c-9.003.848-18.211 1.304-27.669 1.254-91.848-.487-161.182-19.547-185.295-26.404v20c23.397 6.443 92.45 35.911 185.295 36.404 9.848.052 19.429-.439 28.785-1.355 0-4.417 0-7.997 0-10 0-7.029-.316-13.68-1.116-19.899z" fill="#9a6a53"/><path d="m459.388 277.203c8.629 20.302 17.612 43.664 17.612 81.683 0 5.039-.43 9.86-.989 13.995-1.005 7.435-7.362 12.969-14.864 12.969h-27.31c-15.574 0-30.713 1.762-45.676 4.58-.519 6.448-.791 13.162-.791 20.148v10c15.221-2.905 30.619-4.728 46.468-4.727l55.664-10s7.5-22.024 7.5-46.965c0-39.682-9.785-63.396-18.741-84.33-6.333 0-12.664.884-18.873 2.647z" fill="#9a6a53"/><path d="m388.16 390.43c-52.794 9.94-103.405 33.06-163.208 38.69l1.116 29.898c59.02-5.781 161.301-38.441 161.301-38.441z" fill="#c48958"/><path d="m487 470.374-10-64.523h-43.164c-78.794-.002-146.458 45.001-236.554 44.524-92.845-.492-161.899-19.961-185.297-26.404-3.894-1.072-7.931 1.135-9.139 4.99l-2.156 6.879c10.539 19.003 107.796 36.534 196.592 36.534 86.589 0 132.336-27.359 189.902-27.359v15.359z" fill="#f4e2c1"/><path d="m197.283 465.374c-88.796 0-162.419-18.365-196.592-29.534-2.564 8.183 2.242 16.836 10.539 19.003 31.357 8.191 97.257 25.531 186.053 25.531 86.589 0 140.635-30.532 189.902-35.359v-15c-49.266 4.826-103.313 35.359-189.902 35.359z" fill="#f3d69e"/><path d="m489.5 405.851h-12.5v47.023c0 4.142-3.358 7.5-7.5 7.5h-82.314v5c0 8.284 6.716 15 15 15h79.814c8.284 0 15-6.716 15-15v-52.023c0-4.143-3.358-7.5-7.5-7.5z" fill="#f3d69e"/><g fill="#c48958"><path d="m273.739 121.935-32.734-78.561c-3.004-7.209-.003-15.581 6.968-19.102 32.116-16.224 61.334-5.114 72.569 19.102z"/><path d="m285.853 226.432c-.006 0-.013 0-.019 0l-16.726-.041c-4.142-.01-7.492-3.376-7.481-7.519.01-4.136 3.366-7.481 7.5-7.481h.019l16.726.041c4.142.01 7.492 3.376 7.481 7.519-.011 4.136-3.367 7.481-7.5 7.481z"/><path d="m285.853 177.999c-.006 0-.013 0-.019 0l-16.726-.041c-4.142-.01-7.492-3.376-7.481-7.519.01-4.136 3.366-7.481 7.5-7.481h.019l16.726.041c4.142.01 7.492 3.376 7.481 7.519-.011 4.135-3.367 7.481-7.5 7.481z"/><path d="m285.853 121.935c-.006 0-.012 0-.019 0l-16.726-.04c-4.142-.01-7.492-3.376-7.482-7.518.01-4.136 3.366-7.482 7.5-7.482h.019l16.726.04c4.142.01 7.492 3.376 7.482 7.518-.011 4.135-3.367 7.482-7.5 7.482z"/><path d="m167.932 337.508c-.004-.005-.007-.01-.011-.016l-9.402-13.834c-2.329-3.426-1.439-8.09 1.987-10.419 3.421-2.325 8.076-1.441 10.408 1.972.004.005.007.01.011.016l9.402 13.834c2.329 3.426 1.439 8.09-1.987 10.419-3.42 2.324-8.076 1.44-10.408-1.972z"/><path d="m207.923 310.185c-.004-.005-.007-.01-.011-.016l-9.402-13.834c-2.329-3.426-1.439-8.09 1.987-10.419 3.421-2.325 8.076-1.441 10.408 1.972.004.005.007.01.011.016l9.402 13.834c2.329 3.426 1.439 8.09-1.987 10.419-3.42 2.324-8.076 1.441-10.408-1.972z"/><path d="m248.005 282.8c-.004-.005-.007-.01-.01-.015l-9.403-13.833c-2.329-3.426-1.439-8.09 1.986-10.419 3.42-2.325 8.077-1.442 10.409 1.971.004.005.007.01.01.015l9.403 13.833c2.329 3.426 1.439 8.09-1.986 10.419-3.42 2.325-8.077 1.442-10.409-1.971z"/></g><path d="m483.739 111.935-10-68.561h-170c-16.569 0-30 13.431-30 30v28.561z" fill="#f4e2c1"/><path d="m478.739 43.374h-5v51.061c0 4.142-3.358 7.5-7.5 7.5h-192.5v20h205c8.284 0 15-6.716 15-15v-48.561c0-8.284-6.716-15-15-15z" fill="#f3d69e"/></g></svg>