<svg id="Capa_1" enable-background="new 0 0 497 497" height="512" viewBox="0 0 497 497" width="512" xmlns="http://www.w3.org/2000/svg"><g><path d="m251.797 453.033c-6.904 11.958-4.417 26.754 5.163 35.869 17.045 6.421 31.827-2.906 36.853-11.612 25.068-43.419 101.329-155.307 101.329-155.307l20.879 77.922c1.568 5.852 4.386 10.463 7.958 13.909 16.417 9.918 39.22-2.63 39.22-25.022v-163.085c0-38.994-7.365-66.944-34.21-98.948l-120.388-61.34c-24.464 6.555-47.911 20.519-82.383 80.227 0 0-93.543 162.022-101.637 176.04-6.904 11.958-4.417 26.754 5.163 35.869 24.964 7.704 45.6-6.562 45.6-6.562l-25.071 43.425c-6.904 11.958-4.417 26.754 5.163 35.869 19.475 8.088 45.6-6.562 45.6-6.562l-9.177 15.896c-6.904 11.958-4.417 26.754 5.163 35.869 28.022 11.378 54.775-22.457 54.775-22.457z" fill="#87a0af"/><g fill="#738c96"><path d="m226.606 242.204c-4.783-2.761-10.899-1.123-13.66 3.66-1.515 2.624-29.855 51.71-54.923 95.129-5.026 8.706-14.135 14.304-28.28 16.562 1.65 1.57 3.505 2.977 5.565 4.166 14.018 8.093 31.942 3.29 40.035-10.727 25.071-43.425 52.161-90.346 54.923-95.129 2.762-4.784 1.123-10.9-3.66-13.661z"/><path d="m268.191 287.407c-4.783-2.761-10.899-1.123-13.66 3.66-1.515 2.624-45.749 79.24-70.817 122.658-5.026 8.706-14.135 14.304-28.279 16.562 1.65 1.57 3.505 2.977 5.565 4.166 14.018 8.093 31.942 3.29 40.035-10.727 25.071-43.425 68.056-117.875 70.817-122.658 2.761-4.784 1.122-10.9-3.661-13.661z"/><path d="m322.614 330.375c2.761-4.783 1.123-10.899-3.66-13.66s-10.899-1.123-13.66 3.66c-1.515 2.624-54.926 95.135-79.994 138.554-5.026 8.706-14.135 14.305-28.279 16.562 1.65 1.57 3.505 2.977 5.565 4.166 14.018 8.093 31.942 3.29 40.035-10.727l9.177-15.895c26.794-46.411 68.359-118.404 70.816-122.66z"/><path d="m425.654 249.136c-4.783-2.761-10.899-1.123-13.66 3.66-1.515 2.624-101.686 176.126-126.754 219.545-5.026 8.706-14.135 14.304-28.28 16.562 1.65 1.57 3.505 2.976 5.565 4.166 14.018 8.093 31.942 3.29 40.035-10.727 8.093-14.018 92.582-160.357 92.582-160.357 25.071-43.425 31.411-54.405 34.172-59.188s1.123-10.899-3.66-13.661z"/><path d="m453.034 148.807-24.044-22.047-9.659 2.588c26.845 32.005 34.21 59.955 34.21 98.948v163.085c0 17.599-16.232 25.907-29.561 22.434 16.628 16.045 49.656 6.715 49.656-21.494v-166.303c-.002-51.417-20.602-77.211-20.602-77.211z"/></g><path d="m464.391 138.444 21.981-38.072c4.047-7.009 3.297-15.018-14.024-25.017l-127.112-73.389c-7.009-4.047-15.971-1.645-20.018 5.364l-21.981 38.072c-4.047 7.009-1.645 15.971 5.364 20.017l127.112 73.388c17.321 10 24.631 6.645 28.678-.363z" fill="#f3d69e"/><path d="m489.668 85.354-17.32-10c7.009 4.047 9.41 13.009 5.364 20.017l-21.981 38.072c-4.047 7.009-13.009 9.41-20.018 5.364l17.32 10c7.009 4.046 15.971 1.645 20.018-5.364l21.981-38.072c4.047-7.008 1.645-15.97-5.364-20.017z" fill="#edc472"/><path d="m97.468 446.969c-9.764 9.763-11.191 24.699-4.297 35.983 14.802 10.613 31.494 5.43 38.602-1.678 35.451-35.451 138.073-123.789 138.073-123.789v80.671c0 6.059 1.529 11.242 4.087 15.495 13.291 13.829 38.565 7.61 44.36-14.018l42.21-157.528c10.092-37.665 10.213-66.569-7.434-104.431l-100.41-90.41c-25.327 0-51.59 7.42-100.34 56.171 0 0-132.29 132.29-143.736 143.736-9.764 9.764-11.191 24.699-4.297 35.983 22.119 13.903 45.745 5.464 45.745 5.464l-35.456 35.456c-9.764 9.764-11.191 24.699-4.297 35.983 16.718 12.853 45.744 5.464 45.744 5.464l-12.98 12.979c-9.764 9.764-11.191 24.699-4.297 35.983 24.124 18.243 58.723-7.514 58.723-7.514z" fill="#6bbdd5"/><path d="m127.702 236.803c-3.905-3.905-10.237-3.905-14.142 0-2.143 2.143-42.221 42.221-77.672 77.673-7.108 7.108-17.356 10.159-31.602 8.678 1.188 1.944 2.615 3.782 4.297 5.464 11.445 11.445 30.002 11.445 41.448 0 35.456-35.456 73.767-73.767 77.672-77.673 3.904-3.905 3.904-10.237-.001-14.142z" fill="#5595a2"/><path d="m156.171 291.229c-3.905-3.905-10.237-3.905-14.142 0-2.143 2.143-64.699 64.699-100.15 100.15-7.108 7.108-17.356 10.159-31.602 8.678 1.188 1.944 2.615 3.782 4.297 5.464 11.445 11.445 30.002 11.445 41.447 0l100.15-100.15c3.905-3.905 3.905-10.237 0-14.142z" fill="#5595a2"/><path d="m197.618 346.819c3.905-3.905 3.905-10.237 0-14.142s-10.237-3.905-14.142 0c-2.143 2.142-77.678 77.678-113.129 113.129-7.108 7.108-17.356 10.159-31.602 8.678 1.188 1.944 2.615 3.782 4.297 5.464 11.445 11.446 30.002 11.446 41.447 0l12.979-12.979c37.893-37.894 96.675-96.676 100.15-100.15z" fill="#5595a2"/><path d="m318.173 295.017c-3.905-3.905-10.237-3.905-14.142 0-2.143 2.142-143.806 143.806-179.258 179.258-7.108 7.108-17.356 10.159-31.602 8.678 1.188 1.944 2.615 3.782 4.297 5.464 11.445 11.445 30.002 11.445 41.448 0 11.445-11.446 130.931-130.931 130.931-130.931l48.327-48.327s3.904-10.237-.001-14.142z" fill="#5595a2"/><path d="m370.587 205.193-17.519-27.519h-10c17.647 37.862 17.526 66.766 7.434 104.431l-42.21 157.528c-4.555 17-22.384 20.823-34.36 14.018 11.908 19.802 46.226 19.338 53.527-7.91l43.042-160.637c13.309-49.665.086-79.911.086-79.911z" fill="#5595a2"/><path d="m384.24 198.122 31.086-31.086c5.723-5.723 7.071-13.653-7.071-27.795l-103.788-103.787c-5.723-5.723-15.001-5.723-20.724 0l-31.085 31.086c-5.723 5.723-5.723 15.001 0 20.724l103.787 103.786c14.142 14.143 22.072 12.794 27.795 7.072z" fill="#f4e2c1"/><path d="m422.396 153.383-14.142-14.142c5.723 5.723 5.723 15.001 0 20.724l-31.086 31.086c-5.723 5.723-15.001 5.723-20.724 0l14.142 14.142c5.723 5.723 15.001 5.723 20.724 0l31.086-31.086c5.723-5.723 5.723-15.001 0-20.724z" fill="#f3d69e"/></g></svg>