<svg id="Capa_1" enable-background="new 0 0 496.981 496.981" height="512" viewBox="0 0 496.981 496.981" width="512" xmlns="http://www.w3.org/2000/svg"><g><path d="m303.474 303.475c123.06-123.06 214.89-261.922 175.913-300.899-45.74-17.876-171.84 58.853-294.899 181.912s-199.788 249.159-181.912 294.899c38.751 38.751 177.839-52.853 300.898-175.912z" fill="#87a0af"/><path d="m488.536 8.426c-2.538-2.538-5.611-4.467-9.15-5.85 17.876 45.74-58.853 171.84-181.912 294.899s-249.159 199.788-294.898 181.912c1.383 3.538 3.312 6.612 5.85 9.15 35.343 35.343 171.47-43.483 304.049-176.062s211.404-268.707 176.061-304.049z" fill="#738c96"/><path d="m220.498 219.981c84.625-84.625 60.557-122.355 60.548-122.374-47.652-26.01-104.419-30.796-159.568 24.354-55.178 55.178-50.359 111.975-24.314 159.642.153.068 38.906 22.806 123.334-61.622z" fill="#87a0af"/><path d="m296.141 106.716c-4.916-3.252-9.953-6.303-15.095-9.109.01.019 14.077 27.749-70.548 112.374-84.428 84.428-113.181 71.69-113.334 71.622 2.795 5.116 5.832 10.128 9.069 15.021 13.982 13.976 77.825-7.203 130.265-59.643 52.44-52.439 73.619-116.282 59.643-130.265z" fill="#738c96"/><path d="m258.498 258.981c65.484-65.484 87.718-108.912 68.126-128.504-9.491-8.534-19.698-16.625-30.484-23.761 13.976 13.982-17.203 67.825-69.643 120.265s-106.283 83.619-120.265 69.643c7.135 10.786 15.227 20.992 23.761 30.484 19.942 19.94 63.022-2.643 128.505-68.127z" fill="#da8bc1"/><path d="m338.835 142.059c-3.919-3.919-7.996-7.793-12.211-11.582 4.931 9.098-1.238 27.747-15.537 50.815-1.095 1.766-49.82 6.659-51.009 8.474-10.098 15.424-8.277 37.304 8.079 46.867-4.982 5.435-10.21 10.899-15.659 16.348-51.815 51.815-104.946 83.643-122.504 74.126 3.789 4.215 7.663 8.292 11.582 12.211 14.521 14.521 70.45-17.865 124.922-72.337 54.472-54.471 86.858-110.401 72.337-124.922z" fill="#d273b3"/><path d="m365.495 152.066c.714-3.36.089-12.565-3.202-17.656-1.295-.616-2.67-1.109-4.134-1.42 5.14-8.902 2.09-20.286-6.813-25.425-8.902-5.14-20.286-2.09-25.426 6.813-6.878-7.639-18.647-8.256-26.286-1.378-11.239 10.12-5.027 30.901 8.026 44.397 21.069 11.146 54.44 10.639 57.835-5.331z" fill="#da8bc1"/><path d="m362.293 134.41c.084 1.823-.084 6.295-.798 9.656-3.395 15.97-33.377 19.619-53.834 13.331 3.079 3.184 6.536 5.965 10.237 8.102 19.394 11.197 50.711 7.85 54.597-10.433 1.826-8.591-2.605-17.04-10.202-20.656z" fill="#d273b3"/><path d="m292.865 209.45c6.042 8.316 17.682 10.16 25.998 4.118s10.16-17.682 4.118-25.998c9.089-2.953 16.95-16.453 7.485-27.382-4.201-2.075-9.18-2.584-13.988-1.021 0-10.28-8.333-18.613-18.613-18.613-10.279 0-18.613 8.333-18.613 18.613-9.776-3.177-20.277 2.174-23.453 11.95-3.177 9.776 2.174 20.277 11.95 23.453-3.186 4.386-4.159 9.692-3.167 14.618 7.285 11.38 22.873 7.708 28.283.262z" fill="#eaacde"/><path d="m339.932 171.116c-1.614-4.968-5.124-8.785-9.465-10.929 1.857 9.146-3.396 18.429-12.485 21.382 6.042 8.316 4.199 19.956-4.118 25.998-8.316 6.042-19.956 4.199-25.998-4.118-5.41 7.446-15.301 9.683-23.282 5.737.89 4.415 3.354 8.525 7.284 11.381 8.316 6.042 19.956 4.199 25.998-4.118 6.042 8.316 17.682 10.16 25.998 4.118s10.16-17.682 4.118-25.998c9.776-3.176 15.126-13.676 11.95-23.453z" fill="#da8bc1"/></g></svg>