<svg id="Capa_1" enable-background="new 0 0 497 497" height="512" viewBox="0 0 497 497" width="512" xmlns="http://www.w3.org/2000/svg"><g><path d="m107.352 242.035c-4.143 0-7.5-3.357-7.5-7.5v-42.5c0-4.143 3.357-7.5 7.5-7.5s7.5 3.357 7.5 7.5v42.5c0 4.143-3.357 7.5-7.5 7.5z" fill="#f4e2c1"/><path d="m389.962 242.035c4.143 0 7.5-3.357 7.5-7.5v-42.5c0-4.143-3.357-7.5-7.5-7.5s-7.5 3.357-7.5 7.5v42.5c0 4.143 3.358 7.5 7.5 7.5z" fill="#f4e2c1"/><path d="m380.23 487c33.171 0 56.039-31.316 49.039-63.43l-31.807-189.035-148.805 10-148.805-10-41.005 187.433c-3.506 16.027-1.421 31.874 6.042 44.854 9.256 12.219 29.877 20.178 52.045 20.178z" fill="#dc805a"/><path d="m438.316 421.968-40.854-187.433h-19.824l41.247 189.233c5.874 26.95-13.298 53.232-41.136 53.232h-260.815c-22.168 0-39.265-4.244-52.045-10.177 10.226 17.785 29.361 30.177 52.045 30.177h109.157l22.491-10 22.51 10h109.138c39.239 0 66.366-37.044 58.086-75.032z" fill="#d66b3e"/><path d="m248.657 324.535c86.711 0 138.805-22.58 138.805-45.325l-10-44.676h-106.38l-22.425 10-22.575-10h-126.23v14.676c0 50.771 48.761 75.325 148.805 75.325z" fill="#c48958"/><path d="m377.462 234.535v34.676c0 22.744-42.094 45.325-128.805 45.325-100.044 0-148.805-29.247-148.805-65.324v20c0 36.078 48.76 65.324 148.805 65.324s148.805-29.247 148.805-65.325v-34.676z" fill="#9a6a53"/><path d="m261.157 332.639c0-8.284-5.075-98.104-5.075-98.104h-30s.041 49.411.062 78.974c.008.155.013.318.013.494 0 20.532 35 23.513 35 18.636z" fill="#f3d69e"/><path d="m271.082 234.535h-15s.075 79.82.075 88.104c0 4.877-30 6.872-30-8.635 0-.177-.005-.339-.013-.494.008 10.714.013 18.822.013 21.026 0 8.284 10.074 15 22.5 15s22.5-6.716 22.5-15c0-8.285-.075-100.001-.075-100.001z" fill="#edc472"/><path d="m256.155 395.391c-2.346-.553-4.868-.856-7.497-.856-12.426 0-22.5 6.716-22.5 15 0 5.587-.03 43.421-.05 67.465l36.984 10z" fill="#f3d69e"/><path d="m256.155 395.391c-.01 16.028-.043 57.156-.057 74.12-.003 4.14-3.36 7.489-7.5 7.489h-22.49c-.01 11.605-.016 20-.016 20h45s.066-79.181.066-87.465c-.001-6.531-6.264-12.085-15.003-14.144z" fill="#edc472"/><path d="m396.812 184.535c0-76.533-26.245-134.829-72.051-165.047-22.538-12.985-48.516-19.488-76.179-19.488-86.283 0-156.23 63.152-156.23 189.535 0 1.74.311 3.403.856 4.957 14.144 10.043 21.144-1.962 21.144-9.957 0-101.307 61.155-161.516 131.594-161.516 29.472 0 54.146 11.547 77.414 31.705 31.202 24.896 51.451 69.086 51.451 134.811 0 1.74.311 3.403.856 4.957 14.145 10.043 21.145-1.962 21.145-9.957z" fill="#c48958"/><path d="m238.575 17.057c-70.439 0-131.223 66.171-131.223 167.479 0 7.995-6.26 9.51-14.144 9.957 2.049 5.845 7.599 10.043 14.144 10.043 8.284 0 15-6.716 15-15 0-109.815 56.515-159.536 126.23-159.536 27.99 0 53.847 8.023 74.778 24.724-21.449-25.281-50.977-37.667-84.785-37.667z" fill="#9a6a53"/><path d="m324.761 19.489c39.395 30.176 65.051 88.513 65.051 165.047 0 7.995-6.26 9.51-14.144 9.957 2.049 5.845 7.599 10.043 14.144 10.043 8.284 0 15-6.716 15-15 0-85.864-32.292-142.53-80.051-170.047z" fill="#9a6a53"/><path d="m248.657 402.035c-16.542 0-30-13.458-30-30s13.458-30 30-30 30 13.458 30 30-13.458 30-30 30zm0-45c-8.271 0-15 6.729-15 15s6.729 15 15 15 15-6.729 15-15-6.728-15-15-15z" fill="#f4e2c1"/></g></svg>