<svg id="Capa_1" enable-background="new 0 0 497 497" height="512" viewBox="0 0 497 497" width="512" xmlns="http://www.w3.org/2000/svg"><g><path d="m248.5 25.676c-60.834 0-110.15 49.316-110.15 110.15v335.177h20.702c49.401-22.567 129.495-22.567 178.896 0h20.702v-335.177c0-60.834-49.316-110.15-110.15-110.15z" fill="#d273b3"/><path d="m400.876 358.843c0-37.82 28.344-53.835 13.846-107.432-13.185-48.747-39.736-146.949-39.736-146.949-10.173-37.703-32.184-72.397-68.848-92.21-17.602-7.872-37.107-12.252-57.638-12.252-65.307 0-120.272 44.28-136.509 104.455 0 0-26.528 98.208-39.713 146.955-14.497 53.597 13.846 69.613 13.846 107.432 0 37.82-45 49.022-45 86.841 0 5.21 1.095 10.083 3.163 14.593 15.618 17.778 51.548 26.724 117.837 26.724 0 0-21-24.46-21-41.316 0-37.82 45-49.022 45-86.841 0-37.82-45-47.581-45-103.104 0-21.217 0-43.098 0-61.342 98.107-40.185 121.905-63.241 133.139-133.1 0 20.423 3.399 38.927 10.08 55.138 16.665 18.437 61.532 60.657 61.532 60.657v78.646c0 55.523-45 65.284-45 103.104 0 37.819 44.997 49.021 45 86.838v.003c0 36.316-45 36.316-45 36.316s41.926 5 57 5c60.302 0 88-24.46 88-41.316.001-37.819-44.999-49.021-44.999-86.84z" fill="#eaacde"/><g fill="#da8bc1"><path d="m345.876 177.092c0-26.194 0-46.094 0-46.12v-.001c0-36.559-8.125-61.51-28.981-88.993-2.504-3.299-7.209-3.943-10.508-1.44-3.3 2.504-3.945 7.209-1.441 10.509 16.088 21.199 20.93 48.856 20.93 79.925v11.063s-24.868-7.162-41.532-25.599c11.29 27.396 31.966 48.235 61.532 60.656z"/><path d="m410.876 358.843c0-37.82 28.344-53.835 13.846-107.432-13.185-48.747-39.736-146.949-39.736-146.949-11.133-41.257-40.461-75.043-78.848-92.21 29.194 20.296 48.675 54.507 58.848 92.21 0 0 26.55 98.202 39.736 146.949 14.497 53.597-13.846 69.613-13.846 107.432 0 37.82 45 49.022 45 86.841 0 16.856-17.698 31.316-78 31.316-2.686 0-18.218 0-33.397 0-11.605 5-23.603 5-23.603 5-4.142 0-7.5 3.358-7.5 7.5s3.358 7.5 7.5 7.5h44.435l26.496-.401c49.631-2.916 84.07-21.602 84.07-50.916-.001-37.819-45.001-49.021-45.001-86.84z"/><path d="m266.763 53.797c-4.142 0-7.5 3.358-7.5 7.5 0 40.204-13.244 75.304-62.304 95.915l-45.835 18.837c0-14.473 0-26.943 0-35.075 0-.001 0-.002 0-.002 0-33.816 12.417-61.312 40.259-89.155 2.929-2.93 2.929-7.678 0-10.607-2.929-2.928-7.678-2.928-10.606 0-34.043 34.044-49.652 66.898-49.652 109.763v104.768c0 55.523 45 65.284 45 103.104s-45 49.022-45 86.841c0 16.856 11 31.316 11 31.316-51.944 0-80.775-7.862-97.837-16.724 9.566 20.863 40.099 33.925 80.907 36.323l26.494.399h44.435c4.142 0 7.5-3.358 7.5-7.5s-3.358-7.5-7.5-7.5c0 0-45 0-45-36.316 0-37.82 45-49.022 45-86.841 0-37.82-45-47.581-45-103.104 0-17.649 0-38.2 0-57.47l51.526-21.176c50.65-21.278 71.613-60.857 71.613-115.795 0-4.143-3.358-7.501-7.5-7.501z"/><path d="m393.376 445.684c0-21.83-13.003-35.995-24.475-48.492-11.013-11.998-20.525-22.359-20.525-38.349 0-14.445 7.771-24.044 17.609-36.197 12.203-15.073 27.391-33.834 27.391-66.907 0-4.143-3.358-7.5-7.5-7.5s-7.5 3.357-7.5 7.5c0 27.763-12.226 42.865-24.049 57.47-10.3 12.723-20.951 25.879-20.951 45.635 0 21.83 13.003 35.995 24.475 48.492 11.013 11.998 20.525 22.359 20.525 38.349 0 13.127-4.022 23.351-9.352 31.138v10l17.981-11.218c3.847-8.275 6.371-18.173 6.371-29.921z"/></g><path d="m387.005 475.603c-5.436.588-11.414 1.001-17.981 1.218-8.034 11.738-19.024 17.929-23.714 20.179h12.565c4.761 0 9.407-.138 13.93-.404 5.613-5.353 11.142-12.268 15.2-20.993z" fill="#d273b3"/><path d="m103.624 445.684c0-21.83 13.003-35.995 24.475-48.492 11.013-11.998 20.525-22.359 20.525-38.349 0-14.445-7.771-24.044-17.609-36.197-12.203-15.073-27.391-33.834-27.391-66.907 0-4.143 3.358-7.5 7.5-7.5s7.5 3.357 7.5 7.5c0 27.763 12.226 42.865 24.049 57.47 10.3 12.723 20.951 25.879 20.951 45.635 0 21.83-13.003 35.995-24.475 48.492-11.013 11.998-20.525 22.359-20.525 38.349 0 13.127 4.022 23.351 9.352 31.138v10l-17.981-11.218c-3.847-8.275-6.371-18.173-6.371-29.921z" fill="#da8bc1"/><path d="m109.995 475.603c5.436.588 11.414 1.001 17.981 1.218 8.034 11.738 19.024 17.929 23.714 20.179h-12.565c-4.761 0-9.407-.138-13.93-.404-5.613-5.353-11.142-12.268-15.2-20.993z" fill="#d273b3"/></g></svg>