<svg id="Capa_1" enable-background="new 0 0 497 497" height="512" viewBox="0 0 497 497" width="512" xmlns="http://www.w3.org/2000/svg"><g><path d="m315.813 60.822c-11.856-11.856-30.513-13.488-44.247-3.87l-57.763 40.45-116.401 116.401-40.45 57.762c-9.618 13.734-7.986 32.392 3.87 44.248l60.182 60.182 147.496-107.495 107.495-147.496z" fill="#edc472"/><path d="m375.995 121.004-254.991 254.991 60.183 60.183c11.856 11.856 30.513 13.488 44.247 3.87l57.763-40.45 116.401-116.401 40.45-57.763c9.618-13.734 7.986-32.391-3.87-44.247z" fill="#e3a76f"/><path d="m116.617 484.464 68.038-80.038-100.92-100.92c-2.929-2.929-7.678-2.929-10.607 0l-68.735 68.735c-5.858 5.858-5.858 15.355 0 21.213l85.01 85.01c5.858 5.858 21.356 11.858 27.214 6z" fill="#dc805a"/><path d="m110.617 478.464c-5.858 5.858-15.355 5.858-21.213 0l14.142 14.142c5.858 5.858 15.355 5.858 21.213 0l68.734-68.734c2.929-2.929 2.929-7.678 0-10.607l-8.839-8.839z" fill="#d66b3e"/><path d="m484.465 116.617c5.858-5.858-.142-21.355-6-27.213l-85.01-85.01c-5.858-5.858-15.355-5.858-21.213 0l-68.734 68.734c-2.929 2.929-2.929 7.678 0 10.607l100.92 100.92z" fill="#dc805a"/><path d="m492.607 103.546-14.142-14.142c5.858 5.858 5.858 15.355 0 21.213l-74.038 74.038 8.839 8.839c2.929 2.929 7.678 2.929 10.607 0l68.734-68.734c5.858-5.859 5.858-15.356 0-21.214z" fill="#d66b3e"/><path d="m354.101 354.102c54.009-54.009 58.433-160.771 4-215.203-60.531-60.531-158.672-60.531-219.203 0s-60.531 158.672 0 219.203c54.927 54.927 161.194 50.009 215.203-4z" fill="#f3d69e"/><path d="m358.101 138.899c41.763 65.731 43.009 154.194-11 208.203s-142.472 52.764-208.203 11c60.531 60.531 158.672 60.531 219.203 0s60.531-158.672 0-219.203z" fill="#edc472"/><path d="m363.499 238.501c0-29.422-14.991-65.629-37.181-87.819-21.353-17.01-48.397-27.181-77.819-27.181-69.036 0-125 55.964-125 125 0 29.422 10.171 56.466 27.181 77.819 22.951 22.951 58.397 37.181 87.819 37.181 69.036 0 125-55.965 125-125z" fill="#f5fcff"/><g fill="#dcf2f6"><circle cx="316.14" cy="244.501" r="27.997"/><circle cx="296.589" cy="296.414" r="27.618"/><circle cx="244.501" cy="316.14" r="27.997"/><path d="m326.319 150.681c17.01 21.353 27.181 48.397 27.181 77.819 0 69.036-55.964 125-125 125-29.422 0-56.466-10.171-77.819-27.181 22.902 28.75 58.206 47.181 97.819 47.181 69.036 0 125-55.964 125-125-.001-39.613-18.432-74.917-47.181-97.819z"/></g><path d="m248.5 256h-65c-4.142 0-7.5-3.357-7.5-7.5s3.358-7.5 7.5-7.5h57.5v-87.499c0-4.143 3.358-7.5 7.5-7.5s7.5 3.357 7.5 7.5v94.999c0 4.143-3.358 7.5-7.5 7.5z" fill="#738c96"/></g></svg>