<svg id="Capa_1" enable-background="new 0 0 497 497" height="512" viewBox="0 0 497 497" width="512" xmlns="http://www.w3.org/2000/svg"><g><path d="m160.89 113.535 24.598 8.565 118.691-118.292c-15.954-2.504-34.468-3.808-55.679-3.808-57.154 0-94.753 9.456-115.31 26.408-17.94 28.601-4.332 62.175 27.7 87.127z" fill="#f3d69e"/><path d="m185.488 122.1 6.054-20.449c-7.325.503-14.207 1.126-20.653 1.884-32.032-24.951-43.173-47.175-37.7-77.127-9.643 7.952-15.541 17.551-17.939 28.601 0 0-18.203 83.89-8.533 89.086 15.136-12.119 40.453-18.898 78.771-21.995z" fill="#edc472"/><path d="m264.613 42.977c-22.976 0-41.568 18.592-41.568 41.568-13.211 0-24.809 6.809-31.503 17.106l144.569 11.884c32.031-24.951 45.638-58.526 27.699-87.127-12.928-10.66-32.596-18.356-59.632-22.6-21.869.003-39.565 17.298-39.565 39.169z" fill="#5595a2"/><path d="m185.488 122.1c18.028-1.457 38.934-2.1 63.012-2.1 75.258 0 119.532 6.276 141.787 24.098 9.666-5.199-8.537-89.089-8.537-89.089-2.398-11.05-8.296-20.649-17.939-28.601 5.473 29.952-5.668 52.176-37.699 77.127-21.067-2.478-46.731-3.535-77.612-3.535-21.431 0-40.344.511-56.958 1.651-3.824 5.883-6.054 12.9-6.054 20.449z" fill="#488089"/><path d="m306.947 218.97c-89.732-61.415-205.286-101.336-191.697-163.961l-25.256 116.394c-2.86 13.181-2.088 24.26 1.625 34.037 15.591 25.571 72.225 48.433 126.074 82.704z" fill="#f7ebd4"/><path d="m306.947 218.97c-23.788 14.683-62.304 39.066-89.254 59.174-53.849-34.271-101.655-50.601-126.074-72.704 13.745 36.195 67.918 54.509 128.402 95.143l103.759-69.572c-5.48-4.109-11.103-8.119-16.833-12.041z" fill="#f3d69e"/><path d="m406.481 322.999c-10.172-17.047-22.169-33.902-36.311-49.803-65.991 0-101.541 33.113-101.541 64.999.996.896 1.993 1.787 2.987 2.7 40.033 36.755 59.033 102.984 66.38 136.105l114.544 10s-7.025-86.037-46.059-164.001z" fill="#dc805a"/><path d="m370.17 273.196c-31.18 16.54-66.758 36.335-101.541 64.999-16.225-14.588-32.634-26.88-48.608-37.612l103.759-69.572c12.376 9.28 24.01 19.065 34.435 29.49 4.149 4.15 8.126 8.389 11.955 12.695zm90.468 206.715c-4.194-29.956-17.032-94.694-54.158-156.912 28.719 73.645 37.06 154.001 37.06 154.001h-105.544c.648 2.922 1.207 5.591 1.681 7.955 1.403 7.009 7.557 12.045 14.705 12.045h10.44l6.027-10 9.053 10h14.9l6.074-10 9.013 10h14.893l6.098-10 8.999 10h5.906c9.116 0 16.118-8.059 14.853-17.089z" fill="#d66b3e"/><path d="m373.084 406.848c-1.416-3.893.592-8.196 4.485-9.612s8.197.593 9.612 4.485c11.072 30.446 16.938 57.561 19.939 75.279l-6.244 10-9.013-10c-3.022-17.091-8.653-42.308-18.779-70.152z" fill="#d66b3e"/><path d="m407.119 477c1.709 10.09 2.488 17.128 2.769 20h-15.087c-.39-3.538-1.263-10.519-2.939-20z" fill="#c95929"/><path d="m343.939 413.441c-1.446-3.882.528-8.201 4.409-9.647s8.201.528 9.646 4.409c10.641 28.559 16.214 52.678 19.092 68.797l-6.238 10-9.053-10c-2.892-15.411-8.216-37.687-17.856-63.559z" fill="#d66b3e"/><path d="m377.086 477c1.807 10.124 2.553 17.089 2.815 20h-15.079c-.364-3.463-1.223-10.394-3.026-20z" fill="#c95929"/><path d="m402.148 400.07c-1.387-3.903.652-8.191 4.555-9.579 3.901-1.385 8.191.653 9.579 4.556 11.489 32.324 17.695 62.627 20.846 81.953l-6.248 10-8.999-10c-3.188-18.824-9.176-47.227-19.733-76.93z" fill="#d66b3e"/><path d="m437.128 477c1.642 10.071 2.454 17.162 2.751 20h-15.097c-.414-3.588-1.308-10.596-2.9-20z" fill="#c95929"/><path d="m323.738 271.86c62.195-40.087 81.247-63.073 74.702-93.237l-27.604-81.128c-37.108 49.912-151.706 89.72-222.574 153.996z" fill="#6bbdd5"/><path d="m323.738 271.86c54.695-31.572 93.87-51.598 83.268-100.456l-25.256-116.395c3.321 15.303-1.073 29.25-10.913 42.486l17.604 81.128c6.545 30.164-29.795 50.32-78.23 78.572z" fill="#5595a2"/><path d="m216.384 334.895c31.46-28.885 93.826-77.7 93.826-77.7-12.56-8.273-28.968-8.953-42.938-.218-15.962-16.409-42.565-20.067-61.853-4.105-10.528-8.979-38.925-15.929-57.158-1.381-3.254 2.951-6.419 5.952-9.477 9.01-73.674 73.675-95.749 174.239-102.002 216.499l110.541 10c10.877-51.896 28.333-114.711 69.061-152.105z" fill="#f7ebd4"/><path d="m323.738 271.86c-3.47-6.193-8.148-11.121-13.528-14.665-31.957 18.641-69.176 40.804-102.826 71.7-43.565 39.999-63.5 130.322-67.061 148.105h-103.541c-.148 1-.29 1.978-.421 2.911-1.264 9.03 5.738 17.089 14.855 17.089h5.906l8.999-10 6.098 10h14.893l9.013-10 6.074 10h14.9l9.053-10 6.027 10h10.44c7.148 0 13.302-5.036 14.705-12.045 5.837-29.155 24.496-104.062 68.061-144.06 33.684-30.928 68.353-51.718 98.353-69.035z" fill="#f3d69e"/><path d="m123.916 406.848c1.416-3.893-.592-8.196-4.485-9.612s-8.197.593-9.612 4.485c-11.072 30.445-16.938 57.56-19.938 75.279l6.244 10 9.013-10c3.021-17.091 8.652-42.308 18.778-70.152z" fill="#f3d69e"/><path d="m89.881 477c-1.709 10.09-2.488 17.128-2.769 20h15.087c.39-3.538 1.263-10.519 2.939-20z" fill="#edc472"/><path d="m153.061 413.441c1.446-3.882-.528-8.201-4.409-9.647s-8.201.528-9.646 4.409c-10.641 28.559-16.214 52.678-19.092 68.797l6.238 10 9.053-10c2.892-15.411 8.216-37.687 17.856-63.559z" fill="#f3d69e"/><path d="m119.914 477c-1.807 10.124-2.553 17.089-2.815 20h15.079c.364-3.463 1.223-10.394 3.026-20z" fill="#edc472"/><path d="m94.852 400.07c1.387-3.903-.652-8.191-4.555-9.579-3.901-1.385-8.191.653-9.579 4.556-11.489 32.324-17.695 62.627-20.846 81.953l6.248 10 8.999-10c3.188-18.824 9.176-47.227 19.733-76.93z" fill="#f3d69e"/><path d="m59.872 477c-1.642 10.071-2.454 17.162-2.751 20h15.097c.414-3.588 1.308-10.596 2.9-20z" fill="#edc472"/></g></svg>