<svg id="Capa_1" enable-background="new 0 0 504.5 504.5" height="512" viewBox="0 0 504.5 504.5" width="512" xmlns="http://www.w3.org/2000/svg"><g><path d="m128.003 187.785c-3.163 0-6.104-2.018-7.133-5.189-18.464-56.979-17.473-98.384 3.03-126.581 19.789-27.216 57.926-41.015 113.35-41.015 4.143 0 7.5 3.357 7.5 7.5s-3.357 7.5-7.5 7.5c-50.355 0-84.409 11.721-101.218 34.836-17.48 24.04-17.772 61.047-.893 113.135 1.277 3.94-.882 8.17-4.822 9.447-.768.249-1.547.367-2.314.367z" fill="#edc472"/><path d="m376.497 187.785c-.767 0-1.546-.118-2.314-.367-3.94-1.277-6.1-5.507-4.822-9.447 16.88-52.088 16.588-89.095-.893-113.135-16.809-23.115-50.863-34.836-101.218-34.836-4.143 0-7.5-3.357-7.5-7.5s3.357-7.5 7.5-7.5c55.424 0 93.561 13.799 113.35 41.015 20.503 28.197 21.494 69.603 3.03 126.581-1.028 3.172-3.97 5.189-7.133 5.189z" fill="#edc472"/><path d="m252.25 45c-12.406 0-22.5-10.094-22.5-22.5s10.094-22.5 22.5-22.5 22.5 10.094 22.5 22.5-10.094 22.5-22.5 22.5zm0-30c-4.136 0-7.5 3.364-7.5 7.5s3.364 7.5 7.5 7.5 7.5-3.364 7.5-7.5-3.364-7.5-7.5-7.5z" fill="#f3d69e"/><path d="m191.75 438.816-7-83.367c-11.967 0-15 11.838-15 18.894v57.473z" fill="#f3d69e"/><path d="m184.75 355.449v72.867c0 1.933-1.567 3.5-3.5 3.5h-11.5v7.5c0 4.142 3.358 7.5 7.5 7.5h15c4.142 0 7.5-3.358 7.5-7.5v-64.973c0-7.056-3.033-18.894-15-18.894z" fill="#edc472"/><path d="m326.75 438.816-7-83.367c-11.967 0-15 11.838-15 18.894v57.473z" fill="#f3d69e"/><path d="m319.75 355.449v72.867c0 1.933-1.567 3.5-3.5 3.5h-11.5v7.5c0 4.142 3.358 7.5 7.5 7.5h15c4.142 0 7.5-3.358 7.5-7.5v-64.973c0-7.056-3.033-18.894-15-18.894z" fill="#edc472"/><path d="m254.75 395.79c0-2.477-.254-5.347-.866-8.29-.532-.033-1.077-.051-1.634-.051-17.95 0-22.5 17.757-22.5 28.341v68.71l35 10z" fill="#f3d69e"/><path d="m253.884 387.5c.612 2.943.866 5.813.866 8.29v85.21c0 1.933-1.567 3.5-3.5 3.5h-21.5v12.5c0 4.142 3.358 7.5 7.5 7.5h30c4.142 0 7.5-3.358 7.5-7.5v-81.21c0-10.255-4.272-27.244-20.866-28.29z" fill="#edc472"/><path d="m287.079 298.918c-1.215-.26-2.472-.405-3.765-.405h-62.127c-9.871 0-17.873 8.002-17.873 17.873 0 2.999.424 5.873 1.193 8.613 10.05 13.188 27.838 22.451 38.743 22.451 29.501-.001 52.447-24.469 43.829-48.532z" fill="#eaacde"/><path d="m287.079 298.918c-1.847 23.258-28.835 38.531-48.829 38.531-10.905 0-23.888-4.547-33.743-12.451 5.563 19.803 29.549 32.451 47.743 32.451 20.711 0 48.936-16.387 48.936-41.064 0-8.578-6.046-15.737-14.107-17.467z" fill="#da8bc1"/><path d="m174.388 245.801c0-2.388-.853-6.437-6.208-11.792-2.123-.768-4.403-1.208-6.792-1.208-11.046 0-20 8.954-20 20 0 2.388.44 4.668 1.208 6.792 4.919 4.919 9.404 6.208 11.792 6.208 11.046 0 20-8.954 20-20z" fill="#dcf2f6"/><path d="m168.18 234.009c.768 2.124 1.208 4.404 1.208 6.792 0 11.046-8.954 20-20 20-2.388 0-4.668-.44-6.792-1.208 2.783 7.697 10.134 13.208 18.792 13.208 11.046 0 20-8.954 20-20 0-8.657-5.511-16.008-13.208-18.792z" fill="#bae6ef"/><path d="m204.388 281.801c0-3.262-.768-8.232-7.768-15.232-2.857-1.136-5.97-1.768-9.232-1.768-13.807 0-25 11.193-25 25 0 3.262.631 6.375 1.768 9.232 6.339 6.339 11.97 7.768 15.232 7.768 13.807 0 25-11.193 25-25z" fill="#dcf2f6"/><path d="m196.62 266.569c1.136 2.857 1.768 5.97 1.768 9.232 0 13.807-11.193 25-25 25-3.262 0-6.375-.631-9.232-1.768 3.674 9.236 12.687 15.768 23.232 15.768 13.807 0 25-11.193 25-25 0-10.545-6.532-19.558-15.768-23.232z" fill="#bae6ef"/><path d="m154.388 218.62c0-1.515-2.242-5.948-6.647-10.353-1.378-.417-2.839-.647-4.353-.647-8.284 0-15 6.716-15 15 0 1.515.229 2.975.647 4.353 5 5 8.839 6.647 10.353 6.647 8.284 0 15-6.716 15-15z" fill="#dcf2f6"/><path d="m158.388 222.62c0-6.77-4.486-12.487-10.647-14.353.417 1.378.647 2.838.647 4.353 0 8.284-6.716 15-15 15-1.515 0-2.975-.229-4.353-.647 1.866 6.16 7.584 10.647 14.353 10.647 8.284 0 15-6.716 15-15z" fill="#bae6ef"/><path d="m143.388 190.631c0-1.515-2.242-5.948-6.647-10.353-1.378-.417-2.839-.647-4.353-.647-8.284 0-15 6.716-15 15 0 1.515.229 2.975.647 4.353 5 5 8.839 6.647 10.353 6.647 8.285 0 15-6.716 15-15z" fill="#f3d69e"/><path d="m147.388 194.631c0-6.77-4.486-12.487-10.647-14.353.417 1.378.647 2.838.647 4.353 0 8.284-6.716 15-15 15-1.515 0-2.975-.229-4.353-.647 1.866 6.16 7.584 10.647 14.353 10.647 8.285 0 15-6.716 15-15z" fill="#edc472"/><path d="m356.112 245.801c0-2.388-.853-6.437-6.208-11.792-2.123-.768-4.403-1.208-6.792-1.208-11.046 0-20 8.954-20 20 0 2.388.44 4.668 1.208 6.792 4.919 4.919 9.404 6.208 11.792 6.208 11.046 0 20-8.954 20-20z" fill="#dcf2f6"/><path d="m349.904 234.009c.768 2.124 1.208 4.404 1.208 6.792 0 11.046-8.954 20-20 20-2.388 0-4.668-.44-6.792-1.208 2.783 7.697 10.134 13.208 18.792 13.208 11.046 0 20-8.954 20-20 0-8.657-5.511-16.008-13.208-18.792z" fill="#bae6ef"/><path d="m334.112 281.801c0-3.262-.768-8.232-7.768-15.232-2.857-1.136-5.97-1.768-9.232-1.768-13.807 0-25 11.193-25 25 0 3.262.631 6.375 1.768 9.232 6.339 6.339 11.97 7.768 15.232 7.768 13.807 0 25-11.193 25-25z" fill="#dcf2f6"/><path d="m326.344 266.569c1.136 2.857 1.768 5.97 1.768 9.232 0 13.807-11.193 25-25 25-3.262 0-6.375-.631-9.232-1.768 3.674 9.236 12.687 15.768 23.232 15.768 13.807 0 25-11.193 25-25 0-10.545-6.532-19.558-15.768-23.232z" fill="#bae6ef"/><path d="m372.112 218.62c0-1.515-2.242-5.948-6.647-10.353-1.378-.417-2.839-.647-4.353-.647-8.284 0-15 6.716-15 15 0 1.515.229 2.975.647 4.353 5 5 8.839 6.647 10.353 6.647 8.284 0 15-6.716 15-15z" fill="#dcf2f6"/><path d="m376.112 222.62c0-6.77-4.486-12.487-10.647-14.353.417 1.378.647 2.838.647 4.353 0 8.284-6.716 15-15 15-1.515 0-2.975-.229-4.353-.647 1.866 6.16 7.584 10.647 14.353 10.647 8.284 0 15-6.716 15-15z" fill="#bae6ef"/><path d="m383.112 190.631c0-1.515-2.242-5.948-6.647-10.353-1.378-.417-2.839-.647-4.353-.647-8.284 0-15 6.716-15 15 0 1.515.229 2.975.647 4.353 5 5 8.839 6.647 10.353 6.647 8.284 0 15-6.716 15-15z" fill="#f3d69e"/><path d="m387.112 194.631c0-6.77-4.486-12.487-10.647-14.353.417 1.378.647 2.838.647 4.353 0 8.284-6.716 15-15 15-1.515 0-2.975-.229-4.353-.647 1.866 6.16 7.584 10.647 14.353 10.647 8.284 0 15-6.716 15-15z" fill="#edc472"/></g></svg>