<svg id="Capa_1" enable-background="new 0 0 497.007 497.007" height="512" viewBox="0 0 497.007 497.007" width="512" xmlns="http://www.w3.org/2000/svg"><g><path d="m386.464 433.616h-65.169l-3.73-18.116 68.899-10zm-7.878-166.705-92.057-2.152 24.86 120.741h91.576z" fill="#87a0af"/><path d="m412.391 398.064-26.965-130.968-16.581-.392 23.545 114.36c.305 1.483.48 2.963.573 4.436h-81.576l6.177 30h58.899c-1.787.978-3.689 1.799-5.697 2.436l-49.471 15.68c.835 4.057-1.529 8.089-5.478 9.34l-13.621 4.317c-3.636 1.152-6.047 4.791-5.36 8.543.831 4.537 5.4 7.181 9.651 5.832 0 0 84.284-26.714 84.286-26.715 15.583-4.942 24.915-20.857 21.618-36.869z" fill="#738c96"/><path d="m114.43 205.062 97.822 35.362c60.386 21.813 103.925 30.358 138.576 30.358 24.927 0 63.999-11.252 92.325-23.751l-10-192.275c-28.327-12.499-58.399-19.751-83.325-19.751-34.652 0-78.19 8.545-138.576 30.358-23.951 8.652-60.817 21.969-86.827 31.364 0 0-9.996 108.335-9.995 108.335z" fill="#87a0af"/><path d="m349.827 266.782c-34.651 0-78.19-8.545-138.576-30.358l-86.823-31.362s-14.837 10.947-14.837 10.947l14.838 9.053 86.822 31.362c60.386 21.813 103.925 30.358 138.576 30.358 24.927 0 54.999-7.252 83.325-19.751l10-9.069-10-12.426c-28.326 13.433-58.398 21.246-83.325 21.246z" fill="#738c96"/><path d="m284.66 392.5h163.653c5.823 0 10.873-5.586 10.873-17.314-2.733-2.88-6.588-4.686-10.873-4.686h-163.653c-8.284 0-15-4.177-15-11.493l-10 46.493z" fill="#da8bc1"/><path d="m459.185 375.186c-.308 5.746-5.05 10.314-10.873 10.314h-163.652c-7.445 0-11.934 3.077-15 10l-10 10 10 6.493c0-7.316 6.716-11.493 15-11.493h163.653c8.284 0 15-6.716 15-15 0-4-1.576-7.625-4.128-10.314z" fill="#d273b3"/><path d="m8.622 405.5 260.976-9.998c.038-.039.061-.063.099-.102l.072-36.393c.004-1.936-1.564-3.507-3.5-3.507h-11.493l-15.31 9.991-14.69-9.991h-212.247c-2.599 0-5.026 1.331-6.378 3.551-2.581 4.239-6.101 12.553-6.151 26.422.001-.001.001 15.015 8.622 20.027z" fill="#eaacde"/><path d="m269.66 395.5-14.964-.1.079-39.9h-30l-194.685 40h-19.294c-1.531 0-3.032-.468-4.289-1.342-6.507-4.527-6.507-8.685-6.507-8.685-.049 13.838 3.396 22.169 5.946 26.432 1.343 2.246 3.788 3.596 6.405 3.596h253.815c1.931 0 3.496-1.563 3.5-3.494l.03-16.606c-.011.032-.025.065-.036.099z" fill="#da8bc1"/><path d="m225.09 315.5h-187.5c-4.142 0-7.5 3.358-7.5 7.5v72.5l10.966 10.23-10.966 9.77v20l105.001 8.346 105.001-8.346z" fill="#f3d69e"/><path d="m232.59 315.5h-7.5l.001 80h-195.001v20h195.001v20h-195.001v12.5c0 4.142 3.358 7.5 7.5 7.5h195.001c4.142 0 7.5-3.358 7.5-7.5l-.001-125c0-4.142-3.357-7.5-7.5-7.5z" fill="#edc472"/><path d="m52.59 455.5v-20l1.887-10-1.887-10c.001-4.143 3.358-7.5 7.501-7.501 4.142 0 7.5 3.358 7.5 7.5l-1.887 10 1.887 9.961v20.038zm30 0v-20l1.887-10-1.887-10c.001-4.143 3.358-7.5 7.501-7.501 4.142 0 7.5 3.358 7.5 7.5l-1.887 10 1.887 9.961v20.038zm30 0v-20l1.887-10-1.887-9.999c.001-4.143 3.358-7.5 7.501-7.501 4.142 0 7.5 3.358 7.5 7.5l-1.887 10 1.887 9.961v20.038zm30 0v-20l1.887-10-1.887-9.999c.001-4.143 3.358-7.5 7.501-7.501 4.142 0 7.5 3.358 7.5 7.5l-1.887 10 1.887 9.961v20.038zm30 0v-20l1.887-10-1.887-9.999c.001-4.143 3.358-7.5 7.501-7.501 4.142 0 7.5 3.358 7.5 7.5l-1.887 10 1.887 9.961v20.038zm30 0v-20l1.887-10-1.887-9.999c.001-4.143 3.358-7.5 7.501-7.501 4.142 0 7.5 3.358 7.5 7.5l-1.887 10 1.887 9.961v20.038z" fill="#f3d69e"/><path d="m67.591 315.445v39.999c0 4.142-3.358 7.5-7.5 7.5-4.143-.001-7.5-3.358-7.501-7.501v-39.999zm30 0v39.999c0 4.142-3.358 7.5-7.5 7.5-4.143-.001-7.5-3.358-7.501-7.501v-39.999zm30 0v39.999c0 4.142-3.358 7.5-7.5 7.5-4.143-.001-7.5-3.358-7.501-7.501v-39.999zm30 0v39.999c0 4.142-3.358 7.5-7.5 7.5-4.143-.001-7.5-3.358-7.501-7.501v-39.999zm30 0v39.999c0 4.142-3.358 7.5-7.5 7.5-4.143-.001-7.5-3.358-7.501-7.501v-39.999zm30 0v39.999c0 4.142-3.358 7.5-7.5 7.5-4.143-.001-7.5-3.358-7.501-7.501v-39.999z" fill="#f7ebd4"/><path d="m67.59 415.5v20h-15v-20zm30 0v20h-15v-20zm30 0v20h-15v-20zm30 0v20h-15v-20zm30 0v20h-15v-20zm30 0v20h-15v-20z" fill="#f7ebd4"/><path d="m124.424 96.728c-19.802 7.153-41.405 7.58-61.475 1.219l-53.182-16.858v159.609l53.181-26.857c20.071-6.362 41.678-15.933 61.481-8.78z" fill="#da8bc1"/><path d="m9.767 240.698 53.182-16.857c20.071-6.362 41.678-5.933 61.481 1.22l-.001-20c-19.802-7.153-41.41-7.582-61.481-1.22l-53.181 16.857z" fill="#d273b3"/><path d="m56.524 160.894c0-31.974-14.024-64.95-46.757-79.805-4.835-1.532-9.766 2.077-9.766 7.15v135.555h24l19.924-13.922c8.634-14.694 12.599-31.977 12.599-48.978z" fill="#eaacde"/><path d="m9.767 240.698c15.329-6.956 26.554-17.887 34.158-30.827l-43.924 13.922v9.756c0 5.073 4.93 8.682 9.766 7.149z" fill="#da8bc1"/><path d="m433.152 54.757v190.78l53.854-21.265-10-144.568c-13.338-9.674-28.332-18.099-43.854-24.947z" fill="#da8bc1"/><path d="m485.172 85.948c-2.641-2.136-5.369-4.216-8.165-6.244v130.233c0 4.642-2.149 9.014-5.816 11.861-7.515 5.833-21.604 15.947-38.038 23.74v21.494c18.712-8.256 36.665-18.798 51.864-31.066 7.552-6.095 11.99-15.241 11.99-24.946v-4.206l-10-7.5 10-7.5v-23.42l-10-7.5 10-7.5v-23.42l-10-7.5 10-7.5v-4.206c0-9.635-4.343-18.761-11.835-24.82z" fill="#d273b3"/><path d="m477.007 129.974h-10.97c-4.143 0-7.5-3.357-7.5-7.5s3.357-7.5 7.5-7.5h10.97l7.5 7.5z" fill="#87a0af"/><path d="m477.007 114.974h20v15h-20z" fill="#738c96"/><path d="m477.007 168.394h-10.97c-4.143 0-7.5-3.357-7.5-7.5s3.357-7.5 7.5-7.5h10.97l7.5 7.5z" fill="#87a0af"/><path d="m477.007 153.394h20v15h-20z" fill="#738c96"/><path d="m477.007 206.814h-10.97c-4.143 0-7.5-3.357-7.5-7.5s3.357-7.5 7.5-7.5h10.97l7.5 7.5z" fill="#87a0af"/><path d="m477.007 191.814h20v15h-20z" fill="#738c96"/></g></svg>