<svg id="Capa_1" enable-background="new 0 0 497 497" height="512" viewBox="0 0 497 497" width="512" xmlns="http://www.w3.org/2000/svg"><g><path d="m426.651 204.517-110.146 48.468c-6.805 2.995-11.907 8.886-13.898 16.05l-31.077 111.828c-11.716 42.16-34.984 71.254-55.552 71.254l-8.816-33.386 44.661-160.708c5.964-21.461-7.245-33.611-20.885-16.162l-53.086 67.913-19.757 71.09c-11.716 42.16-34.801 71.254-55.552 71.254l-8.816-33.387 11.561-41.6s-38.849 59.902-66.904 59.902l-8.817-33.387 1.951-7.015s-3.356-35.189-17.316-35.189l-14.202-28.855v-122.132c0-13.057 7.715-24.88 19.666-30.139l385.257-169.528c17.291-7.609 35.976-10.788 54.868-10.788h14.505l11.352 114.099c0 39.171-23.145 74.641-58.997 90.418z" fill="#e3a76f"/><path d="m146.742 369.511 22.665-81.555 39.891-44.194 10.287-13.253c13.64-17.45 40.847-3.467 34.883 17.993l-2.646 9.521c1.595-5.739-5.864-9.503-9.533-4.809l-53.086 67.913-19.757 71.09c-15.247 54.864-37.813 85.804-59.069 89.574l-7.836-29.672c16.446-12.434 32.484-40.448 44.201-82.608zm-108.36 67.521 7.835 29.672c21.257-3.77 43.822-34.709 59.069-89.573l23.946-86.166 69.203-88.625-.759-7.377c-1.431-13.913-19.083-18.994-27.691-7.97l-63.458 81.268-23.946 86.166c-11.716 42.159-27.754 70.173-44.199 82.605zm-2.055-181.258c0 66.286-14.822 95.361-22.128 105.667l17.316 35.189 37.773-135.861 15.883-20.34v-20l35.331-25.247 7.062-9.044c14.01-17.942 21.62-40.052 21.62-62.815-8.558 28.728-35.524 57.728-69.888 72.849-10.815 4.759-30.278 13.324-30.278 13.324-7.712 3.394-12.691 11.024-12.691 19.45 0-.001 0 17.879 0 26.828zm455.507-255.774h-17.538v102.747c0 39.17-23.144 74.641-58.997 90.417l-110.146 48.468c-6.805 2.995-11.907 8.886-13.898 16.05l-31.077 111.828c-11.716 42.16-27.755 70.174-44.2 82.606l7.836 29.672c21.256-3.77 43.822-34.709 59.069-89.574l34.222-123.146 120.899-53.2c35.852-15.775 58.996-51.246 58.996-90.416v-120.286c0-2.853-2.313-5.166-5.166-5.166z" fill="#c48958"/><path d="m178.421 261.901h34.057v39.054h-34.057z" fill="#dcf2f6" transform="matrix(.615 -.788 .788 .615 -146.655 262.272)"/><path d="m98.665 145.553c-5.259-11.951-51.539 8.414-46.28 20.365l15.519 35.267 46.28-20.365z" fill="#f5fcff"/><path d="m85.172 240.429 35.331-45.247-6.32-14.362c-5.259-11.951-51.539 8.414-46.28 20.365z" fill="#dcf2f6"/><path d="m156.264 297.996 47.034-60.234c8.095-10.367 17.774-34.698 6.818-45.654-5.888-2.918-13.21-1.406-17.412 3.976l-80.719 103.373c-3.458 4.428-3.847 10.263-1.51 14.982 8.981 8.979 36.655-4.746 45.789-16.443z" fill="#eaacde"/><path d="m212.552 193.641c-.773-.604-1.59-1.114-2.436-1.533.374 12.566-5.723 28.287-13.818 38.654l-47.034 60.234c-9.134 11.698-25.497 22.575-38.789 23.442.912 1.841 2.225 3.518 3.952 4.867 12.311 9.613 35.399.619 47.836-15.309l47.034-60.234c12.439-15.929 15.566-40.509 3.255-50.121z" fill="#da8bc1"/><path d="m207.82 418.917c5.52 1.588 10.285 4.522 14.06 8.338l-8.151 55.43c-1.894 6.814-15.136 4.437-24.825 1.741l18.257-65.696c.221.062.441.124.659.187z" fill="#f5fcff"/><path d="m208.053 477.009 13.827-49.754c7.975 8.061 11.509 20.075 8.26 31.766l-6.327 22.768c-4.128 14.855-19.744 17.301-32.328 13.8-2.915-.811-4.617-3.839-3.807-6.754l1.225-4.408c9.691 2.696 17.257-.603 19.15-7.418z" fill="#dcf2f6"/><path d="m94.385 418.917c5.52 1.588 10.285 4.522 14.06 8.338l-8.151 55.43c-1.894 6.814-15.136 4.437-24.825 1.741l18.257-65.696c.221.062.44.124.659.187z" fill="#f5fcff"/><path d="m94.618 477.009 13.827-49.754c7.975 8.061 11.509 20.075 8.26 31.766l-6.327 22.768c-4.128 14.855-19.744 17.301-32.328 13.8-2.915-.811-4.617-3.839-3.807-6.754l1.225-4.408c9.69 2.696 17.256-.603 19.15-7.418z" fill="#dcf2f6"/><path d="m30.225 403.832c5.52 1.588 10.285 4.522 14.06 8.338l-8.151 55.43c-1.894 6.814-15.136 4.437-24.825 1.741l18.257-65.696c.221.062.44.124.659.187z" fill="#f5fcff"/><path d="m30.458 461.925 13.827-49.754c7.975 8.061 11.509 20.075 8.26 31.766l-6.327 22.768c-4.128 14.855-19.744 17.301-32.328 13.8-2.915-.811-4.617-3.839-3.807-6.754l1.225-4.408c9.69 2.695 17.256-.604 19.15-7.418z" fill="#dcf2f6"/><path d="m.685 332.59c5.743.052 11.12 1.603 15.779 4.269l6.989 55.589c0 7.073-13.395 8.328-23.453 8.325v-68.186c.23 0 .458.001.685.003z" fill="#f5fcff"/><path d="m16.464 388.499v-51.64c9.842 5.632 16.464 16.26 16.464 28.394v23.631c0 15.418-14.391 21.956-27.452 21.952-3.026-.001-5.476-2.463-5.476-5.488v-4.575c10.058.003 16.464-5.201 16.464-12.274z" fill="#dcf2f6"/></g></svg>