<svg id="Capa_1" enable-background="new 0 0 500.62 500.62" height="512" viewBox="0 0 500.62 500.62" width="512" xmlns="http://www.w3.org/2000/svg"><g><path d="m450.592 231.734c4.259-2.31 5.248-7.988 2.013-11.595-19.461-21.7-86.275-84.804-205.183-84.804-61.853 0-154.297 34.668-195.194 89.983-.975 1.319-1.464 2.931-1.428 4.571.256 11.586 1.304 59.249 1.304 62.509 0 3.712 7.037-6.649 8.201-6.649 36.678 0 327.94-20.195 327.94-20.195z" fill="#eaab8a"/><path d="m52.105 323.664c0 3.713 7.036 8.351 8.2 8.351 36.678 0 327.94-66.46 327.94-66.46l21.502-11.664c-83.901-88.351-219.969-97.06-311.803-19.056-15.988 13.58-35.369 37.234-45.84 57.564 0 0 .001 27.553.001 31.265z" fill="#dc805a"/><path d="m108.37 254.835c7.915-7.331 16.269-13.893 24.969-19.688l163.652-25.561c25.401 7.181 49.606 19.507 70.948 36.914-10.343 99.979-119.498 149.843-211.431 121.387-30.43-9.419-55.507-28.983-63.611-35.21-4.262-3.274-16.547-12.713-27.24-20.928 10.379-20.828 24.63-40.166 42.713-56.914z" fill="#f5fcff"/><path d="m68.965 338.115c-6.803 1.546-12.488-5.188-9.897-11.666 1.988-4.971 4.185-9.876 6.59-14.701 10.693 8.216 22.978 17.654 27.24 20.928zm80.544 22.771c-30.43-9.419-48.507-21.983-56.611-28.21 20.171 21.823 46.182 38.791 76.611 48.21 92.25 28.555 190.182-23.081 218.736-115.331-6.408-6.918-13.202-13.261-20.306-19.055-28.93 91.654-126.497 142.842-218.43 114.386z" fill="#dcf2f6"/><path d="m133.342 235.15c46.114-30.716 101.95-39.891 153.792-28.069 4.508 10.191 12.258 26.365 12.836 38.161 2.52 51.454-37.149 95.209-88.604 97.729-22.276 1.091-48.105-10.73-64.773-22.986-10.476-14.25-17.026-31.63-17.956-50.618-.586-11.962 1.112-23.507 4.705-34.217z" fill="#6bbdd5"/><path d="m206.366 337.972c51.454-2.52 91.124-46.275 88.604-97.729-.578-11.796-3.328-22.97-7.836-33.161 3.302.753 6.589 1.586 9.856 2.509 10.49 14.257 17.05 31.649 17.981 50.652 2.52 51.454-37.149 95.209-88.604 97.729-32.466 1.59-61.862-13.62-79.773-37.986 16.668 12.256 37.497 19.077 59.772 17.986z" fill="#5595a2"/><circle cx="221.648" cy="261.62" fill="#488089" r="36.239"/><path d="m221.106 396.223c77.844 0 150.108-50.284 174.304-128.45 1.225-3.957-.99-8.158-4.947-9.382-3.957-1.225-8.158.989-9.382 4.947-27.286 88.152-121.203 137.672-209.354 110.384-28.113-8.702-53.467-24.655-73.321-46.136-1.821-1.969-4.556-2.817-7.17-2.223l-23.932 5.439c-.178.04-.653.149-1.082-.353-.459-.538-.256-1.046-.189-1.214 1.538-3.846-.333-8.21-4.179-9.749-3.846-1.538-8.21.333-9.749 4.179-2.244 5.609-1.205 11.942 2.711 16.527 3.896 4.561 9.957 6.567 15.812 5.237l19.764-4.492c21.17 21.817 47.668 38.066 76.899 47.114 17.887 5.536 36.002 8.172 53.815 8.172z" fill="#eaab8a"/><path d="m59.066 333.951c2.977 0 5.793-1.784 6.966-4.717 10.521-26.308 26.48-49.488 47.435-68.897 77.045-71.362 197.76-66.776 269.169 10.199.39.44.827.827 1.297 1.157.933.657 1.984 1.077 3.07 1.259 1.074.181 2.191.13 3.274-.176.56-.157 1.105-.38 1.625-.671l42.606-22.607c3.659-1.941 5.051-6.481 3.11-10.14s-6.483-5.052-10.14-3.11l-37.726 20.018c-8.639-8.822-17.9-16.705-27.646-23.642l26.645-23.792c3.09-2.759 3.358-7.5.599-10.589-2.759-3.091-7.499-3.358-10.589-.599l-29.639 26.464c-10.523-6.342-21.511-11.663-32.812-15.961l18.014-27.253c2.284-3.455 1.334-8.108-2.121-10.392-3.456-2.283-8.108-1.334-10.393 2.121l-20.2 30.562c-11.773-3.486-23.819-5.904-35.958-7.247l9.009-28.544c1.247-3.95-.945-8.163-4.895-9.41-3.953-1.246-8.163.945-9.41 4.895l-10.079 31.936c-12.341-.438-24.717.22-36.976 1.989v-27.227c0-4.142-3.358-7.5-7.5-7.5s-7.5 3.358-7.5 7.5v29.96c-12.101 2.671-24.006 6.447-35.571 11.334l-8.191-24.776c-1.3-3.932-5.541-6.068-9.476-4.767-3.933 1.3-6.067 5.542-4.767 9.476l8.749 26.459c-11.054 5.672-21.711 12.418-31.817 20.243l-15.697-20.219c-2.54-3.271-7.251-3.865-10.523-1.325s-3.865 7.252-1.325 10.523l16.02 20.634c-.816.732-1.622 1.467-2.429 2.214-8.551 7.92-16.331 16.423-23.314 25.472l-16.737-10.876c-3.472-2.256-8.118-1.271-10.375 2.203-2.257 3.473-1.271 8.118 2.203 10.375l16.184 10.516c-7.563 11.467-13.956 23.705-19.129 36.642-1.538 3.846.333 8.21 4.179 9.749.912.364 1.854.537 2.781.537z" fill="#7a5341"/><path d="m391.15 63.522c-114.117-50.141-238.863-47.415-388.153 64.786-3.647 2.741-4.028 8.084-.802 11.31l8.123 8.123c200.019-69.079 270.533-84.219 380.832-84.219z" fill="#9a6a53"/><path d="m391.15 63.522c-58.252-11.342-124.449-4.327-180.813 15.14-119.055 41.117-174.946 60.42-200.018 69.079l15.801 15.801s0 0 187.143-64.632c116.401-40.199 192.296-23.337 275.281 40.574 1.364 1.05 2.973 1.558 4.571 1.558 2.247 0 4.47-1.006 5.947-2.924 2.527-3.281 1.916-7.991-1.366-10.519-.027-.021-.057-.044-.084-.064-36.503-28.105-72.782-49.215-106.462-64.013z" fill="#7a5341"/><path d="m432.189 407.128 22.46 11.808-4.29-25.01 13.507-25.821-12.097-1.758c-2.443-.355-4.555-1.889-5.647-4.103l-6.982-14.147c-2.751-5.574-10.7-5.574-13.451 0l-6.982 14.147c-1.092 2.214-3.204 3.748-5.647 4.103l-15.612 2.269c-6.152.894-8.608 8.454-4.157 12.793l11.297 11.011c1.768 1.723 2.574 4.206 2.157 6.639l-2.063 12.03z" fill="#6bbdd5"/><path d="m471.538 381.409c4.451-4.339 1.995-11.899-4.157-12.793l-3.514-.511-15.777 16.086c-1.687 1.72-2.445 4.145-2.038 6.519l2.442 14.24c.49 2.859-2.511 5.04-5.078 3.69l-12.827-6.743c-2.111-1.11-4.623-1.149-6.768-.107l-19.139 9.3-.604 3.519c-1.051 6.127 5.38 10.799 10.882 7.906l13.964-7.341c2.185-1.149 4.795-1.149 6.98 0l13.964 7.341c5.502 2.893 11.933-1.78 10.882-7.906l-2.667-15.548c-.417-2.433.389-4.916 2.157-6.639z" fill="#5595a2"/><path d="m331.048 447.987 16.012 8.418-3.058-17.83 5.487-16.783-3.276-.476c-1.741-.253-3.247-1.347-4.026-2.925l-4.977-10.085c-1.961-3.974-7.628-3.974-9.589 0l-4.977 10.085c-.779 1.578-2.284 2.672-4.026 2.925l-11.13 1.617c-4.385.637-6.137 6.027-2.963 9.12l8.053 7.85c1.26 1.228 1.835 2.998 1.538 4.732l-.56 3.263z" fill="#6bbdd5"/><path d="m357.343 422.933-7.853-1.141-7.497 7.026c-1.839 1.724-2.69 4.256-2.263 6.74l1.177 6.861c.49 2.859-2.511 5.04-5.078 3.69l-6.161-3.239c-2.231-1.173-4.902-1.147-7.11.07l-8.999 4.959-1.341 7.822c-.749 4.368 3.835 7.698 7.758 5.636l9.955-5.233c1.558-.819 3.418-.819 4.976 0l9.955 5.233c3.923 2.062 8.507-1.269 7.758-5.636l-1.901-11.085c-.297-1.734.278-3.504 1.538-4.732l8.053-7.85c3.169-3.094 1.418-8.483-2.967-9.121z" fill="#5595a2"/><path d="m256.422 448.282c0-1.515 0-6.993-4.647-9.353-1.378-.417-2.839-.647-4.353-.647-8.284 0-15 6.716-15 15 0 1.515.229 2.975.647 4.353 3.193 5.647 6.839 5.647 8.353 5.647 8.284 0 15-6.715 15-15z" fill="#6bbdd5"/><path d="m251.775 438.929c.418 1.378.647 2.839.647 4.353 0 8.284-6.716 15-15 15-1.515 0-2.975-.229-4.353-.647 1.866 6.16 7.584 10.647 14.353 10.647 8.284 0 15-6.716 15-15 0-6.769-4.486-12.487-10.647-14.353z" fill="#5595a2"/><g fill="#6bbdd5"><circle cx="183.037" cy="447.892" r="8"/><circle cx="136.037" cy="428.892" r="8"/></g></g></svg>