<svg id="Capa_1" enable-background="new 0 0 497 497" height="512" viewBox="0 0 497 497" width="512" xmlns="http://www.w3.org/2000/svg"><g><path d="m377.682 9.572c1.384-4.795-12.216-9.572-17.207-9.572h-234.064c-9.884 0-17.067 9.385-14.477 18.924 5.532 20.373 14.186 55.971 20.942 100.723l219.25 10c7.951-52.669 20.532-102.66 25.556-120.075z" fill="#f5fcff"/><path d="m370.59 0h-10.115c4.991 0 8.591 4.777 7.208 9.572-5.025 17.415-15.605 57.405-23.557 110.075h-211.25c.739 4.893 1.454 9.896 2.141 15l113.484 10 113.484-10c6.967-51.786 16.946-93.122 23.083-115.723 2.589-9.539-4.594-18.924-14.478-18.924z" fill="#dcf2f6"/><path d="m362.378 472.616c-1.857-7.052-5.68-22.328-9.93-43.69h-228.816c-4.168 20.04-8.26 36.407-11.408 48.075h246.768c2.296-.001 3.971-2.166 3.386-4.385z" fill="#dcf2f6"/><path d="m385.067 478.076c-3.184-11.726-7.403-28.495-11.698-49.15h-20.92c4.25 21.362 8.072 36.638 9.93 43.69.585 2.22-1.091 4.385-3.386 4.385h-246.769c-.097.358-.195.727-.29 1.076-2.59 9.539 4.593 18.924 14.477 18.924h244.179c9.884-.001 17.067-9.386 14.477-18.925z" fill="#bae6ef"/><path d="m344.096 248.5c0-39.016 5.435-94.685 5.435-94.685l-100.73.033c-.2-.022-.402-.024-.603-.006l-109.729 9.973c2.704 26.48 4.435 55.008 4.435 84.685 0 69.735-9.544 133.141-18.868 178.457l237.945 10c.001.001-17.885-85.145-17.885-188.457z" fill="#6bbdd5"/><path d="m218.932 119.647v-49.273c0-4.142 3.358-7.5 7.5-7.5h31.636l20 56.773-20 19.561z" fill="#dcf2f6"/><path d="m218.932 139.208v-19.561h39.136v-56.773h12.5c4.142 0 7.5 3.358 7.5 7.5v49.273l-20 19.561z" fill="#bae6ef"/><path d="m258.068 119.647h20v19.56h-20z" fill="#6bbdd5" transform="matrix(-1 0 0 -1 536.136 258.855)"/><path d="m241 417h15c4.142 0 7.5-3.358 7.5-7.5v-245.684h-30v245.684c0 4.143 3.358 7.5 7.5 7.5z" fill="#bae6ef"/><path d="m293.5 322.03h-30c-4.143 0-7.5-3.357-7.5-7.5v-21.106l-16.193 25.165c-1.38 2.145-3.756 3.441-6.307 3.441h-60.952c-2.744 0-5.269-1.499-6.583-3.907-1.314-2.409-1.208-5.344.276-7.651l29.107-45.233c1.153-1.792.487-3.436.147-4.059s-1.361-2.073-3.493-2.073h-19.194c-4.142 0-7.5-3.357-7.5-7.5s3.358-7.5 7.5-7.5h19.194c6.948 0 13.332 3.789 16.66 9.888 3.328 6.1 3.06 13.519-.7 19.361l-21.669 33.675h43.115l27.786-43.18c1.8-2.8 5.231-4.074 8.422-3.137 3.192.938 5.385 3.868 5.385 7.195v39.121h18.407l27.786-43.18c2.24-3.482 6.882-4.491 10.365-2.248 3.483 2.241 4.49 6.882 2.248 10.365l-30 46.621c-1.38 2.145-3.756 3.442-6.307 3.442z" fill="#f5fcff"/><path d="m334.096 248.5c0 103.312 17.885 178.457 17.885 178.457h-227.945c-.135.655-.27 1.32-.404 1.968-1.939 9.322 5.159 18.075 14.681 18.075h220.375c9.522 0 16.62-8.752 14.681-18.075-9.45-45.438-19.272-109.682-19.272-180.426 0-29.676 1.73-58.204 4.435-84.685l-9-10-11.001 10c-2.705 26.481-4.435 55.011-4.435 84.686z" fill="#5595a2"/><path d="m341.984 134.647h-206.968c.625 4.642 1.226 9.364 1.798 14.168l213.373 7z" fill="#87a0af"/><path d="m341.984 134.647c-.625 4.642-1.225 9.365-1.797 14.168h-203.373c.585 4.919 1.137 9.924 1.655 15h220.062c1.025-10.034 2.189-19.773 3.453-29.168z" fill="#738c96"/></g></svg>