<svg id="Capa_1" enable-background="new 0 0 504.437 504.437" height="512" viewBox="0 0 504.437 504.437" width="512" xmlns="http://www.w3.org/2000/svg"><g><path d="m210.888 382.913v32.123l101.384-35.613 10-77.654c0-.001-21.761 31.294-111.384 81.144z" fill="#c48958"/><path d="m210.888 112.627v270.285c38.199-15.917 72.404-37.956 89.623-49.85 4.977-3.437 11.761.123 11.761 6.172v40.188l43.682-25.344c11.988-4.211 20.011-15.533 20.011-28.239v-19.199c0-10.373.685-19.644 1.889-28.167v-165.846z" fill="#9a6a53"/><path d="m280.515 309.466c7.251-5.677 11.466-14.386 11.466-23.595v-55.126h90.612c10.147-27.852 29.359-92.317 29.547-150.517.004-1.185-.293-2.369-.863-3.408-15.573-28.385-28.952-47.924-61.397-65.439-19.286-6.565-39.073-7.663-58.16-7.663-1.488 0-44.983 0-72.562 0s-30.3 3.25-30.3 3.25v-3s-14.881-.25-16.276-.25c-20.567 0-37.261 8.253-37.261 31.671 0 4.613.502 9.042 1.255 13.092l6.774 20.883v139.438l-25.344 127.041c-1.18 5.914-.664 11.697 1.159 16.919 0 0 12.495 12.763 28.771 12.763 43.525.002 93.8-25.702 132.579-56.059z" fill="#f5fcff"/><g fill="#dcf2f6"><path d="m382.594 200.746c-4.107-14.612-16.237-25.203-30.561-25.203-17.702 0-20-10-20-10-31.033-12.213-47.052 10-47.052 36.123v77.205c0 9.209-4.215 17.919-11.466 23.595-38.779 30.357-92.054 53.06-135.578 53.06-6.744 0-13.08-1.118-18.771-2.763 4.371 12.523 16.309 21.799 30.771 21.763 43.524-.106 99.799-28.704 138.578-59.06 7.251-5.677 11.466-14.386 11.466-23.595v-38.481l19.041-19.041 58.832 44.125c8.631-61.121 43.917-83.769 44.287-198.246.004-1.185-.293-2.369-.863-3.408-21.029-38.332-45.77-56.715-71.397-65.439 21.271 16.688 35.825 37.053 51.397 65.439.57 1.039.867 2.222.863 3.408-.188 58.2-9.4 92.666-19.547 120.518z"/><path d="m219.268 49.28-82.701.085c2.531 11.766 6.784 20 6.784 20v14.023l95.917-14.108c0-11.046-8.954-20-20-20z"/><path d="m219.159 3.718-30.3.25c-9.755 4.832-14.461 18.974-14.461 31.421 0 4.893.509 9.582 1.28 13.889l8.525 6 6.985-6c-1.052-4.44-1.79-9.215-1.79-13.889 0-5.977 0-31.671 29.761-31.671z"/></g><path d="m183.265 72.81c1.332 2.575 17.034.236 15.151-3.445-.052-.101-4.613-9.053-7.227-20.085h-15.51c2.388 13.341 7.313 23.001 7.586 23.53z" fill="#bae6ef"/><path d="m376.555 76.058-34.438-25.122c-3.347-2.439-8.037-1.708-10.479 1.64-2.44 3.346-1.707 8.038 1.64 10.479l25.045 18.27c-14.955 5.469-37.188 3.811-47.729-4.97l-25.369-21.132c-10.413-8.674-23.43-12.23-35.713-9.756-6.724 1.355-12.657 4.378-17.235 8.639l6.992 15.173v.001c2.339-4.508 7.275-7.913 13.206-9.107 7.803-1.575 16.243.822 23.15 6.576l25.369 21.132c9.227 7.686 23.599 11.528 37.97 11.528 14.372 0 28.744-3.843 37.971-11.528 1.776-1.479 2.771-3.694 2.696-6.004s-1.209-4.456-3.076-5.819z" fill="#dcf2f6"/><path d="m232.276 54.107c-2.568 2.39-4.714 5.166-6.323 8.266-1.907 3.678-2.012 6.992-2.012 6.992s13.419 3.593 15.326-.085v-.001c.001-6.074-2.716-11.504-6.991-15.172z" fill="#bae6ef"/><path d="m239.354 112.627v-43.262h-96.002c-12.766 12.766-18.419 41.152-18.419 61.173v44.532l-43.487 40.509c-1.561 1.454-2.687 3.137-3.42 4.922l49.196 31.1 65.821 22.047c13.882-4.889 29.615-11.02 46.409-19.585 20.035-10.219 32.585-30.883 32.585-53.374v-25.619c-.001-34.691-7.546-46.843-32.683-62.443z" fill="#c48958"/><path d="m118.409 232.649-40.384-12.148c-2.972 7.24.631 16.19 8.919 18.683l31.465 9.466 8.812 2.951c3.173-7.285-.422-16.428-8.812-18.952z" fill="#9a6a53"/><path d="m299.981 201.665c0-19.95 14.35-36.123 32.052-36.123s32.052 16.173 32.052 36.123c0 33.743-27.226 60.216-45.486 60.216-7.092 0-13.588-3.193-18.617-8.492v-51.724z" fill="#c48958"/><path d="m502.412 291.411c-3.174-3.276-8.382-2.992-11.201.427-5.796 7.036-13.985 11.395-23.059 12.271-8.911.861-17.606-1.729-24.575-7.299-9.818-19.131-30.349-31.898-53.621-30.324-27.538 1.862-49.826 24.008-51.862 51.534-1.076 14.536 3.462 28.007 11.645 38.504 0 0-106.955 37.308-138.851 48.512l-210.408 86.252 295.083-58.925c-6.894 1.377-14.017-.968-18.712-6.201-2.074-2.312-4.051-4.705-5.954-7.089.476-3.165 1.003-6.393 1.661-9.601 1.409-6.868 6.32-12.493 12.936-14.812l76.228-26.718c9.09 6.404 20.158 10.18 32.098 10.18 30.814 0 55.884-25.069 55.884-55.884 0-1.83-.089-3.643-.262-5.428 6.402 2.12 13.236 2.897 20.152 2.229 12.942-1.251 24.634-7.421 32.964-17.387 2.496-2.986 2.562-7.446-.146-10.241zm-108.592 71.711c-22.543 0-40.883-18.341-40.883-40.884s18.34-40.883 40.883-40.883 40.884 18.34 40.884 40.883-18.341 40.884-40.884 40.884z" fill="#f3d69e"/><path d="m425.648 385.136c-22.413 0-41.774 13.269-50.673 32.357l-374.495 70.654v3.141c1.547 5.782 6.74 10.587 14.177 9.184 11.587-2.186 355.644-67.097 355.644-67.097-.344 2.501-.536 5.05-.536 7.645 0 30.813 25.069 55.883 55.884 55.883 30.813 0 55.883-25.069 55.883-55.883-.001-30.814-25.07-55.884-55.884-55.884zm0 96.767c-22.543 0-40.884-18.34-40.884-40.883s18.341-40.884 40.884-40.884 40.883 18.341 40.883 40.884-18.34 40.883-40.883 40.883z" fill="#edc472"/><circle cx="236.458" cy="427.261" fill="#e3a76f" r="7.927"/><path d="m210.888 415.364v-10.329s-195.877 68.806-202.722 71.211c-7.137 2.507-9.232 9.263-7.686 15.042l39.619-10.616 165.774-58.232c3.004-1.055 5.015-3.892 5.015-7.076z" fill="#f4e2c1"/><path d="m201.619 162.984c-1.423 0-2.86-.404-4.136-1.249-20.938-13.87-50.053-17.141-72.445-8.137-3.842 1.541-8.211-.318-9.757-4.161-1.545-3.844.318-8.212 4.161-9.757 27.187-10.926 61.071-7.181 86.326 9.551 3.453 2.287 4.397 6.941 2.109 10.395-1.442 2.177-3.827 3.358-6.258 3.358z" fill="#7a5341"/><path d="m170.085 198.415c-6.216 0-12.432-1.259-17.388-3.774-3.693-1.874-5.168-6.389-3.293-10.082 1.874-3.692 6.389-5.169 10.082-3.293 5.548 2.814 15.652 2.814 21.198 0 3.694-1.878 8.208-.4 10.082 3.293 1.875 3.693.4 8.208-3.293 10.082-4.956 2.515-11.171 3.774-17.388 3.774z" fill="#7a5341"/><path d="m192.82 273.067c7.326-5.409 14.661-23.063 4.553-25.451-4.811 8.76-13.757 13.308-21.538 13.308-20.745 0-18.807-12.274-57.426-12.274l-3.82 19.147c6.985 10.474 31.445 15.053 42.92 15.053 18.234-.001 29.266-5.321 35.311-9.783z" fill="#dcf2f6"/><path d="m124.003 283.998c13.632 4.201 25.367 5.862 35.077 5.862 18.841 0 30.691-6.021 37.079-10.736 9.716-7.173 15.288-17.341 15.288-27.897 0-3.425-2.319-6.414-5.637-7.265-3.316-.854-6.789.652-8.438 3.654-1.531 7.875-4.278 15.125-10.123 19.44-4.822 3.56-13.624 7.804-28.17 7.804-9.154 0-28.234-3.373-44.49-7.064-1.398 7.011 2.629 14.014 9.414 16.202z" fill="#bae6ef"/></g></svg>