<svg id="Capa_1" enable-background="new 0 0 504.374 504.374" height="512" viewBox="0 0 504.374 504.374" width="512" xmlns="http://www.w3.org/2000/svg"><g><path d="m402.085 86.534c16.433-7.526 29.91-9.96 40.483-7.901 11.217 5.649 19.186 23.013 19.186 53.823 0 34.191-31.682 59.042-59.669 19.57z" fill="#da8bc1"/><path d="m442.566 78.641c7.4 12.118 9.188 32.602 9.188 53.816 0 22.079-12.24 40.276-49.669 19.57v26.352c46.842 21.452 69.669 1.536 69.669-45.922 0-30.808-9.624-50.003-29.188-53.816z" fill="#d273b3"/><path d="m214.571 160.226-100.673 10c-1.117 2.94-2.719 5.698-4.783 8.136l-26.037 30.746c-6.376 7.529-3.152 19.115 6.196 22.269l17.779 5.999s-1.378 6.348-2.864 13.78c-.145.724-.21 1.44-.242 2.15l13.717 11.82 3.715 35.853c.291 2.812.991 5.49 2.028 7.985l91.165-.299v-148.439z" fill="#f4e2c1"/><path d="m115.597 130.226.138 30c.009 3.445-.631 6.829-1.836 10h100.673l-14.925 123.096s-38.211 15.115-76.24 15.642c4.305 10.351 14.501 17.498 26.231 17.498 24.035 0 50.008-12.11 50.008-12.11h13.498l.124 99.926 117.013-31.23s0-71.047 0-79.511c0-23.431 8.937-37.869 20.901-50.377v-122.934z" fill="#f3d69e"/><path d="m350.899 373.71-10-23.622-178.951 47.95c-7.912 2.12-12.528 10.12-10.719 17.872z" fill="#6bbdd5"/><path d="m340.899 350.089v3.49c0 6.789-4.56 12.732-11.118 14.489l-178.553 47.843c.146.627.321 1.253.553 1.874l11.605 31.009 196.395-52.25v-31.967c0-9.862-9.356-17.041-18.882-14.488z" fill="#8ab6bf"/><path d="m159.126 247.522c-2.006-3.624-6.568-4.936-10.194-2.931-7.683 4.252-25.171 9.217-38.428 9.217-1.19 0-3.653-.207-6.557-.501-.346 7.805 5.895 14.563 14.001 14.563 13.962 0 28.651-4.844 38.247-10.154 3.624-2.006 4.936-6.569 2.931-10.194z" fill="#eaacde"/><path d="m199.458 349.57c40.02-20.011 56.416-69.526 56.416-141.007v-66.239h146.166c0-55.79-27.056-94.866-50.064-118.008-23.106-14.922-52.747-23.7-88.725-23.7-138.643 0-181.158 48.102-181.158 105.283 0 9.102 1.314 17.415 2.988 24.328l114.565 20v164.127.005c-.001 10.543-2.379 18.853-5.413 25.164z" fill="#eaacde"/><g fill="#da8bc1"><path d="m410.771 121.665c-5.004-40.199-24.832-75.416-58.795-97.349 15.46 23.316 35.951 61.645 39.516 105.01l10.548 12.999z"/><path d="m191.915 85.885c-4.105.123-7.269 3.704-7.269 7.811v36.531h-99.565c1.584 6.542 3.492 11.826 4.92 15.316 1.157 2.829 3.896 4.684 6.952 4.684h18.736l7.41-7 7.594 7h21.072l6.846-3.087 11.224 3.087h29.811c0-32.577 0-56.845 0-56.845 0-4.22-3.483-7.625-7.731-7.497z"/><path d="m154.985 105.899c0-21.359 6.165-39.379 18.323-53.559 2.696-3.145 2.333-7.879-.812-10.575-3.145-2.697-7.88-2.334-10.575.812-14.556 16.975-21.937 38.279-21.937 63.322 0 8.995 1.511 17.258 3.548 24.328l8.87 4.941 6.877-4.941c-2.324-6.709-4.294-15.109-4.294-24.328z"/></g><path d="m159.281 130.226h-15.747c2.556 8.871 5.941 15.854 8.232 20h18.07c-1.243-1.587-2.398-3.114-3.122-4.193-.07-.102-4.113-6.228-7.433-15.807z" fill="#d273b3"/><path d="m115.693 130.293-.004-.926c-.019-4.142 3.324-7.515 7.467-7.533h.034c4.126 0 7.48 3.336 7.499 7.467l.004.926-7.467 7.533z" fill="#da8bc1"/><path d="m115.689 130.226h15.004v20h-15.004z" fill="#d273b3"/><path d="m268.588 55.013c-2.909-2.948-10.674-11.461-10.674-11.461v22c25.384 25.713 59.552 39.373 93.984 39.373 11.504 0 23.276-1.531 34.695-4.641v-14.365h-4.18c-39.756 10.841-83.887-.581-113.825-30.906z" fill="#da8bc1"/><path d="m399.295 79.827c-5.499 2.502-11.145 4.528-16.881 6.092 1.542 4.669 2.947 9.463 4.18 14.364 6.157-1.677 12.208-3.819 18.062-6.426-1.546-4.797-3.332-9.48-5.361-14.03z" fill="#d273b3"/><path d="m346.562 238.955c26.516-23.458 55.478-48.149 55.478-96.631l-10.548-12.999c-41.838 12.6-93.114 4.012-128.241-27.125h-15l15 106.362 49.004 15.403z" fill="#da8bc1"/><path d="m410.771 121.665c-6.111 3.101-12.578 5.642-19.279 7.66.352 4.288.548 8.622.548 12.999 0 48.482-18.962 63.173-45.478 86.631.517-3.369.792-6.841.792-10.393 0-19.95-14.35-36.123-32.052-36.123s-32.052 16.173-32.052 36.123l29.004 5.403 38.927 29.195c24.224-25.323 60.858-42.731 60.858-110.836.001-7.001-.426-13.9-1.268-20.659z" fill="#d273b3"/><path d="m255.874 152.027c16.687 17.725 38.871 24.376 44.406 27.036l-44.406 44.339z" fill="#d273b3"/><path d="m263.252 208.562c0-19.95 14.35-36.123 32.052-36.123s32.052 16.173 32.052 36.123c0 33.743-24.837 60.216-45.486 60.216-8.02 0-17.314-3.193-22.343-8.492z" fill="#f4e2c1"/><path d="m263.252 37.679c0-4.142-3.358-7.5-7.5-7.5s-7.5 3.358-7.5 7.5v170.879c0 68.402-19.335 106.101-54.02 130.964-5.172 10.762-12.248 15.714-12.687 16.013-3.235 2.132-4.279 6.34-2.534 9.706 1.333 2.578 3.953 4.058 6.668 4.058 1.16 0 2.338-.271 3.438-.84 28.054-14.505 47.345-34.91 58.977-62.384 10.336-24.416 15.153-55.385 15.157-97.459 0-.018 0-.036 0-.053v-170.884z" fill="#da8bc1"/><path d="m245.643 336.07c-1.576-1.204-4.429-4.46-6.409-12.837h-2.163v-39.942-123.064c0-4.143-3.357-7.5-7.5-7.5s-7.5 3.357-7.5 7.5v140.062c0 3.935.141 7.629.395 11.129l6.123 26.448c2.133 4.308 4.776 7.702 7.947 10.124 1.359 1.038 2.96 1.54 4.547 1.54 2.258 0 4.49-1.015 5.966-2.947 2.516-3.293 1.886-8-1.406-10.513z" fill="#da8bc1"/><path d="m237.072 283.291c-3.9 10.573-8.783 19.873-14.605 28.126.798 10.987 2.843 19.824 6.123 26.448 3.916-4.574 7.449-9.458 10.644-14.633-1.257-5.319-2.163-12.697-2.163-22.944v-16.997z" fill="#d273b3"/><path d="m159.985 196.928c-6.216 0-12.432-1.259-17.388-3.774-3.693-1.874-5.168-6.389-3.293-10.082 1.875-3.692 6.39-5.169 10.082-3.293 5.548 2.814 15.652 2.814 21.198 0 3.694-1.877 8.208-.4 10.082 3.293 1.875 3.693.4 8.208-3.293 10.082-4.956 2.515-11.171 3.774-17.388 3.774z" fill="#c48958"/><path d="m493.638 448.691-137.438 36.826c-4.002 1.074-8.114-1.302-9.186-5.303s1.302-8.114 5.303-9.186l137.438-36.826z" fill="#bae6ef"/><path d="m292.281 308.635c0-10.28 0-40.292 0-48.165 0-7.31-3.843-13.858-8.385-15.443-1.474-.329-3.001-.516-4.574-.516-11.575 0-20.959 9.384-20.959 20.959v45.165c0 7.187 4.741 13.662 9.713 18.481 16.102 0 24.205-9.981 24.205-20.481z" fill="#f5fcff"/><path d="m283.895 245.027c.882 2.316 1.385 4.818 1.385 7.443v56.165c0 6.716-8.935 14.61-17.206 20.481 2.388 2.314 4.829 4.246 6.824 5.69 2.63 1.903 6.17 1.934 8.802.033 6.144-4.436 16.579-13.541 16.579-24.204 0-10.28 0-37.292 0-45.165.002-10.003-7.01-18.355-16.384-20.443z" fill="#dcf2f6"/><path d="m498.374 437.07c0-1.515 0-6.993-4.647-9.353-1.378-.417-2.839-.647-4.353-.647-8.284 0-15 6.716-15 15 0 1.515.229 2.975.647 4.353 3.193 5.647 6.839 5.647 8.353 5.647 8.285 0 15-6.716 15-15z" fill="#eaacde"/><path d="m493.728 427.716c.418 1.378.647 2.839.647 4.353 0 8.284-6.716 15-15 15-1.515 0-2.975-.229-4.353-.647 1.866 6.16 7.584 10.647 14.353 10.647 8.284 0 15-6.716 15-15-.001-6.769-4.487-12.486-10.647-14.353z" fill="#da8bc1"/><path d="m120.882 473.64-111.439 29.86c-4.002 1.077-8.114-1.302-9.186-5.303-1.072-4.001 1.302-8.114 5.303-9.186l111.439-29.86z" fill="#d273b3"/><path d="m136.109 482.34-24.068-40.929c-15.195 4.071-29.79 10.117-43.413 17.982l-41.108 23.734 47.6 10.493c15.731 0 45.795-7.208 60.989-11.28z" fill="#dcf2f6"/><path d="m121.708 477.487c-15.194 4.071-30.003 5.64-45.734 5.64h-48.454l3.884 14.488h47.466c15.73 0 31.393-2.062 46.587-6.133l10.652-9.142z" fill="#bae6ef"/><path d="m482.649 342.107-370.607 99.304 9.666 36.076 370.607-89.304c5.864-1.571 11.569-14.583 7.535-31.352-4.35-10.002-11.337-16.295-17.201-14.724z" fill="#f5fcff"/><path d="m502.239 363.691c-.651-2.43-1.461-4.728-2.389-6.86 1.234 10.837-1.671 19.781-7.535 21.352l-370.607 99.304 3.75 13.995 370.607-99.304c7.115-1.906 9.879-14.66 6.174-28.487z" fill="#dcf2f6"/></g></svg>