<svg id="Layer_1" enable-background="new 0 0 512 512" height="512" viewBox="0 0 512 512" width="512" xmlns="http://www.w3.org/2000/svg"><g><g><g><path d="m32 400h352c8.837 0 16 7.163 16 16 0 8.837-7.163 16-16 16h-352c-8.837 0-16-7.163-16-16 0-8.837 7.163-16 16-16z" fill="#555a6e"/></g><g><path d="m77.333 432h261.333l-25.473 23.514c-5.911 5.456-13.66 8.486-21.705 8.486h-166.977c-8.044 0-15.794-3.03-21.705-8.486z" fill="#463c4b"/></g><g><path d="m32 176h352c8.837 0 16 7.163 16 16 0 8.837-7.163 16-16 16h-352c-8.837 0-16-7.163-16-16 0-8.837 7.163-16 16-16z" fill="#555a6e"/></g><g><path d="m77.333 208h261.333l-25.473 23.514c-5.911 5.456-13.66 8.486-21.705 8.486h-166.977c-8.044 0-15.794-3.03-21.705-8.486z" fill="#463c4b"/></g><g><path d="m192 240h32v160h-32z" fill="#463c4b"/></g><g><path d="m192 256h16v144h-16z" fill="#555a6e"/></g><g><path d="m192 64h32v112h-32z" fill="#463c4b"/></g><g><path d="m192 96h16v80h-16z" fill="#555a6e"/></g><g><circle cx="208" cy="48" fill="#463c4b" r="32"/></g><g><path d="m176 48h16c8.837 0 16-7.163 16-16v-16c-17.673 0-32 14.327-32 32z" fill="#555a6e"/></g><g><g><path d="m128 400h-64c-17.673 0-32-14.327-32-32 0-17.673 14.327-32 32-32h64c17.673 0 32 14.327 32 32 0 17.673-14.327 32-32 32z" fill="#5faa46"/></g><g><path d="m80 400h-16c-17.673 0-32-14.327-32-32 0-17.673 14.327-32 32-32h16c17.673 0 32 14.327 32 32 0 17.673-14.327 32-32 32z" fill="#afd763"/></g></g><g><g><path d="m240 400h-64c-17.673 0-32-14.327-32-32 0-17.673 14.327-32 32-32h64c17.673 0 32 14.327 32 32 0 17.673-14.327 32-32 32z" fill="#ff6955"/></g><g><path d="m192 400h-16c-17.673 0-32-14.327-32-32 0-17.673 14.327-32 32-32h16c17.673 0 32 14.327 32 32 0 17.673-14.327 32-32 32z" fill="#ff8773"/></g></g><g><g><path d="m352 176h-64c-17.673 0-32-14.327-32-32 0-17.673 14.327-32 32-32h64c17.673 0 32 14.327 32 32 0 17.673-14.327 32-32 32z" fill="#5faa46"/></g><g><path d="m304 176h-16c-17.673 0-32-14.327-32-32 0-17.673 14.327-32 32-32h16c17.673 0 32 14.327 32 32 0 17.673-14.327 32-32 32z" fill="#afd763"/></g></g><g><g><path d="m128 176h-64c-17.673 0-32-14.327-32-32 0-17.673 14.327-32 32-32h64c17.673 0 32 14.327 32 32 0 17.673-14.327 32-32 32z" fill="#faa019"/></g><g><path d="m80 176h-16c-17.673 0-32-14.327-32-32 0-17.673 14.327-32 32-32h16c17.673 0 32 14.327 32 32 0 17.673-14.327 32-32 32z" fill="#ffd205"/></g></g><g><g><path d="m240 176h-64c-17.673 0-32-14.327-32-32 0-17.673 14.327-32 32-32h64c17.673 0 32 14.327 32 32 0 17.673-14.327 32-32 32z" fill="#ff6955"/></g><g><path d="m192 176h-16c-17.673 0-32-14.327-32-32 0-17.673 14.327-32 32-32h16c17.673 0 32 14.327 32 32 0 17.673-14.327 32-32 32z" fill="#ff8773"/></g></g></g><g><g><g><path d="m464 480h-352c-8.837 0-16-7.163-16-16 0-8.837 7.163-16 16-16h352c8.837 0 16 7.163 16 16 0 8.837-7.163 16-16 16z" fill="#a5c3dc"/></g><g><path d="m288 480h-176c-8.837 0-16-7.163-16-16 0-8.837 7.163-16 16-16h176c8.837 0 16 7.163 16 16 0 8.837-7.163 16-16 16z" fill="#d7e6f0"/></g><g><path d="m432 496h-288c-8.837 0-16-7.163-16-16h320c0 8.837-7.163 16-16 16z" fill="#a5c3dc"/></g><g><path d="m376 448h-176c-17.673 0-32-14.327-32-32v-112c0-8.837 7.163-16 16-16h208c8.837 0 16 7.163 16 16v112c0 17.673-14.327 32-32 32z" fill="#a5c3dc"/></g><g><path d="m392 288h-208c-8.837 0-16 7.164-16 16v112h120v-112h120c0-8.836-7.163-16-16-16z" fill="#d7e6f0"/></g></g><g><path d="m408 424c-4.418 0-8-3.582-8-8 0-13.233 10.767-24 24-24h20c19.851 0 36-16.149 36-36s-16.149-36-36-36h-36c-4.418 0-8-3.582-8-8s3.582-8 8-8h36c28.673 0 52 23.327 52 52s-23.327 52-52 52h-20c-4.411 0-8 3.589-8 8 0 4.418-3.582 8-8 8z" fill="#a5c3dc"/></g><g><path d="m288 304h120v16h-120z" fill="#f06423"/></g><g><path d="m168 304h120v16h-120z" fill="#faa019" transform="matrix(-1 0 0 -1 456 624)"/></g></g></g></svg>