<svg id="Layer_1" enable-background="new 0 0 512 512" height="512" viewBox="0 0 512 512" width="512" xmlns="http://www.w3.org/2000/svg"><g><g><path d="m496 256c-24.003 0-24.003 16-48.005 16-24.003 0-24.003-16-48.005-16-23.999 0-23.999 16-47.999 16s-24-16-48-16c-23.999 0-23.999 16-47.998 16s-23.999-16-47.997-16c-24 0-24 16-48 16-23.999 0-23.999-16-47.998-16-24 0-24 16-47.999 16-24 0-24-16-47.999-16v-167.12c0-5.169 4.841-9.013 9.862-7.785 14.75 3.61 17.972 14.905 38.137 14.905 24 0 24-16 47.999-16s23.999 16 47.998 16c24 0 24-16 48-16 23.999 0 23.999 16 47.997 16 23.999 0 23.999-16 47.998-16 24 0 24 16 48 16 23.999 0 23.999-16 47.999-16 24.003 0 24.003 16 48.005 16 20.168 0 23.39-11.296 38.144-14.905 5.021-1.229 9.861 2.615 9.861 7.784z" fill="#ffd23c"/></g><g><path d="m496 408v-184c-24.003 0-24.003 16-48.005 16s-24.002-16-48.005-16c-23.999 0-23.999 16-47.999 16s-24-16-48-16c-23.999 0-23.999 16-47.998 16s-23.999-16-47.997-16c-24 0-24 16-48 16-23.999 0-23.999-16-47.998-16-24 0-24 16-48 16-23.999 0-23.999-16-47.998-16v184c0 4.418 3.582 8 8 8h464c4.418 0 8-3.582 8-8z" fill="#d26e28"/></g><g><circle cx="248" cy="288" fill="#a55023" r="8"/></g><g><circle cx="200" cy="344" fill="#a55023" r="8"/></g><g><circle cx="184" cy="376" fill="#a55023" r="8"/></g><g><circle cx="312" cy="344" fill="#a55023" r="8"/></g><g><circle cx="408" cy="376" fill="#a55023" r="8"/></g><g><circle cx="392" cy="344" fill="#a55023" r="8"/></g><g><circle cx="456" cy="344" fill="#a55023" r="8"/></g><g><circle cx="344" cy="296" fill="#a55023" r="8"/></g><g><circle cx="120" cy="312" fill="#a55023" r="8"/></g><g><circle cx="40" cy="280" fill="#a55023" r="8"/></g><g><circle cx="176" cy="304" fill="#a55023" r="16"/></g><g><circle cx="128" cy="352" fill="#a55023" r="16"/></g><g><circle cx="240" cy="368" fill="#a55023" r="16"/></g><g><circle cx="304" cy="304" fill="#a55023" r="16"/></g><g><circle cx="368" cy="368" fill="#a55023" r="16"/></g><g><circle cx="432" cy="336" fill="#a55023" r="16"/></g><g><circle cx="464" cy="288" fill="#a55023" r="16"/></g><g><circle cx="80" cy="304" fill="#a55023" r="16"/></g><g><circle cx="64" cy="368" fill="#a55023" r="16"/></g><g><path d="m496 256c-24.003 0-24.003 16-48.005 16-24.003 0-24.003-16-48.005-16-23.999 0-23.999 16-47.999 16s-24-16-48-16c-23.999 0-23.999 16-47.998 16s-23.999-16-47.997-16c-24 0-24 16-48 16-23.999 0-23.999-16-47.998-16-24 0-24 16-47.999 16-24 0-24-16-47.999-16v-80c23.999 0 23.999 16 47.999 16s24-16 47.999-16 23.999 16 47.998 16c24 0 24-16 48-16 23.999 0 23.999 16 47.997 16 23.999 0 23.999-16 47.998-16 24 0 24 16 48 16 23.999 0 23.999-16 47.999-16 24.003 0 24.003 16 48.005 16 24.003 0 24.003-16 48.005-16z" fill="#faa019"/></g><g><path d="m447.995 240c-24.002 0-24.002-16-48.005-16-23.999 0-23.999 16-47.999 16s-24-16-48-16c-23.999 0-23.999 16-47.998 16s-23.999-16-47.997-16c-24 0-24 16-48 16-23.999 0-23.999-16-47.998-16-24 0-24 16-48 16-23.999 0-23.999-16-47.998-16v16c23.999 0 23.999 16 47.999 16s24-16 48-16c23.999 0 23.999 16 47.998 16 24 0 24-16 48-16 23.999 0 23.999 16 47.997 16s23.999-16 47.998-16c24 0 24 16 48 16 23.999 0 23.999-16 47.999-16 24.003 0 24.003 16 48.005 16 24.003 0 24.003-16 48.005-16v-16c-24.004 0-24.004 16-48.006 16z" fill="#f57828"/></g><g><path d="m64.005 208c24.002 0 24.002-16 48.005-16 23.999 0 23.999 16 47.999 16s24-16 48-16c23.999 0 23.999 16 47.998 16s23.999-16 47.997-16c24 0 24 16 48 16 23.999 0 23.999-16 47.998-16 24 0 24 16 48 16 23.999 0 23.999-16 47.999-16v16c-23.999 0-23.999 16-47.999 16s-24-16-48-16c-23.999 0-23.999 16-47.998 16-24 0-24-16-48-16-23.999 0-23.999 16-47.997 16s-23.999-16-47.998-16c-24 0-24 16-48 16-23.999 0-23.999-16-47.999-16-24.003 0-24.003 16-48.005 16s-24.002-16-48.005-16v-16c24.003 0 24.003 16 48.005 16z" fill="#f57828"/></g><g><circle cx="32" cy="304" fill="#fab991" r="16"/></g><g><circle cx="80" cy="336" fill="#fab991" r="16"/></g><g><circle cx="144" cy="368" fill="#fab991" r="16"/></g><g><circle cx="208" cy="304" fill="#fab991" r="16"/></g><g><circle cx="272" cy="352" fill="#fab991" r="16"/></g><g><circle cx="368" cy="336" fill="#fab991" r="16"/></g><g><circle cx="432" cy="304" fill="#fab991" r="16"/></g><g><circle cx="464" cy="368" fill="#fab991" r="16"/></g><g><circle cx="392" cy="296" fill="#fab991" r="8"/></g><g><circle cx="328" cy="376" fill="#fab991" r="8"/></g><g><circle cx="152" cy="296" fill="#fab991" r="8"/></g><g><circle cx="56" cy="376" fill="#fab991" r="8"/></g><g><circle cx="216" cy="376" fill="#fab991" r="8"/></g><g><circle cx="232" cy="344" fill="#fab991" r="8"/></g><g><circle cx="296" cy="280" fill="#fab991" r="8"/></g><g><circle cx="104" cy="280" fill="#fab991" r="8"/></g><g><circle cx="392" cy="392" fill="#fab991" r="8"/></g><g><circle cx="420" cy="348" fill="#fab991" r="4"/></g><g><circle cx="476" cy="324" fill="#fab991" r="4"/></g><g><circle cx="476" cy="284" fill="#fab991" r="4"/></g><g><circle cx="356" cy="292" fill="#fab991" r="4"/></g><g><circle cx="324" cy="324" fill="#fab991" r="4"/></g><g><circle cx="316" cy="356" fill="#fab991" r="4"/></g><g><circle cx="284" cy="388" fill="#fab991" r="4"/></g><g><circle cx="284" cy="316" fill="#fab991" r="4"/></g><g><circle cx="260" cy="284" fill="#fab991" r="4"/></g><g><circle cx="252" cy="316" fill="#fab991" r="4"/></g><g><circle cx="196" cy="356" fill="#fab991" r="4"/></g><g><circle cx="164" cy="348" fill="#fab991" r="4"/></g><g><circle cx="188" cy="316" fill="#fab991" r="4"/></g><g><circle cx="132" cy="324" fill="#fab991" r="4"/></g><g><circle cx="124" cy="292" fill="#fab991" r="4"/></g><g><circle cx="100" cy="348" fill="#fab991" r="4"/></g><g><circle cx="124" cy="380" fill="#fab991" r="4"/></g><g><circle cx="92" cy="388" fill="#fab991" r="4"/></g><g><circle cx="68" cy="356" fill="#fab991" r="4"/></g><g><circle cx="36" cy="348" fill="#fab991" r="4"/></g><g><circle cx="36" cy="380" fill="#fab991" r="4"/></g><g><circle cx="68" cy="316" fill="#fab991" r="4"/></g><g><circle cx="60" cy="284" fill="#fab991" r="4"/></g><g><path d="m488 416h-464c-4.418 0-8-3.582-8-8 0-4.418 3.582-8 8-8h464c4.418 0 8 3.582 8 8 0 4.418-3.582 8-8 8z" fill="#faa019"/></g></g></svg>