<svg id="Layer_1" enable-background="new 0 0 512 512" height="512" viewBox="0 0 512 512" width="512" xmlns="http://www.w3.org/2000/svg"><g><g><path d="m64 384c-26.467 0-48-21.532-48-48s21.533-48 48-48c4.418 0 8 3.582 8 8s-3.582 8-8 8c-17.645 0-32 14.355-32 32s14.355 32 32 32 32-14.355 32-32c0-8.548-3.329-16.584-9.373-22.627-1.5-1.5-2.343-3.535-2.343-5.657s.843-4.156 2.343-5.657l283.716-283.716c3.124-3.123 8.189-3.123 11.313 0 3.125 3.125 3.125 8.189 0 11.314l-278.524 278.525c5.762 8.069 8.868 17.704 8.868 27.818 0 26.468-21.533 48-48 48z" fill="#555a6e"/></g><g><circle cx="280" cy="120" fill="#f04b37" r="40"/></g><g><g><path d="m186.343 277.657-4.686 4.686c-3.124 3.124-8.19 3.124-11.314 0l-52.686-52.686c-3.124-3.124-3.124-8.19 0-11.314l4.686-4.686c3.124-3.124 8.19-3.124 11.314 0l52.686 52.686c3.124 3.124 3.124 8.19 0 11.314z" fill="#faa019"/></g><g><path d="m154.343 245.657-4.686 4.686c-3.124 3.124-8.19 3.124-11.314 0l-20.686-20.686c-3.124-3.124-3.124-8.19 0-11.314l4.686-4.686c3.124-3.124 8.19-3.124 11.314 0l20.686 20.686c3.124 3.124 3.124 8.19 0 11.314z" fill="#ffd205"/></g></g><g><g><path d="m378.343 85.657-4.686 4.686c-3.124 3.124-8.19 3.124-11.314 0l-52.686-52.686c-3.124-3.124-3.124-8.19 0-11.314l4.686-4.686c3.124-3.124 8.19-3.124 11.314 0l52.686 52.686c3.124 3.124 3.124 8.19 0 11.314z" fill="#faa019"/></g><g><path d="m346.343 53.657-4.686 4.686c-3.124 3.124-8.19 3.124-11.314 0l-20.686-20.686c-3.124-3.124-3.124-8.19 0-11.314l4.686-4.686c3.124-3.124 8.19-3.124 11.314 0l20.686 20.686c3.124 3.124 3.124 8.19 0 11.314z" fill="#ffd205"/></g></g><g><g><path d="m212.686 251.314-9.373 9.373c-6.248 6.248-16.379 6.248-22.627 0l-41.373-41.373c-6.248-6.248-6.248-16.379 0-22.627l9.373-9.373c6.248-6.248 16.379-6.248 22.627 0l41.373 41.373c6.249 6.248 6.249 16.378 0 22.627z" fill="#5faa46"/></g><g><path d="m180.686 219.314-9.373 9.373c-6.248 6.248-16.379 6.248-22.627 0l-9.373-9.373c-6.248-6.248-6.248-16.379 0-22.627l9.373-9.373c6.248-6.248 16.379-6.248 22.627 0l9.373 9.373c6.249 6.248 6.249 16.378 0 22.627z" fill="#91c83c"/></g></g><g><g><path d="m244.686 219.314-9.373 9.373c-6.248 6.248-16.379 6.248-22.627 0l-41.373-41.373c-6.248-6.248-6.248-16.379 0-22.627l9.373-9.373c6.248-6.248 16.379-6.248 22.627 0l41.373 41.373c6.249 6.248 6.249 16.378 0 22.627z" fill="#a55023"/></g><g><path d="m212.686 187.314-9.373 9.373c-6.248 6.248-16.379 6.248-22.627 0l-9.373-9.373c-6.248-6.248-6.248-16.379 0-22.627l9.373-9.373c6.248-6.248 16.379-6.248 22.627 0l9.373 9.373c6.249 6.248 6.249 16.378 0 22.627z" fill="#d26e28"/></g></g><g><g><path d="m276.686 187.314-9.373 9.373c-6.248 6.248-16.379 6.248-22.627 0l-41.373-41.373c-6.248-6.248-6.248-16.379 0-22.627l9.373-9.373c6.248-6.248 16.379-6.248 22.627 0l41.373 41.373c6.249 6.248 6.249 16.378 0 22.627z" fill="#a55023"/></g><g><path d="m244.686 155.314-9.373 9.373c-6.248 6.248-16.379 6.248-22.627 0l-9.373-9.373c-6.248-6.248-6.248-16.379 0-22.627l9.373-9.373c6.248-6.248 16.379-6.248 22.627 0l9.373 9.373c6.249 6.248 6.249 16.378 0 22.627z" fill="#d26e28"/></g></g><g><g><path d="m356.686 107.314-9.373 9.373c-6.248 6.248-16.379 6.248-22.627 0l-41.373-41.373c-6.248-6.248-6.248-16.379 0-22.627l9.373-9.373c6.248-6.248 16.379-6.248 22.627 0l41.373 41.373c6.249 6.248 6.249 16.378 0 22.627z" fill="#5faa46"/></g><g><path d="m324.686 75.314-9.373 9.373c-6.248 6.248-16.379 6.248-22.627 0l-9.373-9.373c-6.248-6.248-6.248-16.379 0-22.627l9.373-9.373c6.248-6.248 16.379-6.248 22.627 0l9.373 9.373c6.249 6.248 6.249 16.378 0 22.627z" fill="#91c83c"/></g></g><g><path d="m240 120h24c8.837 0 16-7.163 16-16v-24c-22.091 0-40 17.909-40 40z" fill="#f5826e"/></g><g><path d="m24 344c-4.418 0-8-3.582-8-8 0-26.468 21.533-48 48-48 4.418 0 8 3.582 8 8s-3.582 8-8 8c-17.645 0-32 14.355-32 32 0 4.418-3.582 8-8 8z" fill="#96aab9"/></g><g><path d="m176 496c-26.467 0-48-21.532-48-48s21.533-48 48-48c4.418 0 8 3.582 8 8s-3.582 8-8 8c-17.645 0-32 14.355-32 32s14.355 32 32 32 32-14.355 32-32c0-8.548-3.329-16.584-9.373-22.627-1.5-1.5-2.343-3.535-2.343-5.657s.843-4.156 2.343-5.657l283.716-283.716c3.124-3.123 8.189-3.123 11.313 0 3.125 3.125 3.125 8.189 0 11.314l-278.524 278.525c5.762 8.069 8.868 17.704 8.868 27.818 0 26.468-21.533 48-48 48z" fill="#555a6e"/></g><g><circle cx="392" cy="232" fill="#f04b37" r="40"/></g><g><g><path d="m298.343 389.657-4.686 4.686c-3.124 3.124-8.19 3.124-11.314 0l-52.686-52.686c-3.124-3.124-3.124-8.19 0-11.314l4.686-4.686c3.124-3.124 8.19-3.124 11.314 0l52.686 52.686c3.124 3.124 3.124 8.19 0 11.314z" fill="#faa019"/></g><g><path d="m266.343 357.657-4.686 4.686c-3.124 3.124-8.19 3.124-11.314 0l-20.686-20.686c-3.124-3.124-3.124-8.19 0-11.314l4.686-4.686c3.124-3.124 8.19-3.124 11.314 0l20.686 20.686c3.124 3.124 3.124 8.19 0 11.314z" fill="#ffd205"/></g></g><g><g><path d="m490.343 197.657-4.686 4.686c-3.124 3.124-8.19 3.124-11.314 0l-52.686-52.686c-3.124-3.124-3.124-8.19 0-11.314l4.686-4.686c3.124-3.124 8.19-3.124 11.314 0l52.686 52.686c3.124 3.124 3.124 8.19 0 11.314z" fill="#faa019"/></g><g><path d="m458.343 165.657-4.686 4.686c-3.124 3.124-8.19 3.124-11.314 0l-20.686-20.686c-3.124-3.124-3.124-8.19 0-11.314l4.686-4.686c3.124-3.124 8.19-3.124 11.314 0l20.686 20.686c3.124 3.124 3.124 8.19 0 11.314z" fill="#ffd205"/></g></g><g><g><path d="m324.686 363.314-9.373 9.373c-6.248 6.248-16.379 6.248-22.627 0l-41.373-41.373c-6.248-6.248-6.248-16.379 0-22.627l9.373-9.373c6.248-6.248 16.379-6.248 22.627 0l41.373 41.373c6.249 6.248 6.249 16.378 0 22.627z" fill="#5faa46"/></g><g><path d="m292.686 331.314-9.373 9.373c-6.248 6.248-16.379 6.248-22.627 0l-9.373-9.373c-6.248-6.248-6.248-16.379 0-22.627l9.373-9.373c6.248-6.248 16.379-6.248 22.627 0l9.373 9.373c6.249 6.248 6.249 16.378 0 22.627z" fill="#91c83c"/></g></g><g><g><path d="m356.686 331.314-9.373 9.373c-6.248 6.248-16.379 6.248-22.627 0l-41.373-41.373c-6.248-6.248-6.248-16.379 0-22.627l9.373-9.373c6.248-6.248 16.379-6.248 22.627 0l41.373 41.373c6.249 6.248 6.249 16.378 0 22.627z" fill="#a55023"/></g><g><path d="m324.686 299.314-9.373 9.373c-6.248 6.248-16.379 6.248-22.627 0l-9.373-9.373c-6.248-6.248-6.248-16.379 0-22.627l9.373-9.373c6.248-6.248 16.379-6.248 22.627 0l9.373 9.373c6.249 6.248 6.249 16.378 0 22.627z" fill="#d26e28"/></g></g><g><g><path d="m388.686 299.314-9.373 9.373c-6.248 6.248-16.379 6.248-22.627 0l-41.373-41.373c-6.248-6.248-6.248-16.379 0-22.627l9.373-9.373c6.248-6.248 16.379-6.248 22.627 0l41.373 41.373c6.249 6.248 6.249 16.378 0 22.627z" fill="#a55023"/></g><g><path d="m356.686 267.314-9.373 9.373c-6.248 6.248-16.379 6.248-22.627 0l-9.373-9.373c-6.248-6.248-6.248-16.379 0-22.627l9.373-9.373c6.248-6.248 16.379-6.248 22.627 0l9.373 9.373c6.249 6.248 6.249 16.378 0 22.627z" fill="#d26e28"/></g></g><g><g><path d="m468.686 219.314-9.373 9.373c-6.248 6.248-16.379 6.248-22.627 0l-41.373-41.373c-6.248-6.248-6.248-16.379 0-22.627l9.373-9.373c6.248-6.248 16.379-6.248 22.627 0l41.373 41.373c6.249 6.248 6.249 16.378 0 22.627z" fill="#5faa46"/></g><g><path d="m436.686 187.314-9.373 9.373c-6.248 6.248-16.379 6.248-22.627 0l-9.373-9.373c-6.248-6.248-6.248-16.379 0-22.627l9.373-9.373c6.248-6.248 16.379-6.248 22.627 0l9.373 9.373c6.249 6.248 6.249 16.378 0 22.627z" fill="#91c83c"/></g></g><g><path d="m352 232h24c8.837 0 16-7.163 16-16v-24c-22.091 0-40 17.909-40 40z" fill="#f5826e"/></g><g><path d="m136 456c-4.418 0-8-3.582-8-8 0-26.468 21.533-48 48-48 4.418 0 8 3.582 8 8s-3.582 8-8 8c-17.645 0-32 14.355-32 32 0 4.418-3.582 8-8 8z" fill="#96aab9"/></g></g></svg>