<svg id="Layer_1" enable-background="new 0 0 512 512" height="512" viewBox="0 0 512 512" width="512" xmlns="http://www.w3.org/2000/svg"><g><g><circle cx="256" cy="256" fill="#555a6e" r="240"/></g><g><circle cx="264" cy="264" fill="#463c4b" r="216"/></g><g><path d="m464 256h-208v208c114.875 0 208-93.125 208-208z" fill="#a5c3dc"/></g><g><g><path d="m48 256h208v208c-114.875 0-208-93.125-208-208z" fill="#f06423"/></g><g><circle cx="237.333" cy="384" fill="#faa019" r="32"/></g><g><circle cx="160" cy="352" fill="#faa019" r="32"/></g><g><circle cx="162.667" cy="410.667" fill="#faa019" r="32"/></g><g><circle cx="237.333" cy="440" fill="#faa019" r="24"/></g><g><circle cx="98.667" cy="362.667" fill="#faa019" r="24"/></g><g><circle cx="114.667" cy="312" fill="#faa019" r="24"/></g><g><circle cx="80" cy="280" fill="#faa019" r="32"/></g><g><circle cx="190.667" cy="400" fill="#ffbe28" r="16"/></g><g><circle cx="200" cy="434.667" fill="#faa019" r="16"/></g><g><circle cx="248" cy="418.667" fill="#faa019" r="16"/></g><g><circle cx="128" cy="400" fill="#ffbe28" r="16"/></g><g><circle cx="141.333" cy="274.667" fill="#ffbe28" r="16"/></g><g><circle cx="144" cy="368" fill="#faa019" r="16"/></g><g><circle cx="96" cy="336" fill="#ffbe28" r="16"/></g><g><circle cx="240" cy="384" fill="#ffbe28" r="16"/></g><g><circle cx="122.667" cy="304" fill="#faa019" r="16"/></g><g><circle cx="64" cy="264" fill="#ffbe28" r="16"/></g><g><circle cx="72" cy="312" fill="#ffbe28" r="8"/></g><g><circle cx="136" cy="328" fill="#ffbe28" r="8"/></g><g><circle cx="184" cy="360" fill="#ffbe28" r="8"/></g><g><circle cx="248" cy="440" fill="#ffbe28" r="8"/></g><g><circle cx="85.333" cy="280" fill="#faa019" r="16"/></g><g><circle cx="114.667" cy="354.667" fill="#faa019" r="16"/></g><g><circle cx="173.333" cy="394.667" fill="#faa019" r="16"/></g><g><circle cx="122.667" cy="261.333" fill="#faa019" r="16"/></g></g><g><path d="m464 256h-208v-208c114.875 0 208 93.125 208 208z" fill="#a55023"/></g><g><circle cx="282.667" cy="128" fill="#d26e28" r="32"/></g><g><circle cx="352" cy="160" fill="#d26e28" r="32"/></g><g><circle cx="352" cy="96" fill="#d26e28" r="32"/></g><g><circle cx="277.333" cy="72" fill="#d26e28" r="24"/></g><g><circle cx="408" cy="152" fill="#d26e28" r="24"/></g><g><circle cx="397.333" cy="200" fill="#d26e28" r="24"/></g><g><circle cx="432" cy="232" fill="#d26e28" r="32"/></g><g><circle cx="321.333" cy="112" fill="#f28a39" r="16"/></g><g><circle cx="258.667" cy="98.667" fill="#f28a39" r="16"/></g><g><circle cx="384" cy="112" fill="#f28a39" r="16"/></g><g><circle cx="368" cy="144" fill="#f28a39" r="16"/></g><g><circle cx="416" cy="176" fill="#f28a39" r="16"/></g><g><circle cx="272" cy="128" fill="#f28a39" r="16"/></g><g><circle cx="400" cy="248" fill="#f28a39" r="16"/></g><g><circle cx="448" cy="240" fill="#f28a39" r="16"/></g><g><circle cx="440" cy="200" fill="#f28a39" r="8"/></g><g><circle cx="376" cy="184" fill="#f28a39" r="8"/></g><g><circle cx="328" cy="152" fill="#f28a39" r="8"/></g><g><circle cx="264" cy="72" fill="#f28a39" r="8"/></g><g><path d="m256 48v208h-208c0-114.875 93.125-208 208-208z" fill="#4b8c41"/></g><g><circle cx="128" cy="237.333" fill="#69a041" r="32"/></g><g><circle cx="160" cy="160" fill="#69a041" r="32"/></g><g><circle cx="101.333" cy="162.667" fill="#69a041" r="32"/></g><g><circle cx="72" cy="237.333" fill="#69a041" r="24"/></g><g><circle cx="149.333" cy="98.667" fill="#69a041" r="24"/></g><g><circle cx="200" cy="114.667" fill="#69a041" r="24"/></g><g><circle cx="232" cy="80" fill="#69a041" r="32"/></g><g><circle cx="112" cy="190.667" fill="#91b945" r="16"/></g><g><circle cx="77.333" cy="200" fill="#69a041" r="16"/></g><g><circle cx="93.333" cy="248" fill="#69a041" r="16"/></g><g><circle cx="112" cy="128" fill="#91b945" r="16"/></g><g><circle cx="237.333" cy="141.333" fill="#91b945" r="16"/></g><g><circle cx="144" cy="144" fill="#69a041" r="16"/></g><g><circle cx="176" cy="96" fill="#91b945" r="16"/></g><g><circle cx="128" cy="240" fill="#91b945" r="16"/></g><g><circle cx="208" cy="122.667" fill="#69a041" r="16"/></g><g><circle cx="248" cy="64" fill="#91b945" r="16"/></g><g><circle cx="200" cy="72" fill="#91b945" r="8"/></g><g><circle cx="184" cy="136" fill="#91b945" r="8"/></g><g><circle cx="152" cy="184" fill="#91b945" r="8"/></g><g><circle cx="72" cy="248" fill="#91b945" r="8"/></g><g><g><circle cx="272" cy="272" fill="#d7e6f0" r="128"/></g><path d="m152 280c4.418 0 8-3.582 8-8 0-61.757 50.243-112 112-112 4.418 0 8-3.582 8-8s-3.582-8-8-8c-70.692 0-128 57.308-128 128 0 4.418 3.582 8 8 8z" fill="#fff"/><g><g><circle cx="256" cy="256" fill="#faa019" r="64"/></g><path d="m200 264c4.418 0 8-3.582 8-8 0-26.467 21.533-48 48-48 4.418 0 8-3.582 8-8s-3.582-8-8-8c-35.346 0-64 28.654-64 64 0 4.418 3.582 8 8 8z" fill="#ffd205"/></g></g><g><circle cx="232" cy="85.333" fill="#69a041" r="16"/></g><g><circle cx="157.333" cy="114.667" fill="#69a041" r="16"/></g><g><circle cx="117.333" cy="173.333" fill="#69a041" r="16"/></g><g><circle cx="250.667" cy="122.667" fill="#69a041" r="16"/></g><g><circle cx="440" cy="296" fill="#d7e6f0" r="8"/></g><g><circle cx="424" cy="328" fill="#d7e6f0" r="8"/></g><g><circle cx="280" cy="424" fill="#d7e6f0" r="8"/></g><g><circle cx="360" cy="408" fill="#d7e6f0" r="8"/></g><g><circle cx="416" cy="288" fill="#d7e6f0" r="8"/></g><g><g><circle cx="332.134" cy="180.006" fill="#5faa46" r="4"/></g><g><circle cx="297.961" cy="201.59" fill="#5faa46" r="4"/></g><g><circle cx="264.495" cy="152.321" fill="#5faa46" r="4"/></g><g><circle cx="211.596" cy="195.29" fill="#5faa46" r="4"/></g><g><circle cx="186.084" cy="180.481" fill="#5faa46" r="4"/></g><g><circle cx="243.207" cy="156.712" fill="#5faa46" r="4"/></g><g><circle cx="188.598" cy="288.893" fill="#5faa46" r="4"/></g><g><circle cx="153.334" cy="275.279" fill="#5faa46" r="4"/></g><g><circle cx="179.715" cy="221.138" fill="#5faa46" r="4"/></g><g><circle cx="316.549" cy="301.304" fill="#5faa46" r="4"/></g><g><circle cx="266.125" cy="273.893" fill="#5faa46" r="4"/></g><g><circle cx="274.378" cy="233.482" fill="#5faa46" r="4"/></g><g><circle cx="364.54" cy="282.111" fill="#5faa46" r="4"/></g><g><circle cx="312.791" cy="246.598" fill="#5faa46" r="4"/></g><g><circle cx="356.893" cy="226.624" fill="#5faa46" r="4"/></g><g><circle cx="204.415" cy="353.332" fill="#5faa46" r="4"/></g><g><circle cx="180.188" cy="338.077" fill="#5faa46" r="4"/></g><g><circle cx="226.451" cy="280.869" fill="#5faa46" r="4"/></g><g><circle cx="282.782" cy="350.555" fill="#5faa46" r="4"/></g><g><circle cx="289.557" cy="325.23" fill="#5faa46" r="4"/></g><g><circle cx="330.461" cy="330.577" fill="#5faa46" r="4"/></g></g></g></svg>