<svg id="Layer_1" enable-background="new 0 0 512 512" height="512" viewBox="0 0 512 512" width="512" xmlns="http://www.w3.org/2000/svg"><g><g><path d="m270.855 117.942-29.711-11.885 32-80c2.43-6.074 8.314-10.057 14.856-10.057h56c4.418 0 8 3.582 8 8v16c0 4.418-3.582 8-8 8h-45.167z" fill="#5faa46"/></g><g><path d="m288 96h-64c-53.019 0-96 42.981-96 96h256c0-53.019-42.981-96-96-96z" fill="#5ad7ff"/></g><g><path d="m152 200c-4.418 0-8-3.582-8-8 0-44.112 35.888-80 80-80 4.418 0 8 3.582 8 8s-3.582 8-8 8c-35.29 0-64 28.71-64 64 0 4.418-3.582 8-8 8z" fill="#a5ffff"/></g><g><path d="m384 224h-256c-8.837 0-16-7.163-16-16 0-8.837 7.163-16 16-16h256c8.837 0 16 7.163 16 16 0 8.837-7.163 16-16 16z" fill="#23aae6"/></g><g><path d="m256 224h-128c-8.837 0-16-7.163-16-16 0-8.837 7.163-16 16-16h128c8.837 0 16 7.163 16 16 0 8.837-7.163 16-16 16z" fill="#5ad7ff"/></g><g><path d="m128 224 30.492 257.675c.857 8.143 7.724 14.325 15.912 14.325h163.191c8.188 0 15.055-6.182 15.912-14.325l30.493-257.675z" fill="#f0915a"/></g><g><path d="m240 240h-110.316l28.632 240h97.684v-224c0-8.836-7.164-16-16-16z" fill="#fab991"/></g><g><circle cx="184" cy="416" fill="#f0915a" r="24"/></g><g><circle cx="184" cy="376" fill="#f0915a" r="24"/></g><g><circle cx="232" cy="376" fill="#f0915a" r="24"/></g><g><circle cx="328" cy="416" fill="#d2643c" r="24"/></g><g><circle cx="328" cy="376" fill="#d2643c" r="24"/></g><g><circle cx="280" cy="376" fill="#d2643c" r="24"/></g><g><path d="m320 128c35.346 0 64 28.654 64 64h-128c0-35.346 28.654-64 64-64z" fill="#23aae6"/></g><g><g><circle cx="232" cy="456" fill="#555a6e" r="24"/></g><g><path d="m232 432c-13.255 0-24 10.745-24 24h8c8.837 0 16-7.163 16-16z" fill="#6e788c"/></g></g><g><g><circle cx="208" cy="416" fill="#555a6e" r="24"/></g><g><path d="m208 392c-13.255 0-24 10.745-24 24h8c8.837 0 16-7.163 16-16z" fill="#6e788c"/></g></g><g><g><circle cx="256" cy="416" fill="#555a6e" r="24"/></g><g><path d="m256 392c-13.255 0-24 10.745-24 24h8c8.837 0 16-7.163 16-16z" fill="#6e788c"/></g><g><path d="m256 440v-48c13.255 0 24 10.745 24 24 0 13.255-10.745 24-24 24z" fill="#463c4b"/></g></g><g><g><circle cx="184" cy="456" fill="#555a6e" r="24"/></g><g><path d="m184 432c-13.255 0-24 10.745-24 24h8c8.837 0 16-7.163 16-16z" fill="#6e788c"/></g></g><g><g><circle cx="280" cy="456" fill="#463c4b" r="24"/></g><g><path d="m280 432c-13.255 0-24 10.745-24 24h8c8.837 0 16-7.163 16-16z" fill="#555a6e"/></g></g><g><g><circle cx="328" cy="456" fill="#463c4b" r="24"/></g><g><path d="m328 432c-13.255 0-24 10.745-24 24h8c8.837 0 16-7.163 16-16z" fill="#555a6e"/></g></g><g><g><circle cx="304" cy="416" fill="#463c4b" r="24"/></g><g><path d="m304 392c-13.255 0-24 10.745-24 24h8c8.837 0 16-7.163 16-16z" fill="#555a6e"/></g></g></g></svg>