<svg id="Layer_1" enable-background="new 0 0 512 512" height="512" viewBox="0 0 512 512" width="512" xmlns="http://www.w3.org/2000/svg"><g><g><circle cx="256" cy="256" fill="#d7e6f0" r="240"/></g><g><g><circle cx="256" cy="256" fill="#a5c3dc" r="192"/></g></g><g><g><circle cx="256" cy="256" fill="#e1322d" r="178.667"/></g></g><g><path d="m85.333 264c-4.418 0-8-3.582-8-8 0-98.518 80.149-178.667 178.667-178.667 4.418 0 8 3.582 8 8s-3.582 8-8 8c-89.695 0-162.667 72.972-162.667 162.667 0 4.418-3.581 8-8 8z" fill="#f04b37"/></g><g><g><path d="m320 184v-32c0-8.837-7.163-16-16-16h-32c-8.837 0-16 7.163-16 16v32c0 8.837 7.163 16 16 16h32c8.837 0 16-7.163 16-16z" fill="#f5826e"/></g><g><path d="m288 184c0-8.836 7.164-16 16-16h16v16c0 8.836-7.164 16-16 16h-16z" fill="#f04b37"/></g></g><g><g><path d="m208 336v-32c0-8.837-7.163-16-16-16h-32c-8.837 0-16 7.163-16 16v32c0 8.837 7.163 16 16 16h32c8.837 0 16-7.163 16-16z" fill="#f5826e"/></g><g><path d="m176 336c0-8.836 7.164-16 16-16h16v16c0 8.836-7.164 16-16 16h-16z" fill="#f04b37"/></g></g><g><g><path d="m363.314 321.941 22.627-22.627c6.248-6.248 6.248-16.379 0-22.627l-22.627-22.627c-6.248-6.248-16.379-6.248-22.627 0l-22.627 22.627c-6.248 6.248-6.248 16.379 0 22.627l22.627 22.627c6.248 6.249 16.378 6.249 22.627 0z" fill="#f5826e"/></g><g><path d="m340.686 299.314c6.248-6.248 16.379-6.248 22.627 0l11.314 11.314-11.314 11.314c-6.248 6.248-16.379 6.248-22.627 0l-11.314-11.314z" fill="#f04b37"/></g></g><g><g><path d="m292.608 392.647 22.627-22.627c6.248-6.248 6.248-16.379 0-22.627l-22.627-22.627c-6.248-6.248-16.379-6.248-22.627 0l-22.627 22.627c-6.248 6.248-6.248 16.379 0 22.627l22.627 22.627c6.248 6.248 16.378 6.248 22.627 0z" fill="#f04b37"/></g><g><path d="m269.98 370.02c6.248-6.248 16.379-6.248 22.627 0l11.314 11.314-11.314 11.314c-6.248 6.248-16.379 6.248-22.627 0l-11.314-11.314z" fill="#f04b37"/></g></g><g><g><path d="m177.941 245.98 22.627-22.627c6.248-6.248 6.248-16.379 0-22.627l-22.627-22.627c-6.248-6.248-16.379-6.248-22.627 0l-22.627 22.627c-6.248 6.248-6.248 16.379 0 22.627l22.627 22.627c6.248 6.249 16.379 6.249 22.627 0z" fill="#f04b37"/></g><g><path d="m155.314 223.353c6.248-6.248 16.379-6.248 22.627 0l11.314 11.314-11.314 11.314c-6.248 6.248-16.379 6.248-22.627 0l-11.314-11.314z" fill="#f04b37"/></g></g><g><circle cx="256" cy="256" fill="#9bd2f0" r="64"/></g><g><path d="m256 320c-35.29 0-64-28.71-64-64s28.71-64 64-64c8.837 0 16 7.163 16 16s-7.163 16-16 16c-17.645 0-32 14.355-32 32s14.355 32 32 32c8.837 0 16 7.163 16 16s-7.163 16-16 16z" fill="#d7e6f0"/></g><g><circle cx="256" cy="232" fill="#d7e6f0" r="40"/></g><g fill="#5faa46"><path d="m296 140h-22.343l9.171-9.172c1.563-1.562 1.563-4.095 0-5.656-1.561-1.563-4.096-1.563-5.656 0l-14.829 14.828h-20.686l9.172-9.172c1.562-1.562 1.562-4.095 0-5.656-1.563-1.563-4.095-1.563-5.657 0l-14.829 14.828h-6.343c-2.209 0-4 1.791-4 4s1.791 4 4 4h6.343l14.828 14.828c.781.781 1.805 1.172 2.829 1.172s2.047-.391 2.829-1.172c1.562-1.562 1.562-4.095 0-5.656l-9.172-9.172h20.686l14.829 14.828c.78.781 1.805 1.172 2.828 1.172s2.048-.391 2.828-1.172c1.563-1.562 1.563-4.095 0-5.656l-9.171-9.172h22.343c2.209 0 4-1.791 4-4s-1.791-4-4-4z"/><path d="m288 366.667h-6.343l-14.829-14.828c-1.561-1.563-4.096-1.563-5.656 0-1.563 1.562-1.563 4.095 0 5.656l9.171 9.172h-20.686l-14.828-14.828c-1.563-1.563-4.095-1.563-5.657 0-1.562 1.562-1.562 4.095 0 5.656l9.172 9.172h-22.344c-2.209 0-4 1.791-4 4s1.791 4 4 4h22.343l-9.172 9.172c-1.562 1.562-1.562 4.095 0 5.656.781.781 1.805 1.172 2.829 1.172s2.047-.391 2.829-1.172l14.828-14.828h20.686l-9.171 9.172c-1.563 1.562-1.563 4.095 0 5.656.78.781 1.805 1.172 2.828 1.172s2.048-.391 2.828-1.172l14.829-14.828h6.343c2.209 0 4-1.791 4-4s-1.791-4-4-4z"/><path d="m187.571 186.847c-.572-2.135-2.766-3.405-4.899-2.828l-12.529 3.356 11.171-19.35c1.105-1.913.449-4.359-1.464-5.464-1.914-1.106-4.359-.45-5.464 1.464l-11.172 19.35-3.357-12.528c-.572-2.135-2.766-3.405-4.899-2.828-2.134.571-3.4 2.765-2.829 4.898l5.428 20.257-10.343 17.914-3.357-12.528c-.572-2.134-2.766-3.408-4.899-2.828-2.134.571-3.4 2.765-2.829 4.898l5.428 20.257-3.171 5.493c-1.105 1.913-.449 4.359 1.464 5.464.63.364 1.317.537 1.996.537 1.382 0 2.727-.718 3.468-2.001l3.172-5.493 20.256-5.429c2.134-.571 3.4-2.765 2.829-4.898-.572-2.134-2.766-3.402-4.899-2.828l-12.529 3.356 10.343-17.914 20.256-5.429c2.134-.571 3.401-2.765 2.829-4.898z"/><path d="m375.869 314.037-5.427-20.257 3.172-5.493c1.104-1.913.449-4.359-1.464-5.464-1.914-1.106-4.36-.449-5.464 1.464l-3.172 5.493-20.256 5.429c-2.134.571-3.4 2.765-2.828 4.898.571 2.134 2.765 3.402 4.898 2.828l12.529-3.356-10.342 17.913-20.257 5.429c-2.134.571-3.4 2.765-2.828 4.898.571 2.134 2.766 3.406 4.898 2.828l12.529-3.356-11.172 19.35c-1.104 1.913-.449 4.359 1.464 5.464.63.364 1.317.537 1.996.537 1.383 0 2.728-.718 3.468-2.001l11.172-19.351 3.357 12.529c.479 1.787 2.095 2.966 3.86 2.966.343 0 .691-.044 1.038-.138 2.134-.571 3.4-2.765 2.828-4.898l-5.427-20.256 10.343-17.915 3.357 12.529c.479 1.787 2.095 2.966 3.86 2.966.343 0 .691-.044 1.038-.138 2.136-.571 3.402-2.764 2.83-4.898z"/><path d="m176.742 309.064c-2.132-.579-4.327.694-4.899 2.828l-3.357 12.529-10.343-17.914 5.427-20.257c.572-2.134-.695-4.327-2.829-4.898-2.132-.577-4.327.694-4.899 2.828l-3.357 12.528-11.172-19.35c-1.104-1.913-3.55-2.571-5.464-1.464-1.913 1.104-2.569 3.551-1.464 5.464l11.172 19.35-12.529-3.356c-2.132-.577-4.327.694-4.899 2.828s.695 4.327 2.829 4.898l20.256 5.429 10.342 17.913-12.529-3.356c-2.132-.579-4.327.694-4.899 2.828s.695 4.327 2.829 4.898l20.256 5.429 3.172 5.493c.741 1.283 2.085 2.001 3.468 2.001.678 0 1.366-.173 1.996-.537 1.913-1.104 2.569-3.551 1.464-5.464l-3.171-5.493 5.428-20.257c.573-2.133-.694-4.326-2.828-4.898z"/><path d="m381.041 209.588-20.257-5.429-10.343-17.914 12.529 3.356c2.13.576 4.326-.694 4.898-2.828s-.694-4.327-2.828-4.898l-20.257-5.429-3.171-5.492c-1.104-1.913-3.551-2.57-5.464-1.464-1.913 1.104-2.568 3.551-1.464 5.464l3.172 5.493-5.427 20.256c-.572 2.134.694 4.327 2.828 4.898.347.094.695.138 1.038.138 1.766 0 3.382-1.179 3.86-2.966l3.357-12.529 10.344 17.916-5.427 20.256c-.572 2.134.694 4.327 2.828 4.898.347.094.695.138 1.038.138 1.766 0 3.382-1.179 3.86-2.966l3.357-12.529 11.172 19.351c.74 1.283 2.085 2.001 3.468 2.001.679 0 1.366-.173 1.996-.537 1.913-1.104 2.568-3.551 1.464-5.464l-11.172-19.35 12.529 3.356c2.132.573 4.327-.694 4.898-2.828.574-2.133-.692-4.327-2.826-4.898z"/></g></g></svg>