<svg id="Layer_1" enable-background="new 0 0 512 512" height="512" viewBox="0 0 512 512" width="512" xmlns="http://www.w3.org/2000/svg"><g><g><circle cx="256" cy="128" fill="#f5871e" r="80"/></g><g><path d="m432 272h-352c-17.673 0-32-14.327-32-32 0-61.856 50.144-112 112-112h192c61.856 0 112 50.144 112 112 0 17.673-14.327 32-32 32z" fill="#faa01e"/></g><g><path d="m56 248c-4.418 0-8-3.582-8-8 0-61.757 50.243-112 112-112 4.418 0 8 3.582 8 8s-3.582 8-8 8c-52.935 0-96 43.065-96 96 0 4.418-3.582 8-8 8z" fill="#ffd23c"/></g><g><path d="m352 224c0 8.837-7.163 16-16 16h-288c0 17.673 14.327 32 32 32h352c17.673 0 32-14.327 32-32 0-61.856-50.144-112-112-112h-96c53.019 0 96 42.981 96 96z" fill="#f5871e"/></g><g><path d="m400 416h-288c-44.183 0-80-35.817-80-80 0-44.183 35.817-80 80-80h288c44.183 0 80 35.817 80 80 0 44.183-35.817 80-80 80z" fill="#a55023"/></g><g><circle cx="112" cy="336" fill="#ff6955" r="80"/></g><g><circle cx="400" cy="336" fill="#d26e28" r="80"/></g><g><path d="m320 336h48c17.673 0 32-14.327 32-32v-48c-44.183 0-80 35.817-80 80z" fill="#f28a39"/></g><g><circle cx="248" cy="336" fill="#91c83c" r="80"/></g><g><path d="m432 400h-352c-17.673 0-32 14.327-32 32 0 26.51 21.49 48 48 48h320c26.51 0 48-21.49 48-48 0-17.673-14.327-32-32-32z" fill="#faa01e"/></g><g><path d="m352 400c0 17.673-14.327 32-32 32h-272c0 26.51 21.49 48 48 48h320c26.51 0 48-21.49 48-48 0-17.673-14.327-32-32-32z" fill="#f5871e"/></g><g><path d="m32 336h48c17.673 0 32-14.327 32-32v-48c-44.183 0-80 35.817-80 80z" fill="#ff8773"/></g><g><path d="m168 336h48c17.673 0 32-14.327 32-32v-48c-44.183 0-80 35.817-80 80z" fill="#bedc5a"/></g><g><path d="m168 336v76c0 11.046 8.954 20 20 20 11.046 0 20-8.954 20-20v-4c0-4.418 3.582-8 8-8 4.418 0 8 3.582 8 8v20c0 11.046 8.954 20 20 20 11.046 0 20-8.954 20-20v-92z" fill="#91c83c"/></g><g><path d="m88 424c-13.255 0-24-10.745-24-24v-56h48v56c0 13.255-10.745 24-24 24z" fill="#ff6955"/></g><g><path d="m408 424c-13.255 0-24-10.745-24-24v-56h48v56c0 13.255-10.745 24-24 24z" fill="#d26e28"/></g></g></svg>