<svg id="Layer_1" enable-background="new 0 0 512 512" height="512" viewBox="0 0 512 512" width="512" xmlns="http://www.w3.org/2000/svg"><g><g fill="#f06423"><path d="m256 488c-75.111 0-136-60.889-136-136v-192c0-75.111 60.889-136 136-136 75.111 0 136 60.889 136 136v192c0 75.111-60.889 136-136 136z"/><path d="m256 496c-79.401 0-144-64.598-144-144v-192c0-79.402 64.599-144 144-144s144 64.598 144 144v192c0 79.402-64.599 144-144 144zm0-464c-70.579 0-128 57.42-128 128v192c0 70.58 57.421 128 128 128s128-57.42 128-128v-192c0-70.58-57.421-128-128-128z"/></g><g><path d="m256 424c-75.111 0-136-60.889-136-136v-128c0-75.111 60.889-136 136-136 75.111 0 136 60.889 136 136v128c0 75.111-60.889 136-136 136z" fill="#fab991"/><path d="m256 432c-79.402 0-144-64.598-144-144v-128c0-79.402 64.598-144 144-144s144 64.598 144 144v128c0 79.402-64.598 144-144 144zm0-400c-70.579 0-128 57.42-128 128v128c0 70.58 57.421 128 128 128s128-57.42 128-128v-128c0-70.58-57.421-128-128-128z" fill="#faa019"/></g><g fill="#e1322d"><path d="m233.373 89.373h45.255v45.255h-45.255z" transform="matrix(.707 -.707 .707 .707 -4.215 213.823)"/><path d="m256 152c-2.048 0-4.095-.781-5.657-2.343l-32-32c-3.124-3.124-3.124-8.189 0-11.313l32-32c3.125-3.124 8.189-3.124 11.314 0l32 32c3.124 3.124 3.124 8.189 0 11.313l-32 32c-1.562 1.562-3.609 2.343-5.657 2.343zm-20.687-40 20.687 20.686 20.687-20.686-20.687-20.686z"/></g><circle cx="256" cy="133.333" fill="#c81e14" r="40"/><g><circle cx="256" cy="288" fill="#c81e14" r="40"/></g><g fill="#e1322d"><path d="m282.344 39.03-9.373-9.373c-9.357-9.357-24.584-9.357-33.941 0l-9.373 9.373c-9.357 9.357-9.357 24.583 0 33.94l9.373 9.373c4.679 4.679 10.825 7.018 16.971 7.018s12.292-2.339 16.971-7.018l9.373-9.373c9.356-9.357 9.356-24.583-.001-33.94z"/><path d="m293.657 170.343-32-32c-3.125-3.124-8.189-3.124-11.314 0l-32 32c-3.124 3.124-3.124 8.189 0 11.313l32 32c1.563 1.562 3.609 2.343 5.657 2.343s4.095-.781 5.657-2.343l32-32c3.124-3.123 3.124-8.189 0-11.313z"/><g><path d="m233.373 217.373h45.255v45.255h-45.255z" transform="matrix(.707 -.707 .707 .707 -94.725 251.314)"/><path d="m256 280c-2.048 0-4.095-.781-5.657-2.343l-32-32c-3.124-3.124-3.124-8.189 0-11.313l32-32c3.125-3.124 8.189-3.124 11.314 0l32 32c3.124 3.124 3.124 8.189 0 11.313l-32 32c-1.562 1.562-3.609 2.343-5.657 2.343zm-20.687-40 20.687 20.686 20.687-20.686-20.687-20.686z"/></g></g><g><circle cx="256" cy="210.667" fill="#c81e14" r="40"/></g><path d="m293.657 298.343-32-32c-3.125-3.124-8.189-3.124-11.314 0l-32 32c-3.124 3.124-3.124 8.189 0 11.313l32 32c1.563 1.562 3.609 2.343 5.657 2.343s4.095-.781 5.657-2.343l32-32c3.124-3.123 3.124-8.189 0-11.313z" fill="#e1322d"/><path d="m282.344 351.03-9.373-9.373c-9.357-9.357-24.584-9.357-33.941 0l-9.373 9.373c-9.357 9.357-9.357 24.583 0 33.94l9.373 9.373c4.679 4.679 10.825 7.018 16.971 7.018s12.292-2.339 16.971-7.018l9.373-9.373c9.356-9.357 9.356-24.583-.001-33.94z" fill="#e1322d"/><path d="m346.343 68.362-9.372-9.372c-4.533-4.533-10.56-7.03-16.971-7.03s-12.438 2.497-16.97 7.029l-9.374 9.373c-9.356 9.357-9.356 24.583.001 33.941l9.372 9.372c4.533 4.533 10.56 7.03 16.971 7.03s12.438-2.497 16.97-7.029l9.373-9.373h.001c9.356-9.357 9.356-24.583-.001-33.941z" fill="#e1322d"/><path d="m346.343 132.362-9.372-9.372c-4.533-4.533-10.56-7.03-16.971-7.03s-12.438 2.497-16.97 7.029l-9.374 9.373c-9.356 9.357-9.356 24.583.001 33.941l9.372 9.372c4.533 4.533 10.56 7.03 16.971 7.03s12.438-2.497 16.97-7.029l9.373-9.373h.001c9.356-9.357 9.356-24.583-.001-33.941z" fill="#c81e14"/><path d="m346.343 196.362-9.372-9.372c-4.533-4.533-10.56-7.03-16.971-7.03s-12.438 2.497-16.97 7.029l-9.374 9.373c-9.356 9.357-9.356 24.583.001 33.941l9.372 9.372c4.533 4.533 10.56 7.03 16.971 7.03s12.438-2.497 16.97-7.029l9.373-9.373h.001c9.356-9.357 9.356-24.583-.001-33.941z" fill="#e1322d"/><path d="m346.343 260.362-9.372-9.372c-4.533-4.533-10.56-7.03-16.971-7.03s-12.438 2.497-16.97 7.029l-9.374 9.373c-9.356 9.357-9.356 24.583.001 33.941l9.372 9.372c4.533 4.533 10.56 7.03 16.971 7.03s12.438-2.497 16.97-7.029l9.373-9.373h.001c9.356-9.357 9.356-24.583-.001-33.941z" fill="#c81e14"/><path d="m346.343 324.362-9.372-9.372c-4.533-4.533-10.56-7.03-16.971-7.03s-12.438 2.497-16.97 7.029l-9.374 9.373c-9.356 9.357-9.356 24.583.001 33.941l9.372 9.372c4.533 4.533 10.56 7.03 16.971 7.03s12.438-2.497 16.97-7.029l9.373-9.373h.001c9.356-9.357 9.356-24.583-.001-33.941z" fill="#e1322d"/><path d="m218.343 68.362-9.372-9.372c-4.533-4.533-10.56-7.03-16.971-7.03s-12.438 2.497-16.97 7.029l-9.374 9.373c-9.356 9.357-9.356 24.583.001 33.941l9.372 9.372c4.533 4.533 10.56 7.03 16.971 7.03s12.438-2.497 16.97-7.029l9.373-9.373h.001c9.356-9.357 9.356-24.583-.001-33.941z" fill="#c81e14"/><path d="m218.343 132.362-9.372-9.372c-4.533-4.533-10.56-7.03-16.971-7.03s-12.438 2.497-16.97 7.029l-9.374 9.373c-9.356 9.357-9.356 24.583.001 33.941l9.372 9.372c4.533 4.533 10.56 7.03 16.971 7.03s12.438-2.497 16.97-7.029l9.373-9.373h.001c9.356-9.357 9.356-24.583-.001-33.941z" fill="#e1322d"/><path d="m218.343 196.362-9.372-9.372c-4.533-4.533-10.56-7.03-16.971-7.03s-12.438 2.497-16.97 7.029l-9.374 9.373c-9.356 9.357-9.356 24.583.001 33.941l9.372 9.372c4.533 4.533 10.56 7.03 16.971 7.03s12.438-2.497 16.97-7.029l9.373-9.373h.001c9.356-9.357 9.356-24.583-.001-33.941z" fill="#e1322d"/><path d="m218.343 260.362-9.372-9.372c-4.533-4.533-10.56-7.03-16.971-7.03s-12.438 2.497-16.97 7.029l-9.374 9.373c-9.356 9.357-9.356 24.583.001 33.941l9.372 9.372c4.533 4.533 10.56 7.03 16.971 7.03s12.438-2.497 16.97-7.029l9.373-9.373h.001c9.356-9.357 9.356-24.583-.001-33.941z" fill="#e1322d"/><path d="m218.343 324.362-9.372-9.372c-4.533-4.533-10.56-7.03-16.971-7.03s-12.438 2.497-16.97 7.029l-9.374 9.373c-9.356 9.357-9.356 24.583.001 33.941l9.372 9.372c4.533 4.533 10.56 7.03 16.971 7.03s12.438-2.497 16.97-7.029l9.373-9.373h.001c9.356-9.357 9.356-24.583-.001-33.941z" fill="#c81e14"/><g><path d="m333.657 325.01-32-32c-3.125-3.124-8.189-3.124-11.314 0l-32 32c-3.124 3.124-3.124 8.189 0 11.313l32 32c1.563 1.562 3.609 2.343 5.657 2.343s4.095-.781 5.657-2.343l32-32c3.124-3.124 3.124-8.189 0-11.313z" fill="#f04b37"/><g><path d="m264 338.667c-2.048 0-4.095-.781-5.657-2.343-3.124-3.124-3.124-8.189 0-11.313l32-32c3.125-3.124 8.189-3.124 11.314 0 3.124 3.124 3.124 8.189 0 11.313l-32 32c-1.562 1.561-3.609 2.343-5.657 2.343z" fill="#f5826e"/></g></g><g><path d="m253.657 325.01-32-32c-3.125-3.124-8.189-3.124-11.314 0l-32 32c-3.124 3.124-3.124 8.189 0 11.313l32 32c1.563 1.562 3.609 2.343 5.657 2.343s4.095-.781 5.657-2.343l32-32c3.124-3.124 3.124-8.189 0-11.313z" fill="#f04b37"/><g><path d="m184 338.667c-2.048 0-4.095-.781-5.657-2.343-3.124-3.124-3.124-8.189 0-11.313l32-32c3.125-3.124 8.189-3.124 11.314 0 3.124 3.124 3.124 8.189 0 11.313l-32 32c-1.562 1.561-3.609 2.343-5.657 2.343z" fill="#f5826e"/></g></g><g><path d="m333.657 245.01-32-32c-3.125-3.124-8.189-3.124-11.314 0l-32 32c-3.124 3.124-3.124 8.189 0 11.313l32 32c1.563 1.562 3.609 2.343 5.657 2.343s4.095-.781 5.657-2.343l32-32c3.124-3.124 3.124-8.189 0-11.313z" fill="#f04b37"/><g><path d="m264 258.667c-2.048 0-4.095-.781-5.657-2.343-3.124-3.124-3.124-8.189 0-11.313l32-32c3.125-3.124 8.189-3.124 11.314 0 3.124 3.124 3.124 8.189 0 11.313l-32 32c-1.562 1.561-3.609 2.343-5.657 2.343z" fill="#f5826e"/></g></g><g><path d="m253.657 245.01-32-32c-3.125-3.124-8.189-3.124-11.314 0l-32 32c-3.124 3.124-3.124 8.189 0 11.313l32 32c1.563 1.562 3.609 2.343 5.657 2.343s4.095-.781 5.657-2.343l32-32c3.124-3.124 3.124-8.189 0-11.313z" fill="#f04b37"/><g><path d="m184 258.667c-2.048 0-4.095-.781-5.657-2.343-3.124-3.124-3.124-8.189 0-11.313l32-32c3.125-3.124 8.189-3.124 11.314 0 3.124 3.124 3.124 8.189 0 11.313l-32 32c-1.562 1.561-3.609 2.343-5.657 2.343z" fill="#f5826e"/></g></g><g><path d="m333.657 165.01-32-32c-3.125-3.124-8.189-3.124-11.314 0l-32 32c-3.124 3.124-3.124 8.189 0 11.313l32 32c1.563 1.562 3.609 2.343 5.657 2.343s4.095-.781 5.657-2.343l32-32c3.124-3.124 3.124-8.189 0-11.313z" fill="#f04b37"/><g><path d="m264 178.667c-2.048 0-4.095-.781-5.657-2.343-3.124-3.124-3.124-8.189 0-11.313l32-32c3.125-3.124 8.189-3.124 11.314 0 3.124 3.124 3.124 8.189 0 11.313l-32 32c-1.562 1.561-3.609 2.343-5.657 2.343z" fill="#f5826e"/></g></g><g><path d="m253.657 165.01-32-32c-3.125-3.124-8.189-3.124-11.314 0l-32 32c-3.124 3.124-3.124 8.189 0 11.313l32 32c1.563 1.562 3.609 2.343 5.657 2.343s4.095-.781 5.657-2.343l32-32c3.124-3.124 3.124-8.189 0-11.313z" fill="#f04b37"/><g><path d="m184 178.667c-2.048 0-4.095-.781-5.657-2.343-3.124-3.124-3.124-8.189 0-11.313l32-32c3.125-3.124 8.189-3.124 11.314 0 3.124 3.124 3.124 8.189 0 11.313l-32 32c-1.562 1.561-3.609 2.343-5.657 2.343z" fill="#f5826e"/></g></g><g><path d="m333.657 85.01-32-32c-3.125-3.124-8.189-3.124-11.314 0l-32 32c-3.124 3.124-3.124 8.189 0 11.313l32 32c1.563 1.562 3.609 2.343 5.657 2.343s4.095-.781 5.657-2.343l32-32c3.124-3.124 3.124-8.189 0-11.313z" fill="#f04b37"/><g><path d="m264 98.667c-2.048 0-4.095-.781-5.657-2.343-3.124-3.124-3.124-8.189 0-11.313l32-32c3.125-3.124 8.189-3.124 11.314 0 3.124 3.124 3.124 8.189 0 11.313l-32 32c-1.562 1.561-3.609 2.343-5.657 2.343z" fill="#f5826e"/></g></g><g><path d="m253.657 85.01-32-32c-3.125-3.124-8.189-3.124-11.314 0l-32 32c-3.124 3.124-3.124 8.189 0 11.313l32 32c1.563 1.562 3.609 2.343 5.657 2.343s4.095-.781 5.657-2.343l32-32c3.124-3.124 3.124-8.189 0-11.313z" fill="#f04b37"/><g><path d="m184 98.667c-2.048 0-4.095-.781-5.657-2.343-3.124-3.124-3.124-8.189 0-11.313l32-32c3.125-3.124 8.189-3.124 11.314 0 3.124 3.124 3.124 8.189 0 11.313l-32 32c-1.562 1.561-3.609 2.343-5.657 2.343z" fill="#f5826e"/></g></g><g><path d="m301.333 118.667v-4c0-13.255-10.745-24-24-24h-4c-2.209 0-4 1.791-4 4v4c0 13.255 10.745 24 24 24h4c2.209 0 4-1.791 4-4z" fill="#5faa46"/></g><g><path d="m208 212v-4c0-13.255-10.745-24-24-24h-4c-2.209 0-4 1.791-4 4v4c0 13.255 10.745 24 24 24h4c2.209 0 4-1.791 4-4z" fill="#5faa46"/></g><g><path d="m338.667 340v-4c0-13.255-10.745-24-24-24h-4c-2.209 0-4 1.791-4 4v4c0 13.255 10.745 24 24 24h4c2.209 0 4-1.791 4-4z" fill="#5faa46"/></g><g><path d="m208 305.333v-4c0-13.255 10.745-24 24-24h4c2.209 0 4 1.791 4 4v4c0 13.255-10.745 24-24 24h-4c-2.209 0-4-1.791-4-4z" fill="#5faa46"/></g><g><path d="m248 185.333v-4c0-13.255 10.745-24 24-24h4c2.209 0 4 1.791 4 4v4c0 13.255-10.745 24-24 24h-4c-2.209 0-4-1.791-4-4z" fill="#5faa46"/></g><g><circle cx="185.835" cy="94.055" fill="#91c83c" r="8"/></g><g><circle cx="298.667" cy="165.333" fill="#91c83c" r="8"/></g><g><circle cx="330.667" cy="253.333" fill="#91c83c" r="8"/></g><g><circle cx="272" cy="312" fill="#91c83c" r="8"/></g><g><circle cx="186.667" cy="354.667" fill="#91c83c" r="8"/></g><g><circle cx="234.667" cy="141.333" fill="#91c83c" r="8"/></g><g><circle cx="272" cy="58.667" fill="#91c83c" r="8"/></g></g></svg>