<svg id="Layer_1" enable-background="new 0 0 512 512" height="512" viewBox="0 0 512 512" width="512" xmlns="http://www.w3.org/2000/svg"><g><g><g><path d="m448 368h-384c-17.673 0-32 14.327-32 32 0 26.51 21.49 48 48 48h352c26.51 0 48-21.49 48-48 0-17.673-14.327-32-32-32z" fill="#faa01e"/></g><g><path d="m368 368c0 17.673-14.327 32-32 32h-304c0 26.51 21.49 48 48 48h352c26.51 0 48-21.49 48-48 0-17.673-14.327-32-32-32z" fill="#f5871e"/></g></g><g><path d="m64 352v16h16l17.689 8.845c9.411 4.705 19.789 7.155 30.311 7.155s20.9-2.45 30.311-7.155l3.378-1.689c9.411-4.706 19.789-7.156 30.311-7.156s20.9 2.45 30.311 7.155l3.378 1.689c9.411 4.706 19.789 7.156 30.311 7.156s20.9-2.45 30.311-7.155l3.378-1.689c9.411-4.706 19.789-7.156 30.311-7.156s20.9 2.45 30.311 7.155l3.378 1.689c9.411 4.706 19.789 7.156 30.311 7.156s20.9-2.45 30.311-7.155l17.689-8.845h16v-16z" fill="#4b8c41"/></g><g><g><g><path d="m448 320h-384c-8.837 0-16-7.163-16-16v-16c0-8.837 7.163-16 16-16h384c8.837 0 16 7.163 16 16v16c0 8.837-7.163 16-16 16z" fill="#d26e28"/></g><g><path d="m448 272h-208c8.836 0 16 7.164 16 16v16c0 8.836-7.164 16-16 16h208c8.836 0 16-7.164 16-16v-16c0-8.836-7.164-16-16-16z" fill="#be5000"/></g></g><g><path d="m32 256c0 8.837 7.163 16 16 16h217.373c4.243 0 8.313 1.686 11.314 4.686l36.686 36.686c12.497 12.497 32.758 12.497 45.255 0l36.686-36.686c3.001-3.001 7.07-4.686 11.314-4.686h57.372c8.837 0 16-7.163 16-16 0-8.837-7.163-16-16-16h-416c-8.837 0-16 7.163-16 16z" fill="#faa019"/></g><g><path d="m256 240h-208c-8.837 0-16 7.163-16 16 0 8.837 7.163 16 16 16h208c8.837 0 16-7.163 16-16 0-8.837-7.163-16-16-16z" fill="#ffd205"/></g><g><path d="m480 335.921c0 8.837-7.163 16-16 16h-217.373c-4.243 0-8.313 1.686-11.314 4.686l-36.686 36.686c-12.497 12.497-32.758 12.497-45.255 0l-36.686-36.686c-3.001-3.001-7.07-4.686-11.314-4.686h-57.372c-8.837 0-16-7.163-16-16 0-8.837 7.163-16 16-16h416c8.837.001 16 7.164 16 16z" fill="#faa019"/></g><g><path d="m272 335.921c0-8.837-7.163-16-16-16h-208c-8.837 0-16 7.164-16 16 0 8.837 7.163 16 16 16h57.372c4.244 0 8.314 1.686 11.314 4.687l36.686 36.686c12.497 12.497 32.758 12.497 45.255 0l36.686-36.686c3.001-3.001 7.071-4.687 11.314-4.687h9.373c8.837 0 16-7.163 16-16z" fill="#ffd205"/></g><g><path d="m432 240h-352c-8.837 0-16-7.163-16-16 0-8.837 7.163-16 16-16h352c8.837 0 16 7.163 16 16 0 8.837-7.163 16-16 16z" fill="#f04b37"/></g><g><path d="m432 208h-192c8.836 0 16 7.164 16 16 0 8.836-7.164 16-16 16h192c8.836 0 16-7.164 16-16 0-8.836-7.164-16-16-16z" fill="#d7322d"/></g></g><g><g><path d="m448 208h-384c-17.673 0-32-14.327-32-32 0-61.856 50.144-112 112-112h224c61.856 0 112 50.144 112 112 0 17.673-14.327 32-32 32z" fill="#faa01e"/></g><g><path d="m368 160c0 8.837-7.163 16-16 16h-320c0 17.673 14.327 32 32 32h384c17.673 0 32-14.327 32-32 0-61.856-50.144-112-112-112h-96c53.019 0 96 42.981 96 96z" fill="#f5871e"/></g></g><g><circle cx="256" cy="88" fill="#faf0dc" r="8"/></g><g><circle cx="304" cy="128" fill="#faf0dc" r="8"/></g><g><circle cx="160" cy="88" fill="#faf0dc" r="8"/></g><g><circle cx="208" cy="128" fill="#faf0dc" r="8"/></g><g><circle cx="352" cy="88" fill="#faa01e" r="8"/></g></g></svg>