<svg id="Layer_1" enable-background="new 0 0 512 512" height="512" viewBox="0 0 512 512" width="512" xmlns="http://www.w3.org/2000/svg"><g><g><g><path d="m400 248h-288c-53.019 0-96 42.981-96 96 0 53.019 42.981 96 96 96h288c53.019 0 96-42.981 96-96 0-53.019-42.981-96-96-96z" fill="#f0915a"/></g><g><circle cx="112" cy="344" fill="#f0915a" r="96"/></g><g><g><path d="m85.33 304c13.332 0 13.332-16 26.665-16s13.333 16 26.666 16c13.335 0 13.335-16 26.67-16 1.673 0 3.135.252 4.441.692-14.564-15.207-35.054-24.692-57.772-24.692-22.717 0-43.206 9.484-57.768 24.69 1.304-.439 2.764-.69 4.433-.69 13.332 0 13.332 16 26.665 16z" fill="#a55023"/></g><g><path d="m112 424c26.172 0 49.406-12.57 64.001-32h-128.002c14.595 19.43 37.829 32 64.001 32z" fill="#5faa46"/></g><g><path d="m169.771 288.692c-1.306-.44-2.768-.692-4.441-.692-13.335 0-13.335 16-26.67 16-13.333 0-13.333-16-26.666-16-13.332 0-13.332 16-26.665 16s-13.333-16-26.665-16c-1.669 0-3.129.251-4.433.69-13.76 14.369-22.231 33.844-22.231 55.31 0 2.706.138 5.379.401 8.015 12.924.324 13.069 15.985 26.264 15.985 13.333 0 13.333-16 26.665-16s13.332 16 26.665 16 13.333-16 26.666-16c13.335 0 13.335 16 26.67 16 13.197 0 13.342-15.661 26.269-15.985.262-2.636.401-5.31.401-8.015-.001-21.465-8.471-40.939-22.23-55.308z" fill="#fabe19"/></g><g><path d="m165.33 368c-13.335 0-13.335-16-26.67-16-13.333 0-13.333 16-26.666 16-13.332 0-13.332-16-26.665-16s-13.333 16-26.665 16c-13.195 0-13.339-15.661-26.264-15.985 1.484 14.915 7.063 28.623 15.599 39.985h128.002c8.535-11.362 14.115-25.07 15.599-39.985-12.928.324-13.073 15.985-26.27 15.985z" fill="#a55023"/></g><g><path d="m63.998 408h96.004c6.057-4.551 11.448-9.942 15.999-16h-128.002c4.551 6.058 9.942 11.449 15.999 16z" fill="#91c83c"/></g></g><g><path d="m432 408h-160c-35.346 0-64-28.654-64-64 0-53.019-42.981-96-96-96h288c53.019 0 96 42.981 96 96 0 35.346-28.654 64-64 64z" fill="#f0915a"/></g><g><circle cx="120" cy="320" fill="#f5871e" r="8"/></g><g><circle cx="80" cy="370.667" fill="#d26e28" r="5.333"/></g><g><circle cx="133.333" cy="285.333" fill="#d26e28" r="5.333"/></g><g><circle cx="154.667" cy="381.333" fill="#d26e28" r="5.333"/></g><g><circle cx="72" cy="336" fill="#f5871e" r="8"/></g><g><circle cx="172" cy="332" fill="#f5871e" r="12"/></g><g><circle cx="297.333" cy="302.667" fill="#f0915a" r="9.333"/></g><g><circle cx="265.333" cy="385.333" fill="#f0915a" r="9.333"/></g><g><circle cx="196" cy="276" fill="#f0915a" r="4"/></g></g><g><g><path d="m304 80h-112c-53.019 0-96 42.981-96 96 0 53.019 42.981 96 96 96h112c53.019 0 96-42.981 96-96 0-53.019-42.981-96-96-96z" fill="#f0915a"/></g><g><circle cx="192" cy="176" fill="#fab991" r="96"/></g><g><g><path d="m165.33 136c13.332 0 13.332-16 26.665-16s13.333 16 26.666 16c13.335 0 13.335-16 26.67-16 1.673 0 3.135.252 4.441.692-14.564-15.207-35.054-24.692-57.772-24.692-22.717 0-43.206 9.484-57.768 24.69 1.304-.439 2.764-.69 4.433-.69 13.332 0 13.332 16 26.665 16z" fill="#a55023"/></g><g><path d="m192 256c26.172 0 49.406-12.57 64.001-32h-128.002c14.595 19.43 37.829 32 64.001 32z" fill="#5faa46"/></g><g><path d="m249.771 120.692c-1.306-.44-2.768-.692-4.441-.692-13.335 0-13.335 16-26.67 16-13.333 0-13.333-16-26.666-16-13.332 0-13.332 16-26.665 16s-13.333-16-26.665-16c-1.669 0-3.129.251-4.433.69-13.76 14.369-22.231 33.844-22.231 55.31 0 2.706.138 5.379.401 8.015 12.924.324 13.069 15.985 26.264 15.985 13.333 0 13.333-16 26.665-16s13.332 16 26.665 16 13.333-16 26.666-16c13.335 0 13.335 16 26.67 16 13.197 0 13.342-15.661 26.269-15.985.262-2.636.401-5.31.401-8.015-.001-21.465-8.471-40.939-22.23-55.308z" fill="#fabe19"/></g><g><path d="m245.33 200c-13.335 0-13.335-16-26.67-16-13.333 0-13.333 16-26.666 16-13.332 0-13.332-16-26.665-16s-13.333 16-26.665 16c-13.195 0-13.339-15.661-26.264-15.985 1.484 14.915 7.063 28.623 15.599 39.985h128.002c8.535-11.362 14.115-25.07 15.599-39.985-12.928.324-13.073 15.985-26.27 15.985z" fill="#a55023"/></g><g><path d="m143.998 240h96.004c6.057-4.551 11.448-9.942 15.999-16h-128.002c4.551 6.058 9.942 11.449 15.999 16z" fill="#91c83c"/></g></g><g><path d="m368 208h-48c-17.673 0-32-14.327-32-32 0-53.019-42.981-96-96-96h112c53.019 0 96 42.981 96 96 0 17.673-14.327 32-32 32z" fill="#fab991"/></g><g><circle cx="200" cy="152" fill="#f5871e" r="8"/></g><g><circle cx="160" cy="202.667" fill="#d26e28" r="5.333"/></g><g><circle cx="213.333" cy="117.333" fill="#d26e28" r="5.333"/></g><g><circle cx="234.667" cy="213.333" fill="#d26e28" r="5.333"/></g><g><circle cx="152" cy="168" fill="#f5871e" r="8"/></g><g><circle cx="252" cy="164" fill="#f5871e" r="12"/></g><g><circle cx="358.667" cy="140" fill="#f0915a" r="9.333"/></g><g><circle cx="332" cy="177.333" fill="#f0915a" r="9.333"/></g><g><circle cx="276" cy="108" fill="#f0915a" r="4"/></g></g><g><g><path d="m400 248h-112c-53.019 0-96 42.981-96 96 0 53.019 42.981 96 96 96h112c53.019 0 96-42.981 96-96 0-53.019-42.981-96-96-96z" fill="#f0915a"/></g><g><circle cx="288" cy="344" fill="#fab991" r="96"/></g><g><g><path d="m261.33 304c13.332 0 13.332-16 26.665-16s13.333 16 26.666 16c13.335 0 13.335-16 26.67-16 1.673 0 3.135.252 4.441.692-14.564-15.207-35.054-24.692-57.772-24.692-22.717 0-43.206 9.484-57.768 24.69 1.304-.439 2.764-.69 4.433-.69 13.332 0 13.332 16 26.665 16z" fill="#a55023"/></g><g><path d="m288 424c26.172 0 49.406-12.57 64.001-32h-128.002c14.595 19.43 37.829 32 64.001 32z" fill="#5faa46"/></g><g><path d="m345.771 288.692c-1.306-.44-2.768-.692-4.441-.692-13.335 0-13.335 16-26.67 16-13.333 0-13.333-16-26.666-16-13.332 0-13.332 16-26.665 16s-13.333-16-26.665-16c-1.669 0-3.129.251-4.433.69-13.76 14.369-22.231 33.844-22.231 55.31 0 2.706.138 5.379.401 8.015 12.924.324 13.069 15.985 26.264 15.985 13.333 0 13.333-16 26.665-16s13.332 16 26.665 16 13.333-16 26.666-16c13.335 0 13.335 16 26.67 16 13.197 0 13.342-15.661 26.269-15.985.262-2.636.401-5.31.401-8.015-.001-21.465-8.471-40.939-22.23-55.308z" fill="#fabe19"/></g><g><path d="m341.33 368c-13.335 0-13.335-16-26.67-16-13.333 0-13.333 16-26.666 16-13.332 0-13.332-16-26.665-16s-13.333 16-26.665 16c-13.195 0-13.339-15.661-26.264-15.985 1.484 14.915 7.063 28.623 15.599 39.985h128.002c8.535-11.362 14.115-25.07 15.599-39.985-12.928.324-13.073 15.985-26.27 15.985z" fill="#a55023"/></g><g><path d="m239.998 408h96.004c6.057-4.551 11.448-9.942 15.999-16h-128.002c4.551 6.058 9.942 11.449 15.999 16z" fill="#91c83c"/></g></g><g><path d="m464 376h-48c-17.673 0-32-14.327-32-32 0-53.019-42.981-96-96-96h112c53.019 0 96 42.981 96 96 0 17.673-14.327 32-32 32z" fill="#fab991"/></g><g><circle cx="296" cy="320" fill="#f5871e" r="8"/></g><g><circle cx="256" cy="370.667" fill="#d26e28" r="5.333"/></g><g><circle cx="309.333" cy="285.333" fill="#d26e28" r="5.333"/></g><g><circle cx="330.667" cy="381.333" fill="#d26e28" r="5.333"/></g><g><circle cx="248" cy="336" fill="#f5871e" r="8"/></g><g><circle cx="348" cy="332" fill="#f5871e" r="12"/></g><g><circle cx="454.667" cy="308" fill="#f0915a" r="9.333"/></g><g><circle cx="428" cy="345.333" fill="#f0915a" r="9.333"/></g><g><circle cx="372" cy="276" fill="#f0915a" r="4"/></g></g></g></svg>