<svg id="Layer_1" enable-background="new 0 0 512 512" height="512" viewBox="0 0 512 512" width="512" xmlns="http://www.w3.org/2000/svg"><g><g><circle cx="256" cy="256" fill="#a5c3dc" r="240"/></g><g><g><circle cx="256" cy="256" fill="#8caac8" r="192"/></g></g><g><path d="m292.718 104.48c-21.578-13.389-71.858-40.01-131.147-40.474-44.564-.349-81.826 35.9-81.569 80.464.252 43.966 35.972 79.53 79.998 79.53 60 0 111-27 132.75-40.5 7.861-4.879 16.913-7.5 26.165-7.5h1.085c8.837 0 16-7.163 16-16v-32c0-8.837-7.163-16-16-16h-1.049c-9.276 0-18.351-2.629-26.233-7.52z" fill="#d26e28"/></g><g><path d="m88 152.424c-4.396 0-7.974-3.552-7.999-7.954-.122-21.137 8.148-41.163 23.288-56.389 15.438-15.527 35.909-24.078 57.644-24.078l.616.003c4.418.022 7.981 3.622 7.959 8.041-.022 4.404-3.601 7.959-7.999 7.959-.014 0-.027 0-.042 0l-.575-.003c-17.401 0-33.844 6.875-46.257 19.359-12.113 12.183-18.73 28.17-18.634 45.016.025 4.418-3.536 8.021-7.954 8.046-.016 0-.031 0-.047 0z" fill="#f28a39"/></g><path d="m424 128c0-13.255-10.745-24-24-24s-24 10.745-24 24h-40v32h40c0 13.255 10.745 24 24 24s24-10.745 24-24c0-6.146-2.311-11.754-6.112-16 3.801-4.246 6.112-9.854 6.112-16z" fill="#d7e6f0"/><g><path d="m128 176.142v15.715c0 17.563 14.095 32.069 31.659 32.143.114 0 .227.001.341.001 60 0 111-27 132.75-40.5 7.861-4.879 16.913-7.5 26.165-7.5h1.085c8.837 0 16-7.163 16-16v-16h-175.858c-17.752-.001-32.142 14.389-32.142 32.141z" fill="#a55023"/></g><g><g><circle cx="230.667" cy="108" fill="#a55023" r="4"/></g><g><circle cx="174.667" cy="108" fill="#a55023" r="4"/></g><g><circle cx="214.667" cy="92" fill="#a55023" r="4"/></g><g><circle cx="214.667" cy="124" fill="#a55023" r="4"/></g></g><g><g><circle cx="164" cy="180" fill="#8c3c14" r="4"/></g><g><circle cx="220" cy="180" fill="#8c3c14" r="4"/></g><g><circle cx="180" cy="164" fill="#8c3c14" r="4"/></g><g><circle cx="180" cy="196" fill="#8c3c14" r="4"/></g></g><g><g><circle cx="392" cy="216" fill="#e1322d" r="56"/></g><g><circle cx="392" cy="216" fill="#f04b37" r="40"/></g></g><g><g><circle cx="408" cy="269.333" fill="#5faa46" r="56"/></g><g><circle cx="408" cy="269.333" fill="#afd763" r="48"/></g></g><path d="m372.549 351.344c6.621-1.96 11.451-8.088 11.451-15.344s-4.831-13.384-11.451-15.344c5.888-3.606 8.968-10.776 7.09-17.785s-8.13-11.678-15.032-11.857c4.754-5.008 5.873-12.729 2.245-19.014s-10.875-9.176-17.589-7.563c3.296-6.067 2.378-13.816-2.753-18.947s-12.88-6.048-18.947-2.753c1.613-6.713-1.279-13.96-7.563-17.589-6.284-3.628-14.006-2.509-19.014 2.245-.18-6.902-4.849-13.154-11.857-15.032-7.009-1.878-14.178 1.202-17.785 7.09-1.96-6.621-8.088-11.451-15.344-11.451s-13.384 4.83-15.344 11.451c-3.607-5.888-10.776-8.968-17.785-7.09s-11.678 8.13-11.857 15.032c-5.007-4.754-12.729-5.873-19.014-2.245-6.284 3.629-9.176 10.876-7.563 17.589-6.067-3.295-13.816-2.378-18.947 2.753s-6.048 12.88-2.753 18.947c-6.714-1.613-13.961 1.278-17.589 7.563s-2.509 14.006 2.245 19.014c-6.902.18-13.154 4.849-15.032 11.857-1.878 7.009 1.202 14.179 7.09 17.785-6.62 1.96-11.451 8.088-11.451 15.344s4.83 13.384 11.451 15.344c-5.888 3.606-8.968 10.776-7.09 17.785s8.13 11.678 15.032 11.857c-4.754 5.008-5.873 12.729-2.245 19.014s10.875 9.176 17.589 7.563c-3.296 6.067-2.378 13.816 2.752 18.947 5.131 5.131 12.88 6.049 18.947 2.753-1.613 6.713 1.279 13.96 7.563 17.589 6.284 3.628 14.006 2.509 19.014-2.245.18 6.902 4.849 13.154 11.857 15.032 7.009 1.878 14.178-1.202 17.785-7.09 1.961 6.621 8.089 11.451 15.345 11.451s13.384-4.83 15.344-11.451c3.607 5.888 10.776 8.968 17.785 7.09s11.678-8.13 11.857-15.032c5.007 4.754 12.729 5.873 19.014 2.245 6.284-3.629 9.176-10.876 7.563-17.589 6.067 3.296 13.816 2.378 18.947-2.753s6.048-12.88 2.752-18.947c6.714 1.613 13.961-1.278 17.589-7.563s2.509-14.006-2.245-19.014c6.902-.18 13.154-4.849 15.032-11.857 1.879-7.009-1.201-14.179-7.089-17.785z" fill="#d7e6f0"/><g><circle cx="333.333" cy="309.333" fill="#a5c3dc" r="8"/></g><g><circle cx="317.333" cy="384" fill="#a5c3dc" r="8"/></g><g><circle cx="250.667" cy="306.667" fill="#a5c3dc" r="8"/></g><g><circle cx="306.667" cy="328" fill="#a5c3dc" r="8"/></g><g><circle cx="280" cy="405.333" fill="#a5c3dc" r="8"/></g><g><circle cx="232" cy="394.667" fill="#a5c3dc" r="8"/></g><g><circle cx="264" cy="376" fill="#a5c3dc" r="8"/></g><g><path d="m269.172 297.372-7.515-7.515c-3.125-3.123-8.189-3.123-11.314 0l-7.515 7.515c-6.982 6.983-10.828 16.268-10.828 26.143 0 9.876 3.846 19.161 10.828 26.143l7.515 7.515c1.563 1.562 3.609 2.343 5.657 2.343s4.095-.781 5.657-2.343l7.514-7.515c6.983-6.981 10.829-16.267 10.829-26.143 0-9.875-3.846-19.16-10.828-26.143z" fill="#69a041"/><path d="m325.657 353.857-7.516-7.515c-6.983-6.982-16.268-10.828-26.142-10.828s-19.158 3.846-26.143 10.828l-7.515 7.515c-3.124 3.125-3.124 8.189 0 11.314l7.515 7.515c6.983 6.982 16.268 10.828 26.143 10.828s19.159-3.846 26.143-10.828l7.515-7.515c3.124-3.124 3.124-8.189 0-11.314z" fill="#4b8c41"/><path d="m253.657 353.857-7.516-7.515c-6.983-6.982-16.268-10.828-26.142-10.828s-19.158 3.846-26.143 10.828l-7.515 7.515c-3.124 3.125-3.124 8.189 0 11.314l7.515 7.515c6.983 6.982 16.268 10.828 26.143 10.828s19.159-3.846 26.143-10.828l7.515-7.515c3.124-3.124 3.124-8.189 0-11.314z" fill="#4b8c41"/><g><path d="m256 391.515c-4.418 0-8-3.582-8-8v-24h16v24c0 4.418-3.582 8-8 8z" fill="#4b8c41"/></g></g><g><path d="m408 252c-2.209 0-4-1.791-4-4v-10.667c0-2.209 1.791-4 4-4s4 1.791 4 4v10.667c0 2.209-1.791 4-4 4z" fill="#91c83c"/></g><g><path d="m408 302.667c-2.209 0-4-1.791-4-4v-10.667c0-2.209 1.791-4 4-4s4 1.791 4 4v10.667c0 2.209-1.791 4-4 4z" fill="#91c83c"/></g><g><path d="m393.857 257.857c-1.023 0-2.048-.391-2.828-1.172l-7.542-7.542c-1.563-1.562-1.563-4.095 0-5.656 1.561-1.563 4.096-1.563 5.656 0l7.542 7.542c1.563 1.562 1.563 4.095 0 5.656-.78.782-1.804 1.172-2.828 1.172z" fill="#91c83c"/></g><g><path d="m429.685 293.685c-1.023 0-2.048-.391-2.828-1.172l-7.542-7.542c-1.563-1.562-1.563-4.095 0-5.656 1.561-1.563 4.096-1.563 5.656 0l7.542 7.542c1.563 1.562 1.563 4.095 0 5.656-.781.781-1.805 1.172-2.828 1.172z" fill="#91c83c"/></g><g><path d="m388 272h-10.667c-2.209 0-4-1.791-4-4s1.791-4 4-4h10.667c2.209 0 4 1.791 4 4s-1.791 4-4 4z" fill="#91c83c"/></g><g><path d="m438.667 272h-10.667c-2.209 0-4-1.791-4-4s1.791-4 4-4h10.667c2.209 0 4 1.791 4 4s-1.791 4-4 4z" fill="#91c83c"/></g><g><path d="m386.315 293.685c-1.023 0-2.048-.391-2.828-1.172-1.563-1.562-1.563-4.095 0-5.656l7.542-7.542c1.561-1.563 4.096-1.563 5.656 0 1.563 1.562 1.563 4.095 0 5.656l-7.542 7.542c-.78.781-1.804 1.172-2.828 1.172z" fill="#91c83c"/></g><g><path d="m422.143 257.857c-1.023 0-2.048-.391-2.828-1.172-1.563-1.562-1.563-4.095 0-5.656l7.542-7.542c1.561-1.563 4.096-1.563 5.656 0 1.563 1.562 1.563 4.095 0 5.656l-7.542 7.542c-.781.782-1.805 1.172-2.828 1.172z" fill="#91c83c"/></g></g></svg>