<svg id="Layer_1" enable-background="new 0 0 512 512" height="512" viewBox="0 0 512 512" width="512" xmlns="http://www.w3.org/2000/svg"><g><g><g><path d="m480.758 171.695c-17.318 9.021-34.606 2.896-43.189-9.665-.935-1.368-2.488-2.143-4.143-2.064-.472.022-.948.034-1.426.034-10.986 0-20.673-5.54-26.434-13.975-.933-1.366-2.485-2.137-4.138-2.059-.473.022-.949.034-1.428.034-17.673 0-32-14.327-32-32 0-.479.012-.955.034-1.429.078-1.652-.693-3.204-2.059-4.137-8.435-5.761-13.975-15.448-13.975-26.434 0-.479.012-.954.034-1.427.078-1.655-.696-3.208-2.064-4.142-12.56-8.583-18.685-25.872-9.664-43.188-26.231-9.845-54.637-15.243-84.306-15.243-132.548 0-240 107.452-240 240s107.452 240 240 240 240-107.452 240-240c0-29.669-5.398-58.074-15.242-84.305z" fill="#f28a39"/></g></g><g><path d="m256 496c-64.106 0-124.375-24.964-169.706-70.294s-70.294-105.6-70.294-169.706c0-8.837 7.164-16 16-16s16 7.163 16 16c0 114.691 93.309 208 208 208s208-93.309 208-208c0-8.837 7.164-16 16-16s16 7.163 16 16c0 64.106-24.964 124.376-70.294 169.706s-105.6 70.294-169.706 70.294z" fill="#d26e28"/></g><g><path d="m32 272c-8.836 0-16-7.163-16-16 0-64.106 24.964-124.376 70.294-169.706s105.6-70.294 169.706-70.294c8.836 0 16 7.163 16 16s-7.164 16-16 16c-114.691 0-208 93.309-208 208 0 8.837-7.164 16-16 16z" fill="#ffaa5a"/></g><g><circle cx="448" cy="128" fill="#f28a39" r="16"/></g><g><g><circle cx="192" cy="192" fill="#a55023" r="32"/></g><g><circle cx="180" cy="180" fill="#d26e28" r="12"/></g></g><g><g><circle cx="336" cy="352" fill="#a55023" r="32"/></g><g><circle cx="324" cy="340" fill="#d26e28" r="12"/></g></g><g><g><circle cx="416" cy="272" fill="#a55023" r="32"/></g><g><circle cx="404" cy="260" fill="#d26e28" r="12"/></g></g><g><circle cx="392" cy="72" fill="#f28a39" r="8"/></g><g><circle cx="472" cy="88" fill="#f28a39" r="8"/></g><g><circle cx="336" cy="224" fill="#a55023" r="16"/></g><g><circle cx="226.667" cy="466.667" fill="#a55023" r="16"/></g><g><circle cx="128" cy="336" fill="#a55023" r="16"/></g><g><circle cx="264" cy="141.333" fill="#d26e28" r="16"/></g><g><circle cx="290.667" cy="245.333" fill="#d26e28" r="16"/></g><g><circle cx="56" cy="320" fill="#a55023" r="16"/></g><g><circle cx="232" cy="296" fill="#a55023" r="8"/></g><g><circle cx="312" cy="408" fill="#a55023" r="8"/></g><g><circle cx="312" cy="184" fill="#a55023" r="8"/></g><g><circle cx="114.667" cy="232" fill="#d26e28" r="8"/></g><g><circle cx="261.333" cy="384" fill="#d26e28" r="8"/></g><g><circle cx="170.667" cy="416" fill="#d26e28" r="8"/></g><g><circle cx="245.333" cy="50.667" fill="#a55023" r="8"/></g><g><circle cx="168" cy="120" fill="#a55023" r="8"/></g></g></svg>