<svg id="Layer_1" enable-background="new 0 0 512 512" height="512" viewBox="0 0 512 512" width="512" xmlns="http://www.w3.org/2000/svg"><g><g><g><path d="m256 416c8.837 0 16-7.163 16-16v-352c0-8.837-7.163-16-16-16-8.837 0-16 7.163-16 16v352c0 8.837 7.163 16 16 16z" fill="#f5871e"/></g><g><path d="m288 416c8.837 0 16-7.163 16-16v-352c0-8.837-7.163-16-16-16-8.837 0-16 7.163-16 16v352c0 8.837 7.163 16 16 16z" fill="#d26e28"/></g><g><path d="m224 416c8.837 0 16-7.163 16-16v-352c0-8.837-7.163-16-16-16-8.837 0-16 7.163-16 16v352c0 8.837 7.163 16 16 16z" fill="#ffbe28"/></g></g><g><g><circle cx="255.79" cy="297.205" fill="#d7e6f0" r="4"/></g><g><circle cx="233.099" cy="277.864" fill="#d7e6f0" r="4"/></g><g><circle cx="293.404" cy="333.965" fill="#d7e6f0" r="4"/></g><g><circle cx="223.688" cy="382.666" fill="#d7e6f0" r="4"/></g><g><circle cx="229.945" cy="190.528" fill="#d7e6f0" r="4"/></g><g><circle cx="279.271" cy="368.928" fill="#d7e6f0" r="4"/></g><g><circle cx="289.353" cy="272.534" fill="#d7e6f0" r="4"/></g><g><circle cx="233.921" cy="341.243" fill="#d7e6f0" r="4"/></g><g><circle cx="234.346" cy="261.691" fill="#d7e6f0" r="4"/></g><g><circle cx="283.475" cy="251.852" fill="#d7e6f0" r="4"/></g><g><circle cx="220.001" cy="219.69" fill="#d7e6f0" r="4"/></g></g><g><g><path d="m350.307 473.458c8.535 2.287 17.309-2.778 19.596-11.314l91.104-340.006c2.287-8.535-2.778-17.309-11.314-19.596-8.535-2.287-17.309 2.778-19.596 11.314l-91.104 340.006c-2.287 8.535 2.778 17.309 11.314 19.596z" fill="#f5871e"/></g><g><path d="m381.216 481.74c8.535 2.287 17.309-2.778 19.596-11.314l91.104-340.006c2.287-8.535-2.778-17.309-11.314-19.596-8.535-2.287-17.309 2.778-19.596 11.314l-91.104 340.006c-2.286 8.536 2.779 17.309 11.314 19.596z" fill="#d26e28"/></g><g><path d="m319.397 465.176c8.535 2.287 17.309-2.778 19.596-11.314l91.104-340.006c2.287-8.535-2.778-17.309-11.314-19.596-8.535-2.287-17.309 2.778-19.596 11.314l-91.104 340.006c-2.287 8.535 2.779 17.308 11.314 19.596z" fill="#ffbe28"/></g></g><g><g><path d="m161.693 473.458c-8.535 2.287-17.309-2.778-19.596-11.314l-91.104-340.006c-2.287-8.535 2.778-17.309 11.314-19.596 8.535-2.287 17.309 2.778 19.596 11.314l91.104 340.006c2.287 8.535-2.778 17.309-11.314 19.596z" fill="#f5871e"/></g><g><path d="m130.784 481.74c-8.535 2.287-17.309-2.778-19.596-11.314l-91.105-340.006c-2.287-8.535 2.778-17.309 11.314-19.596 8.535-2.287 17.309 2.778 19.596 11.314l91.104 340.006c2.287 8.536-2.778 17.309-11.313 19.596z" fill="#d26e28"/></g><g><path d="m192.603 465.176c-8.535 2.287-17.309-2.778-19.596-11.314l-91.104-340.006c-2.287-8.535 2.778-17.309 11.314-19.596 8.535-2.287 17.309 2.778 19.596 11.314l91.104 340.006c2.287 8.535-2.779 17.308-11.314 19.596z" fill="#ffbe28"/></g></g><g><path d="m200 32v100c0 6.627 5.373 12 12 12 6.627 0 12-5.373 12-12v-28c0-4.418 3.582-8 8-8 4.418 0 8 3.582 8 8v72c0 8.837 7.163 16 16 16 8.837 0 16-7.163 16-16v-88c0-4.418 3.582-8 8-8 4.418 0 8 3.582 8 8v60c0 6.627 5.373 12 12 12 6.627 0 12-5.373 12-12v-116c0-8.837-7.163-16-16-16h-80c-8.837 0-16 7.163-16 16z" fill="#a55023"/></g><g><path d="m216 16c-8.837 0-16 7.163-16 16v100c0 6.702 5.494 12.121 12.225 11.998 6.606-.121 11.775-5.789 11.775-12.396v-27.328c0-4.261 3.215-7.982 7.467-8.257 4.66-.301 8.533 3.389 8.533 7.983v71.726c0 4.261 3.215 7.982 7.467 8.257 4.659.302 8.533-3.388 8.533-7.983v-136c0-4.418 3.582-8 8-8h48c0-8.837-7.163-16-16-16z" fill="#d26e28"/></g><g><g><circle cx="448.927" cy="142.673" fill="#d7e6f0" r="4"/></g><g><circle cx="414.754" cy="164.257" fill="#d7e6f0" r="4"/></g><g><circle cx="409.333" cy="121.333" fill="#d7e6f0" r="4"/></g><g><circle cx="382.666" cy="361.334" fill="#d7e6f0" r="4"/></g><g><circle cx="409.333" cy="348" fill="#d7e6f0" r="4"/></g><g><circle cx="337.333" cy="388" fill="#d7e6f0" r="4"/></g><g><circle cx="393.333" cy="452" fill="#d7e6f0" r="4"/></g><g><circle cx="433.342" cy="263.97" fill="#d7e6f0" r="4"/></g><g><circle cx="388" cy="209.333" fill="#d7e6f0" r="4"/></g><g><circle cx="391.171" cy="196.149" fill="#d7e6f0" r="4"/></g><g><circle cx="342.667" cy="425.333" fill="#d7e6f0" r="4"/></g><g><circle cx="429.584" cy="209.265" fill="#d7e6f0" r="4"/></g><g><circle cx="465.334" cy="169.334" fill="#d7e6f0" r="4"/></g><g><circle cx="355.999" cy="329.334" fill="#d7e6f0" r="4"/></g><g><circle cx="393.334" cy="409.332" fill="#d7e6f0" r="4"/></g><g><circle cx="412.001" cy="332.001" fill="#d7e6f0" r="4"/></g><g><circle cx="366.666" cy="310.666" fill="#d7e6f0" r="4"/></g><g><circle cx="436.001" cy="294.666" fill="#d7e6f0" r="4"/></g></g><g><g><circle cx="65.741" cy="142.673" fill="#d7e6f0" r="4"/></g><g><circle cx="99.914" cy="164.257" fill="#d7e6f0" r="4"/></g><g><circle cx="105.334" cy="121.333" fill="#d7e6f0" r="4"/></g><g><circle cx="132.002" cy="361.334" fill="#d7e6f0" r="4"/></g><g><circle cx="105.334" cy="348" fill="#d7e6f0" r="4"/></g><g><circle cx="177.334" cy="388" fill="#d7e6f0" r="4"/></g><g><circle cx="121.334" cy="452" fill="#d7e6f0" r="4"/></g><g><circle cx="81.326" cy="263.97" fill="#d7e6f0" r="4"/></g><g><circle cx="126.667" cy="209.333" fill="#d7e6f0" r="4"/></g><g><circle cx="123.497" cy="196.149" fill="#d7e6f0" r="4"/></g><g><circle cx="172" cy="425.333" fill="#d7e6f0" r="4"/></g><g><circle cx="85.084" cy="209.265" fill="#d7e6f0" r="4"/></g><g><circle cx="49.334" cy="169.334" fill="#d7e6f0" r="4"/></g><g><circle cx="158.669" cy="329.334" fill="#d7e6f0" r="4"/></g><g><circle cx="121.333" cy="409.332" fill="#d7e6f0" r="4"/></g><g><circle cx="102.667" cy="332.001" fill="#d7e6f0" r="4"/></g><g><circle cx="148.002" cy="310.666" fill="#d7e6f0" r="4"/></g><g><circle cx="78.667" cy="294.666" fill="#d7e6f0" r="4"/></g></g></g></svg>