<svg id="Layer_1" enable-background="new 0 0 512 512" height="512" viewBox="0 0 512 512" width="512" xmlns="http://www.w3.org/2000/svg"><g><g><circle cx="256" cy="256" fill="#faa019" r="240"/></g><g><circle cx="256" cy="256" fill="#f5871e" r="208"/></g><g><circle cx="256" cy="256" fill="#d7e6f0" r="192"/></g><g><path d="m96 288c0-106.039 85.961-192 192-192 44.866 0 86.137 15.39 118.824 41.177-35.16-44.568-89.651-73.177-150.824-73.177-106.039 0-192 85.961-192 192 0 61.173 28.609 115.664 73.177 150.823-25.788-32.686-41.177-73.958-41.177-118.823z" fill="#a5c3dc"/></g><g><g><path d="m192 272v-32c0-8.837-7.163-16-16-16h-32c-8.837 0-16 7.163-16 16v32c0 8.837 7.163 16 16 16h32c8.837 0 16-7.163 16-16z" fill="#a5c3dc"/></g><g><path d="m160 272c0-8.836 7.164-16 16-16h16v16c0 8.836-7.164 16-16 16h-16z" fill="#8caac8"/></g></g><g><g><path d="m384 272v-32c0-8.837-7.163-16-16-16h-32c-8.837 0-16 7.163-16 16v32c0 8.837 7.163 16 16 16h32c8.837 0 16-7.163 16-16z" fill="#a5c3dc"/></g><g><path d="m352 272c0-8.836 7.164-16 16-16h16v16c0 8.836-7.164 16-16 16h-16z" fill="#8caac8"/></g></g><g><g><path d="m267.314 193.941 22.627-22.627c6.248-6.248 6.248-16.379 0-22.627l-22.627-22.627c-6.248-6.248-16.379-6.248-22.627 0l-22.627 22.627c-6.248 6.248-6.248 16.379 0 22.627l22.627 22.627c6.248 6.249 16.378 6.249 22.627 0z" fill="#a5c3dc"/></g><g><path d="m244.686 171.314c6.248-6.248 16.379-6.248 22.627 0l11.314 11.314-11.314 11.314c-6.248 6.248-16.379 6.248-22.627 0l-11.314-11.314z" fill="#8caac8"/></g></g><g><g><path d="m272 320h-32c-8.837 0-16 7.163-16 16v32c0 8.837 7.163 16 16 16h32c8.837 0 16-7.163 16-16v-32c0-8.837-7.163-16-16-16z" fill="#a5c3dc"/></g><g><path d="m272 352c-8.836 0-16-7.164-16-16v-16h16c8.836 0 16 7.164 16 16v16z" fill="#8caac8"/></g></g><g><g><circle cx="256" cy="256" fill="#faa019" r="40"/></g><g><path d="m224 264c-4.418 0-8-3.582-8-8 0-22.056 17.944-40 40-40 4.418 0 8 3.582 8 8s-3.582 8-8 8c-13.234 0-24 10.767-24 24 0 4.418-3.582 8-8 8z" fill="#ffd205"/></g></g><g><g><circle cx="344" cy="168" fill="#faa019" r="40"/></g><g><path d="m312 176c-4.418 0-8-3.582-8-8 0-22.056 17.944-40 40-40 4.418 0 8 3.582 8 8s-3.582 8-8 8c-13.234 0-24 10.767-24 24 0 4.418-3.582 8-8 8z" fill="#ffd205"/></g></g><g><g><circle cx="344" cy="344" fill="#faa019" r="40"/></g><g><path d="m312 352c-4.418 0-8-3.582-8-8 0-22.056 17.944-40 40-40 4.418 0 8 3.582 8 8s-3.582 8-8 8c-13.234 0-24 10.767-24 24 0 4.418-3.582 8-8 8z" fill="#ffd205"/></g></g><g><g><circle cx="346.667" cy="357.333" fill="#f04b37" r="8"/></g><g><circle cx="138.667" cy="162.667" fill="#f04b37" r="8"/></g><g><circle cx="290.667" cy="280" fill="#f04b37" r="8"/></g><g><circle cx="402.667" cy="197.333" fill="#f04b37" r="8"/></g><g><circle cx="170.667" cy="365.333" fill="#f04b37" r="8"/></g><g><circle cx="184" cy="200" fill="#f04b37" r="8"/></g><g><circle cx="306.667" cy="106.667" fill="#f04b37" r="8"/></g><g><circle cx="109.333" cy="312" fill="#f04b37" r="8"/></g></g><g><path d="m200 356c-6.617 0-12-5.383-12-12s5.383-12 12-12 12 5.383 12 12-5.383 12-12 12zm0-16c-2.206 0-4 1.794-4 4s1.794 4 4 4 4-1.794 4-4-1.794-4-4-4z" fill="#5faa46"/></g><g><path d="m130.667 238.667c-6.617 0-12-5.383-12-12s5.383-12 12-12 12 5.383 12 12-5.384 12-12 12zm0-16c-2.206 0-4 1.794-4 4s1.794 4 4 4 4-1.794 4-4-1.795-4-4-4z" fill="#5faa46"/></g><g><path d="m218.667 116c-6.617 0-12-5.383-12-12s5.383-12 12-12 12 5.383 12 12-5.384 12-12 12zm0-16c-2.206 0-4 1.794-4 4s1.794 4 4 4 4-1.794 4-4-1.795-4-4-4z" fill="#5faa46"/></g><g><path d="m386.667 228c-6.617 0-12-5.383-12-12s5.383-12 12-12 12 5.383 12 12-5.384 12-12 12zm0-16c-2.206 0-4 1.794-4 4s1.794 4 4 4 4-1.794 4-4-1.795-4-4-4z" fill="#5faa46"/></g><g><circle cx="216" cy="186.667" fill="#5faa46" r="8"/></g><g><circle cx="296" cy="312" fill="#5faa46" r="8"/></g><g><circle cx="176" cy="293.333" fill="#5faa46" r="8"/></g><g><path d="m226.667 297.333c-6.617 0-12-5.383-12-12s5.383-12 12-12 12 5.383 12 12-5.384 12-12 12zm0-16c-2.206 0-4 1.794-4 4s1.794 4 4 4 4-1.794 4-4-1.795-4-4-4z" fill="#5faa46"/></g><g><path d="m306.667 409.333c-6.617 0-12-5.383-12-12s5.383-12 12-12 12 5.383 12 12-5.384 12-12 12zm0-16c-2.206 0-4 1.794-4 4s1.794 4 4 4 4-1.794 4-4-1.795-4-4-4z" fill="#5faa46"/></g></g></svg>