<svg id="Layer_1" enable-background="new 0 0 512 512" height="512" viewBox="0 0 512 512" width="512" xmlns="http://www.w3.org/2000/svg"><g><g><path d="m32 384h448c8.837 0 16 7.163 16 16 0 8.837-7.163 16-16 16h-448c-8.837 0-16-7.163-16-16 0-8.837 7.163-16 16-16z" fill="#d7e6f0"/></g><g><path d="m77.333 416h357.333l-25.473 23.514c-5.911 5.456-13.66 8.486-21.705 8.486h-262.977c-8.044 0-15.794-3.03-21.705-8.486z" fill="#a5c3dc"/></g><g><path d="m240 224h-192c-8.837 0-16 7.163-16 16v128c0 8.837 7.163 16 16 16h192c8.837 0 16-7.163 16-16v-128c0-8.837-7.163-16-16-16z" fill="#f06423"/></g><g><path d="m144 224h-96c-8.837 0-16 7.163-16 16v128c0 8.837 7.163 16 16 16h96c8.837 0 16-7.163 16-16v-128c0-8.837-7.163-16-16-16z" fill="#faa019"/></g><g><path d="m464 224h-192c-8.837 0-16 7.163-16 16v128c0 8.837 7.163 16 16 16h192c8.837 0 16-7.163 16-16v-128c0-8.837-7.163-16-16-16z" fill="#f06423"/></g><g><path d="m368 224h-96c-8.837 0-16 7.163-16 16v128c0 8.837 7.163 16 16 16h96c8.837 0 16-7.163 16-16v-128c0-8.837-7.163-16-16-16z" fill="#faa019"/></g><g><path d="m352 64h-192c-8.837 0-16 7.163-16 16v128c0 8.837 7.163 16 16 16h192c8.837 0 16-7.163 16-16v-128c0-8.837-7.163-16-16-16z" fill="#f06423"/></g><g><path d="m256 64h-96c-8.837 0-16 7.163-16 16v128c0 8.837 7.163 16 16 16h96c8.837 0 16-7.163 16-16v-128c0-8.837-7.163-16-16-16z" fill="#faa019"/></g><g><g><circle cx="238.377" cy="150.011" fill="#f06423" r="4"/></g><g><circle cx="230.667" cy="102.667" fill="#f06423" r="4"/></g><g><circle cx="174.667" cy="166.667" fill="#f06423" r="4"/></g><g><circle cx="178.667" cy="194.667" fill="#f06423" r="8"/></g><g><circle cx="250.667" cy="170.667" fill="#f06423" r="8"/></g></g><g><g><circle cx="96.678" cy="276.289" fill="#f06423" r="4"/></g><g><circle cx="49.333" cy="284" fill="#f06423" r="4"/></g><g><circle cx="113.333" cy="340" fill="#f06423" r="4"/></g><g><circle cx="141.333" cy="336" fill="#f06423" r="8"/></g><g><circle cx="117.333" cy="264" fill="#f06423" r="8"/></g></g><g><g><circle cx="302.956" cy="303.322" fill="#f06423" r="4"/></g><g><circle cx="310.667" cy="350.667" fill="#f06423" r="4"/></g><g><circle cx="366.667" cy="286.667" fill="#f06423" r="4"/></g><g><circle cx="362.667" cy="258.667" fill="#f06423" r="8"/></g><g><circle cx="290.667" cy="282.667" fill="#f06423" r="8"/></g></g><g><g><circle cx="331.711" cy="139.344" fill="#d65a0a" r="4"/></g><g><circle cx="324" cy="92" fill="#d65a0a" r="4"/></g><g><circle cx="297.333" cy="166.667" fill="#d65a0a" r="4"/></g><g><circle cx="301.333" cy="194.667" fill="#d65a0a" r="8"/></g><g><circle cx="344" cy="160" fill="#d65a0a" r="8"/></g></g><g><g><circle cx="219.711" cy="303.322" fill="#d65a0a" r="4"/></g><g><circle cx="212" cy="350.667" fill="#d65a0a" r="4"/></g><g><circle cx="185.333" cy="276" fill="#d65a0a" r="4"/></g><g><circle cx="189.333" cy="248" fill="#d65a0a" r="8"/></g><g><circle cx="232" cy="282.667" fill="#d65a0a" r="8"/></g></g><g><g><circle cx="422.956" cy="294.011" fill="#d65a0a" r="4"/></g><g><circle cx="430.667" cy="246.667" fill="#d65a0a" r="4"/></g><g><circle cx="457.333" cy="321.333" fill="#d65a0a" r="4"/></g><g><circle cx="453.333" cy="349.333" fill="#d65a0a" r="8"/></g><g><circle cx="410.667" cy="314.667" fill="#d65a0a" r="8"/></g></g></g></svg>