<svg id="Layer_1" enable-background="new 0 0 512 512" height="512" viewBox="0 0 512 512" width="512" xmlns="http://www.w3.org/2000/svg"><g><g><g><path d="m254.92 208.082h.003l-97.058-168.072h-.017c-2.766-4.783-7.925-8.01-13.848-8.01s-11.082 3.227-13.848 8.01h-.017l-97.058 168.072h.003c-10.862 18.809-17.08 40.637-17.08 63.918 0 70.692 57.308 128 128 128s128-57.308 128-128c0-23.281-6.218-45.109-17.08-63.918z" fill="#f57828"/></g><g><path d="m130.152 40.01h-.017l-97.058 168.072h.003c-10.862 18.809-17.08 40.637-17.08 63.918 0 35.346 28.654 64 64 64 35.346 0 64-28.654 64-64v-240c-5.923 0-11.082 3.227-13.848 8.01z" fill="#faa037"/></g><g><circle cx="196" cy="324" fill="#d65a0a" r="12"/></g><g><circle cx="236" cy="276" fill="#d65a0a" r="4"/></g><g><g><circle cx="96" cy="240" fill="#f57828" r="16"/></g><g><circle cx="72" cy="296" fill="#f57828" r="8"/></g></g></g><g><g><path d="m478.92 208.082h.003l-97.058-168.072h-.017c-2.766-4.783-7.925-8.01-13.848-8.01s-11.082 3.227-13.848 8.01h-.017l-97.058 168.072h.003c-10.862 18.809-17.08 40.637-17.08 63.918 0 70.692 57.308 128 128 128s128-57.308 128-128c0-23.281-6.218-45.109-17.08-63.918z" fill="#f57828"/></g><g><path d="m354.152 40.01h-.017l-97.058 168.072h.003c-10.862 18.809-17.08 40.637-17.08 63.918 0 35.346 28.654 64 64 64 35.346 0 64-28.654 64-64v-240c-5.923 0-11.082 3.227-13.848 8.01z" fill="#faa037"/></g><g><circle cx="420" cy="324" fill="#d65a0a" r="12"/></g><g><circle cx="392" cy="200" fill="#d65a0a" r="8"/></g><g><circle cx="460" cy="276" fill="#d65a0a" r="4"/></g><g><g><circle cx="320" cy="288" fill="#f57828" r="16"/></g><g><circle cx="296" cy="232" fill="#f57828" r="8"/></g></g></g><g><g><path d="m366.92 288.082h.003l-97.058-168.072h-.017c-2.766-4.784-7.925-8.01-13.848-8.01s-11.082 3.227-13.848 8.01h-.017l-97.058 168.072h.003c-10.862 18.809-17.08 40.637-17.08 63.918 0 70.692 57.308 128 128 128s128-57.308 128-128c0-23.281-6.218-45.109-17.08-63.918z" fill="#f57828"/></g><g><path d="m242.152 120.01h-.017l-97.058 168.072h.003c-10.862 18.809-17.08 40.637-17.08 63.918 0 35.346 28.654 64 64 64 35.346 0 64-28.654 64-64v-240c-5.923 0-11.082 3.227-13.848 8.01z" fill="#faa037"/></g><g><circle cx="308" cy="404" fill="#d65a0a" r="12"/></g><g><circle cx="276" cy="276" fill="#d65a0a" r="12"/></g><g><circle cx="348" cy="356" fill="#d65a0a" r="4"/></g><g><g><circle cx="208" cy="368" fill="#f57828" r="16"/></g><g><circle cx="184" cy="312" fill="#f57828" r="8"/></g></g></g><g><circle cx="384" cy="448" fill="#f57828" r="8"/></g><g><circle cx="152" cy="472" fill="#f57828" r="8"/></g><g><circle cx="116" cy="436" fill="#f57828" r="12"/></g></g></svg>