<svg id="Layer_1" enable-background="new 0 0 512 512" height="512" viewBox="0 0 512 512" width="512" xmlns="http://www.w3.org/2000/svg"><g><g><path d="m341.849 125.159c17.373 5.029 27.352 23.232 22.384 40.622l-8.541 29.9-32.045 112.138-5.651 19.766c-3.054 10.707-13.808 17.172-24.74 15.06-12.058-2.33-24.513-3.552-37.256-3.552s-25.198 1.222-37.256 3.552c-10.932 2.113-21.686-4.352-24.74-15.06l-5.651-19.766-32.045-112.139-8.541-29.9c-4.969-17.39 5.011-35.593 22.384-40.622 27.25-7.888 56.052-12.114 85.849-12.114s58.6 4.226 85.849 12.115z" fill="#faa037"/></g><g><path d="m322.446 174.465c-.984 0-1.984-.122-2.982-.377-20.606-5.271-41.958-7.943-63.464-7.943s-42.857 2.673-63.464 7.943c-6.418 1.641-12.957-2.231-14.6-8.652-1.642-6.421 2.231-12.957 8.652-14.6 22.548-5.768 45.901-8.692 69.411-8.692s46.863 2.924 69.411 8.692c6.421 1.642 10.294 8.179 8.652 14.6-1.386 5.423-6.265 9.029-11.616 9.029z" fill="#ffbe55"/></g><g><path d="m452.92 225.894c13.803 13.913 15.174 35.909 3.414 51.587l-53.648 71.526c-6.622 8.826-18.973 11.023-28.189 4.954-17.262-11.368-36.256-20.318-56.502-26.377l5.651-19.766 32.045-112.138 8.541-29.9c33.431 14.178 63.497 34.723 88.688 60.114z" fill="#f57828"/></g><g><path d="m422.714 265.81c-3.063 0-6.126-1.165-8.468-3.498-9.687-9.647-20.241-18.418-31.372-26.07-5.462-3.755-6.846-11.226-3.091-16.687 3.755-5.462 11.227-6.845 16.687-3.091 12.322 8.471 24.002 18.175 34.712 28.843 4.696 4.677 4.712 12.275.035 16.97-2.345 2.355-5.424 3.533-8.503 3.533z" fill="#faa037"/></g><g><path d="m194.004 327.584c-20.246 6.059-39.24 15.009-56.502 26.377-9.215 6.069-21.567 3.872-28.189-4.954l-53.648-71.526-.001-.002c-11.759-15.676-10.388-37.672 3.414-51.583 25.191-25.392 55.258-45.938 88.689-60.115l8.541 29.9 32.045 112.138z" fill="#f57828"/></g><g><path d="m89.286 265.81c-3.079 0-6.157-1.177-8.502-3.532-4.677-4.696-4.662-12.294.034-16.97 10.711-10.668 22.39-20.373 34.712-28.843 5.463-3.753 12.934-2.371 16.687 3.091 3.755 5.461 2.371 12.932-3.091 16.687-11.131 7.651-21.686 16.422-31.372 26.07-2.341 2.331-5.405 3.497-8.468 3.497z" fill="#faa037"/></g><g><path d="m482.256 393.754c-13.268 8.846-31.183 6.188-41.099-6.301-11.305-14.238-24.215-27.144-38.47-38.446l53.648-71.526c17.751 24.67 31.051 52.762 38.726 83.088 3.2 12.649-1.949 25.947-12.805 33.185z" fill="#d65a0a"/></g><g><path d="m109.313 349.007c-14.255 11.302-27.165 24.208-38.47 38.446-9.916 12.489-27.831 15.148-41.099 6.301-10.856-7.239-16.006-20.536-12.804-33.185 7.675-30.326 20.975-58.418 38.726-83.088z" fill="#d65a0a"/></g><g><circle cx="281.687" cy="200.381" fill="#f57828" r="15.412"/></g><g><circle cx="363.886" cy="303.13" fill="#d65a0a" r="15.412"/></g><g><circle cx="256" cy="246.618" fill="#f57828" r="10.275"/></g><g><circle cx="132.701" cy="277.443" fill="#d65a0a" r="10.275"/></g><g><circle cx="220.038" cy="303.13" fill="#f57828" r="5.137"/></g></g></svg>