<svg id="Layer_1" enable-background="new 0 0 512 512" height="512" viewBox="0 0 512 512" width="512" xmlns="http://www.w3.org/2000/svg"><g><g><g><path d="m472 288h-144c-4.418 0-8-3.582-8-8v-16c0-4.418 3.582-8 8-8h144c4.418 0 8 3.582 8 8v16c0 4.418-3.582 8-8 8z" fill="#91c83c"/></g><g><path d="m472 288h-64c-4.418 0-8-3.582-8-8v-16c0-4.418 3.582-8 8-8h64c4.418 0 8 3.582 8 8v16c0 4.418-3.582 8-8 8z" fill="#5faa46"/></g></g><g><g><path d="m184 288h-144c-4.418 0-8-3.582-8-8v-16c0-4.418 3.582-8 8-8h144c4.418 0 8 3.582 8 8v16c0 4.418-3.582 8-8 8z" fill="#91c83c"/></g><g><path d="m184 288h-64c-4.418 0-8-3.582-8-8v-16c0-4.418 3.582-8 8-8h64c4.418 0 8 3.582 8 8v16c0 4.418-3.582 8-8 8z" fill="#5faa46"/></g></g><g><g><path d="m328 288h-144c-4.418 0-8-3.582-8-8v-16c0-4.418 3.582-8 8-8h144c4.418 0 8 3.582 8 8v16c0 4.418-3.582 8-8 8z" fill="#91c83c"/></g><g><path d="m328 288h-64c-4.418 0-8-3.582-8-8v-16c0-4.418 3.582-8 8-8h64c4.418 0 8 3.582 8 8v16c0 4.418-3.582 8-8 8z" fill="#5faa46"/></g></g><g><path d="m480 256h-448c-8.837 0-16-7.163-16-16v-16c0-88.366 71.634-160 160-160h160c88.366 0 160 71.634 160 160v16c0 8.837-7.163 16-16 16z" fill="#d26e28"/></g><g><path d="m232 80c-4.418 0-8 3.582-8 8v104h16v-104c0-4.418-3.582-8-8-8z" fill="#a55023"/></g><g><path d="m184 80c-4.418 0-8 3.582-8 8v104h16v-104c0-4.418-3.582-8-8-8z" fill="#a55023"/></g><g><path d="m136 80c-4.418 0-8 3.582-8 8v104h16v-104c0-4.418-3.582-8-8-8z" fill="#a55023"/></g><g><path d="m88 120c-4.418 0-8 3.582-8 8v64h16v-64c0-4.418-3.582-8-8-8z" fill="#a55023"/></g><g><path d="m328 80c4.418 0 8 3.582 8 8v104h-16v-104c0-4.418 3.582-8 8-8z" fill="#a55023"/></g><g><path d="m376 80c4.418 0 8 3.582 8 8v104h-16v-104c0-4.418 3.582-8 8-8z" fill="#a55023"/></g><g><path d="m424 120c4.418 0 8 3.582 8 8v64h-16v-64c0-4.418 3.582-8 8-8z" fill="#a55023"/></g><g><path d="m280 80c-4.418 0-8 3.582-8 8v104h16v-104c0-4.418-3.582-8-8-8z" fill="#a55023"/></g><g><path d="m480 256h-448c-8.837 0-16-7.163-16-16v-16c0-17.673 14.327-32 32-32h416c17.673 0 32 14.327 32 32v16c0 8.837-7.163 16-16 16z" fill="#fab991"/></g><g><circle cx="72" cy="234.667" fill="#f0915a" r="8"/></g><g><circle cx="184" cy="218.667" fill="#f0915a" r="8"/></g><g><circle cx="328" cy="218.667" fill="#f0915a" r="8"/></g><g><circle cx="284" cy="230.667" fill="#f0915a" r="4"/></g><g><circle cx="452" cy="222.667" fill="#f0915a" r="4"/></g><g><g><path d="m480 384h-448c-8.837 0-16 7.163-16 16v16c0 17.673 14.327 32 32 32h416c17.673 0 32-14.327 32-32v-16c0-8.837-7.163-16-16-16z" fill="#fab991"/></g><g><circle cx="72" cy="405.333" fill="#f0915a" r="8"/></g><g><circle cx="184" cy="421.333" fill="#f0915a" r="8"/></g><g><circle cx="328" cy="421.333" fill="#f0915a" r="8"/></g><g><circle cx="284" cy="409.333" fill="#f0915a" r="4"/></g><g><circle cx="452" cy="417.333" fill="#f0915a" r="4"/></g></g><g><g><g><path d="m32 368c0 8.837 7.163 16 16 16h416c8.837 0 16-7.163 16-16 0-8.837-7.163-16-16-16h-416c-8.837 0-16 7.163-16 16z" fill="#faa019"/></g><g><path d="m256 352h-208c-8.837 0-16 7.163-16 16 0 8.837 7.163 16 16 16h208c8.837 0 16-7.163 16-16 0-8.837-7.163-16-16-16z" fill="#ffd205"/></g></g><g><path d="m320 400v56c0 8.837 7.163 16 16 16 8.837 0 16-7.163 16-16v-48c0-4.418 3.582-8 8-8 4.418 0 8 3.582 8 8 0 8.837 7.163 16 16 16 8.837 0 16-7.163 16-16v-8c0-8.837 7.163-16 16-16h-112c8.837 0 16 7.163 16 16z" fill="#faa019"/></g></g><g><path d="m480 320h-448c-8.837 0-16-7.163-16-16 0-8.837 7.163-16 16-16h448c8.837 0 16 7.163 16 16 0 8.837-7.163 16-16 16z" fill="#f5826e"/></g><g><path d="m480 308h-448c-2.209 0-4-1.791-4-4s1.791-4 4-4h448c2.209 0 4 1.791 4 4s-1.791 4-4 4z" fill="#f04b37"/></g><g><path d="m480 352h-448c-8.837 0-16-7.163-16-16 0-8.837 7.163-16 16-16h448c8.837 0 16 7.163 16 16 0 8.837-7.163 16-16 16z" fill="#f5826e"/></g><g><path d="m480 340h-448c-2.209 0-4-1.791-4-4s1.791-4 4-4h448c2.209 0 4 1.791 4 4s-1.791 4-4 4z" fill="#f04b37"/></g></g></svg>