<svg id="Layer_1" enable-background="new 0 0 512 512" height="512" viewBox="0 0 512 512" width="512" xmlns="http://www.w3.org/2000/svg"><g><g><circle cx="256" cy="256" fill="#a5c3dc" r="240"/></g><g><g><circle cx="256" cy="256" fill="#8caac8" r="200"/></g></g><path d="m433.918 263.768c3.492-.859 6.082-4.011 6.082-7.768s-2.59-6.909-6.082-7.768c3.404-1.16 5.709-4.526 5.382-8.269s-3.183-6.657-6.736-7.208c3.29-1.453 5.293-5.006 4.641-8.706s-3.75-6.354-7.339-6.594c3.151-1.734 4.837-5.448 3.865-9.078-.973-3.629-4.29-6.003-7.886-5.929 2.988-2.002 4.344-5.849 3.059-9.38s-4.797-5.606-8.372-5.219c2.802-2.255 3.818-6.206 2.23-9.611s-5.268-5.167-8.795-4.47c2.594-2.49 3.262-6.515 1.383-9.769-1.878-3.254-5.698-4.688-9.151-3.686 2.368-2.707 2.682-6.774.527-9.852s-6.085-4.174-9.438-2.875c2.123-2.903 2.081-6.982-.334-9.86s-6.425-3.627-9.652-2.041c1.862-3.077 1.465-7.137-1.192-9.794s-6.717-3.054-9.794-1.192c1.586-3.227.837-7.237-2.041-9.652s-6.958-2.457-9.86-.334c1.299-3.353.203-7.283-2.875-9.438s-7.145-1.841-9.852.527c1.002-3.454-.432-7.273-3.686-9.151-3.254-1.879-7.278-1.211-9.769 1.383.697-3.528-1.064-7.208-4.47-8.795s-7.356-.572-9.611 2.23c.387-3.575-1.688-7.087-5.219-8.372s-7.378.071-9.38 3.059c.074-3.595-2.3-6.913-5.929-7.886-3.629-.972-7.344.714-9.077 3.865-.24-3.588-2.894-6.687-6.594-7.339s-7.253 1.351-8.706 4.641c-.552-3.553-3.466-6.409-7.208-6.736-3.743-.328-7.108 1.978-8.269 5.382-.861-3.493-4.013-6.083-7.77-6.083s-6.909 2.59-7.768 6.082c-1.16-3.404-4.526-5.71-8.269-5.382-3.743.327-6.657 3.183-7.208 6.736-1.453-3.29-5.006-5.293-8.706-4.641s-6.354 3.75-6.594 7.339c-1.734-3.151-5.448-4.837-9.077-3.865-3.629.973-6.003 4.29-5.929 7.886-2.002-2.988-5.849-4.344-9.38-3.059s-5.606 4.797-5.219 8.372c-2.255-2.802-6.206-3.818-9.611-2.23s-5.167 5.268-4.47 8.795c-2.49-2.594-6.515-3.262-9.769-1.383-3.254 1.878-4.688 5.698-3.686 9.151-2.707-2.368-6.774-2.682-9.852-.527s-4.174 6.085-2.875 9.438c-2.903-2.123-6.982-2.081-9.86.334s-3.627 6.425-2.041 9.652c-3.077-1.862-7.137-1.465-9.794 1.192s-3.054 6.717-1.192 9.794c-3.227-1.586-7.237-.837-9.652 2.041s-2.457 6.958-.334 9.86c-3.353-1.299-7.283-.203-9.438 2.875s-1.841 7.145.527 9.852c-3.454-1.002-7.273.432-9.151 3.686-1.879 3.254-1.211 7.278 1.383 9.769-3.528-.697-7.208 1.064-8.795 4.47s-.572 7.356 2.23 9.611c-3.575-.387-7.087 1.688-8.372 5.219s.071 7.378 3.059 9.38c-3.595-.074-6.913 2.3-7.886 5.929-.972 3.629.714 7.344 3.865 9.078-3.588.24-6.687 2.894-7.339 6.594s1.351 7.253 4.641 8.706c-3.554.552-6.409 3.466-6.736 7.208-.327 3.743 1.978 7.108 5.382 8.269-3.494.86-6.084 4.012-6.084 7.769s2.59 6.909 6.082 7.768c-3.404 1.16-5.709 4.526-5.382 8.269s3.183 6.657 6.736 7.208c-3.29 1.452-5.293 5.006-4.641 8.706s3.75 6.354 7.339 6.594c-3.151 1.734-4.837 5.448-3.865 9.077.973 3.629 4.29 6.003 7.886 5.929-2.988 2.002-4.344 5.849-3.059 9.38s4.797 5.606 8.372 5.219c-2.802 2.255-3.817 6.206-2.229 9.611s5.268 5.167 8.795 4.47c-2.594 2.49-3.262 6.515-1.383 9.769 1.878 3.254 5.698 4.688 9.151 3.686-2.368 2.707-2.682 6.774-.527 9.852s6.085 4.174 9.438 2.875c-2.123 2.903-2.081 6.982.334 9.86s6.425 3.627 9.652 2.041c-1.862 3.077-1.465 7.137 1.192 9.794s6.717 3.054 9.794 1.192c-1.586 3.227-.837 7.238 2.041 9.653s6.958 2.457 9.86.334c-1.299 3.353-.203 7.283 2.875 9.438s7.145 1.841 9.852-.527c-1.002 3.454.432 7.273 3.686 9.151 3.254 1.879 7.278 1.211 9.769-1.383-.697 3.528 1.064 7.208 4.47 8.795s7.356.572 9.611-2.23c-.387 3.575 1.688 7.087 5.219 8.372s7.378-.071 9.38-3.059c-.074 3.595 2.3 6.913 5.929 7.886 3.629.972 7.344-.714 9.077-3.865.24 3.588 2.894 6.687 6.594 7.339s7.253-1.351 8.706-4.641c.552 3.554 3.466 6.409 7.208 6.736 3.743.327 7.108-1.978 8.269-5.382.86 3.493 4.012 6.083 7.769 6.083s6.909-2.59 7.768-6.082c1.16 3.404 4.526 5.709 8.269 5.382s6.657-3.183 7.208-6.736c1.453 3.29 5.006 5.293 8.706 4.641s6.354-3.75 6.594-7.339c1.734 3.151 5.448 4.837 9.077 3.865 3.629-.973 6.003-4.29 5.929-7.886 2.002 2.988 5.849 4.344 9.38 3.059s5.606-4.797 5.219-8.372c2.255 2.802 6.206 3.818 9.611 2.23s5.167-5.268 4.47-8.795c2.49 2.594 6.515 3.262 9.769 1.383 3.254-1.878 4.688-5.698 3.686-9.151 2.707 2.368 6.774 2.682 9.852.527s4.174-6.084 2.875-9.438c2.903 2.123 6.982 2.081 9.86-.334s3.627-6.425 2.041-9.653c3.077 1.862 7.137 1.465 9.794-1.192s3.054-6.717 1.192-9.794c3.227 1.586 7.237.837 9.652-2.041s2.457-6.958.334-9.86c3.353 1.299 7.283.203 9.438-2.875s1.841-7.145-.527-9.852c3.454 1.002 7.273-.432 9.151-3.686 1.879-3.254 1.211-7.278-1.383-9.769 3.528.697 7.208-1.064 8.795-4.47 1.588-3.405.572-7.356-2.229-9.611 3.575.387 7.087-1.688 8.372-5.219s-.071-7.378-3.059-9.38c3.595.074 6.913-2.3 7.886-5.929.972-3.629-.714-7.344-3.865-9.077 3.588-.24 6.686-2.894 7.339-6.594.652-3.7-1.351-7.254-4.641-8.706 3.553-.552 6.409-3.466 6.736-7.208.328-3.744-1.977-7.11-5.381-8.27z" fill="#d7e6f0"/><g><circle cx="386.667" cy="309.333" fill="#a5c3dc" r="8"/></g><g><circle cx="250.667" cy="381.333" fill="#a5c3dc" r="8"/></g><g><circle cx="370.667" cy="341.333" fill="#a5c3dc" r="8"/></g><g><circle cx="312" cy="354.667" fill="#a5c3dc" r="8"/></g><g><circle cx="362.667" cy="301.333" fill="#a5c3dc" r="8"/></g><g><circle cx="330.667" cy="373.333" fill="#a5c3dc" r="8"/></g><g><circle cx="181.333" cy="376" fill="#a5c3dc" r="8"/></g><g><circle cx="258.667" cy="317.333" fill="#a5c3dc" r="8"/></g><g><circle cx="336" cy="280" fill="#a5c3dc" r="8"/></g><g><circle cx="378.667" cy="221.333" fill="#a5c3dc" r="8"/></g><path d="m406.752 150.503.018-.018c-6.06-8.638-12.944-16.874-20.662-24.593-71.856-71.856-188.359-71.856-260.215 0s-71.856 188.359 0 260.215c7.719 7.719 15.955 14.602 24.593 20.662l.018-.018c3.616 2.499 8.576 1.613 11.101-1.993 1.973-2.817 1.876-6.465.03-9.138l1.142-1.142c3.553 2.455 8.435 1.635 10.986-1.878 2.043-2.813 1.98-6.512.111-9.219l1.174-1.174c3.492 2.412 8.297 1.657 10.873-1.765 2.114-2.808 2.086-6.561.195-9.303l1.201-1.201c3.434 2.37 8.162 1.678 10.762-1.653 2.186-2.802 2.195-6.61.28-9.388l1.225-1.225c3.376 2.33 8.031 1.698 10.653-1.544 2.26-2.794 2.307-6.659.366-9.475l1.247-1.247c3.321 2.29 7.901 1.718 10.544-1.436 2.335-2.786 2.422-6.708.455-9.563l1.264-1.264c3.268 2.252 7.776 1.737 10.439-1.33 2.411-2.777 2.539-6.759.546-9.654l1.277-1.278c3.216 2.216 7.653 1.755 10.335-1.226 2.489-2.767 2.659-6.809.637-9.746l1.289-1.289c3.165 2.18 7.533 1.772 10.232-1.124 2.568-2.755 2.782-6.86.731-9.839l1.295-1.296c3.116 2.146 7.417 1.789 10.131-1.023 2.648-2.743 2.908-6.912.827-9.935l1.299-1.299c3.069 2.113 7.303 1.806 10.032-.924s3.037-6.963.924-10.032l1.299-1.299c3.023 2.082 7.192 1.821 9.935-.827 2.812-2.715 3.169-7.015 1.023-10.131l1.296-1.295c2.979 2.051 7.084 1.837 9.839-.731 2.896-2.698 3.304-7.067 1.124-10.232l1.288-1.289c2.937 2.022 6.979 1.852 9.746-.637 2.981-2.681 3.442-7.119 1.226-10.335l1.278-1.277c2.895 1.993 6.877 1.865 9.654-.546 3.067-2.663 3.583-7.171 1.33-10.438l1.264-1.264c2.855 1.967 6.777 1.88 9.563-.455 3.154-2.643 3.727-7.223 1.436-10.544l1.247-1.247c2.816 1.94 6.68 1.893 9.475-.366 3.243-2.622 3.874-7.276 1.544-10.653l1.225-1.225c2.778 1.916 6.586 1.906 9.388-.28 3.332-2.6 4.023-7.328 1.653-10.762l1.201-1.201c2.742 1.892 6.495 1.919 9.303-.195 3.422-2.576 4.177-7.381 1.765-10.873l1.174-1.174c2.707 1.869 6.406 1.932 9.219-.111 3.513-2.551 4.333-7.433 1.878-10.986l1.142-1.142c2.673 1.847 6.32 1.943 9.138-.03 3.605-2.524 4.491-7.484 1.992-11.1z" fill="#f06423"/><g><path d="m80.082 264c-4.418 0-8-3.582-8-8 0-49.201 19.11-95.407 53.811-130.107 34.753-34.754 80.959-53.893 130.107-53.893 4.418 0 8 3.582 8 8s-3.582 8-8 8c-44.874 0-87.063 17.475-118.793 49.206-31.679 31.679-49.125 73.867-49.125 118.794 0 4.418-3.582 8-8 8z" fill="#faa019"/></g><g><g><path d="m234.343 160.971-11.314-11.314c-3.124-3.124-3.124-8.19 0-11.314l11.314-11.314c3.124-3.124 8.19-3.124 11.314 0l11.314 11.314c3.124 3.124 3.124 8.19 0 11.314l-11.314 11.314c-3.124 3.124-8.19 3.124-11.314 0z" fill="#ffd205"/></g><g><path d="m245.657 149.657c-3.124-3.124-8.19-3.124-11.314 0l-5.657 5.657 5.657 5.657c3.124 3.124 8.19 3.124 11.314 0l5.657-5.657z" fill="#faa019"/></g></g><g><g><path d="m272.324 234.99-11.314-11.314c-3.124-3.124-3.124-8.19 0-11.314l11.314-11.314c3.124-3.124 8.19-3.124 11.314 0l11.314 11.314c3.124 3.124 3.124 8.19 0 11.314l-11.314 11.314c-3.125 3.124-8.19 3.124-11.314 0z" fill="#ffd205"/></g><g><path d="m283.637 223.676c-3.124-3.124-8.19-3.124-11.314 0l-5.657 5.657 5.657 5.657c3.124 3.124 8.19 3.124 11.314 0l5.657-5.657z" fill="#faa019"/></g></g><g><g><path d="m130.99 254.951-11.314-11.314c-3.124-3.124-3.124-8.19 0-11.314l11.314-11.314c3.124-3.124 8.19-3.124 11.314 0l11.314 11.314c3.124 3.124 3.124 8.19 0 11.314l-11.314 11.314c-3.124 3.124-8.19 3.124-11.314 0z" fill="#ffd205"/></g><g><path d="m142.304 243.637c-3.124-3.124-8.19-3.124-11.314 0l-5.657 5.657 5.657 5.657c3.124 3.124 8.19 3.124 11.314 0l5.657-5.657z" fill="#faa019"/></g></g><g><g><path d="m200 226.667h-16c-4.418 0-8-3.582-8-8v-16c0-4.418 3.582-8 8-8h16c4.418 0 8 3.582 8 8v16c0 4.418-3.582 8-8 8z" fill="#faa019"/></g><g><path d="m200 210.667c-4.418 0-8 3.582-8 8v8h8c4.418 0 8-3.582 8-8v-8z" fill="#faa019"/></g></g><g><g><path d="m205.01 288.971-11.314-11.314c-3.124-3.124-3.124-8.19 0-11.314l11.314-11.314c3.124-3.124 8.19-3.124 11.314 0l11.314 11.314c3.124 3.124 3.124 8.19 0 11.314l-11.314 11.314c-3.125 3.124-8.19 3.124-11.314 0z" fill="#ffd205"/></g><g><path d="m216.324 277.657c-3.124-3.124-8.19-3.124-11.314 0l-5.657 5.657 5.657 5.657c3.124 3.124 8.19 3.124 11.314 0l5.657-5.657z" fill="#faa019"/></g></g><g><g><path d="m322.667 197.333h-16c-4.418 0-8-3.582-8-8v-16c0-4.418 3.582-8 8-8h16c4.418 0 8 3.582 8 8v16c0 4.419-3.582 8-8 8z" fill="#faa019"/></g><g><path d="m322.667 181.333c-4.418 0-8 3.582-8 8v8h8c4.418 0 8-3.582 8-8v-8z" fill="#faa019"/></g></g><g><g><path d="m186.667 165.333h-16c-4.418 0-8-3.582-8-8v-16c0-4.418 3.582-8 8-8h16c4.418 0 8 3.582 8 8v16c0 4.419-3.582 8-8 8z" fill="#faa019"/></g><g><path d="m186.667 149.333c-4.418 0-8 3.582-8 8v8h8c4.418 0 8-3.582 8-8v-8z" fill="#faa019"/></g></g><g><g><path d="m312 130.667h-16c-4.418 0-8-3.582-8-8v-16c0-4.418 3.582-8 8-8h16c4.418 0 8 3.582 8 8v16c0 4.418-3.582 8-8 8z" fill="#faa019"/></g><g><path d="m312 114.667c-4.418 0-8 3.582-8 8v8h8c4.418 0 8-3.582 8-8v-8z" fill="#faa019"/></g></g><g><g><path d="m133.01 320.971-11.314-11.314c-3.124-3.124-3.124-8.19 0-11.314l11.314-11.314c3.124-3.124 8.19-3.124 11.314 0l11.314 11.314c3.124 3.124 3.124 8.19 0 11.314l-11.314 11.314c-3.125 3.124-8.19 3.124-11.314 0z" fill="#faa019"/></g><g><path d="m144.324 309.657c-3.124-3.124-8.19-3.124-11.314 0l-5.657 5.657 5.657 5.657c3.124 3.124 8.19 3.124 11.314 0l5.657-5.657z" fill="#faa019"/></g></g><g><path d="m313.333 122.667h-4c-13.255 0-24 10.745-24 24v4c0 2.209 1.791 4 4 4h4c13.255 0 24-10.745 24-24v-4c0-2.209-1.791-4-4-4z" fill="#91c83c"/></g><g><path d="m182.667 309.333h-4c-13.255 0-24 10.745-24 24v4c0 2.209 1.791 4 4 4h4c13.255 0 24-10.745 24-24v-4c0-2.209-1.791-4-4-4z" fill="#91c83c"/></g><g><path d="m145.333 168h-4c-13.255 0-24 10.745-24 24v4c0 2.209 1.791 4 4 4h4c13.255 0 24-10.745 24-24v-4c0-2.209-1.791-4-4-4z" fill="#91c83c"/></g><g><path d="m242.667 228v-4c0-13.255-10.745-24-24-24h-4c-2.209 0-4 1.791-4 4v4c0 13.255 10.745 24 24 24h4c2.209 0 4-1.791 4-4z" fill="#5faa46"/></g><g><path d="m125.333 300v-4c0-13.255-10.745-24-24-24h-4c-2.209 0-4 1.791-4 4v4c0 13.255 10.745 24 24 24h4c2.209 0 4-1.791 4-4z" fill="#5faa46"/></g></g></svg>