<svg id="Layer_1" enable-background="new 0 0 512 512" height="512" viewBox="0 0 512 512" width="512" xmlns="http://www.w3.org/2000/svg"><g><g><path d="m260.049 496h-8.098c-90.548 0-163.951-73.403-163.951-163.951v-44.049h336v44.049c0 90.548-73.403 163.951-163.951 163.951z" fill="#9bd2f0"/></g><g><path d="m256 16c-75.6 0-168 144-168 272 0 88.366 75.216 160 168 160s168-71.634 168-160c0-128-92.4-272-168-272z" fill="#d7e6f0"/></g><g><circle cx="256" cy="280" fill="#f06423" r="112"/></g><g><path d="m256 392c-61.757 0-112-50.243-112-112s50.243-112 112-112c8.837 0 16 7.164 16 16s-7.163 16-16 16c-44.112 0-80 35.888-80 80s35.888 80 80 80c8.837 0 16 7.164 16 16s-7.163 16-16 16z" fill="#faa019"/></g><g><circle cx="256" cy="264" fill="#faa019" r="96"/></g><g><circle cx="256" cy="240" fill="#f06423" r="72"/></g><g><path d="m256 136v.215c0 15.791-8.924 30.026-22.813 37.542-15.51 8.393-25.875 25.079-25.152 44.113.945 24.878 21.216 45.15 46.094 46.095 27.362 1.039 49.871-20.834 49.871-47.965v-32c0-26.51-21.49-48-48-48z" fill="#faa019"/></g><g><g><circle cx="326.667" cy="228" fill="#f04b37" r="4"/></g><g><circle cx="295.295" cy="220.257" fill="#f04b37" r="4"/></g><g><circle cx="261.828" cy="170.987" fill="#f04b37" r="4"/></g><g><circle cx="208.93" cy="213.957" fill="#f04b37" r="4"/></g><g><circle cx="228.001" cy="204.001" fill="#f04b37" r="4"/></g><g><circle cx="240.54" cy="175.379" fill="#f04b37" r="4"/></g><g><circle cx="185.932" cy="307.559" fill="#f04b37" r="4"/></g><g><circle cx="180" cy="276" fill="#f04b37" r="4"/></g><g><circle cx="177.049" cy="239.805" fill="#f04b37" r="4"/></g><g><circle cx="313.882" cy="319.97" fill="#f04b37" r="4"/></g><g><circle cx="263.458" cy="292.559" fill="#f04b37" r="4"/></g><g><circle cx="271.711" cy="252.149" fill="#f04b37" r="4"/></g><g><circle cx="348" cy="284" fill="#f04b37" r="4"/></g><g><circle cx="310.124" cy="265.265" fill="#f04b37" r="4"/></g><g><circle cx="354.226" cy="245.291" fill="#f04b37" r="4"/></g><g><circle cx="273.332" cy="321.334" fill="#f04b37" r="4"/></g><g><circle cx="203.999" cy="345.332" fill="#f04b37" r="4"/></g><g><circle cx="223.784" cy="299.536" fill="#f04b37" r="4"/></g><g><circle cx="273.333" cy="358.667" fill="#f04b37" r="4"/></g><g><circle cx="286.89" cy="343.897" fill="#f04b37" r="4"/></g><g><circle cx="337.333" cy="334.666" fill="#f04b37" r="4"/></g></g><g><circle cx="320" cy="248" fill="#5faa46" r="8"/></g><g><circle cx="280" cy="208" fill="#5faa46" r="8"/></g><g><circle cx="216" cy="288" fill="#5faa46" r="8"/></g><g><circle cx="216" cy="240" fill="#5faa46" r="8"/></g><g><circle cx="312" cy="336" fill="#5faa46" r="8"/></g><g><circle cx="184" cy="336" fill="#5faa46" r="8"/></g></g></svg>