<svg id="Layer_1" enable-background="new 0 0 512 512" height="512" viewBox="0 0 512 512" width="512" xmlns="http://www.w3.org/2000/svg"><g><g><path d="m178.667 128h301.333v-16h-301.333c-4.418 0-8 3.582-8 8 0 4.418 3.581 8 8 8z" fill="#737079"/></g><g><path d="m170.667 120h309.333v-8h-301.333c-4.419 0-8 3.582-8 8z" fill="#96aab9"/></g><g><g><path d="m296 224c-17.673 0-32-14.327-32-32 0-4.418-3.582-8-8-8h-16c-4.418 0-8 3.582-8 8 0 17.673-14.327 32-32 32-22.091 0-40 17.909-40 40v8c0 26.51 21.49 48 48 48h80c26.51 0 48-21.49 48-48v-8c0-22.091-17.909-40-40-40z" fill="#f0915a"/></g></g><g><g><path d="m184 224c-17.673 0-32-14.327-32-32 0-4.418-3.582-8-8-8h-16c-4.418 0-8 3.582-8 8 0 17.673-14.327 32-32 32-22.091 0-40 17.909-40 40v8c0 26.51 21.49 48 48 48h80c26.51 0 48-21.49 48-48v-8c0-22.091-17.909-40-40-40z" fill="#f0915a"/></g><g><path d="m208 272v-8c0-22.091-17.909-40-40-40-17.673 0-32-14.327-32-32 0-4.418-3.582-8-8-8s-8 3.582-8 8c0 17.673-14.327 32-32 32-22.091 0-40 17.909-40 40v8c0 26.51 21.49 48 48 48h64c26.51 0 48-21.49 48-48z" fill="#fab991"/></g><g><path d="m64 280c-4.418 0-8-3.582-8-8v-8c0-17.645 14.355-32 32-32 13.349 0 25.779-6.65 33.249-17.789 2.461-3.669 7.43-4.649 11.1-2.188 3.669 2.461 4.649 7.431 2.188 11.1-10.447 15.577-27.844 24.877-46.537 24.877-8.822 0-16 7.178-16 16v8c0 4.418-3.582 8-8 8z" fill="#fadcbe"/></g></g><g><g><path d="m408 224c-17.673 0-32-14.327-32-32 0-4.418-3.582-8-8-8h-16c-4.418 0-8 3.582-8 8 0 17.673-14.327 32-32 32-22.091 0-40 17.909-40 40v8c0 26.51 21.49 48 48 48h80c26.51 0 48-21.49 48-48v-8c0-22.091-17.909-40-40-40z" fill="#f0915a"/></g><g><path d="m432 272v-8c0-22.091-17.909-40-40-40-17.673 0-32-14.327-32-32 0-4.418-3.582-8-8-8s-8 3.582-8 8c0 17.673-14.327 32-32 32-22.091 0-40 17.909-40 40v8c0 26.51 21.49 48 48 48h64c26.51 0 48-21.49 48-48z" fill="#fab991"/></g><g><path d="m288 280c-4.418 0-8-3.582-8-8v-8c0-17.645 14.355-32 32-32 13.349 0 25.779-6.65 33.249-17.789 2.461-3.669 7.431-4.649 11.1-2.188s4.649 7.431 2.188 11.1c-10.447 15.577-27.844 24.877-46.537 24.877-8.822 0-16 7.178-16 16v8c0 4.418-3.582 8-8 8z" fill="#fadcbe"/></g></g><g><g><path d="m301.333 56c-17.673 0-32-14.327-32-32 0-4.418-3.582-8-8-8h-16c-4.418 0-8 3.582-8 8 0 17.673-14.327 32-32 32-22.091 0-40 17.909-40 40v8c0 26.51 21.49 48 48 48h80c26.51 0 48-21.49 48-48v-8c0-22.091-17.908-40-40-40z" fill="#f0915a"/></g><g><path d="m253.333 24c0-4.418-3.582-8-8-8s-8 3.582-8 8c0 17.673-14.327 32-32 32-20.788 0-37.867 15.859-39.811 36.138 2.1 24.571 22.696 43.862 47.811 43.862h64c25.115 0 45.711-19.292 47.811-43.862-1.944-20.279-19.023-36.138-39.811-36.138-17.673 0-32-14.327-32-32z" fill="#fab991"/></g><g><path d="m181.333 112c-4.418 0-8-3.582-8-8v-8c0-17.645 14.355-32 32-32 13.349 0 25.778-6.65 33.249-17.789 2.461-3.669 7.43-4.648 11.1-2.188 3.669 2.461 4.649 7.431 2.188 11.1-10.447 15.577-27.844 24.877-46.537 24.877-8.822 0-16 7.178-16 16v8c0 4.418-3.581 8-8 8z" fill="#fadcbe"/></g></g><g><path d="m464 320h-432c-8.837 0-16 7.163-16 16v96c0 8.837 7.163 16 16 16h432c8.837 0 16-7.163 16-16v-96c0-8.837-7.163-16-16-16z" fill="#faa019"/></g><g><path d="m480 336h-224c-4.418 0-8 3.582-8 8v104h216c8.837 0 16-7.163 16-16z" fill="#f06423"/></g><g><path d="m464 320h-432v-16c0-8.837 7.163-16 16-16h400c8.837 0 16 7.163 16 16z" fill="#f57828"/></g><g><path d="m464 320h-216v-32h200c8.837 0 16 7.163 16 16z" fill="#d65a0a"/></g><g><path d="m178.667 96h301.333v-16h-301.333c-4.418 0-8 3.582-8 8 0 4.418 3.581 8 8 8z" fill="#737079"/></g><g><path d="m170.667 88h309.333v-8h-301.333c-4.419 0-8 3.582-8 8z" fill="#96aab9"/></g><g><path d="m352 464h112c17.673 0 32-14.327 32-32v-64c0-8.837-7.163-16-16-16h-144c-8.837 0-16 7.163-16 16v64c0 17.673 14.327 32 32 32z" fill="#a5c3dc"/></g><g><path d="m320 368v64h88v-48c0-8.837 7.163-16 16-16h72c0-8.837-7.163-16-16-16h-144c-8.837 0-16 7.163-16 16z" fill="#d7e6f0"/></g></g></svg>