<svg id="Layer_1" enable-background="new 0 0 512 512" height="512" viewBox="0 0 512 512" width="512" xmlns="http://www.w3.org/2000/svg"><g><g><path d="m464 224c0-114.875-93.125-208-208-208s-208 93.125-208 208v64c0 114.875 93.125 208 208 208s208-93.125 208-208c0-10.883 0-53.117 0-64z" fill="#f5871e"/></g><g><path d="m464 224c0-114.875-93.125-208-208-208s-208 93.125-208 208v29.333c0 114.875 93.125 208 208 208s208-93.125 208-208c0-10.882 0-18.45 0-29.333z" fill="#faa019"/></g><g><circle cx="256" cy="224" fill="#8c3c14" r="208"/></g><g><path d="m64 240c-8.836 0-16-7.163-16-16 0-114.691 93.309-208 208-208 8.836 0 16 7.163 16 16s-7.164 16-16 16c-97.047 0-176 78.953-176 176 0 8.837-7.164 16-16 16z" fill="#d26e28"/></g><g><circle cx="256" cy="224" fill="#f5871e" r="42.667"/></g><g><path d="m256 208c18.908 0 34.942 12.299 40.541 29.333 1.379-4.194 2.125-8.677 2.125-13.333 0-23.564-19.103-42.667-42.667-42.667s-42.666 19.103-42.666 42.667c0 4.656.747 9.139 2.125 13.333 5.6-17.034 21.634-29.333 40.542-29.333z" fill="#faa019"/></g><g><g><path d="m256 132c-2.209 0-4-1.791-4-4v-24c0-2.209 1.791-4 4-4s4 1.791 4 4v24c0 2.209-1.791 4-4 4z" fill="#f04b37"/></g><g><path d="m328 100h-24c-2.209 0-4-1.791-4-4s1.791-4 4-4h24c2.209 0 4 1.791 4 4s-1.791 4-4 4z" fill="#91c83c"/></g><g><path d="m304 156c-1.024 0-2.047-.391-2.829-1.172l-16-16c-1.562-1.562-1.562-4.095 0-5.656 1.563-1.563 4.095-1.563 5.657 0l16 16c1.562 1.562 1.562 4.095 0 5.656-.781.781-1.804 1.172-2.828 1.172z" fill="#f5826e"/></g><g><path d="m408 132c-1.024 0-2.047-.391-2.829-1.172l-16-16c-1.562-1.562-1.562-4.095 0-5.656 1.563-1.563 4.095-1.563 5.657 0l16 16c1.562 1.562 1.562 4.095 0 5.656-.781.781-1.804 1.172-2.828 1.172z" fill="#f5826e"/></g><g><path d="m296 76c-1.024 0-2.047-.391-2.829-1.172l-16-16c-1.562-1.562-1.562-4.095 0-5.656 1.563-1.563 4.095-1.563 5.657 0l16 16c1.562 1.562 1.562 4.095 0 5.656-.781.781-1.804 1.172-2.828 1.172z" fill="#23aae6"/></g><g><path d="m344 140c-1.024 0-2.047-.391-2.829-1.172-1.562-1.562-1.562-4.095 0-5.656l16-16c1.563-1.563 4.095-1.563 5.657 0 1.562 1.562 1.562 4.095 0 5.656l-16 16c-.781.781-1.804 1.172-2.828 1.172z" fill="#f04b37"/></g><g><path d="m328 196c-2.209 0-4-1.791-4-4v-24c0-2.209 1.791-4 4-4s4 1.791 4 4v24c0 2.209-1.791 4-4 4z" fill="#91c83c"/></g><g><path d="m400 164h-24c-2.209 0-4-1.791-4-4s1.791-4 4-4h24c2.209 0 4 1.791 4 4s-1.791 4-4 4z" fill="#23aae6"/></g><g><path d="m376 220c-1.024 0-2.047-.391-2.829-1.172l-16-16c-1.562-1.562-1.562-4.095 0-5.656 1.563-1.563 4.095-1.563 5.657 0l16 16c1.562 1.562 1.562 4.095 0 5.656-.781.781-1.804 1.172-2.828 1.172z" fill="#ffd205"/></g><g><path d="m336 404c-1.024 0-2.047-.391-2.829-1.172l-16-16c-1.562-1.562-1.562-4.095 0-5.656 1.563-1.563 4.095-1.563 5.657 0l16 16c1.562 1.562 1.562 4.095 0 5.656-.781.781-1.804 1.172-2.828 1.172z" fill="#91c83c"/></g><g><path d="m416 204c-1.024 0-2.047-.391-2.829-1.172-1.562-1.562-1.562-4.095 0-5.656l16-16c1.563-1.563 4.095-1.563 5.657 0 1.562 1.562 1.562 4.095 0 5.656l-16 16c-.781.781-1.804 1.172-2.828 1.172z" fill="#f5826e"/></g><g><path d="m336 260c-2.209 0-4-1.791-4-4v-24c0-2.209 1.791-4 4-4s4 1.791 4 4v24c0 2.209-1.791 4-4 4z" fill="#f04b37"/></g><g><path d="m352 81.333c-2.209 0-4-1.791-4-4v-24c0-2.209 1.791-4 4-4s4 1.791 4 4v24c0 2.209-1.791 4-4 4z" fill="#ffd205"/></g><g><path d="m400 244h-24c-2.209 0-4-1.791-4-4s1.791-4 4-4h24c2.209 0 4 1.791 4 4s-1.791 4-4 4z" fill="#91c83c"/></g><g><path d="m384 300c-1.024 0-2.047-.391-2.829-1.172l-16-16c-1.562-1.562-1.562-4.095 0-5.656 1.563-1.563 4.095-1.563 5.657 0l16 16c1.562 1.562 1.562 4.095 0 5.656-.781.781-1.804 1.172-2.828 1.172z" fill="#91c83c"/></g><g><path d="m184 92c-1.024 0-2.047-.391-2.829-1.172l-16-16c-1.562-1.562-1.562-4.095 0-5.656 1.563-1.563 4.095-1.563 5.657 0l16 16c1.562 1.562 1.562 4.095 0 5.656-.781.781-1.804 1.172-2.828 1.172z" fill="#f5826e"/></g><g><path d="m416 284c-1.024 0-2.047-.391-2.829-1.172-1.562-1.562-1.562-4.095 0-5.656l16-16c1.563-1.563 4.095-1.563 5.657 0 1.562 1.562 1.562 4.095 0 5.656l-16 16c-.781.781-1.804 1.172-2.828 1.172z" fill="#23aae6"/></g><g><path d="m272 340c-2.209 0-4-1.791-4-4v-24c0-2.209 1.791-4 4-4s4 1.791 4 4v24c0 2.209-1.791 4-4 4z" fill="#91c83c"/></g><g><path d="m344 308h-24c-2.209 0-4-1.791-4-4s1.791-4 4-4h24c2.209 0 4 1.791 4 4s-1.791 4-4 4z" fill="#23aae6"/></g><g><path d="m320 364c-1.024 0-2.047-.391-2.829-1.172l-16-16c-1.562-1.562-1.562-4.095 0-5.656 1.563-1.563 4.095-1.563 5.657 0l16 16c1.562 1.562 1.562 4.095 0 5.656-.781.781-1.804 1.172-2.828 1.172z" fill="#f04b37"/></g><g><path d="m360 348c-1.024 0-2.047-.391-2.829-1.172-1.562-1.562-1.562-4.095 0-5.656l16-16c1.563-1.563 4.095-1.563 5.657 0 1.562 1.562 1.562 4.095 0 5.656l-16 16c-.781.781-1.804 1.172-2.828 1.172z" fill="#ffd205"/></g><g><path d="m136 308c-2.209 0-4-1.791-4-4v-24c0-2.209 1.791-4 4-4s4 1.791 4 4v24c0 2.209-1.791 4-4 4z" fill="#f04b37"/></g><g><path d="m208 276h-24c-2.209 0-4-1.791-4-4s1.791-4 4-4h24c2.209 0 4 1.791 4 4s-1.791 4-4 4z" fill="#f04b37"/></g><g><path d="m104 268h-24c-2.209 0-4-1.791-4-4s1.791-4 4-4h24c2.209 0 4 1.791 4 4s-1.791 4-4 4z" fill="#f5826e"/></g><g><path d="m184 332c-1.024 0-2.047-.391-2.829-1.172l-16-16c-1.562-1.562-1.562-4.095 0-5.656 1.563-1.563 4.095-1.563 5.657 0l16 16c1.562 1.562 1.562 4.095 0 5.656-.781.781-1.804 1.172-2.828 1.172z" fill="#91c83c"/></g><g><path d="m224 316c-1.024 0-2.047-.391-2.829-1.172-1.562-1.562-1.562-4.095 0-5.656l16-16c1.563-1.563 4.095-1.563 5.657 0 1.562 1.562 1.562 4.095 0 5.656l-16 16c-.781.781-1.804 1.172-2.828 1.172z" fill="#ffd205"/></g><g><path d="m184 388c-2.209 0-4-1.791-4-4v-24c0-2.209 1.791-4 4-4s4 1.791 4 4v24c0 2.209-1.791 4-4 4z" fill="#23aae6"/></g><g><path d="m248 356h-24c-2.209 0-4-1.791-4-4s1.791-4 4-4h24c2.209 0 4 1.791 4 4s-1.791 4-4 4z" fill="#f04b37"/></g><g><path d="m304 276h-24c-2.209 0-4-1.791-4-4s1.791-4 4-4h24c2.209 0 4 1.791 4 4s-1.791 4-4 4z" fill="#f5826e"/></g><g><path d="m232 412c-1.024 0-2.047-.391-2.829-1.172l-16-16c-1.562-1.562-1.562-4.095 0-5.656 1.563-1.563 4.095-1.563 5.657 0l16 16c1.562 1.562 1.562 4.095 0 5.656-.781.781-1.804 1.172-2.828 1.172z" fill="#91c83c"/></g><g><path d="m272 396c-1.024 0-2.047-.391-2.829-1.172-1.562-1.562-1.562-4.095 0-5.656l16-16c1.563-1.563 4.095-1.563 5.657 0 1.562 1.562 1.562 4.095 0 5.656l-16 16c-.781.781-1.804 1.172-2.828 1.172z" fill="#23aae6"/></g><g><path d="m96 228c-2.209 0-4-1.791-4-4v-24c0-2.209 1.791-4 4-4s4 1.791 4 4v24c0 2.209-1.791 4-4 4z" fill="#f04b37"/></g><g><path d="m168 204h-24c-2.209 0-4-1.791-4-4s1.791-4 4-4h24c2.209 0 4 1.791 4 4s-1.791 4-4 4z" fill="#91c83c"/></g><g><path d="m232 52h-24c-2.209 0-4-1.791-4-4s1.791-4 4-4h24c2.209 0 4 1.791 4 4s-1.791 4-4 4z" fill="#ffd205"/></g><g><path d="m104 164h-24c-2.209 0-4-1.791-4-4s1.791-4 4-4h24c2.209 0 4 1.791 4 4s-1.791 4-4 4z" fill="#23aae6"/></g><g><path d="m144 252c-1.024 0-2.047-.391-2.829-1.172l-16-16c-1.562-1.562-1.562-4.095 0-5.656 1.563-1.563 4.095-1.563 5.657 0l16 16c1.562 1.562 1.562 4.095 0 5.656-.781.781-1.804 1.172-2.828 1.172z" fill="#91c83c"/></g><g><path d="m144 356c-1.024 0-2.047-.391-2.829-1.172l-16-16c-1.562-1.562-1.562-4.095 0-5.656 1.563-1.563 4.095-1.563 5.657 0l16 16c1.562 1.562 1.562 4.095 0 5.656-.781.781-1.804 1.172-2.828 1.172z" fill="#ffd205"/></g><g><path d="m184 236c-1.024 0-2.047-.391-2.829-1.172-1.562-1.562-1.562-4.095 0-5.656l16-16c1.563-1.563 4.095-1.563 5.657 0 1.562 1.562 1.562 4.095 0 5.656l-16 16c-.781.781-1.804 1.172-2.828 1.172z" fill="#23aae6"/></g><g><path d="m96 308c-1.024 0-2.047-.391-2.829-1.172-1.562-1.562-1.562-4.095 0-5.656l16-16c1.563-1.563 4.095-1.563 5.657 0 1.562 1.562 1.562 4.095 0 5.656l-16 16c-.781.781-1.804 1.172-2.828 1.172z" fill="#91c83c"/></g><g><path d="m136 156c-2.209 0-4-1.791-4-4v-24c0-2.209 1.791-4 4-4s4 1.791 4 4v24c0 2.209-1.791 4-4 4z" fill="#f04b37"/></g><g><path d="m208 124h-24c-2.209 0-4-1.791-4-4s1.791-4 4-4h24c2.209 0 4 1.791 4 4s-1.791 4-4 4z" fill="#23aae6"/></g><g><path d="m184 180c-1.024 0-2.047-.391-2.829-1.172l-16-16c-1.562-1.562-1.562-4.095 0-5.656 1.563-1.563 4.095-1.563 5.657 0l16 16c1.562 1.562 1.562 4.095 0 5.656-.781.781-1.804 1.172-2.828 1.172z" fill="#ffd205"/></g><g><path d="m216 164c-1.024 0-2.047-.391-2.829-1.172-1.562-1.562-1.562-4.095 0-5.656l16-16c1.563-1.563 4.095-1.563 5.657 0 1.562 1.562 1.562 4.095 0 5.656l-16 16c-.781.781-1.804 1.172-2.828 1.172z" fill="#91c83c"/></g><g><path d="m224 100c-1.024 0-2.047-.391-2.829-1.172-1.562-1.562-1.562-4.095 0-5.656l16-16c1.563-1.563 4.095-1.563 5.657 0 1.562 1.562 1.562 4.095 0 5.656l-16 16c-.781.781-1.804 1.172-2.828 1.172z" fill="#91c83c"/></g></g></g></svg>