<svg id="Layer_1" enable-background="new 0 0 512 512" height="512" viewBox="0 0 512 512" width="512" xmlns="http://www.w3.org/2000/svg"><g><g><g><path d="m233.928 92.295c-15.512-5.311-25.928-19.899-25.928-36.295 0-8.836-7.164-16-16-16s-16 7.164-16 16c0-8.836-7.164-16-16-16s-16 7.164-16 16c0-8.836-7.164-16-16-16s-16 7.164-16 16c0 16.396-10.416 30.984-25.927 36.295-31.638 10.833-54.333 40.941-54.07 76.312.327 44.11 36.89 79.393 81.002 79.393h93.991c44.112 0 80.675-35.283 81.002-79.393.262-35.371-22.432-65.479-54.07-76.312z" fill="#f0915a"/></g><g><path d="m208.119 216c26.046 0 47.507-20.816 47.874-46.859.003-.178.004-.356.006-.534.262-35.371-22.432-65.479-54.07-76.312-15.396-5.271-25.772-19.682-25.926-35.929-.084-8.853-7.06-16.318-15.913-16.366-8.879-.048-16.09 7.134-16.09 16 0-8.866-7.211-16.048-16.088-16-8.853.048-15.83 7.513-15.913 16.366-.154 16.247-10.529 30.657-25.926 35.929-31.638 10.833-54.333 40.941-54.07 76.312.001.178.003.356.006.534.366 26.043 21.827 46.859 47.873 46.859z" fill="#fab991"/></g><g><path d="m56 176.428c-4.392 0-7.966-3.542-7.999-7.941-.204-27.591 17.179-52.127 43.254-61.055 4.179-1.428 8.729.797 10.16 4.978 1.432 4.18-.797 8.729-4.977 10.16-19.556 6.695-32.591 25.101-32.438 45.799.032 4.418-3.522 8.026-7.94 8.059-.02 0-.04 0-.06 0z" fill="#fadcbe"/></g><g><path d="m130.344 98.343c-3.125 3.125-3.125 8.189-.001 11.314 1.563 1.563 3.609 2.343 5.657 2.343 2.047 0 4.095-.781 5.656-2.343 11.83-11.828 18.344-27.555 18.344-44.284v-25.369c-8.836 0-16 7.16-16 15.996v9.373c0 12.455-4.849 24.164-13.656 32.97z" fill="#f0915a"/></g></g><g><g><path d="m425.928 204.295c-15.512-5.311-25.928-19.899-25.928-36.295 0-8.836-7.164-16-16-16s-16 7.164-16 16c0-8.836-7.164-16-16-16s-16 7.164-16 16c0-8.836-7.164-16-16-16s-16 7.164-16 16c0 16.396-10.416 30.984-25.927 36.295-31.638 10.833-54.333 40.941-54.07 76.312.327 44.11 36.89 79.393 81.001 79.393h93.991c44.112 0 80.675-35.283 81.002-79.393.263-35.371-22.431-65.479-54.069-76.312z" fill="#f0915a"/></g><g><path d="m400.119 328c26.046 0 47.507-20.816 47.874-46.859.003-.178.004-.356.006-.534.262-35.371-22.432-65.479-54.07-76.312-15.396-5.271-25.772-19.682-25.926-35.929-.084-8.853-7.06-16.318-15.914-16.366-8.877-.048-16.088 7.134-16.088 16 0-8.866-7.211-16.048-16.088-16-8.853.048-15.83 7.513-15.913 16.366-.154 16.247-10.529 30.657-25.926 35.929-31.638 10.833-54.333 40.941-54.07 76.312.001.178.003.356.006.534.365 26.043 21.826 46.859 47.872 46.859z" fill="#fab991"/></g><g><path d="m248 288.428c-4.392 0-7.966-3.542-7.999-7.941-.204-27.591 17.179-52.127 43.254-61.055 4.179-1.429 8.73.797 10.16 4.978 1.432 4.18-.797 8.729-4.977 10.16-19.556 6.695-32.591 25.101-32.438 45.799.032 4.418-3.522 8.026-7.94 8.059-.02 0-.04 0-.06 0z" fill="#fadcbe"/></g><g><path d="m322.344 210.343c-3.125 3.125-3.125 8.189-.001 11.314 1.563 1.563 3.609 2.343 5.657 2.343 2.047 0 4.095-.781 5.656-2.343 11.829-11.828 18.344-27.555 18.344-44.284v-25.368c-8.836 0-16 7.16-16 15.996v9.373c0 12.454-4.85 24.163-13.656 32.969z" fill="#f0915a"/></g></g><g><g><path d="m233.928 324.295c-15.512-5.311-25.928-19.899-25.928-36.295 0-8.836-7.164-16-16-16s-16 7.164-16 16c0-8.836-7.164-16-16-16s-16 7.164-16 16c0-8.836-7.164-16-16-16s-16 7.164-16 16c0 16.396-10.416 30.984-25.927 36.295-31.638 10.833-54.333 40.941-54.07 76.312.327 44.11 36.89 79.393 81.001 79.393h93.991c44.112 0 80.675-35.283 81.002-79.393.263-35.371-22.431-65.479-54.069-76.312z" fill="#f0915a"/></g><g><path d="m208.119 448c26.046 0 47.507-20.816 47.873-46.859.003-.178.004-.356.006-.534.262-35.371-22.432-65.479-54.07-76.312-15.396-5.271-25.772-19.682-25.926-35.929-.084-8.853-7.06-16.318-15.913-16.366-8.877-.048-16.088 7.134-16.088 16 0-8.866-7.211-16.048-16.088-16-8.853.048-15.83 7.513-15.913 16.366-.154 16.247-10.529 30.657-25.926 35.929-31.638 10.833-54.333 40.941-54.07 76.312.001.178.003.356.006.534.365 26.043 21.826 46.859 47.871 46.859z" fill="#fab991"/></g><g><path d="m56 408.428c-4.392 0-7.966-3.542-7.999-7.941-.204-27.591 17.179-52.127 43.254-61.055 4.179-1.429 8.729.797 10.16 4.978 1.432 4.18-.797 8.729-4.977 10.16-19.556 6.695-32.591 25.101-32.438 45.799.032 4.418-3.522 8.026-7.94 8.059-.02 0-.04 0-.06 0z" fill="#fadcbe"/></g><g><path d="m130.344 330.343c-3.125 3.125-3.125 8.189-.001 11.314 1.563 1.563 3.609 2.343 5.657 2.343 2.047 0 4.095-.781 5.656-2.343 11.829-11.828 18.344-27.555 18.344-44.284v-25.368c-8.836 0-16 7.16-16 15.996v9.373c0 12.454-4.85 24.163-13.656 32.969z" fill="#f0915a"/></g></g></g></svg>