<svg id="Layer_1" enable-background="new 0 0 512 512" height="512" viewBox="0 0 512 512" width="512" xmlns="http://www.w3.org/2000/svg"><g><g><g><circle cx="464" cy="336" fill="#faa037" r="32"/></g></g><g><g><circle cx="456.913" cy="282.166" fill="#f57828" r="32"/></g><g><path d="m448.63 251.256 4.141 15.455c2.287 8.535 11.06 13.601 19.596 11.314l15.455-4.141c-4.574-17.071-22.121-27.202-39.192-22.628z" fill="#faa037"/></g></g><g><g><circle cx="436.133" cy="232" fill="#f57828" r="32"/></g><g><path d="m420.133 204.287 8 13.856c4.418 7.653 14.204 10.275 21.856 5.856l13.856-8c-8.835-15.304-28.406-20.548-43.712-11.712z" fill="#faa037"/></g></g><g><g><circle cx="403.078" cy="188.922" fill="#f57828" r="32"/></g><g><path d="m380.451 166.294 11.314 11.314c6.248 6.248 16.379 6.248 22.627 0l11.314-11.314c-12.497-12.496-32.758-12.496-45.255 0z" fill="#faa037"/></g></g><g><g><circle cx="360" cy="155.867" fill="#f57828" r="32"/></g><g><path d="m332.287 139.867 13.856 8c7.653 4.418 17.438 1.796 21.856-5.856l8-13.856c-15.304-8.838-34.875-3.594-43.712 11.712z" fill="#faa037"/></g></g><g><g><circle cx="309.834" cy="135.087" fill="#f57828" r="32"/></g><g><path d="m278.925 126.805 15.455 4.141c8.535 2.287 17.309-2.778 19.596-11.314l4.141-15.455c-17.071-4.573-34.618 5.557-39.192 22.628z" fill="#faa037"/></g></g><g><g><circle cx="256" cy="128" fill="#f57828" r="32"/></g><g><path d="m224 128h16c8.837 0 16-7.163 16-16v-16c-17.673 0-32 14.327-32 32z" fill="#faa037"/></g></g><g><g><circle cx="202.166" cy="135.087" fill="#f57828" r="32"/></g><g><path d="m171.256 143.37 15.455-4.141c8.535-2.287 13.601-11.06 11.314-19.596l-4.141-15.455c-17.071 4.574-27.202 22.121-22.628 39.192z" fill="#faa037"/></g></g><g><g><circle cx="152" cy="155.867" fill="#f57828" r="32"/></g><g><path d="m124.287 171.867 13.856-8c7.653-4.418 10.275-14.204 5.856-21.856l-8-13.856c-15.304 8.835-20.548 28.406-11.712 43.712z" fill="#faa037"/></g></g><g><g><circle cx="108.922" cy="188.922" fill="#f57828" r="32"/></g><g><path d="m86.294 211.549 11.314-11.314c6.248-6.248 6.248-16.379 0-22.627l-11.314-11.314c-12.496 12.497-12.496 32.758 0 45.255z" fill="#faa037"/></g></g><g><g><circle cx="75.867" cy="232" fill="#f57828" r="32"/></g><g><path d="m59.867 259.713 8-13.856c4.418-7.653 1.796-17.438-5.856-21.856l-13.856-8c-8.838 15.304-3.594 34.875 11.712 43.712z" fill="#faa037"/></g></g><g><g><circle cx="55.087" cy="282.166" fill="#f57828" r="32"/></g><g><path d="m46.805 313.075 4.141-15.455c2.287-8.535-2.778-17.309-11.314-19.596l-15.455-4.141c-4.573 17.071 5.557 34.618 22.628 39.192z" fill="#faa037"/></g></g><g><g><circle cx="48" cy="336" fill="#f57828" r="32"/></g></g><g><path d="m479.475 336c-8.39 0-15.406-6.461-15.995-14.83-7.605-107.954-97.591-193.17-207.48-193.17-109.89 0-199.876 85.216-207.48 193.171-.589 8.368-7.605 14.829-15.994 14.829h-.48c-8.862 0-16.046 7.184-16.046 16.046 0 17.648 14.306 31.954 31.954 31.954h416.091c17.649 0 31.955-14.306 31.955-31.954 0-8.862-7.184-16.046-16.046-16.046z" fill="#f57828"/></g><g><path d="m48.558 320.646c-.632 8.663-7.872 15.354-16.558 15.354h192c17.673 0 32-14.327 32-32v-176c-109.711 0-199.584 84.94-207.442 192.646z" fill="#faa037"/></g><g><circle cx="364" cy="236" fill="#d65a0a" r="12"/></g><g><circle cx="300" cy="204" fill="#d65a0a" r="12"/></g><g><circle cx="192" cy="288" fill="#f57828" r="16"/></g><g><circle cx="324" cy="292" fill="#d65a0a" r="4"/></g><g><circle cx="168" cy="232" fill="#f57828" r="8"/></g></g></svg>