<svg id="Layer_1" enable-background="new 0 0 512 512" height="512" viewBox="0 0 512 512" width="512" xmlns="http://www.w3.org/2000/svg"><g><g><path d="m269.171 57.858-7.515-7.515c-3.124-3.124-8.189-3.124-11.313 0l-7.515 7.515c-6.982 6.983-10.828 16.267-10.828 26.142s3.846 19.159 10.829 26.142l7.515 7.515c1.562 1.562 3.609 2.343 5.657 2.343s4.095-.781 5.657-2.343l7.515-7.515c6.981-6.983 10.827-16.267 10.827-26.142s-3.846-19.159-10.829-26.142z" fill="#91c83c"/><path d="m325.657 114.343-7.515-7.515c-6.983-6.982-16.267-10.828-26.142-10.828s-19.159 3.846-26.142 10.829l-7.515 7.515c-3.125 3.124-3.125 8.189 0 11.313l7.515 7.515c6.983 6.982 16.267 10.828 26.142 10.828s19.159-3.846 26.142-10.829l7.515-7.515c3.124-3.123 3.124-8.189 0-11.313z" fill="#5faa46"/><path d="m253.657 114.343-7.515-7.515c-6.983-6.982-16.267-10.828-26.142-10.828s-19.159 3.846-26.142 10.829l-7.515 7.515c-3.125 3.124-3.125 8.189 0 11.313l7.515 7.515c6.983 6.982 16.267 10.828 26.142 10.828s19.159-3.846 26.142-10.829l7.515-7.515c3.124-3.123 3.124-8.189 0-11.313z" fill="#5faa46"/><g><path d="m248 120h16v32h-16z" fill="#5faa46"/></g></g><g><circle cx="320" cy="208" fill="#a55023" r="96"/></g><g><path d="m320 112c-53.019 0-96 42.98-96 96 0 26.51 21.49 48 48 48s48-21.49 48-48z" fill="#d26e28"/></g><g><g><circle cx="374.667" cy="204" fill="#8c3c14" r="4"/></g><g><circle cx="358.667" cy="220" fill="#8c3c14" r="4"/></g><g><circle cx="372" cy="228" fill="#8c3c14" r="4"/></g><g><circle cx="316" cy="244" fill="#8c3c14" r="4"/></g><g><circle cx="340" cy="140" fill="#8c3c14" r="4"/></g><g><circle cx="284" cy="148" fill="#a55023" r="4"/></g><g><circle cx="292" cy="180" fill="#a55023" r="4"/></g><g><circle cx="361.333" cy="236" fill="#8c3c14" r="4"/></g><g><circle cx="380" cy="172" fill="#8c3c14" r="4"/></g></g><g><circle cx="192" cy="208" fill="#a55023" r="96"/></g><g><path d="m192 112c-53.019 0-96 42.98-96 96 0 26.51 21.49 48 48 48s48-21.49 48-48z" fill="#d26e28"/></g><g><g><circle cx="244" cy="212" fill="#8c3c14" r="4"/></g><g><circle cx="228" cy="196" fill="#8c3c14" r="4"/></g><g><circle cx="241.333" cy="188" fill="#8c3c14" r="4"/></g><g><circle cx="188" cy="252" fill="#8c3c14" r="4"/></g><g><circle cx="212" cy="148" fill="#8c3c14" r="4"/></g><g><circle cx="156" cy="156" fill="#a55023" r="4"/></g><g><circle cx="164" cy="188" fill="#a55023" r="4"/></g><g><circle cx="230.667" cy="180" fill="#8c3c14" r="4"/></g><g><circle cx="249.333" cy="244" fill="#8c3c14" r="4"/></g></g><g><circle cx="128" cy="336" fill="#d26e28" r="96"/></g><g><circle cx="384" cy="336" fill="#d26e28" r="96"/></g><g><path d="m384 240c-53.019 0-96 42.98-96 96 0 26.51 21.49 48 48 48s48-21.49 48-48z" fill="#f28a39"/></g><g><circle cx="256" cy="336" fill="#d26e28" r="96"/></g><g><path d="m128 240c-53.019 0-96 42.98-96 96 0 26.51 21.49 48 48 48s48-21.49 48-48z" fill="#f28a39"/></g><g><g><circle cx="182.667" cy="340" fill="#a55023" r="4"/></g><g><circle cx="164" cy="340" fill="#a55023" r="4"/></g><g><circle cx="180" cy="364" fill="#a55023" r="4"/></g><g><circle cx="124" cy="380" fill="#a55023" r="4"/></g><g><circle cx="148" cy="276" fill="#a55023" r="4"/></g><g><circle cx="92" cy="284" fill="#d26e28" r="4"/></g><g><circle cx="100" cy="316" fill="#d26e28" r="4"/></g><g><circle cx="169.333" cy="372" fill="#a55023" r="4"/></g><g><circle cx="188" cy="308" fill="#a55023" r="4"/></g></g><g><path d="m256 240c-53.019 0-96 42.98-96 96 0 26.51 21.49 48 48 48s48-21.49 48-48z" fill="#f28a39"/></g><g><circle cx="256" cy="336" fill="#afd763" r="72"/></g><g><circle cx="274.667" cy="317.333" fill="#5faa46" r="13.333"/></g><g><circle cx="260" cy="340" fill="#5faa46" r="4"/></g><g><circle cx="228" cy="300" fill="#5faa46" r="4"/></g><g><circle cx="316" cy="332" fill="#5faa46" r="4"/></g><g><g><circle cx="446.667" cy="332" fill="#a55023" r="4"/></g><g><circle cx="430.667" cy="348" fill="#a55023" r="4"/></g><g><circle cx="444" cy="356" fill="#a55023" r="4"/></g><g><circle cx="388" cy="372" fill="#a55023" r="4"/></g><g><circle cx="412" cy="268" fill="#a55023" r="4"/></g><g><circle cx="356" cy="276" fill="#d26e28" r="4"/></g><g><circle cx="364" cy="308" fill="#d26e28" r="4"/></g><g><circle cx="433.333" cy="364" fill="#a55023" r="4"/></g><g><circle cx="452" cy="300" fill="#a55023" r="4"/></g></g><g><circle cx="216" cy="360" fill="#5faa46" r="8"/></g><g><circle cx="280" cy="376" fill="#5faa46" r="8"/></g><g><path d="m32 400h448c8.837 0 16 7.163 16 16 0 8.837-7.163 16-16 16h-448c-8.837 0-16-7.163-16-16 0-8.837 7.163-16 16-16z" fill="#d7e6f0"/></g><g><path d="m77.333 432h357.333l-25.473 23.514c-5.911 5.456-13.66 8.486-21.705 8.486h-262.977c-8.044 0-15.794-3.03-21.705-8.486z" fill="#a5c3dc"/></g></g></svg>