<svg id="Layer_1" enable-background="new 0 0 512 512" height="512" viewBox="0 0 512 512" width="512" xmlns="http://www.w3.org/2000/svg"><g><g><g><path d="m472 104 16 16c4.418 4.418 4.418 11.582 0 16l-120 120h-64l152-152c4.418-4.418 11.582-4.418 16 0z" fill="#faa019"/></g><g><path d="m472 104c4.418 4.418 4.418 11.582 0 16l-136 136h-32l152-152c4.418-4.418 11.582-4.418 16 0z" fill="#ffd205"/></g></g><g><g><path d="m472 168 16 16c4.418 4.418 4.418 11.582 0 16l-120 120h-64l152-152c4.418-4.418 11.582-4.418 16 0z" fill="#faa019"/></g><g><path d="m472 168c4.418 4.418 4.418 11.582 0 16l-136 136h-32l152-152c4.418-4.418 11.582-4.418 16 0z" fill="#ffd205"/></g></g><g><g><path d="m424 88 16 16c4.418 4.418 4.418 11.582 0 16l-120 120h-64l152-152c4.418-4.418 11.582-4.418 16 0z" fill="#faa019"/></g><g><path d="m424 88c4.418 4.418 4.418 11.582 0 16l-136 136h-32l152-152c4.418-4.418 11.582-4.418 16 0z" fill="#ffd205"/></g></g><g><g><path d="m360 88 16 16c4.418 4.418 4.418 11.582 0 16l-120 120h-64l152-152c4.418-4.418 11.582-4.418 16 0z" fill="#faa019"/></g><g><path d="m360 88c4.418 4.418 4.418 11.582 0 16l-136 136h-32l152-152c4.418-4.418 11.582-4.418 16 0z" fill="#ffd205"/></g></g><g><g><path d="m296 88 16 16c4.418 4.418 4.418 11.582 0 16l-120 120h-64l152-152c4.418-4.418 11.582-4.418 16 0z" fill="#faa019"/></g><g><path d="m296 88c4.418 4.418 4.418 11.582 0 16l-136 136h-32l152-152c4.418-4.418 11.582-4.418 16 0z" fill="#ffd205"/></g></g><g><path d="m197.306 200.131c4.82-7.358 6.608-16.658 4.152-25.824s-8.654-16.326-16.508-20.288c2.752-8.355 2.071-17.801-2.673-26.019-4.744-8.217-12.583-13.529-21.194-15.324.034-.601.054-1.205.054-1.813 0-17.673-14.327-32-32-32-3.176 0-6.241.47-9.137 1.331-2.896-.862-5.961-1.331-9.137-1.331-17.673 0-32 14.327-32 32 0 .609.021 1.213.054 1.813-8.611 1.795-16.45 7.107-21.194 15.324-4.745 8.218-5.425 17.663-2.673 26.019-7.854 3.962-14.052 11.123-16.508 20.288-2.456 9.166-.668 18.466 4.152 25.824-6.56 5.86-10.694 14.38-10.694 23.869 0 17.673 14.327 32 32 32s94.327 0 112 0 32-14.327 32-32c0-9.489-4.134-18.009-10.694-23.869z" fill="#f06423"/></g><g><path d="m80 224c0-9.489 4.134-18.009 10.694-23.869-4.82-7.358-6.608-16.658-4.152-25.824s8.654-16.326 16.508-20.288c-2.752-8.355-2.071-17.801 2.673-26.019 4.744-8.217 12.583-13.529 21.194-15.324-.034-.601-.054-1.205-.054-1.813 0-12.306 6.951-22.984 17.137-28.338-4.442-2.335-9.496-3.662-14.863-3.662-3.176 0-6.241.47-9.137 1.331-2.896-.862-5.961-1.331-9.137-1.331-17.673 0-32 14.327-32 32 0 .609.021 1.213.054 1.813-8.611 1.795-16.45 7.107-21.194 15.324-4.745 8.218-5.425 17.663-2.673 26.019-7.854 3.962-14.052 11.123-16.508 20.288-2.456 9.166-.668 18.466 4.152 25.824-6.56 5.86-10.694 14.38-10.694 23.869 0 17.673 14.327 32 32 32h48c-17.673 0-32-14.327-32-32z" fill="#faa019"/></g><g><path d="m293.306 217.268c4.82-7.358 6.608-16.658 4.152-25.824s-8.654-16.326-16.508-20.288c2.752-8.355 2.071-17.801-2.673-26.019-4.744-8.217-12.583-13.529-21.194-15.324.034-.601.054-1.205.054-1.813 0-17.673-14.327-32-32-32-3.176 0-6.241.47-9.137 1.331-2.896-.861-5.961-1.331-9.137-1.331-17.673 0-32 14.327-32 32 0 .609.021 1.213.054 1.813-8.611 1.795-16.45 7.107-21.194 15.324-4.745 8.218-5.425 17.663-2.673 26.019-7.854 3.962-14.052 11.123-16.508 20.288-2.456 9.166-.668 18.466 4.152 25.824-6.561 5.86-10.694 14.38-10.694 23.869 0 17.673 14.327 32 32 32s94.327 0 112 0 32-14.327 32-32c0-9.489-4.134-18.009-10.694-23.869z" fill="#f06423"/></g><g><path d="m168 241.137c0-9.489 4.134-18.009 10.694-23.869-4.82-7.358-6.608-16.658-4.152-25.824s8.654-16.326 16.508-20.288c-2.752-8.355-2.071-17.801 2.673-26.019 4.744-8.217 12.583-13.529 21.194-15.324-.034-.601-.054-1.205-.054-1.813 0-13.859 8.812-25.657 21.137-30.105-3.392-1.225-7.049-1.895-10.863-1.895-3.176 0-6.241.47-9.137 1.331-2.896-.861-5.961-1.331-9.137-1.331-17.673 0-32 14.327-32 32 0 .609.021 1.213.054 1.813-8.611 1.795-16.45 7.107-21.194 15.324-4.745 8.218-5.425 17.663-2.673 26.019-7.854 3.962-14.052 11.123-16.508 20.288-2.456 9.166-.668 18.466 4.152 25.824-6.561 5.86-10.694 14.38-10.694 23.869 0 17.673 14.327 32 32 32h40c-17.673 0-32-14.327-32-32z" fill="#faa019"/></g><g><path d="m419.362 448h-326.724c-16.764 0-31.309-11.571-35.078-27.905l-41.192-178.501c-.244-1.059-.368-2.143-.368-3.23 0-7.933 6.431-14.364 14.364-14.364h451.272c7.933 0 14.364 6.431 14.364 14.364 0 1.087-.123 2.171-.368 3.23l-41.192 178.501c-3.77 16.334-18.315 27.905-35.078 27.905z" fill="#4182c3"/></g><g><path d="m310.44 420.095 41.192-178.501c.245-1.059.368-2.143.368-3.23 0-7.933-6.431-14.364-14.364-14.364h-307.272c-7.933 0-14.364 6.431-14.364 14.364 0 1.087.123 2.171.368 3.23l41.192 178.501c3.77 16.334 18.315 27.905 35.078 27.905h182.723c16.764 0 31.309-11.571 35.079-27.905z" fill="#64afe1"/></g><g><circle cx="244" cy="172" fill="#faa019" r="12"/></g><g><circle cx="264" cy="200" fill="#faa019" r="8"/></g><g><circle cx="120" cy="184" fill="#faa019" r="8"/></g><g><circle cx="132" cy="156" fill="#faa019" r="4"/></g><g><path d="m477.538 320h-443.076l7.384 32h428.308z" fill="#a5c3dc"/></g><g><path d="m333.538 320h-299.076l7.384 32h284.308z" fill="#d7e6f0"/></g></g></svg>