<svg id="Layer_1" enable-background="new 0 0 512 512" height="512" viewBox="0 0 512 512" width="512" xmlns="http://www.w3.org/2000/svg"><g><g><path d="m304 56h176v16h-176z" fill="#737079"/></g><g><path d="m304 56h176v8h-176z" fill="#96aab9"/></g><g><path d="m288 112h-64c-8.837 0-16-7.163-16-16v-64c0-8.837 7.163-16 16-16h64c8.837 0 16 7.163 16 16v64c0 8.837-7.163 16-16 16z" fill="#d26e28"/></g><g><path d="m256 112h-32c-8.837 0-16-7.163-16-16v-64c0-8.837 7.163-16 16-16h32c8.837 0 16 7.163 16 16v64c0 8.837-7.163 16-16 16z" fill="#f0915a"/></g><g><path d="m304 112h-96c-4.418 0-8-3.582-8-8v-32c0-4.418 3.582-8 8-8h96c4.418 0 8 3.582 8 8v32c0 4.418-3.582 8-8 8z" fill="#faa019"/></g><g><path d="m272 64h-64c-4.418 0-8 3.582-8 8v111.548c0 8.615 6.621 16.028 15.227 16.434 9.188.432 16.773-6.889 16.773-15.982v-47.726c0-4.261 3.215-7.981 7.467-8.257 4.659-.302 8.533 3.388 8.533 7.983 0 9.093 7.585 16.414 16.773 15.982 8.606-.405 15.227-7.818 15.227-16.434v-7.548c0-8.837 7.163-16 16-16h-16v-40c0-4.418-3.582-8-8-8z" fill="#ffd23c"/></g><g><path d="m48 208h64v-32h-64c-8.837 0-16 7.163-16 16 0 8.837 7.163 16 16 16z" fill="#463c4b"/></g><g><path d="m464 208h-64v-32h64c8.837 0 16 7.163 16 16 0 8.837-7.163 16-16 16z" fill="#463c4b"/></g><g><path d="m400 336h-288l-38.736-123.956c-.838-2.681-1.264-5.473-1.264-8.281 0-15.333 12.43-27.763 27.763-27.763h312.474c15.333 0 27.763 12.43 27.763 27.763 0 2.808-.426 5.6-1.264 8.281z" fill="#f04b37"/></g><g><path d="m104 203.763c0-15.333 12.43-27.763 27.763-27.763h-16c-15.333 0-27.763 12.43-27.763 27.763 0 2.808.426 5.6 1.264 8.281l38.736 123.956h16l-38.736-123.956c-.838-2.681-1.264-5.473-1.264-8.281z" fill="#f5826e"/></g><g><path d="m416 352h-320c-8.837 0-16-7.163-16-16 0-8.837 7.163-16 16-16h320c8.837 0 16 7.163 16 16 0 8.837-7.163 16-16 16z" fill="#463c4b"/></g><g><path d="m256 352h-160c-8.837 0-16-7.163-16-16 0-8.837 7.163-16 16-16h160c8.837 0 16 7.163 16 16 0 8.837-7.163 16-16 16z" fill="#555a6e"/></g><g><path d="m432 496h-352c-8.837 0-16-7.163-16-16 0-8.837 7.163-16 16-16h352c8.837 0 16 7.163 16 16 0 8.837-7.163 16-16 16z" fill="#463c4b"/></g><g><path d="m256 496h-176c-8.837 0-16-7.163-16-16 0-8.837 7.163-16 16-16h176c8.837 0 16 7.163 16 16 0 8.837-7.163 16-16 16z" fill="#555a6e"/></g><g><path d="m96 352-16 112h48l16-112z" fill="#463c4b"/></g><g><path d="m416 352 16 112h-48l-16-112z" fill="#463c4b"/></g><g><path d="m304 464h-96v-40c0-4.418 3.582-8 8-8h80c4.418 0 8 3.582 8 8z" fill="#e1322d"/></g><g><path d="m264 464h-56v-40c0-4.418 3.582-8 8-8h40c4.418 0 8 3.582 8 8z" fill="#f04b37"/></g><g><path d="m256 224v96h149l33.736-107.956c.414-1.324.726-2.676.937-4.044h-167.673c-8.837 0-16 7.163-16 16z" fill="#e1322d"/></g><g><path d="m274.327 388.005h.011l-14.671-33.604h-.005c-.617-1.412-2.022-2.401-3.662-2.401s-3.045.989-3.663 2.401h-.005l-14.671 33.604h.011c-1.07 2.45-1.673 5.15-1.673 7.995 0 11.046 8.954 20 20 20s20-8.954 20-20c.001-2.844-.601-5.545-1.672-7.995z" fill="#faa019"/></g><g><circle cx="256" cy="396" fill="#ffd205" r="12"/></g></g></svg>