<svg id="Layer_1" enable-background="new 0 0 512 512" height="512" viewBox="0 0 512 512" width="512" xmlns="http://www.w3.org/2000/svg"><g><g><path d="m325.824 74.175h64v160h-64z" fill="#a5c3dc" transform="matrix(.707 .707 -.707 .707 213.823 -207.863)"/></g><g><path d="m301.256 210.744-22.627-22.627 90.51-90.51 11.314 11.314c6.248 6.248 6.248 16.379 0 22.627z" fill="#d7e6f0"/></g><g><path d="m379.359 213.86c.004-.045.008-.09.013-.135.854-9.246 4.735-17.95 11.301-24.516l1.093-1.093c6.248-6.248 6.248-16.379 0-22.627l-45.255-45.255c-6.248-6.248-16.379-6.248-22.627 0l-1.095 1.095c-6.563 6.563-15.261 10.458-24.505 11.298-.087.008-.173.016-.26.024-51.281 4.849-147.102 25.785-232.638 110.326-57.384 56.716-58.318 149.826-.729 206.334 56.311 55.254 146.751 54.927 202.658-.98 86.031-86.031 107.183-182.876 112.044-234.471z" fill="#d26e28"/></g><g><path d="m81.428 440.145c-2.023 0-4.047-.763-5.605-2.292-24.373-23.936-37.809-56.098-37.833-90.561-.025-35.363 13.876-68.545 39.145-93.432 3.149-3.1 8.213-3.062 11.313.087 3.101 3.147 3.062 8.213-.086 11.313-22.188 21.852-34.395 50.98-34.373 82.02.021 30.139 11.757 58.251 33.044 79.156 3.152 3.096 3.198 8.161.102 11.313-1.565 1.596-3.635 2.396-5.707 2.396z" fill="#f28a39"/></g><g><circle cx="442.677" cy="103.263" fill="#a5c3dc" r="32"/></g><g><circle cx="408.736" cy="69.322" fill="#d7e6f0" r="32"/></g><g><path d="m379.359 213.861c.004-.045.008-.09.013-.135.854-9.246 4.735-17.95 11.301-24.516l1.093-1.093c6.248-6.248 6.248-16.379 0-22.627l-22.627-22.627-203.676 203.673c-26.02 26.02-26.02 68.206 0 94.225l7.595 7.595c25.832 25.832 67.786 26.189 93.744.484.171-.169.341-.339.512-.509 86.032-86.031 107.184-182.875 112.045-234.47z" fill="#a55023"/></g><g><g><circle cx="260" cy="166.668" fill="#a55023" r="4"/></g><g><circle cx="260" cy="222.668" fill="#a55023" r="4"/></g><g><circle cx="244" cy="182.668" fill="#a55023" r="4"/></g><g><circle cx="276" cy="182.668" fill="#a55023" r="4"/></g></g><g><g><circle cx="165.333" cy="309.334" fill="#a55023" r="4"/></g><g><circle cx="109.333" cy="309.334" fill="#a55023" r="4"/></g><g><circle cx="149.333" cy="293.334" fill="#a55023" r="4"/></g><g><circle cx="149.333" cy="325.334" fill="#a55023" r="4"/></g></g><g><g><circle cx="234.666" cy="354.668" fill="#8c3c14" r="4"/></g><g><circle cx="290.666" cy="354.668" fill="#8c3c14" r="4"/></g><g><circle cx="250.666" cy="370.668" fill="#8c3c14" r="4"/></g><g><circle cx="250.666" cy="338.668" fill="#8c3c14" r="4"/></g></g></g></svg>