<svg id="Layer_1" enable-background="new 0 0 512 512" height="512" viewBox="0 0 512 512" width="512" xmlns="http://www.w3.org/2000/svg"><g><g><path d="m357.823 63.667 90.51 90.51 11.314-11.314c18.745-18.745 18.745-49.137 0-67.882l-22.627-22.627c-18.745-18.745-49.137-18.745-67.882 0zm83.884 61.256-54.63-54.63c-3.892-3.892-2.795-10.486 2.168-12.864 11.901-5.703 26.598-3.624 36.46 6.238l22.627 22.627c9.862 9.862 11.941 24.559 6.238 36.46-2.377 4.964-8.972 6.06-12.863 2.169z" fill="#8caac8"/></g><g><path d="m63.667 357.823 90.51 90.51-11.314 11.314c-18.745 18.745-49.137 18.745-67.882 0l-22.627-22.627c-18.745-18.745-18.745-49.137 0-67.882zm61.256 83.884-54.63-54.63c-3.892-3.892-10.486-2.795-12.864 2.168-5.703 11.901-3.624 26.598 6.238 36.46l22.627 22.627c9.862 9.862 24.559 11.941 36.46 6.238 4.964-2.377 6.06-8.972 2.169-12.863z" fill="#8caac8"/></g><g><circle cx="256" cy="256" fill="#a5c3dc" r="224"/></g><g><path d="m40 264c-4.418 0-8-3.582-8-8 0-59.833 23.3-116.084 65.608-158.393 42.308-42.307 98.559-65.607 158.392-65.607 4.418 0 8 3.582 8 8s-3.582 8-8 8c-114.691 0-208 93.309-208 208 0 4.418-3.582 8-8 8z" fill="#d7e6f0"/></g><g><circle cx="256" cy="256" fill="#8c3c14" r="192"/></g><g><path d="m72 264c-4.418 0-8-3.582-8-8 0-105.869 86.131-192 192-192 4.418 0 8 3.582 8 8s-3.582 8-8 8c-97.047 0-176 78.953-176 176 0 4.418-3.582 8-8 8z" fill="#d26e28"/></g><g><g><path d="m288 194.667v-32c0-8.837-7.163-16-16-16h-32c-8.837 0-16 7.163-16 16v32c0 8.837 7.163 16 16 16h32c8.837 0 16-7.164 16-16z" fill="#f28a39"/></g><g><path d="m256 194.667c0-8.836 7.164-16 16-16h16v16c0 8.836-7.164 16-16 16h-16z" fill="#d26e28"/></g></g><g><g><path d="m200 296v-32c0-8.837-7.163-16-16-16h-32c-8.837 0-16 7.163-16 16v32c0 8.837 7.163 16 16 16h32c8.837 0 16-7.163 16-16z" fill="#f28a39"/></g><g><path d="m168 296c0-8.836 7.164-16 16-16h16v16c0 8.836-7.164 16-16 16h-16z" fill="#d26e28"/></g></g><g><g><path d="m368 344v-32c0-8.837-7.163-16-16-16h-32c-8.837 0-16 7.163-16 16v32c0 8.837 7.163 16 16 16h32c8.837 0 16-7.163 16-16z" fill="#f28a39"/></g><g><path d="m336 344c0-8.836 7.164-16 16-16h16v16c0 8.836-7.164 16-16 16h-16z" fill="#d26e28"/></g></g><g><g><path d="m241.941 397.902 22.627-22.627c6.248-6.248 6.248-16.379 0-22.627l-22.627-22.627c-6.248-6.248-16.379-6.248-22.627 0l-22.627 22.627c-6.248 6.248-6.248 16.379 0 22.627l22.627 22.627c6.248 6.248 16.379 6.248 22.627 0z" fill="#d26e28"/></g><g><path d="m364.686 253.98 22.627-22.627c6.248-6.248 6.248-16.379 0-22.627l-22.627-22.627c-6.248-6.248-16.379-6.248-22.627 0l-22.627 22.627c-6.248 6.248-6.248 16.379 0 22.627l22.627 22.627c6.248 6.249 16.379 6.249 22.627 0z" fill="#d26e28"/></g><g><path d="m219.314 375.274c6.248-6.248 16.379-6.248 22.627 0l11.314 11.314-11.314 11.314c-6.248 6.248-16.379 6.248-22.627 0l-11.314-11.314z" fill="#d26e28"/></g></g><g><g><path d="m182.627 169.373c12.497 12.497-32.758 57.752-45.255 45.255s-12.497-32.758 0-45.255 32.759-12.497 45.255 0z" fill="#faa019"/></g><g><path d="m136 200c-4.418 0-8-3.582-8-8 0-17.645 14.355-32 32-32 4.418 0 8 3.582 8 8s-3.582 8-8 8c-8.822 0-16 7.178-16 16 0 4.418-3.582 8-8 8z" fill="#ffd205"/></g></g><g><g><path d="m288 272c0 17.673-64 17.673-64 0s14.327-32 32-32 32 14.327 32 32z" fill="#faa019"/></g><g><path d="m232 280c-4.418 0-8-3.582-8-8 0-17.645 14.355-32 32-32 4.418 0 8 3.582 8 8s-3.582 8-8 8c-8.822 0-16 7.178-16 16 0 4.418-3.582 8-8 8z" fill="#ffd205"/></g></g><g><g><path d="m336 173.333c-17.673 0-32-14.327-32-32s14.327-32 32-32 17.673 64 0 64z" fill="#faa019"/></g><g><path d="m312 149.333c-4.418 0-8-3.582-8-8 0-17.645 14.355-32 32-32 4.418 0 8 3.582 8 8s-3.582 8-8 8c-8.822 0-16 7.178-16 16 0 4.418-3.582 8-8 8z" fill="#ffd205"/></g></g><g><g><circle cx="349.333" cy="362.667" fill="#f04b37" r="8"/></g><g><circle cx="141.333" cy="168" fill="#f04b37" r="8"/></g><g><circle cx="293.333" cy="285.333" fill="#f04b37" r="8"/></g><g><circle cx="405.333" cy="202.667" fill="#f04b37" r="8"/></g><g><circle cx="184" cy="386.667" fill="#f04b37" r="8"/></g><g><circle cx="186.667" cy="205.333" fill="#f04b37" r="8"/></g><g><circle cx="309.333" cy="112" fill="#f04b37" r="8"/></g><g><circle cx="112" cy="317.333" fill="#f04b37" r="8"/></g></g><g><g><circle cx="165.333" cy="370.667" fill="#5faa46" r="8"/></g><g><circle cx="373.333" cy="176" fill="#5faa46" r="8"/></g><g><circle cx="221.333" cy="293.333" fill="#5faa46" r="8"/></g><g><circle cx="109.333" cy="210.667" fill="#5faa46" r="8"/></g><g><circle cx="304" cy="373.333" fill="#5faa46" r="8"/></g><g><circle cx="328" cy="213.333" fill="#5faa46" r="8"/></g><g><circle cx="218.667" cy="128" fill="#5faa46" r="8"/></g><g><circle cx="402.667" cy="325.333" fill="#5faa46" r="8"/></g></g><g><g><circle cx="380" cy="332" fill="#5faa46" r="8"/></g><g><circle cx="185.333" cy="124" fill="#f04b37" r="8"/></g><g><circle cx="302.667" cy="276" fill="#5faa46" r="8"/></g><g><circle cx="220" cy="388" fill="#5faa46" r="8"/></g><g><circle cx="388" cy="156" fill="#5faa46" r="8"/></g><g><circle cx="222.667" cy="169.333" fill="#5faa46" r="8"/></g><g><circle cx="129.333" cy="292" fill="#5faa46" r="8"/></g><g><circle cx="334.667" cy="94.667" fill="#5faa46" r="8"/></g></g><g><g><circle cx="370.667" cy="146.667" fill="#f04b37" r="8"/></g><g><circle cx="188" cy="361.333" fill="#f04b37" r="8"/></g><g><circle cx="305.333" cy="209.333" fill="#f04b37" r="8"/></g><g><circle cx="222.667" cy="97.333" fill="#f04b37" r="8"/></g><g><circle cx="386.667" cy="304" fill="#f04b37" r="8"/></g><g><circle cx="225.333" cy="316" fill="#f04b37" r="8"/></g><g><circle cx="133.333" cy="232" fill="#f04b37" r="8"/></g><g><circle cx="337.333" cy="390.667" fill="#f04b37" r="8"/></g></g></g></svg>