<svg id="Layer_1" enable-background="new 0 0 512 512" height="512" viewBox="0 0 512 512" width="512" xmlns="http://www.w3.org/2000/svg"><g><g><path d="m496 288h-480c0-20.177 9.371-39.209 25.364-51.511l165.116-127.012c11.36-8.739 25.291-13.477 39.624-13.477h19.793c14.333 0 28.263 4.738 39.624 13.477l165.116 127.012c15.992 12.302 25.363 31.334 25.363 51.511z" fill="#f0915a"/></g><g><path d="m470.636 236.489-165.116-127.012c-11.361-8.739-25.291-13.477-39.624-13.477h-19.791c-14.333 0-28.264 4.738-39.624 13.477l-165.117 127.012c-15.993 12.302-25.364 31.334-25.364 51.511v40c0 4.418 3.582 8 8 8v-48c0-17.693 8.218-34.382 22.241-45.169l165.117-127.013c9.962-7.663 22.178-11.818 34.746-11.818h19.793c12.499 0 24.838 4.197 34.745 11.818l165.116 127.012c13.928 10.713 22.242 27.599 22.242 45.17v48c4.418 0 8-3.582 8-8v-40c0-20.177-9.371-39.209-25.364-51.511z" fill="#a55023"/></g><g><path d="m488 336h-464c-4.418 0-8-3.582-8-8v-32c0-4.418 3.582-8 8-8h464c4.418 0 8 3.582 8 8v32c0 4.418-3.582 8-8 8z" fill="#d26e28"/></g><g><path d="m24 288h464v48h-464z" fill="#fab991"/></g><g><path d="m488 416h-464c-4.418 0-8-3.582-8-8v-32c0-4.418 3.582-8 8-8h464c4.418 0 8 3.582 8 8v32c0 4.418-3.582 8-8 8z" fill="#d26e28"/></g><g><path d="m24 368h464v48h-464z" fill="#fab991"/></g><g><path d="m480 368h-448c-8.837 0-16-7.163-16-16 0-8.837 7.163-16 16-16h448c8.837 0 16 7.163 16 16 0 8.837-7.163 16-16 16z" fill="#faa019"/></g><g><path d="m480 352h-448c-4.418 0-8-3.582-8-8 0-4.418 3.582-8 8-8h448c4.418 0 8 3.582 8 8 0 4.418-3.582 8-8 8z" fill="#ffd205"/></g><g><path d="m304 384v56c0 8.837 7.163 16 16 16 8.837 0 16-7.163 16-16v-48c0-4.418 3.582-8 8-8 4.418 0 8 3.582 8 8 0 8.837 7.163 16 16 16 8.837 0 16-7.163 16-16v-8c0-8.837 7.163-16 16-16h-112c8.837 0 16 7.163 16 16z" fill="#faa019"/></g><g><path d="m96 384v16c0 8.837 7.163 16 16 16 8.837 0 16-7.163 16-16v-8c0-4.418 3.582-8 8-8 4.418 0 8 3.582 8 8 0 8.837 7.163 16 16 16 8.837 0 16-7.163 16-16v-8c0-8.837 7.163-16 16-16h-112c8.837 0 16 7.163 16 16z" fill="#faa019"/></g><g><circle cx="72" cy="328" fill="#f0915a" r="8"/></g><g><circle cx="184" cy="312" fill="#f0915a" r="8"/></g><g><circle cx="218.667" cy="205.333" fill="#d26e28" r="8"/></g><g><circle cx="365.333" cy="264" fill="#d26e28" r="8"/></g><g><circle cx="328" cy="312" fill="#f0915a" r="8"/></g><g><circle cx="424" cy="392" fill="#f0915a" r="8"/></g><g><circle cx="252" cy="388" fill="#f0915a" r="4"/></g><g><circle cx="284" cy="324" fill="#f0915a" r="4"/></g><g><circle cx="294.667" cy="246.667" fill="#d26e28" r="4"/></g><g><circle cx="377.333" cy="244" fill="#d26e28" r="4"/></g><g><circle cx="286.667" cy="140" fill="#d26e28" r="4"/></g><g><circle cx="129.333" cy="257.333" fill="#d26e28" r="4"/></g><g><circle cx="68" cy="388" fill="#f0915a" r="4"/></g><g><circle cx="452" cy="316" fill="#f0915a" r="4"/></g><g><path d="m256 128c-8.837 0-16 7.163-16 16v144h32v-144c0-8.837-7.163-16-16-16z" fill="#d26e28"/></g><g><path d="m336 176c-8.837 0-16 7.163-16 16v96h32v-96c0-8.837-7.163-16-16-16z" fill="#d26e28"/></g><g><path d="m416 240c-8.837 0-16 7.163-16 16v32h32v-32c0-8.837-7.163-16-16-16z" fill="#d26e28"/></g><g><path d="m176 176c8.837 0 16 7.163 16 16v96h-32v-96c0-8.837 7.163-16 16-16z" fill="#d26e28"/></g><g><path d="m96 240c8.837 0 16 7.163 16 16v32h-32v-32c0-8.837 7.163-16 16-16z" fill="#d26e28"/></g></g></svg>