<svg id="Layer_1" enable-background="new 0 0 512 512" height="512" viewBox="0 0 512 512" width="512" xmlns="http://www.w3.org/2000/svg"><g><g><path d="m484.878 145.659-104-80c-2.192-1.687-5.099-2.122-7.688-1.149-2.589.971-4.493 3.21-5.035 5.921l-24 120c-.554 2.77.394 5.626 2.494 7.516 1.489 1.34 3.402 2.053 5.352 2.053.798 0 1.602-.119 2.385-.364l128-40c2.85-.89 4.966-3.293 5.49-6.232.523-2.939-.632-5.925-2.998-7.745z" fill="#faa019"/><g><g><circle cx="408.001" cy="119.999" fill="#f06423" r="8"/></g><g><circle cx="444" cy="156" fill="#f06423" r="4"/></g><g><circle cx="380" cy="124" fill="#f06423" r="4"/></g></g></g><g><path d="m448 208c-5.962 0-11.539 1.635-16.318 4.475.205-1.463.318-2.955.318-4.475 0-17.673-14.327-32-32-32-5.916 0-11.452 1.611-16.206 4.41-1.785-15.982-15.335-28.41-31.794-28.41-7.838 0-15.015 2.822-20.579 7.501-5.6-9.288-15.784-15.501-27.421-15.501-6.59 0-12.713 1.994-17.803 5.408-4.372-12.466-16.237-21.408-30.197-21.408s-25.825 8.942-30.197 21.408c-5.09-3.414-11.213-5.408-17.803-5.408-11.637 0-21.821 6.213-27.421 15.501-5.564-4.679-12.741-7.501-20.579-7.501-16.459 0-30.009 12.428-31.794 28.41-4.754-2.799-10.29-4.41-16.206-4.41-17.673 0-32 14.327-32 32 0 1.52.113 3.012.318 4.475-4.779-2.84-10.356-4.475-16.318-4.475-17.673 0-32 14.327-32 32s14.327 32 32 32 366.327 0 384 0 32-14.327 32-32-14.327-32-32-32z" fill="#5faa46"/></g><g><path d="m283.708 272c2.725-4.708 4.292-10.169 4.292-16 0-9.561-4.198-18.136-10.845-24 6.647-5.864 10.845-14.439 10.845-24s-4.198-18.136-10.845-24c6.647-5.864 10.845-14.439 10.845-24 0-17.673-14.327-32-32-32-13.96 0-25.825 8.942-30.197 21.408-5.09-3.414-11.213-5.408-17.803-5.408-11.637 0-21.821 6.213-27.421 15.501-5.564-4.679-12.741-7.501-20.579-7.501-16.459 0-30.009 12.428-31.794 28.41-4.754-2.799-10.29-4.41-16.206-4.41-17.673 0-32 14.327-32 32 0 1.52.113 3.012.318 4.475-4.779-2.84-10.356-4.475-16.318-4.475-17.673 0-32 14.327-32 32s14.327 32 32 32z" fill="#91c83c"/></g><g><g><path d="m368 400h-224c-70.692 0-128-57.307-128-128 0-8.837 7.163-16 16-16h448c8.837 0 16 7.163 16 16 0 70.693-57.307 128-128 128z" fill="#463c4b"/></g><g><path d="m320 272c0-8.836-7.164-16-16-16h-272c-8.837 0-16 7.164-16 16 0 70.692 57.308 128 128 128h48c70.692 0 128-57.308 128-128z" fill="#555a6e"/></g><g><path d="m352 432h-192c-8.837 0-16-7.163-16-16v-16h224v16c0 8.837-7.163 16-16 16z" fill="#463c4b"/></g></g><g><circle cx="104" cy="306.667" fill="#463c4b" r="8"/></g><g><circle cx="197.333" cy="370.667" fill="#463c4b" r="8"/></g><g><circle cx="116" cy="286.667" fill="#463c4b" r="4"/></g><g><circle cx="212" cy="342.667" fill="#463c4b" r="4"/></g><g><circle cx="422.923" cy="327.286" fill="#555a6e" r="8"/></g><g><circle cx="392.753" cy="336.714" fill="#555a6e" r="4"/></g><g><circle cx="270.667" cy="300" fill="#463c4b" r="4"/></g><g><circle cx="224" cy="184" fill="#f04b37" r="8"/></g><g><circle cx="152" cy="216" fill="#f04b37" r="8"/></g><g><circle cx="360" cy="232" fill="#e1322d" r="8"/></g><g><circle cx="324" cy="188" fill="#e1322d" r="4"/></g><g><circle cx="248" cy="232" fill="#804b8f" r="8"/></g><g><circle cx="124" cy="228" fill="#804b8f" r="4"/></g><g><circle cx="188" cy="188" fill="#804b8f" r="4"/></g><g><circle cx="388" cy="220" fill="#643773" r="4"/></g></g></svg>