<svg id="Layer_1" enable-background="new 0 0 512 512" height="512" viewBox="0 0 512 512" width="512" xmlns="http://www.w3.org/2000/svg"><g><g><path d="m304 64v384c0 26.51-21.49 48-48 48-26.51 0-48-21.49-48-48v-384c0-26.51 21.49-48 48-48 26.51 0 48 21.49 48 48z" fill="#e1322d"/></g><g><path d="m304 64h-32c-8.837 0-16 7.163-16 16v368c0 13.255-10.745 24-24 24-13.255 0-24-10.745-24-24v-384c0-26.51 21.49-48 48-48 26.51 0 48 21.49 48 48z" fill="#f04b37"/></g><g><path d="m120 96v320c0 35.346 28.654 64 64 64 17.673 0 32-14.327 32-32v-384c0-17.673-14.327-32-32-32-35.346 0-64 28.654-64 64z" fill="#faa01e"/></g><g><path d="m216 64v384c0 17.673-14.327 32-32 32v-448c17.673 0 32 14.327 32 32z" fill="#f5871e"/></g><g><circle cx="144" cy="256" fill="#faf0dc" r="8"/></g><g><circle cx="192" cy="208" fill="#ffd23c" r="8"/></g><g><circle cx="144" cy="352" fill="#faf0dc" r="8"/></g><g><circle cx="192" cy="304" fill="#ffd23c" r="8"/></g><g><circle cx="144" cy="160" fill="#faf0dc" r="8"/></g><g><path d="m392 96v320c0 35.346-28.654 64-64 64-17.673 0-32-14.327-32-32v-384c0-17.673 14.327-32 32-32 35.346 0 64 28.654 64 64z" fill="#faa01e"/></g><g><path d="m328 480v-448c35.346 0 64 28.654 64 64v320c0 35.346-28.654 64-64 64z" fill="#f5871e"/></g><g><circle cx="368" cy="256" fill="#ffd23c" r="8"/></g><g><circle cx="336" cy="208" fill="#ffd23c" r="8"/></g><g><circle cx="368" cy="352" fill="#ffd23c" r="8"/></g><g><circle cx="336" cy="304" fill="#ffd23c" r="8"/></g><g><circle cx="368" cy="160" fill="#ffd23c" r="8"/></g><g><path d="m288 432h-40c-17.645 0-32-14.355-32-32s14.355-32 32-32h16c8.822 0 16-7.177 16-16s-7.178-16-16-16h-16c-17.645 0-32-14.355-32-32s14.355-32 32-32h16c8.822 0 16-7.177 16-16s-7.178-16-16-16h-16c-17.645 0-32-14.355-32-32s14.355-32 32-32h16c8.822 0 16-7.177 16-16s-7.178-16-16-16h-16c-17.645 0-32-14.355-32-32s14.355-32 32-32h40c4.418 0 8 3.582 8 8s-3.582 8-8 8h-40c-8.822 0-16 7.177-16 16s7.178 16 16 16h16c17.645 0 32 14.355 32 32s-14.355 32-32 32h-16c-8.822 0-16 7.177-16 16s7.178 16 16 16h16c17.645 0 32 14.355 32 32s-14.355 32-32 32h-16c-8.822 0-16 7.177-16 16s7.178 16 16 16h16c17.645 0 32 14.355 32 32s-14.355 32-32 32h-16c-8.822 0-16 7.177-16 16s7.178 16 16 16h40c4.418 0 8 3.582 8 8s-3.582 8-8 8z" fill="#ffd205"/></g></g></svg>