<svg id="Layer_1" enable-background="new 0 0 512 512" height="512" viewBox="0 0 512 512" width="512" xmlns="http://www.w3.org/2000/svg"><g><g><g><path d="m304 216v-200h-16v200c0 4.418 3.582 8 8 8 4.418 0 8-3.582 8-8z" fill="#737079"/></g><g><path d="m296 224v-208h-8v200c0 4.418 3.582 8 8 8z" fill="#96aab9"/></g></g><g><g><path d="m448 384h-256c-17.673 0-32-14.327-32-32v-32c0-17.673 14.327-32 32-32h256c17.673 0 32 14.327 32 32v32c0 17.673-14.327 32-32 32z" fill="#faa019"/></g><g><path d="m288 384h-96c-17.673 0-32-14.327-32-32v-32c0-17.673 14.327-32 32-32h96c17.673 0 32 14.327 32 32v32c0 17.673-14.327 32-32 32z" fill="#ffd205"/></g><g><path d="m288 372h-96c-11.028 0-20-8.972-20-20v-32c0-11.028 8.972-20 20-20h96c11.028 0 20 8.972 20 20v32c0 11.028-8.972 20-20 20zm-96-64c-6.617 0-12 5.383-12 12v32c0 6.617 5.383 12 12 12h96c6.617 0 12-5.383 12-12v-32c0-6.617-5.383-12-12-12z" fill="#faa019"/></g><g><path d="m280 356h-80c-6.617 0-12-5.383-12-12v-16c0-6.617 5.383-12 12-12h80c6.617 0 12 5.383 12 12v16c0 6.617-5.383 12-12 12zm-80-32c-2.206 0-4 1.794-4 4v16c0 2.206 1.794 4 4 4h80c2.206 0 4-1.794 4-4v-16c0-2.206-1.794-4-4-4z" fill="#faa019"/></g><g><path d="m272 340h-64c-2.209 0-4-1.791-4-4s1.791-4 4-4h64c2.209 0 4 1.791 4 4s-1.791 4-4 4z" fill="#faa019"/></g><g><circle cx="200" cy="309.333" fill="#f04b37" r="8"/></g><g><circle cx="296" cy="344" fill="#f04b37" r="8"/></g><g><circle cx="216" cy="344" fill="#5faa46" r="8"/></g><g><circle cx="196" cy="356" fill="#f04b37" r="4"/></g><g><circle cx="284" cy="356" fill="#5faa46" r="4"/></g><g><circle cx="260" cy="313.333" fill="#5faa46" r="4"/></g><g><circle cx="252" cy="356" fill="#5faa46" r="4"/></g><g><circle cx="172" cy="348" fill="#f04b37" r="4"/></g><g><circle cx="292" cy="313.333" fill="#f04b37" r="4"/></g></g><g><path d="m32 384h448c8.837 0 16 7.163 16 16 0 8.837-7.163 16-16 16h-448c-8.837 0-16-7.163-16-16 0-8.837 7.163-16 16-16z" fill="#d7e6f0"/></g><g><path d="m77.333 416h357.333l-25.473 23.514c-5.911 5.456-13.66 8.486-21.705 8.486h-262.977c-8.044 0-15.794-3.03-21.705-8.486z" fill="#a5c3dc"/></g><g><g><path d="m224 384h-160c-17.673 0-32-14.327-32-32v-32c0-17.673 14.327-32 32-32h160c17.673 0 32 14.327 32 32v32c0 17.673-14.327 32-32 32z" fill="#faa019"/></g><g><path d="m160 384h-96c-17.673 0-32-14.327-32-32v-32c0-17.673 14.327-32 32-32h96c17.673 0 32 14.327 32 32v32c0 17.673-14.327 32-32 32z" fill="#ffd205"/></g><g><path d="m160 372h-96c-11.028 0-20-8.972-20-20v-32c0-11.028 8.972-20 20-20h96c11.028 0 20 8.972 20 20v32c0 11.028-8.972 20-20 20zm-96-64c-6.617 0-12 5.383-12 12v32c0 6.617 5.383 12 12 12h96c6.617 0 12-5.383 12-12v-32c0-6.617-5.383-12-12-12z" fill="#faa019"/></g><g><path d="m152 356h-80c-6.617 0-12-5.383-12-12v-16c0-6.617 5.383-12 12-12h80c6.617 0 12 5.383 12 12v16c0 6.617-5.383 12-12 12zm-80-32c-2.206 0-4 1.794-4 4v16c0 2.206 1.794 4 4 4h80c2.206 0 4-1.794 4-4v-16c0-2.206-1.794-4-4-4z" fill="#faa019"/></g><g><path d="m144 340h-64c-2.209 0-4-1.791-4-4s1.791-4 4-4h64c2.209 0 4 1.791 4 4s-1.791 4-4 4z" fill="#faa019"/></g><g><circle cx="72" cy="309.333" fill="#f04b37" r="8"/></g><g><circle cx="168" cy="344" fill="#f04b37" r="8"/></g><g><circle cx="88" cy="344" fill="#5faa46" r="8"/></g><g><circle cx="68" cy="356" fill="#f04b37" r="4"/></g><g><circle cx="156" cy="356" fill="#5faa46" r="4"/></g><g><circle cx="132" cy="313.333" fill="#5faa46" r="4"/></g><g><circle cx="124" cy="356" fill="#5faa46" r="4"/></g><g><circle cx="44" cy="348" fill="#f04b37" r="4"/></g><g><circle cx="164" cy="313.333" fill="#f04b37" r="4"/></g></g><g><g><path d="m336 128h-160c-17.673 0-32 14.327-32 32v32c0 17.673 14.327 32 32 32h160c17.673 0 32-14.327 32-32v-32c0-17.673-14.327-32-32-32z" fill="#faa019"/></g><g><path d="m272 128h-96c-17.673 0-32 14.327-32 32v32c0 17.673 14.327 32 32 32h96c17.673 0 32-14.327 32-32v-32c0-17.673-14.327-32-32-32z" fill="#ffd205"/></g><g><path d="m272 212h-96c-11.028 0-20-8.972-20-20v-32c0-11.028 8.972-20 20-20h96c11.028 0 20 8.972 20 20v32c0 11.028-8.972 20-20 20zm-96-64c-6.617 0-12 5.383-12 12v32c0 6.617 5.383 12 12 12h96c6.617 0 12-5.383 12-12v-32c0-6.617-5.383-12-12-12z" fill="#faa019"/></g><g><path d="m264 196h-80c-6.617 0-12-5.383-12-12v-16c0-6.617 5.383-12 12-12h80c6.617 0 12 5.383 12 12v16c0 6.617-5.383 12-12 12zm-80-32c-2.206 0-4 1.794-4 4v16c0 2.206 1.794 4 4 4h80c2.206 0 4-1.794 4-4v-16c0-2.206-1.794-4-4-4z" fill="#faa019"/></g><g><path d="m256 180h-64c-2.209 0-4-1.791-4-4s1.791-4 4-4h64c2.209 0 4 1.791 4 4s-1.791 4-4 4z" fill="#faa019"/></g><g><circle cx="184" cy="202.667" fill="#f04b37" r="8"/></g><g><circle cx="280" cy="168" fill="#f04b37" r="8"/></g><g><circle cx="200" cy="168" fill="#5faa46" r="8"/></g><g><circle cx="180" cy="156" fill="#f04b37" r="4"/></g><g><circle cx="268" cy="156" fill="#5faa46" r="4"/></g><g><circle cx="244" cy="198.667" fill="#5faa46" r="4"/></g><g><circle cx="236" cy="156" fill="#5faa46" r="4"/></g><g><circle cx="156" cy="164" fill="#f04b37" r="4"/></g><g><circle cx="276" cy="198.667" fill="#f04b37" r="4"/></g></g><g><g><path d="m224 216v-200h-16v200c0 4.418 3.582 8 8 8 4.418 0 8-3.582 8-8z" fill="#737079"/></g><g><path d="m216 224v-208h-8v200c0 4.418 3.582 8 8 8z" fill="#96aab9"/></g></g><g><g><circle cx="440" cy="344" fill="#ffd205" r="8"/></g><g><circle cx="380" cy="356" fill="#ffd205" r="4"/></g><g><circle cx="388" cy="316" fill="#ffd205" r="4"/></g><g><circle cx="452" cy="324" fill="#ffd205" r="4"/></g></g><g><g><circle cx="332" cy="196" fill="#ffd205" r="4"/></g><g><circle cx="340" cy="156" fill="#ffd205" r="4"/></g></g><g><circle cx="228" cy="348" fill="#ffd205" r="4"/></g></g></svg>