<svg id="Layer_1" enable-background="new 0 0 512 512" height="512" viewBox="0 0 512 512" width="512" xmlns="http://www.w3.org/2000/svg"><g><path d="m469.789 144.034c-2.116-2.116-4.681-3.497-7.386-4.181.599-.45 1.184-.931 1.729-1.476 6.249-6.249 6.248-16.379 0-22.628-2.116-2.116-4.681-3.497-7.386-4.181.599-.45 1.184-.931 1.729-1.476 6.249-6.249 6.249-16.38 0-22.628-2.116-2.116-4.681-3.497-7.386-4.181.599-.45 1.184-.931 1.729-1.477 6.249-6.248 6.248-16.379 0-22.627s-16.379-6.249-22.627 0c-.546.546-1.026 1.13-1.476 1.729-.683-2.705-2.064-5.271-4.181-7.387-2.891-2.891-6.612-4.443-10.396-4.659-.888-4.511-3.08-8.816-6.575-12.311-9.373-9.373-24.569-9.373-33.941 0-2 1.999-3.572 4.264-4.718 6.681-.295-.352-.608-.693-.938-1.024-6.249-6.248-16.379-6.248-22.627 0l-56.569 56.571 124.45 124.451 56.568-56.568c6.25-6.249 6.249-16.379.001-22.628z" fill="#5faa46"/><path d="m475.446 104.437c-3.495-3.495-7.8-5.687-12.311-6.575-.216-3.783-1.769-7.505-4.66-10.396-2.116-2.116-4.681-3.497-7.386-4.181.599-.45 1.184-.931 1.729-1.477 6.249-6.248 6.248-16.379 0-22.627l-101.823 101.824 62.225 62.226 56.568-56.568c6.249-6.249 6.249-16.379 0-22.628-.331-.33-.672-.644-1.024-.938 2.417-1.146 4.681-2.719 6.681-4.718 9.373-9.374 9.373-24.57.001-33.942z" fill="#91c83c"/><g><g><circle cx="396.25" cy="149.691" fill="#e1322d" r="56"/></g><g><circle cx="396.25" cy="149.691" fill="#f04b37" r="40"/></g></g><g><g><circle cx="362.309" cy="115.75" fill="#e1322d" r="56"/></g><g><circle cx="362.309" cy="115.75" fill="#f04b37" r="40"/></g></g><g><path d="m345.338 180.698c-12.292 0-24.583-4.679-33.941-14.036-18.715-18.716-18.715-49.167 0-67.883 18.717-18.715 49.166-18.715 67.883 0 18.715 18.716 18.715 49.167 0 67.883-9.359 9.358-21.65 14.036-33.942 14.036zm0-79.963c-8.194 0-16.389 3.12-22.627 9.358-12.478 12.477-12.478 32.777 0 45.254 12.477 12.477 32.777 12.477 45.254 0 12.478-12.477 12.478-32.777 0-45.254-6.238-6.238-14.433-9.358-22.627-9.358z" fill="#d7e6f0"/></g><g><path d="m379.279 214.64c-12.292 0-24.583-4.679-33.941-14.036-18.715-18.716-18.715-49.167 0-67.883 18.717-18.715 49.166-18.715 67.883 0 18.715 18.716 18.715 49.167 0 67.883-9.359 9.357-21.65 14.036-33.942 14.036zm0-79.963c-8.194 0-16.389 3.12-22.627 9.358-12.478 12.477-12.478 32.777 0 45.254 12.477 12.477 32.777 12.477 45.254 0 12.478-12.477 12.478-32.777 0-45.254-6.238-6.238-14.432-9.358-22.627-9.358z" fill="#d7e6f0"/></g><g><path d="m317.054 127.064 33.941 33.941 50.912-50.912c9.373-9.373 9.373-24.569 0-33.941-9.373-9.373-24.569-9.373-33.941 0z" fill="#8c3c14"/></g><g><path d="m350.995 161.005 33.941 33.941 50.912-50.912c9.373-9.373 9.373-24.569 0-33.941-9.373-9.373-24.569-9.373-33.941 0z" fill="#8c3c14"/></g><g><path d="m334.024 144.034 33.941 33.941 62.225-62.225c9.373-9.373 9.373-24.569 0-33.941-9.373-9.373-24.569-9.373-33.941 0z" fill="#d26e28"/></g><g><g><circle cx="418.877" cy="104.437" fill="#8c3c14" r="8"/></g><g><circle cx="390.593" cy="115.75" fill="#8c3c14" r="4"/></g><g><circle cx="373.622" cy="144.034" fill="#8c3c14" r="4"/></g></g><g><path d="m350.995 208.982c-12.292 0-24.583-4.679-33.941-14.036-18.715-18.716-18.715-49.167 0-67.883 18.717-18.715 49.166-18.715 67.883 0 18.715 18.716 18.715 49.167 0 67.883-9.359 9.358-21.65 14.036-33.942 14.036zm0-79.962c-8.194 0-16.389 3.12-22.627 9.358-12.478 12.477-12.478 32.777 0 45.254 12.477 12.477 32.777 12.477 45.254 0 12.478-12.477 12.478-32.777 0-45.254-6.238-6.238-14.433-9.358-22.627-9.358z" fill="#d7e6f0"/></g><g><g><path d="m68.152 398.593 79.196 79.196c6.248 6.248 16.379 6.248 22.627 0l260.215-260.215c6.248-6.248 6.248-16.379 0-22.627l-11.314-11.314c-37.49-37.49-98.274-37.49-135.764 0z" fill="#faa019"/></g><g><path d="m113.407 443.848-79.196-79.196c-6.248-6.248-6.248-16.379 0-22.627l260.215-260.216c6.248-6.248 16.379-6.248 22.627 0l11.314 11.314c37.49 37.49 37.49 98.274 0 135.764z" fill="#ffd23c"/></g></g><g><g><circle cx="300.083" cy="144.034" fill="#faa019" r="8"/></g><g><circle cx="271.799" cy="155.348" fill="#faa019" r="4"/></g><g><circle cx="254.828" cy="183.632" fill="#faa019" r="4"/></g></g><g><g><circle cx="220.887" cy="313.74" fill="#faa019" r="8"/></g><g><circle cx="79.466" cy="353.338" fill="#faa019" r="8"/></g><g><circle cx="232.201" cy="285.456" fill="#faa019" r="4"/></g><g><circle cx="181.289" cy="268.485" fill="#faa019" r="4"/></g></g></g></svg>