<svg id="Layer_1" enable-background="new 0 0 512 512" height="512" viewBox="0 0 512 512" width="512" xmlns="http://www.w3.org/2000/svg"><g><g><circle cx="256" cy="256" fill="#d7e6f0" r="240"/></g><g><g><circle cx="256" cy="256" fill="#a5c3dc" r="192"/></g></g><g><path d="m448 216c-9.806-4.903-16-14.925-16-25.889v-1.167c0-15.985-12.959-28.944-28.944-28.944h-294.112c-15.985 0-28.944 12.959-28.944 28.944v1.167c0 10.963-6.194 20.986-16 25.889s-16 14.925-16 25.889v28.223c0 10.963 6.194 20.986 16 25.889s16 14.925 16 25.889v1.167c0 15.984 12.959 28.943 28.944 28.943h294.111c15.986 0 28.945-12.959 28.945-28.944v-1.167c0-10.963 6.194-20.986 16-25.889s16-14.925 16-25.889v-28.223c0-10.963-6.194-20.985-16-25.888z" fill="#e1322d"/></g><g><path d="m392 144c0-12.66-7.352-23.602-18.019-28.792 1.305-3.488 2.019-7.265 2.019-11.208 0-17.673-14.327-32-32-32-3.024 0-5.95.42-8.723 1.204-3.117-14.409-15.936-25.204-31.277-25.204-5.706 0-11.062 1.494-15.701 4.11-.181-.047-.362-.094-.544-.14.162-1.301.245-2.625.245-3.97 0-17.673-14.327-32-32-32s-32 14.327-32 32c0 1.345.083 2.669.244 3.971-.181.046-.363.093-.544.14-4.638-2.617-9.994-4.111-15.7-4.111-15.341 0-28.16 10.795-31.277 25.204-2.773-.784-5.699-1.204-8.723-1.204-17.673 0-32 14.327-32 32 0 3.943.714 7.72 2.019 11.208-10.667 5.19-18.019 16.132-18.019 28.792 0 8.338 3.189 15.932 8.415 21.627-.275 3.421-.415 6.881-.415 10.373v160c0 70.692 57.308 128 128 128 70.692 0 128-57.308 128-128v-160c0-3.492-.14-6.952-.415-10.373 5.226-5.695 8.415-13.289 8.415-21.627z" fill="#f04b37"/></g><g><path d="m224 48c0 1.345.083 2.669.244 3.971-.181.046-.363.093-.544.14-4.638-2.617-9.994-4.111-15.7-4.111-15.341 0-28.16 10.795-31.277 25.204-2.773-.784-5.699-1.204-8.723-1.204-17.673 0-32 14.327-32 32 0 3.943.714 7.72 2.019 11.208-10.667 5.19-18.019 16.132-18.019 28.792 0 8.338 3.189 15.932 8.415 21.627-.275 3.421-.415 6.881-.415 10.373v160c0 35.346 28.654 64 64 64s64-28.654 64-64v-320c-17.673 0-32 14.327-32 32z" fill="#ff6e50"/></g><path d="m346.343 266.343-39.432 39.432c-10.419 10.42-19.574 21.821-27.396 34.097-1.734-11.421-3.323-22.864-4.767-34.324 9.095-25.452 23.799-48.78 43.478-68.459l39.432-39.432c3.124-3.125 3.124-8.189 0-11.314-3.125-3.123-8.189-3.123-11.314 0l-39.432 39.432c-14.383 14.384-26.358 30.635-35.741 48.481-.945-9.201-1.797-18.412-2.556-27.63 7.644-33.649 24.613-64.538 49.611-89.537l7.432-7.432c3.124-3.125 3.124-8.189 0-11.314-3.125-3.123-8.189-3.123-11.314 0l-7.432 7.432c-17.269 17.27-31.066 37.232-41.074 59.414-1.223-23.604-1.837-47.248-1.837-70.91v-30.279c0-4.418-3.582-8-8-8s-8 3.582-8 8v30.278c0 102.161-11.427 204-34.068 303.621l-3.992 17.563c14.292 5.515 29.822 8.538 46.059 8.538s31.767-3.023 46.06-8.538l-3.992-17.563c-5.498-24.19-10.334-48.511-14.506-72.935 8.79-17.484 20.424-33.635 34.664-47.875l39.432-39.432c3.124-3.125 3.124-8.189 0-11.314-3.126-3.123-8.19-3.123-11.315 0z" fill="#f5826e"/><path d="m248 104v30.278c0 23.662-.613 47.307-1.837 70.911-10.008-22.182-23.805-42.145-41.074-59.415l-7.432-7.432c-3.125-3.123-8.189-3.123-11.314 0-3.124 3.125-3.124 8.189 0 11.314l7.432 7.432c24.999 24.999 41.967 55.887 49.611 89.536-.759 9.219-1.611 18.43-2.555 27.631-9.383-17.846-21.358-34.098-35.741-48.481l-39.432-39.432c-3.125-3.123-8.189-3.123-11.314 0-3.124 3.125-3.124 8.189 0 11.314l39.432 39.432c19.679 19.679 34.382 43.007 43.478 68.459-1.444 11.46-3.033 22.902-4.767 34.324-7.822-12.276-16.977-23.677-27.396-34.097l-39.432-39.432c-3.125-3.123-8.189-3.123-11.314 0-3.124 3.125-3.124 8.189 0 11.314l39.432 39.432c14.244 14.244 25.872 30.404 34.66 47.896-.957 5.601-1.948 11.195-2.975 16.785-1.744 9.481 5.496 18.231 15.136 18.231 8.506 0 15.402-6.896 15.402-15.402v-288.598c-4.418 0-8 3.582-8 8z" fill="#ff9682"/><g><g><circle cx="365.333" cy="264" fill="#5faa46" r="8"/></g><g><circle cx="328" cy="312" fill="#e1322d" r="8"/></g><g><circle cx="294.667" cy="246.667" fill="#e1322d" r="4"/></g><g><circle cx="377.333" cy="244" fill="#e1322d" r="4"/></g></g><g><g><circle cx="320" cy="378.667" fill="#5faa46" r="8"/></g><g><circle cx="282.667" cy="426.667" fill="#5faa46" r="8"/></g><g><circle cx="249.333" cy="361.333" fill="#e1322d" r="4"/></g><g><circle cx="332" cy="358.667" fill="#e1322d" r="4"/></g></g><g><g><circle cx="344" cy="125.333" fill="#e1322d" r="8"/></g><g><circle cx="306.667" cy="173.333" fill="#e1322d" r="8"/></g><g><circle cx="273.333" cy="108" fill="#e1322d" r="4"/></g><g><circle cx="356" cy="105.333" fill="#5faa46" r="4"/></g><g><circle cx="404" cy="214.667" fill="#5faa46" r="4"/></g></g><g><g><circle cx="226.667" cy="122.667" fill="#5faa46" r="8"/></g><g><circle cx="189.333" cy="170.667" fill="#f04b37" r="8"/></g><g><circle cx="156" cy="105.333" fill="#f04b37" r="4"/></g><g><circle cx="238.667" cy="102.667" fill="#f04b37" r="4"/></g></g><g><g><circle cx="229.333" cy="296" fill="#5faa46" r="8"/></g><g><circle cx="192" cy="344" fill="#f04b37" r="8"/></g><g><circle cx="158.667" cy="278.667" fill="#f04b37" r="4"/></g><g><circle cx="241.333" cy="276" fill="#f04b37" r="4"/></g></g><g><g><circle cx="210.667" cy="208" fill="#f04b37" r="8"/></g><g><circle cx="173.333" cy="256" fill="#5faa46" r="8"/></g><g><circle cx="140" cy="190.667" fill="#f04b37" r="4"/></g><g><circle cx="222.667" cy="188" fill="#f04b37" r="4"/></g></g><g><g><circle cx="152" cy="245.333" fill="#f04b37" r="8"/></g><g><circle cx="114.667" cy="293.333" fill="#5faa46" r="8"/></g><g><circle cx="81.333" cy="228" fill="#f04b37" r="4"/></g><g><circle cx="164" cy="225.333" fill="#f04b37" r="4"/></g></g><g><circle cx="404" cy="372" fill="#e1322d" r="12"/></g><g><circle cx="76" cy="140" fill="#e1322d" r="12"/></g><g><circle cx="60" cy="164" fill="#e1322d" r="4"/></g></g></svg>