<svg id="Layer_1" enable-background="new 0 0 512 512" height="512" viewBox="0 0 512 512" width="512" xmlns="http://www.w3.org/2000/svg"><g><g><path d="m384 224h-32v-80c0-8.822-7.178-16-16-16h-16v-32h16c26.468 0 48 21.532 48 48z" fill="#50c3eb"/></g><g><path d="m368 160c-8.837 0-16-7.163-16-16 0-8.822-7.178-16-16-16h-16c-8.837 0-16-7.163-16-16s7.163-16 16-16h16c26.467 0 48 21.533 48 48 0 8.837-7.163 16-16 16z" fill="#9bd2f0"/></g><g><path d="m384 496h-256c-17.673 0-32-14.327-32-32v-160c0-88.365 71.634-160 160-160 88.365 0 160 71.634 160 160v160c0 17.673-14.327 32-32 32z" fill="#f06423"/></g><g><path d="m192 128h128v32h-128z" fill="#f06423"/></g><g><path d="m192 80h128v48h-128z" fill="#50c3eb"/></g><g><path d="m192 96h64v32h-64z" fill="#9bd2f0"/></g><g><path d="m192 128h64v32h-64z" fill="#faa019"/></g><g><path d="m216 128h16v32h-16z" fill="#ffd205"/></g><g><path d="m216 96h16v32h-16z" fill="#a5ffff"/></g><g><path d="m320 80h-128c-8.837 0-16-7.163-16-16v-32c0-8.837 7.163-16 16-16h128c8.837 0 16 7.163 16 16v32c0 8.837-7.163 16-16 16z" fill="#555a6e"/></g><g><path d="m256 80h64c8.837 0 16-7.163 16-16v-32h-80z" fill="#463c4b"/></g><path d="m256 144c-88.225 0-160 71.775-160 160v160h64v-160c0-52.935 43.065-96 96-96 17.673 0 32-14.327 32-32s-14.327-32-32-32z" fill="#faa019"/><g><path d="m256 208c-53.019 0-96 42.981-96 96v160h192v-160c0-53.019-42.981-96-96-96z" fill="#d7e6f0"/></g><path d="m328 312h-24c-2.122 0-4.156.843-5.657 2.343l-10.343 10.343v-36.686c0-2.122-.843-4.156-2.343-5.657l-24-24c-3.125-3.123-8.189-3.123-11.314 0l-24 24c-1.5 1.501-2.343 3.535-2.343 5.657v36.686l-10.343-10.343c-1.501-1.5-3.535-2.343-5.657-2.343h-24c-4.418 0-8 3.582-8 8v24c0 2.122.843 4.156 2.343 5.657l26.344 26.343-10.344 10.343c-2.287 2.288-2.972 5.729-1.733 8.719s4.155 4.938 7.39 4.938h42.667v10.667c0 7.363 5.969 13.333 13.333 13.333 7.364 0 13.333-5.97 13.333-13.333v-10.667h42.667c3.235 0 6.152-1.949 7.391-4.938s.554-6.431-1.733-8.719l-10.345-10.343 26.344-26.343c1.5-1.501 2.343-3.535 2.343-5.657v-24c0-4.418-3.582-8-8-8z" fill="#f04b37"/><g><path d="m256 256c-2.047 0-4.095.781-5.657 2.343l-24 24c-1.5 1.501-2.343 3.535-2.343 5.657v36.686l-10.343-10.343c-1.501-1.5-3.535-2.343-5.657-2.343h-24c-4.418 0-8 3.582-8 8v24c0 2.122.843 4.156 2.343 5.657l26.344 26.343-10.344 10.343c-2.287 2.288-2.972 5.729-1.733 8.719s4.155 4.938 7.39 4.938h42.667v10.667c0 7.363 5.969 13.333 13.333 13.333z" fill="#e1322d"/></g><g><path d="m120 472c-4.418 0-8-3.582-8-8v-160c0-38.415 14.995-74.561 42.225-101.778 3.124-3.121 8.189-3.123 11.313.003 3.123 3.124 3.122 8.189-.003 11.313-24.205 24.195-37.535 56.322-37.535 90.462v160c0 4.418-3.582 8-8 8z" fill="#ffd205"/></g></g></svg>