<svg id="Layer_1" enable-background="new 0 0 512 512" height="512" viewBox="0 0 512 512" width="512" xmlns="http://www.w3.org/2000/svg"><g><g><path d="m160 256h192v144h-192z" fill="#a5c3dc"/></g><g><path d="m264 64h-16c-61.856 0-112 50.144-112 112 0 44.183 35.817 80 80 80h80c44.183 0 80-35.817 80-80 0-61.856-50.144-112-112-112z" fill="#5faa46"/></g><g><path d="m32 400h448c8.837 0 16 7.163 16 16 0 8.837-7.163 16-16 16h-448c-8.837 0-16-7.163-16-16 0-8.837 7.163-16 16-16z" fill="#d7e6f0"/></g><g><path d="m77.333 432h357.333l-25.473 23.514c-5.911 5.456-13.66 8.486-21.705 8.486h-262.977c-8.044 0-15.794-3.03-21.705-8.486z" fill="#a5c3dc"/></g><g><path d="m144 208h-16c-61.856 0-112 50.144-112 112 0 44.183 35.817 80 80 80h80c44.183 0 80-35.817 80-80 0-61.856-50.144-112-112-112z" fill="#ff6955"/></g><g><path d="m384 208h-16c-61.856 0-112 50.144-112 112 0 44.183 35.817 80 80 80h80c44.183 0 80-35.817 80-80 0-61.856-50.144-112-112-112z" fill="#faa019"/></g><g><path d="m16 320h72c26.51 0 48-21.49 48-48v-64h-8c-61.856 0-112 50.144-112 112z" fill="#ff8773"/></g><g><path d="m256 320h72c26.51 0 48-21.49 48-48v-64h-8c-61.856 0-112 50.144-112 112z" fill="#ffd23c"/></g><g><path d="m136 176h72c26.51 0 48-21.49 48-48v-64h-8c-61.856 0-112 50.144-112 112z" fill="#afd763"/></g><g><path d="m96 384c-35.29 0-64-28.71-64-64 0-52.935 43.065-96 96-96h16c52.935 0 96 43.065 96 96 0 35.29-28.71 64-64 64z" fill="#a55023"/></g><g><g><circle cx="133.333" cy="317.333" fill="#8c3c14" r="8"/></g><g><circle cx="148" cy="289.333" fill="#8c3c14" r="4"/></g></g><g><g><circle cx="93.333" cy="266.667" fill="#8c3c14" r="8"/></g><g><circle cx="78.667" cy="294.667" fill="#8c3c14" r="4"/></g><g><circle cx="172" cy="260" fill="#8c3c14" r="4"/></g><g><circle cx="76" cy="334.667" fill="#8c3c14" r="4"/></g><g><circle cx="148" cy="356" fill="#8c3c14" r="4"/></g><g><circle cx="201.333" cy="292" fill="#8c3c14" r="4"/></g></g><g><g><circle cx="200" cy="322.667" fill="#8c3c14" r="8"/></g><g><circle cx="185.333" cy="350.667" fill="#8c3c14" r="4"/></g></g></g></svg>