<svg id="Layer_1" enable-background="new 0 0 512 512" height="512" viewBox="0 0 512 512" width="512" xmlns="http://www.w3.org/2000/svg"><g><g><path d="m112 192h288v32h-288z" fill="#f06423"/></g><path d="m282.979 180.06-65.949-80.813c-1.73-2.12-4.426-3.208-7.138-2.887-2.717.321-5.08 2.008-6.268 4.472l-45.275 93.968c-1.268 2.63-1.001 5.743.695 8.119 1.512 2.119 3.945 3.354 6.511 3.354.312 0 .626-.018.94-.055l111.225-13.155c2.899-.343 5.382-2.239 6.477-4.945 1.094-2.707.627-5.796-1.218-8.058z" fill="#faa019"/><path d="m212.724 190.739-51.61-90.644c-1.354-2.377-3.827-3.897-6.56-4.032-2.74-.145-5.344 1.137-6.923 3.369l-60.255 85.144c-1.687 2.383-1.94 5.496-.663 8.122s3.884 4.347 6.801 4.49l111.865 5.5c.132.006.263.01.394.01 2.77 0 5.354-1.436 6.814-3.811 1.529-2.488 1.581-5.611.137-8.148z" fill="#ffd205"/><path d="m369.451 158.902-86.831-57.795c-2.276-1.515-5.17-1.764-7.671-.655-2.501 1.107-4.264 3.416-4.672 6.12l-15.58 103.137c-.437 2.887.735 5.782 3.057 7.554 1.418 1.083 3.129 1.641 4.854 1.641 1.097 0 2.2-.226 3.237-.685l102.411-45.342c2.67-1.182 4.484-3.725 4.732-6.634.25-2.909-1.106-5.723-3.537-7.341z" fill="#f06423"/><path d="m220.748 255.258-21.425-102.083c-.562-2.677-2.452-4.881-5.012-5.845-2.561-.963-5.436-.551-7.622 1.091l-83.401 62.644c-2.335 1.753-3.528 4.64-3.114 7.53.413 2.89 2.369 5.326 5.102 6.354l104.826 39.439c.916.344 1.869.512 2.816.512 1.881 0 3.735-.663 5.209-1.927 2.217-1.9 3.221-4.857 2.621-7.715z" fill="#f06423"/><path d="m417.414 195.091-44.801-94.196c-1.175-2.47-3.53-4.169-6.245-4.504-2.71-.335-5.412.741-7.152 2.851l-66.356 80.479c-1.857 2.253-2.34 5.339-1.259 8.051s3.554 4.62 6.452 4.978l111.157 13.717c.328.041.655.06.98.06 2.55 0 4.973-1.22 6.487-3.32 1.709-2.368 1.991-5.479.737-8.116z" fill="#faa019"/><path d="m328.97 209.763-84.508-61.143c-2.217-1.604-5.097-1.963-7.64-.955-2.543 1.009-4.394 3.247-4.907 5.933l-19.597 102.45c-.549 2.868.509 5.807 2.759 7.667 1.459 1.207 3.268 1.835 5.1 1.835.994 0 1.995-.185 2.949-.564l104.104-41.307c2.714-1.077 4.626-3.547 4.988-6.444.362-2.896-.883-5.76-3.248-7.472z" fill="#faa019"/><path d="m406.571 219.1-75.875-71.575c-1.989-1.877-4.805-2.608-7.451-1.936-2.652.671-4.777 2.65-5.635 5.247l-32.703 99.048c-.915 2.773-.248 5.824 1.742 7.96 1.533 1.646 3.663 2.548 5.854 2.548.653 0 1.313-.08 1.962-.245l108.579-27.474c2.83-.716 5.046-2.917 5.78-5.744.736-2.824-.129-5.826-2.253-7.829z" fill="#f06423"/><path d="m464.334 252.372-27.708-100.56c-.727-2.637-2.75-4.72-5.365-5.523-2.613-.802-5.459-.213-7.539 1.562l-79.36 67.69c-2.222 1.895-3.234 4.849-2.643 7.708s2.695 5.169 5.486 6.026l107.068 32.87c.771.237 1.563.352 2.347.352 2.052 0 4.061-.79 5.575-2.262 2.095-2.034 2.914-5.048 2.139-7.863z" fill="#faa019"/><path d="m169.366 207.462-86.389-58.456c-2.265-1.533-5.156-1.802-7.666-.714s-4.289 3.383-4.719 6.084l-16.364 103.016c-.458 2.884.691 5.788 2.999 7.577 1.428 1.107 3.157 1.678 4.903 1.678 1.077 0 2.16-.217 3.182-.661l102.754-44.56c2.679-1.162 4.512-3.69 4.783-6.598.27-2.906-1.065-5.729-3.483-7.366z" fill="#faa019"/><g><path d="m480 224h-448c-8.837 0-16 7.164-16 16 0 70.692 57.308 128 128 128v16c0 8.836 7.164 16 16 16h192c8.836 0 16-7.164 16-16v-16c70.692 0 128-57.308 128-128 0-8.836-7.164-16-16-16z" fill="#e1322d"/><g><path d="m320 240c0-8.836-7.164-16-16-16h-272c-8.837 0-16 7.164-16 16 0 70.692 57.308 128 128 128h48c70.692 0 128-57.308 128-128z" fill="#f04b37"/></g></g><g><path d="m232 296c-3.3 0-6.366 1-8.913 2.713-2.186-6.235-8.106-10.713-15.087-10.713-3.3 0-6.366 1-8.913 2.713-2.186-6.235-8.106-10.713-15.087-10.713-3.3 0-6.366 1-8.913 2.713-2.186-6.235-8.106-10.713-15.087-10.713s-12.901 4.478-15.087 10.713c-2.547-1.713-5.613-2.713-8.913-2.713-6.981 0-12.901 4.478-15.087 10.713-2.547-1.713-5.613-2.713-8.913-2.713-6.981 0-12.901 4.478-15.087 10.713-2.547-1.713-5.613-2.713-8.913-2.713-8.836 0-16 7.164-16 16s7.164 16 16 16h144c8.836 0 16-7.164 16-16s-7.164-16-16-16z" fill="#5faa46"/></g><g><path d="m170.559 300c3.33-2.932 5.441-7.215 5.441-12 0-8.836-7.164-16-16-16-6.981 0-12.901 4.478-15.087 10.712-2.547-1.712-5.613-2.712-8.913-2.712-6.981 0-12.901 4.478-15.087 10.713-2.547-1.713-5.613-2.713-8.913-2.713-6.981 0-12.901 4.478-15.087 10.713-2.547-1.713-5.613-2.713-8.913-2.713-8.836 0-16 7.164-16 16s7.164 16 16 16h72c8.836 0 16-7.164 16-16 0-4.785-2.112-9.068-5.441-12z" fill="#91c83c"/></g><path d="m240 320h-160c-8.836 0-16 7.164-16 16 0 29.822 20.396 54.879 48 61.984v2.016c0 8.836 7.164 16 16 16h64c8.836 0 16-7.164 16-16v-2.016c27.604-7.105 48-32.162 48-61.984 0-8.836-7.164-16-16-16z" fill="#a5c3dc"/><g><path d="m192 336c0-8.836-7.164-16-16-16h-96c-8.836 0-16 7.164-16 16 0 35.346 28.654 64 64 64 35.346 0 64-28.654 64-64z" fill="#d7e6f0"/></g><g><g><circle cx="426.667" cy="194.667" fill="#f06423" r="8"/></g><g><circle cx="406.667" cy="214.667" fill="#f06423" r="4"/></g><g><circle cx="414.667" cy="182.667" fill="#f06423" r="4"/></g></g><g><g><circle cx="266.667" cy="189.333" fill="#f06423" r="8"/></g><g><circle cx="246.667" cy="209.333" fill="#f06423" r="4"/></g><g><circle cx="254.667" cy="177.333" fill="#f06423" r="4"/></g></g><g><g><circle cx="106.667" cy="189.333" fill="#f06423" r="8"/></g><g><circle cx="86.667" cy="209.333" fill="#f06423" r="4"/></g><g><circle cx="94.667" cy="177.333" fill="#f06423" r="4"/></g></g><g><g><circle cx="157.333" cy="141.333" fill="#faa019" r="8"/></g><g><circle cx="137.333" cy="161.333" fill="#faa019" r="4"/></g><g><circle cx="145.333" cy="129.333" fill="#faa019" r="4"/></g></g><g><g><circle cx="212" cy="161.333" fill="#f06423" r="4"/></g><g><circle cx="220" cy="129.333" fill="#f06423" r="4"/></g></g><g><g><circle cx="358.667" cy="158.667" fill="#f06423" r="4"/></g><g><circle cx="366.667" cy="126.667" fill="#f06423" r="4"/></g></g></g></svg>