<svg id="Layer_1" enable-background="new 0 0 512 512" height="512" viewBox="0 0 512 512" width="512" xmlns="http://www.w3.org/2000/svg"><g><g><circle cx="256" cy="256" fill="#d7e6f0" r="240"/></g><g><circle cx="264" cy="264" fill="#a5c3dc" r="200"/></g><g><circle cx="256" cy="256" fill="#4b8c41" r="192"/></g><path d="m415.96 264.768c-.065-.007-.131-.013-.196-.018.014-.251.027-.502.039-.753.066.002.131.003.197.003 4.418 0 8-3.582 8-8s-3.582-8-8-8c-.066 0-.131.001-.197.003-.012-.251-.026-.502-.039-.753.065-.005.13-.011.196-.018 4.394-.462 7.582-4.398 7.12-8.792s-4.398-7.582-8.792-7.12c-.059.006-.118.013-.177.021-.038-.249-.077-.498-.117-.746.058-.011.115-.022.173-.035 4.322-.919 7.08-5.167 6.162-9.488-.919-4.322-5.167-7.081-9.489-6.162-.053.011-.105.023-.157.035-.064-.244-.13-.488-.195-.731.051-.016.102-.031.153-.048 4.202-1.365 6.502-5.879 5.136-10.081s-5.879-6.502-10.081-5.136c-.05.016-.099.033-.149.05-.09-.236-.18-.471-.271-.707.048-.02.096-.041.144-.062 4.036-1.797 5.852-6.526 4.054-10.562-1.797-4.036-6.526-5.852-10.562-4.054-.051.023-.101.046-.151.07-.114-.225-.228-.45-.344-.674.049-.027.097-.054.145-.081 3.826-2.209 5.137-7.102 2.928-10.928s-7.102-5.137-10.928-2.928c-.053.03-.104.061-.156.093-.137-.211-.274-.422-.412-.633.05-.035.1-.07.149-.105 3.574-2.597 4.367-7.6 1.77-11.174s-7.6-4.367-11.174-1.77c-.053.038-.105.077-.156.117-.158-.196-.316-.391-.475-.586.049-.042.098-.085.147-.129 3.283-2.956 3.548-8.015.592-11.298-2.957-3.283-8.015-3.549-11.298-.592-.05.045-.099.09-.147.136-.177-.178-.355-.356-.533-.533.046-.048.091-.098.136-.147 2.956-3.283 2.691-8.342-.592-11.298s-8.342-2.691-11.298.592c-.044.048-.086.097-.129.147-.195-.159-.39-.317-.586-.475.039-.052.078-.104.117-.156 2.597-3.574 1.805-8.577-1.77-11.174s-8.577-1.805-11.174 1.77c-.036.049-.071.099-.105.149-.211-.138-.421-.275-.633-.412.031-.052.063-.103.093-.156 2.209-3.826.898-8.719-2.928-10.928s-8.719-.898-10.928 2.928c-.028.048-.055.097-.082.145-.224-.115-.449-.229-.674-.344.024-.05.047-.1.07-.151 1.797-4.036-.018-8.765-4.054-10.562s-8.765.018-10.562 4.054c-.021.048-.042.096-.062.144-.235-.091-.471-.181-.707-.271.017-.049.034-.099.05-.149 1.365-4.202-.934-8.715-5.136-10.081-4.202-1.365-8.715.934-10.081 5.136-.016.051-.032.102-.048.153-.243-.066-.487-.131-.731-.195.012-.052.024-.104.035-.157.919-4.322-1.84-8.57-6.162-9.488-4.322-.919-8.57 1.84-9.489 6.162-.012.058-.023.115-.034.173-.249-.04-.498-.078-.746-.117.007-.059.015-.117.021-.177.462-4.394-2.726-8.331-7.12-8.792-4.394-.462-8.331 2.726-8.792 7.12-.007.065-.013.131-.018.196-.251-.013-.502-.027-.753-.039.002-.068.003-.133.003-.199 0-4.418-3.582-8-8-8s-8 3.582-8 8c0 .066.001.131.002.197-.251.012-.502.026-.753.039-.005-.065-.011-.13-.018-.196-.462-4.394-4.398-7.582-8.792-7.12s-7.582 4.398-7.12 8.792c.006.059.013.118.021.177-.249.038-.498.077-.746.117-.011-.058-.022-.115-.034-.173-.919-4.322-5.167-7.081-9.489-6.162s-7.08 5.167-6.162 9.488c.011.053.023.105.035.157-.244.065-.488.13-.731.195-.016-.051-.031-.102-.048-.153-1.365-4.202-5.879-6.502-10.081-5.136-4.202 1.365-6.502 5.879-5.136 10.081.016.05.033.099.05.149-.236.09-.471.18-.707.271-.02-.048-.041-.096-.062-.144-1.797-4.036-6.526-5.852-10.562-4.054-4.036 1.797-5.852 6.526-4.054 10.562.023.051.046.101.07.151-.225.114-.449.228-.674.344-.027-.049-.054-.097-.082-.145-2.209-3.826-7.102-5.137-10.928-2.928s-5.137 7.102-2.928 10.928c.03.053.061.104.093.156-.211.137-.422.274-.633.412-.035-.05-.069-.1-.105-.149-2.597-3.574-7.6-4.367-11.174-1.77s-4.367 7.6-1.77 11.174c.038.053.077.105.117.156-.196.158-.391.316-.586.475-.042-.049-.085-.098-.129-.147-2.956-3.283-8.015-3.549-11.298-.592-3.283 2.956-3.548 8.015-.592 11.298.045.05.09.099.136.147-.178.177-.356.355-.533.533-.048-.046-.098-.091-.147-.136-3.283-2.956-8.342-2.691-11.298.592s-2.691 8.342.592 11.298c.048.044.097.086.147.129-.159.195-.317.39-.475.586-.052-.039-.104-.078-.156-.117-3.574-2.597-8.577-1.805-11.174 1.77-2.597 3.574-1.805 8.577 1.77 11.174.049.036.099.071.149.105-.138.211-.275.421-.412.633-.052-.031-.103-.062-.156-.093-3.826-2.209-8.719-.898-10.928 2.928s-.898 8.719 2.928 10.928c.048.028.097.055.145.081-.115.224-.229.449-.344.674-.05-.024-.1-.047-.151-.07-4.036-1.797-8.765.018-10.562 4.054s.018 8.765 4.054 10.562c.048.021.096.042.144.062-.091.235-.181.471-.271.707-.049-.017-.099-.034-.149-.05-4.202-1.365-8.715.934-10.081 5.136s.934 8.715 5.136 10.081c.051.017.102.032.153.048-.066.243-.131.487-.195.731-.052-.012-.104-.024-.157-.035-4.322-.919-8.57 1.84-9.489 6.162s1.84 8.57 6.162 9.488c.058.012.115.024.173.035-.04.249-.078.497-.117.746-.059-.007-.118-.015-.177-.021-4.394-.462-8.331 2.726-8.792 7.12-.462 4.394 2.726 8.331 7.12 8.792.065.007.131.013.196.018-.014.251-.027.502-.039.753-.065 0-.13-.001-.196-.001-4.418 0-8 3.582-8 8s3.582 8 8 8c.066 0 .131-.001.197-.003.012.251.026.502.039.753-.065.005-.13.011-.196.018-4.394.462-7.582 4.398-7.12 8.792s4.398 7.582 8.792 7.12c.059-.006.118-.013.177-.021.038.249.077.498.117.746-.058.011-.115.022-.173.035-4.322.919-7.08 5.167-6.162 9.488.919 4.322 5.167 7.081 9.489 6.162.053-.011.105-.023.157-.035.064.244.13.488.195.731-.051.016-.102.031-.153.048-4.202 1.365-6.502 5.879-5.136 10.081s5.879 6.502 10.081 5.136c.05-.016.099-.033.149-.05.09.236.18.471.271.707-.048.02-.096.041-.144.062-4.036 1.797-5.852 6.526-4.054 10.562 1.797 4.036 6.526 5.852 10.562 4.055.051-.023.101-.046.151-.07.114.225.228.449.344.674-.049.027-.097.054-.145.081-3.826 2.209-5.137 7.102-2.928 10.928s7.102 5.137 10.928 2.928c.053-.03.104-.061.156-.093.137.211.274.422.412.633-.05.035-.1.07-.149.105-3.574 2.597-4.367 7.6-1.77 11.174s7.6 4.367 11.174 1.77c.053-.038.105-.077.156-.117.158.196.316.391.475.586-.049.042-.098.085-.147.129-3.283 2.956-3.548 8.015-.592 11.298 2.957 3.283 8.015 3.549 11.298.592.05-.045.099-.09.147-.136.177.178.355.356.533.533-.046.048-.091.098-.136.147-2.956 3.283-2.691 8.342.592 11.298s8.342 2.691 11.298-.592c.044-.048.086-.097.129-.147.195.159.39.317.586.475-.039.052-.078.104-.117.156-2.597 3.574-1.805 8.577 1.77 11.174s8.577 1.805 11.174-1.77c.036-.049.071-.099.105-.149.211.138.422.275.633.412-.031.052-.063.103-.093.156-2.209 3.826-.898 8.719 2.928 10.928s8.719.898 10.928-2.928c.028-.048.055-.097.082-.145.224.115.449.23.674.344-.024.05-.047.1-.07.151-1.797 4.036.018 8.765 4.054 10.562s8.765-.018 10.562-4.055c.021-.048.042-.096.062-.144.235.091.471.181.707.271-.017.049-.034.099-.05.149-1.365 4.202.934 8.715 5.136 10.081 4.202 1.365 8.715-.934 10.081-5.136.016-.051.032-.102.048-.153.243.066.487.131.731.195-.012.052-.024.104-.035.157-.919 4.322 1.84 8.57 6.162 9.488 4.322.919 8.57-1.84 9.489-6.162.012-.058.024-.115.034-.173.249.04.497.078.746.117-.007.059-.015.117-.021.177-.462 4.394 2.726 8.331 7.12 8.792s8.331-2.726 8.792-7.12c.007-.065.013-.131.018-.196.251.013.502.027.753.039-.002.068-.003.133-.003.199 0 4.418 3.582 8 8 8s8-3.582 8-8c0-.066-.001-.131-.002-.197.251-.012.502-.026.753-.039.005.065.011.13.018.196.462 4.394 4.398 7.582 8.792 7.12s7.582-4.398 7.12-8.792c-.006-.059-.013-.118-.021-.177.249-.038.498-.077.746-.117.011.058.022.115.034.173.919 4.322 5.167 7.081 9.489 6.162s7.08-5.167 6.162-9.488c-.011-.053-.023-.105-.035-.157.244-.065.488-.13.731-.195.016.051.031.102.048.153 1.365 4.202 5.879 6.502 10.081 5.136 4.202-1.365 6.502-5.879 5.136-10.081-.016-.05-.033-.099-.05-.149.236-.09.471-.18.707-.271.02.048.041.096.062.144 1.797 4.036 6.526 5.852 10.562 4.055s5.852-6.526 4.054-10.562c-.023-.051-.046-.101-.07-.151.225-.114.449-.228.674-.344.027.049.054.097.082.145 2.209 3.826 7.102 5.137 10.928 2.928s5.137-7.102 2.928-10.928c-.03-.053-.062-.104-.093-.156.211-.137.422-.274.633-.412.034.05.069.099.105.149 2.597 3.574 7.6 4.367 11.174 1.77s4.367-7.6 1.77-11.174c-.038-.053-.077-.105-.117-.156.196-.158.391-.316.586-.475.042.049.085.098.129.147 2.956 3.283 8.015 3.549 11.298.592s3.548-8.015.592-11.298c-.045-.05-.09-.099-.136-.147.178-.177.356-.355.533-.533.048.046.098.091.147.136 3.283 2.956 8.342 2.691 11.298-.592s2.691-8.342-.592-11.298c-.048-.044-.097-.086-.147-.129.159-.195.317-.39.475-.586l.156.117c3.574 2.597 8.577 1.805 11.174-1.77 2.597-3.574 1.805-8.577-1.77-11.174-.049-.036-.099-.071-.149-.105.138-.211.275-.421.412-.633.052.031.103.062.156.093 3.826 2.209 8.719.898 10.928-2.928s.898-8.719-2.928-10.928c-.048-.028-.097-.055-.145-.081.115-.224.229-.449.344-.674.05.024.1.047.151.07 4.036 1.797 8.765-.018 10.562-4.055 1.797-4.036-.018-8.765-4.054-10.562-.048-.021-.096-.042-.144-.062.091-.235.181-.471.271-.707.049.017.099.034.149.05 4.202 1.365 8.715-.934 10.081-5.136s-.934-8.715-5.136-10.081c-.051-.017-.102-.032-.153-.048.066-.243.131-.487.195-.731.052.012.104.024.157.035 4.322.919 8.57-1.84 9.489-6.162s-1.84-8.57-6.162-9.488c-.058-.012-.115-.024-.173-.035.04-.249.078-.497.117-.746.059.007.118.015.177.021 4.394.462 8.331-2.726 8.792-7.12.461-4.395-2.727-8.332-7.121-8.794z" fill="#faa019"/><g><path d="m239.087 96.889c-74.855 7.865-134.332 67.342-142.197 142.197 7.466 63.582 61.523 112.914 127.11 112.914 70.692 0 128-57.308 128-128 0-65.587-49.332-119.644-112.913-127.111z" fill="#ffbe28"/></g><g><circle cx="272" cy="176" fill="#f04b37" r="16"/></g><g><circle cx="160" cy="224" fill="#f04b37" r="16"/></g><g><circle cx="436" cy="204" fill="#afd763" r="44"/></g><g><circle cx="400" cy="192" fill="#91c83c" r="48"/></g><g><circle cx="436" cy="244" fill="#91c83c" r="44"/></g><g><circle cx="400" cy="208" fill="#5faa46" r="32"/></g><g><circle cx="400" cy="272" fill="#5faa46" r="48"/></g><g><circle cx="192" cy="368" fill="#e1322d" r="16"/></g><g><g><circle cx="304" cy="304" fill="#d7e6f0" r="128"/></g><path d="m184 312c4.418 0 8-3.582 8-8 0-61.757 50.243-112 112-112 4.418 0 8-3.582 8-8s-3.582-8-8-8c-70.692 0-128 57.308-128 128 0 4.418 3.582 8 8 8z" fill="#fff"/><g><g><circle cx="288" cy="288" fill="#faa019" r="64"/></g><g><path d="m232 296c-4.418 0-8-3.582-8-8 0-35.29 28.71-64 64-64 4.418 0 8 3.582 8 8s-3.582 8-8 8c-26.468 0-48 21.533-48 48 0 4.418-3.582 8-8 8z" fill="#ffd205"/></g></g></g><g><circle cx="234.667" cy="136" fill="#faa019" r="8"/></g><g><circle cx="309.333" cy="133.333" fill="#faa019" r="8"/></g><g><circle cx="112" cy="282.667" fill="#faa019" r="8"/></g><g><circle cx="154.667" cy="328" fill="#faa019" r="8"/></g><g><circle cx="157.333" cy="253.333" fill="#faa019" r="8"/></g><g><circle cx="146.667" cy="186.667" fill="#faa019" r="8"/></g><g><circle cx="218.667" cy="168" fill="#faa019" r="8"/></g><g><circle cx="210.667" cy="128" fill="#faa019" r="8"/></g><g><circle cx="200" cy="184" fill="#5faa46" r="8"/></g><g><circle cx="125.333" cy="240" fill="#5faa46" r="8"/></g><g><circle cx="338.667" cy="154.667" fill="#5faa46" r="8"/></g></g></svg>