<svg id="Layer_1" enable-background="new 0 0 512 512" height="512" viewBox="0 0 512 512" width="512" xmlns="http://www.w3.org/2000/svg"><g><g><path d="m321.494 53.557c-18.939-14.041-41.918-21.557-65.494-21.557-23.576 0-46.555 7.516-65.494 21.557-55.022 40.794-158.506 142.5-158.506 330.443 0 53.02 42.98 96 96 96h256c53.02 0 96-42.98 96-96 0-187.943-103.484-289.649-158.506-330.443z" fill="#d7e6f0"/></g><g><path d="m358.685 96c-20.376 0-32.033 23.13-20.001 39.574 41.026 56.073 77.316 137.128 77.316 248.426v.292c-.052 17.422-14.286 31.656-31.708 31.708-.097 0-.194 0-.292 0h-256c-46.313 0-84.966-32.795-94.003-76.43-1.302 14.233-1.996 29.028-1.997 44.401-.003 53.028 42.972 96.029 96 96.029h256c52.916 0 95.973-42.827 96-95.743.067-134.325-52.717-224.63-102.951-280.149-4.69-5.184-11.374-8.108-18.364-8.108z" fill="#a5c3dc"/></g><g><g><circle cx="224" cy="93.333" fill="#a5c3dc" r="8"/></g><g><circle cx="256" cy="109.333" fill="#a5c3dc" r="8"/></g><g><circle cx="98.667" cy="333.333" fill="#a5c3dc" r="8"/></g><g><circle cx="157.333" cy="170.667" fill="#a5c3dc" r="8"/></g><g><circle cx="128" cy="157.333" fill="#a5c3dc" r="8"/></g><g><circle cx="152" cy="133.333" fill="#a5c3dc" r="8"/></g></g><g><g><circle cx="354.667" cy="274.667" fill="#a5c3dc" r="8"/></g><g><circle cx="338.667" cy="306.667" fill="#a5c3dc" r="8"/></g><g><circle cx="258.667" cy="322.667" fill="#a5c3dc" r="8"/></g><g><circle cx="274.667" cy="213.333" fill="#a5c3dc" r="8"/></g><g><circle cx="101.333" cy="368" fill="#a5c3dc" r="8"/></g><g><circle cx="322.667" cy="194.667" fill="#a5c3dc" r="8"/></g></g><g><path d="m352 288h-192c-17.673 0-32 14.327-32 32v160h256v-160c0-17.673-14.327-32-32-32z" fill="#555a6e"/></g><g><path d="m136 480c-4.418 0-8-3.582-8-8v-152c0-17.645 14.355-32 32-32h192c4.418 0 8 3.582 8 8s-3.582 8-8 8h-192c-8.822 0-16 7.178-16 16v152c0 4.418-3.582 8-8 8z" fill="#6e788c"/></g><g><path d="m128 416h256v64h-256z" fill="#463c4b"/></g></g></svg>