<svg id="Layer_1" enable-background="new 0 0 512 512" height="512" viewBox="0 0 512 512" width="512" xmlns="http://www.w3.org/2000/svg"><g><g><circle cx="256" cy="256" fill="#d7e6f0" r="240"/></g><g><g><circle cx="256" cy="256" fill="#a5c3dc" r="192"/></g></g><g><g><circle cx="256" cy="256" fill="#8caac8" r="178.667"/></g></g><g><path d="m224.034 232.242c-3.532-2.853-7.184-5.802-8.599-8.247-1.535-2.653-2.323-7.46-3.084-12.109-1.531-9.339-3.265-19.925-12.333-25.171-8.815-5.101-18.69-1.419-27.401 1.828-4.559 1.7-9.272 3.457-12.617 3.457s-8.058-1.757-12.616-3.456c-8.712-3.248-18.586-6.929-27.401-1.828-9.069 5.247-10.803 15.833-12.334 25.172-.762 4.648-1.549 9.455-3.084 12.107-1.415 2.444-5.067 5.394-8.599 8.247-7.113 5.745-15.966 12.895-15.966 23.758s8.853 18.013 15.966 23.758c3.532 2.853 7.184 5.802 8.599 8.247 1.535 2.653 2.323 7.46 3.084 12.109 1.531 9.339 3.265 19.925 12.333 25.171 8.813 5.1 18.689 1.419 27.401-1.828 4.559-1.7 9.272-3.457 12.617-3.457s8.058 1.757 12.616 3.456c5.598 2.087 11.676 4.353 17.645 4.353 3.32 0 6.606-.701 9.757-2.524 9.069-5.247 10.803-15.833 12.334-25.172.762-4.648 1.549-9.455 3.084-12.107 1.415-2.444 5.067-5.394 8.599-8.247 7.112-5.746 15.965-12.896 15.965-23.759s-8.853-18.013-15.966-23.758zm-15.365 42.665c-2.34 1.425-6.233 3.796-7.057 5.039-.009.015-.018.03-.026.045-.02.034-.039.069-.059.103-.746 1.467-.879 6.022-.968 9.058-.229 7.823-.513 17.55-8.448 22.217-.036.023-.071.045-.107.066-.035.021-.072.04-.109.058-2.31 1.308-4.673 1.836-7.031 1.836-5.61 0-11.191-2.984-15.957-5.531-2.997-1.603-7.104-3.798-8.907-3.798s-5.91 2.195-8.908 3.798c-6.771 3.62-15.193 8.121-23 3.689-.033-.017-.065-.034-.097-.052-.033-.019-.066-.04-.098-.061-7.944-4.665-8.228-14.396-8.457-22.222-.089-3.035-.222-7.588-.969-9.059-.02-.034-.039-.069-.058-.103-.01-.016-.019-.032-.029-.049-.825-1.241-4.715-3.611-7.054-5.036-6.83-4.158-15.33-9.336-15.33-18.905s8.5-14.747 15.331-18.907c2.34-1.425 6.233-3.796 7.057-5.039.009-.015.018-.03.026-.045.02-.034.039-.069.059-.103.746-1.467.879-6.022.968-9.058.229-7.823.513-17.55 8.448-22.217.036-.023.071-.045.107-.066.032-.018.064-.036.098-.052 7.807-4.431 16.227.07 22.999 3.689 2.997 1.603 7.104 3.798 8.907 3.798s5.91-2.195 8.908-3.798c6.771-3.62 15.189-8.121 22.998-3.69.034.017.067.035.099.053.033.019.066.04.098.061 7.944 4.665 8.228 14.396 8.457 22.222.089 3.035.222 7.588.969 9.059.02.034.039.069.058.103.01.016.019.032.029.049.825 1.241 4.715 3.611 7.054 5.036 6.83 4.158 15.33 9.336 15.33 18.905s-8.5 14.747-15.331 18.907z" fill="#ffd23c"/><path d="m208.669 237.093c-2.339-1.425-6.229-3.794-7.054-5.036-.014-.021-.026-.041-.038-.061-.017-.029-.033-.059-.049-.091-.747-1.47-.88-6.023-.969-9.059-.228-7.825-.513-17.557-8.457-22.222-.029-.017-.057-.034-.086-.051-.037-.021-.074-.042-.111-.063-7.808-4.43-16.226.071-22.998 3.69-2.997 1.605-7.104 3.8-8.907 3.8s-5.91-2.195-8.908-3.798c-6.772-3.62-15.192-8.121-22.999-3.689-.036.021-.073.041-.109.062-.032.019-.064.038-.096.056-7.935 4.667-8.219 14.395-8.448 22.217-.088 3.036-.222 7.591-.968 9.058-.016.031-.031.061-.048.089-.012.019-.024.039-.037.059-.824 1.243-4.717 3.614-7.057 5.039-6.83 4.16-15.33 9.338-15.33 18.907s8.5 14.747 15.331 18.907c2.339 1.425 6.229 3.794 7.054 5.036.014.021.026.041.038.061.017.029.033.059.049.091.747 1.47.88 6.023.969 9.059.228 7.825.513 17.557 8.457 22.222.029.017.057.034.086.051.036.021.072.041.108.062 7.807 4.432 16.229-.069 23-3.689 2.998-1.605 7.105-3.8 8.908-3.8s5.91 2.195 8.908 3.798c4.766 2.547 10.347 5.532 15.957 5.531 2.358 0 4.721-.528 7.031-1.836.04-.023.08-.045.12-.068.032-.019.064-.038.096-.056 7.935-4.667 8.219-14.395 8.448-22.217.088-3.036.222-7.591.968-9.058.016-.031.031-.061.048-.089.012-.019.024-.039.037-.059.824-1.243 4.717-3.614 7.057-5.039 6.83-4.16 15.33-9.338 15.33-18.907s-8.5-14.747-15.331-18.907zm-8.323 24.15c-4.859 2.959-9.883 6.02-12.619 10.748-2.816 4.867-2.992 10.88-3.161 16.695-.074 2.537-.19 6.517-.725 8.473-1.906-.539-5.251-2.327-7.391-3.471-5.23-2.796-10.638-5.688-16.45-5.688s-11.22 2.892-16.451 5.688c-2.14 1.144-5.485 2.932-7.391 3.471-.534-1.956-.65-5.936-.724-8.473-.17-5.815-.346-11.828-3.162-16.695-2.735-4.729-7.76-7.789-12.619-10.748-2.212-1.348-6.134-3.736-7.412-5.243 1.278-1.506 5.199-3.895 7.412-5.243 4.859-2.959 9.883-6.02 12.619-10.748 2.816-4.867 2.992-10.88 3.161-16.695.074-2.537.19-6.517.725-8.473 1.906.539 5.251 2.327 7.391 3.471 5.231 2.796 10.639 5.688 16.451 5.688s11.22-2.892 16.451-5.688c2.14-1.144 5.485-2.932 7.391-3.471.534 1.956.65 5.936.724 8.473.17 5.815.346 11.828 3.162 16.695 2.735 4.729 7.76 7.789 12.619 10.748 2.212 1.348 6.134 3.736 7.412 5.243-1.279 1.506-5.2 3.895-7.413 5.243z" fill="#faa019"/></g><g><path d="m416.034 232.242c-3.532-2.853-7.185-5.802-8.599-8.247-1.535-2.653-2.322-7.459-3.084-12.108-1.531-9.34-3.266-19.926-12.335-25.172-8.812-5.099-18.688-1.419-27.401 1.828-4.557 1.7-9.27 3.457-12.615 3.457s-8.058-1.757-12.616-3.456c-8.711-3.248-18.586-6.93-27.401-1.828-9.068 5.247-10.803 15.833-12.334 25.172-.762 4.648-1.549 9.455-3.084 12.107-1.414 2.444-5.066 5.394-8.599 8.247-7.113 5.745-15.966 12.895-15.966 23.758s8.853 18.013 15.966 23.758c3.532 2.853 7.185 5.802 8.599 8.247 1.535 2.653 2.322 7.459 3.084 12.108 1.531 9.34 3.266 19.926 12.335 25.172 8.811 5.1 18.688 1.419 27.401-1.828 4.557-1.7 9.27-3.457 12.615-3.457s8.058 1.757 12.616 3.456c5.598 2.087 11.676 4.353 17.645 4.353 3.319 0 6.606-.701 9.757-2.524 9.068-5.247 10.803-15.833 12.334-25.172.762-4.648 1.549-9.455 3.084-12.107 1.414-2.444 5.066-5.394 8.599-8.247 7.112-5.746 15.965-12.896 15.965-23.759s-8.853-18.013-15.966-23.758zm-15.364 42.665c-2.35 1.432-6.263 3.815-7.066 5.054-.006.01-.012.021-.018.031-.018.031-.035.062-.052.092-.751 1.457-.885 6.026-.974 9.07-.229 7.82-.514 17.543-8.442 22.212-.038.025-.076.048-.114.07-.036.021-.074.041-.113.061-2.308 1.307-4.67 1.833-7.026 1.833-5.61 0-11.191-2.983-15.957-5.531-2.999-1.604-7.105-3.799-8.908-3.799s-5.909 2.195-8.907 3.798c-6.773 3.62-15.195 8.121-23.002 3.688-.033-.017-.065-.033-.096-.051-.033-.019-.066-.04-.099-.061-7.942-4.666-8.227-14.396-8.455-22.22-.089-3.047-.223-7.624-.978-9.076-.016-.028-.032-.057-.049-.085-.005-.008-.01-.016-.014-.024-.79-1.236-4.715-3.626-7.07-5.061-6.83-4.161-15.33-9.339-15.33-18.908s8.5-14.747 15.33-18.907c2.35-1.432 6.263-3.815 7.066-5.054.006-.01.012-.021.018-.031.018-.031.035-.062.052-.092.751-1.457.885-6.026.974-9.07.229-7.82.514-17.543 8.442-22.212.038-.025.076-.048.114-.07.035-.02.071-.039.107-.058 7.806-4.424 16.22.076 22.989 3.695 2.999 1.603 7.105 3.798 8.908 3.798s5.909-2.195 8.907-3.798c6.772-3.62 15.192-8.12 22.999-3.69.034.017.067.035.099.053.033.019.066.04.099.061 7.942 4.666 8.227 14.396 8.455 22.22.089 3.047.223 7.624.978 9.076.016.028.032.057.049.085.005.008.01.016.014.024.79 1.236 4.715 3.626 7.07 5.061 6.83 4.162 15.33 9.34 15.33 18.909s-8.5 14.747-15.33 18.907z" fill="#ffd23c"/><path d="m400.67 237.093c-2.355-1.435-6.279-3.825-7.07-5.061-.008-.012-.016-.024-.023-.036-.014-.023-.027-.048-.04-.073-.755-1.452-.888-6.029-.978-9.076-.229-7.824-.514-17.555-8.455-22.22-.029-.017-.059-.035-.089-.052-.037-.021-.073-.042-.11-.063-7.806-4.43-16.227.07-22.999 3.69-2.997 1.603-7.103 3.798-8.906 3.798s-5.909-2.195-8.908-3.798c-6.768-3.619-15.183-8.118-22.989-3.695-.04.022-.079.045-.119.068-.034.02-.068.04-.102.06-7.928 4.668-8.213 14.392-8.442 22.212-.089 3.043-.223 7.613-.974 9.07-.014.027-.028.054-.043.079-.009.015-.018.03-.028.044-.803 1.239-4.716 3.622-7.066 5.054-6.829 4.159-15.329 9.337-15.329 18.906s8.5 14.747 15.33 18.907c2.355 1.435 6.279 3.825 7.07 5.061.008.012.016.024.023.036.014.023.027.048.04.073.755 1.452.888 6.029.978 9.076.229 7.824.514 17.555 8.455 22.22.029.017.059.035.089.052.035.021.071.041.106.061 7.807 4.433 16.229-.068 23.002-3.688 2.998-1.603 7.104-3.798 8.907-3.798s5.909 2.195 8.908 3.798c4.766 2.548 10.347 5.532 15.957 5.531 2.356 0 4.718-.527 7.026-1.833.042-.024.083-.047.125-.071.034-.02.068-.04.102-.06 7.928-4.668 8.213-14.392 8.442-22.212.089-3.043.223-7.613.974-9.07.014-.027.028-.054.043-.079.009-.015.018-.03.028-.044.803-1.239 4.716-3.622 7.066-5.054 6.829-4.159 15.329-9.337 15.329-18.906s-8.5-14.747-15.33-18.907zm-8.323 24.149c-4.859 2.96-9.884 6.02-12.619 10.748-2.815 4.867-2.991 10.88-3.161 16.696-.074 2.537-.19 6.517-.725 8.473-1.906-.539-5.251-2.327-7.391-3.471-5.23-2.796-10.639-5.688-16.451-5.688s-11.221 2.892-16.451 5.688c-2.14 1.144-5.484 2.933-7.391 3.471-.534-1.956-.65-5.936-.725-8.473-.17-5.815-.346-11.829-3.161-16.695-2.735-4.729-7.76-7.789-12.619-10.749-2.212-1.348-6.133-3.736-7.411-5.242 1.278-1.506 5.199-3.895 7.411-5.242 4.859-2.96 9.884-6.02 12.619-10.748 2.815-4.867 2.991-10.88 3.161-16.696.074-2.537.19-6.517.725-8.473 1.906.539 5.251 2.327 7.391 3.471 5.23 2.796 10.64 5.688 16.451 5.688s11.221-2.892 16.451-5.688c2.14-1.144 5.484-2.933 7.391-3.471.534 1.956.65 5.936.725 8.473.17 5.815.346 11.829 3.161 16.695 2.735 4.729 7.76 7.789 12.619 10.749 2.212 1.348 6.133 3.736 7.411 5.242-1.279 1.506-5.199 3.895-7.411 5.242z" fill="#faa019"/></g><g><path d="m272.378 315.857c-3.645-2.984-7.413-6.07-8.943-8.726-1.41-2.447-2.139-7.084-2.843-11.57-1.418-9.032-3.184-20.274-12.592-25.706-9.408-5.431-20.026-1.34-28.558 1.948-4.236 1.632-8.617 3.321-11.44 3.323h-.007c-3.065 0-7.618-1.72-12.021-3.383-8.854-3.345-18.891-7.136-27.966-1.904-8.824 5.083-10.573 15.476-12.117 24.645-.808 4.797-1.643 9.757-3.315 12.653s-5.55 6.1-9.3 9.197c-7.169 5.921-15.294 12.632-15.285 22.816.01 10.477 8.31 17.272 15.632 23.268 3.645 2.984 7.414 6.07 8.944 8.726 1.41 2.447 2.138 7.084 2.842 11.569 1.418 9.033 3.184 20.274 12.592 25.706 3.317 1.915 6.784 2.646 10.258 2.646 6.378 0 12.777-2.466 18.3-4.595 4.236-1.632 8.617-3.321 11.44-3.323h.007c3.065 0 7.618 1.72 12.021 3.383 8.853 3.345 18.888 7.136 27.966 1.904 8.824-5.083 10.574-15.476 12.117-24.644.808-4.797 1.644-9.757 3.315-12.653s5.55-6.1 9.301-9.197c7.168-5.921 15.293-12.633 15.284-22.817-.009-10.475-8.309-17.27-15.632-23.266zm-15.065 41.466c-2.887 1.795-6.842 4.254-7.743 5.815s-1.054 6.215-1.165 9.613c-.251 7.672-.562 17.209-8.297 21.758-.034.022-.067.043-.102.063-.036.021-.072.04-.11.059-8.011 4.54-16.577-.079-23.465-3.792-2.674-1.441-6.686-3.604-8.332-3.691-.031 0-.062 0-.094 0h-.022c-.018 0-.036 0-.055 0-1.487.093-5.485 2.277-7.89 3.591-4.916 2.686-10.673 5.832-16.529 5.832-2.505 0-5.027-.575-7.51-2.009-8.287-4.785-8.521-14.735-8.709-22.73-.064-2.739-.171-7.293-.835-8.629-.009-.015-.017-.031-.026-.046-.02-.035-.04-.069-.06-.104-.899-1.381-4.776-3.772-7.36-5.366-6.659-4.109-14.938-9.217-15.016-18.419-.002-.044-.004-.088-.004-.131 0-.04.001-.081.004-.122.073-8.97 8.176-14.009 14.694-18.061 2.887-1.795 6.842-4.254 7.743-5.815s1.054-6.216 1.165-9.614c.251-7.675.563-17.217 8.306-21.763.031-.02.062-.039.093-.057.035-.02.07-.039.106-.057 8.01-4.542 16.579.076 23.469 3.79 2.674 1.442 6.687 3.604 8.333 3.691h.094.021.055c1.487-.093 5.485-2.277 7.89-3.591 7.019-3.835 15.754-8.607 24.04-3.823 8.287 4.784 8.521 14.735 8.709 22.73.064 2.736.171 7.283.833 8.625.01.017.019.034.029.052.021.037.043.073.064.11.907 1.382 4.776 3.769 7.356 5.36 6.66 4.109 14.94 9.218 15.016 18.422.002.043.004.086.004.128 0 .04-.001.08-.004.12-.074 8.969-8.178 14.008-14.696 18.061z" fill="#ffd23c"/><path d="m272.007 339.011c-.076-9.204-8.356-14.313-15.016-18.422-2.58-1.592-6.449-3.979-7.356-5.36-.021-.032-.041-.063-.058-.094-.012-.021-.024-.044-.035-.068-.661-1.342-.768-5.889-.833-8.625-.188-7.995-.422-17.946-8.709-22.73-8.286-4.784-17.021-.012-24.04 3.823-2.404 1.314-6.403 3.499-7.89 3.591-.024.001-.047.002-.07.003-.032 0-.065-.001-.099-.003-1.646-.086-5.658-2.249-8.333-3.691-6.89-3.714-15.459-8.332-23.469-3.79-.031.017-.061.034-.092.052-.036.021-.071.042-.107.063-7.743 4.547-8.055 14.089-8.306 21.763-.111 3.398-.263 8.052-1.165 9.614s-4.856 4.02-7.743 5.815c-6.518 4.052-14.621 9.091-14.694 18.061 0 .046-.001.091-.001.137 0 .039.001.078.001.117.078 9.202 8.357 14.311 15.016 18.419 2.584 1.594 6.461 3.986 7.36 5.366.019.03.038.059.054.087.011.02.022.041.033.063.664 1.336.771 5.891.835 8.629.188 7.996.422 17.946 8.709 22.73 2.483 1.434 5.005 2.009 7.51 2.009 5.856 0 11.614-3.146 16.529-5.832 2.404-1.314 6.403-3.499 7.89-3.591.024-.001.047-.002.07-.003h.002c.032 0 .065.001.099.003 1.646.087 5.658 2.25 8.332 3.691 6.888 3.713 15.454 8.331 23.465 3.792.032-.018.064-.036.095-.054.039-.022.077-.045.116-.068 7.735-4.548 8.046-14.086 8.297-21.758.111-3.398.263-8.052 1.165-9.613s4.856-4.02 7.743-5.815c6.518-4.053 14.622-9.092 14.695-18.063 0-.045.001-.09.001-.135 0-.037-.001-.075-.001-.113zm-23.142 4.724c-5.038 3.132-10.246 6.371-13.152 11.403s-3.106 11.163-3.299 17.091c-.08 2.425-.203 6.216-.69 8.135-1.961-.516-5.466-2.405-7.7-3.609-5.117-2.758-10.406-5.61-16.023-5.61h-.016c-5.462.005-10.625 2.826-15.617 5.554-2.273 1.243-6.303 3.444-8.246 3.797-.666-1.859-.773-6.45-.834-9.04-.134-5.688-.272-11.568-2.999-16.302-2.807-4.872-7.926-8.03-12.877-11.085-2.16-1.333-5.549-3.424-6.976-4.864 1.419-1.381 4.64-3.384 6.701-4.665 5.037-3.132 10.246-6.37 13.152-11.403s3.106-11.163 3.299-17.092c.08-2.425.203-6.216.69-8.135 1.961.516 5.466 2.405 7.7 3.609 5.117 2.758 10.406 5.61 16.023 5.61h.016c5.462-.005 10.625-2.826 15.617-5.554 2.273-1.242 6.303-3.444 8.246-3.797.666 1.859.773 6.45.834 9.04.134 5.688.272 11.568 2.999 16.302 2.807 4.872 7.926 8.03 12.877 11.085 2.16 1.333 5.549 3.424 6.976 4.864-1.42 1.383-4.641 3.385-6.701 4.666z" fill="#faa019"/></g><g><path d="m368.378 149.581c-3.645-2.984-7.414-6.07-8.944-8.726-1.409-2.447-2.138-7.084-2.842-11.57-1.419-9.033-3.185-20.274-12.592-25.706-9.408-5.431-20.025-1.34-28.558 1.948-4.236 1.632-8.617 3.321-11.441 3.323h-.007c-3.065 0-7.618-1.72-12.021-3.383-8.854-3.345-18.888-7.135-27.966-1.905-8.825 5.084-10.574 15.476-12.118 24.645-.808 4.796-1.643 9.756-3.315 12.653-1.672 2.896-5.55 6.1-9.301 9.197-7.168 5.921-15.293 12.632-15.284 22.816.01 10.477 8.31 17.272 15.632 23.268 3.645 2.984 7.414 6.07 8.944 8.726 1.41 2.447 2.138 7.084 2.843 11.57 1.418 9.032 3.184 20.273 12.591 25.705 3.317 1.915 6.784 2.646 10.258 2.646 6.378 0 12.776-2.466 18.3-4.595 4.236-1.632 8.617-3.321 11.441-3.323h.007c3.065 0 7.618 1.72 12.021 3.383 8.854 3.345 18.889 7.135 27.966 1.905 8.825-5.084 10.574-15.477 12.118-24.646.807-4.797 1.642-9.757 3.313-12.652 1.673-2.896 5.551-6.1 9.301-9.197 7.169-5.921 15.294-12.633 15.285-22.817-.008-10.475-8.308-17.27-15.631-23.265zm-15.065 41.465c-2.888 1.795-6.842 4.254-7.743 5.815-.902 1.562-1.054 6.216-1.165 9.614-.251 7.673-.563 17.211-8.3 21.76-.033.021-.065.042-.099.061-.035.02-.072.04-.108.059-8.011 4.54-16.578-.078-23.466-3.791-2.673-1.441-6.685-3.604-8.332-3.691-.031 0-.063 0-.094 0h-.022c-.018 0-.035 0-.053 0-1.487.092-5.487 2.277-7.891 3.592-4.915 2.686-10.673 5.832-16.528 5.832-2.505 0-5.027-.575-7.511-2.009-8.287-4.785-8.521-14.735-8.708-22.73-.064-2.735-.171-7.281-.833-8.624-.01-.017-.02-.035-.03-.052-.021-.037-.043-.073-.064-.11-.906-1.381-4.775-3.769-7.356-5.36-6.659-4.109-14.939-9.217-15.017-18.419-.002-.044-.004-.088-.004-.131 0-.04.001-.081.004-.122.073-8.97 8.177-14.009 14.694-18.061 2.888-1.795 6.842-4.254 7.743-5.815.902-1.562 1.054-6.215 1.165-9.613.251-7.67.563-17.205 8.292-21.754.035-.024.071-.046.107-.066.038-.022.077-.042.116-.063 8.008-4.535 16.57.083 23.458 3.795 2.673 1.441 6.685 3.604 8.332 3.691h.094.022.053c1.487-.092 5.487-2.277 7.891-3.592 7.018-3.834 15.751-8.607 24.039-3.823 8.287 4.785 8.521 14.735 8.708 22.73.064 2.737.171 7.288.834 8.627.01.017.019.033.028.05.021.036.041.071.062.106.903 1.381 4.775 3.771 7.358 5.364 6.659 4.109 14.94 9.218 15.017 18.422.002.043.004.086.004.128 0 .04-.001.08-.004.12-.071 8.969-8.175 14.007-14.693 18.06z" fill="#ffd23c"/><path d="m368.007 172.734c-.076-9.204-8.357-14.313-15.017-18.422-2.583-1.593-6.455-3.982-7.358-5.364-.02-.031-.039-.061-.056-.09-.011-.021-.023-.043-.034-.065-.663-1.339-.77-5.89-.834-8.627-.188-7.995-.421-17.945-8.708-22.73-8.288-4.785-17.021-.011-24.039 3.823-2.405 1.314-6.404 3.5-7.891 3.592-.024.001-.047.002-.07.003h-.001c-.032 0-.065-.001-.099-.003-1.646-.087-5.658-2.25-8.332-3.691-6.888-3.712-15.45-8.33-23.458-3.795-.034.019-.068.038-.102.058-.041.023-.081.047-.122.071-7.729 4.55-8.041 14.084-8.292 21.754-.111 3.398-.263 8.052-1.165 9.613-.901 1.562-4.855 4.02-7.743 5.815-6.518 4.053-14.621 9.091-14.694 18.061 0 .046-.001.091-.001.137 0 .039.001.078.001.117.078 9.202 8.358 14.311 15.017 18.419 2.581 1.592 6.449 3.979 7.356 5.36.021.031.041.063.058.094.012.022.024.045.036.068.662 1.343.768 5.889.833 8.624.188 7.995.421 17.945 8.708 22.73 2.483 1.434 5.006 2.009 7.511 2.009 5.855 0 11.613-3.146 16.528-5.832 2.405-1.314 6.404-3.5 7.891-3.592.024-.001.047-.002.07-.003h.001c.032 0 .065.001.099.003 1.646.087 5.658 2.25 8.332 3.691 6.888 3.713 15.455 8.331 23.466 3.791.031-.018.063-.035.094-.053.038-.022.076-.044.113-.066 7.737-4.548 8.049-14.087 8.3-21.76.111-3.398.263-8.052 1.165-9.614.901-1.562 4.855-4.02 7.743-5.815 6.518-4.052 14.622-9.091 14.695-18.063 0-.045.001-.09.001-.135-.001-.037-.002-.075-.002-.113zm-35.972 16.314c.072 1.527.476 3.979.739 5.587 1.08 6.574 2.559 15.578-4.783 19.808-7.467 4.299-14.633-1.598-19.867-5.904-1.141-.939-2.844-2.34-4.069-3.177-1.167.818-2.767 2.146-3.843 3.039-4.002 3.321-9.12 7.567-14.667 7.567-1.811 0-3.667-.452-5.545-1.537-7.633-4.406-6.044-13.719-4.884-20.519.235-1.379.585-3.427.71-4.848-1.337-.643-3.402-1.417-4.785-1.936-6.347-2.379-15.039-5.638-15.046-14.253-.009-8.473 8.527-11.694 14.761-14.046 1.525-.576 3.851-1.453 5.209-2.154-.072-1.527-.476-3.979-.739-5.587-1.08-6.574-2.559-15.578 4.783-19.808 7.465-4.299 14.633 1.597 19.867 5.904 1.141.939 2.844 2.34 4.069 3.177 1.167-.818 2.767-2.146 3.843-3.039 5.308-4.405 12.58-10.438 20.212-6.03 7.633 4.406 6.044 13.719 4.884 20.519-.235 1.379-.585 3.427-.71 4.848 1.337.643 3.402 1.417 4.785 1.936 6.347 2.379 15.038 5.638 15.046 14.253.009 8.473-8.528 11.694-14.762 14.047-1.524.575-3.849 1.452-5.208 2.153z" fill="#faa019"/><path d="m352.005 172.848c-.008-8.615-8.699-11.874-15.046-14.253-1.383-.519-3.448-1.293-4.785-1.936.125-1.42.475-3.469.71-4.848 1.16-6.8 2.749-16.112-4.884-20.519-7.632-4.407-14.904 1.625-20.212 6.03-1.076.893-2.676 2.22-3.843 3.039-1.226-.836-2.929-2.238-4.069-3.177-5.234-4.307-12.402-10.203-19.867-5.904-7.342 4.23-5.863 13.233-4.783 19.808.264 1.608.667 4.06.739 5.587-1.358.701-3.684 1.578-5.209 2.154-6.233 2.352-14.77 5.573-14.761 14.046.007 8.615 8.699 11.874 15.046 14.253 1.383.519 3.448 1.293 4.785 1.936-.125 1.42-.475 3.469-.71 4.848-1.16 6.8-2.749 16.112 4.884 20.519 1.878 1.084 3.734 1.537 5.545 1.537 5.547 0 10.665-4.246 14.667-7.567 1.076-.893 2.676-2.22 3.843-3.039 1.226.836 2.929 2.238 4.069 3.177 5.234 4.306 12.4 10.203 19.867 5.904 7.342-4.23 5.863-13.233 4.783-19.808-.264-1.608-.667-4.06-.739-5.587 1.358-.701 3.684-1.578 5.208-2.153 6.234-2.353 14.771-5.574 14.762-14.047zm-34.15 8.014c-2.376 4.117-2.002 9.032-1.258 13.938-3.854-3.107-7.894-5.933-12.604-5.933h-.01c-4.824.005-8.924 3.052-12.85 6.277.831-5.012 1.421-10.086-.988-14.267-2.353-4.084-6.822-6.171-11.444-7.957 4.621-1.808 9.064-3.942 11.442-8.06 2.376-4.117 2.002-9.032 1.258-13.938 3.854 3.107 7.894 5.933 12.604 5.933h.01c4.824-.005 8.924-3.052 12.85-6.277-.831 5.012-1.421 10.086.988 14.267 2.353 4.084 6.822 6.171 11.444 7.957-4.62 1.808-9.064 3.942-11.442 8.06z" fill="#ffd23c"/></g><g><path d="m368.726 316.335c-3.75-3.098-7.628-6.301-9.3-9.196-1.673-2.896-2.508-7.856-3.314-12.653-1.544-9.169-3.293-19.562-12.117-24.645-9.081-5.232-19.115-1.44-27.967 1.904-4.406 1.664-8.97 3.433-12.028 3.383-2.824-.002-7.204-1.691-11.44-3.323-8.533-3.288-19.152-7.38-28.559-1.948s-11.173 16.673-12.591 25.705c-.705 4.485-1.433 9.124-2.843 11.571-1.53 2.656-5.299 5.741-8.944 8.725-7.323 5.996-15.623 12.791-15.633 23.268-.009 10.183 8.116 16.895 15.284 22.815 3.75 3.098 7.628 6.301 9.301 9.198 1.672 2.896 2.507 7.856 3.315 12.653 1.543 9.169 3.293 19.561 12.118 24.646 9.079 5.229 19.112 1.439 27.966-1.905 4.403-1.663 8.956-3.383 12.021-3.383h.007c2.824.002 7.204 1.691 11.44 3.323 5.524 2.129 11.922 4.595 18.301 4.595 3.474 0 6.941-.731 10.258-2.646 9.407-5.432 11.173-16.672 12.592-25.705.704-4.485 1.433-9.124 2.843-11.571 1.53-2.656 5.299-5.741 8.943-8.725 7.323-5.996 15.623-12.791 15.633-23.268.008-10.185-8.117-16.896-15.286-22.818zm-15.736 41.353c-2.575 1.589-6.435 3.97-7.352 5.354-.022.038-.045.076-.067.115-.011.02-.023.04-.034.06-.657 1.348-.764 5.885-.828 8.617-.188 7.996-.422 17.946-8.709 22.73-2.482 1.433-5.006 2.009-7.51 2.009-5.856 0-11.613-3.146-16.528-5.832-2.406-1.314-6.405-3.5-7.893-3.592-.017 0-.035 0-.052 0h-.022c-.032 0-.064 0-.096 0-1.644.087-5.655 2.25-8.329 3.69-6.887 3.712-15.448 8.329-23.457 3.797-.041-.021-.08-.042-.119-.064-.036-.021-.071-.042-.106-.066-7.73-4.549-8.042-14.085-8.292-21.755-.111-3.387-.262-8.02-1.156-9.597-.003-.005-.006-.011-.009-.016s-.006-.011-.01-.017c-.919-1.562-4.856-4.01-7.734-5.799-6.517-4.052-14.621-9.091-14.694-18.061-.003-.042-.004-.082-.004-.123 0-.043.001-.087.004-.131.077-9.202 8.357-14.311 15.016-18.419 2.581-1.593 6.453-3.981 7.359-5.364.021-.035.041-.071.062-.106.01-.017.02-.035.03-.052.661-1.339.767-5.888.832-8.624.188-7.996.422-17.946 8.709-22.73 8.289-4.785 17.021-.012 24.038 3.823 2.406 1.314 6.405 3.5 7.893 3.592h.052.022.096c1.644-.087 5.655-2.25 8.329-3.69 6.892-3.715 15.462-8.336 23.475-3.787.034.018.068.035.101.054s.067.04.1.062c7.735 4.548 8.047 14.086 8.298 21.759.111 3.398.263 8.052 1.165 9.614.9 1.561 4.855 4.02 7.743 5.815 6.518 4.052 14.622 9.091 14.694 18.063.002.041.004.081.004.12 0 .042-.001.085-.004.128-.075 9.204-8.356 14.314-15.017 18.423z" fill="#ffd23c"/><path d="m368.007 339.017c-.073-8.972-8.177-14.011-14.694-18.063-2.888-1.795-6.843-4.254-7.743-5.815-.902-1.562-1.054-6.216-1.165-9.614-.251-7.672-.563-17.211-8.298-21.759-.038-.022-.076-.045-.114-.067-.029-.017-.058-.033-.087-.049-8.013-4.549-16.583.072-23.475 3.787-2.673 1.441-6.685 3.604-8.329 3.69-.034.002-.067.003-.099.003-.001 0-.001 0-.002 0-.023 0-.046-.001-.07-.003-1.489-.092-5.487-2.277-7.893-3.592-7.017-3.834-15.749-8.608-24.038-3.823-8.287 4.784-8.521 14.735-8.709 22.73-.064 2.736-.171 7.285-.832 8.624-.011.023-.023.045-.034.066-.017.03-.037.061-.057.092-.905 1.383-4.777 3.771-7.359 5.364-6.659 4.108-14.939 9.218-15.016 18.419 0 .038-.001.077-.001.115 0 .046 0 .092.001.138.074 8.97 8.177 14.009 14.694 18.061 2.878 1.789 6.815 4.237 7.734 5.799.003.005.007.011.01.016s.006.011.009.017c.894 1.577 1.045 6.21 1.156 9.597.251 7.67.563 17.206 8.292 21.755.04.023.079.047.12.07.035.02.07.04.105.06 8.009 4.531 16.57-.085 23.457-3.797 2.673-1.441 6.685-3.604 8.329-3.69.034-.002.067-.003.099-.003h.002c.023 0 .046.001.07.003 1.489.092 5.487 2.277 7.893 3.592 4.915 2.686 10.672 5.832 16.528 5.832 2.504 0 5.027-.576 7.51-2.009 8.287-4.784 8.521-14.735 8.709-22.73.064-2.731.171-7.269.828-8.617.012-.026.025-.05.038-.073.019-.033.041-.067.063-.101.917-1.384 4.777-3.765 7.352-5.354 6.66-4.109 14.941-9.219 15.017-18.423 0-.037.001-.074.001-.112-.001-.046-.002-.091-.002-.136zm-23.418 5.053c-4.95 3.055-10.07 6.213-12.877 11.085-2.728 4.733-2.865 10.615-2.999 16.302-.061 2.59-.168 7.18-.834 9.04-1.943-.354-5.972-2.555-8.245-3.797-4.993-2.729-10.155-5.549-15.618-5.554h-.016c-5.617 0-10.907 2.852-16.023 5.609-2.233 1.205-5.739 3.094-7.7 3.609-.486-1.92-.61-5.71-.689-8.135-.193-5.928-.394-12.058-3.299-17.091-2.906-5.033-8.115-8.271-13.152-11.403-2.061-1.281-5.282-3.284-6.701-4.665 1.427-1.44 4.816-3.531 6.976-4.864 4.951-3.055 10.071-6.213 12.878-11.085 2.728-4.733 2.865-10.615 2.999-16.302.061-2.59.168-7.18.834-9.04 1.943.354 5.972 2.555 8.245 3.797 4.993 2.729 10.155 5.549 15.618 5.554h.014c5.617 0 10.907-2.852 16.023-5.609 2.233-1.205 5.739-3.094 7.7-3.609.486 1.92.61 5.71.689 8.135.193 5.929.394 12.059 3.3 17.092 2.905 5.033 8.114 8.271 13.151 11.403 2.061 1.281 5.281 3.284 6.701 4.665-1.425 1.44-4.815 3.531-6.975 4.863z" fill="#faa019"/></g><g><path d="m272.727 150.059c-3.75-3.098-7.629-6.301-9.301-9.198s-2.508-7.856-3.315-12.653c-1.543-9.168-3.293-19.561-12.117-24.645-9.078-5.229-19.112-1.44-27.966 1.905-4.403 1.663-8.956 3.383-12.021 3.383h-.008c-2.824-.002-7.205-1.691-11.441-3.323-8.532-3.289-19.15-7.38-28.558-1.948s-11.173 16.673-12.592 25.706c-.705 4.485-1.433 9.123-2.842 11.57-1.53 2.656-5.299 5.741-8.944 8.725-7.323 5.996-15.623 12.791-15.633 23.268-.009 10.184 8.116 16.895 15.285 22.816 3.75 3.098 7.628 6.301 9.3 9.197s2.507 7.856 3.315 12.653c1.544 9.169 3.293 19.561 12.117 24.645 9.078 5.231 19.113 1.44 27.967-1.904 4.403-1.663 8.956-3.383 12.02-3.383h.008c2.824.002 7.205 1.691 11.441 3.323 5.524 2.129 11.922 4.595 18.3 4.595 3.473 0 6.941-.731 10.258-2.646 9.408-5.432 11.174-16.673 12.592-25.706.704-4.485 1.433-9.123 2.843-11.569 1.529-2.656 5.299-5.742 8.943-8.726 7.323-5.995 15.623-12.791 15.633-23.268.009-10.185-8.116-16.896-15.284-22.817zm-15.736 41.352c-2.585 1.595-6.465 3.989-7.363 5.371-.019.033-.039.066-.058.099-.009.016-.018.031-.027.047-.663 1.333-.77 5.89-.835 8.63-.188 7.995-.422 17.946-8.709 22.73-2.482 1.433-5.006 2.009-7.51 2.009-5.856 0-11.613-3.146-16.529-5.832-2.404-1.314-6.403-3.499-7.892-3.591-.018 0-.036 0-.053 0h-.022c-.032 0-.063 0-.095 0-1.644.087-5.656 2.25-8.33 3.691-6.893 3.716-15.467 8.336-23.48 3.783-.032-.017-.063-.033-.094-.051s-.062-.037-.093-.057c-7.743-4.547-8.055-14.089-8.306-21.763-.111-3.398-.263-8.052-1.165-9.614-.901-1.561-4.855-4.02-7.743-5.815-6.517-4.052-14.621-9.091-14.694-18.061-.003-.041-.004-.082-.004-.123 0-.043.001-.087.004-.131.077-9.202 8.357-14.311 15.016-18.419 2.585-1.595 6.465-3.989 7.363-5.371.019-.033.039-.066.058-.099.009-.016.018-.031.027-.047.663-1.333.77-5.89.835-8.629.188-7.996.422-17.946 8.709-22.73 8.287-4.785 17.021-.011 24.04 3.823 2.404 1.314 6.403 3.499 7.892 3.591h.053.022.095c1.644-.087 5.656-2.25 8.33-3.691 6.891-3.714 15.459-8.333 23.471-3.788.035.018.069.036.103.055.033.019.065.039.097.06 7.74 4.548 8.051 14.088 8.302 21.761.111 3.398.263 8.052 1.165 9.614s4.856 4.02 7.743 5.815c6.518 4.053 14.622 9.091 14.694 18.063.002.041.004.081.004.12 0 .042-.001.085-.004.128-.076 9.203-8.357 14.313-15.017 18.422z" fill="#ffd23c"/><path d="m272.007 172.74c-.073-8.972-8.177-14.01-14.694-18.063-2.887-1.795-6.842-4.254-7.743-5.815s-1.054-6.215-1.165-9.614c-.251-7.673-.562-17.213-8.302-21.761-.037-.022-.074-.043-.111-.065-.03-.017-.059-.034-.089-.051-8.012-4.544-16.581.074-23.471 3.788-2.674 1.441-6.686 3.604-8.33 3.691-.034.002-.067.003-.099.003h-.001c-.023 0-.046-.001-.07-.003-1.489-.092-5.487-2.277-7.892-3.591-7.019-3.834-15.753-8.608-24.04-3.823s-8.521 14.735-8.709 22.73c-.064 2.74-.171 7.296-.835 8.629-.011.021-.021.042-.032.061-.016.028-.034.056-.052.085-.897 1.382-4.777 3.775-7.363 5.371-6.659 4.108-14.939 9.218-15.016 18.419 0 .038-.001.077-.001.115 0 .046 0 .092.001.138.074 8.97 8.177 14.009 14.694 18.061 2.888 1.795 6.842 4.254 7.743 5.815.901 1.562 1.054 6.216 1.165 9.614.251 7.675.563 17.217 8.306 21.763.036.021.071.042.107.063.027.015.053.03.08.045 8.014 4.553 16.587-.068 23.48-3.783 2.674-1.441 6.686-3.604 8.33-3.691.034-.002.067-.003.099-.003h.001c.023 0 .046.001.07.003 1.489.092 5.487 2.277 7.892 3.591 4.916 2.686 10.673 5.832 16.529 5.832 2.504 0 5.028-.576 7.51-2.009 8.287-4.784 8.521-14.735 8.709-22.73.064-2.74.171-7.297.835-8.63.011-.021.021-.042.032-.061.016-.028.034-.056.052-.085.897-1.382 4.777-3.775 7.363-5.371 6.66-4.109 14.941-9.219 15.016-18.423 0-.037.001-.074.001-.112.001-.043 0-.088 0-.133zm-23.418 5.054c-4.951 3.054-10.07 6.213-12.877 11.085-2.727 4.733-2.865 10.614-2.999 16.302-.061 2.59-.169 7.181-.834 9.04-1.943-.354-5.973-2.555-8.246-3.797-4.992-2.728-10.155-5.549-15.617-5.554h-.016c-5.617 0-10.908 2.852-16.024 5.61-2.234 1.204-5.739 3.094-7.7 3.609-.487-1.919-.61-5.71-.69-8.135-.193-5.929-.394-12.059-3.299-17.092-2.906-5.033-8.114-8.271-13.151-11.403-2.061-1.281-5.282-3.284-6.701-4.665 1.427-1.44 4.816-3.531 6.976-4.864 4.951-3.054 10.071-6.213 12.877-11.085 2.727-4.733 2.865-10.614 2.999-16.302.061-2.59.169-7.181.834-9.04 1.943.354 5.973 2.555 8.246 3.797 4.992 2.728 10.155 5.549 15.617 5.554h.016c5.617 0 10.908-2.852 16.024-5.61 2.234-1.204 5.739-3.094 7.7-3.609.487 1.919.61 5.71.69 8.135.193 5.928.394 12.058 3.299 17.091 2.906 5.033 8.114 8.271 13.152 11.403 2.061 1.281 5.281 3.284 6.701 4.665-1.427 1.441-4.816 3.532-6.977 4.865z" fill="#faa019"/></g><g><path d="m320 160c0-3.345 1.757-8.058 3.456-12.616 3.247-8.712 6.928-18.586 1.829-27.401-5.248-9.068-15.833-10.803-25.173-12.333-4.648-.762-9.455-1.549-12.108-3.084-2.444-1.415-5.394-5.067-8.246-8.599-5.745-7.114-12.895-15.967-23.758-15.967s-18.013 8.853-23.758 15.966c-2.853 3.532-5.802 7.184-8.247 8.599-2.653 1.535-7.46 2.323-12.109 3.084-9.339 1.531-19.925 3.265-25.171 12.333-5.1 8.814-1.419 18.689 1.828 27.401 1.7 4.559 3.457 9.272 3.457 12.617s-1.757 8.058-3.456 12.616c-3.248 8.712-6.928 18.587-1.828 27.401 5.247 9.069 15.833 10.803 25.172 12.334 4.648.762 9.455 1.549 12.107 3.084 2.444 1.415 5.394 5.067 8.247 8.599 5.745 7.113 12.895 15.966 23.758 15.966s18.014-8.853 23.759-15.966c2.853-3.532 5.802-7.185 8.245-8.599 2.653-1.535 7.461-2.323 12.109-3.084 9.339-1.53 19.924-3.265 25.172-12.334 5.099-8.814 1.418-18.688-1.829-27.4-1.699-4.559-3.456-9.272-3.456-12.617zm-12.202 8.908c3.617 6.766 8.114 15.177 3.7 22.981-.019.039-.04.078-.061.115-.023.041-.048.081-.075.121-4.671 7.922-14.392 8.207-22.209 8.435-3.035.089-7.588.222-9.059.969-.034.02-.068.039-.103.059-.016.009-.032.019-.049.029-1.24.825-3.611 4.715-5.035 7.054-4.16 6.829-9.338 15.329-18.907 15.329s-14.747-8.5-18.907-15.331c-1.425-2.34-3.796-6.233-5.039-7.057-.015-.009-.03-.018-.045-.026-.034-.02-.069-.039-.103-.059-1.467-.746-6.022-.879-9.058-.968-7.823-.229-17.55-.513-22.217-8.448-.023-.035-.045-.071-.066-.107-.019-.033-.037-.068-.055-.103-4.427-7.807.073-16.224 3.692-22.994 1.603-2.997 3.798-7.104 3.798-8.907s-2.195-5.91-3.798-8.908c-3.62-6.772-8.121-15.192-3.688-23.001.017-.032.034-.065.052-.096.019-.033.04-.065.061-.098 4.665-7.944 14.396-8.229 22.222-8.457 3.035-.089 7.588-.222 9.059-.969.034-.02.068-.039.102-.059.016-.01.032-.019.049-.029 1.241-.825 3.611-4.715 5.036-7.054 4.158-6.829 9.336-15.329 18.905-15.329 9.568 0 14.746 8.5 18.906 15.33 1.426 2.34 3.796 6.232 5.039 7.057.016.009.031.018.047.027.034.02.068.039.103.059 1.468.746 6.022.879 9.058.968 7.822.229 17.55.513 22.218 8.449.023.035.045.07.065.106.02.034.038.068.056.104 4.425 7.807-.074 16.223-3.693 22.993-1.604 2.997-3.799 7.104-3.799 8.907s2.195 5.91 3.798 8.908z" fill="#ffd23c"/><path d="m311.491 128.099c-.022-.038-.043-.077-.065-.115-.018-.032-.037-.063-.056-.095-4.667-7.936-14.395-8.22-22.218-8.449-3.035-.088-7.589-.221-9.058-.968-.031-.016-.062-.032-.09-.048-.02-.012-.039-.024-.06-.038-1.243-.825-3.613-4.717-5.039-7.057-4.159-6.829-9.337-15.329-18.905-15.329-9.569 0-14.747 8.5-18.907 15.331-1.425 2.339-3.794 6.229-5.036 7.054-.021.014-.041.027-.061.039-.029.017-.059.033-.091.049-1.471.747-6.024.88-9.059.969-7.825.228-17.557.513-22.222 8.457-.017.029-.034.057-.051.086-.021.036-.041.072-.061.107-4.433 7.809.068 16.229 3.688 23.001 1.605 2.997 3.8 7.104 3.8 8.907s-2.195 5.91-3.798 8.908c-3.619 6.77-8.119 15.187-3.692 22.994.022.038.043.076.065.114.019.032.038.064.056.096 4.667 7.935 14.395 8.219 22.217 8.448 3.036.088 7.591.222 9.058.968.031.016.061.031.089.048.019.012.039.024.059.037 1.243.824 3.614 4.717 5.039 7.057 4.16 6.83 9.338 15.33 18.907 15.33s14.747-8.5 18.907-15.331c1.425-2.339 3.795-6.229 5.035-7.054.021-.014.041-.026.06-.038.029-.017.059-.033.091-.049 1.471-.747 6.024-.88 9.059-.969 7.818-.228 17.539-.512 22.209-8.435.021-.036.043-.072.064-.109.024-.042.048-.084.072-.127 4.414-7.803-.083-16.215-3.7-22.981-1.602-2.997-3.797-7.104-3.797-8.907s2.195-5.91 3.798-8.908c3.619-6.77 8.118-15.186 3.693-22.993zm-34.081 60.736c-1.457-.243-3.633-.604-5.112-.716-.602 1.292-1.323 3.241-1.81 4.554-2.394 6.468-5.675 15.327-14.488 15.327-8.814 0-12.094-8.859-14.489-15.328-.485-1.312-1.207-3.261-1.809-4.553-1.479.112-3.655.474-5.112.716-6.685 1.112-15.842 2.636-20.156-4.82-4.244-7.335 1.538-14.393 5.76-19.546 1.033-1.261 2.607-3.183 3.434-4.469-.826-1.286-2.401-3.208-3.434-4.469-4.222-5.153-10.004-12.211-5.76-19.546 4.314-7.456 13.469-5.932 20.157-4.82 1.457.243 3.633.604 5.112.716.602-1.292 1.324-3.242 1.81-4.554 2.393-6.468 5.674-15.327 14.487-15.327s12.093 8.858 14.488 15.327c.485 1.313 1.207 3.262 1.81 4.555 1.479-.112 3.655-.474 5.112-.716 6.687-1.112 15.842-2.636 20.156 4.819 4.244 7.336-1.538 14.394-5.76 19.547-1.033 1.261-2.608 3.183-3.434 4.469.825 1.286 2.4 3.208 3.434 4.469 4.222 5.153 10.005 12.211 5.761 19.546-4.315 7.455-13.471 5.931-20.157 4.819z" fill="#faa019"/><path d="m297.567 184.015c4.244-7.335-1.539-14.393-5.761-19.546-1.033-1.261-2.608-3.183-3.434-4.469.825-1.286 2.4-3.208 3.434-4.469 4.222-5.153 10.004-12.211 5.76-19.547-4.314-7.455-13.47-5.931-20.156-4.819-1.457.243-3.633.604-5.112.716-.603-1.292-1.324-3.242-1.81-4.555-2.395-6.468-5.675-15.326-14.488-15.326s-12.094 8.859-14.488 15.328c-.486 1.312-1.208 3.261-1.81 4.554-1.479-.112-3.655-.474-5.112-.716-6.688-1.112-15.843-2.636-20.157 4.82-4.244 7.335 1.538 14.393 5.76 19.546 1.033 1.261 2.608 3.183 3.434 4.469-.826 1.286-2.401 3.208-3.434 4.469-4.222 5.153-10.004 12.211-5.76 19.546 4.314 7.456 13.472 5.932 20.156 4.82 1.458-.243 3.633-.604 5.112-.716.602 1.292 1.324 3.241 1.809 4.553 2.396 6.468 5.676 15.327 14.49 15.327 8.813 0 12.094-8.859 14.488-15.328.486-1.313 1.208-3.261 1.81-4.554 1.479.112 3.655.474 5.112.716 6.686 1.113 15.842 2.637 20.157-4.819zm-41.567 1.714c-1.787-4.756-3.813-9.445-7.989-11.861-2.294-1.327-4.852-1.773-7.522-1.773-2.078 0-4.225.271-6.368.605 3.098-3.876 5.879-7.946 5.879-12.7s-2.781-8.824-5.879-12.7c4.896.764 9.809 1.193 13.889-1.168 4.176-2.416 6.203-7.105 7.99-11.861 1.786 4.756 3.813 9.445 7.99 11.861 4.078 2.36 8.992 1.932 13.889 1.168-3.098 3.876-5.879 7.946-5.879 12.7s2.781 8.824 5.879 12.7c-4.895-.764-9.81-1.192-13.89 1.168-4.176 2.417-6.202 7.106-7.989 11.861z" fill="#ffd23c"/></g><g><path d="m320 352c0-3.345 1.757-8.058 3.456-12.616 3.247-8.712 6.928-18.586 1.829-27.401-5.248-9.068-15.833-10.803-25.173-12.333-4.648-.762-9.455-1.549-12.108-3.084-2.444-1.415-5.394-5.067-8.246-8.599-5.745-7.114-12.895-15.967-23.758-15.967s-18.013 8.853-23.758 15.966c-2.853 3.532-5.802 7.184-8.247 8.599-2.653 1.535-7.46 2.323-12.109 3.084-9.339 1.531-19.925 3.265-25.171 12.333-5.1 8.814-1.419 18.689 1.828 27.401 1.7 4.559 3.457 9.272 3.457 12.617s-1.757 8.058-3.456 12.616c-3.248 8.712-6.928 18.587-1.828 27.401 5.247 9.069 15.833 10.803 25.172 12.334 4.648.762 9.455 1.549 12.107 3.084 2.444 1.415 5.394 5.067 8.247 8.599 5.745 7.113 12.895 15.966 23.758 15.966s18.014-8.853 23.759-15.966c2.853-3.532 5.802-7.185 8.245-8.599 2.653-1.535 7.461-2.323 12.109-3.084 9.339-1.53 19.924-3.265 25.172-12.334 5.099-8.814 1.418-18.688-1.829-27.4-1.699-4.559-3.456-9.272-3.456-12.617zm-12.202 8.908c3.617 6.766 8.114 15.177 3.7 22.981-.019.039-.04.078-.061.115-.023.041-.048.081-.075.121-4.671 7.922-14.392 8.207-22.209 8.435-3.035.089-7.588.222-9.059.969-.034.02-.068.039-.103.059-.016.009-.032.019-.049.029-1.24.825-3.611 4.715-5.035 7.054-4.16 6.829-9.338 15.329-18.907 15.329s-14.747-8.5-18.907-15.331c-1.425-2.34-3.796-6.233-5.039-7.057-.015-.009-.03-.018-.045-.026-.034-.02-.069-.039-.103-.059-1.467-.746-6.022-.879-9.058-.968-7.823-.229-17.55-.513-22.217-8.448-.023-.035-.045-.071-.066-.107-.019-.033-.037-.068-.055-.103-4.427-7.807.073-16.224 3.692-22.994 1.603-2.997 3.798-7.104 3.798-8.907s-2.195-5.91-3.798-8.908c-3.62-6.772-8.121-15.192-3.688-23.001.017-.032.034-.065.052-.096.019-.033.04-.065.061-.098 4.665-7.944 14.396-8.229 22.222-8.457 3.035-.089 7.588-.222 9.059-.969.034-.02.068-.039.102-.059.016-.01.032-.019.049-.029 1.241-.825 3.611-4.715 5.036-7.054 4.158-6.829 9.336-15.329 18.905-15.329 9.568 0 14.746 8.5 18.906 15.33 1.426 2.34 3.796 6.232 5.039 7.057.016.009.031.018.047.027.034.02.068.039.103.059 1.468.746 6.022.879 9.058.968 7.822.229 17.55.513 22.218 8.449.023.035.045.07.065.106.02.034.038.068.056.104 4.425 7.807-.074 16.223-3.693 22.993-1.604 2.997-3.799 7.104-3.799 8.907s2.195 5.91 3.798 8.908z" fill="#ffd23c"/><path d="m311.491 320.099c-.022-.038-.043-.077-.065-.115-.018-.032-.037-.063-.056-.095-4.667-7.936-14.395-8.22-22.218-8.449-3.035-.088-7.589-.221-9.058-.968-.031-.016-.062-.032-.09-.048-.02-.012-.039-.024-.06-.038-1.243-.825-3.613-4.717-5.039-7.057-4.159-6.829-9.337-15.329-18.905-15.329-9.569 0-14.747 8.5-18.907 15.331-1.425 2.339-3.794 6.229-5.036 7.054-.021.014-.041.027-.061.039-.029.017-.059.033-.091.049-1.471.747-6.024.88-9.059.969-7.825.228-17.557.513-22.222 8.457-.017.029-.034.057-.051.086-.021.036-.041.072-.061.107-4.433 7.809.068 16.229 3.688 23.001 1.605 2.997 3.8 7.104 3.8 8.907s-2.195 5.91-3.798 8.908c-3.619 6.77-8.119 15.187-3.692 22.994.022.038.043.076.065.114.019.032.038.064.056.096 4.667 7.935 14.395 8.219 22.217 8.448 3.036.088 7.591.222 9.058.968.031.016.061.031.089.048.019.012.039.024.059.037 1.243.824 3.614 4.717 5.039 7.057 4.16 6.83 9.338 15.33 18.907 15.33s14.747-8.5 18.907-15.331c1.425-2.339 3.795-6.229 5.035-7.054.021-.014.041-.026.06-.038.029-.017.059-.033.091-.049 1.471-.747 6.024-.88 9.059-.969 7.818-.228 17.539-.512 22.209-8.435.021-.036.043-.072.064-.109.024-.042.048-.084.072-.127 4.414-7.803-.083-16.215-3.7-22.981-1.602-2.997-3.797-7.104-3.797-8.907s2.195-5.91 3.798-8.908c3.619-6.77 8.118-15.186 3.693-22.993zm-34.081 60.736c-1.457-.243-3.633-.604-5.112-.716-.602 1.292-1.323 3.241-1.81 4.554-2.394 6.468-5.675 15.327-14.488 15.327-8.814 0-12.094-8.859-14.489-15.328-.485-1.312-1.207-3.261-1.809-4.553-1.479.112-3.655.474-5.112.716-6.685 1.113-15.842 2.636-20.156-4.82-4.244-7.335 1.538-14.393 5.76-19.546 1.033-1.261 2.607-3.183 3.434-4.469-.826-1.286-2.401-3.208-3.434-4.469-4.222-5.153-10.004-12.211-5.76-19.546 4.314-7.456 13.469-5.932 20.157-4.82 1.457.243 3.633.604 5.112.716.602-1.292 1.324-3.242 1.81-4.554 2.393-6.468 5.674-15.327 14.487-15.327s12.093 8.858 14.488 15.327c.485 1.313 1.207 3.262 1.81 4.555 1.479-.112 3.655-.474 5.112-.716 6.687-1.112 15.842-2.636 20.156 4.819 4.244 7.336-1.538 14.394-5.76 19.547-1.033 1.261-2.608 3.183-3.434 4.469.825 1.286 2.4 3.208 3.434 4.469 4.222 5.153 10.005 12.211 5.761 19.546-4.315 7.455-13.471 5.931-20.157 4.819z" fill="#faa019"/><path d="m297.567 376.015c4.244-7.335-1.539-14.393-5.761-19.546-1.033-1.261-2.608-3.183-3.434-4.469.825-1.286 2.4-3.208 3.434-4.469 4.222-5.153 10.004-12.211 5.76-19.547-4.314-7.455-13.47-5.931-20.156-4.819-1.457.243-3.633.604-5.112.716-.603-1.292-1.324-3.242-1.81-4.555-2.395-6.468-5.675-15.326-14.488-15.326s-12.094 8.859-14.488 15.328c-.486 1.312-1.208 3.261-1.81 4.554-1.479-.112-3.655-.474-5.112-.716-6.688-1.112-15.843-2.636-20.157 4.82-4.244 7.335 1.538 14.393 5.76 19.546 1.033 1.261 2.608 3.183 3.434 4.469-.826 1.286-2.401 3.208-3.434 4.469-4.222 5.153-10.004 12.211-5.76 19.546 4.314 7.456 13.472 5.933 20.156 4.82 1.458-.243 3.633-.604 5.112-.716.602 1.292 1.324 3.241 1.809 4.553 2.396 6.468 5.676 15.327 14.49 15.327 8.813 0 12.094-8.859 14.488-15.328.486-1.313 1.208-3.261 1.81-4.554 1.479.112 3.655.474 5.112.716 6.686 1.113 15.842 2.637 20.157-4.819zm-41.567 1.714c-1.787-4.756-3.813-9.445-7.989-11.861-2.294-1.327-4.852-1.773-7.522-1.773-2.078 0-4.225.271-6.368.605 3.098-3.876 5.879-7.946 5.879-12.7s-2.781-8.824-5.879-12.7c4.896.764 9.809 1.193 13.889-1.168 4.176-2.416 6.203-7.105 7.99-11.861 1.786 4.756 3.813 9.445 7.99 11.861 4.078 2.36 8.992 1.932 13.889 1.168-3.098 3.876-5.879 7.946-5.879 12.7s2.781 8.824 5.879 12.7c-4.895-.764-9.81-1.192-13.89 1.168-4.176 2.417-6.202 7.106-7.989 11.861z" fill="#ffd23c"/></g><g><path d="m240.195 219.442c-1.632-4.236-3.321-8.617-3.323-11.44-.003-3.065 1.718-7.622 3.383-12.029 3.344-8.854 7.135-18.888 1.904-27.966-5.083-8.824-15.476-10.573-24.645-12.117-4.797-.808-9.757-1.643-12.653-3.315s-6.1-5.55-9.197-9.3c-5.918-7.165-12.625-15.285-22.799-15.285h-.017c-10.477.01-17.272 8.31-23.268 15.632-2.984 3.645-6.07 7.414-8.726 8.944-2.447 1.41-7.084 2.138-11.569 2.842-9.033 1.418-20.274 3.184-25.706 12.592s-1.34 20.026 1.948 28.558c1.632 4.236 3.321 8.617 3.323 11.44.003 3.065-1.718 7.622-3.383 12.029-3.344 8.854-7.135 18.888-1.904 27.966 5.083 8.824 15.476 10.573 24.644 12.117 4.797.808 9.757 1.643 12.654 3.315 2.896 1.672 6.1 5.55 9.197 9.301 5.918 7.165 12.625 15.284 22.799 15.284h.017c10.477-.01 17.272-8.31 23.268-15.632 2.984-3.645 6.07-7.414 8.726-8.944 2.447-1.41 7.084-2.138 11.57-2.842 9.032-1.418 20.274-3.184 25.706-12.592 5.431-9.408 1.339-20.026-1.949-28.558zm-11.908 20.558c-4.784 8.287-14.735 8.521-22.73 8.709-2.739.064-7.294.171-8.63.835-.016.009-.031.018-.047.026-.034.02-.069.04-.103.06-1.38.899-3.773 4.776-5.367 7.36-4.109 6.659-9.217 14.938-18.419 15.016-.044.002-.088.004-.131.004h-.001c-.038 0-.077-.001-.116-.004-8.974-.071-14.013-8.175-18.066-14.695-1.795-2.887-4.254-6.842-5.815-7.743s-6.215-1.054-9.613-1.165c-7.672-.251-17.209-.562-21.758-8.297-.022-.034-.043-.067-.063-.102-.021-.036-.041-.074-.06-.112-4.537-8.009.08-16.575 3.793-23.463 1.441-2.674 3.604-6.686 3.691-8.332 0-.039 0-.077 0-.116 0-.018 0-.036 0-.055-.093-1.487-2.278-5.485-3.591-7.89-3.835-7.019-8.607-15.752-3.823-24.04 4.785-8.287 14.735-8.521 22.73-8.709 2.739-.064 7.293-.171 8.629-.835.016-.009.031-.018.047-.026.035-.02.069-.04.104-.061 1.381-.899 3.772-4.776 5.366-7.36 4.109-6.659 9.217-14.938 18.419-15.016.044-.002.088-.004.131-.004h.001c.039 0 .079.001.119.004 8.973.072 14.01 8.176 18.063 14.694 1.795 2.887 4.254 6.842 5.815 7.743s6.216 1.054 9.614 1.165c7.675.251 17.217.563 21.763 8.306.02.031.039.062.057.093s.034.063.051.094c4.553 8.014-.068 16.587-3.783 23.48-1.441 2.674-3.604 6.686-3.691 8.332v.116.055c.093 1.487 2.278 5.485 3.591 7.89 3.835 7.022 8.607 15.756 3.823 24.043z" fill="#ffd23c"/><path d="m220.872 208.071c-.001-.024-.002-.047-.003-.07 0-.032.001-.066.003-.101.087-1.646 2.25-5.658 3.691-8.332 3.716-6.893 8.336-15.466 3.783-23.48-.015-.027-.03-.053-.045-.08-.021-.036-.042-.071-.063-.107-4.547-7.743-14.089-8.055-21.763-8.306-3.398-.111-8.052-.263-9.614-1.165s-4.02-4.856-5.815-7.743c-4.053-6.519-9.09-14.622-18.063-14.694-.04 0-.08-.001-.121-.001h-.014c-.039 0-.078 0-.117.001-9.202.078-14.311 8.357-18.419 15.016-1.594 2.584-3.986 6.461-5.366 7.36-.03.019-.059.038-.087.054-.02.011-.041.022-.063.033-1.336.664-5.891.771-8.629.835-7.996.188-17.946.422-22.73 8.709s-.012 17.021 3.823 24.04c1.314 2.404 3.499 6.403 3.591 7.89.001.024.002.047.003.07 0 .032-.001.066-.003.101-.087 1.646-2.25 5.658-3.691 8.332-3.713 6.888-8.33 15.454-3.793 23.463.018.033.036.065.055.098.022.039.045.077.068.116 4.548 7.735 14.086 8.046 21.758 8.297 3.398.111 8.052.263 9.613 1.165s4.02 4.856 5.815 7.743c4.053 6.519 9.092 14.624 18.066 14.695.04 0 .079.001.118.001h.014c.039 0 .078 0 .117-.001 9.202-.078 14.311-8.357 18.419-15.016 1.594-2.584 3.987-6.461 5.367-7.36.029-.019.058-.037.087-.054.02-.011.041-.022.063-.033 1.336-.664 5.891-.771 8.63-.835 7.995-.188 17.946-.422 22.73-8.709s.012-17.021-3.823-24.04c-1.314-2.407-3.499-6.405-3.592-7.892zm-26.959 28.812c-1.379-.235-3.428-.585-4.848-.71-.643 1.337-1.417 3.402-1.936 4.786-2.379 6.347-5.638 15.038-14.252 15.046h-.012c-8.466 0-11.685-8.531-14.036-14.761-.575-1.525-1.453-3.851-2.154-5.208-1.527.072-3.979.475-5.588.739-6.575 1.08-15.577 2.558-19.807-4.784-4.3-7.465 1.598-14.633 5.904-19.867.938-1.141 2.34-2.844 3.176-4.069-.819-1.167-2.146-2.767-3.039-3.843-4.405-5.309-10.437-12.579-6.03-20.212 4.407-7.632 13.72-6.044 20.518-4.883 1.379.235 3.428.585 4.848.71.643-1.337 1.417-3.402 1.936-4.786 2.379-6.347 5.638-15.038 14.252-15.046h.012c8.466 0 11.685 8.531 14.036 14.762.575 1.524 1.453 3.85 2.154 5.208 1.527-.072 3.979-.475 5.588-.739 6.574-1.079 15.578-2.558 19.807 4.784 4.3 7.465-1.598 14.633-5.904 19.867-.938 1.141-2.34 2.844-3.176 4.069.819 1.167 2.146 2.767 3.039 3.843 4.405 5.309 10.437 12.579 6.029 20.212-4.407 7.632-13.72 6.043-20.517 4.882z" fill="#faa019"/><path d="m214.43 232c4.408-7.633-1.625-14.903-6.029-20.212-.894-1.077-2.22-2.676-3.039-3.843.836-1.226 2.238-2.929 3.176-4.069 4.307-5.234 10.205-12.402 5.904-19.867-4.229-7.342-13.232-5.863-19.807-4.784-1.608.264-4.061.667-5.588.739-.701-1.358-1.579-3.684-2.154-5.208-2.351-6.23-5.57-14.762-14.036-14.762h-.012c-8.614.008-11.873 8.7-14.252 15.046-.519 1.383-1.293 3.449-1.936 4.786-1.42-.125-3.469-.475-4.848-.71-6.798-1.161-16.111-2.75-20.518 4.883s1.625 14.903 6.03 20.212c.894 1.077 2.22 2.676 3.039 3.843-.836 1.226-2.238 2.929-3.176 4.069-4.307 5.234-10.205 12.402-5.904 19.867 4.229 7.341 13.231 5.864 19.807 4.784 1.608-.264 4.061-.667 5.588-.739.701 1.358 1.579 3.684 2.154 5.208 2.351 6.23 5.57 14.762 14.036 14.761h.012c8.614-.008 11.873-8.7 14.252-15.046.519-1.383 1.293-3.449 1.936-4.786 1.42.125 3.469.475 4.848.71 6.797 1.162 16.11 2.751 20.517-4.882zm-41.509 1.298c-1.809-4.621-3.942-9.064-8.059-11.441-2.369-1.368-5-1.825-7.744-1.825-2.025 0-4.111.25-6.195.565 3.11-3.857 5.937-7.898 5.933-12.613-.005-4.825-3.052-8.924-6.277-12.849 5.012.831 10.085 1.42 14.267-.989 4.084-2.353 6.171-6.822 7.957-11.444 1.808 4.621 3.942 9.064 8.059 11.441 4.117 2.376 9.033 2.003 13.938 1.259-3.11 3.857-5.937 7.898-5.933 12.613.005 4.825 3.052 8.924 6.277 12.849-5.014-.831-10.086-1.42-14.267.989-4.084 2.354-6.17 6.823-7.956 11.445z" fill="#ffd23c"/></g><g><path d="m406.473 315.442c-1.633-4.236-3.32-8.617-3.323-11.441-.003-3.065 1.719-7.622 3.383-12.029 3.344-8.854 7.135-18.888 1.904-27.966-5.083-8.824-15.476-10.573-24.645-12.117-4.797-.808-9.757-1.643-12.653-3.315-2.897-1.672-6.101-5.551-9.198-9.301-5.918-7.165-12.624-15.284-22.798-15.284h-.017c-10.478.01-17.273 8.31-23.269 15.633-2.984 3.645-6.069 7.414-8.725 8.943-2.447 1.41-7.085 2.138-11.57 2.843-9.033 1.418-20.274 3.184-25.706 12.592h-.001c-5.431 9.408-1.339 20.025 1.949 28.557 1.633 4.236 3.32 8.617 3.323 11.44.003 3.065-1.719 7.622-3.383 12.029-3.344 8.854-7.135 18.889-1.904 27.967 5.083 8.824 15.476 10.573 24.645 12.117 4.797.808 9.757 1.643 12.653 3.315s6.1 5.55 9.197 9.3c5.918 7.165 12.624 15.285 22.799 15.285h.017c10.478-.01 17.272-8.31 23.268-15.632 2.984-3.645 6.069-7.414 8.727-8.944 2.446-1.41 7.084-2.138 11.569-2.842 9.032-1.418 20.274-3.184 25.706-12.592 5.431-9.408 1.339-20.026-1.948-28.558zm-11.909 20.558c-4.785 8.287-14.735 8.521-22.73 8.709-2.737.064-7.287.171-8.627.833-.016.009-.033.019-.049.028-.036.021-.072.042-.108.063-1.381.904-3.771 4.776-5.363 7.358-4.109 6.658-9.217 14.938-18.419 15.016-.044.002-.088.004-.131.004-.001 0-.001 0-.002 0-.038 0-.077-.001-.116-.004-8.974-.071-14.013-8.176-18.066-14.695-1.795-2.887-4.253-6.841-5.814-7.743s-6.216-1.054-9.614-1.165c-7.671-.251-17.209-.562-21.757-8.297-.022-.034-.043-.067-.063-.102-.021-.036-.041-.073-.06-.111-4.539-8.01.079-16.576 3.792-23.465 1.439-2.669 3.597-6.673 3.691-8.324 0-.041.001-.082.001-.123 0-.021 0-.041 0-.061-.098-1.49-2.279-5.481-3.591-7.883-3.829-7.007-8.593-15.725-3.846-24 .007-.013.014-.027.021-.04s.016-.025.023-.038c4.793-8.249 14.724-8.483 22.707-8.671 2.743-.064 7.308-.172 8.636-.838.014-.008.028-.016.042-.024.033-.019.065-.038.098-.057 1.381-.894 3.776-4.777 5.372-7.364 4.108-6.659 9.217-14.938 18.418-15.016.044-.002.088-.004.131-.004h.002c.039 0 .079.001.119.004 8.971.072 14.01 8.175 18.062 14.693 1.796 2.888 4.255 6.842 5.816 7.744 1.562.901 6.215 1.054 9.613 1.165 7.668.25 17.2.562 21.75 8.285.025.037.049.075.071.113.024.042.047.084.069.128 4.522 8.004-.091 16.563-3.802 23.447-1.438 2.669-3.596 6.671-3.69 8.323 0 .042-.001.083-.001.125v.06c.098 1.491 2.279 5.482 3.591 7.884 3.836 7.022 8.609 15.756 3.824 24.043z" fill="#ffd23c"/><path d="m387.15 304.076c-.002-.026-.003-.051-.003-.075 0-.035.001-.072.004-.11.094-1.651 2.252-5.653 3.69-8.323 3.711-6.884 8.324-15.443 3.802-23.447-.021-.038-.043-.076-.065-.114-.025-.043-.05-.085-.075-.127-4.551-7.723-14.083-8.035-21.75-8.285-3.398-.111-8.052-.263-9.613-1.165-1.562-.902-4.021-4.856-5.816-7.744-4.052-6.518-9.091-14.621-18.062-14.693-.04 0-.08-.001-.121-.001h-.015c-.039 0-.078 0-.117.001-9.202.078-14.311 8.357-18.418 15.016-1.597 2.587-3.991 6.469-5.372 7.364-.028.018-.056.035-.083.051-.018.01-.037.02-.056.03-1.328.667-5.893.774-8.636.838-7.983.188-17.914.421-22.707 8.671-.007.013-.015.025-.022.038-.008.013-.015.026-.022.04-4.747 8.275.017 16.993 3.846 24 1.312 2.401 3.493 6.393 3.591 7.883.002.026.003.051.003.075 0 .035-.001.071-.004.108-.094 1.651-2.252 5.655-3.691 8.324-3.713 6.889-8.331 15.455-3.792 23.465.018.032.036.064.055.096.022.039.045.077.068.116 4.548 7.735 14.087 8.046 21.757 8.297 3.398.111 8.053.263 9.614 1.165s4.02 4.855 5.814 7.743c4.053 6.52 9.093 14.624 18.066 14.695.039 0 .079.001.118.001h.015c.039 0 .078 0 .117-.001 9.202-.078 14.31-8.357 18.419-15.016 1.593-2.582 3.982-6.454 5.363-7.358.031-.02.061-.04.091-.057.021-.011.043-.023.066-.034 1.339-.662 5.89-.769 8.627-.833 7.995-.188 17.945-.422 22.73-8.709 4.784-8.287.012-17.021-3.823-24.04-1.314-2.402-3.495-6.394-3.593-7.885zm-26.961 28.807c-1.38-.235-3.428-.585-4.849-.71-.643 1.337-1.417 3.403-1.936 4.787-2.38 6.346-5.639 15.037-14.252 15.045h-.012c-8.466 0-11.685-8.532-14.036-14.762-.575-1.524-1.453-3.85-2.153-5.208-1.527.072-3.979.475-5.588.739-6.572 1.079-15.576 2.559-19.807-4.784-4.301-7.464 1.598-14.632 5.904-19.866.938-1.141 2.34-2.844 3.176-4.069-.818-1.168-2.146-2.768-3.039-3.845-4.404-5.308-10.436-12.578-6.03-20.21l.001-.001c4.406-7.632 13.719-6.044 20.519-4.883 1.379.235 3.428.585 4.848.71.643-1.337 1.417-3.402 1.936-4.785 2.38-6.347 5.639-15.039 14.253-15.047h.012c8.466 0 11.685 8.531 14.035 14.761.575 1.525 1.453 3.851 2.154 5.208 1.526-.072 3.979-.475 5.587-.739 6.572-1.081 15.576-2.559 19.807 4.784 4.301 7.464-1.598 14.633-5.904 19.867-.938 1.141-2.34 2.844-3.176 4.069.818 1.167 2.146 2.767 3.039 3.844 4.404 5.308 10.437 12.579 6.029 20.211-4.404 7.633-13.718 6.046-20.518 4.884z" fill="#faa019"/><path d="m380.707 328c4.407-7.633-1.625-14.903-6.029-20.211-.894-1.077-2.221-2.676-3.039-3.844.836-1.226 2.237-2.928 3.176-4.069 4.307-5.234 10.205-12.402 5.904-19.867-4.23-7.343-13.234-5.864-19.807-4.784-1.608.264-4.061.667-5.587.739-.701-1.358-1.579-3.684-2.154-5.208-2.351-6.23-5.569-14.761-14.035-14.761h-.012c-8.614.008-11.873 8.7-14.253 15.047-.519 1.383-1.293 3.448-1.936 4.785-1.42-.125-3.469-.475-4.848-.71-6.8-1.161-16.112-2.749-20.519 4.883-4.405 7.632 1.626 14.902 6.03 20.21.894 1.077 2.221 2.677 3.039 3.845-.836 1.225-2.237 2.928-3.176 4.069-4.307 5.234-10.205 12.402-5.904 19.866 4.23 7.343 13.234 5.863 19.807 4.784 1.608-.264 4.061-.667 5.588-.739.7 1.358 1.578 3.683 2.153 5.208 2.352 6.23 5.57 14.763 14.036 14.762h.012c8.613-.008 11.872-8.699 14.252-15.045.519-1.384 1.293-3.449 1.936-4.787 1.421.125 3.469.475 4.849.71 6.799 1.162 16.113 2.749 20.517-4.883zm-41.509 1.298c-1.809-4.621-3.942-9.064-8.06-11.441-2.368-1.367-5.001-1.825-7.743-1.825-2.025 0-4.111.25-6.195.565 3.11-3.857 5.938-7.899 5.933-12.612-.004-4.824-3.052-8.924-6.276-12.85 5.011.831 10.085 1.42 14.267-.989 4.084-2.353 6.171-6.823 7.956-11.444 1.809 4.621 3.941 9.064 8.059 11.441s9.031 2.004 13.938 1.259c-3.109 3.857-5.937 7.899-5.933 12.613.004 4.824 3.052 8.924 6.277 12.85-5.014-.832-10.088-1.42-14.266.988-4.085 2.353-6.172 6.823-7.957 11.445z" fill="#ffd23c"/></g><g><path d="m236.872 303.999c.002-2.824 1.691-7.205 3.323-11.441 3.288-8.532 7.38-19.15 1.948-28.558s-16.673-11.173-25.706-12.592c-4.485-.705-9.123-1.433-11.57-2.842-2.656-1.53-5.741-5.299-8.725-8.944-5.996-7.323-12.791-15.623-23.268-15.633h-.017c-10.173 0-16.881 8.12-22.798 15.284-3.098 3.75-6.301 7.628-9.198 9.301-2.896 1.672-7.856 2.507-12.653 3.315-9.168 1.544-19.561 3.293-24.645 12.117-5.23 9.078-1.439 19.113 1.905 27.966 1.665 4.407 3.386 8.963 3.383 12.028-.002 2.824-1.691 7.205-3.323 11.441-3.288 8.532-7.38 19.15-1.948 28.558s16.673 11.173 25.706 12.592c4.485.705 9.123 1.433 11.57 2.842 2.656 1.53 5.741 5.299 8.725 8.944 5.996 7.323 12.791 15.623 23.268 15.633h.018c10.173 0 16.881-8.12 22.798-15.285 3.098-3.75 6.301-7.628 9.197-9.3s7.856-2.507 12.653-3.315c9.169-1.544 19.561-3.293 24.645-12.117 5.23-9.078 1.44-19.113-1.904-27.967-1.666-4.405-3.387-8.962-3.384-12.027zm-12.309 8.433c3.716 6.893 8.336 15.466 3.783 23.48-.017.032-.033.063-.051.094s-.037.062-.057.093c-4.547 7.743-14.089 8.055-21.763 8.306-3.398.111-8.052.263-9.614 1.165-1.561.901-4.02 4.855-5.815 7.743-4.052 6.518-9.091 14.622-18.063 14.694-.04.002-.08.004-.119.004h-.002c-.043 0-.087-.001-.131-.004-9.202-.077-14.311-8.357-18.419-15.016-1.595-2.585-3.989-6.465-5.37-7.363-.033-.019-.066-.039-.099-.058-.016-.009-.031-.018-.047-.027-1.333-.663-5.89-.77-8.629-.834-7.996-.188-17.946-.422-22.73-8.709s-.012-17.021 3.823-24.04c1.314-2.404 3.499-6.403 3.591-7.892 0-.018 0-.036 0-.053 0-.039 0-.078-.001-.117-.087-1.645-2.249-5.656-3.691-8.33-3.715-6.891-8.334-15.461-3.787-23.473.018-.034.036-.068.054-.101.019-.033.039-.065.06-.097 4.548-7.74 14.088-8.051 21.761-8.302 3.387-.11 8.021-.262 9.598-1.156.005-.003.01-.006.016-.009s.011-.007.017-.01c1.562-.919 4.01-4.856 5.799-7.733 4.052-6.518 9.092-14.622 18.063-14.694.04-.002.08-.004.119-.004h.001c.043 0 .087.001.131.004 9.202.077 14.311 8.357 18.419 15.016 1.595 2.585 3.989 6.465 5.37 7.363.033.019.066.039.099.058.016.009.031.018.047.027 1.333.663 5.89.77 8.63.834 7.995.188 17.946.422 22.73 8.709s.012 17.021-3.823 24.04c-1.314 2.404-3.499 6.403-3.591 7.892v.053c0 .039 0 .078.001.117.087 1.644 2.249 5.656 3.69 8.33z" fill="#ffd23c"/><path d="m220.872 303.931c.093-1.489 2.277-5.487 3.591-7.892 3.835-7.019 8.607-15.752 3.823-24.04s-14.735-8.521-22.73-8.709c-2.74-.064-7.297-.171-8.63-.834-.021-.011-.042-.021-.061-.032-.028-.016-.056-.034-.085-.052-1.382-.897-3.775-4.777-5.37-7.363-4.108-6.659-9.218-14.939-18.419-15.016-.038 0-.077-.001-.115-.001h-.015c-.041 0-.081 0-.121.001-8.972.073-14.011 8.176-18.063 14.694-1.789 2.877-4.237 6.814-5.799 7.733-.005.003-.011.007-.016.01s-.011.006-.016.009c-1.577.894-6.21 1.045-9.598 1.156-7.673.251-17.213.562-21.761 8.302-.022.037-.043.074-.065.111-.017.029-.033.058-.05.087-4.546 8.012.073 16.582 3.787 23.473 1.441 2.674 3.604 6.686 3.691 8.33.002.034.003.068.003.101 0 .022-.001.046-.003.07-.093 1.489-2.277 5.487-3.591 7.892-3.835 7.019-8.607 15.752-3.823 24.04 4.785 8.287 14.735 8.521 22.73 8.709 2.74.064 7.296.171 8.629.834.021.011.042.021.061.032.028.016.056.034.085.052 1.382.897 3.775 4.777 5.37 7.363 4.108 6.659 9.218 14.939 18.419 15.016.038 0 .077.001.115.001h.015c.041 0 .081 0 .122-.001 8.971-.073 14.01-8.177 18.063-14.694 1.795-2.888 4.254-6.842 5.815-7.743 1.562-.901 6.216-1.054 9.614-1.165 7.675-.251 17.217-.563 21.763-8.306.021-.036.042-.071.063-.107.015-.027.03-.053.045-.08 4.553-8.014-.068-16.587-3.783-23.48-1.441-2.674-3.604-6.686-3.691-8.33-.002-.034-.003-.068-.003-.101.002-.022.003-.046.004-.07zm-26.236 28.843c-1.608-.264-4.061-.667-5.588-.739-.701 1.358-1.578 3.684-2.154 5.209-2.351 6.229-5.571 14.76-14.035 14.761h-.011c-8.615-.008-11.874-8.7-14.253-15.046-.519-1.383-1.293-3.449-1.936-4.786-1.42.125-3.469.475-4.848.71-6.799 1.16-16.111 2.75-20.518-4.883-4.407-7.633 1.625-14.903 6.03-20.212.894-1.077 2.22-2.676 3.039-3.843-.836-1.226-2.238-2.929-3.176-4.069-4.307-5.234-10.205-12.402-5.904-19.866 4.229-7.343 13.232-5.865 19.807-4.784 1.608.264 4.061.667 5.588.739.701-1.358 1.579-3.684 2.154-5.209 2.351-6.229 5.571-14.761 14.035-14.761h.011c8.615.008 11.874 8.7 14.253 15.046.519 1.383 1.293 3.449 1.936 4.786 1.42-.125 3.469-.475 4.848-.71 6.799-1.16 16.111-2.75 20.518 4.883 4.407 7.632-1.625 14.903-6.03 20.211-.894 1.077-2.22 2.676-3.039 3.843.836 1.226 2.238 2.929 3.176 4.069 4.307 5.234 10.205 12.402 5.904 19.866-4.231 7.344-13.234 5.865-19.807 4.785z" fill="#faa019"/><path d="m214.442 327.99c4.301-7.464-1.598-14.632-5.904-19.866-.938-1.141-2.34-2.844-3.176-4.069.819-1.167 2.146-2.767 3.039-3.843 4.405-5.309 10.437-12.579 6.03-20.211-4.407-7.633-13.719-6.043-20.518-4.883-1.379.235-3.428.585-4.848.71-.643-1.337-1.417-3.402-1.936-4.786-2.379-6.346-5.638-15.038-14.253-15.046h-.011c-8.464 0-11.685 8.531-14.035 14.761-.575 1.525-1.453 3.851-2.154 5.209-1.527-.072-3.979-.475-5.588-.739-6.575-1.081-15.577-2.559-19.807 4.784-4.301 7.464 1.598 14.632 5.904 19.866.938 1.141 2.34 2.844 3.176 4.069-.819 1.167-2.146 2.767-3.039 3.843-4.405 5.309-10.437 12.579-6.03 20.212 4.407 7.633 13.719 6.043 20.518 4.883 1.379-.235 3.428-.585 4.848-.71.643 1.337 1.417 3.402 1.936 4.786 2.379 6.346 5.638 15.038 14.253 15.046h.011c8.464-.001 11.685-8.532 14.035-14.761.576-1.525 1.453-3.851 2.154-5.209 1.527.072 3.979.475 5.588.739 6.574 1.079 15.577 2.558 19.807-4.785zm-41.64 1.308c-1.786-4.622-3.872-9.091-7.957-11.445-2.223-1.28-4.698-1.713-7.282-1.713-2.276 0-4.637.336-6.984.725 3.226-3.925 6.272-8.025 6.277-12.85.004-4.713-2.823-8.755-5.933-12.612 4.908.744 9.822 1.118 13.938-1.259 4.118-2.377 6.251-6.821 8.06-11.441 1.786 4.622 3.872 9.091 7.957 11.445 4.182 2.409 9.255 1.82 14.267.988-3.226 3.925-6.272 8.025-6.277 12.85-.004 4.713 2.823 8.755 5.933 12.612-4.906-.744-9.82-1.118-13.938 1.259-4.119 2.376-6.253 6.82-8.061 11.441z" fill="#ffd23c"/></g><g><path d="m403.149 207.999c.003-2.824 1.69-7.205 3.323-11.441 3.287-8.532 7.379-19.15 1.948-28.557-5.432-9.408-16.674-11.174-25.706-12.592-4.485-.705-9.123-1.433-11.57-2.843-2.656-1.53-5.741-5.299-8.726-8.944-5.995-7.323-12.79-15.623-23.268-15.632h-.017c-10.174 0-16.882 8.12-22.799 15.285-3.098 3.75-6.301 7.628-9.197 9.3s-7.856 2.507-12.653 3.315c-9.169 1.544-19.562 3.293-24.645 12.117-5.23 9.078-1.439 19.113 1.904 27.967 1.664 4.407 3.386 8.963 3.383 12.028-.003 2.824-1.69 7.205-3.323 11.441-3.288 8.532-7.38 19.149-1.949 28.557h.001c5.432 9.408 16.673 11.173 25.706 12.592 4.485.705 9.123 1.433 11.569 2.842 2.656 1.53 5.742 5.299 8.726 8.944 5.995 7.323 12.79 15.623 23.268 15.633h.017c10.173 0 16.881-8.12 22.799-15.284 3.098-3.751 6.301-7.629 9.198-9.301 2.896-1.672 7.856-2.507 12.653-3.315 9.169-1.544 19.562-3.293 24.645-12.117 5.23-9.078 1.439-19.113-1.904-27.966-1.665-4.407-3.386-8.964-3.383-12.029zm-12.308 8.433c3.712 6.888 8.33 15.454 3.793 23.463-.019.038-.039.075-.06.112-.02.034-.041.068-.063.102-4.548 7.735-14.087 8.046-21.758 8.297-3.397.111-8.052.263-9.613 1.165-1.562.902-4.021 4.856-5.816 7.744-4.052 6.518-9.092 14.621-18.063 14.693-.04.002-.08.004-.119.004 0 0-.001 0-.002 0-.043 0-.087-.001-.131-.004-9.201-.078-14.31-8.357-18.418-15.016-1.597-2.587-3.991-6.47-5.373-7.364-.032-.019-.065-.038-.097-.057-.014-.008-.028-.016-.042-.024-1.328-.666-5.892-.773-8.634-.837-7.983-.188-17.914-.421-22.707-8.671-.008-.013-.016-.025-.023-.038s-.014-.026-.021-.04c-4.747-8.275.017-16.993 3.846-24 1.312-2.401 3.494-6.393 3.591-7.886 0-.02 0-.039 0-.059 0-.042 0-.083-.001-.125-.094-1.648-2.252-5.652-3.691-8.321-3.713-6.889-8.331-15.455-3.792-23.465.019-.038.039-.075.06-.111.02-.034.041-.068.063-.102 4.548-7.735 14.087-8.046 21.757-8.297 3.398-.111 8.053-.263 9.614-1.165s4.02-4.856 5.814-7.743c4.053-6.518 9.092-14.622 18.064-14.694.04-.002.08-.004.119-.004h.002c.043 0 .087.001.131.004 9.202.078 14.31 8.357 18.419 15.016 1.594 2.583 3.985 6.46 5.368 7.361.034.02.068.04.102.059.016.01.033.019.05.028 1.335.662 5.889.769 8.627.833 7.995.188 17.945.422 22.73 8.709 4.784 8.287.012 17.021-3.823 24.04-1.312 2.402-3.494 6.394-3.591 7.887v.058c0 .042 0 .085.001.127.09 1.649 2.248 5.652 3.687 8.321z" fill="#ffd23c"/><path d="m387.15 207.926c.098-1.493 2.279-5.485 3.591-7.887 3.835-7.018 8.607-15.752 3.823-24.04-4.785-8.287-14.735-8.521-22.73-8.709-2.738-.064-7.292-.171-8.627-.833-.022-.011-.043-.022-.063-.033-.029-.017-.058-.035-.088-.054-1.383-.901-3.774-4.777-5.368-7.361-4.109-6.659-9.217-14.938-18.419-15.016-.039 0-.078-.001-.117-.001h-.015c-.04 0-.08 0-.121.001-8.972.072-14.011 8.176-18.064 14.694-1.795 2.887-4.253 6.842-5.814 7.743s-6.216 1.054-9.614 1.165c-7.671.251-17.209.562-21.757 8.297-.023.039-.045.077-.068.116-.019.032-.036.064-.055.096-4.539 8.01.079 16.576 3.792 23.465 1.439 2.669 3.597 6.673 3.691 8.321.002.037.004.074.004.108 0 .024-.002.05-.003.075-.098 1.493-2.279 5.485-3.591 7.886-3.829 7.007-8.593 15.725-3.846 24 .008.013.015.026.022.04.007.013.015.025.022.038 4.793 8.249 14.724 8.483 22.707 8.671 2.743.064 7.306.172 8.634.837.02.01.039.02.057.03.027.016.055.033.083.051 1.382.894 3.777 4.777 5.373 7.364 4.108 6.659 9.217 14.938 18.418 15.016.039 0 .078.001.117.001h.015c.04 0 .08 0 .121-.001 8.971-.072 14.011-8.176 18.063-14.693 1.796-2.888 4.255-6.842 5.816-7.744 1.562-.901 6.216-1.054 9.613-1.165 7.672-.251 17.21-.562 21.758-8.297.023-.039.045-.077.068-.116.019-.032.037-.065.055-.097 4.538-8.009-.08-16.575-3.793-23.463-1.439-2.669-3.597-6.672-3.691-8.321-.002-.038-.004-.074-.004-.11.002-.023.003-.048.005-.074zm-26.238 28.848c-1.608-.264-4.061-.667-5.587-.739-.701 1.358-1.579 3.684-2.154 5.208-2.351 6.229-5.57 14.76-14.035 14.761h-.011c-8.614-.008-11.874-8.7-14.253-15.046-.519-1.384-1.293-3.449-1.937-4.786-1.42.125-3.469.475-4.848.71-6.8 1.16-16.111 2.748-20.519-4.883v.001c-4.405-7.632 1.626-14.902 6.03-20.21.894-1.077 2.221-2.677 3.039-3.845-.836-1.225-2.237-2.929-3.177-4.069-4.306-5.234-10.204-12.402-5.903-19.866 4.23-7.341 13.233-5.864 19.807-4.784 1.608.264 4.062.667 5.588.739.7-1.358 1.578-3.683 2.153-5.208 2.351-6.23 5.571-14.762 14.036-14.762h.011c8.615.008 11.873 8.7 14.253 15.046.519 1.383 1.293 3.449 1.936 4.786 1.421-.125 3.469-.475 4.849-.71 6.8-1.16 16.11-2.749 20.518 4.883 4.407 7.633-1.625 14.903-6.029 20.211-.894 1.077-2.221 2.676-3.039 3.844.836 1.226 2.237 2.929 3.177 4.069 4.306 5.234 10.204 12.402 5.903 19.866-4.231 7.342-13.234 5.865-19.808 4.784z" fill="#faa019"/><path d="m380.719 231.99c4.301-7.464-1.598-14.632-5.903-19.866-.939-1.141-2.341-2.844-3.177-4.069.818-1.167 2.146-2.767 3.039-3.844 4.404-5.308 10.437-12.579 6.029-20.211-4.407-7.631-13.718-6.043-20.518-4.883-1.38.235-3.428.585-4.849.71-.643-1.337-1.417-3.402-1.936-4.786-2.38-6.347-5.638-15.038-14.253-15.046h-.011c-8.465 0-11.686 8.532-14.036 14.762-.575 1.524-1.453 3.85-2.153 5.208-1.526-.072-3.979-.475-5.588-.739-6.573-1.08-15.576-2.557-19.807 4.784-4.301 7.464 1.598 14.632 5.903 19.866.939 1.141 2.341 2.844 3.177 4.069-.818 1.168-2.146 2.768-3.039 3.845-4.404 5.308-10.436 12.578-6.03 20.21l.001.001c4.407 7.631 13.719 6.043 20.519 4.883 1.379-.235 3.428-.585 4.848-.71.644 1.337 1.418 3.402 1.937 4.786 2.379 6.346 5.639 15.038 14.253 15.046h.011c8.465-.001 11.685-8.532 14.035-14.761.575-1.525 1.453-3.851 2.154-5.208 1.526.072 3.979.475 5.587.739 6.574 1.079 15.577 2.556 19.807-4.786zm-41.64 1.308c-1.785-4.622-3.872-9.091-7.956-11.444-2.224-1.281-4.698-1.714-7.283-1.714-2.275 0-4.637.336-6.983.725 3.225-3.925 6.272-8.025 6.276-12.849.005-4.714-2.822-8.756-5.933-12.613 4.906.744 9.821 1.118 13.938-1.259s6.251-6.821 8.059-11.441c1.786 4.622 3.872 9.091 7.957 11.444 4.18 2.408 9.253 1.82 14.267.988-3.226 3.925-6.273 8.025-6.277 12.85-.004 4.713 2.823 8.755 5.933 12.612-4.903-.743-9.819-1.118-13.938 1.259-4.118 2.377-6.251 6.821-8.06 11.442z" fill="#ffd23c"/></g><g><g><path d="m196 156c-1.024 0-2.047-.391-2.829-1.171-1.562-1.563-1.562-4.095 0-5.657l.678-.678c5.478-5.477 12.76-8.494 20.506-8.494h17.645c2.209 0 4 1.791 4 4s-1.791 4-4 4h-17.645c-5.609 0-10.883 2.185-14.849 6.151l-.678.678c-.781.78-1.804 1.171-2.828 1.171z" fill="#e1322d"/></g><g><path d="m208 168c-1.024 0-2.047-.391-2.829-1.171-1.562-1.563-1.562-4.095 0-5.657l.678-.678c5.478-5.477 12.76-8.494 20.506-8.494h17.645c2.209 0 4 1.791 4 4s-1.791 4-4 4h-17.645c-5.609 0-10.883 2.185-14.849 6.151l-.678.678c-.781.78-1.804 1.171-2.828 1.171z" fill="#e1322d"/></g><g><path d="m312 128c39.766 0 72 32.234 72 72s-32.234 72-72 72v-16c17.673 0 32-14.327 32-32s-14.327-32-32-32z" fill="#e1322d"/></g><g><path d="m312 128h-116c-2.209 0-4 1.791-4 4s1.791 4 4 4h4.791c8.452 0 16.023 5.303 18.832 13.275 8.769 24.888 32.489 42.725 60.377 42.725h32c17.673 0 32-14.327 32-32s-14.327-32-32-32z" fill="#f04b37"/></g><g><path d="m288 240h8c8.837 0 16 7.163 16 16h-24c-4.418 0-8-3.582-8-8 0-4.418 3.582-8 8-8z" fill="#e1322d"/></g><g><path d="m288 272h24v-16h-24c-4.418 0-8 3.582-8 8 0 4.418 3.582 8 8 8z" fill="#e1322d"/></g><g><path d="m308 136h-112c-2.209 0-4-1.791-4-4 0-2.209 1.791-4 4-4h112c2.209 0 4 1.791 4 4 0 2.209-1.791 4-4 4z" fill="#f5826e"/></g><g><circle cx="248" cy="136" fill="#463c4b" r="8"/></g></g><g><g><path d="m297.645 372h-17.645c-2.209 0-4-1.791-4-4s1.791-4 4-4h17.645c5.609 0 10.883-2.185 14.85-6.151l.678-.678c1.561-1.562 4.096-1.562 5.656 0 1.563 1.563 1.563 4.095 0 5.657l-.678.678c-5.477 5.477-12.76 8.494-20.506 8.494z" fill="#e1322d"/></g><g><path d="m285.645 360h-17.645c-2.209 0-4-1.791-4-4s1.791-4 4-4h17.645c5.609 0 10.883-2.185 14.85-6.151l.678-.678c1.561-1.562 4.096-1.562 5.656 0 1.563 1.563 1.563 4.095 0 5.657l-.678.678c-5.477 5.477-12.76 8.494-20.506 8.494z" fill="#e1322d"/></g><g><path d="m200 384c-39.766 0-72-32.234-72-72s32.234-72 72-72v16c-17.673 0-32 14.327-32 32s14.327 32 32 32z" fill="#e1322d"/></g><g><path d="m200 384h116c2.209 0 4-1.791 4-4s-1.791-4-4-4h-4.791c-8.452 0-16.023-5.303-18.832-13.275-8.769-24.888-32.489-42.725-60.377-42.725h-32c-17.673 0-32 14.327-32 32s14.327 32 32 32z" fill="#f04b37"/></g><g><path d="m224 272h-8c-8.837 0-16-7.163-16-16h24c4.418 0 8 3.582 8 8 0 4.418-3.582 8-8 8z" fill="#e1322d"/></g><g><path d="m224 240h-24v16h24c4.418 0 8-3.582 8-8 0-4.418-3.582-8-8-8z" fill="#e1322d"/></g><g><path d="m204 376h112c2.209 0 4 1.791 4 4 0 2.209-1.791 4-4 4h-112c-2.209 0-4-1.791-4-4 0-2.209 1.791-4 4-4z" fill="#f5826e"/></g><g><circle cx="264" cy="376" fill="#463c4b" r="8"/></g></g><g><g><circle cx="256" cy="224" fill="#f0915a" r="16"/></g><g><circle cx="224" cy="240" fill="#f0915a" r="16"/></g><g><circle cx="256" cy="256" fill="#f0915a" r="16"/></g><g><circle cx="288" cy="240" fill="#f0915a" r="16"/></g><g><circle cx="288" cy="208" fill="#f0915a" r="16"/></g><g><circle cx="224" cy="208" fill="#fab991" r="16"/></g><g><circle cx="256" cy="192" fill="#fab991" r="16"/></g><g><circle cx="248" cy="216" fill="#fab991" r="8"/></g><g><circle cx="224" cy="272" fill="#f0915a" r="16"/></g><g><circle cx="288" cy="272" fill="#f0915a" r="16"/></g><g><circle cx="256" cy="288" fill="#f0915a" r="16"/></g><g><circle cx="256" cy="320" fill="#f0915a" r="16"/></g><g><circle cx="320" cy="256" fill="#f0915a" r="16"/></g><g><circle cx="320" cy="288" fill="#fab991" r="16"/></g><g><circle cx="304" cy="272" fill="#f0915a" r="16"/></g><g><circle cx="304" cy="240" fill="#fab991" r="16"/></g><g><circle cx="272" cy="272" fill="#fab991" r="16"/></g><g><circle cx="272" cy="240" fill="#f0915a" r="16"/></g><g><circle cx="240" cy="272" fill="#fab991" r="16"/></g><g><circle cx="240" cy="240" fill="#fab991" r="16"/></g><g><circle cx="208" cy="272" fill="#f0915a" r="16"/></g><g><path d="m228 272h-4c-13.255 0-24 10.745-24 24v4c0 2.209 1.791 4 4 4h4c13.255 0 24-10.745 24-24v-4c0-2.209-1.791-4-4-4z" fill="#4b8c41"/></g><g><path d="m250.667 217.333v4c0 13.255 10.745 24 24 24h4c2.209 0 4-1.791 4-4v-4c0-13.255-10.745-24-24-24h-4c-2.209 0-4 1.791-4 4z" fill="#4b8c41"/></g><g><circle cx="208" cy="240" fill="#f0915a" r="16"/></g><g><circle cx="320" cy="224" fill="#f0915a" r="16"/></g><g><circle cx="192" cy="256" fill="#fab991" r="16"/></g><g><circle cx="192" cy="288" fill="#fab991" r="16"/></g><g><circle cx="224" cy="304" fill="#f0915a" r="16"/></g><g><circle cx="288" cy="304" fill="#fab991" r="16"/></g><g><circle cx="192" cy="224" fill="#f0915a" r="16"/></g><g><circle cx="205.333" cy="229.333" fill="#fab991" r="8"/></g><g><circle cx="277.333" cy="226.667" fill="#fab991" r="8"/></g><g><circle cx="242.667" cy="304" fill="#fab991" r="8"/></g></g><g><g><circle cx="256" cy="256" fill="#91c83c" r="48"/></g><path d="m298 252h-32.343l22.869-22.87c1.563-1.563 1.563-4.095 0-5.657-1.561-1.562-4.096-1.562-5.656 0l-22.87 22.87v-32.343c0-2.209-1.791-4-4-4s-4 1.791-4 4v32.343l-22.87-22.87c-1.563-1.562-4.095-1.562-5.657 0-1.562 1.563-1.562 4.095 0 5.657l22.87 22.87h-32.343c-2.209 0-4 1.791-4 4s1.791 4 4 4h32.343l-22.87 22.87c-1.562 1.563-1.562 4.095 0 5.657.781.781 1.805 1.171 2.829 1.171s2.047-.391 2.829-1.171l22.87-22.87v32.343c0 2.209 1.791 4 4 4s4-1.791 4-4v-32.343l22.87 22.87c.78.781 1.805 1.171 2.828 1.171s2.048-.391 2.828-1.171c1.563-1.563 1.563-4.095 0-5.657l-22.87-22.87h32.343c2.209 0 4-1.791 4-4s-1.791-4-4-4z" fill="#5faa46"/><g><g><path d="m256 216c22.056 0 40 17.944 40 40s-17.944 40-40 40-40-17.944-40-40 17.944-40 40-40m0-8c-26.51 0-48 21.49-48 48s21.49 48 48 48 48-21.49 48-48-21.49-48-48-48z" fill="#4b8c41"/></g></g></g><g><g><path d="m156 128h4c13.255 0 24 10.745 24 24v4c0 2.209-1.791 4-4 4h-4c-13.255 0-24-10.745-24-24v-4c0-2.209 1.791-4 4-4z" fill="#4b8c41"/></g><g><path d="m372 272h4c13.255 0 24 10.745 24 24v4c0 2.209-1.791 4-4 4h-4c-13.255 0-24-10.745-24-24v-4c0-2.209 1.791-4 4-4z" fill="#4b8c41"/></g><g><path d="m148 288h-4c-13.255 0-24 10.745-24 24v4c0 2.209 1.791 4 4 4h4c13.255 0 24-10.745 24-24v-4c0-2.209-1.791-4-4-4z" fill="#4b8c41"/></g><g><path d="m140 205.333h-4c-13.255 0-24 10.745-24 24v4c0 2.209 1.791 4 4 4h4c13.255 0 24-10.745 24-24v-4c0-2.209-1.791-4-4-4z" fill="#e1322d"/></g><g><path d="m328 340v4c0 13.255 10.745 24 24 24h4c2.209 0 4-1.791 4-4v-4c0-13.255-10.745-24-24-24h-4c-2.209 0-4 1.791-4 4z" fill="#e1322d"/></g><g><path d="m380 136h-4c-13.255 0-24 10.745-24 24v4c0 2.209 1.791 4 4 4h4c13.255 0 24-10.745 24-24v-4c0-2.209-1.791-4-4-4z" fill="#4b8c41"/></g></g></g></svg>