<svg id="Layer_1" enable-background="new 0 0 512 512" height="512" viewBox="0 0 512 512" width="512" xmlns="http://www.w3.org/2000/svg"><g><g><path d="m357.823 63.667 90.51 90.51 11.314-11.314c18.745-18.745 18.745-49.137 0-67.882l-22.627-22.627c-18.745-18.745-49.137-18.745-67.882 0zm83.884 61.256-54.63-54.63c-3.892-3.892-2.795-10.486 2.168-12.864 11.901-5.703 26.598-3.624 36.46 6.238l22.627 22.627c9.862 9.862 11.941 24.559 6.238 36.46-2.377 4.964-8.972 6.06-12.863 2.169z" fill="#463c4b"/></g><g><path d="m63.667 357.823 90.51 90.51-11.314 11.314c-18.745 18.745-49.137 18.745-67.882 0l-22.627-22.627c-18.745-18.745-18.745-49.137 0-67.882zm61.256 83.884-54.63-54.63c-3.892-3.892-10.486-2.795-12.864 2.168-5.703 11.901-3.624 26.598 6.238 36.46l22.627 22.627c9.862 9.862 24.559 11.941 36.46 6.238 4.964-2.377 6.06-8.972 2.169-12.863z" fill="#463c4b"/></g><g><circle cx="256" cy="256" fill="#555a6e" r="224"/></g><g><path d="m40 264c-4.418 0-8-3.582-8-8 0-59.833 23.3-116.084 65.608-158.392s98.559-65.608 158.392-65.608c4.418 0 8 3.582 8 8s-3.582 8-8 8c-114.691 0-208 93.309-208 208 0 4.418-3.582 8-8 8z" fill="#6e788c"/></g><g><circle cx="256" cy="256" fill="#463c4b" r="192"/></g><g><circle cx="298.667" cy="341.333" fill="#ffbe28" r="8"/></g><g><circle cx="365.333" cy="269.333" fill="#ffbe28" r="8"/></g><g><circle cx="373.333" cy="344" fill="#ffbe28" r="8"/></g><path d="m433.918 263.768c3.492-.859 6.082-4.011 6.082-7.768s-2.59-6.909-6.082-7.768c3.404-1.16 5.709-4.526 5.382-8.269s-3.183-6.657-6.736-7.208c3.29-1.453 5.293-5.006 4.641-8.706s-3.751-6.354-7.339-6.594c3.151-1.734 4.837-5.448 3.865-9.078s-4.29-6.003-7.886-5.929c2.988-2.002 4.344-5.849 3.059-9.38s-4.797-5.606-8.372-5.219c2.802-2.255 3.818-6.206 2.23-9.611s-5.267-5.167-8.795-4.47c2.594-2.49 3.262-6.515 1.383-9.769s-5.698-4.688-9.151-3.686c2.368-2.707 2.682-6.774.527-9.852s-6.085-4.174-9.438-2.875c2.123-2.903 2.081-6.982-.334-9.86s-6.425-3.627-9.652-2.041c1.862-3.077 1.465-7.137-1.192-9.794s-6.717-3.054-9.794-1.192c1.586-3.227.837-7.237-2.041-9.652s-6.958-2.457-9.86-.334c1.299-3.353.203-7.283-2.875-9.438s-7.145-1.841-9.852.527c1.002-3.454-.432-7.273-3.686-9.151-3.254-1.879-7.278-1.211-9.768 1.383.697-3.528-1.065-7.208-4.47-8.795-3.405-1.588-7.356-.572-9.611 2.23.387-3.575-1.689-7.087-5.219-8.372-3.531-1.285-7.378.071-9.38 3.059.074-3.595-2.3-6.913-5.929-7.886-3.629-.972-7.344.714-9.078 3.865-.24-3.588-2.894-6.687-6.594-7.339s-7.254 1.351-8.706 4.641c-.552-3.553-3.466-6.409-7.208-6.736-3.743-.328-7.108 1.978-8.269 5.382-.861-3.493-4.013-6.083-7.77-6.083s-6.909 2.59-7.768 6.082c-1.16-3.404-4.526-5.71-8.269-5.382-3.743.327-6.657 3.183-7.208 6.736-1.453-3.29-5.006-5.293-8.706-4.641s-6.354 3.75-6.594 7.339c-1.734-3.151-5.448-4.837-9.078-3.865-3.629.973-6.003 4.29-5.929 7.886-2.002-2.988-5.849-4.344-9.38-3.059s-5.606 4.797-5.219 8.372c-2.255-2.802-6.206-3.818-9.611-2.23s-5.167 5.268-4.47 8.795c-2.49-2.594-6.515-3.262-9.768-1.383-3.254 1.878-4.688 5.698-3.686 9.151-2.707-2.368-6.774-2.682-9.852-.527s-4.174 6.085-2.875 9.438c-2.903-2.123-6.982-2.081-9.86.334s-3.627 6.425-2.041 9.652c-3.077-1.862-7.137-1.465-9.794 1.192s-3.054 6.717-1.192 9.794c-3.227-1.586-7.237-.837-9.652 2.041s-2.457 6.958-.334 9.86c-3.353-1.299-7.283-.203-9.438 2.875s-1.841 7.145.527 9.852c-3.454-1.002-7.273.432-9.151 3.686-1.879 3.254-1.211 7.278 1.383 9.769-3.528-.697-7.208 1.064-8.795 4.47-1.588 3.405-.572 7.356 2.23 9.611-3.575-.387-7.087 1.688-8.372 5.219s.071 7.378 3.059 9.38c-3.595-.074-6.913 2.3-7.886 5.929s.714 7.344 3.865 9.078c-3.588.24-6.686 2.894-7.339 6.594-.652 3.7 1.351 7.253 4.641 8.706-3.554.552-6.409 3.466-6.736 7.208-.327 3.743 1.978 7.108 5.382 8.269-3.494.86-6.084 4.012-6.084 7.769s2.59 6.909 6.082 7.768c-3.404 1.16-5.709 4.526-5.382 8.269s3.182 6.657 6.736 7.208c-3.29 1.452-5.293 5.006-4.641 8.706s3.751 6.354 7.339 6.594c-3.151 1.734-4.837 5.448-3.864 9.077.972 3.629 4.29 6.003 7.886 5.929-2.987 2.002-4.344 5.849-3.059 9.38s4.797 5.606 8.372 5.219c-2.802 2.255-3.817 6.206-2.229 9.611s5.267 5.167 8.795 4.47c-2.595 2.49-3.262 6.515-1.383 9.769s5.698 4.688 9.151 3.686c-2.368 2.707-2.682 6.774-.527 9.852s6.085 4.174 9.438 2.875c-2.123 2.903-2.081 6.982.334 9.86s6.425 3.627 9.652 2.041c-1.862 3.077-1.465 7.137 1.192 9.794s6.717 3.054 9.794 1.192c-1.586 3.227-.837 7.238 2.041 9.653s6.958 2.457 9.86.334c-1.299 3.353-.203 7.283 2.875 9.438s7.145 1.841 9.852-.527c-1.002 3.454.432 7.273 3.686 9.151 3.254 1.879 7.278 1.211 9.768-1.383-.697 3.528 1.065 7.208 4.47 8.795 3.405 1.588 7.356.572 9.611-2.23-.387 3.575 1.689 7.087 5.219 8.372 3.531 1.285 7.378-.071 9.38-3.059-.074 3.595 2.3 6.913 5.929 7.886 3.629.972 7.344-.714 9.078-3.865.24 3.588 2.894 6.687 6.594 7.339s7.254-1.351 8.706-4.641c.552 3.554 3.466 6.409 7.208 6.736s7.108-1.978 8.269-5.382c.859 3.493 4.011 6.083 7.768 6.083s6.909-2.59 7.768-6.082c1.16 3.404 4.526 5.709 8.269 5.382s6.657-3.183 7.208-6.736c1.453 3.29 5.006 5.293 8.706 4.641s6.354-3.75 6.594-7.339c1.734 3.151 5.448 4.837 9.078 3.865 3.629-.973 6.003-4.29 5.929-7.886 2.002 2.988 5.849 4.344 9.38 3.059s5.606-4.797 5.219-8.372c2.255 2.802 6.206 3.818 9.611 2.23s5.167-5.268 4.47-8.795c2.49 2.594 6.515 3.262 9.768 1.383 3.254-1.878 4.688-5.698 3.686-9.151 2.707 2.368 6.774 2.682 9.852.527s4.174-6.084 2.875-9.438c2.903 2.123 6.982 2.081 9.86-.334s3.627-6.425 2.041-9.653c3.077 1.862 7.137 1.465 9.794-1.192s3.054-6.717 1.192-9.794c3.227 1.586 7.237.837 9.652-2.041s2.457-6.958.334-9.86c3.353 1.299 7.283.203 9.438-2.875s1.841-7.145-.527-9.852c3.454 1.002 7.273-.432 9.151-3.686 1.879-3.254 1.211-7.278-1.383-9.769 3.528.697 7.208-1.064 8.795-4.47 1.588-3.405.572-7.356-2.229-9.611 3.575.387 7.087-1.688 8.372-5.219s-.071-7.378-3.059-9.38c3.595.074 6.913-2.3 7.886-5.929.972-3.629-.714-7.344-3.864-9.077 3.588-.24 6.686-2.894 7.339-6.594.652-3.7-1.351-7.254-4.641-8.706 3.554-.552 6.409-3.466 6.736-7.208.327-3.744-1.978-7.11-5.382-8.27z" fill="#faa019"/><g><path d="m225.281 82.677c-72.58 12.776-129.828 70.024-142.604 142.604 11.609 54.133 59.722 94.719 117.323 94.719 66.274 0 120-53.726 120-120 0-57.601-40.586-105.714-94.719-117.323z" fill="#ffbe28"/></g><g><circle cx="264" cy="184" fill="#faa019" r="8"/></g><g><circle cx="189.333" cy="178.667" fill="#faa019" r="8"/></g><g><circle cx="160" cy="242.667" fill="#faa019" r="8"/></g><g><circle cx="117.333" cy="288" fill="#faa019" r="8"/></g><g><circle cx="258.667" cy="304" fill="#faa019" r="8"/></g><g><circle cx="245.333" cy="210.667" fill="#faa019" r="8"/></g><g><circle cx="346.667" cy="357.333" fill="#f04b37" r="8"/></g><g><circle cx="138.667" cy="162.667" fill="#f04b37" r="8"/></g><g><circle cx="290.667" cy="280" fill="#f04b37" r="8"/></g><g><circle cx="402.667" cy="197.333" fill="#f04b37" r="8"/></g><g><circle cx="216" cy="234.667" fill="#5faa46" r="8"/></g><g><circle cx="125.333" cy="200" fill="#5faa46" r="8"/></g><g><circle cx="216" cy="312" fill="#5faa46" r="8"/></g><g><circle cx="389.333" cy="312" fill="#5faa46" r="8"/></g><g><circle cx="250.667" cy="418.667" fill="#5faa46" r="8"/></g><g><circle cx="264" cy="93.333" fill="#5faa46" r="8"/></g><g><circle cx="109.333" cy="312" fill="#f04b37" r="8"/></g><g><circle cx="320" cy="210.667" fill="#faa019" r="8"/></g><g><circle cx="290.667" cy="125.333" fill="#faa019" r="8"/></g><g><circle cx="312" cy="165.333" fill="#faa019" r="8"/></g><g><g><path d="m196 140c-1.024 0-2.047-.391-2.829-1.171-1.562-1.563-1.562-4.095 0-5.657l.678-.678c5.478-5.477 12.76-8.494 20.506-8.494h17.645c2.209 0 4 1.791 4 4s-1.791 4-4 4h-17.645c-5.609 0-10.883 2.185-14.849 6.151l-.678.678c-.781.78-1.804 1.171-2.828 1.171z" fill="#e1322d"/></g><g><path d="m208 152c-1.024 0-2.047-.391-2.829-1.171-1.562-1.563-1.562-4.095 0-5.657l.678-.678c5.478-5.477 12.76-8.494 20.506-8.494h17.645c2.209 0 4 1.791 4 4s-1.791 4-4 4h-17.645c-5.609 0-10.883 2.185-14.849 6.151l-.678.678c-.781.78-1.804 1.171-2.828 1.171z" fill="#e1322d"/></g><g><path d="m312 112c39.766 0 72 32.234 72 72s-32.234 72-72 72v-16c17.673 0 32-14.327 32-32s-14.327-32-32-32z" fill="#e1322d"/></g><g><path d="m312 112h-116c-2.209 0-4 1.791-4 4s1.791 4 4 4h4.791c8.452 0 16.023 5.303 18.832 13.275 8.769 24.888 32.489 42.725 60.377 42.725h32c17.673 0 32-14.327 32-32s-14.327-32-32-32z" fill="#f04b37"/></g><g><path d="m288 224h8c8.837 0 16 7.163 16 16h-24c-4.418 0-8-3.582-8-8 0-4.418 3.582-8 8-8z" fill="#e1322d"/></g><g><path d="m288 256h24v-16h-24c-4.418 0-8 3.582-8 8 0 4.418 3.582 8 8 8z" fill="#e1322d"/></g><g><path d="m308 120h-112c-2.209 0-4-1.791-4-4 0-2.209 1.791-4 4-4h112c2.209 0 4 1.791 4 4 0 2.209-1.791 4-4 4z" fill="#f5826e"/></g><g><circle cx="248" cy="120" fill="#463c4b" r="8"/></g></g><g><g><path d="m297.645 388h-17.645c-2.209 0-4-1.791-4-4s1.791-4 4-4h17.645c5.609 0 10.883-2.185 14.849-6.151l.678-.678c1.563-1.562 4.095-1.562 5.657 0 1.562 1.563 1.562 4.095 0 5.657l-.678.678c-5.478 5.477-12.76 8.494-20.506 8.494z" fill="#e1322d"/></g><g><path d="m285.645 376h-17.645c-2.209 0-4-1.791-4-4s1.791-4 4-4h17.645c5.609 0 10.883-2.185 14.849-6.151l.678-.678c1.563-1.562 4.095-1.562 5.657 0 1.562 1.563 1.562 4.095 0 5.657l-.678.678c-5.478 5.477-12.76 8.494-20.506 8.494z" fill="#e1322d"/></g><g><path d="m200 400c-39.766 0-72-32.234-72-72s32.234-72 72-72v16c-17.673 0-32 14.327-32 32s14.327 32 32 32z" fill="#e1322d"/></g><g><path d="m200 400h116c2.209 0 4-1.791 4-4s-1.791-4-4-4h-4.791c-8.452 0-16.023-5.303-18.832-13.275-8.769-24.888-32.489-42.725-60.377-42.725h-32c-17.673 0-32 14.327-32 32s14.327 32 32 32z" fill="#f04b37"/></g><g><path d="m224 288h-8c-8.837 0-16-7.163-16-16h24c4.418 0 8 3.582 8 8 0 4.418-3.582 8-8 8z" fill="#e1322d"/></g><g><path d="m224 256h-24v16h24c4.418 0 8-3.582 8-8 0-4.418-3.582-8-8-8z" fill="#e1322d"/></g><g><path d="m204 392h112c2.209 0 4 1.791 4 4 0 2.209-1.791 4-4 4h-112c-2.209 0-4-1.791-4-4 0-2.209 1.791-4 4-4z" fill="#f5826e"/></g><g><circle cx="264" cy="392" fill="#463c4b" r="8"/></g></g><g><g><path d="m336 280c-17.673 0-32 14.327-32 32 0 4.418 3.582 8 8 8h48c4.418 0 8-3.582 8-8 0-17.673-14.327-32-32-32z" fill="#463c4b"/></g><g><path d="m336 280c-17.673 0-32 14.327-32 32h16c8.837 0 16-7.163 16-16z" fill="#555a6e"/></g></g><g><g><path d="m424 256c0-17.673-14.327-32-32-32-4.418 0-8 3.582-8 8v48c0 4.418 3.582 8 8 8 17.673 0 32-14.327 32-32z" fill="#463c4b"/></g><g><path d="m424 256c0-17.673-14.327-32-32-32v16c0 8.837 7.163 16 16 16z" fill="#555a6e"/></g></g><g><g><path d="m88 256c0-17.673 14.327-32 32-32 4.418 0 8 3.582 8 8v48c0 4.418-3.582 8-8 8-17.673 0-32-14.327-32-32z" fill="#463c4b"/></g><g><path d="m88 256c0-17.673 14.327-32 32-32v16c0 8.837-7.163 16-16 16z" fill="#555a6e"/></g></g><g><g><path d="m176 224c-17.673 0-32-14.327-32-32 0-4.418 3.582-8 8-8h48c4.418 0 8 3.582 8 8 0 17.673-14.327 32-32 32z" fill="#463c4b"/></g><g><path d="m176 224c-17.673 0-32-14.327-32-32h16c8.837 0 16 7.163 16 16z" fill="#555a6e"/></g></g></g></svg>