<svg id="Layer_1" enable-background="new 0 0 512 512" height="512" viewBox="0 0 512 512" width="512" xmlns="http://www.w3.org/2000/svg"><g><g><g><path d="m208 48h-64c-4.418 0-8-3.582-8-8v-16c0-4.418 3.582-8 8-8h64c4.418 0 8 3.582 8 8v16c0 4.418-3.582 8-8 8z" fill="#ffbe28"/></g><g><path d="m176 48h32c4.418 0 8-3.582 8-8v-16h-32c-4.418 0-8 3.582-8 8z" fill="#faa019"/></g><g><g><path d="m272 121.888c0-6.06-3.424-11.6-8.845-14.311l-55.155-27.577v-32h-64v32l-55.155 27.578c-5.421 2.71-8.845 8.25-8.845 14.311v6.111h192z" fill="#23aae6"/></g><g><path d="m272 224v-96h-192v96c0 8.837 7.163 16 16 16v32c-8.837 0-16 7.163-16 16v192c0 8.837 7.163 16 16 16h160c8.837 0 16-7.163 16-16v-192c0-8.837-7.163-16-16-16v-32c8.837 0 16-7.163 16-16z" fill="#faa019"/></g><g><path d="m80 288v192h80c8.837 0 16-7.163 16-16v-336h-96v96c0 8.837 7.163 16 16 16v32c-8.837 0-16 7.163-16 16z" fill="#ffbe28"/></g></g><g><path d="m144 56v24l-55.155 27.578c-5.421 2.71-8.845 8.25-8.845 14.311v6.111h96v-64c0-4.418-3.582-8-8-8z" fill="#5ad7ff"/></g><g><path d="m96 240h160v32h-160z" fill="#faa019"/></g><g><path d="m96 128h16v112h-16z" fill="#fff050"/></g><g><path d="m112 128h-16v-8c0-4.418 3.582-8 8-8 4.418 0 8 3.582 8 8z" fill="#a5ffff"/></g><g><path d="m96 272h16v208h-16z" fill="#fff050"/></g></g><g><circle cx="320" cy="304" fill="#d7e6f0" r="144"/></g><g><path d="m352 336c0-17.673-14.327-32-32-32-17.673 0-32 14.327-32 32v108.431c10.292 2.335 21.002 3.569 32 3.569s21.708-1.234 32-3.569z" fill="#a55023"/><path d="m288 336v108.431c10.292 2.335 21.002 3.569 32 3.569v-112z" fill="#d26e28"/><path d="m322.829 354.828c1.562-1.562 1.562-4.095 0-5.657-1.563-1.562-4.095-1.562-5.657 0l-5.172 5.172-10.343-10.343 21.172-21.172c1.562-1.562 1.562-4.095 0-5.657-1.563-1.562-4.095-1.562-5.657 0l-21.172 21.172-5.171-5.172c-1.563-1.562-4.095-1.562-5.657 0s-1.562 4.095 0 5.657l21.171 21.172-10.343 10.343-5.171-5.172c-1.563-1.562-4.095-1.562-5.657 0s-1.562 4.095 0 5.657l21.171 21.172-10.343 10.343-5.171-5.172c-1.563-1.562-4.095-1.562-5.657 0s-1.562 4.095 0 5.657l21.171 21.172-10.343 10.343-5.171-5.172c-1.563-1.562-4.095-1.562-5.657 0s-1.562 4.095 0 5.657l11.25 11.25c4.221.695 8.504 1.207 12.84 1.526l-7.605-7.604 21.172-21.172c1.562-1.562 1.562-4.095 0-5.657-1.563-1.562-4.095-1.562-5.657 0l-5.172 5.172-10.343-10.343 21.172-21.172c1.562-1.562 1.562-4.095 0-5.657-1.563-1.562-4.095-1.562-5.657 0l-5.172 5.172-10.343-10.343z" fill="#a55023"/><g><g><path d="m353.941 202.177-45.255 45.255c-12.497 12.497-12.497 32.758 0 45.255l11.314 11.313 79.196-79.196c6.248-6.248 6.248-16.379 0-22.627-12.497-12.497-32.758-12.497-45.255 0z" fill="#69a041"/></g><g><path d="m286.059 202.177 45.255 45.255c12.497 12.497 12.497 32.758 0 45.255l-11.314 11.313-79.196-79.196c-6.248-6.248-6.248-16.379 0-22.627 12.497-12.497 32.758-12.497 45.255 0z" fill="#4b8c41"/></g><g><path d="m416 256h-64c-17.673 0-32 14.327-32 32v16h112c8.837 0 16-7.163 16-16 0-17.673-14.327-32-32-32z" fill="#69a041"/></g><g><path d="m421.823 337.941-45.255-45.255c-12.497-12.497-32.758-12.497-45.255 0l-11.313 11.314 79.196 79.196c6.248 6.248 16.379 6.248 22.627 0 12.497-12.497 12.497-32.758 0-45.255z" fill="#91b945"/></g><g><path d="m224 256h64c17.673 0 32 14.327 32 32v16h-112c-8.837 0-16-7.163-16-16 0-17.673 14.327-32 32-32z" fill="#69a041"/></g><g><path d="m218.177 337.941 45.255-45.255c12.497-12.497 32.758-12.497 45.255 0l11.313 11.314-79.196 79.196c-6.248 6.248-16.379 6.248-22.627 0-12.497-12.497-12.497-32.758 0-45.255z" fill="#91b945"/></g></g></g></g></svg>