<svg id="Layer_1" enable-background="new 0 0 512 512" height="512" viewBox="0 0 512 512" width="512" xmlns="http://www.w3.org/2000/svg"><g><g><path d="m312 16h-8c-26.51 0-48 21.49-48 48v16h16c26.51 0 48-21.49 48-48v-8c0-4.418-3.582-8-8-8z" fill="#5faa46"/></g><g><path d="m200 16h8c26.51 0 48 21.49 48 48v16h-16c-26.51 0-48-21.49-48-48v-8c0-4.418 3.582-8 8-8z" fill="#5faa46"/></g><g><path d="m432 112h-352c-8.837 0-16-7.163-16-16 0-8.837 7.163-16 16-16h352c8.837 0 16 7.163 16 16 0 8.837-7.163 16-16 16z" fill="#9bd2f0"/></g><g><path d="m256 112h-176c-8.837 0-16-7.163-16-16 0-8.837 7.163-16 16-16h176c8.837 0 16 7.163 16 16 0 8.837-7.163 16-16 16z" fill="#d7e6f0"/></g><g><path d="m370.556 496h-229.112c-16.643 0-30.507-12.757-31.889-29.343l-29.555-354.657h352l-29.555 354.657c-1.382 16.586-15.246 29.343-31.889 29.343z" fill="#9bd2f0"/></g><g><path d="m417.333 288 5.334-64h-333.334l5.334 64z" fill="#f0915a"/></g><g><path d="m109.333 464h146.667v-288c0-17.673-14.327-32-32-32h-141.333z" fill="#d7e6f0"/></g><g><path d="m160 464h-24l-24-320h24z" fill="#fff"/></g><g><path d="m94.667 288h161.333v-64h-166.667z" fill="#fab991"/></g><g><path d="m122.8 288h24l-4.8-64h-24z" fill="#fadcbe"/></g><g><g><path d="m208 80h-128c0-17.673 14.327-32 32-32h64c17.673 0 32 14.327 32 32z" fill="#e1322d"/></g><g><path d="m128 48h-16c-17.673 0-32 14.327-32 32h80c0-17.673-14.327-32-32-32z" fill="#f04b37"/></g><g><circle cx="108" cy="68" fill="#e1322d" r="4"/></g><g><circle cx="132" cy="68" fill="#e1322d" r="4"/></g><g><circle cx="156" cy="68" fill="#e1322d" r="4"/></g><g><circle cx="180" cy="68" fill="#c81e14" r="4"/></g></g><g><g><path d="m432 80h-128c0-17.673 14.327-32 32-32h64c17.673 0 32 14.327 32 32z" fill="#e1322d"/></g><g><path d="m352 48h-16c-17.673 0-32 14.327-32 32h80c0-17.673-14.327-32-32-32z" fill="#f04b37"/></g><g><circle cx="332" cy="68" fill="#e1322d" r="4"/></g><g><circle cx="356" cy="68" fill="#e1322d" r="4"/></g><g><circle cx="380" cy="68" fill="#e1322d" r="4"/></g><g><circle cx="404" cy="68" fill="#c81e14" r="4"/></g></g><g><g><path d="m320 80h-128c0-17.673 14.327-32 32-32h64c17.673 0 32 14.327 32 32z" fill="#e1322d"/></g><g><path d="m240 48h-16c-17.673 0-32 14.327-32 32h80c0-17.673-14.327-32-32-32z" fill="#f04b37"/></g><g><circle cx="220" cy="68" fill="#e1322d" r="4"/></g><g><circle cx="244" cy="68" fill="#e1322d" r="4"/></g><g><circle cx="268" cy="68" fill="#e1322d" r="4"/></g><g><circle cx="292" cy="68" fill="#c81e14" r="4"/></g></g><g><g><path d="m414.664 320.031c-10.764.295-20.643 4.123-28.511 10.381-5.892 4.688-14.321 4.789-20.2.085-8.209-6.568-18.621-10.497-29.953-10.497s-21.744 3.929-29.953 10.497c-5.91 4.729-14.184 4.729-20.094 0-8.209-6.568-18.621-10.497-29.953-10.497s-21.744 3.929-29.953 10.497c-5.91 4.729-14.184 4.729-20.094 0-8.209-6.568-18.621-10.497-29.953-10.497s-21.744 3.929-29.953 10.497c-5.879 4.704-14.308 4.603-20.2-.085-7.868-6.258-17.747-10.086-28.511-10.381l7.922 95.065c7.72-1.51 14.781-4.862 20.695-9.593 5.91-4.729 14.184-4.729 20.094 0 8.209 6.568 18.621 10.497 29.953 10.497s21.744-3.929 29.953-10.497c5.91-4.729 14.184-4.729 20.094 0 8.209 6.568 18.621 10.497 29.953 10.497s21.744-3.929 29.953-10.497c5.91-4.729 14.184-4.729 20.094 0 8.209 6.568 18.621 10.497 29.953 10.497s21.744-3.929 29.953-10.497c5.91-4.729 14.184-4.729 20.094 0 5.914 4.731 12.975 8.083 20.695 9.593z" fill="#643773"/></g><g><path d="m91.985 255.819c1.325.11 2.661.181 4.015.181 11.332 0 21.744-3.929 29.953-10.497 5.91-4.729 14.184-4.729 20.094 0 8.209 6.568 18.621 10.497 29.953 10.497s21.744-3.929 29.953-10.497c5.91-4.729 14.184-4.729 20.094 0 8.209 6.568 18.621 10.497 29.953 10.497s21.744-3.929 29.953-10.497c5.91-4.729 14.184-4.729 20.094 0 8.209 6.568 18.621 10.497 29.953 10.497s21.744-3.929 29.953-10.497c5.91-4.729 14.184-4.729 20.094 0 8.209 6.568 18.621 10.497 29.953 10.497 1.354 0 2.69-.071 4.015-.181l7.86-94.318c-3.092-.794-6.297-1.295-9.589-1.448-12.166-.565-23.389 3.404-32.133 10.359-5.892 4.688-14.321 4.789-20.2.085-8.209-6.568-18.621-10.497-29.953-10.497s-21.744 3.929-29.953 10.497c-5.91 4.729-14.184 4.729-20.094 0-8.209-6.568-18.621-10.497-29.953-10.497s-21.744 3.929-29.953 10.497c-5.91 4.729-14.184 4.729-20.094 0-8.209-6.568-18.621-10.497-29.953-10.497s-21.744 3.929-29.953 10.497c-5.879 4.704-14.308 4.603-20.2-.085-8.743-6.955-19.967-10.924-32.133-10.359-3.292.153-6.498.653-9.589 1.448z" fill="#e1322d"/></g></g><g><g><path d="m146.047 245.503c8.209 6.568 18.621 10.497 29.953 10.497s21.744-3.929 29.953-10.497c5.91-4.729 14.184-4.729 20.094 0 8.209 6.568 18.621 10.497 29.953 10.497v-80c0-5.756-1.528-11.152-4.188-15.819-9.703.839-18.578 4.566-25.765 10.316-5.91 4.729-14.184 4.729-20.094 0-8.209-6.568-18.621-10.497-29.953-10.497s-21.744 3.929-29.953 10.497c-5.879 4.704-14.308 4.603-20.2-.085-8.743-6.955-19.967-10.924-32.133-10.359-3.292.153-6.498.653-9.589 1.448l7.86 94.318c1.325.11 2.661.181 4.015.181 11.332 0 21.744-3.929 29.953-10.497 5.91-4.729 14.184-4.729 20.094 0z" fill="#f04b37"/></g><g><path d="m143.487 243.831-5.251-70.012c-4.307.582-8.814-.563-12.389-3.407-3.722-2.961-7.898-5.375-12.401-7.134l6.475 86.332c2.116-1.22 4.135-2.59 6.032-4.107 5.098-4.079 11.953-4.631 17.534-1.672z" fill="#f5826e"/></g><g><path d="m226.047 330.497c-5.91 4.729-14.184 4.729-20.094 0-8.209-6.568-18.621-10.497-29.953-10.497s-21.744 3.929-29.953 10.497c-5.879 4.704-14.308 4.603-20.2-.085-7.868-6.258-17.747-10.086-28.511-10.381l7.922 95.065c7.72-1.51 14.781-4.862 20.695-9.593 5.91-4.729 14.184-4.729 20.094 0 8.209 6.568 18.621 10.497 29.953 10.497s21.744-3.929 29.953-10.497c5.91-4.729 14.184-4.729 20.094 0 8.209 6.568 18.621 10.497 29.953 10.497v-96c-11.332 0-21.744 3.929-29.953 10.497z" fill="#804b8f"/></g><g><path d="m149.785 327.8c-1.289.842-2.54 1.738-3.738 2.697-5.833 4.667-14.173 4.598-20.058.018l5.41 72.134c4.935-1.487 10.401-.544 14.648 2.854 3.059 2.448 6.425 4.527 10.029 6.175z" fill="#9b5faa"/></g></g><g><circle cx="164" cy="348" fill="#9b5faa" r="12"/></g><g><circle cx="236" cy="348" fill="#9b5faa" r="12"/></g><g><g><circle cx="164" cy="188" fill="#f5826e" r="12"/></g><g><circle cx="236" cy="188" fill="#f5826e" r="12"/></g></g></g></svg>