<svg id="Layer_1" enable-background="new 0 0 512 512" height="512" viewBox="0 0 512 512" width="512" xmlns="http://www.w3.org/2000/svg"><g><g><circle cx="256" cy="256" fill="#d7e6f0" r="240"/></g><g><g><circle cx="256" cy="256" fill="#a5c3dc" r="192"/></g></g><g><circle cx="256" cy="256" fill="#faa019" r="32"/></g><g><g><g><circle cx="200" cy="159.005" fill="#ffd23c" r="80"/></g><g><circle cx="200" cy="159.005" fill="#faa019" r="64"/></g><g><circle cx="200" cy="159.005" fill="#ffd23c" r="48"/></g><g><circle cx="200" cy="159.005" fill="#f57828" r="32"/></g></g><g><g><circle cx="312" cy="159.005" fill="#ffd23c" r="80"/></g><g><circle cx="312" cy="159.005" fill="#faa019" r="64"/></g><g><circle cx="312" cy="159.005" fill="#ffd23c" r="48"/></g><g><circle cx="312" cy="159.005" fill="#f57828" r="32"/></g></g><g><g><circle cx="256" cy="144" fill="#ffd23c" r="80"/></g><g><circle cx="256" cy="144" fill="#faa019" r="64"/></g><g><circle cx="256" cy="144" fill="#ffd23c" r="48"/></g></g><g><g><circle cx="144" cy="256" fill="#ffd23c" r="80"/></g><g><circle cx="144" cy="256" fill="#faa019" r="64"/></g><g><circle cx="144" cy="256" fill="#ffd23c" r="48"/></g><g><circle cx="144" cy="256" fill="#f57828" r="32"/></g></g><g><g><circle cx="159.005" cy="200" fill="#ffd23c" r="80"/></g><g><circle cx="159.005" cy="200" fill="#faa019" r="64"/></g><g><circle cx="159.005" cy="200" fill="#ffd23c" r="48"/></g></g><g><g><circle cx="200" cy="352.995" fill="#ffd23c" r="80"/></g><g><circle cx="200" cy="352.995" fill="#faa019" r="64"/></g><g><circle cx="200" cy="352.995" fill="#ffd23c" r="48"/></g><g><circle cx="200" cy="352.995" fill="#f57828" r="32"/></g></g><g><g><circle cx="159.005" cy="312" fill="#ffd23c" r="80"/></g><g><circle cx="159.005" cy="312" fill="#faa019" r="64"/></g><g><circle cx="159.005" cy="312" fill="#ffd23c" r="48"/></g></g><g><g><circle cx="312" cy="352.995" fill="#ffd23c" r="80"/></g><g><circle cx="312" cy="352.995" fill="#faa019" r="64"/></g><g><circle cx="312" cy="352.995" fill="#ffd23c" r="48"/></g><g><circle cx="312" cy="352.995" fill="#f57828" r="32"/></g></g><g><g><circle cx="256" cy="368" fill="#ffd23c" r="80"/></g><g><circle cx="256" cy="368" fill="#faa019" r="64"/></g><g><circle cx="256" cy="368" fill="#ffd23c" r="48"/></g></g><g><g><circle cx="368" cy="256" fill="#ffd23c" r="80"/></g><g><circle cx="368" cy="256" fill="#faa019" r="64"/></g><g><circle cx="368" cy="256" fill="#ffd23c" r="48"/></g><g><circle cx="368" cy="256" fill="#f57828" r="32"/></g></g><g><g><circle cx="352.995" cy="312" fill="#ffd23c" r="80"/></g><g><circle cx="352.995" cy="312" fill="#faa019" r="64"/></g><g><circle cx="352.995" cy="312" fill="#ffd23c" r="48"/></g></g><g><g><circle cx="352.995" cy="200" fill="#ffd23c" r="80"/></g><g><circle cx="352.995" cy="200" fill="#faa019" r="64"/></g><g><circle cx="352.995" cy="200" fill="#ffd23c" r="48"/></g></g></g><g><circle cx="159.005" cy="312" fill="#faa019" r="32"/></g><g><circle cx="256" cy="368" fill="#faa019" r="32"/></g><g><circle cx="352.995" cy="312" fill="#faa019" r="32"/></g><g><circle cx="352.995" cy="200" fill="#faa019" r="32"/></g><g><circle cx="256" cy="144" fill="#faa019" r="32"/></g><g><g><circle cx="256" cy="208" fill="#ffd23c" r="80"/></g><g><circle cx="256" cy="208" fill="#faa019" r="64"/></g><g><circle cx="256" cy="208" fill="#ffd23c" r="48"/></g><g><circle cx="256" cy="208" fill="#faa019" r="32"/></g></g><g><g><circle cx="256" cy="304" fill="#ffd23c" r="80"/></g><g><circle cx="256" cy="304" fill="#faa019" r="64"/></g><g><circle cx="256" cy="304" fill="#ffd23c" r="48"/></g><g><circle cx="256" cy="304" fill="#faa019" r="32"/></g></g><g><circle cx="159.005" cy="200" fill="#faa019" r="32"/></g><g><g><circle cx="208" cy="256" fill="#ffd23c" r="80"/></g><g><circle cx="208" cy="256" fill="#faa019" r="64"/></g><g><circle cx="208" cy="256" fill="#ffd23c" r="48"/></g><g><circle cx="208" cy="256" fill="#faa019" r="32"/></g><g><circle cx="208" cy="256" fill="#ffd23c" r="16"/></g></g><g><g><circle cx="304" cy="256" fill="#ffd23c" r="80"/></g><g><circle cx="304" cy="256" fill="#faa019" r="64"/></g><g><circle cx="304" cy="256" fill="#ffd23c" r="48"/></g><g><circle cx="304" cy="256" fill="#faa019" r="32"/></g><g><circle cx="304" cy="256" fill="#ffd23c" r="16"/></g></g><g><g><circle cx="305.333" cy="338.829" fill="#5faa46" r="4"/></g><g><circle cx="318.667" cy="310.669" fill="#5faa46" r="4"/></g><g><circle cx="248.255" cy="322.828" fill="#5faa46" r="4"/></g><g><circle cx="273.332" cy="294.668" fill="#5faa46" r="4"/></g><g><circle cx="265.189" cy="363.099" fill="#5faa46" r="4"/></g><g><circle cx="233.334" cy="347.844" fill="#5faa46" r="4"/></g></g><g><g><circle cx="198.396" cy="334.667" fill="#5faa46" r="4"/></g><g><circle cx="170.236" cy="321.333" fill="#5faa46" r="4"/></g><g><circle cx="182.395" cy="391.745" fill="#5faa46" r="4"/></g><g><circle cx="154.235" cy="366.668" fill="#5faa46" r="4"/></g><g><circle cx="222.666" cy="374.811" fill="#5faa46" r="4"/></g><g><circle cx="207.411" cy="406.666" fill="#5faa46" r="4"/></g></g><g><g><circle cx="280" cy="146.667" fill="#f04b37" r="16"/></g><g><circle cx="381.333" cy="208" fill="#f04b37" r="16"/></g><g><circle cx="176" cy="218.667" fill="#f04b37" r="16"/></g><g><circle cx="136" cy="306.667" fill="#f04b37" r="16"/></g><g><circle cx="250.667" cy="368" fill="#f04b37" r="16"/></g><g><circle cx="373.333" cy="344" fill="#f04b37" r="16"/></g><g><circle cx="136" cy="178.667" fill="#f04b37" r="16"/></g><g><circle cx="306.667" cy="216" fill="#f04b37" r="16"/></g></g><g><g><circle cx="324" cy="285.494" fill="#5faa46" r="4"/></g><g><circle cx="337.333" cy="257.333" fill="#5faa46" r="4"/></g><g><circle cx="266.922" cy="269.493" fill="#5faa46" r="4"/></g><g><circle cx="291.999" cy="241.332" fill="#5faa46" r="4"/></g><g><circle cx="283.856" cy="309.763" fill="#5faa46" r="4"/></g><g><circle cx="252.001" cy="294.509" fill="#5faa46" r="4"/></g></g><g><g><circle cx="238.667" cy="206.396" fill="#5faa46" r="4"/></g><g><circle cx="252" cy="178.236" fill="#5faa46" r="4"/></g><g><circle cx="181.589" cy="190.395" fill="#5faa46" r="4"/></g><g><circle cx="206.666" cy="162.235" fill="#5faa46" r="4"/></g><g><circle cx="198.523" cy="230.666" fill="#5faa46" r="4"/></g><g><circle cx="166.668" cy="215.411" fill="#5faa46" r="4"/></g></g><g><g><circle cx="206.667" cy="325.496" fill="#5faa46" r="4"/></g><g><circle cx="220" cy="297.335" fill="#5faa46" r="4"/></g><g><circle cx="149.589" cy="309.495" fill="#5faa46" r="4"/></g><g><circle cx="174.666" cy="281.334" fill="#5faa46" r="4"/></g><g><circle cx="166.523" cy="349.765" fill="#5faa46" r="4"/></g><g><circle cx="134.668" cy="334.511" fill="#5faa46" r="4"/></g></g><g><g><circle cx="414.667" cy="277.496" fill="#5faa46" r="4"/></g><g><circle cx="428" cy="249.335" fill="#5faa46" r="4"/></g><g><circle cx="357.589" cy="261.495" fill="#5faa46" r="4"/></g><g><circle cx="382.666" cy="233.334" fill="#5faa46" r="4"/></g><g><circle cx="374.523" cy="301.765" fill="#5faa46" r="4"/></g><g><circle cx="342.668" cy="286.511" fill="#5faa46" r="4"/></g></g><g><g><circle cx="325.946" cy="116.45" fill="#5faa46" r="4"/></g><g><circle cx="297.785" cy="103.117" fill="#5faa46" r="4"/></g><g><circle cx="309.945" cy="173.528" fill="#5faa46" r="4"/></g><g><circle cx="281.784" cy="148.451" fill="#5faa46" r="4"/></g><g><circle cx="350.216" cy="156.594" fill="#5faa46" r="4"/></g><g><circle cx="334.961" cy="188.449" fill="#5faa46" r="4"/></g></g><g><g><circle cx="200.163" cy="124" fill="#5faa46" r="4"/></g><g><circle cx="172.002" cy="110.667" fill="#5faa46" r="4"/></g><g><circle cx="184.162" cy="181.078" fill="#5faa46" r="4"/></g><g><circle cx="156.001" cy="156.001" fill="#5faa46" r="4"/></g><g><circle cx="224.432" cy="164.144" fill="#5faa46" r="4"/></g><g><circle cx="209.177" cy="195.999" fill="#5faa46" r="4"/></g></g><g><g><circle cx="332.134" cy="180.006" fill="#d7e6f0" r="4"/></g><g><circle cx="297.961" cy="201.59" fill="#d7e6f0" r="4"/></g><g><circle cx="264.495" cy="152.321" fill="#d7e6f0" r="4"/></g><g><circle cx="211.596" cy="195.29" fill="#d7e6f0" r="4"/></g><g><circle cx="186.084" cy="180.481" fill="#d7e6f0" r="4"/></g><g><circle cx="243.207" cy="156.712" fill="#d7e6f0" r="4"/></g><g><circle cx="188.598" cy="288.893" fill="#d7e6f0" r="4"/></g><g><circle cx="153.334" cy="275.279" fill="#d7e6f0" r="4"/></g><g><circle cx="179.715" cy="221.138" fill="#d7e6f0" r="4"/></g><g><circle cx="316.549" cy="301.304" fill="#d7e6f0" r="4"/></g><g><circle cx="266.125" cy="273.893" fill="#d7e6f0" r="4"/></g><g><circle cx="274.378" cy="233.482" fill="#d7e6f0" r="4"/></g><g><circle cx="364.54" cy="282.111" fill="#d7e6f0" r="4"/></g><g><circle cx="312.791" cy="246.598" fill="#d7e6f0" r="4"/></g><g><circle cx="356.893" cy="226.624" fill="#d7e6f0" r="4"/></g><g><circle cx="204.415" cy="353.332" fill="#d7e6f0" r="4"/></g><g><circle cx="180.188" cy="338.077" fill="#d7e6f0" r="4"/></g><g><circle cx="226.451" cy="280.869" fill="#d7e6f0" r="4"/></g><g><circle cx="282.782" cy="350.555" fill="#d7e6f0" r="4"/></g><g><circle cx="289.557" cy="325.23" fill="#d7e6f0" r="4"/></g><g><circle cx="330.461" cy="330.577" fill="#d7e6f0" r="4"/></g></g><g><g><circle cx="307.593" cy="154.352" fill="#d7e6f0" r="4"/></g><g><circle cx="273.421" cy="175.936" fill="#d7e6f0" r="4"/></g><g><circle cx="239.954" cy="126.667" fill="#d7e6f0" r="4"/></g><g><circle cx="187.056" cy="169.636" fill="#d7e6f0" r="4"/></g><g><circle cx="161.543" cy="154.826" fill="#d7e6f0" r="4"/></g><g><circle cx="218.666" cy="131.058" fill="#d7e6f0" r="4"/></g><g><circle cx="164.058" cy="263.239" fill="#d7e6f0" r="4"/></g><g><circle cx="128.793" cy="249.625" fill="#d7e6f0" r="4"/></g><g><circle cx="155.175" cy="195.484" fill="#d7e6f0" r="4"/></g><g><circle cx="292.008" cy="275.649" fill="#d7e6f0" r="4"/></g><g><circle cx="241.584" cy="248.239" fill="#d7e6f0" r="4"/></g><g><circle cx="249.837" cy="207.828" fill="#d7e6f0" r="4"/></g><g><circle cx="340" cy="256.457" fill="#d7e6f0" r="4"/></g><g><circle cx="288.25" cy="220.944" fill="#d7e6f0" r="4"/></g><g><circle cx="332.352" cy="200.97" fill="#d7e6f0" r="4"/></g><g><circle cx="179.874" cy="327.678" fill="#d7e6f0" r="4"/></g><g><circle cx="155.648" cy="312.423" fill="#d7e6f0" r="4"/></g><g><circle cx="201.91" cy="255.215" fill="#d7e6f0" r="4"/></g><g><circle cx="258.241" cy="324.9" fill="#d7e6f0" r="4"/></g><g><circle cx="265.016" cy="299.576" fill="#d7e6f0" r="4"/></g><g><circle cx="305.92" cy="304.923" fill="#d7e6f0" r="4"/></g></g><g><path d="m269.172 209.857-7.515-7.515c-3.124-3.122-8.189-3.123-11.314 0l-7.515 7.516c-6.982 6.984-10.828 16.267-10.828 26.142s3.846 19.158 10.829 26.143l7.515 7.515c1.562 1.562 3.609 2.343 5.657 2.343s4.095-.781 5.657-2.343l7.515-7.515c6.981-6.984 10.827-16.268 10.827-26.143s-3.846-19.159-10.828-26.143z" fill="#69a041"/><path d="m325.657 266.343-7.515-7.515c-6.983-6.982-16.267-10.828-26.142-10.828s-19.159 3.846-26.143 10.828l-7.515 7.515c-3.124 3.125-3.124 8.189 0 11.314l7.515 7.515c6.984 6.982 16.268 10.828 26.143 10.828s19.159-3.846 26.143-10.828l7.515-7.515c3.123-3.125 3.123-8.189-.001-11.314z" fill="#4b8c41"/><path d="m253.657 266.343-7.514-7.514c-6.983-6.983-16.267-10.829-26.143-10.829s-19.16 3.846-26.142 10.828l-7.515 7.515c-3.125 3.125-3.125 8.189 0 11.314l7.514 7.514c6.983 6.983 16.267 10.829 26.143 10.829s19.16-3.846 26.142-10.828l7.515-7.515c3.124-3.125 3.124-8.189 0-11.314z" fill="#4b8c41"/><g><path d="m256 304c-4.418 0-8-3.582-8-8v-24h16v24c0 4.418-3.582 8-8 8z" fill="#4b8c41"/></g></g></g></svg>