<svg id="Layer_1" enable-background="new 0 0 512 512" height="512" viewBox="0 0 512 512" width="512" xmlns="http://www.w3.org/2000/svg"><g><g><path d="m256 48c-81.611 0-158.144 21.821-224.037 59.939l.037.074 80 138.567v89.42c0 8.837 7.163 16 16 16 8.837 0 16-7.163 16-16v-4.137c0-8.185 10.836-11.088 14.928-4 .702 1.216 1.072 2.596 1.072 4v100.137c0 8.837 7.163 16 16 16 8.837 0 16-7.163 16-16v-16.996c0-8.185 10.836-11.088 14.928-4l35.065 60.736c2.189 3.791 5.749 6.68 9.993 7.756 7.155 1.814 14.35-1.4 17.87-7.496l210.144-363.987.037-.075c-65.893-38.117-142.426-59.938-224.037-59.938z" fill="#ffd23c"/></g><g><path d="m256 480c-4.418 0-8-3.582-8-8s3.582-8 8-8l206.151-357.073c2.209-3.827 7.102-5.138 10.929-2.928 3.826 2.209 5.138 7.102 2.929 10.928l-206.153 357.073c-2.847 4.934-8.157 8-13.856 8z" fill="#faa019"/></g><path d="m481.11 107.383c-1.809-6.295-5.984-11.448-11.757-14.509-65.241-34.59-139.018-52.874-213.353-52.874-74.336 0-148.112 18.284-213.354 52.874-5.772 3.061-9.947 8.213-11.756 14.508-1.819 6.331-1.007 12.959 2.287 18.663l8.008 13.867c4.456 7.717 12.471 12.054 20.754 12.053 3.769 0 7.595-.898 11.164-2.785 55.931-29.556 119.176-45.18 182.897-45.18s126.966 15.624 182.896 45.182c11.416 6.033 25.435 1.96 31.919-9.269l8.008-13.867c3.294-5.704 4.107-12.332 2.287-18.663z" fill="#f57828"/><path d="m481.046 107.182c-1.838-6.203-5.99-11.284-11.693-14.308-65.241-34.59-139.017-52.874-213.353-52.874-74.335 0-148.112 18.284-213.354 52.874-5.703 3.023-9.855 8.105-11.692 14.308-1.85 6.245-1.126 12.82 2.038 18.513l3.954 7.114 7.044-4.075c64.156-37.116 137.467-56.734 212.01-56.734s147.854 19.618 212.01 56.734l7.045 4.075 3.953-7.114c3.165-5.693 3.888-12.268 2.038-18.513z" fill="#faa019"/><g><g><circle cx="160" cy="192" fill="#f04b37" r="48"/></g><g><path d="m160 240c-4.418 0-8-3.582-8-8s3.582-8 8-8c17.645 0 32-14.355 32-32 0-4.418 3.582-8 8-8s8 3.582 8 8c0 26.467-21.533 48-48 48z" fill="#e1322d"/></g></g><g><g><circle cx="336" cy="192" fill="#f04b37" r="48"/></g><g><path d="m336 240c-4.418 0-8-3.582-8-8s3.582-8 8-8c17.645 0 32-14.355 32-32 0-4.418 3.582-8 8-8s8 3.582 8 8c0 26.467-21.532 48-48 48z" fill="#e1322d"/></g></g><g><g><circle cx="256" cy="304" fill="#f04b37" r="48"/></g><g><path d="m256 352c-4.418 0-8-3.582-8-8s3.582-8 8-8c17.645 0 32-14.355 32-32 0-4.418 3.582-8 8-8s8 3.582 8 8c0 26.467-21.532 48-48 48z" fill="#e1322d"/></g></g><g><path d="m224 176c-4.418 0-8-3.582-8-8s3.582-8 8-8c17.645 0 32-14.355 32-32 0-4.418 3.582-8 8-8s8 3.582 8 8c0 26.467-21.533 48-48 48z" fill="#5faa46"/></g><g><path d="m184 296c-4.418 0-8-3.582-8-8 0-26.467 21.533-48 48-48 4.418 0 8 3.582 8 8s-3.582 8-8 8c-17.645 0-32 14.355-32 32 0 4.418-3.582 8-8 8z" fill="#5faa46"/></g><g><path d="m336 304c-4.418 0-8-3.582-8-8 0-17.645-14.355-32-32-32-4.418 0-8-3.582-8-8s3.582-8 8-8c26.468 0 48 21.533 48 48 0 4.418-3.582 8-8 8z" fill="#5faa46"/></g><g><path d="m248 440c-4.418 0-8-3.582-8-8 0-17.645-14.355-32-32-32-4.418 0-8-3.582-8-8s3.582-8 8-8c26.467 0 48 21.533 48 48 0 4.418-3.582 8-8 8z" fill="#5faa46"/></g><g><path d="m256 232c-13.234 0-24-10.766-24-24s10.766-24 24-24c13.233 0 24 10.766 24 24s-10.767 24-24 24zm0-32c-4.411 0-8 3.589-8 8s3.589 8 8 8 8-3.589 8-8-3.589-8-8-8z" fill="#555a6e"/></g><g><path d="m144 296c-13.234 0-24-10.766-24-24s10.766-24 24-24 24 10.766 24 24-10.766 24-24 24zm0-32c-4.411 0-8 3.589-8 8s3.589 8 8 8 8-3.589 8-8-3.589-8-8-8z" fill="#555a6e"/></g><g><path d="m272 405.333c-13.233 0-24-10.766-24-24s10.767-24 24-24 24 10.766 24 24-10.767 24-24 24zm0-32c-4.411 0-8 3.589-8 8s3.589 8 8 8 8-3.589 8-8-3.589-8-8-8z" fill="#555a6e"/></g><g><circle cx="88" cy="168" fill="#ffff50" r="8"/></g><g><circle cx="292" cy="132" fill="#ffff50" r="4"/></g><g><circle cx="212" cy="132" fill="#ffff50" r="12"/></g><g><circle cx="192" cy="352" fill="#ffff50" r="8"/></g><g><circle cx="316" cy="324" fill="#ffff50" r="4"/></g><g><circle cx="404" cy="172" fill="#ffff50" r="12"/></g></g></svg>