<svg id="Layer_1" enable-background="new 0 0 512 512" height="512" viewBox="0 0 512 512" width="512" xmlns="http://www.w3.org/2000/svg"><g><g><path d="m194.667 96h301.333v-16h-301.333c-4.418 0-8 3.582-8 8 0 4.418 3.581 8 8 8z" fill="#737079"/></g><g><path d="m186.667 88h309.333v-8h-301.333c-4.419 0-8 3.582-8 8z" fill="#96aab9"/></g><g><g><path d="m80 320h16c35.346 0 64-28.654 64-64 0-35.346-28.654-64-64-64h-16c-35.346 0-64 28.654-64 64 0 35.346 28.654 64 64 64z" fill="#5faa46"/></g><g><circle cx="96" cy="256" fill="#91c83c" r="64"/></g></g><g><g><path d="m120 320h16c35.346 0 64-28.654 64-64 0-35.346-28.654-64-64-64h-16c-35.346 0-64 28.654-64 64 0 35.346 28.654 64 64 64z" fill="#5faa46"/></g><g><circle cx="136" cy="256" fill="#91c83c" r="64"/></g></g><g><g><path d="m160 320h16c35.346 0 64-28.654 64-64 0-35.346-28.654-64-64-64h-16c-35.346 0-64 28.654-64 64 0 35.346 28.654 64 64 64z" fill="#5faa46"/></g><g><circle cx="176" cy="256" fill="#91c83c" r="64"/></g></g><g fill="#e1322d"><path d="m365.657 226.343-32-32c-3.124-3.124-8.189-3.124-11.313 0l-32 32c-3.125 3.124-3.125 8.189 0 11.313l32 32c1.562 1.562 3.609 2.343 5.657 2.343s4.095-.781 5.657-2.343l32-32c3.123-3.123 3.123-8.189-.001-11.313z"/><path d="m301.657 226.343-32-32c-3.124-3.124-8.189-3.124-11.313 0l-32 32c-3.125 3.124-3.125 8.189 0 11.313l32 32c1.562 1.562 3.609 2.343 5.657 2.343s4.095-.781 5.657-2.343l32-32c3.123-3.123 3.123-8.189-.001-11.313z"/><path d="m429.657 226.343-32-32c-3.124-3.124-8.189-3.124-11.313 0l-32 32c-3.125 3.124-3.125 8.189 0 11.313l32 32c1.562 1.562 3.609 2.343 5.657 2.343s4.095-.781 5.657-2.343l32-32c3.123-3.123 3.123-8.189-.001-11.313z"/></g><g><path d="m485.657 250.343-32-32c-3.124-3.124-8.189-3.124-11.313 0l-32 32c-3.125 3.124-3.125 8.189 0 11.313l32 32c1.562 1.562 3.609 2.343 5.657 2.343s4.095-.781 5.657-2.343l32-32c3.123-3.123 3.123-8.189-.001-11.313z" fill="#f04b37"/><g><path d="m416 264c-2.047 0-4.095-.781-5.657-2.343-3.125-3.124-3.125-8.189 0-11.313l32-32c3.124-3.124 8.189-3.124 11.313 0 3.125 3.124 3.125 8.189 0 11.313l-32 32c-1.561 1.562-3.609 2.343-5.656 2.343z" fill="#f5826e"/></g></g><g><path d="m421.657 250.343-32-32c-3.124-3.124-8.189-3.124-11.313 0l-32 32c-3.125 3.124-3.125 8.189 0 11.313l32 32c1.562 1.562 3.609 2.343 5.657 2.343s4.095-.781 5.657-2.343l32-32c3.123-3.123 3.123-8.189-.001-11.313z" fill="#f04b37"/><g><path d="m352 264c-2.047 0-4.095-.781-5.657-2.343-3.125-3.124-3.125-8.189 0-11.313l32-32c3.124-3.124 8.189-3.124 11.313 0 3.125 3.124 3.125 8.189 0 11.313l-32 32c-1.561 1.562-3.609 2.343-5.656 2.343z" fill="#f5826e"/></g></g><g><path d="m357.657 250.343-32-32c-3.124-3.124-8.189-3.124-11.313 0l-32 32c-3.125 3.124-3.125 8.189 0 11.313l32 32c1.562 1.562 3.609 2.343 5.657 2.343s4.095-.781 5.657-2.343l32-32c3.123-3.123 3.123-8.189-.001-11.313z" fill="#f04b37"/><g><path d="m288 264c-2.047 0-4.095-.781-5.657-2.343-3.125-3.124-3.125-8.189 0-11.313l32-32c3.124-3.124 8.189-3.124 11.313 0 3.125 3.124 3.125 8.189 0 11.313l-32 32c-1.561 1.562-3.609 2.343-5.656 2.343z" fill="#f5826e"/></g></g><g><path d="m293.657 66.343-32-32c-3.124-3.124-8.189-3.124-11.313 0l-32 32c-3.125 3.124-3.125 8.189 0 11.313l32 32c1.562 1.562 3.609 2.343 5.657 2.343s4.095-.781 5.657-2.343l32-32c3.123-3.123 3.123-8.189-.001-11.313z" fill="#f04b37"/><g><path d="m224 80c-2.047 0-4.095-.781-5.657-2.343-3.125-3.124-3.125-8.189 0-11.313l32-32c3.124-3.124 8.189-3.124 11.313 0 3.125 3.124 3.125 8.189 0 11.313l-32 32c-1.561 1.562-3.609 2.343-5.656 2.343z" fill="#f5826e"/></g></g><g><path d="m293.657 250.343-32-32c-3.124-3.124-8.189-3.124-11.313 0l-32 32c-3.125 3.124-3.125 8.189 0 11.313l32 32c1.562 1.562 3.609 2.343 5.657 2.343s4.095-.781 5.657-2.343l32-32c3.123-3.123 3.123-8.189-.001-11.313z" fill="#f04b37"/><g><path d="m224 264c-2.047 0-4.095-.781-5.657-2.343-3.125-3.124-3.125-8.189 0-11.313l32-32c3.124-3.124 8.189-3.124 11.313 0 3.125 3.124 3.125 8.189 0 11.313l-32 32c-1.561 1.562-3.609 2.343-5.656 2.343z" fill="#f5826e"/></g></g><g><circle cx="160" cy="256" fill="#faa019" r="32"/></g><g><circle cx="224" cy="256" fill="#faa019" r="32"/></g><g><circle cx="192" cy="256" fill="#ffd205" r="32"/></g><g><path d="m336 448h-160c-88.366 0-160-71.634-160-160v-16c0-8.837 7.163-16 16-16h448c8.837 0 16 7.163 16 16v16c0 88.366-71.634 160-160 160z" fill="#d7e6f0"/></g><g><path d="m176 432c-79.402 0-144-64.598-144-144v-8c0-4.418 3.582-8 8-8s8 3.582 8 8v8c0 70.58 57.42 128 128 128 4.418 0 8 3.582 8 8s-3.582 8-8 8z" fill="#fff"/></g><g><path d="m480 256h-160c8.837 0 16 7.163 16 16v16c0 88.365-71.635 160-160 160h160c88.365 0 160-71.635 160-160v-16c0-8.837-7.163-16-16-16z" fill="#a5c3dc"/></g><g><path d="m320 480h-128c-8.837 0-16-7.163-16-16v-16h160v16c0 8.837-7.163 16-16 16z" fill="#a5c3dc"/></g><g><path d="m194.667 64h301.333v-16h-301.333c-4.418 0-8 3.582-8 8 0 4.418 3.581 8 8 8z" fill="#737079"/></g><g><path d="m186.667 56h309.333v-8h-301.333c-4.419 0-8 3.582-8 8z" fill="#96aab9"/></g></g></svg>