<svg id="Layer_1" enable-background="new 0 0 512 512" height="512" viewBox="0 0 512 512" width="512" xmlns="http://www.w3.org/2000/svg"><g><g><g><path d="m472 168 24 24-128 128h-64l152-152c4.418-4.418 11.582-4.418 16 0z" fill="#faa019"/></g><g><path d="m472 168c4.418 4.418 4.418 11.582 0 16l-136 136h-32l152-152c4.418-4.418 11.582-4.418 16 0z" fill="#ffd205"/></g></g><g><g><path d="m424 88 16 16c4.418 4.418 4.418 11.582 0 16l-120 120h-64l152-152c4.418-4.418 11.582-4.418 16 0z" fill="#faa019"/></g><g><path d="m424 88c4.418 4.418 4.418 11.582 0 16l-136 136h-32l152-152c4.418-4.418 11.582-4.418 16 0z" fill="#ffd205"/></g></g><g><g><path d="m360 88 16 16c4.418 4.418 4.418 11.582 0 16l-120 120h-64l152-152c4.418-4.418 11.582-4.418 16 0z" fill="#faa019"/></g><g><path d="m360 88c4.418 4.418 4.418 11.582 0 16l-136 136h-32l152-152c4.418-4.418 11.582-4.418 16 0z" fill="#ffd205"/></g></g><g><g><path d="m40 104-16 16c-4.418 4.418-4.418 11.582 0 16l120 120h64l-152-152c-4.418-4.418-11.582-4.418-16 0z" fill="#faa019"/></g><g><path d="m40 104c-4.418 4.418-4.418 11.582 0 16l136 136h32l-152-152c-4.418-4.418-11.582-4.418-16 0z" fill="#ffd205"/></g></g><g><g><path d="m40 168-16 16c-4.418 4.418-4.418 11.582 0 16l120 120h64l-152-152c-4.418-4.418-11.582-4.418-16 0z" fill="#faa019"/></g><g><path d="m40 168c-4.418 4.418-4.418 11.582 0 16l136 136h32l-152-152c-4.418-4.418-11.582-4.418-16 0z" fill="#ffd205"/></g></g><g><g><path d="m152 88-16 16c-4.418 4.418-4.418 11.582 0 16l120 120h64l-152-152c-4.418-4.418-11.582-4.418-16 0z" fill="#faa019"/></g><g><path d="m152 88c-4.418 4.418-4.418 11.582 0 16l136 136h32l-152-152c-4.418-4.418-11.582-4.418-16 0z" fill="#ffd205"/></g></g><g><g><path d="m216 88-16 16c-4.418 4.418-4.418 11.582 0 16l120 120h64l-152-152c-4.418-4.418-11.582-4.418-16 0z" fill="#faa019"/></g><g><path d="m216 88c-4.418 4.418-4.418 11.582 0 16l136 136h32l-152-152c-4.418-4.418-11.582-4.418-16 0z" fill="#ffd205"/></g></g><g><path d="m432 176c0-8.837-7.163-16-16-16h-16c-8.837 0-16-7.163-16-16 0-8.837-7.163-16-16-16h-224c-8.837 0-16 7.163-16 16 0 8.837-7.163 16-16 16h-16c-8.837 0-16 7.163-16 16 0 8.837-7.163 16-16 16-8.837 0-16 7.163-16 16v16h416v-16c0-8.837-7.163-16-16-16-8.837 0-16-7.163-16-16z" fill="#f06423"/></g><g><path d="m392 176v16c0 4.418-3.582 8-8 8h-16c-4.418 0-8-3.582-8-8v-16c0-4.418 3.582-8 8-8h16c4.418 0 8 3.582 8 8z" fill="#d7e6f0"/></g><g><g><path d="m472 104 16 16c4.418 4.418 4.418 11.582 0 16l-120 120h-64l152-152c4.418-4.418 11.582-4.418 16 0z" fill="#faa019"/></g><g><path d="m472 104c4.418 4.418 4.418 11.582 0 16l-136 136h-32l152-152c4.418-4.418 11.582-4.418 16 0z" fill="#ffd205"/></g></g><g><g><path d="m88 88-16 16c-4.418 4.418-4.418 11.582 0 16l120 120h64l-152-152c-4.418-4.418-11.582-4.418-16 0z" fill="#faa019"/></g><g><path d="m88 88c-4.418 4.418-4.418 11.582 0 16l136 136h32l-152-152c-4.418-4.418-11.582-4.418-16 0z" fill="#ffd205"/></g></g><g><g><path d="m336 192v-32c0-8.837-7.163-16-16-16h-32c-8.837 0-16 7.163-16 16v32c0 8.837 7.163 16 16 16h32c8.837 0 16-7.163 16-16z" fill="#d7e6f0"/></g><g><path d="m304 192c0-8.836 7.164-16 16-16h16v16c0 8.836-7.164 16-16 16h-16z" fill="#a5c3dc"/></g></g><g><g><circle cx="242.667" cy="192" fill="#faa019" r="8"/></g><g><circle cx="178.667" cy="144" fill="#faa019" r="8"/></g><g><circle cx="257.333" cy="164" fill="#faa019" r="4"/></g><g><circle cx="364" cy="148" fill="#faa019" r="4"/></g></g><g><path d="m419.362 448h-326.724c-16.764 0-31.309-11.571-35.078-27.905l-41.192-178.501c-.244-1.059-.368-2.143-.368-3.23 0-7.933 6.431-14.364 14.364-14.364h451.272c7.933 0 14.364 6.431 14.364 14.364 0 1.087-.123 2.171-.368 3.23l-41.192 178.501c-3.77 16.334-18.315 27.905-35.078 27.905z" fill="#a5c3dc"/></g><g><path d="m310.44 420.095 41.192-178.501c.245-1.059.368-2.143.368-3.23 0-7.933-6.431-14.364-14.364-14.364h-307.272c-7.933 0-14.364 6.431-14.364 14.364 0 1.087.123 2.171.368 3.23l41.192 178.501c3.77 16.334 18.315 27.905 35.078 27.905h182.723c16.764 0 31.309-11.571 35.079-27.905z" fill="#d7e6f0"/></g><g><path d="m477.538 320h-443.076l7.384 32h428.308z" fill="#e1322d"/></g><g><path d="m333.538 320h-299.076l7.384 32h284.308z" fill="#f04b37"/></g><g><path d="m240.971 165.657-11.314 11.314c-3.124 3.124-8.19 3.124-11.314 0l-11.314-11.314c-3.124-3.124-3.124-8.19 0-11.314l11.314-11.314c3.124-3.124 8.19-3.124 11.314 0l11.314 11.314c3.124 3.124 3.124 8.19 0 11.314z" fill="#d7e6f0"/></g><g><path d="m112 216h-16c-4.418 0-8-3.582-8-8v-16c0-4.418 3.582-8 8-8h16c4.418 0 8 3.582 8 8v16c0 4.418-3.582 8-8 8z" fill="#d7e6f0"/></g></g></svg>