<svg id="Layer_1" enable-background="new 0 0 512 512" height="512" viewBox="0 0 512 512" width="512" xmlns="http://www.w3.org/2000/svg"><g><g><path d="m256 344c-70.579 0-128-57.42-128-128h-96c0 123.514 100.486 224 224 224s224-100.486 224-224h-96c0 70.58-57.421 128-128 128z" fill="#dc6e1e"/></g><g><path d="m256 376c-88.225 0-160-71.776-160-160 0-8.836 7.163-16 16-16s16 7.164 16 16c0 70.58 57.421 128 128 128s128-57.42 128-128c0-8.836 7.163-16 16-16s16 7.164 16 16c0 88.224-71.775 160-160 160z" fill="#faa037"/></g><g><path d="m320 152c35.29 0 64 28.71 64 64h96c0-88.224-71.775-160-160-160s-160 71.776-160 160h96c0-35.29 28.71-64 64-64z" fill="#be5000"/></g><g><path d="m192 152c35.29 0 64 28.71 64 64h96c0-88.224-71.775-160-160-160s-160 71.776-160 160h96c0-35.29 28.71-64 64-64z" fill="#dc6e1e"/></g><g><path d="m247.432 236.687-137.374 137.372c-18.714 18.715-18.714 49.167.002 67.884 9.066 9.065 21.12 14.057 33.94 14.057s24.874-4.992 33.941-14.059l137.371-137.373c23.659-23.656 36.688-55.111 36.688-88.568h-96c0 7.814-3.043 15.161-8.568 20.687z" fill="#dc6e1e"/></g><g><path d="m264.568 236.688c-5.525-5.526-8.568-12.873-8.568-20.688h-96c0 33.458 13.028 64.912 36.687 88.57l137.373 137.371c9.065 9.066 21.119 14.059 33.94 14.059s24.875-4.993 33.941-14.059 14.059-21.12 14.059-33.941-4.993-24.875-14.06-33.941z" fill="#be5000"/></g><g><path d="m48 232c-8.837 0-16-7.164-16-16 0-88.224 71.775-160 160-160 8.837 0 16 7.164 16 16s-7.163 16-16 16c-70.579 0-128 57.42-128 128 0 8.836-7.163 16-16 16z" fill="#faa037"/></g><g><g><circle cx="437.333" cy="213.333" fill="#fff" r="10.667"/></g><g><circle cx="424" cy="120" fill="#fff" r="8"/></g><g><circle cx="441.333" cy="281.333" fill="#fff" r="6.667"/></g><g><circle cx="390.667" cy="345.333" fill="#fff" r="6.667"/></g><g><circle cx="358.667" cy="153.333" fill="#fff" r="6.667"/></g><g><circle cx="345.333" cy="89.333" fill="#fff" r="6.667"/></g></g><g><g><circle cx="74.667" cy="213.333" fill="#fff" r="10.667"/></g><g><circle cx="88" cy="120" fill="#fff" r="8"/></g><g><circle cx="70.667" cy="281.333" fill="#fff" r="6.667"/></g><g><circle cx="121.333" cy="345.333" fill="#fff" r="6.667"/></g><g><circle cx="153.333" cy="153.333" fill="#fff" r="6.667"/></g><g><circle cx="166.667" cy="89.333" fill="#fff" r="6.667"/></g></g><g><g><circle cx="221.333" cy="277.333" fill="#fff" r="10.667"/></g><g><circle cx="234.667" cy="184" fill="#fff" r="8"/></g><g><circle cx="217.333" cy="345.333" fill="#fff" r="6.667"/></g><g><circle cx="268" cy="409.333" fill="#fff" r="6.667"/></g><g><circle cx="300" cy="217.333" fill="#fff" r="6.667"/></g><g><circle cx="313.333" cy="153.333" fill="#fff" r="6.667"/></g></g></g></svg>