<svg id="Layer_1" enable-background="new 0 0 512 512" height="512" viewBox="0 0 512 512" width="512" xmlns="http://www.w3.org/2000/svg"><g><g><path d="m194.667 96h301.333v-16h-301.333c-4.418 0-8 3.582-8 8 0 4.418 3.581 8 8 8z" fill="#737079"/></g><g><path d="m186.667 88h309.333v-8h-301.333c-4.419 0-8 3.582-8 8z" fill="#96aab9"/></g><g><path d="m194.667 64h301.333v-16h-301.333c-4.418 0-8 3.582-8 8 0 4.418 3.581 8 8 8z" fill="#737079"/></g><g><path d="m186.667 56h309.333v-8h-301.333c-4.419 0-8 3.582-8 8z" fill="#96aab9"/></g><g><path d="m208 296c-4.418 0-8-3.582-8-8v-216c0-4.418 3.582-8 8-8s8 3.582 8 8v216c0 4.418-3.582 8-8 8z" fill="#faa019"/></g><g><path d="m224 296c-4.418 0-8-3.582-8-8v-216c0-4.418 3.582-8 8-8s8 3.582 8 8v216c0 4.418-3.582 8-8 8z" fill="#f06423"/></g><g><path d="m240 296c-4.418 0-8-3.582-8-8v-216c0-4.418 3.582-8 8-8s8 3.582 8 8v216c0 4.418-3.582 8-8 8z" fill="#faa019"/></g><g><path d="m256 296c-4.418 0-8-3.582-8-8v-216c0-4.418 3.582-8 8-8s8 3.582 8 8v216c0 4.418-3.582 8-8 8z" fill="#f06423"/></g><g><path d="m272 296c-4.418 0-8-3.582-8-8v-216c0-4.418 3.582-8 8-8s8 3.582 8 8v216c0 4.418-3.582 8-8 8z" fill="#faa019"/></g><g><path d="m304 296c-4.418 0-8-3.582-8-8v-216c0-4.418 3.582-8 8-8s8 3.582 8 8v216c0 4.418-3.582 8-8 8z" fill="#faa019"/></g><g><path d="m288 296c-4.418 0-8-3.582-8-8v-216c0-4.418 3.582-8 8-8s8 3.582 8 8v216c0 4.418-3.582 8-8 8z" fill="#f06423"/></g><g><g><circle cx="296" cy="248" fill="#5faa46" r="40"/></g><g><circle cx="392" cy="248" fill="#5faa46" r="40"/></g><g><circle cx="344" cy="216" fill="#91c83c" r="40"/></g></g><g><path d="m160 256c0-35.346-28.654-88-64-88s-64 52.654-64 88 28.654 64 64 64 64-28.654 64-64z" fill="#9bd2f0"/></g><g><circle cx="96" cy="256" fill="#faa019" r="32"/></g><g><path d="m224 256c0-35.346-28.654-88-64-88s-64 52.654-64 88 28.654 64 64 64 64-28.654 64-64z" fill="#d7e6f0"/></g><g><circle cx="160" cy="256" fill="#ffd205" r="32"/></g><g><g><path d="m380 256c0-5.178 8.624-8.929 10.142-13.602 1.572-4.842-3.145-12.936-.212-16.967 2.963-4.071 12.138-2.07 16.209-5.033 4.031-2.933 4.946-12.293 9.789-13.865 4.672-1.518 10.894 5.467 16.072 5.467s11.4-6.985 16.073-5.467c4.842 1.572 5.758 10.932 9.789 13.866 4.071 2.963 13.246.962 16.209 5.033 2.933 4.031-1.784 12.125-.212 16.967 1.517 4.672 10.141 8.423 10.141 13.601s-8.624 8.93-10.142 13.602c-1.572 4.842 3.145 12.936.212 16.967-2.963 4.071-12.138 2.07-16.209 5.033-4.031 2.933-4.946 12.293-9.789 13.865-4.672 1.518-10.894-5.467-16.072-5.467s-11.4 6.985-16.073 5.467c-4.842-1.572-5.758-10.932-9.789-13.866-4.071-2.963-13.246-.962-16.209-5.033-2.933-4.031 1.784-12.125.212-16.967-1.517-4.672-10.141-8.423-10.141-13.601z" fill="#9bd2f0"/></g><g><path d="m432 292c-19.851 0-36-16.149-36-36s16.149-36 36-36 36 16.149 36 36-16.149 36-36 36zm0-64c-15.439 0-28 12.561-28 28s12.561 28 28 28 28-12.561 28-28-12.561-28-28-28z" fill="#f04b37"/></g><g><path d="m432 273.333c-9.558 0-17.333-7.776-17.333-17.333s7.776-17.333 17.333-17.333 17.333 7.776 17.333 17.333-7.775 17.333-17.333 17.333zm0-26.666c-5.146 0-9.333 4.187-9.333 9.333s4.187 9.333 9.333 9.333 9.333-4.187 9.333-9.333-4.187-9.333-9.333-9.333z" fill="#f04b37"/></g></g><g><g><path d="m316 256c0-5.178 8.624-8.929 10.142-13.602 1.572-4.842-3.145-12.936-.212-16.967 2.963-4.071 12.138-2.07 16.209-5.033 4.031-2.933 4.946-12.293 9.789-13.865 4.672-1.518 10.894 5.467 16.072 5.467s11.4-6.985 16.073-5.467c4.842 1.572 5.758 10.932 9.789 13.866 4.071 2.963 13.246.962 16.209 5.033 2.933 4.031-1.784 12.125-.212 16.967 1.517 4.672 10.141 8.423 10.141 13.601s-8.624 8.93-10.142 13.602c-1.572 4.842 3.145 12.936.212 16.967-2.963 4.071-12.138 2.07-16.209 5.033-4.031 2.933-4.946 12.293-9.789 13.865-4.672 1.518-10.894-5.467-16.072-5.467s-11.4 6.985-16.073 5.467c-4.842-1.572-5.758-10.932-9.789-13.866-4.071-2.963-13.246-.962-16.209-5.033-2.933-4.031 1.784-12.125.212-16.967-1.517-4.672-10.141-8.423-10.141-13.601z" fill="#d7e6f0"/></g><g><path d="m368 292c-19.851 0-36-16.149-36-36s16.149-36 36-36 36 16.149 36 36-16.149 36-36 36zm0-64c-15.439 0-28 12.561-28 28s12.561 28 28 28 28-12.561 28-28-12.561-28-28-28z" fill="#f5826e"/></g><g><path d="m368 273.333c-9.558 0-17.333-7.776-17.333-17.333s7.776-17.333 17.333-17.333 17.333 7.776 17.333 17.333-7.775 17.333-17.333 17.333zm0-26.666c-5.146 0-9.333 4.187-9.333 9.333s4.187 9.333 9.333 9.333 9.333-4.187 9.333-9.333-4.187-9.333-9.333-9.333z" fill="#f5826e"/></g></g><g><path d="m336 448h-160c-88.366 0-160-71.634-160-160v-16c0-8.837 7.163-16 16-16h448c8.837 0 16 7.163 16 16v16c0 88.366-71.634 160-160 160z" fill="#f04b37"/></g><g><path d="m176 432c-79.402 0-144-64.598-144-144v-8c0-4.418 3.582-8 8-8s8 3.582 8 8v8c0 70.58 57.42 128 128 128 4.418 0 8 3.582 8 8s-3.582 8-8 8z" fill="#ff6955"/></g><g><path d="m496 288h-480v-16c0-8.837 7.163-16 16-16h448c8.837 0 16 7.163 16 16z" fill="#64afe1"/></g><g><path d="m480 256h-160c8.837 0 16 7.163 16 16v16c0 88.365-71.635 160-160 160h160c88.365 0 160-71.635 160-160v-16c0-8.837-7.163-16-16-16z" fill="#d7322d"/></g><g><path d="m320 480h-128c-8.837 0-16-7.163-16-16v-16h160v16c0 8.837-7.163 16-16 16z" fill="#d7322d"/></g><g><path d="m496 288h-160v-16c0-8.837-7.163-16-16-16h160c8.837 0 16 7.163 16 16z" fill="#4182c3"/></g><g><path d="m40 272c-4.418 0-8 3.582-8 8v8h16v-8c0-4.418-3.582-8-8-8z" fill="#78d2f0"/></g></g></svg>