<svg id="Layer_1" enable-background="new 0 0 512 512" height="512" viewBox="0 0 512 512" width="512" xmlns="http://www.w3.org/2000/svg"><g><g><path d="m357.823 63.667 90.51 90.51 11.314-11.314c18.745-18.745 18.745-49.137 0-67.882l-22.627-22.627c-18.745-18.745-49.137-18.745-67.882 0zm83.884 61.256-54.63-54.63c-3.892-3.892-2.795-10.486 2.168-12.864 11.901-5.703 26.598-3.624 36.46 6.238l22.627 22.627c9.862 9.862 11.941 24.559 6.238 36.46-2.377 4.964-8.972 6.06-12.863 2.169z" fill="#463c4b"/></g><g><path d="m63.667 357.823 90.51 90.51-11.314 11.314c-18.745 18.745-49.137 18.745-67.882 0l-22.627-22.627c-18.745-18.745-18.745-49.137 0-67.882zm61.256 83.884-54.63-54.63c-3.892-3.892-10.486-2.795-12.864 2.168-5.703 11.901-3.624 26.598 6.238 36.46l22.627 22.627c9.862 9.862 24.559 11.941 36.46 6.238 4.964-2.377 6.06-8.972 2.169-12.863z" fill="#463c4b"/></g><g><circle cx="256" cy="256" fill="#555a6e" r="224"/></g><g><path d="m40 264c-4.418 0-8-3.582-8-8 0-59.833 23.3-116.084 65.607-158.392 42.309-42.308 98.56-65.608 158.393-65.608 4.418 0 8 3.582 8 8s-3.582 8-8 8c-114.691 0-208 93.308-208 208 0 4.418-3.582 8-8 8z" fill="#6e788c"/></g><g><circle cx="256" cy="256" fill="#463c4b" r="192"/></g><g><g><circle cx="392" cy="256" fill="#f04b37" r="44"/></g><g><g><path d="m392 216c22.056 0 40 17.944 40 40s-17.944 40-40 40-40-17.944-40-40 17.944-40 40-40m0-8c-26.51 0-48 21.49-48 48s21.49 48 48 48 48-21.49 48-48-21.49-48-48-48z" fill="#e1322d"/></g></g></g><g><g><path d="m387.336 264.813c-19.859 0-37.324-13.415-42.471-32.624-3.041-11.353-1.48-23.21 4.396-33.388s15.364-17.459 26.717-20.5c3.742-1.003 7.584-1.511 11.418-1.511 19.859 0 37.324 13.415 42.472 32.624 3.041 11.352 1.48 23.21-4.396 33.388s-15.364 17.459-26.717 20.501c-3.743 1.001-7.585 1.51-11.419 1.51z" fill="#faa019"/></g><g><path d="m387.397 172.789v8h.001c18.051 0 33.925 12.196 38.605 29.659 5.708 21.305-6.98 43.281-28.284 48.99-3.405.912-6.898 1.375-10.383 1.375-18.052 0-33.927-12.196-38.607-29.659-2.765-10.32-1.346-21.1 3.996-30.353s13.968-15.872 24.288-18.637c3.404-.912 6.898-1.375 10.383-1.375zm-.001 0c-4.112 0-8.293.533-12.454 1.647-25.606 6.861-40.802 33.181-33.941 58.788 5.747 21.446 25.14 35.589 46.334 35.589 4.112 0 8.293-.533 12.454-1.647 25.606-6.861 40.802-33.181 33.941-58.788-5.746-21.447-25.14-35.59-46.334-35.589z" fill="#804b8f"/></g></g><g><g><path d="m373.824 232.008c-15.694 0-30.313-8.433-38.15-22.008-5.876-10.178-7.438-22.036-4.396-33.388 3.042-11.353 10.322-20.841 20.501-26.717 6.688-3.862 14.28-5.903 21.955-5.903 15.694 0 30.313 8.433 38.15 22.008 5.876 10.178 7.438 22.036 4.396 33.388-3.042 11.353-10.322 20.841-20.501 26.717-6.688 3.862-14.28 5.903-21.955 5.903z" fill="#d7e6f0"/></g><g><path d="m373.736 139.992v8h.001c14.268 0 27.558 7.667 34.684 20.008 5.342 9.253 6.761 20.032 3.996 30.353s-9.384 18.946-18.637 24.288c-6.082 3.511-12.982 5.367-19.955 5.367-14.27 0-27.561-7.667-34.686-20.008-5.342-9.253-6.761-20.032-3.996-30.353s9.384-18.946 18.637-24.288c6.081-3.511 12.981-5.366 19.955-5.367zm-.001 0c-8.143 0-16.397 2.075-23.955 6.439-22.958 13.255-30.824 42.611-17.569 65.569 8.891 15.4 25.024 24.008 41.614 24.008 8.142 0 16.397-2.075 23.955-6.439 22.958-13.255 30.824-42.611 17.569-65.569-8.891-15.4-25.025-24.009-41.614-24.008z" fill="#5faa46"/></g></g><g><g><path d="m352.167 203.833c-11.753 0-22.803-4.577-31.113-12.887-17.155-17.156-17.155-45.07 0-62.226 8.311-8.31 19.36-12.887 31.113-12.887 11.752 0 22.802 4.577 31.112 12.887 17.155 17.156 17.155 45.07 0 62.226-8.31 8.311-19.36 12.887-31.112 12.887z" fill="#f04b37"/></g><g><g><path d="m352.167 119.833c10.684 0 20.729 4.161 28.284 11.716 15.596 15.596 15.596 40.973 0 56.569-7.555 7.555-17.6 11.716-28.284 11.716s-20.729-4.161-28.284-11.716c-15.596-15.596-15.596-40.973 0-56.569 7.554-7.555 17.599-11.716 28.284-11.716m0-8c-12.284 0-24.569 4.686-33.941 14.059-18.745 18.745-18.745 49.137 0 67.882 9.373 9.373 21.657 14.059 33.941 14.059s24.569-4.686 33.941-14.059c18.745-18.745 18.745-49.137 0-67.882-9.373-9.372-21.657-14.059-33.941-14.059z" fill="#e1322d"/></g></g></g><g><g><path d="m323.955 182.229c-7.675 0-15.267-2.041-21.955-5.903-21.012-12.131-28.236-39.094-16.105-60.105 7.838-13.575 22.456-22.008 38.15-22.008 7.675 0 15.267 2.041 21.955 5.903 21.012 12.131 28.236 39.094 16.105 60.105-7.837 13.575-22.456 22.008-38.15 22.008z" fill="#faa019"/></g><g><path d="m324.046 90.212v8c6.972 0 13.872 1.856 19.954 5.367 19.101 11.028 25.669 35.54 14.641 54.641-7.125 12.342-20.416 20.008-34.686 20.008-6.973 0-13.874-1.856-19.955-5.367-19.101-11.028-25.669-35.54-14.641-54.641 7.125-12.341 20.416-20.007 34.686-20.008zm-.001 0c-16.588.001-32.724 8.61-41.614 24.008-13.255 22.958-5.389 52.314 17.569 65.569 7.56 4.365 15.811 6.439 23.955 6.439 16.588 0 32.724-8.61 41.614-24.008 13.255-22.958 5.389-52.314-17.569-65.569-7.56-4.364-15.811-6.439-23.955-6.439z" fill="#804b8f"/></g></g><g><g><path d="m291.229 168.646c-3.834 0-7.676-.509-11.418-1.511-11.353-3.042-20.841-10.323-26.717-20.501-5.877-10.178-7.438-22.036-4.396-33.388 5.147-19.208 22.612-32.624 42.472-32.624 3.834 0 7.676.509 11.418 1.511 11.353 3.042 20.841 10.323 26.717 20.501s7.437 22.036 4.396 33.388c-5.148 19.208-22.612 32.624-42.472 32.624z" fill="#d7e6f0"/></g><g><path d="m291.171 76.622v8h.001c3.483 0 6.975.463 10.38 1.375 21.304 5.709 33.993 27.686 28.284 48.99-4.679 17.463-20.555 29.659-38.607 29.659-3.485 0-6.978-.463-10.383-1.375-21.305-5.709-33.993-27.686-28.284-48.99 4.679-17.462 20.555-29.658 38.608-29.659zm-.002 0c-21.192.001-40.589 14.144-46.334 35.589-6.861 25.606 8.335 51.927 33.941 58.788 4.162 1.115 8.34 1.647 12.453 1.647 21.192 0 40.588-14.144 46.334-35.589 6.861-25.606-8.335-51.927-33.941-58.788-4.161-1.115-8.339-1.647-12.453-1.647z" fill="#5faa46"/></g></g><g><g><circle cx="256" cy="120" fill="#f04b37" r="44"/></g><g><g><path d="m256 80c22.056 0 40 17.944 40 40s-17.944 40-40 40-40-17.944-40-40 17.944-40 40-40m0-8c-26.51 0-48 21.49-48 48s21.49 48 48 48 48-21.49 48-48-21.49-48-48-48z" fill="#e1322d"/></g></g></g><g><g><path d="m220.771 168.646c-19.859 0-37.323-13.416-42.471-32.624-3.041-11.352-1.48-23.21 4.396-33.388s15.364-17.459 26.717-20.501c3.742-1.003 7.584-1.511 11.418-1.511 19.859 0 37.324 13.416 42.472 32.624 3.041 11.352 1.48 23.21-4.396 33.388s-15.364 17.459-26.717 20.501c-3.744 1.002-7.586 1.511-11.419 1.511z" fill="#faa019"/></g><g><path d="m220.832 76.622v8c18.051 0 33.926 12.196 38.605 29.659 5.708 21.304-6.98 43.281-28.284 48.99-3.405.912-6.898 1.375-10.383 1.375-18.052 0-33.928-12.196-38.607-29.659-5.708-21.304 6.98-43.281 28.284-48.99 3.404-.912 6.897-1.375 10.383-1.375zm-.001 0c-4.112 0-8.293.533-12.453 1.647-25.606 6.861-40.802 33.181-33.941 58.788 5.746 21.446 25.14 35.589 46.334 35.589 4.112 0 8.293-.533 12.453-1.647 25.606-6.861 40.802-33.181 33.941-58.788-5.746-21.446-25.14-35.59-46.334-35.589z" fill="#804b8f"/></g></g><g><g><path d="m188.045 182.229c-15.694 0-30.313-8.433-38.15-22.008-12.131-21.011-4.906-47.974 16.105-60.105 6.688-3.862 14.28-5.903 21.955-5.903 15.694 0 30.313 8.433 38.15 22.008 12.131 21.011 4.906 47.974-16.105 60.105-6.688 3.862-14.28 5.903-21.955 5.903z" fill="#d7e6f0"/></g><g><path d="m187.957 90.212v8h.001c14.268 0 27.558 7.667 34.683 20.008 11.028 19.101 4.46 43.613-14.641 54.641-6.082 3.511-12.982 5.367-19.955 5.367-14.27 0-27.561-7.667-34.686-20.008-11.028-19.101-4.46-43.613 14.641-54.641 6.081-3.511 12.981-5.367 19.956-5.367zm-.002 0c-8.143 0-16.397 2.075-23.955 6.439-22.958 13.255-30.824 42.611-17.569 65.569 8.891 15.4 25.024 24.008 41.614 24.008 8.143 0 16.397-2.075 23.955-6.439 22.958-13.255 30.824-42.611 17.569-65.569-8.891-15.399-25.024-24.008-41.614-24.008z" fill="#5faa46"/></g></g><g><g><path d="m159.834 203.833c-11.753 0-22.803-4.577-31.113-12.887-17.155-17.156-17.155-45.07 0-62.226 8.311-8.31 19.36-12.887 31.113-12.887 11.752 0 22.802 4.577 31.112 12.887 17.155 17.156 17.155 45.07 0 62.226-8.31 8.311-19.36 12.887-31.112 12.887z" fill="#f04b37"/></g><g><g><path d="m159.833 119.833c10.684 0 20.729 4.161 28.284 11.716 15.596 15.596 15.596 40.973 0 56.569-7.555 7.555-17.6 11.716-28.284 11.716s-20.729-4.161-28.284-11.716c-15.596-15.596-15.596-40.973 0-56.569 7.555-7.555 17.6-11.716 28.284-11.716m0-8c-12.284 0-24.569 4.686-33.941 14.059-18.745 18.745-18.745 49.137 0 67.882 9.373 9.373 21.657 14.059 33.941 14.059s24.569-4.686 33.941-14.059c18.745-18.745 18.745-49.137 0-67.882-9.372-9.372-21.656-14.059-33.941-14.059z" fill="#e1322d"/></g></g></g><g><g><path d="m138.176 232.008c-7.675 0-15.267-2.041-21.955-5.903-10.179-5.876-17.459-15.365-20.501-26.717s-1.48-23.21 4.396-33.388c7.838-13.575 22.456-22.008 38.15-22.008 7.675 0 15.267 2.041 21.955 5.903 10.179 5.876 17.459 15.365 20.501 26.717s1.48 23.21-4.396 33.388c-7.838 13.575-22.456 22.008-38.15 22.008z" fill="#faa019"/></g><g><path d="m138.267 139.992v8h.001c6.972 0 13.872 1.856 19.953 5.367 9.253 5.342 15.872 13.968 18.637 24.288s1.346 21.1-3.996 30.353c-7.125 12.341-20.416 20.008-34.686 20.008-6.973 0-13.874-1.856-19.955-5.367-9.253-5.342-15.872-13.968-18.637-24.288s-1.346-21.1 3.996-30.353c7.125-12.341 20.416-20.007 34.686-20.008zm-.002 0c-16.588.001-32.724 8.61-41.614 24.008-13.255 22.958-5.389 52.314 17.569 65.569 7.56 4.365 15.811 6.439 23.955 6.439 16.588 0 32.724-8.61 41.614-24.008 13.255-22.958 5.389-52.314-17.569-65.569-7.559-4.365-15.811-6.439-23.955-6.439z" fill="#804b8f"/></g></g><g><g><path d="m124.664 264.813c-3.834 0-7.676-.508-11.418-1.511-11.353-3.042-20.841-10.322-26.717-20.501-5.877-10.178-7.438-22.036-4.396-33.388 5.147-19.208 22.612-32.624 42.472-32.624 3.834 0 7.676.508 11.418 1.511 11.353 3.042 20.841 10.322 26.717 20.5s7.437 22.036 4.396 33.388c-5.148 19.209-22.613 32.625-42.472 32.625z" fill="#d7e6f0"/></g><g><path d="m124.605 172.789v8h.001c3.483 0 6.976.463 10.381 1.375 10.32 2.765 18.946 9.384 24.288 18.637s6.761 20.032 3.996 30.353c-4.679 17.463-20.555 29.659-38.607 29.659-3.485 0-6.978-.462-10.383-1.375-21.304-5.708-33.993-27.685-28.284-48.99 4.679-17.462 20.555-29.658 38.607-29.659zm-.001 0c-21.192.001-40.588 14.144-46.334 35.588-6.861 25.606 8.335 51.927 33.941 58.788 4.162 1.115 8.341 1.647 12.454 1.647 21.192 0 40.588-14.144 46.334-35.589 6.861-25.606-8.335-51.927-33.941-58.788-4.163-1.114-8.341-1.646-12.454-1.646z" fill="#5faa46"/></g></g><g><g><circle cx="120" cy="256" fill="#f04b37" r="44"/></g><g><g><path d="m120 216c22.056 0 40 17.944 40 40s-17.944 40-40 40-40-17.944-40-40 17.944-40 40-40m0-8c-26.51 0-48 21.49-48 48s21.49 48 48 48 48-21.49 48-48-21.49-48-48-48z" fill="#e1322d"/></g></g></g><g><g><path d="m124.604 335.211c-19.859 0-37.324-13.415-42.472-32.624-3.041-11.352-1.48-23.21 4.396-33.388s15.364-17.459 26.717-20.501c3.742-1.003 7.584-1.511 11.418-1.511 19.859 0 37.324 13.415 42.471 32.624 3.041 11.353 1.48 23.21-4.396 33.388s-15.364 17.459-26.717 20.5c-3.741 1.004-7.583 1.512-11.417 1.512z" fill="#faa019"/></g><g><path d="m124.667 243.188v8c18.051 0 33.925 12.196 38.605 29.659 2.765 10.32 1.346 21.1-3.996 30.353s-13.968 15.872-24.288 18.637c-3.405.912-6.898 1.375-10.383 1.375-18.052 0-33.927-12.196-38.607-29.659-5.708-21.305 6.98-43.281 28.284-48.99 3.404-.912 6.898-1.375 10.383-1.375zm-.003 0c-4.112 0-8.293.533-12.454 1.647-25.606 6.861-40.802 33.181-33.941 58.788 5.747 21.446 25.14 35.588 46.334 35.588 4.112 0 8.293-.533 12.454-1.647 25.606-6.861 40.802-33.181 33.941-58.788-5.746-21.446-25.14-35.589-46.334-35.588z" fill="#804b8f"/></g></g><g><g><path d="m138.266 368.008c-15.694 0-30.313-8.433-38.15-22.008-5.876-10.178-7.438-22.036-4.396-33.388 3.042-11.353 10.322-20.841 20.501-26.717 6.688-3.862 14.28-5.903 21.955-5.903 15.694 0 30.313 8.433 38.15 22.008 5.876 10.178 7.438 22.036 4.396 33.388-3.042 11.353-10.322 20.841-20.501 26.717-6.689 3.862-14.281 5.903-21.955 5.903z" fill="#d7e6f0"/></g><g><path d="m138.177 275.992v8h.001c14.268 0 27.558 7.667 34.684 20.008 5.342 9.253 6.761 20.032 3.996 30.353s-9.384 18.946-18.637 24.288c-6.081 3.511-12.982 5.367-19.955 5.367-14.27 0-27.561-7.667-34.686-20.008-5.342-9.253-6.761-20.032-3.996-30.353s9.384-18.946 18.637-24.288c6.081-3.511 12.981-5.366 19.956-5.367zm-.001 0c-8.142 0-16.397 2.075-23.955 6.439-22.959 13.255-30.825 42.611-17.57 65.569 8.891 15.4 25.024 24.008 41.614 24.008 8.143 0 16.397-2.075 23.955-6.439 22.958-13.255 30.824-42.611 17.569-65.569-8.89-15.4-25.024-24.009-41.613-24.008z" fill="#5faa46"/></g></g><g><g><path d="m159.834 396.167c-11.753 0-22.803-4.577-31.113-12.887-17.155-17.156-17.155-45.07 0-62.226 8.311-8.31 19.36-12.887 31.113-12.887 11.752 0 22.802 4.577 31.112 12.887 17.155 17.156 17.155 45.07 0 62.226-8.31 8.31-19.36 12.887-31.112 12.887z" fill="#f04b37"/></g><g><g><path d="m159.833 312.167c10.684 0 20.729 4.161 28.284 11.716 15.596 15.596 15.596 40.973 0 56.569-7.555 7.555-17.6 11.716-28.284 11.716s-20.729-4.161-28.284-11.716c-15.596-15.596-15.596-40.973 0-56.569 7.555-7.556 17.6-11.716 28.284-11.716m0-8c-12.284 0-24.569 4.686-33.941 14.059-18.745 18.745-18.745 49.137 0 67.882 9.373 9.373 21.657 14.059 33.941 14.059s24.569-4.686 33.941-14.059c18.745-18.745 18.745-49.137 0-67.882-9.372-9.373-21.656-14.059-33.941-14.059z" fill="#e1322d"/></g></g></g><g><g><path d="m187.955 417.787c-7.675 0-15.267-2.041-21.955-5.903-21.012-12.131-28.236-39.094-16.105-60.105 7.838-13.575 22.456-22.008 38.15-22.008 7.675 0 15.267 2.041 21.955 5.903 21.012 12.131 28.236 39.094 16.105 60.105-7.837 13.575-22.456 22.008-38.15 22.008z" fill="#faa019"/></g><g><path d="m188.046 325.771v8h.001c6.972 0 13.872 1.856 19.953 5.367 19.101 11.028 25.669 35.54 14.641 54.641-7.125 12.341-20.416 20.008-34.686 20.008-6.973 0-13.874-1.856-19.955-5.367-19.101-11.028-25.669-35.54-14.641-54.641 7.125-12.341 20.416-20.008 34.686-20.008zm-.001 0c-16.588 0-32.724 8.61-41.614 24.008-13.255 22.958-5.389 52.314 17.569 65.569 7.56 4.365 15.811 6.439 23.955 6.439 16.588 0 32.724-8.61 41.614-24.008 13.255-22.958 5.389-52.314-17.569-65.569-7.56-4.365-15.811-6.439-23.955-6.439z" fill="#804b8f"/></g></g><g><g><path d="m220.83 431.378c-3.834 0-7.676-.509-11.418-1.511-11.353-3.042-20.841-10.323-26.717-20.501s-7.437-22.036-4.396-33.388c5.147-19.208 22.611-32.624 42.471-32.624 3.834 0 7.676.509 11.418 1.511 11.353 3.042 20.841 10.323 26.717 20.501 5.877 10.178 7.438 22.036 4.396 33.388-5.147 19.208-22.612 32.624-42.471 32.624z" fill="#d7e6f0"/></g><g><path d="m220.772 339.354v8h.001c3.483 0 6.975.463 10.38 1.375 21.305 5.709 33.993 27.686 28.284 48.99-4.679 17.463-20.555 29.659-38.607 29.659-3.485 0-6.978-.463-10.383-1.375-21.304-5.709-33.993-27.686-28.284-48.99 4.679-17.462 20.554-29.658 38.607-29.659zm-.001 0c-21.192.001-40.588 14.144-46.334 35.589-6.861 25.606 8.335 51.927 33.941 58.788 4.162 1.115 8.34 1.647 12.453 1.647 21.192 0 40.589-14.144 46.334-35.589 6.861-25.606-8.335-51.927-33.941-58.788-4.162-1.115-8.34-1.647-12.453-1.647z" fill="#5faa46"/></g></g><g><g><circle cx="256" cy="392" fill="#f04b37" r="44"/></g><g><g><path d="m256 352c22.056 0 40 17.944 40 40s-17.944 40-40 40-40-17.944-40-40 17.944-40 40-40m0-8c-26.51 0-48 21.49-48 48s21.49 48 48 48 48-21.49 48-48-21.49-48-48-48z" fill="#e1322d"/></g></g></g><g><g><path d="m291.17 431.378c-19.859 0-37.324-13.416-42.472-32.624-3.041-11.352-1.48-23.21 4.396-33.388s15.364-17.459 26.717-20.501c3.742-1.003 7.584-1.511 11.418-1.511 19.859 0 37.323 13.416 42.471 32.624 3.041 11.352 1.48 23.21-4.396 33.388s-15.364 17.459-26.717 20.501c-3.741 1.002-7.583 1.511-11.417 1.511z" fill="#faa019"/></g><g><path d="m291.232 339.354v8c18.051 0 33.926 12.196 38.605 29.659 5.708 21.304-6.98 43.281-28.284 48.99-3.405.912-6.898 1.375-10.383 1.375-18.052 0-33.928-12.196-38.607-29.659-5.708-21.304 6.98-43.281 28.284-48.99 3.404-.912 6.897-1.375 10.383-1.375zm-.003 0c-4.112 0-8.293.533-12.453 1.647-25.606 6.861-40.802 33.181-33.941 58.788 5.746 21.446 25.14 35.589 46.334 35.589 4.112 0 8.293-.533 12.453-1.647 25.606-6.861 40.802-33.181 33.941-58.788-5.746-21.446-25.139-35.59-46.334-35.589z" fill="#804b8f"/></g></g><g><g><path d="m324.045 417.787c-15.694 0-30.313-8.433-38.15-22.008-12.131-21.011-4.906-47.974 16.105-60.105 6.688-3.862 14.28-5.903 21.955-5.903 15.694 0 30.313 8.433 38.15 22.008 12.131 21.011 4.906 47.974-16.105 60.105-6.688 3.862-14.28 5.903-21.955 5.903z" fill="#d7e6f0"/></g><g><path d="m323.957 325.771v8h.001c14.268 0 27.558 7.667 34.683 20.008 11.028 19.101 4.46 43.613-14.641 54.641-6.082 3.511-12.982 5.367-19.955 5.367-14.27 0-27.561-7.667-34.686-20.008-11.028-19.101-4.46-43.613 14.641-54.641 6.081-3.511 12.981-5.367 19.956-5.367zm-.002 0c-8.143 0-16.397 2.075-23.955 6.439-22.958 13.255-30.824 42.611-17.569 65.569 8.891 15.4 25.024 24.008 41.614 24.008 8.143 0 16.397-2.075 23.955-6.439 22.958-13.255 30.824-42.611 17.569-65.569-8.891-15.399-25.024-24.008-41.614-24.008z" fill="#5faa46"/></g></g><g><g><path d="m352.167 396.167c-11.753 0-22.803-4.577-31.113-12.887-17.155-17.156-17.155-45.07 0-62.226 8.311-8.31 19.36-12.887 31.113-12.887 11.752 0 22.802 4.577 31.112 12.887 17.155 17.156 17.155 45.07 0 62.226-8.31 8.31-19.36 12.887-31.112 12.887z" fill="#f04b37"/></g><g><g><path d="m352.167 312.167c10.684 0 20.729 4.161 28.284 11.716 15.596 15.596 15.596 40.973 0 56.569-7.555 7.555-17.6 11.716-28.284 11.716s-20.729-4.161-28.284-11.716c-15.596-15.596-15.596-40.973 0-56.569 7.554-7.556 17.599-11.716 28.284-11.716m0-8c-12.284 0-24.569 4.686-33.941 14.059-18.745 18.745-18.745 49.137 0 67.882 9.373 9.373 21.657 14.059 33.941 14.059s24.569-4.686 33.941-14.059c18.745-18.745 18.745-49.137 0-67.882-9.373-9.373-21.657-14.059-33.941-14.059z" fill="#e1322d"/></g></g></g><g><g><path d="m353.668 284.888c-7.403 3.81-13.711 9.693-17.994 17.112-5.876 10.178-7.438 22.036-4.396 33.388 3.042 11.353 10.322 20.841 20.501 26.717 6.688 3.862 14.28 5.903 21.955 5.903 15.694 0 30.313-8.433 38.15-22.008 5.876-10.178 7.438-22.036 4.396-33.388-1.198-4.47-3.053-8.651-5.483-12.436-5.772 2.461-12.125 3.824-18.797 3.824-15.664 0-29.572-7.504-38.332-19.112z" fill="#faa019"/><path d="m406.958 301.621c2.443 3.628 4.292 7.677 5.458 12.026 2.765 10.32 1.346 21.1-3.996 30.353-7.125 12.341-20.416 20.008-34.686 20.008-6.973 0-13.874-1.856-19.955-5.367-9.253-5.342-15.872-13.968-18.637-24.288s-1.346-21.1 3.996-30.353c4.043-7.002 10.071-12.5 17.137-15.946-1.814-2.021-3.458-4.197-4.912-6.505-7.739 4.077-14.457 10.316-19.153 18.45-13.255 22.958-5.389 52.314 17.569 65.569 7.56 4.365 15.811 6.439 23.955 6.439 16.588 0 32.724-8.61 41.614-24.008 9.205-15.944 8.224-34.974-.926-49.554-2.376 1.261-4.871 2.326-7.464 3.176z" fill="#804b8f"/></g><g><path d="m392 304c-20.431 0-37.877-12.767-44.804-30.757-.939 2.1-1.721 4.294-2.331 6.569-3.041 11.352-1.48 23.21 4.396 33.388s15.364 17.459 26.717 20.5c3.742 1.003 7.584 1.511 11.418 1.511 19.859 0 37.324-13.415 42.472-32.624 1.633-6.094 1.938-12.334.962-18.382-8.725 11.994-22.863 19.795-38.83 19.795z" fill="#d7e6f0"/><path d="m433.896 279.42c-1.847 3.297-4.072 6.354-6.616 9.113.289 4.271-.108 8.659-1.277 13.019-4.679 17.463-20.555 29.659-38.607 29.659-3.485 0-6.978-.463-10.383-1.375-10.32-2.765-18.946-9.384-24.288-18.637s-6.761-20.032-3.996-30.353c.229-.857.487-1.7.769-2.531-1.738-3.304-3.103-6.835-4.037-10.538-.001-.001-.002-.002-.003-.003-1.894 3.395-3.404 7.075-4.456 11.001-6.861 25.606 8.335 51.927 33.941 58.788 4.162 1.115 8.341 1.647 12.454 1.647 21.192 0 40.588-14.144 46.334-35.588 2.203-8.22 2.132-16.514.173-24.214-.003.005-.006.009-.008.012z" fill="#5faa46"/></g></g><g><g><g><circle cx="304" cy="256" fill="#d7e6f0" r="44"/></g><g><path d="m304 216c22.056 0 40 17.944 40 40s-17.944 40-40 40-40-17.944-40-40 17.944-40 40-40m0-8c-26.51 0-48 21.49-48 48s21.49 48 48 48 48-21.49 48-48-21.49-48-48-48z" fill="#5faa46"/></g></g><g><g><path d="m279.955 258.439c-7.675 0-15.267-2.041-21.955-5.903-21.011-12.131-28.236-39.094-16.105-60.105 7.838-13.575 22.456-22.008 38.15-22.008 7.675 0 15.267 2.041 21.955 5.903 10.179 5.876 17.459 15.365 20.501 26.717s1.48 23.21-4.396 33.388c-7.837 13.575-22.456 22.008-38.15 22.008z" fill="#faa019"/></g><g><path d="m280.046 166.423v8h.001c6.972 0 13.872 1.856 19.953 5.367 19.101 11.028 25.669 35.54 14.641 54.641-7.125 12.342-20.416 20.008-34.686 20.008-6.973 0-13.874-1.856-19.955-5.367-19.101-11.028-25.669-35.54-14.641-54.641 7.125-12.341 20.416-20.007 34.686-20.008zm-.001 0c-16.588 0-32.724 8.61-41.614 24.008-13.255 22.958-5.389 52.314 17.569 65.569 7.56 4.365 15.811 6.439 23.955 6.439 16.588 0 32.724-8.61 41.614-24.008 13.255-22.958 5.389-52.314-17.569-65.569-7.56-4.365-15.811-6.44-23.955-6.439z" fill="#804b8f"/></g></g><g><g><path d="m232.045 258.439c-15.694 0-30.313-8.433-38.15-22.008-5.876-10.178-7.438-22.036-4.396-33.388s10.322-20.841 20.501-26.717c6.688-3.862 14.28-5.903 21.955-5.903 15.694 0 30.313 8.433 38.15 22.008 12.131 21.011 4.905 47.974-16.105 60.105-6.688 3.862-14.28 5.903-21.955 5.903z" fill="#f04b37"/></g><g><path d="m231.957 166.423v8h.001c14.268 0 27.558 7.667 34.683 20.008 11.028 19.101 4.46 43.613-14.641 54.641-6.082 3.511-12.982 5.367-19.955 5.367-14.27 0-27.561-7.667-34.686-20.008-11.028-19.101-4.46-43.613 14.641-54.641 6.081-3.511 12.981-5.367 19.956-5.367zm-.002 0c-8.143 0-16.397 2.075-23.955 6.439-22.958 13.255-30.824 42.611-17.569 65.569 8.891 15.4 25.024 24.008 41.614 24.008 8.143 0 16.397-2.075 23.955-6.439 22.958-13.255 30.824-42.611 17.569-65.569-8.891-15.4-25.024-24.009-41.614-24.008z" fill="#e1322d"/></g></g><g><g><circle cx="208" cy="256" fill="#d7e6f0" r="44"/></g><g><path d="m208 216c22.056 0 40 17.944 40 40s-17.944 40-40 40-40-17.944-40-40 17.944-40 40-40m0-8c-26.51 0-48 21.49-48 48s21.49 48 48 48 48-21.49 48-48-21.49-48-48-48z" fill="#5faa46"/></g></g><g><g><path d="m256.242 260.85c-.729-.481-1.476-.943-2.242-1.385-6.688-3.862-14.28-5.903-21.955-5.903-15.694 0-30.313 8.433-38.15 22.008-5.876 10.178-7.438 22.036-4.396 33.388s10.322 20.841 20.501 26.717c6.688 3.862 14.28 5.903 21.955 5.903 15.694 0 30.313-8.433 38.15-22.008 4.476-7.753 6.316-16.316 5.802-24.646-10.827-7.829-18.259-20.063-19.665-34.074z" fill="#faa019"/><g><path d="m280.01 297.58c0 8.16-2.07 16.42-6.44 23.99-8.89 15.4-25.03 24.01-41.61 24.01-8.15 0-16.4-2.08-23.96-6.44-22.96-13.26-30.82-42.61-17.57-65.57 8.89-15.4 25.03-24.01 41.61-24.01h.01c8.14 0 16.39 2.08 23.95 6.44 0 3.59.4 7.09 1.14 10.46-1.59-1.29-3.31-2.47-5.14-3.53-6.08-3.51-12.98-5.37-19.95-5.37-14.28 0-27.57 7.67-34.69 20.01-11.03 19.1-4.46 43.61 14.64 54.64 6.08 3.51 12.98 5.37 19.96 5.37 14.26 0 27.56-7.67 34.68-20.01 4.76-8.25 6.24-17.51 4.85-26.26 2.59 2.39 5.45 4.5 8.52 6.27z" fill="#804b8f"/></g></g><g><path d="m322.501 308.957c.824-3.077 1.31-6.191 1.464-9.299-6.078 2.788-12.84 4.342-19.965 4.342-24.974 0-45.492-19.073-47.786-43.447-19.626 12.596-26.1 38.612-14.32 59.017 7.838 13.575 22.456 22.008 38.15 22.008 7.675 0 15.267-2.041 21.955-5.903 10.18-5.877 17.46-15.365 20.502-26.718z" fill="#f04b37"/><path d="m319.808 301.335c-1.195 12.447-8.178 24.16-19.808 30.875-6.082 3.511-12.982 5.367-19.955 5.367-14.27 0-27.561-7.667-34.686-20.008-10.395-18.004-5.156-40.815 11.476-52.611-.548-2.902-.835-5.896-.835-8.958-22.958 13.255-30.824 42.611-17.569 65.569 8.891 15.4 25.024 24.008 41.614 24.008 8.143 0 16.397-2.075 23.955-6.439 15.384-8.882 23.99-24.993 24.007-41.565-2.59 1.499-5.332 2.763-8.199 3.762z" fill="#e1322d"/></g></g></g><g><g><circle cx="297.467" cy="140.006" fill="#d7e6f0" r="4"/></g><g><circle cx="263.295" cy="161.59" fill="#d7e6f0" r="4"/></g><g><circle cx="229.828" cy="112.321" fill="#d7e6f0" r="4"/></g><g><circle cx="176.93" cy="155.29" fill="#d7e6f0" r="4"/></g><g><circle cx="151.417" cy="140.481" fill="#d7e6f0" r="4"/></g><g><circle cx="208.54" cy="116.712" fill="#d7e6f0" r="4"/></g><g><circle cx="153.932" cy="248.893" fill="#d7e6f0" r="4"/></g><g><circle cx="118.667" cy="235.279" fill="#d7e6f0" r="4"/></g><g><circle cx="145.049" cy="181.138" fill="#d7e6f0" r="4"/></g><g><circle cx="281.882" cy="261.304" fill="#d7e6f0" r="4"/></g><g><circle cx="231.458" cy="233.893" fill="#d7e6f0" r="4"/></g><g><circle cx="239.711" cy="193.482" fill="#d7e6f0" r="4"/></g><g><circle cx="329.873" cy="242.111" fill="#d7e6f0" r="4"/></g><g><circle cx="278.124" cy="206.598" fill="#d7e6f0" r="4"/></g><g><circle cx="322.226" cy="186.624" fill="#d7e6f0" r="4"/></g><g><circle cx="169.748" cy="313.332" fill="#d7e6f0" r="4"/></g><g><circle cx="145.522" cy="298.077" fill="#d7e6f0" r="4"/></g><g><circle cx="191.784" cy="240.869" fill="#d7e6f0" r="4"/></g><g><circle cx="248.115" cy="310.555" fill="#d7e6f0" r="4"/></g><g><circle cx="254.89" cy="285.23" fill="#d7e6f0" r="4"/></g><g><circle cx="295.794" cy="290.577" fill="#d7e6f0" r="4"/></g></g><g><g><circle cx="350.26" cy="218.352" fill="#f04b37" r="4"/></g><g><circle cx="316.087" cy="239.936" fill="#f04b37" r="4"/></g><g><circle cx="282.621" cy="190.667" fill="#f04b37" r="4"/></g><g><circle cx="229.722" cy="233.636" fill="#f04b37" r="4"/></g><g><circle cx="204.21" cy="218.826" fill="#f04b37" r="4"/></g><g><circle cx="261.333" cy="195.058" fill="#f04b37" r="4"/></g><g><circle cx="206.725" cy="327.239" fill="#f04b37" r="4"/></g><g><circle cx="171.46" cy="313.625" fill="#f04b37" r="4"/></g><g><circle cx="197.841" cy="259.484" fill="#f04b37" r="4"/></g><g><circle cx="334.675" cy="339.649" fill="#f04b37" r="4"/></g><g><circle cx="284.251" cy="312.239" fill="#f04b37" r="4"/></g><g><circle cx="292.504" cy="271.828" fill="#f04b37" r="4"/></g><g><circle cx="382.666" cy="320.457" fill="#f04b37" r="4"/></g><g><circle cx="330.917" cy="284.944" fill="#f04b37" r="4"/></g><g><circle cx="375.019" cy="264.97" fill="#f04b37" r="4"/></g><g><circle cx="222.541" cy="391.678" fill="#f04b37" r="4"/></g><g><circle cx="198.314" cy="376.423" fill="#f04b37" r="4"/></g><g><circle cx="244.577" cy="319.215" fill="#f04b37" r="4"/></g><g><circle cx="300.908" cy="388.9" fill="#f04b37" r="4"/></g><g><circle cx="307.683" cy="363.576" fill="#f04b37" r="4"/></g><g><circle cx="348.587" cy="368.923" fill="#f04b37" r="4"/></g></g><g><g><circle cx="352.927" cy="132.006" fill="#5faa46" r="4"/></g><g><circle cx="318.754" cy="153.59" fill="#5faa46" r="4"/></g><g><circle cx="285.288" cy="104.321" fill="#5faa46" r="4"/></g><g><circle cx="232.389" cy="147.29" fill="#5faa46" r="4"/></g><g><circle cx="206.876" cy="132.481" fill="#5faa46" r="4"/></g><g><circle cx="263.999" cy="108.712" fill="#5faa46" r="4"/></g><g><circle cx="209.391" cy="240.893" fill="#5faa46" r="4"/></g><g><circle cx="174.126" cy="227.279" fill="#5faa46" r="4"/></g><g><circle cx="200.508" cy="173.138" fill="#5faa46" r="4"/></g><g><circle cx="337.342" cy="253.304" fill="#5faa46" r="4"/></g><g><circle cx="286.918" cy="225.893" fill="#5faa46" r="4"/></g><g><circle cx="295.171" cy="185.482" fill="#5faa46" r="4"/></g><g><circle cx="385.333" cy="234.111" fill="#5faa46" r="4"/></g><g><circle cx="333.584" cy="198.598" fill="#5faa46" r="4"/></g><g><circle cx="377.686" cy="178.624" fill="#5faa46" r="4"/></g><g><circle cx="225.207" cy="305.332" fill="#5faa46" r="4"/></g><g><circle cx="200.981" cy="290.077" fill="#5faa46" r="4"/></g><g><circle cx="247.243" cy="232.869" fill="#5faa46" r="4"/></g><g><circle cx="303.574" cy="302.555" fill="#5faa46" r="4"/></g><g><circle cx="310.35" cy="277.23" fill="#5faa46" r="4"/></g><g><circle cx="351.254" cy="282.577" fill="#5faa46" r="4"/></g></g><g><g><circle cx="296.927" cy="209.339" fill="#5faa46" r="4"/></g><g><circle cx="262.754" cy="230.923" fill="#5faa46" r="4"/></g><g><circle cx="229.288" cy="181.654" fill="#5faa46" r="4"/></g><g><circle cx="176.389" cy="224.624" fill="#5faa46" r="4"/></g><g><circle cx="150.876" cy="209.814" fill="#5faa46" r="4"/></g><g><circle cx="207.999" cy="186.045" fill="#5faa46" r="4"/></g><g><circle cx="153.391" cy="318.226" fill="#5faa46" r="4"/></g><g><circle cx="118.126" cy="304.613" fill="#5faa46" r="4"/></g><g><circle cx="144.508" cy="250.472" fill="#5faa46" r="4"/></g><g><circle cx="281.342" cy="330.637" fill="#5faa46" r="4"/></g><g><circle cx="230.918" cy="303.226" fill="#5faa46" r="4"/></g><g><circle cx="239.171" cy="262.816" fill="#5faa46" r="4"/></g><g><circle cx="329.333" cy="311.444" fill="#5faa46" r="4"/></g><g><circle cx="277.584" cy="275.931" fill="#5faa46" r="4"/></g><g><circle cx="321.686" cy="255.957" fill="#5faa46" r="4"/></g><g><circle cx="169.207" cy="382.666" fill="#5faa46" r="4"/></g><g><circle cx="144.981" cy="367.411" fill="#5faa46" r="4"/></g><g><circle cx="191.243" cy="310.202" fill="#5faa46" r="4"/></g><g><circle cx="247.574" cy="379.888" fill="#5faa46" r="4"/></g><g><circle cx="254.35" cy="354.563" fill="#5faa46" r="4"/></g><g><circle cx="295.254" cy="359.91" fill="#5faa46" r="4"/></g></g><g><circle cx="256" cy="256" fill="#4b8c41" r="16"/></g><g><circle cx="187.175" cy="188.508" fill="#4b8c41" r="16"/></g><g><circle cx="324.825" cy="326.158" fill="#4b8c41" r="16"/></g><g><circle cx="187.175" cy="326.158" fill="#4b8c41" r="16"/></g><g><circle cx="324.825" cy="188.508" fill="#4b8c41" r="16"/></g></g></svg>