<svg id="Layer_1" enable-background="new 0 0 512 512" height="512" viewBox="0 0 512 512" width="512" xmlns="http://www.w3.org/2000/svg"><g><g><g><path d="m352 168c0-17.673-14.327-32-32-32v-24h-256v24c-17.673 0-32 14.327-32 32v40h320z" fill="#5ad7ff"/></g><g><path d="m32 208v208c0 17.673 14.327 32 32 32h256c17.673 0 32-14.327 32-32v-208z" fill="#f04b37"/></g><g><path d="m48 312c-2.047 0-4.095-.781-5.657-2.343-3.125-3.124-3.125-8.189 0-11.313l32-32c3.124-3.125 8.189-3.125 11.313 0 3.125 3.124 3.125 8.189 0 11.313l-32 32c-1.561 1.562-3.609 2.343-5.656 2.343z" fill="#e1322d"/></g><g><path d="m200 240c-2.047 0-4.095-.781-5.657-2.343l-32-32c-3.125-3.124-3.125-8.189 0-11.313 3.124-3.125 8.189-3.125 11.313 0l32 32c3.125 3.124 3.125 8.189 0 11.313-1.561 1.562-3.609 2.343-5.656 2.343z" fill="#f04b37"/></g><g><path d="m112 232c-2.047 0-4.095-.781-5.657-2.343-3.125-3.124-3.125-8.189 0-11.313l32-32c3.124-3.125 8.189-3.125 11.313 0 3.125 3.124 3.125 8.189 0 11.313l-32 32c-1.561 1.562-3.609 2.343-5.656 2.343z" fill="#f04b37"/></g><g><path d="m104 232c-4.418 0-8-3.582-8-8v-24c0-4.418 3.582-8 8-8s8 3.582 8 8v24c0 4.418-3.582 8-8 8z" fill="#f04b37"/></g><g><path d="m56 232c-4.418 0-8-3.582-8-8v-24c0-4.418 3.582-8 8-8s8 3.582 8 8v24c0 4.418-3.582 8-8 8z" fill="#f04b37"/></g></g><g><g><path d="m64 112h256v24h-256z" fill="#23aae6"/></g><g><g><path d="m352 168h-152c-4.418 0-8 3.582-8 8v32h160z" fill="#23aae6"/></g><g><path d="m192 208v208h-160c0 17.673 14.327 32 32 32h256c17.673 0 32-14.327 32-32v-208z" fill="#e1322d"/></g><g><path d="m256 232c-2.047 0-4.095-.781-5.657-2.343l-32-32c-3.125-3.124-3.125-8.189 0-11.313 3.124-3.125 8.189-3.125 11.313 0l32 32c3.125 3.124 3.125 8.189 0 11.313-1.561 1.562-3.609 2.343-5.656 2.343z" fill="#e1322d"/></g><g><path d="m304 240c-2.047 0-4.095-.781-5.657-2.343l-32-32c-3.125-3.124-3.125-8.189 0-11.313 3.124-3.125 8.189-3.125 11.313 0l32 32c3.125 3.124 3.125 8.189 0 11.313-1.561 1.562-3.609 2.343-5.656 2.343z" fill="#e1322d"/></g><g><path d="m200 216c-4.418 0-8-3.582-8-8v-8c0-4.418 3.582-8 8-8s8 3.582 8 8v8c0 4.418-3.582 8-8 8z" fill="#e1322d"/></g></g></g><g><path d="m320 64h-256c-4.418 0-8 3.582-8 8v32c0 4.418 3.582 8 8 8h256c4.418 0 8-3.582 8-8v-32c0-4.418-3.582-8-8-8z" fill="#ffd205"/></g><g><path d="m192 112h128c4.418 0 8-3.582 8-8v-32h-128c-4.418 0-8 3.582-8 8z" fill="#faa019"/></g><g><g><circle cx="384" cy="256" fill="#d7e6f0" r="112"/></g><g><path d="m455.426 260.287c-2.456-1.418-5.736-2.886-9.549-4.287 3.813-1.401 7.093-2.869 9.549-4.287 15.305-8.837 20.549-28.407 11.713-43.713s-28.407-20.549-43.713-11.713c-2.456 1.418-5.367 3.525-8.487 6.126.692-4.002 1.061-7.577 1.061-10.413 0-17.673-14.327-32-32-32s-32 14.327-32 32c0 2.836.369 6.411 1.062 10.413-3.12-2.601-6.031-4.708-8.487-6.126-15.305-8.837-34.876-3.593-43.713 11.713s-3.593 34.876 11.713 43.713c2.456 1.418 5.736 2.886 9.549 4.287-3.813 1.401-7.093 2.869-9.549 4.287-15.305 8.837-20.549 28.407-11.713 43.713s28.407 20.549 43.713 11.713c2.456-1.418 5.367-3.525 8.487-6.126-.693 4.002-1.062 7.577-1.062 10.413 0 17.673 14.327 32 32 32s32-14.327 32-32c0-2.836-.369-6.411-1.062-10.413 3.12 2.601 6.031 4.708 8.487 6.126 15.305 8.837 34.876 3.593 43.713-11.713s3.593-34.876-11.712-43.713z" fill="#9b5faa"/><path d="m431.617 258.858c-1.638-.945-3.824-1.924-6.366-2.858 2.542-.934 4.728-1.913 6.366-2.858 10.204-5.891 13.7-18.938 7.809-29.142s-18.938-13.7-29.142-7.809c-1.638.945-3.578 2.35-5.658 4.084.462-2.668.708-5.051.708-6.942 0-11.782-9.551-21.333-21.333-21.333s-21.333 9.551-21.333 21.333c0 1.891.246 4.274.708 6.942-2.08-1.734-4.021-3.139-5.658-4.084-10.204-5.891-23.251-2.395-29.142 7.809s-2.395 23.251 7.809 29.142c1.638.945 3.824 1.924 6.366 2.858-2.542.934-4.728 1.913-6.366 2.858-10.204 5.891-13.7 18.938-7.809 29.142s18.938 13.7 29.142 7.809c1.638-.945 3.578-2.35 5.658-4.084-.462 2.668-.708 5.051-.708 6.942 0 11.782 9.551 21.333 21.333 21.333s21.333-9.551 21.333-21.333c0-1.891-.246-4.274-.708-6.942 2.08 1.734 4.021 3.139 5.658 4.084 10.204 5.891 23.251 2.395 29.142-7.809s2.395-23.251-7.809-29.142z" fill="#643773"/><path d="m442.89 222c-1.104-1.913-3.549-2.569-5.464-1.464l-53.426 30.845-53.426-30.845c-1.913-1.105-4.36-.449-5.464 1.464-1.105 1.913-.449 4.36 1.464 5.464l53.426 30.845v61.691c0 2.209 1.791 4 4 4s4-1.791 4-4v-61.691l53.426-30.845c1.913-1.104 2.569-3.551 1.464-5.464z" fill="#e1322d"/><path d="m407.809 257.429c-3.886-2.244-13.956-4.858-19.836-3.722 3.924-4.525 6.695-14.553 6.695-19.04 0-5.891-4.776-10.667-10.667-10.667s-10.667 4.776-10.667 10.667c0 4.487 2.771 14.515 6.695 19.04-5.881-1.136-15.95 1.479-19.836 3.722-5.102 2.945-6.85 9.469-3.904 14.571s9.469 6.85 14.571 3.904c3.886-2.244 11.185-9.657 13.142-15.318 1.957 5.661 9.256 13.074 13.142 15.318 5.102 2.946 11.625 1.198 14.571-3.904 2.943-5.102 1.195-11.625-3.906-14.571z" fill="#ffd205"/></g></g><g><path d="m80 168c-8.837 0-16 7.163-16 16v24h32v-24c0-8.837-7.163-16-16-16z" fill="#a5ffff"/></g><g><path d="m64 208h32v208h-32z" fill="#f5826e"/></g><g><path d="m224 352c-2.047 0-4.095-.781-5.657-2.343-3.125-3.124-3.125-8.189 0-11.313l32-32c3.124-3.125 8.189-3.125 11.313 0 3.125 3.124 3.125 8.189 0 11.313l-32 32c-1.561 1.562-3.609 2.343-5.656 2.343z" fill="#c81e14"/></g><g><path d="m176 280c-2.047 0-4.095-.781-5.657-2.343l-32-32c-3.125-3.124-3.125-8.189 0-11.313 3.124-3.125 8.189-3.125 11.313 0l32 32c3.125 3.124 3.125 8.189 0 11.313-1.561 1.562-3.609 2.343-5.656 2.343z" fill="#e1322d"/></g><g><path d="m160 408c-2.047 0-4.095-.781-5.657-2.343l-32-32c-3.125-3.124-3.125-8.189 0-11.313 3.124-3.125 8.189-3.125 11.313 0l32 32c3.125 3.124 3.125 8.189 0 11.313-1.561 1.562-3.609 2.343-5.656 2.343z" fill="#e1322d"/></g><g><path d="m112 344c-2.047 0-4.095-.781-5.657-2.343-3.125-3.124-3.125-8.189 0-11.313l32-32c3.124-3.125 8.189-3.125 11.313 0 3.125 3.124 3.125 8.189 0 11.313l-32 32c-1.561 1.562-3.609 2.343-5.656 2.343z" fill="#e1322d"/></g><g><path d="m272 392c-2.047 0-4.095-.781-5.657-2.343-3.125-3.124-3.125-8.189 0-11.313l32-32c3.124-3.125 8.189-3.125 11.313 0 3.125 3.124 3.125 8.189 0 11.313l-32 32c-1.561 1.562-3.609 2.343-5.656 2.343z" fill="#c81e14"/></g><g><path d="m240 424c-2.047 0-4.095-.781-5.657-2.343l-32-32c-3.125-3.124-3.125-8.189 0-11.313 3.124-3.125 8.189-3.125 11.313 0l32 32c3.125 3.124 3.125 8.189 0 11.313-1.561 1.562-3.609 2.343-5.656 2.343z" fill="#c81e14"/></g><g><path d="m224 264c-2.047 0-4.095-.781-5.657-2.343-3.125-3.124-3.125-8.189 0-11.313l32-32c3.124-3.125 8.189-3.125 11.313 0 3.125 3.124 3.125 8.189 0 11.313l-32 32c-1.561 1.562-3.609 2.343-5.656 2.343z" fill="#c81e14"/></g></g></svg>