<svg id="Layer_1" enable-background="new 0 0 512 512" height="512" viewBox="0 0 512 512" width="512" xmlns="http://www.w3.org/2000/svg"><g><g><path d="m112 143.889c-2.047 0-4.095-.781-5.657-2.343-3.125-3.124-3.125-8.189 0-11.313l32-32c3.124-3.124 8.189-3.124 11.313 0 3.125 3.124 3.125 8.189 0 11.313l-32 32c-1.561 1.562-3.609 2.343-5.656 2.343z" fill="#e1322d"/></g><g><circle cx="144" cy="96" fill="#e1322d" r="16"/></g><g><path d="m272 48h-160c-8.837 0-16-7.163-16-16 0-8.837 7.163-16 16-16h160c8.837 0 16 7.163 16 16 0 8.837-7.163 16-16 16z" fill="#5faa46"/></g><g><path d="m255.626 143.362c-10.039-10.695-15.626-24.804-15.626-39.473 0-15.296 6.076-29.965 16.892-40.781l15.108-15.108h-160l15.108 15.108c10.816 10.816 16.892 25.485 16.892 40.781 0 14.668-5.587 28.777-15.626 39.473-30.797 32.81-96.374 116.329-96.374 232.638 0 41.051 15.465 78.485 40.881 106.808 7.56 8.424 18.379 13.192 29.698 13.192h178.842c11.319 0 22.138-4.768 29.698-13.192 25.416-28.323 40.881-65.757 40.881-106.808 0-116.309-65.577-199.828-96.374-232.638z" fill="#4b8c41"/></g><g><path d="m32 376c0 .138 0 .276.001.414.055 21.932 18.08 39.586 40.012 39.586h79.559c22.328 0 40.428-18.1 40.428-40.428v-295.572c0-8.837-7.163-16-16-16h-48.043c10.275 10.725 16.043 25.005 16.043 39.889 0 14.668-5.587 28.777-15.626 39.473-30.797 32.81-96.374 116.329-96.374 232.638z" fill="#5faa46"/></g><g><path d="m56 384c-4.418 0-8-3.582-8-8 0-111.585 64.366-192.206 92.04-221.688 3.025-3.221 8.088-3.381 11.308-.358 3.222 3.024 3.382 8.087.358 11.308-26.371 28.094-87.706 104.868-87.706 210.738 0 4.418-3.582 8-8 8z" fill="#91c83c"/></g><g><path d="m240 112h-96c-4.418 0-8-3.582-8-8 0-4.418 3.582-8 8-8h96c4.418 0 8 3.582 8 8 0 4.418-3.582 8-8 8z" fill="#e1322d"/></g><g><path d="m192 112h-48c-4.418 0-8-3.582-8-8 0-4.418 3.582-8 8-8h48c4.418 0 8 3.582 8 8 0 4.418-3.582 8-8 8z" fill="#f04b37"/></g><g><path d="m304 496h96c26.51 0 48-21.49 48-48v-160c0-8.837-7.163-16-16-16h-160c-8.837 0-16 7.163-16 16v160c0 26.51 21.49 48 48 48z" fill="#faa019"/></g><g><path d="m352 288v128c0 17.673-14.327 32-32 32h-64c0 26.51 21.49 48 48 48h96c26.51 0 48-21.49 48-48v-160z" fill="#f06423"/></g><g><path d="m288 288c-4.418 0-8 3.582-8 8v152h16v-152c0-4.418-3.582-8-8-8z" fill="#ffd205"/></g></g></svg>