<svg id="Layer_1" enable-background="new 0 0 512 512" height="512" viewBox="0 0 512 512" width="512" xmlns="http://www.w3.org/2000/svg"><g><g><circle cx="256" cy="256" fill="#d7e6f0" r="240"/></g><g><circle cx="264" cy="264" fill="#a5c3dc" r="184"/></g><g><circle cx="256" cy="256" fill="#faa019" r="176"/></g><g><path d="m88 264c-4.418 0-8-3.582-8-8 0-97.047 78.953-176 176-176 4.418 0 8 3.582 8 8s-3.582 8-8 8c-88.225 0-160 71.776-160 160 0 4.418-3.582 8-8 8z" fill="#ffd205"/></g><g><path d="m397.98 247.588-158.392 158.392c-6.248 6.248-16.379 6.248-22.627 0l-90.51-90.51c-6.248-6.248-6.248-16.379 0-22.627l158.392-158.392c6.248-6.248 16.379-6.248 22.627 0l90.51 90.51c6.249 6.248 6.249 16.379 0 22.627z" fill="#f06423"/></g><g><g><path d="m386.108 235.716-158.392 158.392c-6.248 6.248-16.379 6.248-22.627 0l-90.51-90.51c-6.248-6.248-6.248-16.379 0-22.627l158.391-158.392c6.248-6.248 16.379-6.248 22.627 0l90.51 90.51c6.249 6.248 6.249 16.378.001 22.627z" fill="#4b8c41"/></g><g><path d="m272.97 122.579-158.391 158.392c-6.248 6.248-6.248 16.379 0 22.627l45.255 45.255c6.248 6.248 16.379 6.248 22.627 0l22.947-22.947c24.817-24.817 65.053-24.817 89.87 0 6.092 6.092 16.015 6.652 22.387.854 6.803-6.191 6.99-16.732.56-23.162l-.32-.32c-24.817-24.817-24.817-65.053 0-89.87l22.947-22.947c6.248-6.248 6.248-16.379 0-22.627l-45.255-45.255c-6.247-6.249-16.378-6.249-22.627 0z" fill="#5faa46"/></g><g><path d="m272.971 122.579-158.392 158.392c-6.248 6.248-6.248 16.379 0 22.627l11.542 11.542c-6.248-6.248-6.248-16.379 0-22.627l158.392-158.392c6.248-6.248 16.379-6.248 22.627 0l-11.542-11.542c-6.248-6.249-16.379-6.249-22.627 0z" fill="#91c83c"/></g><g><g><path d="m199.432 388.451-11.314-11.313 43.882-43.883c6.044-6.044 14.079-9.373 22.627-9.373h12.687v16h-12.687c-4.273 0-8.291 1.664-11.313 4.686z" fill="#46783c"/></g><g><circle cx="267.314" cy="331.882" fill="#46783c" r="8"/></g></g><g><g><path d="m154.177 343.196-11.314-11.313 60.853-60.853c6.045-6.044 14.08-9.373 22.628-9.373h12.687v16h-12.687c-4.273 0-8.292 1.665-11.313 4.687z" fill="#4b8c41"/></g><g><circle cx="239.029" cy="269.657" fill="#4b8c41" r="8"/></g></g><g><g><path d="m125.893 314.912-11.314-11.313 60.853-60.853c6.045-6.044 14.081-9.373 22.628-9.373h12.687v16h-12.687c-4.273 0-8.292 1.665-11.314 4.687z" fill="#4b8c41"/></g><g><circle cx="210.745" cy="241.373" fill="#4b8c41" r="8"/></g></g><g><g><path d="m331.882 275.314h-16v-12.687c0-8.546 3.328-16.582 9.372-22.627l43.883-43.882 11.314 11.313-43.883 43.882c-3.022 3.022-4.687 7.041-4.687 11.314v12.687z" fill="#46783c"/></g><g><circle cx="323.882" cy="275.314" fill="#46783c" r="8"/></g></g><g><g><path d="m269.657 247.029h-16v-12.686c0-8.548 3.328-16.583 9.372-22.627l60.853-60.853 11.314 11.313-60.853 60.853c-3.022 3.022-4.687 7.04-4.687 11.314v12.686z" fill="#4b8c41"/></g><g><circle cx="261.657" cy="247.03" fill="#4b8c41" r="8"/></g></g><g><g><path d="m241.372 218.745h-16v-12.686c0-8.547 3.329-16.583 9.373-22.627l60.853-60.853 11.314 11.313-60.853 60.853c-3.022 3.022-4.688 7.041-4.688 11.314v12.686z" fill="#4b8c41"/></g><g><circle cx="233.373" cy="218.745" fill="#4b8c41" r="8"/></g></g></g></g></svg>