<svg id="Layer_1" enable-background="new 0 0 512 512" height="512" viewBox="0 0 512 512" width="512" xmlns="http://www.w3.org/2000/svg"><g><g><circle cx="256" cy="256" fill="#d7e6f0" r="240"/></g><g><g><circle cx="256" cy="256" fill="#a5c3dc" r="192"/></g></g><g><path d="m448 368h-384c-8.837 0-16-7.163-16-16v-208c0-8.837 7.163-16 16-16h384c8.837 0 16 7.163 16 16v208c0 8.837-7.163 16-16 16z" fill="#4b8c41"/></g><g><path d="m80 128h16v240h-16z" fill="#69a041"/></g><g><path d="m128 128h16v240h-16z" fill="#69a041"/></g><g><path d="m176 128h16v240h-16z" fill="#69a041"/></g><g><path d="m224 128h16v240h-16z" fill="#69a041"/></g><g><path d="m272 128h16v240h-16z" fill="#69a041"/></g><g><path d="m320 128h16v240h-16z" fill="#69a041"/></g><g><path d="m368 128h16v240h-16z" fill="#69a041"/></g><g><path d="m416 128h16v240h-16z" fill="#69a041"/></g><g><g><g><g><path d="m115.719 128h-23.438c-2.675 0-5.173 1.337-6.656 3.562l-10.667 16c-1.791 2.687-1.791 6.188 0 8.875l10.667 16c1.484 2.226 3.982 3.562 6.656 3.562h23.437c2.675 0 5.173-1.337 6.656-3.562l10.667-16c1.791-2.687 1.791-6.188 0-8.875l-10.667-16c-1.483-2.225-3.981-3.562-6.655-3.562z" fill="#a55023"/></g><g><path d="m115.719 176h-23.438c-4.418 0-8-3.582-8-8s3.582-8 8-8h19.156l8.292-12.438c2.451-3.676 7.418-4.671 11.094-2.219 3.676 2.451 4.67 7.417 2.219 11.094l-10.667 16c-1.483 2.226-3.981 3.563-6.656 3.563z" fill="#8c3c14"/></g><g><path d="m104 128h-11.718c-2.675 0-5.173 1.337-6.657 3.563l-10.667 16c-.896 1.344-1.344 2.891-1.344 4.438h14.386c8.837 0 16-7.163 16-16z" fill="#d26e28"/></g></g><g><g><path d="m115.719 176h-23.438c-2.675 0-5.173 1.337-6.656 3.562l-10.667 16c-1.791 2.687-1.791 6.188 0 8.875l10.667 16c1.484 2.226 3.982 3.562 6.656 3.562h23.437c2.675 0 5.173-1.337 6.656-3.562l10.667-16c1.791-2.687 1.791-6.188 0-8.875l-10.667-16c-1.483-2.225-3.981-3.562-6.655-3.562z" fill="#a55023"/></g><g><path d="m115.719 224h-23.438c-4.418 0-8-3.582-8-8s3.582-8 8-8h19.156l8.292-12.438c2.451-3.676 7.418-4.671 11.094-2.219 3.676 2.451 4.67 7.417 2.219 11.094l-10.667 16c-1.483 2.226-3.981 3.563-6.656 3.563z" fill="#8c3c14"/></g><g><path d="m104 176h-11.718c-2.675 0-5.173 1.337-6.657 3.563l-10.667 16c-.896 1.344-1.344 2.891-1.344 4.438h14.386c8.837 0 16-7.163 16-16z" fill="#d26e28"/></g></g><g><g><path d="m115.719 224h-23.438c-2.675 0-5.173 1.337-6.656 3.562l-10.667 16c-1.791 2.687-1.791 6.188 0 8.875l10.667 16c1.484 2.226 3.982 3.562 6.656 3.562h23.437c2.675 0 5.173-1.337 6.656-3.562l10.667-16c1.791-2.687 1.791-6.188 0-8.875l-10.667-16c-1.483-2.225-3.981-3.562-6.655-3.562z" fill="#a55023"/></g><g><path d="m115.719 272h-23.438c-4.418 0-8-3.582-8-8s3.582-8 8-8h19.156l8.292-12.438c2.451-3.676 7.418-4.67 11.094-2.219s4.67 7.417 2.219 11.094l-10.667 16c-1.483 2.226-3.981 3.563-6.656 3.563z" fill="#8c3c14"/></g><g><path d="m104 224h-11.718c-2.675 0-5.173 1.337-6.657 3.563l-10.667 16c-.896 1.344-1.344 2.891-1.344 4.438h14.386c8.837 0 16-7.163 16-16z" fill="#d26e28"/></g></g><g><g><path d="m115.719 272h-23.438c-2.675 0-5.173 1.337-6.656 3.562l-10.667 16c-1.791 2.687-1.791 6.188 0 8.875l10.667 16c1.484 2.226 3.982 3.562 6.656 3.562h23.437c2.675 0 5.173-1.337 6.656-3.562l10.667-16c1.791-2.687 1.791-6.188 0-8.875l-10.667-16c-1.483-2.225-3.981-3.562-6.655-3.562z" fill="#a55023"/></g><g><path d="m115.719 320h-23.438c-4.418 0-8-3.582-8-8s3.582-8 8-8h19.156l8.292-12.438c2.451-3.677 7.418-4.67 11.094-2.219s4.67 7.417 2.219 11.094l-10.667 16c-1.483 2.226-3.981 3.563-6.656 3.563z" fill="#8c3c14"/></g><g><path d="m104 272h-11.718c-2.675 0-5.173 1.337-6.657 3.563l-10.667 16c-.896 1.344-1.344 2.891-1.344 4.438h14.386c8.837 0 16-7.163 16-16z" fill="#d26e28"/></g></g><g><g><path d="m115.719 320h-23.438c-2.675 0-5.173 1.337-6.656 3.562l-10.667 16c-1.791 2.687-1.791 6.188 0 8.875l10.667 16c1.484 2.226 3.982 3.562 6.656 3.562h23.437c2.675 0 5.173-1.337 6.656-3.562l10.667-16c1.791-2.687 1.791-6.188 0-8.875l-10.667-16c-1.483-2.225-3.981-3.562-6.655-3.562z" fill="#a55023"/></g><g><path d="m115.719 368h-23.438c-4.418 0-8-3.582-8-8s3.582-8 8-8h19.156l8.292-12.438c2.451-3.677 7.418-4.67 11.094-2.219s4.67 7.417 2.219 11.094l-10.667 16c-1.483 2.226-3.981 3.563-6.656 3.563z" fill="#8c3c14"/></g><g><path d="m104 320h-11.718c-2.675 0-5.173 1.337-6.657 3.563l-10.667 16c-.896 1.344-1.344 2.891-1.344 4.438h14.386c8.837 0 16-7.163 16-16z" fill="#d26e28"/></g></g><g><path d="m108 496h-8c-2.209 0-4-1.791-4-4v-124h16v124c0 2.209-1.791 4-4 4z" fill="#f0915a"/></g><g><path d="m100 496c-2.209 0-4-1.791-4-4v-116h8v116c0 2.209-1.791 4-4 4z" fill="#fab991"/></g></g><g><g><g><path d="m179.719 128h-23.437c-2.675 0-5.173 1.337-6.656 3.562l-10.667 16c-1.791 2.687-1.791 6.188 0 8.875l10.667 16c1.484 2.226 3.982 3.562 6.656 3.562h23.437c2.675 0 5.173-1.337 6.656-3.562l10.667-16c1.791-2.687 1.791-6.188 0-8.875l-10.667-16c-1.484-2.225-3.982-3.562-6.656-3.562z" fill="#a55023"/></g><g><path d="m179.719 176h-23.438c-4.418 0-8-3.582-8-8s3.582-8 8-8h19.156l8.292-12.438c2.451-3.676 7.418-4.671 11.094-2.219 3.676 2.451 4.67 7.417 2.219 11.094l-10.667 16c-1.483 2.226-3.981 3.563-6.656 3.563z" fill="#8c3c14"/></g><g><path d="m168 128h-11.718c-2.675 0-5.173 1.337-6.657 3.563l-10.667 16c-.896 1.344-1.344 2.891-1.344 4.438h14.386c8.837 0 16-7.163 16-16z" fill="#d26e28"/></g></g><g><g><path d="m179.719 176h-23.437c-2.675 0-5.173 1.337-6.656 3.562l-10.667 16c-1.791 2.687-1.791 6.188 0 8.875l10.667 16c1.484 2.226 3.982 3.562 6.656 3.562h23.437c2.675 0 5.173-1.337 6.656-3.562l10.667-16c1.791-2.687 1.791-6.188 0-8.875l-10.667-16c-1.484-2.225-3.982-3.562-6.656-3.562z" fill="#a55023"/></g><g><path d="m179.719 224h-23.438c-4.418 0-8-3.582-8-8s3.582-8 8-8h19.156l8.292-12.438c2.451-3.676 7.418-4.671 11.094-2.219 3.676 2.451 4.67 7.417 2.219 11.094l-10.667 16c-1.483 2.226-3.981 3.563-6.656 3.563z" fill="#8c3c14"/></g><g><path d="m168 176h-11.718c-2.675 0-5.173 1.337-6.657 3.563l-10.667 16c-.896 1.344-1.344 2.891-1.344 4.438h14.386c8.837 0 16-7.163 16-16z" fill="#d26e28"/></g></g><g><g><path d="m179.719 224h-23.437c-2.675 0-5.173 1.337-6.656 3.562l-10.667 16c-1.791 2.687-1.791 6.188 0 8.875l10.667 16c1.484 2.226 3.982 3.562 6.656 3.562h23.437c2.675 0 5.173-1.337 6.656-3.562l10.667-16c1.791-2.687 1.791-6.188 0-8.875l-10.667-16c-1.484-2.225-3.982-3.562-6.656-3.562z" fill="#a55023"/></g><g><path d="m179.719 272h-23.438c-4.418 0-8-3.582-8-8s3.582-8 8-8h19.156l8.292-12.438c2.451-3.676 7.418-4.67 11.094-2.219s4.67 7.417 2.219 11.094l-10.667 16c-1.483 2.226-3.981 3.563-6.656 3.563z" fill="#8c3c14"/></g><g><path d="m168 224h-11.718c-2.675 0-5.173 1.337-6.657 3.563l-10.667 16c-.896 1.344-1.344 2.891-1.344 4.438h14.386c8.837 0 16-7.163 16-16z" fill="#d26e28"/></g></g><g><g><path d="m179.719 272h-23.437c-2.675 0-5.173 1.337-6.656 3.562l-10.667 16c-1.791 2.687-1.791 6.188 0 8.875l10.667 16c1.484 2.226 3.982 3.562 6.656 3.562h23.437c2.675 0 5.173-1.337 6.656-3.562l10.667-16c1.791-2.687 1.791-6.188 0-8.875l-10.667-16c-1.484-2.225-3.982-3.562-6.656-3.562z" fill="#a55023"/></g><g><path d="m179.719 320h-23.438c-4.418 0-8-3.582-8-8s3.582-8 8-8h19.156l8.292-12.438c2.451-3.677 7.418-4.67 11.094-2.219s4.67 7.417 2.219 11.094l-10.667 16c-1.483 2.226-3.981 3.563-6.656 3.563z" fill="#8c3c14"/></g><g><path d="m168 272h-11.718c-2.675 0-5.173 1.337-6.657 3.563l-10.667 16c-.896 1.344-1.344 2.891-1.344 4.438h14.386c8.837 0 16-7.163 16-16z" fill="#d26e28"/></g></g><g><g><path d="m179.719 320h-23.437c-2.675 0-5.173 1.337-6.656 3.562l-10.667 16c-1.791 2.687-1.791 6.188 0 8.875l10.667 16c1.484 2.226 3.982 3.562 6.656 3.562h23.437c2.675 0 5.173-1.337 6.656-3.562l10.667-16c1.791-2.687 1.791-6.188 0-8.875l-10.667-16c-1.484-2.225-3.982-3.562-6.656-3.562z" fill="#a55023"/></g><g><path d="m179.719 368h-23.438c-4.418 0-8-3.582-8-8s3.582-8 8-8h19.156l8.292-12.438c2.451-3.677 7.418-4.67 11.094-2.219s4.67 7.417 2.219 11.094l-10.667 16c-1.483 2.226-3.981 3.563-6.656 3.563z" fill="#8c3c14"/></g><g><path d="m168 320h-11.718c-2.675 0-5.173 1.337-6.657 3.563l-10.667 16c-.896 1.344-1.344 2.891-1.344 4.438h14.386c8.837 0 16-7.163 16-16z" fill="#d26e28"/></g></g><g><path d="m172 496h-8c-2.209 0-4-1.791-4-4v-124h16v124c0 2.209-1.791 4-4 4z" fill="#f0915a"/></g><g><path d="m164 496c-2.209 0-4-1.791-4-4v-116h8v116c0 2.209-1.791 4-4 4z" fill="#fab991"/></g></g><g><g><g><path d="m243.719 128h-23.437c-2.675 0-5.173 1.337-6.656 3.562l-10.667 16c-1.791 2.687-1.791 6.188 0 8.875l10.667 16c1.484 2.226 3.982 3.562 6.656 3.562h23.437c2.675 0 5.173-1.337 6.656-3.562l10.667-16c1.791-2.687 1.791-6.188 0-8.875l-10.667-16c-1.484-2.225-3.982-3.562-6.656-3.562z" fill="#a55023"/></g><g><path d="m243.719 176h-23.438c-4.418 0-8-3.582-8-8s3.582-8 8-8h19.156l8.292-12.438c2.451-3.676 7.418-4.671 11.094-2.219 3.676 2.451 4.67 7.417 2.219 11.094l-10.667 16c-1.483 2.226-3.981 3.563-6.656 3.563z" fill="#8c3c14"/></g><g><path d="m232 128h-11.718c-2.675 0-5.173 1.337-6.657 3.563l-10.667 16c-.896 1.344-1.344 2.891-1.344 4.438h14.386c8.837 0 16-7.163 16-16z" fill="#d26e28"/></g></g><g><g><path d="m243.719 176h-23.437c-2.675 0-5.173 1.337-6.656 3.562l-10.667 16c-1.791 2.687-1.791 6.188 0 8.875l10.667 16c1.484 2.226 3.982 3.562 6.656 3.562h23.437c2.675 0 5.173-1.337 6.656-3.562l10.667-16c1.791-2.687 1.791-6.188 0-8.875l-10.667-16c-1.484-2.225-3.982-3.562-6.656-3.562z" fill="#a55023"/></g><g><path d="m243.719 224h-23.438c-4.418 0-8-3.582-8-8s3.582-8 8-8h19.156l8.292-12.438c2.451-3.676 7.418-4.671 11.094-2.219 3.676 2.451 4.67 7.417 2.219 11.094l-10.667 16c-1.483 2.226-3.981 3.563-6.656 3.563z" fill="#8c3c14"/></g><g><path d="m232 176h-11.718c-2.675 0-5.173 1.337-6.657 3.563l-10.667 16c-.896 1.344-1.344 2.891-1.344 4.438h14.386c8.837 0 16-7.163 16-16z" fill="#d26e28"/></g></g><g><g><path d="m243.719 224h-23.437c-2.675 0-5.173 1.337-6.656 3.562l-10.667 16c-1.791 2.687-1.791 6.188 0 8.875l10.667 16c1.484 2.226 3.982 3.562 6.656 3.562h23.437c2.675 0 5.173-1.337 6.656-3.562l10.667-16c1.791-2.687 1.791-6.188 0-8.875l-10.667-16c-1.484-2.225-3.982-3.562-6.656-3.562z" fill="#a55023"/></g><g><path d="m243.719 272h-23.438c-4.418 0-8-3.582-8-8s3.582-8 8-8h19.156l8.292-12.438c2.451-3.676 7.418-4.67 11.094-2.219s4.67 7.417 2.219 11.094l-10.667 16c-1.483 2.226-3.981 3.563-6.656 3.563z" fill="#8c3c14"/></g><g><path d="m232 224h-11.718c-2.675 0-5.173 1.337-6.657 3.563l-10.667 16c-.896 1.344-1.344 2.891-1.344 4.438h14.386c8.837 0 16-7.163 16-16z" fill="#d26e28"/></g></g><g><g><path d="m243.719 272h-23.437c-2.675 0-5.173 1.337-6.656 3.562l-10.667 16c-1.791 2.687-1.791 6.188 0 8.875l10.667 16c1.484 2.226 3.982 3.562 6.656 3.562h23.437c2.675 0 5.173-1.337 6.656-3.562l10.667-16c1.791-2.687 1.791-6.188 0-8.875l-10.667-16c-1.484-2.225-3.982-3.562-6.656-3.562z" fill="#a55023"/></g><g><path d="m243.719 320h-23.438c-4.418 0-8-3.582-8-8s3.582-8 8-8h19.156l8.292-12.438c2.451-3.677 7.418-4.67 11.094-2.219s4.67 7.417 2.219 11.094l-10.667 16c-1.483 2.226-3.981 3.563-6.656 3.563z" fill="#8c3c14"/></g><g><path d="m232 272h-11.718c-2.675 0-5.173 1.337-6.657 3.563l-10.667 16c-.896 1.344-1.344 2.891-1.344 4.438h14.386c8.837 0 16-7.163 16-16z" fill="#d26e28"/></g></g><g><g><path d="m243.719 320h-23.437c-2.675 0-5.173 1.337-6.656 3.562l-10.667 16c-1.791 2.687-1.791 6.188 0 8.875l10.667 16c1.484 2.226 3.982 3.562 6.656 3.562h23.437c2.675 0 5.173-1.337 6.656-3.562l10.667-16c1.791-2.687 1.791-6.188 0-8.875l-10.667-16c-1.484-2.225-3.982-3.562-6.656-3.562z" fill="#a55023"/></g><g><path d="m243.719 368h-23.438c-4.418 0-8-3.582-8-8s3.582-8 8-8h19.156l8.292-12.438c2.451-3.677 7.418-4.67 11.094-2.219s4.67 7.417 2.219 11.094l-10.667 16c-1.483 2.226-3.981 3.563-6.656 3.563z" fill="#8c3c14"/></g><g><path d="m232 320h-11.718c-2.675 0-5.173 1.337-6.657 3.563l-10.667 16c-.896 1.344-1.344 2.891-1.344 4.438h14.386c8.837 0 16-7.163 16-16z" fill="#d26e28"/></g></g><g><path d="m236 496h-8c-2.209 0-4-1.791-4-4v-124h16v124c0 2.209-1.791 4-4 4z" fill="#f0915a"/></g><g><path d="m228 496c-2.209 0-4-1.791-4-4v-116h8v116c0 2.209-1.791 4-4 4z" fill="#fab991"/></g></g><g><g><g><path d="m307.719 128h-23.437c-2.675 0-5.173 1.337-6.656 3.562l-10.667 16c-1.791 2.687-1.791 6.188 0 8.875l10.667 16c1.484 2.226 3.982 3.562 6.656 3.562h23.437c2.675 0 5.173-1.337 6.656-3.562l10.667-16c1.791-2.687 1.791-6.188 0-8.875l-10.667-16c-1.484-2.225-3.982-3.562-6.656-3.562z" fill="#a55023"/></g><g><path d="m307.719 176h-23.438c-4.418 0-8-3.582-8-8s3.582-8 8-8h19.156l8.292-12.438c2.451-3.676 7.418-4.671 11.094-2.219 3.676 2.451 4.67 7.417 2.219 11.094l-10.667 16c-1.483 2.226-3.981 3.563-6.656 3.563z" fill="#8c3c14"/></g><g><path d="m296 128h-11.718c-2.675 0-5.173 1.337-6.657 3.563l-10.667 16c-.896 1.344-1.344 2.891-1.344 4.438h14.386c8.837 0 16-7.163 16-16z" fill="#d26e28"/></g></g><g><g><path d="m307.719 176h-23.437c-2.675 0-5.173 1.337-6.656 3.562l-10.667 16c-1.791 2.687-1.791 6.188 0 8.875l10.667 16c1.484 2.226 3.982 3.562 6.656 3.562h23.437c2.675 0 5.173-1.337 6.656-3.562l10.667-16c1.791-2.687 1.791-6.188 0-8.875l-10.667-16c-1.484-2.225-3.982-3.562-6.656-3.562z" fill="#a55023"/></g><g><path d="m307.719 224h-23.438c-4.418 0-8-3.582-8-8s3.582-8 8-8h19.156l8.292-12.438c2.451-3.676 7.418-4.671 11.094-2.219 3.676 2.451 4.67 7.417 2.219 11.094l-10.667 16c-1.483 2.226-3.981 3.563-6.656 3.563z" fill="#8c3c14"/></g><g><path d="m296 176h-11.718c-2.675 0-5.173 1.337-6.657 3.563l-10.667 16c-.896 1.344-1.344 2.891-1.344 4.438h14.386c8.837 0 16-7.163 16-16z" fill="#d26e28"/></g></g><g><g><path d="m307.719 224h-23.437c-2.675 0-5.173 1.337-6.656 3.562l-10.667 16c-1.791 2.687-1.791 6.188 0 8.875l10.667 16c1.484 2.226 3.982 3.562 6.656 3.562h23.437c2.675 0 5.173-1.337 6.656-3.562l10.667-16c1.791-2.687 1.791-6.188 0-8.875l-10.667-16c-1.484-2.225-3.982-3.562-6.656-3.562z" fill="#a55023"/></g><g><path d="m307.719 272h-23.438c-4.418 0-8-3.582-8-8s3.582-8 8-8h19.156l8.292-12.438c2.451-3.676 7.418-4.67 11.094-2.219s4.67 7.417 2.219 11.094l-10.667 16c-1.483 2.226-3.981 3.563-6.656 3.563z" fill="#8c3c14"/></g><g><path d="m296 224h-11.718c-2.675 0-5.173 1.337-6.657 3.563l-10.667 16c-.896 1.344-1.344 2.891-1.344 4.438h14.386c8.837 0 16-7.163 16-16z" fill="#d26e28"/></g></g><g><g><path d="m307.719 272h-23.437c-2.675 0-5.173 1.337-6.656 3.562l-10.667 16c-1.791 2.687-1.791 6.188 0 8.875l10.667 16c1.484 2.226 3.982 3.562 6.656 3.562h23.437c2.675 0 5.173-1.337 6.656-3.562l10.667-16c1.791-2.687 1.791-6.188 0-8.875l-10.667-16c-1.484-2.225-3.982-3.562-6.656-3.562z" fill="#a55023"/></g><g><path d="m307.719 320h-23.438c-4.418 0-8-3.582-8-8s3.582-8 8-8h19.156l8.292-12.438c2.451-3.677 7.418-4.67 11.094-2.219s4.67 7.417 2.219 11.094l-10.667 16c-1.483 2.226-3.981 3.563-6.656 3.563z" fill="#8c3c14"/></g><g><path d="m296 272h-11.718c-2.675 0-5.173 1.337-6.657 3.563l-10.667 16c-.896 1.344-1.344 2.891-1.344 4.438h14.386c8.837 0 16-7.163 16-16z" fill="#d26e28"/></g></g><g><g><path d="m307.719 320h-23.437c-2.675 0-5.173 1.337-6.656 3.562l-10.667 16c-1.791 2.687-1.791 6.188 0 8.875l10.667 16c1.484 2.226 3.982 3.562 6.656 3.562h23.437c2.675 0 5.173-1.337 6.656-3.562l10.667-16c1.791-2.687 1.791-6.188 0-8.875l-10.667-16c-1.484-2.225-3.982-3.562-6.656-3.562z" fill="#a55023"/></g><g><path d="m307.719 368h-23.438c-4.418 0-8-3.582-8-8s3.582-8 8-8h19.156l8.292-12.438c2.451-3.677 7.418-4.67 11.094-2.219s4.67 7.417 2.219 11.094l-10.667 16c-1.483 2.226-3.981 3.563-6.656 3.563z" fill="#8c3c14"/></g><g><path d="m296 320h-11.718c-2.675 0-5.173 1.337-6.657 3.563l-10.667 16c-.896 1.344-1.344 2.891-1.344 4.438h14.386c8.837 0 16-7.163 16-16z" fill="#d26e28"/></g></g><g><path d="m300 496h-8c-2.209 0-4-1.791-4-4v-124h16v124c0 2.209-1.791 4-4 4z" fill="#f0915a"/></g><g><path d="m292 496c-2.209 0-4-1.791-4-4v-116h8v116c0 2.209-1.791 4-4 4z" fill="#fab991"/></g></g></g><g><circle cx="400" cy="248" fill="#463c4b" r="80"/></g><g><circle cx="400" cy="248" fill="#f28a39" r="64"/></g><g><path d="m376 288c0-35.346 28.654-64 64-64 7.208 0 14.129 1.209 20.594 3.406-8.576-25.239-32.456-43.406-60.594-43.406-35.346 0-64 28.654-64 64 0 28.139 18.167 52.018 43.406 60.594-2.197-6.465-3.406-13.386-3.406-20.594z" fill="#d26e28"/></g><g><path d="m328 256c-4.418 0-8-3.582-8-8 0-44.112 35.888-80 80-80 4.418 0 8 3.582 8 8s-3.582 8-8 8c-35.29 0-64 28.71-64 64 0 4.418-3.582 8-8 8z" fill="#555a6e"/></g><g><g><circle cx="436" cy="244" fill="#d26e28" r="12"/></g><g><circle cx="372" cy="236" fill="#a55023" r="12"/></g><g><circle cx="412" cy="292" fill="#d26e28" r="4"/></g><g><circle cx="412" cy="196" fill="#a55023" r="4"/></g></g></g></svg>