<svg id="Layer_1" enable-background="new 0 0 512 512" height="512" viewBox="0 0 512 512" width="512" xmlns="http://www.w3.org/2000/svg"><g><g><circle cx="256" cy="256" fill="#d7e6f0" r="240"/></g><g><g><circle cx="256" cy="256" fill="#a5c3dc" r="192"/></g></g><g><g><g><circle cx="159.005" cy="312" fill="#ffd23c" r="80"/></g><g><circle cx="159.005" cy="312" fill="#faa019" r="64"/></g><g><circle cx="159.005" cy="312" fill="#ffd23c" r="48"/></g><g><circle cx="159.005" cy="312" fill="#f57828" r="32"/></g></g><g><g><circle cx="159.005" cy="200" fill="#ffd23c" r="80"/></g><g><circle cx="159.005" cy="200" fill="#faa019" r="64"/></g><g><circle cx="159.005" cy="200" fill="#ffd23c" r="48"/></g><g><circle cx="159.005" cy="200" fill="#f57828" r="32"/></g></g><g><g><circle cx="144" cy="256" fill="#ffd23c" r="80"/></g><g><circle cx="144" cy="256" fill="#faa019" r="64"/></g><g><circle cx="144" cy="256" fill="#ffd23c" r="48"/></g></g><g><g><circle cx="256" cy="368" fill="#ffd23c" r="80"/></g><g><circle cx="256" cy="368" fill="#faa019" r="64"/></g><g><circle cx="256" cy="368" fill="#ffd23c" r="48"/></g><g><circle cx="256" cy="368" fill="#f57828" r="32"/></g></g><g><g><circle cx="200" cy="352.995" fill="#ffd23c" r="80"/></g><g><circle cx="200" cy="352.995" fill="#faa019" r="64"/></g><g><circle cx="200" cy="352.995" fill="#ffd23c" r="48"/></g></g><g><g><circle cx="352.995" cy="312" fill="#ffd23c" r="80"/></g><g><circle cx="352.995" cy="312" fill="#faa019" r="64"/></g><g><circle cx="352.995" cy="312" fill="#ffd23c" r="48"/></g><g><circle cx="352.995" cy="312" fill="#f57828" r="32"/></g></g><g><g><circle cx="312" cy="352.995" fill="#ffd23c" r="80"/></g><g><circle cx="312" cy="352.995" fill="#faa019" r="64"/></g><g><circle cx="312" cy="352.995" fill="#ffd23c" r="48"/></g></g><g><g><circle cx="352.995" cy="200" fill="#ffd23c" r="80"/></g><g><circle cx="352.995" cy="200" fill="#faa019" r="64"/></g><g><circle cx="352.995" cy="200" fill="#ffd23c" r="48"/></g><g><circle cx="352.995" cy="200" fill="#f57828" r="32"/></g></g><g><g><circle cx="368" cy="256" fill="#ffd23c" r="80"/></g><g><circle cx="368" cy="256" fill="#faa019" r="64"/></g><g><circle cx="368" cy="256" fill="#ffd23c" r="48"/></g></g><g><g><circle cx="256" cy="144" fill="#ffd23c" r="80"/></g><g><circle cx="256" cy="144" fill="#faa019" r="64"/></g><g><circle cx="256" cy="144" fill="#ffd23c" r="48"/></g><g><circle cx="256" cy="144" fill="#f57828" r="32"/></g></g><g><g><circle cx="312" cy="159.005" fill="#ffd23c" r="80"/></g><g><circle cx="312" cy="159.005" fill="#faa019" r="64"/></g><g><circle cx="312" cy="159.005" fill="#ffd23c" r="48"/></g></g><g><g><circle cx="200" cy="159.005" fill="#ffd23c" r="80"/></g><g><circle cx="200" cy="159.005" fill="#faa019" r="64"/></g><g><circle cx="200" cy="159.005" fill="#ffd23c" r="48"/></g></g><g><circle cx="144" cy="256" fill="#faa019" r="32"/></g><g><circle cx="144" cy="256" fill="#ffd23c" r="16"/></g><g><circle cx="368" cy="256" fill="#faa019" r="32"/></g><g><circle cx="200" cy="352.995" fill="#faa019" r="32"/></g><g><circle cx="312" cy="159.005" fill="#faa019" r="32"/></g><g><circle cx="312" cy="352.995" fill="#faa019" r="32"/></g><g><circle cx="200" cy="159.005" fill="#faa019" r="32"/></g><g><circle cx="368" cy="256" fill="#ffd23c" r="16"/></g><g><circle cx="200" cy="352.995" fill="#ffd23c" r="16"/></g><g><circle cx="312" cy="159.005" fill="#ffd23c" r="16"/></g><g><circle cx="312" cy="352.995" fill="#ffd23c" r="16"/></g><g><circle cx="200" cy="159.005" fill="#ffd23c" r="16"/></g></g><g><circle cx="256" cy="144" fill="#faa019" r="32"/></g><g><circle cx="159.005" cy="200" fill="#faa019" r="32"/></g><g><circle cx="159.005" cy="312" fill="#faa019" r="32"/></g><g><circle cx="256" cy="368" fill="#faa019" r="32"/></g><g><circle cx="352.995" cy="312" fill="#faa019" r="32"/></g><g><circle cx="352.995" cy="200" fill="#faa019" r="32"/></g><g><circle cx="256" cy="256" fill="#f04b37" r="112"/></g><g><g><circle cx="256" cy="256" fill="#a55023" r="48"/></g><g><path d="m256 208c-26.51 0-48 21.49-48 48 0 13.255 10.745 24 24 24s24-10.745 24-24z" fill="#d26e28"/></g><g><circle cx="284" cy="252" fill="#8c3c14" r="4"/></g><g><circle cx="268" cy="228" fill="#8c3c14" r="4"/></g><g><circle cx="268" cy="268" fill="#8c3c14" r="4"/></g><g><circle cx="292" cy="268" fill="#8c3c14" r="4"/></g><g><circle cx="228" cy="252" fill="#a55023" r="4"/></g></g><g><g><circle cx="256" cy="159.992" fill="#a55023" r="48"/></g><g><path d="m256 111.992c-26.51 0-48 21.49-48 48 0 13.255 10.745 24 24 24s24-10.745 24-24z" fill="#d26e28"/></g><g><circle cx="284" cy="155.992" fill="#8c3c14" r="4"/></g><g><circle cx="268" cy="131.992" fill="#8c3c14" r="4"/></g><g><circle cx="268" cy="171.992" fill="#8c3c14" r="4"/></g><g><circle cx="292" cy="171.992" fill="#8c3c14" r="4"/></g><g><circle cx="228" cy="155.992" fill="#a55023" r="4"/></g></g><g><g><circle cx="256" cy="354.659" fill="#a55023" r="48"/></g><g><path d="m256 306.659c-26.51 0-48 21.49-48 48 0 13.255 10.745 24 24 24s24-10.745 24-24z" fill="#d26e28"/></g><g><circle cx="284" cy="350.659" fill="#8c3c14" r="4"/></g><g><circle cx="268" cy="326.659" fill="#8c3c14" r="4"/></g><g><circle cx="268" cy="366.659" fill="#8c3c14" r="4"/></g><g><circle cx="292" cy="366.659" fill="#8c3c14" r="4"/></g><g><circle cx="228" cy="350.659" fill="#a55023" r="4"/></g></g><g><g><circle cx="171.705" cy="208.662" fill="#a55023" r="48"/></g><g><path d="m171.751 160.662c-26.51-.026-48.021 21.444-48.046 47.954-.013 13.255 10.722 24.01 23.977 24.023s24.01-10.722 24.023-23.977z" fill="#d26e28"/></g><g><circle cx="199.709" cy="204.689" fill="#8c3c14" r="4"/></g><g><circle cx="183.732" cy="180.674" fill="#8c3c14" r="4"/></g><g><circle cx="183.693" cy="220.674" fill="#8c3c14" r="4"/></g><g><circle cx="207.693" cy="220.697" fill="#8c3c14" r="4"/></g><g><circle cx="143.709" cy="204.635" fill="#a55023" r="4"/></g></g><g><g><circle cx="340.291" cy="305.995" fill="#a55023" r="48"/></g><g><path d="m339.909 257.997c-26.509.211-47.827 21.872-47.616 48.381.106 13.254 10.936 23.914 24.19 23.808s23.914-10.936 23.808-24.19z" fill="#d26e28"/></g><g><circle cx="368.258" cy="301.772" fill="#8c3c14" r="4"/></g><g><circle cx="352.068" cy="277.901" fill="#8c3c14" r="4"/></g><g><circle cx="352.386" cy="317.899" fill="#8c3c14" r="4"/></g><g><circle cx="376.386" cy="317.708" fill="#8c3c14" r="4"/></g><g><circle cx="312.26" cy="302.219" fill="#a55023" r="4"/></g></g><g><g><circle cx="171.707" cy="305.992" fill="#a55023" r="48"/></g><g><path d="m172.096 257.994c-26.509-.215-48.173 21.101-48.387 47.609-.107 13.254 10.55 24.086 23.805 24.194 13.254.107 24.086-10.55 24.194-23.805z" fill="#d26e28"/></g><g><circle cx="199.738" cy="302.219" fill="#8c3c14" r="4"/></g><g><circle cx="183.933" cy="278.09" fill="#8c3c14" r="4"/></g><g><circle cx="183.609" cy="318.089" fill="#8c3c14" r="4"/></g><g><circle cx="207.608" cy="318.283" fill="#8c3c14" r="4"/></g><g><circle cx="143.74" cy="301.765" fill="#a55023" r="4"/></g></g><g><g><circle cx="340.293" cy="208.659" fill="#a55023" r="48"/></g><g><path d="m340.253 160.659c-26.51.022-47.982 21.53-47.96 48.04.011 13.255 10.765 23.991 24.02 23.98s23.991-10.765 23.98-24.02z" fill="#d26e28"/></g><g><circle cx="368.29" cy="204.635" fill="#8c3c14" r="4"/></g><g><circle cx="352.27" cy="180.649" fill="#8c3c14" r="4"/></g><g><circle cx="352.303" cy="220.649" fill="#8c3c14" r="4"/></g><g><circle cx="376.303" cy="220.629" fill="#8c3c14" r="4"/></g><g><circle cx="312.29" cy="204.682" fill="#a55023" r="4"/></g></g><g><g><circle cx="324" cy="285.494" fill="#5faa46" r="4"/></g><g><circle cx="337.333" cy="257.333" fill="#5faa46" r="4"/></g><g><circle cx="266.922" cy="269.493" fill="#5faa46" r="4"/></g><g><circle cx="291.999" cy="241.332" fill="#5faa46" r="4"/></g><g><circle cx="283.856" cy="309.763" fill="#5faa46" r="4"/></g><g><circle cx="252.001" cy="294.509" fill="#5faa46" r="4"/></g></g><g><g><circle cx="238.667" cy="206.396" fill="#5faa46" r="4"/></g><g><circle cx="252" cy="178.236" fill="#5faa46" r="4"/></g><g><circle cx="181.589" cy="190.395" fill="#5faa46" r="4"/></g><g><circle cx="206.666" cy="162.235" fill="#5faa46" r="4"/></g><g><circle cx="198.523" cy="230.666" fill="#5faa46" r="4"/></g><g><circle cx="166.668" cy="215.411" fill="#5faa46" r="4"/></g></g><g><g><circle cx="206.667" cy="325.496" fill="#5faa46" r="4"/></g><g><circle cx="220" cy="297.335" fill="#5faa46" r="4"/></g><g><circle cx="149.589" cy="309.495" fill="#5faa46" r="4"/></g><g><circle cx="174.666" cy="281.334" fill="#5faa46" r="4"/></g><g><circle cx="166.523" cy="349.765" fill="#5faa46" r="4"/></g><g><circle cx="134.668" cy="334.511" fill="#5faa46" r="4"/></g></g><g><g><circle cx="305.333" cy="338.829" fill="#5faa46" r="4"/></g><g><circle cx="318.667" cy="310.669" fill="#5faa46" r="4"/></g><g><circle cx="248.255" cy="322.828" fill="#5faa46" r="4"/></g><g><circle cx="273.332" cy="294.668" fill="#5faa46" r="4"/></g><g><circle cx="265.189" cy="363.099" fill="#5faa46" r="4"/></g><g><circle cx="233.334" cy="347.844" fill="#5faa46" r="4"/></g></g><g><g><circle cx="414.667" cy="277.496" fill="#5faa46" r="4"/></g><g><circle cx="428" cy="249.335" fill="#5faa46" r="4"/></g><g><circle cx="357.589" cy="261.495" fill="#5faa46" r="4"/></g><g><circle cx="382.666" cy="233.334" fill="#5faa46" r="4"/></g><g><circle cx="374.523" cy="301.765" fill="#5faa46" r="4"/></g><g><circle cx="342.668" cy="286.511" fill="#5faa46" r="4"/></g></g><g><g><circle cx="325.946" cy="116.45" fill="#5faa46" r="4"/></g><g><circle cx="297.785" cy="103.117" fill="#5faa46" r="4"/></g><g><circle cx="309.945" cy="173.528" fill="#5faa46" r="4"/></g><g><circle cx="281.784" cy="148.451" fill="#5faa46" r="4"/></g><g><circle cx="350.216" cy="156.594" fill="#5faa46" r="4"/></g><g><circle cx="334.961" cy="188.449" fill="#5faa46" r="4"/></g></g><g><g><circle cx="200.163" cy="124" fill="#5faa46" r="4"/></g><g><circle cx="172.002" cy="110.667" fill="#5faa46" r="4"/></g><g><circle cx="184.162" cy="181.078" fill="#5faa46" r="4"/></g><g><circle cx="156.001" cy="156.001" fill="#5faa46" r="4"/></g><g><circle cx="224.432" cy="164.144" fill="#5faa46" r="4"/></g><g><circle cx="209.177" cy="195.999" fill="#5faa46" r="4"/></g></g><g><g><circle cx="198.396" cy="334.667" fill="#5faa46" r="4"/></g><g><circle cx="170.236" cy="321.333" fill="#5faa46" r="4"/></g><g><circle cx="182.395" cy="391.745" fill="#5faa46" r="4"/></g><g><circle cx="154.235" cy="366.668" fill="#5faa46" r="4"/></g><g><circle cx="222.666" cy="374.811" fill="#5faa46" r="4"/></g><g><circle cx="207.411" cy="406.666" fill="#5faa46" r="4"/></g></g></g></svg>