<svg id="Layer_1" enable-background="new 0 0 512 512" height="512" viewBox="0 0 512 512" width="512" xmlns="http://www.w3.org/2000/svg"><g><g><path d="m429.172 193.858-7.515-7.515c-3.125-3.124-8.189-3.124-11.314 0l-7.514 7.514c-6.983 6.983-10.829 16.267-10.829 26.143s3.846 19.16 10.828 26.142l7.515 7.515c1.563 1.562 3.609 2.343 5.657 2.343s4.095-.781 5.657-2.343l7.514-7.514c6.983-6.983 10.829-16.267 10.829-26.143s-3.846-19.16-10.828-26.142z" fill="#91c83c"/><path d="m485.657 250.343-7.516-7.515c-6.983-6.982-16.266-10.828-26.141-10.828s-19.158 3.846-26.143 10.829l-7.515 7.515c-3.124 3.124-3.124 8.189 0 11.313l7.516 7.515c6.984 6.982 16.267 10.828 26.142 10.828s19.158-3.846 26.143-10.829l7.515-7.515c3.123-3.123 3.123-8.189-.001-11.313z" fill="#5faa46"/><path d="m413.657 250.343-7.516-7.515c-6.983-6.982-16.266-10.828-26.141-10.828s-19.158 3.846-26.143 10.829l-7.515 7.515c-3.124 3.124-3.124 8.189 0 11.313l7.516 7.515c6.984 6.982 16.267 10.828 26.142 10.828s19.158-3.846 26.143-10.829l7.515-7.515c3.123-3.123 3.123-8.189-.001-11.313z" fill="#5faa46"/><g><path d="m408 256h16v32h-16z" fill="#5faa46"/></g></g><g><g><path d="m224 256h-112c-53.019 0-96 42.981-96 96 0 53.019 42.981 96 96 96h112c53.019 0 96-42.981 96-96 0-53.019-42.981-96-96-96z" fill="#f06423"/></g><g><circle cx="112" cy="352" fill="#f06423" r="96"/></g><g><g><path d="m48 360c-2.646 0-5.142.643-7.341 1.78 1.478 10.881 5.386 20.99 11.161 29.761 6.992-1.713 12.18-8.021 12.18-15.541 0-8.836-7.164-16-16-16z" fill="#fab991"/><g><circle cx="80" cy="376" fill="#f0915a" r="16"/></g><g><circle cx="112" cy="376" fill="#fab991" r="16"/></g><g><circle cx="144" cy="376" fill="#f0915a" r="16"/></g><path d="m176 360c-8.836 0-16 7.164-16 16 0 7.52 5.188 13.828 12.18 15.541 5.775-8.771 9.683-18.88 11.161-29.761-2.199-1.137-4.695-1.78-7.341-1.78z" fill="#fab991"/><path d="m64 392c-3.604 0-6.929 1.191-9.604 3.202 6.304 8.392 14.399 15.362 23.717 20.341 1.204-2.247 1.887-4.815 1.887-7.543 0-8.836-7.164-16-16-16z" fill="#f0915a"/><path d="m64 376c-6.979 0-12.915 4.469-15.102 10.701 4.475 8.119 10.47 15.282 17.604 21.104 7.648-1.201 13.498-7.82 13.498-15.805 0-8.836-7.164-16-16-16z" fill="#f0915a"/><g><circle cx="96" cy="392" fill="#f0915a" r="16"/></g><g><circle cx="128" cy="392" fill="#fab991" r="16"/></g><path d="m175.102 386.701c-2.187-6.232-8.123-10.701-15.102-10.701-8.836 0-16 7.164-16 16 0 7.985 5.85 14.604 13.498 15.805 7.133-5.822 13.129-12.985 17.604-21.104z" fill="#f0915a"/><path d="m96 392c-8.836 0-16 7.164-16 16 0 3.886 1.385 7.448 3.689 10.22 5.48 2.346 11.31 4.032 17.389 4.957 6.348-2.123 10.922-8.115 10.922-15.177 0-8.836-7.164-16-16-16z" fill="#fab991"/><path d="m128 392c-8.836 0-16 7.164-16 16 0 7.062 4.574 13.054 10.921 15.177 6.08-.925 11.909-2.61 17.389-4.957 2.304-2.772 3.689-6.334 3.689-10.22.001-8.836-7.163-16-15.999-16z" fill="#f0915a"/><path d="m169.604 395.202c-2.675-2.01-6-3.202-9.604-3.202-8.836 0-16 7.164-16 16 0 2.728.683 5.296 1.886 7.543 9.319-4.98 17.414-11.949 23.718-20.341z" fill="#fab991"/></g><g><path d="m144 296h-77.258c-7.238 5.857-13.319 13.089-17.843 21.299 2.186 6.232 8.122 10.701 15.101 10.701h80c8.836 0 16-7.164 16-16 0-8.836-7.164-16-16-16z" fill="#5faa46"/><path d="m48.898 317.299c2.187 6.232 8.123 10.701 15.102 10.701 8.836 0 16-7.164 16-16 0-7.985-5.85-14.604-13.498-15.805-7.133 5.822-13.129 12.985-17.604 21.104z" fill="#bedc5a"/></g><g><path d="m88 312c0 8.836 7.164 16 16 16h75.903c-4.478-12.669-12.402-23.711-22.645-32h-53.258c-8.836 0-16 7.164-16 16z" fill="#e1322d"/><g><path d="m104 328c-8.837 0-16-7.163-16-16 0-8.837 7.163-16 16-16 8.837 0 16 7.163 16 16 0 8.837-7.163 16-16 16z" fill="#f04b37"/></g></g><g><path d="m80 296h77.258c-12.366-10.006-28.112-16-45.258-16-15.368 0-29.611 4.815-41.304 13.018 2.622 1.877 5.834 2.982 9.304 2.982z" fill="#5faa46"/><path d="m70.696 293.018c2.622 1.877 5.834 2.982 9.304 2.982 8.225 0 15.001-6.207 15.899-14.192-9.196 2.1-17.722 5.962-25.203 11.21z" fill="#bedc5a"/></g><g><path d="m120 296h37.258c-12.366-10.006-28.112-16-45.258-16-2.702 0-5.369.149-7.994.439.233 8.634 7.304 15.561 15.994 15.561z" fill="#5faa46"/><path d="m112 280c-2.702 0-5.369.149-7.994.439.233 8.634 7.304 15.561 15.994 15.561 7.481 0 13.763-5.135 15.514-12.073-7.369-2.545-15.28-3.927-23.514-3.927z" fill="#bedc5a"/></g><g><path d="m128 312c0 8.836 7.164 16 16 16h35.903c-4.478-12.669-12.402-23.711-22.645-32h-13.258c-8.836 0-16 7.164-16 16z" fill="#5faa46"/><g><path d="m144 328c-8.837 0-16-7.163-16-16 0-8.837 7.163-16 16-16 8.837 0 16 7.163 16 16 0 8.837-7.163 16-16 16z" fill="#bedc5a"/></g></g><g><path d="m120 328h-75.903c-2.653 7.507-4.097 15.585-4.097 24 0 2.704.149 5.373.44 8h79.56c8.836 0 16-7.164 16-16 0-8.836-7.164-16-16-16z" fill="#e1322d"/><path d="m40.439 359.994c8.634-.233 15.561-7.305 15.561-15.994 0-7.481-5.135-13.764-12.073-15.514-2.545 7.369-3.927 15.28-3.927 23.514 0 2.702.149 5.369.439 7.994z" fill="#f04b37"/></g><g><g><path d="m160 360h-80c-8.837 0-16-7.163-16-16 0-8.837 7.163-16 16-16h80c8.837 0 16 7.163 16 16 0 8.837-7.163 16-16 16z" fill="#5faa46"/></g><g><path d="m80 360c-8.837 0-16-7.163-16-16 0-8.837 7.163-16 16-16 8.837 0 16 7.163 16 16 0 8.837-7.163 16-16 16z" fill="#bedc5a"/></g></g><g><path d="m104 344c0 8.836 7.164 16 16 16h63.56c.291-2.627.44-5.296.44-8 0-8.415-1.444-16.493-4.097-24h-59.903c-8.836 0-16 7.164-16 16z" fill="#e1322d"/><g><path d="m120 360c-8.837 0-16-7.163-16-16 0-8.837 7.163-16 16-16 8.837 0 16 7.163 16 16 0 8.837-7.163 16-16 16z" fill="#f04b37"/></g></g><g><path d="m144 344c0 8.836 7.164 16 16 16h23.56c.291-2.627.44-5.296.44-8 0-8.415-1.444-16.493-4.097-24h-19.903c-8.836 0-16 7.164-16 16z" fill="#e1322d"/><g><path d="m160 360c-8.837 0-16-7.163-16-16 0-8.837 7.163-16 16-16 8.837 0 16 7.163 16 16 0 8.837-7.163 16-16 16z" fill="#f04b37"/></g></g><g><path d="m168.632 307.534c-.411 1.417-.632 2.916-.632 4.466 0 7.344 4.948 13.532 11.692 15.413-2.629-7.238-6.387-13.936-11.06-19.879z" fill="#5faa46"/><path d="m168.632 307.534c-.411 1.417-.632 2.916-.632 4.466 0 7.344 4.948 13.532 11.692 15.413-2.629-7.238-6.387-13.936-11.06-19.879z" fill="#bedc5a"/></g><g><path d="m156.879 295.695c-3.184-2.541-6.587-4.817-10.178-6.796 2.318 3.457 5.949 5.96 10.178 6.796z" fill="#5faa46"/><path d="m156.879 295.695c-3.184-2.541-6.587-4.817-10.178-6.796 2.318 3.457 5.949 5.96 10.178 6.796z" fill="#bedc5a"/></g></g><g><path d="m288 384h-48c-17.673 0-32-14.327-32-32 0-53.019-42.981-96-96-96h112c53.019 0 96 42.981 96 96 0 17.673-14.327 32-32 32z" fill="#f06423"/></g><g><circle cx="278.667" cy="316" fill="#f06423" r="9.333"/></g><g><circle cx="252" cy="353.333" fill="#f06423" r="9.333"/></g><g><circle cx="196" cy="284" fill="#f06423" r="4"/></g></g><g><g><g><path d="m312 88h-112c-53.019 0-96 42.981-96 96 0 53.019 42.981 96 96 96h112c53.019 0 96-42.981 96-96 0-53.019-42.981-96-96-96z" fill="#f06423"/></g><g><circle cx="200" cy="184" fill="#faa019" r="96"/></g><g><circle cx="200" cy="184" fill="#f06423" r="72"/></g><g><path d="m376 216h-48c-17.673 0-32-14.327-32-32 0-53.019-42.981-96-96-96h112c53.019 0 96 42.981 96 96 0 17.673-14.327 32-32 32z" fill="#faa019"/></g><g><circle cx="366.667" cy="148" fill="#f06423" r="9.333"/></g><g><circle cx="340" cy="185.333" fill="#f06423" r="9.333"/></g><g><circle cx="284" cy="116" fill="#f06423" r="4"/></g></g><g><g><path d="m136 192c-2.646 0-5.142.643-7.341 1.78 1.478 10.881 5.386 20.99 11.161 29.761 6.992-1.713 12.18-8.021 12.18-15.541 0-8.836-7.164-16-16-16z" fill="#fab991"/><g><circle cx="168" cy="208" fill="#f0915a" r="16"/></g><g><circle cx="200" cy="208" fill="#fab991" r="16"/></g><g><circle cx="232" cy="208" fill="#f0915a" r="16"/></g><path d="m264 192c-8.836 0-16 7.164-16 16 0 7.52 5.188 13.828 12.18 15.541 5.775-8.771 9.683-18.88 11.161-29.761-2.199-1.137-4.695-1.78-7.341-1.78z" fill="#fab991"/><path d="m152 224c-3.604 0-6.929 1.191-9.604 3.202 6.304 8.392 14.399 15.362 23.717 20.341 1.204-2.247 1.886-4.815 1.886-7.543.001-8.836-7.163-16-15.999-16z" fill="#f0915a"/><path d="m152 208c-6.979 0-12.915 4.469-15.102 10.701 4.475 8.119 10.47 15.282 17.604 21.104 7.648-1.201 13.498-7.82 13.498-15.805 0-8.836-7.164-16-16-16z" fill="#f0915a"/><g><circle cx="184" cy="224" fill="#f0915a" r="16"/></g><g><circle cx="216" cy="224" fill="#fab991" r="16"/></g><path d="m263.102 218.701c-2.187-6.232-8.123-10.701-15.102-10.701-8.836 0-16 7.164-16 16 0 7.985 5.85 14.604 13.498 15.805 7.133-5.822 13.129-12.985 17.604-21.104z" fill="#f0915a"/><path d="m184 224c-8.836 0-16 7.164-16 16 0 3.886 1.385 7.448 3.689 10.22 5.48 2.346 11.31 4.032 17.389 4.957 6.348-2.123 10.922-8.115 10.922-15.177 0-8.836-7.164-16-16-16z" fill="#fab991"/><path d="m216 224c-8.836 0-16 7.164-16 16 0 7.062 4.574 13.054 10.921 15.177 6.08-.925 11.909-2.61 17.389-4.957 2.304-2.772 3.689-6.334 3.689-10.22.001-8.836-7.163-16-15.999-16z" fill="#f0915a"/><path d="m257.604 227.202c-2.675-2.01-6-3.202-9.604-3.202-8.836 0-16 7.164-16 16 0 2.728.683 5.296 1.886 7.543 9.319-4.98 17.414-11.949 23.718-20.341z" fill="#fab991"/></g><g><path d="m232 128h-77.258c-7.238 5.857-13.319 13.089-17.843 21.299 2.186 6.232 8.122 10.701 15.101 10.701h80c8.836 0 16-7.164 16-16 0-8.836-7.164-16-16-16z" fill="#5faa46"/><path d="m136.898 149.299c2.187 6.232 8.123 10.701 15.102 10.701 8.836 0 16-7.164 16-16 0-7.985-5.85-14.604-13.498-15.805-7.133 5.822-13.129 12.985-17.604 21.104z" fill="#bedc5a"/></g><g><path d="m176 144c0 8.836 7.164 16 16 16h75.903c-4.478-12.669-12.402-23.711-22.645-32h-53.258c-8.836 0-16 7.164-16 16z" fill="#e1322d"/><g><path d="m192 160c-8.837 0-16-7.163-16-16 0-8.837 7.163-16 16-16 8.837 0 16 7.163 16 16 0 8.837-7.163 16-16 16z" fill="#f04b37"/></g></g><g><path d="m168 128h77.258c-12.366-10.006-28.112-16-45.258-16-15.368 0-29.611 4.815-41.304 13.018 2.622 1.877 5.834 2.982 9.304 2.982z" fill="#5faa46"/><path d="m158.696 125.018c2.622 1.877 5.834 2.982 9.304 2.982 8.225 0 15.001-6.207 15.899-14.192-9.196 2.1-17.722 5.962-25.203 11.21z" fill="#bedc5a"/></g><g><path d="m208 128h37.258c-12.366-10.006-28.112-16-45.258-16-2.702 0-5.369.149-7.994.439.233 8.634 7.304 15.561 15.994 15.561z" fill="#5faa46"/><path d="m200 112c-2.702 0-5.369.149-7.994.439.233 8.634 7.304 15.561 15.994 15.561 7.481 0 13.763-5.135 15.514-12.073-7.369-2.545-15.28-3.927-23.514-3.927z" fill="#bedc5a"/></g><g><path d="m216 144c0 8.836 7.164 16 16 16h35.903c-4.478-12.669-12.402-23.711-22.645-32h-13.258c-8.836 0-16 7.164-16 16z" fill="#5faa46"/><g><path d="m232 160c-8.837 0-16-7.163-16-16 0-8.837 7.163-16 16-16 8.837 0 16 7.163 16 16 0 8.837-7.163 16-16 16z" fill="#bedc5a"/></g></g><g><path d="m208 160h-75.903c-2.653 7.507-4.097 15.585-4.097 24 0 2.704.149 5.373.44 8h79.56c8.836 0 16-7.164 16-16 0-8.836-7.164-16-16-16z" fill="#e1322d"/><path d="m128.439 191.994c8.634-.233 15.561-7.305 15.561-15.994 0-7.481-5.135-13.764-12.073-15.514-2.545 7.369-3.927 15.28-3.927 23.514 0 2.702.149 5.369.439 7.994z" fill="#f04b37"/></g><g><g><path d="m248 192h-80c-8.837 0-16-7.163-16-16 0-8.837 7.163-16 16-16h80c8.837 0 16 7.163 16 16 0 8.837-7.163 16-16 16z" fill="#5faa46"/></g><g><path d="m168 192c-8.837 0-16-7.163-16-16 0-8.837 7.163-16 16-16 8.837 0 16 7.163 16 16 0 8.837-7.163 16-16 16z" fill="#bedc5a"/></g></g><g><path d="m192 176c0 8.836 7.164 16 16 16h63.56c.291-2.627.44-5.296.44-8 0-8.415-1.444-16.493-4.097-24h-59.903c-8.836 0-16 7.164-16 16z" fill="#e1322d"/><g><path d="m208 192c-8.837 0-16-7.163-16-16 0-8.837 7.163-16 16-16 8.837 0 16 7.163 16 16 0 8.837-7.163 16-16 16z" fill="#f04b37"/></g></g><g><path d="m232 176c0 8.836 7.164 16 16 16h23.56c.291-2.627.44-5.296.44-8 0-8.415-1.444-16.493-4.097-24h-19.903c-8.836 0-16 7.164-16 16z" fill="#e1322d"/><g><path d="m248 192c-8.837 0-16-7.163-16-16 0-8.837 7.163-16 16-16 8.837 0 16 7.163 16 16 0 8.837-7.163 16-16 16z" fill="#f04b37"/></g></g><g><path d="m256.632 139.534c-.411 1.417-.632 2.916-.632 4.466 0 7.344 4.948 13.532 11.692 15.413-2.629-7.238-6.387-13.936-11.06-19.879z" fill="#5faa46"/><path d="m256.632 139.534c-.411 1.417-.632 2.916-.632 4.466 0 7.344 4.948 13.532 11.692 15.413-2.629-7.238-6.387-13.936-11.06-19.879z" fill="#bedc5a"/></g><g><path d="m244.879 127.695c-3.184-2.541-6.587-4.817-10.178-6.796 2.318 3.457 5.949 5.96 10.178 6.796z" fill="#5faa46"/><path d="m244.879 127.695c-3.184-2.541-6.587-4.817-10.178-6.796 2.318 3.457 5.949 5.96 10.178 6.796z" fill="#bedc5a"/></g></g></g><g><g><path d="m400 256h-112c-53.019 0-96 42.981-96 96 0 53.019 42.981 96 96 96h112c53.019 0 96-42.981 96-96 0-53.019-42.981-96-96-96z" fill="#f06423"/></g><g><circle cx="288" cy="352" fill="#faa019" r="96"/></g><g><circle cx="288" cy="352" fill="#f06423" r="72"/></g><g><g><path d="m224 360c-2.646 0-5.142.643-7.341 1.78 1.478 10.881 5.386 20.99 11.161 29.761 6.992-1.713 12.18-8.021 12.18-15.541 0-8.836-7.164-16-16-16z" fill="#fab991"/><g><circle cx="256" cy="376" fill="#f0915a" r="16"/></g><g><circle cx="288" cy="376" fill="#fab991" r="16"/></g><g><circle cx="320" cy="376" fill="#f0915a" r="16"/></g><path d="m352 360c-8.836 0-16 7.164-16 16 0 7.52 5.188 13.828 12.18 15.541 5.775-8.771 9.683-18.88 11.161-29.761-2.199-1.137-4.695-1.78-7.341-1.78z" fill="#fab991"/><path d="m240 392c-3.604 0-6.929 1.191-9.604 3.202 6.304 8.392 14.399 15.362 23.717 20.341 1.204-2.247 1.886-4.815 1.886-7.543.001-8.836-7.163-16-15.999-16z" fill="#f0915a"/><path d="m240 376c-6.979 0-12.915 4.469-15.102 10.701 4.475 8.119 10.47 15.282 17.604 21.104 7.648-1.201 13.498-7.82 13.498-15.805 0-8.836-7.164-16-16-16z" fill="#f0915a"/><g><circle cx="272" cy="392" fill="#f0915a" r="16"/></g><g><circle cx="304" cy="392" fill="#fab991" r="16"/></g><path d="m351.102 386.701c-2.187-6.232-8.123-10.701-15.102-10.701-8.836 0-16 7.164-16 16 0 7.985 5.85 14.604 13.498 15.805 7.133-5.822 13.129-12.985 17.604-21.104z" fill="#f0915a"/><path d="m272 392c-8.836 0-16 7.164-16 16 0 3.886 1.385 7.448 3.689 10.22 5.48 2.346 11.31 4.032 17.389 4.957 6.348-2.123 10.922-8.115 10.922-15.177 0-8.836-7.164-16-16-16z" fill="#fab991"/><path d="m304 392c-8.836 0-16 7.164-16 16 0 7.062 4.574 13.054 10.921 15.177 6.08-.925 11.909-2.61 17.389-4.957 2.304-2.772 3.689-6.334 3.689-10.22.001-8.836-7.163-16-15.999-16z" fill="#f0915a"/><path d="m345.604 395.202c-2.675-2.01-6-3.202-9.604-3.202-8.836 0-16 7.164-16 16 0 2.728.683 5.296 1.886 7.543 9.319-4.98 17.414-11.949 23.718-20.341z" fill="#fab991"/></g><g><path d="m320 296h-77.258c-7.238 5.857-13.319 13.089-17.843 21.299 2.186 6.232 8.122 10.701 15.101 10.701h80c8.836 0 16-7.164 16-16 0-8.836-7.164-16-16-16z" fill="#5faa46"/><path d="m224.898 317.299c2.187 6.232 8.123 10.701 15.102 10.701 8.836 0 16-7.164 16-16 0-7.985-5.85-14.604-13.498-15.805-7.133 5.822-13.129 12.985-17.604 21.104z" fill="#bedc5a"/></g><g><path d="m264 312c0 8.836 7.164 16 16 16h75.903c-4.478-12.669-12.402-23.711-22.645-32h-53.258c-8.836 0-16 7.164-16 16z" fill="#e1322d"/><g><path d="m280 328c-8.837 0-16-7.163-16-16 0-8.837 7.163-16 16-16 8.837 0 16 7.163 16 16 0 8.837-7.163 16-16 16z" fill="#f04b37"/></g></g><g><path d="m256 296h77.258c-12.366-10.006-28.112-16-45.258-16-15.368 0-29.611 4.815-41.304 13.018 2.622 1.877 5.834 2.982 9.304 2.982z" fill="#5faa46"/><path d="m246.696 293.018c2.622 1.877 5.834 2.982 9.304 2.982 8.225 0 15.001-6.207 15.899-14.192-9.196 2.1-17.722 5.962-25.203 11.21z" fill="#bedc5a"/></g><g><path d="m296 296h37.258c-12.366-10.006-28.112-16-45.258-16-2.702 0-5.369.149-7.994.439.233 8.634 7.304 15.561 15.994 15.561z" fill="#5faa46"/><path d="m288 280c-2.702 0-5.369.149-7.994.439.233 8.634 7.304 15.561 15.994 15.561 7.481 0 13.763-5.135 15.514-12.073-7.369-2.545-15.28-3.927-23.514-3.927z" fill="#bedc5a"/></g><g><path d="m304 312c0 8.836 7.164 16 16 16h35.903c-4.478-12.669-12.402-23.711-22.645-32h-13.258c-8.836 0-16 7.164-16 16z" fill="#5faa46"/><g><path d="m320 328c-8.837 0-16-7.163-16-16 0-8.837 7.163-16 16-16 8.837 0 16 7.163 16 16 0 8.837-7.163 16-16 16z" fill="#bedc5a"/></g></g><g><path d="m296 328h-75.903c-2.653 7.507-4.097 15.585-4.097 24 0 2.704.149 5.373.44 8h79.56c8.836 0 16-7.164 16-16 0-8.836-7.164-16-16-16z" fill="#e1322d"/><path d="m216.439 359.994c8.634-.233 15.561-7.305 15.561-15.994 0-7.481-5.135-13.764-12.073-15.514-2.545 7.369-3.927 15.28-3.927 23.514 0 2.702.149 5.369.439 7.994z" fill="#f04b37"/></g><g><g><path d="m336 360h-80c-8.837 0-16-7.163-16-16 0-8.837 7.163-16 16-16h80c8.837 0 16 7.163 16 16 0 8.837-7.163 16-16 16z" fill="#5faa46"/></g><g><path d="m256 360c-8.837 0-16-7.163-16-16 0-8.837 7.163-16 16-16 8.837 0 16 7.163 16 16 0 8.837-7.163 16-16 16z" fill="#bedc5a"/></g></g><g><path d="m280 344c0 8.836 7.164 16 16 16h63.56c.291-2.627.44-5.296.44-8 0-8.415-1.444-16.493-4.097-24h-59.903c-8.836 0-16 7.164-16 16z" fill="#e1322d"/><g><path d="m296 360c-8.837 0-16-7.163-16-16 0-8.837 7.163-16 16-16 8.837 0 16 7.163 16 16 0 8.837-7.163 16-16 16z" fill="#f04b37"/></g></g><g><path d="m320 344c0 8.836 7.164 16 16 16h23.56c.291-2.627.44-5.296.44-8 0-8.415-1.444-16.493-4.097-24h-19.903c-8.836 0-16 7.164-16 16z" fill="#e1322d"/><g><path d="m336 360c-8.837 0-16-7.163-16-16 0-8.837 7.163-16 16-16 8.837 0 16 7.163 16 16 0 8.837-7.163 16-16 16z" fill="#f04b37"/></g></g><g><path d="m344.632 307.534c-.411 1.417-.632 2.916-.632 4.466 0 7.344 4.948 13.532 11.692 15.413-2.629-7.238-6.387-13.936-11.06-19.879z" fill="#5faa46"/><path d="m344.632 307.534c-.411 1.417-.632 2.916-.632 4.466 0 7.344 4.948 13.532 11.692 15.413-2.629-7.238-6.387-13.936-11.06-19.879z" fill="#bedc5a"/></g><g><path d="m332.879 295.695c-3.184-2.541-6.587-4.817-10.178-6.796 2.318 3.457 5.949 5.96 10.178 6.796z" fill="#5faa46"/><path d="m332.879 295.695c-3.184-2.541-6.587-4.817-10.178-6.796 2.318 3.457 5.949 5.96 10.178 6.796z" fill="#bedc5a"/></g></g><g><path d="m464 384h-48c-17.673 0-32-14.327-32-32 0-53.019-42.981-96-96-96h112c53.019 0 96 42.981 96 96 0 17.673-14.327 32-32 32z" fill="#faa019"/></g><g><circle cx="454.667" cy="316" fill="#f06423" r="9.333"/></g><g><circle cx="428" cy="353.333" fill="#f06423" r="9.333"/></g><g><circle cx="372" cy="284" fill="#f06423" r="4"/></g></g></g></svg>