<svg id="Layer_1" enable-background="new 0 0 512 512" height="512" viewBox="0 0 512 512" width="512" xmlns="http://www.w3.org/2000/svg"><g><g><g><path d="m112 112h96v384h-96z" fill="#69a041"/></g><g><path d="m112 112h48v384h-48z" fill="#91b945"/></g><g><circle cx="160" cy="112" fill="#91b945" r="48"/></g><g><circle cx="160" cy="112" fill="#d7e6f0" r="40"/></g><g><path d="m160 336c19.102 0 36.263-8.422 48-21.735v-42.265c0 26.467-21.532 48-48 48s-48-21.533-48-48v42.265c11.737 13.313 28.898 21.735 48 21.735z" fill="#4b8c41"/></g></g><g><g><path d="m208 64h96v432h-96z" fill="#69a041"/></g><g><path d="m208 64h48v432h-48z" fill="#91b945"/></g><g><circle cx="256" cy="64" fill="#91b945" r="48"/></g><g><circle cx="256" cy="64" fill="#d7e6f0" r="40"/></g><g><path d="m256 416c19.102 0 36.263-8.422 48-21.735v-42.265c0 26.467-21.532 48-48 48s-48-21.533-48-48v42.265c11.737 13.313 28.898 21.735 48 21.735z" fill="#4b8c41"/></g></g><g><g><path d="m304 112h96v384h-96z" fill="#69a041"/></g><g><path d="m304 112h48v384h-48z" fill="#91b945"/></g><g><circle cx="352" cy="112" fill="#91b945" r="48"/></g><g><circle cx="352" cy="112" fill="#d7e6f0" r="40"/></g><g><path d="m352 336c19.102 0 36.263-8.422 48-21.735v-42.265c0 26.467-21.532 48-48 48s-48-21.533-48-48v42.265c11.737 13.313 28.898 21.735 48 21.735z" fill="#4b8c41"/></g></g><g><circle cx="256" cy="160" fill="#91b945" r="48"/></g><g><circle cx="256" cy="160" fill="#d7e6f0" r="40"/></g><g><path d="m304 480h-96c-53.019 0-96-42.981-96-96v-32c0 53.019 42.981 96 96 96h96c53.019 0 96-42.981 96-96v32c0 53.019-42.981 96-96 96z" fill="#fab991"/></g></g></svg>