<svg id="Layer_1" enable-background="new 0 0 512 512" height="512" viewBox="0 0 512 512" width="512" xmlns="http://www.w3.org/2000/svg"><g><g><g><path d="m256 304c-53.019 0-96-42.981-96-96v-96h192v96c0 53.019-42.981 96-96 96z" fill="#555a6e"/></g><g><path d="m256 112v192c53.019 0 96-42.98 96-96v-96z" fill="#463c4b"/></g><g><circle cx="256" cy="112" fill="#d7e6f0" r="96"/></g><g><g><g><path d="m289.941 78.059-11.314-11.314c-12.497-12.497-32.758-12.497-45.255 0l-11.314 11.314 33.942 33.941z" fill="#91c83c"/></g><g><path d="m222.059 78.059-11.314 11.314c-12.497 12.497-12.497 32.758 0 45.255l22.627 22.627c12.497 12.497 32.758 12.497 45.255 0l11.314-11.314z" fill="#f06423"/></g><g><path d="m256 112 33.941 33.941 11.314-11.314c12.497-12.497 12.497-32.758 0-45.255l-11.314-11.314z" fill="#f04b37"/></g></g><path d="m227.716 95.03c.007-.007.014-.015.022-.022l5.635-5.635-5.639-5.639c-.006-.006-.012-.012-.018-.018s-.012-.012-.018-.018l-5.639-5.64-5.656 5.657-5.658 5.657c-6.043 6.044-9.372 14.081-9.372 22.627s3.329 16.583 9.372 22.627c1.563 1.562 3.609 2.343 5.657 2.343 2.047 0 4.095-.781 5.657-2.343 3.124-3.124 3.125-8.189 0-11.314-3.022-3.022-4.687-7.041-4.687-11.314s1.665-8.292 4.686-11.313z" fill="#faa019"/><path d="m256 57.373c-8.547 0-16.583 3.329-22.627 9.373l-3.771 3.771-7.542 7.542 5.658 5.658 5.656 5.656 5.656-5.656 5.658-5.658c3.022-3.022 7.04-4.686 11.313-4.686 4.418 0 8-3.582 8-8s-3.583-8-8.001-8z" fill="#afd763"/></g><g><circle cx="280" cy="40" fill="#a5c3dc" r="8"/></g><g><circle cx="312" cy="56" fill="#a5c3dc" r="8"/></g><g><circle cx="328" cy="136" fill="#a5c3dc" r="8"/></g><g><circle cx="216" cy="168" fill="#a5c3dc" r="8"/></g><g><circle cx="184" cy="104" fill="#a5c3dc" r="8"/></g><g><circle cx="200" cy="72" fill="#a5c3dc" r="8"/></g></g><g><g><path d="m144 496c-53.019 0-96-42.981-96-96v-96h192v96c0 53.019-42.981 96-96 96z" fill="#555a6e"/></g><g><path d="m144 304v192c53.019 0 96-42.98 96-96v-96z" fill="#463c4b"/></g><g><circle cx="144" cy="304" fill="#d7e6f0" r="96"/></g><g><g><g><path d="m177.941 270.059-11.314-11.314c-12.497-12.497-32.758-12.497-45.255 0l-11.314 11.314 33.942 33.941z" fill="#91c83c"/></g><g><path d="m110.059 270.059-11.314 11.314c-12.497 12.497-12.497 32.758 0 45.255l22.627 22.627c12.497 12.497 32.758 12.497 45.255 0l11.314-11.314z" fill="#f06423"/></g><g><path d="m144 304 33.941 33.941 11.314-11.314c12.497-12.497 12.497-32.758 0-45.255l-11.314-11.314z" fill="#f04b37"/></g></g><path d="m115.716 287.03c.007-.007.014-.015.022-.022l5.635-5.635-5.639-5.639c-.006-.006-.012-.012-.018-.018s-.012-.012-.018-.018l-5.64-5.64-5.656 5.657-5.658 5.657c-6.043 6.044-9.372 14.081-9.372 22.627s3.329 16.583 9.372 22.627c1.563 1.562 3.609 2.343 5.657 2.343 2.047 0 4.095-.781 5.657-2.343 3.124-3.124 3.125-8.189 0-11.314-3.022-3.022-4.687-7.041-4.687-11.314s1.665-8.292 4.686-11.313z" fill="#faa019"/><path d="m144 249.373c-8.547 0-16.583 3.329-22.627 9.373l-3.771 3.771-7.542 7.542 5.658 5.658 5.656 5.656 5.656-5.656 5.658-5.658c3.022-3.022 7.04-4.686 11.313-4.686 4.418 0 8-3.582 8-8s-3.583-8-8.001-8z" fill="#afd763"/></g><g><circle cx="168" cy="232" fill="#a5c3dc" r="8"/></g><g><circle cx="200" cy="248" fill="#a5c3dc" r="8"/></g><g><circle cx="216" cy="328" fill="#a5c3dc" r="8"/></g><g><circle cx="104" cy="360" fill="#a5c3dc" r="8"/></g><g><circle cx="72" cy="296" fill="#a5c3dc" r="8"/></g><g><circle cx="88" cy="264" fill="#a5c3dc" r="8"/></g></g><g><g><path d="m368 496c-53.019 0-96-42.981-96-96v-96h192v96c0 53.019-42.981 96-96 96z" fill="#555a6e"/></g><g><path d="m368 304v192c53.019 0 96-42.98 96-96v-96z" fill="#463c4b"/></g><g><circle cx="368" cy="304" fill="#d7e6f0" r="96"/></g><g><g><g><path d="m401.941 270.059-11.314-11.314c-12.497-12.497-32.758-12.497-45.255 0l-11.314 11.314 33.942 33.941z" fill="#91c83c"/></g><g><path d="m334.059 270.059-11.314 11.314c-12.497 12.497-12.497 32.758 0 45.255l22.627 22.627c12.497 12.497 32.758 12.497 45.255 0l11.314-11.314z" fill="#f06423"/></g><g><path d="m368 304 33.941 33.941 11.314-11.314c12.497-12.497 12.497-32.758 0-45.255l-11.314-11.314z" fill="#f04b37"/></g></g><path d="m339.716 287.03c.007-.007.014-.015.022-.022l5.635-5.635-5.639-5.639c-.006-.006-.012-.012-.018-.018s-.012-.012-.018-.018l-5.639-5.64-5.656 5.657-5.658 5.657c-6.043 6.044-9.372 14.081-9.372 22.627s3.329 16.583 9.372 22.627c1.563 1.562 3.609 2.343 5.657 2.343 2.047 0 4.095-.781 5.657-2.343 3.124-3.124 3.125-8.189 0-11.314-3.022-3.022-4.687-7.041-4.687-11.314s1.665-8.292 4.686-11.313z" fill="#faa019"/><path d="m368 249.373c-8.547 0-16.583 3.329-22.627 9.373l-3.771 3.771-7.542 7.542 5.658 5.658 5.656 5.656 5.656-5.656 5.658-5.658c3.022-3.022 7.04-4.686 11.313-4.686 4.418 0 8-3.582 8-8s-3.583-8-8.001-8z" fill="#afd763"/></g><g><circle cx="392" cy="232" fill="#a5c3dc" r="8"/></g><g><circle cx="424" cy="248" fill="#a5c3dc" r="8"/></g><g><circle cx="440" cy="328" fill="#a5c3dc" r="8"/></g><g><circle cx="328" cy="360" fill="#a5c3dc" r="8"/></g><g><circle cx="296" cy="296" fill="#a5c3dc" r="8"/></g><g><circle cx="312" cy="264" fill="#a5c3dc" r="8"/></g></g></g></svg>