<svg id="Layer_1" enable-background="new 0 0 512 512" height="512" viewBox="0 0 512 512" width="512" xmlns="http://www.w3.org/2000/svg"><g><g><path d="m256 132.004c-12.925-2.624-26.301-4.004-40-4.004-110.457 0-200 89.543-200 200v16c0 22.091 17.909 40 40 40 22.091 0 40-17.909 40-40v-16c0-96.758 68.711-177.464 160-195.996z" fill="#f06423"/></g><g><circle cx="72" cy="304" fill="#e1322d" r="40"/></g><g><circle cx="192" cy="152" fill="#5faa46" r="40"/></g><g><circle cx="112" cy="184" fill="#e1322d" r="40"/></g><g><circle cx="352" cy="168" fill="#e1322d" r="40"/></g><g><circle cx="288" cy="152" fill="#5faa46" r="40"/></g><g><circle cx="240" cy="152" fill="#91c83c" r="40"/></g><g><g><circle cx="64" cy="336" fill="#a55023" r="32"/></g><g><circle cx="80" cy="272" fill="#a55023" r="32"/></g><g><circle cx="112" cy="216" fill="#a55023" r="32"/></g><g><circle cx="160" cy="192" fill="#a55023" r="32"/></g><g><circle cx="112" cy="256" fill="#d26e28" r="32"/></g><g><circle cx="80" cy="304" fill="#d26e28" r="16"/></g><g><circle cx="128" cy="186.667" fill="#d26e28" r="16"/></g><g><circle cx="48" cy="336" fill="#f28a39" r="16"/></g><g><circle cx="88" cy="240" fill="#f28a39" r="16"/></g></g><g><circle cx="128" cy="248" fill="#e1322d" r="40"/></g><g><path d="m296 128c-110.457 0-200 89.543-200 200v16c0 22.091-17.909 40-40 40h400c22.091 0 40-17.909 40-40v-16c0-110.457-89.543-200-200-200z" fill="#faa019"/></g><g><path d="m104 352c-4.418 0-8-3.582-8-8v-16c0-110.28 89.72-200 200-200 4.418 0 8 3.582 8 8s-3.582 8-8 8c-101.458 0-184 82.542-184 184v16c0 4.418-3.582 8-8 8z" fill="#ffd23c"/></g><g><g><circle cx="404" cy="268" fill="#f57828" r="12"/></g><g><circle cx="340" cy="236" fill="#f57828" r="12"/></g><g><circle cx="232" cy="320" fill="#f57828" r="16"/></g><g><circle cx="364" cy="324" fill="#f57828" r="4"/></g><g><circle cx="208" cy="264" fill="#f57828" r="8"/></g></g></g></svg>