<svg id="Layer_1" enable-background="new 0 0 512 512" height="512" viewBox="0 0 512 512" width="512" xmlns="http://www.w3.org/2000/svg"><g><g><path d="m168 192h-16v-124c0-2.209 1.791-4 4-4h8c2.209 0 4 1.791 4 4z" fill="#f06423"/></g><g><path d="m160 192h-8v-124c0-2.209 1.791-4 4-4 2.209 0 4 1.791 4 4z" fill="#faa019"/></g><g><path d="m264 192h-16v-124c0-2.209 1.791-4 4-4h8c2.209 0 4 1.791 4 4z" fill="#f06423"/></g><g><path d="m256 192h-8v-124c0-2.209 1.791-4 4-4 2.209 0 4 1.791 4 4z" fill="#faa019"/></g><g><path d="m360 192h-16v-124c0-2.209 1.791-4 4-4h8c2.209 0 4 1.791 4 4z" fill="#f06423"/></g><g><path d="m352 192h-8v-124c0-2.209 1.791-4 4-4 2.209 0 4 1.791 4 4z" fill="#faa019"/></g><g><g><circle cx="256" cy="208" fill="#5faa46" r="48"/></g><g><path d="m256 160c-26.51 0-48 21.49-48 48 0 13.255 10.745 24 24 24s24-10.745 24-24z" fill="#91c83c"/></g><g><circle cx="232" cy="184" fill="#c8e66e" r="8"/></g></g><g><g><circle cx="160" cy="208" fill="#5faa46" r="48"/></g><g><path d="m160 160c-26.51 0-48 21.49-48 48 0 13.255 10.745 24 24 24s24-10.745 24-24z" fill="#91c83c"/></g><g><circle cx="136" cy="184" fill="#c8e66e" r="8"/></g></g><g><g><circle cx="352" cy="208" fill="#5faa46" r="48"/></g><g><path d="m352 160c-26.51 0-48 21.49-48 48 0 13.255 10.745 24 24 24s24-10.745 24-24z" fill="#91c83c"/></g><g><circle cx="328" cy="184" fill="#c8e66e" r="8"/></g></g><g><path d="m72.399 240h368v16h-368z" fill="#e1322d"/></g><g><path d="m32 384h448c8.837 0 16 7.163 16 16 0 8.837-7.163 16-16 16h-448c-8.837 0-16-7.163-16-16 0-8.837 7.163-16 16-16z" fill="#d7e6f0"/></g><g><path d="m77.333 416h357.333l-25.473 23.514c-5.911 5.456-13.66 8.486-21.705 8.486h-262.977c-8.044 0-15.794-3.03-21.705-8.486z" fill="#a5c3dc"/></g><g><path d="m459.455 320h-398.111c-3.03 0-5.8 1.712-7.155 4.422l-24 48c-2.66 5.319 1.208 11.578 7.155 11.578h398.111c3.03 0 5.8-1.712 7.155-4.422l24-48c2.66-5.319-1.208-11.578-7.155-11.578z" fill="#faa019"/></g><g><path d="m248.399 320v64h187.056c3.03 0 5.8-1.712 7.155-4.422l24-48c2.66-5.319-1.208-11.578-7.155-11.578z" fill="#f06423"/></g><g><path d="m64.399 312c0 4.418 3.582 8 8 8h8l17.689 8.845c9.412 4.705 19.789 7.155 30.311 7.155s20.9-2.45 30.311-7.155l3.378-1.689c9.412-4.706 19.789-7.156 30.311-7.156s20.9 2.45 30.311 7.155l3.378 1.689c9.412 4.706 19.789 7.156 30.311 7.156s20.9-2.45 30.311-7.155l3.378-1.689c9.412-4.706 19.789-7.156 30.311-7.156s20.9 2.45 30.311 7.155l3.378 1.689c9.412 4.706 19.789 7.156 30.311 7.156s20.9-2.45 30.311-7.155l17.689-8.845h8c4.418 0 8-3.582 8-8 0-4.418-3.582-8-8-8h-368c-4.418 0-8 3.582-8 8z" fill="#4b8c41"/></g><g><path d="m64.399 296c0 4.418 3.582 8 8 8h8l17.689 8.845c9.412 4.705 19.789 7.155 30.311 7.155s20.9-2.45 30.311-7.155l3.378-1.689c9.412-4.706 19.789-7.156 30.311-7.156s20.9 2.45 30.311 7.155l3.378 1.689c9.412 4.706 19.789 7.156 30.311 7.156s20.9-2.45 30.311-7.155l3.378-1.689c9.412-4.706 19.789-7.156 30.311-7.156s20.9 2.45 30.311 7.155l3.378 1.689c9.412 4.706 19.789 7.156 30.311 7.156s20.9-2.45 30.311-7.155l17.689-8.845h8c4.418 0 8-3.582 8-8 0-4.418-3.582-8-8-8h-368c-4.418 0-8 3.582-8 8z" fill="#91c83c"/></g><g><path d="m152.399 304v32c0 8.837 7.163 16 16 16 8.837 0 16-7.163 16-16v-24c0-4.418 3.582-8 8-8 4.418 0 8 3.582 8 8 0 8.837 7.163 16 16 16 8.837 0 16-7.163 16-16v-8c0-8.837 7.163-16 16-16h-112c8.837 0 16 7.163 16 16z" fill="#ffd23c"/></g><g><path d="m440.399 256h-368c-8.837 0-16 7.163-16 16 0 8.837 7.163 16 16 16h368c8.837 0 16-7.163 16-16 0-8.837-7.163-16-16-16z" fill="#faa019"/></g><g><path d="m248.399 256h-176c-8.837 0-16 7.163-16 16 0 8.837 7.163 16 16 16h176c8.837 0 16-7.163 16-16 0-8.837-7.163-16-16-16z" fill="#ffd23c"/></g><g><path d="m440.399 256c-12.192 0-18.546-5.524-23.651-9.963-4.182-3.635-6.943-6.037-13.153-6.037s-8.972 2.402-13.153 6.037c-5.105 4.438-11.459 9.963-23.652 9.963-12.191 0-18.544-5.524-23.648-9.963-4.181-3.635-6.943-6.037-13.151-6.037s-8.971 2.401-13.151 6.037c-5.104 4.438-11.457 9.963-23.649 9.963-12.191 0-18.544-5.524-23.649-9.963-4.18-3.635-6.941-6.037-13.149-6.037s-8.97 2.401-13.149 6.037c-5.105 4.439-11.458 9.963-23.649 9.963-12.19 0-18.543-5.524-23.647-9.963-4.18-3.635-6.94-6.037-13.147-6.037s-8.969 2.401-13.148 6.037c-5.104 4.439-11.458 9.963-23.649 9.963-12.192 0-18.545-5.524-23.649-9.963-4.181-3.635-6.942-6.037-13.15-6.037s-8.97 2.401-13.149 6.037c-5.113 4.439-11.465 9.963-23.657 9.963-4.418 0-8-3.582-8-8s3.582-8 8-8c6.208 0 8.97-2.401 13.149-6.037 5.105-4.439 11.458-9.963 23.649-9.963s18.544 5.524 23.648 9.963c4.181 3.635 6.942 6.037 13.151 6.037 6.208 0 8.97-2.401 13.149-6.037 5.104-4.438 11.457-9.963 23.648-9.963 12.19 0 18.543 5.524 23.647 9.963 4.18 3.635 6.94 6.037 13.147 6.037 6.208 0 8.97-2.401 13.149-6.037 5.105-4.439 11.458-9.963 23.649-9.963s18.544 5.524 23.649 9.963c4.18 3.635 6.941 6.037 13.149 6.037s8.971-2.401 13.151-6.037c5.104-4.438 11.457-9.963 23.649-9.963s18.545 5.524 23.649 9.963c4.181 3.635 6.942 6.037 13.15 6.037 6.21 0 8.973-2.402 13.154-6.038 5.105-4.438 11.459-9.962 23.651-9.962s18.546 5.524 23.651 9.963c4.182 3.635 6.943 6.037 13.153 6.037 4.418 0 8 3.582 8 8s-3.574 8-7.992 8z" fill="#f04b37"/></g></g></svg>