<svg id="Layer_1" enable-background="new 0 0 512 512" height="512" viewBox="0 0 512 512" width="512" xmlns="http://www.w3.org/2000/svg"><g><g><path d="m480 224h-450.667c-8.837 0-16-7.163-16-16 0-8.837 7.163-16 16-16h450.667c8.837 0 16 7.163 16 16 0 8.837-7.163 16-16 16z" fill="#f06423"/></g><g><path d="m256 224h-226.667c-8.837 0-16-7.163-16-16 0-8.837 7.163-16 16-16h226.667c8.837 0 16 7.163 16 16 0 8.837-7.163 16-16 16z" fill="#faa019"/></g><g><path d="m384 352h-256c-53.019 0-96-42.981-96-96v-32h448v32c0 53.019-42.981 96-96 96z" fill="#f06423"/></g><g><path d="m256 352h-128c-53.019 0-96-42.981-96-96v-16h192c17.673 0 32 14.327 32 32z" fill="#faa019"/></g><g><path d="m256 64c-10.461 0-20.717 2.903-29.627 8.386l-194.373 119.614h448l-194.373-119.614c-8.91-5.483-19.166-8.386-29.627-8.386z" fill="#d7e6f0"/></g><g><path d="m288.735 80c-18.079 0-32.735 14.656-32.735 32.735v79.265h224l-174.109-107.144c-5.159-3.175-11.098-4.856-17.156-4.856z" fill="#a5c3dc"/></g><g><circle cx="256" cy="352" fill="#d7e6f0" r="112"/></g><g><g><path d="m264 320v-48c0-4.418-3.582-8-8-8-4.418 0-8 3.582-8 8v48c0 4.418-3.582 8-8 8v8h32v-8c-4.418 0-8-3.582-8-8z" fill="#a55023"/></g><g><path d="m184 408c30.928 0 56-25.072 56-56v-24h-8c-30.928 0-56 25.072-56 56v16c0 4.418 3.582 8 8 8z" fill="#a55023"/></g><g><path d="m328 408c-30.928 0-56-25.072-56-56v-24h8c30.928 0 56 25.072 56 56v16c0 4.418-3.582 8-8 8z" fill="#a55023"/></g><g><path d="m264 420-3.2 2.4c-1.385 1.039-3.069 1.6-4.8 1.6-1.731 0-3.415-.561-4.8-1.6l-3.2-2.4c-10.072-7.554-16-19.41-16-32v-44c0-8.837 7.163-16 16-16h16c8.837 0 16 7.163 16 16v44c0 12.59-5.928 24.446-16 32z" fill="#a55023"/></g><g><path d="m244 400c6.627 0 12-5.373 12-12v-60h-8c-8.837 0-16 7.163-16 16v44c0 6.627 5.373 12 12 12z" fill="#d26e28"/></g></g></g></svg>