<svg id="Layer_1" enable-background="new 0 0 512 512" height="512" viewBox="0 0 512 512" width="512" xmlns="http://www.w3.org/2000/svg"><g><g><circle cx="256" cy="256" fill="#a5c3dc" r="240"/></g><g><circle cx="256" cy="256" fill="#f5871e" r="208"/></g><g><path d="m48 256c0 28.364 5.686 55.396 15.966 80.034 24.637 10.28 51.67 15.966 80.034 15.966 114.875 0 208-93.125 208-208 0-28.364-5.686-55.397-15.966-80.034-24.637-10.28-51.67-15.966-80.034-15.966-114.875 0-208 93.125-208 208z" fill="#faa019"/></g><path d="m56 264c4.418 0 8-3.582 8-8 0-105.869 86.131-192 192-192 4.418 0 8-3.582 8-8s-3.582-8-8-8c-114.875 0-208 93.125-208 208 0 4.418 3.582 8 8 8z" fill="#ffd23c"/><g><path d="m256 496c-8.836 0-16-7.164-16-16s7.164-16 16-16c114.691 0 208-93.309 208-208 0-8.836 7.164-16 16-16s16 7.164 16 16c0 64.106-24.964 124.375-70.294 169.706s-105.6 70.294-169.706 70.294z" fill="#d7e6f0"/></g><g><path d="m24 152c-2.047 0-4.095-.781-5.657-2.343-3.125-3.124-3.125-8.189 0-11.313l1.355-1.355c10.955-10.956 25.52-16.989 41.012-16.989h35.29c4.418 0 8 3.582 8 8s-3.582 8-8 8h-35.29c-11.218 0-21.766 4.369-29.698 12.301l-1.355 1.355c-1.562 1.563-3.61 2.344-5.657 2.344z" fill="#e1322d"/></g><g><path d="m48 176c-2.047 0-4.095-.781-5.657-2.343-3.125-3.124-3.125-8.189 0-11.313l1.355-1.355c10.955-10.956 25.52-16.989 41.012-16.989h35.29c4.418 0 8 3.582 8 8s-3.582 8-8 8h-35.29c-11.218 0-21.766 4.369-29.698 12.301l-1.355 1.355c-1.562 1.563-3.61 2.344-5.657 2.344z" fill="#e1322d"/></g><g><path d="m256 96c79.532 0 144 64.468 144 144s-64.468 144-144 144v-32c35.347 0 64-28.653 64-64s-28.653-64-64-64z" fill="#e1322d"/></g><g><path d="m256 96h-232c-4.418 0-8 3.582-8 8s3.582 8 8 8h9.582c16.905 0 32.046 10.606 37.663 26.55 17.539 49.775 64.98 85.45 120.755 85.45h64c35.346 0 64-28.654 64-64s-28.654-64-64-64z" fill="#f04b37"/></g><g><path d="m248 112h-224c-4.418 0-8-3.582-8-8 0-4.418 3.582-8 8-8h224c4.418 0 8 3.582 8 8 0 4.418-3.582 8-8 8z" fill="#f5826e"/></g><g><path d="m208 320h16c17.673 0 32 14.327 32 32h-48c-8.837 0-16-7.163-16-16 0-8.837 7.163-16 16-16z" fill="#e1322d"/></g><g><path d="m208 384h48v-32h-48c-8.837 0-16 7.163-16 16 0 8.837 7.163 16 16 16z" fill="#e1322d"/></g><g><circle cx="120" cy="104" fill="#463c4b" r="8"/></g><g><g><circle cx="128" cy="288" fill="#91c83c" r="64"/></g><path d="m184 284h-46.343l32.77-32.77c1.562-1.563 1.562-4.095 0-5.657-1.563-1.562-4.095-1.562-5.657 0l-32.77 32.77v-46.343c0-2.209-1.791-4-4-4s-4 1.791-4 4v46.343l-32.77-32.77c-1.563-1.562-4.095-1.562-5.657 0-1.562 1.563-1.562 4.095 0 5.657l32.77 32.77h-46.343c-2.209 0-4 1.791-4 4s1.791 4 4 4h46.343l-32.77 32.77c-1.562 1.563-1.562 4.095 0 5.657.781.781 1.805 1.171 2.829 1.171s2.047-.391 2.829-1.171l32.77-32.77v46.343c0 2.209 1.791 4 4 4s4-1.791 4-4v-46.343l32.77 32.77c.781.781 1.805 1.171 2.829 1.171s2.047-.391 2.829-1.171c1.562-1.563 1.562-4.095 0-5.657l-32.772-32.77h46.343c2.209 0 4-1.791 4-4s-1.791-4-4-4z" fill="#5faa46"/><g><g><path d="m128 232c30.878 0 56 25.122 56 56s-25.122 56-56 56-56-25.122-56-56 25.121-56 56-56m0-8c-35.346 0-64 28.654-64 64s28.654 64 64 64 64-28.654 64-64-28.654-64-64-64z" fill="#4b8c41"/></g></g></g><g><path d="m316 416h-4c-13.255 0-24 10.745-24 24v4c0 2.209 1.791 4 4 4h4c13.255 0 24-10.745 24-24v-4c0-2.209-1.791-4-4-4z" fill="#4b8c41"/></g><g><path d="m228 256h4c13.255 0 24 10.745 24 24v4c0 2.209-1.791 4-4 4h-4c-13.255 0-24-10.745-24-24v-4c0-2.209 1.791-4 4-4z" fill="#4b8c41"/></g><g><path d="m444 192h-4c-13.255 0-24 10.745-24 24v4c0 2.209 1.791 4 4 4h4c13.255 0 24-10.745 24-24v-4c0-2.209-1.791-4-4-4z" fill="#4b8c41"/></g><g><circle cx="384" cy="320" fill="#f06423" r="32"/></g><g><circle cx="352" cy="176" fill="#f06423" r="16"/></g><g><circle cx="144" cy="384" fill="#f06423" r="16"/></g><g><circle cx="360" cy="376" fill="#f06423" r="8"/></g><g><circle cx="226.667" cy="434.667" fill="#f04b37" r="8"/></g><g><circle cx="309.333" cy="82.667" fill="#f04b37" r="8"/></g><g><circle cx="80" cy="208" fill="#f04b37" r="8"/></g><g><circle cx="432" cy="277.333" fill="#f04b37" r="8"/></g><g><circle cx="280" cy="312" fill="#f06423" r="8"/></g></g></svg>