<svg id="Layer_1" enable-background="new 0 0 512 512" height="512" viewBox="0 0 512 512" width="512" xmlns="http://www.w3.org/2000/svg"><g><g><circle cx="256" cy="256" fill="#d7e6f0" r="240"/></g><g><circle cx="264" cy="264" fill="#a5c3dc" r="184"/></g><g><g><circle cx="256" cy="256" fill="#f06423" r="176"/></g><g><path d="m88 264c-4.418 0-8-3.582-8-8 0-97.047 78.953-176 176-176 4.418 0 8 3.582 8 8s-3.582 8-8 8c-88.224 0-160 71.776-160 160 0 4.418-3.582 8-8 8z" fill="#faa019"/></g></g><g><g><circle cx="256" cy="256" fill="#f06423" r="176"/></g><path d="m88 264c4.418 0 8-3.582 8-8 0-88.224 71.776-160 160-160 4.418 0 8-3.582 8-8s-3.582-8-8-8c-97.202 0-176 78.798-176 176 0 4.418 3.582 8 8 8z" fill="#faa019"/></g><g><g><path d="m268.765 325.333c-13.255 0-24-10.745-24-24v-80c0-13.255 10.745-24 24-24 13.255 0 24 10.745 24 24v80c0 13.255-10.745 24-24 24z" fill="#faa019"/></g><g><path d="m256.765 309.333c6.627 0 12-5.373 12-12v-100c-13.255 0-24 10.745-24 24v76c0 6.628 5.372 12 12 12z" fill="#ffd205"/></g></g><g><g><path d="m251.637 385.539c-9.373 9.373-24.569 9.373-33.941 0l-56.569-56.569c-9.373-9.373-9.373-24.569 0-33.941 9.373-9.373 24.569-9.373 33.941 0l56.569 56.569c9.373 9.373 9.373 24.569 0 33.941z" fill="#faa019"/></g><g><path d="m231.838 382.711c4.686-4.686 4.686-12.284 0-16.971l-70.711-70.711c-9.373 9.373-9.373 24.569 0 33.941l53.74 53.74c4.687 4.687 12.285 4.687 16.971.001z" fill="#ffd205"/></g></g><g><g><path d="m236.765 253.333c0-13.255-10.745-24-24-24h-64c-13.255 0-24 10.745-24 24 0 13.255 10.745 24 24 24h64c13.255 0 24-10.745 24-24z" fill="#faa019"/></g><g><path d="m220.765 241.333c0 6.627-5.373 12-12 12h-84c0-13.255 10.745-24 24-24h60c6.627 0 12 5.373 12 12z" fill="#ffd205"/></g></g><g><g><path d="m254.304 124.363c-9.373-9.373-24.569-9.373-33.941 0l-56.569 56.569c-9.373 9.373-9.373 24.569 0 33.941 9.373 9.373 24.569 9.373 33.941 0l56.569-56.569c9.372-9.373 9.372-24.569 0-33.941z" fill="#faa019"/></g><g><path d="m234.505 127.191c4.686 4.686 4.686 12.284 0 16.971l-70.711 70.711c-9.373-9.373-9.373-24.569 0-33.941l53.74-53.74c4.687-4.687 12.285-4.687 16.971-.001z" fill="#ffd205"/></g></g><g><g><path d="m374.304 244.206c-9.373 9.373-24.569 9.373-33.941 0l-56.569-56.569c-9.373-9.373-9.373-24.569 0-33.941 9.373-9.373 24.569-9.373 33.941 0l56.569 56.569c9.372 9.372 9.372 24.568 0 33.941z" fill="#faa019"/></g><g><path d="m354.505 241.377c4.686-4.686 4.686-12.284 0-16.971l-70.711-70.711c-9.373 9.373-9.373 24.569 0 33.941l53.74 53.74c4.687 4.688 12.285 4.688 16.971.001z" fill="#ffd205"/></g></g><g><g><path d="m280.559 372.206c-9.373-9.373-9.373-24.569 0-33.941l56.569-56.569c9.373-9.373 24.569-9.373 33.941 0 9.373 9.373 9.373 24.569 0 33.941l-56.569 56.569c-9.372 9.372-24.568 9.372-33.941 0z" fill="#faa019"/></g><g><path d="m283.387 352.407c4.686 4.686 12.284 4.686 16.971 0l70.711-70.711c-9.373-9.373-24.569-9.373-33.941 0l-53.74 53.74c-4.687 4.687-4.687 12.284-.001 16.971z" fill="#ffd205"/></g></g><g><g><circle cx="332.134" cy="180.006" fill="#d7e6f0" r="4"/></g><g><circle cx="297.961" cy="201.59" fill="#d7e6f0" r="4"/></g><g><circle cx="264.495" cy="152.321" fill="#d7e6f0" r="4"/></g><g><circle cx="211.596" cy="195.29" fill="#d7e6f0" r="4"/></g><g><circle cx="186.084" cy="180.481" fill="#d7e6f0" r="4"/></g><g><circle cx="243.207" cy="156.712" fill="#d7e6f0" r="4"/></g><g><circle cx="188.598" cy="288.893" fill="#d7e6f0" r="4"/></g><g><circle cx="153.334" cy="275.279" fill="#d7e6f0" r="4"/></g><g><circle cx="179.715" cy="221.138" fill="#d7e6f0" r="4"/></g><g><circle cx="316.549" cy="301.304" fill="#d7e6f0" r="4"/></g><g><circle cx="266.125" cy="273.893" fill="#d7e6f0" r="4"/></g><g><circle cx="274.378" cy="233.482" fill="#d7e6f0" r="4"/></g><g><circle cx="364.54" cy="282.111" fill="#d7e6f0" r="4"/></g><g><circle cx="312.791" cy="246.598" fill="#d7e6f0" r="4"/></g><g><circle cx="356.893" cy="226.624" fill="#d7e6f0" r="4"/></g><g><circle cx="204.415" cy="353.332" fill="#d7e6f0" r="4"/></g><g><circle cx="180.188" cy="338.077" fill="#d7e6f0" r="4"/></g><g><circle cx="226.451" cy="280.869" fill="#d7e6f0" r="4"/></g><g><circle cx="282.782" cy="350.555" fill="#d7e6f0" r="4"/></g><g><circle cx="289.557" cy="325.23" fill="#d7e6f0" r="4"/></g><g><circle cx="330.461" cy="330.577" fill="#d7e6f0" r="4"/></g></g><g><path d="m256 204c-6.617 0-12-5.383-12-12s5.383-12 12-12 12 5.383 12 12-5.383 12-12 12zm0-16c-2.206 0-4 1.794-4 4s1.794 4 4 4 4-1.794 4-4-1.794-4-4-4z" fill="#91c83c"/></g><g><path d="m192 268c-6.617 0-12-5.383-12-12s5.383-12 12-12 12 5.383 12 12-5.383 12-12 12zm0-16c-2.206 0-4 1.794-4 4s1.794 4 4 4 4-1.794 4-4-1.794-4-4-4z" fill="#91c83c"/></g><g><path d="m296 292c-6.617 0-12-5.383-12-12s5.383-12 12-12 12 5.383 12 12-5.383 12-12 12zm0-16c-2.206 0-4 1.794-4 4s1.794 4 4 4 4-1.794 4-4-1.794-4-4-4z" fill="#91c83c"/></g><g><path d="m288 238.667c-6.617 0-12-5.383-12-12s5.383-12 12-12 12 5.383 12 12-5.383 12-12 12zm0-16c-2.206 0-4 1.794-4 4s1.794 4 4 4 4-1.794 4-4-1.794-4-4-4z" fill="#91c83c"/></g><g><path d="m232 340c-6.617 0-12-5.383-12-12s5.383-12 12-12 12 5.383 12 12-5.383 12-12 12zm0-16c-2.206 0-4 1.794-4 4s1.794 4 4 4 4-1.794 4-4-1.794-4-4-4z" fill="#91c83c"/></g><g><path d="m256 268c-6.617 0-12-5.383-12-12s5.383-12 12-12 12 5.383 12 12-5.383 12-12 12zm0-16c-2.206 0-4 1.794-4 4s1.794 4 4 4 4-1.794 4-4-1.794-4-4-4z" fill="#5faa46"/></g><g><path d="m328 244c-6.617 0-12-5.383-12-12s5.383-12 12-12 12 5.383 12 12-5.383 12-12 12zm0-16c-2.206 0-4 1.794-4 4s1.794 4 4 4 4-1.794 4-4-1.794-4-4-4z" fill="#5faa46"/></g><g><path d="m285.333 254.667c-6.617 0-12-5.383-12-12s5.383-12 12-12 12 5.383 12 12-5.383 12-12 12zm0-16c-2.206 0-4 1.794-4 4s1.794 4 4 4 4-1.794 4-4-1.794-4-4-4z" fill="#5faa46"/></g><g><path d="m242.667 241.333c-6.617 0-12-5.383-12-12s5.383-12 12-12 12 5.383 12 12-5.384 12-12 12zm0-16c-2.206 0-4 1.794-4 4s1.794 4 4 4 4-1.794 4-4-1.795-4-4-4z" fill="#5faa46"/></g><g><path d="m274.667 297.333c-6.617 0-12-5.383-12-12s5.383-12 12-12 12 5.383 12 12-5.384 12-12 12zm0-16c-2.206 0-4 1.794-4 4s1.794 4 4 4 4-1.794 4-4-1.795-4-4-4z" fill="#5faa46"/></g><g><path d="m237.333 300c-6.617 0-12-5.383-12-12s5.383-12 12-12 12 5.383 12 12-5.383 12-12 12zm0-16c-2.206 0-4 1.794-4 4s1.794 4 4 4 4-1.794 4-4-1.794-4-4-4z" fill="#5faa46"/></g></g></svg>