<svg id="Layer_1" enable-background="new 0 0 512 512" height="512" viewBox="0 0 512 512" width="512" xmlns="http://www.w3.org/2000/svg"><g><g><g><path d="m256 80v15.972c0 32.381-19.587 61.41-49.45 73.93-46.139 19.342-78.548 64.933-78.55 118.094-.002 70.628 57.376 128.006 128.004 128.004 70.691-.002 127.996-57.309 127.996-128 0-53.089-32.32-98.629-78.358-118.018-29.913-12.597-49.642-41.556-49.642-74.014v-15.968c114.875 0 207.999 93.124 208 207.999.001 115.215-92.787 208.002-208.002 208.001-114.874-.001-207.998-93.126-207.998-208 0-114.875 93.125-208 208-208z" fill="#e1322d"/></g></g><g><path d="m272 80h-32c-4.418 0-8-3.582-8-8 0-4.418 3.582-8 8-8h32c4.418 0 8 3.582 8 8 0 4.418-3.582 8-8 8z" fill="#faa019"/></g><g><path d="m232 53.657c0 1.5.596 2.939 1.657 4l6.343 6.343h32l6.343-6.343c1.061-1.061 1.657-2.5 1.657-4 0-3.124-2.533-5.657-5.657-5.657h-36.686c-3.124 0-5.657 2.533-5.657 5.657z" fill="#e1322d"/></g><g><path d="m248 16h16v32h-16z" fill="#faa019"/></g><path d="m256 80c-114.875 0-208 93.125-208 208 0 22.091 17.909 40 40 40s40-17.909 40-40c0-.001 0-.003 0-.004.002-53.161 32.411-98.752 78.55-118.095 29.863-12.519 49.45-41.547 49.45-73.929v-.004c0 32.458 19.729 61.417 49.642 74.014 46.038 19.389 78.358 64.929 78.358 118.018 0 22.091 17.909 40 40 40s40-17.909 40-40v-.001c-.001-114.874-93.125-207.999-208-207.999z" fill="#f04b37"/><g><path d="m72 296c-4.418 0-8-3.582-8-8 0-46.678 17.017-91.703 47.916-126.78 30.616-34.756 72.581-57.299 118.164-63.477 4.376-.595 8.408 2.475 9.002 6.854.593 4.378-2.475 8.408-6.854 9.002-86.784 11.761-152.228 86.737-152.228 174.401 0 4.418-3.582 8-8 8z" fill="#f5826e"/></g><g><path d="m440 296c-4.418 0-8-3.582-8-8 0-87.664-65.444-162.64-152.228-174.401-4.378-.594-7.447-4.624-6.854-9.002s4.629-7.443 9.002-6.854c45.583 6.178 87.547 28.721 118.164 63.477 30.899 35.077 47.916 80.102 47.916 126.78 0 4.418-3.582 8-8 8z" fill="#f5826e"/></g><g><circle cx="408" cy="376" fill="#f04b37" r="8"/></g><g><circle cx="388" cy="388" fill="#f04b37" r="4"/></g><g><circle cx="280" cy="456" fill="#f04b37" r="8"/></g><g><circle cx="260" cy="468" fill="#f04b37" r="4"/></g><g><circle cx="152" cy="400" fill="#f04b37" r="8"/></g><g><circle cx="132" cy="388" fill="#f04b37" r="4"/></g><g><g><circle cx="408" cy="248" fill="#f5826e" r="8"/></g><g><circle cx="388" cy="236" fill="#f5826e" r="4"/></g></g><g><g><circle cx="144" cy="200" fill="#f5826e" r="8"/></g><g><circle cx="124" cy="188" fill="#f5826e" r="4"/></g><g><circle cx="100" cy="284" fill="#f5826e" r="4"/></g><g><circle cx="380" cy="188" fill="#f5826e" r="4"/></g></g><g><circle cx="380" cy="428" fill="#f04b37" r="4"/></g><g><circle cx="196" cy="444" fill="#f04b37" r="4"/></g><g><circle cx="92" cy="348" fill="#f04b37" r="4"/></g></g></svg>