<svg id="Layer_1" enable-background="new 0 0 512 512" height="512" viewBox="0 0 512 512" width="512" xmlns="http://www.w3.org/2000/svg"><g><g><path d="m256 160h-32c-114.875 0-208 93.125-208 208v32c0 8.837 7.163 16 16 16h16c114.875 0 208-93.125 208-208z" fill="#a55023"/></g><g><path d="m256 160h32c114.875 0 208 93.125 208 208v32c0 8.837-7.163 16-16 16h-16c-114.875 0-208-93.125-208-208z" fill="#a55023"/></g><g><path d="m282.298 479.735-12.319 10.95c-3.851 3.424-8.826 5.315-13.979 5.315-5.153 0-10.128-1.891-13.979-5.315l-12.319-10.95c-34.158-30.363-53.702-73.884-53.702-119.586v-152.149c0-26.51 21.49-48 48-48h64c26.51 0 48 21.49 48 48v152.149c0 45.702-19.544 89.223-53.702 119.586z" fill="#d26e28"/></g><g><path d="m256 414.06v-254.06h-32c-26.51 0-48 21.49-48 48v152.149c0 23.992 5.388 47.382 15.448 68.583 5.598 11.799 17.552 19.268 30.612 19.268 18.745 0 33.94-15.195 33.94-33.94z" fill="#f28a39"/></g><g><path d="m280 224h56v-16h-56c-4.418 0-8 3.582-8 8 0 4.418 3.582 8 8 8z" fill="#a55023"/></g><g><path d="m312 288h24v-16h-24c-4.418 0-8 3.582-8 8 0 4.418 3.582 8 8 8z" fill="#a55023"/></g><g><path d="m232 320h-56v-16h56c4.418 0 8 3.582 8 8 0 4.418-3.582 8-8 8z" fill="#d26e28"/></g><g><path d="m208 368h-31.796c.264 5.379.801 10.718 1.597 16h30.199c4.418 0 8-3.582 8-8s-3.582-8-8-8z" fill="#d26e28"/></g><g><path d="m216 176h-27.768c-4.133 4.617-7.382 10.038-9.49 16h37.258c4.418 0 8-3.582 8-8s-3.582-8-8-8z" fill="#d26e28"/></g><g><path d="m184 256h-8v-16h8c4.418 0 8 3.582 8 8 0 4.418-3.582 8-8 8z" fill="#d26e28"/></g><g><path d="m232 240h-16c-4.418 0-8 3.582-8 8 0 4.418 3.582 8 8 8h16c4.418 0 8-3.582 8-8 0-4.418-3.582-8-8-8z" fill="#d26e28"/></g><g><path d="m280 272h-16c-4.418 0-8 3.582-8 8 0 4.418 3.582 8 8 8h16c4.418 0 8-3.582 8-8 0-4.418-3.582-8-8-8z" fill="#a55023"/></g><g><path d="m296 352h40v-16h-40c-4.418 0-8 3.582-8 8 0 4.418 3.582 8 8 8z" fill="#a55023"/></g><g><path d="m224 16h64v144h-64z" fill="#a55023"/></g><g><path d="m224 16h32v144h-32z" fill="#d26e28"/></g><g><path d="m288 112h-64c-4.418 0-8 3.582-8 8 0 4.418 3.582 8 8 8h64c4.418 0 8-3.582 8-8 0-4.418-3.582-8-8-8z" fill="#f28a39"/></g><g><path d="m288 48h-64c-4.418 0-8 3.582-8 8 0 4.418 3.582 8 8 8h64c4.418 0 8-3.582 8-8 0-4.418-3.582-8-8-8z" fill="#f28a39"/></g></g></svg>