<svg id="Capa_1" enable-background="new 0 0 512 512" height="512" viewBox="0 0 512 512" width="512" xmlns="http://www.w3.org/2000/svg"><g><path d="m512 511.5v-300l-266-10 10 310z" fill="#ece6f2"/><path d="m0 511.5h256v-310l-256 10z" fill="#fff5f5"/><path d="m181 391.5h-90v-30h60v-30h-60v-90h90v30h-60v30h60z" fill="#283d66"/><path d="m421 391.5h-90v-150h90zm-60-30h30v-90h-30z" fill="#0f244d"/><g fill="#2ee6a8"><path d="m91 421.5h30v30h-30z"/><path d="m151 421.5h30v30h-30z"/><path d="m211 421.5h30v30h-30z"/></g><path d="m271 421.5h30v30h-30z" fill="#29cccc"/><path d="m331 421.5h30v30h-30z" fill="#29cccc"/><path d="m391 421.5h30v30h-30z" fill="#29cccc"/><path d="m512 181.5-266-10 10 40h256z" fill="#0f244d"/><path d="m0 181.5v30h256v-40z" fill="#283d66"/><path d="m271 271.5v90h-15l-10 16.171 10 13.829h45v-150h-45l-10 15 10 15z" fill="#0f244d"/><path d="m211 391.5h45v-30h-15v-90h15v-30h-45z" fill="#283d66"/><path d="m512 61.5h-256l-10 75 10 45h256z" fill="#cc295f"/><path d="m0 61.5h256v120h-256z" fill="#ff4d4d"/><path d="m422 .5h30v151h-30z" fill="#ece6f2"/><path d="m120 121.5h30v30h-30z" fill="#ffe14d"/><path d="m60 .5h30v151h-30z" fill="#fff5f5"/><path d="m392 121.5h-136l-10 15 10 15h136z" fill="#ffc34d"/><path d="m180 121.5h76v30h-76z" fill="#ffe14d"/></g></svg>