<svg id="Capa_1" enable-background="new 0 0 512 512" height="512" viewBox="0 0 512 512" width="512" xmlns="http://www.w3.org/2000/svg"><g><path d="m384.5 0h-128.5l-10 75h138.5z" fill="#249bb3"/><path d="m384.5 512v-75h-138.5l10 75z" fill="#249bb3"/><g fill="#29cccc"><path d="m127.5 0h128.5v75h-128.5z"/><path d="m127.5 437h128.5v75h-128.5z"/><path d="m384.5 60h-128.5l-10 196 10 196h128.5c37.22 0 67.5-30.28 67.5-67.5v-257c0-37.22-30.28-67.5-67.5-67.5z"/></g><path d="m127.5 60c-37.22 0-67.5 30.28-67.5 67.5v257c0 37.22 30.28 67.5 67.5 67.5h128.5v-392z" fill="#2ee6a8"/><path d="m384.5 90h-128.5l-10 166 10 166h128.5c20.678 0 37.5-16.822 37.5-37.5v-257c0-20.678-16.822-37.5-37.5-37.5z" fill="#0f244d"/><path d="m127.5 90c-20.678 0-37.5 16.822-37.5 37.5v257c0 20.678 16.822 37.5 37.5 37.5h128.5v-332z" fill="#283d66"/><path d="m181 120h30v90h-30z" fill="#fff5f5"/><path d="m301 120h30v90h-30z" fill="#ece6f2"/><path d="m361 120h30v90h-30z" fill="#ece6f2"/><path d="m121 120h30v90h-30z" fill="#fff5f5"/><path d="m361 270h30v30h-30z" fill="#39f"/><path d="m361 330h30v30h-30z" fill="#ffc34d"/><path d="m121 270h30v30h-30z" fill="#ffe14d"/><path d="m121 330h30v30h-30z" fill="#6cf"/><path d="m271 150h-15l-10-15 10-15h15z" fill="#ece6f2"/><path d="m271 210h-15l-10-15 10-15h15z" fill="#ece6f2"/><path d="m241 120h15v30h-15z" fill="#f5f0eb"/><path d="m241 180h15v30h-15z" fill="#f5f0eb"/><path d="m256 365.62 50.12-50.12c13.84-13.84 13.84-36.28 0-50.12s-36.28-13.84-50.12 0l-10 44.93z" fill="#cc295f"/><path d="m205.88 265.38c-13.84 13.84-13.84 36.28 0 50.12l50.12 50.12v-100.24c-13.84-13.84-36.28-13.84-50.12 0z" fill="#ff4d4d"/></g></svg>