<svg id="Capa_1" enable-background="new 0 0 512.35 512.35" height="512" viewBox="0 0 512.35 512.35" width="512" xmlns="http://www.w3.org/2000/svg"><g><path d="m256.936 512.143 55.767-.206c26.399-.097 47.721-21.577 47.624-47.977l-.003-.934-113.568-9.618z" fill="#39f"/><path d="m153.188 463.792.003.934c.097 26.399 21.577 47.721 47.977 47.624l55.767-.206-.18-58.734z" fill="#6cf"/><path d="m256.756 463.409 103.568-.382-.111-30-113.568-9.617z" fill="#297acc"/><path d="m256.645 423.41-103.567 10.382.11 30 103.568-.383z" fill="#39f"/><path d="m256.645 433.41 103.568-.383-.124-33.734-113.568-9.617z" fill="#39f"/><path d="m256.521 389.676-103.568 10.382.125 33.734 103.567-.382z" fill="#6cf"/><path d="m256.521 399.676 103.568-.383-.111-29.999-113.568-9.618z" fill="#297acc"/><path d="m256.41 359.676-103.568 10.382.111 30 103.568-.382z" fill="#39f"/><path d="m256.41 369.676 103.568-.382-.125-33.735-113.567-9.617z" fill="#39f"/><path d="m256.286 325.942-103.568 10.382.124 33.734 103.568-.382z" fill="#6cf"/><path d="m256.286 335.942 103.567-.383-.11-29.999-113.568-9.618z" fill="#297acc"/><path d="m256.175 295.942-103.568 10.382.111 30 103.568-.382z" fill="#39f"/><path d="m256.175 305.942 103.568-.382-.242-65.602-113.568-9.618z" fill="#39f"/><path d="m255.933 230.34-103.568 10.382.242 65.602 103.568-.382z" fill="#6cf"/><path d="m255.933 240.34 103.568-.382-.111-30-113.568-9.618z" fill="#297acc"/><path d="m255.822 200.34-103.568 10.383.111 29.999 103.568-.382z" fill="#39f"/><path d="m255.822 210.34 103.568-.382-.125-33.734-113.567-9.618z" fill="#39f"/><path d="m255.698 166.606-103.568 10.382.124 33.735 103.568-.383z" fill="#6cf"/><path d="m359.135 146.224-113.548-9.618 10.111 40 103.568-.382-.108-29.192c-.001-.27-.018-.538-.023-.808z" fill="#297acc"/><path d="m255.587 136.606-103.548 10.382c-.004.27-.018.538-.017.808l.108 29.192 103.568-.382z" fill="#39f"/><path d="m255.587 146.606 103.548-.382c-.255-12.384-5.296-24.199-14.102-32.94l-49.917-49.55-49.834-9.853z" fill="#39f"/><path d="m255.282 53.881-39.834 10.147-49.55 49.917c-8.741 8.806-13.695 20.658-13.859 33.043l103.548-.382z" fill="#6cf"/><path d="m245.164 21.94 10.118 41.941 39.833-.147-.117-31.794z" fill="#cc295f"/><path d="m215.329 31.94.119 32.088 39.834-.147-.118-41.941z" fill="#ff4d4d"/><path d="m294.998 31.94-.118-31.94-39.834.147-9.941 15.896 10.059 15.897z" fill="#ff4d4d"/><path d="m255.046.147-39.833.147.116 31.646h39.835z" fill="#ff884d"/></g></svg>