<svg id="Capa_1" enable-background="new 0 0 512 512" height="512" viewBox="0 0 512 512" width="512" xmlns="http://www.w3.org/2000/svg"><g><path d="m461.45 331.064c-.183.072-18.646 7.317-53.052 14.469-31.752 6.6-83.968 14.467-152.398 14.467l-10 15.537 10 14.463c137.31 0 213.399-29.804 216.571-31.073z" fill="#29cccc"/><path d="m50.571 331.073-11.143 27.854c3.173 1.269 79.262 31.073 216.572 31.073v-30c-130.951 0-204.721-28.646-205.429-28.927z" fill="#2ee6a8"/><path d="m467 60v-30h-211l-10 75 10 75h211v-30h-44.964c-3.699-8.267-9.036-23.86-9.036-45s5.338-36.733 9.036-45z" fill="#ff4d4d"/><path d="m45 30v30h44.964c3.698 8.267 9.036 23.86 9.036 45s-5.338 36.733-9.036 45h-44.964v30h211v-150z" fill="#ff884d"/><path d="m30 0h30v497h-30z" fill="#fff5f5"/><path d="m452 0h30v497h-30z" fill="#ece6f2"/><path d="m0 482h90v30h-90z" fill="#ece6f2"/><path d="m422 482h90v30h-90z" fill="#cfcfe6"/><path d="m383 105c0-15.565 2.394-31.018 6.934-45h-133.934l-10 45 10 45h133.958c-3.707-11.381-6.958-26.604-6.958-45z" fill="#cc295f"/><path d="m122.042 60c3.707 11.381 6.958 26.604 6.958 45 0 15.565-2.394 31.018-6.934 45h133.934v-90z" fill="#ff4d4d"/></g></svg>