<svg id="Capa_1" enable-background="new 0 0 512 512" height="512" viewBox="0 0 512 512" width="512" xmlns="http://www.w3.org/2000/svg"><g><path d="m456.153 71.568c-2.487-12.515-8.6-23.698-17.227-32.413l-66.566 71.597 27.042 113.381 80.73-31.867z" fill="#ece6f2"/><path d="m55.847 71.568c2.487-12.515 8.6-23.698 17.227-32.413l66.566 71.597-27.042 113.381-80.73-31.867z" fill="#fff5f5"/><path d="m294.069 40.448h-48.069l10 471.552h143.402v-315.428c0-29.129 4.386-58.054 12.958-85.821z" fill="#ff4d4d"/><path d="m217.931 40.448-118.292 70.304c8.573 27.766 12.959 56.691 12.959 85.821v315.427h143.402v-471.552z" fill="#ff884d"/><path d="m192.266 0-89.244 22.126c-11.594 2.875-21.872 8.87-29.948 17.028l20.546 54.065c2.198 5.784 4.198 11.634 6.019 17.532l118.292-60.303h38.069v-50.448z" fill="#ff4d4d"/><path d="m408.978 22.126-89.244-22.126h-63.734v50.448h38.069l118.292 60.303c1.821-5.899 3.82-11.748 6.019-17.532l20.547-54.065c-8.077-8.158-18.355-14.153-29.949-17.028z" fill="#cc295f"/><path d="m256 0-10 31.867 10 31.867c28.093 0 52.581-19.119 59.394-46.374l4.34-17.36z" fill="#cfcfe6"/><path d="m192.266 0 4.34 17.361c6.814 27.254 31.301 46.374 59.394 46.374v-63.735z" fill="#ece6f2"/><path d="m287.867 174.336v-30h-31.867l-10 15 10 15z" fill="#0f244d"/><path d="m224.133 144.336h31.867v30h-31.867z" fill="#283d66"/></g></svg>