<svg id="Capa_1" enable-background="new 0 0 512 512" height="512" viewBox="0 0 512 512" width="512" xmlns="http://www.w3.org/2000/svg"><g><path d="m432.332 179.08c0-22.844-9.075-44.752-25.228-60.905l-38.507-38.507-122.597 21.867 10 410.465h176.332v-265.303l-10-14.936 10-17.536z" fill="#29cccc"/><path d="m256 101.535-112.598-21.867-38.507 38.507c-16.153 16.153-25.228 38.061-25.228 60.905v181.223l10 15.85-10 16.622v119.225h176.333v-400.465z" fill="#2ee6a8"/><path d="m432.332 214.225-72.1 29.865c-20.695-36.165-59.663-60.59-104.232-60.59l-10 120 10 120c66.168 0 120-53.832 120-120 0-10.972-1.488-21.601-4.259-31.705l60.591-25.098z" fill="#ece6f2"/><path d="m256 183.5c-66.168 0-120 53.832-120 120 0 10.972 1.488 21.601 4.259 31.705l-60.591 25.098v32.472l72.1-29.865c20.694 36.165 59.663 60.59 104.232 60.59z" fill="#fff5f5"/><path d="m346 303.5c0-49.626-40.374-90-90-90l-10 90 10 90c49.626 0 90-40.374 90-90z" fill="#cc295f"/><path d="m256 213.5c-49.626 0-90 40.374-90 90s40.374 90 90 90z" fill="#ff4d4d"/><path d="m246 20 10 91.535 112.598-31.867 19.867-49.668z" fill="#249bb3"/><path d="m123.535 30 19.867 49.668 112.598 31.867v-91.535z" fill="#29cccc"/><path d="m287.82 314.106-21.213-21.212 31.819-31.821-21.213-21.213-21.213 21.214-10 42.426 10 42.426z" fill="#ffe14d"/><path d="m245.393 314.106-31.819 31.821 21.213 21.213 21.213-21.214v-84.852l-31.82 31.82z" fill="#fe9"/><path d="m388.465 30 12-30h-144.465l-10 15 10 15z" fill="#ffc34d"/><path d="m256 0h-144.465l12 30h132.465z" fill="#ffe14d"/></g></svg>