<svg id="Capa_1" enable-background="new 0 0 512 512" height="512" viewBox="0 0 512 512" width="512" xmlns="http://www.w3.org/2000/svg"><g><path d="m406 0h-150l-10 180 10 332h150z" fill="#283d66"/><path d="m106 0h150v512h-150z" fill="#4d578c"/><path d="m376 30h-40.788l-7.501 30h-71.711l-10 120 10 302h120z" fill="#0f244d"/><path d="m184.289 60-7.501-30h-40.788v452h120v-422z" fill="#283d66"/><path d="m166 390h30v30h-30z" fill="#2ee6a8"/><path d="m316 390h30v30h-30z" fill="#29cccc"/><path d="m301 240h-30v30h60v-120h-75l-10 15.721 10 14.279h45z" fill="#ece6f2"/><path d="m196 150v120h-30v30h60v-120h30v-30z" fill="#fff5f5"/><path d="m346 330h-90l-10 15 10 15h90z" fill="#39f"/><path d="m286 420v-30h-30l-10 15 10 15z" fill="#29cccc"/><path d="m166 330h90v30h-90z" fill="#6cf"/><path d="m226 390h30v30h-30z" fill="#2ee6a8"/></g></svg>