<svg id="Capa_1" enable-background="new 0 0 512 512" height="512" viewBox="0 0 512 512" width="512" xmlns="http://www.w3.org/2000/svg"><g><path d="m352.272 173.369h62.719v60h-62.719z" fill="#283d66" transform="matrix(.707 -.707 .707 .707 -31.44 330.834)"/><path d="m271 90h-15l-10 75h25z" fill="#283d66"/><path d="m241 90h15v75h-15z" fill="#4d578c"/><path d="m313.342 159.315c19.937-16.522 32.658-41.46 32.658-69.315 0-49.626-40.374-90-90-90l-10 15 10 15c33.084 0 60 26.916 60 60s-26.916 60-60 60l-10 181 10 181c99.804 0 181-81.196 181-181 0-79.77-51.874-147.647-123.658-171.685z" fill="#cfcfe6"/><path d="m98.369 172.009h60v62.719h-60z" fill="#4d578c" transform="matrix(.707 -.707 .707 .707 -106.205 150.336)"/><path d="m196 90c0-33.084 26.916-60 60-60v-30c-49.626 0-90 40.374-90 90 0 27.855 12.721 52.793 32.658 69.315-71.784 24.038-123.658 91.915-123.658 171.685 0 99.804 81.196 181 181 181v-362c-33.084 0-60-26.916-60-60z" fill="#ece6f2"/><path d="m256 180-10 151 10 151c83.262 0 151-67.738 151-151s-67.738-151-151-151z" fill="#ece6f2"/><path d="m105 331c0 83.262 67.738 151 151 151v-302c-83.262 0-151 67.738-151 151z" fill="#fff5f5"/><path d="m264.063 262.791h91v30h-91z" fill="#ffc34d" transform="matrix(.711 -.704 .704 .711 -105.862 298.269)"/><path d="m196.122 352.867h45v30h-45z" fill="#ffe14d" transform="matrix(.711 -.704 .704 .711 -195.579 260.351)"/><path d="m300.922 331.137c.118-24.813-19.972-45.096-44.784-45.215-.046 0-.092 0-.138 0l-10 45.078 10 44.921c11.911-.018 23.12-4.637 31.59-13.027 8.54-8.459 13.274-19.737 13.332-31.757z" fill="#39f"/><path d="m255.917 285.922c-11.937 0-23.174 4.622-31.662 13.029-8.54 8.458-13.274 19.737-13.332 31.756-.057 12.02 4.57 23.343 13.028 31.883s19.737 13.274 31.756 13.332h.221c.024 0 .047-.002.071-.002v-89.999c-.027.001-.054.001-.082.001z" fill="#6cf"/><path d="m270.922 330.994c.04-8.269-6.654-15.028-14.922-15.071l-10 15.077 10 14.919c3.951-.019 7.667-1.555 10.479-4.339 2.846-2.82 4.424-6.58 4.443-10.586z" fill="#297acc"/><path d="m255.994 315.922c-.024 0-.049 0-.074 0-3.979 0-7.725 1.541-10.554 4.343-2.847 2.819-4.425 6.579-4.444 10.585-.02 4.006 1.523 7.781 4.343 10.627 2.819 2.847 6.579 4.425 10.585 4.444h.074c.025 0 .05-.004.075-.004v-29.996c-.001.002-.003.001-.005.001z" fill="#39f"/></g></svg>