<svg id="Capa_1" enable-background="new 0 0 512 512" height="512" viewBox="0 0 512 512" width="512" xmlns="http://www.w3.org/2000/svg"><g><path d="m271 0h-15l-10 45h25z" fill="#283d66"/><path d="m241 0h15v45h-15z" fill="#4d578c"/><path d="m368.5 90c0-33.084-26.916-60-60-60h-52.5l-10 85 122.5-10z" fill="#0f244d"/><path d="m203.5 30c-33.084 0-60 26.916-60 60v15l112.5 10v-85z" fill="#283d66"/><path d="m256 105-10 40 122.5-10v-30z" fill="#cfcfe6"/><path d="m256 105h-112.5v30l112.5 10z" fill="#ece6f2"/><path d="m246 264.312 117.625-10c-.448-1.588-.933-3.17-1.457-4.744-5.066-15.198-5.066-31.938.001-47.139l.967-2.902c3.56-10.679 5.364-21.8 5.364-33.056v-31.471h-112.5z" fill="#29cccc"/><path d="m256 135h-112.5v31.471c0 11.255 1.805 22.376 5.363 33.053l.969 2.908c5.066 15.198 5.066 31.938 0 47.137-.524 1.573-1.009 3.155-1.457 4.743l107.625 10z" fill="#2ee6a8"/><path d="m367.506 284.312c.17-10.161-1.122-20.214-3.881-30h-107.625l-10 40z" fill="#249bb3"/><path d="m256.007 254.312h-107.624c-2.76 9.786-4.052 19.839-3.882 30l111.506 10z" fill="#29cccc"/><path d="m256 284.312-10 113.844 10 113.844h96.537l14.765-222.454c.116-1.748.175-3.492.205-5.234z" fill="#29cccc"/><path d="m144.494 284.312c.029 1.742.089 3.486.205 5.234l14.764 222.454h96.537v-227.688z" fill="#2ee6a8"/></g></svg>