<svg id="Capa_1" enable-background="new 0 0 512 512" height="512" viewBox="0 0 512 512" width="512" xmlns="http://www.w3.org/2000/svg"><g><path d="m346 30.955v-30.955h-90l-10 129.772h139.719c-25.686-26.393-39.719-61.988-39.719-98.817z" fill="#ff4d4d"/><path d="m256 512h90v-30.955c0-36.829 14.033-72.425 39.719-98.817h-139.719z" fill="#ff4d4d"/><path d="m166 0v30.955c0 36.829-14.033 72.425-39.719 98.817h129.719v-129.772z" fill="#ff884d"/><path d="m126.281 382.228c25.686 26.393 39.719 61.988 39.719 98.817v30.955h90v-129.772z" fill="#ff884d"/><path d="m256 60-10 196 10 196c108.075 0 196-87.925 196-196s-87.925-196-196-196z" fill="#cfcfe6"/><path d="m60 256c0 108.075 87.925 196 196 196v-392c-108.075 0-196 87.925-196 196z" fill="#ece6f2"/><path d="m256 90-10 166 10 166c91.533 0 166-74.467 166-166s-74.467-166-166-166z" fill="#0f244d"/><path d="m90 256c0 91.533 74.467 166 166 166v-332c-91.533 0-166 74.467-166 166z" fill="#283d66"/><path d="m301 211h30v90h-30z" fill="#ece6f2"/><path d="m361 226h30v60h-30z" fill="#ece6f2"/><path d="m121 226h30v60h-30z" fill="#fff5f5"/><path d="m181 211h30v90h-30z" fill="#fff5f5"/><path d="m256 362-10 15.243 10 14.757c36.327 0 70.479-14.146 96.166-39.833l-21.213-21.213c-20.02 20.02-46.64 31.046-74.953 31.046z" fill="#ffc34d"/><path d="m352.166 159.833c-25.687-25.687-59.839-39.833-96.166-39.833l-10 15.318 10 14.682c28.313 0 54.933 11.026 74.953 31.046z" fill="#29cccc"/><path d="m181.047 330.954-21.213 21.213c25.687 25.687 59.839 39.833 96.166 39.833v-30c-28.313 0-54.933-11.026-74.953-31.046z" fill="#ffe14d"/><path d="m159.834 159.833 21.213 21.213c20.02-20.02 46.64-31.046 74.953-31.046v-30c-36.327 0-70.479 14.146-96.166 39.833z" fill="#2ee6a8"/><path d="m271 211h-15l-10 15 10 15h15z" fill="#ece6f2"/><path d="m271 271h-15l-10 15 10 15h15z" fill="#ece6f2"/><g fill="#fff5f5"><path d="m241 211h15v30h-15z"/><path d="m241 271h15v30h-15z"/></g></g></svg>