<svg id="Capa_1" enable-background="new 0 0 512 512" height="512" viewBox="0 0 512 512" width="512" xmlns="http://www.w3.org/2000/svg"><g><path d="m452 30h-93.333l-112.667 10 10 472h196z" fill="#915041"/><path d="m153.333 30h-93.333v482h196v-472z" fill="#b46e5a"/><path d="m256 467h151v-30l-161-10z" fill="#ffc34d"/><path d="m256 467h-151v-30l151-10z" fill="#ffe14d"/><path d="m358.667 30h-29.23c-19.554-19.144-45.946-30-73.437-30l-10 85 127.667-10z" fill="#cfcfe6"/><path d="m182.563 30h-29.23l-15 45 117.667 10v-85c-27.491 0-53.883 10.856-73.437 30z" fill="#ece6f2"/><path d="m407 75h-151l-10 196 10 166h151z" fill="#ffe14d"/><path d="m105 75h151v362h-151z" fill="#fe9"/><path d="m151 151h90v30h-90z" fill="#283d66"/><path d="m271 151h30v30h-30z" fill="#0f244d"/><path d="m331 151h30v30h-30z" fill="#0f244d"/><path d="m151 211h90v30h-90z" fill="#283d66"/><path d="m271 211h30v30h-30z" fill="#0f244d"/><path d="m331 211h30v30h-30z" fill="#0f244d"/><path d="m151 271h90v30h-90z" fill="#283d66"/><path d="m271 271h30v30h-30z" fill="#0f244d"/><path d="m331 271h30v30h-30z" fill="#0f244d"/><path d="m151 331h90v30h-90z" fill="#283d66"/><g fill="#0f244d"><path d="m271 331h30v30h-30z"/><path d="m331 331h30v30h-30z"/></g></g></svg>