<svg id="Capa_1" enable-background="new 0 0 512 512" height="512" viewBox="0 0 512 512" width="512" xmlns="http://www.w3.org/2000/svg"><g><path d="m407 0h-51l-10 120h61z" fill="#ff4d4d"/><path d="m306 0-10 120h60v-120z" fill="#cc295f"/><path d="m256 0-10 120h60v-120z" fill="#ff4d4d"/><path d="m206 0-10 120h60v-120z" fill="#ff884d"/><path d="m156 0-10 120h60v-120z" fill="#ff4d4d"/><path d="m105 0h51v120h-51z" fill="#ff884d"/><path d="m349.67 236 87.53-10v-90.8c0-16.679-13.521-30.2-30.2-30.2h-151l-10 86z" fill="#ece6f2"/><path d="m437.2 512v-136l-87.53-10-103.67 45 10 101z" fill="#ece6f2"/><path d="m105 105c-16.679 0-30.2 13.521-30.2 30.2v90.8l87.53 10 93.67-45v-86z" fill="#fff5f5"/><path d="m162.33 366-87.53 10v136h181.2v-101z" fill="#fff5f5"/><path d="m334.346 266 102.854-10v-30h-87.53c-22.701-28.315-57.149-45-93.67-45l-10 40z" fill="#29cccc"/><path d="m349.67 376h87.53v-30l-102.854-10-88.346 45 10 40c36.521 0 70.97-16.685 93.67-45z" fill="#29cccc"/><path d="m177.654 336-102.854 10v30h87.53c22.701 28.315 57.149 45 93.67 45v-40z" fill="#2ee6a8"/><path d="m162.33 226h-87.53v30l102.854 10 78.346-45v-40c-36.521 0-70.97 16.685-93.67 45z" fill="#2ee6a8"/><path d="m334.346 256-4.477-6.418c-16.854-24.159-44.468-38.582-73.869-38.582l-10 90 10 90c29.401 0 57.015-14.423 73.869-38.582l4.477-6.418h102.854v-30l-10-15 10-15v-30z" fill="#249bb3"/><path d="m182.131 249.582-4.477 6.418h-102.854v30l10 15-10 15v30h102.854l4.477 6.418c16.854 24.159 44.468 38.582 73.869 38.582v-180c-29.401 0-57.015 14.423-73.869 38.582z" fill="#29cccc"/><path d="m287.82 311.606-21.213-21.212 31.819-31.821-21.213-21.213-21.213 21.214-10 42.426 10 42.426z" fill="#ffe14d"/><path d="m245.393 311.606-31.819 31.821 21.213 21.213 21.213-21.214v-84.852l-31.82 31.82z" fill="#fe9"/><path d="m74.8 286h91.2v30h-91.2z" fill="#fe9"/><path d="m346 286h91.2v30h-91.2z" fill="#ffe14d"/></g></svg>