<svg id="Capa_1" enable-background="new 0 0 512 512" height="512" viewBox="0 0 512 512" width="512" xmlns="http://www.w3.org/2000/svg"><g><path d="m101.01 396.848-25.348 39.49 75.662 75.662 19.011-31.685z" fill="#ffc34d"/><path d="m31.685 341.665-31.685 19.011 75.662 75.662 32.419-32.419z" fill="#ffe14d"/><path d="m170.335 480.315 15.91-26.517-64.022-78.163-21.213 35.355z" fill="#ff884d"/><path d="m129.294 382.706-71.092-56.951-26.517 15.91 69.325 69.325z" fill="#ffc34d"/><path d="m186.245 453.798 88.997-88.997-90.54-51.645-62.479 76.621z" fill="#cc295f"/><path d="m58.202 325.755 64.021 64.022 69.55-69.55-97.611-30.432z" fill="#ff4d4d"/><path d="m298.204 341.839-90.541-51.645-22.961 37.104 90.54 37.503z" fill="#ffc34d"/><path d="m117.123 266.834-22.961 22.961 90.54 37.503 30.032-30.033z" fill="#ffe14d"/><path d="m298.204 341.839 35.196-35.196-90.54-51.645-35.197 49.339z" fill="#ff884d"/><path d="m117.123 266.834 90.54 37.503 42.268-42.268-97.611-30.432z" fill="#ffc34d"/><path d="m356.361 283.682-90.54-51.645-22.961 37.103 90.54 37.503z" fill="#ffc34d"/><path d="m175.281 208.676-22.961 22.961 90.54 37.503 30.032-30.032z" fill="#ffe14d"/><path d="m418.878 221.165-64.022-78.163-89.035 103.177 90.54 37.503z" fill="#cc295f"/><path d="m290.834 93.122-115.553 115.554 90.54 37.503 96.106-96.106z" fill="#ff4d4d"/><path d="m354.856 143.002-37.65 51.792 101.672 26.371z" fill="#ece6f2"/><path d="m290.834 93.122-22.924 88.886 49.296 12.786 44.721-44.721z" fill="#fff5f5"/><path d="m440.091 199.952-64.022-78.163-21.213 35.355 64.022 64.021z" fill="#cfcfe6"/><path d="m312.048 71.909-21.214 21.213 64.022 64.022 28.284-28.284z" fill="#ece6f2"/><path d="m440.091 199.952 71.909-71.909-64.022-64.021-43.025 28.883-28.884 43.026z" fill="#663328"/><path d="m329.166 22.695h101.695v90.54h-101.695z" fill="#915041" transform="matrix(.707 -.707 .707 .707 63.245 288.616)"/></g></svg>