<svg id="Capa_1" enable-background="new 0 0 512 512" height="512" viewBox="0 0 512 512" width="512" xmlns="http://www.w3.org/2000/svg"><g><path d="m298.329 0h-42.329l-10 94.4 76.329-10z" fill="#ff4d4d"/><path d="m213.671 0-24 84.4 66.329 10v-94.4z" fill="#ff884d"/><path d="m322.329 84.4h-66.329l-10 94.4 100.329-10z" fill="#ece6f2"/><path d="m189.671 84.4-24 84.4 90.329 10v-94.4z" fill="#fff5f5"/><path d="m346.329 168.8h-90.329l-10 94.4 124.329-10z" fill="#ff4d4d"/><path d="m165.671 168.8-24 84.4 114.329 10v-94.4z" fill="#ff884d"/><path d="m370.329 253.2h-114.329l-10 94.4 148.329-10z" fill="#ece6f2"/><path d="m141.671 253.2-24 84.4 138.329 10v-94.4z" fill="#fff5f5"/><path d="m394.329 337.6h-138.329l-10 95.297h175.428z" fill="#ff4d4d"/><path d="m117.671 337.6-27.099 95.297h165.428v-95.297z" fill="#ff884d"/><path d="m467 422h-211l-10 75h221z" fill="#ff884d"/><path d="m45 422h211v75h-211z" fill="#ffc34d"/><path d="m512 482h-256l-10 15 10 15h256z" fill="#ff4d4d"/><path d="m0 482h256v30h-256z" fill="#ff884d"/></g></svg>