<svg id="Capa_1" enable-background="new 0 0 512.034 512.034" height="512" viewBox="0 0 512.034 512.034" width="512" xmlns="http://www.w3.org/2000/svg"><g><path d="m108.35 149.648h93.667v-30h-93.667c-42.58 0-79.545 30.305-87.896 72.058l-.344 1.719 15.255 8.128 16.665-11.855c8.232-23.623 30.752-40.05 56.32-40.05z" fill="#ece6f2"/><path d="m403.684 149.648h-93.667v-30h93.667c42.58 0 79.545 30.305 87.896 72.058l.344 1.719-15.255 8.128-16.665-11.855c-8.232-23.623-30.752-40.05-56.32-40.05z" fill="#cfcfe6"/><path d="m491.924 193.425c-9.698-1.245-20.342-2.503-31.92-3.727-50.734-5.36-119.313-10.051-203.987-10.051l-10 40 252.068 4.582z" fill="#ffc34d"/><path d="m52.03 189.699c-11.578 1.223-22.222 2.481-31.92 3.727l-6.161 30.805 242.068-4.582v-40c-84.674-.001-153.253 4.689-203.987 10.05z" fill="#ffe14d"/><path d="m510.519 286.398-12.434-62.167c-51.983-6.928-133.893-14.582-242.068-14.582l-10 53.572 10 64.89c5.176 0 9.791 2.47 12.663 6.777l15.631 23.447c16.646 24.97 46.532 37.933 76.138 33.026l87.585-14.517c20.626-3.419 38.53-14.775 50.415-31.978 11.884-17.202 16.171-37.966 12.07-58.468z" fill="#0f244d"/><path d="m13.949 224.231-12.434 62.167c-4.101 20.501.187 41.266 12.07 58.467 11.885 17.202 29.789 28.559 50.415 31.978l87.585 14.517c4.162.689 8.327 1.026 12.462 1.026 25.282-.001 49.369-12.593 63.675-34.052l15.632-23.447c2.872-4.307 7.487-6.777 12.663-6.777v-118.462c-108.176 0-190.085 7.655-242.068 14.583z" fill="#283d66"/></g></svg>