<svg id="Capa_1" enable-background="new 0 0 512 512" height="512" viewBox="0 0 512 512" width="512" xmlns="http://www.w3.org/2000/svg"><g><path d="m61 271h45v30h-45z" fill="#4d578c"/><path d="m61 211h45v30h-45z" fill="#4d578c"/><path d="m406 271h45v30h-45z" fill="#283d66"/><path d="m406 211h45v30h-45z" fill="#283d66"/><path d="m256 512h67.757c24.939 0 46.589-17.749 51.48-42.204l8.971-44.854h-138.208z" fill="#cfcfe6"/><path d="m375.238 42.204c-4.891-24.455-26.542-42.204-51.481-42.204h-67.757l-10 87.058 10-12.058 9.848 7.891 118.361 4.167z" fill="#cfcfe6"/><path d="m127.792 424.942 8.971 44.854c4.891 24.455 26.542 42.204 51.48 42.204h67.757v-87.058z" fill="#ece6f2"/><path d="m188.243 0c-24.939 0-46.589 17.749-51.48 42.204l-8.971 44.854 128.208-12.058v-75z" fill="#ece6f2"/><path d="m421 75h-165l-10 165 10 197h165z" fill="#283d66"/><path d="m91 75h165v362h-165z" fill="#4d578c"/><path d="m391 105h-135l-10 135 10 167h135z" fill="#0f244d"/><path d="m121 105h135v302h-135z" fill="#283d66"/><path d="m256 150-10 90 10 127.279 63.638-63.638c16.288-16.287 26.362-38.787 26.362-63.641 0-49.706-40.294-90-90-90z" fill="#ffc34d"/><path d="m166 240c0 24.855 10.075 47.356 26.364 63.643l63.636 63.636v-217.279c-49.706 0-90 40.294-90 90z" fill="#ffe14d"/><path d="m256 195-10 45 10 45c24.813 0 45-20.187 45-45s-20.187-45-45-45z" fill="#ece6f2"/><path d="m211 240c0 24.813 20.187 45 45 45v-90c-24.813 0-45 20.187-45 45z" fill="#fff5f5"/><path d="m256 225-10 15 10 15c8.271 0 15-6.729 15-15s-6.729-15-15-15z" fill="#0f244d"/><path d="m241 240c0 8.271 6.729 15 15 15v-30c-8.271 0-15 6.729-15 15z" fill="#283d66"/></g></svg>