<svg id="Capa_1" enable-background="new 0 0 512 512" height="512" viewBox="0 0 512 512" width="512" xmlns="http://www.w3.org/2000/svg"><g><path d="m256 135h75v73.024h30v-103.024l-115-10z" fill="#ffc34d"/><path d="m151 105v103.024h30v-73.024h75v-40z" fill="#ffe14d"/><path d="m256 165-10 173.5 10 173.5c95.668 0 173.5-77.832 173.5-173.5s-77.832-173.5-173.5-173.5z" fill="#ffe14d"/><path d="m82.5 338.5c0 95.668 77.832 173.5 173.5 173.5v-347c-95.668 0-173.5 77.832-173.5 173.5z" fill="#fe9"/><path d="m256 225-10 113.5 10 113.5c62.584 0 113.5-50.916 113.5-113.5s-50.916-113.5-113.5-113.5z" fill="#ffc34d"/><path d="m142.5 338.5c0 62.584 50.916 113.5 113.5 113.5v-227c-62.584 0-113.5 50.916-113.5 113.5z" fill="#ffe14d"/><path d="m339.5 338.5c0-46.042-37.458-83.5-83.5-83.5l-10 83.5 10 83.5c46.042 0 83.5-37.458 83.5-83.5z" fill="#ffe14d"/><path d="m172.5 338.5c0 46.042 37.458 83.5 83.5 83.5v-167c-46.042 0-83.5 37.458-83.5 83.5z" fill="#fe9"/><path d="m361 0h-52.5l-10 52.5 10 52.5h52.5z" fill="#ff4d4d"/><path d="m256 0-10 52.5 10 52.5h52.5v-105z" fill="#ece6f2"/><path d="m256 0h-52.5l-10 52.5 10 52.5h52.5z" fill="#fff5f5"/><path d="m151 0h52.5v105h-52.5z" fill="#ff4d4d"/></g></svg>