<svg id="Capa_1" enable-background="new 0 0 512 512" height="512" viewBox="0 0 512 512" width="512" xmlns="http://www.w3.org/2000/svg"><g><path d="m512 0h-196l-70 65 10 447h256z" fill="#ece6f2"/><path d="m196 0h-196v512h256v-447z" fill="#fff5f5"/><path d="m437 45h-77.058-17.303l-8.664 14.978c-7.782 13.453-18.973 24.735-32.363 32.629-13.754 8.107-29.527 12.393-45.612 12.393l-10 15 10 15c44.416 0 83.193-24.133 103.942-60h77.058v362h-181l-10 13.944 10 16.056h181 30v-30-362-30z" fill="#cfcfe6"/><path d="m75 437v-362h77.058c20.749 35.867 59.526 60 103.942 60v-30c-16.085 0-31.858-4.286-45.612-12.394-13.39-7.893-24.581-19.176-32.363-32.629l-8.664-14.977h-17.303-77.058-30v30 362 30h30 181v-30z" fill="#ece6f2"/><path d="m256 0-10 37.5 10 37.5c33.137 0 60-26.863 60-60v-15z" fill="#0f244d"/><path d="m196 0v15c0 33.137 26.863 60 60 60v-75z" fill="#283d66"/></g></svg>