<svg id="Capa_1" enable-background="new 0 0 512 512" height="512" viewBox="0 0 512 512" width="512" xmlns="http://www.w3.org/2000/svg"><g><path d="m112.598 512h79.668l10.162-112.469-46.665-10-46.666 10z" fill="#283d66"/><path d="m109.097 399.531h93.331l2.711-30-48.488-10-48.487 10z" fill="#4d578c"/><path d="m319.734 512h79.668l3.501-112.469-46.666-10-46.665 10z" fill="#0f244d"/><path d="m306.861 369.531 2.711 30h93.331l.933-30-47.599-10z" fill="#283d66"/><path d="m330.668 53.734h-84.668l10 105.602c18.046 0 33.111 13.766 34.735 31.738l16.126 178.457h96.975l5.492-176.487z" fill="#0f244d"/><path d="m181.332 53.734-78.661 139.31 5.492 176.487h96.975l16.126-178.457c1.624-17.972 16.689-31.738 34.735-31.738v-105.602z" fill="#283d66"/><path d="m340.668 63.734-10-63.734h-74.668l-10 31.867 10 31.867z" fill="#283d66"/><path d="m256 0h-74.668l-10 63.734h84.668z" fill="#4d578c"/><path d="m354.271 152.901c14.119 18.739 33.062 32.509 55.057 40.143l.995-31.981-49.655-161.063h-30v82.349c0 25.661 8.162 50.057 23.603 70.552z" fill="#cfcfe6"/><path d="m157.729 152.901c15.441-20.495 23.604-44.892 23.604-70.552v-82.349h-30l-49.656 161.063.995 31.981c21.995-7.634 40.938-21.403 55.057-40.143z" fill="#ece6f2"/><path d="m410.324 161.063 5.012-161.063h-54.668v82.349c0 33.814 19.835 64.407 49.656 78.714z" fill="#283d66"/><path d="m151.332 82.349v-82.349h-54.668l5.012 161.063c29.821-14.307 49.656-44.9 49.656-78.714z" fill="#4d578c"/></g></svg>