<svg id="Capa_1" enable-background="new 0 0 513.686 513.686" height="512" viewBox="0 0 513.686 513.686" width="512" xmlns="http://www.w3.org/2000/svg"><g><path d="m482.4 95.352-234.656 6.042 10 254.036c11.504.316 22.848 6.659 27.866 19.064 1.558 3.851 2.415 8.053 2.415 12.424v95.586c61.583 0 109.996-4.757 145.269-10.607 47.188-7.827 81.454-49.085 80.366-96.905-5.018-220.402-31.26-279.64-31.26-279.64z" fill="#ffc34d"/><path d="m31.286 95.352s-26.242 59.239-31.26 279.639c-1.089 47.82 33.178 89.078 80.366 96.905 35.273 5.85 83.687 10.607 145.269 10.607v-95.586c0-4.371.857-8.572 2.415-12.424 5.281-13.054 17.564-19.396 29.67-19.064v-254.035z" fill="#ffe14d"/><path d="m197.686 99.746h30v90.211h-30z" fill="#283d66"/><path d="m287.744 99.746h30v122.295h-30z" fill="#0f244d"/><path d="m482.4 31.183h-224.656l-10 40 234.656-10z" fill="#cfcfe6"/><path d="m31.286 31.183v30l226.458 10v-40z" fill="#ece6f2"/><path d="m257.744 61.183-10 25.105 10 25.105c106.923 0 224.656-16.042 224.656-16.042v-34.168z" fill="#ff884d"/><path d="m31.286 61.183v34.169s119.535 16.042 226.459 16.042v-50.211z" fill="#ffc34d"/></g></svg>