<svg id="Capa_1" enable-background="new 0 0 512 512" height="512" viewBox="0 0 512 512" width="512" xmlns="http://www.w3.org/2000/svg"><g><path d="m512 30h-256l-10 271 10 211h256z" fill="#ff4d4d"/><path d="m0 30h256v482h-256z" fill="#ff884d"/><path d="m482 150h-226l-10 151 10 181h226z" fill="#ece6f2"/><path d="m30 150h226v332h-226z" fill="#fff5f5"/><path d="m316 0h30v90h-30z" fill="#ece6f2"/><path d="m391 0h30v90h-30z" fill="#ece6f2"/><path d="m166 0h30v90h-30z" fill="#fff5f5"/><path d="m91 0h30v90h-30z" fill="#fff5f5"/><path d="m61 421h30v30h-30z" fill="#283d66"/><path d="m121 421h30v30h-30z" fill="#283d66"/><path d="m181 421h30v30h-30z" fill="#283d66"/><path d="m61 361h30v30h-30z" fill="#283d66"/><path d="m121 361h30v30h-30z" fill="#283d66"/><path d="m181 361h30v30h-30z" fill="#283d66"/><g fill="#0f244d"><path d="m301 361h30v30h-30z"/><path d="m361 361h30v30h-30z"/><path d="m421 361h30v30h-30z"/><path d="m301 301h30v30h-30z"/><path d="m361 301h30v30h-30z"/><path d="m421 301h30v30h-30z"/><path d="m301 241h30v30h-30z"/><path d="m361 241h30v30h-30z"/><path d="m421 241h30v30h-30z"/></g><path d="m121 181v30h60v30h-30v30h30v30h-60v30h90v-150z" fill="#2ee6a8"/><path d="m301 181h30v30h-30z" fill="#0f244d"/><path d="m361 181h30v30h-30z" fill="#0f244d"/><path d="m421 181h30v30h-30z" fill="#0f244d"/><path d="m271 0h-15l-10 45 10 45h15z" fill="#ece6f2"/><path d="m241 0h15v90h-15z" fill="#fff5f5"/><path d="m271 451v-30h-15l-10 15 10 15z" fill="#0f244d"/><path d="m271 391v-30h-15l-10 15 10 15z" fill="#0f244d"/><path d="m271 331v-30h-15l-10 15 10 15z" fill="#0f244d"/><path d="m271 271v-30h-15l-10 15 10 15z" fill="#0f244d"/><path d="m271 211v-30h-15l-10 15 10 15z" fill="#0f244d"/><path d="m241 421h15v30h-15z" fill="#283d66"/><path d="m241 361h15v30h-15z" fill="#283d66"/><path d="m241 301h15v30h-15z" fill="#283d66"/><path d="m241 241h15v30h-15z" fill="#283d66"/><path d="m241 181h15v30h-15z" fill="#283d66"/></g></svg>