<svg id="Capa_1" enable-background="new 0 0 512 512" height="512" viewBox="0 0 512 512" width="512" xmlns="http://www.w3.org/2000/svg"><g><path d="m91 0h30v45h-30z" fill="#283d66"/><path d="m46 30v30l60 10 60-10v-30z" fill="#4d578c"/><path d="m46 210 120 10v-160h-120z" fill="#2ee6a8"/><path d="m271 0h-15l-10 45h25z" fill="#0f244d"/><path d="m391 0h30v45h-30z" fill="#0f244d"/><g fill="#283d66"><path d="m466 30h-120v30l60 10 60-10z"/><path d="m241 0h15v45h-15z"/><path d="m316 30h-60l-10 40 70-10z"/></g><path d="m346 60v160l120-10v-150z" fill="#29cccc"/><path d="m196 30v30l60 10v-40z" fill="#4d578c"/><path d="m316 60h-60l-10 160 70-10z" fill="#29cccc"/><path d="m196 60v150l60 10v-160z" fill="#2ee6a8"/><path d="m467 422h-211l-10 15 10 15h211z" fill="#cfcfe6"/><path d="m45 422h211v30h-211z" fill="#ece6f2"/><path d="m18.387 304.25h181.726v30h-181.726z" fill="#ece6f2" transform="matrix(.707 -.707 .707 .707 -193.745 170.758)"/><path d="m387.75 228.387h30v181.726h-30z" fill="#cfcfe6" transform="matrix(.707 -.707 .707 .707 -107.781 378.293)"/><path d="m30 255h30v257h-30z" fill="#fff5f5"/><path d="m452 255h30v257h-30z" fill="#ece6f2"/><path d="m256 210-10 40 266-10v-30z" fill="#cfcfe6"/><path d="m256 210h-256v30l256 10z" fill="#ece6f2"/><path d="m256 270h256v-30h-256l-10 15z" fill="#283d66"/><path d="m0 240h256v30h-256z" fill="#4d578c"/></g></svg>