<svg id="Capa_1" enable-background="new 0 0 512 512" height="512" viewBox="0 0 512 512" width="512" xmlns="http://www.w3.org/2000/svg"><g><path d="m167.548 437.254s-4.589 19.147-30.704 29.965c-26.115 10.817-42.899.523-42.899.523l-10-24.142 28.904-36.679 44.7 6.191z" fill="#ece6f2"/><path d="m117.154 315.592 40.394 97.52-73.604 30.488-76.742-185.272z" fill="#cfcfe6"/><path d="m0 222.12c0-50.086 38.92-91.076 88.166-94.392l10 94.392-10 94.392c-49.246-3.315-88.166-44.305-88.166-94.392z" fill="#fff5f5"/><path d="m94.615 127.505c26.999 0 56.512 4.565 81.717 22.704l10 71.911-10 71.911c-25.205 18.139-54.717 22.704-81.717 22.704-2.168 0-4.317-.08-6.449-.223v-188.784c2.132-.143 4.281-.223 6.449-.223z" fill="#ece6f2"/><path d="m47.801 207.12h40.365l10 15-10 15h-40.365z" fill="#4d578c"/><path d="m88.166 207.12h40.365v30h-40.365z" fill="#283d66"/><path d="m264.154 158.109 7.779 7.536v112.951l-7.779 7.536c-22.858 22.144-60.521 25.532-87.822 7.9v-143.823c27.301-17.632 64.964-14.244 87.822 7.9z" fill="#cfcfe6"/><path d="m344.452 349.583s4.589 19.147 30.704 29.965c26.115 10.817 42.899.523 42.899.523l10-24.142-28.904-36.679-44.7 6.191z" fill="#ece6f2"/><path d="m394.846 227.921-40.394 97.52 73.604 30.488 76.742-185.272z" fill="#cfcfe6"/><path d="m512 134.449c0-50.086-38.92-91.076-88.166-94.392l-10 94.392 10 94.392c49.246-3.315 88.166-44.305 88.166-94.392z" fill="#ece6f2"/><path d="m417.385 39.834c-26.999 0-56.512 4.565-81.717 22.704l-10 71.911 10 71.911c25.205 18.139 54.717 22.704 81.717 22.704 2.168 0 4.317-.08 6.449-.223v-188.784c-2.132-.143-4.281-.223-6.449-.223z" fill="#fff5f5"/><path d="m464.199 119.449h-40.365l-10 15 10 15h40.365z" fill="#283d66"/><path d="m383.469 119.449h40.365v30h-40.365z" fill="#4d578c"/><path d="m247.846 70.437-7.779 7.536v112.951l7.779 7.536c22.858 22.144 60.521 25.532 87.822 7.9v-143.822c-27.301-17.632-64.964-14.244-87.822 7.899z" fill="#ece6f2"/></g></svg>