<svg id="Capa_1" enable-background="new 0 0 512 512" height="512" viewBox="0 0 512 512" width="512" xmlns="http://www.w3.org/2000/svg"><g><path d="m512 31h-195.5l-10 90 10 360h195.5z" fill="#cfcfe6"/><path d="m30 31h286.5v450h-286.5z" fill="#ece6f2"/><path d="m316.5 61-10 160.31 10 169.69h135.5v60h30v-390z" fill="#ece6f2"/><path d="m60 61v390h30v-60h226.5v-330z" fill="#fff5f5"/><path d="m452 91h-135.5l-10 130.31 10 139.69h135.5z" fill="#249bb3"/><path d="m181 91h135.5v270h-135.5z" fill="#29cccc"/><path d="m422 121h-105.5l-10 100.31 10 109.69h105.5z" fill="#29cccc"/><path d="m211 121h105.5v210h-105.5z" fill="#2ee6a8"/><path d="m366.62 226.5c13.84-13.84 13.84-36.28 0-50.12s-36.28-13.84-50.12 0l-10 44.93 10 55.31z" fill="#cc295f"/><path d="m266.38 176.38c-13.84 13.84-13.84 36.28 0 50.12l50.12 50.12v-100.24c-13.84-13.84-36.28-13.84-50.12 0z" fill="#ff4d4d"/><path d="m422 421h-105.5l-10 15 10 15h105.5z" fill="#ece6f2"/><path d="m120 421h196.5v30h-196.5z" fill="#fff5f5"/><path d="m0 286h151v-45l-75.5-10-75.5 10z" fill="#ffe14d"/><path d="m0 241h151v-30l-75.5-10-75.5 10z" fill="#4d578c"/><path d="m0 181v30h151v-30l-75.5-10z" fill="#ffe14d"/><path d="m151 151-75.5-10-75.5 10v30h151z" fill="#4d578c"/><path d="m0 106h151v45h-151z" fill="#ffe14d"/><path d="m90 331h61v30h-61z" fill="#4d578c"/></g></svg>