<svg id="Capa_1" enable-background="new 0 0 512 512" height="512" viewBox="0 0 512 512" width="512" xmlns="http://www.w3.org/2000/svg"><g><path d="m456.153 71.568c-2.486-12.515-8.599-23.699-17.227-32.414l-59.926 81.358 20.402 103.621 80.73-31.867z" fill="#39f"/><path d="m55.847 71.568c2.486-12.515 8.599-23.699 17.227-32.414l59.926 81.358-20.402 103.621-80.73-31.867z" fill="#6cf"/><path d="m408.978 22.127-89.244-22.127-73.734 10 10 502h143.402v-100.145l-10-15 10-15v-127.722l-10-15 10-15v-27.56c0-35.317 6.431-70.339 18.977-103.353l20.547-54.065c-8.076-8.159-18.354-14.154-29.948-17.028z" fill="#297acc"/><path d="m192.266 0-89.244 22.127c-11.594 2.874-21.872 8.87-29.948 17.028l20.546 54.064c12.547 33.014 18.977 68.036 18.977 103.353v27.56l10 15-10 15v127.723l10 15-10 15v100.145h143.403v-502z" fill="#39f"/><path d="m319.734 113.531h31.867v30h-31.867z" fill="#0f244d"/><path d="m399.402 411.855v-30h-58.734l10 30z" fill="#cfcfe6"/><path d="m112.598 381.855v30h48.734l10-30z" fill="#ece6f2"/><path d="m399.402 254.133v-30h-48.734l-10 30z" fill="#ece6f2"/><path d="m112.598 224.133v30h58.734l-10-30z" fill="#fff5f5"/><path d="m350.668 284.387-104.668-10 10 137.468h94.668z" fill="#ece6f2"/><path d="m161.332 284.387v127.468h94.668v-137.468z" fill="#fff5f5"/><path d="m315.394 17.361 4.34-17.361h-63.734l-10 31.867 10 31.867c28.093 0 52.581-19.119 59.394-46.373z" fill="#0f244d"/><path d="m192.266 0 4.34 17.361c6.814 27.254 31.301 46.374 59.394 46.374v-63.735z" fill="#283d66"/><path d="m301 342.519v-30h-45l-10 15 10 15z" fill="#0f244d"/><path d="m211 312.519h45v30h-45z" fill="#283d66"/><path d="m350.668 224.133h-94.668l-10 30.127 10 30.127h94.668z" fill="#cc295f"/><path d="m161.332 224.133h94.668v60.254h-94.668z" fill="#ff4d4d"/></g></svg>