<svg id="Capa_1" enable-background="new 0 0 512 512" height="512" viewBox="0 0 512 512" width="512" xmlns="http://www.w3.org/2000/svg"><g><path d="m391 0h-60l-10 120.512h70z" fill="#39f"/><path d="m301 0-10 120.512h40v-120.512z" fill="#297acc"/><path d="m301 0h-45l-10 120.512h55z" fill="#39f"/><path d="m211 0-10 120.512h55v-120.512z" fill="#6cf"/><path d="m181 0-10 120.512h40v-120.512z" fill="#39f"/><path d="m121 0h60v120.512h-60z" fill="#6cf"/><path d="m391 391.488h-70l10 120.512h60z" fill="#39f"/><path d="m291 391.488 10 120.512h30v-120.512z" fill="#297acc"/><path d="m301 512v-120.512h-55l10 120.512z" fill="#39f"/><path d="m211 512h45v-120.512h-55z" fill="#6cf"/><path d="m171 391.488 10 120.512h30v-120.512z" fill="#39f"/><path d="m121 391.488h60v120.512h-60z" fill="#6cf"/><path d="m256 60-10 211 10 181c108.075 0 196-87.925 196-196s-87.925-196-196-196z" fill="#ece6f2"/><path d="m60 256c0 108.075 87.925 196 196 196v-392c-108.075 0-196 87.925-196 196z" fill="#fff5f5"/><path d="m256 90-10 181 10 151c91.533 0 166-74.467 166-166s-74.467-166-166-166z" fill="#0f244d"/><path d="m90 256c0 91.533 74.467 166 166 166v-332c-91.533 0-166 74.467-166 166z" fill="#283d66"/><path d="m301 166h30v120h-30z" fill="#ff4d4d"/><path d="m181 226h30v60h-30z" fill="#ff884d"/><path d="m271 196h-15l-10 90h25z" fill="#ff4d4d"/><path d="m241 196h15v90h-15z" fill="#ff884d"/><path d="m361 271h-105l-10 15 10 15h105z" fill="#ece6f2"/><path d="m151 271h105v30h-105z" fill="#fff5f5"/><path d="m316 361v-30h-60l-10 15 10 15z" fill="#ffc34d"/><path d="m196 331h60v30h-60z" fill="#ffe14d"/><path d="m271 136h-15l-10 15 10 15h15z" fill="#29cccc"/><path d="m241 136h15v30h-15z" fill="#2ee6a8"/></g></svg>