<svg id="Capa_1" enable-background="new 0 0 512 512" height="512" viewBox="0 0 512 512" width="512" xmlns="http://www.w3.org/2000/svg"><g><path d="m414.74 55.422-64.058-15.882c-3.833-.95-7.432-2.415-10.739-4.301l-93.943 18.495 10 458.266h143.402v-31.867l63.734-362.849c.001-29.292-19.965-54.813-48.396-61.862z" fill="#39f"/><path d="m256 53.734-83.943-18.494c-3.308 1.886-6.907 3.35-10.739 4.301l-64.058 15.881c-28.431 7.049-48.397 32.57-48.397 61.861l63.734 362.849v31.868h143.403z" fill="#6cf"/><path d="m318.672 0h-47.672l-25 10 10 53.734c58.587 0 83.943-28.495 83.943-28.495-12.494-7.122-20.774-20.331-21.271-35.239z" fill="#297acc"/><path d="m193.328 0c-.497 14.908-8.777 28.117-21.271 35.24 0 0 25.356 28.495 83.943 28.495v-53.735l-15-10z" fill="#39f"/><path d="m256 175.27h15v-112.193l-25-9.343z" fill="#ece6f2"/><path d="m256 53.734-15 9.343v112.193h15z" fill="#fff5f5"/><path d="m256 0-10 31.867 10 31.867c5.27 0 10.262-.238 15-.658v-63.076z" fill="#cfcfe6"/><path d="m256 63.734v-63.734h-15v63.077c4.738.419 9.73.657 15 .657z" fill="#ece6f2"/><path d="m399.402 450.133v30h63.735v-30l-31.867-10z" fill="#0f244d"/><path d="m48.863 480.133h63.735v-30l-31.868-10-31.867 10z" fill="#283d66"/><path d="m48.863 117.284v332.849h63.734v-247.691c.001-39.382-25.949-74.055-63.734-85.158z" fill="#4d578c"/><path d="m463.137 117.284c-37.785 11.103-63.734 45.776-63.734 85.158v247.691h63.734z" fill="#283d66"/></g></svg>