<svg id="Capa_1" enable-background="new 0 0 512 512" height="512" viewBox="0 0 512 512" width="512" xmlns="http://www.w3.org/2000/svg"><g><path d="m431.634 159.667-20.969-4.993 1.467-20.114c-11.938-21.751-24.252-59.409-20.415-119.658l-63.867-14.902s-41.144 40-91.85 40l20 472h175.634v-48.867l-3.156-15 3.156-15v-160.824l-2.27-15.823 2.27-14.177z" fill="#29cccc"/><path d="m80.366 159.667 20.968-4.993-1.467-20.114c11.938-21.751 24.252-59.409 20.415-119.658l63.868-14.902s21.144 40 71.85 40v472h-175.634v-48.867l6.032-15-6.032-15v-160.824l6.934-16.309-6.934-13.691z" fill="#2ee6a8"/><path d="m348.006 215.994v36.315l30-10v-26.315c0-22.952 14.623-43.269 36.389-50.555l17.239-5.771s-9.622-7.107-19.501-25.107l-7.261 2.431c-34.013 11.384-56.866 43.133-56.866 79.002z" fill="#249bb3"/><path d="m133.994 215.994v26.315l30 10v-36.315c0-35.868-22.853-67.617-56.865-79.002l-7.261-2.431c-9.879 18-19.501 25.107-19.501 25.107l17.239 5.772c21.765 7.285 36.388 27.601 36.388 50.554z" fill="#29cccc"/><path d="m80.366 242.309v30h63.628l-10-30z" fill="#fff5f5"/><path d="m431.634 272.309v-30h-53.628l-10 30z" fill="#ece6f2"/><path d="m80.366 433.133v30h53.628l10-30z" fill="#fff5f5"/><path d="m431.634 433.133h-63.628l10 30h53.628z" fill="#ece6f2"/><path d="m327.85 0s-34.646 14.902-71.85 14.902l-10 30.252 10 33.615c63.867 0 71.85-78.769 71.85-78.769z" fill="#0f244d"/><path d="m256 242.309-10 73.09 132.006-10v-33.455-29.635z" fill="#ffc34d"/><path d="m133.994 242.309v29.635 33.455l122.006 10v-73.09z" fill="#ffe14d"/><path d="m378.006 305.399h-122.006l-10 78.867 10 78.867h122.006z" fill="#cfcfe6"/><path d="m133.994 305.399h122.006v157.733h-122.006z" fill="#ece6f2"/><path d="m348.006 335.399h-92.006l-10 48.867 10 48.867h92.006z" fill="#ece6f2"/><path d="m163.994 335.399h92.006v97.733h-92.006z" fill="#fff5f5"/><path d="m318.006 399.266v-30h-62.006l-10 15 10 15z" fill="#0f244d"/><g fill="#283d66"><path d="m193.994 369.266h62.006v30h-62.006z"/><path d="m184.15 0s7.983 78.769 71.85 78.769v-63.867c-37.204 0-71.85-14.902-71.85-14.902z"/></g></g></svg>