<svg id="Capa_1" enable-background="new 0 0 512 512" height="512" viewBox="0 0 512 512" width="512" xmlns="http://www.w3.org/2000/svg"><g><path d="m318.801 0h-62.801l-10 114.336h72.801z" fill="#39f"/><g fill="#cfcfe6"><path d="m181.289 318.672v129.594"/><path d="m330.711 350.539v97.727"/><path d="m191.289 458.266h-94.711l10-139.594h74.711z"/><path d="m480.133 448.266-84.711 10 10-107.727h74.711z"/></g><path d="m405.422 448.266-84.711 10 10-107.727h74.711z" fill="#ece6f2"/><path d="m330.711 254.938h-74.711l-10 203.328 84.711-10z" fill="#cfcfe6"/><path d="m181.289 254.938v193.328l74.711 10v-203.328z" fill="#ece6f2"/><path d="m106.578 458.266-74.711-10v-129.594h74.711z" fill="#ece6f2"/><path d="m193.199 0h62.801v114.336h-62.801z" fill="#6cf"/><path d="m351.602 99.336h-95.602l-10 62.801 10 62.801c34.629 0 62.801-28.172 62.801-62.801 0-12.014-3.396-23.248-9.272-32.801h42.073z" fill="#ffc34d"/><path d="m160.398 99.336v30h42.073c-5.875 9.553-9.272 20.786-9.272 32.801 0 34.629 28.172 62.801 62.801 62.801v-125.602z" fill="#ffe14d"/><path d="m480.133 448.266h-224.133l-10 41.867 234.133-10z" fill="#283d66"/><path d="m31.867 448.266v31.867l224.133 10v-41.867z" fill="#4d578c"/><path d="m288.801 162.137c0-18.086-14.715-32.801-32.801-32.801l-10 32.801 10 32.801c18.086 0 32.801-14.715 32.801-32.801z" fill="#ffe14d"/><path d="m256 129.336c-18.086 0-32.801 14.715-32.801 32.801s14.715 32.801 32.801 32.801z" fill="#fe9"/><path d="m480.133 480.133h-224.133l-10 15.933 10 15.934h224.133z" fill="#0f244d"/><path d="m31.867 480.133h224.133v31.867h-224.133z" fill="#283d66"/></g></svg>