<svg id="Capa_1" enable-background="new 0 0 512 512" height="512" viewBox="0 0 512 512" width="512" xmlns="http://www.w3.org/2000/svg"><g><path d="m430.881 355.32-14.483-4.801-10 80.74 10 80.74h63.734v-88.466c.001-30.975-19.848-58.466-49.251-68.213z" fill="#915041"/><path d="m81.119 355.32c-29.403 9.747-49.252 37.238-49.252 68.214v88.466h63.734l10-80.74-10-80.74z" fill="#b46e5a"/><path d="m129.675 214.219h-30.937c-21.511 0-38.949-17.438-38.949-38.949 0-21.511 17.438-38.949 38.949-38.949h30.937z" fill="#915041"/><path d="m382.317 214.219h30.937c21.511 0 38.949-17.438 38.949-38.949 0-21.511-17.438-38.949-38.949-38.949h-30.937z" fill="#663328"/><path d="m416.398 350.52-79.706-26.42h-90.696l10 187.9h160.402z" fill="#ff4d4d"/><path d="m175.3 324.1-79.698 26.42v161.48h160.394v-187.9z" fill="#ff884d"/><path d="m245.996 324.1 10 90.174c36.325 0 67.621-25.595 74.829-61.198l5.867-28.976z" fill="#663328"/><path d="m175.3 324.1 5.864 28.971c7.207 35.606 38.504 61.203 74.831 61.203h.001v-90.174z" fill="#915041"/><path d="m376.52 72.586c-22.877-43.172-68.262-72.586-120.524-72.586l-10 82.586z" fill="#0f244d"/><path d="m255.996 0c-52.262 0-97.647 29.414-120.524 72.586l120.524 10z" fill="#283d66"/><path d="m245.996 112.586 142.111-10c-2.685-10.546-6.604-20.598-11.587-30h-120.524z" fill="#29cccc"/><path d="m255.996 72.586h-120.524c-4.982 9.402-8.902 19.454-11.587 30l132.111 10z" fill="#2ee6a8"/><path d="m245.996 146.321 146.321-10c0-11.644-1.464-22.946-4.21-33.734h-132.111z" fill="#ffc34d"/><path d="m255.996 102.586h-132.111c-2.747 10.789-4.21 22.09-4.21 33.734l136.321 10z" fill="#ffe14d"/><path d="m255.996 136.321-10 77.898 10 136.321c75.288 0 136.321-61.033 136.321-136.321v-77.898z" fill="#915041"/><path d="m119.675 136.321v77.898c0 75.288 61.033 136.321 136.321 136.321v-214.219z" fill="#b46e5a"/><path d="m183.41 185.056h31.867v30h-31.867z" fill="#283d66"/><path d="m296.715 185.056h31.867v30h-31.867z" fill="#0f244d"/></g></svg>