<svg id="Capa_1" enable-background="new 0 0 512 512" height="512" viewBox="0 0 512 512" width="512" xmlns="http://www.w3.org/2000/svg"><g><path d="m430.881 355.32c38.523-88.017-38.564-141.102-38.564-141.102h-95.602v141.102z" fill="#915041"/><path d="m430.881 355.32-94.188-31.22h-90.693l10 187.9h144.465l79.668-63.734v-24.731c0-30.977-19.849-58.468-49.252-68.215z" fill="#ff884d"/><path d="m175.3 324.1-94.181 31.22c-29.403 9.747-49.252 37.238-49.252 68.214v24.731l79.668 63.735h144.465v-187.9z" fill="#ffc34d"/><path d="m330.826 353.076 5.867-28.976h-80.693v90.174c36.324-.003 67.617-25.596 74.826-61.198z" fill="#ffc34d"/><path d="m181.164 353.071c7.207 35.606 38.504 61.203 74.831 61.203h.005v-90.174h-80.7z" fill="#ffe14d"/><path d="m31.867 448.266h79.668v63.734h-79.668z" fill="#ffdecf"/><path d="m400.465 448.266h79.668v63.734h-79.668z" fill="#ffcdbe"/><path d="m392.317 101.955c0-56.308-45.647-101.955-101.955-101.955h-34.362l-10 136.321h146.317z" fill="#249bb3"/><path d="m221.63 0c-56.308 0-101.955 45.647-101.955 101.955v34.366h136.325v-136.321z" fill="#29cccc"/><path d="m382.317 214.219h30.937c21.511 0 38.949-17.438 38.949-38.949 0-21.511-17.438-38.949-38.949-38.949h-30.937z" fill="#ffbeaa"/><path d="m129.675 214.219h-30.937c-21.511 0-38.949-17.438-38.949-38.949 0-21.511 17.438-38.949 38.949-38.949h30.937z" fill="#ffcdbe"/><path d="m246 126.368 10 224.171c75.286-.002 136.317-61.034 136.317-136.321v-77.898z" fill="#ffcdbe"/><path d="m119.675 136.416v77.803c0 75.288 61.033 136.321 136.321 136.321h.004v-224.172z" fill="#ffdecf"/><path d="m291.275 149.001c24.978 8.921 52.402 8.09 76.794-2.326l24.248-10.354s-49.156-57.216-136.317-57.216l-10 38.003 10 25.734c11.91.026 23.816 2.067 35.198 6.132z" fill="#ece6f2"/><path d="m119.675 136.321v.095l23.744 10.177c24.423 10.468 51.9 11.318 76.923 2.381 11.528-4.117 23.594-6.158 35.657-6.132v-63.737c-87.16 0-136.324 57.216-136.324 57.216z" fill="#fff5f5"/><path d="m183.41 203.872h31.867v30h-31.867z" fill="#283d66"/><path d="m296.715 203.872h31.867v30h-31.867z" fill="#0f244d"/></g></svg>