<svg id="Capa_1" enable-background="new 0 0 512.028 512.028" height="512" viewBox="0 0 512.028 512.028" width="512" xmlns="http://www.w3.org/2000/svg"><g><path d="m287.027 256.014h-25l10 55.717h15z" fill="#b9b9d9"/><path d="m257.027 256.014h15v55.717h-15z" fill="#cfcfe6"/><path d="m317.027 256.925v49.92c0 15.626-12.207 28.771-27.791 29.926l-17.209 1.275-10 14.777 10 15.305 19.426-1.439c31.163-2.309 55.574-28.596 55.574-59.844v-49.92z" fill="#b9b9d9"/><path d="m244.252 340.103c-8.41.622-16.454-2.196-22.637-7.938s-9.587-13.551-9.587-21.988h-30c0 16.629 6.988 32.655 19.173 43.971 11.108 10.315 25.801 16.035 40.875 16.035 1.461 0 2.927-.054 4.392-.162l25.56-1.893v-30.082z" fill="#cfcfe6"/><path d="m85.628 154.321-10.106 34.845c-5.733 19.767-15.656 37.941-29.492 54.019-27.034 31.414-67.22 98.768-32.626 196.905l3.53 10.013h136.715v-88.493c0-18.802 11.95-35.527 29.737-41.62l28.643-9.813v-38.252z" fill="#b46e5a"/><path d="m103.588 199.969c-7.034 22.974-18.731 44.089-34.82 62.784-10.986 12.766-25.698 33.964-33.396 62.453-8.027 29.705-6.996 61.582 3.048 94.896h85.227v-58.492c0-31.622 20.099-59.753 50.014-70.001l8.366-2.866v-27.508z" fill="#915041"/><path d="m131.779 73.527h30v57.808h-30z" fill="#cfcfe6" transform="matrix(.473 -.881 .881 .473 -12.853 183.386)"/><path d="m512.028 151.925h-105.001l15-90h90.001z" fill="#b9b9d9"/><path d="m422.027 61.925h-54.504l-105.496 125 10 85h150z" fill="#cfcfe6"/><path d="m187.523 61.925-4.059 8.595c-13.261 28.079-32.256 50.354-56.458 66.205-18.22 11.934-32.762 15.577-32.837 15.596l-8.541 2.001c14.492 90 126.4 117.604 126.4 117.604h60v-85z" fill="#ece6f2"/><path d="m367.523 61.925h-30l-75.496 10 10 125h95.496z" fill="#ece6f2"/><path d="m217.523 61.925h-30v135h84.504v-125z" fill="#fff5f5"/><path d="m337.523 61.925h-65.496l-10 22.5 10 22.5h65.496z" fill="#cfcfe6"/><path d="m337.523 166.925v-30h-65.496l-10 15 10 15z" fill="#cfcfe6"/><g fill="#ece6f2"><path d="m217.523 61.925h54.505v45h-54.505z"/><path d="m217.523 136.925h54.505v30h-54.505z"/></g></g></svg>