<svg id="Capa_1" enable-background="new 0 0 512.272 512.272" height="512" viewBox="0 0 512.272 512.272" width="512" xmlns="http://www.w3.org/2000/svg"><g><path d="m512.272.136h-256l-10 97 266-10z" fill="#ece6f2"/><path d="m0 .136v87l256.272 10-.272-97z" fill="#fff5f5"/><path d="m512 87.136h-256l-20 136.31 20 288.69h256z" fill="#cfcfe6"/><path d="m0 87.136h256v425h-256z" fill="#ece6f2"/><path d="m482 117.136h-226l-20 106.31 20 258.69h226z" fill="#29cccc"/><path d="m30 117.136h226v365h-226z" fill="#2ee6a8"/><path d="m30 27.136h30v30h-30z" fill="#ff4d4d"/><g fill="#0f244d"><path d="m392 180.136h60v30h-60z"/><path d="m362 240.136h90v30h-90z"/><path d="m332 180.136h30v30h-30z"/></g><path d="m90 27.136h30v30h-30z" fill="#ffe14d"/><path d="m150 27.136h30v30h-30z" fill="#2ee6a8"/><path d="m400.787 452.136v-30h-144.787l-10 15 10 15z" fill="#ffe14d"/><path d="m277.356 297.563c13.037 0 23.644 10.606 23.644 23.644 0 13.036-10.606 23.643-23.644 23.643h-21.356l-10 15.542 10 14.458h21.356c29.579 0 53.644-24.064 53.644-53.644 0-29.578-24.064-53.643-53.644-53.643h-21.356l-10 15 10 15z" fill="#ffe14d"/><path d="m234.644 344.849c-29.579 0-53.644 24.064-53.644 53.644s24.064 53.644 53.644 53.644h21.356v-30h-21.356c-13.037 0-23.644-10.606-23.644-23.644s10.606-23.644 23.644-23.644h21.356v-30z" fill="#fe9"/><path d="m111.213 267.563h144.787v30h-144.787z" fill="#fe9"/><path d="m111.213 297.563-36.211-36.213c-9.674-9.672-15.002-22.534-15.002-36.215 0-28.239 22.974-51.213 51.213-51.213s51.214 22.974 51.214 51.213c0 13.681-5.328 26.542-15.002 36.215z" fill="#ff4d4d"/><path d="m111.213 203.922c-11.697 0-21.213 9.516-21.213 21.213 0 5.667 2.207 10.994 6.214 15.001l14.999 14.999 15-14.999c4.007-4.007 6.214-9.334 6.214-15.001 0-11.697-9.517-21.213-21.214-21.213z" fill="#fff5f5"/><path d="m400.787 452.135-36.212-36.212c-9.674-9.672-15.002-22.533-15.002-36.214 0-28.239 22.975-51.214 51.214-51.214s51.213 22.975 51.213 51.214c0 13.68-5.327 26.541-15.001 36.214z" fill="#cc295f"/><path d="m400.787 358.496c-11.697 0-21.214 9.517-21.214 21.214 0 5.666 2.207 10.993 6.214 15l15 15 14.999-14.999c4.007-4.008 6.214-9.335 6.214-15.001 0-11.698-9.516-21.214-21.213-21.214z" fill="#ece6f2"/></g></svg>