<svg id="Capa_1" enable-background="new 0 0 512 512" height="512" viewBox="0 0 512 512" width="512" xmlns="http://www.w3.org/2000/svg"><g><path d="m469.272 256-36.468-34.924-1.032-49.622-14.772-35.454h-105l20 255h180v-97.5z" fill="#fff5f5"/><path d="m286 76h-14.864l-10 45h24.864z" fill="#cfcfe6"/><path d="m256 76h15.136v45h-15.136z" fill="#ece6f2"/><path d="m332 106h-60.864l-10 120 10 165h60.864v-75l-10-15 10-15v-30l-10-15 10-15z" fill="#ece6f2"/><path d="m0 106v120l10 15-10 15v30l10 15-10 15v75h271.136v-285z" fill="#fff5f5"/><circle cx="135" cy="391" fill="#4d578c" r="45"/><circle cx="135" cy="391" fill="#ece6f2" r="15"/><circle cx="407" cy="391" fill="#283d66" r="45"/><circle cx="407" cy="391" fill="#cfcfe6" r="15"/><path d="m211 196h-30v-30h-30v30h-30v30h30v30h30v-30h30z" fill="#29cccc"/><path d="m0 226h91v30h-91z" fill="#ff4d4d"/><path d="m332 316v-30h-60.864l-10 15 10 15z" fill="#cc295f"/><path d="m332 226h-60.864l-10 15 10 15h60.864z" fill="#cc295f"/><path d="m0 286h271.136v30h-271.136z" fill="#ff4d4d"/><path d="m241 226h30.136v30h-30.136z" fill="#ff4d4d"/><path d="m431.772 171.454h-39.772l-10 42.273 10 42.273h77.272z" fill="#0f244d"/><path d="m362 171.454h30v84.546h-30z" fill="#283d66"/></g></svg>