<svg id="Capa_1" enable-background="new 0 0 512 512" height="512" viewBox="0 0 512 512" width="512" xmlns="http://www.w3.org/2000/svg"><g><path d="m246 313.164 10 60h45.204c6.065 0 149.202-.677 206.543-59.568l4.253-4.367v-17.214c0-1.56-.082-3.099-.2-4.629z" fill="#ece6f2"/><path d="m255.901 313.164-254.179-3.776c-1.671 9.928-1.722 17.025-1.722 17.718v7.963l6.596 4.462c2.03 1.373 50.503 33.633 118.613 33.633h130.791z" fill="#fff5f5"/><path d="m489.614 245.871-243.614 8.43 10 68.863h59.306c.45 0 46.243-.131 99.634-8.875 38.535-6.31 71.136-15.41 96.86-26.904-1.301-16.829-9.609-31.683-22.186-41.514z" fill="#cfcfe6"/><path d="m255.901 323.164v-68.86l-234.964 8.479c-11.84 14.957-16.98 33.32-19.215 46.605 22.262 7.449 50.509 13.776 82.297 13.776z" fill="#ece6f2"/><path d="m489.614 245.871c-8.529-6.667-19.005-11.033-30.581-12.129-22.767-2.154-58.133-6.711-97.331-16.186-34.271-8.284-67.043-22.232-97.405-41.457-2.799-1.772-5.563-3.475-8.298-5.122l-10 50.859 10 71.886c77.881.03 203.378-6.586 233.615-47.851z" fill="#cc295f"/><path d="m167.959 138.838-14.145-.002v30h13.757c7.941.15 17.432 2.179 28.113 5.941-8.011 3.803-17.189 8.51-27.245 14.257-22.528 12.872-45.056 13.372-54.114 12.941l28.991 63.448s112.67 28.284 112.679 28.299h.004v-122.744c-34.764-20.934-64.353-31.745-88.04-32.14z" fill="#ff4d4d"/><path d="m169.465 233.4c-12.349-3.239-26.196-10.542-37.251-17.256-6.432-3.906-12.452-8.651-17.888-14.169-2.117-2.1-4.099-4.313-5.921-6.613-27.625-34.872-60.948-37.592-62.353-37.691l-14.532-1.021-10.583 106.133s49.133 23.202 171.627 29.402c0 0 26.307 1.523 63.433 1.537-.018-.028-27.487-44.834-86.532-60.322z" fill="#ff884d"/></g></svg>