<svg id="Capa_1" enable-background="new 0 0 512 512" height="512" viewBox="0 0 512 512" width="512" xmlns="http://www.w3.org/2000/svg"><g><path d="m256 95.602-83.327-95.602-44.143 21.323 12.087 36.545 83.516 98.739 31.867-8.425z" fill="#283d66"/><path d="m256 95.602 83.327-95.602 44.143 21.323-12.087 36.545-83.516 98.739-31.867-8.425z" fill="#0f244d"/><path d="m64.796 384.531v-257.062c0-3.693.494-67.988 31.288-127.469h76.589c-20.17 22.367-30.884 51.46-36.472 73.628-7.462 29.602-7.671 53.607-7.671 53.841v267.062z" fill="#4d578c"/><path d="m447.204 384.531v-257.062c0-3.693-.494-67.988-31.288-127.469h-76.589c20.17 22.367 30.884 51.46 36.472 73.628 7.462 29.602 7.671 53.607 7.671 53.841v267.062z" fill="#283d66"/><path d="m287.867 156.607-31.867-61.005-10 298.929 41.867-10z" fill="#283d66"/><path d="m224.133 156.607v227.924l31.867 10v-298.929z" fill="#4d578c"/><path d="m32.929 384.531v95.602h65.601l10-47.801-10-47.801z" fill="#283d66"/><path d="m479.071 384.531h-65.601l-10 47.801 10 47.801h65.601z" fill="#0f244d"/><path d="m383.47 384.531-10 47.801 10 47.801h30v-95.602z" fill="#cfcfe6"/><path d="m319.734 384.531-10 95.602h73.736v-95.602z" fill="#283d66"/><path d="m98.53 384.531v95.602h30l10-47.801-10-47.801z" fill="#ece6f2"/><path d="m192.265 384.531h-63.735v95.602h73.735z" fill="#4d578c"/><path d="m319.734 384.531h-63.734l-10 63.735 10 63.734h63.734z" fill="#0f244d"/><path d="m192.265 384.531h63.734v127.469h-63.734z" fill="#283d66"/><path d="m289.734 414.531h-33.734l-10 33.735 10 33.734h33.734z" fill="#283d66"/><path d="m222.265 414.531h33.735v67.469h-33.735z" fill="#4d578c"/></g></svg>