<svg id="Capa_1" enable-background="new 0 0 512 512" height="512" viewBox="0 0 512 512" width="512" xmlns="http://www.w3.org/2000/svg"><g><path d="m376 36.716-7.065-4.404c-33.911-21.139-72.964-32.312-112.935-32.312l-10 15.692 10 14.308c10.1 0 20.129.839 30 2.472v115.709l90 30z" fill="#0f244d"/><path d="m226 148.182v-115.71c9.87-1.633 19.9-2.472 30-2.472v-30c-39.972 0-79.024 11.173-112.935 32.312l-7.065 4.404v141.466z" fill="#283d66"/><path d="m166 53.582c9.61-5.41 19.655-9.901 30-13.482v108.081h-30z" fill="#ffe14d"/><path d="m346 148.182h-30v-108.082c10.345 3.58 20.39 8.072 30 13.482z" fill="#ffc34d"/><path d="m428.124 340.498-20.008-147.609c-4.99-36.813-23.146-70.547-51.123-94.987-27.977-24.442-63.844-37.902-100.993-37.902l-10 239.754 10 212.246h112.954l28.951-42.715c25.619-37.799 36.352-83.536 30.219-128.787z" fill="#283d66"/><path d="m155.006 97.901c-27.977 24.44-46.133 58.175-51.123 94.987l-20.007 147.61c-6.133 45.25 4.599 90.987 30.218 128.787l28.952 42.715h112.954v-452c-37.15 0-73.016 13.46-100.994 37.901z" fill="#4d578c"/><path d="m398.395 344.527-7.305-53.892-39.557-92.568c-12.285-28.748-36.568-49.903-65.534-58.643l-10 165.234 10.001 177.342h67.046l20.025-29.547c21.471-31.676 30.464-70.005 25.324-107.926z" fill="#ffe14d"/><path d="m316 407h30v30h-30z" fill="#ffc34d"/><path d="m256 135-10 164.754 10 182.246h30v-342.576c-9.577-2.889-19.664-4.424-30-4.424z" fill="#ffc34d"/><path d="m256 135c-10.336 0-20.423 1.535-30 4.424l-10 160.875 10 181.701h30z" fill="#ffe14d"/><path d="m160.466 198.067-39.556 92.567-7.305 53.893c-5.14 37.92 3.854 76.249 25.323 107.926l20.026 29.547h67.046v-342.576c-28.966 8.74-53.249 29.895-65.534 58.643z" fill="#fe9"/><path d="m166 407h30v30h-30z" fill="#ffe14d"/></g></svg>