<svg id="Capa_1" enable-background="new 0 0 512 512" height="512" viewBox="0 0 512 512" width="512" xmlns="http://www.w3.org/2000/svg"><g><path d="m256 0-10 256 10 256c107.523 0 195-87.477 195-195v-122c0-107.523-87.477-195-195-195z" fill="#ece6f2"/><path d="m61 195v122c0 107.523 87.477 195 195 195v-512c-107.523 0-195 87.477-195 195z" fill="#fff5f5"/><path d="m316 332v-30h105v-92h-105v-30h104.311c-7.604-83.977-78.386-150-164.311-150l-10 226 10 226c85.925 0 156.707-66.023 164.311-150z" fill="#ff4d4d"/><path d="m91 195v122c0 90.981 74.019 165 165 165v-452c-90.981 0-165 74.019-165 165z" fill="#ff884d"/><path d="m256 60-10 15 10 15c57.897 0 105 47.103 105 105v122c0 57.897-47.103 105-105 105l-10 15 10 15c74.439 0 135-60.561 135-135v-122c0-74.439-60.561-135-135-135z" fill="#ece6f2"/><path d="m256 116.589-10 139.411 10 139.411c41.355 0 75-33.645 75-74.999v-128.824c0-41.355-33.645-74.999-75-74.999z" fill="#ece6f2"/><path d="m181 191.588v128.824c0 41.354 33.645 74.999 75 74.999v-278.822c-41.355 0-75 33.644-75 74.999z" fill="#fff5f5"/><path d="m256 146.589-10 109.411 10 109.411c24.813 0 45-20.187 45-44.999v-128.824c0-24.813-20.187-44.999-45-44.999z" fill="#29cccc"/><path d="m211 191.588v128.824c0 24.813 20.187 44.999 45 44.999v-218.822c-24.813 0-45 20.186-45 44.999z" fill="#2ee6a8"/><path d="m151 317v-122c0-57.897 47.103-105 105-105v-30c-74.439 0-135 60.561-135 135v122c0 74.439 60.561 135 135 135v-30c-57.897 0-105-47.103-105-105z" fill="#fff5f5"/></g></svg>