<svg id="Capa_1" enable-background="new 0 0 512.272 512.272" height="512" viewBox="0 0 512.272 512.272" width="512" xmlns="http://www.w3.org/2000/svg"><g><path d="m512.272.136h-256l-10 97 266-10z" fill="#ece6f2"/><path d="m0 .136v87l256.272 10-.272-97z" fill="#fff5f5"/><path d="m512 87.136h-256l-20 136.31 20 288.69h256z" fill="#cfcfe6"/><path d="m0 87.136h256v425h-256z" fill="#ece6f2"/><path d="m30 27.136h30v30h-30z" fill="#ff4d4d"/><path d="m90 27.136h30v30h-30z" fill="#ffe14d"/><path d="m150 27.136h30v30h-30z" fill="#2ee6a8"/><path d="m392 165.136h60v30h-60z" fill="#249bb3"/><path d="m452 225.136h-196l-10 15 10 15h196z" fill="#297acc"/><path d="m362 165.136h-106l-10 15 10 15h106z" fill="#249bb3"/><path d="m60 225.136h113.5v30h-113.5z" fill="#39f"/><path d="m203.5 225.136h52.5v30h-52.5z" fill="#39f"/><path d="m60 165.136h196v30h-196z" fill="#29cccc"/><path d="m428.099 302.241-51.071 37.649-67.267-49.911-53.761 29.717-10 22.233 10 12.045 51.384-28.403 69.588 51.634 68.929-50.818z" fill="#cc295f"/><path d="m213.234 343.335-63.496-32.55-81.988 45.27 14.5 26.262 68.012-37.552 63.504 32.555 42.234-23.346v-34.278z" fill="#ff4d4d"/><path d="m452 437.136v-30h-196l-10 15 10 15z" fill="#283d66"/><path d="m90 285.136h-30v152h196v-30h-166z" fill="#4d578c"/></g></svg>