<svg id="Capa_1" enable-background="new 0 0 511.99 511.99" height="512" viewBox="0 0 511.99 511.99" width="512" xmlns="http://www.w3.org/2000/svg"><g><path d="m196.982 347.652-67.815-215.083-26.111-10-36.801 10 64.051 203.144z" fill="#283d66"/><path d="m52.066 87.569 14.189 45h62.912l-14.189-45-24.362-10z" fill="#cfcfe6"/><path d="m246.018 455.335 10 40h226v-30z" fill="#ece6f2"/><path d="m60.018 465.335v30h196v-40z" fill="#fff5f5"/><path d="m482.018 465.335v-45l-236-20.572 10 65.572z" fill="#cfcfe6"/><path d="m256.018 399.763-196-17.841v83.413h196z" fill="#ece6f2"/><path d="m379.041 345.335c-41.165 0-82.227-2.214-123.023-6.612l-10 43.199 10 47.28c40.82 4.076 81.873 6.133 123.023 6.133h87.977v-90z" fill="#283d66"/><path d="m57.581 299.375c-11.329-3.31-23.304-2.069-33.724 3.489-10.404 5.549-18.11 14.791-21.698 26.025-3.721 11.649-2.607 24.012 3.136 34.809 5.753 10.817 15.404 18.667 27.173 22.103 73.119 21.345 147.932 35.849 223.549 43.401v-90.479c-67.104-7.234-133.491-20.382-198.436-39.348z" fill="#4d578c"/><path d="m379.013 375.335c-41.16 0-82.218-2.161-123.023-6.447l-10 13.033 10 17.123c40.813 4.178 81.868 6.29 123.023 6.29h57.977v-30h-57.977z" fill="#0f244d"/><path d="m49.144 328.172c-1.363-.398-2.744-.588-4.107-.588-6.346 0-12.307 4.111-14.327 10.434-1.239 3.879-.868 7.997 1.045 11.594 1.923 3.616 5.152 6.241 9.093 7.391 70.383 20.547 142.375 34.593 215.143 42.043v-30.157c-69.957-7.347-139.165-20.952-206.847-40.717z" fill="#283d66"/><circle cx="466.99" cy="390.335" fill="#4d578c" r="45"/><circle cx="466.99" cy="390.335" fill="#cfcfe6" r="15"/><path d="m300.99 57.569h-44.972l-10 15 10 15h44.972z" fill="#0f244d"/><path d="m226.018 57.569-10 15 10 15h30v-30z" fill="#283d66"/><path d="m63.979 57.569-43.4-40.914-20.579 21.828 52.066 49.086h173.952v-30z" fill="#4d578c"/></g></svg>