<svg id="Capa_1" enable-background="new 0 0 512 512" height="512" viewBox="0 0 512 512" width="512" xmlns="http://www.w3.org/2000/svg"><g><path d="m259.947 82.392s-44.761 8.603-67.062-13.698-13.698-67.062-13.698-67.062 44.761-8.603 67.062 13.698 13.698 67.062 13.698 67.062" fill="#29cccc"/><path d="m307.71 21.245c-28.764 0-61.71 44.721-61.71 78.996v61.949l25-10v-51.949c0-28.311 16.765-53.923 42.711-65.249z" fill="#29cccc"/><path d="m307.71 21.245-6.001-13.747c-36.879 16.099-60.709 52.503-60.709 92.743v51.949l15 10v-61.949c0-34.275 20.297-65.284 51.71-78.996z" fill="#2ee6a8"/><path d="m346.186 142.029c-31.9-6.345-63.061-2.054-90.186 10.162l-20 164.809 20 187.83c5.528 1.901 11.232 3.461 17.099 4.629 61.864 12.305 123.757-21.03 147.523-79.458l34.71-85.327c35.324-86.835-17.202-184.357-109.146-202.645z" fill="#cc295f"/><path d="m165.814 142.028c-91.944 18.289-144.47 115.811-109.147 202.646l34.709 85.327c23.767 58.427 85.659 91.763 147.524 79.458 5.868-1.167 11.571-2.728 17.099-4.629v-352.64c-27.124-12.216-58.285-16.507-90.185-10.162z" fill="#ff4d4d"/><path d="m108.119 241h31.867v30h-31.867z" fill="#cc295f"/></g></svg>