<svg id="Capa_1" enable-background="new 0 0 512 512" height="512" viewBox="0 0 512 512" width="512" xmlns="http://www.w3.org/2000/svg"><g><path d="m398.5 0h-180l-10 15 10 15h180c8.271 0 15 6.729 15 15s-6.729 15-15 15h-120c-24.507 0-46.305 11.814-60 30.047l-10 106.953h25v-62c0-24.813 20.187-45 45-45h120c24.813 0 45-20.187 45-45s-20.187-45-45-45z" fill="#0f244d"/><path d="m158.5 60c-8.271 0-15-6.729-15-15s6.729-15 15-15h60v-30h-60c-24.813 0-45 20.187-45 45s20.187 45 45 45 45 20.187 45 45v62h15v-106.953c-13.695-18.233-35.493-30.047-60-30.047z" fill="#283d66"/><path d="m263.5 182h-45l-10 75h55z" fill="#ece6f2"/><path d="m173.5 182h45v75h-45z" fill="#fff5f5"/><path d="m68.5 302h45v30h-45z" fill="#4d578c"/><path d="m68.5 362h45v30h-45z" fill="#4d578c"/><path d="m323.5 302h45v30h-45z" fill="#283d66"/><path d="m323.5 362h45v30h-45z" fill="#283d66"/><path d="m218.5 242-10 105 10 165c66.168 0 120-53.832 120-120v-150z" fill="#ffe14d"/><path d="m98.5 242v150c0 66.168 53.832 120 120 120v-270z" fill="#fe9"/><path d="m218.5 272-10 75 10 91.727 54.021 25.211c21.834-16.437 35.979-42.566 35.979-71.938v-120z" fill="#ffc34d"/><path d="m128.5 272v120c0 29.372 14.145 55.501 35.979 71.938l54.021-26.938v-165z" fill="#ffe14d"/><path d="m278.5 302h-60l-10 45 10 45h60z" fill="#283d66"/><path d="m158.5 302h60v90h-60z" fill="#4d578c"/><path d="m248.5 362v-30h-30l-10 15 10 15z" fill="#29cccc"/><path d="m188.5 332h30v30h-30z" fill="#2ee6a8"/><path d="m272.521 463.938c-12.346-16.359-31.946-26.938-54.021-26.938l-10 26.938 10 18.062c20.254 0 38.965-6.727 54.021-18.062z" fill="#ff4d4d"/><path d="m164.479 463.938c15.056 11.335 33.767 18.062 54.021 18.062v-45c-22.075 0-41.675 10.579-54.021 26.938z" fill="#ff884d"/></g></svg>