<svg id="Capa_1" enable-background="new 0 0 512 512" height="512" viewBox="0 0 512 512" width="512" xmlns="http://www.w3.org/2000/svg"><g><path d="m512 296.595-276-27.524 20 92.349h63.956s138.91 0 192.044-64.825z" fill="#ece6f2"/><path d="m16.458 244.768c-9.511 23.989-16.458 51.368-16.458 80.188 0 0 24.195 36.464 152.686 36.464h103.314v-92.349z" fill="#fff5f5"/><path d="m157.775 174.227-87.856-17.698s-32.791 36.108-53.461 88.24c22.08 28.515 58.506 41.917 93.802 34.511 0-.001 47.51-105.048 47.515-105.053z" fill="#6cf"/><path d="m452.499 252.607s-20.794-2.399-45.481-6.777c-19.95-3.538-39.332-9.489-57.765-17.634l-103.253-12.183 10 73.058 2.41.813c42.518 14.339 87.504 19.901 132.234 16.349l121.356-9.638s0-38.2-59.501-43.988z" fill="#297acc"/><path d="m157.775 174.227c-.005.005-47.515 48.826-47.515 105.052 47.104-9.884 95.994-6.985 141.6 8.396l4.14 1.396v-73.058s-97.547-41.002-98.225-41.786z" fill="#39f"/><path d="m349.254 228.196c-14.675-6.484-28.748-14.355-42.02-23.523l-4.793-3.311-56.441-16.023 10 40.675c15.16 3.241 32.379 5.327 51.608 5.327 12.971-.001 26.868-.965 41.646-3.145z" fill="#283d66"/><path d="m186.595 160.46c-8.327 3.349-17.914 7.81-28.821 13.767.678.784 16.984 19.389 49.198 35.074 12.676 6.172 29.065 12.444 49.027 16.712v-30.675z" fill="#4d578c"/><path d="m256 169.279-10 8.766 10 17.293c14.762 3.694 30.26 5.709 46.441 6.023z" fill="#0f244d"/><path d="m229.086 150.687s-13.62-1.84-42.491 9.773c6.507 5.686 18.147 14.565 34.915 22.544 10.985 5.227 22.496 9.333 34.49 12.334v-26.059z" fill="#283d66"/></g></svg>