<svg id="Capa_1" enable-background="new 0 0 512 512" height="512" viewBox="0 0 512 512" width="512" xmlns="http://www.w3.org/2000/svg"><g><path d="m308.862 279.217c.892-30.454 11.497-132.219 112.122-154.708l10.021-45.373-10-47.269c-.006.005-74.436 63.735-165.005 63.735l-10 202.266c18.489-.001 46.267-13.042 62.862-18.651z" fill="#39f"/><path d="m90.995 31.867-10 49.191c0 .551 10.021 43.451 10.021 43.451 100.625 22.489 111.23 124.254 112.122 154.708l52.862 18.65v-202.265c-90.572 0-165.005-63.735-165.005-63.735z" fill="#6cf"/><path d="m509.161 218.571-20.668-186.704h-37.488l-35.337 186.909s-133.356 99.091-159.668 99.091l-10 108.531 242.493-10c20.999-63.696 28.048-131.165 20.668-197.827z" fill="#297acc"/><path d="m2.839 218.571 20.668-186.704h37.488l35.337 186.909s133.356 99.091 159.668 99.091v108.531l-232.493-10c-20.999-63.696-28.048-131.165-20.668-197.827z" fill="#39f"/><path d="m256 416.398-10 40 242.493-10v-30z" fill="#cfcfe6"/><path d="m256 416.398h-232.493v30l232.493 10z" fill="#ece6f2"/><path d="m256 480.133h232.493v-33.735h-232.493l-10 16.867z" fill="#ece6f2"/><path d="m23.507 446.398h232.493v33.735h-232.493z" fill="#fff5f5"/><path d="m393.889 260.752c17.899-17.899 31.956-38.751 41.779-61.975 10.177-24.06 15.337-49.602 15.337-75.914v-90.996h-30v90.995c0 91.13-73.875 165.005-165.005 165.005l-10 15.403 10 14.597c26.312 0 51.853-5.16 75.914-15.337 23.224-9.823 44.076-23.879 61.975-41.778z" fill="#ffe14d"/><path d="m256 287.867c-91.13 0-165.005-73.875-165.005-165.005v-90.995h-30v90.995c0 26.312 5.16 51.854 15.337 75.914 9.823 23.225 23.88 44.076 41.779 61.975s38.751 31.956 61.975 41.779c24.061 10.177 49.602 15.337 75.914 15.337z" fill="#fe9"/></g></svg>