<svg id="Capa_1" enable-background="new 0 0 512.721 512.721" height="512" viewBox="0 0 512.721 512.721" width="512" xmlns="http://www.w3.org/2000/svg"><g><path d="m471.365 133.212c-35.757-41.666-102.083-91.334-215.004-91.334l-10 309.947c127.967 0 265.933.005 265.994.016l.366-105.924c.13-41.451-14.557-81.477-41.356-112.705z" fill="#cc295f"/><path d="m41.357 133.212c-26.8 31.228-41.487 71.254-41.356 112.709l.366 105.92c.061-.011 128.027-.016 255.994-.016v-309.947c-112.921 0-179.247 49.668-215.004 91.334z" fill="#ff4d4d"/><path d="m436.332 243.798c-.747-23.738-10.55-45.914-27.606-62.442-17.056-16.527-39.529-25.63-63.279-25.63h-89.087l-10 185.981h193.05z" fill="#ffe14d"/><path d="m167.274 155.725c-23.75 0-46.223 9.103-63.279 25.63-17.056 16.528-26.859 38.704-27.606 62.442l-3.078 97.908h183.05v-185.98z" fill="#fe9"/><path d="m406.347 244.741c-.5-15.907-7.069-30.767-18.498-41.842-11.429-11.074-26.487-17.174-42.401-17.174h-89.087l-10 152.77h162.934z" fill="#283d66"/><path d="m167.274 185.725c-15.915 0-30.973 6.1-42.401 17.174-11.429 11.075-17.998 25.935-18.498 41.842l-2.948 93.754h152.934v-152.77z" fill="#4d578c"/><path d="m301.361 255.045h-45l-10 15 10 15h45z" fill="#ece6f2"/><path d="m211.361 255.045h45v30h-45z" fill="#fff5f5"/><path d="m256.361 330.597-10 50.289 10 60.979c35.853 0 71.358 4.927 105.53 14.645l39.886 11.342c7.039 2.002 14.187 2.992 21.288 2.992 13.41 0 26.644-3.535 38.601-10.466 18.288-10.602 31.162-27.74 36.249-48.258l14.441-60.277v-.001c-.252-.046-120.722-21.245-255.995-21.245z" fill="#ece6f2"/><path d="m.367 351.841 14.413 60.163.028.115c5.087 20.518 17.96 37.656 36.249 48.258 18.288 10.602 39.557 13.259 59.889 7.474l39.886-11.342c34.172-9.718 69.678-14.645 105.53-14.645v-111.267c-135.274 0-255.745 21.199-255.995 21.244z" fill="#fff5f5"/></g></svg>