<svg id="Capa_1" enable-background="new 0 0 512 512" height="512" viewBox="0 0 512 512" width="512" xmlns="http://www.w3.org/2000/svg"><g><path d="m512 171.049s-18.336-8.076-48.734-17.928l-10 131.418 58.734-2.83z" fill="#39f"/><path d="m433.266 144.071-10 136.848 40-6.38v-121.418c-8.995-2.916-19.055-5.986-30-9.05z" fill="#ece6f2"/><path d="m0 171.049v110.66l58.734 2.83-10-131.418c-30.398 9.853-48.734 17.928-48.734 17.928z" fill="#6cf"/><path d="m48.734 153.121v121.418l40 6.38-10-136.848c-10.945 3.064-21.005 6.134-30 9.05z" fill="#fff5f5"/><path d="m433.266 144.071c-46.928-13.136-110.277-26.134-177.266-26.134v152.981h177.266z" fill="#297acc"/><path d="m78.734 144.071v126.848h177.266v-152.982c-66.989 0-130.338 12.998-177.266 26.134z" fill="#39f"/><path d="m334.656 260.386c0-43.371-35.285-78.656-78.656-78.656l-10 90.947 88.656-10z" fill="#ffc34d"/><path d="m177.344 260.386v2.291l78.656 10v-90.947c-43.371-.001-78.656 35.285-78.656 78.656z" fill="#ffe14d"/><path d="m256 211.729-10 58.735 58.656-9.128v-.95c0-26.829-21.827-48.657-48.656-48.657z" fill="#cc295f"/><path d="m207.344 260.386v.95l48.656 9.128v-58.735c-26.829 0-48.656 21.828-48.656 48.657z" fill="#ff4d4d"/><path d="m256 260.464-10 45.79 10 57.056c39.021 0 78.563 5.388 116.457 16.164l42.367 12.048c35.988 10.234 73.294-11.393 82.298-47.708l14.878-62.105s-120.586-21.245-256-21.245z" fill="#cfcfe6"/><path d="m0 281.709 14.878 62.104c9.004 36.315 46.31 57.942 82.298 47.708l42.367-12.048c37.894-10.775 77.436-16.163 116.457-16.163v-102.846c-135.414 0-256 21.245-256 21.245z" fill="#ece6f2"/></g></svg>