<svg id="Capa_1" enable-background="new 0 0 512.018 512.018" height="512" viewBox="0 0 512.018 512.018" width="512" xmlns="http://www.w3.org/2000/svg"><g><path d="m430.742 166.642c-13.987-26.335-28.83-51.466-45.22-76.545 15.705-23.067 29.869-41.582 43.147-56.414l14.525-16.225-20.337-7.788c-43.154-16.527-85.111-8.495-125.686-.725-34.652 6.635-67.558 12.932-99.679 3.91l-10 88.148 10 92.755c36.015 7.906 71.158 1.194 105.321-5.348 38.125-7.301 74.136-14.195 109.314-.725l37.394 14.321z" fill="#29cccc"/><path d="m187.859 9.671-5.365-2.055-10 414.402h25v-409.162c-3.219-.904-6.43-1.958-9.635-3.185z" fill="#ece6f2"/><path d="m167.494 1.871v420.147h15v-414.402z" fill="#fff5f5"/><path d="m182.494 407.018-10 90h100c0-49.626-40.374-90-90-90z" fill="#ff884d"/><path d="m92.494 497.018h90v-90c-49.626 0-90 40.374-90 90z" fill="#ffc34d"/><path d="m302.494 512.018v-30h-120l-10 15 10 15z" fill="#ff4d4d"/><path d="m62.494 482.018h120v30h-120z" fill="#ff884d"/></g></svg>