<svg id="Capa_1" enable-background="new 0 0 512 512" height="512" viewBox="0 0 512 512" width="512" xmlns="http://www.w3.org/2000/svg"><g><path d="m374.313 0h-118.313l-10 45 10 45h118z" fill="#cc295f"/><path d="m137.687 0h118.313v90h-118.313z" fill="#ff4d4d"/><path d="m374.313 0-118.313 179.368 61.102 92.632 124.231-188.34z" fill="#ff884d"/><path d="m271 287h-25l10 60h15z" fill="#ffe14d"/><path d="m241 287h15v60h-15z" fill="#fe9"/><path d="m256 332-10 90 10 90c49.626 0 90-40.374 90-90s-40.374-90-90-90z" fill="#ffc34d"/><path d="m166 422c0 49.626 40.374 90 90 90v-180c-49.626 0-90 40.374-90 90z" fill="#ffe14d"/><path d="m256 179.368-10 102.632 71.102-10z" fill="#ff4d4d"/><path d="m137.687 0-67.02 83.66 124.231 188.34 61.102 10v-102.632z" fill="#ff884d"/><path d="m316 422c0-33.084-26.916-60-60-60l-10 60 10 60c33.084 0 60-26.916 60-60z" fill="#ffe14d"/><path d="m196 422c0 33.084 26.916 60 60 60v-120c-33.084 0-60 26.916-60 60z" fill="#fe9"/><path d="m377.102 272h-121.102l-10 15 10 15h121.102z" fill="#ffc34d"/><path d="m134.898 272h121.102v30h-121.102z" fill="#ffe14d"/></g></svg>