<svg id="Capa_1" enable-background="new 0 0 512 512" height="512" viewBox="0 0 512 512" width="512" xmlns="http://www.w3.org/2000/svg"><g><path d="m50.177 236.286-23.938-13.819c-25.07-14.475-33.69-46.647-19.215-71.717 7.012-12.145 18.333-20.831 31.878-24.461 13.547-3.629 27.694-1.767 39.838 5.245l24.077 13.9-15 25.98-24.077-13.9c-10.744-6.203-24.531-2.509-30.735 8.235-6.203 10.744-2.509 24.533 8.235 30.736l23.938 13.819z" fill="#ffc34d"/><path d="m324.822 105.5v75h-30v-75h-105.5l-10 150.5 10 150.5h.012c40.195-.001 77.972-15.645 106.408-44.08 16.649-16.649 28.857-36.339 36.283-58.521 15.701-46.894 59.177-78.399 108.186-78.399h51.789l-10-120z" fill="#ffc34d"/><g fill="#ffe14d"><path d="m482 105.5h30v150h-30z"/><path d="m82.903 149.581c-28.4 28.399-44.112 66.021-44.241 105.938-.13 39.918 15.34 77.64 43.561 106.217 28.38 28.739 66.246 44.637 106.622 44.765h.478v-301c-40.201-.001-77.995 15.654-106.42 44.08z"/><path d="m189.322 165.5-10 90.5 10 90.5c49.902 0 90.5-40.598 90.5-90.5s-40.598-90.5-90.5-90.5z"/></g><path d="m98.822 256c0 49.902 40.598 90.5 90.5 90.5v-181c-49.903 0-90.5 40.598-90.5 90.5z" fill="#fe9"/><path d="m189.322 195.5-10 60.5 10 60.5c33.359 0 60.5-27.141 60.5-60.5s-27.141-60.5-60.5-60.5z" fill="#ffc34d"/><path d="m128.822 256c0 33.359 27.141 60.5 60.5 60.5v-121c-33.36 0-60.5 27.141-60.5 60.5z" fill="#ffe14d"/></g></svg>