<svg id="Capa_1" enable-background="new 0 0 510 510" height="512" viewBox="0 0 510 510" width="512" xmlns="http://www.w3.org/2000/svg"><g id="XMLID_125_"><path id="XMLID_311_" d="m258.744 411.793-118.744-4.293-140 12.5v45l137 12.5 123.606-5.735 9.394-29.265z" fill="#ffdf60"/><path id="XMLID_305_" d="m255 465 132.5 8.5 122.5-8.5v-45l-118-20-137 20z" fill="#fcbe00"/><path id="XMLID_302_" d="m0 465v30h255l11.5-15-11.5-15z" fill="#fcbe00"/><path id="XMLID_296_" d="m255 465h255v30h-255z" fill="#fe9002"/><path id="XMLID_293_" d="m441.748 172.33-46.169-90.063-6.082-11.014-28.724.153-6.104 11.331-41.265 86.257 61.596 101.006z" fill="#fe9002"/><path id="XMLID_281_" d="m198.694 166.371-43.115-84.104-6.082-11.014-28.723.153-6.105 11.331-44.27 92.009 64.601 95.254z" fill="#fcbe00"/><circle id="XMLID_278_" cx="375" cy="45" fill="#ff307a" r="30"/><circle id="XMLID_275_" cx="135" cy="45" fill="#ff6c6c" r="30"/><path id="XMLID_266_" d="m134.396 246.743-134.396-151.196v249.453l136.741 19 118.259-19 11.5-98.5-11.5-150.512z" fill="#ffdf60"/><path id="XMLID_231_" d="m510 95.547-134.397 151.196-120.603-150.755v249.012l100.667 19 154.333-19z" fill="#fcbe00"/><path id="XMLID_221_" d="m255 345h-255v75h255l15-37.5z" fill="#ff6c6c"/><path id="XMLID_218_" d="m255 345h255v75h-255z" fill="#ff307a"/><path id="XMLID_213_" d="m240 240v30h15l7.5-13.333-7.5-16.667z" fill="#ff6c6c"/><path id="XMLID_142_" d="m255 240h15v30h-15z" fill="#ff307a"/></g></svg>