<svg id="Capa_1" enable-background="new 0 0 510.814 510.814" height="512" viewBox="0 0 510.814 510.814" width="512" xmlns="http://www.w3.org/2000/svg"><g id="XMLID_1939_"><path id="XMLID_2204_" d="m195.407 135.314-5.667 31.762 5.667 28.271v315.468h30 30l15-174.405-15-201.095c-7.259-.001-52.693-.001-60-.001z" fill="#704c55"/><path id="XMLID_1643_" d="m315.407 135.314c-7.259 0-52.693 0-60 0v187.751 187.75h30 30c0-14.621 0-302.238 0-315.468l3.75-30.375z" fill="#5b362a"/><g id="XMLID_1975_"><path id="XMLID_2194_" d="m240.407 47.124v147.825 148.119l5.75 14.341 9.25-4.028 4-161.972-4-154.785-7.667-3.881z" fill="#d6d6e0"/><path id="XMLID_2193_" d="m270.407 47.124-5.333-16.548-9.667 6.049v158.325 158.432l7.5 2.528 7.5-12.841c0-16.408 0-279.472 0-295.945z" fill="#c0c0d6"/></g><g id="XMLID_1973_"><g><g id="XMLID_242_"><path d="m240.407 420.314v15 15h7.5 7.5l4.5-13.655-4.5-16.345h-7.5z" fill="#5b362a"/></g><g id="XMLID_220_"><path d="m270.407 420.314h-7.5-7.5v15 15h7.5 7.5v-15z" fill="#38211a"/></g></g></g><g id="XMLID_1972_"><g><g id="XMLID_646_"><path d="m53.657 214.679c.783.539 201.619 138.61 201.75 138.7l6 17.28-6 19.13c-12.109-8.325-232.012-159.501-243.37-167.31l15.87-9.403z" fill="#525263"/></g><g id="XMLID_645_"><path d="m457.157 214.669c-8.739 6.008-199.982 137.495-201.75 138.71v18.2 18.21c12.109-8.325 232.012-159.501 243.37-167.31l-21.12-13.07z" fill="#454554"/></g></g></g><g id="XMLID_1966_"><path id="XMLID_1961_" d="m256.564.814c-.1-.07-1.257-.879-1.157-.81-8.204 5.743-60.345 42.241-68.603 48.021.818 1.169-1.223-1.747 17.205 24.577 5.126-3.588 46.176-32.323 51.398-35.978l4-12.549-4-23.262c.101.001 1.258.001 1.157.001z" fill="#f2f2f2"/><path id="XMLID_1956_" d="m324.009 48.026c-7.545-5.282-59.977-41.985-67.444-47.212-.101 0-1.258 0-1.157 0v35.811c16.998 11.898 34.345 24.041 51.398 35.978.818-1.169-1.223 1.746 17.203-24.577z" fill="#d6d6e0"/></g><path id="XMLID_29_" d="m195.407 105.285v90.062c-70.281 4.431-111.885 13.73-195 29.312 0-10.956 0-79.495 0-90.523 97.5-25.051 195-28.851 195-28.851z" fill="#5b362a"/><path id="XMLID_28_" d="m315.407 105.285v90.062c70.281 4.431 111.885 13.73 195 29.312 0-10.956 0-79.495 0-90.523-97.5-25.051-195-28.851-195-28.851z" fill="#38211a"/></g></svg>