<svg id="Capa_1" enable-background="new 0 0 510 510" height="512" viewBox="0 0 510 510" width="512" xmlns="http://www.w3.org/2000/svg"><g id="XMLID_350_"><path id="XMLID_422_" d="m360 90c0-5.246 0-9.754 0-15 0-41.354-33.644-75-75-75-5.246 0-9.754 0-15 0l-7.5 51 7.5 39z" fill="#ff307a"/><g id="XMLID_410_"><g><g id="XMLID_702_"><path d="m240 0v180l7.5 6.25 10.312-3.524 1.688-89.601-4.5-93.125c-5.246 0-9.754 0-15 0z" fill="#704c55"/></g><g id="XMLID_658_"><path d="m270 0c-5.246 0-9.754 0-15 0v180l7.5 7.25 7.5-7.25c0-5.703 0-170.474 0-180z" fill="#5b362a"/></g></g></g><g id="XMLID_403_"><g><g id="XMLID_144_"><path d="m180 240-13 15-17-15v-30h30z" fill="#aa8360"/></g></g></g><g id="XMLID_399_"><g><path id="XMLID_228_" d="m330 240 15 15 15-15c0-8.923 0-20.89 0-30-10.492 0-19.508 0-30 0z" fill="#99724e"/></g></g><path id="XMLID_396_" d="m210 180v60l22.5 10.333 27-5.833 3-37.833-7.5-26.667c-14.981 0-30.019 0-45 0z" fill="#aa8360"/><path id="XMLID_390_" d="m300 180c-14.981 0-30.019 0-45 0v60l15 15 30-15c0-17.847 0-41.78 0-60z" fill="#99724e"/><g id="XMLID_383_"><path id="XMLID_387_" d="m0 480v30h30l10-15-10-15z" fill="#99724e"/><path id="XMLID_384_" d="m510 480h-30l-8.5 15 8.5 15h30c0-10.492 0-19.508 0-30z" fill="#6b5136"/></g><path id="XMLID_380_" d="m120 240-15.333 151.333 15.333 118.667h90l45-150 15-60-15-60c-5.692 0-122.25 0-135 0z" fill="#c8ad92"/><path id="XMLID_377_" d="m390 240c-12.518 0-128.589 0-135 0v120l45 150h90l12-135z" fill="#aa8360"/><path id="XMLID_374_" d="m120 510h-90v-330l45-8.5 45 8.5z" fill="#aa8360"/><path id="XMLID_371_" d="m390 510h90c0-18.326 0-311.674 0-330l-45-8.5-45 8.5z" fill="#99724e"/><path id="XMLID_368_" d="m120 120v30h-30v-30h-30v30h-30v-30h-30v60h150v-60z" fill="#99724e"/><path id="XMLID_365_" d="m480 150c-10.492 0-19.508 0-30 0 0-10.492 0-19.508 0-30-10.492 0-19.508 0-30 0v30c-10.492 0-19.508 0-30 0 0-10.492 0-19.508 0-30-10.492 0-19.508 0-30 0v60h150c0-7.259 0-52.693 0-60-10.492 0-19.508 0-30 0z" fill="#6b5136"/><g id="XMLID_361_"><g><path id="XMLID_140_" d="m150 300h30v30h-30z" fill="#aa8360"/></g></g><g id="XMLID_357_"><g><path id="XMLID_661_" d="m330 330h30c0-10.492 0-30 0-30h-30z" fill="#99724e"/></g></g><path id="XMLID_354_" d="m210 405v105h45l11.333-63-11.333-87c-24.852 0-45 20.146-45 45z" fill="#704c55"/><path id="XMLID_351_" d="m300 405c0-24.852-20.146-45-45-45v150h45c0-28.278 0-88.527 0-105z" fill="#5b362a"/></g></svg>