<svg id="Capa_1" enable-background="new 0 0 510 510" height="512" viewBox="0 0 510 510" width="512" xmlns="http://www.w3.org/2000/svg"><g id="XMLID_1001_"><g id="XMLID_960_"><g><g id="XMLID_769_"><path d="m225 105c0-28.278 0-88.527 0-105-20.194 0-63.236 0-75 0v105c-20.194 0-63.236 0-75 0 0-28.278 0-88.527 0-105-20.194 0-63.236 0-75 0v510h75l180-359.477 10-23.023-10-22.5c-10.492 0-19.508 0-30 0z" fill="#c8ad92"/></g><g id="XMLID_766_"><path d="m510 0c-20.194 0-63.236 0-75 0v105c-20.194 0-63.236 0-75 0 0-28.278 0-88.527 0-105-20.194 0-63.236 0-75 0v105c-10.492 0-19.508 0-30 0v45.523l180 359.477h75c0-21.483 0-488.617 0-510z" fill="#aa8360"/></g></g></g><path id="XMLID_1084_" d="m239.764 180c-41.399 18.817-81.474 58.366-104.764 94.013-23.475 35.93-36.486 78.463-36.486 123.679v41.154l6.486 41.154 75 15 75-15 15-150-15-146.523z" fill="#704c55"/><path id="XMLID_1083_" d="m411.486 393.846c0-45.216-13.012-87.749-36.486-123.679-23.29-35.647-63.602-71.349-105-90.167l-15 3.477v296.523l75 15 75-15 6.486-45z" fill="#5b362a"/><path id="XMLID_1_" d="m165.119 202.592c-55.997 47.753-90.119 117.931-90.119 195.099v112.309h180l10-165-10-194.477c-42.837 17.145-69.894 35.023-89.881 52.069zm-15.119 277.408c-14.981 0-30.019 0-45 0 0-14.981 0-30.019 0-45h45zm0-75c-14.981 0-30.019 0-45 0 0-.234 0-7.789 0-7.309 0-12.709 1.03-25.298 3.078-37.691h41.922zm0-75c-12.182 0-22.649 0-34.831 0 4.864-15.703 11.431-30.785 19.587-45h15.244zm90 150c-7.259 0-52.693 0-60 0 0-14.981 0-30.019 0-45h60zm0-75c-7.259 0-52.693 0-60 0 0-14.981 0-30.019 0-45h60zm0-75c-7.259 0-52.693 0-60 0 0-14.981 0-30.019 0-45h60zm-84.61-75c22.405-27.485 51.156-49.498 84.374-64.598l.118-.054.118-.053v64.705c-10.232 0-74.311 0-84.61 0z" fill="#5b362a"/><path id="XMLID_25_" d="m435 397.691c0-76.129-33.324-146.666-90.119-195.1-20.148-17.181-47.311-35.041-89.881-52.068v359.477h180c0-12.666 0-98.962 0-112.309zm-105 82.309c-7.259 0-52.693 0-60 0 0-14.981 0-30.019 0-45h60zm0-75c-7.259 0-52.693 0-60 0 0-14.981 0-30.019 0-45h60v22.5zm0-75c-7.259 0-52.693 0-60 0 0-14.981 0-30.019 0-45h60zm-60-75c0-17.602 0-54.441 0-64.705 2.478 1.299 22.77 9.671 46.168 27.524 14.385 10.976 27.258 23.46 38.442 37.181-10.232 0-74.31 0-84.61 0zm90 30h15.244c8.14 14.186 14.706 29.251 19.587 45-12.182 0-22.649 0-34.831 0 0-14.981 0-30.019 0-45zm45 195c-14.981 0-30.019 0-45 0 0-14.981 0-30.019 0-45h45zm0-75c-14.981 0-30.019 0-45 0 0-14.981 0-30.019 0-45h41.922c3.703 22.41 2.982 39.718 3.078 41.346z" fill="#38211a"/><g id="XMLID_920_"><g><g id="XMLID_58_"><path d="m60 150h30v30h-30z" fill="#aa8360"/></g></g></g><g id="XMLID_918_"><g><g id="XMLID_565_"><path d="m420 180h30s0-19.508 0-30c-10.492 0-19.508 0-30 0z" fill="#99724e"/></g></g></g><g id="XMLID_915_"><g><path id="XMLID_621_" d="m420 240h30c0-10.492 0-30 0-30h-30z" fill="#99724e"/></g></g><g id="XMLID_909_"><g><path id="XMLID_59_" d="m60 210h30v30h-30z" fill="#aa8360"/></g></g></g></svg>