<svg id="Capa_1" enable-background="new 0 0 510 510" height="512" viewBox="0 0 510 510" width="512" xmlns="http://www.w3.org/2000/svg"><g id="XMLID_493_"><g id="XMLID_523_"><path id="XMLID_527_" d="m225 0v75l16.125 7.334h21.02l-2.145-44.834-5-37.5c-10.492 0-19.508 0-30 0z" fill="#704c55"/><path id="XMLID_524_" d="m285 0c-10.492 0-19.508 0-30 0v75l15 4.666 15-4.666c0-20.194 0-63.236 0-75z" fill="#5b362a"/></g><g id="XMLID_516_"><path id="XMLID_520_" d="m225 409.09v100.91h30l2.25-50.455 1.075-50.455h-18.325z" fill="#704c55"/><path id="XMLID_517_" d="m285 409.09h-15l-15-3.338v104.248h30c0-27.604 0-85.105 0-100.91z" fill="#5b362a"/></g><path id="XMLID_515_" d="m90 75v120l10 15-10 15.001v89.999l82.5 15 82.5-15 15-105-15-135c-4.654 0-160.348 0-165 0z" fill="#f2f2f2"/><path id="XMLID_514_" d="m420 75c-4.654 0-160.348 0-165 0v240l82.5 10.5 82.5-10.5v-89.999l-11.667-15.001 11.667-15z" fill="#d6d6e0"/><path id="XMLID_513_" d="m90 345v67.5c9.978-2.721 72.459-19.761 82.502-22.5 10.02 3.644 72.443 26.342 82.498 29.998l5-45.998-5-29-82.5-9.5z" fill="#f2f2f2"/><path id="XMLID_512_" d="m337.504 390c9.978 2.722 72.453 19.761 82.496 22.5 0-18.362 0-56.794 0-67.5l-82.5-9.5-82.5 9.5v74.998l.002.001.003.001c9.673-3.518 72.89-26.506 82.499-30z" fill="#d6d6e0"/><path id="XMLID_511_" d="m90 315v30h165l20.5-15-20.5-15c-4.654 0-160.348 0-165 0z" fill="#d6d6e0"/><path id="XMLID_510_" d="m420 315c-4.654 0-160.348 0-165 0v30h165c0-10.492 0-19.508 0-30z" fill="#c0c0d6"/><g id="XMLID_508_"><path id="XMLID_509_" d="m90 195h45v30h-45z" fill="#d6d6e0"/></g><g id="XMLID_506_"><path id="XMLID_507_" d="m375 225h45c0-10.492 0-19.508 0-30-14.981 0-45 0-45 0z" fill="#c0c0d6"/></g><g id="XMLID_501_"><path id="XMLID_505_" d="m254.994 116.398c-10.114 13.15-25.1 32.636-35.377 45.997-20.245-6.749-37.653-12.551-57.898-19.3 1.568 10.977 14.387 100.704 15.986 111.905l38.647 9 43.648-4.643v-64.357l-5-78.594-.003-.004z" fill="#fcbe00"/><path id="XMLID_502_" d="m348.281 143.095c-1.196.398-44.295 14.765-57.9 19.3-10.115-13.147-25.104-32.63-35.381-45.989v138.594l38.647 9 38.647-9c4.294-30.05 13.385-93.69 15.987-111.905z" fill="#fe9002"/></g><g id="XMLID_494_"><path id="XMLID_498_" d="m177.705 255c1.499 10.492 2.786 19.508 4.285 30h73.01l5-15-5-15h-38.648z" fill="#fe9002"/><path id="XMLID_495_" d="m332.295 255c-9.354 0-67.879 0-77.295 0v30h73.01c1.499-10.492 2.786-19.508 4.285-30z" fill="#e67323"/></g></g></svg>