<svg id="Capa_1" enable-background="new 0 0 510 510" height="512" viewBox="0 0 510 510" width="512" xmlns="http://www.w3.org/2000/svg"><g id="XMLID_75_"><path id="XMLID_406_" d="m444.775 42.036-43.415 43.415 2.14 8.906 8.835 8.175 22.665-23.675 23.156-23.319-3.576-10.261z" fill="#fcbe00"/><path id="XMLID_334_" d="m462 55.024-8.511.817-40.402 41.336.913 7.472 8.573 2.015 43.76-43.759z" fill="#fe9002"/><path id="XMLID_204_" d="m380.75 97.174-7.8-4.15-225.98 237.43 11.2 4.57 26.6-4.259 104.73-95.241 111.86-118.7z" fill="#f2f2f2"/><path id="XMLID_202_" d="m409.295 124.097-17.175-5.462-207.35 212.13 19.73 20.759 23.948-15.464 183.887-197.209z" fill="#d6d6e0"/><g id="XMLID_163_"><g id="XMLID_166_"><path id="XMLID_174_" d="m59.647 421.095 14.581-103.729 225.772 27.366v62.579l-102.711 66.396z" fill="#454554"/></g></g><path id="XMLID_162_" d="m474.419 1.976c-17.121 0-31 13.88-31 31 0 9.053 3.882 17.197 10.07 22.865l25.965-18.086 17.341-26.221c-5.642-5.886-13.578-9.558-22.376-9.558z" fill="#704c55"/><path id="XMLID_159_" d="m453.489 55.841c5.516 5.051 12.861 8.135 20.93 8.135 17.121 0 31-13.879 31-31 0-8.322-3.286-15.873-8.624-21.441z" fill="#5b362a"/><path id="XMLID_158_" d="m337.721 64.237 54.395 54.396 15.884-3.109 5.087-18.347-54.153-54.153z" fill="#704c55"/><path id="XMLID_156_" d="m510 508.024h-510v-75l75-15 120 15 105-30 60 30 90-45 60 45z" fill="#525263"/><path id="XMLID_95_" d="m443.787 170.303 21.213-21.213-51.913-51.913-20.971 21.456z" fill="#5b362a"/></g></svg>