<svg id="Capa_1" enable-background="new 0 0 507.934 507.934" height="512" viewBox="0 0 507.934 507.934" width="512" xmlns="http://www.w3.org/2000/svg"><g id="XMLID_551_"><path id="XMLID_563_" d="m331.869 75.184-246.138 251.544 22.978 83.36 158.12-149.734 146.106-155.364z" fill="#64e1dc"/><path id="XMLID_562_" d="m114.483 393.45 65.957 32.539 260.407-248.462-41.275-69.166z" fill="#00c8c8"/><path id="XMLID_561_" d="m334.322 88.758v-34.381l-15.972-53.984-1.336-.392-317.014 317.013.894 3.126 49.05 20.631 45.643-13.278z" fill="#00c8c8"/><path id="XMLID_560_" d="m399.572 108.361 37.371-12.372 27.752-52.751-146.345-42.845 15.972 88.365z" fill="#00a0aa"/><path id="XMLID_559_" d="m419.176 173.61 34.381 21.379 53.985-5.406-42.847-146.345-65.123 65.123z" fill="#00929c"/><path id="XMLID_558_" d="m95.587 327.493-94.693-7.353 41.549 145.35 44.501-26.501 27.539-45.539z" fill="#00a0aa"/><path id="XMLID_557_" d="m114.483 393.45-72.04 72.04 145.351 41.549 10.15-56.795-17.504-37.898z" fill="#00929c"/><path id="XMLID_552_" d="m507.542 189.583-88.366-15.973-238.736 238.736 7.354 94.693 3.125.894 317.015-317.014z" fill="#00a0aa"/></g></svg>