<svg id="Capa_1" enable-background="new 0 0 510 510" height="512" viewBox="0 0 510 510" width="512" xmlns="http://www.w3.org/2000/svg"><g id="XMLID_49_"><path id="XMLID_1200_" d="m105 150v96.378c-12.647 7.367-91.767 53.457-104.498 60.873 1.436 5.858 4.121 42.949 28.646 86.126 42.093 74.108 119.772 116.623 200.335 116.623h25.517l15-255-15-255c-41.355 0-78.855 16.822-106.017 43.983-27.161 27.162-43.983 64.662-43.983 106.017z" fill="#f2f2f2"/><path id="XMLID_1199_" d="m507.796 317.466c.174-1.045-.631 3.784 1.702-10.215-12.647-7.367-91.767-53.457-104.498-60.873 0-26.21 0-81.084 0-96.378 0-82.709-67.287-150-150-150v510h25.518c112.99 0 208.844-81.927 227.278-192.534z" fill="#d6d6e0"/><g id="XMLID_1290_"><path id="XMLID_1291_" d="m180 270h30v30h-30z" fill="#d6d6e0"/></g><g id="XMLID_1288_"><path id="XMLID_1198_" d="m240 270v30h15l5-15-5-15c-5.246 0-15 0-15 0z" fill="#d6d6e0"/><path id="XMLID_1197_" d="m270 270s-9.754 0-15 0v30h15z" fill="#c0c0d6"/></g><g id="XMLID_1286_"><path id="XMLID_1196_" d="m300 270h30v30h-30z" fill="#c0c0d6"/></g><g id="XMLID_1284_"><path id="XMLID_1285_" d="m150 330h30v30h-30z" fill="#d6d6e0"/></g><g id="XMLID_1282_"><path id="XMLID_1283_" d="m210 330h30v30h-30z" fill="#d6d6e0"/></g><g id="XMLID_1280_"><path id="XMLID_1195_" d="m270 360h30v-30s-19.508 0-30 0z" fill="#c0c0d6"/></g><g id="XMLID_1278_"><path id="XMLID_1194_" d="m330 330h30v30h-30z" fill="#c0c0d6"/></g><g id="XMLID_1276_"><path id="XMLID_1277_" d="m180 390h30v30h-30z" fill="#d6d6e0"/></g><g id="XMLID_1274_"><path id="XMLID_1193_" d="m300 390h30v30h-30z" fill="#c0c0d6"/></g><g id="XMLID_1267_"><path id="XMLID_1155_" d="m390 360h30c0-10.492 0-19.508 0-30-10.492 0-30 0-30 0z" fill="#c0c0d6"/></g><g id="XMLID_1265_"><path id="XMLID_1266_" d="m90 330h30v30h-30z" fill="#d6d6e0"/></g><g id="XMLID_1260_"><path id="XMLID_1154_" d="m240 390v30h15l7.5-15-7.5-15c-5.246 0-15 0-15 0z" fill="#d6d6e0"/><path id="XMLID_1152_" d="m270 390s-9.754 0-15 0v30h15z" fill="#c0c0d6"/></g><path id="XMLID_1012_" d="m255 75c-33.137 0-60 26.862-60 60v30c0 33.137 26.862 60 60 60l15-75z" fill="#525263"/><path id="XMLID_1010_" d="m315 165c0-10.492 0-19.508 0-30 0-33.137-26.862-60-60-60v150c.421-.09 23.433 1.419 42.427-17.573 10.857-10.859 17.573-25.859 17.573-42.427z" fill="#454554"/></g></svg>