<svg id="Capa_1" enable-background="new 0 0 510 510" height="512" viewBox="0 0 510 510" width="512" xmlns="http://www.w3.org/2000/svg"><g id="XMLID_1309_"><g id="XMLID_1239_"><g id="XMLID_3148_"><g><g id="XMLID_743_"><path d="m135 129.27v50.73l-15 10-15-10v-50.73z" fill="#704c55"/></g></g></g><path id="XMLID_476_" d="m75 54.271v60l45 22.499 45-22.499v-60z" fill="#fcbe00"/><path id="XMLID_3136_" d="m165 54.271v-33.542l-45 22.5-45-22.5v33.542l45 22.5z" fill="#ff6c6c"/><g id="XMLID_3127_"><g><path id="XMLID_739_" d="m255 114.27v65.73l-12.33 10-17.67-10v-65.73z" fill="#5b362a"/></g></g><path id="XMLID_3123_" d="m184.413 261.92-64.413-1.92-51.949 10 10.627 106.275c-30.157-33.952-48.053-78.329-48.053-124.445v-11.83h34.426l39.949 7.666 79.207-.201 10.793-37.465-15-30h-120.949l3 30h-61.426v41.83c0 66.02 30.514 128.96 81.975 169.911l1.955 13.259c5.191 0 48.237 24.298 48.237 24.298l53.348-16.396 8.86-97.903z" fill="#ffdf60"/><path id="XMLID_3110_" d="m180 180v60l54.334 10.334 66.291-10.334v-60z" fill="#fcbe00"/><path id="XMLID_3078_" d="m180 435 35.666 12 63.084-12c3.097-23.22 18.661-139.917 21.874-164.004v-.996l-68.291-10-52.333 10z" fill="#fcbe00"/><path id="XMLID_339_" d="m65.051 240 3 30h111.949l10-15-10-15c-27.664 0-92.628 0-114.949 0z" fill="#704c55"/><path id="XMLID_2585_" d="m180 270h120.625v-30h-120.625z" fill="#5b362a"/><path id="XMLID_2578_" d="m150.625 345c0 16.333 13.121 29.649 29.375 29.984l10-27.484-10-32.484c-16.254.335-29.375 13.651-29.375 29.984z" fill="#704c55"/><path id="XMLID_2536_" d="m180 315.016v59.969c17.082.319 30.625-13.441 30.625-29.984 0-16.551-13.55-30.305-30.625-29.985z" fill="#5b362a"/><path id="XMLID_2526_" d="m476.361 255c23.564-21.596 34.35-45.553 32.883-72.812-3.039-56.518-58.619-110.648-58.619-167.188v-15h-60l-15.625 15 15.625 15h30.927c7.171 58.631 55.393 110.248 57.735 153.799.738 13.727-2.139 34.787-35.495 59.075l-16.654 12.126 16.654 12.126c33.356 24.288 36.233 45.348 35.495 59.075-2.351 43.715-50.531 94.899-57.735 153.799-8.768 0-15.918 0-30.927 0l-15.625 15 15.625 15h60v-15c0-56.525 55.581-110.684 58.618-167.188 1.467-27.259-9.318-51.216-32.882-72.812z" fill="#5b362a"/><path id="XMLID_2058_" d="m195 39.271v60l45 22.5 45-22.5v-60z" fill="#fe9002"/><path id="XMLID_1994_" d="m285 39.271v-33.542l-45 22.5-45-22.5v33.542l45 22.5z" fill="#ff307a"/><path id="XMLID_1315_" d="m84.555 435 7.5 75h87.945l13.346-30-13.346-45z" fill="#704c55"/><path id="XMLID_1311_" d="m180 510h88.762l9.988-75h-1.242-97.508z" fill="#5b362a"/><path id="XMLID_257_" d="m360.625 0v510h15l7.5-278.334-7.5-231.666z" fill="#ffdf60"/><path id="XMLID_63_" d="m375.625 0v510h15c0-22.608 0-497.055 0-510z" fill="#fcbe00"/></g></g></svg>