<svg id="Capa_1" enable-background="new 0 0 510 510" height="512" viewBox="0 0 510 510" width="512" xmlns="http://www.w3.org/2000/svg"><g id="XMLID_40_"><g id="XMLID_104_"><path id="XMLID_105_" d="m143.492.303h-8.492c-74.439 0-135 60.561-135 135s60.561 135 135 135h8.492l.008-269.987z" fill="#f2f2f2"/></g><path id="XMLID_103_" d="m255 76h-15-15c-20.021 0-43.179-11.782-55.285-31.979l-26.215-43.694-17.372 14.982c-36.398 30.345-59.145 78.512-59.145 119.997 0 41.415 22.838 89.644 59.145 119.999l17.364 14.998 26.22-43.691c9.023-15.041 25.607-27.374 42.88-30.762 4.066-.798 8.211-.85 12.408-.85h30l11.666-60.334z" fill="#d6d6e0"/><g id="XMLID_94_"><path id="XMLID_100_" d="m375 .303c-.129 0-8.845 0-8.492 0l-.004.007-.004.006.008 269.986c.264 0 8.81 0 8.492 0 74.438 0 135-60.559 135-135 0-74.437-60.559-134.999-135-134.999z" fill="#d6d6e0"/></g><path id="XMLID_92_" d="m383.872 15.303c-1.364-1.177-15.699-13.543-17.372-14.987-8.336 13.891-17.879 29.793-26.215 43.684-3.023 5.043-6.746 9.642-11.012 13.664-12.625 11.906-30.492 18.336-44.273 18.336h-15-15v58.803 60.197h15c16.96.037 21.752-.26 27.408.85 12.646 2.48 24.76 10.122 32.604 17.775 3.955 3.857 7.417 8.221 10.275 12.986.283.472-.418-.696 26.22 43.691 1.775-1.534-6.432 5.556 17.364-15 36.357-30.396 59.145-78.646 59.145-120 .001-41.399-22.678-89.597-59.144-119.999z" fill="#c0c0d6"/><g id="XMLID_50_"><path id="XMLID_88_" d="m255-.197c-10.492 0-19.508 0-30 0v330.5l5.834 13.5-5.834 16.5v30l10 15-10 15v90h30l15-260.5z" fill="#704c55"/><path id="XMLID_56_" d="m255-.197v510.5h30v-90l-10-15 10-15v-30l-8-15 8-15s0-312.387 0-330.5c-10.492 0-19.508 0-30 0z" fill="#5b362a"/></g><g id="XMLID_1933_"><path id="XMLID_1592_" d="m225 390.303v30h30l4.666-13.5-4.666-16.5z" fill="#d6d6e0"/><path id="XMLID_47_" d="m255 390.303h30v30h-30z" fill="#c0c0d6"/></g><g id="XMLID_1932_"><path id="XMLID_1580_" d="m225 330.303v30h30l2.334-14.083-2.334-15.917z" fill="#d6d6e0"/><path id="XMLID_1569_" d="m255 330.303h30v30h-30z" fill="#c0c0d6"/></g></g></svg>