<svg id="Capa_1" enable-background="new 0 0 509.996 509.996" height="512" viewBox="0 0 509.996 509.996" width="512" xmlns="http://www.w3.org/2000/svg"><g id="XMLID_944_"><path id="XMLID_1029_" d="m313.27 352.163 19.555 1.841 12.445 65.992-10.051 65.563-24.283 3.104-18.436-8.667v-123.87z" fill="#704c55"/><path id="XMLID_1025_" d="m366.95 356.106v123.89l-16.347 6.667-20.333-6.667v-120.01l11.666-15.657z" fill="#5b362a"/><path id="XMLID_1015_" d="m149.726 179.996c0 99.252 80.748 180 180 180 .182 0 .361-.006.544-.007l115.951-177.515-115.951-182.471c-98.939-.53-180.544 80.225-180.544 179.993z" fill="#ff6c6c"/><path id="XMLID_1020_" d="m509.726 179.996c0-99.07-80.454-179.698-179.456-179.993v359.986c99.002-.295 179.456-80.923 179.456-179.993z" fill="#ff307a"/><path id="XMLID_1009_" d="m329.726 29.996c-82.71 0-150 67.29-150 150s67.29 150 150 150c.182 0 .361-.006.544-.007l68.41-146.327-68.41-153.66c-.183 0-.362-.006-.544-.006z" fill="#f2f2f2"/><path id="XMLID_1014_" d="m479.726 179.996c0-82.528-66.996-149.698-149.456-149.993v299.986c82.46-.295 149.456-67.465 149.456-149.993z" fill="#d6d6e0"/><path id="XMLID_999_" d="m269.726 179.996c0 33.084 26.915 60 60 60 .182 0 .361-.012.544-.014l11.475-59.986-11.475-59.986c-33.158-.355-60.544 26.593-60.544 59.986z" fill="#ff6c6c"/><path id="XMLID_991_" d="m120.56 70.765 108.759 34.95-9.179 28.561-108.97-35.021z" fill="#704c55"/><path id="XMLID_988_" d="m330.27 195.328-210.031 54.088-7.259-29.12 217.29-55.906 10 15.612z" fill="#704c55"/><path id="XMLID_982_" d="m31.623 104.19 55.708 18.901 35.614-35.614-7.115-49.806-56.922-18.974z" fill="#ff6c6c"/><path id="XMLID_979_" d="m123.922 233.172-32.571-38.344-58.273 14.292 21.438 87.409 58.274-14.292z" fill="#ff6c6c"/><path id="XMLID_966_" d="m.27 93.552 31.353 10.638 34.372-35.886-7.087-49.607-31.819-10.607 7.144 50.005z" fill="#ff307a"/><path id="XMLID_956_" d="m33.078 209.12-32.575 7.99 32.571 38.345-11.132 49.063 32.574-7.989 11.134-49.065z" fill="#ff307a"/><path id="XMLID_950_" d="m209.726 479.996v30h120.544l5.666-15-5.666-15z" fill="#5b362a"/><path id="XMLID_946_" d="m330.27 479.996h119.456v30h-119.456z" fill="#38211a"/><path id="XMLID_994_" d="m389.726 179.996c0-32.901-26.623-59.691-59.456-59.986v119.973c32.833-.296 59.456-27.086 59.456-59.987z" fill="#ff307a"/></g></svg>