<svg id="Capa_1" enable-background="new 0 0 509.997 509.997" height="512" viewBox="0 0 509.997 509.997" width="512" xmlns="http://www.w3.org/2000/svg"><g id="XMLID_5_"><path id="XMLID_1367_" d="m29.999 119.997v60l90 10 60-10 21.5-60h-47.5l-64.5-10z" fill="#ffdf60"/><path id="XMLID_1394_" d="m229.999 119.99 10 60.007 60 10 90-10v-60l-61-10-54 10z" fill="#fcbe00"/><g id="XMLID_1387_"><g><g id="XMLID_326_"><path id="XMLID_328_" d="m389.999 180.465-6.533 13.067 6.533 16.933h60v142c0 34.789-26.261 63.561-60 67.532l-11 15s8.361 15.358 11 15.145c50.31-4.084 90-46.332 90-97.677v-172z" fill="#5b362a"/></g></g></g><path id="XMLID_1433_" d="m29.999 389.997v120h180l4-60 11-71.688-105 1.688z" fill="#ffdf60"/><path id="XMLID_1431_" d="m389.999 509.997v-120l-90-10-90 10v120z" fill="#fcbe00"/><g id="XMLID_1336_"><g><path id="XMLID_413_" d="m119.999 179.997-10 102.5 10 107.5h90l10-75-10-75.013-30-59.987z" fill="#fcbe00"/></g></g><g id="XMLID_1334_"><g><path id="XMLID_412_" d="m209.999 389.997h90l10-91-10-119h-90z" fill="#fe9002"/></g></g><g id="XMLID_1363_"><g><path id="XMLID_184_" d="m299.999 179.997h90v210h-90z" fill="#e67323"/></g></g><g id="XMLID_1366_"><g><path id="XMLID_881_" d="m29.999 179.997h90v210h-90z" fill="#fe9002"/></g></g><g id="XMLID_1400_"><path id="XMLID_1373_" d="m104.999 434.997h30v30h-30z" fill="#fe9002"/></g><path id="XMLID_1432_" d="m194.999 464.997h15l4-15-4-15h-15z" fill="#fe9002"/><path id="XMLID_1430_" d="m209.999 434.997h15v30h-15z" fill="#e67323"/><g id="XMLID_1398_"><path id="XMLID_1371_" d="m284.999 434.997h30v30h-30z" fill="#e67323"/></g><path id="XMLID_1435_" d="m170.609 15.597c-17.218-11.702-38.807-17.59-61.08-14.989-44.721 5.2-79.53 43.3-79.53 89.39v30c.101 0 119.81-.021 121.547.039 15.852.806 28.453 13.91 28.453 29.961v60c0 16.569 13.435 29.981 30 29.986l10.333-131.653-10.333-87.046c-12.786-5.573-26.581-7.343-39.39-5.688z" fill="#f2f2f2"/><path id="XMLID_1434_" d="m239.999 209.377v-59.38c0-16.557 13.417-30 30-30h120v-30c0-53.89-55.525-90.345-105-68.73-21.392-9.343-46.444-8.35-67.5 3.791-2.43-1.401-4.936-2.655-7.5-3.773v218.699c16.913 0 30-14.133 30-30.607z" fill="#d6d6e0"/></g></svg>