<svg id="Capa_1" enable-background="new 0 0 510 510" height="512" viewBox="0 0 510 510" width="512" xmlns="http://www.w3.org/2000/svg"><g id="XMLID_1101_"><path id="XMLID_1329_" d="m345 120.227c-14.954 0-44.252 0-60 0l-8 18.107 8 11.893h60l9.5-18.227z" fill="#38211a"/><g id="XMLID_1318_"><g><path id="XMLID_313_" d="m225 150.227h-180v-30h180l4.25 15z" fill="#5b362a"/></g></g><g id="XMLID_1304_"><g><g id="XMLID_312_"><path d="m111.37 360.85c.517-.811-9.021 14.182 113.63-178.619l12.65 36.05-93.55 147.009z" fill="#5b362a"/></g></g></g><g id="XMLID_1299_"><g><path id="XMLID_283_" d="m398.64 360.85c-50.152-78.799-54.129-85.062-113.64-178.62-1.295 3.688 4.69-13.355-12.66 36.05.103.161 92.219 144.901 93.561 147.01z" fill="#38211a"/></g></g><g id="XMLID_1289_"><path id="XMLID_1297_" d="m225 44.773v345.453l17 7.5 18.913-.927 9.087-184.799-15-174.727c-10.492 2.624-19.508 4.877-30 7.5z" fill="#704c55"/><path id="XMLID_1292_" d="m285 29.773c-10.492 2.623-19.508 4.877-30 7.5v352.953l15 7.5 15-7.5c0-10.168 0-350.289 0-360.453z" fill="#5b362a"/></g><g id="XMLID_1281_"><path id="XMLID_1287_" d="m480.95 390.23c-2.653-9.642-45.211-164.297-46.48-168.95-2.959.807 10.72-2.923-28.939 7.89.077.284 43.682 160.15 43.93 161.06l18.539 5.27z" fill="#d6d6e0"/></g><path id="XMLID_1264_" d="m0 390.227v60h255l15-30-15-30c-7.193 0-247.807 0-255 0z" fill="#ffdf60"/><path id="XMLID_1250_" d="m510 390.227c-7.193 0-247.807 0-255 0v60h255c0-7.259 0-52.694 0-60z" fill="#fcbe00"/><path id="XMLID_1210_" d="m427.5 60.227c-28.945 0-52.5 23.55-52.5 52.5v22.5h105c0-7.869 0-14.631 0-22.5 0-28.946-23.55-52.5-52.5-52.5z" fill="#454554"/><path id="XMLID_1206_" d="m345 157.727c0 22.746 9.252 43.371 24.191 58.31 32.247 32.247 84.35 32.269 116.617 0 14.94-14.939 24.192-35.564 24.192-58.31v-7.5l-77.667-15-87.333 15z" fill="#fcbe00"/><path id="XMLID_1202_" d="m510 120.227c-4.655 0-160.348 0-165 0v30h165c0-10.4 0-19.608 0-30z" fill="#fe9002"/><circle id="XMLID_1201_" cx="120" cy="420.227" fill="#525263" r="60"/><circle id="XMLID_1170_" cx="120" cy="420.227" fill="#f2f2f2" r="30"/><circle id="XMLID_1126_" cx="390" cy="420.227" fill="#454554" r="60"/><path id="XMLID_1123_" d="m368.797 399.023c-11.727 11.727-11.734 30.673 0 42.407 5.433 5.432 12.933 8.796 21.203 8.796 16.543 0 30-13.457 30-30 0-8.271-3.364-15.771-8.797-21.203-11.728-11.728-30.672-11.732-42.406 0z" fill="#d6d6e0"/></g></svg>