<svg id="Capa_1" enable-background="new 0 0 510.221 510.221" height="512" viewBox="0 0 510.221 510.221" width="512" xmlns="http://www.w3.org/2000/svg"><g id="XMLID_6_"><g id="XMLID_1598_"><g><path id="XMLID_745_" d="m30.72 210.351-30.28.45-.44-30 30.22-.441 7.473 18.583z" fill="#525263"/></g></g><g id="XMLID_1596_"><path id="XMLID_902_" d="m480.22 180.141h30v30c-7.258 0-23.235 0-30.49 0l-3.838-12.561z" fill="#454554"/></g><path id="XMLID_1213_" d="m255.842.136-.311-.025-.311-.025c-10.829.902-184.171 15.348-195 16.25-.006 3.002.029-15.509-.111 58.775l97.556 15.025h110.318l2.126-45.025-15-44.975h.366.367z" fill="#5b362a"/><path id="XMLID_793_" d="m450.221 16.335c-10.785-.899-183.594-15.301-194.379-16.199h-.366-.366v75l97.556 15 97.444-15.025c.14-74.285.105-55.774.111-58.776z" fill="#38211a"/><path id="XMLID_675_" d="m177.848 355.404s25.382 58.791 31.864 60.123c14.817 3.046 30.025 4.6 45.397 4.608l9.5-55.025v-53.488c-9.592-.017-107.833-4.512-107.833-4.512z" fill="#5b362a"/><path id="XMLID_795_" d="m351.443 302.777s-96.315 23.491-96.334 23.491v93.867c15.508 0 30.708-1.543 45.622-4.608l39.362-60.123z" fill="#38211a"/><g id="XMLID_1608_"><g><g id="XMLID_518_"><path d="m30.221 75.136v120c0 40.634 10.709 79.872 31.291 114.544l45.848 10.931 67.104 5.658h35.758l44.889-176.13 9.5-41.028-9.5-33.975c-15.194 0-209.696 0-224.89 0z" fill="#704c55"/></g><g id="XMLID_489_"><path d="m255.109 75.136v75.003l45.111 176.13h46.37l102.342-16.595c20.575-34.664 31.288-73.893 31.288-114.538 0-14.518 0-105.387 0-120-15.192 0-209.916 0-225.111 0z" fill="#5b362a"/></g></g></g><g id="XMLID_1588_"><g><path id="XMLID_463_" d="m105.221 135.136h30v60h-30z" fill="#5b362a"/></g></g><g id="XMLID_1586_"><g><path id="XMLID_333_" d="m375.221 195.136h30c0-7.259 0-52.693 0-60-10.492 0-19.508 0-30 0z" fill="#38211a"/></g></g><path id="XMLID_861_" d="m42.67 446.471 41.34-41.33-41.34-41.34.01-.011 4.679-14.43 16.531-6.769 41.33 41.33 41.33-41.33 15.309 4.019 5.901 17.18.01.011-41.34 41.34 41.34 41.33-1.411 16.889-19.79 4.321-.009.009-41.34-41.339-41.34 41.339-14.937-5.747z" fill="#525263"/><path id="XMLID_903_" d="m342.67 363.801 41.34 41.34c-2.15 2.15 10.991-10.988-41.34 41.33l3.773 14.307 17.416 6.893c.011.01.011.01.021.02l41.34-41.34 41.34 41.34c.01-.01.01-.01.021-.02l13.529-6.56 7.66-14.64c-52.323-52.311-39.193-39.184-41.34-41.33 3.697-3.697 36.448-36.447 41.34-41.34l-6.16-18.19-15.05-3.02c-52.323 52.312-39.193 39.184-41.34 41.33-2.148-2.148 10.983 10.982-41.34-41.33l-18.771 2.52z" fill="#454554"/><g id="XMLID_1578_"><g><g id="XMLID_705_"><g><path d="m405.221 300.136c-57.896 0-105 47.102-105 105s47.102 105 105 105c57.896 0 105-47.1 105-105 0-57.896-47.102-105-105-105zm-53.008 158.009c-29.315-29.315-29.337-76.682 0-106.017 29.319-29.319 76.681-29.334 106.017 0 29.316 29.316 29.334 76.681 0 106.017-29.313 29.312-76.682 29.337-106.017 0z" fill="#2e2e2e"/></g></g></g></g><path id="XMLID_7_" d="m210.221 195.136v131.133h44.889l5-88.066-5-88.063c-24.803.059-44.889 20.182-44.889 44.996z" fill="#d6d6e0"/><path id="XMLID_55_" d="m300.221 195.136c0-24.851-20.146-45-45-45-.016 0-.064.003-.111.003v176.13h45.111c0-15.946 0-115.154 0-131.133z" fill="#c0c0d6"/><g id="XMLID_1602_"><g><g id="XMLID_674_"><g><path d="m105.221 510.136c-57.897 0-105-47.102-105-105 0-57.897 47.104-105 105-105 57.897 0 105 47.103 105 105 0 57.898-47.103 105-105 105zm0-180c-41.355 0-75 33.645-75 75s33.646 75 75 75c41.355 0 75-33.645 75-75 0-41.356-33.645-75-75-75z" fill="#454554"/></g></g></g></g></g></svg>