<svg id="Capa_1" enable-background="new 0 0 510 510" height="512" viewBox="0 0 510 510" width="512" xmlns="http://www.w3.org/2000/svg"><g><path d="m87.42 60-12.42 195 12.42 195h64.91l18.8-10 17.13 10h66.74l11-202.209-11-187.791z" fill="#f2f2f2"/><path d="m422.58 60h-45.17l-25.41 7.895-12.68-7.895h-84.32v390h64.97l16.655-3.75 17.705 3.75h68.25l12.42-180z" fill="#d6d6e0"/><g id="XMLID_1576_"><g><g id="XMLID_378_"><path d="m30 30v-30h30v32.58z" fill="#704c55"/></g></g></g><g id="XMLID_1572_"><g><g id="XMLID_366_"><path d="m60 467.58v42.42h-30v-39.061z" fill="#704c55"/></g></g></g><g id="XMLID_1558_"><g><g id="XMLID_345_"><path d="m450 32.58v-32.58h30v30z" fill="#5b362a"/></g></g></g><g id="XMLID_1554_"><g><g id="XMLID_341_"><path d="m480 472.284v37.716h-30v-40.96z" fill="#5b362a"/></g></g></g><g id="XMLID_1552_"><path id="XMLID_1553_" d="m90 324.27 60.359-30.18c5.421-2.71 12.041-.95 15.4 4.09l6.76 10.141c2.7 4.06 2.7 9.3 0 13.359l-5 7.5c-12.859 19.29-7.63 45.44 11.66 58.301 5.52 3.68 7.02 11.18 3.29 16.77l-30.139 45.749h35.93l19.221-29.18c12.859-19.29 7.629-45.44-11.66-58.301-5.52-3.68-7.02-11.18-3.34-16.699l5-7.5c9.449-14.17 9.449-32.471 0-46.641l-6.761-10.14c-11.729-17.6-34.86-23.74-53.78-14.28l-46.94 23.471-5 16.27z" fill="#d6d6e0"/></g><g id="XMLID_1550_"><path id="XMLID_1551_" d="m420 339.27-42.74-21.37c-9.89-4.95-16.89-14.41-18.699-25.32l-10.61-63.67c-.38-2.26-2.33-3.91-4.62-3.91-14.27 0-26.91-8.56-32.21-21.8l-20.94-52.36c-4.46-11.16-2.76-24.07 4.46-33.689 51.778-66.231 43.835-56.07 44.679-57.151h38.09l-58.83 75.23c-.93 1.289-1.141 2.989-.54 4.47l20.94 52.36c.709 1.779 2.42 2.939 4.35 2.939 17.02 0 31.41 12.19 34.21 28.98l10.61 63.67c.239 1.47 1.189 2.75 2.52 3.42l29.33 14.661 6.333 15.937z" fill="#c0c0d6"/></g><path d="m246.21 244.84c-7.441-1.859-13.72-6.51-17.67-13.09l-34.83-58.05-22.58 20.67 31.69 52.81c8.07 13.46 20.899 22.96 36.119 26.77 6.688 1.671 12.238 5.575 16.061 10.718l9-12.773-9-24.104c-2.824-1.197-5.757-2.191-8.79-2.951z" fill="#64e1dc"/><path d="m291.74 337.81c-3.69-6.461-4.73-14-2.93-21.211l.14-.539c7.155-28.659-8.011-57.272-33.95-68.269v36.877c8.938 12.025 4.715 24.258 4.71 24.652-3.68 14.729-1.569 30.109 5.94 43.31l54.32 97.37h34.36c-1.014-1.816 5.506 9.868-62.59-112.19z" fill="#00c8c8"/><circle id="XMLID_1545_" cx="165" cy="165" fill="#ff6c6c" r="30"/><path id="XMLID_1544_" d="m45 30h-15l-15 225 15 225h15c24.813 0 45-20.187 45-45v-360c0-24.812-20.187-45-45-45z" fill="#525263"/><path id="XMLID_1543_" d="m465 30c-24.814 0-45 20.188-45 45v360c0 24.813 20.186 45 45 45h15l15-240-15-210z" fill="#454554"/><path id="XMLID_1498_" d="m480 30h30v450h-30z" fill="#2e2e2e"/><path id="XMLID_1487_" d="m0 30h30v450h-30z" fill="#454554"/></g></svg>