<svg id="Capa_1" enable-background="new 0 0 510.12 510.12" height="512" viewBox="0 0 510.12 510.12" width="512" xmlns="http://www.w3.org/2000/svg"><g id="XMLID_1625_"><g id="XMLID_1595_"><path id="XMLID_1632_" d="m75.116 90.06v330l89.972 15 107.624 9.349 12.348-189.349-30-165-90-15z" fill="#f2f2f2"/><path id="XMLID_1631_" d="m435.116 90.06c-5.085 0-174.994 0-180.056 0v330l90.027 15 90.028-15c.001-14.265.001-315.279.001-330z" fill="#d6d6e0"/></g><g id="XMLID_1591_"><g><path id="XMLID_592_" d="m32.72 60.15-32.49.24-.23-30 32.66-.24z" fill="#704c55"/></g></g><g id="XMLID_1566_"><g><path id="XMLID_583_" d="m.12 450.06h32.57v30h-32.57z" fill="#704c55"/></g></g><g id="XMLID_1560_"><g><g id="XMLID_537_"><path d="m477.56 450.06h32.56v30c-6.419 0-26.144 0-32.56 0z" fill="#5b362a"/></g></g></g><g id="XMLID_1590_"><g><g id="XMLID_409_"><path d="m477.56 30.06h32.56v30c-6.419 0-26.144 0-32.56 0z" fill="#5b362a"/></g></g></g><g id="XMLID_1312_"><path id="XMLID_1628_" d="m120.116 150.06v30h134.944l15-15-15-15c-16.407 0-118.499 0-134.944 0z" fill="#525263"/><path id="XMLID_1627_" d="m390.116 150.06c-16.405 0-118.614 0-135.056 0v30h135.056c0-10.492 0-19.508 0-30z" fill="#454554"/></g><g id="XMLID_1221_"><path id="XMLID_1626_" d="m120.116 210.06v30h134.944l15-15-15-15c-16.407 0-118.499 0-134.944 0z" fill="#ff6c6c"/><path id="XMLID_1623_" d="m390.116 210.06c-16.405 0-118.614 0-135.056 0v30h135.056c0-10.492 0-19.508 0-30z" fill="#ff307a"/></g><g id="XMLID_1216_"><path id="XMLID_1621_" d="m120.116 270.06v30h134.944l15-15-15-15c-16.407 0-118.499 0-134.944 0z" fill="#525263"/><path id="XMLID_1613_" d="m390.116 270.06c-16.405 0-118.614 0-135.056 0v30h135.056c0-10.492 0-19.508 0-30z" fill="#454554"/></g><g id="XMLID_1214_"><g><g id="XMLID_452_"><path d="m120.116 330.06v30h104.944c0-10.492 0-19.508 0-30-14.782 0-89.092 0-104.944 0z" fill="#ff6c6c"/></g></g></g><g id="XMLID_1212_"><g><path id="XMLID_433_" d="m345.116 360.06h45c0-10.492 0-19.508 0-30-14.982 0-45 0-45 0z" fill="#ff307a"/></g></g><g id="XMLID_906_"><path id="XMLID_1567_" d="m75.116 420.06c-24.853 0-45 20.148-45 45 0 24.853 20.147 45 45 45h45v-90z" fill="#ffdf60"/><path id="XMLID_1295_" d="m435.116 420.06c-14.982 0-30.019 0-45 0v90h45c24.852 0 45-20.146 45-45 0-24.852-20.146-45-45-45z" fill="#fcbe00"/><g id="XMLID_1075_"><path id="XMLID_1607_" d="m120.116 420.06c-19.999 29.999-20 59.999 0 90h134.944l15-45-15-45c-16.407 0-118.499 0-134.944 0z" fill="#fcbe00"/><path id="XMLID_1594_" d="m390.116 420.06c-16.405 0-118.614 0-135.056 0v90h135.056c19.999-29.999 20.001-59.999 0-90z" fill="#fe9002"/></g></g><path id="XMLID_1677_" d="m75.116.06c-24.853 0-45 20.147-45 45s20.147 45 45 45h45v-90h-45z" fill="#ffdf60"/><g id="XMLID_1479_"><path id="XMLID_1568_" d="m120.116.06c-19.999 29.999-20 59.999 0 90h134.944l15-45-15-45c-16.407 0-118.499 0-134.944 0z" fill="#fcbe00"/><path id="XMLID_1190_" d="m390.116.06c-16.405 0-118.614 0-135.056 0v90h135.056c19.999-29.999 20.001-59.999 0-90z" fill="#fe9002"/></g><g id="XMLID_1480_"><g><path id="XMLID_432_" d="m435.116.06c-14.982 0-30.019 0-45 0v90h45c24.852 0 45-20.146 45-45 0-24.852-20.146-45-45-45z" fill="#fcbe00"/></g></g></g></svg>