<svg id="Capa_1" enable-background="new 0 0 510 510" height="512" viewBox="0 0 510 510" width="512" xmlns="http://www.w3.org/2000/svg"><g id="XMLID_1818_"><g id="XMLID_1855_"><path id="XMLID_1873_" d="m190.788 0c2.745 10.982 16.663 66.651 18.748 74.992l23.188 3.646 31.938 4.363 5.338-38.001-15-45c-17.388 0-53.948 0-64.212 0z" fill="#704c55"/><path id="XMLID_1857_" d="m319.212 0c-17.389 0-53.949 0-64.212 0v75l22.275 3.639 23.186-3.639c2.085-8.341 16.025-64.093 18.751-75z" fill="#5b362a"/></g><path id="XMLID_1849_" d="m217.5 120-37.5 15c-.227 1.102 3.485 51.175-37.378 89.196-33.323 31.006-52.518 74.892-52.622 120.423-.206 90.84 73.826 165.381 165 165.381l55.017-195-47.303-192.735z" fill="#f2f2f2"/><path id="XMLID_1848_" d="m368.572 225.318c-12.171-11.551-21.764-25.309-28.339-40.263-11.632-26.456-10.081-48.561-10.233-50.055l-37.5-15-37.5 15v375c3.042-.299 30.077 1.168 62.902-12.36 59.405-24.482 102.098-83.09 102.098-152.64 0-45.709-18.267-88.21-51.428-119.682z" fill="#d6d6e0"/><path id="XMLID_1843_" d="m227.99 290c-8.305 0-11.8 2.414-18.061 7.051-4.302 3.188-9.531 7.061-16.804 9.737-5.195 1.912-11.434 3.212-19.125 3.212-24.796 0-34.304-13.397-43.35-17.827-20.446 48.124-11.725 107.102 28.507 147.735 25.454 25.709 59.769 40.092 95.843 40.092l33.857-90-33.857-86.914c-12.027-6.914-14.317-13.086-27.01-13.086z" fill="#64e1dc"/><path id="XMLID_1839_" d="m385.933 311.834c-20.529-6.827-33.533-21.834-49.933-21.834-8.295 0-11.798 2.399-18.083 7.056-4.302 3.186-9.532 7.06-16.804 9.733-10.436 3.839-23.061 4.083-33.092 1.58-5.144-1.283-9.392-3.198-13.021-5.283v176.914c2.489-.244 24.606.955 51.464-10.111 60.403-24.892 96.242-91.104 79.469-158.055z" fill="#00c8c8"/><g id="XMLID_1835_"><g><path d="m315 360h30v30h-30z" fill="#00a0aa"/></g></g><path id="XMLID_1832_" d="m180 75c-8.284 0-15.784 3.357-21.213 8.787-11.707 11.705-11.729 30.7 0 42.426 5.429 5.43 12.929 8.787 21.213 8.787h75l15-30-15-30c-20.194 0-63.236 0-75 0z" fill="#d6d6e0"/><path id="XMLID_1829_" d="m351.213 83.787c-5.429-5.43-12.929-8.787-21.213-8.787-20.194 0-63.236 0-75 0v60h75c8.284 0 15.784-3.357 21.213-8.787 11.707-11.705 11.729-30.7 0-42.426z" fill="#c0c0d6"/><circle id="XMLID_1820_" cx="210" cy="375" fill="#00c8c8" r="30"/></g></svg>