<svg id="Capa_1" enable-background="new 0 0 510 510" height="512" viewBox="0 0 510 510" width="512" xmlns="http://www.w3.org/2000/svg"><g id="XMLID_1092_"><path id="XMLID_1452_" d="m450 181.509c-3.31 14.393-6.68 29.053-10 43.491 7.867 35.402 2.135 9.609 10 45h60c0-5.246 0-9.754 0-15 0-36.416-26.004-66.561-60-73.491z" fill="#ff307a"/><path id="XMLID_1428_" d="m420 180v120c5.246 3.497 9.754 6.503 15 10 5.246-3.497 9.754-6.503 15-10 0-17.694 0-104.914 0-118.491-10.286-2.094-17.188-1.353-22.5-1.509z" fill="#5b362a"/><path id="XMLID_1349_" d="m0 255c0-36.22 25.808-66.523 60-73.491l10 43.491-10 45h-60z" fill="#ff6c6c"/><path id="XMLID_1096_" d="m75 180h15v120l-15 10-15-10c0-11.012 0-102.621 0-118.491 4.849-.988 9.864-1.509 15-1.509z" fill="#704c55"/><g id="XMLID_2007_"><g><path id="XMLID_376_" d="m135 510h-135v-210h135l32.617 117.413z" fill="#aa8360"/></g></g><g id="XMLID_1655_"><g><path id="XMLID_372_" d="m375 510h135c0-11.664 0-198.336 0-210-16.333 0-118.559 0-135 0l-17 105z" fill="#99724e"/></g></g><g id="XMLID_2045_"><path id="XMLID_1426_" d="m135 165v345h75l64.299-96.72-4.299-128.28-5.923-135-69.077-8z" fill="#c8ad92"/><path id="XMLID_1425_" d="m375 165-60-15-60 15v210l45 135h75c0-19.177 0-325.823 0-345z" fill="#aa8360"/></g><g id="XMLID_2021_"><path id="XMLID_1423_" d="m90 105c12.117 16.155 37.941 50.589 45 60h120l7.5-30 2.818-47.924-92.818 2.924z" fill="#aa8360"/><path id="XMLID_1422_" d="m420 105-82.5-15-82.5 15v60h120l22.5-30z" fill="#99724e"/></g><g id="XMLID_2023_"><path id="XMLID_1421_" d="m225 0v45c-20.194 0-63.236 0-75 0 0-14.981 0-30.019 0-45-7.259 0-52.693 0-60 0v105h165l15-45-15-60c-10.492 0-19.508 0-30 0z" fill="#99724e"/><path id="XMLID_1420_" d="m420 0c-7.259 0-52.693 0-60 0v45c-20.194 0-63.236 0-75 0 0-14.981 0-30.019 0-45-10.492 0-19.508 0-30 0v105h165c0-28.278 0-88.527 0-105z" fill="#6b5136"/></g><g id="XMLID_2040_"><path id="XMLID_1419_" d="m210 420v90h45l15-60-15-75c-24.852 0-45 20.146-45 45z" fill="#704c55"/><path id="XMLID_1417_" d="m300 420c0-24.853-20.146-45-45-45v135h45v-45z" fill="#5b362a"/></g><g id="XMLID_2039_"><path id="XMLID_2075_" d="m180 225h30v30h-30z" fill="#aa8360"/></g><g id="XMLID_2038_"><path id="XMLID_1411_" d="m240 225v30h15l5-15-5-15c-5.246 0-9.754 0-15 0z" fill="#aa8360"/><path id="XMLID_1410_" d="m270 225s-9.754 0-15 0v30h15z" fill="#99724e"/></g><g id="XMLID_2037_"><path id="XMLID_1406_" d="m240 285v30h15l7.5-16.667-7.5-13.333c-5.246 0-9.754 0-15 0z" fill="#aa8360"/><path id="XMLID_1378_" d="m270 285s-9.754 0-15 0v30h15z" fill="#99724e"/></g><g id="XMLID_2036_"><path id="XMLID_1375_" d="m300 225h30v30h-30z" fill="#99724e"/></g><g id="XMLID_2035_"><g><path id="XMLID_394_" d="m180 285h30v30h-30z" fill="#aa8360"/></g></g><g id="XMLID_2034_"><g><path id="XMLID_398_" d="m60 360h30v30h-30z" fill="#99724e"/></g></g><g id="XMLID_2033_"><path id="XMLID_2043_" d="m60 420h30v30h-30z" fill="#99724e"/></g><g id="XMLID_2032_"><path id="XMLID_1369_" d="m420 390h30c0-10.492 0-19.508 0-30-10.492 0-30 0-30 0z" fill="#6b5136"/></g><g id="XMLID_2031_"><g><path id="XMLID_309_" d="m420 450h30c0-10.492 0-19.508 0-30-10.492 0-30 0-30 0z" fill="#6b5136"/></g></g><g id="XMLID_2030_"><path id="XMLID_1353_" d="m300 285h30v30h-30z" fill="#99724e"/></g></g></svg>