<svg id="Capa_1" enable-background="new 0 0 509.113 509.113" height="512" viewBox="0 0 509.113 509.113" width="512" xmlns="http://www.w3.org/2000/svg"><g id="XMLID_2079_"><path id="XMLID_2091_" d="m249.755 1.622c-105.56 35.665-201.764 42.295-205.198 42.833v182.242c0 15.034 1.143 30.18 3.394 45.007 16.123 106.667 100.537 196.608 201.221 235.338l5.386 2.071 99.106-266.612-99.107-242.501z" fill="#525263"/><path id="XMLID_2090_" d="m451.036 43.115c-61.021-6.048-132.677-21.559-191.679-41.493l-4.8-1.622v509.113l5.386-2.071c100.908-38.816 185.129-128.878 201.22-235.329 2.252-14.837 3.395-29.982 3.395-45.016v-182.242z" fill="#454554"/><path id="XMLID_2086_" d="m249.755 65.831c-88.169 29.789-135.37 30.22-145.198 31.774v125.437c0 93.368 58.641 183.928 144.614 217l5.386 2.071 15-189.071-15-188.833zm-10.198 336.784c-49.223-26.633-86.458-76.644-99.778-134.573h88.814c2.634 4.542 6.422 8.33 10.964 10.964zm0-175.537c-4.542 2.634-8.33 6.422-10.964 10.964h-93.456c-1.011-13.151-.398-13.189-.58-113.466 32.513-4.191 67.135-12.071 105-23.89z" fill="#d6d6e0"/><path id="XMLID_2080_" d="m259.357 65.831-4.801-1.622v377.904l5.386-2.071c86.107-33.123 144.614-123.762 144.614-217v-125.437c-9.823-1.554-57.013-1.98-145.199-31.774zm10.2 336.784v-123.609c4.541-2.634 8.33-6.422 10.964-10.964h88.815c-13.319 57.927-50.555 107.939-99.779 134.573zm104.42-164.573h-93.456c-2.634-4.542-6.423-8.33-10.964-10.964v-126.391c37.865 11.818 72.486 19.698 105 23.89-.182 100.1.431 100.299-.58 113.465z" fill="#c0c0d6"/></g></svg>