<svg id="Capa_1" enable-background="new 0 0 504.811 504.811" height="512" viewBox="0 0 504.811 504.811" width="512" xmlns="http://www.w3.org/2000/svg"><g id="XMLID_3712_"><path id="XMLID_3742_" d="m362.452 45c-3.371-21.272-12.73-42.82-12.764-42.921-.1.034-55.768 8.839-67.443 30.384-4.309 7.947-6.012 16.788-5.14 25.502 1.253 12.502-.738 25.348-6.835 36.68-4.998 9.292-13.051 35.849-14.994 46.133l19.787 37.488 31.099 33.228 93.748-100.564 96.328-102.928c-.1.019-98.795 2.628-133.786 36.998z" fill="#fcbe00"/><path id="XMLID_3739_" d="m398.128 239.246c17.82-6.91 36.266-11.824 55.145-13.577 5.945-.551 11.711-2.304 17.007-5.173 21.448-11.621 34.489-65.493 34.531-65.594-.101-.034-24.658-10.752-45.449-14.352 16.293-13.226 25.426-37.844 30.53-62.307 7.363-35.282 6.347-70.242 6.347-70.242-5.257 5.257-181.592 181.593-186.868 186.869l20.537 28.489 32.496 24.544c6.181-1.171 29.882-6.391 35.724-8.657z" fill="#fe9002"/><path id="XMLID_3736_" d="m338.435 167.927 25.738-27.86c-.1.012-44.074-1.18-56.568 11.314-9.38 9.38-11.723 23.139-7.028 34.69l3.345 6.159 5.439 8.46 26.09-29.539c.093-.101 3.18-3.435 2.984-3.224z" fill="#ffdf60"/><path id="XMLID_3733_" d="m314.379 201.812c-1.175-1.63-5.268-7.308-5.007-6.944 1.979-1.98 52.306-52.306 54.801-54.801-.019 1.391.33 15.038-1.647 29.296-1.507 10.925-4.35 21.955-9.667 27.272-9.361 9.361-23.113 11.734-34.69 7.029z" fill="#fcbe00"/><path id="XMLID_3732_" d="m213.911 184.264c-7.585 9.648-128.886 163.959-136.471 173.607l6.626 27.839 27.839 17.483 88.832-77.063 82.424-88.834-28.207-33.265z" fill="#525263"/><path id="XMLID_3729_" d="m319.977 290.33-15.879-37.153-37.154-15.88c-1.73 1.73-153.308 153.309-155.038 155.039l13.412 20.058 20.057 13.412c9.087-7.052 165.148-128.141 174.602-135.476z" fill="#454554"/><path id="XMLID_3728_" d="m58.769 381.626c-5.598 7.121-46.197 58.77-51.724 65.799-10.445 13.709-9.147 33.033 3.042 45.223.271.271.487.471.77.736l51.056-43.985 41.071-36.681-20.97-22.414z" fill="#525263"/><path id="XMLID_3725_" d="m55.134 495.823c7.177-5.568 59.262-45.982 66.35-51.482l-8.111-22.681-22.681-8.111c-21.507 21.507-67.306 67.306-79.834 79.834 12.083 11.366 30.768 12.595 44.276 2.44z" fill="#454554"/><path id="XMLID_3722_" d="m77.441 357.872c-6.53 8.308-12.142 15.446-18.672 23.754 3.189 3.19 28.677 28.678 31.923 31.924l18.385-2.828 2.829-18.386c-3.476-3.476-30.93-30.929-34.465-34.464z" fill="#ffdf60"/><path id="XMLID_3719_" d="m145.374 425.805c-3.363-3.363-30.047-30.048-33.469-33.47-2.178 2.177 7.857-7.858-21.214 21.214.114.113 30.664 30.664 30.792 30.792 1.892-1.467 21.572-16.736 23.891-18.536z" fill="#fcbe00"/><path id="XMLID_3716_" d="m203.305 88.804h-.001v.001c-23.432 23.432-23.431 61.421 0 84.852 7.021 7.021 56.696 56.697 63.64 63.641l27.64-12.083 14.787-30.344c-5.037-5.036-100.698-100.697-106.066-106.067z" fill="#454554"/><path id="XMLID_3713_" d="m415.437 300.936c-5.037-5.036-100.698-100.697-106.067-106.065-5.133 5.133-37.26 37.26-42.427 42.427 7.022 7.021 56.696 56.695 63.64 63.639 23.433 23.432 61.419 23.432 84.854-.001z" fill="#2e2e2e"/></g></svg>