<svg id="Capa_1" enable-background="new 0 0 510.014 510.014" height="512" viewBox="0 0 510.014 510.014" width="512" xmlns="http://www.w3.org/2000/svg"><g id="XMLID_2301_"><g id="XMLID_2415_"><g><g id="XMLID_706_"><path id="XMLID_708_" d="m420.007 195.261 15 14.75 15-15c0-14.095 0-30.95 0-45l-15-15-15 15z" fill="#38211a"/></g></g></g><g id="XMLID_2411_"><path id="XMLID_2412_" d="m361.584 128.303c-.281.564-10.759 21.516-10.854 21.708h138.35c.055-.105 4.487-8.576 4.21-8.046 21.797-41.658 22.712-86.49.239-133.431-.061-.127-4.237-8.853-4.08-8.524-16.862 0-121.82 0-138.72 0 .281.564 10.759 21.516 10.854 21.708 17.93 35.86 17.932 70.725.001 106.585z" fill="#d6d6e0"/></g><g id="XMLID_2403_"><g><g id="XMLID_794_"><g id="XMLID_821_"><path d="m240.017 210.011-.02 90-19.99 5.333-10.01-5.333.02-90 14.99-9z" fill="#5b362a"/></g></g></g></g><g id="XMLID_2358_"><path id="XMLID_2399_" d="m144.374.011c8.395 25.985 19.561 57.051 20.488 104.556 1.05 53.827-11.667 79.727-22.267 105.444h112.413l15-105-15-105c-13.453 0-97.152 0-110.634 0z" fill="#f2f2f2"/><path id="XMLID_2359_" d="m315.01 105.742c-.811-58.357-17.67-100.061-19.094-105.73-14.321 0-26.589 0-40.909 0v210h40.049l1.913-4.643c.851-2.985 18.901-37.587 18.041-99.627z" fill="#d6d6e0"/></g><path id="XMLID_2355_" d="m120 150.011c0-36.219-25.809-66.522-60-73.49l-23.247 50.851 23.247 37.639h60z" fill="#ff6c6c"/><path id="XMLID_2352_" d="m30 75.011v165l15 6 15-6c0-17.176 0-146.122 0-163.49-11.085-2.26-18.038-1.262-30-1.51z" fill="#5b362a"/><path id="XMLID_2350_" d="m372.857 240.011 62.149 6 67.493-6c2.387-14.32 5.113-30.68 7.5-45-28.278 0-88.527 0-105 0-10.21 14.295-21.931 30.705-32.142 45z" fill="#5b362a"/><path id="XMLID_2346_" d="m135 300.011-62.86-12.333-57.58 12.333c1.971 11.197 14.254 80.986 16.229 92.21 1.431 7.336 3.73 14.315 6.778 20.844.359.768.906 2.259 1.595 4.298 5.326 15.772 50.838 34.648 50.838 34.648l135 13 40.041-22.286-2.538-60.214-7.496-82.5c-12.035 0-106.825 0-120.007 0z" fill="#704c55"/><path id="XMLID_2343_" d="m477.54 389.771c2.169-13.016 17.766-106.593 19.96-119.76l-73.16-9.833-72.911 9.833c-.102.143-21.34 29.876-21.429 30-20.194 0-63.229 0-74.993 0v134.833l100.985 19.056 102.036-14.751s14.307-30.689 14.924-32.324c2.053-5.437 3.603-11.138 4.588-17.054z" fill="#5b362a"/><path id="XMLID_2340_" d="m90 240.011h-86l5.28 30 50.72 10.333 52.5-10.333z" fill="#704c55"/><path id="XMLID_2339_" d="m351.429 270.011h146.071c1.749-10.492 3.251-19.508 5-30-15.68 0-113.859 0-129.643 0-.101.143-21.34 29.876-21.428 30z" fill="#38211a"/><path id="XMLID_2338_" d="m112.5 270.011h-103.22l5.281 30h120.439z" fill="#5b362a"/><path id="XMLID_2337_" d="m250.787 452.645c-7.907-.005-60.78-21.134-60.78-21.134l-100.007 8.5s-83.805-5.329-89.99-5.333h-.002-.001c-.002 20.278-.006 63.521-.007 75.333h255.007l7.496-23-1.697-28.355c-.009.001-10.01-6.011-10.019-6.011z" fill="#64e1dc"/><path id="XMLID_2329_" d="m255.007 464.844v45.167h254.983c.001-9.455.006-80.397.007-90l-12.497-6.5-52.932 27.583-109.561-18.583z" fill="#00c8c8"/><path id="XMLID_2325_" d="m254.983 434.844c-42.497-.027-42.479-30.026-84.978-30.056-42.498-.027-42.519 29.973-85.018 29.945-42.499-.029-42.479-30.028-84.978-30.056-.001 10.492-.002 19.508-.003 30h.001.003c42.497.027 42.479 30.026 84.978 30.056 42.5.027 42.52-29.973 85.018-29.945 42.499.029 42.48 30.028 84.978 30.056h.012.012l7.496-13.833-7.496-16.167c-.009 0-.016 0-.025 0z" fill="#00c8c8"/><path id="XMLID_2322_" d="m424.986 464.956c42.507.027 42.516-44.97 85.011-44.944 0-3.079-.001 11.112.003-30-42.489-.027-42.512 44.972-85.014 44.944-42.502-.027-42.484-30.028-84.983-30.056-42.499-.027-42.517 29.962-84.996 29.944v30c42.474.018 42.503-29.972 84.996-29.944 42.498.027 42.482 30.028 84.983 30.056z" fill="#00a0aa"/><g id="XMLID_2319_"><g><g id="XMLID_715_"><path id="XMLID_729_" d="m390 375.011h30c0-10.492 0-19.508 0-30-10.492 0-30 0-30 0z" fill="#38211a"/></g></g></g><g id="XMLID_2309_"><g><g id="XMLID_752_"><g id="XMLID_758_"><path d="m240 345.011v30h15.007l2.75-15-2.75-15c-5.249 0-9.758 0-15.007 0z" fill="#5b362a"/></g><g id="XMLID_753_"><path d="m270 345.011c-5.244 0-9.749 0-14.993 0v30h14.993c0-10.492 0-19.507 0-30z" fill="#38211a"/></g></g></g></g><g id="XMLID_2302_"><g><g id="XMLID_544_"><path id="XMLID_546_" d="m90 345.011h30v30h-30z" fill="#5b362a"/></g></g></g></g></svg>