<svg id="Capa_1" enable-background="new 0 0 510 510" height="512" viewBox="0 0 510 510" width="512" xmlns="http://www.w3.org/2000/svg"><g id="XMLID_1496_"><path id="XMLID_1519_" d="m420 75v30c0 20.905-10.77 39.91-28.079 50.803 3.984 3.424 6.693 40.146 10.412 43.863l44.86 30.426c28.992-15.033 47.807-45.01 47.807-78.592 0-8.415 0-143.085 0-151.5-41.414 0-75 33.589-75 75z" fill="#d6d6e0"/><path id="XMLID_1505_" d="m449.122 234.591c-41.819-100.976-134.004-120.573-134.122-120.642l-60 126.051 47.362 161.053 80.138 6.947 82.5-18c0-20.194 0-63.236 0-75 0-28.048-5.46-55.256-15.878-80.409z" fill="#5b362a"/><path id="XMLID_1525_" d="m90 105v-30c0-41.405-33.579-75-75-75v151.5c0 34.219 19.418 63.882 47.832 78.605l43.668-16.605 11.51-57.736c-16.83-10.621-28.01-29.383-28.01-50.764z" fill="#d6d6e0"/><path id="XMLID_2121_" d="m195 113.924c-.1.072-150 41.491-150 201.076v75l82.5 18 77.5-7.355 50-130.645z" fill="#704c55"/><path id="XMLID_2103_" d="m195 71.25v318.75l30 18 30-18 7.5-150-7.5-213.75c-16.155 12.117-50.589 37.941-60 45z" fill="#fcbe00"/><path id="XMLID_2101_" d="m315 71.25c-16.155-12.117-50.589-37.941-60-45v363.75l30 7.667 30-7.667c0-17.712 0-301.038 0-318.75z" fill="#fe9002"/><g id="XMLID_2084_"><path id="XMLID_2050_" d="m240 120v30h15l3-12.333-3-17.667c-5.246 0-9.754 0-15 0z" fill="#fe9002"/><path id="XMLID_2004_" d="m270 120s-9.754 0-15 0v30h15z" fill="#e67323"/></g><g id="XMLID_2049_"><path id="XMLID_1827_" d="m240 180v30h15l3-13.333-3-16.667c-5.246 0-9.754 0-15 0z" fill="#fe9002"/><path id="XMLID_1826_" d="m270 180s-9.754 0-15 0v30h15z" fill="#e67323"/></g><g id="XMLID_2003_"><path id="XMLID_1825_" d="m240 240v30h15l6-12.333-6-17.667c-5.246 0-9.754 0-15 0z" fill="#fe9002"/><path id="XMLID_1824_" d="m270 240s-9.754 0-15 0v30h15z" fill="#e67323"/></g><g id="XMLID_2120_"><g><g id="XMLID_697_"><path d="m0 390v120h255l7.5-54.333-7.5-65.667c-7.193 0-247.807 0-255 0z" fill="#ffdf60"/></g><g id="XMLID_686_"><path d="m510 390c-7.193 0-247.807 0-255 0v120h255c0-14.517 0-105.387 0-120z" fill="#fcbe00"/></g></g></g><g id="XMLID_2116_"><g><path id="XMLID_588_" d="m60 435h30v30h-30z" fill="#fcbe00"/></g></g><g id="XMLID_2114_"><g><path id="XMLID_582_" d="m120 435h30v30h-30z" fill="#fcbe00"/></g></g><g id="XMLID_2112_"><g><path id="XMLID_581_" d="m180 435h30v30h-30z" fill="#fcbe00"/></g></g><g id="XMLID_2110_"><path id="XMLID_2100_" d="m240 435v30h15l3.333-12.333-3.333-17.667c-5.246 0-9.754 0-15 0z" fill="#fcbe00"/><path id="XMLID_2099_" d="m270 435s-9.754 0-15 0v30h15z" fill="#fe9002"/></g><g id="XMLID_2108_"><g><path id="XMLID_633_" d="m300 435h30v30h-30z" fill="#fe9002"/></g></g><g id="XMLID_2105_"><g><g id="XMLID_622_"><path d="m360 435h30v30h-30z" fill="#fe9002"/></g></g></g><g id="XMLID_2102_"><g><path id="XMLID_530_" d="m420 435h30v30h-30z" fill="#fe9002"/></g></g><g id="XMLID_1674_"><path id="XMLID_1822_" d="m240 300v30h15l3.333-11.333-3.333-18.667c-5.246 0-9.754 0-15 0z" fill="#fe9002"/><path id="XMLID_1713_" d="m270 300s-9.754 0-15 0v30h15z" fill="#e67323"/></g></g></svg>