<svg id="Capa_1" enable-background="new 0 0 509.543 509.543" height="512" viewBox="0 0 509.543 509.543" width="512" xmlns="http://www.w3.org/2000/svg"><g><g id="XMLID_2665_"><path d="m254.771.078-3.842 2.291c-61.059 36.539-84.504 55.332-131.746 57.186-1.479.059 5.338-.209-14.412.565v160.888 177.764l150-24.229 47.451-175.118z" fill="#fcbe00"/><path id="XMLID_2666_" d="m404.771 60.75c-4.807-.404-8.938-.75-13.744-1.154-55.835-4.688-74.686-20.302-116.416-47.252-9.37-6.054-13.987-8.788-19.707-12.344l-.066.039-.066.039v374.465l75 22.5 71.467-15.706 3.533-148.69v-171.897z" fill="#fe9002"/></g><g id="XMLID_2611_"><path id="XMLID_2623_" d="m194.771 128.445v186.098l30 15 37.894-3.51 2.773-104.595-10.667-124.628c-6.139 3.237-53.761 28.346-60 31.635z" fill="#ffdf60"/><path id="XMLID_2612_" d="m314.771 128.445c-6.14-3.237-53.762-28.347-60-31.636v217.733l30 15 30-15c0-8.437 0-172.204 0-186.097z" fill="#fcbe00"/></g><g id="XMLID_2605_"><path id="XMLID_2610_" d="m239.771 164.543v30h15l4.333-15-4.333-15c-5.246 0-9.754 0-15 0z" fill="#fcbe00"/><path id="XMLID_2606_" d="m269.771 164.543c-5.246 0-9.754 0-15 0v30h15s0-19.508 0-30z" fill="#fe9002"/></g><g id="XMLID_2596_"><path id="XMLID_2604_" d="m239.771 224.543v30h15l4.333-15-4.333-15c-5.246 0-9.754 0-15 0z" fill="#fcbe00"/><path id="XMLID_2597_" d="m269.771 224.543c-5.246 0-9.754 0-15 0v30h15s0-19.508 0-30z" fill="#fe9002"/></g><path id="XMLID_2595_" d="m194.771 314.543c-17.969 0-34.481 6.353-47.411 16.929-13.132 10.742-24.077 25.843-27.589 43.071l71.161 16.229 71.339-5.854 3.167-34.146-10.667-36.229c-7.259 0-52.693 0-60 0z" fill="#ff6c6c"/><path id="XMLID_2584_" d="m314.771 314.543c-7.259 0-52.693 0-60 0v60l66.745 16.229 68.255-16.229c-3.512-17.229-14.457-32.329-27.589-43.071-12.929-10.576-29.442-16.929-47.411-16.929z" fill="#ff307a"/><path id="XMLID_2583_" d="m265.438 423.272-10.667-48.729c-49.548 0-84.553 0-135 0l-15 45 15 18.895 73.588 7.001 70.727 4.197z" fill="#704c55"/><path id="XMLID_2582_" d="m111.069 447.522 8.702 17.021h135l7.5-14.771-7.5-11.334h-135z" fill="#5b362a"/><path id="XMLID_2579_" d="m396.771 403.104-7-28.562c-50.516 0-85.42 0-135 0v63.895l76.667 7.001 58.333-7.001z" fill="#5b362a"/><path id="XMLID_2576_" d="m254.771 438.438v26.105h135l8.701-13.053-8.701-13.053h-135z" fill="#38211a"/><g id="XMLID_2568_"><path id="XMLID_2571_" d="m402.951 222.724c-8.143 8.144-13.18 19.394-13.18 31.819v255h60c0-11.813 0-200.757 0-212.57 30.894-10.924 40.377-50.691 16.819-74.249-17.562-17.566-46.051-17.588-63.639 0z" fill="#e67323"/></g><g id="XMLID_2565_"><g><g id="XMLID_657_"><path d="m29.771 254.543c0-24.852 20.148-45 45-45s45 20.148 45 45v255h-60v-212.57c-17.475-6.179-30-22.838-30-42.43z" fill="#fe9002"/></g></g></g></g></svg>