<svg id="Capa_1" enable-background="new 0 0 510 510" height="512" viewBox="0 0 510 510" width="512" xmlns="http://www.w3.org/2000/svg"><g id="XMLID_1980_"><path id="XMLID_2230_" d="m94.902 388.839c-2.285 10.881-16.602 79.047-18.902 90h59.998c16.245-8.664 50.405-26.885 59.996-32 6.619 3.365 52.453 26.672 58.999 30l.003-.002.004-.001 10.667-55.843v-50.293l-88 4.293z" fill="#ffdf60"/><path id="XMLID_2229_" d="m375.997 478.839h60.003c-2.391-10.887-17.355-79.041-19.762-90l-80.619-13.846-80.619 13.846v87.997c6.942-3.415 54.243-26.677 60.993-29.997 16.245 8.663 50.409 26.883 60.004 32z" fill="#fcbe00"/><path id="XMLID_2232_" d="m120 269.346c-3.048 14.513-22.043 104.949-25.098 119.493h160.098l14-51.179-6-89.568c-16.333.001-126.559 21.254-143 21.254z" fill="#fcbe00"/><path id="XMLID_2231_" d="m390 269.346c-16.333 0-118.559 0-135 0v119.493h161.238c-3.186-14.513-23.045-104.947-26.238-119.493z" fill="#fe9002"/><path id="XMLID_2227_" d="m70.31 99.503c26.171 12.28 49.69 37.74 49.69 67.15v102.699l53 34.841 8.95-139.87-74.43-133.14c-19.5.301-45.46 4.41-65.439 12.94z" fill="#a3e92e"/><path id="XMLID_2220_" d="m255 176.437c0-71.79-50.285-126.866-112.358-141.463l60.358 268.735 52-34.358 8-47.689z" fill="#a3e92e"/><path id="XMLID_2224_" d="m142.642 34.974c-11.512-2.707-23.152-3.99-35.118-3.794l65.476 136.08v136.937l14.667 9.642 15.333-10.13v-143.29z" fill="#23c63d"/><path id="XMLID_2228_" d="m367.911 35.035c-63.378 14.641-112.911 70.612-112.911 141.595v92.209c14.684 9.531 45.43 29.486 54 35.049z" fill="#ff6c6c"/><path id="XMLID_2222_" d="m468.47 44.554c-19.199-8.33-45.01-12.815-65.7-13.181l-70.27 131.12 6.5 141.3c2.387-1.636-12.828 8.791 51-34.95 0-12.427 0-89.596 0-101.99 0-29.303 23.405-54.77 49.55-67.09z" fill="#ff6c6c"/><path id="XMLID_2225_" d="m367.911 35.035c-6.957 14.814-51.933 110.595-58.911 125.458v143.395c.287.186 14.324 9.297 15.333 9.951 1.505-1.031-5.433 3.723 14.667-10.051 0-16.605 0-119.953 0-136.602 7.254-15.447 56.58-120.494 63.772-135.811-11.708-.209-23.242.976-34.861 3.66z" fill="#ff307a"/><circle id="XMLID_2017_" cx="37.5" cy="81.339" fill="#23c63d" r="37.5"/><path id="XMLID_2223_" d="m445.983 55.33c-6.786 6.786-10.983 16.161-10.983 26.516 0 20.71 16.789 37.5 37.5 37.5s37.5-16.788 37.5-37.5c0-10.355-4.197-19.73-10.983-26.517-14.635-14.634-38.375-14.658-53.034.001z" fill="#ff307a"/></g></svg>