<svg id="Capa_1" enable-background="new 0 0 510.16 510.16" height="512" viewBox="0 0 510.16 510.16" width="512" xmlns="http://www.w3.org/2000/svg"><g id="XMLID_3755_"><path id="XMLID_3701_" d="m480.537 52.95c-11.62-23.729-30.08-40.79-54.89-50.72l-5.57-2.23v150.16l15.003 246.207 59.997-59.997v-134.991l-9.667-16.43 9.667-26.014v-32.995c0-28.719-4.891-53.27-14.54-72.99z" fill="#00c8c8"/><path id="XMLID_3711_" d="m414.506 2.23c-24.81 9.93-43.27 26.99-54.89 50.72-9.65 19.72-14.54 44.271-14.54 72.99v25.805l5 24.537-5 12.794v56.812l6.333 21.06-6.333 12.48v56.941l59.997 59.997 15.003-246.207v-150.159z" fill="#64e1dc"/><path id="XMLID_3660_" d="m75.077 225.16v60l39.333 7 40.959-1.928-1.625-36.905 3-34.799-44.167-4.035z" fill="#454554"/><path id="XMLID_2502_" d="m187.577 216.16-37.5 9v60l37.5 9.333 37.5-9.333v-60z" fill="#2e2e2e"/><path id="XMLID_2500_" d="m45.077 195.16v30h105l6.667-14-6.667-16z" fill="#525263"/><path id="XMLID_2499_" d="m150.077 195.16h105v30h-105z" fill="#454554"/><path id="XMLID_2484_" d="m74.477 285.16c-16.951 0-33.133 7.267-44.394 19.937-11.261 12.669-16.579 29.59-14.591 46.424l20.928 128.639 57.221 8.333h64.389l3.379-76.666-11.332-126.667z" fill="#525263"/><path id="XMLID_2478_" d="m269.469 305.096c-11.262-12.67-27.441-19.936-44.393-19.936h-75v195l45 8.333 68.031-8.333 20.936-128.513.017-.127c1.988-16.834-3.33-33.754-14.591-46.424z" fill="#454554"/><path id="XMLID_2465_" d="m36.42 480.16 4.893 30h108.764l6.667-15-6.667-15z" fill="#454554"/><path id="XMLID_2464_" d="m263.108 480.16h-113.031v30h108.164z" fill="#2e2e2e"/><path id="XMLID_2467_" d="m105.077 390.16c0 24.853 20.147 45 45 45l6.667-41-6.667-49c-24.853 0-45 20.148-45 45z" fill="#fcbe00"/><path id="XMLID_2466_" d="m195.077 390.16c0-24.853-20.147-45-45-45v90c24.852 0 45-20.147 45-45z" fill="#ff9100"/><path id="XMLID_3700_" d="m405.077 150.16v45l-60-43.41v37.33l60 43.58v43.231l-60-30v33.539l60 30v200.73h15l4-193.878-4-166.122z" fill="#00c8c8"/><path id="XMLID_3702_" d="m435.077 218.95v-68.79h-15v360h15v-248.79l60-59.99v-42.44z" fill="#00a0aa"/></g></svg>