<svg id="Capa_1" enable-background="new 0 0 511.02 511.02" height="512" viewBox="0 0 511.02 511.02" width="512" xmlns="http://www.w3.org/2000/svg"><g id="XMLID_555_"><path id="XMLID_1524_" d="m120.51 240v220.395c7.499 2.812 127.501 47.812 135 50.625l8.75-151.02-8.75-120-67.5-15z" fill="#f2f2f2"/><path id="XMLID_1507_" d="m390.51 240-67.5-15-67.5 15v271.02c7.499-2.812 127.501-47.812 135-50.625 0-21.466 0-197.197 0-220.395z" fill="#d6d6e0"/><path id="XMLID_1503_" d="m240.51 285v45c-14.981 0-30.019 0-45 0v30h45v75h15l6-85.49-6-64.51c-5.246 0-9.754 0-15 0z" fill="#ff6c6c"/><path id="XMLID_1495_" d="m270.51 360h45c0-10.492 0-19.508 0-30-14.981 0-30.019 0-45 0 0-14.981 0-30.018 0-45-5.246 0-9.754 0-15 0v150h15c0-20.194 0-63.236 0-75z" fill="#ff307a"/><g id="XMLID_2432_"><g><g id="XMLID_606_"><path d="m90.51 225h-30v-30h30l5.333 17.51z" fill="#5b362a"/></g></g></g><g id="XMLID_1135_"><g><g id="XMLID_614_"><path d="m420.51 225h30c0-10.492 0-19.508 0-30-9.114 0-21.077 0-30 0l-6.667 16.51z" fill="#38211a"/></g></g></g><g id="XMLID_2296_"><g><g id="XMLID_805_"><path d="m222.9 75.96-69.363 104.04-17.027 8.32-18.75-8.32 5.27-8.32 87.75-131.63z" fill="#ff6c6c"/></g></g></g><g id="XMLID_2294_"><g><g id="XMLID_628_"><path d="m300.24 40.05c-.963 2.853-10.937 32.403-12.12 35.91 11.365 17.047 51.892 77.834 69.363 104.04l20.451 4.16 14.906-4.16c-6.192-10.686 7.172 9.717-92.6-139.95z" fill="#ff307a"/></g></g></g><path id="XMLID_1168_" d="m210.51 45c0 24.811 20.186 45 45 45l8.75-47.49-8.75-42.51c-24.811 0-45 20.186-45 45z" fill="#704c55"/><path id="XMLID_1137_" d="m300.51 45c0-24.812-20.186-45-45-45v90c24.811 0 45-20.187 45-45z" fill="#5b362a"/><path id="XMLID_1107_" d="m90.51 180v60h165l8.75-30-8.75-30c-4.655 0-160.348 0-165 0z" fill="#704c55"/><path id="XMLID_556_" d="m420.51 180c-4.655 0-160.348 0-165 0v60h165c0-7.259 0-52.693 0-60z" fill="#5b362a"/></g></svg>