<svg id="Capa_1" enable-background="new 0 0 510 510" height="512" viewBox="0 0 510 510" width="512" xmlns="http://www.w3.org/2000/svg"><g id="XMLID_2984_"><path id="XMLID_3050_" d="m296.628 284.95c-6.357 27.938-21.372 52.578-42.07 70.964l48.942 58.586 49.315 39.684c13.175-6.779 25.612-14.781 37.185-23.84l5-24.883-5-27.139-41-58.822z" fill="#525263"/><g id="XMLID_3035_"><g><g id="XMLID_853_"><path d="m150 390-15 15-15-15v-113c0-70.027 56.973-127 127-127h53l15 15-15 15h-53c-53.486 0-97 43.514-97 97z" fill="#2e2e2e"/></g></g></g><path id="XMLID_3027_" d="m60 390-37.338 42.537 37.338 47.463c196.443-.028 185.543.063 191.298-.069l-26.298-44.931-63.633-45z" fill="#525263"/><path id="XMLID_3016_" d="m0 357.667h60v152.333h-60z" fill="#fcbe00"/><path id="XMLID_3010_" d="m254.558 355.914c-24.838 22.064-56.58 34.086-89.725 34.086h-3.466l89.931 89.931c35.408-.811 70.114-9.59 101.517-25.747z" fill="#454554"/><path id="XMLID_3005_" d="m390 430.344c9.684-7.58 18.763-15.898 27.139-24.883l-11.139-23.461-16-3.678z" fill="#454554"/><path id="XMLID_3002_" d="m397.808 79.273-52.808 2.727-45 8v71.047l51.813 66.453 38.187 23.547 6.333-77.047z" fill="#525263"/><path id="XMLID_2999_" d="m390 251.047 37.828 51.953 37.827 23.703c9.277-25.205 14.345-52.445 14.345-80.869v-155.834l-52.172-8-37.828 8z" fill="#454554"/><path id="XMLID_2996_" d="m300 161.047v84.85c-.222 5.578 1.049 19.631-3.372 39.054l93.372 93.371 17-63.322-17-63.953z" fill="#454554"/><path id="XMLID_2993_" d="m390 251.047v127.275l27.139 27.139c22.083-23.689 38.207-50.74 48.517-78.758z" fill="#2e2e2e"/><path id="XMLID_2989_" d="m390 0h-120v90h120l22.333-45z" fill="#fcbe00"/><path id="XMLID_2985_" d="m390 0v90h120v-90z" fill="#fe9002"/></g></svg>