<svg id="Capa_1" enable-background="new 0 0 510 510" height="512" viewBox="0 0 510 510" width="512" xmlns="http://www.w3.org/2000/svg"><g id="XMLID_61_"><g id="XMLID_2887_"><g><path id="XMLID_716_" d="m90 300-15 11.667-15-11.667v-105l5-36.5-5-38.5v-60l15-11 15 11z" fill="#5b362a"/></g></g><g id="XMLID_2885_"><g><g id="XMLID_682_"><path d="m420 300 15 11.667 15-11.667v-45l-9-67.5 9-67.5v-60l-15-15-15 15z" fill="#38211a"/></g></g></g><g id="XMLID_2871_"><g><g id="XMLID_736_"><path d="m240 60v60l7.5 5.667 7.5-5.667 3.667-30.166-3.667-29.834-7.5-6z" fill="#ffdf60"/></g><g id="XMLID_735_"><path d="m270 60-7.5-6-7.5 6v60l7.5 9 7.5-9c0-20.799 0-39.216 0-60z" fill="#fcbe00"/></g></g></g><path id="XMLID_287_" d="m60 120v75c10.833 1.667 184.167 28.333 195 30l13-52.5-13-52.5c-10.822 0-184.178 0-195 0z" fill="#f2f2f2"/><path id="XMLID_286_" d="m450 120c-10.822 0-184.178 0-195 0v105c10.833 1.667 184.167 28.333 195 30 0-16.333 0-118.559 0-135z" fill="#d6d6e0"/><path id="XMLID_285_" d="m30 0v60h225l13-30-13-30c-15.192 0-209.806 0-225 0z" fill="#704c55"/><path id="XMLID_284_" d="m480 0c-15.192 0-209.806 0-225 0v60h225c0-7.259 0-52.693 0-60z" fill="#5b362a"/><path id="XMLID_300_" d="m60 300v90h152.58c6.188-17.445 22.85-30 42.42-30l15-29-15-31c-10.822 0-184.178 0-195 0z" fill="#704c55"/><path id="XMLID_299_" d="m297.42 390h152.58c0-10.889 0-79.039 0-90-10.822 0-184.178 0-195 0v60c9.664 0 18.624 3.062 25.963 8.268 7.512 5.329 13.325 12.902 16.457 21.732z" fill="#5b362a"/><path id="XMLID_292_" d="m212.58 420c-8.467 0-144.113 0-152.58 0v60c-10.492 0-19.508 0-30 0v30h225l7.5-29-7.5-31c-19.57 0-36.232-12.555-42.42-30z" fill="#704c55"/><path id="XMLID_291_" d="m480 480c-10.492 0-19.508 0-30 0 0-7.259 0-52.693 0-60-8.467 0-144.113 0-152.58 0-6.186 17.443-22.85 30-42.42 30v60h225c0-10.492 0-19.508 0-30z" fill="#5b362a"/></g></svg>