<svg id="Capa_1" enable-background="new 0 0 510 510" height="512" viewBox="0 0 510 510" width="512" xmlns="http://www.w3.org/2000/svg"><g id="XMLID_2161_"><path id="XMLID_2288_" d="m194.999 375c-6.668-.037-29.088-.168-30-.168l-119.248 60.168c-10.051 16.943-15.752 37.1-15.752 60v15h225l27.093-42.666-9.843-79.668-34.5-5.999z" fill="#f2f2f2"/><path id="XMLID_2341_" d="m164.999 374.832c-47.96.045-95.029 19.341-119.248 60.168h119.248z" fill="#d6d6e0"/><path id="XMLID_2379_" d="m464.247 435-74.248-30.084-45-30.084c-5.428 0 14.757.077-30-.162l-42.75.826-17.25 29.504v105h225v-7.5c-.46-4.539 3.131-35.666-15.752-67.5z" fill="#d6d6e0"/><path id="XMLID_2376_" d="m232.999 322.5-26.174 3.174c-.318 1.328-11.789 49.169-11.826 49.326l30 14.754c30.054 15.283 1.418.723 30 15.246l10.667-31.666 1.724-47.538z" fill="#d6d6e0"/><path id="XMLID_2377_" d="m303.184 325.668-23.436-3.168-24.75 22.5v60l30.5-15.165 29.5-15.165c-3.342-13.864-8.166-33.873-11.814-49.002z" fill="#c0c0d6"/><path id="XMLID_2375_" d="m220.499 34.5v31.311h17.25l21.25.795v-25.106l-4-41.5c-19.049 0-34.5 15.449-34.5 34.5z" fill="#ff6c6c"/><path id="XMLID_2374_" d="m289.499 34.5c0-19.047-15.446-34.5-34.5-34.5v60l17.25 5.811h17.25c0-10.952 0-20.36 0-31.311z" fill="#ff307a"/><g id="XMLID_2507_"><g><path id="XMLID_726_" d="m150.415 121.15c-12.287 21.803-13.922 40.713-14.254 42.054h59.419l66.92-1.65 3.166-44.554-10.667-57c-43.392 0-83.312 23.402-104.584 61.15z" fill="#c0c0d6"/><path id="XMLID_720_" d="m373.422 160.533c-9.378-57.447-59.053-100.533-118.423-100.533v90l59.212 13.204h59.212c-.001-.106-.001-2.843-.001-2.671z" fill="#aeaec2"/></g></g><g id="XMLID_2498_"><g><path id="XMLID_719_" d="m134.999 228.75v66.141c13.248 5.678 106.617 45.693 120 51.429l24.5-55.819-18.756-48.833-50.744-12.917c-26.7-.001-48.612-.001-75-.001z" fill="#c0c0d6"/><path id="XMLID_714_" d="m374.999 228.75c-15.269 0-58.216 0-75 0l-45 26.25v91.319c13.366-5.729 106.508-45.647 120-51.429 0-17.908 0-55.566 0-66.14z" fill="#aeaec2"/></g></g><path id="XMLID_2351_" d="m194.999 156.667-3.5 45 3.5 40 45 10 4-45.667-4-54.333z" fill="#f2f2f2"/><path id="XMLID_2366_" d="m119.999 165v60l45 10 10.5-33.333-10.5-41.667z" fill="#f2f2f2"/><g fill="#d6d6e0"><path id="XMLID_2368_" d="m269.999 251.667c35.402-7.867 9.609-2.136 45-10l7.5-40-7.5-45c-14.981-1.665-30.019-3.335-45-5l-4.333 50z"/><path id="XMLID_2367_" d="m344.999 235c35.402-7.867 9.609-2.135 45-10 0-7.259 0-52.693 0-60-14.981-1.664-30.019-3.336-45-5l-4.5 37.5z"/><path id="XMLID_2371_" d="m164.999 160v75l30 6.667v-85z"/><path id="XMLID_2342_" d="m239.999 151.667v100c.115.025 14.847 3.299 15 3.333l4-52.5-4-52.5c-1.54.171 5.556-.617-15 1.667z"/></g><path id="XMLID_2168_" d="m269.999 151.667c-1.539-.171 5.557.617-15-1.667v105c.115-.025 14.847-3.299 15-3.333 0-27.101 0-84.038 0-100z" fill="#c0c0d6"/><path id="XMLID_2162_" d="m314.999 241.667c2.33-.518 27.143-6.032 30-6.667 0-20.194 0-63.236 0-75-.117-.014-29.872-3.318-30-3.333z" fill="#c0c0d6"/><path id="XMLID_2380_" d="m344.999 374.832v60.168h119.248c-24.073-40.578-70.94-60.122-119.248-60.168z" fill="#c0c0d6"/></g></svg>