<svg id="Capa_1" enable-background="new 0 0 510 510" height="512" viewBox="0 0 510 510" width="512" xmlns="http://www.w3.org/2000/svg"><g><path id="XMLID_3300_" d="m245.877 292.213-47.877 89.32-13 98.467 39.858 21.798 38.101-14.935 2.297-73.142-10.256-121.508c-3.19 0-6.243.594-9.123 0z" fill="#525263"/><path id="XMLID_3299_" d="m265.257 293.199c-3.369.786-6.809 1.024-10.257 1.024v185.776l35 21.798 35-21.797-19-98.467z" fill="#454554"/><path id="XMLID_3298_" d="m240 0v39.977l7.333 4.523 7.667-4.523 2.167-18.477-2.167-21.5c-5.246 0-9.754 0-15 0z" fill="#704c55"/><path id="XMLID_3295_" d="m270 0c-5.246 0-9.754 0-15 0v39.977l7.5 7.023 7.5-7.023c0-13.982 0-25.996 0-39.977z" fill="#5b362a"/><g id="XMLID_3282_"><g><g id="XMLID_742_"><g id="XMLID_762_"><path d="m446.56 480c3.607-4.982 35.48-48.995 38.96-53.8 8.499 6.155 15.802 11.444 24.301 17.6-2.189 3.022 8.784-12.133-26.21 36.2l-19.611 9.25z" fill="#5b362a"/></g></g></g></g><g id="XMLID_3279_"><g><g id="XMLID_893_"><path id="XMLID_904_" d="m27.31 480-27-33.6 23.38-18.8 42.11 52.4-21.416 9.25z" fill="#704c55"/></g></g></g><path d="m210 255s-.001 0-.002 0l-83.665-40.649-82.787 17.996c12.13 74.203 27.465 175.597 5.623 247.653l63.831 15 72-15 60.877-180.927z" fill="#ff6c6c"/><path d="m386.667 223.017-86.689 31.128c.007.32.022.574.022.855l-34.743 43.811c.326.991 59.247 179.686 59.743 181.189l67 21.798 69.69-21.798c-9.838-41.185-12.714-80.948-11.609-118.619 1.657-56.532 11.923-102.324 16.538-128.195z" fill="#ff307a"/><path d="m210 255 60-25.769 7.5-96.134-22.5-93.12c-5.246 0-9.754 0-15 0-23.799 31.413-54.258 67.906-86.314 101.276-66.627 69.358-102.75 86.23-105.724 88.43l-4.424 2.607.009.057 15.606 2.54c50.255 7.729 100.576 18.299 150.847 20.113z" fill="#ff307a"/><path d="m356.512 141.602c-35.456-36.089-64.309-72.198-86.512-101.618v-.004-.004c-5.246 0-9.754 0-15 0v170.023l44.978 44.145c24.807-.91 126.022-13.707 150.686-17.5l15.955-3.459.008-.038c-5.066-3.867-51.131-31.508-110.115-91.545z" fill="#cc0347"/><g id="XMLID_3249_"><g><g id="XMLID_829_"><g id="XMLID_830_"><g id="XMLID_833_"><path d="m0 480v30h255l22.5-15-22.5-15c-7.193 0-247.807 0-255 0z" fill="#a3e92e"/></g><g id="XMLID_832_"><path d="m510 480c-7.193 0-247.807 0-255 0v30h255s0-19.508 0-30z" fill="#23c63d"/></g></g></g></g></g><g id="XMLID_3287_"><g id="XMLID_3288_"><path id="XMLID_3292_" d="m210 255c0 24.853 20.146 45 45 45l15-45-15-45c-24.853 0-45 20.145-45 45z" fill="#f2f2f2"/><path id="XMLID_3289_" d="m300 255c0-24.852-20.146-45-45-45v90c24.852 0 45-20.147 45-45z" fill="#d6d6e0"/></g></g></g></svg>