<svg id="Capa_1" enable-background="new 0 0 510 510" height="512" viewBox="0 0 510 510" width="512" xmlns="http://www.w3.org/2000/svg"><g id="XMLID_391_"><path id="XMLID_3083_" d="m192.381 28.74c-19.388-18.411-45.012-28.74-72.201-28.74-57.896 0-105 47.104-105 105 0 28.753 10.139 55.453 30.96 81.511l112.346 7.489 91.495 6.264-1.801-95.264-8-90c-17.027 0-33.563 4.809-47.799 13.74z" fill="#c8ad92"/><path id="XMLID_3080_" d="m465.18 105c0-57.896-47.103-105-105-105-27.19 0-52.814 10.329-72.201 28.74-14.237-8.931-30.773-13.74-47.799-13.74v171.511l65 7.489 129.041-7.489c20.82-26.057 30.959-52.758 30.959-81.511z" fill="#aa8360"/><g id="XMLID_3418_"><path id="XMLID_3419_" d="m165.18 186.511-13.006 7.489-16.994-7.489v-66.511h30z" fill="#aa8360"/></g><g id="XMLID_3416_"><path id="XMLID_3417_" d="m225.18 186.511-15 7.489-15-7.489v-66.511h30z" fill="#aa8360"/></g><g id="XMLID_3414_"><g><path id="XMLID_923_" d="m285.18 186.511-15 10.489-15-10.489v-66.511h30z" fill="#99724e"/></g></g><g id="XMLID_3412_"><g><path id="XMLID_921_" d="m345.18 186.511-15.807 6.085-14.193-6.085v-66.511h30z" fill="#99724e"/></g></g><g id="XMLID_3429_"><g><g id="XMLID_747_"><path d="m87.1 405h-41.92v30h47.549l21.771-15z" fill="#5b362a"/></g></g></g><g id="XMLID_3427_"><g><g id="XMLID_768_"><path d="m375.18 415 12.45 20h47.55v-30h-41.92z" fill="#38211a"/></g></g></g><path id="XMLID_3075_" d="m92.731 435h58.706l30.743-55.606 69.102-31.894 3.898-47-15-30.5-84-15-94.386 15z" fill="#704c55"/><path id="XMLID_3079_" d="m328.923 435h58.706l30.938-165-103.387-10-75 10v60l51.67 30z" fill="#5b362a"/><path id="XMLID_3099_" d="m46.14 186.511 10.029 53.489 99.511 6 92.5 6.763v-39.507l-8-26.745z" fill="#704c55"/><path id="XMLID_3151_" d="m240.18 186.511v53.489l77.5 10.5 106.511-10.5 10.029-53.489h.001z" fill="#5b362a"/><path id="XMLID_3120_" d="m209.72 471.67 30.46-30.46 4.75-21.21-4.75-21.21-30.46-30.46-17.29 5.17-3.92 16.04 30.46 30.46-30.46 30.46 5.17 15.04z" fill="#525263"/><path id="XMLID_3128_" d="m291.85 450.46-30.46-30.46 30.46-30.46-6.67-18.873-14.54-2.337-30.46 30.46v42.42l30.46 30.46 14.54-6.67z" fill="#454554"/><path id="XMLID_3306_" d="m180.18 420c0-33.084 26.916-60 60-60l4.75-12-4.75-18c-49.626 0-90 40.374-90 90s40.374 90 90 90l3-14.333-3-15.667c-33.084 0-60-26.916-60-60z" fill="#454554"/><path id="XMLID_3084_" d="m56.169 240 5.625 30h178.386l8-15-8-15z" fill="#5b362a"/><path id="XMLID_3121_" d="m240.18 240v30h254.641v-30c-7.86 0-228.209 0-254.641 0z" fill="#38211a"/><path id="XMLID_3112_" d="m240.18 330v30c33.084 0 60 26.916 60 60s-26.916 60-60 60v30c49.626 0 90-40.374 90-90s-40.374-90-90-90z" fill="#2e2e2e"/></g></svg>