<svg id="Capa_1" enable-background="new 0 0 509.672 509.672" height="512" viewBox="0 0 509.672 509.672" width="512" xmlns="http://www.w3.org/2000/svg"><g id="XMLID_3365_"><g id="XMLID_3386_"><path id="XMLID_3387_" d="m179.036 300.922v-76.25c0-82.71 67.29-150 150-150h.3l3.9-30h-4.2c-99.26 0-180 80.75-180 180v76.25z" fill="#d6d6e0"/></g><path id="XMLID_3385_" d="m284.032 404.672v-30h-31.257c-2.301-13.655-7.682-26.277-15.41-37.12l22.126-22.126-21.213-21.213-22.126 22.126c-14.717-10.49-32.71-16.667-52.12-16.667-19.409 0-37.403 6.177-52.12 16.667l-22.126-22.126-21.213 21.213 22.126 22.126c-7.729 10.843-13.109 23.465-15.41 37.12h-31.257v30h31.257c2.301 13.656 7.682 26.278 15.41 37.12l-22.126 22.126 21.213 21.213 22.126-22.125c10.842 7.728 23.465 13.108 37.12 15.409v31.257h30v-31.257c13.655-2.301 26.278-7.682 37.12-15.409l22.126 22.125 21.213-21.213-22.126-22.126c7.729-10.842 13.109-23.464 15.41-37.12z" fill="#525263"/><g id="XMLID_3381_"><g><g id="XMLID_533_"><path d="m149.032 374.672h30v30h-30z" fill="#454554"/></g></g></g><path id="XMLID_3379_" d="m397.336 0c-40.237 0-71.755 34.609-67.999 74.672l23.466 270 23.57 10h30.862l-2.399-152.5z" fill="#ffdf60"/><path id="XMLID_3378_" d="m364.536 479.672c1.587 16.93 15.797 29.869 32.8 29.869l7.43-81.535.07-63.334h-26.052l-23.374 10z" fill="#ffdf60"/><path id="XMLID_3377_" d="m436.42 12.3c-11.037-7.724-24.48-12.3-39.084-12.3v344.672l20.963 10 23.57-10 17.203-197.936z" fill="#fcbe00"/><g id="XMLID_3373_"><g><path id="XMLID_389_" d="m436.42 12.3-9.404 9.143c-13.699 13.58-22.18 32.41-22.18 53.229 0 34.215 22.921 63.066 54.236 72.064l6.264-72.064c2.392-25.522-9.543-48.815-28.916-62.372z" fill="#fe9002"/></g></g><path id="XMLID_3372_" d="m430.137 479.672 9.125-105-20.963-6-20.963 6v134.869c17.004 0 31.213-12.939 32.801-29.869z" fill="#fcbe00"/><path id="XMLID_3369_" d="m352.803 344.672 2.607 30h41.926l7.43-15-7.43-15z" fill="#fcbe00"/><path id="XMLID_3366_" d="m441.869 344.672h-44.533v30h41.926z" fill="#fe9002"/></g></svg>