<svg id="Capa_1" enable-background="new 0 0 510.009 510.009" height="512" viewBox="0 0 510.009 510.009" width="512" xmlns="http://www.w3.org/2000/svg"><g id="XMLID_1950_"><g id="XMLID_2942_"><g><path id="XMLID_660_" d="m383.14 120.055c1.532-4.855 34.894-110.563 37.56-119.011l14.3 4.511 14.3 4.51c-.041.129-34.663 109.873-34.7 109.99l-15.933 6z" fill="#5b362a"/></g></g><path id="XMLID_3008_" d="m195 179.555-15 165 15 154.369c20.115 7.309 40.355 10.631 60 10.631l30-164.5-18.83-180h-41.17z" fill="#c0c0d6"/><path id="XMLID_2945_" d="m315 179.555-30-14.5-30 14.5v165 165c19.645 0 39.885-3.322 60-10.631l22-161.619z" fill="#aeaec2"/><path id="XMLID_2504_" d="m240 239.555v15 15h7.5 7.5l5-15-5-15h-7.5z" fill="#454554"/><path id="XMLID_2428_" d="m270 239.555h-7.5-7.5v15 15h7.5 7.5v-15z" fill="#2e2e2e"/><path id="XMLID_2426_" d="m240 299.555v15 15h7.5 7.5l7.5-13-7.5-17h-7.5z" fill="#454554"/><path id="XMLID_2363_" d="m270 299.555h-7.5-7.5v15 15h7.5 7.5v-15z" fill="#2e2e2e"/><path id="XMLID_2170_" d="m240 359.555v15 15h7.5 7.5l5-15-5-15h-7.5z" fill="#454554"/><path id="XMLID_2155_" d="m270 359.555h-7.5-7.5v15 15h7.5 7.5v-15z" fill="#2e2e2e"/><path id="XMLID_3522_" d="m457.5 254.555c-4.85 0-8.936 0-13.786 0-11.939-45.014-37.25-71.396-39.604-75l-44.11-7.25-45 7.25v159.685 159.685c12.482-4.535 24.581-10.501 36.122-17.809.455.566 20.848 25.928 23.188 28.838.195-.156 23.228-18.678 23.379-18.799-7.864-9.78-14.622-18.185-22.486-27.965 31.476-27.243 54.855-63.637 66.553-103.635h15.744c14.018 0 27.203-5.463 37.133-15.381 20.596-20.624 20.416-53.782-.027-74.226-9.506-9.505-22.631-15.393-37.106-15.393zm0 75c-.14 0-9.696 0-9.331 0 2.151-15.713 2.332-30.508.929-45 .129 0 8.774 0 8.402 0 12.406 0 22.5 10.094 22.5 22.5 0 12.465-10.08 22.5-22.5 22.5z" fill="#454554"/><path id="XMLID_2957_" d="m195 179.555-36-14.5-53.109 14.5c-2.423 3.674-27.672 30.013-39.604 75h-13.787c-28.948 0-52.5 23.551-52.5 52.5 0 28.845 23.325 52.5 52.5 52.5h15.744c10.33 35.326 30.033 68.753 57.914 95.719l-28.848 35.881 23.381 18.799 28.469-35.409c14.394 10.362 29.783 18.545 45.841 24.38v-319.37zm-142.5 150c-12.514 0-22.5-10.14-22.5-22.5 0-12.406 10.094-22.5 22.5-22.5h8.402c-1.45 14.973-1.159 29.733.929 45z" fill="#525263"/><path id="XMLID_1890_" d="m240 419.555v15 15h7.5 7.5l5-15-5-15h-7.5z" fill="#454554"/><path id="XMLID_577_" d="m270 419.555h-7.5-7.5v15 15h7.5 7.5v-15z" fill="#2e2e2e"/><g id="XMLID_2939_"><path id="XMLID_483_" d="m233.787 51.268c5.429 5.429 12.929 8.787 21.213 8.787l5-30-5-30c-8.284 0-15.784 3.357-21.213 8.786-11.707 11.705-11.727 30.7 0 42.427z" fill="#64e1dc"/><path id="XMLID_72_" d="m285 30.055c0-8.285-3.357-15.785-8.787-21.214-5.429-5.428-12.929-8.786-21.213-8.786v60c8.284 0 15.784-3.358 21.213-8.787 5.43-5.43 8.787-12.93 8.787-21.213z" fill="#00c8c8"/></g><g id="XMLID_2938_"><g><g id="XMLID_725_"><path d="m120 .055h30v30h-30z" fill="#64e1dc"/></g></g></g><g id="XMLID_2937_"><g><g id="XMLID_724_"><path d="m150 60.055h30v30h-30z" fill="#64e1dc"/></g></g></g><g id="XMLID_2954_"><path id="XMLID_3026_" d="m75 120.055c-16.567 0-30 13.43-30 30 0 16.566 13.432 30 30 30h90 90l15-35.82-15-24.18c-10 0-170 0-180 0z" fill="#454554"/><path id="XMLID_3025_" d="m465 150.055c0-16.567-13.43-30-30-30-10 0-170 0-180 0v60h180c16.566 0 30-13.431 30-30z" fill="#2e2e2e"/></g></g></svg>