<svg id="Capa_1" enable-background="new 0 0 502.59 502.59" height="512" viewBox="0 0 502.59 502.59" width="512" xmlns="http://www.w3.org/2000/svg"><g id="XMLID_3426_"><g id="XMLID_3485_"><g><path id="XMLID_712_" d="m166.44 314.944c-10.634 10.632-57.118 57.111-67.767 67.758l-.521 11.128 10.019 10.287 33.911-41.135 34.96-37.436.041-10.648z" fill="#f2f2f2"/><path id="XMLID_710_" d="m187.654 336.158 1.716-10.918-12.327.307c-8.225 8.225-59.636 59.636-67.762 67.762l.982 12.63 9.63-2.019c79.025-79.026 66.365-66.366 67.761-67.762z" fill="#d6d6e0"/></g></g><path id="XMLID_3484_" d="m77.461 361.489c-7.931 7.931-63.234 63.234-71.086 71.085-1.717 18.859-5.375 59.029-6.375 70.015l61.239-50.628 48.042-58.653c-3.175-3.174-28.59-28.59-31.82-31.819z" fill="#d6d6e0"/><path id="XMLID_3483_" d="m141.101 425.128c-3.175-3.175-28.589-28.59-31.819-31.82-6.064 6.064-103.219 103.218-109.282 109.281 18.859-1.717 59.029-5.375 70.016-6.375 7.929-7.93 63.234-63.234 71.085-71.086z" fill="#c0c0d6"/><path id="XMLID_3482_" d="m225.516 225.537c-45.51 34.229-81.722 52.16-90.899 57.584 4.482 4.482 38.034 38.033 42.427 42.426l41.835-32.406 40.748-41.835-13.048-18.47z" fill="#704c55"/><path id="XMLID_3479_" d="m277.053 277.074-8.426-19.832-17.343-5.937c-19.996 19.996-62.593 62.593-74.241 74.241 4.483 4.482 38.033 38.034 42.426 42.427 4.507-7.321 22.422-44.149 57.584-90.899z" fill="#5b362a"/><path id="XMLID_3478_" d="m399.776 60.386c-2.177 2.178 7.857-7.857-21.214 21.214l8.293 12.912 11.359 17.74 17.141-18.419 12.26-10.982-13.886-15.206z" fill="#704c55"/><path id="XMLID_3475_" d="m442.203 102.813-3.956-17.249-17.258-3.964c-7.419 7.419-13.794 13.794-21.213 21.213l8.296 12.917 12.917 8.297c2.177-2.178-7.857 7.857 21.214-21.214z" fill="#5b362a"/><path id="XMLID_3474_" d="m314.924 145.24c-7.408 7.402-15.922 15.934-21.223 21.204l7.089 13.595 14.138 18.423 13.902-18.103 15.866-13.906-11.813-14.661z" fill="#704c55"/><path id="XMLID_3471_" d="m357.35 187.667-7.495-16.075-13.718-5.139c-.427.427-19.054 19.055-21.213 21.214l7.354 13.858 13.868 7.363c5.317-5.348 13.74-13.752 21.204-21.221z" fill="#5b362a"/><path id="XMLID_3470_" d="m460.163.001c-2.421 2.421 10.505-10.505-39.174 39.173l5.704 15.51 15.511 12.325 23.852-23.875 25.927-32.526c-2.545-.85-28.616-9.539-31.82-10.607z" fill="#704c55"/><path id="XMLID_3467_" d="m502.59 42.426c-.504-1.513.754 2.262-10.607-31.819-6.022 6.023-43.717 43.717-49.779 49.779l6.65 14.571 14.562 6.643c.781-.781 35.209-35.21 39.174-39.174z" fill="#5b362a"/><path id="XMLID_3466_" d="m357.35 102.813c-.427.427-19.054 19.055-21.213 21.214l5.94 15.273 15.273 14.343 15.32-14.296 13.153-17.766-14.048-8.68z" fill="#704c55"/><path id="XMLID_3463_" d="m399.776 145.24-5.846-15.368-15.368-5.845c-.311.312-21.065 21.065-21.213 21.213l5.939 15.273 15.273 5.939c.428-.426 19.056-19.053 21.215-21.212z" fill="#5b362a"/><path id="XMLID_3462_" d="m271.949 187.118c-7.318 6.645-14.926 13.238-22.73 19.695l9.183 13.805 10.422 20.145 19.984-17.552 14.091-14.606-13.659-13.717z" fill="#704c55"/><path id="XMLID_3459_" d="m315.472 230.64-6.12-15.642-15.642-6.119c-7.419 7.419-13.793 13.793-21.212 21.212l6.028 17.25 17.25 6.029c6.343-7.666 12.9-15.246 19.696-22.73z" fill="#5b362a"/><path id="XMLID_3456_" d="m420.989 39.173c-7.419 7.419-13.794 13.794-21.213 21.213.427.427 19.054 19.055 21.213 21.214l13.011-6.411 8.203-14.803c-.427-.427-19.055-19.053-21.214-21.213z" fill="#ffdf60"/><path id="XMLID_3453_" d="m463.416 81.6c-2.177-2.177 7.857 7.857-21.213-21.214-7.42 7.42-13.795 13.795-21.214 21.214.427.427 19.055 19.054 21.214 21.213.312-.312 21.065-21.066 21.213-21.213z" fill="#fcbe00"/><path id="XMLID_3450_" d="m336.137 124.027c-.311.312-21.065 21.065-21.213 21.213 7.419 7.419 13.794 13.794 21.213 21.213l15.32-5.893 5.893-15.32c-.102-.102-19.832-19.832-21.213-21.213z" fill="#ffdf60"/><path id="XMLID_3447_" d="m378.562 166.453c-7.419-7.419-13.794-13.794-21.213-21.213-7.419 7.419-13.794 13.794-21.213 21.213.427.427 19.054 19.055 21.213 21.214.427-.427 19.054-19.055 21.213-21.214z" fill="#fcbe00"/><path id="XMLID_3444_" d="m293.701 166.444c-6.782 6.752-14.035 13.667-21.752 20.674.44.439 19.541 19.542 21.761 21.762l12.539-5.939 8.675-15.273c-7.422-7.424-13.801-13.801-21.223-21.224z" fill="#ffdf60"/><path id="XMLID_3441_" d="m336.146 208.888c-7.422-7.422-13.8-13.8-21.222-21.222-.427.427-19.055 19.054-21.214 21.213.439.438 19.542 19.541 21.762 21.761 6.647-7.322 13.528-14.575 20.674-21.752z" fill="#fcbe00"/><path id="XMLID_3438_" d="m249.219 206.813c-7.646 6.324-15.456 12.518-23.703 18.724 2.645 2.645-9.545-9.545 25.769 25.768l13.199-8.014 8.015-13.2c-.621-.62-23.108-23.105-23.28-23.278z" fill="#ffdf60"/><path id="XMLID_3435_" d="m295.776 253.371c-.62-.62-23.106-23.107-23.278-23.279-7.42 7.42-13.795 13.795-21.214 21.214 2.645 2.645-9.545-9.545 25.769 25.769 6.208-8.251 12.402-16.061 18.723-23.704z" fill="#fcbe00"/><path id="XMLID_3432_" d="m378.562 81.6c-7.419 7.419-13.794 13.794-21.213 21.213.427.427 19.054 19.055 21.213 21.214l13.906-7.307 7.308-13.907c-.426-.427-19.054-19.054-21.214-21.213z" fill="#ffdf60"/><path id="XMLID_3428_" d="m420.989 124.027c-.427-.427-19.054-19.055-21.213-21.214-7.419 7.419-13.794 13.794-21.214 21.214 2.177 2.177-7.857-7.857 21.214 21.213.102-.102 19.831-19.832 21.213-21.213z" fill="#fcbe00"/></g></svg>