<svg id="Capa_1" enable-background="new 0 0 510.666 510.666" height="512" viewBox="0 0 510.666 510.666" width="512" xmlns="http://www.w3.org/2000/svg"><g id="XMLID_3155_"><path id="XMLID_3145_" d="m255.333.333-210-.333v510.666h210l12.5-237.333c-.039-.857.865 19.257-12.5-273z" fill="#525263"/><path id="XMLID_3144_" d="m465.333.333c-11.664 0-198.336 0-210 0v510.333h210v-210l-18.44-44.999 18.44-45.001z" fill="#454554"/><path id="XMLID_3143_" d="m176.503 75.667c0 31.018-25.149 56.17-56.17 56.17v247.66c31.02 0 56.17 25.147 56.17 56.17h78.83l15-180.334-15-179.666c-9.533 0-69.234 0-78.83 0z" fill="#f2f2f2"/><path id="XMLID_3142_" d="m390.333 379.497c0-35.033 0-213.896 0-247.66-31.019 0-56.17-25.149-56.17-56.17-9.532 0-69.234 0-78.83 0v360h78.83c0-31.02 25.147-56.17 56.17-56.17z" fill="#d6d6e0"/><g id="XMLID_3089_"><path id="XMLID_3140_" d="m180.333 300.666v30h75l11-12.833-11-17.167c-20.194 0-63.236 0-75 0z" fill="#525263"/><path id="XMLID_3139_" d="m330.333 300.666c-20.194 0-63.236 0-75 0v30h75c0-10.492 0-19.508 0-30z" fill="#454554"/></g><g id="XMLID_3087_"><path id="XMLID_3132_" d="m210.333 360.666v30h45l9-15-9-15c-14.981 0-30.019 0-45 0z" fill="#525263"/><path id="XMLID_3130_" d="m300.333 360.666s-30.019 0-45 0v30h45z" fill="#454554"/></g><path id="XMLID_3101_" d="m373.513 287.486c8.143 8.144 19.393 13.181 31.82 13.181h60c0-10.889 0-79.039 0-90-7.259 0-52.693 0-60 0-12.427 0-23.677 5.036-31.82 13.18-17.562 17.564-17.589 46.049 0 63.639z" fill="#2e2e2e"/><path id="XMLID_3090_" d="m210.333 210.667c0 24.852 20.147 45 45 45l15-49.334-15-64.666c-.077.1-45 44.15-45 69z" fill="#ff307a"/><path id="XMLID_3088_" d="m300.333 210.667c0-24.752-44.922-68.899-45-69v114c24.849 0 45-20.146 45-45z" fill="#cc0347"/></g></svg>