<svg id="Capa_1" enable-background="new 0 0 510 510" height="512" viewBox="0 0 510 510" width="512" xmlns="http://www.w3.org/2000/svg"><g id="XMLID_3527_"><path id="XMLID_3559_" d="m255 75v-.26c-.357-.066-192.908-36.172-193.01-36.19-18.498-3.471-31.99-19.648-31.99-38.55-10.492 0-19.508 0-30 0 0 33.293 23.752 61.897 56.46 68.04 2.702.507 159.236 29.849 159.35 29.87z" fill="#ff6c6c"/><path id="XMLID_3556_" d="m294.19 97.91c.736-.138 159.217-29.846 159.35-29.87 32.721-6.144 56.46-34.76 56.46-68.04-10.492 0-19.508 0-30 0 0 18.896-13.485 35.078-31.99 38.55-2.697.506-192.094 36.018-193.01 36.19v.26l15 18z" fill="#ff307a"/><g id="XMLID_3553_"><path id="XMLID_3555_" d="m248.75 199 9.281-1.408-.531-17.592-.218-22.095-17.282 4.525v32.09z" fill="#ff6c6c"/><path id="XMLID_3554_" d="m270 162.43v32.641l-7.5 8.18-7.5-8.73c0-10.359 0-19.178 0-29.52l7.5-6.25z" fill="#ff307a"/></g><g id="XMLID_3550_"><path id="XMLID_3552_" d="m167.566 194.523-.06.094-.059.093 18.553 41.79 16.778 39.5c14.15 3.715 17.739-3.715 31.889 0l26.083 1.072v-41.572l-5.75-40.977c-10.582 0-76.781 0-87.434 0z" fill="#ffdf60"/><path id="XMLID_3551_" d="m342.78 195.071c-.064-.101-.41-.648-.347-.548-10.582 0-76.781 0-87.434 0v75.477l22.5 12.333 27.922-.744 28.911-35.923z" fill="#fcbe00"/></g><g id="XMLID_3546_"><g><path id="XMLID_603_" d="m217.895 440.518-16.895-51.518-29.695-58.322-43.805 2.988-54.781 11.334 94.257 164.745 32.691-30.079 18.228-28.557z" fill="#ffdf60"/></g></g><g id="XMLID_3544_"><g><path id="XMLID_620_" d="m211.81 270-44.362-75.29-94.955 149.897.226.393h92.281l30-22z" fill="#fcbe00"/></g></g><g id="XMLID_3542_"><g><path id="XMLID_607_" d="m286.88 435 23.453 41.334 32.691 33.411c4.783-8.36 89.325-156.125 94.257-164.745l-49.614-11.334-47.05-1.196c-12.722 24.462-46.303 88.235-53.737 102.53z" fill="#fcbe00"/></g></g><g id="XMLID_3539_"><path id="XMLID_3541_" d="m211.81 435c-4.469 7.449-40.282 67.155-44.835 74.745l.072.128.073.127h87.879l7.5-37.5-7.499-37.5-20.667-20z" fill="#fcbe00"/><path id="XMLID_3540_" d="m343.024 509.745c-4.469-7.45-40.282-67.155-44.835-74.745l-20.689-13.294-22.5 13.294v75h87.879l.073-.127z" fill="#fe9002"/></g><g id="XMLID_3535_"><path id="XMLID_3538_" d="m298.189 270c5.663 9.073 41.11 65.867 46.811 75h92.281c.058-.1.283-.494.225-.393-2.671-4.216-92.056-145.319-94.727-149.535-4.444 7.469-40.06 67.317-44.59 74.928z" fill="#fe9002"/></g><path id="XMLID_3534_" d="m210 120c0 24.812 20.186 45 45 45l15-45-15-45c-24.812 0-45 20.187-45 45z" fill="#ffdf60"/><path id="XMLID_3533_" d="m300 120c0-24.812-20.187-45-45-45v90c24.811 0 45-20.186 45-45z" fill="#fcbe00"/><g id="XMLID_3528_"><path id="XMLID_3532_" d="m211.81 270c-5.663 9.073-41.11 65.867-46.81 75 12.723 24.461 39.376 75.705 46.81 90h43.19l7.5-82.5-7.5-82.5h-21.595z" fill="#ff6c6c"/><path id="XMLID_3529_" d="m345 345c-5.663-9.073-41.11-65.867-46.811-75-13.732 0-29.457 0-43.189 0v165h43.189l23.405-45z" fill="#ff307a"/></g></g></svg>