<svg id="Capa_1" enable-background="new 0 0 510 510" height="512" viewBox="0 0 510 510" width="512" xmlns="http://www.w3.org/2000/svg"><g id="XMLID_431_"><path id="XMLID_2516_" d="m337.677 293.722-43.721 11.278-4.955 92.75-6.842 88.776 42.842 3.974h44.443c3.535-26.334 8.154-89.882 8.154-89.882s6.718-62.655 7.962-90.618z" fill="#5b362a"/><path id="XMLID_2361_" d="m147.652 305-55.984 8-43.719 4c3.932 52.43 11.79 106.959 23.482 163l38.902 15 49.99-8.474-6.105-87.221z" fill="#5b362a"/><path id="XMLID_2362_" d="m222.44 302.749-45.942 2.251-39.667 12c2.433 52.354 7.316 106.69 14.63 163l31.54 15 42.527-6.395-9.363-90.105z" fill="#704c55"/><path id="XMLID_2870_" d="m210.682 317c.949 54.922 2.874 109.436 5.482 163l20.426 10.5 27.903-4.753-1.996-87.247 1.996-93.5h-32.993z" fill="#5b362a"/><path id="XMLID_2560_" d="m299.367 317-22.045-7-22.321 7v163l22.184 15 16.647-15c2.838-56.287 4.671-110.623 5.535-163z" fill="#38211a"/><path id="XMLID_2517_" d="m418.501 310-45.149 7-14.774 163 39.424 15 40.691-15c12.246-56.895 19.978-111.383 23.688-163z" fill="#38211a"/><g id="XMLID_2877_"><g><g id="XMLID_734_"><path d="m44.994 480v30h210.007l4.5-17-4.5-13c-5.928 0-204.094 0-210.007 0z" fill="#fcbe00"/></g><g id="XMLID_731_"><path d="m464.994 480c-5.928 0-204.081 0-209.993 0v30h209.993c0-10.492 0-19.508 0-30z" fill="#fe9002"/></g></g></g><path id="XMLID_2422_" d="m70.403 30c-13.243 51.584-21.36 106.175-24.229 163l47.493 8.666h53.53l6.36-92.554 9.173-88.5-50.062 1.054z" fill="#5b362a"/><path id="XMLID_2348_" d="m150.937 30c-8.352 51.668-13.424 105.998-15.205 163l40.114 12.5 43.06-3.834 4.156-88.793 2.575-92.261-40.137 1.054z" fill="#704c55"/><path id="XMLID_2218_" d="m439.37 30-41.869-5-53.815-4.388 12.496 87.389 6.402 96.414 56.417 1.085 44.562-12.5c-3.183-57.433-11.574-111.94-24.193-163z" fill="#38211a"/><path id="XMLID_2907_" d="m215.96 30c-3.294 54.354-5.065 108.994-5.7 163l22.408 8.666h31.801l-1.971-90v-91.054l-29.657 4.388z" fill="#5b362a"/><path id="XMLID_2905_" d="m303.818 22.424-29.484 2.576-19.333 5v163l22.321 6 30.398 5.415c-.348-27.484 0-93.142 0-93.142s-2.337-61.966-3.902-88.849z" fill="#38211a"/><path id="XMLID_2181_" d="m358.924 30-32.923-5-32.045 5 5.688 163 37.856 8.666 36.59-8.666c-1.914-55.795-6.959-110.137-15.166-163z" fill="#5b362a"/><g id="XMLID_2869_"><g><g id="XMLID_786_"><path d="m210.259 193c-.03 2.641-.031 2.693 0 0-8.393 0-65.684 0-74.527 0-.084 2.619-.087 2.715 0 0-10.84 0-78.646 0-89.558 0-2.112 41.919-1.311 82.858 1.774 124h207.052l7.497-62-7.497-62c-14.908 0-29.832 0-44.741 0z" fill="#ffdf60"/></g><g id="XMLID_784_"><path d="m463.563 193c-10.817 0-78.584 0-89.473 0 .093 2.635.095 2.698 0 0-8.998 0-65.389 0-74.446 0 .03 2.613.03 2.613 0 0-14.183 0-30.461 0-44.644 0v124h207.379c3.17-44.133 3.353-84.872 1.184-124z" fill="#fcbe00"/></g></g></g><g id="XMLID_2883_"><g><path id="XMLID_811_" d="m119.994 240h30v30h-30z" fill="#fcbe00"/></g></g><g id="XMLID_2882_"><g><path id="XMLID_810_" d="m179.994 240h30v30h-30z" fill="#fcbe00"/></g></g><g id="XMLID_2881_"><g><g id="XMLID_744_"><path d="m239.994 240v30h15.007l4.5-18.5-4.5-11.5c-5.248 0-9.758 0-15.007 0z" fill="#fcbe00"/></g><g id="XMLID_733_"><path d="m269.994 240s-9.749 0-14.993 0v30h14.993z" fill="#fe9002"/></g></g></g><g id="XMLID_2880_"><g><path id="XMLID_678_" d="m299.994 240h30v30h-30z" fill="#fe9002"/></g></g><g id="XMLID_2879_"><g><path id="XMLID_642_" d="m359.994 240h30v30h-30z" fill="#fe9002"/></g></g><g id="XMLID_2878_"><g><g id="XMLID_773_"><path d="m44.994 0v30h210.007l7.497-15-7.497-15c-5.928 0-204.094 0-210.007 0z" fill="#fcbe00"/></g><g id="XMLID_772_"><path d="m464.994 0c-5.928 0-204.081 0-209.993 0v30h209.993c0-10.492 0-19.508 0-30z" fill="#fe9002"/></g></g></g></g></svg>