<svg id="Capa_1" enable-background="new 0 0 500.833 500.833" height="512" viewBox="0 0 500.833 500.833" width="512" xmlns="http://www.w3.org/2000/svg"><g id="XMLID_388_"><path id="XMLID_3826_" d="m260.424 241.11-2.507-40.814.007-55.713-60.028-2.75-52.472 14-.007 47 73 51.274z" fill="#fddccb"/><path id="XMLID_3904_" d="m276.417 254.107 79.014-51.664c-.023-14.791-.062-19.373-.006-46.609l-63.353-14-41.654 14v75z" fill="#ffbca9"/><path id="XMLID_2820_" d="m190.417 365.833c-24.961.035-31.787-.646-45 .482l-10.667 78.184 10.667 56.334h105l5.5-50.25 6.135-69.662-36.635-14.605z" fill="#f2f2f2"/><path id="XMLID_2821_" d="m25.417 485.833v15h120v-134.518c-68.114 5.807-120 50.5-120 119.518z" fill="#ff6c6c"/><path id="XMLID_2385_" d="m355.417 366.315c-9.358-.803-12.89-.641-45-.812l-30 .082-30 30.248v105h105l14.662-66.279z" fill="#d6d6e0"/><path id="XMLID_2389_" d="m355.417 366.315v67.258 67.26h120c0-5.246 0-9.754 0-15 0-69.46-52.405-113.763-120-119.518z" fill="#ff641a"/><path id="XMLID_2297_" d="m200.646 323.323-3.499 14.255-6.73 27.925c16.32 8.25 50.481 25.519 60 30.33l7.5-40 5.259-33.27-34.759-6.73z" fill="#ffbca9"/><path id="XMLID_2293_" d="m273.686 309.668-23.27 25.835v60.33c16.32-8.25 50.481-25.518 60-30.33l-6.73-27.915-3.567-14.218z" fill="#ffa08a"/><path id="XMLID_462_" d="m273.686 309.668-23.269 25.835v17.245" fill="#ffa08a"/><g id="XMLID_434_"><path id="XMLID_458_" d="m250.424.004-.005-.004-52.497 33-52.498-33v18 107.833l57.5 8.667h59.755l-2.255-53.667z" fill="#ffdf60"/><path id="XMLID_453_" d="m302.921 33-52.497-32.996v125.829l50.146 8.667 54.853-8.667c0-18.532 0-110.035 0-125.833z" fill="#fcbe00"/><path id="XMLID_450_" d="m145.424 125.833v30h105l10-15-10-15z" fill="#fcbe00"/><g id="XMLID_3810_"><path id="XMLID_3814_" d="m235.424 65.833v30h15l4.667-15.55-4.667-14.45c-5.246 0-15 0-15 0z" fill="#fcbe00"/><path id="XMLID_3811_" d="m265.424 65.833s-9.754 0-15 0v30h15z" fill="#fe9002"/></g><path id="XMLID_3807_" d="m250.424 125.833h105v30h-105z" fill="#fe9002"/></g><path id="XMLID_1987_" d="m220.417 245.833-75-43v27.84c-.17 5.2.21 10.311.939 15.301 7.431 51.029 51.4 89.859 104.061 89.859l5.5-48-5.5-57z" fill="#704c55"/><path id="XMLID_3821_" d="m355.43 202.442-75.014 43.391-30-15v105c53.12 0 97.03-39.38 104.15-90.49.869-6.226.905-16.243.864-42.901z" fill="#5b362a"/></g></svg>