<svg id="Capa_1" enable-background="new 0 0 501.906 501.906" height="512" viewBox="0 0 501.906 501.906" width="512" xmlns="http://www.w3.org/2000/svg"><g id="XMLID_3662_"><path id="XMLID_3698_" d="m445.799 405.809c-.727-10.791-3.846-17.218-6.352-22.383-2.179-4.488-3.494-7.198-3.494-14.05s1.315-9.561 3.494-14.049c2.745-5.656 6.506-13.402 6.506-27.151 0-13.75-3.761-21.496-6.508-27.152-2.178-4.485-3.492-7.192-3.492-14.037 0-6.859 1.315-9.57 3.496-14.061 2.744-5.656 6.504-13.402 6.504-27.148 0-12.094-1.553-18.493-2.923-24.138-1.161-4.781-2.077-8.557-2.077-17.062 0-57.35-28.714-110.302-76.81-141.646l-8.183-4.69-64.393 269.462 19.926 38.875 134.357 41.236z" fill="#5b362a"/><path id="XMLID_3699_" d="m145.961 54.989c-2.999 2.274-41.041 19.597-67.336 64.982-14.832 25.603-22.672 54.857-22.672 84.604 0 8.506-.916 12.281-2.077 17.062-1.37 5.645-2.923 12.044-2.923 24.138 0 13.746 3.76 21.492 6.504 27.148 2.181 4.491 3.496 7.202 3.496 14.061 0 6.845-1.314 9.552-3.492 14.037-2.747 5.656-6.508 13.402-6.508 27.152 0 13.749 3.761 21.495 6.506 27.151 2.179 4.488 3.494 7.197 3.494 14.049 0 7.13-1.478 10.473-3.717 15.531-2.8 6.326-6.283 14.199-6.283 27.669v1.078l140.01-46.748 27.686-55.988z" fill="#704c55"/><path id="XMLID_347_" d="m201.51 324.026c-2.264 9.142-8.226 33.505-10.547 42.88 5.168 7.607 14.821 27.907 15.747 29.655 0 0 44.417 6.305 49.544 6.401l9.699-34.468-9.522-40.767-28.568-16.81z" fill="#ffbca9"/><path id="XMLID_3430_" d="m304.948 338.081-3.983-15.427-25.345-5.415-24.667 18.594v60.555c.252.005 52.25 5.518 52.25 5.518l8.29-35.33z" fill="#ffa08a"/><path id="XMLID_3454_" d="m254.083 423.892-3.802-3.139-98.414-53.763c-70.562 3.686-125.914 48.478-125.914 119.916v15h225l3.333-33z" fill="#a3e92e"/><path id="XMLID_3452_" d="m252.463 426.406c-.224 0-.924-.009-1.51-.015v75.515h225c0-5.246 0-9.754 0-15 0-71.412-55.344-116.52-126.707-119.959" fill="#23c63d"/><path id="XMLID_3434_" d="m219.764 389.597c-11.776-5.23-21.522-12.057-28.801-22.691-26.858-.058-29.944-.397-39.096.084 1.987 2.455 11.254 13.473 15.809 18.934 18.729 25.713 51.803 40.079 83.277 40.468l9-15.152-9-14.85c-9.974-.116-21.173-2.353-31.189-6.793z" fill="#23c63d"/><path id="XMLID_245_" d="m311.491 366.579c-14.077 19.969-35.814 30.143-60.538 29.81v30.003c35.435.354 65.696-15.5 84.603-41.887l13.69-17.558c-5.179-.243-3.012-.181-37.755-.368z" fill="#20a232"/><path id="XMLID_3609_" d="m249.953 155.833 15-15-15-15" fill="#fcbe00"/><g id="XMLID_2_"><path id="XMLID_3608_" d="m145.961 155.833v74.84c-.17 5.2.21 10.31.939 15.3 7.431 51.03 51.4 89.86 104.061 89.86l15-100.937-7.5-89.064h-60z" fill="#fddccb"/><path id="XMLID_3605_" d="m355.961 155.833-58.5-7.5-46.5 7.5v180c53.12 0 97.03-39.38 104.15-90.49 1.35-9.68.69-13.19.85-89.51z" fill="#ffbca9"/><path id="XMLID_3590_" d="m231.567 234.896c-7.419 7.419-13.794 13.794-21.213 21.213 11.086 11.086 24.869 19.354 40.606 19.354l7.5-16.964-7.5-13c-7.44.001-14.12-5.331-19.393-10.603z" fill="#ffbca9"/><path id="XMLID_3587_" d="m270.354 234.896c-5.267 5.267-11.945 10.604-19.394 10.604v29.964c15.74 0 29.523-8.271 40.607-19.354-7.419-7.42-13.794-13.795-21.213-21.214z" fill="#ffa08a"/><path id="XMLID_3580_" d="m250.961.004-.006-.004-52.496 33-52.498-33v18 107.833l57.5 8.667h55.159l2.341-53.667z" fill="#ffdf60"/><path id="XMLID_3577_" d="m303.458 33-52.497-32.996v125.829l50.146 8.667 54.854-8.667c0-18.532 0-110.036 0-125.833z" fill="#fcbe00"/><path id="XMLID_3442_" d="m145.961 125.833v30h105l10-15-10-15z" fill="#fcbe00"/><g id="XMLID_3425_"><path id="XMLID_3437_" d="m235.961 65.833v30h15l4.667-15.55-4.667-14.45c-5.246 0-15 0-15 0z" fill="#fcbe00"/><path id="XMLID_3_" d="m265.961 65.833s-9.754 0-15 0v30h15z" fill="#fe9002"/></g><path id="XMLID_3421_" d="m250.961 125.833h105v30h-105z" fill="#fe9002"/></g></g></svg>