<svg id="Capa_1" enable-background="new 0 0 512 512" height="512" viewBox="0 0 512 512" width="512" xmlns="http://www.w3.org/2000/svg"><g><path d="m167.697 352.06-37.222 64.47.917 1.684 34.073 19.673 2.138.079 37.222-64.471z" fill="#fed2a4"/><path d="m359.948 264.959h-11.179v50.044c0 2.239-1.822 4.06-4.06 4.06h-4.762v58.375l1.369 1h40.283l1.22-1v-89.611c-.002-12.629-10.241-22.868-22.871-22.868z" fill="#fed2a4"/><g><path d="m460.864 112.396-23.984-13.847c-5.898-3.405-13.44-1.384-16.846 4.514l-4.625 8.01c-2.671 4.627-1.996 10.257 1.265 14.114 1.402 1.658 1.666 3.993.58 5.874l-25.828 44.736-30.769-17.764c3.269 10.825 2.249 22.92-3.838 33.462l-5.131 8.887 32.028 18.492c8.204 4.736 18.693 1.926 23.43-6.278l38.477-66.644c.89-1.541 2.521-2.556 4.299-2.535 4.311.05 8.522-2.164 10.831-6.163l4.624-8.01c3.407-5.9 1.386-13.443-4.513-16.848z" fill="#ffbd86"/><g><path d="m393.028 206.699-33.878-19.915c-.675 1.596-1.442 3.171-2.331 4.709l-5.131 8.887 32.028 18.492c8.204 4.736 18.693 1.926 23.43-6.278l3.608-6.249c-5.212 3.284-12.02 3.648-17.726.354z" fill="#f6a96c"/></g></g><g><path d="m184.437 127.913h-124.065c-4.205 0-7.613-3.409-7.613-7.613s3.409-7.613 7.613-7.613h124.064c4.205 0 7.613 3.409 7.613 7.613s-3.408 7.613-7.612 7.613z" fill="#99e6fc"/></g><g><path d="m151.276 169.078h-106.34c-4.205 0-7.613-3.409-7.613-7.613s3.409-7.613 7.613-7.613h106.341c4.205 0 7.613 3.409 7.613 7.613s-3.409 7.613-7.614 7.613z" fill="#99e6fc"/></g><g><path d="m136.412 210.242h-54.886c-4.205 0-7.613-3.409-7.613-7.613s3.409-7.613 7.613-7.613h54.886c4.205 0 7.613 3.409 7.613 7.613s-3.409 7.613-7.613 7.613z" fill="#99e6fc"/></g><g><g><path d="m437.471 71.732-2.663-2.71-49.653-28.667c-.925-.534-1.977-.816-3.043-.816-1.765 0-3.44.763-4.597 2.093l-8.94 10.276-5.785-3.34c-2.12-1.224-4.527-1.871-6.962-1.871-4.974 0-9.607 2.673-12.092 6.976l-4.219 7.307c-3.226 5.589-2.204 12.545 2.361 16.964l-14.824 14.406-.026 1.44-13.657 23.655 27.927 16.124c.597.345 1.181.704 1.755 1.073l5.679-9.837c.947-1.641 3.045-2.203 4.686-1.255l7.861 4.539c16.818 9.71 37.988 5.021 49.265-10.231 1.049-1.419 2.973-1.86 4.501-.978l8.283 4.782c2.425 1.4 5.416-.539 5.127-3.324l-2.431-23.483c-.188-1.821.203-3.654 1.118-5.239z" fill="#fed2a4"/></g><g><path d="m392.697 99.712c-1.292 0-2.6-.329-3.799-1.021-3.642-2.102-4.889-6.758-2.787-10.399l6.289-10.893c2.102-3.642 6.757-4.891 10.399-2.787 3.642 2.102 4.889 6.758 2.787 10.399l-6.289 10.893c-1.409 2.442-3.969 3.808-6.6 3.808z" fill="#bb5d4c"/></g><g><path d="m337.655 20.501-20.671 35.802c-7.578 13.126-3.081 29.909 10.045 37.488l16.337-15.877c-4.785-3.947-6.174-10.875-2.969-16.425l4.219-7.307c3.571-6.186 11.481-8.305 17.667-4.734l6.509 3.758 9.489-10.907c1.594-1.833 4.263-2.279 6.367-1.064l52.823 30.497 18.332-13.939c5.828-4.432 5.262-13.37-1.079-17.031l-61.079-35.264c-19.604-11.318-44.671-4.601-55.99 15.003z" fill="#bb5d4c"/></g><g><g><path d="m338.833 69.93c-.387-2.468-.07-5.059 1.053-7.454.606-2.111 1.472-4.184 2.62-6.172l20.671-35.803c5.258-9.107 13.485-15.428 22.751-18.457-18.05-5.941-38.396 1.349-48.273 18.457l-20.671 35.803c-7.578 13.126-3.081 29.909 10.045 37.488l13.826-13.436c-1.339-3.302-2.031-6.845-2.022-10.426z" fill="#a44f3e"/></g></g></g><path d="m341.807 132.69-32.105-18.536c-3.508-2.025-7.716-1.708-10.842.449l17.036 9.836c9.396 5.424 13.092 17.732 8.24 27.436-3.25 6.022-9.553 9.781-16.436 9.781-3.215 0-6.4-.846-9.213-2.446l-19.961-11.358-59.069 102.311 1.209 1.87 24.147 13.941h67.886l2.88-1.015 42.122-72.958c11.988-20.766 4.872-47.321-15.894-59.311z" fill="#62dbfb"/><g fill="#01d0fb"><path d="m315.896 124.439c1.823 1.053 3.425 2.37 4.799 3.872l1.122-1.93c.815-1.412 1.924-2.545 3.198-3.385l-15.313-8.841c-3.508-2.025-7.716-1.708-10.842.449z"/><path d="m298.486 159.209-19.961-11.358-59.069 102.311 1.209 1.87 21.059 12.158 60.141-103.482c-1.168-.385-2.301-.885-3.379-1.499z"/></g><g><g><path d="m120.77 379.153h74.445v20.568h-74.445z" fill="#ffbd86" transform="matrix(.5 -.866 .866 .5 -258.266 331.544)"/></g></g><path d="m118.708 439.577 30.287 26.426 2.119.522 16.489-28.559-37.128-21.436-12.281 21.271z" fill="#dff6fd"/><g><path d="m133.686 451.319 14.261-24.701-17.472-10.088-12.281 21.271z" fill="#c8effe"/></g><g><path d="m360.142 377.439v-112.475c-.065 0-.129-.005-.194-.005h-11.179v50.044c0 2.239-1.822 4.06-4.06 4.06h-4.762v58.375h20.195z" fill="#ffbd86"/></g><path d="m381.495 407.208 1.322-1v-28.769h-42.871v28.769l1.231 1z" fill="#dff6fd"/><path d="m339.946 377.439h20.195v28.769h-20.195z" fill="#c8effe"/><g><path d="m339.946 437.879v-31.671h57.754c15.56 0 28.173 12.614 28.173 28.173 0 4.735-3.838 8.573-8.573 8.573h-72.278c-2.803 0-5.076-2.272-5.076-5.075z" fill="#54469c"/></g><g><path d="m345.022 442.954h15.12v-36.747h-20.195v31.671c-.001 2.804 2.272 5.076 5.075 5.076z" fill="#463b84"/></g><path d="m220.456 294.638v-41.472l-1-3.003-55.032 95.318c-1.402 2.428-.57 5.532 1.858 6.933l38.944 22.484c2.428 1.401 5.532.57 6.933-1.858l30.578-52.962-.377-1.131c-12.289-1.273-21.904-11.689-21.904-24.309z" fill="#fac600"/><g><path d="m198.408 345.481 23.306-40.367c-1.446-3.196-2.258-6.74-2.258-10.476v-44.475l-55.032 95.318c-1.402 2.427-.57 5.532 1.858 6.933l38.944 22.484c2.428 1.402 5.532.57 6.933-1.858l5.958-10.32-17.851-10.307c-2.428-1.4-3.259-4.505-1.858-6.932z" fill="#e8b800"/></g><path d="m245.083 264.959-25.628-14.796v44.475c0 14.051 11.39 25.441 25.441 25.441h99.812c2.803 0 5.075-2.272 5.075-5.075v-50.044h-104.7z" fill="#e8b800"/><path d="m261.73 303c-14.051 0-25.441-11.39-25.441-25.441v-17.677l-16.833-9.719v44.475c0 14.051 11.39 25.441 25.441 25.441h99.812c2.803 0 5.075-2.272 5.075-5.075v-12.004z" fill="#d7aa02"/><g><path d="m316.396 123.573-58.109-33.549c-8.204-4.736-18.694-1.926-23.43 6.278l-46.717 80.915c-.975 1.688-2.835 2.72-4.774 2.52-4.686-.484-9.437 1.748-11.945 6.093l-4.624 8.01c-3.405 5.898-1.385 13.441 4.514 16.846l23.985 13.848c5.898 3.405 13.44 1.384 16.846-4.514l4.624-8.01c2.484-4.302 2.075-9.473-.616-13.279-1.154-1.632-1.285-3.774-.286-5.505l34.713-60.125 47.415 26.978c9.593 5.458 21.798 1.957 27.038-7.757 5.072-10.142 1.186-23.08-8.634-28.749z" fill="#fed2a4"/></g><g><path d="m179.124 204.896 4.749-8.225c2.576-4.461 7.454-6.754 12.266-6.256 1.991.206 3.901-.854 4.902-2.587l47.973-83.092c4.395-7.612 13.608-10.68 21.559-7.618l-12.287-7.094c-8.204-4.736-18.694-1.926-23.43 6.278l-46.717 80.915c-.975 1.688-2.835 2.72-4.774 2.52-4.686-.484-9.437 1.748-11.945 6.093l-4.624 8.01c-3.405 5.898-1.385 13.441 4.514 16.846l6.538 3.775c-.822-3.12-.464-6.551 1.276-9.565z" fill="#ffbd86"/></g><path d="m96.021 472.83 28.937 24.944h59.259v-3.508c0-9.868-7.269-18.229-17.041-19.6l-6.549-.919c-.961-.135-1.861-.546-2.592-1.184l-39.839-34.761-23.006 27.753c-1.84 2.22-1.463 5.526.831 7.275z" fill="#54469c"/><path d="m96.021 472.83 28.937 24.944h25.543l-28.937-24.944c-2.293-1.749-2.671-5.054-.83-7.275l12.284-14.82-14.823-12.933-23.005 27.753c-1.84 2.22-1.463 5.526.831 7.275z" fill="#463b84"/><g><path d="m467.178 512h-413.403c-4.142 0-7.5-3.358-7.5-7.5s3.358-7.5 7.5-7.5h413.403c4.142 0 7.5 3.358 7.5 7.5s-3.358 7.5-7.5 7.5z" fill="#8bc727"/></g></g></svg>