<svg id="Capa_1" enable-background="new 0 0 512 512" height="512" viewBox="0 0 512 512" width="512" xmlns="http://www.w3.org/2000/svg"><g><path d="m379.5 288.246h4c8.008 0 14.5-6.492 14.5-14.5 0-8.008-6.492-14.5-14.5-14.5h-4z" fill="#fac600"/><g><path d="m319.528 116.388-11.241-16.143v-8.079l-4.621-1h-51.439c-.552 0-1 .448-1 1v44.225c0 1.109-.436 2.135-1.227 2.888-.753.717-1.771 1.129-2.793 1.129-.091 0-.183-.003-.274-.01-.024-.001-.048-.002-.072-.002-.389 0-.746.227-.909.584-.173.38-.093.828.203 1.123l10.818 10.817c3.235 3.235 5.623 7.088 7.068 11.29l15.243-15.243h14.005c8.284 0 15-6.716 15-15v-4.722c0-2.761 2.239-5 5-5h2.138c4.038.001 6.41-4.542 4.101-7.857z" fill="#fed2a4"/><path d="m302.201 69.659 6.086-1c0-26.738-21.675-48.413-48.413-48.413h-12.461c-26.738 0-48.413 21.675-48.413 48.413l6.635 1z" fill="#54469c"/><g><path d="m213 315.003v36.412l54.765-49.328h-45.115l-9.904 9.904c.234 1.812.254 2.976.254 3.012z" fill="#ffbd86"/><g><path d="m288.273 239.217h-53.42v37.873h12.795l-11.998 11.998h46.547l18.164-16.36c4.182-3.474 6.848-8.712 6.848-14.574 0-10.46-8.477-18.937-18.936-18.937z" fill="#ffbd86"/></g></g><path d="m213.554 238.25-24.913 24.913 24.718 24.717-1.207 1.208h23.702v-50.838z" fill="#81b823"/><path d="m56.561 477.754h63.592c28.847-12.352 49.061-40.991 49.061-74.357 0-44.655-36.2-80.857-80.858-80.857-44.656 0-80.856 36.202-80.856 80.857 0 33.366 20.214 62.006 49.061 74.357z" fill="#54469c"/><path d="m56.561 477.754h33.826c-8.287-3.548-15.863-8.437-22.454-14.397-24.941-8.519-42.933-32.17-42.933-59.96s17.992-51.441 42.933-59.96c10.36-9.368 23.146-16.104 37.316-19.116-5.45-1.159-11.098-1.781-16.893-1.781-44.656 0-80.856 36.202-80.856 80.857 0 33.366 20.214 62.006 49.061 74.357z" fill="#463b84"/><g><path d="m88.356 459.254c-30.799 0-55.856-25.058-55.856-55.857s25.057-55.857 55.856-55.857c30.8 0 55.857 25.057 55.857 55.857s-25.057 55.857-55.857 55.857z" fill="#fff"/><path d="m88.356 466.754c-34.935 0-63.356-28.421-63.356-63.357 0-34.935 28.421-63.357 63.356-63.357 34.936 0 63.357 28.422 63.357 63.357.001 34.936-28.421 63.357-63.357 63.357zm0-111.714c-26.664 0-48.356 21.693-48.356 48.357 0 26.665 21.692 48.357 48.356 48.357 26.665 0 48.357-21.693 48.357-48.357.001-26.664-21.692-48.357-48.357-48.357z" fill="#aca6d6"/></g><path d="m379.989 477.754h63.591c28.847-12.352 49.061-40.991 49.061-74.357 0-44.655-36.2-80.857-80.856-80.857s-80.857 36.202-80.857 80.857c0 33.366 20.214 62.006 49.061 74.357z" fill="#54469c"/><path d="m379.989 477.754h28.159c-10.384-4.435-19.658-10.966-27.271-19.08-19.343-10.859-32.449-31.561-32.449-55.278 0-23.716 13.106-44.418 32.449-55.277 11.717-12.487 27.349-21.259 44.944-24.341-4.561-.799-9.246-1.239-14.036-1.239-44.656 0-80.857 36.202-80.857 80.857 0 33.367 20.214 62.007 49.061 74.358z" fill="#463b84"/><g><circle cx="411.784" cy="403.397" fill="#fff" r="55.857"/></g><g><g><path d="m411.784 466.754c-34.935 0-63.356-28.422-63.356-63.357s28.421-63.357 63.356-63.357 63.356 28.422 63.356 63.357c.001 34.936-28.421 63.357-63.356 63.357zm0-111.714c-26.664 0-48.356 21.693-48.356 48.357 0 26.665 21.692 48.357 48.356 48.357s48.356-21.693 48.356-48.357c.001-26.664-21.692-48.357-48.356-48.357z" fill="#aca6d6"/></g></g><g fill="#fd4755"><path d="m380.5 294.28v-57.58c-1.671 1.153-3.693 1.832-5.873 1.832h-2.354c-.545 1.57-1.383 3.04-2.525 4.334-1.195 1.355-2.648 2.423-4.249 3.173v42.048h-152.347l-7.336 7.336.591.702c1.808 2.148 3.121 4.578 4.074 6.961h126.279l-80.508 83.759c4.766 1.956 8.791 5.35 11.539 9.64l89.775-93.4h10.163l32.034 89.045c3.013-3.213 7.281-5.235 12.023-5.235.709 0 1.402.06 2.087.147z"/><g><path d="m105.968 395.897 70.42-73.262-10.609-10.609-72.649 75.581c6.777 2.053 11.726 8.352 11.726 15.79 0 2.702-.665 5.247-1.821 7.5h79.037v-15z"/><path d="m213 395.897v10.659l.983.016c2.858.047 5.573.703 8.035 1.827.27-4.615 1.792-8.898 4.248-12.503h-13.266z"/></g></g><g><path d="m272.711 409.866c0 14.289-11.585 25.874-25.875 25.874s-25.874-11.585-25.874-25.874c0-14.29 11.584-25.875 25.874-25.875s25.875 11.585 25.875 25.875z" fill="#62dbfb"/></g><g><path d="m246 409.866c0-9.748 5.393-18.233 13.355-22.645-3.71-2.056-7.977-3.23-12.519-3.23-14.29 0-25.874 11.585-25.874 25.875 0 14.289 11.584 25.874 25.874 25.874 4.542 0 8.809-1.174 12.519-3.23-7.962-4.411-13.355-12.897-13.355-22.644z" fill="#01d0fb"/></g><path d="m213.646 406.554c.119 0 .235.016.354.018v-91.578s-.12-12.281-7.491-20.263l-25.437 25.437v85.386l1.319 1z" fill="#fed2a4"/><path d="m198.072 303.168-17 17v85.386h17z" fill="#ffbd86"/><path d="m228.053 91.167-3.053 1v17.71c0 12.426 9.075 23.497 19.415 30.656 3.3 2.285 7.812-.128 7.812-4.141v-45.225z" fill="#883f2e"/><g><path d="m235 430.246c0 2.75-2.25 5-5 5h-43.928c-2.75 0-5-2.25-5-5v-24.691h32.574c11.793 0 21.354 9.56 21.354 21.354z" fill="#fac600"/></g><g><path d="m198.072 405.554h-17v24.691c0 2.75 2.25 5 5 5h12z" fill="#e8b800"/></g><path d="m222.862 188.534c-3.396-3.396-5.266-7.911-5.266-12.713s1.87-9.317 5.266-12.713 7.911-5.266 12.713-5.266c4.803 0 9.317 1.87 12.713 5.266l17.589 17.589c2.257-9.925-.472-20.754-8.2-28.482l-15.985-15.985c-8.386-8.386-22.108-8.386-30.494 0l-74.037 74.036c.034.033.063.068.096.101l52.797 52.796 53.717-53.718z" fill="#fd4755"/><g><path d="m243.365 137.901-1.672-1.672c-8.386-8.386-22.108-8.386-30.494 0l-74.037 74.036v.005l52.894 52.893 16.919-16.919-28.904-28.907c-3.905-3.905-3.905-10.237 0-14.142z" fill="#fb2b3a"/></g><g><g><path d="m214.773 287.88-77.516-77.514c-.033-.033-.062-.068-.097-.102l-22.031 22.032c-8.386 8.386-8.386 22.109 0 30.494l62.367 62.367z" fill="#8bc727"/></g></g><g><path d="m148.356 262.791c-8.386-8.385-8.386-22.108 0-30.494l5.416-5.416-16.514-16.514c-.033-.033-.062-.068-.097-.102l-22.031 22.032c-8.386 8.386-8.386 22.109 0 30.494l62.367 62.367 16.613-16.614z" fill="#81b823"/></g><g><path d="m208.923 39.305c-6.221 8.144-9.923 18.314-9.923 29.354h52.125c-7.097-16.615-23.216-28.452-42.202-29.354z" fill="#463b84"/></g><g><path d="m199 68.659 26 23.508h83.287v-23.508z" fill="#c2bce0"/></g><g><path d="m199 68.659 26 23.508h34l-26-23.508z" fill="#aca6d6"/></g><g><path d="m287.804 117.656c-4.142 0-7.5-3.358-7.5-7.5v-6.974c0-4.142 3.358-7.5 7.5-7.5s7.5 3.358 7.5 7.5v6.974c0 4.142-3.358 7.5-7.5 7.5z" fill="#bb5d4c"/></g></g><g><path d="m374.627 191.246h-8.53c-5.6 0-10.245 4.052-11.188 9.382h-69.101l3.824 3.824-25.427 25.427-1.205-1.206v1.478h84.637c.542-1.632 1.402-3.157 2.584-4.496 2.472-2.802 6.03-4.409 9.764-4.409.562 0 1.134.036 1.699.107 5.769.728 10.483 5.444 11.209 11.213.307 2.442-.052 4.821-1.006 6.966h2.74c6.281 0 11.373-5.092 11.373-11.373v-25.541c0-6.281-5.092-11.372-11.373-11.372z" fill="#fed2a4"/><g><g><path d="m356.367 220.737c-.705-1.17-1.21-2.474-1.457-3.869h-77.695l-13.01 13.01-1.205-1.205v1.478h83.604c1.409-4.592 5.102-8.169 9.763-9.414z" fill="#ffbd86"/></g></g><g><path d="m291.047 204.451-42.051-42.051c-7.412-7.412-19.429-7.412-26.841 0-7.412 7.412-7.412 19.429 0 26.841l42.051 42.051z" fill="#f2fbff"/></g><g><path d="m247.559 189.241c-7.412-7.412-7.412-19.429 0-26.841.231-.231.479-.433.718-.649-7.45-6.734-18.942-6.532-26.123.649-7.412 7.412-7.412 19.429 0 26.841l42.051 42.051 12.702-12.702z" fill="#dff6fd"/></g></g><g><path d="m88.357 420.897c-9.649 0-17.5-7.851-17.5-17.5s7.85-17.5 17.5-17.5 17.5 7.85 17.5 17.5-7.851 17.5-17.5 17.5z" fill="#62dbfb"/></g><g><path d="m87 403.397c0-6.738 3.833-12.588 9.428-15.512-2.418-1.263-5.16-1.988-8.072-1.988-9.649 0-17.5 7.85-17.5 17.5s7.85 17.5 17.5 17.5c2.912 0 5.654-.725 8.072-1.988-5.595-2.923-9.428-8.774-9.428-15.512z" fill="#01d0fb"/></g><g><ellipse cx="411.784" cy="403.397" fill="#62dbfb" rx="17.5" ry="17.5" transform="matrix(.077 -.997 .997 .077 -22.283 782.714)"/></g><g><path d="m411 403.397c0-6.638 3.696-12.412 9.142-15.378-2.484-1.353-5.331-2.122-8.358-2.122-9.665 0-17.5 7.835-17.5 17.5s7.835 17.5 17.5 17.5c3.027 0 5.874-.77 8.358-2.122-5.446-2.966-9.142-8.74-9.142-15.378z" fill="#01d0fb"/></g><g><path d="m373.885 232.441c1.154 9.169-6.558 16.877-15.727 15.72-6.246-.789-11.289-5.835-12.074-12.081-1.153-9.168 6.557-16.875 15.724-15.719 6.247.788 11.291 5.833 12.077 12.08z" fill="#62dbfb"/></g><path d="m358.115 236.08c-.798-6.344 2.651-11.984 7.887-14.476-1.304-.624-2.713-1.056-4.193-1.243-9.168-1.157-16.877 6.55-15.724 15.719.786 6.247 5.828 11.292 12.074 12.081 2.824.357 5.508-.133 7.839-1.243-4.201-2.01-7.284-6.071-7.883-10.838z" fill="#01d0fb"/><path d="m504.5 491.754h-497c-4.142 0-7.5-3.358-7.5-7.5s3.358-7.5 7.5-7.5h497c4.142 0 7.5 3.358 7.5 7.5s-3.358 7.5-7.5 7.5z" fill="#8bc727"/><g><path d="m142.927 144.099h-113.427c-4.142 0-7.5 3.358-7.5 7.5s3.358 7.5 7.5 7.5h113.427c4.142 0 7.5-3.358 7.5-7.5s-3.358-7.5-7.5-7.5z" fill="#01d0fb"/><path d="m110.26 184.651h-102.76c-4.142 0-7.5 3.358-7.5 7.5s3.358 7.5 7.5 7.5h102.76c4.142 0 7.5-3.358 7.5-7.5s-3.358-7.5-7.5-7.5z" fill="#62dbfb"/><path d="m87.5 225.204h-54c-4.142 0-7.5 3.358-7.5 7.5s3.358 7.5 7.5 7.5h54c4.142 0 7.5-3.358 7.5-7.5s-3.358-7.5-7.5-7.5z" fill="#01d0fb"/></g></g></svg>