<svg id="Capa_1" enable-background="new 0 0 512 512" height="512" viewBox="0 0 512 512" width="512" xmlns="http://www.w3.org/2000/svg"><g><path d="m352.206 434.287.73-1.576-37.566-65.067-33.433 20.587 37.01 64.103 2.048-.027z" fill="#fed2a4"/><path d="m195.426 385.937-33.26-20.885-31.752 54.995.451 1.415 32.172 18.575 1.366-.366z" fill="#fed2a4"/><g><path d="m165.642 43.619v-15.009c0-1.548.331-3.019.917-4.353-17.076.903-47.786 8.431-58.481 49.325-7.838 29.967-20.214 45.123-30.321 52.772-3.901 2.952-1.891 9.174 3 9.16 20.895-.061 52.33-5.039 63.801-32.569 11.384-27.321 15.128-44.07 22.632-53.766-.976-1.629-1.548-3.527-1.548-5.56z" fill="#fac600"/><path d="m165.642 28.61c0-1.548.331-3.019.917-4.353-17.076.903-47.786 8.431-58.481 49.325-7.838 29.967-20.214 45.123-30.321 52.772-3.901 2.952-1.891 9.174 3 9.16 3.897-.011 8.16-.195 12.592-.662.321-.509.737-.984 1.277-1.392 10.107-7.649 22.484-22.805 30.321-52.772 7.544-28.844 25.043-41.08 40.694-46.109v-5.969z" fill="#e8b800"/><path d="m188.649 38.415c0-8.071 2.577-15.547 6.94-21.666h-19.086c-6.551 0-11.861 5.311-11.861 11.861v15.009c0 6.551 5.31 11.861 11.861 11.861h12.146z" fill="#fd4755"/><g><path d="m164.686 27.74c-.021.288-.044.576-.044.87v15.009c0 6.551 5.31 11.861 11.861 11.861h12.146v-16.749h-12.146c-6.257 0-11.37-4.848-11.817-10.991z" fill="#fb2b3a"/></g><path d="m362.542 147.244-17.616-17.616c-4.332-4.332-11.356-4.332-15.688 0l-5.883 5.883c-4.16 4.16-4.314 10.794-.485 15.152l-27.276 27.276c2.021 4.892 2.583 10.315 1.522 15.711-1.616 8.217-6.801 15.011-14.225 18.639-.412.202-.83.396-1.252.581-.363.16-.599.519-.599.916v15.521c3.227-.762 6.293-2.381 8.81-4.898l53.684-53.684c4.205 2.279 9.57 1.646 13.124-1.908l5.883-5.883c4.333-4.334 4.333-11.358.001-15.69z" fill="#fed2a4"/><path d="m344.925 129.628c-4.332-4.332-11.356-4.332-15.688 0l-5.883 5.883c-4.16 4.16-4.313 10.794-.485 15.151l-26.524 26.524c2.605 6.085 2.941 12.809 1.193 18.947l38.649-38.649c1.478-1.478 1.785-3.698.943-5.612-1.788-4.062-1.024-8.974 2.304-12.302l5.883-5.883c.633-.633 1.328-1.162 2.059-1.61z" fill="#ffbd86"/><g><g><path d="m146.057 429.079 31.416-54.415-15.307-9.612-31.752 54.995z" fill="#ffbd86"/></g><path d="m148.577 462.878 2.32.185 13.506-23.392-33.989-19.624-13.506 23.393.725 1.573z" fill="#dff6fd"/><g><path d="m117.977 427.228h27.011v18.063h-27.011z" fill="#c8effe" transform="matrix(.5 -.866 .866 .5 -312.07 331.997)"/></g><path d="m214.969 293.875v-1h-17.606l-38.99 67.532c-.819 1.418-.369 3.231 1.018 4.102l44.479 27.93c1.462.918 3.394.439 4.257-1.056l31.647-54.815z" fill="#62dbfb"/><path d="m186.367 358.819 33.063-57.267-4.461-7.677v-1h-17.606l-38.99 67.532c-.819 1.418-.369 3.231 1.018 4.102l44.479 27.93c1.462.918 3.394.439 4.257-1.056l6.541-11.329-27.284-17.132c-1.386-.873-1.836-2.685-1.017-4.103z" fill="#01d0fb"/><path d="m108.879 477.648 34.858 20.125h15.534l2.469-4.276c5.781-10.013 2.35-22.818-7.663-28.599l-37.168-21.459-11.745 20.342c-2.803 4.856-1.14 11.064 3.715 13.867z" fill="#54469c"/><g><path d="m116.908 443.44-11.745 20.342c-2.803 4.855-1.14 11.063 3.715 13.866l7.388 4.265 16.82-29.133z" fill="#463b84"/></g></g><g><g><path d="m318.947 452.334 16.456-9.5-37.424-64.481-16.042 9.878z" fill="#ffbd86"/></g><path d="m365.901 457.09.333-1.347-13.298-23.032-33.989 19.623 13.298 23.033 1.48.3z" fill="#dff6fd"/><path d="m335.403 442.834-16.456 9.5 13.298 23.033 16.508-9.531z" fill="#c8effe"/><g><path d="m319.239 362.979-40.475-70.104h-65.533l57.85 99.566c.86 1.481 2.772 1.961 4.23 1.063l42.888-26.409c1.403-.865 1.864-2.689 1.04-4.116z" fill="#01d0fb"/></g><g><path d="m238.743 292.874h-25.512l57.85 99.566c.86 1.481 2.772 1.961 4.23 1.063l16.129-9.932z" fill="#01c0fa"/></g><path d="m360.716 497.773 39.318-22.7c2.391-1.381 3.211-4.439 1.83-6.83l-3.852-6.672c-5.781-10.013-18.585-13.444-28.599-7.663l-37.168 21.459 12.936 22.407h15.535z" fill="#54469c"/><path d="m360.716 497.773 4.494-2.594-16.886-29.095-16.079 9.283 12.937 22.406z" fill="#463b84"/></g><g><g><path d="m299.611 66.884-7.865-10.862c-.983-1.357-1.512-2.99-1.512-4.665v-18.907l-2.465-1.015h-52.889c-2.983 0-5.563 2.125-6.134 5.054l-2.278 11.695h-6.044c-7.088 0-12.855 5.766-12.855 12.855v7.724c0 5.917 3.981 10.977 9.615 12.43l-5.078 17.922.665 1.377v27.546c3.719-1.58 7.808-2.455 12.097-2.455h6.184c4.493 0 8.911.695 13.123 1.999v-12.435c0-1.734 1.406-3.14 3.14-3.14h15.634c17.778 0 25.092-13.408 27.051-30.662.182-1.605 1.505-2.835 3.121-2.835h.554c5.983-.001 9.445-6.781 5.936-11.626z" fill="#fed2a4"/></g><g><path d="m231.053 124.568h-6.184c-17.702 0-32.053 14.351-32.053 32.053v132.193c0 2.803 2.272 5.075 5.075 5.075h79.075c2.803 0 5.075-2.272 5.075-5.075v-75.029c.435-.191.865-.39 1.29-.598 16.509-8.07 20.351-29.974 8.127-43.695l-26.465-29.705c-8.624-9.682-20.974-15.219-33.94-15.219z" fill="#fe7701"/></g><g fill="#f46700"><path d="m218.193 221.692v-24.481l-12.241 12.24z"/><path d="m213.806 149.235c1.922-1.922 4.166-3.317 6.554-4.217 3.611-9.288 11.429-16.474 21.113-19.224-3.387-.798-6.879-1.225-10.421-1.225h-6.184c-17.702 0-32.053 14.351-32.053 32.053v13.605z"/><path d="m218.193 288.814v-26.396l-25.377-25.377v51.773c0 2.803 2.272 5.075 5.075 5.075h25.377c-2.803.001-5.075-2.272-5.075-5.075z"/></g><g><path d="m264.064 76.502c-4.143 0-7.5-3.358-7.5-7.5v-11.343c0-4.142 3.357-7.5 7.5-7.5s7.5 3.358 7.5 7.5v11.343c0 4.142-3.357 7.5-7.5 7.5z" fill="#bb5d4c"/></g><g><path d="m187.649 38.415v32.39c0 11.638 6.998 22.134 17.74 26.61l7.383 3.076 5.685-20.066c-5.6-.939-9.872-5.796-9.872-11.663v-7.724c0-6.539 5.301-11.84 11.84-11.84h6.88l2.438-12.515c.479-2.459 2.633-4.233 5.137-4.233h55.354l4.275-10.195c4.435-10.575-3.332-22.255-14.8-22.255h-53.645c-21.216 0-38.415 17.199-38.415 38.415z" fill="#fac600"/></g><g><path d="m214.574 79.044c-3.576-2.034-5.99-5.872-5.99-10.281v-7.724c0-3.89 1.885-7.331 4.781-9.49v-13.134c.001-21.216 17.2-38.415 38.416-38.415h-25.717c-21.216 0-38.415 17.199-38.415 38.415v32.39c0 11.638 6.998 22.134 17.74 26.611l7.383 3.076 4.371-15.426c-1.079-1.894-1.94-3.914-2.569-6.022z" fill="#e8b800"/></g></g><g><path d="m272.526 263.084-5.883-5.883c-3.863-3.863-9.86-4.271-14.187-1.246l-46.504-46.504-.896-.519-4.832 4.832c-.335.335-.78.519-1.254.519s-.919-.184-1.254-.519l-21.569-21.569-3.359-1.944-.308.308c-7.22 7.22-7.22 18.927 0 26.147l59.612 59.612c-3.026 4.326-2.617 10.324 1.246 14.187l5.883 5.883c4.332 4.332 11.356 4.332 15.688 0l17.616-17.616c4.333-4.332 4.333-11.355.001-15.688z" fill="#fed2a4"/><path d="m255.989 293.297-5.883-5.883c-3.11-3.11-3.981-7.605-2.623-11.496.642-1.84.184-3.884-1.194-5.262l-57.041-57.041c-3.41-3.41-5.194-7.821-5.383-12.287l-11.076-11.076-.308.308c-7.22 7.22-7.22 18.927 0 26.147l59.612 59.612c-3.026 4.327-2.617 10.324 1.246 14.187l5.883 5.883c4.332 4.332 11.356 4.332 15.688 0l2.157-2.157c-.372-.288-.736-.593-1.078-.935z" fill="#ffbd86"/><g><path d="m200.931 214.472 39.056-39.056c7.23-7.23 7.23-18.951 0-26.181-7.23-7.23-18.951-7.23-26.181 0l-41.017 41.017 24.22 24.22c1.083 1.083 2.839 1.083 3.922 0z" fill="#fff"/></g><g><path d="m198.605 190.252 41.017-41.017c.059-.059.123-.107.182-.165-7.243-7.055-18.828-7.006-25.999.165l-41.017 41.017 24.22 24.22c1.083 1.083 2.839 1.083 3.922 0l10.947-10.947z" fill="#f2fbff"/></g></g></g><g><path d="m472.376 512h-432.752c-4.205 0-7.613-3.409-7.613-7.613s3.409-7.613 7.613-7.613h432.751c4.205 0 7.613 3.409 7.613 7.613s-3.407 7.613-7.612 7.613z" fill="#8bc727"/></g></g></svg>