<svg id="Capa_1" enable-background="new 0 0 512 512" height="512" viewBox="0 0 512 512" width="512" xmlns="http://www.w3.org/2000/svg"><g><g><path d="m416.71 156.29h-20.71c-3.241 0-6.181-1.286-8.358-3.365l-29.739 50.86-38.834-22.138c6.718 5.234 11.052 13.393 11.052 22.55v26.57l20.748 11.828c7.485 4.267 17.057 1.735 21.378-5.656l47.372-81.016c-.934.231-1.905.367-2.909.367z" fill="#fed2a4"/><path d="m124.358 152.925c-2.177 2.079-5.118 3.365-8.358 3.365h-20.71c-1.004 0-1.975-.136-2.909-.368l47.372 81.016c4.322 7.391 13.893 9.923 21.378 5.656l20.748-11.828v-26.57c0-9.157 4.333-17.316 11.052-22.55l-38.834 22.138z" fill="#fed2a4"/><g><path d="m150.822 234.15-45.526-77.859h-10.006c-1.004 0-1.975-.136-2.909-.368l47.372 81.016c4.322 7.391 13.893 9.923 21.378 5.656l1.465-.835c-4.753-.542-9.198-3.204-11.774-7.61z" fill="#ffbd86"/></g></g><g fill="#c2bce0"><g><path d="m126.624 149.994h92.473c-4.372-5.479-6.994-12.411-6.994-19.949v-3.302h-10.085c-3.145 0-6.073-.927-8.547-2.503h-66.848c.952 1.73 1.496 3.714 1.496 5.823v14.108c.001 2.109-.543 4.093-1.495 5.823z"/><path d="m383.88 130.062c0-2.11.544-4.094 1.496-5.823h-66.848c-2.474 1.577-5.402 2.503-8.547 2.503h-10.085v3.302c0 7.538-2.622 14.471-6.994 19.949h92.473c-.952-1.729-1.496-3.714-1.496-5.823v-14.108z"/></g><path d="m84.666 124.239h-30.891v25.755h30.89c-.952-1.729-1.496-3.714-1.496-5.823v-14.108c.001-2.11.545-4.094 1.497-5.824z"/><path d="m427.334 149.994h30.89v-25.755h-30.891c.952 1.73 1.496 3.714 1.496 5.823v14.108c.001 2.11-.543 4.094-1.495 5.824z"/></g><path d="m202.019 94.81h10.085v-10.335c0-7.969 6.483-14.453 14.453-14.453h58.887c7.97 0 14.453 6.483 14.453 14.453v10.335h10.085c3.276 0 6.323.994 8.86 2.693v-32.403c0-22.868-18.538-41.406-41.406-41.406h-42.871c-22.868 0-41.406 18.538-41.406 41.406v32.404c2.537-1.699 5.584-2.694 8.86-2.694z" fill="#fac600"/><g><path d="m202.019 93.811h9.085v-9.336c0-8.389 6.688-15.2 15.021-15.431v-3.944c0-22.868 18.538-41.406 41.406-41.406h-32.966c-22.868 0-41.406 18.538-41.406 41.406v31.228c2.581-1.586 5.608-2.517 8.86-2.517z" fill="#e8b800"/></g><g><g><path d="m25.526 90.525h-20.375c-2.845 0-5.151 2.306-5.151 5.151v82.88c0 2.845 2.306 5.151 5.151 5.151h20.375z" fill="#fac600"/><path d="m0 153.168v25.389c0 2.845 2.306 5.151 5.151 5.151h20.375v-25.389h-20.375c-2.845-.001-5.151-2.307-5.151-5.151z" fill="#e8b800"/><g><path d="m49.625 212.116h-19.948c-2.845 0-5.151-2.306-5.151-5.151v-139.698c0-2.845 2.306-5.151 5.151-5.151h19.947c2.845 0 5.151 2.306 5.151 5.151v139.698c0 2.845-2.306 5.151-5.15 5.151z" fill="#01d0fb"/></g><g><path d="m37.602 206.965v-139.698c0-2.845 2.306-5.151 5.151-5.151h-13.076c-2.845 0-5.151 2.306-5.151 5.151v139.698c0 2.845 2.306 5.151 5.151 5.151h13.075c-2.844 0-5.15-2.306-5.15-5.151z" fill="#01c0fa"/></g></g><g><path d="m506.849 90.526h-20.375v93.182h20.375c2.845 0 5.151-2.306 5.151-5.151v-82.88c0-2.845-2.306-5.151-5.151-5.151z" fill="#fac600"/><path d="m506.849 158.318h-20.375v25.389h20.375c2.845 0 5.151-2.306 5.151-5.151v-25.389c0 2.845-2.306 5.151-5.151 5.151z" fill="#e8b800"/><g><path d="m462.376 62.116h19.947c2.845 0 5.151 2.306 5.151 5.151v139.698c0 2.845-2.306 5.151-5.151 5.151h-19.947c-2.845 0-5.151-2.306-5.151-5.151v-139.698c0-2.844 2.306-5.151 5.151-5.151z" fill="#01d0fb"/></g><g><path d="m470.3 206.965v-139.698c0-2.845 2.306-5.151 5.151-5.151h-13.075c-2.845 0-5.151 2.306-5.151 5.151v139.698c0 2.845 2.306 5.151 5.151 5.151h13.075c-2.845 0-5.151-2.306-5.151-5.151z" fill="#01c0fa"/></g></g></g><g><g><path d="m416.71 157.291h-20.71c-7.246 0-13.12-5.874-13.12-13.12v-14.108c0-7.246 5.874-13.12 13.12-13.12h20.71c7.246 0 13.12 5.874 13.12 13.12v14.108c0 7.245-5.874 13.12-13.12 13.12z" fill="#ffbd86"/></g><g><path d="m404.681 144.17v-14.108c0-7.062 5.583-12.804 12.575-13.093-.182-.008-.362-.028-.546-.028h-20.71c-7.246 0-13.12 5.874-13.12 13.12v14.108c0 7.246 5.874 13.12 13.12 13.12h20.71c.184 0 .363-.02.546-.027-6.992-.287-12.575-6.03-12.575-13.092z" fill="#f6a96c"/></g><g><path d="m116 157.291h-20.71c-7.246 0-13.12-5.874-13.12-13.12v-14.108c0-7.246 5.874-13.12 13.12-13.12h20.71c7.246 0 13.12 5.874 13.12 13.12v14.108c0 7.245-5.874 13.12-13.12 13.12z" fill="#ffbd86"/></g><g><path d="m103.971 144.17v-14.108c0-7.062 5.584-12.804 12.575-13.093-.182-.008-.362-.028-.546-.028h-20.71c-7.246 0-13.12 5.874-13.12 13.12v14.108c0 7.246 5.874 13.12 13.12 13.12h20.71c.184 0 .363-.02.546-.027-6.991-.287-12.575-6.03-12.575-13.092z" fill="#f6a96c"/></g></g><g><path d="m331.12 332.233v-128.036c0-16.338-13.244-29.582-29.582-29.582h-91.078c-16.338 0-29.582 13.244-29.582 29.582v128.036z" fill="#fd4755"/></g><g><path d="m245.405 174.615h-34.943c-16.338 0-29.582 13.244-29.582 29.582v128.036h34.943v-128.036c0-16.337 13.244-29.582 29.582-29.582z" fill="#fb2b3a"/></g><g><path d="m212.104 93.811h-10.085c-9.37 0-16.966 7.596-16.966 16.966s7.596 16.966 16.966 16.966h10.085z" fill="#f6a96c"/><path d="m309.981 93.811h-10.085v33.932h10.085c9.37 0 16.966-7.596 16.966-16.966s-7.596-16.966-16.966-16.966z" fill="#ffbd86"/></g><g><path d="m267.85 162.06h-23.7c-1.286 0-2.553-.085-3.8-.233v16.296c0 8.589 6.963 15.551 15.551 15.551h.198c8.589 0 15.551-6.963 15.551-15.551v-16.296c-1.247.148-2.513.233-3.8.233z" fill="#fed2a4"/></g><g><path d="m267.85 163.09h-23.7c-18.251 0-33.046-14.795-33.046-33.046v-45.57c0-8.534 6.918-15.453 15.453-15.453h58.887c8.534 0 15.453 6.918 15.453 15.453v45.57c-.001 18.251-14.796 33.046-33.047 33.046z" fill="#fed2a4"/></g><g><path d="m237.29 130.044v-45.57c0-8.534 6.918-15.453 15.453-15.453h-26.186c-8.534 0-15.453 6.918-15.453 15.453v45.57c0 18.251 14.795 33.046 33.046 33.046h23.7c.417 0 .83-.016 1.243-.031-17.674-.655-31.803-15.181-31.803-33.015z" fill="#ffbd86"/></g><g><path d="m284.507 291.026h-56.419c-1.707 0-3.091-1.384-3.091-3.091v-58.579c0-1.707 1.384-3.091 3.091-3.091h56.419c1.707 0 3.091 1.384 3.091 3.091v58.579c-.001 1.707-1.385 3.091-3.091 3.091z" fill="#fff"/></g><g><path d="m250.849 287.935v-58.579c0-1.707 1.384-3.091 3.091-3.091h-25.852c-1.707 0-3.091 1.384-3.091 3.091v58.579c0 1.707 1.384 3.091 3.091 3.091h25.852c-1.707 0-3.091-1.384-3.091-3.091z" fill="#f2fbff"/></g><path d="m349.336 398.165v-51.877c0-5.811 2.233-11.109 5.884-15.085h-198.44c3.651 3.976 5.884 9.274 5.884 15.085v51.877z" fill="#62dbfb"/><path d="m156.78 331.203c3.651 3.976 5.884 9.274 5.884 15.085v51.877h186.672v-17.255h-154.388c-2.761 0-5-2.239-5-5v-44.706h-33.168z" fill="#01d0fb"/><g><path d="m241.393 331.203h29.214v66.962h-29.214z" fill="#01c0fa"/></g><g><g><g><path d="m395.286 450.674v-104.386c0-12.883-10.444-23.327-23.327-23.327h-.297c-12.883 0-23.327 10.444-23.327 23.327v103.386l5.547 1z" fill="#fed2a4"/><path d="m369.151 346.288c0-9.201 5.329-17.155 13.068-20.952-3.097-1.519-6.577-2.375-10.259-2.375h-.297c-12.883 0-23.327 10.444-23.327 23.327v103.386h20.815z" fill="#ffbd86"/><path d="m421.37 473.853v-1.013c0-12.794-10.372-23.166-23.166-23.166h-49.868v24.179z" fill="#54469c"/><path d="m348.336 449.674h20.815v24.179h-20.815z" fill="#463b84"/></g></g><g><g><path d="m140.338 322.962h-.297c-12.883 0-23.327 10.444-23.327 23.327v104.385h41.403l5.547-1v-103.386c0-12.883-10.443-23.326-23.326-23.326z" fill="#fed2a4"/><path d="m137.529 449.674v-103.386c0-9.201 5.329-17.155 13.068-20.952-3.097-1.519-6.577-2.375-10.259-2.375h-.297c-12.883 0-23.326 10.444-23.326 23.327v103.386z" fill="#ffbd86"/><path d="m163.664 473.853v-24.179h-49.868c-12.794 0-23.166 10.372-23.166 23.166v1.013z" fill="#54469c"/><path d="m116.926 473.853v-1.013c0-12.794 10.372-23.166 23.166-23.166h-26.295c-12.794 0-23.166 10.372-23.166 23.166v1.013z" fill="#463b84"/></g></g></g><g><path d="m489.852 488.306h-467.704c-4.268 0-7.727-3.459-7.727-7.727s3.459-7.727 7.727-7.727h467.703c4.268 0 7.727 3.459 7.727 7.727s-3.459 7.727-7.726 7.727z" fill="#fac600"/></g><g fill="#bb5d4c"><path d="m241.5 104v-8c0-4.142-3.357-7.5-7.5-7.5s-7.5 3.358-7.5 7.5v8c0 4.142 3.357 7.5 7.5 7.5s7.5-3.358 7.5-7.5z"/><path d="m278 88.5c-4.143 0-7.5 3.358-7.5 7.5v8c0 4.142 3.357 7.5 7.5 7.5s7.5-3.358 7.5-7.5v-8c0-4.142-3.357-7.5-7.5-7.5z"/><path d="m245.589 119.702 6 4.364c1.332.969 2.875 1.435 4.405 1.435 2.317 0 4.604-1.071 6.071-3.089 2.364-3.251 1.736-7.765-1.364-10.255l1.196-1.522c2.559-3.257 1.993-7.972-1.264-10.531s-7.972-1.994-10.531 1.264l-6 7.636c-1.259 1.602-1.812 3.647-1.531 5.666s1.369 3.833 3.018 5.032z"/><path d="m264.131 129.127c-2.175 2.175-5.062 3.373-8.131 3.373s-5.956-1.198-8.131-3.373c-2.93-2.929-7.678-2.929-10.607 0s-2.929 7.678 0 10.606c5.009 5.008 11.663 7.766 18.738 7.766s13.729-2.758 18.738-7.766c2.929-2.929 2.929-7.678 0-10.606s-7.677-2.928-10.607 0z"/></g></g></svg>