<svg id="Capa_1" enable-background="new 0 0 512 512" height="512" viewBox="0 0 512 512" width="512" xmlns="http://www.w3.org/2000/svg"><g><path d="m506.477 316.225c-17.267-1.775-32.089-11.782-40.489-26.03-2.311-3.919-8.065-3.919-10.375 0-9.283 15.746-26.41 26.312-46.012 26.312s-36.729-10.566-46.012-26.312c-2.311-3.919-8.065-3.919-10.375 0-9.283 15.746-26.41 26.312-46.012 26.312s-36.729-10.566-46.012-26.312c-2.311-3.919-8.065-3.919-10.375 0-9.283 15.746-26.41 26.312-46.012 26.312s-36.729-10.566-46.012-26.312c-2.311-3.919-8.065-3.919-10.376 0-9.283 15.746-26.41 26.312-46.012 26.312s-36.729-10.566-46.012-26.312c-2.311-3.919-8.065-3.919-10.376 0-8.4 14.248-23.222 24.254-40.489 26.03-3.128.322-5.526 2.909-5.526 6.051v48.374h1c0-2.611 1.988-4.785 4.626-5.056 17.074-1.755 32.493-11.668 41.247-26.517.904-1.532 2.521-2.447 4.327-2.447s3.423.915 4.326 2.447c9.747 16.534 27.709 26.804 46.874 26.804s37.126-10.271 46.873-26.804c.903-1.532 2.521-2.447 4.326-2.447s3.423.915 4.327 2.447c9.747 16.534 27.708 26.804 46.873 26.804s37.126-10.271 46.874-26.804c.903-1.532 2.521-2.447 4.326-2.447s3.423.915 4.326 2.447c9.748 16.534 27.709 26.804 46.874 26.804s37.127-10.271 46.874-26.804c.903-1.532 2.521-2.447 4.326-2.447s3.423.915 4.326 2.447c9.747 16.534 27.708 26.804 46.873 26.804s37.127-10.271 46.874-26.804c.903-1.532 2.521-2.447 4.327-2.447s3.423.915 4.326 2.447c8.754 14.849 24.173 24.761 41.247 26.517 2.638.271 4.626 2.445 4.626 5.056h1v-48.374c.002-3.142-2.396-5.729-5.521-6.051z" fill="#62dbfb"/><path d="m5.523 364.599c10.533-1.083 20.147-5.242 27.958-11.545v-21.856c0-3.142 2.398-5.729 5.523-6.051 13.51-1.389 25.506-7.832 34.118-17.387-6.831-4.492-12.573-10.505-16.734-17.563-2.311-3.919-8.065-3.919-10.376 0-8.4 14.248-23.222 24.254-40.489 26.03-3.125.32-5.523 2.907-5.523 6.049v48.374c0-3.143 2.398-5.73 5.523-6.051z" fill="#01d0fb"/><g><g><path d="m301.639 206.721c.844-1.004 1.727-1.982 2.666-2.92l8.408-8.408c-3.676-5.68-6.072-11.908-6.916-18.202-1.015-7.565.255-14.565 3.587-20.331-6.302-.227-12.676 2.039-17.487 6.85-9.187 9.187-9.187 24.082 0 33.269z" fill="#f6a96c"/><path d="m421.443 288.157c-1.642 0-3.331-.115-5.023-.342-5.787-.776-11.52-2.865-16.822-6.054l-8.666 8.666c-.938.938-1.917 1.822-2.921 2.666l9.742 9.742c9.187 9.187 24.083 9.187 33.27 0 5.25-5.25 7.487-12.362 6.737-19.209-4.665 2.976-10.205 4.531-16.317 4.531z" fill="#ffbd86"/></g><g><path d="m111.557 270.378 46.484 14.684c3.685 1.164 4.823 5.821 2.091 8.554l-70.677 70.677c4.195 1.038 8.538 1.588 12.946 1.588 19.165 0 37.126-10.271 46.874-26.805.903-1.533 2.521-2.447 4.327-2.447s3.423.915 4.326 2.447c9.748 16.534 27.708 26.805 46.873 26.805s37.126-10.271 46.874-26.805c.903-1.533 2.521-2.447 4.326-2.447s3.423.915 4.326 2.447c9.748 16.534 27.709 26.805 46.874 26.805 18.503 0 35.881-9.576 45.832-25.116-1.319-1.857-2.8-3.635-4.465-5.3l-25.663-25.663c-2.011-2.012-2.011-5.273 0-7.284l8.589-8.589c-1.371-1.085-2.695-2.246-3.95-3.502l-23.238-23.238c-1.255-1.255-2.416-2.578-3.501-3.95l-8.589 8.589c-2.011 2.011-5.273 2.011-7.284 0l-25.664-25.664c-11.119-11.119-27.033-14.512-41.086-10.194l-69.571-19.051 23.022-87.855c2.04-7.786 8.012-13.933 15.736-16.197l11.864-3.477c7.974 0 14.397-6.64 14.042-14.692-.326-7.396-7.081-13.421-14.484-13.421h-6.408v-20.118c0-11.949-9.687-21.636-21.636-21.636h-23.265c-11.949 0-21.636 9.687-21.636 21.636l2.208 40.446c.13 2.378-.111 4.761-.715 7.065l-34.115 130.184c-3.579 13.657 4.629 27.771 18.333 31.524z" fill="#fed2a4"/></g><g><path d="m152.744 79.79c-1.086.583-2.327.915-3.646.915-4.268 0-7.727-3.459-7.727-7.727v-32.566c.077-.023.157-.039.234-.06-9.09 2.563-15.761 10.897-15.761 20.807l2.208 40.447c.13 2.378-.111 4.761-.715 7.065l-34.113 130.183c-3.579 13.658 4.629 27.771 18.333 31.524l5.446 1.721c-2.214-5.113-2.81-10.954-1.3-16.717l37.517-146.712c.604-2.303.845-4.687.715-7.065z" fill="#ffbd86"/></g><g><path d="m389.777 274.07c-7.574-7.575-12.456-17.037-13.744-26.642-.774-5.769-.223-11.212 1.56-16.029l-15.379-15.379c-3.38 1.251-7.074 1.9-11.008 1.9-1.641 0-3.33-.115-5.022-.342-9.604-1.288-19.066-6.169-26.643-13.745-2.862-2.862-5.338-5.994-7.382-9.301l-8.561 8.561c-17.895 17.895-17.895 46.908 0 64.802l23.238 23.238c17.895 17.895 46.908 17.895 64.802 0l8.846-8.847c-3.825-2.19-7.442-4.951-10.707-8.216z" fill="#fed2a4"/></g><g><path d="m330.202 267.897c-16.088-16.088-17.703-41.159-4.863-59.061-2.026-1.503-3.968-3.171-5.798-5.001-2.862-2.862-5.338-5.994-7.382-9.301l-8.561 8.561c-17.895 17.895-17.895 46.908 0 64.803l23.238 23.238c12.37 12.37 30.052 16.184 45.703 11.451-6.99-2.113-13.575-5.927-19.099-11.451z" fill="#ffbd86"/></g><path d="m388.744 226.151c3.421-3.421 7.835-5.415 12.697-6.071l-27.91-27.91c-.655 4.861-2.649 9.275-6.071 12.697-3.225 3.225-7.329 5.189-11.86 5.953l27.191 27.191c.764-4.531 2.728-8.635 5.953-11.86z" fill="#01d0fb"/><g><path d="m360.416 269.185c-19.227 0-34.868-15.642-34.868-34.868 0-4.267 3.459-7.727 7.727-7.727s7.727 3.459 7.727 7.727c0 10.706 8.709 19.415 19.415 19.415 4.268 0 7.727 3.459 7.727 7.727s-3.46 7.726-7.728 7.726z" fill="#bb5d4c"/></g><path d="m456.656 138.077c-30.93-30.93-81.078-30.93-112.008 0l-11.576 11.576c9.384-.595 20.13 3.584 28.598 12.052 9.036 9.036 13.182 20.664 11.86 30.466l27.91 27.91c9.802-1.321 21.43 2.824 30.466 11.86s13.182 20.664 11.861 30.466l.283.283 12.605-12.605c30.93-30.93 30.93-81.078.001-112.008z" fill="#fb2b3a"/><path d="m360.731 125.663c-5.744 3.357-11.159 7.489-16.084 12.414l-11.575 11.576c9.384-.595 20.13 3.584 28.598 12.052 9.036 9.036 13.182 20.664 11.86 30.466l27.91 27.91c9.802-1.321 21.43 2.824 30.466 11.86s13.182 20.664 11.861 30.466l.283.283 12.605-12.605c4.925-4.925 9.058-10.34 12.414-16.084z" fill="#fd4755"/><g><g><ellipse cx="342.984" cy="180.391" fill="#c8effe" rx="26.427" ry="34.615" transform="matrix(.707 -.707 .707 .707 -27.098 295.362)"/></g><g><path d="m341.472 207.615c-13.518-13.518-16.11-32.843-5.79-43.163 5.697-5.697 14.138-7.451 22.831-5.613-13.23-10.962-30.464-12.465-40.005-2.924-10.32 10.32-7.728 29.645 5.79 43.163 6.056 6.056 13.277 9.911 20.332 11.403-1.081-.895-2.138-1.846-3.158-2.866z" fill="#99e6fc"/></g><g><ellipse cx="413.22" cy="250.628" fill="#c8effe" rx="26.427" ry="34.615" transform="matrix(.707 -.707 .707 .707 -56.191 365.598)"/></g><g><path d="m411.524 277.667c-13.518-13.518-16.11-32.843-5.79-43.163 5.685-5.685 14.104-7.444 22.778-5.624-13.198-10.784-30.284-12.213-39.768-2.729-10.32 10.32-7.728 29.645 5.79 43.163 6.071 6.071 13.313 9.93 20.385 11.414-1.164-.95-2.3-1.966-3.395-3.061z" fill="#99e6fc"/></g></g><g><g><path d="m351.206 218.921c-1.685 0-3.405-.116-5.155-.351-9.822-1.317-19.487-6.3-27.217-14.029-7.729-7.729-12.711-17.395-14.028-27.217-1.421-10.595 1.505-20.138 8.239-26.873 13.317-13.316 37.582-10.718 54.088 5.79 7.729 7.729 12.712 17.395 14.029 27.217 1.421 10.595-1.505 20.139-8.239 26.873-5.621 5.622-13.202 8.59-21.717 8.59zm-16.402-61.579c-4.27 0-8.102 1.305-10.833 4.036-3.248 3.249-4.615 8.182-3.85 13.892.869 6.482 4.293 12.998 9.64 18.344s11.861 8.771 18.345 9.64c5.709.765 10.643-.602 13.892-3.85 3.248-3.249 4.615-8.182 3.85-13.892-.869-6.483-4.293-12.998-9.64-18.345-6.38-6.378-14.468-9.825-21.404-9.825z" fill="#62dbfb"/></g><g><path d="m421.443 289.157c-1.685 0-3.406-.116-5.156-.351-9.822-1.317-19.487-6.3-27.217-14.029-7.729-7.729-12.711-17.395-14.028-27.216-1.421-10.595 1.505-20.139 8.239-26.873 13.316-13.316 37.581-10.718 54.089 5.79 16.509 16.508 19.105 40.773 5.789 54.089-5.621 5.622-13.201 8.59-21.716 8.59zm-16.403-61.578c-4.269 0-8.102 1.306-10.833 4.036-3.248 3.249-4.615 8.182-3.85 13.892.869 6.483 4.293 12.998 9.64 18.344s11.862 8.771 18.345 9.64c5.71.765 10.644-.602 13.891-3.85h.001c7.167-7.168 4.517-21.93-5.789-32.236-6.381-6.38-14.468-9.826-21.405-9.826z" fill="#62dbfb"/></g></g></g><path d="m506.477 364.599c-17.267-1.775-32.089-11.782-40.489-26.03-2.311-3.919-8.065-3.919-10.375 0-9.283 15.746-26.41 26.312-46.012 26.312s-36.729-10.566-46.012-26.312c-2.311-3.919-8.065-3.919-10.375 0-9.283 15.746-26.41 26.312-46.012 26.312s-36.729-10.566-46.012-26.312c-2.311-3.919-8.065-3.919-10.375 0-9.283 15.746-26.41 26.312-46.012 26.312s-36.729-10.566-46.012-26.312c-2.311-3.919-8.065-3.919-10.376 0-9.283 15.746-26.41 26.312-46.012 26.312s-36.729-10.566-46.012-26.312c-2.311-3.919-8.065-3.919-10.376 0-8.4 14.248-23.222 24.255-40.489 26.03-3.128.321-5.526 2.908-5.526 6.051v48.512h1c0-2.611 1.988-4.785 4.626-5.057 17.074-1.755 32.494-11.668 41.247-26.516.922-1.562 2.539-2.496 4.327-2.496 1.787 0 3.404.933 4.326 2.496 9.747 16.533 27.708 26.804 46.873 26.804s37.127-10.271 46.874-26.804c.922-1.563 2.539-2.496 4.327-2.496 1.787 0 3.404.933 4.326 2.496 9.747 16.533 27.708 26.804 46.873 26.804 19.164 0 37.125-10.271 46.874-26.804.922-1.563 2.539-2.496 4.326-2.496s3.405.933 4.326 2.496c9.749 16.533 27.71 26.804 46.874 26.804 19.165 0 37.126-10.271 46.873-26.804.922-1.563 2.539-2.496 4.327-2.496 1.787 0 3.404.933 4.326 2.496 9.747 16.533 27.709 26.804 46.874 26.804s37.126-10.271 46.873-26.804c.922-1.563 2.539-2.496 4.326-2.496 1.788 0 3.405.933 4.327 2.496 8.753 14.848 24.173 24.761 41.247 26.516 2.638.271 4.626 2.445 4.626 5.057h1v-48.512c.002-3.143-2.396-5.73-5.521-6.051z" fill="#01d0fb"/><path d="m5.524 413.111c10.533-1.083 20.146-5.242 27.957-11.545v-22.037c0-3.142 2.398-5.73 5.523-6.051 13.497-1.388 25.484-7.82 34.094-17.361-6.82-4.49-12.553-10.497-16.71-17.548-2.311-3.919-8.065-3.919-10.376 0-8.4 14.248-23.222 24.255-40.489 26.03-3.125.321-5.523 2.908-5.523 6.051v48.512c0-3.143 2.398-5.73 5.524-6.051z" fill="#01c0fa"/><g><path d="m512 462.176v-43.014c0-3.142-2.398-5.73-5.524-6.051-17.267-1.775-32.088-11.782-40.488-26.03-2.349-3.984-8.027-3.984-10.376 0-9.283 15.746-26.41 26.312-46.012 26.312s-36.729-10.566-46.012-26.312c-2.349-3.984-8.027-3.984-10.376 0-9.283 15.746-26.41 26.312-46.012 26.312s-36.729-10.566-46.012-26.312c-2.349-3.984-8.027-3.984-10.376 0-9.283 15.746-26.41 26.312-46.012 26.312s-36.729-10.566-46.012-26.312c-2.349-3.984-8.027-3.984-10.376 0-9.283 15.746-26.41 26.312-46.012 26.312s-36.729-10.566-46.012-26.312c-2.349-3.984-8.027-3.984-10.376 0-8.4 14.247-23.222 24.254-40.488 26.03-3.126.321-5.524 2.908-5.524 6.05v43.014c0 5.69 4.612 10.302 10.302 10.302h491.396c5.69.001 10.302-4.612 10.302-10.301z" fill="#99e6fc"/></g><g><g><path d="m33.481 471.097v-43.014c0-3.142 2.398-5.73 5.524-6.051 13.51-1.389 25.506-7.832 34.117-17.387-6.831-4.492-12.572-10.505-16.734-17.563-2.349-3.984-8.027-3.984-10.376 0-8.4 14.247-23.222 24.254-40.488 26.03-3.126.32-5.524 2.907-5.524 6.049v43.014c0 5.69 4.612 10.302 10.302 10.302h23.282c-.061-.452-.103-.911-.103-1.38z" fill="#62dbfb"/></g></g><g><path d="m266.341 308.208c-1.978 0-3.955-.754-5.463-2.263l-29.807-29.806c-3.018-3.017-3.018-7.909-.001-10.927 3.018-3.018 7.911-3.018 10.927 0l29.807 29.806c3.018 3.017 3.018 7.909.001 10.927-1.509 1.509-3.487 2.263-5.464 2.263z" fill="#ffbd86"/></g><g fill="#f6a96c"><path d="m149.098 80.705c4.268 0 7.727-3.459 7.727-7.727v-33.456h-9.343c-2.124 0-4.171.319-6.11.89v32.566c-.001 4.268 3.458 7.727 7.726 7.727z"/><path d="m170.746 39.522h-6.674v33.456c0 4.267 3.459 7.727 7.727 7.727s7.727-3.459 7.727-7.727v-31.583c-2.686-1.195-5.651-1.873-8.78-1.873z"/></g></g></svg>