<svg id="Capa_1" enable-background="new 0 0 512 512" height="512" viewBox="0 0 512 512" width="512" xmlns="http://www.w3.org/2000/svg"><g><path d="m448.134 363.181-1.835.454c-22.984 42.018-59.069 75.891-102.725 96.086.001 0 .001 0 .002-.001l-.561 1.505 7.298 22.38 1.581 1.621c-.004.002-.008.004-.012.005 27.586-12.307 52.966-29.697 74.965-51.697 18.373-18.372 33.523-39.106 45.191-61.508l-1.377-1.501z" fill="#fe7701"/><g><g><g><path d="m472.039 372.028c17.534-33.664 27.19-71.104 27.99-110.02.059-2.893-2.262-5.278-5.156-5.278h-16.216c-2.79 0-5.081 2.223-5.143 5.013-.815 36.833-10.596 71.488-27.222 101.889z" fill="#8bc727"/></g><g><path d="m343.576 459.72c-28.633 13.246-60.516 20.621-94.101 20.538-122.555-.306-222.655-100.407-222.961-222.961-.304-121.837 97.378-221.361 218.515-224.039 2.79-.062 5.013-2.352 5.013-5.143v-16.216c0-2.894-2.384-5.216-5.278-5.156-64.813 1.333-125.548 27.201-171.528 73.182-47.227 47.226-73.236 110.017-73.236 176.805 0 66.789 26.009 129.579 73.236 176.806 47.226 47.227 110.017 73.236 176.806 73.236 35.68 0 70.217-7.429 101.852-21.544z" fill="#fac600"/></g></g><path d="m402.537 223.155c-47.935 0-88.7-31.259-102.998-74.462-12.698 3.956-24.655 10.942-34.712 20.999l-14.811 14.811-14.811-14.811c-33.154-33.154-86.907-33.154-120.061 0-33.154 33.154-33.154 86.907 0 120.061l131.23 131.23c2.012 2.012 5.273 2.012 7.285 0l131.23-131.23c18.307-18.307 26.484-42.893 24.573-66.825-2.292.145-4.599.227-6.925.227z" fill="#fd4755"/><g><g><path d="m167.546 289.752c-33.154-33.154-33.154-86.907 0-120.061 9.823-9.823 21.461-16.712 33.829-20.714-29.376-9.506-62.901-2.617-86.232 20.714-33.154 33.154-33.154 86.907 0 120.061l131.23 131.23c2.012 2.012 5.273 2.012 7.285 0l22.559-22.559z" fill="#fb2b3a"/></g></g><g><path d="m300.029 331.071c-3.051 0-5.799-1.849-6.948-4.676l-21.942-53.978-20.05 34.727c-1.493 2.586-4.374 4.043-7.346 3.702-2.967-.339-5.451-2.406-6.322-5.263l-20.544-67.334-20.544 67.334c-.872 2.857-3.355 4.924-6.322 5.263-2.962.342-5.853-1.115-7.346-3.702l-21.067-36.49-12.901 23.431c-1.318 2.395-3.836 3.882-6.57 3.882h-65.444c-4.142 0-7.5-3.358-7.5-7.5s3.358-7.5 7.5-7.5h61.011l17.179-31.199c1.306-2.371 3.787-3.854 6.494-3.882 2.702-.043 5.218 1.405 6.571 3.75l19.086 33.058 22.68-74.335c.962-3.156 3.874-5.312 7.173-5.312s6.211 2.156 7.173 5.312l22.68 74.335 19.086-33.058c1.432-2.48 4.154-3.922 7.01-3.732 2.858.197 5.354 2.004 6.433 4.658l20.77 51.093 20.77-51.093c1.079-2.654 3.575-4.461 6.433-4.658 2.856-.195 5.578 1.252 7.01 3.732l18.089 31.332h71.017c4.142 0 7.5 3.358 7.5 7.5s-3.358 7.5-7.5 7.5h-75.348c-2.68 0-5.155-1.43-6.495-3.75l-12.586-21.8-21.942 53.978c-1.149 2.826-3.897 4.675-6.948 4.675z" fill="#62dbfb"/></g><g><circle cx="402.537" cy="114.692" fill="#c8effe" r="109.463"/></g><g><circle cx="402.537" cy="114.692" fill="#62dbfb" r="81.211"/></g><g><path d="m377.909 114.692c0-34.9 22.019-64.651 52.919-76.138-8.811-3.275-18.34-5.073-28.291-5.073-44.851 0-81.211 36.359-81.211 81.211s36.359 81.211 81.211 81.211c9.951 0 19.48-1.798 28.291-5.073-30.9-11.488-52.919-41.238-52.919-76.138z" fill="#01d0fb"/></g><g fill="#fff"><path d="m365.053 82.61h-13.032c-4.142 0-7.5 3.358-7.5 7.5s3.358 7.5 7.5 7.5h5.532v41.664c0 4.142 3.358 7.5 7.5 7.5s7.5-3.358 7.5-7.5v-49.164c0-4.142-3.358-7.5-7.5-7.5z"/><path d="m399.039 82.61h-13.031c-4.142 0-7.5 3.358-7.5 7.5s3.358 7.5 7.5 7.5h5.531v41.664c0 4.142 3.358 7.5 7.5 7.5s7.5-3.358 7.5-7.5v-49.164c0-4.142-3.358-7.5-7.5-7.5z"/><path d="m437.656 82.61c-12.625 0-22.896 10.271-22.896 22.896v18.372c0 12.625 10.271 22.896 22.896 22.896s22.896-10.271 22.896-22.896v-18.372c0-12.625-10.271-22.896-22.896-22.896zm7.896 41.267c0 4.354-3.542 7.896-7.896 7.896s-7.896-3.542-7.896-7.896v-18.372c0-4.354 3.542-7.896 7.896-7.896s7.896 3.542 7.896 7.896z"/></g></g><g><g><path d="m472.039 372.028c17.534-33.664 27.19-71.104 27.99-110.02.059-2.893-2.262-5.278-5.156-5.278h-16.216c-2.79 0-5.081 2.223-5.143 5.013-.815 36.833-10.596 71.488-27.222 101.889z" fill="#8bc727"/></g><g><path d="m343.576 459.72c-28.633 13.246-60.516 20.621-94.101 20.538-122.555-.306-222.655-100.407-222.961-222.961-.304-121.837 97.378-221.361 218.515-224.039 2.79-.062 5.013-2.352 5.013-5.143v-16.216c0-2.894-2.384-5.216-5.278-5.156-64.813 1.333-125.548 27.201-171.528 73.182-47.227 47.226-73.236 110.017-73.236 176.805 0 66.789 26.009 129.579 73.236 176.806 47.226 47.227 110.017 73.236 176.806 73.236 35.68 0 70.217-7.429 101.852-21.544z" fill="#fac600"/></g></g></g></svg>