<svg id="Capa_1" enable-background="new 0 0 512 512" height="512" viewBox="0 0 512 512" width="512" xmlns="http://www.w3.org/2000/svg"><g><g fill="#c8effe"><path d="m441.752 275.331h-156.741c-3.045 0-5.405 2.663-5.039 5.687l6.978 57.533 4.684 1h143.569l4.609-1 6.978-57.533c.367-3.024-1.993-5.687-5.038-5.687z"/><path d="m305.224 456.086-3.896 1 4.963 40.914h114.18l4.963-40.914-3.818-1z"/></g><path d="m246.437 498c.438-1.134.688-2.362.688-3.651v-35.946c0-10.911-8.845-19.756-19.756-19.756 10.911 0 19.756-8.845 19.756-19.756v-65.853c0-10.911-8.845-19.756-19.756-19.756 10.911 0 19.756-8.845 19.756-19.756v-65.853c0-10.911-8.845-19.756-19.756-19.756 10.911 0 19.756-8.845 19.756-19.756v-47.589c0-23.527-12.552-45.267-32.927-57.031l-28.688-16.563v-33.915h-59.268v33.914l-28.688 16.563c-20.375 11.764-32.927 33.504-32.927 57.031v47.589c0 10.911 8.845 19.756 19.756 19.756-10.911 0-19.756 8.845-19.756 19.756v65.853c0 10.911 8.845 19.756 19.756 19.756-10.911 0-19.756 8.845-19.756 19.756v65.853c0 10.911 8.845 19.756 19.756 19.756-10.911 0-19.756 8.845-19.756 19.756v35.946c0 1.289.25 2.517.688 3.651h181.122z" fill="#62dbfb"/><g><path d="m214.198 103.541-28.688-16.563v-33.915h-59.268v33.914l-28.688 16.563c-20.375 11.764-32.927 33.504-32.927 57.031v47.589c0 10.911 8.845 19.756 19.756 19.756h18.251c-.041-.851-.065-1.706-.065-2.566 0-29.394 23.914-53.307 53.307-53.307 29.394 0 53.308 23.914 53.308 53.307 0 .861-.025 1.715-.065 2.566h18.251c10.911 0 19.756-8.845 19.756-19.756v-47.589c-.001-23.527-12.553-45.267-32.928-57.03z" fill="#62dbfb"/><path d="m101.568 225.35c0-9.118 2.258-17.705 6.228-25.249v-39.529c0-23.527 12.552-45.267 32.927-57.031l15.353-7.551c5.208-2.561 8.507-7.86 8.507-13.663v-28.263h-38.341v32.914l-28.689 16.563c-20.375 11.764-32.926 33.504-32.926 57.031v47.589c0 10.911 8.845 19.756 19.756 19.756h17.25c-.039-.852-.065-1.706-.065-2.567z" fill="#01d0fb"/><path d="m227.369 227.916h-18.251c-1.344 28.206-24.709 50.741-53.242 50.741s-51.898-22.535-53.242-50.741h-18.251c-10.911 0-19.756 8.845-19.756 19.756v65.853c0 10.911 8.845 19.756 19.756 19.756h142.986c10.911 0 19.756-8.845 19.756-19.756v-65.853c0-10.911-8.846-19.756-19.756-19.756z" fill="#01d0fb"/><path d="m107.797 313.525v-62.926c-3.596-6.833-5.784-14.52-6.164-22.683h-17.25c-10.911 0-19.756 8.845-19.756 19.756v65.853c0 10.911 8.845 19.756 19.756 19.756h43.17c-10.911 0-19.756-8.845-19.756-19.756z" fill="#01c0fa"/><g><path d="m64.627 353.037v65.853c0 10.911 8.845 19.756 19.756 19.756h142.986c10.911 0 19.756-8.845 19.756-19.756v-65.853c0-10.911-8.845-19.756-19.756-19.756h-142.986c-10.911 0-19.756 8.846-19.756 19.756z" fill="#62dbfb"/></g><g><path d="m107.797 418.891v-65.853c0-10.911 8.845-19.756 19.756-19.756h-43.17c-10.911 0-19.756 8.845-19.756 19.756v65.853c0 10.911 8.845 19.756 19.756 19.756h43.17c-10.911 0-19.756-8.845-19.756-19.756z" fill="#01d0fb"/></g><g><path d="m187.851 403.499h-63.951c-7.537 0-13.704-6.167-13.704-13.704 0-7.537 6.167-13.704 13.704-13.704h63.951c7.537 0 13.704 6.167 13.704 13.704 0 7.537-6.167 13.704-13.704 13.704z" fill="#fff"/></g><g><path d="m143.325 389.795c0-7.537 6.167-13.704 13.704-13.704h-33.129c-7.537 0-13.704 6.167-13.704 13.704s6.167 13.704 13.704 13.704h33.128c-7.536 0-13.703-6.167-13.703-13.704z" fill="#f2fbff"/></g><path d="m246.437 498c.438-1.134.688-2.362.688-3.651v-35.946c0-10.911-8.845-19.756-19.756-19.756h-142.986c-10.911 0-19.756 8.845-19.756 19.756v35.946c0 1.289.25 2.517.688 3.651z" fill="#01d0fb"/><path d="m108.485 498c-.438-1.134-.688-2.362-.688-3.651v-35.946c0-10.911 8.845-19.756 19.756-19.756h-43.17c-10.911 0-19.756 8.845-19.756 19.756v35.946c0 1.289.25 2.517.688 3.651z" fill="#01c0fa"/><g fill="#99e6fc"><path d="m286.951 338.55h42.643l-6.978-57.532c-.367-3.023 1.993-5.687 5.039-5.687h-42.643c-3.045 0-5.405 2.663-5.039 5.687z"/><path d="m301.328 457.086 4.963 40.914h42.643l-4.963-40.914z"/></g><path d="m425.434 457.086 14.378-118.536h-152.861l14.377 118.536z" fill="#62dbfb"/><path d="m329.593 338.55h-42.642l14.377 118.536h42.643z" fill="#01d0fb"/><g><path d="m357.154 96.325-37.087 69.733c-17.379 32.677 6.303 72.096 43.314 72.096 37.011 0 60.693-39.419 43.314-72.096l-37.087-69.733c-2.653-4.989-9.801-4.989-12.454 0z" fill="#62dbfb"/></g><g><path d="m354.396 166.057 26.15-49.168-10.937-20.565c-2.653-4.988-9.801-4.988-12.454 0l-37.087 69.733c-17.379 32.677 6.303 72.096 43.314 72.096 6.13 0 11.892-1.087 17.164-3.04-26.562-9.839-40.65-41.791-26.15-69.056z" fill="#01d0fb"/></g><g><path d="m366.348 209.075c-2.244 0-4.37-1.005-5.794-2.738l-18.963-23.076c-2.63-3.2-2.167-7.926 1.033-10.556 3.201-2.631 7.927-2.167 10.556 1.033l13.169 16.025 41.288-50.241c2.63-3.2 7.357-3.662 10.556-1.033 3.2 2.63 3.663 7.356 1.033 10.556l-47.082 57.292c-1.426 1.733-3.553 2.738-5.796 2.738z" fill="#bbec6c"/></g><g><path d="m191.33 54.064h-70.909c-3.637 0-6.585-2.948-6.585-6.585v-25.025c0-3.637 2.948-6.585 6.585-6.585h70.909c3.637 0 6.585 2.948 6.585 6.585v25.024c.001 3.637-2.948 6.586-6.585 6.586z" fill="#c8effe"/></g><g><path d="m147.558 47.478v-25.024c0-3.637 2.948-6.585 6.585-6.585h-33.722c-3.637 0-6.585 2.948-6.585 6.585v25.024c0 3.637 2.948 6.585 6.585 6.585h33.722c-3.637.001-6.585-2.948-6.585-6.585z" fill="#99e6fc"/></g><g><circle cx="155.876" cy="225.35" fill="#fff" r="54.307"/></g><g><path d="m126.068 225.35c0-25.778 17.967-47.346 42.057-52.903-3.939-.909-8.035-1.405-12.25-1.405-29.993 0-54.307 24.314-54.307 54.307s24.314 54.307 54.307 54.307c4.215 0 8.311-.496 12.25-1.405-24.09-5.555-42.057-27.123-42.057-52.901z" fill="#f2fbff"/></g><g><g><path d="m170.087 221.177h-28.422c-4.142 0-7.5-3.358-7.5-7.5s3.358-7.5 7.5-7.5h28.422c4.142 0 7.5 3.358 7.5 7.5s-3.358 7.5-7.5 7.5z" fill="#99e6fc"/></g><g><path d="m177.192 244.523h-42.634c-4.142 0-7.5-3.358-7.5-7.5s3.358-7.5 7.5-7.5h42.634c4.142 0 7.5 3.358 7.5 7.5s-3.358 7.5-7.5 7.5z" fill="#99e6fc"/></g></g></g><g><path d="m501.633 512h-491.266c-4.142 0-7.5-3.358-7.5-7.5s3.358-7.5 7.5-7.5h491.266c4.142 0 7.5 3.358 7.5 7.5s-3.358 7.5-7.5 7.5z" fill="#62dbfb"/></g><g><circle cx="294.416" cy="93.131" fill="#c8effe" r="18.626"/></g><g><path d="m292.849 93.131c0-7.21 4.104-13.45 10.097-16.546-2.557-1.321-5.453-2.08-8.529-2.08-10.287 0-18.626 8.339-18.626 18.626s8.339 18.626 18.626 18.626c3.077 0 5.972-.759 8.529-2.08-5.993-3.096-10.097-9.336-10.097-16.546z" fill="#99e6fc"/></g><g><circle cx="389.876" cy="25.611" fill="#c8effe" r="25.611"/></g><g><path d="m384.917 25.611c0-10.469 6.285-19.466 15.285-23.437-3.16-1.394-6.651-2.174-10.326-2.174-14.145 0-25.611 11.466-25.611 25.611s11.466 25.611 25.611 25.611c3.675 0 7.166-.78 10.326-2.174-9-3.971-15.285-12.968-15.285-23.437z" fill="#99e6fc"/></g></g></svg>