<svg id="Capa_1" enable-background="new 0 0 512 512" height="512" viewBox="0 0 512 512" width="512" xmlns="http://www.w3.org/2000/svg"><g><path d="m505.089 67.352h-206.068l-6.513 1v93.883h28.588c13.649 0 24.755 11.105 24.755 24.754v90.644h155.849c5.689 0 10.301-4.612 10.301-10.301v-198.98z" fill="#fff3de"/><path d="m321.096 162.235c5.724 0 10.997 1.959 15.195 5.234v-99.117h-43.783v93.883z" fill="#ffe5c2"/><g><path d="m501.699 23.166h-198.89c-5.689 0-10.301 4.612-10.301 10.301v34.885h219.492v-34.885c0-5.689-4.612-10.301-10.301-10.301z" fill="#fd4755"/></g><g><path d="m346.592 23.166h-43.783c-5.689 0-10.301 4.612-10.301 10.301v34.885h43.783v-34.885c0-5.689 4.612-10.301 10.301-10.301z" fill="#fb2b3a"/></g><g><g><circle cx="319.978" cy="45.35" fill="#fff" r="7.5"/></g><g><circle cx="339.978" cy="45.35" fill="#fff" r="7.5"/></g><g><circle cx="359.978" cy="45.35" fill="#fff" r="7.5"/></g></g><g><g><path d="m472.513 191.135v-70.065c0-4.142-3.357-7.5-7.5-7.5s-7.5 3.358-7.5 7.5v70.065z" fill="#62dbfb"/><path d="m430.674 191.135v-49.983c0-4.142-3.357-7.5-7.5-7.5s-7.5 3.358-7.5 7.5v49.983z" fill="#fd4755"/><path d="m388.835 191.135v-90.148c0-4.142-3.357-7.5-7.5-7.5s-7.5 3.358-7.5 7.5v90.148z" fill="#8bc727"/><path d="m345.851 186.989v4.146h1.145v-60.024c0-4.142-3.357-7.5-7.5-7.5s-7.5 3.358-7.5 7.5v33.66c8.198 4.038 13.855 12.479 13.855 22.218z" fill="#fe7701"/></g><path d="m479.72 190.135h-133.869v15h133.869c4.143 0 7.5-3.358 7.5-7.5s-3.358-7.5-7.5-7.5z" fill="#ffbd86"/><g><path d="m479.72 229.859h-42.381c-4.143 0-7.5-3.358-7.5-7.5s3.357-7.5 7.5-7.5h42.381c4.143 0 7.5 3.358 7.5 7.5s-3.358 7.5-7.5 7.5z" fill="#ffbd86"/></g><path d="m414.675 214.859h-68.824v15h68.824c4.143 0 7.5-3.358 7.5-7.5s-3.358-7.5-7.5-7.5z" fill="#ffbd86"/><g><path d="m479.72 254.584h-83.588c-4.143 0-7.5-3.358-7.5-7.5s3.357-7.5 7.5-7.5h83.588c4.143 0 7.5 3.358 7.5 7.5s-3.358 7.5-7.5 7.5z" fill="#ffbd86"/></g><path d="m373.468 239.584h-27.617v15h27.617c4.143 0 7.5-3.358 7.5-7.5s-3.358-7.5-7.5-7.5z" fill="#ffbd86"/></g><path d="m321.096 161.235h-81.056c6.437 10.424 10.499 22.469 11.403 35.39.209 2.984-2.154 5.525-5.145 5.525h-57.857c0 8.164-6.641 14.805-14.805 14.805s-14.805-6.641-14.805-14.805h-57.857c-2.991 0-5.354-2.541-5.145-5.525.904-12.921 4.967-24.966 11.403-35.39h-81.054c-14.224 0-25.755 11.531-25.755 25.755v276.09c0 14.224 11.531 25.755 25.755 25.755h294.918c14.224 0 25.755-11.531 25.755-25.755v-276.09c-.001-14.225-11.531-25.755-25.755-25.755z" fill="#62dbfb"/><path d="m61.296 463.079h-29.967c-2.845 0-5.151-2.306-5.151-5.151v-265.788c0-2.845 2.306-5.151 5.151-5.151h29.967c0-14.224 11.531-25.755 25.755-25.755h-60.873c-14.224 0-25.755 11.531-25.755 25.755v276.09c0 14.224 11.531 25.755 25.755 25.755h60.872c-14.223 0-25.754-11.531-25.754-25.755z" fill="#01d0fb"/><path d="m315.945 186.99h-65.804c.621 3.15 1.073 6.361 1.302 9.635.209 2.984-2.154 5.525-5.145 5.525h-57.857c0 8.164-6.641 14.805-14.805 14.805s-14.805-6.641-14.805-14.805h-57.857c-2.991 0-5.354-2.541-5.145-5.525.229-3.274.681-6.485 1.302-9.635h-65.802c-2.845 0-5.151 2.306-5.151 5.151v265.788c0 2.845 2.306 5.151 5.151 5.151h284.616c2.845 0 5.151-2.306 5.151-5.151v-265.789c0-2.844-2.306-5.15-5.151-5.15z" fill="#99e6fc"/><g><path d="m61.01 457.929v-265.789c0-2.845 2.306-5.151 5.151-5.151h-34.832c-2.845 0-5.151 2.306-5.151 5.151v265.788c0 2.845 2.306 5.151 5.151 5.151h34.831c-2.844 0-5.15-2.306-5.15-5.15z" fill="#62dbfb"/></g><path d="m251.443 196.625c-2.834-40.5-36.586-72.474-77.806-72.474s-74.972 31.975-77.806 72.474c-.209 2.984 2.154 5.525 5.145 5.525h57.857c0-8.163 6.642-14.805 14.805-14.805s14.805 6.642 14.805 14.805h57.857c2.99 0 5.352-2.541 5.143-5.525z" fill="#fff3de"/><g><path d="m130.331 196.625c2.426-34.673 27.522-63.077 60.556-70.538-5.551-1.254-11.32-1.936-17.25-1.936-41.22 0-74.972 31.975-77.806 72.474-.209 2.984 2.154 5.525 5.145 5.525h34.5c-2.992 0-5.354-2.541-5.145-5.525z" fill="#ffe5c2"/></g><g fill="#fed2a4"><path d="m131.399 162.542c1.919 0 3.839-.732 5.303-2.197 2.929-2.929 2.929-7.677 0-10.606l-5.237-5.237c-1.947 1.428-3.837 2.95-5.65 4.583-1.936 1.744-3.752 3.59-5.471 5.51l5.751 5.751c1.466 1.465 3.385 2.196 5.304 2.196z"/><path d="m210.571 160.346c1.464 1.465 3.384 2.197 5.303 2.197s3.839-.732 5.303-2.197l5.749-5.75c-1.719-1.92-3.535-3.766-5.471-5.51-1.812-1.633-3.702-3.155-5.649-4.583l-5.236 5.236c-2.928 2.929-2.927 7.678.001 10.607z"/></g><g><path d="m166.137 131.062v7.497c0 4.142 3.358 7.5 7.5 7.5s7.5-3.358 7.5-7.5v-7.497c-2.481-.263-4.983-.412-7.5-.412-2.517.001-5.018.149-7.5.412z" fill="#fed2a4"/></g><path d="m258.925 196.102c-3.117-44.552-40.58-79.451-85.288-79.451s-82.171 34.899-85.289 79.451c-.244 3.492.985 6.963 3.373 9.523 2.385 2.558 5.758 4.024 9.254 4.024h59.919c-1.302-2.203-2.062-4.761-2.062-7.5s.761-5.297 2.063-7.5h-57.363c3.761-35.527 34.08-62.999 70.105-62.999 36.023 0 66.341 27.475 70.105 62.999h-57.363c1.302 2.203 2.063 4.761 2.063 7.5s-.761 5.297-2.062 7.5h59.919c3.496 0 6.869-1.467 9.255-4.025 2.386-2.56 3.616-6.031 3.371-9.522z" fill="#ffbd86"/><path d="m173.637 187.345c2.739 0 5.297.761 7.5 2.062v-30.244c0-4.142-3.358-7.5-7.5-7.5s-7.5 3.358-7.5 7.5v30.244c2.203-1.301 4.761-2.062 7.5-2.062z" fill="#fb2b3a"/><g><circle cx="173.637" cy="202.15" fill="#fd4755" r="15.805"/></g><g><g><path d="m102.881 418.769c-16.958 0-30.706-13.748-30.706-30.706v-101.876c0-20.644 16.736-37.38 37.38-37.38 24.735 0 42.649 23.592 36.007 47.418l-10.847 38.908c-.748 2.685-1.128 5.459-1.128 8.246v44.684c0 16.958-13.748 30.706-30.706 30.706z" fill="#01d0fb"/></g><g><path d="m98.382 388.063v-101.876c0-16.043 10.11-29.722 24.304-35.024-4.056-1.518-8.473-2.356-13.131-2.356-20.644 0-37.38 16.736-37.38 37.38v101.876c0 16.959 13.748 30.706 30.706 30.706 4.688 0 9.129-1.055 13.104-2.934-10.403-4.917-17.603-15.502-17.603-27.772z" fill="#01c0fa"/></g><g><path d="m244.393 418.769c16.958 0 30.706-13.748 30.706-30.706v-101.876c0-20.644-16.736-37.38-37.38-37.38-24.735 0-42.649 23.592-36.007 47.418l10.847 38.908c.748 2.685 1.128 5.459 1.128 8.246v44.684c0 16.958 13.748 30.706 30.706 30.706z" fill="#01d0fb"/></g><g><path d="m239.495 388.063v-44.684c0-2.787-.379-5.561-1.128-8.246l-10.847-38.908c-5.413-19.415 5.483-38.671 23.085-45.137-4.017-1.475-8.357-2.281-12.886-2.281-24.735 0-42.649 23.592-36.007 47.418l10.847 38.908c.748 2.685 1.128 5.459 1.128 8.246v44.684c0 16.959 13.747 30.706 30.706 30.706 4.61 0 8.98-1.023 12.904-2.843-10.51-4.876-17.802-15.515-17.802-27.863z" fill="#01c0fa"/></g></g><g><path d="m238.352 34.463h-156.511v61.072h156.511c2.844 0 5.15-2.306 5.15-5.15v-50.772c.001-2.844-2.305-5.15-5.15-5.15z" fill="#c8effe"/><path d="m110.744 90.384v-50.771c0-2.844 2.306-5.15 5.15-5.15h-34.053v61.072h34.054c-2.845-.001-5.151-2.306-5.151-5.151z" fill="#99e6fc"/><g><path d="m77.691 106.419h-72.541c-2.844 0-5.15-2.306-5.15-5.15v-72.54c0-2.844 2.306-5.15 5.15-5.15h72.54c2.844 0 5.15 2.306 5.15 5.15v72.54c.001 2.844-2.305 5.15-5.149 5.15z" fill="#8bc727"/></g><g><path d="m34.511 101.269v-72.54c0-2.845 2.306-5.15 5.15-5.15h-34.511c-2.844 0-5.15 2.306-5.15 5.15v72.54c0 2.844 2.306 5.15 5.15 5.15h34.511c-2.844 0-5.15-2.306-5.15-5.15z" fill="#81b823"/></g><g><path d="m44.715 85.894c-1.919 0-3.839-.732-5.303-2.197l-16.945-16.945c-2.929-2.929-2.929-7.678 0-10.606 2.929-2.929 7.678-2.929 10.606 0l11.642 11.642 41.609-41.609c2.929-2.929 7.678-2.929 10.606 0 2.929 2.929 2.929 7.678 0 10.606l-46.911 46.912c-1.465 1.464-3.384 2.197-5.304 2.197z" fill="#bbec6c"/></g><g><path d="m215.889 72.499h-54.639c-4.142 0-7.5-3.358-7.5-7.5s3.358-7.5 7.5-7.5h54.639c4.142 0 7.5 3.358 7.5 7.5s-3.358 7.5-7.5 7.5z" fill="#62dbfb"/></g><g><path d="m136.526 72.499h-24.816c-4.142 0-7.5-3.358-7.5-7.5s3.358-7.5 7.5-7.5h24.816c4.142 0 7.5 3.358 7.5 7.5s-3.358 7.5-7.5 7.5z" fill="#62dbfb"/></g></g></g></svg>