<svg id="Capa_1" enable-background="new 0 0 512 512" height="512" viewBox="0 0 512 512" width="512" xmlns="http://www.w3.org/2000/svg"><g><path d="m368.85 223.241c-38.086 0-69.392-29.486-72.345-66.826-14.901-5.505-31.011-8.515-47.825-8.515-76.228 0-138.023 61.795-138.023 138.023 0 15.616 2.597 30.624 7.376 44.621 31.895 9.07 55.592 37.786 57.098 72.185 21.293 13.436 46.51 21.217 73.549 21.217 76.228 0 138.023-61.795 138.023-138.023 0-22.598-5.432-43.926-15.059-62.753-.929.035-1.857.071-2.794.071z" fill="#fac600"/><g><path d="m161.966 285.923c0-67.461 48.401-123.608 112.369-135.633-8.314-1.563-16.887-2.39-25.654-2.39-76.228 0-138.023 61.795-138.023 138.023 0 15.616 2.597 30.624 7.376 44.621 31.895 9.071 55.592 37.786 57.098 72.185 21.293 13.436 46.51 21.217 73.549 21.217 8.768 0 17.341-.827 25.654-2.39-63.968-12.026-112.369-68.173-112.369-135.633z" fill="#e8b800"/></g><g fill="#99e6fc"><path d="m65.927 333.742c-4.001-15.279-6.138-31.303-6.138-47.819 0-104.155 84.736-188.891 188.891-188.891 4.143 0 7.5-3.358 7.5-7.5s-3.357-7.5-7.5-7.5c-112.426 0-203.891 91.465-203.891 203.891 0 19.128 2.653 37.646 7.601 55.213 4.237-2.885 8.766-5.37 13.537-7.394z"/><path d="m444.936 311.449c-3.17 0-6.157-.767-8.817-2.096-11.575 93.139-91.217 165.46-187.439 165.46-32.035 0-62.227-8.026-88.688-22.158-3.048 4.152-6.488 7.997-10.274 11.475 29.324 16.349 63.071 25.683 98.961 25.683 104.122 0 190.254-78.457 202.411-179.355-1.939.636-4.005.991-6.154.991z"/></g><g><path d="m248.68 366.211c-25.718 0-46.641-20.923-46.641-46.641 0-4.142 3.357-7.5 7.5-7.5s7.5 3.358 7.5 7.5c0 17.447 14.194 31.641 31.641 31.641s31.642-14.194 31.642-31.641c0-4.142 3.357-7.5 7.5-7.5s7.5 3.358 7.5 7.5c-.001 25.718-20.924 46.641-46.642 46.641z" fill="#6e61b6"/></g><g><g><path d="m189.905 282.406c-11.416 0-22.832-4.345-31.522-13.036-2.93-2.929-2.93-7.677-.001-10.606 2.93-2.929 7.679-2.93 10.606 0 11.535 11.533 30.3 11.535 41.835 0 2.928-2.93 7.677-2.929 10.606 0s2.929 7.678 0 10.606c-8.691 8.69-20.107 13.036-31.524 13.036z" fill="#6e61b6"/></g><g><path d="m307.454 282.406c-11.416 0-22.832-4.345-31.522-13.036-2.93-2.929-2.93-7.677-.001-10.606 2.93-2.929 7.679-2.93 10.606 0 11.535 11.533 30.3 11.535 41.835 0 2.929-2.93 7.678-2.929 10.606 0 2.929 2.929 2.929 7.678 0 10.606-8.691 8.69-20.107 13.036-31.524 13.036z" fill="#6e61b6"/></g></g><g><g><circle cx="368.849" cy="150.647" fill="#62dbfb" r="73.594"/></g><g><path d="m328.382 150.647c0-34.947 24.366-64.183 57.031-71.699-5.326-1.226-10.865-1.895-16.563-1.895-40.645 0-73.594 32.949-73.594 73.594s32.949 73.594 73.594 73.594c5.698 0 11.237-.669 16.563-1.895-32.665-7.517-57.031-36.753-57.031-71.699z" fill="#01d0fb"/></g><g><path d="m387.577 178.747h-37.455c-2.969 0-5.658-1.751-6.858-4.466-1.201-2.715-.688-5.883 1.309-8.079l26.051-28.656h-20.501c-4.143 0-7.5-3.358-7.5-7.5s3.357-7.5 7.5-7.5h37.455c2.969 0 5.658 1.751 6.858 4.466 1.201 2.715.688 5.883-1.309 8.079l-26.051 28.656h20.501c4.143 0 7.5 3.358 7.5 7.5s-3.357 7.5-7.5 7.5z" fill="#fff"/></g></g><g><path d="m317.723 65.445h-37.455c-2.969 0-5.658-1.751-6.858-4.466-1.201-2.715-.688-5.883 1.309-8.079l26.051-28.656h-20.501c-4.143 0-7.5-3.358-7.5-7.5s3.357-7.5 7.5-7.5h37.455c2.969 0 5.658 1.751 6.858 4.466 1.201 2.715.688 5.883-1.309 8.079l-26.051 28.656h20.501c4.143 0 7.5 3.358 7.5 7.5s-3.358 7.5-7.5 7.5z" fill="#01d0fb"/></g><g><path d="m504.5 248.102h-37.455c-2.969 0-5.658-1.751-6.858-4.466-1.201-2.715-.688-5.883 1.309-8.079l26.051-28.656h-20.501c-4.143 0-7.5-3.358-7.5-7.5s3.357-7.5 7.5-7.5h37.454c2.969 0 5.658 1.751 6.858 4.466 1.201 2.715.688 5.883-1.309 8.079l-26.051 28.656h20.502c4.143 0 7.5 3.358 7.5 7.5s-3.357 7.5-7.5 7.5z" fill="#01d0fb"/></g><g><circle cx="96.548" cy="406.208" fill="#8bc727" r="96.548"/></g><g><path d="m96.548 477.379c-39.244 0-71.17-31.927-71.17-71.171s31.927-71.171 71.17-71.171 71.171 31.927 71.171 71.171-31.927 71.171-71.171 71.171z" fill="#fff"/></g><g><path d="m59.383 406.208c0-33.384 23.11-61.459 54.168-69.103-5.452-1.342-11.143-2.068-17.003-2.068-39.244 0-71.17 31.927-71.17 71.171s31.927 71.171 71.17 71.171c5.86 0 11.551-.726 17.003-2.068-31.059-7.644-54.168-35.719-54.168-69.103z" fill="#f2fbff"/></g><g><path d="m96.548 484.879c-43.379 0-78.67-35.292-78.67-78.671s35.291-78.671 78.67-78.671c43.38 0 78.672 35.292 78.672 78.671s-35.292 78.671-78.672 78.671zm0-142.342c-35.107 0-63.67 28.562-63.67 63.671s28.562 63.671 63.67 63.671 63.672-28.562 63.672-63.671-28.564-63.671-63.672-63.671z" fill="#bbec6c"/></g><g fill="#6e61b6"><path d="m96.548 392.208c2.76 0 5.329.814 7.5 2.198v-37.293c0-4.142-3.357-7.5-7.5-7.5s-7.5 3.358-7.5 7.5v37.293c2.171-1.384 4.74-2.198 7.5-2.198z"/><path d="m138.886 398.708h-30.536c1.385 2.171 2.198 4.74 2.198 7.5s-.814 5.329-2.198 7.5h30.536c4.143 0 7.5-3.358 7.5-7.5s-3.358-7.5-7.5-7.5z"/></g><g><circle cx="96.548" cy="406.208" fill="#fd4755" r="15"/></g><path d="m95 406.208c0-5.863 3.371-10.927 8.274-13.394-2.025-1.019-4.305-1.606-6.726-1.606-8.284 0-15 6.716-15 15s6.716 15 15 15c2.421 0 4.701-.587 6.726-1.606-4.903-2.467-8.274-7.531-8.274-13.394z" fill="#fb2b3a"/><g><circle cx="444.935" cy="291.64" fill="#62dbfb" r="20.809"/></g><g><path d="m441.057 291.64c0-8.475 5.074-15.753 12.344-18.998-2.588-1.155-5.448-1.811-8.465-1.811-11.493 0-20.809 9.317-20.809 20.809 0 11.493 9.317 20.809 20.809 20.809 3.018 0 5.877-.656 8.465-1.811-7.27-3.245-12.344-10.523-12.344-18.998z" fill="#01d0fb"/></g></g></svg>