<svg id="Capa_1" enable-background="new 0 0 512 512" height="512" viewBox="0 0 512 512" width="512" xmlns="http://www.w3.org/2000/svg"><g><path d="m388.926 420.823v-30.359c0-8.611 7.006-15.617 15.617-15.617h19.665c.553 0 1-.448 1-1v-17.668c0-2.289 1.862-4.151 4.151-4.151h3.986c.553 0 1-.448 1-1v-85.083c0-.552-.447-1-1-1h-3.986c-2.289 0-4.151-1.862-4.151-4.151v-17.668c0-.552-.447-1-1-1h-19.665c-8.611 0-15.617-7.006-15.617-15.617v-33.234c0-8.611 7.006-15.617 15.617-15.617h29.883v-51.39l-10.97-1h-376.973l-13.725 1v190.642c15.424-12.949 35.298-20.76 56.966-20.76 48.923 0 88.724 39.801 88.724 88.724 0 12.791-2.725 24.955-7.618 35.951h218.096z" fill="#dff6fd"/><g><path d="m76.749 297.1v-170.833h-43.991v190.642c12.287-10.315 27.398-17.367 43.991-19.809z" fill="#c8effe"/><path d="m388.926 392.041v-1.576c0-8.223 6.393-14.966 14.467-15.559v-132.838c-8.074-.593-14.467-7.336-14.467-15.559v-33.234c0-8.223 6.393-14.966 14.467-15.559v-22.666h-339.602v144.969c8.207-2.513 16.914-3.87 25.933-3.87 48.923 0 88.724 39.801 88.724 88.724 0 2.413-.101 4.803-.291 7.169h210.769z" fill="#fff"/><g><g><path d="m233.592 264.901h169.801v39.62h-169.801z" fill="#8bc727"/></g></g><g><g><path d="m233.592 264.901h34.949v39.62h-34.949z" fill="#81b823"/></g></g><g><g><g><path d="m63.791 197.335h169.801v39.62h-169.801z" fill="#fac600"/></g></g></g><g><g><g><path d="m63.791 197.335h34.949v39.62h-34.949z" fill="#e8b800"/></g></g></g><path d="m388.926 399.541v-9.076c0-2.097.422-4.095 1.175-5.924h-35.807v-27.286h41.6v20.217c2.479-1.656 5.453-2.625 8.65-2.625h6.35v-132.721h-6.35c-3.198 0-6.172-.969-8.65-2.625v17.9h-41.6v-52.566h34.633v-11.561c0-1.183.144-2.331.394-3.439h-35.027v-27.286h41.6v17.733c2.479-1.656 5.453-2.625 8.65-2.625h6.35v-22.608c0-4.142-3.357-7.5-7.5-7.5h-339.603c-4.143 0-7.5 3.358-7.5 7.5v147.645c4.806-1.962 9.819-3.516 15-4.614v-53.625h41.601v54.769c5.204 1.409 10.22 3.277 15 5.564v-60.333h41.6v97.8h-1.97c6.961 12.656 10.926 27.182 10.926 42.617 0 4.996-.422 9.895-1.219 14.668h211.697zm-162.834-15h-41.601v-27.286h41.601zm0-119.64v39.62 37.734h-41.601v-97.8h41.601zm113.201 119.64h-41.601v-27.286h41.601zm0-42.286h-41.601v-30.234h41.601zm56.6 0h-41.6v-30.234h41.6zm-98.201-179.706h41.601v27.286h-41.601zm0 42.286h41.601v52.566h-41.601zm-56.6-42.286h41.601v27.286h-41.601zm0 74.406v-32.12h41.601v52.566h-41.601zm0 35.446h154.801v24.62h-154.801zm0 39.62h41.601v30.234h-41.601zm0 45.234h41.601v27.286h-41.601zm-56.601-194.706h41.601v27.286h-41.601zm-56.599 0h41.6v27.286h-41.6zm-56.601 0h41.601v27.286h-41.601zm0 66.906v-24.62h154.801v24.62z" fill="#99e6fc"/><g><g><g><path d="m434.425 126.267h-401.667v-50.466c0-8.532 6.917-15.449 15.449-15.449h370.77c8.532 0 15.449 6.917 15.449 15.449v50.466z" fill="#fd4755"/></g></g></g><g><g><g><path d="m92.197 60.353h-43.99c-8.532 0-15.449 6.916-15.449 15.449v50.466h43.991v-50.467c-.001-8.532 6.916-15.448 15.448-15.448z" fill="#fb2b3a"/></g></g></g><g><g><g><g><path d="m71.38 92.57c-4.143 0-7.5-3.358-7.5-7.5v-40.166c0-4.142 3.357-7.5 7.5-7.5s7.5 3.358 7.5 7.5v40.166c0 4.142-3.358 7.5-7.5 7.5z" fill="#f6a96c"/></g></g></g><g><g><g><path d="m107.427 92.57c-4.143 0-7.5-3.358-7.5-7.5v-40.166c0-4.142 3.357-7.5 7.5-7.5s7.5 3.358 7.5 7.5v40.166c0 4.142-3.358 7.5-7.5 7.5z" fill="#f6a96c"/></g></g></g><g><g><g><path d="m143.474 92.57c-4.143 0-7.5-3.358-7.5-7.5v-40.166c0-4.142 3.357-7.5 7.5-7.5s7.5 3.358 7.5 7.5v40.166c0 4.142-3.358 7.5-7.5 7.5z" fill="#f6a96c"/></g></g></g><g><g><g><path d="m179.521 92.57c-4.143 0-7.5-3.358-7.5-7.5v-40.166c0-4.142 3.357-7.5 7.5-7.5s7.5 3.358 7.5 7.5v40.166c0 4.142-3.357 7.5-7.5 7.5z" fill="#f6a96c"/></g></g></g><g><g><g><path d="m215.568 92.57c-4.143 0-7.5-3.358-7.5-7.5v-40.166c0-4.142 3.357-7.5 7.5-7.5s7.5 3.358 7.5 7.5v40.166c0 4.142-3.357 7.5-7.5 7.5z" fill="#f6a96c"/></g></g></g><g><g><g><path d="m251.615 92.57c-4.143 0-7.5-3.358-7.5-7.5v-40.166c0-4.142 3.357-7.5 7.5-7.5s7.5 3.358 7.5 7.5v40.166c0 4.142-3.357 7.5-7.5 7.5z" fill="#f6a96c"/></g></g></g><g><g><g><path d="m287.662 92.57c-4.143 0-7.5-3.358-7.5-7.5v-40.166c0-4.142 3.357-7.5 7.5-7.5s7.5 3.358 7.5 7.5v40.166c0 4.142-3.357 7.5-7.5 7.5z" fill="#f6a96c"/></g></g></g><g><g><g><path d="m323.709 92.57c-4.143 0-7.5-3.358-7.5-7.5v-40.166c0-4.142 3.357-7.5 7.5-7.5s7.5 3.358 7.5 7.5v40.166c0 4.142-3.357 7.5-7.5 7.5z" fill="#f6a96c"/></g></g></g><g><g><g><path d="m359.757 92.57c-4.143 0-7.5-3.358-7.5-7.5v-40.166c0-4.142 3.357-7.5 7.5-7.5s7.5 3.358 7.5 7.5v40.166c0 4.142-3.358 7.5-7.5 7.5z" fill="#f6a96c"/></g></g></g><g><g><g><path d="m395.804 92.57c-4.143 0-7.5-3.358-7.5-7.5v-40.166c0-4.142 3.357-7.5 7.5-7.5s7.5 3.358 7.5 7.5v40.166c0 4.142-3.358 7.5-7.5 7.5z" fill="#f6a96c"/></g></g></g></g></g><g><g><g><g><path d="m433.346 264.915h33.234v87.143h-33.234z" fill="#c2bce0"/></g></g></g><g><g><path d="m433.346 264.915h16.328v87.143h-16.328z" fill="#aca6d6"/></g></g><g fill="#463b84"><path d="m429.359 265.945h41.208c2.845 0 5.151-2.306 5.151-5.151v-18.668h-51.509v18.668c-.001 2.845 2.305 5.151 5.15 5.151z"/><path d="m470.566 351.028h-41.208c-2.845 0-5.151 2.306-5.151 5.151v18.669h51.509v-18.669c.001-2.845-2.305-5.151-5.15-5.151z"/></g><g><g><g><path d="m387.925 226.509v-33.234c0-9.177 7.44-16.617 16.617-16.617h90.84c9.177 0 16.617 7.44 16.617 16.617v33.234c0 9.177-7.44 16.617-16.617 16.617h-90.84c-9.177 0-16.617-7.44-16.617-16.617z" fill="#54469c"/></g></g><g><g><path d="m422.889 226.509v-33.234c0-9.177 7.44-16.617 16.617-16.617h-34.964c-9.177 0-16.617 7.44-16.617 16.617v33.234c0 9.177 7.44 16.617 16.617 16.617h34.964c-9.177 0-16.617-7.44-16.617-16.617z" fill="#463b84"/></g></g><g><g><path d="m387.925 423.699v-33.234c0-9.177 7.44-16.617 16.617-16.617h90.84c9.177 0 16.617 7.44 16.617 16.617v33.234c0 9.177-7.44 16.617-16.617 16.617h-90.84c-9.177 0-16.617-7.44-16.617-16.617z" fill="#54469c"/></g></g><g><g><path d="m422.889 423.699v-33.234c0-9.177 7.44-16.617 16.617-16.617h-34.964c-9.177 0-16.617 7.44-16.617 16.617v33.234c0 9.177 7.44 16.617 16.617 16.617h34.964c-9.177 0-16.617-7.44-16.617-16.617z" fill="#463b84"/></g></g></g></g><g><g><g><circle cx="89.724" cy="384.873" fill="#fe7701" r="89.724"/></g></g><path d="m66.124 444.311c-23.623-9.413-40.37-32.499-40.37-59.438s16.747-50.026 40.37-59.439c11.819-13.347 27.541-23.159 45.392-27.614-6.978-1.741-14.277-2.671-21.793-2.671-49.552 0-89.723 40.171-89.723 89.724s40.171 89.723 89.724 89.723c7.517 0 14.816-.93 21.793-2.671-17.851-4.455-33.574-14.267-45.393-27.614z" fill="#f46700"/><g><g><circle cx="89.723" cy="384.873" fill="#fff" r="63.969"/></g></g><g><g><path d="m54.92 384.873c0-30.255 21.12-55.654 49.386-62.272-4.688-1.098-9.565-1.697-14.582-1.697-35.273 0-63.969 28.697-63.969 63.969s28.696 63.969 63.969 63.969c5.017 0 9.895-.599 14.582-1.697-28.267-6.619-49.386-32.017-49.386-62.272z" fill="#f2fbff"/></g></g><g fill="#62dbfb"><path d="m134.347 384.873c0 4.142 3.357 7.5 7.5 7.5h11.391c.289-2.462.454-4.961.454-7.5s-.165-5.038-.454-7.5h-11.391c-4.143 0-7.5 3.357-7.5 7.5z"/><path d="m37.602 377.373h-11.393c-.289 2.462-.454 4.962-.454 7.5s.165 5.038.454 7.5h11.393c4.143 0 7.5-3.358 7.5-7.5s-3.358-7.5-7.5-7.5z"/><path d="m89.724 429.495c-4.143 0-7.5 3.358-7.5 7.5v11.392c2.462.289 4.961.454 7.5.454s5.038-.165 7.5-.454v-11.392c0-4.142-3.358-7.5-7.5-7.5z"/></g><path d="m89.724 370.873c2.76 0 5.329.814 7.5 2.198v-31.937c0-4.142-3.357-7.5-7.5-7.5s-7.5 3.358-7.5 7.5v31.937c2.171-1.385 4.739-2.198 7.5-2.198z" fill="#99e6fc"/><g><g><circle cx="89.724" cy="384.873" fill="#62dbfb" r="15"/></g></g></g><g><g><path d="m89.724 456.341c-39.408 0-71.469-32.061-71.469-71.469s32.061-71.469 71.469-71.469 71.469 32.061 71.469 71.469-32.061 71.469-71.469 71.469zm0-127.938c-31.137 0-56.469 25.332-56.469 56.469s25.332 56.469 56.469 56.469 56.469-25.332 56.469-56.469-25.333-56.469-56.469-56.469z" fill="#f6a96c"/></g></g></g></svg>