<svg id="Capa_1" enable-background="new 0 0 512 512" height="512" viewBox="0 0 512 512" width="512" xmlns="http://www.w3.org/2000/svg"><g><g><g><g fill="#aca6d6"><path d="m435.256 100.78h-38.717v30.589c0 3.056-1.204 6.02-3.077 8.783h41.794z"/><path d="m288.752 100.78h-38.121v39.372h40.932c-1.759-2.816-2.811-5.774-2.811-8.783z"/></g><g><g><path d="m240.426 193.961h-54.335c-6.74 0-12.204-5.464-12.204-12.204v-122.581c0-6.74 5.464-12.204 12.204-12.204h54.335c6.74 0 12.204 5.464 12.204 12.204v122.58c.001 6.74-5.463 12.205-12.204 12.205z" fill="#54469c"/></g><g><path d="m208.612 181.756v-122.58c0-6.74 5.464-12.204 12.204-12.204h-34.725c-6.74 0-12.204 5.464-12.204 12.204v122.58c0 6.74 5.464 12.204 12.204 12.204h34.725c-6.74.001-12.204-5.464-12.204-12.204z" fill="#463b84"/></g><g><path d="m499.796 193.961h-54.336c-6.74 0-12.204-5.464-12.204-12.204v-122.581c0-6.74 5.464-12.204 12.204-12.204h54.335c6.74 0 12.204 5.464 12.204 12.204v122.58c.001 6.74-5.463 12.205-12.203 12.205z" fill="#54469c"/></g><g><path d="m468.217 181.756v-122.58c0-6.74 5.464-12.204 12.204-12.204h-34.961c-6.74 0-12.204 5.464-12.204 12.204v122.58c0 6.74 5.464 12.204 12.204 12.204h34.962c-6.741.001-12.205-5.464-12.205-12.204z" fill="#463b84"/></g></g></g><g><path d="m406.027 349.617-33.414-181.063c-.915-4.957 1.282-10.009 5.596-12.615 9.654-5.833 20.33-14.672 20.33-24.57v-38.171c0-7.867-5.871-14.729-13.71-15.393-6.576-.557-12.381 3.207-14.919 8.746-2.371-5.176-7.593-8.801-13.632-8.801s-11.262 3.625-13.633 8.801c-2.371-5.176-7.593-8.801-13.633-8.801-6.039 0-11.262 3.625-13.633 8.801-2.537-5.54-8.342-9.303-14.919-8.746-7.839.664-13.71 7.526-13.71 15.393v38.171c0 11.209 12.336 21.063 23.471 26.729 4.309 2.193 6.855 6.785 6.543 11.61l-9.216 142.804c-18.758-9.953-42.507-15.903-68.345-15.903-25.731 0-49.393 5.9-68.115 15.78-17.616-23.238-45.648-38.145-77.15-37.74-50.907.655-92.717 41.995-93.914 92.892-1.261 53.623 41.83 97.488 95.167 97.488 30.992 0 58.515-14.818 75.897-37.748 18.722 9.879 42.384 15.78 68.115 15.78 41.931 0 78.368-15.665 96.877-38.694l36.029-7.251c22.048-4.438 36.879-25.207 33.918-47.499z" fill="#fed2a4"/></g><g><path d="m342.524 169.707c.311-4.825-2.234-9.417-6.543-11.61-11.135-5.666-23.471-15.52-23.471-26.729v-38.17c0-2.877.792-5.616 2.172-7.971-2.806-4.8-8.184-7.933-14.22-7.422-7.839.664-13.71 7.526-13.71 15.393v38.171c0 11.209 12.336 21.063 23.471 26.729 4.309 2.193 6.855 6.785 6.543 11.61l-9.137 141.59.567 1.214c1.618.463 3.216.631 4.793.619 11.523-.089 20.886-9.39 21.628-20.89z" fill="#ffbd86"/></g><g><g><path d="m43.298 367.54c1.033-43.931 32.323-80.736 73.603-90.411-7.362-1.718-15.051-2.583-22.96-2.481-50.907.655-92.717 41.994-93.914 92.892-1.261 53.623 41.83 97.488 95.167 97.488 7.437 0 14.671-.862 21.616-2.476-42.853-9.968-74.597-48.878-73.512-95.012z" fill="#ffbd86"/></g></g></g><g><g><path d="m229.23 266.811c-4.142 0-7.5-3.358-7.5-7.5v-20.017c0-4.142 3.358-7.5 7.5-7.5s7.5 3.358 7.5 7.5v20.017c0 4.142-3.358 7.5-7.5 7.5z" fill="#fac600"/></g><g><g><path d="m195.403 274.818c-1.919 0-3.839-.732-5.303-2.197l-14.154-14.154c-2.929-2.929-2.929-7.678 0-10.606 2.929-2.929 7.678-2.929 10.606 0l14.154 14.154c2.929 2.929 2.929 7.678 0 10.606-1.464 1.464-3.383 2.197-5.303 2.197z" fill="#fac600"/></g><g><path d="m263.057 274.818c-1.919 0-3.839-.732-5.303-2.197-2.929-2.929-2.929-7.678 0-10.606l14.154-14.154c2.929-2.929 7.678-2.929 10.606 0 2.929 2.929 2.929 7.678 0 10.606l-14.154 14.154c-1.464 1.464-3.384 2.197-5.303 2.197z" fill="#fac600"/></g></g></g></g></svg>