<svg id="Capa_1" enable-background="new 0 0 512 512" height="512" viewBox="0 0 512 512" width="512" xmlns="http://www.w3.org/2000/svg"><g><g fill="#8bc727"><path d="m477.359 275.641c0 27.28-4.913 53.803-14.299 78.571 3.564 5.922 6.356 12.352 8.274 19.147 13.765-30.295 21.025-63.446 21.025-97.718 0-44.663-12.52-88.154-36.205-125.771-2.207-3.505-6.838-4.557-10.343-2.351-3.505 2.207-4.558 6.838-2.351 10.343 22.178 35.221 33.899 75.948 33.899 117.779z"/><path d="m365.941 467.866c-33.104 19.004-70.742 29.134-109.941 29.134-59.127 0-114.715-23.025-156.525-64.834-41.809-41.81-64.834-97.397-64.834-156.525 0-94.853 60.292-179.092 150.031-209.618 3.921-1.334 6.019-5.595 4.685-9.516s-5.594-6.017-9.516-4.685c-95.82 32.596-160.2 122.542-160.2 223.819 0 63.134 24.585 122.489 69.228 167.131s103.997 69.228 167.131 69.228c46.963 0 91.829-13.614 130.11-38.958-7.048-.835-13.812-2.601-20.169-5.176z"/></g><g><path d="m407.039 113.772-22.203 22.203c3.675 3.393 7.216 6.929 10.614 10.598l22.195-22.195z" fill="#99e6fc"/><g><path d="m449.036 111.999-19.672 19.672c-2.003 2.003-5.25 2.003-7.253 0l-22.365-22.365c-2.003-2.003-2.003-5.25 0-7.253l19.672-19.672c2.003-2.003 5.25-2.003 7.253 0l22.365 22.365c2.003 2.003 2.003 5.25 0 7.253z" fill="#62dbfb"/></g><g><path d="m421.947 109.307c-2.003-2.003-2.003-5.25 0-7.253l12.198-12.198-7.474-7.474c-2.003-2.003-5.25-2.003-7.253 0l-19.672 19.672c-2.003 2.003-2.003 5.25 0 7.253l22.365 22.365c2.003 2.003 5.25 2.003 7.253 0l7.474-7.474z" fill="#01d0fb"/></g></g><path d="m231.912 45.73v41.317c7.891-1.002 15.93-1.52 24.088-1.52 8.005 0 15.894.503 23.642 1.469v-41.266z" fill="#99e6fc"/><path d="m231.912 45.73v41.317c6.906-.877 13.929-1.369 21.043-1.481v-39.836z" fill="#62dbfb"/><g><path d="m303.507 5.129v37.472c0 2.833-2.296 5.129-5.129 5.129h-85.202c-2.833 0-5.129-2.296-5.129-5.129v-37.472c0-2.833 2.296-5.129 5.129-5.129h85.202c2.832 0 5.129 2.296 5.129 5.129z" fill="#fd4755"/></g><g><path d="m231.912 6.642h47.73v34.447h-47.73z" fill="#fb2b3a" transform="matrix(0 -1 1 0 231.912 279.642)"/></g><path d="m316.581 394.75c0-43.485 35.378-78.863 78.863-78.863 16.662 0 32.123 5.208 44.871 14.062 5.067-17.223 7.798-35.445 7.798-54.309 0-106.101-86.012-192.113-192.113-192.113s-192.113 86.012-192.113 192.114 86.012 192.113 192.113 192.113c29.519 0 57.479-6.666 82.469-18.562-13.543-14.167-21.888-33.342-21.888-54.442z" fill="#fd4755"/><path d="m316.581 394.75c0-43.485 35.378-78.863 78.863-78.863 7.391 0 14.539 1.044 21.328 2.954 3.707-13.783 5.697-28.263 5.697-43.201 0-91.791-74.678-166.469-166.469-166.469s-166.469 74.679-166.469 166.47 74.678 166.468 166.469 166.468c24.134 0 47.082-5.169 67.804-14.447-4.624-10.025-7.223-21.167-7.223-32.912z" fill="#fff3de"/><g><path d="m132.171 275.641c0-84.569 63.389-154.61 145.149-165.108-6.982-.897-14.098-1.361-21.32-1.361-91.791 0-166.469 74.678-166.469 166.469s74.678 166.468 166.469 166.468c7.222 0 14.338-.464 21.32-1.361-81.759-10.498-145.149-80.539-145.149-165.107z" fill="#ffe5c2"/></g><g fill="#ffbd86"><path d="m185.748 397.321c-3.588-2.072-8.175-.842-10.245 2.745l-6.371 11.035 12.98 7.517 6.381-11.052c2.071-3.587.842-8.174-2.745-10.245z"/><path d="m134.319 345.893c-2.071-3.587-6.659-4.815-10.245-2.745l-11.053 6.382 7.517 12.98 11.036-6.372c3.588-2.072 4.817-6.659 2.745-10.245z"/><path d="m263.5 436.428v-12.783c0-4.142-3.358-7.5-7.5-7.5s-7.5 3.358-7.5 7.5v12.783c2.487.115 4.986.18 7.5.18s5.013-.065 7.5-.18z"/><path d="m329.889 132.662-6.381 11.053c-2.071 3.587-.842 8.174 2.745 10.245 1.181.682 2.471 1.006 3.743 1.006 2.592 0 5.113-1.346 6.502-3.751l6.371-11.036z"/><path d="m391.461 188.772-11.036 6.371c-3.587 2.071-4.816 6.658-2.745 10.245 1.389 2.406 3.91 3.751 6.502 3.751 1.272 0 2.562-.324 3.743-1.006l11.053-6.381z"/><path d="m107.996 283.141c4.142 0 7.5-3.358 7.5-7.5s-3.358-7.5-7.5-7.5h-12.784c-.115 2.487-.18 4.986-.18 7.5s.066 5.013.18 7.5z"/><path d="m131.574 195.143-11.036-6.371-7.517 12.98 11.053 6.381c1.181.682 2.471 1.006 3.743 1.006 2.592 0 5.113-1.346 6.502-3.751 2.072-3.587.843-8.174-2.745-10.245z"/><path d="m188.493 143.715-6.381-11.053-12.98 7.517 6.371 11.036c1.389 2.406 3.91 3.751 6.502 3.751 1.272 0 2.562-.324 3.743-1.006 3.587-2.071 4.816-6.658 2.745-10.245z"/><path d="m256 135.136c4.142 0 7.5-3.358 7.5-7.5v-12.783c-2.487-.115-4.986-.18-7.5-.18s-5.013.066-7.5.18v12.783c0 4.142 3.358 7.5 7.5 7.5z"/><path d="m404.004 268.141c-4.142 0-7.5 3.358-7.5 7.5s3.358 7.5 7.5 7.5h12.784c.115-2.487.18-4.986.18-7.5s-.066-5.013-.18-7.5z"/></g><path d="m256 194.39c-44.802 0-81.251 36.449-81.251 81.251 0 32.635 19.351 60.82 47.172 73.731.486-8.362 7.423-15.021 15.904-15.021h35.902c8.548 0 15.527 6.764 15.914 15.219 28.055-12.818 47.609-41.124 47.609-73.929.001-44.802-36.448-81.251-81.25-81.251z" fill="#c8effe"/><path d="m234.709 334.661c-15.684-14.817-25.49-35.791-25.49-59.021 0-38.888 27.467-71.466 64.016-79.393-5.558-1.206-11.321-1.857-17.235-1.857-44.802 0-81.251 36.449-81.251 81.251 0 32.635 19.351 60.82 47.172 73.731.425-7.31 5.777-13.316 12.788-14.711z" fill="#99e6fc"/><g><path d="m291.679 350.302c0 9.914-8.037 17.951-17.951 17.951h-35.902c-9.914 0-17.951-8.037-17.951-17.951 0-9.914 8.037-17.951 17.951-17.951h35.902c9.914 0 17.951 8.037 17.951 17.951z" fill="#62dbfb"/></g><g><path d="m245.849 350.302c0-9.914 8.037-17.951 17.951-17.951h-25.975c-9.914 0-17.951 8.037-17.951 17.951s8.037 17.951 17.951 17.951h25.975c-9.914 0-17.951-8.037-17.951-17.951z" fill="#01d0fb"/></g><g fill="#aca6d6"><path d="m235.328 275.641c0-2.647.518-5.171 1.43-7.5h-19.625c-4.142 0-7.5 3.358-7.5 7.5s3.358 7.5 7.5 7.5h19.625c-.911-2.329-1.43-4.853-1.43-7.5z"/><path d="m365.87 268.141h-90.627c.911 2.329 1.43 4.853 1.43 7.5s-.519 5.171-1.43 7.5h90.627c4.142 0 7.5-3.358 7.5-7.5s-3.358-7.5-7.5-7.5z"/></g><g><circle cx="256" cy="275.64" fill="#54469c" r="22.672"/></g><g><path d="m254.985 275.641c0-8.599 4.788-16.08 11.843-19.923-3.218-1.752-6.907-2.749-10.828-2.749-12.521 0-22.672 10.15-22.672 22.672 0 12.521 10.15 22.672 22.672 22.672 3.922 0 7.611-.996 10.828-2.749-7.055-3.843-11.843-11.324-11.843-19.923z" fill="#463b84"/></g><path d="m320.991 420.707c-19.851 8.928-41.85 13.902-64.991 13.902-87.656 0-158.969-71.313-158.969-158.968 0-87.656 71.313-158.969 158.969-158.969s158.969 71.313 158.969 158.969c0 14.36-1.925 28.277-5.512 41.518 4.992.899 9.82 2.267 14.441 4.061 3.95-14.534 6.071-29.812 6.071-45.579 0-95.927-78.042-173.969-173.969-173.969s-173.969 78.042-173.969 173.969c0 95.926 78.042 173.968 173.969 173.968 25.383 0 49.511-5.467 71.275-15.281-2.507-4.301-4.618-8.856-6.284-13.621z" fill="#fb2b3a"/><g><g><circle cx="395.444" cy="394.751" fill="#fac600" r="80.863"/></g><g><path d="m354.137 394.751c0-37.835 25.988-69.592 61.085-78.417-6.33-1.592-12.954-2.446-19.778-2.446-44.66 0-80.863 36.204-80.863 80.863s36.204 80.863 80.863 80.863c6.824 0 13.447-.855 19.778-2.446-35.097-8.825-61.085-40.582-61.085-78.417z" fill="#e8b800"/></g><g><g><path d="m372.139 430.208c-4.142 0-7.5-3.358-7.5-7.5v-48.416h-7.321c-4.142 0-7.5-3.358-7.5-7.5s3.358-7.5 7.5-7.5h14.821c4.142 0 7.5 3.358 7.5 7.5v55.916c0 4.143-3.358 7.5-7.5 7.5z" fill="#fff"/></g><g><path d="m416.06 430.208c-13.791 0-25.011-11.22-25.011-25.01v-20.896c0-13.791 11.22-25.01 25.011-25.01s25.011 11.22 25.011 25.01v20.896c0 13.791-11.22 25.01-25.011 25.01zm0-55.916c-5.52 0-10.011 4.491-10.011 10.01v20.896c0 5.52 4.491 10.01 10.011 10.01s10.011-4.491 10.011-10.01v-20.896c0-5.519-4.491-10.01-10.011-10.01z" fill="#fff"/></g></g></g></g></svg>