<svg id="Capa_1" enable-background="new 0 0 512 512" height="512" viewBox="0 0 512 512" width="512" xmlns="http://www.w3.org/2000/svg"><g><path d="m313.227 121.645 3.909 38.986 2.826 1h144.771l3.37-1 3.909-38.986z" fill="#c8effe"/><g><g><path d="m355.909 160.631-3.908-38.986h-38.774l3.909 38.986z" fill="#99e6fc"/></g><path d="m450.429 336.938 17.675-176.307h-150.968l17.675 176.307z" fill="#ffbd86"/><path d="m373.584 336.938-17.675-176.307h-38.773l17.675 176.307z" fill="#f6a96c"/><path d="m502.72 335.938h-209.923v15h209.923c4.143 0 7.5-3.358 7.5-7.5 0-4.143-3.358-7.5-7.5-7.5z" fill="#62dbfb"/><path d="m420.472 38.176c9.203 0 17.884 2.668 25.269 7.283v-20.821c-.001-13.607-11.031-24.638-24.638-24.638h-24.032v38.176z" fill="#fe7701"/><path d="m397.071 0h22.216v38.176h-22.216z" fill="#f46700"/><path d="m420.471 37.176h-49.516v-23.176h-48.669v47.759c-3.503 6.078-5.728 12.979-6.34 20.339h153.352c-2.079-25.153-23.137-44.922-48.827-44.922z" fill="#fe860a"/><path d="m322.286 14v47.759c-3.503 6.078-5.728 12.979-6.34 20.339h25.82c.612-7.36 2.837-14.261 6.34-20.339v-47.759z" fill="#fe7701"/><path d="m398.071 0h-93.591c-4.143 0-7.5 3.358-7.5 7.5s3.357 7.5 7.5 7.5h93.591z" fill="#f46700"/><g><path d="m481.915 122.645h-178.591c-2.803 0-5.075-2.272-5.075-5.075v-31.397c0-2.803 2.272-5.075 5.075-5.075h178.591c2.803 0 5.075 2.272 5.075 5.075v31.396c.001 2.803-2.272 5.076-5.075 5.076z" fill="#fe7701"/></g><g><path d="m340.627 117.569v-31.396c0-2.803 2.272-5.075 5.075-5.075h-42.379c-2.803 0-5.075 2.272-5.075 5.075v31.396c0 2.803 2.272 5.075 5.075 5.075h42.379c-2.802.001-5.075-2.272-5.075-5.075z" fill="#f46700"/></g><g fill="#ffe5c2"><path d="m392.248 202.852h15.581c4.143 0 7.5-3.358 7.5-7.5s-3.357-7.5-7.5-7.5h-15.581c-4.143 0-7.5 3.358-7.5 7.5s3.357 7.5 7.5 7.5z"/><path d="m407.829 219.012h-15.581c-4.143 0-7.5 3.358-7.5 7.5s3.357 7.5 7.5 7.5h15.581c4.143 0 7.5-3.358 7.5-7.5s-3.357-7.5-7.5-7.5z"/><path d="m407.829 250.173h-15.581c-4.143 0-7.5 3.358-7.5 7.5s3.357 7.5 7.5 7.5h15.581c4.143 0 7.5-3.358 7.5-7.5s-3.357-7.5-7.5-7.5z"/><path d="m407.829 281.333h-15.581c-4.143 0-7.5 3.358-7.5 7.5s3.357 7.5 7.5 7.5h15.581c4.143 0 7.5-3.358 7.5-7.5s-3.357-7.5-7.5-7.5z"/></g></g><path d="m80.149 156.882h135.278c5.291 0 10.459.537 15.455 1.554v-40.539h-166.187v40.539c4.995-1.017 10.163-1.554 15.454-1.554z" fill="#c2bce0"/><path d="m80.149 156.882h27.229v-38.986h-42.683v40.539c4.995-1.016 10.163-1.553 15.454-1.553z" fill="#aca6d6"/><g><path d="m243.613 120.271h-191.649c-2.803 0-5.075-2.272-5.075-5.075v-43.268c0-2.803 2.272-5.075 5.075-5.075h191.649c2.803 0 5.075 2.272 5.075 5.075v43.267c.001 2.803-2.272 5.076-5.075 5.076z" fill="#fe7701"/></g><g><path d="m98.159 115.195v-43.267c0-2.803 2.272-5.075 5.075-5.075h-51.27c-2.803 0-5.075 2.272-5.075 5.075v43.267c0 2.803 2.272 5.075 5.075 5.075h51.27c-2.803.001-5.075-2.272-5.075-5.075z" fill="#f46700"/></g><g fill="#54469c"><path d="m293.319 262.926.478-1v-27.675c0-43.282-35.087-78.369-78.369-78.369h-135.278c-43.282 0-78.369 35.087-78.369 78.369v27.675l3.153 1z"/><path d="m6.679 438.985-4.898 1v60.144c-.001 6.556 5.314 11.871 11.87 11.871h194.282l1-1.189v-71.176l.31-.65z"/></g><g fill="#463b84"><path d="m13.651 512h51.512c-6.556 0-11.871-5.315-11.871-11.871v-60.144h-51.512v60.144c0 6.556 5.315 11.871 11.871 11.871z"/><path d="m53.292 234.251c0-43.282 35.087-78.369 78.369-78.369h-51.511c-43.282 0-78.369 35.087-78.369 78.369v27.675h51.512v-27.675z"/></g><path d="m208.933 414.988c0-2.247 1.828-4.075 4.075-4.075h77.933l2.856-1v-147.987h-208.922l-1 4.745v167.507l1 5.807h123.058l1-.35z" fill="#f2fbff"/><g><path d="m84.875 261.926h34.398v178.059h-34.398z" fill="#dff6fd"/></g><g><circle cx="195.271" cy="350.956" fill="#fe7701" r="58.166"/></g><g><path d="m171.446 350.956c0-26.147 17.253-48.261 40.995-55.587-5.428-1.675-11.193-2.579-17.171-2.579-32.124 0-58.166 26.042-58.166 58.166s26.042 58.166 58.166 58.166c5.977 0 11.743-.905 17.171-2.579-23.741-7.326-40.995-29.441-40.995-55.587z" fill="#f46700"/></g><g><path d="m326.602 410.928c.911-2.481 1.413-5.159 1.413-7.957 0-12.784-10.364-23.148-23.148-23.148-1.371 0-2.707.142-4.013.371l-2.255-3.906c-10.667-18.477-37.336-18.477-48.004 0l-2.255 3.906c-1.306-.229-2.642-.371-4.013-.371-12.784 0-23.148 10.364-23.148 23.148 0 2.797.502 5.476 1.412 7.957z" fill="#ffbd86"/></g><g><path d="m278.443 388.015c1.371 0 2.707.142 4.013.371l2.255-3.906c2.968-5.141 7.177-8.847 11.933-11.127-11.671-15.474-35.982-14.501-46.049 2.936l-2.255 3.906c-1.306-.229-2.642-.371-4.013-.371-12.784 0-23.148 10.364-23.148 23.148 0 2.797.502 5.476 1.412 7.957h32.709c.127-12.676 10.437-22.914 23.143-22.914z" fill="#f6a96c"/></g><g><path d="m341.261 409.913-1.015 1.878v37.25l1.015 2.969 97.676-17.054c12.169-2.125 21.049-12.69 21.049-25.042h-118.725z" fill="#99e6fc"/></g><g><path d="m1.78 261.926h83.094v178.059h-83.094z" fill="#62dbfb"/></g><g><path d="m1.78 318.509h26.134v121.476h-26.134z" fill="#01d0fb"/></g><g><path d="m1.78 261.926h83.094v56.583h-83.094z" fill="#c8effe"/></g><g><path d="m1.78 261.926h26.134v56.583h-26.134z" fill="#99e6fc"/></g><g fill="#fff"><path d="m29.083 360.434h26.115c4.142 0 7.5-3.358 7.5-7.5s-3.358-7.5-7.5-7.5h-26.115c-4.142 0-7.5 3.358-7.5 7.5s3.358 7.5 7.5 7.5z"/><path d="m55.198 370.362h-26.115c-4.142 0-7.5 3.358-7.5 7.5s3.358 7.5 7.5 7.5h26.115c4.142 0 7.5-3.358 7.5-7.5s-3.358-7.5-7.5-7.5z"/><path d="m55.198 395.291h-26.115c-4.142 0-7.5 3.358-7.5 7.5s3.358 7.5 7.5 7.5h26.115c4.142 0 7.5-3.358 7.5-7.5s-3.358-7.5-7.5-7.5z"/></g><g><path d="m331.11 512h-123.177v-97.012c0-2.803 2.272-5.075 5.075-5.075h128.252v91.936c.001 5.606-4.544 10.151-10.15 10.151z" fill="#c8effe"/></g><g><path d="m247.174 409.913h-34.166c-2.803 0-5.075 2.272-5.075 5.075v97.012h34.166v-97.012c0-2.803 2.272-5.075 5.075-5.075z" fill="#99e6fc"/></g></g></svg>