<svg id="Capa_1" enable-background="new 0 0 512 512" height="512" viewBox="0 0 512 512" width="512" xmlns="http://www.w3.org/2000/svg"><g><g><g fill="#c2bce0"><path d="m295.177 317.78h47.071v25.755h-47.071z"/><path d="m169.752 317.78h47.071v25.755h-47.071z"/><path d="m506.849 317.78h-25.724v25.755h25.724c2.845 0 5.151-2.306 5.151-5.151v-15.453c0-2.845-2.306-5.151-5.151-5.151z"/><path d="m30.875 317.78h-25.724c-2.845 0-5.151 2.306-5.151 5.151v15.453c0 2.845 2.306 5.151 5.151 5.151h25.724z"/></g><g><path d="m293.087 348.17h-74.173c-1.707 0-3.091-1.384-3.091-3.091v-28.845c0-1.707 1.384-3.091 3.091-3.091h74.173c1.707 0 3.091 1.384 3.091 3.091v28.845c-.001 1.708-1.385 3.091-3.091 3.091z" fill="#62dbfb"/></g><g><path d="m240.547 345.08v-28.845c0-1.707 1.384-3.091 3.091-3.091h-24.724c-1.707 0-3.091 1.384-3.091 3.091v28.845c0 1.707 1.384 3.091 3.091 3.091h24.724c-1.707-.001-3.091-1.384-3.091-3.091z" fill="#01d0fb"/></g><g><g><g><path d="m63.584 284.814h-23.407c-5.689 0-10.302 4.612-10.302 10.302v71.083c0 5.69 4.612 10.302 10.302 10.302h23.407z" fill="#62dbfb"/><path d="m29.875 340.698v25.5c0 5.69 4.612 10.302 10.302 10.302h23.407v-25.5h-23.407c-5.689 0-10.302-4.612-10.302-10.302z" fill="#01d0fb"/><path d="m160.451 247.728h-15.453c-5.69 0-10.302 4.612-10.302 10.302 0-5.69-4.612-10.302-10.302-10.302h-15.453c-5.689 0-10.302 4.612-10.302 10.302 0-5.69-4.612-10.302-10.302-10.302h-15.452c-5.689 0-10.302 4.612-10.302 10.302v145.256c0 5.69 4.612 10.302 10.302 10.302h15.453c5.69 0 10.302-4.612 10.302-10.302 0 5.69 4.612 10.302 10.302 10.302h15.453c5.69 0 10.302-4.612 10.302-10.302 0 5.69 4.612 10.302 10.302 10.302h15.453c5.69 0 10.302-4.612 10.302-10.302v-145.257c-.002-5.689-4.614-10.301-10.303-10.301z" fill="#54469c"/><g><path d="m124.394 413.587h-15.453c-5.69 0-10.302-4.612-10.302-10.302v-145.256c0-5.69 4.612-10.302 10.302-10.302h15.453c5.69 0 10.302 4.612 10.302 10.302v145.256c0 5.689-4.612 10.302-10.302 10.302z" fill="#463b84"/></g></g></g><g><path d="m471.823 284.814h-23.407v91.686h23.407c5.689 0 10.302-4.612 10.302-10.302v-71.083c0-5.689-4.613-10.301-10.302-10.301z" fill="#62dbfb"/><path d="m471.823 351h-23.407v25.5h23.407c5.689 0 10.302-4.612 10.302-10.302v-25.5c0 5.69-4.613 10.302-10.302 10.302z" fill="#01d0fb"/><path d="m439.115 247.728h-15.453c-5.69 0-10.302 4.612-10.302 10.302 0-5.69-4.612-10.302-10.302-10.302h-15.453c-5.69 0-10.302 4.612-10.302 10.302 0-5.69-4.612-10.302-10.302-10.302h-15.453c-5.69 0-10.302 4.612-10.302 10.302v145.256c0 5.69 4.612 10.302 10.302 10.302h15.453c5.69 0 10.302-4.612 10.302-10.302 0 5.69 4.612 10.302 10.302 10.302h15.453c5.689 0 10.302-4.612 10.302-10.302 0 5.69 4.612 10.302 10.302 10.302h15.453c5.689 0 10.302-4.612 10.302-10.302v-145.257c0-5.689-4.613-10.301-10.302-10.301z" fill="#54469c"/><g><path d="m387.606 247.728h15.453c5.69 0 10.302 4.612 10.302 10.302v145.256c0 5.69-4.612 10.302-10.302 10.302h-15.453c-5.69 0-10.302-4.612-10.302-10.302v-145.257c0-5.689 4.612-10.301 10.302-10.301z" fill="#463b84"/></g></g></g></g><g><g><path d="m185.861 136.824h140.277v27.436h-140.277z" fill="#c2bce0"/></g><g><path d="m185.861 136.824h30.97v27.436h-30.97z" fill="#aca6d6"/></g><g><g><path d="m128.599 121.581h-27.126c-2.845 0-5.151 2.306-5.151 5.151v47.619c0 2.845 2.306 5.151 5.151 5.151h27.126z" fill="#62dbfb"/><path d="m96.322 157.77v16.581c0 2.845 2.306 5.151 5.151 5.151h27.126v-16.581h-27.126c-2.845 0-5.151-2.306-5.151-5.151z" fill="#01d0fb"/><g><path d="m176.559 202.67h-38.658c-5.69 0-10.302-4.612-10.302-10.302v-83.654c0-5.69 4.612-10.302 10.302-10.302h38.658c5.69 0 10.302 4.612 10.302 10.302v83.654c0 5.69-4.612 10.302-10.302 10.302z" fill="#fe7701"/></g><g><path d="m153.47 192.369v-83.654c0-5.69 4.612-10.302 10.302-10.302h-25.871c-5.69 0-10.302 4.612-10.302 10.302v83.654c0 5.69 4.612 10.302 10.302 10.302h25.871c-5.689-.001-10.302-4.613-10.302-10.302z" fill="#f46700"/></g></g><g><path d="m410.527 121.581h-27.126v57.921h27.126c2.845 0 5.151-2.306 5.151-5.151v-47.619c0-2.844-2.306-5.151-5.151-5.151z" fill="#62dbfb"/><path d="m410.527 162.921h-27.126v16.581h27.126c2.845 0 5.151-2.306 5.151-5.151v-16.581c0 2.845-2.306 5.151-5.151 5.151z" fill="#01d0fb"/><g><path d="m374.099 202.67h-38.658c-5.69 0-10.302-4.612-10.302-10.302v-83.654c0-5.69 4.612-10.302 10.302-10.302h38.658c5.69 0 10.302 4.612 10.302 10.302v83.654c0 5.69-4.612 10.302-10.302 10.302z" fill="#fe7701"/></g><g><path d="m351.265 192.369v-83.654c0-5.69 4.612-10.302 10.302-10.302h-26.126c-5.69 0-10.302 4.612-10.302 10.302v83.654c0 5.69 4.612 10.302 10.302 10.302h26.126c-5.689-.001-10.302-4.613-10.302-10.302z" fill="#f46700"/></g></g></g></g></g></svg>