<svg id="Capa_1" enable-background="new 0 0 512 512" height="512" viewBox="0 0 512 512" width="512" xmlns="http://www.w3.org/2000/svg"><g><path d="m255.455 273.37c-69.005 0-125.725-52.58-132.295-119.86-.42 4.302-.641 8.663-.641 13.076 0 73.418 59.517 132.935 132.935 132.935s132.936-59.517 132.936-132.935c0-4.413-.22-8.773-.64-13.076-6.569 67.281-63.289 119.86-132.295 119.86z" fill="#463b84"/><g><g><path d="m120.468 312.566c.349-.037.703-.059 1.062-.059h12.878c.358 0 .712.022 1.061.059v-101.179c-6.585-11.094-11.683-23.171-15-35.958v137.137z" fill="#54469c"/></g><g fill="#fe7701"><path d="m145.303 338.659v-16.255c0-6.018-4.878-10.896-10.896-10.896h-12.877c-6.018 0-10.896 4.878-10.896 10.896v16.255z"/><path d="m110.633 484.849v16.255c0 6.018 4.878 10.896 10.896 10.896h12.877c6.018 0 10.896-4.878 10.896-10.896v-16.255z"/></g><g><path d="m127.083 338.659v-16.255c0-5.408 3.944-9.883 9.11-10.737-.583-.096-1.177-.159-1.786-.159h-12.878c-6.018 0-10.896 4.879-10.896 10.896v16.255z" fill="#f46700"/><g fill="#54469c"><path d="m149.761 337.659h-43.585c-3.009 0-5.448 2.439-5.448 5.448v33.779l3.362 1h47.766l3.354-1v-33.779c-.001-3.009-2.44-5.448-5.449-5.448z"/><path d="m103.89 445.622-3.163 1v33.779c0 3.009 2.439 5.448 5.448 5.448h43.585c3.009 0 5.448-2.439 5.448-5.448v-33.779l-3.156-1z"/></g><path d="m127.083 501.104v-16.255h-16.45v16.255c0 6.018 4.879 10.896 10.896 10.896h12.878c.61 0 1.204-.063 1.786-.159-5.166-.854-9.11-5.329-9.11-10.737z" fill="#f46700"/></g><g fill="#463b84"><path d="m126.402 376.886v-33.779c0-3.009 2.439-5.448 5.448-5.448h-25.674c-3.009 0-5.448 2.439-5.448 5.448v33.779z"/><path d="m126.402 480.401v-33.779h-25.674v33.779c0 3.009 2.439 5.448 5.448 5.448h25.674c-3.009 0-5.448-2.439-5.448-5.448z"/></g><g><path d="m100.727 376.886h54.482v69.737h-54.482z" fill="#fe7701"/></g><g><path d="m100.727 376.886h25.674v69.736h-25.674z" fill="#f46700"/></g></g><g><g><path d="m376.532 209.532v103.034c.349-.037.702-.059 1.061-.059h12.878c.359 0 .712.022 1.062.059v-141.68c-3.076 13.753-8.184 26.748-15.001 38.646z" fill="#54469c"/></g><g fill="#fe7701"><path d="m401.367 338.659v-16.255c0-6.018-4.878-10.896-10.896-10.896h-12.877c-6.018 0-10.896 4.878-10.896 10.896v16.255z"/><path d="m366.697 484.849v16.255c0 6.018 4.878 10.896 10.896 10.896h12.877c6.018 0 10.896-4.878 10.896-10.896v-16.255z"/></g><g><path d="m383.901 501.104v-16.255h-17.205v16.255c0 6.018 4.878 10.896 10.896 10.896h12.878c.741 0 1.464-.075 2.164-.216-4.981-1.004-8.733-5.403-8.733-10.68z" fill="#f46700"/><g fill="#54469c"><path d="m405.824 337.659h-43.585c-3.009 0-5.448 2.439-5.448 5.448v33.779l3.477 1h47.766l3.238-1v-33.779c.001-3.009-2.439-5.448-5.448-5.448z"/><path d="m408.226 445.622h-48.163l-3.271 1v33.779c0 3.009 2.439 5.448 5.448 5.448h43.585c3.009 0 5.448-2.439 5.448-5.448v-33.779z"/></g><path d="m383.901 338.659v-16.255c0-5.277 3.751-9.676 8.733-10.68-.699-.141-1.423-.216-2.164-.216h-12.878c-6.018 0-10.896 4.879-10.896 10.896v16.255z" fill="#f46700"/></g><g fill="#463b84"><path d="m382.205 376.886v-33.779c0-3.009 2.439-5.448 5.448-5.448h-25.413c-3.009 0-5.448 2.439-5.448 5.448v33.779z"/><path d="m382.205 480.401v-33.779h-25.414v33.779c0 3.009 2.439 5.448 5.448 5.448h25.413c-3.008 0-5.447-2.439-5.447-5.448z"/></g><g><path d="m356.791 376.886h54.482v69.737h-54.482z" fill="#fe7701"/></g><g><path d="m356.791 376.886h25.413v69.736h-25.413z" fill="#f46700"/></g></g><path d="m255.455 7.5c-73.418 0-132.935 59.517-132.935 132.935s59.517 132.935 132.935 132.935 132.935-59.517 132.935-132.935-59.517-132.935-132.935-132.935zm0 211.389c-43.26 0-78.453-35.194-78.453-78.454s35.194-78.454 78.453-78.454 78.453 35.194 78.453 78.454-35.193 78.454-78.453 78.454z" fill="#54469c"/><g><path d="m255.455 280.871c-77.437 0-140.436-62.999-140.436-140.436.001-77.436 63-140.435 140.436-140.435s140.436 62.999 140.436 140.435c0 77.437-62.999 140.436-140.436 140.436zm0-265.871c-69.165 0-125.435 56.27-125.435 125.435 0 69.166 56.271 125.436 125.436 125.436s125.436-56.27 125.436-125.436c-.001-69.165-56.272-125.435-125.437-125.435z" fill="#6e61b6"/></g><path d="m255.455 34.741c-58.28 0-105.694 47.414-105.694 105.694s47.414 105.694 105.694 105.694 105.695-47.414 105.695-105.694-47.414-105.694-105.695-105.694zm0 184.148c-43.26 0-78.453-35.194-78.453-78.454s35.194-78.454 78.453-78.454 78.453 35.194 78.453 78.454-35.193 78.454-78.453 78.454z" fill="#463b84"/><g><path d="m255.455 226.389c-47.395 0-85.953-38.559-85.953-85.954s38.559-85.954 85.953-85.954c47.396 0 85.954 38.559 85.954 85.954s-38.558 85.954-85.954 85.954zm0-156.908c-39.124 0-70.953 31.83-70.953 70.954s31.829 70.954 70.953 70.954 70.954-31.83 70.954-70.954-31.83-70.954-70.954-70.954z" fill="#6e61b6"/></g></g></svg>