<svg id="Capa_1" enable-background="new 0 0 512 512" height="512" viewBox="0 0 512 512" width="512" xmlns="http://www.w3.org/2000/svg"><g><path d="m7.5 314.931c0 46.415 21.956 87.687 56.032 114.047h176.201c34.076-26.36 56.032-67.631 56.032-114.047 0-50.16-25.629-94.329-64.5-120.145l28.849-49.968c9.134-15.82 9.134-34.711 0-50.531s-25.493-25.265-43.76-25.265h-17.354l-1 2.653v36.523l1 2.564h17.353c4.416 0 6.665 2.754 7.613 4.395.947 1.642 2.208 4.967 0 8.791l-30.597 52.996c-13.212-3.991-27.222-6.145-41.736-6.145s-28.524 2.154-41.736 6.145l-30.597-52.996c-2.208-3.824-.947-7.148 0-8.79.948-1.642 3.197-4.395 7.613-4.395h17.353l1-2.692v-36.961l-1-2.087h-17.355c-18.268 0-34.627 9.445-43.76 25.265-9.134 15.82-9.134 34.71 0 50.53l28.849 49.968c-38.871 25.816-64.5 69.984-64.5 120.145z" fill="#54469c"/><path d="m279.119 341.227c0 35.467 16.394 67.094 42.007 87.75h141.368c25.613-20.656 42.007-52.284 42.007-87.75 0-34.352-15.375-65.108-39.614-85.778l23.044-39.912c8.093-14.018 8.093-30.756 0-44.773s-22.588-22.386-38.774-22.386h-16.157l-1 2.109v32.361l1 2.514h16.156c3.913 0 5.905 2.44 6.745 3.894.839 1.455 1.956 4.401 0 7.789l-22.709 39.333c-12.811-5.061-26.772-7.842-41.382-7.842s-28.571 2.781-41.382 7.842l-22.709-39.333c-1.956-3.388-.839-6.334 0-7.789.84-1.454 2.833-3.894 6.745-3.894h16.156l1-2.519v-32.571l-1-1.894h-16.156c-16.186 0-30.681 8.369-38.774 22.387s-8.093 30.755 0 44.773l23.044 39.912c-24.24 20.669-39.615 51.425-39.615 85.777z" fill="#62dbfb"/><g><path d="m7.5 314.931c0 46.415 21.956 87.687 56.032 114.047h33.5c-34.076-26.361-56.032-67.632-56.032-114.047 0-47.025 22.525-88.784 57.37-115.092 4.011-3.029 5.076-8.61 2.563-12.963l-24.282-42.058c-9.134-15.82-9.134-34.71 0-50.53 6.326-10.957 16.121-18.849 27.613-22.67v-2.596h-16.534c-18.295 0-35.493 9.475-44.617 25.332-9.096 15.807-9.083 34.665.039 50.463l28.848 49.969c-38.871 25.816-64.5 69.984-64.5 120.145z" fill="#463b84"/><path d="m151.632 245.485c-38.354 0-69.445 31.092-69.445 69.446 0 27.609 16.112 51.452 39.446 62.646v-7.924c0-1.207.982-2.188 2.188-2.188h55.623c1.207 0 2.188.982 2.188 2.188v7.924c23.333-11.194 39.445-35.037 39.445-62.646.001-38.354-31.091-69.446-69.445-69.446z" fill="#c2bce0"/><g><path d="m121.632 369.653c0-1.207.982-2.188 2.188-2.188h16.341c-14.726-12.732-24.053-31.538-24.053-52.534 0-32.502 22.331-59.78 52.484-67.35-5.429-1.363-11.109-2.095-16.961-2.095-38.354 0-69.445 31.092-69.445 69.446 0 27.609 16.112 51.452 39.446 62.646z" fill="#aca6d6"/><path d="m151.632 237.985c-42.428 0-76.946 34.518-76.946 76.945 0 31.791 19.38 59.138 46.946 70.854v-16.132c0-.177.027-.347.067-.512-19.07-10.572-32.013-30.904-32.013-54.21 0-34.157 27.789-61.945 61.946-61.945s61.945 27.789 61.945 61.945c0 23.306-12.942 43.638-32.012 54.21.04.165.067.335.067.512v16.131c27.565-11.716 46.945-39.063 46.945-70.854.001-42.426-34.517-76.944-76.945-76.944z" fill="#463b84"/></g><g><g><path d="m131.259 347.662c-4.142 0-7.5-3.358-7.5-7.5v-41.381h-5.457c-4.142 0-7.5-3.358-7.5-7.5s3.358-7.5 7.5-7.5h12.957c4.142 0 7.5 3.358 7.5 7.5v48.881c0 4.142-3.358 7.5-7.5 7.5z" fill="#54469c"/></g><g><path d="m169.654 347.662c-12.576 0-22.808-10.231-22.808-22.808v-18.266c0-12.576 10.231-22.807 22.808-22.807 12.576 0 22.807 10.231 22.807 22.807v18.266c0 12.576-10.231 22.808-22.807 22.808zm0-48.881c-4.305 0-7.808 3.502-7.808 7.807v18.266c0 4.305 3.502 7.808 7.808 7.808 4.305 0 7.807-3.502 7.807-7.808v-18.266c0-4.305-3.502-7.807-7.807-7.807z" fill="#54469c"/></g></g><g><path d="m179.444 393.036h-55.623c-1.761 0-3.189-1.428-3.189-3.189v-20.194c0-1.761 1.428-3.189 3.189-3.189h55.623c1.761 0 3.189 1.428 3.189 3.189v20.194c-.001 1.761-1.428 3.189-3.189 3.189z" fill="#fff"/></g><g><path d="m147.417 389.847v-20.194c0-1.761 1.428-3.189 3.189-3.189h-26.785c-1.761 0-3.189 1.428-3.189 3.189v20.194c0 1.761 1.428 3.189 3.189 3.189h26.785c-1.761 0-3.189-1.428-3.189-3.189z" fill="#f2fbff"/></g><g><path d="m104.264 69.022h94.736v41.74h-94.736z" fill="#fac600"/></g><g><path d="m104.264 69.022h25.736v41.74h-25.736z" fill="#e8b800"/></g><g><path d="m177.132 225.75h-51c-4.142 0-7.5-3.358-7.5-7.5s3.358-7.5 7.5-7.5h51c4.142 0 7.5 3.358 7.5 7.5s-3.358 7.5-7.5 7.5z" fill="#c2bce0"/></g></g><g><g><path d="m279.119 341.227c0 35.467 16.394 67.094 42.007 87.75h25.5c-25.613-20.656-42.007-52.284-42.007-87.75 0-32.913 14.114-62.525 36.615-83.128 1.73-1.584 2.132-4.151.96-6.183l-21.004-36.38c-8.093-14.018-8.093-30.755 0-44.773 6.496-11.252 17.121-18.852 29.43-21.418v-.969h-15.43c-16.21 0-31.449 8.396-39.534 22.446-8.059 14.006-8.048 30.716.034 44.714l23.044 39.912c-24.24 20.671-39.615 51.427-39.615 85.779z" fill="#01d0fb"/><g><g><circle cx="391.809" cy="341.227" fill="#fff" r="58.717"/></g><g><path d="m362.566 341.227c0-27.339 18.685-50.312 43.98-56.85-4.709-1.217-9.647-1.866-14.737-1.866-32.428 0-58.717 26.288-58.717 58.717 0 32.428 26.288 58.717 58.717 58.717 5.09 0 10.028-.649 14.737-1.866-25.295-6.54-43.98-29.513-43.98-56.852z" fill="#f2fbff"/></g><g><path d="m391.809 407.444c-36.512 0-66.217-29.705-66.217-66.217s29.705-66.217 66.217-66.217 66.217 29.705 66.217 66.217-29.705 66.217-66.217 66.217zm0-117.434c-28.241 0-51.217 22.976-51.217 51.217s22.976 51.217 51.217 51.217 51.217-22.976 51.217-51.217-22.976-51.217-51.217-51.217z" fill="#c8effe"/></g><g><path d="m392.761 379.012c-8.295 0-15.985-3.877-20.938-10.674-2.439-3.348-1.703-8.039 1.645-10.479 3.349-2.439 8.039-1.703 10.479 1.645 2.304 3.162 6.021 4.826 9.943 4.454 5.014-.478 9.211-4.606 9.763-9.604.351-3.177-.613-6.218-2.713-8.563-2.073-2.315-5.043-3.643-8.147-3.643-2 0-3.952.542-5.646 1.568-3.225 1.954-7.271 2.014-10.558.161-3.299-1.86-5.349-5.367-5.349-9.153v-19.591c0-4.142 3.358-7.5 7.5-7.5h28.147c4.142 0 7.5 3.358 7.5 7.5s-3.358 7.5-7.5 7.5h-20.647v5.354c2.127-.554 4.33-.839 6.553-.839 7.363 0 14.406 3.147 19.321 8.635 4.912 5.484 7.262 12.853 6.449 20.217-1.336 12.106-11.114 21.733-23.249 22.89-.856.082-1.708.122-2.553.122z" fill="#01d0fb"/></g></g></g><g><path d="m350.619 148.377h82.381v36.984h-82.381z" fill="#8bc727"/></g><g><path d="m350.619 148.377h25.381v36.984h-25.381z" fill="#81b823"/></g></g><g><path d="m504.5 442.978h-497c-4.142 0-7.5-3.358-7.5-7.5s3.358-7.5 7.5-7.5h497c4.142 0 7.5 3.358 7.5 7.5s-3.358 7.5-7.5 7.5z" fill="#8bc727"/></g></g></svg>