<svg id="Capa_1" enable-background="new 0 0 512 512" height="512" viewBox="0 0 512 512" width="512" xmlns="http://www.w3.org/2000/svg"><g><g><path d="m235.396 385.173h41.207v43.208h-41.207z" fill="#aca6d6"/></g><g><path d="m235.396 385.173h16.483v43.208h-16.483z" fill="#978ecb"/></g><g><path d="m215.823 353.225v17.496c0 8.534 6.918 15.453 15.453 15.453h49.449c8.534 0 15.453-6.918 15.453-15.453v-17.496z" fill="#54469c"/></g><g><path d="m248.789 370.721v-17.496h-32.966v17.496c0 8.534 6.918 15.453 15.453 15.453h32.966c-8.535 0-15.453-6.919-15.453-15.453z" fill="#463b84"/></g><path d="m296.177 327.437v-98.881c0-8.534-6.918-15.453-15.453-15.453h-49.449c-8.534 0-15.453 6.918-15.453 15.453v98.881z" fill="#54469c"/><path d="m248.789 327.437v-98.881c0-8.534 6.918-15.453 15.453-15.453h-32.966c-8.534 0-15.453 6.918-15.453 15.453v98.881z" fill="#463b84"/><g><g fill="#c2bce0"><path d="m144.097 135.091v-79.606c0-2.845-2.306-5.151-5.151-5.151h-25.755c-2.845 0-5.151 2.306-5.151 5.151v79.605h36.057z"/><path d="m108.04 158.846h36.056v288.82h-36.056z"/></g><g fill="#aca6d6"><path d="m125.167 135.091v-79.606c0-2.845 2.306-5.151 5.151-5.151h-17.127c-2.845 0-5.151 2.306-5.151 5.151v79.605h17.127z"/><path d="m108.04 158.846h17.127v288.82h-17.127z"/></g><g fill="#c2bce0"><path d="m403.96 135.091v-79.606c0-2.845-2.306-5.151-5.151-5.151h-25.755c-2.845 0-5.151 2.306-5.151 5.151v79.605h36.057z"/><path d="m367.903 158.846h36.056v288.82h-36.056z"/></g><g fill="#aca6d6"><path d="m384.773 135.091v-79.606c0-2.845 2.306-5.151 5.151-5.151h-16.869c-2.845 0-5.151 2.306-5.151 5.151v79.605h16.869z"/><path d="m367.903 158.846h16.869v288.82h-16.869z"/></g></g><path d="m339.445 447.666v-15.134c0-2.845-2.306-5.151-5.151-5.151h-156.588c-2.845 0-5.151 2.306-5.151 5.151v15.134z" fill="#54469c"/><path d="m213.763 447.666v-15.134c0-2.845 2.306-5.151 5.151-5.151h-41.207c-2.845 0-5.151 2.306-5.151 5.151v15.134z" fill="#463b84"/><g><g><path d="m84.024 134.091h343.951v25.755h-343.951z" fill="#62dbfb"/></g><g><path d="m84.024 134.091h35.879v25.755h-35.879z" fill="#01d0fb"/></g><g><g><path d="m25.526 100.377h-20.375c-2.845 0-5.151 2.306-5.151 5.151v82.88c0 2.845 2.306 5.151 5.151 5.151h20.375z" fill="#62dbfb"/><path d="m55.775 85.952-1-3.681c0-5.69-4.612-10.302-10.302-10.302h-9.645c-5.69 0-10.302 4.612-10.302 10.302v129.396c0 5.69 4.612 10.302 10.302 10.302h9.645c5.69 0 10.302-4.612 10.302-10.302l1-4.294z" fill="#fe7701"/><path d="m38.751 211.667v-129.397c0-4.901 3.426-8.995 8.012-10.038-.737-.168-1.502-.264-2.29-.264h-9.645c-5.69 0-10.302 4.612-10.302 10.302v129.396c0 5.69 4.612 10.302 10.302 10.302h9.645c.788 0 1.552-.097 2.29-.264-4.586-1.042-8.012-5.136-8.012-10.037z" fill="#f46700"/><g><path d="m74.723 221.968h-9.645c-5.69 0-10.302-4.612-10.302-10.302v-129.396c0-5.69 4.612-10.302 10.302-10.302h9.645c5.69 0 10.302 4.612 10.302 10.302v129.396c0 5.69-4.613 10.302-10.302 10.302z" fill="#fd4755"/></g><path d="m69 211.667v-129.397c0-4.901 3.426-8.995 8.012-10.038-.737-.168-1.502-.264-2.29-.264h-9.645c-5.69 0-10.302 4.612-10.302 10.302v129.396c0 5.69 4.612 10.302 10.302 10.302h9.645c.788 0 1.552-.097 2.29-.264-4.586-1.042-8.012-5.136-8.012-10.037z" fill="#fb2b3a"/></g><g><path d="m506.849 100.378h-20.375v93.182h20.375c2.845 0 5.151-2.306 5.151-5.151v-82.88c0-2.845-2.306-5.151-5.151-5.151z" fill="#62dbfb"/><path d="m477.172 71.969h-9.645c-5.69 0-10.302 4.612-10.302 10.302l-1 3.805v121.421l1 4.171c0 5.69 4.612 10.302 10.302 10.302h9.645c5.69 0 10.302-4.612 10.302-10.302v-129.398c0-5.689-4.613-10.301-10.302-10.301z" fill="#fe7701"/><g><path d="m471 211.667v-129.397c0-4.982 3.537-9.138 8.236-10.094-.667-.136-1.357-.207-2.064-.207h-9.645c-5.69 0-10.302 4.612-10.302 10.302l-1 3.805v121.421l1 4.171c0 5.69 4.612 10.302 10.302 10.302h9.645c.708 0 1.398-.072 2.066-.208-4.701-.957-8.238-5.113-8.238-10.095z" fill="#f46700"/></g><g><path d="m437.277 71.969h9.645c5.69 0 10.302 4.612 10.302 10.302v129.396c0 5.69-4.612 10.302-10.302 10.302h-9.645c-5.69 0-10.302-4.612-10.302-10.302v-129.397c.001-5.689 4.613-10.301 10.302-10.301z" fill="#fd4755"/></g><path d="m441.2 211.667v-129.397c0-4.901 3.426-8.995 8.012-10.038-.737-.168-1.502-.264-2.29-.264h-9.645c-5.69 0-10.302 4.612-10.302 10.302v129.396c0 5.69 4.612 10.302 10.302 10.302h9.645c.788 0 1.552-.097 2.29-.264-4.586-1.042-8.012-5.136-8.012-10.037z" fill="#fb2b3a"/></g></g></g><g><path d="m320.54 354.225h-129.08c-2.475 0-4.482-2.007-4.482-4.482v-18.824c0-2.475 2.007-4.482 4.482-4.482h129.08c2.475 0 4.482 2.007 4.482 4.482v18.824c0 2.475-2.006 4.482-4.482 4.482z" fill="#aca6d6"/></g><g><path d="m219.944 349.743v-18.824c0-2.475 2.007-4.482 4.482-4.482h-32.966c-2.475 0-4.482 2.007-4.482 4.482v18.824c0 2.475 2.007 4.482 4.482 4.482h32.966c-2.476 0-4.482-2.007-4.482-4.482z" fill="#978ecb"/></g><g><g><circle cx="126.068" cy="165" fill="#54469c" r="20"/></g><g><path d="m125.068 165c0-7.607 4.248-14.221 10.5-17.602-2.826-1.529-6.061-2.398-9.5-2.398-11.046 0-20 8.954-20 20s8.954 20 20 20c3.439 0 6.674-.869 9.5-2.398-6.252-3.381-10.5-9.995-10.5-17.602z" fill="#463b84"/></g><g><circle cx="385.932" cy="165" fill="#54469c" r="20"/></g><g><path d="m384.646 165c0-7.663 4.315-14.313 10.643-17.671-2.793-1.482-5.975-2.329-9.357-2.329-11.046 0-20 8.954-20 20s8.954 20 20 20c3.382 0 6.564-.847 9.357-2.329-6.329-3.358-10.643-10.008-10.643-17.671z" fill="#463b84"/></g></g><g><g><circle cx="126.068" cy="247.614" fill="#54469c" r="20"/></g><g><path d="m125.068 247.614c0-7.607 4.248-14.221 10.5-17.602-2.826-1.529-6.061-2.398-9.5-2.398-11.046 0-20 8.954-20 20s8.954 20 20 20c3.439 0 6.674-.869 9.5-2.398-6.252-3.381-10.5-9.995-10.5-17.602z" fill="#463b84"/></g><g><circle cx="385.932" cy="247.614" fill="#54469c" r="20"/></g><g><path d="m384.646 247.614c0-7.663 4.315-14.313 10.643-17.671-2.793-1.482-5.975-2.329-9.357-2.329-11.046 0-20 8.954-20 20s8.954 20 20 20c3.382 0 6.564-.847 9.357-2.329-6.329-3.358-10.643-10.007-10.643-17.671z" fill="#463b84"/></g></g><g><path d="m487.474 461.666h-462.948c-4.142 0-7.5-3.358-7.5-7.5s3.358-7.5 7.5-7.5h462.947c4.142 0 7.5 3.358 7.5 7.5s-3.357 7.5-7.499 7.5z" fill="#fe7701"/></g></g></svg>