<svg id="Capa_1" enable-background="new 0 0 512 512" height="512" viewBox="0 0 512 512" width="512" xmlns="http://www.w3.org/2000/svg"><g><g><g><path d="m349.833 410.927 2.497 1h28.153l1.482-1c6.671 0 12.079-5.408 12.079-12.079 0-6.058-4.488-11.179-10.493-11.974l-14.564-1.928v-91.457h-29.455v107.137c0 5.689 4.612 10.301 10.301 10.301z" fill="#ffbd86"/><path d="m355.974 267.93-20.65 9.629v16.929h34.87c1.657 0 3-1.343 3-3v-42.152c-2.994 7.926-8.953 14.739-17.22 18.594z" fill="#01d0fb"/></g><path d="m164.433 300.288-9.47-20.352-132.034 61.768c-9.275 4.339-12.797 15.724-7.593 24.542l9.419 7.403c.088-.38.172-.761.288-1.136 1.359-4.394 4.528-8.032 8.695-9.981l130.213-60.916c.499-.234.715-.828.482-1.328z" fill="#fed2a4"/><path d="m213.584 272.576-9.835-21.091-1.509-.869-46.302 21.591c-2.578 1.202-3.694 4.267-2.491 6.845l7.838 16.808 2.938-.266z" fill="#463b84"/><path d="m57.22 410.927 2.326 1h31.591l2.14-1-23.397-23.694-.119-.267 110.962-51.742-16.291-34.937-131.119 61.34c-9.275 4.339-12.797 15.724-7.593 24.542z" fill="#fed2a4"/><g><path d="m163.527 300.71-130.214 60.916c-9.275 4.339-12.797 15.724-7.593 24.542l12.882 10.125c-2.611-8.117 1.097-17.237 9.173-21.015l123.567-57.807z" fill="#ffbd86"/></g><path d="m213.161 271.67-51.893 24.198 18.81 40.339c1.202 2.578 4.267 3.694 6.845 2.491l47.224-22.021z" fill="#54469c"/><g><g><path d="m473.063 220.156-17.151-36.78c-2.665-5.716-8.464-9.41-14.774-9.41-2.385 0-4.698.515-6.875 1.53l-14.351 6.692c-.542.253-1.145.386-1.742.386-.357 0-.714-.047-1.06-.139l-14.336-3.817c-.518-.138-1.052-.208-1.589-.208-.896 0-1.8.2-2.614.579l-41.893 19.535c3.986 3.047 7.277 7.033 9.469 11.733l4.947 10.609 9.337-4.354c1.547-.721 3.386-.052 4.107 1.495l3.456 7.412c7.394 15.857 25.441 23.337 41.645 17.908 1.508-.505 3.155.163 3.827 1.605l3.642 7.81c1.066 2.287 4.275 2.401 5.502.197l10.341-18.586c.802-1.441 2.038-2.592 3.532-3.289l16.863-7.863z" fill="#fed2a4"/></g><g><path d="m429.787 222.597c-2.825 0-5.529-1.604-6.802-4.333-1.751-3.754-.127-8.216 3.627-9.967l10.271-4.789c3.755-1.75 8.216-.126 9.967 3.628s.127 8.216-3.627 9.967l-10.271 4.789c-1.025.479-2.103.705-3.165.705z" fill="#bb5d4c"/></g><g><path d="m497.523 199.483-20.486-43.933c-9.618-20.626-34.136-29.549-54.761-19.931l-83.096 38.748c-8.432 3.932-11.001 10.803-9.958 18.696 2.668-.723 5.412-1.094 8.208-1.094 7.472 0 14.567 2.676 20.149 7.272l41.427-19.318c1.095-.511 2.335-.62 3.502-.309l14.336 3.817c1.168.311 2.407.201 3.502-.309l14.351-6.692c7.639-3.562 16.718-.257 20.28 7.381l18.367 39.388 9.954-.391c11.715-.46 19.179-12.701 14.225-23.325z" fill="#bb5d4c"/></g><g><g><path d="m344.753 192.845c.829-.537 1.727-1.04 2.713-1.5l83.096-38.748c19.036-8.877 41.377-1.951 52.27 15.383l-5.796-12.429c-9.618-20.626-34.136-29.549-54.761-19.931l-83.096 38.748c-8.432 3.932-11.001 10.803-9.958 18.696 2.668-.723 5.412-1.094 8.208-1.094 2.499-.001 4.953.305 7.324.875z" fill="#a44f3e"/></g></g></g><g><path d="m234.639 320.096-32.399-69.48 121.394-56.607c16.364-7.63 35.815-.551 43.445 15.813l6.064 13.003c8.081 17.33.583 37.93-16.747 46.011l-115.113 53.678c-2.502 1.167-5.477.085-6.644-2.418z" fill="#c8effe"/></g><g><path d="m240.78 268.218c-2.404-5.156-.174-11.286 4.983-13.69l112.058-52.253c1.055-.492 2.122-.92 3.198-1.291-9.421-9.802-24.375-13.041-37.385-6.974l-121.394 56.606 32.399 69.48c1.167 2.503 4.142 3.585 6.645 2.418l20.383-9.505z" fill="#99e6fc"/></g><g><path d="m327.215 410.927 2.45 1h28.153l1.529-1c6.671 0 12.079-5.408 12.079-12.079 0-6.058-4.488-11.179-10.493-11.974l-14.564-1.928v-91.457h-29.455v107.137c-.001 5.689 4.611 10.301 10.301 10.301z" fill="#fed2a4"/><path d="m331.203 400.625v-107.137h-14.291v107.137c0 5.69 4.612 10.302 10.302 10.302h14.29c-5.689 0-10.301-4.612-10.301-10.302z" fill="#ffbd86"/><g><path d="m506.849 436.682h-501.698c-2.845 0-5.151-2.306-5.151-5.151v-15.453c0-2.845 2.306-5.151 5.151-5.151h501.698c2.845 0 5.151 2.306 5.151 5.151v15.453c0 2.844-2.306 5.151-5.151 5.151z" fill="#fac600"/></g><g><path d="m44.813 431.531v-15.453c0-2.845 2.306-5.151 5.151-5.151h-44.813c-2.845 0-5.151 2.306-5.151 5.151v15.453c0 2.845 2.306 5.151 5.151 5.151h44.813c-2.845 0-5.151-2.307-5.151-5.151z" fill="#e8b800"/></g><g><path d="m350.575 294.488v-59.33c0-10.458-8.478-18.935-18.935-18.935-10.458 0-18.935 8.478-18.935 18.935v56.33c0 1.657 1.343 3 3 3z" fill="#62dbfb"/></g><g><path d="m340.374 218.368c-3.185-1.66-6.89-2.458-10.82-2.032-9.683 1.051-16.85 9.554-16.85 19.295v55.857c0 1.657 1.343 3 3 3h14.468v-59.33c.001-7.305 4.144-13.632 10.202-16.79z" fill="#01d0fb"/></g></g></g><g fill="#bbec6c"><g><path d="m446.447 347.803c-2.93-2.929-7.678-2.929-10.607 0l-6.389 6.389v-73.579c0-4.142-3.357-7.5-7.5-7.5s-7.5 3.358-7.5 7.5v73.58l-6.39-6.39c-2.93-2.929-7.678-2.929-10.607 0s-2.929 7.678 0 10.606l19.193 19.193c1.407 1.407 3.314 2.197 5.304 2.197s3.896-.79 5.304-2.197l19.192-19.193c2.929-2.928 2.929-7.677 0-10.606z"/><path d="m509.803 347.803c-2.929-2.929-7.677-2.93-10.607 0l-6.39 6.39v-98.823c0-4.142-3.357-7.5-7.5-7.5s-7.5 3.358-7.5 7.5v98.823l-6.389-6.389c-2.929-2.929-7.677-2.93-10.607 0-2.929 2.929-2.929 7.678 0 10.606l19.192 19.193c1.407 1.407 3.314 2.197 5.304 2.197s3.896-.79 5.304-2.197l19.193-19.193c2.929-2.929 2.929-7.678 0-10.607z"/></g><path d="m314.873 96.708-19.192-19.193c-1.407-1.407-3.314-2.197-5.304-2.197s-3.896.79-5.304 2.197l-19.193 19.193c-2.929 2.929-2.929 7.677 0 10.606s7.677 2.93 10.607 0l6.39-6.39v73.58c0 4.142 3.357 7.5 7.5 7.5s7.5-3.358 7.5-7.5v-73.58l6.389 6.389c1.465 1.465 3.384 2.197 5.304 2.197 1.919 0 3.839-.732 5.304-2.197 2.928-2.927 2.928-7.676-.001-10.605z"/><path d="m245.335 96.708-19.193-19.193c-2.929-2.929-7.678-2.929-10.606 0l-19.193 19.193c-2.929 2.929-2.929 7.678 0 10.606 2.929 2.929 7.678 2.929 10.606 0l6.39-6.39v107.056c0 4.142 3.358 7.5 7.5 7.5s7.5-3.358 7.5-7.5v-107.055l6.39 6.39c1.464 1.464 3.384 2.197 5.303 2.197s3.839-.732 5.303-2.197c2.93-2.929 2.93-7.678 0-10.607z"/></g></g></svg>