<svg id="Capa_1" enable-background="new 0 0 512 512" height="512" viewBox="0 0 512 512" width="512" xmlns="http://www.w3.org/2000/svg"><g><g fill="#dff6fd"><path d="m100.509 251.666c.18.247.461.398.766.412.015 0 .029.001.044.001.289 0 .564-.125.755-.344 9.484-10.918 23.708-17.18 39.024-17.18 17.148 0 32.852 7.852 42.005 21.004.188.269.494.429.821.429h30.759c4.951 0 9.315-3.336 10.614-8.114l4.398-16.176c.135-.496-.129-1.014-.609-1.197-14.342-5.456-23.978-19.429-23.978-34.77v-2.661c0-.552-.447-1-1-1h-10.501c-10.261 0-18.609-8.348-18.609-18.609 0-6.501 3.324-12.426 8.893-15.848.296-.182.477-.504.477-.852v-42.911c-53.594 21.296-95.444 65.778-113.189 121.064 11.912 1.467 22.606 7.492 29.33 16.752z"/><path d="m327.633 120.668v36.094c0 .348.181.67.477.852 5.568 3.422 8.893 9.346 8.893 15.848 0 10.261-8.349 18.609-18.609 18.609h-10.501c-.553 0-1 .448-1 1v2.661c0 15.341-9.636 29.314-23.978 34.77-.48.183-.744.701-.609 1.197l4.398 16.176c1.299 4.777 5.663 8.114 10.614 8.114h30.759c.327 0 .634-.16.821-.429 9.153-13.152 24.856-21.004 42.005-21.004 15.316 0 29.54 6.262 39.024 17.18.19.219.466.344.755.344.015 0 .029 0 .044-.001.305-.013.586-.165.766-.412 6.723-9.26 17.418-15.285 29.33-16.753-17.803-55.468-59.87-100.066-113.718-121.278.347 2.294.529 4.642.529 7.032z"/><path d="m151.706 392.518c-.053-.187-.158-.354-.305-.481-12.345-10.803-19.425-26.387-19.425-42.754v-26.008c0-.479-.34-.891-.81-.981l-68.701-13.334c5.339 71.397 49.308 132.017 111.068 161.05z"/><path d="m380.833 322.292c-.47.091-.81.502-.81.981v25.741c0 16.374-7.062 31.985-19.373 42.831-.145.127-.249.294-.302.479l-21.882 77.682c61.76-29.034 105.729-89.653 111.068-161.05z"/></g><g fill="#c8effe"><path d="m100.509 251.666c.18.247.461.398.766.412.015 0 .029.001.044.001.289 0 .564-.125.755-.344 3.033-3.492 6.556-6.501 10.44-8.988 11.553-42.04 36.894-78.369 70.854-103.829v-24.659c-53.113 21.45-94.559 65.718-112.195 120.654 11.915 1.466 22.611 7.492 29.336 16.753z"/><path d="m106.991 317.6-44.526-8.642c5.305 70.936 48.739 131.241 109.872 160.492l-11.001-39.054c-29.341-29.814-49.107-69.071-54.345-112.796z"/></g><path d="m322.948 406.09h-29.597c-7.894 0-15.628-2.727-21.777-7.677l-14.947-12.037c-.183-.147-.405-.221-.627-.221s-.444.074-.627.221l-14.947 12.037c-6.149 4.951-13.884 7.677-21.777 7.677h-29.863c-14.874 0-28.423-5.753-38.561-15.141l32.085 113.903c.625 2.221 2.651 3.754 4.958 3.754h137.464c2.307 0 4.333-1.534 4.958-3.754l32.144-114.112c-10.2 9.513-23.871 15.35-38.886 15.35z" fill="#fed2a4"/><path d="m510.915 122.591c.053.509.085 1.023.085 1.542 0 3.879-1.511 7.526-4.254 10.27l-23.778 23.779c-1.862 1.862-4.435 2.93-7.057 2.93-2.274 0-4.444-.806-6.126-2.266l-11.502 76.202c-3.742-.966-7.687-1.495-11.771-1.495-14.986 0-28.167 6.971-35.83 17.524-9.266-10.666-23.634-17.524-39.779-17.524-18.041 0-33.866 8.559-42.827 21.433h-30.758c-4.512 0-8.466-3.022-9.65-7.376l-4.665-17.155c-4.135 1.59-8.619 2.47-13.307 2.47h-27.393c-4.688 0-9.172-.88-13.307-2.47l-4.665 17.155c-1.184 4.354-5.137 7.376-9.65 7.376h-30.758c-8.96-12.873-24.785-21.433-42.827-21.433-16.145 0-30.513 6.858-39.779 17.524-7.663-10.553-20.844-17.524-35.83-17.524-4.084 0-8.029.529-11.771 1.495l-11.502-76.202c-1.682 1.46-3.852 2.266-6.126 2.266-2.622 0-5.194-1.068-7.057-2.93l-23.777-23.779c-2.743-2.743-4.254-6.39-4.254-10.269 0-.519.031-1.033.085-1.542-.641.479-1.085 1.228-1.085 2.134v153.49c0 11.403 8.083 21.205 19.276 23.378l111.7 21.68v26.008c0 31.927 25.882 57.808 57.808 57.808h29.864c8.15 0 16.056-2.787 22.404-7.899l14.948-12.036 14.948 12.037c6.348 5.112 14.253 7.899 22.403 7.899h29.597c32.074 0 58.075-26.001 58.075-58.075v-25.741l111.7-21.68c11.194-2.174 19.277-11.976 19.277-23.379v-153.49c0-.906-.444-1.655-1.085-2.135z" fill="#ffe5c2"/><g><g><path d="m285.507 433.592h-59.013c-11.133 0-20.242 9.109-20.242 20.242v54.772h99.497v-54.772c0-11.133-9.109-20.242-20.242-20.242z" fill="#ffbd86"/></g><path d="m285.507 426.092h-22.007v-34.181l-6.873-5.535c-.183-.147-.405-.221-.627-.221s-.444.074-.627.221l-6.873 5.534v34.181h-22.007c-15.297 0-27.742 12.445-27.742 27.742v38.103 16.67h15v-16.67c0-7.026 5.716-12.742 12.742-12.742h22.007v29.411h15v-29.411h22.007c7.026 0 12.742 5.716 12.742 12.742v16.67h15v-16.67-38.103c0-15.296-12.445-27.741-27.742-27.741zm-37.007 38.102h-22.007c-4.592 0-8.924 1.128-12.742 3.112v-13.473c0-7.026 5.716-12.742 12.742-12.742h22.007zm49.749 3.112c-3.819-1.984-8.15-3.112-12.742-3.112h-22.007v-23.103h22.007c7.026 0 12.742 5.716 12.742 12.742z" fill="#f6a96c"/><g><path d="m193.607 154.852h11.501v-11.791c0-9.297 7.563-16.86 16.86-16.86h68.062c9.297 0 16.86 7.563 16.86 16.86v11.791h11.501c3.782 0 7.3 1.141 10.24 3.087v-37.271c0-26.431-21.427-47.857-47.857-47.857h-85.501c-6.576 0-11.907 5.331-11.907 11.907v73.222c2.941-1.947 6.459-3.088 10.241-3.088z" fill="#fac600"/><path d="m193.608 153.852h10.501v-10.791c0-8.456 5.883-15.523 13.775-17.373v-40.971c0-6.576 5.331-11.907 11.907-11.907h-34.516c-6.576 0-11.907 5.331-11.907 11.907v72.044c2.983-1.833 6.481-2.909 10.24-2.909z" fill="#e8b800"/><g><path d="m205.108 153.852h-11.501c-10.83 0-19.609 8.779-19.609 19.609 0 10.83 8.779 19.609 19.609 19.609h11.501z" fill="#f6a96c"/><path d="m318.392 153.852h-11.501v39.219h11.501c10.83 0 19.609-8.779 19.609-19.609.001-10.83-8.779-19.61-19.609-19.61z" fill="#ffbd86"/></g><g><path d="m269.697 233.927h-27.393c-21.095 0-38.195-17.101-38.195-38.195v-52.67c0-9.864 7.996-17.86 17.86-17.86h68.063c9.864 0 17.86 7.996 17.86 17.86v52.67c0 21.094-17.101 38.195-38.195 38.195z" fill="#fed2a4"/></g><g><path d="m230.245 195.732v-52.67c0-9.864 7.996-17.86 17.86-17.86h-26.137c-9.864 0-17.861 7.996-17.861 17.86v52.67c0 21.095 17.1 38.195 38.195 38.195h26.137c-21.093 0-38.194-17.101-38.194-38.195z" fill="#ffbd86"/></g><g fill="#bb5d4c"><path d="m237.305 165.685v-9.525c0-4.142-3.357-7.5-7.5-7.5s-7.5 3.358-7.5 7.5v9.525c0 4.142 3.357 7.5 7.5 7.5s7.5-3.358 7.5-7.5z"/><path d="m282.195 148.66c-4.143 0-7.5 3.358-7.5 7.5v9.525c0 4.142 3.357 7.5 7.5 7.5s7.5-3.358 7.5-7.5v-9.525c0-4.142-3.357-7.5-7.5-7.5z"/><path d="m244.444 183.224 7.145 5.196c1.332.969 2.875 1.435 4.405 1.435 2.317 0 4.604-1.071 6.071-3.089 2.437-3.35 1.695-8.041-1.654-10.477l-.849-.618 2.335-2.971c2.559-3.257 1.993-7.972-1.264-10.531-3.257-2.56-7.972-1.995-10.531 1.263l-7.145 9.092c-1.259 1.602-1.812 3.647-1.531 5.666s1.371 3.836 3.018 5.034z"/><path d="m266.693 196.615c-2.859 2.86-6.657 4.435-10.693 4.435s-7.834-1.575-10.693-4.435c-2.929-2.929-7.678-2.93-10.606 0-2.93 2.929-2.93 7.677-.001 10.606 5.693 5.693 13.258 8.829 21.301 8.829s15.607-3.135 21.301-8.829c2.929-2.929 2.929-7.678-.001-10.606-2.929-2.93-7.678-2.929-10.608 0z"/></g></g><g><g><g><path d="m483.674 158.889c-3.799 3.799-9.862 4.321-14.061 1.099l-11.33 75.062c14.482.493 27.036-9.942 29.199-24.27l9.902-65.599z" fill="#fed2a4"/></g><g><path d="m455.046 145.562c2.998 2.998 7.39 3.791 11.136 2.398-1.463 3.936-.513 8.586 2.872 11.582 4.204 3.72 10.651 3.317 14.62-.653l23.779-23.779c6.062-6.062 6.062-15.891 0-21.954l-33.535-33.535c-6.062-6.062-15.891-6.062-21.954 0l-23.779 23.779c-3.969 3.969-4.373 10.416-.653 14.62 2.996 3.386 7.645 4.336 11.582 2.872-1.392 3.746-.599 8.138 2.398 11.136 2.998 2.998 7.39 3.791 11.136 2.398-1.392 3.746-.599 8.138 2.398 11.136z" fill="#fed2a4"/></g><g><path d="m458.953 118.02c-3.72-4.204-3.317-10.651.653-14.62l19.045-19.045-4.733-4.733c-6.062-6.062-15.891-6.062-21.954 0l-23.779 23.778c-3.969 3.969-4.373 10.416-.653 14.62 2.996 3.386 7.645 4.336 11.582 2.872-1.392 3.746-.599 8.138 2.398 11.136 2.998 2.998 7.39 3.791 11.136 2.398-1.392 3.746-.599 8.138 2.398 11.136 2.998 2.998 7.39 3.791 11.136 2.398-1.463 3.936-.513 8.586 2.872 11.582 4.204 3.72 10.651 3.317 14.62-.653l7.773-7.773z" fill="#ffbd86"/></g></g><g><path d="m26.181 286.901v-131.57l-20.927-20.928c-2.743-2.743-4.254-6.39-4.254-10.269 0-.519.031-1.033.085-1.542-.641.479-1.085 1.228-1.085 2.134v153.49c0 11.403 8.083 21.205 19.277 23.378l14.631 2.84c-4.78-4.39-7.727-10.664-7.727-17.533z" fill="#fed2a4"/><path d="m256 304.641c-4.143 0-7.5 3.358-7.5 7.5v81.053l7.5-6.039 7.5 6.039v-81.053c0-4.143-3.357-7.5-7.5-7.5z" fill="#fed2a4"/><g><path d="m56.954 145.562c-2.998 2.998-7.39 3.791-11.136 2.398 1.463 3.936.513 8.586-2.872 11.582-4.204 3.72-10.651 3.317-14.62-.653l-23.779-23.779c-6.062-6.062-6.062-15.891 0-21.954l33.535-33.535c6.062-6.062 15.891-6.062 21.954 0l23.779 23.779c3.969 3.969 4.373 10.416.653 14.62-2.996 3.386-7.645 4.336-11.582 2.872 1.392 3.746.599 8.138-2.398 11.136-2.998 2.998-7.39 3.791-11.136 2.398 1.392 3.746.599 8.138-2.398 11.136z" fill="#fed2a4"/></g><g><path d="m30.314 135.11c-6.062-6.062-6.062-15.891 0-21.954l31.629-31.629-1.906-1.907c-6.062-6.062-15.891-6.062-21.954 0l-33.536 33.537c-6.062 6.062-6.062 15.891 0 21.954l23.779 23.779c3.969 3.969 10.416 4.373 14.62.653 2.472-2.187 3.63-5.256 3.514-8.285z" fill="#ffbd86"/></g></g></g><g><g><path d="m229.026 304.558c-.624 0-1.259-.079-1.892-.243l-79.401-20.636c-4.009-1.042-6.414-5.136-5.372-9.146 1.041-4.009 5.132-6.417 9.146-5.372l79.401 20.636c4.009 1.042 6.414 5.136 5.372 9.146-.877 3.376-3.921 5.615-7.254 5.615z" fill="#fed2a4"/></g><g><path d="m282.974 304.558c-3.334 0-6.376-2.239-7.254-5.615-1.042-4.009 1.363-8.104 5.372-9.146l79.401-20.636c4.015-1.042 8.104 1.364 9.146 5.372 1.042 4.009-1.363 8.104-5.372 9.146l-79.401 20.636c-.634.164-1.268.243-1.892.243z" fill="#fed2a4"/></g></g></g><g><g><path d="m163.227 27.774-22.184-22.183c-2.93-2.929-7.678-2.929-10.607 0l-22.184 22.184c-2.929 2.929-2.929 7.678 0 10.606 2.93 2.929 7.678 2.929 10.607 0l9.38-9.38v171.215c0 4.142 3.357 7.5 7.5 7.5s7.5-3.358 7.5-7.5v-171.215l9.38 9.38c1.465 1.464 3.385 2.197 5.304 2.197s3.839-.732 5.304-2.197c2.928-2.929 2.928-7.678 0-10.607z" fill="#8bc727"/></g><g><path d="m403.748 27.774-22.184-22.183c-2.93-2.929-7.678-2.929-10.607 0l-22.184 22.184c-2.929 2.929-2.929 7.678 0 10.606 2.93 2.929 7.678 2.929 10.607 0l9.38-9.38v171.215c0 4.142 3.357 7.5 7.5 7.5s7.5-3.358 7.5-7.5v-171.215l9.38 9.38c1.465 1.464 3.385 2.197 5.304 2.197s3.839-.732 5.304-2.197c2.929-2.929 2.929-7.678 0-10.607z" fill="#8bc727"/></g></g></g></svg>