<svg id="Capa_1" enable-background="new 0 0 512 512" height="512" viewBox="0 0 512 512" width="512" xmlns="http://www.w3.org/2000/svg"><g><g><g><g><path d="m314.646 276.349 18.821 18.821c.195.195.451.293.707.293s.512-.098.707-.293l10.836-10.835c2.73-2.729 6.359-4.233 10.22-4.233s7.49 1.503 10.22 4.233l.025.025.682-.733-20.849-20.849c-6.035-6.035-15.819-6.035-21.854 0l-10.847 10.847c.04.037.085.063.124.101z" fill="#f6a96c"/></g><g><path d="m445.345 363.523 10.99-10.99c2.73-2.729 6.359-4.233 10.22-4.233.869 0 1.724.087 2.562.236 1.03-1.896.766-4.309-.837-5.913l-11.647-11.647c-6.035-6.035-15.819-6.035-21.853 0l-10.99 10.99z" fill="#463b84"/></g><g fill="#01d0fb"><path d="m313.438 273.727c-2.011-2.012-5.273-2.012-7.284 0l-31.432 31.432.901 2.315 19.948 19.948 32.139-32.139c.784-.784 1.826-1.215 2.936-1.215s2.151.432 2.936 1.215l.707-.707z"/><path d="m244.656 403.898 1.184 1.184h.001z"/></g></g><path d="m446.052 362.816-79.188-79.188c-6.035-6.035-15.819-6.035-21.854 0l-11.554 11.554c.04.037.085.063.124.102l31.879 31.879c1.617 1.619 1.617 4.252 0 5.871l-2.944 2.944 54.481 54.481 3.328-1.914z" fill="#fed2a4"/><path d="m340.616 288.021-7.16 7.16c.04.037.085.063.124.102l31.879 31.879c1.617 1.619 1.617 4.252 0 5.871l-2.944 2.944 54.481 54.481 13.029-13.029z" fill="#ffbd86"/><path d="m449.701 409.97 39.427-39.427c1.953-1.953 1.953-5.118 0-7.071l-11.646-11.647c-6.035-6.035-15.819-6.035-21.854 0l-38.632 38.632 19.512 19.512h13.193z" fill="#54469c"/><g><path d="m366.166 326.454-31.879-31.879c-2.011-2.012-5.273-2.012-7.284 0l-31.433 31.432v1.414l9.139 9.139c.784.784 1.216 1.826 1.216 2.935s-.432 2.151-1.216 2.935l-57.383 57.383-2.669 4.083 6.071 6.071h39.207l76.231-76.231c2.011-2.009 2.011-5.27 0-7.282z" fill="#62dbfb"/><g><path d="m124.876 262.264 22.625-22.625c.489-.489.989-.964 1.497-1.426l-8.054-8.054c-1.346-1.346-1.346-3.529 0-4.875l6.449-6.45c13.798-13.798 14.753-35.565 2.882-50.476-1.105-1.388-1.032-3.369.222-4.623l6.796-6.796c1.99-1.99.886-5.396-1.893-5.841l-23.424-3.748c-1.816-.291-3.493-1.147-4.794-2.447l-14.674-14.674-2.494 1.037-45.144 45.143 8.842 13.12c.944 1.401.763 3.273-.431 4.468l-2.683 2.684c-5.477 5.478-5.477 14.358 0 19.836l5.688 5.688c2.663 2.663 6.224 4.349 9.99 4.405 2.632.039 5.17-.641 7.398-1.971l10.185 18.237 1.338.282 19.407 19.407c.093-.099.176-.204.272-.301z" fill="#fed2a4"/><g><path d="m120.633 186.475c-1.919 0-3.839-.732-5.303-2.196l-8.938-8.937c-2.93-2.929-2.93-7.678-.001-10.607 2.93-2.929 7.679-2.929 10.606 0l8.938 8.937c2.93 2.929 2.93 7.678.001 10.607-1.464 1.464-3.384 2.196-5.303 2.196z" fill="#bb5d4c"/></g><g><path d="m27.562 204.52 38.638 38.638c10.769 10.769 28.228 10.769 38.997 0l-11.161-19.986c-5.075 3.618-12.161 3.164-16.714-1.39l-5.995-5.995c-5.075-5.075-5.075-13.303 0-18.378l2.427-2.427c1.692-1.692 1.948-4.346.611-6.33l-8.164-12.114 46.309-46.309-8.758-21.409c-2.787-6.813-11.614-8.589-16.819-3.384l-59.369 59.369c-10.969 10.967-10.969 28.748-.002 39.715z" fill="#bb5d4c"/></g><g fill="#a44f3e"><path d="m39.072 198.685c0-4.75 2.614-8.883 6.477-11.059-.859-8.14 1.826-16.583 8.064-22.822l51.834-51.835-1.698-4.15c-2.787-6.813-11.614-8.589-16.819-3.384l-59.369 59.369c-10.967 10.967-10.967 28.749 0 39.716l11.51 11.51v-17.345z"/><path d="m78.501 229.408h-4.736c-.964 5.452-5.403 9.694-10.95 10.365l3.384 3.384c8.807 8.807 22.086 10.407 32.524 4.809-2.325-1.247-4.511-2.847-6.473-4.809z"/></g></g><path d="m305.416 335.854-96.923-96.923c-3.864-3.864-8.276-6.842-12.982-8.953v54.495c0 11.127-9.052 20.179-20.179 20.179s-20.179-9.052-20.179-20.179v-52.08c-2.978 1.794-5.791 3.969-8.36 6.538l-22.625 22.625c-6.035 6.035-6.035 15.819 0 21.853l120.488 120.488 60.76-60.76c2.011-2.01 2.011-5.271 0-7.283z" fill="#fac600"/><path d="m180.365 305.026c-1.615.394-3.294.627-5.031.627-11.697 0-21.179-9.482-21.179-21.179v-51.458c-2.608 1.669-5.08 3.636-7.36 5.916l-22.625 22.625c-6.035 6.035-6.035 15.819 0 21.853l120.488 120.488 17.29-17.29z" fill="#e8b800"/><g><path d="m186.21 196.463h-112.445c-1.052-5.947-6.235-10.469-12.484-10.469h-9.518c-7.009 0-12.691 5.682-12.691 12.691v28.501c0 7.009 5.682 12.691 12.691 12.691h9.518c6.249 0 11.432-4.521 12.484-10.469h80.389l1-.267v-6.029c0-2.206 1.794-4 4-4h33.607l3.75-1v-11.348c.001-5.689-4.611-10.301-10.301-10.301z" fill="#ffbd86"/><g><path d="m56.322 227.186v-28.501c0-5.655 3.701-10.442 8.811-12.082-1.216-.388-2.508-.609-3.853-.609h-9.518c-7.009 0-12.691 5.682-12.691 12.691v28.501c0 7.009 5.682 12.691 12.691 12.691h9.518c1.346 0 2.637-.221 3.853-.609-5.11-1.64-8.811-6.427-8.811-12.082z" fill="#f6a96c"/></g><g><path d="m154.154 223.113v61.361c0 11.697 9.482 21.179 21.179 21.179 11.697 0 21.179-9.482 21.179-21.179v-66.361h-37.358c-2.762 0-5 2.238-5 5z" fill="#f2fbff"/></g><g><path d="m171.525 284.474v-66.361h-12.371c-2.761 0-5 2.239-5 5v60.888c0 10.895 8.045 20.354 18.876 21.527 3.948.428 7.686-.264 10.988-1.752-7.36-3.319-12.493-10.704-12.493-19.302z" fill="#dff6fd"/></g></g></g><g fill="#8bc727"><path d="m347.687 126.446h-27.144c-4.143 0-7.5 3.358-7.5 7.5s3.357 7.5 7.5 7.5h9.037l-85.03 85.029c-2.929 2.929-2.929 7.678 0 10.606 1.465 1.465 3.384 2.197 5.304 2.197 1.919 0 3.839-.732 5.304-2.197l85.029-85.028v9.036c0 4.142 3.357 7.5 7.5 7.5s7.5-3.358 7.5-7.5v-27.143c0-4.142-3.358-7.5-7.5-7.5z"/><path d="m298.516 77.276h-27.143c-4.143 0-7.5 3.358-7.5 7.5s3.357 7.5 7.5 7.5h9.036l-66.486 66.486c-2.929 2.929-2.929 7.678 0 10.606 1.465 1.464 3.385 2.197 5.304 2.197s3.839-.732 5.304-2.197l66.485-66.485v9.036c0 4.142 3.357 7.5 7.5 7.5s7.5-3.358 7.5-7.5v-27.143c0-4.142-3.358-7.5-7.5-7.5z"/></g></g><g><path d="m506.849 434.724h-501.698c-2.845 0-5.151-2.306-5.151-5.151v-15.453c0-2.845 2.306-5.151 5.151-5.151h501.698c2.845 0 5.151 2.306 5.151 5.151v15.453c0 2.845-2.306 5.151-5.151 5.151z" fill="#fd4755"/></g><g><path d="m49.964 429.573v-15.453c0-2.845 2.306-5.151 5.151-5.151h-49.964c-2.845 0-5.151 2.306-5.151 5.151v15.453c0 2.845 2.306 5.151 5.151 5.151h49.964c-2.845 0-5.151-2.306-5.151-5.151z" fill="#fb2b3a"/></g></g></svg>