<svg id="Capa_1" enable-background="new 0 0 512 512" height="512" viewBox="0 0 512 512" width="512" xmlns="http://www.w3.org/2000/svg"><g><g><g><path d="m168.416 221.597c8.96 0 17.691.998 26.093 2.876v-107.808h-7.773c-15.495 0-28.056 12.561-28.056 28.056v77.274c3.212-.26 6.458-.398 9.736-.398z" fill="#01d0fb"/><g><path d="m327.591 116.665v170.19c0 9.894 8.021 17.915 17.915 17.915 9.894 0 17.915-8.021 17.915-17.915v-142.134c0-15.495-12.561-28.056-28.056-28.056z" fill="#62dbfb"/></g></g><g fill="#99e6fc"><path d="m241.411 498v-62.204c-13.615 10.526-29.552 18.183-46.901 22.06v40.144z"/><path d="m287.984 341.164c0 14.449-2.577 28.308-7.295 41.141v115.695h46.901v-381.335h-46.516v-18.031c-6.491 2.987-13.703 4.666-21.304 4.666-7.042 0-13.756-1.431-19.867-4.017v17.382h-45.393v107.808c53.422 11.938 93.474 59.722 93.474 116.691z"/></g><g fill="#62dbfb"><path d="m220.368 233.485v-116.82h-25.858v107.808c9.045 2.021 17.709 5.064 25.858 9.012z"/><path d="m220.368 498v-49.156c-8.149 3.948-16.813 6.991-25.858 9.012v40.144z"/></g><g><circle cx="259.771" cy="52.15" fill="#62dbfb" r="52.15"/></g><g><path d="m242.043 52.15c0-22.768 14.597-42.117 34.938-49.229-5.389-1.884-11.177-2.921-17.21-2.921-28.802 0-52.15 23.348-52.15 52.15s23.348 52.15 52.15 52.15c6.033 0 11.821-1.037 17.211-2.921-20.342-7.112-34.939-26.461-34.939-49.229z" fill="#01d0fb"/></g></g><g><g><circle cx="168.416" cy="341.164" fill="#fff3de" r="119.568"/></g><g><path d="m82.845 341.164c0-60.159 44.662-110.076 102.569-118.354-5.554-.794-11.228-1.214-16.998-1.214-65.93 0-119.568 53.638-119.568 119.568s53.638 119.568 119.568 119.568c5.77 0 11.444-.42 16.998-1.214-57.906-8.278-102.569-58.194-102.569-118.354z" fill="#ffe5c2"/></g><g><circle cx="168.416" cy="341.164" fill="#99e6fc" r="58.359"/></g><g><path d="m136.219 341.164c0-27.681 19.379-50.906 45.278-56.863-4.208-.968-8.583-1.496-13.081-1.496-32.179 0-58.359 26.18-58.359 58.359s26.18 58.359 58.359 58.359c4.498 0 8.872-.529 13.081-1.496-25.899-5.957-45.278-29.181-45.278-56.863z" fill="#62dbfb"/></g><g fill="#54469c"><path d="m153.132 341.165c0-2.726.726-5.282 1.982-7.5h-14.615c-4.142 0-7.5 3.358-7.5 7.5s3.358 7.5 7.5 7.5h14.615c-1.256-2.219-1.982-4.775-1.982-7.5z"/><path d="m247.332 333.665h-65.612c1.256 2.218 1.982 4.774 1.982 7.5s-.726 5.282-1.982 7.5h65.612c4.142 0 7.5-3.358 7.5-7.5s-3.358-7.5-7.5-7.5z"/></g><g><circle cx="168.416" cy="341.164" fill="#fd4755" r="16.284"/></g><path d="m166 341.164c0-6.51 3.829-12.112 9.35-14.718-2.106-.994-4.45-1.566-6.934-1.566-8.994 0-16.284 7.291-16.284 16.284s7.291 16.284 16.284 16.284c2.483 0 4.828-.572 6.934-1.566-5.521-2.606-9.35-8.208-9.35-14.718z" fill="#fb2b3a"/><g fill="#ffbd86"><path d="m161.674 221.791c-.481.989-.758 2.095-.758 3.269v12.877c0 4.142 3.358 7.5 7.5 7.5s7.5-3.358 7.5-7.5v-12.877c0-1.174-.277-2.28-.758-3.269-2.232-.125-4.479-.194-6.742-.194-2.262 0-4.509.069-6.742.194z"/><path d="m168.417 436.892c-4.142 0-7.5 3.358-7.5 7.5v12.878c0 1.173.277 2.28.758 3.269 2.232.125 4.479.194 6.742.194s4.51-.069 6.742-.194c.481-.989.758-2.095.758-3.269v-12.878c0-4.142-3.358-7.5-7.5-7.5z"/><path d="m49.043 347.907c.989.481 2.095.758 3.269.758h12.878c4.142 0 7.5-3.358 7.5-7.5s-3.358-7.5-7.5-7.5h-12.878c-1.174 0-2.28.277-3.269.758-.125 2.232-.194 4.479-.194 6.742 0 2.262.069 4.509.194 6.742z"/><path d="m271.644 333.665c-4.142 0-7.5 3.358-7.5 7.5s3.358 7.5 7.5 7.5h12.878c1.174 0 2.28-.277 3.269-.758.125-2.232.194-4.479.194-6.742s-.069-4.51-.194-6.742c-.989-.481-2.095-.758-3.269-.758z"/><path d="m103.869 244.365 6.439 11.152c1.389 2.406 3.91 3.751 6.502 3.751 1.272 0 2.562-.324 3.743-1.006 3.587-2.071 4.816-6.658 2.745-10.245l-6.439-11.152c-.584-1.011-1.372-1.827-2.277-2.443-4.033 2.042-7.933 4.308-11.688 6.778.084 1.082.396 2.162.975 3.165z"/><path d="m232.964 437.964-6.439-11.152c-2.071-3.587-6.658-4.816-10.245-2.745s-4.816 6.658-2.745 10.245l6.439 11.152c.584 1.012 1.377 1.824 2.283 2.44 4.031-2.041 7.929-4.306 11.682-6.775-.084-1.082-.396-2.162-.975-3.165z"/><path d="m75.269 386.283-11.152 6.439c-1.011.584-1.827 1.372-2.443 2.277 2.041 4.031 4.306 7.929 6.774 11.683 1.083-.083 2.165-.39 3.168-.969l11.152-6.439c3.587-2.071 4.816-6.658 2.745-10.245-2.07-3.589-6.657-4.818-10.244-2.746z"/><path d="m261.564 296.046 11.152-6.439c1.011-.584 1.827-1.372 2.443-2.277-2.042-4.033-4.308-7.933-6.778-11.688-1.082.084-2.162.396-3.165.975l-11.152 6.439c-3.587 2.071-4.816 6.658-2.745 10.245 1.389 2.406 3.91 3.751 6.502 3.751 1.272 0 2.562-.324 3.743-1.006z"/><path d="m82.769 283.056-11.152-6.439c-1.002-.579-2.083-.891-3.164-.975-2.47 3.755-4.736 7.656-6.778 11.689.615.905 1.431 1.693 2.443 2.277l11.152 6.439c1.181.682 2.471 1.006 3.743 1.006 2.592 0 5.113-1.345 6.502-3.751 2.07-3.588.841-8.175-2.746-10.246z"/><path d="m272.716 392.722-11.152-6.439c-3.587-2.072-8.174-.843-10.245 2.745-2.071 3.587-.842 8.174 2.745 10.245l11.152 6.439c1.003.58 2.085.886 3.168.969 2.468-3.754 4.733-7.652 6.774-11.683-.614-.904-1.431-1.692-2.442-2.276z"/><path d="m120.553 424.067c-3.587-2.072-8.174-.842-10.245 2.745l-6.439 11.152c-.579 1.002-.891 2.083-.975 3.164 3.754 2.469 7.652 4.734 11.683 6.775.906-.616 1.698-1.427 2.283-2.44l6.439-11.152c2.07-3.586.841-8.173-2.746-10.244z"/><path d="m222.25 234.422c-.905.615-1.693 1.432-2.276 2.443l-6.439 11.152c-2.071 3.587-.842 8.174 2.745 10.245 1.181.682 2.471 1.006 3.743 1.006 2.592 0 5.113-1.345 6.502-3.751l6.439-11.152c.579-1.002.891-2.083.975-3.165-3.756-2.47-7.656-4.736-11.689-6.778z"/></g></g><g><path d="m477.645 512h-443.29c-4.142 0-7.5-3.358-7.5-7.5s3.358-7.5 7.5-7.5h443.289c4.142 0 7.5 3.358 7.5 7.5s-3.357 7.5-7.499 7.5z" fill="#01d0fb"/></g><g><g><path d="m436.122 34.947h-17.489c-4.142 0-7.5-3.358-7.5-7.5s3.358-7.5 7.5-7.5h17.489c4.142 0 7.5 3.358 7.5 7.5s-3.358 7.5-7.5 7.5z" fill="#54469c"/></g><g><path d="m436.122 89.517h-17.489c-4.142 0-7.5-3.358-7.5-7.5s3.358-7.5 7.5-7.5h17.489c4.142 0 7.5 3.358 7.5 7.5s-3.358 7.5-7.5 7.5z" fill="#aca6d6"/></g><g><path d="m436.122 144.086h-17.489c-4.142 0-7.5-3.358-7.5-7.5s3.358-7.5 7.5-7.5h17.489c4.142 0 7.5 3.358 7.5 7.5s-3.358 7.5-7.5 7.5z" fill="#54469c"/></g><g><path d="m436.122 198.656h-17.489c-4.142 0-7.5-3.358-7.5-7.5s3.358-7.5 7.5-7.5h17.489c4.142 0 7.5 3.358 7.5 7.5s-3.358 7.5-7.5 7.5z" fill="#aca6d6"/></g><g><path d="m436.122 253.225h-17.489c-4.142 0-7.5-3.358-7.5-7.5s3.358-7.5 7.5-7.5h17.489c4.142 0 7.5 3.358 7.5 7.5s-3.358 7.5-7.5 7.5z" fill="#54469c"/></g><g><path d="m436.122 307.794h-17.489c-4.142 0-7.5-3.358-7.5-7.5s3.358-7.5 7.5-7.5h17.489c4.142 0 7.5 3.358 7.5 7.5s-3.358 7.5-7.5 7.5z" fill="#aca6d6"/></g><g><path d="m436.122 362.364h-17.489c-4.142 0-7.5-3.358-7.5-7.5s3.358-7.5 7.5-7.5h17.489c4.142 0 7.5 3.358 7.5 7.5s-3.358 7.5-7.5 7.5z" fill="#54469c"/></g><g><path d="m436.122 416.934h-17.489c-4.142 0-7.5-3.358-7.5-7.5s3.358-7.5 7.5-7.5h17.489c4.142 0 7.5 3.358 7.5 7.5s-3.358 7.5-7.5 7.5z" fill="#aca6d6"/></g><g><path d="m436.122 471.503h-17.489c-4.142 0-7.5-3.358-7.5-7.5s3.358-7.5 7.5-7.5h17.489c4.142 0 7.5 3.358 7.5 7.5s-3.358 7.5-7.5 7.5z" fill="#54469c"/></g></g><g><path d="m128.895 138.051-32.785-43.946c-1.218-1.632-3.664-1.632-4.882 0l-32.785 43.946c-1.498 2.009-.065 4.866 2.441 4.866h15.791c1.682 0 3.045 1.363 3.045 3.045v57.214c0 1.682 1.363 3.045 3.045 3.045h21.806c1.682 0 3.045-1.363 3.045-3.045v-57.214c0-1.682 1.363-3.045 3.045-3.045h15.791c2.508 0 3.941-2.857 2.443-4.866z" fill="#8bc727"/></g><g><g><path d="m103.925 104.581-7.815-10.476c-1.218-1.632-3.664-1.632-4.882 0l-32.785 43.946c-1.498 2.009-.065 4.866 2.441 4.866h14.441z" fill="#81b823"/></g></g><g><path d="m168.417 468.232c-70.065 0-127.068-57.002-127.068-127.068s57.002-127.068 127.068-127.068 127.068 57.002 127.068 127.068-57.003 127.068-127.068 127.068zm0-239.135c-61.794 0-112.068 50.273-112.068 112.068s50.273 112.068 112.068 112.068 112.068-50.273 112.068-112.068-50.274-112.068-112.068-112.068z" fill="#fd4755"/></g></g></svg>