<svg id="Capa_1" enable-background="new 0 0 512 512" height="512" viewBox="0 0 512 512" width="512" xmlns="http://www.w3.org/2000/svg"><g><path d="m376.311 216.103c-59.304 0-107.551-48.247-107.551-107.551 0-5.672.445-11.242 1.295-16.68h-236.959l-5.958 1v361.837c0 6.661 5.4 12.061 12.061 12.061h57.472c2.649-18.834 18.862-33.374 38.415-33.374h164.033c19.553 0 35.765 14.54 38.414 33.374h57.473c6.661 0 12.061-5.4 12.061-12.061v-243.095c-9.749 2.915-20.071 4.489-30.756 4.489z" fill="#fff3de"/><g><path d="m79.016 454.709v-361.837h-51.878v361.837c0 6.661 5.4 12.061 12.061 12.061h51.879c-6.662 0-12.062-5.4-12.062-12.061z" fill="#ffe5c2"/></g><path d="m301.502 31.359h-262.303c-6.661 0-12.061 5.4-12.061 12.061v49.451h242.768c3.517-23.97 14.969-45.393 31.596-61.512z" fill="#fd4755"/><g><path d="m91.078 31.359h-51.879c-6.661 0-12.061 5.4-12.061 12.061v49.451h51.879v-49.451c-.001-6.661 5.399-12.061 12.061-12.061z" fill="#fb2b3a"/></g><g><path d="m273.063 138.686h-38.696c-4.142 0-7.5 3.358-7.5 7.5s3.358 7.5 7.5 7.5h44.336c-2.238-4.819-4.129-9.829-5.64-15z" fill="#ffbd86"/><g><path d="m208.612 153.686h-55.434c-4.142 0-7.5-3.358-7.5-7.5s3.358-7.5 7.5-7.5h55.434c4.142 0 7.5 3.358 7.5 7.5s-3.358 7.5-7.5 7.5z" fill="#ffbd86"/></g><path d="m291.696 174.87h-138.518c-4.142 0-7.5 3.358-7.5 7.5s3.358 7.5 7.5 7.5h152.818c-5.231-4.53-10.022-9.554-14.3-15z" fill="#ffbd86"/><path d="m343.731 211.053h-142.331c-4.142 0-7.5 3.358-7.5 7.5s3.358 7.5 7.5 7.5h147.17c4.142 0 7.5-3.358 7.5-7.5 0-1.778-.622-3.408-1.655-4.694-3.632-.754-7.196-1.694-10.684-2.806z" fill="#ffbd86"/><g><path d="m175.646 226.053h-90.011c-4.142 0-7.5-3.358-7.5-7.5s3.358-7.5 7.5-7.5h90.011c4.142 0 7.5 3.358 7.5 7.5s-3.358 7.5-7.5 7.5z" fill="#ffbd86"/></g><g><path d="m348.57 262.237h-262.935c-4.142 0-7.5-3.358-7.5-7.5s3.358-7.5 7.5-7.5h262.935c4.142 0 7.5 3.358 7.5 7.5s-3.358 7.5-7.5 7.5z" fill="#ffbd86"/></g></g><g><path d="m169.882 327.232h94.441v34.477h-94.441z" fill="#fe860a"/><g><g><g><path d="m161.729 390.784h-34.346c-5.055 0-9.153-4.098-9.153-9.153v-74.321c0-5.055 4.098-9.153 9.153-9.153h34.346c5.055 0 9.153 4.098 9.153 9.153v74.322c0 5.055-4.098 9.152-9.153 9.152z" fill="#fe7701"/></g></g><g><path d="m144.629 381.632v-74.322c0-5.055 4.098-9.153 9.153-9.153h-26.398c-5.055 0-9.153 4.098-9.153 9.153v74.322c0 5.055 4.098 9.153 9.153 9.153h26.398c-5.056-.001-9.153-4.098-9.153-9.153z" fill="#f46700"/></g><g><g><path d="m306.822 390.784h-34.346c-5.055 0-9.153-4.098-9.153-9.153v-74.321c0-5.055 4.098-9.153 9.153-9.153h34.346c5.055 0 9.153 4.098 9.153 9.153v74.322c-.001 5.055-4.098 9.152-9.153 9.152z" fill="#fe7701"/></g></g><g><path d="m289.884 381.632v-74.322c0-5.055 4.098-9.153 9.153-9.153h-26.561c-5.055 0-9.153 4.098-9.153 9.153v74.322c0 5.055 4.098 9.153 9.153 9.153h26.561c-5.055-.001-9.153-4.098-9.153-9.153z" fill="#f46700"/></g></g></g><g><g><circle cx="376.311" cy="108.551" fill="#c8effe" r="108.551"/></g><g><path d="m311.63 108.551c0-52.437 37.18-96.189 86.616-106.333-7.085-1.454-14.421-2.218-21.935-2.218-59.951 0-108.551 48.6-108.551 108.551s48.6 108.551 108.551 108.551c7.515 0 14.851-.764 21.935-2.218-49.436-10.144-86.616-53.896-86.616-106.333z" fill="#99e6fc"/></g><g><path d="m376.311 57.085c2.572 0 5.08.279 7.5.797v-10.382c0-4.142-3.358-7.5-7.5-7.5s-7.5 3.358-7.5 7.5v10.382c2.42-.518 4.928-.797 7.5-.797z" fill="#fac600"/><g><path d="m355.929 151.575c-.078.725-.123 1.46-.123 2.206 0 11.324 9.18 20.504 20.504 20.504s20.504-9.18 20.504-20.504c0-.746-.045-1.481-.123-2.206z" fill="#fac600"/><path d="m401.434 73.574c0-2.252.403-4.406 1.108-6.421-6.687-6.818-15.985-11.068-26.231-11.068-20.233 0-36.787 16.554-36.787 36.787v30.251l73.574.001v-30.252c0-.493-.018-.982-.037-1.47-6.839-3.035-11.627-9.878-11.627-17.828z" fill="#fac600"/><path d="m340.083 122.215h25.716v-29.343c0-15.609 9.857-29.02 23.65-34.338-4.086-1.575-8.513-2.449-13.137-2.449-20.233 0-36.787 16.554-36.787 36.787v30.251z" fill="#e8b800"/><g><path d="m339.524 121.216-16.399 26.649c-1.267 2.059.214 4.71 2.632 4.71h101.108c2.418 0 3.899-2.651 2.632-4.71l-16.399-26.649z" fill="#e8b800"/></g><g><path d="m349.02 147.865 16.399-26.649h-25.895l-16.399 26.649c-1.267 2.059.214 4.71 2.632 4.71h25.895c-2.418 0-3.9-2.651-2.632-4.71z" fill="#d7aa02"/></g></g></g><g><circle cx="420.938" cy="73.574" fill="#fd4755" r="20.504"/></g><g><path d="m417.937 73.574c0-8.189 4.812-15.236 11.752-18.522-2.657-1.258-5.617-1.983-8.752-1.983-11.324 0-20.504 9.18-20.504 20.504s9.18 20.504 20.504 20.504c3.135 0 6.095-.724 8.752-1.983-6.94-3.285-11.752-10.332-11.752-18.52z" fill="#fb2b3a"/></g></g><g><path d="m299.119 512h-164.033c-21.982 0-39.802-17.82-39.802-39.802 0-21.982 17.82-39.802 39.802-39.802h164.033c21.982 0 39.802 17.82 39.802 39.802 0 21.982-17.82 39.802-39.802 39.802z" fill="#8bc727"/></g><g><path d="m156.072 472.198c0-21.982 17.82-39.802 39.802-39.802h-60.789c-21.982 0-39.802 17.82-39.802 39.802 0 21.982 17.82 39.802 39.802 39.802h60.789c-21.982 0-39.802-17.82-39.802-39.802z" fill="#81b823"/></g><g><path d="m294.294 479.698h-154.383c-4.142 0-7.5-3.358-7.5-7.5s3.358-7.5 7.5-7.5h154.384c4.142 0 7.5 3.358 7.5 7.5s-3.358 7.5-7.501 7.5z" fill="#bbec6c"/></g><g><path d="m118.728 182.369h-30.003c-1.707 0-3.091-1.384-3.091-3.091v-30.003c0-1.707 1.384-3.091 3.091-3.091h30.003c1.707 0 3.091 1.384 3.091 3.091v30.003c0 1.708-1.384 3.091-3.091 3.091z" fill="#fff"/></g><g><path d="m118.728 189.87h-30.002c-5.84 0-10.591-4.751-10.591-10.591v-30.002c0-5.84 4.751-10.591 10.591-10.591h30.002c5.84 0 10.591 4.751 10.591 10.591v30.002c0 5.84-4.751 10.591-10.591 10.591zm-25.593-15h21.184v-21.184h-21.184z" fill="#ffbd86"/></g><g><path d="m84.99 67.766h-27.815c-4.142 0-7.5-3.358-7.5-7.5s3.358-7.5 7.5-7.5h27.815c4.142 0 7.5 3.358 7.5 7.5s-3.358 7.5-7.5 7.5z" fill="#fff"/></g></g></svg>