<svg id="Capa_1" enable-background="new 0 0 512 512" height="512" viewBox="0 0 512 512" width="512" xmlns="http://www.w3.org/2000/svg"><g><g><g><path d="m277.887 511v-77.925c0-7.969 6.483-14.453 14.452-14.453h80.128l1.024-1v-348.777c0-2.845-2.306-5.151-5.151-5.151h-62.605v39.919c0 5.129-4.173 9.302-9.302 9.302h-180.276c-5.129 0-9.302-4.173-9.302-9.302v-39.919h-62.605c-2.845 0-5.151 2.306-5.151 5.151v438.004c0 2.845 2.306 5.151 5.151 5.151h232.637l1.024-1z" fill="#bb5d4c"/><path d="m91.588 506.849v-25.471h-18.777c-1.707 0-3.091-1.384-3.091-3.091v-380.881c0-1.707 1.384-3.091 3.091-3.091h18.776v-25.47c0-2.845 2.306-5.151 5.151-5.151h-52.488c-2.845 0-5.151 2.306-5.151 5.151v438.004c0 2.845 2.306 5.151 5.151 5.151h52.489c-2.845 0-5.151-2.306-5.151-5.151z" fill="#a44f3e"/><path d="m277.887 433.075c0-7.969 6.483-14.453 14.452-14.453h49.495l1.035-1v-320.216c0-1.707-1.384-3.091-3.091-3.091h-34.043v9.297c0 5.129-4.173 9.302-9.302 9.302h-180.276c-5.129 0-9.302-4.173-9.302-9.302v-9.297h-34.044c-1.707 0-3.091 1.384-3.091 3.091v380.881c0 1.707 1.384 3.091 3.091 3.091h204.075l1-.967v-47.336z" fill="#fff"/><path d="m113.684 478.287v-365.717c-3.931-1.087-6.829-4.686-6.829-8.958v-9.297h-34.044c-1.707 0-3.091 1.384-3.091 3.091v380.881c0 1.707 1.384 3.091 3.091 3.091h43.964c-1.707 0-3.091-1.384-3.091-3.091z" fill="#f2fbff"/><path d="m257.684 53.67c.031-.738.056-1.479.056-2.225 0-28.412-23.033-51.445-51.445-51.445s-51.445 23.033-51.445 51.445c0 .746.025 1.487.056 2.225z" fill="#e8b800"/><path d="m189.216 53.67c-.031-.738-.05-1.479-.05-2.225 0-22.394 14.313-41.436 34.287-48.503-5.368-1.899-11.14-2.942-17.158-2.942-28.412 0-51.445 23.033-51.445 51.445 0 .746.025 1.487.056 2.225z" fill="#d7aa02"/><g><path d="m296.433 113.914h-180.276c-5.69 0-10.302-4.612-10.302-10.302v-40.64c0-5.69 4.612-10.302 10.302-10.302h180.277c5.69 0 10.302 4.612 10.302 10.302v40.64c-.001 5.69-4.613 10.302-10.303 10.302z" fill="#fac600"/></g><g><path d="m149.891 103.612v-40.64c0-5.69 4.612-10.302 10.302-10.302h-44.037c-5.69 0-10.302 4.612-10.302 10.302v40.64c0 5.69 4.612 10.302 10.302 10.302h44.037c-5.689 0-10.302-4.612-10.302-10.302z" fill="#e8b800"/></g><g><path d="m271.338 90.792h-130.087c-4.142 0-7.5-3.358-7.5-7.5s3.358-7.5 7.5-7.5h130.086c4.143 0 7.5 3.358 7.5 7.5s-3.357 7.5-7.499 7.5z" fill="#d7aa02"/></g><g><g><g><path d="m135.224 306.22h-25.666c-1.707 0-3.091-1.384-3.091-3.091v-25.666c0-1.707 1.384-3.091 3.091-3.091h25.666c1.707 0 3.091 1.384 3.091 3.091v25.666c-.001 1.707-1.385 3.091-3.091 3.091z" fill="#62dbfb"/></g><g><path d="m135.224 313.72h-25.666c-5.839 0-10.59-4.751-10.59-10.591v-25.666c0-5.84 4.751-10.591 10.59-10.591h25.666c5.839 0 10.59 4.751 10.59 10.591v25.666c0 5.84-4.751 10.591-10.59 10.591zm-21.257-15h16.847v-16.847h-16.847z" fill="#01d0fb"/></g><g><path d="m272.482 313.72h-99.872c-4.142 0-7.5-3.358-7.5-7.5s3.358-7.5 7.5-7.5h99.872c4.143 0 7.5 3.358 7.5 7.5s-3.357 7.5-7.5 7.5z" fill="#62dbfb"/></g><g><path d="m272.482 281.873h-99.872c-4.142 0-7.5-3.358-7.5-7.5s3.358-7.5 7.5-7.5h99.872c4.143 0 7.5 3.358 7.5 7.5s-3.357 7.5-7.5 7.5z" fill="#62dbfb"/></g></g><g><g><path d="m135.224 370.526h-25.666c-1.707 0-3.091-1.384-3.091-3.091v-25.665c0-1.707 1.384-3.091 3.091-3.091h25.666c1.707 0 3.091 1.384 3.091 3.091v25.666c-.001 1.707-1.385 3.09-3.091 3.09z" fill="#62dbfb"/></g><g><path d="m135.224 378.026h-25.666c-5.839 0-10.59-4.751-10.59-10.591v-25.665c0-5.84 4.751-10.591 10.59-10.591h25.666c5.839 0 10.59 4.751 10.59 10.591v25.666c0 5.839-4.751 10.59-10.59 10.59zm-21.257-15h16.847v-16.847h-16.847z" fill="#01d0fb"/></g><g><path d="m264.241 346.179h-91.63c-4.142 0-7.5-3.358-7.5-7.5s3.358-7.5 7.5-7.5h91.63c4.143 0 7.5 3.358 7.5 7.5s-3.357 7.5-7.5 7.5z" fill="#62dbfb"/></g><g><path d="m272.482 378.026h-99.872c-4.142 0-7.5-3.358-7.5-7.5s3.358-7.5 7.5-7.5h99.872c4.143 0 7.5 3.358 7.5 7.5s-3.357 7.5-7.5 7.5z" fill="#62dbfb"/></g></g><g><g><path d="m135.224 434.833h-25.666c-1.707 0-3.091-1.384-3.091-3.091v-25.666c0-1.707 1.384-3.091 3.091-3.091h25.666c1.707 0 3.091 1.384 3.091 3.091v25.666c-.001 1.707-1.385 3.091-3.091 3.091z" fill="#62dbfb"/></g><g><path d="m135.224 442.333h-25.666c-5.839 0-10.59-4.751-10.59-10.59v-25.666c0-5.839 4.751-10.59 10.59-10.59h25.666c5.839 0 10.59 4.751 10.59 10.59v25.666c0 5.839-4.751 10.59-10.59 10.59zm-21.257-15h16.847v-16.847h-16.847z" fill="#01d0fb"/></g><g><path d="m247.759 410.486h-75.148c-4.142 0-7.5-3.358-7.5-7.5s3.358-7.5 7.5-7.5h75.148c4.142 0 7.5 3.358 7.5 7.5s-3.358 7.5-7.5 7.5z" fill="#62dbfb"/></g><path d="m277.887 433.075c0-2.041.43-3.981 1.197-5.743h-106.473c-4.142 0-7.5 3.358-7.5 7.5s3.358 7.5 7.5 7.5h105.276z" fill="#62dbfb"/></g></g><g><path d="m134.178 223.777v-44.945c0-4.142-3.358-7.5-7.5-7.5s-7.5 3.358-7.5 7.5v44.945z" fill="#fe7701"/><path d="m173.986 223.777v-74.342c0-4.142-3.358-7.5-7.5-7.5s-7.5 3.358-7.5 7.5v74.342z" fill="#8bc727"/><path d="m213.795 223.777v-44.945c0-4.142-3.358-7.5-7.5-7.5s-7.5 3.358-7.5 7.5v44.945z" fill="#fac600"/><path d="m253.604 223.777v-33.921c0-4.142-3.358-7.5-7.5-7.5s-7.5 3.358-7.5 7.5v33.921z" fill="#fd4755"/><path d="m293.412 223.777v-64.543c0-4.142-3.357-7.5-7.5-7.5s-7.5 3.358-7.5 7.5v64.543z" fill="#8bc727"/></g><g><path d="m305.104 237.777h-199.656c-4.142 0-7.5-3.358-7.5-7.5s3.358-7.5 7.5-7.5h199.656c4.143 0 7.5 3.358 7.5 7.5s-3.358 7.5-7.5 7.5z" fill="#aca6d6"/></g></g><g><path d="m373.135 220.544c-2.388-6.024-6.002-11.675-10.877-16.549-13.088-13.088-31.736-17.219-48.34-12.405-4.192 14.46-1.594 30.466 7.79 43.004 2.874-1.495 5.906-2.69 9.081-3.541 3.767-1.009 7.653-1.521 11.553-1.521 9.377 0 18.881 2.996 27.359 8.537.239-3.847 1.016-10.257 3.434-17.525z" fill="#8bc727"/><path d="m330.789 231.053c3.767-1.009 7.653-1.521 11.553-1.521 1.333 0 2.669.067 4.004.187-10.126-11.084-14.238-25.683-12.345-39.635-6.703-.876-13.55-.389-20.083 1.505-4.192 14.46-1.594 30.466 7.79 43.005 2.874-1.495 5.906-2.69 9.081-3.541z" fill="#81b823"/><path d="m349.275 389.373h51.238v29.25h-51.238z" fill="#54469c"/><path d="m349.275 389.373h22.376v29.25h-22.376z" fill="#463b84"/><g><path d="m472.901 512h-196.015v-78.925c0-8.534 6.918-15.453 15.453-15.453h165.109c8.534 0 15.453 6.918 15.453 15.453z" fill="#aca6d6"/></g><g><path d="m339.164 417.622h-46.825c-8.534 0-15.453 6.918-15.453 15.453v78.925h46.825v-78.925c.001-8.534 6.919-15.453 15.453-15.453z" fill="#978ecb"/></g><g fill="#54469c"><path d="m335.109 449.685-1-1.814h-10.034c-9.356 0-16.94 7.584-16.94 16.94s7.584 16.94 16.94 16.94h10.034l1-1.996z"/><path d="m425.712 447.872h-10.034l-1 1.974v29.974l1 1.931h-.001 10.035c9.355 0 16.94-7.584 16.94-16.94s-7.584-16.939-16.94-16.939z"/></g><g><path d="m334.11 447.872h81.569v33.879h-81.569z" fill="#01d0fb"/></g><path d="m421.681 230.087c-13.337-3.574-27.082-.806-38.825 6.587-.283 2.688-.26 4.442-.253 4.74.085 3.577-2.749 6.568-6.316 6.667l-.186.002c-3.528 0-6.38-2.758-6.492-6.278-.011-.333-.049-2.104.173-4.858-11.837-7.596-25.752-10.476-39.251-6.859-28.27 7.575-43.962 40.677-35.051 73.935 3.986 14.875 12.225 28.809 22.638 39.003h115.977c10.412-10.194 18.652-24.128 22.638-39.003 8.91-33.26-6.783-66.361-35.052-73.936z" fill="#fd4755"/><path d="m318.117 343.024h43.374c-10.414-10.191-18.653-24.126-22.639-39.003-7.847-29.285 3.389-58.439 25.484-70.161-10.548-5.221-22.327-6.85-33.806-3.774-28.27 7.575-43.962 40.677-35.051 73.935 3.986 14.876 12.225 28.809 22.638 39.003z" fill="#fb2b3a"/><g><path d="m332.545 390.373c-25.005 0-45.349-20.343-45.349-45.349 0-1.657 1.343-3 3-3h169.396c1.657 0 3 1.343 3 3 0 25.005-20.344 45.349-45.349 45.349z" fill="#aca6d6"/></g><path d="m329.604 345.024c0-1.657 1.343-3 3-3h-42.408c-1.657 0-3 1.343-3 3 0 25.005 20.344 45.349 45.349 45.349h42.408c-25.005 0-45.349-20.343-45.349-45.349z" fill="#978ecb"/><g><path d="m376.101 249.083c-4.034 0-7.362-3.189-7.491-7.247-.057-1.772-.911-43.578 39.798-59.861 3.842-1.538 8.21.332 9.749 4.178 1.538 3.846-.333 8.211-4.179 9.749-30.805 12.322-30.407 44.139-30.375 45.488.098 4.129-3.16 7.576-7.289 7.69-.072.002-.143.003-.213.003z" fill="#a44f3e"/></g></g></g></g></svg>