<svg id="Capa_1" enable-background="new 0 0 512 512" height="512" viewBox="0 0 512 512" width="512" xmlns="http://www.w3.org/2000/svg"><g><path d="m255.741 421.734c.085.023.172.034.259.034s.174-.011.259-.034l147.476-39.516c27.182-33.028 43.506-75.329 43.506-121.444 0-105.619-85.621-191.241-191.241-191.241s-191.241 85.622-191.241 191.241c0 46.115 16.324 88.415 43.506 121.444z" fill="#dff6fd"/><path d="m100.029 380.944c2.312 0 4.627.307 6.882.911l14.53 3.893c-30.497-32.813-49.181-76.749-49.181-124.974 0-101.315 82.426-183.741 183.74-183.741s183.74 82.426 183.74 183.741c0 48.224-18.684 92.16-49.181 124.974l14.53-3.893c2.255-.604 4.57-.911 6.882-.911.72 0 1.434.033 2.142.09 25.475-33.412 40.628-75.097 40.628-120.26 0-109.586-89.154-198.741-198.74-198.741s-198.741 89.155-198.741 198.741c0 45.163 15.153 86.848 40.628 120.26.708-.057 1.422-.09 2.141-.09z" fill="#c8effe"/><g><circle cx="256" cy="260.774" fill="#c8effe" r="131.35"/></g><g><path d="m256 399.625c-76.562 0-138.851-62.288-138.851-138.85s62.288-138.851 138.851-138.851 138.851 62.288 138.851 138.851c0 76.561-62.289 138.85-138.851 138.85zm0-262.701c-68.291 0-123.851 55.559-123.851 123.851 0 68.291 55.56 123.85 123.851 123.85s123.851-55.559 123.851-123.85c0-68.292-55.56-123.851-123.851-123.851z" fill="#fff"/></g><g><g><path d="m176.4 291.852v-50.201c0-6.933 1.76-13.463 4.855-19.167-1.282 1.205-2.335 2.691-3.029 4.431l-23.054 57.819-78.422-19.452-5.098-17.391c0-5.759-4.842-10.387-10.677-10.036-5.374.323-9.434 5.046-9.434 10.43v4.506h-19.386c-5.789 0-10.482 4.693-10.482 10.482v21.638c0 8.548 6.93 15.477 15.477 15.477l31.5-1.72 95.612 25.055c8.875 2.326 18.001-2.32 21.613-10.537-5.816-5.274-9.475-12.884-9.475-21.334z" fill="#fed2a4"/><g><g><path d="m38.771 284.91v-21.638c0-5.789 4.693-10.482 10.482-10.482h-17.098c-5.789 0-10.482 4.693-10.482 10.482v21.638c0 8.548 6.93 15.477 15.477 15.477l12.539-.685c-6.322-1.946-10.918-7.832-10.918-14.792z" fill="#ffbd86"/></g></g><path d="m479.845 252.79h-19.387v-4.506c0-5.383-4.06-10.106-9.434-10.43-5.835-.351-10.677 4.277-10.677 10.036l-5.098 17.391-78.422 19.452-23.054-57.819c-.694-1.74-1.747-3.226-3.029-4.431 3.095 5.704 4.855 12.234 4.855 19.167v50.201c0 8.45-3.659 16.06-9.475 21.332 3.612 8.218 12.738 12.863 21.613 10.537l95.612-25.055 31.5 1.72c8.548 0 15.477-6.929 15.477-15.477v-21.638c.001-5.787-4.692-10.48-10.481-10.48z" fill="#fed2a4"/></g><path d="m309.487 320.518c-.884.082-1.778.129-2.683.129h-101.609c-.905 0-1.799-.047-2.683-.129l1.581 17.468c.762 8.418.016 16.904-2.203 25.059l-4.824 21.819c.486-.206 1.021-.32 1.581-.32h114.705c.56 0 1.095.114 1.581.32l-4.824-21.819c-2.219-8.156-2.965-16.642-2.203-25.059z" fill="#fed2a4"/><path d="m238.403 337.986-1.569-17.339h-31.639c-.905 0-1.799-.047-2.683-.129l1.581 17.468c.762 8.418.016 16.904-2.203 25.059l-4.824 21.819c.486-.206 1.021-.32 1.581-.32h32.799l4.753-21.499c2.22-8.155 2.966-16.641 2.204-25.059z" fill="#ffbd86"/><g><path d="m256 421.803 62.428-16.728v-16.455c0-2.803-2.272-5.075-5.075-5.075h-114.706c-2.803 0-5.075 2.272-5.075 5.075v16.456z" fill="#e8b800"/></g><path d="m226.562 413.916v-25.296c0-2.803 2.272-5.075 5.075-5.075h-32.99c-2.803 0-5.075 2.272-5.075 5.075v16.456z" fill="#d7aa02"/><path d="m229.914 48.346c8.013-3.435 16.83-5.344 26.086-5.344s18.073 1.909 26.086 5.344c6.93-4.799 11.494-12.8 11.494-21.819.001-14.59-11.937-26.527-26.527-26.527h-22.106c-14.59 0-26.528 11.937-26.528 26.528 0 9.019 4.565 17.02 11.495 21.818z" fill="#fe860a"/><path d="m229.914 48.346c7.343-3.148 15.366-4.996 23.779-5.286-3.64-4.542-5.824-10.294-5.824-16.533 0-13.335 9.973-24.447 22.827-26.262-1.193-.167-2.406-.265-3.643-.265h-22.106c-14.59 0-26.527 11.937-26.527 26.528-.001 9.019 4.564 17.02 11.494 21.818z" fill="#fe7701"/><path d="m295.28 200.332h-11.12l-1.198 1-3.914 21.643c-.39 2.156-2.263 3.721-4.454 3.721h-37.189c-2.191 0-4.064-1.565-4.454-3.721l-3.914-21.643-1.198-1h-11.119c-22.82 0-41.32 18.5-41.32 41.32v50.2c0 16.455 13.34 29.795 29.795 29.795h101.609c16.455 0 29.795-13.34 29.795-29.795v-50.2c0-22.821-18.499-41.32-41.319-41.32z" fill="#54469c"/><path d="m209.507 291.852v-50.201c0-14.793 7.779-27.763 19.465-35.063l-1.132-6.257h-11.12c-22.82 0-41.32 18.5-41.32 41.32v50.201c0 16.455 13.34 29.795 29.795 29.795h34.106c-16.455 0-29.794-13.34-29.794-29.795z" fill="#463b84"/><path d="m272.792 189.676c-5.22 1.996-10.878 3.1-16.792 3.1s-11.571-1.104-16.792-3.1v7.656c0 1.657-1.343 3-3 3h-8.369l4.127 22.82c.476 2.63 2.765 4.543 5.438 4.543h37.19c2.673 0 4.963-1.913 5.438-4.543l4.127-22.82h-8.369c-1.657 0-3-1.343-3-3v-7.656z" fill="#f6a96c"/><g><path d="m198.082 120.443h10.747v-5.133c0-16.711 13.596-30.306 30.307-30.306h33.729c16.711 0 30.307 13.595 30.307 30.306v5.133h10.747c3.513 0 6.781 1.063 9.506 2.878v-13.895c0-37.237-30.187-67.424-67.424-67.424-37.237 0-67.424 30.187-67.424 67.424v13.895c2.725-1.815 5.992-2.878 9.505-2.878z" fill="#fe7701"/><path d="m198.082 120.443h10.747v-5.133c0-12.077 7.102-22.522 17.348-27.389 7.2-21.4 24.835-38.003 46.866-43.742-5.444-1.418-11.154-2.177-17.042-2.177-37.237 0-67.424 30.187-67.424 67.424v13.895c2.725-1.815 5.992-2.878 9.505-2.878z" fill="#f46700"/><g><path d="m208.829 145.605v-26.162h-10.748c-10.053 0-18.203 8.15-18.203 18.203 0 10.053 8.15 18.203 18.203 18.203h11.881c-.733-3.3-1.133-6.725-1.133-10.244z" fill="#f6a96c"/><path d="m313.918 119.443h-10.748v26.162c0 3.519-.399 6.944-1.134 10.245h11.881c10.053 0 18.203-8.15 18.203-18.203.002-10.054-8.148-18.204-18.202-18.204z" fill="#ffbd86"/></g><g><path d="m256 193.776c-26.604 0-48.171-21.567-48.171-48.171v-30.295c0-17.29 14.016-31.306 31.306-31.306h33.729c17.29 0 31.306 14.016 31.306 31.306v30.295c.001 26.604-21.566 48.171-48.17 48.171z" fill="#fed2a4"/></g><g><path d="m233.668 145.605v-30.295c0-17.29 14.016-31.306 31.306-31.306h-25.839c-17.29 0-31.306 14.016-31.306 31.306v30.295c0 26.604 21.567 48.171 48.171 48.171 4.477 0 8.806-.624 12.919-1.767-20.327-5.648-35.251-24.277-35.251-46.404z" fill="#ffbd86"/></g><g fill="#bb5d4c"><path d="m239.183 130.427v-8.842c0-4.142-3.357-7.5-7.5-7.5s-7.5 3.358-7.5 7.5v8.842c0 4.142 3.357 7.5 7.5 7.5s7.5-3.358 7.5-7.5z"/><path d="m280.316 114.085c-4.143 0-7.5 3.358-7.5 7.5v8.842c0 4.142 3.357 7.5 7.5 7.5s7.5-3.358 7.5-7.5v-8.842c0-4.142-3.357-7.5-7.5-7.5z"/><path d="m244.957 147.144 6.632 4.823c1.332.969 2.875 1.435 4.405 1.435 2.317 0 4.604-1.071 6.071-3.089 2.437-3.35 1.695-8.041-1.654-10.477l-.337-.245 1.823-2.32c2.559-3.257 1.993-7.972-1.264-10.531s-7.972-1.994-10.531 1.264l-6.632 8.441c-1.259 1.602-1.812 3.647-1.531 5.665s1.371 3.836 3.018 5.034z"/><path d="m265.546 158.759c-2.553 2.553-5.943 3.959-9.546 3.959s-6.993-1.406-9.546-3.959c-2.93-2.929-7.678-2.929-10.607 0s-2.929 7.678 0 10.606c5.387 5.386 12.544 8.353 20.153 8.353s14.767-2.966 20.153-8.353c2.929-2.929 2.929-7.678 0-10.606s-7.677-2.928-10.607 0z"/></g></g><g><g><path d="m220.07 467.61c-.093-.345-.362-.615-.707-.707l-43.577-11.677-2.868.267c-12.866 9.811-19.991 25.927-17.983 42.507h25.508l43.605-11.684.466-2.127z" fill="#fed2a4"/><path d="m180.427 498c-1.681-13.878 3.04-27.431 12.166-37.235l-19.679-5.273c-12.868 9.811-19.988 25.93-17.981 42.508z" fill="#ffbd86"/><g><path d="m438.538 400.351c-3.934-14.682-19.026-23.395-33.708-19.461l-150.762 40.396 43.042 11.533c2.13.571 3.399 2.769 2.828 4.899l-8.159 30.45 127.297-34.109c14.683-3.935 23.396-19.026 19.462-33.708z" fill="#e8b800"/><path d="m218.806 466.753 5.242 19.563 33.884-9.079z" fill="#d7aa02"/></g><path d="m322.947 447.571-22.965-6.153-1.338 1.127-11.4 42.546.707 1.225 43.606 11.684h25.508c2.737-22.605-11.487-44.365-34.118-50.429z" fill="#fed2a4"/><path d="m438.538 400.35c-3.934-14.682-19.026-23.395-33.708-19.461l-150.762 40.396 43.042 11.533c1.269.34 2.22 1.263 2.671 2.399l106.482-28.532c12.11-3.245 24.493 2.12 30.669 12.336 2.613-5.641 3.341-12.195 1.606-18.671z" fill="#d7aa02"/></g></g><g><path d="m356.932 485.848-64.242-17.214-4.738 17.682 43.605 11.684h25.505c.496-4.108.442-8.189-.13-12.152z" fill="#ffbd86"/><g><path d="m287.952 486.316-195.029-52.258c-14.682-3.934-23.395-19.026-19.461-33.708 3.934-14.682 19.026-23.395 33.708-19.461l190.199 50.964c2.667.715 4.25 3.456 3.536 6.124z" fill="#fac600"/></g><g><path d="m118.796 417.009c-14.682-3.934-23.395-19.026-19.461-33.708.31-1.156.696-2.27 1.139-3.349-12.324-.2-23.676 7.953-27.011 20.399-3.934 14.682 4.779 29.774 19.461 33.708l195.029 52.258 5.996-22.376z" fill="#e8b800"/></g></g><g><path d="m499.169 512h-486.338c-4.143 0-7.5-3.358-7.5-7.5s3.357-7.5 7.5-7.5h486.338c4.143 0 7.5 3.358 7.5 7.5s-3.357 7.5-7.5 7.5z" fill="#8bc727"/></g></g></g></svg>