<svg id="Capa_1" enable-background="new 0 0 512 512" height="512" viewBox="0 0 512 512" width="512" xmlns="http://www.w3.org/2000/svg"><g><path d="m328.368 349.144c0-2.248 1.828-4.076 4.076-4.076h105.908c4.393-14.777 6.763-30.424 6.763-46.628l-10.955-1h-153.42v153.634l1 10.742c16.204 0 31.851-2.37 46.628-6.763z" fill="#fd4755"/><g><g><path d="m281.74 298.44v163.376c11.657 0 23.026-1.23 33.992-3.551v-159.825z" fill="#fb2b3a"/></g></g><g fill="#c8effe"><path d="m432.75 147.431c-40.336-40.336-93.966-62.55-151.01-62.55-16.477 0-32.665 1.865-48.334 5.473v15.488c15.478-3.886 31.667-5.961 48.334-5.961 109.486 0 198.56 89.074 198.56 198.56 0 4.142 3.357 7.5 7.5 7.5s7.5-3.358 7.5-7.5c0-57.045-22.214-110.674-62.55-151.01z"/><path d="m281.74 497c-109.486 0-198.56-89.073-198.56-198.56 0-10.307.791-20.433 2.312-30.321h-15.177c-1.407 9.96-2.135 20.084-2.135 30.321 0 57.044 22.214 110.673 62.55 151.009 40.336 40.337 93.966 62.551 151.01 62.551 4.143 0 7.5-3.358 7.5-7.5s-3.357-7.5-7.5-7.5z"/></g><path d="m280.74 298.44h164.376c0-90.23-73.146-163.376-163.376-163.376l-1 6.604z" fill="#8bc727"/><g><path d="m281.74 135.064v163.376h33.992v-159.824c-10.966-2.321-22.335-3.552-33.992-3.552z" fill="#81b823"/></g><path d="m233.406 142.335v121.708c0 2.248-1.828 4.076-4.076 4.076h-108.146c-1.844 9.826-2.82 19.959-2.82 30.321 0 90.23 73.146 163.376 163.376 163.376v-326.752c-16.827 0-33.059 2.547-48.334 7.271z" fill="#fac600"/><g fill="#e8b800"><path d="m152.276 298.44c0-10.362.974-20.495 2.818-30.321h-33.91c-1.844 9.826-2.82 19.959-2.82 30.321 0 90.23 73.146 163.376 163.376 163.376v-3.534c-73.954-15.613-129.464-81.24-129.464-159.842z"/><path d="m233.406 142.335v14.922c14.79-8.634 31.058-15.011 48.334-18.659v-3.534c-16.827 0-33.059 2.547-48.334 7.271z"/></g><g><path d="m332.6 507.362c86.071-2.708 155.353-71.99 158.061-158.061.09-2.863-2.218-5.233-5.082-5.233h-153.135c-2.804 0-5.076 2.273-5.076 5.076v153.135c0 2.864 2.37 5.173 5.232 5.083z" fill="#01d0fb"/></g><g><path d="m359.308 502.279v-153.135c0-2.804 2.273-5.076 5.076-5.076h-31.94c-2.804 0-5.076 2.273-5.076 5.076v153.135c0 2.864 2.37 5.172 5.232 5.082 9.25-.291 18.305-1.356 27.105-3.123-.252-.603-.397-1.263-.397-1.959z" fill="#01c0fa"/></g><g><g><path d="m229.33 269.12h-207.553c-2.804 0-5.076-2.273-5.076-5.076v-258.968c-.001-2.803 2.272-5.076 5.076-5.076h207.553c2.804 0 5.076 2.273 5.076 5.076v258.967c.001 2.804-2.272 5.077-5.076 5.077z" fill="#dff6fd"/></g><g><path d="m50.672 264.044v-258.968c0-2.803 2.273-5.076 5.076-5.076h-33.971c-2.804 0-5.077 2.273-5.077 5.076v258.967c0 2.804 2.273 5.076 5.076 5.076h33.971c-2.802.001-5.075-2.272-5.075-5.075z" fill="#c8effe"/></g><g><g><g><path d="m169.627 57.911c-14.919-3.148-31.563 4.673-44.073 18.953-12.51-14.28-29.155-22.101-44.074-18.953-22.578 4.765-32.644 32.837-22.484 62.7s36.7 50.211 59.279 45.446c2.599-.548 5.023-1.419 7.279-2.552 2.256 1.133 4.68 2.004 7.279 2.552 22.578 4.765 49.118-15.583 59.279-45.446 10.159-29.863.093-57.935-22.485-62.7z" fill="#fd4755"/></g><g><g><path d="m93.296 120.612c-8.592-25.253-2.718-49.222 12.952-58.903-8.144-3.992-16.708-5.498-24.769-3.797-22.578 4.765-32.644 32.837-22.484 62.7 10.161 29.864 36.701 50.211 59.279 45.446 2.599-.548 5.023-1.419 7.279-2.552 2.256 1.133 4.68 2.004 7.279 2.552 3.229.681 6.54.833 9.871.533-19.963-1.799-40.699-20.386-49.407-45.979z" fill="#fb2b3a"/></g></g><g><path d="m125.541 84.355c-3.189 0-6.143-2.046-7.145-5.25-.102-.322-2.464-7.987-2.291-17.502.243-13.399 5.284-24.166 14.579-31.137 3.313-2.484 8.016-1.813 10.5 1.5 2.485 3.313 1.813 8.015-1.5 10.5-5.453 4.09-8.338 10.495-8.573 19.036-.197 7.152 1.589 13.087 1.607 13.147 1.208 3.952-1.005 8.148-4.953 9.369-.74.228-1.488.337-2.224.337z" fill="#bb5d4c"/></g></g><g fill="#62dbfb"><path d="m120.724 209.711h73.092c4.143 0 7.5-3.358 7.5-7.5s-3.357-7.5-7.5-7.5h-73.092c-4.143 0-7.5 3.358-7.5 7.5s3.358 7.5 7.5 7.5z"/><path d="m57.386 209.711h38.973c4.143 0 7.5-3.358 7.5-7.5s-3.357-7.5-7.5-7.5h-38.973c-4.143 0-7.5 3.358-7.5 7.5s3.357 7.5 7.5 7.5z"/><path d="m193.816 225.154h-136.43c-4.143 0-7.5 3.358-7.5 7.5s3.357 7.5 7.5 7.5h136.431c4.143 0 7.5-3.358 7.5-7.5s-3.358-7.5-7.501-7.5z"/></g></g></g><g><g fill="#fff"><path d="m170.471 321.539h69.037c4.143 0 7.5-3.358 7.5-7.5s-3.357-7.5-7.5-7.5h-69.037c-4.143 0-7.5 3.358-7.5 7.5s3.358 7.5 7.5 7.5z"/><path d="m239.509 333.95h-69.037c-4.143 0-7.5 3.358-7.5 7.5s3.357 7.5 7.5 7.5h69.037c4.143 0 7.5-3.358 7.5-7.5s-3.358-7.5-7.5-7.5z"/><path d="m239.509 361.362h-36.549c-4.143 0-7.5 3.358-7.5 7.5s3.357 7.5 7.5 7.5h36.549c4.143 0 7.5-3.358 7.5-7.5s-3.358-7.5-7.5-7.5z"/></g></g></g></svg>