<svg id="Capa_1" enable-background="new 0 0 512 512" height="512" viewBox="0 0 512 512" width="512" xmlns="http://www.w3.org/2000/svg"><path d="m504.353 165.292h-496.149l-8.204 1v312.56c0 6.147 4.983 11.131 11.13 11.131h23.776l1-1.495v-175.256c0-21.016 13.453-39.393 33.476-45.73l.316-.1.193-.269c5.304-7.357 13.872-11.75 22.918-11.75h33.086l.641.535 1.691 9.351h63.392l1.691-9.351.641-.535h33.086c9.047 0 17.614 4.393 22.918 11.75l.193.269.316.1c20.022 6.338 33.475 24.715 33.475 45.73v175.204l1 1.546h215.93c6.147 0 11.13-4.983 11.13-11.131v-312.56z" fill="#dff6fd"/><g><g><g fill="#dff6fd"><path d="m95.292 394.146c-9.38-2.746-17.606-8.589-23.163-16.453l-1.817-2.57v113.86l1 1h23.699l1-1v-94.626z"/><path d="m247.718 377.692c-5.558 7.864-13.784 13.707-23.164 16.453l-.719.211v94.626l1 1h23.699l1-1v-113.86z"/></g></g><path d="m222.172 430.733h-124.573l-2.588 1.001v58.248h129.824v-58.248z" fill="#fed2a4"/><path d="m34.906 313.233c0-9.104 2.487-17.624 6.816-24.924v-122.017h-41.722v312.56c0 6.147 4.983 11.131 11.13 11.131h23.776z" fill="#c8effe"/><g><path d="m500.87 108.553h-489.74c-6.147 0-11.13 4.983-11.13 11.13v46.608h512v-46.608c0-6.146-4.983-11.13-11.13-11.13z" fill="#fd4755"/></g><g><path d="m52.853 108.553h-41.723c-6.147 0-11.13 4.983-11.13 11.13v46.608h41.722v-46.608c0-6.146 4.984-11.13 11.131-11.13z" fill="#fb2b3a"/></g><g><g fill="#fed2a4"><path d="m137.693 287.096h44.459c3.198 0 5.932-2.284 6.501-5.431l3.146-17.395h-63.753l3.146 17.395c.57 3.147 3.304 5.431 6.501 5.431z"/><path d="m249.136 266.074c3.839 4.824 6.141 10.922 6.141 17.551v70.021c0 .619-.012 1.234-.037 1.846-.315 7.767-2.733 14.956-6.705 21.052v113.438h36.405v-176.749c-.001-22.481-15.157-41.409-35.804-47.159z"/><path d="m64.606 355.493c-.025-.612-.037-1.228-.037-1.847v-70.021c0-6.629 2.302-12.728 6.141-17.552-20.647 5.75-35.803 24.679-35.803 47.159v176.749h36.405v-113.437c-3.972-6.096-6.391-13.284-6.706-21.051z"/></g><g fill="#ffbd86"><path d="m249.141 266.08c3.836 4.823 6.135 10.919 6.135 17.545v70.021c0 .619-.012 1.234-.037 1.846-.315 7.767-2.733 14.956-6.705 21.052v113.438h17.419v-215.449c-4.938-3.831-10.628-6.73-16.812-8.453z"/><path d="m70.71 266.073c-20.647 5.75-35.804 24.679-35.804 47.159v176.749h17.419v-176.748c0-12.499 4.69-23.897 12.397-32.549.571-5.488 2.724-10.51 5.988-14.611z"/><path d="m95.011 431.734h34.277v58.248h-34.277z"/></g><path d="m212.425 395.894c-.002 0-.001 0-.004 0-5.398 0-10.716-1.014-15.805-3.011l-20.252-7.95c-5.259-2.064-10.791-3.111-16.441-3.111s-11.182 1.047-16.441 3.111l-20.251 7.95c-5.09 1.998-10.408 3.011-15.805 3.011-4.318 0-8.485-.621-12.415-1.778v37.618h129.824v-37.617c-3.928 1.156-8.094 1.777-12.41 1.777z" fill="#54469c"/><path d="m123.23 392.883c-5.09 1.998-10.408 3.011-15.805 3.011-4.318 0-8.485-.621-12.415-1.778v37.618h34.277v-41.229z" fill="#463b84"/><path d="m159.923 66.106c13.201 0 25.651 3.249 36.623 8.96 5.151-5.644 8.304-13.139 8.304-21.336 0-17.442-14.271-31.713-31.713-31.713h-26.427c-17.442 0-31.713 14.271-31.713 31.713 0 8.197 3.152 15.692 8.304 21.336 10.971-5.711 23.421-8.96 36.622-8.96z" fill="#e8b800"/><path d="m152.576 66.459c-1.724-3.9-2.684-8.207-2.684-12.728 0-16.006 12.021-29.333 27.479-31.42-1.387-.187-2.798-.293-4.234-.293h-26.427c-17.442 0-31.713 14.271-31.713 31.713 0 8.197 3.152 15.692 8.304 21.336 8.911-4.639 18.799-7.645 29.275-8.608z" fill="#d7aa02"/><path d="m227.036 254.384h-33.449l-1.197 1-4.72 26.104c-.483 2.67-2.804 4.608-5.518 4.608h-44.459c-2.714 0-5.034-1.938-5.518-4.608l-4.72-26.104-1.197-1h-33.448c-16.149 0-29.24 13.091-29.24 29.24v70.022c0 .632.013 1.261.038 1.886 1.21 29.848 32.181 49.196 59.988 38.28l20.252-7.95c10.333-4.057 21.818-4.057 32.152 0l20.252 7.95c27.807 10.916 58.778-8.432 59.988-38.28.025-.626.038-1.255.038-1.886v-70.022c-.002-16.148-13.093-29.24-29.242-29.24z" fill="#6354b1"/><g><g><path d="m98.42 355.533c-.025-.626-.038-1.255-.038-1.886v-70.022c0-16.149 13.091-29.24 29.24-29.24h-34.812c-16.149 0-29.24 13.091-29.24 29.24v70.022c0 .632.013 1.261.038 1.886 1.21 29.848 32.181 49.196 59.988 38.28l1.258-.494c-14.657-6.246-25.72-20.187-26.434-37.786z" fill="#54469c"/></g></g><path d="m179.997 241.856c-6.243 2.377-13.006 3.691-20.074 3.691-7.067 0-13.831-1.314-20.074-3.691v12.528h-13.591l4.934 27.281c.569 3.144 3.306 5.431 6.501 5.431h44.459c3.195 0 5.933-2.287 6.501-5.431l4.934-27.281h-13.591v-12.528z" fill="#ffbd86"/><path d="m159.923 245.547c-7.067 0-13.831-1.314-20.074-3.691v12.528h-13.591l4.934 27.281c.569 3.144 3.306 5.431 6.501 5.431h19.296l-3.277-18.121c-.572-3.16 1.857-6.068 5.069-6.068h2.274c2.845 0 5.151-2.306 5.151-5.151v-12.566c-2.065.229-4.159.357-6.283.357z" fill="#f6a96c"/><g><path d="m90.683 158.685h12.653v-8.538c0-1.702 1.02-3.213 2.598-3.849l71.354-28.773c1.75-.706 3.56-1.063 5.377-1.063.495 0 .993.027 1.48.082 18.45 2.046 32.364 17.608 32.364 36.201v5.94h12.653c4.194 0 8.096 1.26 11.364 3.407v-16.382c0-44.516-36.087-80.603-80.603-80.603-44.516 0-80.603 36.087-80.603 80.603v16.382c3.268-2.148 7.169-3.407 11.363-3.407z" fill="#fac600"/><path d="m90.683 158.685h12.653v-8.538c0-1.702 1.02-3.213 2.598-3.849l7.958-3.209c1.198-37.42 27.893-68.387 63.288-76.111-5.562-1.214-11.332-1.871-17.258-1.871-44.516 0-80.603 36.087-80.603 80.603v16.382c3.269-2.148 7.17-3.407 11.364-3.407z" fill="#e8b800"/><g><path d="m103.336 188.96v-31.275h-12.653c-12.018 0-21.761 9.743-21.761 21.761 0 12.018 9.743 21.761 21.761 21.761h14.003c-.874-3.946-1.35-8.041-1.35-12.247z" fill="#f6a96c"/><path d="m229.162 157.685h-12.653v31.275c0 4.206-.476 8.301-1.35 12.247h14.003c12.018 0 21.761-9.743 21.761-21.761 0-12.018-9.742-21.761-21.761-21.761z" fill="#ffbd86"/></g><g><path d="m176.914 116.597-71.353 28.773c-1.949.786-3.225 2.676-3.225 4.777v38.813c0 31.804 25.782 57.586 57.586 57.586 31.804 0 57.586-25.782 57.586-57.586v-36.217c0-19.259-14.547-35.121-33.253-37.195-2.492-.276-5.015.111-7.341 1.049z" fill="#fed2a4"/></g><g><g><path d="m132.378 188.96v-54.405l-26.817 10.814c-1.949.786-3.225 2.676-3.225 4.777v38.813c0 31.804 25.782 57.586 57.586 57.586 5.198 0 10.231-.7 15.021-1.992-24.517-6.607-42.565-28.987-42.565-55.593z" fill="#ffbd86"/></g></g><g><g><path d="m130.853 178.316c-4.142 0-7.5-3.357-7.5-7.5v-10.571c0-4.143 3.358-7.5 7.5-7.5s7.5 3.357 7.5 7.5v10.571c0 4.143-3.358 7.5-7.5 7.5z" fill="#bb5d4c"/></g><g><path d="m188.993 178.316c-4.142 0-7.5-3.357-7.5-7.5v-10.571c0-4.143 3.358-7.5 7.5-7.5s7.5 3.357 7.5 7.5v10.571c0 4.143-3.358 7.5-7.5 7.5z" fill="#bb5d4c"/></g></g><g><path d="m159.917 196.816c-1.53 0-3.073-.467-4.405-1.436l-7.928-5.767c-1.647-1.198-2.737-3.016-3.017-5.034s.272-4.063 1.531-5.665l7.928-10.09c2.56-3.258 7.275-3.82 10.531-1.264 3.257 2.56 3.823 7.274 1.264 10.531l-3.119 3.97 1.633 1.188c3.35 2.437 4.09 7.127 1.654 10.477-1.468 2.019-3.755 3.089-6.072 3.09z" fill="#bb5d4c"/></g><g><path d="m159.923 225.863c-8.35 0-16.7-3.178-23.056-9.534-2.929-2.93-2.929-7.678 0-10.607 2.929-2.928 7.678-2.928 10.606 0 6.866 6.866 18.035 6.865 24.899 0 2.929-2.928 7.678-2.928 10.606 0 2.929 2.93 2.929 7.678 0 10.607-6.356 6.357-14.706 9.534-23.055 9.534z" fill="#bb5d4c"/></g></g></g><g><g><path d="m456.091 251.374h-166.268c-14.833 0-26.97-12.136-26.97-26.97 0-14.833 12.136-26.97 26.97-26.97h166.268c14.833 0 26.97 12.136 26.97 26.97 0 14.833-12.137 26.97-26.97 26.97z" fill="#8bc727"/></g><g><path d="m306.479 224.404c0-14.833 12.136-26.97 26.97-26.97h-43.625c-14.833 0-26.97 12.136-26.97 26.97s12.136 26.97 26.97 26.97h43.625c-14.834 0-26.97-12.137-26.97-26.97z" fill="#81b823"/></g><g><path d="m408.467 231.903h-116.85c-4.142 0-7.5-3.357-7.5-7.5s3.358-7.5 7.5-7.5h116.85c4.142 0 7.5 3.357 7.5 7.5s-3.358 7.5-7.5 7.5z" fill="#bbec6c"/></g></g><g><g><path d="m469.705 291.751h-85.962c-4.142 0-7.5-3.357-7.5-7.5s3.358-7.5 7.5-7.5h85.962c4.142 0 7.5 3.357 7.5 7.5s-3.358 7.5-7.5 7.5z" fill="#62dbfb"/></g><g><path d="m356.958 291.751h-41.208c-4.142 0-7.5-3.357-7.5-7.5s3.358-7.5 7.5-7.5h41.207c4.142 0 7.5 3.357 7.5 7.5s-3.357 7.5-7.499 7.5z" fill="#62dbfb"/></g><g><path d="m469.705 322.916h-153.955c-4.142 0-7.5-3.357-7.5-7.5s3.358-7.5 7.5-7.5h153.954c4.142 0 7.5 3.357 7.5 7.5s-3.357 7.5-7.499 7.5z" fill="#62dbfb"/></g><g><path d="m469.705 354.082h-153.955c-4.142 0-7.5-3.357-7.5-7.5s3.358-7.5 7.5-7.5h153.954c4.142 0 7.5 3.357 7.5 7.5s-3.357 7.5-7.499 7.5z" fill="#62dbfb"/></g></g><g><g><path d="m361.584 392.827h-45.834c-4.142 0-7.5-3.357-7.5-7.5s3.358-7.5 7.5-7.5h45.833c4.142 0 7.5 3.357 7.5 7.5s-3.357 7.5-7.499 7.5z" fill="#62dbfb"/></g><g><path d="m361.584 423.992h-45.834c-4.142 0-7.5-3.357-7.5-7.5s3.358-7.5 7.5-7.5h45.833c4.142 0 7.5 3.357 7.5 7.5s-3.357 7.5-7.499 7.5z" fill="#62dbfb"/></g><g><path d="m361.584 455.158h-45.834c-4.142 0-7.5-3.357-7.5-7.5s3.358-7.5 7.5-7.5h45.833c4.142 0 7.5 3.357 7.5 7.5s-3.357 7.5-7.499 7.5z" fill="#62dbfb"/></g></g><g><path d="m434.895 388.863-3.558 3.558-3.557-3.558c-7.963-7.963-20.874-7.963-28.837 0-7.963 7.963-7.963 20.874 0 28.837l32.395 32.395 32.395-32.395c7.963-7.963 7.963-20.874 0-28.837-7.964-7.963-20.875-7.963-28.838 0z" fill="#fd4755"/></g><g><path d="m424.741 409.28c-6.687-6.687-7.736-16.853-3.192-24.658-7.469-3.274-16.492-1.873-22.606 4.241-7.963 7.963-7.963 20.874 0 28.837l32.395 32.395 17.109-17.109z" fill="#fb2b3a"/></g><g><path d="m486.4 143.88h-22.261c-4.142 0-7.5-3.357-7.5-7.5s3.358-7.5 7.5-7.5h22.261c4.142 0 7.5 3.357 7.5 7.5s-3.358 7.5-7.5 7.5z" fill="#fff"/></g></g><g fill="#bbec6c"><circle cx="428.55" cy="224.399" r="7.5"/><circle cx="448.64" cy="224.399" r="7.5"/></g></svg>