<svg id="Capa_1" enable-background="new 0 0 512 512" height="512" viewBox="0 0 512 512" width="512" xmlns="http://www.w3.org/2000/svg"><g><g><path d="m216.121 98.171h123.389c1.491 0 2.956.108 4.395.3l-22.436-90.644c-1.138-4.597-5.264-7.827-10-7.827h-67.308c-4.736 0-8.862 3.229-10 7.827l-22.435 90.644c1.439-.192 2.903-.3 4.395-.3z" fill="#54469c"/><path d="m216.121 98.171h25.68l22.361-90.344c1.138-4.597 5.264-7.827 10-7.827h-30c-4.736 0-8.862 3.229-10 7.827l-22.435 90.644c1.438-.192 2.902-.3 4.394-.3z" fill="#463b84"/><path d="m339.51 413.829h-123.389c-1.491 0-2.956-.109-4.395-.3l22.435 90.644c1.138 4.597 5.264 7.827 10 7.827h67.308c4.736 0 8.862-3.229 10-7.827l22.435-90.644c-1.438.192-2.903.3-4.394.3z" fill="#54469c"/><path d="m268.884 504.173-22.361-90.344h-30.403c-1.491 0-2.956-.109-4.395-.3l22.435 90.644c1.138 4.597 5.264 7.827 10 7.827h34.723c-4.735 0-8.861-3.229-9.999-7.827z" fill="#463b84"/></g><path d="m378.313 204.383h-5.801v103.234h5.801c11.379 0 20.604-9.225 20.604-20.604v-62.027c0-11.379-9.225-20.603-20.604-20.603z" fill="#54469c"/><g><path d="m339.51 413.829h-123.389c-18.227 0-33.003-14.776-33.003-33.003v-249.652c0-18.227 14.776-33.003 33.003-33.003h123.389c18.227 0 33.003 14.776 33.003 33.003v249.653c0 18.226-14.776 33.002-33.003 33.002z" fill="#c8effe"/></g><g><path d="m226.495 380.826v-249.652c0-18.227 14.776-33.003 33.003-33.003h-43.378c-18.227 0-33.003 14.776-33.003 33.003v249.653c0 18.227 14.776 33.003 33.003 33.003h43.378c-18.227-.001-33.003-14.777-33.003-33.004z" fill="#99e6fc"/></g><g><path d="m339.51 421.329h-123.389c-22.333 0-40.503-18.17-40.503-40.503v-249.652c0-22.333 18.17-40.503 40.503-40.503h123.389c22.333 0 40.503 18.17 40.503 40.503v249.652c0 22.333-18.17 40.503-40.503 40.503zm-123.389-315.658c-14.062 0-25.503 11.44-25.503 25.503v249.652c0 14.062 11.441 25.503 25.503 25.503h123.389c14.062 0 25.503-11.44 25.503-25.503v-249.652c0-14.062-11.44-25.503-25.503-25.503z" fill="#978ecb"/></g><g><g><path d="m283.994 208.455-6.179 6.179-6.179-6.179c-13.831-13.831-36.256-13.831-50.087 0-13.831 13.831-13.831 36.256 0 50.087l54.746 54.746c.839.839 2.2.839 3.039 0l54.746-54.746c13.831-13.831 13.831-36.256 0-50.087-13.83-13.831-36.255-13.831-50.086 0z" fill="#fd4755"/></g><g><path d="m246.623 254.46c-13.831-13.831-13.831-36.256 0-50.087 2.199-2.199 4.617-4.045 7.181-5.545-11.288-2.337-23.495.867-32.255 9.627-13.831 13.831-13.831 36.256 0 50.087l54.746 54.746c.839.839 2.2.839 3.039 0l13.059-13.059z" fill="#fb2b3a"/></g><g><path d="m282.22 272.771c-.218 0-.436-.01-.655-.028-2.904-.254-5.397-2.167-6.394-4.906l-4.516-12.404-4.516 12.404c-.997 2.739-3.49 4.652-6.394 4.906-2.905.25-5.691-1.197-7.148-3.722l-4.913-8.51-1.644 2.984c-1.319 2.396-3.836 3.883-6.57 3.883h-29.438c-4.142 0-7.5-3.357-7.5-7.5s3.358-7.5 7.5-7.5h25.006l5.921-10.752c1.306-2.371 3.787-3.855 6.494-3.883h.077c2.677 0 5.154 1.428 6.495 3.75l3.521 6.1 6.062-16.652c1.078-2.963 3.895-4.935 7.047-4.935s5.969 1.972 7.047 4.935l6.062 16.652 3.521-6.1c1.34-2.32 3.815-3.75 6.495-3.75h16.501c4.142 0 7.5 3.357 7.5 7.5s-3.358 7.5-7.5 7.5h-12.171l-9.398 16.277c-1.346 2.334-3.831 3.751-6.492 3.751z" fill="#54469c"/></g></g><g><path d="m299.653 372.139h-43.676c-7.675 0-13.897-6.222-13.897-13.897 0-7.675 6.222-13.897 13.897-13.897h43.676c7.675 0 13.897 6.222 13.897 13.897 0 7.675-6.222 13.897-13.897 13.897z" fill="#01d0fb"/></g><g><path d="m268.345 358.242c0-7.675 6.222-13.897 13.897-13.897h-26.265c-7.675 0-13.897 6.222-13.897 13.897s6.222 13.897 13.897 13.897h26.265c-7.675 0-13.897-6.222-13.897-13.897z" fill="#01c0fa"/></g><g><g><path d="m445.235 108.973c-4.142 0-7.5-3.357-7.5-7.5 0-34.207-27.83-62.037-62.037-62.037-4.142 0-7.5-3.357-7.5-7.5s3.358-7.5 7.5-7.5c42.479 0 77.037 34.559 77.037 77.037 0 4.142-3.358 7.5-7.5 7.5z" fill="#c8effe"/></g><g><path d="m419.481 108.973c-4.142 0-7.5-3.357-7.5-7.5 0-20.006-16.276-36.282-36.283-36.282-4.142 0-7.5-3.357-7.5-7.5s3.358-7.5 7.5-7.5c28.277 0 51.283 23.005 51.283 51.282 0 4.142-3.358 7.5-7.5 7.5z" fill="#99e6fc"/></g><g><path d="m393.726 108.973c-4.142 0-7.5-3.357-7.5-7.5 0-5.806-4.723-10.528-10.528-10.528-4.142 0-7.5-3.357-7.5-7.5s3.358-7.5 7.5-7.5c14.076 0 25.528 11.452 25.528 25.528 0 4.142-3.358 7.5-7.5 7.5z" fill="#62dbfb"/></g></g><g><path d="m280.921 74.977h-7.211c-4.142 0-7.5-3.357-7.5-7.5s3.358-7.5 7.5-7.5h7.211c4.142 0 7.5 3.357 7.5 7.5s-3.358 7.5-7.5 7.5z" fill="#463b84"/></g><g><path d="m280.921 40.98h-7.211c-4.142 0-7.5-3.357-7.5-7.5s3.358-7.5 7.5-7.5h7.211c4.142 0 7.5 3.357 7.5 7.5s-3.358 7.5-7.5 7.5z" fill="#463b84"/></g><g><g><path d="m274.664 159.795h-40.616c-4.142 0-7.5-3.357-7.5-7.5s3.358-7.5 7.5-7.5h40.616c4.142 0 7.5 3.357 7.5 7.5s-3.358 7.5-7.5 7.5z" fill="#fff"/></g><g><circle cx="297.843" cy="152.295" fill="#fff" r="7.5"/></g><g><circle cx="321.537" cy="152.295" fill="#fff" r="7.5"/></g></g><g><g><circle cx="132.234" cy="342.362" fill="#bbec6c" r="72.969"/></g><g><path d="m102.874 342.362c0-32.704 21.516-60.381 51.165-69.653-6.886-2.153-14.209-3.316-21.805-3.316-40.3 0-72.969 32.669-72.969 72.969s32.669 72.969 72.969 72.969c7.595 0 14.919-1.163 21.805-3.316-29.649-9.272-51.165-36.949-51.165-69.653z" fill="#a2e62e"/></g><g><g><path d="m98.554 371.949c-4.142 0-7.5-3.357-7.5-7.5v-36.675h-4.209c-4.142 0-7.5-3.357-7.5-7.5s3.358-7.5 7.5-7.5h11.709c4.142 0 7.5 3.357 7.5 7.5v44.175c0 4.143-3.358 7.5-7.5 7.5z" fill="#463b84"/></g><g><path d="m129.091 371.949c-4.142 0-7.5-3.357-7.5-7.5v-36.675h-4.209c-4.142 0-7.5-3.357-7.5-7.5s3.358-7.5 7.5-7.5h11.709c4.142 0 7.5 3.357 7.5 7.5v44.175c0 4.143-3.358 7.5-7.5 7.5z" fill="#463b84"/></g><g><path d="m163.79 371.949c-11.763 0-21.333-9.57-21.333-21.334v-16.508c0-11.763 9.57-21.333 21.333-21.333s21.333 9.57 21.333 21.333v16.508c0 11.764-9.57 21.334-21.333 21.334zm0-44.175c-3.492 0-6.333 2.841-6.333 6.333v16.508c0 3.492 2.841 6.334 6.333 6.334s6.333-2.842 6.333-6.334v-16.508c0-3.492-2.841-6.333-6.333-6.333z" fill="#463b84"/></g></g></g></g></svg>