<svg id="Capa_1" enable-background="new 0 0 512 512" height="512" viewBox="0 0 512 512" width="512" xmlns="http://www.w3.org/2000/svg"><g><path d="m420.069 128.393h-67.106c-1.903 8.593-4.93 16.76-8.9 24.357 6.803 3.704 11.431 10.919 11.431 19.195 0 12.043-9.797 21.84-21.84 21.84-6.917 0-13.088-3.235-17.092-8.268-16.764 12.921-37.758 20.623-60.562 20.623-47.444 0-87.111-33.268-96.963-77.747h-67.106l-5.226 1v371.321c0 6.233 5.053 11.286 11.286 11.286h316.018c6.233 0 11.286-5.053 11.286-11.286v-371.321z" fill="#fff3de"/><path d="m352.152 438.629-1-1.703h-94.315c-2.803 0-5.075 2.272-5.075 5.075v19.194c0 2.803 2.272 5.076 5.075 5.076h94.315l1-1.612z" fill="#99e6fc"/><g><g><path d="m129.563 500.714v-371.321h-42.858v371.321c0 6.233 5.053 11.286 11.286 11.286h42.859c-6.234 0-11.287-5.053-11.287-11.286z" fill="#ffe5c2"/></g><g fill="#8bc727"><path d="m414.009 74.089h-64.216c3.576 10.249 5.527 21.261 5.527 32.73 0 7.765-.893 15.321-2.578 22.573h72.553v-44.016c0-6.233-5.053-11.287-11.286-11.287z"/><path d="m156.68 106.82c0-11.469 1.95-22.481 5.527-32.73h-64.216c-6.233 0-11.286 5.053-11.286 11.286v44.017h72.553c-1.685-7.252-2.578-14.808-2.578-22.573z"/></g><g><path d="m86.705 85.376v44.017h42.859v-44.017c0-6.233 5.053-11.286 11.286-11.286h-42.859c-6.233-.001-11.286 5.053-11.286 11.286z" fill="#81b823"/></g><path d="m311.814 171.944c0-12.042 9.797-21.839 21.84-21.839 3.771 0 7.321.961 10.42 2.65 7.18-13.738 11.245-29.361 11.245-45.936 0-54.853-44.467-99.32-99.32-99.32s-99.32 44.467-99.32 99.32 44.467 99.32 99.32 99.32c22.803 0 43.807-7.69 60.572-20.611-2.973-3.731-4.757-8.452-4.757-13.584z" fill="#dff6fd"/><g><path d="m191.034 106.82c0-48.994 35.477-89.699 82.143-97.836-5.58-.973-11.319-1.484-17.177-1.484-54.853 0-99.32 44.467-99.32 99.32s44.467 99.32 99.32 99.32c5.858 0 11.597-.511 17.177-1.484-46.666-8.137-82.143-48.842-82.143-97.836z" fill="#c8effe"/></g><path d="m319.751 155.115c-.35-13.018-11.005-23.465-24.108-23.465h-11.7c-7.732 5.996-17.424 9.578-27.943 9.578s-20.211-3.582-27.943-9.578h-11.7c-13.324 0-24.125 10.801-24.125 24.125v27.186c17.253 14.465 39.491 23.18 63.768 23.18 22.803 0 43.806-7.691 60.571-20.612-2.973-3.732-4.756-8.452-4.756-13.583-.001-6.766 3.091-12.822 7.936-16.831z" fill="#01d0fb"/><path d="m312.927 178.811c-15.659 12.409-35.442 19.829-56.927 19.829-50.629 0-91.82-41.19-91.82-91.819 0-50.631 41.191-91.821 91.82-91.821 50.63 0 91.82 41.19 91.82 91.82 0 15.736-3.982 30.56-10.987 43.519 5.218.764 9.84 3.381 13.18 7.158 8.166-15.088 12.807-32.35 12.807-50.677 0-58.901-47.919-106.82-106.82-106.82s-106.82 47.919-106.82 106.82c0 58.9 47.919 106.819 106.82 106.819 25.003 0 48.024-8.638 66.244-23.082-4.344-2.672-7.682-6.823-9.317-11.746z" fill="#99e6fc"/><g><circle cx="256" cy="95.534" fill="#99e6fc" r="46.694"/></g><g><path d="m242.804 95.534c0-19.883 12.434-36.853 29.945-43.587-5.201-2-10.844-3.107-16.749-3.107-25.788 0-46.694 20.906-46.694 46.694 0 25.789 20.906 46.694 46.694 46.694 5.905 0 11.548-1.107 16.749-3.107-17.512-6.734-29.945-23.704-29.945-43.587z" fill="#62dbfb"/></g><g><g><path d="m242.457 103.033c-4.142 0-7.5-3.357-7.5-7.5v-4.515c0-4.143 3.358-7.5 7.5-7.5s7.5 3.357 7.5 7.5v4.515c0 4.143-3.358 7.5-7.5 7.5z" fill="#01d0fb"/></g><g><path d="m269.544 103.033c-4.143 0-7.5-3.357-7.5-7.5v-4.515c0-4.143 3.357-7.5 7.5-7.5s7.5 3.357 7.5 7.5v4.515c0 4.143-3.357 7.5-7.5 7.5z" fill="#01d0fb"/></g></g><g><g><g><path d="m388.051 254.118h-51.918c-4.143 0-7.5-3.357-7.5-7.5s3.357-7.5 7.5-7.5h51.918c4.143 0 7.5 3.357 7.5 7.5s-3.358 7.5-7.5 7.5z" fill="#ffbd86"/></g><g><g><path d="m313.86 254.118h-107.6c-4.142 0-7.5-3.357-7.5-7.5s3.358-7.5 7.5-7.5h107.6c4.143 0 7.5 3.357 7.5 7.5s-3.357 7.5-7.5 7.5z" fill="#ffbd86"/></g><g><path d="m313.86 282.409h-107.6c-4.142 0-7.5-3.357-7.5-7.5s3.358-7.5 7.5-7.5h107.6c4.143 0 7.5 3.357 7.5 7.5s-3.357 7.5-7.5 7.5z" fill="#ffbd86"/></g><g><path d="m388.051 282.409h-51.918c-4.143 0-7.5-3.357-7.5-7.5s3.357-7.5 7.5-7.5h51.918c4.143 0 7.5 3.357 7.5 7.5s-3.358 7.5-7.5 7.5z" fill="#ffbd86"/></g></g></g><g><path d="m155.611 239.898-2.687 2.687-2.687-2.687c-6.014-6.014-15.764-6.014-21.777 0-6.014 6.014-6.014 15.764 0 21.777l24.464 24.464 24.464-24.464c6.014-6.014 6.014-15.764 0-21.777-6.014-6.014-15.764-6.014-21.777 0z" fill="#fd4755"/></g><g><path d="m145.716 252.542c-4.554-4.554-5.652-11.249-3.308-16.844-4.887-.986-10.159.41-13.948 4.199-6.014 6.014-6.014 15.764 0 21.777l24.464 24.464 13.195-13.195z" fill="#fb2b3a"/></g></g><g><g><path d="m382.975 436.926h-31.822v29.344h31.822c2.803 0 5.075-2.272 5.075-5.075v-19.194c0-2.802-2.272-5.075-5.075-5.075z" fill="#8bc727"/></g><g><path d="m149.731 440.847h49.02v15h-49.02z" fill="#978ecb"/><g><g><g><path d="m145.655 471.904h-16.63c-2.803 0-5.075-2.272-5.075-5.075v-36.964c0-2.803 2.272-5.075 5.075-5.075h16.63c2.803 0 5.075 2.272 5.075 5.075v36.964c.001 2.803-2.272 5.075-5.075 5.075z" fill="#54469c"/></g></g><path d="m136 466.828v-36.964c0-2.803 2.272-5.075 5.075-5.075h-12.05c-2.803 0-5.076 2.272-5.076 5.075v36.964c0 2.803 2.272 5.076 5.076 5.076h12.05c-2.803 0-5.075-2.272-5.075-5.076z" fill="#463b84"/><g><g><path d="m219.457 471.904h-16.63c-2.803 0-5.075-2.272-5.075-5.075v-36.964c0-2.803 2.272-5.075 5.075-5.075h16.63c2.803 0 5.075 2.272 5.075 5.075v36.964c0 2.803-2.272 5.075-5.075 5.075z" fill="#54469c"/></g></g><path d="m209.801 466.828v-36.964c0-2.803 2.272-5.075 5.075-5.075h-12.05c-2.803 0-5.076 2.272-5.076 5.075v36.964c0 2.803 2.272 5.076 5.076 5.076h12.05c-2.802 0-5.075-2.272-5.075-5.076z" fill="#463b84"/></g></g></g><g><g><circle cx="333.654" cy="171.945" fill="#fd4755" r="22.84"/></g></g><g><path d="m327.056 171.945c0-9.753 6.115-18.073 14.719-21.348-2.524-.961-5.26-1.491-8.121-1.491-12.614 0-22.84 10.226-22.84 22.84s10.226 22.84 22.84 22.84c2.861 0 5.597-.531 8.121-1.491-8.603-3.277-14.719-11.597-14.719-21.35z" fill="#fb2b3a"/></g><g><g fill="#ffbd86"><path d="m258.722 321.221-43.491 43.492c5.201 1.44 9.154 5.889 9.861 11.352l42.725-42.725c-5.091-1.782-8.799-6.5-9.095-12.119z"/><path d="m210.527 364.263-21.852-27.481c-1.547 5.137-6.051 9-11.526 9.605l21.562 27.117c1.7-5.066 6.296-8.804 11.816-9.241z"/><path d="m162.347 335.735-22.617 28.532c5.51.472 10.088 4.237 11.756 9.316l21.677-27.347c-5.386-.997-9.666-5.17-10.816-10.501z"/><path d="m328.504 364.981-42.725-42.726c-.707 5.464-4.66 9.913-9.861 11.353l43.491 43.492c.296-5.619 4.004-10.337 9.095-12.119z"/><path d="m360.603 341.838-23.142 23.143c5.091 1.782 8.8 6.5 9.095 12.119l26.167-26.166c-5.62-.296-10.338-4.005-12.12-9.096z"/></g><g><circle cx="272.296" cy="320.502" fill="#01d0fb" r="14.61"/></g><g><circle cx="175.646" cy="332.864" fill="#01d0fb" r="14.61"/></g><g><circle cx="332.982" cy="377.818" fill="#fd4755" r="14.61"/></g><g><circle cx="373.44" cy="337.36" fill="#01d0fb" r="14.61"/></g><g><circle cx="211.609" cy="377.818" fill="#fd4755" r="14.61"/></g><g><circle cx="138.56" cy="377.818" fill="#fd4755" r="14.61"/></g></g></g></g></svg>