<svg id="Capa_1" enable-background="new 0 0 512 512" height="512" viewBox="0 0 512 512" width="512" xmlns="http://www.w3.org/2000/svg"><g><g><path d="m353.094 80.614c-.265 0-.528.009-.793.01v108.028h26.643c2.454 0 4.581 1.664 5.171 4.047l13.946 56.349.675.09c9.521 1.272 16.699 9.475 16.699 19.078v101.773c52.476-23.805 89.064-76.694 89.064-137.969.001-83.486-67.919-151.406-151.405-151.406z" fill="#dff6fd"/><g fill="#99e6fc"><path d="m353.094 73.114c-.265 0-.528.009-.793.01v15c.265-.001.528-.01.793-.01 79.35 0 143.906 64.556 143.906 143.906 0 57.03-33.346 106.418-81.564 129.69v16.469c56.721-24.286 96.564-80.655 96.564-146.159 0-87.622-71.285-158.906-158.906-158.906z"/><path d="m455.84 159.798c-14.629-20.755-34.858-36.441-58.502-45.365-3.872-1.461-8.203.492-9.665 4.368-1.463 3.875.493 8.202 4.368 9.665 42.876 16.183 71.683 57.798 71.683 103.554 0 37.895-19.155 71.396-48.288 91.342v17.698c37.783-21.686 63.288-62.44 63.288-109.041 0-26.009-7.913-50.984-22.884-72.221z"/><path d="m353.094 139.666c-.265 0-.528.008-.793.01v15.01c.265-.003.527-.02.793-.02 42.653 0 77.354 34.7 77.354 77.354 0 4.143 3.357 7.5 7.5 7.5s7.5-3.357 7.5-7.5c0-50.924-41.429-92.354-92.354-92.354z"/></g></g><path d="m318.487 440.714-.675-.09c-9.521-1.271-16.699-9.473-16.699-19.077v-153.331c0-9.604 7.179-17.806 16.699-19.078l.675-.09 13.946-56.349c.59-2.383 2.717-4.047 5.172-4.047h14.696v-134.171c0-20.485-16.606-37.092-37.092-37.092h-185.458c-20.485 0-37.092 16.607-37.092 37.092v389.462c0 20.485 16.606 37.092 37.092 37.092h185.458c4.463 0 8.741-.789 12.705-2.234z" fill="#c2bce0"/><g><path d="m134.996 443.944v-389.463c0-20.485 16.606-37.092 37.092-37.092h-42.337c-20.485 0-37.092 16.607-37.092 37.092v389.462c0 20.485 16.606 37.092 37.092 37.092h42.337c-20.485 0-37.092-16.606-37.092-37.091z" fill="#aca6d6"/></g><path d="m326.095 471.452c-3.372 1.339-7.042 2.083-10.886 2.083h-185.458c-16.317 0-29.592-13.274-29.592-29.592v-389.461c0-16.317 13.274-29.592 29.592-29.592h185.458c16.317 0 29.592 13.274 29.592 29.592v134.171h15v-134.171c0-24.588-20.004-44.592-44.592-44.592h-185.458c-24.588 0-44.592 20.004-44.592 44.592v389.462c0 24.588 20.004 44.592 44.592 44.592h185.458c5.08 0 9.958-.865 14.511-2.437z" fill="#978ecb"/><g><g><circle cx="316.98" cy="49.25" fill="#fff" r="7.5"/></g><g><circle cx="127.98" cy="49.25" fill="#fff" r="7.5"/></g><g><circle cx="150.98" cy="49.25" fill="#fff" r="7.5"/></g></g><g><g><circle cx="222.48" cy="164.312" fill="#fff" r="87.575"/></g><g><path d="m168.846 164.312c0-42.56 30.361-78.023 70.605-85.926-5.491-1.078-11.164-1.649-16.97-1.649-48.366 0-87.575 39.209-87.575 87.575s39.209 87.575 87.575 87.575c5.807 0 11.48-.571 16.97-1.649-40.244-7.904-70.605-43.367-70.605-85.926z" fill="#f2fbff"/></g><g fill="#62dbfb"><path d="m182.058 130.303h-14.052c-4.143 0-7.5 3.357-7.5 7.5s3.357 7.5 7.5 7.5h6.552v45.518c0 4.143 3.357 7.5 7.5 7.5s7.5-3.357 7.5-7.5v-53.018c0-4.143-3.358-7.5-7.5-7.5z"/><path d="m218.708 130.303h-14.053c-4.143 0-7.5 3.357-7.5 7.5s3.357 7.5 7.5 7.5h6.553v45.518c0 4.143 3.357 7.5 7.5 7.5s7.5-3.357 7.5-7.5v-53.018c0-4.143-3.357-7.5-7.5-7.5z"/><path d="m284.454 147.803c0-9.649-7.851-17.5-17.5-17.5h-13.205c-9.649 0-17.5 7.851-17.5 17.5v6.509c0 3.718 1.174 7.162 3.159 10-1.985 2.838-3.159 6.282-3.159 10v6.509c0 9.649 7.851 17.5 17.5 17.5h13.205c9.649 0 17.5-7.851 17.5-17.5v-6.509c0-3.718-1.174-7.162-3.159-10 1.985-2.838 3.159-6.282 3.159-10zm-15 33.017c0 1.379-1.121 2.5-2.5 2.5h-13.205c-1.379 0-2.5-1.121-2.5-2.5v-6.509c0-1.379 1.121-2.5 2.5-2.5h13.205c1.379 0 2.5 1.121 2.5 2.5zm0-26.508c0 1.379-1.121 2.5-2.5 2.5h-13.205c-1.379 0-2.5-1.121-2.5-2.5v-6.509c0-1.379 1.121-2.5 2.5-2.5h13.205c1.379 0 2.5 1.121 2.5 2.5z"/></g></g><g><path d="m248.69 447.653h-52.419c-9.211 0-16.679-7.467-16.679-16.679 0-9.211 7.467-16.679 16.679-16.679h52.419c9.211 0 16.679 7.467 16.679 16.679-.001 9.212-7.468 16.679-16.679 16.679z" fill="#54469c"/></g><g><path d="m213.22 430.974c0-9.211 7.467-16.679 16.679-16.679h-33.628c-9.211 0-16.679 7.467-16.679 16.679s7.467 16.679 16.679 16.679h33.628c-9.211 0-16.679-7.467-16.679-16.679z" fill="#463b84"/></g><g><path d="m266.996 287.25h-89.032c-4.143 0-7.5-3.357-7.5-7.5s3.357-7.5 7.5-7.5h89.032c4.143 0 7.5 3.357 7.5 7.5s-3.357 7.5-7.5 7.5z" fill="#fff"/></g><g><g><g><path d="m29.391 299.972c-1.919 0-3.839-.732-5.304-2.196-32.116-32.117-32.116-84.374 0-116.491 2.93-2.928 7.678-2.928 10.607 0 2.929 2.93 2.929 7.678 0 10.607-26.269 26.268-26.269 69.009 0 95.276 2.929 2.93 2.929 7.678 0 10.607-1.464 1.464-3.384 2.197-5.303 2.197z" fill="#62dbfb"/></g><g><path d="m58.598 280.363c-1.919 0-3.839-.732-5.304-2.196-21.304-21.305-21.304-55.97 0-77.274 2.93-2.928 7.678-2.928 10.607 0 2.929 2.93 2.929 7.678 0 10.607-15.456 15.455-15.456 40.604 0 56.06 2.929 2.93 2.929 7.678 0 10.607-1.464 1.464-3.384 2.196-5.303 2.196z" fill="#62dbfb"/></g></g></g><g><path d="m301.113 318.75h-154.748c-14.782 0-26.877 12.094-26.877 26.877 0 14.782 12.094 26.877 26.877 26.877h154.748z" fill="#bbec6c"/><g><path d="m170.342 345.627c0-14.782 12.094-26.877 26.877-26.877h-50.853c-14.782 0-26.877 12.094-26.877 26.877 0 14.782 12.094 26.877 26.877 26.877h50.853c-14.782 0-26.877-12.095-26.877-26.877z" fill="#a2e62e"/></g><g><path d="m254.637 353.127h-110.027c-4.143 0-7.5-3.357-7.5-7.5s3.357-7.5 7.5-7.5h110.027c4.143 0 7.5 3.357 7.5 7.5s-3.357 7.5-7.5 7.5z" fill="#81b823"/></g></g><g><g><path d="m320.384 248.946h75.782c1.01 0 1.995.102 2.964.252l-14.044-56.74c-.699-2.824-3.233-4.807-6.142-4.807h-41.339c-2.909 0-5.443 1.983-6.142 4.807l-14.043 56.74c.969-.15 1.954-.252 2.964-.252z" fill="#fac600"/><path d="m320.384 248.946h22.277l13.981-56.487c.699-2.824 3.233-4.807 6.142-4.807h-25.178c-2.909 0-5.443 1.983-6.142 4.807l-14.043 56.74c.968-.151 1.953-.253 2.963-.253z" fill="#e8b800"/><path d="m396.166 440.816h-75.782c-1.01 0-1.995-.102-2.964-.252l14.043 56.739c.699 2.824 3.233 4.807 6.142 4.807h41.339c2.909 0 5.443-1.983 6.142-4.807l14.043-56.739c-.968.151-1.953.252-2.963.252z" fill="#fac600"/><path d="m356.642 497.303-13.981-56.487h-22.277c-1.01 0-1.995-.102-2.964-.252l14.043 56.739c.699 2.824 3.233 4.807 6.142 4.807h25.178c-2.908 0-5.443-1.983-6.141-4.807z" fill="#e8b800"/></g><path d="m429.39 313.179h-13.954v63.404h13.954c6.989 0 12.654-5.665 12.654-12.654v-38.096c0-6.988-5.666-12.654-12.654-12.654z" fill="#fac600"/><g><path d="m396.166 441.816h-75.783c-11.195 0-20.27-9.075-20.27-20.27v-153.33c0-11.195 9.075-20.27 20.27-20.27h75.783c11.195 0 20.27 9.075 20.27 20.27v153.331c0 11.194-9.075 20.269-20.27 20.269z" fill="#54469c"/></g><g><path d="m333.996 421.547v-153.331c0-11.195 9.075-20.27 20.27-20.27h-33.883c-11.195 0-20.27 9.075-20.27 20.27v153.331c0 11.195 9.075 20.27 20.27 20.27h33.883c-11.195-.001-20.27-9.076-20.27-20.27z" fill="#463b84"/></g><g><path d="m382.485 413.109h-48.419c-4.143 0-7.5-3.357-7.5-7.5s3.357-7.5 7.5-7.5h48.419c4.143 0 7.5 3.357 7.5 7.5s-3.358 7.5-7.5 7.5z" fill="#fff"/></g><g><path d="m365.846 286.661h-15.143c-4.143 0-7.5-3.357-7.5-7.5s3.357-7.5 7.5-7.5h15.143c4.143 0 7.5 3.357 7.5 7.5s-3.357 7.5-7.5 7.5z" fill="#fff"/></g><g><path d="m361.062 318.848-2.788 2.788-2.788-2.788c-6.24-6.24-16.356-6.24-22.596 0-6.24 6.24-6.24 16.356 0 22.596l25.383 25.383 25.383-25.383c6.24-6.24 6.24-16.356 0-22.596-6.238-6.239-16.354-6.239-22.594 0z" fill="#fd4755"/></g><g><path d="m349.676 333.367c-5.132-5.133-6.033-12.884-2.722-18.947-4.954-.866-10.236.603-14.062 4.429-6.24 6.24-6.24 16.356 0 22.596l25.383 25.383 12.431-12.431z" fill="#fb2b3a"/></g></g></g></svg>