<svg id="Capa_1" enable-background="new 0 0 512 512" height="512" viewBox="0 0 512 512" width="512" xmlns="http://www.w3.org/2000/svg"><g><path d="m129.402 423.383c.109.645.185 1.302.185 1.978v37.052h228.901c-10.556-10.723-18.413-24.103-22.485-39.029h-206.601z" fill="#ffe5c2"/><path d="m428.985 100.663h-354.744l-5.328 1v85.836h48.771c6.563 0 11.903 5.34 11.903 11.903v48.422c0 6.563-5.34 11.903-11.903 11.903h-30.89v153.729h30.89c6.234 0 11.354 4.819 11.854 10.926h206.729c-2.215-7.762-3.403-15.953-3.403-24.416 0-49.112 39.956-89.068 89.068-89.068 4.389 0 8.704.325 12.925.941v-210.176z" fill="#fff3de"/><path d="m68.913 101.663v85.836h48.77c6.563 0 11.903 5.34 11.903 11.903v48.422c0 6.563-5.34 11.903-11.903 11.903h-30.89v153.729h30.89c6.233 0 11.354 4.819 11.854 10.926h.55v-322.72h-61.174z" fill="#ffe5c2"/><path d="m341.388 361.971h-192.31c-4.143 0-7.5 3.357-7.5 7.5s3.357 7.5 7.5 7.5h186.802c1.391-5.202 3.242-10.217 5.508-15z" fill="#54469c"/><path d="m413.582 21.966h-323.393c-11.75 0-21.276 9.526-21.276 21.276v58.421h365.944v-58.421c0-11.751-9.525-21.276-21.275-21.276z" fill="#fd4755"/><path d="m151.364 21.966h-61.175c-11.75 0-21.276 9.526-21.276 21.276v58.421h61.175v-58.421c0-11.751 9.525-21.276 21.276-21.276z" fill="#fb2b3a"/><g><path d="m240.667 306.966h-80.921c-4.143 0-7.5-3.357-7.5-7.5s3.357-7.5 7.5-7.5h80.921c16.564 0 30.041-13.476 30.041-30.04s-13.477-30.041-30.041-30.041h-34.204c-3.033 0-5.769-1.827-6.929-4.63-1.161-2.803-.52-6.028 1.625-8.174l58.942-58.94h-100.355c-4.143 0-7.5-3.357-7.5-7.5s3.357-7.5 7.5-7.5h118.462c3.033 0 5.769 1.827 6.929 4.63 1.161 2.803.52 6.028-1.625 8.174l-58.942 58.94h16.098c24.836 0 45.041 20.205 45.041 45.041-.001 24.835-20.206 45.04-45.042 45.04z" fill="#54469c"/></g><g><path d="m344.024 306.966c-4.143 0-7.5-3.357-7.5-7.5v-139.325h-17.527c-4.143 0-7.5-3.357-7.5-7.5s3.357-7.5 7.5-7.5h25.027c4.143 0 7.5 3.357 7.5 7.5v146.825c0 4.142-3.357 7.5-7.5 7.5z" fill="#54469c"/></g><circle cx="421.932" cy="399.966" fill="#8bc727" r="90.068"/><g><path d="m383.889 399.966c0-40.698 26.996-75.086 64.056-86.248-8.236-2.481-16.967-3.82-26.012-3.82-49.743 0-90.068 40.325-90.068 90.068s40.324 90.068 90.068 90.068c9.045 0 17.776-1.339 26.012-3.82-37.06-11.162-64.056-45.549-64.056-86.248z" fill="#81b823"/></g><g><path d="m408.612 445.523c-1.989 0-3.896-.79-5.304-2.196l-37.422-37.423c-2.929-2.93-2.929-7.678 0-10.607 2.93-2.928 7.678-2.928 10.607 0l32.118 32.12 60.027-60.028c2.93-2.928 7.678-2.928 10.607 0 2.929 2.93 2.929 7.678 0 10.607l-65.331 65.331c-1.405 1.406-3.312 2.196-5.302 2.196z" fill="#fff"/></g><g><path d="m132.031 67.763h-21.275c-4.143 0-7.5-3.357-7.5-7.5s3.357-7.5 7.5-7.5h21.275c4.143 0 7.5 3.357 7.5 7.5s-3.357 7.5-7.5 7.5z" fill="#fff"/></g><path d="m393.015 67.763h-21.275c-4.143 0-7.5-3.357-7.5-7.5s3.357-7.5 7.5-7.5h21.275c4.143 0 7.5 3.357 7.5 7.5s-3.358 7.5-7.5 7.5z" fill="#fff"/><path d="m42.794 259.728h45v153.729h-45z" fill="#fe9738"/><path d="m42.794 259.728h22.106v153.729h-22.106z" fill="#fe860a"/><g><g><g><path d="m130.587 425.361v48.422c0 7.126-5.777 12.904-12.904 12.904h-104.779c-7.127-.001-12.904-5.779-12.904-12.905v-48.422c0-7.126 5.777-12.904 12.904-12.904h104.78c7.126.001 12.903 5.778 12.903 12.905z" fill="#fe7701"/></g></g><g><path d="m34.757 473.782v-48.422c0-7.126 5.777-12.903 12.904-12.903h-34.757c-7.127 0-12.904 5.777-12.904 12.904v48.422c0 7.126 5.777 12.904 12.904 12.904h34.756c-7.126-.001-12.903-5.779-12.903-12.905z" fill="#f46700"/></g><g><g><path d="m130.587 199.402v48.421c0 7.126-5.777 12.904-12.904 12.904h-104.779c-7.127.001-12.904-5.777-12.904-12.903v-48.421c0-7.126 5.777-12.904 12.904-12.904h104.78c7.126 0 12.903 5.777 12.903 12.903z" fill="#fe7701"/></g></g><g><path d="m34.757 247.824v-48.421c0-7.126 5.777-12.904 12.904-12.904h-34.757c-7.127 0-12.904 5.777-12.904 12.903v48.421c0 7.126 5.777 12.904 12.904 12.904h34.756c-7.126 0-12.903-5.777-12.903-12.903z" fill="#f46700"/></g></g></g></svg>