<svg id="Capa_1" enable-background="new 0 0 512 512" height="512" viewBox="0 0 512 512" width="512" xmlns="http://www.w3.org/2000/svg"><g><path d="m438.857 10.917c0-6.029-4.888-10.917-10.917-10.917h-360.256c-6.029 0-10.917 4.888-10.917 10.917v304.326l4.895 1h116.878c-.396 3.027-.596 6.075-.596 9.079 0 5.477.639 10.924 1.899 16.213h-117.313l-5.762 1v158.548c0 6.029 4.888 10.917 10.917 10.917h360.255c6.029 0 10.917-4.888 10.917-10.917v-158.548l-1.471-1h-35.512c2.495-8.236 3.785-16.736 3.837-25.292h31.202l1.944-1z" fill="#bbec6c"/><path d="m178.944 325.322c0-3.424.26-6.788.745-10.079h-122.921v27.292h124.355c-1.422-5.503-2.179-11.271-2.179-17.213z" fill="#54469c"/><g><path d="m100.443 255.707h-6.558c-1.254 0-2.275-1.021-2.275-2.274v-42.576c0-1.255 1.021-2.275 2.275-2.275h6.558v-128.897h-6.558c-1.254 0-2.275-1.021-2.275-2.275v-42.576c0-1.255 1.021-2.275 2.275-2.275h6.558v-21.642c0-6.029 4.887-10.917 10.917-10.917h-43.675c-6.029 0-10.917 4.888-10.917 10.917v304.326h43.675z" fill="#a2e62e"/><path d="m323.139 80.899c-4.605 0-8.912-1.3-12.576-3.549-.448 21.773-12.354 41.887-31.312 52.72-8.146 4.655-15.38 10.508-21.549 17.253h-200.934v27.292h183.803c-4.158 10.396-6.404 21.622-6.404 33.144l1.557 1h23.981l1.754-1c0-22.26 12.006-42.949 31.333-53.992 27.809-15.891 45.085-45.66 45.085-77.69v-.227c-4.079 3.161-9.191 5.049-14.738 5.049z" fill="#01d0fb"/><path d="m100.443 501.083v-158.548h-43.675v158.548c0 6.029 4.888 10.917 10.917 10.917h43.675c-6.03 0-10.917-4.888-10.917-10.917z" fill="#a2e62e"/></g><g fill="#54469c"><path d="m404.712 315.243v.459c0 9.23-1.461 18.267-4.197 26.833h38.342v-27.292z"/><path d="m373.41 342.535c3.888-8.273 6.011-17.413 6.011-26.833v-.459h-63.485c.485 3.291.745 6.655.745 10.079 0 5.941-.757 11.709-2.178 17.213z"/></g><g fill="#81b823"><path d="m387.455 38.921h19.684c4.142 0 7.5-3.358 7.5-7.5s-3.358-7.5-7.5-7.5h-19.684c-4.142 0-7.5 3.358-7.5 7.5s3.358 7.5 7.5 7.5z"/><path d="m407.139 48.645h-19.684c-4.142 0-7.5 3.358-7.5 7.5s3.358 7.5 7.5 7.5h19.684c4.142 0 7.5-3.358 7.5-7.5s-3.358-7.5-7.5-7.5z"/><path d="m407.139 73.369h-19.684c-4.142 0-7.5 3.358-7.5 7.5s3.358 7.5 7.5 7.5h19.684c4.142 0 7.5-3.358 7.5-7.5s-3.358-7.5-7.5-7.5z"/></g><path d="m390.823 280.654c-4.244 0-8.39-.427-12.403-1.226v36.274c0 22.26-12.006 42.949-31.333 53.993-27.809 15.891-45.085 45.66-45.085 77.69v64.615h27.292v-64.615c0-22.26 12.006-42.949 31.333-53.992 27.809-15.891 45.085-45.66 45.085-77.69v-36.831c-4.778 1.155-9.76 1.782-14.889 1.782z" fill="#01d0fb"/><path d="m178.944 325.322c0-3.424.26-6.788.745-10.079h-122.921v27.292h124.355c-1.422-5.503-2.179-11.271-2.179-17.213z" fill="#54469c"/><g fill="#01d0fb"><path d="m56.768 41.722h34.842v27.292h-34.842z"/><path d="m304.339 41.722h-165.603v27.292h163.635c-2.119-3.587-3.341-7.764-3.341-12.223 0-5.698 1.991-10.938 5.309-15.069z"/></g><g><circle cx="390.823" cy="217.245" fill="#fd4755" r="64.409"/></g><g><path d="m352.791 217.245c0-31.052 21.975-56.967 51.221-63.053-4.258-.886-8.668-1.357-13.189-1.357-35.572 0-64.409 28.837-64.409 64.409s28.837 64.409 64.409 64.409c4.521 0 8.931-.47 13.189-1.357-29.246-6.084-51.221-31.999-51.221-63.051z" fill="#fb2b3a"/></g><g><path d="m368.989 469.524h-242.354c-11.455 0-20.742-9.286-20.742-20.742 0-11.455 9.287-20.742 20.742-20.742h242.354c11.455 0 20.742 9.286 20.742 20.742 0 11.456-9.286 20.742-20.742 20.742z" fill="#fff"/></g><g><path d="m158.133 448.782c0-11.455 9.287-20.742 20.742-20.742h-52.239c-11.455 0-20.742 9.286-20.742 20.742 0 11.455 9.286 20.742 20.742 20.742h52.239c-11.456 0-20.742-9.286-20.742-20.742z" fill="#f2fbff"/></g><g><path d="m323.139 32.682c5.547 0 10.659 1.888 14.738 5.049v-37.731h-27.292v36.217c3.658-2.241 7.957-3.535 12.554-3.535z" fill="#01d0fb"/></g><path d="m247.812 256.454c4.671 0 9.233.472 13.646 1.363v-50.057h-27.292v50.057c4.413-.89 8.975-1.363 13.646-1.363z" fill="#fd4755"/><g><g><circle cx="247.812" cy="325.322" fill="#fac600" r="69.868"/></g><g><path d="m212.732 325.322c0-32.582 22.303-59.953 52.474-67.684-5.561-1.425-11.389-2.184-17.394-2.184-38.587 0-69.868 31.281-69.868 69.868s31.281 69.868 69.868 69.868c6.005 0 11.833-.759 17.394-2.184-30.171-7.731-52.474-35.102-52.474-67.684z" fill="#e8b800"/></g><g><path d="m245.013 291.304-25.289 52.691c-1.256 2.617 1.446 5.373 4.087 4.169l22.713-10.352c.818-.373 1.758-.373 2.576 0l22.713 10.352c2.641 1.204 5.343-1.552 4.087-4.169l-25.289-52.691c-1.126-2.348-4.471-2.348-5.598 0z" fill="#fd4755"/></g></g><g><circle cx="323.139" cy="56.791" fill="#fd4755" r="25.109"/></g><g><path d="m320.133 56.791c0-9.901 5.732-18.46 14.057-22.548-3.335-1.638-7.085-2.561-11.051-2.561-13.867 0-25.109 11.242-25.109 25.109s11.242 25.109 25.109 25.109c3.966 0 7.716-.923 11.051-2.561-8.325-4.089-14.057-12.648-14.057-22.548z" fill="#fb2b3a"/></g><g><circle cx="390.823" cy="217.245" fill="#fff" r="25.109"/></g><g><path d="m390.823 250.08c-18.105 0-32.835-14.729-32.835-32.835s14.73-32.835 32.835-32.835 32.835 14.729 32.835 32.835-14.73 32.835-32.835 32.835zm0-50.217c-9.585 0-17.382 7.797-17.382 17.382s7.797 17.382 17.382 17.382c9.584 0 17.382-7.797 17.382-17.382s-7.797-17.382-17.382-17.382z" fill="#ffbd86"/></g><g><path d="m136.461 80.685h-42.576c-1.809 0-3.275-1.466-3.275-3.275v-42.576c0-1.809 1.466-3.275 3.275-3.275h42.576c1.809 0 3.275 1.466 3.275 3.275v42.576c0 1.808-1.467 3.275-3.275 3.275z" fill="#fff"/></g><g><path d="m112.805 77.41v-42.576c0-1.809 1.466-3.275 3.275-3.275h-22.195c-1.809 0-3.275 1.466-3.275 3.275v42.576c0 1.809 1.466 3.275 3.275 3.275h22.195c-1.809 0-3.275-1.467-3.275-3.275z" fill="#f2fbff"/></g><g><path d="m136.461 256.707h-42.576c-1.809 0-3.275-1.466-3.275-3.275v-42.576c0-1.809 1.466-3.275 3.275-3.275h42.576c1.809 0 3.275 1.466 3.275 3.275v42.576c0 1.809-1.467 3.275-3.275 3.275z" fill="#fff"/></g><g><path d="m112.805 253.432v-42.576c0-1.809 1.466-3.275 3.275-3.275h-22.195c-1.809 0-3.275 1.466-3.275 3.275v42.576c0 1.809 1.466 3.275 3.275 3.275h22.195c-1.809 0-3.275-1.466-3.275-3.275z" fill="#f2fbff"/></g></g></svg>