<svg id="Capa_1" enable-background="new 0 0 512 512" height="512" viewBox="0 0 512 512" width="512" xmlns="http://www.w3.org/2000/svg"><g><path d="m504.2 54.835h-496.4l-7.8 1v441.649c0 5.69 4.612 10.302 10.302 10.302h491.396c5.69 0 10.302-4.612 10.302-10.302v-441.649z" fill="#dff6fd"/><g><g><path d="m49.964 497.484v-441.649h-49.964v441.649c0 5.69 4.612 10.302 10.302 10.302h49.964c-5.69 0-10.302-4.612-10.302-10.302z" fill="#c8effe"/></g><g><path d="m512 55.835h-512v-41.32c0-5.689 4.612-10.301 10.302-10.301h491.396c5.69 0 10.302 4.612 10.302 10.302z" fill="#fd4755"/></g><g><path d="m60.266 4.214h-49.964c-5.69 0-10.302 4.612-10.302 10.302v41.32h49.964v-41.32c0-5.69 4.612-10.302 10.302-10.302z" fill="#fb2b3a"/></g><g fill="#fff"><path d="m62.944 179.707c-1.656-2.869-1.656-6.433 0-9.302l35.56-61.592h-56.481c-2.845 0-5.151 2.306-5.151 5.151v122.185c0 2.845 2.306 5.151 5.151 5.151h56.481z"/><path d="m469.977 108.813h-253.61l35.561 61.592c1.656 2.869 1.656 6.433 0 9.302l-35.56 61.593h253.61c2.845 0 5.151-2.306 5.151-5.151v-122.185c-.001-2.845-2.308-5.151-5.152-5.151z"/></g><g><path d="m200.654 89.899h-86.436c-3.68 0-7.081 1.964-8.922 5.151l-43.218 74.856c-1.84 3.187-1.84 7.114 0 10.302l43.218 74.856c1.84 3.187 5.241 5.151 8.922 5.151h86.436c3.68 0 7.081-1.964 8.922-5.151l43.218-74.856c1.84-3.187 1.84-7.114 0-10.302l-43.219-74.856c-1.84-3.188-5.241-5.151-8.921-5.151z" fill="#01d0fb"/></g><path d="m149.162 255.063-32.076-55.558h-6.576c-2.909 0-5.268-2.358-5.268-5.267v-38.362c0-2.909 2.358-5.268 5.268-5.268h6.576l32.076-55.558c1.84-3.187 5.241-5.151 8.922-5.151h-43.866c-3.68 0-7.081 1.963-8.922 5.151l-43.218 74.856c-1.84 3.187-1.84 7.114 0 10.302l43.218 74.856c1.84 3.187 5.241 5.151 8.922 5.151h43.866c-3.681-.001-7.082-1.965-8.922-5.152z" fill="#01c0fa"/><g><g><g><path d="m73.661 376.598v-50.783c0-4.143-3.358-7.5-7.5-7.5s-7.5 3.357-7.5 7.5v50.783z" fill="#fe7701"/><path d="m114.371 376.598v-87.939c0-4.143-3.358-7.5-7.5-7.5s-7.5 3.357-7.5 7.5v87.939z" fill="#8bc727"/><path d="m155.081 376.598v-50.783c0-4.143-3.358-7.5-7.5-7.5s-7.5 3.357-7.5 7.5v50.783z" fill="#fac600"/><path d="m195.79 376.598v-36.85c0-4.143-3.358-7.5-7.5-7.5s-7.5 3.357-7.5 7.5v36.85z" fill="#fd4755"/><path d="m236.5 376.598v-75.554c0-4.143-3.358-7.5-7.5-7.5s-7.5 3.357-7.5 7.5v75.554z" fill="#8bc727"/></g><g><path d="m248.625 390.598h-204.174c-4.142 0-7.5-3.357-7.5-7.5s3.358-7.5 7.5-7.5h204.174c4.142 0 7.5 3.357 7.5 7.5s-3.357 7.5-7.5 7.5z" fill="#978ecb"/></g></g></g><g><path d="m132.036 167.557h50.8v15h-50.8z" fill="#463b84"/><g><g><g><path d="m127.768 199.505h-17.259c-2.909 0-5.267-2.358-5.267-5.267v-38.362c0-2.909 2.358-5.268 5.267-5.268h17.259c2.909 0 5.267 2.358 5.267 5.268v38.362c.001 2.909-2.357 5.267-5.267 5.267z" fill="#54469c"/></g></g><g><g><path d="m204.362 199.505h-17.259c-2.909 0-5.268-2.358-5.268-5.267v-38.362c0-2.909 2.358-5.268 5.268-5.268h17.259c2.909 0 5.267 2.358 5.267 5.268v38.362c.001 2.909-2.358 5.267-5.267 5.267z" fill="#54469c"/></g></g></g></g><g fill="#ffbd86"><path d="m395.074 153.059h45.288c4.142 0 7.5-3.357 7.5-7.5s-3.358-7.5-7.5-7.5h-45.288c-4.142 0-7.5 3.357-7.5 7.5s3.358 7.5 7.5 7.5z"/><path d="m281.754 153.059h89.626c4.142 0 7.5-3.357 7.5-7.5s-3.358-7.5-7.5-7.5h-89.626c-4.142 0-7.5 3.357-7.5 7.5s3.358 7.5 7.5 7.5z"/><path d="m440.362 167.557h-158.608c-4.142 0-7.5 3.357-7.5 7.5s3.358 7.5 7.5 7.5h158.608c4.142 0 7.5-3.357 7.5-7.5s-3.358-7.5-7.5-7.5z"/><path d="m440.362 197.055h-158.608c-4.142 0-7.5 3.357-7.5 7.5s3.358 7.5 7.5 7.5h158.608c4.142 0 7.5-3.357 7.5-7.5s-3.358-7.5-7.5-7.5z"/></g><g><g><g><path d="m300.247 305.265h-10.535c-4.142 0-7.5-3.357-7.5-7.5s3.358-7.5 7.5-7.5h10.535c4.142 0 7.5 3.357 7.5 7.5s-3.358 7.5-7.5 7.5z" fill="#54469c"/></g><g><path d="m440.362 305.265h-111.671c-4.142 0-7.5-3.357-7.5-7.5s3.358-7.5 7.5-7.5h111.671c4.142 0 7.5 3.357 7.5 7.5s-3.358 7.5-7.5 7.5z" fill="#54469c"/></g></g><g><g><path d="m300.247 333.709h-10.535c-4.142 0-7.5-3.357-7.5-7.5s3.358-7.5 7.5-7.5h10.535c4.142 0 7.5 3.357 7.5 7.5s-3.358 7.5-7.5 7.5z" fill="#54469c"/></g><g><path d="m440.362 333.709h-111.671c-4.142 0-7.5-3.357-7.5-7.5s3.358-7.5 7.5-7.5h111.671c4.142 0 7.5 3.357 7.5 7.5s-3.358 7.5-7.5 7.5z" fill="#54469c"/></g></g><g><g><path d="m300.247 362.153h-10.535c-4.142 0-7.5-3.357-7.5-7.5s3.358-7.5 7.5-7.5h10.535c4.142 0 7.5 3.357 7.5 7.5s-3.358 7.5-7.5 7.5z" fill="#978ecb"/></g><g><path d="m440.362 362.153h-111.671c-4.142 0-7.5-3.357-7.5-7.5s3.358-7.5 7.5-7.5h111.671c4.142 0 7.5 3.357 7.5 7.5s-3.358 7.5-7.5 7.5z" fill="#978ecb"/></g></g><g><g><path d="m300.247 390.598h-10.535c-4.142 0-7.5-3.357-7.5-7.5s3.358-7.5 7.5-7.5h10.535c4.142 0 7.5 3.357 7.5 7.5s-3.358 7.5-7.5 7.5z" fill="#978ecb"/></g><g><path d="m440.362 390.598h-111.671c-4.142 0-7.5-3.357-7.5-7.5s3.358-7.5 7.5-7.5h111.671c4.142 0 7.5 3.357 7.5 7.5s-3.358 7.5-7.5 7.5z" fill="#978ecb"/></g></g></g><g fill="#99e6fc"><path d="m148.462 452.076c-1.626-2.069-2.606-4.67-2.606-7.5s.979-5.431 2.606-7.5h-76.326c1.056 2.286 1.662 4.821 1.662 7.5s-.606 5.214-1.662 7.5z"/><path d="m246.437 452.076c-1.626-2.069-2.606-4.67-2.606-7.5s.979-5.431 2.606-7.5h-78.849c1.626 2.069 2.606 4.67 2.606 7.5s-.979 5.431-2.606 7.5z"/><path d="m344.412 452.076c-1.626-2.069-2.606-4.67-2.606-7.5s.979-5.431 2.606-7.5h-78.849c1.626 2.069 2.606 4.67 2.606 7.5s-.979 5.431-2.606 7.5z"/><path d="m439.864 452.076c-1.056-2.286-1.662-4.821-1.662-7.5s.606-5.214 1.662-7.5h-76.326c1.626 2.069 2.606 4.67 2.606 7.5s-.979 5.431-2.606 7.5z"/></g><g><g><circle cx="55.835" cy="444.576" fill="#8bc727" r="18.963"/></g><path d="m53.745 444.576c0-7.438 4.293-13.858 10.527-16.965-2.543-1.268-5.401-1.998-8.436-1.998-10.473 0-18.963 8.49-18.963 18.963s8.49 18.963 18.963 18.963c3.035 0 5.893-.731 8.436-1.998-6.234-3.107-10.527-9.527-10.527-16.965z" fill="#81b823"/><g><circle cx="456.165" cy="444.576" fill="#8bc727" r="18.963"/></g><path d="m454.074 444.576c0-7.438 4.293-13.858 10.527-16.965-2.543-1.268-5.401-1.998-8.436-1.998-10.473 0-18.963 8.49-18.963 18.963s8.49 18.963 18.963 18.963c3.035 0 5.893-.731 8.436-1.998-6.234-3.107-10.527-9.527-10.527-16.965z" fill="#81b823"/></g><g><g><circle cx="353.975" cy="444.576" fill="#fe7701" r="13.169"/></g><path d="m353.663 444.576c0-4.937 2.721-9.233 6.741-11.488-1.902-1.067-4.092-1.681-6.428-1.681-7.273 0-13.169 5.896-13.169 13.169s5.896 13.169 13.169 13.169c2.336 0 4.526-.615 6.428-1.681-4.021-2.255-6.741-6.551-6.741-11.488z" fill="#f46700"/><g><circle cx="256" cy="444.576" fill="#fe7701" r="13.169"/></g><path d="m255.687 444.576c0-4.937 2.721-9.233 6.741-11.488-1.902-1.067-4.092-1.681-6.428-1.681-7.273 0-13.169 5.896-13.169 13.169s5.896 13.169 13.169 13.169c2.336 0 4.526-.615 6.428-1.681-4.02-2.255-6.741-6.551-6.741-11.488z" fill="#f46700"/><g><circle cx="158.025" cy="444.576" fill="#fe7701" r="13.169"/></g></g><g><path d="m482.125 37.375h-23.694c-4.142 0-7.5-3.357-7.5-7.5s3.358-7.5 7.5-7.5h23.694c4.142 0 7.5 3.357 7.5 7.5s-3.358 7.5-7.5 7.5z" fill="#ffbd86"/></g></g><path d="m157.712 444.576c0-4.937 2.721-9.233 6.741-11.488-1.902-1.067-4.092-1.681-6.428-1.681-7.273 0-13.169 5.896-13.169 13.169s5.896 13.169 13.169 13.169c2.336 0 4.526-.615 6.428-1.681-4.02-2.255-6.741-6.551-6.741-11.488z" fill="#f46700"/></g></svg>