<svg id="Capa_1" enable-background="new 0 0 512 512" height="512" viewBox="0 0 512 512" width="512" xmlns="http://www.w3.org/2000/svg"><g><path d="m495.377 43.112h-478.754c-9.18 0-16.623 7.442-16.623 16.623v319.263l6.398 1h77.585c8.702-10.528 21.855-17.249 36.549-17.249s27.847 6.721 36.549 17.249h49.708c10.167-16.532 28.422-27.582 49.212-27.582 20.791 0 39.046 11.05 49.213 27.582h49.707c8.702-10.528 21.855-17.249 36.549-17.249s27.848 6.721 36.549 17.249h77.584l6.398-1v-319.263c-.001-9.181-7.444-16.623-16.624-16.623z" fill="#dff6fd"/><g><path d="m66.587 43.112h-49.964c-9.18 0-16.623 7.442-16.623 16.623v319.263h49.964v-319.263c0-9.181 7.442-16.623 16.623-16.623z" fill="#c8effe"/></g><path d="m352.156 234.503-21.9-21.9c-5.386-5.386-14.117-5.386-19.503 0l-7.314 7.314c-5.171 5.171-5.362 13.419-.603 18.836l-50.067 50.067-.519.896 4.714 4.714c1.692 1.692 1.692 4.447 0 6.14l-26.118 26.118-1.945 3.36 5.305 5.305c6.258 6.258 16.404 6.258 22.662 0l71.659-71.66c5.228 2.833 11.896 2.047 16.315-2.372l7.313-7.314c5.386-5.386 5.386-14.118.001-19.504z" fill="#fed2a4"/><path d="m352.156 234.503-2.066-2.066c-.649 2.016-1.762 3.915-3.363 5.515l-7.314 7.314c-3.682 3.682-8.927 4.842-13.599 3.487-1.788-.519-3.713-.118-5.03 1.198l-69.347 69.347c-4.288 4.288-10.4 5.635-15.837 4.047l-6.701 6.701 5.304 5.304c6.258 6.258 16.404 6.258 22.662 0l71.659-71.659c5.228 2.833 11.896 2.047 16.315-2.372l7.313-7.314c5.389-5.385 5.389-14.116.004-19.502z" fill="#ffbd86"/><g><g><g><path d="m236.68 164.504-13.916-19.218c-1.079-1.49-1.66-3.282-1.66-5.122v-20.757l-2.301-1.03h-58.803c-3.042 0-5.672 2.167-6.254 5.153l-2.578 13.234h-6.705c-7.735 0-14.029 6.294-14.029 14.029v8.48c0 6.487 4.383 12.029 10.576 13.586l-5.594 19.745.645 1.503v27.462h32.41c.693 0 1.382.02 2.067.052v-11.426c0-1.904 1.544-3.448 3.448-3.448h9.123c19.518 0 35.588-14.72 37.739-33.662.2-1.763 1.653-3.113 3.427-3.113h9.613c2.814.001 4.443-3.189 2.792-5.468z" fill="#fed2a4"/></g><g><path d="m192.374 167.13c-4.142 0-7.5-3.357-7.5-7.5v-12.642c0-4.143 3.358-7.5 7.5-7.5s7.5 3.357 7.5 7.5v12.642c0 4.142-3.358 7.5-7.5 7.5z" fill="#bb5d4c"/></g><g><path d="m108.48 111.871v54.655c0 15.233 12.349 27.581 27.581 27.581l6.242-22.029c-6.149-1.031-10.839-6.363-10.839-12.805v-8.48c0-7.179 5.82-12.998 12.998-12.998h7.554l2.74-14.067c.489-2.509 2.687-4.32 5.243-4.32h61.105l8.727-20.812c2.952-7.04-2.218-14.814-9.852-14.814h-83.41c-15.513-.001-28.089 12.575-28.089 28.089z" fill="#fac600"/></g><g><path d="m134.465 167.56c-1.87-2.248-3.001-5.132-3.001-8.287v-8.48c0-3.144 1.117-6.027 2.974-8.275v-30.647c0-15.514 12.576-28.09 28.09-28.09h-25.958c-15.514 0-28.09 12.576-28.09 28.09v54.655c0 15.233 12.349 27.581 27.581 27.581l3.344-11.801c-2.942-4.208-4.738-9.272-4.94-14.746z" fill="#e8b800"/></g></g><path d="m257.671 293.722-55.058-55.058c5.333 7.119 8.496 15.954 8.496 25.513v48.078l17.791 17.791 28.771-28.771c2.086-2.085 2.086-5.467 0-7.553z" fill="#bbec6c"/><path d="m257.671 293.722-4.34-4.34-17.36 17.36c-3.905 3.905-10.237 3.905-14.142 0l-10.72-10.72v16.234l17.791 17.791 28.771-28.771c2.086-2.086 2.086-5.468 0-7.554z" fill="#a2e62e"/><path d="m157.08 379.998h49.708c1.583-2.573 3.368-5.007 5.322-7.294v-108.527c0-24.101-19.537-43.638-43.638-43.638h-28.619v1c12.139 0 22.015 9.876 22.015 22.015s-9.876 22.015-22.015 22.015h-18.432l-.409 1v96.193c14.498.144 27.462 6.823 36.068 17.236z" fill="#8bc727"/><path d="m146.801 370.717v-105.219c-2.193.694-4.527 1.07-6.949 1.07h-18.842v96.193c9.528.095 18.391 3.01 25.791 7.956z" fill="#81b823"/><path d="m91.367 372.823c.008-.195.022-.389.022-.586v-10.343c0-6.791-4.913-12.423-11.376-13.566v-81.759l-.267-1h-6.666c-2.394 0-4.341-1.947-4.341-4.341v-36.938l-1-3.751h-7.502c-8.85 0-16.024 7.174-16.024 16.024v111.764c-6.463 1.144-11.376 6.775-11.376 13.566v10.343c0 2.879.884 5.55 2.393 7.761h48.753c2.191-2.651 4.674-5.051 7.384-7.174z" fill="#fed2a4"/><path d="m50.131 379.998v-8.027c0-5.676 3.432-10.541 8.332-12.654 1.863-.803 3.044-2.664 3.044-4.693v-107.983c0-5.158 2.447-9.734 6.232-12.665v-13.437h-7.502c-8.85 0-16.024 7.174-16.024 16.024v111.764c-6.463 1.144-11.376 6.775-11.376 13.566v10.343c0 2.879.884 5.55 2.393 7.761h14.901z" fill="#ffbd86"/><g><path d="m73.081 266.569h66.771c12.711 0 23.015-10.304 23.015-23.015 0-12.711-10.304-23.015-23.015-23.015h-72.113v40.688c0 2.95 2.392 5.342 5.342 5.342z" fill="#bbec6c"/></g><g><path d="m159.842 248.789h-66.771c-2.95 0-5.341-2.391-5.341-5.342v-22.908h-19.991v40.688c0 2.95 2.391 5.342 5.341 5.342h66.771c10.956 0 20.117-7.658 22.44-17.911-.804.085-1.621.131-2.449.131z" fill="#a2e62e"/></g></g><g fill="#01d0fb"><path d="m156.214 378.998c7.289 8.338 11.72 19.235 11.72 31.154 0 10.776-3.621 20.719-9.702 28.69h47.698c-4.866-8.459-7.665-18.251-7.665-28.69 0-11.469 3.375-22.159 9.165-31.154z"/><path d="m353.768 438.843c-6.081-7.971-9.702-17.914-9.702-28.69 0-11.919 4.431-22.816 11.72-31.154h-51.215c5.79 8.995 9.165 19.685 9.165 31.154 0 10.439-2.799 20.231-7.665 28.69z"/><path d="m427.152 378.998c7.289 8.338 11.72 19.235 11.72 31.154 0 10.776-3.621 20.719-9.702 28.69h66.207c9.181 0 16.623-7.443 16.623-16.623v-43.221z"/><path d="m73.128 410.152c0-11.919 4.431-22.816 11.72-31.154h-84.848v43.221c0 9.181 7.443 16.623 16.623 16.623h66.207c-6.08-7.97-9.702-17.913-9.702-28.69z"/></g><g><path d="m49.964 422.219v-43.221h-49.964v43.221c0 9.181 7.443 16.624 16.623 16.624h49.964c-9.181 0-16.623-7.443-16.623-16.624z" fill="#01c0fa"/></g><g><g><circle cx="256" cy="410.152" fill="#fd4755" r="58.736"/></g><g><path d="m232.275 410.152c0-26.342 17.341-48.633 41.231-56.082-5.529-1.724-11.408-2.654-17.505-2.654-32.439 0-58.736 26.297-58.736 58.736s26.297 58.736 58.736 58.736c6.097 0 11.976-.93 17.505-2.654-23.89-7.449-41.231-29.74-41.231-56.082z" fill="#fb2b3a"/></g><g><path d="m275.356 406.684-28.033-16.185c-2.67-1.541-6.007.385-6.007 3.468v32.37c0 3.083 3.337 5.01 6.007 3.468l28.033-16.185c2.67-1.541 2.67-5.395 0-6.936z" fill="#fff"/></g></g><g><circle cx="391.469" cy="410.152" fill="#fac600" r="48.403"/></g><g><path d="m369.32 410.152c0-22.181 14.925-40.863 35.276-46.586-4.176-1.175-8.575-1.817-13.127-1.817-26.732 0-48.403 21.671-48.403 48.403s21.671 48.403 48.403 48.403c4.552 0 8.951-.642 13.127-1.816-20.351-5.724-35.276-24.406-35.276-46.587z" fill="#e8b800"/></g><g><circle cx="120.531" cy="410.152" fill="#fac600" r="48.403"/></g><g><path d="m98.382 410.152c0-22.181 14.925-40.863 35.276-46.586-4.176-1.175-8.575-1.817-13.127-1.817-26.732 0-48.403 21.671-48.403 48.403s21.671 48.403 48.403 48.403c4.552 0 8.951-.642 13.127-1.816-20.351-5.724-35.276-24.406-35.276-46.587z" fill="#e8b800"/></g><g><path d="m382.084 436.046c-2.321 0-4.609-1.074-6.077-3.098-2.432-3.353-1.686-8.043 1.668-10.475l16.987-12.321-16.987-12.321c-3.354-2.432-4.1-7.122-1.668-10.475 2.432-3.354 7.123-4.1 10.475-1.668l25.358 18.393c1.945 1.411 3.097 3.668 3.097 6.071s-1.151 4.66-3.097 6.071l-25.358 18.393c-1.331.965-2.872 1.43-4.398 1.43z" fill="#fff"/></g><g><path d="m131.342 436.046c-1.526 0-3.067-.465-4.397-1.43l-25.358-18.393c-1.945-1.411-3.097-3.668-3.097-6.071s1.151-4.66 3.097-6.071l25.358-18.393c3.354-2.432 8.042-1.686 10.475 1.668 2.432 3.353 1.685 8.043-1.668 10.475l-16.988 12.321 16.988 12.321c3.353 2.432 4.1 7.122 1.668 10.475-1.468 2.023-3.757 3.098-6.078 3.098z" fill="#fff"/></g><g><g><path d="m412.199 224.436c-43.822 0-79.474-35.652-79.474-79.475s35.651-79.474 79.474-79.474c15.79 0 31.048 4.622 44.126 13.366 3.443 2.302 4.368 6.96 2.065 10.403-2.301 3.442-6.96 4.369-10.403 2.065-10.602-7.088-22.977-10.835-35.788-10.835-35.551 0-64.474 28.923-64.474 64.474 0 35.552 28.923 64.475 64.474 64.475 35.552 0 64.475-28.923 64.475-64.475 0-10.772-2.708-21.432-7.83-30.824-1.983-3.636-.644-8.191 2.993-10.175 3.637-1.982 8.192-.644 10.175 2.993 6.321 11.589 9.662 24.73 9.662 38.006 0 43.823-35.653 79.476-79.475 79.476z" fill="#62dbfb"/></g><g fill="#01d0fb"><path d="m391.085 112.95h-13.429c-4.143 0-7.5 3.357-7.5 7.5s3.357 7.5 7.5 7.5h5.929v43.161c0 4.143 3.357 7.5 7.5 7.5s7.5-3.357 7.5-7.5v-50.661c0-4.142-3.357-7.5-7.5-7.5z"/><path d="m430.878 112.95c-12.884 0-23.365 10.481-23.365 23.365v18.931c0 12.884 10.481 23.365 23.365 23.365 12.883 0 23.364-10.481 23.364-23.365v-18.931c0-12.883-10.481-23.365-23.364-23.365zm8.364 42.296c0 4.612-3.752 8.365-8.364 8.365s-8.365-3.753-8.365-8.365v-18.931c0-4.612 3.753-8.365 8.365-8.365s8.364 3.753 8.364 8.365z"/></g></g></g></svg>