<svg id="Capa_1" enable-background="new 0 0 512 512" height="512" viewBox="0 0 512 512" width="512" xmlns="http://www.w3.org/2000/svg"><g><path d="m187.676 355.443-28.711 107.15 2.482 1.7 39.547 10.597 2.809-.282 29.47-109.985-45.568-9.17c-.01-.003-.019-.008-.029-.01z" fill="#fed2a4"/><path d="m350.14 464.404 2.896-1.811-28.711-107.15c-.011.002-.02.007-.031.009l-45.568 9.17 29.47 109.985 2.741.301z" fill="#fed2a4"/><g><path d="m427.874 148.944c-.992-4.021-5.057-6.482-9.078-5.484-4.021.992-6.477 5.057-5.484 9.078 3.125 12.666 4.709 25.723 4.709 38.807 0 35.664-11.413 69.518-33.004 97.899-15.973 20.996-37.043 37.884-60.769 48.997l1.639 15.034c.027.243.006.48-.05.704 27.854-12.056 52.619-31.336 71.117-55.652 23.595-31.015 36.066-68.009 36.066-106.981.001-14.295-1.731-28.561-5.146-42.402z" fill="#c8effe"/></g><g><path d="m186.113 353.274 1.633-14.98c-24.594-11.423-45.876-28.819-62.252-51.04-20.617-27.976-31.515-61.141-31.515-95.909 0-13.084 1.585-26.141 4.709-38.807.992-4.021-1.463-8.086-5.484-9.078-4.023-.996-8.087 1.463-9.078 5.484-3.415 13.841-5.146 28.106-5.146 42.4 0 37.994 11.909 74.236 34.439 104.809 18.928 25.685 43.869 45.465 72.75 57.86-.062-.234-.084-.483-.056-.739z" fill="#c8effe"/></g><g fill="#c8effe"><path d="m192.218 297.269-.837-.217c-1.113-.289-1.786-1.432-1.498-2.546l1.911-7.407c-30.81-20.726-51.12-55.912-51.12-95.755 0-4.143-3.357-7.5-7.5-7.5s-7.5 3.357-7.5 7.5c0 48.384 26.504 90.691 65.754 113.173z"/><path d="m378.826 183.845c-4.143 0-7.5 3.357-7.5 7.5 0 39.843-20.311 75.029-51.12 95.755l1.911 7.407c.288 1.114-.385 2.257-1.498 2.546l-.837.217.79 7.249c39.25-22.482 65.754-64.789 65.754-113.173 0-4.144-3.357-7.501-7.5-7.501z"/></g><g><g><g><path d="m327.942 469.316-29.135-108.735-20.081 4.041 29.47 109.985z" fill="#ffbd86"/><path d="m340.464 498 30.545-8.184c8.255-2.212 13.153-10.697 10.941-18.951-2.212-8.255-10.697-13.153-18.951-10.942l-54.803 14.685 6.268 23.392z" fill="#01d0fb"/><path d="m340.464 498 30.545-8.185c7.805-2.091 12.6-9.79 11.231-17.6l-45.501 12.192c-2.708.725-5.491-.881-6.216-3.589l-3.048-11.377-19.279 5.166 6.268 23.393z" fill="#01c0fa"/><path d="m176.917 467.403 29.014-108.283-18.225-3.667c-.011-.002-.02-.007-.031-.009l-28.711 107.15z" fill="#ffbd86"/><path d="m320.759 297.001c-.214.073-.437.123-.67.123h-128.178c-.234 0-.456-.05-.67-.123l-6.122 56.165c-.168 1.543.869 2.96 2.39 3.266l47.528 9.565c1.395.281 2.795-.457 3.352-1.766l14.764-34.665c1.069-2.509 4.626-2.509 5.694 0l14.764 34.665c.557 1.309 1.957 2.046 3.352 1.766l47.528-9.565c1.522-.306 2.559-1.723 2.39-3.266z" fill="#54469c"/><path d="m219.715 334.028 4.023-36.904h-31.827c-.234 0-.456-.05-.67-.123 0 0-6.122 56.165-6.122 56.165-.168 1.543.869 2.96 2.39 3.266l47.528 9.565c1.395.281 2.794-.457 3.352-1.766l8.526-20.019-23.155-4.66c-2.575-.517-4.329-2.914-4.045-5.524z" fill="#463b84"/><path d="m140.991 489.816 30.545 8.184h26l6.268-23.393-54.803-14.685c-8.255-2.212-16.739 2.687-18.951 10.942s2.686 16.74 10.941 18.952z" fill="#01d0fb"/><path d="m140.991 489.815 30.545 8.185h26l1.748-6.525-38.396-10.288c-8.255-2.212-13.153-10.697-10.942-18.951.175-.653.402-1.276.652-1.885l-1.598-.428c-8.255-2.212-16.739 2.687-18.951 10.941-2.211 8.255 2.687 16.74 10.942 18.951z" fill="#01c0fa"/></g><g><path d="m190.032 156.641-70.405-70.405v-30.918c0-5.733-4.647-10.38-10.38-10.38-5.732 0-10.379 4.647-10.379 10.38v4.121l-7.162-7.162c-5.188-5.188-13.6-5.188-18.788 0l-9.025 9.025c-5.188 5.188-5.188 13.6 0 18.788l18.259 18.258c2.724 2.724 6.336 4.003 9.905 3.867l108.779 108.779z" fill="#fed2a4"/><path d="m195.312 183.207-93.955-93.955c-3.568.137-7.181-1.143-9.905-3.867l-18.258-18.258c-3.107-3.107-4.338-7.367-3.725-11.401l-5.576 5.576c-5.188 5.188-5.188 13.6 0 18.788l18.259 18.258c2.724 2.724 6.336 4.003 9.905 3.867l108.779 108.779z" fill="#ffbd86"/><path d="m448.107 61.302-9.025-9.025c-5.188-5.188-13.6-5.188-18.788 0l-7.162 7.162v-4.121c0-5.732-4.647-10.38-10.379-10.38-5.733 0-10.38 4.647-10.38 10.38v30.918l-70.405 70.405-10.803 54.353 108.779-108.779c3.568.137 7.181-1.142 9.905-3.867l18.259-18.258c5.187-5.188 5.187-13.6-.001-18.788z" fill="#fed2a4"/><g><path d="m402.752 44.938c-5.733 0-10.38 4.647-10.38 10.38v30.918l-70.405 70.405-5.808 29.224 91.275-91.274v-30.918c0-4.028 2.299-7.513 5.653-9.233-.447-5.321-4.899-9.502-10.335-9.502z" fill="#ffbd86"/></g></g><g><path d="m318.926 152.125v-97.896c0-29.95-24.279-54.229-54.229-54.229h-17.394c-29.95 0-54.229 24.279-54.229 54.229v97.896z" fill="#bb5d4c"/></g><g><path d="m227.577 152.125v-97.896c0-27.038 19.79-49.448 45.674-53.551-2.787-.442-5.642-.678-8.554-.678h-17.394c-29.95 0-54.229 24.279-54.229 54.229v97.896z" fill="#a44f3e"/></g><g><path d="m320.089 298.124h-128.178c-2.023 0-3.502-1.909-2.997-3.868l12.566-48.691c1.936-7.502 2.157-15.344.647-22.943l-13.475-67.798c-.38-1.914 1.084-3.698 3.035-3.698h128.627c1.951 0 3.416 1.784 3.035 3.698l-13.475 67.798c-1.51 7.599-1.289 15.441.647 22.943l12.566 48.691c.504 1.959-.975 3.868-2.998 3.868z" fill="#fe7701"/></g><g><path d="m223.015 294.256 12.566-48.691c1.936-7.502 2.157-15.344.647-22.943l-13.475-67.798c-.381-1.914 1.084-3.698 3.035-3.698h-34.1c-1.951 0-3.416 1.784-3.035 3.698l13.475 67.798c1.51 7.599 1.289 15.441-.647 22.943l-12.566 48.691c-.506 1.959.973 3.868 2.997 3.868h34.1c-2.024 0-3.503-1.909-2.997-3.868z" fill="#f46700"/></g><path d="m258.167 138.584h-4.334c-4.725 0-9.265-.8-13.504-2.252v18.305c0 8.6 6.972 15.572 15.572 15.572h.198c8.6 0 15.572-6.972 15.572-15.572v-18.305c-4.239 1.452-8.779 2.252-13.504 2.252z" fill="#f6a96c"/><g><g><path d="m212.043 96.795v-26.584h-10.097c-9.383 0-16.989 7.606-16.989 16.989s7.606 16.989 16.989 16.989h10.765c-.43-2.402-.668-4.87-.668-7.394z" fill="#f6a96c"/><path d="m310.054 70.211h-10.097v26.584c0 2.524-.238 4.992-.668 7.394h10.765c9.383 0 16.989-7.606 16.989-16.989s-7.606-16.989-16.989-16.989z" fill="#ffbd86"/></g><g><path d="m282.721 45.963-67.569 14.045c-2.393.497-4.108 2.606-4.108 5.05v31.736c0 23.632 19.158 42.79 42.79 42.79h4.334c23.632 0 42.79-19.158 42.79-42.79v-35.931c0-5.349-2.714-10.064-6.841-12.843-3.323-2.238-7.475-2.872-11.396-2.057z" fill="#fed2a4"/></g><g><g><path d="m236.713 96.795v-41.268l-21.562 4.482c-2.393.497-4.108 2.606-4.108 5.05v31.736c0 23.632 19.158 42.79 42.79 42.79h4.334c3.683 0 7.258-.466 10.668-1.341-18.47-4.741-32.122-21.501-32.122-41.449z" fill="#ffbd86"/></g></g><g fill="#bb5d4c"><path d="m240.806 83.558v-8.253c0-4.143-3.357-7.5-7.5-7.5s-7.5 3.357-7.5 7.5v8.253c0 4.143 3.357 7.5 7.5 7.5s7.5-3.358 7.5-7.5z"/><path d="m278.694 67.805c-4.143 0-7.5 3.357-7.5 7.5v8.253c0 4.143 3.357 7.5 7.5 7.5s7.5-3.357 7.5-7.5v-8.253c0-4.143-3.357-7.5-7.5-7.5z"/><path d="m245.399 96.469 6.189 4.501c1.332.969 2.875 1.436 4.405 1.436 2.317-.001 4.604-1.072 6.071-3.09 2.411-3.314 1.711-7.941-1.549-10.398l1.381-1.758c2.559-3.258 1.993-7.973-1.264-10.531s-7.972-1.993-10.531 1.264l-6.189 7.878c-1.259 1.603-1.812 3.647-1.531 5.666.281 2.016 1.371 3.834 3.018 5.032z"/><path d="m264.556 106.55c-2.288 2.289-5.326 3.549-8.556 3.549s-6.268-1.26-8.556-3.549c-2.93-2.928-7.678-2.928-10.607 0-2.929 2.93-2.929 7.678 0 10.607 5.122 5.121 11.927 7.941 19.163 7.941s14.041-2.82 19.163-7.941c2.929-2.93 2.929-7.678 0-10.607-2.93-2.928-7.678-2.928-10.607 0z"/></g></g></g><g><path d="m475.725 512h-439.45c-4.143 0-7.5-3.357-7.5-7.5s3.357-7.5 7.5-7.5h439.449c4.143 0 7.5 3.357 7.5 7.5s-3.357 7.5-7.499 7.5z" fill="#81b823"/></g></g></g></svg>