<svg id="Capa_1" enable-background="new 0 0 512 512" height="512" viewBox="0 0 512 512" width="512" xmlns="http://www.w3.org/2000/svg"><g><path d="m504.229 147.95h-496.458l-7.771 1v312.56c0 6.147 4.983 11.13 11.13 11.13h32.782l1-.663v-84.859l-.261-.286c-5.64-6.196-8.745-14.184-8.745-22.492v-10.817c0-6.554 1.918-12.914 5.547-18.396 2.546-3.845 2.546-8.812 0-12.657-3.629-5.48-5.547-11.841-5.547-18.396v-19.573c0-18.479 15.033-33.512 33.512-33.512h5.011l.018-.981c.042-2.299 1.942-4.169 4.237-4.169h149.543c2.295 0 4.195 1.87 4.237 4.169l.018.981h5.011c18.479 0 33.512 15.033 33.512 33.512v19.573c0 6.555-1.918 12.915-5.547 18.396-2.546 3.845-2.546 8.812 0 12.657 3.629 5.481 5.547 11.842 5.547 18.396v10.817c0 8.309-3.105 16.296-8.745 22.492l-.261.286v84.876l1 .645h237.872c6.147 0 11.13-4.983 11.13-11.13v-312.559z" fill="#dff6fd"/><path d="m43.912 468.114c-1.369-1.848-2.19-4.127-2.19-6.604v-76.671c-4.273-5.741-6.816-12.833-6.816-20.498v-10.817c0-6.986 2.107-13.501 5.713-18.948.472-.712.822-1.471 1.103-2.247v-7.06c-.281-.776-.631-1.535-1.103-2.247-3.606-5.447-5.713-11.962-5.713-18.948v-19.573c0-7.672 2.539-14.779 6.816-20.526v-115.025h-41.722v312.56c0 6.147 4.983 11.13 11.13 11.13h32.782z" fill="#c8effe"/><g><path d="m500.87 91.212h-489.74c-6.147 0-11.13 4.983-11.13 11.13v46.608h512v-46.608c0-6.147-4.983-11.13-11.13-11.13z" fill="#01d0fb"/></g><g><path d="m52.853 91.212h-41.723c-6.147 0-11.13 4.983-11.13 11.13v46.608h41.722v-46.608c0-6.147 4.984-11.13 11.131-11.13z" fill="#01c0fa"/></g><g><g fill="#fed2a4"><path d="m83.674 472.641v-107.423l-.671-1.22c-5.604-10.185-8.566-21.714-8.566-33.339v-80.573c0-.033.009-.063.01-.095h-5.029c-18.981 0-34.511 15.53-34.511 34.511v19.573c0 6.986 2.107 13.501 5.713 18.948 2.334 3.525 2.334 8.028 0 11.553-3.606 5.447-5.713 11.962-5.713 18.948v10.817c0 8.899 3.422 17.031 9.006 23.166v85.134z"/><path d="m272.004 304.075v-19.573c0-18.981-15.53-34.511-34.511-34.511h-5.029c.001.032.01.063.01.095v78.956c0 12.667-3.478 25.086-10.056 35.913l-.146.239v107.446h40.725v-85.134c5.584-6.135 9.006-14.266 9.006-23.166v-10.817c0-6.986-2.107-13.501-5.713-18.948-2.334-3.525-2.334-8.028 0-11.553 3.607-5.446 5.714-11.961 5.714-18.947z"/></g><path d="m73.437 252.594v-2.508c0-.033.009-.063.01-.095h-4.029c-18.981 0-34.511 15.53-34.511 34.511v19.573c0 6.985 2.106 13.501 5.713 18.948 2.334 3.525 2.334 8.028 0 11.553-3.607 5.447-5.713 11.962-5.713 18.948v10.817c0 8.899 3.421 17.031 9.006 23.166v85.134h17.117v-85.134c-5.584-6.135-9.006-14.266-9.006-23.166v-10.817c0-6.985 2.106-13.5 5.713-18.948 2.334-3.525 2.334-8.028 0-11.553-3.607-5.447-5.713-11.962-5.713-18.948v-19.573c0-14.35 8.879-26.722 21.413-31.908z" fill="#ffbd86"/><g><g><path d="m228.227 244.84h-149.544c-2.897 0-5.246 2.349-5.246 5.246v80.573c0 11.826 2.989 23.46 8.69 33.821l.547.994v107.166h140.599v-107.166c6.672-10.981 10.201-23.583 10.201-36.432v-78.956c-.001-2.897-2.35-5.246-5.247-5.246z" fill="#54469c"/></g><g><path d="m117.016 364.48c-5.701-10.361-8.69-21.995-8.69-33.821v-80.573c0-2.898 2.349-5.246 5.246-5.246h-34.889c-2.898 0-5.246 2.349-5.246 5.246v80.573c0 11.826 2.989 23.46 8.69 33.821l.547.994v107.166h34.889v-107.166z" fill="#463b84"/></g><path d="m169.834 228.205h-32.758c-1.782 0-3.534-.129-5.255-.354v28.071c0 11.948 9.686 21.634 21.634 21.634 11.948 0 21.634-9.686 21.634-21.634v-28.071c-1.722.225-3.473.354-5.255.354z" fill="#ffbd86"/><g><path d="m148.861 255.922v-26.717h-11.785c-1.782 0-3.533-.126-5.255-.345v27.062c0 11.948 9.686 21.634 21.634 21.634 3.026 0 5.905-.626 8.52-1.748-7.71-3.308-13.114-10.964-13.114-19.886z" fill="#f6a96c"/></g><g><path d="m84.216 141.344h12.652v-9.824c0-7.969 6.483-14.452 14.453-14.452h84.268c7.969 0 14.452 6.483 14.452 14.452v9.824h12.653c4.194 0 8.096 1.26 11.364 3.407v-24.788c0-44.516-36.087-80.603-80.603-80.603-44.516 0-80.603 36.087-80.603 80.603v24.788c3.268-2.148 7.169-3.407 11.364-3.407z" fill="#fe860a"/><g><path d="m175.243 42.364c-6.933-1.943-14.234-3.004-21.788-3.004-44.516 0-80.603 36.087-80.603 80.603v29.07h43.576v-29.07c-.001-36.963 24.888-68.092 58.815-77.599z" fill="#fe7701"/></g><g fill="#f46700"><path d="m159.343 117.067h21.215l-31.028-31.028c-2.93-2.928-7.678-2.928-10.607 0-2.929 2.93-2.929 7.678 0 10.607z"/><path d="m124.833 117.067h21.213l-31.029-31.028c-2.928-2.928-7.677-2.929-10.606.001-2.929 2.929-2.929 7.678.001 10.606z"/></g><g><path d="m96.868 140.343h-12.652c-12.018 0-21.761 9.743-21.761 21.761s9.743 21.761 21.761 21.761h12.653v-43.522z" fill="#f6a96c"/><path d="m222.694 140.343h-12.653v43.522h12.653c12.018 0 21.761-9.743 21.761-21.761s-9.742-21.761-21.761-21.761z" fill="#ffbd86"/></g><g><path d="m95.869 131.52v56.478c0 22.758 18.449 41.207 41.207 41.207h32.758c22.758 0 41.207-18.449 41.207-41.207v-56.478c0-8.534-6.918-15.453-15.453-15.453h-84.267c-8.534 0-15.452 6.919-15.452 15.453z" fill="#fed2a4"/></g><g><path d="m126.197 187.998v-56.478c0-8.534 6.918-15.453 15.453-15.453h-30.328c-8.534 0-15.453 6.918-15.453 15.453v56.478c0 22.758 18.449 41.207 41.207 41.207h30.328c-22.758 0-41.207-18.449-41.207-41.207z" fill="#ffbd86"/></g><g fill="#bb5d4c"><path d="m131.885 153.475v-10.571c0-4.143-3.357-7.5-7.5-7.5s-7.5 3.357-7.5 7.5v10.571c0 4.143 3.357 7.5 7.5 7.5s7.5-3.358 7.5-7.5z"/><path d="m182.524 135.403c-4.143 0-7.5 3.357-7.5 7.5v10.571c0 4.143 3.357 7.5 7.5 7.5s7.5-3.357 7.5-7.5v-10.571c0-4.142-3.357-7.5-7.5-7.5z"/><path d="m141.115 172.273 7.929 5.766c1.332.969 2.875 1.436 4.405 1.436 2.318 0 4.604-1.071 6.071-3.09 2.437-3.351 1.695-8.041-1.654-10.477l-1.633-1.188 3.119-3.97c2.559-3.257 1.993-7.972-1.264-10.531-3.257-2.558-7.973-1.995-10.531 1.264l-7.929 10.091c-1.259 1.603-1.812 3.647-1.531 5.666.281 2.018 1.371 3.835 3.018 5.033z"/><path d="m165.904 188.381c-6.863 6.865-18.035 6.865-24.898 0-2.93-2.928-7.678-2.928-10.607 0-2.929 2.93-2.929 7.678 0 10.607 6.357 6.356 14.707 9.534 23.057 9.534s16.699-3.178 23.057-9.534c2.929-2.93 2.929-7.678 0-10.607-2.931-2.928-7.679-2.928-10.609 0z"/></g></g></g></g><g><g><path d="m456.091 234.032h-166.268c-14.833 0-26.97-12.136-26.97-26.97 0-14.833 12.136-26.97 26.97-26.97h166.268c14.833 0 26.97 12.136 26.97 26.97 0 14.834-12.137 26.97-26.97 26.97z" fill="#fff"/></g><g><path d="m308.539 207.062c0-14.834 12.136-26.97 26.97-26.97h-45.686c-14.834 0-26.97 12.136-26.97 26.97 0 14.833 12.136 26.97 26.97 26.97h45.686c-14.833 0-26.97-12.136-26.97-26.97z" fill="#f2fbff"/></g><g fill="#a2e62e"><path d="m408.467 199.563h-116.85c-4.143 0-7.5 3.357-7.5 7.5s3.357 7.5 7.5 7.5h116.85c4.143 0 7.5-3.357 7.5-7.5s-3.358-7.5-7.5-7.5z"/><circle cx="428.55" cy="207.06" r="7.5"/><circle cx="448.64" cy="207.06" r="7.5"/></g></g><g><g><path d="m469.704 274.41h-153.953c-4.143 0-7.5-3.357-7.5-7.5s3.357-7.5 7.5-7.5h153.953c4.143 0 7.5 3.357 7.5 7.5s-3.357 7.5-7.5 7.5z" fill="#62dbfb"/></g><g><path d="m469.704 305.575h-35.482c-4.143 0-7.5-3.357-7.5-7.5s3.357-7.5 7.5-7.5h35.482c4.143 0 7.5 3.357 7.5 7.5s-3.357 7.5-7.5 7.5z" fill="#62dbfb"/></g><g><path d="m408.467 305.575h-92.716c-4.143 0-7.5-3.357-7.5-7.5s3.357-7.5 7.5-7.5h92.716c4.143 0 7.5 3.357 7.5 7.5s-3.358 7.5-7.5 7.5z" fill="#62dbfb"/></g><g><path d="m469.704 336.74h-153.953c-4.143 0-7.5-3.357-7.5-7.5s3.357-7.5 7.5-7.5h153.953c4.143 0 7.5 3.357 7.5 7.5s-3.357 7.5-7.5 7.5z" fill="#62dbfb"/></g></g><g><g><path d="m361.584 375.486h-45.833c-4.143 0-7.5-3.357-7.5-7.5s3.357-7.5 7.5-7.5h45.833c4.143 0 7.5 3.357 7.5 7.5s-3.357 7.5-7.5 7.5z" fill="#62dbfb"/></g><g><path d="m361.584 406.651h-45.833c-4.143 0-7.5-3.357-7.5-7.5s3.357-7.5 7.5-7.5h45.833c4.143 0 7.5 3.357 7.5 7.5s-3.357 7.5-7.5 7.5z" fill="#62dbfb"/></g><g><path d="m361.584 437.816h-45.833c-4.143 0-7.5-3.357-7.5-7.5s3.357-7.5 7.5-7.5h45.833c4.143 0 7.5 3.357 7.5 7.5s-3.357 7.5-7.5 7.5z" fill="#62dbfb"/></g></g><g><path d="m434.895 371.521-3.558 3.558-3.557-3.558c-7.963-7.963-20.874-7.963-28.837 0-7.963 7.963-7.963 20.874 0 28.837l32.395 32.395 32.395-32.395c7.963-7.963 7.963-20.874 0-28.837-7.964-7.963-20.875-7.963-28.838 0z" fill="#fd4755"/></g><g><path d="m420.119 389.464c-6.406-6.406-7.648-16.011-3.747-23.67-6.171-.917-12.68.976-17.43 5.727-7.963 7.963-7.963 20.874 0 28.837l32.395 32.395 16.035-16.035z" fill="#fb2b3a"/></g><g><path d="m486.4 126.538h-22.262c-4.143 0-7.5-3.357-7.5-7.5s3.357-7.5 7.5-7.5h22.262c4.143 0 7.5 3.357 7.5 7.5s-3.357 7.5-7.5 7.5z" fill="#99e6fc"/></g></g></svg>