<svg id="Capa_1" enable-background="new 0 0 512 512" height="512" viewBox="0 0 512 512" width="512" xmlns="http://www.w3.org/2000/svg"><g><g><path d="m275.458 188.341h80.549l25.149-25.149c2.04-2.04 4.752-3.163 7.637-3.163 2.96 0 5.723 1.175 7.78 3.309 4.056 4.207 3.869 11.119-.419 15.406l-4.744 4.743h13.931c4.159 0 7.891 1.82 10.475 4.693.008-.203.031-.402.031-.606v-14.511c0-8.342-6.762-15.104-15.104-15.104h-11.516l3.036-3.037c4.594-4.594 4.941-12.13.431-16.808-4.594-4.766-12.183-4.818-16.843-.158l-24.856 24.856h-75.536v25.529z" fill="#ffbd86"/><path d="m232.375 175.687c1.138 1.894 2.135 3.842 3.018 5.825h41.064v-20.453c0-2.803-2.272-5.075-5.076-5.075h-59.904c8.577 4.443 15.779 11.181 20.898 19.703z" fill="#d7aa02"/><g><path d="m261.68 84.172-14.511-20.039c-1.125-1.554-1.731-3.423-1.731-5.341v-21.644l-3.899-1.016h-61.122c-2.393 0-4.45 1.695-4.908 4.044l-2.947 15.13h-7.04c-8.046 0-14.569 6.523-14.569 14.569v8.842c0 6.786 4.62 12.578 11.126 14.144l-4.048 20.536.73 1.546 1.003 8.367c.389 3.245.154 6.533-.692 9.69l-2.474 9.233c.408-.137.841-.214 1.289-.214.307 0 .616.036.918.106l38.839 8.97 6.129-22.874h2.046c20.382 0 37.158-15.393 39.361-35.187.202-1.813 1.779-3.16 3.603-3.16h9.985c2.935.001 4.633-3.325 2.912-5.702z" fill="#fed2a4"/></g><g><path d="m215.479 86.59c-4.142 0-7.5-3.357-7.5-7.5v-13.182c0-4.143 3.358-7.5 7.5-7.5s7.5 3.357 7.5 7.5v13.182c0 4.142-3.357 7.5-7.5 7.5z" fill="#bb5d4c"/></g><g><path d="m253.384 0h-76.095c-27.221 0-49.289 22.067-49.289 49.289v36.991c0 15.884 14.823 28.933 30.706 28.933l4.562-23.143c-6.411-1.075-11.302-6.635-11.302-13.352v-8.842c0-7.486 6.068-13.554 13.554-13.554h7.876l2.947-15.129c.458-2.349 2.515-4.044 4.908-4.044h64.185l12.627-30.11c1.404-3.345-1.052-7.039-4.679-7.039z" fill="#fe7701"/></g><g><path d="m153.476 86.28v-1.373c-.958-1.855-1.508-3.955-1.508-6.189v-8.842c0-2.235.55-4.337 1.508-6.196v-14.391c0-27.222 22.067-49.289 49.288-49.289h-25.475c-27.221 0-49.289 22.067-49.289 49.289v36.991c0 15.884 14.823 28.933 30.706 28.933l2.092-10.61c-4.5-5.003-7.322-11.393-7.322-18.323z" fill="#f46700"/></g><path d="m237.771 441.602v-43.555h-33.356v42.554l1.918 1.001z" fill="#fed2a4"/><g><path d="m237.771 469.55v-28.949h-33.356v27.949l4.211 1z" fill="#dff6fd"/></g><path d="m204.415 468.55h33.355v29.45h-33.355z" fill="#01d0fb"/><path d="m272.72 321.154h-14.38l-1 3.612v69.205c0 2.247-1.828 4.075-4.075 4.075h-16.218l-.277 1v42.555h51.144l2.781-1v-101.472c.001-9.927-8.047-17.975-17.975-17.975z" fill="#fed2a4"/><g><path d="m258.34 321.154v72.817c0 2.803-2.272 5.076-5.076 5.076h-16.494v41.555h26.21v-119.448z" fill="#ffbd86"/></g><path d="m290.696 469.55v-28.949h-53.926v27.949l3.278 1z" fill="#dff6fd"/><path d="m236.77 440.601h26.21v27.949h-26.21z" fill="#c8effe"/><path d="m212.603 322.154 1.567-1 19.789-82.768h-34.647c-15.681 0-28.438-12.757-28.438-28.438s12.757-28.438 28.438-28.438h37.169c-6.569-15.131-19.963-27.099-37.336-31.111l-40.11-9.265c-2.694-.622-5.391 1.026-6.065 3.708l-37.886 150.738c-2.118 8.427-3.714 16.967-4.787 25.573l1.331 1h100.975z" fill="#fac600"/><g><path d="m144.5 321.154c1.073-8.605 2.669-17.146 4.787-25.573l37.223-148.1-27.475-6.346c-2.694-.622-5.391 1.026-6.065 3.708l-37.886 150.738c-2.118 8.427-3.713 16.967-4.787 25.573z" fill="#e8b800"/></g><path d="m320.654 498v-5.483c0-13.236-10.73-23.967-23.967-23.967h-59.917v29.45z" fill="#01d0fb"/><path d="m236.77 468.55h26.21v29.45h-26.21z" fill="#01c0fa"/><g><path d="m466.907 512h-421.814c-4.142 0-7.5-3.357-7.5-7.5s3.358-7.5 7.5-7.5h421.814c4.142 0 7.5 3.357 7.5 7.5s-3.358 7.5-7.5 7.5z" fill="#8bc727"/></g><g><path d="m214.17 321.154h-103.873c-1.09 8.739-1.641 17.545-1.641 26.368v9.582c0 23.164 18.778 41.942 41.942 41.942h102.667c2.803 0 5.075-2.272 5.075-5.075v-72.816h-44.17z" fill="#54469c"/></g><g><path d="m142.859 357.104v-9.582c0-8.824.551-17.629 1.641-26.368h-34.203c-1.09 8.739-1.641 17.545-1.641 26.368v9.582c0 23.164 18.778 41.942 41.942 41.942h34.203c-23.164 0-41.942-18.778-41.942-41.942z" fill="#463b84"/></g><path d="m405.34 182.486h-11.516l3.036-3.036c4.594-4.594 4.941-12.13.431-16.808-4.594-4.765-12.183-4.818-16.843-.157l-24.856 24.856h-80.135v35.011h79.939c4.746 0 9.473.999 13.688 3.18 2.066 1.069 4.41 1.675 6.899 1.675h29.357c8.342 0 15.104-6.762 15.104-15.104v-14.511c.001-8.343-6.762-15.106-15.104-15.106z" fill="#fed2a4"/><path d="m420.393 196.559c-.533 7.858-7.059 14.073-15.052 14.073h-29.357c-2.488 0-4.832-.605-6.899-1.675-4.215-2.181-8.942-3.18-13.688-3.18h-79.939v16.575h79.939c4.746 0 9.473.999 13.688 3.18 2.066 1.069 4.41 1.675 6.899 1.675h29.357c8.342 0 15.104-6.762 15.104-15.104v-14.511c0-.35-.029-.691-.052-1.033z" fill="#ffbd86"/><g><path d="m199.311 239.387h72.071c2.803 0 5.075-2.272 5.075-5.075v-53.8h-77.147c-16.258 0-29.438 13.18-29.438 29.438.001 16.257 13.181 29.437 29.439 29.437z" fill="#e8b800"/></g><g><path d="m195.095 209.949c0-16.258 13.18-29.438 29.438-29.438h-25.221c-16.258 0-29.438 13.18-29.438 29.438 0 16.258 13.18 29.438 29.438 29.438h25.221c-16.259 0-29.438-13.18-29.438-29.438z" fill="#d7aa02"/></g></g></g></svg>