<svg id="Capa_1" enable-background="new 0 0 512 512" height="512" viewBox="0 0 512 512" width="512" xmlns="http://www.w3.org/2000/svg"><g><g><g><path d="m482.996 256.01h-71.41c-19.962.227-38.275 7.28-52.748 18.916-1.077.866-2.605.929-3.697.083-13.872-10.75-31.221-17.175-49.949-17.198-30.545-.036-57.182 16.647-71.31 41.395-1.008 1.765-3.396 2.055-4.806.591-14.986-15.562-38.509-25.592-64.964-25.592-10.884 0-21.26 1.716-30.762 4.797l-9.56-50.347c-.536-2.823-.596-5.716-.177-8.56l11.78-79.928c-10.806-21.118-13.374-45.158-7.19-68.238 6.789-25.337 23.446-46.021 45.133-58.385l-27.196-4.647c-12.728-2.175-25.721 1.944-34.872 11.055-12.318 12.265-19.029 29.071-18.546 46.448l.991 35.679c.089 3.191-.474 6.367-1.654 9.334l-76.637 192.726c-4.6 10.836-.47 23.403 9.66 29.399l45.782 27.096c15.89 9.404 33.163 16.243 51.184 20.264l172.87 38.575c10.216 2.28 20.851 2.254 30.976-.399 9.494-2.488 18.304-6.653 26.127-12.13-3.685 12.749-4.431 27.218-1.483 42.02 7.64 38.351 37.261 65.216 67.847 62.898h64.61c8.534 0 15.453-6.919 15.453-15.453v-224.946c.001-8.535-6.917-15.453-15.452-15.453z" fill="#fed2a4"/><path d="m47.711 327.231 81.229-203.081c-5.08-16.842-5.403-34.805-.736-52.222 6.789-25.337 23.446-46.021 45.133-58.385l-27.206-4.649c-12.739-2.177-25.744 1.955-34.891 11.085l-.028.028c-12.284 12.262-18.972 29.044-18.49 46.393l.991 35.679c.089 3.192-.474 6.367-1.654 9.334l-76.637 192.726c-4.6 10.836-.47 23.403 9.66 29.399l23.524 13.922c-3.236-6.081-3.756-13.489-.895-20.229z" fill="#ffbd86"/><g><g><circle cx="220.608" cy="96.688" fill="#54469c" r="96.664"/></g><g><path d="m221.559 190.058c-51.567-13.817-82.169-66.822-68.352-118.389 10.387-38.766 42.921-65.681 80.341-70.786-47.522-6.48-93.572 23.243-106.311 70.786-13.817 51.567 16.785 104.571 68.352 118.389 12.801 3.43 25.691 4.12 38.048 2.434-4.021-.548-8.054-1.355-12.078-2.434z" fill="#463b84"/></g><g><circle cx="220.608" cy="96.688" fill="#c2bce0" r="51.365"/></g><g><path d="m224.294 146.303c-27.402-7.342-43.663-35.508-36.321-62.909 5.373-20.053 21.903-34.126 41.12-37.361-25.814-4.355-51.187 11.561-58.1 37.361-7.342 27.402 8.919 55.567 36.321 62.909 7.348 1.969 14.747 2.226 21.789 1.041-1.603-.271-3.207-.612-4.809-1.041z" fill="#aca6d6"/></g><g><circle cx="220.608" cy="96.688" fill="#fff" r="18.579"/></g><g><path d="m219.551 91.879c1.418-5.294 4.995-9.419 9.521-11.727-1.145-.585-2.363-1.064-3.655-1.41-9.911-2.656-20.099 3.226-22.754 13.137-2.656 9.911 3.226 20.099 13.137 22.754 4.618 1.237 9.285.603 13.233-1.41-7.64-3.901-11.792-12.724-9.482-21.344z" fill="#f2fbff"/></g></g></g></g><path d="m498.449 308.238h-110.492c-4.142 0-7.5 3.357-7.5 7.5s3.358 7.5 7.5 7.5h110.493v-15z" fill="#ffbd86"/></g></svg>