<svg id="Capa_1" enable-background="new 0 0 512 512" height="512" viewBox="0 0 512 512" width="512" xmlns="http://www.w3.org/2000/svg"><g><g><path d="m436.083 74.448-165.912-35.322c-9.142-3.395-19.2-3.395-28.343 0l-165.911 35.322c-18.964 7.043-26.536 27.545-26.536 46.722v48.468c0 24.977 9.595 47.707 25.288 64.729l47.747 221.771c2.422 11.249 12.368 19.282 23.875 19.282h219.42c11.507 0 21.453-8.032 23.875-19.282l47.821-222.113c15.654-17.078 25.214-39.835 25.214-64.828v-48.027c-.002-20.805-7.574-39.678-26.538-46.722z" fill="#ffe5c2"/></g><path d="m366.642 265.176h-48.913c-13.47 0-26.534-4.606-37.025-13.054l-7.883-6.348c-5.894-4.746-9.321-11.905-9.321-19.472v-73.542c0-4.107-3.164-7.688-7.269-7.811-4.247-.128-7.731 3.277-7.731 7.497v73.856c0 7.567-3.427 14.726-9.321 19.472l-7.883 6.348c-10.491 8.448-23.555 13.054-37.025 13.054h-49.354c-27.781 0-52.789-11.862-70.245-30.792l47.744 221.756c2.422 11.249 12.368 19.281 23.875 19.281h219.42c11.507 0 21.453-8.032 23.875-19.281l47.819-222.104c-17.548 19.138-42.753 31.14-70.763 31.14z" fill="#fed2a4"/><g><g><path d="m164.744 456.139-41.655-193.477c-18.92-4.424-35.679-14.466-48.416-28.278l47.744 221.756c2.422 11.249 12.368 19.281 23.875 19.281h42.328c-11.509 0-21.455-8.033-23.876-19.282z" fill="#ffbd86"/></g></g><g><g><path d="m74.672 234.384c13.064 14.167 30.357 24.373 49.875 28.613l-6.164-28.629c-15.693-17.022-25.288-39.751-25.288-64.729v-65.445c0-12.817 3.389-26.22 11.295-35.807l-28.474 6.062c-18.964 7.043-26.536 27.545-26.536 46.722v48.468c0 24.977 9.595 47.707 25.288 64.729z" fill="#fed2a4"/></g></g><g><path d="m334.322 308.513v-7.253c0-4.143-3.357-7.5-7.5-7.5s-7.5 3.357-7.5 7.5v7.253c0 18.309-14.895 33.203-33.202 33.203h-22.62v-64.876c0-4.143-3.357-7.5-7.5-7.5-4.142 0-7.5 3.357-7.5 7.5v64.877h-22.62c-18.308 0-33.202-14.895-33.202-33.203v-7.253c0-4.143-3.358-7.5-7.5-7.5s-7.5 3.357-7.5 7.5v7.253c0 15.491 7.354 29.29 18.744 38.114-11.187 6.416-18.744 18.47-18.744 32.265 0 12.11 5.823 22.884 14.813 29.676-8.991 6.792-14.813 17.565-14.813 29.676 0 20.499 16.677 37.177 37.176 37.177h82.292c20.499 0 37.177-16.678 37.177-37.177 0-12.11-5.823-22.884-14.814-29.676 8.991-6.792 14.814-17.565 14.814-29.676 0-13.794-7.558-25.849-18.745-32.264 11.391-8.826 18.744-22.624 18.744-38.116zm-141.644 70.379c0-12.228 9.948-22.176 22.176-22.176h11.026 22.62v44.352h-33.646c-12.228 0-22.176-9.948-22.176-22.176zm0 59.352c0-12.228 9.948-22.176 22.176-22.176h33.646v44.353h-33.646c-12.228 0-22.176-9.949-22.176-22.177zm126.644 0c0 12.229-9.948 22.177-22.177 22.177h-33.645v-44.353h33.646c12.228 0 22.176 9.948 22.176 22.176zm-22.176-81.527c12.229 0 22.177 9.948 22.177 22.176s-9.948 22.176-22.177 22.176h-33.646v-44.352h22.62z" fill="#ffbd86"/></g><g><g><path d="m223.438 114.771h-60.239c-10.682 0-20.78-5.192-27.012-13.889-2.413-3.367-7.097-4.143-10.465-1.729-3.367 2.413-4.141 7.099-1.728 10.465 9.042 12.619 23.698 20.152 39.204 20.152h60.239c4.142 0 7.5-3.357 7.5-7.5s-3.357-7.499-7.499-7.499z" fill="#fed2a4"/></g><g><path d="m386.277 99.153c-3.367-2.412-8.052-1.64-10.465 1.729-6.231 8.696-16.33 13.889-27.012 13.889h-60.239c-4.143 0-7.5 3.357-7.5 7.5s3.357 7.5 7.5 7.5h60.239c15.507 0 30.163-7.533 39.205-20.152 2.413-3.367 1.64-8.053-1.728-10.466z" fill="#fed2a4"/></g></g><g><g><path d="m92.46 408.404 55.535-41.43c2.761-2.06 2.761-6.197 0-8.257l-55.535-41.43c-3.397-2.534-8.231-.11-8.231 4.129v17.721c0 2.845-2.306 5.151-5.151 5.151h-73.927c-2.845 0-5.151 2.306-5.151 5.151v26.815c0 2.845 2.306 5.151 5.151 5.151h73.927c2.845 0 5.151 2.306 5.151 5.151v17.721c0 4.237 4.834 6.662 8.231 4.127z" fill="#62dbfb"/></g><g><g><path d="m34.852 376.253v-26.815c0-2.845 2.306-5.151 5.151-5.151h-34.852c-2.845 0-5.151 2.306-5.151 5.151v26.815c0 2.845 2.306 5.151 5.151 5.151h34.852c-2.845 0-5.151-2.306-5.151-5.151z" fill="#01d0fb"/></g></g><g><path d="m419.54 317.287-55.535 41.43c-2.761 2.06-2.761 6.197 0 8.257l55.535 41.43c3.397 2.534 8.231.11 8.231-4.129v-17.721c0-2.845 2.306-5.151 5.151-5.151h73.927c2.845 0 5.151-2.306 5.151-5.151v-26.815c0-2.845-2.306-5.151-5.151-5.151h-73.927c-2.845 0-5.151-2.306-5.151-5.151v-17.721c0-4.237-4.834-6.661-8.231-4.127z" fill="#62dbfb"/></g><g><g><path d="m381.003 349.522c-.801-.598-1.363-1.373-1.699-2.219l-15.299 11.414c-2.761 2.06-2.761 6.197 0 8.257l55.534 41.43c3.397 2.534 8.231.11 8.231-4.129v-17.721c0-.662.136-1.29.363-1.872z" fill="#01d0fb"/></g></g></g></g></svg>