<svg id="Capa_1" enable-background="new 0 0 512 512" height="512" viewBox="0 0 512 512" width="512" xmlns="http://www.w3.org/2000/svg"><g><g><g><g><path d="m512 199.736c0-45.792-37.122-82.914-82.914-82.914h-122.964c-2.389 0-4.444-1.69-4.906-4.033l-7.527-38.193c-.65-3.296-3.54-5.673-6.9-5.673h-61.579c-3.36 0-6.25 2.376-6.9 5.673l-7.527 38.193c-.462 2.344-2.517 4.033-4.906 4.033h-122.963c-45.792 0-82.914 37.122-82.914 82.914v76.849c0 10.299 3.864 19.692 10.214 26.822-6.365 7.484-10.214 17.175-10.214 27.77v106.749c0 2.845 2.306 5.151 5.151 5.151h75.5c2.845 0 5.151-2.306 5.151-5.151v-161.341c0-2.245.187-4.446.54-6.591 2.909 17.845 11.793 33.68 24.543 45.378l4.652 5.214c13.923 10.714 30.964 16.548 48.688 16.548h40.775c11.316 0 22.402-3.909 31.217-11.006l19.783-15.93 19.782 15.93c8.814 7.097 19.9 11.006 31.217 11.006h40.411c17.873 0 35.043-5.904 49.057-16.744l4.721-5.297c12.675-11.707 21.514-27.495 24.442-45.28.373 2.202.567 4.464.567 6.772v161.341c0 2.845 2.306 5.151 5.151 5.151h75.5c2.845 0 5.151-2.306 5.151-5.151v-106.749c0-10.595-3.849-20.286-10.214-27.771 6.35-7.13 10.214-16.523 10.214-26.822v-76.848z" fill="#ffe5c2"/></g><g fill="#fed2a4"><path d="m347.41 336.134h-40.411c-11.128 0-21.922-3.806-30.589-10.785l-20.41-16.435-20.409 16.435c-8.667 6.979-19.461 10.785-30.589 10.785h-40.775c-20.568 0-39.292-7.873-53.34-20.761l32.838 123.874c.599 2.258 2.642 3.831 4.979 3.831h214.595c2.336 0 4.38-1.573 4.979-3.831l32.912-124.153c-14.136 13.054-33.022 21.04-53.78 21.04z"/><path d="m263.5 206.491c0-4.143-3.357-7.5-7.5-7.5s-7.5 3.357-7.5 7.5v108.463l7.5-6.039 7.5 6.039z"/></g><path d="m451.437 437.926v-161.341c0-4.242-3.417-9.679-7.611-14.977h-17.629v176.318c0 2.845 2.306 5.151 5.151 5.151h25.239c-2.844 0-5.15-2.306-5.15-5.151z" fill="#fed2a4"/><path d="m177.205 439.246-27.704-104.505c-14.725-2.78-28.006-9.635-38.615-19.369l32.838 123.874c.599 2.258 2.642 3.831 4.979 3.831h33.48c-2.336-.001-4.38-1.573-4.978-3.831z" fill="#ffbd86"/><g><path d="m33.481 437.926v-106.748c0-9.225 2.918-17.765 7.874-24.759 1.271-1.794 1.243-4.202-.059-5.974-4.91-6.683-7.814-14.93-7.814-23.859v-76.849c0-45.792 37.122-82.914 82.914-82.914h-33.482c-45.792-.001-82.914 37.121-82.914 82.913v76.849c0 10.299 3.864 19.691 10.214 26.822-6.365 7.484-10.214 17.175-10.214 27.771v106.749c0 2.845 2.306 5.151 5.151 5.151h33.481c-2.845-.001-5.151-2.307-5.151-5.152z" fill="#fed2a4"/></g><g fill="#fed2a4"><path d="m117.42 232.791c1.707 0 3.091-1.384 3.091-3.09v-16.479c0-2.543 2.9-3.998 4.938-2.477l3.054 2.278c-2.553-9.322-11.08-16.175-21.212-16.175-12.148 0-21.996 9.848-21.996 21.996v13.947z"/><path d="m132.244 278.585-6.795 5.069c-2.038 1.521-4.938.066-4.938-2.477v-16.478c0-1.707-1.384-3.091-3.091-3.091h-31.996c2.286 41.542 36.689 74.525 78.802 74.525h40.775c.583 0 1.164-.017 1.744-.037-35.527-.653-65.301-24.772-74.501-57.511z"/></g><g fill="#fed2a4"><path d="m221.051 178.636-108.414-28.177c-4.014-1.042-8.104 1.364-9.146 5.372-1.042 4.009 1.363 8.104 5.372 9.146l108.414 28.177c.633.164 1.268.243 1.892.243 3.333 0 6.377-2.239 7.254-5.615 1.042-4.009-1.363-8.104-5.372-9.146z"/><path d="m408.509 155.831c-1.042-4.008-5.13-6.41-9.146-5.372l-108.414 28.177c-4.009 1.042-6.414 5.137-5.372 9.146.878 3.376 3.92 5.615 7.254 5.615.624 0 1.259-.079 1.892-.243l108.414-28.177c4.009-1.042 6.414-5.137 5.372-9.146z"/></g><path d="m263.5 443.077v-77.363c0-4.143-3.357-7.5-7.5-7.5s-7.5 3.357-7.5 7.5v77.363z" fill="#ffbd86"/></g></g><g><path d="m125.449 283.654 45.545-33.978c1.657-1.236 1.657-3.718 0-4.954l-45.545-33.978c-2.038-1.521-4.939-.066-4.939 2.477v16.479c0 1.707-1.384 3.091-3.091 3.091h-59.214c-1.707 0-3.091 1.384-3.091 3.091v22.637c0 1.707 1.384 3.091 3.091 3.091h59.215c1.707 0 3.091 1.384 3.091 3.091v16.478c-.001 2.541 2.9 3.996 4.938 2.475z" fill="#62dbfb"/><g><path d="m90.141 258.518v-22.636c0-1.707 1.384-3.091 3.091-3.091h-35.027c-1.707 0-3.091 1.384-3.091 3.091v22.636c0 1.707 1.384 3.091 3.091 3.091h35.026c-1.706-.001-3.09-1.384-3.09-3.091z" fill="#01d0fb"/></g><path d="m386.551 210.745-45.545 33.978c-1.657 1.236-1.657 3.718 0 4.954l45.545 33.978c2.038 1.521 4.939.066 4.939-2.477v-16.478c0-1.707 1.384-3.091 3.091-3.091h59.215c1.707 0 3.091-1.384 3.091-3.091v-22.637c0-1.707-1.384-3.091-3.091-3.091h-59.216c-1.707 0-3.091-1.384-3.091-3.091v-16.478c.001-2.542-2.9-3.997-4.938-2.476z" fill="#62dbfb"/><g><path d="m354.723 234.489-13.717 10.233c-1.657 1.236-1.657 3.718 0 4.954l45.545 33.978c2.038 1.521 4.939.066 4.939-2.477v-16.478c0-.83.331-1.581.864-2.136z" fill="#01d0fb"/></g></g></g></svg>