<svg id="Capa_1" enable-background="new 0 0 512 512" height="512" viewBox="0 0 512 512" width="512" xmlns="http://www.w3.org/2000/svg"><g><g><path d="m459.409 348.613h-406.818c-11.379 0-20.604-9.225-20.604-20.604v-88.067c0-11.379 9.225-20.604 20.604-20.604h406.817c11.379 0 20.604 9.225 20.604 20.604v88.067c0 11.379-9.224 20.604-20.603 20.604z" fill="#fac600"/></g><g><path d="m80.869 328.009v-88.067c0-11.379 9.225-20.604 20.604-20.604h-48.882c-11.379 0-20.604 9.225-20.604 20.604v88.067c0 11.379 9.224 20.604 20.604 20.604h48.881c-11.378 0-20.603-9.225-20.603-20.604z" fill="#e8b800"/></g><g><g><path d="m100.823 270.081h82.432v27.79h-82.432z" fill="#463b84"/><g><g><path d="m187.41 251.249h24.753c2.847 0 5.156 2.308 5.156 5.156v55.142c0 2.847-2.308 5.156-5.156 5.156h-24.753c-2.847 0-5.156-2.308-5.156-5.156v-55.142c.001-2.848 2.309-5.156 5.156-5.156z" fill="#54469c"/></g><g><path d="m71.914 251.249h24.753c2.847 0 5.156 2.308 5.156 5.156v55.142c0 2.847-2.308 5.156-5.156 5.156h-24.753c-2.847 0-5.156-2.308-5.156-5.156v-55.142c0-2.848 2.309-5.156 5.156-5.156z" fill="#54469c"/></g><g><path d="m83.96 311.547v-55.142c0-2.848 2.308-5.156 5.156-5.156h-17.202c-2.847 0-5.156 2.308-5.156 5.156v55.142c0 2.847 2.308 5.156 5.156 5.156h17.201c-2.847 0-5.155-2.309-5.155-5.156z" fill="#463b84"/></g></g></g></g><g><path d="m459.409 67.507h-256.717v70.007c0 5.135-4.177 9.312-9.312 9.312h-112.419c-5.135 0-9.312-4.177-9.312-9.312v-70.007h-19.058c-11.379 0-20.604 9.225-20.604 20.604v76.511c0 11.379 9.225 20.604 20.604 20.604h406.817c11.379 0 20.604-9.224 20.604-20.604v-76.511c0-11.38-9.224-20.604-20.603-20.604z" fill="#dff6fd"/><path d="m89.215 164.622v-16.796h-8.254c-5.695 0-10.312-4.617-10.312-10.312v-70.007h-18.058c-11.379 0-20.604 9.225-20.604 20.604v76.511c0 11.379 9.224 20.604 20.604 20.604h57.227c-11.378-.001-20.603-9.225-20.603-20.604z" fill="#c8effe"/><g><path d="m193.381 17.057h-26.591c3.642 5.562 5.769 12.201 5.769 19.331 0 19.513-15.875 35.388-35.388 35.388s-35.388-15.876-35.388-35.388c0-7.13 2.127-13.769 5.769-19.331h-26.591c-5.695 0-10.312 4.617-10.312 10.312v110.146c0 5.695 4.617 10.312 10.312 10.312h112.42c5.695 0 10.312-4.617 10.312-10.312v-110.147c0-5.695-4.617-10.311-10.312-10.311z" fill="#01d0fb"/><path d="m105.594 137.514v-85.183c-2.431-4.795-3.81-10.21-3.81-15.943 0-7.13 2.127-13.769 5.769-19.331h-26.592c-5.695 0-10.311 4.616-10.311 10.311v110.146c0 5.695 4.616 10.311 10.311 10.311h34.944c-5.695 0-10.311-4.616-10.311-10.311z" fill="#01c0fa"/><g><circle cx="137.171" cy="36.388" fill="#fff3de" r="36.388"/></g><g><path d="m126.565 36.388c0-15.556 9.765-28.826 23.497-34.03-4.008-1.519-8.351-2.358-12.891-2.358-20.097 0-36.388 16.291-36.388 36.388 0 20.096 16.291 36.388 36.388 36.388 4.54 0 8.883-.838 12.89-2.358-13.731-5.205-23.496-18.474-23.496-34.03z" fill="#ffe5c2"/></g><g><path d="m137.166 43.888c-1.627 0-3.266-.526-4.643-1.613l-10.803-8.528c-3.251-2.566-3.806-7.283-1.239-10.534s7.282-3.807 10.534-1.239l10.803 8.528c3.251 2.566 3.806 7.283 1.239 10.534-1.48 1.874-3.674 2.852-5.891 2.852z" fill="#8bc727"/></g></g><g><path d="m433.391 133.866h-115.522c-4.143 0-7.5-3.357-7.5-7.5s3.357-7.5 7.5-7.5h115.521c4.143 0 7.5 3.357 7.5 7.5s-3.357 7.5-7.499 7.5z" fill="#62dbfb"/></g><g><path d="m293.121 133.866h-39.184c-4.143 0-7.5-3.357-7.5-7.5s3.357-7.5 7.5-7.5h39.184c4.143 0 7.5 3.357 7.5 7.5s-3.357 7.5-7.5 7.5z" fill="#62dbfb"/></g></g><g><path d="m433.391 291.476h-35.092c-4.143 0-7.5-3.357-7.5-7.5s3.357-7.5 7.5-7.5h35.092c4.143 0 7.5 3.357 7.5 7.5s-3.358 7.5-7.5 7.5z" fill="#54469c"/></g><g><path d="m374.582 291.476h-120.644c-4.143 0-7.5-3.357-7.5-7.5s3.357-7.5 7.5-7.5h120.645c4.143 0 7.5 3.357 7.5 7.5s-3.358 7.5-7.501 7.5z" fill="#54469c"/></g><g><path d="m459.409 512h-406.818c-11.379 0-20.604-9.225-20.604-20.604v-88.066c0-11.379 9.225-20.604 20.604-20.604h406.817c11.379 0 20.604 9.225 20.604 20.604v88.067c0 11.378-9.224 20.603-20.603 20.603z" fill="#8bc727"/></g><g><path d="m80.869 491.396v-88.066c0-11.379 9.225-20.604 20.604-20.604h-48.882c-11.379 0-20.604 9.224-20.604 20.604v88.067c0 11.379 9.224 20.604 20.604 20.604h48.881c-11.378-.001-20.603-9.226-20.603-20.605z" fill="#81b823"/></g><g><path d="m433.391 454.863h-110.367c-4.143 0-7.5-3.357-7.5-7.5s3.357-7.5 7.5-7.5h110.366c4.143 0 7.5 3.357 7.5 7.5s-3.357 7.5-7.499 7.5z" fill="#fff"/></g><g><path d="m297.246 454.863h-43.309c-4.143 0-7.5-3.357-7.5-7.5s3.357-7.5 7.5-7.5h43.309c4.143 0 7.5 3.357 7.5 7.5s-3.357 7.5-7.5 7.5z" fill="#fff"/></g><g><g><path d="m212.774 443.733-4.344-65.155c-.242-3.631.661-7.315 2.864-10.212.874-1.149 1.439-2.396 1.484-3.712v-15.205c.098-2.847-1.467-5.062-4.295-5.4h-30.533c-2.845.143-5.53 2.553-5.628 5.4v13.814c-.063 1.828.784 3.588 2.097 5.17 2.27 2.737 3.351 6.271 3.34 9.828l-.163 50.819c-6.665-3.836-15.186-6.284-24.537-6.606-9.312-.32-17.949 1.521-24.848 4.863-6.327-8.971-16.84-14.823-28.813-14.621-17.315.292-31.936 13.725-33.665 30.957-2.011 20.036 13.313 37.282 33.111 37.963 11.216.385 21.361-4.635 27.938-12.717 6.653 3.808 15.143 6.238 24.455 6.558 15.175.522 28.557-4.695 35.542-12.799l13.129-2.176c8.035-1.333 13.66-8.665 12.866-16.769z" fill="#fed2a4"/></g><g><g><path d="m92.379 443.672c1.283-12.791 9.673-23.484 20.993-28.267-4.277-1.798-8.995-2.773-13.973-2.69-17.315.292-31.936 13.725-33.665 30.957-2.01 20.036 13.313 37.282 33.111 37.963 5.136.177 10.042-.792 14.489-2.657-13.49-5.663-22.528-19.63-20.955-35.306z" fill="#ffbd86"/></g></g></g></g></svg>