<svg id="Capa_1" enable-background="new 0 0 512 512" height="512" viewBox="0 0 512 512" width="512" xmlns="http://www.w3.org/2000/svg"><g><path d="m505.661 85.359h-157.056v31.471c0 2.234-1.818 4.053-4.052 4.053h-79.501l6.135 53.089 4.777 1h221.722l4.849-1 9.424-81.546c.433-3.764-2.509-7.067-6.298-7.067z" fill="#c8effe"/><path d="m493.168 226.62h-212.24l-3.543 1 7.934 68.657h104.337c1.089 0 2.108.43 2.87 1.211.761.78 1.165 1.809 1.137 2.896-.881 34.517-10.869 68.254-28.883 97.564-12.283 19.986-28.09 37.611-46.48 52.018h146.692c3.219 0 5.927-2.413 6.297-5.611l25.046-216.735z" fill="#fff3de"/><g><path d="m265.167 121.883 6.019 52.089h52.024l-6.019-52.089z" fill="#99e6fc"/><g><path d="m496.334 227.62 6.2-53.648h-231.348l6.2 53.648z" fill="#ffe5c2"/></g><g><path d="m271.186 173.972 6.2 53.648h52.219l-6.2-53.648z" fill="#fed2a4"/></g></g><g><path d="m344.553 54.419h-247.218v67.463h247.217c2.79 0 5.052-2.262 5.052-5.052v-57.358c.001-2.791-2.261-5.053-5.051-5.053z" fill="#fac600"/><g><path d="m165.307 95.651h-34.333c-4.142 0-7.5-3.357-7.5-7.5s3.358-7.5 7.5-7.5h34.333c4.142 0 7.5 3.357 7.5 7.5s-3.358 7.5-7.5 7.5z" fill="#54469c"/></g><g><path d="m315.873 95.651h-123.567c-4.142 0-7.5-3.357-7.5-7.5s3.358-7.5 7.5-7.5h123.567c4.142 0 7.5 3.357 7.5 7.5s-3.358 7.5-7.5 7.5z" fill="#54469c"/></g><g><path d="m93.283 133.751h-81.096c-2.79 0-5.052-2.262-5.052-5.052v-81.096c0-2.79 2.262-5.052 5.052-5.052h81.096c2.79 0 5.052 2.262 5.052 5.052v81.096c0 2.79-2.262 5.052-5.052 5.052z" fill="#01d0fb"/></g><g><path d="m41.722 128.699v-81.096c0-2.79 2.262-5.052 5.052-5.052h-34.587c-2.79 0-5.052 2.262-5.052 5.052v81.096c0 2.79 2.262 5.052 5.052 5.052h34.588c-2.791 0-5.053-2.262-5.053-5.052z" fill="#01c0fa"/></g><g><path d="m49.299 107.832c-1.989 0-3.897-.79-5.303-2.196l-17.49-17.49c-2.929-2.93-2.929-7.678 0-10.607 2.929-2.928 7.678-2.928 10.606 0l12.187 12.188 19.059-19.06c2.929-2.928 7.678-2.928 10.606 0 2.929 2.93 2.929 7.678 0 10.607l-24.362 24.362c-1.406 1.406-3.313 2.196-5.303 2.196z" fill="#fff"/></g></g><g><g><path d="m359.669 296.276c22.641-23.235 30.229-55.661 22.773-85.067-29.765-7.547-62.631.309-85.92 23.598-17.023 17.023-25.79 39.163-26.333 61.469z" fill="#8bc727"/><path d="m382.442 211.21c-29.765-7.547-62.631.308-85.92 23.598-5.539 5.54-10.189 11.627-13.981 18.08 7.297 3.225 13.684 8.123 18.679 14.213 3.462-5.432 7.564-10.574 12.308-15.318 19.539-19.539 45.818-28.209 71.352-26.04-.416-4.89-1.226-9.752-2.438-14.533z" fill="#81b823"/><path d="m307.982 296.276 49.381-49.381c2.929-2.93 2.929-7.678 0-10.607-2.928-2.927-7.677-2.929-10.606 0l-59.989 59.988z" fill="#a2e62e"/></g><path d="m186.819 211.614c0 7.129-1.609 13.96-4.782 20.302l-.323.645 39.155 39.155.684-.976c9.279-13.246 24.452-21.154 40.586-21.154.907 0 1.807.031 2.703.079.178-1.723.27-3.471.27-5.241 0-27.911-22.627-50.538-50.538-50.538-10.635 0-20.497 3.292-28.638 8.902.574 2.868.883 5.819.883 8.826z" fill="#fe7701"/><path d="m186.819 211.614c0 7.129-1.609 13.96-4.782 20.302l-.323.645 28.492 28.491c-1.815-5.208-2.807-10.802-2.807-16.628 0-20.151 11.796-37.542 28.857-45.658-6.571-3.126-13.921-4.88-21.681-4.88-10.635 0-20.496 3.292-28.637 8.902.572 2.868.881 5.819.881 8.826z" fill="#f46700"/><path d="m312.594 296.276c-1.477-26.586-23.498-47.691-50.454-47.691s-48.976 21.105-50.454 47.691z" fill="#fd4755"/><path d="m246.635 296.276c1.141-20.528 14.525-37.787 32.978-44.587-5.445-2.007-11.33-3.104-17.472-3.104-26.955 0-48.976 21.105-50.454 47.691z" fill="#fb2b3a"/><g><g><path d="m24.814 296.276h159.532c2.233-5.44 3.473-11.393 3.473-17.638 0-13.171-5.487-25.054-14.289-33.512 8.802-8.458 14.289-20.34 14.289-33.512 0-22.406-15.854-41.106-36.955-45.503.126-1.392.2-2.799.2-4.225 0-25.672-20.812-46.484-46.484-46.484-25.673 0-46.484 20.812-46.484 46.484 0 1.425.074 2.833.2 4.225-21.101 4.397-36.955 23.097-36.955 45.503 0 13.171 5.487 25.054 14.289 33.512-8.802 8.458-14.289 20.341-14.289 33.512 0 6.245 1.24 12.198 3.473 17.638z" fill="#8bc727"/><g><path d="m24.42 295.276h32.342c-.441-2.57-.681-5.208-.681-7.904 0-11.518 4.196-22.051 11.136-30.169 1.648-1.928 1.648-4.756 0-6.685-6.94-8.119-11.136-18.651-11.136-30.17 0-21.033 13.971-38.8 33.138-44.536 2.191-.656 3.628-2.712 3.617-4.999 0-.064 0-.128 0-.192 0-23.324 17.179-42.632 39.573-45.97-7.759-5.808-17.392-9.248-27.83-9.248-25.673 0-46.484 20.812-46.484 46.484 0 1.425.074 2.832.2 4.225-21.101 4.397-36.955 23.097-36.955 45.503 0 13.171 5.487 25.054 14.289 33.512-8.802 8.458-14.289 20.341-14.289 33.512.001 5.864 1.098 11.47 3.08 16.637z" fill="#81b823"/></g></g><path d="m82.222 243.849c-2.929-2.928-7.678-2.928-10.606 0-2.929 2.93-2.929 7.678 0 10.607l25.464 25.464v16.356h15v-16.356l25.465-25.464c2.929-2.93 2.929-7.678 0-10.607-2.928-2.927-7.677-2.929-10.606 0l-14.858 14.858v-25.73l25.465-25.464c2.929-2.93 2.929-7.678 0-10.607-2.928-2.927-7.677-2.929-10.606 0l-14.858 14.858v-31.499c0-4.143-3.358-7.5-7.5-7.5s-7.5 3.357-7.5 7.5v31.499l-14.858-14.858c-2.929-2.928-7.678-2.928-10.606 0-2.929 2.93-2.929 7.678 0 10.607l25.464 25.464v25.73z" fill="#a2e62e"/></g><g><path d="m246.844 296.276-76.231-76.231c-2.462-2.462-6.515-2.3-8.757.364-18.116 21.523-22.07 50.898-11.898 75.867z" fill="#fff"/><path d="m198.905 296.276h47.94l-57.056-57.056c-11.33 16.242-9.761 38.75 4.731 53.241 1.391 1.392 2.858 2.662 4.385 3.815z" fill="#fac600"/></g><g><path d="m108.225 469.449h178.214c2.614 0 5.174-.698 7.452-1.979 58.779-33.031 98.939-95.278 100.771-167.061.072-2.812-2.193-5.133-5.006-5.133h-384.648c-2.813 0-5.078 2.321-5.006 5.133 1.833 71.783 41.992 134.03 100.771 167.061 2.279 1.281 4.838 1.979 7.452 1.979z" fill="#c8effe"/></g><path d="m67.938 300.41c-.072-2.812 2.193-5.133 5.006-5.133h-67.936c-2.813 0-5.078 2.321-5.006 5.133 1.833 71.783 41.992 134.03 100.771 167.061 2.279 1.281 4.839 1.979 7.452 1.979h67.936c-2.614 0-5.174-.698-7.452-1.979-58.779-33.032-98.938-95.279-100.771-167.061z" fill="#99e6fc"/></g></g></svg>