<svg id="Capa_1" enable-background="new 0 0 512 512" height="512" viewBox="0 0 512 512" width="512" xmlns="http://www.w3.org/2000/svg"><g><g><path d="m327.467 421.914c-4.969-5.285-9.436-11.124-13.326-17.47-15.39-25.11-19.67-54.601-12.05-83.038 6.628-24.737 21.957-46.24 43.162-60.549 1.255-.847 2.403-1.822 3.442-2.895v-193.987c0-5.606-4.545-10.151-10.151-10.151h-259.674c-5.606 0-10.151 4.545-10.151 10.151v220.718c7.443-2.14 15.297-3.311 23.429-3.311 46.749 0 84.647 37.898 84.647 84.647 0 21.424-7.975 40.974-21.097 55.885z" fill="#fe7701"/><g><path d="m93.936 169.594c0-6.964 5.666-12.629 12.629-12.629h4.982v-16.108h-4.982c-6.963 0-12.629-5.665-12.629-12.629v-37.095c0-6.964 5.666-12.629 12.629-12.629h4.982v-14.53c0-5.606 4.545-10.151 10.151-10.151h-42.828c-5.606 0-10.151 4.545-10.151 10.151v220.718c7.443-2.14 15.297-3.311 23.429-3.311.598 0 1.193.014 1.789.027v-111.814z" fill="#f46700"/></g><g><path d="m101.436 128.228v-37.094c0-2.833 2.296-5.129 5.129-5.129h204.283c2.833 0 5.129 2.296 5.129 5.129v37.094c0 2.833-2.296 5.129-5.129 5.129h-204.283c-2.833 0-5.129-2.297-5.129-5.129z" fill="#c8effe"/></g><g><path d="m135.909 128.228v-37.095c0-2.833 2.296-5.129 5.129-5.129h-34.473c-2.833 0-5.129 2.296-5.129 5.129v37.094c0 2.833 2.296 5.129 5.129 5.129h34.473c-2.833.001-5.129-2.296-5.129-5.128z" fill="#99e6fc"/></g><g><path d="m310.848 140.857h-204.283c-6.963 0-12.629-5.665-12.629-12.629v-37.095c0-6.964 5.666-12.629 12.629-12.629h204.283c6.963 0 12.629 5.665 12.629 12.629v37.095c0 6.964-5.665 12.629-12.629 12.629zm-201.912-15h199.541v-32.353h-199.541z" fill="#fe860a"/></g><path d="m306.596 389.733c-9.038-21.539-10.681-45.279-4.505-68.327 2.967-11.071 7.687-21.486 13.886-30.907v-120.905c0-2.833-2.296-5.129-5.129-5.129h-204.283c-2.833 0-5.129 2.296-5.129 5.129v112.306c42.377 4.627 75.358 40.521 75.358 84.13 0 8.232-1.197 16.179-3.389 23.704h133.191z" fill="#fac600"/><path d="m302.091 321.405c2.038-7.605 4.905-14.901 8.505-21.78h-48.521v90.107h44.521c-9.038-21.538-10.681-45.278-4.505-68.327z" fill="#62dbfb"/><path d="m127.432 289.09v-119.496c0-2.833 2.296-5.129 5.129-5.129h-25.995c-2.833 0-5.129 2.296-5.129 5.129v112.306c9.189 1.003 17.929 3.485 25.995 7.19z" fill="#e8b800"/><path d="m175.227 382.233c-1.006 5.187-2.491 10.198-4.397 15h139.257c-2.503-4.875-4.608-9.887-6.312-15h-34.201v-37.554-37.554h37.47c4.14-9.682 9.684-18.666 16.433-26.676v-110.855c0-6.964-5.666-12.629-12.629-12.629h-204.283c-6.963 0-12.629 5.665-12.629 12.629v111.833c5.123.106 10.139.648 15 1.626v-20.981h38.902v30.054h-14.426c11.865 6.639 21.964 16.047 29.426 27.356v-12.356h38.369v30.054h-29.462c1.744 4.811 3.052 9.828 3.904 15h25.559v30.054h-25.981zm94.348-210.268h38.902v30.054h-38.902zm0 45.054h38.902v30.053h-38.902zm0 45.053h38.902v30.054h-38.902zm-121.737-15h-38.902v-30.053h38.902zm0-45.053h-38.902v-30.054h38.902zm68.369-30.054h38.368v30.054h-38.368zm0 45.054h38.368v30.053h-38.368zm0 45.053h38.368v30.054h-38.368zm0 45.054h38.368v30.054h-38.368zm0 45.053h38.368v30.054h-38.368zm-53.369-180.214h38.369v30.054h-38.369zm0 45.054h38.369v30.053h-38.369zm0 75.107v-30.054h38.369v30.054z" fill="#fe860a"/></g><g><g><path d="m353.883 244.434c.656-6.39 2.126-12.829 4.497-19.197 13.09-35.149 50.306-55.93 87.095-48.627 44.197 8.773 71.103 52.83 59.631 95.645-1.113 4.152-2.547 8.131-4.266 11.921-2.567 5.658-2.403 12.211.318 17.796 11.42 23.437 14.397 51.126 6.145 78.245-16.095 52.896-70.623 85.125-124.707 73.638-60.596-12.87-97.299-73.639-81.471-132.707 6.962-25.984 22.893-47.168 43.568-61.119 5.256-3.548 8.542-9.288 9.19-15.595z" fill="#78a91f"/></g><g><path d="m404.634 430.796c-5.609 0-11.25-.594-16.765-1.765-22.29-4.734-41.093-17.99-52.944-37.325-11.86-19.352-15.159-42.078-9.288-63.99 5.108-19.062 16.916-35.63 33.25-46.652 11.434-7.716 18.81-20.122 20.239-34.038.45-4.383 1.471-8.734 3.034-12.932 7.476-20.076 26.972-33.563 48.514-33.563 3.299 0 6.616.327 9.859.97 14.289 2.836 26.366 11.162 34.006 23.442 7.649 12.296 9.799 26.765 6.054 40.743-.735 2.74-1.699 5.434-2.864 8.003-5.693 12.552-5.469 26.911.615 39.397 9.074 18.623 10.736 39.839 4.68 59.743-10.384 34.13-42.62 57.967-78.39 57.967z" fill="#bbec6c"/></g><g><path d="m376.432 400.494c-11.86-19.352-15.159-42.078-9.287-63.99 5.108-19.062 16.916-35.63 33.25-46.652 11.434-7.716 18.81-20.122 20.239-34.038.45-4.383 1.471-8.734 3.034-12.932 6.176-16.583 20.555-28.662 37.511-32.366-6.029-4.41-13.017-7.502-20.645-9.016-3.243-.643-6.56-.97-9.859-.97-21.541 0-41.037 13.488-48.514 33.563-1.563 4.197-2.584 8.549-3.034 12.932-1.429 13.916-8.806 26.322-20.239 34.038-16.334 11.021-28.143 27.59-33.25 46.652-5.871 21.913-2.573 44.638 9.288 63.99 11.851 19.335 30.653 32.591 52.944 37.325 5.515 1.171 11.156 1.765 16.765 1.765 1.476 0 2.943-.055 4.406-.136-13.343-6.758-24.577-17.059-32.609-30.165z" fill="#a2e62e"/></g><g><circle cx="404.722" cy="348.905" fill="#bb5d4c" r="44.85"/></g><g><path d="m395.903 337.298c3.743-13.967 13.686-24.609 26.071-29.782-1.815-.754-3.694-1.409-5.644-1.932-23.926-6.411-48.518 7.788-54.929 31.714s7.788 48.518 31.714 54.929c9.958 2.668 20.028 1.756 28.858-1.932-20.453-8.496-31.959-31.022-26.07-52.997z" fill="#a44f3e"/></g></g><g><g><circle cx="92.147" cy="366.029" fill="#c8effe" r="84.647"/></g><g><path d="m50.641 366.029c0-39.293 26.777-72.325 63.076-81.864-6.888-1.81-14.115-2.783-21.571-2.783-46.749 0-84.647 37.898-84.647 84.647s37.898 84.647 84.647 84.647c7.456 0 14.683-.973 21.571-2.783-36.298-9.539-63.076-42.57-63.076-81.864z" fill="#99e6fc"/></g><g><path d="m92.147 458.176c-50.81 0-92.147-41.337-92.147-92.147s41.337-92.146 92.147-92.146 92.147 41.337 92.147 92.146c0 50.81-41.337 92.147-92.147 92.147zm0-169.294c-42.539 0-77.147 34.608-77.147 77.147s34.608 77.147 77.147 77.147 77.147-34.608 77.147-77.147-34.608-77.147-77.147-77.147z" fill="#54469c"/></g><g><path d="m148.212 373.529c-4.142 0-7.5-3.357-7.5-7.5 0-26.778-21.786-48.564-48.565-48.564s-48.565 21.786-48.565 48.564c0 4.143-3.358 7.5-7.5 7.5s-7.5-3.357-7.5-7.5c0-35.05 28.515-63.564 63.565-63.564s63.565 28.515 63.565 63.564c0 4.142-3.358 7.5-7.5 7.5z" fill="#fff"/></g><path d="m130.355 308.101c-3.458-2.281-8.109-1.328-10.39 2.131l-25.991 39.405c5.369.595 9.962 3.777 12.516 8.268l25.996-39.413c2.282-3.458 1.327-8.111-2.131-10.391z" fill="#01c0fa"/><g><circle cx="92.147" cy="366.029" fill="#01d0fb" r="17.5"/></g><g><path d="m114.683 417.501h-45.072c-4.142 0-7.5-3.357-7.5-7.5s3.358-7.5 7.5-7.5h45.072c4.142 0 7.5 3.357 7.5 7.5s-3.358 7.5-7.5 7.5z" fill="#fff"/></g></g></g></svg>