<svg id="Capa_1" enable-background="new 0 0 512 512" height="512" viewBox="0 0 512 512" width="512" xmlns="http://www.w3.org/2000/svg"><g><g><g><path d="m402.611 50.648-9.226 9.226-9.226-9.226c-20.652-20.652-54.137-20.652-74.789 0-20.652 20.652-20.652 54.137 0 74.789l80.141 80.141c2.14 2.14 5.609 2.14 7.749 0l80.141-80.141c20.652-20.652 20.652-54.137 0-74.789-20.654-20.652-54.138-20.652-74.79 0z" fill="#fd4755"/></g><g><g><path d="m353.489 116.635c-20.652-20.652-20.652-54.136 0-74.789 1.889-1.889 3.888-3.602 5.972-5.145-17.381-4.281-36.511.366-50.093 13.948-20.652 20.653-20.652 54.136 0 74.789l80.141 80.141c2.14 2.14 5.609 2.14 7.749 0l22.587-22.587z" fill="#fb2b3a"/></g></g><g><path d="m396.793 141.435c-.283 0-.567-.016-.854-.049-2.967-.339-5.45-2.406-6.322-5.263l-10.092-33.078-10.092 33.078c-.872 2.856-3.355 4.924-6.322 5.263-2.979.348-5.854-1.115-7.347-3.701l-10.616-18.387-5.617 10.202c-1.319 2.396-3.836 3.883-6.57 3.883h-64.961c-4.143 0-7.5-3.357-7.5-7.5s3.357-7.5 7.5-7.5h60.529l9.895-17.971c1.306-2.371 3.788-3.855 6.494-3.883h.076c2.678 0 5.154 1.428 6.495 3.75l8.635 14.955 12.228-40.079c.963-3.155 3.875-5.312 7.174-5.312s6.211 2.156 7.174 5.312l12.228 40.08 8.636-14.956c1.34-2.32 3.815-3.75 6.495-3.75h32.941c4.143 0 7.5 3.357 7.5 7.5s-3.357 7.5-7.5 7.5h-28.612l-15.102 26.155c-1.349 2.338-3.837 3.751-6.493 3.751z" fill="#01d0fb"/></g></g><g><path d="m36.767 45.946h187.402c4.142 0 7.5-3.357 7.5-7.5s-3.358-7.5-7.5-7.5h-187.402c-4.142 0-7.5 3.357-7.5 7.5s3.358 7.5 7.5 7.5z" fill="#8bc727"/><path d="m224.169 65.65h-187.402c-4.142 0-7.5 3.357-7.5 7.5s3.358 7.5 7.5 7.5h187.402c4.142 0 7.5-3.357 7.5-7.5s-3.357-7.5-7.5-7.5z" fill="#8bc727"/><g fill="#a2e62e"><path d="m116.544 100.354h-79.777c-4.142 0-7.5 3.357-7.5 7.5s3.358 7.5 7.5 7.5h79.777c4.142 0 7.5-3.357 7.5-7.5s-3.358-7.5-7.5-7.5z"/><path d="m99.009 135.059h-62.242c-4.142 0-7.5 3.357-7.5 7.5s3.358 7.5 7.5 7.5h62.242c4.142 0 7.5-3.357 7.5-7.5s-3.358-7.5-7.5-7.5z"/></g></g><g><path d="m88.921 467.054v-168.847c0-3.026-2.453-5.48-5.48-5.48h-31.781c-3.026 0-5.48 2.453-5.48 5.48v168.847z" fill="#62dbfb"/><path d="m63 467.054v-168.847c0-3.026 2.453-5.48 5.48-5.48h-16.82c-3.026 0-5.48 2.453-5.48 5.48v168.847z" fill="#01d0fb"/><path d="m315.581 467.054v-168.847c0-3.026-2.453-5.48-5.48-5.48h-31.781c-3.027 0-5.48 2.454-5.48 5.48v168.847z" fill="#fe7701"/><path d="m289.259 467.054v-168.847c0-3.026 2.453-5.48 5.48-5.48h-16.419c-3.027 0-5.48 2.454-5.48 5.48v168.847z" fill="#f46700"/></g><path d="m391.62 467.054v-219.287c0-3.026-2.453-5.479-5.479-5.479h-31.782c-3.026 0-5.48 2.453-5.48 5.479v219.286h42.741z" fill="#62dbfb"/><path d="m7.5 480.054c-3.584 0-6.5-2.916-6.5-6.5s2.916-6.5 6.5-6.5h497c3.584 0 6.5 2.916 6.5 6.5s-2.916 6.5-6.5 6.5z" fill="#aca6d6"/><path d="m365.259 467.054v-219.287c0-3.026 2.453-5.479 5.48-5.479h-16.38c-3.026 0-5.48 2.453-5.48 5.479v219.286h16.38z" fill="#01d0fb"/><path d="m467.659 467.054v-132.708c0-3.027-2.453-5.48-5.48-5.48h-31.781c-3.026 0-5.48 2.453-5.48 5.48v132.708z" fill="#fd4755"/><path d="m441.259 467.054v-132.709c0-3.026 2.453-5.48 5.48-5.48h-16.341c-3.026 0-5.48 2.453-5.48 5.48v132.708h16.341z" fill="#fb2b3a"/><g><path d="m52.77 216.519h67.883c3.026 0 5.48 2.453 5.48 5.479v245.055h38.749v-112.592c0-3.026 2.453-5.479 5.48-5.479h21.038c3.026 0 5.48 2.453 5.48 5.479v112.593h38.749v-245.055c0-3.026 2.453-5.479 5.48-5.479h67.883c8.838 0 16.003-7.165 16.003-16.003 0-8.838-7.165-16.003-16.003-16.003h-100.38c-7.599 6.114-17.242 9.784-27.731 9.784s-20.133-3.67-27.731-9.784h-100.38c-8.838 0-16.003 7.165-16.003 16.003 0 8.837 7.165 16.002 16.003 16.002z" fill="#8bc727"/><g><path d="m504.5 481.054h-497c-4.142 0-7.5-3.357-7.5-7.5s3.358-7.5 7.5-7.5h497c4.143 0 7.5 3.357 7.5 7.5s-3.357 7.5-7.5 7.5z" fill="#aca6d6"/></g><g><circle cx="180.881" cy="149.978" fill="#8bc727" r="45.319"/></g><g><path d="m169.363 149.978c0-19.053 11.763-35.348 28.418-42.049-5.224-2.102-10.924-3.27-16.9-3.27-25.029 0-45.319 20.29-45.319 45.319s20.29 45.319 45.319 45.319c5.976 0 11.676-1.168 16.9-3.27-16.655-6.7-28.418-22.996-28.418-42.049z" fill="#81b823"/></g></g></g></svg>