<svg id="Capa_1" enable-background="new 0 0 512 512" height="512" viewBox="0 0 512 512" width="512" xmlns="http://www.w3.org/2000/svg"><g><g fill="#fedf30"><path d="m385.707 42.098c-36.475-26.465-81.297-42.098-129.707-42.098-122.059 0-221.36 99.302-221.36 221.36 0 21.898 3.218 43.566 9.564 64.399 1.207 3.963 5.396 6.194 9.36 4.989 3.963-1.207 6.196-5.398 4.989-9.36-5.915-19.415-8.914-39.612-8.914-60.028.001-113.787 92.574-206.36 206.361-206.36 44.539 0 85.826 14.186 119.585 38.273 2.521-4.424 5.986-8.24 10.122-11.175z"/><path d="m434.139 90.115c-2.903 4.166-6.695 7.664-11.101 10.223 24.719 34.023 39.323 75.847 39.323 121.023 0 20.416-2.999 40.613-8.914 60.028-1.207 3.962 1.026 8.153 4.989 9.36.729.222 1.464.327 2.188.327 3.214 0 6.187-2.082 7.172-5.316 6.347-20.833 9.564-42.501 9.564-64.399 0-49.093-16.073-94.497-43.221-131.246z"/></g><g><path d="m256 364.23c-29.216 0-56.408-8.822-79.064-23.932v165.209c0 5.285 5.986 8.348 10.272 5.256l68.792-49.619 68.792 49.62c4.286 3.092 10.272.029 10.272-5.256v-165.209c-22.656 15.11-49.848 23.931-79.064 23.931z" fill="#fd4755"/><path d="m176.936 505.508c0 5.285 5.986 8.348 10.272 5.256l68.792-49.62v-96.914c-29.216 0-56.408-8.822-79.064-23.932z" fill="#fb2b3a"/><path d="m176.937 340.299v165.209c0 5.285 5.986 8.347 10.272 5.256l24.241-17.486v-136.169c-12.326-4.055-23.916-9.743-34.513-16.81z" fill="#e41f2d"/></g><g><circle cx="256" cy="221.361" fill="#d7aa02" r="143.87"/></g><g><circle cx="256" cy="221.361" fill="#fac600" r="111.467"/></g><g><path d="m178.853 221.36c0-55.629 40.961-101.868 94.307-110.146-5.595-.868-11.325-1.321-17.16-1.321-61.463 0-111.467 50.003-111.467 111.467s50.003 111.467 111.467 111.467c5.835 0 11.565-.453 17.16-1.321-53.345-8.278-94.307-54.517-94.307-110.146z" fill="#e8b800"/></g><g><path d="m256 340.327c-65.599 0-118.967-53.368-118.967-118.967s53.368-118.966 118.967-118.966 118.967 53.368 118.967 118.967-53.368 118.966-118.967 118.966zm0-222.933c-57.327 0-103.967 46.64-103.967 103.967s46.64 103.966 103.967 103.966 103.967-46.64 103.967-103.967-46.64-103.966-103.967-103.966z" fill="#fedf30"/></g><g><path d="m262.565 163.227 12.905 26.147c1.066 2.161 3.128 3.658 5.512 4.005l28.855 4.193c6.005.873 8.402 8.252 4.057 12.487l-20.88 20.353c-1.725 1.682-2.513 4.105-2.105 6.48l4.929 28.739c1.026 5.98-5.251 10.541-10.622 7.717l-25.809-13.569c-2.133-1.121-4.681-1.121-6.813 0l-25.809 13.569c-5.371 2.824-11.648-1.737-10.622-7.717l4.929-28.739c.407-2.375-.38-4.798-2.105-6.48l-20.88-20.353c-4.345-4.235-1.947-11.615 4.057-12.487l28.855-4.193c2.384-.346 4.446-1.844 5.512-4.005l12.905-26.147c2.685-5.441 10.443-5.441 13.129 0z" fill="#fff"/></g><g><g><path d="m250.453 257.266 4.929-28.739c.407-2.375-.38-4.798-2.105-6.48l-20.88-20.353c-2.408-2.347-2.738-5.656-1.539-8.291l-28.694 4.17c-6.005.873-8.402 8.252-4.057 12.487l20.88 20.353c1.725 1.682 2.513 4.105 2.105 6.48l-4.929 28.739c-1.026 5.98 5.251 10.541 10.622 7.717l23.923-12.577c-.35-1.073-.47-2.255-.255-3.506z" fill="#f2fbff"/></g></g><g><g><path d="m79.811 322.651 12.905 26.147c1.066 2.161 3.128 3.658 5.512 4.005l28.855 4.193c6.005.873 8.402 8.252 4.057 12.487l-20.88 20.353c-1.725 1.682-2.513 4.105-2.105 6.48l4.929 28.739c1.026 5.98-5.251 10.541-10.622 7.717l-25.809-13.569c-2.133-1.121-4.681-1.121-6.813 0l-25.809 13.569c-5.371 2.824-11.648-1.737-10.622-7.717l4.929-28.739c.407-2.375-.38-4.798-2.105-6.48l-20.88-20.353c-4.345-4.235-1.947-11.615 4.057-12.487l28.855-4.193c2.384-.346 4.446-1.844 5.512-4.005l12.904-26.147c2.686-5.441 10.445-5.441 13.13 0z" fill="#fac600"/></g><g><g><path d="m59.046 416.635 4.929-28.739c.407-2.375-.38-4.798-2.105-6.48l-20.88-20.353c-2.003-1.952-2.559-4.569-2.003-6.912l-19.577 2.845c-6.005.872-8.402 8.252-4.057 12.487l20.88 20.353c1.725 1.682 2.513 4.105 2.105 6.48l-4.929 28.739c-1.026 5.98 5.251 10.541 10.622 7.717l17.597-9.251c-1.911-1.563-3.067-4.06-2.582-6.886z" fill="#e8b800"/></g></g><g><path d="m445.318 322.651 12.905 26.147c1.066 2.161 3.128 3.658 5.512 4.005l28.855 4.193c6.005.873 8.402 8.252 4.057 12.487l-20.88 20.353c-1.725 1.682-2.513 4.105-2.105 6.48l4.929 28.739c1.026 5.98-5.251 10.541-10.622 7.717l-25.809-13.569c-2.133-1.121-4.681-1.121-6.813 0l-25.809 13.569c-5.371 2.824-11.648-1.737-10.622-7.717l4.929-28.739c.407-2.375-.38-4.798-2.105-6.48l-20.88-20.353c-4.345-4.235-1.947-11.615 4.057-12.487l28.855-4.193c2.384-.346 4.446-1.844 5.512-4.005l12.905-26.147c2.685-5.441 10.444-5.441 13.129 0z" fill="#fac600"/></g><g><g><path d="m424.478 416.635 4.929-28.739c.407-2.375-.38-4.798-2.105-6.48l-20.88-20.353c-2-1.949-2.557-4.561-2.006-6.901l-19.499 2.834c-6.005.872-8.402 8.252-4.057 12.487l20.88 20.353c1.725 1.682 2.513 4.105 2.106 6.48l-4.929 28.739c-1.026 5.98 5.251 10.541 10.622 7.717l17.551-9.227c-1.929-1.561-3.099-4.069-2.612-6.91z" fill="#e8b800"/></g></g></g><g><circle cx="405.702" cy="70.362" fill="#fd4755" r="35.643"/></g><g><path d="m398.113 70.362c0-14.704 8.906-27.326 21.617-32.773-4.305-1.845-9.046-2.87-14.027-2.87-19.685 0-35.643 15.958-35.643 35.643s15.958 35.643 35.643 35.643c4.981 0 9.721-1.025 14.027-2.87-12.711-5.447-21.617-18.069-21.617-32.773z" fill="#fb2b3a"/></g></g></svg>