<svg id="Capa_1" enable-background="new 0 0 512 512" height="512" viewBox="0 0 512 512" width="512" xmlns="http://www.w3.org/2000/svg"><g><g><g><path d="m232.872 63.848v36.616c7.557-1.084 15.276-1.657 23.128-1.657s15.571.573 23.128 1.657v-36.616z" fill="#c8effe"/><path d="m232.872 63.848v36.616c6.595-.946 13.316-1.495 20.14-1.619v-34.997z" fill="#99e6fc"/><g><path d="m309.965 64.848h-107.93c-4.258 0-7.709-3.452-7.709-7.709v-18.502c0-4.258 3.452-7.709 7.709-7.709h107.929c4.258 0 7.709 3.452 7.709 7.709v18.502c.001 4.257-3.451 7.709-7.708 7.709z" fill="#fd4755"/></g><g><path d="m229.215 57.139v-18.502c0-4.258 3.451-7.709 7.709-7.709h-34.889c-4.258 0-7.709 3.451-7.709 7.709v18.502c0 4.258 3.451 7.709 7.709 7.709h34.889c-4.257 0-7.709-3.452-7.709-7.709z" fill="#fb2b3a"/></g><g><path d="m379.667 156.247 22.276-22.276c3.011-3.01 3.011-7.892 0-10.903l-16.354-16.354c-3.01-3.011-7.892-3.011-10.903 0l-23.253 23.253c10.421 7.619 19.901 16.447 28.234 26.28z" fill="#fac600"/><path d="m364.035 140.176 13.517-13.517c3.011-3.011 7.892-3.011 10.902 0l10.4 10.4 3.088-3.088c3.01-3.01 3.01-7.892 0-10.902l-16.354-16.354c-3.01-3.011-7.892-3.011-10.902 0l-23.253 23.253c4.371 3.195 8.577 6.602 12.602 10.208z" fill="#e8b800"/><path d="m132.333 156.247c8.333-9.833 17.813-18.661 28.234-26.279l-23.253-23.253c-3.011-3.011-7.892-3.011-10.902 0l-16.354 16.354c-3.011 3.011-3.011 7.892 0 10.903z" fill="#fac600"/><path d="m132.333 156.247c3.493-4.122 7.186-8.068 11.067-11.822l-10.454-10.454c-3.011-3.01-3.011-7.892 0-10.902l10.361-10.36-5.993-5.993c-3.011-3.011-7.892-3.011-10.903 0l-16.354 16.354c-3.01 3.011-3.01 7.892 0 10.902z" fill="#e8b800"/></g><g><path d="m154.005 388.031h203.99c37.216-29.915 61.083-75.792 61.083-127.145 0-89.921-73.157-163.078-163.078-163.078-89.922 0-163.078 73.157-163.078 163.078 0 51.353 23.867 97.23 61.083 127.145z" fill="#fd4755"/><g><path d="m120.143 260.886c0-48.736 25.8-91.553 64.455-115.531 24.644-24.524 57.064-41.243 93.191-46.089-7.13-.956-14.401-1.46-21.789-1.46-89.922 0-163.078 73.157-163.078 163.078 0 51.354 23.867 97.23 61.084 127.145h43.578c-4.533-3.643-8.865-7.527-12.982-11.625-38.655-23.974-64.459-66.783-64.459-115.518z" fill="#fb2b3a"/></g><g><path d="m238.394 388.031h35.213c62.476-8.609 110.751-62.34 110.751-127.145 0-70.777-57.58-128.358-128.357-128.358s-128.358 57.581-128.358 128.358c-.001 64.804 48.275 118.536 110.751 127.145z" fill="#fff"/><g><path d="m153.812 260.886c0-66.36 50.619-121.12 115.273-127.695-4.303-.438-8.668-.662-13.085-.662-70.777 0-128.358 57.58-128.358 128.357s57.581 128.358 128.358 128.358c4.417 0 8.782-.225 13.085-.662-64.654-6.576-115.273-61.336-115.273-127.696z" fill="#f2fbff"/></g><path d="m208.139 388.031h95.721c51.366-19.4 87.997-69.071 87.997-127.145 0-74.912-60.945-135.857-135.857-135.857s-135.857 60.945-135.857 135.857c0 58.074 36.63 107.745 87.996 127.145zm47.861-248.002c66.641 0 120.857 54.217 120.857 120.857s-54.216 120.857-120.857 120.857-120.857-54.217-120.857-120.857 54.216-120.857 120.857-120.857z" fill="#e41f2d"/><path d="m256 182.309c-43.327 0-78.577 35.25-78.577 78.577 0 31.344 18.453 58.449 45.06 71.051 1.188-7.861 7.969-13.912 16.157-13.912h34.721c8.188 0 14.969 6.051 16.157 13.912 26.607-12.602 45.06-39.708 45.06-71.051-.001-43.328-35.251-78.577-78.578-78.577z" fill="#c8effe"/><path d="m236.988 318.108c-15.264-14.336-24.822-34.676-24.822-57.223 0-37.357 26.213-68.686 61.205-76.617-5.593-1.268-11.401-1.959-17.372-1.959-43.327 0-78.577 35.25-78.577 78.577 0 31.343 18.453 58.449 45.06 71.051 1.108-7.326 7.07-13.08 14.506-13.829z" fill="#99e6fc"/><g fill="#01d0fb"><path d="m234.79 260.886c0-2.643.508-5.164 1.395-7.5h-18.261c-4.143 0-7.5 3.357-7.5 7.5s3.357 7.5 7.5 7.5h18.261c-.887-2.336-1.395-4.857-1.395-7.5z"/><path d="m351.829 253.386h-76.014c.887 2.336 1.395 4.857 1.395 7.5s-.508 5.164-1.395 7.5h76.014c4.143 0 7.5-3.357 7.5-7.5s-3.357-7.5-7.5-7.5z"/></g><g><circle cx="256" cy="260.886" fill="#fe7701" r="22.21"/></g><g><path d="m250.849 260.886c0-9.243 5.649-17.162 13.68-20.507-2.627-1.094-5.506-1.703-8.53-1.703-12.266 0-22.21 9.944-22.21 22.21s9.944 22.21 22.21 22.21c3.023 0 5.903-.609 8.53-1.703-8.031-3.345-13.68-11.264-13.68-20.507z" fill="#f46700"/></g></g><g><path d="m290.721 334.385c0 9.588-7.772 17.36-17.36 17.36h-34.721c-9.588 0-17.36-7.772-17.36-17.36 0-9.588 7.772-17.36 17.36-17.36h34.721c9.587 0 17.36 7.772 17.36 17.36z" fill="#fac600"/></g><g><path d="m247.34 334.385c0-9.588 7.773-17.36 17.36-17.36h-26.06c-9.588 0-17.36 7.772-17.36 17.36s7.772 17.36 17.36 17.36h26.06c-9.588 0-17.36-7.772-17.36-17.36z" fill="#e8b800"/></g></g></g></g><g><g><path d="m464.979 481.073h-417.958c-25.862 0-47.021-21.16-47.021-47.021 0-25.862 21.159-47.021 47.021-47.021h417.958c25.862 0 47.021 21.159 47.021 47.021 0 25.861-21.159 47.021-47.021 47.021z" fill="#99e6fc"/></g><g><path d="m66.447 434.052c0-25.862 21.159-47.021 47.021-47.021h-66.447c-25.862 0-47.021 21.159-47.021 47.02 0 25.861 21.159 47.021 47.021 47.021h66.447c-25.862.001-47.021-21.159-47.021-47.02z" fill="#62dbfb"/></g><g><path d="m359.621 441.551h-315.673c-4.143 0-7.5-3.357-7.5-7.5s3.357-7.5 7.5-7.5h315.673c4.143 0 7.5 3.357 7.5 7.5s-3.357 7.5-7.5 7.5z" fill="#fff"/></g></g><g><g><g><path d="m66.896 261.977h-45.583c-4.143 0-7.5-3.357-7.5-7.5s3.357-7.5 7.5-7.5h45.582c4.143 0 7.5 3.357 7.5 7.5.001 4.142-3.357 7.5-7.499 7.5z" fill="#01d0fb"/></g><g><path d="m66.896 295.973h-45.583c-4.143 0-7.5-3.357-7.5-7.5s3.357-7.5 7.5-7.5h45.582c4.143 0 7.5 3.357 7.5 7.5s-3.357 7.5-7.499 7.5z" fill="#62dbfb"/></g><g><path d="m66.896 329.968h-45.583c-4.143 0-7.5-3.357-7.5-7.5s3.357-7.5 7.5-7.5h45.582c4.143 0 7.5 3.357 7.5 7.5s-3.357 7.5-7.499 7.5z" fill="#01d0fb"/></g></g><g><g><path d="m484.7 113.63h-45.583c-4.143 0-7.5-3.357-7.5-7.5s3.357-7.5 7.5-7.5h45.583c4.143 0 7.5 3.357 7.5 7.5s-3.357 7.5-7.5 7.5z" fill="#01d0fb"/></g><g><path d="m484.7 147.626h-45.583c-4.143 0-7.5-3.357-7.5-7.5s3.357-7.5 7.5-7.5h45.583c4.143 0 7.5 3.357 7.5 7.5s-3.357 7.5-7.5 7.5z" fill="#62dbfb"/></g><g><path d="m484.7 181.622h-45.583c-4.143 0-7.5-3.357-7.5-7.5s3.357-7.5 7.5-7.5h45.583c4.143 0 7.5 3.357 7.5 7.5s-3.357 7.5-7.5 7.5z" fill="#01d0fb"/></g></g></g></g></svg>