<svg id="Capa_1" enable-background="new 0 0 512 512" height="512" viewBox="0 0 512 512" width="512" xmlns="http://www.w3.org/2000/svg"><g><g><path d="m263.547 504.5h-207.107c-19.665 0-35.607-15.942-35.607-35.607v-425.786c.001-19.665 15.942-35.607 35.607-35.607h207.107c19.665 0 35.607 15.942 35.607 35.607v425.787c0 19.664-15.942 35.606-35.607 35.606z" fill="#c8effe"/></g><g><path d="m54.75 468.893v-425.786c0-19.665 15.942-35.607 35.607-35.607h-33.917c-19.665 0-35.607 15.942-35.607 35.607v425.787c0 19.665 15.942 35.607 35.607 35.607h33.916c-19.664-.001-35.606-15.943-35.606-35.608z" fill="#99e6fc"/></g><g><path d="m263.547 512h-207.107c-23.769 0-43.106-19.338-43.106-43.106v-425.788c0-23.768 19.337-43.106 43.106-43.106h207.106c23.769 0 43.107 19.338 43.107 43.106v425.787c.001 23.769-19.337 43.107-43.106 43.107zm-207.107-497c-15.498 0-28.106 12.608-28.106 28.106v425.787c0 15.499 12.608 28.107 28.106 28.107h207.106c15.498 0 28.107-12.608 28.107-28.106v-425.788c0-15.498-12.609-28.106-28.107-28.106z" fill="#978ecb"/></g><g><g><circle cx="260.878" cy="41.652" fill="#01d0fb" r="7.5"/></g><g><circle cx="59.109" cy="41.652" fill="#01d0fb" r="7.5"/></g><g><circle cx="82.109" cy="41.652" fill="#01d0fb" r="7.5"/></g></g><g><path d="m188.089 468.716h-56.19c-9.874 0-17.878-8.004-17.878-17.878 0-9.874 8.004-17.878 17.878-17.878h56.19c9.874 0 17.878 8.004 17.878 17.878 0 9.874-8.004 17.878-17.878 17.878z" fill="#01d0fb"/></g><g><path d="m147.803 450.837c0-9.874 8.005-17.878 17.878-17.878h-33.783c-9.874 0-17.878 8.004-17.878 17.878 0 9.874 8.004 17.879 17.878 17.879h33.783c-9.873 0-17.878-8.005-17.878-17.879z" fill="#01c0fa"/></g><g><g><path d="m78.994 469.5c-1.919 0-3.839-.732-5.303-2.196l-12.548-12.548c-2.929-2.93-2.929-7.678 0-10.607l12.548-12.548c2.929-2.928 7.678-2.928 10.606 0 2.929 2.93 2.929 7.678 0 10.607l-7.245 7.244 7.245 7.244c2.929 2.93 2.929 7.678 0 10.607-1.465 1.465-3.384 2.197-5.303 2.197z" fill="#01d0fb"/></g><g><path d="m240.994 469.5c-1.919 0-3.839-.732-5.303-2.197-2.929-2.929-2.929-7.678 0-10.606l7.245-7.244-7.245-7.244c-2.929-2.929-2.929-7.678 0-10.606 2.929-2.93 7.678-2.929 10.606-.001l12.548 12.548c1.407 1.407 2.197 3.314 2.197 5.304s-.79 3.896-2.197 5.304l-12.548 12.548c-1.465 1.462-3.384 2.194-5.303 2.194z" fill="#01d0fb"/></g></g><g><g><g><path d="m326.649 154.243c-22.91 1.58-41.47 20.141-43.051 43.051-1.872 27.149 19.597 49.755 46.346 49.755 3.356 0 6.627-.364 9.781-1.04v101.295c0 6.752 5.474 12.226 12.226 12.226h12.226c6.752 0 12.226-5.474 12.226-12.226v-146.715c.001-26.749-22.605-48.219-49.754-46.346z" fill="#54469c"/></g><g><g><path d="m308.944 205.764c1.58-22.91 20.141-41.471 43.051-43.051 1.592-.11 3.167-.132 4.724-.085-8.396-5.933-18.841-9.16-30.07-8.385-22.91 1.58-41.47 20.141-43.051 43.051-1.838 26.654 18.825 48.913 44.891 49.717-12.719-9-20.718-24.23-19.545-41.247z" fill="#463b84"/></g></g><g><path d="m310.382 215.425c-4.142 0-7.5-3.357-7.5-7.5v-13.449c0-4.143 3.358-7.5 7.5-7.5s7.5 3.357 7.5 7.5v13.449c0 4.142-3.358 7.5-7.5 7.5z" fill="#978ecb"/></g></g><g><g><path d="m455.502 154.243c22.91 1.58 41.47 20.141 43.051 43.051 1.872 27.149-19.597 49.755-46.346 49.755-3.356 0-6.627-.364-9.781-1.04v101.295c0 6.752-5.474 12.226-12.226 12.226h-12.226c-6.752 0-12.226-5.474-12.226-12.226v-146.715c-.001-26.749 22.604-48.219 49.754-46.346z" fill="#54469c"/></g><g><g><path d="m422.831 347.637v-146.715c0-23.065 16.813-42.19 38.849-45.824-2.017-.42-4.078-.71-6.178-.855-27.149-1.872-49.755 19.597-49.755 46.346v146.715c0 6.752 5.474 12.226 12.226 12.226h12.226c.546 0 1.079-.048 1.606-.118-5.171-1.425-8.974-6.15-8.974-11.775z" fill="#463b84"/></g></g><g><path d="m471.768 215.425c-4.142 0-7.5-3.357-7.5-7.5v-13.449c0-4.143 3.358-7.5 7.5-7.5s7.5 3.357 7.5 7.5v13.449c0 4.142-3.357 7.5-7.5 7.5z" fill="#978ecb"/></g></g></g><g><path d="m109.493 268.609h101.001v30.566h-101.001z" fill="#aca6d6"/><path d="m109.493 268.609h23.257v30.566h-23.257z" fill="#978ecb"/><g><g><path d="m80.632 247.166c-14.728 2.204-26.023 14.905-26.023 30.246v12.958c0 15.341 11.295 28.043 26.023 30.246z" fill="#fe7701"/><path d="m54.669 275.583c-.036.606-.06 1.215-.06 1.829v12.958c0 15.341 11.295 28.043 26.023 30.246v-16.616c-14.138-2.115-25.106-13.906-25.963-28.417z" fill="#f46700"/><g><path d="m102.493 343.559h-14.861c-4.418 0-8-3.582-8-8v-103.335c0-4.418 3.582-8 8-8h14.861c4.418 0 8 3.582 8 8v103.335c0 4.418-3.582 8-8 8z" fill="#54469c"/></g><g><path d="m95.889 335.559v-103.335c0-4.183 3.211-7.611 7.302-7.965-.23-.02-.462-.035-.698-.035h-14.861c-4.418 0-8 3.582-8 8v103.335c0 4.418 3.582 8 8 8h14.861c.236 0 .467-.015.698-.035-4.091-.354-7.302-3.782-7.302-7.965z" fill="#463b84"/></g></g><g><path d="m239.356 247.166v73.451c14.727-2.204 26.023-14.905 26.023-30.246v-12.958c0-15.342-11.296-28.043-26.023-30.247z" fill="#fe7701"/><path d="m239.356 304v16.617c14.727-2.204 26.023-14.905 26.023-30.246v-12.958c0-.615-.025-1.224-.06-1.829-.858 14.511-11.826 26.301-25.963 28.416z" fill="#f46700"/><g><path d="m217.494 224.224h14.861c4.418 0 8 3.582 8 8v103.335c0 4.418-3.582 8-8 8h-14.861c-4.418 0-8-3.582-8-8v-103.335c0-4.418 3.582-8 8-8z" fill="#54469c"/></g><g><path d="m225.889 335.559v-103.335c0-4.16 3.175-7.575 7.234-7.961-.252-.024-.508-.039-.766-.039h-14.861c-4.418 0-8 3.582-8 8v103.335c0 4.418 3.582 8 8 8h14.861c.259 0 .514-.015.766-.039-4.059-.386-7.234-3.801-7.234-7.961z" fill="#463b84"/></g></g></g></g><g><g><circle cx="159.994" cy="136.509" fill="#fd4755" r="69.708"/></g><g><path d="m123.75 136.509c0-32.729 22.561-60.177 52.976-67.672-5.362-1.322-10.962-2.036-16.732-2.036-38.499 0-69.708 31.209-69.708 69.708s31.209 69.708 69.708 69.708c5.77 0 11.37-.714 16.732-2.036-30.415-7.495-52.976-34.943-52.976-67.672z" fill="#fb2b3a"/></g><g><path d="m190.757 132.179-44.771-25.849c-3.333-1.924-7.5.481-7.5 4.33v51.697c0 3.849 4.167 6.255 7.5 4.33l44.771-25.849c3.333-1.924 3.333-6.735 0-8.659z" fill="#fff"/></g><g><path d="m154.979 111.522-8.993-5.192c-3.333-1.924-7.5.481-7.5 4.33v51.697c0 3.849 4.167 6.254 7.5 4.33l8.993-5.192z" fill="#f2fbff"/></g></g><g><g><path d="m264.439 398.296h-165.118c-4.142 0-7.5-3.357-7.5-7.5s3.358-7.5 7.5-7.5h165.118c4.142 0 7.5 3.357 7.5 7.5s-3.358 7.5-7.5 7.5z" fill="#fff"/></g><g><path d="m74.905 398.296h-19.357c-4.142 0-7.5-3.357-7.5-7.5s3.358-7.5 7.5-7.5h19.357c4.142 0 7.5 3.357 7.5 7.5s-3.358 7.5-7.5 7.5z" fill="#fff"/></g></g><g><g><g><path d="m440.491 104.367c-1.919 0-3.839-.732-5.303-2.196-24.324-24.324-63.901-24.323-88.225 0-2.929 2.928-7.678 2.928-10.606 0-2.929-2.93-2.929-7.678 0-10.607 30.172-30.171 79.266-30.172 109.438 0 2.929 2.93 2.929 7.678 0 10.607-1.465 1.464-3.384 2.196-5.304 2.196z" fill="#99e6fc"/></g><g><path d="m419.747 131.63c-1.919 0-3.839-.732-5.303-2.196-6.23-6.23-14.529-9.661-23.369-9.661s-17.139 3.431-23.369 9.661c-2.929 2.928-7.678 2.928-10.606 0-2.929-2.93-2.929-7.678 0-10.606 9.063-9.063 21.129-14.055 33.976-14.055s24.913 4.991 33.976 14.055c2.929 2.929 2.929 7.677 0 10.606-1.466 1.463-3.386 2.196-5.305 2.196z" fill="#01d0fb"/></g></g></g></g></svg>