<svg id="Capa_1" enable-background="new 0 0 512 512" height="512" viewBox="0 0 512 512" width="512" xmlns="http://www.w3.org/2000/svg"><g><g><path d="m188.671 391.97-149.575-149.575-4.831-3.417-15.941 15.941c-5.978 5.978-5.978 15.67 0 21.649l170.346 170.346v-54.944z" fill="#54469c"/></g><g><circle cx="368.986" cy="180.928" fill="#fe7701" r="135.221"/></g><g><path d="m313.161 273.933c-31.537-19.001-52.676-53.579-52.676-93.005s21.14-74.004 52.677-93.005c20.065-21.142 46.872-35.827 76.942-40.563-6.883-1.084-13.935-1.653-21.117-1.653-74.561 0-135.221 60.66-135.221 135.221s60.66 135.221 135.221 135.221c7.183 0 14.234-.568 21.117-1.652-30.071-4.737-56.878-19.422-76.943-40.564z" fill="#f46700"/></g><path d="m262.887 145.152-57.107-57.106c-1.993-1.993-5.224-1.993-7.216 0l-26.464 26.464 1.087 2.5 60.624 60.624 2.612 1.198 26.465-26.465c1.992-1.992 1.992-5.223-.001-7.215z" fill="#fed2a4"/><g><path d="m368.986 289.43c-59.828 0-108.501-48.674-108.501-108.502s48.673-108.502 108.501-108.502c15.942 0 31.303 3.381 45.657 10.048 3.757 1.744 5.388 6.204 3.643 9.961s-6.204 5.39-9.961 3.643c-12.36-5.74-25.596-8.651-39.339-8.651-51.557 0-93.501 41.944-93.501 93.502s41.945 93.502 93.501 93.502c51.557 0 93.502-41.944 93.502-93.502 0-14.533-3.24-28.456-9.631-41.382-1.836-3.714-.314-8.212 3.399-10.048 3.714-1.831 8.211-.312 10.047 3.399 7.421 15.012 11.185 31.172 11.185 48.03 0 59.828-48.674 108.502-108.502 108.502z" fill="#fff"/></g><g><g><g><path d="m317.51 212.095c-4.142 0-7.5-3.357-7.5-7.5v-39.833h-5.046c-4.142 0-7.5-3.357-7.5-7.5s3.358-7.5 7.5-7.5h12.546c4.142 0 7.5 3.357 7.5 7.5v47.333c0 4.142-3.358 7.5-7.5 7.5z" fill="#fac600"/></g><g><path d="m355.399 212.095c-12.309 0-22.323-10.015-22.323-22.323v-17.688c0-12.309 10.014-22.322 22.323-22.322s22.323 10.014 22.323 22.322v17.688c0 12.308-10.014 22.323-22.323 22.323zm0-47.333c-4.038 0-7.323 3.285-7.323 7.322v17.688c0 4.038 3.285 7.323 7.323 7.323s7.323-3.285 7.323-7.323v-17.688c0-4.037-3.285-7.322-7.323-7.322z" fill="#fac600"/></g></g><path d="m424.241 176.185c-.042-.068-.09-.128-.134-.194l14.053-13.278c3.011-2.845 3.146-7.591.301-10.602-2.845-3.012-7.592-3.147-10.603-.301l-20.061 18.954v-13.503c0-4.143-3.358-7.5-7.5-7.5s-7.5 3.357-7.5 7.5v47.333c0 4.143 3.358 7.5 7.5 7.5s7.5-3.357 7.5-7.5v-13.194l5.187-4.901 13.648 22.043c1.419 2.292 3.873 3.553 6.384 3.553 1.347 0 2.711-.363 3.941-1.124 3.521-2.181 4.609-6.803 2.429-10.325z" fill="#fac600"/></g><g><path d="m193.099 135.509 30.073-30.073-17.391-17.391c-1.993-1.993-5.224-1.993-7.216 0l-26.465 26.465z" fill="#ffbd86"/></g><g><path d="m124.311 163.365 9.265 9.266c1.003 1.003 1.419 2.482 1.087 3.861l-2.324 9.648c-.494 2.052.125 4.253 1.618 5.744l29.15 29.15c1.153 1.152 2.686 1.787 4.316 1.787.102 0 .203-.013.305-.018l.251-18.435c.036-2.681 2.25-4.283 4.368-4.283.797 0 1.968.223 3.025 1.279l19.259 19.259 41.792-41.792-64.323-64.321-48.348 48.348c.19.163.379.328.559.507z" fill="#bbec6c"/></g><path d="m124.311 163.365 9.265 9.266c1.003 1.003 1.419 2.482 1.087 3.861l-2.324 9.648c-.494 2.052.125 4.253 1.618 5.744l1.383 1.383 57.759-57.759-20.999-20.998-48.348 48.348c.19.163.379.328.559.507z" fill="#a2e62e"/><g><path d="m34.265 238.979-15.941 15.941c-5.978 5.978-5.978 15.67 0 21.649l16.409 16.409c.466-3.133 1.887-6.152 4.299-8.564l20.333-20.333z" fill="#463b84"/></g><path d="m188.671 313.009c0-4.792 3.744-8.819 8.524-9.17l.927-.067v-4.805l-15.384-8.155c-9.759-5.173-15.729-15.248-15.578-26.293l.581-42.715c-1.447.091-2.883-.43-3.928-1.475l-29.15-29.15c-1.256-1.256-1.769-3.076-1.353-4.803l2.324-9.648c.416-1.727-.096-3.547-1.353-4.803l-9.265-9.265c-3.985-3.985-10.447-3.985-14.432 0l-41.91 41.91.444 1.858 26.529 26.529c7.383 7.383 11.449 17.199 11.449 27.641s-4.066 20.258-11.449 27.641l-5.355 5.355v1.414l98.378 98.378v-80.377z" fill="#f2fbff"/><g><path d="m135.635 176.727c.416-1.727-.096-3.547-1.353-4.803l-9.265-9.265c-3.985-3.985-10.447-3.985-14.432 0l-41.91 41.91 25.101 25.101 39.901-39.901c-.499-1.042-.645-2.237-.366-3.393z" fill="#c8effe"/></g><path d="m198.122 222.701-22.043-22.043c-3.334-3.334-9.036-1.017-9.1 3.697l-.818 60.15c-.155 11.367 6.065 21.866 16.11 27.19l15.852 8.403v-77.397z" fill="#01d0fb"/><path d="m197.113 286.609c-10.045-5.325-16.265-15.823-16.11-27.19l.723-53.114-5.647-5.647c-3.334-3.334-9.036-1.017-9.1 3.697l-.818 60.15c-.155 11.367 6.065 21.866 16.11 27.19l15.852 8.403v-12.955z" fill="#01c0fa"/><path d="m282.986 192.935h-80.761c-2.818 0-5.103 2.284-5.103 5.103v37.427l2.835 1h85.465l2.666-1v-37.427c0-2.818-2.284-5.103-5.102-5.103z" fill="#fed2a4"/><g><path d="m96.355 232.249-27.68-27.68-34.41 34.41 56.028 56.028 6.062-6.062c15.657-15.657 15.657-41.04 0-56.696z" fill="#fac600"/></g><g><path d="m39.689 216.575h48.664v35.498h-48.664z" fill="#e8b800" transform="matrix(.707 -.707 .707 .707 -146.941 113.902)"/></g><path d="m231.034 198.038c0-2.818 2.285-5.103 5.103-5.103h-33.912c-2.818 0-5.103 2.284-5.103 5.103v37.427h33.912z" fill="#ffbd86"/><path d="m197.876 303.804h13.102c1.419 0 2.76.752 3.5 1.961l5.179 8.466c1.101 1.8 3.095 2.918 5.206 2.918h41.224c1.415 0 2.799-.505 3.899-1.421l.794-.662-9.691-10.873c-1.429-1.471-1.381-3.277-.87-4.489s1.773-2.507 3.78-2.507h24.088v-61.731h-90.966v68.377c.251-.021.501-.039.755-.039z" fill="#bbec6c"/><path d="m197.876 303.804h13.102c1.419 0 2.76.752 3.5 1.961l5.179 8.466c1.101 1.8 3.095 2.918 5.206 2.918h6.171v-81.684h-33.912v68.377c.25-.02.5-.038.754-.038z" fill="#a2e62e"/><path d="m386.309 421.941v-1l1-1.734v-58.319l-1-1.983-38.201-11.944-3.222-.056-18.752 5.759c-2.668.819-5.434 1.235-8.219 1.235-7.517 0-14.834-3.09-20.076-8.477l-26.392-29.611-2.1-.853c-.904.753-2.049 1.189-3.259 1.189h-41.224c-1.777 0-3.426-.924-4.353-2.44l-5.179-8.466c-.927-1.516-2.576-2.44-4.353-2.44h-13.102c-5.636 0-10.205 4.569-10.205 10.205v107.933l1 1h197.637z" fill="#f2fbff"/><path d="m221.557 314.92c-.403-.344-.762-.746-1.047-1.211l-5.179-8.466c-.927-1.516-2.576-2.44-4.353-2.44h-13.102c-5.636 0-10.205 4.569-10.205 10.205v59.269h33.886z" fill="#c8effe"/><g><path d="m226.817 372.278h-39.146v48.663h79.236v-8.574c0-22.14-17.949-40.089-40.09-40.089z" fill="#fac600"/></g><g><path d="m187.671 372.278h33.886v48.664h-33.886z" fill="#e8b800"/></g><g><path d="m326.177 333.232-33.957-35.492c-.943-.986-2.248-1.543-3.613-1.543h-24.607c-4.513 0-6.804 5.427-3.657 8.661l36.778 41.263c7.589 7.798 18.904 10.694 29.306 7.499l21.681-6.658c-8.369-2.617-15.922-7.346-21.931-13.73z" fill="#01d0fb"/></g><path d="m314.013 346.12-36.778-41.263c-3.147-3.234-.856-8.661 3.657-8.661h-16.892c-4.513 0-6.804 5.427-3.657 8.661l36.778 41.263c7.578 7.787 18.87 10.683 29.259 7.512-4.607-1.398-8.882-3.931-12.367-7.512z" fill="#01c0fa"/><path d="m462 421.941 2.114-1c0-21.941-10.471-40.983-30.403-47.215l-47.402-14.821v63.036z" fill="#c8effe"/><path d="m187.671 420.941h276.443v31.352h-276.443z" fill="#54469c"/><path d="m187.671 420.941h33.886v31.352h-33.886z" fill="#463b84"/><g><path d="m504.5 466.293h-497c-4.142 0-7.5-3.357-7.5-7.5s3.358-7.5 7.5-7.5h497c4.142 0 7.5 3.357 7.5 7.5s-3.358 7.5-7.5 7.5z" fill="#8bc727"/></g></g></svg>