<svg id="Capa_1" enable-background="new 0 0 512 512" height="512" viewBox="0 0 512 512" width="512" xmlns="http://www.w3.org/2000/svg"><g><path d="m371.228 461.006h-18.812l.653 2.31v31.686h18.159c5.667 0 10.26-4.594 10.26-10.26v-13.476c0-5.666-4.593-10.26-10.26-10.26z" fill="#fed2a4"/><g><g><path d="m288.587 198.574-.643.261v23.59h61.861c-6.993-22.007-18.945-39.111-32.44-46.966-6.936 10.129-16.809 18.259-28.778 23.115z" fill="#fe7701"/></g><path d="m482.2 346.806-14.607-19.709c-1.148-11.121-6.776-22.994-16.495-32.714-9.716-9.716-21.584-15.342-32.701-16.493-1.151-11.118-6.778-22.986-16.494-32.701-9.719-9.72-21.593-15.347-32.714-16.495l-.47-.054c-1.367-.126-2.72-.177-4.057-.166v82.83l50.453 43.003c2.2 1.875 2.356 5.219.341 7.292l-70.619 72.609 8.231 29.108v11.81l.383.383 126.582-105.399c6.559-6.08 7.492-16.12 2.167-23.304z" fill="#fed2a4"/><path d="m445.587 361.193c4.152-4.269 3.83-11.16-.702-15.023l-42.525-36.246c-2.296-1.957-3.619-4.823-3.619-7.84v-59.836c-9.068-7.911-19.608-12.528-29.551-13.555l-.47-.054c-1.367-.126-2.72-.177-4.057-.166v82.83l50.453 43.003c2.2 1.875 2.356 5.219.341 7.292l-70.619 72.609 8.231 29.108v11.81l.383.383 21.031-17.511-4.499-4.499c-3.984-3.984-4.028-10.428-.101-14.467z" fill="#ffbd86"/><path d="m104.212 414.938c0-18.734 7.361-35.771 19.324-48.409l-17.691-40.576c-1.263-2.896.444-6.222 3.532-6.886l55.085-11.847v-76.358c-2.85.409-5.73 1.016-8.616 1.857-13.192 3.843-23.834 11.54-30.192 20.732-10.3-4.339-23.411-5.116-36.603-1.273-13.197 3.845-23.843 11.546-30.2 20.743l-22.287 10.25c-8.125 3.737-12.137 12.988-9.312 21.472l76.984 111.228c-.004-.312-.024-.621-.024-.933z" fill="#fed2a4"/><path d="m104.212 414.938c0-11.712 2.887-22.756 7.963-32.485l-64.468-93.144c-1.266-3.803-1.149-7.758.087-11.303l-11.23 5.165c-8.125 3.737-12.137 12.988-9.312 21.472l76.984 111.228c-.004-.312-.024-.621-.024-.933z" fill="#ffbd86"/><path d="m245.19 414.938c0 18.651-7.294 35.62-19.163 48.241h128.042l-14.517-51.339c-2.7-9.548-3.498-19.449-2.357-29.246l2.996-25.733c-4.68 1.945-9.807 3.025-15.182 3.025h-106.362c16.162 12.926 26.543 32.794 26.543 55.052z" fill="#fed2a4"/><path d="m359.881 221.395h-36.035l-1.362 1-14.358 45.767c-2.16 6.889-8.463 11.517-15.683 11.517h-55.762c-7.219 0-13.522-4.628-15.683-11.517l-14.358-45.767-1.362-1h-36.035c-3.21 0-5.812 2.602-5.812 5.812v92.994c0 9.123 3.003 17.544 8.074 24.33 1.06-.047 2.124-.081 3.196-.081 17.18 0 32.937 6.185 45.181 16.436h105.127c22.47 0 40.685-18.215 40.685-40.685v-92.994c-.001-3.21-2.603-5.812-5.813-5.812z" fill="#54469c"/><g><g><path d="m298.163 444.812c-4.143 0-7.5-3.357-7.5-7.5v-21.708c0-6.048-4.921-10.969-10.969-10.969-4.143 0-7.5-3.357-7.5-7.5s3.357-7.5 7.5-7.5c14.319 0 25.969 11.649 25.969 25.969v21.708c0 4.142-3.357 7.5-7.5 7.5z" fill="#ffbd86"/></g></g><path d="m226.027 463.178c-12.79 13.6-30.896 22.139-50.971 22.24v21.431c0 2.845 2.306 5.151 5.151 5.151h168.711c2.845 0 5.151-2.306 5.151-5.151v-43.671z" fill="#54469c"/><path d="m209.881 506.849v-30.868c-10.266 5.939-22.15 9.374-34.824 9.437v21.431c0 2.845 2.306 5.151 5.151 5.151h34.824c-2.845 0-5.151-2.306-5.151-5.151z" fill="#463b84"/><path d="m174.701 344.449c17.18 0 32.937 6.185 45.181 16.436h19.113c-22.47 0-40.685-18.215-40.685-40.685v-92.994c0-3.21 2.602-5.812 5.812-5.812h-34.878c-3.21 0-5.812 2.602-5.812 5.812v92.994c0 9.123 3.003 17.544 8.074 24.33 1.06-.047 2.124-.081 3.195-.081z" fill="#463b84"/><g fill="#ffbd86"><path d="m239.181 227.553 25.381 56.167 25.352-56.103 1.715-6.222h-2.656v-22.989c-7.527 3.121-15.769 4.853-24.411 4.853s-16.884-1.732-24.411-4.853v22.989h-2.656z"/><path d="m308.109 221.395-26.803 59.283h11.138c7.619 0 14.356-4.947 16.637-12.217l14.766-47.066z"/><path d="m221.526 221.395h-16.247l14.766 47.066c2.281 7.27 9.018 12.217 16.637 12.217h11.275z"/></g><g fill="#f6a96c"><path d="m237.496 221.395 7.871 17.417h10.384c5.69 0 10.302-4.612 10.302-10.302v-25.289c-.497.012-.99.037-1.49.037-8.642 0-16.884-1.732-24.411-4.853v22.989z"/><path d="m221.526 221.395h-16.247l14.766 47.066c2.281 7.27 9.018 12.217 16.637 12.217h7.632l-8.65-27.573z"/></g><g><path d="m187.972 104.714h13.149c1.275-4.594 4.76-8.346 9.472-9.868l84.567-27.321c1.469-.475 2.976-.715 4.478-.715.918 0 1.831.092 2.714.271 13.951 2.851 26.189 19.555 26.189 35.747v1.886h12.612c5.338 0 10.288 1.681 14.359 4.533v-18.297c0-50.23-40.72-90.95-90.95-90.95-50.23 0-90.95 40.72-90.95 90.95v18.297c4.072-2.852 9.022-4.533 14.36-4.533z" fill="#fe7701"/><path d="m187.972 104.714h13.149c1.275-4.594 4.76-8.346 9.472-9.868l6.702-2.165v-1.73c0-42.7 29.429-78.521 69.109-88.303-6.997-1.727-14.311-2.648-21.841-2.648-50.23 0-90.95 40.719-90.95 90.95v18.297c4.071-2.852 9.021-4.533 14.359-4.533z" fill="#f46700"/><g><path d="m200.584 139.311v-30.712c0-1.705.304-3.349.854-4.885h-13.466c-14.41 0-26.092 11.682-26.092 26.092v3.266c0 14.41 11.682 26.092 26.092 26.092h15.781c-2.047-6.255-3.169-12.924-3.169-19.853z" fill="#f6a96c"/><path d="m341.153 103.713h-12.612v35.597c0 6.929-1.122 13.598-3.169 19.853h15.781c14.41 0 26.092-11.682 26.092-26.092v-3.266c0-14.41-11.682-26.092-26.092-26.092z" fill="#ffbd86"/></g><g><path d="m294.852 66.573-84.566 27.321c-6.379 2.061-10.702 8-10.702 14.704v30.711c0 35.887 29.092 64.978 64.978 64.978 35.887 0 64.978-29.092 64.978-64.978v-36.482c0-15.913-11.714-33.606-26.989-36.726-2.558-.522-5.213-.331-7.699.472z" fill="#fed2a4"/></g><g><g><path d="m234.366 139.31v-48.139c0-1.898.357-3.706.999-5.379l-25.078 8.102c-6.379 2.061-10.702 8.001-10.702 14.704v30.711c0 35.887 29.092 64.978 64.978 64.978 6.026 0 11.854-.838 17.391-2.373-27.439-7.605-47.588-32.743-47.588-62.604z" fill="#ffbd86"/></g></g><g fill="#bb5d4c"><path d="m239.261 118.837v-11.928c0-4.143-3.358-7.5-7.5-7.5s-7.5 3.357-7.5 7.5v11.928c0 4.143 3.358 7.5 7.5 7.5s7.5-3.358 7.5-7.5z"/><path d="m297.364 99.409c-4.143 0-7.5 3.357-7.5 7.5v11.928c0 4.143 3.357 7.5 7.5 7.5s7.5-3.357 7.5-7.5v-11.928c0-4.142-3.357-7.5-7.5-7.5z"/><path d="m251.206 139.27 8.946 6.506c1.332.969 2.875 1.436 4.405 1.436 2.317-.001 4.604-1.071 6.071-3.09 2.437-3.35 1.695-8.04-1.654-10.477l-2.65-1.928 4.137-5.265c2.559-3.257 1.993-7.972-1.264-10.531-3.257-2.558-7.973-1.993-10.531 1.264l-8.946 11.386c-1.259 1.603-1.812 3.647-1.531 5.666.279 2.017 1.369 3.834 3.017 5.033z"/><path d="m279.29 158.904c-3.938 3.938-9.169 6.108-14.728 6.108-5.56 0-10.79-2.17-14.728-6.107-2.928-2.93-7.677-2.929-10.606-.001-2.929 2.929-2.929 7.678 0 10.606 6.771 6.772 15.769 10.502 25.334 10.502s18.562-3.729 25.335-10.501c2.929-2.93 2.929-7.678 0-10.607-2.929-2.927-7.677-2.927-10.607 0z"/></g></g><g><circle cx="174.701" cy="414.938" fill="#62dbfb" r="71.489"/></g><g><path d="m137.747 414.938c0-33.527 23.084-61.651 54.222-69.376-5.531-1.372-11.312-2.112-17.267-2.112-39.482 0-71.489 32.007-71.489 71.489s32.007 71.489 71.489 71.489c5.955 0 11.736-.74 17.267-2.112-31.138-7.727-54.222-35.851-54.222-69.378z" fill="#01d0fb"/></g><g><circle cx="174.701" cy="414.938" fill="#dff6fd" r="42.428"/></g><g><circle cx="174.701" cy="414.938" fill="#54469c" r="14.53"/></g><path d="m264.563 299.563c2.665 0 5.2.556 7.504 1.551l36.043-79.719h-16.48l-27.066 59.897-27.067-59.897h-15.97l35.54 79.716c2.301-.993 4.834-1.548 7.496-1.548z" fill="#fd4755"/><g><circle cx="264.563" cy="318.563" fill="#fac600" r="20"/></g><g><path d="m264.185 318.563c0-7.478 4.111-13.986 10.189-17.417-2.9-1.637-6.243-2.583-9.811-2.583-11.046 0-20 8.954-20 20s8.954 20 20 20c3.568 0 6.911-.945 9.811-2.583-6.078-3.431-10.189-9.939-10.189-17.417z" fill="#e8b800"/></g></g></g></svg>