<svg id="Capa_1" enable-background="new 0 0 512 512" height="512" viewBox="0 0 512 512" width="512" xmlns="http://www.w3.org/2000/svg"><g><g><g><path d="m496.29 232.37h-120.531c-2.845 0-5.151 2.306-5.151 5.151v54.6l2.749 1h125.574l2.51-1v-54.6c0-2.845-2.306-5.151-5.151-5.151z" fill="#c8effe"/><g><path d="m405.376 292.12v-54.6c0-2.845 2.306-5.151 5.151-5.151h-34.769c-2.845 0-5.151 2.306-5.151 5.151v54.6z" fill="#99e6fc"/></g><path d="m431.645 420.602c0 2.883-.197 5.874-.587 8.891l-.146 1.128h37.645c3.584 0 6.5 2.916 6.5 6.5s-2.916 6.5-6.5 6.5h-19.369l-6.28 17.793 3.038 1h51.718l3.777-1v-169.294h-130.833v69.878c3.186-.726 6.473-1.118 9.838-1.118 28.231.001 51.199 26.792 51.199 59.722z" fill="#fff3de"/><path d="m380.445 360.881c9.047 0 17.548 2.762 24.931 7.585v-76.346h-34.769v69.878c3.186-.726 6.473-1.117 9.838-1.117z" fill="#ffe5c2"/><path d="m442.907 461.413-14.06 39.834h67.442c2.845 0 5.151-2.306 5.151-5.151v-34.683z" fill="#62dbfb"/></g><g><path d="m217.635 130.107c5.129 0 10.138.52 14.98 1.506v-38.022h-161.077v38.023c4.842-.986 9.851-1.506 14.979-1.506h131.118z" fill="#62dbfb"/><path d="m114.865 130.107v-36.516h-43.327v38.023c4.842-.986 9.851-1.506 14.979-1.506h28.348z" fill="#01d0fb"/><g><path d="m244.953 94.591h-185.754c-2.717 0-4.919-2.202-4.919-4.919v-41.936c0-2.717 2.202-4.919 4.919-4.919h185.754c2.717 0 4.919 2.202 4.919 4.919v41.936c.001 2.717-2.202 4.919-4.919 4.919z" fill="#fe7701"/></g><g><path d="m98.382 89.672v-41.936c0-2.717 2.202-4.919 4.919-4.919h-44.102c-2.717 0-4.919 2.202-4.919 4.919v41.936c0 2.717 2.202 4.92 4.919 4.92h44.102c-2.716-.001-4.919-2.203-4.919-4.92z" fill="#f46700"/></g><g fill="#99e6fc"><path d="m118.936 443.62h-19.37c-3.584 0-6.5-2.916-6.5-6.5s2.916-6.5 6.5-6.5h37.643l-.145-1.128c-.389-3.02-.586-6.011-.586-8.891 0-5.953.76-11.701 2.157-17.131h-126.635l-1.441 1v58.294c0 6.354 5.151 11.505 11.505 11.505h107.689z"/><path d="m217.635 129.107h-131.117c-41.951 0-75.958 34.008-75.958 75.958v26.823l.441 1h282l.594-1v-26.824c-.001-41.949-34.009-75.957-75.96-75.957z"/></g><path d="m187.678 360.881c20.664 0 39.195 14.361 47.211 36.588l.94 2.608.94-2.608c8.017-22.227 26.549-36.588 47.212-36.588 3.286 0 6.497.377 9.612 1.071v-31.184l-1.498-1h-138.441c-2.288 0-4.15-1.862-4.15-4.151v-48.44c0-2.288 1.862-4.15 4.15-4.15h137.913l2.027-1v-40.136h-202.496l-1 3.365v165.421l1 3.795h47.294c6.05-25.117 25.847-43.591 49.286-43.591z" fill="#f2fbff"/><g><path d="m54.085 462.765v-257.699c0-41.951 34.008-75.959 75.959-75.959h-43.526c-41.951 0-75.959 34.008-75.959 75.959v257.699c0 6.354 5.151 11.506 11.506 11.506h43.525c-6.354 0-11.505-5.151-11.505-11.506z" fill="#62dbfb"/></g><path d="m91.098 231.889h33.039v172.582h-33.039z" fill="#dff6fd"/><path d="m88.941 285.732h-75.727l-2.655 1v117.739h80.539v-117.739z" fill="#fe7701"/><path d="m10.559 286.732h43.525v117.739h-43.525z" fill="#f46700"/><g><path d="m293.593 272.026h-139.938c-2.845 0-5.151 2.306-5.151 5.151v48.44c0 2.845 2.306 5.151 5.151 5.151h139.939v-58.742z" fill="#fe7701"/></g><g><path d="m192.129 325.617v-48.44c0-2.845 2.306-5.151 5.151-5.151h-43.625c-2.845 0-5.151 2.306-5.151 5.151v48.44c0 2.845 2.306 5.151 5.151 5.151h43.625c-2.845 0-5.151-2.306-5.151-5.151z" fill="#f46700"/></g><g><path d="m10.559 231.889h80.538v54.843h-80.538z" fill="#8bc727"/></g><g><path d="m10.559 231.889h43.525v54.843h-43.525z" fill="#81b823"/></g></g><g><g><path d="m239.156 430.62c.466-3.26.72-6.604.72-10.018 0-33.535-23.37-60.721-52.199-60.721s-52.199 27.186-52.199 60.721c0 3.414.254 6.758.72 10.018z" fill="#fed2a4"/></g><g><path d="m171.207 430.62c-.465-3.259-.712-6.605-.712-10.018 0-26.389 14.476-48.837 34.691-57.21-5.474-2.267-11.365-3.511-17.508-3.511-28.829 0-52.199 27.186-52.199 60.721 0 3.414.254 6.758.72 10.018z" fill="#ffbd86"/></g><g><path d="m335.461 430.62c.466-3.26.72-6.604.72-10.018 0-33.535-23.37-60.721-52.199-60.721s-52.199 27.186-52.199 60.721c0 3.414.254 6.758.72 10.018z" fill="#fed2a4"/></g><g><path d="m267.014 430.62c-.465-3.259-.712-6.605-.712-10.018 0-26.497 14.595-49.016 34.94-57.308-5.404-2.202-11.209-3.414-17.26-3.414-28.829 0-52.199 27.186-52.199 60.721 0 3.414.254 6.758.72 10.018h34.511z" fill="#ffbd86"/></g><g><path d="m431.925 430.62c.466-3.26.72-6.604.72-10.018 0-33.535-23.37-60.721-52.199-60.721s-52.199 27.186-52.199 60.721c0 3.414.254 6.758.72 10.018z" fill="#ffbd86"/></g><g><path d="m363.851 430.62c-.465-3.259-.712-6.605-.712-10.018 0-26.416 14.505-48.881 34.753-57.234-5.457-2.251-11.326-3.487-17.446-3.487-28.829 0-52.199 27.186-52.199 60.721 0 3.414.254 6.758.72 10.018z" fill="#f6a96c"/></g></g><path d="m117.875 443.62 22.91 64.913c.733 2.078 2.697 3.467 4.901 3.467h56.63c2.294 0 4.317-1.504 4.977-3.701l2.93-9.748c.66-2.197 2.683-3.701 4.977-3.701h137.784c2.296 0 4.32 1.507 4.979 3.707l2.916 9.738c.659 2.199 2.683 3.706 4.979 3.706h56.579c2.204 0 4.167-1.39 4.901-3.467l22.91-64.913h-332.373z" fill="#e8b800"/><path d="m184.276 508.533-22.91-64.913h-43.491l22.91 64.913c.733 2.078 2.697 3.467 4.901 3.467h43.49c-2.203 0-4.166-1.39-4.9-3.467z" fill="#d7aa02"/><g><path d="m468.557 444.62h-368.991c-4.143 0-7.5-3.357-7.5-7.5s3.357-7.5 7.5-7.5h368.99c4.143 0 7.5 3.357 7.5 7.5s-3.357 7.5-7.499 7.5z" fill="#fac600"/></g></g><g><g><circle cx="398.298" cy="96.932" fill="#bbec6c" r="96.932"/></g><g><path d="m343.376 96.932c0-46.32 32.492-85.045 75.926-94.642-6.763-1.495-13.79-2.29-21.004-2.29-53.534 0-96.931 43.398-96.931 96.932s43.398 96.931 96.931 96.931c7.214 0 14.241-.795 21.005-2.289-43.434-9.597-75.927-48.322-75.927-94.642z" fill="#a2e62e"/></g><g><g><g><circle cx="365.783" cy="67.484" fill="#fff" r="17.178"/><path d="m365.783 92.162c-13.607 0-24.678-11.07-24.678-24.678s11.07-24.678 24.678-24.678 24.678 11.07 24.678 24.678-11.07 24.678-24.678 24.678zm0-34.355c-5.336 0-9.678 4.342-9.678 9.678s4.342 9.678 9.678 9.678 9.678-4.342 9.678-9.678-4.342-9.678-9.678-9.678z" fill="#81b823"/></g><g><circle cx="430.813" cy="126.379" fill="#fff" r="17.178"/><path d="m430.812 151.057c-13.607 0-24.678-11.07-24.678-24.678s11.07-24.678 24.678-24.678 24.678 11.07 24.678 24.678-11.07 24.678-24.678 24.678zm0-34.356c-5.336 0-9.678 4.342-9.678 9.678s4.342 9.678 9.678 9.678 9.678-4.342 9.678-9.678-4.342-9.678-9.678-9.678z" fill="#81b823"/></g></g><g><path d="m366.544 146.916c-1.567 0-3.147-.489-4.498-1.503-3.312-2.487-3.98-7.188-1.493-10.501l63.803-84.969c2.487-3.312 7.188-3.981 10.501-1.493 3.312 2.487 3.98 7.188 1.493 10.501l-63.803 84.969c-1.474 1.962-3.725 2.996-6.003 2.996z" fill="#81b823"/></g></g></g></g></svg>