<svg id="Capa_1" enable-background="new 0 0 512 512" height="512" viewBox="0 0 512 512" width="512" xmlns="http://www.w3.org/2000/svg"><g><path d="m490.28 327.393-52.385-71.146c-13.279-20.319-22.4-32.566-46.673-32.566h-9.469v77.303c7.9 3.739 16.404 5.358 24.597 4.782-1.998 12.596 6.336 33.454 22.236 36.896l-60.21 47.273v57.588l115.611-81.435c12.571-8.855 15.41-26.312 6.293-38.695z" fill="#fed2a4"/><path d="m417.579 293.341c-5.485-.222-11.022-1.399-16.346-3.509-1.887-.748-3.104-2.602-3.104-4.632v-61.142c-2.163-.246-4.454-.377-6.907-.377h-9.469v77.303c7.9 3.739 16.404 5.358 24.597 4.782-1.998 12.596 6.336 33.454 22.236 36.896l9.547-7.287c2.771-2.115 2.572-6.331-.372-8.199-9.509-6.032-14.945-18.77-15.307-28.921-.097-2.68-2.195-4.806-4.875-4.914z" fill="#ffbd86"/><path d="m188.758 463.923-3.771 1v42.077c0 2.761 2.239 5 5 5h174.388c2.761 0 5-2.239 5-5v-42.077l-3.625-1z" fill="#54469c"/><path d="m228.967 464.923h-43.98v42.077c0 2.761 2.239 5 5 5h38.98z" fill="#463b84"/><g fill="#ffbd86"><path d="m129.623 314.595c.107.195.227.38.321.584l.909 1.985.909-1.984c1.464-3.194 4.658-5.259 8.14-5.259s6.677 2.063 8.14 5.258l.909 1.985.909-1.984c1.464-3.194 4.658-5.259 8.14-5.259s6.677 2.063 8.14 5.258l.909 1.985.909-1.985c1.143-2.496 3.348-4.284 5.916-4.955v-85.865c-2.305-.439-4.679-.678-7.107-.678-20.988 0-38.16 17.172-38.16 38.16v11.448c0 9.551 3.564 18.304 9.417 25.016-4.015 4.603-6.952 10.167-8.401 16.29z"/><path d="m185.051 347.537v3.411c0 7.542-6.137 13.679-13.679 13.679h-1.568v75.778c0 1.353-.14 2.672-.387 3.953 6.005-.433 11.636-2.32 16.571-5.296v-91.526h-.937z"/></g><path d="m173.873 226.008v-1.636c-2.305-.442-4.677-.691-7.107-.691-20.988 0-38.16 17.172-38.16 38.16v11.448c0 9.551 3.564 18.304 9.417 25.016-3.715 4.26-6.503 9.344-8.048 14.931.334.482.631.99.877 1.527 1.574-3.436 5.04-5.842 9.049-5.842s7.475 2.406 9.049 5.842c.363-.793.837-1.523 1.385-2.19 1.578-5.326 4.289-10.178 7.856-14.269-5.853-6.712-9.417-15.465-9.417-25.016v-11.448c.001-16.404 10.495-30.468 25.099-35.832z" fill="#f6a96c"/><g><g><path d="m377.453 216.039h-77.004v12.108c0 12.481-10.154 22.636-22.636 22.636s-22.637-10.154-22.637-22.636v-12.108h-77.003c-2.927 0-5.3 2.373-5.3 5.3v89.935c0 11.954 3.627 23.714 10.544 34.188l1.569 2.376v117.084h184.388v-117.084l1-1.372c8.096-11.1 12.377-23.839 12.377-36.827v-88.3c.002-2.927-2.371-5.3-5.298-5.3z" fill="#8bc727"/><g><path d="m227.397 345.462c-6.917-10.474-10.544-22.234-10.544-34.188v-89.935c0-2.927 2.373-5.3 5.3-5.3h-43.98c-2.927 0-5.3 2.373-5.3 5.3v89.935c0 11.954 3.627 23.715 10.544 34.188l1.569 2.376v117.085h43.98v-117.085z" fill="#81b823"/></g><g><path d="m295.708 197.928h-35.79c-1.947 0-3.861-.14-5.741-.387v30.606c0 13.054 10.582 23.636 23.636 23.636 13.054 0 23.636-10.582 23.636-23.636v-30.606c-1.881.246-3.794.387-5.741.387z" fill="#ffbd86"/></g><g><g><path d="m276.604 228.147v-30.219h-16.685c-1.947 0-3.861-.14-5.741-.387v30.606c0 13.054 10.582 23.636 23.636 23.636 4.058 0 7.876-1.024 11.213-2.825-7.397-3.995-12.423-11.816-12.423-20.811z" fill="#f6a96c"/></g></g><g><path d="m202.166 102.871h13.731v-10.64c0-8.758 7.125-15.883 15.883-15.883h92.066c8.758 0 15.883 7.125 15.883 15.883v10.64h13.731c4.578 0 8.841 1.362 12.415 3.696v-38.499c.001-37.593-30.474-68.068-68.067-68.068h-76.642c-17.351 0-31.416 14.065-31.416 31.416v75.152c3.574-2.334 7.838-3.697 12.416-3.697z" fill="#bb5d4c"/><path d="m202.166 102.871h13.731v-10.64c0-3.949 1.458-7.559 3.853-10.34v-50.475c0-17.351 14.065-31.416 31.416-31.416h-30c-17.351 0-31.416 14.065-31.416 31.416v75.152c3.574-2.334 7.838-3.697 12.416-3.697z" fill="#a44f3e"/><g fill="#a44f3e"><path d="m285.135 76.349h21.215l-33.316-33.316c-2.93-2.928-7.678-2.928-10.607 0-2.929 2.93-2.929 7.678 0 10.607z"/><path d="m247.43 76.349h21.215l-33.316-33.316c-2.93-2.928-7.678-2.928-10.607 0-2.929 2.93-2.929 7.678 0 10.607z"/></g><g><path d="m215.897 101.872h-13.732c-13.131 0-23.775 10.645-23.775 23.775 0 13.131 10.645 23.775 23.775 23.775h13.732z" fill="#f6a96c"/><path d="m353.461 101.872h-13.731v47.55h13.731c13.131 0 23.775-10.645 23.775-23.775 0-13.131-10.645-23.775-23.775-23.775z" fill="#ffbd86"/></g><g><path d="m214.897 92.231v61.705c0 24.864 20.157 45.021 45.021 45.021h35.79c24.864 0 45.021-20.157 45.021-45.021v-61.705c0-9.324-7.559-16.883-16.883-16.883h-92.066c-9.324 0-16.883 7.559-16.883 16.883z" fill="#fed2a4"/></g><g><path d="m241.428 153.936v-61.705c0-9.324 7.559-16.883 16.883-16.883h-26.53c-9.324 0-16.883 7.559-16.883 16.883v61.705c0 24.864 20.157 45.021 45.021 45.021h26.53c-24.865 0-45.021-20.156-45.021-45.021z" fill="#ffbd86"/></g><g fill="#bb5d4c"><path d="m253.553 118.807v-11.55c0-4.143-3.357-7.5-7.5-7.5s-7.5 3.357-7.5 7.5v11.55c0 4.143 3.357 7.5 7.5 7.5s7.5-3.358 7.5-7.5z"/><path d="m309.573 99.757c-4.143 0-7.5 3.357-7.5 7.5v11.55c0 4.143 3.357 7.5 7.5 7.5s7.5-3.357 7.5-7.5v-11.55c0-4.143-3.357-7.5-7.5-7.5z"/><path d="m264.74 138.783 8.662 6.3c1.332.969 2.875 1.436 4.405 1.436 2.317-.001 4.604-1.071 6.071-3.09 2.437-3.35 1.695-8.04-1.654-10.477l-2.366-1.722 3.853-4.903c2.559-3.257 1.993-7.972-1.264-10.531-3.257-2.558-7.973-1.994-10.531 1.264l-8.662 11.024c-1.259 1.603-1.812 3.647-1.531 5.666.28 2.018 1.369 3.835 3.017 5.033z"/><path d="m291.905 154.846c-7.77 7.771-20.414 7.771-28.184 0-2.93-2.928-7.678-2.928-10.607 0-2.929 2.93-2.929 7.678 0 10.607 6.81 6.809 15.755 10.214 24.699 10.214s17.89-3.405 24.699-10.214c2.929-2.93 2.929-7.678 0-10.607-2.929-2.928-7.677-2.928-10.607 0z"/></g></g></g></g><g><g><g fill="#c2bce0"><path d="m91.35 324.184h21.501v26.18h-21.501z"/><path d="m185.051 324.184h21.396v26.18h-21.396z"/></g><g><path d="m48.217 304.131h-16.133c-8.675 0-15.708 7.033-15.708 15.708v34.871c0 8.675 7.033 15.708 15.708 15.708h16.133z" fill="#01d0fb"/><path d="m16.376 329.579v25.131c0 8.675 7.033 15.708 15.708 15.708h16.133v-25.131h-16.133c-8.676 0-15.708-7.033-15.708-15.708z" fill="#01c0fa"/><path d="m265.424 304.131h-15.741v66.287h15.741c8.675 0 15.708-7.033 15.708-15.708v-34.871c0-8.675-7.032-15.708-15.708-15.708z" fill="#01d0fb"/><path d="m265.424 345.287h-15.741v25.131h15.741c8.675 0 15.708-7.033 15.708-15.708v-25.131c0 8.675-7.032 15.708-15.708 15.708z" fill="#01c0fa"/></g><g><g><g><path d="m87.113 399.739h-34.66c-2.892 0-5.236-2.344-5.236-5.236v-114.458c0-2.892 2.344-5.236 5.236-5.236h34.66c2.892 0 5.236 2.344 5.236 5.236v114.458c0 2.892-2.344 5.236-5.236 5.236z" fill="#fd4755"/></g></g><g><path d="m68.703 394.503v-114.458c0-2.892 2.344-5.236 5.236-5.236h-21.486c-2.892 0-5.236 2.344-5.236 5.236v114.458c0 2.892 2.344 5.236 5.236 5.236h21.486c-2.892 0-5.236-2.344-5.236-5.236z" fill="#fb2b3a"/></g><g><g><path d="m245.448 399.739h-34.765c-2.892 0-5.236-2.344-5.236-5.236v-114.458c0-2.892 2.344-5.236 5.236-5.236h34.765c2.892 0 5.236 2.344 5.236 5.236v114.458c0 2.892-2.344 5.236-5.236 5.236z" fill="#fd4755"/></g></g><g><path d="m226.933 394.503v-114.458c0-2.892 2.344-5.236 5.236-5.236h-21.486c-2.892 0-5.236 2.344-5.236 5.236v114.458c0 2.892 2.344 5.236 5.236 5.236h21.486c-2.892 0-5.236-2.344-5.236-5.236z" fill="#fb2b3a"/></g></g></g><path d="m127.098 364.627v75.778c0 12.069 9.784 21.853 21.853 21.853 12.069 0 21.853-9.784 21.853-21.853v-75.778z" fill="#fed2a4"/><path d="m144.302 440.405v-75.778h-17.205v75.778c0 12.069 9.784 21.853 21.853 21.853 3.055 0 5.962-.631 8.602-1.764-7.79-3.34-13.25-11.075-13.25-20.089z" fill="#ffbd86"/><g><path d="m139.902 308.921c-4.009 0-7.475 2.406-9.049 5.842-1.653-3.61-5.397-6.084-9.664-5.823-5.298.324-9.338 4.903-9.338 10.211v31.797c0 8.107 6.572 14.678 14.678 14.678h44.843c8.107 0 14.678-6.572 14.678-14.678v-31.797c0-5.308-4.04-9.888-9.338-10.211-4.267-.261-8.01 2.213-9.664 5.823-1.573-3.435-5.04-5.842-9.049-5.842s-7.475 2.406-9.049 5.842c-1.573-3.435-5.04-5.842-9.048-5.842z" fill="#ffe5c2"/></g><g><g><path d="m138.533 350.949v-31.797c0-3.991 2.284-7.568 5.67-9.237-1.304-.632-2.76-.993-4.301-.993-4.009 0-7.475 2.406-9.049 5.842-1.653-3.61-5.397-6.084-9.664-5.823-5.298.324-9.339 4.904-9.339 10.212v31.797c0 8.107 6.572 14.678 14.678 14.678h26.682c-8.106-.001-14.677-6.573-14.677-14.679z" fill="#fed2a4"/></g></g></g><g><circle cx="328.597" cy="304.131" fill="#fff" r="19.897"/></g></g></svg>