<svg id="Layer_1" enable-background="new 0 0 510 510" height="512" viewBox="0 0 510 510" width="512" xmlns="http://www.w3.org/2000/svg"><g id="XMLID_346_"><path id="XMLID_1408_" d="m420 105 30 10 30-10v-60h-60l-11 30z" fill="#6599fe"/><path id="XMLID_1237_" d="m420 345h60v-60h-60l-11 30z" fill="#6599fe"/><path id="XMLID_1404_" d="m420 165h90v-60h-90l-10 30z" fill="#fd6c5f"/><path id="XMLID_1767_" d="m0 450 30-30 60-30 15-71-15-124-45-18-45 18z" fill="#983424"/><path id="XMLID_1764_" d="m90 0c-5.246 0-9.754 0-15 0-41.354 0-75 33.644-75 75v60l45 15 45-15 15-60z" fill="#983424"/><path id="XMLID_1761_" d="m0 135v60h90l19-30-19-30z" fill="#b1532b"/><path id="XMLID_1678_" d="m90 0v390l82.5 49.038 82.5-49.038 35-170.481-35-219.519z" fill="#ca7a33"/><path id="XMLID_1413_" d="m420 0h-165v390l82.5 15 82.5-15z" fill="#b1532b"/><path id="XMLID_1400_" d="m60 420c-16.568 0-30 13.432-30 30 0 16.568 13.431 30 30 30l97.5 10 97.5-10 10-30-10-30-97.5-10z" fill="#fff4f6"/><path id="XMLID_1399_" d="m390 420-67.5-10-67.5 10v60l67.5 10 67.5-10z" fill="#eae6f3"/><path id="XMLID_1397_" d="m60 480c-8.271 0-15.771-3.364-21.203-8.797-11.727-11.725-11.735-30.672 0-42.406 5.432-5.433 12.932-8.797 21.203-8.797h195l10-15-10-15c-10.822 0-184.178 0-195 0-33.083 0-60 26.915-60 60 0 33.083 26.915 60 60 60h195l10-15-10-15c-10.822 0-184.178 0-195 0z" fill="#b1532b"/><path id="XMLID_1384_" d="m255 390h165v30h-165z" fill="#983424"/><path id="XMLID_1345_" d="m255 480h165v30h-165z" fill="#983424"/><path id="XMLID_1125_" d="m135 75v90h120l18-41-18-49z" fill="#fff4f6"/><path id="XMLID_1023_" d="m255 75h105v90h-105z" fill="#eae6f3"/><g id="XMLID_1779_"><g><path id="XMLID_1087_" d="m135 210h105v30h-105z" fill="#ffdf3f"/></g></g><path id="XMLID_675_" d="m135 270v30h120l14-15-14-15z" fill="#ffdf3f"/><path id="XMLID_347_" d="m255 270h105v30h-105z" fill="#febf41"/></g></svg>