<svg id="Layer_1" enable-background="new 0 0 510 510" height="512" viewBox="0 0 510 510" width="512" xmlns="http://www.w3.org/2000/svg"><g><g id="XMLID_917_"><path id="XMLID_1083_" d="m75 0v480l87 17.5 93-17.5 30-225-30-255z" fill="#585f64"/><path id="XMLID_1080_" d="m435 0h-180v480l90 15 90-15z" fill="#474f54"/><path id="XMLID_1062_" d="m135 75v135h120l15-67.5-15-67.5z" fill="#474f54"/><path id="XMLID_1056_" d="m255 75h120v135h-120z" fill="#31383e"/><path id="XMLID_1048_" d="m165 105v75h90l15-37.5-15-37.5z" fill="#fff4f6"/><path id="XMLID_1045_" d="m255 105h90v75h-90z" fill="#eae6f3"/><g id="XMLID_1041_"><g><path id="XMLID_1033_" d="m135 255h60v30h-60z" fill="#ffdf3f"/></g></g><g id="XMLID_1017_"><g><g id="XMLID_1161_"><path d="m225 255v30h30l6-15-6-15z" fill="#ffdf3f"/></g><g id="XMLID_1159_"><path d="m255 255h30v30h-30z" fill="#febf41"/></g></g></g><g id="XMLID_984_"><g><path id="XMLID_1050_" d="m315 255h60v30h-60z" fill="#febf41"/></g></g><g id="XMLID_980_"><g><path id="XMLID_1061_" d="m135 330h60v30h-60z" fill="#ffdf3f"/></g></g><g id="XMLID_968_"><g><g id="XMLID_1183_"><path d="m225 330v30h30l11.333-15-11.333-15z" fill="#ffdf3f"/></g><g id="XMLID_1180_"><path d="m255 330h30v30h-30z" fill="#febf41"/></g></g></g><g id="XMLID_961_"><g><path id="XMLID_1071_" d="m315 330h60v30h-60z" fill="#febf41"/></g></g><g id="XMLID_957_"><g><path id="XMLID_1078_" d="m135 405h60v30h-60z" fill="#ffdf3f"/></g></g><g id="XMLID_918_"><g><g id="XMLID_1192_"><path d="m225 405v30h30l10.588-15-10.588-15z" fill="#fd6c5f"/></g><g id="XMLID_1185_"><path d="m255 405h120v30h-120z" fill="#fd465f"/></g></g></g></g><path d="m75 480v30h180l10-15-10-15z" fill="#474f54"/><path d="m255 480h180v30h-180z" fill="#31383e"/></g></svg>