<svg id="Layer_1" enable-background="new 0 0 510 510" height="512" viewBox="0 0 510 510" width="512" xmlns="http://www.w3.org/2000/svg"><g><g id="XMLID_1163_"><path id="XMLID_1305_" d="m75 75h-75v390l125 15 130-15 10-22-10-23z" fill="#ffdf3f"/><path id="XMLID_1302_" d="m510 75h-75l-180 345v45l129.667 15 125.333-15v-180z" fill="#febf41"/><path id="XMLID_1276_" d="m255 420h-180v-405h135c24.852 0 45 20.147 45 45l10 164.999z" fill="#fff4f6"/><path id="XMLID_1268_" d="m435 15c-16.333 0-118.559 0-135 0-24.853 0-45 20.146-45 45v180 180h180c0-11.419 0-393.581 0-405z" fill="#eae6f3"/><g id="XMLID_1255_"><g><g id="XMLID_875_"><path d="m120 150h90v30h-90z" fill="#99baff"/></g></g></g><g id="XMLID_1250_"><g><g id="XMLID_877_"><path d="m120 90h90v30h-90z" fill="#99baff"/></g></g></g><g id="XMLID_1245_"><g><g id="XMLID_823_"><path d="m120 210h90v30h-90z" fill="#99baff"/></g></g></g><g id="XMLID_1224_"><g><g id="XMLID_800_"><path d="m120 270h90v30h-90z" fill="#99baff"/></g></g></g><g id="XMLID_1203_"><g><path id="XMLID_809_" d="m120 330h90v30h-90z" fill="#99baff"/></g></g><g id="XMLID_1198_"><g><g id="XMLID_816_"><path d="m300 150h90v30h-90z" fill="#6599fe"/></g></g></g><g id="XMLID_1191_"><g><g id="XMLID_859_"><path d="m300 90h90v30h-90z" fill="#6599fe"/></g></g></g><g id="XMLID_1182_"><g><g id="XMLID_945_"><path d="m300 210h90v30h-90z" fill="#6599fe"/></g></g></g><g id="XMLID_1178_"><g><g id="XMLID_952_"><path d="m300 270h90v30h-90z" fill="#6599fe"/></g></g></g><g id="XMLID_1167_"><g><g id="XMLID_1004_"><path d="m300 330h90v30h-90z" fill="#6599fe"/></g></g></g></g><path d="m0 465v30h255l10-15-10-15z" fill="#febf41"/><path d="m255 465h255v30h-255z" fill="#ff9f41"/></g></svg>