<svg id="Layer_1" enable-background="new 0 0 510 510" height="512" viewBox="0 0 510 510" width="512" xmlns="http://www.w3.org/2000/svg"><g id="XMLID_1402_"><path id="XMLID_1541_" d="m120 0c-41.355 0-75 33.645-75 75v120l10 30-10 30v195l30-36 60-24 10-165-10-225z" fill="#e72d5a"/><g id="XMLID_1537_"><g><g id="XMLID_752_"><path d="m45 195h90v60h-90z" fill="#fd465f"/></g></g></g><path id="XMLID_1532_" d="m70.781 420v60l131.219 10 90.5-10 10-30-10-30-112.5-10z" fill="#fff4f6"/><path id="XMLID_1518_" d="m135 0v390l82.5 15 75-15 10-173-10-217z" fill="#fd6c5f"/><path id="XMLID_1511_" d="m292.5 0v390l64.834 6.824 107.666-6.824v-390z" fill="#fd465f"/><path id="XMLID_1506_" d="m180 150v82.5c0 62.031 50.467 112.5 112.5 112.5l10-100-10-95z" fill="#c4e83c"/><path id="XMLID_1495_" d="m292.5 150v195c62.029 0 112.5-50.467 112.5-112.5 0-9.975 0-72.459 0-82.5z" fill="#9ddb2c"/><g id="XMLID_1492_"><path id="XMLID_1493_" d="m240 210h30v30h-30z" fill="#585f64"/></g><g id="XMLID_1461_"><g><g id="XMLID_777_"><path d="m315 210h30v30h-30z" fill="#474f54"/></g></g></g><g id="XMLID_1454_"><g><path id="XMLID_786_" d="m180 90h75v30h-75z" fill="#ffdf3f"/></g></g><path id="XMLID_1450_" d="m435 420-79.001-10-63.499 10v60l71.25 10 71.25-10z" fill="#eae6f3"/><path id="XMLID_1449_" d="m105 420-30 30 30 30h187.5v-60z" fill="none"/><path id="XMLID_1440_" d="m75 450c0-16.542 13.458-30 30-30h187.5l10-15-10-15h-187.5c-33.084 0-60 26.916-60 60s26.916 60 60 60h187.5l10-15-10-15h-187.5c-16.542 0-30-13.458-30-30z" fill="#fd465f"/><g fill="#e72d5a"><path id="XMLID_1424_" d="m292.5 480h172.5v30h-172.5z"/><path id="XMLID_1409_" d="m292.5 390h172.5v30h-172.5z"/></g></g></svg>