<svg id="Layer_1" enable-background="new 0 0 510 510" height="512" viewBox="0 0 510 510" width="512" xmlns="http://www.w3.org/2000/svg"><g id="XMLID_1524_"><path id="XMLID_1936_" d="m75 0v60l10 15-10 15v210l10 12.979-10 17.021v30l10 15.058-10 14.942v120h60l10-300-10-210z" fill="#99baff"/><path id="XMLID_2950_" d="m195 120-10 198.75 10 191.25h60l10-180-10-210z" fill="#fd6c5f"/><g fill="#fd465f"><path id="XMLID_2976_" d="m315 120h-60v390h60l10-191.25z"/><path id="XMLID_2010_" d="m195 180v30h60l10-15-10-15z"/><path id="XMLID_2979_" d="m195 270h60l10-15-10-15h-60z"/><path id="XMLID_2997_" d="m240 330h15l10-15-10-15h-15z"/></g><path id="XMLID_2945_" d="m255 180h60v30h-60z" fill="#e72d5a"/><path id="XMLID_2947_" d="m255 240h60v30h-60z" fill="#e72d5a"/><path id="XMLID_3003_" d="m240 390h15l10-14.942-10-15.058h-15z" fill="#fd465f"/><path id="XMLID_2980_" d="m255 300h15v30h-15z" fill="#e72d5a"/><path id="XMLID_3037_" d="m195 450h60l10-13.25-10-16.75h-60z" fill="#fd465f"/><path id="XMLID_2998_" d="m255 360h15v30h-15z" fill="#e72d5a"/><path id="XMLID_1914_" d="m195 0h-60v510h60v-420l-10-15 10-15z" fill="#6599fe"/><path id="XMLID_3039_" d="m255 420h60v30h-60z" fill="#e72d5a"/><path id="XMLID_2938_" d="m315 0v60l10 15-10 15v420h60l10-262-10-248z" fill="#ffdf3f"/><path id="XMLID_2940_" d="m435 0h-60v510h60v-163.23l-10-16.77 10-17.021v-41.209l-10-16.77 10-16.91v-148.09l-10-15 10-15z" fill="#febf41"/><path id="XMLID_1938_" d="m75 390h60l10-15-10-15h-60z" fill="#6599fe"/><path id="XMLID_1994_" d="m75 330h60l10-15-10-15h-60z" fill="#6599fe"/><path id="XMLID_2011_" d="m120 450h15l10-15-10-15h-15z" fill="#6599fe"/><path id="XMLID_2056_" d="m75 60v30h60l10-15-10-15z" fill="#6599fe"/><g id="XMLID_1967_"><g><path id="XMLID_897_" d="m375 450h-15v-30h15l7.5 15z" fill="#febf41"/></g></g><g id="XMLID_1107_"><g><path id="XMLID_748_" d="m375 420h15v30h-15z" fill="#ff9f41"/></g></g><path id="XMLID_1521_" d="m315 406.885 6.708-3.469 53.292-26.646 7.5-22.437-7.5-11.104-60 30z" fill="#febf41"/><path id="XMLID_1525_" d="m435 346.77v-33.791l-6.708 3.605-53.292 26.645v33.541z" fill="#ff9f41"/><path id="XMLID_1787_" d="m315 331.458 6.708-3.042 53.292-26.646 9.333-21.437-9.333-12.104-60 30z" fill="#febf41"/><path id="XMLID_1789_" d="m435 271.77v-33.68l-6.708 3.493-53.292 26.646v33.541z" fill="#ff9f41"/><path id="XMLID_1795_" d="m315 60v30h60l10-15-10-15z" fill="#febf41"/><path id="XMLID_1797_" d="m375 60h60v30h-60z" fill="#ff9f41"/><path id="XMLID_1826_" d="m360 150h15l10-16.5-10-13.5h-15z" fill="#febf41"/><path id="XMLID_1832_" d="m360 210h15l7.5-15-7.5-15h-15z" fill="#febf41"/><path id="XMLID_1857_" d="m375 180h15v30h-15z" fill="#ff9f41"/><path id="XMLID_1989_" d="m135 360h60v30h-60z" fill="#3454ff"/><path id="XMLID_1991_" d="m135 300h60v30h-60z" fill="#3454ff"/><path id="XMLID_2009_" d="m135 420h15v30h-15z" fill="#3454ff"/><path id="XMLID_2939_" d="m135 60h60v30h-60z" fill="#3454ff"/><path id="XMLID_1821_" d="m375 120h15v30h-15z" fill="#ff9f41"/></g></svg>