<svg id="Layer_1" enable-background="new 0 0 510 510" height="512" viewBox="0 0 510 510" width="512" xmlns="http://www.w3.org/2000/svg"><g id="XMLID_1774_"><path id="XMLID_1887_" d="m120 0c-41.355 0-75 33.645-75 75v120l10 30-10 30v195l30-36 60-24 10-165-10-225z" fill="#76b743"/><g id="XMLID_1880_"><g><path id="XMLID_1008_" d="m45 195h90v60h-90z" fill="#9ddb2c"/></g></g><path id="XMLID_1868_" d="m70.781 420v60l131.219 10 90.5-10 10-30-10-30-112.5-10z" fill="#fff4f6"/><path id="XMLID_1858_" d="m135 0v390l82.5 15 75-15 10-173-10-217z" fill="#c4e83c"/><path id="XMLID_1854_" d="m292.5 0v390l64.834 6.824 107.666-6.824v-390z" fill="#9ddb2c"/><path id="XMLID_1851_" d="m435 420-79-10-63.5 10v60l71.25 10 71.25-10z" fill="#eae6f3"/><path id="XMLID_1850_" d="m105 420-30 30 30 30h187.5v-60z" fill="none"/><path id="XMLID_1847_" d="m75 450c0-16.542 13.458-30 30-30h187.5l10-15-10-15h-187.5c-33.084 0-60 26.916-60 60s26.916 60 60 60h187.5l10-15-10-15h-187.5c-16.542 0-30-13.458-30-30z" fill="#9ddb2c"/><path id="XMLID_1844_" d="m292.5 480h172.5v30h-172.5z" fill="#76b743"/><path id="XMLID_1841_" d="m292.5 390h172.5v30h-172.5z" fill="#76b743"/><g id="XMLID_1837_"><g><path id="XMLID_1003_" d="m180 60h75v30h-75z" fill="#fd6c5f"/></g></g><g id="XMLID_1833_"><g><path id="XMLID_1031_" d="m180 120h75v30h-75z" fill="#585f64"/></g></g><g id="XMLID_1827_"><g><path id="XMLID_1073_" d="m229.031 330h-49.031v-30h49.034l4.299 16.5z" fill="#fff4f6"/></g></g><path id="XMLID_1824_" d="m355.964 195h49.036v30h-49.036z" fill="#eae6f3"/><path id="XMLID_1823_" d="m279.667 315 1.298 15h11.535l10-15-10-15h-11.535z" fill="#fff4f6"/><path id="XMLID_1794_" d="m292.5 300h112.5v30h-112.5z" fill="#eae6f3"/><path id="XMLID_1791_" d="m180 195v30h112.5l10-15-10-15z" fill="#fff4f6"/><path id="XMLID_1784_" d="m292.5 195h11.536v30h-11.536z" fill="#eae6f3"/><circle id="XMLID_1781_" cx="255" cy="315" fill="#fd6c5f" r="30"/><circle id="XMLID_1775_" cx="330" cy="210" fill="#fd465f" r="30"/></g></svg>