<svg id="Layer_1" enable-background="new 0 0 510 510" height="512" viewBox="0 0 510 510" width="512" xmlns="http://www.w3.org/2000/svg"><g><g id="XMLID_1084_"><path id="XMLID_3411_" d="m204.333 0-26.666 65.667-72.667 33.333v231l30 60 120-15 10-162-10-213z" fill="#fff4f6"/><path id="XMLID_3304_" d="m255 0v375l120 15 30-60v-330z" fill="#eae6f3"/><path id="XMLID_3374_" d="m204.333 0h-.547l-98.786 98.786v.214h99.333z" fill="#eae6f3"/><path id="XMLID_3363_" d="m195 375-15-45h-180v150l120 10 135-10 10-30.419-10-74.581z" fill="#ca7a33"/><path id="XMLID_3412_" d="m510 330h-180l-15 45h-60v105l148.128 15 106.872-15z" fill="#b1532b"/><path id="XMLID_3414_" d="m165 165v30h90l10-15-10-15z" fill="#585f64"/><path id="XMLID_3415_" d="m255 165h90v30h-90z" fill="#474f54"/><path id="XMLID_3418_" d="m165 225v30h90l10-15-10-15z" fill="#585f64"/><path id="XMLID_3419_" d="m255 225h90v30h-90z" fill="#474f54"/><g id="XMLID_3361_"><g><g id="XMLID_756_"><path d="m60 405h75v30h-75z" fill="#b1532b"/></g></g></g><g id="XMLID_3352_"><g><path id="XMLID_982_" d="m255 105h90v30h-90z" fill="#474f54"/></g></g></g><path d="m0 480v30h255l10-15-10-15z" fill="#b1532b"/><path d="m255 480h255v30h-255z" fill="#983424"/></g></svg>