<svg id="Layer_1" enable-background="new 0 0 510 510" height="512" viewBox="0 0 510 510" width="512" xmlns="http://www.w3.org/2000/svg"><g id="XMLID_2030_"><path id="XMLID_2321_" d="m120 0c-41.355 0-75 33.645-75 75v120l10 30-10 30v195l30-36 60-24 10-165-10-225z" fill="#3454ff"/><g id="XMLID_2280_"><g><g id="XMLID_309_"><path d="m45 195h90v60h-90z" fill="#6599fe"/></g></g></g><path id="XMLID_2275_" d="m70.781 420v60l131.219 10 90.5-10 10-30-10-30-112.5-10z" fill="#fff4f6"/><path id="XMLID_2266_" d="m135 0v390l82.5 15 75-15 10-173-10-217z" fill="#99baff"/><path id="XMLID_2262_" d="m292.5 0v390l64.834 6.824 107.666-6.824v-390z" fill="#6599fe"/><path id="XMLID_2257_" d="m435 420-79-10-63.5 10v60l71.25 10 71.25-10z" fill="#eae6f3"/><path id="XMLID_2256_" d="m105 420-30 30 30 30h187.5v-60z" fill="none"/><path id="XMLID_2251_" d="m75 450c0-16.542 13.458-30 30-30h187.5l10-15-10-15h-187.5c-33.084 0-60 26.916-60 60s26.916 60 60 60h187.5l10-15-10-15h-187.5c-16.542 0-30-13.458-30-30z" fill="#6599fe"/><path id="XMLID_2224_" d="m292.5 480h172.5v30h-172.5z" fill="#3454ff"/><path id="XMLID_2209_" d="m292.5 390h172.5v30h-172.5z" fill="#3454ff"/><g id="XMLID_2150_"><g><path id="XMLID_303_" d="m210 240h-30v-60h60v30h-30z" fill="#585f64"/></g></g><g id="XMLID_2145_"><g><path id="XMLID_348_" d="m405 240h-30v-30h-30v-30h60z" fill="#474f54"/></g></g><g id="XMLID_2127_"><g><path id="XMLID_362_" d="m405 360h-60v-30h30v-30h30z" fill="#474f54"/></g></g><g id="XMLID_2120_"><g><path id="XMLID_615_" d="m240 360h-60v-60h30v30h30z" fill="#585f64"/></g></g><g id="XMLID_2107_"><g><path id="XMLID_632_" d="m240 240h30v60h-30z" fill="#585f64"/></g></g><g id="XMLID_2103_"><g><path id="XMLID_733_" d="m315 240h30v60h-30z" fill="#474f54"/></g></g><g id="XMLID_2068_"><g><g id="XMLID_990_"><path d="m180 60h75v30h-75z" fill="#fff4f6"/></g></g></g><g id="XMLID_2031_"><g><g id="XMLID_890_"><path d="m180 120h75v30h-75z" fill="#fff4f6"/></g></g></g></g></svg>