<svg id="Layer_1" enable-background="new 0 0 510 510" height="512" viewBox="0 0 510 510" width="512" xmlns="http://www.w3.org/2000/svg"><g><g id="XMLID_2487_"><path id="XMLID_2497_" d="m59.799 254.967-29.799 178.792v.62.621l109.667 27.333 115.333-27.333 15-83.833-15-96.167-96.354-15z" fill="#585f64"/><path id="XMLID_2494_" d="m480 433.759-29.793-178.759-98.854-15-96.353 15v180l112.5 27.333 112.5-27.333z" fill="#474f54"/><path id="XMLID_2491_" d="m30 435v45l110.667 15 114.333-15 11.333-7.5-11.333-37.5z" fill="#474f54"/><path id="XMLID_2488_" d="m480 435h-225v45l112.5 15 112.5-15z" fill="#31383e"/></g><path id="XMLID_2486_" d="m150 0v195l52.333 7.2 52.667-7.2 15-97.5-15-97.5z" fill="#fff4f6"/><path id="XMLID_2468_" d="m360 0h-105v195l45 12.667 60-12.667z" fill="#eae6f3"/><g id="XMLID_2464_"><g><path id="XMLID_448_" d="m75.6 202.2-15.6-7.2v-90h60v30h-30v60z" fill="#585f64"/></g></g><g id="XMLID_2460_"><g><g id="XMLID_492_"><path d="m180 300h30v30h-30z" fill="#fff4f6"/></g></g></g><g id="XMLID_2456_"><g><path id="XMLID_490_" d="m120 300h30v30h-30z" fill="#fff4f6"/></g></g><path id="XMLID_2453_" d="m240 300v30h15l7.5-15-7.5-15z" fill="#fff4f6"/><path id="XMLID_2450_" d="m255 300h15v30h-15z" fill="#eae6f3"/><g id="XMLID_2445_"><g><path id="XMLID_487_" d="m300 300h30v30h-30z" fill="#eae6f3"/></g></g><g id="XMLID_2422_"><g><g id="XMLID_479_"><path d="m360 300h30v30h-30z" fill="#eae6f3"/></g></g></g><g id="XMLID_2418_"><g><path id="XMLID_457_" d="m360 360h30v30h-30z" fill="#eae6f3"/></g></g><g id="XMLID_2408_"><path id="XMLID_2409_" d="m300 360h30v30h-30z" fill="#eae6f3"/></g><path id="XMLID_2405_" d="m240 360v30h15l7.5-15-7.5-15z" fill="#fff4f6"/><path id="XMLID_2402_" d="m255 360h15v30h-15z" fill="#eae6f3"/><g id="XMLID_2397_"><g><path id="XMLID_358_" d="m180 360h30v30h-30z" fill="#fff4f6"/></g></g><g id="XMLID_2390_"><path id="XMLID_2391_" d="m120 360h30v30h-30z" fill="#fff4f6"/></g><g id="XMLID_2380_"><path id="XMLID_2387_" d="m210 60v30h45l10-15-10-15z" fill="#585f64"/><path id="XMLID_2381_" d="m255 60h45v30h-45z" fill="#474f54"/></g><g id="XMLID_2371_"><path id="XMLID_2377_" d="m210 120v30h45l10-15-10-15z" fill="#585f64"/><path id="XMLID_2373_" d="m255 120h45v30h-45z" fill="#474f54"/></g><g id="XMLID_2363_"><g><path id="XMLID_342_" d="m405 195 15 15 15-15v-45h-30z" fill="#474f54"/></g></g><path id="XMLID_2358_" d="m0 195v60h255l15-26.667-15-33.333z" fill="#ca7a33"/><path id="XMLID_2355_" d="m255 195h255v60h-255z" fill="#b1532b"/><path d="m30 480v30h225l10-15-10-15z" fill="#585f64"/><path d="m255 480h225v30h-225z" fill="#474f54"/></g></svg>