<svg id="Layer_1" enable-background="new 0 0 510 510" height="512" viewBox="0 0 510 510" width="512" xmlns="http://www.w3.org/2000/svg"><g id="XMLID_5472_"><path id="XMLID_5526_" d="m45 450 90-60 10-97-10-98-52-10-38 10z" fill="#ff9f41"/><path id="XMLID_5523_" d="m135 0h-15c-41.355 0-75 33.645-75 75v60l42 10 48-10 10-67.5z" fill="#ff9f41"/><path id="XMLID_5520_" d="m45 135v60h90l10-32.5-10-27.5z" fill="#fd6c5f"/><path id="XMLID_5517_" d="m135 0v390l59.333 15 98.167-15 10-167.309-10-222.691z" fill="#ffdf3f"/><path id="XMLID_5514_" d="m465 0h-172.5v390l98.5 15 74-15z" fill="#febf41"/><path id="XMLID_5509_" d="m105 420c-16.568 0-30 13.432-30 30 0 16.568 13.432 30 30 30l88.667 10 98.833-10 10-28-10-32-99.5-10z" fill="#fff4f6"/><path id="XMLID_5506_" d="m435 420-73.18-10-69.32 10v60l77.5 10 65-10z" fill="#eae6f3"/><path id="XMLID_5505_" d="m105 420-30 30 30 30h187.5v-60z" fill="none"/><path id="XMLID_5502_" d="m75 450c0-16.542 13.458-30 30-30h187.5l10-14-10-16h-187.5c-33.084 0-60 26.916-60 60s26.916 60 60 60h187.5l10-15-10-15h-187.5c-16.542 0-30-13.458-30-30z" fill="#febf41"/><g id="XMLID_5498_"><g><path id="XMLID_973_" d="m180 300h90v30h-90z" fill="#fd6c5f"/></g></g><g id="XMLID_5496_"><path id="XMLID_5497_" d="m346.82 271.82h30v90h-30z" fill="#fd6c5f" transform="matrix(.707 -.707 .707 .707 -118.051 348.639)"/></g><g id="XMLID_5489_"><g><g id="XMLID_564_"><path d="m316.82 301.82h90v30h-90z" fill="#fd465f" transform="matrix(.707 -.707 .707 .707 -118.051 348.639)"/></g></g></g><path id="XMLID_5486_" d="m180 75v90h112.5l10-45-10-45z" fill="#fff4f6"/><path id="XMLID_5483_" d="m292.5 75h112.5v90h-112.5z" fill="#eae6f3"/><path id="XMLID_5482_" d="m240 240h52.5l10-15-10-15h-52.5z" fill="#585f64"/><path id="XMLID_5479_" d="m292.5 480h172.5v30h-172.5z" fill="#ff9f41"/><path id="XMLID_5476_" d="m292.5 390h172.5v30h-172.5z" fill="#ff9f41"/><path id="XMLID_5473_" d="m292.5 210h37.5v30h-37.5z" fill="#474f54"/></g></svg>