<svg id="Layer_1" enable-background="new 0 0 510 510" height="512" viewBox="0 0 510 510" width="512" xmlns="http://www.w3.org/2000/svg"><g id="XMLID_2508_"><path id="XMLID_2542_" d="m85.652 106.872c-35.995 41.023-55.652 93.064-55.652 148.128 0 124.356 100.639 225 225 225l10-85-10-118.78-77.5-92.553z" fill="#fff4f6"/><path id="XMLID_2539_" d="m255 276.22v203.78c55.064 0 107.105-19.657 148.128-55.652l-65.628-84.348z" fill="#eae6f3"/><path id="XMLID_2536_" d="m106.872 85.652 65.461 83.348 82.667 64.78 10-101.891-10-101.889c-53.727 0-106.111 18.787-148.128 55.652z" fill="#fff4f6"/><path id="XMLID_2533_" d="m424.348 403.128c77.092-87.86 74.586-222.407-10.251-307.225-42.489-42.498-98.995-65.903-159.097-65.903v203.78l82.5 106.22z" fill="#eae6f3"/><path id="XMLID_2530_" d="m120 240v30l75.936 10 59.064-10 10-15-10-15-72-10z" fill="#ca7a33"/><path id="XMLID_2527_" d="m390 240-67.5-10-67.5 10v30l67.5 10 67.5-10z" fill="#b1532b"/><path id="XMLID_2524_" d="m180 120c-49.626 0-90 40.374-90 90v30h165l10-60-10-60z" fill="#ffdf3f"/><path id="XMLID_2521_" d="m420 210c0-49.626-40.374-90-90-90h-75v120h165z" fill="#febf41"/><path id="XMLID_2518_" d="m90 270v30c0 49.626 40.374 90 90 90h75l10-57-10-63z" fill="#ffdf3f"/><path id="XMLID_2515_" d="m255 270v120h75c49.626 0 90-40.374 90-90v-30z" fill="#febf41"/><path id="XMLID_2512_" d="m30 255c0-53.838 18.86-106.196 55.652-148.128 4.779 4.778 164.574 164.573 169.348 169.348l10-21.22-10-21.22c-7.561-7.561-140.272-140.272-148.128-148.128 40.224-35.292 92.008-55.652 148.128-55.652l10-15-10-15c-142.581 0-255 115.851-255 255 0 140.074 113.204 255 255 255l10-15-10-15c-124.381 0-225-100.64-225-225z" fill="#fd6c5f"/><path id="XMLID_2509_" d="m510 255c0-68.108-26.52-132.15-74.69-180.31-48.154-48.165-112.194-74.69-180.31-74.69v30c60.095 0 116.603 23.4 159.097 65.903 84.726 84.706 87.472 219.218 10.251 307.225-24.908-24.908-147.348-147.349-169.348-169.348v42.439c7.56 7.561 140.272 140.272 148.128 148.128-40.224 35.293-92.008 55.653-148.128 55.653v30c142.586 0 255-115.86 255-255z" fill="#fd465f"/></g></svg>