<svg id="Layer_1" enable-background="new 0 0 510.11 510.11" height="512" viewBox="0 0 510.11 510.11" width="512" xmlns="http://www.w3.org/2000/svg"><g id="XMLID_1470_"><path id="XMLID_3212_" d="m106.922 85.707 60.128 82.348 88 65.78 33-115.78-33-88c-53.736 0-106.118 18.793-148.128 55.652z" fill="#fff4f6"/><path id="XMLID_3211_" d="m424.397 403.183c77.093-87.861 74.585-222.405-10.25-307.225-42.49-42.498-98.994-65.903-159.098-65.903v203.78l68 93.857z" fill="#eae6f3"/><path id="XMLID_1872_" d="m85.702 106.927c-77.624 88.467-74.082 222.909 10.25 307.225 42.486 42.495 98.993 65.903 159.098 65.903l10-79.507-10-124.273-68.785-93.856z" fill="#fff4f6"/><path id="XMLID_1869_" d="m255.049 276.275v203.78c53.725 0 106.111-18.787 148.127-55.652l-57.127-86.348z" fill="#eae6f3"/><g id="XMLID_4065_"><g><path id="XMLID_682_" d="m378.788 182.418c-.398 1.546.531-2.066-7.477 29.054 9.938 2.558 18.376 8.32 24.328 16.015 12.559 16.236 12.538 38.927 0 55.137-5.952 7.694-14.391 13.458-24.328 16.016 2.615 10.161 4.861 18.892 7.477 29.053 33.135-8.526 56.262-38.403 56.262-72.637-.001-34.22-23.114-64.108-56.262-72.638z" fill="#6599fe"/></g></g><path id="XMLID_1751_" d="m180.049 195.055-10 60 10 60 75 42.746 10-102.746-10-102.746z" fill="#99baff"/><path id="XMLID_1567_" d="m330.049 109.563-75 42.746v205.492l75 42.747z" fill="#6599fe"/><path id="XMLID_1427_" d="m95.952 414.152c-84.169-84.153-87.98-218.637-10.25-307.225l169.348 169.348 11-12.22-11-30.22c-4.183-4.183-143.961-143.961-148.128-148.128 40.224-35.292 92.008-55.652 148.128-55.652l23.03-12.397-23.03-17.603c-31.478 0-62.086 5.665-90.66 16.516-66.229 25.147-121.576 78.695-147.825 147.824-34.001 89.538-16.163 196.645 58.174 270.97 48.159 48.167 112.194 74.69 180.311 74.69l11-17-11-13c-60.092 0-116.603-23.399-159.098-65.903z" fill="#fd6c5f"/><path id="XMLID_1296_" d="m435.36 74.745c-48.155-48.165-112.193-74.69-180.31-74.69v30c60.096 0 116.603 23.4 159.098 65.903 84.725 84.71 87.47 219.218 10.25 307.225-18.465-18.465-149.991-149.991-169.348-169.348v42.44c1.653 1.653 146.474 146.475 148.127 148.128-40.223 35.292-92.008 55.652-148.127 55.652v30c64.431 0 126.554-23.802 174.928-69.459 104.699-98.837 107.118-264.135 5.382-365.851z" fill="#fd465f"/><g id="XMLID_4063_"><g><path id="XMLID_1130_" d="m90.049 195.055h90v120h-90z" fill="#585f64"/></g></g></g></svg>