<svg id="Layer_1" enable-background="new 0 0 510.008 510.008" height="512" viewBox="0 0 510.008 510.008" width="512" xmlns="http://www.w3.org/2000/svg"><g id="XMLID_2582_"><path id="XMLID_2630_" d="m106.872 85.656 58.128 78.348 90 69.78 30-101.891-30-101.89c-53.726.001-106.113 18.788-148.128 55.653z" fill="#fff4f6"/><path id="XMLID_2625_" d="m424.348 403.132c77.112-87.884 74.564-222.433-10.251-307.225-42.485-42.496-98.994-65.903-159.097-65.903v203.78l86.5 103.22z" fill="#eae6f3"/><path id="XMLID_2606_" d="m85.652 106.876c-77.112 87.882-74.565 222.429 10.251 307.225 42.491 42.5 98.995 65.903 159.097 65.903l30-97-30-106.78-84-96.22z" fill="#fff4f6"/><path id="XMLID_2603_" d="m255 276.224v203.78c53.838 0 106.196-18.86 148.128-55.652l-65.098-94.348z" fill="#eae6f3"/><path id="XMLID_2600_" d="m180.27 165.004-9.27 93.333 9.27 86.667 38.063 14 36.667-14 19.22-92-19.22-88-37.365-18z" fill="#99baff"/><path id="XMLID_2597_" d="m180 90.004c-16.54 0-30 13.456-30 30v270c0 16.541 13.457 30 30 30h75l14-36-14-39c-12.034 0-53.934 0-74.73 0 0-10 0-170 0-180h74.73l14-38-14-37c-20.194 0-63.236 0-75 0z" fill="#585f64"/><path id="XMLID_2594_" d="m329.73 165.004-41.73-7.5-33 7.5v180l35 8.5 39.73-8.5 9.27-86.75z" fill="#6599fe"/><path id="XMLID_2591_" d="m330 90.004c-20.194 0-63.236 0-75 0v75h74.73v180c-6.637 0-55.841 0-74.73 0v75h75c16.541 0 30-13.457 30-30 0-15.443 0-254.6 0-270 0-16.541-13.457-30-30-30z" fill="#474f54"/><path id="XMLID_2588_" d="m95.903 414.101c-84.742-84.723-87.454-219.24-10.251-307.225 4.779 4.778 164.574 164.573 169.348 169.348l14-12.22-14-30.22c-1.653-1.653-146.475-146.475-148.128-148.128 40.223-35.293 92.009-55.652 148.128-55.652l19.22-11.667-19.22-18.333c-140.341 0-255 113.46-255 255 0 140.104 113.223 255 255 255l19.22-13.667-19.22-16.333c-60.098 0-116.603-23.4-159.097-65.903z" fill="#fd6c5f"/><path id="XMLID_2583_" d="m493.484 345.663c22.83-60.12 22.091-128.288-2.767-188.297-25.71-62.069-75.957-112.349-138.08-138.081-30.543-12.651-63.581-19.281-97.637-19.281v30c60.091 0 116.603 23.398 159.097 65.903 84.727 84.703 87.469 219.221 10.251 307.225-128.767-128.767-56.91-56.91-169.348-169.348v42.439c7.56 7.561 140.272 140.273 148.128 148.128-40.307 35.366-92.119 55.652-148.128 55.652v30c110.347.001 202.537-69.676 238.484-164.34z" fill="#fd465f"/></g></svg>