<svg id="Layer_1" enable-background="new 0 0 510 510" height="512" viewBox="0 0 510 510" width="512" xmlns="http://www.w3.org/2000/svg"><g id="XMLID_761_"><g id="XMLID_4112_"><path id="XMLID_2679_" d="m75 60v450h180l10-225-10-225z" fill="#ca7a33"/><path id="XMLID_1297_" d="m255 60h180v450h-180z" fill="#b1532b"/></g><path id="XMLID_1294_" d="m105 90v390h150l10-195-10-195z" fill="#fff4f6"/><path id="XMLID_1285_" d="m255 90h150v390h-150z" fill="#eae6f3"/><path id="XMLID_4109_" d="m135 150h90v90h-90z" fill="#99baff"/><g id="XMLID_4107_"><g><g id="XMLID_920_"><path d="m270 150h105v30h-105z" fill="#6599fe"/></g></g></g><g id="XMLID_4105_"><g><path id="XMLID_919_" d="m300 210h75v30h-75z" fill="#febf41"/></g></g><g id="XMLID_4103_"><g><path id="XMLID_913_" d="m270 270h105v30h-105z" fill="#fd465f"/></g></g><g id="XMLID_4101_"><g><g id="XMLID_906_"><path d="m300 330h75v30h-75z" fill="#6599fe"/></g></g></g><g id="XMLID_4099_"><g><path id="XMLID_851_" d="m270 390h105v30h-105z" fill="#9ddb2c"/></g></g><g id="XMLID_4097_"><g><path id="XMLID_912_" d="m135 270h105v30h-105z" fill="#fd6c5f"/></g></g><g id="XMLID_4095_"><g><g id="XMLID_900_"><path d="m135 330h75v30h-75z" fill="#99baff"/></g></g></g><g id="XMLID_4093_"><g><g id="XMLID_885_"><path d="m135 390h105v30h-105z" fill="#c4e83c"/></g></g></g><path id="XMLID_1272_" d="m210 0v30h-30v60h75l10-45-10-45z" fill="#585f64"/><path id="XMLID_1266_" d="m330 30h-30v-30h-45v90h75z" fill="#474f54"/></g></svg>