<svg id="Layer_1" enable-background="new 0 0 510 510" height="512" viewBox="0 0 510 510" width="512" xmlns="http://www.w3.org/2000/svg"><g id="XMLID_2748_"><path id="XMLID_2853_" d="m37 420 3.667 60h34.333l114.058 10.369 50.942-10.369 10-29.982-10-30.018-85-10.333-80 10.333z" fill="#fff4f6"/><path id="XMLID_2850_" d="m90 0c-41.355 0-75 33.645-75 75v375l30-30 60-30 10-202-10-188z" fill="#983424"/><path id="XMLID_2847_" d="m105 0v390l72.5 10 62.5-10 10-180-10-210z" fill="#ca7a33"/><path id="XMLID_2843_" d="m390 0h-150v390l23.668 10 22.332-10 104-90z" fill="#b1532b"/><g id="XMLID_2838_"><g><g id="XMLID_955_"><path d="m150 300h90v30h-90z" fill="#fff4f6"/></g></g></g><path id="XMLID_2833_" d="m45 450 30 30h165v-60h-165z" fill="none"/><path id="XMLID_2830_" d="m75 480c-16.542 0-30-13.458-30-30s13.458-30 30-30h165l10-15-10-15h-165c-33.084 0-60 26.916-60 60s26.916 60 60 60h165l10-15-10-15z" fill="#b1532b"/><path id="XMLID_2817_" d="m150 75v60h90l10-30-10-30z" fill="#ffdf3f"/><path id="XMLID_2808_" d="m240 75h90v60h-90z" fill="#febf41"/><path id="XMLID_2805_" d="m150 210h90l10-15-10-15h-90z" fill="#fff4f6"/><path id="XMLID_2802_" d="m150 270h90l10-15-10-15h-90z" fill="#fff4f6"/><g fill="#eae6f3"><path id="XMLID_2797_" d="m240 180h90v30h-90z"/><path id="XMLID_2794_" d="m240 240h30v30h-30z"/><path id="XMLID_2791_" d="m286.065 420-16.065-10.333-30 10.333v60l35.666 10 40.854-10z"/></g><path id="XMLID_2788_" d="m295 404-9-14h-46v30h46.065z" fill="#983424"/><path id="XMLID_2777_" d="m349.833 483.667-33.313-3.667h-76.52v30h150z" fill="#983424"/><path id="XMLID_2774_" d="m285 405c0 57.99 47.01 105 105 105l10-105-10-105c-57.99 0-105 47.01-105 105z" fill="#99baff"/><path id="XMLID_2764_" d="m390 300v210c57.99 0 105-47.01 105-105s-47.01-105-105-105z" fill="#6599fe"/><path id="XMLID_2758_" d="m375 465h15l10-27.334-10-32.666h-15z" fill="#585f64"/><path id="XMLID_2755_" d="m390 405h15v60h-15z" fill="#474f54"/><path id="XMLID_2752_" d="m375 345v30h15l10-15-10-15z" fill="#585f64"/><path id="XMLID_2749_" d="m390 345h15v30h-15z" fill="#474f54"/></g></svg>