<svg id="Layer_1" enable-background="new 0 0 506.083 506.083" height="512" viewBox="0 0 506.083 506.083" width="512" xmlns="http://www.w3.org/2000/svg"><g><path id="XMLID_772_" d="m88.041 99.084v167l15 10 15-10 10-71.667-10-194.417c-19.561 29.343-30 63.818-30 99.084z" fill="#fff4f6"/><path id="XMLID_683_" d="m148.042 99.084c0-35.266-10.439-69.741-30-99.084v266.084l15 10 15-10z" fill="#eae6f3"/><path id="XMLID_773_" d="m58.042 326.084 29.999 119.999 19 10 11-10 10.001-59.999-10.001-60-25.667-10z" fill="#febf41"/><path id="XMLID_1193_" d="m178.042 326.084-30-10-30.001 10v119.999l15.001 10 15-10z" fill="#ff9f41"/><path id="XMLID_1018_" d="m58.042 506.083h59.999l10.001-30-10.001-30h-59.999z" fill="#ffdf3f"/><path id="XMLID_1030_" d="m118.041 446.083h60v60h-60z" fill="#febf41"/><path id="XMLID_2102_" d="m13.042 296.084v30h104.999l5.718-15.82-5.718-14.18-53-12.867z" fill="#ffdf3f"/><path id="XMLID_1051_" d="m170.542 288.551-52.501 7.533v30h105.001v-30z" fill="#febf41"/><path d="m13.042 266.084v30h104.999l10.001-15-10.001-15z" fill="#febf41"/><path d="m118.041 266.084h105v30h-105z" fill="#ff9f41"/></g><g><path id="XMLID_1090_" d="m343.042 341.084c17.322 27.852 22.69 68.735 0 90l30 9.999 30-9.999 10-42.001-10-47.999-30-10z" fill="#fd465f"/><path id="XMLID_1862_" d="m463.042 341.084-30-10-30 10v90l27.334 9.999 32.666-9.999c-22.691-21.265-17.323-62.148 0-90z" fill="#e72d5a"/><path id="XMLID_1055_" d="m373.042 99.08v167.004l17 10 13-10 10-111-10-155.084c-19.561 29.341-30 63.82-30 99.08z" fill="#fff4f6"/><path id="XMLID_1089_" d="m433.042 99.08c0-34.57-10.047-69.149-30-99.08v266.084l15 10 15-10z" fill="#eae6f3"/><path id="XMLID_1233_" d="m363.042 283.217-50 12.866v45.001h90l10-15-10-30z" fill="#fd6c5f"/><path id="XMLID_1865_" d="m313.042 506.083h90l10-37.5-10-37.499h-90z" fill="#fd6c5f"/><g fill="#fd465f"><path id="XMLID_1195_" d="m446.375 287.217-43.333 8.866v45.001h90v-45.001z"/><path id="XMLID_1318_" d="m403.042 431.084h90v74.999h-90z"/><path d="m313.042 266.084v30h90l10-15-10-15z"/></g><path d="m403.042 266.084h90v30h-90z" fill="#e72d5a"/></g></svg>