<svg id="Layer_1" enable-background="new 0 0 510 510" height="512" viewBox="0 0 510 510" width="512" xmlns="http://www.w3.org/2000/svg"><g id="XMLID_2973_"><path id="XMLID_3029_" d="m62.197 420c-16.569 0-30 13.432-30 30 0 16.568 13.431 30 30 30l92.999 10 87.001-10 10-30-10-30-85.668-10z" fill="#fff4f6"/><path id="XMLID_3028_" d="m62.197 420-30 30 30 30h180v-60z" fill="none"/><path id="XMLID_3025_" d="m392.197 420-89.668-10-60.332 10v60l77.667 10 72.333-10z" fill="#eae6f3"/><path id="XMLID_3022_" d="m77.197 0c-41.356 0-75 33.645-75 75v60l10 30-10 30v255l30-34 60-26 10-214-10-176z" fill="#76b743"/><path id="XMLID_3019_" d="m92.197 0v390l50 15 100-15 10-187.5-10-202.5z" fill="#c4e83c"/><path id="XMLID_3016_" d="m422.197 0h-180v390l83 15 97-15z" fill="#9ddb2c"/><g id="XMLID_3012_"><g><path id="XMLID_826_" d="m2.197 135h90v60h-90z" fill="#9ddb2c"/></g></g><path id="XMLID_3008_" d="m32.197 450c0-16.568 13.431-30 30-30h180l10-15-10-15h-180c-33.084 0-60 26.916-60 60s26.916 60 60 60h180l10-15-10-15h-180c-16.569 0-30-13.432-30-30z" fill="#9ddb2c"/><path id="XMLID_3004_" d="m242.197 390h180v30h-180z" fill="#76b743"/><path id="XMLID_3000_" d="m507.803 352.279-64.4-64.4c30.771-41.096 27.493-99.786-9.846-137.125-40.939-40.939-107.553-40.939-148.492 0-40.94 40.939-40.94 107.553 0 148.492 37.093 37.092 95.746 40.83 137.125 9.846l64.4 64.4z" fill="#474f54"/><path id="XMLID_2992_" d="m306.277 171.967c-29.242 29.242-29.242 76.824 0 106.066s76.824 29.242 106.066 0 29.242-76.824 0-106.066c-29.241-29.241-76.823-29.242-106.066 0z" fill="#eae6f3"/><g id="XMLID_2978_"><g fill="#585f64"><path id="XMLID_1176_" d="m137.197 60h75v30h-75z"/><path id="XMLID_1175_" d="m137.197 120h75v30h-75z"/></g></g><path id="XMLID_2974_" d="m242.197 480h180v30h-180z" fill="#76b743"/></g></svg>