<svg id="Layer_1" enable-background="new 0 0 510 510" height="512" viewBox="0 0 510 510" width="512" xmlns="http://www.w3.org/2000/svg"><g id="XMLID_1377_"><path id="XMLID_2113_" d="m409 52.5-10 45 10 45 100.125-45z" fill="#eae6f3"/><g id="XMLID_2504_"><g><g id="XMLID_1157_"><path d="m91 352.5v75l82 10 82-10 10-37.5-10-37.5-82-10z" fill="#fff4f6"/></g><g id="XMLID_1156_"><path d="m480 352.5-112.5-10-112.5 10v75l112.5 10 112.5-10z" fill="#eae6f3"/></g></g></g><path id="XMLID_2835_" d="m30 217.5v75l112.5 10 112.5-10 10-37.5-10-37.5-112.5-10z" fill="#fff4f6"/><path id="XMLID_2834_" d="m421 217.5-83-10-83 10v75l83 10 83-10 6.5-37.5z" fill="#eae6f3"/><g id="XMLID_2411_"><g><path id="XMLID_805_" d="m30 112.5h-30v-30h30l10 15z" fill="#99baff"/></g></g><g id="XMLID_2394_"><g><g id="XMLID_1234_"><path d="m127.5 427.5c-20.677 0-37.5-16.822-37.5-37.5s16.822-37.5 37.5-37.5h127.5l10-15-10-15c-15.411 0-111.987 0-127.5 0-37.218 0-67.5 30.279-67.5 67.5 0 37.218 30.279 67.5 67.5 67.5h127.5l10-15-10-15c-15.411 0-111.987 0-127.5 0z" fill="#ca7a33"/></g><g id="XMLID_1232_"><path d="m255 322.5h255v30h-255z" fill="#b1532b"/></g><g id="XMLID_1231_"><path d="m255 427.5h255v30h-255z" fill="#b1532b"/></g></g></g><path id="XMLID_2416_" d="m0 187.5v30h255l10-15-10-15z" fill="#fd6c5f"/><path id="XMLID_2413_" d="m0 292.5v30h255l10-15-10-15z" fill="#fd6c5f"/><path id="XMLID_2412_" d="m450 255c0-37.217-30.278-67.5-67.5-67.5-15.411 0-111.987 0-127.5 0v30h127.5c20.676 0 37.5 16.822 37.5 37.5 0 20.676-16.821 37.5-37.5 37.5-15.411 0-111.987 0-127.5 0v30h127.5c37.216 0 67.5-30.278 67.5-67.5z" fill="#fd465f"/><path id="XMLID_2393_" d="m60 52.5-30 15v60l30 15h30.001l14.999-10 15 10h135l10-35-10-55h-135.001l-14.999 10-14.999-10z" fill="#ca7a33"/><g id="XMLID_2109_"><g><g id="XMLID_835_"><path d="m90 52.5h30v90h-30z" fill="#ffdf3f"/></g></g></g><path id="XMLID_2108_" d="m255 52.5h154v90h-154z" fill="#b1532b"/></g></svg>