<svg id="Layer_1" enable-background="new 0 0 504.855 504.855" height="512" viewBox="0 0 504.855 504.855" width="512" xmlns="http://www.w3.org/2000/svg"><g><path d="m404.749 18.302c-6.223 6.624-41.982 44.69-49.056 52.221l39.832 39.831 53.579-40.462 38.799-52.94c-23.122-23.123-60.795-22.511-83.154 1.35z" fill="#ffdf3f"/><path d="m355.693 70.522-181.134 192.82-3.943 18.795-16.606 3.081-30.825 32.812 8.485 22.627 23.335 9.192 144.193-130.051 95.815-109.956z" fill="#585f64"/><path id="XMLID_3176_" d="m434.963 252.183.14-102.241-.77-.78-14.307 9.656-7.542 10.866.166.165-.452 62.795-53.87 62.74 22.762 19.543z" fill="#585f64"/><path d="m487.904 16.951h-.001c-17.126 17.125-86.644 86.643-92.891 92.891l39.319 39.319c6.838-6.424 44.728-42.017 51.919-48.773 24.141-22.299 24.892-60.199 1.654-83.437z" fill="#febf41"/><path d="m395.013 109.842-240.008 240.007 7.603 21.746 24.217 10.075 32.816-30.827 2.178-15.761 19.698-4.79 192.815-181.131z" fill="#474f54"/><path id="XMLID_3148_" d="m174.559 263.342-20.55 21.876 32.815 32.811 21.214-21.213z" fill="#ffdf3f"/><path id="XMLID_3145_" d="m186.824 318.029 32.817 32.814 21.876-20.551-33.479-33.476z" fill="#febf41"/><path id="XMLID_3137_" d="m139.048 471.873c5.944-37.381 22.915-66.684 47.777-90.203l-31.82-31.82-53.033 53.033-74.162 95.376z" fill="#febf41"/><path id="XMLID_3134_" d="m123.185 318.03c-24.168 24.215-53.546 41.108-90.204 47.777l-26.384 111.239 95.375-74.163 53.033-53.033z" fill="#ffdf3f"/><path id="XMLID_3131_" d="m0 504.855 27.809-6.596 84.769-84.769-10.606-10.607-101.971 101.97z" fill="#ff9f41"/><path id="XMLID_3126_" d="m6.597 477.046-6.596 27.807 101.971-101.97-10.607-10.606z" fill="#febf41"/></g></svg>