<svg id="Layer_1" enable-background="new 0 0 510 510" height="512" viewBox="0 0 510 510" width="512" xmlns="http://www.w3.org/2000/svg"><g><path id="XMLID_2556_" d="m0 510h105l10-135-10-135h-105z" fill="#ffdf3f"/><path id="XMLID_2133_" d="m0 0v210h105l10-105-10-105z" fill="#99baff"/><path id="XMLID_2436_" d="m105 0h105v210h-105z" fill="#6599fe"/><path id="XMLID_4271_" d="m240 0v210h135l10-105-10-105z" fill="#fd6c5f"/><path id="XMLID_4272_" d="m375 0h135v210h-135z" fill="#fd465f"/><path id="XMLID_4275_" d="m240 360h135l10-53-10-67h-135z" fill="#ca7a33"/><path id="XMLID_4273_" d="m375 240h135v120h-135z" fill="#b1532b"/><path id="XMLID_4277_" d="m240 510h135l10-60-10-60h-135z" fill="#99baff"/><path id="XMLID_4276_" d="m375 390h135v120h-135z" fill="#6599fe"/><g id="XMLID_2437_"><g><g id="XMLID_943_"><path d="m300 60h30v30h-30z" fill="#fff4f6"/></g></g></g><path id="XMLID_1617_" d="m360 60v30h15l10-15-10-15z" fill="#fff4f6"/><path id="XMLID_2199_" d="m375 60h75v30h-75z" fill="#eae6f3"/><g id="XMLID_2435_"><g><g id="XMLID_944_"><path d="m300 120h60v30h-60z" fill="#fff4f6"/></g></g></g><g id="XMLID_2434_"><g><g id="XMLID_865_"><path d="m390 120h60v30h-60z" fill="#eae6f3"/></g></g></g><path id="XMLID_2438_" d="m105 240h105v270h-105z" fill="#febf41"/><g fill="#585f64"><path id="XMLID_1374_" d="m60 60v30h45l10-15-10-15z"/><path id="XMLID_2482_" d="m60 150h45l10-15-10-15h-45z"/><path id="XMLID_2618_" d="m60 390h45l10-15-10-15h-45z"/><path id="XMLID_4311_" d="m60 450h45l10-15-10-15h-45z"/></g><path id="XMLID_2116_" d="m105 60h45v30h-45z" fill="#474f54"/><path id="XMLID_2121_" d="m105 120h45v30h-45z" fill="#474f54"/><path id="XMLID_2483_" d="m105 360h45v30h-45z" fill="#474f54"/><path id="XMLID_2621_" d="m105 420h45v30h-45z" fill="#474f54"/></g></svg>