<svg id="Layer_1" enable-background="new 0 0 510 510" height="512" viewBox="0 0 510 510" width="512" xmlns="http://www.w3.org/2000/svg"><g id="XMLID_3398_"><path id="XMLID_3685_" d="m255 360-30 10-30-10-10-36 10-39h60l10 41z" fill="#99baff"/><path id="XMLID_3682_" d="m135 360-30 10-30-10v-75h60l10 36.5z" fill="#99baff"/><path id="XMLID_3674_" d="m195 360-31.5 10-28.5-10v-105h60z" fill="#c4e83c"/><path id="XMLID_3666_" d="m315 255h-60v105l30 10 30-10z" fill="#fd465f"/><path id="XMLID_3662_" d="m315 120h-60l-10 37.5 10 37.5 30 10 30-10z" fill="#9ddb2c"/><path id="XMLID_3657_" d="m135 120h60l10 37.5-10 37.5-30 10-30-10-10-37.5z" fill="#99baff"/><path id="XMLID_3653_" d="m195 90v105l30 10 30-10v-105z" fill="#fd6c5f"/><path id="XMLID_3640_" d="m75 90h60v105l-30 10-30-10z" fill="#ffdf3f"/><g id="XMLID_3565_"><g><g id="XMLID_1177_"><path d="m30 30-10 15 10 15h225l10-15-10-15z" fill="#b1532b"/></g><g id="XMLID_1170_"><path d="m480 30h-225v30h225l8.75-15z" fill="#983424"/></g></g></g><path id="XMLID_3558_" d="m30 195-10 15 10 15h225l10-15-10-15z" fill="#b1532b"/><path id="XMLID_3541_" d="m480 195h-225v30h225l15-15z" fill="#983424"/><g id="XMLID_3536_"><g><path id="XMLID_738_" d="m450 390h30l15-15-15-15h-30l-15 15z" fill="#983424"/></g></g><path id="XMLID_3529_" d="m30 360-10 15 10 15h225l10-15-10-15z" fill="#b1532b"/><path id="XMLID_3519_" d="m360 360h-105v30h105l15-15z" fill="#983424"/><path id="XMLID_3448_" d="m420 90v45h-30v-45h-30v420h30v-45h30v45h30v-420zm0 345h-30v-30h30zm0-60h-30v-30h30zm0-60h-30v-30h30zm0-60h-30v-30h30zm0-60h-30v-30h30z" fill="#b1532b"/><g id="XMLID_3444_"><g><path id="XMLID_764_" d="m0 0h30v510h-30z" fill="#ca7a33"/></g></g><g id="XMLID_3402_"><g><g id="XMLID_820_"><path d="m480 0h30v510h-30z" fill="#b1532b"/></g></g></g></g></svg>