<svg id="Layer_1" enable-background="new 0 0 510 510" height="512" viewBox="0 0 510 510" width="512" xmlns="http://www.w3.org/2000/svg"><g id="XMLID_1019_"><path id="XMLID_1665_" d="m79 365 2.666 40 88.334 30 69.346-15 10-30-10-30-68.346-15z" fill="#fff4f6"/><path id="XMLID_1022_" d="m239.346 104.89c-6.312.012-12.674 1.249-19.043 3.985l-7.637 20.458 12.068 11.946c4.044-3.569 9.165-6.399 14.611-6.385l10-14.895z" fill="#474f54"/><path id="XMLID_1021_" d="m259.536 109.315c-6.585-2.958-13.33-4.439-20.19-4.426v30.005c5 .016 10.357 2.356 15.97 6.987l12.518-15.216z" fill="#31383e"/><path id="XMLID_1115_" d="m341.666 345-102.32 15v60l120.327 11.667 120.327-11.667v-60z" fill="#eae6f3"/><path id="XMLID_1995_" d="m30 240v60l109.673 15 99.673-15 10-34.333-10-25.667-85.679-15z" fill="#fff4f6"/><path id="XMLID_1996_" d="m426.333 245.667-88.303-20.667-98.684 15v60l90.653 15 96.334-18.667z" fill="#eae6f3"/><g id="XMLID_1353_"><g><path id="XMLID_782_" d="m90.75 104.5-14.242 15.5h-31.508v-30h45.036z" fill="#474f54"/></g></g><g id="XMLID_1354_"><g><path id="XMLID_784_" d="m435 120h-31.508l-14.992-10 1.462-20h45.038z" fill="#31383e"/></g></g><path id="XMLID_1059_" d="m420 270-30-30h-150.654v60h150.654z" fill="none"/><path id="XMLID_1097_" d="m120 360-30 30 30 30h119.346v-60z" fill="none"/><path id="XMLID_1361_" d="m90 390c0-16.542 13.458-30 30-30h119.346l10-15-10-15h-119.346c-33.084 0-60 26.916-60 60s26.916 60 60 60h119.346l10-15-10-15h-119.346c-16.542 0-30-13.458-30-30z" fill="#99baff"/><path id="XMLID_1363_" d="m0 210v30h239.346l10-16-10-14z" fill="#ca7a33"/><path id="XMLID_2069_" d="m239.346 300h-239.346v30h239.346l10-15z" fill="#ca7a33"/><circle id="XMLID_1956_" cx="150" cy="135" fill="#585f64" r="75"/><circle id="XMLID_1957_" cx="150" cy="135" fill="#fff4f6" r="45"/><circle id="XMLID_1953_" cx="330" cy="135" fill="#474f54" r="75"/><circle id="XMLID_1954_" cx="330" cy="135" fill="#eae6f3" r="45"/><path id="XMLID_2062_" d="m390 330c33.084 0 60-26.916 60-60s-26.916-60-60-60h-150.654v30h150.654c16.542 0 30 13.458 30 30s-13.458 30-30 30h-150.654v30z" fill="#b1532b"/><g fill="#6599fe"><path id="XMLID_1112_" d="m239.346 330h270.654v30h-270.654z"/><path id="XMLID_1352_" d="m239.346 420h270.654v30h-270.654z"/></g></g></svg>