<svg id="Layer_1" enable-background="new 0 0 510 510" height="512" viewBox="0 0 510 510" width="512" xmlns="http://www.w3.org/2000/svg"><g id="XMLID_5584_"><path id="XMLID_5635_" d="m435 375v45l-60 15-60-15-15-15 15-30z" fill="#9ddb2c"/><path id="XMLID_5632_" d="m255 420-30 10-30-10-10-62.5 10-72.5h60l10 67.5z" fill="#99baff"/><path id="XMLID_5629_" d="m195 420-30 10-30-10-10-69.5 10-65.5h60z" fill="#febf41"/><path id="XMLID_5626_" d="m195 195-30 15-30-15-15-45 15-60h60l15 60z" fill="#99baff"/><path id="XMLID_5623_" d="m135 195-30 15-30-15v-135h60z" fill="#febf41"/><path id="XMLID_5620_" d="m315 195-30 15-30-15-15-60 15-45h60l15 60z" fill="#6599fe"/><path id="XMLID_5617_" d="m255 195-30 15-30-15v-135h60z" fill="#c4e83c"/><path id="XMLID_5614_" d="m435 195-30 15-30-15-15-45 15-60h60z" fill="#6599fe"/><path id="XMLID_5611_" d="m375 195-30 15-30-15v-135h60z" fill="#fd465f"/><g id="XMLID_5604_"><g><g id="XMLID_767_"><path d="m255 225h-225l-15-15 15-15h225l15 15z" fill="#ca7a33"/></g></g></g><path id="XMLID_5603_" d="m255 195v30h225l15-15-15-15z" fill="#b1532b"/><path id="XMLID_5600_" d="m60 510h-60v-60l30-15 30 15z" fill="#ca7a33"/><path id="XMLID_5597_" d="m510 510h-60v-60l30-15 30 15z" fill="#b1532b"/><path id="XMLID_5594_" d="m135 420-32.5 10-27.5-10v-135h60z" fill="#99baff"/><path id="XMLID_5591_" d="m315 420-30 10-30-10v-135h60z" fill="#fd465f"/><path id="XMLID_5588_" d="m30 420v-420h-30v450h255l15-15-15-15z" fill="#b1532b"/><path id="XMLID_5585_" d="m510 0h-30v420h-225v30h255z" fill="#983424"/></g></svg>