<svg id="Layer_1" enable-background="new 0 0 510 510" height="512" viewBox="0 0 510 510" width="512" xmlns="http://www.w3.org/2000/svg"><g id="XMLID_1074_"><path id="XMLID_2302_" d="m510 120-30 10-30-10-10-33 10-27h60z" fill="#febf41"/><path id="XMLID_2301_" d="m510 180h-60l-10-30 10-30h60z" fill="#fd465f"/><path id="XMLID_1101_" d="m105 0c-41.356 0-75 33.645-75 75v375l30-35 75-25 10-201.406-10-188.594z" fill="#3454ff"/><path id="XMLID_1619_" d="m135 0v390l60 15 97.5-15 10-195-10-195z" fill="#99baff"/><path id="XMLID_1624_" d="m450 0h-157.5v390l78.75 15 78.75-15z" fill="#6599fe"/><g id="XMLID_2317_"><g><path id="XMLID_817_" d="m0 90h75v30h-75z" fill="#585f64"/></g></g><g id="XMLID_2316_"><g><path id="XMLID_812_" d="m0 150h75v30h-75z" fill="#585f64"/></g></g><g id="XMLID_2314_"><g><g id="XMLID_815_"><path d="m0 255h75v30h-75z" fill="#585f64"/></g></g></g><g id="XMLID_2313_"><g><path id="XMLID_821_" d="m0 315h75v30h-75z" fill="#585f64"/></g></g><path id="XMLID_2311_" d="m345 345c-16.568 0-30-13.432-30-30v-210c0-16.568 13.432-30 30-30 16.568 0 30 13.432 30 30v210c0 16.568-13.432 30-30 30z" fill="#eae6f3"/><g id="XMLID_2310_"><g><g id="XMLID_871_"><path d="m180 75h90v30h-90z" fill="#fff4f6"/></g></g></g><g id="XMLID_2306_"><g><g id="XMLID_798_"><path d="m180 135h90v30h-90z" fill="#fff4f6"/></g></g></g><g id="XMLID_2305_"><g><g id="XMLID_785_"><path d="m180 195h90v30h-90z" fill="#fff4f6"/></g></g></g><path id="XMLID_1344_" d="m60 420v60l120 10 112.5-10 10-30-10-30-116.25-10z" fill="#fff4f6"/><path id="XMLID_1321_" d="m420 420-75-10-52.5 10v60l63.75 10 63.75-10z" fill="#eae6f3"/><path id="XMLID_1248_" d="m90 420-30 30 30 30h202.5v-60z" fill="none"/><path id="XMLID_1627_" d="m60 450c0-16.542 13.458-30 30-30h202.5l10-15-10-15h-202.5c-33.084 0-60 26.916-60 60s26.916 60 60 60h202.5l10-15-10-15h-202.5c-16.542 0-30-13.458-30-30z" fill="#6599fe"/><g fill="#3454ff"><path id="XMLID_1606_" d="m292.5 480h157.5v30h-157.5z"/><path id="XMLID_1607_" d="m292.5 390h157.5v30h-157.5z"/></g></g></svg>