<svg id="Layer_1" enable-background="new 0 0 510 510" height="512" viewBox="0 0 510 510" width="512" xmlns="http://www.w3.org/2000/svg"><g id="XMLID_3961_"><path id="XMLID_4056_" d="m105 420c-16.568 0-30 13.432-30 30 0 16.568 13.432 30 30 30l89 10 106-10 10-30-10-30-98-10z" fill="#fff4f6"/><path id="XMLID_4044_" d="m120 0c-41.355 0-75 33.645-75 75v60l10 30-10 30v255l36-30 54-30 10-195-10-195z" fill="#ff9f41"/><path id="XMLID_4028_" d="m435 420-75-10-60 10v60l67.5 10 67.5-10z" fill="#eae6f3"/><path id="XMLID_4025_" d="m135 0v390l82.5 12.334 82.5-12.334 10-165-10-225z" fill="#ffdf3f"/><path id="XMLID_4006_" d="m465 0h-165v390l64.333 12.334 100.667-12.334z" fill="#febf41"/><g id="XMLID_3986_"><g><path id="XMLID_860_" d="m45 135h90v60h-90z" fill="#fd6c5f"/></g></g><path id="XMLID_3982_" d="m240 107.968v149.611l30 42.421v-107.967l30-6.667 10-43.699-10-47.033z" fill="#fd6c5f"/><path id="XMLID_3979_" d="m300 94.634v90.732l75-16.667v58.877l30 42.424v-198.699z" fill="#fd465f"/><path id="XMLID_3978_" d="m105 420-30 30 30 30h195v-60z" fill="none"/><path id="XMLID_3975_" d="m75 450c0-16.568 13.432-30 30-30h195l10-15-10-15h-195c-33.084 0-60 26.916-60 60s26.916 60 60 60h195l10-15-10-15h-195c-16.568 0-30-13.432-30-30z" fill="#febf41"/><circle id="XMLID_3972_" cx="225" cy="300" fill="#fd465f" r="45"/><circle id="XMLID_3969_" cx="360" cy="270" fill="#e72d5a" r="45"/><g fill="#ff9f41"><path id="XMLID_3966_" d="m300 480h165v30h-165z"/><path id="XMLID_3962_" d="m300 390h165v30h-165z"/></g></g></svg>