<svg id="Layer_1" enable-background="new 0 0 510 510" height="512" viewBox="0 0 510 510" width="512" xmlns="http://www.w3.org/2000/svg"><g><path id="XMLID_929_" d="m0 90v330l127 15 128-15 10-165-10-165-132.333-8.264z" fill="#99baff"/><path id="XMLID_928_" d="m510 90-130-12.264-125 12.264v165 165l127.5 15 127.5-15z" fill="#6599fe"/><path id="XMLID_927_" d="m90 120v15c0 8.27-6.729 15-15 15-5.246 0-9.754 0-15 0v105 105h15c8.271 0 15 6.728 15 15v7.5 7.5h165l10-135-10-135c-4.655 0-160.348 0-165 0z" fill="#fff4f6"/><path id="XMLID_926_" d="m420 375c0-8.272 6.728-15 15-15h15c0-11.664 0-198.336 0-210-5.246 0-9.754 0-15 0-8.27 0-15-6.729-15-15 0-5.246 0-9.754 0-15-4.655 0-160.348 0-165 0v135 135h165v-7.5z" fill="#eae6f3"/><path id="XMLID_925_" d="m195 180v30h30 30l10-15-10-15z" fill="#585f64"/><path id="XMLID_924_" d="m255 180h60v30h-60z" fill="#474f54"/><g id="XMLID_935_"><g><g id="XMLID_881_"><path d="m165 300h60v30h-60z" fill="#585f64"/></g></g></g><g id="XMLID_940_"><g><path id="XMLID_879_" d="m255 300h90v30h-90z" fill="#474f54"/></g></g><path id="XMLID_922_" d="m135 240v15 15h60 60l10-15-10-15h-60z" fill="#585f64"/><path id="XMLID_921_" d="m375 240h-60-60v15 15h60 60v-15z" fill="#474f54"/><path d="m0 60v30h255l10-15-10-15z" fill="#6599fe"/><path d="m255 60h255v30h-255z" fill="#3454ff"/><path d="m0 450h255l10-15-10-15h-255z" fill="#6599fe"/><path d="m255 420h255v30h-255z" fill="#3454ff"/></g></svg>