<svg id="Layer_1" enable-background="new 0 0 510 510" height="512" viewBox="0 0 510 510" width="512" xmlns="http://www.w3.org/2000/svg"><g id="XMLID_4129_"><path id="XMLID_4245_" d="m420 270h-48.241l-11.759 15 15.092 15h44.908v60h30v-180h-30z" fill="#474f54"/><path id="XMLID_4239_" d="m138.241 270h-48.241v-90h-30v180h30v-60h44.908l9.706-13.74z" fill="#585f64"/><path id="XMLID_4235_" d="m255 60c-33.136 0-60 26.862-60 60v30l30 9 30-9 7.333-37.5z" fill="#99baff"/><path id="XMLID_4231_" d="m315 120c0-33.135-26.862-60-60-60v90l30 5.667 30-5.667c0-8.924 0-20.891 0-30z" fill="#6599fe"/><path id="XMLID_4223_" d="m225 30c0 16.568 13.432 30 30 30l7.333-30-7.333-30c-16.568 0-30 13.432-30 30z" fill="#ffd9b3"/><path id="XMLID_4219_" d="m276.213 8.787c-5.429-5.43-12.929-8.787-21.213-8.787v60c8.284 0 15.784-3.357 21.213-8.787 11.709-11.709 11.727-30.699 0-42.426z" fill="#fb9"/><path id="XMLID_4214_" d="m255 150h-103.426l-33.333 300h78.649l58.11-45 7.333-120z" fill="#ca7a33"/><path id="XMLID_4210_" d="m358.426 150h-103.426v255l58.109 45h78.65z" fill="#b1532b"/><g id="XMLID_4150_"><path id="XMLID_4207_" d="m225 210v30h30l10-15-10-15z" fill="#c4e83c"/><path id="XMLID_4151_" d="m255 210h30v30h-30z" fill="#9ddb2c"/></g><path id="XMLID_4143_" d="m255 405c-33.136 0-60 26.862-60 60v45h60l10-49z" fill="#fd6c5f"/><path id="XMLID_4138_" d="m315 465c0-33.135-26.862-60-60-60v105h60c0-14.982 0-30.019 0-45z" fill="#fd465f"/><path id="XMLID_4133_" d="m225 375c0 16.568 13.432 30 30 30l5-30-5-30c-16.568 0-30 13.432-30 30z" fill="#ffd9b3"/><path id="XMLID_4130_" d="m285 375c0-16.566-13.432-30-30-30v60c16.566 0 30-13.432 30-30z" fill="#fb9"/></g></svg>