<svg id="Layer_1" enable-background="new 0 0 510 510" height="512" viewBox="0 0 510 510" width="512" xmlns="http://www.w3.org/2000/svg"><g><g id="XMLID_4_"><path id="XMLID_844_" d="m0 165v157.5 127.5l126.666 11.017 128.334-11.017 25.333-130.333-25.333-154.667-127.5-15z" fill="#fff4f6"/><path id="XMLID_840_" d="m510 165-127.5-15-127.5 15v285l127.5 15 127.5-15z" fill="#eae6f3"/><path id="XMLID_846_" d="m0 60v105h127.5 127.5l10-52.5-10-52.5z" fill="#febf41"/><path id="XMLID_845_" d="m510 60h-255v105h255v-52.5z" fill="#ff9f41"/><g id="XMLID_838_"><g><g id="XMLID_1065_"><path d="m90 30h30v75h-30z" fill="#585f64"/></g></g></g><g id="XMLID_842_"><g><g id="XMLID_891_"><path d="m150 30h30v75h-30z" fill="#585f64"/></g></g></g><g id="XMLID_847_"><g><g id="XMLID_883_"><path d="m210 30h30v75h-30z" fill="#585f64"/></g></g></g><g id="XMLID_852_"><path id="XMLID_839_" d="m270 30h30v75h-30z" fill="#474f54"/></g><g id="XMLID_857_"><path id="XMLID_837_" d="m330 30h30v75h-30z" fill="#474f54"/></g><g id="XMLID_862_"><path id="XMLID_836_" d="m390 30h30v75h-30z" fill="#474f54"/></g><path d="m255 313.198c-22.656-43.814-68.23-73.198-120-73.198-5.246 0-9.754 0-15 0v30h15c29.651 0 56.441 12.377 75.399 31.996.003.004.007.007.01.011-4.918-1.304-10.08-2.007-15.409-2.007h-90.25c-24.715 0-44.75 20.035-44.75 44.75v15.25l107 10 88-10 5.333-36.333z" fill="#eae6f3"/><path d="m404.917 300c-10.927 0-78.965 0-89.917 0-5.329 0-10.492.703-15.411 2.007 20.775-21.257 47.773-32.007 75.411-32.007h15c0-10.492 0-19.508 0-30-5.246 0-9.754 0-15 0-51.745 0-97.331 29.36-120 73.198v46.802l101.333 15 93.667-15c0-5.217 0-9.7 0-14.917 0-24.897-20.184-45.083-45.083-45.083z" fill="#d8cee6"/><path id="XMLID_831_" d="m60 360v30h195l10-15-10-15z" fill="#fd6c5f"/><path id="XMLID_830_" d="m255 360h195v30h-195z" fill="#fd465f"/></g><path d="m0 450v30h255l10-15-10-15z" fill="#eae6f3"/><path d="m255 450h255v30h-255z" fill="#d8cee6"/></g></svg>