<svg id="Layer_1" enable-background="new 0 0 510 510" height="512" viewBox="0 0 510 510" width="512" xmlns="http://www.w3.org/2000/svg"><g><g id="XMLID_4361_"><path id="XMLID_4409_" d="m225 75v15c-20.194 0-63.236 0-75 0v75l52.5 10 52.5-10 10-60-10-60c-16.568 0-30 13.432-30 30z" fill="#585f64"/><path id="XMLID_4406_" d="m360 90c-20.194 0-63.236 0-75 0 0-5.246 0-9.754 0-15 0-16.568-13.432-30-30-30v120l52.5 10 52.5-10c0-20.194 0-63.236 0-75z" fill="#474f54"/><path id="XMLID_4403_" d="m0 165v270l132.5 15 122.5-15 10-120-10-150z" fill="#fff4f6"/><path id="XMLID_4400_" d="m510 165h-255v270l127.5 15 127.5-15z" fill="#eae6f3"/><g id="XMLID_4396_"><g><path id="XMLID_916_" d="m285 225h165v30h-165z" fill="#474f54"/></g></g><g id="XMLID_4389_"><g><path id="XMLID_907_" d="m285 285h90v30h-90z" fill="#fd465f"/></g></g><g id="XMLID_4384_"><path id="XMLID_4387_" d="m405 285h45v30h-45z" fill="#fd465f"/></g><g id="XMLID_4380_"><g><path id="XMLID_893_" d="m360 375h30v30h-30z" fill="#474f54"/></g></g><g id="XMLID_4376_"><g><path id="XMLID_892_" d="m300 375h30v30h-30z" fill="#474f54"/></g></g><g id="XMLID_4372_"><g><path id="XMLID_882_" d="m420 375h30v30h-30z" fill="#474f54"/></g></g><path id="XMLID_4366_" d="m195 390h-120v-30c0-33.137 26.863-60 60-60 33.137 0 60 26.863 60 60z" fill="#99baff"/><circle id="XMLID_4362_" cx="135" cy="270" fill="#ffd9b3" r="30"/></g><path d="m0 435v30h255l10-15-10-15z" fill="#eae6f3"/><path d="m255 435h255v30h-255z" fill="#d8cee6"/></g></svg>