<svg id="Layer_1" enable-background="new 0 0 510 510" height="512" viewBox="0 0 510 510" width="512" xmlns="http://www.w3.org/2000/svg"><g id="XMLID_699_"><path id="XMLID_713_" d="m135 0v255l-37.5 225-22.5 30h240l10-228-10-282z" fill="#fff4f6"/><path id="XMLID_714_" d="m315 0v510h105c41.355 0 75-33.645 75-75v-435z" fill="#eae6f3"/><g id="XMLID_706_"><g><path id="XMLID_603_" d="m75 510c-33.137 0-60-26.863-60-60v-195h120v195c0 33.137-26.863 60-60 60z" fill="#eae6f3"/></g></g><path id="XMLID_703_" d="m195 75v120h120l10-60-10-60z" fill="#99baff"/><path id="XMLID_705_" d="m315 75h120v120h-120z" fill="#6599fe"/><path id="XMLID_5666_" d="m360 240h60v120h-60z" fill="#fd6c5f"/><g id="XMLID_718_"><g><path id="XMLID_872_" d="m195 240h120v30h-120z" fill="#585f64"/></g></g><g id="XMLID_723_"><g><g id="XMLID_867_"><path d="m195 300h120v30h-120z" fill="#585f64"/></g></g></g><g id="XMLID_728_"><g><path id="XMLID_869_" d="m195 360h120v30h-120z" fill="#585f64"/></g></g></g></svg>