<svg id="Layer_1" enable-background="new 0 0 510 510" height="512" viewBox="0 0 510 510" width="512" xmlns="http://www.w3.org/2000/svg"><g id="XMLID_4495_"><g id="XMLID_4536_"><g><path id="XMLID_850_" d="m338.03 147.425-83.03-1.446 195-116.111v77.807z" fill="#eae6f3"/></g></g><g id="XMLID_4532_"><g><path id="XMLID_863_" d="m172 145.015-112-37.34v-77.807l195 116.111z" fill="#fff4f6"/></g></g><path id="XMLID_4529_" d="m255 145.979-225-44.197v350.225l223.14 27.891 1.86.234 10-164.347z" fill="#fd6c5f"/><path id="XMLID_4526_" d="m255 145.979v334.153l225-28.125v-350.225z" fill="#fd465f"/><g id="XMLID_4522_"><g><g id="XMLID_950_"><path d="m148 263.865h30.001v87.298h-30.001z" fill="#fff4f6" transform="matrix(.172 -.985 .985 .172 -167.949 415.252)"/></g></g></g><g id="XMLID_4518_"><g><g id="XMLID_953_"><path d="m148 202.866h30v87.298h-30z" fill="#ffdf3f" transform="matrix(.172 -.985 .985 .172 -107.856 364.734)"/></g></g></g><g id="XMLID_4514_"><g><g id="XMLID_931_"><path d="m304.343 278.515h86.313v29.999h-86.313z" fill="#febf41" transform="matrix(.985 -.174 .174 .985 -45.716 64.848)"/></g></g></g><g id="XMLID_4510_"><g><g id="XMLID_884_"><path d="m148 322.865h30.001v87.298h-30.001z" fill="#ffdf3f" transform="matrix(.172 -.985 .985 .172 -226.071 464.114)"/></g></g></g><g id="XMLID_4506_"><g><path id="XMLID_866_" d="m304.343 337.515h86.313v29.999h-86.313z" fill="#eae6f3" transform="matrix(.985 -.174 .174 .985 -55.968 65.746)"/></g></g><g id="XMLID_4502_"><g><g id="XMLID_873_"><path d="m304.343 217.515h86.313v30h-86.313z" fill="#febf41" transform="matrix(.985 -.174 .174 .985 -35.115 63.918)"/></g></g></g><path id="XMLID_4499_" d="m502.5 225.015h7.5v105h-7.5c-28.995 0-52.5-23.505-52.5-52.5 0-28.995 23.505-52.5 52.5-52.5z" fill="#fb9"/><path id="XMLID_4496_" d="m7.5 330.015h-7.5v-105h7.5c28.995 0 52.5 23.505 52.5 52.5 0 28.995-23.505 52.5-52.5 52.5z" fill="#ffd9b3"/></g></svg>