<svg id="Layer_1" enable-background="new 0 0 510 510" height="512" viewBox="0 0 510 510" width="512" xmlns="http://www.w3.org/2000/svg"><g id="XMLID_606_"><path id="XMLID_609_" d="m112.5 0c-41.355 0-75 33.645-75 75v60l10 30-10 30v255l38-45 52-14 10-178.115-10-212.885z" fill="#ff9f41"/><path id="XMLID_4411_" d="m127.5 0v391l73 11 100-12 10-203-10-187z" fill="#ffdf3f"/><path id="XMLID_4412_" d="m472.5 0h-172v390l90 4.333 82-4.333z" fill="#febf41"/><g id="XMLID_616_"><g><path id="XMLID_861_" d="m37.5 135h90v60h-90z" fill="#febf41"/></g></g><path id="XMLID_618_" d="m97.5 420c-16.568 0-30 13.432-30 30 0 16.568 13.432 30 30 30l120 10 83-10 10-30-10-30-82-10z" fill="#fff4f6"/><path id="XMLID_619_" d="m442.5 420-76-10-66 10v60l75 10 67-10z" fill="#eae6f3"/><path id="XMLID_610_" d="m97.5 420-30 30 30 30h203v-60z" fill="none"/><path id="XMLID_4413_" d="m67.5 450c0-16.568 13.432-30 30-30h203l10-15-10-15h-203c-33.084 0-60 26.916-60 60s26.916 60 60 60h203l10-15-10-15h-203c-16.568 0-30-13.432-30-30z" fill="#febf41"/><path id="XMLID_4414_" d="m270.5 105v45h-45l-25 30 25 30h45v105l30 25 10-139-10-121z" fill="#ca7a33"/><path id="XMLID_4415_" d="m330.5 210h45l25-30-25-30h-45v-45l-30-25v260l30-25z" fill="#b1532b"/><g fill="#ff9f41"><path id="XMLID_612_" d="m300.5 390h172v30h-172z"/><path id="XMLID_4410_" d="m300.5 480h172v30h-172z"/></g></g></svg>