<svg id="Layer_1" enable-background="new 0 0 510 510" height="512" viewBox="0 0 510 510" width="512" xmlns="http://www.w3.org/2000/svg"><g id="XMLID_4576_"><path id="XMLID_4627_" d="m120 0c-41.355 0-75 33.645-75 75v60l10 30-10 30v255l38-45 52-14 10-178.115-10-212.885z" fill="#76b743"/><path id="XMLID_4624_" d="m135 0v391l60 11 107.5-12 10-203-10-187z" fill="#c4e83c"/><path id="XMLID_4621_" d="m465 0h-162.5v390l82.5 4.334 80-4.334z" fill="#9ddb2c"/><g id="XMLID_4617_"><g><path id="XMLID_849_" d="m45 135h90v60h-90z" fill="#9ddb2c"/></g></g><path id="XMLID_4614_" d="m105 420c-16.568 0-30 13.432-30 30 0 16.568 13.432 30 30 30l106.999 10 90.501-10 10-30-10-30-89.501-10z" fill="#fff4f6"/><path id="XMLID_4611_" d="m435 420-74-10-58.5 10v60l67.5 10 65-10z" fill="#eae6f3"/><path id="XMLID_4610_" d="m105 420-30 30 30 30h197.5v-60z" fill="none"/><path id="XMLID_4607_" d="m75 450c0-16.568 13.432-30 30-30h197.5l10-15-10-15h-197.5c-33.084 0-60 26.916-60 60s26.916 60 60 60h197.5l10-15-10-15h-197.5c-16.568 0-30-13.432-30-30z" fill="#9ddb2c"/><path id="XMLID_4604_" d="m302.5 390h162.5v30h-162.5z" fill="#76b743"/><path id="XMLID_4601_" d="m302.5 480h162.5v30h-162.5z" fill="#76b743"/><g><path id="XMLID_4598_" d="m287.5 120v120l6 10 9-10 10-60-10-60-7.5-10z" fill="#ca7a33"/><path id="XMLID_4595_" d="m317.5 120-9.333-10-5.667 10v120l6 10 9-10z" fill="#b1532b"/><path id="XMLID_4592_" d="m252.958 90-55.458 36.973v68.027h60v-30h-30v-21.973l34.542-23.027h40.458l10-16.333-10-13.667z" fill="#b1532b"/><path id="XMLID_4589_" d="m352.042 90h-49.542v30h40.458l34.542 23.027v21.973h-30v30h60v-68.027z" fill="#983424"/><path id="XMLID_4586_" d="m257.5 300 21.333 10 23.667-10 10-27.334-10-32.666h-45z" fill="#585f64"/><path id="XMLID_4583_" d="m347.5 300v-60h-45v60l24 10z" fill="#474f54"/><path id="XMLID_4580_" d="m197.5 300v30h105l10-15-10-15z" fill="#474f54"/><path id="XMLID_4577_" d="m302.5 300h105v30h-105z" fill="#31383e"/></g></g></svg>