<svg id="Layer_1" enable-background="new 0 0 510 510" height="512" viewBox="0 0 510 510" width="512" xmlns="http://www.w3.org/2000/svg"><g><path id="XMLID_306_" d="m240 105v30l7.5 10 7.5-10 10-15-10-15-7.5-10z" fill="#585f64"/><path id="XMLID_305_" d="m270 105-7.5-10-7.5 10v30l7.5 10 7.5-10z" fill="#474f54"/><path id="XMLID_300_" d="m30 210v270l120 10.666 105-10.666 10-120-10-150-112.5-10z" fill="#99baff"/><path id="XMLID_297_" d="m480 210-112.5-19.667-112.5 19.667v270l101 10.666 124-10.666z" fill="#6599fe"/><g id="XMLID_315_"><g><path id="XMLID_985_" d="m165 0v105h90l10-34.5-10-40.5c0-16.568-13.432-30-30-30z" fill="#fd6c5f"/></g></g><g id="XMLID_317_"><g><path id="XMLID_854_" d="m345 0c-7.259 0-52.693 0-60 0-16.566 0-30 13.432-30 30v75h90c0-28.278 0-88.527 0-105z" fill="#fd465f"/></g></g><path id="XMLID_120_" d="m45 135c-24.812 0-45 20.187-45 45v30h255l10-37.5-10-37.5c-11.664 0-198.336 0-210 0z" fill="#6599fe"/><path id="XMLID_8_" d="m510 180c0-24.811-20.186-45-45-45-11.664 0-198.336 0-210 0v75h255c0-10.492 0-19.508 0-30z" fill="#3454ff"/><g id="XMLID_324_"><g><g id="XMLID_856_"><path d="m150 490.666-45-10.666v-105c0-24.853 20.147-45 45-45 24.852 0 45 20.147 45 45v104.997z" fill="#585f64"/></g></g></g><g id="XMLID_326_"><g><path id="XMLID_792_" d="m270 270h150v75h-150z" fill="#3454ff"/></g></g><g id="XMLID_328_"><g><path id="XMLID_793_" d="m195 30v45h60l10-22.5-10-22.5z" fill="#fff4f6"/></g></g><g id="XMLID_333_"><g><path id="XMLID_794_" d="m255 30h60v45h-60z" fill="#eae6f3"/></g></g><g id="XMLID_382_"><g><path id="XMLID_796_" d="m105 255h30v30h-30z" fill="#6599fe"/></g></g><g id="XMLID_395_"><g><path id="XMLID_797_" d="m165 255h30v30h-30z" fill="#6599fe"/></g></g><path id="XMLID_308_" d="m390 390v30h-30v-30h-30v30h-30v-30h-30v90l15 5.631 15-5.631v-30h30v30l15 9.505 15-9.505v-30h30v30l17 6.131 13-6.131v-90z" fill="#474f54"/><g id="XMLID_295_"><g><g id="XMLID_1216_"><g id="XMLID_1218_"><path d="m267.937 495.75-12.937 14.25h-255v-30h255z" fill="#c4e83c"/></g></g></g></g><g id="XMLID_298_"><g><g id="XMLID_1205_"><g id="XMLID_1206_"><path d="m255 480h255v30h-255z" fill="#9ddb2c"/></g></g></g></g></g></svg>