<svg id="Layer_1" enable-background="new 0 0 510 510" height="512" viewBox="0 0 510 510" width="512" xmlns="http://www.w3.org/2000/svg"><g id="XMLID_4693_"><path id="XMLID_4714_" d="m181.52 120c-9.255 0-67.203 0-76.52 0v30h76.52c32.244 0 58.48 26.234 58.48 58.48v26.392l15 7.629 7.5-29.501-7.5-53.756c-16.306-24.256-43.612-39.244-73.48-39.244z" fill="#fff4f6"/><path id="XMLID_4711_" d="m270 208.48c0-17.733-5.259-34.746-15-49.236v83.257l12 6.832 3-28.134z" fill="#eae6f3"/><path d="m268.057 263.597-13.057-21.096c-20.865-37.736-60.816-62.501-105.727-62.501-14.486 0-104.755 0-119.273 0v30h119.273c14.781 0 28.747 3.554 41.089 9.852 12.753 6.508 23.773 15.944 32.168 27.418 9.808 5.259 14.971 29.23 14.971 29.23s17.5 14.781 17.5 24.98c-.001-3.774 13.056-37.883 13.056-37.883z" fill="#eae6f3"/><path id="XMLID_4706_" d="m287.471 247.27c16.987-23.218 43.974-37.27 73.257-37.27h119.272c0-10.492 0-19.508 0-30-14.486 0-104.755 0-119.272 0-44.892 0-84.854 24.762-105.728 62.543v59.353l21.25-23.015s1.413-26.353 11.221-31.611z" fill="#d8cee6"/><path id="XMLID_4703_" d="m193.52 240h-163.52v60.087l36.942 10.105 98.058-10.105 45 74.913 45-15 10-26-10-32.52c0-33.955-27.525-61.48-61.48-61.48z" fill="#fff4f6"/><path id="XMLID_4700_" d="m309.667 371 35.333-71 64 12.5 71-12.413c0-10.902 0-41.015 0-60.087-4.609 0-158.91 0-163.52 0-33.955 0-61.48 27.525-61.48 61.48v58.52l30 15z" fill="#eae6f3"/><path id="XMLID_4697_" d="m210 360c0-3.35 0-11.313 0-14.913 0-24.81-20.185-45-45-45-4.655 0-160.348 0-165 0v30h165c8.27 0 15 6.728 15 15v44.913h75l10-15-10-15c-14.981 0-30.019 0-45 0z" fill="#fd6c5f"/><path id="XMLID_4694_" d="m330 345c0-8.271 6.728-15 15-15h165c0-10.492 0-19.508 0-30-4.655 0-160.348 0-165 0-24.811 0-45 20.187-45 45v15c-14.981 0-30.019 0-45 0v30h75v-22.5z" fill="#fd465f"/></g></svg>