<svg id="Layer_1" enable-background="new 0 0 510 510" height="512" viewBox="0 0 510 510" width="512" xmlns="http://www.w3.org/2000/svg"><g id="XMLID_311_"><path id="XMLID_3868_" d="m330 0v510h75l10-255-10-255z" fill="#ffdf3f"/><path id="XMLID_3864_" d="m405 0h75v510h-75z" fill="#febf41"/><g id="XMLID_3783_"><g><g id="XMLID_1200_"><path d="m375 405v30h30l10-15-10-15z" fill="#febf41"/></g><g id="XMLID_1196_"><path d="m405 405h30v30h-30z" fill="#ff9f41"/></g></g></g><g id="XMLID_3430_"><g><g id="XMLID_1190_"><path d="m375 345v30h30l10-15-10-15z" fill="#febf41"/></g><g id="XMLID_1165_"><path d="m405 345h30v30h-30z" fill="#ff9f41"/></g></g></g><path id="XMLID_558_" d="m375 285v30h30l10-15-10-15z" fill="#febf41"/><path id="XMLID_452_" d="m405 285h30v30h-30z" fill="#ff9f41"/><path id="XMLID_367_" d="m390 75v30h7.5 7.5l7.5-15-7.5-15z" fill="#febf41"/><path id="XMLID_364_" d="m420 75h-15v15 15h7.5 7.5v-15z" fill="#ff9f41"/><g id="XMLID_312_"><path id="XMLID_370_" d="m180 0v510h75l10-255-10-255z" fill="#99baff"/><path id="XMLID_365_" d="m255 0h75v510h-75z" fill="#6599fe"/><g id="XMLID_459_"><g><g id="XMLID_1168_"><path d="m225 405v30h30l10-15-10-15z" fill="#6599fe"/></g><g id="XMLID_1162_"><path d="m255 405h30v30h-30z" fill="#3454ff"/></g></g></g><g id="XMLID_458_"><g><g id="XMLID_1184_"><path d="m225 345v30h30l10-15-10-15z" fill="#6599fe"/></g><g id="XMLID_1172_"><path d="m255 345h30v30h-30z" fill="#3454ff"/></g></g></g><path id="XMLID_340_" d="m225 285v30h30l10-15-10-15z" fill="#6599fe"/><path id="XMLID_337_" d="m255 285h30v30h-30z" fill="#3454ff"/><path id="XMLID_336_" d="m240 75v30h7.5 7.5l7.5-15-7.5-15z" fill="#6599fe"/><path id="XMLID_332_" d="m270 75h-15v30h7.5 7.5z" fill="#3454ff"/></g><g id="XMLID_366_"><path id="XMLID_3850_" d="m30 0v510h75l10-255-10-255z" fill="#fd6c5f"/><path id="XMLID_3793_" d="m105 0h75v510h-75z" fill="#fd465f"/><g id="XMLID_3197_"><g><g id="XMLID_1189_"><path d="m75 405v30h30l10-15-10-15z" fill="#fd465f"/></g><g id="XMLID_1188_"><path d="m105 405h30v30h-30z" fill="#e72d5a"/></g></g></g><g id="XMLID_566_"><g><g id="XMLID_1202_"><path d="m75 345v30h30l10-15-10-15z" fill="#fd465f"/></g><g id="XMLID_1194_"><path d="m105 345h30v30h-30z" fill="#e72d5a"/></g></g></g><path id="XMLID_563_" d="m75 285v30h30l10-15-10-15z" fill="#fd465f"/><path id="XMLID_559_" d="m105 285h30v30h-30z" fill="#e72d5a"/><path id="XMLID_396_" d="m90 75v30h15l7.5-15-7.5-15z" fill="#fd465f"/><path id="XMLID_372_" d="m105 75h15v30h-15z" fill="#e72d5a"/></g></g></svg>