<svg id="Layer_1" enable-background="new 0 0 510 510" height="512" viewBox="0 0 510 510" width="512" xmlns="http://www.w3.org/2000/svg"><g id="XMLID_4844_"><path id="XMLID_4903_" d="m195 0h-90v75l42.667 10 47.333-10z" fill="#6599fe"/><path id="XMLID_4900_" d="m105 75-10 58.521 10 46.479 45 10 45-10 10-60-10-45z" fill="#99baff"/><path id="XMLID_4897_" d="m450 480-35 10-40-10-10-77.5 10-72.5h75z" fill="#6599fe"/><path id="XMLID_4894_" d="m285 240-10 93.5 10 101.5 45 10 45-10v-195z" fill="#c4e83c"/><path id="XMLID_4891_" d="m285 480 45 10 45-10v-45h-90z" fill="#9ddb2c"/><path id="XMLID_4888_" d="m195 480-32 10-28-10-10-70 10-80h60l10 75z" fill="#fd465f"/><path id="XMLID_4885_" d="m195 60v120l23.03 10 21.97-10 10-60-10-60z" fill="#fd6c5f"/><path id="XMLID_4882_" d="m270 60h-30v120l15 10 15-10z" fill="#fd465f"/><path id="XMLID_4879_" d="m240 240h-45v75l17.5 10 27.5-10 11-32z" fill="#febf41"/><path id="XMLID_4876_" d="m240 240v75l22.5 10 22.5-10v-75z" fill="#ff9f41"/><path id="XMLID_4873_" d="m195 315v165l22.5 10 22.5-10 10-78.333-10-86.667z" fill="#ffdf3f"/><path id="XMLID_4870_" d="m240 480 22.5 10 22.5-10v-165h-45z" fill="#febf41"/><path id="XMLID_4867_" d="m135 480-47.5 10-27.5-10v-150h75z" fill="#99baff"/><path id="XMLID_4864_" d="m105 180-37.5 10-37.5-10v-120h75z" fill="#c4e83c"/><path id="XMLID_4861_" d="m405 180-27 10-33-10v-120h60z" fill="#e72d5a"/><g id="XMLID_4857_"><g><path id="XMLID_808_" d="m466.974 180.002-104.454-156.682 24.96-16.64 115.547 173.319-10.027 10.001z" fill="#3454ff"/></g></g><path id="XMLID_4854_" d="m0 510h240l10-15-10-15h-240z" fill="#ca7a33"/><path id="XMLID_4851_" d="m240 480h270v30h-270z" fill="#b1532b"/><path id="XMLID_4848_" d="m0 180v30h240l10-13-10-17z" fill="#ca7a33"/><path id="XMLID_4845_" d="m240 180h270v30h-270z" fill="#b1532b"/></g></svg>