<svg id="Layer_1" enable-background="new 0 0 510 510" height="512" viewBox="0 0 510 510" width="512" xmlns="http://www.w3.org/2000/svg"><g id="XMLID_399_"><path id="XMLID_688_" d="m255 0c-66.271 0-120 53.724-120 120v90 80.123l60 9.877 30-15 30-187.902 10-50.098z" fill="#585f64"/><path id="XMLID_674_" d="m375 120c0-66.271-53.725-120-120-120v90l30 195 30 15 60-9.877c0-17.032 0-153.082 0-170.123z" fill="#474f54"/><path id="XMLID_787_" d="m255 330-30-45c-7.259 0-52.693 0-60 0-49.704 0-90 40.293-90 90v15l75 30 105 30 20.667-76.334z" fill="#99baff"/><path id="XMLID_406_" d="m345 285c-7.259 0-52.693 0-60 0l-30 45v120l97.5-30 82.5-30c0-5.246 0-9.754 0-15 0-49.706-40.295-90-90-90z" fill="#6599fe"/><path id="XMLID_405_" d="m225 246.988v53.012c0 16.568 13.431 30 30 30l10-39.334-10-35.631c-5.373 0-15-10.035-15-10.035s-10.511 4.586-15 1.988z" fill="#fb9"/><path id="XMLID_404_" d="m285 300v-7.5c0-10.341 0-36.397 0-45.512-4.483 2.595-15-.654-15-.654s-9.598 8.698-14.964 8.701c-.006 0-.012 0-.018 0s-.012 0-.018 0v74.965c16.568 0 30-13.432 30-30z" fill="#f5a488"/><path id="XMLID_403_" d="m193.52 390h-163.52v46.088l45 10.787 98-10.788 41 56.413 41-12.5v-28.52c0-33.955-27.526-61.48-61.48-61.48z" fill="#fff4f6"/><path id="XMLID_402_" d="m333 435 72 15 75-15c0-14.095 0-30.95 0-45-4.609 0-158.91 0-163.52 0-33.953 0-61.48 27.524-61.48 61.48v28.52l49.333 16.666 10.667-24.166z" fill="#eae6f3"/><g id="XMLID_1401_"><g><g id="XMLID_1164_"><path d="m210 480c0-4.871 0-9.016 0-13.913 0-16.541-13.458-30-30-30-10 0-170 0-180 0v30h180v43.913h75l10-15-10-15c-14.981 0-30.019 0-45 0z" fill="#fd6c5f"/></g><g id="XMLID_1158_"><path d="m330 465h180c0-10.492 0-19.508 0-30-10 0-170 0-180 0-16.54 0-30 13.457-30 30v15c-14.981 0-30.019 0-45 0v30h75c0-14.982 0-30.019 0-45z" fill="#fd465f"/></g></g></g><path id="XMLID_673_" d="m195 135v60.035c0 16.569 6.716 31.568 17.574 42.426s25.858 17.574 42.426 17.574l15-77.369-15-87.666c-27.669 39.668-59.9 44.936-60 45z" fill="#ffd9b3"/><path id="XMLID_577_" d="m255.036 255.035c33.122-.02 59.964-26.874 59.964-60 0-7.145 0-51.843 0-59.035-13.013-5.449-24.021-12.383-32.914-19.205-17.762-13.622-27.086-26.795-27.086-26.795v165.035h.018z" fill="#fb9"/></g></svg>