<svg id="Layer_1" enable-background="new 0 0 510 510" height="512" viewBox="0 0 510 510" width="512" xmlns="http://www.w3.org/2000/svg"><g id="XMLID_4949_"><path id="XMLID_4983_" d="m255 315-30-45c-7.259 0-52.693 0-60 0-49.705 0-90 40.293-90 90v15l75 30 105 30 10-60z" fill="#fd6c5f"/><path id="XMLID_4980_" d="m345 270c-7.259 0-52.693 0-60 0l-30 45v120l97.5-30 82.5-30c0-5.246 0-9.754 0-15 0-49.706-40.295-90-90-90z" fill="#fd465f"/><path id="XMLID_4977_" d="m225 236.971v48.029c0 16.568 13.432 30 30 30l10-52.5-10-17.501-15.533-17.038z" fill="#fb9"/><path id="XMLID_4974_" d="m285 285c0-20.697 0-27.332 0-48.029l-18.333-2.305-11.667 10.333v70.001c16.568 0 30-13.432 30-30z" fill="#f5a488"/><path id="XMLID_4971_" d="m193.519 375h-163.519v46.087l43.333 7.247 106.667-7.247 32 58.913 43-15v-28.52c0-33.955-27.525-61.48-61.481-61.48z" fill="#fff4f6"/><path id="XMLID_4968_" d="m330 420 75 15 75-15c0-14.095 0-30.95 0-45-4.609 0-158.91 0-163.52 0-33.953 0-61.48 27.524-61.48 61.48v28.52l22.5 15 37.5-22.5z" fill="#eae6f3"/><path id="XMLID_4965_" d="m210 465c0-4.871 0-9.016 0-13.913 0-16.54-13.456-30-30-30-10 0-170 0-180 0v30h180v43.913h75l10-15-10-15c-14.981 0-30.019 0-45 0z" fill="#ca7a33"/><path id="XMLID_4962_" d="m330 450h180c0-10.492 0-19.508 0-30-10 0-170 0-180 0-16.537 0-30 13.455-30 30v15c-14.981 0-30.019 0-45 0v30h75c0-14.982 0-30.019 0-45z" fill="#b1532b"/><path id="XMLID_4959_" d="m195 90v95c0 33.136 26.862 60 60 60l10-67.5-10-87.5-30-10z" fill="#ffd9b3"/><path id="XMLID_4956_" d="m255.035 245c33.123-.02 59.965-26.874 59.965-60 0-20.194 0-83.236 0-95l-30-10-30 10v155h.018z" fill="#fb9"/><path id="XMLID_4953_" d="m195 75v15h60l10-37.5-10-37.5c-33.136 0-60 26.862-60 60z" fill="#585f64"/><path id="XMLID_4950_" d="m345 42.566c0-9.641 0-17.926 0-27.566-10.889 0-79.039 0-90 0v75h60c18.318-6.107 30-27.99 30-47.434z" fill="#474f54"/></g></svg>