<svg id="Layer_1" enable-background="new 0 0 510 510" height="512" viewBox="0 0 510 510" width="512" xmlns="http://www.w3.org/2000/svg"><g id="XMLID_411_"><path id="XMLID_1576_" d="m69.5 397-34.5 56 30 42 175-15 10-30-10-30z" fill="#fff4f6"/><path id="XMLID_1585_" d="m286.068 420-8.642-5.347-37.426 5.347v60l56.994 8.143 19.532-8.143z" fill="#eae6f3"/><path id="XMLID_1587_" d="m90 0c-41.355 0-75 33.645-75 75v375l30-30 60-30 10-221-10-169z" fill="#983424"/><path id="XMLID_1381_" d="m105 0v390l72.5 10 62.5-10 10-195-10-195z" fill="#ca7a33"/><path id="XMLID_1574_" d="m390 0h-150v390h46l104-90z" fill="#b1532b"/><g id="XMLID_1380_"><g><g id="XMLID_811_"><path d="m150 300h90v30h-90z" fill="#ffdf3f"/></g></g></g><path id="XMLID_1187_" d="m45 450 30 30h165v-60h-165z" fill="none"/><path id="XMLID_1650_" d="m150 75v60h90l10-30-10-30z" fill="#fff4f6"/><path id="XMLID_1683_" d="m240 75h90v60h-90z" fill="#eae6f3"/><path id="XMLID_1685_" d="m150 180v30h90l10-15-10-15z" fill="#ffdf3f"/><path id="XMLID_1688_" d="m150 240v30h90l10-15-10-15z" fill="#ffdf3f"/><path id="XMLID_3428_" d="m75 480c-16.542 0-30-13.458-30-30s13.458-30 30-30h165l10-15-10-15h-165c-33.084 0-60 26.916-60 60s26.916 60 60 60h165l10-15-10-15z" fill="#b1532b"/><path id="XMLID_3422_" d="m316.526 480h-76.526v30h150z" fill="#983424"/><path id="XMLID_3429_" d="m297 405-11-15h-46v30h46.068z" fill="#983424"/><path id="XMLID_1575_" d="m285 405c0 57.99 47.01 105 105 105l10-96.333-10-113.667c-57.99 0-105 47.01-105 105z" fill="#c4e83c"/><path id="XMLID_1588_" d="m390 300v210c57.99 0 105-47.01 105-105s-47.01-105-105-105z" fill="#9ddb2c"/><path id="XMLID_1597_" d="m375 345v66.598l-20.034-17.809-19.932 22.422 54.966 48.858 10-50.069-10-70z" fill="#585f64"/><path id="XMLID_1684_" d="m240 180h90v30h-90z" fill="#febf41"/><path id="XMLID_1873_" d="m240 240h30v30h-30z" fill="#b1532b"/><path id="XMLID_1589_" d="m425.034 393.789-20.034 17.809v-66.598h-15v120.069l54.966-48.858z" fill="#474f54"/></g></svg>