<svg id="Layer_1" enable-background="new 0 0 510 510" height="512" viewBox="0 0 510 510" width="512" xmlns="http://www.w3.org/2000/svg"><g id="XMLID_5046_"><path id="XMLID_5104_" d="m217 429.5-22 5.5-22.5 30h-52.5v30h135l10-15-10-15h-45l22.5-30z" fill="#474f54"/><path id="XMLID_5101_" d="m337.5 465-22.5-30-20.667-8.666-16.833 8.666 22.5 30h-45v30h135v-30z" fill="#31383e"/><path id="XMLID_5098_" d="m0 15v420h255l10-210-10-210z" fill="#585f64"/><path id="XMLID_5095_" d="m255 15h255v420h-255z" fill="#474f54"/><path id="XMLID_5092_" d="m30 45v360h225l10-180-10-180z" fill="#fff4f6"/><path id="XMLID_5089_" d="m255 45h225v360h-225z" fill="#eae6f3"/><path id="XMLID_5086_" d="m60 75h90v90h-90z" fill="#fd465f"/><path id="XMLID_5083_" d="m360 225h90v90h-90z" fill="#6599fe"/><path id="XMLID_5080_" d="m60 285h90v90h-90z" fill="#c4e83c"/><g id="XMLID_5076_"><g><path id="XMLID_932_" d="m75 210h180v30h-180z" fill="#fd6c5f"/></g></g><g id="XMLID_5072_"><g><g id="XMLID_889_"><path d="m180 135h75v30h-75z" fill="#c4e83c"/></g></g></g><path id="XMLID_5069_" d="m180 285v30h75l10-15-10-15z" fill="#fd6c5f"/><path id="XMLID_5066_" d="m255 285h75v30h-75z" fill="#fd465f"/><path id="XMLID_5063_" d="m180 75v30h75l10-15-10-15z" fill="#c4e83c"/><path id="XMLID_5060_" d="m255 75h195v30h-195z" fill="#9ddb2c"/><path id="XMLID_5057_" d="m180 345v30h75l10-15-10-15z" fill="#99baff"/><path id="XMLID_5054_" d="m255 345h195v30h-195z" fill="#6599fe"/><g id="XMLID_5047_"><g><g id="XMLID_876_"><path d="m315 135h135v30h-135z" fill="#9ddb2c"/></g></g></g></g></svg>