<svg id="Layer_1" enable-background="new 0 0 510 510" height="512" viewBox="0 0 510 510" width="512" xmlns="http://www.w3.org/2000/svg"><g id="XMLID_466_"><path id="XMLID_595_" d="m0 135v60l45 10 45-10 10-30-10-30-45-10z" fill="#6599fe"/><path id="XMLID_592_" d="m420 105 22.766 15 37.234-15v-60h-60l-13 29z" fill="#fd465f"/><path id="XMLID_589_" d="m420 300h60v-60h-60l-21.97 34z" fill="#c4e83c"/><path id="XMLID_548_" d="m420 165h90v-60h-90l-13 30z" fill="#febf41"/><path id="XMLID_544_" d="m0 450 38.03-39 51.97-21 20-75-20-120h-90z" fill="#3454ff"/><path id="XMLID_533_" d="m90 0c-5.246 0-9.754 0-15 0-41.354 0-75 33.644-75 75v60h90l10-67.5z" fill="#3454ff"/><path id="XMLID_526_" d="m90 0v390l75 15 90-15 10-173.654-10-216.346z" fill="#99baff"/><path id="XMLID_519_" d="m420 0h-165v390l82.5 15 82.5-15z" fill="#6599fe"/><g id="XMLID_513_"><g><g id="XMLID_1011_"><path d="m180 300h45v30h-45z" fill="#fff4f6"/></g></g></g><g id="XMLID_505_"><g><path id="XMLID_992_" d="m255 300h75v30h-75z" fill="#eae6f3"/></g></g><path id="XMLID_502_" d="m60 420c-16.568 0-30 13.432-30 30 0 16.568 13.432 30 30 30l97.5 10 97.5-10 10-30-10-30-97.5-10z" fill="#fff4f6"/><path id="XMLID_499_" d="m390 420-67.5-10-67.5 10v60l67.5 10 67.5-10z" fill="#eae6f3"/><path id="XMLID_498_" d="m60 480c-16.541 0-30-13.457-30-30 0-16.54 13.457-30 30-30h195l10-15-10-15c-10.822 0-184.178 0-195 0-33.083 0-60 26.915-60 60 0 33.083 26.915 60 60 60h195l10-15-10-15c-10.822 0-184.178 0-195 0z" fill="#6599fe"/><path id="XMLID_496_" d="m255 390h165v30h-165z" fill="#3454ff"/><path id="XMLID_494_" d="m255 480h165v30h-165z" fill="#3454ff"/><path id="XMLID_481_" d="m255 165c-33.136 0-60 26.862-60 60v30h60l10-45z" fill="#c4e83c"/><path id="XMLID_473_" d="m315 225c0-33.135-26.862-60-60-60v90h60c0-10.492 0-19.508 0-30z" fill="#9ddb2c"/><path id="XMLID_471_" d="m225 135c0 16.568 13.432 30 30 30l10-30-10-30c-16.568 0-30 13.432-30 30z" fill="#ffd9b3"/><path id="XMLID_468_" d="m285 135c0-16.566-13.432-30-30-30v60c16.566 0 30-13.432 30-30z" fill="#fb9"/></g></svg>