<svg id="Layer_1" enable-background="new 0 0 510 510" height="512" viewBox="0 0 510 510" width="512" xmlns="http://www.w3.org/2000/svg"><g id="XMLID_5167_"><path id="XMLID_5209_" d="m262.5 0h-37.5v75l17.333 10 20.167-10 10-30z" fill="#9ddb2c"/><path id="XMLID_5206_" d="m262.5 0v75l18.75 10 18.75-10v-75z" fill="#76b743"/><path id="XMLID_5203_" d="m225 240v90l14.999 15 22.501-15 22.5-45-22.5-45z" fill="#9ddb2c"/><path id="XMLID_5200_" d="m262.5 75h-37.5v165h37.5l22.5-75z" fill="#c4e83c"/><path id="XMLID_5197_" d="m262.5 330 22.5 15 15-15v-90h-37.5z" fill="#76b743"/><path id="XMLID_5194_" d="m262.5 75h37.5v165h-37.5z" fill="#9ddb2c"/><path id="XMLID_5191_" d="m135 60h-75v195l37.5 10 37.5-10z" fill="#ffdf3f"/><path id="XMLID_5188_" d="m60 255v75l37.5 10 37.5-10v-75z" fill="#febf41"/><path id="XMLID_5185_" d="m225 105h-90v75l41.999 10 48.001-10z" fill="#6599fe"/><path id="XMLID_5182_" d="m135 180v150l45 10 45-10v-150z" fill="#99baff"/><g id="XMLID_5178_"><g><path id="XMLID_1042_" d="m480 300-75 15c-24.853 0-60-20.147-60-45 0 0 35.147-45 60-45l75 15z" fill="#fff4f6"/></g></g><g id="XMLID_5174_"><g><path id="XMLID_1077_" d="m510 330-53.667 10-66.333-10c-33.084 0-60-26.916-60-60s26.916-60 60-60h120v30h-120c-16.542 0-30 13.458-30 30s13.458 30 30 30h120z" fill="#6599fe"/></g></g><path id="XMLID_5173_" d="m135 381-21.213 9-38.787 38.787v-38.787l-15-7.5-15 7.5v120h30v-38.787l81.213-81.213z" fill="#ca7a33"/><path id="XMLID_5172_" d="m447.667 383-12.667 7v38.787l-38.787-38.787-21.213-11-21.214 10.999 81.214 81.214v38.787h30v-120z" fill="#b1532b"/><path id="XMLID_5171_" d="m0 330v60h262.5l22.5-30-22.5-30z" fill="#b1532b"/><path id="XMLID_5168_" d="m262.5 330h247.5v60h-247.5z" fill="#983424"/></g></svg>