<svg id="Layer_1" enable-background="new 0 0 510 510" height="512" viewBox="0 0 510 510" width="512" xmlns="http://www.w3.org/2000/svg"><g id="XMLID_1096_"><path id="XMLID_1467_" d="m442.5 510h15l10-13.5-10-16.5-7.5-7-7.5 7z" fill="#99baff"/><path id="XMLID_1825_" d="m412.5 101 23.333 10 21.667-10 10-34-10-64.5z" fill="#eae6f3"/><path id="XMLID_1829_" d="m457.5 2.5v98.5l18.333 10 26.667-10z" fill="#d8cee6"/><path id="XMLID_1207_" d="m472.5 510v-30l-8.75-6.25-6.25 6.25v30z" fill="#6599fe"/><path id="XMLID_1242_" d="m412.5 101v289l10 15-10 15v30l15 30h30l10-195-10-184z" fill="#b1532b"/><path id="XMLID_1523_" d="m457.5 101v379h30l15-30v-30l-10-15 10-15v-289z" fill="#983424"/><path id="XMLID_1150_" d="m81.5 379-74 11v60h150l10-30-10-30z" fill="#eae6f3"/><path id="XMLID_1445_" d="m367.5 0h-75l-135 390v60h210z" fill="#d8cee6"/><path id="XMLID_1145_" d="m7.5 0v390h150l10-199-10-191z" fill="#fff4f6"/><path id="XMLID_1443_" d="m157.5 0h135v390h-135z" fill="#eae6f3"/><path id="XMLID_1860_" d="m412.5 390v30h45l10-16.334-10-13.666z" fill="#ffdf3f"/><path id="XMLID_1975_" d="m457.5 390h45v30h-45z" fill="#febf41"/><path id="XMLID_1330_" d="m97.5 60v30h60l10-15-10-15z" fill="#585f64"/><path id="XMLID_1564_" d="m157.5 60h75v30h-75z" fill="#474f54"/><path id="XMLID_1590_" d="m67.5 300h60v30h-60z" fill="#585f64"/><path id="XMLID_1976_" d="m202.5 300h45v30h-45z" fill="#474f54"/><path id="XMLID_1978_" d="m97.5 270h60l10-15-10-15h-60z" fill="#fd6c5f"/><path id="XMLID_1980_" d="m157.5 240h75v30h-75z" fill="#fd465f"/><path id="XMLID_2879_" d="m67.5 135v60h90l10-30-10-30z" fill="#99baff"/><path id="XMLID_2903_" d="m157.5 135h90v60h-90z" fill="#6599fe"/></g></svg>