<svg id="Layer_1" enable-background="new 0 0 510 510" height="512" viewBox="0 0 510 510" width="512" xmlns="http://www.w3.org/2000/svg"><g id="XMLID_5271_"><path id="XMLID_5301_" d="m169.842 150.365c1.75 4.832 3.254 8.984 5.004 13.816 8.468 23.387 34.241 35.465 57.631 26.998 7.877-2.852 14.646-5.303 22.523-8.154l15-32.66-15-32.607-49.333 11.383z" fill="#ffdf3f"/><path id="XMLID_5298_" d="m372.306 92.702c-.042-.116-6.59-18.212-6.213-17.17l-.1-.276-63.66 12.22-47.333 30.282v65.268c10.653-3.857 79.619-28.826 90.306-32.695 23.384-8.463 35.472-34.228 27-57.629z" fill="#febf41"/><g id="XMLID_5294_"><g><g id="XMLID_1014_"><path d="m135 309.615-15 15-15-15v-42.111l-58.928-147.317 27.855-11.142 61.073 152.682z" fill="#fff4f6"/></g></g></g><path id="XMLID_5291_" d="m165 399.615-45 17.385-45-17.385v-90h90z" fill="#983424"/><path id="XMLID_5287_" d="m25.402 170.973 10.252 28.193 134.188-48.801 85.158-32.607 7.333-16.092-7.333-14.19z" fill="#eae6f3"/><path id="XMLID_5284_" d="m356.994 50.385-101.994 37.091v30.282l110.993-42.502z" fill="#d8cee6"/><path id="XMLID_5281_" d="m381.75 299.615-53.25 10c-12.012 0-22.887 3.246-30.76 8.494v43.012c7.873 5.248 18.748 8.494 30.76 8.494l53.25 10 53.25-10c0-7.26 0-52.693 0-60z" fill="#eae6f3"/><path id="XMLID_5278_" d="m287.594 382.022c10.864 10.865 25.864 17.594 42.406 17.594l68.03 11.384 66.97-11.385c0-10.492 0-19.508 0-30-16.333 0-118.559 0-135 0-8.271 0-15.771-3.364-21.203-8.797-11.727-11.725-11.734-30.672 0-42.406 5.433-5.432 12.933-8.797 21.203-8.797h135c0-10.492 0-19.508 0-30-16.333 0-118.559 0-135 0-16.542 0-31.542 6.729-42.406 17.594-23.45 23.449-23.472 61.346 0 84.813z" fill="#fd465f"/><path id="XMLID_5275_" d="m0 399.615v60h255l23.03-30-23.03-30z" fill="#b1532b"/><path id="XMLID_5272_" d="m510 399.615h-255v60h255v-30z" fill="#983424"/></g></svg>