<svg id="Layer_1" enable-background="new 0 0 510 510" height="512" viewBox="0 0 510 510" width="512" xmlns="http://www.w3.org/2000/svg"><g id="XMLID_657_"><g id="XMLID_1438_"><g><path id="XMLID_1093_" d="m45.001 135v60l45 13 45-13 17-30-17-30-45-23z" fill="#fd465f"/></g></g><g id="XMLID_1726_"><g><g id="XMLID_1064_"><path d="m45.001 450 39-40 51-20 17-90-17-105h-90z" fill="#e72d5a"/></g></g></g><g id="XMLID_1441_"><g><g id="XMLID_1116_"><path d="m135.001 0c-5.246 0-9.754 0-15 0-41.354 0-75 33.644-75 75v60h90l17-60z" fill="#e72d5a"/></g></g></g><path id="XMLID_1102_" d="m135.001 0v390l80 15 70-15 10-173.077-10-216.923z" fill="#fd6c5f"/><path id="XMLID_1241_" d="m465.001 0h-180v390l90 36.923 90-36.923z" fill="#fd465f"/><path id="XMLID_1243_" d="m105.001 420c-16.568 0-30 13.432-30 30 0 16.568 13.432 30 30 30l90 10 90-10 10-30-10-30-90-10z" fill="#fff4f6"/><path id="XMLID_1239_" d="m435.001 420-75-10-75 10v60l75 10 75-10z" fill="#eae6f3"/><g id="XMLID_1919_"><g><g id="XMLID_1047_"><path d="m375.001 150-45-30-45 30v-150h90z" fill="#febf41"/></g></g></g><path id="XMLID_1020_" d="m105.001 420-21.203 8.797v42.406l21.203 8.797h180v-60z" fill="none"/><path id="XMLID_1411_" d="m83.798 428.797c5.433-5.433 12.933-8.797 21.203-8.797h180l10-15-10-15c-10 0-170 0-180 0-16.542 0-31.542 6.728-42.406 17.594-23.455 23.455-23.468 61.346 0 84.812 10.864 10.866 25.864 17.594 42.406 17.594h180l10-15-10-15c-10 0-170 0-180 0-8.271 0-15.771-3.365-21.203-8.797-11.727-11.725-11.734-30.674 0-42.406z" fill="#fd465f"/><path id="XMLID_1412_" d="m195.001 270v30h90l10-15-10-15z" fill="#fff4f6"/><path id="XMLID_1415_" d="m285.001 270h105v30h-105z" fill="#eae6f3"/><path id="XMLID_1435_" d="m195.001 330v30h90l10-15-10-15z" fill="#fff4f6"/><path id="XMLID_1796_" d="m285.001 330h105v30h-105z" fill="#eae6f3"/><g fill="#e72d5a"><path id="XMLID_1322_" d="m465.001 510v-15-15h-180v30z"/><path id="XMLID_1324_" d="m285.001 390h180v30h-180z"/></g></g></svg>