<svg id="Layer_1" enable-background="new 0 0 510 510" height="512" viewBox="0 0 510 510" width="512" xmlns="http://www.w3.org/2000/svg"><g id="XMLID_5358_"><path id="XMLID_5396_" d="m84.333 53.666v34.82l-4 25.848 92.167 19.152 82.5-15 10-30-10-30-82.5-15z" fill="#fff4f6"/><path id="XMLID_5395_" d="m480 58.486-112.5-15-112.5 15v60l112.5 15 112.5-15z" fill="#eae6f3"/><path id="XMLID_5394_" d="m90 295-9.667 33.486 6.77 31.514 85.397 13.486 82.5-15 15-30-15-30-82.5-15z" fill="#fff4f6"/><path id="XMLID_5393_" d="m480 298.486-112.5-15-112.5 15v60l112.5 15 112.5-15z" fill="#eae6f3"/><path id="XMLID_5390_" d="m30 178.486v60l112.5 15 112.5-15 10-30-10-30-112.5-15z" fill="#fff4f6"/><path id="XMLID_5389_" d="m416.333 173.666-78.833-10.18-82.5 15v60l82.5 15 78.167-10.486 13.333-39.334z" fill="#eae6f3"/><path id="XMLID_5386_" d="m0 148.486v30h255l15-15-15-15z" fill="#c4e83c"/><path id="XMLID_5383_" d="m0 238.486v30h255l15-15-15-15z" fill="#c4e83c"/><path id="XMLID_5380_" d="m450 208.486c0-33.083-26.915-60-60-60-16.333 0-118.559 0-135 0v30h135c8.272 0 15.772 3.364 21.203 8.797 11.727 11.725 11.734 30.674 0 42.406-5.432 5.432-12.932 8.797-21.203 8.797-16.333 0-118.559 0-135 0v30h135c33.083 0 60-26.915 60-60z" fill="#9ddb2c"/><path id="XMLID_5377_" d="m120 118.486c-8.271 0-15.771-3.365-21.203-8.797-11.727-11.725-11.734-30.674 0-42.406 5.432-5.433 12.932-8.797 21.203-8.797h135l10-15-10-15c-16.333 0-118.559 0-135 0-33.083 0-60 26.916-60 60 0 33.083 26.915 60 60 60h135l15-15-15-15c-16.333 0-118.559 0-135 0z" fill="#fd6c5f"/><path id="XMLID_5374_" d="m255 28.486h255v30h-255z" fill="#fd465f"/><path id="XMLID_5371_" d="m255 118.486h255v30h-255z" fill="#fd465f"/><path id="XMLID_5368_" d="m120 358.486c-16.54 0-30-13.457-30-30 0-16.541 13.457-30 30-30h135l15-15-15-15c-16.333 0-118.559 0-135 0-33.083 0-60 26.916-60 60 0 16.542 6.729 31.542 17.594 42.406 10.864 10.865 25.864 17.594 42.406 17.594h135l15-15-15-15c-16.333 0-118.559 0-135 0z" fill="#ffdf3f"/><path id="XMLID_5365_" d="m255 268.486h255v30h-255z" fill="#febf41"/><path id="XMLID_5362_" d="m255 358.486h255v30h-255z" fill="#febf41"/><path id="XMLID_5359_" d="m285 481.514 45-30 45 30v-143.028h-90z" fill="#fd465f"/></g></svg>