<svg id="Capa_1" enable-background="new 0 0 507.885 507.885" height="512" viewBox="0 0 507.885 507.885" width="512" xmlns="http://www.w3.org/2000/svg"><g><path d="m414.339 127.213v96.744c0 10.371-8.424 18.785-18.795 18.785h-283.202c-10.371 0-18.795-8.414-18.795-18.785v-96.744c0-10.371 8.424-18.785 18.795-18.785h283.202c10.371 0 18.795 8.414 18.795 18.785z" fill="#ffeee7"/><path d="m137.43 242.742h-25.088c-10.371 0-18.795-8.414-18.795-18.785v-96.744c0-10.371 8.424-18.785 18.795-18.785h25.088c-.328 0-.646.01-.963.021-9.941.502-17.832 8.721-17.832 18.765v96.744c-.001 10.37 8.413 18.784 18.795 18.784z" fill="#ffe2db"/><path d="m296.719 59.882-36.771 36.75-11.796 11.796-48.567-48.546c-13.405-13.394-14.091-35.213-.984-48.895 9.398-9.808 23.1-12.862 35.193-9.172 4.683 1.425 9.131 3.874 12.985 7.327.779.697 1.968.697 2.747 0 13.794-12.38 35.131-11.765 48.177 1.845 13.118 13.681 12.421 35.5-.984 48.895z" fill="#f58a97"/><path d="m259.948 96.632-11.796 11.796-48.567-48.546c-13.405-13.394-14.091-35.213-.984-48.895 9.398-9.808 23.1-12.862 35.193-9.172-3.679 1.814-7.112 4.335-10.105 7.584-13.118 14.184-12.421 36.802.974 50.688z" fill="#f07281"/><path d="m309.263 507.589h-132.603c-4.765 0-8.25-3.976-7.03-8.035l21.142-70.662h104.379l21.142 70.662c1.21 4.058-2.265 8.035-7.03 8.035z" fill="#dff6fd"/><path d="m201.738 507.589h-25.078c-4.765 0-8.25-3.976-7.03-8.035l21.142-70.662h25.078l-21.142 70.672c-1.22 4.059 2.264 8.025 7.03 8.025z" fill="#c8effe"/><path d="m488.895 228.517v199.986c0 10.371-8.414 18.785-18.795 18.785h-432.315c-3.331 0-6.456-.871-9.172-2.388-5.749-3.218-9.623-9.357-9.623-16.397v-199.986c0-10.371 8.414-18.785 18.795-18.785h432.315c10.381 0 18.795 8.414 18.795 18.785z" fill="#ffeee7"/><path d="m62.873 446.755h-26.112c-2.921 0-5.678-.666-8.147-1.855-5.749-3.218-9.623-9.357-9.623-16.397v-199.986c0-10.371 8.414-18.785 18.795-18.785h20.65c-8.24 1.988-14.358 9.408-14.358 18.252v199.986c0 10.371 8.414 18.785 18.795 18.785z" fill="#ffe2db"/><path d="m488.895 318.446v42.766c-26.707-5.616-35.859-18.201-76.78-18.201-52.738 0-52.738 20.876-105.455 20.876-52.728 0-52.728-20.876-105.455-20.876-52.707 0-52.707 20.876-105.435 20.876-25.682 0-38.851-4.95-51.692-10.033-7.625-3.013-15.137-6.077-25.088-8.168v-42.766c9.951 2.101 17.463 5.165 25.088 8.178 12.841 5.073 26.01 10.023 51.692 10.023 52.727 0 52.727-20.876 105.435-20.876 52.727 0 52.727 20.876 105.455 20.876 52.717 0 52.717-20.876 105.455-20.876 40.921 0 50.073 12.575 76.78 18.201z" fill="#ffe177"/><path d="m44.078 311.098v42.756c-7.625-3.013-15.137-6.077-25.088-8.168v-42.766c9.951 2.101 17.463 5.165 25.088 8.178z" fill="#ffc344"/><path d="m488.895 227.984v21.142c-4.817 3.607-8.547 8.076-17.832 8.076-15.506 0-15.506-12.523-31.022-12.523-15.506 0-15.506 12.523-31.022 12.523-15.506 0-15.506-12.523-31.011-12.523-15.516 0-15.516 12.523-31.022 12.523-15.526 0-15.526-12.523-31.032-12.523s-15.506 12.523-31.011 12.523c-15.516 0-15.516-12.523-31.022-12.523s-15.506 12.523-31.011 12.523-15.506-12.523-31.011-12.523c-15.516 0-15.516 12.523-31.032 12.523-15.506 0-15.506-12.523-31.011-12.523-15.506 0-15.506 12.523-31.011 12.523-15.516 0-15.516-12.523-31.022-12.523-12.523 0-14.932 8.168-23.561 11.304-2.06.758-4.468 1.219-7.461 1.219-9.264 0-12.995-4.468-17.812-8.076v-21.142c0-10.371 8.414-18.785 18.795-18.785h432.316c10.381 0 18.795 8.414 18.795 18.785z" fill="#fd9468"/><path d="m507.885 420.325v40.204c0 4.53-3.669 8.199-8.199 8.199h-491.487c-4.53 0-8.199-3.669-8.199-8.199v-40.204c0-4.53 3.669-8.199 8.199-8.199h491.488c4.529 0 8.198 3.669 8.198 8.199z" fill="#f2fbff"/><path d="m33 468.727h-24.801c-4.53 0-8.199-3.669-8.199-8.199v-40.204c0-4.53 3.669-8.199 8.199-8.199h25.231c-4.612 0-8.352 3.741-8.352 8.352v39.907c0 4.469 3.515 8.118 7.922 8.343z" fill="#dff6fd"/><path d="m55.751 209.199c-6.774 3.033-11.488 9.828-11.488 17.729v29.054c-2.06.758-4.468 1.219-7.461 1.219-9.264 0-12.995-4.468-17.812-8.076v-21.142c0-10.371 8.414-18.785 18.795-18.785h17.966z" fill="#fe7d43"/><path d="m414.339 127.213v28.634c-1.558.379-3.31.584-5.319.584-15.506 0-15.506-12.523-31.011-12.523-15.516 0-15.516 12.523-31.022 12.523-15.526 0-15.526-12.523-31.032-12.523s-15.506 12.523-31.011 12.523c-15.516 0-15.516-12.523-31.022-12.523s-15.506 12.523-31.011 12.523-15.506-12.523-31.011-12.523c-15.516 0-15.516 12.523-31.032 12.523-15.506 0-15.506-12.523-31.011-12.523-5.001 0-8.404 1.302-11.222 3.074-5.903 3.71-9.295 9.449-19.789 9.449-2.009 0-3.741-.205-5.298-.574v-28.644c0-10.371 8.424-18.785 18.795-18.785h283.202c10.37 0 18.794 8.414 18.794 18.785z" fill="#fd9468"/><path d="m137.43 108.428c-.328 0-.646.01-.963.021-9.941.523-17.832 9.049-17.832 19.492v19.041c-5.903 3.71-9.295 9.449-19.789 9.449-2.009 0-3.741-.205-5.298-.574v-28.644c0-10.371 8.424-18.785 18.795-18.785z" fill="#fe7d43"/></g></svg>