<svg id="Capa_1" enable-background="new 0 0 507.04 507.04" height="512" viewBox="0 0 507.04 507.04" width="512" xmlns="http://www.w3.org/2000/svg"><g><path d="m419.63 154.14v273h-332.22v-273c0-12.43 1.6-24.49 4.62-35.98 15.91-60.74 71.17-105.55 136.9-105.55h49.18c78.16 0 141.52 63.36 141.52 141.53z" fill="#f2fbff"/><path d="m253.97 12.61c-80.53 0-145.81 65.28-145.81 145.81v268.72h-20.75v-273c0-12.43 1.6-24.49 4.62-35.98 15.91-60.74 71.17-105.55 136.9-105.55h25.04z" fill="#dff6fd"/><path d="m432.97 391.8v113.24c0 1.1-.89 2-2 2h-56.97l-117.054-34.988-123.816 34.988h-57.06c-1.11 0-2-.9-2-2v-113.24c0-48.36 39.21-87.57 87.57-87.57h5.64c19.91 0 36.06-16.14 36.06-36.06v-42.48h100.36v42.48c0 19.92 16.15 36.06 36.06 36.06h5.64c48.36 0 87.57 39.21 87.57 87.57z" fill="#fed2a4"/><g fill="#ffbd86"><path d="m227.34 225.69v42.48c0 19.92-16.15 36.06-36.06 36.06h-5.64c-48.36 0-87.57 39.21-87.57 87.57v113.24c0 1.1.89 2 2 2h-24c-1.11 0-2-.9-2-2v-113.24c0-48.36 39.21-87.57 87.57-87.57h5.64c19.91 0 36.06-16.14 36.06-36.06v-42.48z"/><path d="m315.486 178.815h41.514c11.046 0 20-8.954 20-20v-14.543c0-11.046-8.954-20-20-20h-41.514z"/><path d="m191.554 178.815h-41.514c-11.046 0-20-8.954-20-20v-14.543c0-11.046 8.954-20 20-20h41.514z"/></g><path d="m300.52 38.31v6.43h-94v-6.43c0-4.1.65-8.06 1.84-11.76 4.96-15.41 19.41-26.55 36.47-26.55h17.38c17.06 0 31.51 11.14 36.47 26.55 1.19 3.7 1.84 7.66 1.84 11.76z" fill="#c68d7a"/><path d="m265.02.19c-19.37 1.91-34.5 18.25-34.5 38.12v6.43h-24v-6.43c0-21.16 17.15-38.31 38.31-38.31h16.38c1.29 0 2.56.06 3.81.19z" fill="#bc7c63"/><path d="m349.91 134.29c0 57.97-43.16 129.43-96.39 129.43-.11 0-.23 0-.34-.01-52.8-.83-96.05-71.79-96.05-129.42 0-9.66 1.19-19.02 3.45-27.91 11.15-44.12 48.159-54.378 92.149-54.788.16-.01-1.007-.008-.848-.008 44.19.31 83.588 10.746 94.648 55.116 2.211 8.79 3.381 18.04 3.381 27.59z" fill="#fed2a4"/><path d="m303.7 241.64v25.01c-14.62 13.55-31.79 22.07-50.18 22.07-.11 0-.23 0-.34-.01-18.21-.28-35.29-8.91-49.84-22.46v-25.01c14.55 13.55 31.63 22.18 49.84 22.47.11.01.23.01.34.01 18.38 0 35.56-8.53 50.18-22.08z" fill="#ffbd86"/><path d="m265.3 262.34c-3.97.86-8.02 1.33-12.12 1.37-52.8-.83-96.05-71.79-96.05-129.42 0-9.66 1.19-19.02 3.45-27.91 11.15-44.12 49.4-72.769 93.39-73.179 4.01.05 7.46 12.026 11.34 12.596-38.65 5.66-70.62 20.593-80.73 60.583-2.26 8.89-3.45 18.25-3.45 27.91 0 53.24 36.92 117.86 84.17 128.05z" fill="#ffbd86"/><path d="m346.53 106.7c-11.45 7.93-25.35 12.57-40.34 12.57-27.38 0-51.13-15.5-62.98-38.19-.71-1.35-2.58-1.49-3.48-.26-12.47 16.96-32.28 28.18-54.77 28.96-.83.03-1.66.04-2.49.04h-.53c-7.45-.06-14.63-1.25-21.36-3.44 11.18-44.24 48.3-76.79 92.44-77.04h.5c2.8 0 5.58.13 8.32.39 40.76 3.79 74.28 35.2 84.69 76.97z" fill="#c68d7a"/><path d="m300.52 38.31v4.34c-11.62-7.09-24.72-11.62-38.68-12.92-2.74-.26-5.52-.39-8.32-.39h-.5c-16.88.09-32.73 4.91-46.5 13.3v-4.33c0-4.1.65-8.06 1.84-11.76 13.33-7.72 28.53-12.12 44.66-12.21h.5c2.8 0 5.58.13 8.32.39 13.22 1.23 25.68 5.36 36.84 11.82 1.19 3.7 1.84 7.66 1.84 11.76z" fill="#bc7c63"/><path d="m260.84 29.73c-37.87 7.89-68 39.48-76.88 80.05-.67.02-1.35.04-2.02.04-7.45-.06-14.63-1.25-21.36-3.44 11.18-44.24 48.3-76.79 92.44-77.04 2.63.02 5.24.15 7.82.39z" fill="#bc7c63"/><g><path d="m253.52 231.403c-9.658 0-19.316-3.676-26.669-11.029-2.929-2.929-2.929-7.678 0-10.606 2.93-2.929 7.678-2.929 10.607 0 8.855 8.856 23.268 8.856 32.123 0 2.93-2.929 7.678-2.929 10.607 0s2.929 7.678 0 10.606c-7.352 7.353-17.01 11.029-26.668 11.029z" fill="#ffbd86"/></g><path d="m374 423.96v83.08h-216.72l-12.207-7.116-11.943 7.116s-.09-81.98-.09-83.08c0-34.36 27.86-62.21 62.22-62.21 3.41 0 6.75.27 10 .8 22.25 3.6 40.55 19 48.26 39.59 8.84-23.6 31.59-40.39 58.26-40.39 34.36 0 62.22 27.85 62.22 62.21z" fill="#f2fbff"/><path d="m157.19 423.45c0 1.11.09 83.59.09 83.59h-24.15s-.09-81.98-.09-83.08c0-34.36 27.86-62.21 62.22-62.21 3.41 0 6.75.27 10 .8-27.57 6.56-48.07 31.33-48.07 60.9z" fill="#dff6fd"/></g></svg>