<svg id="Capa_1" enable-background="new 0 0 506.92 506.92" height="512" viewBox="0 0 506.92 506.92" width="512" xmlns="http://www.w3.org/2000/svg"><g><g fill="#ffbd86"><path d="m207.791 212.96h91.341v109.464h-91.341z"/><path d="m207.791 212.955h25.675v109.466h-25.675z"/><path d="m186.557 164.511h-41.318c-11.046 0-20-8.954-20-20v-14.37c0-11.046 8.954-20 20-20h41.318z"/><path d="m320.365 164.511h41.318c11.046 0 20-8.954 20-20v-14.37c0-11.046-8.954-20-20-20h-41.318z"/></g><path d="m445.205 383.87v121.05c0 1.1-.89 2-2 2h-186.04l-3.705-8.928-3.685 8.928h-186.06c-1.11 0-2-.9-2-2v-121.05c0-48.08 36.7-87.58 83.62-92.01 2.89-.28 5.83-.42 8.81-.42h198.64c2.97 0 5.91.14 8.81.42 46.91 4.43 83.61 43.93 83.61 92.01z" fill="#685e68"/><path d="m178.145 291.44c-2.98 0-5.91.14-8.81.42-46.91 4.44-83.62 43.93-83.62 92.01v121.05c0 1.1.9 2 2 2h-24c-1.11 0-2-.9-2-2v-121.05c0-48.08 36.7-87.58 83.62-92.01 2.89-.28 5.83-.42 8.81-.42z" fill="#554e56"/><path d="m357.065 114.72c0 59.35-40.71 131.64-92.89 140.55-3.52.6-7.09.91-10.71.91-57.22 0-103.61-78.11-103.61-141.46 0-63.36 46.39-114.72 103.61-114.72 3.35 0 6.67.18 9.94.53 52.55 5.53 93.66 54.54 93.66 114.19z" fill="#fed2a4"/><path d="m264.175 255.27c-3.52.6-7.09.91-10.71.91-57.22 0-103.61-78.11-103.61-141.46 0-63.36 46.39-114.72 103.61-114.72 3.35 0 6.67.18 9.94.53-50.24 7.94-88.87 56.01-88.87 114.12 0 58.41 39.02 129.3 89.64 140.62z" fill="#ffbd86"/><path d="m265.185 487.412c-.464.037-.929.066-1.39.078-.25.01-.5.01-.75.01h-19.44c-43.38 0-98.1-109.02-98.27-195.64 2.89-.28 5.83-.42 8.81-.42h198.64c2.97 0 5.91.14 8.81.42-.178 85.39-53.347 192.532-96.41 195.552z" fill="#678d98"/><path d="m361.595 291.86c-.18 86.62-54.89 195.64-98.27 195.64l62.22-196.06h27.24c2.97 0 5.91.14 8.81.42z" fill="#678d98"/><path d="m266.055 487.33c-.75.09-1.51.14-2.26.16-.25.01-.5.01-.75.01h-19.44c-43.38 0-98.1-109.02-98.27-195.64 2.89-.28 5.83-.42 8.81-.42h15.45c.99 85.37 53.4 191.09 96.46 195.89z" fill="#537983"/><path d="m325.545 291.44-62.22 196.06-6.16 19.42h-7.39l-6.16-19.42h-.01l-62.22-196.06z" fill="#f2fbff"/><path d="m254.185 300.12v11.78c0 5.75-3.97 10.74-9.58 12.02l-41.03 9.37-12.37 2.83c-7.71 1.77-15.07-4.1-15.07-12.01v-36.2c0-7.92 7.36-13.78 15.07-12.01l12.36 2.82 41.04 9.38c5.61 1.28 9.58 6.27 9.58 12.02z" fill="#eb5569"/><path d="m203.575 333.29-12.37 2.83c-7.71 1.77-15.07-4.1-15.07-12.01v-36.2c0-7.92 7.36-13.78 15.07-12.01l12.36 2.82c-2.1 2.25-3.42 5.31-3.42 8.74v37.1c0 3.43 1.32 6.49 3.43 8.73z" fill="#e53950"/><path d="m332.235 287.91v36.2c0 7.91-7.35 13.78-15.07 12.01l-21.14-4.83-25-5.71-7.26-1.66c-5.6-1.28-9.58-6.27-9.58-12.02v-11.78c0-5.75 3.98-10.74 9.58-12.02l7.26-1.66 25-5.71 21.14-4.83c7.72-1.77 15.07 4.09 15.07 12.01z" fill="#eb5569"/><path d="m296.025 280.73v50.56l-25-5.71v-39.14z" fill="#e53950"/><path d="m273.695 292.33v27.35c0 5.49-3.68 10.11-8.71 11.54-1.04.3-2.15.46-3.29.46h-15.02c-6.63 0-12-5.37-12-12v-27.35c0-6.62 5.37-12 12-12h15.02c1.1 0 2.17.15 3.18.43 5.09 1.39 8.82 6.05 8.82 11.57z" fill="#eb5569"/><path d="m265.695 330.92c-.23.11-.47.21-.71.3-1.04.3-2.15.46-3.29.46h-15.02c-6.63 0-12-5.37-12-12v-27.35c0-6.62 5.37-12 12-12h15.02c1.1 0 2.17.15 3.18.43.28.1.55.22.82.34-4.14 1.91-7.02 6.15-7.02 11.05v27.72c0 4.9 2.88 9.14 7.02 11.05z" fill="#e53950"/><g><path d="m253.462 213.454c-10.049 0-19.495-3.913-26.601-11.019-2.929-2.929-2.929-7.678.001-10.606 2.929-2.93 7.678-2.929 10.606 0 4.271 4.272 9.951 6.625 15.993 6.625 6.041 0 11.722-2.353 15.994-6.625 2.929-2.93 7.678-2.929 10.606 0 2.929 2.929 2.929 7.678-.001 10.606-7.104 7.106-16.551 11.019-26.598 11.019z" fill="#ffbd86"/></g></g></svg>