<svg id="Capa_1" enable-background="new 0 0 506.906 506.906" height="512" viewBox="0 0 506.906 506.906" width="512" xmlns="http://www.w3.org/2000/svg"><g><path d="m449.803 155.206v339.35c0 6.81-5.53 12.35-12.36 12.35h-373.5c-6.83 0-12.36-5.54-12.36-12.35v-339.35c0-2.28 1.84-4.12 4.12-4.12h389.98c2.28 0 4.12 1.84 4.12 4.12z" fill="#fff0ad"/><path d="m88.683 506.906h-24.74c-6.83 0-12.36-5.54-12.36-12.35v-339.35c0-2.28 1.84-4.12 4.12-4.12h24.74c-2.27 0-4.12 1.84-4.12 4.12v339.35c0 6.81 5.53 12.35 12.36 12.35z" fill="#ffe177"/><path d="m51.582 301.314h398.222v84.443h-398.222z" fill="#f58a97"/><path d="m51.583 301.318h24.74v84.44h-24.74z" fill="#f07281"/><path d="m208.473 121.856h84.44v385.05h-84.44z" fill="#f58a97"/><path d="m208.473 121.856h24.74v385.05h-24.74z" fill="#f07281"/><path d="m338.893 343.536c0 45.63-34.66 83.18-79.09 87.73-2.99.31-6.03.47-9.11.47-48.71 0-88.2-39.49-88.2-88.2s39.49-88.2 88.2-88.2c3.08 0 6.12.16 9.11.47 44.43 4.55 79.09 42.1 79.09 87.73z" fill="#eb5569"/><path d="m403.353 18.546v84.77c0 11.9-11.07 20.72-22.68 18.07l-68.63-15.69-24.74-5.66v-78.21l24.74-5.66 68.63-15.69c11.61-2.66 22.68 6.17 22.68 18.07z" fill="#f58a97"/><path d="m312.043 16.166v89.53l-24.74-5.66v-78.21z" fill="#f07281"/><path d="m259.803 431.266c-2.99.31-6.03.47-9.11.47-48.71 0-88.2-39.49-88.2-88.2s39.49-88.2 88.2-88.2c3.08 0 6.12.16 9.11.47-41.25 7.44-72.57 43.89-72.57 87.73 0 43.83 31.32 80.28 72.57 87.73z" fill="#e53950"/><path d="m292.223 348.736-29.71 29.72-10.36 10.36c-.81.8-2.11.8-2.92 0l-40.07-40.08c-11.44-11.43-12.14-30.06-1.02-41.8 8.61-9.1 21.52-11.51 32.41-7.24 3.15 1.23 6.13 3.02 8.79 5.37.77.68 1.93.68 2.7 0 11.86-10.48 30.1-9.86 41.2 1.87 11.12 11.74 10.42 30.37-1.02 41.8z" fill="#f58a97"/><path d="m262.513 378.456-10.36 10.36c-.81.8-2.11.8-2.92 0l-40.07-40.08c-11.44-11.43-12.14-30.06-1.02-41.8 8.61-9.1 21.52-11.51 32.41-7.24-2.79 1.53-5.38 3.54-7.67 6.03-11.11 12.13-10.41 31.37 1.02 43.19z" fill="#f07281"/><path d="m250.693 30.186v61.49l-129.99 29.71c-1.59.36-3.18.51-4.72.46-9.71-.29-17.94-8.27-17.94-18.53v-84.77c0-11.9 11.06-20.72 22.66-18.07l9.72 2.22z" fill="#f58a97"/><path d="m131.253 118.756-11.49 2.63c-1.27.29-2.54.44-3.78.46-9.71-.29-17.94-8.27-17.94-18.53v-84.77c0-11.9 11.06-20.72 22.66-18.07l9.72 2.22c-4.56 3.36-7.57 8.77-7.57 15.01v85.46c0 6.61 3.39 12.28 8.4 15.59z" fill="#f07281"/><path d="m473.893 94.016v77.9c0 4.55-3.69 8.24-8.24 8.24h-157.57l-59.07-20.17-58.47 20.17h-149.29c-4.55 0-8.24-3.69-8.24-8.24v-77.9c0-4.55 3.69-8.24 8.24-8.24h149.29l57.39 18.68 60.15-18.68h157.57c4.55 0 8.24 3.69 8.24 8.24z" fill="#ffe177"/><path d="m64.243 180.156h-22.99c-4.55 0-8.24-3.69-8.24-8.24v-77.9c0-4.55 3.69-8.24 8.24-8.24h22.99c-4.56 0-8.24 3.69-8.24 8.24v77.9c0 4.55 3.68 8.24 8.24 8.24z" fill="#ffc344"/><path d="m288.853 28.716v64.43c0 9.94-8.06 18-18 18h-40.32c-9.94 0-18-8.06-18-18v-64.43c0-9.94 8.06-18 18-18h40.32c9.94 0 18 8.06 18 18z" fill="#f58a97"/><path d="m255.813 111.146h-25.28c-9.94 0-18-8.06-18-18v-64.43c0-9.94 8.06-18 18-18h25.28c-10.24 0-18.54 8.3-18.54 18.53v63.37c0 10.23 8.3 18.53 18.54 18.53z" fill="#f07281"/><path d="m310.843 85.776v94.38h-95.56l-12.37-8.041-12.37 8.041v-94.38l13.016 7.871 11.724-7.871z" fill="#eb5569"/><path d="m190.543 85.776h24.74v94.38h-24.74z" fill="#e53950"/></g></svg>