<svg height="512" viewBox="0 0 64 64" width="512" xmlns="http://www.w3.org/2000/svg"><g id="Flat"><g id="Color_copy" data-name="Color copy"><path d="m17 3h3a8 8 0 0 1 8 8v7h-4v-7a4 4 0 0 0 -4-4h-.184a2.995 2.995 0 1 1 -2.816-4z" fill="#95d5b2"/><path d="m47 3h-3a8 8 0 0 0 -8 8v7h4v-7a4 4 0 0 1 4-4h.184a2.995 2.995 0 1 0 2.816-4z" fill="#95d5b2"/><path d="m49.25 7.98a2.966 2.966 0 0 1 -2.25 1.02 3.01 3.01 0 0 1 -2.82-2h-.18a4 4 0 0 0 -4 4v7h-4v-7a7.971 7.971 0 0 1 4.17-7.02 2.976 2.976 0 0 0 2.83 2.02h1.52a2.9 2.9 0 0 1 2.21.94 2.945 2.945 0 0 0 2.27 1.06 1.055 1.055 0 0 0 .25-.02z" fill="#52b788"/><path d="m14.75 7.98a2.966 2.966 0 0 0 2.25 1.02 3.01 3.01 0 0 0 2.82-2h.18a4 4 0 0 1 4 4v7h4v-7a7.971 7.971 0 0 0 -4.17-7.02 2.976 2.976 0 0 1 -2.83 2.02h-1.52a2.9 2.9 0 0 0 -2.21.94 2.945 2.945 0 0 1 -2.27 1.06 1.055 1.055 0 0 1 -.25-.02z" fill="#52b788"/><path d="m17 52h30a8 8 0 0 1 8 8v1a0 0 0 0 1 0 0h-46a0 0 0 0 1 0 0v-1a8 8 0 0 1 8-8z" fill="#48cae4"/><path d="m55 60v1h-46v-1a8 8 0 0 1 8-8h24.99a2.98 2.98 0 0 1 -1.96 2.72l-.75.27a24.287 24.287 0 0 1 -16.56 0l-.75-.27a2.928 2.928 0 0 1 -.4-.19 5.977 5.977 0 0 0 5.43 3.47h27.75a8.239 8.239 0 0 1 .25 2z" fill="#00b4d8"/><path d="m23 40h17v14h-17z" fill="#95d5b2"/><path d="m31.15 47.76a10.588 10.588 0 0 0 4.85 1.24 10.044 10.044 0 0 0 4-.85v5.85h-17v-14h17v1.04c-2.28 3.33-5.37 5.93-8.85 6.72z" fill="#52b788"/><path d="m18 29v-6a5 5 0 0 0 -5-5v6a5 5 0 0 0 5 5z" fill="#95d5b2"/><path d="m13.73 26.6a4.994 4.994 0 0 0 4.27 2.4v-6a5.01 5.01 0 0 0 -2-4v4a3.988 3.988 0 0 1 -2.27 3.6z" fill="#52b788"/><path d="m46 29v-6a5 5 0 0 1 5-5v6a5 5 0 0 1 -5 5z" fill="#95d5b2"/><path d="m50.27 26.6a4.994 4.994 0 0 1 -4.27 2.4v-6a5.01 5.01 0 0 1 2-4v4a3.988 3.988 0 0 0 2.27 3.6z" fill="#52b788"/><path d="m47 26c0 8.284-6.716 19-15 19s-15-10.716-15-19a15 15 0 0 1 30 0z" fill="#bbefc1"/><circle cx="32" cy="27" fill="#e9f1f2" r="7"/><path d="m36 11.54v1.46a3 3 0 0 1 -3 3h-2a3 3 0 0 1 -3-3v-1.46a15.085 15.085 0 0 1 8 0z" fill="#fcea42"/><path d="m43.74 16.67-.55.73a2 2 0 1 1 -3.19-2.41l.83-1.11a14.794 14.794 0 0 1 2.91 2.79z" fill="#fcea42"/><path d="m41.025 53.718-.749.273a24.217 24.217 0 0 1 -16.552 0l-.749-.273a3 3 0 0 1 -1.975-2.818 2.03 2.03 0 0 1 2.724-1.908 24.217 24.217 0 0 0 16.552 0 2.03 2.03 0 0 1 2.724 1.908 3 3 0 0 1 -1.975 2.818z" fill="#ade8f4"/><path d="m42.92 38.15c-2.73 3.95-6.62 6.85-10.92 6.85-8.28 0-15-10.72-15-19a15.008 15.008 0 0 1 7.19-12.81 14.92 14.92 0 0 0 -2.19 7.81c0 8.28 6.72 19 15 19a10.991 10.991 0 0 0 5.92-1.85z" fill="#95d5b2"/><path d="m24.61 17.79a2 2 0 0 1 -2.8-.39l-1.02-1.35a14.375 14.375 0 0 1 3.04-2.62l1.17 1.56a2 2 0 0 1 -.39 2.8z" fill="#fcea42"/><path d="m23.96 13.6a14.958 14.958 0 0 0 -1.64 4.28 2.112 2.112 0 0 1 -.51-.48l-1.02-1.35a14.375 14.375 0 0 1 3.04-2.62z" fill="#fdc741"/><path d="m42.98 51.15a2.982 2.982 0 0 1 -1.95 2.57l-.75.27a24.287 24.287 0 0 1 -16.56 0l-.75-.27a3 3 0 0 1 -1.97-2.82 2.014 2.014 0 0 1 1.02-1.76 2.979 2.979 0 0 0 1.95 2.58l.75.27a24.287 24.287 0 0 0 16.56 0l.75-.27a2.77 2.77 0 0 0 .95-.57z" fill="#48cae4"/><path d="m38.53 29.53a7 7 0 1 1 -9.06-9.06 7.007 7.007 0 0 0 9.06 9.06z" fill="#d0d8da"/><circle cx="32" cy="27" fill="#b8bebf" r="3"/><path d="m33.57 29.56a2.964 2.964 0 0 1 -1.57.44 3 3 0 0 1 -3-3 2.964 2.964 0 0 1 .44-1.57 6.966 6.966 0 0 0 4.13 4.13z" fill="#93999a"/><circle cx="33" cy="26" fill="#e9f1f2" r="1"/><path d="m45.29 33.84c-.27.63-.56 1.25-.87 1.85l-2.5-1.81a1 1 0 1 1 1.18-1.62z" fill="#fcea42"/><path d="m43.4 37.42a15.563 15.563 0 0 1 -1.15 1.64l-2.67-1.93a1 1 0 1 1 1.18-1.62z" fill="#fcea42"/><path d="m22.08 33.88-2.5 1.81c-.31-.6-.6-1.22-.87-1.85l2.19-1.58a1 1 0 1 1 1.18 1.62z" fill="#fdc741"/><path d="m24.42 37.13-2.67 1.93a15.563 15.563 0 0 1 -1.15-1.64l2.64-1.91a1 1 0 0 1 1.18 1.62z" fill="#fdc741"/><path d="m32 40.324a7.658 7.658 0 0 1 -4.6-1.524 1 1 0 1 1 1.2-1.6 5.7 5.7 0 0 0 6.8 0 1 1 0 0 1 1.2 1.6 7.664 7.664 0 0 1 -4.6 1.524z" fill="#40916c"/><path d="m41.839 38.763.411.3c.242-.3.467-.611.684-.928-.358.227-.724.436-1.095.628z" fill="#fdc741"/></g></g></svg>