<svg height="512" viewBox="0 0 64 64" width="512" xmlns="http://www.w3.org/2000/svg"><g id="Flat"><g id="Color_copy" data-name="Color copy"><path d="m30.13 19.318-3.536 3.535a3 3 0 0 0 0 4.243 3 3 0 0 0 4.243 0l4.243-4.243a5 5 0 0 0 0-7.071l-4.95-4.949-4.243 4.242z" fill="#d0d8da"/><path d="m28.716 9.418 1.414 1.415-4.243 4.242-1.414-1.414a3 3 0 0 1 0-4.243 3 3 0 0 1 4.243 0z" fill="#ade8f4"/><path d="m35.08 22.85-4.24 4.25a3 3 0 0 1 -2.12.88 3.005 3.005 0 0 1 -2.13-5.13l3.54-3.53-4.24-4.24 1.65-1.65a14.8 14.8 0 0 0 1.07 1.18l1.89 1.89a4.26 4.26 0 0 0 3.61 1.2 4.311 4.311 0 0 0 1.85-.73 5.01 5.01 0 0 1 -.88 5.88z" fill="#b8bebf"/><path d="m27.54 13.43-1.65 1.65-1.42-1.42a3 3 0 0 1 0-4.24 2.371 2.371 0 0 1 .39-.32 17.478 17.478 0 0 0 2.68 4.33z" fill="#48cae4"/><rect fill="#00b4d8" height="21" rx="2" transform="matrix(.906 -.423 .423 .906 -14.33 8.996)" width="14" x="6.124" y="26.317"/><path d="m22.09 44.22-9.06 4.23a2.012 2.012 0 0 1 -2.66-.97l-7.18-15.41a2 2 0 0 1 .97-2.66l.54-.25 4.56 9.79a6.982 6.982 0 0 0 4.76 3.85l-3.04-6.52a6 6 0 0 1 2.9-7.98l.9-.42a6 6 0 0 1 -6.06-.59l4.5-2.1a2 2 0 0 1 2.66.97l.46.99 6.72 14.41a2 2 0 0 1 -.97 2.66z" fill="#0096c7"/><path d="m5.02 33.336h6v4h-6z" fill="#ade8f4" transform="matrix(.906 -.423 .423 .906 -14.183 6.7)"/><path d="m7.414 41.135 2.719-1.268a1 1 0 1 1 .845 1.813l-2.718 1.268z" fill="#ade8f4"/><path d="m11.258 41.473a6.931 6.931 0 0 1 -1.387-1.484l-2.457 1.146.846 1.813 2.718-1.268a.99.99 0 0 0 .28-.207z" fill="#48cae4"/><path d="m24.673 36.083-.784 8.966 8.966.784a2 2 0 0 1 1.818 2.167l-.523 5.977 7.969.7.7-7.969a9 9 0 0 0 -8.182-9.751z" fill="#b8bebf"/><path d="m42.36 51.95-.24 2.72-7.97-.69.52-5.98a2 2 0 0 0 -1.82-2.17l-8.96-.78.78-8.97 9.97.87a8.993 8.993 0 0 1 6.58 3.81l-1.58.68a3.115 3.115 0 0 0 -1.26 4.73 3.133 3.133 0 0 1 .62 1.87 3.928 3.928 0 0 0 1.16 2.8 3.841 3.841 0 0 0 2.2 1.11z" fill="#93999a"/><path d="m42.84 46.12a1.087 1.087 0 0 1 -.18.01 5 5 0 0 1 -4.09-7.88 8.973 8.973 0 0 1 4.27 7.87z" fill="#48cae4"/><path d="m39.642 41.439 1.575-.675a9.07 9.07 0 0 0 -2.647-2.514 4.99 4.99 0 0 0 -.53 4.783 3.072 3.072 0 0 1 1.602-1.594z" fill="#00b4d8"/><path d="m33.866 54.488h8a4 4 0 0 1 4 4v2a0 0 0 0 1 0 0h-12a0 0 0 0 1 0 0v-6a0 0 0 0 1 0 0z" fill="#ade8f4" transform="matrix(.996 .087 -.087 .996 5.162 -3.256)"/><rect fill="#e9f1f2" height="20" rx="6" transform="matrix(.906 -.423 .423 .906 -5.14 7.913)" width="18" x="6.277" y="5.549"/><path d="m39.5 29.632-5.44 2.536-2.96-6.344a6 6 0 0 0 -7.974-2.9l-7.25 3.38a6 6 0 0 0 -2.9 7.974l3.381 7.25a8 8 0 0 0 10.631 3.872l15.412-7.189a2 2 0 0 1 2.658.968l2.536 5.438 7.25-3.381-3.381-7.251a9 9 0 0 0 -11.963-4.353z" fill="#d0d8da"/><path d="m32.6 29.03-1.119 1.119-4.243 4.243-3.538-3.536a3 3 0 0 0 -4.243 0 3 3 0 0 0 0 4.243l4.243 4.242a5 5 0 0 0 7.071 0l4.949-4.95 1.415-1.414a2.991 2.991 0 0 0 .83-2.63l-3.905 1.821z" fill="#b8bebf"/><path d="m53.214 38.926a4 4 0 0 1 -5.281-1.861 4.023 4.023 0 0 0 -5.3-2.031l-13.645 6.366a8 8 0 0 1 -10.632-3.87l-.261-.561a8.369 8.369 0 0 1 3.127-10.621 5.967 5.967 0 0 0 3.239-3.858 6.006 6.006 0 0 0 -1.333.436l-7.25 3.38a6 6 0 0 0 -2.9 7.974l3.381 7.25a8 8 0 0 0 10.629 3.87l15.412-7.189a2 2 0 0 1 2.658.968l2.536 5.438 7.25-3.381-1.175-2.52z" fill="#b8bebf"/><path d="m31.39 26.43-2.89 1.35a1.989 1.989 0 0 1 -2.65-.97 1.951 1.951 0 0 1 -.19-.85 1.99 1.99 0 0 1 1.15-1.81l1.97-.92a6.028 6.028 0 0 1 2.32 2.59z" fill="#ade8f4"/><path d="m31.39 26.43-2.89 1.35a1.989 1.989 0 0 1 -2.65-.97 1.951 1.951 0 0 1 -.19-.85 1.99 1.99 0 0 1 1.15-1.81z" fill="#48cae4"/><path d="m50.58 32.5a5.007 5.007 0 0 1 -8.58-3.5.41.41 0 0 1 .01-.11 8.973 8.973 0 0 1 8.57 3.61z" fill="#ade8f4"/><path d="m48.294 41.8h8a4 4 0 0 1 4 4v2a0 0 0 0 1 0 0h-12a0 0 0 0 1 0 0v-6a0 0 0 0 1 0 0z" fill="#ade8f4" transform="matrix(.906 -.423 .423 .906 -13.846 27.143)"/><path d="m28.594 32.732-3.535-3.532a3 3 0 0 0 -4.243 0 3 3 0 0 0 0 4.242l4.243 4.243a5 5 0 0 0 7.071 0l4.95-4.95-4.243-4.243z" fill="#e9f1f2"/><path d="m38.494 31.318-1.414 1.414-4.243-4.243 1.414-1.414a3 3 0 0 1 4.243 0 3 3 0 0 1 0 4.243z" fill="#ade8f4"/><path d="m61 13a10.011 10.011 0 0 1 -9.57 9.99c-.14.01-.28.01-.43.01a10 10 0 0 1 -5.11-18.59 9.848 9.848 0 0 1 5.11-1.41 10 10 0 0 1 10 10z" fill="#ade8f4"/><path d="m60.92 14.21a10 10 0 0 1 -9.49 8.78c-.14.01-.28.01-.43.01a9.993 9.993 0 0 1 -6.93-17.2 9.438 9.438 0 0 0 -.07 1.2 9.992 9.992 0 0 0 4.59 8.41 9.923 9.923 0 0 0 5.41 1.59c.15 0 .29 0 .43-.01a9.952 9.952 0 0 0 6.49-2.78z" fill="#48cae4"/><path d="m61 13a10.011 10.011 0 0 1 -9.57 9.99l.57-3.99-2-3 2-1-1-3 5-1-1-3h4.66a9.966 9.966 0 0 1 1.34 5z" fill="#95d5b2"/><path d="m45 16 3 3-2.41 2.41a9.995 9.995 0 0 1 .3-17l3.11 2.59-3 3 1 3z" fill="#95d5b2"/><path d="m56.16 4.44-4.16 1.56-1.97-2.95c.32-.03.64-.05.97-.05a9.863 9.863 0 0 1 5.16 1.44z" fill="#95d5b2"/><path d="m60.92 14.21a10 10 0 0 1 -9.49 8.78l.57-3.99-1.85-2.77a9.91 9.91 0 0 0 3.85.77c.15 0 .29 0 .43-.01a9.952 9.952 0 0 0 6.49-2.78z" fill="#52b788"/><path d="m48 19-2.41 2.41a9.99 9.99 0 0 1 -1.52-15.61 9.438 9.438 0 0 0 -.07 1.2 9.936 9.936 0 0 0 2.56 6.67l-1.56 2.33z" fill="#52b788"/><path d="m37.08 32.73-4.95 4.95a5 5 0 0 1 -7.07 0l-4.24-4.24a3 3 0 0 1 -.48-3.62 3.126 3.126 0 0 0 .48.62l4.24 4.24a5 5 0 0 0 7.07 0l3.45-3.45z" fill="#d0d8da"/><path d="m39.38 29.2a2.968 2.968 0 0 1 -.89 2.12l-1.41 1.41-1.5-1.5 2.91-2.91a3.126 3.126 0 0 0 .48-.62 2.969 2.969 0 0 1 .41 1.5z" fill="#48cae4"/><path d="m61 44.98-10.88 5.07-2.53-5.43 1.98-.92a3.993 3.993 0 0 0 5.18 1.66l5.26-2.45a2.148 2.148 0 0 1 .14.26z" fill="#48cae4"/><path d="m45.77 58.84c0 .06-.01.11-.01.17l-.18 1.99-11.95-1.05.52-5.97 1.82.16a3.985 3.985 0 0 0 3.64 4.16z" fill="#48cae4"/><path d="m25.67 17.6a5.984 5.984 0 0 1 -3.45 5.74l-5.44 2.54a6 6 0 0 1 -7.97-2.9l-3.38-7.25a6.007 6.007 0 0 1 2.9-7.98l.55-.26a5.81 5.81 0 0 0 .55 2.24l3.38 7.25a6 6 0 0 0 7.97 2.9z" fill="#d0d8da"/><path d="m16.065 17.1a2.5 2.5 0 1 1 -3.322-1.21 2.5 2.5 0 0 1 3.322 1.21z" fill="#d0d8da"/><path d="m25.124 15.37-3.624 1.691a6 6 0 0 1 -7.974-2.9 2 2 0 0 1 .967-2.658l7.25-3.383z" fill="#ade8f4"/><path d="m25.124 15.37-3.624 1.691a6 6 0 0 1 -7.974-2.9 2 2 0 0 1 .967-2.658z" fill="#48cae4"/><path d="m15.065 15.1a2.5 2.5 0 1 1 -3.322-1.21 2.5 2.5 0 0 1 3.322 1.21z" fill="#ade8f4"/><path d="m15.3 16.15a2.5 2.5 0 1 1 -4-1.99 2.46 2.46 0 0 0 .23 1.05 2.513 2.513 0 0 0 3.33 1.21 1.794 1.794 0 0 0 .44-.27z" fill="#48cae4"/><path d="m11.584 35.88-1.158-2.48a5.973 5.973 0 0 0 .355 2.362l-3.239-.5-.731-1.571-2.354 1.1 1.69 3.625z" fill="#48cae4"/><g fill="#fffa48"><path d="m15 55h-1v-1a1 1 0 0 0 -2 0v1h-1a1 1 0 0 0 0 2h1v1a1 1 0 0 0 2 0v-1h1a1 1 0 0 0 0-2z"/><path d="m60 31h-1v-1a1 1 0 0 0 -2 0v1h-1a1 1 0 0 0 0 2h1v1a1 1 0 0 0 2 0v-1h1a1 1 0 0 0 0-2z"/><circle cx="21" cy="51" r="1"/><circle cx="60" cy="24" r="1"/><circle cx="43" cy="25" r="1"/><circle cx="36" cy="4" r="1"/><circle cx="5" cy="51" r="1"/><circle cx="4" cy="60" r="1"/></g></g></g></svg>