<svg height="512" viewBox="0 0 64 64" width="512" xmlns="http://www.w3.org/2000/svg"><g id="Flat"><g id="Color_copy" data-name="Color copy"><path d="m52 44h-12v-4h11a3 3 0 0 0 3-3 11 11 0 0 0 -11-11h-3v-4h4a14 14 0 0 1 14 14v2a6 6 0 0 1 -6 6z" fill="#ade8f4"/><path d="m52 44a6 6 0 0 0 6-6 2 2 0 0 1 -2-2 13.882 13.882 0 0 0 -1.969-7.142 1.992 1.992 0 0 1 .255-2.332 13.938 13.938 0 0 0 -9.635-4.493 5.106 5.106 0 0 1 -1.269.035q-.682-.068-1.382-.068h-2v4h3a11 11 0 0 1 11 11 3 3 0 0 1 -3 3h-11v4z" fill="#48cae4"/><path d="m17 42h30a14 14 0 0 1 14 14v5a0 0 0 0 1 0 0h-58a0 0 0 0 1 0 0v-5a14 14 0 0 1 14-14z" fill="#e9f1f2"/><g fill="#d0d8da"><path d="m61 56v5h-58v-5a14 14 0 0 1 14-14h1.05a12.986 12.986 0 0 0 12.95 12h29.86a14.6 14.6 0 0 1 .14 2z"/><path d="m19.749 46.518a41.353 41.353 0 0 0 23.5 0 2.443 2.443 0 0 0 1.751-2.343v-1.35a1.339 1.339 0 0 0 -.285-.825h-3.336a41.34 41.34 0 0 1 -19.758 0h-3.336a1.339 1.339 0 0 0 -.285.825v1.35a2.443 2.443 0 0 0 1.749 2.343z"/><path d="m49.745 42.273a14.025 14.025 0 0 0 -2.745-.273h-3a2 2 0 0 1 2 2v17h4v-17a6 6 0 0 0 -.255-1.727z"/></g><path d="m15 45v-3a6 6 0 0 0 -12 0v19h4v-3.12a4.684 4.684 0 0 0 .791.12 5 5 0 1 0 -.791-9.9v-6.246a1.854 1.854 0 0 1 1.854-1.854h.292a1.854 1.854 0 0 1 1.854 1.854v3.146z" fill="#ade8f4"/><path d="m11 45v-3.15a1.852 1.852 0 0 0 -1.85-1.85h-.3a1.852 1.852 0 0 0 -1.85 1.85v6.25a5 5 0 1 1 .79 9.9 6.836 6.836 0 0 1 -.79-.12v3.12h-4v-3a5.01 5.01 0 0 0 2-4v-8.44a10.672 10.672 0 0 1 2.14-6.41 1.993 1.993 0 0 1 2.22-.7 1.984 1.984 0 0 0 2.41-.99l.3-.61a5.99 5.99 0 0 1 2.93 5.15v3z" fill="#48cae4"/><circle cx="9" cy="53" fill="#0096c7" r="2"/><path d="m34 56h-2-2l-10-14h24z" fill="#48cae4"/><path d="m34 56 1.429-2h-4.429a12.961 12.961 0 0 1 -2.624-.274l1.624 2.274z" fill="#00b4d8"/><path d="m40.223 47.288 3.777-5.288h-2.621a41.34 41.34 0 0 1 -19.758 0h-1.621l3.926 5.5a41.34 41.34 0 0 0 16.297-.212z" fill="#00b4d8"/><path d="m30 56h4v5h-4z" fill="#0096c7"/><path d="m11 44v17h4v-17a2 2 0 0 1 2-2h3v-1a3 3 0 0 0 -3-3 6 6 0 0 0 -6 6z" fill="#ade8f4"/><path d="m11 56.01v4.99h4v-17a2.006 2.006 0 0 1 2-2h3v-1a3 3 0 0 0 -3-3 5.856 5.856 0 0 0 -2.14.4 2.832 2.832 0 0 1 -.78 3.24 2.857 2.857 0 0 0 -.99 2.15l-.06 8.24a4.941 4.941 0 0 1 -2.03 3.98z" fill="#48cae4"/><path d="m53 44v17h-4v-17a2 2 0 0 0 -2-2h-3v-1a3 3 0 0 1 3-3 6 6 0 0 1 6 6z" fill="#ade8f4"/><path d="m53 56.01v4.99h-4v-17a2.006 2.006 0 0 0 -2-2h-3v-1a3 3 0 0 1 3-3 5.856 5.856 0 0 1 2.14.4 2.832 2.832 0 0 0 .78 3.24 2.857 2.857 0 0 1 .99 2.15l.06 8.24a4.941 4.941 0 0 0 2.03 3.98z" fill="#48cae4"/><path d="m20 35h24v8h-24z" fill="#b8bebf"/><path d="m43.751 45.518a41.353 41.353 0 0 1 -23.5 0 2.443 2.443 0 0 1 -1.751-2.343v-1.35a1.363 1.363 0 0 1 1.749-1.307 41.353 41.353 0 0 0 23.5 0 1.363 1.363 0 0 1 1.751 1.307v1.35a2.443 2.443 0 0 1 -1.749 2.343z" fill="#ade8f4"/><path d="m45.5 42.66v.52a2.442 2.442 0 0 1 -1.75 2.34 41.4 41.4 0 0 1 -23.5 0 2.442 2.442 0 0 1 -1.75-2.34v-1.36a1.309 1.309 0 0 1 .5-1.04v.4a2.442 2.442 0 0 0 1.75 2.34 41.4 41.4 0 0 0 23.5 0 2.463 2.463 0 0 0 1.25-.86z" fill="#48cae4"/><path d="m44.9 35.984a35.6 35.6 0 0 1 -25.8 0 8 8 0 0 1 -5.1-7.456v-7.528a18 18 0 0 1 18-18 18 18 0 0 1 18 18v7.528a8 8 0 0 1 -5.1 7.456z" fill="#e9f1f2"/><path d="m50 28.44v.09a7.992 7.992 0 0 1 -5.1 7.45 35.558 35.558 0 0 1 -25.8 0 7.987 7.987 0 0 1 -5.1-7.45v-7.53a17.935 17.935 0 0 1 8.03-14.97 17.8 17.8 0 0 0 -3.03 9.97 17.993 17.993 0 0 0 31 12.44z" fill="#d0d8da"/><path d="m43.789 31.106a26.365 26.365 0 0 1 -23.578 0 4 4 0 0 1 -2.211-3.578v-4.528a14 14 0 0 1 14-14 14 14 0 0 1 14 14v4.528a4 4 0 0 1 -2.211 3.578z" fill="#48cae4"/><path d="m34.26 33.79a26.28 26.28 0 0 1 -14.05-2.68 4.03 4.03 0 0 1 -2.21-3.58v-4.53a13.907 13.907 0 0 1 1.07-5.37 18.018 18.018 0 0 0 15.19 16.16z" fill="#00b4d8"/><path d="m40.74 5.26-4.42 4.42a14 14 0 0 0 -4.32-.68 13.585 13.585 0 0 0 -3.69.5l-4.88-4.34a18.055 18.055 0 0 1 17.31.1z" fill="#ade8f4"/><path d="m18.46 9.15 4.43 3.23a13.655 13.655 0 0 0 -2.66 3.06l-4.08-2.97a17.3 17.3 0 0 1 2.31-3.32z" fill="#ade8f4"/><path d="m19.95 10.24a17.42 17.42 0 0 0 -.89 4.35l-2.91-2.12a17.3 17.3 0 0 1 2.31-3.32z" fill="#48cae4"/><path d="m47.85 12.47-4.08 2.97a13.16 13.16 0 0 0 -1.87-2.34c-.25-.25-.52-.5-.79-.72l4.43-3.23a17.3 17.3 0 0 1 2.31 3.32z" fill="#ade8f4"/><path d="m42 53h3a0 0 0 0 1 0 0v4a0 0 0 0 1 0 0h-5a0 0 0 0 1 0 0v-2a2 2 0 0 1 2-2z" fill="#ade8f4"/><circle cx="21" cy="55" fill="#00b4d8" r="2"/><path d="m42 26.745v-3.418a10.219 10.219 0 0 0 -9.074-10.285 10.005 10.005 0 0 0 -10.218 6.284 15.438 15.438 0 0 0 12.217 7.068z" fill="#ade8f4"/><path d="m45 54h-4.723a1.987 1.987 0 0 0 -.277 1v2h5z" fill="#48cae4"/><path d="m37.952 23.539a1 1 0 0 1 -.992-.881 5.156 5.156 0 0 0 -4.485-4.636c-.161-.015-.319-.022-.475-.022a1 1 0 1 1 0-2q.327 0 .658.03a7.163 7.163 0 0 1 6.289 6.39 1 1 0 0 1 -.874 1.112.966.966 0 0 1 -.121.007z" fill="#e9f1f2"/><path d="m30.484 30.669a.936.936 0 0 1 -.139-.009 35.558 35.558 0 0 1 -3.707-.72 6.114 6.114 0 0 1 -4.638-5.94 1 1 0 0 1 2 0 4.118 4.118 0 0 0 3.123 4 33.686 33.686 0 0 0 3.5.679 1 1 0 0 1 -.137 1.99z" fill="#ade8f4"/></g></g></svg>