<svg height="512" viewBox="0 0 64 64" width="512" xmlns="http://www.w3.org/2000/svg"><g id="Flat"><g id="Color_copy" data-name="Color copy"><circle cx="32" cy="32" fill="#fffa48" r="24"/><circle cx="32" cy="32" fill="#fdc741" r="21"/><circle cx="32" cy="32" fill="#b8bebf" r="17"/><circle cx="32" cy="32" fill="#656b76" r="15"/><circle cx="32" cy="32" fill="#93999a" r="11.5"/><circle cx="32" cy="32" fill="#464a51" r="9"/><circle cx="32" cy="32" fill="#656b76" r="6"/><path d="m58.657 3-55.657 55.657a8 8 0 0 0 11.314 0l.41-.411a11.935 11.935 0 0 1 11.426-2.991 23.957 23.957 0 0 0 29.105-29.105 11.935 11.935 0 0 1 2.991-11.426l.411-.41a8 8 0 0 0 0-11.314zm-14.636 41.021a17 17 0 0 1 -18.683 3.611l22.294-22.294a17 17 0 0 1 -3.611 18.683z" fill="#fcea42"/><path d="m8.657 59a5.989 5.989 0 0 1 -2.588-.582l52.348-52.349a6.012 6.012 0 0 1 -1.174 6.83l-.411.411a13.859 13.859 0 0 0 -3.516 13.328 21.952 21.952 0 0 1 -21.28 27.346 22.143 22.143 0 0 1 -5.4-.668 14.749 14.749 0 0 0 -3.6-.449 13.639 13.639 0 0 0 -9.729 3.965l-.41.41a5.961 5.961 0 0 1 -4.24 1.758zm13.173-10.687 2.725 1.16a18.988 18.988 0 0 0 24.917-24.918l-1.161-2.725z" fill="#fdc741"/><g fill="#efad1b"><path d="m56.081 11.233a1 1 0 0 0 -1.414 0l-43.654 43.653a1 1 0 1 0 1.414 1.414l43.654-43.652a1 1 0 0 0 0-1.415z"/><path d="m13.731 42.27a1 1 0 0 0 .892-1.451 19.46 19.46 0 0 1 6.191-24.79 1 1 0 0 0 -1.148-1.638 21.462 21.462 0 0 0 -6.829 27.33 1 1 0 0 0 .894.549z"/><path d="m29.849 12.623a17.845 17.845 0 0 1 2.151-.123 19.369 19.369 0 0 1 8.818 2.123 1.012 1.012 0 0 0 .451.107 1 1 0 0 0 .452-1.893 21.375 21.375 0 0 0 -9.721-2.337 19.934 19.934 0 0 0 -2.389.137 1 1 0 1 0 .238 1.986z"/><path d="m50.523 23.167a1 1 0 0 0 -.535 1.31 19.5 19.5 0 0 1 -2.288 19.092 1 1 0 0 0 1.613 1.183 21.5 21.5 0 0 0 2.519-21.052 1 1 0 0 0 -1.309-.533z"/><path d="m40.248 49.674a19.508 19.508 0 0 1 -15.771.314 1 1 0 0 0 -.774 1.844 21.5 21.5 0 0 0 17.389-.346 1 1 0 1 0 -.844-1.812z"/></g></g></g></svg>