<svg height="512" viewBox="0 0 64 64" width="512" xmlns="http://www.w3.org/2000/svg"><g id="Flat"><g id="Color_copy" data-name="Color copy"><path d="m48.1 50.87a25.007 25.007 0 0 1 -29.24 8.4l1.14-2.27-.22-3.66-4.8 4.01a25.005 25.005 0 0 1 22.01-44.68l-5.99 3.33 5 6-4 7 2 8 7 4v8z" fill="#ff7373"/><path d="m48.1 50.87a25.007 25.007 0 0 1 -29.24 8.4l1.14-2.27-.22-3.66-4.8 4.01a25 25 0 0 1 1.91-43.74 25.007 25.007 0 0 0 29.71 36.87h.01z" fill="#ef5350"/><path d="m33.712 19.254c-.3.072-.6.141-.9.226l-1.822.52a8.335 8.335 0 0 1 -4.65-1.46 9.572 9.572 0 0 0 -5.34-1.54 9.572 9.572 0 0 0 -5.34 1.54 8.335 8.335 0 0 1 -4.65 1.46h-2.22a24.764 24.764 0 0 0 -3.24 5h4.15a7.908 7.908 0 0 1 5.23 1.9 9.231 9.231 0 0 0 6.07 2.1 9.231 9.231 0 0 0 6.07-2.1 7.707 7.707 0 0 1 4.01-1.81 15.983 15.983 0 0 0 2.91-.68c.252-.088.51-.159.766-.233l1.244-2.177z" fill="#e53935"/><ellipse cx="21" cy="23" fill="#c62828" rx="3" ry="2"/><path d="m33.506 35.024a7.368 7.368 0 0 1 -4.676-.434l-2.9-1.29a7.384 7.384 0 0 0 -2.98-.63 7.481 7.481 0 0 0 -2.9.59 7.36 7.36 0 0 1 -7.49-1.01l-.71-.57a7.065 7.065 0 0 0 -1.86-1.08l-5.77-2.31a24.891 24.891 0 0 0 -1.22 7.71c0 .46.01.91.04 1.36l1.08-.3a6.307 6.307 0 0 1 6.5 2 6.367 6.367 0 0 0 7.92 1.42l1.82-1.01a6.357 6.357 0 0 1 5.45-.35l4.41 1.77a6.41 6.41 0 0 0 5.41-.32l2.359-1.29-3.989-2.28z" fill="#e53935"/><path d="m41 44.8-3.56 2.14a8.1 8.1 0 0 1 -7.17.57l-2.9-1.16a8.091 8.091 0 0 0 -6.62.27l-.28.14a8.159 8.159 0 0 1 -3.62.86 8.06 8.06 0 0 1 -4.85-1.62 8.031 8.031 0 0 0 -7.4-1.19 25.056 25.056 0 0 0 5.68 8.83 21.777 21.777 0 0 1 11.1.1 21.819 21.819 0 0 0 9.34.47l3.78-.63a22.211 22.211 0 0 1 7-.03l3.7.59a24.914 24.914 0 0 0 2.9-3.272l-7.1-1.868z" fill="#e53935"/><path d="m14.2 19.33a25.267 25.267 0 0 0 -1.17 6.37 8.055 8.055 0 0 0 -3.33-.7h-4.15a24.764 24.764 0 0 1 3.24-5h2.22a7.935 7.935 0 0 0 3.19-.67z" fill="#c62828"/><path d="m17.29 41.01a6.37 6.37 0 0 1 -6.67-1.95 6.307 6.307 0 0 0 -6.5-2l-1.08.3c-.03-.45-.04-.9-.04-1.36a24.891 24.891 0 0 1 1.22-7.71l5.77 2.31a7.065 7.065 0 0 1 1.86 1.08l.71.57a6.765 6.765 0 0 0 1.18.76 24.448 24.448 0 0 0 3.55 8z" fill="#c62828"/><path d="m48.1 50.87a25.024 25.024 0 0 1 -2.9 3.27l-3.7-.59a22.211 22.211 0 0 0 -7 .03l-3.78.63a21.819 21.819 0 0 1 -9.34-.47 21.777 21.777 0 0 0 -11.1-.1 25.056 25.056 0 0 1 -5.68-8.83 8.031 8.031 0 0 1 7.4 1.19 8.06 8.06 0 0 0 4.85 1.62 8.159 8.159 0 0 0 3.62-.86l.28-.14a7.438 7.438 0 0 1 1.18-.47 25.027 25.027 0 0 0 24.67 4.33h.01z" fill="#c62828"/><path d="m53 52v6l5-3z" fill="#e53935"/><path d="m53.78 24-8.78 2-3.025-3.457-1.975 3.457 2 8 7 4v8l7.1 1.868a24.913 24.913 0 0 0 3.9-21.846z" fill="#ff7373"/><path d="m60.18 39.34a24.667 24.667 0 0 1 -4.08 8.53l-7.1-1.87v-8l-7-4-2-8 1.98-3.46 3.02 3.46 3.05-.69a23.746 23.746 0 0 0 12.13 14.03z" fill="#ef5350"/><path d="m54.489 14.976 6.511.568a25.053 25.053 0 0 0 -18.306-12.544l-5.085 4.593 6.224 4.718-1.173 3.908 3.726 2.686z" fill="#ff7373"/><path d="m50.95 5.71a22.659 22.659 0 0 0 -3.95 12.79v.1l-.61.3-3.73-2.68 1.17-3.91-6.22-4.72 5.08-4.59a24.708 24.708 0 0 1 8.26 2.71z" fill="#ef5350"/><path d="m50.263 12.906 4.7.082a19.806 19.806 0 0 0 4.137-.352 24.206 24.206 0 0 0 -4.447-4.536 7.217 7.217 0 0 1 -.818.015l-3.565-.056a20.115 20.115 0 0 0 -9.285 2.093l2.848 2.159-.721 2.4a14.086 14.086 0 0 1 7.151-1.806z" fill="#e53935"/><path d="m54.68 33.96 6.12 2.18a24.978 24.978 0 0 0 -.12-7.14h-2.22a6.841 6.841 0 0 1 -.91-.06l-5.34-.66a7.349 7.349 0 0 0 -4.2.72l-4.91 2.45a7.309 7.309 0 0 1 -1.594.574l.494 1.976 3.989 2.28 3.511-1.92a6.38 6.38 0 0 1 5.18-.4z" fill="#e53935"/><path d="m55.12 40.67a8.125 8.125 0 0 0 -5.86.97l-.26.16v4.2l7.1 1.868a24.94 24.94 0 0 0 3.38-6.268z" fill="#e53935"/><path d="m49.55 8.07a21.609 21.609 0 0 0 -1.89 5.03c-.28.05-.56.11-.84.17a14.076 14.076 0 0 0 -3.71 1.44l.72-2.4-2.85-2.16a20.146 20.146 0 0 1 8.57-2.08z" fill="#c62828"/><path d="m52.73 33.6a6.333 6.333 0 0 0 -3.23.76l-3.51 1.92-3.99-2.28-.49-1.98a7.2 7.2 0 0 0 1.59-.57l4.91-2.45a7.3 7.3 0 0 1 1.32-.5 23.257 23.257 0 0 0 3.4 5.1z" fill="#c62828"/><path d="m53 52v6l2-3 .414-1.552z" fill="#c62828"/><g fill="#e53935"><circle cx="58" cy="20" r="1"/><circle cx="58" cy="6" r="1"/><circle cx="47" cy="58" r="1"/><circle cx="58" cy="51" r="1"/><circle cx="45" cy="40" r="1"/><circle cx="31" cy="8" r="1"/><path d="m39 19a1 1 0 0 1 -.707-.293l-1-1a1 1 0 0 1 1.414-1.414l1 1a1 1 0 0 1 -.707 1.707z"/><path d="m26 6a1 1 0 0 1 -.707-.293l-1-1a1 1 0 0 1 1.414-1.414l1 1a1 1 0 0 1 -.707 1.707z"/></g></g></g></svg>