<svg height="512" viewBox="0 0 64 64" width="512" xmlns="http://www.w3.org/2000/svg"><g id="Flat"><g id="Color_copy" data-name="Color copy"><circle cx="13" cy="13" fill="#fcf2ad" r="10"/><path d="m21.411 18.4a10 10 0 1 1 -10.155-15.244 9.862 9.862 0 0 0 -1.589 5.4 9.986 9.986 0 0 0 11.744 9.844z" fill="#f9dbaf"/><circle cx="17" cy="13" fill="#f9dbaf" r="2"/><path d="m9.667 18.556a3.33 3.33 0 0 1 -1.856 2.988 9.923 9.923 0 0 1 -4.144-4.977 3.275 3.275 0 0 1 2.666-1.345 3.329 3.329 0 0 1 3.334 3.334z" fill="#edb88e"/><path d="m19 13a2 2 0 0 1 -1.18 1.82 1.891 1.891 0 0 0 .18-.82 2.006 2.006 0 0 0 -2-2 1.891 1.891 0 0 0 -.82.18 2 2 0 0 1 3.82.82z" fill="#edb88e"/><circle cx="12" cy="6" fill="#f9dbaf" r="2"/><path d="m14 6a2 2 0 0 1 -1.18 1.82 1.891 1.891 0 0 0 .18-.82 2.006 2.006 0 0 0 -2-2 1.891 1.891 0 0 0 -.82.18 2 2 0 0 1 3.82.82z" fill="#edb88e"/><path d="m9.667 18.556a3.287 3.287 0 0 1 -1.6 2.833 3.246 3.246 0 0 0 .489-1.722 3.329 3.329 0 0 0 -3.334-3.334 3.22 3.22 0 0 0 -1.5.356.622.622 0 0 1 -.055-.122 3.275 3.275 0 0 1 2.666-1.345 3.329 3.329 0 0 1 3.334 3.334z" fill="#da9367"/><circle cx="13" cy="18" fill="#edb88e" r="1"/><circle cx="18" cy="8" fill="#edb88e" r="1"/><circle cx="12" cy="12" fill="#edb88e" r="1"/><circle cx="7" cy="10" fill="#edb88e" r="1"/><circle cx="36" cy="36" fill="#ade8f4" r="25"/><path d="m56.15 50.79a25 25 0 1 1 -23.3-39.58 24.994 24.994 0 0 0 20.15 39.79 23.364 23.364 0 0 0 3.15-.21z" fill="#48cae4"/><path d="m34.287 52.556 2.677-1.356 1.806 3.57-3.118 2.7 1.26 3.509a24.994 24.994 0 0 1 -21.886-38.586l5.256.266.472 5.364 5.375 1.763-3.988 7.622.462 3.128 4.913-1.365 1.365 4.913 3.579.431-3.548 6.277z" fill="#52b788"/><path d="m60.32 41.75-10.42 1.79-2.25-2.23-5.35 2.71-1.37-4.91-4.02.91-1.8-3.57 5.77-8.52-4.02.91-2.71-5.35 1.77-3.14-.91-4.02-6.26.92-1.32-4.73a24.945 24.945 0 0 1 19.12.82l-1.55 4.66 4 2-3 2 2 4 5-3 5.35 1.79a24.92 24.92 0 0 1 1.97 16.96z" fill="#95d5b2"/><path d="m57.2 49.258a24.857 24.857 0 0 1 -9.912 9.05 23.016 23.016 0 0 1 -2.763 1.185l-1.72-3.4 3.118-2.7-3.149-4.01 4.01-3.15 3.586 2.667 4.461-2.258z" fill="#95d5b2"/><path d="m24.305 13.91.89 7.384-6.407-3.427a24.71 24.71 0 0 1 5.517-3.957z" fill="#52b788"/><path d="m32.86 11.2a24.1 24.1 0 0 0 -3.23 5.92l-.88.13-1.32-4.73a24.44 24.44 0 0 1 5.43-1.32z" fill="#52b788"/><path d="m56.16 50.79a24.894 24.894 0 0 1 -8.88 7.52 23.847 23.847 0 0 1 -2.76 1.18l-1.72-3.4 3.12-2.69-3.15-4.02.46-.36a25 25 0 0 0 9.77 1.98 23.623 23.623 0 0 0 3.16-.21z" fill="#52b788"/><g fill="#fffa48"><path d="m35.756 46.76a73.306 73.306 0 0 1 -13.364 9.37c-5.6 2.937-9.974 3.665-11.7 1.949-1.3-1.306-1.225-4.123.227-7.934a1 1 0 1 0 -1.869-.711c-1.775 4.657-1.7 8.136.23 10.061a5.739 5.739 0 0 0 4.211 1.491c2.583 0 5.923-1.035 9.827-3.084a75.214 75.214 0 0 0 13.742-9.626 1 1 0 1 0 -1.3-1.516z"/><path d="m55.427 25.686a1 1 0 0 0 -1.378.314 83.614 83.614 0 0 1 -8.413 11.037 1 1 0 1 0 1.492 1.331 85.444 85.444 0 0 0 8.614-11.3 1 1 0 0 0 -.315-1.382z"/><path d="m58.493 10.279c-2.538-2.538-7.762-1.837-14.724 1.958a25.181 25.181 0 0 1 2.482.962c5.2-2.574 9.183-3.151 10.826-1.507 1.369 1.374 1.218 4.372-.425 8.441a1 1 0 0 0 1.856.749c1.992-4.929 1.985-8.595-.015-10.603z"/><circle cx="6" cy="43" r="1"/><circle cx="51" cy="7" r="1"/><circle cx="56" cy="57" r="1"/></g><circle cx="23" cy="49" fill="#48cae4" r="1"/><circle cx="45" cy="32" fill="#48cae4" r="1"/><circle cx="36" cy="8" fill="#fffa48" r="1"/><circle cx="27" cy="4" fill="#fffa48" r="1"/><path d="m7 27h-.5v-.5a1 1 0 0 0 -2 0v.5h-.5a1 1 0 0 0 0 2h.5v.5a1 1 0 0 0 2 0v-.5h.5a1 1 0 0 0 0-2z" fill="#fffa48"/><path d="m45 8v-.5h.5a1 1 0 0 0 0-2h-.5v-.5a1 1 0 0 0 -2 0v.5h-.5a1 1 0 0 0 0 2h.5v.5a1 1 0 0 0 2 0z" fill="#fffa48"/></g></g></svg>