<svg height="512" viewBox="0 0 64 64" width="512" xmlns="http://www.w3.org/2000/svg"><g id="Flat"><g id="Color_copy" data-name="Color copy"><path d="m30 5 .094.49a5.482 5.482 0 0 0 9.964 1.982l.274-.417-.1.489c-1 4.821 3.375 9.409 7.448 6.645l.413-.281-.281.413c-2.764 4.073 1.824 8.443 6.645 7.448l.489-.1-.417.275a5.482 5.482 0 0 0 1.982 9.964l.489.092-.49.094a5.482 5.482 0 0 0 -1.982 9.964l.417.275-.489-.1c-4.821-1-9.409 3.375-6.645 7.448l.281.413-.413-.281c-4.073-2.764-8.443 1.824-7.448 6.645l.1.489-.274-.417a5.482 5.482 0 0 0 -9.964 1.982l-.093.488-.094-.49a5.482 5.482 0 0 0 -9.964-1.982l-.275.417.1-.489a5.482 5.482 0 0 0 -8.447-5.645l-.413.281.28-.413a5.482 5.482 0 0 0 -5.644-8.448l-.489.1.417-.275a5.482 5.482 0 0 0 -1.981-9.962l-.49-.094.49-.094a5.482 5.482 0 0 0 1.982-9.964l-.417-.275.489.1a5.482 5.482 0 0 0 5.644-8.448l-.28-.413.413.281a5.482 5.482 0 0 0 8.447-5.645l-.1-.489.275.417a5.482 5.482 0 0 0 9.963-1.98z" fill="#ff7373"/><path d="m30 53.5a7.17 7.17 0 0 0 -5.287-2.263 7.1 7.1 0 0 0 -2.94.624 7.113 7.113 0 0 0 -1.142-1.972 7.318 7.318 0 0 0 -5.61-2.687h-.222a7.145 7.145 0 0 0 -.843-3.586 7.218 7.218 0 0 0 -3.817-3.385 7.31 7.31 0 0 0 -1.632-8.231 7.31 7.31 0 0 0 1.632-8.234 7.214 7.214 0 0 0 3.817-3.385 7.121 7.121 0 0 0 .844-3.581q.111 0 .222 0a7.318 7.318 0 0 0 5.61-2.687 7.141 7.141 0 0 0 1.143-1.972 7.087 7.087 0 0 0 2.939.624 7.168 7.168 0 0 0 5.286-2.265 7.288 7.288 0 0 0 8.08 1.7 8.186 8.186 0 0 0 1.52 2.952 6.431 6.431 0 0 0 4.769 2.479 5.914 5.914 0 0 0 .7 2.633 7.626 7.626 0 0 0 4.721 3.659 7.315 7.315 0 0 0 1.703 8.077 7.315 7.315 0 0 0 -1.7 8.077 7.627 7.627 0 0 0 -4.722 3.659 5.926 5.926 0 0 0 -.7 2.633 6.431 6.431 0 0 0 -4.771 2.479 8.189 8.189 0 0 0 -1.52 2.952 7.291 7.291 0 0 0 -8.08 1.7z" fill="#ef5350"/><circle cx="30" cy="32" fill="#e53935" r="18"/><circle cx="30" cy="32" fill="#c62828" r="14"/><circle cx="42" cy="32" fill="#fcf2ad" r="19"/><path d="m57.93 42.35a19 19 0 1 1 -20.86-28.7 19 19 0 0 0 15.93 29.35 18.674 18.674 0 0 0 4.93-.65z" fill="#f9dbaf"/><path d="m39.114 25.542.878.983a3.729 3.729 0 0 1 .754 3.667 3.727 3.727 0 0 1 -1.715 2.071l-.9.5a3.731 3.731 0 0 1 -3 .282l-.916-.306a3.728 3.728 0 0 1 -1.6-1.053l-.784-.878a3.73 3.73 0 0 1 -.684-3.861l.307-.772a3.729 3.729 0 0 1 2.488-2.221h.007a3.724 3.724 0 0 1 2.16.062l1.409.471a3.728 3.728 0 0 1 1.596 1.055z" fill="#edb88e"/><path d="m41.816 38.456.6-.4a2.857 2.857 0 0 1 3.17 0l.143.095a2.857 2.857 0 0 1 1.271 2.378v.24a2.857 2.857 0 0 1 -2.164 2.772l-.61.152a2.853 2.853 0 0 1 -2.278-.394l-.132-.089a2.857 2.857 0 0 1 -1.126-3.28 2.858 2.858 0 0 1 1.126-1.474z" fill="#edb88e"/><path d="m49.816 23.456.6-.4a2.857 2.857 0 0 1 3.17 0l.143.1a2.857 2.857 0 0 1 1.271 2.373v.24a2.857 2.857 0 0 1 -2.164 2.772l-.61.152a2.853 2.853 0 0 1 -2.278-.394l-.132-.089a2.857 2.857 0 0 1 -1.126-3.28 2.858 2.858 0 0 1 1.126-1.474z" fill="#f9dbaf"/><circle cx="53" cy="35" fill="#f9dbaf" r="2"/><circle cx="32" cy="39.048" fill="#edb88e" r="2"/><path d="m37.75 16.19a3.745 3.745 0 0 1 -1.72 2.07l-.9.51a3.748 3.748 0 0 1 -3 .28l-.92-.31a3.73 3.73 0 0 1 -1.6-1.05l-.04-.05a18.625 18.625 0 0 1 8.05-4.12 3.721 3.721 0 0 1 .13 2.67z" fill="#edb88e"/><path d="m39.93 50.88a18.841 18.841 0 0 1 -9.05-3.48 3.7 3.7 0 0 1 2.06-1.44h.01a3.619 3.619 0 0 1 2.16.06l1.41.47a3.79 3.79 0 0 1 1.59 1.05l.88.99a3.63 3.63 0 0 1 .94 2.35z" fill="#edb88e"/><g fill="#da9367"><path d="m39.992 26.525-.878-.983a3.728 3.728 0 0 0 -1.6-1.053l-1.409-.471a3.724 3.724 0 0 0 -2.16-.062h-.007a3.729 3.729 0 0 0 -2.488 2.221l-.307.772a3.73 3.73 0 0 0 .684 3.861l.784.878a3.728 3.728 0 0 0 1.6 1.053l.916.306a3.705 3.705 0 0 0 1.281.174 18.794 18.794 0 0 1 -2.388-8.231l.09.03 1.41.47a3.79 3.79 0 0 1 1.59 1.05l.88.99a3.687 3.687 0 0 1 -.736 5.576 3.7 3.7 0 0 0 .877-.339l.9-.5a3.73 3.73 0 0 0 .961-5.738z"/><path d="m45.728 38.152-.143-.095a2.857 2.857 0 0 0 -3.17 0l-.6.4a2.856 2.856 0 0 0 0 4.754l.132.089a2.853 2.853 0 0 0 2.278.394l.61-.152a2.857 2.857 0 0 0 2.165-2.773v-.24a2.857 2.857 0 0 0 -1.272-2.377zm.272 3.508a18.457 18.457 0 0 1 -4.58-2.6 2.84 2.84 0 0 1 3.16 0l.15.09a2.866 2.866 0 0 1 1.27 2.38z"/><path d="m37.07 13.665a18.636 18.636 0 0 0 -7.5 3.975l.04.05a3.73 3.73 0 0 0 1.6 1.05l.92.31a3.73 3.73 0 0 0 2.569-.1 18.88 18.88 0 0 1 2.371-5.285z"/><path d="m31.94 47h.01a3.619 3.619 0 0 1 2.16.06l1.41.47a3.79 3.79 0 0 1 1.59 1.05l.88.99a3.629 3.629 0 0 1 .7 1.134q.616.108 1.245.176a3.63 3.63 0 0 0 -.94-2.35l-.88-.99a3.79 3.79 0 0 0 -1.59-1.05l-1.41-.47a3.619 3.619 0 0 0 -2.16-.06h-.01a3.7 3.7 0 0 0 -2.06 1.44c.022.016.046.03.068.046a3.732 3.732 0 0 1 .987-.446z"/><path d="m32 37.048a1.994 1.994 0 0 0 -1.784 1.112 1.991 1.991 0 0 1 2.568 2.728 2 2 0 0 0 -.784-3.84z"/></g><path d="m53 33.048a1.994 1.994 0 0 0 -1.784 1.112 1.991 1.991 0 0 1 2.568 2.728 2 2 0 0 0 -.784-3.84z" fill="#edb88e"/><path d="m53.728 23.152-.143-.1a2.857 2.857 0 0 0 -3.17 0l-.6.4a2.838 2.838 0 0 0 -.851.9l.45-.3a2.857 2.857 0 0 1 3.17 0l.143.1a2.857 2.857 0 0 1 1.273 2.377v.24a2.846 2.846 0 0 1 -.4 1.451 2.852 2.852 0 0 0 1.4-2.451v-.24a2.857 2.857 0 0 0 -1.272-2.377z" fill="#edb88e"/><circle cx="46" cy="32" fill="#f9dbaf" r="1"/><circle cx="27" cy="32" fill="#da9367" r="1"/><circle cx="44" cy="22" fill="#f9dbaf" r="1"/><circle cx="53" cy="41" fill="#f9dbaf" r="1"/><circle cx="48" cy="46" fill="#da9367" r="1"/></g></g></svg>