<svg height="512" viewBox="0 0 64 64" width="512" xmlns="http://www.w3.org/2000/svg"><g id="Flat"><g id="Color_copy" data-name="Color copy"><path d="m40 12h10v5h-10z" fill="#48cae4"/><path d="m40 17h10v5h-10z" fill="#ff7373"/><path d="m46.54 17h-6.54v-5h6v3a3.989 3.989 0 0 0 .54 2z" fill="#00b4d8"/><path d="m50 19v3h-10v-5h6.54a3.98 3.98 0 0 0 3.46 2z" fill="#ef5350"/><path d="m34 34h-4v-26a2 2 0 0 1 2-2 2 2 0 0 1 2 2z" fill="#e9f1f2"/><path d="m34 8h10v5h-10z" fill="#48cae4"/><path d="m34 13h10v5h-10z" fill="#ff7373"/><path d="m40 22v-4h4a6.327 6.327 0 0 1 -4 4z" fill="#e53935"/><path d="m40.54 13h-6.54v-5h6v3a3.989 3.989 0 0 0 .54 2z" fill="#00b4d8"/><path d="m44 15v3h-10v-5h6.54a3.98 3.98 0 0 0 3.46 2z" fill="#ef5350"/><path d="m34 29.46v4.54h-4v-26a2.006 2.006 0 0 1 2-2v20a3.98 3.98 0 0 0 2 3.46z" fill="#d0d8da"/><path d="m61 61h-58a28.96 28.96 0 0 1 15.9-25.87 4.663 4.663 0 0 1 3.66-.25 3.786 3.786 0 0 0 1.26.21l1.18-.01a3.694 3.694 0 0 0 1.844-.512l.826-.488a5.537 5.537 0 0 0 .757-.582 5.122 5.122 0 0 1 3.4-1.5h.173a28.958 28.958 0 0 1 23.147 11.521 6.624 6.624 0 0 1 1.072 5.417 3.692 3.692 0 0 0 -.019 1.414l.2 1.16a3.789 3.789 0 0 0 .81 1.73l.62.75a3.78 3.78 0 0 0 .625.588 6.506 6.506 0 0 1 2.505 4.885q.04.764.04 1.537z" fill="#f9dbaf"/><path d="m61 61h-58a28.9 28.9 0 0 1 11.56-23.16 43.071 43.071 0 0 0 45.79 19.14 6.851 6.851 0 0 1 .61 2.48c.03.51.04 1.02.04 1.54z" fill="#edb88e"/><path d="m41 37 4.121-4.713a13.332 13.332 0 0 0 7.45 4.8l.142.034-2.713 4.879h-.169a10.3 10.3 0 0 1 -8.831-5z" fill="#f9dbaf"/><path d="m21.886 46.557 1.178-.589a3.728 3.728 0 0 1 3.736.232 3.732 3.732 0 0 1 1.55 2.2l.25 1a3.728 3.728 0 0 1 -.515 2.973l-.536.8a3.723 3.723 0 0 1 -1.435 1.267l-1.053.526a3.727 3.727 0 0 1 -3.905-.352l-.665-.5a3.733 3.733 0 0 1 -1.491-2.978v-.007a3.729 3.729 0 0 1 .626-2.068l.825-1.237a3.723 3.723 0 0 1 1.435-1.267z" fill="#edb88e"/><path d="m46.816 55.456.6-.4a2.861 2.861 0 0 1 3.17 0l.143.1a2.857 2.857 0 0 1 1.271 2.373v.24a2.857 2.857 0 0 1 -2.164 2.772l-.61.153a2.861 2.861 0 0 1 -2.278-.4l-.132-.089a2.857 2.857 0 0 1 -1.126-3.28 2.858 2.858 0 0 1 1.126-1.469z" fill="#edb88e"/><path d="m32.816 39.456.6-.4a2.861 2.861 0 0 1 3.17 0l.143.1a2.857 2.857 0 0 1 1.271 2.373v.24a2.857 2.857 0 0 1 -2.164 2.772l-.61.153a2.861 2.861 0 0 1 -2.278-.4l-.132-.089a2.857 2.857 0 0 1 -1.126-3.28 2.858 2.858 0 0 1 1.126-1.469z" fill="#edb88e"/><circle cx="37" cy="53" fill="#edb88e" r="2"/><circle cx="11" cy="55" fill="#edb88e" r="2"/><g fill="#da9367"><path d="m36.728 39.152-.143-.1a2.861 2.861 0 0 0 -3.17 0l-.6.4a2.838 2.838 0 0 0 -.851.9l.45-.3a2.861 2.861 0 0 1 3.17 0l.143.1a2.857 2.857 0 0 1 1.273 2.377v.24a2.846 2.846 0 0 1 -.4 1.451 2.852 2.852 0 0 0 1.4-2.451v-.24a2.857 2.857 0 0 0 -1.272-2.377z"/><path d="m37 51a2 2 0 0 0 -1.82 1.18 1.974 1.974 0 0 1 .82-.18 1.992 1.992 0 0 1 1.82 2.82 2 2 0 0 0 -.82-3.82z"/><path d="m11 53a2 2 0 0 0 -1.82 1.18 1.974 1.974 0 0 1 .82-.18 1.992 1.992 0 0 1 1.82 2.82 2 2 0 0 0 -.82-3.82z"/><path d="m28.6 49.4-.25-1a3.729 3.729 0 0 0 -5.29-2.43l-1.17.59a3.727 3.727 0 0 0 -1.44 1.26l-.82 1.24a3.709 3.709 0 0 0 -.63 2.07v.01a3.732 3.732 0 0 0 1.49 2.98l.67.5a3.74 3.74 0 0 0 3.9.35l1.05-.53a3.727 3.727 0 0 0 1.44-1.26l.53-.81a3.711 3.711 0 0 0 .52-2.97zm-6.42-2.48a3.72 3.72 0 0 1 5.17 2.48l.25 1a3.22 3.22 0 0 1 .1.75 43.63 43.63 0 0 1 -5.52-4.23z"/><path d="m52 57.53v.24a2.856 2.856 0 0 1 -2.16 2.77l-.61.15a2.829 2.829 0 0 1 -2.28-.39l-.13-.09a2.8 2.8 0 0 1 -1.26-2.56 41.437 41.437 0 0 0 5.38.35 2.819 2.819 0 0 0 -1.21-1.85l-.15-.09a2.84 2.84 0 0 0 -3.16 0l-.45.3a2.613 2.613 0 0 1 .85-.9l.6-.4a2.84 2.84 0 0 1 3.16 0l.15.09a2.866 2.866 0 0 1 1.27 2.38z"/><path d="m15.315 39.9-4.278 1.078a28.97 28.97 0 0 0 -5.724 8.674 7.152 7.152 0 0 0 8.94-4.721 33.643 33.643 0 0 0 1.038-4.863z"/></g><path d="m9.1 48.1-4.088-4.74a13.334 13.334 0 0 0 5.8-6.7l.053-.135 4.45 3.375-.024.168a10.3 10.3 0 0 1 -6.191 8.032z" fill="#edb88e"/><path d="m56.16 45.6a13.417 13.417 0 0 1 -15.16-8.6 10.3 10.3 0 0 0 8.83 5h.17l1.42-2.55a29.336 29.336 0 0 1 3.73 4.07 5.826 5.826 0 0 1 1.01 2.08z" fill="#edb88e"/></g></g></svg>