<svg height="512" viewBox="0 0 64 64" width="512" xmlns="http://www.w3.org/2000/svg"><g id="Flat"><g id="Color_copy" data-name="Color copy"><circle cx="32" cy="32" fill="#ff7373" r="29"/><path d="m59.67 40.73a29.007 29.007 0 1 1 -44.34-32.46 29.292 29.292 0 0 0 -1.33 8.73 29 29 0 0 0 45.67 23.73z" fill="#ef5350"/><path d="m58.46 20.14-6.06.55a19.947 19.947 0 0 1 -6.71-.52l-4.56-1.14a14.244 14.244 0 0 0 -8.14.38 15.983 15.983 0 0 1 -2.91.68 7.707 7.707 0 0 0 -4.01 1.81 9.231 9.231 0 0 1 -6.07 2.1 9.231 9.231 0 0 1 -6.07-2.1 7.908 7.908 0 0 0 -5.23-1.9h-3.1a27.411 27.411 0 0 1 2.91-5h1.5a8.335 8.335 0 0 0 4.65-1.46 9.572 9.572 0 0 1 5.34-1.54 9.572 9.572 0 0 1 5.34 1.54 8.335 8.335 0 0 0 4.65 1.46l1.82-.52a20.125 20.125 0 0 1 10.42-.17l3.46.86a19.947 19.947 0 0 0 6.71.52l3.37-.31a27.491 27.491 0 0 1 2.69 4.76z" fill="#ef5350"/><path d="m59.54 41.11a28.652 28.652 0 0 1 -3.7 7.4 25.317 25.317 0 0 0 -6.33.18l-.13.02a8.091 8.091 0 0 1 -7.38 4.29 8.478 8.478 0 0 1 -6.1-2.48 5.735 5.735 0 0 0 -3.3-1.72 25.591 25.591 0 0 0 -11.2.88 25.208 25.208 0 0 1 -9.43.93l-2.37-.18a28.633 28.633 0 0 1 -4.8-8.37l7.43.57a25.363 25.363 0 0 0 9.33-1 24.515 24.515 0 0 1 10.52-.9l1.95.27a5.088 5.088 0 0 0 3.4-.74 8.942 8.942 0 0 1 8.91-.14 4.981 4.981 0 0 0 2.41.63 4.866 4.866 0 0 0 .76-.06 25.634 25.634 0 0 1 8.95.2z" fill="#ef5350"/><ellipse cx="20" cy="18" fill="#e53935" rx="3" ry="2"/><path d="m47.31 7.36-1.65.51a16.294 16.294 0 0 1 -7.44.5l-5.55-.93a16.312 16.312 0 0 0 -5.34 0 16.185 16.185 0 0 1 -6.61-.26l-2.6-.65a29.057 29.057 0 0 1 29.19.83z" fill="#ef5350"/><path d="m61 32a27.987 27.987 0 0 1 -.49 5.29l-1.99-.87a23.743 23.743 0 0 0 -11.53-1.92l-4.15.35a23.8 23.8 0 0 1 -3.68.02l-8.95-.64a23.9 23.9 0 0 0 -6.37.4l-6.43 1.29a23.9 23.9 0 0 1 -10.74-.32l-3.54-.93a26.23 26.23 0 0 1 -.13-2.67 28.81 28.81 0 0 1 .76-6.61l5.5 2.07a23.767 23.767 0 0 0 13.76.92l.4-.09a23.835 23.835 0 0 1 11.14.1 24.05 24.05 0 0 0 5.77.71 23.983 23.983 0 0 0 7.02-1.05l4.66-1.44a23.378 23.378 0 0 1 4.05-.87l4.14-.52a29.064 29.064 0 0 1 .8 6.78z" fill="#ef5350"/><g fill="#e53935"><path d="m43.67 58.55a29.027 29.027 0 0 1 -27.66-2.35l3.31-1.33a20.135 20.135 0 0 1 17.2 1.08l.61.34a20.049 20.049 0 0 0 6.1 2.18z"/><path d="m14.5 22.35a6.264 6.264 0 0 1 -.57-.45 7.908 7.908 0 0 0 -5.23-1.9h-3.1a27.411 27.411 0 0 1 2.91-5h1.5a8.128 8.128 0 0 0 4.16-1.16 29.971 29.971 0 0 0 -.17 3.16 28.545 28.545 0 0 0 .5 5.35z"/><path d="m59.54 41.11a28.652 28.652 0 0 1 -3.7 7.4 25.317 25.317 0 0 0 -6.33.18l-.13.02a8.091 8.091 0 0 1 -7.38 4.29 8.478 8.478 0 0 1 -6.1-2.48 5.735 5.735 0 0 0 -3.3-1.72 25.591 25.591 0 0 0 -11.2.88 25.208 25.208 0 0 1 -9.43.93l-2.37-.18a28.633 28.633 0 0 1 -4.8-8.37l7.43.57a25.363 25.363 0 0 0 9.33-1 27.221 27.221 0 0 1 4.68-.97 29.01 29.01 0 0 0 32.98.39h.01z"/><path d="m20.5 35.3-3.09.62a23.9 23.9 0 0 1 -10.74-.32l-3.54-.93a26.23 26.23 0 0 1 -.13-2.67 28.81 28.81 0 0 1 .76-6.61l5.5 2.07a24.008 24.008 0 0 0 7.33 1.51 28.2 28.2 0 0 0 3.91 6.33z"/><ellipse cx="42" cy="46" rx="4" ry="3"/></g><path d="m38.058 45.569a2.213 2.213 0 0 0 -.058.431c0 1.657 1.791 3 4 3s4-1.343 4-3c0-.058-.018-.112-.023-.169a27.664 27.664 0 0 1 -7.919-.262z" fill="#c62828"/></g></g></svg>