<svg height="512" viewBox="0 0 64 64" width="512" xmlns="http://www.w3.org/2000/svg"><g id="Flat"><g id="Color_copy" data-name="Color copy"><path d="m60 59h-2.111l-1.9-16.117a1 1 0 0 0 -.9-.879l-11-1a1 1 0 1 0 -.18 1.996l8.08.735-8.526 5.425a1 1 0 0 0 .152 1.767l11.893 4.955.367 3.118h-2.875a1 1 0 0 0 0 2h7a1 1 0 0 0 0-2zm-13.846-9.185 8.039-5.115 1.047 8.9z" fill="#48cae4"/><path d="m21 41.909a.994.994 0 0 0 -1.091-.909l-11 1a1 1 0 0 0 -.9.879l-1.898 16.121h-2.111a1 1 0 0 0 0 2h7a1 1 0 0 0 0-2h-2.875l.367-3.122 11.893-4.955a1 1 0 0 0 .152-1.767l-8.526-5.425 8.08-.731a1 1 0 0 0 .909-1.091zm-12.24 11.691 1.047-8.9 8.039 5.116z" fill="#48cae4"/><path d="m36 59h-3v-9a1 1 0 0 0 -2 0v9h-3a1 1 0 0 0 0 2h8a1 1 0 0 0 0-2z" fill="#48cae4"/><path d="m19 41h26v10h-26z" fill="#e9f1f2"/><path d="m24 37h16v4h-16z" fill="#656b76"/><path d="m51 29v-18l-10-8h-18l-10 8v18l10 8h18z" fill="#656b76"/><path d="m23 3-10 8h10z" fill="#b8bebf"/><path d="m51 11-10-8v8z" fill="#e9f1f2"/><path d="m41 37 10-8h-10z" fill="#b8bebf"/><path d="m23 3h18v8h-18z" fill="#d0d8da"/><path d="m23 29h18v8h-18z" fill="#93999a"/><path d="m13 11h10v18h-10z" fill="#93999a"/><path d="m41 11h10v18h-10z" fill="#d0d8da"/><path d="m23 11h18v18h-18z" fill="#b8bebf"/><path d="m45 51h-26v-10h21l-8 5z" fill="#d0d8da"/><path d="m13 13.951v2.098l10 3.158v-2.098z" fill="#656b76"/><path d="m13 25.951v2.098l10-3.158v-2.098z" fill="#656b76"/><path d="m51 28.049v-2.098l-10-3.158v2.098z" fill="#b8bebf"/><path d="m51 16.049v-2.098l-10 3.158v2.098z" fill="#b8bebf"/><path d="m41 19.207v-2.098l-9 2.842-9-2.842v2.098l5.679 1.793-5.679 1.793v2.098l9-2.842 9 2.842v-2.098l-5.679-1.793z" fill="#93999a"/><g fill="#48cae4"><path d="m6.684 24.948 6 2a1 1 0 0 0 .617 0l18.7-5.9 18.7 5.9a1 1 0 0 0 .299.052 1.006 1.006 0 0 0 .316-.052l6-2a1 1 0 0 0 .684-.948v-8a1 1 0 0 0 -.684-.948l-6-2a.979.979 0 0 0 -.617 0l-18.699 5.899-18.7-5.9a.986.986 0 0 0 -.617 0l-6 2a1 1 0 0 0 -.683.949v8a1 1 0 0 0 .684.948zm49.316-1.669-4 1.333v-9.224l4 1.333zm-6-7.914v9.27l-14.68-4.635zm-36 9.27v-9.27l14.68 4.635zm-6-7.914 4-1.333v9.224l-4-1.333z"/><circle cx="32" cy="46" r="1"/><circle cx="36" cy="46" r="1"/><circle cx="24" cy="46" r="1"/><circle cx="28" cy="46" r="1"/><circle cx="40" cy="46" r="1"/></g></g></g></svg>