<svg height="512" viewBox="0 0 64 64" width="512" xmlns="http://www.w3.org/2000/svg"><g id="Flat"><g id="Color_copy" data-name="Color copy"><path d="m6 29 5.1 1.019a50.434 50.434 0 0 0 9.9.981c-6.172-11.655-18-28-18-28a249.24 249.24 0 0 0 23.823 14.785 17.042 17.042 0 0 0 -.381-9.46l-.442-1.325 2.33 2.786a88.162 88.162 0 0 0 21.119 18.26 43.651 43.651 0 0 1 6.718 4.787 16.5 16.5 0 0 1 -23.334 23.334 40 40 0 0 1 -4.388-6.08 60.619 60.619 0 0 0 -22.195-20.95z" fill="#fffa48"/><path d="m44.5 58a13.411 13.411 0 0 1 -9.546-3.954 35.365 35.365 0 0 1 -3.97-5.558 64.348 64.348 0 0 0 -12.546-14.549q1.281.061 2.562.061h4.983l-2.332-4.4c-2.619-4.947-6.192-10.657-9.481-15.652 3.463 2.139 7.337 4.416 11.246 6.491l3.4 1.8.92-3.737a20.1 20.1 0 0 0 .413-2.2 91.912 91.912 0 0 0 17.715 14.292 38.554 38.554 0 0 1 6.182 4.36 13.5 13.5 0 0 1 -9.546 23.046z" fill="#fdc741"/><path d="m20 20c.279.15 10.81 6.694 10.81 6.694l1.1-4.472a95.82 95.82 0 0 0 14.37 10.92 36.717 36.717 0 0 1 5.646 3.934l-18.4 9.813a67.582 67.582 0 0 0 -7.591-9.889h5.031z" fill="#ff7373"/><path d="m34.2 44.261q-1.814-2.718-3.883-5.261h4.32l-8.154-12.639 5.611 3.485.966-3.924a98.488 98.488 0 0 0 12.164 8.918c1.273.791 2.253 1.432 3 1.942l-8.224 12.218z" fill="#ef5350"/><path d="m53.276 39.191 1.772 4.429a8.3 8.3 0 0 1 .4 4.882 8.3 8.3 0 0 1 -8.1 6.5 20.06 20.06 0 0 1 -8.3-1.8l-4.368-1.984a5.265 5.265 0 0 1 -3.045-4.139l-.172-1.371a2 2 0 0 1 2.879-2.037l1.62.81a2 2 0 0 0 2-.125 1.788 1.788 0 0 0 .125-2.883l-1.262-1.01a7.936 7.936 0 0 1 -2.57-3.685l-.543-1.629a2 2 0 0 1 1.506-2.593l1.584-.317a2 2 0 0 1 1.954.711l1.627 2.034a2 2 0 0 0 3.162-.049l.508-.678a2 2 0 0 1 2.388-.638l2.4 1.027a8.3 8.3 0 0 1 4.435 4.545z" fill="#f9dbaf"/><path d="m55.07 49.7a8.2 8.2 0 0 1 -2.54 3.48 8.333 8.333 0 0 1 -5.19 1.82 19.922 19.922 0 0 1 -8.29-1.8l-4.37-1.98a5.28 5.28 0 0 1 -3.05-4.14l-.17-1.37a2.005 2.005 0 0 1 2.09-2.25l.08.62a5.28 5.28 0 0 0 3.05 4.14l4.37 1.98a19.922 19.922 0 0 0 8.29 1.8 8.333 8.333 0 0 0 5.19-1.82 6.168 6.168 0 0 0 .54-.48z" fill="#edb88e"/><circle cx="47" cy="51" fill="#edb88e" r="3"/><circle cx="47" cy="41" fill="#edb88e" r="2"/><path d="m49 41a2 2 0 0 1 -1.18 1.82 1.891 1.891 0 0 0 .18-.82 2.006 2.006 0 0 0 -2-2 1.891 1.891 0 0 0 -.82.18 2 2 0 0 1 3.82.82z" fill="#da9367"/><path d="m50 51a3 3 0 0 1 -5.98.27 19.905 19.905 0 0 0 4.98.72 3.007 3.007 0 0 0 -3-2.99 2.951 2.951 0 0 0 -1.58.46 3 3 0 0 1 5.58 1.54z" fill="#da9367"/><path d="m38.091 41.473-1.262-1.01a7.931 7.931 0 0 1 -2.57-3.685l-.543-1.629a2 2 0 0 1 1.5-2.593l1.585-.317a7.994 7.994 0 0 0 .246 7.394z" fill="#edb88e"/><circle cx="52" cy="46" fill="#edb88e" r="1"/><circle cx="40" cy="40" fill="#edb88e" r="1"/><circle cx="41" cy="47" fill="#edb88e" r="1"/><circle cx="37" cy="50" fill="#da9367" r="1"/><circle cx="57" cy="16" fill="#f9dbaf" r="2"/><circle cx="45" cy="10" fill="#f9dbaf" r="2"/><circle cx="21" cy="51" fill="#f9dbaf" r="2"/><path d="m58.82 16.82a2 2 0 1 1 -2.64-2.64 1.891 1.891 0 0 0 -.18.82 2.006 2.006 0 0 0 2 2 1.891 1.891 0 0 0 .82-.18z" fill="#edb88e"/><path d="m46.82 10.82a2 2 0 1 1 -2.64-2.64 1.891 1.891 0 0 0 -.18.82 2.006 2.006 0 0 0 2 2 1.891 1.891 0 0 0 .82-.18z" fill="#edb88e"/><path d="m22.82 51.82a2 2 0 1 1 -2.64-2.64 1.891 1.891 0 0 0 -.18.82 2.006 2.006 0 0 0 2 2 1.891 1.891 0 0 0 .82-.18z" fill="#edb88e"/><g fill="#fcea42"><circle cx="50" cy="19" r="1"/><circle cx="19" cy="57.667" r="1"/><path d="m57.968 30.954a.942.942 0 0 1 -.949-.757l-.019-.097a12.073 12.073 0 0 0 -4.6-7.3 1 1 0 0 1 1.2-1.6 14.066 14.066 0 0 1 5.361 8.507 1.044 1.044 0 0 1 -.774 1.225 1.1 1.1 0 0 1 -.219.022z"/><path d="m28.629 61a18.107 18.107 0 0 1 -6.735-1.3l-.265-.105a1 1 0 0 1 .742-1.858l.265.106a16.107 16.107 0 0 0 9.168.842 1 1 0 0 1 .392 1.962 18.22 18.22 0 0 1 -3.567.353z"/><path d="m48 24a1 1 0 0 1 -.65-.241l-7-6a1 1 0 0 1 1.3-1.518l7 6a1 1 0 0 1 -.65 1.759z"/><path d="m18 44.667a1 1 0 0 1 -.833-.445 16.911 16.911 0 0 0 -4.722-4.722 1 1 0 0 1 1.11-1.664 18.939 18.939 0 0 1 5.277 5.277 1 1 0 0 1 -.832 1.554z"/><path d="m15 47.667a1 1 0 0 1 -.707-.293l-9-9a1 1 0 0 1 1.414-1.414l9 9a1 1 0 0 1 -.707 1.707z"/><path d="m14 52.667a.976.976 0 0 1 -.244-.03 11.642 11.642 0 0 1 -6.876-4.846l-1.712-2.569a1 1 0 0 1 1.664-1.11l1.713 2.57a9.649 9.649 0 0 0 5.7 4.015 1 1 0 0 1 -.245 1.97z"/><path d="m40 9a1 1 0 0 1 -.707-.293l-4-4a1 1 0 0 1 1.414-1.414l4 4a1 1 0 0 1 -.707 1.707z"/><path d="m58 13a1 1 0 0 1 -.9-.553 15.854 15.854 0 0 0 -5.381-6.095l-2.279-1.52a1 1 0 0 1 1.11-1.664l2.278 1.52a17.858 17.858 0 0 1 6.061 6.865 1 1 0 0 1 -.889 1.447z"/><path d="m53 14a1 1 0 0 1 -.707-.293l-2-2a1 1 0 0 1 1.414-1.414l2 2a1 1 0 0 1 -.707 1.707z"/><path d="m36 14a1 1 0 0 1 -.707-.293 27.082 27.082 0 0 1 -5.085-7.055l-.1-.205a1 1 0 1 1 1.789-.894l.1.205a25.1 25.1 0 0 0 4.71 6.535 1 1 0 0 1 -.707 1.707z"/><path d="m13 24.667a1 1 0 0 1 -.833-.445l-6-9a1 1 0 1 1 1.664-1.11l6 9a1 1 0 0 1 -.831 1.555z"/><path d="m10 26.667a.976.976 0 0 1 -.244-.03 9.947 9.947 0 0 1 -6.495-5.211l-.156-.311a1 1 0 0 1 1.788-.9l.156.312a7.956 7.956 0 0 0 5.194 4.173 1 1 0 0 1 -.243 1.967z"/><path d="m22 12a.976.976 0 0 1 -.244-.03 15.9 15.9 0 0 1 -7.38-4.178l-1.083-1.085a1 1 0 0 1 1.414-1.414l1.084 1.084a13.892 13.892 0 0 0 6.452 3.653 1 1 0 0 1 -.243 1.97z"/><path d="m23 8a1 1 0 0 1 -.9-.553 3.857 3.857 0 0 0 -2.517-2.019l-1.826-.458a1 1 0 0 1 .486-1.94l1.83.457a5.855 5.855 0 0 1 3.821 3.066 1 1 0 0 1 -.894 1.447z"/><path d="m27 56.667a.991.991 0 0 1 -.446-.106l-2-1a1 1 0 1 1 .894-1.788l2 1a1 1 0 0 1 -.448 1.894z"/></g></g></g></svg>