<svg height="512" viewBox="0 0 64 64" width="512" xmlns="http://www.w3.org/2000/svg"><g id="Flat"><g id="Color_copy" data-name="Color copy"><path d="m53 28h-12l3-7h9z" fill="#ef5350"/><path d="m53 21v7h-12l1.29-3h2.41a5.005 5.005 0 0 0 4.6-3.03l.42-.97z" fill="#e53935"/><path d="m55 50h-46l-6-18h58z" fill="#e9f1f2"/><path d="m60.33 34h-51.33l.99 1.99a3.653 3.653 0 0 0 3.26 2.01h37.53a3.643 3.643 0 0 1 3.62 4c-.01.12-.02.24-.02.36a3.625 3.625 0 0 0 2.07 3.28l-1.45 4.36h-46l-6-18h58z" fill="#d0d8da"/><path d="m12 44v5h4v-5h14v5h4v-5h14v5h4v-5a4 4 0 0 0 -4-4h-32a4 4 0 0 0 -4 4z" fill="#ff7373"/><path d="m52 46v3h-4v-5h-14v5h-4v-5h-14v5h-4v-5a4 4 0 0 1 4-4h2a2.006 2.006 0 0 0 2 2h28a2.006 2.006 0 0 1 2 2 2.015 2.015 0 0 0 2 2z" fill="#ef5350"/><circle cx="51" cy="54" fill="#93999a" r="7"/><path d="m57.77 55.77a7 7 0 1 1 -8.54-8.54 6.871 6.871 0 0 0 -.23 1.77 7 7 0 0 0 7 7 6.871 6.871 0 0 0 1.77-.23z" fill="#656b76"/><path d="m52 47.08v4.92h-2v-4.92a6.29 6.29 0 0 1 2 0z" fill="#e9f1f2"/><path d="m52 56v4.92a6.29 6.29 0 0 1 -2 0v-4.92z" fill="#d0d8da"/><path d="m58 54a5.474 5.474 0 0 1 -.08 1h-4.92v-2h4.92a5.474 5.474 0 0 1 .08 1z" fill="#e9f1f2"/><path d="m49 53v2h-4.92a6.29 6.29 0 0 1 0-2z" fill="#d0d8da"/><path d="m56.6 49.81-3.48 3.48-1.41-1.41.29-.29 3.19-3.19a6.288 6.288 0 0 1 1.41 1.41z" fill="#e9f1f2"/><path d="m50.29 56.12-.29.29-.29.29-2.9 2.9a6.288 6.288 0 0 1 -1.41-1.41l2.9-2.9.29-.29.29-.29.12.12 1.17 1.17z" fill="#d0d8da"/><path d="m56.6 58.19a6.288 6.288 0 0 1 -1.41 1.41l-2.9-2.9-.29-.29-.29-.29.12-.12 1.17-1.17.12-.12.29.29.29.29z" fill="#e9f1f2"/><path d="m50.29 51.88-1.41 1.41-3.48-3.48a6.288 6.288 0 0 1 1.41-1.41l3.19 3.19z" fill="#e9f1f2"/><g fill="#d0d8da"><path d="m56.6 58.19a6.288 6.288 0 0 1 -1.41 1.41l-2.9-2.9-.29-.29-.29-.29.12-.12.84-.84a6.611 6.611 0 0 0 1.49.59z"/><path d="m49.84 52.33v.01l-.96.95-3.48-3.48a6.288 6.288 0 0 1 1.41-1.41l2.44 2.44a6.611 6.611 0 0 0 .59 1.49z"/><circle cx="51" cy="54" r="3"/></g><path d="m53.56 55.56a2.965 2.965 0 0 1 -2.56 1.44 3 3 0 0 1 -3-3 2.965 2.965 0 0 1 1.44-2.56 6.934 6.934 0 0 0 4.12 4.12z" fill="#b8bebf"/><circle cx="32" cy="54" fill="#93999a" r="7"/><path d="m38.77 55.77a7 7 0 1 1 -8.54-8.54 6.871 6.871 0 0 0 -.23 1.77 7 7 0 0 0 7 7 6.871 6.871 0 0 0 1.77-.23z" fill="#656b76"/><path d="m33 47.08v4.92h-2v-4.92a6.29 6.29 0 0 1 2 0z" fill="#e9f1f2"/><path d="m33 56v4.92a6.29 6.29 0 0 1 -2 0v-4.92z" fill="#d0d8da"/><path d="m39 54a5.474 5.474 0 0 1 -.08 1h-4.92v-2h4.92a5.474 5.474 0 0 1 .08 1z" fill="#e9f1f2"/><path d="m30 53v2h-4.92a6.29 6.29 0 0 1 0-2z" fill="#d0d8da"/><path d="m37.6 49.81-3.48 3.48-1.41-1.41.29-.29 3.19-3.19a6.288 6.288 0 0 1 1.41 1.41z" fill="#e9f1f2"/><path d="m31.29 56.12-.29.29-.29.29-2.9 2.9a6.288 6.288 0 0 1 -1.41-1.41l2.9-2.9.29-.29.29-.29.12.12 1.17 1.17z" fill="#d0d8da"/><path d="m37.6 58.19a6.288 6.288 0 0 1 -1.41 1.41l-2.9-2.9-.29-.29-.29-.29.12-.12 1.17-1.17.12-.12.29.29.29.29z" fill="#e9f1f2"/><path d="m31.29 51.88-1.41 1.41-3.48-3.48a6.288 6.288 0 0 1 1.41-1.41l3.19 3.19z" fill="#e9f1f2"/><path d="m37.6 58.19a6.288 6.288 0 0 1 -1.41 1.41l-2.9-2.9-.29-.29-.29-.29.12-.12.84-.84a6.611 6.611 0 0 0 1.49.59z" fill="#d0d8da"/><path d="m30.84 52.33v.01l-.96.95-3.48-3.48a6.288 6.288 0 0 1 1.41-1.41l2.44 2.44a6.611 6.611 0 0 0 .59 1.49z" fill="#d0d8da"/><circle cx="32" cy="54" fill="#d0d8da" r="3"/><path d="m34.56 55.56a2.965 2.965 0 0 1 -2.56 1.44 3 3 0 0 1 -3-3 2.965 2.965 0 0 1 1.44-2.56 6.934 6.934 0 0 0 4.12 4.12z" fill="#b8bebf"/><circle cx="13" cy="54" fill="#93999a" r="7"/><path d="m19.776 55.745a7 7 0 1 1 -8.571-8.508 6.826 6.826 0 0 0 -.223 1.77 6.993 6.993 0 0 0 7.025 6.974 6.859 6.859 0 0 0 1.769-.236z" fill="#656b76"/><path d="m13.974 47.076.019 4.924-2 .008-.019-4.92a5.472 5.472 0 0 1 1-.084 5.476 5.476 0 0 1 1 .072z" fill="#e9f1f2"/><path d="m14.007 56 .018 4.92a5.454 5.454 0 0 1 -1 .084 5.566 5.566 0 0 1 -1-.076l-.018-4.928z" fill="#d0d8da"/><path d="m20 53.974a5.566 5.566 0 0 1 -.076 1l-4.924.019-.008-2 4.92-.018a5.454 5.454 0 0 1 .088.999z" fill="#e9f1f2"/><path d="m11 53.007.008 2-4.92.018a5.454 5.454 0 0 1 -.084-1 5.566 5.566 0 0 1 .076-1z" fill="#d0d8da"/><path d="m18.584 49.789-3.467 3.493-1.415-1.4.289-.291 3.178-3.2a6.283 6.283 0 0 1 1.415 1.398z" fill="#e9f1f2"/><path d="m12.3 56.123-.289.291-.289.291-2.889 2.91a6.288 6.288 0 0 1 -1.416-1.4l2.89-2.911.289-.291.289-.291.12.119 1.172 1.159z" fill="#d0d8da"/><path d="m18.615 58.169a6.263 6.263 0 0 1 -1.4 1.415l-2.915-2.884-.291-.289-.291-.289.119-.12 1.163-1.179.12-.121.291.289.291.289z" fill="#e9f1f2"/><path d="m12.282 51.883-1.4 1.415-3.497-3.467a6.242 6.242 0 0 1 1.4-1.415l3.2 3.178z" fill="#e9f1f2"/><path d="m18.615 58.169a6.263 6.263 0 0 1 -1.4 1.415l-2.915-2.884-.291-.289-.291-.289.119-.12.837-.843a6.627 6.627 0 0 0 1.492.584z" fill="#d0d8da"/><path d="m11.834 52.334v.01l-.957.954-3.492-3.467a6.242 6.242 0 0 1 1.4-1.415l2.449 2.43a6.594 6.594 0 0 0 .6 1.488z" fill="#d0d8da"/><path d="m16 53.989a3 3 0 1 1 -3.011-2.989 3 3 0 0 1 3.011 2.989z" fill="#d0d8da"/><path d="m15.566 55.551a3 3 0 1 1 -4.135-4.105 6.934 6.934 0 0 0 4.135 4.105z" fill="#b8bebf"/><path d="m59 28h-54l-2 4h58z" fill="#e9f1f2"/><path d="m61 32h-58l2-4h3.23a2.008 2.008 0 0 0 2.01 2h49.76z" fill="#d0d8da"/><path d="m9.243 12.071-4.243-5.657 1.414-1.414 5.657 4.243z" fill="#d0d8da"/><path d="m12.07 9.24-2.83 2.83-4.24-5.66 1.41-1.41.49.36a2.254 2.254 0 0 1 .1.64 1.909 1.909 0 0 1 -.19.83l.03.04a3.46 3.46 0 0 0 3.74 1.25z" fill="#b8bebf"/><path d="m20 28h-6l1-13 3-2z" fill="#d0d8da"/><path d="m20 28h-6l1-13 3-2 .53 4.01a8.751 8.751 0 0 1 -1.51 2.01 7.067 7.067 0 0 1 -.77.68v.07a3 3 0 0 0 2.99 3.23h.09z" fill="#b8bebf"/><path d="m17.021 4.293a9 9 0 0 1 -12.728 12.728z" fill="#ade8f4"/><circle cx="5" cy="5" fill="#ff7373" r="2"/><path d="m19 24h-4a4 4 0 0 0 -4 4h12a4 4 0 0 0 -4-4z" fill="#ff7373"/><path d="m19.66 10.78a9.006 9.006 0 0 1 -15.37 6.24l2.68-2.68a9.014 9.014 0 0 0 12.69-3.56z" fill="#48cae4"/><path d="m23 28h-12a3.985 3.985 0 0 1 2.33-3.63 2.991 2.991 0 0 0 2.67 1.63h6.46a3.989 3.989 0 0 1 .54 2z" fill="#ef5350"/><path d="m7 5a2 2 0 1 1 -2.98-1.74 2.005 2.005 0 0 0 1.98 1.74 1.914 1.914 0 0 0 .98-.26 2.112 2.112 0 0 1 .02.26z" fill="#ef5350"/><path d="m59 14h-5l-5 14h10z" fill="#ff7373"/><path d="m25 3h16v12h-16z" fill="#e9f1f2"/><path d="m41 12v3h-16v-12h2v1a8 8 0 0 0 8 8z" fill="#d0d8da"/><path d="m30 24h6v4h-6z" fill="#ff7373"/><path d="m31 15h4v9h-4z" fill="#d0d8da"/><circle cx="35" cy="9" fill="#ade8f4" r="2"/><path d="m33 16v4a2.006 2.006 0 0 0 2 2v2h-4v-9h4v1z" fill="#b8bebf"/><path d="m36 26v2h-6v-4h1a2.006 2.006 0 0 0 2 2z" fill="#ef5350"/><path d="m36.414 10.414a2 2 0 0 1 -2.828-2.828z" fill="#48cae4"/><path d="m61 32h-58l1.333 4h55.334z" fill="#ade8f4"/><path d="m9.996 36-.006-.01-.99-1.99h51.33l.67-2h-58l1.333 4z" fill="#48cae4"/><path d="m59 26v2h-10l5-14h2.29l-2.86 7.99a3 3 0 0 0 2.83 4.01z" fill="#ef5350"/></g></g></svg>