<svg height="512" viewBox="0 0 64 64" width="512" xmlns="http://www.w3.org/2000/svg"><g id="Flat"><g id="Color_copy" data-name="Color copy"><path d="m15 30h34v19h-34z" fill="#d0d8da"/><path d="m25 34v2a10 10 0 0 0 10 10h14v3h-34v-19h34v2h-22a2.006 2.006 0 0 0 -2 2z" fill="#b8bebf"/><path d="m56.172 55.172-1.344-1.344a2.828 2.828 0 0 0 -2-.828h-41.656a2.828 2.828 0 0 0 -2 .828l-1.344 1.344a2.828 2.828 0 0 1 -2 .828 2.828 2.828 0 0 0 -2.828 2.828v2.172h58v-2.172a2.828 2.828 0 0 0 -2.828-2.828 2.828 2.828 0 0 1 -2-.828z" fill="#f9dbaf"/><path d="m14.5 49h35a2 2 0 0 1 2 2v2a0 0 0 0 1 0 0h-39a0 0 0 0 1 0 0v-2a2 2 0 0 1 2-2z" fill="#e9f1f2"/><path d="m49 30h-34l-2-4h38z" fill="#e9f1f2"/><path d="m27 39h5v10h-5z" fill="#ade8f4"/><path d="m32 39h5v10h-5z" fill="#ade8f4"/><path d="m41 44h4v5h-4z" fill="#ade8f4"/><path d="m19 44h4v5h-4z" fill="#48cae4"/><path d="m41 36h4v4h-4z" fill="#ade8f4"/><path d="m19 36h4v4h-4z" fill="#48cae4"/><path d="m32 5a19 19 0 0 0 -19 19v2h38v-2a19 19 0 0 0 -19-19z" fill="#48cae4"/><path d="m51 24v2h-38v-2a18.987 18.987 0 0 1 9.73-16.58 20.722 20.722 0 0 0 1.14 3.21 6.93 6.93 0 0 1 3.13-2.95v-2.01a18.992 18.992 0 0 1 10 0v2.01a6.993 6.993 0 0 1 0 12.64v1.8a20.83 20.83 0 0 0 6 .88 20.993 20.993 0 0 0 7.83-1.51 18.894 18.894 0 0 1 .17 2.51z" fill="#00b4d8"/><path d="m31 3h2a2 2 0 0 1 2 2v21a0 0 0 0 1 0 0h-6a0 0 0 0 1 0 0v-21a2 2 0 0 1 2-2z" fill="#d0d8da"/><path d="m31.781 21.954a6.928 6.928 0 0 0 3.219-1.227v-13.457a6.941 6.941 0 0 0 -2.255-1.05 2.269 2.269 0 0 1 -1.745-2.179v-1.041a2 2 0 0 0 -2 2v21h6v-1.356a6.018 6.018 0 0 1 -3.219-2.69z" fill="#b8bebf"/><circle cx="32" cy="14" fill="#e9f1f2" r="7"/><path d="m13 24v2h8v-17.473a18.96 18.96 0 0 0 -8 15.473z" fill="#48cae4"/><path d="m51 24a18.96 18.96 0 0 0 -8-15.473v17.473h8z" fill="#ade8f4"/><path d="m38.53 16.53a7 7 0 1 1 -9.06-9.06 7.007 7.007 0 0 0 9.06 9.06z" fill="#d0d8da"/><circle cx="32" cy="14" fill="#ade8f4" r="3"/><path d="m32 11a3 3 0 1 0 3 3 3 3 0 0 0 -3-3zm1.56 5.55a7.007 7.007 0 0 1 -4.11-4.11 2.989 2.989 0 0 1 4.11 4.11z" fill="#48cae4"/><path d="m50 28-1 2h-34l-2-4h3.49a7.207 7.207 0 0 0 4.98 2z" fill="#d0d8da"/><path d="m45 40h-4v-4z" fill="#48cae4"/><path d="m23 40h-4v-4z" fill="#00b4d8"/><path d="m45 46-4-2v5h4z" fill="#48cae4"/><path d="m23 46-4-2v5h4z" fill="#00b4d8"/><path d="m41 46h4v3h-4z" fill="#00b4d8"/><path d="m37 44-5-5v10h5z" fill="#48cae4"/><path d="m32 44-5-5v10h5z" fill="#48cae4"/><path d="m37 46v3h-5v-3.46a9.908 9.908 0 0 0 3 .46z" fill="#00b4d8"/><path d="m32 45.54v3.46h-5v-7.01a9.948 9.948 0 0 0 5 3.55z" fill="#00b4d8"/><path d="m51.5 51v2h-39v-2a2.006 2.006 0 0 1 2-2h.5a2.015 2.015 0 0 0 2 2z" fill="#d0d8da"/><path d="m61 58.83v2.17h-58v-2.17a2.834 2.834 0 0 1 2.83-2.83 2.831 2.831 0 0 0 2-.83l1.34-1.34a2.831 2.831 0 0 1 2-.83h.83a3 3 0 0 0 3 3h43.17a2.834 2.834 0 0 1 2.83 2.83z" fill="#edb88e"/><path d="m43 23v3h8v-2a19.105 19.105 0 0 0 -.171-2.524 20.921 20.921 0 0 1 -7.829 1.524z" fill="#48cae4"/><path d="m37 34h-10a1 1 0 0 0 0 2h10a1 1 0 0 0 0-2z" fill="#ade8f4"/><path d="m37 48a1 1 0 0 0 -1 1h-8a1 1 0 0 0 -2 0v11a1 1 0 0 0 2 0v-1h8v1a1 1 0 0 0 2 0v-11a1 1 0 0 0 -1-1zm-1 3v2h-8v-2zm-8 6v-2h8v2z" fill="#ade8f4"/><path d="m23 56h-5a1 1 0 0 0 0 2h5a1 1 0 0 0 0-2z" fill="#da9367"/><path d="m49 56h-5a1 1 0 0 0 0 2h5a1 1 0 0 0 0-2z" fill="#da9367"/><path d="m14 56h-3a1 1 0 0 0 0 2h3a1 1 0 0 0 0-2z" fill="#da9367"/><g fill="#fffa48"><circle cx="54" cy="16" r="1"/><circle cx="59" cy="21" r="1"/><circle cx="48" cy="6" r="1"/><circle cx="16" cy="6" r="1"/><circle cx="9" cy="18" r="1"/><circle cx="5" cy="5" r="1"/><path d="m57 7h-1v-1a1 1 0 0 0 -2 0v1h-1a1 1 0 0 0 0 2h1v1a1 1 0 0 0 2 0v-1h1a1 1 0 0 0 0-2z"/><path d="m9 11v1a1 1 0 0 0 2 0v-1h1a1 1 0 0 0 0-2h-1v-1a1 1 0 0 0 -2 0v1h-1a1 1 0 0 0 0 2z"/></g></g></g></svg>