<svg height="512" viewBox="0 0 64 64" width="512" xmlns="http://www.w3.org/2000/svg"><g id="Flat"><g id="Color_copy" data-name="Color copy"><path d="m52.194 19.48a9 9 0 1 1 -3.294-12.294 9 9 0 0 1 3.294 12.294z" fill="#f9dbaf"/><path d="m53.01 17.59a9 9 0 1 1 -11.22-11.22 9 9 0 0 0 11.22 11.22z" fill="#edb88e"/><path d="m52.18 10.465a8.965 8.965 0 0 1 1.1 5.935c2.466 2.209 3.606 3.975 3.7 4.689-.634.257-2.529.18-5.4-.692a40.74 40.74 0 0 1 -8.18-3.685 40.761 40.761 0 0 1 -7.284-5.245c-2.189-2.048-3.2-3.651-3.3-4.328.666-.274 2.765-.17 5.911.861a8.965 8.965 0 0 1 5.69-2.015c-5.753-2.675-12.9-4.69-15.109-.871-1.905 3.3 1.8 7.607 6.178 11.06a49.971 49.971 0 0 0 5.911 4 50.034 50.034 0 0 0 6.421 3.118c5.18 2.067 10.762 3.119 12.667-.18 2.208-3.812-3.112-9.002-8.305-12.647z" fill="#ade8f4"/><circle cx="44.5" cy="9.5" fill="#edb88e" r="2.5"/><path d="m48.82 21.29a49.386 49.386 0 0 1 -6.42-3.11 49.93 49.93 0 0 1 -5.91-4.01c-3.84-3.03-7.16-6.71-6.63-9.8a4.185 4.185 0 0 0 -.55.74c-1.9 3.3 1.8 7.61 6.18 11.06a49.93 49.93 0 0 0 5.91 4.01 49.386 49.386 0 0 0 6.42 3.11c5.18 2.07 10.76 3.12 12.67-.18a3.819 3.819 0 0 0 .45-1.26c-2.29 2.38-7.37 1.34-12.12-.56z" fill="#48cae4"/><path d="m47 9.5a2.485 2.485 0 0 1 -1.3 2.19 2.5 2.5 0 0 0 -3.39-3.39 2.5 2.5 0 0 1 4.69 1.2z" fill="#da9367"/><circle cx="49" cy="15" fill="#da9367" r="1"/><circle cx="20.5" cy="43.5" fill="#fffa48" r="17.5"/><path d="m35.87 51.87a17.5 17.5 0 1 1 -23.74-23.74 17.5 17.5 0 0 0 23.74 23.74z" fill="#fcea42"/><path d="m37.64 40h-11.81a6.835 6.835 0 0 1 -4.83-2 6.835 6.835 0 0 0 -4.83-2h-11.48a17.3 17.3 0 0 1 2.63-4h10.85a6.835 6.835 0 0 1 4.83 2 6.835 6.835 0 0 0 4.83 2h8.48a16.79 16.79 0 0 1 1.33 4z" fill="#fdc741"/><path d="m35.8 52a17.381 17.381 0 0 1 -3.07 4h-10.9a6.835 6.835 0 0 1 -4.83-2 6.835 6.835 0 0 0 -4.83-2h-6.97a17.446 17.446 0 0 1 -1.61-4h10.58a6.835 6.835 0 0 1 4.83 2 6.835 6.835 0 0 0 4.83 2z" fill="#fdc741"/><path d="m37.99 44a17.015 17.015 0 0 1 -.58 4h-9.41a2.006 2.006 0 0 1 -2-2 2.015 2.015 0 0 1 2-2z" fill="#fdc741"/><path d="m10.59 32a17.015 17.015 0 0 0 -.58 4h-5.32a17.3 17.3 0 0 1 2.63-4z" fill="#efad1b"/><path d="m35.8 52a17.381 17.381 0 0 1 -3.07 4h-10.9a6.835 6.835 0 0 1 -4.83-2 6.835 6.835 0 0 0 -4.83-2h-6.97a17.446 17.446 0 0 1 -1.61-4h10.58a.86.86 0 0 1 .16.01 17.477 17.477 0 0 0 21.29 3.99z" fill="#efad1b"/><path d="m11 44a1 1 0 0 1 -1 1h-6.93a14.782 14.782 0 0 1 -.07-1.5c0-.17 0-.33.01-.5h6.99a1 1 0 0 1 1 1z" fill="#efad1b"/><path d="m16 40a1 1 0 0 1 -1 1h-11.82a16.478 16.478 0 0 1 .41-2h11.41a1 1 0 0 1 1 1z" fill="#fdc741"/><path d="m18 45h-3a1 1 0 0 1 0-2h3a1 1 0 0 1 0 2z" fill="#fdc741"/><path d="m32.73 31h-5.73a1 1 0 0 1 0-2h3.29a17.309 17.309 0 0 1 2.44 2z" fill="#fdc741"/><path d="m15 57a1 1 0 0 1 -1 1h-3.29a17.309 17.309 0 0 1 -2.44-2h5.73a1 1 0 0 1 1 1z" fill="#efad1b"/><path d="m10.59 41h-7.41a16.478 16.478 0 0 1 .41-2h6.59a16.478 16.478 0 0 0 .41 2z" fill="#efad1b"/><circle cx="13" cy="13" fill="#ade8f4" r="10"/><path d="m22.95 14.03a10 10 0 1 1 -15.9-9.06c-.03.34-.05.68-.05 1.03a10 10 0 0 0 10 10 9.906 9.906 0 0 0 5.95-1.97z" fill="#48cae4"/><path d="m12 15h-3l1 3-2.73 3.19a9.988 9.988 0 0 1 .59-16.76l3.14 1.57-1 3 3 1z" fill="#95d5b2"/><path d="m23 13a9.953 9.953 0 0 1 -3.8 7.84l-5.2-2.84 4-3 1-4-3-4 2.41-2.41a9.992 9.992 0 0 1 4.59 8.41z" fill="#95d5b2"/><path d="m12 15h-3l1 3-2.73 3.19a9.988 9.988 0 0 1 -.22-16.22c-.03.34-.05.68-.05 1.03a10 10 0 0 0 5.06 8.69z" fill="#52b788"/><path d="m22.94 14.04a9.934 9.934 0 0 1 -3.74 6.8l-5.2-2.84 2.68-2.01c.1.01.21.01.32.01a9.956 9.956 0 0 0 5.94-1.96z" fill="#52b788"/><circle cx="52" cy="49" fill="#fcf2ad" r="9"/><g fill="#f9dbaf"><path d="m59.57 53.86a9 9 0 1 1 -9.14-13.72 8.884 8.884 0 0 0 -1.43 4.86 8.99 8.99 0 0 0 10.57 8.86z"/><circle cx="50" cy="43" r="2"/><circle cx="55" cy="50" r="2"/></g><path d="m49 54a3 3 0 0 1 -1.67 2.69 8.935 8.935 0 0 1 -3.73-4.48 2.95 2.95 0 0 1 2.4-1.21 3 3 0 0 1 3 3z" fill="#edb88e"/><path d="m52 43a2 2 0 0 1 -1.18 1.82 2.046 2.046 0 0 0 .18-.82 2.007 2.007 0 0 0 -1.49-1.93 8.719 8.719 0 0 0 -.5 2.67 2 2 0 1 1 2.99-1.74z" fill="#edb88e"/><path d="m57 50a2 2 0 0 1 -1.18 1.82 1.891 1.891 0 0 0 .18-.82 2.006 2.006 0 0 0 -2-2 1.891 1.891 0 0 0 -.82.18 2 2 0 0 1 3.82.82z" fill="#edb88e"/><path d="m49 54a2.957 2.957 0 0 1 -1.44 2.55 2.92 2.92 0 0 0 .44-1.55 3 3 0 0 0 -3-3 2.891 2.891 0 0 0 -1.35.32.536.536 0 0 1 -.05-.11 2.95 2.95 0 0 1 2.4-1.21 3 3 0 0 1 3 3z" fill="#da9367"/><circle cx="53" cy="56" fill="#edb88e" r="1"/><circle cx="56" cy="45" fill="#f9dbaf" r="1"/><circle cx="51" cy="48" fill="#f9dbaf" r="1"/><circle cx="45" cy="47" fill="#edb88e" r="1"/></g></g></svg>