<svg height="512" viewBox="0 0 64 64" width="512" xmlns="http://www.w3.org/2000/svg"><g id="Flat"><g id="Color_copy" data-name="Color copy"><g fill="#b8bebf"><path d="m38.52 46.331-8.155-17.331h-4.73l-8.156 17.331-1.81-.852 8.426-17.9a1 1 0 0 1 .905-.579h6a1 1 0 0 1 .905.574l8.426 17.9z"/><path d="m38 45a1.023 1.023 0 0 1 -.333-.057l-17-6a1 1 0 1 1 .666-1.886l17 6a1 1 0 0 1 -.333 1.943z"/><path d="m18 46a1 1 0 0 1 -.381-1.925l17-7a1 1 0 1 1 .762 1.85l-17 7a1.006 1.006 0 0 1 -.381.075z"/><path d="m21 39a1 1 0 0 1 -.385-1.923l12-5a1 1 0 0 1 .77 1.846l-12 5a.987.987 0 0 1 -.385.077z"/><path d="m35 39a.987.987 0 0 1 -.385-.077l-12-5a1 1 0 0 1 .77-1.846l12 5a1 1 0 0 1 -.385 1.923z"/><path d="m38.435 22.273-1.669-1.1 5.609-8.495-10.162.61-.12-2 12.159-.729a1 1 0 0 1 .894 1.548z"/><path d="m34.048 13.307h11.001v2h-11.001z" transform="matrix(.866 -.5 .5 .866 -1.856 21.688)"/></g><path d="m55 10.929a1 1 0 0 1 -.982-.82 10.149 10.149 0 0 0 -2.884-5.393 1 1 0 0 1 1.394-1.434 12.16 12.16 0 0 1 3.456 6.467 1 1 0 0 1 -.8 1.163.932.932 0 0 1 -.184.017z" fill="#48cae4"/><path d="m51.06 11.645a1 1 0 0 1 -.983-.821 6.035 6.035 0 0 0 -1.726-3.224 1 1 0 0 1 1.39-1.438 8.036 8.036 0 0 1 2.3 4.308 1 1 0 0 1 -.8 1.162.911.911 0 0 1 -.181.013z" fill="#48cae4"/><path d="m15 45h26v9h-26z" fill="#ade8f4"/><path d="m41 48v6h-26v-9h3a3 3 0 0 0 3 3z" fill="#48cae4"/><path d="m31.284 50.074a2.342 2.342 0 0 1 2.008-1.054 41.215 41.215 0 0 1 8.668 1.19 2.715 2.715 0 0 1 1.575 1.09 3.153 3.153 0 0 0 1.135 1.03l.936.473a2.779 2.779 0 0 1 .714.517l1.36 1.36a2.788 2.788 0 0 0 .721.521l2.829 1.419a2.724 2.724 0 0 0 1.6.263l1.742-.243a2.8 2.8 0 0 1 2.02.51 39.483 39.483 0 0 1 4.408 3.85h-58a40.409 40.409 0 0 1 13.9-9.152 2.325 2.325 0 0 1 2.486.541l.247.247a2.353 2.353 0 0 0 2.969.294l.259-.173a2.352 2.352 0 0 1 2.357-.146 2.356 2.356 0 0 0 1.623.178l2.273-.568a2.356 2.356 0 0 0 1.388-.978z" fill="#edb88e"/><path d="m27.808 55.548 1.309-.327a2.351 2.351 0 0 0 1.387-.978l.78-1.169a2.342 2.342 0 0 1 2.008-1.054 41.215 41.215 0 0 1 8.668 1.19 2.715 2.715 0 0 1 1.575 1.09 3.153 3.153 0 0 0 1.135 1.03l.936.473a2.779 2.779 0 0 1 .714.517l1.36 1.36a2.788 2.788 0 0 0 .721.521l2.829 1.419a2.724 2.724 0 0 0 1.6.263 4.051 4.051 0 0 1 3.751-.505l4.419 1.622h-58a40.409 40.409 0 0 1 13.9-9.152 2.325 2.325 0 0 1 2.486.541l.055.325a2.866 2.866 0 0 0 3.721 2.244 2.868 2.868 0 0 1 2.07.108l.7.316a2.862 2.862 0 0 0 1.876.166z" fill="#da9367"/><path d="m39.188 30.682a14 14 0 1 1 -14-24.249z" fill="#e9f1f2"/><path d="m42.17 31.847a2 2 0 0 1 -2.732-.732l-14.5-25.115a2 2 0 0 1 .732-2.732 2 2 0 0 1 2.73.732l14.5 25.115a2 2 0 0 1 -.73 2.732z" fill="#ade8f4"/><path d="m47.776 9.558a3 3 0 1 1 -4.1-1.1 3 3 0 0 1 4.1 1.1z" fill="#ade8f4"/><path d="m36.34 61h-18.84l.21-.41a4.666 4.666 0 0 1 4.18-2.59 4.762 4.762 0 0 0 2.1-.49l1.27-.64a4.69 4.69 0 0 1 3.58-.26l.44.15a4.68 4.68 0 0 0 1.48.24h.86a4.692 4.692 0 0 1 4.45 3.2z" fill="#f9dbaf"/><path d="m36.34 61h-18.84l.276-.539a4.712 4.712 0 0 1 4.202-2.461 4.726 4.726 0 0 0 .958-.116 1.549 1.549 0 0 1 1.687.8 1.548 1.548 0 0 0 1.686.8 4.69 4.69 0 0 1 2.531.118l.409.14a4.708 4.708 0 0 0 1.511.258h.86c2.02 0 3.81-1.71 4.45.2z" fill="#edb88e"/><path d="m39.19 30.68a13.991 13.991 0 0 1 -19.8-17.78 13.68 13.68 0 0 0 1.67 4.66 14 14 0 0 0 12.59 6.99l-9.9-17.16a12.014 12.014 0 0 1 1.44-.96z" fill="#d0d8da"/><path d="m43.15 29.86a2 2 0 0 1 -3.71 1.26l-14.5-25.12a2 2 0 0 1 .73-2.73c.01 0 .01-.01.02-.01a2.029 2.029 0 0 0 .25.74l14.5 25.12a2 2 0 0 0 2.71.74z" fill="#48cae4"/><path d="m48.16 11.3a3 3 0 1 1 -4.97-2.48 2.935 2.935 0 0 0 .39 1.74 3.014 3.014 0 0 0 4.1 1.1 2.153 2.153 0 0 0 .48-.36z" fill="#48cae4"/></g></g></svg>