<svg height="512" viewBox="0 0 64 64" width="512" xmlns="http://www.w3.org/2000/svg"><g id="Flat"><g id="Color_copy" data-name="Color copy"><path d="m31 24a14.015 14.015 0 0 1 -13.4 13.986c-.2.014-.392.014-.6.014a13.995 13.995 0 0 1 -7.154-26.026 13.788 13.788 0 0 1 7.154-1.974 14 14 0 0 1 14 14z" fill="#ade8f4"/><path d="m31 24a14.023 14.023 0 0 1 -13.4 13.99c-.19.01-.39.01-.6.01a13.812 13.812 0 0 1 -7.57-2.23 13.983 13.983 0 0 1 -3.32-20.56 15.092 15.092 0 0 0 -.11 1.79 13.977 13.977 0 0 0 6.03 11.5 16.968 16.968 0 0 1 12.94-16.01 14.03 14.03 0 0 1 6.03 11.51z" fill="#48cae4"/><path d="m8.6 28.2 4.2 4.2-3.374 3.374a13.992 13.992 0 0 1 .42-23.8l4.354 3.626-4.2 4.2 1.4 4.2z" fill="#95d5b2"/><path d="m24.224 12.016-5.824 2.184-2.758-4.13c.448-.042.9-.07 1.358-.07a13.808 13.808 0 0 1 7.224 2.016z" fill="#95d5b2"/><path d="m12.8 32.4-3.37 3.37a13.983 13.983 0 0 1 -3.32-20.56 15.092 15.092 0 0 0 -.11 1.79 13.93 13.93 0 0 0 3.73 9.5l-1.13 1.7z" fill="#52b788"/><path d="m60.152 56.152a2.894 2.894 0 0 1 -4.165-.074l-17.048-18.311 2.828-2.828 18.311 17.048a2.9 2.9 0 0 1 .074 4.165z" fill="#fcea42"/><path d="m60.15 56.15a2.887 2.887 0 0 1 -4.16-.07l-17.05-18.31 2.83-2.83 4.54 4.22a16.507 16.507 0 0 1 -1.46 1.95l11.14 11.97a2.887 2.887 0 0 0 4.16.07 2.435 2.435 0 0 0 .42-.55 2.872 2.872 0 0 1 -.42 3.55z" fill="#fdc741"/><circle cx="32" cy="28" fill="#fffa48" r="17"/><path d="m47.83 34.2a17 17 0 1 1 -27.66-18.4 16.8 16.8 0 0 0 -1.17 6.2 16.994 16.994 0 0 0 28.83 12.2z" fill="#fcea42"/><circle cx="32" cy="28" fill="#e9f1f2" r="13"/><path d="m36 39a16.733 16.733 0 0 0 3.49-.38 12.994 12.994 0 0 1 -20.17-13.48 16.966 16.966 0 0 0 16.68 13.86z" fill="#d0d8da"/><path d="m45 28a12.929 12.929 0 0 1 -4.87 10.13 12.985 12.985 0 0 0 -18.28-18.24 12.993 12.993 0 0 1 23.15 8.11z" fill="#d0d8da"/><path d="m40 3h4v4h-4z" fill="#ade8f4"/><path d="m44 3h4v4h-4z" fill="#48cae4"/><path d="m48 3h4v4h-4z" fill="#0096c7"/><path d="m25 57h4v4h-4z" fill="#ade8f4"/><path d="m33 54h4v7h-4z" fill="#ade8f4"/><path d="m41 50h4v11h-4z" fill="#ade8f4"/><path d="m41 50h2v11h-2z" fill="#48cae4"/><path d="m33 54h2v7h-2z" fill="#48cae4"/><path d="m25 57h2v4h-2z" fill="#48cae4"/><circle cx="12" cy="52" fill="#fcf2ad" r="9"/><path d="m19.57 56.86a9 9 0 1 1 -9.14-13.72 8.884 8.884 0 0 0 -1.43 4.86 8.99 8.99 0 0 0 10.57 8.86z" fill="#f9dbaf"/><circle cx="10" cy="46" fill="#f9dbaf" r="2"/><circle cx="15" cy="53" fill="#f9dbaf" r="2"/><path d="m9 57a3 3 0 0 1 -1.67 2.69 8.935 8.935 0 0 1 -3.73-4.48 2.95 2.95 0 0 1 2.4-1.21 3 3 0 0 1 3 3z" fill="#edb88e"/><path d="m12 46a2 2 0 0 1 -1.18 1.82 2.046 2.046 0 0 0 .18-.82 2.007 2.007 0 0 0 -1.49-1.93 8.719 8.719 0 0 0 -.5 2.67 2 2 0 1 1 2.99-1.74z" fill="#edb88e"/><path d="m17 53a2 2 0 0 1 -1.18 1.82 1.891 1.891 0 0 0 .18-.82 2.006 2.006 0 0 0 -2-2 1.891 1.891 0 0 0 -.82.18 2 2 0 0 1 3.82.82z" fill="#edb88e"/><path d="m9 57a2.957 2.957 0 0 1 -1.44 2.55 2.92 2.92 0 0 0 .44-1.55 3 3 0 0 0 -3-3 2.891 2.891 0 0 0 -1.35.32.536.536 0 0 1 -.05-.11 2.95 2.95 0 0 1 2.4-1.21 3 3 0 0 1 3 3z" fill="#da9367"/><circle cx="13" cy="59" fill="#edb88e" r="1"/><circle cx="16" cy="48" fill="#edb88e" r="1"/><circle cx="11" cy="51" fill="#edb88e" r="1"/><circle cx="5" cy="50" fill="#edb88e" r="1"/><path d="m39 28a10.011 10.011 0 0 1 -9.57 9.99c-.14.01-.28.01-.43.01a10 10 0 1 1 10-10z" fill="#ade8f4"/><path d="m38.76 30.16a10.025 10.025 0 0 1 -9.33 7.83c-.14.01-.28.01-.43.01a10 10 0 0 1 -5.76-18.17 9.752 9.752 0 0 0 -.24 2.17 10 10 0 0 0 10 10c.15 0 .29 0 .43-.01a9.869 9.869 0 0 0 5.33-1.83z" fill="#48cae4"/><path d="m39 28a10.011 10.011 0 0 1 -9.57 9.99l.57-3.99-2-3 2-1-1-3 5-1-1-3h4.66a9.966 9.966 0 0 1 1.34 5z" fill="#95d5b2"/><path d="m23 31 3 3-2.41 2.41a9.995 9.995 0 0 1 .3-17l3.11 2.59-3 3 1 3z" fill="#95d5b2"/><path d="m34.16 19.44-4.16 1.56-1.97-2.95c.32-.03.64-.05.97-.05a9.863 9.863 0 0 1 5.16 1.44z" fill="#95d5b2"/><path d="m38.76 30.16a10.025 10.025 0 0 1 -9.33 7.83l.57-3.99-2-3 .33-.16a9.909 9.909 0 0 0 4.67 1.16c.15 0 .29 0 .43-.01a9.869 9.869 0 0 0 5.33-1.83z" fill="#52b788"/><path d="m26 34-2.41 2.41a10 10 0 0 1 -.35-16.58 9.752 9.752 0 0 0 -.24 2.17 9.926 9.926 0 0 0 2 6l-2 3z" fill="#52b788"/><path d="m30.08 37.94c-.22.02-.43.04-.65.05-.14.01-.28.01-.43.01a10 10 0 0 1 -10-10 10.109 10.109 0 0 1 .34-2.59 17.027 17.027 0 0 0 10.74 12.53z" fill="#00b4d8"/><path d="m30.09 37.94c-.22.02-.44.04-.66.05l.04-.3a4.726 4.726 0 0 0 .62.25z" fill="#40916c"/><path d="m25.03 34.97-1.44 1.44a10.028 10.028 0 0 1 -4.57-7.74c-.01-.22-.02-.45-.02-.67 0-.25.01-.49.02-.73a10.5 10.5 0 0 1 .34-1.94 16.93 16.93 0 0 0 5.67 9.64z" fill="#40916c"/><g fill="#48cae4"><path d="m36 30a1 1 0 0 1 -.731-1.682l14-15a1 1 0 0 1 .731-.318h5a1 1 0 0 1 0 2h-4.565l-13.7 14.682a.993.993 0 0 1 -.735.318z"/><path d="m60 23h-4a1 1 0 0 1 0-2h4a1 1 0 0 1 0 2z"/><path d="m60 27h-3a1 1 0 0 1 0-2h3a1 1 0 0 1 0 2z"/><path d="m60 31h-2a1 1 0 0 1 0-2h2a1 1 0 0 1 0 2z"/></g><path d="m55 12h6v6h-6z" fill="#95d5b2"/><path d="m55 12h3v6h-3z" fill="#52b788"/></g></g></svg>