<svg height="512" viewBox="0 0 64 64" width="512" xmlns="http://www.w3.org/2000/svg"><g id="Flat"><g id="Color_copy" data-name="Color copy"><path d="m59 20h-8a1 1 0 0 1 -1-1v-4a1 1 0 0 1 1-1h2a1 1 0 0 1 0 2h-1v2h6v-2h-1a1 1 0 0 1 0-2h2a1 1 0 0 1 1 1v4a1 1 0 0 1 -1 1z" fill="#d0d8da"/><path d="m13 20h-8a1 1 0 0 1 -1-1v-4a1 1 0 0 1 1-1h2a1 1 0 0 1 0 2h-1v2h6v-2h-1a1 1 0 0 1 0-2h2a1 1 0 0 1 1 1v4a1 1 0 0 1 -1 1z" fill="#d0d8da"/><path d="m20 26a1 1 0 0 1 -1-1v-15a1 1 0 0 1 2 0v15a1 1 0 0 1 -1 1z" fill="#b8bebf"/><path d="m44 26a1 1 0 0 1 -1-1v-15a1 1 0 0 1 2 0v15a1 1 0 0 1 -1 1z" fill="#b8bebf"/><path d="m20 45h24v4h-24z" fill="#d0d8da"/><path d="m44 45v2h-6a2.006 2.006 0 0 0 -2 2h-16v-4z" fill="#b8bebf"/><path d="m48 49h-32a6 6 0 0 0 -6 6 6 6 0 0 0 6 6h32a6 6 0 0 0 6-6 6 6 0 0 0 -6-6z" fill="#f9dbaf"/><path d="m54 55a6 6 0 0 1 -6 6h-32a6.009 6.009 0 0 1 -6-6 6 6 0 0 1 6-6 2.015 2.015 0 0 0 2 2h30a4.012 4.012 0 0 1 3.7 2.47 2.475 2.475 0 0 0 2.3 1.53z" fill="#edb88e"/><path d="m21 23h22a3 3 0 0 1 3 3v19a0 0 0 0 1 0 0h-28a0 0 0 0 1 0 0v-19a3 3 0 0 1 3-3z" fill="#e9f1f2"/><path d="m46 38v7h-28v-19a3 3 0 0 1 3-3h4a15.005 15.005 0 0 0 15 15z" fill="#d0d8da"/><path d="m48 57h-32a2 2 0 0 1 -2-2 2 2 0 0 1 2-2h32a2 2 0 0 1 2 2 2 2 0 0 1 -2 2z" fill="#da9367"/><circle cx="40" cy="55" fill="#e9f1f2" r="2"/><circle cx="32" cy="55" fill="#e9f1f2" r="2"/><circle cx="48" cy="55" fill="#e9f1f2" r="2"/><circle cx="16" cy="55" fill="#e9f1f2" r="2"/><circle cx="24" cy="55" fill="#e9f1f2" r="2"/><g fill="#ade8f4"><path d="m36 3h4v4h-4z"/><path d="m36 7h4v4h-4z"/><path d="m40 3h4v4h-4z"/><path d="m40 7h4v4h-4z"/><path d="m44 3h4v4h-4z"/><path d="m44 7h4v4h-4z"/><path d="m48 3h4v4h-4z"/><path d="m48 7h4v4h-4z"/></g><path d="m52 7h-4v-4z" fill="#48cae4"/><path d="m52 11h-4v-4z" fill="#48cae4"/><path d="m48 7h-4v-4z" fill="#48cae4"/><path d="m48 11h-4v-4z" fill="#48cae4"/><path d="m44 7h-4v-4z" fill="#48cae4"/><path d="m44 11h-4v-4z" fill="#48cae4"/><path d="m40 7h-4v-4z" fill="#48cae4"/><path d="m40 11h-4v-4z" fill="#48cae4"/><path d="m12 3h4v4h-4z" fill="#ade8f4"/><path d="m12 7h4v4h-4z" fill="#ade8f4"/><path d="m16 3h4v4h-4z" fill="#ade8f4"/><path d="m16 7h4v4h-4z" fill="#ade8f4"/><path d="m20 3h4v4h-4z" fill="#ade8f4"/><path d="m20 7h4v4h-4z" fill="#ade8f4"/><path d="m24 3h4v4h-4z" fill="#ade8f4"/><path d="m24 7h4v4h-4z" fill="#ade8f4"/><path d="m28 7h-4v-4z" fill="#48cae4"/><path d="m28 11h-4v-4z" fill="#48cae4"/><path d="m24 7h-4v-4z" fill="#48cae4"/><path d="m24 11h-4v-4z" fill="#48cae4"/><path d="m20 7h-4v-4z" fill="#48cae4"/><path d="m20 11h-4v-4z" fill="#48cae4"/><path d="m16 7h-4v-4z" fill="#48cae4"/><path d="m16 11h-4v-4z" fill="#48cae4"/><path d="m28 15h8a3 3 0 0 1 3 3v5a0 0 0 0 1 0 0h-14a0 0 0 0 1 0 0v-5a3 3 0 0 1 3-3z" fill="#e9f1f2"/><path d="m16 43h18v6h-18z" fill="#48cae4"/><path d="m34 46v3h-18v-6h2a3 3 0 0 0 3 3z" fill="#00b4d8"/><path d="m24.646 36.147a1 1 0 0 1 -.707-.294l-2.121-2.121a1 1 0 1 1 1.414-1.414l2.121 2.122a1 1 0 0 1 -.707 1.707z" fill="#48cae4"/><path d="m28 37h-2l-1 6h4z" fill="#48cae4"/><path d="m28.66 40.97a2.01 2.01 0 0 1 -1.628-1.614 3.864 3.864 0 0 0 .443-.381 3.944 3.944 0 0 0 .692-.97l-.167-1.005h-2l-1 6h4z" fill="#00b4d8"/><path d="m27.475 32.318a4 4 0 1 1 -5.657 5.657z" fill="#ade8f4"/><path d="m27.47 37.97a3.978 3.978 0 0 1 -5.65 0l1.18-1.18a3.969 3.969 0 0 0 4.47-.82 3.876 3.876 0 0 0 1.05-1.82 3.986 3.986 0 0 1 -1.05 3.82z" fill="#48cae4"/><path d="m33 27h13v4h-13z" fill="#ade8f4"/><path d="m46 31h10v4h-10z" fill="#d0d8da"/><path d="m56 31v4h-10v-4h2a2.006 2.006 0 0 0 2 2h1a2.965 2.965 0 0 1 .77-2z" fill="#b8bebf"/><path d="m50 26h10v4h-10z" fill="#d0d8da" transform="matrix(0 1 -1 0 83 -27)"/><path d="m55 25v2a2.006 2.006 0 0 0 2 2v4h-4v-10h4v2z" fill="#b8bebf"/><circle cx="55" cy="33" fill="#ade8f4" r="3"/><path d="m51 20h8v4h-8z" fill="#ade8f4"/><path d="m59 22v2h-8v-4h2a2.006 2.006 0 0 0 2 2z" fill="#48cae4"/><path d="m57.87 33.87a3 3 0 1 1 -3.74-3.74 3.1 3.1 0 0 0 -.13.87 3 3 0 0 0 3 3 3.1 3.1 0 0 0 .87-.13z" fill="#48cae4"/><path d="m8 31h10v4h-10z" fill="#d0d8da" transform="matrix(-1 0 0 -1 26 66)"/><path d="m8 31v4h10v-4h-2a2.006 2.006 0 0 1 -2 2h-1a2.965 2.965 0 0 0 -.77-2z" fill="#b8bebf"/><path d="m4 26h10v4h-10z" fill="#d0d8da" transform="matrix(0 1 -1 0 37 19)"/><path d="m9 25v2a2.006 2.006 0 0 0 2 2v4h-4v-10h4v2z" fill="#b8bebf"/><circle cx="9" cy="33" fill="#ade8f4" r="3"/><path d="m5 20h8v4h-8z" fill="#ade8f4" transform="matrix(-1 0 0 -1 18 44)"/><path d="m13 22v2h-8v-4h2a2.006 2.006 0 0 0 2 2z" fill="#48cae4"/><path d="m8.13 30.13a3 3 0 1 0 3.74 3.74 3.1 3.1 0 0 1 -.87.13 3 3 0 0 1 -3-3 3.1 3.1 0 0 1 .13-.87z" fill="#48cae4"/><path d="m39 19v4h-14v-5a2.977 2.977 0 0 1 2.01-2.82 3.983 3.983 0 0 0 3.99 3.82z" fill="#d0d8da"/><path d="m46 31h-13v-4h7z" fill="#48cae4"/><circle cx="48" cy="55" fill="#d0d8da" r="1"/><circle cx="40" cy="55" fill="#d0d8da" r="1"/><circle cx="32" cy="55" fill="#d0d8da" r="1"/><circle cx="24" cy="55" fill="#d0d8da" r="1"/><circle cx="16" cy="55" fill="#d0d8da" r="1"/><path d="m35 20h-1a1 1 0 0 1 0-2h1a1 1 0 0 1 0 2z" fill="#ade8f4"/><path d="m30 20h-1a1 1 0 0 1 0-2h1a1 1 0 0 1 0 2z" fill="#ade8f4"/><circle cx="34" cy="35" fill="#ade8f4" r="1"/><circle cx="38" cy="35" fill="#ade8f4" r="1"/><circle cx="42" cy="35" fill="#ade8f4" r="1"/><path d="m46 41h-7a1 1 0 0 1 0-2h7z" fill="#48cae4"/><path d="m18 26h10a1 1 0 0 1 0 2h-10z" fill="#ade8f4"/><path d="m25.86 28h-7.86v-2h7.3a14.773 14.773 0 0 0 .56 2z" fill="#48cae4"/><path d="m36 19a1 1 0 0 1 -1 1h-1a1 1 0 0 1 -1-1z" fill="#48cae4"/><path d="m31 19a1 1 0 0 1 -1 1h-1a1 1 0 0 1 -.49-1.87 4.026 4.026 0 0 0 2.49.87z" fill="#48cae4"/></g></g></svg>