<svg height="512" viewBox="0 0 64 64" width="512" xmlns="http://www.w3.org/2000/svg"><g id="Flat"><g id="Color_copy" data-name="Color copy"><path d="m3 42v19h20l6-15-11-11z" fill="#fffa48"/><path d="m3 61v-14.453l14.153-6.737 7.154 7.153-7.015 14.037z" fill="#fcea42"/><path d="m27.565 48.586a1 1 0 0 0 -1.3.558l-4.194 10.484a1 1 0 0 0 .557 1.3 1.019 1.019 0 0 0 .372.072 1 1 0 0 0 .93-.629l4.194-10.485a1 1 0 0 0 -.559-1.3z" fill="#fdc741"/><path d="m15.6 36.588a1 1 0 0 0 -1.329-.483l-10.694 4.989a1 1 0 1 0 .846 1.812l10.69-4.989a1 1 0 0 0 .487-1.329z" fill="#fdc741"/><path d="m24.954 46.918a1 1 0 0 0 -1.357.4l-4.475 8.2a1 1 0 0 0 1.756.958l4.474-8.2a1 1 0 0 0 -.398-1.358z" fill="#fdc741"/><path d="m7.122 44.479a1 1 0 0 0 1.357.4l8.2-4.475a1 1 0 1 0 -.958-1.755l-8.2 4.474a1 1 0 0 0 -.399 1.356z" fill="#fdc741"/><path d="m22.241 44.181a.987.987 0 0 0 -1.207.12.978.978 0 0 0 -1.334-1.335.987.987 0 0 0 .12-1.207 1 1 0 0 0 -1.381-.3l-11.979 7.7a1 1 0 1 0 1.082 1.682l11.771-7.567-7.019 7.019a1 1 0 1 0 1.414 1.414l7.019-7.019-7.568 11.771a1 1 0 1 0 1.682 1.082l7.7-11.978a1 1 0 0 0 -.3-1.382z" fill="#fdc741"/><path d="m9.293 53.293-4 4a1 1 0 1 0 1.414 1.414l4-4a1 1 0 0 0 -1.414-1.414z" fill="#fdc741"/><path d="m27.837 51.501h16v4h-16z" fill="#ef5350" transform="matrix(.707 .707 -.707 .707 48.328 -9.67)"/><path d="m42.908 57.744-1.061 1.056-7.778-7.778a2.005 2.005 0 0 0 -2.828 0l-.354.354-2.121-2.122 2.828-2.828z" fill="#e53935"/><path d="m42.908 57.744-11.314-11.314 13.435-13.435 3.7 11.108a10 10 0 0 1 -2.416 10.233z" fill="#d0d8da"/><path d="m45.3 42.73a9.473 9.473 0 0 0 -.38 13l-2.01 2.01-11.32-11.31 13.44-13.43 2.5 7.5z" fill="#b8bebf"/><path d="m6.138 20.975 11.314 11.313 13.435-13.435-11.107-3.7a10 10 0 0 0 -10.234 2.413z" fill="#d0d8da"/><path d="m2.381 26.046h16v4h-16z" fill="#ef5350" transform="matrix(-.707 -.707 .707 -.707 -2.11 55.217)"/><path d="m21.148 18.578a9.473 9.473 0 0 1 -13 .38l-2.01 2.01 11.31 11.32 13.43-13.44-7.5-2.5z" fill="#b8bebf"/><path d="m6.139 20.974-1.061 1.061 7.778 7.778a2.005 2.005 0 0 1 0 2.828l-.353.354 2.121 2.121 2.828-2.828z" fill="#e53935"/><path d="m11.402 38.481h22v6h-22z" fill="#ff7373" transform="matrix(.707 .707 -.707 .707 35.892 -3.691)"/><path d="m60.706 3.418-12.9-.407a23 23 0 0 0 -20.357 11.015l-10.7 17.555 15.551 15.556 17.674-10.776a23 23 0 0 0 11.02-20.155z" fill="#e9f1f2"/><path d="m60.99 16.21a22.972 22.972 0 0 1 -11.02 20.15l-17.67 10.78-15.56-15.56 3.09-5.06a26.318 26.318 0 0 0 27.14-.16 22.979 22.979 0 0 0 11.03-19.62c0-.17-.01-.35-.01-.53l-.06-2.88 2.78.09z" fill="#d0d8da"/><path d="m47.858 28.753a9 9 0 1 1 0-12.728 9 9 0 0 1 0 12.728z" fill="#48cae4"/><path d="m42.2 21.682a8.948 8.948 0 0 1 2.448 4.552 4.634 4.634 0 0 0 .38-.31 5 5 0 0 0 -7.071-7.071 4.851 4.851 0 0 0 -.31.38 8.953 8.953 0 0 1 4.553 2.449z" fill="#ade8f4"/><path d="m61 16.067a14.909 14.909 0 0 1 -8.9-4.285 14.93 14.93 0 0 1 -4.278-8.775l12.884.41z" fill="#ff7373"/><path d="m56.52 14.84a22.765 22.765 0 0 0 1.48-8.1c0-.17-.01-.35-.01-.53l-.06-2.88 2.78.09.29 12.65a15.006 15.006 0 0 1 -4.48-1.23z" fill="#ef5350"/><path d="m28.059 51.38 4.241-4.243-15.555-15.556-1.768 1.768 12.023 12.02a3 3 0 0 1 0 4.243l-.353.354z" fill="#ef5350"/><path d="m50.38 23.82a9 9 0 0 1 -13.7 6.17 26.421 26.421 0 0 0 10.29-3.63 23.236 23.236 0 0 0 3.41-2.54z" fill="#00b4d8"/><circle cx="22.402" cy="30.167" fill="#b8bebf" r="1"/><circle cx="44.322" cy="8.247" fill="#d0d8da" r="1"/><circle cx="33.715" cy="41.481" fill="#b8bebf" r="1"/><path d="m56.343 20.267a1 1 0 1 0 -1.414 0 1 1 0 0 0 1.414 0z" fill="#b8bebf"/><circle cx="28.059" cy="35.824" fill="#b8bebf" r="1"/><circle cx="42.201" cy="51.38" fill="#b8bebf" r="1"/><path d="m45.029 47.137a1 1 0 1 0 1.414 0 1 1 0 0 0 -1.414 0z" fill="#93999a"/><circle cx="12.502" cy="21.682" fill="#b8bebf" r="1"/><path d="m16.745 17.439a1 1 0 1 0 0 1.414 1 1 0 0 0 0-1.414z" fill="#93999a"/><g fill="#fffa48"><path d="m58 40h-1v-1a1 1 0 0 0 -2 0v1h-1a1 1 0 0 0 0 2h1v1a1 1 0 0 0 2 0v-1h1a1 1 0 0 0 0-2z"/><path d="m16 8h1v1a1 1 0 0 0 2 0v-1h1a1 1 0 0 0 0-2h-1v-1a1 1 0 0 0 -2 0v1h-1a1 1 0 0 0 0 2z"/><path d="m57 55h-1v-1a1 1 0 0 0 -2 0v1h-1a1 1 0 0 0 0 2h1v1a1 1 0 0 0 2 0v-1h1a1 1 0 0 0 0-2z"/><circle cx="59" cy="34" r="1"/><circle cx="60" cy="48" r="1"/><path d="m8.707 11.707a1 1 0 1 0 -1.414 0 1 1 0 0 0 1.414 0z"/><circle cx="24" cy="12" r="1"/></g><path d="m42.91 52.09a1 1 0 1 1 -.33-1.64 7.821 7.821 0 0 0 .33 1.64z" fill="#656b76"/><path d="m13.21 22.39a1 1 0 0 1 -1.41-1.42 7.517 7.517 0 0 0 1.62.33.974.974 0 0 1 -.21 1.09z" fill="#656b76"/></g></g></svg>