<svg height="512" viewBox="0 0 64 64" width="512" xmlns="http://www.w3.org/2000/svg"><g id="Flat"><g id="Color_copy" data-name="Color copy"><path d="m51.429 47.893h5v5h-5z" fill="#ade8f4" transform="matrix(-.707 -.707 .707 -.707 56.43 124.16)"/><path d="m47.893 51.429h5v5h-5z" fill="#ade8f4" transform="matrix(-.707 -.707 .707 -.707 47.893 127.696)"/><path d="m54.964 51.429h5v5h-5z" fill="#ade8f4" transform="matrix(-.707 -.707 .707 -.707 59.965 132.696)"/><path d="m51.429 54.964h5v5h-5z" fill="#ade8f4" transform="matrix(-.707 -.707 .707 -.707 51.429 136.231)"/><path d="m41.529 37.994h5v5h-5z" fill="#ade8f4" transform="matrix(-.707 -.707 .707 -.707 46.53 100.261)"/><path d="m37.994 41.529h5v5h-5z" fill="#ade8f4" transform="matrix(-.707 -.707 .707 -.707 37.994 103.796)"/><path d="m45.065 41.529h5v5h-5z" fill="#ade8f4" transform="matrix(-.707 -.707 .707 -.707 50.065 108.796)"/><path d="m41.529 45.065h5v5h-5z" fill="#ade8f4" transform="matrix(-.707 -.707 .707 -.707 41.529 112.332)"/><path d="m46.979 46.979h4v4h-4z" fill="#d0d8da" transform="matrix(-.707 -.707 .707 -.707 48.979 118.246)"/><path d="m35.373 36.373h6v4h-6z" fill="#d0d8da" transform="matrix(-.707 -.707 .707 -.707 38.373 92.64)"/><path d="m11.107 7.571h5v5h-5z" fill="#ade8f4" transform="matrix(.707 .707 -.707 .707 11.107 -6.672)"/><path d="m7.571 11.107h5v5h-5z" fill="#ade8f4" transform="matrix(.707 .707 -.707 .707 12.571 -3.136)"/><path d="m7.571 4.036h5v5h-5z" fill="#ade8f4" transform="matrix(.707 .707 -.707 .707 7.571 -5.207)"/><path d="m4.036 7.571h5v5h-5z" fill="#ade8f4" transform="matrix(.707 .707 -.707 .707 9.036 -1.672)"/><path d="m21.006 17.471h5v5h-5z" fill="#ade8f4" transform="matrix(.707 .707 -.707 .707 21.007 -10.772)"/><path d="m17.471 21.006h5v5h-5z" fill="#ade8f4" transform="matrix(.707 .707 -.707 .707 22.471 -7.237)"/><path d="m17.471 13.935h5v5h-5z" fill="#ade8f4" transform="matrix(.707 .707 -.707 .707 17.471 -9.308)"/><path d="m13.935 17.471h5v5h-5z" fill="#ade8f4" transform="matrix(.707 .707 -.707 .707 18.935 -5.772)"/><path d="m13.021 13.021h4v4h-4z" fill="#d0d8da" transform="matrix(.707 .707 -.707 .707 15.021 -6.222)"/><path d="m22.627 23.627h6v4h-6z" fill="#d0d8da" transform="matrix(.707 .707 -.707 .707 25.628 -10.615)"/><g fill="#48cae4"><path d="m57.464 50.393-3.535 3.536-3.536-3.536z"/><path d="m53.929 53.929-3.536 3.536-3.535-3.536z"/><path d="m61 53.929-3.536 3.536-3.535-3.536z"/><path d="m57.464 57.465-3.535 3.535-3.536-3.535z"/><path d="m47.565 40.494-3.536 3.535-3.535-3.535z"/><path d="m44.029 44.029-3.535 3.536-3.536-3.536z"/><path d="m51.1 44.029-3.535 3.536-3.536-3.536z"/><path d="m47.565 47.565-3.536 3.536-3.535-3.536z"/><path d="m10.071 10.071 3.536 3.536 3.535-3.536z"/><path d="m6.535 13.607 3.536 3.535 3.536-3.535z"/><path d="m6.535 6.535 3.536 3.536 3.536-3.536z"/><path d="m3 10.071 3.535 3.536 3.536-3.536z"/><path d="m19.971 19.971 3.535 3.535 3.536-3.535z"/><path d="m16.435 23.506 3.536 3.536 3.535-3.536z"/><path d="m16.435 16.435 3.536 3.536 3.535-3.536z"/><path d="m12.899 19.971 3.536 3.535 3.536-3.535z"/></g><path d="m11.736 48.264h6v2h-6z" fill="#00b4d8" transform="matrix(.707 -.707 .707 .707 -30.519 24.851)"/><path d="m25.414 22.586h14v18h-14z" fill="#e9f1f2" transform="matrix(.707 .707 -.707 .707 31.828 -13.669)"/><path d="m43.73 30.17-12.73 12.73-9.9-9.9 5.51-5.51a10.99 10.99 0 0 0 14.6.16z" fill="#d0d8da"/><path d="m22.282 37.218h4v5h-4z" fill="#b8bebf" transform="matrix(.707 .707 -.707 .707 35.197 -5.537)"/><path d="m25.343 51.385a9.75 9.75 0 0 0 -12.728-12.728z" fill="#e9f1f2"/><path d="m25.343 51.385-12.728-12.728a2 2 0 0 0 -2.828 0 2 2 0 0 0 0 2.828l12.728 12.728a2 2 0 0 0 2.828 0 2 2 0 0 0 0-2.828z" fill="#ade8f4"/><circle cx="11.908" cy="52.092" fill="#ade8f4" r="2"/><path d="m26.586 23.757h6v10h-6z" fill="#ade8f4" transform="matrix(.707 .707 -.707 .707 29 -12.497)"/><path d="m35.192 21.808h10v4h-10z" fill="#b8bebf" transform="matrix(.707 .707 -.707 .707 28.607 -21.447)"/><path d="m36.728 17.272h14v6h-14z" fill="#e9f1f2" transform="matrix(.707 .707 -.707 .707 27.142 -24.983)"/><path d="m49.385 16.029-1.414-1.414a4 4 0 0 0 -5.657 0l7.071 7.071a4 4 0 0 0 0-5.657z" fill="#ade8f4"/><path d="m50.8 23.1-4.24 4.24-9.9-9.9 2-2 5.36 5.37a5 5 0 0 0 5.53 1.04z" fill="#d0d8da"/><path d="m50.56 18.86a4.026 4.026 0 0 1 -1.18 2.83l-7.07-7.07a3.864 3.864 0 0 1 1.57-.96l2.85 2.85a3.966 3.966 0 0 0 3.62 1.1 3.814 3.814 0 0 1 .21 1.25z" fill="#48cae4"/><path d="m35.243 27.343-7.071 7.071-4.243-4.242 3.926-3.927z" fill="#48cae4"/><path d="m32.36 30.22-4.19 4.19-4.24-4.24 2.68-2.68a10.953 10.953 0 0 0 5.75 2.73z" fill="#00b4d8"/><path d="m25.34 51.38-12.72-12.72a9.779 9.779 0 0 1 2.48-.66l4.95 4.95a7.036 7.036 0 0 0 5.65 2.02 9.8 9.8 0 0 1 -.36 6.41z" fill="#d0d8da"/><path d="m25.92 52.8a1.983 1.983 0 0 1 -.58 1.41 2 2 0 0 1 -2.83 0l-12.72-12.72a2.016 2.016 0 0 1 -.59-1.42 1.993 1.993 0 0 1 .59-1.41.647.647 0 0 1 .09-.08l12.63 12.63a2 2 0 0 0 2.74.08l.09.09a2.022 2.022 0 0 1 .58 1.42z" fill="#48cae4"/><path d="m13.32 53.51a2 2 0 0 1 -3.06-2.55 1.734 1.734 0 0 0 .33.45 1.974 1.974 0 0 0 2.82 0 2.172 2.172 0 0 0 .24-.29 1.992 1.992 0 0 1 -.33 2.39z" fill="#48cae4"/><circle cx="36.657" cy="31.586" fill="#00b4d8" r="1"/><path d="m33.121 33.707a1 1 0 1 0 1.414 0 1 1 0 0 0 -1.414 0z" fill="#00b4d8"/><path d="m56 31h-1v-1a1 1 0 0 0 -2 0v1h-1a1 1 0 0 0 0 2h1v1a1 1 0 0 0 2 0v-1h1a1 1 0 0 0 0-2z" fill="#fffa48"/><path d="m30.205 11.439v1a1 1 0 0 0 2 0v-1h1a1 1 0 0 0 0-2h-1v-1a1 1 0 0 0 -2 0v1h-1a1 1 0 0 0 0 2z" fill="#fffa48"/><path d="m48 5h-1v-1a1 1 0 0 0 -2 0v1h-1a1 1 0 0 0 0 2h1v1a1 1 0 0 0 2 0v-1h1a1 1 0 0 0 0-2z" fill="#fffa48"/><path d="m9 25h-1v-1a1 1 0 0 0 -2 0v1h-1a1 1 0 0 0 0 2h1v1a1 1 0 0 0 2 0v-1h1a1 1 0 0 0 0-2z" fill="#fffa48"/><circle cx="57" cy="25" fill="#fffa48" r="1"/><circle cx="13" cy="31" fill="#fffa48" r="1"/><circle cx="24" cy="6" fill="#fffa48" r="1"/><circle cx="30" cy="17" fill="#fffa48" r="1"/><circle cx="58" cy="8" fill="#fffa48" r="1"/><path d="m52.756 13.658a1 1 0 1 0 -1.414 0 1 1 0 0 0 1.414 0z" fill="#fffa48"/><circle cx="38" cy="6" fill="#fffa48" r="1"/><circle cx="58" cy="39" fill="#fffa48" r="1"/><path d="m34 56h-1v-1a1 1 0 0 0 -2 0v1h-1a1 1 0 0 0 0 2h1v1a1 1 0 0 0 2 0v-1h1a1 1 0 0 0 0-2z" fill="#fffa48"/><circle cx="35" cy="50" fill="#fffa48" r="1"/><circle cx="18" cy="59" fill="#fffa48" r="1"/></g></g></svg>