<svg height="512" viewBox="0 0 64 64" width="512" xmlns="http://www.w3.org/2000/svg"><g id="Flat"><g id="Color_copy" data-name="Color copy"><circle cx="32" cy="32" fill="#fcea42" r="21"/><path d="m52 38.42a21 21 0 1 1 -28-25.84 21.007 21.007 0 0 0 28 25.84z" fill="#fdc741"/><path d="m42.607 21.393a28.269 28.269 0 0 1 -6.775-10.041 20.707 20.707 0 0 0 -4.483-.339 33.315 33.315 0 0 0 8.429 13.209 38.724 38.724 0 0 0 5.461 4.55 2 2 0 0 0 2.938-.823 1.981 1.981 0 0 0 -.676-2.472 34.331 34.331 0 0 1 -4.894-4.084z" fill="#ff7373"/><path d="m22.829 13.1a20.3 20.3 0 0 0 -3.614 2.242 57.621 57.621 0 0 0 12.078 17.365 57.6 57.6 0 0 0 17.366 12.077 20.257 20.257 0 0 0 2.241-3.613 50.24 50.24 0 0 1 -16.78-11.292 50.25 50.25 0 0 1 -11.291-16.779z" fill="#ff7373"/><path d="m52.98 31.14c.01.28.02.57.02.86a21.184 21.184 0 0 1 -.97 6.35 41.255 41.255 0 0 1 2.44 5.18c1.99 5.2 1.8 8.68.77 9.71a4.434 4.434 0 0 1 -2.84.76c-2.7 0-6.48-1.06-10.84-3.3a66.262 66.262 0 0 1 -16.12-12.14 67.586 67.586 0 0 1 -12.13-16.15 39.552 39.552 0 0 1 -1.78-3.94c-1.99-5.2-1.8-8.68-.77-9.71a4.434 4.434 0 0 1 2.84-.76c2.96 0 7.2 1.27 12.08 3.97a20.987 20.987 0 0 1 6.32-.97c.29 0 .58.01.86.02-11.4-7.87-22.41-10.43-27.34-5.5s-2.37 15.94 5.5 27.34a79.167 79.167 0 0 0 9.18 10.94 79.167 79.167 0 0 0 10.94 9.18c11.4 7.87 22.41 10.43 27.34 5.5s2.37-15.94-5.5-27.34z" fill="#ade8f4"/><path d="m33.64 50.48a79.167 79.167 0 0 1 -10.94-9.18 79.167 79.167 0 0 1 -9.18-10.94c-7.2-10.43-9.95-20.52-6.6-25.94a7.463 7.463 0 0 0 -1.4 1.1c-4.93 4.93-2.37 15.94 5.5 27.34a79.167 79.167 0 0 0 9.18 10.94 79.167 79.167 0 0 0 10.94 9.18c11.4 7.87 22.41 10.43 27.34 5.5a7.463 7.463 0 0 0 1.1-1.4c-5.42 3.35-15.51.6-25.94-6.6z" fill="#48cae4"/><path d="m23.46 14.61a21.247 21.247 0 0 0 -.08 8.37 52.561 52.561 0 0 1 -4.16-7.64 20.247 20.247 0 0 1 3.61-2.24c.2.5.41 1.01.63 1.51z" fill="#ef5350"/><path d="m50.9 41.17a20.247 20.247 0 0 1 -2.24 3.61 53.363 53.363 0 0 1 -9.34-5.31 20.843 20.843 0 0 0 8.25.22c1.11.55 2.22 1.04 3.33 1.48z" fill="#ef5350"/><g fill="#ff7373"><path d="m31.06 19.95a.949.949 0 0 1 -.54.16.987.987 0 0 1 -.84-.46 38.533 38.533 0 0 1 -3.82-7.66.185.185 0 0 1 -.02-.07 18.354 18.354 0 0 1 1.94-.49 36.742 36.742 0 0 0 3.59 7.14 1 1 0 0 1 -.31 1.38z"/><path d="m40.128 30.967a.991.991 0 0 1 -.642-.235c-1.108-.93-2.2-1.931-3.244-2.974a1 1 0 0 1 1.414-1.415c1 1 2.052 1.965 3.115 2.858a1 1 0 0 1 -.643 1.766z"/><path d="m52.57 36.22a35.7 35.7 0 0 1 -5.85-2.79 1 1 0 1 0 -1.01 1.72 38.309 38.309 0 0 0 6.3 3 .185.185 0 0 0 .07.02z"/></g><path d="m16.69 17.63a1 1 0 0 1 .23.3 62.182 62.182 0 0 0 4.16 7.14.994.994 0 0 1 -.26 1.38.987.987 0 0 1 -1.39-.26 61.7 61.7 0 0 1 -4.09-6.96z" fill="#ef5350"/><path d="m34.642 42.02a.994.994 0 0 1 -.617-.213 70.077 70.077 0 0 1 -6.267-5.564c-1.564-1.563-3.066-3.212-4.463-4.9a1 1 0 0 1 1.541-1.276c1.357 1.641 2.816 3.243 4.336 4.762a68.162 68.162 0 0 0 6.088 5.405 1 1 0 0 1 -.618 1.786z" fill="#ef5350"/><path d="m44.77 48.66a62.154 62.154 0 0 1 -5.78-3.31 1 1 0 0 1 1.09-1.68 59.687 59.687 0 0 0 5.99 3.41 1 1 0 0 1 .3.23z" fill="#ef5350"/></g></g></svg>