<svg height="512" viewBox="0 0 64 64" width="512" xmlns="http://www.w3.org/2000/svg"><g id="Flat"><g id="Color_copy" data-name="Color copy"><path d="m53 49-1.392-3.319a89.017 89.017 0 0 0 -37.608-42.681l3 9-13-2 10 8-11 4 5.419 1.9a70.211 70.211 0 0 1 34.726 26.612z" fill="#ff7373"/><path d="m44.074 48.346a71.717 71.717 0 0 0 -34.994-26.335l-.132-.046 9.082-3.3-6.93-5.55 8.838 1.36-2.288-6.86a87.583 87.583 0 0 1 32.118 38.84l.4.957z" fill="#ef5350"/><path d="m44.979 46.184a73.571 73.571 0 0 0 -30.351-24.156l6.432-.7-3.869-6.098 5.675 2.72-1.368-5.1a85.629 85.629 0 0 1 25.818 32.975z" fill="#e53935"/><path d="m41.523 38.81a76.007 76.007 0 0 0 -19.791-15.546l2.737-.3-1.851-2.916 3.306 1.584-.856-3.192a83.794 83.794 0 0 1 16.455 20.37z" fill="#c62828"/><path d="m47.393 35.118 4.205 8.52 9.402 1.366-6.804 6.632 1.607 9.364-8.41-4.421-8.41 4.421 1.606-9.364-6.803-6.632 9.402-1.366z" fill="#fdc741"/><path d="m55.803 61-8.41-4.421-8.41 4.421 8.41-10.941z" fill="#efad1b"/><path d="m61 45.004-6.804 6.632 1.607 9.364-8.41-10.941z" fill="#fcea42"/><path d="m61 45.004-9.402-1.366-4.205-8.52v14.941z" fill="#fffa48"/><path d="m33.786 45.004 9.402-1.366 4.205-8.52v14.941z" fill="#fcea42"/><path d="m16.794 44 1.3 2.633 2.906.423-2.103 2.05.496 2.894-2.599-1.367-2.599 1.367.496-2.894-2.103-2.05 2.906-.423z" fill="#fffa48"/><path d="m55.794 15 1.3 2.633 2.906.423-2.103 2.05.496 2.894-2.599-1.367-2.599 1.367.496-2.894-2.103-2.05 2.906-.423z" fill="#fffa48"/><path d="m16.794 44 .3 4.633 3.906-1.577-2.103 2.05.496 2.894-2.599-1.367-2.599 1.367.496-2.894-2.103-2.05 2.906-.423z" fill="#fcea42"/><path d="m55.794 15 .3 4.633 3.906-1.577-2.103 2.05.496 2.894-2.599-1.367-2.599 1.367.496-2.894-2.103-2.05 2.906-.423z" fill="#fcea42"/><g fill="#fffa48"><path d="m6.765 28.618a64.7 64.7 0 0 1 22.328 13.287 1 1 0 1 0 1.347-1.478 66.683 66.683 0 0 0 -23.013-13.697 1 1 0 0 0 -.662 1.888z"/><path d="m25.136 4.316a1 1 0 1 0 -1.186 1.611 92.427 92.427 0 0 1 22.527 23.773 1 1 0 1 0 1.671-1.1 94.417 94.417 0 0 0 -23.012-24.284z"/><path d="m36.37 8.46a1 1 0 1 0 -1.365 1.461 96.413 96.413 0 0 1 19.8 26.1 1 1 0 0 0 .888.54.98.98 0 0 0 .459-.113 1 1 0 0 0 .428-1.348 98.377 98.377 0 0 0 -20.21-26.64z"/><path d="m23.711 40.007a63.119 63.119 0 0 0 -17.611-9.502 1 1 0 0 0 -.662 1.888 61.085 61.085 0 0 1 17.05 9.2 1 1 0 0 0 1.219-1.586z"/><path d="m11.365 54.951h-1v-1a1 1 0 0 0 -2 0v1h-1a1 1 0 0 0 0 2h1v1a1 1 0 0 0 2 0v-1h1a1 1 0 1 0 0-2z"/><path d="m45 7h1v1a1 1 0 0 0 2 0v-1h1a1 1 0 0 0 0-2h-1v-1a1 1 0 0 0 -2 0v1h-1a1 1 0 0 0 0 2z"/><circle cx="25" cy="60" r="1"/><circle cx="30" cy="51" r="1"/><circle cx="5" cy="39" r="1"/><circle cx="59" cy="8" r="1"/><path d="m53.756 13.658a1 1 0 1 0 -1.414 0 1 1 0 0 0 1.414 0z"/><circle cx="39" cy="6" r="1"/></g></g></g></svg>