<svg height="512" viewBox="0 0 64 64" width="512" xmlns="http://www.w3.org/2000/svg"><g id="Flat"><g id="Color_copy" data-name="Color copy"><g fill="#48cae4"><path d="m32 61a29 29 0 1 1 29-29 29.034 29.034 0 0 1 -29 29zm0-56a27 27 0 1 0 27 27 27.03 27.03 0 0 0 -27-27z"/><path d="m32 56a24 24 0 1 1 24-24 24.028 24.028 0 0 1 -24 24zm0-46a22 22 0 1 0 22 22 22.025 22.025 0 0 0 -22-22z"/><path d="m32 51.5a19.5 19.5 0 1 1 19.5-19.5 19.523 19.523 0 0 1 -19.5 19.5zm0-37a17.5 17.5 0 1 0 17.5 17.5 17.521 17.521 0 0 0 -17.5-17.5z"/></g><circle cx="49" cy="15" fill="#fcea42" r="6"/><circle cx="11" cy="53" fill="#ef5350" r="4"/><circle cx="16" cy="15" fill="#00b4d8" r="4"/><circle cx="54" cy="41" fill="#bbefc1" r="3"/><circle cx="52.5" cy="52.5" fill="#b8bebf" r="2"/><circle cx="32" cy="51" fill="#ade8f4" r="3"/><path d="m32 19 .045.236a2.64 2.64 0 0 0 4.8.954l.132-.2-.049.235a2.64 2.64 0 0 0 4.067 2.718l.2-.135-.135.2a2.64 2.64 0 0 0 2.718 4.067l.235-.049-.2.132a2.64 2.64 0 0 0 .954 4.8l.233.042-.236.045a2.64 2.64 0 0 0 -.954 4.8l.2.132-.235-.049a2.64 2.64 0 0 0 -2.718 4.067l.135.2-.2-.135a2.64 2.64 0 0 0 -4.067 2.718l.049.235-.132-.2a2.64 2.64 0 0 0 -4.8.954l-.042.233-.045-.236a2.64 2.64 0 0 0 -4.8-.954l-.132.2.049-.235a2.64 2.64 0 0 0 -4.067-2.718l-.2.135.135-.2a2.64 2.64 0 0 0 -2.718-4.067l-.235.049.2-.132a2.64 2.64 0 0 0 -.954-4.8l-.233-.042.236-.045a2.64 2.64 0 0 0 .954-4.8l-.2-.132.235.049a2.64 2.64 0 0 0 2.718-4.067l-.135-.2.2.135a2.64 2.64 0 0 0 4.067-2.718l-.049-.235.132.2a2.64 2.64 0 0 0 4.8-.954z" fill="#ff7373"/><path d="m32 41.428a4.673 4.673 0 0 0 -2.653-.809 4.532 4.532 0 0 0 -.957.1c-.089-.136-.186-.268-.289-.4a4.746 4.746 0 0 0 -2.769-1.649 4.744 4.744 0 0 0 -2.053-3.065 4.672 4.672 0 0 0 -.719-3.605 4.672 4.672 0 0 0 .719-3.61 4.738 4.738 0 0 0 2.053-3.065 4.688 4.688 0 0 0 3.058-2.045 4.532 4.532 0 0 0 .957.1 4.673 4.673 0 0 0 2.653-.808 4.676 4.676 0 0 0 2.653.809 4.538 4.538 0 0 0 .957-.1c.089.136.186.268.289.4a4.746 4.746 0 0 0 2.769 1.649 4.744 4.744 0 0 0 2.053 3.065 4.679 4.679 0 0 0 .718 3.605 4.679 4.679 0 0 0 -.718 3.61 4.738 4.738 0 0 0 -2.053 3.065 4.746 4.746 0 0 0 -2.768 1.649 4.6 4.6 0 0 0 -.289.4 4.538 4.538 0 0 0 -.957-.1 4.673 4.673 0 0 0 -2.654.804z" fill="#ef5350"/><circle cx="32" cy="32" fill="#e53935" r="7"/><circle cx="32" cy="32" fill="#c62828" r="4"/><path d="m54.47 17.47a6 6 0 1 1 -7.94-7.94 6 6 0 0 0 7.94 7.94z" fill="#fdc741"/><path d="m14.64 54.64a3.995 3.995 0 1 1 -5.28-5.28 3.931 3.931 0 0 0 -.36 1.64 4 4 0 0 0 4 4 3.931 3.931 0 0 0 1.64-.36z" fill="#e53935"/><path d="m19.64 16.64a3.995 3.995 0 1 1 -5.28-5.28 3.931 3.931 0 0 0 -.36 1.64 4 4 0 0 0 4 4 3.931 3.931 0 0 0 1.64-.36z" fill="#0096c7"/><path d="m34.87 51.87a3 3 0 1 1 -3.74-3.74 3.1 3.1 0 0 0 -.13.87 3 3 0 0 0 3 3 3.1 3.1 0 0 0 .87-.13z" fill="#48cae4"/><path d="m56.87 41.87a3 3 0 1 1 -3.74-3.74 3.1 3.1 0 0 0 -.13.87 3 3 0 0 0 3 3 3.1 3.1 0 0 0 .87-.13z" fill="#95d5b2"/><path d="m54.45 52.95a2 2 0 1 1 -2.4-2.4 2.138 2.138 0 0 0 -.05.45 2.006 2.006 0 0 0 2 2 2.138 2.138 0 0 0 .45-.05z" fill="#93999a"/><circle cx="47" cy="17" fill="#efad1b" r="1"/><circle cx="11" cy="52" fill="#e53935" r="1"/><circle cx="50" cy="16" fill="#fdc741" r="1"/><circle cx="48" cy="13" fill="#fdc741" r="1"/></g></g></svg>