<svg height="512" viewBox="0 0 64 64" width="512" xmlns="http://www.w3.org/2000/svg"><g id="Flat"><g id="Color_copy" data-name="Color copy"><path d="m50 22h-8v-1.1a11.13 11.13 0 0 1 2.438-6.951 2 2 0 0 1 3.124 0 11.13 11.13 0 0 1 2.438 6.951z" fill="#ef5350"/><path d="m42 22h8v8h-8z" fill="#ade8f4"/><path d="m42 30h8v8h-8z" fill="#ade8f4"/><path d="m46.9 30h-4.9v-8h4v4.53a7.118 7.118 0 0 0 .9 3.47z" fill="#48cae4"/><path d="m50 33v5h-8v-8h4.9a7.189 7.189 0 0 0 3.1 3z" fill="#48cae4"/><path d="m46.94 13.44a11.015 11.015 0 0 0 -.94 4.46v4.1h-4v-1.1a11.145 11.145 0 0 1 2.44-6.95 1.987 1.987 0 0 1 1.56-.75 1.962 1.962 0 0 1 .94.24z" fill="#e53935"/><path d="m22 22h-8v-1.1a11.13 11.13 0 0 1 2.438-6.951 2 2 0 0 1 3.124 0 11.13 11.13 0 0 1 2.438 6.951z" fill="#ef5350"/><path d="m14 22h8v8h-8z" fill="#ade8f4"/><path d="m14 30h8v8h-8z" fill="#ade8f4"/><path d="m17.1 30h4.9v-8h-4v4.53a7.118 7.118 0 0 1 -.9 3.47z" fill="#48cae4"/><path d="m14 33v5h8v-8h-4.9a7.189 7.189 0 0 1 -3.1 3z" fill="#48cae4"/><path d="m17.06 13.44a11.015 11.015 0 0 1 .94 4.46v4.1h4v-1.1a11.145 11.145 0 0 0 -2.44-6.95 1.987 1.987 0 0 0 -1.56-.75 1.962 1.962 0 0 0 -.94.24z" fill="#e53935"/><path d="m35.748 4.315a6 6 0 0 0 -7.5 0 16.656 16.656 0 0 0 -6.248 13.008v28.993h20v-28.993a16.656 16.656 0 0 0 -6.252-13.008z" fill="#ff7373"/><path d="m42 17.21v29.11h-20v-29a16.663 16.663 0 0 1 6.25-13.01 5.912 5.912 0 0 1 2.69-1.21 15.714 15.714 0 0 0 1.96 6.96c2.27 4.21 5.9 6.91 9.1 7.15z" fill="#ef5350"/><path d="m10 51h16v-27l-2.784 5.568a10.132 10.132 0 0 1 -7.075 5.4 10.129 10.129 0 0 0 -7.27 5.819l-.653 1.468a14.138 14.138 0 0 0 -1.218 5.745 3 3 0 0 0 3 3z" fill="#d0d8da"/><path d="m26 43v8h-16a3 3 0 0 1 -3-3 13.976 13.976 0 0 1 .92-5z" fill="#ff7373"/><path d="m7 48a3 3 0 0 0 3 3h16v-27l-2.78 5.57a10.046 10.046 0 0 1 -2.22 2.93v4.5a10.994 10.994 0 0 1 -11 11z" fill="#b8bebf"/><path d="m7 48a3 3 0 0 0 3 3h16v-8h-6.78a10.988 10.988 0 0 1 -9.22 5z" fill="#ef5350"/><path d="m54 51h-16v-27l2.784 5.568a10.132 10.132 0 0 0 7.075 5.4 10.132 10.132 0 0 1 7.271 5.819l.652 1.468a14.138 14.138 0 0 1 1.218 5.745 3 3 0 0 1 -3 3z" fill="#d0d8da"/><path d="m57 48a3 3 0 0 1 -3 3h-16v-27l2.78 5.57a10.046 10.046 0 0 0 2.22 2.93v4.5a10.994 10.994 0 0 0 11 11z" fill="#b8bebf"/><path d="m57 48a3 3 0 0 1 -3 3h-16v-8h18.08a13.976 13.976 0 0 1 .92 5z" fill="#ff7373"/><path d="m57 48a3 3 0 0 1 -3 3h-16v-8h6.78a10.988 10.988 0 0 0 9.22 5z" fill="#ef5350"/><path d="m40 51h-16v-20.9a24.912 24.912 0 0 1 4.765-14.653 4 4 0 0 1 6.47 0 24.912 24.912 0 0 1 4.765 14.653z" fill="#e9f1f2"/><path d="m40 46.83v4.17h-16v-20.9a24.962 24.962 0 0 1 4.76-14.65h.01a3.96 3.96 0 0 1 4.01-1.57 16.117 16.117 0 0 0 -2.78 9.07v12.05a11.99 11.99 0 0 0 10 11.83z" fill="#d0d8da"/><path d="m39 57h-14l1-6h12z" fill="#ef5350"/><path d="m53 55h-10l1-4h8z" fill="#ef5350"/><path d="m21 55h-10l1-4h8z" fill="#ef5350"/><circle cx="32" cy="26" fill="#ade8f4" r="4"/><path d="m36 61h-8l-1-4h10z" fill="#d0d8da"/><path d="m51 59h-6l-1-4h8z" fill="#d0d8da"/><path d="m19 59h-6l-1-4h8z" fill="#d0d8da"/><path d="m35.64 27.64a3.995 3.995 0 1 1 -5.28-5.28 3.931 3.931 0 0 0 -.36 1.64 4 4 0 0 0 4 4 3.931 3.931 0 0 0 1.64-.36z" fill="#48cae4"/><path d="m28 26a3.983 3.983 0 0 0 2 3.446v-6.5c0-.136.012-.27.015-.4a3.979 3.979 0 0 0 -2.015 3.454z" fill="#00b4d8"/><path d="m52.5 53h-4.16a2.98 2.98 0 0 0 -2.81 2h-2.53l1-4h8z" fill="#e53935"/><path d="m20.5 53h-4.16a2.98 2.98 0 0 0 -2.81 2h-2.53l1-4h8z" fill="#e53935"/><path d="m38.33 53h-6.09a5 5 0 0 0 -4.9 4h-2.34l1-6h12z" fill="#e53935"/><path d="m37 57-.5 2h-4.94a2.006 2.006 0 0 0 -2 2h-1.56l-1-4z" fill="#b8bebf"/><path d="m20 55-.5 2h-2.94a2.006 2.006 0 0 0 -2 2h-1.56l-1-4z" fill="#b8bebf"/><path d="m52 55-.5 2h-2.94a2.006 2.006 0 0 0 -2 2h-1.56l-1-4z" fill="#b8bebf"/><circle cx="46" cy="26" fill="#d0d8da" r="1"/><circle cx="18" cy="26" fill="#d0d8da" r="1"/><circle cx="44" cy="47" fill="#b8bebf" r="1"/><circle cx="34" cy="39" fill="#d0d8da" r="1"/><circle cx="34" cy="35" fill="#d0d8da" r="1"/><circle cx="32" cy="10" fill="#d0d8da" r="1"/><circle cx="32" cy="6" fill="#d0d8da" r="1"/><circle cx="34" cy="47" fill="#b8bebf" r="1"/><circle cx="34" cy="43" fill="#d0d8da" r="1"/><circle cx="30" cy="39" fill="#d0d8da" r="1"/><circle cx="30" cy="35" fill="#d0d8da" r="1"/><circle cx="30" cy="47" fill="#b8bebf" r="1"/><circle cx="30" cy="43" fill="#b8bebf" r="1"/><circle cx="52" cy="47" fill="#d0d8da" r="1"/><circle cx="48" cy="47" fill="#d0d8da" r="1"/><circle cx="12" cy="47" fill="#d0d8da" r="1"/><circle cx="16" cy="47" fill="#d0d8da" r="1"/><g fill="#b8bebf"><circle cx="20" cy="47" r="1"/><path d="m34.06 43.99a.127.127 0 0 1 -.06.01 1 1 0 0 1 -1-1 .127.127 0 0 1 .01-.06 9.464 9.464 0 0 0 1.05 1.05z"/><path d="m30.87 39.49a1 1 0 1 1 -.87-1.49.946.946 0 0 1 .41.09 9.555 9.555 0 0 0 .46 1.4z"/><path d="m30.04 36h-.04a1 1 0 0 1 0-2v1c0 .34.01.67.04 1z"/><path d="m32.98 10.2a1 1 0 1 1 -.98-1.2.868.868 0 0 1 .42.1q.225.48.48.96c.03.05.05.1.08.14z"/><path d="m31.59 6.91a1 1 0 0 1 -.59-.91 1.053 1.053 0 0 1 .2-.6 14.592 14.592 0 0 0 .39 1.51z"/><path d="m46.01 27h-.01a1 1 0 0 1 0-2v1.53c0 .16.01.32.01.47z"/><path d="m19 26a1 1 0 0 1 -1 1h-.01c0-.15.01-.31.01-.47v-1.53a1 1 0 0 1 1 1z"/><path d="m52.45 47.89a1 1 0 0 1 -.45.11 1.03 1.03 0 0 1 -.76-.35 11.769 11.769 0 0 0 1.21.24z"/><path d="m49 47a1 1 0 1 1 -1.27-.96 10.969 10.969 0 0 0 1.24.74.78.78 0 0 1 .03.22z"/><path d="m12.76 47.65a1.03 1.03 0 0 1 -.76.35 1 1 0 0 1 -.45-.11 11.769 11.769 0 0 0 1.21-.24z"/><path d="m17 47a1 1 0 0 1 -2 0 .78.78 0 0 1 .03-.22 10.969 10.969 0 0 0 1.24-.74 1 1 0 0 1 .73.96z"/></g></g></g></svg>