<svg height="512" viewBox="0 0 64 64" width="512" xmlns="http://www.w3.org/2000/svg"><g id="Flat"><g id="Color_copy" data-name="Color copy"><g fill="#b8bebf"><path d="m5 37a1 1 0 0 1 -1-1v-8a1 1 0 0 1 2 0v8a1 1 0 0 1 -1 1z"/><path d="m13 37a1 1 0 0 1 -1-1v-8a1 1 0 0 1 2 0v8a1 1 0 0 1 -1 1z"/><path d="m21 37a1 1 0 0 1 -1-1v-8a1 1 0 0 1 2 0v8a1 1 0 0 1 -1 1z"/><path d="m27 33h-22a1 1 0 0 1 0-2h22a1 1 0 0 1 0 2z"/><path d="m59 37a1 1 0 0 1 -1-1v-8a1 1 0 0 1 2 0v8a1 1 0 0 1 -1 1z"/><path d="m51 37a1 1 0 0 1 -1-1v-8a1 1 0 0 1 2 0v8a1 1 0 0 1 -1 1z"/><path d="m43 37a1 1 0 0 1 -1-1v-8a1 1 0 0 1 2 0v8a1 1 0 0 1 -1 1z"/><path d="m59 33h-22a1 1 0 0 1 0-2h22a1 1 0 0 1 0 2z"/><path d="m43 6h-5a1 1 0 0 1 0-2h5a1 1 0 0 1 0 2z"/><path d="m26 6h-5a1 1 0 0 1 0-2h5a1 1 0 0 1 0 2z"/><path d="m35.475 57.293a1 1 0 0 1 -.707-.293l-2.122-2.122a1 1 0 0 1 1.414-1.414l2.122 2.122a1 1 0 0 1 -.707 1.707z"/><path d="m32 52a1 1 0 0 1 -1-1v-5a1 1 0 0 1 2 0v5a1 1 0 0 1 -1 1z"/></g><path d="m27 15h10v22h-10z" fill="#e9f1f2"/><path d="m37 33.54v3.46h-10v-22h3v9a10.011 10.011 0 0 0 7 9.54z" fill="#d0d8da"/><path d="m27 19h6v4h-6z" fill="#ade8f4"/><path d="m32 29h5v4h-5z" fill="#ade8f4"/><path d="m30 7h4v8h-4z" fill="#d0d8da"/><path d="m26 3h12v4h-12z" fill="#e9f1f2"/><path d="m43 3h4v4h-4z" fill="#e9f1f2"/><path d="m17 3h4v4h-4z" fill="#e9f1f2"/><path d="m29 37h6v10h-6z" fill="#d0d8da"/><path d="m30.525 57a4 4 0 0 1 0-5.657 4 4 0 0 1 5.657 0z" fill="#ade8f4"/><path d="m33 23h-6v-4h3z" fill="#48cae4"/><path d="m37 33h-5v-4h1z" fill="#48cae4"/><path d="m27 19h3v4h-3z" fill="#00b4d8"/><path d="m35.64 33h-3.64v-3.01a10.036 10.036 0 0 0 3.64 3.01z" fill="#00b4d8"/><path d="m35 37v2a4 4 0 0 0 -4 4v4h-2v-10z" fill="#b8bebf"/><path d="m36.15 51.37-5.62 5.63a3.99 3.99 0 0 1 0-5.66 3.414 3.414 0 0 1 .64-.51 4.025 4.025 0 0 0 2.83 1.17 3.956 3.956 0 0 0 2.15-.63z" fill="#48cae4"/><path d="m38 5v2h-12v-4h2a2.006 2.006 0 0 0 2 2z" fill="#d0d8da"/><path d="m47 5v2h-4v-4h1a2.006 2.006 0 0 0 2 2z" fill="#d0d8da"/><path d="m21 5v2h-4v-4h1a2.006 2.006 0 0 0 2 2z" fill="#d0d8da"/><path d="m32 8v3a2.006 2.006 0 0 0 2 2v2h-4v-8h4v1z" fill="#b8bebf"/><path d="m57 35.9h4v4h-4z" fill="#ade8f4" transform="matrix(-1 0 0 -1 118 75.801)"/><path d="m57 39.9h4v4h-4z" fill="#ade8f4" transform="matrix(-1 0 0 -1 118 83.801)"/><path d="m57 43.9h4v4h-4z" fill="#ade8f4" transform="matrix(-1 0 0 -1 118 91.801)"/><path d="m57 47.9h4v4h-4z" fill="#ade8f4" transform="matrix(-1 0 0 -1 118 99.801)"/><path d="m57 35.9v4h4z" fill="#48cae4"/><path d="m57 39.9v4h4z" fill="#48cae4"/><path d="m57 43.9v4h4z" fill="#48cae4"/><path d="m57 47.9v4h4z" fill="#48cae4"/><path d="m57 12h4v4h-4z" fill="#ade8f4" transform="matrix(-1 0 0 -1 118 28)"/><path d="m57 16h4v4h-4z" fill="#ade8f4" transform="matrix(-1 0 0 -1 118 36)"/><path d="m57 20h4v4h-4z" fill="#ade8f4" transform="matrix(-1 0 0 -1 118 44)"/><path d="m57 24h4v4h-4z" fill="#ade8f4" transform="matrix(-1 0 0 -1 118 52)"/><path d="m57 12v4h4z" fill="#48cae4"/><path d="m57 16v4h4z" fill="#48cae4"/><path d="m57 20v4h4z" fill="#48cae4"/><path d="m57 24v4h4z" fill="#48cae4"/><path d="m49 35.9h4v4h-4z" fill="#ade8f4" transform="matrix(-1 0 0 -1 102 75.801)"/><path d="m49 39.9h4v4h-4z" fill="#ade8f4" transform="matrix(-1 0 0 -1 102 83.801)"/><path d="m49 43.9h4v4h-4z" fill="#ade8f4" transform="matrix(-1 0 0 -1 102 91.801)"/><path d="m49 47.9h4v4h-4z" fill="#ade8f4" transform="matrix(-1 0 0 -1 102 99.801)"/><path d="m49 35.9v4h4z" fill="#48cae4"/><path d="m49 39.9v4h4z" fill="#48cae4"/><path d="m49 43.9v4h4z" fill="#48cae4"/><path d="m49 47.9v4h4z" fill="#48cae4"/><path d="m49 12h4v4h-4z" fill="#ade8f4" transform="matrix(-1 0 0 -1 102 28)"/><path d="m49 16h4v4h-4z" fill="#ade8f4" transform="matrix(-1 0 0 -1 102 36)"/><path d="m49 20h4v4h-4z" fill="#ade8f4" transform="matrix(-1 0 0 -1 102 44)"/><path d="m49 24h4v4h-4z" fill="#ade8f4" transform="matrix(-1 0 0 -1 102 52)"/><path d="m49 12v4h4z" fill="#48cae4"/><path d="m49 16v4h4z" fill="#48cae4"/><path d="m49 20v4h4z" fill="#48cae4"/><path d="m49 24v4h4z" fill="#48cae4"/><path d="m41 35.9h4v4h-4z" fill="#ade8f4" transform="matrix(-1 0 0 -1 86 75.801)"/><path d="m41 39.9h4v4h-4z" fill="#ade8f4" transform="matrix(-1 0 0 -1 86 83.801)"/><path d="m41 43.9h4v4h-4z" fill="#ade8f4" transform="matrix(-1 0 0 -1 86 91.801)"/><path d="m41 47.9h4v4h-4z" fill="#ade8f4" transform="matrix(-1 0 0 -1 86 99.801)"/><path d="m41 35.9v4h4z" fill="#48cae4"/><path d="m41 39.9v4h4z" fill="#48cae4"/><path d="m41 43.9v4h4z" fill="#48cae4"/><path d="m41 47.9v4h4z" fill="#48cae4"/><path d="m41 12h4v4h-4z" fill="#ade8f4" transform="matrix(-1 0 0 -1 86 28)"/><path d="m41 16h4v4h-4z" fill="#ade8f4" transform="matrix(-1 0 0 -1 86 36)"/><path d="m41 20h4v4h-4z" fill="#ade8f4" transform="matrix(-1 0 0 -1 86 44)"/><path d="m41 24h4v4h-4z" fill="#ade8f4" transform="matrix(-1 0 0 -1 86 52)"/><path d="m41 12v4h4z" fill="#48cae4"/><path d="m41 16v4h4z" fill="#48cae4"/><path d="m41 20v4h4z" fill="#48cae4"/><path d="m41 24v4h4z" fill="#48cae4"/><path d="m19 35.9h4v4h-4z" fill="#ade8f4" transform="matrix(-1 0 0 -1 42 75.801)"/><path d="m19 39.9h4v4h-4z" fill="#ade8f4" transform="matrix(-1 0 0 -1 42 83.801)"/><path d="m19 43.9h4v4h-4z" fill="#ade8f4" transform="matrix(-1 0 0 -1 42 91.801)"/><path d="m19 47.9h4v4h-4z" fill="#ade8f4" transform="matrix(-1 0 0 -1 42 99.801)"/><path d="m19 35.9v4h4z" fill="#48cae4"/><path d="m19 39.9v4h4z" fill="#48cae4"/><path d="m19 43.9v4h4z" fill="#48cae4"/><path d="m19 47.9v4h4z" fill="#48cae4"/><path d="m19 12h4v4h-4z" fill="#ade8f4" transform="matrix(-1 0 0 -1 42 28)"/><path d="m19 16h4v4h-4z" fill="#ade8f4" transform="matrix(-1 0 0 -1 42 36)"/><path d="m19 20h4v4h-4z" fill="#ade8f4" transform="matrix(-1 0 0 -1 42 44)"/><path d="m19 24h4v4h-4z" fill="#ade8f4" transform="matrix(-1 0 0 -1 42 52)"/><path d="m19 12v4h4z" fill="#48cae4"/><path d="m19 16v4h4z" fill="#48cae4"/><path d="m19 20v4h4z" fill="#48cae4"/><path d="m19 24v4h4z" fill="#48cae4"/><path d="m11 35.9h4v4h-4z" fill="#ade8f4" transform="matrix(-1 0 0 -1 26 75.801)"/><path d="m11 39.9h4v4h-4z" fill="#ade8f4" transform="matrix(-1 0 0 -1 26 83.801)"/><path d="m11 43.9h4v4h-4z" fill="#ade8f4" transform="matrix(-1 0 0 -1 26 91.801)"/><path d="m11 47.9h4v4h-4z" fill="#ade8f4" transform="matrix(-1 0 0 -1 26 99.801)"/><path d="m11 35.9v4h4z" fill="#48cae4"/><path d="m11 39.9v4h4z" fill="#48cae4"/><path d="m11 43.9v4h4z" fill="#48cae4"/><path d="m11 47.9v4h4z" fill="#48cae4"/><path d="m11 12h4v4h-4z" fill="#ade8f4" transform="matrix(-1 0 0 -1 26 28)"/><path d="m11 16h4v4h-4z" fill="#ade8f4" transform="matrix(-1 0 0 -1 26 36)"/><path d="m11 20h4v4h-4z" fill="#ade8f4" transform="matrix(-1 0 0 -1 26 44)"/><path d="m11 24h4v4h-4z" fill="#ade8f4" transform="matrix(-1 0 0 -1 26 52)"/><path d="m11 12v4h4z" fill="#48cae4"/><path d="m11 16v4h4z" fill="#48cae4"/><path d="m11 20v4h4z" fill="#48cae4"/><path d="m11 24v4h4z" fill="#48cae4"/><path d="m3 35.9h4v4h-4z" fill="#ade8f4" transform="matrix(-1 0 0 -1 10 75.801)"/><path d="m3 39.9h4v4h-4z" fill="#ade8f4" transform="matrix(-1 0 0 -1 10 83.801)"/><path d="m3 43.9h4v4h-4z" fill="#ade8f4" transform="matrix(-1 0 0 -1 10 91.801)"/><path d="m3 47.9h4v4h-4z" fill="#ade8f4" transform="matrix(-1 0 0 -1 10 99.801)"/><path d="m3 35.9v4h4z" fill="#48cae4"/><path d="m3 39.9v4h4z" fill="#48cae4"/><path d="m3 43.9v4h4z" fill="#48cae4"/><path d="m3 47.9v4h4z" fill="#48cae4"/><path d="m3 12h4v4h-4z" fill="#ade8f4" transform="matrix(-1 0 0 -1 10 28)"/><path d="m3 16h4v4h-4z" fill="#ade8f4" transform="matrix(-1 0 0 -1 10 36)"/><path d="m3 20h4v4h-4z" fill="#ade8f4" transform="matrix(-1 0 0 -1 10 44)"/><path d="m3 24h4v4h-4z" fill="#ade8f4" transform="matrix(-1 0 0 -1 10 52)"/><path d="m3 12v4h4z" fill="#48cae4"/><path d="m3 16v4h4z" fill="#48cae4"/><path d="m3 20v4h4z" fill="#48cae4"/><path d="m3 24v4h4z" fill="#48cae4"/></g></g></svg>