<svg height="512" viewBox="0 0 64 64" width="512" xmlns="http://www.w3.org/2000/svg"><g id="Flat"><g id="Color_copy" data-name="Color copy"><path d="m23.851 56.984a1.029 1.029 0 0 1 -.84-1.163l4.489-30.689a1.943 1.943 0 0 1 2.255-1.632 1.943 1.943 0 0 1 1.565 2.306l-6.282 30.373a1.029 1.029 0 0 1 -1.187.805z" fill="#48cae4"/><path d="m31.36 25.42a1.722 1.722 0 0 1 -.04.39l-2.66 12.85a16.192 16.192 0 0 1 -1.73-.43l-2.28 15.59a1.036 1.036 0 0 0 .65 1.11l-.26 1.25a1.031 1.031 0 0 1 -2.03-.36l4.49-30.69a1.94 1.94 0 0 1 3.86.29z" fill="#00b4d8"/><path d="m40.149 56.984a1.029 1.029 0 0 0 .84-1.163l-4.489-30.689a1.943 1.943 0 0 0 -2.255-1.632 1.941 1.941 0 0 0 -1.565 2.306l6.281 30.372a1.03 1.03 0 0 0 1.188.806z" fill="#48cae4"/><path d="m40.99 55.82a1.031 1.031 0 0 1 -2.03.36l-6.28-30.37a1.722 1.722 0 0 1 -.04-.39 1.94 1.94 0 0 1 3.86-.29l1.85 12.62a15.673 15.673 0 0 1 -1.67.58l3.28 15.85a1.019 1.019 0 0 0 .91.81z" fill="#00b4d8"/><circle cx="32" cy="20" fill="#d0d8da" r="17"/><path d="m47.49 27h-23.53a16.95 16.95 0 0 0 12.04 5 17.122 17.122 0 0 0 4.07-.51 1.934 1.934 0 0 1 3.61-1.34 16.911 16.911 0 0 0 3.36-2.23 17 17 0 1 1 -26.08-20.84 16.846 16.846 0 0 0 -1.47 11.92h29.48c.02.33.03.67.03 1a16.845 16.845 0 0 1 -1.51 7z" fill="#b8bebf"/><path d="m49 24h-34a4 4 0 0 1 -4-4 4 4 0 0 1 4-4h34a4 4 0 0 1 4 4 4 4 0 0 1 -4 4z" fill="#ade8f4"/><path d="m12.763 60.965a1.03 1.03 0 0 1 -.735-1.232l7.143-30.181a1.942 1.942 0 0 1 2.392-1.429 1.943 1.943 0 0 1 1.358 2.434l-8.9 29.709a1.03 1.03 0 0 1 -1.258.699z" fill="#ade8f4"/><path d="m51.236 60.965a1.031 1.031 0 0 0 .736-1.232l-7.143-30.181a1.942 1.942 0 0 0 -2.392-1.429 1.943 1.943 0 0 0 -1.358 2.434l8.9 29.709a1.03 1.03 0 0 0 1.257.699z" fill="#ade8f4"/><path d="m53 20a3.995 3.995 0 0 1 -4 4h-34a4 4 0 0 1 -.99-7.87 3.984 3.984 0 0 0 3.99 3.87h34a3.636 3.636 0 0 0 .99-.13.57.57 0 0 1 .01.13z" fill="#48cae4"/><path d="m51.24 60.96a1.029 1.029 0 0 1 -1.26-.69l-8.9-29.71a1.849 1.849 0 0 1 -.08-.56 1.946 1.946 0 0 1 1.02-1.71 1.31 1.31 0 0 0 .06.27l8.9 29.71a1.044 1.044 0 0 0 .81.72h.01l.17.74a1.028 1.028 0 0 1 -.73 1.23z" fill="#48cae4"/><path d="m14.45 58.82-.43 1.45a1.032 1.032 0 0 1 -1.99-.54l7.14-30.18a1.949 1.949 0 0 1 1.88-1.5l-7.02 29.68a1.039 1.039 0 0 0 .42 1.09z" fill="#48cae4"/><g fill="#e9f1f2"><circle cx="32" cy="20" r="1"/><circle cx="36" cy="20" r="1"/><circle cx="40" cy="20" r="1"/><circle cx="44" cy="20" r="1"/><circle cx="16" cy="20" r="1"/><circle cx="20" cy="20" r="1"/><circle cx="24" cy="20" r="1"/><circle cx="28" cy="20" r="1"/><circle cx="48" cy="20" r="1"/><path d="m42.233 13a1 1 0 0 1 -.788-.384 11.932 11.932 0 0 0 -9.445-4.616 1 1 0 0 1 0-2 13.912 13.912 0 0 1 11.019 5.384 1 1 0 0 1 -.786 1.616z"/><path d="m32 34a13.829 13.829 0 0 1 -5.388-1.094 1 1 0 1 1 .776-1.843 11.866 11.866 0 0 0 9.224 0 1 1 0 1 1 .776 1.843 13.825 13.825 0 0 1 -5.388 1.094z"/><circle cx="28" cy="8" r="1"/></g><path d="m37.99 31.87a.99.99 0 0 1 -.6 1.04 13.872 13.872 0 0 1 -10.78 0 1 1 0 0 1 .78-1.85 11.928 11.928 0 0 0 6.45.8 17.159 17.159 0 0 0 2.16.14 14.566 14.566 0 0 0 1.99-.13z" fill="#d0d8da"/><path d="m33 20a1 1 0 0 1 -2 0z" fill="#d0d8da"/><path d="m37 20a1 1 0 0 1 -2 0z" fill="#d0d8da"/><path d="m41 20a1 1 0 0 1 -2 0z" fill="#d0d8da"/><path d="m45 20a1 1 0 0 1 -2 0z" fill="#d0d8da"/><path d="m17 20a1 1 0 1 1 -1.49-.87 3.824 3.824 0 0 0 1.48.74.57.57 0 0 1 .01.13z" fill="#d0d8da"/><path d="m21 20a1 1 0 0 1 -2 0z" fill="#d0d8da"/><path d="m25 20a1 1 0 0 1 -2 0z" fill="#d0d8da"/><path d="m29 20a1 1 0 0 1 -2 0z" fill="#d0d8da"/><path d="m49 20a1 1 0 0 1 -2 0z" fill="#d0d8da"/></g></g></svg>