<svg height="512" viewBox="0 0 64 64" width="512" xmlns="http://www.w3.org/2000/svg"><g id="Flat"><g id="Color_copy" data-name="Color copy"><path d="m36 43h4v18h-4z" fill="#d0d8da"/><path d="m38 49v7a2.968 2.968 0 0 0 2 2.82v2.18h-4v-18h4v7.22l-.82-1.42a3.792 3.792 0 0 1 -1.18.2z" fill="#b8bebf"/><path d="m33.461 35.584h4v7h-4z" fill="#d0d8da" transform="matrix(.866 -.5 .5 .866 -14.791 22.967)"/><path d="m38.94 41.11-3.46 2-3.5-6.06 3.46-2 .44.76-2.37 1.36a2.965 2.965 0 0 0 3.44.5z" fill="#b8bebf"/><path d="m25.961 29.521h12v7h-12z" fill="#48cae4" transform="matrix(.866 -.5 .5 .866 -12.229 20.405)"/><path d="m38.91 33.05-10.4 6-3.5-6.06 10.4-6 2.39 4.15-9.44 3.79a2.985 2.985 0 0 0 3.75.62l6.18-3.57z" fill="#00b4d8"/><path d="m46.161 4.616c3.587-2.071 8.957.515 11.995 5.776s2.592 11.205-.995 13.277z" fill="#48cae4"/><path d="m57.16 23.67-11-19.05a5.489 5.489 0 0 1 3.12-.7 23.476 23.476 0 0 0 1.97 4.39c2.44 4.23 5.83 7.21 8.88 8.19.26 3.15-.76 5.9-2.97 7.17z" fill="#00b4d8"/><path d="m24 61 10.392-18 3.464 2-9.237 16z" fill="#e9f1f2"/><path d="m52 61-10.392-18-3.464 2 9.237 16z" fill="#e9f1f2"/><path d="m49.228 2.392h4v24h-4z" fill="#ade8f4" transform="matrix(.866 -.5 .5 .866 -.333 27.542)"/><path d="m42.737 29.686 12.258-4.767-11-19.053-10.258 8.232z" fill="#e9f1f2"/><path d="m38.273 29.954 3.964-1.134-8-13.856-2.964 2.866z" fill="#ade8f4"/><path d="m38.273 29.954-13.124 5.268-5-8.66 11.124-8.732z" fill="#e9f1f2"/><path d="m21.185 36.356 3.964-1.134-5-8.66-2.964 2.866z" fill="#ade8f4"/><path d="m21.185 36.356-7.429 3.134-3-5.196 6.429-4.866z" fill="#e9f1f2"/><path d="m5.06 36.892h4v6h-4z" fill="#e9f1f2" transform="matrix(.866 -.5 .5 .866 -19 8.875)"/><path d="m8.524 35.892h4v4h-4z" fill="#48cae4" transform="matrix(.866 -.5 .5 .866 -17.536 10.339)"/><path d="m42 45.68v-.68a4.1 4.1 0 0 1 -.058.579z" fill="#d0d8da"/><path d="m58.96 23.78-3.46 2-12-20.78 1.62-.93 9.88 17.12a2.98 2.98 0 0 0 3.28 1.41z" fill="#48cae4"/><path d="m55 24.92-12.26 4.77-9-15.59 2.95-2.36 4.19 7.26a8.989 8.989 0 0 0 11.05 3.89l1.55-.6z" fill="#d0d8da"/><path d="m42.24 28.82-3.97 1.13-7-12.12 1.38-1.34 5.45 9.44a2.99 2.99 0 0 0 3.29 1.41z" fill="#48cae4"/><path d="m38.27 29.95-13.12 5.27-5-8.66 2.67-2.1.29.5a7 7 0 0 0 8.67 3l4.33-1.74z" fill="#d0d8da"/><path d="m25.15 35.22-3.97 1.14-4-6.93 1.38-1.34 2.45 4.24a2.99 2.99 0 0 0 3.29 1.41z" fill="#48cae4"/><path d="m21.18 36.36-7.42 3.13-3-5.2 2.31-1.75a3.988 3.988 0 0 0 4.94 1.58l1.51-.64z" fill="#d0d8da"/><path d="m10.29 41.49-3.46 2-3-5.2 1.61-.93.39.67a3.936 3.936 0 0 0 3.61 1.98z" fill="#d0d8da"/><path d="m13.26 38.62-3.47 2-2-3.46.94-.54a3.078 3.078 0 0 0 2.31.89l-.96-1.67 1.18-.68z" fill="#0096c7"/><path d="m52 61h-4.62l-9.24-16 3.35-1.93a3.836 3.836 0 0 1 .51 1.93 3.96 3.96 0 0 1 -.55 1.99l4.62 8.01a7.97 7.97 0 0 0 4.57 3.64z" fill="#d0d8da"/><path d="m37.86 45-1.68 2.91a3.983 3.983 0 0 1 -2.09-1.18l-4.78 8.27a2.67 2.67 0 0 0 .75 3.5l-1.44 2.5h-4.62l10.39-18z" fill="#d0d8da"/><circle cx="38" cy="43" fill="#48cae4" r="4"/><path d="m41.64 44.64a3.995 3.995 0 1 1 -5.28-5.28 3.931 3.931 0 0 0 -.36 1.64 4 4 0 0 0 4 4 3.931 3.931 0 0 0 1.64-.36z" fill="#00b4d8"/><circle cx="38" cy="43" fill="#d0d8da" r="1"/></g></g></svg>