<svg height="512" viewBox="0 0 64 64" width="512" xmlns="http://www.w3.org/2000/svg"><g id="Flat"><g id="Color_copy" data-name="Color copy"><path d="m51 61h-38l12-21h14z" fill="#fffa48"/><path d="m44 61h-24l7.579-21h8.842z" fill="#fcea42"/><path d="m37 61h-10l3.158-21h3.684z" fill="#fdc741"/><path d="m26.609 42.68a1 1 0 0 0 -1.279.6l-2.172 6.02a1 1 0 0 0 .6 1.28 1.016 1.016 0 0 0 .34.06 1 1 0 0 0 .94-.661l2.171-6.02a1 1 0 0 0 -.6-1.279z" fill="#efad1b"/><path d="m23.1 52.415a1 1 0 0 0 -1.28.6l-1.62 4.47a1 1 0 0 0 .6 1.28.986.986 0 0 0 .339.06 1 1 0 0 0 .941-.661l1.62-4.464a1 1 0 0 0 -.6-1.285z" fill="#efad1b"/><path d="m42.3 53.338a1 1 0 0 0 -1.846.771l2.625 6.277a1 1 0 0 0 1.846-.772z" fill="#efad1b"/><path d="m41.11 50.044-2.439-6.763a1 1 0 1 0 -1.881.678l2.439 6.764a1 1 0 1 0 1.881-.679z" fill="#efad1b"/><path d="m29.719 42.941a1 1 0 0 0 -1.138.84l-2.081 13.843a1 1 0 0 0 .84 1.138.947.947 0 0 0 .15.011 1 1 0 0 0 .988-.851l2.084-13.843a1 1 0 0 0 -.843-1.138z" fill="#efad1b"/><path d="m34.8 46.451a1 1 0 0 0 -.827 1.148l2.042 12.562a1 1 0 0 0 .985.839.98.98 0 0 0 .161-.013 1 1 0 0 0 .827-1.148l-2.043-12.562a1 1 0 0 0 -1.145-.826z" fill="#efad1b"/><ellipse cx="32" cy="35" fill="#00b4d8" rx="20" ry="9"/><path d="m32 40a78.858 78.858 0 0 1 -10.12-.63 35.426 35.426 0 0 0 14.12 2.63 37.1 37.1 0 0 0 12.71-2.06c-3.57 2.45-9.72 4.06-16.71 4.06-11.05 0-20-4.03-20-9s8.95-9 20-9 20 4.03 20 9a4.6 4.6 0 0 1 -.77 2.48 67.692 67.692 0 0 1 -19.23 2.52z" fill="#0096c7"/><ellipse cx="32" cy="29" fill="#e9f1f2" rx="29" ry="10"/><path d="m32 3a18 18 0 0 0 -18 18v1.9a6 6 0 0 0 3.825 5.592 39.116 39.116 0 0 0 28.35 0 6 6 0 0 0 3.825-5.592v-1.9a18 18 0 0 0 -18-18z" fill="#ade8f4"/><path d="m49.85 24.19a5.821 5.821 0 0 1 -.9 2.09 6.025 6.025 0 0 1 -2.78 2.21 39.085 39.085 0 0 1 -14.17 2.65 39.085 39.085 0 0 1 -14.17-2.65 6 6 0 0 1 -3.83-5.59v-1.9a17.994 17.994 0 0 1 10.3-16.27 17.6 17.6 0 0 0 -.3 3.27 18 18 0 0 0 18 18 17.793 17.793 0 0 0 7.85-1.81z" fill="#48cae4"/><path d="m42 29v.85a39.422 39.422 0 0 1 -10 1.29 39.422 39.422 0 0 1 -10-1.29v-.85a8 8 0 0 1 8-8h4a8 8 0 0 1 8 8z" fill="#52b788"/><path d="m42 29v.85a39.422 39.422 0 0 1 -10 1.29 39.422 39.422 0 0 1 -10-1.29v-.85a8 8 0 0 1 7.57-7.99 17.95 17.95 0 0 0 11.84 4.98 7.955 7.955 0 0 1 .59 3.01z" fill="#40916c"/><path d="m40 14.875c0 4.349-3.582 10.125-8 10.125s-8-5.776-8-10.125a8 8 0 0 1 16 0z" fill="#bbefc1"/><path d="m38.13 20.87c-1.47 2.34-3.67 4.13-6.13 4.13-4.42 0-8-5.78-8-10.12a7.9 7.9 0 0 1 5.89-7.6 7.675 7.675 0 0 0 -.89 3.6c0 4.34 3.58 10.12 8 10.12a4.78 4.78 0 0 0 1.13-.13z" fill="#95d5b2"/><circle cx="32" cy="15" fill="#e9f1f2" r="4"/><path d="m34.52 24.37a5.564 5.564 0 0 1 -2.52.63c-4.42 0-8-5.78-8-10.12a7.62 7.62 0 0 1 .49-2.71 18.008 18.008 0 0 0 10.03 12.2z" fill="#52b788"/><path d="m32.54 18.96a3.272 3.272 0 0 1 -.54.04 4 4 0 0 1 -2.89-6.76 12.488 12.488 0 0 0 3.43 6.72z" fill="#d0d8da"/><circle cx="32" cy="17" fill="#93999a" r="2"/><path d="m32.51 18.93a1.7 1.7 0 0 1 -.51.07 2 2 0 0 1 -1.67-3.1 11.65 11.65 0 0 0 2.18 3.03z" fill="#656b76"/><path d="m61 29c0 5.52-12.98 10-29 10s-29-4.48-29-10a4.97 4.97 0 0 1 2.03-3.67 5.334 5.334 0 0 0 2.22 3.54l6.57-7.66c.06-.02.12-.03.18-.05v1.74a6 6 0 0 0 3.83 5.59 39.085 39.085 0 0 0 14.17 2.65 39.085 39.085 0 0 0 14.17-2.65 6.025 6.025 0 0 0 2.78-2.21l-4.98 8.11c7.75-.98 13.96-3.06 17-5.71a1.123 1.123 0 0 1 .03.32z" fill="#d0d8da"/><circle cx="32" cy="35" fill="#b8bebf" r="1"/><circle cx="38.804" cy="34.804" fill="#b8bebf" r="1"/><circle cx="45" cy="34" fill="#d0d8da" r="1"/><circle cx="50" cy="32" fill="#d0d8da" r="1"/><circle cx="54" cy="30" fill="#d0d8da" r="1"/><circle cx="54" cy="26" fill="#d0d8da" r="1"/><circle cx="25.196" cy="34.804" fill="#b8bebf" r="1"/><circle cx="19" cy="34" fill="#b8bebf" r="1"/><circle cx="14" cy="32" fill="#b8bebf" r="1"/><circle cx="10" cy="30" fill="#b8bebf" r="1"/><circle cx="10" cy="26" fill="#d0d8da" r="1"/><g fill="#fffa48"><path d="m46 18h-1v-1a1 1 0 0 0 -2 0v1h-1a1 1 0 0 0 0 2h1v1a1 1 0 0 0 2 0v-1h1a1 1 0 0 0 0-2z"/><path d="m55 7h-1v-1a1 1 0 0 0 -2 0v1h-1a1 1 0 0 0 0 2h1v1a1 1 0 0 0 2 0v-1h1a1 1 0 0 0 0-2z"/><path d="m10 13a1 1 0 0 0 0-2h-1v-1a1 1 0 0 0 -2 0v1h-1a1 1 0 0 0 0 2h1v1a1 1 0 0 0 2 0v-1z"/><circle cx="20" cy="21" r="1"/><circle cx="58" cy="18" r="1"/><circle cx="59" cy="5" r="1"/><circle cx="47" cy="5" r="1"/><circle cx="6" cy="6" r="1"/><circle cx="20" cy="15" r="1"/><circle cx="13" cy="6" r="1"/><circle cx="4" cy="18" r="1"/></g><path d="m44.81 33.02-.77 1.25a.8.8 0 0 1 -.04-.27 1.007 1.007 0 0 1 .81-.98z" fill="#b8bebf"/><path d="m45.99 34.1a.994.994 0 0 1 -1.91.28c.65-.09 1.29-.18 1.91-.28z" fill="#b8bebf"/><path d="m10.47 25.12a.991.991 0 0 1 .53.88 1 1 0 0 1 -1.8.6z" fill="#b8bebf"/><path d="m38 28v2.68c-.67.1-1.33.19-2 .26v-2.94a1 1 0 0 1 2 0z" fill="#52b788"/><path d="m28 28v2.94c-.67-.07-1.33-.16-2-.26v-2.68a1 1 0 0 1 2 0z" fill="#52b788"/></g></g></svg>