<svg id="Capa_1" enable-background="new 0 0 512 512" height="512" viewBox="0 0 512 512" width="512" xmlns="http://www.w3.org/2000/svg"><g><path d="m458.63 384-74.63 128h-256l-74.63-128 74.63-320h256z" fill="#462347"/><path d="m458.63 384-74.63 128h-128v-448h128z" fill="#2a1a2e"/><path d="m160 384h192v78.03h-192z" fill="#ffde45"/><path d="m256 384h96v78.03h-96z" fill="#ffb74a"/><path d="m400.66 448-16.66 64h-256l-19.9-64z" fill="#5f3463"/><path d="m400.66 448-16.66 64h-128v-64z" fill="#462347"/><path d="m128 280.447v-216.447h-64l-64 320 64 128h64v-24.445c0-43.853-24.776-83.943-64-103.555 39.223-19.612 64-59.7 64-103.553z" fill="#ff3d58"/><path d="m64 512v-24.445c0-43.853-24.776-83.943-64-103.555 39.223-19.611 64-59.7 64-103.553v-216.447l-64 .001v304.999l3.086 15-3.086 15.477v112.523z" fill="#ff8652"/><path d="m0 369h86.81v30h-86.81z" fill="#ffde45"/><path d="m448 64h-64v216.447c0 43.853 24.777 83.942 64 103.553-39.223 19.612-64 59.702-64 103.555v24.445h64l64-128z" fill="#c50045"/><path d="m448 512v-24.445c0-43.853 24.776-83.943 64-103.555-39.223-19.611-64-59.7-64-103.553v-216.447l64 .001v304.999l-3.086 15 3.086 15.477v112.523z" fill="#ff3d58"/><path d="m425.19 369h86.81v30h-86.81z" fill="#ffb74a"/><path d="m512 64c0 35.35-38.21 64-85.33 64-47.13 0-85.34-28.65-85.34-64 0 35.35-38.2 64-85.33 64s-85.33-28.65-85.33-64c0 35.35-38.21 64-85.34 64-47.12 0-85.33-28.65-85.33-64l256-24.2z" fill="#ffde45"/><path d="m512 64c0 35.35-38.21 64-85.33 64-47.13 0-85.34-28.65-85.34-64 0 35.35-38.2 64-85.33 64v-88.2z" fill="#ffb74a"/><path d="m0 0h512v64h-512z" fill="#ff3d58"/><path d="m256 0h256v64h-256z" fill="#c50045"/></g></svg>