<svg id="Capa_1" enable-background="new 0 0 512 512" height="512" viewBox="0 0 512 512" width="512" xmlns="http://www.w3.org/2000/svg"><g><path d="m416 49v207.04l-160 17.36-160-17.36v-207.04z" fill="#74ffe4"/><path d="m416 49v207.04l-160 17.36v-224.4z" fill="#00d5de"/><path d="m64 0h384v64h-384z" fill="#5f3463"/><path d="m256 0h192v64h-192z" fill="#462347"/><path d="m304 208v65.4h-96v-65.4c0-26.51 21.49-48 48-48 25.726-.018 47.995 21.072 48 48z" fill="#00d5de"/><path d="m304 208v65.4h-48v-113.4c25.726-.018 47.995 21.072 48 48z" fill="#008dbe"/><path d="m96 256.04h320v240.96h-320z" fill="#ff8652"/><path d="m256 256.04h160v240.96h-160z" fill="#ff3d58"/><path d="m352 350.14v67.76c-16.63 0-30.12 13.49-30.12 30.12h-131.76c0-16.63-13.49-30.12-30.12-30.12v-67.76c16.63 0 30.12-13.48 30.12-30.12h131.76c0 16.64 13.49 30.12 30.12 30.12z" fill="#ff3d58"/><path d="m352 350.14v67.76c-16.63 0-30.12 13.49-30.12 30.12h-65.88v-128h65.88c0 16.64 13.49 30.12 30.12 30.12z" fill="#c50045"/><path d="m64 482h384v30h-384z" fill="#5f3463"/><path d="m256 482h192v30h-192z" fill="#462347"/></g></svg>