<svg id="Capa_1" enable-background="new 0 0 512 512" height="512" viewBox="0 0 512 512" width="512" xmlns="http://www.w3.org/2000/svg"><g><path d="m288 393.645h-64l4.25-148.52h55.5z" fill="#ffb74a"/><path d="m288 393.645h-32v-148.52h27.75z" fill="#ff7c3f"/><path d="m212.25 180.185h87.5v75.2h-87.5z" fill="#ffde45"/><path d="m112 393.65h-64l4.249-148.522h55.502z" fill="#ffb74a"/><path d="m36.249 180.181h87.502v75.208h-87.502z" fill="#ffde45"/><path d="m32 383.389h96v75.364h-96z" fill="#ffde45"/><path d="m208 383.385h96v75.37h-96z" fill="#ffde45"/><path d="m256 180.185h43.75v75.2h-43.75z" fill="#ffb74a"/><path d="m256 383.385h48v75.37h-48z" fill="#ffb74a"/><path d="m464 393.65h-64l4.249-148.522h55.502z" fill="#ff7c3f"/><path d="m388.249 180.181h87.502v75.208h-87.502z" fill="#ffb74a"/><path d="m384 383.389h96v75.364h-96z" fill="#ffb74a"/><path d="m480 90.245v52.37h-448v-52.37l224-89.63z" fill="#ffde45"/><g fill="#ffb74a"><path d="m480 90.245v52.37h-224v-142z"/><path d="m0 127.385h512v64h-512z"/><path d="m0 447.385h512v64h-512z"/></g><path d="m256 127.385h256v64h-256z" fill="#ff7c3f"/><path d="m256 447.385h256v64h-256z" fill="#ff7c3f"/></g></svg>