<svg id="Capa_1" enable-background="new 0 0 512 512" height="512" viewBox="0 0 512 512" width="512" xmlns="http://www.w3.org/2000/svg"><g><path d="m160 15h192v451.89h-192z" fill="#ffb74a"/><path d="m256 15h96v451.89h-96z" fill="#ff7c3f"/><path d="m210.875 210.875h30v180.625h-30z" fill="#ffde45"/><path d="m271.125 210.875h30v180.625h-30z" fill="#ffb74a"/><path d="m128 433h256v64h-256z" fill="#ffde45"/><path d="m416 128c0 35.35-28.65 64-64 64s-64-28.65-64-64h-64c0 35.35-28.65 64-64 64s-64-28.65-64-64 28.65-64 64-64h192c35.35 0 64 28.65 64 64z" fill="#ffde45"/><path d="m144.98 112.98h30v30h-30z" fill="#ffb74a"/><path d="m135.5 0h241v30h-241z" fill="#ffde45"/><g fill="#ffb74a"><path d="m256 0h120.5v30h-120.5z"/><path d="m256 433h128v64h-128z"/><path d="m416 128c0 35.35-28.65 64-64 64s-64-28.65-64-64h-32v-64h96c35.35 0 64 28.65 64 64z"/><path d="m105.38 482h301.24v30h-301.24z"/></g><path d="m256 482h150.62v30h-150.62z" fill="#ff7c3f"/><path d="m337 112.98h30v30h-30z" fill="#ff7c3f"/></g></svg>