<svg id="Capa_1" enable-background="new 0 0 512 512" height="512" viewBox="0 0 512 512" width="512" xmlns="http://www.w3.org/2000/svg"><g><g><path d="m463.93 155.99-32 36.01c-54.1 37.32-115.01 55.98-175.93 55.98-60.91 0-121.83-18.66-175.93-55.98l-32-36.01 32-27.99c54.1 37.32 115.02 55.98 175.93 55.98 60.92 0 121.83-18.66 175.93-55.98z" fill="#ff3d58"/></g><path d="m463.93 155.99-32 36.01c-54.1 37.32-115.01 55.98-175.93 55.98v-64c60.92 0 121.83-18.66 175.93-55.98z" fill="#c50045"/><path d="m80.07 141-3.91 14.99 3.91 15v294.01h-64v-293.9l3.56-15.11-3.56-15v-64.05h64z" fill="#5f3463"/><path d="m80.07 141-3.91 14.99 3.91 15v294.01h-32v-388.06h32z" fill="#462347"/><circle cx="48.07" cy="32" fill="#ffde45" r="32"/><path d="m80.07 32c0 17.67-14.33 32-32 32v-64c17.67 0 32 14.33 32 32z" fill="#ffb74a"/><path d="m0 62h96.13v30h-96.13z" fill="#ffb74a"/><path d="m16.07 140.99h64v30h-64z" fill="#ff3d58"/><path d="m0 448.02h96.13v63.98h-96.13z" fill="#ffb74a"/><path d="m48.07 140.99h32v30h-32z" fill="#c50045"/><path d="m48.07 62h48.06v30h-48.06z" fill="#ff7c3f"/><path d="m48.07 448.02h48.06v63.98h-48.06z" fill="#ff7c3f"/><path d="m495.94 141-3.91 14.99 3.91 15v294.01h-64v-293.9l3.56-15.11-3.56-15v-64.05h64z" fill="#5f3463"/><path d="m495.94 141-3.91 14.99 3.91 15v294.01h-32v-388.06h32z" fill="#462347"/><circle cx="463.94" cy="32" fill="#ffde45" r="32"/><path d="m495.94 32c0 17.67-14.33 32-32 32v-64c17.67 0 32 14.33 32 32z" fill="#ffb74a"/><path d="m415.87 62h96.13v30h-96.13z" fill="#ffb74a"/><path d="m431.94 140.99h64v30h-64z" fill="#ff3d58"/><path d="m415.87 448.02h96.13v63.98h-96.13z" fill="#ffb74a"/><path d="m463.94 140.99h32v30h-32z" fill="#c50045"/><g fill="#ff7c3f"><path d="m463.94 62h48.06v30h-48.06z"/><path d="m463.94 448.02h48.06v63.98h-48.06z"/></g></g></svg>