<svg id="Capa_1" enable-background="new 0 0 512 512" height="512" viewBox="0 0 512 512" width="512" xmlns="http://www.w3.org/2000/svg"><g><path d="m371.19 443.71-19.27 68.29h-192l-19.23-68.28.76-68.29 44.41-67.83 70.14-74.99 70.18 75.08 44.29 67.74z" fill="#ff8652"/><path d="m371.19 443.71-19.27 68.29h-95.92v-279.39l70.18 75.08 44.29 67.74z" fill="#ff3d58"/><path d="m370.466 375.435-18.549 136.565h128z" fill="#ffb74a"/><path d="m170.5 125.932-59.636 23.227 30.59 226.27 114.546-142.819z" fill="#ffde45"/><path d="m31.917 512h128l-18.463-136.571z" fill="#ff3d58"/><path d="m102.162 15h30v48.091h-30z" fill="#462347"/><path d="m401.2 149.159-59.636-23.227-85.564 106.678 114.466 142.825z" fill="#c50045"/><path d="m379.873 15h30v48.091h-30z" fill="#2a1a2e"/><path d="m341.534 125.932 59.636 23.228 23.228-59.636c6.414-16.468-1.736-35.018-18.204-41.432-16.468-6.414-35.018 1.736-41.432 18.204z" fill="#462347"/><path d="m356.345 84.235h30v106.7h-30z" fill="#2a1a2e" transform="matrix(.363 -.932 .932 .363 108.369 433.676)"/><path d="m170.5 125.932-59.636 23.228-23.228-59.637c-6.414-16.468 1.736-35.018 18.204-41.432 16.468-6.414 35.018 1.736 41.432 18.204z" fill="#5f3463"/><path d="m87.34 122.585h106.7v30h-106.7z" fill="#462347" transform="matrix(.932 -.363 .363 .932 -40.341 60.441)"/><path d="m15 0h482v30h-482z" fill="#5f3463"/><path d="m256 0h241v30h-241z" fill="#462347"/><path d="m271 314.25h-30c0 33.22-27.03 60.25-60.25 60.25v30c33.22 0 60.25 27.03 60.25 60.25h30c0-33.22 27.03-60.25 60.25-60.25v-30c-33.22 0-60.25-27.03-60.25-60.25z" fill="#ffde45"/><path d="m331.25 374.5v30c-33.22 0-60.25 27.03-60.25 60.25h-15v-150.5h15c0 33.22 27.03 60.25 60.25 60.25z" fill="#ffb74a"/><path d="m30.132 331.375h30v30h-30z" fill="#ffde45"/><path d="m451.875 331.375h30v30h-30z" fill="#ffb74a"/><path d="m60.25 271.125h30v30h-30z" fill="#ffde45"/><path d="m421.75 271.125h30v30h-30z" fill="#ffb74a"/></g></svg>