<svg id="Capa_1" enable-background="new 0 0 512 512" height="512" viewBox="0 0 512 512" width="512" xmlns="http://www.w3.org/2000/svg"><g><path d="m74.99 458.23-53.78 53.77-10.6-10.6-10.61-10.61 53.77-53.78z" fill="#5f3463"/><path d="m74.99 458.23-53.78 53.77-10.6-10.6 53.77-53.78z" fill="#462347"/><path d="m155.09 407.03-76.58 70.4-21.97-21.97-21.97-21.97 70.4-76.58 25.06 25.06z" fill="#00d5de"/><path d="m155.09 407.03-76.58 70.4-21.97-21.97 73.49-73.49z" fill="#008dbe"/><path d="m335.59 265.69-174.8 159.46-36.97-36.97-36.97-36.97 159.46-174.8z" fill="#74ffe4"/><path d="m335.59 265.69-174.8 159.46-36.97-36.97 167.13-167.13z" fill="#00d5de"/><path d="m257.03 276.18-24.6 24.6-10.6-10.6-10.61-10.61 24.6-24.6 10.61 10.61z" fill="#5f3463"/><path d="m222.035 275.685h34.79v14.991h-34.79z" fill="#462347" transform="matrix(.707 -.707 .707 .707 -130.111 252.245)"/><path d="m478.04 197.92c-45.28 45.28-118.69 45.28-163.96 0-45.28-45.27-45.28-118.68 0-163.96 45.27-45.28 118.68-45.28 163.96 0s45.28 118.69 0 163.96z" fill="#5f3463"/><path d="m478.04 197.92c-45.28 45.28-118.69 45.28-163.96 0l163.96-163.96c45.28 45.28 45.28 118.69 0 163.96z" fill="#462347"/><path d="m501.94 200.61-21.21 21.22-95.28-95.28-95.28-95.28 21.22-21.21 95.28 95.28z" fill="#74ffe4"/><path d="m501.94 200.61-21.21 21.22-95.28-95.28 21.22-21.21z" fill="#00d5de"/><g><path d="m394.4 231.87-49.29 40.41c-21.32-14.34-40.48-30.03-57.92-47.47-17.43-17.42-33.12-36.6-47.47-57.92l40.41-49.29c14.35 21.32 32.25 42.71 51.91 62.36 19.65 19.66 41.04 37.56 62.36 51.91z" fill="#00d5de"/></g><path d="m394.4 231.87-49.29 40.41c-21.32-14.34-40.48-30.03-57.92-47.47l44.85-44.85c19.65 19.66 41.04 37.56 62.36 51.91z" fill="#008dbe"/></g></svg>