<svg id="Capa_1" enable-background="new 0 0 512 512" height="512" viewBox="0 0 512 512" width="512" xmlns="http://www.w3.org/2000/svg"><g><path d="m31.867 240 67.479-134.772c17.563-35.076 53.427-57.228 92.654-57.228v40.874c-19.057 0-35.923 12.334-41.699 30.495l-38.367 120.631-40.598 16z" fill="#e2dff5"/><path d="m400.066 240-38.367-120.631c-5.776-18.161-22.642-30.495-41.699-30.495v-40.874c39.227 0 75.091 22.151 92.653 57.227l67.48 134.773-32.133 18.426z" fill="#bebbde"/><path d="m512 271.87v160.26c-12.44 12.45-19.42 19.42-31.87 31.87h-183.64l-25.62-25.62h-29.74l-25.62 25.62h-183.64c-12.45-12.45-19.43-19.42-31.87-31.87v-160.26c12.44-12.45 19.42-19.43 31.87-31.87h448.26c12.45 12.44 19.43 19.42 31.87 31.87z" fill="#f4f2ff"/><path d="m512 271.87v160.26c-12.44 12.45-19.42 19.42-31.87 31.87h-183.64l-25.62-25.62h-14.87v-198.38h224.13c12.45 12.44 19.43 19.42 31.87 31.87z" fill="#e2dff5"/><path d="m200.242 405.973h-127.356c-6.997-6.997-10.92-10.92-17.916-17.916v-72.114c6.997-6.997 10.92-10.92 17.916-17.916h127.356l17.916 17.916v72.114c-6.996 6.996-10.919 10.919-17.916 17.916z" fill="#00d5de"/><path d="m439.114 405.973h-127.356c-6.997-6.997-10.92-10.92-17.916-17.916v-72.114l17.916-17.916h127.356l17.916 17.916v72.114c-6.996 6.996-10.919 10.919-17.916 17.916z" fill="#ff3d58"/></g></svg>