<svg id="Capa_1" enable-background="new 0 0 512 512" height="512" viewBox="0 0 512 512" width="512" xmlns="http://www.w3.org/2000/svg"><g><path d="m426.65 255.995c0 103.08-83.56 186.65-186.64 186.65s-186.65-83.57-186.65-186.65 83.57-186.64 186.65-186.64 186.64 83.56 186.64 186.64z" fill="#462347"/><path d="m426.65 255.995c0 103.08-83.56 186.65-186.64 186.65v-373.29c103.08 0 186.64 83.56 186.64 186.64z" fill="#2a1a2e"/><path d="m240.006 496.004h271.994v-64.012h-108.812z" fill="#462347"/><path d="m361.16 255.995c0 66.92-54.24 121.16-121.15 121.16-66.92 0-121.16-54.24-121.16-121.16 0-66.91 54.24-121.15 121.16-121.15 66.91 0 121.15 54.24 121.15 121.15z" fill="#5f3463"/><path d="m361.16 255.995c0 66.92-54.24 121.16-121.15 121.16v-242.31c66.91 0 121.15 54.24 121.15 121.15z" fill="#462347"/><path d="m240.01 15.995c-132.56 0-240.01 107.45-240.01 240s107.45 240.01 240.01 240.01c132.55 0 240-107.46 240-240.01s-107.45-240-240-240zm0 53.36c29.95 0 54.24 24.28 54.24 54.24s-24.29 82.33-54.24 82.33c-29.96 0-54.25-52.37-54.25-82.33s24.29-54.24 54.25-54.24zm-132.41 240.88c-29.95 0-54.24-24.28-54.24-54.24 0-29.95 24.29-54.24 54.24-54.24 29.96 0 82.33 24.29 82.33 54.24 0 29.96-52.37 54.24-82.33 54.24zm132.41 132.41c-29.96 0-54.25-24.29-54.25-54.24 0-29.96 24.29-82.33 54.25-82.33 29.95 0 54.24 52.37 54.24 82.33 0 29.95-24.29 54.24-54.24 54.24zm132.4-132.41c-29.96 0-82.33-24.28-82.33-54.24 0-29.95 52.37-54.24 82.33-54.24s54.24 24.29 54.24 54.24c0 29.96-24.28 54.24-54.24 54.24z" fill="#f4f2ff"/><path d="m240.01 15.995v53.36c29.95 0 54.24 24.28 54.24 54.24s-24.29 82.33-54.24 82.33v100.15c29.95 0 54.24 52.37 54.24 82.33 0 29.95-24.29 54.24-54.24 54.24v53.36c132.55 0 240-107.46 240-240.01s-107.45-240-240-240zm132.4 294.24c-29.96 0-82.33-24.28-82.33-54.24 0-29.95 52.37-54.24 82.33-54.24s54.24 24.29 54.24 54.24c0 29.96-24.28 54.24-54.24 54.24z" fill="#e2dff5"/><path d="m225.01 240.995h30v30h-30z" fill="#462347"/><path d="m240.01 240.995h15v30h-15z" fill="#2a1a2e"/></g></svg>