<svg id="Capa_1" enable-background="new 0 0 511.999 511.999" height="512" viewBox="0 0 511.999 511.999" width="512" xmlns="http://www.w3.org/2000/svg"><g><path d="m330.309 340.92c-7.11 7.11-16.7 10.99-27.79 11.89-16.84 1.37-29.44 15.69-28.73 32.56 1.45 34.19-9.89 67.46-34.47 92.03-50.25 50.26-136.82 45.16-193.35-11.37s-61.63-143.1-11.37-193.35c24.57-24.58 57.84-35.92 92.03-34.47 16.87.71 31.19-11.9 32.56-28.73.9-11.09 4.78-20.68 11.89-27.79 25.12-25.13 81.14-9.85 125.11 34.12s59.25 99.99 34.12 125.11z" fill="#ff8652"/><path d="m330.309 340.92c-7.11 7.11-16.7 10.99-27.79 11.89-16.84 1.37-29.44 15.69-28.73 32.56 1.45 34.19-9.89 67.46-34.47 92.03-50.25 50.26-136.82 45.16-193.35-11.37l250.22-250.22c43.97 43.97 59.25 99.99 34.12 125.11z" fill="#ff3d58"/><path d="m157.069 424.03-21.21 21.21-69.1-69.1 21.21-21.21 34.55 34.55z" fill="#5f3463"/><path d="m114.191 392.929h29.995v48.861h-29.995z" fill="#462347" transform="matrix(.707 -.707 .707 .707 -257.279 213.592)"/><path d="m474.759 149.04-21.21 21.22-55.9-55.9-55.91-55.91 21.22-21.21 55.9 55.9z" fill="#5f3463"/><path d="m511.999 101.07-21.21 21.22-101.08-101.08 21.22-21.21z" fill="#5f3463"/><path d="m421.203 92.173h30.003v79.055h-30.003z" fill="#462347" transform="matrix(.707 -.707 .707 .707 34.635 347.017)"/><path d="m511.999 101.07-21.21 21.22-50.54-50.54 21.22-21.21z" fill="#462347"/><path d="m409.439 148.14-188.06 188.07-22.79-22.79-22.8-22.8 188.07-188.06 22.79 22.79z" fill="#5f3463"/><path d="m171.032 214.665h265.964v32.23h-265.964z" fill="#462347" transform="matrix(.707 -.707 .707 .707 -74.141 282.574)"/><circle cx="175.529" cy="336.47" fill="#462347" r="50.657"/><path d="m211.349 372.29c-19.78 19.79-51.86 19.79-71.64 0l71.64-71.64c19.79 19.78 19.79 51.86 0 71.64z" fill="#2a1a2e"/><path d="m507.449 64.18-90.19 103.02-36.23-36.23-36.23-36.23 103.02-90.19z" fill="#ff8652"/><path d="m507.449 64.18-90.19 103.02-36.23-36.23 96.61-96.6z" fill="#ff3d58"/></g></svg>