<svg id="Capa_1" enable-background="new 0 0 512 512" height="512" viewBox="0 0 512 512" width="512" xmlns="http://www.w3.org/2000/svg"><g><path d="m481.88 256c0 60.33-23.5 117.06-66.16 159.72s-99.39 66.16-159.72 66.16-117.06-23.5-159.72-66.16-66.16-99.39-66.16-159.72 23.5-117.06 66.16-159.72 99.39-66.16 159.72-66.16c10.7 0 21.47.76 32 2.26l-4.22 29.7c-9.13-1.3-18.48-1.96-27.78-1.96-108.01 0-195.88 87.87-195.88 195.88s87.87 195.88 195.88 195.88 195.88-87.87 195.88-195.88c.02-9.4-.9-20.87-2.14-29.04l29.67-4.41c1.57 10.52 2.39 21.28 2.46 31.98z" fill="#00d5de"/><path d="m283.78 62.08c-9.13-1.3-18.48-1.96-27.78-1.96v-30c10.7 0 21.47.76 32 2.26z" fill="#008dbe"/><path d="m481.88 256c0 60.33-23.5 117.06-66.16 159.72s-99.39 66.16-159.72 66.16v-30c108.01 0 195.88-87.87 195.88-195.88.02-9.4-.9-20.87-2.14-29.04l29.67-4.41c1.57 10.52 2.39 21.28 2.46 31.98z" fill="#008dbe"/><circle cx="256" cy="256" fill="#ffde45" r="162.86"/><path d="m418.86 256c0 89.94-72.92 162.86-162.86 162.86v-325.72c89.94 0 162.86 72.92 162.86 162.86z" fill="#ffb74a"/><path d="m298.52 256c7.18 7.99 11.55 18.56 11.55 30.12 0 24.89-20.24 45.13-45.12 45.13h-17.9c-24.88 0-45.12-20.24-45.12-45.13h30c0 8.34 6.78 15.13 15.12 15.13h17.9c8.34 0 15.12-6.79 15.12-15.13 0-8.33-6.78-15.12-15.12-15.12h-22.72v-30h22.72c8.34 0 15.12-6.79 15.12-15.12 0-8.34-6.78-15.13-15.12-15.13h-17.9c-8.34 0-15.12 6.79-15.12 15.13h-30c0-24.89 20.24-45.13 45.12-45.13h17.9c24.88 0 45.12 20.24 45.12 45.13 0 11.56-4.37 22.13-11.55 30.12z" fill="#ff3d58"/><path d="m298.52 256c7.18 7.99 11.55 18.56 11.55 30.12 0 24.89-20.24 45.13-45.12 45.13h-8.95v-30h8.95c8.34 0 15.12-6.79 15.12-15.13 0-8.33-6.78-15.12-15.12-15.12h-8.95v-30h8.95c8.34 0 15.12-6.79 15.12-15.12 0-8.34-6.78-15.13-15.12-15.13h-8.95v-30h8.95c24.88 0 45.12 20.24 45.12 45.13 0 11.56-4.37 22.13-11.55 30.12z" fill="#c50045"/><path d="m241 0h30v150.5h-30z" fill="#5f3463"/><path d="m241 361.5h30v150.5h-30z" fill="#5f3463"/><path d="m256 0h15v150.5h-15z" fill="#462347"/><path d="m256 361.5h15v150.5h-15z" fill="#462347"/><path d="m361.5 241h150.5v30h-150.5z" fill="#462347"/><path d="m0 241h150.5v30h-150.5z" fill="#5f3463"/><g fill="#008dbe"><path d="m361.526 90.95c7.793 4.993 15.304 10.595 22.323 16.648l19.593-22.718c-8.09-6.978-16.748-13.434-25.731-19.19z"/><path d="m337.075 77.635c-8.433-3.839-17.212-7.101-26.096-9.693l8.404-28.799c10.255 2.993 20.39 6.757 30.123 11.189z"/><path d="m461.063 161.177-27.223 12.607c3.891 8.402 7.208 17.155 9.856 26.016l28.743-8.594c-3.057-10.228-6.885-20.331-11.376-30.029z"/><path d="m426.201 107.499-22.598 19.732c6.094 6.979 11.74 14.452 16.781 22.21l25.157-16.344c-5.811-8.943-12.317-17.555-19.34-25.598z"/></g></g></svg>