<svg id="Capa_1" enable-background="new 0 0 512 512" height="512" viewBox="0 0 512 512" width="512" xmlns="http://www.w3.org/2000/svg"><g><path d="m226.007 447.397c-4.363 0-8.766-.639-13.098-1.938l-90.375-27.113c-19.235-5.77-32.159-23.14-32.159-43.222v-49.836h30v49.836c0 6.731 4.332 12.553 10.779 14.487l90.375 27.113c4.627 1.388 9.501.53 13.375-2.353 3.874-2.882 6.096-7.305 6.096-12.134v-31.761h30v31.761c0 14.407-6.629 27.603-18.188 36.203-7.931 5.9-17.269 8.957-26.805 8.957z" fill="#462347"/><path d="m0 192h79.46v128h-79.46z" fill="#ff3d58"/><path d="m0 256h79.46v64h-79.46z" fill="#c50045"/><path d="m474.88 241h37.12v30h-37.12z" fill="#5f3463"/><path d="m474.88 256h37.12v15h-37.12z" fill="#462347"/><path d="m462.53 180.75h45.125v30h-45.125z" fill="#5f3463" transform="matrix(.892 -.452 .452 .892 -36.08 240.604)"/><path d="m470.093 293.687h30v45.125h-30z" fill="#462347" transform="matrix(.452 -.892 .892 .452 -16.389 605.811)"/><path d="m416 256-32 160-64-19.2-16.72-140.8 16.72-140.8 64-19.2z" fill="#ff3d58"/><path d="m416 256-32 160-64-19.2-16.72-140.8z" fill="#c50045"/><path d="m320 115.2v281.6l-256-76.8v-128z" fill="#f4f2ff"/><path d="m320 256v140.8l-256-76.8v-64z" fill="#e2dff5"/><path d="m384 64h64v384h-64z" fill="#f4f2ff"/><path d="m384 256h64v192h-64z" fill="#e2dff5"/></g></svg>