<svg id="Capa_1" enable-background="new 0 0 512.025 512.025" height="512" viewBox="0 0 512.025 512.025" width="512" xmlns="http://www.w3.org/2000/svg"><g><path d="m153.98 90.405h204.06v30h-204.06z" fill="#ffb74a"/><path d="m256.01 90.405h102.03v30h-102.03z" fill="#ff7c3f"/><path d="m180.76 45.15h30v321.25h-30z" fill="#5f3463"/><path d="m241.01 15.025h30v361.5h-30z" fill="#5f3463"/><path d="m256.01 15.025h15v361.5h-15z" fill="#462347"/><path d="m301.26 45.15h30v321.25h-30z" fill="#462347"/><path d="m391.51 461.975v50.05h-271v-50.05l33.04-44.94h204.92z" fill="#ffb74a"/><path d="m391.51 461.975v50.05h-135.5v-94.99h102.46z" fill="#ff7c3f"/><path d="m393.98 87.665c-.03 26.46 9.21 52.18 24.33 72.4 22.6 30.29 35.89 67.92 35.63 108.68-.64 98.99-83.9 178.68-182.85 178.68h-30.16c-98.93 0-182.21-79.69-182.85-178.68-.26-40.76 13.03-78.39 35.63-108.68 15.63-20.95 24.33-46.26 24.33-72.4-.77-33.33-24.33-59-60.91-57.64v-30c70.3-1.54 127.54 68.05 113.14 136.13-4.06 22.87-12.91 47.43-24.93 69.17-8.47 15.41-12.95 32.95-12.95 50.7-.21 58.16 48.85 105.7 110.21 105.41h26.82c57.69.28 110.26-43.53 110.21-105.41 0-17.75-4.48-35.29-12.97-50.73-12-21.71-20.85-46.27-24.91-69.14-12.83-67.93 38.5-135.88 113.14-136.13v30c-10.94 0-21.59 2.08-31.47 6.01-17.63 10.44-29.44 29.66-29.44 51.63z" fill="#ffde45"/><path d="m393.98 87.665c-.03 26.46 9.21 52.18 24.33 72.4 22.6 30.29 35.89 67.92 35.63 108.68-.64 98.99-83.9 178.68-182.85 178.68h-15.08v-85.99h13.41c57.69.28 110.26-43.53 110.21-105.41 0-17.75-4.48-35.29-12.97-50.73-12-21.71-20.85-46.27-24.91-69.14-12.83-67.93 38.5-135.88 113.14-136.13v30c-10.94 0-21.59 2.08-31.47 6.01-17.63 10.44-29.44 29.66-29.44 51.63z" fill="#ffb74a"/><path d="m57.135 80.695c-22.241 0-40.335-18.094-40.335-40.335s18.094-40.335 40.335-40.335 40.335 18.094 40.335 40.335-18.094 40.335-40.335 40.335z" fill="#ffb74a"/><path d="m454.89 80.695c-22.241 0-40.335-18.094-40.335-40.335s18.094-40.335 40.335-40.335 40.335 18.094 40.335 40.335-18.094 40.335-40.335 40.335z" fill="#ff7c3f"/></g></svg>