<svg id="Capa_1" enable-background="new 0 0 512.044 512.044" height="512" viewBox="0 0 512.044 512.044" width="512" xmlns="http://www.w3.org/2000/svg"><g><path d="m193.88 429.672h63.99v82.35h-63.99z" fill="#462347"/><path d="m225.88 429.672h31.99v82.35h-31.99z" fill="#2a1a2e"/><path d="m161.87 376.522h128.01v64h-128.01z" fill="#5f3463"/><path d="m225.88 376.522h64v64h-64z" fill="#462347"/><path d="m346.375 235.335h79.899v96h-79.899z" fill="#462347"/><path d="m416.045 235.335 64-48h31.999v192h-31.999l-64-48z" fill="#c50045"/><path d="m90.38 150.642v240.88h271v-240.88z" fill="#ff3d58"/><path d="m225.88 150.642h135.5v240.88h-135.5z" fill="#c50045"/><circle cx="346.375" cy="105.397" fill="#462347" r="90.375"/><circle cx="105.375" cy="165.647" fill="#5f3463" r="90.375"/><path d="m346.375.022c-58.104 0-105.375 47.271-105.375 105.375s47.271 105.375 105.375 105.375 105.375-47.271 105.375-105.375-47.271-105.375-105.375-105.375zm75.375 105.375c0 8.366-1.391 16.409-3.918 23.935l-41.457-23.935 41.457-23.935c2.527 7.526 3.918 15.569 3.918 23.935zm-150.75 0c0-8.366 1.391-16.409 3.918-23.935l41.457 23.935-41.457 23.935c-2.527-7.525-3.918-15.568-3.918-23.935zm131.801-49.898-41.426 23.917v-47.89c16.341 3.313 30.769 11.936 41.426 23.973zm-71.426-23.973v47.891l-41.426-23.917c10.657-12.038 25.085-20.661 41.426-23.974zm-41.426 123.769 41.426-23.917v47.891c-16.341-3.313-30.769-11.936-41.426-23.974zm71.426 23.974v-47.891l41.426 23.917c-10.657 12.038-25.085 20.661-41.426 23.974z" fill="#e2dff5"/><path d="m105.375 60.272c-58.104 0-105.375 47.271-105.375 105.375s47.271 105.375 105.375 105.375 105.375-47.271 105.375-105.375-47.271-105.375-105.375-105.375zm75.375 105.375c0 8.366-1.391 16.409-3.918 23.935l-41.457-23.935 41.457-23.935c2.527 7.526 3.918 15.569 3.918 23.935zm-150.75 0c0-8.366 1.391-16.409 3.918-23.935l41.457 23.935-41.457 23.935c-2.527-7.525-3.918-15.568-3.918-23.935zm131.801-49.898-41.426 23.917v-47.89c16.341 3.313 30.769 11.936 41.426 23.973zm-71.426-23.973v47.891l-41.426-23.917c10.657-12.038 25.085-20.661 41.426-23.974zm-41.426 123.769 41.426-23.917v47.891c-16.341-3.313-30.769-11.936-41.426-23.974zm71.426 23.974v-47.891l41.426 23.917c-10.657 12.038-25.085 20.661-41.426 23.974z" fill="#f4f2ff"/><path d="m196.88 301.272h104.24v30h-104.24z" fill="#ff8652"/><path d="m136.625 301.272h30v30h-30z" fill="#5f3463"/><path d="m196.88 241.022h104.24v30h-104.24z" fill="#ff8652"/><g fill="#ff3d58"><path d="m225.88 241.022h75.24v30h-75.24z"/><path d="m225.88 301.272h75.24v30h-75.24z"/></g></g></svg>