<svg id="Capa_1" enable-background="new 0 0 512 512" height="512" viewBox="0 0 512 512" width="512" xmlns="http://www.w3.org/2000/svg"><g><path d="m433.19 198.78-21.8 121.22-155.39 21.86h-.02l-154.5-21.86-22.72-121.24 27.8-166.77c3.07-18.46 19.05-31.99 37.76-31.99h223.35c18.72 0 34.69 13.54 37.77 32z" fill="#ff3d58"/><path d="m433.19 198.78-21.8 121.22-155.39 21.86v-341.86h111.67c18.72 0 34.69 13.54 37.77 32z" fill="#c50045"/><path d="m411.39 320-22.46 124.81h-264.06l-23.39-124.81z" fill="#5f3463"/><path d="m411.39 320-22.46 124.81h-132.93v-124.81z" fill="#462347"/><path d="m180.75 60.25h30v30h-30z" fill="#5f3463"/><path d="m241 60.25h30v30h-30z" fill="#5f3463"/><path d="m301.25 60.25h30v30h-30z" fill="#462347"/><path d="m150.625 180.75h30v30h-30z" fill="#5f3463"/><path d="m210.875 180.75h30v30h-30z" fill="#5f3463"/><path d="m271.125 180.75h30v30h-30z" fill="#462347"/><path d="m331.375 180.75h30v30h-30z" fill="#462347"/><path d="m150.625 120.5h30v30h-30z" fill="#5f3463"/><path d="m210.875 120.5h30v30h-30z" fill="#5f3463"/><path d="m271.125 120.5h30v30h-30z" fill="#462347"/><path d="m331.375 120.5h30v30h-30z" fill="#462347"/><path d="m180.75 241h30v30h-30z" fill="#5f3463"/><path d="m241 241h30v30h-30z" fill="#5f3463"/><g fill="#462347"><path d="m256 60.25h15v30h-15z"/><path d="m256 241h15v30h-15z"/><path d="m301.25 241h30v30h-30z"/></g><path d="m496.11 192v64c-8.83 0-16.83 3.58-22.63 9.37-5.79 5.79-9.37 13.79-9.37 22.63v224h-73.05l-22.95-32h-224.22l-22.95 32h-73.05v-224c0-17.67-14.33-32-32-32v-64h32c18.36 0 35.33 6.75 48.35 18.04 13.02 11.3 22.1 27.14 24.7 45.32l22.95 160.64h224.22l22.95-160.64c5.19-36.36 36.33-63.36 73.05-63.36z" fill="#ff8652"/><path d="m496.11 192v64c-8.83 0-16.83 3.58-22.63 9.37-5.79 5.79-9.37 13.79-9.37 22.63v224h-73.05l-22.95-32h-112.11v-64h112.11l22.95-160.64c5.19-36.36 36.33-63.36 73.05-63.36z" fill="#ff3d58"/></g></svg>