<svg id="Capa_1" enable-background="new 0 0 512 512" height="512" viewBox="0 0 512 512" width="512" xmlns="http://www.w3.org/2000/svg"><g><path d="m416 80h-96c-35.35 0-64 28.65-64 64 0-35.35-28.65-64-64-64h-96c-35.35 0-64 28.65-64 64v192h224 6 218v-192c0-35.35-28.65-64-64-64z" fill="#ff3d58"/><path d="m256 336h-112v-256h48c35.35 0 64 28.65 64 64z" fill="#c50045"/><path d="m32 304h448v64h-448z" fill="#5f3463"/><path d="m144 304h112v64h-112z" fill="#462347"/><path d="m480 144v192h-112v-256h48c35.35 0 64 28.65 64 64z" fill="#c50045"/><path d="m368 304h112v64h-112z" fill="#462347"/><path d="m110.1 135.56h67.8v30h-67.8z" fill="#5f3463"/><path d="m144 135.56h33.9v30h-33.9z" fill="#462347"/><path d="m334.1 135.56h67.8v30h-67.8z" fill="#5f3463"/><path d="m368 135.56h33.9v30h-33.9z" fill="#462347"/><path d="m0 240h64v192h-64z" fill="#ffde45"/><path d="m224 240h64v192h-64z" fill="#ffde45"/><g fill="#ffb74a"><path d="m256 240h32v192h-32z"/><path d="m448 240h64v192h-64z"/></g></g></svg>