<svg id="Capa_1" enable-background="new 0 0 512 512" height="512" viewBox="0 0 512 512" width="512" xmlns="http://www.w3.org/2000/svg"><g><path d="m480 384v128h-81l-15-15-15 15h-98l-15-15-15 15h-98l-15-15-15 15h-81v-128l224-10.86h.01z" fill="#f4f2ff"/><g fill="#e2dff5"><path d="m480 384v128h-81l-15-15-15 15h-98l-15-15v-123.86h.01z"/><path d="m113 448h30v64h-30z"/><path d="m241 448h30v64h-30z"/></g><path d="m256 448h15v64h-15z" fill="#bebbde"/><path d="m369 448h30v64h-30z" fill="#bebbde"/><path d="m96.001 373.139h64v86.009h-64z" fill="#462347"/><path d="m224 373.14h64v86.01h-64z" fill="#462347"/><path d="m256 373.14h32v86.01h-32z" fill="#2a1a2e"/><path d="m352 373.139h64v86.009h-64z" fill="#2a1a2e"/><path d="m480 304.03v15.97l-224 11.31-224-11.31v-176c0-39.76 16.12-75.76 42.18-101.82s62.06-42.18 101.82-42.18c29.6 0 57.12 8.93 80 24.26 38.59 25.82 64 69.81 64 119.74v.03c-.11 44.18 36.28 80.07 80 80 44.18 0 80 35.82 80 80z" fill="#5f3463"/><path d="m480 304.03v15.97l-224 11.31v-307.05c38.59 25.82 64 69.81 64 119.74v.03c-.11 44.18 36.28 80.07 80 80 44.18 0 80 35.82 80 80z" fill="#462347"/><path d="m32 320h448v64h-448z" fill="#ff8652"/><path d="m256 320h224v64h-224z" fill="#ff3d58"/></g></svg>