<svg id="Capa_1" enable-background="new 0 0 512 512" height="512" viewBox="0 0 512 512" width="512" xmlns="http://www.w3.org/2000/svg"><g><path d="m512 141.03v319.97h-256l-22.206-159.985 22.206-159.985z" fill="#c50045"/><path d="m0 141.03h256v319.97h-256z" fill="#ff3d58"/><g fill="#462347"><path d="m301.25 256.311h150.5v30h-150.5z"/><path d="m301.25 316.583h150.5v30h-150.5z"/><path d="m301.25 376.854h150.5v30h-150.5z"/></g><path d="m208 51h96v160h-96z" fill="#f4f2ff"/><path d="m256 51h48v160h-48z" fill="#e2dff5"/><path d="m172.75 196.08h166.5v30h-166.5z" fill="#5f3463"/><path d="m256 196.08h83.25v30h-83.25z" fill="#462347"/><path d="m103.159 403.962-21.781-15.825 6.176-36.012-26.163-25.503 8.318-25.606 36.159-5.254 16.17-32.765h26.924l16.171 32.765 36.158 5.254 8.318 25.606-26.163 25.503 6.177 36.013-21.783 15.824-32.34-17.002z" fill="#ffde45"/></g></svg>