<svg id="Capa_1" enable-background="new 0 0 512 512" height="512" viewBox="0 0 512 512" width="512" xmlns="http://www.w3.org/2000/svg"><g><path d="m170.083 173.755 21.425 338.242h64.492l6-338.242z" fill="#ff3d58"/><path d="m256 173.755v338.242h64.492l21.425-338.242z" fill="#c50045"/><path d="m191.51 512h-63.51l-10.59-111.98 4.44-48-13.53-48-12.32-130.27h80.08z" fill="#ff8652"/><path d="m416 173.75-12.32 130.27-16.636 48 7.546 48-10.59 111.98h-63.51l15.43-338.25z" fill="#ff3d58"/><path d="m403.68 304.02-9.09 96h-277.18l-9.09-96z" fill="#ffde45"/><path d="m403.68 304.02-9.09 96h-138.59v-96z" fill="#ffb74a"/><path d="m270.333 79.674-28.666-8.848 21.86-70.826h71.319v30h-49.182z" fill="#00d5de"/><path d="m416 128-160 24.9-160-24.9 32-64h256z" fill="#ffde45"/><path d="m416 128-160 24.9v-88.9h128z" fill="#ffb74a"/><path d="m64.001 128h383.999v64h-383.999z" fill="#5f3463"/></g></svg>