<svg id="Capa_1" enable-background="new 0 0 512 512" height="512" viewBox="0 0 512 512" width="512" xmlns="http://www.w3.org/2000/svg"><g><path d="m331.38 75.25c.07 8.79-8.31 15.35-15.13 15.23-8.33 0-15.11-6.76-15.13-15.09v-.17l-30 .03c.06 8.75-8.16 15.27-15.01 15.23-8.84.04-15.44-8.31-15.23-15.26l-30-.13c.21 8.82-8.28 15.53-15.13 15.39-8.34 0-15.13-6.78-15.13-15.12l-30 180.64 30 180.64c0-8.34 6.79-15.12 15.13-15.12 8.78-.08 15.36 8.47 15.13 15.39l30-.13c-.22-8.76 8.36-15.39 15.23-15.26 8.68-.04 15.16 8.45 15.01 15.23l30 .03v-.17c.02-8.33 6.8-15.09 15.13-15.09 8.72-.11 15.28 8.42 15.13 15.23l30-180.75c0-.06-30-180.75-30-180.75z" fill="#462347"/><path d="m361.38 256-30 180.75c.15-6.81-6.41-15.34-15.13-15.23-8.33 0-15.11 6.76-15.13 15.09v.17l-30-.03c.15-6.78-6.33-15.27-15.01-15.23-6.87-.13-15.45 6.5-15.23 15.26l-30 .13c.23-6.92-6.35-15.47-15.13-15.39-8.34 0-15.13 6.78-15.13 15.12l-30-180.64z" fill="#2a1a2e"/><path d="m210.88 75.25h30v361.5h-30z" fill="#5f3463"/><path d="m140.68 75.25h39.94v361.5h-39.94z" fill="#5f3463"/><path d="m271.12 75.25h30v361.5h-30z" fill="#5f3463"/><path d="m331.37 75.25h41.27v361.5h-41.27z" fill="#5f3463"/><g fill="#462347"><path d="m140.68 256h39.94v180.75h-39.94z"/><path d="m210.88 256h30v180.75h-30z"/><path d="m271.12 256h30v180.75h-30z"/><path d="m331.37 256h41.27v180.75h-41.27z"/></g><path d="m0 64.12h150.62v383.76h-150.62z" fill="#ff3d58"/><path d="m0 256h150.62v191.88h-150.62z" fill="#c50045"/><path d="m41.125 120.282h30v30h-30z" fill="#ff8652"/><path d="m41.125 180.641h30v30h-30z" fill="#ff8652"/><path d="m41.12 241h30v30h-30z" fill="#ff8652"/><path d="m41.12 256h30v15h-30z" fill="#ff3d58"/><path d="m41.125 301.358h30v30h-30z" fill="#ff3d58"/><path d="m41.125 361.717h30v30h-30z" fill="#ff3d58"/><path d="m90.25 150.296h30v30h-30z" fill="#ff8652"/><path d="m512 64.12v383.76h-95.44l-20.79-191.88 20.79-191.88z" fill="#f4f2ff"/><path d="m512 256v191.88h-95.44l-20.79-191.88z" fill="#e2dff5"/><path d="m90.25 210.655h30v30h-30z" fill="#ff8652"/><path d="m90.25 271.013h30v30h-30z" fill="#ff3d58"/><path d="m90.25 331.372h30v30h-30z" fill="#ff3d58"/><path d="m406.625 180.641h65.057v30h-65.057z" fill="#462347"/><path d="m406.625 120.391h65.057v30h-65.057z" fill="#462347"/><path d="m406.62 241h65.06v30h-65.06z" fill="#462347"/><path d="m406.62 256h65.06v15h-65.06z" fill="#2a1a2e"/><path d="m406.625 301.359h65.057v30h-65.057z" fill="#2a1a2e"/><path d="m406.625 361.717h65.057v30h-65.057z" fill="#2a1a2e"/><path d="m361.38 64.12h55.18v383.76h-55.18z" fill="#ff3d58"/><path d="m361.38 256h55.18v191.88h-55.18z" fill="#c50045"/></g></svg>