<svg id="Capa_1" enable-background="new 0 0 512 512" height="512" viewBox="0 0 512 512" width="512" xmlns="http://www.w3.org/2000/svg"><g><path d="m298.34 192-10.25 320h-64l-10.25-320z" fill="#ff8652"/><path d="m298.34 192-10.25 320h-32.09v-320z" fill="#ff3d58"/><path d="m137.865 191.999 22.044 320h64.182l-4.249-320z" fill="#ff3d58"/><path d="m432 112c0 5.61-.96 11-2.73 16l-81.34 101.16h-183.74l-81.46-101.16c-1.77-5-2.73-10.39-2.73-16 0-26.51 21.49-48 48-48 5.64 0 11.05.98 16.07 2.77 1.36-25.3 22.3-45.39 47.93-45.39 7.61 0 14.8 1.77 21.19 4.92 7.92-15.6 24.11-26.3 42.81-26.3s34.89 10.7 42.81 26.3c6.39-3.15 13.58-4.92 21.19-4.92 25.63 0 46.57 20.09 47.93 45.39 5.02-1.79 10.43-2.77 16.07-2.77 26.51 0 48 21.49 48 48z" fill="#ffde45"/><path d="m432 112c0 5.61-.96 11-2.73 16l-81.34 101.16h-91.93v-229.16c18.7 0 34.89 10.7 42.81 26.3 6.39-3.15 13.58-4.92 21.19-4.92 25.63 0 46.57 20.09 47.93 45.39 5.02-1.79 10.43-2.77 16.07-2.77 26.51 0 48 21.49 48 48z" fill="#ffb74a"/><path d="m202.875 84.375h30v30h-30z" fill="#ffb74a"/><path d="m292.34 191.999-4.249 320h64l22.049-320z" fill="#c50045"/><path d="m368.13 335.56-5.14 96h-213.98l-5.14-96z" fill="#ffde45"/><path d="m256 335.56h112.13l-5.14 96h-106.99z" fill="#ffb74a"/><path d="m279.125 84.375h30v30h-30z" fill="#ff8652"/><path d="m241 130.5h30v30h-30z" fill="#ffb74a"/><path d="m256 130.5h15v30h-15z" fill="#ff8652"/><path d="m64.092 191.999 32 320h63.817l-16.044-320z" fill="#ff8652"/><path d="m368.14 191.999-16.049 320h63.817l32-320z" fill="#ff3d58"/><path d="m480 128v64h-83.07l-32 64h-217.86l-32-64h-83.07v-64h121.45l32 64h141.11l32-64z" fill="#5f3463"/><path d="m480 128v64h-83.07l-32 64h-108.93v-64h70.56l32-64z" fill="#462347"/></g></svg>