<svg id="Capa_1" enable-background="new 0 0 512 512" height="512" viewBox="0 0 512 512" width="512" xmlns="http://www.w3.org/2000/svg"><g><path d="m96 81h250.38v30h-250.38z" fill="#5f3463"/><path d="m23.5 241.86h465v220.28h-465z" fill="#ffde45"/><path d="m256 241.86h232.5v220.28h-232.5z" fill="#ffb74a"/><path d="m488.5 448v14.14h-465v-14.57l77.53-191.57 77.48 192 77.49-192 77.49 192 77.48-192z" fill="#ff3d58"/><path d="m488.5 448v14.14h-232.5v-206.14l77.49 192 77.48-192z" fill="#c50045"/><path d="m0 448h512v64h-512z" fill="#5f3463"/><path d="m256 448h256v64h-256z" fill="#462347"/><path d="m0 192h512v64h-512z" fill="#5f3463"/><path d="m256 192h256v64h-256z" fill="#462347"/><circle cx="96" cy="96" fill="#ffde45" r="32"/><path d="m165.62 17h250.09v30h-250.09z" fill="#5f3463"/><path d="m256 81h90.38v30h-90.38z" fill="#462347"/><path d="m256 17h159.71v30h-159.71z" fill="#462347"/><circle cx="415.706" cy="32" fill="#ffb74a" r="32"/></g></svg>