<svg id="Capa_1" enable-background="new 0 0 512 512" height="512" viewBox="0 0 512 512" width="512" xmlns="http://www.w3.org/2000/svg"><g><path d="m480 0v288c0 123.71-100.29 224-224 224s-224-100.29-224-224v-288h52.47c28.91 0 57.71 3.55 85.76 10.56 28.15 7.04 56.96 10.56 85.77 10.56s57.62-3.52 85.77-10.56c27.037-6.768 56.712-10.595 85.76-10.56z" fill="#74ffe4"/><g fill="#00d5de"><path d="m480 0v288c0 123.71-100.29 224-224 224v-490.88c28.81 0 57.62-3.52 85.77-10.56 27.037-6.768 56.712-10.595 85.76-10.56z"/><path d="m217.797 198.358s-25.876-38.531-57.796-38.531-57.796 38.531-57.796 38.531 25.875 38.531 57.795 38.531 57.797-38.531 57.797-38.531z"/><path d="m112.997 140.211-15.252-25.834c22.855-13.494 45.694-20.336 67.88-20.336s45.023 6.842 67.879 20.335l-15.252 25.834c-18.173-10.729-35.879-16.169-52.627-16.169s-34.455 5.441-52.628 16.17z"/></g><path d="m409.797 198.358s-25.876-38.531-57.796-38.531-57.796 38.531-57.796 38.531 25.876 38.531 57.796 38.531 57.796-38.531 57.796-38.531z" fill="#008dbe"/><path d="m293.748 140.211-15.253-25.834c22.855-13.494 45.694-20.336 67.881-20.336 22.186 0 45.023 6.842 67.879 20.335l-15.252 25.834c-18.173-10.729-35.879-16.169-52.627-16.169-16.749 0-34.456 5.441-52.628 16.17z" fill="#008dbe"/><path d="m379.97 320c-7.11 27.6-23.19 51.6-44.95 68.7s-49.2 27.3-79.02 27.3c-59.64 0-109.76-40.79-123.97-96 40.65 10.5 82.31 15.74 123.97 15.74s83.32-5.24 123.97-15.74z" fill="#00d5de"/><path d="m379.97 320c-7.11 27.6-23.19 51.6-44.95 68.7s-49.2 27.3-79.02 27.3v-80.26c41.66 0 83.32-5.24 123.97-15.74z" fill="#008dbe"/></g></svg>