<svg id="Capa_1" enable-background="new 0 0 512 512" height="512" viewBox="0 0 512 512" width="512" xmlns="http://www.w3.org/2000/svg"><g><path d="m451.876 139.616h-44.25-.127c-16.61 0-30.124-13.514-30.124-30.124 0-10.442 8.496-18.938 18.938-18.938h44.25c26.985 0 48.938-21.954 48.938-48.939v-22.48h-64v22.48c0 10.443-8.496 18.939-18.938 18.939h-44.25c-26.985 0-48.938 21.954-48.938 48.938 0 33.152 26.972 60.124 60.124 60.124h44.25.127c16.61 0 30.124 13.513 30.124 30.123v30.206l32 12.341 32-12.338v-30.209c0-33.153-26.972-60.123-60.124-60.123z" fill="#bebbde"/><path d="m464.86 277.947-16.86 48h-320l-17.44-48 17.44-48h320z" fill="#f4f2ff"/><path d="m464.86 277.947-16.86 48h-192v-96h192z" fill="#e2dff5"/><path d="m0 229.948h128v95.997h-128z" fill="#ffb74a"/><path d="m448 229.948h64v95.997h-64z" fill="#c50045"/><path d="m241.002-26.836h29.995v596.445h-29.995z" fill="#ff3d58" transform="matrix(.707 -.707 .707 .707 -116.919 260.507)"/><path d="m477.48 471.657-21.21 21.21-200.27-200.27v-42.42z" fill="#c50045"/></g></svg>