<svg id="Capa_1" enable-background="new 0 0 512 512" height="512" viewBox="0 0 512 512" width="512" xmlns="http://www.w3.org/2000/svg"><g><path d="m480 0v288c0 123.71-100.29 224-224 224s-224-100.29-224-224v-288h52.47c28.91 0 57.71 3.55 85.76 10.56 28.15 7.04 56.96 10.56 85.77 10.56s57.62-3.52 85.77-10.56c27.037-6.768 56.712-10.595 85.76-10.56z" fill="#ff8652"/><g fill="#ff3d58"><path d="m480 0v288c0 123.71-100.29 224-224 224v-490.88c28.81 0 57.62-3.52 85.77-10.56 27.037-6.768 56.712-10.595 85.76-10.56z"/><path d="m217.797 198.358s-25.876-38.531-57.796-38.531-57.796 38.531-57.796 38.531 25.875 38.531 57.795 38.531 57.797-38.531 57.797-38.531z"/><path d="m165.625 136.294c-22.187 0-45.025-6.842-67.88-20.336l15.252-25.834c18.173 10.729 35.88 16.17 52.628 16.17s34.455-5.44 52.627-16.17l15.253 25.834c-22.855 13.494-45.693 20.336-67.88 20.336z"/></g><path d="m409.797 198.358s-25.876-38.531-57.796-38.531-57.796 38.531-57.796 38.531 25.876 38.531 57.796 38.531 57.796-38.531 57.796-38.531z" fill="#c50045"/><path d="m346.375 136.294c-22.187 0-45.024-6.842-67.88-20.336l15.252-25.834c18.173 10.729 35.88 16.17 52.628 16.17s34.455-5.44 52.628-16.17l15.252 25.834c-22.855 13.494-45.693 20.336-67.88 20.336z" fill="#c50045"/><path d="m379.97 384c-40.65-10.5-82.31-15.74-123.97-15.74s-83.32 5.24-123.97 15.74c14.21-55.21 64.33-96 123.97-96 29.82 0 57.26 10.2 79.02 27.3s37.84 41.1 44.95 68.7z" fill="#ff3d58"/><path d="m379.97 384c-40.65-10.5-82.31-15.74-123.97-15.74v-80.26c29.82 0 57.26 10.2 79.02 27.3s37.84 41.1 44.95 68.7z" fill="#c50045"/></g></svg>