<svg id="Capa_1" enable-background="new 0 0 512 512" height="512" viewBox="0 0 512 512" width="512" xmlns="http://www.w3.org/2000/svg"><g><path d="m241 66.59h30v52.7h-30z" fill="#5f3463"/><path d="m256 66.59h15v52.7h-15z" fill="#462347"/><path d="m463 304v25.37c0 38.4-31.23 69.63-69.63 69.63h-50.74c-18.6 0-36.09-7.24-49.24-20.39-6.14-6.14-13.94-10.02-22.39-11.21v93.82h-30v-93.82c-8.45 1.19-16.25 5.07-22.39 11.21-13.15 13.15-30.64 20.39-49.24 20.39h-50.74c-38.4 0-69.63-31.23-69.63-69.63v-25.37h30v25.37c0 21.85 17.78 39.63 39.63 39.63h50.74c10.59 0 20.54-4.12 28.02-11.61 11.82-11.81 27.14-18.84 43.61-20.15v-62.46h30v62.46c16.48 1.31 31.79 8.34 43.61 20.15 7.48 7.49 17.43 11.61 28.02 11.61h50.74c21.85 0 39.63-17.78 39.63-39.63v-25.37z" fill="#5f3463"/><path d="m463 304v25.37c0 38.4-31.23 69.63-69.63 69.63h-50.74c-18.6 0-36.09-7.24-49.24-20.39-6.14-6.14-13.94-10.02-22.39-11.21v93.82h-15v-186.44h15v62.46c16.48 1.31 31.79 8.34 43.61 20.15 7.48 7.49 17.43 11.61 28.02 11.61h50.74c21.85 0 39.63-17.78 39.63-39.63v-25.37z" fill="#462347"/><path d="m224 106.49h64v136.69h-64z" fill="#ff3d58"/><path d="m256 106.49h32v136.69h-32z" fill="#c50045"/><path d="m49 102.767h30v44.348h-30z" fill="#5f3463"/><g fill="#ffde45"><path d="m320 224v33.88c0 16.63-13.49 30.12-30.12 30.12h-67.76c-16.63 0-30.12-13.49-30.12-30.12v-33.88z"/><path d="m320 478.12v33.88h-128v-33.88c0-16.63 13.49-30.12 30.12-30.12h67.76c16.63 0 30.12 13.49 30.12 30.12z"/><path d="m288 47.39c0 17.67-14.33 32-32 32s-32-14.33-32-32c0-17.68 32-47.39 32-47.39s32 29.71 32 47.39z"/></g><path d="m433 102.767h30v44.348h-30z" fill="#462347"/><path d="m256 79.39v-79.39s32 29.71 32 47.39c0 17.67-14.33 32-32 32z" fill="#ffb74a"/><path d="m320 224v33.88c0 16.63-13.49 30.12-30.12 30.12h-33.88v-64z" fill="#ffb74a"/><path d="m320 478.12v33.88h-64v-64h33.88c16.63 0 30.12 13.49 30.12 30.12z" fill="#ffb74a"/><path d="m32 138.495h64v136.29h-64z" fill="#ff3d58"/><path d="m97.875 320h-67.75c-16.638 0-30.125-13.487-30.125-30.125v-33.875h128v33.875c0 16.638-13.487 30.125-30.125 30.125z" fill="#ffde45"/><path d="m32 79.386c0-17.673 32-47.386 32-47.386s32 29.713 32 47.386-14.327 32-32 32-32-14.327-32-32z" fill="#ffde45"/><path d="m416 138.495h64v136.29h-64z" fill="#c50045"/><path d="m481.875 320h-67.75c-16.638 0-30.125-13.487-30.125-30.125v-33.875h128v33.875c0 16.638-13.487 30.125-30.125 30.125z" fill="#ffb74a"/><path d="m416 79.386c0-17.673 32-47.386 32-47.386s32 29.713 32 47.386-14.327 32-32 32-32-14.327-32-32z" fill="#ffb74a"/></g></svg>