<svg id="Capa_1" enable-background="new 0 0 512 512" height="512" viewBox="0 0 512 512" width="512" xmlns="http://www.w3.org/2000/svg"><g><path d="m448 200-23.16 64 23.16 64v120l-192 18.87-192-18.87v-120l18.76-64-18.76-64v-120l192-13.41 192 13.41z" fill="#00d5de"/><path d="m448 200-23.16 64 23.16 64v120l-192 18.87v-400.28l192 13.41z" fill="#008dbe"/><path d="m448 80h-384l53.38-64h277.24z" fill="#e2dff5"/><path d="m448 80h-192v-64h138.62z" fill="#bebbde"/><path d="m69.44 0h373.12v30h-373.12z" fill="#f4f2ff"/><path d="m256 0h186.56v30h-186.56z" fill="#e2dff5"/><path d="m448 448-53.38 64h-277.24l-53.38-64z" fill="#e2dff5"/><path d="m448 448-53.38 64h-138.62v-64z" fill="#bebbde"/><path d="m448 200v128h-100.08c-20.24 29.01-53.86 48-91.92 48s-71.68-18.99-91.92-48h-100.08v-128h100.08c20.24-29.01 53.86-48 91.92-48s71.68 18.99 91.92 48z" fill="#74ffe4"/><path d="m448 200v128h-100.08c-20.24 29.01-53.86 48-91.92 48v-224c38.06 0 71.68 18.99 91.92 48z" fill="#00d5de"/><path d="m120.5 249h30v30h-30z" fill="#00d5de"/><path d="m361.5 249h30v30h-30z" fill="#008dbe"/><path d="m180.75 249h150.5v30h-150.5z" fill="#00d5de"/><path d="m256 249h75.25v30h-75.25z" fill="#008dbe"/></g></svg>