<svg id="Capa_1" enable-background="new 0 0 512 512" height="512" viewBox="0 0 512 512" width="512" xmlns="http://www.w3.org/2000/svg"><g><path d="m418.08 367.25c-1.37 21.44-2.08 42.93-2.08 64.43l-160 65.32-160-65.32c0-21.5-.71-42.99-2.08-64.43z" fill="#ff3d58"/><path d="m418.08 367.25c-1.37 21.44-2.08 42.93-2.08 64.43l-160 65.32v-129.75z" fill="#c50045"/><path d="m480.36 32.28-39.98 178.73c-11.51 51.45-18.95 103.69-22.3 156.24-53.66 11.16-107.87 16.74-162.08 16.74s-108.42-5.58-162.08-16.74c-3.35-52.55-10.79-104.79-22.3-156.24l-39.98-178.73c73.8-21.52 149.08-32.28 224.36-32.28s150.56 10.76 224.36 32.28z" fill="#5f3463"/><path d="m480.36 32.28-39.98 178.73c-11.51 51.45-18.95 103.69-22.3 156.24-53.66 11.16-107.87 16.74-162.08 16.74v-383.99c75.28 0 150.56 10.76 224.36 32.28z" fill="#462347"/><g><path d="m480.36 415.72v64c-73.8 21.52-149.08 32.28-224.36 32.28s-150.56-10.76-224.36-32.28v-64c73.8 21.52 149.08 32.28 224.36 32.28s150.56-10.76 224.36-32.28z" fill="#5f3463"/></g><path d="m480.36 415.72v64c-73.8 21.52-149.08 32.28-224.36 32.28v-64c75.28 0 150.56-10.76 224.36-32.28z" fill="#462347"/><path d="m330.11 208.67-8.32-25.6-36.16-5.26-16.17-32.76h-26.92l-16.17 32.76-36.16 5.26-8.32 25.6 26.16 25.51-6.17 36.01 21.78 15.83 32.34-17.01 32.34 17.01 21.78-15.83-6.17-36.01z" fill="#ffde45"/><path d="m303.95 234.18 6.17 36.01-21.78 15.83-32.34-17.01v-123.96h13.46l16.17 32.76 36.16 5.26 8.32 25.6z" fill="#ffb74a"/></g></svg>