<svg id="Capa_1" enable-background="new 0 0 512.08 512.08" height="512" viewBox="0 0 512.08 512.08" width="512" xmlns="http://www.w3.org/2000/svg"><g><path d="m435.42 389.33-206.33 58.17-65.63-1.01-58.15 35.91-105.27 29.68.03-.11 61.69-215.96 36.08-46.95-7.91-51.68 34.11-119.43 178.18 131.87.76.56 21.09 28.5 61.2 82.69z" fill="#ffde45"/><path d="m435.42 389.33-206.33 58.17-65.63-1.01-58.15 35.91-105.27 29.68.03-.11 302.15-302.15.76.56 21.09 28.5 61.2 82.69z" fill="#ffb74a"/><g><path d="m512.04 21.21-10.6-10.6-10.61-10.61c-11.38 11.38-26.51 17.65-42.61 17.65-16.09 0-31.22-6.27-42.6-17.65l-21.21 21.21c11.38 11.38 17.64 26.51 17.64 42.61 0 16.09-6.26 31.22-17.64 42.6l21.21 21.21c23.49-23.49 61.72-23.49 85.21 0l21.21-21.21c-23.49-23.49-23.49-61.71 0-85.21z" fill="#ffde45"/><path d="m512.04 106.42-21.21 21.21c-23.49-23.49-61.72-23.49-85.21 0l-10.6-10.6 106.42-106.42 10.6 10.6c-23.49 23.5-23.49 61.72 0 85.21z" fill="#ffb74a"/><path d="m382.62 150.63-21.21 21.21-10.6-10.6-10.61-10.61 21.21-21.22 10.61 10.61z" fill="#5f3463"/><path d="m351.715 148.435h29.999v14.994h-29.999z" fill="#462347" transform="matrix(.707 -.707 .707 .707 -2.853 304.978)"/><path d="m316.007 127.491-20.135-22.238c17.428-15.779 27.788-31.769 31.671-48.881l29.256 6.639c-5.22 23.007-18.945 44.701-40.792 64.48z" fill="#ff3d58"/><path d="m330.596 0h30v32.198h-30z" fill="#5f3463"/><path d="m406.788 216.168-22.239-20.135c19.78-21.848 41.475-35.572 64.481-40.792l6.639 29.256c-17.113 3.883-33.102 14.242-48.881 31.671z" fill="#c50045"/><path d="m479.842 151.444h32.198v30h-32.198z" fill="#462347"/><path d="m270.195 80.936-20.903-21.52c14.432-14.019 22.312-35.606 21.077-57.746l29.953-1.67c1.712 30.691-9.551 60.948-30.127 80.936z" fill="#00d5de"/><path d="m452.624 262.748-21.519-20.902c19.986-20.575 50.234-31.842 80.935-30.128l-1.669 29.953c-22.137-1.222-43.728 6.645-57.747 21.077z" fill="#008dbe"/></g><path d="m103.32 195.85c-4.61 0-9.09.53-13.39 1.53l-28.17 98.63c10.63 10.65 25.32 17.24 41.56 17.24 32.41 0 58.7-26.28 58.7-58.7s-26.29-58.7-58.7-58.7z" fill="#ff3d58"/><path d="m385.27 321.57c-7.96 26.36-32.43 45.55-61.39 45.55-35.41 0-64.12-28.71-64.12-64.12s28.71-64.12 64.12-64.12h.19z" fill="#c50045"/><path d="m163.54 386.26c-36.29 0-65.7 29.42-65.7 65.7 0 10.98 2.69 21.34 7.47 30.44l123.78-34.9c-2.29-34.2-30.76-61.24-65.55-61.24z" fill="#c50045"/><path d="m496.68 357.57-46.51 46.51-171.1-171.1-169.78-169.78 46.51-46.51z" fill="#5f3463"/><path d="m354.987 174.289h65.775v241.972h-65.775z" fill="#462347" transform="matrix(.707 -.707 .707 .707 -95.185 360.752)"/></g></svg>