<svg id="Capa_1" enable-background="new 0 0 512 512" height="512" viewBox="0 0 512 512" width="512" xmlns="http://www.w3.org/2000/svg"><g><path d="m436.75 482v30h-65.1l-115.65-83.51-115.65 83.51h-65.1v-30h55.4l99.73-72.02-140-101.1v-105.61l14.17-82.82-14.17-82.83v-37.62h30v293.54l135.62 97.94 135.62-97.94v-293.54h30v37.62l-15.06 82.83 15.06 82.82v105.61l-140 101.1 99.73 72.02z" fill="#462347"/><path d="m436.75 482v30h-65.1l-115.65-83.51v-37.01l135.62-97.94v-293.54h30v37.62l-15.06 82.83 15.06 82.82v105.61l-140 101.1 99.73 72.02z" fill="#2a1a2e"/><g><path d="m462.36 302.77c-67.84 19.44-137.27 29.3-206.36 29.3s-138.52-9.86-206.36-29.3l8.27-28.84c65.14 18.68 131.79 28.14 198.09 28.14s132.95-9.46 198.09-28.14z" fill="#ff3d58"/></g><path d="m462.36 302.77c-67.84 19.44-137.27 29.3-206.36 29.3v-30c66.3 0 132.95-9.46 198.09-28.14z" fill="#c50045"/><path d="m90.37 37.62h331.25v165.65h-331.25z" fill="#ff3d58"/><path d="m256 37.62h165.62v165.65h-165.62z" fill="#c50045"/><circle cx="256" cy="409.88" fill="#ff3d58" r="32"/><path d="m288 409.88c0 17.67-14.33 32-32 32v-64c17.67 0 32 14.33 32 32z" fill="#c50045"/></g></svg>