<svg id="Capa_1" enable-background="new 0 0 512 512" height="512" viewBox="0 0 512 512" width="512" xmlns="http://www.w3.org/2000/svg"><g><path d="m64 160h384v192h-384z" fill="#462347"/><path d="m256 160h192v192h-192z" fill="#2a1a2e"/><path d="m128 256h128v96h-128z" fill="#5f3463"/><path d="m320 256h64v96h-64z" fill="#462347"/><path d="m49 160.001h30v191.999h-30z" fill="#5f3463"/><path d="m433 160.001h30v191.999h-30z" fill="#462347"/><path d="m128 192.001c-17.673 0-32-14.327-32-32l-6-50h76l-6 50c0 17.673-14.327 32-32 32z" fill="#f4f2ff"/><path d="m294 110-6 50c0 17.67-14.33 32-32 32s-32-14.33-32-32l-6-50z" fill="#f4f2ff"/><path d="m294 110-6 50c0 17.67-14.33 32-32 32v-82z" fill="#e2dff5"/><path d="m64 192.001c-17.673 0-32-14.327-32-32v-32l64-18v50c0 17.673-14.327 32-32 32z" fill="#ff3d58"/><path d="m384 192.001c-17.673 0-32-14.327-32-32l-6-50h76l-6 50c0 17.673-14.327 32-32 32z" fill="#e2dff5"/><path d="m192 192.001c-17.673 0-32-14.327-32-32v-50h64v50c0 17.673-14.327 32-32 32z" fill="#ff3d58"/><path d="m480 64-224 20.21-224-20.21 32-64h384z" fill="#ffde45"/><path d="m480 64-224 20.21v-84.21h192z" fill="#ffb74a"/><path d="m320 192.001c-17.673 0-32-14.327-32-32v-50h64v50c0 17.673-14.327 32-32 32z" fill="#c50045"/><path d="m480 384v128h-32l-32-32h-320l-32 32h-32v-128l224-18.3z" fill="#ffde45"/><path d="m480 384v128h-32l-32-32h-160v-114.3z" fill="#ffb74a"/><path d="m448 192.001c-17.673 0-32-14.327-32-32v-50l64 18v32c0 17.673-14.327 32-32 32z" fill="#c50045"/><path d="m32 64h448v64h-448z" fill="#5f3463"/><path d="m256 64h224v64h-224z" fill="#462347"/><path d="m32 320h448v64h-448z" fill="#ff3d58"/><path d="m256 320h224v64h-224z" fill="#c50045"/></g></svg>