<svg id="Capa_1" enable-background="new 0 0 512 512" height="512" viewBox="0 0 512 512" width="512" xmlns="http://www.w3.org/2000/svg"><g><g><path d="m437.38 192-181.38 128-181.38-128 36.25-64 49.13 17.13 60.22-17.13h71.56l60.22 17.13 49.13-17.13z" fill="#00d5de"/></g><path d="m437.38 192-181.38 128v-192h35.78l60.22 17.13 49.13-17.13z" fill="#008dbe"/><path d="m304 192c0 10.49-1.06 20.68-2.86 30.44l-45.14 97.56-45.14-97.56c-1.8-9.76-2.86-19.95-2.86-30.44 0-70.69 48-128 48-128s48 57.31 48 128z" fill="#ffde45"/><path d="m304 192c0 10.49-1.06 20.68-2.86 30.44l-45.14 97.56v-256s48 57.31 48 128z" fill="#ffb74a"/><path d="m210.745 338.745h90.51v90.51h-90.51z" fill="#ff3d58" transform="matrix(.707 -.707 .707 .707 -196.548 293.49)"/><path d="m320 384-64 64v-128z" fill="#c50045"/><path d="m384 192c-70.69 0-128 57.31-128 128 0-70.69-57.31-128-128-128h-128v64c0 70.7 57.31 128 128 128h64l64-32 64 32h64c70.69 0 128-57.3 128-128v-64zm-256 128c-35.35 0-64-28.65-64-64h64c35.35 0 64 28.66 64 64zm256 0h-64c-.034-34.693 28.344-64.013 64-64h64c0 35.35-28.65 64-64 64z" fill="#5f3463"/><path d="m384 192c-70.69 0-128 57.31-128 128v32l64 32h64c70.69 0 128-57.3 128-128v-64zm0 128h-64c-.034-34.693 28.344-64.013 64-64h64c0 35.35-28.65 64-64 64z" fill="#462347"/></g></svg>