<svg id="Capa_1" enable-background="new 0 0 512 512" height="512" viewBox="0 0 512 512" width="512" xmlns="http://www.w3.org/2000/svg"><g><path d="m481.98 124.61v258.26c0 35.66-28.91 64.57-64.57 64.57s-64.56-28.91-64.56-64.57 28.9-64.56 64.56-64.56v-112.99l-64.56 16.14-64.57 16.14v209.84c0 35.65-28.9 64.56-64.56 64.56s-64.57-28.91-64.57-64.56c0-35.66 28.91-64.57 64.57-64.57v-193.69l129.13-32.28z" fill="#ff3d58"/><path d="m481.98 124.61v258.26c0 35.66-28.91 64.57-64.57 64.57s-64.56-28.91-64.56-64.57 28.9-64.56 64.56-64.56v-112.99l-64.56 16.14v-64.56z" fill="#c50045"/><path d="m223.72 96.85-64.57-16.14v177.55c0 23.9-12.98 44.76-32.28 55.93-10.31 5.96-22.43 9.16-35.33 8.56-33.08-1.52-59.93-28.36-61.45-61.44-1.7-37.05 27.83-67.62 64.5-67.62v-193.69l32.28 8.08 34.25 8.58c18.4 4.6 34.04 15.16 45.1 29.32 11.05 14.16 17.5 31.9 17.5 50.87z" fill="#00d5de"/><path d="m223.72 96.85-64.57-16.14v177.55c0 23.9-12.98 44.76-32.28 55.93v-306.11l34.25 8.58c18.4 4.6 34.04 15.16 45.1 29.32 11.05 14.16 17.5 31.9 17.5 50.87z" fill="#008dbe"/></g></svg>