<svg id="Capa_1" enable-background="new 0 0 512 512" height="512" viewBox="0 0 512 512" width="512" xmlns="http://www.w3.org/2000/svg"><g><g><path d="m32 420.69h64l32-64.005-64-20.748-64 20.748z" fill="#e2dff5"/><path d="m416 420.69h64l32-64.005-64-20.748-64 20.748z" fill="#bebbde"/><path d="m0 164.687h512v192h-512z" fill="#f4f2ff"/><path d="m256 164.687h256v192h-256z" fill="#e2dff5"/><path d="m301.289 215.564h150.5v30h-150.5z" fill="#462347"/><path d="m301.289 275.81h150.5v30h-150.5z" fill="#462347"/><circle cx="144" cy="196.685" fill="#74ffe4" r="96"/><circle cx="144" cy="196.685" fill="#5f3463" r="32"/></g><path d="m144 302.06c-58.104 0-105.375-47.271-105.375-105.375s47.271-105.375 105.375-105.375 105.375 47.271 105.375 105.375-47.271 105.375-105.375 105.375zm0-180.75c-41.562 0-75.375 33.813-75.375 75.375s33.813 75.375 75.375 75.375 75.375-33.813 75.375-75.375-33.813-75.375-75.375-75.375z" fill="#00d5de"/></g></svg>