<svg id="Capa_1" enable-background="new 0 0 512 512" height="512" viewBox="0 0 512 512" width="512" xmlns="http://www.w3.org/2000/svg"><g><path d="m160 512h-64c-17.673 0-32-14.327-32-32v-416l-32-64h64c114.75 0 64 512 64 512z" fill="#e2dff5"/><path d="m64 32c0-17.673-14.327-32-32-32-17.673 0-32 14.327-32 32v32h64z" fill="#bebbde"/><path d="m448 32v416s-82.57 21.12-160 39.1c-57.36 13.31-111.91 24.9-128 24.9-17.67 0-32-14.33-32-32v-448c0-17.67-14.33-32-32-32h320c17.67 0 32 14.33 32 32z" fill="#f4f2ff"/><path d="m448 32v416s-82.57 21.12-160 39.1v-487.1h128c17.67 0 32 14.33 32 32z" fill="#e2dff5"/><path d="m512 448v32c0 17.67-14.33 32-32 32h-320c17.67 0 32-14.33 32-32v-32z" fill="#e2dff5"/><path d="m512 448v32c0 17.67-14.33 32-32 32h-192v-64z" fill="#bebbde"/><g fill="#5f3463"><path d="m182.625 60.25h30v30h-30z"/><path d="m242.88 60.25h150.5v30h-150.5z"/><path d="m242.88 120.5h90.24v30h-90.24z"/><path d="m182.625 180.75h30v30h-30z"/><path d="m242.88 180.75h150.5v30h-150.5z"/><path d="m242.88 241h90.24v30h-90.24z"/><path d="m182.625 301.25h30v30h-30z"/><path d="m242.88 301.25h150.5v30h-150.5z"/><path d="m242.88 361.5h90.24v30h-90.24z"/></g><path d="m288 120.5h45.12v30h-45.12z" fill="#462347"/><path d="m288 241h45.12v30h-45.12z" fill="#462347"/><path d="m288 361.5h45.12v30h-45.12z" fill="#462347"/><path d="m288 60.25h105.38v30h-105.38z" fill="#462347"/><path d="m288 180.75h105.38v30h-105.38z" fill="#462347"/><path d="m288 301.25h105.38v30h-105.38z" fill="#462347"/></g></svg>