<svg id="Capa_1" enable-background="new 0 0 512 512" height="512" viewBox="0 0 512 512" width="512" xmlns="http://www.w3.org/2000/svg"><g><g><path d="m284.94 379.46-132.54 35.45-132.54-35.45c36.6 0 66.27-29.67 66.27-66.27v-16.54h132.54v16.54c0 36.6 29.67 66.27 66.27 66.27z" fill="#5f3463"/><path d="m284.94 379.46-132.54 35.45v-118.26h66.27v16.54c0 36.6 29.67 66.27 66.27 66.27z" fill="#462347"/><path d="m19.86 379.46h265.08v132.54h-265.08z" fill="#ffde45"/><path d="m152.4 379.46h132.54v132.54h-132.54z" fill="#ffb74a"/><path d="m53 246.92h198.8v66.27h-198.8z" fill="#ffde45"/><path d="m152.4 246.92h99.4v66.27h-99.4z" fill="#ffb74a"/><path d="m77.15 430.73h150.5v30h-150.5z" fill="#5f3463"/><path d="m152.4 430.73h75.25v30h-75.25z" fill="#462347"/></g><g><path d="m459.24 359.68 25.32 33.13c-12.51 35.76-37.88 57.04-60.14 63.82-5.2 1.59-10.23 2.38-14.89 2.38h-.11c-4.69-.01-9.76-.82-15-2.45-30.89-9.53-67.72-46.97-67.72-112.3 0-6.03.08-12.01.24-17.96l32.89-32.89-27.98-33.13c12.27-101.91 43.66-185.37 62.57-228.49 4.47-10.18 9.74-15.33 15-15.44 5.29-.13 10.57 4.85 15 14.92 22.84 51.95 64.28 163.52 67.72 295.5z" fill="#e2dff5"/></g><path d="m459.24 359.68 25.32 33.13c-12.51 35.76-37.88 57.04-60.14 63.82-5.2 1.59-10.23 2.38-14.89 2.38h-.11v-442.66c5.29-.13 10.57 4.85 15 14.92 22.84 51.95 64.28 163.52 67.72 295.5z" fill="#bebbde"/><path d="m424.42 31.27v480.73h-30v-480.21c8.25-18.81 14.12-29.94 15-31.58.07-.14.11-.21.11-.21s6.05 11.18 14.89 31.27z" fill="#f4f2ff"/><path d="m424.42 31.27v480.73h-15v-511.79c.07-.14.11-.21.11-.21s6.05 11.18 14.89 31.27z" fill="#e2dff5"/></g></svg>