<svg id="Capa_1" enable-background="new 0 0 512 512" height="512" viewBox="0 0 512 512" width="512" xmlns="http://www.w3.org/2000/svg"><g><path d="m143.62 420.31-91.69 91.69-51.93-51.93 91.69-91.69 36.35 15.58z" fill="#e2dff5"/><path d="m143.62 420.31-91.69 91.69-25.96-25.96 102.07-102.08z" fill="#bebbde"/><path d="m348.39 200.33-204.77 219.98-51.93-51.93 219.98-204.77 18.36 18.36z" fill="#5f3463"/><path d="m348.39 200.33-204.77 219.98-25.96-25.96 212.37-212.38z" fill="#462347"/><path d="m452.59 124.31 24.54-72.36-8.54-8.54-8.45-8.45-72.37 24.54-61.24-45.71-21.41 10.91.98 76.41-62.39 44.13 3.76 23.73 72.9 22.66.07.02 22.68 72.97 23.74 3.76 44.12-62.39 76.41.98 10.9-21.42z" fill="#ffde45"/><path d="m498.29 185.55-10.9 21.42-76.41-.98-44.12 62.39-23.74-3.76-22.68-72.97-.07-.02 148.22-148.22 8.54 8.54-24.54 72.36z" fill="#ffb74a"/><path d="m357.78 124.22h30v30h-30z" fill="#ffb74a"/><path d="m387.78 124.22v30h-30z" fill="#ff7c3f"/><path d="m375.492 0h30v30h-30z" fill="#ffb74a"/><path d="m251.316 60.359h30v30h-30z" fill="#ffb74a"/><g fill="#ff7c3f"><path d="m421.729 230.772h30v30h-30z"/><path d="m482 106.508h30v30h-30z"/></g></g></svg>