<svg id="Capa_1" enable-background="new 0 0 511.978 511.978" height="512" viewBox="0 0 511.978 511.978" width="512" xmlns="http://www.w3.org/2000/svg"><g><path d="m497.274 256.008v255.97h-464.58v-255.97l232.29-16.4z" fill="#f4f2ff"/><path d="m497.274 256.008v255.97h-232.29v-272.37z" fill="#e2dff5"/><path d="m497.274 191.978v64.03h-22.28l-28.43-7.6-13.99 7.6h-61.17l-27.55-7.6-14.83 7.6h-64.04l-27.74-7.6-14.73 7.6h-61.14l-27.49-7.6-14.93 7.6h-86.26v-64.03h22.28l30.01 5.601 12.42-5.601h61.12l30.8 5.601 11.63-5.601h64.04l29.31 5.601 13.11-5.601h61.14l28.13 5.601 14.29-5.601z" fill="#5f3463"/><path d="m497.274 191.978v64.03h-22.28l-28.43-7.6-13.99 7.6h-61.17l-27.55-7.6-14.83 7.6h-64.04v-64.03h.01l29.31 5.601 13.11-5.601h61.14l28.13 5.601 14.29-5.601z" fill="#462347"/><path d="m474.994 256.008h-42.42l-64.02-64.03h42.42z" fill="#2a1a2e"/><path d="m371.454 256.008h-42.43l-64.03-64.03h42.42z" fill="#2a1a2e"/><path d="m264.984 256.008h-42.42l-64.04-64.03h42.43z" fill="#462347"/><path d="m161.424 256.008h-42.42l-64.03-64.03h42.43z" fill="#462347"/><path d="m478.561 61.451-17.99-61.451-21.383 6.26-25.149 15.281-15.562-3.363-58.706 17.186-24.305 15.035-16.368-3.128-61.46 17.993-24.488 15.088-16.272-3.156-58.677 17.178-24.247 15.017-16.464-3.099-82.786 24.236 17.99 61.45 21.383-6.259 27.227-13.806 13.494 1.885 58.658-17.173 27.986-14.028 12.735 2.107 61.46-17.992 26.556-13.61 14.155 1.692 58.678-17.178 25.423-13.278 15.288 1.36z" fill="#5f3463"/><path d="m478.561 61.451-17.99-61.451-21.383 6.26-25.149 15.281-15.562-3.363-58.706 17.186-24.305 15.035-16.368-3.128-61.46 17.993 17.989 61.451.01-.003 26.556-13.61 14.155 1.692 58.678-17.178 25.423-13.278 15.288 1.36z" fill="#462347"/><path d="m439.188 6.26-40.711 11.918-43.451 79.438 40.711-11.918z" fill="#2a1a2e"/><path d="m339.819 35.35-40.721 11.921-43.461 79.441 40.711-11.918z" fill="#2a1a2e"/><path d="m237.638 65.264-40.712 11.918-43.47 79.443 40.721-11.921z" fill="#462347"/><path d="m138.249 94.36-40.711 11.918-43.461 79.441 40.721-11.921z" fill="#462347"/><g><path d="m92.434 421.728h172.55v30h-172.55z" fill="#bebbde"/><path d="m264.984 421.728h172.55v30h-172.55z" fill="#e2dff5"/><path d="m437.534 331.228v-30h-345.1v30h67.17v30.25h-67.17v30h345.1v-30h-67.18v-30.25zm-187.55 30.25h-60.38v-30.25h60.38zm90.37 0h-60.37v-30.25h60.37z" fill="#e2dff5"/><path d="m264.984 451.728h172.55v-30h-172.55zm172.55-120.5v-30h-172.55v90.25h172.55v-30h-67.18v-30.25zm-97.18 30.25h-60.37v-30.25h60.37z" fill="#bebbde"/></g></g></svg>