<svg id="Capa_1" enable-background="new 0 0 512 512" height="512" viewBox="0 0 512 512" width="512" xmlns="http://www.w3.org/2000/svg"><g><path d="m416 346.32v21.21h-320v-20.04c0-17.26 8.32-33.45 22.35-43.49 13.22-9.452 22.401-25.814 22.35-43.49v-145.23c0-63.67 51.63-115.3 115.3-115.28h.38c63.72.22 114.88 52.82 114.88 116.53v149.41c0 16.36 8.46 31.57 22.37 40.19 13.146 8.187 22.319 23.227 22.37 40.19z" fill="#5f3463"/><path d="m416 346.32v21.21h-160v-367.53h.38c63.72.22 114.88 52.82 114.88 116.53v149.41c0 16.36 8.46 31.57 22.37 40.19 13.146 8.187 22.319 23.227 22.37 40.19z" fill="#462347"/><path d="m471.5 512h-91.25l-124.25-15-124.21 15h-91.29l13.86-98.59c3.15-22.39 19.66-40.58 41.64-45.88l75.59-18.21 16.53 4.03 13.72-11.32.02-.13 9.56-65.23h89.16l9.58 65.35v.01l14.76 10.78 15.57-3.47 75.51 18.19c21.98 5.3 38.49 23.49 41.64 45.88z" fill="#ffd5a3"/><path d="m471.5 512h-91.25l-124.25-15v-220.33h44.58l9.58 65.35v.01l14.76 10.78 15.57-3.47 75.51 18.19c21.98 5.3 38.49 23.49 41.64 45.88z" fill="#ffbc78"/><path d="m388.03 465.2-7.78 46.8h-248.43l-6.81-46.81c41.06-47.17 88.5-37.17 130.99-.31 37.46-33.82 94.76-47.53 132.03.32z" fill="#ff3d58"/><path d="m388.03 465.2-7.78 46.8h-124.25v-47.12c37.46-33.82 94.76-47.53 132.03.32z" fill="#c50045"/><path d="m323.273 128.005h21.747c21.808 0 39.487 17.679 39.487 39.487 0 21.808-17.679 39.487-39.487 39.487h-21.747z" fill="#ffbc78"/><path d="m176.727 128.005h-9.747c-21.808 0-39.487 17.679-39.487 39.487 0 21.808 17.679 39.487 39.487 39.487h21.747z" fill="#ffd5a3"/><path d="m335.27 128v79.88c.221 44.732-33.93 84.099-79.27 84.38-43.78 0-79.27-37.78-79.27-84.38v-79.88h28.71c17.12 0 33.81-3.68 49.05-10.58.5-.23 1.01-.46 1.51-.71 14.65-6.86 27.89-16.74 38.81-29.17 21.779-.092 40.317 17.865 40.46 40.46z" fill="#ffe2bf"/><path d="m335.27 128v79.88c.221 44.732-33.93 84.099-79.27 84.38v-175.55c14.65-6.86 27.89-16.74 38.81-29.17 21.779-.092 40.317 17.865 40.46 40.46z" fill="#ffd5a3"/><path d="m241 382.35h30v42.26h-30z" fill="#ff3d58"/><path d="m256 382.35h15v42.26h-15z" fill="#c50045"/><path d="m340.49 349.34c-16.14 31.92-48.22 51.76-84.11 51.89h-.38c-35.96-.01-68.2-19.85-84.41-51.91l30.25-7.29.02-.13c11.86 18.5 31.6 29.32 54.14 29.33h.28c22.45-.08 42.06-10.85 53.88-29.2z" fill="#ffb74a"/><path d="m340.49 349.34c-16.14 31.92-48.22 51.76-84.11 51.89h-.38v-30h.28c22.45-.08 42.06-10.85 53.88-29.2z" fill="#ff7c3f"/></g></svg>