<svg id="Capa_1" enable-background="new 0 0 512 512" height="512" viewBox="0 0 512 512" width="512" xmlns="http://www.w3.org/2000/svg"><g><g fill="#ff7c3f"><path d="m173.943 90.375h34.968v30h-34.968z"/><path d="m173.943 150.625h34.968v30h-34.968z"/><path d="m173.943 210.875h34.968v30h-34.968z"/><path d="m173.943 271.125h34.968v30h-34.968z"/></g><path d="m85.426 0-85.426 4.249v55.502l85.424 4.249h.002l12.282-32z" fill="#ffb74a"/><g><path d="m438.544 320c-19.244 7.437-33.059 26.369-33.12 48 0 39.76-16.12 75.76-42.18 101.82s-62.06 42.18-101.82 42.18c-45.25 0-85.62-20.87-112.01-53.51-20.01-24.72-31.99-56.21-31.99-90.49v-272c0-17.67-14.32-32-32-32v-64c24.59 0 47.01 9.24 63.99 24.45 19.63 17.57 31.98 43.1 31.99 71.52l.02 256.03c-.082 17.06 14.017 31.847 32 32 17.06.082 31.847-14.017 32-32 0-62.32 12.93-128 55.36-169.76l91.77 46.51z" fill="#ffde45"/><path d="m438.544 320c-19.244 7.437-33.059 26.369-33.12 48 0 39.76-16.12 75.76-42.18 101.82s-62.06 42.18-101.82 42.18c-45.25 0-85.62-20.87-112.01-53.51v-434.04c19.63 17.57 31.98 43.1 31.99 71.52l.02 256.03c-.082 17.06 14.017 31.847 32 32 17.06.082 31.847-14.017 32-32 0-62.32 12.93-128 55.36-169.76l91.77 46.51z" fill="#ffb74a"/></g><path d="m512 302.945-23.953 23.953c-11.765 11.765-30.839 11.765-42.603 0l-151.039-151.038c-11.765-11.765-11.765-30.839 0-42.603l23.953-23.953z" fill="#ff7c3f"/></g></svg>