<svg id="Capa_1" enable-background="new 0 0 512 512" height="512" viewBox="0 0 512 512" width="512" xmlns="http://www.w3.org/2000/svg"><g><path d="m501.2 512h-91.57l-153.63-15-153.63 15h-91.57l20.27-105.74c4.39-22.88 22.3-40.77 45.19-45.13l74.24-14.14h105.5l105.56.01 74.18 14.13c22.89 4.36 40.8 22.25 45.19 45.13z" fill="#462347"/><path d="m501.2 512h-91.57l-153.63-15v-150.01l105.56.01 74.18 14.13c22.89 4.36 40.8 22.25 45.19 45.13z" fill="#2a1a2e"/><path d="m327.16 340.45v55.64l-17.82 44.07-53.34 35.92-53.32-35.82-17.84-44.17v-55.64z" fill="#f4f2ff"/><path d="m327.16 340.45v55.64l-17.82 44.07-53.34 35.92v-135.63z" fill="#e2dff5"/><path d="m202.68 440.26-25.95 11.48-35-11.48-23.5-39.68 32.24-53.5.03-.09h.01l34.33-6.54z" fill="#5f3463"/><path d="m391.65 400.58-21.38 39.68-27.22 14.41-33.71-14.51 17.82-99.71 34.4 6.55-.03.08z" fill="#462347"/><path d="m413.87 440.16-4.24 71.84h-307.26l-4.24-71.84z" fill="#e2dff5"/><path d="m413.87 440.16-4.24 71.84h-153.63v-71.84z" fill="#bebbde"/><path d="m327.16 340.45-71.16 42.01-71.16-42.01 18.09-56.87h106.14z" fill="#ffd5a3"/><path d="m327.16 340.45-71.16 42.01v-98.88h53.07z" fill="#ffbc78"/><path d="m362.37 106.37v55.42h-212.74v-55.42c0-29.37 11.91-55.96 31.15-75.21 19.25-19.25 45.84-31.16 75.22-31.16 58.75 0 106.37 47.63 106.37 106.37z" fill="#5f3463"/><path d="m362.37 106.37v55.42h-106.37v-161.79c58.75 0 106.37 47.63 106.37 106.37z" fill="#462347"/><path d="m323.272 142.007h21.747c21.808 0 39.487 17.679 39.487 39.487 0 21.808-17.679 39.487-39.487 39.487h-21.747z" fill="#ffbc78"/><path d="m188.728 142.007h-21.747c-21.808 0-39.487 17.679-39.487 39.487 0 21.808 17.679 39.487 39.487 39.487h21.747z" fill="#ffd5a3"/><path d="m335.27 142.06v78.92c0 23.3-8.87 44.4-23.22 59.66-14.34 15.28-34.16 24.72-56.05 24.72-43.78 0-79.27-37.78-79.27-84.38v-78.92c0-22.34 18.11-40.46 40.46-40.46 11.71 7.96 25.26 11.95 38.81 11.95s27.1-3.99 38.81-11.95c11.17 0 21.29 4.53 28.61 11.85 7.32 7.33 11.85 17.44 11.85 28.61z" fill="#ffe2bf"/><path d="m335.27 142.06v78.92c0 23.3-8.87 44.4-23.22 59.66-14.34 15.28-34.16 24.72-56.05 24.72v-191.81c13.55 0 27.1-3.99 38.81-11.95 11.17 0 21.29 4.53 28.61 11.85 7.32 7.33 11.85 17.44 11.85 28.61z" fill="#ffd5a3"/></g></svg>