<svg id="Capa_1" enable-background="new 0 0 512 512" height="512" viewBox="0 0 512 512" width="512" xmlns="http://www.w3.org/2000/svg"><g><path d="m512 384v128h-512v-128l256-21.2z" fill="#5f3463"/><path d="m512 384v128h-256v-149.2z" fill="#462347"/><path d="m60.25 433h30v30h-30z" fill="#462347"/><path d="m421.75 433h30v30h-30z" fill="#2a1a2e"/><path d="m120.5 433h271v30h-271z" fill="#462347"/><path d="m256 433h135.5v30h-135.5z" fill="#2a1a2e"/><path d="m0 0h512v384h-512z" fill="#f4f2ff"/><path d="m256 0h256v384h-256z" fill="#e2dff5"/><path d="m81 48.066h30v287.867h-30z" fill="#5f3463"/><path d="m187.667 48.066h30v287.867h-30z" fill="#5f3463"/><path d="m294.333 48.066h30v287.867h-30z" fill="#462347"/><path d="m401 48.066h30v287.867h-30z" fill="#462347"/><path d="m64 192h64v64h-64z" fill="#ff3d58"/><path d="m170.667 96h64v64h-64z" fill="#ff3d58"/><g fill="#c50045"><path d="m277.333 192h64v64h-64z"/><path d="m384 96h64v64h-64z"/></g></g></svg>