<svg id="Capa_1" enable-background="new 0 0 512 512" height="512" viewBox="0 0 512 512" width="512" xmlns="http://www.w3.org/2000/svg"><g><path d="m512 158.8c0 15.67-2.13 31.33-6.41 46.54l-23.23 82.66h-167.07l-23.23-82.66c-8.34-29.68-8.55-61.06-.61-90.84 6.48-24.32 17.33-52.95 34.55-75.49 17.23-22.55 40.83-39.01 72.83-39.01s55.6 16.46 72.82 39.01c17.22 22.54 28.06 51.17 34.55 75.49 3.87 14.52 5.8 29.41 5.8 44.3z" fill="#ff3d58"/><path d="m512 158.8c0 15.67-2.13 31.33-6.41 46.54l-23.23 82.66h-83.53v-288c32 0 55.6 16.46 72.82 39.01 17.22 22.54 28.06 51.17 34.55 75.49 3.87 14.52 5.8 29.41 5.8 44.3z" fill="#c50045"/><path d="m478.73 213.81-3.09 207.89c-.42 20.92-9.17 39.74-23.03 53.34-13.87 13.59-32.86 21.96-53.78 21.96-41.84 0-75.98-33.47-76.82-75.3l-3.09-207.89c-.77-44.68 35.23-81.31 79.91-81.31 44.67 0 80.67 36.63 79.9 81.31z" fill="#462347"/><path d="m478.73 213.81-3.09 207.89c-.42 20.92-9.17 39.74-23.03 53.34-13.87 13.59-32.86 21.96-53.78 21.96v-364.5c44.67 0 80.67 36.63 79.9 81.31z" fill="#2a1a2e"/><path d="m466.52 145.89c-17.99-18.3-42.02-28.39-67.69-28.39h-.01c-25.66 0-49.7 10.08-67.69 28.39-17.99 18.3-27.65 42.52-27.2 68.18l3.08 207.85c.49 24.26 10.26 46.9 27.53 63.83s40.1 26.25 64.28 26.25h.01c24.19 0 47.01-9.32 64.28-26.25s27.04-39.57 27.52-63.75l3.09-207.97c.45-25.62-9.21-49.84-27.2-68.14zm-111.65 18.75c11.64-11.21 27.77-16.9 43.96-16.91 17.12 0 34.3 6.33 46.29 19.19 5.58 5.68 9.98 12.2 13.11 19.26-13.52 4.82-35.12 13.32-59.4 25.93-24.29-12.61-45.89-21.11-59.4-25.93 3.55-8.03 8.74-15.35 15.44-21.54zm-20.36 88.69-.55-37.15c8.78 3.28 20.31 7.92 33.33 13.98-10.99 6.92-22.06 14.63-32.78 23.17zm126.52 141.53c-.14 9.76-4.59 18.99-12.21 25.09-14.14 11.34-32.07 16.87-49.99 16.76-17.89-.09-35.76-5.8-49.87-16.93-7.71-6.09-12.2-15.38-12.35-25.2l-1.52-102.04c19.66-18.69 42.27-34.03 63.74-46.19 21.47 12.16 44.07 27.49 63.72 46.18zm2.11-141.54c-10.72-8.53-21.78-16.24-32.77-23.16 13.01-6.05 24.54-10.69 33.32-13.97z" fill="#ff8652"/><path d="m466.52 145.89c-17.99-18.3-42.02-28.39-67.69-28.39v30.23c17.12 0 34.3 6.33 46.29 19.19 5.58 5.68 9.98 12.2 13.11 19.26-13.52 4.82-35.12 13.32-59.4 25.93v34.24c21.47 12.16 44.07 27.49 63.72 46.18l-1.52 102.33c-.14 9.76-4.59 18.99-12.21 25.09-14.14 11.34-32.07 16.87-49.99 16.76v75.29c24.19 0 47.01-9.32 64.28-26.25s27.04-39.57 27.52-63.75l3.09-207.97c.45-25.62-9.21-49.84-27.2-68.14zm-3.38 107.43c-10.72-8.53-21.78-16.24-32.77-23.16 13.01-6.05 24.54-10.69 33.32-13.97z" fill="#ff3d58"/><path d="m226.354 158.8c0 15.67-2.13 31.33-6.41 46.54l-23.23 82.66h-167.07l-23.23-82.66c-8.34-29.68-8.55-61.06-.61-90.84 6.48-24.32 17.33-52.95 34.55-75.49 17.23-22.55 40.83-39.01 72.83-39.01s55.6 16.46 72.82 39.01c17.22 22.54 28.06 51.17 34.55 75.49 3.87 14.52 5.8 29.41 5.8 44.3z" fill="#ff3d58"/><path d="m226.354 158.8c0 15.67-2.13 31.33-6.41 46.54l-23.23 82.66h-83.53v-288c32 0 55.6 16.46 72.82 39.01 17.22 22.54 28.06 51.17 34.55 75.49 3.87 14.52 5.8 29.41 5.8 44.3z" fill="#c50045"/><path d="m193.084 213.81-3.09 207.89c-.42 20.92-9.17 39.74-23.03 53.34-13.87 13.59-32.86 21.96-53.78 21.96-41.84 0-75.98-33.47-76.82-75.3l-3.09-207.89c-.77-44.68 35.23-81.31 79.91-81.31 44.67 0 80.67 36.63 79.9 81.31z" fill="#462347"/><path d="m193.084 213.81-3.09 207.89c-.42 20.92-9.17 39.74-23.03 53.34-13.87 13.59-32.86 21.96-53.78 21.96v-364.5c44.67 0 80.67 36.63 79.9 81.31z" fill="#2a1a2e"/><path d="m180.874 145.89c-17.99-18.3-42.02-28.39-67.69-28.39h-.01c-25.66 0-49.7 10.08-67.69 28.39-17.99 18.3-27.65 42.52-27.2 68.18l3.08 207.85c.49 24.26 10.26 46.9 27.53 63.83s40.1 26.25 64.28 26.25h.01c24.19 0 47.01-9.32 64.28-26.25s27.04-39.57 27.52-63.75l3.09-207.97c.45-25.62-9.21-49.84-27.2-68.14zm-111.65 18.75c11.64-11.21 27.77-16.9 43.96-16.91 17.12 0 34.3 6.33 46.29 19.19 5.58 5.68 9.98 12.2 13.11 19.26-13.52 4.82-35.12 13.32-59.4 25.93-24.29-12.61-45.89-21.11-59.4-25.93 3.55-8.03 8.74-15.35 15.44-21.54zm-20.36 88.69-.55-37.15c8.78 3.28 20.31 7.92 33.33 13.98-10.99 6.92-22.06 14.63-32.78 23.17zm126.52 141.53c-.14 9.76-4.59 18.99-12.21 25.09-14.14 11.34-32.07 16.87-49.99 16.76-17.89-.09-35.76-5.8-49.87-16.93-7.71-6.09-12.2-15.38-12.35-25.2l-1.52-102.04c19.66-18.69 42.27-34.03 63.74-46.19 21.47 12.16 44.07 27.49 63.72 46.18zm2.11-141.54c-10.72-8.53-21.78-16.24-32.77-23.16 13.01-6.05 24.54-10.69 33.32-13.97z" fill="#ff8652"/><path d="m180.874 145.89c-17.99-18.3-42.02-28.39-67.69-28.39v30.23c17.12 0 34.3 6.33 46.29 19.19 5.58 5.68 9.98 12.2 13.11 19.26-13.52 4.82-35.12 13.32-59.4 25.93v34.24c21.47 12.16 44.07 27.49 63.72 46.18l-1.52 102.33c-.14 9.76-4.59 18.99-12.21 25.09-14.14 11.34-32.07 16.87-49.99 16.76v75.29c24.19 0 47.01-9.32 64.28-26.25s27.04-39.57 27.52-63.75l3.09-207.97c.45-25.62-9.21-49.84-27.2-68.14zm-3.38 107.43c-10.72-8.53-21.78-16.24-32.77-23.16 13.01-6.05 24.54-10.69 33.32-13.97z" fill="#ff3d58"/></g></svg>