<svg id="Capa_1" enable-background="new 0 0 512 512" height="512" viewBox="0 0 512 512" width="512" xmlns="http://www.w3.org/2000/svg"><g><circle cx="421.688" cy="108.375" fill="#462347" r="75.312"/><circle cx="180.688" cy="108.375" fill="#5f3463" r="75.312"/><path d="m47 214.813h-30v-121.438h88.375v30h-58.375z" fill="#ffb74a"/><path d="m421.69 18.06c-24.87 0-47.42 10.1-63.77 26.42l-49.84-25.8h-13.79l-49.84 25.8c-16.35-16.32-38.9-26.42-63.76-26.42-49.8 0-90.31 40.52-90.31 90.32 0 49.79 40.51 90.31 90.31 90.31s90.31-40.52 90.31-90.31c0-14.05-3.22-27.35-8.97-39.22l39.16-20.27 39.15 20.27c-5.74 11.87-8.96 25.17-8.96 39.22 0 49.79 40.51 90.31 90.31 90.31s90.31-40.52 90.31-90.31c0-49.8-40.51-90.32-90.31-90.32zm-241 150.63c-33.26 0-60.31-27.06-60.31-60.31 0-33.26 27.05-60.32 60.31-60.32 33.25 0 60.31 27.06 60.31 60.32 0 33.25-27.06 60.31-60.31 60.31zm241 0c-33.26 0-60.31-27.06-60.31-60.31 0-33.26 27.05-60.32 60.31-60.32 33.25 0 60.31 27.06 60.31 60.32 0 33.25-27.06 60.31-60.31 60.31z" fill="#ffde45"/><path d="m421.69 18.06c-24.87 0-47.42 10.1-63.77 26.42l-49.84-25.8h-6.89v30.21l39.15 20.27c-5.74 11.87-8.96 25.17-8.96 39.22 0 49.79 40.51 90.31 90.31 90.31s90.31-40.52 90.31-90.31c0-49.8-40.51-90.32-90.31-90.32zm0 150.63c-33.26 0-60.31-27.06-60.31-60.31 0-33.26 27.05-60.32 60.31-60.32 33.25 0 60.31 27.06 60.31 60.32 0 33.25-27.06 60.31-60.31 60.31z" fill="#ffb74a"/><circle cx="301.19" cy="32" fill="#ffb74a" r="32"/><path d="m333.19 32c0 17.67-14.33 32-32 32v-64c17.67 0 32 14.33 32 32z" fill="#ff7c3f"/><path d="m64 195.235h-64v63.765l32 13.152 32-13.152z" fill="#ffde45"/><path d="m0 259h64v253h-64z" fill="#5f3463"/></g></svg>