<svg id="Capa_1" enable-background="new 0 0 512 512" height="512" viewBox="0 0 512 512" width="512" xmlns="http://www.w3.org/2000/svg"><g><path d="m17 71.5h30v353.056h-30z" fill="#462347"/><path d="m465 71.5h30v353.056h-30z" fill="#2a1a2e"/><path d="m120.44 54.5h271.12v339h-271.12z" fill="#f4f2ff"/><path d="m256 54.5h135.56v339h-135.56z" fill="#e2dff5"/><path d="m105.44 39.5v385.06h301.12v-385.06zm271.12 339h-241.12v-309h241.12z" fill="#00d5de"/><path d="m406.56 39.5v385.06h-150.56v-46.06h120.56v-309h-120.56v-30z" fill="#008dbe"/><circle cx="32" cy="71.5" fill="#ffde45" r="32"/><circle cx="480" cy="71.5" fill="#ffb74a" r="32"/><path d="m0 408.5h512v64h-512z" fill="#5f3463"/><path d="m256 408.5h256v64h-256z" fill="#462347"/><circle cx="32" cy="199.5" fill="#ffde45" r="32"/><circle cx="32" cy="327.5" fill="#ffde45" r="32"/><circle cx="480" cy="199.5" fill="#ffb74a" r="32"/><circle cx="480" cy="327.5" fill="#ffb74a" r="32"/><g fill="#00d5de"><path d="m301.13 151.95-45.13 22.57-31.72 15.86-13.41-26.83 45.13-22.57 31.72-15.86z"/><path d="m301.13 284.45-45.13 22.57-31.72 15.86-13.41-26.83 45.13-22.57 31.72-15.86z"/><path d="m322.96 207.29-66.96 33.48-53.54 26.77-13.42-26.83 66.96-33.48 53.54-26.77z"/></g><path d="m301.13 284.45-45.13 22.57v-33.54l31.72-15.86z" fill="#008dbe"/><path d="m301.13 151.95-45.13 22.57v-33.54l31.72-15.86z" fill="#008dbe"/><path d="m322.96 207.29-66.96 33.48v-33.54l53.54-26.77z" fill="#008dbe"/></g></svg>