<svg id="Capa_1" enable-background="new 0 0 512 512" height="512" viewBox="0 0 512 512" width="512" xmlns="http://www.w3.org/2000/svg"><g><path d="m120.43 15h271.14v482h-271.14z" fill="#00d5de"/><path d="m256 15h135.57v482h-135.57z" fill="#008dbe"/><path d="m241 421.75h30v30h-30z" fill="#5f3463"/><path d="m256 421.75h15v30h-15z" fill="#462347"/><path d="m105.43 0v512h301.14v-512zm271.14 482h-241.14v-452h34.56c12.16 0 22.02 9.86 22.02 22.01-.08 17.038 14.011 31.839 31.98 31.99h64.02c17.67 0 31.99-14.32 31.99-31.99.049-11.147 9.163-21.923 22.01-22.01h34.56z" fill="#5f3463"/><path d="m406.57 0v512h-150.57v-30h120.57v-452h-34.56c-11.147.049-21.923 9.163-22.01 22.01 0 17.67-14.32 31.99-31.99 31.99h-32.01v-84z" fill="#462347"/><path d="m241.002-42.222h29.995v596.445h-29.995z" fill="#ff3d58" transform="matrix(.707 -.707 .707 .707 -106.039 256)"/><path d="m477.48 456.27-21.21 21.21-200.27-200.27v-42.42z" fill="#c50045"/></g></svg>