<svg id="Capa_1" enable-background="new 0 0 512 512" height="512" viewBox="0 0 512 512" width="512" xmlns="http://www.w3.org/2000/svg"><g><circle cx="96" cy="115.863" fill="#ffe02f" r="32"/><path d="m84.604 115.863c0-14.069 9.079-26.017 21.698-30.305-3.233-1.099-6.698-1.695-10.302-1.695-17.673 0-32 14.327-32 32s14.327 32 32 32c3.604 0 7.069-.596 10.302-1.695-12.619-4.288-21.698-16.236-21.698-30.305z" fill="#fbc700"/><path d="m0 430.248c11.582 0 23.163 5.884 32-2.953 17.673-17.673 46.326-17.673 63.999 0l.001.001c17.673 17.673 46.326 17.673 63.999 0l.001-.001c17.673-17.673 46.326-17.673 63.999 0l.001.001c17.673 17.673 46.326 17.673 63.999 0l.001-.001c17.673-17.673 46.327-17.673 63.999 0 17.673 17.673 46.327 17.673 64 0 17.673-17.673 46.326-17.673 63.999 0l.001.001c8.836 8.836 20.418 2.953 32 2.953v-99.299c0-3.983-3.229-7.211-7.211-7.211h-72.42l-16.793-10.302-15.453 10.302h-96l-16.793-10.302-15.453 10.302h-264.665c-3.983 0-7.211 3.229-7.211 7.211z" fill="#425f99"/><path d="m197.821 355.738h116.604v32h-116.604z" fill="#fff3de"/><path d="m197.821 355.738h41.208v32h-41.208z" fill="#fed2a4"/><g><g><g><g><path d="m96 59.589c-4.267 0-7.726-3.459-7.726-7.726v-16c0-4.267 3.459-7.726 7.726-7.726s7.726 3.459 7.726 7.726v16c.001 4.267-3.459 7.726-7.726 7.726z" fill="#ffe02f"/></g><g><path d="m96 203.59c-4.267 0-7.726-3.459-7.726-7.726v-16c0-4.267 3.459-7.726 7.726-7.726s7.726 3.459 7.726 7.726v16c.001 4.266-3.459 7.726-7.726 7.726z" fill="#ffe02f"/></g></g><g><g><path d="m50.745 78.334c-1.977 0-3.955-.754-5.463-2.263l-11.314-11.313c-3.018-3.017-3.018-7.909 0-10.927 3.017-3.017 7.91-3.018 10.927 0l11.314 11.313c3.018 3.017 3.018 7.909 0 10.927-1.509 1.509-3.486 2.263-5.464 2.263z" fill="#ffe02f"/></g><g><path d="m152.569 180.158c-1.977 0-3.955-.755-5.463-2.263l-11.314-11.314c-3.018-3.017-3.018-7.91 0-10.927 3.017-3.017 7.91-3.017 10.927 0l11.314 11.314c3.018 3.017 3.018 7.91 0 10.927-1.51 1.509-3.487 2.263-5.464 2.263z" fill="#ffe02f"/></g></g><g><g><path d="m32 123.589h-16c-4.267 0-7.726-3.459-7.726-7.726s3.459-7.726 7.726-7.726h16c4.267 0 7.726 3.459 7.726 7.726.001 4.267-3.459 7.726-7.726 7.726z" fill="#ffe02f"/></g><g><path d="m176 123.589h-16c-4.267 0-7.726-3.459-7.726-7.726s3.459-7.726 7.726-7.726h16c4.267 0 7.726 3.459 7.726 7.726s-3.459 7.726-7.726 7.726z" fill="#ffe02f"/></g></g><g><g><path d="m39.431 180.158c-1.977 0-3.955-.755-5.463-2.263-3.018-3.017-3.018-7.91 0-10.927l11.314-11.314c3.017-3.017 7.91-3.017 10.927 0 3.018 3.017 3.018 7.91 0 10.927l-11.314 11.314c-1.509 1.509-3.486 2.263-5.464 2.263z" fill="#ffe02f"/></g><g><path d="m141.255 78.334c-1.977 0-3.955-.754-5.463-2.263-3.018-3.018-3.018-7.91 0-10.927l11.314-11.313c3.018-3.018 7.91-3.018 10.927 0 3.018 3.018 3.018 7.91 0 10.927l-11.314 11.313c-1.51 1.509-3.487 2.263-5.464 2.263z" fill="#ffe02f"/></g></g></g></g><g><path d="m304.123 417.012v-125.027c0-35.357 28.766-64.122 64.122-64.122 35.357 0 64.123 28.765 64.123 64.122v31.876h-32.246v-31.876c0-17.577-14.3-31.878-31.878-31.878-17.577 0-31.877 14.3-31.877 31.878v125.027z" fill="#fff3de"/></g><g fill="#fed2a4"><path d="m375.972 228.326c-2.533-.306-5.112-.463-7.727-.463-35.356 0-64.122 28.765-64.122 64.122v125.027h15.453v-125.027c0-32.743 24.669-59.832 56.396-63.659z"/><path d="m383.698 260.108c-2.663 0-5.252.329-7.726.947 13.856 3.462 24.151 16.016 24.151 30.93v31.876h15.453v-31.876c0-17.577-14.3-31.877-31.878-31.877z"/></g><g><path d="m175.878 417.012v-125.027c0-35.357 28.766-64.122 64.122-64.122 35.357 0 64.123 28.765 64.123 64.122v31.876h-32.246v-31.876c0-17.577-14.3-31.878-31.878-31.878-17.577 0-31.877 14.3-31.877 31.878v125.026z" fill="#fff3de"/></g><g fill="#fed2a4"><path d="m191.331 291.985c0-32.743 24.669-59.832 56.396-63.659-2.534-.306-5.112-.463-7.727-.463-35.356 0-64.122 28.765-64.122 64.122v125.027h15.453z"/><path d="m255.453 260.108c-2.663 0-5.252.329-7.726.947 13.856 3.463 24.151 16.017 24.151 30.93v31.876h15.453v-31.876c-.001-17.577-14.301-31.877-31.878-31.877z"/></g><path d="m0 475.964c0 4.476 4.048 7.94 8.446 7.108 8.629-1.631 16.875-5.786 23.553-12.464h.001c17.673-17.673 46.326-17.673 63.999 0h.001c17.673 17.673 46.326 17.673 63.999 0l.001-.001c17.673-17.673 46.326-17.673 63.999 0l.001.001c17.673 17.673 46.326 17.673 63.999 0l.001-.001c17.673-17.673 46.327-17.673 63.999 0 17.673 17.673 46.327 17.673 64 0 17.673-17.673 46.326-17.673 63.999 0l.001.001c6.678 6.678 14.924 10.833 23.553 12.464 4.398.831 8.446-2.632 8.446-7.108v-45.715c-11.582 0-23.163-4.418-32-13.255l.002-.001c-17.673-17.673-46.326-17.673-63.999 0-17.673 17.673-46.327 17.673-64 0-17.673-17.673-46.326-17.673-63.999 0l-.002.001c-17.673 17.673-46.326 17.673-63.999 0l-.001-.001c-17.673-17.673-46.326-17.673-63.999 0l-.001.001c-17.673 17.673-46.326 17.673-63.999 0l-.001-.001c-17.673-17.673-46.326-17.673-63.999 0l-.001.001c-8.836 8.836-20.418 13.255-32 13.255z" fill="#9be8fd"/></g></svg>