<svg id="Capa_1" enable-background="new 0 0 512 512" height="512" viewBox="0 0 512 512" width="512" xmlns="http://www.w3.org/2000/svg"><g><path d="m389.316 378.53c6.294 12.568 3.307 27.805-7.273 37.076l-108.004 94.612c-.896.783-1.978 1.329-3.121 1.597-.536.124-1.082.185-1.628.185h-26.579c-1.741 0-3.43-.639-4.749-1.782l-108.004-94.612c-10.58-9.272-13.568-24.508-7.273-37.076l22.499-44.978c10.158-20.284 15.937-41.99 17.472-63.83.01-.113.031-.227.051-.34.793-3.76 9.982-7.5 10.631-11.25 0-.01 0-.01 0-.021.031-.124.041-.258.041-.392-.01-5.872-8.808-11.744-10.992-17.565-.072-.196-.134-.381-.185-.577-.113-.402-.196-.804-.247-1.205-1.7-14.618-5.285-29.02-10.755-42.825-5.46-13.805-12.795-27.011-21.963-39.24-9.849-13.135-14.773-28.721-14.773-44.308s4.924-31.173 14.773-44.308c9.581-12.784 14.763-28.33 14.763-44.308v-16.172c0-3.987 3.224-7.211 7.211-7.211h17.575c3.987 0 7.211 3.235 7.211 7.211 0 .979.021 1.947.062 2.915 1.525 38.848 33.512 69.877 72.731 69.877h14.423c40.198 0 72.793-32.595 72.793-72.793 0-1.988.804-3.791 2.112-5.099 1.306-1.307 3.099-2.111 5.097-2.111h17.575c3.987 0 7.211 3.224 7.211 7.211v16.174c0 15.978 5.182 31.524 14.763 44.308 9.849 13.135 14.773 28.722 14.773 44.308 0 15.587-4.924 31.173-14.773 44.308-9.426 12.558-16.905 26.167-22.417 40.393-5.511 14.217-9.035 29.061-10.559 44.102-.608 5.975-11.198 11.981-11.157 17.987.021 3.997 10.487 8.005 10.786 11.991 1.648 21.49 7.407 42.814 17.4 62.769z" fill="#eb4340"/><path d="m270.917 511.815c-.536.124-1.082.185-1.628.185h-26.579c-1.741 0-3.43-.639-4.749-1.782l-108.004-94.612c-10.58-9.272-13.568-24.508-7.273-37.076l22.499-44.978c10.158-20.284 15.937-41.99 17.472-63.83.01-.113.031-.227.051-.34.845-3.533 10.652-7.057 10.662-10.59 0-.216-.01-.443-.031-.659 0-.01 0-.01 0-.021-.567-5.996-8.89-11.981-10.951-17.956-.072-.196-.134-.381-.185-.577-.124-.402-.196-.804-.247-1.205-1.7-14.618-5.285-29.02-10.755-42.825-5.46-13.805-12.795-27.011-21.963-39.24-9.849-13.135-14.773-28.721-14.773-44.308s4.924-31.173 14.773-44.308c9.581-12.784 14.763-28.33 14.763-44.308v-16.174c0-3.987 3.224-7.211 7.211-7.211h17.575c3.987 0 7.211 3.235 7.211 7.211 0 .979.021 1.947.062 2.915l-.237 14.773c0 7.984-1.525 15.494-4.244 22.592-2.73 7.108-6.645 13.804-11.435 20.202-9.849 13.135-14.773 28.722-14.773 44.308 0 15.587 4.924 31.173 14.773 44.308 38.467 51.293 44.638 119.913 15.947 177.243l-22.499 44.978c-6.294 12.568-3.307 27.805 7.273 37.076z" fill="#d42f2e"/><path d="m349.42 270.788c-.766-9.999-.64-20.034.366-29.981-57.467 21.039-120.078 20.227-187.835-2.436 1.203 10.389 1.443 20.884.708 31.346 64.444 24.014 126.698 24.371 186.761 1.071z" fill="#ffe02f"/><path d="m193.662 247.471c-10.442-2.489-21.012-5.522-31.711-9.1 1.203 10.389 1.443 20.884.708 31.346 10.042 3.742 20.032 6.91 29.968 9.503 1.342-10.553 1.683-21.185 1.035-31.749z" fill="#fbc700"/><path d="m280.788 160.001h-49.577c-3.983 0-7.211-3.229-7.211-7.211v-17.577c0-3.983 3.229-7.211 7.211-7.211h49.577c3.983 0 7.211 3.229 7.211 7.211v17.577c.001 3.982-3.228 7.211-7.211 7.211z" fill="#ffe02f"/></g></svg>