<svg id="Capa_1" enable-background="new 0 0 512 512" height="512" viewBox="0 0 512 512" width="512" xmlns="http://www.w3.org/2000/svg"><g><g fill="#fed2a4"><path d="m85.759 166.551h84.604v32h-84.604z"/><path d="m85.759 230.551h84.604v32h-84.604z"/><path d="m85.759 294.551h84.604v32h-84.604z"/></g><g><path d="m192.184 112.853h-32.246v-26.182c0-8.719-7.094-15.814-15.813-15.814h-32.128c-8.719 0-16.243 7.094-16.243 15.814v15.789l-16.363 10.394-15.33-10.394v-15.789c0-26.499 21.437-48.058 47.936-48.058h32.128c26.499 0 48.059 21.559 48.059 48.058z" fill="#fed2a4"/></g><path d="m79.514 337.947-7.726-11.395v-224.092h23.967l10.608 17.986-10.607 14.258v191.847z" fill="#fff3de"/><path d="m64.061 102.46h15.453v256.092h-15.453z" fill="#fed2a4"/><path d="m175.514 337.947-12.453-11.396v-202.271h29v202.271z" fill="#fff3de"/><path d="m160.061 124.28h15.453v234.271h-15.453z" fill="#fed2a4"/><path d="m64.061 326.552h31.692v42.301h-31.692z" fill="#fed2a4"/><path d="m64.061 326.552h15.453v42.301h-15.453z" fill="#ffbd86"/><path d="m160.061 326.552h32v42.301h-32z" fill="#fed2a4"/><path d="m160.061 326.552h15.453v42.301h-15.453z" fill="#ffbd86"/><g fill="#ffbd86"><path d="m127.45 38.612h-15.453c-26.499 0-47.936 21.559-47.936 48.058v15.789h15.453v-15.788c0-26.5 21.437-48.059 47.936-48.059z"/><path d="m159.578 70.857h-15.453c8.719 0 15.813 7.094 15.813 15.814v26.183h15.453v-26.183c0-8.72-7.093-15.814-15.813-15.814z"/></g><g><g><path d="m512 358.673-15.667 10h-56.083l-16.836-10c-4.706 0-9.177-2.056-12.241-5.629l-187.173-218.34-128.245.006v-32.245l135.66-.006c4.706 0 9.178 2.056 12.241 5.629l187.174 218.34h73.96c3.983 0 7.211 3.229 7.211 7.211v25.034z" fill="#ffe02f"/></g></g><path d="m0 421.932c11.582 0 23.163 5.884 32-2.953v-.001c17.673-17.673 46.326-17.673 63.999 0l.001.001c17.673 17.673 46.326 17.673 63.999 0l.001-.001c17.673-17.673 46.326-17.673 63.999 0l.001.001c17.673 17.673 46.326 17.673 63.999 0l.001-.001c17.673-17.673 46.327-17.673 63.999 0 17.673 17.673 46.327 17.673 64 0 17.673-17.673 46.326-17.673 63.999 0l.001.001c8.836 8.836 20.418 2.953 32 2.953v-63.38h-504.788c-3.983 0-7.211 3.229-7.211 7.211z" fill="#425f99"/><path d="m0 465.489c0 4.476 4.048 7.94 8.446 7.108 8.629-1.631 16.875-5.786 23.553-12.464l.001-.001c17.673-17.673 46.326-17.673 63.999 0l.001.001c17.673 17.673 46.326 17.673 63.999 0l.001-.001c17.673-17.673 46.326-17.673 63.999 0l.001.001c17.673 17.673 46.326 17.673 63.999 0l.001-.001c17.673-17.673 46.327-17.673 63.999 0 17.673 17.673 46.327 17.673 64 0 17.673-17.673 46.326-17.673 63.999 0l.001.001c6.678 6.678 14.924 10.833 23.553 12.464 4.398.831 8.446-2.632 8.446-7.108v-43.557c-11.582 0-23.163-4.418-32-13.255l.002-.001c-17.673-17.673-46.326-17.673-63.999 0-17.673 17.673-46.327 17.673-64 0-17.673-17.673-46.326-17.673-63.999 0l-.002.001c-17.673 17.673-46.326 17.673-63.999 0l-.001-.001c-17.673-17.673-46.326-17.673-63.999 0l-.001.001c-17.673 17.673-46.326 17.673-63.999 0l-.001-.001c-17.673-17.673-46.326-17.673-63.999 0l-.001.001c-8.836 8.836-20.418 13.255-32 13.255z" fill="#9be8fd"/></g></svg>