<svg id="Capa_1" enable-background="new 0 0 512 512" height="512" viewBox="0 0 512 512" width="512" xmlns="http://www.w3.org/2000/svg"><g><path d="m264.656 510.921h-17.569c-3.981 0-7.208-3.227-7.208-7.208v-376.608h31.985v376.608c0 3.981-3.227 7.208-7.208 7.208z" fill="#425f99"/><path d="m239.879 127.105v376.608c0 3.981 3.227 7.208 7.208 7.208h8.238v-383.816z" fill="#33518e"/><path d="m69.787 447.002h394.54v31.985h-394.54z" fill="#fed2a4"/><path d="m69.787 447.002v31.984h34.181l22.282-31.984z" fill="#ffbd86"/><path d="m38.431 507.87c-6.998-5.5-8.563-15.44-3.224-22.561l62.357-89.508c5.342-7.12 15.44-8.563 22.561-3.223 7.12 5.34 8.563 15.44 3.224 22.561l-62.357 89.508c-4.41 6.324-15.394 8.857-22.561 3.223z" fill="#fed2a4"/><path d="m55.801 485.31 62.357-89.508c.772-1.03 1.645-1.94 2.593-2.729-.203-.169-.412-.333-.626-.494-7.12-5.34-17.219-3.897-22.561 3.223l-62.357 89.508c-5.34 7.12-3.774 17.061 3.224 22.561 6.022 4.734 14.739 3.701 19.986-.501-6.476-5.586-7.797-15.151-2.616-22.06z" fill="#ffbd86"/><g><path d="m504.765 507.87c6.998-5.5 8.563-15.44 3.224-22.561l-62.357-89.508c-5.342-7.12-15.44-8.563-22.561-3.223-7.12 5.34-8.563 15.44-3.224 22.561l62.357 89.508c4.411 6.324 15.394 8.857 22.561 3.223z" fill="#fed2a4"/></g><path d="m502.799 504.648-62.357-89.508c-5.179-6.907-3.977-16.617 2.598-22.067-5.608-4.666-13.878-5.061-19.968-.494-7.12 5.34-8.563 15.44-3.224 22.561l62.357 89.508c4.41 6.323 15.393 8.856 22.561 3.223.207-.163.41-.33.608-.501-.998-.799-1.871-1.712-2.575-2.722z" fill="#ffbd86"/><g><path d="m495.43 415.139h-362.768-4.162l-16.431-3c-4.274 0-4.379-4.784-7.402-7.806l-9-12-84.167-76.833c-6.293-6.293-13.073-17.531-6.78-23.825 6.294-6.292 16.496-6.294 22.79 0l22.837 22.838 59.579 49.283c5.986 5.986 14.105 9.349 22.571 9.349l334.16 9.764h29.227c9.159 0 16.533 7.64 16.097 16.894-.408 8.668-7.874 15.336-16.551 15.336z" fill="#fff3de"/></g><path d="m25.314 314.465c-6.293-6.293-6.293-16.496 0-22.79.354-.354.721-.688 1.098-1.002-6.332-5.272-15.752-4.936-21.692 1.002-6.293 6.293-6.293 16.497 0 22.79l95.954 95.955c3.023 3.022 7.121 4.72 11.395 4.72h20.594c-4.274 0-8.372-1.698-11.395-4.72z" fill="#fed2a4"/><path d="m319.841 159.09h-127.939l-31.985-32.015h191.909z" fill="#fff"/><path d="m351.821 127.079-30.263 10.297h-128.712l-32.93-10.297 76.754-118.312 12.387-6.188c1.709-.844 3.542-1.349 5.396-1.514.947-.082 1.905-.082 2.852.01 1.812.165 3.614.659 5.293 1.483l13.955 6.955z" fill="#fff3de"/><path d="m316.853 159.09h-121.963c-1.913 0-3.747-.76-5.099-2.114l-29.873-29.902h191.908l-29.873 29.902c-1.353 1.353-3.187 2.114-5.1 2.114z" fill="#fed2a4"/><path d="m254.452 1.065-94.536 126.014-27.483 10.297h-102.707l-24.501-10.297c.494-1.771 1.668-3.367 3.45-4.335l227.995-113.977 12.387-6.188c1.709-.845 3.542-1.349 5.395-1.514z" fill="#eb4340"/><path d="m39.565 122.744 214.887-121.679c-1.854.165-3.686.669-5.396 1.514l-12.386 6.188-227.996 113.977c-1.781.968-2.955 2.564-3.45 4.335h30.891c.495-1.771 1.669-3.367 3.45-4.335z" fill="#d42f2e"/><path d="m159.916 127.079-29.871 29.9c-1.352 1.353-3.186 2.114-5.099 2.114h-89.982c-1.913 0-3.748-.761-5.1-2.114l-22.806-22.836c-2.101-1.936-2.155-5.854-1.833-7.064h46.254z" fill="#d42f2e"/><path d="m37.948 134.143c-2.101-1.936-2.155-5.854-1.833-7.064h-30.89c-.322 1.21-.268 5.128 1.833 7.064l22.807 22.835c1.352 1.354 3.187 2.114 5.1 2.114h30.891c-1.913 0-3.748-.761-5.1-2.114z" fill="#a3262c"/><path d="m257.277 1.065 94.536 126.014 31.866 10.297h97.306l25.519-10.297c-.494-1.771-1.668-3.367-3.45-4.335l-227.994-113.977-12.387-6.188c-1.71-.845-3.543-1.349-5.396-1.514z" fill="#eb4340"/><path d="m351.813 127.079 29.871 29.9c1.352 1.353 3.186 2.114 5.099 2.114h89.982c1.913 0 3.748-.761 5.1-2.114l22.807-22.835c2.101-1.936 2.155-5.854 1.833-7.064h-46.254-108.438z" fill="#d42f2e"/><path d="m131.965 382.91h334.692c7.588-1.307 13.352-7.912 13.352-15.874 0-8.897-7.208-16.115-16.115-16.115h-331.458l-59.249-59.249c-6.292-6.291-16.496-6.291-22.787 0-6.291 6.292-6.291 16.496 0 22.787l.206.309-.001.003 58.789 58.789c5.986 5.987 14.106 9.35 22.571 9.35z" fill="#97c232"/><path d="m71.199 314.772.001-.003-.206-.309c-6.292-6.292-6.292-16.496 0-22.787.354-.354.72-.687 1.097-1.001-6.33-5.27-15.753-4.937-21.69 1.001-6.292 6.292-6.292 16.496 0 22.787l.206.309-.001.003 58.789 58.789c5.986 5.986 14.105 9.349 22.571 9.349h20.594c-8.466 0-16.585-3.363-22.571-9.349z" fill="#88b22d"/></g></svg>