<svg id="Capa_1" enable-background="new 0 0 512 512" height="512" viewBox="0 0 512 512" width="512" xmlns="http://www.w3.org/2000/svg"><g><path d="m456.603 59.409c-13.805-14.185-19.403-35.503-36.41-43.413-58.351-27.14-130.199-17.275-178.82 30.135-32.194 31.393-48.242 72.974-48.144 114.524.042 17.674-14.66 31.654-32.333 31.487-41.292-.389-82.706 15.17-114.212 46.676-48.764 48.764-59.325 121.264-31.683 180.309 7.641 16.322 28.466 21.353 41.946 34.833 13.488 13.488 18.528 34.316 34.86 41.959 59.04 27.626 131.526 17.061 180.282-31.695 31.065-31.065 46.626-71.764 46.682-112.48.025-17.755 14.579-32.254 32.333-32.087 41.292.389 82.706-15.17 114.212-46.676 48.764-48.764 59.325-121.264 31.682-180.309-7.345-15.692-27.653-20.17-40.395-33.263zm-229.587 359.768c-37.351 37.351-97.909 37.351-135.259 0-37.351-37.351-37.351-97.909 0-135.259s97.909-37.351 135.259 0c37.351 37.35 37.351 97.908 0 135.259zm193.227-191.244c-37.351 37.351-97.909 37.351-135.259 0-37.351-37.351-37.351-97.909 0-135.259 37.351-37.351 97.908-37.351 135.259 0s37.351 97.908 0 135.259z" fill="#ffe02f"/><path d="m77.474 464.224c-62.244-62.244-62.244-163.162 0-225.406 31.506-31.506 72.92-47.064 114.212-46.676 17.673.166 32.375-13.813 32.333-31.487-.098-41.55 15.95-83.131 48.144-114.524 26.893-26.224 60.894-40.961 95.785-44.302-45.115-4.319-91.79 10.382-126.576 44.302-32.194 31.393-48.242 72.974-48.144 114.524.042 17.674-14.66 31.654-32.333 31.487-41.292-.389-82.706 15.17-114.212 46.676-48.764 48.764-59.325 121.264-31.683 180.309 7.641 16.322 28.466 21.353 41.946 34.833 13.488 13.488 18.528 34.316 34.86 41.959 26.101 12.213 54.83 16.962 82.974 14.247-35.516-3.427-70.104-18.741-97.306-45.942z" fill="#fbc700"/><path d="m43.707 419.127h-28.706c7.641 16.322 18.202 31.617 31.682 45.097 13.488 13.488 28.792 24.052 45.124 31.695l.112-28.867c.007-1.925-.758-3.772-2.124-5.128l-41.028-40.712c-1.346-1.336-3.165-2.085-5.06-2.085z" fill="#425f99"/><path d="m15.001 419.127c7.641 16.322 18.202 31.617 31.682 45.097 13.488 13.488 28.792 24.052 45.124 31.695l.073-18.912c-4.993-3.921-9.806-8.182-14.407-12.783-13.38-13.38-23.884-28.548-31.512-44.734-.721-.238-1.482-.363-2.255-.363z" fill="#33518e"/><path d="m468.293 92.672h28.706c-7.346-15.692-17.39-30.434-30.133-43.527-13.805-14.185-29.666-25.239-46.674-33.149l-.111 28.751c-.007 1.925.758 3.772 2.124 5.128l41.028 40.712c1.346 1.335 3.165 2.085 5.06 2.085z" fill="#425f99"/><g><g><path d="m385.428 45.044c-.652 0-1.316-.084-1.978-.259-12.598-3.339-25.604-4.604-38.643-3.759-4.267.276-7.905-2.942-8.18-7.184s2.942-7.904 7.184-8.179c14.714-.954 29.373.474 43.584 4.241 4.109 1.089 6.557 5.304 5.469 9.413-.914 3.448-4.029 5.727-7.436 5.727z" fill="#425f99"/></g></g><g><g><path d="m479.547 176.391c-.17 0-.341-.006-.512-.017-4.243-.279-7.455-3.944-7.176-8.185.857-13.059-.4-26.076-3.738-38.69-1.086-4.11 1.363-8.323 5.474-9.41s8.323 1.364 9.411 5.473c3.764 14.229 5.182 28.909 4.215 43.635-.268 4.071-3.652 7.194-7.674 7.194z" fill="#425f99"/></g></g><g><g><path d="m192.201 236.287c-.652 0-1.316-.084-1.978-.259-12.598-3.34-25.605-4.604-38.643-3.759-4.258.282-7.905-2.942-8.18-7.184s2.942-7.904 7.183-8.179c14.714-.953 29.373.474 43.584 4.241 4.109 1.089 6.557 5.304 5.469 9.413-.913 3.448-4.029 5.727-7.435 5.727z" fill="#425f99"/></g></g><g><g><path d="m286.32 367.634c-.17 0-.341-.006-.513-.017-4.242-.279-7.455-3.944-7.175-8.186.858-13.054-.399-26.071-3.737-38.688-1.086-4.11 1.364-8.323 5.474-9.41s8.323 1.364 9.411 5.473c3.764 14.233 5.182 28.914 4.214 43.636-.269 4.069-3.654 7.192-7.674 7.192z" fill="#425f99"/></g></g></g></svg>