<svg id="Capa_1" enable-background="new 0 0 512 512" height="512" viewBox="0 0 512 512" width="512" xmlns="http://www.w3.org/2000/svg"><g><path d="m160 415.979-32-383.979 30.906-10.302h193.094l32 10.302-32 383.979-32 10.302h-129.094z" fill="#fff3de"/><path d="m128 32 32 383.979 30.906 10.302v-10.302l-32-383.979v-10.302z" fill="#ffe5c2"/><circle cx="256" cy="192" fill="#ffe02f" r="32"/><g><g><g><path d="m256 135.726c-4.267 0-7.726-3.459-7.726-7.726v-16c0-4.267 3.459-7.726 7.726-7.726s7.726 3.459 7.726 7.726v16c0 4.267-3.459 7.726-7.726 7.726z" fill="#ffe02f"/></g><g><path d="m256 279.727c-4.267 0-7.726-3.459-7.726-7.726v-16c0-4.267 3.459-7.726 7.726-7.726s7.726 3.459 7.726 7.726v16c0 4.266-3.459 7.726-7.726 7.726z" fill="#ffe02f"/></g></g></g><g><g><g><path d="m210.745 154.472c-1.977 0-3.955-.755-5.463-2.263l-11.313-11.313c-3.018-3.017-3.018-7.91 0-10.927 3.017-3.017 7.91-3.017 10.927 0l11.313 11.313c3.018 3.017 3.018 7.91 0 10.927-1.509 1.508-3.486 2.263-5.464 2.263z" fill="#ffe02f"/></g><g><path d="m312.568 256.295c-1.977 0-3.955-.755-5.463-2.263l-11.313-11.313c-3.018-3.017-3.018-7.91 0-10.927 3.017-3.017 7.91-3.017 10.927 0l11.313 11.313c3.018 3.017 3.018 7.91 0 10.927-1.509 1.508-3.486 2.263-5.464 2.263z" fill="#ffe02f"/></g></g></g><g><g><g><path d="m192 199.726h-16c-4.267 0-7.726-3.459-7.726-7.726s3.459-7.726 7.726-7.726h16c4.267 0 7.726 3.459 7.726 7.726s-3.459 7.726-7.726 7.726z" fill="#ffe02f"/></g><g><path d="m336 199.726h-16c-4.267 0-7.726-3.459-7.726-7.726s3.459-7.726 7.726-7.726h16c4.267 0 7.726 3.459 7.726 7.726s-3.459 7.726-7.726 7.726z" fill="#ffe02f"/></g></g></g><g><g><g><path d="m199.432 256.295c-1.977 0-3.955-.755-5.463-2.263-3.018-3.017-3.018-7.91 0-10.927l11.313-11.313c3.017-3.017 7.91-3.017 10.927 0 3.018 3.017 3.018 7.91 0 10.927l-11.313 11.313c-1.51 1.508-3.487 2.263-5.464 2.263z" fill="#ffe02f"/></g><g><path d="m301.255 154.472c-1.977 0-3.955-.755-5.463-2.263-3.018-3.017-3.018-7.91 0-10.927l11.313-11.313c3.017-3.017 7.91-3.017 10.927 0 3.018 3.017 3.018 7.91 0 10.927l-11.313 11.313c-1.509 1.508-3.487 2.263-5.464 2.263z" fill="#ffe02f"/></g></g></g><g><g><path d="m320 327.726h-128c-4.267 0-7.726-3.459-7.726-7.726s3.459-7.726 7.726-7.726h128c4.267 0 7.726 3.459 7.726 7.726s-3.459 7.726-7.726 7.726z" fill="#ffe02f"/></g></g><g><g><path d="m288 359.726h-64c-4.267 0-7.726-3.459-7.726-7.726s3.459-7.726 7.726-7.726h64c4.267 0 7.726 3.459 7.726 7.726s-3.459 7.726-7.726 7.726z" fill="#ffe02f"/></g></g><path d="m384 32h-256v-24.789c0-3.982 3.229-7.211 7.211-7.211h241.577c3.983 0 7.212 3.229 7.212 7.211z" fill="#97c232"/><path d="m128 7.211v24.789h30.906v-32h-23.694c-3.983 0-7.212 3.229-7.212 7.211z" fill="#88b22d"/><path d="m320.064 512h-128.128c-17.638 0-31.936-14.298-31.936-31.936v-64.085h192v64.085c0 17.638-14.298 31.936-31.936 31.936z" fill="#97c232"/><path d="m190.906 480.064v-64.085h-30.906v64.085c0 17.638 14.298 31.936 31.936 31.936h30.906c-17.638 0-31.936-14.298-31.936-31.936z" fill="#88b22d"/><path d="m280.789 480h-49.577c-3.983 0-7.211-3.229-7.211-7.211v-17.577c0-3.983 3.229-7.211 7.211-7.211h49.577c3.983 0 7.211 3.229 7.211 7.211v17.577c0 3.982-3.229 7.211-7.211 7.211z" fill="#ffe02f"/></g></svg>