<svg id="Capa_1" enable-background="new 0 0 512 512" height="512" viewBox="0 0 512 512" width="512" xmlns="http://www.w3.org/2000/svg"><g><path d="m432 341.698h-352v96.957l10.302 52.741h331.396l10.302-52.741z" fill="#ffe02f"/><path d="m80 341.698v96.957l10.302 52.741h20.604v-149.698z" fill="#fbc700"/><path d="m80 438.655c7.962 0 15.925-2.232 22-6.696 12.1-8.891 31.9-8.891 44 0 12.1 8.891 31.9 8.891 44 0 12.1-8.891 31.9-8.891 44 0h.001c12.1 8.891 31.9 8.891 43.999 0l.001-.001c12.1-8.891 31.9-8.891 44 0 12.1 8.891 31.9 8.891 44 0 12.1-8.891 31.9-8.891 44 0 6.075 4.464 14.037 6.696 22 6.696v66.134c0 3.983-3.229 7.211-7.211 7.211h-337.579c-3.983 0-7.211-3.229-7.211-7.211z" fill="#9be8fd"/><path d="m102 431.958c-6.076 4.464-14.038 6.696-22 6.696v66.134c0 3.983 3.229 7.211 7.211 7.211h23.694v-84.621c-3.224 1.099-6.245 2.626-8.905 4.58z" fill="#62ddfc"/><path d="m80 53.698h352v276.604h-352z" fill="#ffe02f"/><path d="m80 53.698h32.015v276.604h-32.015z" fill="#fbc700"/><path d="m232.789 96h-113.578c-3.983 0-7.211 3.229-7.211 7.211v177.577c0 3.983 3.229 7.211 7.211 7.211h40.789l16-10.302 16 10.303h40.789c3.983 0 7.211-3.229 7.211-7.211v-177.578c0-3.982-3.229-7.211-7.211-7.211z" fill="#425f99"/><path d="m392.789 96h-113.578c-3.983 0-7.211 3.229-7.211 7.211v177.577c0 3.983 3.229 7.211 7.211 7.211h40.789l16-10.302 16 10.303h40.789c3.983 0 7.211-3.229 7.211-7.211v-177.578c0-3.982-3.229-7.211-7.211-7.211z" fill="#425f99"/><path d="m192 288h-32v-34.745c0-8.837 7.163-16 16-16 8.837 0 16 7.163 16 16z" fill="#c9f0fe"/><path d="m352 288h-32v-34.745c0-8.837 7.163-16 16-16 8.837 0 16 7.163 16 16z" fill="#c9f0fe"/><path d="m440.789 64h-369.578c-3.982 0-7.211-3.229-7.211-7.211v-49.578c0-3.982 3.229-7.211 7.211-7.211h369.577c3.983 0 7.212 3.229 7.212 7.211v49.577c0 3.983-3.229 7.212-7.211 7.212z" fill="#425f99"/><path d="m64 7.211v49.577c0 3.983 3.229 7.212 7.211 7.212h23.694v-64h-23.694c-3.982 0-7.211 3.229-7.211 7.211z" fill="#33518e"/><path d="m440.789 320h-369.578c-3.983 0-7.211 3.229-7.211 7.211v17.577c0 3.983 3.229 7.211 7.211 7.211h369.577c3.983 0 7.211-3.229 7.211-7.211v-17.577c.001-3.982-3.228-7.211-7.21-7.211z" fill="#425f99"/><path d="m64 327.211v17.577c0 3.983 3.229 7.211 7.211 7.211h23.694v-32h-23.694c-3.982.001-7.211 3.23-7.211 7.212z" fill="#33518e"/><g><path d="m384 39.727h-256c-4.267 0-7.726-3.459-7.726-7.726s3.459-7.726 7.726-7.726h256c4.267 0 7.726 3.459 7.726 7.726s-3.459 7.726-7.726 7.726z" fill="#c9f0fe"/></g></g></svg>