<svg id="Capa_1" enable-background="new 0 0 512 512" height="512" viewBox="0 0 512 512" width="512" xmlns="http://www.w3.org/2000/svg"><g><path d="m32.028 469.703h63.961l.29 35.026c.033 4.005-3.205 7.27-7.21 7.27h-49.54c-3.959 0-7.177-3.192-7.21-7.151z" fill="#ffe02f"/><path d="m59.9 490.305h36.26l-.171-20.601h-63.961l.291 35.146c.033 3.959 3.251 7.151 7.21 7.151h13.28l-.12-14.425c-.033-4.007 3.205-7.271 7.211-7.271z" fill="#fbc700"/><path d="m415.995 469.703h63.961v35.086c0 3.982-3.228 7.21-7.21 7.21h-49.249c-3.959 0-7.177-3.192-7.21-7.151z" fill="#ffe02f"/><path d="m443.867 490.305h36.09v-20.601h-63.961l.291 35.146c.033 3.959 3.251 7.151 7.21 7.151h13.28l-.12-14.425c-.033-4.007 3.205-7.271 7.21-7.271z" fill="#fbc700"/><path d="m447.976 74.356h-383.967v-67.146c0-3.982 3.228-7.21 7.21-7.21h369.547c3.982 0 7.21 3.228 7.21 7.21z" fill="#ffe02f"/><path d="m105.211 38.304v-38.304h-33.992c-3.982 0-7.21 3.228-7.21 7.21v67.146h383.968v-20.601h-327.315c-8.533 0-15.451-6.918-15.451-15.451z" fill="#fbc700"/><path d="m504.758 480.004h-497.516c-3.982 0-7.21-3.228-7.21-7.21v-401.528c0-3.982 3.228-7.21 7.21-7.21h497.515c3.982 0 7.21 3.228 7.21 7.21v401.527c.001 3.983-3.227 7.211-7.209 7.211z" fill="#c9f0fe"/><path d="m32.058 472.794v-401.528c0-3.982 3.228-7.21 7.21-7.21h-32.026c-3.982 0-7.21 3.228-7.21 7.21v401.527c0 3.982 3.228 7.21 7.21 7.21h32.026c-3.981.001-7.21-3.227-7.21-7.209z" fill="#9be8fd"/><g fill="#425f99"><path d="m152.84 256.032h-113.563c-3.982 0-7.21-3.228-7.21-7.21v-145.56c0-3.982 3.228-7.21 7.21-7.21h113.563c3.982 0 7.21 3.228 7.21 7.21v145.559c0 3.983-3.228 7.211-7.21 7.211z"/><path d="m312.812 256.032h-113.563c-3.982 0-7.21-3.228-7.21-7.21v-145.56c0-3.982 3.228-7.21 7.21-7.21h113.563c3.982 0 7.21 3.228 7.21 7.21v145.559c.001 3.983-3.228 7.211-7.21 7.211z"/><path d="m472.792 256.032h-113.563c-3.982 0-7.21-3.228-7.21-7.21v-145.56c0-3.982 3.228-7.21 7.21-7.21h113.563c3.982 0 7.21 3.228 7.21 7.21v145.559c.001 3.983-3.227 7.211-7.21 7.211z"/><path d="m152.84 448.072h-113.563c-3.982 0-7.21-3.228-7.21-7.21v-145.56c0-3.982 3.228-7.21 7.21-7.21h113.563c3.982 0 7.21 3.228 7.21 7.21v145.559c0 3.982-3.228 7.211-7.21 7.211z"/><path d="m312.812 448.072h-113.563c-3.982 0-7.21-3.228-7.21-7.21v-145.56c0-3.982 3.228-7.21 7.21-7.21h113.563c3.982 0 7.21 3.228 7.21 7.21v145.559c.001 3.982-3.228 7.211-7.21 7.211z"/><path d="m472.792 448.072h-113.563c-3.982 0-7.21-3.228-7.21-7.21v-145.56c0-3.982 3.228-7.21 7.21-7.21h113.563c3.982 0 7.21 3.228 7.21 7.21v145.559c.001 3.982-3.227 7.211-7.21 7.211z"/></g><g><g><path d="m128.016 135.773h-63.992c-4.267 0-7.725-3.459-7.725-7.725s3.459-7.725 7.725-7.725h63.992c4.267 0 7.725 3.459 7.725 7.725s-3.458 7.725-7.725 7.725z" fill="#33518e"/></g></g><g><g><path d="m128.016 167.769h-63.992c-4.267 0-7.725-3.459-7.725-7.725 0-4.267 3.459-7.725 7.725-7.725h63.992c4.267 0 7.725 3.459 7.725 7.725s-3.458 7.725-7.725 7.725z" fill="#33518e"/></g></g><g><g><path d="m128.016 215.763c-4.267 0-7.725-3.459-7.725-7.725v-15.998c0-4.267 3.459-7.725 7.725-7.725 4.267 0 7.725 3.459 7.725 7.725v15.998c0 4.266-3.458 7.725-7.725 7.725z" fill="#33518e"/></g></g><g><g><path d="m288.026 135.773h-63.992c-4.267 0-7.725-3.459-7.725-7.725s3.459-7.725 7.725-7.725h63.992c4.267 0 7.725 3.459 7.725 7.725s-3.457 7.725-7.725 7.725z" fill="#33518e"/></g></g><g><g><path d="m288.026 167.769h-63.992c-4.267 0-7.725-3.459-7.725-7.725 0-4.267 3.459-7.725 7.725-7.725h63.992c4.267 0 7.725 3.459 7.725 7.725.001 4.266-3.457 7.725-7.725 7.725z" fill="#33518e"/></g></g><g><g><path d="m288.026 215.763c-4.267 0-7.725-3.459-7.725-7.725v-15.998c0-4.267 3.458-7.725 7.725-7.725s7.725 3.459 7.725 7.725v15.998c.001 4.266-3.457 7.725-7.725 7.725z" fill="#33518e"/></g></g><g><g><path d="m447.976 135.773h-63.992c-4.267 0-7.725-3.459-7.725-7.725s3.458-7.725 7.725-7.725h63.992c4.267 0 7.725 3.459 7.725 7.725s-3.458 7.725-7.725 7.725z" fill="#33518e"/></g></g><g><g><path d="m447.976 167.769h-63.992c-4.267 0-7.725-3.459-7.725-7.725 0-4.267 3.458-7.725 7.725-7.725h63.992c4.267 0 7.725 3.459 7.725 7.725s-3.458 7.725-7.725 7.725z" fill="#33518e"/></g></g><g><g><path d="m447.976 215.763c-4.267 0-7.725-3.459-7.725-7.725v-15.998c0-4.267 3.458-7.725 7.725-7.725s7.725 3.459 7.725 7.725v15.998c0 4.266-3.458 7.725-7.725 7.725z" fill="#33518e"/></g></g><g><g><path d="m128.016 327.813h-63.992c-4.267 0-7.725-3.459-7.725-7.725s3.459-7.725 7.725-7.725h63.992c4.267 0 7.725 3.459 7.725 7.725s-3.458 7.725-7.725 7.725z" fill="#33518e"/></g></g><g><g><path d="m128.016 359.809h-63.992c-4.267 0-7.725-3.459-7.725-7.725 0-4.267 3.459-7.725 7.725-7.725h63.992c4.267 0 7.725 3.459 7.725 7.725s-3.458 7.725-7.725 7.725z" fill="#33518e"/></g></g><g><g><path d="m128.016 407.803c-4.267 0-7.725-3.459-7.725-7.725v-15.998c0-4.267 3.459-7.725 7.725-7.725 4.267 0 7.725 3.459 7.725 7.725v15.998c0 4.266-3.458 7.725-7.725 7.725z" fill="#33518e"/></g></g><g><g><path d="m288.026 327.813h-63.992c-4.267 0-7.725-3.459-7.725-7.725s3.459-7.725 7.725-7.725h63.992c4.267 0 7.725 3.459 7.725 7.725s-3.457 7.725-7.725 7.725z" fill="#33518e"/></g></g><g><g><path d="m288.026 359.809h-63.992c-4.267 0-7.725-3.459-7.725-7.725 0-4.267 3.459-7.725 7.725-7.725h63.992c4.267 0 7.725 3.459 7.725 7.725.001 4.266-3.457 7.725-7.725 7.725z" fill="#33518e"/></g></g><g><g><path d="m288.026 407.803c-4.267 0-7.725-3.459-7.725-7.725v-15.998c0-4.267 3.458-7.725 7.725-7.725s7.725 3.459 7.725 7.725v15.998c.001 4.266-3.457 7.725-7.725 7.725z" fill="#33518e"/></g></g><g><g><path d="m447.976 327.813h-63.992c-4.267 0-7.725-3.459-7.725-7.725s3.458-7.725 7.725-7.725h63.992c4.267 0 7.725 3.459 7.725 7.725s-3.458 7.725-7.725 7.725z" fill="#33518e"/></g></g><g><g><path d="m447.976 359.809h-63.992c-4.267 0-7.725-3.459-7.725-7.725 0-4.267 3.458-7.725 7.725-7.725h63.992c4.267 0 7.725 3.459 7.725 7.725s-3.458 7.725-7.725 7.725z" fill="#33518e"/></g></g><g><g><path d="m447.976 407.803c-4.267 0-7.725-3.459-7.725-7.725v-15.998c0-4.267 3.458-7.725 7.725-7.725s7.725 3.459 7.725 7.725v15.998c0 4.266-3.458 7.725-7.725 7.725z" fill="#33518e"/></g></g><g><g><path d="m415.98 39.722h-319.96c-4.267 0-7.725-3.459-7.725-7.725s3.459-7.725 7.725-7.725h319.96c4.267 0 7.725 3.459 7.725 7.725s-3.458 7.725-7.725 7.725z" fill="#425f99"/></g></g><path d="m88.295 31.996c0 4.267 3.459 7.725 7.725 7.725h9.262c-.043-.467-.072-.939-.072-1.417v-14.033h-9.19c-4.266 0-7.725 3.459-7.725 7.725z" fill="#33518e"/></g></svg>