<svg id="Capa_1" enable-background="new 0 0 511.996 511.996" height="512" viewBox="0 0 511.996 511.996" width="512" xmlns="http://www.w3.org/2000/svg"><g><path d="m81.406 7.5h31.062v496.996h-31.062z" fill="#c9f0fe"/><path d="m81.406 7.5h15v496.996h-15z" fill="#9be8fd"/><path d="m81.407 7.5h31.061v62.125h-31.061z" fill="#97c232"/><path d="m81.407 7.5h15v62.125h-15z" fill="#88b22d"/><path d="m81.407 69.656h31.061v62.125h-31.061z" fill="#ffe02f"/><path d="m81.407 69.656h15v62.124h-15z" fill="#fbc700"/><path d="m81.407 131.811h31.061v62.125h-31.061z" fill="#eb4340"/><path d="m81.407 131.811h15v62.125h-15z" fill="#d42f2e"/><path d="m221.216 370.247v103.187h-15.531c-8.578 0-15.531 6.954-15.531 15.531 0 8.578 6.954 15.531 15.531 15.531h30.94c8.578 0 15.531-6.954 15.531-15.531v-118.718z" fill="#fff3de"/><g fill="#ffe5c2"><path d="m236.216 370.247h-15v103.187h8c3.866 0 7-3.134 7-7z"/><path d="m205.154 488.965c0-8.578 6.953-15.531 15.531-15.531h-15c-8.578 0-15.531 6.953-15.531 15.531s6.953 15.531 15.531 15.531h15c-8.578 0-15.531-6.953-15.531-15.531z"/></g><path d="m314.342 370.247v103.187h15.531c8.578 0 15.531 6.954 15.531 15.531 0 8.578-6.953 15.531-15.531 15.531h-30.94c-8.578 0-15.531-6.954-15.531-15.531v-118.718z" fill="#fff3de"/><path d="m298.402 488.965v-118.718h-15v118.718c0 8.578 6.953 15.531 15.531 15.531h15c-8.578 0-15.531-6.953-15.531-15.531z" fill="#ffe5c2"/><path d="m360.968 193.808v108.78c0 4.29-1.74 8.17-4.55 10.98s-6.69 4.55-10.98 4.55c-.18 0-.35 0-.53-.01-8.33-.28-15-7.12-15-15.52h-124.25c0 4.29-1.74 8.17-4.55 10.98s-6.7 4.55-10.98 4.55c-8.58 0-15.54-6.95-15.54-15.53v-108.78c0-17.12 13.88-31 31-31h31.13c8.58 0 15.53-6.95 15.53-15.53v-31.06h31.06v31.06c0 8.58 6.96 15.53 15.53 15.53h31.13c17.12 0 31 13.88 31 31z" fill="#fff3de"/><path d="m205.655 193.812c0-17.121 13.879-31 31-31h-31.062c-17.121 0-31 13.879-31 31v108.78c0 8.578 6.953 15.531 15.531 15.531s15.531-6.953 15.531-15.531v-15.531z" fill="#ffe5c2"/><path d="m231.186 85.156h-15.531c-8.578 0-15.531-6.954-15.531-15.531 0-8.578 6.954-15.531 15.531-15.531h15.531z" fill="#fed2a4"/><path d="m304.372 85.156h15.531c8.578 0 15.531-6.954 15.531-15.531 0-8.578-6.954-15.531-15.531-15.531h-15.531z" fill="#fed2a4"/><path d="m267.779 131.749c-25.733 0-46.593-20.861-46.593-46.593v-31.062c0-25.733 20.861-46.593 46.593-46.593 25.733 0 46.593 20.861 46.593 46.593v31.062c0 25.733-20.86 46.593-46.593 46.593z" fill="#fff3de"/><path d="m283.31 147.282v-18.183l-16.04-1.224-15.022-11.656v31.063c0 8.577-6.953 15.53-15.53 15.53h31.062c8.577 0 15.53-6.953 15.53-15.53z" fill="#ffe5c2"/><path d="m251.186 85.156v-31.062c0-20.483 13.223-37.866 31.593-44.111-4.709-1.601-9.75-2.482-15-2.482-25.733 0-46.593 20.861-46.593 46.593v31.062c0 25.733 20.861 46.593 46.593 46.593 5.25 0 10.822-1.05 15.531-2.651-18.37-6.245-32.124-23.459-32.124-43.942z" fill="#ffe5c2"/><g fill="#425f99"><path d="m417.787 483.662-2.728 2.728v-460.783l2.728 2.728c2.93 2.929 7.678 2.929 10.607 0s2.929-7.678 0-10.606l-15.531-15.532c-.041-.041-.083-.081-.125-.121-.013-.012-.026-.024-.039-.037-.027-.026-.055-.051-.083-.077-.018-.016-.035-.032-.053-.048-.027-.024-.053-.047-.081-.071-.037-.032-.074-.064-.112-.095-.013-.011-.026-.022-.04-.033-.03-.025-.061-.05-.092-.074-.006-.005-.013-.01-.019-.015-.982-.781-2.115-1.28-3.289-1.498-.026-.005-.053-.01-.079-.014-.023-.004-.045-.008-.068-.011-.044-.007-.088-.014-.132-.021-.007-.001-.013-.002-.02-.003-.821-.119-1.664-.102-2.493.058-.016.003-.031.006-.047.009-.034.007-.068.014-.102.021-.027.006-.055.012-.082.018-.016.004-.032.007-.047.011-1.052.243-2.062.716-2.95 1.419-.014.011-.027.022-.041.032-.025.02-.05.04-.074.06-.029.024-.057.047-.085.072-.017.014-.033.028-.05.042-.037.032-.074.065-.111.098-.011.01-.023.021-.035.031-.036.033-.072.066-.107.1-.007.006-.014.013-.02.019-.043.041-.085.082-.127.123-.002.002-.004.004-.006.006l-15.531 15.531c-2.929 2.929-2.929 7.678 0 10.606 1.465 1.464 3.385 2.197 5.304 2.197s3.839-.732 5.304-2.197l2.728-2.728v460.783l-2.728-2.728c-2.93-2.929-7.678-2.929-10.607 0s-2.929 7.678 0 10.606l15.531 15.531c.045.045.091.09.137.134 1.446 1.375 3.307 2.063 5.167 2.063h.002c.031 0 .061-.001.092-.001.029 0 .058 0 .087-.001.051-.001.101-.003.152-.005.009 0 .018-.001.028-.001.031-.001.061-.004.092-.006s.061-.003.092-.005c.015-.001.03-.003.045-.004.045-.004.091-.007.136-.011.012-.001.024-.003.036-.004.049-.005.097-.01.146-.016.007-.001.014-.002.021-.003 1.326-.164 2.616-.682 3.718-1.554.015-.012.029-.023.044-.035.025-.02.049-.04.074-.06.026-.021.051-.042.076-.063.021-.018.043-.036.064-.055.036-.031.072-.062.107-.094.01-.009.02-.019.031-.028.037-.034.074-.068.11-.102.007-.006.013-.012.02-.019.043-.041.085-.082.127-.123l.006-.006 15.531-15.531c2.929-2.929 2.929-7.678 0-10.606-2.931-2.93-7.679-2.93-10.609-.001z"/><path d="m143.53 77.125c4.143 0 7.5-3.358 7.5-7.5s-3.357-7.5-7.5-7.5h-62.124v15z"/><path d="m143.53 15c4.219 0 7.624-3.483 7.497-7.731-.124-4.104-3.705-7.269-7.811-7.269h-54.81c-3.866 0-7 3.134-7 7v8z"/><path d="m143.53 139.249c4.143 0 7.5-3.358 7.5-7.5s-3.357-7.5-7.5-7.5h-62.124v15z"/><path d="m143.53 201.436c4.143 0 7.5-3.358 7.5-7.5s-3.357-7.5-7.5-7.5h-62.124v15z"/><path d="m376.183 496.996h-294.777v8c0 3.866 3.134 7 7 7h288.091c4.219 0 7.624-3.483 7.497-7.731-.124-4.104-3.705-7.269-7.811-7.269z"/></g><path d="m329.908 287.058v86.19c0 3.866-3.134 7-7 7h-110.25c-3.866 0-7-3.134-7-7v-86.19z" fill="#eb4340"/><path d="m205.655 287.061v86.187c0 3.866 3.134 7 7 7h23v-93.187z" fill="#d42f2e"/><g><g><path d="m275.288 380.248h-15l-.01-46.59c0-4.15 3.36-7.5 7.5-7.5s7.5 3.35 7.5 7.49z" fill="#d42f2e"/></g></g><g><path d="m283.31 310.092c-1.92 0-3.84-.732-5.304-2.198l-10.225-10.227-10.231 10.229c-2.931 2.929-7.68 2.928-10.606-.002-2.929-2.929-2.928-7.678.001-10.606l15.536-15.531c1.406-1.406 3.314-2.196 5.303-2.196h.001c1.989 0 3.896.791 5.303 2.198l15.526 15.531c2.929 2.929 2.928 7.678-.001 10.606-1.465 1.464-3.384 2.196-5.303 2.196z" fill="#c9f0fe"/></g><g><path d="m344.908 209.408v108.7c-8.33-.28-15-7.12-15-15.52v-93.18c0-4.15 3.35-7.5 7.5-7.5 4.14 0 7.5 3.35 7.5 7.5z" fill="#ffe5c2"/></g></g></svg>