<svg id="Capa_1" enable-background="new 0 0 512 512" height="512" viewBox="0 0 512 512" width="512" xmlns="http://www.w3.org/2000/svg"><g><path d="m512 319.999c-18.36-4.743-36.788 1.344-55.283-2.344-131.631-26.249-266.701-25.797-405.208 1.356-17.117 3.356-34.287-3.183-51.509.989v-32c0-22.86 2.996-45.019 8.617-66.108 2.992-11.224 17.029-22.145 21.452-32.707 5.614-13.405 2.033-26.231 9.748-38.363 45.42-71.429 125.267-118.823 216.183-118.823 90.916 0 170.763 47.394 216.183 118.823 7.976 12.543 4.588 25.827 10.314 39.725 4.176 10.137 18.022 20.601 20.886 31.343 5.621 21.089 8.618 43.249 8.618 66.109v32z" fill="#eb4340"/><path d="m51.509 287.999c0-132.692 100.955-241.804 230.245-254.72-8.47-.846-17.062-1.28-25.754-1.28-90.916 0-170.762 47.393-216.182 118.822-7.387 11.617-3.561 23.87-9.027 36.658-4.74 11.09-19.021 22.583-22.174 34.412-5.621 21.089-8.617 43.249-8.617 66.108v32c17.222-4.171 34.392 2.367 51.509-.989z" fill="#d42f2e"/><path d="m503.379 221.892.003-.002c-6.789-25.47-17.407-49.377-31.199-71.068l-.008-.003c-144.113-30.432-288.237-30.432-432.35 0l-.007.002c-13.793 21.691-24.411 45.599-31.2 71.069l.003.002c164.923-39.848 329.835-39.848 494.758 0z" fill="#ffe02f"/><path d="m39.825 150.819-.007.002c-13.793 21.691-24.411 45.599-31.2 71.069l.003.002c18.32-4.426 36.64-8.361 54.96-11.804 8.06-25.256 19.934-48.809 34.944-69.981-19.567 3.01-39.133 6.581-58.7 10.712z" fill="#fbc700"/><g><path d="m74.302 448.001h-35.09c-3.983 0-7.211-3.229-7.211-7.211v-17.577c0-3.983 3.229-7.211 7.211-7.211h35.091v31.999z" fill="#eb4340"/><path d="m472.789 448.001h-35.091v-32h35.091c3.983 0 7.211 3.229 7.211 7.211v17.577c.001 3.983-3.228 7.212-7.211 7.212z" fill="#eb4340"/><g><g><path d="m295.211 453.631-14.421-7.21c-15.52-7.76-34.057-7.761-49.579 0l-14.421 7.21-14.42-28.841 14.421-7.21c24.551-12.278 53.869-12.277 78.42 0l14.421 7.21z" fill="#eb4340"/></g></g><path d="m192.065 480.001h-96.129c-17.638 0-31.936-14.298-31.936-31.936v-32.128c0-17.638 14.298-31.936 31.936-31.936h96.128c17.638 0 31.936 14.298 31.936 31.936v32.128c.001 17.637-14.298 31.936-31.935 31.936z" fill="#c9f0fe"/><path d="m94.906 448.065v-32.128c0-17.638 14.298-31.936 31.936-31.936h-30.906c-17.638 0-31.936 14.298-31.936 31.936v32.128c0 17.638 14.298 31.936 31.936 31.936h30.906c-17.638 0-31.936-14.299-31.936-31.936z" fill="#9be8fd"/><path d="m416.065 480.001h-96.128c-17.638 0-31.936-14.298-31.936-31.936v-32.128c0-17.638 14.298-31.936 31.936-31.936h96.128c17.638 0 31.936 14.298 31.936 31.936v32.128c0 17.637-14.299 31.936-31.936 31.936z" fill="#c9f0fe"/><path d="m318.906 448.065v-32.128c0-17.638 14.298-31.936 31.936-31.936h-30.906c-17.638 0-31.936 14.298-31.936 31.936v32.128c0 17.638 14.298 31.936 31.936 31.936h30.906c-17.638 0-31.936-14.299-31.936-31.936z" fill="#9be8fd"/><g><path d="m104.001 455.727c-1.977 0-3.955-.755-5.464-2.263-3.017-3.017-3.017-7.91 0-10.927l32-32c3.018-3.017 7.91-3.017 10.928 0 3.017 3.017 3.017 7.91 0 10.927l-32 32c-1.509 1.509-3.487 2.263-5.464 2.263z" fill="#9be8fd"/></g><g><path d="m152 455.727c-1.977 0-3.955-.755-5.464-2.263-3.017-3.017-3.017-7.91 0-10.927l32-32c3.018-3.017 7.91-3.017 10.928 0 3.017 3.017 3.017 7.91 0 10.927l-32 32c-1.509 1.509-3.487 2.263-5.464 2.263z" fill="#9be8fd"/></g><g><path d="m328 455.727c-1.977 0-3.955-.755-5.464-2.263-3.017-3.017-3.017-7.91 0-10.927l32-32c3.018-3.017 7.91-3.017 10.928 0 3.017 3.017 3.017 7.91 0 10.927l-32 32c-1.51 1.509-3.488 2.263-5.464 2.263z" fill="#9be8fd"/></g><g><path d="m376 455.727c-1.977 0-3.955-.755-5.464-2.263-3.017-3.017-3.017-7.91 0-10.927l32-32c3.018-3.017 7.91-3.017 10.928 0 3.017 3.017 3.017 7.91 0 10.927l-32 32c-1.509 1.509-3.487 2.263-5.464 2.263z" fill="#9be8fd"/></g></g><path d="m0 319.999v22.805c0 4.679 4.382 8.1 8.931 7.002 164.712-39.736 329.425-39.736 494.139 0 4.548 1.097 8.931-2.324 8.931-7.002v-22.805c-165.174-42.666-335.841-42.666-512.001 0z" fill="#ffe02f"/><path d="m0 319.999v22.805c0 4.656 4.351 8.107 8.877 7.015 14.249-3.438 28.498-6.579 42.747-9.422l-.114-31.689c-17.118 3.357-34.288 7.12-51.51 11.291z" fill="#fbc700"/></g></svg>