<svg id="Capa_1" enable-background="new 0 0 512 512" height="512" viewBox="0 0 512 512" width="512" xmlns="http://www.w3.org/2000/svg"><g><path d="m325.759 128h116.604v170.302h-116.604z" fill="#62ddfc"/><path d="m325.759 208h116.604v32h-116.604z" fill="#fed2a4"/><path d="m325.759 208h41.208v32h-41.208z" fill="#ffbd86"/><path d="m432.061 138.302h32v160h-32z" fill="#fed2a4"/><path d="m432.061 138.302h15.453v160h-15.453z" fill="#ffbd86"/><path d="m304.061 138.302h32v160h-32z" fill="#fed2a4"/><path d="m304.061 138.302h15.453v160h-15.453z" fill="#ffbd86"/><path d="m112.061 138.302h32v160h-32z" fill="#fed2a4"/><path d="m112.061 138.302h15.453v160h-15.453z" fill="#ffbd86"/><g><path d="m256.061 231.727c-4.267 0-7.726-3.459-7.726-7.726v-16c0-4.267 3.459-7.726 7.726-7.726s7.726 3.459 7.726 7.726v16c0 4.266-3.459 7.726-7.726 7.726z" fill="#425f99"/></g><g><path d="m192.061 231.727c-4.267 0-7.726-3.459-7.726-7.726v-16c0-4.267 3.459-7.726 7.726-7.726s7.726 3.459 7.726 7.726v16c.001 4.266-3.459 7.726-7.726 7.726z" fill="#425f99"/></g><path d="m144.061 448h32v56.789c0 3.983-3.229 7.211-7.211 7.211h-17.577c-3.983 0-7.211-3.229-7.211-7.211v-56.789z" fill="#425f99"/><path d="m144.061 448v56.789c0 3.983 3.229 7.211 7.211 7.211h8.242v-64z" fill="#33518e"/><g><g><path d="m80.061 310.8-22.678-22.678h-9.322c-8.904 0-16.122-7.218-16.122-16.122 0-8.904 7.218-16.122 16.122-16.122h16c4.276 0 8.377 1.699 11.4 4.722l27.4 27.4v22.8z" fill="#425f99"/></g></g><path d="m208.061 288.003h-32v-56.791c0-3.983 3.229-7.211 7.211-7.211h17.577c3.983 0 7.211 3.229 7.211 7.211v56.791z" fill="#eb4340"/><path d="m176.061 231.211v56.791h15.453v-64.002h-8.242c-3.982 0-7.211 3.229-7.211 7.211z" fill="#d42f2e"/><path d="m272.061 288.003h-32v-56.791c0-3.983 3.229-7.211 7.211-7.211h17.577c3.983 0 7.211 3.229 7.211 7.211v56.791z" fill="#ffe02f"/><path d="m240.061 231.211v56.791h15.453v-64.002h-8.242c-3.982 0-7.211 3.229-7.211 7.211z" fill="#fbc700"/><path d="m464.061 309.698v131.091c0 3.983-3.229 7.211-7.211 7.211h-337.577c-3.983 0-7.211-3.229-7.211-7.211v-131.091z" fill="#eb4340"/><path d="m158.42 340.604h305.641v-30.906h-352v131.091c0 3.983 3.229 7.211 7.211 7.211h23.694v-91.943c.001-8.535 6.919-15.453 15.454-15.453z" fill="#d42f2e"/><path d="m472.85 288h-385.577c-3.983 0-7.211 3.229-7.211 7.211v17.577c0 3.983 3.229 7.211 7.211 7.211h385.577c3.983 0 7.211-3.229 7.211-7.211v-17.577c0-3.982-3.228-7.211-7.211-7.211z" fill="#fed2a4"/><path d="m80.061 295.211v17.577c0 3.983 3.229 7.211 7.211 7.211h24.789v-32h-24.788c-3.983.001-7.212 3.23-7.212 7.212z" fill="#ffbd86"/><g fill="#fff3de"><path d="m224.061 96-24.273 10.302h-15.453l-24.274-10.302-5.206-22.933 12.468-56.102 14.072-16.965h53.333l8.374 17.349-6.483 58.344z"/><path d="m352.061 96-16 10.302h-32l-16-10.302-10.302-18.91v-58.377l10.302-18.713h53.334l12.496 19.748 6.185 55.667z"/><path d="m480.061 96-16 10.302h-32l-16-10.302-15.291-22.451-12.112-54.503 6.07-19.046h48.136c3.104 0 5.86 1.986 6.841 4.931z"/></g><path d="m160.061 96-16 10.302h-32l-16-10.302 30.356-91.069c.982-2.945 3.738-4.931 6.842-4.931h48.136z" fill="#eb4340"/><path d="m288.061 96-24.274 10.302h-15.453l-24.273-10.302 10.667-96h53.333z" fill="#eb4340"/><path d="m128.061 160c-17.673 0-32-14.327-32-32v-32h64v32c0 17.673-14.327 32-32 32z" fill="#d42f2e"/><path d="m192.061 160c-17.673 0-32-14.327-32-32v-32h64v32c0 17.673-14.327 32-32 32z" fill="#ffe5c2"/><path d="m256.061 160c-17.673 0-32-14.327-32-32v-32h64v32c0 17.673-14.327 32-32 32z" fill="#d42f2e"/><path d="m320.061 160c-17.673 0-32-14.327-32-32v-32h64v32c0 17.673-14.327 32-32 32z" fill="#ffe5c2"/><path d="m448.061 160c-17.673 0-32-14.327-32-32v-32h64v32c0 17.673-14.327 32-32 32z" fill="#ffe5c2"/><path d="m351.563 384c-35.346 0-64 28.654-64 64s28.654 64 64 64 64-28.654 64-64-28.654-64-64-64zm0 96c-17.673 0-32-14.327-32-32s14.327-32 32-32 32 14.327 32 32-14.327 32-32 32z" fill="#425f99"/><path d="m416.05 96-18.366 10.302h-26.785l-18.849-10.302-10.655-96h53.404z" fill="#eb4340"/><path d="m384.061 160c-17.673 0-32-14.327-32-32v-32h64v32c0 17.673-14.327 32-32 32z" fill="#d42f2e"/></g></svg>