<svg id="Capa_1" enable-background="new 0 0 512 512" height="512" viewBox="0 0 512 512" width="512" xmlns="http://www.w3.org/2000/svg"><g><path d="m64 184.789v-24.796l10.302-15.993-10.302-16.008v-95.992c0-17.673 14.327-32 32-32h10.302c17.673 0 32 14.327 32 32v160h-67.091c-3.982 0-7.211-3.229-7.211-7.211z" fill="#c9f0fe"/><path d="m112 4.281c-4.707-2.722-10.171-4.281-16-4.281-17.673 0-32 14.327-32 32v95.992l10.302 16.008-10.302 15.992v24.796c0 3.983 3.229 7.211 7.211 7.211h24.789v-159.999c0-11.844 6.435-22.186 16-27.719z" fill="#9be8fd"/><path d="m64 159.992 31.969-15.992 32.031 16v-32l-32.031-16-31.969 15.992z" fill="#425f99"/><path d="m64 159.992 31.969-15.992v-32l-31.969 15.992z" fill="#33518e"/><path d="m160.015 512c-17.681 0-32.015-14.334-32.015-32.015v-447.985c0-17.673-14.327-32-32-32h256c17.673 0 32 14.327 32 32v288l-181.667 10.302-10.302 149.683c0 17.681-14.334 32.015-32.016 32.015z" fill="#c9f0fe"/><path d="m158.906 479.985v-447.985c0-17.673-14.327-32-32-32h-30.906c17.673 0 32 14.327 32 32v447.985c0 17.681 14.334 32.015 32.015 32.015 5.604 0 10.871-1.44 15.453-3.97-9.874-5.452-16.562-15.968-16.562-28.045z" fill="#9be8fd"/><path d="m448 479.982c0 17.683-14.335 32.018-32.018 32.018h-255.967c17.682 0 32.015-14.334 32.015-32.015v-63.985l10.302-18.302-10.301-13.698v-56.787c0-3.983 3.229-7.211 7.211-7.211h241.547c3.983 0 7.211 3.229 7.211 7.211v56.787l-10.302 13.698 10.302 18.302z" fill="#c9f0fe"/><path d="m222.936 479.985v-159.984h-23.694c-3.983 0-7.211 3.229-7.211 7.211v56.788l10.302 13.698-10.302 18.302v63.985c0 17.682-14.334 32.015-32.015 32.015h30.906c17.681 0 32.014-14.334 32.014-32.015z" fill="#9be8fd"/><path d="m448 416-32-16-32 16-32-16-32 16-32-16-32 16-32-16-32 16v-32l32-16 32 16 32-16 32 16 32-16 32 16 32-16 32 16z" fill="#425f99"/><path d="m192.031 383.985v32l30.905-15.453v-32z" fill="#33518e"/></g></svg>