<svg id="Capa_1" enable-background="new 0 0 512 512" height="512" viewBox="0 0 512 512" width="512" xmlns="http://www.w3.org/2000/svg"><g><path d="m415.884 447.871v56.918c0 3.983-3.229 7.211-7.211 7.211h-305.572c-3.983 0-7.211-3.229-7.211-7.211v-56.918c0-35.275 28.596-63.871 63.871-63.871h60.07v-55.413h72.113v55.413h60.07c35.274 0 63.87 28.596 63.87 63.871z" fill="#fff3de"/><path d="m190.665 383.999h-30.905c-35.275 0-63.871 28.596-63.871 63.871v56.917c0 3.983 3.229 7.211 7.211 7.211h23.694v-64.128c-.001-35.275 28.596-63.871 63.871-63.871z" fill="#ffe5c2"/><path d="m250.736 328.588h-30.906v61.898c0 3.983 3.229 7.211 7.211 7.211h8.241c8.534 0 15.453-6.918 15.453-15.453v-53.656z" fill="#ffe5c2"/><path d="m387.686 249.037h-18.479v-66.06h18.479c18.242 0 33.03 14.788 33.03 33.03 0 18.242-14.788 33.03-33.03 33.03z" fill="#fed2a4"/><path d="m124.314 249.037h18.479v-66.06h-18.479c-18.242 0-33.03 14.788-33.03 33.03 0 18.242 14.788 33.03 33.03 33.03z" fill="#fed2a4"/><path d="m132.265 162.958v80.032c0 52.694 37.679 96.588 87.564 106.209 6.67 1.286 13.559-.04 20.605-.04l23.441 2h7.464c59.74 0 108.169-48.429 108.169-108.169v-80.032z" fill="#fff3de"/><path d="m163.17 242.99v-80.032h-30.905v80.032c0 59.74 48.429 108.169 108.169 108.169h30.905c-59.74 0-108.169-48.429-108.169-108.169z" fill="#ffe5c2"/><g><g><path d="m175.625 447.995v64.005h-15.453v-64.005c0-4.265 3.461-7.726 7.726-7.726 4.266-.001 7.727 3.461 7.727 7.726z" fill="#ffe5c2"/></g><g><path d="m351.601 447.995v64.005h-15.453v-64.005c0-4.265 3.462-7.726 7.726-7.726 4.266-.001 7.727 3.461 7.727 7.726z" fill="#ffe5c2"/></g></g><g><path d="m255.887 308.185c-16.282 0-31.94-6.868-42.958-18.844-2.889-3.14-2.685-8.028.455-10.917 3.141-2.888 8.029-2.686 10.917.455 8.1 8.804 19.613 13.854 31.586 13.854s23.486-5.049 31.586-13.854c2.889-3.14 7.777-3.343 10.918-.455 3.14 2.889 3.344 7.777.455 10.917-11.02 11.975-26.678 18.844-42.959 18.844z" fill="#fed2a4"/></g><g><g><path d="m196.479 238.471c-4.268 0-7.726-3.459-7.726-7.726v-13.488c0-4.267 3.459-7.726 7.726-7.726s7.726 3.459 7.726 7.726v13.488c.001 4.267-3.458 7.726-7.726 7.726z" fill="#425f99"/></g><g><path d="m315.294 238.471c-4.268 0-7.726-3.459-7.726-7.726v-13.488c0-4.267 3.459-7.726 7.726-7.726s7.726 3.459 7.726 7.726v13.488c.001 4.267-3.458 7.726-7.726 7.726z" fill="#425f99"/></g></g><g><path d="m307.396 384v13.701c0 4.265-3.461 7.726-7.726 7.726s-7.726-3.461-7.726-7.726v-13.701z" fill="#ffe5c2"/></g><path d="m385.548 113.169 10 6.559v46.317c0 3.983-3.228 7.211-7.211 7.211l-264.901.01c-3.983 0-7.212-3.229-7.212-7.211v-46.327l10-6.559c0-1.308-9.979-7.606-9.928-8.894 2.051-57.937 49.666-104.275 108.098-104.275h62.985c58.432 0 106.047 46.338 108.097 104.275.052 1.288-9.928 7.586-9.928 8.894z" fill="#eb4340"/><path d="m147.128 108.171c0-59.74 48.429-108.169 108.169-108.169h-30.905c-58.436 0-106.049 46.337-108.1 104.273-.046 1.293 9.931 7.592 9.931 8.896l-10 6.557v46.323c0 3.983 3.229 7.211 7.211 7.211h23.694z" fill="#d42f2e"/><g><path d="m177.912 112.001c0 4.265-3.451 7.726-7.726 7.726h-53.961v-11.559c0-1.308.021-2.606.072-3.894h53.889c4.275.001 7.726 3.462 7.726 7.727z" fill="#425f99"/></g><path d="m116.297 104.275c-.002.048-.001.097-.003.146.002-.049.004-.097.006-.146z" fill="#425f99"/><path d="m116.294 104.421c-.047 1.24-.069 2.489-.069 3.748v11.559h30.903v-11.557c0-1.305.031-2.602.077-3.896h-30.905c-.002.049-.004.097-.006.146z" fill="#33518e"/><g><path d="m282.189 119.727h-52.604c-4.268 0-7.726-3.459-7.726-7.726s3.459-7.726 7.726-7.726h52.604c4.268 0 7.726 3.459 7.726 7.726s-3.459 7.726-7.726 7.726z" fill="#425f99"/></g><g><path d="m395.548 108.169v11.559h-53.961c-4.275 0-7.726-3.461-7.726-7.726s3.451-7.726 7.726-7.726h53.889c.052 1.287.072 2.585.072 3.893z" fill="#425f99"/></g><path d="m207.887 144.001h-16c-17.673 0-32-14.327-32-32 0-17.673 14.327-32 32-32h16c17.673 0 32 14.327 32 32 0 17.673-14.327 32-32 32z" fill="#c9f0fe"/><path d="m190.793 112.001c0-15.107 10.469-27.768 24.547-31.127-2.391-.57-4.887-.873-7.453-.873h-16c-17.673 0-32 14.327-32 32 0 17.673 14.327 32 32 32h16c2.566 0 5.061-.303 7.453-.873-14.078-3.359-24.547-16.02-24.547-31.127z" fill="#9be8fd"/><path d="m319.886 144.001h-16c-17.673 0-32-14.327-32-32 0-17.673 14.327-32 32-32h16c17.673 0 32 14.327 32 32 0 17.673-14.327 32-32 32z" fill="#c9f0fe"/><path d="m302.792 112.001c0-15.107 10.469-27.768 24.547-31.127-2.391-.57-4.887-.873-7.453-.873h-16c-17.673 0-32 14.327-32 32 0 17.673 14.327 32 32 32h16c2.566 0 5.061-.303 7.453-.873-14.078-3.359-24.547-16.02-24.547-31.127z" fill="#9be8fd"/></g></svg>