<svg id="Capa_1" enable-background="new 0 0 512 512" height="512" viewBox="0 0 512 512" width="512" xmlns="http://www.w3.org/2000/svg"><g><path d="m423.156 466.491h-56.694c-33.551 0-61.5-25.718-64.287-59.152l-24.33-291.962c-3.134-37.61 26.546-69.867 64.287-69.867h105.354c37.741 0 67.421 32.256 64.287 69.867l-24.33 291.962c-2.787 33.434-30.736 59.152-64.287 59.152z" fill="#97c232"/><path d="m333.389 407.338-24.33-291.962c-3.134-37.61 26.546-69.867 64.286-69.867h-31.214c-37.741 0-67.421 32.256-64.286 69.867l24.33 291.962c2.786 33.435 30.736 59.152 64.287 59.152h31.214c-33.551.001-61.5-25.717-64.287-59.152z" fill="#88b22d"/><path d="m145.538 466.491h-56.694c-33.551 0-61.5-25.718-64.287-59.152l-24.33-291.963c-3.134-37.61 26.546-69.867 64.287-69.867h105.354c37.741 0 67.421 32.256 64.287 69.867l-24.33 291.962c-2.786 33.435-30.736 59.153-64.287 59.153z" fill="#97c232"/><path d="m55.772 407.338-24.33-291.962c-3.134-37.61 26.546-69.867 64.287-69.867h-31.215c-37.741 0-67.421 32.256-64.287 69.867l24.33 291.962c2.786 33.435 30.736 59.152 64.287 59.152h31.214c-33.55.001-61.5-25.717-64.286-59.152z" fill="#88b22d"/><path d="m134.732 156.127v-40.454c0-9.688-7.853-17.541-17.541-17.541-9.688 0-17.541 7.853-17.541 17.541v40.572c-30.781 7.662-56.732 35.58-51.934 83.557l10.559 105.594c2.273 22.742 37.449 19.222 35.175-3.517l-10.559-105.595c-6.456-64.531 75.053-64.532 68.601.001l-10.559 105.594c-.94 9.398 8.143 19.435 17.608 19.435 8.97-.001 16.655-6.803 17.566-15.918l10.559-105.594c4.84-48.383-21.13-76.208-51.934-83.675z" fill="#425f99"/><g><g><g><path d="m73.883 345.395-10.559-105.593c-4.798-47.977 21.153-75.895 51.934-83.557v-40.572c0-6.884 3.966-12.842 9.737-15.714-2.35-1.169-5-1.827-7.804-1.827-9.687 0-17.541 7.853-17.541 17.541v40.572c-30.781 7.662-56.732 35.58-51.934 83.557l10.559 105.593c1.397 13.979 15.226 18.035 25.148 13.805-4.95-2.207-8.834-6.737-9.54-13.805z" fill="#33518e"/></g><g><path d="m156.54 341.878 10.56-105.594c3.676-36.774-21.21-52.591-42.106-47.454 15.773 3.878 29.274 19.695 26.499 47.454l-10.559 105.594c-.94 9.398 8.143 19.435 17.608 19.435 2.922 0 5.707-.722 8.167-2.011-6.223-3.398-10.854-10.581-10.169-17.424z" fill="#33518e"/></g></g></g><path d="m412.35 156.127v-40.454c0-9.688-7.853-17.541-17.541-17.541-9.688 0-17.541 7.853-17.541 17.541v40.572c-30.781 7.662-56.732 35.58-51.934 83.557l10.559 105.594c2.273 22.742 37.449 19.222 35.175-3.517l-10.559-105.594c-6.456-64.531 75.053-64.532 68.601.001l-10.56 105.592c-.94 9.398 8.143 19.435 17.608 19.435 8.97-.001 16.655-6.803 17.566-15.918l10.559-105.594c4.84-48.382-21.129-76.207-51.933-83.674z" fill="#425f99"/><g><g><g><path d="m351.501 345.395-10.559-105.593c-4.798-47.977 21.152-75.895 51.934-83.557v-40.572c0-6.884 3.966-12.842 9.737-15.714-2.35-1.169-5-1.827-7.804-1.827-9.687 0-17.541 7.853-17.541 17.541v40.572c-30.781 7.662-56.732 35.58-51.934 83.557l10.559 105.593c1.397 13.979 15.226 18.035 25.147 13.805-4.949-2.207-8.833-6.737-9.539-13.805z" fill="#33518e"/></g><g><path d="m434.157 341.878 10.559-105.594c3.676-36.774-21.21-52.591-42.105-47.454 15.773 3.878 29.273 19.695 26.498 47.454l-10.559 105.594c-.94 9.398 8.143 19.435 17.608 19.435 2.922 0 5.707-.722 8.167-2.011-6.222-3.398-10.852-10.581-10.168-17.424z" fill="#33518e"/></g></g></g></g></svg>