<svg id="Capa_1" enable-background="new 0 0 512 512" height="512" viewBox="0 0 512 512" width="512" xmlns="http://www.w3.org/2000/svg"><g><path d="m469.698 255.998h35.09c3.983 0 7.211-3.229 7.211-7.211v-17.577c0-3.983-3.229-7.211-7.211-7.211h-35.09z" fill="#425f99"/><path d="m472.789 271.998h-35.09v-64h35.09c3.983 0 7.211 3.229 7.211 7.211v49.577c0 3.984-3.228 7.212-7.211 7.212z" fill="#97c232"/><path d="m437.698 207.998h25.755v64h-25.755z" fill="#88b22d"/><g><path d="m224.065 359.724h-89.664c-4.267 0-7.726-3.459-7.726-7.726s3.459-7.726 7.726-7.726h89.664c13.349 0 24.209-10.86 24.209-24.209v-32.065c0-4.267 3.459-7.726 7.726-7.726s7.726 3.459 7.726 7.726v32.065c.001 21.869-17.791 39.661-39.661 39.661z" fill="#425f99"/></g><path d="m192.001 287.998v24.789c0 3.983-3.229 7.211-7.211 7.211h-37.589l2.498-42.302z" fill="#425f99"/><path d="m10.653 447.997h80.466c2.949 0 5.6-1.795 6.696-4.533l62.187-155.466-33.326-10.302h-30.674l-32 10.302-60.044 150.11c-1.895 4.737 1.594 9.889 6.695 9.889z" fill="#97c232"/><path d="m116.529 308.602h35.231l8.241-20.604-32-10.302h-32l-32 10.302-60.043 150.11c-1.895 4.737 1.594 9.89 6.696 9.89h28.496l47.728-119.321c4.849-12.125 16.592-20.075 29.651-20.075z" fill="#88b22d"/><path d="m319.996 111.999c0 13.248-5.378 25.25-14.062 33.934-8.684 8.695-20.676 14.062-33.934 14.062h-223.993c-26.517 0-48.007-21.489-48.007-47.996 0-13.248 5.378-25.25 14.062-33.934 8.684-8.695 20.686-14.062 33.945-14.062h8.272l7.723 10 7.73-10h176.543l7.726 10 7.726-10h8.273c26.506 0 47.996 21.489 47.996 47.996z" fill="#ffe02f"/><path d="m302.907 127.999h-224c-26.51 0-48-21.49-48-48 0-4.709.679-9.259 1.942-13.558-19.083 6.343-32.847 24.343-32.847 45.558 0 26.51 21.49 48 48 48h223.999c21.801 0 40.206-14.534 46.057-34.441-4.763 1.583-9.857 2.441-15.151 2.441z" fill="#fbc700"/><g><g><path d="m71.732 64.003v138.302c0 4.265-3.461 7.726-7.726 7.726-4.275 0-7.726-3.461-7.726-7.726v-138.302z" fill="#425f99"/></g></g><g><g><path d="m263.727 64.003v95.993 42.31c0 4.265-3.461 7.726-7.726 7.726s-7.726-3.461-7.726-7.726v-42.31-95.993z" fill="#425f99"/></g></g><path d="m56.279 122.34v37.659h15.453v-32.533c-5.514-.827-10.72-2.592-15.453-5.126z" fill="#33518e"/><path d="m248.275 127.999h15.453v32h-15.453z" fill="#33518e"/><path d="m216.79 127.999h-113.577c-3.983 0-7.211-3.229-7.211-7.211v-17.578c0-3.983 3.229-7.211 7.211-7.211h113.577c3.983 0 7.211 3.229 7.211 7.211v17.577c0 3.983-3.228 7.212-7.211 7.212z" fill="#97c232"/><path d="m393.804 287.998h-358.929c-1.917 0-3.756-.764-5.109-2.122l-27.662-27.767c-1.346-1.352-2.102-3.182-2.102-5.089v-53.81c0-3.983 3.229-7.211 7.211-7.211h386.591z" fill="#97c232"/><path d="m30.908 191.998h-23.695c-3.983 0-7.211 3.229-7.211 7.211v53.81c0 1.908.756 3.738 2.102 5.089l27.661 27.767c1.353 1.358 3.192 2.122 5.109 2.122h27.91l-29.774-29.888c-1.346-1.352-2.102-3.182-2.102-5.089z" fill="#88b22d"/><g fill="#c9f0fe"><path d="m88.79 255.998h-17.577c-3.983 0-7.211-3.229-7.211-7.211v-17.577c0-3.983 3.229-7.211 7.211-7.211h17.577c3.983 0 7.211 3.229 7.211 7.211v17.577c.001 3.983-3.228 7.211-7.211 7.211z"/><path d="m216.79 255.998h-17.577c-3.983 0-7.211-3.229-7.211-7.211v-17.577c0-3.983 3.229-7.211 7.211-7.211h17.577c3.983 0 7.211 3.229 7.211 7.211v17.577c0 3.983-3.228 7.211-7.211 7.211z"/><path d="m152.79 255.998h-17.577c-3.983 0-7.211-3.229-7.211-7.211v-17.577c0-3.983 3.229-7.211 7.211-7.211h17.577c3.983 0 7.211 3.229 7.211 7.211v17.577c0 3.983-3.228 7.211-7.211 7.211z"/></g><path d="m440.789 303.998h-50.075c-3.983 0-7.211-3.229-7.211-7.211v-113.577c0-3.983 3.229-7.211 7.211-7.211h50.075c3.983 0 7.211 3.229 7.211 7.211v113.577c0 3.982-3.228 7.211-7.211 7.211z" fill="#ffe02f"/><path d="m383.502 183.21v113.577c0 3.983 3.229 7.211 7.211 7.211h23.694v-128h-23.694c-3.982 0-7.211 3.229-7.211 7.212z" fill="#fbc700"/></g></svg>