<svg id="Capa_1" enable-background="new 0 0 512 512" height="512" viewBox="0 0 512 512" width="512" xmlns="http://www.w3.org/2000/svg"><g><path d="m439.831 512h-135.831l-32.547-10.302-15.453 10.302h-183.831c-4.338 0-7.694-3.802-7.156-8.106l14.987-119.894 12.18-15.023-8.18-16.977 11.21-89.683c.451-3.609 3.519-6.317 7.156-6.317h185.634l32 10.302 16-10.302h73.634c3.637 0 6.705 2.708 7.156 6.317l11.21 89.683-8.302 16 12.302 16 14.987 119.894c.538 4.304-2.818 8.106-7.156 8.106z" fill="#fff3de"/><path d="m304 512-96-128h224l-4-32h-44l-48-96h-48l48 96h-252l-4 32h80l96 128z" fill="#425f99"/><path d="m116.604 256h-14.238c-3.637 0-6.705 2.708-7.156 6.317l-11.21 89.683h20.604z" fill="#ffe5c2"/><path d="m72.169 512h12.435l16-128h-20.604l-14.987 119.894c-.538 4.304 2.818 8.106 7.156 8.106z" fill="#ffe5c2"/><path d="m84 352-4 32h20.604l4-32z" fill="#33518e"/><path d="m224 0c-53.019 0-96 42.981-96 96 0 44.947 68.994 151.674 90.002 183.129 2.857 4.277 9.139 4.277 11.996 0 21.008-31.455 90.002-138.182 90.002-183.129 0-53.019-42.981-96-96-96zm0 144c-26.51 0-48-21.49-48-48s21.49-48 48-48 48 21.49 48 48-21.49 48-48 48z" fill="#eb4340"/><path d="m148.604 96c0-49.539 37.523-90.314 85.698-95.453-3.385-.362-6.822-.547-10.302-.547-53.019 0-96 42.981-96 96 0 44.947 68.994 151.674 90.002 183.129 2.855 4.275 9.137 4.28 11.992.005 1.269-1.9 2.714-4.076 4.307-6.495-24.783-37.627-85.697-134.405-85.697-176.639z" fill="#d42f2e"/><g><path d="m224 327.712c-7.773 0-15.545-2.959-21.463-8.876-5.81-5.81-15.264-5.81-21.074 0-3.017 3.017-7.91 3.017-10.927 0-3.018-3.017-3.018-7.91 0-10.927 11.835-11.835 31.092-11.835 42.927 0 5.809 5.809 15.263 5.81 21.073 0 11.835-11.835 31.092-11.835 42.927 0 3.018 3.017 3.018 7.91 0 10.927-3.017 3.017-7.91 3.017-10.927 0-5.81-5.81-15.264-5.81-21.074 0-5.916 5.918-13.689 8.876-21.462 8.876z" fill="#62ddfc"/></g></g></svg>