<svg id="Capa_1" enable-background="new 0 0 512 512" height="512" viewBox="0 0 512 512" width="512" xmlns="http://www.w3.org/2000/svg"><g><path d="m415.885 447.871v56.918c0 3.983-3.229 7.211-7.211 7.211h-56.659l-32.015-10.302h-129.336l-30.777 10.302h-56.787c-3.983 0-7.211-3.229-7.211-7.211v-56.918c0-35.274 28.598-63.871 63.871-63.871l17.007 10.302 15.233-10.302h32.002v-47.996h63.995v47.996h31.192l18.195 10.302 14.629-10.302c35.274 0 63.872 28.597 63.872 63.871z" fill="#fff3de"/><path d="m395.778 237.732v42.954c0 16.022 12.988 29.01 29.01 29.01 3.983 0 7.211 3.229 7.211 7.211 0 13.69-11.098 24.789-24.789 24.789h-119.21-64-119.211c-13.69 0-24.789-11.098-24.789-24.789 0-3.983 3.229-7.211 7.211-7.211 16.022 0 29.01-12.988 29.01-29.01v-42.954z" fill="#425f99"/><path d="m387.686 249.036h-18.479v-66.06h18.479c18.242 0 33.03 14.788 33.03 33.03 0 18.242-14.788 33.03-33.03 33.03z" fill="#fed2a4"/><path d="m124.314 249.036h18.479v-66.06h-18.479c-18.242 0-33.03 14.788-33.03 33.03 0 18.242 14.788 33.03 33.03 33.03z" fill="#fed2a4"/><path d="m254.906 335.999h-30.906v58.732c0 3.983 3.229 7.211 7.211 7.211h8.241c8.534 0 15.453-6.918 15.453-15.453v-50.49z" fill="#ffe5c2"/><path d="m190.664 383.999h-30.906c-35.275 0-63.871 28.596-63.871 63.871v56.917c0 3.983 3.229 7.211 7.211 7.211h23.694v-64.128c.001-35.275 28.597-63.871 63.872-63.871z" fill="#ffe5c2"/><path d="m132.265 162.957v80.032c0 54.154 39.795 99.014 91.738 106.929 5.358.817 10.845-.76 16.432-.76l14.472 2h16.434c59.74 0 108.169-48.429 108.169-108.169v-80.032z" fill="#fff3de"/><path d="m163.17 242.989v-80.032h-30.906v80.032c0 59.74 48.429 108.169 108.169 108.169h30.906c-59.74 0-108.169-48.429-108.169-108.169z" fill="#ffe5c2"/><g><path d="m255.887 308.184c-16.282 0-31.94-6.868-42.958-18.844-2.889-3.14-2.686-8.028.454-10.917 3.14-2.89 8.028-2.687 10.917.454 8.101 8.804 19.614 13.854 31.587 13.854 11.972 0 23.485-5.05 31.586-13.854 2.891-3.14 7.779-3.343 10.918-.454 3.14 2.889 3.344 7.777.455 10.918-11.02 11.975-26.678 18.843-42.959 18.843z" fill="#fed2a4"/></g><g><g><g><path d="m196.48 238.47c-4.267 0-7.726-3.459-7.726-7.726v-13.488c0-4.267 3.459-7.726 7.726-7.726s7.726 3.459 7.726 7.726v13.488c0 4.266-3.459 7.726-7.726 7.726z" fill="#425f99"/></g><g><path d="m315.294 238.47c-4.268 0-7.726-3.459-7.726-7.726v-13.488c0-4.267 3.459-7.726 7.726-7.726 4.268 0 7.726 3.459 7.726 7.726v13.488c0 4.266-3.458 7.726-7.726 7.726z" fill="#425f99"/></g></g></g><g><path d="m303.45 384v10.642c0 4.265-3.451 7.726-7.726 7.726-4.265 0-7.726-3.461-7.726-7.726v-10.642z" fill="#ffe5c2"/></g><path d="m192 383.998v16.353c0 35.122 28.472 63.595 63.595 63.595 35.122 0 63.595-28.472 63.595-63.595v-16.353h32.825v128h-192.128v-128z" fill="#ffe02f"/><path d="m159.887 383.999v7.891c9.128-5.029 19.619-7.891 30.777-7.891z" fill="#fbc700"/><path d="m116.222 166.05v-46.324l10-6.556c0-1.304-9.977-7.603-9.931-8.896 2.051-57.937 49.665-104.274 108.101-104.274h62.99c58.436 0 106.049 46.337 108.101 104.273.046 1.293-9.931 7.592-9.931 8.896l10 6.556v46.319c0 3.983-3.229 7.211-7.211 7.211l-264.907.005c-3.983.001-7.212-3.228-7.212-7.21z" fill="#ffe02f"/><path d="m147.128 108.169c0-59.74 48.429-108.169 108.169-108.169h-30.906c-58.436 0-106.049 46.337-108.101 104.273-.046 1.293 9.931 7.592 9.931 8.896l-10 6.556v46.324c0 3.983 3.229 7.211 7.211 7.211h23.694v-65.091z" fill="#fbc700"/><path d="m177.915 111.999c0-4.267-3.459-7.726-7.726-7.726h-53.897c-.046 1.293-.069 2.592-.069 3.896v11.556h53.967c4.266.001 7.725-3.458 7.725-7.726z" fill="#eb4340"/><path d="m116.222 108.169v11.556h30.906v-11.556c0-1.304.024-2.603.069-3.896h-30.906c-.045 1.293-.069 2.592-.069 3.896z" fill="#d42f2e"/><g><g><path d="m282.188 119.726h-52.603c-4.267 0-7.726-3.459-7.726-7.726s3.459-7.726 7.726-7.726h52.603c4.268 0 7.726 3.459 7.726 7.726s-3.458 7.726-7.726 7.726z" fill="#eb4340"/></g></g><path d="m395.482 104.273h-53.897c-4.268 0-7.726 3.459-7.726 7.726s3.459 7.726 7.726 7.726h53.967v-11.556c-.001-1.304-.024-2.603-.07-3.896z" fill="#eb4340"/><path d="m207.887 143.999h-16c-17.673 0-32-14.327-32-32 0-17.673 14.327-32 32-32h16c17.673 0 32 14.327 32 32 0 17.674-14.327 32-32 32z" fill="#c9f0fe"/><path d="m190.793 112c0-15.107 10.469-27.768 24.547-31.127-2.391-.57-4.887-.873-7.453-.873h-16c-17.673 0-32 14.327-32 32 0 17.673 14.327 32 32 32h16c2.566 0 5.061-.303 7.453-.873-14.079-3.359-24.547-16.02-24.547-31.127z" fill="#9be8fd"/><path d="m319.887 143.999h-16c-17.673 0-32-14.327-32-32 0-17.673 14.327-32 32-32h16c17.673 0 32 14.327 32 32-.001 17.674-14.327 32-32 32z" fill="#c9f0fe"/><path d="m302.792 112c0-15.107 10.469-27.768 24.547-31.127-2.391-.57-4.887-.873-7.453-.873h-16c-17.673 0-32 14.327-32 32 0 17.673 14.327 32 32 32h16c2.566 0 5.061-.303 7.453-.873-14.078-3.359-24.547-16.02-24.547-31.127z" fill="#9be8fd"/></g></svg>