<svg id="Capa_1" enable-background="new 0 0 512 512" height="512" viewBox="0 0 512 512" width="512" xmlns="http://www.w3.org/2000/svg"><g><path d="m431.913 327.057v17.052l-10.297 7.723 10.297 7.723v17.927c0 3.532-2.554 6.58-6.044 7.115-58.62 8.958-119.033 59.074-136.517 122.091-.875 3.13-3.697 5.313-6.95 5.313h-52.803c-3.254 0-6.075-2.183-6.95-5.313-17.484-63.017-77.896-113.132-136.517-122.091-3.491-.535-6.044-3.583-6.044-7.115v-17.927l10.297-7.723-10.297-7.723v-17.052c0-3.985 3.223-7.208 7.208-7.208h337.41c3.984 0 7.207 3.223 7.207 7.208z" fill="#eb4340"/><path d="m253.542 506.683c-17.487-63.01-77.902-113.134-136.515-122.09-3.494-.534-6.051-3.578-6.051-7.112v-50.427c0-3.981 3.227-7.208 7.208-7.208h-30.892c-3.981 0-7.208 3.227-7.208 7.208v17.054l10.297 7.723-10.297 7.723v17.928c0 3.534 2.557 6.578 6.051 7.112 58.614 8.956 119.028 59.079 136.515 122.09.869 3.131 3.696 5.312 6.946 5.312h30.891c-3.249-.001-6.076-2.181-6.945-5.313z" fill="#d42f2e"/><path d="m447.91 180.45c0 46.15-34.99 83.57-78.15 83.57-34.98-.79-65.32-12.21-92.98-30.96-12.58-8.52-29.05-8.53-41.64-.03-27.61 18.62-58 30.2-92.9 30.99-21.58 0-41.12-9.36-55.26-24.48s-22.89-36.02-22.89-59.09c0-40.28 26.42-74.02 61.8-82.36 5.27-1.25 10.73-11.93 16.34-11.98l15.65 9.84c18.4 35.35 45.77 54.52 78.16 64.6 11.49 3.58 23.76 3.99 35.43 1.23.01 0 .01-.01.01-.01 1.5-.35 3-.76 4.48-1.22 32.39-10.08 59.76-29.25 78.16-64.6l15.65-9.84c5.59.05 11.04 10.73 16.29 11.97 15.08 3.54 28.53 11.7 39.01 23.01 14.12 15.24 22.84 36.22 22.84 59.36z" fill="#eb4340"/><g fill="#d42f2e"><path d="m386.06 98.08c-18.39 34.26-47.34 52.55-79.21 62.47-11.49 3.58-23.74 3.99-35.4 1.24.01 0 .02-.01.02-.01.01 0 .01-.01.01-.01 1.5-.35 3-.76 4.48-1.22 32.39-10.08 59.76-29.25 78.16-64.6l15.65-9.84c5.59.05 11.04 10.73 16.29 11.97z"/><path d="m307.666 233.058c-10.856-7.358-24.622-8.365-36.285-3.035 1.858.85 3.663 1.862 5.394 3.035 27.668 18.753 58 30.172 92.989 30.958 4.667 0 9.237-.438 13.679-1.276-27.871-3.545-52.746-14.072-75.777-29.682z"/><path d="m94.983 180.448c0-43.448 36.767-75.448 62.892-84.494l-15.643-9.846c-5.607.055-11.074 10.736-16.341 11.978-35.381 8.348-61.798 42.08-61.798 82.361 0 46.153 34.986 83.568 78.143 83.568 5.846-.131 11.564-.566 17.165-1.285-36.613-6.937-64.418-41.137-64.418-82.282z"/></g><g><g><path d="m80.087 344.108h351.826v15.445h-351.826z" fill="#425f99"/></g></g><path d="m80.085 344.108h30.891v15.445h-30.891z" fill="#33518e"/><path d="m157.875 95.954v-79.962c0-8.832-7.16-15.992-15.992-15.992s-15.993 7.16-15.993 15.992v82.095c5.268-1.243 10.734-1.923 16.341-1.979z" fill="#425f99"/><path d="m141.336 15.992c0-6.032 3.339-11.283 8.27-14.007-2.29-1.265-4.922-1.985-7.723-1.985-8.832 0-15.992 7.16-15.992 15.992v82.095c4.987-1.177 10.151-1.849 15.445-1.964z" fill="#33518e"/><path d="m369.768 96.108c5.591.055 11.042.732 16.295 1.968v-82.084c0-8.832-7.159-15.992-15.992-15.992s-15.992 7.16-15.992 15.992v80.049c.015-.029.031-.058.046-.088z" fill="#425f99"/><path d="m369.524 96.106v-80.114c0-6.032 3.339-11.283 8.27-14.007-2.29-1.265-4.922-1.985-7.723-1.985-8.832 0-15.992 7.16-15.992 15.992v80.049c.015-.029.031-.058.046-.088z" fill="#33518e"/></g></svg>