<svg id="Capa_1" enable-background="new 0 0 512 512" height="512" viewBox="0 0 512 512" width="512" xmlns="http://www.w3.org/2000/svg"><g><path d="m320.169 144.379-61.714 354.858c-1.017 5.845 5.051 10.359 10.357 7.706l3.895-1.947c29.343-14.672 64.304-12.464 91.568 5.783 2.433 1.629 5.609 1.629 8.042 0l.003-.002c27.264-18.245 62.223-20.451 91.565-5.78l3.895 1.947c5.306 2.653 11.373-1.861 10.357-7.706l-61.714-354.858h-96.254z" fill="#ffe02f"/><path d="m321.096 146.543c-1.001 1.018-1.709 2.335-1.969 3.828l-60.672 348.867c-1.017 5.845 5.051 10.359 10.357 7.706l3.895-1.947c29.343-14.672 64.304-12.464 91.568 5.783 1.213.811 2.609 1.217 4.007 1.22l.015-255.325z" fill="#fbc700"/><path d="m320.169 144.379v64.169c0 26.579 21.547 48.126 48.126 48.126 26.579 0 48.126-21.547 48.126-48.126v-64.169z" fill="#425f99"/><path d="m352.253 208.548v-64.169h-32.084v64.169c0 26.579 21.547 48.126 48.126 48.126 5.625 0 11.024-.965 16.042-2.739-18.692-6.606-32.084-24.433-32.084-45.387z" fill="#33518e"/><path d="m368.295 192.506c-26.58 0-48.126-21.547-48.126-48.126v-96.254c0-26.579 21.547-48.126 48.126-48.126 26.579 0 48.126 21.547 48.126 48.126v96.253c0 26.58-21.546 48.127-48.126 48.127z" fill="#c9f0fe"/><path d="m352.253 144.379v-96.253c0-20.954 13.392-38.781 32.084-45.388-5.018-1.773-10.417-2.738-16.042-2.738-26.579 0-48.126 21.547-48.126 48.126v96.253c0 26.579 21.547 48.126 48.126 48.126 5.625 0 11.024-.965 16.042-2.739-18.692-6.606-32.084-24.432-32.084-45.387z" fill="#9be8fd"/><path d="m368.295 160.421c-8.86 0-16.042-7.182-16.042-16.042v-96.253c0-8.86 7.182-16.042 16.042-16.042 8.86 0 16.042 7.182 16.042 16.042v96.253c0 8.86-7.182 16.042-16.042 16.042z" fill="#425f99"/><path d="m95.579 144.379-61.715 354.858c-1.017 5.845 5.051 10.359 10.357 7.706l3.895-1.947c29.343-14.672 64.304-12.464 91.568 5.783 2.433 1.629 5.609 1.629 8.042 0l.003-.002c27.264-18.245 62.223-20.451 91.565-5.78l3.895 1.947c5.306 2.653 11.373-1.861 10.357-7.706l-61.714-354.858h-96.253z" fill="#ffe02f"/><path d="m95.579 144.379-61.715 354.858c-1.017 5.845 5.051 10.359 10.357 7.706l3.895-1.947c29.343-14.672 64.304-12.464 91.568 5.783 1.217.814 2.619 1.221 4.021 1.221v-255.326z" fill="#fbc700"/><path d="m95.579 144.379v64.169c0 26.579 21.547 48.126 48.126 48.126 26.579 0 48.126-21.547 48.126-48.126v-64.169z" fill="#425f99"/><path d="m127.663 208.548v-64.169h-32.084v64.169c0 26.579 21.547 48.126 48.126 48.126 5.625 0 11.024-.965 16.042-2.739-18.692-6.606-32.084-24.433-32.084-45.387z" fill="#33518e"/><path d="m143.705 192.506c-26.58 0-48.126-21.547-48.126-48.126v-96.254c0-26.579 21.546-48.126 48.126-48.126 26.579 0 48.126 21.547 48.126 48.126v96.253c0 26.58-21.547 48.127-48.126 48.127z" fill="#c9f0fe"/><path d="m127.663 144.379v-96.253c0-20.954 13.392-38.781 32.084-45.388-5.018-1.773-10.417-2.738-16.042-2.738-26.579 0-48.126 21.547-48.126 48.126v96.253c0 26.579 21.547 48.126 48.126 48.126 5.625 0 11.024-.965 16.042-2.739-18.692-6.606-32.084-24.432-32.084-45.387z" fill="#9be8fd"/><path d="m143.705 160.421c-8.86 0-16.042-7.182-16.042-16.042v-96.253c0-8.86 7.182-16.042 16.042-16.042 8.86 0 16.042 7.182 16.042 16.042v96.253c0 8.86-7.182 16.042-16.042 16.042z" fill="#425f99"/></g></svg>