<svg id="Capa_1" enable-background="new 0 0 512 512" height="512" viewBox="0 0 512 512" width="512" xmlns="http://www.w3.org/2000/svg"><g><g><g fill="#ffe02f"><circle cx="176.399" cy="63.828" r="15.998"/><circle cx="335.601" cy="448.173" r="15.998"/></g></g><g><g fill="#ffe02f"><circle cx="63.827" cy="176.4" r="15.998"/><circle cx="448.173" cy="335.601" r="15.998"/></g></g><g><g fill="#ffe02f"><circle cx="63.827" cy="335.601" r="15.998"/><circle cx="448.173" cy="176.4" r="15.998"/></g></g><g><g fill="#ffe02f"><circle cx="176.399" cy="448.173" r="15.998"/><circle cx="335.601" cy="63.828" r="15.998"/></g></g><g><g fill="#ffe02f"><path d="m256 0c8.836 0 15.998 7.163 15.998 15.998v63.992c0 8.835-7.163 15.998-15.998 15.998-8.835 0-15.998-7.163-15.998-15.998v-63.992c0-8.835 7.163-15.998 15.998-15.998z"/><path d="m256 416.012c8.836 0 15.998 7.163 15.998 15.998v63.992c0 8.835-7.163 15.998-15.998 15.998-8.835 0-15.998-7.163-15.998-15.998v-63.992c0-8.835 7.163-15.998 15.998-15.998z"/></g></g><g><g fill="#ffe02f"><path d="m437.019 74.981c6.248 6.248 6.248 16.377 0 22.625l-45.249 45.249c-6.248 6.248-16.377 6.248-22.625 0-6.248-6.248-6.248-16.377 0-22.625l45.249-45.249c6.248-6.248 16.378-6.248 22.625 0z"/><path d="m142.854 369.146c6.248 6.248 6.248 16.377 0 22.625l-45.249 45.249c-6.248 6.248-16.377 6.248-22.625 0-6.248-6.248-6.248-16.377 0-22.625l45.249-45.249c6.248-6.248 16.378-6.248 22.625 0z"/></g></g><g><g fill="#ffe02f"><path d="m74.981 74.981c6.248-6.248 16.377-6.248 22.625 0l45.249 45.249c6.248 6.248 6.248 16.377 0 22.625-6.248 6.248-16.377 6.248-22.625 0l-45.249-45.25c-6.248-6.247-6.248-16.377 0-22.624z"/><path d="m369.146 369.146c6.248-6.248 16.377-6.248 22.625 0l45.249 45.249c6.248 6.248 6.248 16.377 0 22.625-6.248 6.248-16.377 6.248-22.625 0l-45.249-45.249c-6.248-6.248-6.248-16.378 0-22.625z"/></g></g><g><g fill="#ffe02f"><path d="m0 256c0-8.836 7.163-15.998 15.998-15.998h63.992c8.835 0 15.998 7.163 15.998 15.998 0 8.835-7.163 15.998-15.998 15.998h-63.992c-8.835 0-15.998-7.162-15.998-15.998z"/><path d="m416.012 256c0-8.836 7.163-15.998 15.998-15.998h63.992c8.835 0 15.998 7.163 15.998 15.998 0 8.835-7.163 15.998-15.998 15.998h-63.992c-8.835 0-15.998-7.162-15.998-15.998z"/></g></g><circle cx="256" cy="255.969" fill="#ffe02f" r="127.985"/><path d="m179.518 255.969c0-61.863 43.892-113.475 102.233-125.393-8.319-1.699-16.931-2.592-25.752-2.592-70.684 0-127.985 57.301-127.985 127.985s57.302 127.985 127.986 127.985c8.821 0 17.433-.892 25.752-2.592-58.342-11.918-102.234-63.529-102.234-125.393z" fill="#fbc700"/></g></svg>