<svg id="Capa_1" enable-background="new 0 0 512 512" height="512" viewBox="0 0 512 512" width="512" xmlns="http://www.w3.org/2000/svg"><g><g><path d="m319.048 141.315c-4.204 0-7.612-3.408-7.612-7.611v-94.569c0-13.185-10.727-23.912-23.912-23.912s-23.913 10.727-23.913 23.912v94.568c0 4.204-3.408 7.611-7.612 7.611s-7.611-3.408-7.611-7.611v-94.568c.001-21.579 17.556-39.135 39.136-39.135s39.136 17.556 39.136 39.135v94.568c0 4.204-3.408 7.612-7.612 7.612z" fill="#c9f0fe"/></g><g><path d="m256 141.315c-4.204 0-7.611-3.408-7.611-7.611v-94.569c0-13.185-10.727-23.912-23.912-23.912s-23.913 10.727-23.913 23.912v94.568c0 4.204-3.408 7.611-7.611 7.611-4.204 0-7.611-3.408-7.611-7.611v-94.568c-.002-21.579 17.554-39.135 39.134-39.135s39.136 17.556 39.136 39.135v94.568c0 4.204-3.408 7.612-7.612 7.612z" fill="#c9f0fe"/></g><path d="m319.048 438.799h-126.096v66.097c0 3.923 3.181 7.104 7.104 7.104h111.888c3.923 0 7.104-3.181 7.104-7.104z" fill="#425f99"/><path d="m238.621 469.245h80.427v-30.446h-126.096v66.097c0 3.923 3.181 7.104 7.104 7.104h23.342v-27.532c0-8.407 6.816-15.223 15.223-15.223z" fill="#33518e"/><path d="m224.476 312.342h63.048v51.821h-63.048z" fill="#425f99"/><path d="m224.476 312.342h30.446v51.821h-30.446z" fill="#33518e"/><path d="m240.238 149.466h31.524v88.602h-31.524z" fill="#425f99"/><path d="m240.238 149.466h15.223v88.602h-15.223z" fill="#33518e"/><path d="m350.349 448.453h-188.698c-34.944 0-63.271-28.327-63.271-63.271l30.446-10.149h237.51l47.284 10.149c0 34.944-28.327 63.271-63.271 63.271z" fill="#fed2a4"/><path d="m128.826 385.182v-10.149l-30.446 10.149c0 34.944 28.327 63.271 63.271 63.271h30.446c-34.944 0-63.271-28.327-63.271-63.271z" fill="#ffbd86"/><path d="m287.524 322.491h-63.048c-34.82 0-63.048-28.228-63.048-63.048l23.913-10.149h141.319l23.913 10.149c-.001 34.82-28.228 63.048-63.049 63.048z" fill="#fed2a4"/><path d="m191.874 259.443-6.533-10.149-23.913 10.149c0 34.82 28.228 63.048 63.048 63.048h30.446c-34.821 0-63.048-28.228-63.048-63.048z" fill="#ffbd86"/><path d="m422.278 385.182h-332.556c-3.923 0-7.104-3.181-7.104-7.104v-16.959c0-3.923 3.181-7.104 7.104-7.104h332.556c3.923 0 7.104 3.181 7.104 7.104v16.959c0 3.923-3.18 7.104-7.104 7.104z" fill="#fff3de"/><path d="m82.618 361.119v16.959c0 3.923 3.181 7.104 7.104 7.104h23.342v-31.167h-23.342c-3.924 0-7.104 3.18-7.104 7.104z" fill="#ffe5c2"/><path d="m263.104 165.228h-14.208c-13.487 0-24.42-10.933-24.42-24.42 0-3.923 3.181-7.104 7.104-7.104h48.84c3.923 0 7.104 3.181 7.104 7.104 0 13.486-10.933 24.42-24.42 24.42z" fill="#fed2a4"/><path d="m244.773 140.808c0-3.924 3.181-7.104 7.104-7.104h-20.297c-3.923 0-7.104 3.181-7.104 7.104 0 13.487 10.933 24.42 24.42 24.42h14.208c1.031 0 2.047-.064 3.045-.188-12.05-1.499-21.376-11.777-21.376-24.232z" fill="#ffbd86"/><g><path d="m114.142 330.102c-4.204 0-7.611-3.408-7.611-7.611v-117.443c0-25.925 21.092-47.017 47.017-47.017s47.016 21.092 47.016 47.017v23.232c0 4.204-3.408 7.611-7.611 7.611-4.204 0-7.611-3.408-7.611-7.611v-23.232c0-17.531-14.263-31.794-31.793-31.794-17.531 0-31.794 14.263-31.794 31.794v117.443c-.002 4.204-3.41 7.611-7.613 7.611z" fill="#c9f0fe"/></g><g><path d="m397.858 330.102c-4.204 0-7.612-3.408-7.612-7.611v-117.443c0-17.531-14.263-31.794-31.794-31.794s-31.793 14.263-31.793 31.794v23.232c0 4.204-3.408 7.611-7.611 7.611-4.204 0-7.612-3.408-7.612-7.611v-23.232c0-25.925 21.092-47.017 47.016-47.017 25.925 0 47.017 21.092 47.017 47.017v117.443c.001 4.204-3.407 7.611-7.611 7.611z" fill="#c9f0fe"/></g><path d="m359.23 259.804h-206.46c-3.923 0-7.104-3.181-7.104-7.104v-17.316c0-3.923 3.181-7.104 7.104-7.104h206.46c3.923 0 7.104 3.181 7.104 7.104v17.316c0 3.923-3.18 7.104-7.104 7.104z" fill="#fff3de"/><path d="m145.666 235.384v17.316c0 3.923 3.181 7.104 7.104 7.104h23.342v-31.524h-23.342c-3.923 0-7.104 3.18-7.104 7.104z" fill="#ffe5c2"/></g></svg>