<svg id="Capa_1" enable-background="new 0 0 512 512" height="512" viewBox="0 0 512 512" width="512" xmlns="http://www.w3.org/2000/svg"><g><path d="m456.664 322.505c-60.052 60.061-150.484 71.232-221.833 33.521-14.165-7.487-33.382-41.879-35.18-43.677s-36.048-20.812-43.507-34.859c-37.915-71.399-26.8-162.012 33.351-222.154 63.118-63.126 159.802-72.243 232.615-27.349 12.29 7.578 13.744 26.85 24.398 37.505 10.655 10.654 29.927 12.108 37.505 24.398 44.894 72.813 35.777 169.497-27.349 232.615z" fill="#c9f0fe"/><path d="m240.273 322.506c-73.777-73.777-73.777-193.393 0-267.17 30.415-30.416 68.622-48.291 108.195-53.628-56.417-7.609-115.613 10.267-158.975 53.628-60.143 60.143-71.258 150.749-33.343 222.151 8.595 16.186 29.865 21.23 43.499 34.864 13.724 13.724 18.878 35.051 35.184 43.669 35.214 18.611 75.073 25.316 113.634 20.115-39.572-5.337-77.779-23.213-108.194-53.629z" fill="#9be8fd"/><path d="m456.572 100.497.093-.553-44.61-44.61c-121.334 19.102-220.32 105.851-255.903 222.151v.004c7.458 14.045 16.813 27.347 28.065 39.528 1.715 1.856 13.629-6.47 15.432-4.667 1.715 1.716-6.7 13.547-4.936 15.183 12.347 11.45 25.853 20.945 40.121 28.486 116.047-35.649 202.572-134.455 221.738-255.522z" fill="#eb4340"/><path d="m186.045 209.384c-12.439 21.208-22.525 44.022-29.893 68.102v.004c0 .001.001.001.001.002 7.458 14.044 16.812 27.346 28.064 39.526 1.715 1.856 13.629-6.47 15.432-4.667 1.714 1.714-6.703 13.544-4.941 15.178 12.336 11.44 25.827 20.929 40.081 28.467.015.008.03.015.045.023 10.829-3.327 21.401-7.203 31.685-11.597-9.233-6.389-18.025-13.694-26.246-21.916-31.676-31.676-49.752-71.802-54.228-113.122z" fill="#d42f2e"/><g><g><path d="m417.442 105.333-222.463 222.453c-1.859-1.727-3.687-3.483-5.484-5.281-1.798-1.798-3.555-3.626-5.281-5.484l222.453-222.463c2.976-2.965 7.8-2.965 10.775 0 2.965 2.976 2.965 7.8 0 10.775z" fill="#ffe02f"/></g></g><path d="m184.218 317.017c1.715 1.856 3.473 3.686 5.276 5.489 1.714 1.714 3.453 3.388 5.215 5.022.091.085.183.169.274.254l26.772-26.771c-3.092-4.185-5.99-8.469-8.693-12.84z" fill="#fbc700"/><g><path d="m7.617 512c-1.949 0-3.899-.744-5.386-2.231-2.975-2.974-2.975-7.797 0-10.772l140.837-140.837c2.974-2.974 7.797-2.974 10.772 0s2.975 7.797 0 10.772l-140.837 140.837c-1.487 1.487-3.437 2.231-5.386 2.231z" fill="#c9f0fe"/></g><g><path d="m39.163 384.151c-1.949 0-3.899-.744-5.386-2.231-2.975-2.974-2.975-7.797 0-10.772l76.509-76.509c2.974-2.974 7.797-2.974 10.772 0s2.975 7.797 0 10.772l-76.509 76.509c-1.487 1.487-3.436 2.231-5.386 2.231z" fill="#c9f0fe"/></g><g><path d="m134.161 479.403c-1.949 0-3.899-.744-5.386-2.231-2.975-2.974-2.975-7.797 0-10.772l77.814-77.814c2.974-2.974 7.797-2.974 10.772 0s2.975 7.797 0 10.772l-77.814 77.814c-1.488 1.487-3.437 2.231-5.386 2.231z" fill="#c9f0fe"/></g><path d="m412.049 99.952c17.774 17.774 46.592 17.766 64.365-.007 3.059-3.059 5.594-6.441 7.598-10.053-7.577-12.29-16.693-23.901-27.347-34.555s-22.265-19.77-34.555-27.347c-3.612 2.003-6.994 4.538-10.053 7.597-17.775 17.773-17.782 46.591-.008 64.365z" fill="#425f99"/></g></svg>