<svg id="Capa_1" enable-background="new 0 0 512 512" height="512" viewBox="0 0 512 512" width="512" xmlns="http://www.w3.org/2000/svg"><g><path d="m64 32 32-10.302h320l32 10.302v416l-32 10.302h-320l-32-10.302z" fill="#c9f0fe"/><path d="m64 32v416h32v-426.302z" fill="#9be8fd"/><path d="m384 96h-24.789c-3.983 0-7.211-3.229-7.211-7.211v-17.578c0-3.983 3.229-7.211 7.211-7.211h24.789z" fill="#ffe02f"/><path d="m352 71.211v17.577c0 3.983 3.229 7.211 7.211 7.211h8.242v-31.999h-8.242c-3.982 0-7.211 3.229-7.211 7.211z" fill="#fbc700"/><path d="m408.789 96h-24.789v-32h24.789c3.983 0 7.211 3.229 7.211 7.211v17.577c0 3.983-3.229 7.212-7.211 7.212z" fill="#ffe02f"/><path d="m384 64h15.453v32h-15.453z" fill="#fbc700"/><path d="m384 192h-24.789c-3.983 0-7.211-3.229-7.211-7.211v-17.577c0-3.983 3.229-7.211 7.211-7.211h24.789z" fill="#ffe02f"/><path d="m352 167.211v17.577c0 3.983 3.229 7.211 7.211 7.211h8.242v-32h-8.242c-3.982.001-7.211 3.23-7.211 7.212z" fill="#fbc700"/><path d="m408.789 192h-24.789v-32h24.789c3.983 0 7.211 3.229 7.211 7.211v17.577c0 3.983-3.229 7.212-7.211 7.212z" fill="#ffe02f"/><path d="m384 160h15.453v32h-15.453z" fill="#fbc700"/><path d="m384 288h-24.789c-3.983 0-7.211-3.229-7.211-7.211v-17.577c0-3.983 3.229-7.211 7.211-7.211h24.789z" fill="#ffe02f"/><path d="m352 263.211v17.577c0 3.983 3.229 7.211 7.211 7.211h8.242v-32h-8.242c-3.982.001-7.211 3.23-7.211 7.212z" fill="#fbc700"/><path d="m408.789 288h-24.789v-32h24.789c3.983 0 7.211 3.229 7.211 7.211v17.577c0 3.983-3.229 7.212-7.211 7.212z" fill="#ffe02f"/><path d="m384 256h15.453v32h-15.453z" fill="#fbc700"/><path d="m96 469.698h64v34.765c0 3.967-3.204 7.189-7.17 7.211l-49.577.284c-3.999.023-7.253-3.212-7.253-7.211z" fill="#425f99"/><path d="m96 469.698v34.809c0 3.949 3.177 7.164 7.126 7.211l23.78.282v-42.302z" fill="#33518e"/><path d="m351.818 469.698h64v35.091c0 3.983-3.229 7.211-7.211 7.211h-49.577c-3.983 0-7.211-3.229-7.211-7.211v-35.091z" fill="#425f99"/><path d="m351.818 469.698v34.809c0 3.949 3.177 7.164 7.126 7.211l23.78.282v-42.302z" fill="#33518e"/><path d="m96 32h224v319.634h-224z" fill="#62ddfc"/><path d="m184 128h-48v-56.789c0-3.983 3.229-7.211 7.211-7.211h33.577c3.983 0 7.211 3.229 7.211 7.211v56.789z" fill="#ffe02f"/><path d="m136 71.211v56.789h20.604v-64h-13.392c-3.983 0-7.212 3.229-7.212 7.211z" fill="#fbc700"/><path d="m280 128h-48v-56.789c0-3.983 3.229-7.211 7.211-7.211h33.577c3.983 0 7.211 3.229 7.211 7.211v56.789z" fill="#ffe02f"/><path d="m232 71.211v56.789h20.604v-64h-13.392c-3.983 0-7.212 3.229-7.212 7.211z" fill="#fbc700"/><path d="m184 224h-48v-56.789c0-3.983 3.229-7.211 7.211-7.211h33.577c3.983 0 7.211 3.229 7.211 7.211v56.789z" fill="#ffe02f"/><path d="m136 167.211v56.789h20.604v-64h-13.392c-3.983 0-7.212 3.229-7.212 7.211z" fill="#fbc700"/><path d="m280 224h-48v-56.789c0-3.983 3.229-7.211 7.211-7.211h33.577c3.983 0 7.211 3.229 7.211 7.211v56.789z" fill="#ffe02f"/><path d="m232 167.211v56.789h20.604v-64h-13.392c-3.983 0-7.212 3.229-7.212 7.211z" fill="#fbc700"/><path d="m184 320h-48v-56.789c0-3.983 3.229-7.211 7.211-7.211h33.577c3.983 0 7.211 3.229 7.211 7.211v56.789z" fill="#ffe02f"/><path d="m136 263.211v56.789h20.604v-64h-13.392c-3.983 0-7.212 3.229-7.212 7.211z" fill="#fbc700"/><path d="m280 320h-48v-56.789c0-3.983 3.229-7.211 7.211-7.211h33.577c3.983 0 7.211 3.229 7.211 7.211v56.789z" fill="#ffe02f"/><path d="m232 263.211v56.789h20.604v-64h-13.392c-3.983 0-7.212 3.229-7.212 7.211z" fill="#fbc700"/><path d="m320 458h-224v-67.517c0-3.983 3.229-7.211 7.211-7.211h209.577c3.983 0 7.211 3.229 7.211 7.211v67.517z" fill="#425f99"/><path d="m96 390.483v67.517h30.906v-74.729h-23.694c-3.983 0-7.212 3.229-7.212 7.212z" fill="#33518e"/><path d="m448 32h-384v-24.789c0-3.982 3.229-7.211 7.211-7.211h369.577c3.983 0 7.212 3.229 7.212 7.211z" fill="#eb4340"/><path d="m64 7.211v24.789h32v-32h-24.789c-3.982 0-7.211 3.229-7.211 7.211z" fill="#d42f2e"/><path d="m440.789 479.634h-369.578c-3.983 0-7.211-3.229-7.211-7.211v-24.423h384v24.422c0 3.983-3.229 7.212-7.211 7.212z" fill="#eb4340"/><path d="m64 448v24.789c0 3.983 3.229 7.211 7.211 7.211h24.789v-32z" fill="#d42f2e"/><g><g><path d="m192.001 135.726h-64.001c-4.268 0-7.726-3.459-7.726-7.726s3.459-7.726 7.726-7.726h64.001c4.268 0 7.726 3.459 7.726 7.726s-3.459 7.726-7.726 7.726z" fill="#425f99"/></g></g><g><g><path d="m288 135.726h-64c-4.268 0-7.726-3.459-7.726-7.726s3.459-7.726 7.726-7.726h64c4.268 0 7.726 3.459 7.726 7.726s-3.458 7.726-7.726 7.726z" fill="#425f99"/></g></g><g><g><path d="m192.001 231.727h-64.001c-4.268 0-7.726-3.459-7.726-7.726s3.459-7.726 7.726-7.726h64.001c4.268 0 7.726 3.459 7.726 7.726 0 4.266-3.459 7.726-7.726 7.726z" fill="#425f99"/></g></g><g><g><path d="m288 231.727h-64c-4.268 0-7.726-3.459-7.726-7.726s3.459-7.726 7.726-7.726h64c4.268 0 7.726 3.459 7.726 7.726.001 4.266-3.458 7.726-7.726 7.726z" fill="#425f99"/></g></g><g><g><path d="m192.001 327.726h-64.001c-4.268 0-7.726-3.459-7.726-7.726s3.459-7.726 7.726-7.726h64.001c4.268 0 7.726 3.459 7.726 7.726s-3.459 7.726-7.726 7.726z" fill="#425f99"/></g></g><g><g><path d="m288 327.726h-64c-4.268 0-7.726-3.459-7.726-7.726s3.459-7.726 7.726-7.726h64c4.268 0 7.726 3.459 7.726 7.726s-3.458 7.726-7.726 7.726z" fill="#425f99"/></g></g><path d="m408.424 383.636h-49.213c-3.983 0-7.211-3.229-7.211-7.211v-49.213c0-3.983 3.229-7.211 7.211-7.211h49.213c3.983 0 7.211 3.229 7.211 7.211v49.213c.001 3.982-3.228 7.211-7.211 7.211z" fill="#425f99"/><path d="m352 327.211v49.213c0 3.983 3.229 7.211 7.211 7.211h13.392v-63.635h-13.392c-3.982 0-7.211 3.229-7.211 7.211z" fill="#33518e"/></g></svg>