<svg id="Capa_1" enable-background="new 0 0 512 512" height="512" viewBox="0 0 512 512" width="512" xmlns="http://www.w3.org/2000/svg"><g><g><path d="m192.184 501.823h-32.238v-421.848c0-44.098 35.877-79.975 79.976-79.975h.256c44.098 0 79.975 35.877 79.975 79.975v16.124h-32.238v-16.124c0-26.323-21.415-47.738-47.737-47.738h-.256c-26.323 0-47.737 21.415-47.737 47.738v421.848z" fill="#c9f0fe"/></g><g fill="#9be8fd"><path d="m256.657 32.237h-.256c-2.764 0-5.474.237-8.111.69 22.473 3.863 39.626 23.489 39.626 47.048v16.124h16.479v-16.124c0-26.323-21.415-47.738-47.738-47.738z"/><path d="m248.289.408c-2.667-.27-5.373-.408-8.111-.408h-.256c-44.098 0-79.975 35.877-79.975 79.975v411.548h16.479v-411.548c-.001-41.361 31.56-75.489 71.863-79.567z"/></g><path d="m200.756 512h-49.504c-3.982 0-7.21-3.228-7.21-7.21v-145.909c0-3.982 3.228-7.21 7.21-7.21h49.504c3.982 0 7.21 3.228 7.21 7.21v145.909c-.001 3.982-3.228 7.21-7.21 7.21z" fill="#425f99"/><path d="m144.042 358.881v145.909c0 3.982 3.228 7.21 7.21 7.21h23.689v-160.328h-23.689c-3.982 0-7.21 3.228-7.21 7.209z" fill="#33518e"/><path d="m352.023 154.479h-95.977v-26.296c0-26.503 21.485-47.988 47.988-47.988 26.503 0 47.988 21.485 47.988 47.988v26.296z" fill="#9be8fd"/><path d="m319.484 82.736c-4.848-1.648-10.044-2.541-15.449-2.541-26.503 0-47.989 21.485-47.989 47.988v26.296h30.898v-26.296c.001-21.098 13.616-39.016 32.54-45.447z" fill="#62ddfc"/><path d="m239.989 424.294h-33.979c-2.725-4.932-7.978-8.271-14.01-8.271-8.834 0-15.996 7.162-15.996 15.996s7.162 15.996 15.996 15.996c6.033 0 11.286-3.34 14.011-8.272h33.978c4.267 0 7.725-3.458 7.725-7.725-.001-4.265-3.459-7.724-7.725-7.724z" fill="#ffe02f"/><g><g><path d="m256.046 231.794c-4.267 0-7.725-3.458-7.725-7.725v-15.996c0-4.266 3.458-7.725 7.725-7.725s7.725 3.458 7.725 7.725v15.996c0 4.266-3.458 7.725-7.725 7.725z" fill="#c9f0fe"/></g><g><path d="m287.977 231.794c-4.267 0-7.725-3.458-7.725-7.725v-15.996c0-4.266 3.458-7.725 7.725-7.725s7.725 3.458 7.725 7.725v15.996c-.001 4.266-3.459 7.725-7.725 7.725z" fill="#c9f0fe"/></g><g><path d="m320.153 231.794c-4.267 0-7.725-3.458-7.725-7.725v-15.996c0-4.266 3.458-7.725 7.725-7.725s7.725 3.458 7.725 7.725v15.996c0 4.266-3.458 7.725-7.725 7.725z" fill="#c9f0fe"/></g><g><path d="m352.023 231.794c-4.267 0-7.725-3.458-7.725-7.725v-15.996c0-4.266 3.458-7.725 7.725-7.725s7.725 3.458 7.725 7.725v15.996c0 4.266-3.458 7.725-7.725 7.725z" fill="#c9f0fe"/></g><g><path d="m271.981 279.782c-4.267 0-7.725-3.458-7.725-7.725v-15.996c0-4.266 3.458-7.725 7.725-7.725s7.725 3.458 7.725 7.725v15.996c0 4.267-3.458 7.725-7.725 7.725z" fill="#c9f0fe"/></g><g><path d="m303.973 279.782c-4.267 0-7.725-3.458-7.725-7.725v-15.996c0-4.266 3.458-7.725 7.725-7.725s7.725 3.458 7.725 7.725v15.996c-.001 4.267-3.459 7.725-7.725 7.725z" fill="#c9f0fe"/></g><g><path d="m335.965 279.782c-4.267 0-7.725-3.458-7.725-7.725v-15.996c0-4.266 3.458-7.725 7.725-7.725s7.725 3.458 7.725 7.725v15.996c0 4.267-3.458 7.725-7.725 7.725z" fill="#c9f0fe"/></g><g><path d="m287.977 327.77c-4.267 0-7.725-3.458-7.725-7.725v-15.995c0-4.266 3.458-7.725 7.725-7.725s7.725 3.458 7.725 7.725v15.996c-.001 4.266-3.459 7.724-7.725 7.724z" fill="#c9f0fe"/></g><g><path d="m320.151 327.77c-4.224 0-7.673-3.4-7.722-7.636l-.184-15.996c-.049-4.266 3.368-7.764 7.635-7.813 4.247-.074 7.764 3.369 7.812 7.635l.185 15.996c.048 4.266-3.369 7.764-7.636 7.813-.029.001-.06.001-.09.001z" fill="#c9f0fe"/></g></g><path d="m352.053 175.989h-96.16c-8.784 0-15.905-7.121-15.905-15.905 0-8.784 7.121-15.905 15.905-15.905h96.16c8.784 0 15.905 7.121 15.905 15.905 0 8.784-7.121 15.905-15.905 15.905z" fill="#425f99"/><path d="m270.887 160.084c0-8.784 7.121-15.905 15.905-15.905h-30.898c-8.784 0-15.905 7.121-15.905 15.905s7.121 15.905 15.905 15.905h30.898c-8.784 0-15.905-7.121-15.905-15.905z" fill="#33518e"/></g></svg>