<svg id="Capa_1" enable-background="new 0 0 512 512" height="512" viewBox="0 0 512 512" width="512" xmlns="http://www.w3.org/2000/svg"><g><path d="m272.019 127.991h-176.012l-32.002 10.303v21.7h208.015c8.837 0 16.001-7.164 16.001-16.001-.001-8.838-7.165-16.002-16.002-16.002z" fill="#ffe02f"/><path d="m272.019 143.509h-208.015v16.484h208.015c8.837 0 16.001-7.164 16.001-16.001 0-3.015-.834-5.835-2.283-8.242-2.8 4.649-7.896 7.759-13.718 7.759z" fill="#fbc700"/><path d="m127.615 304.003c11.582 0 23.165 14.721 32.002 23.558l.001.001c17.674 17.674 46.33 17.674 64.004 0l.001-.001c17.674-17.674 46.33-17.674 64.004 0l.001.001c17.674 17.674 46.329 17.674 64.004 0l.001-.001c17.674-17.674 46.33-17.674 64.004 0 17.674 17.674 46.33 17.674 64.004 0 8.837-8.837 20.42-23.558 32.002-23.558v-40.103c0-4.477-4.048-7.94-8.447-7.109-8.63 1.631-16.876 5.786-23.555 12.465-17.674 17.674-46.33 17.674-64.004 0-17.674-17.674-46.33-17.674-64.004 0l-.001.001c-17.674 17.674-46.33 17.674-64.004 0l-.001-.001c-17.674-17.674-46.33-17.674-64.004 0l-.001.001c-17.674 17.674-46.33 17.674-64.004 0l-.001-.001c-8.837-8.837-20.42-13.256-32.002-13.256l-10.303 22.322z" fill="#c9f0fe"/><path d="m64.004 223.998h-64.004v-96.007h96.007z" fill="#fff"/><path d="m64.004 223.998-33.096 10.302-30.908-10.302v-88.795c0-3.983 3.229-7.212 7.212-7.212h88.795z" fill="#fff3de"/><path d="m0 135.203v88.795l30.908 10.302v-106.309h-23.696c-3.983 0-7.212 3.229-7.212 7.212z" fill="#ffe5c2"/><path d="m127.615 304.003c11.582 0 23.165 4.419 32.002 13.256l.001.001c17.674 17.674 46.33 17.674 64.004 0l.001-.001c17.674-17.674 46.33-17.674 64.004 0l.001.001c17.674 17.674 46.329 17.674 64.004 0l.001-.001c17.674-17.674 46.33-17.674 64.004 0 17.674 17.674 46.33 17.674 64.004 0 8.837-8.837 20.42-13.256 32.002-13.256l.357 72.759c.02 3.997-3.215 7.247-7.212 7.247h-376.78l-10.499-40.002z" fill="#9be8fd"/><path d="m128.008 384.009h-120.796c-3.983 0-7.212-3.229-7.212-7.212v-152.799h120.797c3.983 0 7.212 3.229 7.212 7.212v152.799z" fill="#425f99"/><path d="m0 223.998v152.799c0 3.983 3.229 7.212 7.212 7.212h23.696v-160.011z" fill="#33518e"/></g></svg>