<svg id="Capa_1" enable-background="new 0 0 512 512" height="512" viewBox="0 0 512 512" width="512" xmlns="http://www.w3.org/2000/svg"><g><g><g fill="#425f99"><path d="m288 80h-64v-40.278l-10.302-7.722c0-2.666 10.628-5.255 11.242-7.731 3.458-13.938 16.053-24.269 31.06-24.269 17.673 0 32 14.327 32 32z"/><path d="m288 432h-64v48c0 17.673 14.327 32 32 32 15.007 0 27.602-10.331 31.06-24.269.614-2.476 11.242-5.065 11.242-7.731l-10.302-7.722z"/></g></g><g><g fill="#425f99"><path d="m80 224v64h-40.278l-7.722 10.302c-2.666 0-5.255-10.628-7.731-11.242-13.938-3.458-24.269-16.052-24.269-31.06 0-17.673 14.327-32 32-32z"/><path d="m432 224v64h48c17.673 0 32-14.327 32-32 0-15.007-10.331-27.602-24.269-31.06-2.476-.614-5.065-11.242-7.731-11.242l-7.722 10.302z"/></g></g><path d="m422.303 159.986c-8.834-15.271-30.017-18.913-42.567-31.152-11.393-11.11-13.86-31.118-27.723-39.138-28.247-16.338-61.038-25.692-96.013-25.692s-67.766 9.354-96.014 25.693c-15.059 8.712-18.525 29.715-30.641 42.046-11.324 11.524-31.506 14.17-39.649 28.244-16.338 28.247-25.692 61.038-25.692 96.013s9.354 67.766 25.693 96.014c8.672 14.99 29.618 18.4 41.877 30.475 11.567 11.393 14.27 31.633 28.413 39.815 28.248 16.339 61.039 25.693 96.014 25.693s67.766-9.354 96.014-25.693c13.724-7.939 16.074-27.833 27.38-38.804 12.695-12.319 33.996-16.076 42.91-31.486 16.339-28.248 25.693-61.039 25.693-96.014s-9.356-67.766-25.695-96.014zm-69.29 152.025c-4.919 8.499-.618 26.592-7.514 33.488s-24.989 2.595-33.488 7.514c-16.483 9.529-35.614 14.989-56.011 14.989s-39.528-5.46-56.011-14.989c-8.831-5.111-27.2-1.089-34.292-8.327-6.559-6.693-1.982-24.508-6.709-32.675-9.529-16.483-14.989-35.614-14.989-56.011s5.46-39.528 14.989-56.011c4.879-8.43.521-26.465 7.346-33.319 6.937-6.967 25.087-2.723 33.656-7.682 16.483-9.529 35.614-14.989 56.011-14.989s39.528 5.46 56.011 14.989c8.492 4.915 26.579.609 33.471 7.497 6.903 6.9 2.607 24.998 7.531 33.504 9.529 16.483 14.989 35.614 14.989 56.011s-5.461 39.528-14.99 56.011z" fill="#fff3de"/><path d="m190.892 422.303c-29.134-16.854-53.436-41.156-70.29-70.29-16.339-28.247-25.693-61.038-25.693-96.013s9.354-67.766 25.693-96.014c16.854-29.134 41.156-53.436 70.29-70.29 24.046-13.909 51.385-22.756 80.561-25.08-5.097-.406-10.251-.613-15.453-.613-34.975 0-67.766 9.354-96.014 25.693-14.425 8.345-17.364 28.818-29.103 40.498-11.969 11.909-32.678 15.084-41.187 29.792-16.338 28.248-25.692 61.039-25.692 96.014s9.354 67.766 25.693 96.014c7.405 12.801 26.551 14.367 36.61 25.081 12.835 13.669 17.347 35.761 33.68 45.209 28.248 16.339 61.039 25.693 96.014 25.693 5.202 0 10.355-.207 15.453-.613-29.177-2.325-56.516-11.172-80.562-25.081z" fill="#ffe5c2"/><path d="m312.011 353.013c-12.247 7.08-25.955 11.913-40.559 13.93 5.052.698 10.21 1.059 15.453 1.059 20.398 0 39.528-5.46 56.011-14.989 16.998-9.838 31.163-24.003 41.002-41.002 9.529-16.483 14.989-35.614 14.989-56.011s-5.46-39.528-14.989-56.011c-9.838-16.998-24.003-31.163-41.002-41.002-16.483-9.529-35.614-14.989-56.011-14.989-5.243 0-10.401.362-15.453 1.059 14.603 2.017 28.312 6.85 40.559 13.93 8.492 4.915 26.579.608 33.471 7.497 6.903 6.9 2.607 24.998 7.531 33.504 9.529 16.483 14.989 35.614 14.989 56.011s-5.46 39.528-14.989 56.011c-4.919 8.499-.618 26.592-7.514 33.488-6.896 6.897-24.989 2.596-33.488 7.515z" fill="#ffe5c2"/><path d="m199.989 158.987-40.002-69.29c-29.134 16.854-53.436 41.156-70.29 70.29l69.291 40.002c9.837-16.999 24.002-31.164 41.001-41.002z" fill="#eb4340"/><path d="m353.013 199.989 69.291-40.002c-16.854-29.134-41.156-53.436-70.29-70.29l-40.002 69.29c16.997 9.838 31.163 24.003 41.001 41.002z" fill="#eb4340"/><path d="m312.011 353.013 40.002 69.291c29.134-16.854 53.436-41.156 70.29-70.29l-69.291-40.002c-9.837 16.997-24.003 31.163-41.001 41.001z" fill="#eb4340"/><path d="m342.917 158.987c-7.731-4.47-16.045-8.044-24.798-10.579l-6.108 10.579c16.998 9.838 31.163 24.003 41.002 41.002l22.239-12.839c-8.846-11.335-19.823-20.921-32.335-28.163z" fill="#d42f2e"/><path d="m375.252 324.85-22.239-12.839c-9.838 16.998-24.003 31.163-41.002 41.002l6.108 10.579c8.753-2.536 17.067-6.11 24.798-10.579 12.512-7.242 23.489-16.828 32.335-28.163z" fill="#d42f2e"/><path d="m158.987 312.011-69.291 40.002c16.854 29.134 41.156 53.436 70.29 70.29l40.002-69.291c-16.998-9.837-31.163-24.003-41.001-41.001z" fill="#eb4340"/><path d="m120.602 159.986c12.359-21.363 28.722-40.128 48.059-55.264l-8.675-15.026c-29.134 16.854-53.436 41.156-70.29 70.29l23.709 13.688c2.22-4.669 4.622-9.235 7.197-13.688z" fill="#d42f2e"/><path d="m120.602 352.014c-2.575-4.453-4.977-9.018-7.196-13.688l-23.709 13.688c16.854 29.134 41.156 53.436 70.29 70.29l8.675-15.026c-19.338-15.136-35.701-33.901-48.06-55.264z" fill="#d42f2e"/><g fill="#fff3de"><path d="m480.004 248.274c-4.267 0-7.726 3.459-7.726 7.726v32c0 101.774-82.504 184.278-184.278 184.278v7.722c0 2.666-.326 5.255-.941 7.731h.941c110.308 0 199.731-89.423 199.731-199.731v-32c0-4.267-3.46-7.726-7.727-7.726z"/><path d="m487.731 224.941v-.941c0-110.308-89.422-199.73-199.73-199.73h-32c-4.267 0-7.726 3.459-7.726 7.726s3.459 7.726 7.726 7.726h32c101.774 0 184.278 82.504 184.278 184.278h7.721c2.666 0 5.255.326 7.731.941z"/><path d="m256 472.278h-32c-101.774 0-184.278-82.504-184.278-184.278h-7.722c-2.666 0-5.255-.326-7.731-.941v.941c0 110.308 89.422 199.73 199.73 199.73h32c4.267 0 7.726-3.459 7.726-7.726.001-4.266-3.458-7.726-7.725-7.726z"/><path d="m224.941 24.269h-.941c-110.308 0-199.731 89.422-199.731 199.731v32c0 4.267 3.459 7.726 7.726 7.726s7.726-3.459 7.726-7.726v-32c0-101.774 82.504-184.278 184.278-184.278v-7.722c.001-2.666.327-5.255.942-7.731z"/></g></g></svg>