<svg id="Capa_1" enable-background="new 0 0 512 512" height="512" viewBox="0 0 512 512" width="512" xmlns="http://www.w3.org/2000/svg"><g><path d="m479.991 21.79v34.571l-10 7.726 10 7.726v368.456l-10 7.726 10 7.726v34.643h-447.982v-34.643l10-7.705-10-7.747v-368.456l10-7.726-10-7.726v-34.571z" fill="#facf66"/><path d="m64.046 21.79v468.574h-32.037v-34.643l10-7.705-10-7.747v-368.456l10-7.726-10-7.726v-34.571z" fill="#f4b558"/><path d="m216.822 440.269h-145.569c-3.982 0-7.211-3.228-7.211-7.211v-337.563c0-3.982 3.228-7.211 7.211-7.211h145.569c3.982 0 7.211 3.228 7.211 7.211v337.564c0 3.982-3.229 7.21-7.211 7.21z" fill="#fff3de"/><path d="m440.808 440.269h-145.568c-3.982 0-7.211-3.228-7.211-7.211v-337.563c0-3.982 3.228-7.211 7.211-7.211h145.569c3.982 0 7.211 3.228 7.211 7.211v337.564c-.001 3.982-3.229 7.21-7.212 7.21z" fill="#fff3de"/><circle cx="144.037" cy="216.278" fill="#425f99" r="31.998"/><path d="m142.943 216.278c0-12.068 6.681-22.575 16.546-28.026-4.581-2.531-9.848-3.972-15.452-3.972-17.672 0-31.998 14.326-31.998 31.998s14.326 31.998 31.998 31.998c5.604 0 10.871-1.441 15.452-3.972-9.865-5.45-16.546-15.958-16.546-28.026z" fill="#33518e"/><path d="m107.708 248.276h72.659c5.36 0 8.847 5.641 6.45 10.436l-36.33 72.659c-2.657 5.315-10.242 5.315-12.899 0l-36.33-72.659c-2.397-4.794 1.089-10.436 6.45-10.436z" fill="#425f99"/><path d="m126.944 248.276h-19.236c-5.36 0-8.847 5.641-6.45 10.436l36.33 72.659c2.657 5.315 10.242 5.315 12.899 0l9.002-18.005z" fill="#33518e"/><circle cx="368.024" cy="216.278" fill="#425f99" r="31.998"/><path d="m366.93 216.278c0-12.068 6.681-22.575 16.546-28.026-4.581-2.531-9.848-3.972-15.452-3.972-17.672 0-31.998 14.326-31.998 31.998s14.326 31.998 31.998 31.998c5.604 0 10.871-1.441 15.452-3.972-9.865-5.45-16.546-15.958-16.546-28.026z" fill="#33518e"/><path d="m331.694 333.969h72.659c5.36 0 8.847-5.641 6.45-10.436l-36.33-72.659c-2.657-5.315-10.242-5.315-12.899 0l-36.33 72.659c-2.397 4.795 1.09 10.436 6.45 10.436z" fill="#425f99"/><path d="m361.574 250.874-36.33 72.659c-2.397 4.795 1.089 10.436 6.45 10.436h19.236l32.545-65.09-9.002-18.005c-2.657-5.314-10.241-5.314-12.899 0z" fill="#33518e"/><g><g><path d="m32.009 56.361h447.982v15.452h-447.982z" fill="#f4b558"/></g></g><g><g><path d="m32.009 440.269h447.982v15.452h-447.982z" fill="#f4b558"/></g></g><path d="m32.009 56.361h32.037v15.452h-32.037z" fill="#ff9e3e"/><path d="m32.009 440.269h32.037v15.452h-32.037z" fill="#ff9e3e"/><path d="m504.774 31.998h-497.548c-3.982 0-7.211-3.228-7.211-7.211v-17.576c0-3.983 3.229-7.211 7.211-7.211h497.548c3.982 0 7.211 3.228 7.211 7.211v17.576c0 3.983-3.229 7.211-7.211 7.211z" fill="#c9f0fe"/><path d="m.015 7.211v17.576c0 3.982 3.228 7.211 7.211 7.211h24.818v-31.998h-24.818c-3.982 0-7.211 3.228-7.211 7.211z" fill="#9be8fd"/><path d="m504.774 512h-497.548c-3.982 0-7.211-3.228-7.211-7.211v-17.576c0-3.982 3.228-7.211 7.211-7.211h497.548c3.982 0 7.211 3.228 7.211 7.211v17.576c0 3.983-3.229 7.211-7.211 7.211z" fill="#c9f0fe"/><path d="m.015 487.213v17.576c0 3.982 3.228 7.211 7.211 7.211h24.818v-31.998h-24.818c-3.982 0-7.211 3.228-7.211 7.211z" fill="#9be8fd"/></g></svg>