<svg id="Capa_1" enable-background="new 0 0 512 512" height="512" viewBox="0 0 512 512" width="512" xmlns="http://www.w3.org/2000/svg"><path d="m22.502 311.125v-24.062h-15v24.062c0 3.866 3.134 7 7 7h15c-3.866 0-7-3.135-7-7z" fill="#fbc700"/><g><g><g><path d="m31.992 288.055-16.543 10.299-15.449-10.299 14.157-202.236c1.588-20.652 16.156-37.903 36.251-42.927l41.66-10.414c8.636-2.159 17.388 3.092 19.547 11.728 2.159 8.636-3.092 17.388-11.729 19.547l-41.659 10.413c-6.612 1.654-11.406 7.33-11.929 14.125z" fill="#eb4340"/></g></g><path d="m65.856 42.892 37.143-9.285c-3.281-1.591-7.118-2.083-10.932-1.129l-41.66 10.414c-20.095 5.024-34.663 22.275-36.251 42.927l-14.156 202.236 15.449 10.299v-10.299l14.157-202.236c1.588-20.652 16.156-37.903 36.25-42.927z" fill="#d42f2e"/><g><g><path d="m480.008 288.055 15.449 10.299 16.543-10.299-14.157-202.236c-1.588-20.652-16.156-37.903-36.251-42.927l-41.66-10.414c-8.636-2.159-17.388 3.092-19.547 11.728-2.159 8.636 3.092 17.388 11.729 19.547l41.659 10.414c6.612 1.654 11.406 7.33 11.929 14.125z" fill="#eb4340"/></g></g><path d="m469.222 74.166-41.659-10.414c-8.636-2.159-13.887-10.91-11.729-19.547 1.205-4.822 4.466-8.589 8.614-10.599l-4.517-1.129c-8.636-2.159-17.388 3.092-19.547 11.728s3.092 17.388 11.729 19.547l41.659 10.414c6.612 1.654 11.406 7.33 11.929 14.125l14.306 199.764 15.449 10.299v-10.299l-14.305-199.764c-.523-6.795-5.316-12.472-11.929-14.125z" fill="#d42f2e"/><path d="m511.874 288.055h-159.961c-21.487 0-41.324 7.061-57.318 18.989-11.191 8.345-24.698 13.004-38.658 13.004-13.96 0-27.467-4.658-38.658-13.004-15.995-11.928-35.832-18.989-57.318-18.989h-159.961v24.783c0 3.982 3.228 7.21 7.21 7.21h17.573c3.982 0 7.21 3.228 7.21 7.21v56.775c0 53.006 42.97 95.976 95.976 95.976h31.992c53.006 0 95.976-42.97 95.976-95.976 0 53.006 42.97 95.976 95.976 95.976h31.992c53.006 0 95.976-42.97 95.976-95.976v-56.775c0-3.982 3.228-7.21 7.21-7.21h17.573c3.982 0 7.21-3.228 7.21-7.21z" fill="#ffe02f"/><path d="m47.441 384.031v-56.775c0-3.982-3.228-7.21-7.21-7.21h-15.448c3.982 0 7.21 3.228 7.21 7.21v56.775c0 53.006 42.97 95.976 95.976 95.976h15.449c-53.007.001-95.977-42.969-95.977-95.976z" fill="#fbc700"/><path d="m159.961 448.016h-31.992c-35.337 0-63.984-28.647-63.984-63.984v-56.775c0-3.982 3.228-7.21 7.21-7.21h88.767c35.337 0 63.984 28.647 63.984 63.984-.001 35.338-28.648 63.985-63.985 63.985z" fill="#c9f0fe"/><path d="m94.882 384.031v-63.984h-23.688c-3.982 0-7.21 3.228-7.21 7.21v56.775c0 35.337 28.647 63.984 63.984 63.984h30.898c-35.337 0-63.984-28.647-63.984-63.985z" fill="#9be8fd"/><path d="m351.913 448.016h31.992c35.337 0 63.984-28.647 63.984-63.984v-56.775c0-3.982-3.228-7.21-7.21-7.21h-88.767c-35.337 0-63.984 28.647-63.984 63.984.001 35.338 28.648 63.985 63.985 63.985z" fill="#c9f0fe"/><path d="m318.827 384.031c0-35.338 28.647-63.984 63.984-63.984h-30.898c-35.337 0-63.984 28.647-63.984 63.984 0 35.337 28.647 63.984 63.984 63.984h30.898c-35.337.001-63.984-28.646-63.984-63.984z" fill="#9be8fd"/><g><g><path d="m107.913 407.235c-1.976 0-3.954-.754-5.462-2.262-3.016-3.017-3.016-7.908 0-10.925l31.992-31.992c3.017-3.015 7.908-3.015 10.925 0 3.016 3.017 3.016 7.908 0 10.925l-31.992 31.992c-1.509 1.508-3.487 2.262-5.463 2.262z" fill="#9be8fd"/></g></g><g><g><path d="m155.9 407.235c-1.976 0-3.954-.754-5.462-2.262-3.016-3.017-3.016-7.908 0-10.925l31.992-31.992c3.017-3.015 7.908-3.015 10.925 0 3.016 3.017 3.016 7.908 0 10.925l-31.992 31.992c-1.509 1.508-3.486 2.262-5.463 2.262z" fill="#9be8fd"/></g></g><g><g><path d="m327.919 407.235c-1.976 0-3.954-.754-5.462-2.262-3.016-3.017-3.016-7.908 0-10.925l31.992-31.992c3.017-3.015 7.908-3.015 10.925 0 3.016 3.017 3.016 7.908 0 10.925l-31.992 31.992c-1.51 1.508-3.487 2.262-5.463 2.262z" fill="#9be8fd"/></g></g><g><g><path d="m375.907 407.752c-1.976 0-3.954-.754-5.462-2.262-3.016-3.017-3.016-7.908 0-10.925l31.992-31.992c3.017-3.015 7.908-3.015 10.925 0 3.016 3.017 3.016 7.908 0 10.925l-31.992 31.992c-1.509 1.508-3.486 2.262-5.463 2.262z" fill="#9be8fd"/></g></g></g></svg>