<svg id="Capa_1" enable-background="new 0 0 512 512" height="512" viewBox="0 0 512 512" width="512" xmlns="http://www.w3.org/2000/svg"><g><path d="m120.789 512h-49.578c-3.983 0-7.211-3.229-7.211-7.211v-35.091h64v35.091c0 3.982-3.229 7.211-7.211 7.211z" fill="#facf66"/><path d="m91.815 495.453h36.185v-25.755h-64v35.091c0 3.983 3.229 7.211 7.211 7.211h13.392v-9.336c.001-3.983 3.229-7.211 7.212-7.211z" fill="#f4b558"/><path d="m440.789 512h-49.577c-3.983 0-7.211-3.229-7.211-7.211v-35.091h64v35.091c-.001 3.982-3.23 7.211-7.212 7.211z" fill="#facf66"/><path d="m411.815 495.453h36.185v-25.755h-64v35.091c0 3.983 3.229 7.211 7.211 7.211h13.392v-9.336c.001-3.983 3.229-7.211 7.212-7.211z" fill="#f4b558"/><path d="m416 53.698h32v84.604h-32z" fill="#facf66"/><path d="m438.664 84.604h9.336v-30.906h-32v84.604h15.453v-46.487c0-3.983 3.228-7.211 7.211-7.211z" fill="#f4b558"/><path d="m64 53.698h32v84.604h-32z" fill="#facf66"/><path d="m86.664 84.604h9.336v-30.906h-32v84.604h15.453v-46.487c0-3.983 3.228-7.211 7.211-7.211z" fill="#f4b558"/><path d="m39.211 128h433.577c3.983 0 7.211 3.229 7.211 7.211v40.726l-10.302 32.032 10.303 32.031v64.031l-10.302 31.984 10.302 31.985v64l-10.302 24 10.302 16.788c0 3.983-3.229 7.211-7.211 7.211h-433.578c-3.983 0-7.211-3.229-7.211-7.211l10.302-16.788-10.302-24v-64l10.302-31.984-10.302-31.985v-64.031l10.302-32.032-10.302-32.031v-40.726c0-3.983 3.229-7.211 7.211-7.211z" fill="#facf66"/><g fill="#f4b558"><path d="m32 135.211v337.577c0 3.983 3.229 7.211 7.211 7.211h24.789v-351.999h-24.789c-3.982 0-7.211 3.228-7.211 7.211z"/><path d="m32 175.937h448v64.063h-448z"/><path d="m32 304.031h448v63.968h-448z"/><path d="m32 432h448v40.789c0 3.983-3.229 7.211-7.211 7.211h-433.578c-3.983 0-7.211-3.229-7.211-7.211z"/></g><path d="m32 175.937h32v64.063h-32z" fill="#ff9e3e"/><path d="m32 304.031h32v63.968h-32z" fill="#ff9e3e"/><path d="m39.211 480h24.789v-48h-32v40.789c0 3.982 3.229 7.211 7.211 7.211z" fill="#ff9e3e"/><path d="m472.789 64h-433.578c-3.982 0-7.211-3.229-7.211-7.211v-49.578c0-3.982 3.229-7.211 7.211-7.211h433.577c3.983 0 7.212 3.229 7.212 7.211v49.577c0 3.983-3.229 7.212-7.211 7.212z" fill="#f4b558"/><path d="m32 7.211v49.577c0 3.983 3.229 7.212 7.211 7.212h24.789v-64h-24.789c-3.982 0-7.211 3.229-7.211 7.211z" fill="#ff9e3e"/><path d="m233.418 441.386-114.804-114.804c-12.472-12.472-12.472-32.692 0-45.164l114.804-114.804c12.472-12.472 32.692-12.472 45.164 0l114.804 114.804c12.472 12.472 12.472 32.692 0 45.164l-114.804 114.804c-12.472 12.472-32.692 12.472-45.164 0z" fill="#62ddfc"/><path d="m330.024 291.454-66.328-39.798v-5.191c9.301-3.211 16-12.055 16-22.435 0-13.083-10.644-23.727-23.727-23.727s-23.727 10.644-23.727 23.727c0 4.268 3.459 7.726 7.726 7.726s7.726-3.459 7.726-7.726c0-4.562 3.711-8.274 8.274-8.274s8.274 3.711 8.274 8.274c0 4.562-3.711 8.274-8.274 8.274-4.268 0-7.726 3.459-7.726 7.726v11.625l-66.329 39.798c-8.433 5.059-13.671 14.311-13.671 24.145 0 15.526 12.632 28.158 28.158 28.158h119.137c15.526 0 28.158-12.632 28.158-28.158 0-9.833-5.239-19.085-13.671-24.144zm-14.487 36.85h-119.137c-7.006 0-12.705-5.699-12.705-12.705 0-4.437 2.363-8.611 6.168-10.893l58.38-35.028v2.354c0 4.268 3.459 7.726 7.726 7.726s7.726-3.459 7.726-7.726v-2.354l58.379 35.028c3.805 2.283 6.168 6.457 6.168 10.893 0 7.006-5.699 12.705-12.705 12.705z" fill="#c9f0fe"/><g><path d="m64.001 39.804c-4.266 0-7.724-3.457-7.726-7.722-.002-4.267 3.455-7.728 7.722-7.73l383.999-.204h.004c4.266 0 7.724 3.457 7.726 7.722.002 4.267-3.455 7.728-7.722 7.73l-383.999.204c-.001 0-.003 0-.004 0z" fill="#c9f0fe"/></g></g></svg>