<svg id="Capa_1" enable-background="new 0 0 512 512" height="512" viewBox="0 0 512 512" width="512" xmlns="http://www.w3.org/2000/svg"><g><path d="m320 128-16 10h-96l-16-10v-64c0-35.346 28.654-64 64-64 35.346 0 64 28.654 64 64z" fill="#ffe02f"/><path d="m272 2.016c-5.114-1.316-10.475-2.016-16-2.016-35.346 0-64 28.654-64 64v64l16 10 16-10v-64c0-29.821 20.396-54.879 48-61.984z" fill="#fbc700"/><path d="m320 96h-129.319c-8.837 0-16-7.163-16-16 0-8.837 7.163-16 16-16h129.319c8.837 0 16 7.163 16 16 0 8.837-7.164 16-16 16z" fill="#f4b558"/><path d="m205.587 80c0-8.837 7.163-16 16-16h-30.906c-8.837 0-16 7.163-16 16 0 8.836 7.163 16 16 16h30.906c-8.837 0-16-7.164-16-16z" fill="#ff9e3e"/><path d="m480 192.06-32.55 10.3h-384.54l-30.91-10.3 160-64.06h128z" fill="#62ddfc"/><path d="m112 405.677h32v84.625h-32z" fill="#facf66"/><path d="m112 405.677h16.483v84.625h-16.483z" fill="#f4b558"/><path d="m240 405.677h32v84.323h-32z" fill="#facf66"/><path d="m240 405.677h16v84.323h-16z" fill="#f4b558"/><path d="m368 405.677h32v84.625h-32z" fill="#facf66"/><path d="m368 405.677h15.453v84.625h-15.453z" fill="#f4b558"/><path d="m69.698 383.979h116.604v32h-116.604z" fill="#f4b558"/><path d="m69.698 383.979h42.302v32h-42.302z" fill="#ff9e3e"/><path d="m197.698 383.979h116.604v32h-116.604z" fill="#f4b558"/><path d="m197.698 383.979h42.302v32h-42.302z" fill="#ff9e3e"/><path d="m325.698 383.979h116.604v32h-116.604z" fill="#f4b558"/><path d="m325.698 383.979h42.302v32h-42.302z" fill="#ff9e3e"/><path d="m48 213.761h32v276.541h-32z" fill="#facf66"/><path d="m48 213.761h14.423v276.541h-14.423z" fill="#f4b558"/><path d="m435 213.761h29v276.541h-29z" fill="#facf66"/><path d="m432 213.761h15.453v276.541h-15.453z" fill="#f4b558"/><path d="m179 213.761h29v276.541h-29z" fill="#facf66"/><path d="m176 213.761h15.453v276.541h-15.453z" fill="#f4b558"/><path d="m307 213.761h29v276.541h-29z" fill="#facf66"/><path d="m304 213.761h15.453v276.541h-15.453z" fill="#f4b558"/><g><g><path d="m233.11 128-34.2 67.52c-1.35 2.7-4.08 4.27-6.92 4.27-1.16 0-2.33-.26-3.44-.81-3.82-1.91-5.37-6.55-3.46-10.37l30.28-60.61z" fill="#c9f0fe"/></g></g><g><g><path d="m323.46 198.91c-1.11.56-2.29.82-3.45.82-2.84 0-5.57-1.57-6.92-4.27l-33.95-67.46h17.5l30.27 60.54c1.91 3.82.36 8.46-3.45 10.37z" fill="#c9f0fe"/></g></g><path d="m472.789 224.063h-433.578c-3.983 0-7.211-3.229-7.211-7.211v-24.789h448v24.789c0 3.982-3.229 7.211-7.211 7.211z" fill="#f4b558"/><path d="m32 192.063v24.789c0 3.983 3.229 7.211 7.211 7.211h23.211v-32z" fill="#ff9e3e"/><path d="m472.789 512h-433.578c-3.983 0-7.211-3.229-7.211-7.211v-17.577c0-3.983 3.229-7.211 7.211-7.211h433.577c3.983 0 7.211 3.229 7.211 7.211v17.577c.001 3.982-3.228 7.211-7.21 7.211z" fill="#f4b558"/><path d="m32 487.211v17.577c0 3.983 3.229 7.211 7.211 7.211h23.694v-32h-23.694c-3.982.001-7.211 3.23-7.211 7.212z" fill="#ff9e3e"/></g></svg>