<svg id="Capa_1" enable-background="new 0 0 512 512" height="512" viewBox="0 0 512 512" width="512" xmlns="http://www.w3.org/2000/svg"><g><path d="m272 64.002h-32c-35.346 0-63.999-21.444-63.999-56.79l-10.302 37.566c0 32.377 25.019 73.3 50.301 93.526 24.457 19.566 39.028 48.861 39.952 80.062l.094-10.302c.925-31.201 15.495-50.194 39.952-69.76v1.03c25.282-20.226 50.301-62.179 50.301-94.556l-10.3-37.567c0 35.346-28.653 56.791-63.999 56.791z" fill="#425f99"/><path d="m480.003 259.881v44.119l-10.302 16.016 10.302 15.984v64l-10.302 16 10.302 16v48.066c0 17.638-14.298 31.936-31.936 31.936h-160.131c-17.638-.002-31.936-14.3-31.936-31.938v-268.836c0-16.194 3.678-31.936 10.518-46.173s16.843-26.949 29.484-37.056c8.715-6.964 16.174-15.175 22.211-24.271 1.633-2.457 13.462-4.978 14.881-7.556s-7.572-5.213-6.372-7.896c6.047-13.526 9.282-28.32 9.282-43.505v-37.56c0-3.983 3.229-7.211 7.211-7.211h33.574c3.982 0 7.211 3.229 7.211 7.211v69.475c0 3.873.103 7.737.319 11.59.133 2.58-9.987 5.153-9.756 7.718.232 2.586 10.816 5.164 11.147 7.735 3.317 26.342 11.466 51.633 23.797 74.678 15.92 29.753 38.818 55.767 67.336 75.509 1.965 1.36 3.16 3.576 3.16 5.965z" fill="#ffe02f"/><path d="m286.905 480.062v-268.837c0-32.377 14.717-62.998 40-83.224 25.282-20.226 40-50.847 40-83.224v-44.775h-23.694c-3.983 0-7.211 3.229-7.211 7.211v37.564c0 15.182-3.236 29.979-9.28 43.498-1.174 2.626 7.847 5.205 6.464 7.728-1.445 2.637-13.305 5.215-14.972 7.726-6.035 9.091-13.496 17.299-22.212 24.273-25.282 20.226-40 50.847-40 83.224v268.837c0 17.638 14.298 31.936 31.936 31.936h30.905c-17.637-.001-31.936-14.299-31.936-31.937z" fill="#fbc700"/><path d="m256 211.228v268.836c0 17.638-14.298 31.936-31.936 31.936h-160.131c-17.638 0-31.936-14.298-31.936-31.936v-48.066l10.302-16.022-10.302-15.978v-64l10.302-15.984-10.302-16.014v-44.119c0-2.389 1.195-4.605 3.159-5.965 28.518-19.742 51.416-45.756 67.336-75.509 12.331-23.045 20.48-48.336 23.797-74.678.33-2.56 10.912-5.128 11.144-7.703s-9.887-5.159-9.753-7.75c.216-3.853.319-7.716.319-11.59v-69.475c.001-3.982 3.23-7.211 7.212-7.211h33.574c3.983 0 7.211 3.229 7.211 7.211v37.56c0 15.185 3.235 29.978 9.282 43.505 1.174 2.625-7.848 5.203-6.465 7.727 1.445 2.637 13.306 5.215 14.974 7.726 6.037 9.097 13.495 17.307 22.211 24.271 12.64 10.106 22.643 22.818 29.484 37.056 6.84 14.237 10.518 29.978 10.518 46.172z" fill="#ffe02f"/><path d="m62.907 480.062v-220.182c0-2.388 1.195-4.604 3.158-5.964 58.079-40.219 92.841-106.423 92.841-177.23v-76.684h-23.694c-3.983 0-7.211 3.229-7.211 7.211v69.473c0 3.878-.104 7.743-.311 11.59-.139 2.583 9.978 5.159 9.747 7.726-.232 2.585-10.813 5.161-11.137 7.728-7.626 60.361-40.531 115.14-91.141 150.187-1.963 1.359-3.157 3.575-3.157 5.963v44.12l10.302 16.016-10.302 15.984v63.999l10.302 16-10.302 16v48.064c0 17.638 14.298 31.936 31.936 31.936h30.905c-17.638-.001-31.936-14.299-31.936-31.937z" fill="#fbc700"/><path d="m32.002 304h223.998v32h-223.998z" fill="#425f99"/><path d="m32.002 304h30.905v32h-30.905z" fill="#33518e"/><path d="m32.002 399.999h223.998v32h-223.998z" fill="#425f99"/><path d="m32.002 399.999h30.905v32h-30.905z" fill="#33518e"/><g fill="#425f99"><path d="m112.001 325.698h32v84.582h-32z"/><path d="m256 304h223.998v32h-223.998z" transform="matrix(-1 0 0 -1 735.998 639.999)"/><path d="m256 399.999h223.998v32h-223.998z" transform="matrix(-1 0 0 -1 735.998 831.998)"/><path d="m367.999 325.698h32v84.582h-32z" transform="matrix(-1 0 0 -1 767.998 735.977)"/></g><path d="m303.481 295.209v49.613c0 3.983-3.229 7.211-7.211 7.211h-81.57c-3.983 0-7.211-3.229-7.211-7.211v-49.613c0-3.983 3.229-7.211 7.211-7.211h81.57c3.982-.001 7.211 3.228 7.211 7.211z" fill="#c9f0fe"/><path d="m207.489 295.211v49.608c0 3.983 3.229 7.211 7.211 7.211h23.694v-64.03h-23.694c-3.983 0-7.211 3.228-7.211 7.211z" fill="#9be8fd"/><g><g><path d="m303.481 312.289v15.453h-47.996c-4.265 0-7.726-3.461-7.726-7.726s3.461-7.726 7.726-7.726h47.996z" fill="#62ddfc"/></g></g><path d="m303.996 391.17v49.614c0 3.983-3.229 7.211-7.211 7.211h-81.57c-3.983 0-7.211-3.229-7.211-7.211v-49.614c0-3.983 3.229-7.211 7.211-7.211h81.57c3.983 0 7.211 3.228 7.211 7.211z" fill="#c9f0fe"/><path d="m208 391.174v49.608c0 3.983 3.229 7.211 7.211 7.211h23.694v-64.031h-23.694c-3.982 0-7.211 3.229-7.211 7.212z" fill="#9be8fd"/><g><g><path d="m303.996 408.281v15.391c-.175.021-.34.031-.515.031h-47.996c-4.265 0-7.726-3.462-7.726-7.726 0-4.265 3.461-7.726 7.726-7.726h47.996c.175-.001.34.01.515.03z" fill="#62ddfc"/></g></g><g><g><path d="m193.787 103.729h-67.497c.659-5.12 1.123-10.271 1.391-15.453h57.597c2.4 5.367 5.244 10.539 8.509 15.453z" fill="#c9f0fe"/></g></g><path d="m127.69 88.275c-.279 5.185-.743 10.339-1.389 15.453h30.905c.646-5.114 1.111-10.267 1.389-15.453z" fill="#9be8fd"/><g><path d="m385.71 103.729h-67.497c3.266-4.914 6.109-10.086 8.509-15.453h57.597c.268 5.182.732 10.333 1.391 15.453z" fill="#c9f0fe"/></g><path d="m326.719 88.275c-2.401 5.371-5.246 10.54-8.507 15.453h30.905c3.261-4.912 6.106-10.082 8.507-15.453z" fill="#9be8fd"/></g></svg>