<svg id="Capa_1" enable-background="new 0 0 512 512" height="512" viewBox="0 0 512 512" width="512" xmlns="http://www.w3.org/2000/svg"><g><path d="m272.107 53.698h31.969v84.604h-31.969z" fill="#c9f0fe"/><path d="m272.107 53.698h15.453v84.604h-15.453z" fill="#9be8fd"/><path d="m96.061 144c0-5.096 5.322-14.958 9.827-22.394 2.812-4.641 9.533-4.641 12.346 0 4.505 7.435 9.827 17.297 9.827 22.394 0 8.837-7.163 16-16 16s-16-7.163-16-16z" fill="#62ddfc"/><g><g><path d="m120.972 80.123h-17.822c-3.983 0-7.211-3.229-7.211-7.211v-40.912c0-8.904 7.218-16.123 16.123-16.123h154.302v32.246h-130.969c-3.983 0-7.211 3.229-7.211 7.211v17.578c-.001 3.983-3.229 7.211-7.212 7.211z" fill="#c9f0fe"/></g></g><path d="m368.061 202.302h-160v-42.366c0-17.638 14.298-31.936 31.936-31.936h96.128c17.638 0 31.936 14.298 31.936 31.936z" fill="#425f99"/><path d="m270.903 128h-30.906c-17.638 0-31.936 14.298-31.936 31.936v42.366h30.906v-42.366c0-17.638 14.298-31.936 31.936-31.936z" fill="#33518e"/><path d="m384.125 512h-192.128c-17.638 0-31.936-14.298-31.936-31.936v-32.064l10.302-48v-96l-10.302-48v-16.902c0-26.012 21.087-47.098 47.098-47.098h161.804c26.012 0 47.098 21.087 47.098 47.098v16.902l-10.302 48v96l10.302 48v32.064c0 17.638-14.298 31.936-31.936 31.936z" fill="#c9f0fe"/><path d="m190.967 480.064v-240.966c0-26.012 21.087-47.098 47.098-47.098h-30.906c-26.012 0-47.098 21.086-47.098 47.098v16.902l10.302 48v96l-10.302 48v32.064c0 17.638 14.298 31.936 31.936 31.936h30.906c-17.638 0-31.936-14.298-31.936-31.936z" fill="#9be8fd"/><path d="m160.061 256h256v192h-256z" fill="#eb4340"/><path d="m160.061 256h30.906v192h-30.906z" fill="#d42f2e"/><path d="m328.85 336.015h-17.593c-3.983 0-7.211-3.229-7.211-7.211v-17.593c0-3.983-3.229-7.211-7.211-7.211h-17.547c-3.983 0-7.211 3.229-7.211 7.211v17.593c0 3.983-3.229 7.211-7.211 7.211h-17.593c-3.983 0-7.211 3.229-7.211 7.211v17.547c0 3.983 3.229 7.211 7.211 7.211h17.593c3.983 0 7.211 3.229 7.211 7.211v17.593c0 3.983 3.229 7.211 7.211 7.211h17.547c3.983 0 7.211-3.229 7.211-7.211v-17.593c0-3.983 3.229-7.211 7.211-7.211h17.593c3.983 0 7.211-3.229 7.211-7.211v-17.547c0-3.982-3.228-7.211-7.211-7.211z" fill="#c9f0fe"/><path d="m312.85 64h-49.577c-3.983 0-7.211-3.229-7.211-7.211v-49.578c0-3.983 3.229-7.211 7.211-7.211h49.577c3.983 0 7.211 3.229 7.211 7.211v49.577c0 3.983-3.228 7.212-7.211 7.212z" fill="#425f99"/><path d="m256.061 7.211v49.577c0 3.983 3.229 7.211 7.211 7.211h23.694v-63.999h-23.694c-3.982 0-7.211 3.229-7.211 7.211z" fill="#33518e"/></g></svg>