<svg id="Capa_1" enable-background="new 0 0 512 512" height="512" viewBox="0 0 512 512" width="512" xmlns="http://www.w3.org/2000/svg"><g><path d="m302.428 480.105-25.639 10.27h-36.593l-30.809-10.27 2.033-48.739 10.319-7.702-9.682-7.702 2.516-60.312 10.324-7.702-9.677-7.702 2.085-50.218 10.323-7.702-9.676-7.702 1.746-42.012 10.323-7.702-9.676-7.702 1.468-35.265 10.323-7.699-9.676-7.705 1.551-37.33h63.793l1.551 37.33-9.676 7.705 10.323 7.699 1.469 35.265-9.677 7.702 10.324 7.702 1.745 42.012-9.676 7.716 10.323 7.688 2.085 50.218-9.676 7.716 10.323 7.688 2.516 60.312-9.681 7.716 10.318 7.688z" fill="#f4b558"/><path d="m224.008 129.21-1.555 37.328 9.679 7.706-10.321 7.699-1.469 35.265 9.679 7.699-10.321 7.705-1.75 42.012 9.679 7.702-10.321 7.703-2.093 50.217 9.679 7.701-10.321 7.703-2.513 60.312 9.68 7.702-10.321 7.702-2.031 48.735 30.808 10.274v-10.274l14.621-350.891z" fill="#ff9e3e"/><path d="m260.837 108.712c0 7.579-.986 15.291-3.04 22.962-1.027 3.831-4.97 6.11-8.801 5.083l-78.058-20.919-14.88-3.985-20.487-5.494c-1.849-.493-3.42-1.694-4.365-3.348l-17.479-30.264c-1.982-3.44-6.377-4.611-9.818-2.629l-30.263 17.469c-1.653.955-3.615 1.212-5.453.719l-51.809-13.874c-3.204-.873-5.33-3.769-5.33-6.942 0-.616.082-1.243.246-1.869 12.652-47.219 61.185-75.234 108.404-62.582l75.511 20.231c39.548 10.598 65.622 46.356 65.622 85.442z" fill="#88b22d"/><path d="m47.193 74.427c-3.835-1.027-6.111-4.969-5.083-8.804 9.184-34.274 37.274-58.433 70.043-64.263-44.735-7.934-88.873 19.561-100.851 64.263-1.027 3.835 1.248 7.777 5.083 8.804l51.805 13.881c1.842.493 3.804.235 5.455-.718l7.187-4.15z" fill="#7da01f"/><g><g><path d="m179.195 85.03-8.257 30.808-14.88-3.985 8.257-30.808c1.109-4.118 5.33-6.552 9.438-5.453 4.107 1.11 6.551 5.33 5.442 9.438z" fill="#7da01f"/></g></g><path d="m500.946 67.49c0 3.173-2.115 6.069-5.33 6.942l-51.799 13.874c-1.849.493-3.81.236-5.463-.719l-30.264-17.468c-3.43-1.982-7.825-.811-9.818 2.629l-17.468 30.264c-.955 1.653-2.526 2.855-4.365 3.348l-20.498 5.494-14.88 3.985-78.058 20.919c-3.83 1.027-7.774-1.253-8.801-5.083-2.054-7.671-3.04-15.384-3.04-22.962 0-39.085 26.084-74.844 65.622-85.442l75.521-20.231c47.21-12.653 95.743 15.362 108.395 62.581.164.626.246 1.253.246 1.869z" fill="#88b22d"/><path d="m347.598 23.271 75.512-20.233c2.515-.674 5.033-1.232 7.549-1.678-12.374-2.202-25.415-1.79-38.358 1.678l-75.512 20.233c-47.217 12.652-75.237 61.184-62.585 108.401 1.028 3.835 4.969 6.111 8.804 5.083l21.805-5.842c-12.151-46.977 15.821-95.058 62.785-107.642z" fill="#7da01f"/><g><g><path d="m355.942 111.854-14.88 3.985-8.257-30.808c-1.099-4.108 1.335-8.339 5.443-9.438s8.339 1.335 9.438 5.453z" fill="#7da01f"/></g></g><path d="m440.114 512h-368.413c-3.97 0-7.189-3.218-7.189-7.189 0-13.647 11.063-24.711 24.711-24.711h333.369c13.647 0 24.711 11.063 24.711 24.711-.001 3.971-3.219 7.189-7.189 7.189z" fill="#fff3de"/><path d="m95.321 504.811c0-13.647 11.063-24.711 24.711-24.711h-30.809c-13.647 0-24.711 11.063-24.711 24.711 0 3.97 3.218 7.189 7.189 7.189h30.808c-3.97 0-7.188-3.218-7.188-7.189z" fill="#ffe5c2"/><g><g><path d="m300.395 431.366h-88.975l.637-15.404h87.701z" fill="#facf66"/></g></g><g><g><path d="m297.242 355.65h-82.669l.647-15.404h81.375z" fill="#facf66"/></g></g><g><g><g><path d="m294.51 290.028h-77.205l.647-15.404h75.911z" fill="#facf66"/></g></g></g><g><g><g><path d="m292.118 232.612h-72.42l.647-15.404h71.126z" fill="#facf66"/></g></g></g><g><g><g><path d="m290.002 181.943h-68.189l.647-15.404h66.895z" fill="#facf66"/></g></g></g><g fill="#f4b558"><path d="m212.06 415.962-.641 15.404h30.808l.642-15.404z"/><path d="m246.024 340.245h-30.809l-.641 15.404h30.808z"/><path d="m248.758 274.624h-30.808l-.642 15.404h30.808z"/><path d="m251.15 217.205h-30.808l-.642 15.405h30.808z"/><path d="m253.261 166.542h-30.808l-.642 15.404h30.808z"/></g><path d="m438.19 309.571c-1.397 1.397-3.245 2.105-5.083 2.105s-3.677-.709-5.083-2.105l-34.577-34.587-10.896-10.886-15.005-15.014c-1.347-1.348-2.104-3.176-2.104-5.082v-34.938c0-3.97-3.218-7.189-7.189-7.189h-34.947c-1.907 0-3.735-.757-5.083-2.105l-15.003-15.003-10.896-10.896-34.577-34.587c-2.814-2.804-2.814-7.353 0-10.167 17.283-17.273 39.938-25.92 62.582-25.92 22.654 0 45.299 8.647 62.582 25.92l55.28 55.28c34.566 34.567 34.566 90.607-.001 125.174z" fill="#97c232"/><path d="m288.552 129.12c13.349-13.349 29.9-21.542 47.181-24.58-27.466-4.829-56.773 3.364-77.989 24.58-2.807 2.807-2.807 7.359 0 10.166l60.48 60.48c1.348 1.348 3.177 2.105 5.083 2.105h27.831l-62.585-62.585c-2.808-2.807-2.808-7.358-.001-10.166z" fill="#88b22d"/><g><g><path d="m415.998 252.432-22.552 22.552-10.896-10.886 22.562-22.562c2.999-3.009 7.877-3.009 10.886 0s3.009 7.887 0 10.896z" fill="#7da01f"/></g></g><g><g><path d="m325.781 162.205-22.562 22.562-10.896-10.896 22.562-22.562c3.009-2.999 7.887-2.999 10.896 0 2.998 3.009 2.998 7.887 0 10.896z" fill="#7da01f"/></g></g><path d="m253.936 139.284-34.577 34.587-10.896 10.886-15.004 15.014c-1.345 1.345-3.173 2.105-5.083 2.105h-34.947c-3.974 0-7.189 3.214-7.189 7.189v34.947c0 1.9-.76 3.728-2.105 5.073l-15.003 15.014-10.896 10.886-34.577 34.587c-1.407 1.397-3.245 2.105-5.083 2.105-1.849 0-3.677-.709-5.083-2.105-34.567-34.567-34.567-90.607 0-125.174l55.28-55.28c17.273-17.273 39.928-25.92 62.582-25.92 22.644 0 45.298 8.647 62.582 25.92 2.813 2.813 2.813 7.362-.001 10.166z" fill="#97c232"/><path d="m104.297 184.399 55.279-55.279c13.349-13.349 29.9-21.542 47.181-24.58-27.466-4.829-56.773 3.364-77.989 24.58l-55.279 55.279c-34.565 34.565-34.565 90.605 0 125.17 2.807 2.807 7.359 2.807 10.166 0l11.168-11.168c-24.733-34.575-21.575-82.953 9.474-114.002z" fill="#88b22d"/><g><g><path d="m129.132 264.098-10.896 10.886-22.552-22.552c-3.009-3.009-3.009-7.887 0-10.896s7.887-3.009 10.886 0z" fill="#7da01f"/></g></g><g><g><path d="m208.463 184.757-22.562-22.552c-2.999-3.009-2.999-7.887.01-10.896 2.999-3.009 7.877-2.999 10.886 0l22.562 22.562z" fill="#7da01f"/></g></g></g></svg>