<svg id="Capa_1" enable-background="new 0 0 512 512" height="512" viewBox="0 0 512 512" width="512" xmlns="http://www.w3.org/2000/svg"><g><g><g><path d="m32 103.726c-4.267 0-7.726-3.459-7.726-7.726v-64c0-4.268 3.459-7.726 7.726-7.726s7.726 3.459 7.726 7.726v64c0 4.268-3.459 7.726-7.726 7.726z" fill="#425f99"/></g></g><g><g><path d="m96 103.726c-4.267 0-7.726-3.459-7.726-7.726v-64c0-4.268 3.459-7.726 7.726-7.726s7.726 3.459 7.726 7.726v64c.001 4.268-3.459 7.726-7.726 7.726z" fill="#425f99"/></g></g><g><g><path d="m160 103.726c-4.267 0-7.726-3.459-7.726-7.726v-64c0-4.268 3.459-7.726 7.726-7.726s7.726 3.459 7.726 7.726v64c.001 4.268-3.459 7.726-7.726 7.726z" fill="#425f99"/></g></g><g><g><path d="m64 103.726c-4.267 0-7.726-3.459-7.726-7.726v-64c0-4.268 3.459-7.726 7.726-7.726s7.726 3.459 7.726 7.726v64c0 4.268-3.459 7.726-7.726 7.726z" fill="#425f99"/></g></g><g><g><path d="m128 103.726c-4.267 0-7.726-3.459-7.726-7.726v-64c0-4.268 3.459-7.726 7.726-7.726s7.726 3.459 7.726 7.726v64c0 4.268-3.459 7.726-7.726 7.726z" fill="#425f99"/></g></g><path d="m160 32h-128c-8.837 0-16-7.163-16-16 0-8.837 7.163-16 16-16h128c8.837 0 16 7.163 16 16 0 8.837-7.163 16-16 16z" fill="#425f99"/><path d="m46.906 16c0-8.837 7.163-16 16-16h-30.906c-8.837 0-16 7.163-16 16 0 8.836 7.163 16 16 16h30.906c-8.837 0-16-7.163-16-16z" fill="#33518e"/><path d="m191.341 96h176c8.837 0 16 7.163 16 16 0 8.837-7.163 16-16 16h-176l-10.302-7.727v-15.999z" fill="#ffe02f"/><path d="m367.341 112.547h-186.302v7.725l10.302 7.728h176c8.837 0 16-7.164 16-16 0-2.802-.721-5.436-1.986-7.726-2.726 4.933-7.98 8.273-14.014 8.273z" fill="#fbc700"/><path d="m191.341 96h-184.13c-3.982 0-7.211 3.229-7.211 7.212v49.577c0 3.983 3.229 7.211 7.211 7.211 13.691 0 24.789 11.098 24.789 24.789v177.513h72.292l23.708-10.302v-135.871c0-30.999 25.13-56.129 56.129-56.129 3.983 0 7.211-3.229 7.211-7.211v-56.789z" fill="#fff3de"/><path d="m38.117 160c-3.983 0-7.211-3.229-7.211-7.211v-49.577c0-3.983 3.229-7.211 7.211-7.211h-30.906c-3.982-.001-7.211 3.228-7.211 7.211v49.577c0 3.983 3.229 7.211 7.211 7.211 13.691 0 24.789 11.098 24.789 24.789v177.513h30.906v-177.513c0-13.691-11.099-24.789-24.789-24.789z" fill="#ffe5c2"/><path d="m127.606 432c11.582 0 23.163 14.72 32 23.557l.001.001c17.673 17.673 46.326 17.673 63.999 0l.001-.001c17.673-17.673 46.326-17.673 63.999 0l.001.001c17.673 17.673 46.326 17.673 63.999 0l.001-.001c17.673-17.673 46.327-17.673 63.999 0 17.673 17.673 46.327 17.673 64 0 8.836-8.836 20.418-23.557 32-23.557v-48c-11.582 0-23.163 4.418-32 13.255-17.673 17.673-46.327 17.673-64 0-17.673-17.673-46.326-17.673-63.999 0l-.001.001c-17.673 17.673-46.326 17.673-63.999 0l-.001-.001c-17.673-17.673-46.326-17.673-63.999 0l-.001.001c-17.673 17.673-46.326 17.673-63.999 0l-.001-.001c-8.836-8.836-20.418-13.255-32-13.255l-10.302 24.811z" fill="#c9f0fe"/><path d="m128 512h384l-.394-80c-11.582 0-23.163 4.418-32 13.255-17.673 17.673-46.327 17.673-64 0-17.673-17.673-46.326-17.673-63.999 0l-.001.001c-17.673 17.673-46.326 17.673-63.999 0l-.001-.001c-17.673-17.673-46.326-17.673-63.999 0l-.001.001c-17.673 17.673-46.326 17.673-63.999 0l-.001-.001c-8.836-8.836-20.418-13.255-32-13.255l-10.105 40.001z" fill="#9be8fd"/><path d="m128 512h-120.788c-3.983 0-7.212-3.228-7.212-7.211v-145.577c0-3.983 3.229-7.212 7.212-7.212h120.788z" fill="#425f99"/><path d="m0 359.212v145.577c0 3.983 3.229 7.211 7.212 7.211h24.715v-160h-24.715c-3.983 0-7.212 3.229-7.212 7.212z" fill="#33518e"/></g></svg>