<svg id="Capa_1" enable-background="new 0 0 512 512" height="512" viewBox="0 0 512 512" width="512" xmlns="http://www.w3.org/2000/svg"><g><path d="m239.982 126.358h32.05v374.578h-32.05z" fill="#425f99"/><path d="m239.982 126.358h15.477v374.578h-15.477z" fill="#33518e"/><path d="m320.107 158.407h-128.2l-32.05-32.08h192.3z" fill="#fff"/><path d="m352.152 126.332-30.325 10.318h-128.974l-32.997-10.318 76.91-118.553 12.413-6.201c1.713-.846 3.549-1.352 5.407-1.517.949-.083 1.909-.083 2.858.01 1.816.165 3.622.66 5.303 1.486l13.983 6.969z" fill="#fff3de"/><path d="m317.113 158.407h-122.212c-1.917 0-3.755-.762-5.11-2.118l-29.934-29.963h192.299l-29.934 29.963c-1.354 1.357-3.192 2.118-5.109 2.118z" fill="#fed2a4"/><path d="m254.585.061-94.729 126.271-27.539 10.318h-102.916l-24.552-10.318c.495-1.775 1.672-3.374 3.457-4.344l228.46-114.209 12.413-6.201c1.712-.847 3.549-1.352 5.406-1.517z" fill="#eb4340"/><path d="m39.26 121.988 215.325-121.927c-1.857.165-3.694.671-5.407 1.517l-12.413 6.201-228.459 114.209c-1.785.97-2.961 2.569-3.457 4.344h30.954c.495-1.775 1.672-3.374 3.457-4.344z" fill="#d42f2e"/><path d="m159.856 126.332-29.932 29.961c-1.355 1.356-3.193 2.118-5.11 2.118h-90.165c-1.917 0-3.756-.762-5.11-2.119l-22.853-22.882c-2.105-1.94-2.159-5.866-1.837-7.078h46.348z" fill="#d42f2e"/><path d="m37.64 133.41c-2.105-1.94-2.159-5.866-1.837-7.078h-30.954c-.323 1.212-.269 5.138 1.837 7.078l22.853 22.882c1.355 1.356 3.193 2.119 5.11 2.119h30.954c-1.917 0-3.756-.762-5.11-2.119z" fill="#a3262c"/><path d="m257.415.061 94.729 126.271 31.931 10.318h97.505l25.571-10.318c-.495-1.775-1.672-3.374-3.457-4.344l-228.46-114.209-12.413-6.201c-1.712-.847-3.549-1.352-5.406-1.517z" fill="#eb4340"/><path d="m352.144 126.332 29.932 29.961c1.355 1.356 3.193 2.118 5.11 2.118h90.165c1.917 0 3.756-.762 5.11-2.119l22.853-22.882c2.105-1.94 2.159-5.866 1.837-7.078h-46.348z" fill="#d42f2e"/><path d="m304.098 489.955h-96.196v-35.071c0-3.874 3.14-7.014 7.014-7.014h82.167c3.874 0 7.014 3.14 7.014 7.014v35.071z" fill="#fff3de"/><path d="m207.902 454.884v35.071h32.08v-42.085h-25.065c-3.874 0-7.015 3.14-7.015 7.014z" fill="#ffe5c2"/><path d="m345.181 512h-178.362c-3.874 0-7.014-3.14-7.014-7.014v-18.037c0-3.874 3.14-7.014 7.014-7.014h178.363c3.874 0 7.014 3.14 7.014 7.014v18.037c0 3.874-3.141 7.014-7.015 7.014z" fill="#425f99"/><path d="m159.804 486.949v18.037c0 3.874 3.14 7.014 7.014 7.014h23.954v-32.065h-23.954c-3.873 0-7.014 3.14-7.014 7.014z" fill="#33518e"/></g></svg>