<svg id="Capa_1" enable-background="new 0 0 512 512" height="512" viewBox="0 0 512 512" width="512" xmlns="http://www.w3.org/2000/svg"><g><path d="m96 195.864h64v256h-64z" fill="#facf66"/><path d="m96 195.864h30.906v256h-30.906z" fill="#f4b558"/><path d="m224 185.562h64v266.302h-64z" fill="#facf66"/><path d="m224 185.562h30.906v266.302h-30.906z" fill="#f4b558"/><path d="m352 185.562h64v266.302h-64z" fill="#facf66"/><path d="m352 185.562h30.906v266.302h-30.906z" fill="#f4b558"/><path d="m160 195.864h64v256h-64z" fill="#facf66"/><path d="m160 195.864h30.906v256h-30.906z" fill="#f4b558"/><path d="m288 185.562h64v266.302h-64z" fill="#facf66"/><path d="m288 185.562h30.906v266.302h-30.906z" fill="#f4b558"/><path d="m416 185.562h64v276.604h-64z" fill="#facf66"/><path d="m416 185.562h30.906v276.604h-30.906z" fill="#f4b558"/><path d="m32 185.562h64v276.604h-64z" fill="#facf66"/><path d="m32 185.562h30.906v276.604h-30.906z" fill="#f4b558"/><path d="m352 430.166h-192v-67.091c0-3.983 3.229-7.211 7.211-7.211h177.577c3.983 0 7.211 3.229 7.211 7.211v67.091z" fill="#eb4340"/><path d="m190.906 383.808v-27.944h-23.694c-3.983 0-7.211 3.229-7.211 7.211v67.091h192v-30.905h-145.642c-8.535 0-15.453-6.919-15.453-15.453z" fill="#d42f2e"/><g><g><path d="m250.536 105.329c-3.104-2.928-3.017-7.91.001-10.927 5.82-7.025 5.82-14.051 0-21.076-11.833-11.833-11.836-31.09-.006-42.926 3.016-3.019 7.91-3.02 10.927-.003 3.018 3.016 3.019 7.909.003 10.927-5.808 5.811-5.807 15.266.003 21.075 11.3 11.3 12.359 31.835-.001 42.931-2.713 2.435-7.963 2.795-10.927-.001z" fill="#c9f0fe"/></g></g><g><g><path d="m154.537 105.329c-3.1-2.932-3.017-7.91 0-10.927 5.82-7.025 5.82-14.051 0-21.076-11.834-11.833-11.836-31.09-.006-42.926 3.017-3.019 7.908-3.02 10.927-.003 3.018 3.017 3.019 7.909.003 10.927-5.808 5.811-5.807 15.266.002 21.075 12.253 12.252 10.834 30.447.001 42.931-1.964 2.263-7.839 2.92-10.927-.001z" fill="#c9f0fe"/></g></g><g><g><path d="m346.536 105.329c-3.154-2.874-3.017-7.91.001-10.927 5.82-7.025 5.82-14.051 0-21.076-11.833-11.833-11.836-31.09-.006-42.926 3.017-3.019 7.91-3.02 10.927-.003 3.018 3.016 3.019 7.909.003 10.927-5.808 5.812-5.807 15.266.003 21.075 11.771 11.771 11.617 31.133-.001 42.931-2.63 2.67-7.63 3.003-10.927-.001z" fill="#c9f0fe"/></g></g><path d="m504.789 483.864h-497.578c-3.983 0-7.211-3.229-7.211-7.211v-17.577c0-3.983 3.229-7.211 7.211-7.211h497.577c3.983 0 7.211 3.229 7.211 7.211v17.577c.001 3.983-3.228 7.211-7.21 7.211z" fill="#facf66"/><path d="m0 459.076v17.577c0 3.983 3.229 7.211 7.211 7.211h24.789v-32h-24.789c-3.982 0-7.211 3.229-7.211 7.212z" fill="#f4b558"/><path d="m416 483.864h-320v-56.789c0-3.983 3.229-7.211 7.211-7.211h305.577c3.983 0 7.211 3.229 7.211 7.211v56.789z" fill="#eb4340"/><path d="m96 427.076v56.789h30.906v-64h-23.694c-3.983-.001-7.212 3.228-7.212 7.211z" fill="#d42f2e"/><path d="m488.789 195.864h-465.578c-3.983 0-7.211-3.229-7.211-7.211v-17.577c0-3.983 3.229-7.211 7.211-7.211h465.577c3.983 0 7.211 3.229 7.211 7.211v17.577c.001 3.983-3.228 7.211-7.21 7.211z" fill="#f4b558"/><path d="m16 171.076v17.577c0 3.983 3.229 7.211 7.211 7.211h23.694v-32h-23.694c-3.982 0-7.211 3.229-7.211 7.212z" fill="#ff9e3e"/><path d="m103.211 147.864h113.577c3.983 0 7.211 3.229 7.211 7.211v129.593c0 3.983-3.229 7.211-7.211 7.211h-113.577c-3.983 0-7.211-3.229-7.211-7.211v-129.592c0-3.983 3.229-7.212 7.211-7.212z" fill="#c9f0fe"/><path d="m96 155.076v129.593c0 3.983 3.229 7.211 7.211 7.211h23.694v-144.016h-23.694c-3.982 0-7.211 3.229-7.211 7.212z" fill="#9be8fd"/></g></svg>