<svg id="Capa_1" enable-background="new 0 0 512 512" height="512" viewBox="0 0 512 512" width="512" xmlns="http://www.w3.org/2000/svg"><g><g><path d="m192.139 90.526h-32.238v-51.078c0-3.982-3.228-7.21-7.21-7.21h-49.566c-3.982 0-7.21-3.228-7.21-7.21v-17.818c0-3.982 3.228-7.21 7.21-7.21h57.445c17.435 0 31.568 14.134 31.568 31.568v58.958z" fill="#fff3de"/></g><g fill="#ffe5c2"><path d="m111.365 25.028v-17.818c0-3.982 3.228-7.21 7.21-7.21h-15.449c-3.982 0-7.21 3.228-7.21 7.21v17.819c0 3.982 3.228 7.21 7.21 7.21h15.449c-3.983-.001-7.21-3.229-7.21-7.211z"/><path d="m168.14 32.238h-15.449c3.982 0 7.21 3.228 7.21 7.21v51.079h15.449v-51.079c0-3.982-3.228-7.21-7.21-7.21z"/></g><path d="m287.992 160.085-31.75-10.299h-161.298l-30.898 10.299 4.363 95.976 11.754 31.992 3.26 71.709-9.196 24.278 5.504 121.077c.175 3.85 3.348 6.882 7.202 6.882h153.619l31.445-10.299 5.816-117.659-9.197-24.257 3.26-71.73 11.754-31.992z" fill="#eb4340"/><path d="m287.992 160.085-31.75-10.299h-161.298l-30.898 10.299 4.363 95.976 11.754 31.992 3.26 71.73-9.197 24.257 5.504 121.077c.175 3.85 3.348 6.882 7.202 6.882h24.009l-13.544-297.949c-.827-18.184 13.693-33.378 31.895-33.378h157.764z" fill="#d42f2e"/><path d="m277.812 384.041h-203.586l-5.817-127.98h215.221z" fill="#fff3de"/><path d="m68.409 256.061 5.817 127.98h30.898l-5.817-127.98z" fill="#ffe5c2"/><path d="m207.464 448.015h257.033c8.532 0 15.449 6.917 15.449 15.449 0 26.805-21.73 48.535-48.535 48.535h-190.86c-26.805 0-48.535-21.73-48.535-48.535-.001-8.532 6.916-15.449 15.448-15.449z" fill="#facf66"/><path d="m222.914 463.464c0-8.532 6.917-15.449 15.449-15.449h-30.898c-8.532 0-15.449 6.917-15.449 15.449 0 26.805 21.73 48.536 48.536 48.536h30.898c-26.806 0-48.536-21.73-48.536-48.536z" fill="#f4b558"/><path d="m447.954 384.041-32.236-10.299h-160.812l-30.898 10.299c-8.834 0-15.996 7.162-15.996 15.996 0 8.834 7.162 15.996 15.996 15.996l30.898 10.299h160.813l32.236-10.299c8.834 0 15.996-7.162 15.996-15.996-.001-8.834-7.163-15.996-15.997-15.996z" fill="#97c232"/><path d="m238.91 400.037c0-8.834 7.162-15.996 15.996-15.996l-16.42-10.299-14.478 10.299c-8.834 0-15.996 7.162-15.996 15.996 0 8.834 7.162 15.996 15.996 15.996l13.453 10.299 17.445-10.299c-8.835 0-15.996-7.161-15.996-15.996z" fill="#88b22d"/><path d="m447.954 448.026h-30.94l-26.469 25.896c-12.506 12.235-32.53 12.127-44.903-.244l-25.658-25.653h-95.977c-8.834 0-15.996-7.162-15.996-15.996 0-8.834 7.162-15.996 15.996-15.996h223.946c8.834 0 15.996 7.162 15.996 15.996.001 8.835-7.161 15.997-15.995 15.997z" fill="#ffe02f"/><g><g><g><path d="m238.91 432.03c0-8.834 7.162-15.996 15.996-15.996h-30.898c-8.834 0-15.996 7.162-15.996 15.996 0 8.834 7.162 15.996 15.996 15.996h30.898c-8.835 0-15.996-7.162-15.996-15.996z" fill="#fbc700"/></g><g><path d="m376.541 473.678-21.133-21.129c-2.897-2.897-6.826-4.524-10.923-4.524h-24.5l25.658 25.652c10.291 10.289 25.874 12.095 38.023 5.371-2.556-1.413-4.958-3.203-7.125-5.37z" fill="#fbc700"/></g></g></g><path d="m464.497 384.031h-256.909c-8.532 0-15.449-6.917-15.449-15.449 0-44.474 36.054-80.528 80.528-80.528h126.752c44.474 0 80.528 36.053 80.528 80.528-.001 8.532-6.917 15.449-15.45 15.449z" fill="#facf66"/><path d="m223.037 368.582c0-44.474 36.054-80.528 80.528-80.528h-30.898c-44.474 0-80.528 36.054-80.528 80.528 0 8.532 6.917 15.449 15.449 15.449h30.898c-8.532 0-15.449-6.917-15.449-15.449z" fill="#f4b558"/><g><path d="m344.01 327.77h-16.058c-4.267 0-7.725-3.458-7.725-7.725s3.458-7.725 7.725-7.725h16.058c4.267 0 7.725 3.458 7.725 7.725-.001 4.267-3.459 7.725-7.725 7.725z" fill="#ff9e3e"/></g><g><path d="m312.017 359.763h-16.057c-4.267 0-7.725-3.458-7.725-7.725s3.458-7.725 7.725-7.725h16.058c4.267 0 7.725 3.458 7.725 7.725-.001 4.267-3.459 7.725-7.726 7.725z" fill="#ff9e3e"/></g><g><path d="m407.994 327.77h-16.058c-4.267 0-7.725-3.458-7.725-7.725s3.458-7.725 7.725-7.725h16.058c4.267 0 7.725 3.458 7.725 7.725s-3.458 7.725-7.725 7.725z" fill="#ff9e3e"/></g><g><path d="m376.002 359.784h-16.058c-4.267 0-7.725-3.458-7.725-7.725s3.458-7.725 7.725-7.725h16.058c4.267 0 7.725 3.458 7.725 7.725s-3.458 7.725-7.725 7.725z" fill="#ff9e3e"/></g><g><path d="m280.025 327.771h-16.058c-4.267 0-7.725-3.458-7.725-7.725s3.458-7.725 7.725-7.725h16.058c4.267 0 7.725 3.458 7.725 7.725-.001 4.267-3.459 7.725-7.725 7.725z" fill="#ff9e3e"/></g><path d="m287.992 122.395h-223.946v-35.082c0-3.982 3.228-7.21 7.21-7.21h209.527c3.982 0 7.21 3.228 7.21 7.21v35.082z" fill="#c9f0fe"/><path d="m64.046 87.313v35.082h30.898v-42.291h-23.688c-3.982 0-7.21 3.227-7.21 7.209z" fill="#9be8fd"/><path d="m312.775 160.074h-273.512c-3.982 0-7.21-3.228-7.21-7.21v-33.57c0-3.982 3.228-7.21 7.21-7.21h273.512c3.982 0 7.21 3.228 7.21 7.21v33.57c0 3.982-3.228 7.21-7.21 7.21z" fill="#9be8fd"/><path d="m32.054 119.294v33.57c0 3.982 3.228 7.21 7.21 7.21h23.689v-47.99h-23.69c-3.981 0-7.209 3.228-7.209 7.21z" fill="#62ddfc"/></g></svg>