<svg id="Capa_1" enable-background="new 0 0 512 512" height="512" viewBox="0 0 512 512" width="512" xmlns="http://www.w3.org/2000/svg"><g><path d="m53.666 294h404.636v42h-404.636z" fill="#fbc700"/><path d="m53.666 384.001h404.636v32h-404.636z" fill="#425f99"/><path d="m53.666 384.001h30.906v32h-30.906z" fill="#33518e"/><path d="m416.13 64h-320.26c-35.274 0-63.87 28.596-63.87 63.87v138.432h448v-138.432c0-35.274-28.596-63.87-63.87-63.87zm-304.13 144c0 8.836-7.163 16-16 16-8.836 0-16-7.163-16-16v-96c0-8.837 7.163-16 16-16s16 7.163 16 16zm64 0c0 8.836-7.163 16-16 16-8.836 0-16-7.163-16-16v-96c0-8.837 7.163-16 16-16s16 7.163 16 16zm64 0c0 8.836-7.163 16-16 16s-16-7.163-16-16v-96c0-8.837 7.163-16 16-16 8.836 0 16 7.163 16 16zm64 0c0 8.836-7.164 16-16 16-8.837 0-16-7.163-16-16v-96c0-8.837 7.163-16 16-16 8.836 0 16 7.163 16 16zm64.001 0c0 8.836-7.163 16-16 16-8.837 0-16-7.163-16-16v-96c0-8.837 7.163-16 16-16 8.837 0 16 7.163 16 16zm64 0c0 8.836-7.164 16-16 16-8.837 0-16-7.163-16-16v-96c0-8.837 7.163-16 16-16 8.836 0 16 7.163 16 16z" fill="#ffe02f"/><path d="m56.789 448h-17.578c-3.983 0-7.211-3.229-7.211-7.211v-147.091h32v147.091c0 3.982-3.229 7.211-7.211 7.211z" fill="#425f99"/><path d="m59.815 324.604h4.185v-30.906h-32v147.091c0 3.983 3.229 7.211 7.211 7.211h8.242v-111.034c0-6.827 5.535-12.362 12.362-12.362z" fill="#33518e"/><path d="m472.789 448h-17.577c-3.983 0-7.211-3.229-7.211-7.211v-147.091h32v147.091c-.001 3.982-3.23 7.211-7.212 7.211z" fill="#425f99"/><path d="m475.815 324.604h4.185v-30.906h-32v147.091c0 3.983 3.229 7.211 7.211 7.211h8.242v-111.034c0-6.827 5.535-12.362 12.362-12.362z" fill="#33518e"/><path d="m68.057 235.396c-8.534 0-15.453-6.918-15.453-15.453v-92.073c0-35.275 28.596-63.87 63.87-63.87h-20.604c-35.274 0-63.87 28.596-63.87 63.87v138.432h448v-30.906z" fill="#fbc700"/><path d="m488 304h-464c-13.255 0-24-10.745-24-24 0-13.255 10.745-24 24-24h464c13.255 0 24 10.745 24 24 0 13.255-10.745 24-24 24z" fill="#425f99"/><path d="m30.906 280c0-13.255 10.745-24 24-24h-30.906c-13.255 0-24 10.745-24 24 0 13.255 10.745 24 24 24h30.906c-13.255 0-24-10.745-24-24z" fill="#33518e"/></g></svg>