<svg id="Capa_1" enable-background="new 0 0 511.996 511.996" height="512" viewBox="0 0 511.996 511.996" width="512" xmlns="http://www.w3.org/2000/svg"><g><path d="m35.36 122.434 21.964 43.929-20.612 20.612c-6.812 6.812-17.856 6.812-24.668 0-5.66-5.66-6.741-14.445-2.623-21.309z" fill="#eb4340"/><path d="m457.903 367.487-32.405-10h-341.405l-30 10c0 17.155 13.907 31.062 31.062 31.062h341.685c17.156 0 31.063-13.907 31.063-31.062z" fill="#ffe02f"/><path d="m84.093 367.487v-10l-30 10c0 17.155 13.907 31.062 31.062 31.062h30c-17.155 0-31.062-13.907-31.062-31.062z" fill="#fbc700"/><path d="m79.288 320.113 87.857-87.857c36.392-36.392 36.392-95.394 0-131.786-36.392-36.392-95.394-36.392-131.786 0-12.131 12.131-12.131 31.798 0 43.929l21.964 21.964 21.964-21.964c12.131-12.131 31.798-12.131 43.929 0 12.131 12.131 12.131 31.798 0 43.929l-100.185 97.846z" fill="#ffe02f"/><g><g><g><path d="m57.324 166.363 15-15-6.964-6.964c-12.131-12.131-12.131-31.798 0-43.928 14.368-14.367 32.26-23.063 50.893-26.085-28.563-4.636-58.869 4.059-80.893 26.083-12.131 12.13-12.131 31.798 0 43.928z" fill="#fbc700"/></g><g><path d="m53.031 286.174 100.186-97.847c12.131-12.131 12.131-31.798 0-43.928-10.012-10.012-25.159-11.76-36.964-5.245 2.498 1.379 4.846 3.126 6.964 5.245 12.131 12.13 12.131 31.798 0 43.928l-100.186 97.847 56.257 33.939 11.288-11.288z" fill="#fbc700"/></g></g></g><g><g><path d="m57.324 129.934c-1.919 0-3.839-.732-5.303-2.197-2.929-2.929-2.929-7.678 0-10.606l10.982-10.981c2.929-2.928 7.678-2.929 10.606.001 2.929 2.929 2.929 7.678 0 10.606l-10.982 10.981c-1.464 1.463-3.384 2.196-5.303 2.196z" fill="#425f99"/></g></g><path d="m457.903 367.487h-403.81c-25.733 0-46.593-20.861-46.593-46.593 0-25.733 20.861-44.593 46.593-44.593l11.095-2h392.714c25.733 0 46.593 20.861 46.593 46.593.001 25.732-20.859 46.593-46.592 46.593z" fill="#ffe02f"/><path d="m64.32 347.486c-14.608 0-26.728-11.688-26.819-26.296-.001-.099-.001-.198-.001-.296 0-25.733 20.861-46.593 46.593-46.593h-30c-25.732-.001-46.593 20.86-46.593 46.592 0 25.733 20.861 46.593 46.593 46.593h403.81c7.159 0 13.94-1.615 20-4.5v-15.501h-413.583z" fill="#fbc700"/><g><g><path d="m219.633 422.049c-13.805-14.3-37.464-14.055-51.518-.001-20.052 20.051-52.679 20.052-72.731.001-14.053-14.055-37.464-14.056-51.518-.001-9.714 9.714-22.629 15.063-36.366 15.063-4.142 0-7.5-3.357-7.5-7.5s3.358-7.5 7.5-7.5c9.73 0 18.878-3.789 25.759-10.67 19.841-19.841 52.889-19.841 72.731-.001 14.204 14.203 37.315 14.204 51.518.001 19.841-19.841 52.889-19.841 72.731-.001 14.054 14.056 37.464 14.055 51.518.001 19.841-19.841 52.891-19.842 72.731 0 14.204 14.203 37.314 14.202 51.518 0 19.84-19.841 52.89-19.841 72.731-.001 6.881 6.882 16.029 10.671 25.759 10.671 4.142 0 7.5 3.357 7.5 7.5s-3.358 7.5-7.5 7.5c-13.736 0-26.651-5.35-36.365-15.062-14.053-14.055-37.464-14.056-51.518-.001-19.841 19.84-52.89 19.84-72.731 0-14.053-14.054-39.106-15.523-51.518 0-18.866 23.596-52.366 21.096-72.731.001z" fill="#c9f0fe"/></g></g></g></svg>