<svg id="Capa_1" enable-background="new 0 0 512 512" height="512" viewBox="0 0 512 512" width="512" xmlns="http://www.w3.org/2000/svg"><g><g><g fill="#facf66"><path d="m304.513 401.397c-30.54-15.27-66.487-15.27-97.027 0-36.518 18.26-79.486-8.296-79.486-49.125 0-41.768 28.426-78.175 68.947-88.305 38.772-9.693 79.334-9.693 118.106 0 40.52 10.13 68.947 46.538 68.947 88.305 0 40.829-42.968 67.385-79.487 49.125z"/><g><g><ellipse cx="202.188" cy="151.84" rx="32" ry="48" transform="matrix(.966 -.259 .259 .966 -32.41 57.504)"/><ellipse cx="128.375" cy="216.485" rx="25.304" ry="32" transform="matrix(.966 -.259 .259 .966 -51.656 40.603)"/></g><g><ellipse cx="309.812" cy="151.84" rx="48" ry="32" transform="matrix(.259 -.966 .966 .259 82.961 411.796)"/><ellipse cx="383.625" cy="216.485" rx="32" ry="25.304" transform="matrix(.259 -.966 .966 .259 75.227 531.008)"/></g></g></g></g><g fill="#f4b558"><path d="m153.755 352.272c0-41.768 28.426-78.175 68.947-88.306 15.189-3.797 30.653-6.107 46.176-6.929-24.102-1.277-48.347 1.033-71.931 6.929-40.521 10.131-68.947 46.538-68.947 88.306 0 36.535 34.404 61.641 67.807 53.435-23.277-5.694-42.052-26.445-42.052-53.435z"/><path d="m197.033 160.122c-5.89-21.982-.624-43.124 11.784-51.562-6.172-3.523-12.77-4.768-19.053-3.085-17.071 4.574-25.347 29.04-18.486 54.647 6.861 25.606 26.262 42.656 43.333 38.082 2.416-.648 4.656-1.694 6.702-3.085-10.599-6.049-19.944-18.814-24.28-34.997z"/><path d="m129.688 223.034c-3.67-13.697.262-27.2 8.932-33.871-5.664-3.797-12.222-5.277-18.528-3.588-13.499 3.617-20.733 20.388-16.159 37.459s19.225 27.978 32.724 24.361c2.668-.715 5.091-1.944 7.227-3.588-6.46-4.331-11.758-11.676-14.196-20.773z"/><path d="m304.657 143.557c4.336-16.183 13.681-28.948 24.28-34.997-2.046-1.391-4.286-2.438-6.702-3.085-17.071-4.574-36.472 12.476-43.333 38.082s1.415 50.073 18.486 54.647c6.282 1.683 12.88.438 19.053-3.085-12.408-8.438-17.674-29.579-11.784-51.562z"/><path d="m384.938 209.936c2.437-9.096 7.736-16.442 14.196-20.773-2.136-1.643-4.559-2.873-7.227-3.588-13.499-3.617-28.15 7.29-32.724 24.36-4.574 17.071 2.661 33.842 16.159 37.459 6.306 1.69 12.863.21 18.527-3.588-8.669-6.67-12.601-20.173-8.931-33.87z"/></g><path d="m256 0c-141.385 0-256 114.615-256 256s114.615 256 256 256 256-114.615 256-256-114.615-256-256-256zm-224 256c0-123.712 100.288-224 224-224 56.097 0 107.378 20.621 146.676 54.697l-315.979 315.979c-34.076-39.298-54.697-90.579-54.697-146.676zm224 224c-56.097 0-107.378-20.621-146.676-54.697l315.979-315.979c34.076 39.298 54.697 90.579 54.697 146.676 0 123.712-100.288 224-224 224z" fill="#eb4340"/></g></svg>