<svg id="Capa_1" enable-background="new 0 0 512 512" height="512" viewBox="0 0 512 512" width="512" xmlns="http://www.w3.org/2000/svg"><g><path d="m64 373.698h32v116.604h-32z" fill="#425f99"/><path d="m64 373.698h15.453v116.604h-15.453z" fill="#33518e"/><path d="m416 373.698h32v116.604h-32z" fill="#425f99"/><path d="m416 373.698h16.483v116.604h-16.483z" fill="#33518e"/><path d="m96 42.302h-32v-35.091c0-3.982 3.229-7.211 7.211-7.211h17.577c3.983 0 7.212 3.229 7.212 7.211z" fill="#425f99"/><path d="m64 7.211v35.091h16.483v-42.302h-9.272c-3.982 0-7.211 3.229-7.211 7.211z" fill="#33518e"/><path d="m448 42.302h-32v-35.091c0-3.982 3.229-7.211 7.211-7.211h17.577c3.983 0 7.212 3.229 7.212 7.211z" fill="#425f99"/><path d="m416 7.211v35.091h15.453v-42.302h-8.242c-3.982 0-7.211 3.229-7.211 7.211z" fill="#33518e"/><path d="m120.789 512h-81.578c-3.983 0-7.211-3.229-7.211-7.211v-17.577c0-3.983 3.229-7.211 7.211-7.211h81.577c3.983 0 7.211 3.229 7.211 7.211v17.577c.001 3.982-3.228 7.211-7.21 7.211z" fill="#425f99"/><path d="m32 487.211v17.577c0 3.983 3.229 7.211 7.211 7.211h24.789v-32h-24.789c-3.982.001-7.211 3.23-7.211 7.212z" fill="#33518e"/><path d="m472.789 512h-81.577c-3.983 0-7.211-3.229-7.211-7.211v-17.577c0-3.983 3.229-7.211 7.211-7.211h81.577c3.983 0 7.211 3.229 7.211 7.211v17.577c0 3.982-3.229 7.211-7.211 7.211z" fill="#425f99"/><path d="m384 487.211v17.577c0 3.983 3.229 7.211 7.211 7.211h24.789v-32h-24.789c-3.982.001-7.211 3.23-7.211 7.212z" fill="#33518e"/><path d="m504.789 384h-497.578c-3.982 0-7.211-3.229-7.211-7.211v-337.578c0-3.982 3.229-7.211 7.211-7.211h497.577c3.983 0 7.211 3.229 7.211 7.211v337.577c.001 3.983-3.228 7.212-7.21 7.212z" fill="#fff3de"/><path d="m0 39.211v337.577c0 3.983 3.229 7.212 7.211 7.212h33.996v-352h-33.996c-3.982 0-7.211 3.229-7.211 7.211z" fill="#ffe5c2"/><path d="m320 192h-128c-35.346 0-64-28.654-64-64 0-35.346 28.654-64 64-64h128c35.346 0 64 28.654 64 64 0 35.346-28.654 64-64 64z" fill="#c9f0fe"/><path d="m376.789 352h-81.577c-3.983 0-7.211-3.229-7.211-7.211v-113.578c0-3.983 3.229-7.211 7.211-7.211h81.577c3.983 0 7.211 3.229 7.211 7.211v113.577c0 3.983-3.229 7.212-7.211 7.212z" fill="#ff9e3e"/><path d="m224 288h-64c-17.673 0-32-14.327-32-32 0-17.673 14.327-32 32-32h64c17.673 0 32 14.327 32 32 0 17.673-14.327 32-32 32z" fill="#97c232"/><circle cx="320" cy="128" fill="#62ddfc" r="32"/><path d="m168.789 352h-33.577c-3.983 0-7.211-3.229-7.211-7.211v-17.577c0-3.983 3.229-7.211 7.211-7.211h33.577c3.983 0 7.211 3.229 7.211 7.211v17.577c0 3.982-3.229 7.211-7.211 7.211z" fill="#ffe02f"/><path d="m248.789 352h-33.577c-3.983 0-7.211-3.229-7.211-7.211v-17.577c0-3.983 3.229-7.211 7.211-7.211h33.577c3.983 0 7.211 3.229 7.211 7.211v17.577c0 3.982-3.229 7.211-7.211 7.211z" fill="#ffe02f"/><g><path d="m80 71.727h-48c-4.267 0-7.726-3.459-7.726-7.726s3.459-7.726 7.726-7.726h48c4.267 0 7.726 3.459 7.726 7.726s-3.459 7.726-7.726 7.726z" fill="#9be8fd"/></g><g><path d="m80 103.726h-48c-4.267 0-7.726-3.459-7.726-7.726s3.459-7.726 7.726-7.726h48c4.267 0 7.726 3.459 7.726 7.726s-3.459 7.726-7.726 7.726z" fill="#9be8fd"/></g><g><path d="m80 135.726h-48c-4.267 0-7.726-3.459-7.726-7.726s3.459-7.726 7.726-7.726h48c4.267 0 7.726 3.459 7.726 7.726s-3.459 7.726-7.726 7.726z" fill="#9be8fd"/></g><g><path d="m80 167.727h-48c-4.267 0-7.726-3.459-7.726-7.726s3.459-7.726 7.726-7.726h48c4.267 0 7.726 3.459 7.726 7.726s-3.459 7.726-7.726 7.726z" fill="#9be8fd"/></g><g><path d="m80 199.727h-48c-4.267 0-7.726-3.459-7.726-7.726s3.459-7.726 7.726-7.726h48c4.267 0 7.726 3.459 7.726 7.726s-3.459 7.726-7.726 7.726z" fill="#9be8fd"/></g><g><path d="m80 231.726h-48c-4.267 0-7.726-3.459-7.726-7.726s3.459-7.726 7.726-7.726h48c4.267 0 7.726 3.459 7.726 7.726s-3.459 7.726-7.726 7.726z" fill="#9be8fd"/></g><g><path d="m80 263.726h-48c-4.267 0-7.726-3.459-7.726-7.726s3.459-7.726 7.726-7.726h48c4.267 0 7.726 3.459 7.726 7.726s-3.459 7.726-7.726 7.726z" fill="#9be8fd"/></g><g><path d="m80 295.727h-48c-4.267 0-7.726-3.459-7.726-7.726s3.459-7.726 7.726-7.726h48c4.267 0 7.726 3.459 7.726 7.726s-3.459 7.726-7.726 7.726z" fill="#9be8fd"/></g><g><path d="m80 327.726h-48c-4.267 0-7.726-3.459-7.726-7.726s3.459-7.726 7.726-7.726h48c4.267 0 7.726 3.459 7.726 7.726s-3.459 7.726-7.726 7.726z" fill="#9be8fd"/></g><g><path d="m80 359.726h-48c-4.267 0-7.726-3.459-7.726-7.726s3.459-7.726 7.726-7.726h48c4.267 0 7.726 3.459 7.726 7.726s-3.459 7.726-7.726 7.726z" fill="#9be8fd"/></g><g fill="#62ddfc"><path d="m24.274 64.001c0 4.268 3.459 7.726 7.726 7.726h9.207v-15.453h-9.207c-4.267 0-7.726 3.459-7.726 7.727z"/><path d="m24.274 96c0 4.268 3.459 7.726 7.726 7.726h9.207v-15.453h-9.207c-4.267 0-7.726 3.459-7.726 7.727z"/><path d="m24.274 128c0 4.268 3.459 7.726 7.726 7.726h9.207v-15.453h-9.207c-4.267.001-7.726 3.459-7.726 7.727z"/><path d="m24.274 160c0 4.268 3.459 7.726 7.726 7.726h9.207v-15.453h-9.207c-4.267.001-7.726 3.46-7.726 7.727z"/><path d="m24.274 192.001c0 4.268 3.459 7.726 7.726 7.726h9.207v-15.453h-9.207c-4.267 0-7.726 3.459-7.726 7.727z"/><path d="m24.274 224c0 4.268 3.459 7.726 7.726 7.726h9.207v-15.453h-9.207c-4.267 0-7.726 3.459-7.726 7.727z"/><path d="m24.274 256c0 4.268 3.459 7.726 7.726 7.726h9.207v-15.453h-9.207c-4.267.001-7.726 3.459-7.726 7.727z"/><path d="m24.274 288c0 4.268 3.459 7.726 7.726 7.726h9.207v-15.453h-9.207c-4.267.001-7.726 3.46-7.726 7.727z"/><path d="m24.274 320c0 4.268 3.459 7.726 7.726 7.726h9.207v-15.453h-9.207c-4.267 0-7.726 3.459-7.726 7.727z"/><path d="m24.274 352c0 4.268 3.459 7.726 7.726 7.726h9.207v-15.453h-9.207c-4.267 0-7.726 3.459-7.726 7.727z"/></g><g><g><path d="m480 71.727h-48c-4.268 0-7.726-3.459-7.726-7.726s3.459-7.726 7.726-7.726h48c4.268 0 7.726 3.459 7.726 7.726s-3.459 7.726-7.726 7.726z" fill="#9be8fd"/></g><g><g><path d="m480 103.726h-48c-4.268 0-7.726-3.459-7.726-7.726s3.459-7.726 7.726-7.726h48c4.268 0 7.726 3.459 7.726 7.726s-3.459 7.726-7.726 7.726z" fill="#9be8fd"/></g></g><g><g><path d="m480 135.726h-48c-4.268 0-7.726-3.459-7.726-7.726s3.459-7.726 7.726-7.726h48c4.268 0 7.726 3.459 7.726 7.726s-3.459 7.726-7.726 7.726z" fill="#9be8fd"/></g></g><g><g><path d="m480 167.727h-48c-4.268 0-7.726-3.459-7.726-7.726s3.459-7.726 7.726-7.726h48c4.268 0 7.726 3.459 7.726 7.726s-3.459 7.726-7.726 7.726z" fill="#9be8fd"/></g></g><g><g><path d="m480 199.727h-48c-4.268 0-7.726-3.459-7.726-7.726s3.459-7.726 7.726-7.726h48c4.268 0 7.726 3.459 7.726 7.726s-3.459 7.726-7.726 7.726z" fill="#9be8fd"/></g></g><g><path d="m480 231.726h-48c-4.268 0-7.726-3.459-7.726-7.726s3.459-7.726 7.726-7.726h48c4.268 0 7.726 3.459 7.726 7.726s-3.459 7.726-7.726 7.726z" fill="#9be8fd"/></g><g><path d="m480 263.726h-48c-4.268 0-7.726-3.459-7.726-7.726s3.459-7.726 7.726-7.726h48c4.268 0 7.726 3.459 7.726 7.726s-3.459 7.726-7.726 7.726z" fill="#9be8fd"/></g><g><path d="m480 295.727h-48c-4.268 0-7.726-3.459-7.726-7.726s3.459-7.726 7.726-7.726h48c4.268 0 7.726 3.459 7.726 7.726s-3.459 7.726-7.726 7.726z" fill="#9be8fd"/></g><g><g><path d="m480 327.726h-48c-4.268 0-7.726-3.459-7.726-7.726s3.459-7.726 7.726-7.726h48c4.268 0 7.726 3.459 7.726 7.726s-3.459 7.726-7.726 7.726z" fill="#9be8fd"/></g></g><g><path d="m480 359.726h-48c-4.268 0-7.726-3.459-7.726-7.726s3.459-7.726 7.726-7.726h48c4.268 0 7.726 3.459 7.726 7.726s-3.459 7.726-7.726 7.726z" fill="#9be8fd"/></g></g></g></svg>