<svg id="Capa_1" enable-background="new 0 0 512 512" height="512" viewBox="0 0 512 512" width="512" xmlns="http://www.w3.org/2000/svg"><g><path d="m133.71 433.189c11.409 0 22.431 14.501 31.136 23.206l.001.001c17.41 17.41 45.638 17.41 63.048 0l.001-.001c17.41-17.41 45.638-17.41 63.048 0l.001.001c17.41 17.41 45.638 17.41 63.048 0l.001-.001c17.41-17.41 45.638-17.41 63.048 0 17.41 17.41 45.638 17.41 63.048 0 8.705-8.705 20.115-23.206 31.524-23.206v-39.505c0-4.41-3.988-7.822-8.321-7.003-8.501 1.607-16.624 5.7-23.203 12.279-17.41 17.41-45.638 17.41-63.048 0-17.41-17.41-45.638-17.41-63.048 0l-.001.001c-17.41 17.41-45.638 17.41-63.048 0l-.001-.001c-17.41-17.41-45.638-17.41-63.048 0l-.001.001c-17.41 17.41-45.638 17.41-63.048 0l-.001-.001c-8.705-8.705-19.727-13.058-31.136-13.058l-10.149 27.149z" fill="#c9f0fe"/><path d="m307.125 259.806h-204.908v31.524h204.908c8.705 0 15.762-7.057 15.762-15.762 0-8.705-7.057-15.762-15.762-15.762z" fill="#ffe02f"/><path d="m307.125 70.66h-204.908v31.524h204.908c8.705 0 15.762-7.057 15.762-15.762 0-8.705-7.057-15.762-15.762-15.762z" fill="#ffe02f"/><path d="m133.71 512h371.153c3.937 0 7.123-3.202 7.104-7.139l-.353-71.672c-11.409 0-22.819 4.353-31.524 13.058-17.41 17.41-45.638 17.41-63.048 0-17.41-17.41-45.638-17.41-63.048 0l-.001.001c-17.41 17.41-45.638 17.41-63.048 0l-.001-.001c-17.41-17.41-45.638-17.41-63.048 0l-.001.001c-17.41 17.41-45.638 17.41-63.048 0l-.001-.001c-8.705-8.705-19.727-13.058-31.136-13.058l-10.149 39.405z" fill="#9be8fd"/><path d="m102.217 354.379-23.943 10.148h-39.105l-31.524-10.148v-94.573h126.097z" fill="#fff3de"/><path d="m7.645 259.806v94.573l31.524 10.148v-104.721z" fill="#ffe5c2"/><path d="m102.217 165.233v31.524h-94.572v-126.097h126.097z" fill="#fff3de"/><path d="m7.645 70.66h31.524v126.097h-31.524z" fill="#ffe5c2"/><g><g fill="#425f99"><path d="m133.742 0h-126.097c-4.205 0-7.612 3.407-7.612 7.612v63.049c0 4.204 3.407 7.612 7.612 7.612h126.097c4.204 0 7.612-3.407 7.612-7.612v-63.049c-.001-4.205-3.408-7.612-7.612-7.612zm-55.468 15.223h16.332v47.826h-16.332zm-15.224 47.826h-16.27v-47.826h16.27zm-47.794-47.826h16.301v47.826h-16.301zm110.874 47.826h-16.301v-47.826h16.301z"/><path d="m133.742 189.146h-126.097c-4.204 0-7.612 3.407-7.612 7.612v63.048c0 4.204 3.407 7.612 7.612 7.612h126.097c4.204 0 7.612-3.407 7.612-7.612v-63.048c-.001-4.204-3.408-7.612-7.612-7.612zm-55.468 15.223h16.332v47.825h-16.332zm-15.224 47.825h-16.27v-47.825h16.27zm-47.794-47.825h16.301v47.825h-16.301zm110.874 47.825h-16.301v-47.825h16.301z"/></g></g><path d="m133.71 512h-118.992c-3.923 0-7.104-3.181-7.104-7.104v-150.517h118.992c3.924 0 7.104 3.181 7.104 7.104z" fill="#425f99"/><path d="m7.614 354.379v150.517c0 3.923 3.181 7.104 7.104 7.104h24.451v-157.621z" fill="#33518e"/></g></svg>