<svg id="Capa_1" enable-background="new 0 0 512 512" height="512" viewBox="0 0 512 512" width="512" xmlns="http://www.w3.org/2000/svg"><g><path d="m256 231.214v241.579c0 3.983-3.229 7.211-7.211 7.211h-17.06l-7.726-10-7.726 10h-16.545l-7.726-10-7.726 10h-16.555l-7.726-10-7.726 10h-16.545l-7.726-10-7.726 10h-24.275l-10.302-22.087v-116.669l10.302-21.253c8.386 0 16.514-1.071 24.271-3.091 2.621-.687 5.198 8.522 7.727 7.628 2.629-.929 5.206-11.969 7.726-13.119 5.851-2.658 11.394-5.893 16.545-9.643 2.682-1.938 5.262 5.986 7.726 3.784 2.723-2.433 5.304-15.022 7.726-17.753 6.83-7.675 12.455-16.442 16.555-26.012 4.134-9.637 6.732-.085 7.493-11.036.264-3.794 3.387-26.752 7.19-26.752h17.315l7.726 10 7.726-10h17.06c3.984.001 7.213 3.23 7.213 7.213z" fill="#c9f0fe"/><path d="m415.999 319.995 10.302 32.008v90.976l-10.302 37.025h-24.271l-7.727-10-7.725 10h-16.546l-7.726-10-7.726 10h-16.555l-7.726-10-7.726 10h-16.545l-7.726-10-7.726 10h-17.06c-3.983 0-7.211-3.229-7.211-7.211v-241.579c0-3.983 3.229-7.211 7.211-7.211h17.06l7.726 10 7.726-10h17.315c3.804 0 6.926 22.957 7.19 26.752.761 10.951 3.359 1.399 7.493 11.036 4.1 9.57 9.725 18.337 16.555 26.012 2.308 2.601 4.759 15.074 7.34 17.406s5.29-5.476 8.113-3.436c5.151 3.75 10.693 6.985 16.545 9.643 2.472 1.128 4.999 12.15 7.576 13.066s5.204-8.276 7.877-7.575c7.755 2.017 15.883 3.088 24.269 3.088z" fill="#c9f0fe"/><g><path d="m216.276 224.002h15.453v256.002h-15.453z" fill="#425f99"/></g><g><path d="m199.731 224.002v256.002h-15.453v-218.214c4.134-9.637 6.732-20.085 7.493-31.036.264-3.794 3.387-6.752 7.19-6.752z" fill="#425f99"/></g><g><path d="m167.723 287.802v192.202h-15.453v-178.233c5.646-4.079 10.838-8.767 15.453-13.969z" fill="#425f99"/></g><g><path d="m135.725 311.414v168.59h-15.453v-163.099c5.347-1.401 10.509-3.235 15.453-5.491z" fill="#425f99"/></g><g><path d="m280.271 224.002h15.453v256.002h-15.453z" fill="#425f99"/></g><g><path d="m327.722 261.79v218.214h-15.453v-256.002h.77c3.804 0 6.926 2.957 7.19 6.752.761 10.951 3.359 21.398 7.493 31.036z" fill="#425f99"/></g><g><path d="m359.73 301.771v178.233h-15.453v-192.202c4.615 5.202 9.807 9.89 15.453 13.969z" fill="#425f99"/></g><g><path d="m391.727 316.905v163.099h-15.453v-168.59c4.945 2.256 10.107 4.09 15.453 5.491z" fill="#425f99"/></g><path d="m32 85.698h64v404.604h-64z" fill="#425f99"/><path d="m32 85.698h30.906v401.784h-30.906z" fill="#33518e"/><path d="m416 85.698h64v404.604h-64z" fill="#425f99" transform="matrix(-1 0 0 -1 896 576)"/><path d="m416 85.698h30.906v404.604h-30.906z" fill="#33518e"/><g fill="#ffe02f"><path d="m120.789 512h-113.578c-3.982 0-7.211-3.229-7.211-7.211v-17.577c0-3.983 3.229-7.212 7.211-7.212h113.577c3.983 0 7.211 3.229 7.211 7.211v17.577c.001 3.983-3.228 7.212-7.21 7.212z"/><path d="m504.789 512h-113.578c-3.983 0-7.211-3.229-7.211-7.211v-17.577c0-3.983 3.229-7.211 7.211-7.211h113.577c3.983 0 7.211 3.229 7.211 7.211v17.577c.001 3.982-3.228 7.211-7.21 7.211z"/><path d="m0 64h138.302v32.001h-138.302z"/><path d="m504.789 96.001h-131.091v-32.001h131.091c3.983 0 7.211 3.229 7.211 7.211v17.579c0 3.982-3.229 7.211-7.211 7.211z"/></g><path d="m0 487.211v17.577c0 3.983 3.229 7.212 7.211 7.212h24.789v-32h-24.789c-3.982 0-7.211 3.229-7.211 7.211z" fill="#fbc700"/><path d="m384 487.211v17.577c0 3.983 3.229 7.211 7.211 7.211h24.789v-32h-24.789c-3.982.001-7.211 3.23-7.211 7.212z" fill="#fbc700"/><path d="m0 64h32v32.001h-32z" fill="#fbc700"/><path d="m373.698 64h42.302v32.001h-42.302z" fill="#fbc700"/><path d="m320.001 160h-128.002c-35.346 0-63.999-28.653-63.999-63.999v-32.002c0-35.346 28.653-63.999 63.999-63.999h128.002c35.346 0 63.999 28.653 63.999 63.999v32.002c0 35.346-28.653 63.999-63.999 63.999z" fill="#c9f0fe"/><path d="m347.043 117.655c-7.183-7.183-18.829-7.183-26.012 0-7.183 7.183-18.829 7.183-26.012 0-4.498-4.498-10.746-6.179-16.552-5.044-17.803 3.481-35.515-9.422-35.472-27.707.024-10.776 8.733-20.904 19.508-20.904 10.775 0 19.509 4.977 19.509 15.752v.248c7.971-7.971 12.105-20.595 7.19-31.583-5.81-12.99-14.399-15.687-28.64-16.417-29.828 0-45.93 26.255-55.919 50.689-8.38 16.76-25.51 27.346-44.248 27.346h-30.832c6.4 28.592 31.914 49.964 62.436 49.964h128.002c25.678 0 47.812-15.13 58.005-36.955-14.961 3.748-27.373-1.799-30.963-5.389z" fill="#9be8fd"/></g></svg>