<svg id="Capa_1" enable-background="new 0 0 512 512" height="512" viewBox="0 0 512 512" width="512" xmlns="http://www.w3.org/2000/svg"><g><path d="m384 146.181-10 25.486 10 20.337v269.816c0 1.422-.422 2.812-1.216 3.997l-3.925 5.882-24.724 37.087c-1.329 2.009-3.585 3.214-5.996 3.214h-184.279c-2.411 0-4.667-1.205-5.996-3.214l-24.724-37.087-3.925-5.882c-.433-.649-.762-1.36-.958-2.102-.175-.618-.258-1.257-.258-1.895l10-24.486-10-21.336v-269.817c0-1.422.422-2.812 1.216-3.997l3.946-5.913 26.836-40.27 30.906-10.302h129.092l32.008 10.302 26.836 40.27 3.946 5.913c.433.649.752 1.35.958 2.091.175.618.257 1.257.257 1.906z" fill="#eb4340"/><path d="m158.906 144 32-47.999v-10.302l-30.906 10.302-30.789 46.182c-.79 1.185-1.211 2.576-1.211 4v269.815l9.999 21.335-9.999 24.482c0 1.424.421 2.816 1.211 4l28.648 42.972c1.337 2.006 3.589 3.211 6 3.211h27.046l-32-48v-319.998z" fill="#d42f2e"/><path d="m384 146.181v45.823l-255.743 271.711-.258.278v-47.996l255.743-271.722c.176.618.258 1.257.258 1.906z" fill="#ffe02f"/><path d="m158.906 383.161-30.905 32.837v48l30.905-32.837z" fill="#fbc700"/><g><g><path d="m384 146.181v5.543h-256.001v-5.543c0-1.422.422-2.812 1.216-3.997l3.946-5.913h245.679l3.946 5.913c.792 1.185 1.214 2.576 1.214 3.997z" fill="#d42f2e"/></g></g><g><g><path d="m384 456.246v5.573c0 1.422-.422 2.812-1.216 3.997l-3.925 5.882h-245.719l-3.925-5.882c-.793-1.185-1.216-2.575-1.216-3.997v-5.573z" fill="#d42f2e"/></g></g><path d="m158.906 144 5.151-7.726h-30.906l-3.94 5.91c-.79 1.184-1.211 2.576-1.211 4v5.543h30.906z" fill="#a3262c"/><path d="m158.906 456.25h-30.906v5.565c0 1.424.421 2.815 1.211 4l3.925 5.888h30.906l-5.137-7.705v-7.748z" fill="#a3262c"/><circle cx="256" cy="304.062" fill="#c9f0fe" r="64"/><path d="m222.906 304.062c0-30.018 20.666-55.209 48.547-62.121-4.949-1.227-10.125-1.879-15.453-1.879-35.346 0-64 28.654-64 64s28.654 64 64 64c5.328 0 10.504-.651 15.453-1.878-27.881-6.913-48.547-32.104-48.547-62.122z" fill="#9be8fd"/><path d="m240 74.302h-48v-50.302c0-13.255 10.745-24 24-24 13.255 0 24 10.745 24 24z" fill="#c9f0fe"/><path d="m226.302 2.318c-3.122-1.486-6.615-2.318-10.302-2.318-13.255 0-24 10.745-24 24v50.302h20.604v-50.302c0-9.568 5.598-17.827 13.698-21.682z" fill="#9be8fd"/><path d="m368 96h-224c-8.837 0-16-7.163-16-16 0-8.837 7.163-16 16-16h224c8.837 0 16 7.163 16 16-.001 8.836-7.164 16-16 16z" fill="#c9f0fe"/><path d="m158.906 80c0-8.837 7.163-16 16-16h-30.906c-8.837 0-16 7.164-16 16s7.163 16 16 16h30.906c-8.836 0-16-7.164-16-16z" fill="#9be8fd"/></g></svg>