<svg id="Capa_1" enable-background="new 0 0 512 512" height="512" viewBox="0 0 512 512" width="512" xmlns="http://www.w3.org/2000/svg"><g><path d="m149.698 192h92.604v240h-140.604z" fill="#ffe02f"/><path d="m149.698 192-48 240h30.906l48-240z" fill="#fbc700"/><path d="m362.302 192h-92.604v240h140.604z" fill="#ffe02f"/><path d="m269.698 192h30.906v240h-30.906z" fill="#fbc700"/><path d="m320 42.302h-128v-35.302c0-3.866 3.134-7 7-7h114c3.866 0 7 3.134 7 7z" fill="#ffe02f"/><path d="m192 7v35.302h30.906v-42.302h-23.906c-3.866 0-7 3.134-7 7z" fill="#fbc700"/><g><g><path d="m384.123 160.123h-21.944l-10.179-8.123v-72.064c0-8.719-7.217-15.813-15.936-15.813h-160.128c-8.719 0-15.936 7.094-15.936 15.813v72.064l-10.179 8.123h-21.943v-80.187c0-26.499 21.559-48.059 48.058-48.059h160.128c26.499 0 48.059 21.56 48.059 48.059z" fill="#425f99"/></g></g><path d="m191.389 31.878h-15.453c-26.499 0-48.058 21.56-48.058 48.059v80.187h15.453v-80.188c0-26.499 21.559-48.058 48.058-48.058z" fill="#33518e"/><path d="m351.517 64.123h-15.453c8.719 0 15.936 7.094 15.936 15.813v72.064l10.179 8.123h5.151v-80.187c0-8.719-7.094-15.813-15.813-15.813z" fill="#33518e"/><path d="m280 432h-48v-280c0-13.255 10.745-24 24-24 13.255 0 24 10.745 24 24z" fill="#eb4340"/><path d="m266.302 130.318c-3.122-1.486-6.615-2.318-10.302-2.318-13.255 0-24 10.745-24 24v280h20.604v-280c0-9.568 5.598-17.827 13.698-21.682z" fill="#d42f2e"/><path d="m112 432h-48l48-240v-40c0-13.255 10.745-24 24-24 13.255 0 24 10.745 24 24v40z" fill="#ffe02f"/><path d="m132.604 152c0-9.567 5.599-17.827 13.698-21.682-3.122-1.486-6.615-2.318-10.302-2.318-13.255 0-24 10.745-24 24v40l-48 240h20.604l48-240z" fill="#fbc700"/><path d="m400 432h48l-48-240v-40c0-13.255-10.745-24-24-24-13.255 0-24 10.745-24 24v40z" fill="#ffe02f"/><path d="m372.604 152c0-9.567 5.599-17.827 13.698-21.682-3.122-1.486-6.615-2.318-10.302-2.318-13.255 0-24 10.745-24 24v40l48 240h20.604l-48-240z" fill="#fbc700"/><path d="m32 416.38c0-2.065.866-4.054 2.428-5.405 17.779-15.379 44.687-14.626 61.572 2.259v.001c17.673 17.673 46.326 17.673 63.999 0l.001-.001c17.673-17.673 46.326-17.673 63.999 0l.001.001c17.673 17.673 46.326 17.673 63.999 0l.001-.001c17.673-17.673 46.327-17.673 63.999 0 17.673 17.673 46.327 17.673 64 0 16.885-16.885 43.793-17.638 61.572-2.259 1.562 1.351 2.428 3.34 2.428 5.405v50.468l-10.302 34.85h-427.395l-10.302-34.85z" fill="#c9f0fe"/><g><path d="m32 466.849c17.674-17.674 46.327-17.674 64-.001v.001c17.673 17.673 46.326 17.673 63.999 0l.001-.001c17.673-17.673 46.326-17.673 63.999 0l.001.001c17.673 17.673 46.326 17.673 63.999 0l.001-.001c17.673-17.673 46.327-17.673 63.999 0 17.673 17.673 46.327 17.673 64 0 17.673-17.673 46.326-17.673 63.999 0v37.94c0 3.983-3.229 7.211-7.211 7.211h-433.576c-3.983 0-7.211-3.229-7.211-7.211z" fill="#9be8fd"/></g></g></svg>