<svg id="Capa_1" enable-background="new 0 0 512 512" height="512" viewBox="0 0 512 512" width="512" xmlns="http://www.w3.org/2000/svg"><g><path d="m178.826 332.389 45.427 29.903 44.925-29.903v-89.314h-90.352z" fill="#fff3de"/><path d="m209.731 322.087v-79.012h-30.905v89.314l45.427 29.903 15.367-20.531z" fill="#ffe5c2"/><path d="m416.001 399.238v102.452l-64.068 10.302h-312.724c-3.983 0-7.211-3.229-7.211-7.211v-105.543c0-18.585 12.084-35.016 29.814-40.559l59.164-18.502 19.949 3.888-.942-9.833 38.849-12.146 41.55 27.358c2.347 1.545 5.39 1.537 7.728-.019l41.069-27.338 40.692 12.723-3.352 13.33 23.317-7.087 56.351 17.626c17.74 5.542 29.814 21.974 29.814 40.559z" fill="#eb4340"/><path d="m92.72 358.677 96.059-30.039-9.953-6.552-38.843 12.147.942 9.832-19.949-3.888-59.161 18.5c-17.737 5.547-29.812 21.975-29.812 40.559v105.542c0 3.983 3.229 7.211 7.211 7.211h23.694v-112.753c0-18.584 12.075-35.012 29.812-40.559z" fill="#d42f2e"/><g><g><path d="m329.836 341.052-101.412 64.398c-1.267.824-2.72 1.226-4.172 1.226-1.473 0-2.957-.422-4.244-1.267l-99.032-65.232 19.007-5.944 84.321 55.507 85.568-54.93z" fill="#c9f0fe"/></g></g><path d="m309.871 334.809-85.568 54.93-74.367-48.954-19.012 5.945 89.083 58.678c1.288.845 2.771 1.267 4.244 1.267 1.453 0 2.905-.402 4.172-1.226l101.412-64.397z" fill="#c9f0fe"/><path d="m139.983 334.233-19.007 5.944 9.949 6.553 19.011-5.945z" fill="#9be8fd"/><g><g><path d="m103.73 431.997v79.994h-15.453v-79.994c0-4.265 3.462-7.726 7.726-7.726 4.266 0 7.727 3.461 7.727 7.726z" fill="#d42f2e"/></g></g><path d="m224.002 391.532c-13.517 0-24.514 10.997-24.514 24.514 0 .31.006.62.017.927l.773 38.906c.083 4.214 3.525 7.572 7.721 7.572.052 0 .105 0 .157-.002 4.266-.085 7.656-3.612 7.57-7.878l-.329-16.569c2.678 1.007 5.578 1.559 8.604 1.559 13.517 0 24.514-10.997 24.514-24.515.001-13.517-10.996-24.514-24.513-24.514zm0 33.577c-4.868 0-8.851-3.859-9.053-8.68l-.008-.415c.017-4.981 4.076-9.029 9.061-9.029 4.996 0 9.061 4.065 9.061 9.061 0 4.998-4.065 9.063-9.061 9.063z" fill="#ffe02f"/><path d="m448.066 512h-96.128c-17.638 0-31.936-14.298-31.936-31.936v-144.715c0-9.702 4.41-18.877 11.986-24.938l48.064-38.451c11.664-9.331 28.237-9.331 39.9 0l48.064 38.451c7.576 6.061 11.986 15.236 11.986 24.938v144.715c0 17.638-14.298 31.936-31.936 31.936z" fill="#ffe02f"/><path d="m352.002 480.064v-144.715c0-9.702 4.41-18.877 11.986-24.938l48.064-38.451c1.263-1.011 2.584-1.911 3.95-2.703-11.246-6.518-25.55-5.617-35.95 2.703l-48.064 38.451c-7.576 6.061-11.986 15.236-11.986 24.938v144.715c0 17.638 14.298 31.936 31.936 31.936h32c-17.638 0-31.936-14.298-31.936-31.936z" fill="#fbc700"/><path d="m368.002 480.104c-8.837 0-16-7.163-16-16v-96.114c0-8.837 7.163-16 16-16 8.837 0 16 7.163 16 16v96.114c0 8.837-7.163 16-16 16z" fill="#fff3de"/><path d="m432.002 480.104c-8.837 0-16-7.163-16-16v-96.114c0-8.837 7.163-16 16-16 8.837 0 16 7.163 16 16v96.114c0 8.837-7.163 16-16 16z" fill="#fff3de"/><path d="m156.784 146.966h-25.817c-11.89 0-21.528 9.639-21.528 21.528v16.131c0 11.89 9.639 21.528 21.528 21.528h25.817z" fill="#fed2a4"/><path d="m291.22 146.966h25.817c11.89 0 21.528 9.639 21.528 21.528v16.131c0 11.89-9.639 21.528-21.528 21.528h-25.817z" fill="#fed2a4"/><path d="m146.482 127.776v94.068c0 39.545 32.057 69.602 71.602 69.602l11.835 1c3.233 0 6.416.786 9.535.371 35.037-4.662 62.067-34.661 62.067-70.973v-94.068c0-12.11-9.817-21.927-21.927-21.927h-111.184c-12.11 0-21.928 9.817-21.928 21.927z" fill="#fff3de"/><path d="m177.388 221.844v-94.068c0-12.11 9.817-21.927 21.927-21.927h-30.905c-12.11 0-21.927 9.817-21.927 21.927v94.068c0 39.545 32.057 71.602 71.602 71.602h11.835c3.233 0 6.416-.214 9.535-.629-35.037-4.663-62.067-34.661-62.067-70.973z" fill="#ffe5c2"/><path d="m320.043 138.302-96.02-10.302-96.021 10.302v-42.281c0-53.031 42.99-96.021 96.021-96.021 53.031 0 96.021 42.99 96.021 96.021v42.281z" fill="#eb4340"/><path d="m239.476 1.237c-5.031-.813-10.193-1.237-15.453-1.237-53.031 0-96.021 42.99-96.021 96.021v42.281h30.906v-42.281c0-47.771 34.884-87.393 80.568-94.784z" fill="#d42f2e"/><g><g><path d="m190.643 194.171c-4.268 0-7.726-3.459-7.726-7.726v-10.141c0-4.268 3.459-7.726 7.726-7.726s7.726 3.459 7.726 7.726v10.141c0 4.267-3.459 7.726-7.726 7.726z" fill="#425f99"/></g></g><g><g><path d="m257.21 194.171c-4.268 0-7.726-3.459-7.726-7.726v-10.141c0-4.268 3.459-7.726 7.726-7.726 4.268 0 7.726 3.459 7.726 7.726v10.141c.001 4.267-3.458 7.726-7.726 7.726z" fill="#425f99"/></g></g><g><path d="m224.002 255.561c-14.945 0-27.103-12.159-27.103-27.104 0-4.268 3.459-7.726 7.726-7.726s7.726 3.459 7.726 7.726c0 6.425 5.226 11.651 11.65 11.651s11.65-5.226 11.65-11.651c0-4.268 3.459-7.726 7.726-7.726s7.726 3.459 7.726 7.726c.002 14.945-12.156 27.104-27.101 27.104z" fill="#fed2a4"/></g><g fill="#c9f0fe"><path d="m316.711 164.062c-3.338 0-6.7-1.076-9.529-3.297-20.299-15.93-50.617-25.066-83.179-25.066s-62.88 9.136-83.179 25.066c-6.712 5.269-16.427 4.098-21.696-2.617-5.269-6.714-4.097-16.428 2.617-21.696 25.639-20.119 62.91-31.659 102.259-31.659s76.62 11.539 102.259 31.659c6.714 5.269 7.885 14.983 2.617 21.696-3.051 3.885-7.587 5.914-12.169 5.914z"/><path d="m248.023 48.274h-16.274v-16.274c0-4.268-3.459-7.726-7.726-7.726s-7.726 3.459-7.726 7.726v16.274h-16.274c-4.268 0-7.726 3.459-7.726 7.726s3.459 7.726 7.726 7.726h16.274v16.274c0 4.268 3.459 7.726 7.726 7.726s7.726-3.459 7.726-7.726v-16.273h16.274c4.268 0 7.726-3.459 7.726-7.726s-3.458-7.727-7.726-7.727z"/></g></g></svg>