<svg id="Capa_1" enable-background="new 0 0 512 512" height="512" viewBox="0 0 512 512" width="512" xmlns="http://www.w3.org/2000/svg"><g><path d="m287.523 7.611h-63.046c0 17.41 14.113 31.523 31.523 31.523 17.41 0 31.523-14.113 31.523-31.523z" fill="#ffe02f"/><path d="m244.774 7.611h-20.297c0 17.41 14.113 31.523 31.523 31.523 3.551 0 6.964-.587 10.148-1.669-12.43-4.224-21.374-15.994-21.374-29.854z" fill="#fbc700"/><g><g><path d="m366.33 151.463c-4.204 0-7.611-3.407-7.611-7.611v-57.481c0-39.232-31.917-71.148-71.147-71.148h-63.144c-39.231 0-71.147 31.917-71.147 71.148v57.481c0 4.204-3.407 7.611-7.611 7.611s-7.611-3.407-7.611-7.611v-57.481c-.001-47.625 38.744-86.371 86.369-86.371h63.144c47.625 0 86.37 38.746 86.37 86.371v57.481c0 4.204-3.408 7.611-7.612 7.611z" fill="#ffe02f"/></g></g><g fill="#425f99"><path d="m151.283 165.226h57.433v31.523h-57.433z"/><path d="m303.285 165.226h57.433v31.523h-57.433z"/><path d="m137.012 133.703h17.315c3.923 0 7.104 3.18 7.104 7.104v361.024h-31.523v-361.024c0-3.923 3.18-7.104 7.104-7.104z"/></g><path d="m129.908 140.807v361.024h16.237v-368.128h-9.134c-3.923 0-7.103 3.181-7.103 7.104z" fill="#33518e"/><path d="m357.673 133.703h17.315c3.923 0 7.104 3.18 7.104 7.104v361.024h-31.523v-361.024c0-3.923 3.181-7.104 7.104-7.104z" fill="#425f99"/><path d="m350.569 140.807v361.024h15.223v-368.128h-8.119c-3.923 0-7.104 3.181-7.104 7.104z" fill="#33518e"/><path d="m297.012 102.196h-82.026c-3.583 0-6.604 2.668-7.049 6.223l-3.53 28.235 3.628 10.976-5.768 6.145-2.389 19.109 3.737 10.1-5.878 7.018-3.785 30.27c-.53 4.24 2.776 7.985 7.049 7.985h109.968c4.272 0 7.578-3.744 7.049-7.983l-3.775-30.252-6.127-6.033 3.991-11.085-2.385-19.117-5.978-2.838 3.841-14.285-3.524-28.244c-.443-3.555-3.466-6.224-7.049-6.224z" fill="#ffe02f"/><path d="m207.937 108.418-3.53 28.235 3.628 10.976-5.768 6.145-2.389 19.109 3.737 10.1-5.878 7.018-3.785 30.27c-.53 4.24 2.776 7.985 7.049 7.985h22.398l15.762-126.061h-24.174c-3.583.001-6.605 2.669-7.05 6.223z" fill="#fbc700"/><g fill="#c9f0fe"><path d="m224.477 78.276c-4.204 0-7.611-3.408-7.611-7.611 0-4.204 3.408-7.611 7.611-7.611 4.204 0 7.611 3.408 7.611 7.611 0 4.204-3.407 7.611-7.611 7.611z"/><path d="m256 78.276c-4.204 0-7.611-3.408-7.611-7.611 0-4.204 3.408-7.611 7.611-7.611 4.204 0 7.611 3.408 7.611 7.611 0 4.204-3.407 7.611-7.611 7.611z"/><path d="m287.523 78.276c-4.204 0-7.611-3.408-7.611-7.611 0-4.204 3.408-7.611 7.611-7.611 4.204 0 7.611 3.408 7.611 7.611 0 4.204-3.407 7.611-7.611 7.611z"/><path d="m224.477 267.407c-4.204 0-7.611-3.408-7.611-7.611 0-4.204 3.408-7.611 7.611-7.611 4.204 0 7.611 3.408 7.611 7.611 0 4.203-3.407 7.611-7.611 7.611z"/><path d="m240.238 298.93c-4.204 0-7.611-3.408-7.611-7.611 0-4.204 3.408-7.611 7.611-7.611 4.204 0 7.611 3.408 7.611 7.611.001 4.203-3.407 7.611-7.611 7.611z"/><path d="m208.715 298.93c-4.204 0-7.611-3.408-7.611-7.611 0-4.204 3.408-7.611 7.611-7.611 4.204 0 7.611 3.408 7.611 7.611.001 4.203-3.407 7.611-7.611 7.611z"/><path d="m272.301 298.93c-4.204 0-7.611-3.408-7.611-7.611 0-4.204 3.408-7.611 7.611-7.611 4.204 0 7.611 3.408 7.611 7.611 0 4.203-3.408 7.611-7.611 7.611z"/><path d="m303.285 298.93c-4.204 0-7.611-3.408-7.611-7.611 0-4.204 3.408-7.611 7.611-7.611 4.204 0 7.611 3.408 7.611 7.611 0 4.203-3.408 7.611-7.611 7.611z"/><path d="m240.238 330.453c-4.204 0-7.611-3.408-7.611-7.611 0-4.204 3.408-7.611 7.611-7.611 4.204 0 7.611 3.408 7.611 7.611.001 4.203-3.407 7.611-7.611 7.611z"/><path d="m208.715 330.453c-4.204 0-7.611-3.408-7.611-7.611 0-4.204 3.408-7.611 7.611-7.611 4.204 0 7.611 3.408 7.611 7.611.001 4.203-3.407 7.611-7.611 7.611z"/><path d="m272.301 330.453c-4.204 0-7.611-3.408-7.611-7.611 0-4.204 3.408-7.611 7.611-7.611 4.204 0 7.611 3.408 7.611 7.611 0 4.203-3.408 7.611-7.611 7.611z"/><path d="m303.285 330.453c-4.204 0-7.611-3.408-7.611-7.611 0-4.204 3.408-7.611 7.611-7.611 4.204 0 7.611 3.408 7.611 7.611 0 4.203-3.408 7.611-7.611 7.611z"/><path d="m240.238 361.966c-4.204 0-7.611-3.408-7.611-7.611 0-4.204 3.408-7.611 7.611-7.611 4.204 0 7.611 3.408 7.611 7.611.001 4.203-3.407 7.611-7.611 7.611z"/><path d="m208.715 361.966c-4.204 0-7.611-3.408-7.611-7.611 0-4.204 3.408-7.611 7.611-7.611 4.204 0 7.611 3.408 7.611 7.611.001 4.203-3.407 7.611-7.611 7.611z"/><path d="m272.301 361.966c-4.204 0-7.611-3.408-7.611-7.611 0-4.204 3.408-7.611 7.611-7.611 4.204 0 7.611 3.408 7.611 7.611 0 4.203-3.408 7.611-7.611 7.611z"/><path d="m303.285 361.966c-4.204 0-7.611-3.408-7.611-7.611 0-4.204 3.408-7.611 7.611-7.611 4.204 0 7.611 3.408 7.611 7.611 0 4.203-3.408 7.611-7.611 7.611z"/><path d="m256 267.407c-4.204 0-7.611-3.408-7.611-7.611 0-4.204 3.408-7.611 7.611-7.611 4.204 0 7.611 3.408 7.611 7.611 0 4.203-3.407 7.611-7.611 7.611z"/><path d="m287.523 267.407c-4.204 0-7.611-3.408-7.611-7.611 0-4.204 3.408-7.611 7.611-7.611 4.204 0 7.611 3.408 7.611 7.611 0 4.203-3.407 7.611-7.611 7.611z"/></g><path d="m224.476 163.604c7.987 0 15.497-3.111 21.146-8.759 2.777-2.778 6.463-4.307 10.378-4.307 3.916 0 7.601 1.529 10.378 4.307 5.652 5.651 13.16 8.764 21.142 8.764s15.491-3.113 21.143-8.764l1.059-1.059-2.137-17.122c-1.623.201-3.194.924-4.44 2.17l-5.247 5.247c-2.776 2.777-6.462 4.306-10.378 4.306s-7.601-1.529-10.377-4.306c-5.653-5.652-13.161-8.765-21.143-8.765s-15.49 3.113-21.143 8.765c-2.773 2.774-6.461 4.301-10.381 4.301s-7.603-1.526-10.374-4.3l-5.257-5.258c-1.245-1.246-2.815-1.969-4.438-2.171l-2.141 17.121 1.067 1.067c5.646 5.651 13.154 8.763 21.143 8.763z" fill="#eb4340"/><path d="m224.476 204.36c7.987 0 15.496-3.111 21.146-8.759 2.777-2.778 6.463-4.307 10.378-4.307 3.916 0 7.601 1.529 10.378 4.307 5.652 5.651 13.16 8.764 21.142 8.764s15.491-3.113 21.143-8.764l5.58-5.58-2.136-17.118c-1.625.2-3.198.923-4.446 2.171l-9.763 9.763c-2.776 2.777-6.462 4.306-10.378 4.306s-7.601-1.529-10.377-4.306c-5.653-5.652-13.161-8.765-21.143-8.765s-15.49 3.113-21.142 8.765c-2.774 2.774-6.461 4.301-10.382 4.301-3.92 0-7.603-1.526-10.374-4.301l-9.784-9.784c-1.246-1.246-2.817-1.969-4.44-2.17l-2.14 17.118 5.598 5.597c5.643 5.65 13.151 8.762 21.14 8.762z" fill="#eb4340"/><path d="m35.339 417.805c0-2.034.853-3.994 2.392-5.324 17.514-15.15 44.021-14.408 60.654 2.225l.001.001c17.41 17.41 45.636 17.41 63.045 0l.001-.001c17.41-17.41 45.636-17.41 63.045 0l.001.001c17.409 17.409 45.636 17.41 63.045 0l.001-.001c17.41-17.409 45.636-17.409 63.045 0 17.41 17.41 45.636 17.41 63.046 0 16.633-16.633 43.14-17.375 60.654-2.225 1.538 1.331 2.392 3.29 2.392 5.324v49.717l-10.148 34.33h-421.026l-10.148-34.33z" fill="#c9f0fe"/><g><g><path d="m35.339 467.522c17.41-17.41 45.637-17.41 63.046-.001l.001.001c17.41 17.41 45.636 17.41 63.045 0l.001-.001c17.41-17.41 45.636-17.41 63.045 0l.001.001c17.409 17.409 45.636 17.41 63.045 0l.001-.001c17.41-17.409 45.636-17.409 63.045 0 17.41 17.41 45.636 17.41 63.046 0 17.41-17.41 45.636-17.41 63.045 0l.001.001v37.374c0 3.923-3.181 7.104-7.104 7.104h-427.114c-3.923 0-7.104-3.18-7.104-7.104z" fill="#9be8fd"/></g></g></g></svg>