<svg id="Capa_1" enable-background="new 0 0 510.2 510.2" height="512" viewBox="0 0 510.2 510.2" width="512" xmlns="http://www.w3.org/2000/svg"><g><path d="m352.195 97.09c0 50.58-38.66 92.12-88.05 96.68-2.98.28-6 .42-9.05.42-53.62 0-97.09-43.47-97.09-97.1 0-53.62 43.47-97.09 97.09-97.09 3.05 0 6.07.14 9.05.42 49.39 4.56 88.05 46.1 88.05 96.67z" fill="#685e68"/><path d="m264.145 193.77c-2.98.28-6 .42-9.05.42-53.62 0-97.09-43.47-97.09-97.1 0-53.62 43.47-97.09 97.09-97.09 3.05 0 6.07.14 9.05.42-46.05 7.67-81.16 48.04-81.16 96.67 0 48.65 35.11 89.01 81.16 96.68z" fill="#554e56"/><path d="m325.245 187.55-1.28 26.56-7.29 152.08-4.72 98.19c-.31 6.65-13.891-24.578-20.541-24.578l-30.894 2.553-47.745 26.043c-6.65 0-14.231 2.632-14.541-4.018l-12.01-250.27-1.28-26.56c-.23-4.81 2.29-9.09 6.14-11.36l65.095 27.442 62.925-27.442c3.851 2.27 6.371 6.55 6.141 11.36z" fill="#f2fbff"/><path d="m219.925 454.46-3.064 1.938c-6.65 0-18.316 14.632-18.626 7.982l-12.01-250.27-1.28-26.56c-.23-4.81 8.406 3.799 12.256 1.529l6.638 4.085c-3.86 2.27 5.855-10.424 6.085-5.614l1.29 26.78 12 250.05c.311 6.65-9.939-9.92-3.289-9.92z" fill="#dff6fd"/><path d="m277.465 268.15v44.22c0 7.82-4.17 14.67-10.42 18.44-3.24 1.96-7.05 3.09-11.11 3.09h-1.68c-11.89 0-21.53-9.64-21.53-21.53v-44.22c0-11.89 9.64-21.53 21.53-21.53h1.68c4.07 0 7.88 1.13 11.12 3.1 6.24 3.76 10.41 10.61 10.41 18.43z" fill="#eb5569"/><path d="m267.045 330.81c-3.24 1.96-7.05 3.09-11.11 3.09h-1.68c-11.89 0-21.53-9.64-21.53-21.53v-44.22c0-11.89 9.64-21.53 21.53-21.53h1.68c4.07 0 7.88 1.13 11.12 3.1-5.66 4.15-9.35 10.97-9.35 18.68v43.73c0 7.7 3.68 14.51 9.34 18.68z" fill="#e53950"/><path d="m285.535 454.46v47.74c0 4.42-3.58 8-8 8h-44.88c-4.42 0-8-3.58-8-8v-47.74z" fill="#f2fbff"/><path d="m257.955 510.2h-25.3c-4.42 0-8-3.58-8-8v-47.74h24.98v47.43c0 4.59 3.72 8.31 8.32 8.31z" fill="#dff6fd"/><path d="m316.675 366.19-4.72 98.19c-.31 6.65-5.8 11.86-12.45 11.86h-88.82c-6.65 0-12.14-5.21-12.45-11.86l-4.72-98.19z" fill="#678d98"/><path d="m235.665 476.24h-24.98c-6.65 0-12.14-5.21-12.45-11.86l-4.72-98.19h24.98l4.72 98.19c.31 6.65 5.8 11.86 12.45 11.86z" fill="#537983"/><path d="m368.605 92.18v9.83c0 6.63-5.37 12-12 12h-203.01c-6.63 0-12-5.37-12-12v-9.83c0-6.63 5.37-12 12-12h203.01c6.63 0 12 5.37 12 12z" fill="#685e68"/><path d="m179.035 114.01h-25.44c-6.63 0-12-5.37-12-12v-9.83c0-6.63 5.37-12 12-12h25.44c-6.88 0-12.47 5.58-12.47 12.47v8.89c0 6.89 5.59 12.47 12.47 12.47z" fill="#554e56"/><path d="m334.125 188.66v13.2c0 6.1-4.37 11.17-10.16 12.25-.75.14-1.52.22-2.3.22h-133.14c-.78 0-1.55-.08-2.3-.22-5.78-1.08-10.16-6.15-10.16-12.25v-13.2c0-6.89 5.59-12.47 12.46-12.47h133.14c6.88 0 12.46 5.58 12.46 12.47z" fill="#678d98"/><path d="m213.505 214.33h-24.98c-.78 0-1.55-.08-2.3-.22-5.78-1.08-10.16-6.15-10.16-12.25v-13.2c0-6.89 5.59-12.47 12.46-12.47h24.98c-6.88 0-12.46 5.58-12.46 12.47v13.2c0 6.89 5.58 12.47 12.46 12.47z" fill="#537983"/></g></svg>