<svg id="Capa_1" enable-background="new 0 0 510.476 510.476" height="512" viewBox="0 0 510.476 510.476" width="512" xmlns="http://www.w3.org/2000/svg"><g><g><path d="m267.226 510.476c-4.142 0-7.5-3.358-7.5-7.5 0-20.021-2.806-29.767-5.776-40.084-3.127-10.863-6.362-22.097-6.362-44.234 0-22.131 3.234-33.362 6.361-44.224 2.971-10.317 5.777-20.062 5.777-40.084s-2.806-29.768-5.777-40.084c-3.127-10.861-6.361-22.092-6.361-44.224 0-6.119.24-11.573.732-16.673.399-4.123 4.055-7.135 8.187-6.744 4.123.398 7.142 4.064 6.744 8.187-.446 4.615-.663 9.597-.663 15.229 0 20.015 2.806 29.758 5.776 40.074 3.128 10.863 6.362 22.096 6.362 44.235s-3.234 33.372-6.362 44.235c-2.97 10.315-5.776 20.058-5.776 40.073 0 20.021 2.806 29.767 5.776 40.084 3.127 10.863 6.362 22.097 6.362 44.234 0 4.142-3.358 7.5-7.5 7.5z" fill="#dff6fd"/></g><g><path d="m122.909 510.476c-4.142 0-7.5-3.358-7.5-7.5 0-20.021-2.806-29.767-5.776-40.084-3.128-10.863-6.362-22.097-6.362-44.234 0-22.131 3.234-33.362 6.361-44.224 2.97-10.317 5.776-20.062 5.776-40.084 0-6.358-.279-11.942-.854-17.069-.461-4.117 2.502-7.827 6.619-8.289 4.111-.465 7.827 2.502 8.288 6.619.637 5.687.946 11.816.946 18.738 0 22.139-3.234 33.372-6.362 44.235-2.97 10.315-5.775 20.058-5.775 40.073 0 20.021 2.806 29.767 5.776 40.084 3.128 10.863 6.362 22.097 6.362 44.234.001 4.143-3.357 7.501-7.499 7.501z" fill="#dff6fd"/></g><g><path d="m393.636 510.476c-4.142 0-7.5-3.358-7.5-7.5 0-20.021-2.806-29.767-5.776-40.084-3.127-10.863-6.362-22.097-6.362-44.234 0-22.131 3.234-33.362 6.361-44.224 2.971-10.317 5.777-20.062 5.777-40.084 0-20.009-2.802-29.752-5.768-40.067-.761-2.644-1.547-5.378-2.286-8.289-1.019-4.015 1.41-8.096 5.424-9.115 4.016-1.022 8.096 1.41 9.115 5.424.681 2.682 1.4 5.185 2.162 7.833 3.123 10.86 6.353 22.089 6.353 44.212 0 22.139-3.234 33.372-6.362 44.235-2.97 10.315-5.776 20.058-5.776 40.073 0 20.021 2.806 29.767 5.776 40.084 3.127 10.863 6.362 22.097 6.362 44.234 0 4.144-3.358 7.502-7.5 7.502z" fill="#dff6fd"/></g><path d="m143.242 316.446h-40.662c-5.361 0-9.239-5.117-7.787-10.275l8.254-29.453h39.728l8.254 29.453c1.442 5.158-2.436 10.275-7.787 10.275z" fill="#c8effe"/><path d="m126.855 316.446h-24.275c-5.361 0-9.239-5.117-7.787-10.275l8.254-29.453h24.275l-8.254 29.453c-1.452 5.158 2.427 10.275 7.787 10.275z" fill="#99e6fc"/><path d="m202.494 183.698c0 51.211-30.398 93.477-69.679 99.63-3.249.508-6.549.772-9.909.772-43.952 0-79.578-44.957-79.578-100.401 0-55.455 35.626-100.412 79.578-100.412 3.371 0 6.681.264 9.94.772 39.261 6.182 69.648 48.428 69.648 99.639z" fill="#c8effe"/><path d="m132.815 283.327c-3.249.508-6.549.772-9.909.772-43.952 0-79.578-44.957-79.578-100.401 0-55.455 35.626-100.412 79.578-100.412 3.371 0 6.681.264 9.94.772-37.119 8.589-65.242 49.932-65.242 99.64-.001 49.698 28.113 91.03 65.211 99.629z" fill="#99e6fc"/><path d="m277.087 234.086h-40.662c-5.361 0-9.239-5.117-7.787-10.275l8.254-29.453h39.728l8.254 29.453c1.442 5.158-2.436 10.275-7.787 10.275z" fill="#eb5569"/><path d="m260.7 234.086h-24.275c-5.361 0-9.239-5.117-7.787-10.275l8.254-29.453h24.265l-8.254 29.453c-1.442 5.158 2.447 10.275 7.797 10.275z" fill="#e53950"/><path d="m352.929 117.694-81.872 81.873c-.904.904-1.868 1.706-2.883 2.386-7.879 5.411-18.722 4.609-25.717-2.386l-81.872-81.873c-26.306-26.306-27.321-70.339-1.371-96.98 15.735-16.143 37.422-22.854 58.103-20.113 13.27 1.746 26.113 7.371 36.723 16.894 1.553 1.391 3.878 1.391 5.432 0 27.128-24.356 68.998-23.28 94.817 3.219 25.961 26.641 24.946 70.674-1.36 96.98z" fill="#eb5569"/><path d="m268.173 201.952c-7.879 5.411-18.722 4.609-25.717-2.386l-81.872-81.873c-26.306-26.306-27.321-70.339-1.371-96.98 15.736-16.142 37.423-22.853 58.104-20.112-12.437 2.853-24.245 9.27-33.829 19.199-25.951 26.946-24.946 71.466 1.371 98.056l81.862 82.776c.457.468.944.914 1.452 1.32z" fill="#e53950"/><path d="m407.896 284.15h-40.662c-5.351 0-9.229-5.117-7.787-10.275l8.254-29.443v-.01h39.728l8.254 29.453c1.452 5.158-2.426 10.275-7.787 10.275z" fill="#fff0ad"/><path d="m391.509 284.15h-24.275c-5.351 0-9.229-5.117-7.787-10.275l8.254-29.443h24.275l-8.264 29.443c-1.442 5.168 2.437 10.275 7.797 10.275z" fill="#ffe177"/><path d="m467.148 155.371c0 50.957-30.083 93.041-69.06 99.528-3.442.579-6.955.873-10.518.873-43.952 0-79.588-44.947-79.588-100.401s35.636-100.401 79.588-100.401c3.574 0 7.087.294 10.539.873 38.966 6.508 69.039 48.581 69.039 99.528z" fill="#fff0ad"/><path d="m398.089 254.899c-3.442.579-6.955.873-10.518.873-43.952 0-79.588-44.947-79.588-100.401s35.635-100.401 79.587-100.401c3.574 0 7.087.294 10.539.873-37.403 8.254-65.851 49.668-65.851 99.528-.001 49.851 28.438 91.274 65.831 99.528z" fill="#ffe177"/></g></svg>