<svg id="Capa_1" enable-background="new 0 0 507.205 507.205" height="512" viewBox="0 0 507.205 507.205" width="512" xmlns="http://www.w3.org/2000/svg"><g><path d="m393.526 392.226 86.218 29.553v-214.187l-86.218 29.553z" fill="#f2fbff"/><path d="m419.259 237.145v155.081l60.485 20.731v8.822l-86.218-29.553v-155.081l86.218-29.553v8.822z" fill="#dff6fd"/><path d="m44.833 351.213-38.276 28.162c-2.719 2-6.557.059-6.557-3.316v-122.746c0-3.376 3.839-5.317 6.557-3.316l38.275 28.162v73.054z" fill="#554e56"/><path d="m360.115 403.192v48.57c0 4.42-3.58 8-8 8h-236.29c-4.41 0-8-3.58-8-8v-48.57z" fill="#678d98"/><path d="m39.371 273.815h55.837v81.742h-55.837z" fill="#f2fbff"/><path d="m140.795 459.762h-24.97c-4.41 0-8-3.58-8-8v-48.57h24.74v48.33c0 4.55 3.68 8.24 8.23 8.24z" fill="#537983"/><path d="m393.525 218.992v191.39c0 6.63-5.38 12-12 12h-295.1c-6.63 0-12-5.37-12-12v-191.39c0-6.63 5.37-12 12-12h295.1c6.62 0 12 5.37 12 12z" fill="#685e68"/><path d="m111.515 422.382h-25.09c-6.63 0-12-5.37-12-12v-191.39c0-6.63 5.37-12 12-12h25.09c-6.82 0-12.35 5.53-12.35 12.36v190.68c0 6.82 5.53 12.35 12.35 12.35z" fill="#554e56"/><path d="m507.205 197.722v233.93c0 4.42-3.58 8-8 8h-28.94c-4.41 0-8-3.58-8-8v-233.93c0-4.42 3.59-8 8-8h28.94c4.42 0 8 3.58 8 8z" fill="#685e68"/><path d="m495.235 439.652h-24.97c-4.41 0-8-3.58-8-8v-233.93c0-4.42 3.59-8 8-8h24.97c-4.55 0-8.24 3.69-8.24 8.24v233.45c0 4.55 3.69 8.24 8.24 8.24z" fill="#554e56"/><path d="m233.975 127.212c0 40.63-30.37 74.16-69.65 79.14-3.32.42-6.7.64-10.13.64-44.05 0-79.77-35.72-79.77-79.78 0-44.05 35.72-79.77 79.77-79.77 3.44 0 6.83.22 10.16.64 39.26 4.99 69.62 38.52 69.62 79.13z" fill="#685e68"/><path d="m164.325 206.352c-3.32.42-6.7.64-10.13.64-44.05 0-79.77-35.72-79.77-79.78 0-44.05 35.72-79.77 79.77-79.77 3.44 0 6.83.22 10.16.64-37.11 6.91-65.19 39.71-65.19 79.14 0 39.41 28.06 72.21 65.16 79.13z" fill="#554e56"/><path d="m190.225 127.212c0 15.99-10.42 29.55-24.83 34.26-3.53 1.15-7.29 1.77-11.2 1.77-19.89 0-36.02-16.13-36.02-36.03 0-19.89 16.13-36.02 36.02-36.02 3.91 0 7.68.62 11.21 1.78 14.41 4.71 24.82 18.26 24.82 34.24z" fill="#678d98"/><path d="m393.525 127.212c0 40.49-30.16 73.93-69.24 79.09-3.45.46-6.97.69-10.54.69-44.06 0-79.77-35.72-79.77-79.78 0-44.05 35.71-79.77 79.77-79.77 3.57 0 7.09.23 10.54.69 39.08 5.16 69.24 38.6 69.24 79.08z" fill="#685e68"/><path d="m324.285 206.302c-3.45.46-6.97.69-10.54.69-44.06 0-79.77-35.72-79.77-79.78 0-44.05 35.71-79.77 79.77-79.77 3.57 0 7.09.23 10.54.69-37.3 6.74-65.57 39.58-65.57 79.09 0 39.49 28.27 72.34 65.57 79.08z" fill="#554e56"/><path d="m349.775 127.212c0 15.94-10.34 29.45-24.68 34.21-3.57 1.18-7.39 1.82-11.35 1.82-19.9 0-36.02-16.13-36.02-36.03 0-19.89 16.12-36.02 36.02-36.02 3.97 0 7.79.64 11.37 1.83 14.33 4.76 24.66 18.27 24.66 34.19z" fill="#678d98"/><path d="m165.395 161.472c-3.53 1.15-7.29 1.77-11.2 1.77-19.89 0-36.02-16.13-36.02-36.03 0-19.89 16.13-36.02 36.02-36.02 3.91 0 7.68.62 11.21 1.78-13.2 5.48-22.5 18.75-22.5 34.25 0 15.48 9.3 28.77 22.49 34.25z" fill="#537983"/><path d="m325.095 161.422c-3.57 1.18-7.39 1.82-11.35 1.82-19.9 0-36.02-16.13-36.02-36.03 0-19.89 16.12-36.02 36.02-36.02 3.97 0 7.79.64 11.37 1.83-13.28 5.41-22.66 18.69-22.66 34.2 0 15.5 9.37 28.76 22.64 34.2z" fill="#537983"/><circle cx="251.514" cy="253.012" fill="#fff0ad" r="22.602"/><circle cx="322.657" cy="253.012" fill="#eb5569" r="22.602"/><path d="m322.985 318.382v69.15c0 4.41-3.58 8-8 8h-162.03c-4.41 0-8-3.59-8-8v-69.15c0-4.42 3.59-8 8-8h162.03c4.42 0 8 3.58 8 8z" fill="#678d98"/><path d="m177.925 395.532h-24.97c-4.41 0-8-3.59-8-8v-69.15c0-4.42 3.59-8 8-8h24.97c-4.55 0-8.23 3.69-8.23 8.24v68.67c0 4.55 3.68 8.24 8.23 8.24z" fill="#537983"/></g></svg>