<svg id="Capa_1" enable-background="new 0 0 508.02 508.02" height="512" viewBox="0 0 508.02 508.02" width="512" xmlns="http://www.w3.org/2000/svg"><g><path d="m230.79 247.3v256.6c0 2.26-1.82 4.09-4.08 4.12h-180.14c-2.27 0-4.11-1.85-4.11-4.12v-260.97c0-31.69 25.59-57.39 57.15-57.39h.12c1.14 0 2.06-.91 2.06-2.05v-154.7h69.67v154.7c0 1.14.92 2.05 2.05 2.05h.13c31.56 0 57.15 25.7 57.15 61.76z" fill="#eb5569"/><path d="m126.49 28.79v154.7c0 1.14-.92 2.05-2.05 2.05h-.13c-31.56 0-57.15 25.7-57.15 57.39v260.97c0 2.27 1.84 4.12 4.11 4.12h-24.7c-2.27 0-4.11-1.85-4.11-4.12v-260.97c0-31.69 25.59-57.39 57.15-57.39h.12c1.14 0 2.06-.91 2.06-2.05v-154.7z" fill="#e53950"/><path d="m171.46 28.79v84.07l-44.97.38-24.7.21v-84.66z" fill="#685e68"/><path d="m101.79 29.776h69.67v42.914h-69.67z" fill="#554e56"/><path d="m126.49 28.79v84.45l-24.7.2v-84.65z" fill="#554e56"/><path d="m191.78 8v31.48c0 4.41-3.58 8-8 8h-94.31c-4.42 0-8-3.59-8-8v-31.48c0-4.27 3.36-7.77 7.59-7.99.13-.01.27-.01.41-.01h94.31c4.42 0 8 3.59 8 8z" fill="#685e68"/><path d="m114.39 47.48h-24.92c-4.42 0-8-3.59-8-8v-31.48c0-4.27 3.36-7.77 7.59-7.99h25.33c-4.54 0-8.22 3.68-8.22 8.22v31.02c0 4.55 3.68 8.23 8.22 8.23z" fill="#554e56"/><g><path d="m391.67 484.507c-4.139 0-7.495-3.352-7.5-7.491l-.144-125.39c-.005-4.142 3.35-7.504 7.491-7.509h.009c4.139 0 7.495 3.352 7.5 7.491l.144 125.39c.005 4.143-3.35 7.504-7.491 7.509-.003 0-.006 0-.009 0z" fill="#dff6fd"/></g><path d="m188.57 300.98v91.6c0 2.21-1.79 4-4 4h-95.9c-2.21 0-4-1.79-4-4v-91.6c0-2.21 1.79-4 4-4h95.9c2.21 0 4 1.79 4 4z" fill="#f2fbff"/><path d="m113.28 396.58h-24.61c-2.21 0-4-1.79-4-4v-91.6c0-2.21 1.79-4 4-4h24.82c-2.27 0-4.11 1.84-4.11 4.11v91.38c0 2.21 1.73 4 3.9 4.11z" fill="#dff6fd"/><path d="m465.56 277.61c.05 40.83-33 73.96-73.83 74.01-.19 0-.39 0-.58-.01-40.55-.26-73.37-33.19-73.42-73.82l-.04-32.72-.05-50.5c0-1.78 1.43-3.22 3.2-3.23l140.4-.15h1c1.78-.01 3.22 1.43 3.23 3.21l.05 48.65z" fill="#f2fbff"/><path d="m403.48 350.5c-4.01.71-8.13 1.09-12.33 1.11-40.55-.26-73.37-33.19-73.42-73.82l-.04-32.72-.05-50.5c0-1.78 1.43-3.22 3.2-3.23l140.4-.15h.01c.14 0 .26.01.39.03l-116.09.12c-1.77.01-3.21 1.45-3.21 3.23l.09 83.22c.04 36.4 26.39 66.63 61.05 72.71z" fill="#dff6fd"/><path d="m446.628 508.015h-110.058c-5.688 0-9.658-5.634-7.746-10.991l5.196-14.554c1.169-3.274 4.27-5.459 7.746-5.459h99.666c3.476 0 6.577 2.186 7.746 5.459l5.196 14.554c1.913 5.357-2.058 10.991-7.746 10.991z" fill="#f2fbff"/><path d="m362.277 508.015h-25.703c-5.696 0-9.664-5.634-7.752-10.991l5.202-14.558c1.162-3.269 4.267-5.459 7.742-5.459h25.703c-3.475 0-6.58 2.19-7.742 5.459l-5.202 14.558c-1.913 5.357 2.056 10.991 7.752 10.991z" fill="#dff6fd"/><path d="m465.56 277.61c.05 37.59-27.96 68.65-64.27 73.39-3.13.4-6.32.62-9.56.62-40.82.05-73.95-33.01-74-73.83l-.04-32.72c7.37 3.94 14.21 8.14 24.71 10.48 4.78 1.06 10.33 1.74 17.03 1.83 39.06.51 39.32-20.05 78.39-19.54 12.33.16 20.74 2.32 27.7 5.21z" fill="#eb5569"/><path d="m401.29 351c-3.13.4-6.32.62-9.56.62-40.82.05-73.95-33.01-74-73.83l-.04-32.72c7.37 3.94 14.21 8.14 24.71 10.48l.03 21.87c.04 36.27 25.29 66.52 58.86 73.58z" fill="#e53950"/></g></svg>