<svg id="Capa_1" enable-background="new 0 0 509.458 509.458" height="512" viewBox="0 0 509.458 509.458" width="512" xmlns="http://www.w3.org/2000/svg"><g><path d="m500.294 152.888v340.72c0 8.76-7.1 15.85-15.85 15.85h-459.43c-8.75 0-15.85-7.09-15.85-15.85v-340.72z" fill="#ffeee7"/><path d="m50.434 509.458h-25.42c-8.75 0-15.85-7.09-15.85-15.85v-340.72h25.42v340.72c0 8.76 7.1 15.85 15.85 15.85z" fill="#ffe2db"/><path d="m500.294 68.058v84.83h-491.13v-84.83c0-8.75 7.1-15.85 15.85-15.85h459.43c8.75 0 15.85 7.1 15.85 15.85z" fill="#eb5569"/><path d="m50.434 52.208c-8.75 0-15.85 7.1-15.85 15.85v84.83h-25.42v-84.83c0-8.75 7.1-15.85 15.85-15.85z" fill="#e53950"/><path d="m366.544 340.988-108.55 108.55-.28.28c-1.65 1.65-4.33 1.65-5.98 0l-108.83-108.83c-30.44-30.45-32.01-79.83-2.6-111.27 18.14-19.39 43.49-27.62 67.76-24.69 15.83 1.91 31.21 8.58 43.8 20 1.63 1.48 4.09 1.48 5.73 0 31.89-28.92 81.58-27.36 111.55 4.69 29.41 31.44 27.84 80.82-2.6 111.27z" fill="#eb5569"/><path d="m266.934 440.528-8.94 9.01-.28.28c-1.65 1.65-4.33 1.65-5.98 0l-108.83-108.83c-30.44-30.45-32.01-79.83-2.6-111.27 18.14-19.39 43.49-27.62 67.76-24.69-15.65 3.18-30.52 11.14-42.34 23.88-29.41 31.69-27.84 81.49 2.6 112.19z" fill="#e53950"/><g fill="#c68d7a"><path d="m258.373 104.41h-7.295c-8.284 0-15-6.716-15-15v-74.41c0-8.284 6.716-15 15-15h7.295c8.284 0 15 6.716 15 15v74.41c0 8.284-6.715 15-15 15z"/><path d="m168.244 104.41h-7.295c-8.284 0-15-6.716-15-15v-74.41c0-8.284 6.716-15 15-15h7.295c8.284 0 15 6.716 15 15v74.41c0 8.284-6.716 15-15 15z"/><path d="m78.115 104.41h-7.295c-8.284 0-15-6.716-15-15v-74.41c0-8.284 6.716-15 15-15h7.295c8.284 0 15 6.716 15 15v74.41c0 8.284-6.716 15-15 15z"/><path d="m348.503 104.41h-7.295c-8.284 0-15-6.716-15-15v-74.41c0-8.284 6.716-15 15-15h7.295c8.284 0 15 6.716 15 15v74.41c0 8.284-6.716 15-15 15z"/><path d="m148.664 479.32-14.874-31.256c-.209-.438-.562-.792-1-1l-31.256-14.874c-1.318-.627-1.619-2.37-.586-3.403l23.133-23.133c.633-.633 1.595-.798 2.402-.414l32.612 15.519c.438.209.792.562 1 1l15.519 32.612c.384.808.219 1.77-.414 2.402l-23.133 23.133c-1.032 1.033-2.775.733-3.403-.586z"/><path d="m438.632 104.41h-7.295c-8.284 0-15-6.716-15-15v-74.41c0-8.284 6.716-15 15-15h7.295c8.284 0 15 6.716 15 15v74.41c0 8.284-6.716 15-15 15z"/></g><g><path d="m115.223 473.131c-1.919 0-3.839-.732-5.304-2.197-2.929-2.929-2.929-7.678 0-10.606l144.598-144.598c2.93-2.929 7.678-2.929 10.607 0s2.929 7.678 0 10.606l-144.598 144.598c-1.464 1.465-3.384 2.197-5.303 2.197z" fill="#dff6fd"/></g><g><path d="m269.985 351.193c-4.143 0-7.5-3.358-7.5-7.5 0-12.479-10.326-22.631-23.02-22.631-4.143 0-7.5-3.358-7.5-7.5s3.357-7.5 7.5-7.5c20.964 0 38.02 16.881 38.02 37.631 0 4.142-3.357 7.5-7.5 7.5z" fill="#dff6fd"/></g></g></svg>