<svg id="Capa_1" enable-background="new 0 0 504.92 504.92" height="512" viewBox="0 0 504.92 504.92" width="512" xmlns="http://www.w3.org/2000/svg"><g><path d="m389.051 8.032v459.831c0 4.438-3.594 8.032-8.032 8.032h-372.907c-.141 0-.281 0-.412-.01-4.247-.211-7.62-3.725-7.62-8.022v-459.831c0-4.438 3.595-8.032 8.032-8.032h372.907c4.438 0 8.032 3.594 8.032 8.032z" fill="#f2fbff"/><path d="m32.82 475.885h-25.119c-4.247-.211-7.62-3.725-7.62-8.022v-459.831c-.001-4.438 3.594-8.032 8.031-8.032h24.708c-4.518 0-8.182 3.654-8.182 8.172v459.54c0 4.519 3.664 8.173 8.182 8.173z" fill="#dff6fd"/><g><path d="m238.172 217.376h-179.291c-4.159 0-7.53-3.371-7.53-7.53s3.371-7.53 7.53-7.53h179.291c4.159 0 7.53 3.371 7.53 7.53 0 4.158-3.371 7.53-7.53 7.53z" fill="#dff6fd"/></g><g><path d="m238.172 319.617h-179.291c-4.159 0-7.53-3.371-7.53-7.53s3.371-7.53 7.53-7.53h179.291c4.159 0 7.53 3.371 7.53 7.53s-3.371 7.53-7.53 7.53z" fill="#dff6fd"/></g><g><path d="m238.172 421.859h-179.291c-4.159 0-7.53-3.371-7.53-7.53s3.371-7.53 7.53-7.53h179.291c4.159 0 7.53 3.371 7.53 7.53s-3.371 7.53-7.53 7.53z" fill="#dff6fd"/></g><path d="m504.84 182.935v303.914c0 9.99-8.092 18.072-18.072 18.072h-230.523c-9.979 0-18.072-8.082-18.072-18.072v-303.914c0-9.98 8.092-18.072 18.072-18.072h230.523c9.98 0 18.072 8.092 18.072 18.072z" fill="#678d98"/><path d="m279.126 504.92h-22.881c-9.979 0-18.072-8.082-18.072-18.072v-303.913c0-9.98 8.092-18.072 18.072-18.072h22.881c-10.16 0-18.403 8.233-18.403 18.403v303.251c0 10.17 8.242 18.403 18.403 18.403z" fill="#537983"/><path d="m471.849 203.908v57.036c0 2.219-1.797 4.016-4.016 4.016h-192.653c-.07 0-.131 0-.201-.01-2.128-.1-3.815-1.857-3.815-4.006v-57.036c0-2.219 1.797-4.016 4.016-4.016h192.653c2.219 0 4.016 1.797 4.016 4.016z" fill="#c8effe"/><path d="m299.808 264.949h-24.828c-2.128-.1-3.815-1.857-3.815-4.006v-57.036c0-2.219 1.797-4.016 4.016-4.016h24.627c-2.259 0-4.086 1.827-4.086 4.086v56.885c-.001 2.26 1.827 4.087 4.086 4.087z" fill="#99e6fc"/><g fill="#685e68"><path d="m313.622 438.005v35.752c0 2.219-1.797 4.016-4.016 4.016h-33.211c-2.219 0-4.016-1.797-4.016-4.016v-35.752c0-2.219 1.797-4.016 4.016-4.016h33.211c2.219 0 4.016 1.797 4.016 4.016z"/><path d="m392.123 438.005v35.752c0 2.219-1.797 4.016-4.016 4.016h-33.201c-2.219 0-4.016-1.797-4.016-4.016v-35.752c0-2.219 1.797-4.016 4.016-4.016h33.201c2.219 0 4.016 1.797 4.016 4.016z"/><path d="m313.622 367.064v35.752c0 2.219-1.797 4.016-4.016 4.016h-33.211c-2.219 0-4.016-1.797-4.016-4.016v-35.752c0-2.219 1.797-4.016 4.016-4.016h33.211c2.219 0 4.016 1.797 4.016 4.016z"/><path d="m392.123 367.064v35.752c0 2.219-1.797 4.016-4.016 4.016h-33.201c-2.219 0-4.016-1.797-4.016-4.016v-35.752c0-2.219 1.797-4.016 4.016-4.016h33.201c2.219 0 4.016 1.797 4.016 4.016z"/><path d="m473.064 367.064v106.693c0 2.219-1.797 4.016-4.016 4.016h-33.212c-2.219 0-4.016-1.797-4.016-4.016v-106.693c0-2.219 1.797-4.016 4.016-4.016h33.212c2.219 0 4.016 1.797 4.016 4.016z"/><path d="m313.622 296.123v35.762c0 2.219-1.797 4.016-4.016 4.016h-33.211c-2.219 0-4.016-1.797-4.016-4.016v-35.762c0-2.219 1.797-4.016 4.016-4.016h33.211c2.219 0 4.016 1.797 4.016 4.016z"/><path d="m392.123 296.123v35.762c0 2.219-1.797 4.016-4.016 4.016h-33.201c-2.219 0-4.016-1.797-4.016-4.016v-35.762c0-2.219 1.797-4.016 4.016-4.016h33.201c2.219 0 4.016 1.797 4.016 4.016z"/><path d="m473.064 296.123v35.762c0 2.219-1.797 4.016-4.016 4.016h-33.212c-2.219 0-4.016-1.797-4.016-4.016v-35.762c0-2.219 1.797-4.016 4.016-4.016h33.212c2.219 0 4.016 1.797 4.016 4.016z"/></g><g fill="#554e56"><path d="m300.832 477.772h-24.437c-2.219 0-4.016-1.797-4.016-4.016v-35.752c0-2.219 1.797-4.016 4.016-4.016h24.637c-2.259 0-4.096 1.827-4.096 4.086v35.611c0 2.18 1.727 3.987 3.896 4.087z"/><path d="m379.322 477.772h-24.417c-2.219 0-4.016-1.797-4.016-4.016v-35.752c0-2.219 1.797-4.016 4.016-4.016h24.628c-2.259 0-4.096 1.827-4.096 4.086v35.611c0 2.18 1.727 3.977 3.885 4.087z"/><path d="m301.032 406.831h-24.637c-2.219 0-4.016-1.797-4.016-4.016v-35.752c0-2.219 1.797-4.016 4.016-4.016h24.637c-2.259 0-4.096 1.827-4.096 4.086v35.611c0 2.26 1.837 4.087 4.096 4.087z"/><path d="m379.533 406.831h-24.628c-2.219 0-4.016-1.797-4.016-4.016v-35.752c0-2.219 1.797-4.016 4.016-4.016h24.628c-2.259 0-4.096 1.827-4.096 4.086v35.611c0 2.26 1.838 4.087 4.096 4.087z"/><path d="m460.263 477.772h-24.427c-2.219 0-4.016-1.797-4.016-4.016v-106.692c0-2.219 1.797-4.016 4.016-4.016h24.628c-2.259 0-4.086 1.827-4.086 4.086v106.552c0 2.179 1.717 3.986 3.885 4.086z"/><path d="m301.032 335.9h-24.637c-2.219 0-4.016-1.797-4.016-4.016v-35.762c0-2.219 1.797-4.016 4.016-4.016h24.637c-2.259 0-4.096 1.837-4.096 4.096v35.611c0 2.26 1.837 4.087 4.096 4.087z"/><path d="m379.533 335.9h-24.628c-2.219 0-4.016-1.797-4.016-4.016v-35.762c0-2.219 1.797-4.016 4.016-4.016h24.628c-2.259 0-4.096 1.837-4.096 4.096v35.611c0 2.26 1.838 4.087 4.096 4.087z"/><path d="m460.464 335.9h-24.628c-2.219 0-4.016-1.797-4.016-4.016v-35.762c0-2.219 1.797-4.016 4.016-4.016h24.628c-2.259 0-4.086 1.837-4.086 4.096v35.611c0 2.26 1.827 4.087 4.086 4.087z"/></g><g><g><path d="m162.719 129.716c-28.909 0-52.429-23.519-52.429-52.429s23.52-52.429 52.429-52.429 52.429 23.52 52.429 52.429-23.52 52.429-52.429 52.429zm0-89.799c-20.606 0-37.37 16.764-37.37 37.37s16.764 37.369 37.37 37.369 37.37-16.764 37.37-37.369-16.764-37.37-37.37-37.37z" fill="#dff6fd"/></g><g><path d="m226.413 129.716c-28.909 0-52.428-23.519-52.428-52.429s23.519-52.429 52.428-52.429 52.429 23.52 52.429 52.429-23.52 52.429-52.429 52.429zm0-89.799c-20.605 0-37.369 16.764-37.369 37.37s16.764 37.369 37.369 37.369c20.606 0 37.37-16.764 37.37-37.369s-16.764-37.37-37.37-37.37z" fill="#dff6fd"/></g></g><g><path d="m194.566 166.255h-135.68c-4.159 0-7.53-3.371-7.53-7.53s3.371-7.53 7.53-7.53h135.68c4.159 0 7.53 3.371 7.53 7.53s-3.371 7.53-7.53 7.53z" fill="#dff6fd"/></g><g><path d="m194.566 268.497h-135.68c-4.159 0-7.53-3.371-7.53-7.53s3.371-7.53 7.53-7.53h135.68c4.159 0 7.53 3.371 7.53 7.53 0 4.158-3.371 7.53-7.53 7.53z" fill="#dff6fd"/></g><g><path d="m194.566 370.738h-135.68c-4.159 0-7.53-3.371-7.53-7.53s3.371-7.53 7.53-7.53h135.68c4.159 0 7.53 3.371 7.53 7.53s-3.371 7.53-7.53 7.53z" fill="#dff6fd"/></g></g></svg>