<svg id="Capa_1" enable-background="new 0 0 509.82 509.82" height="512" viewBox="0 0 509.82 509.82" width="512" xmlns="http://www.w3.org/2000/svg"><g><path d="m488.48 95.03v339.34h-469.14v-339.34c0-43.27 32.34-79 74.16-84.32 1.38-.17 2.76-.31 4.15-.42 2.24-.17 4.5-.26 6.78-.26h299.06c46.94 0 84.99 38.06 84.99 85z" fill="#f58a97"/><path d="m130.34 10.03c-48.65 0-88.09 39.45-88.09 88.1v336.24h-22.91v-339.34c0-43.27 32.34-79 74.16-84.32 1.38-.18 2.76-.32 4.15-.42 2.24-.17 4.5-.26 6.78-.26h25.91z" fill="#f07281"/><path d="m446.2 96.31v301.78h-382.58v-301.78c0-27.61 22.39-50 50-50h282.58c27.61 0 50 22.39 50 50z" fill="#ffeee7"/><path d="m138.36 46.31c-28.58 0-51.83 23.25-51.83 51.82v299.96h-22.91v-301.78c0-27.61 22.39-50 50-50z" fill="#ffe2db"/><path d="m254.91 151.05h-.68c-72.67.37-131.47 59.39-131.47 132.14 0 72.82 58.89 131.87 131.64 132.15h.51c72.98 0 132.15-59.16 132.15-132.15 0-72.98-59.17-132.14-132.15-132.14zm0 218.49c-47.61 0-86.35-38.74-86.35-86.34 0-47.61 38.74-86.35 86.35-86.35s86.35 38.74 86.35 86.35c0 47.6-38.74 86.34-86.35 86.34z" fill="#fff0ad"/><path d="m266.87 414.7c-4.1.41-8.27.62-12.47.64-72.75-.28-131.64-59.33-131.64-132.15 0-72.75 58.8-131.77 131.47-132.14 4.26.01 8.48.22 12.64.63-66.91 6.51-119.2 62.91-119.2 131.51 0 68.61 52.29 125.01 119.2 131.51z" fill="#ffe177"/><path d="m415.56 282.51v85.86c0 4.41-3.58 8-8 8h-305.3c-4.42 0-8-3.59-8-8v-85.86c0-4.41 3.58-8 8-8h305.3c4.42 0 8 3.59 8 8z" fill="#f58a97"/><path d="m127.46 376.37h-25.2c-4.42 0-8-3.59-8-8v-85.86c0-4.41 3.58-8 8-8h25.2c-4.58 0-8.29 3.71-8.29 8.3v85.26c0 4.59 3.71 8.3 8.29 8.3z" fill="#f07281"/><path d="m305.73 92.98v29.88c0 7.68-6.23 13.91-13.91 13.91h-73.82c-7.68 0-13.91-6.23-13.91-13.91v-29.88c0-7.69 6.23-13.91 13.91-13.91h73.82c7.68 0 13.91 6.22 13.91 13.91z" fill="#c8effe"/><path d="m243.42 136.77h-25.42c-7.68 0-13.91-6.23-13.91-13.91v-29.88c0-7.69 6.23-13.91 13.91-13.91h25.42c-7.97 0-14.42 6.45-14.42 14.42v28.86c0 7.96 6.45 14.42 14.42 14.42z" fill="#99e6fc"/><path d="m509.82 336.2v151.59c0 6.62-5.38 12-12 12h-485.82c-6.62 0-12-5.38-12-12v-151.59c0-6.63 5.38-12 12-12h485.82c6.62 0 12 5.37 12 12z" fill="#eb5569"/><path d="m37.35 499.79h-25.35c-6.62 0-12-5.38-12-12v-151.59c0-6.63 5.38-12 12-12h25.35c-6.87 0-12.43 5.57-12.43 12.44v150.71c0 6.87 5.56 12.44 12.43 12.44z" fill="#e53950"/><path d="m323.01 134.72v19.83c0 8.29-6.71 15-15 15h-106.2c-8.29 0-15-6.71-15-15v-19.83c0-8.28 6.71-15 15-15h106.2c8.29 0 15 6.72 15 15z" fill="#fff0ad"/><path d="m226.26 169.55h-24.45c-8.29 0-15-6.71-15-15v-19.83c0-8.28 6.71-15 15-15h24.45c-8.58 0-15.54 6.97-15.54 15.55v18.74c0 8.58 6.96 15.54 15.54 15.54z" fill="#ffe177"/><g><path d="m136.953 422.381h-85.187c-4.142 0-7.5-3.358-7.5-7.5s3.358-7.5 7.5-7.5h85.188c4.142 0 7.5 3.358 7.5 7.5s-3.358 7.5-7.501 7.5z" fill="#ffeee7"/></g><g><path d="m458.054 422.381h-85.188c-4.142 0-7.5-3.358-7.5-7.5s3.358-7.5 7.5-7.5h85.188c4.142 0 7.5 3.358 7.5 7.5s-3.358 7.5-7.5 7.5z" fill="#ffeee7"/></g><g><g><path d="m222.626 465.009c-29.233 0-53.016-23.783-53.016-53.015 0-29.233 23.783-53.016 53.016-53.016s53.016 23.783 53.016 53.016c-.001 29.232-23.783 53.015-53.016 53.015zm0-91.031c-20.962 0-38.016 17.054-38.016 38.016 0 20.961 17.054 38.015 38.016 38.015s38.016-17.054 38.016-38.015c-.001-20.962-17.054-38.016-38.016-38.016z" fill="#ffeee7"/></g><g><path d="m287.194 465.009c-29.233 0-53.016-23.783-53.016-53.015 0-29.233 23.783-53.016 53.016-53.016s53.016 23.783 53.016 53.016c0 29.232-23.783 53.015-53.016 53.015zm0-91.031c-20.962 0-38.016 17.054-38.016 38.016 0 20.961 17.054 38.015 38.016 38.015s38.016-17.054 38.016-38.015c0-20.962-17.054-38.016-38.016-38.016z" fill="#ffeee7"/></g></g></g></svg>