<svg id="Capa_1" enable-background="new 0 0 505.3 505.3" height="512" viewBox="0 0 505.3 505.3" width="512" xmlns="http://www.w3.org/2000/svg"><g><path d="m360.76 158.555h-216.22v-.01l23.3-90.57c1.42-5.52 6.4-9.38 12.1-9.38h145.42c5.7 0 10.68 3.86 12.1 9.38z" fill="#685e68"/><path d="m204.45 58.595c-5.48.23-10.19 4.03-11.58 9.38l-23.3 90.57h-25.03l23.3-90.57c1.42-5.52 6.4-9.38 12.1-9.38z" fill="#554e56"/><path d="m104.32 98.625v62.5h-78.03v-62.5c0-4.42 3.58-8 8-8h62.03c4.42 0 8 3.58 8 8z" fill="#685e68"/><path d="m59.66 90.625c-4.61 0-8.33 3.73-8.33 8.33v62.17h-25.04v-62.5c0-4.42 3.58-8 8-8z" fill="#554e56"/><path d="m505.3 153.095v281.11c0 6.89-5.61 12.5-12.5 12.5h-480.3c-6.89 0-12.5-5.61-12.5-12.5v-281.11c0-6.9 5.61-12.5 12.5-12.5h480.3c6.89 0 12.5 5.6 12.5 12.5z" fill="#dff6fd"/><path d="m37.54 446.705h-25.04c-6.89 0-12.5-5.61-12.5-12.5v-281.11c0-6.9 5.61-12.5 12.5-12.5h25.04c-6.9 0-12.5 5.6-12.5 12.5v281.11c0 6.89 5.6 12.5 12.5 12.5z" fill="#c8effe"/><path d="m0 189.805h505.3v207.69h-505.3z" fill="#678d98"/><path d="m378.93 293.645c0 68.07-53.85 123.55-121.26 126.18-1.66.07-3.34.1-5.02.1-69.74 0-126.28-56.53-126.28-126.28 0-69.74 56.54-126.28 126.28-126.28 1.7 0 3.39.03 5.07.1 67.39 2.66 121.21 58.14 121.21 126.18z" fill="#685e68"/><path d="m257.67 419.825c-1.66.07-3.34.1-5.02.1-69.74 0-126.28-56.53-126.28-126.28 0-69.74 56.54-126.28 126.28-126.28 1.7 0 3.39.03 5.07.1-60.26 9.66-106.32 62.48-106.32 126.18 0 63.68 46.04 116.49 106.27 126.18z" fill="#554e56"/><path d="m350.75 293.645c0 53.96-43.57 97.76-97.45 98.1-.22.01-.43.01-.65.01h-.34c-54.02-.18-97.76-44.04-97.76-98.11s43.74-97.92 97.76-98.1h.34c.22 0 .43 0 .65.01 53.88.34 97.45 44.13 97.45 98.09z" fill="#c8effe"/><path d="m264.67 390.885c-3.73.5-7.52.79-11.37.86-.33 0-.66.01-.99.01-54.02-.18-97.76-44.04-97.76-98.11s43.74-97.92 97.76-98.1c.33 0 .66.01.99.01 3.85.07 7.64.35 11.37.85-48.02 6.37-85.09 47.48-85.09 97.24s37.07 90.88 85.09 97.24z" fill="#99e6fc"/><path d="m300.68 299.095-42.28 42.28-5.27 5.27c-.26.27-.7.27-.96 0l-47.55-47.55c-13.33-13.32-13.72-35.03-.49-48.45 9.56-9.71 23.46-12.48 35.51-8.33 4.55 1.57 8.84 4.13 12.53 7.68.27.25.69.25.96 0 13.44-12.94 34.86-12.73 48.04.65 13.23 13.42 12.84 35.13-.49 48.45z" fill="#eb5569"/><path d="m264.67 334.975-6.27 6.4-5.27 5.27c-.26.27-.7.27-.96 0l-47.55-47.55c-13.33-13.32-13.72-35.03-.49-48.45 9.56-9.71 23.46-12.48 35.51-8.33-3.81 1.72-7.37 4.2-10.48 7.41-13.22 13.71-12.84 35.88.49 49.49z" fill="#e53950"/><circle cx="65.305" cy="189.801" fill="#eb5569" r="19.719"/><path d="m471.91 174.085v31.43c0 2.21-1.79 4-4 4h-90.45c-2.21 0-4-1.79-4-4v-31.43c0-2.21 1.79-4 4-4h90.45c2.21 0 4 1.79 4 4z" fill="#c8effe"/><path d="m402.66 209.515h-25.2c-2.21 0-4-1.79-4-4v-31.43c0-2.21 1.79-4 4-4h24.99c-2.2.1-3.95 1.93-3.95 4.16v31.11c0 2.3 1.86 4.16 4.16 4.16z" fill="#99e6fc"/><path d="m0 189.805h25.04v207.69h-25.04z" fill="#537983"/></g></svg>