<svg id="Capa_1" enable-background="new 0 0 495.329 495.329" height="512" viewBox="0 0 495.329 495.329" width="512" xmlns="http://www.w3.org/2000/svg"><g><path d="m495.329 87.157v303.26c0 1.005-.115 1.988-.345 2.92-1.308 5.525-6.278 9.637-12.212 9.637h-470.215c-5.933 0-10.904-4.112-12.212-9.637-.23-.932-.345-1.915-.345-2.92v-303.26c0-6.928 5.619-12.557 12.557-12.557h470.215c5.933 0 10.904 4.123 12.212 9.648.23.931.345 1.904.345 2.909z" fill="#ffeee7"/><path d="m38.717 402.974h-26.16c-6.938 0-12.557-5.619-12.557-12.557v-303.25c0-1.005.115-1.988.345-2.919 1.308-5.525 6.278-9.637 12.212-9.637h26.16c-5.483 0-10.129 3.505-11.845 8.392-.46 1.298-.712 2.7-.712 4.165v303.25c0 6.937 5.619 12.556 12.557 12.556z" fill="#ffe2db"/><path d="m170.388 377.582c-14.631-13.218-37.326-12.591-51.191 1.881-13.696 14.294-12.958 37.905 1.041 51.904l50.044 50.044c.817.817 2.142.817 2.96 0l50.044-50.044c13.999-13.999 14.737-37.61 1.041-51.904-13.866-14.472-36.561-15.098-51.191-1.881-.777.701-1.972.701-2.748 0z" fill="#eb5569"/><path d="m223.283 431.363-41.731 41.741-8.309 8.309c-.816.816-2.145.816-2.961 0l-50.05-50.05c-13.991-13.991-14.733-37.608-1.036-51.902 9.993-10.433 24.58-13.677 37.43-9.7 4.97 1.517 9.679 4.133 13.76 7.817.774.701 1.967.701 2.752 0 14.629-13.216 37.325-12.588 51.19 1.884 13.699 14.293 12.956 37.911-1.045 51.901z" fill="#eb5569"/><path d="m183.792 470.813-2.239 2.292-8.309 8.309c-.816.816-2.145.816-2.961 0l-50.05-50.05c-13.991-13.991-14.733-37.608-1.036-51.902 9.993-10.433 24.58-13.677 37.43-9.7-4.51 1.936-8.706 4.824-12.316 8.675-13.697 14.618-12.955 38.759 1.036 53.074z" fill="#e53950"/><path d="m398.41 69.012-32.753 32.763-11.04 11.029c-.816.816-2.145.816-2.961 0l-43.792-43.792c-12.463-12.463-13.227-32.774-1.109-45.582 9.25-9.774 23.052-12.473 34.814-8.089 3.662 1.36 7.126 3.411 10.192 6.142.785.701 1.967.701 2.752 0 12.923-11.521 32.868-10.872 45.006 1.946 12.118 12.809 11.354 33.12-1.109 45.583z" fill="#eb5569"/><path d="m365.658 101.775-11.04 11.029c-.816.816-2.145.816-2.961 0l-43.792-43.792c-12.463-12.463-13.227-32.774-1.109-45.582 9.25-9.774 23.052-12.473 34.814-8.089-3.537 1.695-6.823 4.06-9.679 7.084-12.431 13.122-11.647 33.946 1.141 46.722z" fill="#e53950"/><g><path d="m188.375 287.513-174.175 115.461h-1.643c-5.933 0-10.904-4.112-12.212-9.637l179.365-118.904c3.61-2.396 8.476-1.413 10.872 2.197 2.397 3.621 1.413 8.487-2.207 10.883z" fill="#f58a97"/></g><g><path d="m494.984 84.248-136.326 90.368c-1.329.879-2.836 1.308-4.322 1.308-2.543 0-5.044-1.235-6.551-3.516-2.396-3.61-1.413-8.486 2.208-10.872l131.147-86.936h1.632c5.933 0 10.904 4.123 12.212 9.648z" fill="#f58a97"/></g><g><path d="m147.544 172.408c-1.507 2.281-4.008 3.516-6.551 3.516-1.486 0-2.993-.429-4.322-1.308l-106.775-70.78-3.736-2.48-25.815-17.108c1.308-5.525 6.278-9.637 12.212-9.637h1.643l12.672 8.392 3.024 2.009 115.44 76.524c3.621 2.396 4.604 7.262 2.208 10.872z" fill="#f58a97"/></g><g><path d="m494.984 393.337c-1.308 5.525-6.278 9.637-12.212 9.637h-1.643l-174.175-115.461c-3.621-2.396-4.604-7.262-2.208-10.883 2.396-3.61 7.262-4.594 10.872-2.197z" fill="#f58a97"/></g><path d="m26.872 83.002c-.46 1.298-.712 2.7-.712 4.165v14.189l-25.815-17.108c1.308-5.525 6.278-9.637 12.212-9.637h1.643z" fill="#f07281"/><path d="m26.872 394.582c-.46-1.298-.712-2.7-.712-4.165v-14.189l-25.815 17.108c1.308 5.525 6.278 9.637 12.212 9.637h1.643z" fill="#f07281"/><path d="m342.574 249.685-91.948 91.948c-1.632 1.632-4.29 1.632-5.923 0l-91.948-91.948c-25.951-25.961-26.956-69.398-1.339-95.694 15.968-16.387 38.163-22.927 59.101-19.599 12.41 1.978 24.371 7.409 34.333 16.303 1.611 1.434 4.018 1.434 5.63 0 26.767-23.911 67.996-22.812 93.434 3.296 25.615 26.296 24.611 69.733-1.34 95.694z" fill="#eb5569"/><path d="m260.117 332.142-9.491 9.491c-1.632 1.632-4.29 1.632-5.923 0l-91.948-91.948c-25.951-25.961-26.956-69.398-1.339-95.694 15.968-16.387 38.163-22.927 59.101-19.599-12.546 2.752-24.465 9.083-34.123 18.992-25.805 26.485-24.789 70.246 1.35 96.385z" fill="#e53950"/></g></svg>