<svg id="Capa_1" enable-background="new 0 0 506.2 506.2" height="512" viewBox="0 0 506.2 506.2" width="512" xmlns="http://www.w3.org/2000/svg"><g><path d="m210.71 101.45h84.78v64.22h-84.78z" fill="#685e68"/><path d="m210.71 101.45h24.85v64.22h-24.85z" fill="#554e56"/><path d="m360.2 153.97v57.68h-214.45v-57.68c0-4.42 3.58-8 8-8h198.45c4.42 0 8 3.58 8 8z" fill="#f2fbff"/><path d="m178.44 145.97c-4.36.22-7.85 3.83-7.85 8.26v57.42h-24.84v-57.68c0-4.42 3.58-8 8-8z" fill="#dff6fd"/><path d="m414.09 201.45v292.75c0 6.62-5.37 12-12 12h-297.98c-6.62 0-12-5.38-12-12v-292.75c0-6.63 5.38-12 12-12h297.98c6.63 0 12 5.37 12 12z" fill="#ffeee7"/><path d="m352.05 259.49v176.67c0 4.42-3.58 8-8 8h-181.9c-4.42 0-8-3.58-8-8v-176.67c0-4.42 3.58-8 8-8h181.9c4.42 0 8 3.58 8 8z" fill="#eb5569"/><path d="m187.26 444.16h-25.11c-4.42 0-8-3.58-8-8v-176.67c0-4.42 3.58-8 8-8h24.69c-4.37.22-7.85 3.84-7.85 8.27v176.12c0 4.57 3.71 8.28 8.27 8.28z" fill="#e53950"/><path d="m125.52 506.2h-21.41c-6.62 0-12-5.38-12-12v-292.75c0-6.63 5.38-12 12-12h25c-6.86 0-12.41 5.56-12.41 12.43v292.42c0 5.62 3.71 10.36 8.82 11.9z" fill="#ffe2db"/><path d="m306.08 353.85-40.34 40.34-11.18 11.18c-.8.8-2.11.8-2.92 0l-51.52-51.52c-14.61-14.62-15.37-38.44-1.07-53.37 10.3-10.75 25.35-14.07 38.58-9.94 5.09 1.58 9.92 4.26 14.1 8.05.78.7 1.97.7 2.74 0 15.04-13.63 38.41-13 52.68 1.89 14.3 14.93 13.55 38.75-1.07 53.37z" fill="#f58a97"/><path d="m265.74 394.19-11.18 11.18c-.8.8-2.11.8-2.92 0l-51.52-51.52c-14.61-14.62-15.37-38.44-1.07-53.37 10.3-10.75 25.35-14.07 38.58-9.94-5.06 1.96-9.77 5.02-13.8 9.15-14.75 15.18-13.98 39.41 1.1 54.27z" fill="#f07281"/><path d="m326.81 8v92.01c0 4.42-3.58 8-8 8h-131.42c-4.42 0-8-3.58-8-8v-92.01c0-4.42 3.58-8 8-8h131.42c4.42 0 8 3.58 8 8z" fill="#f2fbff"/><path d="m212.09 108.01h-24.7c-4.42 0-8-3.58-8-8v-92.01c0-4.42 3.58-8 8-8h25.12c-4.57 0-8.27 3.7-8.27 8.27v91.48c0 4.43 3.47 8.04 7.85 8.26z" fill="#dff6fd"/><circle cx="253.101" cy="54.007" fill="#685e68" r="24.753"/></g></svg>