<svg id="Capa_1" enable-background="new 0 0 505.757 505.757" height="512" viewBox="0 0 505.757 505.757" width="512" xmlns="http://www.w3.org/2000/svg"><g><g><path d="m252.878 88.201c-4.143 0-7.5 23.863-7.5 19.72v-100.421c0-4.142 3.357-7.5 7.5-7.5s7.5 3.358 7.5 7.5v100.422c0 4.142-3.357-19.721-7.5-19.721z" fill="#bc7c63"/></g><path d="m488.828 274.067v223.58c0 4.48-3.63 8.11-8.11 8.11h-455.68c-4.48 0-8.11-3.63-8.11-8.11v-223.58z" fill="#ffeee7"/><path d="m49.388 505.757h-24.35c-4.48 0-8.11-3.63-8.11-8.11v-223.58h24.35v223.58c.001 4.48 3.631 8.11 8.11 8.11z" fill="#ffe2db"/><path d="m503.798 263.787v21.03c0 4.42-3.59 8-8 8h-485.839c-4.41 0-8-3.58-8-8v-21.03c0-4.41 3.59-8 8-8h485.84c4.41 0 7.999 3.59 7.999 8z" fill="#c68d7a"/><path d="m354.108 196.837h-202.46c-1.68 0-2.61-1.94-1.57-3.25l101.23-127.69c.8-1.01 2.34-1.01 3.14 0l10.98 13.84 90.25 113.85c1.041 1.31.11 3.25-1.57 3.25z" fill="#c68d7a"/><path d="m265.429 79.737-92.32 116.44c-.17.21-.29.43-.36.66h-21.1c-1.68 0-2.61-1.94-1.57-3.25l101.23-127.69c.8-1.01 2.34-1.01 3.14 0z" fill="#bc7c63"/><path d="m153.988 192.647h197.78v313.11h-197.78z" fill="#ffeee7"/><path d="m153.988 192.647h24.35v313.11h-24.35z" fill="#ffe2db"/><path d="m308.328 411.717v94.04h-110.9v-94.04c0-30.48 24.57-55.2 54.98-55.45.16-.01.31-.01.47-.01 15.31 0 29.18 6.21 39.21 16.25 10.04 10.02 16.24 23.9 16.24 39.21z" fill="#c68d7a"/><path d="m264.548 357.717c-24.52 5.73-42.77 27.72-42.77 54v94.04h-24.35v-94.04c0-30.48 24.57-55.2 54.98-55.45 4.17.03 8.24.54 12.14 1.45z" fill="#bc7c63"/><g fill="#c8effe"><path d="m111.34 394.717h-51.765c-1.105 0-2-.895-2-2v-32.872c0-15.188 12.312-27.5 27.5-27.5h.766c15.188 0 27.5 12.312 27.5 27.5v32.872c-.001 1.104-.896 2-2.001 2z"/><path d="m446.182 394.717h-51.766c-1.105 0-2-.895-2-2v-32.872c0-15.188 12.312-27.5 27.5-27.5h.766c15.188 0 27.5 12.312 27.5 27.5v32.872c0 1.104-.895 2-2 2z"/><path d="m282.37 322.687h-58.982c-1.105 0-2-.895-2-2v-37.385c0-17.153 13.905-31.059 31.059-31.059h.865c17.153 0 31.059 13.905 31.059 31.059v37.385c-.001 1.105-.897 2-2.001 2z"/></g><path d="m252.183 355.811c-8.406-7.679-21.555-7.274-29.461 1.215-7.742 8.313-7.147 21.399.886 29.432l28.554 28.554c.396.396 1.038.396 1.434 0l28.554-28.554c8.032-8.032 8.627-21.119.886-29.432-7.906-8.489-21.055-8.894-29.461-1.215-.399.364-.994.364-1.392 0z" fill="#eb5569"/><path d="m378.669 187.237v21.52c0 4.42-3.58 8-8 8h-235.58c-4.42 0-8-3.58-8-8v-21.52c0-4.41 3.58-8 8-8h235.58c4.419 0 8 3.59 8 8z" fill="#c68d7a"/><path d="m159.538 216.757h-24.45c-4.42 0-8-3.58-8-8v-21.52c0-4.41 3.58-8 8-8h24.45c-4.47 0-8.11 3.63-8.11 8.12v21.29c.001 4.48 3.64 8.11 8.11 8.11z" fill="#bc7c63"/><path d="m34.419 292.817h-24.46c-4.41 0-8-3.58-8-8v-21.03c0-4.41 3.59-8 8-8h24.46c-4.48 0-8.11 3.63-8.11 8.12v20.8c-.001 4.48 3.63 8.11 8.11 8.11z" fill="#bc7c63"/><g><path d="m277.928 34.146h-50.1c-4.143 0-7.5-3.358-7.5-7.5s3.357-7.5 7.5-7.5h50.1c4.143 0 7.5 3.358 7.5 7.5s-3.357 7.5-7.5 7.5z" fill="#bc7c63"/></g></g></svg>