<svg id="Capa_1" enable-background="new 0 0 507.5 507.5" height="512" viewBox="0 0 507.5 507.5" width="512" xmlns="http://www.w3.org/2000/svg"><g><path d="m458.249 402.744v100.666c0 1.013-.374 1.927-.963 2.644-.757.885-1.887 1.445-3.136 1.445h-200.4-200.399c-.973 0-1.868-.344-2.576-.904-.924-.747-1.524-1.897-1.524-3.185v-100.666c0-112.748 91.259-204.174 203.938-204.479h.56c112.936 0 204.5 91.544 204.5 204.479z" fill="#f2fbff"/><g><path d="m313.455 70.754c-4.142 0-7.5-3.358-7.5-7.5v-55.754c0-4.142 3.358-7.5 7.5-7.5s7.5 3.358 7.5 7.5v55.754c0 4.142-3.358 7.5-7.5 7.5z" fill="#c8effe"/></g><g><path d="m194.045 70.754c-4.142 0-7.5-3.358-7.5-7.5v-55.754c0-4.142 3.358-7.5 7.5-7.5s7.5 3.358 7.5 7.5v55.754c0 4.142-3.358 7.5-7.5 7.5z" fill="#c8effe"/></g><path d="m73.602 402.744v100.666c0 2.261 1.838 4.09 4.099 4.09h-24.35c-.973 0-1.868-.344-2.576-.904-.924-.747-1.524-1.897-1.524-3.185v-100.667c0-112.748 91.259-204.174 203.938-204.479 4.06.01 8.1.138 12.102.393-106.968 6.607-191.689 95.457-191.689 204.086z" fill="#dff6fd"/><path d="m457.285 506.055c-.757.885-1.887 1.445-3.136 1.445h-400.798c-.973 0-1.868-.344-2.576-.904 84.338 0 187.914-148.827 201.48-279.477.079-.678.147-1.357.206-2.035.845-8.74 1.288-17.4 1.288-25.924 0 1.887.02 3.775.069 5.682.541 24.085 4.512 49.134 11.168 74.045 30.78 115.078 118.981 227.158 192.289 227.158z" fill="#dff6fd"/><path d="m264.987 278.887c-28.598 107.125-105.808 211.773-175.764 228.613h-35.872c-.973 0-1.868-.344-2.576-.904 84.338 0 187.914-148.827 201.48-279.477.079-.678.147-1.357.206-2.035.708-6.803 1.16-13.557 1.357-20.241.541 24.084 4.513 49.133 11.169 74.044z" fill="#c8effe"/><path d="m333.69 53.63v157.78h-159.88v-157.78c0-3.23 1.31-6.17 3.44-8.28 2.11-2.13 5.05-3.44 8.28-3.44 5.17 0 10.21.47 15.11 1.39.35.06.69.13 1.04.2 18.22 3.66 34.26 13.38 45.91 26.97 3.25 3.79 9.07 3.79 12.32 0 14.99-17.48 37.22-28.56 62.06-28.56 6.47 0 11.72 5.25 11.72 11.72z" fill="#f2fbff"/><path d="m200.64 43.3c-1.53 2-2.44 4.51-2.44 7.24v160.87h-24.39v-157.78c0-3.23 1.31-6.17 3.44-8.28 2.11-2.13 5.05-3.44 8.28-3.44 5.17 0 10.21.47 15.11 1.39z" fill="#dff6fd"/><path d="m343.327 194.52v9.28c0 6.518-5.279 11.797-11.797 11.797h-155.561c-6.518 0-11.797-5.279-11.797-11.797v-9.28c0-6.518 5.279-11.797 11.797-11.797h155.561c6.518 0 11.797 5.279 11.797 11.797z" fill="#dff6fd"/><path d="m201.067 215.597h-25.098c-6.518 0-11.797-5.279-11.797-11.797v-9.28c0-6.518 5.279-11.797 11.797-11.797h25.098c-6.793 0-12.288 5.495-12.288 12.279v8.317c0 6.782 5.495 12.278 12.288 12.278z" fill="#c8effe"/><path d="m333.694 114.008v32.342c-7.327 3.006-15.351 4.655-23.761 4.655-9.472 0-18.458-2.105-26.513-5.869-17.375-8.126-37.351-8.126-54.726 0-8.055 3.764-17.041 5.869-26.523 5.869-10.211 0-19.844-2.429-28.365-6.77v-30.227c7.934 3.633 16.758 5.657 26.058 5.657 9.482 0 18.478-2.105 26.523-5.879 17.375-8.126 37.351-8.126 54.726 0 8.045 3.775 17.041 5.879 26.523 5.879 9.3-.001 18.124-2.025 26.058-5.657z" fill="#dff6fd"/><path d="m333.694 114.008v32.342c-7.327 3.006-15.351 4.655-23.761 4.655-9.472 0-18.458-2.105-26.513-5.869-17.375-8.126-37.351-8.126-54.726 0-8.055 3.764-17.041 5.869-26.523 5.869-1.366 0-2.732-.041-4.078-.132-8.693-.557-16.91-2.884-24.287-6.638v-30.227c7.428 3.4 15.635 5.394 24.287 5.637.587.01 1.184.02 1.771.02 9.482 0 18.478-2.105 26.523-5.879 17.375-8.126 37.351-8.126 54.726 0 8.045 3.775 17.041 5.879 26.523 5.879 9.3-.001 18.124-2.025 26.058-5.657z" fill="#dff6fd"/><path d="m198.093 119.644v31.229c-8.693-.557-16.91-2.884-24.287-6.638v-30.227c7.428 3.4 15.635 5.393 24.287 5.636z" fill="#c8effe"/></g></svg>