<svg id="Capa_1" enable-background="new 0 0 507.657 507.657" height="512" viewBox="0 0 507.657 507.657" width="512" xmlns="http://www.w3.org/2000/svg"><g><path d="m461.907 67.106-370.196 370.195c-5.746 5.746-15.062 5.746-20.807 0l-.549-.549c-5.746-5.746-5.746-15.062 0-20.807l370.196-370.195c5.746-5.746 15.062-5.746 20.807 0l.549.549c5.746 5.745 5.746 15.061 0 20.807z" fill="#c68d7a"/><path d="m430.367 275.73-165.32 165.32-2.51 2.51c-4.81 4.81-12.61 4.81-17.42 0l-167.84-167.83c-47.56-47.56-49.59-127.33-3.27-176.1 24.99-26.31 58.47-39.35 91.89-39.13 28.46.18 56.88 10 79.95 29.43 4.62 3.89 11.34 3.89 15.96 0 50.14-42.25 125.57-39.02 171.84 9.7 46.32 48.77 44.28 128.54-3.28 176.1z" fill="#eb5569"/><path d="m265.047 441.05-2.51 2.51c-4.81 4.81-12.61 4.81-17.42 0l-167.84-167.83c-47.56-47.56-49.59-127.33-3.27-176.1 24.99-26.31 58.47-39.35 91.89-39.13-24.8 4.82-48.43 17.25-67.23 37.29-46.32 49.35-44.29 130.08 3.27 178.2z" fill="#e53950"/><path d="m272.177 256.84-180.189 180.188c-5.902 5.891-15.457 5.891-21.359 0-2.946-2.946-4.424-6.815-4.424-10.685 0-3.859 1.478-7.718 4.424-10.674l180.014-180.014c8.643 5.43 16.002 12.676 21.534 21.185z" fill="#c68d7a"/><path d="m507.657 2.06v61.5c0 17.18-14.03 32.29-31.21 32.77-.339.008-.669.005-1 0h-.21c-16.97-.15-30.81-13.48-31.75-30.25-.06-1.03-.88-1.85-1.91-1.91-17.17-.97-30.73-15.44-30.25-32.96.47-17.18 15.59-31.21 32.77-31.21h61.5c1.14 0 2.06.92 2.06 2.06z" fill="#685e68"/><path d="m487.197 93.6c-3.63 1.64-7.6 2.61-11.75 2.73h-.21c-16.97-.15-30.81-13.48-31.75-30.25-.06-1.03-.88-1.85-1.91-1.91-17.17-.97-30.73-15.44-30.25-32.96.47-17.18 15.59-31.21 32.77-31.21h24.65c-17.18 0-32.29 14.03-32.76 31.21-.48 17.52 13.08 32 30.25 32.97 1.02.05 1.84.87 1.9 1.9.7 12.32 8.33 22.76 19.06 27.52z" fill="#554e56"/><path d="m125.567 462.74-17.21 17.21-8.509-2.354-2.561 13.424-15.44 15.43c-2.08 2.09-5.62 1.36-6.72-1.37l-20.08-50.18c-.42-1.04-1.25-1.87-2.29-2.28l-31.11-12.46-19.06-7.63c-2.74-1.1-3.47-4.63-1.38-6.72l15.44-15.43 11.542-3.252-.462-7.828 17.2-17.2c1.16-1.17 2.9-1.52 4.42-.91l22.33 8.94 31.11 12.45c1.05.42 1.87 1.24 2.29 2.29l21.39 53.44c.62 1.52.26 3.26-.9 4.43z" fill="#685e68"/><path d="m71.677 390.13-50.03 50.03-19.06-7.63c-2.74-1.1-3.47-4.63-1.38-6.72l15.44-15.43 13.244-2.741-2.164-8.339 17.2-17.2c1.16-1.17 2.9-1.52 4.42-.91z" fill="#554e56"/><g><path d="m283.292 301.881c-4.142 0-7.5-3.358-7.5-7.5 0-34.224-28.246-62.067-62.965-62.067-4.142 0-7.5-3.358-7.5-7.5s3.358-7.5 7.5-7.5c42.99 0 77.965 34.572 77.965 77.067 0 4.142-3.358 7.5-7.5 7.5z" fill="#ffeee7"/></g><g><path d="m87.147 426.97c-1.17-2.94-3.53-5.29-6.46-6.46l-52.96-21.21-11.08 11.08c.7.69 57.12 23.51 57.12 23.51s22.82 56.43 23.52 57.13l11.07-11.07z" fill="#ffeee7"/></g></g></svg>