<svg id="Capa_1" enable-background="new 0 0 506.82 506.82" height="512" viewBox="0 0 506.82 506.82" width="512" xmlns="http://www.w3.org/2000/svg"><g><path d="m434.41 232.93-4.681 246.288-16.609 27.602h-82.44c-1.1 0 5.602-13.565 5.602-14.665l-7.602-157.745c0-48.66 34.25-89.32 79.96-99.19 6.94-1.5 14.13-2.29 21.52-2.29z" fill="#f58a97"/><path d="m432.41 232.93v2.13c-.26.05-.51.1-.77.16-45.71 9.87-79.96 50.53-79.96 99.19v170.41c0 1.1.9 2 2 2h-23c-1.1 0-2-.9-2-2v-170.41c0-48.66 34.25-89.32 79.96-99.19 6.94-1.5 14.13-2.29 21.52-2.29z" fill="#f07281"/><path d="m432.52 179.99v65.34h-13.18c-.43 0-.85 0-1.28-.01-90.65-1.15-163.78-74.99-163.78-165.9v-48.73h28.94c82.45 0 149.3 66.84 149.3 149.3z" fill="#f58a97"/><path d="m426.52 244.33v1h-7.18c-.43 0-.85 0-1.28-.01-90.65-1.15-163.78-74.99-163.78-165.9v-48.73h18.32c.48 0 .98 0 1.46.01v43.57c0 88.18 66.73 160.79 152.46 170.06z" fill="#f07281"/><path d="m179.88 333.1v171.72c0 1.1-.89 2-2 2h-87.56l-13.612-12.282-2.558-259.858h7.31c3.87 0 7.69.22 11.44.67 9.08 1.04 17.78 3.32 25.93 6.67 35.83 14.72 61.05 49.95 61.05 91.08z" fill="#f58a97"/><path d="m88.373 245.328h-12.319v-65.342c0-82.453 66.841-149.294 149.294-149.294h28.937v48.723c0 91.631-74.281 165.913-165.912 165.913z" fill="#f58a97"/><path d="m450.74 193.14-3.36 313.68h-34.26l3.35-314.05c.79-72.99-57.74-132.79-130.74-133.57l-31.44-.33-27.06-.29c-72.98-.78-132.78 57.75-133.56 130.74l-.49 46.43-.1 9.29-2.76 261.78h-32.25c-1.12 0-2.01-.91-2-2.02l3.34-315.85c.97-90.59 74.14-163.5 164.24-164.64.53-.01 1.06-.01 1.59-.01.78 0 1.56 0 2.35.01l58.51.63c91.91.98 165.62 76.28 164.64 168.2z" fill="#685e68"/><path d="m117.92 242.52.52-51.87c.75-72.57 55.92-131.34 124.93-135.19l-17.14-.19c-72.98-.81-132.78 59.8-133.56 135.38l-.56 54.61z" fill="#f07281"/><path d="m117.83 242.02-2.48 264.8h-25.99l2.54-271.47c9.08 1.04 17.78 3.32 25.93 6.67z" fill="#f07281"/><path d="m242.07 24.48c-87.52 4-157.71 75.75-158.66 164.47l-3.34 315.85c-.01 1.11.88 2.02 2 2.02h-24c-1.12 0-2.01-.91-2-2.02l3.34-315.85c.97-90.59 74.14-163.5 164.24-164.64.53-.01 1.06-.01 1.59-.01.45 0 .9 0 1.35.01z" fill="#554e56"/><path d="m310.94 69.84-55.02 56.41c-.23.23-.51.4-.8.49-.72.26-1.54.11-2.12-.45l-56.41-55.03c-15.97-15.59-17.11-41.28-1.87-57.59 10.88-11.64 26.89-15.46 41.13-11.37 5.7 1.64 11.12 4.54 15.81 8.72.78.7 1.97.68 2.74-.03 16.04-15.02 41.35-14.68 56.98 1.24 15.64 15.92 15.15 41.64-.44 57.61z" fill="#eb5569"/><path d="m266.04 115.42-10.92 11.32c-.72.26-1.54.11-2.12-.45l-56.41-55.03c-15.97-15.59-17.11-41.28-1.87-57.59 10.88-11.64 26.89-15.46 41.13-11.37-6.04 2.13-11.66 5.73-16.35 10.8-15.24 16.5-14.11 42.48 1.87 58.25z" fill="#e53950"/></g></svg>