<svg id="Capa_1" enable-background="new 0 0 502.497 502.497" height="512" viewBox="0 0 502.497 502.497" width="512" xmlns="http://www.w3.org/2000/svg"><g><path d="m154.148 372.365v121.98c0 8.04 10.42 11.21 14.89 4.53l9.68-14.48 2.81-4.2c3.22-4.81 10.3-4.81 13.52 0l11.72 17.53c4.47 6.68 14.89 3.51 14.89-4.52v-120.84z" fill="#eb5569"/><path d="m154.148 372.365v121.98c0 8.04 10.42 11.21 14.89 4.53l9.68-14.48v-112.03z" fill="#e53950"/><path d="m429.658 12.195v416.4c0 6.73-5.47 12.19-12.2 12.19h-332.42c-6.74 0-12.2-5.46-12.2-12.19v-416.4c0-6.74 5.46-12.19 12.2-12.19h332.42c6.73 0 12.2 5.45 12.2 12.19z" fill="#c68d7a"/><path d="m388.998 52.655v335.48c0 6.63-5.37 12-12 12h-210.85c-6.63 0-12-5.37-12-12v-335.48c0-6.63 5.37-12 12-12h210.85c6.63 0 12 5.37 12 12z" fill="#ffeee7"/><path d="m190.758 400.135h-24.61c-6.63 0-12-5.37-12-12v-335.48c0-6.63 5.37-12 12-12h24.61c-6.74 0-12.2 5.46-12.2 12.2v335.08c0 6.74 5.46 12.2 12.2 12.2z" fill="#ffe2db"/><path d="m352.118 116.745v47.77c0 2.25-1.82 4.07-4.06 4.07h-44.47c-2.24 0-4.07 1.82-4.07 4.06v115.22c0 2.25-1.82 4.07-4.06 4.07h-47.77c-2.24 0-4.06-1.82-4.06-4.07v-115.22c0-2.24-1.83-4.06-4.07-4.06h-44.47c-2.24 0-4.06-1.82-4.06-4.07v-47.77c0-2.24 1.82-4.06 4.06-4.06h44.47c2.24 0 4.07-1.82 4.07-4.07v-36.45c0-2.25 1.82-4.07 4.06-4.07h47.77c2.24 0 4.06 1.82 4.06 4.07v36.45c0 2.25 1.83 4.07 4.07 4.07h44.47c2.24 0 4.06 1.82 4.06 4.06z" fill="#fff0ad"/><path d="m113.496 0v440.786h-28.458c-6.738 0-12.196-5.458-12.196-12.196v-416.394c-.001-6.738 5.457-12.196 12.196-12.196z" fill="#c68d7a"/><path d="m72.841 103.73h40.654v32.585h-40.654z" fill="#c8effe"/><path d="m72.841 35.573h40.654v32.585h-40.654z" fill="#c8effe"/><path d="m72.838 103.735h40.66.9v32.58h-.9-40.66z" fill="#eb5569"/><path d="m72.838 35.575h40.66.9v32.58h-.9-40.66z" fill="#eb5569"/><path d="m345.878 332.455v32.24c0 4.41-3.58 8-8 8h-138.85c-4.42 0-8-3.59-8-8v-32.24c0-4.27 3.36-7.77 7.59-7.99.13-.01.27-.01.41-.01h138.85c4.42 0 8 3.59 8 8z" fill="#fff0ad"/><g fill="#ffe177"><path d="m219.498 168.585h-24.41c-2.24 0-4.06-1.82-4.06-4.07v-47.77c0-2.24 1.82-4.06 4.06-4.06h24.41c-2.25 0-4.07 1.82-4.07 4.06v47.77c0 2.25 1.82 4.07 4.07 4.07z"/><path d="m271.888 291.935h-24.2c-2.24 0-4.06-1.82-4.06-4.07v-115.22c0-2.24-1.83-4.06-4.07-4.06h24.41c2.24 0 4.06 1.82 4.06 4.06v115.23c.001 2.17 1.71 3.96 3.86 4.06z"/><path d="m272.099 68.095c-2.25 0-4.07 1.82-4.07 4.07v36.45c0 2.25-1.82 4.07-4.06 4.07h-24.41c2.24 0 4.07-1.82 4.07-4.07v-36.45c0-2.25 1.82-4.07 4.06-4.07z"/><path d="m223.568 372.695h-24.54c-4.42 0-8-3.59-8-8v-32.24c0-4.27 3.36-7.77 7.59-7.99h24.95c-4.5 0-8.14 3.64-8.14 8.13v31.96c0 4.5 3.64 8.14 8.14 8.14z"/></g><path d="m112.128.005h26.14v440.78h-26.14z" fill="#bc7c63"/></g></svg>