<svg id="Capa_1" enable-background="new 0 0 507.682 507.682" height="512" viewBox="0 0 507.682 507.682" width="512" xmlns="http://www.w3.org/2000/svg"><g><g><path d="m316.195 470.8c-38.913 0-70.571-31.657-70.571-70.57 0-4.143 3.358-7.5 7.5-7.5s7.5 3.357 7.5 7.5c0 30.642 24.929 55.57 55.571 55.57 4.142 0 7.5 3.357 7.5 7.5s-3.358 7.5-7.5 7.5z" fill="#dff6fd"/></g><g><path d="m332.084 501.61c-4.142 0-7.5-3.357-7.5-7.5v-15.405c0-4.143 3.358-7.5 7.5-7.5s7.5 3.357 7.5 7.5v15.405c0 4.143-3.358 7.5-7.5 7.5z" fill="#dff6fd"/></g><g><path d="m332.084 455.394c-4.142 0-7.5-3.357-7.5-7.5v-15.405c0-4.143 3.358-7.5 7.5-7.5s7.5 3.357 7.5 7.5v15.405c0 4.143-3.358 7.5-7.5 7.5z" fill="#dff6fd"/></g><g><path d="m360.695 470.8h-15.405c-4.142 0-7.5-3.357-7.5-7.5s3.358-7.5 7.5-7.5h15.405c4.142 0 7.5 3.357 7.5 7.5s-3.358 7.5-7.5 7.5z" fill="#dff6fd"/></g><path d="m230.73 389.783v109.9c0 4.42-3.58 8-8 8h-29.25c-4.42 0-8-3.58-8-8v-109.9z" fill="#c68d7a"/><path d="m217.96 507.682h-24.48c-4.42 0-8-3.58-8-8v-109.9h24.68v109.69c0 4.391 3.45 7.991 7.8 8.21z" fill="#bc7c63"/><path d="m335.51 142.353v244.77c0 6.8-5.52 12.32-12.32 12.32h-148.43c-6.8 0-12.32-5.52-12.32-12.32v-244.77c0-6.8 5.52-12.33 12.32-12.33h148.43c6.8 0 12.32 5.529 12.32 12.33z" fill="#fff0ad"/><path d="m199.44 399.443h-24.68c-6.8 0-12.32-5.52-12.32-12.32v-244.77c0-6.8 5.52-12.33 12.32-12.33h24.68c-6.8 0-12.33 5.53-12.33 12.33v244.77c0 6.799 5.53 12.32 12.33 12.32z" fill="#ffe177"/><path d="m350.45 156.822h-202.95c-6.52 0-10.3-7.38-6.49-12.67l101.47-140.83c3.2-4.43 9.79-4.43 12.99 0l6.04 8.38 95.43 132.45c3.81 5.29.03 12.67-6.49 12.67z" fill="#eb5569"/><path d="m165.97 156.822h-18.47c-6.52 0-10.3-7.38-6.49-12.67l101.47-140.83c3.2-4.43 9.79-4.43 12.99 0l6.04 8.38-96.58 134.03c-2.66 3.69-1.82 8.351 1.04 11.09z" fill="#e53950"/><g><g><path d="m335.51 309.843v42.09c-8.87 2.47-19.58 4.22-34.69 4.22-51.86 0-51.86-20.54-103.71-20.54-2.81 0-5.47.06-7.99.18-11.04.5-19.47 2.03-26.68 4.04v-42.09c7.21-2.01 15.64-3.54 26.68-4.04 2.52-.12 5.18-.18 7.99-.18 51.85 0 51.85 20.54 103.71 20.54 15.11 0 25.82-1.74 34.69-4.22z" fill="#f58a97"/></g><g><path d="m335.51 213.812v42.08c-10.49 3.74-22.77 6.77-42.68 6.77-49.38 0-51.74-18.63-96.63-20.4-2.25-.09-4.61-.14-7.08-.14-10.84 0-19.43.9-26.68 2.32v-42.08c7.25-1.42 15.84-2.33 26.68-2.33 2.47 0 4.83.05 7.08.14 44.89 1.77 47.25 20.4 96.63 20.4 19.91 0 32.19-3.029 42.68-6.76z" fill="#f58a97"/></g></g><g><path d="m187.11 293.813v42.09c-10.06.58-17.9 2.04-24.67 3.93v-42.09c6.77-1.89 14.61-3.35 24.67-3.93z" fill="#f07281"/></g><g><path d="m187.11 200.043v42.09c-9.9.1-17.87.98-24.67 2.31v-42.08c6.8-1.33 14.77-2.21 24.67-2.32z" fill="#f07281"/></g></g></svg>