<svg id="Capa_1" enable-background="new 0 0 502 502" height="512" viewBox="0 0 502 502" width="512" xmlns="http://www.w3.org/2000/svg"><g><path d="m502 95.45v311.1c0 6.652-5.406 12.058-12.058 12.058h-477.884c-6.652 0-12.058-5.406-12.058-12.058v-311.1c0-6.652 5.406-12.058 12.058-12.058h477.884c6.652 0 12.058 5.406 12.058 12.058z" fill="#685e68"/><path d="m37.129 418.608h-25.071c-6.652 0-12.058-5.406-12.058-12.058v-311.1c0-6.652 5.406-12.058 12.058-12.058h25.071c-6.833 0-12.36 5.547-12.36 12.37v310.477c0 6.822 5.527 12.369 12.36 12.369z" fill="#554e56"/><path d="m308.005 251c0 68.359-53.006 124.269-119.978 128.55-.01 0-.02 0-.02 0-2.723.171-5.476.261-8.24.261-70.821 0-128.238-57.668-128.238-128.811s57.417-128.811 128.238-128.811c2.763 0 5.517.09 8.24.261h.02c66.972 4.281 119.978 60.19 119.978 128.55z" fill="#dff6fd"/><path d="m188.006 379.55c-2.723.171-5.476.261-8.24.261-70.821 0-128.238-57.668-128.238-128.811s57.417-128.811 128.238-128.811c2.763 0 5.517.09 8.24.261-63.034 8.18-111.718 62.622-111.718 128.55s48.684 120.37 111.718 128.55z" fill="#c8effe"/><ellipse cx="179.766" cy="251" fill="#685e68" rx="45.802" ry="46.371"/><g fill="#eb5569"><circle cx="388.513" cy="375.126" r="15.89"/><circle cx="457.39" cy="375.126" r="15.89"/><circle cx="319.637" cy="375.126" r="15.89"/></g><path d="m433.346 276.471h-.695c-7.525 0-13.626-6.101-13.626-13.626v-138.234c0-7.525 6.101-13.626 13.626-13.626h.695c7.525 0 13.626 6.101 13.626 13.626v138.234c0 7.525-6.101 13.626-13.626 13.626z" fill="#678d98"/><path d="m458.169 169.352h-50.34c-4.44 0-8.039-3.599-8.039-8.039v-10.794c0-4.44 3.599-8.039 8.039-8.039h50.34c4.44 0 8.039 3.599 8.039 8.039v10.794c-.001 4.44-3.6 8.039-8.039 8.039z" fill="#dff6fd"/><g><path d="m473.28 339.184h-108.51c-4.163 0-7.536-3.374-7.536-7.536 0-4.163 3.374-7.536 7.536-7.536h108.51c4.163 0 7.536 3.374 7.536 7.536s-3.374 7.536-7.536 7.536z" fill="#f2fbff"/></g><g><path d="m473.28 311.596h-108.51c-4.163 0-7.536-3.374-7.536-7.536 0-4.163 3.374-7.536 7.536-7.536h108.51c4.163 0 7.536 3.374 7.536 7.536s-3.374 7.536-7.536 7.536z" fill="#f2fbff"/></g><g><path d="m230.2 330.092c-2.282 0-4.538-1.032-6.02-2.994-2.509-3.322-1.85-8.048 1.471-10.556l111.605-84.299v-76.006c0-4.163 3.374-7.536 7.536-7.536 4.163 0 7.536 3.374 7.536 7.536v79.759c0 2.363-1.109 4.59-2.994 6.013l-114.599 86.56c-1.358 1.028-2.953 1.523-4.535 1.523z" fill="#f2fbff"/></g><g><path d="m92.575 258.536c-4.162 0-7.536-3.374-7.536-7.536 0-52.446 42.494-95.115 94.727-95.115 4.162 0 7.536 3.374 7.536 7.536 0 4.163-3.374 7.536-7.536 7.536-43.921 0-79.654 35.906-79.654 80.042-.001 4.164-3.375 7.537-7.537 7.537z" fill="#f2fbff"/></g><path d="m363.402 156.238h-37.214c-2.22 0-4.019-1.8-4.019-4.019v-37.214c0-2.22 1.8-4.019 4.019-4.019h37.214c2.22 0 4.019 1.8 4.019 4.019v37.214c.001 2.219-1.799 4.019-4.019 4.019z" fill="#dff6fd"/></g></svg>