<svg id="Capa_1" enable-background="new 0 0 509.998 509.998" height="512" viewBox="0 0 509.998 509.998" width="512" xmlns="http://www.w3.org/2000/svg"><g><g><path d="m274.609 497.376c-4.143 0-7.5-3.357-7.5-7.5v-263.005c0-4.143 3.357-7.5 7.5-7.5s7.5 3.357 7.5 7.5v263.005c0 4.143-3.357 7.5-7.5 7.5z" fill="#f2fbff"/></g><path d="m183.9 115.898c0 27.59-19.67 50.58-45.75 55.71-3.56.7-7.25 1.07-11.02 1.07-31.35 0-56.77-25.42-56.77-56.78 0-31.35 25.42-56.77 56.77-56.77 3.78 0 7.46.37 11.03 1.07 26.08 5.14 45.74 28.12 45.74 55.7z" fill="#fff0ad"/><path d="m138.15 171.608c-3.56.7-7.25 1.07-11.02 1.07-31.35 0-56.77-25.42-56.77-56.78 0-31.35 25.42-56.77 56.77-56.77 3.78 0 7.46.37 11.03 1.07-25.84 7.89-44.42 29.85-44.42 55.7s18.58 47.81 44.41 55.71z" fill="#ffe177"/><path d="m361.82 509.998h-174.42c-4.21 0-5.56-5.67-1.81-7.57l87.21-44.28c1.14-.58 2.48-.58 3.62 0l9.47 4.81 77.74 39.47c3.75 1.9 2.4 7.57-1.81 7.57z" fill="#dff6fd"/><path d="m285.89 462.958-76.53 40.3c-2.71 1.42-2.89 4.77-1.3 6.74h-20.66c-4.21 0-5.56-5.67-1.81-7.57l87.21-44.28c1.14-.58 2.48-.58 3.62 0z" fill="#c8effe"/><path d="m415.53 126.918-32.75 43.46-.53.71-101.05 134.14c-1.76 2.34-4.46 3.43-7.09 3.28-2.3-.14-4.55-1.24-6.09-3.28l-99.88-132.57-1.18-1.57-33.28-44.17c-4.09-5.44-.21-13.23 6.59-13.23h268.67c6.81 0 10.69 7.79 6.59 13.23z" fill="#dff6fd"/><path d="m286.5 296.858-6.3 8.37c-1.54 2.04-3.79 3.14-6.09 3.28-2.3-.14-4.55-1.24-6.09-3.28l-99.88-132.57-1.18-1.57-33.28-44.17c-4.09-5.44-.21-13.23 6.59-13.23h24.79c-6.81 0-10.68 7.79-6.59 13.23z" fill="#c8effe"/><g><path d="m362.913 128.753c-4.059-1.331-3.176-14.74-3.176-14.74l15.109-46.102c.958-3.186 3.913-5.512 7.409-5.512 4.273 0 7.736 3.456 7.736 7.729v.015c0 .818-.13 1.632-.385 2.409l-13.585 41.453c0 .001-12.308 15.01-13.108 14.748z" fill="#c8effe"/></g><path d="m359.843 113.688-23.484 71.658c-1.331 4.06.882 8.43 4.942 9.76.801.262 1.613.387 2.41.387 3.253 0 6.281-2.069 7.35-5.328l25.064-76.477z" fill="#99e6fc"/><path d="m424.35 63.638-27.46 13.9-19.49 9.87c-.54.27-1.19.06-1.46-.47l-23.77-46.95c-6.58-12.99-1.77-29.81 11.04-36.72 7.89-4.25 16.89-4.21 24.38-.72 4.8 2.23 8.98 5.88 11.86 10.71.53.89 1.64 1.25 2.6.85 13.25-5.62 28.82.11 35.12 13.39 6.24 13.16.17 29.56-12.82 36.14z" fill="#eb5569"/><path d="m396.89 77.538-19.49 9.87c-.54.27-1.19.06-1.46-.47l-23.77-46.95c-6.58-12.99-1.77-29.81 11.04-36.72 7.89-4.25 16.89-4.21 24.38-.72-12.56 7.61-17.1 24.27-10.34 37.24z" fill="#e53950"/><path d="m382.25 171.088-94.87 125.93-6.18 8.21c-3.3 4.38-9.88 4.38-13.18 0l-101.06-134.14z" fill="#eb5569"/><path d="m287.38 297.018-6.18 8.21c-3.3 4.38-9.88 4.38-13.18 0l-101.06-134.14h24.72z" fill="#e53950"/></g></svg>