<svg id="Capa_1" enable-background="new 0 0 510 510" height="512" viewBox="0 0 510 510" width="512" xmlns="http://www.w3.org/2000/svg"><g><path d="m189.659 182.556-118.531 182.526c-4.583 7.052-15.551 3.491-15.116-4.907l1.872-35.655c.334-6.324-6.303-10.634-11.949-7.76l-19.436 9.905-12.374 6.303c-7.497 3.825-15.217-4.745-10.634-11.808l118.348-182.232.192-.293z" fill="#eb5569"/><path d="m139.606 150.462-111.731 172.054c-.89 1.366-1.315 2.772-1.376 4.148l-12.374 6.303c-7.497 3.825-15.217-4.745-10.634-11.808l118.348-182.232z" fill="#e53950"/><path d="m495.875 332.968-31.81-16.209c-5.646-2.874-12.283 1.437-11.949 7.76l1.285 24.526.587 11.13c.435 8.398-10.533 11.959-15.116 4.907l-118.53-182.526 67.628-43.922 6.486 9.996 112.055 172.529c4.582 7.064-3.138 15.634-10.636 11.809z" fill="#eb5569"/><path d="m438.872 365.082-118.53-182.526 67.628-43.922 6.486 9.996-50.306 32.59 109.253 167.825.587 11.13c.433 8.398-10.535 11.959-15.118 4.907z" fill="#e53950"/><path d="m308.695 409.338v47.807c0 25.426-17.949 46.653-41.858 51.712h-.01c-3.541.749-7.214 1.143-10.978 1.143h-1.7c-29.18 0-52.845-23.666-52.845-52.856v-47.807h107.391z" fill="#fff0ad"/><path d="m266.828 508.857c-3.541.749-7.214 1.143-10.978 1.143h-1.7c-29.18 0-52.845-23.666-52.845-52.856v-47.807h24.677v46.937c0 25.437 17.393 46.765 40.846 52.583z" fill="#ffe177"/><path d="m440.115 421.377h-370.23l16.407-74.001c10.647-48.024 16.019-97.066 16.019-146.256 0-74.076 60.05-134.126 134.126-134.126h37.129c74.076 0 134.126 60.05 134.126 134.126 0 49.19 5.371 98.232 16.019 146.256z" fill="#fff0ad"/><g fill="#ffe177"><path d="m261.373 66.992c-37.039 0-70.578 15.019-94.852 39.283-24.274 24.274-39.283 57.813-39.283 94.842 0 49.196-5.365 98.232-16.016 146.261l-16.405 73.998h-24.933l16.405-73.998c10.651-48.029 16.016-97.065 16.016-146.261 0-37.029 15.009-70.568 39.283-94.842 24.274-24.264 57.812-39.283 94.852-39.283z"/><path d="m446.339 402.832v41.392c0 6.698-5.443 12.141-12.141 12.141h-358.395c-.101 0-.213 0-.314-.01-6.556-.162-11.828-5.534-11.828-12.131v-41.392c0-6.708 5.443-12.141 12.141-12.141h358.394c6.699-.001 12.143 5.433 12.143 12.141z"/><path d="m305.781 8.094v98.092h-101.562v-98.092c0-4.472 3.622-8.094 8.094-8.094h85.374c4.472 0 8.094 3.622 8.094 8.094z"/></g><path d="m237.132 0c-4.543 0-8.226 3.683-8.226 8.226v97.961h-24.688v-98.093c0-4.472 3.622-8.094 8.094-8.094z" fill="#ffc344"/><path d="m255 54.991v61.375l-119.917 27.409-9.835 2.246c-11.585 2.651-22.634-6.152-22.634-18.04v-84.616c0-11.878 11.049-20.681 22.634-18.04l9.824 2.246z" fill="#eb5569"/><path d="m135.083 143.775-9.835 2.246c-11.585 2.651-22.634-6.152-22.634-18.04v-84.616c0-11.878 11.049-20.681 22.634-18.04l9.824 2.246c-4.664 3.359-7.771 8.863-7.771 15.258v85.698c.002 6.384 3.118 11.899 7.782 15.248z" fill="#e53950"/><path d="m255 116.364 129.756 29.658c11.585 2.648 22.627-6.155 22.627-18.038v-84.616c0-11.884-11.042-20.686-22.627-18.038l-129.756 29.658z" fill="#eb5569"/><path d="m407.385 43.375v84.605c0 11.888-11.049 20.681-22.634 18.04l-68.518-15.662-24.688-5.646v-78.069l24.688-5.646 68.518-15.673c11.585-2.65 22.634 6.163 22.634 18.051z" fill="#eb5569"/><path d="m316.233 40.998v89.36l-24.687-5.645v-78.07z" fill="#e53950"/><path d="m293.094 53.756v63.833c0 10.057-8.155 18.212-18.212 18.212h-39.763c-10.057 0-18.212-8.155-18.212-18.212v-63.833c0-10.057 8.155-18.212 18.212-18.212h39.763c10.057 0 18.212 8.155 18.212 18.212z" fill="#eb5569"/><path d="m260.099 135.802h-24.981c-10.057 0-18.212-8.155-18.212-18.212v-63.834c0-10.057 8.155-18.212 18.212-18.212h24.981c-10.219 0-18.506 8.286-18.506 18.506v63.257c.001 10.218 8.287 18.495 18.506 18.495z" fill="#e53950"/><path d="m100.683 456.355h-25.194c-6.556-.162-11.828-5.534-11.828-12.131v-41.392c0-6.708 5.443-12.141 12.141-12.141h24.88c-6.809 0-12.334 5.524-12.334 12.334v40.998c.001 6.818 5.525 12.332 12.335 12.332z" fill="#ffc344"/></g></svg>