<svg id="Capa_1" enable-background="new 0 0 512.003 512.003" height="512" viewBox="0 0 512.003 512.003" width="512" xmlns="http://www.w3.org/2000/svg"><g><g><path d="m212.495 451.954c-4.143 0-7.5-3.357-7.5-7.5v-131.927c0-4.143 3.357-7.5 7.5-7.5s7.5 3.357 7.5 7.5v131.927c0 4.142-3.358 7.5-7.5 7.5z" fill="#dff6fd"/></g><g><path d="m306.955 456.703c-4.143 0-7.5-3.357-7.5-7.5v-147.23c0-4.143 3.357-7.5 7.5-7.5s7.5 3.357 7.5 7.5v147.23c0 4.142-3.358 7.5-7.5 7.5z" fill="#dff6fd"/></g><path d="m169.678 264.082c0 9.62-3.9 18.33-10.2 24.63-6.31 6.3-15.02 10.2-24.63 10.2h-96.05c-19.23 0-34.82-15.59-34.82-34.83 0-8.23 2.86-15.79 7.63-21.75 4.77-5.95 11.47-10.31 19.14-12.13 2.85-.68 5.21-2.78 6.06-5.59 4.5-14.93 18.29-25.82 34.66-25.95.1-.01.21-.01.31-.01 18.16 0 33.22 13.25 36.05 30.6h27.02c19.23.001 34.83 15.6 34.83 34.83z" fill="#c8effe"/><path d="m36.438 242.332c-4.78 5.96-7.63 13.52-7.63 21.75 0 19.24 15.6 34.83 34.83 34.83h-24.84c-19.23 0-34.82-15.59-34.82-34.83 0-8.23 2.86-15.79 7.63-21.75 4.77-5.95 11.47-10.31 19.14-12.13 2.85-.68 5.21-2.78 6.06-5.59 4.5-14.93 18.29-25.82 34.66-25.95 4.31.07 8.43.9 12.25 2.34-10.56 3.98-18.79 12.72-22.08 23.61-.84 2.81-3.2 4.91-6.06 5.59-7.671 1.82-14.37 6.171-19.14 12.13z" fill="#99e6fc"/><path d="m450.278 200.332-153.99 154c-8.04 8.04-18.06 12.87-28.49 14.5-15.76 2.48-32.45-2.36-44.59-14.5l-153.99-154c-22.92-22.91-34.37-52.95-34.37-82.98s11.45-60.07 34.37-82.98c23.84-23.84 55.39-35.28 86.63-34.31 28.8.89 57.34 12.33 79.33 34.31l18.72 18.73c3.23 3.23 8.47 3.23 11.69 0l18.73-18.73c45.83-45.83 120.13-45.83 165.96 0 45.829 45.831 45.829 120.131 0 165.96z" fill="#f58a97"/><path d="m267.798 368.832c-15.76 2.48-32.45-2.36-44.59-14.5l-153.99-154c-22.92-22.91-34.37-52.95-34.37-82.98s11.45-60.07 34.37-82.98c23.84-23.84 55.39-35.28 86.63-34.31-23.39 3.87-45.83 14.89-63.86 33.08-22.92 23.11-34.38 53.38-34.38 83.66s11.46 60.56 34.38 83.66l153.99 155.26c6.31 6.36 13.83 10.74 21.82 13.11z" fill="#f07281"/><path d="m317.647 436.003v63.6c0 6.85-5.55 12.4-12.4 12.4h-91c-6.85 0-12.4-5.55-12.4-12.4v-63.6c0-4.57 3.7-8.27 8.26-8.27h99.27c4.571-.001 8.27 3.699 8.27 8.27z" fill="#c68d7a"/><path d="m239.078 512.003h-24.83c-6.85 0-12.4-5.55-12.4-12.4v-63.6c0-4.57 3.7-8.27 8.26-8.27h24.84c-4.57 0-8.27 3.7-8.27 8.27v63.6c0 6.849 5.55 12.4 12.4 12.4z" fill="#bc7c63"/><path d="m480.238 387.703v.16h-96.04c-16.46 0-29.63-14.12-28.05-30.9 1.18-12.56 10.83-22.94 23.26-25.05 1.96-.33 3.88-.45 5.75-.39 3.68.13 7.04-2.09 8.12-5.61 4.81-15.63 19.36-27 36.57-27 3.32 0 6.54.42 9.6 1.22 11.26 2.91 20.51 10.82 25.24 21.22 1.5 3.29 4.97 5.3 8.55 4.85 2.19-.27 4.44-.31 6.75-.1 14.8 1.37 26.71 13.38 27.93 28.19 1.41 17.189-11.23 31.739-27.68 33.41z" fill="#c8effe"/><path d="m440.768 300.582c-11.29 4.06-20.11 13.32-23.66 24.92-1.07 3.55-4.44 5.77-8.12 5.65-1.87-.06-3.79.06-5.75.39-12.42 2.13-22.07 12.58-23.26 25.21-1.57 16.9 11.6 31.11 28.06 31.11h-23.84c-16.46 0-29.63-14.12-28.05-30.9 1.18-12.56 10.83-22.94 23.26-25.05 1.96-.33 3.88-.45 5.75-.39 3.68.13 7.04-2.09 8.12-5.61 4.81-15.63 19.36-27 36.57-27 3.32 0 6.54.42 9.6 1.22.44.14.88.29 1.32.45z" fill="#99e6fc"/></g></svg>