<svg id="Capa_1" enable-background="new 0 0 510 510" height="512" viewBox="0 0 510 510" width="512" xmlns="http://www.w3.org/2000/svg"><g><path d="m393.469 12.189v485.622c0 6.734-5.454 12.189-12.189 12.189h-364.273c-6.724 0-12.189-5.454-12.189-12.189v-485.622c0-6.735 5.465-12.189 12.189-12.189h364.273c6.734 0 12.189 5.454 12.189 12.189z" fill="#fff0ad"/><path d="m42.797 510h-25.79c-6.724 0-12.189-5.454-12.189-12.189v-485.622c0-6.735 5.465-12.189 12.189-12.189h25.464c-6.836.162-12.321 5.779-12.321 12.636v484.718c.001 6.988 5.659 12.646 12.647 12.646z" fill="#ffe177"/><path d="m349.24 76.657v356.685c0 1.067-.833 1.95-1.899 2.021-15.307.934-27.577 13.194-28.512 28.512-.071 1.066-.955 1.899-2.021 1.899h-235.336c-1.067 0-1.95-.833-2.021-1.899-.935-15.388-13.194-28.522-28.522-29.527-1.067-.071-1.889-.955-1.889-2.021v-355.67c0-1.066.833-1.95 1.899-2.021 15.317-.934 27.577-13.205 28.522-28.512.061-1.066.945-1.899 2.021-1.899h235.325c1.066 0 1.96.833 2.021 1.899.945 15.307 13.194 27.577 28.522 28.512 1.067.071 1.89.955 1.89 2.021z" fill="#f2fbff"/><path d="m105.85 465.775h-24.378c-1.067 0-1.95-.833-2.021-1.899-.935-15.388-13.194-28.522-28.522-29.527-1.067-.071-1.889-.955-1.889-2.021v-355.671c0-1.066.833-1.95 1.899-2.021 15.317-.934 27.577-13.205 28.522-28.512.061-1.066.945-1.899 2.021-1.899h24.378c-1.077 0-1.96.833-2.021 1.899-.945 15.307-13.205 27.577-28.522 28.512-1.067.071-1.899.955-1.899 2.021v355.67c0 1.067.823 1.95 1.889 2.021 15.327 1.006 27.587 14.139 28.522 29.527.07 1.067.954 1.9 2.021 1.9z" fill="#dff6fd"/><path d="m503.524 400.331-22.58 30.513-5.109 6.897-5.125-3.756c-3.372 4.55-3.954 5.717-7.326 1.167l-2.785 2.578-27.679-37.399c-2.56-3.453-2.113-8.278 1.046-11.193l34.261-31.762 12.504 11.59 21.747 20.172c3.158 2.915 3.605 7.74 1.046 11.193z" fill="#685e68"/><path d="m480.942 430.841-5.109 6.897-5.123-9.263c-3.372 4.551-2.654 11.305-6.026 6.754l-4.087 2.499-17.501-23.646-10.178-13.753c-2.56-3.453-2.113-8.278 1.046-11.193l34.261-31.762 12.504 11.59-21.269 19.715c-2.296 2.113-3.22 5.201-2.641 8.095.224 1.259.752 2.488 1.554 3.575z" fill="#554e56"/><path d="m489.872 95.957 9.954 7.333v113.376l-18.763 24.951 18.763 18.248v101.248c0 4.652-3.768 8.431-8.42 8.431h-46.368c-4.662 0-8.431-3.779-8.431-8.431v-101.248l11.521-16.844-11.521-26.355v-113.376l6.542-7.971c0-17.298 10.933-9.661 28.17-9.915.162-.01-1.289-8.254-1.126-8.254 8.735 0 4.464 7.982 10.182 13.701 5.719 5.729 9.497-3.619 9.497 5.106z" fill="#685e68"/><path d="m461.939 94.707v8.583 257.824c0 4.652 3.768 8.431 8.421 8.431h-25.322c-4.662 0-8.431-3.779-8.431-8.431v-100.603l13.435-20.681-13.435-23.164v-113.376l9.35-5.29c0-17.298-.514-23.235 16.723-23.489 4.51.071.235-1.149 4.085.638-10.888 4.977-4.826 6.79-4.826 19.558z" fill="#554e56"/><path d="m499.822 94.707v8.583h-63.219v-8.705c0-.274 0-.549.01-.823.498-16.861 14.19-30.411 31.112-30.665.163-.01.325-.01.488-.01 4.408 0 8.593.904 12.402 2.529 3.738 1.595 7.11 3.89 9.954 6.734 5.719 5.729 9.253 13.632 9.253 22.357z" fill="#fff0ad"/><path d="m480.909 65.748c-10.868 4.764-18.537 15.47-18.903 28.014-.01.274-.01.549-.01.823v8.705h-25.393v-8.705c0-.274 0-.549.01-.823.498-16.861 14.19-30.411 31.112-30.665.163-.01.325-.01.488-.01 4.408 0 8.593.904 12.402 2.529.101.041.203.082.294.132z" fill="#ffe177"/><path d="m436.607 216.666h63.219v43.199h-63.219z" fill="#fff0ad"/><path d="m436.607 216.666h25.332v43.199h-25.332z" fill="#ffe177"/><g><path d="m300.479 233.457h-202.668c-4.142 0-7.5-3.357-7.5-7.5s3.358-7.5 7.5-7.5h202.669c4.142 0 7.5 3.357 7.5 7.5s-3.358 7.5-7.501 7.5z" fill="#dff6fd"/></g><g><path d="m300.479 272.153h-202.668c-4.142 0-7.5-3.357-7.5-7.5s3.358-7.5 7.5-7.5h202.669c4.142 0 7.5 3.357 7.5 7.5s-3.358 7.5-7.501 7.5z" fill="#dff6fd"/></g><g><path d="m300.479 310.849h-202.668c-4.142 0-7.5-3.357-7.5-7.5s3.358-7.5 7.5-7.5h202.669c4.142 0 7.5 3.357 7.5 7.5s-3.358 7.5-7.501 7.5z" fill="#dff6fd"/></g><g><path d="m300.479 349.544h-202.668c-4.142 0-7.5-3.357-7.5-7.5s3.358-7.5 7.5-7.5h202.669c4.142 0 7.5 3.357 7.5 7.5s-3.358 7.5-7.501 7.5z" fill="#dff6fd"/></g><g><path d="m300.479 388.239h-202.668c-4.142 0-7.5-3.357-7.5-7.5s3.358-7.5 7.5-7.5h202.669c4.142 0 7.5 3.357 7.5 7.5s-3.358 7.5-7.501 7.5z" fill="#dff6fd"/></g><g><path d="m300.484 426.938h-81.939c-4.142 0-7.5-3.357-7.5-7.5s3.358-7.5 7.5-7.5h81.939c4.142 0 7.5 3.357 7.5 7.5s-3.358 7.5-7.5 7.5z" fill="#dff6fd"/></g><g><path d="m179.746 426.938h-81.94c-4.142 0-7.5-3.357-7.5-7.5s3.358-7.5 7.5-7.5h81.939c4.142 0 7.5 3.357 7.5 7.5s-3.357 7.5-7.499 7.5z" fill="#dff6fd"/></g><g><g><path d="m164.887 194.762c-32.903 0-59.672-26.77-59.672-59.673s26.769-59.673 59.672-59.673c32.904 0 59.673 26.77 59.673 59.673s-26.769 59.673-59.673 59.673zm0-104.346c-24.632 0-44.672 20.04-44.672 44.673s20.04 44.673 44.672 44.673c24.633 0 44.673-20.04 44.673-44.673s-20.04-44.673-44.673-44.673z" fill="#dff6fd"/></g><g><path d="m233.403 194.762c-32.904 0-59.673-26.77-59.673-59.673s26.769-59.673 59.673-59.673c32.903 0 59.672 26.77 59.672 59.673s-26.768 59.673-59.672 59.673zm0-104.346c-24.633 0-44.673 20.04-44.673 44.673s20.04 44.673 44.673 44.673c24.632 0 44.672-20.04 44.672-44.673s-20.039-44.673-44.672-44.673z" fill="#dff6fd"/></g></g><g><path d="m475.833 405.173v32.564l-.833 1.128c-3.372 4.551-10.188 4.551-13.56 0l-.843-1.137v-32.554c0-.549.061-1.087.173-1.595.731-3.443 3.789-6.023 7.445-6.023 4.205-.001 7.618 3.412 7.618 7.617z" fill="#f2fbff"/></g><path d="m475.739 423.934v13.804l-.833 1.127c-3.372 4.551-10.188 4.551-13.56 0l-.843-1.137v-32.554c0-.549.061-1.087.173-1.595z" fill="#dff6fd"/></g></svg>