<svg id="Capa_1" enable-background="new 0 0 510 510" height="512" viewBox="0 0 510 510" width="512" xmlns="http://www.w3.org/2000/svg"><g><path d="m478.736 255c0 15.544 11.341 28.437 26.201 30.856 2.913.474 5.063 2.968 5.063 5.919v15.824c0 2.951-2.15 5.444-5.063 5.919-13.211 2.152-23.641 12.587-25.793 25.793-.475 2.913-2.968 5.063-5.919 5.063h-285.694c0-17.258-13.996-31.264-31.264-31.264v-116.22c17.268 0 31.264-14.006 31.264-31.264h285.694c2.951 0 5.444 2.15 5.919 5.063 2.152 13.206 12.582 23.641 25.793 25.793 2.913.474 5.063 2.968 5.063 5.919v15.824c0 2.951-2.151 5.445-5.063 5.919-14.86 2.419-26.201 15.312-26.201 30.856z" fill="#fff0ad"/><path d="m245.521 165.626h50.221v178.748h-50.221z" fill="#ffe177"/><path d="m437.487 199.188v48.575c0 2.246-1.819 4.066-4.066 4.066h-116.929c-2.246 0-4.066-1.819-4.066-4.066v-48.575c0-2.246 1.819-4.066 4.066-4.066h116.929c2.247.001 4.066 1.82 4.066 4.066z" fill="#c8effe"/><path d="m341.639 251.829h-25.146c-2.246 0-4.066-1.819-4.066-4.066v-48.575c0-2.246 1.819-4.066 4.066-4.066h25.146c-2.307 0-4.167 1.86-4.167 4.167v48.371c-.001 2.309 1.859 4.169 4.167 4.169z" fill="#99e6fc"/><path d="m270.703 76.608v356.783c0 6.902-5.59 12.512-12.502 12.512h-214.109l-7.934-4.337-7.313 4.337h-16.343c-6.912.001-12.502-5.61-12.502-12.511v-356.784c0-6.902 5.59-12.512 12.502-12.512h16.344l7.623 4.359 7.623-4.359h214.109c6.911 0 12.502 5.611 12.502 12.512z" fill="#678d98"/><path d="m32.966 443.46-4.12 2.443h-16.344c-6.912.001-12.502-5.61-12.502-12.511v-356.784c0-6.902 5.59-12.512 12.502-12.512h16.344l2.608 1.491s-.358-.149-2.608 2.031c-2.35 2.276-3.811 5.465-3.811 8.99v356.783c0 3.451 1.4 6.579 3.663 8.844z" fill="#537983"/><circle cx="153.589" cy="187.751" fill="#c8effe" r="87.724"/><path d="m166.615 274.509c-4.252.646-8.598.969-13.027.969-48.449 0-87.727-39.278-87.727-87.727s39.278-87.727 87.727-87.727c4.429 0 8.775.323 13.027.969-42.269 6.284-74.7 42.738-74.7 86.758s32.431 80.474 74.7 86.758z" fill="#99e6fc"/><path d="m232.12 319.471v45.343c0 4.492-3.639 8.131-8.131 8.131h-140.795c-4.493 0-8.131-3.639-8.131-8.131v-45.343c0-4.492 3.639-8.131 8.131-8.131h140.794c4.493 0 8.132 3.639 8.132 8.131z" fill="#c8effe"/><path d="m108.442 372.945h-25.248c-4.493 0-8.131-3.639-8.131-8.131v-45.343c0-4.492 3.639-8.131 8.131-8.131h25.248c-4.615 0-8.345 3.73-8.345 8.335v44.936c0 4.604 3.73 8.334 8.345 8.334z" fill="#99e6fc"/><g><path d="m214.646 413.856h-122.115c-4.21 0-7.623-3.413-7.623-7.623 0-4.211 3.413-7.623 7.623-7.623h122.114c4.21 0 7.623 3.413 7.623 7.623.001 4.211-3.412 7.623-7.622 7.623z" fill="#dff6fd"/></g><g><path d="m437.485 290.716h-125.056c-4.21 0-7.623-3.413-7.623-7.623 0-4.211 3.413-7.623 7.623-7.623h125.056c4.21 0 7.623 3.413 7.623 7.623s-3.413 7.623-7.623 7.623z" fill="#dff6fd"/></g><g><path d="m437.485 321.979h-125.057c-4.21 0-7.623-3.413-7.623-7.623s3.413-7.623 7.623-7.623h125.057c4.21 0 7.623 3.413 7.623 7.623s-3.413 7.623-7.623 7.623z" fill="#dff6fd"/></g><g><path d="m44.092 423.644v22.26h-15.246v-22.26c0-4.208 3.415-7.623 7.623-7.623 4.218 0 7.623 3.415 7.623 7.623z" fill="#dff6fd"/></g><g><path d="m153.589 283.098c-52.574 0-95.347-42.772-95.347-95.347s42.772-95.347 95.347-95.347 95.347 42.772 95.347 95.347-42.773 95.347-95.347 95.347zm0-175.447c-44.168 0-80.101 35.933-80.101 80.101s35.933 80.101 80.101 80.101 80.101-35.933 80.101-80.101-35.934-80.101-80.101-80.101z" fill="#dff6fd"/></g><g><path d="m153.589 283.098c-25.07 0-43.975-40.99-43.975-95.347s18.905-95.347 43.975-95.347 43.975 40.99 43.975 95.347-18.905 95.347-43.975 95.347zm0-175.447c-11.997 0-28.729 30.473-28.729 80.101s16.733 80.101 28.729 80.101 28.729-30.473 28.729-80.101-16.733-80.101-28.729-80.101z" fill="#dff6fd"/></g><g><path d="m44.092 64.096v323.079c0 4.208-3.405 7.623-7.623 7.623-4.208 0-7.623-3.415-7.623-7.623v-323.079z" fill="#dff6fd"/></g></g></svg>