<svg id="Capa_1" enable-background="new 0 0 503.44 503.44" height="512" viewBox="0 0 503.44 503.44" width="512" xmlns="http://www.w3.org/2000/svg"><g><path d="m489.37 248.54v246.73c0 4.51-3.66 8.17-8.18 8.17h-458.94c-4.52 0-8.18-3.66-8.18-8.17v-246.73z" fill="#dff6fd"/><path d="m46.8 503.44h-24.55c-4.52 0-8.18-3.66-8.18-8.17v-246.73h24.56v246.73c0 4.51 3.66 8.17 8.17 8.17z" fill="#c8effe"/><path d="m73.76 22.62h355.92v211.91h-355.92z" fill="#dff6fd"/><path d="m73.76 22.62h24.56v211.91h-24.56z" fill="#c8effe"/><path d="m500.02 231.55v31.63c0 4.42-3.59 8-8 8h-480.6c-4.41 0-8-3.58-8-8v-31.63c0-4.42 3.59-8 8-8h480.6c4.41 0 8 3.58 8 8z" fill="#c68d7a"/><g fill="#c8effe"><g><path d="m183.19 84.05v58.13c0 2.21-1.79 4-4 4h-58.13c-.07 0-.13 0-.2-.01-2.12-.1-3.8-1.85-3.8-3.99v-58.13c0-2.21 1.79-4 4-4h58.13c2.21 0 4 1.79 4 4z"/><path d="m284.78 84.05v58.13c0 2.21-1.79 4-4 4h-58.12c-.07 0-.13 0-.2-.01-2.12-.1-3.8-1.85-3.8-3.99v-58.13c0-2.21 1.79-4 4-4h58.12c2.21 0 4 1.79 4 4z"/><path d="m386.38 84.05v58.13c0 2.21-1.79 4-4 4h-58.13c-.07 0-.13 0-.2-.01-2.12-.1-3.8-1.85-3.8-3.99v-58.13c0-2.21 1.79-4 4-4h58.13c2.21 0 4 1.79 4 4z"/></g><path d="m124.917 369.729h-58.125c-2.209 0-4-1.791-4-4v-58.125c0-2.209 1.791-4 4-4h58.125c2.209 0 4 1.791 4 4v58.125c0 2.209-1.791 4-4 4z"/><path d="m232.83 307.6v58.13c0 2.21-1.79 4-4 4h-58.13c-2.21 0-4-1.79-4-4v-58.13c0-2.14 1.68-3.89 3.8-3.99.07-.01.13-.01.2-.01h58.13c2.21 0 4 1.79 4 4z"/><path d="m336.74 307.6v58.13c0 2.21-1.79 4-4 4h-58.13c-2.21 0-4-1.79-4-4v-58.13c0-2.14 1.68-3.89 3.8-3.99.07-.01.13-.01.2-.01h58.13c2.21 0 4 1.79 4 4z"/><path d="m440.65 307.6v58.13c0 2.21-1.79 4-4 4h-58.13c-2.21 0-4-1.79-4-4v-58.13c0-2.14 1.68-3.89 3.8-3.99.07-.01.13-.01.2-.01h58.13c2.21 0 4 1.79 4 4z"/><path d="m128.92 408.89v58.13c0 2.21-1.79 4-4 4h-58.13c-2.21 0-4-1.79-4-4v-58.13c0-2.2 1.79-4 4-4h58.13c2.21 0 4 1.8 4 4z"/><path d="m440.65 408.89v58.13c0 2.21-1.79 4-4 4h-58.13c-2.21 0-4-1.79-4-4v-58.13c0-2.2 1.79-4 4-4h58.13c2.21 0 4 1.8 4 4z"/></g><g fill="#99e6fc"><g><path d="m145.71 146.17h-24.85c-2.12-.1-3.8-1.85-3.8-3.99v-58.13c0-2.21 1.79-4 4-4h24.65c-2.26 0-4.09 1.83-4.09 4.09v57.94c0 2.26 1.83 4.09 4.09 4.09z"/><path d="m247.31 146.17h-24.85c-2.12-.1-3.8-1.85-3.8-3.99v-58.13c0-2.21 1.79-4 4-4h24.65c-2.26 0-4.09 1.83-4.09 4.09v57.94c0 2.26 1.83 4.09 4.09 4.09z"/><path d="m348.9 146.17h-24.85c-2.12-.1-3.8-1.85-3.8-3.99v-58.13c0-2.21 1.79-4 4-4h24.65c-2.26 0-4.09 1.83-4.09 4.09v57.94c0 2.26 1.83 4.09 4.09 4.09z"/></g><path d="m91.437 369.728h-25.557c-2.259 0-4.089-1.83-4.089-4.089v-57.943c0-2.259 1.83-4.089 4.089-4.089h25.557c-2.259 0-4.089 1.83-4.089 4.089v57.943c0 2.259 1.83 4.089 4.089 4.089z"/><path d="m195.35 369.73h-24.65c-2.21 0-4-1.79-4-4v-58.13c0-2.14 1.68-3.89 3.8-3.99h24.85c-2.26 0-4.09 1.83-4.09 4.09v57.94c0 2.26 1.83 4.09 4.09 4.09z"/><path d="m299.26 369.73h-24.65c-2.21 0-4-1.79-4-4v-58.13c0-2.14 1.68-3.89 3.8-3.99h24.85c-2.26 0-4.09 1.83-4.09 4.09v57.94c0 2.26 1.83 4.09 4.09 4.09z"/><path d="m403.17 369.73h-24.65c-2.21 0-4-1.79-4-4v-58.13c0-2.14 1.68-3.89 3.8-3.99h24.85c-2.26 0-4.09 1.83-4.09 4.09v57.94c0 2.26 1.83 4.09 4.09 4.09z"/><path d="m91.44 471.02h-24.65c-2.21 0-4-1.79-4-4v-58.13c0-2.2 1.79-4 4-4h24.65c-2.26 0-4.09 1.83-4.09 4.09v57.95c0 2.26 1.83 4.09 4.09 4.09z"/><path d="m403.17 471.02h-24.65c-2.21 0-4-1.79-4-4v-58.13c0-2.2 1.79-4 4-4h24.65c-2.26 0-4.09 1.83-4.09 4.09v57.95c0 2.26 1.83 4.09 4.09 4.09z"/></g><path d="m443.94 8v31.63c0 4.42-3.58 8-8 8h-368.44c-4.42 0-8-3.58-8-8v-31.63c0-4.42 3.58-8 8-8h368.44c4.42 0 8 3.58 8 8z" fill="#c68d7a"/><path d="m36.16 271.18h-24.74c-4.41 0-8-3.58-8-8v-31.63c0-4.42 3.59-8 8-8h24.74c-4.52 0-8.18 3.66-8.18 8.18v31.27c0 4.52 3.66 8.18 8.18 8.18z" fill="#bc7c63"/><path d="m92.23 47.63h-24.73c-4.42 0-8-3.58-8-8v-31.63c0-4.42 3.58-8 8-8h24.73c-4.51 0-8.17 3.66-8.17 8.17v31.28c0 4.52 3.66 8.18 8.17 8.18z" fill="#bc7c63"/><path d="m243.665 413.224c.016-4.598-3.707-8.334-8.305-8.334h-60.48c-4.51 0-8.17 3.66-8.17 8.18v90.37h76.643z" fill="#c68d7a"/><path d="m328.56 404.89h-61.516c-4.585 0-8.303 3.716-8.305 8.302l-.041 90.248h78.032v-90.37c0-4.52-3.66-8.18-8.17-8.18z" fill="#c68d7a"/><path d="m199.44 404.89c-4.52 0-8.18 3.66-8.18 8.18v90.37h-24.55v-90.37c0-4.52 3.66-8.18 8.17-8.18z" fill="#bc7c63"/><path d="m354.26 190.6v38.32c0 6.62-5.37 12-12 12h-181.08c-6.63 0-12-5.38-12-12v-38.32c0-6.63 5.37-12 12-12h181.08c6.63 0 12 5.37 12 12z" fill="#ffeee7"/><path d="m186.01 240.92h-24.83c-6.63 0-12-5.38-12-12v-38.32c0-6.63 5.37-12 12-12h24.83c-6.78 0-12.27 5.49-12.27 12.27v37.78c0 6.77 5.49 12.27 12.27 12.27z" fill="#ffe2db"/></g></svg>