<svg id="Capa_1" enable-background="new 0 0 512 512" height="512" viewBox="0 0 512 512" width="512" xmlns="http://www.w3.org/2000/svg"><g><g><path d="m114.934 214.223c-4.143 0-7.5-3.357-7.5-7.5v-91.714c-17.966-3.62-31.121-20.036-30.413-38.638.747-19.672 16.755-35.668 36.443-36.414 10.41-.404 20.296 3.361 27.794 10.58 7.492 7.214 11.618 16.91 11.618 27.304 0 5.581 4.548 10.122 10.139 10.122 4.143 0 7.5 3.357 7.5 7.5s-3.357 7.5-7.5 7.5c-13.861 0-25.139-11.27-25.139-25.122 0-6.279-2.494-12.138-7.021-16.497-4.534-4.365-10.506-6.63-16.822-6.398-11.898.452-21.571 10.113-22.023 21.995-.451 11.858 8.406 22.245 20.163 23.648 5.851.698 10.262 5.656 10.262 11.533v94.601c-.001 4.143-3.359 7.5-7.501 7.5z" fill="#dff6fd"/></g><path d="m147.92 190.964v49.86h-66.46v-49.86c0-4.42 3.58-8 8-8h50.46c4.41 0 8 3.58 8 8z" fill="#f2fbff"/><path d="m114.45 182.964c-4.54 0-8.24 3.69-8.24 8.24v49.62h-24.75v-49.86c0-4.42 3.58-8 8-8z" fill="#dff6fd"/><path d="m229.38 284.204v115.25c0 5.36-2.86 10.31-7.5 12.99l-94.57 54.65-5.12 2.96c-4.64 2.69-10.36 2.69-15.01 0l-99.69-57.61c-4.63-2.68-7.49-7.63-7.49-12.99v-115.25c0-5.35 2.86-10.3 7.49-12.98l99.69-57.62c4.65-2.68 10.37-2.68 15.01 0l5.12 2.96 94.57 54.66c4.64 2.68 7.5 7.63 7.5 12.98z" fill="#c8effe"/><path d="m31.58 413.025 95.73 54.07-5.12 2.96c-4.64 2.69-10.36 2.69-15.01 0l-99.69-57.61c-4.63-2.68-7.49-7.63-7.49-12.99v-115.25c0-5.35 2.86-10.3 7.49-12.98l99.69-57.62c4.65-2.68 10.37-2.68 15.01 0l5.12 2.96-95.73 54.08c-4.91 2.77-7.95 7.9-7.95 13.46v115.46c0 5.549 3.04 10.679 7.95 13.46z" fill="#99e6fc"/><path d="m195.38 302.094v79.48c0 4.28-2.28 8.24-5.99 10.39l-62.22 35.96-6.48 3.74c-3.71 2.14-8.29 2.14-12.01 0l-68.69-39.7c-3.71-2.15-5.99-6.11-5.99-10.39v-79.48c0-4.28 2.28-8.24 5.99-10.39l68.69-39.7c3.72-2.15 8.3-2.15 12.01 0l6.48 3.74 62.22 35.96c3.71 2.15 5.99 6.11 5.99 10.39z" fill="#f2fbff"/><path d="m64.39 392.564 62.78 35.36-6.48 3.74c-3.71 2.14-8.29 2.14-12.01 0l-68.69-39.7c-3.71-2.15-5.99-6.11-5.99-10.39v-79.48c0-4.28 2.28-8.24 5.99-10.39l68.69-39.7c3.72-2.15 8.3-2.15 12.01 0l6.48 3.74-62.78 35.36c-3.97 2.23-6.41 6.35-6.41 10.81v79.84c0 4.46 2.44 8.58 6.41 10.81z" fill="#dff6fd"/><path d="m150.46 349.204-22.36 22.33-9.79 9.78c-1.61 1.61-4.22 1.61-5.83 0l-33.07-33.05c-9.78-9.77-10.51-26.04-1.19-35.76 7.78-8.11 19.78-9.69 29.47-4.8 1.48.74 2.9 1.63 4.25 2.67 1.49 1.15 3.54 1.15 5.03.02 9.98-7.58 24.54-6.51 33.73 3.06 9.58 9.97 9.28 26.23-.24 35.75z" fill="#f58a97"/><path d="m128.1 371.535-9.79 9.78c-1.61 1.61-4.22 1.61-5.83 0l-33.07-33.05c-9.78-9.77-10.51-26.04-1.19-35.76 7.78-8.11 19.78-9.69 29.47-4.8-1.6 1.02-3.1 2.24-4.48 3.65-9.86 10.08-9.1 26.96 1.26 37.08z" fill="#f07281"/><g><path d="m397.554 214.223c-4.143 0-7.5-3.357-7.5-7.5v-91.714c-17.966-3.62-31.121-20.036-30.414-38.638.748-19.672 16.756-35.668 36.444-36.414 10.41-.404 20.295 3.361 27.794 10.58 7.492 7.214 11.618 16.91 11.618 27.304 0 5.581 4.548 10.122 10.139 10.122 4.143 0 7.5 3.357 7.5 7.5s-3.357 7.5-7.5 7.5c-13.861 0-25.139-11.27-25.139-25.122 0-6.279-2.494-12.138-7.021-16.497-4.534-4.365-10.496-6.63-16.822-6.398-11.897.452-21.572 10.113-22.024 21.996-.45 11.856 8.407 22.244 20.164 23.647 5.851.698 10.262 5.656 10.262 11.533v94.601c-.001 4.143-3.359 7.5-7.501 7.5z" fill="#dff6fd"/></g><path d="m430.54 190.964v49.86h-66.46v-49.86c0-4.42 3.58-8 8-8h50.46c4.41 0 8 3.58 8 8z" fill="#f2fbff"/><path d="m397.07 182.964c-4.54 0-8.24 3.69-8.24 8.24v49.62h-24.75v-49.86c0-4.42 3.58-8 8-8z" fill="#dff6fd"/><path d="m512 284.204v115.25c0 5.36-2.86 10.31-7.5 12.99l-94.57 54.65-5.12 2.96c-4.64 2.69-10.36 2.69-15.01 0l-99.69-57.61c-4.63-2.68-7.49-7.63-7.49-12.99v-115.25c0-5.35 2.86-10.3 7.49-12.98l99.69-57.62c4.65-2.68 10.37-2.68 15.01 0l5.12 2.96 94.57 54.66c4.64 2.68 7.5 7.63 7.5 12.98z" fill="#c8effe"/><path d="m314.2 413.025 95.73 54.07-5.12 2.96c-4.64 2.69-10.36 2.69-15.01 0l-99.69-57.61c-4.63-2.68-7.49-7.63-7.49-12.99v-115.25c0-5.35 2.86-10.3 7.49-12.98l99.69-57.62c4.65-2.68 10.37-2.68 15.01 0l5.12 2.96-95.73 54.08c-4.91 2.77-7.95 7.9-7.95 13.46v115.46c0 5.549 3.04 10.679 7.95 13.46z" fill="#99e6fc"/><path d="m478 302.094v79.48c0 4.28-2.28 8.24-5.99 10.39l-62.22 35.96-6.48 3.74c-3.71 2.14-8.29 2.14-12.01 0l-68.69-39.7c-3.71-2.15-5.99-6.11-5.99-10.39v-79.48c0-4.28 2.28-8.24 5.99-10.39l68.69-39.7c3.72-2.15 8.3-2.15 12.01 0l6.48 3.74 62.22 35.96c3.71 2.15 5.99 6.11 5.99 10.39z" fill="#f2fbff"/><path d="m347.01 392.564 62.78 35.36-6.48 3.74c-3.71 2.14-8.29 2.14-12.01 0l-68.69-39.7c-3.71-2.15-5.99-6.11-5.99-10.39v-79.48c0-4.28 2.28-8.24 5.99-10.39l68.69-39.7c3.72-2.15 8.3-2.15 12.01 0l6.48 3.74-62.78 35.36c-3.97 2.23-6.41 6.35-6.41 10.81v79.84c0 4.46 2.44 8.58 6.41 10.81z" fill="#dff6fd"/><path d="m433.08 349.204-22.36 22.33-9.79 9.78c-1.61 1.61-4.22 1.61-5.83 0l-33.07-33.05c-9.78-9.77-10.51-26.04-1.19-35.76 7.78-8.11 19.78-9.69 29.47-4.8 1.48.74 2.9 1.63 4.25 2.67 1.49 1.15 3.54 1.15 5.03.02 9.98-7.58 24.54-6.51 33.73 3.06 9.58 9.97 9.28 26.23-.24 35.75z" fill="#f58a97"/><path d="m410.72 371.535-9.79 9.78c-1.61 1.61-4.22 1.61-5.83 0l-33.07-33.05c-9.78-9.77-10.51-26.04-1.19-35.76 7.78-8.11 19.78-9.69 29.47-4.8-1.6 1.02-3.1 2.24-4.48 3.65-9.86 10.08-9.1 26.96 1.26 37.08z" fill="#f07281"/></g></svg>