<svg id="Capa_1" enable-background="new 0 0 508.24 508.24" height="512" viewBox="0 0 508.24 508.24" width="512" xmlns="http://www.w3.org/2000/svg"><g><path d="" style="fill:none;stroke:#000;stroke-width:15;stroke-linecap:round;stroke-linejoin:round;stroke-miterlimit:10"/><path d="m409.43 18.59v471.06c0 10.26-8.32 18.59-18.59 18.59h-273.44c-10.27 0-18.59-8.33-18.59-18.59v-471.06c0-10.26 8.32-18.59 18.59-18.59h273.44c10.27 0 18.59 8.33 18.59 18.59z" fill="#c8effe"/><path d="m142.23 508.24h-24.83c-10.27 0-18.59-8.33-18.59-18.59v-471.06c0-10.26 8.32-18.59 18.59-18.59h24.83c-10.27 0-18.6 8.33-18.6 18.59v471.06c0 10.26 8.33 18.59 18.6 18.59z" fill="#99e6fc"/><path d="m409.435 452.267v37.38c0 10.27-8.33 18.59-18.6 18.59h-273.43c-10.27 0-18.6-8.32-18.6-18.59v-37.38z" fill="#685e68"/><g><path d="m304.107 418.178h-105.367c-35.424 0-64.243-28.819-64.243-64.243 0-17.158 6.683-33.29 18.817-45.426 12.135-12.135 28.268-18.817 45.426-18.817h125.304c19.133 0 34.698-15.565 34.698-34.698 0-9.266-3.609-17.982-10.162-24.544-6.555-6.546-15.271-10.154-24.536-10.154h-75.564c-4.143 0-7.5-3.357-7.5-7.5s3.357-7.5 7.5-7.5h75.564c13.269 0 25.749 5.166 35.143 14.548 9.389 9.4 14.556 21.882 14.556 35.15 0 27.403-22.295 49.698-49.698 49.698h-125.305c-13.151 0-25.517 5.123-34.818 14.425s-14.425 21.667-14.425 34.818c0 27.152 22.091 49.243 49.243 49.243h105.366c4.143 0 7.5 3.357 7.5 7.5s-3.357 7.5-7.499 7.5z" fill="#f2fbff"/></g><path d="m341.935 372.857-25.43 25.43-12.39 12.39-37.83-37.82c-10.22-10.22-10.86-27.56-.92-38.07 8.25-8.71 20.82-10.69 31.03-5.94 2.27 1.05 4.42 2.43 6.38 4.15.76.67 1.91.67 2.67 0 10.8-9.45 27.34-8.85 37.41 1.79 9.94 10.51 9.3 27.85-.92 38.07z" fill="#f58a97"/><path d="m316.505 398.287-12.39 12.39-37.83-37.82c-10.22-10.22-10.86-27.56-.92-38.07 8.25-8.71 20.82-10.69 31.03-5.94-2.01 1.25-3.89 2.8-5.6 4.63-10.12 10.91-9.47 28.93.95 39.56z" fill="#f07281"/><path d="m294.179 129.558c.358 28.854-45.7 83.234-45.7 83.234s-42.859-53.278-43.216-82.132 19.257-52.491 43.81-52.796 44.748 22.841 45.106 51.694z" fill="#eb5569"/><circle cx="249.72" cy="125.7" fill="#dff6fd" r="16.171"/><path d="m142.225 508.237h-24.82c-10.27 0-18.6-8.32-18.6-18.59v-37.38h24.83v37.38c0 10.27 8.32 18.59 18.59 18.59z" fill="#554e56"/><path d="m347.09 0v23.88c0 6.85-5.55 12.4-12.4 12.4h-161.15c-6.84 0-12.39-5.55-12.39-12.4v-23.88z" fill="#685e68"/><path d="m198.37 36.28h-24.83c-6.84 0-12.39-5.55-12.39-12.4v-23.88h24.82v23.88c0 6.85 5.55 12.4 12.4 12.4z" fill="#554e56"/></g></svg>