<svg id="Capa_1" enable-background="new 0 0 498.98 498.98" height="512" viewBox="0 0 498.98 498.98" width="512" xmlns="http://www.w3.org/2000/svg"><g><path d="m382.62 106.91h39.36v137.39h-39.36z" fill="#c68d7a"/><path d="m221.38 102.08h39.36v137.39h-39.36z" fill="#c68d7a"/><path d="m382.62 106.91h24.34v137.39h-24.34z" fill="#bc7c63"/><path d="m221.38 102.08h24.34v137.39h-24.34z" fill="#bc7c63"/><path d="m95.875 244.301h-49.899v-136.68h136.68v50.893c0 3.146-2.431 5.761-5.569 5.977-39.825 2.731-72.434 34.501-75.236 74.253-.221 3.133-2.835 5.557-5.976 5.557z" fill="#ffe2db"/><path d="m492.946 92.058c0 8.404-3.406 16.007-8.911 21.502-5.505 5.505-13.108 8.911-21.502 8.911h-432.118v-58.372c0-1.359 1.095-2.453 2.443-2.453h429.675c16.788-.001 30.413 13.614 30.413 30.412z" fill="#c68d7a"/><path d="m44.976 61.645h40.197v60.826h-40.197z" fill="#bc7c63"/><path d="m60.82 31.89v463.2c0 1.1-.89 2-2 2h-56.82c-1.11 0-2-.9-2-2v-463.2c0-16.57 13.43-30 30-30h.82c3.49 0 6.85.6 9.96 1.7 11.67 4.1 20.04 15.22 20.04 28.3z" fill="#c68d7a"/><path d="m24.35 30.78v466.01c0 .1.01.2.02.3h-22.37c-1.11 0-2-.9-2-2v-463.2c0-16.57 13.43-30 30-30h.82c3.49 0 6.85.6 9.96 1.7-9.76 5.08-16.43 15.34-16.43 27.19z" fill="#bc7c63"/><path d="m498.98 233.45v215.11c0 4.42-3.58 8-8 8h-332.56c-4.42 0-8-3.58-8-8v-215.11c0-4.42 3.58-8 8-8h332.56c4.42 0 8 3.58 8 8z" fill="#dff6fd"/><path d="m182.87 456.56h-24.45c-4.42 0-8-3.58-8-8v-215.11c0-4.42 3.58-8 8-8h24.45c-4.47 0-8.11 3.63-8.11 8.11v214.89c0 4.48 3.64 8.11 8.11 8.11z" fill="#c8effe"/><path d="m283.688 257.052c-46.365 0-69.751 37.586-69.751 83.951s23.387 83.951 69.751 83.951 83.951-37.586 83.951-83.951-37.586-83.951-83.951-83.951zm0 139.191c-30.508 0-55.24-24.732-55.24-55.24s24.732-55.24 55.24-55.24 55.24 24.732 55.24 55.24-24.731 55.24-55.24 55.24z" fill="#fff0ad"/><path d="m225.098 341.003c0-42.078 30.95-76.933 71.324-83.05-4.139-.629-8.369-.954-12.68-.954-46.389 0-84.004 37.614-84.004 84.004 0 46.399 37.615 84.004 84.004 84.004 4.311 0 8.541-.325 12.68-.953-40.374-6.108-71.324-40.963-71.324-83.051z" fill="#ffe177"/><path d="m365.712 257.052c-46.365 0-83.951 37.586-83.951 83.951s37.586 83.951 83.951 83.951 83.951-37.586 83.951-83.951-37.587-83.951-83.951-83.951zm0 139.191c-30.508 0-55.24-24.732-55.24-55.24s24.732-55.24 55.24-55.24 55.24 24.732 55.24 55.24c-.001 30.508-24.732 55.24-55.24 55.24z" fill="#fff0ad"/></g></svg>