<svg id="Capa_1" enable-background="new 0 0 503.518 503.518" height="512" viewBox="0 0 503.518 503.518" width="512" xmlns="http://www.w3.org/2000/svg"><g><path d="m479.728 228.479v.16l-101.92-34.46-11.54-3.9c-.65-1.93-1.34-3.83-2.09-5.71-17.58-44.64-61.13-76.31-111.92-76.31-51.61 0-95.74 32.69-112.74 78.47-.73 1.93-1.39 3.89-2.01 5.87 0 0 0 0-11.01 3.89-11.15 3.96-32.15 5.45-78.1 25.24-2.63 1.13-5.35 2.32-8.15 3.58-4.88 2.19-10.01 4.58-15.42 7.18-.01-.57-.02-1.13-.03-1.7-.01-.77-.01-1.54-.01-2.31 0-125.63 101.84-227.47 227.47-227.47.68 0 1.37 0 2.05.01 124.69 1.1 225.42 102.51 225.42 227.46z" fill="#eb5569"/><path d="m256.658 36.809c-.01 0-.01 0-.01 0-1.46-.03-2.92-.05-4.39-.05-94.67 0-173.54 68.97-188.98 159.31-.06.34-.11.67-.17 1.01 22.44-.21 43.54-.4 63.39-.59 11.01-3.89 11.01-3.89 11.01-3.89.62-1.98 1.28-3.94 2.01-5.87 17-45.78 61.13-78.47 112.74-78.47 50.79 0 94.34 31.67 111.92 76.31.75 1.88 1.44 3.78 2.09 5.71l11.54 3.9c62.99-.58 62.99-.58 62.99-.58-16.19-87.71-92.3-154.71-184.14-156.79z" fill="#fff0ad"/><path d="m252.258 36.759c-94.67 0-173.54 68.97-188.98 159.31 8.32-.09 16.45-.16 24.4-.23 14.05-84.22 83.18-150.03 168.97-159.03-1.46-.03-2.92-.05-4.39-.05z" fill="#ffe177"/><path d="m254.308 1.019c-113.69 10.64-203.04 104.94-205.91 220.71-.01.24-.01.47-.02.71-2.63.93-5.34 1.89-8.13 2.87-4.89 1.74-10.04 3.56-15.45 5.48-.01-.77-.01-1.54-.01-2.31 0-125.63 101.84-227.47 227.47-227.47.68 0 1.37 0 2.05.01z" fill="#e53950"/><path d="m401.838 184.219s0 0-37.66.35c-17.58-44.64-61.13-76.31-111.92-76.31-51.61 0-95.74 32.69-112.74 78.47-11.99.12-24.55.24-37.66.37.09-.34.19-.68.29-1.01 18.5-65.48 78.8-113.58 150.11-113.58 1.97 0 3.93.04 5.88.12 68.05 2.53 125.1 48.88 143.7 111.59z" fill="#c8effe"/><path d="m258.138 72.629c-63.27 7.56-115.03 53.17-131.67 113.22-7.88.08-15.99.15-24.32.24 18.5-65.48 78.8-113.58 150.11-113.58 1.97 0 3.93.04 5.88.12z" fill="#99e6fc"/><path d="m128.528 389.419c51.99-8.56 91.65-53.7 91.65-108.12 0-60.19-48.53-109.05-108.6-109.59h-1c-59.68.02-108.86 48.47-109.57 108.25-.66 55.01 39.22 100.83 91.64 109.46.99.17 1.71 1.01 1.71 2.01v42.73c0 2.26-1.83 4.08-4.08 4.08h-21.56c-2.26 0-4.09 1.83-4.09 4.09v27.91c0 2.26 1.83 4.09 4.09 4.09h21.56c2.25 0 4.08 1.83 4.08 4.09v20c0 2.26 1.84 4.09 4.09 4.09h24.28c2.25 0 4.08-1.83 4.08-4.09v-20c0-2.26 1.83-4.09 4.09-4.09h21.57c2.26 0 4.09-1.83 4.09-4.09v-27.91c0-2.26-1.83-4.09-4.09-4.09h-21.57c-2.26 0-4.09-1.82-4.09-4.08v-42.73c0-1 .73-1.84 1.72-2.01zm-17.94-32.95c-41.52 0-75.17-33.65-75.17-75.17 0-41.51 33.65-75.18 75.17-75.18s75.18 33.67 75.18 75.18c0 41.52-33.66 75.17-75.18 75.17z" fill="#f58a97"/><path d="m411.869 389.421c51.988-8.559 91.649-53.704 91.649-108.124 0-60.19-48.526-109.053-108.604-109.584-60.108-.531-109.85 48.138-110.575 108.246-.654 55.012 39.231 100.831 91.649 109.462.991.163 1.716 1.011 1.716 2.012v41.652c0 2.257-1.828 4.086-4.086 4.086h-16.291c-3.279 0-5.219 3.667-3.381 6.373l36.596 53.98c1.624 2.39 5.148 2.39 6.762 0l36.596-53.98c1.849-2.707-.102-6.373-3.381-6.373h-16.281c-2.257 0-4.086-1.828-4.086-4.086v-41.652c.001-1.001.726-1.849 1.717-2.012zm-17.946-32.95c-41.519 0-75.174-33.655-75.174-75.174 0-41.509 33.655-75.174 75.174-75.174s75.174 33.665 75.174 75.174c0 41.52-33.655 75.174-75.174 75.174z" fill="#c8effe"/><path d="m382.861 437.171h16.291c2.257 0 4.086-1.828 4.086-4.086v-41.652c0-1.001-.725-1.849-1.716-2.012-52.417-8.631-92.303-54.45-91.649-109.462.674-55.482 43.102-101.219 96.909-107.501-3.902-.46-7.854-.715-11.868-.746-60.108-.531-109.85 48.138-110.575 108.246-.654 55.012 39.231 100.831 91.649 109.462.991.163 1.716 1.011 1.716 2.012v41.652c0 2.257-1.828 4.086-4.086 4.086h-16.291c-3.279 0-5.219 3.667-3.381 6.373l36.596 53.98c1.624 2.39 5.148 2.39 6.762 0l9.387-13.85-27.21-40.13c-1.839-2.705.102-6.372 3.38-6.372z" fill="#99e6fc"/><path d="m118.898 498.419v-20c0-2.26-1.83-4.09-4.09-4.09h-21.56c-2.26 0-4.08-1.83-4.08-4.09v-27.91c0-2.26 1.82-4.09 4.08-4.09h21.56c2.26 0 4.09-1.82 4.09-4.08v-42.73c0-1-.73-1.84-1.72-2.01-52.42-8.63-92.29-54.45-91.64-109.46.67-55.48 43.1-101.22 96.91-107.5-3.89-.46-7.83-.72-11.84-.75h-.03c-60.12-.53-109.86 48.14-110.57 108.25-.66 55.01 39.22 100.83 91.64 109.46.99.17 1.71 1.01 1.71 2.01v42.73c0 2.26-1.83 4.08-4.08 4.08h-20.56c-2.26 0-4.09 1.83-4.09 4.09v27.91c0 2.26 1.83 4.09 4.09 4.09h21.56c2.25 0 4.08 1.83 4.08 4.09v20c0 2.26 1.84 4.09 4.09 4.09h23.28c.21 0 .43-.02.63-.05-1.95-.3-3.46-1.99-3.46-4.04z" fill="#f07281"/></g></svg>