<svg id="Capa_1" enable-background="new 0 0 499.5 499.5" height="512" viewBox="0 0 499.5 499.5" width="512" xmlns="http://www.w3.org/2000/svg"><g><path d="m483.44 130.81-460.55-1.82-6.17-1.43-2.36-2.94 1.59-5.41 228.21-117.03c3.51-1.8 7.67-1.78 11.16.03l5.77 3.01 230.53 120.04z" fill="#dff6fd"/><path d="m261.09 5.219-231.1 118.51h-19.34l5.3-4.52 228.21-117.03c3.51-1.8 7.67-1.78 11.16.03z" fill="#c8effe"/><path d="m82.413 157.324h339.557v303.188h-339.557z" fill="#f2fbff"/><path d="m50.94 141.399h55.68v329.35h-55.68z" fill="#c8effe"/><path d="m50.94 141.399h24.32v329.35h-24.32z" fill="#99e6fc"/><path d="m126.87 143.899v54.94c0 4.42-3.58 8-8 8h-80.17c-4.42 0-8-3.58-8-8v-54.94c0-4.42 3.58-8 8-8h80.17c4.42 0 8 3.58 8 8z" fill="#dff6fd"/><circle cx="249.752" cy="59.769" fill="#c8effe" r="22.238"/><path d="m126.87 419.02v54.94c0 4.42-3.58 8-8 8h-80.17c-4.42 0-8-3.58-8-8v-54.94c0-4.27 3.36-7.77 7.59-7.99.13-.01.27-.01.41-.01h80.17c4.42 0 8 3.589 8 8z" fill="#dff6fd"/><path d="m392.88 141.399h55.68v329.35h-55.68z" fill="#c8effe"/><path d="m392.88 141.399h24.31v329.35h-24.31z" fill="#99e6fc"/><path d="m62.69 206.839h-23.99c-4.42 0-8-3.58-8-8v-54.94c0-4.42 3.58-8 8-8h24.41c-4.48 0-8.1 3.63-8.1 8.1v54.75c0 4.33 3.4 7.871 7.68 8.09z" fill="#c8effe"/><path d="m63.11 481.959h-24.41c-4.42 0-8-3.58-8-8v-54.94c0-4.27 3.36-7.77 7.59-7.99h24.82c-4.48 0-8.1 3.62-8.1 8.1v54.73c0 4.48 3.62 8.1 8.1 8.1z" fill="#c8effe"/><path d="m460.807 206.844h-80.173c-4.418 0-8-3.582-8-8v-54.941c0-4.418 3.582-8 8-8h80.173c4.418 0 8 3.582 8 8v54.941c0 4.418-3.582 8-8 8z" fill="#dff6fd"/><path d="m458.276 480.097h-75.111c-4.418 0-8-3.582-8-8v-51.207c0-4.418 3.582-8 8-8h75.111c4.418 0 8 3.582 8 8v51.207c0 4.419-3.582 8-8 8z" fill="#dff6fd"/><path d="m406.039 206.846h-25.309c-4.475 0-8.099-3.624-8.099-8.099v-54.747c0-4.475 3.624-8.099 8.099-8.099h25.309c-4.475 0-8.099 3.624-8.099 8.099v54.748c0 4.474 3.624 8.098 8.099 8.098z" fill="#c8effe"/><path d="m408.57 480.099h-25.309c-4.475 0-8.099-3.624-8.099-8.099v-51.012c0-4.475 3.624-8.099 8.099-8.099h25.309c-4.475 0-8.099 3.624-8.099 8.099v51.012c0 4.475 3.624 8.099 8.099 8.099z" fill="#c8effe"/><path d="m326.41 294.159v163.01c0 4.04-3.27 7.31-7.31 7.31h-138.7c-4.04 0-7.31-3.27-7.31-7.31v-163.01c0-41.14 33.35-74.48 74.48-74.48h4.37c2.26 0 4.5.1 6.71.3 37.99 3.391 67.76 35.301 67.76 74.18z" fill="#c68d7a"/><path d="m196.4 295.949v161.99c0 2.79 1.5 5.23 3.73 6.54h-19.73c-4.04 0-7.31-3.27-7.31-7.31v-163.01c0-41.14 33.35-74.48 74.48-74.48h4.37c2.26 0 4.5.1 6.71.3-35.46 6.811-62.25 38.24-62.25 75.97z" fill="#bc7c63"/><path d="m499.5 127.209v36.16c0 4.42-3.58 8-8 8h-483.5c-4.42 0-8-3.58-8-8v-36.16c0-4.42 3.58-8 8-8h483.5c4.42 0 8 3.581 8 8z" fill="#c8effe"/><path d="m32.4 171.37h-24.4c-4.42 0-8-3.58-8-8v-36.16c0-4.42 3.58-8 8-8h24.4c-4.46 0-8.1 3.62-8.1 8.1v35.97c0 4.47 3.64 8.09 8.1 8.09z" fill="#99e6fc"/><path d="m499.5 454.49v36.17c0 4.42-3.58 8-8 8h-483.5c-.14 0-.28 0-.41-.01-4.23-.21-7.59-3.71-7.59-7.99v-36.17c0-4.42 3.58-8 8-8h483.5c4.42 0 8 3.58 8 8z" fill="#c8effe"/><path d="m32.4 498.649h-24.81c-4.23-.21-7.59-3.71-7.59-7.99v-36.17c0-4.42 3.58-8 8-8h24.4c-4.46 0-8.1 3.63-8.1 8.1v35.97c0 4.471 3.64 8.09 8.1 8.09z" fill="#99e6fc"/></g></svg>