<svg id="Capa_1" enable-background="new 0 0 495.942 495.942" height="512" viewBox="0 0 495.942 495.942" width="512" xmlns="http://www.w3.org/2000/svg"><g><g><path d="m387.319 195.521c-3.279 0-6.292-2.168-7.219-5.48-1.116-3.989 1.213-8.128 5.201-9.244 26.005-7.277 49.898-28.256 67.279-59.072 17.967-31.858 27.863-72.424 27.863-114.225 0-4.143 3.357-7.5 7.5-7.5s7.5 3.357 7.5 7.5c0 91.581-44.621 170.538-106.099 187.742-.676.19-1.356.279-2.025.279z" fill="#fff0ad"/></g><g><path d="m341.267 195.521c-.669 0-1.349-.09-2.025-.279-61.478-17.204-106.099-96.161-106.099-187.742 0-4.143 3.357-7.5 7.5-7.5s7.5 3.357 7.5 7.5c0 41.801 9.896 82.367 27.862 114.225 17.381 30.816 41.274 51.795 67.279 59.072 3.988 1.116 6.317 5.255 5.201 9.244-.926 3.313-3.939 5.48-7.218 5.48z" fill="#fff0ad"/></g><path d="m451.919 303.242v102.7c0 30.33-24.67 55-55 55h-63.21c-30.33 0-55-24.67-55-55v-102.7c0-30.33 24.67-55 55-55h63.21c30.33 0 55 24.67 55 55z" fill="#ffeee7"/><path d="m376.345 232.32h-22.059c-6.627 0-12-5.373-12-12v-37.941c0-6.627 5.373-12 12-12h22.059c6.627 0 12 5.373 12 12v37.941c0 6.627-5.373 12-12 12z" fill="#fff0ad"/><path d="m377.815 232.23c-.48.06-.97.09-1.47.09h-22.06c-6.63 0-12-5.37-12-12v-37.94c0-6.63 5.37-12 12-12h22.06c.5 0 .99.03 1.47.09-5.94.72-10.53 5.78-10.53 11.91v37.94c0 6.13 4.59 11.19 10.53 11.91z" fill="#ffe177"/><path d="m412.959 349.082c0 22.5-15.59 41.35-36.55 46.35-3.56.85-7.27 1.3-11.09 1.3-26.32 0-47.65-21.33-47.65-47.65 0-25.9 20.67-46.98 46.42-47.63.11-.01.22-.01.33-.01h.13c.26-.01.51-.01.77-.01 26.31 0 47.64 21.34 47.64 47.65z" fill="#fed2a4"/><path d="m376.409 395.432c-3.56.85-7.27 1.3-11.09 1.3-26.32 0-47.65-21.33-47.65-47.65 0-25.9 20.67-46.98 46.42-47.63.11-.01.22-.01.33-.01h.13c4.3.01 8.48.59 12.44 1.67-20.37 5.52-35.35 24.12-35.35 46.24 0 21.9 14.69 40.37 34.77 46.08z" fill="#ffbd86"/><path d="m357.709 460.942h-24c-30.33 0-55-24.67-55-55v-102.7c0-30.33 24.67-55 55-55h24c-30.32 0-55 24.67-55 55v102.7c0 30.33 24.68 55 55 55z" fill="#ffe2db"/><path d="m428.729 431.732v42.65h-125.65v-42.65c0-19.33 15.67-35 35-35h55.65c19.33 0 35 15.67 35 35z" fill="#685e68"/><path d="m362.079 396.732c-19.33 0-35 15.67-35 35v42.65h-24v-42.65c0-19.33 15.67-35 35-35z" fill="#554e56"/><path d="m396.919 213.242h-63.21c-49.71 0-90 40.29-90 90l-26.91 48.496 26.91 54.204c0 49.71 40.29 90 90 90h63.21c49.71 0 90-40.29 90-90v-102.7c0-49.71-40.29-90-90-90zm55 192.7c0 30.33-24.67 55-55 55h-63.21c-30.33 0-55-24.67-55-55v-102.7c0-30.33 24.67-55 55-55h63.21c30.33 0 55 24.67 55 55z" fill="#fff0ad"/><path d="m357.709 495.942h-24c-49.71 0-90-40.29-90-90v-102.7c0-49.71 40.29-90 90-90h24c-49.7 0-90 40.29-90 90v102.7c0 49.71 40.3 90 90 90z" fill="#ffe177"/><path d="m243.709 303.242v102.7c0 49.71-40.29 90-90 90h-63.21c-49.71 0-90-40.29-90-90v-102.7c0-49.71 40.29-90 90-90h63.21c49.71 0 90 40.29 90 90z" fill="#fff0ad"/><path d="m208.709 303.242v102.7c0 30.33-24.67 55-55 55h-63.21c-30.33 0-55-24.67-55-55v-102.7c0-30.33 24.67-55 55-55h63.21c30.33 0 55 24.67 55 55z" fill="#ffeee7"/><path d="m114.499 460.942h-24c-30.33 0-55-24.67-55-55v-102.7c0-30.33 24.67-55 55-55h24c-30.32 0-55 24.67-55 55v102.7c0 30.33 24.68 55 55 55z" fill="#ffe2db"/><path d="m114.499 495.942h-24c-49.71 0-90-40.29-90-90v-102.7c0-49.71 40.29-90 90-90h24c-49.7 0-90 40.29-90 90v102.7c0 49.71 40.3 90 90 90z" fill="#ffe177"/><path d="m161.509 360.032-27.45 27.45-10.54 10.54c-.78.78-2.05.78-2.83 0l-37.99-37.99c-10.84-10.85-11.51-28.52-.96-39.67 8.02-8.47 19.96-10.83 30.16-7.08 3.19 1.16 6.21 2.93 8.89 5.29.75.66 1.88.66 2.63 0 11.25-9.92 28.53-9.32 39.05 1.79 10.55 11.15 9.88 28.82-.96 39.67z" fill="#eb5569"/><path d="m134.059 387.482-10.54 10.54c-.78.78-2.05.78-2.83 0l-37.99-37.99c-10.84-10.85-11.51-28.52-.96-39.67 8.02-8.47 19.96-10.83 30.16-7.08-2.16 1.32-4.19 2.96-6.02 4.9-11.21 11.84-10.5 30.63 1.04 42.16z" fill="#e53950"/></g></svg>