<svg id="Capa_1" enable-background="new 0 0 508.7 508.7" height="512" viewBox="0 0 508.7 508.7" width="512" xmlns="http://www.w3.org/2000/svg"><g><g><path d="m254.35 118.337c-4.142 0-7.5-3.358-7.5-7.5v-27.034c0-4.142 3.358-7.5 7.5-7.5 4.143 0 7.5 3.358 7.5 7.5v27.035c0 4.141-3.357 7.499-7.5 7.499z" fill="#fff0ad"/></g><path d="m353.81 152.15v344.18c0 6.84-5.53 12.37-12.37 12.37h-174.18c-6.83 0-12.37-5.53-12.37-12.37v-344.18c0-6.84 5.54-12.37 12.37-12.37h174.18c6.84 0 12.37 5.53 12.37 12.37z" fill="#eb5569"/><path d="m192.03 508.7h-24.77c-6.83 0-12.37-5.53-12.37-12.37v-344.18c0-6.84 5.54-12.37 12.37-12.37h24.77c-6.84 0-12.37 5.53-12.37 12.37v344.18c0 6.84 5.53 12.37 12.37 12.37z" fill="#e53950"/><path d="m154.89 283.23h198.92v121.98h-198.92z" fill="#f58a97"/><path d="m154.89 283.23h24.77v121.98h-24.77z" fill="#f07281"/><path d="m285.06 346.42-19.17 19.17-10.81 10.8c-.4.4-1.05.4-1.46 0l-29.97-29.97c-8.43-8.43-9.05-22.16-.93-30.88 7.1-7.62 18.22-9.03 26.81-4.23 1.45.82 2.83 1.81 4.11 2.98.41.37 1.01.37 1.42 0 8.82-8.08 22.62-7.66 30.92 1.25 8.12 8.72 7.5 22.45-.92 30.88z" fill="#c8effe"/><path d="m265.89 365.59-10.81 10.8c-.4.4-1.05.4-1.46 0l-29.97-29.97c-8.43-8.43-9.05-22.16-.93-30.88 7.1-7.62 18.22-9.03 26.81-4.23-.71.63-1.39 1.32-2.04 2.07-8.13 9.42-7.5 24.24.92 33.34z" fill="#99e6fc"/><path d="m286.12 50.77c0 13.83-8.83 25.6-21.17 29.96-1.28.45-2.59.82-3.94 1.11-2.14.46-4.37.7-6.66.7-17.54 0-31.77-14.22-31.77-31.77 0-15.21 23.89-42.97 30.24-50.08.82-.92 2.24-.92 3.06 0 1.55 1.74 4.14 4.7 7.17 8.41.08.09.15.18.23.28.56.68 1.13 1.39 1.71 2.12 9.23 11.56 21.13 28.54 21.13 39.27z" fill="#ffe177"/><path d="m261.01 81.84c-2.14.46-4.37.7-6.66.7-17.54 0-31.77-14.22-31.77-31.77 0-15.21 23.89-42.97 30.24-50.08.82-.92 2.24-.92 3.06 0 1.55 1.74 4.14 4.7 7.17 8.41.08.09.15.18.23.28.56.68 1.13 1.39 1.71 2.12-8.74 12.68-18.64 29.45-18.64 40.41 0 12.56 5.85 23.62 14.66 29.93z" fill="#ffc344"/><path d="m330.621 110.838h18.13c10.246 0 18.552 8.306 18.552 18.552v33.837c0 10.246-8.306 18.552-18.552 18.552h-29.107c-8.738 0-15.821 7.083-15.821 15.821v25.736c0 10.798-8.754 19.552-19.552 19.552-10.798 0-19.552-8.754-19.552-19.552v-25.736c0-4.37-1.773-8.328-4.638-11.193-3.314-3.314-8.115-5.17-13.321-4.487-7.926 1.039-13.694 8.086-13.694 16.08v41.617c0 12.053-9.771 21.825-21.825 21.825-12.053 0-21.825-9.771-21.825-21.825v-42.016c0-8.738-7.083-15.821-15.821-15.821h-13.645c-10.246 0-18.552-8.306-18.552-18.552v-33.838c0-10.246 8.306-18.552 18.552-18.552h134.597z" fill="#ffeee7"/><path d="m367.3 129.39v33.84c0 10.24-8.3 18.55-18.55 18.55h-29.11c-8.73 0-15.82 7.08-15.82 15.82v25.74c0 5.4-2.19 10.29-5.73 13.83-.6.6-1.25 1.17-1.93 1.69-3.29 2.53-7.42 4.03-11.89 4.03-10.8 0-19.55-8.75-19.55-19.55v-25.74c0-3.76-1.31-7.22-3.52-9.94-.35-.44-.72-.85-1.12-1.25-3.31-3.32-8.11-5.17-13.32-4.49-7.93 1.04-13.69 8.09-13.69 16.08v41.62c0 6.03-2.44 11.48-6.39 15.43-1.42 1.42-3.03 2.64-4.8 3.62-3.15 1.77-6.78 2.77-10.64 2.77-12.05 0-21.82-9.77-21.82-21.82v-42.02c0-8.74-7.09-15.82-15.82-15.82h-13.65c-.64 0-1.27-.03-1.9-.1-9.36-.95-16.65-8.85-16.65-18.45v-33.84c0-10.25 8.3-18.55 18.55-18.55h188.8c10.25 0 18.55 8.3 18.55 18.55z" fill="#ffeee7"/><g fill="#ffe2db"><path d="m221.88 258.67c-3.15 1.77-6.78 2.77-10.64 2.77-12.05 0-21.82-9.77-21.82-21.82v-42.02c0-8.74-7.09-15.82-15.82-15.82h-.24c-.58-.07-1.17-.1-1.76-.1h-13.55c-9.36-.95-16.65-8.85-16.65-18.45v-33.84c0-10.25 8.3-18.55 18.55-18.55h16c-6.37 3-10.79 9.6-10.79 17.24v34.62c0 10.48 8.31 18.98 18.56 18.98h13.64c8.74 0 15.82 7.24 15.82 16.19v42.99c0 7.29 3.42 13.76 8.7 17.81z"/><path d="m296.16 238.86c-3.29 2.53-7.42 4.03-11.89 4.03-10.8 0-19.55-8.75-19.55-19.55v-25.74c0-3.76-1.31-7.22-3.52-9.94 2.5-3.06 6.06-5.2 10.19-5.73 5.31-.71 10.2 1.19 13.59 4.57 2.92 2.93 4.73 6.97 4.73 11.43v26.27c0 5.81 2.48 11.04 6.45 14.66z"/></g></g></svg>