<svg id="Capa_1" enable-background="new 0 0 504.257 504.257" height="512" viewBox="0 0 504.257 504.257" width="512" xmlns="http://www.w3.org/2000/svg"><g><path d="m413.078 504.257h-321.9c-7.18 0-12.8-6.16-12.14-13.31l4.5-49.22.09-1.02 7.73-84.5 7.77-84.82 12.53-136.96c.58-6.27 5.84-11.08 12.14-11.08h256.66c6.3 0 11.56 4.81 12.14 11.08l12.53 136.96 7.77 84.82 7.73 84.5.09 1.02 4.5 49.22c.66 7.15-4.96 13.31-12.14 13.31z" fill="#dff6fd"/><path d="m148.208 123.347c-6.3 0-11.57 4.81-12.15 11.08l-32.62 356.52c-.65 7.15 4.97 13.31 12.14 13.31h-24.4c-7.18 0-12.8-6.16-12.14-13.31l4.59-50.24 7.73-84.5 7.77-84.82 12.53-136.96c.58-6.27 5.84-11.08 12.14-11.08z" fill="#c8effe"/><path d="m412.898 356.207h-321.54l7.77-84.82h306z" fill="#f58a97"/><path d="m123.528 271.387-7.76 84.82h-24.41l7.77-84.82z" fill="#f07281"/><path d="m324.708 321.007-59.45 61.57-9.12 9.44c-1.17 1.21-3.1 1.24-4.31.07l-70.98-68.55c-19.99-19.31-21.47-52.32-2.48-72.61 12.53-13.38 30.46-18.54 47.15-15.34 8.61 1.63 16.88 5.49 23.92 11.59 1.18 1.02 2.93.99 4.07-.08 20.03-18.62 51.48-18.33 71.15 1.27 19.69 19.62 19.361 52.66.05 72.64z" fill="#eb5569"/><path d="m265.258 382.577-9.12 9.44c-1.17 1.21-3.1 1.24-4.31.07l-70.98-68.55c-19.99-19.31-21.47-52.32-2.48-72.61 12.53-13.38 30.46-18.54 47.15-15.34-8.41 2.55-16.29 7.33-22.74 14.33-19 20.62-17.52 54.16 2.48 73.78z" fill="#e53950"/><g><path d="m337.756 153.146c-4.143 0-7.5-3.357-7.5-7.5v-75.841c0-30.22-24.581-54.805-54.795-54.805h-46.666c-30.213 0-54.795 24.585-54.795 54.805v75.842c0 4.143-3.357 7.5-7.5 7.5s-7.5-3.357-7.5-7.5v-75.842c0-38.491 31.31-69.805 69.795-69.805h46.666c38.485 0 69.795 31.314 69.795 69.805v75.842c0 4.142-3.357 7.499-7.5 7.499z" fill="#f2fbff"/></g><g fill="#c8effe"><circle cx="166.496" cy="163.817" r="18.173"/><circle cx="337.761" cy="163.817" r="18.173"/></g><path d="m413.078 504.257h-321.9c-7.18 0-12.8-6.16-12.14-13.31l4.5-49.22h337.18l4.5 49.22c.66 7.15-4.96 13.31-12.14 13.31z" fill="#f58a97"/><path d="m114.988 504.257h-23.81c-7.18 0-12.8-6.16-12.14-13.31l4.5-49.22h24.02l-4.52 49.44c-.64 7.03 4.89 13.09 11.95 13.09z" fill="#f07281"/></g></svg>