<svg id="Capa_1" enable-background="new 0 0 502.92 502.92" height="512" viewBox="0 0 502.92 502.92" width="512" xmlns="http://www.w3.org/2000/svg"><g><g><path d="m298.42 0h-93.91c-39.41 0-71.36 31.95-71.36 71.37v185.33h236.63v-185.33c0-39.42-31.95-71.37-71.36-71.37zm30.58 215.91h-155.07v-144.54c0-16.86 13.71-30.59 30.58-30.59h93.91c16.86 0 30.58 13.73 30.58 30.59z" fill="#dff6fd"/></g><path d="m204.51 0c-39.41 0-71.36 31.95-71.36 71.37v185.33h24.48v-185.33c0-39.42 31.95-71.37 71.37-71.37z" fill="#c8effe"/><path d="m394.68 142.08v64.98h-90.58v-64.98c0-4.42 3.58-8 8-8h74.58c4.42 0 8 3.58 8 8z" fill="#685e68"/><path d="m336.74 134.08c-4.5 0-8.15 3.65-8.15 8.15v64.83h-24.49v-64.98c0-4.42 3.58-8 8-8z" fill="#554e56"/><path d="m433.63 193.11v291.46c0 10.13-8.22 18.35-18.35 18.35h-327.64c-10.13 0-18.35-8.22-18.35-18.35v-291.46c0-10.14 8.22-18.35 18.35-18.35h327.64c10.13 0 18.35 8.21 18.35 18.35z" fill="#f58a97"/><path d="m112.13 502.92h-24.49c-10.13 0-18.35-8.22-18.35-18.35v-291.46c0-10.14 8.22-18.35 18.35-18.35h24.49c-10.13 0-18.35 8.21-18.35 18.35v291.46c0 10.13 8.22 18.35 18.35 18.35z" fill="#f07281"/><path d="m69.294 290.257h364.333v97.149h-364.333z" fill="#ffeee7"/><path d="m69.29 290.26h24.49v97.15h-24.49z" fill="#ffe2db"/><path d="m363.42 351.21-99.43 99.43-9.65 9.65c-1.59 1.59-4.17 1.59-5.76 0l-109.08-109.08c-30.48-30.48-32.05-79.93-2.6-111.42 17.45-18.65 41.57-26.99 64.99-25 16.9 1.43 33.42 8.23 46.81 20.41 1.57 1.43 3.95 1.43 5.52 0 31.94-29.06 81.76-27.52 111.81 4.59 29.44 31.49 27.88 80.94-2.61 111.42z" fill="#eb5569"/><path d="m263.99 450.64-9.65 9.65c-1.59 1.59-4.17 1.59-5.76 0l-109.08-109.08c-30.48-30.48-32.05-79.93-2.6-111.42 17.45-18.65 41.57-26.99 64.99-25-15.29 3.49-29.75 11.34-41.35 23.55-30.36 31.95-28.74 82.14 2.68 113.07z" fill="#e53950"/><path d="m275.841 301.603c0-13.979-11.767-25.211-25.936-24.33-11.914.741-21.704 10.277-22.727 22.17-.729 8.475 2.881 16.144 8.855 21.034.51.417.808 1.03.777 1.688-.393 8.242-2.998 62.938-3.547 74.462-.055 1.163.873 2.129 2.037 2.129h32.327c1.164 0 2.092-.973 2.037-2.136l-3.547-74.448c-.031-.658.266-1.278.776-1.694 5.461-4.471 8.948-11.266 8.948-18.875z" fill="#685e68"/></g></svg>