<svg id="Capa_1" enable-background="new 0 0 503.747 503.747" height="512" viewBox="0 0 503.747 503.747" width="512" xmlns="http://www.w3.org/2000/svg"><g><path d="m298.694 439.213v-13.632c0-2.264 1.835-4.099 4.099-4.099h28.023c2.264 0 4.099-1.835 4.099-4.099v-17.998c0-2.264-1.835-4.099-4.099-4.099h-28.896c-2.264 0-4.099-1.835-4.099-4.099v-13.632c0-2.264 1.835-4.099 4.099-4.099h28.896c2.264 0 4.099-1.835 4.099-4.099v-17.997c0-2.264-1.835-4.099-4.099-4.099h-81.74v122.246h81.74c2.264 0 4.099-1.835 4.099-4.099v-17.998c0-2.264-1.835-4.099-4.099-4.099h-28.023c-2.263.001-4.099-1.834-4.099-4.098z" fill="#ffe177"/><path d="m252.326 503.747h-.902c-10.063 0-18.221-8.158-18.221-18.221v-340.019h37.343v340.019c0 10.063-8.158 18.221-18.22 18.221z" fill="#fff0ad"/><path d="m335.103 101.944-83.23 83.23-83.23-83.23c-22.8-22.8-23.7-60.98-1.18-84.05 14.56-14.91 34.99-20.5 53.95-16.77 10.01 1.96 19.61 6.52 27.72 13.68 1.58 1.39 3.91 1.39 5.48 0 23.48-20.72 59.43-19.69 81.67 3.09 22.52 23.07 21.62 61.25-1.18 84.05z" fill="#eb5569"/><path d="m263.683 172.674-12.13 12.18-82.91-82.91c-22.8-22.8-23.7-60.98-1.18-84.05 14.56-14.91 34.99-20.5 53.95-16.77-10.78 2.43-21.01 7.93-29.33 16.48-22.52 23.16-21.62 61.48 1.18 84.37z" fill="#e53950"/><path d="m296.303 155.574v39.4c0 4.42-3.58 8-8 8h-72.85c-.14 0-.28 0-.41-.01-4.23-.21-7.59-3.71-7.59-7.99v-39.4z" fill="#fff0ad"/><path d="m240.273 202.964h-25.23c-4.23-.21-7.59-3.71-7.59-7.99v-39.4h24.62v39.2c0 4.53 3.67 8.19 8.2 8.19z" fill="#ffe177"/><path d="m306.853 141.794v19.61c0 4.42-3.59 8-8 8h-93.95c-4.42 0-8-3.58-8-8v-19.61c0-4.41 3.58-8 8-8h93.95c4.41 0 8 3.59 8 8z" fill="#fff0ad"/><path d="m229.713 169.404h-24.81c-4.42 0-8-3.58-8-8v-19.61c0-4.41 3.58-8 8-8h24.81c-4.53 0-8.2 3.67-8.2 8.2v19.22c0 4.53 3.67 8.19 8.2 8.19z" fill="#ffe177"/></g></svg>