<svg id="Capa_1" enable-background="new 0 0 506 506" height="512" viewBox="0 0 506 506" width="512" xmlns="http://www.w3.org/2000/svg"><g><path d="m434.499 56.256-55.171 4.126v-40.682l55.171 4.126c1.082.081 1.919.983 1.919 2.068v28.295c0 1.085-.837 1.986-1.919 2.067z" fill="#537983"/><path d="m395.98 8v121.42c0 4.42-3.58 8-8 8h-93.06c-4.42 0-8-3.58-8-8v-121.42c0-4.42 3.58-8 8-8h93.06c4.42 0 8 3.58 8 8z" fill="#678d98"/><path d="m320.14 137.42h-25.22c-4.42 0-8-3.58-8-8v-121.42c0-4.42 3.58-8 8-8h25.22c-4.58 0-8.3 3.71-8.3 8.29v120.83c0 4.59 3.72 8.3 8.3 8.3z" fill="#537983"/><path d="m431.52 121.81v65.09c0 4.42-3.58 8-8 8h-164.14c-4.42 0-8-3.58-8-8v-65.09c0-4.42 3.58-8 8-8h164.14c4.42 0 8 3.58 8 8z" fill="#685e68"/><path d="m284.59 194.9h-25.21c-4.42 0-8-3.58-8-8v-65.09c0-4.42 3.58-8 8-8h25.21c-4.58 0-8.29 3.72-8.29 8.29v64.51c0 4.58 3.71 8.29 8.29 8.29z" fill="#554e56"/><path d="m484.54 168.91v325.09c0 6.63-5.37 12-12 12h-262.18c-6.63 0-12-5.37-12-12v-325.09c0-6.63 5.37-12 12-12h262.18c6.63 0 12 5.37 12 12z" fill="#ffeee7"/><path d="m235.73 506h-25.37c-6.63 0-12-5.37-12-12v-325.09c0-6.63 5.37-12 12-12h25.37c-6.88 0-12.45 5.57-12.45 12.44v324.21c0 6.87 5.57 12.44 12.45 12.44z" fill="#ffe2db"/><path d="m411.96 237.49v187.93c0 4.42-3.58 8-8 8h-125.02c-4.42 0-8-3.58-8-8v-187.93c0-4.42 3.58-8 8-8h125.02c4.42 0 8 3.58 8 8z" fill="#eb5569"/><path d="m304.16 433.42h-25.22c-4.42 0-8-3.58-8-8v-187.93c0-4.42 3.58-8 8-8h25.22c-4.58 0-8.29 3.72-8.29 8.3v187.33c0 4.59 3.71 8.3 8.29 8.3z" fill="#e53950"/><g><path d="m133.367 203.346v89.986h-79.113v-129.694c0-5.126 5.595-8.29 9.99-5.643l9.975 6.008 55.953 33.699c1.979 1.193 3.195 3.339 3.195 5.644z" fill="#eb5569"/><path d="m74.219 164.004v129.327h-19.965v-129.693c0-5.126 5.595-8.29 9.99-5.643z" fill="#e53950"/><path d="m148.921 282.824v94.341c0 3.513-2.845 6.358-6.358 6.358h-97.512c-3.513 0-6.358-2.845-6.358-6.358v-94.341c0-3.513 2.845-6.358 6.358-6.358h97.512c3.513 0 6.358 2.845 6.358 6.358z" fill="#dff6fd"/><path d="m65.095 383.524h-20.044c-3.513 0-6.358-2.845-6.358-6.358v-94.341c0-3.513 2.845-6.358 6.358-6.358h20.044c-3.648 0-6.597 2.949-6.597 6.589v93.872c0 3.647 2.949 6.596 6.597 6.596z" fill="#c8effe"/><path d="m166.16 351.041v145.072c0 5.46-4.427 9.887-9.895 9.887h-124.916c-5.46 0-9.887-4.427-9.887-9.887v-145.072c0-5.452 4.427-9.887 9.887-9.887h124.916c5.468-.001 9.895 4.434 9.895 9.887z" fill="#685e68"/><path d="m51.155 506h-19.806c-5.46 0-9.887-4.427-9.887-9.887v-145.072c0-5.452 4.427-9.887 9.887-9.887h19.806c-5.46 0-9.887 4.435-9.887 9.887v145.072c-.001 5.46 4.426 9.887 9.887 9.887z" fill="#554e56"/><path d="m21.46 407.001h144.696v33.162h-144.696z" fill="#eb5569"/><path d="m21.461 407.002h19.806v33.158h-19.806z" fill="#e53950"/></g></g></svg>