<svg id="Capa_1" enable-background="new 0 0 506 506" height="512" viewBox="0 0 506 506" width="512" xmlns="http://www.w3.org/2000/svg"><g><path d="m388.12 308.27v27.21c0 4.59-6.126-.161-10.716-.161l-256.936.426c-4.59 0-10.608 4.325-10.608-.265v-27.21c0-19.62 15.91-35.53 35.54-35.53h207.18c19.63 0 35.54 15.91 35.54 35.53z" fill="#dff6fd"/><path d="m202.17 332.66-9.94 165.51c-.26 4.4-3.9 7.83-8.31 7.83h-25.45c-4.6 0-8.33-3.73-8.33-8.32v-165.02z" fill="#c68d7a"/><path d="m134.88 308.27v27.21c0 4.59 3.73 8.33 8.32 8.33h-25.01c-4.59 0-8.33-3.74-8.33-8.33v-27.21c0-19.62 15.91-35.53 35.54-35.53h25.01c-19.62 0-35.53 15.91-35.53 35.53z" fill="#c8effe"/><path d="m347.84 332.66v165.02c0 4.59-3.73 8.32-8.33 8.32h-25.45c-4.41 0-8.05-3.43-8.31-7.83l-9.94-165.51z" fill="#c68d7a"/><path d="m183.05 505.99c-.04.01-.08.01-.12.01h-24.46c-4.6 0-8.33-3.73-8.33-8.32v-165.02h25.01v165.02c0 4.45 3.5 8.09 7.9 8.31z" fill="#bc7c63"/><path d="m338.89 505.99c-.13.01-.25.01-.38.01h-24.45c-4.41 0-8.05-3.43-8.31-7.83l-9.94-165.51h25.02l9.93 165.52c.26 4.32 3.81 7.73 8.13 7.81z" fill="#bc7c63"/><path d="m365.55 103.41c0 2.46-.1 4.93-.3 7.42l-17.21 216.14h-198.1l-17.21-216.14c-4.76-59.9 48.66-110.83 116.26-110.83 3.18 0 6.32.11 9.43.33 60.31 4.28 107.13 49.23 107.13 103.08z" fill="#c68d7a"/><path d="m157.75 110.63 17.16 216.34h-24.97l-17.21-216.14c-4.76-59.9 48.66-110.83 116.26-110.83 3.18 0 6.32.11 9.43.33-60.02 7.13-105.07 54.9-100.67 110.3z" fill="#bc7c63"/><path d="m252.66 132.52v42.22c0 5.82-4.02 10.88-9.7 12.17l-110.55 25.27-8.54 1.95c-13.03 2.98-25.45-6.92-25.45-20.28v-80.43c0-13.37 12.42-23.27 25.45-20.29l8.54 1.95 110.55 25.27c5.68 1.3 9.7 6.35 9.7 12.17z" fill="#f58a97"/><path d="m132.41 212.18-8.54 1.95c-13.03 2.98-25.45-6.92-25.45-20.28v-80.43c0-13.37 12.42-23.27 25.45-20.29l8.54 1.95c-5.37 3.81-8.98 10.14-8.98 17.49v82.12c0 7.35 3.62 13.69 8.98 17.49z" fill="#f07281"/><path d="m407.58 113.95v80.43c0 13.36-12.42 23.26-25.44 20.28l-65.01-14.86-38.36-8.77-15.72-3.59c-5.68-1.29-9.71-6.34-9.71-12.17v-42.21c0-5.83 4.03-10.88 9.71-12.18l15.72-3.59 38.36-8.77 65.01-14.86c13.02-2.98 25.44 6.93 25.44 20.29z" fill="#f58a97"/><path d="m317.13 108.52v91.28l-38.36-8.77v-73.74z" fill="#f07281"/><path d="m388.12 308.27v27.21c0 4.59-3.74 8.33-8.33 8.33h-261.6c-4.59 0-8.33-3.74-8.33-8.33v-27.21z" fill="#c68d7a"/><path d="m143.2 343.81h-25.01c-4.59 0-8.33-3.74-8.33-8.33v-27.21h25.02v27.21c0 4.59 3.73 8.33 8.32 8.33z" fill="#bc7c63"/><g><path d="m221.53 147.47c-.81 3.53-3.95 5.92-7.42 5.92-.56 0-1.13-.06-1.7-.19l-84.48-19.3c-1.36-.31-2.55-.97-3.5-1.87-.37-.34-.7-.72-1-1.13-1.21-1.71-1.72-3.91-1.23-6.12.24-1.02.66-1.94 1.23-2.73.29-.42.63-.8 1-1.14 1.79-1.67 4.35-2.45 6.9-1.86l84.47 19.3c4.1.93 6.66 5.02 5.73 9.12z" fill="#f2fbff"/></g><g><path d="m215.8 168.91-84.47 19.32c-.57.12-1.14.19-1.7.19-1.96 0-3.81-.76-5.2-2.06-.37-.35-.7-.73-1-1.14-.57-.79-.99-1.71-1.23-2.72-.49-2.21.02-4.41 1.23-6.12.3-.41.63-.79 1-1.14.95-.9 2.14-1.56 3.5-1.87l84.47-19.31c4.1-.93 8.2 1.63 9.13 5.73s-1.63 8.19-5.73 9.12z" fill="#f2fbff"/></g><g><path d="m291.217 153.394c-3.474 0-6.613-2.392-7.419-5.923-.937-4.101 1.628-8.186 5.729-9.123l84.459-19.301c4.1-.94 8.186 1.627 9.123 5.729.937 4.101-1.628 8.186-5.729 9.123l-84.459 19.301c-.571.132-1.141.194-1.704.194z" fill="#f2fbff"/></g><g><path d="m375.69 188.418c-.562 0-1.134-.062-1.705-.193l-84.459-19.312c-4.101-.938-6.666-5.023-5.728-9.124.938-4.102 5.024-6.667 9.124-5.728l84.459 19.312c4.101.938 6.665 5.023 5.728 9.124-.807 3.53-3.946 5.921-7.419 5.921z" fill="#f2fbff"/></g><g><path d="m377.378 133.899-60.241 13.763-24.214 5.536c-.569.132-1.148.193-1.706.193-2.691 0-5.18-1.432-6.541-3.728-.396-.66-.691-1.402-.874-2.194-.457-1.981-.091-3.961.874-5.576 1.026-1.737 2.732-3.057 4.855-3.545l27.607-6.307 56.849-12.991c4.103-.945 8.187 1.625 9.121 5.728.943 4.104-1.626 8.187-5.73 9.121z" fill="#f2fbff"/></g><g><path d="m383.107 182.5c-.802 3.524-3.941 5.922-7.415 5.922-.569 0-1.138-.071-1.706-.193l-56.849-13.001-27.607-6.317c-4.103-.935-6.673-5.018-5.729-9.121.934-4.103 5.018-6.663 9.121-5.729l24.214 5.536 60.241 13.773c4.105.944 6.674 5.027 5.73 9.13z" fill="#f2fbff"/></g><path d="m317.137 132.041v15.621l-24.214 5.536c-.569.132-1.148.193-1.706.193-2.691 0-5.18-1.432-6.541-3.728v-7.77c1.026-1.737 2.732-3.057 4.855-3.545z" fill="#dff6fd"/><path d="m317.137 159.596v15.631l-27.607-6.317c-4.103-.935-6.673-5.018-5.729-9.121.934-4.103 5.018-6.663 9.121-5.729z" fill="#dff6fd"/><path d="m291.22 114.89v77.48c0 6.63-5.37 12-12 12h-53.12c-6.63 0-12-5.37-12-12v-77.48c0-6.53 5.2-11.83 11.69-11.99.1-.01.21-.01.31-.01h53.12c6.63 0 12 5.37 12 12z" fill="#f58a97"/><path d="m251.28 204.37h-25.18c-6.63 0-12-5.37-12-12v-77.48c0-6.53 5.2-11.83 11.69-11.99h25.81c-6.9 0-12.49 5.58-12.49 12.48v76.51c0 6.78 5.42 12.31 12.17 12.48z" fill="#f07281"/><g fill="#dff6fd"><path d="m123.43 122.05v8.85c-1.21-1.71-1.72-3.91-1.23-6.12.24-1.02.66-1.94 1.23-2.73z"/><path d="m123.43 176.38v8.84c-.57-.79-.99-1.71-1.23-2.72-.49-2.21.02-4.41 1.23-6.12z"/></g></g></svg>