<svg id="Capa_1" enable-background="new 0 0 491.942 491.942" height="512" viewBox="0 0 491.942 491.942" width="512" xmlns="http://www.w3.org/2000/svg"><g><path d="m369.681 125.062v331.88c0 19.33-15.67 35-35 35h-177.42c-19.33 0-35-15.67-35-35v-214.53c0-19.33 15.67-35 35-35l90.01-.03h1c46.9 0 82.49-38.54 81.38-85.69-.96-41.04-31.97-75.08-71.71-80.83-3.26-.48-6.58-.76-9.95-.84-46.49-1.09-84.64 35.73-85.7 81.71-.03 1.09-.9 1.97-2 1.97h-36c-1.12 0-2.03-.91-2.01-2.02 1.09-67.52 56.55-122.07 124.41-121.68 2.55.01 5.09.11 7.6.28 64.68 4.35 115.39 59.07 115.39 124.78z" fill="#dff6fd"/><g fill="#c8effe"><path d="m146.281 122.392c-.01.5.17.95.46 1.31h-22.45c-1.12 0-2.03-.91-2.01-2.02 1.09-67.52 56.55-122.07 124.41-121.68 2.55.01 5.09.11 7.6.28-60.18 7.73-107.01 59.38-108.01 122.11z"/><path d="m181.261 491.942h-24c-19.33 0-35-15.67-35-35v-214.53c0-19.33 15.67-35 35-35l23.28-.01v.02c-19 .38-34.28 15.9-34.28 34.99v214.53c0 19.33 15.67 35 35 35z"/><path d="m353.651 121.692c1.11 47.15-34.48 85.69-81.38 85.69l-21.26.01v-.1c45.04-1.98 78.72-39.71 77.64-85.6-.96-40.86-31.7-74.79-71.2-80.76.16-.02.33-.05.49-.07 4.58-.66 9.27-.96 14.05-.84 44.4 1.05 80.62 37.26 81.66 81.67z"/></g><path d="m122.261 254.362h247.42v190.59h-247.42z" fill="#678d98"/><path d="m122.261 254.362h24v190.59h-24z" fill="#537983"/><path d="m303.671 355.842-54.81 56.74c-.29.3-.65.49-1.03.56-.63.14-1.3-.03-1.8-.51l-56.73-54.79c-16.05-15.51-17.31-41.21-2.15-57.59 10.84-11.72 26.85-15.61 41.13-11.57 5.71 1.62 11.14 4.51 15.85 8.67.76.67 1.91.65 2.65-.05 15.97-15.14 41.31-14.95 57.04.91 15.72 15.84 15.35 41.57-.15 57.63z" fill="#c8effe"/><path d="m258.541 401.982-10.68 11.14c-.01.01-.02.02-.03.02-.63.14-1.3-.03-1.8-.51l-56.73-54.79c-16.05-15.51-17.31-41.21-2.15-57.59 10.84-11.72 26.85-15.61 41.13-11.57-6.34 2.1-12.26 5.82-17.13 11.14-15.16 16.52-13.9 42.44 2.15 58.09z" fill="#99e6fc"/></g></svg>