<svg id="Capa_1" enable-background="new 0 0 500.379 500.379" height="512" viewBox="0 0 500.379 500.379" width="512" xmlns="http://www.w3.org/2000/svg"><g><g><g><path d="m132.281 340.779c-4.142 0-7.5-3.357-7.5-7.5v-101.809c0-4.143 3.358-7.5 7.5-7.5s7.5 3.357 7.5 7.5v101.81c0 4.142-3.358 7.499-7.5 7.499z" fill="#f2fbff"/></g></g><g><path d="m132.281 458.47c-4.142 0-7.5-3.357-7.5-7.5v-63.54c0-4.143 3.358-7.5 7.5-7.5s7.5 3.357 7.5 7.5v63.54c0 4.142-3.358 7.5-7.5 7.5z" fill="#f2fbff"/></g><g><path d="m172.232 366.521h33v116.725h-33z" fill="#bc7c63"/></g><g><path d="m352.191 367.864h33v115.286h-33z" fill="#bc7c63"/></g><g><path d="m406.341 354.559v20.88h-235.16v-20.88c0-13.81 11.19-25 25-25h185.16c13.81 0 25 11.19 25 25z" fill="#f58a97"/></g><g><path d="m220.181 329.559c-13.81 0-25 11.19-25 25v20.88h-24v-20.88c0-13.81 11.19-25 25-25z" fill="#f07281"/></g><g><circle cx="406.338" cy="92.986" fill="#fff0ad" r="30.655"/></g><g><g><path d="m132.281 107.68c-4.142 0-7.5-3.357-7.5-7.5v-19.801c0-4.143 3.358-7.5 7.5-7.5s7.5 3.357 7.5 7.5v19.801c0 4.142-3.358 7.5-7.5 7.5z" fill="#f2fbff"/></g></g><g><path d="m496.801 458.969v33.41c0 4.42-3.58 8-8 8h-477.98c-4.42 0-8-3.58-8-8v-33.41c0-4.42 3.58-8 8-8h477.98c4.42 0 8 3.58 8 8z" fill="#fff0ad"/></g><g><path d="m34.821 500.379h-24c-4.42 0-8-3.58-8-8v-33.41c0-4.42 3.58-8 8-8h24c-4.42 0-8 3.58-8 8v33.41c0 4.42 3.58 8 8 8z" fill="#ffe177"/></g><g><path d="m417.341 363.909v24c0 4.42-3.58 8-8 8h-264.66c-2 0-3.92-.75-5.4-2.09l-87.14-79.5c-3.26-2.98-3.49-8.04-.51-11.3l16.17-17.73c2.98-3.27 8.04-3.5 11.3-.52l6.54 5.97 69.15 63.08c1.47 1.34 3.4 2.09 5.39 2.09h249.16c4.42 0 8 3.58 8 8z" fill="#c68d7a"/></g><g><path d="m163.971 395.909h-19.29c-2 0-3.92-.75-5.4-2.09l-87.14-79.5c-3.26-2.98-3.49-8.04-.51-11.3l16.17-17.73c2.98-3.27 8.04-3.5 11.3-.52l6.54 5.97-10.01 11.27c-2.98 3.35-2.75 8.55.51 11.62l87.14 81.71c.22.2.45.4.69.57z" fill="#bc7c63"/></g><g><path d="m263.511 227.329c.07 2.27-1.74 4.14-4.01 4.14h-254.44c-2.27 0-4.08-1.87-4.01-4.14 2.18-70.36 59.73-126.79 130.55-127.15h.68c71.13 0 129.05 56.56 131.23 127.15z" fill="#ffeee7"/></g><g><path d="m25.051 227.329c-.07 2.27 1.74 4.14 4.01 4.14h-24c-2.27 0-4.08-1.87-4.01-4.14 2.18-70.36 59.73-126.79 130.55-127.15 4.11.01 8.17.21 12.18.59-65.3 6.16-116.67 60.15-118.73 126.56z" fill="#ffe2db"/></g><g><path d="m189.281 231.469h-114c0-72.14 25.26-130.69 56.52-131.28.16-.01.32-.01.48-.01 31.48 0 57 58.78 57 131.29z" fill="#eb5569"/></g><g><path d="m143.781 103.349c-25.47 13.12-44.5 65.5-44.5 128.12h-24c0-72.14 25.26-130.69 56.52-131.28 4.11.081 8.12 1.16 11.98 3.16z" fill="#e53950"/></g><g><g><path d="m406.341 185.979c-4.142 0-7.5-3.357-7.5-7.5v-28.696c0-4.143 3.358-7.5 7.5-7.5s7.5 3.357 7.5 7.5v28.696c0 4.143-3.358 7.5-7.5 7.5z" fill="#fff0ad"/></g></g><g><g><path d="m406.341 43.688c-4.142 0-7.5-3.357-7.5-7.5v-28.688c0-4.143 3.358-7.5 7.5-7.5s7.5 3.357 7.5 7.5v28.688c0 4.143-3.358 7.5-7.5 7.5z" fill="#fff0ad"/></g></g><g><g><path d="m345.885 160.938c-1.919 0-3.839-.732-5.303-2.196-2.929-2.93-2.929-7.678 0-10.607l20.29-20.289c2.929-2.929 7.678-2.927 10.606 0 2.929 2.93 2.929 7.678 0 10.607l-20.29 20.289c-1.464 1.463-3.384 2.196-5.303 2.196z" fill="#fff0ad"/></g></g><g><g><path d="m446.499 60.323c-1.919 0-3.839-.732-5.303-2.196-2.929-2.93-2.929-7.678 0-10.607l20.29-20.289c2.929-2.929 7.678-2.927 10.606 0 2.929 2.93 2.929 7.678 0 10.607l-20.29 20.289c-1.464 1.464-3.384 2.196-5.303 2.196z" fill="#fff0ad"/></g></g><g><g><path d="m466.789 160.938c-1.919 0-3.839-.732-5.303-2.196l-20.29-20.289c-2.929-2.93-2.929-7.678 0-10.607 2.929-2.928 7.678-2.928 10.606 0l20.29 20.289c2.929 2.93 2.929 7.678 0 10.607-1.464 1.463-3.384 2.196-5.303 2.196z" fill="#fff0ad"/></g></g><g><g><path d="m366.174 60.323c-1.919 0-3.839-.732-5.303-2.196l-20.29-20.289c-2.929-2.93-2.929-7.678 0-10.607 2.929-2.928 7.678-2.928 10.606 0l20.29 20.289c2.929 2.93 2.929 7.678 0 10.607-1.464 1.464-3.383 2.196-5.303 2.196z" fill="#fff0ad"/></g></g><g><g><path d="m491.83 100.489h-28.696c-4.142 0-7.5-3.357-7.5-7.5s3.358-7.5 7.5-7.5h28.696c4.142 0 7.5 3.357 7.5 7.5s-3.358 7.5-7.5 7.5z" fill="#fff0ad"/></g></g><g><g><path d="m349.54 100.489h-28.689c-4.142 0-7.5-3.357-7.5-7.5s3.358-7.5 7.5-7.5h28.689c4.142 0 7.5 3.357 7.5 7.5s-3.358 7.5-7.5 7.5z" fill="#fff0ad"/></g></g></g></svg>