<svg id="Capa_1" enable-background="new 0 0 510 510" height="512" viewBox="0 0 510 510" width="512" xmlns="http://www.w3.org/2000/svg"><g><path d="m423.268 49.242v312.877c0 4.593-3.73 8.313-8.313 8.313h-406.642c-4.582 0-8.313-3.72-8.313-8.313v-312.877c0-4.593 3.73-8.313 8.313-8.313h406.643c4.582 0 8.312 3.72 8.312 8.313z" fill="#f2fbff"/><path d="m33.261 370.431h-24.948c-4.582 0-8.313-3.72-8.313-8.313v-312.876c0-4.593 3.73-8.313 8.313-8.313h24.948c-4.593 0-8.313 3.72-8.313 8.313v312.877c0 4.592 3.72 8.312 8.313 8.312z" fill="#dff6fd"/><path d="m381.705 86.649v238.063c0 2.297-1.87 4.156-4.156 4.156h-331.83c-2.286 0-4.156-1.86-4.156-4.156v-238.063c0-2.296 1.87-4.156 4.156-4.156h331.829c2.287-.001 4.157 1.859 4.157 4.156z" fill="#c8effe"/><path d="m464.276 181.126h-331.82c-2.296 0-4.156 1.861-4.156 4.156v238.064c0 2.295 1.861 4.156 4.156 4.156h331.819c2.296 0 4.156-1.861 4.156-4.156v-238.064c.001-2.295-1.86-4.156-4.155-4.156z" fill="#f58a97"/><path d="m70.668 328.868h-24.949c-2.286 0-4.156-1.86-4.156-4.156v-238.063c0-2.296 1.87-4.156 4.156-4.156h24.948c-2.296 0-4.156 1.86-4.156 4.156v238.063c0 2.296 1.86 4.156 4.157 4.156z" fill="#99e6fc"/><path d="m391.327 301.197v139.029h-185.922v-139.029c0-51.341 41.615-92.966 92.956-92.966h.01c3.055 0 6.089.145 9.071.436 47.081 4.562 83.885 44.255 83.885 92.53z" fill="#f2fbff"/><path d="m307.442 208.667c-43.859 7.637-77.214 45.906-77.214 91.948v139.611h-24.824v-139.029c0-51.341 41.615-92.966 92.956-92.966h.01c3.056 0 6.09.145 9.072.436z" fill="#dff6fd"/><path d="m157.394 427.508h-25.977c-2.296 0-4.156-1.87-4.156-4.156v-238.074c0-2.286 1.86-4.156 4.156-4.156h25.977c-2.296 0-4.156 1.87-4.156 4.156v238.074c0 2.285 1.86 4.156 4.156 4.156z" fill="#f07281"/><path d="m398.798 440.195v3.71h-200.854v-3.71c0-27.068 21.945-49.013 49.013-49.013h3.148c7.305 0 13.695-3.876 17.238-9.684.488-.8.935-1.652 1.309-2.525.561-1.309.987-2.681 1.257-4.115.249-1.247.374-2.536.374-3.855v-23.774h56.173v23.774c0 1.319.125 2.608.374 3.855.27 1.434.696 2.805 1.257 4.115.374.873.821 1.725 1.309 2.525 3.543 5.809 9.934 9.684 17.238 9.684h3.148c27.071 0 49.016 21.945 49.016 49.013z" fill="#fed2a4"/><path d="m326.831 374.858h-56.921c.249-1.247.374-2.536.374-3.855v-20.844h56.173v20.844c0 1.319.125 2.608.374 3.855z" fill="#ffbd86"/><path d="m295.223 347.229v23.774c0 11.139-9.03 20.179-20.179 20.179h-3.148c-27.068 0-49.013 21.945-49.013 49.013v3.71h-24.938v-3.71c0-27.068 21.945-49.013 49.013-49.013h3.148c11.149 0 20.179-9.04 20.179-20.179v-23.774z" fill="#ffbd86"/><path d="m352.32 296.075c0 32.44-24.159 72.434-53.949 72.434-.125 0-.249 0-.374-.01-29.614-.322-53.575-40.119-53.575-72.424 0-5.414.675-10.651 1.933-15.617 6.214-24.626 31.422-20.267 55.934-20.6.239-.01-4.162 5.511-3.923 5.511 24.876 0 45.839-9.693 52.063 15.255v.01c1.236 4.915 1.891 10.1 1.891 15.441z" fill="#fed2a4"/><path d="m310.711 366.716c-3.972 1.578-8.132 2.477-12.397 2.561-29.789-.324-53.893-40.357-53.893-72.853 0-5.446.679-10.714 1.944-15.71 6.251-24.772 26.957-43.033 51.614-43.367 4.39.021 8.644.617 12.721 1.714-19.013 5.122-34.075 21.156-39.249 41.653-1.265 4.996-1.944 10.264-1.944 15.71.001 27.729 17.54 60.937 41.204 70.292z" fill="#ffbd86"/><path d="m350.429 280.624v.01c-6.411 4.437-14.194 7.035-22.579 7.035-15.399 0-28.741-8.749-35.339-21.55-.353-.665-1.299-.738-1.746-.125-4.759 6.536-11.461 11.565-19.254 14.256-4.042 1.382-8.385 2.13-12.905 2.13-4.271 0-8.396-.676-12.251-1.922 6.276-24.865 27.193-43.122 52.016-43.122 3.845 0 7.596.436 11.222 1.278 19.784 4.551 35.578 20.916 40.836 42.01z" fill="#c68d7a"/><path d="m309.593 238.614c-18.309 5.372-32.814 21.291-38.082 41.636-4.042 1.382-8.385 2.13-12.905 2.13-4.271 0-8.396-.676-12.251-1.922 6.276-24.865 27.193-43.122 52.016-43.122 3.845 0 7.596.436 11.222 1.278z" fill="#bc7c63"/><path d="m501.687 139.558h-406.643c-4.582 0-8.313 3.73-8.313 8.313v312.887c0 4.582 3.73 8.313 8.313 8.313h406.643c4.582 0 8.313-3.73 8.313-8.313v-312.887c0-4.582-3.73-8.313-8.313-8.313zm-33.25 283.793c0 2.286-1.87 4.156-4.156 4.156h-331.83c-2.286 0-4.156-1.87-4.156-4.156v-238.073c0-2.286 1.87-4.156 4.156-4.156h331.829c2.286 0 4.156 1.87 4.156 4.156v238.073z" fill="#f2fbff"/><path d="m118.954 469.071h-23.91c-4.582 0-8.313-3.73-8.313-8.313v-312.887c0-4.582 3.73-8.313 8.313-8.313h23.909c-4.593 0-8.313 3.73-8.313 8.313v312.887c.001 4.582 3.721 8.313 8.314 8.313z" fill="#dff6fd"/></g></svg>