<svg id="Capa_1" enable-background="new 0 0 510 510" height="512" viewBox="0 0 510 510" width="512" xmlns="http://www.w3.org/2000/svg"><g><g><path d="m85.77 371.85h338.459v63.703h-338.459z" fill="#ffe177"/></g><g><path d="m85.77 371.86h25.208v63.692h-25.208z" fill="#ffc344"/></g><g><path d="m301.708 344.457h-237.123l-13.486-54.659-9.716-39.366 35.648-84.835 34.252-81.497c2.521-6.018 10.65-6.995 14.516-1.723l6.533 8.897 1.397 1.89 44.891 61.14 129.853 176.782c4.075 5.546.115 13.371-6.765 13.371z" fill="#ffe177"/></g><g><path d="m102.24 164.524-35.648 86.789 9.716 40.28 12.751 52.863h-24.474l-13.486-54.659-9.716-39.366 35.648-84.835 34.252-81.496c2.521-6.018 10.65-6.995 14.516-1.723l6.533 8.897z" fill="#ffc344"/></g><g><path d="m468.617 250.431-23.202 94.026h-237.123c-6.88 0-10.839-7.825-6.764-13.371l129.852-176.782 52.821-71.927c3.865-5.273 11.995-4.296 14.516 1.723l3.487 8.298 30.764 73.198z" fill="#ffe177"/></g><g><path d="m226.977 330.981c-4.117 5.588-.126 13.476 6.817 13.476h-25.502c-6.88 0-10.839-7.825-6.764-13.371l129.852-176.782 52.821-71.927c3.865-5.273 11.995-4.296 14.516 1.723l3.487 8.298-44.272 60.289z" fill="#ffc344"/></g><g><path d="m496.199 138.623-27.582 111.808-23.202 94.026-9.81 39.787c-.924 3.76-4.285 6.386-8.151 6.386h-344.908c-3.865 0-7.226-2.626-8.151-6.386l-9.81-39.787-13.486-54.659-9.716-39.366-27.582-111.809c-1.87-7.573 6.691-13.381 13.035-8.844l12.53 8.938 37.665 26.878 20.198 14.421 39.598 28.254c4.033 2.867 9.684 1.649 12.163-2.647l29.63-51.319 69.101-119.696c3.235-5.598 11.323-5.598 14.558 0l69.101 119.696 29.63 51.319c2.479 4.296 8.13 5.514 12.163 2.647l59.795-42.675 50.195-35.816c6.345-4.537 14.905 1.271 13.036 8.844z" fill="#fff0ad"/></g><g><path d="m103.027 390.629h-20.481c-3.865 0-7.226-2.626-8.151-6.386l-9.81-39.787-13.486-54.659-9.716-39.366-27.582-111.808c-1.87-7.573 6.691-13.381 13.035-8.844l12.53 8.938 60.237 246.923c.504 2.091 1.754 3.845 3.424 4.989z" fill="#ffe177"/></g><g><path d="m432.569 434.376v67.221c0 4.642-3.76 8.403-8.403 8.403h-338.333c-4.642 0-8.403-3.76-8.403-8.403v-67.221c0-4.495 3.529-8.172 7.972-8.392.136-.01.284-.01.431-.01h338.333c4.643-.001 8.403 3.759 8.403 8.402z" fill="#fff0ad"/></g><g><path d="m110.611 510h-24.778c-4.642 0-8.403-3.76-8.403-8.403v-67.221c0-4.495 3.529-8.172 7.972-8.392h25.639c-4.642 0-8.403 3.76-8.403 8.403v67.221c.001 4.474 3.53 8.161 7.973 8.392z" fill="#ffe177"/></g><g><path d="m212.184 213.692v44.589c0 1.501.801 2.888 2.101 3.638l38.615 22.294c1.3.751 2.901.751 4.201 0l38.615-22.294c1.3-.75 2.101-2.137 2.101-3.638v-44.589c0-1.501-.801-2.888-2.101-3.638l-38.615-22.294c-1.3-.75-2.901-.75-4.201 0l-38.615 22.294c-1.301.75-2.101 2.137-2.101 3.638z" fill="#c8effe"/></g><g><path d="m240.547 261.917 27.582 15.933-11.029 6.365c-1.302.746-2.899.746-4.201 0l-38.61-22.299c-1.302-.746-2.101-2.132-2.101-3.634v-44.587c0-1.502.798-2.888 2.101-3.645l38.61-22.288c1.302-.756 2.899-.756 4.201 0l11.029 6.365-27.582 15.923c-1.302.756-2.101 2.143-2.101 3.645v44.587c.001 1.502.799 2.889 2.101 3.635z" fill="#99e6fc"/></g><g><path d="m285.407 30.407c0 12.541-7.594 23.307-18.433 27.949-3.676 1.586-7.72 2.458-11.974 2.458-16.795 0-30.407-13.613-30.407-30.407s13.612-30.407 30.407-30.407c4.254 0 8.298.872 11.974 2.458 10.839 4.642 18.433 15.408 18.433 27.949z" fill="#c8effe"/></g><g><path d="m266.974 58.357c-3.676 1.586-7.72 2.458-11.974 2.458-16.795 0-30.407-13.613-30.407-30.407s13.612-30.408 30.407-30.408c4.254 0 8.298.872 11.974 2.458-10.167 5.02-17.173 15.65-17.173 27.949 0 12.289 7.006 22.929 17.173 27.95z" fill="#99e6fc"/></g><g><circle cx="255" cy="467.987" fill="#c8effe" r="15.755"/></g><g><circle cx="186.614" cy="467.872" fill="#c8effe" r="15.755"/></g><g><circle cx="323.272" cy="467.987" fill="#c8effe" r="15.755"/></g></g></svg>