<svg id="Capa_1" enable-background="new 0 0 495.18 495.18" height="512" viewBox="0 0 495.18 495.18" width="512" xmlns="http://www.w3.org/2000/svg"><g><g><path d="m180.83 328.54-11.47 159.21c-.3 4.19-3.78 7.43-7.98 7.43h-32.91c-4.42 0-8-3.58-8-8v-158.64z" fill="#c68d7a"/></g><g><path d="m374.71 328.54v158.64c0 4.42-3.58 8-8 8h-32.91c-4.2 0-7.68-3.24-7.98-7.43l-11.47-159.21z" fill="#c68d7a"/></g><g><path d="m152.47 495.18h-24c-4.42 0-8-3.58-8-8v-158.64h24v158.64c0 4.42 3.58 8 8 8z" fill="#bc7c63"/></g><g><path d="m357.8 495.18h-24c-4.2 0-7.68-3.24-7.98-7.43l-11.47-159.21h24l11.47 159.21c.3 4.19 3.78 7.43 7.98 7.43z" fill="#bc7c63"/></g><g><path d="m449.61 297.5v39.56c0 4.42-3.58 8-8 8h-388.04c-4.42 0-8-3.58-8-8v-39.56z" fill="#dff6fd"/></g><g><path d="m77.57 345.06h-24c-4.42 0-8-3.58-8-8v-39.56h24v39.56c0 4.42 3.58 8 8 8z" fill="#c8effe"/></g><g><path d="m122.962 282.982h-101.372v-38.851c0-3.163 2.457-5.775 5.613-5.98 45.486-2.966 81.483-41.697 81.483-87.913h14.276z" fill="#bc7c63"/></g><g><path d="m372.218 282.982h101.372v-38.851c0-3.163-2.457-5.775-5.613-5.98-45.486-2.966-81.483-41.697-81.483-87.913h-14.276z" fill="#bc7c63"/></g><g><path d="m391.59 144v134.82c0 8.74-7.09 15.83-15.83 15.83h-256.34c-8.74 0-15.83-7.09-15.83-15.83v-134.82c0-79.53 64.47-144 144-144 3.82 0 7.6.15 11.34.44 35.24 2.75 66.92 18.18 90.48 41.74 26.06 26.05 42.18 62.05 42.18 101.82z" fill="#dff6fd"/></g><g><path d="m127.47 144v134.94c0 8.07 6.03 14.72 13.84 15.71h-21.89c-8.74 0-15.83-7.09-15.83-15.83v-134.82c0-79.53 64.47-144 144-144 3.82 0 7.6.15 11.34.44-73.69 6.49-131.46 68.29-131.46 143.56z" fill="#c8effe"/></g><g><path d="m351.6 144.01v122.09s0 0-184 0h-24v-122.09c0-57.35 46.65-104 104-104 3.47 0 6.91.17 10.31.5.01-.01.01-.01.02 0 23.88 2.34 46.02 12.77 63.2 29.96 19.65 19.64 30.47 45.76 30.47 73.54z" fill="#c8effe"/></g><g><path d="m257.91 40.51c-50.91 6.73-90.31 50.56-90.31 103.47v122.12h-24v-122.09c0-57.35 46.65-104 104-104 3.47 0 6.91.17 10.31.5z" fill="#99e6fc"/></g><g><path d="m492.49 278.1v23.56c0 6.62-5.37 12-12 12h-465.8c-6.63 0-12-5.38-12-12v-23.56c0-6.63 5.37-12 12-12h465.8c6.63 0 12 5.37 12 12z" fill="#c68d7a"/></g><g><path d="m38.69 313.66h-24c-6.63 0-12-5.38-12-12v-23.56c0-6.63 5.37-12 12-12h24c-6.63 0-12 5.37-12 12v23.56c0 6.62 5.37 12 12 12z" fill="#bc7c63"/></g></g></svg>