<svg id="Capa_1" enable-background="new 0 0 507.4 507.4" height="512" viewBox="0 0 507.4 507.4" width="512" xmlns="http://www.w3.org/2000/svg"><g><path d="m460.05 449.08v48.49c0 4.42-3.58 8-8 8h-40.5c-4.42 0-8-3.58-8-8v-48.49z" fill="#685e68"/><path d="m436.45 505.57h-24.9c-4.42 0-8-3.58-8-8v-48.49h24.68v48.27c0 4.54 3.68 8.22 8.22 8.22z" fill="#554e56"/><path d="m41.537 45.215h415.892v300.442h-415.892z" fill="#c68d7a"/><path d="m304.63 147.39-50.5 50.5c-.81.8-2.11.8-2.91 0l-50.5-50.5c-14.34-14.34-15.08-37.7-1.05-52.34 9.85-10.28 24.11-13.64 36.84-10.05 5.35 1.5 10.44 4.22 14.81 8.18.76.69 1.94.69 2.7 0 14.75-13.36 37.67-12.74 51.66 1.87 14.03 14.64 13.29 38-1.05 52.34z" fill="#f58a97"/><path d="m479.87 15.28v353.1h-36.44v-353.1c0-4.42 3.58-8 8-8h20.44c4.42 0 8 3.58 8 8z" fill="#c68d7a"/><path d="m473.49 7.79c-3.14 1.15-5.38 4.17-5.38 7.7v352.89h-24.68v-353.1c0-4.42 3.58-8 8-8h19.23c.99 0 1.95.17 2.83.51z" fill="#bc7c63"/><path d="m264.35 187.67-10.22 10.22c-.81.8-2.11.8-2.91 0l-50.5-50.5c-14.34-14.34-15.08-37.7-1.05-52.34 9.85-10.28 24.11-13.64 36.84-10.05-4.45 1.96-8.59 4.86-12.16 8.69-14.03 15.07-13.29 39.13 1.05 53.88z" fill="#f07281"/><path d="m41.036 45.215h46.59v300.442h-46.59z" fill="#bc7c63"/><path d="m102.82 443.63v48.49c0 4.42-3.58 8-8 8h-40.5c-4.41 0-8-3.58-8-8v-48.49z" fill="#685e68"/><path d="m79.22 500.12h-24.9c-4.41 0-8-3.58-8-8v-48.49h24.68v48.27c0 4.54 3.68 8.22 8.22 8.22z" fill="#554e56"/><path d="m234.58 253.31v82.07h-134.87v-82.07c0-9.94 8.06-18 18-18h98.87c9.94 0 18 8.06 18 18z" fill="#f2fbff"/><path d="m142.88 235.31c-10.21 0-18.49 8.28-18.49 18.49v81.57h-24.68v-82.06c0-9.94 8.06-18 18-18z" fill="#dff6fd"/><path d="m405.64 253.31v82.07h-134.87v-82.07c0-9.94 8.06-18 18-18h98.87c9.94 0 18 8.06 18 18z" fill="#f2fbff"/><path d="m313.94 235.31c-10.21 0-18.49 8.28-18.49 18.49v81.57h-24.68v-82.06c0-9.94 8.06-18 18-18z" fill="#dff6fd"/><path d="m62.95 9.83v353.1h-36.45v-353.1c0-4.42 3.58-8 8-8h20.45c4.41 0 8 3.58 8 8z" fill="#c68d7a"/><path d="m56.57 2.34c-3.14 1.15-5.39 4.17-5.39 7.7v352.88h-24.68v-353.09c0-4.42 3.58-8 8-8h19.23c.99 0 1.96.17 2.84.51z" fill="#bc7c63"/><path d="m495.37 335.97v75.33c0 5.52-4.48 10-10 10h-465.39c-5.53 0-10-4.48-10-10v-75.33c0-9.94 8.05-18 18-18h449.39c9.94 0 18 8.06 18 18z" fill="#ffeee7"/><path d="m44.92 421.3h-24.94c-5.53 0-10-4.48-10-10v-75.33c0-9.94 8.05-18 18-18h25.16c-10.21 0-18.49 8.28-18.49 18.49v74.57c0 5.67 4.6 10.27 10.27 10.27z" fill="#ffe2db"/><path d="m507.4 405.02v47.79c0 6.62-5.38 12-12 12h-483.4c-.1 0-.21 0-.31-.01-6.48-.16-11.69-5.47-11.69-11.99v-47.79c0-6.63 5.38-12 12-12h483.4c6.62 0 12 5.37 12 12z" fill="#c68d7a"/><path d="m37.01 464.8h-25.32c-6.48-.16-11.69-5.47-11.69-11.99v-47.79c0-6.63 5.38-12 12-12h25.01c-6.81 0-12.32 5.52-12.32 12.33v47.13c0 6.81 5.51 12.32 12.32 12.32z" fill="#bc7c63"/></g></svg>