<svg id="Capa_1" enable-background="new 0 0 508.144 508.144" height="512" viewBox="0 0 508.144 508.144" width="512" xmlns="http://www.w3.org/2000/svg"><g><g><path d="m272.676 507.856c-2.147.195-4.315.288-6.513.288h-24.182c-2.198 0-4.366-.093-6.513-.288-39.818-3.452-70.235-38.369-67.308-79.029l2.887-40.188c.072-.914.729-1.664 1.623-1.859 22.159-5.034 38.708-24.84 38.708-48.529 0-21.172-13.242-39.253-31.887-46.433-.853-.329-1.407-1.161-1.336-2.075l2.096-29.257c2.784-38.615 34.835-68.54 73.512-68.705 39.129-.154 71.396 30.777 74.201 69.814l2.024 28.148c.072.914-.483 1.746-1.335 2.075-18.645 7.181-31.887 25.261-31.887 46.433 0 23.689 16.549 43.495 38.708 48.529.894.195 1.551.945 1.623 1.859l2.886 40.188c2.929 40.66-27.489 75.578-67.307 79.029z" fill="#c68d7a"/></g><g><g><g><path d="m296.797 115.003h-26.041c-4.143 0-7.5-3.357-7.5-7.5s3.357-7.5 7.5-7.5h26.041c4.143 0 7.5 3.357 7.5 7.5s-3.358 7.5-7.5 7.5z" fill="#dff6fd"/></g></g><g><g><path d="m237.389 115.003h-26.042c-4.143 0-7.5-3.357-7.5-7.5s3.357-7.5 7.5-7.5h26.042c4.143 0 7.5 3.357 7.5 7.5s-3.357 7.5-7.5 7.5z" fill="#dff6fd"/></g></g><g><path d="m296.797 91.376h-26.041c-4.143 0-7.5-3.357-7.5-7.5s3.357-7.5 7.5-7.5h26.041c4.143 0 7.5 3.357 7.5 7.5s-3.358 7.5-7.5 7.5z" fill="#dff6fd"/></g><g><g><path d="m237.389 91.376h-26.042c-4.143 0-7.5-3.357-7.5-7.5s3.357-7.5 7.5-7.5h26.042c4.143 0 7.5 3.357 7.5 7.5s-3.357 7.5-7.5 7.5z" fill="#dff6fd"/></g></g></g><g><path d="m266.913 508.134c-.247.01-.503.01-.75.01h-24.182c-42.961 0-76.903-36.469-73.821-79.317l2.887-40.188c.072-.914.729-1.664 1.623-1.859 22.159-5.034 38.708-24.84 38.708-48.529 0-21.172-13.242-39.253-31.887-46.433-.853-.329-1.407-1.161-1.336-2.075l2.096-29.257c2.784-38.615 34.835-68.54 73.512-68.705 4.469-.021 8.835.37 13.088 1.13-32.832 5.784-58.442 33.243-60.918 67.575l-2.096 29.257c-.072.914.483 1.746 1.336 2.075 18.645 7.181 31.887 25.261 31.887 46.433 0 23.689-16.549 43.495-38.708 48.529-.894.195-1.551.945-1.623 1.859l-2.887 40.188c-3.061 42.602 30.47 78.896 73.071 79.307z" fill="#bc7c63"/></g><g><path d="m270.755 45.743v239.655c0 1.14-.924 2.055-2.055 2.055h-29.257c-1.13 0-2.055-.914-2.055-2.055v-239.655z" fill="#dff6fd"/></g><g><path d="m237.389 45.743h33.366v85.388h-33.366z" fill="#c68d7a"/></g><g><path d="m278.872 423.57-6.2 84.29c-2.14.19-4.31.28-6.51.28h-24.18c-2.2 0-4.37-.09-6.51-.28l-6.2-84.29c-.08-1.19.86-2.21 2.06-2.21h45.48c1.2 0 2.14 1.02 2.06 2.21z" fill="#dff6fd"/></g><g><path d="m277.762 58.19h-47.38c-2.45 0-4.32-2.18-3.95-4.6l7.64-50.2c.29-1.95 1.97-3.39 3.95-3.39h32.1c1.98 0 3.66 1.44 3.95 3.39l7.64 50.2c.37 2.42-1.5 4.6-3.95 4.6z" fill="#c68d7a"/></g><g><path d="m262.022 0c-1.98 0-3.66 1.44-3.95 3.39l-7.64 50.2c-.37 2.42 1.5 4.6 3.95 4.6h-24c-2.45 0-4.32-2.18-3.95-4.6l7.64-50.2c.29-1.95 1.97-3.39 3.95-3.39h24z" fill="#bc7c63"/></g><g><g><g><path d="m278.876 400.933h-49.607c-4.143 0-7.5-3.357-7.5-7.5s3.357-7.5 7.5-7.5h49.607c4.143 0 7.5 3.357 7.5 7.5s-3.358 7.5-7.5 7.5z" fill="#dff6fd"/></g></g><g><g><path d="m269.116 373.585h-30.088c-4.143 0-7.5-3.357-7.5-7.5s3.357-7.5 7.5-7.5h30.088c4.143 0 7.5 3.357 7.5 7.5s-3.357 7.5-7.5 7.5z" fill="#dff6fd"/></g></g></g><g><path d="m260.172 508.14h-18.19c-2.2 0-4.37-.09-6.51-.28l-6.2-84.29c-.08-1.19.86-2.21 2.06-2.21h24.68c-1.19 0-2.14 1.02-2.06 2.21z" fill="#c8effe"/></g></g></svg>