<svg id="Capa_1" enable-background="new 0 0 502.973 502.973" height="512" viewBox="0 0 502.973 502.973" width="512" xmlns="http://www.w3.org/2000/svg"><g><path d="m328.096 41.655h-153.22c-7.08 0-12.81 5.73-12.81 12.81v192.14h178.84v-192.14c0-7.08-5.73-12.81-12.81-12.81zm-21.349 170.79h-110.52v-128.09c0-4.72 3.82-8.54 8.54-8.54h93.44c4.72 0 8.54 3.82 8.54 8.54z" fill="#685e68"/><path d="m174.877 41.655c-7.08 0-12.81 5.73-12.81 12.81v192.14h25.68v-192.14c0-7.08 5.74-12.81 12.81-12.81z" fill="#554e56"/><path d="m502.973 148.804v299.704c0 7.077-5.732 12.81-12.81 12.81h-129.036l-112.385-38.748-106.895 38.748h-129.037c-7.077 0-12.81-5.732-12.81-12.81v-299.704c0-7.077 5.732-12.81 12.81-12.81h477.354c7.077.001 12.809 5.733 12.809 12.81z" fill="#c68d7a"/><path d="m361.127 230.535v230.78h-193.59l-15.646-10.915-10.044 10.915v-230.78c0-4.72 3.83-8.54 8.54-8.54h202.2c4.71 0 8.54 3.82 8.54 8.54z" fill="#ffeee7"/><path d="m176.077 221.995c-4.71 0-8.54 3.82-8.54 8.54v230.78h-25.69v-230.78c0-4.72 3.83-8.54 8.54-8.54z" fill="#ffe2db"/><path d="m307.857 348.515-54.86 54.86c-.04.04-.09.08-.14.11-.83.72-2.09.68-2.88-.11l-54.86-54.86c-15.56-15.56-16.36-40.91-1.14-56.79 10.82-11.29 26.54-14.88 40.48-10.77 5.64 1.67 11 4.6 15.62 8.79.8.73 2.02.73 2.82 0 16.01-14.54 40.9-13.88 56.1 1.98 15.22 15.88 14.419 41.23-1.14 56.79z" fill="#f58a97"/><path d="m263.827 392.335-10.97 11.15c-.83.72-2.09.68-2.88-.11l-54.86-54.86c-15.56-15.56-16.36-40.91-1.14-56.79 10.82-11.29 26.54-14.88 40.48-10.77-5.42 2.08-10.5 5.41-14.79 9.96-15.22 16.15-14.42 41.9 1.13 57.7z" fill="#f07281"/><path d="m45.497 135.995h50.86v325.32h-50.86z" fill="#685e68"/><path d="m403.227 135.995h57.65v325.32h-57.65z" fill="#685e68"/><path d="m45.497 135.995h25.69v325.32h-25.69z" fill="#554e56"/><path d="m403.227 135.995h25.69v325.32h-25.69z" fill="#554e56"/><path d="m39.497 461.318h-26.687c-7.077 0-12.81-5.732-12.81-12.81v-299.704c0-7.077 5.732-12.81 12.81-12.81h26.687c-7.077 0-12.81 5.732-12.81 12.81v299.704c0 7.078 5.732 12.81 12.81 12.81z" fill="#bc7c63"/></g></svg>