<svg id="Capa_1" enable-background="new 0 0 505.08 505.08" height="512" viewBox="0 0 505.08 505.08" width="512" xmlns="http://www.w3.org/2000/svg"><g><path d="m325.15 431.82h-145.22l22-77.01h101.22z" fill="#f2fbff"/><path d="m226.91 354.81-22 77.01h-24.98l22-77.01z" fill="#dff6fd"/><path d="m505.08 56.02v310.37c0 6.89-5.58 12.47-12.47 12.47h-480.14c-6.89 0-12.47-5.58-12.47-12.47v-310.37c0-6.89 5.58-12.47 12.47-12.47h480.14c6.89 0 12.47 5.58 12.47 12.47z" fill="#685e68"/><path d="m37.44 378.86h-24.97c-6.89 0-12.47-5.58-12.47-12.47v-310.37c0-6.89 5.58-12.47 12.47-12.47h24.97c-6.89 0-12.47 5.58-12.47 12.47v310.37c0 6.89 5.58 12.47 12.47 12.47z" fill="#554e56"/><path d="m463.52 93.11v236.19c0 4.42-3.58 8-8 8h-405.96c-4.42 0-8-3.58-8-8v-236.19c0-4.42 3.58-8 8-8h405.96c4.42 0 8 3.58 8 8z" fill="#c8effe"/><path d="m74.85 337.3h-25.29c-4.42 0-8-3.58-8-8v-236.19c0-4.42 3.58-8 8-8h25.29c-4.6 0-8.32 3.72-8.32 8.31v235.56c0 4.6 3.72 8.32 8.32 8.32z" fill="#99e6fc"/><path d="m378.5 427.72v25.81c0 4.41-3.58 8-8 8h-235.92c-4.42 0-8-3.59-8-8v-25.81c0-4.42 3.58-8 8-8h235.92c4.42 0 8 3.58 8 8z" fill="#685e68"/><path d="m159.86 461.53h-25.28c-4.42 0-8-3.59-8-8v-25.81c0-4.42 3.58-8 8-8h25.28c-4.58 0-8.31 3.72-8.31 8.31v25.19c0 4.58 3.73 8.31 8.31 8.31z" fill="#554e56"/><path d="m338.23 221.69-74.4 74.41-8.35 8.35c-1.62 1.62-4.26 1.62-5.88 0l-82.75-82.76c-23.48-23.47-24.41-62.78-1.22-86.53 13.55-13.88 32.05-19.92 49.9-18.12 12.34 1.25 24.36 6.25 34.24 14.98 1.59 1.41 3.95 1.41 5.54 0 24.18-21.38 61.23-20.33 84.14 3.14 23.19 23.75 22.26 63.06-1.22 86.53z" fill="#f58a97"/><path d="m263.83 296.1-8.35 8.35c-1.62 1.62-4.26 1.62-5.88 0l-82.75-82.76c-23.48-23.47-24.41-62.78-1.22-86.53 13.55-13.88 32.05-19.92 49.9-18.12-9.15 3.03-17.73 8.34-24.93 15.92-23.18 24.44-22.25 64.89 1.22 89.04z" fill="#f07281"/><path d="m286.939 209.701-48.598 28.058c-2.667 1.54-6-.385-6-3.464v-56.117c0-3.079 3.333-5.004 6-3.464l48.598 28.058c2.667 1.54 2.667 5.389 0 6.929z" fill="#c8effe"/></g></svg>