<svg id="Capa_1" enable-background="new 0 0 505.075 505.075" height="512" viewBox="0 0 505.075 505.075" width="512" xmlns="http://www.w3.org/2000/svg"><g><path d="m501.075 194.18h-87.552v-38.837h87.552c2.209 0 4 1.791 4 4v30.837c0 2.209-1.79 4-4 4z" fill="#685e68"/><path d="m91.556 194.18h-87.552c-2.209 0-4-1.791-4-4v-30.837c0-2.209 1.791-4 4-4h87.552z" fill="#685e68"/><path d="m437.298 207.228h-369.51v-.01l28.64-190.74c1.38-9.15 9.25-15.93 18.51-15.93h275.21c9.26 0 17.13 6.78 18.5 15.93z" fill="#678d98"/><path d="m139.438.548c-9.26 0-17.13 6.78-18.5 15.94l-28.65 190.73h-24.5l28.64-190.74c1.38-9.15 9.25-15.93 18.51-15.93h24.5z" fill="#537983"/><path d="m395.038 207.228h-285v-.01l19.24-162.95c.5-4.18 4.05-7.34 8.26-7.34h230c4.22 0 7.76 3.16 8.26 7.34z" fill="#c8effe"/><path d="m162.048 36.928c-4.21 0-7.76 3.15-8.26 7.35l-19.24 162.94h-24.51l19.24-162.95c.5-4.18 4.05-7.34 8.26-7.34z" fill="#99e6fc"/><path d="m477.258 223.968v191h-449.44v-191c0-16.9 13.71-30.6 30.61-30.6h65.05l138.4 55.191 119.73-55.191h65.04c16.9 0 30.61 13.7 30.61 30.6z" fill="#685e68"/><path d="m82.928 193.368c-16.89 0-30.6 13.7-30.6 30.6v191h-24.51v-191c0-16.9 13.71-30.6 30.61-30.6z" fill="#554e56"/><path d="m381.608 193.368-48.37 122.09c-2.35 5.94-8.1 9.84-14.49 9.84h-132.42c-6.39 0-12.14-3.9-14.49-9.84l-48.36-122.09z" fill="#f2fbff"/><path d="m209.838 325.298h-23.51c-6.39 0-12.14-3.9-14.49-9.84l-48.36-122.09h23.5l48.37 122.09c2.35 5.94 8.1 9.84 14.49 9.84z" fill="#dff6fd"/><path d="m288.528 261.938-23.01 23.02-10.82 10.82c-.8.79-2.09.79-2.89 0l-34.77-34.78c-9.84-9.83-10.57-26.22-1.2-36.01 7.73-8.08 19.61-9.73 29.3-5.02 2.07.99 4.04 2.28 5.84 3.86.76.66 1.89.66 2.65 0 10.04-8.68 25.52-7.92 35.15 2.11 9.63 10.05 9.33 26.42-.25 36z" fill="#f58a97"/><path d="m265.518 284.958-10.82 10.82c-.8.79-2.09.79-2.89 0l-34.77-34.78c-9.84-9.83-10.57-26.22-1.2-36.01 7.73-8.08 19.61-9.73 29.3-5.02-1.66 1.07-3.23 2.35-4.65 3.83-9.72 10.16-8.97 27.15 1.24 37.36z" fill="#f07281"/><path d="m131.778 410.178v86.35c0 4.42-3.58 8-8 8h-51.57c-4.42 0-8-3.58-8-8v-86.35z" fill="#685e68"/><path d="m440.868 410.178v86.35c0 4.42-3.58 8-8 8h-51.56c-4.42 0-8-3.58-8-8v-86.35z" fill="#685e68"/><path d="m96.878 504.528h-24.67c-4.42 0-8-3.58-8-8v-86.35h24.51v86.19c0 4.51 3.65 8.16 8.16 8.16z" fill="#554e56"/><path d="m405.968 504.528h-24.66c-4.42 0-8-3.58-8-8v-86.35h24.5v86.19c0 4.51 3.66 8.16 8.16 8.16z" fill="#554e56"/><circle cx="97.991" cy="305.877" fill="#fff0ad" r="33.784"/><circle cx="407.088" cy="305.877" fill="#fff0ad" r="33.784"/><path d="m110.742 337.173c-3.928 1.602-8.243 2.489-12.752 2.489-18.659 0-33.779-15.129-33.779-33.789 0-18.659 15.119-33.779 33.779-33.779 4.509 0 8.825.888 12.752 2.489-12.334 5.03-21.026 17.139-21.026 31.29s8.692 26.261 21.026 31.3z" fill="#ffe177"/><path d="m419.842 337.173c-3.928 1.602-8.233 2.489-12.752 2.489-18.659 0-33.789-15.129-33.789-33.789 0-18.659 15.129-33.779 33.789-33.779 4.519 0 8.825.888 12.752 2.489-12.334 5.03-21.036 17.139-21.036 31.29-.001 14.151 8.702 26.271 21.036 31.3z" fill="#ffe177"/><path d="m497.073 442.356h-489.072c-4.418 0-8-3.582-8-8v-42.322c0-4.418 3.582-8 8-8h489.072c4.418 0 8 3.582 8 8v42.322c0 4.419-3.582 8-8 8z" fill="#678d98"/><path d="m33.667 442.356h-25.505c-4.499 0-8.162-3.652-8.162-8.162v-42.002c0-4.509 3.662-8.162 8.162-8.162h25.505c-4.499 0-8.162 3.652-8.162 8.162v42.002c0 4.509 3.662 8.162 8.162 8.162z" fill="#537983"/><path d="m329.338 369.398v29.27c0 4.42-3.58 8-8 8h-137.6c-4.42 0-8-3.58-8-8v-29.27c0-4.28 3.36-7.78 7.59-7.99.13-.01.27-.01.41-.01h137.6c4.42 0 8 3.58 8 8z" fill="#f2fbff"/><path d="m208.408 406.668h-24.67c-4.42 0-8-3.58-8-8v-29.27c0-4.28 3.36-7.78 7.59-7.99h25.08c-4.51 0-8.16 3.65-8.16 8.16v28.94c0 4.51 3.65 8.16 8.16 8.16z" fill="#dff6fd"/></g></svg>