<svg id="Capa_1" enable-background="new 0 0 507.916 507.916" height="512" viewBox="0 0 507.916 507.916" width="512" xmlns="http://www.w3.org/2000/svg"><g><path d="m271.685 69.493h-35.455v-61.493c0-4.418 3.582-8 8-8h19.455c4.418 0 8 3.582 8 8z" fill="#dff6fd"/><path d="m350.328 129.486v23.89h-192.74v-23.89c0-51.92 42.09-94 94-94h4.74c1.62 0 3.23.04 4.84.12h.01c49.65 2.53 89.15 43.59 89.15 93.88z" fill="#f2fbff"/><path d="m261.168 35.606c-45.31 8.45-79.61 48.21-79.61 95.96v21.81h-23.97v-23.89c0-51.92 42.09-94 94-94h4.74c1.62 0 3.23.04 4.84.12z" fill="#dff6fd"/><path d="m232.248 294.236h43.42v196.7h-43.42z" fill="#c68d7a"/><path d="m232.248 451.008h43.42v35.652h-43.42z" fill="#bc7c63"/><path d="m232.248 294.236h24.63v196.7h-24.63z" fill="#bc7c63"/><path d="m376.388 484.006v15.91c0 4.41-3.58 8-8 8h-228.86c-.14 0-.28 0-.41-.01-4.23-.22-7.59-3.72-7.59-7.99v-15.91c0-4.27 3.36-7.77 7.59-7.99.13-.01.27-.01.41-.01h228.86c4.42 0 8 3.59 8 8z" fill="#c68d7a"/><path d="m164.348 507.906h-25.23c-4.23-.22-7.59-3.72-7.59-7.99v-15.91c0-4.27 3.36-7.77 7.59-7.99h25.23c-4.52 0-8.2 3.67-8.2 8.2v15.49c0 4.53 3.68 8.2 8.2 8.2z" fill="#bc7c63"/><path d="m364.168 143.946v50.98h-220.42v-50.98c0-4.41 3.58-8 8-8h204.42c4.42 0 8 3.59 8 8z" fill="#dff6fd"/><path d="m176.578 135.946c-4.53 0-8.2 3.67-8.2 8.21v50.77h-24.63v-50.98c0-4.41 3.58-8 8-8z" fill="#c8effe"/><path d="m507.688 192.086v184.31c0 4.35-3.39 7.96-7.73 8.18-34.74 1.87-37.3 16.21-76.84 16.21-42.3 0-42.3-16.4-84.59-16.4s-42.29 16.4-84.58 16.4-42.29-16.4-84.57-16.4c-42.29 0-42.29 16.4-84.58 16.4-32.3 0-39.93-9.57-60.57-14.09-4.63-1.01-9.91-1.78-16.27-2.12-4.34-.22-7.73-3.83-7.73-8.18v-184.31c0-10.19 8.26-18.45 18.45-18.45h470.56c10.19 0 18.45 8.26 18.45 18.45z" fill="#ffeee7"/><path d="m42.678 173.636c-10.19 0-18.45 8.84-18.45 19.75v193.31c-4.63-1.01-9.91-1.78-16.27-2.12-4.34-.22-7.73-3.83-7.73-8.18v-184.31c0-10.19 8.26-18.45 18.45-18.45z" fill="#ffe2db"/><path d="m.228 226.776h507.46v49.92h-507.46z" fill="#f58a97"/><path d="m.228 226.776h24v49.92h-24z" fill="#f07281"/></g></svg>