<svg id="Capa_1" enable-background="new 0 0 512 512" height="512" viewBox="0 0 512 512" width="512" xmlns="http://www.w3.org/2000/svg"><g><path d="m482 0h-196l-20 256 20 256h196z" fill="#24b3b3"/><path d="m60 0h226v512h-226z" fill="#2ee6a8"/><path d="m452 30h-166l-20 226 20 226h166z" fill="#198080"/><path d="m90 30h196v452h-196z" fill="#24b3b3"/><g fill="#283d66"><path d="m30 60h90v30h-90z"/><path d="m30 132h90v30h-90z"/><path d="m30 204h90v30h-90z"/><path d="m30 276h90v30h-90z"/><path d="m30 348h90v30h-90z"/><path d="m30 420h90v30h-90z"/></g><path d="m337.429 177.857-71.429-20 20 98.143h51.429z" fill="#cfcfe6"/><path d="m234.571 177.857v78.143h51.429v-98.143z" fill="#ece6f2"/><path d="m376 139.286c0-21.302-17.269-38.572-38.571-38.572h-10.765c-7.223-15.202-22.714-25.714-40.664-25.714l-20 58.688 20 44.169h51.429c21.302 0 38.571-17.269 38.571-38.571z" fill="#ece6f2"/><path d="m245.336 100.714h-10.765c-21.302 0-38.571 17.269-38.571 38.571 0 21.302 17.269 38.571 38.571 38.571h51.429v-102.856c-17.95 0-33.441 10.512-40.664 25.714z" fill="#fff5f5"/><path d="m392 301h-106l-10 15 10 15h106z" fill="#ece6f2"/><path d="m332 391v-30h-46l-10 15 10 15z" fill="#ece6f2"/><path d="m180 301h106v30h-106z" fill="#fff5f5"/><path d="m180 361h106v30h-106z" fill="#fff5f5"/></g></svg>