<svg id="Capa_1" enable-background="new 0 0 512 512" height="512" viewBox="0 0 512 512" width="512" xmlns="http://www.w3.org/2000/svg"><g><path d="m51.181 248.415c-30.613 10.129-51.181 38.6-51.181 70.844v162.741h30v-162.741c0-19.067 12.031-35.92 30-42.15l10-15.023-10-16.591z" fill="#fff5f5"/><path d="m460.819 248.415-8.819-2.918-10 17.484 10 14.129c17.969 6.23 30 23.083 30 42.15v162.74h30v-162.741c0-32.244-20.568-60.715-51.181-70.844z" fill="#ece6f2"/><path d="m361.333 120v-14.667c0-58.081-47.252-105.333-105.333-105.333l-10 15.5 10 14.5c41.539 0 75.333 33.794 75.333 75.333v34.667z" fill="#ece6f2"/><path d="m150.667 105.333v14.667l30 20v-34.667c0-41.539 33.794-75.333 75.333-75.333v-30c-58.081 0-105.333 47.252-105.333 105.333z" fill="#fff5f5"/><path d="m361.333 120h-105.333l-20 50 125.333-20z" fill="#ffda44"/><path d="m150.667 120v30l105.333 20v-50z" fill="#fff79f"/><path d="m416.187 233.646c-32.81-10.856-54.854-41.369-54.854-75.928v-7.718h-105.333l-20 189.5 20 172.5h196v-234.89-31.613z" fill="#ffb655"/><path d="m150.667 150v7.718c0 34.559-22.044 65.072-54.853 75.928l-35.814 11.85v31.613 234.891h196v-362z" fill="#ffda44"/><path d="m361.333 407v-135h-105.333l-20 67.5 20 67.5z" fill="#ffda44"/><path d="m150.667 272h105.333v135h-105.333z" fill="#fff79f"/><path d="m331.333 377v-75h-75.333l-20 37.5 20 37.5z" fill="#ff8859"/><path d="m180.667 302h75.333v75h-75.333z" fill="#ffb655"/></g></svg>