<svg id="Capa_1" enable-background="new 0 0 512 512" height="512" viewBox="0 0 512 512" width="512" xmlns="http://www.w3.org/2000/svg"><g><path d="m419.308 414.5 21.106-106-204.414-20 20 126z" fill="#ff8859"/><path d="m92.692 414.5h163.308v-126l-184.414 20z" fill="#ffb655"/><path d="m256 97.5 37.5 151.333h52.5c0-83.579-40.294-151.333-90-151.333z" fill="#ffb655"/><path d="m256 97.5-37.5 151.333h-52.5c0-83.579 40.294-151.333 90-151.333z" fill="#ffda44"/><path d="m256 97.5-20 151.333h57.5c0-83.579-16.789-151.333-37.5-151.333z" fill="#ffda44"/><path d="m256 97.5c-20.711 0-37.5 67.754-37.5 151.333h37.5z" fill="#fff79f"/><path d="m451.711 251.763h-215.711l20 56.737h184.414z" fill="#ff415b"/><path d="m60.289 251.763 11.297 56.737h184.414v-56.737z" fill="#ff8859"/><path d="m512 233.5h-256l-10 15.333 10 14.667h256z" fill="#ff8859"/><path d="m0 233.5h256v30h-256z" fill="#ffb655"/></g></svg>