<svg id="Capa_1" enable-background="new 0 0 511.903 511.903" height="512" viewBox="0 0 511.903 511.903" width="512" xmlns="http://www.w3.org/2000/svg"><g><path d="m121.651 361.968-112.227 140.511c12.565 12.565 32.938 12.565 45.503 0l90.813-90.813z" fill="#283d66"/><path d="m100.237 366.163-90.813 90.813c-12.565 12.565-12.566 32.937 0 45.503l126.369-126.369z" fill="#4d628c"/><path d="m224.322 385.133-62.917-62.92-39.755 68.039c7.663 7.663 15.707 14.807 24.089 21.414z" fill="#cfcfe6"/><path d="m126.774 287.578-26.537 78.586c6.607 8.382 13.75 16.426 21.413 24.089l53.897-53.897z" fill="#ece6f2"/><path d="m451.664 60.239-159.806 131.522-131.522 159.806c40.159 40.16 92.912 60.239 145.664 60.239s105.505-20.08 145.664-60.239c80.319-80.319 80.319-211.008 0-291.328z" fill="#198080"/><path d="m160.336 60.239c-80.319 80.319-80.319 211.009 0 291.328l291.328-291.328c-80.318-80.319-211.01-80.318-291.328 0z" fill="#24b3b3"/><path d="m430.451 330.354c68.622-68.622 68.622-180.279 0-248.902l-138.593 110.309-110.309 138.593c68.623 68.622 180.279 68.622 248.902 0z" fill="#24b3b3"/><path d="m181.549 81.453c-68.622 68.622-68.622 180.279 0 248.902l248.902-248.903c-68.623-68.621-180.279-68.622-248.902.001z" fill="#2ee6a8"/><path d="m452 205.903c0-38.998-15.186-75.662-42.763-103.237l-117.379 89.095-89.095 117.379c27.575 27.576 64.239 42.763 103.237 42.763s75.662-15.187 103.237-42.763c27.576-27.575 42.763-64.239 42.763-103.237z" fill="#283d66"/><path d="m306 59.903c-38.998 0-75.662 15.187-103.237 42.763-27.577 27.576-42.763 64.239-42.763 103.237s15.186 75.662 42.763 103.237l206.475-206.475c-27.576-27.575-64.24-42.762-103.238-42.762z" fill="#4d628c"/></g></svg>