<svg id="Capa_1" enable-background="new 0 0 512 512" height="512" viewBox="0 0 512 512" width="512" xmlns="http://www.w3.org/2000/svg"><g><path d="m256 0-10 14.469 10 15.531h75v75h30v-105z" fill="#0f0f4d"/><path d="m151 0v105h30v-75h75v-30z" fill="#283d66"/><path d="m392.057 104.467h-156.057l20 407.533h150.543z" fill="#cfcfe6"/><path d="m119.943 104.467-14.486 407.533h150.543v-407.533z" fill="#ece6f2"/><path d="m301 390h30v30h-30z" fill="#a3aacc"/><path d="m181 390h30v30h-30z" fill="#cfcfe6"/><path d="m301 330h30v30h-30z" fill="#a3aacc"/><path d="m181 330h30v30h-30z" fill="#cfcfe6"/><path d="m301 270h30v30h-30z" fill="#a3aacc"/><path d="m181 270h30v30h-30z" fill="#cfcfe6"/><path d="m301 210h30v30h-30z" fill="#a3aacc"/><path d="m181 210h30v30h-30z" fill="#cfcfe6"/><path d="m301 150h30v30h-30z" fill="#a3aacc"/><path d="m181 150h30v30h-30z" fill="#cfcfe6"/><path d="m421 90h-165l-10 14.467 10 15.533h165z" fill="#283d66"/><path d="m91 90h165v30h-165z" fill="#4d628c"/><path d="m271 150h-15l-10 15 10 15h15z" fill="#a3aacc"/><path d="m241 150h15v30h-15z" fill="#cfcfe6"/><path d="m271 210h-15l-10 15 10 15h15z" fill="#a3aacc"/><path d="m241 210h15v30h-15z" fill="#cfcfe6"/><path d="m271 270h-15l-10 15 10 15h15z" fill="#a3aacc"/><path d="m241 270h15v30h-15z" fill="#cfcfe6"/><path d="m271 330h-15l-10 15 10 15h15z" fill="#a3aacc"/><path d="m241 330h15v30h-15z" fill="#cfcfe6"/><path d="m271 390h-15l-10 15 10 15h15z" fill="#a3aacc"/><path d="m241 390h15v30h-15z" fill="#cfcfe6"/></g></svg>