<svg id="Capa_1" enable-background="new 0 0 512 512" height="512" viewBox="0 0 512 512" width="512" xmlns="http://www.w3.org/2000/svg"><g><path d="m256 120.5-10 16.25 10 13.75c8.271 0 15 6.729 15 15v32.485h30v-32.485c0-24.813-20.187-45-45-45z" fill="#a3aacc"/><path d="m211 165.5v32.485h30v-32.485c0-8.271 6.729-15 15-15v-30c-24.813 0-45 20.187-45 45z" fill="#cfcfe6"/><path d="m256 180.5-20 196h216c0-108.075-87.925-196-196-196z" fill="#cfcfe6"/><path d="m60 376.5h196v-196c-108.075 0-196 87.925-196 196z" fill="#ece6f2"/><path d="m512 361.5h-256l-10 15 10 15h256z" fill="#a3aacc"/><path d="m0 361.5h256v30h-256z" fill="#cfcfe6"/></g></svg>