<svg id="Capa_1" enable-background="new 0 0 511.939 511.939" height="512" viewBox="0 0 511.939 511.939" width="512" xmlns="http://www.w3.org/2000/svg"><g><path d="m475.378 36.561-17.684 3.541-3.53 17.672c4.652 4.652 5.186 14.739 1.428 26.984-4.801 15.643-16.085 33.145-30.959 48.019-15.604 15.604-56.664 52.382-99.091 85.29-52.833 40.979-76.913 52.012-86.613 54.942l-45.418 17.134 63.659 35.375c70.799-8.195 182.572-76.506 218.207-112.141 48.749-48.748 48.749-128.068.001-176.816zm-207.998 256.862c1.075-.56 2.063-1.085 2.925-1.544 17.161-9.143 38.98-23.736 64.851-43.373 45.799-34.765 93.125-76.95 110.69-94.515 14.982-14.982 26.779-31.909 34.062-48.682 6.378 30.385-2.199 63.311-25.743 86.856-29.184 29.183-123.561 87.562-186.785 101.258z" fill="#ece6f2"/><path d="m319.775 57.775c23.544-23.544 56.47-32.122 86.855-25.743-16.772 7.283-33.699 19.08-48.681 34.062-17.565 17.565-59.75 64.891-94.515 110.69-19.637 25.871-34.231 47.69-43.373 64.851-.459.862-.984 1.85-1.544 2.925 13.695-63.225 72.074-157.602 101.258-186.785zm-80.845 215.234c2.93-9.7 13.963-33.779 54.942-86.613 32.908-42.426 69.686-83.486 85.29-99.091 14.874-14.874 32.376-26.159 48.019-30.96 12.244-3.758 22.332-3.224 26.984 1.428l21.213-21.213c-48.748-48.748-128.068-48.748-176.816 0-35.636 35.637-103.947 147.409-112.142 218.208l21.233 49.517z" fill="#fff5f5"/><path d="m235.957 346.732 21.213-21.214-35.375-35.375-49.497 21.214z" fill="#198080"/><path d="m221.795 290.143-35.375-35.375-21.213 21.214 21.233 49.517z" fill="#24b3b3"/><path d="m200.582 311.357-96.746 68.461-68.461 96.746 35.375 35.375 165.207-165.207z" fill="#24b3b3"/><path d="m-16.528 351.259h233.638v50.028h-233.638z" fill="#2ee6a8" transform="matrix(.707 -.707 .707 .707 -236.69 181.124)"/></g></svg>