<svg id="Capa_1" enable-background="new 0 0 512 512" height="512" viewBox="0 0 512 512" width="512" xmlns="http://www.w3.org/2000/svg"><g><path d="m512 91h-120l-20 215 140-20z" fill="#283d66"/><path d="m392 286-20 80 140-20v-60z" fill="#0f0f4d"/><path d="m392 421h120v-75h-140z" fill="#283d66"/><path d="m362 91-20 165.067 20 164.933h30v-330z" fill="#4d628c"/><path d="m422 211h30v30h-30z" fill="#ece6f2"/><path d="m422 151h30v30h-30z" fill="#ece6f2"/><path d="m362 91h-106l-20 171.325 20 158.675h106z" fill="#283d66"/><path d="m0 91h256v330h-256z" fill="#4d628c"/><path d="m332 151h-76l-20 111.325 20 98.675h76z" fill="#0f0f4d"/><path d="m30 151h226v210h-226z" fill="#283d66"/><path d="m236 262.325 20 68.675h46v-110.241z" fill="#ece6f2"/><path d="m302 220.759v-39.759h-46l-20 51.5 20 29.825z" fill="#cfcfe6"/><path d="m180 331h76v-68.675l-48 18.675z" fill="#fff5f5"/><path d="m256 181-86.5 48.5-79.5 101.5h90l76-68.675z" fill="#ece6f2"/><path d="m60 181v150h30l166-150z" fill="#fff5f5"/></g></svg>