<svg id="Capa_1" enable-background="new 0 0 512 512" height="512" viewBox="0 0 512 512" width="512" xmlns="http://www.w3.org/2000/svg"><g><path d="m256 0c-70.693 0-134.693 28.654-181.019 74.981l166.877 195.161 195.161 166.877c46.327-46.327 74.981-110.327 74.981-181.019 0-59.207-20.099-113.719-53.846-157.086l-45.068-45.068c-43.367-33.747-97.879-53.846-157.086-53.846z" fill="#c9885b"/><path d="m0 256c0 59.207 20.099 113.719 53.846 157.086l45.068 45.068c43.367 33.747 97.879 53.846 157.086 53.846 70.692 0 134.692-28.654 181.019-74.981l-362.038-362.038c-46.327 46.326-74.981 110.326-74.981 181.019z" fill="#e1bb78"/><path d="m389.077 167.99 79.81-79.81c12.445-12.445 12.445-32.622 0-45.067-12.445-12.445-32.622-12.445-45.067 0l-79.81 79.81z" fill="#edd7b0"/><path d="m167.99 389.077-79.81 79.81c-12.445 12.445-32.622 12.445-45.067 0-12.445-12.445-12.445-32.622 0-45.067l79.81-79.81z" fill="#f3e5cb"/><path d="m335.618 86.247-124.685 124.686 30.925 59.209 59.209 30.925 124.686-124.686z" fill="#e1bb78"/><path d="m105.491 254.608h176.332v127.469h-176.332z" fill="#edd7b0" transform="matrix(.707 -.707 .707 .707 -168.381 230.177)"/></g></svg>