<svg id="Capa_1" enable-background="new 0 0 512 512" height="512" viewBox="0 0 512 512" width="512" xmlns="http://www.w3.org/2000/svg"><g><path d="m77.966 496.548 23.508-27.378c54.802-63.822 112.006-125.542 171.49-185.025l61.906-61.906-22.555-50.839-299.33 327.615c18.249 18.249 48.168 17.113 64.981-2.467z" fill="#c9885b"/><path d="m289.76 177.13-61.906 61.906c-59.483 59.484-121.202 116.688-185.024 171.49l-27.378 23.508c-19.58 16.813-20.716 46.732-2.467 64.981l313.473-313.473z" fill="#e1bb78"/><path d="m488.765 23.234-104.851 76.568-76.567 104.852c38.078 38.078 109.558 28.334 159.656-21.763s59.841-121.578 21.762-159.657z" fill="#e1bb78"/><path d="m329.109 44.998c-50.098 50.098-59.841 121.578-21.763 159.656l181.419-181.42c-38.078-38.078-109.558-28.334-159.656 21.764z" fill="#edd7b0"/></g></svg>