<svg id="Capa_1" enable-background="new 0 0 512 512" height="512" viewBox="0 0 512 512" width="512" xmlns="http://www.w3.org/2000/svg"><g><path d="m384.531 0h-128.531l-20 101.664 148.531-20z" fill="#cfcfe6"/><path d="m127.469 0v81.664l128.531 20v-101.664z" fill="#ece6f2"/><path d="m384.531 81.664h-128.531l-20 50 148.531-20z" fill="#a3aacc"/><path d="m127.469 81.664v30l128.531 20v-50z" fill="#cfcfe6"/><path d="m384.531 328.266v-216.602h-128.531l-20 236.602z" fill="#cfcfe6"/><path d="m127.469 328.266 128.531 20v-236.602h-128.531z" fill="#ece6f2"/><path d="m512 328.266h-256l-20 31.867 20 31.867h256z" fill="#ece6f2"/><path d="m0 328.266h256v63.734h-256z" fill="#fff5f5"/><path d="m301 422h30v90h-30z" fill="#ece6f2"/><path d="m361 422h30v90h-30z" fill="#ece6f2"/><path d="m181 422h30v90h-30z" fill="#fff5f5"/><path d="m121 422h30v90h-30z" fill="#fff5f5"/><path d="m304.863 268.266h-48.863l-10 15 10 15h48.863z" fill="#283d66"/><path d="m207.137 268.266h48.863v30h-48.863z" fill="#4d628c"/><path d="m271 512h-15l-10-45 10-45h15z" fill="#ece6f2"/><path d="m241 422h15v90h-15z" fill="#fff5f5"/></g></svg>