<svg id="Capa_1" enable-background="new 0 0 512 512" height="512" viewBox="0 0 512 512" width="512" xmlns="http://www.w3.org/2000/svg"><g><path d="m426.413 70.587c-45.519-45.519-106.039-70.587-170.413-70.587l-20 241 20 241c64.374 0 124.894-25.068 170.413-70.587s70.587-106.039 70.587-170.413-25.068-124.894-70.587-170.413z" fill="#ece6f2"/><path d="m85.587 70.587c-45.519 45.519-70.587 106.039-70.587 170.413s25.068 124.894 70.587 170.413 106.039 70.587 170.413 70.587v-482c-64.374 0-124.894 25.068-170.413 70.587z" fill="#fff5f5"/><path d="m256 90-20 151 20 151c83.262 0 151-67.738 151-151s-67.738-151-151-151z" fill="#cfcfe6"/><path d="m105 241c0 83.262 67.738 151 151 151v-302c-83.262 0-151 67.738-151 151z" fill="#ece6f2"/><path d="m377 241c0-66.72-54.28-121-121-121l-20 121 20 121c66.72 0 121-54.28 121-121z" fill="#ece6f2"/><path d="m135 241c0 66.72 54.28 121 121 121v-242c-66.72 0-121 54.28-121 121z" fill="#fff5f5"/><path d="m181 211h30v246h-30z" fill="#e1bb78"/><path d="m301 211h30v246h-30z" fill="#c9885b"/><path d="m512 437h-256l-20 37.5 20 37.5h256z" fill="#e1bb78"/><path d="m0 437h256v75h-256z" fill="#edd7b0"/></g></svg>