<svg id="Capa_1" enable-background="new 0 0 512 512" height="512" viewBox="0 0 512 512" width="512" xmlns="http://www.w3.org/2000/svg"><g><path d="m271 316h-25l10-60h15z" fill="#0f0f4d"/><path d="m241 256h15v60h-15z" fill="#283d66"/><path d="m301 512v-211h-45l-20 105.5 20 105.5z" fill="#c9885b"/><path d="m211 301h45v211h-45z" fill="#e1bb78"/><path d="m452 0h-196l-10 15.345 10 14.655h106v30.25h-106l-10 14.892 10 15.108h106v30.25h-106l-10 15 10 15h106v30.25h-106l-10 14.707 10 15.293h106v30.25h-106l-10 14.976 10 15.024h196zm-30 241h-30v-30.25h30zm0-60.25h-30v-30.25h30zm0-60.25h-30v-30.25h30zm0-60.25h-30v-30.25h30z" fill="#283d66"/><path d="m150 241v-30.25h106v-30h-106v-30.25h106v-30h-106v-30.25h106v-30h-106v-30.25h106v-30h-196v271h196v-30zm-30 0h-30v-30.25h30zm0-60.25h-30v-30.25h30zm0-60.25h-30v-30.25h30zm0-60.25h-30v-30.25h30z" fill="#4d628c"/></g></svg>