<svg id="Capa_1" enable-background="new 0 0 512 512" height="512" viewBox="0 0 512 512" width="512" xmlns="http://www.w3.org/2000/svg"><g><path d="m287.867 512h31.867v-168.108l-51.867-20z" fill="#24b3b3"/><path d="m256 343.892v168.108h31.867v-188.108z" fill="#2ee6a8"/><path d="m267.867 293.892 20 50h31.867v-30z" fill="#198080"/><path d="m287.867 293.892-31.867 20v30h31.867z" fill="#24b3b3"/><path d="m480.133 512h31.867v-168.108l-51.867-20z" fill="#ffb655"/><path d="m448.266 343.892v168.108h31.867v-188.108z" fill="#ffda44"/><path d="m460.133 293.892 20 50h31.867v-30z" fill="#ff8859"/><path d="m480.133 293.892-31.867 20v30h31.867z" fill="#ffb655"/><path d="m31.867 512h31.867v-168.108l-51.867-20z" fill="#ff415b"/><path d="m0 343.892v168.108h31.867v-188.108z" fill="#ff8859"/><path d="m11.867 293.892 20 50h31.867v-30z" fill="#d10050"/><path d="m31.867 293.892-31.867 20v30h31.867z" fill="#ff415b"/><path d="m480.133 8.548-20 148.639 20 156.705h31.867v-250.158c0-23.586-12.823-44.165-31.867-55.186z" fill="#cfcfe6"/><path d="m349.734 28.289-20 128.898 20 156.705h33.734v-208.205c.001-30.57-12.984-58.103-33.734-77.398z" fill="#ece6f2"/><path d="m287.867.482-20 156.705 20 156.705h31.867 30v-285.603c-16.558-15.399-38.061-25.553-61.867-27.807z" fill="#cfcfe6"/><g fill="#ece6f2"><path d="m287.867.482c-3.32-.315-6.683-.482-10.086-.482h-21.781v313.892h31.867z"/><path d="m480.133 8.548c-9.377-5.427-20.254-8.548-31.867-8.548v313.892h31.867z"/><path d="m127.469 0-20 157.187 20 156.705h63.734v-313.892z"/></g><path d="m31.867 0-20 156.946 20 156.946h31.867 63.735v-313.892z" fill="#cfcfe6"/><path d="m0 0h31.867v313.892h-31.867z" fill="#ece6f2"/></g></svg>