<svg id="Capa_1" enable-background="new 0 0 512 512" height="512" viewBox="0 0 512 512" width="512" xmlns="http://www.w3.org/2000/svg"><g><path d="m346.5 343.125h30v60h-30z" fill="#198080" transform="matrix(.866 -.5 .5 .866 -138.131 230.74)"/><path d="m120.5 358.125h60v30h-60z" fill="#24b3b3" transform="matrix(.5 -.866 .866 .5 -247.886 316.898)"/><path d="m236 120.394 20 266c108.075 0 196-87.925 196-196v-70z" fill="#24b3b3"/><path d="m60 120.394v70c0 108.075 87.925 196 196 196v-266z" fill="#2ee6a8"/><path d="m512 105.394h-256l-10 15 10 15h256z" fill="#198080"/><g fill="#24b3b3"><path d="m0 105.394h256v30h-256z"/><path d="m121 165.394h30v30h-30z"/><path d="m181 165.394h30v30h-30z"/></g><path d="m301 165.394h30v30h-30z" fill="#198080"/><path d="m361 165.394h30v30h-30z" fill="#198080"/><path d="m151 225.394h30v30h-30z" fill="#24b3b3"/><path d="m211 225.394h30v30h-30z" fill="#24b3b3"/><path d="m271 225.394h30v30h-30z" fill="#198080"/><path d="m331 225.394h30v30h-30z" fill="#198080"/><path d="m211 285.394h30v30h-30z" fill="#24b3b3"/><path d="m271 285.394h30v30h-30z" fill="#198080"/><path d="m271 195.394h-15l-10-15 10-15h15z" fill="#198080"/><path d="m241 165.394h15v30h-15z" fill="#24b3b3"/></g></svg>