<svg id="Capa_1" enable-background="new 0 0 512 512" height="512" viewBox="0 0 512 512" width="512" xmlns="http://www.w3.org/2000/svg"><g><path d="m333.87 225.001 13.857 5.739 32.942-79.527-23.399-5.74z" fill="#cfcfe6"/><path d="m300.371 174.866h86.08v15.001h-86.08z" fill="#ece6f2" transform="matrix(.383 -.924 .924 .383 43.507 429.846)"/><path d="m0 270h90v30h-90z" fill="#4d628c"/><path d="m422 270h90v30h-90z" fill="#283d66"/><path d="m437 225h-201l20 287h181z" fill="#cfcfe6"/><path d="m75 225h181v287h-181z" fill="#ece6f2"/><path d="m467 210h-211l-10 15 10 15h211z" fill="#a3aacc"/><path d="m45 210h211v30h-211z" fill="#cfcfe6"/><path d="m424.213 6.892-48.213 69.608-14.929 82.832 41.574 17.22 45.922-110.866c9.495-22.924-1.43-49.299-24.354-58.794z" fill="#ff8859"/><path d="m424.213 6.892c-11.104-4.599-23.336-4.601-34.442 0-11.105 4.6-19.754 13.249-24.354 24.354l-45.922 110.866 41.576 17.221z" fill="#ffb655"/><path d="m271 181v-45c0-13.296-5.801-25.26-15-33.505l-10 17.505 10 61z" fill="#ece6f2"/><path d="m286.5 0v16c0 8.271-6.729 15-15 15h-15.5l-10 15 10 15h15.5c24.813 0 45-20.187 45-45v-16z" fill="#ece6f2"/><path d="m180.5 31c-24.813 0-45 20.187-45 45s20.187 45 45 45h45.5c8.271 0 15 6.729 15 15v45h15v-78.505c-7.968-7.141-18.483-11.495-30-11.495h-45.5c-8.271 0-15-6.729-15-15s6.729-15 15-15h75.5v-30z" fill="#fff5f5"/></g></svg>