<svg id="Capa_1" enable-background="new 0 0 512 512" height="512" viewBox="0 0 512 512" width="512" xmlns="http://www.w3.org/2000/svg"><g><path d="m340.516 75.868c-14.623-14.467-34.668-20.969-55.001-17.842l-24.298 3.739c-1.731.266-3.474.399-5.216.399l-20 120.58h115.509l7.438-52.069c2.909-20.364-3.809-40.34-18.432-54.807z" fill="#c9885b"/><path d="m250.785 61.764-24.3-3.739c-20.33-3.127-40.378 3.375-55 17.842-14.623 14.467-21.341 34.443-18.432 54.806l7.438 52.07h95.509v-120.579c-1.743 0-3.485-.133-5.215-.4z" fill="#e1bb78"/><path d="m329.25 126.431c1.552-10.863-2.032-21.519-9.833-29.236-7.801-7.718-18.494-11.186-29.34-9.518l-24.299 3.739c-3.244.499-6.511.749-9.778.749l-20 80.579 89.491-20z" fill="#e1bb78"/><path d="m246.223 91.416-24.3-3.739c-10.845-1.669-21.539 1.801-29.34 9.518-7.8 7.717-11.384 18.373-9.833 29.236l3.759 26.313 69.491 20v-80.58c-3.267 0-6.533-.249-9.777-.748z" fill="#edd7b0"/><g><path d="m0 244.743h45v30h-45z" fill="#283d66"/></g><path d="m482 226.589c0-40.719-33.127-73.846-73.846-73.846h-152.154l-20 202 246-20z" fill="#d10050"/><path d="m103.846 152.743c-40.719 0-73.846 33.127-73.846 73.846v108.154l226 20v-202z" fill="#ff415b"/><path d="m482 334.743h-226l-20 50 246-20z" fill="#ff415b"/><path d="m30 334.743v30l226 20v-50z" fill="#ff8859"/><path d="m30 409.743h30v45h-30z" fill="#283d66"/><path d="m452 409.743h30v45h-30z" fill="#0f0f4d"/><path d="m392 274.743h30v30h-30z" fill="#ff8859"/><path d="m482 409.743v-45h-226l-20 45z" fill="#d10050"/><path d="m30 364.743h226v45h-226z" fill="#ff415b"/><path d="m512 394.743h-256l-10 15 10 15h256z" fill="#cfcfe6"/><path d="m0 394.743h256v30h-256z" fill="#ece6f2"/></g></svg>