<svg id="Capa_1" enable-background="new 0 0 512 512" height="512" viewBox="0 0 512 512" width="512" xmlns="http://www.w3.org/2000/svg"><g><path d="m181.999 497h-15l-10-252.5h25z" fill="#cfcfe6"/><path d="m151.999 244.5h15v252.5h-15z" fill="#ece6f2"/><path d="m256 123.502c-6.305 0-12.2-2.49-16.599-7.01-4.396-4.518-6.722-10.486-6.549-16.803.34-12.407 11.012-22.5 23.79-22.5h162.483v-7.719c0-38.306-31.164-69.47-69.47-69.47h-182.656l-20 200 303.002-20v-56.498z" fill="#ff415b"/><path d="m166.999 0h-35.53c-38.306 0-69.47 31.164-69.47 69.47v110.53l105 20z" fill="#ff8859"/><path d="m146.999 230 301.36-20c1.064-4.825 1.642-9.83 1.642-14.97v-15.03h-283.002z" fill="#ff8859"/><path d="m166.999 180h-105v15.03c0 5.14.578 10.145 1.642 14.97l103.358 20z" fill="#ffb655"/><path d="m211.999 407v30c0 24.813-20.187 45-45 45l-10 15 10 15c41.355 0 75-33.645 75-75v-30c0-41.355-33.645-75-75-75l-10 15.5 10 14.5c24.813 0 45 20.187 45 45z" fill="#ece6f2"/><path d="m91.999 407v30c0 41.355 33.645 75 75 75v-30c-24.813 0-45-20.187-45-45v-30c0-24.813 20.187-45 45-45v-30c-41.355 0-75 33.645-75 75z" fill="#fff5f5"/><path d="m166.999 264.5h213.532c33.166 0 60.961-23.368 67.828-54.5h-281.36l-20 27.25z" fill="#ff415b"/><path d="m63.641 210c6.867 31.132 34.662 54.5 67.828 54.5h35.53v-54.5z" fill="#ff8859"/><path d="m181.999 150h-15l-10-15 10-15h15z" fill="#ece6f2"/><path d="m151.999 120h15v30h-15z" fill="#fff5f5"/></g></svg>