<svg id="Capa_1" enable-background="new 0 0 512 512" height="512" viewBox="0 0 512 512" width="512" xmlns="http://www.w3.org/2000/svg"><g><path d="m256 512h129.971c38.764-43.469 66.008-105.961 74.414-177.266l-224.385-20z" fill="#ffda44"/><path d="m51.615 334.734c8.406 71.304 35.65 133.796 74.414 177.266h129.971v-197.266z" fill="#fff79f"/><path d="m256 0-20 324.734 226.787-20c.232-5.581.35-11.205.35-16.867 0-158.984-92.738-287.867-207.137-287.867z" fill="#ffda44"/><path d="m256 0c-114.399 0-207.137 128.883-207.137 287.867 0 5.662.118 11.286.35 16.867l206.787 20z" fill="#fff79f"/><path d="m368.469 271.934h30v95.602h-30z" fill="#283d66"/><path d="m304.734 271.934h30v95.602h-30z" fill="#283d66"/><path d="m177.266 271.934h30v95.602h-30z" fill="#4d628c"/><path d="m113.531 271.934h30v95.602h-30z" fill="#4d628c"/><path d="m271 430.336h-15l-10-15 10-15h15z" fill="#283d66"/><path d="m271 367.535h-15l-10-47.801 10-47.8h15z" fill="#283d66"/><path d="m241 400.336h15v30h-15z" fill="#4d628c"/><path d="m241 271.934h15v95.602h-15z" fill="#4d628c"/><path d="m256 334.734h204.385c1.16-9.844 1.98-19.847 2.402-30h-206.787l-10 15z" fill="#ffb655"/><path d="m256 304.734h-206.787c.422 10.153 1.242 20.156 2.402 30h204.385z" fill="#ffda44"/></g></svg>