<svg id="Capa_1" enable-background="new 0 0 512 512" height="512" viewBox="0 0 512 512" width="512" xmlns="http://www.w3.org/2000/svg"><g><path d="m512 0h-256l-20 256 20 256h256z" fill="#cfcfe6"/><path d="m0 0h256v512h-256z" fill="#ece6f2"/><circle cx="369" cy="143" fill="#283d66" r="83"/><circle cx="369" cy="143" fill="#0f0f4d" r="53"/><circle cx="143" cy="143" fill="#283d66" r="83"/><circle cx="143" cy="143" fill="#0f0f4d" r="53"/><circle cx="369" cy="369" fill="#283d66" r="83"/><circle cx="369" cy="369" fill="#0f0f4d" r="53"/><circle cx="143" cy="369" fill="#283d66" r="83"/><circle cx="143" cy="369" fill="#0f0f4d" r="53"/><g fill="#4d628c"><path d="m459.51 73.704-21.213-21.213-69.297 69.296-69.297-69.296-21.213 21.213 69.297 69.296-69.297 69.296 21.213 21.213 69.297-69.296 69.297 69.296 21.213-21.213-69.297-69.296z"/><path d="m212.297 52.491-69.297 69.296-69.297-69.296-21.213 21.213 69.297 69.296-69.297 69.296 21.213 21.213 69.297-69.296 69.297 69.296 21.213-21.213-69.297-69.296 69.297-69.296z"/><path d="m438.297 278.491-69.297 69.296-69.297-69.296-21.213 21.213 69.297 69.296-69.297 69.296 21.213 21.213 69.297-69.296 69.297 69.296 21.213-21.213-69.297-69.296 69.297-69.296z"/><path d="m212.297 278.491-69.297 69.296-69.297-69.296-21.213 21.213 69.297 69.296-69.297 69.296 21.213 21.213 69.297-69.296 69.297 69.296 21.213-21.213-69.297-69.296 69.297-69.296z"/></g></g></svg>