<svg id="Capa_1" enable-background="new 0 0 512 512" height="512" viewBox="0 0 512 512" width="512" xmlns="http://www.w3.org/2000/svg"><g><path d="m376 346h-25l10-151h15z" fill="#cfcfe6"/><path d="m346 195h15v151h-15z" fill="#ece6f2"/><path d="m150.5 346h-25l10-151h15z" fill="#cfcfe6"/><path d="m120.5 195h15v151h-15z" fill="#ece6f2"/><path d="m361 0-20 105.5 20 105.5c58.173 0 105.5-47.327 105.5-105.5s-47.327-105.5-105.5-105.5z" fill="#283d66"/><path d="m255.5 105.5c0 58.173 47.327 105.5 105.5 105.5v-211c-58.173 0-105.5 47.327-105.5 105.5z" fill="#4d628c"/><path d="m436.5 105.5c0-41.631-33.869-75.5-75.5-75.5l-20 75.5 20 75.5c41.631 0 75.5-33.869 75.5-75.5z" fill="#0f0f4d"/><path d="m285.5 105.5c0 41.631 33.869 75.5 75.5 75.5v-151c-41.631 0-75.5 33.869-75.5 75.5z" fill="#283d66"/><path d="m135.5 0-20 105.5 20 104.5c49.626 0 90-40.374 90-90v-120z" fill="#283d66"/><path d="m45.5 0v120c0 49.626 40.374 90 90 90v-210z" fill="#4d628c"/><path d="m195.5 120v-90h-60l-20 75.5 20 74.5c33.084 0 60-26.916 60-60z" fill="#0f0f4d"/><path d="m75.5 30v90c0 33.084 26.916 60 60 60v-150z" fill="#283d66"/><path d="m180.5 361v-30h-45l-20 50z" fill="#ece6f2"/><path d="m135.5 331h-45v30l45 20z" fill="#fff5f5"/><path d="m135.5 361-20 75.5 20 75.5h45v-151z" fill="#ff415b"/><path d="m90.5 361h45v151h-45z" fill="#ff8859"/><path d="m406 361v-30h-45l-20 50z" fill="#ece6f2"/><path d="m361 331h-45v30l45 20z" fill="#fff5f5"/><path d="m361 361-20 75.5 20 75.5h45v-151z" fill="#24b3b3"/><path d="m316 361h45v151h-45z" fill="#2ee6a8"/></g></svg>