<svg id="Capa_1" enable-background="new 0 0 512 512" height="512" viewBox="0 0 512 512" width="512" xmlns="http://www.w3.org/2000/svg"><g><path d="m271 347h-15l-10-60h25z" fill="#0f0f4d"/><path d="m241 287h15v60h-15z" fill="#283d66"/><path d="m301 272h-45l-10 15 10 15h45z" fill="#283d66"/><path d="m211 272h45v30h-45z" fill="#4d628c"/><path d="m375.153 332h-119.153l-20 71.362h230.552c-10.504-42.017-48.089-71.362-91.399-71.362z" fill="#198080"/><path d="m466.796 409.466h-230.796l20 102.534h193.707z" fill="#198080"/><path d="m136.847 332c-43.31 0-80.895 29.345-91.399 71.362h210.552v-71.362z" fill="#24b3b3"/><path d="m45.204 409.466 17.089 102.534h193.707v-102.534z" fill="#24b3b3"/><path d="m512 392h-256l-10 15 10 15h256z" fill="#0f0f4d"/><path d="m0 392h256v30h-256z" fill="#283d66"/><path d="m271 242v-107c0-13.296-5.801-25.26-15-33.505l-10 74.896 10 65.609z" fill="#ece6f2"/><path d="m376.5 0v15c0 8.271-6.729 15-15 15h-105.5l-10 13.983 10 16.017h105.5c24.813 0 45-20.187 45-45v-15z" fill="#ece6f2"/><path d="m150.5 30c-24.813 0-45 20.187-45 45s20.187 45 45 45h75.5c8.271 0 15 6.729 15 15v107h15v-140.505c-7.968-7.141-18.483-11.495-30-11.495h-75.5c-8.271 0-15-6.729-15-15s6.729-15 15-15h105.5v-30z" fill="#fff5f5"/></g></svg>