<svg id="Capa_1" enable-background="new 0 0 511.997 511.997" height="512" viewBox="0 0 511.997 511.997" width="512" xmlns="http://www.w3.org/2000/svg"><g><path d="m480.177 187.383-77.782-77.781-17.677 3.535-3.536 17.678 77.782 77.781z" fill="#cfcfe6"/><path d="m337.898 26.317h30v110h-30z" fill="#ece6f2" transform="matrix(.707 -.707 .707 .707 45.861 273.354)"/><path d="m490.784 155.563-35.717 35.717c-15.396 15.396-40.449 15.396-55.845 0l-39.253-39.253-113.137 84.853 63.64 35.355 21.213-21.213c29.243 29.243 76.824 29.242 106.066 0l74.246-74.246z" fill="#ff8859"/><path d="m359.969 152.028-39.253-39.253c-15.397-15.396-15.397-40.448 0-55.845l35.717-35.717-21.213-21.213-74.246 74.246c-29.242 29.242-29.242 76.824 0 106.066l-21.213 21.213 21.213 49.497z" fill="#ffb655"/><path d="m225.619 258.094 63.639 35.355 21.213-21.213-35.355-35.355z" fill="#ece6f2"/><path d="m275.116 236.881-35.355-35.356-21.214 21.214 21.214 49.497z" fill="#fff5f5"/><path d="m35.355 476.641 35.356 35.356 218.547-218.548-35.355-35.355-114.432 86.148z" fill="#ff8859"/><path d="m-27.585 324.69h309.073v50h-309.073z" fill="#ffb655" transform="matrix(.707 -.707 .707 .707 -210.085 192.19)"/></g></svg>