<svg id="Capa_1" enable-background="new 0 0 512 512" height="512" viewBox="0 0 512 512" width="512" xmlns="http://www.w3.org/2000/svg"><g><path d="m195.5 256h-25l10-45" fill="#283d66"/><path d="m512 344.153h-75.5l-20 30 20 30h75.5z" fill="#283d66"/><path d="m406.5 344.153-20 30 20 30h30v-60z" fill="#cfcfe6"/><path d="m311 344.153 20 90 75.5-30v-60z" fill="#ece6f2"/><path d="m165.5 211h15v45h-15z" fill="#283d66"/><path d="m180.5 211h15v45h-15z" fill="#0f0f4d"/><path d="m0 344.153h45v30h-45z" fill="#283d66"/><path d="m331 314.153-.448-1.791c-10.504-42.017-48.088-71.362-91.399-71.362h-58.653l-20 93.153z" fill="#283d66"/><path d="m180.5 241h-58.653c-43.311 0-80.895 29.345-91.398 71.362l-.449 1.791 150.5 20z" fill="#4d628c"/><path d="m180.5 314.153-20 50 170.5-20v-30z" fill="#0f0f4d"/><path d="m180.5 314.153h-150.5v30l150.5 20z" fill="#283d66"/><path d="m180.5 512h150.5v-167.847h-150.5l-20 82.993z" fill="#283d66"/><path d="m30 344.153h150.5v167.847h-150.5z" fill="#4d628c"/><path d="m271 0v16c0 8.271-6.729 15-15 15h-75.5l-10 13.5 10 16.5h75.5c24.813 0 45-20.187 45-45v-16z" fill="#ece6f2"/><path d="m195.5 181v-45c0-13.297-5.801-25.26-15-33.505l-10 28.321 10 50.184z" fill="#ece6f2"/><path d="m105 31c-24.813 0-45 20.187-45 45s20.187 45 45 45h45.5c8.271 0 15 6.729 15 15v45h15v-78.505c-7.968-7.142-18.483-11.495-30-11.495h-45.5c-8.271 0-15-6.729-15-15s6.729-15 15-15h75.5v-30z" fill="#fff5f5"/></g></svg>