<svg id="Capa_1" enable-background="new 0 0 511.997 511.997" height="512" viewBox="0 0 511.997 511.997" width="512" xmlns="http://www.w3.org/2000/svg"><g><path d="m190.919 342.291-10.607-10.606 77.782-91.924 17.678 17.677z" fill="#198080"/><path d="m157.435 276.455h120v15h-120z" fill="#24b3b3" transform="matrix(.707 -.707 .707 .707 -137.101 236.918)"/><path d="m190.919 321.078-88.388 60.104-60.104 88.388c40.94 40.94 107.553 40.94 148.492 0s40.94-107.552 0-148.492z" fill="#cfcfe6"/><path d="m42.426 321.078c-40.939 40.939-40.939 107.552 0 148.492l148.492-148.492c-40.939-40.94-107.552-40.939-148.492 0z" fill="#ece6f2"/><path d="m169.706 342.291-67.175 38.891-38.891 67.175c29.243 29.243 76.823 29.243 106.066 0 29.242-29.242 29.242-76.823 0-106.066z" fill="#ece6f2"/><path d="m63.64 342.291c-29.242 29.242-29.242 76.823 0 106.066l106.066-106.066c-29.243-29.243-76.824-29.242-106.066 0z" fill="#fff5f5"/><path d="m148.492 427.144c17.545-17.545 17.546-46.094 0-63.64l-45.962 17.678-17.678 45.962c17.547 17.546 46.095 17.545 63.64 0z" fill="#cfcfe6"/><path d="m84.853 363.504c-17.545 17.545-17.546 46.094 0 63.64l63.64-63.64c-17.546-17.545-46.095-17.545-63.64 0z" fill="#ece6f2"/><path d="m233.345 278.652-17.678 3.536-3.536 17.678c52.637 52.637 52.637 138.282 0 190.919l21.213 21.213c64.335-64.335 64.335-169.013.001-233.346z" fill="#24b3b3"/><path d="m353.553 229.154 158.444-158.443-35.356-35.356-186.727 158.444z" fill="#24b3b3"/><path d="m476.641 35.355-35.355-35.355-158.443 158.443 21.213 49.498z" fill="#2ee6a8"/><path d="m268.701 215.012 63.639 35.355 21.213-21.213-35.355-35.355z" fill="#198080"/><path d="m318.198 193.799-35.355-35.356-21.213 21.214 21.213 49.497z" fill="#24b3b3"/><path d="m332.34 250.367-35.355-35.355-35.355 7.071-7.072 35.355 35.356 35.356z" fill="#24b3b3"/><g fill="#2ee6a8"><path d="m228.094 193.547h60v50h-60z" transform="matrix(.707 -.707 .707 .707 -78.942 246.511)"/><path d="m0 278.652 21.213 21.213c52.637-52.637 138.282-52.637 190.919 0l21.213-21.213c-64.333-64.334-169.011-64.334-233.345 0z"/></g></g></svg>