<svg id="Capa_1" enable-background="new 0 0 512 512" height="512" viewBox="0 0 512 512" width="512" xmlns="http://www.w3.org/2000/svg"><g><path d="m482 0h-226l-20 226 20 286h226z" fill="#0f0f4d"/><path d="m30 0h226v512h-226z" fill="#283d66"/><path d="m332 226c0-41.906-34.093-76-76-76l-10 16.333 10 13.667c25.364 0 46 20.636 46 46s-20.636 46-46 46l-10 14 10 16c41.907 0 76-34.094 76-76z" fill="#ece6f2"/><path d="m210 226c0-25.364 20.636-46 46-46v-30c-41.907 0-76 34.094-76 76s34.093 76 76 76v-30c-25.364 0-46-20.636-46-46z" fill="#fff5f5"/><path d="m90 437h60v30h-60z" fill="#fff5f5"/><path d="m180 437h30v30h-30z" fill="#ff415b"/><g fill="#ece6f2"><path d="m392 437h30v30h-30z"/><path d="m332 437h30v30h-30z"/><path d="m105 211h45v30h-45z"/><path d="m256 60-10 14.333 10 15.667c74.991 0 136 61.01 136 136s-61.009 136-136 136l-10 15 10 15c91.533 0 166-74.468 166-166s-74.467-166-166-166z"/></g><path d="m120 226c0-74.99 61.009-136 136-136v-30c-91.533 0-166 74.468-166 166s74.467 166 166 166v-30c-74.991 0-136-61.01-136-136z" fill="#fff5f5"/></g></svg>