<svg id="Capa_1" enable-background="new 0 0 512 512" height="512" viewBox="0 0 512 512" width="512" xmlns="http://www.w3.org/2000/svg"><g><path d="m391.5 45h-25l10-45h15z" fill="#d10050"/><path d="m150.5 45h-25l10-45h15z" fill="#198080"/><path d="m241 434.567-125.5-20 20 97.433h105.5z" fill="#198080"/><path d="m30 434.567v77.433h105.5v-97.433z" fill="#24b3b3"/><path d="m241 434.567v-60l-125.5-20 20 80z" fill="#24b3b3"/><path d="m135.5 354.567-105.5 20v60h105.5z" fill="#2ee6a8"/><path d="m241 374.566-.769-2.308c-.442-1.327-44.231-133.997-44.231-237.258h-80.5l20 239.567z" fill="#198080"/><g fill="#24b3b3"><path d="m75 135c0 103.261-43.789 235.931-44.231 237.259l-.769 2.308h105.5v-239.567z"/><path d="m120.5 0h15v45h-15z"/><path d="m226 180h-90.5l-10 15 10 15h90.5z"/></g><path d="m45 180h90.5v30h-90.5z" fill="#2ee6a8"/><path d="m241 90c0-33.084-26.916-60-60-60h-45.5l-20 60 20 60h45.5c33.084 0 60-26.916 60-60z" fill="#24b3b3"/><path d="m90 30c-33.084 0-60 26.916-60 60s26.916 60 60 60h45.5v-120z" fill="#2ee6a8"/><path d="m482 434.567-125.5-20 20 97.433h105.5z" fill="#d10050"/><path d="m271 434.567v77.433h105.5v-97.433z" fill="#ff415b"/><path d="m482 434.567v-60l-125.5-20 20 80z" fill="#ff415b"/><path d="m376.5 354.567-105.5 20v60h105.5z" fill="#ff8859"/><path d="m482 374.566-.769-2.308c-.442-1.327-44.231-133.997-44.231-237.258h-80.5l20 239.567z" fill="#d10050"/><path d="m316 135c0 103.261-43.789 235.931-44.231 237.259l-.769 2.308h105.5v-239.567z" fill="#ff415b"/><path d="m361.5 0h15v45h-15z" fill="#ff415b"/><path d="m467 180h-90.5l-10 15 10 15h90.5z" fill="#ff415b"/><path d="m286 180h90.5v30h-90.5z" fill="#ff8859"/><path d="m482 90c0-33.084-26.916-60-60-60h-45.5l-20 60 20 60h45.5c33.084 0 60-26.916 60-60z" fill="#ff415b"/><path d="m331 30c-33.084 0-60 26.916-60 60s26.916 60 60 60h45.5v-120z" fill="#ff8859"/></g></svg>