<svg id="Capa_1" enable-background="new 0 0 512 512" height="512" viewBox="0 0 512 512" width="512" xmlns="http://www.w3.org/2000/svg"><g><path d="m392 422 27.332-17.538c28.334-18.182 51.845-43.407 67.989-72.949 16.145-29.543 24.679-62.953 24.679-96.619v-119.642c0-63.55-51.702-115.252-115.252-115.252h-52.29l-26.125 60h78.415c30.466 0 55.252 24.786 55.252 55.252v119.642c0 46.368-22.315 89.159-59.999 115.661l-20 32.945z" fill="#0f0f4d"/><path d="m344.458 0h-125.958l-20 80 157.161-20z" fill="#cfcfe6"/><path d="m92.542 0-11.203 60 137.161 20v-80z" fill="#ece6f2"/><path d="m94.383 175.661-94.383-62.64v-53.021h81.339z" fill="#ece6f2"/><path d="m392 347.794c0-61.828-5.755-123.998-17.104-184.781l-19.235-103.013h-137.161l-20 382 193.5-20z" fill="#d10050"/><path d="m81.339 60-19.235 103.013c-11.349 60.783-17.104 122.953-17.104 184.781v74.206l173.5 20v-382z" fill="#ff415b"/><path d="m278.5 302v-92c0-33.084-26.916-60-60-60l-20 106 20 106c33.084 0 60-26.916 60-60z" fill="#0f0f4d"/><path d="m158.5 210v92c0 33.084 26.916 60 60 60v-212c-33.084 0-60 26.916-60 60z" fill="#283d66"/><path d="m392 422h-173.5l-20 50 193.5-20z" fill="#ff415b"/><path d="m45 422v30l173.5 20v-50z" fill="#ff8859"/><path d="m392 452h-173.5l-20 45h193.5z" fill="#d10050"/><path d="m45 452h173.5v45h-173.5z" fill="#ff415b"/><path d="m422 482h-203.5l-10 15 10 15h203.5z" fill="#0f0f4d"/><g fill="#283d66"><path d="m15 482h203.5v30h-203.5z"/><path d="m248.5 210c0-16.542-13.458-30-30-30l-20 31 20 30h30z"/><path d="m248.5 302v-31h-30l-20 30.5 20 30.5c16.542 0 30-13.458 30-30z"/></g><path d="m188.5 210v31h30v-61c-16.542 0-30 13.458-30 30z" fill="#4d628c"/><path d="m188.5 271v31c0 16.542 13.458 30 30 30v-61z" fill="#4d628c"/></g></svg>