<svg id="Capa_1" enable-background="new 0 0 512 512" height="512" viewBox="0 0 512 512" width="512" xmlns="http://www.w3.org/2000/svg"><g><path d="m452 181h-216l20-60h196z" fill="#ece6f2"/><path d="m60 121h196v60h-196z" fill="#fff5f5"/><path d="m512 106h-256l-10 15 10 15h256z" fill="#283d66"/><path d="m0 106h256v30h-256z" fill="#4d628c"/><path d="m30 361h30v45h-30z" fill="#4d628c"/><path d="m452 361h30v45h-30z" fill="#283d66"/><path d="m512 166h-256l-20 105 20 105h256z" fill="#cfcfe6"/><path d="m0 166h256v210h-256z" fill="#ece6f2"/><path d="m482 346v-150h-226l-20 75 20 75z" fill="#ece6f2"/><path d="m30 346h226v-30l-20-45 20-45v-30h-226z" fill="#fff5f5"/><path d="m60 226h196v90h-196z" fill="#24b3b3"/><path d="m90 256h136v30h-136z" fill="#2ee6a8"/><g fill="#283d66"><path d="m406 226h30v30h-30z"/><path d="m406 286h30v30h-30z"/><path d="m346 226h30v30h-30z"/><path d="m346 286h30v30h-30z"/><path d="m286 226h30v30h-30z"/><path d="m286 286h30v30h-30z"/></g></g></svg>