<svg id="Capa_1" enable-background="new 0 0 512 512" height="512" viewBox="0 0 512 512" width="512" xmlns="http://www.w3.org/2000/svg"><g><path d="m271.25 105h-25.25l10-60h15.25z" fill="#0f0f4d"/><path d="m241 45h15.25v60h-15.25z" fill="#283d66"/><path d="m462.345 154.138c-2.748-2.617-68.846-64.061-206.095-64.136l-20 88.57 230.75-20z" fill="#d10050"/><path d="m256 90c-137.42 0-203.595 61.52-206.345 64.138l-4.655 4.433 211.25 20v-88.57c-.084.001-.166-.001-.25-.001z" fill="#ff415b"/><path d="m256.25 158.571-20 50 230.446-20c.198-7.721.304-15.577.304-23.571v-6.429z" fill="#ff415b"/><path d="m45 158.571v6.429c0 7.994.106 15.85.304 23.571l210.946 20v-50z" fill="#ff8859"/><path d="m301 30h-44.75l-10 15 10 15h44.75z" fill="#283d66"/><path d="m211 30h45.25v30h-45.25z" fill="#4d628c"/><path d="m120 437h30v45h-30z" fill="#ff8859"/><path d="m362 437h30v45h-30z" fill="#ff415b"/><path d="m0 218.5h62.016v30h-62.016z" fill="#ece6f2"/><path d="m449.984 218.5h62.016v30h-62.016z" fill="#cfcfe6"/><path d="m236.25 432.25 79.977 20h101.023l3.846-9.229c1.794-4.303 41.965-102.427 45.85-254.199h-210.696z" fill="#d10050"/><path d="m45.554 188.821c3.885 151.772 44.057 249.896 45.85 254.199l3.846 9.229h100.977l60.023-20v-243.428z" fill="#ff415b"/><path d="m316 302h-59.75l-20 130.25 49.972 20h30.005z" fill="#ece6f2"/><path d="m196 302 .227 150.25h29.995l30.028-20v-130.25z" fill="#fff5f5"/><path d="m286 242h-29.75l-10 15 10 15h29.75z" fill="#ece6f2"/><path d="m226 242h30.25v30h-30.25z" fill="#fff5f5"/><path d="m286.222 452.25-.083-45.125h-29.889l-20 22.563 20 22.562z" fill="#283d66"/><path d="m226.222 452.25h30.028v-45.125h-30.111z" fill="#4d628c"/><path d="m286.083 377.125-.083-45.125h-29.75l-20 22.5 20 22.625z" fill="#283d66"/><path d="m226.083 377.125h30.167v-45.125h-30.25z" fill="#4d628c"/></g></svg>