<svg id="Capa_1" enable-background="new 0 0 512 512" height="512" viewBox="0 0 512 512" width="512" xmlns="http://www.w3.org/2000/svg"><g><path d="m301 139.489h-45l-20-64.489h65z" fill="#ff8859"/><path d="m211 75h45v64.489h-45z" fill="#ffb655"/><path d="m451 317c0-107.523-87.477-195-195-195l-20 195 20 195h195z" fill="#ffb655"/><path d="m61 317v195h195v-390c-107.523 0-195 87.477-195 195z" fill="#ffda44"/><path d="m256 182-20 135 20 135c74.439 0 135-60.561 135-135s-60.561-135-135-135z" fill="#ff8859"/><path d="m121 317c0 74.439 60.561 135 135 135v-270c-74.439 0-135 60.561-135 135z" fill="#ffb655"/><path d="m236 15 20 75h129.918c35.886 0 65.082-29.195 65.082-65.082v-9.918z" fill="#ece6f2"/><path d="m61 15v9.918c0 35.887 29.196 65.082 65.082 65.082h129.918v-75z" fill="#fff5f5"/><path d="m361 317c0-57.897-47.103-105-105-105l-20 105 20 105c57.897 0 105-47.103 105-105z" fill="#ece6f2"/><path d="m151 317c0 57.897 47.103 105 105 105v-210c-57.897 0-105 47.103-105 105z" fill="#fff5f5"/><path d="m481 0h-225l-10 15 10 15h225z" fill="#283d66"/><path d="m31 0h225v30h-225z" fill="#4d628c"/><path d="m271 287h-25l10-45h15z" fill="#d10050"/><path d="m241 242h15v45h-15z" fill="#ff415b"/><path d="m301 317c0-24.813-20.187-45-45-45l-20 45 20 45c24.813 0 45-20.187 45-45z" fill="#ff415b"/><path d="m211 317c0 24.813 20.187 45 45 45v-90c-24.813 0-45 20.187-45 45z" fill="#ff8859"/></g></svg>