<svg id="Capa_1" enable-background="new 0 0 512 512" height="512" viewBox="0 0 512 512" width="512" xmlns="http://www.w3.org/2000/svg"><g><path d="m236 228.5 20 246c53.664 0 105.369-19.564 145.591-55.09s66.023-84.418 72.652-137.671l4.138-33.239z" fill="#ece6f2"/><path d="m33.619 248.5 4.138 33.239c6.629 53.253 32.431 102.146 72.652 137.671s91.927 55.09 145.591 55.09v-246z" fill="#fff5f5"/><path d="m441.887 293.5h-185.887l-20 75 20 76c90.363 0 167.672-63.898 185.887-151z" fill="#ff8859"/><path d="m512 218.5h-256l-10 15 10 15h256z" fill="#cfcfe6"/><path d="m0 218.5h256v30h-256z" fill="#ece6f2"/><path d="m256 444.5v-151h-185.887c18.215 87.102 95.524 151 185.887 151z" fill="#ffb655"/><path d="m152.671 66.455c-13.706 33.09 36.563 85.338 69.653 99.045l49.634-119.828c-33.089-13.706-105.581-12.306-119.287 20.783z" fill="#fff5f5"/><path d="m271.958 45.672 49.634 119.828c33.09-13.706 48.803-51.642 35.097-84.731s-51.641-48.803-84.731-35.097z" fill="#efe2dd"/><path d="m211.001 338.5h30v30h-30z" fill="#ffda44"/><path d="m151.001 338.5h30v30h-30z" fill="#ffda44"/><path d="m271.001 368.5h30v30h-30z" fill="#ffb655"/></g></svg>