<svg id="Capa_1" enable-background="new 0 0 512 512" height="512" viewBox="0 0 512 512" width="512" xmlns="http://www.w3.org/2000/svg"><g><path d="m256 204.311v-9.38c0-34.524-27.987-62.512-62.512-62.512h-66.86l-20 219.362 149.371-20v-127.47z" fill="#24b3b3"/><path d="m126.629 230.559v-130.007h-27.724c-37.024 0-67.038 30.014-67.038 67.038v75.477z" fill="#2ee6a8"/><path d="m460.593 152.939h47.801v30h-47.801z" fill="#198080" transform="matrix(.707 -.707 .707 .707 23.154 391.777)"/><path d="m61.788 331.782c-36.903-21.016-61.788-60.71-61.788-106.216v-61.279c52.464 0 98.803 26.22 126.629 66.272l23.561 121.223z" fill="#24b3b3"/><path d="m391.207 346.78c4.126-2.896 8.07-6.163 11.756-9.849l74.811-74.811c24.246-24.246 24.388-63.467.428-87.889-23.651-24.106-62.603-24.97-87.249-1.883-.17.159-.338.319-.506.479-11.026 10.556-26.105 15.687-41.3 14.233-25.35-2.424-51.549 6.113-70.907 25.614-2.196 2.212-4.245 4.516-6.156 6.896v127.211z" fill="#ffb655"/><path d="m266.204 204.311h-10.204l-20 147.469 75.253-20c16.251-13.145 26.652-33.237 26.652-55.768 0-39.6-32.102-71.701-71.701-71.701z" fill="#d10050"/><path d="m245.796 204.311c-26.219 0-49.151 14.073-61.655 35.077v92.392l71.859 20v-147.469z" fill="#ff415b"/><path d="m130.609 331.78c-4.207-4.32-7.689-9.485-10.138-15.396-13.661-32.98-14.419-79.042 15.144-91.288 29.564-12.246 61.598 20.861 75.259 53.841 7.71 18.614 3.075 39.257-10.128 52.843l-37.754 20z" fill="#efe2dd"/><path d="m7.436 331.78 31.867 79.668h216.697v-79.668z" fill="#fff5f5"/><path d="m504.564 331.78h-248.564v79.668h216.697z" fill="#ece6f2"/></g></svg>