<svg id="Capa_1" enable-background="new 0 0 512 512" height="512" viewBox="0 0 512 512" width="512" xmlns="http://www.w3.org/2000/svg"><g><path d="m271 497h-15l-10-60h25z" fill="#0f0f4d"/><path d="m241 437h15v60h-15z" fill="#283d66"/><path d="m135.5 437h30v60h-30z" fill="#283d66"/><path d="m346.5 437h30v60h-30z" fill="#0f0f4d"/><path d="m42.796 210h75v30h-75z" fill="#4d628c"/><path d="m394.204 210h75v30h-75z" fill="#283d66"/><path d="m319.204 120h30v30h-30z" fill="#ffb655"/><path d="m379.204 90h30v30h-30z" fill="#ff8859"/><path d="m409.204 180h-153.204l-20 257h173.204z" fill="#cfcfe6"/><path d="m102.796 180h153.204v257h-153.204z" fill="#ece6f2"/><path d="m439.204 422h-183.204l-10 15 10 15h183.204z" fill="#283d66"/><path d="m512 482h-256l-10 15 10 15h256z" fill="#283d66"/><path d="m72.796 422h183.204v30h-183.204z" fill="#4d628c"/><path d="m0 482h256v30h-256z" fill="#4d628c"/><path d="m271 150v-15c0-13.297-5.801-25.26-15-33.505l-10 15.172 10 33.333z" fill="#ece6f2"/><path d="m376.5 0v15c0 8.271-6.729 15-15 15h-105.5l-10 14.667 10 15.333h105.5c24.813 0 45-20.187 45-45v-15z" fill="#ece6f2"/><path d="m150.5 30c-24.813 0-45 20.187-45 45s20.187 45 45 45h75.5c8.271 0 15 6.729 15 15v15h15v-48.505c-7.968-7.141-18.483-11.495-30-11.495h-75.5c-8.271 0-15-6.729-15-15s6.729-15 15-15h105.5v-30z" fill="#fff5f5"/></g></svg>