<svg id="Capa_1" enable-background="new 0 0 512 512" height="512" viewBox="0 0 512 512" width="512" xmlns="http://www.w3.org/2000/svg"><g><path d="m256 0-20 140 276-20v-120z" fill="#cfcfe6"/><path d="m256 0h-256v120l256 20z" fill="#ece6f2"/><path d="m236 170 276-20v-30h-256z" fill="#283d66"/><path d="m0 120v30l256 20v-50z" fill="#4d628c"/><path d="m512 150h-256l-20 130.667 20 231.333h256z" fill="#0f0f4d"/><path d="m0 150h256v362h-256z" fill="#283d66"/><path d="m60 60h30v30h-30z" fill="#fff5f5"/><path d="m120 60h30v30h-30z" fill="#fff5f5"/><path d="m180 60h30v30h-30z" fill="#cfcfe6"/><path d="m422 60h30v30h-30z" fill="#a3aacc"/><path d="m362 60h30v30h-30z" fill="#a3aacc"/><path d="m437 195h-201l20 257h181z" fill="#283d66"/><path d="m75 195h181v257h-181z" fill="#4d628c"/><path d="m407 195h-171l20 65.667h151z" fill="#0f0f4d"/><path d="m407 341.333v-50.666h-151l-20 25.333 20 25.333z" fill="#0f0f4d"/><path d="m407 422v-50.667h-151l-20 25.334 20 25.333z" fill="#0f0f4d"/><g fill="#283d66"><path d="m105 195h151v65.667h-151z"/><path d="m105 371.333h151v50.667h-151z"/><path d="m105 290.667h151v50.667h-151z"/></g><path d="m467 210v-30h-211l-10 15 10 15z" fill="#cfcfe6"/><path d="m45 180h211v30h-211z" fill="#ece6f2"/></g></svg>