<svg id="Capa_1" enable-background="new 0 0 512 512" height="512" viewBox="0 0 512 512" width="512" xmlns="http://www.w3.org/2000/svg"><g><path d="m472.166 216.166h-87.635v-120.564h-192.265l-20 160.398 20 160.398h192.266v-120.564h87.635c21.999 0 39.833-17.834 39.833-39.834 0-22-17.834-39.834-39.834-39.834z" fill="#e1bb78"/><path d="m0 95.602h192.266v320.797h-192.266z" fill="#edd7b0"/><g fill="#ff415b"><path d="m240.066 176.203h31.867v30h-31.867z"/><path d="m208.199 239.938h31.867v30h-31.867z"/><path d="m240.066 303.672h31.867v30h-31.867z"/><path d="m303.801 335.539h31.867v30h-31.867z"/></g><path d="m95.602 448.266h31.867v-144.336l-51.867-20z" fill="#283d66"/><path d="m63.734 303.93v144.336h31.868v-164.336z" fill="#4d628c"/><path d="m95.602 303.93h31.867v-30l-51.867-20z" fill="#a3aacc"/><path d="m95.602 253.93-31.868 20v30h31.868z" fill="#cfcfe6"/><path d="m95.602 72.282-20 107.718 20 93.93h31.867v-146.461c0-23.587-12.823-44.166-31.867-55.187z" fill="#ece6f2"/><path d="m95.602 72.282c-9.377-5.426-20.254-8.548-31.867-8.548v210.195h31.867z" fill="#fff5f5"/><path d="m208.199 174.336h-15.933l-10-15 10-15h15.933z" fill="#ff415b"/><path d="m176.332 144.336h15.934v30h-15.934z" fill="#ff8859"/><path d="m208.199 333.672h-15.933l-10-15 10-15h15.933z" fill="#ff415b"/><path d="m176.332 303.672h15.934v30h-15.934z" fill="#ff8859"/></g></svg>