<svg id="Capa_1" enable-background="new 0 0 512 512" height="512" viewBox="0 0 512 512" width="512" xmlns="http://www.w3.org/2000/svg"><g><path d="m354 362-30 15v-324.5c0-28.948 23.552-52.5 52.5-52.5s52.5 23.552 52.5 52.5v22.5h-30v-22.5c0-12.406-10.094-22.5-22.5-22.5s-22.5 10.094-22.5 22.5z" fill="#ffb655"/><path d="m248.5 362-20 75 20 75c58.173 0 105.5-47.327 105.5-105.5v-44.5z" fill="#ff8859"/><path d="m143 362v44.5c0 58.173 47.327 105.5 105.5 105.5v-150z" fill="#ffb655"/><path d="m263.5 285c0-13.297-5.801-25.26-15-33.505l-10 19.838 10 60.667h15z" fill="#ece6f2"/><path d="m218.5 240h-90.5c-8.271 0-15-6.729-15-15s6.729-15 15-15h31c24.813 0 45-20.187 45-45v-75h-30v75c0 8.271-6.729 15-15 15h-31c-24.813 0-45 20.187-45 45s20.187 45 45 45h90.5c8.271 0 15 6.729 15 15v47h15v-80.505c-7.968-7.142-18.483-11.495-30-11.495z" fill="#fff5f5"/></g></svg>