<svg id="Capa_1" enable-background="new 0 0 512 512" height="512" viewBox="0 0 512 512" width="512" xmlns="http://www.w3.org/2000/svg"><g><path d="m437 512v-150l-201-20 20 170z" fill="#d10050"/><path d="m75 512h181v-170l-181 20z" fill="#ff415b"/><path d="m437 0h-181l-20 352 201-20z" fill="#d10050"/><path d="m75 0v332l181 20v-352z" fill="#ff415b"/><g><path d="m196 60h30v242h-30z" fill="#fff5f5"/></g><g><path d="m286 60h30v242h-30z" fill="#ece6f2"/></g><path d="m196 392h30v60h-30z" fill="#fff5f5"/><path d="m286 392h30v60h-30z" fill="#ece6f2"/><path d="m437 332h-181l-10 15 10 15h181z" fill="#ff415b"/><path d="m75 332h181v30h-181z" fill="#ff8859"/></g></svg>