<svg id="Capa_1" enable-background="new 0 0 512 512" height="512" viewBox="0 0 512 512" width="512" xmlns="http://www.w3.org/2000/svg"><g><path d="m271 377v-60h-25l10 60z" fill="#0f0f4d"/><path d="m241 317h15v60h-15z" fill="#283d66"/><path d="m512 392-276-20 20 140h256z" fill="#cfcfe6"/><path d="m0 392v120h256v-140z" fill="#ece6f2"/><path d="m165.5 317h30v60h-30z" fill="#283d66"/><path d="m316.5 317h30v60h-30z" fill="#0f0f4d"/><path d="m512 257h-117.796l15-30h102.796z" fill="#0f0f4d"/><path d="m301 167h30v30h-30z" fill="#ffb655"/><path d="m301 107h30v30h-30z" fill="#ff8859"/><path d="m181 167h30v30h-30z" fill="#ffb655"/><path d="m361 137h30v30h-30z" fill="#ff8859"/><path d="m482 392-246-20 20 110h226z" fill="#ece6f2"/><path d="m30 392v90h226v-110z" fill="#fff5f5"/><path d="m409.204 265.247v-38.247h-153.204l-20 52.5 20 52.5h86.451c36.807 0 66.753-29.945 66.753-66.753z" fill="#198080"/><path d="m102.796 227v38.247c0 36.808 29.945 66.753 66.753 66.753h86.451v-105z" fill="#24b3b3"/><path d="m512 362h-256l-10 15 10 15h256z" fill="#283d66"/><path d="m0 362h256v30h-256z" fill="#4d628c"/><path d="m316.5 422h30v30h-30z" fill="#cfcfe6"/><path d="m392 422h30v30h-30z" fill="#cfcfe6"/><g fill="#ece6f2"><path d="m90 422h30v30h-30z"/><path d="m165.5 422h30v30h-30z"/><path d="m271 197v-45c0-13.297-5.801-25.26-15-33.505l-10 12.172 10 66.333z"/><path d="m346.5 0v32c0 8.271-6.729 15-15 15h-75.5l-10 15 10 15h75.5c24.813 0 45-20.187 45-45v-32z"/></g><path d="m180.5 47c-24.813 0-45 20.187-45 45s20.187 45 45 45h45.5c8.271 0 15 6.729 15 15v45h15v-78.505c-7.968-7.141-18.483-11.495-30-11.495h-45.5c-8.271 0-15-6.729-15-15s6.729-15 15-15h75.5v-30z" fill="#fff5f5"/><path d="m271 452h-15l-7.5-15 7.5-15h15z" fill="#cfcfe6"/><path d="m241 422h15v30h-15z" fill="#ece6f2"/></g></svg>