<svg id="Capa_1" enable-background="new 0 0 512 512" height="512" viewBox="0 0 512 512" width="512" xmlns="http://www.w3.org/2000/svg"><g><path d="m512 45h-181l-15 10-15-10c-17.901 0-33.997 7.881-45 20.354l-20 175.646 20 196h256z" fill="#efe2dd"/><path d="m211 45h-211v392h256v-371.646c-11.003-12.473-27.099-20.354-45-20.354z" fill="#fff5f5"/><g fill="#283d66"><path d="m331 135h136v30h-136z"/><path d="m331 255h136v30h-136z"/><path d="m331 315h98v30h-98z"/><path d="m331 195h68v30h-68z"/><path d="m429 195h38v30h-38z"/></g><path d="m120.5 240h30v122h-30z" fill="#a3aacc"/><path d="m135.5 255c-28.949 0-52.5-23.552-52.5-52.5v-30c0-28.948 23.551-52.5 52.5-52.5s52.5 23.552 52.5 52.5v30c0 28.948-23.551 52.5-52.5 52.5z" fill="#cfcfe6"/><path d="m135.5 150c-12.407 0-22.5 10.094-22.5 22.5v30c0 12.406 10.093 22.5 22.5 22.5s22.5-10.094 22.5-22.5v-30c0-12.406-10.093-22.5-22.5-22.5z" fill="#ece6f2"/><path d="m301 45h30v422h-30z" fill="#ff415b"/></g></svg>