<svg id="Capa_1" enable-background="new 0 0 512 512" height="512" viewBox="0 0 512 512" width="512" xmlns="http://www.w3.org/2000/svg"><g><path d="m271 122h-25l10-45h15z" fill="#283d66"/><path d="m241 77h15v45h-15z" fill="#4d628c"/><path d="m256 107-20 202.5 20 202.5c111.659 0 202.5-90.841 202.5-202.5s-90.841-202.5-202.5-202.5z" fill="#cfcfe6"/><path d="m53.5 309.5c0 111.659 90.841 202.5 202.5 202.5v-405c-111.659 0-202.5 90.841-202.5 202.5z" fill="#ece6f2"/><path d="m256 137-20 172.5 20 172.5c95.117 0 172.5-77.383 172.5-172.5s-77.383-172.5-172.5-172.5z" fill="#ece6f2"/><path d="m256 167-20 142.5h162.5c0-78.575-63.925-142.5-142.5-142.5z" fill="#ff415b"/><path d="m83.5 309.5c0 95.117 77.383 172.5 172.5 172.5v-345c-95.117 0-172.5 77.383-172.5 172.5z" fill="#fff5f5"/><path d="m90 135h-30c0-41.355 33.645-75 75-75v30c-24.813 0-45 20.187-45 45z" fill="#2ee6a8"/><path d="m30 135h-30c0-74.439 60.561-135 135-135v30c-57.897 0-105 47.103-105 105z" fill="#2ee6a8"/><path d="m452 135h-30c0-24.813-20.187-45-45-45v-30c41.355 0 75 33.645 75 75z" fill="#24b3b3"/><path d="m512 135h-30c0-57.897-47.103-105-105-105v-30c74.439 0 135 60.561 135 135z" fill="#24b3b3"/><g fill="#4d628c"><path d="m150.844 204.344h30v30h-30z" transform="matrix(.707 -.707 .707 .707 -106.525 181.517)"/><path d="m113.5 294.5h30v30h-30z"/><path d="m150.844 384.656h30v30h-30z" transform="matrix(.707 -.707 .707 .707 -234.025 234.326)"/></g><path d="m331.156 384.656h30v30h-30z" fill="#283d66" transform="matrix(.707 -.707 .707 .707 -181.213 361.826)"/><path d="m271 452h-15l-10-14.978 10-15.022h15z" fill="#283d66"/><path d="m241 422h15v30h-15z" fill="#4d628c"/></g></svg>