<svg id="Capa_1" enable-background="new 0 0 512 512" height="512" viewBox="0 0 512 512" width="512" xmlns="http://www.w3.org/2000/svg"><g><path d="m256 0c-68.38 0-132.667 26.628-181.02 74.98l204 232.285 158.039 129.754c48.353-48.352 74.981-112.639 74.981-181.019s-26.628-132.667-74.98-181.02-112.64-74.98-181.02-74.98z" fill="#e1bb78"/><path d="m0 256c0 68.38 26.628 132.667 74.98 181.02s112.64 74.98 181.02 74.98 132.667-26.628 181.02-74.98l-362.04-362.04c-48.352 48.353-74.98 112.64-74.98 181.02z" fill="#edd7b0"/><path d="m256 30c-60.366 0-117.12 23.508-159.807 66.193l182.788 211.072 136.826 108.542c42.685-42.687 66.193-99.441 66.193-159.807s-23.508-117.12-66.193-159.807c-42.687-42.685-99.441-66.193-159.807-66.193z" fill="#c9885b"/><path d="m30 256c0 60.366 23.508 117.12 66.193 159.807 42.687 42.685 99.441 66.193 159.807 66.193s117.12-23.508 159.807-66.193l-319.614-319.614c-42.685 42.687-66.193 99.441-66.193 159.807z" fill="#e1bb78"/><path d="m388.582 197.664c-21-21-47.614-34.234-76.966-38.272-11.407-1.568-21.575-3.845-31.084-6.958l-8.646-2.83c-12.637-4.138-25.395-10.385-37.919-18.567-19.642-12.835-43.45-18.733-67.031-16.619-14.218 1.277-27.96 5.472-40.374 12.145l152.418 180.703 109.598 81.313c25.439-25.438 39.481-59.232 39.544-95.219.063-36.15-13.98-70.135-39.54-95.696z" fill="#efe2dd"/><path d="m103.268 143.581c-20.318 19.76-31.617 46.239-31.815 74.56-.198 28.325 10.724 54.955 30.751 74.982l94.539 94.538c26.711 26.711 61.8 40.094 96.775 40.094 34.374 0 68.639-12.928 94.726-38.836.113-.112.222-.228.334-.34l-262.016-262.017c-8.478 4.558-16.343 10.259-23.294 17.019z" fill="#fff5f5"/><path d="m367.369 218.877c-16.334-16.334-37.026-26.626-59.84-29.764-13.21-1.816-25.095-4.488-36.333-8.169l-8.645-2.829c-15.133-4.955-30.271-12.345-44.993-21.964-12.457-8.14-26.759-12.12-40.993-12.12-9.351 0-18.669 1.727-27.426 5.108l129.842 158.126 88.385 60.101c19.787-19.787 30.708-46.07 30.757-74.06.049-28.116-10.873-54.548-30.754-74.429z" fill="#d10050"/><path d="m124.184 165.089c-14.518 14.117-22.591 33.033-22.732 53.261-.141 20.234 7.659 39.255 21.965 53.561l94.539 94.538c41.307 41.307 108.215 41.836 149.148 1.185.089-.088.174-.178.262-.266l-218.227-218.229c-9.137 3.528-17.661 8.856-24.955 15.95z" fill="#ff415b"/><path d="m261.304 261.304 17.677 45.961 45.962 17.677c17.546-17.545 17.546-46.094 0-63.639-17.546-17.544-46.095-17.544-63.639.001z" fill="#efe2dd"/><path d="m261.304 324.942c8.772 8.772 20.296 13.159 31.819 13.159 11.524 0 23.047-4.387 31.819-13.159l-63.639-63.639c-17.545 17.546-17.545 46.094.001 63.639z" fill="#fff5f5"/></g></svg>