<svg id="Capa_1" enable-background="new 0 0 512 512" height="512" viewBox="0 0 512 512" width="512" xmlns="http://www.w3.org/2000/svg"><g><path d="m225.5 255h-15l-10-60h25z" fill="#283d66"/><path d="m60 60h45v30h-45z" fill="#ece6f2"/><path d="m195.5 195h15v60h-15z" fill="#4d628c"/><path d="m122.333 392h-57.262c-35.881 0-65.071-29.19-65.071-65.071v-86.929h60l15 30h-45v56.929c0 19.339 15.733 35.071 35.071 35.071h32.896z" fill="#4d628c"/><path d="m255.5 135h-65l20 75h45z" fill="#ece6f2"/><path d="m165.5 135h45v75h-45z" fill="#fff5f5"/><path d="m210.5 240-20 98.5 20 98.5c82.986 0 150.5-67.514 150.5-150.5v-46.5z" fill="#cfcfe6"/><path d="m60 240v46.5c0 82.986 67.514 150.5 150.5 150.5v-197z" fill="#ece6f2"/><path d="m437 0h-226.5l-20 75 20 75h180.5v151.5c0 44.745-16.388 87.286-46.26 120.5h-134.24l-20 50 321.5-20v-377c0-41.355-33.645-75-75-75z" fill="#d10050"/><g fill="#ff415b"><path d="m165 0c-41.355 0-75 33.645-75 75s33.645 75 75 75h45.5v-150z"/><path d="m210.5 422h-150.5v30l150.5 20z"/><path d="m391 60h30v30h-30z"/></g><path d="m331 60h30v30h-30z" fill="#ece6f2"/><path d="m210.5 452-20 30 20 30h301.5v-60z" fill="#ff415b"/><path d="m60 452h150.5v60h-150.5z" fill="#ff8859"/></g></svg>