<svg id="Capa_1" enable-background="new 0 0 512 512" height="512" viewBox="0 0 512 512" width="512" xmlns="http://www.w3.org/2000/svg"><g><path d="m377 45h135v30h-135z" fill="#0f0f4d"/><path d="m332 0h-16l-20 120h36c33.084 0 60-26.916 60-60s-26.916-60-60-60z" fill="#283d66"/><path d="m332 90h-36v-60h36c16.542 0 30 13.458 30 30s-13.458 30-30 30z" fill="#0f0f4d"/><path d="m316 225h-50l20-225h30z" fill="#ffb655"/><path d="m286 225h-50l20-225h30z" fill="#ffda44"/><path d="m256 225h-50l20-225h30z" fill="#fff79f"/><path d="m196 0h30v225h-30z" fill="#ffda44"/><path d="m0 240h90v30h-90z" fill="#4d628c"/><path d="m422 240h90v30h-90z" fill="#283d66"/><path d="m256 210-20 80 201-20v-60z" fill="#cfcfe6"/><path d="m256 210h-181v60l181 20z" fill="#ece6f2"/><path d="m236 320 201-20v-30h-181z" fill="#a3aacc"/><path d="m256 270h-181v30l181 20z" fill="#cfcfe6"/><path d="m256 512h112.195c37.939 0 68.805-30.865 68.805-68.805v-143.195h-181l-20 105.165z" fill="#cfcfe6"/><path d="m75 300v143.195c0 37.94 30.866 68.805 68.805 68.805h112.195v-212z" fill="#ece6f2"/></g></svg>