<svg id="Capa_1" enable-background="new 0 0 512 512" height="512" viewBox="0 0 512 512" width="512" xmlns="http://www.w3.org/2000/svg"><g><path d="m384.53 89.731c.171-49.528-39.927-89.731-89.414-89.731-14.029 0-27.3 3.235-39.116 8.994l-20 247.006 20 247.006c5.258-2.563 10.229-5.622 14.848-9.123 6.853-5.196 14.074-9.888 21.746-13.776l6.047-3.064c10.273-5.205 21.249-8.802 32.52-11.165 30.051-6.3 52.927-32.903 53.371-64.69z" fill="#efe2dd"/><path d="m396.398 287.867h83.734c17.601 0 31.868-14.267 31.868-31.867 0-17.6-14.267-31.867-31.867-31.867h-83.734v63.734z" fill="#e1bb78"/><path d="m115.602 287.867h-83.735c-17.6 0-31.867-14.267-31.867-31.867 0-17.6 14.267-31.867 31.867-31.867h83.734v63.734z" fill="#edd7b0"/><path d="m241.152 18.117c-6.853 5.196-14.074 9.888-21.746 13.776l-6.047 3.064c-10.273 5.205-21.249 8.802-32.52 11.165-30.051 6.3-52.927 32.903-53.371 64.69l.001 311.458c-.17 49.527 39.928 89.73 89.415 89.73 14.029 0 27.3-3.235 39.116-8.994v-494.012c-5.258 2.563-10.229 5.622-14.848 9.123z" fill="#fff5f5"/><path d="m416.398 192.266h-160.398l-20 63.734 20 63.734h160.398z" fill="#c9885b"/><path d="m95.602 192.266h160.398v127.469h-160.398z" fill="#e1bb78"/></g></svg>