<svg id="Capa_1" enable-background="new 0 0 512 512" height="512" viewBox="0 0 512 512" width="512" xmlns="http://www.w3.org/2000/svg"><g><path d="m240 315h-15l-10-90h25z" fill="#ece6f2"/><path d="m240 45h-25l10-45h15z" fill="#ece6f2"/><path d="m210 225h15v90h-15z" fill="#fff5f5"/><path d="m210 0h15v45h-15z" fill="#fff5f5"/><path d="m452 60h-150l15-30h135z" fill="#198080"/><path d="m452 90h-120c-8.271 0-15-6.729-15-15v-45h-92l-20 105 20 105h227z" fill="#24b3b3"/><path d="m120 30v135c0 41.355 33.645 75 75 75h30v-210z" fill="#2ee6a8"/><path d="m390 347v-47h-165l-20 106 20 106c90.981 0 165-74.019 165-165z" fill="#ffb655"/><path d="m60 347c0 90.981 74.019 165 165 165v-212h-165z" fill="#ffda44"/><g fill="#fff79f"><path d="m362 150h30v30h-30z"/><path d="m302 150h30v30h-30z"/></g></g></svg>