<svg id="Capa_1" enable-background="new 0 0 512 512" height="512" viewBox="0 0 512 512" width="512" xmlns="http://www.w3.org/2000/svg"><g><path d="m391 0h-135l-20 166.953h155z" fill="#a05f4b"/><path d="m121 0h135v166.953h-135z" fill="#c9885b"/><path d="m236 432 20 80h256v-60z" fill="#c9885b"/><path d="m256 432v80h-256v-60z" fill="#e1bb78"/><path d="m0 376 110-20-20 96h-90z" fill="#edd7b0"/><path d="m128 307-38 69h-90c0-34.19 6.657-67.357 19.358-98.02z" fill="#e1bb78"/><path d="m74.98 194.98 94.687 61.02-67.023 56.478-83.286-34.498c12.702-30.663 31.447-58.823 55.622-83z" fill="#edd7b0"/><path d="m157.98 139.358 69.02 94.309-88.325 25.009-63.695-63.696c24.177-24.175 52.337-42.92 83-55.622z" fill="#e1bb78"/><path d="m512 376-110-20 20 96h90z" fill="#e1bb78"/><path d="m384 307 38 69h90c0-34.19-6.657-67.357-19.358-98.02z" fill="#c9885b"/><path d="m437.02 194.98-94.687 61.02 67.023 56.478 83.286-34.498c-12.702-30.663-31.447-58.823-55.622-83z" fill="#e1bb78"/><path d="m354.02 139.358-69.02 94.309 88.325 25.009 63.695-63.695c-24.177-24.176-52.337-42.921-83-55.623z" fill="#c9885b"/><path d="m256 120-22.333 105 85.856-2.356 34.498-83.286c-30.664-12.701-63.831-19.358-98.021-19.358z" fill="#e1bb78"/><path d="m256 120v90l-29 23.667-34.522-11.023-34.498-83.286c30.663-12.701 63.83-19.358 98.02-19.358z" fill="#edd7b0"/><path d="m422 376c0-91.532-74.468-166-166-166l-20 107.786 20 134.214h166z" fill="#ece6f2"/><path d="m256 210c-91.532 0-166 74.468-166 166v76h166z" fill="#fff5f5"/><g fill="none"><path d="m90 376v76h166v-242c-91.532 0-166 74.468-166 166z"/><path d="m422 452v-76c0-91.532-74.468-166-166-166v242z"/><path d="m120 376v46h136v-182c-74.99 0-136 61.01-136 136z"/><path d="m392 422v-46c0-74.99-61.01-136-136-136v182z"/></g><path d="m392 376c0-74.99-61.01-136-136-136l-20 162 112.888 20h43.112z" fill="#0f0f4d"/><path d="m120 376v46h43.112l92.888-20v-162c-74.99 0-136 61.01-136 136z" fill="#283d66"/><path d="m352.263 396.737c0-16.022-4.021-31.893-11.627-45.896l-3.53-6.885-7.764-.837c-.802-.122-10.249-1.673-19.634-7.849-12.105-7.966-18.887-20.221-20.155-36.424l-1.035-13.226-13.254-.589c-.656-.029-8.679-.321-19.264 1.853l-20 115.116 81.274 20h31.614c2.224-8.198 3.375-16.697 3.375-25.263z" fill="#ffb655"/><path d="m220.496 304.328c-9.118 8.54-15.164 19.299-18.072 32.116l-19.488-3.065-5.384 7.557c-11.654 16.361-17.814 35.657-17.814 55.802 0 8.566 1.151 17.065 3.375 25.263h31.614l61.273-20.001v-115.114c-10.859 2.231-24.416 7.056-35.504 17.442z" fill="#ffda44"/><path d="m322.263 396.737c0-8.822-1.765-17.568-5.143-25.638-35.787 1.234-61.12-53.306-61.12-53.306l-20 69.534 20 34.673h61.274c3.28-7.966 4.989-16.562 4.989-25.263z" fill="#d10050"/><path d="m240.879 326.341c-6.777 6.419-10.196 15.463-10.453 27.65l-.362 17.17-32.79-5.157c-4.952 9.427-7.536 19.899-7.536 30.733 0 8.701 1.709 17.297 4.988 25.263h61.274v-104.207c-5.189 1.666-10.653 4.316-15.121 8.548z" fill="#ff415b"/></g></svg>