<svg id="Capa_1" enable-background="new 0 0 512 512" height="512" viewBox="0 0 512 512" width="512" xmlns="http://www.w3.org/2000/svg"><g><path d="m422 0h-166l-20 269.995 20 242.005h166z" fill="#283d66"/><path d="m90 0h166v512h-166z" fill="#4d628c"/><path d="m392 30h-30v30h-106l-20 209.995 20 212.005h136z" fill="#ece6f2"/><path d="m150 60v-30h-30v452h136v-422z" fill="#fff5f5"/><path d="m256 120-20 75h96c0-41.355-34.094-75-76-75z" fill="#ff8859"/><path d="m180 195h76v-75c-41.906 0-76 33.645-76 75z" fill="#ffb655"/><path d="m362 330v-30h-106l-10 15 10 15z" fill="#24b3b3"/><path d="m362 390v-30h-106l-10 15 10 15z" fill="#24b3b3"/><path d="m362 210.601v-30.601h-106l-20 45 20 45h46.601c32.753 0 59.399-26.646 59.399-59.399z" fill="#cfcfe6"/><path d="m150 180v30.601c0 32.753 26.646 59.399 59.399 59.399h46.601v-90z" fill="#ece6f2"/><path d="m150 300h30v30h-30z" fill="#ffda44"/><path d="m150 360h30v30h-30z" fill="#ffda44"/><path d="m210 300h46v30h-46z" fill="#2ee6a8"/><path d="m210 360h46v30h-46z" fill="#2ee6a8"/><path d="m271 452h-15l-10-15 10-15h15z" fill="#283d66"/><path d="m241 422h15v30h-15z" fill="#4d628c"/></g></svg>