<svg id="Capa_1" enable-background="new 0 0 512 512" height="512" viewBox="0 0 512 512" width="512" xmlns="http://www.w3.org/2000/svg"><g><path d="m375.467 436.007v-212.783c0-22.247-10.84-43.099-29.051-55.879l-28.183-19.779c-1.6-1.6-2.5-3.771-2.5-6.034v-40.017h-68.267v40.017c0 2.263-.899 4.434-2.499 6.034l-28.184 19.779c-18.21 12.78-29.05 33.632-29.05 55.879v212.783l4.331 7.726-4.331 7.726v31.558h187.733v-31.557l-8.687-7.726z" fill="#f03747"/><path d="m375.467 436.007v-212.783c0-22.247-10.841-43.099-29.051-55.879l-28.183-19.779c-1.6-1.6-2.5-3.771-2.5-6.034v-40.017h-23.73v40.017c0 2.263.899 4.434 2.5 6.034l28.183 19.779c18.21 12.78 29.051 33.631 29.051 55.879v259.794h23.73v-31.558l-8.687-7.726z" fill="#b9385d"/><path d="m221.867 401.067c0 4.713 3.821 8.533 8.533 8.533h102.4c4.713 0 8.533-3.82 8.533-8.533v-136.534c0-4.713-3.821-8.533-8.533-8.533h-102.4c-4.713 0-8.533 3.82-8.533 8.533z" fill="#fbf3f3"/><path d="m332.8 256h-23.694c4.713 0 8.533 3.821 8.533 8.534v136.533c0 4.713-3.82 8.533-8.533 8.533h23.694c4.713 0 8.533-3.82 8.533-8.533v-136.533c0-4.713-3.82-8.534-8.533-8.534z" fill="#e8e3f0"/><path d="m276.448 152.793c4.268 0 7.726-3.459 7.726-7.726s-3.459-7.726-7.726-7.726h-28.982v4.192c0 2.263-.899 4.434-2.499 6.034l-7.448 5.227h38.929z" fill="#b9385d"/><path d="m119.467 398.715v-262.182c0-28.232 22.968-51.2 51.2-51.2h64.885v-34.133h-64.885c-47.053 0-85.333 38.28-85.333 85.333v262.181h34.133z" fill="#fbf3f3"/><path d="m206.603 51.2h28.948v34.133h-28.948z" fill="#e8e3f0"/><path d="m281.6 17.067c0-9.426 7.641-17.067 17.067-17.067h136.533c9.426 0 17.067 7.641 17.067 17.067v9.344c0 4.384-3.322 8.055-7.684 8.491l-116.598 11.66z" fill="#7a6d79"/><path d="m322.563 98.988 97.89 32.63c6.388 2.129 12.61-3.633 10.977-10.165l-2.538-10.152c-1.39-5.558-5.475-10.048-10.877-11.954l-85.215-30.076z" fill="#7a6d79"/><path d="m435.2 0h-23.196c9.425 0 17.067 7.641 17.067 17.067v11.817c0 3.834-2.541 7.122-6.096 8.179l21.608-2.161c4.362-.436 7.684-4.107 7.684-8.491v-9.344c0-9.426-7.642-17.067-17.067-17.067z" fill="#554e56"/><path d="m431.43 121.453-2.538-10.152c-1.39-5.558-5.475-10.047-10.877-11.954l-23.164-8.176c5.038 2.042 8.822 6.367 10.148 11.671l2.668 10.7c1.622 6.486-4.501 12.202-10.84 10.2l23.626 7.875c6.388 2.13 12.61-3.632 10.977-10.164z" fill="#554e56"/><g><circle cx="281.6" cy="68.267" fill="#ffe652" r="51.2"/><path d="m281.6 17.067c-4.08 0-8.043.491-11.847 1.393 22.562 5.348 39.353 25.61 39.353 49.807s-16.791 44.46-39.353 49.807c3.804.902 7.767 1.393 11.847 1.393 28.277 0 51.2-22.923 51.2-51.2s-22.923-51.2-51.2-51.2z" fill="#f4c338"/><path d="m297.667 68.267c0 9.426-6.641 17.067-16.066 17.067-9.426 0-17.067-7.641-17.067-17.067s7.64-17.067 17.066-17.067 16.067 7.641 16.067 17.067z" fill="#fbf3f3"/><path d="m281.6 51.2c-4.605 0-8.777 1.833-11.847 4.798 3.214 3.104 5.22 7.449 5.22 12.269s-2.006 9.165-5.22 12.269c3.07 2.965 7.242 4.798 11.847 4.798 9.426 0 17.067-7.641 17.067-17.067 0-9.426-7.641-17.067-17.067-17.067z" fill="#e8e3f0"/></g><path d="m376 512h-188.8c-4.418 0-8-3.582-8-8v-18.133c0-4.418 3.582-8 8-8h188.8c4.418 0 8 3.582 8 8v18.133c0 4.418-3.582 8-8 8z" fill="#7a6d79"/><path d="m179.2 307.2h196.267c4.713 0 8.533 3.821 8.533 8.533v17.067c0 4.713-3.821 8.533-8.533 8.533h-196.267l-21.333-17.067z" fill="#7a6d79"/><g><g><path d="m290.134 383.193h-17.067c-4.268 0-7.726-3.459-7.726-7.726s3.459-7.726 7.726-7.726h17.067c4.268 0 7.726 3.459 7.726 7.726s-3.459 7.726-7.726 7.726z" fill="#7a6d79"/></g></g><path d="m140.516 307.2h38.684v34.133h-38.684z" fill="#fbf3f3"/><path d="m132.761 485.593-4.44-11.051 2.232-4.401-11.087-77.607h-34.133l-11.086 77.606 2.056 7.726-4.264 7.726-2.381 16.667c-.734 5.141 3.255 9.74 8.448 9.74h48.589c5.193 0 9.182-4.599 8.448-9.74z" fill="#7a6d79"/><path d="m137.067 358.4h-69.334c-4.418 0-8-3.582-8-8v-52.267c0-4.418 3.582-8 8-8h69.333c4.418 0 8 3.582 8 8v52.267c.001 4.418-3.581 8-7.999 8z" fill="#918291"/><g><g><path d="m106.667 331.993h-8.533c-4.268 0-7.726-3.459-7.726-7.726s3.459-7.726 7.726-7.726h8.533c4.268 0 7.726 3.459 7.726 7.726s-3.458 7.726-7.726 7.726z" fill="#fbf3f3"/></g></g><path d="m375.758 477.867h-23.694c4.552 0 8.241 3.69 8.241 8.241v17.65c0 4.552-3.69 8.242-8.241 8.242h23.694c4.552 0 8.241-3.69 8.241-8.242v-17.65c.001-4.552-3.689-8.241-8.241-8.241z" fill="#554e56"/><path d="m132.761 485.593-4.44-11.052 2.232-4.401-11.087-77.607h-23.694l15.675 109.727c.734 5.141-3.255 9.74-8.448 9.74h23.694c5.193 0 9.182-4.599 8.448-9.74z" fill="#554e56"/><path d="m72.039 485.593h60.722l-2.208-15.453h-56.306z" fill="#918291"/><path d="m375.467 307.2h-23.694c4.713 0 8.533 3.82 8.533 8.533v17.067c0 4.713-3.82 8.533-8.533 8.533h23.694c4.713 0 8.533-3.821 8.533-8.533v-17.067c0-4.712-3.821-8.533-8.533-8.533z" fill="#554e56"/><path d="m136.825 290.133h-23.694c4.552 0 8.241 3.69 8.241 8.241v51.784c0 4.552-3.69 8.241-8.241 8.241h23.694c4.551 0 8.241-3.69 8.241-8.241v-51.784c.001-4.551-3.689-8.241-8.241-8.241z" fill="#7a6d79"/><path d="m85.333 248.274h34.133v15.453h-34.133z" fill="#e8e3f0"/><path d="m187.733 436.007v15.453h187.734v-15.453z" fill="#9e2950"/></g></svg>