<svg id="Capa_1" enable-background="new 0 0 512 512" height="512" viewBox="0 0 512 512" width="512" xmlns="http://www.w3.org/2000/svg"><g><path d="m34.133 256-24.699-12.35c-5.782-2.89-9.434-8.8-9.434-15.264v-115.438c0-6.464 3.652-12.374 9.434-15.265l24.699-12.35h13.515v170.667z" fill="#7a6d79"/><path d="m477.867 256 24.699-12.35c5.782-2.891 9.434-8.8 9.434-15.265v-115.437c0-6.464-3.652-12.374-9.434-15.265l-24.699-12.35h-13.515v170.667z" fill="#7a6d79"/><path d="m502.566 97.683-23.824-11.912c5.782 2.891 9.434 8.823 9.434 15.287v139.252c0 6.361-3.541 12.177-9.162 15.117l23.552-11.776c5.782-2.891 9.434-8.8 9.434-15.265v-115.438c0-6.465-3.652-12.374-9.434-15.265z" fill="#554e56"/><path d="m63.013 119.467h44.641v102.4h-44.641z" fill="#7a6d79"/><path d="m401.911 119.467h49.512v102.4h-49.512z" fill="#7a6d79"/><path d="m477.867 333.333v-325.333c0-4.418-3.582-8-8-8h-18.133c-4.418 0-8 3.582-8 8v325.333c0 4.418 3.582 8 8 8h18.133c4.418 0 8-3.581 8-8z" fill="#fbf3f3"/><g><g><path d="m164.144 273.611h15.056c0 18.207 14.759 32.966 32.966 32.966h10.868c18.206 0 32.966-14.759 32.966-32.966h76.8c0 18.207 14.759 32.966 32.966 32.966h10.868c18.207 0 32.966-14.759 32.966-32.966v-205.889c0-18.206-14.759-32.966-32.966-32.966h-10.868c-18.206 0-32.966 14.759-32.966 32.966h-76.8c0-18.206-14.759-32.966-32.966-32.966h-10.868c-18.206 0-32.966 14.759-32.966 32.966h-15.056z" fill="#f03747"/></g></g><path d="m469.625 0h-17.65c-1.068 0-2.085.21-3.022.579 3.055 1.206 5.22 4.178 5.22 7.662v324.85c0 3.484-2.165 6.456-5.22 7.662.936.37 1.954.58 3.022.58h17.65c4.552 0 8.241-3.69 8.241-8.242v-324.85c.001-4.551-3.689-8.241-8.241-8.241z" fill="#e8e3f0"/><path d="m147.2 306.577h-12.8c-17.673 0-32-14.327-32-32v-207.82c0-17.673 14.327-32 32-32h12.8c17.673 0 32 14.327 32 32v207.82c0 17.673-14.327 32-32 32z" fill="#f03747"/><path d="m332.8 349.709h-76.8v-282.952c0-17.673 14.327-32 32-32h12.8c17.673 0 32 14.327 32 32z" fill="#f03747"/><g fill="#b9385d"><path d="m376.634 34.757h-10.868c-2.195 0-4.338.219-6.413.629 15.136 2.985 26.553 16.325 26.553 32.337v205.889c0 16.012-11.417 29.352-26.553 32.337 2.075.409 4.218.628 6.413.628h10.868c18.207 0 32.966-14.759 32.966-32.966v-205.889c0-18.206-14.759-32.965-32.966-32.965z"/><path d="m223.034 34.757h-10.868c-2.195 0-4.338.219-6.413.629 15.136 2.985 26.553 16.325 26.553 32.337v205.889c0 16.012-11.417 29.352-26.553 32.337 2.075.409 4.218.628 6.413.628h10.868c18.206 0 32.966-14.759 32.966-32.966v-205.889c0-18.206-14.759-32.965-32.966-32.965z"/><path d="m299.834 34.757h-10.868c-2.195 0-4.338.219-6.413.629 15.136 2.985 26.553 16.325 26.553 32.337v281.986h23.694v-281.987c0-18.206-14.759-32.965-32.966-32.965z"/><path d="m146.234 34.757h-10.868c-2.195 0-4.338.219-6.413.629 15.136 2.985 26.553 16.325 26.553 32.337v205.889c0 16.012-11.417 29.352-26.553 32.337 2.075.409 4.218.628 6.413.628h10.868c18.207 0 32.966-14.759 32.966-32.966v-205.889c0-18.206-14.759-32.965-32.966-32.965z"/></g><path d="m332.8 314.927v-15.453h-76.8v15.453z" fill="#9e2950"/><path d="m68.267 333.333v-325.333c0-4.418-3.582-8-8-8h-18.134c-4.418 0-8 3.582-8 8v325.333c0 4.418 3.582 8 8 8h18.133c4.419 0 8.001-3.581 8.001-8z" fill="#fbf3f3"/><path d="m60.025 0h-17.65c-1.068 0-2.085.21-3.022.579 3.055 1.206 5.22 4.178 5.22 7.662v324.85c0 3.484-2.165 6.456-5.22 7.662.937.37 1.954.58 3.022.58h17.65c4.552 0 8.241-3.69 8.241-8.242v-324.85c.001-4.551-3.689-8.241-8.241-8.241z" fill="#e8e3f0"/><path d="m322.064 409.6 6.337-7.726 4.399-26.407v-9.086h-76.8v9.086l4.399 26.407 6.344 7.726-3.77 7.726 10.094 60.591v6.415h42.666v-6.415l10.094-60.591z" fill="#e8e3f0"/><path d="m322.064 409.6 6.337-7.726 4.399-26.407v-9.086h-23.694v9.086l-17.067 102.45v6.415h23.694v-6.415l10.094-60.591z" fill="#d3cbe4"/><path d="m328.401 401.874h-68.002l2.574 15.452h62.854z" fill="#fbf3f3"/><path d="m246.933 341.333h94.933c4.418 0 8 3.582 8 8v18.133c0 4.418-3.582 8-8 8h-94.933c-4.418 0-8-3.582-8-8v-18.133c0-4.418 3.582-8 8-8z" fill="#fbf3f3"/><path d="m316.267 477.867h-.5l-.033.05-11.339.936-10.706-.987h-21.155c-4.418 0-8 3.582-8 8v18.134c0 4.418 3.582 8 8 8h43.733c4.418 0 8-3.582 8-8v-18.133c0-4.419-3.582-8-8-8z" fill="#fbf3f3"/><path d="m341.625 341.333h-23.865c4.552 0 8.241 3.69 8.241 8.241v17.65c0 4.552-3.69 8.242-8.241 8.242h23.865c4.552 0 8.241-3.69 8.241-8.242v-17.65c.001-4.551-3.689-8.241-8.241-8.241z" fill="#e8e3f0"/><path d="m316.267 477.867h-23.936c4.551 0 8.241 3.69 8.241 8.241v17.65c0 4.552-3.69 8.241-8.241 8.241h23.936c4.418 0 8-3.582 8-8v-18.133c0-4.418-3.582-7.999-8-7.999z" fill="#e8e3f0"/></g></svg>