<svg id="Capa_1" enable-background="new 0 0 512 512" height="512" viewBox="0 0 512 512" width="512" xmlns="http://www.w3.org/2000/svg"><g><path d="m307.882 196.201c-.703-5.623-.703-11.312 0-16.935l2.242-17.94-6.542-8.234 8.474-7.218 3.301-26.407.136-11.671h-68.403v11.671l2.638 26.407 4.373 8.319-2.829 7.133 15.717 157.342c.385 3.855.111 7.746-.81 11.509l-11.087 45.29 25.777 7.926 41.471-24.993 1.024-22.527c.351-7.724.045-15.463-.914-23.134z" fill="#9f5f4b"/><path d="m307.882 196.201c-.703-5.623-.703-11.312 0-16.935l2.242-17.94-6.542-8.234 8.474-7.218 3.301-26.407.136-11.671h-23.694l-.136 11.671-7.475 59.799c-.703 5.623-.703 11.312 0 16.935l14.567 116.538c.959 7.672 1.264 15.411.913 23.134l-1.691 37.209 24.362-14.682 1.024-22.527c.351-7.724.045-15.463-.914-23.134z" fill="#724435"/><path d="m249.728 145.874 1.543 15.452h58.853l1.932-15.452z" fill="#4f2f25"/><g><path d="m394.307 52.633-36.152-24.101c-11.214-7.476-24.39-11.465-37.868-11.465h-100.323c-4.659 0-9.307-.477-13.869-1.424l-18.739-3.888-36.739 73.579 19.673 69.503 42.443-29.32c5.703-3.939 12.47-6.05 19.401-6.05h61.724l7.514-1.219 13.985 1.219h1.062c4.277 0 7.893-3.166 8.459-7.406l4.852-36.389c.565-4.24 4.182-7.406 8.458-7.406h51.385c8.443.001 11.759-10.949 4.734-15.633z" fill="#f03747"/><path d="m306.107 75.672-4.852 36.389c-.565 4.239-4.182 7.406-8.459 7.406h23.622c4.277 0 7.893-3.166 8.459-7.406l4.852-36.389c.565-4.24 4.182-7.406 8.458-7.406h-23.622c-4.276.001-7.892 3.167-8.458 7.406z" fill="#b9385d"/><path d="m394.307 52.633-36.152-24.101c-11.214-7.476-24.39-11.465-37.868-11.465h-23.622c13.477 0 26.653 3.989 37.867 11.465l36.152 24.101c7.025 4.683 3.71 15.633-4.733 15.633h23.622c8.443.001 11.759-10.949 4.734-15.633z" fill="#b9385d"/><path d="m131.104.083c-2.017-.403-4.034.689-4.798 2.599-10.378 25.946-14.346 54.013-11.565 81.819l.742 7.416c2.515 25.155 10.565 49.442 23.572 71.12l3.334 5.557c1.253 2.089 3.998 2.706 6.025 1.355l21.877-15.113 17.067-143.081z" fill="#fbf3f3"/></g><g><path d="m290.133 75.993h-17.066c-4.267 0-7.726-3.459-7.726-7.726s3.459-7.726 7.726-7.726h17.066c4.267 0 7.726 3.459 7.726 7.726s-3.459 7.726-7.726 7.726z" fill="#fbf3f3"/></g><path d="m255.091 375.467-22.223 90.778c-1.708 6.976 1.134 14.275 7.11 18.258l36.945 24.63c2.803 1.869 6.097 2.866 9.467 2.866h12.657c9.124 0 16.635-7.177 17.049-16.292l6.241-137.308z" fill="#724435"/><path d="m316.097 495.708 6.241-137.308-23.971 6.084-5.965 131.225c-.327 7.187-5.073 13.152-11.535 15.361 1.77.606 3.633.93 5.523.93h12.657c9.126 0 16.636-7.177 17.05-16.292z" fill="#4f2f25"/></g></svg>