<svg id="Capa_1" enable-background="new 0 0 512 512" height="512" viewBox="0 0 512 512" width="512" xmlns="http://www.w3.org/2000/svg"><g><g><g><path d="m418.133 101.841h34.133v69.384h-34.133z" fill="#e8e3f0"/><path d="m428.573 101.841h23.694v69.384h-23.694z" fill="#d3cbe4"/><path d="m401.067 483.018h68.267v-320.885c0-4.713-3.821-8.533-8.533-8.533h-51.2c-4.713 0-8.533 3.82-8.533 8.533v320.885z" fill="#fbf3f3"/><path d="m460.8 153.6h-23.694c4.713 0 8.533 3.82 8.533 8.533v320.884h23.694v-320.884c0-4.712-3.82-8.533-8.533-8.533z" fill="#e8e3f0"/></g><ellipse cx="435.2" cy="59.733" fill="#f03747" rx="59.733" ry="59.733" transform="matrix(.707 -.707 .707 .707 85.229 325.229)"/><path d="m435.2 0c-4.057 0-8.018.409-11.847 1.18 27.314 5.496 47.886 29.621 47.886 58.554s-20.572 53.057-47.886 58.554c3.83.771 7.79 1.18 11.847 1.18 32.99 0 59.733-26.743 59.733-59.733s-26.743-59.735-59.733-59.735z" fill="#b9385d"/><circle cx="435.2" cy="59.733" fill="#ffe652" r="25.6"/><path d="m435.2 34.133c-4.276 0-8.304 1.054-11.847 2.908 8.172 4.276 13.753 12.83 13.753 22.692s-5.581 18.417-13.753 22.692c3.543 1.854 7.571 2.908 11.847 2.908 14.138 0 25.6-11.462 25.6-25.6s-11.461-25.6-25.6-25.6z" fill="#f4c338"/><path d="m478.4 477.867h-86.4c-4.418 0-8 3.582-8 8v18.133c0 4.418 3.582 8 8 8h86.4c4.418 0 8-3.582 8-8v-18.133c0-4.419-3.582-8-8-8z" fill="#e8e3f0"/><path d="m478.159 477.867h-23.694c4.552 0 8.242 3.69 8.242 8.241v17.65c0 4.552-3.69 8.242-8.242 8.242h23.694c4.552 0 8.241-3.69 8.241-8.242v-17.65c0-4.552-3.69-8.241-8.241-8.241z" fill="#d3cbe4"/></g><g><g><path d="m59.733 101.841h34.133v69.384h-34.133z" fill="#e8e3f0"/><path d="m70.173 101.841h23.694v69.384h-23.694z" fill="#d3cbe4"/><path d="m42.667 483.018h68.267v-320.885c0-4.713-3.821-8.533-8.533-8.533h-51.201c-4.713 0-8.533 3.82-8.533 8.533z" fill="#fbf3f3"/><path d="m102.4 153.6h-23.694c4.713 0 8.533 3.82 8.533 8.533v320.884h23.694v-320.884c0-4.712-3.82-8.533-8.533-8.533z" fill="#e8e3f0"/></g><ellipse cx="76.8" cy="59.733" fill="#f03747" rx="59.733" ry="59.733" transform="matrix(.707 -.707 .707 .707 -19.744 71.801)"/><path d="m76.8 0c-4.057 0-8.018.409-11.847 1.18 27.314 5.496 47.886 29.621 47.886 58.554s-20.572 53.057-47.886 58.554c3.83.771 7.79 1.18 11.847 1.18 32.99 0 59.733-26.743 59.733-59.733s-26.743-59.735-59.733-59.735z" fill="#b9385d"/><circle cx="76.8" cy="59.733" fill="#ffe652" r="25.6"/><path d="m76.8 34.133c-4.276 0-8.304 1.054-11.847 2.908 8.172 4.276 13.753 12.83 13.753 22.692s-5.58 18.417-13.753 22.692c3.543 1.854 7.571 2.908 11.847 2.908 14.138 0 25.6-11.462 25.6-25.6s-11.461-25.6-25.6-25.6z" fill="#f4c338"/><path d="m120 477.867h-86.4c-4.418 0-8 3.582-8 8v18.133c0 4.418 3.582 8 8 8h86.4c4.418 0 8-3.582 8-8v-18.133c0-4.419-3.582-8-8-8z" fill="#e8e3f0"/><path d="m119.759 477.867h-23.694c4.551 0 8.241 3.69 8.241 8.241v17.65c0 4.552-3.69 8.242-8.241 8.242h23.694c4.552 0 8.241-3.69 8.241-8.242v-17.65c0-4.552-3.69-8.241-8.241-8.241z" fill="#d3cbe4"/></g><path d="m503.759 187.733h-61.373l-48.539 10.794-31.964-10.794h-73.096l-43.399 7.278-37.105-7.278h-73.096l-49.373 10.907-31.131-10.907h-46.441c-4.552 0-8.242 3.69-8.242 8.241v68.85c0 2.406 1.037 4.563 2.681 6.07l42.756-6.02 36.415 8.192h73.096l45.866-5.47 34.637 5.47h73.096l42.314-5.81 38.19 5.81h73.096l40.434-43.123 9.118-36.147c-.956-3.492-4.144-6.063-7.94-6.063z" fill="#ffe652"/><path d="m474.597 324.984-33.782-17.784h-73.096l-46.231 11.109-34.273-11.109h-73.096l-63.433 8.938-17.071-8.938h-73.096l-45.931 25.043-14.288 71.292c.956 3.494 4.144 6.065 7.941 6.065h61.373l53.936-7.154 26.568 7.154h73.096l48.767-5.112 31.737 5.112h73.096l47.001-6.133 33.503 6.133h46.44c4.552 0 8.241-3.69 8.241-8.241v-79.249z" fill="#ffe652"/><g fill="#7a6d79"><path d="m54.681 187.733-52.011 83.164c1.52 1.4 3.634 2.17 5.863 2.17h73.319l53.333-85.333h-80.504z"/><path d="m154.948 273.067h80.504l53.333-85.334h-80.504z"/><path d="m308.548 273.067h80.504l53.333-85.334h-80.504z"/><path d="m8.533 307.2c-4.712 0-8.533 3.821-8.533 8.533v85.333c0 .836.072 1.726.296 2.489l60.223-96.355z"/><path d="m150.119 409.6 64-102.4h-80.504l-64 102.4z"/><path d="m303.719 409.6 64-102.4h-80.504l-64 102.4z"/></g><path d="m488.306 195.975v49.194l14.276-15.226 9.118-36.147c-.956-3.493-4.145-6.063-7.941-6.063h-23.694c4.551 0 8.241 3.69 8.241 8.242z" fill="#f4c338"/><path d="m488.306 401.359c0 4.551-3.69 8.241-8.241 8.241h23.694c4.552 0 8.241-3.69 8.241-8.241v-79.249l-23.694 1.821z" fill="#f4c338"/><path d="m457.319 409.6 54.681-87.49v-6.376c0-4.713-3.82-8.533-8.533-8.533h-62.652l-64 102.4h80.504z" fill="#7a6d79"/><path d="m503.467 307.2h-23.402c4.552 0 8.241 3.69 8.241 8.241v44.579l23.694-37.91v-6.376c0-4.713-3.821-8.534-8.533-8.534z" fill="#554e56"/><g><path d="m503.467 273.067c4.713 0 8.533-3.821 8.533-8.533v-68.266c0-.836-.073-1.722-.296-2.486l-49.555 79.286h41.318z" fill="#7a6d79"/><path d="m488.306 231.214v33.611c0 4.551-3.689 8.241-8.24 8.241h23.401c4.713 0 8.533-3.82 8.533-8.533v-68.267c0-.836-.073-1.722-.296-2.486z" fill="#554e56"/></g></g></svg>