<svg id="Capa_1" enable-background="new 0 0 502 502" height="512" viewBox="0 0 502 502" width="512" xmlns="http://www.w3.org/2000/svg"><g><path d="m148.599 121.065v-52.798c0-37.703 30.564-68.267 68.267-68.267h68.266c37.703 0 68.267 30.564 68.267 68.267v52.799h-204.8z" fill="#7a6d79"/><path d="m421.665 365.465c0-37.701-30.562-68.263-68.263-68.263h-204.804c-37.701 0-68.263 30.562-68.263 68.263l-.002 119.468c0 9.426 7.641 17.067 17.066 17.067h136.534l17.067-7.367 17.068 7.367h34.134-.001l42.667-11.109 42.666 11.109h-.002 17.068c9.426 0 17.067-7.641 17.067-17.067z" fill="#8dd4ff"/><path d="m421.665 365.465c0-37.701-30.562-68.263-68.263-68.263h-23.694c37.701 0 68.263 30.562 68.263 68.263l.002 119.468c0 7.91-5.39 14.545-12.692 16.48l2.253.587h-.002 17.068c9.426 0 17.067-7.641 17.067-17.067z" fill="#45afff"/><path d="m233.934 331.335h34.133v170.665h-34.133z" fill="#45afff"/><path d="m353.399 102.4c9.426 0 17.067 7.641 17.067 17.067v34.133c0 9.426-7.641 17.067-17.067 17.067h-204.799c-9.426 0-17.067-7.641-17.067-17.067v-34.134c0-9.426 7.641-17.067 17.067-17.067h204.799z" fill="#ffcfc0"/><path d="m353.399 102.4h-23.694c9.426 0 17.067 7.641 17.067 17.067v34.133c0 9.426-7.641 17.067-17.067 17.067h23.694c9.426 0 17.067-7.641 17.067-17.067v-34.133c0-9.427-7.641-17.067-17.067-17.067z" fill="#ffa98f"/><path d="m199.8 233.424v46.709l40.899 51.202h20.605l40.896-51.202v-46.702z" fill="#ffcfc0"/><path d="m278.506 309.798 23.694-29.665v-46.702l-23.694-.001z" fill="#ffa98f"/><path d="m336.333 102.4v-35.953h-170.666l.001 104.222c0 47.128 38.204 85.332 85.332 85.332 9.64 0 18.897-1.622 27.539-4.569l11.145-12.493h12.511c20.727-15.568 34.137-40.352 34.137-68.27l-11.943-33.102z" fill="#ffcfc0"/><path d="m312.639 66.447v104.223c0 43.105-31.968 78.725-73.485 84.495 3.874.538 7.825.837 11.847.837 47.127 0 85.332-38.204 85.332-85.332v-104.223z" fill="#ffa98f"/><path d="m199.8 280.133-34.133 17.07 29.812 59.618c2.296 4.591 8.095 6.131 12.366 3.284l43.155-28.77z" fill="#fbf3f3"/><path d="m302.201 280.133 34.133 17.07-29.812 59.618c-2.296 4.591-8.095 6.131-12.366 3.284l-43.156-28.769z" fill="#fbf3f3"/><g><g><path d="m216.867 152.792c-4.268 0-7.726-3.459-7.726-7.726v-8.533c0-4.267 3.459-7.726 7.726-7.726 4.268 0 7.726 3.459 7.726 7.726v8.533c0 4.267-3.458 7.726-7.726 7.726z" fill="#554e56"/></g></g><g><g><path d="m285.133 152.792c-4.268 0-7.726-3.459-7.726-7.726v-8.533c0-4.267 3.459-7.726 7.726-7.726 4.268 0 7.726 3.459 7.726 7.726v8.533c0 4.267-3.459 7.726-7.726 7.726z" fill="#554e56"/></g></g><g><g><path d="m251 195.462c-8.809 0-17.031-4.746-21.46-12.385-2.14-3.692-.881-8.419 2.811-10.559 3.692-2.139 8.42-.882 10.559 2.81 1.673 2.888 4.774 4.682 8.09 4.682 3.317 0 6.418-1.794 8.093-4.683 2.141-3.691 6.871-4.948 10.559-2.808 3.692 2.14 4.95 6.868 2.809 10.56-4.43 7.637-12.653 12.383-21.461 12.383z" fill="#f03747"/></g></g><g><g fill="#7a6d79"><path d="m336.333 102.4h-71.133c-28.277 0-51.2-22.923-51.2-51.2h121.164l9.073 30.965z"/><path d="m165.666 102.4h17.067c18.851 0 34.133-15.282 34.133-34.133v-34.87h-51.199l-6.296 67.017z"/></g></g><path d="m161.534 368.202 7.783 15.769c.357.724 1.048 1.226 1.847 1.342l17.402 2.529c4.024.585 5.631 5.53 2.719 8.368l-12.592 12.274c-.578.564-.842 1.376-.705 2.171l2.973 17.332c.687 4.008-3.519 7.064-7.118 5.172l-15.565-8.183c-.715-.376-1.568-.376-2.283 0l-15.565 8.183c-3.599 1.892-7.806-1.164-7.118-5.172l2.973-17.332c.137-.796-.127-1.608-.705-2.171l-12.592-12.274c-2.912-2.838-1.305-7.784 2.719-8.368l17.402-2.529c.799-.116 1.49-.618 1.847-1.342l7.782-15.769c1.796-3.647 6.996-3.647 8.796 0z" fill="#fbf3f3"/><g><g><path d="m174.201 475.593h-34.133c-4.268 0-7.726-3.459-7.726-7.726s3.459-7.726 7.726-7.726h34.133c4.268 0 7.726 3.459 7.726 7.726s-3.458 7.726-7.726 7.726z" fill="#45afff"/></g></g><path d="m302.201 433.733h85.333v68.266h-85.333z" fill="#45afff"/><path d="m191.284 396.21c2.912-2.838 1.305-7.784-2.719-8.368l-17.402-2.529c-.799-.116-1.49-.618-1.847-1.342l-7.783-15.769c-1.8-3.646-6.999-3.646-8.799 0l-7.495 15.188.287.582c.357.724 1.048 1.226 1.847 1.342l17.402 2.529c4.024.585 5.631 5.53 2.719 8.368l-12.592 12.274c-.578.564-.842 1.376-.706 2.171l2.419 14.102c.557-.121 1.144-.052 1.66.219l15.565 8.183c3.599 1.892 7.806-1.164 7.119-5.172l-2.973-17.332c-.136-.796.127-1.608.706-2.171z" fill="#e8e3f0"/><path d="m371.534 450.8h-53.333c-8.837 0-16-7.163-16-16v-10.133c0-4.418 3.582-8 8-8h69.333c4.418 0 8 3.582 8 8v10.133c0 8.837-7.164 16-16 16z" fill="#fbf3f3"/><path d="m285.132 0h-23.692c37.702.001 68.265 30.565 68.265 68.267v34.133h23.694v-34.133c0-37.703-30.564-68.267-68.267-68.267z" fill="#554e56"/></g></svg>