<svg id="Capa_1" enable-background="new 0 0 512 512" height="512" viewBox="0 0 512 512" width="512" xmlns="http://www.w3.org/2000/svg"><g><path d="m132.892 330.967 8.374-24.192c1.542-4.453-.819-9.313-5.273-10.855l-38.333-13.269c-4.454-1.542-9.314.819-10.855 5.273l-8.373 24.192 16.038 13.89z" fill="#918291"/><path d="m135.993 295.92-38.333-13.269c-4.454-1.542-9.314.819-10.855 5.273l-2.277 6.578 27.771 9.613c4.453 1.542 6.814 6.402 5.273 10.855l-4.645 13.419 19.965 2.578 8.373-24.192c1.542-4.454-.819-9.314-5.272-10.855z" fill="#7a6d79"/><path d="m197.898 316.025h170.667v133.817h-170.667z" fill="#918291"/><path d="m344.871 316.025h23.694v133.817h-23.694z" fill="#7a6d79"/><path d="m402.698 483.018v-30.751c0-4.713-3.82-8.533-8.533-8.533h-221.867c-4.713 0-8.533 3.82-8.533 8.533v30.751z" fill="#e8e3f0"/><g><path d="m283.231 0c-94.257 0-170.667 76.41-170.667 170.667s76.41 170.667 170.667 170.667c21.745 0 42.536-4.075 61.662-11.49l14.455-11.343h9.208c51.015-29.508 85.341-84.661 85.341-147.834.001-94.257-76.409-170.667-170.666-170.667z" fill="#f03747"/><g><g><path d="m419.765 178.393h-17.066c-4.268 0-7.726-3.459-7.726-7.726s3.459-7.726 7.726-7.726h17.066c4.268 0 7.726 3.459 7.726 7.726s-3.459 7.726-7.726 7.726z" fill="#fbf3f3"/></g></g><g><g><path d="m163.765 178.393h-17.066c-4.268 0-7.726-3.459-7.726-7.726s3.459-7.726 7.726-7.726h17.066c4.268 0 7.726 3.459 7.726 7.726s-3.459 7.726-7.726 7.726z" fill="#fbf3f3"/></g></g><path d="m283.232 0c-3.983 0-7.932.148-11.847.417 88.728 6.085 158.82 79.977 158.82 170.25s-70.091 164.165-158.82 170.25c3.915.268 7.864.416 11.847.416 94.257 0 170.667-76.41 170.667-170.667s-76.411-170.666-170.667-170.666z" fill="#b9385d"/><path d="m367.565 170.667c0 47.128-37.205 85.333-84.333 85.333s-85.333-38.205-85.333-85.333 38.205-85.333 85.333-85.333c47.128-.001 84.333 38.204 84.333 85.333z" fill="#b9385d"/><path d="m283.232 85.334c-4.022 0-7.973.299-11.847.837 41.518 5.77 73.486 41.39 73.486 84.496s-31.968 78.726-73.486 84.496c3.874.538 7.825.837 11.847.837 47.128 0 85.333-38.205 85.333-85.333 0-47.129-38.205-85.333-85.333-85.333z" fill="#9e2950"/><ellipse cx="283.231" cy="170.667" fill="#fbf3f3" rx="17.067" ry="17.067" transform="matrix(.707 -.707 .707 .707 -37.723 250.262)"/><path d="m283.232 153.6c-4.605 0-8.777 1.833-11.847 4.798 3.213 3.104 5.22 7.449 5.22 12.269s-2.006 9.165-5.22 12.269c3.07 2.965 7.242 4.798 11.847 4.798 9.426 0 17.067-7.641 17.067-17.067-.001-9.426-7.642-17.067-17.067-17.067z" fill="#e8e3f0"/></g><g><path d="m300.298 448.025h-34.133v-28.73c0-3.637-2.305-6.874-5.742-8.064l-196.577-68.045c-4.453-1.542-6.814-6.401-5.273-10.855l5.582-16.128c1.542-4.454 6.402-6.814 10.855-5.273l213.803 74.009c6.874 2.379 11.484 8.854 11.484 16.128v46.958z" fill="#fbf3f3"/></g><path d="m394.165 443.733h-23.694c4.713 0 8.533 3.82 8.533 8.533v30.751h23.694v-30.751c0-4.712-3.82-8.533-8.533-8.533z" fill="#d3cbe4"/><path d="m288.814 384.939-20.59-7.127c5.118 3.028 8.38 8.565 8.38 14.677v55.536h23.694v-46.958c0-7.274-4.61-13.748-11.484-16.128z" fill="#e8e3f0"/><path d="m334.431 484.445h-102.4v-41.245c0-4.418 3.582-8 8-8h86.4c4.418 0 8 3.582 8 8z" fill="#ffe652"/><path d="m326.19 435.2h-23.694c4.552 0 8.241 3.69 8.241 8.241v41.004h23.694v-41.004c0-4.551-3.689-8.241-8.241-8.241z" fill="#f4c338"/><path d="m428.831 512h-291.2c-4.418 0-8-3.582-8-8v-18.133c0-4.418 3.582-8 8-8h291.2c4.418 0 8 3.582 8 8v18.133c0 4.418-3.581 8-8 8z" fill="#fbf3f3"/><path d="m428.59 477.867h-23.694c4.552 0 8.242 3.69 8.242 8.241v17.65c0 4.552-3.69 8.242-8.242 8.242h23.694c4.552 0 8.241-3.69 8.241-8.242v-17.65c0-4.552-3.689-8.241-8.241-8.241z" fill="#e8e3f0"/></g></svg>