<svg id="Capa_1" enable-background="new 0 0 512 512" height="512" viewBox="0 0 512 512" width="512" xmlns="http://www.w3.org/2000/svg"><g><g><path d="m167.584 341.764 13.707-37.695c4.905-13.489 17.725-22.469 32.078-22.469h24.266v-102.4h-72.083c-28.707 0-54.346 17.959-64.157 44.937l-30.046 82.633 37.191 49.849z" fill="#fbf3f3"/></g><path d="m351.79 179.2h81.486v102.4h-81.486z" fill="#fbf3f3"/><path d="m342.4 307.2h-104.533c-8.837 0-16-7.164-16-16v-137.736h136.533v137.736c0 8.836-7.164 16-16 16z" fill="#e8e3f0"/><path d="m334.706 153.464v137.253c0 9.103-7.38 16.483-16.483 16.483h23.694c9.103 0 16.483-7.38 16.483-16.483v-137.253z" fill="#d3cbe4"/><path d="m273.067 85.529h34.133v50.809h-34.133z" fill="#e8e3f0"/><path d="m283.506 85.529h23.694v50.809h-23.694z" fill="#d3cbe4"/><path d="m136.533 473.746v-70.624l-31.025-27.934h-45.775l-33.196 99.858c-.56 1.684-2.135 2.821-3.91 2.821h-5.114c-9.566 0-17.69 7.828-17.511 17.393.175 9.274 7.748 16.74 17.065 16.74h127.553c9.566 0 17.69-7.828 17.511-17.393-.174-9.275-7.747-16.741-17.064-16.741h-4.413c-2.276.001-4.121-1.844-4.121-4.12z" fill="#8dd4ff"/><path d="m145.067 477.867h-4.413c-2.276 0-4.121-1.845-4.121-4.121v-70.624l-23.603-21.252-.091 91.875c0 2.276 1.845 4.121 4.121 4.121h4.413c9.317 0 16.89 7.466 17.064 16.741.179 9.564-7.945 17.392-17.511 17.392h23.694c9.566 0 17.69-7.828 17.511-17.392-.175-9.275-7.748-16.74-17.064-16.74z" fill="#45afff"/><path d="m426.667 308.267v-155.058c0-8.837 7.163-16 16-16h44.368v187.058h-44.368c-8.837 0-16-7.164-16-16z" fill="#ffe652"/><path d="m221.333 128h137.6c4.418 0 8 3.582 8 8v18.133c0 4.418-3.582 8-8 8h-137.6c-4.418 0-8-3.582-8-8v-18.133c0-4.418 3.582-8 8-8z" fill="#fbf3f3"/><path d="m329.544 82.472 45.855-24.858c6.639-3.794 9.944-11.54 8.09-18.957l-12.315-32.193c-.95-3.799-4.363-6.464-8.279-6.464h-21.562c-4.713 0-8.533 3.821-8.533 8.533v20.021c0 3.389-2.006 6.457-5.11 7.817l-10.059 4.405h-54.996l-10.059-4.405c-3.104-1.36-5.11-4.427-5.11-7.817v-20.021c0-4.713-3.82-8.533-8.533-8.533h-21.562c-3.916 0-7.329 2.665-8.279 6.464l-12.315 32.194c-1.854 7.418 1.451 15.164 8.09 18.957l45.855 24.858h78.822z" fill="#f03747"/><path d="m316.267 264.533h-52.267c-4.418 0-8-3.582-8-8v-43.733c0-4.418 3.582-8 8-8h52.267c4.418 0 8 3.582 8 8v43.733c0 4.419-3.582 8-8 8z" fill="#fbf3f3"/><g><g><path d="m294.4 242.393h-8.533c-4.267 0-7.726-3.459-7.726-7.726s3.459-7.726 7.726-7.726h8.533c4.267 0 7.726 3.459 7.726 7.726s-3.459 7.726-7.726 7.726z" fill="#d3cbe4"/></g></g><g><g><path d="m392.533 289.327c-4.267 0-7.726-3.459-7.726-7.726v-102.401c0-4.267 3.459-7.726 7.726-7.726s7.726 3.459 7.726 7.726v102.4c0 4.267-3.459 7.727-7.726 7.727z" fill="#e8e3f0"/></g></g><path d="m63.571 303.941 113.273 41.201c4.152 1.51 6.294 6.1 4.784 10.253l-15.131 41.6c-3.02 8.304-12.201 12.588-20.505 9.567l-98.237-35.732c-8.304-3.021-12.588-12.201-9.567-20.505l15.131-41.6c1.51-4.152 6.1-6.294 10.252-4.784z" fill="#e8e3f0"/><g fill="#b9385d"><path d="m223.772 8.533v20.021c0 3.389 2.006 6.457 5.11 7.817 6.634 2.905 13.797 4.405 21.039 4.405h12.713l-10.059-4.405c-3.104-1.36-5.11-4.427-5.11-7.817v-20.021c0-4.713-3.82-8.533-8.533-8.533h-21.562c-.36 0-.714.03-1.064.074 4.209.526 7.466 4.109 7.466 8.459z"/><path d="m383.489 38.657-12.315-32.193c-.95-3.799-4.363-6.464-8.279-6.464h-21.562c-.362 0-.717.03-1.068.074 3.456.433 6.352 2.941 7.214 6.39l12.315 32.193c1.854 7.418-1.451 15.164-8.09 18.957l-45.854 24.858h23.694l45.855-24.858c6.639-3.793 9.944-11.539 8.09-18.957z"/></g><path d="m329.544 82.472-3.572-2.078.394-9.044-8.865-31.028c-1.047-3.663-4.395-6.189-8.205-6.189h-38.326c-3.81 0-7.158 2.526-8.205 6.189l-12.19 42.667c-1.558 5.451 2.536 10.878 8.205 10.878h62.708c5.669 0 9.762-5.426 8.205-10.878z" fill="#b9385d"/><path d="m329.692 82.989-12.19-42.667c-1.047-3.663-4.395-6.189-8.205-6.189h-23.694c3.81 0 7.158 2.526 8.205 6.189l12.191 42.667c1.557 5.451-2.536 10.877-8.205 10.877h23.694c5.668.001 9.762-5.426 8.204-10.877z" fill="#9e2950"/><path d="m358.692 128h-23.714c4.552 0 8.241 3.69 8.241 8.241v17.651c0 4.552-3.69 8.241-8.241 8.241h23.714c4.552 0 8.241-3.69 8.241-8.241v-17.651c0-4.551-3.69-8.241-8.241-8.241z" fill="#e8e3f0"/><path d="m454.172 137.209h32.862v187.058h-32.862z" fill="#f4c338"/><path d="m477.866 350.4v-240c0-4.418 3.582-8 8-8h18.134c4.418 0 8 3.582 8 8v240c0 4.418-3.582 8-8 8h-18.133c-4.419 0-8.001-3.582-8.001-8z" fill="#ffe652"/><path d="m503.758 102.4h-17.65c-1.068 0-2.085.21-3.022.579 3.055 1.206 5.22 4.178 5.22 7.662v239.517c0 3.484-2.165 6.456-5.22 7.662.936.37 1.954.58 3.022.58h17.65c4.552 0 8.241-3.69 8.241-8.241v-239.517c.001-4.552-3.689-8.242-8.241-8.242z" fill="#f4c338"/><g><g><g><path d="m22.627 477.867h-5.114c-5.995 0-11.423 3.076-14.596 7.726h48.283c4.267 0 7.726-3.459 7.726-7.726s-3.459-7.726-7.726-7.726h-23.032l-1.631 4.906c-.559 1.683-2.135 2.82-3.91 2.82z" fill="#45afff"/></g><g><path d="m110.933 485.593h48.402c-3.049-4.648-8.294-7.726-14.268-7.726h-4.413c-2.276 0-4.121-1.845-4.121-4.121v-3.606h-25.6c-4.267 0-7.726 3.459-7.726 7.726 0 4.268 3.459 7.727 7.726 7.727z" fill="#45afff"/></g></g></g><path d="m176.617 345.059-112.819-41.035c-4.278-1.556-9.006.651-10.562 4.928l-3.097 8.515 102.781 37.383c4.277 1.556 6.484 6.285 4.928 10.562l-14.604 40.15 2.294.834c8.555 3.112 18.012-1.301 21.124-9.856l14.883-40.92c1.556-4.276-.65-9.005-4.928-10.561z" fill="#d3cbe4"/><g><g><path d="m180.714 390.599c-.877 0-1.769-.15-2.64-.467l-144.349-52.504c-4.01-1.459-6.078-5.892-4.62-9.902s5.891-6.079 9.902-4.62l144.348 52.504c4.01 1.459 6.078 5.892 4.62 9.902-1.141 3.138-4.105 5.087-7.261 5.087z" fill="#d3cbe4"/></g></g></g></svg>