<svg id="Capa_1" enable-background="new 0 0 512 512" height="512" viewBox="0 0 512 512" width="512" xmlns="http://www.w3.org/2000/svg"><g><path d="m85.333 477.867 170.667 17.066 170.667-17.067-.001-68.267c0-31.81-21.758-58.538-51.203-66.114l-34.129-2.149-170.666 4.137-17.07-4.138c-37.7 0-68.263 30.562-68.263 68.263z" fill="#f03747"/><path d="m402.971 409.599.001 70.637 23.694-2.37-.001-68.267c0-31.81-21.758-58.538-51.203-66.114l-34.129-2.149h-23.694l34.129 2.149c29.445 7.577 51.203 34.305 51.203 66.114z" fill="#b9385d"/><path d="m426.667 477.866h-341.333l-.001.001v17.066c0 9.426 7.641 17.067 17.067 17.067h34.134l42.667-25.6 42.667 25.6h68.267l42.667-25.6 42.667 25.6h34.131c9.426 0 17.067-7.641 17.067-17.067z" fill="#fbf3f3"/><path d="m426.667 494.933v-17.066h-23.694v17.066c0 9.426-7.641 17.067-17.067 17.067h23.694c9.426 0 17.067-7.641 17.067-17.067z" fill="#e8e3f0"/><path d="m375.467 136.533 22.462 52.411c15.553 36.292-2.832 78.171-40.076 91.284l-28.133 9.905h-147.44l-28.133-9.905c-37.243-13.113-55.629-54.992-40.075-91.284l22.462-52.411 119.467-17.067z" fill="#7a6d79"/><path d="m397.929 188.945-22.462-52.411-119.467-17.067-11.847 1.693 107.619 15.374 22.462 52.411c15.554 36.292-2.832 78.171-40.076 91.284l-28.133 9.905h23.694l28.133-9.905c37.245-13.114 55.631-54.993 40.077-91.284z" fill="#554e56"/><path d="m358.401 102.4-6.797-40.779c-1.145-6.869-3.734-13.417-7.598-19.212l-.002-.003c-7.179-10.769-18.31-18.277-30.984-20.899l-21.464-4.441h-71.086l-21.485 4.443c-12.676 2.621-23.81 10.13-30.99 20.9-3.863 5.794-6.452 12.343-7.598 19.212l-6.797 40.779v8.874h204.801z" fill="#b9385d"/><path d="m351.604 61.621c-1.145-6.869-3.734-13.417-7.598-19.212l-.002-.003c-7.179-10.769-18.31-18.277-30.984-20.899l-21.464-4.441h-23.622l21.464 4.441c12.674 2.622 23.805 10.13 30.984 20.899l.002.003c3.863 5.794 6.452 12.343 7.597 19.212l6.797 40.779v8.874h23.622v-8.874z" fill="#9e2950"/><path d="m291.556 17.067-.118-1.418c-.737-8.845-8.131-15.649-17.007-15.649h-36.859c-8.876 0-16.271 6.804-17.008 15.649l-7.229 86.751v10.802h78.222v-96.135z" fill="#f03747"/><path d="m179.201 126.925v9.608l-10.527 26.318c-4.289 10.724-5.788 22.36-4.355 33.82l4.896 39.174c.941 7.532 4.367 14.535 9.734 19.902l21.166 21.166c3.001 3.001 7.07 4.686 11.314 4.686h89.145c4.244 0 8.313-1.686 11.314-4.686l21.166-21.166c5.367-5.367 8.792-12.371 9.734-19.902l4.896-39.173c1.432-11.461-.066-23.097-4.356-33.821l-10.527-26.318v-9.608z" fill="#8dd4ff"/><path d="m343.328 162.851-10.527-26.318v-9.608h-23.694v9.608l10.527 26.318c4.29 10.724 5.788 22.36 4.356 33.821l-4.896 39.173c-.941 7.532-4.367 14.535-9.734 19.902l-25.853 25.853h17.067c4.244 0 8.313-1.686 11.314-4.686l21.166-21.166c5.368-5.367 8.793-12.371 9.734-19.903l4.896-39.174c1.432-11.46-.067-23.096-4.356-33.82z" fill="#45afff"/><path d="m291.438 15.649c-.737-8.845-8.131-15.649-17.008-15.649h-23.694c8.876 0 16.271 6.804 17.008 15.649l7.229 86.751v10.802h23.694v-10.802z" fill="#b9385d"/><path d="m375.467 136.533h-238.933v-18.133c0-8.837 7.163-16 16-16h206.933c8.837 0 16 7.163 16 16z" fill="#ffe652"/><path d="m358.984 102.4h-23.578c9.103 0 16.483 7.38 16.483 16.483v17.65h23.578v-17.65c0-9.103-7.379-16.483-16.483-16.483z" fill="#f4c338"/><g><path d="m153.601 466.374v-125.037h17.066l33.134 16.838v108.199z" fill="#7a6d79"/><path d="m181.106 466.374h23.695v-108.199l-23.695-11.688z" fill="#554e56"/><path d="m221.867 512h-85.333v-43.2c0-4.418 3.582-8 8-8h69.333c4.418 0 8 3.582 8 8z" fill="#ffe652"/><path d="m290.134 475.706v36.294h84.333v-42.667c0-4.713-3.82-8.533-8.533-8.533h-13.669z" fill="#ffe652"/><path d="m351.773 454.634v-107.134l-10.439-6.163-34.133 6.163v107.134z" fill="#7a6d79"/><path d="m366.934 460.8h-14.669l-4.769 1.144c2.554 1.475 4.278 4.228 4.278 7.389v42.667h23.694v-42.667c-.001-4.713-3.821-8.533-8.534-8.533z" fill="#f4c338"/><path d="m213.626 460.8h-23.694c4.552 0 8.241 3.69 8.241 8.241v42.959h23.694v-42.959c0-4.551-3.689-8.241-8.241-8.241z" fill="#f4c338"/><path d="m317.566 345.628v109.006h34.207v-107.134l-10.439-6.163z" fill="#554e56"/></g><path d="m323.813 344.5 17.521-3.164.926-5.553 4.296-25.778c1.734-10.403-6.288-19.872-16.834-19.872h-147.442c-10.546 0-18.568 9.47-16.835 19.872l5.222 31.332 6.079 3.647c19.036 11.42 40.256 18.556 62.187 21.001h34.134c11.69-1.303 23.173-3.952 34.236-7.859z" fill="#b9385d"/><path d="m329.721 290.133h-23.694c10.546 0 18.568 9.47 16.835 19.872l-4.296 25.778-.926 5.554-6.079 3.647c-19.036 11.42-40.256 18.556-62.186 21.001h23.694c21.931-2.444 43.15-9.581 62.186-21.001l6.079-3.647.926-5.554 4.296-25.778c1.733-10.402-6.289-19.872-16.835-19.872z" fill="#9e2950"/><path d="m238.932 321.353c-19.885-7.029-34.132-25.994-34.132-48.286 0-28.277 22.923-51.2 51.2-51.2s50.2 22.923 50.2 51.2c0 22.292-13.247 41.257-33.132 48.286z" fill="#ffe652"/><path d="m256.001 221.867c-4.08 0-8.043.492-11.847 1.393 22.562 5.347 39.353 25.61 39.353 49.807 0 22.292-14.247 41.257-34.132 48.286h23.694c19.885-7.029 34.132-25.994 34.132-48.286 0-28.277-22.923-51.2-51.2-51.2z" fill="#f4c338"/><g><g><path d="m375.467 341.336c0-9.426-7.641-17.067-17.067-17.067s-17.067 7.641-17.067 17.067v34.13l4.831 17.067-4.831 17.067c0 18.821-15.312 34.133-34.133 34.133s-34.133-15.313-34.133-34.133v-111.74l-2.37-7.726 2.37-7.726v-9.34c0-9.426-7.641-17.067-17.067-17.067s-17.067 7.641-17.067 17.067v9.341l3.03 7.726-3.03 7.726v111.739c0 37.643 30.625 68.267 68.267 68.267s68.267-30.624 68.267-68.267l-11.847-17.067 11.847-17.067z" fill="#fbf3f3"/><g><g fill="#e8e3f0"><path d="m273.067 409.6v-111.74l-2.37-7.726 2.37-7.726v-9.34c0-9.426-7.641-17.067-17.067-17.067-4.605 0-8.777 1.833-11.847 4.798 3.213 3.104 5.22 7.448 5.22 12.269v136.532c0 18.821 15.312 34.133 34.133 34.133 4.164 0 8.154-.752 11.847-2.123-12.998-4.826-22.286-17.353-22.286-32.01z"/><path d="m375.467 375.467v-34.13c0-9.426-7.641-17.067-17.067-17.067-4.605 0-8.777 1.833-11.847 4.798 3.213 3.104 5.219 7.449 5.219 12.269v68.263c0 33.601-24.408 61.589-56.419 67.216 3.851.677 7.805 1.05 11.847 1.05 37.642 0 68.267-30.624 68.267-68.267l-11.847-17.067z"/></g></g><g><path d="m341.334 375.466h34.133v34.133h-34.133z" fill="#ffe652"/></g><g><path d="m351.773 375.467h23.694v34.133h-23.694z" fill="#f4c338"/></g><g><path d="m238.934 282.407v15.452h.01 34.123v-15.452h-34.123z" fill="#d3cbe4"/></g></g></g></g></svg>