<svg id="Capa_1" enable-background="new 0 0 512 512" height="512" viewBox="0 0 512 512" width="512" xmlns="http://www.w3.org/2000/svg"><g><path d="m158.057 51.2h195.886v34.133h-195.886z" fill="#fbf3f3"/><path d="m326.172 51.2h27.77v34.133h-27.77z" fill="#e8e3f0"/><path d="m315.733 69.073c-4.267 0-7.726 3.459-7.726 7.726v8.534h15.453v-8.533c0-4.267-3.459-7.727-7.727-7.727z" fill="#d3cbe4"/><path d="m196.266 69.073c-4.267 0-7.726 3.459-7.726 7.726v8.534h15.453v-8.533c0-4.267-3.459-7.727-7.727-7.727z" fill="#d3cbe4"/><path d="m158.057 162.133h195.886v34.133h-195.886z" fill="#fbf3f3"/><path d="m326.172 162.133h27.77v34.133h-27.77z" fill="#e8e3f0"/><path d="m315.733 180.007c-4.267 0-7.726 3.459-7.726 7.726v8.534h15.453v-8.534c0-4.267-3.459-7.726-7.727-7.726z" fill="#d3cbe4"/><path d="m196.266 180.007c-4.267 0-7.726 3.459-7.726 7.726v8.534h15.453v-8.534c0-4.267-3.459-7.726-7.727-7.726z" fill="#d3cbe4"/><path d="m158.057 273.067h195.886v34.133h-195.886z" fill="#fbf3f3"/><path d="m326.172 273.067h27.77v34.133h-27.77z" fill="#e8e3f0"/><path d="m315.733 290.94c-4.267 0-7.726 3.459-7.726 7.726v8.534h15.453v-8.534c0-4.267-3.459-7.726-7.727-7.726z" fill="#d3cbe4"/><path d="m196.266 290.94c-4.267 0-7.726 3.459-7.726 7.726v8.534h15.453v-8.534c0-4.267-3.459-7.726-7.727-7.726z" fill="#d3cbe4"/><path d="m158.057 384h195.886v34.133h-195.886z" fill="#fbf3f3"/><path d="m326.172 384h27.77v34.133h-27.77z" fill="#e8e3f0"/><path d="m315.733 401.873c-4.267 0-7.726 3.459-7.726 7.726v8.534h15.453v-8.533c0-4.268-3.459-7.727-7.727-7.727z" fill="#d3cbe4"/><path d="m196.266 401.873c-4.267 0-7.726 3.459-7.726 7.726v8.534h15.453v-8.533c0-4.268-3.459-7.727-7.727-7.727z" fill="#d3cbe4"/><path d="m392.533 472.272h-42.667v-464.272c0-4.418 3.582-8 8-8h26.667c4.418 0 8 3.582 8 8z" fill="#918291"/><path d="m384.292 0h-23.694c4.552 0 8.241 3.69 8.241 8.241v464.03h23.694v-464.03c0-4.551-3.69-8.241-8.241-8.241z" fill="#7a6d79"/><path d="m349.867 41.86h42.666v-15.453h-42.666z" fill="#554e56"/><path d="m349.867 434.393h42.666v-15.453h-42.666z" fill="#554e56"/><path d="m393.067 512h-43.733c-4.418 0-8-3.582-8-8v-35.2c0-4.418 3.582-8 8-8h43.733c4.418 0 8 3.582 8 8v35.2c0 4.418-3.582 8-8 8z" fill="#fbf3f3"/><path d="m392.825 460.8h-23.694c4.551 0 8.241 3.69 8.241 8.241v34.717c0 4.552-3.69 8.241-8.241 8.241h23.694c4.552 0 8.241-3.69 8.241-8.241v-34.717c.001-4.551-3.689-8.241-8.241-8.241z" fill="#e8e3f0"/><path d="m162.133 472.272h-42.667v-464.272c0-4.418 3.582-8 8-8h26.667c4.418 0 8 3.582 8 8z" fill="#918291"/><path d="m153.892 0h-23.694c4.552 0 8.241 3.69 8.241 8.241v464.03h23.694v-464.03c0-4.551-3.69-8.241-8.241-8.241z" fill="#7a6d79"/><path d="m119.467 41.86h42.666v-15.453h-42.666z" fill="#554e56"/><path d="m119.467 434.393h42.666v-15.453h-42.666z" fill="#554e56"/><path d="m162.667 512h-43.733c-4.418 0-8-3.582-8-8v-35.2c0-4.418 3.582-8 8-8h43.733c4.418 0 8 3.582 8 8v35.2c0 4.418-3.582 8-8 8z" fill="#fbf3f3"/><path d="m162.425 460.8h-23.694c4.551 0 8.241 3.69 8.241 8.241v34.717c0 4.552-3.69 8.241-8.241 8.241h23.694c4.552 0 8.242-3.69 8.242-8.241v-34.717c0-4.551-3.69-8.241-8.242-8.241z" fill="#e8e3f0"/></g></svg>