<svg id="Capa_1" enable-background="new 0 0 502 502" height="512" viewBox="0 0 502 502" width="512" xmlns="http://www.w3.org/2000/svg"><g><g><path d="m148.6 109.799v-15.971l6.557-32.755c1.305-6.519 3.874-12.72 7.562-18.252 7.362-11.042 18.743-18.775 31.72-21.551l19.649-4.203h73.822l19.649 4.203c12.978 2.776 24.359 10.509 31.721 21.551 3.688 5.532 6.257 11.733 7.562 18.252l6.557 32.755v15.971z" fill="#b9385d"/><path d="m346.843 61.074c-1.305-6.519-3.874-12.72-7.562-18.252-7.362-11.042-18.743-18.775-31.721-21.551l-19.649-4.204h-23.696l19.649 4.204c12.978 2.776 24.359 10.509 31.721 21.551 3.688 5.532 6.257 11.733 7.562 18.252l9.755 48.726h20.499v-15.971z" fill="#9e2950"/><path d="m80.334 467.866 170.666 34.134 170.667-34.133-.001-68.267c0-37.7-30.562-68.263-68.263-68.263h-204.805c-37.701 0-68.263 30.562-68.263 68.263z" fill="#f03747"/><path d="m397.971 399.599.001 73.006 23.694-4.739-.001-68.267c0-37.7-30.562-68.263-68.263-68.263h-23.694c37.701.001 68.263 30.563 68.263 68.263z" fill="#b9385d"/><path d="m421.667 467.866h-341.333l-.001.001v17.066c0 9.426 7.641 17.067 17.067 17.067h119.466l34.15-17.067 34.117 17.067h119.467c9.426 0 17.067-7.641 17.067-17.067z" fill="#fbf3f3"/><path d="m421.667 484.933v-17.066h-23.694v17.066c0 9.426-7.641 17.067-17.067 17.067h23.694c9.426 0 17.067-7.641 17.067-17.067z" fill="#e8e3f0"/><path d="m302.201 288.672c21.009 5.249 37.414 21.652 42.666 42.66l6.874 27.494c.97 3.88-.885 7.913-4.462 9.702l-20.379 10.189c-3.145 1.572-3.145 6.06 0 7.632l17.855 8.927c4.591 2.296 6.131 8.095 3.284 12.366l-62.906 94.358h-68.267l-62.904-94.357c-2.847-4.271-1.307-10.07 3.284-12.366l17.855-8.927c3.145-1.572 3.145-6.06 0-7.632l-20.378-10.189c-3.577-1.789-5.432-5.822-4.462-9.702l6.873-27.494c5.252-21.008 21.657-37.411 42.666-42.66h102.401z" fill="#b9385d"/><path d="m199.8 240.906v85.421c0 2.97.388 5.927 1.152 8.794.09.339 50.047 67.722 50.047 67.722s49.964-67.405 50.057-67.756c.759-2.857 1.143-5.801 1.143-8.76v-85.414z" fill="#ffcfc0"/><path d="m278.507 365.701c11.613-15.697 22.507-30.45 22.551-30.614.758-2.857 1.143-5.801 1.143-8.76v-85.414l-23.694-.001z" fill="#ffa98f"/><path d="m353.399 136.456c9.426 0 17.067 7.641 17.067 17.067v34.134c0 9.426-7.641 17.067-17.067 17.067h-204.799c-9.426 0-17.067-7.641-17.067-17.067v-34.134c0-9.426 7.641-17.067 17.067-17.067z" fill="#ffcfc0"/><path d="m353.399 136.456h-23.694c9.426 0 17.067 7.641 17.067 17.067v34.134c0 9.426-7.641 17.067-17.067 17.067h23.694c9.426 0 17.067-7.641 17.067-17.067v-34.134c0-9.427-7.641-17.067-17.067-17.067z" fill="#ffa98f"/><path d="m336.333 136.456v-35.953h-170.666l.001 104.222c0 47.128 38.204 85.332 85.332 85.332 9.64 0 18.897-1.622 27.539-4.569l11.145-12.493h12.511c20.727-15.568 34.137-40.352 34.137-68.27l-11.943-33.102z" fill="#ffcfc0"/><path d="m312.639 100.503-.001 104.223c0 43.105-31.968 78.725-73.485 84.495 3.874.538 7.825.837 11.847.837 47.128 0 85.332-38.204 85.332-85.332v-104.223z" fill="#ffa98f"/><g><g><path d="m216.867 186.849c-4.268 0-7.726-3.459-7.726-7.726v-8.533c0-4.267 3.459-7.726 7.726-7.726s7.726 3.459 7.726 7.726v8.533c0 4.266-3.458 7.726-7.726 7.726z" fill="#554e56"/></g></g><g><g><path d="m285.133 186.849c-4.268 0-7.726-3.459-7.726-7.726v-8.533c0-4.267 3.459-7.726 7.726-7.726 4.268 0 7.726 3.459 7.726 7.726v8.533c0 4.266-3.459 7.726-7.726 7.726z" fill="#554e56"/></g></g><g><g><path d="m251 229.518c-8.809 0-17.031-4.746-21.46-12.385-2.14-3.692-.881-8.42 2.811-10.559s8.42-.882 10.559 2.81c1.673 2.888 4.774 4.682 8.09 4.682 3.317 0 6.418-1.794 8.093-4.683 2.141-3.691 6.871-4.948 10.559-2.808 3.692 2.14 4.95 6.868 2.809 10.56-4.43 7.637-12.653 12.383-21.461 12.383z" fill="#f03747"/></g></g><path d="m285.909 26.21 2.003-9.143h.001l-.446-2.742c-1.345-8.259-8.479-14.325-16.846-14.325h-39.241c-8.367 0-15.501 6.066-16.845 14.324l-6.201 38.095h77.575z" fill="#f03747"/><path d="m287.466 14.325c-1.344-8.259-8.478-14.325-16.845-14.325h-23.694c8.367 0 15.501 6.066 16.845 14.325l6.202 38.095h23.694z" fill="#b9385d"/><path d="m302.2 100.502 5.67-27.091c1.665-7.955-2.504-15.978-9.975-19.18-9.862-4.227-23.445-10.048-33.455-14.338-8.586-3.68-18.3-3.677-26.886.002l-33.443 14.333c-7.471 3.202-11.647 11.228-9.982 19.183l5.67 27.091v10.412h102.399z" fill="#ffe652"/><g><path d="m255.266 75.993h-8.533c-4.268 0-7.726-3.459-7.726-7.726s3.459-7.726 7.726-7.726h8.533c4.268 0 7.726 3.459 7.726 7.726s-3.458 7.726-7.726 7.726z" fill="#918291"/></g><path d="m251 502 15.753-79.504 34.304-87.408c-12.466 13.418-30.297 21.851-50.057 21.851s-37.559-8.396-50.025-21.815c.09.337.163.678.264 1.012z" fill="#918291"/><path d="m288.121 378.267c-11.921 3.353-24.391 5.072-37.127 5.072-12.731 0-25.197-1.719-37.113-5.069l5.153 17.178c10.396 2.208 21.096 3.344 31.959 3.344 10.869 0 21.573-1.138 31.974-3.347z" fill="#7a6d79"/><path d="m297.896 54.231c-9.862-4.227-23.445-10.048-33.455-14.338-8.057-3.453-17.107-3.663-25.287-.635.535.198 1.066.409 1.593.635 10.01 4.29 23.593 10.111 33.455 14.338 7.471 3.202 11.64 11.225 9.975 19.18l-5.67 27.091v10.412h23.694v-10.412l5.67-27.091c1.665-7.955-2.504-15.978-9.975-19.18z" fill="#f4c338"/><g><g><path d="m251.001 136.533c-97.681 0-141.267-17.62-143.074-18.37-8.706-3.612-12.835-13.599-9.223-22.304s13.598-12.836 22.304-9.223c.308.123 40.217 15.764 129.993 15.764s129.684-15.641 130.077-15.798c8.706-3.615 18.65.533 22.263 9.24 3.612 8.705-.559 18.709-9.266 22.322-1.808.749-45.393 18.369-143.074 18.369z" fill="#f03747"/></g></g><path d="m403.34 95.842c-3.613-8.706-13.556-12.854-22.263-9.24-.158.063-6.728 2.637-20.376 5.689 7.768-1.479 15.747 2.645 18.9 10.245 3.612 8.705-.559 18.709-9.266 22.322-.173.072-.73.298-1.676.648 16.487-3.722 24.653-7.027 25.414-7.343 8.708-3.612 12.88-13.616 9.267-22.321z" fill="#b9385d"/></g><path d="m278.506 351.159-36.38 121.263 8.873 29.578 49.761-165.865c.1-.334.206-.712.296-1.048-6.295 6.776-13.962 12.276-22.552 16.065z" fill="#7a6d79"/></g></svg>