<svg id="Capa_1" enable-background="new 0 0 512 512" height="512" viewBox="0 0 512 512" width="512" xmlns="http://www.w3.org/2000/svg"><g><path d="m139.151 430.971v12.763c-17.569 0-32.268 13.336-33.972 30.822l-2.738 28.084c-.489 5.016 3.453 9.361 8.493 9.361h290.131c5.117 0 9.084-4.473 8.472-9.553l-3.451-28.661c-2.065-17.149-16.616-30.052-33.888-30.052v-12.763h-233.047z" fill="#b9385d"/><g fill="#9e2950"><g><path d="m213.867 477.867h-52.267c-4.418 0-8-3.582-8-8v-29.224h68.267v29.224c0 4.418-3.582 8-8 8z"/><path d="m350.4 477.867h-52.267c-4.418 0-8-3.582-8-8v-29.224h68.267v29.224c0 4.418-3.582 8-8 8z"/></g><path d="m409.538 502.447-3.451-28.661c-2.065-17.149-16.616-30.052-33.888-30.052v-12.763h-23.694v12.763c17.273 0 31.823 12.903 33.889 30.052l3.452 28.661c.612 5.081-3.355 9.553-8.472 9.553h23.694c5.115 0 9.081-4.473 8.47-9.553z"/><path d="m197.374 8.534h117.252v135.857h-117.252z"/></g><g><path d="m202.511 8.555c-2.949-5.108-8.455-8.555-14.778-8.555h-42.667c-4.713 0-8.533 3.821-8.533 8.533v25.6l17.067 17.067-17.067 17.067v56.049l65.978-8.849z" fill="#f03747"/><path d="m358.4 51.2 17.067-17.067v-25.6c0-4.713-3.82-8.533-8.533-8.533h-42.667c-9.426 0-17.067 7.641-17.067 17.067v98.094l68.267 9.156v-56.05z" fill="#f03747"/><g fill="#b9385d"><path d="m375.467 34.134v-25.6c0-4.713-3.82-8.533-8.533-8.533h-23.694c4.713 0 8.533 3.82 8.533 8.533v112.605l23.694 3.177v-56.049l-17.067-17.067z"/><path d="m187.733 0h-23.694c9.426 0 17.066 7.641 17.066 17.067v98.094l-44.572 5.978v3.178l68.267-9.155v-98.095c0-9.426-7.641-17.067-17.067-17.067z"/></g></g><path d="m272.067 111.556h-33.133v-52.356c0-4.418 3.582-8 8-8h17.133c4.418 0 8 3.582 8 8z" fill="#ffe652"/><path d="m136.533 34.133h25.6c4.713 0 8.533 3.82 8.533 8.533v17.067c0 4.713-3.82 8.533-8.533 8.533h-25.6z" fill="#9e2950"/><path d="m375.467 68.267h-25.6c-4.713 0-8.533-3.821-8.533-8.533v-17.067c0-4.713 3.82-8.533 8.533-8.533h25.6z" fill="#9e2950"/><path d="m264.825 51.2h-17.65c-1.068 0-2.085.21-3.022.58 3.055 1.206 5.22 4.178 5.22 7.662v52.114h23.694v-52.114c0-4.552-3.69-8.242-8.242-8.242z" fill="#f4c338"/><path d="m375.367 111.499-23.591-8.303c-3.405-.523-6.892-.795-10.443-.795h-170.666c-37.702 0-68.267 30.564-68.267 68.267v238.932c0 18.851 15.282 34.133 34.133 34.133h218.063l15.908-1.742 1.693 1.742h3.269c18.851 0 34.133-15.282 34.133-34.133v-238.933c.001-25.305-13.778-47.378-34.232-59.168z" fill="#f03747"/><path d="m341.333 102.4h-23.694c37.703 0 68.267 30.564 68.267 68.267v238.933c0 18.851-15.282 34.133-34.133 34.133h23.694c18.851 0 34.133-15.282 34.133-34.133v-238.933c0-37.703-30.564-68.267-68.267-68.267z" fill="#b9385d"/><g><g><path d="m102.4 290.134c-9.426 0-17.067 7.641-17.067 17.067s7.641 17.067 17.067 17.067h307.2c9.426 0 17.067-7.641 17.067-17.067s-7.641-17.067-17.067-17.067z" fill="#b9385d"/></g></g><path d="m284.133 392.533h-56.267c-3.314 0-6-2.686-6-6v-22.133c0-3.314 2.686-6 6-6h56.267c3.314 0 6 2.686 6 6v22.133c0 3.314-2.686 6-6 6z" fill="#fbf3f3"/><circle cx="256" cy="204.8" fill="#fbf3f3" r="51.2"/><path d="m256 153.6c-4.08 0-8.043.492-11.847 1.393 22.562 5.348 39.353 25.61 39.353 49.807s-16.791 44.46-39.353 49.807c3.804.902 7.767 1.393 11.847 1.393 28.277 0 51.2-22.923 51.2-51.2s-22.923-51.2-51.2-51.2z" fill="#e8e3f0"/><path d="m409.6 290.133h-23.694c9.426 0 17.067 7.641 17.067 17.067s-7.641 17.066-17.067 17.066h23.694c9.426 0 17.067-7.641 17.067-17.066s-7.641-17.067-17.067-17.067z" fill="#9e2950"/><path d="m283.952 358.4h-23.694c3.414 0 6.181 2.767 6.181 6.181v21.771c0 3.414-2.767 6.181-6.181 6.181h23.694c3.414 0 6.181-2.767 6.181-6.181v-21.771c0-3.413-2.767-6.181-6.181-6.181z" fill="#e8e3f0"/></g></svg>