<svg id="Capa_1" enable-background="new 0 0 512 512" height="512" viewBox="0 0 512 512" width="512" xmlns="http://www.w3.org/2000/svg"><g><path d="m198.4 426.667 22.98-12.256c4.697-2.505 5.979-8.652 2.675-12.826l-34.188-43.185-10.11 30.512z" fill="#8dd4ff"/><path d="m224.055 401.585-34.188-43.185-6.991 21.099 17.484 22.086c3.304 4.174 2.022 10.321-2.675 12.826l-4.225 2.253 4.939 10.003 22.98-12.256c4.698-2.505 5.98-8.653 2.676-12.826z" fill="#45afff"/><g><path d="m201.499 451.46-7.288-7.727 5.356-7.726-11.834-94.674v-10.943h-85.333v10.943l11.834 94.674 6.161 7.726-4.229 7.727 3.301 26.407v10.056h85.333v-10.056z" fill="#fbf3f3"/><path d="m201.499 451.46-7.288-7.727 5.356-7.726-11.834-94.674v-10.943h-23.694v10.943l17.067 136.534v10.056h23.694v-10.056z" fill="#e8e3f0"/></g><path d="m199.568 436.007h-85.334l1.932 15.453h85.333z" fill="#d3cbe4"/><path d="m230.933 512h-112c-4.418 0-8-3.582-8-8v-18.133c0-4.418 3.582-8 8-8h112c4.418 0 8 3.582 8 8v18.133c0 4.418-3.581 8-8 8z" fill="#8dd4ff"/><path d="m230.692 477.866h-23.694c4.552 0 8.241 3.69 8.241 8.242v17.65c0 4.552-3.69 8.241-8.241 8.241h23.694c4.552 0 8.241-3.69 8.241-8.241v-17.65c0-4.552-3.69-8.242-8.241-8.242z" fill="#45afff"/><path d="m85.333 278.56v45.707c0 9.426 7.641 17.067 17.067 17.067h85.333c9.426 0 17.067-7.641 17.067-17.067v-45.707z" fill="#918291"/><path d="m181.106 278.56v45.707c0 9.426-7.641 17.067-17.067 17.067h23.694c9.426 0 17.067-7.641 17.067-17.067v-45.707z" fill="#7a6d79"/><path d="m409.6 375.467-187.733-85.334-5.152-93.866 5.152-93.867 187.733-85.333 5.151 179.2z" fill="#fbf3f3"/><path d="m460.8 247.467c28.277 0 51.2-22.923 51.2-51.2s-22.923-51.2-51.2-51.2l-13.612 51.2z" fill="#fbf3f3"/><path d="m460.8 145.067-1.361 5.119c17.086 8.296 28.866 25.812 28.866 46.082s-11.78 37.785-28.866 46.081l1.361 5.118c28.277 0 51.2-22.923 51.2-51.2s-22.923-51.2-51.2-51.2z" fill="#e8e3f0"/><path d="m40.315 247.467h-23.248c-9.426 0-17.067-7.641-17.067-17.067v-68.266c0-9.426 7.641-17.067 17.067-17.067h23.248z" fill="#918291"/><path d="m221.867 290.133h-155.734c-17.673 0-32-14.327-32-32v-123.733c0-17.673 14.327-32 32-32h155.733v187.733z" fill="#8dd4ff"/><path d="m460.8 375.466c0 9.426-7.641 17.067-17.067 17.067h-17.067c-9.426 0-17.067-7.641-17.067-17.067v-358.4c.001-9.425 7.642-17.066 17.068-17.066h17.067c9.426 0 17.067 7.641 17.067 17.067z" fill="#8dd4ff"/><g fill="#45afff"><path d="m197.898 102.4h23.969v187.733h-23.969z"/><path d="m460.8 17.067c0-9.426-7.641-17.067-17.067-17.067h-17.067c-1.134 0-2.241.116-3.314.328 7.839 1.543 13.753 8.448 13.753 16.739v358.4c0 8.291-5.914 15.196-13.753 16.739 1.072.211 2.179.328 3.314.328h17.066c9.426 0 17.067-7.641 17.067-17.067z"/><path d="m77.607 102.4h15.453v187.733h-15.453z"/></g><path d="m367.74 356.44 15.453 7.023v-334.393l-15.453 7.024z" fill="#e8e3f0"/></g></svg>