<svg id="Capa_1" enable-background="new 0 0 512 512" height="512" viewBox="0 0 512 512" width="512" xmlns="http://www.w3.org/2000/svg"><g><path d="m307.733 51.2h-103.466c-4.418 0-8-3.582-8-8v-35.2c0-4.418 3.582-8 8-8h103.467c4.418 0 8 3.582 8 8v35.2c-.001 4.418-3.582 8-8.001 8z" fill="#c0ed6b"/><path d="m452.559 85.334h-393.117c-4.552 0-8.241 3.69-8.241 8.241v410.184c0 4.552 3.69 8.241 8.241 8.241h25.892l170.666-17.067 170.667 17.067h25.892c4.552 0 8.242-3.69 8.242-8.241v-410.184c-.001-4.552-3.691-8.241-8.242-8.241z" fill="#fbf3f3"/><path d="m418.425 119.467h-154.699l-7.726 3.717-7.726-3.717h-154.699c-4.552 0-8.241 3.69-8.241 8.242v384.291h136.533l34.133-17.067 34.133 17.067h136.533v-384.292c.001-4.551-3.689-8.241-8.241-8.241z" fill="#f03747"/><path d="m298.133 273.067h35.2c4.418 0 8-3.582 8-8v-103.467c0-4.418-3.582-8-8-8h-35.2c-4.418 0-8 3.582-8 8v103.467c0 4.418 3.582 8 8 8z" fill="#8dd4ff"/><g><path d="m192.885 358.4h-65.418c-4.418 0-8-3.582-8-8v-18.133c0-4.418 3.582-8 8-8h65.418z" fill="#fbf3f3"/><path d="m164.039 324.267h28.845v34.133h-28.845z" fill="#e8e3f0"/><path d="m319.115 324.267h65.418c4.418 0 8 3.582 8 8v18.133c0 4.418-3.582 8-8 8h-65.418z" fill="#fbf3f3"/><path d="m195.733 375.467h18.133c4.418 0 8-3.582 8-8v-52.267c0-4.418-3.582-8-8-8h-18.133c-4.418 0-8 3.582-8 8v52.267c0 4.418 3.582 8 8 8z" fill="#ffe652"/><path d="m316.267 307.2h-18.133c-4.418 0-8 3.582-8 8v52.267c0 4.418 3.582 8 8 8h18.133c4.418 0 8-3.582 8-8v-52.267c0-4.418-3.582-8-8-8z" fill="#ffe652"/><path d="m384.292 324.267h-23.694c4.552 0 8.241 3.69 8.241 8.241v17.65c0 4.552-3.69 8.242-8.241 8.242h23.694c4.552 0 8.241-3.69 8.241-8.242v-17.65c0-4.551-3.689-8.241-8.241-8.241z" fill="#e8e3f0"/><g fill="#f4c338"><path d="m316.025 307.2h-17.651c-1.068 0-2.085.21-3.022.58 3.055 1.206 5.22 4.178 5.22 7.662v51.784c0 3.484-2.165 6.456-5.22 7.662.936.37 1.954.58 3.022.58h17.651c4.552 0 8.241-3.69 8.241-8.241v-51.784c.001-4.553-3.689-8.243-8.241-8.243z"/><path d="m213.625 307.2h-17.65c-1.068 0-2.085.21-3.022.58 3.055 1.206 5.219 4.178 5.219 7.662v51.784c0 3.484-2.165 6.456-5.219 7.662.937.37 1.954.58 3.022.58h17.65c4.552 0 8.241-3.69 8.241-8.241v-51.784c.001-4.553-3.689-8.243-8.241-8.243z"/></g></g><path d="m333.092 153.6h-23.694c4.552 0 8.241 3.69 8.241 8.241v102.984c0 4.552-3.69 8.241-8.241 8.241h23.694c4.552 0 8.242-3.69 8.242-8.241v-102.983c-.001-4.552-3.691-8.242-8.242-8.242z" fill="#45afff"/><path d="m178.667 273.067h35.2c4.418 0 8-3.582 8-8v-103.467c0-4.418-3.582-8-8-8h-35.2c-4.418 0-8 3.582-8 8v103.467c0 4.418 3.581 8 8 8z" fill="#8dd4ff"/><path d="m213.625 153.6h-23.694c4.552 0 8.241 3.69 8.241 8.241v102.984c0 4.552-3.69 8.241-8.241 8.241h23.694c4.552 0 8.241-3.69 8.241-8.241v-102.983c.001-4.552-3.689-8.242-8.241-8.242z" fill="#45afff"/><path d="m452.559 85.334h-23.694c4.552 0 8.241 3.69 8.241 8.241v410.184c0 4.552-3.69 8.241-8.241 8.241h23.694c4.552 0 8.242-3.69 8.242-8.241v-410.184c-.001-4.552-3.691-8.241-8.242-8.241z" fill="#e8e3f0"/><path d="m307.492 0h-23.694c4.552 0 8.241 3.69 8.241 8.241v34.717c0 4.552-3.69 8.242-8.241 8.242h23.694c4.552 0 8.241-3.69 8.241-8.242v-34.717c0-4.551-3.689-8.241-8.241-8.241z" fill="#95cf53"/><path d="m418.425 119.467h-23.694c4.552 0 8.241 3.69 8.241 8.241v384.292h23.694v-384.292c.001-4.551-3.689-8.241-8.241-8.241z" fill="#b9385d"/><path d="m426.667 436.007h-.001-341.332-.001v15.453h.001 341.332.001z" fill="#b9385d"/><path d="m248.274 119.467h15.453v363.938h-15.453z" fill="#9e2950"/><path d="m282.133 477.867h-18.407l-7.726 3.417-7.726-3.418h-18.407c-4.418 0-8 3.582-8 8v26.134h26.407l7.726-2.642 7.726 2.642h26.407v-26.133c0-4.419-3.581-8-8-8z" fill="#fbf3f3"/><path d="m281.892 477.867h-23.694c4.552 0 8.241 3.69 8.241 8.241v25.892h23.694v-25.892c0-4.552-3.689-8.241-8.241-8.241z" fill="#e8e3f0"/><path d="m248.274 477.867h15.453v34.133h-15.453z" fill="#d3cbe4"/></g></svg>