<svg id="Capa_1" enable-background="new 0 0 512 512" height="512" viewBox="0 0 512 512" width="512" xmlns="http://www.w3.org/2000/svg"><g><path d="m267.807 34.133 5.26-7.726v-26.407h-34.134v26.407l3.278 7.726-3.278 7.727v26.407h34.134v-26.407z" fill="#7a6d79"/><path d="m273.067 26.407v-26.407h-23.694v68.267h23.694v-26.407l-5.26-7.727z" fill="#554e56"/><g><path d="m392.533 320.885v-31.291c0-10.159-4.476-19.717-12.28-26.222l-22.283-18.569h-203.94l-22.283 18.569c-7.804 6.505-12.28 16.062-12.28 26.222v31.291h34.133v-27.294c0-2.533 1.125-4.934 3.07-6.556l19.39-16.158h159.88l19.39 16.158c1.946 1.621 3.071 4.023 3.071 6.556v27.294z" fill="#e8e3f0"/><path d="m380.253 263.372-22.283-18.569h-23.694l22.283 18.569c7.804 6.505 12.28 16.062 12.28 26.222v31.291h23.694v-31.291c0-10.159-4.476-19.717-12.28-26.222z" fill="#d3cbe4"/><path d="m154.133 349.867h-35.733c-8.836 0-16-7.163-16-16v-2.133c0-8.837 7.164-16 16-16h35.733c4.418 0 8 3.582 8 8v18.133c0 4.418-3.581 8-8 8z" fill="#7a6d79"/><path d="m357.867 349.867h35.733c8.837 0 16-7.163 16-16v-2.133c0-8.837-7.163-16-16-16h-35.733c-4.418 0-8 3.582-8 8v18.133c0 4.418 3.581 8 8 8z" fill="#7a6d79"/><path d="m393.117 315.733h-23.694c9.103 0 16.483 7.38 16.483 16.483v1.168c0 9.103-7.38 16.483-16.483 16.483h23.694c9.103 0 16.483-7.38 16.483-16.483v-1.168c0-9.103-7.38-16.483-16.483-16.483z" fill="#554e56"/></g><path d="m443.733 477.867h-.034c-1.079 0-1.857-1.005-1.621-2.058 1.084-4.829 1.655-9.853 1.655-15.009 0-34.258-25.241-61.569-58.136-66.432-.914-.135-1.597-.905-1.597-1.828v-.006c0-18.851-15.282-34.133-34.133-34.133-4.005 0-7.848.691-11.417 1.959-2.03.721-4.285.122-5.712-1.492-11.699-13.232-26.767-23.416-43.861-29.208-1.483-.502-2.531-1.832-2.723-3.385l-4.554-36.755v-11.281h-51.2v11.281l-4.554 36.755c-.192 1.553-1.241 2.883-2.723 3.385-17.094 5.792-32.162 15.976-43.861 29.207-1.427 1.614-3.682 2.213-5.712 1.492-3.57-1.268-7.413-1.959-11.417-1.959-18.851 0-34.133 15.282-34.133 34.133v.006c0 .924-.683 1.693-1.597 1.828-32.896 4.863-58.136 32.174-58.136 66.432 0 5.284.6 10.427 1.736 15.366.2.87-.444 1.701-1.337 1.701-8.596 0-16.649 6.965-17.399 15.529-.885 10.119 7.066 18.605 17 18.605h375.019c9.566 0 17.69-7.828 17.511-17.393-.174-9.275-7.747-16.74-17.064-16.74z" fill="#8dd4ff"/><path d="m443.733 477.867h-.034c-1.079 0-1.857-1.005-1.621-2.058 1.084-4.829 1.655-9.853 1.655-15.009 0-34.258-25.241-61.569-58.136-66.432-.914-.135-1.597-.905-1.597-1.828v-.006c0-18.851-15.282-34.133-34.133-34.133-4.005 0-7.848.691-11.417 1.959-2.03.721-4.285.122-5.712-1.492-11.699-13.232-26.767-23.416-43.861-29.208-1.483-.502-2.531-1.832-2.723-3.385l-4.554-36.755v-11.281h-23.694v11.281l4.812 38.682c.193 1.553 1.242 2.882 2.724 3.385 17.094 5.792 32.161 15.976 43.861 29.208 1.427 1.614 3.682 2.213 5.712 1.492 3.57-1.268 7.413-1.959 11.417-1.959 18.852 0 34.133 15.282 34.133 34.133v.006c0 .923.683 1.693 1.596 1.828 32.896 4.862 57.879 30.246 57.879 64.505 0 5.156-.572 10.179-1.655 15.009-.236 1.053.542 2.058 1.621 2.058h.034c9.317 0 16.89 7.465 17.064 16.741.179 9.564-7.945 17.393-17.511 17.393h23.694c9.566 0 17.69-7.828 17.511-17.393-.175-9.276-7.748-16.741-17.065-16.741z" fill="#45afff"/><g><g><g><path d="m375.467 485.593h82.535c-3.049-4.648-8.294-7.726-14.269-7.726h-.034c-1.079 0-1.857-1.005-1.621-2.058.417-1.859.734-3.755.995-5.669h-67.607c-4.268 0-7.726 3.459-7.726 7.726 0 4.268 3.459 7.727 7.727 7.727z" fill="#45afff"/></g><g><path d="m68.927 470.14c.279 2.036.622 4.051 1.076 6.025.2.87-.444 1.701-1.337 1.701-5.739 0-11.224 3.114-14.467 7.726h82.266c4.268 0 7.726-3.459 7.726-7.726s-3.459-7.726-7.726-7.726z" fill="#45afff"/></g></g></g><path d="m298.464 101.59-5.099-20.396c-1.899-7.597-8.726-12.927-16.557-12.927h-41.616c-7.831 0-14.658 5.33-16.557 12.927l-5.099 20.396v13.616h84.928z" fill="#e8e3f0"/><path d="m293.365 81.194c-1.899-7.598-8.726-12.927-16.557-12.927h-23.694c7.831 0 14.658 5.33 16.557 12.927l5.099 20.396v13.616h23.694v-13.616z" fill="#d3cbe4"/><path d="m364.739 200.168-.65-3.901-17.541-25.599 6.985-25.601c-9.414-22.276-29.526-38.835-54.052-43.294-.372-.068-.745-.124-1.118-.19l-45.528-3.444-8.682.012c-10.593.517-21.16 1.719-31.634 3.623-24.526 4.459-44.639 21.019-54.052 43.294l3.666 26.392-14.222 24.808-.65 3.901c-1.451 8.705-1.307 17.601.423 26.254 3.076 15.378 11.01 29.251 22.487 39.66h171.657c11.478-10.409 19.411-24.283 22.487-39.66 1.731-8.655 1.875-17.551.424-26.255z" fill="#fbf3f3"/><g><g><g><path d="m315.738 15.453h-119.475c-4.267 0-7.726-3.459-7.726-7.726s3.459-7.727 7.726-7.727h119.475c4.267 0 7.726 3.459 7.726 7.726s-3.459 7.727-7.726 7.727z" fill="#918291"/></g></g><path d="m196.263 0h-25.596l-18.186 2.641-15.948-2.641h-127.995c-5.552 0-9.625 5.217-8.279 10.603l2.651 10.603c1.899 7.598 8.726 12.927 16.557 12.927h108.533l22.439-3.422 11.694 3.422h23.2c7.831 0 14.658-5.33 16.557-12.927l2.651-10.603c1.347-5.386-2.727-10.603-8.278-10.603z" fill="#fbf3f3"/><path d="m136.533 0-8.533 34.133h34.133l8.534-34.133z" fill="#c0ed6b"/><path d="m503.462 0h-127.995l-14.757 4.853-19.377-4.853h-25.596c-5.552 0-9.625 5.217-8.279 10.603l2.651 10.603c1.9 7.598 8.726 12.927 16.557 12.927h23.2l15.863-3.422 18.271 3.423h108.533c7.831 0 14.658-5.33 16.557-12.927l2.651-10.603c1.346-5.387-2.727-10.604-8.279-10.604z" fill="#fbf3f3"/><path d="m375.467 0 8.533 34.133h-34.133l-8.534-34.133z" fill="#c0ed6b"/><path d="m503.462 0h-23.694c5.551 0 9.625 5.217 8.279 10.603l-2.651 10.603c-1.899 7.598-8.726 12.927-16.557 12.927h23.694c7.831 0 14.658-5.33 16.557-12.927l2.651-10.603c1.346-5.386-2.727-10.603-8.279-10.603z" fill="#e8e3f0"/></g><path d="m238.933 26.407h34.133v15.453h-34.133z" fill="#c0ed6b"/><path d="m364.089 196.267-17.541-25.599 6.985-25.601c-9.414-22.275-29.526-38.835-54.052-43.294-18.278-3.323-36.841-4.525-55.328-3.623 10.593.517 21.16 1.719 31.634 3.623 30.227 5.496 53.754 29.371 58.805 59.676l6.453 38.719c1.451 8.705 1.307 17.601-.423 26.254-3.076 15.378-11.009 29.251-22.487 39.66h23.694c11.477-10.409 19.411-24.283 22.487-39.66 1.731-8.653 1.874-17.549.423-26.254z" fill="#e8e3f0"/><path d="m364.089 196.267-5.803-34.818c-.953-5.717-2.565-11.203-4.753-16.382-64.898-5.678-130.168-5.678-195.065 0-2.189 5.179-3.8 10.666-4.753 16.382l-5.803 34.818c71.947 5.68 144.23 5.68 216.177 0z" fill="#8dd4ff"/><path d="m353.533 145.067c-8.17-.715-16.345-1.339-24.525-1.873 2.611 5.723 4.516 11.843 5.584 18.255l6.075 36.453c7.81-.482 15.618-1.019 23.422-1.635l-5.803-34.818c-.953-5.717-2.565-11.203-4.753-16.382z" fill="#45afff"/><g><g><path d="m256 208.253c-4.267 0-7.726-3.459-7.726-7.726v-59.718c0-4.267 3.459-7.726 7.726-7.726s7.726 3.459 7.726 7.726v59.718c0 4.267-3.459 7.726-7.726 7.726z" fill="#fbf3f3"/></g></g><path d="m256 238.933c-35.944 0-67.557 10.805-85.829 27.149 2.658 2.41 5.505 4.636 8.527 6.65l7.756 5.171c11.963 7.975 26.018 12.231 40.395 12.231h39.912l9.495-.739 5.419.739h3.475c14.377 0 28.432-4.256 40.395-12.231l7.756-5.171c3.022-2.014 5.869-4.24 8.527-6.65-18.271-16.343-49.884-27.149-85.828-27.149z" fill="#c0ed6b"/><path d="m325.546 277.903 7.756-5.171c3.022-2.014 5.869-4.24 8.527-6.65-4.146-3.709-8.986-7.128-14.401-10.205-4.901 6.524-10.902 12.243-17.82 16.855l-7.756 5.171c-11.962 7.975-26.018 12.231-40.395 12.231h23.694c14.377 0 28.433-4.256 40.395-12.231z" fill="#95cf53"/></g></svg>