<svg id="Capa_1" enable-background="new 0 0 512 512" height="512" viewBox="0 0 512 512" width="512" xmlns="http://www.w3.org/2000/svg"><g><path d="m398.91 377.496-22.361-238.52c-1.62-17.279-16.124-30.487-33.479-30.487h-174.14c-17.355 0-31.859 13.208-33.479 30.487l-22.361 238.52v12.65h285.82z" fill="#f03747"/><path d="m376.549 138.977c-1.62-17.279-16.124-30.487-33.479-30.487h-23.286c17.355 0 31.859 13.208 33.479 30.487l22.361 238.52v12.65h23.286v-12.65z" fill="#b9385d"/><g><path d="m306.439 176.776c-1.629.596-3.17 1.435-4.557 2.516l-5.727 4.463-16.549 23.876h-47.56l-16.201-24.177-5.801-4.35c-1.372-1.029-2.887-1.826-4.483-2.391l-15.881 49.435 15.881 49.436c1.629-.596 3.17-1.435 4.557-2.516l5.727-4.463 12.788-23.763h55.046l12.476 24.064 5.8 4.35c1.372 1.029 2.887 1.826 4.484 2.391l20.025-49.435z" fill="#e8e3f0"/><path d="m339.065 259.806v-67.252c0-9.286-7.527-16.813-16.813-16.813h-10.036c-1.986 0-3.938.361-5.777 1.035v98.871c1.79.633 3.682.971 5.604.971h10.209c9.285.001 16.813-7.527 16.813-16.812z" fill="#ffe652"/><path d="m199.784 276.619c1.986 0 3.938-.361 5.777-1.035v-98.871c-1.79-.633-3.682-.972-5.604-.972h-11.209c-9.285 0-16.813 7.527-16.813 16.813v67.252c0 9.285 7.527 16.813 16.813 16.813z" fill="#ffe652"/><path d="m323.252 175.741h-11.036c-1.986 0-3.938.361-5.777 1.035v.281c6.042 2.549 10.284 8.527 10.284 15.497v67.252c0 6.97-4.242 12.948-10.284 15.497v.344c1.79.633 3.682.971 5.604.971h11.209c9.285 0 16.813-7.527 16.813-16.813v-67.252c0-9.285-7.528-16.812-16.813-16.812z" fill="#f4c338"/><path d="m296.155 183.755-23.342 18.189-33.626-.984-23.342-17.506v85.151l23.342-18.189 33.626.983 23.342 17.507z" fill="#d3cbe4"/><path d="m270.606 209.367 2.207-7.611v-18.014c0-4.418-3.582-8-8-8h-17.626c-4.418 0-8 3.582-8 8v18.014l2.354 7.611-2.354 7.612v135.627h33.626v-135.628z" fill="#fbf3f3"/><path d="m239.187 216.978h33.626v-15.223h-33.626z" fill="#e8e3f0"/></g><path d="m313.845 386.124h-116.69v-34.254c0-4.418 3.582-8 8-8h100.691c4.418 0 8 3.582 8 8v34.254z" fill="#7a6d79"/><path d="m306.726 343.871h-23.342c4.484 0 8.119 3.635 8.119 8.119v34.135h23.342v-34.135c0-4.485-3.635-8.119-8.119-8.119z" fill="#554e56"/><path d="m440.942 411.122-12.166-24.332c-2.848-5.696-8.67-9.294-15.038-9.294h-315.476c-6.368 0-12.19 3.598-15.038 9.294l-12.166 24.332v15.224h369.885v-15.224z" fill="#fbf3f3"/><path d="m428.776 386.79c-2.848-5.696-8.67-9.294-15.038-9.294h-23.342c6.368 0 12.19 3.598 15.038 9.294l12.166 24.332v15.224h23.342v-15.224z" fill="#e8e3f0"/><g><g><g><path d="m256 48.849c-4.204 0-7.611-3.408-7.611-7.611v-33.627c0-4.203 3.407-7.611 7.611-7.611s7.612 3.408 7.612 7.611v33.626c0 4.204-3.408 7.612-7.612 7.612z" fill="#8dd4ff"/></g><g><path d="m155.129 75.881c-2.63 0-5.189-1.365-6.599-3.807l-16.813-29.121c-2.102-3.64-.855-8.296 2.786-10.397 3.64-2.103 8.295-.855 10.397 2.786l16.813 29.121c2.102 3.64.855 8.296-2.786 10.397-1.198.691-2.506 1.021-3.798 1.021z" fill="#8dd4ff"/></g><g><path d="m356.871 75.881c-1.291 0-2.6-.329-3.799-1.021-3.64-2.102-4.888-6.757-2.786-10.397l16.813-29.121c2.101-3.641 6.755-4.889 10.397-2.786 3.64 2.102 4.888 6.757 2.786 10.397l-16.812 29.12c-1.41 2.442-3.969 3.808-6.599 3.808z" fill="#8dd4ff"/></g></g></g><path d="m449.637 411.122h-8.694l-3.011.715-10.569-.715h-70.485l-98.597 8.073-69.533-8.073h-126.384c-4.484 0-8.119 3.635-8.119 8.119v84.64c0 4.484 3.635 8.119 8.119 8.119h92.759l86.623-4.539 81.506 4.539h126.385c4.484 0 8.119-3.635 8.119-8.119v-84.64c-.001-4.484-3.636-8.119-8.119-8.119z" fill="#ffe652"/><path d="m323.252 512 11.208-33.626 11.209-33.626 11.209-33.626h-168.13l-11.208 33.626-11.209 33.626-11.209 33.626z" fill="#7a6d79"/><path d="m449.637 411.122h-23.342c4.484 0 8.119 3.635 8.119 8.119v84.64c0 4.484-3.635 8.119-8.119 8.119h23.342c4.484 0 8.119-3.635 8.119-8.119v-84.64c-.001-4.484-3.635-8.119-8.119-8.119z" fill="#f4c338"/><path d="m333.536 411.122-11.209 33.626-11.208 33.626-11.209 33.626h23.342l11.208-33.626 11.209-33.626 11.209-33.626z" fill="#554e56"/><path d="m466.568 478.374h-421.136c-4.418 0-8-3.582-8-8v-17.626c0-4.418 3.582-8 8-8h421.137c4.418 0 8 3.582 8 8v17.626c-.001 4.418-3.582 8-8.001 8z" fill="#fbf3f3"/><path d="m466.449 444.748h-23.342c4.484 0 8.119 3.635 8.119 8.119v17.388c0 4.484-3.635 8.119-8.119 8.119h23.342c4.484 0 8.119-3.635 8.119-8.119v-17.388c0-4.484-3.635-8.119-8.119-8.119z" fill="#e8e3f0"/></g></svg>