<svg id="Capa_1" enable-background="new 0 0 512 512" height="512" viewBox="0 0 512 512" width="512" xmlns="http://www.w3.org/2000/svg"><g><path d="m443.733 477.867h-.034c-1.079 0-1.857-1.005-1.621-2.058 1.084-4.829 1.655-9.852 1.655-15.009 0-34.258-25.241-61.569-58.136-66.432-.914-.135-1.597-.905-1.597-1.829v-.006c0-18.851-15.282-34.133-34.133-34.133-4.005 0-7.848.691-11.417 1.959-2.03.721-4.285.122-5.712-1.492-11.699-13.232-26.767-23.416-43.861-29.208-1.482-.502-2.531-1.831-2.723-3.385l-4.554-36.754v-11.281h-51.2v11.281l-4.554 36.755c-.193 1.553-1.241 2.882-2.723 3.385-17.094 5.792-32.162 15.976-43.861 29.207-1.427 1.614-3.682 2.213-5.712 1.492-3.57-1.268-7.413-1.959-11.417-1.959-18.851 0-34.133 15.282-34.133 34.133v.006c0 .924-.683 1.693-1.597 1.829-32.896 4.863-58.136 32.174-58.136 66.432 0 5.284.6 10.427 1.736 15.366.2.87-.444 1.701-1.337 1.701-8.597 0-16.65 6.966-17.399 15.529-.885 10.118 7.066 18.604 17 18.604h375.019c9.566 0 17.69-7.828 17.511-17.393-.174-9.275-7.747-16.74-17.064-16.74z" fill="#8dd4ff"/><path d="m443.733 477.867h-.034c-1.079 0-1.857-1.005-1.621-2.058 1.084-4.829 1.655-9.852 1.655-15.009 0-34.258-25.241-61.569-58.136-66.432-.914-.135-1.597-.905-1.597-1.829v-.006c0-18.851-15.282-34.133-34.133-34.133-4.005 0-7.848.691-11.417 1.959-2.03.721-4.285.122-5.712-1.492-11.699-13.232-26.767-23.416-43.861-29.208-1.482-.502-2.531-1.831-2.723-3.385l-4.554-36.754v-11.281h-23.694v11.281l4.812 38.682c.193 1.553 1.242 2.882 2.724 3.385 17.094 5.792 32.161 15.976 43.861 29.208 1.427 1.614 3.682 2.213 5.712 1.492 3.57-1.268 7.413-1.959 11.417-1.959 18.852 0 34.133 15.282 34.133 34.133v.006c0 .923.683 1.693 1.595 1.828 32.897 4.862 57.879 30.247 57.879 64.505 0 5.156-.572 10.179-1.655 15.009-.236 1.053.542 2.058 1.621 2.058h.034c9.317 0 16.89 7.465 17.064 16.741.179 9.564-7.945 17.393-17.511 17.393h23.694c9.566 0 17.69-7.828 17.511-17.393-.174-9.276-7.747-16.741-17.064-16.741z" fill="#45afff"/><g><g><g><path d="m375.467 485.593h82.535c-3.049-4.648-8.294-7.726-14.269-7.726h-.034c-1.079 0-1.857-1.005-1.621-2.058.417-1.859.734-3.755.995-5.669h-67.607c-4.268 0-7.726 3.459-7.726 7.726 0 4.268 3.459 7.727 7.727 7.727z" fill="#45afff"/></g><g><path d="m68.927 470.141c.279 2.036.622 4.051 1.076 6.025.2.87-.444 1.701-1.337 1.701-5.74 0-11.224 3.114-14.467 7.726h82.266c4.268 0 7.726-3.459 7.726-7.726s-3.459-7.726-7.726-7.726z" fill="#45afff"/></g></g></g><g><path d="m351.682 221.867 145.058-15.442c8.677-.924 15.26-8.245 15.26-16.971v-16.648c0-4.713-3.82-8.533-8.533-8.533h-165.262-164.409-165.263c-4.713 0-8.533 3.82-8.533 8.533v16.648c0 8.726 6.583 16.047 15.26 16.971l145.058 15.442z" fill="#c0ed6b"/><path d="m503.467 164.273h-23.694c4.713 0 8.533 3.821 8.533 8.533v19.222c0 8.353-6.037 15.402-14.164 16.802l22.598-2.406c8.677-.924 15.26-8.245 15.26-16.971v-16.648c0-4.712-3.82-8.532-8.533-8.532z" fill="#95cf53"/><path d="m277.943 68.267h54.857c4.713 0 8.533-3.82 8.533-8.533v-17.067c0-4.713-3.82-8.533-8.533-8.533h-57.295-39.01-57.295c-4.713 0-8.533 3.82-8.533 8.533v17.067c0 4.713 3.82 8.533 8.533 8.533h54.857z" fill="#95cf53"/><path d="m275.881 84.954 2.729-7.347-.667-9.34-4.374-16.258 1.936-17.876-1.306-18.282c-.638-8.931-8.069-15.851-17.023-15.851h-2.351c-8.954 0-16.385 6.919-17.023 15.851l-4.411 61.757 2.197 8.09-3.301 7.363-1.821 25.489v17.978h51.071v-17.956l-1.822-25.512z" fill="#c0ed6b"/><ellipse cx="85.333" cy="238.934" fill="#7a6d79" rx="34.133" ry="34.133" transform="matrix(.391 -.921 .921 .391 -167.948 224.113)"/><ellipse cx="426.667" cy="238.934" fill="#7a6d79" rx="34.133" ry="34.133" transform="matrix(.921 -.391 .391 .921 -59.443 185.729)"/><path d="m332.8 34.134h-23.694c4.713 0 8.533 3.82 8.533 8.533v17.067c0 4.713-3.821 8.533-8.533 8.533h23.694c4.713 0 8.533-3.82 8.533-8.533v-17.067c0-4.713-3.82-8.533-8.533-8.533z" fill="#73b537"/><path d="m275.881 84.954 2.729-7.347-4.411-61.756c-.638-8.931-8.069-15.851-17.023-15.851h-2.351c-4.028 0-7.74 1.409-10.672 3.762 3.586 2.879 6.001 7.175 6.352 12.089l7.337 102.721v17.956h23.694v-17.956l-1.822-25.512z" fill="#95cf53"/><path d="m232.286 93.06h47.428l-1.104-15.453h-45.22z" fill="#73b537"/><path d="m351.682 221.867-14.425-27.894.948-29.699c-7.983-15.291-20.241-28.201-35.584-36.968-6.658-3.805-13.743-6.729-21.076-8.744l-.008.01-25.142-2.664h-12.241c-12.207 1.41-24.042 5.266-34.773 11.398-24.426 13.958-41.04 38.411-45.019 66.261l-6.732 47.127c-2.333 16.33 7.347 31.992 22.996 37.209 2.891.964 5.796 1.866 8.713 2.715h133.323c2.917-.85 5.822-1.752 8.713-2.715 15.65-5.216 25.329-20.879 22.996-37.209z" fill="#fbf3f3"/><path d="m298.663 196.267h-85.325c-5.552 0-9.625-5.217-8.279-10.603l4.266-17.067c.95-3.799 4.363-6.464 8.279-6.464h76.792c3.916 0 7.329 2.665 8.279 6.464l4.267 17.067c1.346 5.386-2.728 10.603-8.279 10.603z" fill="#8dd4ff"/><path d="m354.371 240.693-6.732-47.127c-3.979-27.85-20.592-52.303-45.018-66.261-13.775-7.871-29.366-12.012-45.231-12.012h-2.78c-3.505 0-6.995.214-10.457.614 12.207 1.41 24.042 5.266 34.773 11.398 24.426 13.958 41.04 38.411 45.018 66.261l6.732 47.127c2.333 16.33-7.347 31.992-22.996 37.209-2.893.964-5.801 1.865-8.721 2.715h23.664c2.929-.853 5.848-1.748 8.75-2.715 15.652-5.217 25.331-20.879 22.998-37.209z" fill="#e8e3f0"/><path d="m306.941 185.664-4.267-17.067c-.95-3.799-4.363-6.464-8.279-6.464h-23.694c3.916 0 7.329 2.665 8.279 6.464l4.267 17.067c1.346 5.386-2.727 10.603-8.279 10.603h23.694c5.552 0 9.626-5.217 8.279-10.603z" fill="#45afff"/><path d="m258.334 290.108 23.266-1.361c13.84-1.495 27.582-4.203 41.062-8.13-6.727-28.718-34.009-50.217-66.662-50.217s-59.935 21.498-66.662 50.217c22.522 6.561 45.771 9.719 68.996 9.491z" fill="#c0ed6b"/><path d="m307.681 277.902c-20.667 6.889-42.043 10.856-63.528 11.925.016.001.033.003.049.004 26.357 1.306 52.878-1.761 78.46-9.214-.772-3.295-1.826-6.489-3.116-9.572-3.368 2.993-7.368 5.358-11.865 6.857z" fill="#95cf53"/><g fill="#554e56"><path d="m426.667 204.8c-4.166 0-8.156.749-11.847 2.115 13.011 4.816 22.286 17.333 22.286 32.018s-9.275 27.202-22.286 32.019c3.691 1.366 7.681 2.115 11.847 2.115 18.851 0 34.133-15.282 34.133-34.133 0-18.852-15.282-34.134-34.133-34.134z"/><path d="m85.333 204.8c-4.166 0-8.156.749-11.847 2.115 13.011 4.816 22.286 17.333 22.286 32.018s-9.275 27.202-22.286 32.019c3.691 1.366 7.681 2.115 11.847 2.115 18.851 0 34.133-15.282 34.133-34.133.001-18.852-15.281-34.134-34.133-34.134z"/></g></g></g></svg>