<svg id="Capa_1" enable-background="new 0 0 512 512" height="512" viewBox="0 0 512 512" width="512" xmlns="http://www.w3.org/2000/svg"><g><path d="m51.2 470.873h68.267v33.127c0 4.418-3.582 8-8 8h-52.267c-4.418 0-8-3.582-8-8z" fill="#7a6d79"/><path d="m95.807 470.873v32.885c0 4.552-3.69 8.241-8.241 8.241h23.66c4.552 0 8.242-3.69 8.242-8.241v-32.885z" fill="#554e56"/><path d="m392.533 470.873h68.267v33.127c0 4.418-3.582 8-8 8h-52.267c-4.418 0-8-3.582-8-8z" fill="#7a6d79"/><path d="m437.14 470.873v32.885c0 4.552-3.69 8.241-8.242 8.241h23.66c4.551 0 8.241-3.69 8.241-8.241v-32.885z" fill="#554e56"/><path d="m102.4 39.369h-51.2v-31.369c0-4.418 3.582-8 8-8h35.2c4.418 0 8 3.582 8 8z" fill="#fbf3f3"/><path d="m94.159 0h-23.694c4.551 0 8.241 3.69 8.241 8.241v31.127h23.694v-31.127c0-4.551-3.69-8.241-8.241-8.241z" fill="#e8e3f0"/><path d="m460.8 39.369h-51.2v-31.369c0-4.418 3.582-8 8-8h35.2c4.418 0 8 3.582 8 8z" fill="#fbf3f3"/><path d="m452.559 0h-23.694c4.552 0 8.241 3.69 8.241 8.241v31.127h23.694v-31.127c0-4.551-3.69-8.241-8.241-8.241z" fill="#e8e3f0"/><path d="m141.026 51.2h229.948v51.2h-229.948z" fill="#7a6d79"/><path d="m334.706 51.2h36.268v51.2h-36.268z" fill="#554e56"/><g fill="#b9385d"><path d="m512 76.8v-25.6c0-9.426-7.641-17.067-17.067-17.067h-119.466c-9.426 0-17.067 7.641-17.067 17.067v25.6z"/><path d="m0 460.8c0 9.426 7.641 17.067 17.067 17.067h477.867c9.425 0 17.067-7.641 17.067-17.067v-25.455h-512.001z"/><path d="m153.6 51.2c0-9.426-7.641-17.067-17.067-17.067h-119.466c-9.426 0-17.067 7.642-17.067 17.067v25.6h153.6z"/></g><g fill="#9e2950"><g><path d="m488.306 51.2v25.6h23.694v-25.6c0-9.426-7.641-17.067-17.067-17.067h-23.694c9.426 0 17.067 7.642 17.067 17.067z"/><path d="m488.306 460.8c0 9.426-7.641 17.067-17.067 17.067h23.694c9.425 0 17.067-7.641 17.067-17.067v-25.455h-23.694z"/></g><path d="m129.906 51.2v25.6h23.694v-25.6c0-9.426-7.641-17.067-17.067-17.067h-23.694c9.426 0 17.067 7.642 17.067 17.067z"/></g><path d="m502.467 68.267h-135.534c-4.713 0-8.534 3.821-8.534 8.533v59.733c0 9.426-7.641 17.067-17.067 17.067h-171.665c-9.425 0-17.067-7.641-17.067-17.067v-59.733c0-4.713-3.82-8.533-8.533-8.533h-135.533c-4.713 0-8.534 3.82-8.534 8.533v358.545c0 4.713 3.821 8.533 8.533 8.533h493.933c4.713 0 8.533-3.821 8.533-8.533v-358.545c.001-4.713-3.82-8.533-8.532-8.533z" fill="#f03747"/><g><g><g><path d="m129.906 76.8v59.733c0 9.426 7.641 17.067 17.067 17.067h23.694c-9.426 0-17.067-7.641-17.067-17.067v-59.733c0-4.713-3.821-8.533-8.533-8.533h-23.694c4.713 0 8.533 3.82 8.533 8.533z" fill="#b9385d"/></g><g><path d="m503.467 68.267h-23.694c4.713 0 8.533 3.821 8.533 8.533v358.545c0 4.713-3.82 8.533-8.533 8.533h23.694c4.713 0 8.533-3.821 8.533-8.533v-358.545c0-4.713-3.82-8.533-8.533-8.533z" fill="#b9385d"/></g></g></g><g fill="#554e56"><path d="m204.8 77.607c-4.268 0-7.726 3.459-7.726 7.726v17.067h15.453v-17.066c-.001-4.268-3.459-7.727-7.727-7.727z"/><path d="m256 77.607c-4.268 0-7.726 3.459-7.726 7.726v17.067h15.453v-17.066c-.001-4.268-3.459-7.727-7.727-7.727z"/><path d="m307.2 77.607c-4.268 0-7.726 3.459-7.726 7.726v17.067h15.453v-17.066c0-4.268-3.459-7.727-7.727-7.727z"/></g><path d="m281.6 358.4v-29.867c0-2.357 1.91-4.267 4.267-4.267h29.867c4.713 0 8.533-3.821 8.533-8.533v-34.133c0-4.713-3.82-8.533-8.533-8.533h-29.867c-2.356 0-4.267-1.91-4.267-4.267v-29.867c0-4.713-3.82-8.533-8.533-8.533h-34.133c-4.713 0-8.533 3.821-8.533 8.533v29.867c0 2.356-1.91 4.267-4.267 4.267h-29.867c-4.713 0-8.533 3.82-8.533 8.533v34.133c0 4.713 3.82 8.533 8.533 8.533h29.867c2.356 0 4.267 1.91 4.267 4.267v29.867c0 4.713 3.82 8.533 8.533 8.533h34.133c4.713 0 8.533-3.82 8.533-8.533z" fill="#fbf3f3"/><g><g fill="#c0ed6b"><path d="m111.467 392.533h-52.267c-4.418 0-8-3.582-8-8v-18.133c0-4.418 3.582-8 8-8h52.267c4.418 0 8 3.582 8 8v18.133c0 4.419-3.582 8-8 8z"/><path d="m452.8 392.533h-52.267c-4.418 0-8-3.582-8-8v-18.133c0-4.418 3.582-8 8-8h52.267c4.418 0 8 3.582 8 8v18.133c0 4.419-3.582 8-8 8z"/></g></g><path d="m452.559 358.4h-23.694c4.552 0 8.242 3.69 8.242 8.241v17.65c0 4.552-3.69 8.241-8.242 8.241h23.694c4.552 0 8.241-3.69 8.241-8.241v-17.65c0-4.551-3.69-8.241-8.241-8.241z" fill="#95cf53"/><path d="m111.243 358.4h-23.695c4.551 0 8.241 3.69 8.241 8.241v17.65c0 4.552-3.69 8.241-8.241 8.241h23.694c4.552 0 8.242-3.69 8.242-8.241v-17.65c0-4.551-3.69-8.241-8.241-8.241z" fill="#95cf53"/><g><g><g><path d="m257.906 328.533v29.867c0 4.713-3.82 8.533-8.533 8.533h23.694c4.713 0 8.533-3.82 8.533-8.533v-29.867c0-2.356 1.91-4.267 4.267-4.267h-23.694c-2.357.001-4.267 1.911-4.267 4.267z" fill="#e8e3f0"/></g><g><path d="m257.906 238.933v29.867c0 2.356 1.91 4.267 4.267 4.267h23.694c-2.356 0-4.267-1.91-4.267-4.267v-29.867c0-4.713-3.82-8.533-8.533-8.533h-23.694c4.713 0 8.533 3.821 8.533 8.533z" fill="#e8e3f0"/></g><g><path d="m315.733 273.067h-23.694c4.713 0 8.533 3.82 8.533 8.533v34.133c0 4.713-3.821 8.533-8.533 8.533h23.694c4.713 0 8.534-3.821 8.534-8.533v-34.133c0-4.713-3.821-8.533-8.534-8.533z" fill="#e8e3f0"/></g></g></g></g></svg>