<svg id="Capa_1" enable-background="new 0 0 512 512" height="512" viewBox="0 0 512 512" width="512" xmlns="http://www.w3.org/2000/svg"><g><circle cx="256" cy="256" fill="#f03747" r="256"/><g><g fill="#fbf3f3"><path d="m255.999 34.133c-51.663 0-99.196 17.666-136.904 47.277-4.033 3.167-4.406 9.143-.78 12.769l136.22 136.221 51.2 20.185v31.015l112.085 112.085c3.626 3.626 9.602 3.253 12.769-.78 29.612-37.708 47.277-85.241 47.277-136.904.001-122.256-99.611-221.868-221.867-221.868z"/><path d="m393.685 417.821-136.22-136.221-51.2-26.762v-24.438l-112.086-112.085c-3.626-3.626-9.602-3.253-12.769.78-29.611 37.707-47.277 85.24-47.277 136.904-.001 122.257 99.611 221.869 221.868 221.868 51.663 0 99.196-17.666 136.904-47.277 4.033-3.168 4.406-9.143.78-12.769z"/></g></g><path d="m358.4 230.4h-103.865l51.2 51.2h52.665l7.281-25.6z" fill="#fff"/><path d="m206.264 230.4h-35.597l-12.761 25.6 12.761 25.6h86.798z" fill="#fff"/><g><g><path d="m358.393 203.994c-1.473 0-2.962-.421-4.279-1.299-3.551-2.367-4.51-7.164-2.143-10.714l6.482-9.723c4.995-7.492 5.596-17.149 1.569-25.202-6.501-13.001-5.53-28.589 2.533-40.684l6.482-9.723c2.367-3.551 7.163-4.509 10.714-2.143 3.551 2.367 4.51 7.164 2.143 10.714l-6.482 9.723c-4.994 7.492-5.596 17.149-1.569 25.201 6.501 13.001 5.53 28.591-2.533 40.685l-6.482 9.723c-1.488 2.234-3.939 3.442-6.435 3.442z" fill="#d3cbe4"/></g></g><g><g><path d="m324.259 203.994c-1.473 0-2.961-.421-4.279-1.299-3.551-2.367-4.51-7.164-2.143-10.714l6.482-9.723c4.995-7.492 5.596-17.149 1.569-25.202-6.501-13.001-5.53-28.589 2.533-40.684l6.482-9.723c2.367-3.551 7.164-4.509 10.714-2.143 3.551 2.367 4.51 7.164 2.143 10.714l-6.482 9.723c-4.994 7.492-5.595 17.149-1.569 25.201 6.5 13.001 5.53 28.591-2.533 40.685l-6.482 9.723c-1.488 2.234-3.938 3.442-6.435 3.442z" fill="#d3cbe4"/></g></g><path d="m256 0c-3.972 0-7.919.104-11.847.283 135.884 6.191 244.153 118.304 244.153 255.717s-108.269 249.526-244.153 255.717c3.928.179 7.875.283 11.847.283 141.385 0 256-114.615 256-256s-114.615-256-256-256z" fill="#b9385d"/><path d="m255.999 34.133c-3.952 0-7.877.116-11.779.32 116.993 6.192 209.952 103.011 209.952 221.547 0 49.064-15.938 94.398-42.902 131.135l6.55 6.55c3.626 3.626 9.602 3.253 12.769-.78 29.612-37.708 47.277-85.241 47.277-136.904.001-122.256-99.611-221.868-221.867-221.868z" fill="#e8e3f0"/><path d="m388.966 413.102c-37.52 37.415-88.361 61.474-144.793 64.448 3.918.207 7.861.317 11.829.317 51.663 0 99.196-17.666 136.904-47.277 4.033-3.167 4.406-9.143.78-12.769z" fill="#e8e3f0"/><path d="m93.867 230.4c-4.713 0-8.533 3.82-8.533 8.533v34.133c0 4.713 3.821 8.533 8.533 8.533h76.8v-51.2h-76.8z" fill="#9f5f4b"/><path d="m392.533 273.067v-34.133c0-4.713-3.82-8.533-8.533-8.533h-25.6v51.2h25.6c4.713-.001 8.533-3.822 8.533-8.534z" fill="#ffe652"/><path d="m384 230.4h-23.694c4.713 0 8.533 3.82 8.533 8.533v34.133c0 4.713-3.821 8.533-8.533 8.533h23.694c4.713 0 8.533-3.821 8.533-8.533v-34.133c0-4.713-3.82-8.533-8.533-8.533z" fill="#f4c338"/></g></svg>