<svg id="Capa_1" enable-background="new 0 0 512 512" height="512" viewBox="0 0 512 512" width="512" xmlns="http://www.w3.org/2000/svg"><g><path d="m360.844 418.101 59.893-99.35-96.594-25.099c-30.083-7.817-51.085-34.973-51.085-66.055l7.765-108.192-3.429-16.486h-158.263v16.486l-68.248 68.248-.116-.064c-.16 3.866-.483 7.726-.971 11.568l-9.445 74.371 44.657 154.891h275.837v-10.318z" fill="#7a6d79"/><path d="m257.128 113.245-7.765 108.193c0 31.082 21.002 58.238 51.084 66.055l23.613 6.136c-30.038-7.846-51.001-34.978-51.001-66.031l7.765-108.192-3.429-16.486h-22.416z" fill="#554e56"/><path d="m420.737 318.75-6.635-1.724c2.176.61 4.304 1.329 6.384 2.14z" fill="#554e56"/><path d="m435.168 322.5-14.272-3.708-.158-.041c-23.59 17.171-50.663 47.65-59.893 99.35v10.317h134.026v-10.317l-8.501-42.503c-5.236-26.179-25.231-46.914-51.202-53.098z" fill="#ffe652"/><path d="m486.37 375.598c-5.236-26.179-25.231-46.914-51.202-53.098l-14.272-3.708-.158-.041c-.151.11-.305.227-.456.339 21.612 8.348 37.766 27.219 42.392 50.35l8.501 48.662v10.317h23.697v-10.317z" fill="#f4c338"/><path d="m.07 435.051v42.825c0 18.846 15.278 34.124 34.124 34.124h121.116c9.608 0 18.581-4.802 23.91-12.797 5.33-7.995 14.302-12.797 23.91-12.797h40.484c8.183 0 16.298 1.471 23.96 4.344l45.086 16.905c7.662 2.873 15.777 4.344 23.96 4.344h141.184c18.846 0 34.124-15.278 34.124-34.124v-25.593z" fill="#7a6d79"/><g fill="#554e56"><path d="m93.804 478.511c-4.267 0-7.726 3.459-7.726 7.726v25.593c0 .057.007.113.008.17h15.436c.001-.057.009-.113.009-.17v-25.593c-.001-4.267-3.46-7.726-7.727-7.726z"/><path d="m51.257 478.511c-4.267 0-7.726 3.459-7.726 7.726v25.593c0 .057.007.113.008.17h15.436c.001-.057.009-.113.009-.17v-25.593c-.001-4.267-3.46-7.726-7.727-7.726z"/><path d="m136.352 478.511c-4.267 0-7.726 3.459-7.726 7.726v25.593c0 .057.007.113.008.17h15.436c.001-.057.009-.113.009-.17v-25.593c-.001-4.267-3.46-7.726-7.727-7.726z"/><path d="m341.418 478.511c-4.267 0-7.726 3.459-7.726 7.726v25.593c0 .035.005.069.005.104.974.042 1.949.066 2.925.066h12.513c.001-.057.009-.113.009-.17v-25.593c0-4.267-3.459-7.726-7.726-7.726z"/><path d="m383.965 478.511c-4.267 0-7.726 3.459-7.726 7.726v25.593c0 .057.007.113.009.17h15.436c.001-.057.009-.113.009-.17v-25.593c-.002-4.267-3.461-7.726-7.728-7.726z"/><path d="m426.513 478.511c-4.267 0-7.726 3.459-7.726 7.726v25.593c0 .057.007.113.009.17h15.436c.001-.057.009-.113.009-.17v-25.593c-.002-4.267-3.461-7.726-7.728-7.726z"/><path d="m469.06 478.511c-4.267 0-7.726 3.459-7.726 7.726v25.593c0 .057.007.113.009.17h15.436c.001-.057.008-.113.008-.17v-25.593c0-4.267-3.459-7.726-7.727-7.726z"/></g><g><g><g><path d="m155.527 499.203c-5.33 7.995-14.302 12.797-23.91 12.797h23.694c9.608 0 18.581-4.802 23.91-12.797 5.33-7.995 14.302-12.796 23.91-12.796h-23.694c-9.608 0-18.58 4.802-23.91 12.796z" fill="#554e56"/></g><g><path d="m488.236 451.485v26.391c0 18.846-15.278 34.124-34.124 34.124h23.694c18.846 0 34.124-15.278 34.124-34.124v-25.593z" fill="#554e56"/></g></g></g><path d="m253.362 418.101-7.911-23.456c-4.011-11.894-14.229-20.626-26.603-22.734l-43.327-7.383c-22.883-3.899-42.216-19.162-51.318-40.517l-12.918-30.306c-5.362-12.58-17.716-20.743-31.391-20.743h-35.168c-10.169 0-18.081 8.839-16.958 18.946l4.935 44.41c.958 8.62-1.403 17.281-6.602 24.224l-17.622 23.532c-4.063 5.425-6.418 11.937-6.765 18.705l-.787 15.321 123.824 15.194z" fill="#918291"/><path d="m71.707 86.133v-18.002c11.174-39.327 47.355-68.131 90.264-68.131s79.09 28.804 90.264 68.131v18.003h-36.332v-18.003c-9.607-20.127-30.143-34.036-53.932-34.036s-44.325 13.909-53.932 34.036v18.003h-36.332z" fill="#7a6d79"/><path d="m161.971 0c-4.013 0-7.967.252-11.847.741 37.611 4.739 68.288 31.74 78.417 67.389v18.003h23.694v-18.002c-11.173-39.327-47.355-68.131-90.264-68.131z" fill="#554e56"/><path d="m495.106 418.101h-.235l-14.779.752-6.007-.752h-2.673-470.485l-.834 16.245c-.501 9.754 7.273 17.937 17.04 17.937h494.797v-17.358c0-9.292-7.533-16.824-16.824-16.824z" fill="#ffe652"/><path d="m119.131 119.405v-16.486h-70.824v16.486l2.449 56.662c.165 3.814.168 7.631.013 11.441l.114.144c37.692.001 68.248-30.555 68.248-68.247z" fill="#918291"/><path d="m287.822 119.405h-252.091c-5.271 0-9.28-4.732-8.415-9.931l5.692-34.212c.685-4.115 4.244-7.131 8.415-7.131h240.706c4.171 0 7.731 3.016 8.415 7.131l5.692 34.212c.866 5.199-3.144 9.931-8.414 9.931z" fill="#ffe652"/><path d="m296.237 109.474-5.692-34.212c-.685-4.115-4.244-7.131-8.415-7.131h-23.694c4.171 0 7.731 3.016 8.415 7.131l5.692 34.212c.865 5.199-3.145 9.931-8.415 9.931h23.694c5.27 0 9.28-4.732 8.415-9.931z" fill="#f4c338"/><path d="m495.106 418.101h-23.694c9.292 0 16.824 7.532 16.824 16.824v17.358h23.694v-17.358c0-9.292-7.533-16.824-16.824-16.824z" fill="#f4c338"/></g></svg>