<svg id="Capa_1" enable-background="new 0 0 512 512" height="512" viewBox="0 0 512 512" width="512" xmlns="http://www.w3.org/2000/svg"><g><path d="m361.672 239.792-17.723-76.8c-3.595-15.578-17.272-26.458-33.259-26.458l-29.09-5.151h-51.2l-29.09 5.151c-15.987 0-29.664 10.88-33.259 26.458l-17.723 76.8c-2.346 10.168.021 20.683 6.497 28.861 6.598 8.333 16.837 12.947 27.466 12.947h143.419c10.629 0 20.868-4.614 27.466-12.947 6.475-8.179 8.843-18.693 6.496-28.861zm-43.986 7.675h-123.372c-5.488 0-9.549-5.105-8.315-10.452l13.785-59.733c.894-3.872 4.341-6.615 8.315-6.615h95.803c3.974 0 7.421 2.743 8.315 6.614l13.785 59.733c1.233 5.348-2.828 10.453-8.316 10.453z" fill="#fbf3f3"/><path d="m361.672 239.792-17.723-76.8c-3.595-15.578-17.272-26.458-33.259-26.458l-29.09-5.151h-23.694l29.09 5.151c15.987 0 29.664 10.88 33.259 26.458l17.723 76.8c2.347 10.168-.021 20.683-6.497 28.861-6.598 8.333-16.837 12.947-27.466 12.947h23.694c10.629 0 20.868-4.614 27.466-12.947 6.476-8.179 8.844-18.693 6.497-28.861z" fill="#e8e3f0"/><path d="m238.933 170.627h34.133v76.879h-34.133z" fill="#e8e3f0"/><path d="m249.373 170.627h23.694v76.879h-23.694z" fill="#d3cbe4"/><path d="m282.133 238.933h-9.067l-3.259 1.736-9.083-1.736h-30.858c-4.418 0-8 3.582-8 8v35.2c0 4.418 3.582 8 8 8h52.267c4.418 0 8-3.582 8-8v-35.2c0-4.418-3.581-8-8-8z" fill="#ffe652"/><path d="m282.133 238.933h-23.936c4.552 0 8.241 3.69 8.241 8.242v34.717c0 4.551-3.69 8.241-8.241 8.241h23.936c4.418 0 8-3.582 8-8v-35.2c0-4.418-3.581-8-8-8z" fill="#f4c338"/><g><path d="m230.4 131.382v39.818c0 4.418 3.582 8 8 8h13.008l16.018-2.934 5.64 2.934h.533c4.418 0 8-3.582 8-8v-39.818z" fill="#ffe652"/><path d="m257.906 131.382v39.577c0 4.552-3.69 8.241-8.241 8.241h23.694c4.552 0 8.241-3.69 8.241-8.241v-39.577z" fill="#f4c338"/></g><path d="m221.867 62.43h68.267v45.807h-68.267z" fill="#e8e3f0"/><path d="m266.439 62.43h23.694v45.807h-23.694z" fill="#d3cbe4"/><path d="m156.469 25.003h199.061v43.264h-199.061z" fill="#ffe652"/><path d="m320.484 68.267 5.688-34.134v-9.13h29.359v43.264z" fill="#f4c338"/><path d="m384 34.133-12.313 73.878c-2.743 16.459-16.983 28.522-33.669 28.522h-164.036c-16.686 0-30.926-12.063-33.669-28.522l-12.313-73.878v-11.323h34.133v11.324l9.001 54.006c1.372 8.229 8.492 14.261 16.835 14.261h136.063c8.343 0 15.463-6.031 16.835-14.261l9.001-54.006v-11.324h34.132z" fill="#fbf3f3"/><path d="m360.306 22.81v11.324l-12.313 73.878c-2.743 16.459-16.983 28.522-33.669 28.522h23.694c16.686 0 30.926-12.063 33.669-28.522l12.313-73.879v-11.323z" fill="#e8e3f0"/><path d="m452.8 34.133h-393.6c-4.418 0-8-3.582-8-8v-18.133c0-4.418 3.582-8 8-8h393.6c4.418 0 8 3.582 8 8v18.133c0 4.419-3.582 8-8 8z" fill="#7a6d79"/><g><g><path d="m256 401.067c-9.426 0-17.067-7.641-17.067-17.067v-42.667c0-9.426 7.641-17.067 17.067-17.067s17.067 7.641 17.067 17.067v42.667c0 9.426-7.641 17.067-17.067 17.067z" fill="#8dd4ff"/></g></g><g><g><path d="m256 512c-9.426 0-17.067-7.641-17.067-17.067v-42.667c0-9.426 7.641-17.067 17.067-17.067s17.067 7.641 17.067 17.067v42.667c0 9.426-7.641 17.067-17.067 17.067z" fill="#8dd4ff"/></g></g><g><g><g><path d="m134.64 383.571c-6.665-6.665-6.665-17.471 0-24.136l30.17-30.17c6.665-6.665 17.471-6.665 24.136 0s6.665 17.471 0 24.136l-30.17 30.17c-6.665 6.665-17.47 6.665-24.136 0z" fill="#8dd4ff"/></g><g><path d="m56.199 462.013c-6.665-6.665-6.665-17.471 0-24.136l30.17-30.17c6.665-6.665 17.471-6.665 24.136 0s6.665 17.471 0 24.136l-30.17 30.17c-6.666 6.665-17.471 6.665-24.136 0z" fill="#8dd4ff"/></g></g></g><g><g><g><path d="m377.36 383.571c6.665-6.665 6.665-17.471 0-24.136l-30.17-30.17c-6.665-6.665-17.471-6.665-24.136 0s-6.665 17.471 0 24.136l30.17 30.17c6.665 6.665 17.47 6.665 24.136 0z" fill="#8dd4ff"/></g><g><path d="m455.801 462.013c6.665-6.665 6.665-17.471 0-24.136l-30.17-30.17c-6.665-6.665-17.471-6.665-24.136 0s-6.665 17.471 0 24.136l30.17 30.17c6.666 6.665 17.471 6.665 24.136 0z" fill="#8dd4ff"/></g></g></g><path d="m452.559 0h-23.694c4.552 0 8.241 3.69 8.241 8.241v17.651c0 4.551-3.69 8.241-8.241 8.241h23.694c4.552 0 8.241-3.69 8.241-8.241v-17.651c0-4.551-3.69-8.241-8.241-8.241z" fill="#554e56"/><g><g fill="#45afff"><path d="m377.36 359.435-30.17-30.17c-6.594-6.594-17.235-6.653-23.915-.2.072.069.15.129.221.2l30.17 30.17c6.665 6.665 6.665 17.471 0 24.136-.071.071-.149.13-.221.2 6.681 6.454 17.321 6.395 23.915-.2 6.664-6.665 6.665-17.471 0-24.136z"/><path d="m455.801 437.877-30.17-30.17c-6.594-6.594-17.235-6.653-23.915-.2.072.07.15.129.221.2l30.17 30.17c6.665 6.665 6.665 17.471 0 24.136-.071.071-.149.13-.221.2 6.681 6.454 17.321 6.395 23.915-.2 6.665-6.665 6.665-17.471 0-24.136z"/></g></g><g fill="#45afff"><path d="m256 324.267c-4.605 0-8.777 1.832-11.847 4.798 3.213 3.103 5.22 7.449 5.22 12.269v42.666c0 4.82-2.006 9.165-5.22 12.269 3.07 2.965 7.242 4.798 11.847 4.798 9.426 0 17.067-7.641 17.067-17.067v-42.667c0-9.426-7.641-17.066-17.067-17.066z"/><path d="m256 435.2c-4.605 0-8.777 1.833-11.847 4.798 3.213 3.103 5.22 7.449 5.22 12.269v42.667c0 4.82-2.006 9.166-5.22 12.269 3.07 2.965 7.242 4.798 11.847 4.798 9.426 0 17.067-7.641 17.067-17.067v-42.667c0-9.426-7.641-17.067-17.067-17.067z"/><g><path d="m188.946 329.265c-6.594-6.594-17.234-6.653-23.915-.2.072.069.15.129.221.2 6.665 6.665 6.665 17.471 0 24.136l-30.17 30.17c-.071.071-.149.13-.221.2 6.68 6.454 17.321 6.395 23.915-.2l30.17-30.17c6.666-6.665 6.666-17.47 0-24.136z"/><path d="m110.505 407.707c-6.594-6.594-17.235-6.653-23.915-.2.072.07.15.129.221.2 6.665 6.665 6.665 17.471 0 24.136l-30.17 30.17c-.071.071-.149.13-.221.2 6.681 6.454 17.321 6.395 23.915-.2l30.17-30.17c6.665-6.665 6.665-17.471 0-24.136z"/></g></g></g></svg>