<svg id="Capa_1" enable-background="new 0 0 512 512" height="512" viewBox="0 0 512 512" width="512" xmlns="http://www.w3.org/2000/svg"><g><g><g><path d="m42.666 421.515v48.351c0 4.418 3.582 8 8 8h18.407l7.727-2.866 7.727 2.867h31.558v-56.351h-73.419z" fill="#7a6d79"/><g><path d="m95.48 421.515h20.604v56.351h-20.604z" fill="#554e56"/></g><path d="m395.916 421.515v56.351h31.558l8.178-2.371 7.275 2.371h18.407c4.418 0 8-3.582 8-8v-48.351z" fill="#7a6d79"/><g><path d="m445.684 421.515v48.11c0 3.368-2.022 6.259-4.917 7.538l2.16.704h18.165c4.552 0 8.241-3.69 8.241-8.242v-48.11z" fill="#554e56"/></g></g></g><path d="m435.2 453.073c-4.267 0-7.726 3.459-7.726 7.726v17.066.001h15.453s0 0 0-.001v-17.065c0-4.268-3.459-7.727-7.727-7.727z" fill="#918291"/><path d="m76.8 453.073c-4.268 0-7.726 3.459-7.726 7.726v17.066.001h15.453s0 0 0-.001v-17.065c-.001-4.268-3.46-7.727-7.727-7.727z" fill="#918291"/><path d="m486.4 307.2-4.757-14.697 4.757-19.436v-51.2l-10.042-17.857 10.042-16.276v-33.444c0-30.666-20.448-57.569-49.996-65.776l-103.604-28.781h-153.6l-103.605 28.779c-29.547 8.208-49.995 35.111-49.995 65.777v33.445l8.244 18.973-8.244 15.16v51.2l8.244 20.612-8.244 13.521v51.2 34.133 25.6c0 4.713 3.82 8.533 8.533 8.533h76.8l6.746 17.067-6.746 17.067v34.133c0 9.426 7.641 17.067 17.067 17.067h110.934l17.066-8.816 17.067 8.816h110.933c9.426 0 17.067-7.641 17.067-17.067v-34.133l-7.278-20.974 7.278-13.159h76.8c4.713 0 8.533-3.82 8.533-8.533v-25.6-34.134z" fill="#ff7f3b"/><g fill="#f55b31"><path d="m401.067 460.8-7.278-20.974 7.278-13.159v-221.807c-13.086 0-23.694 10.608-23.694 23.694v266.38c0 9.426-7.641 17.067-17.067 17.067h23.694c9.426 0 17.067-7.641 17.067-17.067z"/><path d="m486.4 307.2-4.757-14.697 4.757-19.436v-51.2l-10.042-17.857 10.042-16.276v-33.444c0-30.666-20.448-57.569-49.996-65.776l-20.293-5.637c27.701 9.265 46.594 35.252 46.594 64.725v210.8 34.133 25.6c0 4.713-3.82 8.533-8.533 8.533h23.694c4.713 0 8.533-3.82 8.533-8.533v-25.6-34.135z"/></g><path d="m110.933 426.667h290.134v34.133h-290.134z" fill="#fbf3f3"/><path d="m110.933 358.4h290.134v34.133h-290.134z" fill="#fbf3f3"/><path d="m110.933 221.867h290.134v34.133h-290.134z" fill="#fbf3f3"/><g><g><path d="m204.8 331.993c-4.268 0-7.726-3.459-7.726-7.726v-34.133c0-4.268 3.459-7.726 7.726-7.726 4.268 0 7.726 3.459 7.726 7.726v34.133c0 4.267-3.459 7.726-7.726 7.726z" fill="#f03747"/></g></g><path d="m25.6 384.807h85.333v15.453h-85.333z" fill="#f55b31"/><path d="m196.8 187.733h-35.2c-4.418 0-8-3.582-8-8v-18.133c0-4.418 3.582-8 8-8h35.2c4.418 0 8 3.582 8 8v18.133c0 4.419-3.582 8-8 8z" fill="#fbf3f3"/><path d="m401.066 384.807h85.334v15.453h-85.334z" fill="#f55b31"/><g><path d="m420.978 127.195c-.838 0-1.69-.138-2.527-.428l-146.684-50.774h-31.533l-146.685 50.775c-4.032 1.395-8.434-.741-9.829-4.774-1.395-4.032.743-8.433 4.775-9.828l147.911-51.201c.813-.281 1.667-.425 2.527-.425h34.133c.86 0 1.714.144 2.527.425l147.911 51.201c4.032 1.395 6.17 5.796 4.775 9.828-1.106 3.196-4.099 5.201-7.301 5.201z" fill="#f55b31"/></g><path d="m196.559 153.6h-23.694c4.552 0 8.241 3.69 8.241 8.242v17.65c0 4.552-3.69 8.241-8.241 8.241h23.694c4.552 0 8.241-3.69 8.241-8.241v-17.65c0-4.552-3.69-8.242-8.241-8.242z" fill="#e8e3f0"/><g><g><path d="m273.067 460.8-8.325-18.132 8.325-16.001v-34.134l-8.325-18.132 8.325-16.001v-102.4l-8.325-18.132 8.325-16.001v-169.985h-34.134v169.985l4.374 17.066-4.374 17.067v102.4l4.374 17.067-4.374 17.066v34.134l4.374 17.066-4.374 17.067v51.2h34.134z" fill="#f55b31"/><path d="m273.067 460.8-8.325-18.132 8.325-16.001v-34.134l-8.325-18.132 8.325-16.001v-102.4l-8.325-18.132 8.325-16.001v-169.985h-23.694v460.118h23.694z" fill="#f5402c"/></g><g><g fill="#e8e3f0"><path d="m238.933 221.867h34.133v34.133h-34.133z"/><path d="m238.933 358.4h34.133v34.133h-34.133z"/><path d="m238.933 426.667h34.133v34.133h-34.133z"/></g><path d="m249.373 221.867h23.694v34.133h-23.694z" fill="#d3cbe4"/><path d="m249.373 358.4h23.694v34.133h-23.694z" fill="#d3cbe4"/><path d="m249.373 426.667h23.694v34.133h-23.694z" fill="#d3cbe4"/></g></g><g><g><path d="m486.934 392.533h-35.734c-8.836 0-16-7.163-16-16v-2.133c0-8.837 7.164-16 16-16h35.733c4.418 0 8 3.582 8 8v18.133c.001 4.419-3.581 8-7.999 8z" fill="#ffe652"/><path d="m25.066 392.533h34.734c8.837 0 16-7.163 16-16v-2.133c0-8.837-7.163-16-16-16h-34.734c-4.418 0-8 3.582-8 8v18.133c0 4.419 3.582 8 8 8z" fill="#ffe652"/><g><path d="m486.692 358.4h-23.772c4.552 0 8.242 3.69 8.242 8.241v17.65c0 4.552-3.69 8.241-8.242 8.241h23.772c4.551 0 8.241-3.69 8.241-8.241v-17.65c.001-4.551-3.689-8.241-8.241-8.241z" fill="#f4c338"/></g><g><path d="m60.317 358.4h-23.694c9.103 0 16.483 7.38 16.483 16.483v1.168c0 9.103-7.379 16.483-16.483 16.483h23.694c9.103 0 16.483-7.38 16.483-16.483v-1.168c0-9.103-7.38-16.483-16.483-16.483z" fill="#f4c338"/></g></g></g><g><path d="m273.249 67.766c19.84-.97 39.618-3.616 59.122-7.938l.429-.095-6.157-36.939c-1.371-8.229-8.491-14.261-16.834-14.261h-58.846z" fill="#ff7f3b"/><path d="m249.373 68.118 23.694-.351v-59.234c0-4.713-3.821-8.533-8.533-8.533h-60.374c-8.268 0-15.347 5.926-16.801 14.065l-8.159 45.668c23.12 5.153 46.63 7.945 70.173 8.385z" fill="#ff7f3b"/><g fill="#f55b31"><path d="m264.533 0h-23.694c4.713 0 8.533 3.82 8.533 8.533v59.585c7.899.147 15.801.031 23.694-.351v-59.234c.001-4.713-3.82-8.533-8.533-8.533z"/><path d="m326.643 22.794c-1.371-8.229-8.491-14.261-16.835-14.261h-24.482c8.343 0 15.463 6.032 16.835 14.261l6.926 41.368c7.795-1.186 15.561-2.623 23.283-4.334l.429-.095z"/></g></g><path d="m110.933 290.133v-51.2l-4.979-17.067 4.979-17.067v-32.744c0-12.087-3.209-23.957-9.299-34.398l-28.276-48.473c-5.003 1.575-9.724 3.693-14.113 6.276.228.513.478 1.017.762 1.505l28.28 48.479c4.706 8.068 7.194 17.271 7.194 26.611v254.611h15.453v-102.4l-4.979-18.612z" fill="#f55b31"/><path d="m438.642 89.184-28.276 48.474c-6.09 10.441-9.299 22.311-9.299 34.398v32.744l5.218 8.533-5.218 25.599v51.201l6.594 15.521-6.594 18.612v102.4h15.453v-254.61c0-9.341 2.488-18.543 7.194-26.612l28.28-48.479c.284-.488.534-.992.762-1.505-4.389-2.582-9.111-4.701-14.114-6.276z" fill="#f55b31"/><path d="m110.933 238.933-85.333-17.066v-34.134l85.333 17.067z" fill="#fbf3f3"/><path d="m110.933 324.267-85.333-17.067v-34.133l85.333 17.066z" fill="#fbf3f3"/><path d="m110.933 238.933v-34.133l-15.453-3.091v34.134z" fill="#e8e3f0"/><path d="m110.933 324.267v-34.134l-15.453-3.09v34.133z" fill="#e8e3f0"/><path d="m401.067 324.267 85.333-17.067v-34.133l-85.333 17.066z" fill="#fbf3f3"/><path d="m401.067 324.267 15.453-3.091v-34.133l-15.453 3.09z" fill="#e8e3f0"/><path d="m462.706 311.939 23.694-4.739v-34.133l-23.694 4.738z" fill="#e8e3f0"/><path d="m401.067 238.933 85.333-17.066v-34.134l-85.333 17.067z" fill="#fbf3f3"/><g fill="#e8e3f0"><path d="m401.067 238.933 15.453-3.09v-34.134l-15.453 3.091z"/><path d="m462.706 226.605 23.694-4.738v-34.134l-23.694 4.739z"/><path d="m377.373 228.554v27.446h23.694v-34.133h-22.731c-.623 2.121-.963 4.364-.963 6.687z"/><path d="m377.373 358.4h23.694v34.133h-23.694z"/><path d="m377.373 426.667h23.694v34.133h-23.694z"/></g></g></svg>