<svg id="Capa_1" enable-background="new 0 0 512 512" height="512" viewBox="0 0 512 512" width="512" xmlns="http://www.w3.org/2000/svg"><g><path d="m34.133 246.464h290.133v206.806h-290.133z" fill="#f03747"/><path d="m292.039 246.464h32.228v206.806h-32.228z" fill="#b9385d"/><path d="m328.443 256h-303.376c-4.418 0-8-3.582-8-8v-18.133c0-4.418 3.582-8 8-8h303.377v34.133z" fill="#fbf3f3"/><path d="m292.039 221.867h36.404v34.133h-36.404z" fill="#e8e3f0"/><g><g fill="#7a6d79"><path d="m341.333 59.33h34.133v52.007h-34.133z"/><path d="m426.667 59.33h34.133v52.007h-34.133z"/></g></g><path d="m437.106 59.33h23.694v52.007h-23.694z" fill="#554e56"/><path d="m351.772 59.33h23.694v52.007h-23.694z" fill="#554e56"/><path d="m469.867 68.267h-137.6c-4.418 0-8-3.582-8-8v-52.267c0-4.418 3.582-8 8-8h137.6c4.418 0 8 3.582 8 8v52.267c0 4.418-3.582 8-8 8z" fill="#ffe652"/><path d="m469.625 0h-23.694c4.552 0 8.242 3.69 8.242 8.241v51.784c0 4.552-3.69 8.241-8.242 8.241h23.694c4.552 0 8.241-3.69 8.241-8.241v-51.784c.001-4.551-3.689-8.241-8.241-8.241z" fill="#f4c338"/><path d="m315.733 127.606h170.667v325.056h-170.667z" fill="#f03747"/><path d="m462.706 127.606h23.694v325.056h-23.694z" fill="#b9385d"/><path d="m486.692 443.422h-461.384c-4.552 0-8.242 3.69-8.242 8.242v31.043h477.867v-31.043c0-4.552-3.69-8.242-8.241-8.242z" fill="#fbf3f3"/><path d="m292.039 443.422h23.694v39.285h-23.694z" fill="#e8e3f0"/><path d="m486.692 443.422h-23.785c4.551 0 8.241 3.69 8.241 8.242v31.043h23.785v-31.043c0-4.552-3.69-8.242-8.241-8.242z" fill="#e8e3f0"/><path d="m443.267 221.867h-85.4c-4.418 0-8-3.582-8-8v-18.133c0-4.418 3.582-8 8-8h85.4c4.418 0 8 3.582 8 8v18.133c0 4.418-3.582 8-8 8z" fill="#8dd4ff"/><path d="m443.267 307.2h-85.4c-4.418 0-8-3.582-8-8v-18.133c0-4.418 3.582-8 8-8h85.4c4.418 0 8 3.582 8 8v18.133c0 4.418-3.582 8-8 8z" fill="#8dd4ff"/><path d="m435.733 375.467h-26.94l-7.726 4.378-7.726-4.378h-26.941c-4.418 0-8 3.582-8 8v99.239h85.333v-99.239c0-4.419-3.581-8-8-8z" fill="#e8e3f0"/><path d="m486.933 136.533h-171.733c-4.418 0-8-3.582-8-8v-18.133c0-4.418 3.582-8 8-8h171.733c4.418 0 8 3.582 8 8v18.133c0 4.419-3.581 8-8 8z" fill="#fbf3f3"/><path d="m269.514 443.733 3.553-7.726v-18.681l-3.553-7.726 3.553-7.726v-18.681l-3.553-7.726 3.553-7.726v-18.681l-3.553-7.726 3.553-7.726v-18.408c0-4.418-3.582-8-8-8h-188.8c-4.418 0-8 3.582-8 8v18.407l2.862 7.726-2.862 7.726v18.68l2.862 7.727-2.862 7.726v18.68l2.862 7.727-2.862 7.726v18.68l2.862 7.727-2.862 7.726v31.246h204.8v-31.244z" fill="#e8e3f0"/><path d="m486.692 102.4h-23.694c4.552 0 8.241 3.69 8.241 8.242v17.65c0 4.551-3.69 8.241-8.241 8.241h23.694c4.552 0 8.241-3.69 8.241-8.241v-17.65c0-4.552-3.69-8.242-8.241-8.242z" fill="#e8e3f0"/><path d="m444.025 187.733h-23.694c4.552 0 8.242 3.69 8.242 8.242v17.65c0 4.552-3.69 8.241-8.242 8.241h23.694c4.552 0 8.241-3.69 8.241-8.241v-17.65c.001-4.552-3.689-8.242-8.241-8.242z" fill="#45afff"/><path d="m444.025 273.067h-23.694c4.552 0 8.242 3.69 8.242 8.241v17.65c0 4.552-3.69 8.241-8.242 8.241h23.694c4.552 0 8.241-3.69 8.241-8.241v-17.65c.001-4.551-3.689-8.241-8.241-8.241z" fill="#45afff"/><path d="m435.492 375.467h-23.739c4.552 0 8.242 3.69 8.242 8.241v98.998h23.739v-98.998c-.001-4.552-3.691-8.241-8.242-8.241z" fill="#d3cbe4"/><path d="m408.793 482.706v-107.239h-15.453v107.239z" fill="#fbf3f3"/><path d="m504 512h-496c-4.418 0-8-3.582-8-8v-18.133c0-4.418 3.582-8 8-8h496c4.418 0 8 3.582 8 8v18.133c0 4.418-3.582 8-8 8z" fill="#7a6d79"/><path d="m503.758 477.867h-23.694c4.552 0 8.241 3.69 8.241 8.241v17.65c0 4.552-3.69 8.241-8.241 8.241h23.694c4.552 0 8.241-3.69 8.241-8.241v-17.65c.001-4.551-3.689-8.241-8.241-8.241z" fill="#554e56"/><g fill="#fbf3f3"><path d="m68.267 333.607h204.8v15.453h-204.8z"/><path d="m68.267 367.74h204.8v15.453h-204.8z"/><path d="m68.267 401.874h204.8v15.453h-204.8z"/><path d="m68.267 436.007h204.8v15.453h-204.8z"/></g></g></svg>