<svg id="Capa_1" enable-background="new 0 0 512 512" height="512" viewBox="0 0 512 512" width="512" xmlns="http://www.w3.org/2000/svg"><g><g><g><g><path d="m371.174 407.634-219.284-75.614h-8.879v-34.357h13.95l208.7 71.965h10.938v38.006z" fill="#e8e3f0"/></g></g></g><g><g><path d="m360.11 332.019-219.283 75.615h-4.86v-38.006h10.372l208.7-71.966h12.759v34.358z" fill="#fbf3f3"/></g></g><path d="m337.267 339.896 22.843-7.877 7.688.001v-34.358h-12.759l-22.833 7.874z" fill="#e8e3f0"/><path d="m171.588 360.921-25.249 8.707h-10.372v38.006h4.86l25.149-8.672z" fill="#e8e3f0"/><path d="m179.761 305.525-22.8-7.862h-13.95v34.357h8.879l22.802 7.862z" fill="#d3cbe4"/><path d="m345.963 398.941 25.211 8.693h5.425v-38.006h-10.938l-25.3-8.724z" fill="#d3cbe4"/><path d="m375.467 70.256h-238.934v58.551l4.66 8.542-4.66 6.911v37.045h238.934v-37.045l-4.999-8.233 4.999-7.22z" fill="#fbf3f3"/><path d="m375.467 128.807v-58.551h-23.694v111.049h23.694v-37.045l-4.999-8.233z" fill="#e8e3f0"/><path d="m136.533 128.807v15.453h43.474v26.407c0 4.268 3.459 7.726 7.726 7.726 4.268 0 7.726-3.459 7.726-7.726v-26.407h52.814v26.407c0 4.268 3.459 7.726 7.726 7.726 4.268 0 7.726-3.459 7.726-7.726v-26.407h52.814v26.407c0 4.268 3.459 7.726 7.726 7.726s7.726-3.459 7.726-7.726v-26.407h43.474v-15.453z" fill="#d3cbe4"/><path d="m149.476 194.785v75.118h11.581c12.476 12.59 29.74 20.231 48.508 20.231h3.768l42.667-19.475 42.667 19.474h3.768c18.769 0 36.032-7.641 48.508-20.231l8.023-.001v-75.118h-209.49z" fill="#fbf3f3"/><path d="m400.866 80.894h-289.732c-4.454 0-5.929-5.968-1.987-8.042l130.956-68.924c9.951-5.238 21.844-5.238 31.795 0l130.956 68.924c3.941 2.075 2.466 8.042-1.988 8.042z" fill="#7a6d79"/><g><path d="m136.533 197.847v6.953l-29.087 197.073 2.545 9.054-4.825 6.399-3.898 26.407v8.534h34.133v-8.534l3.898-26.407-3.332-9.692 5.613-5.761 29.087-197.073v-6.953z" fill="#7a6d79"/><path d="m403.165 410.376 1.388-8.503h.001l-29.087-197.073v-6.953h-34.134v6.953l29.087 197.073 4.231 8.558-1.95 6.895 3.898 26.407v8.534h34.133v-8.534l-3.898-26.407z" fill="#7a6d79"/><g fill="#554e56"><path d="m403.165 410.376 1.388-8.503h.001l-29.087-197.073v-6.953h-23.694v6.953l35.265 238.933v8.534h23.694v-8.534l-3.898-26.407z"/><path d="m146.985 197.847v6.953l-35.265 238.933v8.534h23.681v-8.534l3.898-26.407-3.332-9.692 5.613-5.761 29.087-197.073v-6.953z"/></g></g><path d="m402.853 72.852-130.956-68.924c-8.663-4.56-18.797-5.146-27.841-1.766 1.345.502 2.666 1.089 3.954 1.766l130.956 68.924c3.942 2.075 2.467 8.042-1.987 8.042h23.887c4.454 0 5.929-5.967 1.987-8.042z" fill="#554e56"/><path d="m401.6 204.8h-291.2c-4.418 0-8-3.582-8-8v-18.133c0-4.418 3.582-8 8-8h291.2c4.418 0 8 3.582 8 8v18.133c0 4.418-3.582 8-8 8z" fill="#918291"/><path d="m401.359 170.667h-23.694c4.552 0 8.241 3.69 8.241 8.241v17.65c0 4.552-3.69 8.241-8.241 8.241h23.694c4.552 0 8.241-3.69 8.241-8.241v-17.65c0-4.552-3.69-8.241-8.241-8.241z" fill="#7a6d79"/><path d="m271.075 256h-30.151c-6.452 0-12.353 3.639-15.25 9.404l-12.342 24.563v.166h85.333v-.166l-12.341-24.563c-2.896-5.765-8.796-9.404-15.249-9.404z" fill="#e8e3f0"/><path d="m139.299 417.326 2.281-15.453h-34.134l-2.28 15.453z" fill="#918291"/><path d="m404.553 401.873h-34.133l2.281 15.453h34.133z" fill="#918291"/><path d="m142.802 512h-48.934c-5.133 0-9.104-4.499-8.467-9.592l6.4-51.2c.534-4.27 4.164-7.475 8.467-7.475h36.134c4.304 0 7.934 3.205 8.467 7.475l6.4 51.2c.637 5.093-3.334 9.592-8.467 9.592z" fill="#fbf3f3"/><path d="m369.198 512h48.934c5.133 0 9.104-4.499 8.467-9.592l-6.4-51.2c-.534-4.27-4.164-7.475-8.467-7.475h-36.134c-4.303 0-7.934 3.205-8.467 7.475l-6.4 51.2c-.637 5.093 3.334 9.592 8.467 9.592z" fill="#fbf3f3"/><g fill="#e8e3f0"><path d="m426.599 502.408-6.4-51.2c-.534-4.27-4.164-7.475-8.467-7.475h-23.694c4.304 0 7.934 3.205 8.468 7.475l6.4 51.2c.637 5.093-3.335 9.592-8.467 9.592h23.694c5.132 0 9.103-4.499 8.466-9.592z"/><path d="m151.269 502.408-6.4-51.2c-.534-4.27-4.164-7.475-8.467-7.475h-23.694c4.304 0 7.934 3.205 8.467 7.475l6.4 51.2c.637 5.093-3.335 9.592-8.467 9.592h23.694c5.133 0 9.104-4.499 8.467-9.592z"/></g></g></svg>