<svg id="Capa_1" enable-background="new 0 0 512 512" height="512" viewBox="0 0 512 512" width="512" xmlns="http://www.w3.org/2000/svg"><g><path d="m496 512h-480c-8.837 0-16-7.163-16-16v-480c0-8.837 7.163-16 16-16h480c8.837 0 16 7.163 16 16v480c0 8.837-7.163 16-16 16z" fill="#fbf3f3"/><g><g><g><path d="m469.625 485.592h-137.117c-8.805 0-15.968-7.163-15.968-15.968v-85.916c0-8.805 7.163-15.968 15.968-15.968h137.117c8.805 0 15.968 7.163 15.968 15.968v85.916c0 8.806-7.163 15.968-15.968 15.968zm-137.117-102.399c-.284 0-.515.231-.515.515v85.916c0 .284.231.515.515.515h137.117c.284 0 .515-.231.515-.515v-85.916c0-.284-.231-.515-.515-.515z" fill="#d3cbe4"/></g></g><g><g><path d="m366.933 417.326h-8.533c-4.267 0-7.726-3.459-7.726-7.726 0-4.268 3.459-7.726 7.726-7.726h8.533c4.267 0 7.726 3.459 7.726 7.726s-3.459 7.726-7.726 7.726z" fill="#8dd4ff"/></g></g><g><path d="m443.733 417.326h-42.667c-4.267 0-7.726-3.459-7.726-7.726 0-4.268 3.459-7.726 7.726-7.726h42.667c4.267 0 7.726 3.459 7.726 7.726.001 4.267-3.459 7.726-7.726 7.726z" fill="#7a6d79"/></g><g><path d="m366.933 451.46h-8.533c-4.267 0-7.726-3.459-7.726-7.726s3.459-7.726 7.726-7.726h8.533c4.267 0 7.726 3.459 7.726 7.726s-3.459 7.726-7.726 7.726z" fill="#f03747"/></g><g><path d="m443.733 451.46h-42.667c-4.267 0-7.726-3.459-7.726-7.726s3.459-7.726 7.726-7.726h42.667c4.267 0 7.726 3.459 7.726 7.726s-3.459 7.726-7.726 7.726z" fill="#7a6d79"/></g></g><path d="m299.2 68.267h-86.4c-4.418 0-8-3.582-8-8v-18.134c0-4.418 3.582-8 8-8h86.4c4.418 0 8 3.582 8 8v18.133c0 4.419-3.582 8.001-8 8.001z" fill="#c0ed6b"/><g><path d="m281.6 460.8c4.713 0 8.533-3.82 8.533-8.533v-110.934h179.2c4.713 0 8.533-3.82 8.533-8.533v-221.867c0-4.713-3.82-8.533-8.533-8.533h-426.666c-4.713 0-8.533 3.82-8.533 8.533v341.333c0 4.713 3.82 8.533 8.533 8.533h238.933z" fill="#8dd4ff"/><g fill="#e8e3f0"><path d="m162.667 119.467h-52.267c-4.418 0-8-3.582-8-8v-18.134c0-4.418 3.582-8 8-8h52.267c4.418 0 8 3.582 8 8v18.133c0 4.419-3.582 8.001-8 8.001z"/><path d="m162.667 477.867h-52.267c-4.418 0-8-3.582-8-8v-18.133c0-4.418 3.582-8 8-8h52.267c4.418 0 8 3.582 8 8v18.133c0 4.418-3.582 8-8 8z"/><path d="m401.6 119.467h-52.267c-4.418 0-8-3.582-8-8v-18.134c0-4.418 3.582-8 8-8h52.267c4.418 0 8 3.582 8 8v18.133c0 4.419-3.582 8.001-8 8.001z"/></g><path d="m401.359 85.333h-23.694c4.552 0 8.241 3.69 8.241 8.241v17.651c0 4.551-3.69 8.241-8.241 8.241h23.694c4.552 0 8.241-3.69 8.241-8.241v-17.65c0-4.552-3.69-8.242-8.241-8.242z" fill="#d3cbe4"/><path d="m162.425 85.333h-23.694c4.552 0 8.241 3.69 8.241 8.241v17.651c0 4.551-3.69 8.241-8.241 8.241h23.694c4.552 0 8.242-3.69 8.242-8.241v-17.65c0-4.552-3.69-8.242-8.242-8.242z" fill="#d3cbe4"/><path d="m162.425 443.733h-23.694c4.552 0 8.241 3.69 8.241 8.241v17.651c0 4.552-3.69 8.241-8.241 8.241h23.694c4.552 0 8.242-3.69 8.242-8.241v-17.651c0-4.551-3.69-8.241-8.242-8.241z" fill="#d3cbe4"/><g><g><g><path d="m266.439 452.267c0 4.713-3.82 8.533-8.533 8.533h23.694c4.713 0 8.533-3.82 8.533-8.533v-128h-23.694z" fill="#45afff"/></g><g><path d="m469.333 102.4h-23.694c4.713 0 8.533 3.82 8.533 8.533v221.867c0 4.713-3.82 8.533-8.533 8.533h23.694c4.713 0 8.533-3.82 8.533-8.533v-221.867c.001-4.713-3.82-8.533-8.533-8.533z" fill="#45afff"/></g></g></g><g fill="#fbf3f3"><path d="m93.867 282.408h-59.734c-4.267 0-7.726 3.459-7.726 7.726 0 4.268 3.459 7.726 7.726 7.726h59.733c4.267 0 7.726-3.459 7.726-7.726.001-4.268-3.458-7.726-7.725-7.726z"/><path d="m93.867 180.007h-59.734c-4.267 0-7.726 3.459-7.726 7.726 0 4.268 3.459 7.726 7.726 7.726h59.733c4.267 0 7.726-3.459 7.726-7.726.001-4.267-3.458-7.726-7.725-7.726z"/><path d="m162.133 195.46h52.007v9.34c0 4.268 3.459 7.726 7.726 7.726s7.726-3.459 7.726-7.726v-102.4c0-4.268-3.459-7.726-7.726-7.726s-7.726 3.459-7.726 7.726v77.607h-52.007c-4.267 0-7.726 3.459-7.726 7.726 0 4.268 3.459 7.727 7.726 7.727z"/><path d="m297.86 162.941c-4.267 0-7.726 3.459-7.726 7.726v145.873h-60.54v-43.474c0-4.268-3.459-7.726-7.726-7.726s-7.726 3.459-7.726 7.726v9.341h-52.007c-4.267 0-7.726 3.459-7.726 7.726 0 4.268 3.459 7.726 7.726 7.726h52.007v26.406c0 4.268 3.459 7.726 7.726 7.726h68.267v9.34c0 4.268 3.459 7.726 7.726 7.726s7.726-3.459 7.726-7.726v-170.664c-.001-4.268-3.46-7.726-7.727-7.726z"/><path d="m477.867 299.474h-94.673v-18.681h94.673c4.267 0 7.726-3.459 7.726-7.726s-3.459-7.726-7.726-7.726h-94.673v-26.406c0-4.268-3.459-7.726-7.726-7.726s-7.726 3.459-7.726 7.726v102.399c0 4.268 3.459 7.726 7.726 7.726s7.726-3.459 7.726-7.726v-26.406h94.673c4.267 0 7.726-3.459 7.726-7.726s-3.459-7.728-7.726-7.728z"/></g></g><path d="m495.517 0h-23.694c9.103 0 16.483 7.38 16.483 16.483v479.034c0 9.103-7.379 16.483-16.483 16.483h23.694c9.103 0 16.483-7.38 16.483-16.483v-479.034c0-9.103-7.38-16.483-16.483-16.483z" fill="#e8e3f0"/><path d="m298.959 34.133h-23.694c4.551 0 8.241 3.69 8.241 8.242v17.65c0 4.551-3.69 8.241-8.241 8.241h23.694c4.552 0 8.241-3.69 8.241-8.241v-17.65c0-4.552-3.69-8.242-8.241-8.242z" fill="#95cf53"/></g></svg>