<svg id="Capa_1" enable-background="new 0 0 512 512" height="512" viewBox="0 0 512 512" width="512" xmlns="http://www.w3.org/2000/svg"><g><g><path d="m238.933 95.169h34.133v48.596h-34.133z" fill="#7a6d79"/><path d="m324.267 0-68.267 42.667-68.267-42.667-18.523 34.606 18.523 16.594 42.667 25.6h51.2l42.667-25.6 14.837-16.594z" fill="#7a6d79"/><path d="m281.6 76.8-8.533 25.6h-34.134l-8.533-25.6 25.6-34.133z" fill="#9f5f4b"/></g><path d="m187.733 94.674v-94.674l-34.133 17.067v77.607l3.565 7.726-3.565 7.727v38.46h34.133v-38.46l-3.32-8.674z" fill="#918291"/><path d="m358.4 94.674v-77.607l-34.133-17.067v94.674l3.981 7.726-3.981 7.727v38.46h34.133v-38.46l-3.73-7.727z" fill="#918291"/><path d="m358.4 94.674v-77.607l-23.694-11.847v143.367h23.694v-38.46l-3.73-7.727z" fill="#7a6d79"/><path d="m324.267 110.127h34.133v-15.453h-34.133z" fill="#554e56"/><path d="m153.6 110.127h34.133v-15.453h-34.133z" fill="#554e56"/><path d="m414.298 443.243-13.035-15.478 10.614-18.635-2.39-33.674-13.012-15.231 10.591-18.881-13.408-188.952c-.634-8.934-8.067-15.859-17.024-15.859h-86.501l-34.133 10.126-34.133-10.126h-86.501c-8.957 0-16.39 6.924-17.024 15.859l-13.408 188.952 7.229 13.936-9.65 20.176-2.39 33.674 6.255 17.067-8.676 17.046-2.692 37.932c-.643 8.997 5.827 16.941 14.768 18.133l94.058 12.541c9.766 1.302 18.604-5.913 19.282-15.743l2.542-35.796-10.525-18.621 12.947-15.491 2.391-33.674-10.525-18.621 12.947-15.491 5.495-77.392c.306-4.477 4.026-7.952 8.514-7.952h18.192c4.487 0 8.208 3.475 8.514 7.952l5.495 77.392 9.87 18.933-7.448 15.179 2.391 33.674 10.048 15.491-7.625 18.621 2.542 35.796c.678 9.83 9.515 17.045 19.282 15.743l94.058-12.541c8.941-1.192 15.41-9.136 14.768-18.133z" fill="#ff7f3b"/><g fill="#f55b31"><path d="m225.66 460.309-10.525-18.621 12.947-15.491 2.391-33.674-10.525-18.621 12.947-15.491 5.495-77.392c.306-4.477 4.026-7.952 8.514-7.952h-23.694c-4.487 0-8.208 3.475-8.514 7.952l-15.272 215.087c-.425 6.157-4.051 11.286-9.101 13.941l13.513 1.802c9.766 1.302 18.604-5.913 19.282-15.743z"/><path d="m414.298 443.243-13.035-15.478 10.614-18.635-2.39-33.674-13.012-15.231 10.591-18.881-13.408-188.952c-.634-8.934-8.067-15.859-17.024-15.859h-23.694c8.957 0 16.39 6.924 17.024 15.859l23.331 332c.614 8.592-5.265 16.208-13.582 17.916l22.508-3.001c8.941-1.192 15.41-9.136 14.768-18.133z"/></g><path d="m256 180.007c-4.267 0-7.726 3.459-7.726 7.726v85.333h15.453v-85.333c-.001-4.267-3.46-7.726-7.727-7.726z" fill="#f55b31"/><g><path d="m358.4 178.393h-204.8c-4.267 0-7.726-3.459-7.726-7.726 0-4.268 3.459-7.726 7.726-7.726h204.8c4.267 0 7.726 3.459 7.726 7.726 0 4.268-3.459 7.726-7.726 7.726z" fill="#f55b31"/></g><path d="m274.133 187.733h-36.267c-8.837 0-16-7.163-16-16v-35.2h68.267v35.2c0 8.837-7.163 16-16 16z" fill="#fbf3f3"/><path d="m401.676 265.367c-.158.012-.316.018-.475.04l-127.491 17.004 1.094 15.413c.159-.011.316-.01.476-.032l127.491-17.004z" fill="#f55b31"/><path d="m110.8 265.407c-.16-.021-.317-.028-.475-.04l-1.094 15.421 127.491 17.004c.16.021.317.02.476.032l1.094-15.413z" fill="#f55b31"/><path d="m102.512 375.456 127.961 17.067 2.422-34.112-127.962-17.067z" fill="#c0ed6b"/><path d="m207.001 389.392 23.472 3.131 2.422-34.112-23.472-3.131z" fill="#95cf53"/><path d="m97.702 443.243 127.958 17.066 2.422-34.112-127.959-17.067z" fill="#c0ed6b"/><path d="m204.61 423.066-2.422 34.113 23.472 3.13 2.422-34.112z" fill="#95cf53"/><path d="m409.488 375.456-127.961 17.067-2.422-34.112 127.962-17.067z" fill="#c0ed6b"/><path d="m383.464 344.492 2.398 34.115 23.626-3.151-2.421-34.112z" fill="#95cf53"/><path d="m414.298 443.243-127.958 17.066-2.422-34.112 127.959-17.067z" fill="#c0ed6b"/><path d="m411.877 409.13-23.649 3.154 2.398 34.116 23.672-3.157z" fill="#95cf53"/><path d="m266.439 136.533v34.717c0 9.103-7.38 16.483-16.483 16.483h23.694c9.103 0 16.483-7.38 16.483-16.483v-34.717z" fill="#e8e3f0"/></g></svg>