<svg id="Capa_1" enable-background="new 0 0 512 512" height="512" viewBox="0 0 512 512" width="512" xmlns="http://www.w3.org/2000/svg"><g><path d="m427.834 0h-343.668c-18.207 0-32.966 14.759-32.966 32.966v446.068c0 18.207 14.759 32.966 32.966 32.966h18.234l42.667-17.067 42.666 17.067h136.533l42.667-17.067 42.667 17.067h18.234c18.207 0 32.966-14.759 32.966-32.966v-446.068c0-18.207-14.759-32.966-32.966-32.966z" fill="#f03747"/><path d="m409.667 375.467h-308.334c-8.837 0-16-7.163-16-16v-206.934c0-8.837 7.163-16 16-16h308.333c8.837 0 16 7.163 16 16v206.933c.001 8.837-7.163 16.001-15.999 16.001z" fill="#b9385d"/><g><ellipse cx="256" cy="443.733" fill="#b9385d" rx="34.133" ry="34.133" transform="matrix(.972 -.233 .233 .972 -96.403 71.917)"/></g><g><g fill="#fff"><path d="m218.666 26.407c-4.267 0-7.726 3.459-7.726 7.726v68.267c0 4.268 3.459 7.726 7.726 7.726s7.726-3.459 7.726-7.726v-68.266c.001-4.268-3.458-7.727-7.726-7.727z"/><path d="m181.066 42.359c4.267 0 7.726-3.459 7.726-7.726s-3.459-7.726-7.726-7.726h-27.466c-4.267 0-7.726 3.459-7.726 7.726v67.767c0 4.268 3.459 7.726 7.726 7.726s7.726-3.459 7.726-7.726v-26.798h17.558c4.267 0 7.726-3.459 7.726-7.726 0-4.268-3.459-7.726-7.726-7.726h-17.558v-17.79h19.74z"/><path d="m358.4 94.674h-20.777v-18.369h18.675c4.268 0 7.726-3.459 7.726-7.726 0-4.268-3.459-7.726-7.726-7.726h-18.675v-18.37h20.777c4.268 0 7.726-3.459 7.726-7.726 0-4.268-3.459-7.726-7.726-7.726h-28.503c-4.268 0-7.726 3.459-7.726 7.726v67.643c0 4.268 3.459 7.726 7.726 7.726h28.503c4.268 0 7.726-3.459 7.726-7.726s-3.458-7.726-7.726-7.726z"/><path d="m300.655 51.875c0-14.043-11.875-25.468-26.472-25.468h-18.141c-.004 0-.007.001-.011.001s-.007-.001-.011-.001c-4.267 0-7.726 3.459-7.726 7.726v68.267c0 4.268 3.459 7.726 7.726 7.726 4.268 0 7.726-3.459 7.726-7.726v-21.463l23.382 26.568c1.527 1.735 3.66 2.622 5.803 2.622 1.813 0 3.634-.635 5.102-1.927 3.203-2.819 3.514-7.701.695-10.904l-18.213-20.694c11.548-2.739 20.14-12.783 20.14-24.727zm-26.472 10.015c-2.397 0-6.59.018-10.332.036-.019-3.662-.037-7.733-.037-10.051 0-1.964-.011-6.182-.021-10.015h10.39c5.973 0 11.019 4.586 11.019 10.015s-5.046 10.015-11.019 10.015z"/></g></g><path d="m392.533 178.908c0-4.552-3.69-8.241-8.241-8.241h-256.584c-4.552 0-8.241 3.69-8.241 8.241v94.158l102.4 68.267h68.267l102.4-68.267v-94.158z" fill="#7a6d79"/><path d="m368.839 178.908v109.955l23.694-15.796v-94.158c0-4.552-3.69-8.241-8.241-8.241h-23.694c4.551-.001 8.241 3.689 8.241 8.24z" fill="#554e56"/><path d="m221.867 341.333-68.267-68.266v-42.667c0-4.713 3.82-8.533 8.533-8.533h187.733c4.713 0 8.533 3.82 8.533 8.533v42.667l-68.267 68.267h-68.265z" fill="#fbf3f3"/><path d="m349.867 221.867h-23.694c4.713 0 8.533 3.821 8.533 8.533v66.361l23.694-23.694v-42.667c0-4.713-3.82-8.533-8.533-8.533z" fill="#e8e3f0"/><g><g><path d="m256 314.927c-4.267 0-7.726-3.459-7.726-7.726v-17.066c0-4.268 3.459-7.726 7.726-7.726 4.268 0 7.726 3.459 7.726 7.726v17.065c0 4.268-3.458 7.727-7.726 7.727z" fill="#c0ed6b"/></g></g><path d="m427.834 0h-23.694c18.206 0 32.966 14.759 32.966 32.966v446.068c0 18.206-14.759 32.966-32.966 32.966h23.694c18.207 0 32.966-14.759 32.966-32.966v-446.068c0-18.207-14.759-32.966-32.966-32.966z" fill="#b9385d"/><path d="m410.184 136.533h-23.694c9.103 0 16.483 7.38 16.483 16.483v205.968c0 9.103-7.38 16.483-16.483 16.483h23.694c9.103 0 16.483-7.38 16.483-16.483v-205.968c0-9.103-7.38-16.483-16.483-16.483z" fill="#9e2950"/><path d="m392.533 273.067h-93.867c-4.713 0-8.533 3.821-8.533 8.533v59.733h71.903l16.651-3.82z" fill="#f03747"/><path d="m213.333 273.067h-93.867v60.025c0 4.552 3.69 8.241 8.241 8.241h94.159v-59.733c.001-4.713-3.82-8.533-8.533-8.533z" fill="#f03747"/><path d="m256 409.6c-4.166 0-8.156.749-11.847 2.115 13.011 4.816 22.286 17.333 22.286 32.018s-9.275 27.202-22.286 32.018c3.691 1.366 7.681 2.115 11.847 2.115 18.851 0 34.133-15.282 34.133-34.133s-15.282-34.133-34.133-34.133z" fill="#9e2950"/><g><g><path d="m260.267 451.46h-8.533c-4.267 0-7.726-3.459-7.726-7.726s3.459-7.726 7.726-7.726h8.533c4.268 0 7.726 3.459 7.726 7.726s-3.459 7.726-7.726 7.726z" fill="#554e56"/></g></g><path d="m102.4 512 5.301-21.206c1.899-7.598 8.726-12.927 16.557-12.927h41.616c7.831 0 14.658 5.33 16.557 12.927l5.302 21.206z" fill="#b9385d"/><path d="m324.267 512 5.302-21.206c1.899-7.598 8.726-12.927 16.557-12.927h41.616c7.831 0 14.658 5.33 16.557 12.927l5.301 21.206z" fill="#b9385d"/><g fill="#9e2950"><path d="m404.299 490.794c-1.9-7.598-8.726-12.927-16.557-12.927h-23.694c7.831 0 14.658 5.33 16.557 12.927l5.301 21.206h23.694z"/><path d="m182.432 490.794c-1.899-7.598-8.726-12.927-16.557-12.927h-23.694c7.831 0 14.658 5.33 16.557 12.927l5.301 21.206h23.694z"/><path d="m368.839 333.092c0 4.552-3.69 8.241-8.241 8.241h23.694c4.552 0 8.241-3.69 8.241-8.241v-60.025h-23.694z"/></g></g></svg>