<svg id="Capa_1" enable-background="new 0 0 512 512" height="512" viewBox="0 0 512 512" width="512" xmlns="http://www.w3.org/2000/svg"><g><path d="m369.401 405.597 49.027 49.027c10.272 10.272 3.831 27.864-10.646 29.074l-8.126.68c-16.085 1.345-31.986 4.361-47.447 8.999l-29.384 8.815c-21.678 6.504-44.191 9.808-66.825 9.808-22.634 0-45.146-3.304-66.826-9.808l-29.384-8.815c-15.46-4.638-31.361-7.654-47.446-8.999l-8.126-.68c-14.477-1.21-20.918-18.802-10.646-29.074l49.027-49.027v-299.209l-49.013-49.013c-10.272-10.272-3.831-27.864 10.645-29.074l8.113-.678c16.085-1.345 31.986-4.361 47.446-8.999l29.385-8.816c21.679-6.504 44.191-9.808 66.825-9.808 22.634 0 45.146 3.304 66.825 9.808l29.384 8.815c15.46 4.638 31.362 7.654 47.447 8.999l8.113.678c14.477 1.211 20.918 18.802 10.645 29.074l-49.013 49.013z" fill="#b9385d"/><path d="m418.428 454.624-49.027-49.027v-299.209l49.013-49.013c10.272-10.272 3.831-27.864-10.645-29.074l-8.113-.678c-4.405-.368-8.796-.874-13.168-1.492 12.746 2.843 17.914 19.02 8.232 28.702l-49.013 49.013v304.333l49.027 49.027c9.572 9.572 4.628 25.493-7.804 28.6 4.226-.589 8.469-1.07 12.726-1.426l8.126-.68c14.477-1.212 20.918-18.804 10.646-29.076z" fill="#9e2950"/><path d="m405.604 142.591 49.019-49.019c10.272-10.272 27.864-3.831 29.074 10.645l.68 8.126c1.345 16.085 4.361 31.985 8.999 47.445l8.816 29.386c6.504 21.68 9.808 44.193 9.808 66.826 0 22.634-3.304 45.146-9.808 66.825l-8.816 29.386c-4.638 15.46-7.654 31.361-8.999 47.445l-.678 8.113c-1.21 14.477-18.802 20.918-29.074 10.646l-49.02-49.02h-299.209l-49.021 49.02c-10.272 10.272-27.864 3.831-29.074-10.645l-.678-8.113c-1.345-16.085-4.361-31.986-8.999-47.447l-8.815-29.384c-6.505-21.68-9.809-44.192-9.809-66.826 0-22.633 3.304-45.146 9.808-66.825l8.815-29.384c4.638-15.461 7.654-31.362 8.999-47.447l.68-8.127c1.21-14.476 18.802-20.917 29.074-10.645l49.019 49.019z" fill="#b9385d"/><g fill="#9e2950"><path d="m33.682 93.572 32.265 32.265c10.728 10.728 25.277 16.754 40.449 16.754l-49.02-49.019c-7.092-7.092-17.671-6.215-23.941-.229.082.078.166.148.247.229z"/><path d="m33.681 418.414c-.081.081-.165.151-.247.229 6.27 5.986 16.849 6.863 23.941-.229l49.02-49.02c-15.171 0-29.721 6.027-40.448 16.754z"/><path d="m502.192 189.175-8.816-29.386c-4.638-15.46-7.654-31.361-8.999-47.445l-.68-8.126c-1.201-14.363-18.524-20.807-28.828-10.875 2.812 2.684 4.759 6.393 5.134 10.875l.68 8.126c1.345 16.085 4.361 31.985 8.999 47.445l8.816 29.386c6.504 21.679 9.808 44.191 9.808 66.825 0 22.633-3.304 45.146-9.808 66.825l-8.816 29.386c-4.638 15.46-7.654 31.361-8.999 47.445l-.678 8.113c-.375 4.482-2.322 8.191-5.134 10.875 10.304 9.932 27.627 3.488 28.828-10.875l.678-8.113c1.345-16.084 4.361-31.985 8.999-47.445l8.816-29.386c6.504-21.679 9.808-44.192 9.808-66.825 0-22.633-3.304-45.146-9.808-66.825z"/></g><path d="m87.897 339.621-18.935 18.935c-4.683 4.683-12.7 2.482-14.299-3.945-1.019-4.098-2.136-8.17-3.348-12.21l-8.815-29.385c-5.553-18.509-8.368-37.692-8.368-57.017s2.816-38.508 8.368-57.017l8.815-29.384c1.213-4.044 2.331-8.12 3.351-12.223 1.598-6.427 9.616-8.628 14.299-3.945l18.932 18.932h336.205l18.932-18.932c4.683-4.683 12.7-2.482 14.299 3.945 1.02 4.101 2.137 8.177 3.35 12.22l8.816 29.386c5.553 18.509 8.368 37.692 8.368 57.017s-2.816 38.508-8.368 57.017l-8.816 29.387c-1.212 4.039-2.328 8.111-3.348 12.208-1.599 6.427-9.616 8.628-14.298 3.945l-18.935-18.935h-336.205z" fill="#fbf3f3"/><path d="m172.371 424.095-18.939 18.94c-4.683 4.683-2.482 12.7 3.945 14.299 4.102 1.02 8.177 2.137 12.221 3.351l29.384 8.815c18.51 5.553 37.693 8.368 57.018 8.368s38.508-2.815 57.019-8.368l29.383-8.815c4.044-1.213 8.12-2.33 12.222-3.351 6.427-1.598 8.628-9.616 3.945-14.299l-18.939-18.94v-336.205l18.928-18.928c4.683-4.683 2.482-12.7-3.945-14.299-4.098-1.02-8.17-2.136-12.21-3.348l-29.384-8.815c-18.509-5.553-37.693-8.368-57.017-8.368s-38.508 2.816-57.017 8.368l-29.385 8.816c-4.04 1.212-8.112 2.328-12.21 3.348-6.427 1.599-8.628 9.616-3.945 14.299l18.928 18.928z" fill="#fbf3f3"/><ellipse cx="256" cy="255.993" fill="#f03747" rx="187.728" ry="187.728" transform="matrix(.707 -.707 .707 .707 -106.034 255.998)"/><circle cx="256" cy="255.993" fill="#fbf3f3" r="153.596"/><path d="m256 102.397c-3.986 0-7.937.152-11.847.451 79.293 6.049 141.749 72.303 141.749 153.145s-62.456 147.097-141.749 153.145c3.91.298 7.861.45 11.847.45 84.829 0 153.596-68.767 153.596-153.596s-68.768-153.595-153.596-153.595z" fill="#e8e3f0"/><g><path d="m341.339 260.899-5.535-36.395c-1.947-12.804-7.937-24.65-17.095-33.808-7.535-7.535-16.92-12.954-27.213-15.714l-16.115-4.321h-38.745l-16.115 4.321c-10.293 2.76-19.678 8.179-27.213 15.714-9.158 9.158-15.148 21.004-17.095 33.808l-5.535 36.395v20.69h170.662v-20.69z" fill="#f03747"/><path d="m335.803 224.504c-1.947-12.804-7.937-24.65-17.095-33.808-7.535-7.535-16.92-12.954-27.213-15.714l-16.115-4.321h-23.694l16.115 4.321c10.293 2.76 19.678 8.179 27.213 15.714 9.158 9.158 15.148 21.004 17.095 33.808l8.682 57.085h20.547v-20.69z" fill="#b9385d"/><path d="m270.211 189.826 5.169-19.164-1.307-9.676c-.572-4.233-4.185-7.39-8.456-7.39h-19.217c-4.271 0-7.884 3.158-8.456 7.39l-7.535 55.755v10.273h39.802z" fill="#b9385d"/><path d="m274.073 160.986c-.572-4.233-4.185-7.39-8.456-7.39h-19.217c-.776 0-1.529.107-2.247.303 3.235.883 5.741 3.624 6.209 7.087l7.534 55.755v10.273h23.712v-10.274z" fill="#9e2950"/><path d="m221.876 285.365v-14.178l-4.238-20.258c-2.635-12.596 2.038-25.603 12.087-33.641l15.622-12.497c6.233-4.986 15.089-4.986 21.322 0l15.622 12.497c10.048 8.039 14.722 21.046 12.087 33.641l-4.238 20.258v14.178z" fill="#ffe652"/><path d="m282.291 217.287-15.622-12.497c-6.233-4.986-15.089-4.986-21.322 0l-1.186.949 14.436 11.549c10.048 8.039 14.722 21.046 12.087 33.641l-4.238 20.258v14.178h23.694v-14.178l4.238-20.258c2.635-12.596-2.039-25.603-12.087-33.642z" fill="#f4c338"/><g><path d="m256.008 307.191c-64.225 0-107.178-17.634-108.975-18.385-8.698-3.633-12.803-13.629-9.169-22.325 3.633-8.698 13.627-12.803 22.325-9.17.346.143 38.865 15.747 95.819 15.747s95.473-15.605 95.856-15.763c8.7-3.586 18.679.538 22.286 9.23 3.606 8.691-.483 18.654-9.166 22.281-1.798.751-44.751 18.385-108.976 18.385z" fill="#b9385d"/></g><path d="m374.149 266.526c-3.607-8.691-13.586-12.816-22.286-9.23-.166.069-7.555 3.061-20.532 6.419 7.76-1.446 15.746 2.656 18.89 10.232 3.606 8.691-.483 18.654-9.166 22.281-.19.079-.846.35-1.935.766 15.815-4.054 25.05-7.848 25.863-8.188 8.683-3.627 12.772-13.589 9.166-22.28z" fill="#9e2950"/></g><path d="m273.599 375.456h-35.199c-4.418 0-8-3.582-8-8v-18.132c0-4.418 3.582-8 8-8h35.199c4.418 0 8 3.582 8 8v18.132c0 4.418-3.582 8-8 8z" fill="#7a6d79"/><path d="m273.358 341.324h-23.815c4.552 0 8.242 3.69 8.242 8.241v17.649c0 4.552-3.69 8.242-8.242 8.242h23.815c4.552 0 8.242-3.69 8.242-8.242v-17.649c-.001-4.552-3.691-8.241-8.242-8.241z" fill="#554e56"/></g></svg>