<svg id="Capa_1" enable-background="new 0 0 512 512" height="512" viewBox="0 0 512 512" width="512" xmlns="http://www.w3.org/2000/svg"><g><path d="m362.326 477.864h-164.826v-34.133h158.144z" fill="#e8e3f0"/><path d="m355.644 443.731h-30.939l6.682 34.133h30.939z" fill="#d3cbe4"/><path d="m179.899 324.265 5.828-7.726 4.104-22.985-31.648-16.94-7.129 39.925v8.809l-2.76 6.643-14.573 81.611 34.983-1.737 14.263-79.874z" fill="#fbf3f3"/><path d="m179.899 324.265 5.828-7.726 4.104-22.985-21.627-11.576-23.406 131.074 23.906-1.187 14.263-79.874z" fill="#e8e3f0"/><path d="m392.266 491.93-28.56-159.939-5.678-7.084 2.919-8.369-7.129-39.924-31.648 16.939 4.104 22.985 6.003 7.048-3.244 8.405 29.632 165.939c1.476 8.264 8.67 14.07 16.781 14.07.996 0 2.005-.087 3.02-.269 9.278-1.657 15.457-10.522 13.8-19.801z" fill="#fbf3f3"/><path d="m392.266 491.93-28.56-159.939-5.678-7.084 2.919-8.369-7.129-39.924-21.541 11.53 36.39 203.787c1.042 5.836-1.018 11.505-4.997 15.323 3.111 2.973 7.301 4.747 11.777 4.747.996 0 2.005-.088 3.02-.269 9.277-1.658 15.456-10.523 13.799-19.802z" fill="#e8e3f0"/><ellipse cx="153.601" cy="460.797" fill="#7a6d79" rx="51.199" ry="51.2" transform="matrix(.924 -.383 .383 .924 -164.647 93.857)"/><path d="m153.601 409.598c-4.09 0-8.062.494-11.875 1.399 22.548 5.358 39.325 25.613 39.325 49.8s-16.777 44.443-39.325 49.8c3.813.906 7.785 1.399 11.875 1.399 28.277 0 51.199-22.923 51.199-51.2 0-28.275-22.922-51.198-51.199-51.198z" fill="#554e56"/><circle cx="153.601" cy="460.797" fill="#fbf3f3" r="17.066"/><path d="m401.065 187.733c0 27.319-10.852 53.518-30.17 72.836l-7.927 7.927c-19.317 19.317-45.517 30.17-72.836 30.17h-68.266c-27.319 0-53.519-10.852-72.836-30.17l-7.927-7.927c-19.317-19.317-30.17-45.517-30.17-72.836v-13.629h290.131v13.629" fill="#f03747"/><path d="m213.867 255.999h-35.2c-4.418 0-8-3.582-8-8v-18.133c0-4.418 3.582-8 8-8h35.2c4.418 0 8 3.582 8 8v18.133c0 4.419-3.582 8-8 8z" fill="#fbf3f3"/><g><g fill="#e8e3f0"><path d="m247.451 119.47c-3.253 0-6.541-.928-9.451-2.868-7.843-5.229-9.962-15.825-4.734-23.668l6.482-9.724c3.141-4.71 3.519-10.781.987-15.842-7.996-15.99-6.802-35.165 3.115-50.042l6.482-9.724c5.228-7.842 15.824-9.963 23.668-4.734 7.843 5.229 9.962 15.825 4.734 23.667l-6.482 9.724c-3.141 4.71-3.519 10.781-.988 15.843 7.996 15.99 6.802 35.165-3.115 50.042l-6.482 9.724c-3.288 4.932-8.701 7.602-14.216 7.602z"/><path d="m153.585 119.47c-3.253 0-6.541-.928-9.451-2.868-7.843-5.229-9.962-15.825-4.734-23.668l6.482-9.724c3.141-4.71 3.519-10.781.987-15.842-7.996-15.99-6.802-35.165 3.115-50.042l6.482-9.724c5.228-7.842 15.824-9.962 23.667-4.734 7.842 5.229 9.962 15.825 4.734 23.667l-6.482 9.724c-3.141 4.71-3.519 10.781-.988 15.843 7.996 15.99 6.802 35.165-3.115 50.042l-6.482 9.724c-3.287 4.932-8.7 7.602-14.215 7.602z"/><path d="m341.317 119.47c-3.253 0-6.54-.928-9.451-2.868-7.843-5.229-9.962-15.825-4.734-23.668l6.482-9.724c3.141-4.71 3.519-10.781.988-15.842-7.996-15.99-6.802-35.165 3.115-50.042l6.482-9.724c5.228-7.842 15.824-9.962 23.667-4.734 7.843 5.229 9.962 15.825 4.734 23.667l-6.482 9.724c-3.141 4.71-3.519 10.781-.987 15.843 7.996 15.99 6.802 35.165-3.115 50.042l-6.482 9.724c-3.289 4.932-8.703 7.602-14.217 7.602z"/></g></g><path d="m377.371 174.105v13.629c0 27.319-10.853 53.518-30.17 72.836l-7.927 7.927c-19.317 19.317-45.517 30.17-72.836 30.17h23.694c27.319 0 53.518-10.853 72.836-30.17l7.927-7.927c19.317-19.317 30.17-45.517 30.17-72.836v-13.629z" fill="#b9385d"/><path d="m213.626 221.866h-23.694c4.551 0 8.241 3.69 8.241 8.241v17.65c0 4.552-3.69 8.242-8.241 8.242h23.694c4.551 0 8.241-3.69 8.241-8.242v-17.65c0-4.551-3.69-8.241-8.241-8.241z" fill="#e8e3f0"/><path d="m418.665 187.733h-325.33c-4.418 0-8-3.582-8-8v-18.133c0-4.418 3.582-8 8-8h325.33c4.418 0 8 3.582 8 8v18.133c0 4.419-3.582 8-8 8z" fill="#fbf3f3"/><path d="m418.423 153.6h-23.692c4.551 0 8.241 3.69 8.241 8.242v17.65c0 4.552-3.69 8.241-8.241 8.241h23.692c4.552 0 8.241-3.69 8.241-8.241v-17.65c.001-4.552-3.689-8.242-8.241-8.242z" fill="#e8e3f0"/><g><g fill="#d3cbe4"><path d="m278.734 26.535c5.228-7.843 3.108-18.438-4.734-23.667-6.804-4.535-15.673-3.533-21.319 1.928 5.834 5.618 7.009 14.763 2.359 21.739l-6.482 9.724c-3.141 4.71-3.519 10.781-.987 15.843 7.996 15.99 6.802 35.165-3.115 50.042l-6.482 9.724c-.693 1.039-1.485 1.972-2.348 2.807.724.698 1.508 1.35 2.375 1.928 2.91 1.939 6.198 2.868 9.451 2.868 5.515 0 10.928-2.67 14.216-7.602l6.482-9.724c9.917-14.877 11.11-34.052 3.115-50.042-2.531-5.062-2.153-11.132.987-15.843z"/><path d="m184.868 26.535c5.228-7.843 3.108-18.438-4.734-23.667-6.804-4.535-15.673-3.533-21.319 1.928 5.834 5.618 7.01 14.763 2.359 21.739l-6.482 9.724c-3.141 4.71-3.519 10.781-.987 15.843 7.996 15.99 6.802 35.165-3.115 50.042l-6.482 9.724c-.693 1.039-1.485 1.972-2.348 2.807.724.698 1.509 1.35 2.375 1.928 2.91 1.939 6.198 2.868 9.451 2.868 5.514 0 10.928-2.67 14.216-7.602l6.482-9.724c9.917-14.877 11.111-34.052 3.115-50.042-2.531-5.062-2.153-11.132.988-15.843z"/><path d="m372.6 26.535c5.228-7.843 3.108-18.438-4.734-23.667-6.804-4.535-15.673-3.533-21.319 1.928 5.833 5.618 7.009 14.763 2.359 21.739l-6.482 9.724c-3.14 4.71-3.519 10.781-.987 15.843 7.996 15.99 6.802 35.165-3.114 50.042l-6.482 9.724c-.693 1.039-1.486 1.972-2.348 2.807.724.698 1.509 1.35 2.375 1.928 2.91 1.939 6.198 2.868 9.451 2.868 5.515 0 10.928-2.67 14.217-7.602l6.482-9.724c9.917-14.877 11.11-34.052 3.115-50.042-2.531-5.062-2.153-11.132.987-15.843z"/></g></g><path d="m153.601 443.731c-4.605 0-8.777 1.833-11.847 4.798 3.213 3.103 5.219 7.448 5.219 12.268s-2.006 9.165-5.219 12.268c3.07 2.965 7.242 4.798 11.847 4.798 9.426 0 17.066-7.641 17.066-17.067 0-9.424-7.64-17.065-17.066-17.065z" fill="#e8e3f0"/><g fill="#d3cbe4"><path d="m329.033 331.991h34.673l-2.759-15.452h-34.674z"/><path d="m148.294 331.991h34.673l2.76-15.452h-34.673z"/></g></g></svg>