<svg id="Capa_1" enable-background="new 0 0 512 512" height="512" viewBox="0 0 512 512" width="512" xmlns="http://www.w3.org/2000/svg"><g><path d="m235.057 397.576c6.662 6.662 6.662 17.464 0 24.127l-60.317 60.317c-39.974 39.974-104.786 39.974-144.76 0-39.974-39.974-39.974-104.786 0-144.76l60.317-60.317c6.662-6.662 17.464-6.662 24.127 0z" fill="#e8e3f0"/><path d="m235.058 397.576-120.634-120.634c-6.662-6.662-17.464-6.662-24.127 0l-4.593 4.593c.074.071.154.132.227.205l120.633 120.633c6.662 6.662 6.662 17.464 0 24.127l-55.518 55.518c-16.969 16.969-38.413 26.73-60.533 29.293 29.99 3.475 61.222-6.287 84.227-29.293l60.317-60.317c6.663-6.661 6.663-17.463.001-24.125z" fill="#d3cbe4"/><path d="m320.248 209.605 7.736-1.462 26.246-26.246-24.127-24.127-26.246 26.246-4.031 10.067-6.896.86-113.709 113.71 24.126 24.127 113.71-113.71z" fill="#9f5f4b"/><path d="m320.248 209.605 7.736-1.462 26.246-26.246-24.127-24.127-16.747 16.747 6.605 6.605c3.219 3.218 3.219 8.437 0 11.655l-128.308 128.309 11.694 11.694 113.709-113.71z" fill="#724435"/><path d="m347.021 189.855-24.876-24.876c-3.124-3.124-3.124-8.189 0-11.314l34.25-34.25 36.19 36.19-34.25 34.25c-3.124 3.124-8.189 3.124-11.314 0z" fill="#fbf3f3"/><path d="m356.395 119.415-20.496 20.496 18.497 18.497c3.218 3.218 3.218 8.437 0 11.655l-13.583 13.583 6.038 6.038c3.219 3.218 8.437 3.218 11.655 0l34.079-34.079z" fill="#e8e3f0"/><path d="m395.891 51.787h94.525v34.12h-94.525z" fill="#fbf3f3" transform="matrix(.707 .707 -.707 .707 178.479 -293.192)"/><g><g><path d="m388.868 159.321-36.19-36.19c-3.199-3.2-4.997-7.539-4.997-12.063v-41.187c0-9.049 3.595-17.728 9.994-24.127l43.256-43.256c3.331-3.331 8.732-3.331 12.063 0l12.063 12.063c3.331 3.331 3.331 8.732 0 12.063l-38.26 38.26c-3.199 3.2-4.997 7.539-4.997 12.064v23.52c0 2.262.899 4.432 2.498 6.032l21.2 21.2c1.6 1.6 3.769 2.498 6.032 2.498h23.52c4.525 0 8.864-1.797 12.063-4.997l38.26-38.26c3.331-3.331 8.732-3.331 12.063 0l12.063 12.063c3.331 3.331 3.331 8.732 0 12.063l-43.256 43.256c-6.399 6.399-15.077 9.994-24.127 9.994h-41.188c-4.521.001-8.861-1.796-12.06-4.996z" fill="#f03747"/></g></g><g><g fill="#b9385d"><path d="m509.502 99.005-12.063-12.063c-3.331-3.331-8.732-3.331-12.063 0l-5.815 5.815 6.248 6.248c3.331 3.331 3.331 8.732 0 12.063l-43.256 43.256c-6.399 6.399-15.078 9.994-24.127 9.994h23.694c9.049 0 17.728-3.595 24.127-9.994l43.256-43.256c3.33-3.331 3.33-8.732-.001-12.063z"/><path d="m401.364 14.562c3.331 3.331 3.331 8.732 0 12.063l-38.26 38.26c-3.199 3.2-4.997 7.539-4.997 12.064v23.52c0 2.262.899 4.432 2.499 6.032l21.2 21.2c1.6 1.6 3.769 2.498 6.032 2.498h23.52c.029 0 .058-.004.087-.004-2.23-.023-4.365-.915-5.944-2.494l-21.2-21.2c-1.6-1.6-2.498-3.769-2.499-6.032v-23.52c0-4.525 1.797-8.864 4.997-12.064l38.26-38.26c3.331-3.331 3.331-8.732 0-12.063l-12.064-12.064c-3.331-3.331-8.732-3.331-12.063 0l-5.815 5.816z"/></g></g><path d="m327.983 208.143-24.126-24.127-10.927 10.927v.001l24.127 24.126 10.927-10.927z" fill="#4f2f25"/><path d="m132.743 390.097h6.761l53.331-34.743 18.095-18.095c3.331-3.331 3.331-8.732 0-12.063l-24.127-24.127c-3.331-3.331-8.732-3.331-12.063 0l-47.846 47.846c-10.145 10.145-10.389 26.993-.054 36.944 1.799 1.732 3.792 3.144 5.903 4.247z" fill="#fbf3f3"/><path d="m210.931 325.196-24.127-24.127c-3.331-3.331-8.732-3.331-12.063 0l-10.711 10.711 18.311 18.311c3.331 3.331 3.331 8.732 0 12.063l-43.358 43.358c-1.886 1.886-3.995 3.41-6.24 4.584 9.648 5.039 21.83 3.52 29.934-4.584l48.253-48.253c3.332-3.331 3.332-8.732.001-12.063z" fill="#e8e3f0"/></g></svg>