<svg id="Capa_1" enable-background="new 0 0 512 512" height="512" viewBox="0 0 512 512" width="512" xmlns="http://www.w3.org/2000/svg"><g><path d="m68.267 201.544v-184.477c0-9.426 7.641-17.067 17.066-17.067h256c9.426 0 17.067 7.641 17.067 17.067v184.477z" fill="#e8e3f0"/><path d="m341.333 0h-23.694c9.426 0 17.067 7.641 17.067 17.067v184.477h23.694v-184.477c0-9.426-7.641-17.067-17.067-17.067z" fill="#d3cbe4"/><g><g><path d="m281.6 110.933h34.133v85.333h-34.133z" fill="#9f5f4b"/><path d="m292.039 110.933h23.694v85.333h-23.694z" fill="#724435"/><path d="m316.267 119.467h-35.2c-4.418 0-8-3.582-8-8v-53.334c0-13.255 10.745-24 24-24h3.2c13.255 0 24 10.745 24 24v53.333c0 4.419-3.582 8.001-8 8.001z" fill="#f03747"/><path d="m299.542 34.133h-1.751c-3.941 0-7.665.927-10.971 2.567 8.149 4.043 13.753 12.444 13.753 22.157v52.368c0 4.551-3.69 8.241-8.241 8.241h23.694c4.552 0 8.242-3.69 8.242-8.241v-52.367c-.001-13.655-11.071-24.725-24.726-24.725z" fill="#b9385d"/></g><g><path d="m196.267 110.933h34.133v85.333h-34.133z" fill="#9f5f4b"/><path d="m206.706 110.933h23.694v85.333h-23.694z" fill="#724435"/><path d="m230.933 119.467h-35.2c-4.418 0-8-3.582-8-8v-53.334c0-13.255 10.745-24 24-24h3.2c13.255 0 24 10.745 24 24v53.333c0 4.419-3.581 8.001-8 8.001z" fill="#f03747"/><path d="m214.209 34.133h-1.751c-3.941 0-7.665.927-10.971 2.567 8.149 4.043 13.753 12.444 13.753 22.157v52.368c0 4.551-3.69 8.241-8.241 8.241h23.694c4.552 0 8.242-3.69 8.242-8.241v-52.367c-.002-13.655-11.071-24.725-24.726-24.725z" fill="#b9385d"/></g><g><path d="m110.933 110.933h34.133v85.333h-34.133z" fill="#9f5f4b"/><path d="m121.372 110.933h23.694v85.333h-23.694z" fill="#724435"/><path d="m145.6 119.467h-35.2c-4.418 0-8-3.582-8-8v-53.334c0-13.255 10.745-24 24-24h3.2c13.255 0 24 10.745 24 24v53.333c0 4.419-3.582 8.001-8 8.001z" fill="#f03747"/><path d="m128.876 34.133h-1.751c-3.941 0-7.665.927-10.971 2.567 8.149 4.043 13.753 12.444 13.753 22.157v52.368c0 4.551-3.69 8.241-8.241 8.241h23.694c4.552 0 8.242-3.69 8.242-8.241v-52.367c-.002-13.655-11.071-24.725-24.726-24.725z" fill="#b9385d"/></g></g><g><path d="m452.267 485.592-3.386-6.895 3.386-8.557v-326.468h-34.133v326.468l2.179 8.392-2.179 7.06v18.408c0 4.418 3.582 8 8 8h18.133c4.418 0 8-3.582 8-8z" fill="#9f5f4b"/><path d="m452.267 485.592-3.386-6.895 3.386-8.557v-326.468h-23.694v360.086c0 3.484-2.165 6.456-5.219 7.662.936.37 1.954.58 3.022.58h17.65c4.552 0 8.242-3.69 8.242-8.241z" fill="#724435"/><path d="m452.8 153.6h-35.2c-4.418 0-8-3.582-8-8v-53.333c0-13.255 10.745-24 24-24h3.2c13.255 0 24 10.745 24 24v53.333c0 4.418-3.582 8-8 8z" fill="#f03747"/><path d="m436.076 68.267h-1.751c-3.941 0-7.665.927-10.971 2.567 8.149 4.043 13.753 12.444 13.753 22.157v52.368c0 4.551-3.69 8.241-8.241 8.241h23.694c4.552 0 8.241-3.69 8.241-8.241v-52.368c-.001-13.655-11.071-24.724-24.725-24.724z" fill="#b9385d"/><path d="m418.133 485.592h34.134v-15.452h-34.134z" fill="#4f2f25"/></g><path d="m359.467 512h-292.267c-8.837 0-16-7.163-16-16v-292.267c0-8.837 7.163-16 16-16h292.267c8.837 0 16 7.163 16 16v292.267c0 8.837-7.164 16-16 16z" fill="#fbf3f3"/><path d="m333.333 477.867h-240c-4.418 0-8-3.582-8-8v-240c0-4.418 3.582-8 8-8h240c4.418 0 8 3.582 8 8v240c0 4.418-3.581 8-8 8z" fill="#8dd4ff"/><path d="m171.545 375.467 41.788 10.459 40.788-10.459c11.069-10.842 17.945-25.948 17.945-42.667 0-32.99-25.743-59.733-58.733-59.733s-59.733 26.743-59.733 59.733c0 16.718 6.876 31.824 17.945 42.667z" fill="#c0ed6b"/><path d="m213.333 273.067c-4.057 0-8.017.409-11.847 1.18 27.314 5.497 47.886 29.621 47.886 58.554 0 16.718-6.876 31.824-17.945 42.667l-29.941 7.494 11.847 2.965 41.788-10.459c11.069-10.842 17.945-25.948 17.945-42.667.001-32.991-26.743-59.734-59.733-59.734z" fill="#95cf53"/><path d="m282.133 426.667h-137.6c-4.418 0-8-3.582-8-8v-35.2c0-4.418 3.582-8 8-8h137.6c4.418 0 8 3.582 8 8v35.2c0 4.418-3.581 8-8 8z" fill="#ffe652"/><path d="m358.984 187.733h-23.694c9.103 0 16.483 7.38 16.483 16.483v291.301c0 9.103-7.38 16.483-16.483 16.483h23.694c9.103 0 16.483-7.38 16.483-16.483v-291.301c0-9.103-7.38-16.483-16.483-16.483z" fill="#e8e3f0"/><path d="m333.092 221.867h-23.694c4.552 0 8.241 3.69 8.241 8.241v239.517c0 4.552-3.69 8.242-8.241 8.242h23.694c4.552 0 8.242-3.69 8.242-8.242v-239.517c-.001-4.551-3.69-8.241-8.242-8.241z" fill="#45afff"/><path d="m281.892 375.467h-23.694c4.552 0 8.241 3.69 8.241 8.241v34.717c0 4.552-3.69 8.241-8.241 8.241h23.694c4.552 0 8.242-3.69 8.242-8.241v-34.717c-.001-4.552-3.69-8.241-8.242-8.241z" fill="#f4c338"/></g></svg>