<svg id="Capa_1" enable-background="new 0 0 512 512" height="512" viewBox="0 0 512 512" width="512" xmlns="http://www.w3.org/2000/svg"><g><path d="m17.067 102.401c-9.426 0-17.067 7.641-17.067 17.067v375.466c0 9.426 7.641 17.067 17.067 17.067h477.866c9.426 0 17.067-7.641 17.067-17.067v-375.466c0-9.426-7.641-17.067-17.067-17.067z" fill="#fbf3f3"/><path d="m477.866 145.067c0-4.713-3.821-8.533-8.533-8.533h-42.667l-36.749 8.833-31.518-8.833h-315.732c-4.713 0-8.533 3.821-8.533 8.533v128l7.233 12.832-7.233 21.301v162.133c0 4.713 3.82 8.533 8.533 8.533h107.117l28.317-5.252 13.539 5.252h166.76l32.398-8.995 35.868 8.995h42.667c4.713 0 8.533-3.821 8.533-8.533v-177.98l-11.811-13.745 11.811-22.831z" fill="#c0ed6b"/><path d="m477.866 291.353-11.811-13.745 11.811-22.831v-109.71c0-4.713-3.821-8.533-8.533-8.533h-23.622c4.713 0 8.533 3.82 8.533 8.533v324.266c0 4.713-3.82 8.533-8.533 8.533h23.622c4.713 0 8.533-3.821 8.533-8.533z" fill="#95cf53"/><path d="m494.933 102.401h-23.694c9.426 0 17.067 7.641 17.067 17.067v375.466c0 9.426-7.641 17.066-17.067 17.066h23.694c9.426 0 17.067-7.641 17.067-17.066v-375.466c-.001-9.426-7.641-17.067-17.067-17.067z" fill="#e8e3f0"/><path d="m358.4 136.534h68.267v341.333h-68.267z" fill="#8dd4ff"/><path d="m402.972 136.534h23.694v341.333h-23.694z" fill="#45afff"/><g fill="#fbf3f3"><ellipse cx="307.2" cy="426.667" rx="17.067" ry="17.067" transform="matrix(.181 -.984 .984 .181 -167.988 651.639)"/><circle cx="102.4" cy="375.467" r="17.067"/><circle cx="85.334" cy="221.867" r="17.067"/><path d="m288.135 327.756c-22.955 8.829-43.239 22.896-59.454 41.09-1.63 1.828-4.459 1.909-6.19.177l-70.962-70.961c-16.003-16.003-37.708-24.994-60.34-24.994h-57.055v34.132h57.056c13.675 0 26.533 5.326 36.204 14.996l75.327 75.327c1.474 1.474 1.667 3.798.456 5.495l-53.393 74.849h41.856l54.42-76.189c13.639-19.095 32.425-33.641 54.329-42.064l177.478-68.261v-36.575z"/></g><path d="m454.244 300.438 23.622-9.085v-36.576l-23.622 9.086z" fill="#e8e3f0"/><path d="m293.952 79.862c-4.687 7.422-11.515 15.821-20.891 21.95-2.87 1.876-6.65-.299-6.403-3.719 1.397-19.357-.69-70.227-55.917-97.816-1.59-.794-3.522.2-3.732 1.934-1.169 9.677-7.94 38.151-46.558 77.776l.001.002s-1.09 1.112-1.634 1.662c-5.467 5.968-21.99 27.645-7.347 58.714 1.577 3.345-1.703 6.938-5.16 5.623-5.83-2.219-13.354-6.084-19.915-12.642-1.388-1.387-3.79-.812-4.326 1.056-.005.016-.009.031-.013.047-1.471 5.128-2.542 14.686-2.542 21.45 0 55.285 45.825 100.102 102.353 100.102s102.353-44.817 102.353-100.102c0-25.577-9.809-53.506-25.948-76.135-1.075-1.505-3.335-1.465-4.321.098z" fill="#ff7f3b"/><path d="m209.999 226.365 7.185.126 23.119-10.28 6.826-17.174-13.431-42.716 1.872-39.346h-13.84c1.056 14.079-5.115 27.901-16.731 36.724-7.855 5.966-17.39 9.038-27.003 9.038-2.08 0-4.163-.144-6.235-.433-4.356-.609-8.304 2.545-8.373 6.825-.005.332-.008.662-.008.992 0 27.677 20.04 50.843 46.619 56.244z" fill="#ffe652"/><path d="m298.271 79.764c-1.073-1.505-3.333-1.465-4.32.098-2.783 4.407-6.328 9.156-10.707 13.573 10.939 19.676 17.328 41.833 17.328 62.464 0 51.373-39.572 93.699-90.529 99.433 3.88.437 7.824.669 11.823.669 56.528 0 102.353-44.817 102.353-100.102.001-25.578-9.808-53.506-25.948-76.135z" fill="#f55b31"/><path d="m263.431 198.536c-4.789-3.086-8.99-7.109-12.29-11.936-9.433-13.794-9.803-31.652-.951-45.805 2.261-3.616 4.781-8.733 3.943-12.58-.389-1.787-1.376-3.204-1.792-3.742-.433-.441-.808-.823-.808-.823-.124-.126-.247-.254-.369-.382-11.226-11.546-17.809-22.508-24.941-32.743-.609-.873-1.677-1.332-2.753-1.19-1.231.162-2.214 1.082-2.438 2.271-2.084 11.072.018 20.262.035 20.347.333 1.673.539 3.348.664 5.022 1.779 2.078 3.679 4.175 5.738 6.294.122.127.246.255.369.382 0 0 .375.382.808.823.416.538 1.403 1.955 1.792 3.742.838 3.847-1.681 8.965-3.943 12.58-8.852 14.153-8.481 32.011.951 45.805 3.3 4.826 7.501 8.85 12.29 11.936 3.733 2.406 4.237 7.531 1.198 10.729-8.117 8.544-18.853 14.653-30.936 17.1 3.834.779 7.803 1.191 11.868 1.191 16.86 0 32.078-7.044 42.762-18.29 3.04-3.201 2.536-8.326-1.197-10.731z" fill="#f4c338"/></g></svg>