<svg id="Capa_1" enable-background="new 0 0 512 512" height="512" viewBox="0 0 512 512" width="512" xmlns="http://www.w3.org/2000/svg"><g><g><path d="m376.612 68.283-29.547 29.547 23.493 40.399 36.846 19.941 29.548-29.548-19.131-41.213z" fill="#95cf53"/><path d="m417.821 87.409-41.209-19.126-11.847 11.847 42.665 42.665c3.219 3.218 3.219 8.437 0 11.655l-15.4 15.4 15.374 8.32 29.547-29.548z" fill="#73b537"/></g><g><g><path d="m442.984 134.651-72.408-72.407c-3.333-3.333-3.332-8.737.001-12.069l10.014-10.01c3.333-3.331 8.735-3.331 12.067.001l72.408 72.407c3.333 3.333 3.332 8.737-.001 12.069l-10.014 10.01c-3.333 3.332-8.735 3.331-12.067-.001z" fill="#918291"/></g></g><path d="m465.066 112.574-72.408-72.407c-3.332-3.332-8.734-3.333-12.067-.001l-5.815 5.813 66.596 66.595c3.333 3.333 3.332 8.737-.001 12.069l-4.198 4.197 5.812 5.812c3.332 3.332 8.734 3.333 12.067.001l10.014-10.01c3.332-3.333 3.333-8.737 0-12.069z" fill="#7a6d79"/><path d="m281.853 21.531c-5.164-12.998-17.735-21.531-31.722-21.531h-61.437l-7.025 2.606-8.427-2.606h-60.54l30.72 34.133h29.82l8.18-2.298 7.272 2.298h49.852c6.994 0 13.279 4.267 15.861 10.766l16.061 40.434v11.688h36.732v-11.687z" fill="#73b537"/><path d="m407.403 158.169-43.835-34.848-16.503-25.491-2.499-2.5c-6.401-6.401-15.083-9.998-24.136-9.998h-13.23l-2.111.419-5.697-.419h-123.936c-6.979 0-13.254-4.249-15.846-10.728l-16.189-40.472-30.72-34.132h-51.2c-9.426 0-17.067 7.641-17.067 17.067v460.8c0 18.851 15.282 34.133 34.133 34.133h307.2c18.851 0 34.133-15.282 34.133-34.133v-293.062c0-9.053-3.596-17.735-9.997-24.136z" fill="#c0ed6b"/><path d="m326.035 352.795v-125.323c0-4.526 1.798-8.867 4.999-12.068l32.33-32.33c6.498-6.498 7.094-17.083.908-23.878-6.605-7.255-17.847-7.454-24.706-.596l-32.669 32.669c-3.201 3.201-7.542 4.999-12.068 4.999h-125.323c-4.526 0-8.867-1.798-12.068-4.999l-32.669-32.669c-6.859-6.858-18.101-6.659-24.706.596-6.186 6.796-5.59 17.38.908 23.878l32.33 32.33c3.201 3.201 4.999 7.541 4.999 12.068v125.323c0 4.526-1.798 8.867-4.999 12.068l-32.312 32.312c-6.702 6.702-7.086 17.704-.414 24.436 3.34 3.37 7.732 5.055 12.124 5.055 4.368 0 8.735-1.667 12.068-4.999l32.669-32.669c3.201-3.201 7.542-4.999 12.068-4.999h125.323c4.526 0 8.867 1.798 12.068 4.999l32.669 32.669c3.333 3.332 7.701 4.999 12.068 4.999 4.392 0 8.785-1.685 12.124-5.055 6.672-6.732 6.288-17.734-.414-24.436l-32.312-32.312c-3.197-3.201-4.995-7.542-4.995-12.068z" fill="#95cf53"/><g><g><g><path d="m110.365 10.728 25.551 63.877c2.592 6.479 8.867 10.728 15.846 10.728h23.694c-6.979 0-13.254-4.249-15.846-10.728l-25.551-63.877c-2.592-6.479-8.867-10.728-15.846-10.728h-23.694c6.979 0 13.254 4.249 15.846 10.728z" fill="#95cf53"/></g><g><path d="m409.904 160.669-65.339-65.339c-6.401-6.401-15.083-9.997-24.136-9.997h-23.694c9.053 0 17.735 3.596 24.136 9.997l65.339 65.339c6.401 6.401 9.997 15.083 9.997 24.136v293.061c0 18.851-15.282 34.133-34.133 34.133h23.694c18.851 0 34.133-15.282 34.133-34.133v-293.061c0-9.052-3.596-17.734-9.997-24.136z" fill="#95cf53"/></g></g></g><path d="m275.901 349.867h-87.467c-8.837 0-16-7.163-16-16v-87.467c0-8.837 7.163-16 16-16h87.467c8.837 0 16 7.163 16 16v87.467c0 8.836-7.163 16-16 16z" fill="#c0ed6b"/><g fill="#95cf53"><path d="m44.434 470.14v7.727c0 2.659.314 5.242.889 7.726h373.689c.575-2.483.889-5.067.889-7.726v-7.727z"/><path d="m173.241 0v34.133h15.453v-34.133z"/></g></g></svg>