<svg id="Capa_1" enable-background="new 0 0 512 512" height="512" viewBox="0 0 512 512" width="512" xmlns="http://www.w3.org/2000/svg"><g><path d="m187.732 494.934 136.534-17.067v.002l.001-.002-.002-443.734-136.533-16.086-136.533 16.086v.001 443.733z" fill="#8dd4ff"/><ellipse cx="187.733" cy="409.601" fill="#c0ed6b" rx="34.133" ry="34.133" transform="matrix(.432 -.902 .902 .432 -262.773 401.811)"/><path d="m176.872 209.706-30.17-30.17c-3.333-3.332-8.736-3.332-12.068 0l-18.102 18.102c-13.67 13.669-14.66 35.507-2.284 50.358 25.606 30.727 53.947 59.068 84.674 84.674 14.851 12.376 36.688 11.385 50.358-2.284l18.102-18.102c3.332-3.332 3.332-8.736 0-12.068l-30.17-30.17c-3.332-3.332-8.735-3.332-12.068 0l-15.746 15.746c-1.384 1.384-3.533 1.649-5.212.642-17.933-10.76-32.942-25.768-43.701-43.701-1.007-1.679-.743-3.828.642-5.212l15.747-15.746c3.33-3.333 3.33-8.736-.002-12.069z" fill="#fbf3f3"/><g><g><path d="m189.867 417.327h-4.266c-4.267 0-7.726-3.459-7.726-7.726s3.459-7.726 7.726-7.726h4.266c4.267 0 7.726 3.459 7.726 7.726s-3.459 7.726-7.726 7.726z" fill="#fbf3f3"/></g></g><path d="m300.487 477.867c0 1.009-.053 2.004-.138 2.991l23.917-2.99.001.001c0-.001 0-.001 0-.002l-.001-443.733-23.905-2.816c.076.929.125 1.867.125 2.816z" fill="#45afff"/><path d="m290.132 0h-204.799c-18.852 0-34.134 15.282-34.134 34.133h53.07c3.916 0 7.329 2.665 8.279 6.464l3.685 14.744c1.899 7.598 8.726 12.928 16.557 12.928h109.884c7.831 0 14.658-5.33 16.557-12.928l3.686-14.744c.95-3.799 4.363-6.464 8.279-6.464h53.069c0-18.851-15.282-34.133-34.133-34.133z" fill="#7a6d79"/><path d="m324.266 477.868-.001-.001h-273.066c.001 18.851 15.283 34.133 34.134 34.133h204.8c18.851 0 34.133-15.281 34.133-34.132z" fill="#7a6d79"/><path d="m300.486 34.133h23.78c-.001-18.851-15.283-34.133-34.134-34.133h-23.78c18.851 0 34.134 15.282 34.134 34.133z" fill="#554e56"/><path d="m324.266 477.868-.001-.001h-23.779c0 18.851-15.282 34.133-34.133 34.133h23.78c18.851 0 34.133-15.281 34.133-34.132z" fill="#554e56"/><g><g><path d="m196.267 41.859h-51.2c-4.267 0-7.726-3.459-7.726-7.726s3.459-7.726 7.726-7.726h51.2c4.267 0 7.726 3.459 7.726 7.726s-3.459 7.726-7.726 7.726z" fill="#554e56"/></g></g><g><g><path d="m230.4 41.859h-8.534c-4.267 0-7.726-3.459-7.726-7.726s3.459-7.726 7.726-7.726h8.534c4.267 0 7.726 3.459 7.726 7.726s-3.459 7.726-7.726 7.726z" fill="#fbf3f3"/></g></g><path d="m443.734 102.4h-204.801c-9.426 0-17.067 7.641-17.067 17.067v102.4c0 9.426 7.641 17.067 17.067 17.067h46.933c2.356 0 4.267 1.91 4.267 4.267v19.566c0 3.801 4.596 5.705 7.284 3.017l25.6-25.6c.8-.8 1.885-1.25 3.017-1.25h117.7c9.426 0 17.067-7.641 17.067-17.067v-102.4c-.001-9.426-7.641-17.067-17.067-17.067z" fill="#fbf3f3"/><g><g fill="#7a6d79"><path d="m358.4 128.807h-14.591c-4.268 0-7.726 3.459-7.726 7.726s3.459 7.726 7.726 7.726h6.865v60.54c0 4.267 3.459 7.726 7.726 7.726 4.268 0 7.726-3.459 7.726-7.726v-68.267c.001-4.266-3.458-7.725-7.726-7.725z"/><path d="m409.6 128.807h-14.592c-4.268 0-7.726 3.459-7.726 7.726s3.459 7.726 7.726 7.726h6.865v60.54c0 4.267 3.459 7.726 7.726 7.726 4.268 0 7.726-3.459 7.726-7.726v-68.267c.002-4.266-3.457-7.725-7.725-7.725z"/><path d="m292.808 129.173c-15.146 0-27.468 12.322-27.468 27.468 0 15.145 12.322 27.467 27.468 27.467.98 0 1.947-.054 2.901-.154-5.763 9.214-12.095 14.146-12.295 14.298-3.403 2.552-4.106 7.377-1.564 10.793 1.516 2.039 3.846 3.116 6.205 3.116 1.603 0 3.22-.497 4.606-1.527.957-.712 23.356-17.722 27.272-49.669.224-1.409.343-2.853.343-4.324 0-15.146-12.322-27.468-27.468-27.468zm-12.015 27.467c0-6.625 5.39-12.015 12.015-12.015s12.015 5.39 12.015 12.015-5.39 12.015-12.015 12.015-12.015-5.39-12.015-12.015z"/></g></g><g><g><g><path d="m299.323 240.183-9.19 9.19v13.393c0 3.801 4.596 5.705 7.284 3.017l25.6-25.6c.8-.8 1.885-1.25 3.017-1.25h-23.694c-1.132 0-2.217.45-3.017 1.25z" fill="#e8e3f0"/></g><g><path d="m443.734 102.4h-23.694c9.426 0 17.067 7.641 17.067 17.067v102.4c0 9.426-7.641 17.067-17.067 17.067h23.694c9.426 0 17.067-7.641 17.067-17.067v-102.4c0-9.426-7.641-17.067-17.067-17.067z" fill="#e8e3f0"/></g></g></g><path d="m187.733 375.467c-4.166 0-8.156.749-11.847 2.115 13.011 4.816 22.286 17.333 22.286 32.018 0 14.686-9.275 27.203-22.286 32.018 3.691 1.366 7.681 2.115 11.847 2.115 18.851 0 34.133-15.282 34.133-34.133s-15.282-34.133-34.133-34.133z" fill="#95cf53"/><g><g><g><path d="m267.382 300.216-30.17-30.17c-3.332-3.332-8.735-3.332-12.068 0l-5.813 5.813 24.357 24.357c3.332 3.333 3.332 8.736 0 12.068l-18.102 18.102c-4.229 4.229-9.242 7.242-14.586 9.023 13.08 4.368 27.993 1.264 38.28-9.023l18.102-18.102c3.332-3.332 3.332-8.736 0-12.068z" fill="#e8e3f0"/></g></g></g></g></svg>