<svg id="Capa_1" enable-background="new 0 0 512 512" height="512" viewBox="0 0 512 512" width="512" xmlns="http://www.w3.org/2000/svg"><g><path d="m441.215 26.692c-34.906-35.428-91.925-35.588-127.031-.482l-17.443 17.443c-2.38 2.38-5.41 4.001-8.71 4.661l-25.071 5.014 19.211 40.583 41.053 19.681 5.014-25.071c.66-3.3 2.282-6.33 4.661-8.71l16.907-16.907c15.206-15.206 40.384-15.496 55.297-.002 14.451 15.015 14.277 38.903-.524 53.704l-243.126 243.126-8.461 17.148-15.644 6.957-21.26 21.26c-1.871 1.871-4.152 3.281-6.662 4.118l-26.359 8.786c-3.86 1.287-7.133 3.912-9.226 7.401l-26.067 43.445c-4.024 6.707-2.967 15.292 2.563 20.823l17.337 17.337c5.531 5.531 14.115 6.587 20.822 2.563l43.445-26.067c3.489-2.094 6.114-5.366 7.401-9.226l8.786-26.359c.837-2.51 2.247-4.792 4.118-6.663l21.26-21.26 6.129-18.079 17.976-6.026 242.332-242.332c34.891-34.89 35.903-91.718 1.272-126.866z" fill="#7a6d79"/><path d="m441.215 26.692c-20.544-20.851-48.746-29.472-75.634-25.89 19.028 2.521 37.403 11.135 51.94 25.89 34.631 35.148 33.618 91.976-1.272 126.867l-287.698 287.697c-1.871 1.871-3.281 4.152-4.118 6.663l-8.786 26.359c-1.287 3.86-3.912 7.133-7.401 9.226l-40.02 24.012c5.538 5.072 13.779 5.949 20.269 2.055l43.445-26.067c3.489-2.094 6.114-5.366 7.401-9.226l8.786-26.359c.837-2.51 2.247-4.792 4.118-6.663l21.26-21.26 6.129-18.079 17.976-6.026 242.332-242.332c34.892-34.891 35.904-91.719 1.273-126.867z" fill="#554e56"/><path d="m185.323 156.483c3.039 3.039 7.866 3.34 11.259.701l42.36-32.946c3.393-2.639 8.219-2.338 11.259.701l1.413 1.413c3.039 3.039 3.34 7.866.701 11.259l-32.947 42.36c-2.639 3.393-2.338 8.219.701 11.259l13.24 13.24c3.134 3.134 8.148 3.343 11.531.48l63.28-53.545c5.877-4.973 9.898-11.789 11.408-19.338l3.695-18.473-60.263-60.265-18.473 3.695c-7.549 1.51-14.365 5.531-19.339 11.408l-53.545 63.28c-2.863 3.384-2.654 8.397.48 11.532z" fill="#918291"/><path d="m150.434 364.297h34.09v51.135h-34.09z" fill="#918291" transform="matrix(.707 -.707 .707 .707 -226.622 232.614)"/><path d="m185.764 384.044-24.106 24.105 11.847 11.847 20.598-20.598 3.508-3.507z" fill="#7a6d79"/></g></svg>