<svg id="Capa_1" enable-background="new 0 0 512 512" height="512" viewBox="0 0 512 512" width="512" xmlns="http://www.w3.org/2000/svg"><g><path d="m332.8 217.127v-37.927c0-14.139 11.462-25.6 25.6-25.6s25.6 11.461 25.6 25.6v37.927z" fill="#8dd4ff"/><path d="m358.4 153.6c-4.276 0-8.304 1.054-11.847 2.908 8.172 4.276 13.753 12.83 13.753 22.692v37.927h23.694v-37.927c0-14.138-11.462-25.6-25.6-25.6z" fill="#45afff"/><path d="m494.933 375.467v-13.445c0-2.388-.501-4.749-1.471-6.931l-13.7-30.824-30.836-42.667-7.089-42.667-6.161-13.863c-5.478-12.327-17.702-20.27-31.191-20.27h-119.503v244.084h209.951v-39.284l-11.874-17.067z" fill="#f03747"/><path d="m494.933 375.467v-13.445c0-2.388-.501-4.749-1.471-6.931l-13.7-30.824-30.836-42.667-7.089-42.667-6.161-13.863c-5.478-12.327-17.702-20.27-31.191-20.27h-23.748c13.489 0 25.713 7.944 31.191 20.27l57.786 130.02c.97 2.182 1.471 4.543 1.471 6.931v86.863h23.748v-39.284l-11.874-17.067z" fill="#b9385d"/><g><g><path d="m349.867 366.127h-17.067c-4.267 0-7.726-3.459-7.726-7.726 0-4.268 3.459-7.726 7.726-7.726h17.067c4.267 0 7.726 3.459 7.726 7.726s-3.459 7.726-7.726 7.726z" fill="#fbf3f3"/></g></g><path d="m469.333 409.6c-9.426 0-17.067-7.641-17.067-17.067v-8.533c0-4.713 3.82-8.533 8.533-8.533h34.133v34.133z" fill="#ffe652"/><path d="m471.185 375.467h23.748v34.134h-23.748z" fill="#f4c338"/><path d="m441.837 238.933h-66.37c-4.713 0-8.533 3.82-8.533 8.533v59.734c0 9.426 7.641 17.067 17.067 17.067h95.763z" fill="#8dd4ff"/><path d="m418.089 238.933 37.926 85.334h23.748l-37.926-85.334z" fill="#45afff"/><path d="m284.982 204.8h28.845v244.085h-28.845z" fill="#b9385d"/><path d="m286.291 324.267h30.509c8.837 0 16-7.163 16-16v-53.333c0-8.837-7.163-16-16-16h-30.509z" fill="#8dd4ff"/><path d="m286.291 238.933h27.537v85.333h-27.537z" fill="#45afff"/><path d="m341.333 26.236h34.133v66.995h-34.133z" fill="#e8e3f0"/><path d="m351.772 26.236h23.694v66.995h-23.694z" fill="#d3cbe4"/><path d="m249.6 26.236h34.133v66.995h-34.133z" fill="#e8e3f0"/><path d="m260.039 26.236h23.694v66.995h-23.694z" fill="#d3cbe4"/><path d="m160 26.236h34.133v66.995h-34.133z" fill="#e8e3f0"/><path d="m170.439 26.236h23.694v66.995h-23.694z" fill="#d3cbe4"/><path d="m68.267 26.236h34.133v66.995h-34.133z" fill="#e8e3f0"/><path d="m78.706 26.236h23.694v66.995h-23.694z" fill="#d3cbe4"/><path d="m221.867 108.249h34.133v56.568h-34.133z" fill="#7a6d79"/><path d="m232.306 108.249h23.694v56.568h-23.694z" fill="#554e56"/><path d="m51.2 108.249h34.133v56.568h-34.133z" fill="#7a6d79"/><path d="m61.639 108.249h23.694v56.568h-23.694z" fill="#554e56"/><path d="m17.067 448.884v-278.217c0-9.426 7.641-17.067 17.067-17.067h238.933c9.426 0 17.067 7.641 17.067 17.067v278.218h-273.067z" fill="#f03747"/><path d="m187.733 409.6 34.133 18.539 34.134-18.539v-111.225c0-4.552-3.69-8.241-8.241-8.241h-51.784c-4.552 0-8.242 3.69-8.242 8.241z" fill="#b9385d"/><path d="m247.759 290.134h-23.694c4.552 0 8.241 3.69 8.241 8.241v124.095l23.694-12.87v-111.225c0-4.552-3.69-8.241-8.241-8.241z" fill="#9e2950"/><path d="m187.733 409.6h68.267v37.077h-68.267z" fill="#e8e3f0"/><path d="m232.306 409.6h23.694v37.077h-23.694z" fill="#d3cbe4"/><path d="m8.533 477.867c-4.713 0-8.533-3.821-8.533-8.533v-17.067c0-4.713 3.82-8.533 8.533-8.533h494.933c4.713 0 8.533 3.82 8.533 8.533v17.067c0 4.713-3.82 8.533-8.533 8.533z" fill="#fbf3f3"/><path d="m503.466 443.733h-23.694c4.713 0 8.533 3.82 8.533 8.533v17.067c0 4.713-3.82 8.533-8.533 8.533h23.694c4.713 0 8.533-3.82 8.533-8.533v-17.067c.001-4.712-3.82-8.533-8.533-8.533z" fill="#e8e3f0"/><path d="m85.333 272.927v59.873c0 4.713-3.821 8.533-8.533 8.533h-17.067c-4.713 0-8.533-3.82-8.533-8.533v-93.866z" fill="#e8e3f0"/><g><path d="m238.933 229.594h-34.133c-4.267 0-7.726-3.459-7.726-7.726 0-4.268 3.459-7.726 7.726-7.726h34.133c4.267 0 7.726 3.459 7.726 7.726.001 4.267-3.459 7.726-7.726 7.726z" fill="#fbf3f3"/></g><g><path d="m238.933 263.726h-34.133c-4.267 0-7.726-3.459-7.726-7.726 0-4.268 3.459-7.726 7.726-7.726h34.133c4.267 0 7.726 3.459 7.726 7.726.001 4.268-3.459 7.726-7.726 7.726z" fill="#fbf3f3"/></g><path d="m418.667 119.467h-393.6c-4.418 0-8-3.582-8-8v-18.134c0-4.418 3.582-8 8-8h393.6c4.418 0 8 3.582 8 8v18.133c0 4.419-3.582 8.001-8 8.001z" fill="#fbf3f3"/><path d="m418.667 34.133h-393.6c-4.418 0-8-3.582-8-8v-18.133c0-4.418 3.582-8 8-8h393.6c4.418 0 8 3.582 8 8v18.133c0 4.419-3.582 8-8 8z" fill="#fbf3f3"/><g><circle cx="119.467" cy="460.8" fill="#7a6d79" r="51.2"/><circle cx="119.467" cy="460.8" fill="#e8e3f0" r="17.067"/><path d="m119.467 409.6c-4.08 0-8.043.491-11.847 1.393 22.562 5.348 39.353 25.61 39.353 49.807s-16.791 44.46-39.353 49.807c3.804.902 7.767 1.393 11.847 1.393 28.277 0 51.2-22.923 51.2-51.2s-22.923-51.2-51.2-51.2z" fill="#554e56"/><path d="m119.467 443.733c-4.605 0-8.777 1.833-11.847 4.798 3.213 3.103 5.22 7.448 5.22 12.269 0 4.82-2.006 9.165-5.22 12.269 3.07 2.965 7.242 4.798 11.847 4.798 9.426 0 17.067-7.641 17.067-17.067s-7.642-17.067-17.067-17.067z" fill="#d3cbe4"/></g><g><circle cx="375.467" cy="460.8" fill="#7a6d79" r="51.2"/><circle cx="375.467" cy="460.8" fill="#e8e3f0" r="17.067"/><path d="m375.467 409.6c-4.08 0-8.043.491-11.847 1.393 22.562 5.348 39.353 25.61 39.353 49.807s-16.791 44.46-39.353 49.807c3.804.902 7.767 1.393 11.847 1.393 28.277 0 51.2-22.923 51.2-51.2s-22.923-51.2-51.2-51.2z" fill="#554e56"/><path d="m375.467 443.733c-4.605 0-8.777 1.833-11.847 4.798 3.213 3.103 5.22 7.448 5.22 12.269 0 4.82-2.006 9.165-5.22 12.269 3.07 2.965 7.242 4.798 11.847 4.798 9.426 0 17.067-7.641 17.067-17.067s-7.642-17.067-17.067-17.067z" fill="#d3cbe4"/></g><path d="m418.425 0h-23.694c4.552 0 8.241 3.69 8.241 8.241v17.651c0 4.552-3.69 8.241-8.241 8.241h23.694c4.552 0 8.241-3.69 8.241-8.241v-17.651c.001-4.551-3.689-8.241-8.241-8.241z" fill="#e8e3f0"/><path d="m418.425 85.333h-23.694c4.552 0 8.241 3.69 8.241 8.242v17.651c0 4.551-3.69 8.241-8.241 8.241h23.694c4.552 0 8.241-3.69 8.241-8.241v-17.651c.001-4.552-3.689-8.242-8.241-8.242z" fill="#e8e3f0"/><path d="m61.639 249.33v83.47c0 3.537-2.153 6.572-5.22 7.866 1.019.43 2.138.668 3.314.668h17.067c4.713 0 8.533-3.821 8.533-8.533v-59.873z" fill="#d3cbe4"/><path d="m102.4 187.734c-28.277 0-51.2 22.923-51.2 51.2s22.923 51.2 51.2 51.2 51.2-22.923 51.2-51.2-22.923-51.2-51.2-51.2zm0 68.266c-9.426 0-17.067-7.641-17.067-17.067s7.641-17.067 17.067-17.067 17.067 7.641 17.067 17.067-7.641 17.067-17.067 17.067z" fill="#fbf3f3"/><path d="m102.4 187.734c-4.08 0-8.043.491-11.847 1.393 22.562 5.347 39.353 25.61 39.353 49.807s-16.791 44.46-39.353 49.807c3.804.902 7.767 1.393 11.847 1.393 28.277 0 51.2-22.923 51.2-51.2s-22.923-51.2-51.2-51.2z" fill="#e8e3f0"/></g></svg>