<svg id="Capa_1" enable-background="new 0 0 512 512" height="512" viewBox="0 0 512 512" width="512" xmlns="http://www.w3.org/2000/svg"><g><path d="m366.933 477.867-12.349 24.699c-2.891 5.782-8.801 9.434-15.265 9.434h-132.504c-6.464 0-12.374-3.652-15.265-9.434l-12.35-24.699v-14.63h187.733z" fill="#918291"/><path d="m343.239 463.237v14.63l-12.349 24.699c-2.891 5.782-8.8 9.434-15.265 9.434h23.694c6.464 0 12.374-3.652 15.265-9.434l12.349-24.699v-14.63z" fill="#7a6d79"/><path d="m162.133 273.067h221.867v151.893h-221.867z" fill="#7a6d79"/><path d="m360.306 273.067h23.694v151.893h-23.694z" fill="#554e56"/><path d="m162.133 238.934h-34.667c-4.418 0-8-3.582-8-8v-35.2c0-4.418 3.582-8 8-8h34.667z" fill="#fbf3f3"/><path d="m129.906 187.734h32.227v51.2h-32.227z" fill="#e8e3f0"/><path d="m238.933 164.503h-51.2v-54.103c0-4.418 3.582-8 8-8h35.2c4.418 0 8 3.582 8 8z" fill="#7a6d79"/><path d="m230.692 102.4h-23.694c4.552 0 8.241 3.69 8.241 8.241v53.861h23.694v-53.861c0-4.551-3.689-8.241-8.241-8.241z" fill="#554e56"/><g><path d="m349.867 77.607v-69.607c0-4.418-3.582-8-8-8h-18.133c-4.418 0-8 3.582-8 8v69.606l4.074 5.907-4.074 9.546v34.941h34.133v-34.941l-4.463-8.72z" fill="#7a6d79"/><path d="m349.867 77.607v-69.366c0-4.551-3.69-8.241-8.242-8.241h-17.65c-1.068 0-2.085.21-3.022.58 3.055 1.206 5.219 4.178 5.219 7.662v119.758h23.694v-34.941l-4.463-8.72z" fill="#554e56"/><path d="m358.4 162.348h-51.2v-34.881c0-4.418 3.582-8 8-8h35.2c4.418 0 8 3.582 8 8z" fill="#918291"/><path d="m350.159 119.467h-23.694c4.551 0 8.241 3.69 8.241 8.241v34.64h23.694v-34.64c0-4.551-3.69-8.241-8.241-8.241z" fill="#7a6d79"/><path d="m315.733 77.607v15.452h34.134v-15.452z" fill="#918291"/></g><path d="m176.591 477.867h192.951c8.343 0 15.463-6.032 16.835-14.261l4.51-27.062c1.017-6.099-1.345-12.27-6.173-16.133l-22.037-17.63c-8.097-6.478-12.81-16.284-12.81-26.654v-52.523c0-10.369 4.714-20.176 12.81-26.654l23.451-18.761c4.049-3.239 6.405-8.142 6.405-13.327v-77.131c0-18.851-15.282-34.133-34.133-34.133h-170.667c-18.851 0-34.133 15.282-34.133 34.133v77.131c0 5.185 2.357 10.088 6.405 13.327l23.451 18.761c8.097 6.478 12.81 16.285 12.81 26.654v52.523c0 10.369-4.713 20.176-12.81 26.654l-22.037 17.63c-4.828 3.862-7.189 10.034-6.173 16.133l4.51 27.062c1.372 8.229 8.492 14.261 16.835 14.261z" fill="#8dd4ff"/><path d="m299.733 409.6h-53.333c-8.837 0-16-7.163-16-16v-130.2h85.333v130.2c0 8.837-7.163 16-16 16z" fill="#7a6d79"/><path d="m362.677 296.952 23.451-18.761c4.049-3.239 6.405-8.142 6.405-13.327v-77.131c0-18.851-15.282-34.133-34.133-34.133h-23.694c18.851 0 34.133 15.282 34.133 34.133v77.131c0 5.185-2.357 10.088-6.405 13.327l-23.451 18.761c-8.097 6.478-12.811 16.284-12.811 26.654v52.523c0 10.369 4.714 20.176 12.811 26.654l22.037 17.63c4.828 3.862 7.19 10.034 6.173 16.133l-4.51 27.062c-1.371 8.229-8.492 14.261-16.834 14.261h23.694c8.343 0 15.463-6.031 16.834-14.261l4.51-27.062c1.017-6.099-1.345-12.27-6.173-16.133l-22.037-17.63c-8.097-6.478-12.81-16.284-12.81-26.654v-52.523c0-10.37 4.713-20.177 12.81-26.654z" fill="#45afff"/><path d="m292.331 263.401v129.717c0 9.103-7.38 16.483-16.483 16.483h23.402c9.103 0 16.483-7.38 16.483-16.483v-129.717z" fill="#554e56"/><g><g><path d="m285.867 314.927h-25.6c-4.267 0-7.726-3.459-7.726-7.726 0-4.268 3.459-7.726 7.726-7.726h25.6c4.267 0 7.726 3.459 7.726 7.726s-3.459 7.726-7.726 7.726z" fill="#918291"/></g></g><g><g><path d="m285.867 349.06h-25.6c-4.267 0-7.726-3.459-7.726-7.726 0-4.268 3.459-7.726 7.726-7.726h25.6c4.267 0 7.726 3.459 7.726 7.726s-3.459 7.726-7.726 7.726z" fill="#918291"/></g></g><g><g><path d="m285.867 383.193h-25.6c-4.267 0-7.726-3.459-7.726-7.726 0-4.268 3.459-7.726 7.726-7.726h25.6c4.267 0 7.726 3.459 7.726 7.726 0 4.268-3.459 7.726-7.726 7.726z" fill="#918291"/></g></g><path d="m155.175 436.007c.024.179.041.358.071.537l2.486 14.916h230.669l2.486-14.916c.03-.179.047-.358.071-.537z" fill="#45afff"/><path d="m350.4 273.067h-154.667c-4.418 0-8-3.582-8-8v-69.333c0-4.418 3.582-8 8-8h154.667c4.418 0 8 3.582 8 8v69.333c0 4.418-3.582 8-8 8z" fill="#c0ed6b"/><g><path d="m238.933 229.593h-17.066c-4.267 0-7.726-3.459-7.726-7.726 0-4.268 3.459-7.726 7.726-7.726h17.066c4.267 0 7.726 3.459 7.726 7.726.001 4.267-3.459 7.726-7.726 7.726z" fill="#fbf3f3"/></g><path d="m350.159 187.734h-23.694c4.551 0 8.241 3.69 8.241 8.241v68.85c0 4.552-3.69 8.241-8.241 8.241h23.694c4.552 0 8.241-3.69 8.241-8.241v-68.85c0-4.552-3.69-8.241-8.241-8.241z" fill="#95cf53"/></g></svg>