<svg id="Capa_1" enable-background="new 0 0 512 512" height="512" viewBox="0 0 512 512" width="512" xmlns="http://www.w3.org/2000/svg"><g><g><path d="m256 220.837v230.442h196.267v-191.508z" fill="#c0ed6b"/><path d="m428.573 451.279h23.694v-191.508l-23.694-4.7z" fill="#95cf53"/><path d="m268.58 196.267h13.02l189.521 40.612c3.934.843 6.745 4.32 6.745 8.344v17.453c0 5.433-5.009 9.482-10.321 8.344l-185.945-39.846h-13.02z" fill="#fbf3f3"/><path d="m393.067 392.533h-52.267c-4.418 0-8-3.582-8-8v-69.333c0-4.418 3.582-8 8-8h52.267c4.418 0 8 3.582 8 8v69.333c0 4.419-3.582 8-8 8z" fill="#8dd4ff"/><path d="m42.667 87.367v363.912h238.933v-416.522z" fill="#c0ed6b"/><path d="m392.825 307.2h-23.788c4.552 0 8.241 3.69 8.241 8.242v68.85c0 4.551-3.69 8.241-8.241 8.241h23.788c4.552 0 8.241-3.69 8.241-8.241v-68.85c.001-4.552-3.689-8.242-8.241-8.242z" fill="#45afff"/><g><g><path d="m471.121 236.879-23.524-5.019c3.934.843 6.745 4.32 6.745 8.344v17.453c0 5.304-4.776 9.275-9.945 8.402l23.148 4.96c5.312 1.138 10.321-2.911 10.321-8.344v-17.454c.001-4.022-2.81-7.499-6.745-8.342z" fill="#e8e3f0"/></g></g><path d="m257.906 451.279h23.694v-416.522l-23.694 5.217z" fill="#95cf53"/><path d="m461.092 443.733c4.552 0 8.241 3.69 8.241 8.242v31.043h-443.733v-31.043c0-4.552 3.69-8.242 8.241-8.242z" fill="#fbf3f3"/><path d="m461.092 443.733h-23.694c4.551 0 8.241 3.69 8.241 8.242v31.043h23.694v-31.043c0-4.552-3.69-8.242-8.241-8.242z" fill="#e8e3f0"/><path d="m119.467 349.867h85.333v133.151h-85.333z" fill="#9f5f4b"/><path d="m296.879.193-273.067 58.515c-3.934.843-6.745 4.32-6.745 8.344v17.453c0 5.433 5.009 9.482 10.321 8.344l273.067-58.515c3.935-.843 6.745-4.32 6.745-8.344v-17.453c0-5.433-5.009-9.482-10.321-8.344z" fill="#fbf3f3"/><path d="m137.067 221.867h-52.267c-4.418 0-8-3.582-8-8v-69.333c0-4.418 3.582-8 8-8h52.267c4.418 0 8 3.582 8 8v69.333c0 4.418-3.582 8-8 8z" fill="#8dd4ff"/><path d="m239.467 221.867h-52.267c-4.418 0-8-3.582-8-8v-69.333c0-4.418 3.582-8 8-8h52.267c4.418 0 8 3.582 8 8v69.333c0 4.418-3.582 8-8 8z" fill="#8dd4ff"/><path d="m181.106 349.867h23.694v133.151h-23.694z" fill="#724435"/><path d="m205.333 358.4h-86.4c-4.418 0-8-3.582-8-8v-18.133c0-4.418 3.582-8 8-8h86.4c4.418 0 8 3.582 8 8v18.133c0 4.418-3.581 8-8 8z" fill="#fbf3f3"/><path d="m205.092 324.267h-23.694c4.552 0 8.242 3.69 8.242 8.241v17.651c0 4.551-3.69 8.241-8.242 8.241h23.694c4.552 0 8.241-3.69 8.241-8.241v-17.651c0-4.552-3.69-8.241-8.241-8.241z" fill="#e8e3f0"/><path d="m136.825 136.534h-23.694c4.552 0 8.242 3.69 8.242 8.241v68.85c0 4.552-3.69 8.241-8.242 8.241h23.694c4.552 0 8.241-3.69 8.241-8.241v-68.85c.001-4.552-3.689-8.241-8.241-8.241z" fill="#45afff"/><path d="m239.225 136.534h-23.694c4.552 0 8.242 3.69 8.242 8.241v68.85c0 4.552-3.69 8.241-8.242 8.241h23.694c4.552 0 8.241-3.69 8.241-8.241v-68.85c.001-4.552-3.689-8.241-8.241-8.241z" fill="#45afff"/><path d="m296.879.193-23.602 5.217c5.312-1.138 10.321 2.911 10.321 8.344v17.453c0 3.477-2.101 6.541-5.209 7.855l22.065-4.728c3.935-.843 6.745-4.32 6.745-8.344v-17.453c.001-5.433-5.008-9.482-10.32-8.344z" fill="#e8e3f0"/></g><g><g><path d="m504 512h-496c-4.418 0-8-3.582-8-8v-18.133c0-4.418 3.582-8 8-8h496c4.418 0 8 3.582 8 8v18.133c0 4.418-3.582 8-8 8z" fill="#7a6d79"/></g></g><path d="m503.758 477.867h-23.694c4.552 0 8.241 3.69 8.241 8.242v17.65c0 4.552-3.69 8.241-8.241 8.241h23.694c4.552 0 8.242-3.69 8.242-8.241v-17.65c0-4.552-3.69-8.242-8.242-8.242z" fill="#554e56"/><path d="m481.685 79.862c-4.687 7.422-11.515 15.821-20.891 21.95-2.87 1.876-6.65-.298-6.403-3.718 1.397-19.357-.69-70.227-55.917-97.816-1.59-.794-3.522.2-3.732 1.934-1.169 9.677-7.94 38.15-46.558 77.775l.001.002s-1.09 1.112-1.634 1.662c-5.467 5.968-21.99 27.645-7.347 58.714 1.577 3.346-1.703 6.939-5.16 5.623-5.83-2.218-13.354-6.084-19.915-12.642-1.388-1.387-3.79-.812-4.326 1.056-.004.015-.009.031-.013.046-1.471 5.128-2.542 14.686-2.542 21.45-.001 55.285 45.824 100.102 102.352 100.102s102.353-44.817 102.353-100.102c0-25.577-9.809-53.505-25.948-76.135-1.074-1.504-3.333-1.464-4.32.099z" fill="#ff7f3b"/><path d="m397.732 226.365 19.433-2.98 25.266-15.027-18-54.165-3.303-37.218h-11.665c1.056 14.08-5.115 27.901-16.731 36.724-7.855 5.966-17.39 9.038-27.003 9.038-2.08 0-4.164-.144-6.235-.433-4.356-.608-8.304 2.545-8.373 6.825-.005.332-.008.663-.008.992 0 27.677 20.04 50.843 46.619 56.244z" fill="#ffe652"/><path d="m486.005 79.764c-1.073-1.505-3.333-1.465-4.32.098-2.783 4.408-6.328 9.156-10.706 13.573 10.938 19.676 17.327 41.833 17.327 62.464 0 51.373-39.572 93.699-90.529 99.433 3.88.437 7.824.669 11.824.669 56.528 0 102.353-44.817 102.353-100.102-.001-25.578-9.81-53.506-25.949-76.135z" fill="#f55b31"/><path d="m451.164 198.536c-4.789-3.086-8.99-7.109-12.29-11.936-9.432-13.794-9.803-31.652-.951-45.805 2.261-3.616 4.781-8.733 3.943-12.58-.389-1.787-1.376-3.204-1.792-3.742-.433-.441-.808-.823-.808-.823-.124-.126-.247-.254-.369-.382-11.226-11.546-17.809-22.508-24.941-32.743-.609-.873-1.677-1.332-2.752-1.19-1.231.162-2.214 1.082-2.438 2.271-2.084 11.072.018 20.262.034 20.347.333 1.673.539 3.349.664 5.022 1.779 2.078 3.679 4.175 5.738 6.293.122.128.246.255.369.382 0 0 .375.382.808.823.416.538 1.403 1.955 1.793 3.742.838 3.847-1.681 8.965-3.943 12.58-8.852 14.153-8.481 32.011.951 45.805 3.3 4.826 7.501 8.85 12.29 11.936 3.733 2.406 4.237 7.53 1.198 10.729-8.116 8.544-18.853 14.653-30.935 17.1 3.834.779 7.802 1.191 11.868 1.191 16.86 0 32.078-7.044 42.762-18.29 3.038-3.2 2.534-8.325-1.199-10.73z" fill="#f4c338"/></g></svg>