<svg id="Capa_1" enable-background="new 0 0 512 512" height="512" viewBox="0 0 512 512" width="512" xmlns="http://www.w3.org/2000/svg"><g><path d="m230.4 47.686v-13.553l-5.883-23.53c-1.346-5.386 2.727-10.603 8.279-10.603h46.408c5.551 0 9.625 5.217 8.279 10.603l-5.883 23.53v13.553z" fill="#ff7f3b"/><path d="m279.204 0h-23.694c5.552 0 9.625 5.217 8.279 10.603l-5.883 23.53v13.553h23.694v-13.553l5.882-23.53c1.347-5.386-2.726-10.603-8.278-10.603z" fill="#f55b31"/><path d="m372.978 349.867-20.736-42.667 2.958-42.666-14.222-68.267-18.958-34.133 4.735-34.134-16.725-80.281c-1.649-7.914-8.624-13.586-16.708-13.586h-74.645c-8.084 0-15.059 5.672-16.708 13.586l-16.725 80.281 9.068 30.433-23.29 37.834-14.222 68.266 9.272 42.667-27.05 42.667-19.556 93.867v12.471h273.067v-12.471z" fill="#ff7f3b"/><g fill="#f55b31"><path d="m372.978 349.867-20.736-42.667 2.958-42.666-14.222-68.267-18.958-34.133 4.735-34.134-16.725-80.281c-1.649-7.914-8.624-13.586-16.708-13.586h-23.694c8.084 0 15.059 5.672 16.708 13.586l82.503 396.014v12.471h23.694v-12.471z"/><path d="m196.079 75.993h119.842l-3.22-15.453h-113.402z"/><path d="m124.968 417.326h262.064l-3.22-15.453h-255.625z"/></g><g fill="#fbf3f3"><path d="m340.978 196.267h-169.956l14.222-68.267h141.511z"/><path d="m372.978 349.867h-233.956l17.778-85.334h198.4z"/></g><path d="m326.755 128h-23.694l14.223 68.267h23.694l-2.616-12.556z" fill="#e8e3f0"/><path d="m355.2 264.533h-23.694l17.778 85.334h23.694z" fill="#e8e3f0"/><path d="m426.667 494.933h-341.334v-43.2c0-4.418 3.582-8 8-8h325.333c4.418 0 8 3.582 8 8v43.2z" fill="#918291"/><path d="m452.8 512h-393.6c-4.418 0-8-3.582-8-8v-18.133c0-4.418 3.582-8 8-8h393.6c4.418 0 8 3.582 8 8v18.133c0 4.418-3.582 8-8 8z" fill="#7a6d79"/><path d="m418.425 443.733h-23.694c4.552 0 8.241 3.69 8.241 8.241v42.959h23.694v-42.959c.001-4.551-3.689-8.241-8.241-8.241z" fill="#7a6d79"/><path d="m452.559 477.867h-23.694c4.552 0 8.241 3.69 8.241 8.241v17.65c0 4.552-3.69 8.241-8.241 8.241h23.694c4.552 0 8.241-3.69 8.241-8.241v-17.65c0-4.552-3.69-8.241-8.241-8.241z" fill="#554e56"/></g></svg>