<svg id="Capa_1" enable-background="new 0 0 512 512" height="512" viewBox="0 0 512 512" width="512" xmlns="http://www.w3.org/2000/svg"><g><g><g><path d="m105.006 200.608c-2.834 0-5.563-1.565-6.916-4.273l-14.02-28.04c-1.908-3.817-.361-8.458 3.455-10.366 3.819-1.906 8.459-.361 10.366 3.455l14.02 28.04c1.908 3.817.361 8.458-3.455 10.366-1.11.554-2.289.818-3.45.818z" fill="#554e56"/></g></g><g><g><path d="m405.854 202.996c-1.161 0-2.34-.262-3.45-.818-3.816-1.908-5.363-6.549-3.455-10.366l16.516-33.033c1.908-3.816 6.548-5.366 10.366-3.455 3.816 1.908 5.363 6.549 3.455 10.366l-16.516 33.033c-1.352 2.708-4.082 4.273-6.916 4.273z" fill="#554e56"/></g></g><g><g><g><path d="m145.094 477.867-42.667-256v-11.545h307.2v11.545l-42.666 256v9.64h-221.867z" fill="#7a6d79"/><g><path d="m386.044 210.322v11.545l-42.667 256v9.64h23.584v-9.64l42.666-256v-11.545z" fill="#554e56"/></g></g></g><path d="m409.627 187.733h-307.2c-9.426 0-17.067 7.641-17.067 17.067s7.641 17.067 17.067 17.067h286.951l9.587-1.578 10.661 1.578c9.426 0 17.066-7.641 17.066-17.067.002-9.426-7.639-17.067-17.065-17.067z" fill="#918291"/><g><g><path d="m145.094 477.867c-9.426 0-17.067 7.641-17.067 17.067s7.641 17.067 17.067 17.067h221.867c9.426 0 17.067-7.641 17.067-17.067s-7.641-17.067-17.067-17.067z" fill="#918291"/></g></g><g><path d="m403.583 297.86h-295.112c-4.267 0-7.726-3.459-7.726-7.726 0-4.268 3.459-7.726 7.726-7.726h295.112c4.268 0 7.726 3.459 7.726 7.726s-3.459 7.726-7.726 7.726z" fill="#918291"/></g><g><path d="m397.895 331.993h-283.735c-4.268 0-7.726-3.459-7.726-7.726s3.459-7.726 7.726-7.726h283.734c4.268 0 7.726 3.459 7.726 7.726s-3.458 7.726-7.725 7.726z" fill="#918291"/></g><g><path d="m372.649 451.46h-233.244c-4.268 0-7.726-3.459-7.726-7.726 0-4.268 3.459-7.726 7.726-7.726h233.244c4.268 0 7.726 3.459 7.726 7.726.001 4.267-3.458 7.726-7.726 7.726z" fill="#918291"/></g><g fill="#7a6d79"><path d="m409.627 187.733h-23.583c9.426 0 17.067 7.641 17.067 17.067s-7.641 17.067-17.067 17.067h23.583c9.425 0 17.067-7.641 17.067-17.067s-7.641-17.067-17.067-17.067z"/><path d="m366.961 477.867h-23.694c9.426 0 17.067 7.641 17.067 17.067s-7.642 17.066-17.068 17.066h23.694c9.426 0 17.067-7.641 17.067-17.066s-7.641-17.067-17.066-17.067z"/></g></g><path d="m439.946 149.918c-8.544-41.754-31.449-79.769-64.496-107.042-33.502-27.649-75.914-42.876-119.422-42.876-43.559 0-86.01 15.258-119.532 42.966-33.069 27.332-55.957 65.418-64.447 107.238-1.852 9.125 3.957 18.015 13.005 20.037l1.954-5.48 13.272 1.428c2.581-2.354 4.473-5.51 5.222-9.196 14.451-71.19 77.757-122.86 150.527-122.86 72.654 0 135.939 51.572 150.479 122.626.765 3.737 2.709 6.921 5.35 9.282l9.142.261 6.139 3.629c8.948-2.106 14.662-10.946 12.807-20.013z" fill="#918291"/><path d="m282.161 375.467h-52.267c-4.418 0-8 3.582-8 8v18.133c0 4.418 3.582 8 8 8h52.267c4.418 0 8-3.582 8-8v-18.133c0-4.419-3.582-8-8-8z" fill="#fbf3f3"/><path d="m281.919 375.467h-23.694c4.552 0 8.241 3.69 8.241 8.241v17.65c0 4.552-3.69 8.242-8.241 8.242h23.694c4.552 0 8.241-3.69 8.241-8.242v-17.65c.001-4.552-3.689-8.241-8.241-8.241z" fill="#e8e3f0"/><g><g fill="#7a6d79"><path d="m232.333 34.133c-72.77 0-136.076 51.671-150.527 122.86-.715 3.52-2.466 6.563-4.87 8.88 2.259 2.183 5.136 3.78 8.443 4.451 1.145.232 2.287.344 3.412.344 7.949 0 15.065-5.583 16.709-13.675 13.66-67.295 70.978-117.139 138.676-122.392-3.915-.304-7.864-.468-11.843-.468z"/><path d="m439.946 149.918c-8.544-41.754-31.449-79.769-64.496-107.042-33.502-27.649-75.914-42.876-119.423-42.876-3.96 0-7.911.13-11.847.38 39.308 2.498 77.123 17.364 107.576 42.496 33.047 27.273 55.952 65.287 64.496 107.042 1.215 5.937-.824 11.772-4.88 15.693 3.912 3.773 9.551 5.622 15.275 4.448 9.234-1.89 15.189-10.907 13.299-20.141z"/></g></g></g></svg>