<svg id="Capa_1" enable-background="new 0 0 512 512" height="512" viewBox="0 0 512 512" width="512" xmlns="http://www.w3.org/2000/svg"><g><path d="m217.562 372.834v-268.91h27.52l46.703-66.358c3.352-4.762 10.411-4.762 13.763 0l77.027 109.443c4.133 5.873.108 14.149-6.881 14.149h-16.714c-3.546 0-5.436 4.181-3.094 6.843l52.121 59.244v145.588h-190.445z" fill="#c0ed6b"/><path d="m408.007 254.179v-26.933l-52.121-59.244c-2.342-2.662-.452-6.843 3.094-6.843h16.713c6.99 0 11.015-8.277 6.881-14.149l-77.026-109.443c-3.352-4.762-10.411-4.762-13.763 0l-4.966 7.056 72.061 102.388c4.133 5.873.108 14.149-6.881 14.149h-16.713c-3.546 0-5.436 4.181-3.094 6.843z" fill="#95cf53"/><path d="m264.533 416.385h68.267v71.363h-68.267z" fill="#724435"/><path d="m309.106 416.386h23.694v71.362h-23.694z" fill="#4f2f25"/><path d="m145.067 416.385h68.267v71.363h-68.267z" fill="#9f5f4b"/><path d="m189.639 416.386h23.694v71.362h-23.694z" fill="#724435"/><path d="m327.977 364.965-50.903-80.361c-1.738-2.744.233-6.326 3.481-6.326h24.314c7.425 0 11.308-10.948 6.29-17.737l-75.904-102.712c-2.01-2.72-.068-6.57 3.314-6.57h17.658c6.99 0 11.015-9.853 6.881-16.844l-77.027-130.289c-3.095-5.234-10.668-5.234-13.763 0l-77.027 130.29c-4.133 6.992-.108 16.844 6.882 16.844h17.658c3.382 0 5.324 3.85 3.314 6.57l-75.904 102.711c-5.017 6.789-1.134 17.737 6.29 17.737h24.314c3.248 0 5.219 3.582 3.481 6.326l-79.012 124.738c-4.399 6.945-.411 17.124 6.71 17.124h311.247z" fill="#95cf53"/><path d="m239.291 134.415c4.133 6.992.108 16.844-6.881 16.844h-17.658c-3.382 0-5.324 3.85-3.314 6.57l75.904 102.712c5.017 6.789 1.135 17.737-6.29 17.737h23.817c7.425 0 11.308-10.948 6.29-17.737l-75.904-102.712c-2.01-2.72-.068-6.57 3.314-6.57h17.658c6.99 0 11.015-9.853 6.881-16.844l-77.027-130.289c-3.094-5.234-10.668-5.234-13.763 0l-5.027 8.503z" fill="#73b537"/><path d="m324.044 396.356 3.933-31.391-50.903-80.361c-1.738-2.743.233-6.326 3.481-6.326h-23.817c-3.248 0-5.219 3.582-3.481 6.326z" fill="#73b537"/><path d="m504 511.8h-496c-4.418 0-8-3.582-8-8v-18.133c0-4.418 3.582-8 8-8h496c4.418 0 8 3.582 8 8v18.133c0 4.419-3.582 8-8 8z" fill="#c0ed6b"/><path d="m481.685 301.529c-4.687 7.422-11.515 15.821-20.891 21.95-2.87 1.876-6.65-.299-6.403-3.719 1.397-19.357-.69-70.227-55.917-97.816-1.59-.794-3.522.2-3.732 1.934-1.169 9.677-7.94 38.151-46.558 77.775l.001.002s-1.09 1.112-1.634 1.662c-5.467 5.968-21.99 27.645-7.347 58.714 1.577 3.345-1.703 6.939-5.16 5.623-5.83-2.219-13.354-6.084-19.915-12.642-1.388-1.387-3.79-.812-4.326 1.056-.004.016-.009.031-.013.047-1.471 5.128-2.542 14.686-2.542 21.45 0 55.285 45.825 100.102 102.353 100.102s102.353-44.817 102.353-100.102c0-25.577-9.809-53.505-25.948-76.135-1.075-1.504-3.334-1.464-4.321.099z" fill="#ff7f3b"/><path d="m397.732 448.032 21.598-2.793 17.67-14.037-13.211-42.204 3.138-50.356h-17.464c1.056 14.079-5.115 27.901-16.731 36.724-7.855 5.966-17.39 9.038-27.003 9.038-2.08 0-4.164-.144-6.235-.433-4.356-.608-8.304 2.545-8.373 6.825-.005.332-.008.663-.008.992 0 27.677 20.04 50.843 46.619 56.244z" fill="#ffe652"/><path d="m503.758 477.667h-23.694c4.552 0 8.241 3.69 8.241 8.241v17.65c0 4.552-3.69 8.242-8.241 8.242h23.694c4.552 0 8.242-3.69 8.242-8.242v-17.65c0-4.551-3.69-8.241-8.242-8.241z" fill="#95cf53"/><path d="m486.005 301.431c-1.073-1.505-3.333-1.465-4.32.098-2.783 4.407-6.328 9.156-10.706 13.573 10.938 19.675 17.327 41.832 17.327 62.464 0 51.373-39.572 93.699-90.529 99.433 3.88.437 7.824.669 11.824.669 56.528 0 102.353-44.817 102.353-100.102-.001-25.578-9.81-53.506-25.949-76.135z" fill="#f55b31"/><path d="m451.164 420.202c-4.789-3.086-8.99-7.109-12.29-11.936-9.432-13.794-9.803-31.652-.951-45.805 2.261-3.615 4.781-8.733 3.943-12.58-.389-1.787-1.376-3.204-1.792-3.742-.433-.441-.808-.823-.808-.823-.124-.126-.247-.254-.369-.382-11.226-11.546-17.809-22.508-24.941-32.743-.609-.874-1.677-1.332-2.753-1.19-1.231.162-2.214 1.082-2.438 2.271-2.084 11.072.018 20.262.034 20.347.333 1.673.539 3.349.664 5.022 1.779 2.078 3.679 4.176 5.738 6.293.122.128.246.255.369.382 0 0 .375.382.808.823.416.538 1.403 1.955 1.793 3.742.838 3.847-1.681 8.965-3.943 12.58-8.852 14.153-8.481 32.011.951 45.805 3.3 4.827 7.501 8.85 12.29 11.936 3.733 2.406 4.237 7.531 1.198 10.729-8.116 8.544-18.853 14.653-30.935 17.1 3.834.779 7.802 1.191 11.868 1.191 16.86 0 32.078-7.044 42.762-18.291 3.039-3.198 2.535-8.323-1.198-10.729z" fill="#f4c338"/><g fill="#73b537"><path d="m116.58 166.712h28.486c4.267 0 7.726-3.459 7.726-7.726 0-4.268-3.459-7.726-7.726-7.726h-25.236c3.382 0 5.324 3.85 3.314 6.57z"/><path d="m75.546 293.73h26.854c4.267 0 7.726-3.459 7.726-7.726 0-4.268-3.459-7.726-7.726-7.726l-24.555.001c3.248 0 5.219 3.582 3.481 6.326z"/><path d="m213.333 166.712h28.486l-6.564-8.883c-2.01-2.72-.068-6.57 3.314-6.57h-25.236c-4.267 0-7.726 3.459-7.726 7.726 0 4.268 3.459 7.727 7.726 7.727z"/><path d="m280.555 278.278-24.555-.001c-4.267 0-7.726 3.459-7.726 7.726 0 4.268 3.459 7.726 7.726 7.726h26.854l-5.781-9.126c-1.737-2.743.234-6.325 3.482-6.325z"/></g><path d="m355.887 168.002c-2.342-2.662-.452-6.843 3.094-6.843h-26.181c-4.267 0-7.726 3.459-7.726 7.726 0 4.268 3.459 7.726 7.726 7.726h30.661z" fill="#95cf53"/></g></svg>