<svg id="Capa_1" enable-background="new 0 0 512 512" height="512" viewBox="0 0 512 512" width="512" xmlns="http://www.w3.org/2000/svg"><g><path d="m385.464 78.264-25.227-25.227c-2.382-2.382-5.417-4.006-8.721-4.667l-39.518-7.904c-4.29-.858-4.663-6.848-.512-8.231l37.153-12.384c12.265-4.088 25.788-.896 34.93 8.246l26.031 26.032 30.17-18.102 65.919-35.495c3.727-2.007 7.786 2.053 5.78 5.779l-35.496 65.919z" fill="#fbf3f3"/><path d="m505.689.531-20.847 11.225-33.445 62.112 24.576-1.638 35.495-65.919c2.007-3.727-2.052-7.786-5.779-5.78z" fill="#e8e3f0"/><path d="m355.864 180.271 2.934-8.913 7.993-2.014 22.267-22.266-24.136-24.136-22.266 22.266-2.436 7.159-8.491 3.769v-.001l-180.021 180.021 24.135 24.136z" fill="#918291"/><path d="m355.864 180.271 2.934-8.914 7.993-2.013 22.267-22.267-24.136-24.136-20.288 20.288 6.461 6.461c3.219 3.219 3.219 8.437 0 11.655l-187.099 187.1 11.847 11.847z" fill="#7a6d79"/><path d="m179.438 356.698-16.383-5.038-7.753-19.098-.377-.377c-3.124-3.124-8.189-3.124-11.314 0l-127.268 127.268 36.204 36.204 127.268-127.268c3.124-3.124 3.124-8.19 0-11.314z" fill="#f03747"/><path d="m391.498 156.706-36.204-36.204c-3.332-3.333-3.332-8.736 0-12.068l72.408-72.408c3.332-3.333 8.736-3.333 12.068 0l36.204 36.204c3.333 3.333 3.333 8.736 0 12.068l-72.408 72.408c-3.333 3.333-8.736 3.333-12.068 0z" fill="#e8e3f0"/><path d="m475.973 72.23-36.204-36.204c-3.332-3.332-8.736-3.332-12.068 0l-5.813 5.813 30.391 30.391c3.333 3.333 3.333 8.736 0 12.068l-66.595 66.595 5.813 5.813c3.332 3.333 8.736 3.333 12.068 0l72.408-72.408c3.333-3.332 3.333-8.735 0-12.068z" fill="#d3cbe4"/><path d="m366.791 169.344-24.135-24.135-10.927 10.927 24.135 24.135z" fill="#554e56"/><path d="m179.644 356.905-24.719-24.719c-3.124-3.124-8.19-3.124-11.314 0l-6.117 6.117 18.602 18.602c3.218 3.218 3.218 8.437 0 11.655l-115.323 115.323 11.774 11.774 127.097-127.097c3.219-3.219 3.219-8.437 0-11.655z" fill="#b9385d"/><path d="m63.921 484.282-25.82-16.475-10.383-19.729-2.305-2.305c-2.285-2.285-5.666-3.083-8.732-2.062l-5.003 1.668c-12.036 4.012-15.642 19.288-6.671 28.259l33.355 33.355c8.971 8.971 24.247 5.365 28.259-6.671l1.668-5.003c1.022-3.066.224-6.447-2.062-8.732z" fill="#e8e3f0"/><path d="m66.226 486.587-40.813-40.813c-2.285-2.286-5.666-3.084-8.732-2.061l-5.003 1.668c-2.545.848-4.707 2.204-6.459 3.893l37.314 37.314c2.285 2.286 3.083 5.666 2.062 8.732l-1.668 5.004c-.92 2.759-2.436 5.069-4.328 6.892 9 8.68 24.045 5.04 28.022-6.892l1.668-5.004c1.021-3.067.223-6.447-2.063-8.733z" fill="#d3cbe4"/></g></svg>