<svg id="Capa_1" enable-background="new 0 0 512 512" height="512" viewBox="0 0 512 512" width="512" xmlns="http://www.w3.org/2000/svg"><g><path d="m469.333 452.801v-306.709l-213.333-127.994-213.333 127.994v306.709l34.133 29.905h358.4z" fill="#f03747"/><path d="m445.639 469.188h4.99l18.704-16.387v-306.709l-23.694-14.216z" fill="#b9385d"/><g fill="#fbf3f3"><path d="m432.109 482.706h62.824v-31.285c0-4.418-3.582-8-8-8h-54.824z"/><path d="m79.891 482.706h-62.824v-31.285c0-4.418 3.582-8 8-8h54.824z"/></g><path d="m486.692 443.422h-23.785c4.552 0 8.242 3.69 8.242 8.241v31.043h23.785v-31.043c-.001-4.551-3.69-8.241-8.242-8.241z" fill="#e8e3f0"/><path d="m76.8 494.933v-290.133c0-9.426 7.641-17.067 17.067-17.067h324.267c9.426 0 17.067 7.641 17.067 17.067v290.133z" fill="#918291"/><g><path d="m487.751 165.633-229.69-126.725c-1.283-.708-2.839-.708-4.122 0l-229.69 126.725c-4.126 2.277-9.317.777-11.594-3.349l-8.244-14.942c-2.277-4.126-.777-9.317 3.349-11.594l244.118-134.686c2.566-1.416 5.679-1.416 8.245 0l244.117 134.685c4.126 2.277 5.626 7.468 3.349 11.594l-8.245 14.942c-2.277 4.127-7.467 5.627-11.593 3.35z" fill="#fbf3f3"/></g><g><path d="m323.975 477.867c-4.552 0-8.241-3.69-8.241-8.242v-34.78h42.666v34.78c0 4.552-3.69 8.242-8.241 8.242v4.84h-25.892z" fill="#7a6d79"/><path d="m334.706 434.845v34.78c0 4.552-3.69 8.241-8.241 8.241v4.84h23.694v-4.84c4.552 0 8.241-3.69 8.241-8.241v-34.78z" fill="#554e56"/><path d="m161.841 477.867c-4.552 0-8.241-3.69-8.241-8.242v-34.78h42.667v34.78c0 4.552-3.69 8.242-8.242 8.242v4.84h-25.892z" fill="#7a6d79"/><path d="m172.572 434.845v34.78c0 4.552-3.69 8.241-8.241 8.241v4.84h23.694v-4.84c4.552 0 8.242-3.69 8.242-8.241v-34.78z" fill="#554e56"/><path d="m324.267 264.837h-34.133v-34.97c0-4.418 3.582-8 8-8h18.133c4.418 0 8 3.582 8 8z" fill="#8dd4ff"/><path d="m316.025 221.867h-17.65c-1.068 0-2.085.21-3.022.579 3.055 1.206 5.22 4.178 5.22 7.662v34.729h23.694v-34.729c0-4.551-3.69-8.241-8.242-8.241z" fill="#45afff"/><path d="m221.867 264.837h-34.133v-34.97c0-4.418 3.582-8 8-8h18.133c4.418 0 8 3.582 8 8z" fill="#8dd4ff"/><path d="m213.625 221.867h-17.65c-1.068 0-2.085.21-3.022.579 3.055 1.206 5.219 4.178 5.219 7.662v34.729h23.694v-34.729c.001-4.551-3.689-8.241-8.241-8.241z" fill="#45afff"/><path d="m382.292 290.133c4.552 0 8.241 3.69 8.241 8.241v43.25c0 4.552-3.69 8.242-8.241 8.242h-254.584c-4.551 0-8.241-3.69-8.241-8.242v-43.25c0-4.552 3.69-8.241 8.241-8.241z" fill="#f03747"/><path d="m384.292 290.133h-23.694c4.552 0 8.241 3.69 8.241 8.241v43.25c0 4.552-3.69 8.241-8.241 8.241h23.694c4.552 0 8.241-3.69 8.241-8.241v-43.25c0-4.551-3.69-8.241-8.241-8.241z" fill="#b9385d"/><path d="m341.917 256h-78.191l-7.726 3.954-7.726-3.954h-78.191c-9.103 0-16.483 7.38-16.483 16.483v68.85l102.4 20.473 102.4-20.473v-68.85c0-9.103-7.38-16.483-16.483-16.483z" fill="#fbf3f3"/><path d="m263.726 256v85.333c0 4.268-3.459 7.726-7.726 7.726s-7.726-3.459-7.726-7.726v-85.333z" fill="#b9385d"/><path d="m341.917 256h-23.694c9.103 0 16.483 7.38 16.483 16.483v73.588l23.694-4.737v-68.85c0-9.104-7.38-16.484-16.483-16.484z" fill="#e8e3f0"/><path d="m354.042 341.333h-200.442v68.267h204.8v-59.734z" fill="#f03747"/><path d="m290.133 419.194v-35.194c0-4.713-3.821-8.533-8.533-8.533h-51.2c-4.713 0-8.533 3.821-8.533 8.533v35.194z" fill="#b9385d"/><path d="m334.706 341.333h23.694v68.267h-23.694z" fill="#b9385d"/><g><g><path d="m192 383.193h-8.533c-4.267 0-7.726-3.459-7.726-7.726 0-4.268 3.459-7.726 7.726-7.726h8.533c4.267 0 7.726 3.459 7.726 7.726s-3.459 7.726-7.726 7.726z" fill="#ffe652"/></g></g><g><g><path d="m328.533 383.193h-8.533c-4.268 0-7.726-3.459-7.726-7.726 0-4.268 3.459-7.726 7.726-7.726h8.533c4.267 0 7.726 3.459 7.726 7.726.001 4.267-3.458 7.726-7.726 7.726z" fill="#ffe652"/></g></g><path d="m367.467 443.733h-222.934c-4.418 0-8-3.582-8-8v-18.133c0-4.418 3.582-8 8-8h222.933c4.418 0 8 3.582 8 8v18.133c.001 4.419-3.581 8-7.999 8z" fill="#fbf3f3"/><path d="m367.225 409.6h-23.694c4.552 0 8.241 3.69 8.241 8.241v17.65c0 4.552-3.69 8.241-8.241 8.241h23.694c4.552 0 8.242-3.69 8.242-8.241v-17.65c0-4.551-3.69-8.241-8.242-8.241z" fill="#e8e3f0"/></g><path d="m289.133 119.467c0 18.851-14.282 34.133-33.133 34.133s-34.133-15.282-34.133-34.133 15.282-34.133 34.133-34.133c18.851-.001 33.133 15.281 33.133 34.133z" fill="#ffe652"/><path d="m504 512h-496c-4.418 0-8-3.582-8-8v-18.133c0-4.418 3.582-8 8-8h496c4.418 0 8 3.582 8 8v18.133c0 4.418-3.582 8-8 8z" fill="#e8e3f0"/><path d="m503.758 477.867h-23.694c4.552 0 8.241 3.69 8.241 8.241v17.65c0 4.552-3.69 8.241-8.241 8.241h23.694c4.552 0 8.242-3.69 8.242-8.241v-17.65c0-4.551-3.69-8.241-8.242-8.241z" fill="#d3cbe4"/><path d="m256 85.333c-4.166 0-8.156.749-11.847 2.115 13.011 4.816 22.286 17.333 22.286 32.019 0 14.685-9.275 27.202-22.286 32.018 3.691 1.366 7.681 2.115 11.847 2.115 18.851 0 34.133-15.282 34.133-34.133s-15.282-34.134-34.133-34.134z" fill="#f4c338"/><path d="m504.24 135.747-244.118-134.685c-2.566-1.416-5.679-1.416-8.245 0l-18.837 10.393c1.171.101 2.327.43 3.388 1.016l244.117 134.686c4.126 2.277 5.626 7.467 3.349 11.594l-2.011 3.645 5.867 3.237c4.126 2.277 9.317.777 11.594-3.349l8.245-14.943c2.277-4.126.777-9.317-3.349-11.594z" fill="#e8e3f0"/></g></svg>