<svg id="Capa_1" enable-background="new 0 0 512 512" height="512" viewBox="0 0 512 512" width="512" xmlns="http://www.w3.org/2000/svg"><g><path d="m110.94 401.543v-46.559l-76.796-133.128v179.686.001l3.278 7.726-3.278 7.726v-.001 36.429h76.796v-36.428l-5.069-8.912z" fill="#b9385d"/><path d="m110.94 401.543v-46.559l-23.693-41.072v139.511h23.693v-36.428l-5.069-8.912z" fill="#9e2950"/><path d="m34.144 416.995h.001 76.795v-15.452h-76.795-.001z" fill="#f03747"/><path d="m25.078 443.4h94.928c4.418 0 8 3.582 8 8v35.509c0 4.418-3.582 8-8 8h-94.928c-4.418 0-8-3.582-8-8v-35.509c0-4.418 3.582-8 8-8z" fill="#fbf3f3"/><path d="m119.765 443.4h-23.634c4.552 0 8.241 3.69 8.241 8.241v35.027c0 4.551-3.689 8.241-8.241 8.241h23.634c4.551 0 8.241-3.69 8.241-8.241v-35.027c0-4.551-3.689-8.241-8.241-8.241z" fill="#e8e3f0"/><path d="m51.21 470.117c-4.267 0-7.726 3.459-7.726 7.726v17.066h15.452v-17.066c0-4.268-3.458-7.726-7.726-7.726z" fill="#d3cbe4"/><path d="m93.874 470.117c-4.267 0-7.726 3.459-7.726 7.726v17.066h15.452v-17.066c0-4.268-3.459-7.726-7.726-7.726z" fill="#d3cbe4"/><path d="m477.856 221.856c0-122.528-99.328-221.856-221.856-221.856s-221.856 99.328-221.856 221.856 99.328 221.855 221.856 221.855c56.473 0 108.018-21.1 147.18-55.846l13.287-29.538h61.388v-136.471z" fill="#f03747"/><g><path d="m256 0c-3.708 0-7.394.095-11.057.275 117.39 5.762 210.798 102.761 210.798 221.581v136.471h22.115v-136.471c0-122.528-99.328-221.856-221.856-221.856z" fill="#b9385d"/></g><path d="m477.855 314.911h-76.796c-4.267 0-7.726-3.458-7.726-7.726s3.459-7.726 7.726-7.726h76.796z" fill="#b9385d"/><path d="m403.18 387.865 3.466-7.704-5.586-10.292v-148.013h-23.693v185.73c9.087-5.95 17.718-12.539 25.813-19.721z" fill="#b9385d"/><path d="m470.883 417.331-4.819-9.166 7.393-6.286 4.399-26.406v-9.085h-76.797v9.085l4.399 26.406 6.001 7.726-3.427 7.726 10.093 60.588v6.414h42.665v-6.414z" fill="#e8e3f0"/><path d="m470.883 417.331-4.819-9.166 7.393-6.286 4.399-26.406v-9.085h-23.693v9.085l-17.066 102.446v6.414h23.693v-6.414z" fill="#d3cbe4"/><g fill="#fbf3f3"><path d="m473.457 401.879h-67.999l2.574 15.452h62.851z"/><path d="m391.994 341.342h94.928c4.418 0 8 3.582 8 8v18.132c0 4.418-3.582 8-8 8h-94.928c-4.418 0-8-3.582-8-8v-18.132c0-4.419 3.581-8 8-8z"/><path d="m461.323 477.868h-.524l-9.831.645-10.526-.645h-22.849c-4.418 0-8 3.582-8 8v18.132c0 4.418 3.582 8 8 8h43.73c4.418 0 8-3.582 8-8v-18.132c0-4.418-3.582-8-8-8z"/></g><path d="m486.68 341.342h-23.863c4.552 0 8.241 3.69 8.241 8.241v17.65c0 4.551-3.689 8.241-8.241 8.241h23.863c4.552 0 8.241-3.69 8.241-8.241v-17.65c.001-4.552-3.689-8.241-8.241-8.241z" fill="#e8e3f0"/><path d="m461.323 477.868h-23.934c4.551 0 8.241 3.69 8.241 8.241v17.65c0 4.551-3.69 8.241-8.241 8.241h23.934c4.418 0 8-3.582 8-8v-18.132c0-4.418-3.582-8-8-8z" fill="#e8e3f0"/><path d="m400.059 221.856c0 80.114-63.945 145.059-144.059 145.059s-145.06-64.945-145.06-145.059 64.945-145.06 145.06-145.06c80.114 0 144.059 64.946 144.059 145.06z" fill="#b9385d"/><path d="m256 76.796c-3.989 0-7.938.168-11.846.484 74.573 6.028 133.213 68.451 133.213 144.576s-58.641 138.547-133.213 144.576c3.908.316 7.857.484 11.846.484 80.114 0 145.06-64.945 145.06-145.06 0-80.114-64.946-145.06-145.06-145.06z" fill="#9e2950"/><path d="m296.958 167.245c-11.409-8.571-25.59-13.652-40.958-13.652-15.369 0-29.549 5.081-40.959 13.652l-26.802 46.447c-.319 2.679-.503 5.399-.503 8.164 0 28.179 17.077 52.364 41.444 62.786h53.639c24.367-10.422 41.444-34.608 41.444-62.786 0-2.765-.183-5.485-.503-8.164z" fill="#e8e3f0"/><path d="m323.76 213.692-26.802-46.447c-11.409-8.571-25.59-13.652-40.958-13.652-4.043 0-7.997.372-11.846 1.046 32.051 5.611 56.417 33.56 56.417 67.218 0 28.199-17.108 52.381-41.504 62.786h23.753c24.367-10.422 41.444-34.608 41.444-62.786-.001-2.766-.184-5.486-.504-8.165z" fill="#d3cbe4"/><path d="m323.76 213.692c-2.261-18.959-12.275-35.535-26.802-46.447l-25.598 34.131-30.719.001-25.599-34.132c-14.527 10.912-24.541 27.489-26.802 46.447l42.344 5.102 15.359 26.608-16.762 39.241c8.234 3.522 17.298 5.477 26.82 5.477s18.586-1.955 26.82-5.477l-16.762-39.24 15.359-26.608z" fill="#fbf3f3"/><ellipse cx="256" cy="221.856" fill="#7a6d79" rx="25.599" ry="25.599" transform="matrix(.23 -.973 .973 .23 -18.738 420.036)"/><path d="m256 196.257c-4.312 0-8.372 1.071-11.937 2.954 8.123 4.291 13.661 12.819 13.661 22.645s-5.539 18.354-13.661 22.645c3.565 1.883 7.625 2.954 11.937 2.954 14.138 0 25.599-11.461 25.599-25.599s-11.461-25.599-25.599-25.599z" fill="#554e56"/><g><g><g><path d="m256 290.119c9.522 0 18.586-1.955 26.82-5.477l-5.073-11.876c-9.275 8.278-20.817 14.069-33.587 16.306 3.847.675 7.799 1.047 11.84 1.047z" fill="#e8e3f0"/></g><g><path d="m296.958 167.245-10.151 13.535c7.626 10.095 12.507 22.37 13.543 35.733l23.411-2.82c-2.262-18.96-12.276-35.536-26.803-46.448z" fill="#e8e3f0"/></g></g></g></g></svg>