<svg id="Capa_1" enable-background="new 0 0 512 512" height="512" viewBox="0 0 512 512" width="512" xmlns="http://www.w3.org/2000/svg"><g><path d="m213.333 281.6v-16.533l-3-14.691 3-11.443c0-4.713 3.82-8.533 8.533-8.533h17.067c4.713 0 8.533 3.82 8.533 8.533v34.133z" fill="#fbf3f3"/><path d="m238.933 230.4h-17.067c-1.175 0-2.295.238-3.314.668 3.067 1.294 5.219 4.328 5.219 7.865v40.057l23.694-5.923v-34.133c.002-4.713-3.819-8.534-8.532-8.534z" fill="#e8e3f0"/><g><path d="m401.066 191.753c9.059 8.11 21.018 13.048 34.133 13.048 28.277 0 51.2-22.923 51.2-51.2s-22.923-51.2-51.2-51.2c-22.291 0-41.245 14.25-48.275 34.133z" fill="#ffe652"/><path d="m435.2 102.4c-4.087 0-8.059.483-11.869 1.388 22.573 5.34 39.374 25.607 39.374 49.812 0 24.207-16.805 44.476-39.381 49.813 3.811.906 7.786 1.387 11.875 1.387 28.277 0 51.2-22.923 51.2-51.2s-22.922-51.2-51.199-51.2z" fill="#f4c338"/><path d="m387.863 170.667h47.337c9.426 0 17.067-7.641 17.067-17.067 0-9.426-7.641-17.067-17.067-17.067h-34.133z" fill="#ff7f3b"/><path d="m400.066 197.073v-18.681l-4.911-7.726 4.911-7.726v-26.406h-85.4c-8.837 0-16 7.163-16 16v10.406l5.232 7.727-5.232 7.726v18.681l5.232 7.727-5.232 7.726v36.66h101.4v-36.66l-4.911-7.726z" fill="#fbf3f3"/><path d="m401.067 197.073v-18.68l-4.911-7.727 4.911-7.726v-26.406h-23.695v112.652h23.695v-36.66l-4.911-7.726z" fill="#e8e3f0"/><path d="m443.733 273.067-5.302-21.206c-1.899-7.597-8.726-12.927-16.557-12.927h-144.015c-7.832 0-14.658 5.33-16.557 12.927l-5.302 21.206v24.774h187.733z" fill="#ffe652"/><path d="m438.432 251.861c-1.899-7.598-8.726-12.928-16.557-12.928h-23.668c7.831 0 14.658 5.33 16.557 12.928l5.302 21.206v24.774h23.668v-24.774z" fill="#f4c338"/><path d="m486.4 281.067c0-4.418-3.582-8-8-8h-257.067c-4.418 0-8 3.582-8 8v189.073l3.703 7.726-3.703 7.726v10.408c0 8.837 7.163 16 16 16h241.067c8.837 0 16-7.163 16-16v-10.407l-6.244-7.726 6.244-7.726z" fill="#7a6d79"/><path d="m307.2 477.867 5.301-21.206c1.9-7.597 8.726-12.927 16.557-12.927h41.616c7.831 0 14.658 5.33 16.557 12.927l5.302 21.206z" fill="#554e56"/><g><g><path d="m358.4 195.46h-17.067c-4.268 0-7.726-3.459-7.726-7.726s3.459-7.726 7.726-7.726h17.067c4.267 0 7.726 3.459 7.726 7.726.001 4.267-3.458 7.726-7.726 7.726z" fill="#7a6d79"/></g></g><g fill="#7a6d79"><path d="m401.067 162.94c-.001 0-.001 0 0 0h-17.067c-4.268 0-7.726 3.459-7.726 7.726s3.459 7.726 7.726 7.726h17.066v-15.452z"/><path d="m401.067 197.073c-.001 0-.001 0 0 0h-17.067c-4.268 0-7.726 3.459-7.726 7.726s3.459 7.726 7.726 7.726h17.066v-15.452z"/><path d="m315.733 162.94h-17.066v15.453h17.066c4.268 0 7.726-3.459 7.726-7.726.001-4.267-3.458-7.727-7.726-7.727z"/><path d="m315.733 197.073h-17.066v15.453h17.066c4.268 0 7.726-3.459 7.726-7.726.001-4.267-3.458-7.727-7.726-7.727z"/></g><path d="m486.4 470.14v-188.832c0-4.552-3.69-8.241-8.242-8.241h-23.694c4.551 0 8.241 3.69 8.241 8.241v214.209c0 9.104-7.38 16.483-16.483 16.483h23.694c9.103 0 16.483-7.379 16.483-16.483v-9.924l-6.244-7.726z" fill="#554e56"/><path d="m213.333 470.14h273.067v15.453h-273.067z" fill="#918291"/></g><path d="m25.6 257.067v-241.067c0-8.837 7.163-16 16-16h163.733c4.418 0 8 3.582 8 8v257.066c0 4.418-3.582 8-8 8h-163.733c-8.837.001-16-7.163-16-15.999z" fill="#7a6d79"/><path d="m205.092 0h-23.694c4.551 0 8.241 3.69 8.241 8.241v256.584c0 4.552-3.69 8.241-8.241 8.241h23.694c4.552 0 8.241-3.69 8.241-8.241v-256.584c0-4.551-3.69-8.241-8.241-8.241z" fill="#554e56"/><path d="m52.007 0h15.453v273.067h-15.453z" fill="#918291"/></g></svg>