<svg id="Capa_1" enable-background="new 0 0 512 512" height="512" viewBox="0 0 512 512" width="512" xmlns="http://www.w3.org/2000/svg"><g><g><g><path d="m366.957 34.134-15.36-20.48c-6.446-8.595-16.563-13.654-27.307-13.654h-221.866c-10.744 0-20.861 5.059-27.307 13.654l-15.36 20.48v9.545h307.177z" fill="#e8e3f0"/><path d="m351.597 13.654c-6.446-8.596-16.563-13.654-27.307-13.654h-23.717c10.744 0 20.861 5.058 27.307 13.654l15.36 20.48-.023 9.545h23.717l.023-9.545z" fill="#d3cbe4"/><path d="m42.69 57.402h341.333v397.196h-341.333z" fill="#c0ed6b"/><g><path d="m101.89 102.4h69.333c4.418 0 8 3.582 8 8v73.799h-85.333v-73.799c0-4.418 3.582-8 8-8z" fill="#8dd4ff"/><path d="m170.982 102.4h-23.694c4.551 0 8.241 3.69 8.241 8.242v73.558h23.694v-73.558c.001-4.552-3.689-8.242-8.241-8.242z" fill="#45afff"/><path d="m93.357 170.667h86.4c4.418 0 8 3.582 8 8v18.133c0 4.418-3.582 8-8 8h-86.4c-4.418 0-8-3.582-8-8v-18.133c0-4.419 3.582-8 8-8z" fill="#fbf3f3"/><path d="m179.516 170.667h-23.608c4.552 0 8.242 3.69 8.242 8.242v17.65c0 4.552-3.69 8.241-8.242 8.241h23.608c4.552 0 8.241-3.69 8.241-8.241v-17.65c0-4.552-3.69-8.242-8.241-8.242z" fill="#e8e3f0"/><path d="m255.49 102.4h69.333c4.418 0 8 3.582 8 8v73.799h-85.333v-73.799c0-4.418 3.582-8 8-8z" fill="#8dd4ff"/><path d="m324.582 102.4h-23.694c4.552 0 8.241 3.69 8.241 8.242v73.558h23.694v-73.558c.001-4.552-3.689-8.242-8.241-8.242z" fill="#45afff"/><path d="m246.957 170.667h86.4c4.418 0 8 3.582 8 8v18.133c0 4.418-3.582 8-8 8h-86.4c-4.418 0-8-3.582-8-8v-18.133c0-4.419 3.582-8 8-8z" fill="#fbf3f3"/><path d="m333.115 170.667h-23.608c4.551 0 8.241 3.69 8.241 8.242v17.65c0 4.552-3.69 8.241-8.241 8.241h23.608c4.552 0 8.242-3.69 8.242-8.241v-17.65c0-4.552-3.69-8.242-8.242-8.242z" fill="#e8e3f0"/></g><g><path d="m101.89 238.933h69.333c4.418 0 8 3.582 8 8v73.799h-85.333v-73.799c0-4.418 3.582-8 8-8z" fill="#8dd4ff"/><path d="m170.982 238.933h-23.694c4.551 0 8.241 3.69 8.241 8.242v73.557h23.694v-73.557c.001-4.552-3.689-8.242-8.241-8.242z" fill="#45afff"/><path d="m93.357 307.2h86.4c4.418 0 8 3.582 8 8v18.133c0 4.418-3.582 8-8 8h-86.4c-4.418 0-8-3.582-8-8v-18.133c0-4.418 3.582-8 8-8z" fill="#fbf3f3"/><path d="m179.516 307.2h-23.608c4.552 0 8.242 3.69 8.242 8.241v17.65c0 4.552-3.69 8.242-8.242 8.242h23.608c4.552 0 8.241-3.69 8.241-8.242v-17.65c0-4.551-3.69-8.241-8.241-8.241z" fill="#e8e3f0"/><path d="m255.49 238.933h69.333c4.418 0 8 3.582 8 8v73.799h-85.333v-73.799c0-4.418 3.582-8 8-8z" fill="#8dd4ff"/><path d="m324.582 238.933h-23.694c4.552 0 8.241 3.69 8.241 8.242v73.557h23.694v-73.557c.001-4.552-3.689-8.242-8.241-8.242z" fill="#45afff"/><path d="m246.957 307.2h86.4c4.418 0 8 3.582 8 8v18.133c0 4.418-3.582 8-8 8h-86.4c-4.418 0-8-3.582-8-8v-18.133c0-4.418 3.582-8 8-8z" fill="#fbf3f3"/><path d="m333.115 307.2h-23.608c4.551 0 8.241 3.69 8.241 8.241v17.65c0 4.552-3.69 8.242-8.241 8.242h23.608c4.552 0 8.242-3.69 8.242-8.242v-17.65c0-4.551-3.69-8.241-8.242-8.241z" fill="#e8e3f0"/></g><path d="m360.329 57.402h23.694v397.196h-23.694z" fill="#95cf53"/><path d="m393.09 68.267h-359.466c-4.418 0-8-3.582-8-8v-18.134c0-4.418 3.582-8 8-8h359.466c4.418 0 8 3.582 8 8v18.133c0 4.419-3.582 8.001-8 8.001z" fill="#fbf3f3"/><path d="m392.849 34.133h-23.939c4.552 0 8.241 3.69 8.241 8.242v17.65c0 4.552-3.69 8.241-8.241 8.241h23.939c4.552 0 8.241-3.69 8.241-8.241v-17.65c0-4.552-3.69-8.242-8.241-8.242z" fill="#e8e3f0"/><g fill="#fbf3f3"><path d="m256.024 483.018h145.066v-31.043c0-4.552-3.69-8.241-8.241-8.241h-139.916z"/><path d="m170.69 483.018h-145.066v-31.043c0-4.552 3.69-8.241 8.242-8.241h139.916z"/></g><path d="m392.849 443.733h-23.939c4.552 0 8.241 3.69 8.241 8.241v31.043h23.939v-31.043c0-4.551-3.689-8.241-8.241-8.241z" fill="#e8e3f0"/><path d="m256.024 483.018h-85.334v-99.551c0-4.418 3.582-8 8-8h69.333c4.418 0 8 3.582 8 8v99.551z" fill="#8dd4ff"/><path d="m247.782 375.467h-23.718c4.552 0 8.241 3.69 8.241 8.241v99.31h23.718v-99.31c.001-4.552-3.689-8.241-8.241-8.241z" fill="#45afff"/><path d="m221.083 483.018v-107.551h-15.452v107.551z" fill="#fbf3f3"/></g><g><path d="m456.108 199.328c-4.687 7.422-11.515 15.821-20.891 21.95-2.87 1.876-6.65-.299-6.403-3.719 1.397-19.357-.69-70.227-55.917-97.816-1.59-.794-3.522.2-3.732 1.934-1.169 9.677-7.94 38.15-46.558 77.775l.001.001s-1.09 1.112-1.634 1.662c-5.467 5.968-21.99 27.645-7.347 58.714 1.577 3.346-1.703 6.939-5.16 5.623-5.83-2.219-13.353-6.084-19.915-12.642-1.388-1.387-3.79-.812-4.326 1.056-.004.016-.009.031-.013.047-1.471 5.128-2.542 14.686-2.542 21.45 0 55.285 45.825 100.102 102.353 100.102s102.353-44.817 102.353-100.102c0-25.577-9.809-53.505-25.948-76.135-1.074-1.502-3.334-1.462-4.321.1z" fill="#ff7f3b"/><path d="m385.626 208.802c1.075-.142 2.144.317 2.753 1.19 7.131 10.235 13.715 21.197 24.941 32.743.122.128.246.255.369.382 0 0 .375.382.808.823.416.538 1.403 1.955 1.793 3.742.838 3.847-1.681 8.965-3.943 12.58-8.852 14.153-8.481 32.011.951 45.805 3.3 4.826 7.501 8.85 12.29 11.936 3.733 2.405 4.237 7.53 1.198 10.729-10.684 11.247-25.902 18.291-42.762 18.291-32.25 0-58.487-25.765-58.487-57.435 0-.33.003-.66.008-.992.069-4.28 4.017-7.433 8.373-6.825 2.071.289 4.155.433 6.235.433 9.613 0 19.148-3.072 27.003-9.038 12.997-9.872 19.204-25.999 16.067-41.746-.017-.085-2.118-9.275-.035-20.347.224-1.189 1.207-2.109 2.438-2.271z" fill="#ffe652"/><path d="m460.428 199.23c-1.073-1.505-3.333-1.465-4.32.098-2.783 4.407-6.328 9.157-10.707 13.573 10.939 19.675 17.328 41.832 17.328 62.464 0 51.373-39.572 93.699-90.529 99.433 3.88.437 7.824.669 11.824.669 56.528 0 102.353-44.817 102.353-100.102-.001-25.577-9.81-53.506-25.949-76.135z" fill="#f55b31"/><path d="m425.588 318.002c-4.789-3.086-8.99-7.109-12.29-11.936-9.432-13.794-9.803-31.652-.951-45.805 2.261-3.616 4.781-8.733 3.943-12.58-.389-1.787-1.376-3.204-1.793-3.742-.433-.441-.808-.823-.808-.823-.124-.126-.247-.254-.369-.382-11.226-11.546-17.809-22.508-24.941-32.743-.609-.873-1.677-1.332-2.753-1.19-1.231.162-2.214 1.082-2.438 2.271-2.084 11.072.018 20.262.035 20.347.333 1.673.539 3.349.664 5.022 1.779 2.078 3.679 4.176 5.738 6.294.122.128.246.255.369.382 0 0 .375.382.808.823.416.538 1.403 1.955 1.793 3.742.838 3.847-1.681 8.965-3.943 12.58-8.852 14.153-8.481 32.011.951 45.805 3.3 4.827 7.501 8.85 12.29 11.936 3.733 2.405 4.237 7.53 1.198 10.729-8.117 8.544-18.853 14.653-30.935 17.1 3.834.779 7.803 1.191 11.868 1.191 16.86 0 32.078-7.044 42.762-18.291 3.038-3.199 2.535-8.324-1.198-10.73z" fill="#f4c338"/></g></g><path d="m504 512h-496c-4.418 0-8-3.582-8-8v-18.133c0-4.418 3.582-8 8-8h496c4.418 0 8 3.582 8 8v18.133c0 4.418-3.582 8-8 8z" fill="#7a6d79"/><path d="m503.758 477.867h-23.694c4.552 0 8.242 3.69 8.242 8.241v17.65c0 4.552-3.69 8.241-8.242 8.241h23.694c4.552 0 8.241-3.689 8.241-8.241v-17.65c.001-4.552-3.689-8.241-8.241-8.241z" fill="#554e56"/></g></svg>