<svg id="Capa_1" enable-background="new 0 0 512 512" height="512" viewBox="0 0 512 512" width="512" xmlns="http://www.w3.org/2000/svg"><g><path d="m482.637 198.234-50.319 50.319c-6.398 6.398-15.076 9.993-24.125 9.993h-58.242l-164.56 164.561c-1.873 1.873-3.283 4.155-4.121 6.668l-3.484 10.453c-.837 2.512-2.248 4.795-4.121 6.668l-33.339 33.339-66.342-42.218-42.218-66.342 33.339-33.339c1.873-1.873 4.156-3.283 6.668-4.121l10.453-3.484c2.513-.837 4.795-2.248 6.668-4.121l164.561-164.561v-58.242c0-9.049 3.594-17.726 9.993-24.125l50.319-50.319 102.529 66.342z" fill="#ffe652"/><g><g><g><path d="m161.705 423.107c-1.873 1.873-3.283 4.156-4.121 6.668l-3.484 10.453c-.837 2.512-2.248 4.795-4.121 6.668l-24.128 24.128 14.475 9.211 33.339-33.339c1.873-1.873 3.284-4.155 4.121-6.668l3.484-10.453c.838-2.512 2.248-4.795 4.121-6.668l164.561-164.561h-23.686z" fill="#f4c338"/></g><g><path d="m408.632 248.553c-6.398 6.398-15.076 9.993-24.124 9.993h23.686c9.048 0 17.726-3.595 24.124-9.993l50.319-50.319-9.305-14.381z" fill="#f4c338"/></g></g></g><path d="m507.175 150.398-25.108-25.108-10.923-.501v-10.42-.001l-31.296-31.295-12.495-2.458 1.574-8.464-31.296-31.296-9.797-.616-1.125-10.306-25.107-25.107c-6.434-6.434-16.865-6.434-23.299 0l-24.537 24.537 168.872 168.872 24.537-24.537c6.434-6.435 6.434-16.866 0-23.3z" fill="#7a6d79"/><path d="m110.17 498.328-36.187-60.311-60.311-36.187-11.241 18.735c-4.027 6.712-2.97 15.304 2.565 20.839l65.6 65.6c5.535 5.535 14.127 6.593 20.839 2.565z" fill="#ffe652"/><path d="m73.984 438.017-60.312-36.187-8.881 14.802 74.236 74.236c3.789 3.79 3.009 10.131-1.587 12.888l-6.278 3.767c5.542 5.066 13.782 5.94 20.273 2.046l18.735-11.241z" fill="#f4c338"/><path d="m326.202 283.044-97.247-97.247c-3.124-3.124-3.124-8.19 0-11.314l12.811-12.811c3.124-3.124 8.19-3.124 11.314 0l97.247 97.247c3.124 3.124 3.124 8.19 0 11.314l-12.811 12.811c-3.124 3.125-8.19 3.125-11.314 0z" fill="#7a6d79"/><g><path d="m464.544 236.113c-1.977 0-3.953-.754-5.461-2.262l-180.934-180.934c-3.016-3.016-3.016-7.906 0-10.922 3.017-3.016 7.906-3.016 10.922 0l180.934 180.934c3.016 3.016 3.016 7.906 0 10.921-1.508 1.509-3.485 2.263-5.461 2.263z" fill="#918291"/></g><path d="m507.175 150.398-25.108-25.108-10.923-.501v-10.42-.001l-31.296-31.295-12.495-2.458 1.574-8.464-31.296-31.296-9.797-.616-1.125-10.306-25.107-25.107c-6.434-6.434-16.865-6.434-23.299 0l-.157.157 145.416 145.415c6.434 6.434 6.434 16.866 0 23.299l-12.731 12.731 11.806 11.806 24.537-24.537c6.435-6.434 6.435-16.865.001-23.299z" fill="#554e56"/><g fill="#918291"><path d="m386.71 29.933-36.187 36.187 10.922 10.922v-.001l36.187-36.186z"/><path d="m428.928 72.151h-.001l-36.187 36.186 10.922 10.922 36.187-36.186z"/><path d="m471.145 114.368v.001l-36.186 36.186 10.922 10.922 36.186-36.187z"/></g><path d="m350.159 258.752-96.911-96.911c-3.217-3.217-8.433-3.217-11.65 0l-6.001 6 90.91 90.91c3.217 3.217 3.217 8.433 0 11.65l-6.475 6.475 6.001 6c3.217 3.217 8.433 3.217 11.65 0l12.475-12.475c3.218-3.216 3.218-8.432.001-11.649z" fill="#554e56"/><path d="m140.7 480.609-109.309-109.309c-3.124-3.124-8.19-3.124-11.314 0l-12.81 12.811c-3.124 3.124-3.124 8.189 0 11.314l109.309 109.309c3.124 3.124 8.19 3.124 11.314 0l12.811-12.811c3.124-3.125 3.124-8.19-.001-11.314z" fill="#7a6d79"/><path d="m140.532 480.441-108.973-108.973c-3.217-3.217-8.433-3.217-11.65 0l-6.068 6.068 102.905 102.905c3.217 3.217 3.217 8.433 0 11.65l-6.407 6.407 6.068 6.068c3.217 3.217 8.433 3.217 11.65 0l12.475-12.475c3.217-3.217 3.217-8.433 0-11.65z" fill="#554e56"/><g><path d="m241.392 294.732-36.187 36.187c-6.662 6.662-17.463 6.662-24.124 0-6.662-6.662-6.662-17.463 0-24.125l36.187-36.187z" fill="#554e56"/><circle cx="229.33" cy="282.67" fill="#fbf3f3" r="17.059"/></g><path d="m61.351 342.089-10.922 10.921 108.56 108.561h.001l10.921-10.922z" fill="#f4c338"/><path d="m427.354 252.651-42.819-42.818c-4.68-4.681-10.903-7.259-17.524-7.259h-9.992c-2.494 0-4.839-.971-6.602-2.734l-38.257-38.257c-1.763-1.763-2.734-4.107-2.734-6.601v-9.993c0-6.62-2.578-12.843-7.258-17.523l-42.819-42.82c-3.241 4.775-5.229 10.31-5.75 16.093l37.648 37.648c1.763 1.763 2.734 4.107 2.734 6.601v9.993c0 6.62 2.578 12.843 7.258 17.523l38.257 38.257c4.681 4.68 10.904 7.258 17.523 7.258h9.992c2.494 0 4.839.971 6.602 2.735l37.648 37.648c5.783-.522 11.318-2.51 16.093-5.751z" fill="#f4c338"/></g></svg>