<svg id="Capa_1" enable-background="new 0 0 512 512" height="512" viewBox="0 0 512 512" width="512" xmlns="http://www.w3.org/2000/svg"><g><path d="m438.514 324.267v-34.133h31.353c4.418 0 8 3.582 8 8v18.133c0 4.418-3.582 8-8 8z" fill="#ffe652"/><path d="m469.625 290.133h-23.694c4.552 0 8.241 3.69 8.241 8.241v17.65c0 4.552-3.69 8.241-8.241 8.241h23.694c4.552 0 8.241-3.69 8.241-8.241v-17.65c.001-4.551-3.689-8.241-8.241-8.241z" fill="#f4c338"/><path d="m128.418 264.533h255.164v85.333h-255.164z" fill="#f03747"/><g><path d="m153.6 170.667c0-48.515 30.59-89.458 72.458-102.4v-6.479h59.883v6.479c41.868 12.942 72.458 53.885 72.458 102.4v11.907h-204.799z" fill="#b9385d"/></g><path d="m285.941 68.267v-6.479h-23.694v6.479c41.868 12.942 72.458 53.886 72.458 102.4v11.907h23.695v-11.907c0-48.515-30.59-89.458-72.459-102.4z" fill="#9e2950"/><path d="m341.333 264.533v-56.441h-170.666v198.216h170.666v-56.441l-7.214-42.667z" fill="#b9385d"/><path d="m317.639 208.092h23.694v198.216h-23.694z" fill="#9e2950"/><ellipse cx="256" cy="307.2" fill="#f03747" rx="51.2" ry="51.2" transform="matrix(.707 -.707 .707 .707 -142.243 270.996)"/><path d="m82.93 290.133v34.133h-40.797c-4.418 0-8-3.582-8-8v-18.133c0-4.418 3.582-8 8-8z" fill="#ffe652"/><path d="m409.6 350.159c0 4.552 3.69 8.241 8.241 8.241h17.65c4.552 0 8.241-3.69 8.241-8.241v-85.917c0-4.552-3.69-8.241-8.241-8.241h-17.65c-4.552 0-8.241 3.69-8.241 8.241h-5.811v85.625z" fill="#f03747"/><g><g><path d="m300.35 184.872c-4.267 0-7.726-3.459-7.726-7.726 0-56.713-14.572-97.912-28.968-109.299-3.347-2.647-3.914-7.506-1.267-10.853s7.507-3.913 10.853-1.267c20.835 16.48 34.834 65.275 34.834 121.419 0 4.267-3.459 7.726-7.726 7.726z" fill="#f03747"/></g></g><g><g><path d="m211.65 184.872c-4.267 0-7.726-3.459-7.726-7.726 0-56.144 13.999-104.939 34.834-121.419 3.346-2.647 8.206-2.08 10.853 1.267s2.08 8.206-1.267 10.853c-14.395 11.386-28.968 52.586-28.968 109.299 0 4.267-3.459 7.726-7.726 7.726z" fill="#f03747"/></g></g><path d="m273.067 44.095h-34.133v-36.095c0-4.418 3.582-8 8-8h18.133c4.418 0 8 3.582 8 8z" fill="#ffe652"/><path d="m264.825 0h-17.65c-1.078 0-2.105.213-3.049.59 3.041 1.213 5.192 4.179 5.192 7.652v35.853h23.748v-35.854c.001-4.551-3.689-8.241-8.241-8.241z" fill="#f4c338"/><path d="m299.2 68.267h-86.4c-4.418 0-8-3.582-8-8v-18.134c0-4.418 3.582-8 8-8h86.4c4.418 0 8 3.582 8 8v18.133c0 4.419-3.582 8.001-8 8.001z" fill="#f03747"/><path d="m298.959 34.133h-23.694c4.552 0 8.241 3.69 8.241 8.241v17.65c0 4.552-3.69 8.242-8.241 8.242h23.694c4.552 0 8.241-3.69 8.241-8.242v-17.65c0-4.551-3.69-8.241-8.241-8.241z" fill="#b9385d"/><path d="m389.667 186.8-5.689-8.533c-3.165-4.748-8.494-7.6-14.2-7.6h-11.378l-5.647.462-5.284-.462h-205.247c-5.706 0-11.035 2.852-14.2 7.6l-5.689 8.533c-3.822 5.733-3.822 13.201 0 18.934l5.689 8.533c3.165 4.748 8.494 7.6 14.2 7.6h227.556c5.706 0 11.035-2.852 14.2-7.6l5.689-8.533c3.822-5.733 3.822-13.201 0-18.934z" fill="#f03747"/><path d="m389.667 186.8-5.689-8.533c-3.165-4.748-8.494-7.6-14.2-7.6h-23.694c5.706 0 11.035 2.852 14.2 7.6l5.689 8.533c3.822 5.733 3.822 13.201 0 18.934l-5.689 8.534c-3.165 4.748-8.494 7.6-14.2 7.6h23.694c5.706 0 11.035-2.852 14.2-7.6l5.689-8.534c3.822-5.733 3.822-13.201 0-18.934z" fill="#b9385d"/><circle cx="256" cy="307.2" fill="#ffe652" r="17.067"/><path d="m256 290.133c-4.606 0-8.777 1.833-11.847 4.798 3.213 3.104 5.22 7.448 5.22 12.269 0 4.82-2.006 9.165-5.22 12.269 3.07 2.965 7.242 4.798 11.847 4.798 9.426 0 17.067-7.641 17.067-17.066 0-9.427-7.641-17.068-17.067-17.068z" fill="#f4c338"/><path d="m383.467 256h18.133c4.418 0 8 3.582 8 8v86.4c0 4.418-3.582 8-8 8h-18.133c-4.418 0-8-3.582-8-8v-86.4c0-4.418 3.581-8 8-8z" fill="#b9385d"/><path d="m102.4 350.159c0 4.552-3.69 8.241-8.242 8.241h-17.65c-4.551 0-8.241-3.69-8.241-8.241v-85.917c0-4.552 3.69-8.241 8.241-8.241h17.65c4.552 0 8.242 3.69 8.242 8.241h5.811v85.625z" fill="#f03747"/><path d="m128.533 256h-18.133c-4.418 0-8 3.582-8 8v86.4c0 4.418 3.582 8 8 8h18.133c4.418 0 8-3.582 8-8v-86.4c0-4.418-3.581-8-8-8z" fill="#b9385d"/><path d="m170.667 420.744h170.667v45.979h-170.667z" fill="#9e2950"/><g fill="#b9385d"><path d="m238.933 420.744h34.133v45.979h-34.133z"/><path d="m187.733 466.723h-34.133v-40.056l34.133-5.923z"/><path d="m358.4 466.723h-34.133v-45.979l34.133 5.923z"/></g><path d="m334.706 466.723h23.694v-40.056l-23.694-4.112z" fill="#9e2950"/><path d="m350.4 392.533h-9.066l-7.049.471-6.826-.471h-165.859c-4.418 0-8 3.582-8 8v26.133h204.8v-26.133c0-4.418-3.582-8-8-8z" fill="#f03747"/><path d="m350.159 392.533h-23.694c4.552 0 8.241 3.69 8.241 8.242v25.892h23.694v-25.892c0-4.552-3.69-8.242-8.241-8.242z" fill="#b9385d"/><path d="m384.533 512h-257.066c-4.418 0-8-3.582-8-8v-35.2c0-4.418 3.582-8 8-8h257.067c4.418 0 8 3.582 8 8v35.2c-.001 4.418-3.582 8-8.001 8z" fill="#7a6d79"/><path d="m384.292 460.8h-23.694c4.552 0 8.241 3.69 8.241 8.242v34.717c0 4.552-3.69 8.242-8.241 8.242h23.694c4.552 0 8.241-3.69 8.241-8.242v-34.717c0-4.552-3.689-8.242-8.241-8.242z" fill="#554e56"/></g></svg>