<svg id="Capa_1" enable-background="new 0 0 512 512" height="512" viewBox="0 0 512 512" width="512" xmlns="http://www.w3.org/2000/svg"><g><g fill="#7a6d79"><path d="m380.387 404.504c-21.359 35.033-53.95 60.085-91.11 69.039h-.001l-33.276 19.786 41.27 13.395h.001c54.875-13.222 101.427-54.252 125.651-110.361z"/><path d="m131.586 404.502-42.533-8.139c24.224 56.109 70.776 97.139 125.652 110.362l41.295-13.396-33.301-19.786c-37.162-8.954-69.754-34.007-91.113-69.041z"/></g><path d="m397.006 401.323c-22.797 49.276-63.057 86.217-110.811 101.806l11.076 3.595h.001c54.875-13.222 101.427-54.252 125.651-110.361z" fill="#554e56"/><path d="m255.987 512c12.895 0 25.793-1.543 38.598-4.629l2.684-.646.001-.001-7.994-33.181-2.686.647c-20.304 4.893-40.899 4.895-61.207 0l-2.684-.647-7.994 33.181 2.683.647c12.808 3.086 25.702 4.629 38.599 4.629z" fill="#9f5f4b"/><path d="m270.891 507.371c-8.883 2.141-17.81 3.521-26.75 4.177 3.947.289 7.897.452 11.847.452 12.895 0 25.793-1.543 38.598-4.629l2.684-.646.001-.001-1.68-6.974c-7.16 2.818-14.505 5.165-22.013 6.974z" fill="#724435"/><path d="m68.265 251.793v113.082c0 12.928 7.304 24.747 18.867 30.528l7.537 3.769 8.495-4.391 6.958 12.118 1.708.854c11.347 5.673 24.698-2.578 24.698-15.264v-46.993l238.919-.006v46.999c0 12.687 13.351 20.938 24.698 15.264l1.707-.854 5.992-9.806 9.46 2.079 7.538-3.769c11.563-5.781 18.867-17.6 18.867-30.528v-113.082z" fill="#9f5f4b"/><path d="m94.67 399.171 15.453 7.727v-155.105h-15.453z" fill="#4f2f25"/><path d="m420.015 251.793v125.053c0 12.034-6.334 23.101-16.536 29.237l21.363-10.681c11.563-5.782 18.867-17.6 18.867-30.528v-113.081z" fill="#724435"/><path d="m256 263.211-187.735-37.318v-9.682l9.43-53.464c4.992-28.301 17.745-54.66 36.838-76.14 25.167-28.313 59.822-46.443 97.432-50.971l3.783-.455 80.459-.002 3.802.458c37.61 4.528 72.265 22.658 97.432 50.971 19.093 21.479 31.845 47.838 36.837 76.14l9.43 53.464v9.682z" fill="#b9385d"/><path d="m434.279 162.747c-4.992-28.301-17.745-54.661-36.837-76.14-25.167-28.313-59.822-46.442-97.432-50.971l-3.802-.458-23.688.001 3.797.457c37.61 4.528 72.265 22.657 97.432 50.971 19.092 21.479 31.846 47.838 36.837 76.14l11.883 67.369 21.241-4.223v-9.683z" fill="#9e2950"/><path d="m296.207 35.178-3.639-21.023c-1.415-8.18-8.513-14.155-16.815-14.155h-39.539c-8.299 0-15.394 5.97-16.814 14.146l-6.819 39.277 75.885-.012z" fill="#f03747"/><path d="m292.568 14.156c-1.415-8.181-8.513-14.156-16.815-14.156h-23.694c8.302 0 15.4 5.975 16.816 14.156l6.794 39.254h23.694z" fill="#b9385d"/><path d="m321.973 203.016 14.603-9.515c2.528-3.204 5.237-6.276 8.141-9.18 8.477-8.478 11.885-20.782 8.978-32.413l-16.875-67.495c-2.548-10.193-9.649-18.644-19.25-22.911l-54.652-24.29c-4.413-1.961-9.449-1.961-13.862 0l-54.652 24.29c-9.601 4.267-16.702 12.719-19.25 22.911l-16.874 67.496c-2.908 11.631.5 23.935 8.978 32.413 2.97 2.97 5.737 6.116 8.313 9.4l12.254 9.296-1.706 7.074c3.735 7.199 6.64 14.838 8.625 22.777l1.041 4.163v14.762h120.403v-14.762l1.041-4.163c1.985-7.939 4.89-15.578 8.625-22.777z" fill="#ffe652"/><circle cx="255.987" cy="127.993" fill="#7a6d79" r="42.664"/><g><path d="m260.267 135.719h-8.533c-4.267 0-7.726-3.459-7.726-7.726s3.459-7.726 7.726-7.726h8.533c4.267 0 7.726 3.459 7.726 7.726s-3.459 7.726-7.726 7.726z" fill="#fbf3f3"/></g><path d="m321.973 203.016 14.603-9.515c2.528-3.204 5.237-6.277 8.141-9.181 8.477-8.477 11.885-20.781 8.978-32.412l-16.875-67.495c-2.548-10.193-9.649-18.645-19.25-22.912l-26.667-11.85c9.601 4.267 16.702 12.719 19.25 22.912l19.847 79.345c2.908 11.631-.5 23.935-8.978 32.412-13.392 13.393-22.893 30.173-27.486 48.547l-1.041 4.163v14.762h23.694v-14.762l1.041-4.163c1.985-7.939 4.89-15.578 8.625-22.777z" fill="#f4c338"/><path d="m255.987 85.329c-4.113 0-8.084.594-11.847 1.68 17.796 5.136 30.817 21.534 30.817 40.984s-13.02 35.849-30.817 40.984c3.763 1.086 7.734 1.68 11.847 1.68 23.563 0 42.664-19.101 42.664-42.664s-19.101-42.664-42.664-42.664z" fill="#554e56"/><path d="m336.576 193.502-6.813.809c-23.413 1.836-48.234 2.767-73.775 2.767-25.6 0-50.471-.935-73.844-2.772l-6.571-.585c4.021 5.125 7.556 10.602 10.548 16.37 22.301 1.613 45.766 2.44 69.867 2.44 24.098 0 47.563-.828 69.867-2.44 3.034-5.85 6.628-11.401 10.721-16.589z" fill="#ff7f3b"/><path d="m401.852 406.898 15.452-7.727v-147.378h-15.452z" fill="#4f2f25"/><path d="m409.578 251.793h-307.181v49.894c0 3.566 1.157 7.037 3.297 9.89l6.947 9.262c25.781 34.375 66.242 54.605 109.21 54.605h.006c5.331 0 10.309-2.664 13.266-7.1l7.599-11.399c2.957-4.435 7.935-7.1 13.266-7.1s10.309 2.664 13.266 7.1l7.599 11.399c2.957 4.435 7.935 7.1 13.266 7.1 31.361 0 61.378-10.787 85.335-29.974z" fill="#fbf3f3"/><path d="m385.876 251.793-.007 49.896c0 3.565-1.157 7.034-3.296 9.886l-6.941 9.255c-22.2 29.604-55.29 48.705-91.491 53.444 1.874.758 3.898 1.169 5.978 1.169 42.972 0 83.435-20.234 109.216-54.613l6.941-9.255c2.139-2.852 3.295-6.321 3.296-9.886l.007-49.896z" fill="#e8e3f0"/><g><g><path d="m255.987 273.05c-157.32 0-226.737-34.529-229.615-35.999-8.393-4.286-11.723-14.566-7.436-22.96s14.564-11.723 22.96-7.436c.582.291 66.22 32.264 214.091 32.264s213.509-31.973 214.155-32.296c8.393-4.289 18.642-.94 22.929 7.453s.925 18.69-7.468 22.976c-2.879 1.469-72.296 35.998-229.616 35.998z" fill="#f03747"/></g></g><path d="m493.071 214.075c-4.286-8.393-14.535-11.742-22.929-7.453-.202.101-6.738 3.286-20.131 7.62 7.548-1.922 15.671 1.551 19.365 8.785 4.287 8.393.925 18.69-7.468 22.976-.241.123-.958.482-2.142 1.027 16.52-5.329 24.877-9.49 25.836-9.98 8.394-4.285 11.756-14.581 7.469-22.975z" fill="#b9385d"/></g></svg>