<svg id="Capa_1" enable-background="new 0 0 512 512" height="512" viewBox="0 0 512 512" width="512" xmlns="http://www.w3.org/2000/svg"><g><path d="m136.533 307.2c-18.851 0-34.133-15.282-34.133-34.133v-238.934c0-18.851 15.282-34.133 34.133-34.133h238.933c18.852 0 34.134 15.282 34.134 34.133v238.933c0 18.851-15.282 34.133-34.133 34.133h-238.934z" fill="#fbf3f3"/><path d="m375.466 0h-23.694c18.851 0 34.133 15.282 34.133 34.133v238.934c0 18.851-15.282 34.133-34.133 34.133h23.694c18.851 0 34.133-15.282 34.133-34.133v-238.934c.001-18.851-15.281-34.133-34.133-34.133z" fill="#e8e3f0"/><path d="m290.133 268.11c-10.816 3.22-22.271 4.957-34.133 4.957s-23.317-1.737-34.133-4.957l-34.133-16.466c-30.947-21.589-51.2-57.448-51.2-98.043 0-65.98 53.487-119.467 119.467-119.467s119.467 53.487 119.467 119.467c0 40.595-20.253 76.455-51.2 98.043z" fill="#e8e3f0"/><circle cx="204.8" cy="153.6" fill="#7a6d79" r="25.6"/><circle cx="307.2" cy="153.6" fill="#7a6d79" r="25.6"/><g><g><path d="m264.533 212.526h-17.066c-4.267 0-7.726-3.459-7.726-7.726s3.459-7.726 7.726-7.726h17.066c4.268 0 7.726 3.459 7.726 7.726s-3.458 7.726-7.726 7.726z" fill="#fbf3f3"/></g></g><path d="m6.164 290.607 73.513 36.756c7.108 3.554 10.795 11.569 8.867 19.279l-12.494 49.975c-.722 2.889.124 5.945 2.23 8.051l48.867 48.867c3.3 3.301-.377 8.733-4.667 6.894l-85.191-36.511c-7.65-3.278-11.789-11.624-9.771-19.698l12.476-49.902c.619-2.477.089-5.101-1.443-7.143l-37.674-50.232c-2.684-3.579 1.286-8.336 5.287-6.336z" fill="#8dd4ff"/><path d="m505.836 290.607-73.513 36.756c-7.109 3.554-10.795 11.569-8.867 19.279l12.493 49.974c.722 2.889-.124 5.945-2.23 8.051l-48.868 48.867c-3.301 3.301.377 8.733 4.668 6.894l85.191-36.511c7.65-3.278 11.789-11.624 9.771-19.698l-12.475-49.902c-.619-2.477-.089-5.101 1.442-7.143l37.674-50.233c2.685-3.577-1.285-8.334-5.286-6.334z" fill="#8dd4ff"/><path d="m256 34.133c-3.998 0-7.95.201-11.847.584 60.418 5.948 107.62 56.901 107.62 118.883 0 61.981-47.202 112.934-107.62 118.882 3.897.384 7.849.584 11.847.584 65.98 0 119.467-53.487 119.467-119.466-.001-65.98-53.487-119.467-119.467-119.467z" fill="#d3cbe4"/><g><g><path d="m256 58.918c-4.267 0-7.726-3.459-7.726-7.726v-17.049c0-4.267 3.459-7.726 7.726-7.726 4.268 0 7.726 3.459 7.726 7.726v17.049c0 4.266-3.458 7.726-7.726 7.726z" fill="#fbf3f3"/></g></g><g><g><path d="m256 280.784c-4.267 0-7.726-3.459-7.726-7.726v-17.048c0-4.267 3.459-7.726 7.726-7.726 4.268 0 7.726 3.459 7.726 7.726v17.048c0 4.266-3.458 7.726-7.726 7.726z" fill="#fbf3f3"/></g></g><path d="m307.2 128c-4.276 0-8.304 1.054-11.847 2.908 8.172 4.275 13.753 12.83 13.753 22.692s-5.581 18.417-13.753 22.692c3.543 1.854 7.571 2.908 11.847 2.908 14.139 0 25.6-11.462 25.6-25.6s-11.461-25.6-25.6-25.6z" fill="#554e56"/><path d="m204.8 128c-4.276 0-8.304 1.054-11.847 2.908 8.173 4.275 13.753 12.83 13.753 22.692s-5.58 18.417-13.753 22.692c3.543 1.854 7.571 2.908 11.847 2.908 14.139 0 25.6-11.462 25.6-25.6s-11.462-25.6-25.6-25.6z" fill="#554e56"/><path d="m511.123 296.943c2.684-3.579-1.286-8.336-5.287-6.335l-21.849 10.925-34.232 45.643c-1.532 2.043-2.062 4.667-1.443 7.143l12.476 49.902c2.018 8.074-2.121 16.42-9.771 19.698l-63.959 27.411-2.206 2.206c-3.3 3.3.377 8.732 4.668 6.894l85.191-36.511c7.65-3.278 11.789-11.624 9.771-19.698l-12.476-49.902c-.619-2.477-.089-5.101 1.443-7.143z" fill="#45afff"/><path d="m127.148 453.536-48.868-48.868c-2.106-2.106-2.952-5.162-2.23-8.051l12.493-49.974c1.927-7.71-1.759-15.725-8.867-19.279l-73.512-36.757c-4.001-2-7.971 2.757-5.287 6.335l3.442 4.589 51.664 25.832c7.108 3.554 10.795 11.569 8.867 19.279l-12.493 49.974c-.722 2.889.124 5.945 2.23 8.051l46.662 46.662 21.232 9.1c4.29 1.839 7.967-3.593 4.667-6.893z" fill="#45afff"/><path d="m306.133 221.867h2.133c8.837 0 16 7.163 16 16v114.829h-34.133v-114.829c0-8.837 7.164-16 16-16z" fill="#ffe652"/><path d="m307.784 221.867h-1.168c-4.361 0-8.315 1.706-11.263 4.472 3.206 3.007 5.22 7.269 5.22 12.011v114.346h23.694v-114.346c0-9.103-7.38-16.483-16.483-16.483z" fill="#f4c338"/><path d="m324.267 265.341h-34.133-.001v15.452h.001 34.133z" fill="#f4c338"/><path d="m203.733 221.867h2.133c8.837 0 16 7.163 16 16v114.829h-34.133v-114.829c0-8.837 7.164-16 16-16z" fill="#ffe652"/><path d="m205.384 221.867h-1.168c-4.361 0-8.315 1.706-11.263 4.472 3.206 3.007 5.219 7.269 5.219 12.011v114.346h23.694v-114.346c.001-9.103-7.379-16.483-16.482-16.483z" fill="#f4c338"/><path d="m221.867 265.341h-34.133-.001v15.452h.001 34.133z" fill="#f4c338"/><path d="m273.066 470.079v33.387c0 4.713-3.82 8.533-8.533 8.533h-17.067c-4.713 0-8.533-3.82-8.533-8.533v-33.387z" fill="#918291"/><path d="m249.373 470.079v33.388c0 3.538-2.153 6.572-5.22 7.865 1.019.43 2.138.668 3.314.668h17.067c4.713 0 8.533-3.82 8.533-8.533v-33.388z" fill="#7a6d79"/><path d="m349.867 375.692-4.894 39.022c-2.334 18.609-11.833 35.574-26.478 47.29l-.095.076c-12.774 10.219-28.645 15.787-45.004 15.787h-34.792c-16.359 0-32.23-5.568-45.004-15.787-14.702-11.761-24.215-28.81-26.503-47.498l-4.763-38.89v-13.81h187.533z" fill="#7a6d79"/><g><g><path d="m273.066 417.327h-34.133c-4.267 0-7.726-3.459-7.726-7.726s3.459-7.726 7.726-7.726h34.133c4.268 0 7.726 3.459 7.726 7.726s-3.458 7.726-7.726 7.726z" fill="#554e56"/></g></g><g><g><path d="m273.066 451.46h-34.133c-4.267 0-7.726-3.459-7.726-7.726s3.459-7.726 7.726-7.726h34.133c4.268 0 7.726 3.459 7.726 7.726s-3.458 7.726-7.726 7.726z" fill="#554e56"/></g></g><path d="m326.172 361.882v13.81l-4.894 39.022c-2.334 18.609-11.833 35.574-26.478 47.29l-.095.076c-12.774 10.219-28.645 15.786-45.004 15.786h23.694c16.359 0 32.23-5.567 45.004-15.786l.095-.076c14.645-11.716 24.144-28.681 26.478-47.29l4.894-39.022v-13.81z" fill="#554e56"/><path d="m358.933 375.467h-206.067c-4.418 0-8-3.582-8-8v-18.133c0-4.418 3.582-8 8-8h206.067c4.418 0 8 3.582 8 8v18.133c0 4.418-3.581 8-8 8z" fill="#918291"/><path d="m358.692 341.333h-23.694c4.552 0 8.241 3.69 8.241 8.241v17.65c0 4.551-3.69 8.241-8.241 8.241h23.694c4.552 0 8.241-3.69 8.241-8.241v-17.65c0-4.551-3.69-8.241-8.241-8.241z" fill="#7a6d79"/></g></svg>