<svg id="Capa_1" enable-background="new 0 0 512 512" height="512" viewBox="0 0 512 512" width="512" xmlns="http://www.w3.org/2000/svg"><g><path d="m489.68 404.842-27.954-116.154-10.525-5.432 6.907-9.603-5.842-24.276h-392.533l-5.843 24.276 1.972 7.622-5.59 7.413-27.953 116.154c-3.188 13.246 1.806 27.119 12.706 35.293l30.19 22.642c12.986 9.739 29.017 14.533 45.218 13.52l57.373-3.586h176.389l57.373 3.586c16.201 1.012 32.232-3.781 45.218-13.52l30.19-22.642c10.898-8.174 15.892-22.047 12.704-35.293z" fill="#7a6d79"/><path d="m489.68 404.842-27.954-116.154-10.525-5.432 6.907-9.603-5.842-24.276h-23.753l37.414 155.465c3.188 13.246-1.807 27.119-12.706 35.293l-30.19 22.642c-9.175 6.881-19.874 11.28-31.075 12.92l9.609.601c16.201 1.012 32.232-3.781 45.218-13.52l30.19-22.642c10.901-8.175 15.895-22.048 12.707-35.294z" fill="#554e56"/><path d="m458.109 273.654c-.19.046-.38.091-.568.152-10.216 3.3-21.499 6.371-33.55 9.132h-335.982c-12.051-2.761-23.334-5.832-33.55-9.132-.189-.061-.379-.107-.568-.152l-3.618 15.035c10.74 3.448 22.56 6.647 35.154 9.51.561.128 1.136.192 1.712.192h337.721c.577 0 1.151-.064 1.712-.192 12.594-2.863 24.414-6.062 35.155-9.51z" fill="#918291"/><path d="m386.728 434.013-130.728 23.818-130.728-23.818-10.303-185.092h282.062z" fill="#fbf3f3"/><path d="m395.723 272.417c-1.883-4.631-4.104-9.082-6.647-13.313v-9.726h-37.232v16.035c13.967 14.85 19.967 36.316 15.546 57.025l-14.787 69.258c-3.679 17.234-14.348 31.903-29.187 40.132l-15.204 8.432c-5.678 3.149-12.013 4.118-18.034 3.064l-113.795.001 79.617 14.506 112.702-20.533c7.989-10.66 13.747-23.149 16.705-36.715l4.274-19.607z" fill="#e8e3f0"/><path d="m318.08 380.907c-7.239-3.62-14.138-7.883-20.613-12.739l-10.748-8.061c-8.863-6.647-19.642-10.24-30.72-10.24-11.078 0-21.857 3.593-30.72 10.24l-10.748 8.061c-6.475 4.856-13.374 9.12-20.613 12.739-13.737 6.868-21.195 22.065-18.224 37.132l4.381 22.22v3.738l75.925 13.834 75.923-13.832v-3.738l4.381-22.22c2.971-15.069-4.487-30.266-18.224-37.134z" fill="#7a6d79"/><path d="m318.08 380.907c-7.239-3.62-14.138-7.883-20.613-12.739l-10.748-8.061c-8.863-6.647-19.642-10.24-30.72-10.24-4.015 0-7.988.478-11.847 1.396 6.79 1.615 13.222 4.605 18.873 8.844l10.748 8.061c6.475 4.856 13.374 9.12 20.613 12.739 13.737 6.868 21.195 22.065 18.224 37.132l-4.381 22.22v8.055l23.694-4.317v-3.738l4.381-22.22c2.971-15.067-4.487-30.264-18.224-37.132z" fill="#554e56"/><path d="m375.562 249.377v16.035c13.967 14.85 19.968 36.316 15.546 57.025l-14.787 69.259c-3.68 17.234-14.348 31.903-29.187 40.132l-15.205 8.432c-5.678 3.149-12.012 4.118-18.034 3.064l-115.792.001c-6.02 1.053-12.352.083-18.028-3.065l-15.204-8.432c-14.84-8.23-25.508-22.898-29.188-40.132l-14.787-69.259c-4.421-20.708 1.579-42.174 15.545-57.024v-16.036h-37.23v9.727c-3.506 5.832-6.408 12.078-8.641 18.643-5.768 16.958-6.795 35.198-2.968 52.749l15.279 70.086c5.819 26.694 22.463 49.231 45.663 61.831l15.711 8.533c8.107 4.403 17.181 6.787 26.291 6.915h130.907c9.112-.127 18.188-2.511 26.297-6.915l15.711-8.533c23.2-12.6 39.844-35.137 45.663-61.831l15.279-70.086c3.826-17.551 2.8-35.792-2.968-52.749-2.233-6.565-5.135-12.812-8.641-18.643v-9.726h-37.232z" fill="#ffe652"/><path d="m97.203 322.437 14.787 69.258c3.68 17.234 14.348 31.903 29.187 40.132l15.204 8.432c5.676 3.148 12.009 4.118 18.028 3.065h14.348c-2.975-.516-5.907-1.526-8.682-3.065l-15.204-8.432c-14.84-8.23-25.508-22.898-29.187-40.132l-14.787-69.258c-4.421-20.708 1.579-42.174 15.545-57.024v-16.036h-23.694c0 8.95-2.419 17.766-7.19 25.339-8.707 13.82-11.921 31.017-8.355 47.721z" fill="#f4c338"/><path d="m421.435 277.747c-2.233-6.565-5.135-12.812-8.641-18.643v-9.726h-23.694v9.726c3.506 5.832 6.408 12.078 8.641 18.643 5.768 16.957 6.794 35.198 2.968 52.749l-15.279 70.086c-5.819 26.694-22.463 49.23-45.663 61.831l-15.711 8.532c-8.109 4.404-17.184 6.788-26.296 6.915h23.694c9.112-.127 18.188-2.511 26.297-6.915l15.711-8.532c23.2-12.601 39.844-35.137 45.663-61.831l15.279-70.086c3.825-17.551 2.799-35.792-2.969-52.749z" fill="#f4c338"/><path d="m290.203 443.324c3.08.539 6.24.54 9.354 0z" fill="#ffe652"/><path d="m192.824 498.405h125.352c2.802-5.104 3.867-11.059 2.882-16.935l-3.908-23.318c-1.593-9.504-5.18-18.564-10.526-26.583l-15.891-23.836c-6.331-9.496-16.988-15.199-28.401-15.199h-13.665c-11.413 0-22.07 5.704-28.401 15.199l-15.891 23.836c-5.346 8.019-8.933 17.078-10.526 26.583l-3.908 23.318c-.985 5.877.081 11.831 2.883 16.935z" fill="#ff7f3b"/><path d="m268.038 407.733 15.891 23.836c5.346 8.019 8.933 17.078 10.526 26.583l3.908 23.318c.985 5.877-.081 11.831-2.882 16.935h23.694c2.802-5.104 3.867-11.059 2.882-16.935l-3.908-23.318c-1.593-9.504-5.18-18.564-10.526-26.583l-15.891-23.836c-6.331-9.496-16.988-15.199-28.401-15.199h-14.665c-1.522 0-3.028.109-4.515.307 9.663 1.288 18.401 6.662 23.887 14.892z" fill="#f55b31"/><path d="m256 263.211-187.735-37.318v-9.682l9.43-53.464c4.992-28.301 17.745-54.66 36.838-76.14 25.167-28.313 59.822-46.443 97.432-50.971l3.783-.455 80.459-.002 3.802.458c37.61 4.528 72.265 22.658 97.432 50.971 19.093 21.479 31.846 47.838 36.837 76.14l9.43 53.464v9.682z" fill="#b9385d"/><path d="m434.279 162.747c-4.992-28.301-17.745-54.66-36.838-76.14-25.167-28.313-59.822-46.442-97.432-50.971l-3.802-.458-23.689.001 3.796.457c37.61 4.528 72.265 22.658 97.432 50.971 19.093 21.479 31.846 47.838 36.837 76.14l11.883 67.369 21.241-4.223v-9.683z" fill="#9e2950"/><path d="m293.055 49.652 3.152-14.474-3.639-21.023c-1.415-8.18-8.513-14.155-16.815-14.155h-39.539c-8.299 0-15.394 5.97-16.814 14.146l-6.82 39.277 80.474-.013v-3.758z" fill="#f03747"/><path d="m292.568 14.156c-1.415-8.181-8.513-14.156-16.815-14.156h-23.694c8.302 0 15.4 5.975 16.816 14.156l6.794 39.254h23.694z" fill="#b9385d"/><path d="m322.809 203.016 13.767-9.514c2.528-3.204 5.237-6.277 8.141-9.18 8.477-8.477 11.885-20.781 8.978-32.412l-16.875-67.497c-2.548-10.193-9.649-18.645-19.25-22.912l-54.652-24.29c-4.413-1.961-9.449-1.961-13.862 0l-54.652 24.29c-9.601 4.267-16.702 12.719-19.25 22.912l-16.874 67.496c-2.908 11.631.5 23.935 8.978 32.412 2.97 2.97 5.737 6.116 8.314 9.4l11.96 10.16-1.412 6.21c3.735 7.199 6.64 14.838 8.625 22.777l1.041 4.163v14.762h120.403v-14.762l1.041-4.163c1.985-7.939 4.89-15.578 8.625-22.777z" fill="#ffe652"/><circle cx="255.987" cy="127.993" fill="#7a6d79" r="42.664"/><g><path d="m260.267 135.719h-8.533c-4.267 0-7.726-3.459-7.726-7.726s3.459-7.726 7.726-7.726h8.533c4.267 0 7.726 3.459 7.726 7.726s-3.459 7.726-7.726 7.726z" fill="#fbf3f3"/></g><path d="m322.809 203.016 13.766-9.514c2.528-3.205 5.237-6.277 8.141-9.181 8.477-8.477 11.885-20.781 8.978-32.413l-16.874-67.495c-2.548-10.193-9.649-18.645-19.25-22.912l-26.667-11.849c9.601 4.267 16.702 12.718 19.25 22.911l19.847 79.345c2.908 11.631-.5 23.935-8.978 32.413-13.392 13.392-22.893 30.173-27.486 48.547l-1.041 4.163v14.763h23.694v-14.763l1.041-4.163c1.985-7.939 4.89-15.578 8.625-22.777z" fill="#f4c338"/><path d="m255.987 85.329c-4.113 0-8.084.594-11.847 1.68 17.796 5.136 30.817 21.534 30.817 40.984s-13.02 35.849-30.817 40.984c3.763 1.086 7.734 1.68 11.847 1.68 23.563 0 42.664-19.101 42.664-42.664s-19.101-42.664-42.664-42.664z" fill="#554e56"/><path d="m336.575 193.502-6.813.809c-23.413 1.836-48.234 2.767-73.775 2.767-25.6 0-50.471-.935-73.845-2.772l-6.571-.585c4.021 5.125 7.556 10.602 10.549 16.37 22.3 1.613 45.765 2.44 69.867 2.44 24.098 0 47.563-.828 69.867-2.44 3.035-5.85 6.629-11.401 10.721-16.589z" fill="#ff7f3b"/><g><g><path d="m255.987 273.05c-157.32 0-226.737-34.529-229.615-35.999-8.393-4.286-11.723-14.566-7.436-22.96s14.564-11.723 22.96-7.436c.582.291 66.22 32.264 214.091 32.264s213.509-31.973 214.155-32.296c8.393-4.289 18.643-.94 22.929 7.453 4.287 8.393.925 18.69-7.468 22.976-2.879 1.469-72.296 35.998-229.616 35.998z" fill="#f03747"/></g></g><path d="m493.071 214.075c-4.286-8.393-14.536-11.742-22.929-7.453-.202.101-6.738 3.286-20.131 7.62 7.548-1.922 15.671 1.551 19.365 8.785 4.287 8.393.925 18.69-7.468 22.976-.241.123-.958.482-2.142 1.027 16.521-5.329 24.877-9.49 25.836-9.98 8.394-4.285 11.756-14.581 7.469-22.975z" fill="#b9385d"/><path d="m286.45 435.698c-6.231-5.738-14.454-9.031-23.118-9.031h-14.665c-11.412 0-22.07 5.704-28.401 15.2l-15.891 23.835c-5.346 8.019-8.933 17.079-10.526 26.583l-1.026 6.12c1.144 2.084 2.57 4.03 4.276 5.766 4.54 4.617 10.615 7.369 17.04 7.772l7.726-5.53 7.726 5.587h18.684v-.057l7.727-5.53 7.726 5.587h18.684v-.057l7.727-5.53 7.654 5.535c6.449-.388 12.55-3.144 17.106-7.777 1.706-1.735 3.132-3.681 4.276-5.766l-28.972-57.607z" fill="#ffe652"/><path d="m318.15 492.285c-1.593-9.504-5.18-18.564-10.526-26.583l-15.891-23.835c-1.525-2.287-3.306-4.349-5.283-6.169 3.953 6.951 6.68 14.543 8.006 22.454l3.908 23.318c1.387 8.277-1.274 16.717-7.159 22.701-4.925 5.009-11.656 7.829-18.68 7.829h9.888v-.057l7.727-5.53 7.654 5.535c6.449-.388 12.55-3.144 17.106-7.777 1.706-1.735 3.132-3.681 4.276-5.766z" fill="#f4c338"/><g fill="#554e56"><path d="m248.274 512h15.453v-51.2c0-4.267-3.459-7.726-7.726-7.726-4.268 0-7.726 3.459-7.726 7.726v51.2z"/><path d="m215.78 512h13.812v-34.133c0-4.267-3.459-7.726-7.726-7.726-4.268 0-7.726 3.459-7.726 7.726v34.076c.545.034 1.091.057 1.64.057z"/><path d="m296.219 512c.549 0 1.095-.023 1.64-.057v-34.076c0-4.267-3.459-7.726-7.726-7.726-4.268 0-7.726 3.459-7.726 7.726v34.133z"/></g></g></svg>