<svg id="Layer_1" enable-background="new 0 0 256 256" height="512" viewBox="0 0 256 256" width="512" xmlns="http://www.w3.org/2000/svg"><g><g><g><circle cx="128" cy="128" fill="#f1f2f2" r="87.256"/></g></g><g><g><path d="m184.494 61.506c12.946 15.223 20.762 34.944 20.762 56.494 0 48.19-39.066 87.256-87.256 87.256-21.55 0-41.271-7.816-56.494-20.763 16.005 18.82 39.853 30.763 66.494 30.763 48.19 0 87.256-39.066 87.256-87.256 0-26.641-11.943-50.489-30.762-66.494z" fill="#d1d3d4"/></g></g><g><g><g><g><path d="m130.729 182.829c-1.54-1.437-3.917-1.437-5.457 0-5.4 5.037-16.933 17.502-16.933 32.08 0 14.579 11.533 27.043 16.933 32.08 1.54 1.437 3.917 1.437 5.457 0 5.4-5.037 16.933-17.502 16.933-32.08s-11.533-27.043-16.933-32.08z" fill="#76a34f"/></g></g></g><g><g><path d="m130.729 182.829c-.55-.513-1.209-.835-1.897-.982 4.56 6.108 8.83 14.192 8.83 23.062 0 14.578-11.533 27.043-16.933 32.08-.99.923-2.324 1.245-3.561.982 2.935 3.931 5.989 7.046 8.104 9.018 1.54 1.437 3.917 1.437 5.457 0 5.4-5.037 16.933-17.502 16.933-32.08s-11.533-27.043-16.933-32.08z" fill="#648940"/></g></g><g><g><g><path d="m130.729 73.171c-1.54 1.437-3.917 1.437-5.457 0-5.4-5.037-16.933-17.502-16.933-32.08s11.533-27.043 16.933-32.08c1.54-1.437 3.917-1.437 5.457 0 5.4 5.037 16.933 17.502 16.933 32.08s-11.533 27.043-16.933 32.08z" fill="#76a34f"/></g></g></g><g><g><path d="m130.729 9.01c-.55-.513-1.209-.835-1.897-.982 4.56 6.108 8.83 14.192 8.83 23.062 0 14.578-11.533 27.043-16.933 32.08-.99.923-2.324 1.245-3.561.982 2.935 3.931 5.989 7.046 8.104 9.018 1.54 1.437 3.917 1.437 5.457 0 5.4-5.037 16.933-17.502 16.933-32.08s-11.533-27.042-16.933-32.08z" fill="#648940"/></g></g></g><g><g><g><g><path d="m174.119 98.222c-.474 2.052.714 4.111 2.729 4.726 7.063 2.158 23.624 5.914 36.249-1.376s17.653-23.509 19.316-30.705c.474-2.052-.714-4.111-2.729-4.726-7.063-2.158-23.624-5.914-36.249 1.376-12.626 7.29-17.654 23.51-19.316 30.705z" fill="#76a34f"/></g></g></g><g><g><path d="m229.684 66.142c-2.03-.62-4.848-1.372-8.129-1.956-2.283 8.044-7.513 21.068-18.458 27.387-8.996 5.194-19.988 4.779-28.12 3.331-.35 1.235-.636 2.361-.858 3.318-.474 2.052.714 4.111 2.729 4.726 7.063 2.158 23.624 5.914 36.249-1.375s17.653-23.509 19.316-30.705c.473-2.052-.715-4.11-2.729-4.726z" fill="#648940"/></g></g><g><g><g><path d="m79.152 153.051c2.014.616 3.203 2.674 2.729 4.726-1.662 7.195-6.69 23.416-19.316 30.705-12.625 7.289-29.186 3.534-36.249 1.376-2.014-.615-3.203-2.674-2.729-4.726 1.662-7.195 6.69-23.416 19.316-30.705s29.187-3.534 36.249-1.376z" fill="#76a34f"/></g></g></g><g><g><path d="m79.152 153.051c-2.03-.62-4.848-1.372-8.129-1.956-2.283 8.045-7.513 21.068-18.458 27.387-8.996 5.194-19.987 4.779-28.12 3.331-.35 1.235-.636 2.361-.858 3.318-.474 2.052.714 4.111 2.729 4.726 7.063 2.158 23.624 5.914 36.249-1.376 12.625-7.289 17.654-23.509 19.316-30.705.474-2.051-.714-4.109-2.729-4.725z" fill="#648940"/></g></g></g><g><g><g><g><path d="m79.152 102.949c2.014-.616 3.203-2.674 2.729-4.726-1.662-7.195-6.69-23.416-19.316-30.705s-29.186-3.534-36.249-1.376c-2.014.616-3.203 2.674-2.729 4.726 1.662 7.195 6.69 23.416 19.316 30.705s29.187 3.534 36.249 1.376z" fill="#76a34f"/></g></g></g><g><g><path d="m81.881 98.222c-1.62-7.013-6.459-22.577-18.393-30.111 4.893 7.271 7.333 15.523 8.393 20.111.474 2.052-.714 4.111-2.729 4.726-7.063 2.158-23.624 5.914-36.249-1.375-.319-.184-.613-.398-.923-.594 2.781 4.133 6.347 7.952 10.923 10.594 12.625 7.289 29.187 3.534 36.249 1.375 2.015-.615 3.203-2.673 2.729-4.726z" fill="#648940"/></g></g><g><g><g><path d="m174.119 157.778c-.474-2.052.714-4.111 2.729-4.726 7.063-2.158 23.624-5.914 36.249 1.376s17.653 23.509 19.316 30.705c.474 2.052-.714 4.111-2.729 4.726-7.063 2.158-23.624 5.914-36.249-1.376-12.626-7.29-17.654-23.51-19.316-30.705z" fill="#76a34f"/></g></g></g><g><g><path d="m232.412 185.132c-1.62-7.013-6.459-22.577-18.393-30.111 4.893 7.271 7.333 15.523 8.393 20.111.474 2.052-.714 4.111-2.729 4.726-7.063 2.158-23.624 5.914-36.249-1.376-.32-.184-.613-.398-.923-.594 2.781 4.133 6.347 7.952 10.923 10.594 12.625 7.289 29.186 3.534 36.249 1.376 2.015-.616 3.203-2.674 2.729-4.726z" fill="#648940"/></g></g></g><g><g><g><circle cx="128" cy="128" fill="#ffa91a" r="46.015"/></g></g></g><g><g><path d="m87.99 130c-1.11 0-2.011-.9-2.011-2 0-.01.011-.01.011-.01 0-1.1.899-1.99 2-1.99 1.09 0 1.989.89 1.989 1.98.011.01.011.01.011.02 0 1.1-.9 2-2 2zm.79-7.94c-.131 0-.271-.02-.4-.04-1.08-.22-1.78-1.28-1.57-2.36 1.9-9.36 7.03-17.9 14.44-24.03 3.68-3.06 7.819-5.44 12.29-7.08 4.63-1.7 9.49-2.56 14.46-2.56 1.1 0 2 .89 2 2 0 1.1-.9 1.99-2 1.99h-.01c-18.021 0-33.681 12.82-37.25 30.47 0 .01-.011.01-.011.02-.189.92-1.009 1.59-1.949 1.59z" fill="#ffc91d"/></g></g><g><g><path d="m155.147 90.853c5.572 7.611 8.868 16.992 8.868 27.147 0 25.413-20.602 46.015-46.015 46.015-10.155 0-19.536-3.297-27.147-8.868 8.372 11.436 21.888 18.868 37.147 18.868 25.413 0 46.015-20.602 46.015-46.015 0-15.258-7.432-28.775-18.868-37.147z" fill="#f79219"/></g></g><g><g><path d="m157.933 93.067c6.902 8.048 11.082 18.499 11.082 29.933 0 25.413-20.602 46.015-46.015 46.015-11.434 0-21.885-4.18-29.933-11.082 8.439 9.84 20.953 16.082 34.933 16.082 25.413 0 46.015-20.602 46.015-46.015 0-13.98-6.242-26.494-16.082-34.933z" fill="#ef7816"/></g></g><g><g><path d="m123.176 146.626c-1.279 0-2.56-.488-3.535-1.464l-14.942-14.942c-1.953-1.953-1.953-5.119 0-7.071 1.951-1.952 5.119-1.952 7.07 0l11.407 11.407 22.946-22.946c1.951-1.952 5.119-1.952 7.07 0 1.953 1.953 1.953 5.119 0 7.071l-26.481 26.481c-.976.976-2.256 1.464-3.535 1.464z" fill="#fff"/></g></g><g><g><g><g><path d="m169.105 39.694c-2.34 5.09-6.449 9.199-11.539 11.539-1.832.842-1.832 3.423 0 4.265 5.09 2.34 9.199 6.448 11.539 11.539.842 1.832 3.423 1.832 4.265 0 2.34-5.09 6.449-9.199 11.539-11.539 1.832-.842 1.832-3.423 0-4.265-5.09-2.34-9.199-6.449-11.539-11.539-.843-1.833-3.423-1.833-4.265 0z" fill="#ffa91a"/></g></g></g><g><g><g><path d="m184.908 51.233c-1.319-.606-2.568-1.336-3.741-2.166-.184.593-.598 1.126-1.259 1.43-5.09 2.34-9.199 6.448-11.539 11.539-.304.661-.837 1.075-1.43 1.259.83 1.173 1.559 2.422 2.166 3.741.842 1.832 3.423 1.832 4.265 0 2.34-5.09 6.449-9.199 11.539-11.539 1.831-.842 1.831-3.422-.001-4.264z" fill="#f79219"/></g></g></g></g><g><g><g><g><path d="m213.124 116.519c-2.34 5.09-6.449 9.199-11.539 11.539-1.832.842-1.832 3.423 0 4.265 5.09 2.34 9.199 6.448 11.539 11.539.842 1.832 3.423 1.832 4.265 0 2.34-5.09 6.449-9.199 11.539-11.539 1.832-.842 1.832-3.423 0-4.265-5.09-2.34-9.199-6.449-11.539-11.539-.842-1.832-3.423-1.832-4.265 0z" fill="#ffa91a"/></g></g></g><g><g><g><path d="m228.928 128.058c-1.319-.606-2.568-1.336-3.741-2.166-.184.593-.598 1.126-1.259 1.43-5.09 2.34-9.199 6.448-11.539 11.539-.304.661-.837 1.075-1.43 1.259.83 1.173 1.559 2.422 2.166 3.741.842 1.832 3.423 1.832 4.265 0 2.34-5.09 6.449-9.199 11.539-11.539 1.831-.841 1.831-3.421-.001-4.264z" fill="#f79219"/></g></g></g></g><g><g><g><g><path d="m38.611 116.519c-2.34 5.09-6.449 9.199-11.539 11.539-1.832.842-1.832 3.423 0 4.265 5.09 2.34 9.199 6.448 11.539 11.539.842 1.832 3.423 1.832 4.265 0 2.34-5.09 6.449-9.199 11.539-11.539 1.832-.842 1.832-3.423 0-4.265-5.09-2.34-9.199-6.449-11.539-11.539-.842-1.832-3.423-1.832-4.265 0z" fill="#ffa91a"/></g></g></g><g><g><g><path d="m54.415 128.058c-1.319-.606-2.568-1.336-3.741-2.166-.184.593-.598 1.126-1.259 1.43-5.09 2.34-9.199 6.448-11.539 11.539-.304.661-.837 1.075-1.43 1.259.83 1.173 1.559 2.422 2.166 3.741.842 1.832 3.423 1.832 4.265 0 2.34-5.09 6.449-9.199 11.539-11.539 1.831-.841 1.831-3.421-.001-4.264z" fill="#f79219"/></g></g></g></g><g><g><g><g><path d="m82.631 188.964c-2.34 5.09-6.449 9.199-11.539 11.539-1.832.842-1.832 3.423 0 4.265 5.09 2.34 9.199 6.448 11.539 11.539.842 1.832 3.423 1.832 4.265 0 2.34-5.09 6.449-9.199 11.539-11.539 1.832-.842 1.832-3.423 0-4.265-5.09-2.34-9.199-6.449-11.539-11.539-.843-1.832-3.423-1.832-4.265 0z" fill="#ffa91a"/></g></g></g><g><g><g><path d="m98.434 200.503c-1.319-.606-2.568-1.336-3.741-2.166-.184.593-.598 1.126-1.259 1.43-5.09 2.34-9.199 6.448-11.539 11.539-.304.661-.837 1.075-1.43 1.259.83 1.173 1.559 2.422 2.166 3.741.842 1.832 3.423 1.832 4.265 0 2.34-5.09 6.449-9.199 11.539-11.539 1.832-.842 1.832-3.422-.001-4.264z" fill="#f79219"/></g></g></g></g><g><g><g><g><path d="m82.631 39.694c-2.34 5.09-6.449 9.199-11.539 11.539-1.832.842-1.832 3.423 0 4.265 5.09 2.34 9.199 6.448 11.539 11.539.842 1.832 3.423 1.832 4.265 0 2.34-5.09 6.449-9.199 11.539-11.539 1.832-.842 1.832-3.423 0-4.265-5.09-2.34-9.199-6.449-11.539-11.539-.843-1.833-3.423-1.833-4.265 0z" fill="#ffa91a"/></g></g></g><g><g><g><path d="m98.434 51.233c-1.319-.606-2.568-1.336-3.741-2.166-.184.593-.598 1.126-1.259 1.43-5.09 2.34-9.199 6.448-11.539 11.539-.304.661-.837 1.075-1.43 1.259.83 1.173 1.559 2.422 2.166 3.741.842 1.832 3.423 1.832 4.265 0 2.34-5.09 6.449-9.199 11.539-11.539 1.832-.842 1.832-3.422-.001-4.264z" fill="#f79219"/></g></g></g></g><g><g><g><g><path d="m169.105 188.964c-2.34 5.09-6.449 9.199-11.539 11.539-1.832.842-1.832 3.423 0 4.265 5.09 2.34 9.199 6.448 11.539 11.539.842 1.832 3.423 1.832 4.265 0 2.34-5.09 6.449-9.199 11.539-11.539 1.832-.842 1.832-3.423 0-4.265-5.09-2.34-9.199-6.449-11.539-11.539-.843-1.832-3.423-1.832-4.265 0z" fill="#ffa91a"/></g></g></g><g><g><g><path d="m184.908 200.503c-1.319-.606-2.568-1.336-3.741-2.166-.184.593-.598 1.126-1.259 1.43-5.09 2.34-9.199 6.448-11.539 11.539-.304.661-.837 1.075-1.43 1.259.83 1.173 1.559 2.422 2.166 3.741.842 1.832 3.423 1.832 4.265 0 2.34-5.09 6.449-9.199 11.539-11.539 1.831-.842 1.831-3.422-.001-4.264z" fill="#f79219"/></g></g></g></g></g></svg>