<svg id="Layer_1" enable-background="new 0 0 256 256" height="512" viewBox="0 0 256 256" width="512" xmlns="http://www.w3.org/2000/svg"><g><g><g><g><path d="m128 45.423c-45.606 0-82.577 36.971-82.577 82.577s36.971 82.577 82.577 82.577 82.577-36.971 82.577-82.577-36.971-82.577-82.577-82.577z" fill="#76a34f"/></g></g><g><g><path d="m181.166 64.834c12.105 14.366 19.411 32.909 19.411 53.166 0 45.606-36.971 82.577-82.577 82.577-20.257 0-38.799-7.306-53.166-19.411 15.148 17.978 37.817 29.411 63.166 29.411 45.606 0 82.577-36.971 82.577-82.577 0-25.349-11.433-48.019-29.411-63.166z" fill="#648940"/></g></g><g><g><path d="m183.831 67.17c13.499 14.7 21.745 34.3 21.745 55.83 0 45.606-36.971 82.577-82.577 82.577-21.531 0-41.131-8.247-55.831-21.746 15.094 16.437 36.756 26.746 60.831 26.746 45.606 0 82.577-36.971 82.577-82.577.001-24.075-10.308-45.736-26.745-60.83z" fill="#5a7a39"/></g></g><g><g><g><path d="m208.431 109.222 20.076-17.711c3.023-2.667 3.748-7.094 1.731-10.586l-10.677-18.495c-2.015-3.491-6.212-5.077-10.033-3.793l-25.603 8.607c11.981 11.035 20.69 25.567 24.506 41.978z" fill="#5a7a39"/></g></g><g><g><path d="m27.493 91.511 20.076 17.711c3.816-16.41 12.526-30.942 24.507-41.977l-25.603-8.607c-3.821-1.284-8.018.302-10.033 3.793l-10.679 18.494c-2.016 3.492-1.291 7.919 1.732 10.586z" fill="#648940"/></g></g><g><g><path d="m128 45.424c8.413 0 16.531 1.259 24.179 3.598l-5.199-25.743c-.798-3.951-4.27-6.792-8.302-6.792h-21.356c-4.031 0-7.504 2.841-8.302 6.792l-5.199 25.743c7.648-2.34 15.766-3.598 24.179-3.598z" fill="#648940"/></g></g><g><g><path d="m227.855 163.358-19.318-17.042c-3.684 16.27-12.172 30.716-23.894 41.77l24.233 8.147c3.821 1.284 8.018-.302 10.033-3.794l10.678-18.495c2.015-3.491 1.291-7.918-1.732-10.586z" fill="#5a7a39"/></g></g><g><g><path d="m128 210.576c-8.413 0-16.531-1.259-24.179-3.598l5.199 25.743c.798 3.951 4.27 6.792 8.302 6.792h21.356c4.031 0 7.504-2.841 8.302-6.792l5.199-25.743c-7.648 2.34-15.766 3.598-24.179 3.598z" fill="#5a7a39"/></g></g><g><g><path d="m47.463 146.316-19.318 17.042c-3.023 2.668-3.748 7.095-1.731 10.586l10.678 18.495c2.015 3.492 6.212 5.078 10.033 3.794l24.233-8.147c-11.723-11.055-20.211-25.5-23.895-41.77z" fill="#648940"/></g></g></g><g><g><path d="m51.42 130c-1.1 0-2-.9-2-2 0-1.101.9-2 2-2s1.99.89 2 1.99v.01c0 1.1-.89 2-2 2zm.42-7.98c-.07 0-.14-.01-.21-.01-.53-.06-1.01-.32-1.35-.73-.33-.42-.49-.939-.43-1.47 2-19.2 11.02-36.95 25.4-50 14.49-13.15 33.22-20.38 52.75-20.39 1.1 0 2 .899 2 2.01 0 1.1-.9 1.99-2 1.99-38.33 0-70.22 28.72-74.17 66.8 0 .01-.01.01-.01.01-.1 1.02-.96 1.79-1.98 1.79z" fill="#91b56b"/></g></g></g><g><g><path d="m128 71.357c-31.283 0-56.643 25.36-56.643 56.643s25.36 56.643 56.643 56.643 56.643-25.36 56.643-56.643-25.36-56.643-56.643-56.643z" fill="#fcc4ae"/></g></g><g><g><path d="m162.741 83.259c7.459 9.593 11.902 21.648 11.902 34.741 0 31.283-25.36 56.643-56.643 56.643-13.093 0-25.148-4.442-34.741-11.902 10.364 13.327 26.551 21.902 44.741 21.902 31.283 0 56.643-25.36 56.643-56.643 0-18.19-8.575-34.377-21.902-44.741z" fill="#f2ad97"/></g></g><g><g><path d="m75.337 148.897c8.316 20.94 28.761 35.746 52.663 35.746s44.347-14.805 52.663-35.746z" fill="#ffa91a"/></g></g><g><g><path d="m165.481 148.897c-10.107 15.5-27.597 25.746-47.481 25.746-13.092 0-25.147-4.442-34.739-11.901 10.363 13.327 26.55 21.901 44.739 21.901 23.902 0 44.347-14.805 52.663-35.746z" fill="#f79219"/></g></g><g><g><g><g><path d="m128 178.586c-1.381 0-2.5-1.119-2.5-2.5v-56.662c0-1.381 1.119-2.5 2.5-2.5s2.5 1.119 2.5 2.5v56.662c0 1.381-1.119 2.5-2.5 2.5z" fill="#5a7a39"/></g></g><g><g><path d="m128 170.103c-.663 0-1.299-.264-1.768-.732l-11.556-11.557c-.977-.977-.977-2.56 0-3.535.976-.977 2.56-.977 3.535 0l9.789 9.789 9.789-9.789c.977-.977 2.559-.977 3.535 0s.977 2.559 0 3.535l-11.557 11.557c-.468.468-1.104.732-1.767.732z" fill="#5a7a39"/></g></g><g><g><path d="m128 148.177c-.64 0-1.28-.244-1.768-.732l-26.253-26.253c-.977-.977-.977-2.559 0-3.535.976-.977 2.56-.977 3.535 0l24.486 24.485 24.485-24.485c.977-.977 2.559-.977 3.535 0s.977 2.559 0 3.535l-26.253 26.253c-.488.488-1.127.732-1.767.732z" fill="#5a7a39"/></g></g></g><g><g><g><g><path d="m97.774 135.486c-1.05.039-1.886.874-1.925 1.925-.139 3.775.175 12.608 5.528 17.962 5.354 5.354 14.186 5.667 17.962 5.528 1.05-.039 1.886-.874 1.925-1.925.139-3.775-.175-12.608-5.528-17.962-5.355-5.353-14.187-5.667-17.962-5.528z" fill="#76a34f"/></g></g><g><g><path d="m115.735 141.014c-.856-.856-1.801-1.583-2.8-2.2 3.242 5.249 3.445 11.99 3.329 15.161-.039 1.05-.874 1.886-1.925 1.925-3.172.116-9.912-.086-15.161-3.329.617.999 1.344 1.944 2.2 2.8 5.354 5.354 14.186 5.667 17.962 5.528 1.05-.039 1.886-.874 1.925-1.925.137-3.773-.176-12.606-5.53-17.96z" fill="#648940"/></g></g><g><g><path d="m158.226 135.486c1.05.039 1.886.874 1.925 1.925.139 3.775-.175 12.608-5.528 17.962-5.354 5.354-14.186 5.667-17.962 5.528-1.05-.039-1.886-.874-1.925-1.925-.139-3.775.175-12.608 5.528-17.962 5.355-5.353 14.187-5.667 17.962-5.528z" fill="#76a34f"/></g></g><g><g><path d="m160.151 137.411c-.039-1.05-.874-1.886-1.925-1.925-.822-.03-1.883-.039-3.096.021-.216 4.359-1.319 10.677-5.507 14.865s-10.506 5.292-14.865 5.507c-.06 1.213-.051 2.275-.021 3.096.039 1.05.874 1.886 1.925 1.925 3.775.139 12.608-.174 17.962-5.528 5.353-5.353 5.666-14.186 5.527-17.961z" fill="#648940"/></g></g></g><g><g><path d="m126.669 127.516c.76.681 1.902.681 2.662 0 3.609-3.231 13.311-12.992 13.311-24.531s-9.702-21.3-13.311-24.531c-.76-.681-1.902-.681-2.662 0-3.609 3.231-13.311 12.992-13.311 24.531s9.702 21.299 13.311 24.531z" fill="#76a34f"/></g></g><g><g><path d="m129.331 78.453c-.113-.101-.234-.186-.361-.257 4.05 4.708 8.672 11.825 8.672 19.789 0 11.539-9.702 21.3-13.311 24.531-.648.58-1.572.665-2.301.257 1.818 2.113 3.521 3.742 4.639 4.743.76.681 1.902.681 2.662 0 3.609-3.231 13.311-12.992 13.311-24.531 0-11.54-9.702-21.3-13.311-24.532z" fill="#648940"/></g></g><g><g><g><path d="m170.067 101.684c1.05.039 1.886.874 1.925 1.925.139 3.775-.175 12.608-5.528 17.962-5.354 5.354-14.186 5.667-17.962 5.528-1.05-.039-1.886-.874-1.925-1.925-.139-3.775.175-12.608 5.528-17.962 5.354-5.353 14.187-5.667 17.962-5.528z" fill="#76a34f"/></g></g><g><g><path d="m171.992 103.609c-.039-1.05-.874-1.886-1.925-1.925-.822-.03-1.883-.039-3.096.021-.216 4.359-1.319 10.677-5.507 14.865s-10.506 5.292-14.865 5.507c-.06 1.213-.051 2.275-.021 3.096.039 1.05.874 1.886 1.925 1.925 3.775.139 12.608-.174 17.962-5.528s5.666-14.186 5.527-17.961z" fill="#648940"/></g></g><g><g><path d="m85.933 101.684c-1.05.039-1.886.874-1.925 1.925-.139 3.775.175 12.608 5.528 17.962 5.354 5.354 14.186 5.667 17.962 5.528 1.05-.039 1.886-.874 1.925-1.925.139-3.775-.175-12.608-5.528-17.962-5.354-5.353-14.187-5.667-17.962-5.528z" fill="#76a34f"/></g></g><g><g><path d="m103.894 107.212c-.856-.856-1.801-1.583-2.8-2.2 3.242 5.249 3.445 11.99 3.329 15.161-.039 1.05-.874 1.886-1.925 1.925-3.172.116-9.912-.086-15.161-3.328.617.999 1.344 1.944 2.2 2.8 5.354 5.354 14.186 5.667 17.962 5.528 1.05-.039 1.886-.874 1.925-1.925.137-3.774-.176-12.607-5.53-17.961z" fill="#648940"/></g></g></g></g></g></g></svg>