<svg id="Layer_1" enable-background="new 0 0 256 256" height="512" viewBox="0 0 256 256" width="512" xmlns="http://www.w3.org/2000/svg"><g><g><g><path d="m217.051 127.926h-178.102c-2.434 0-4.407-1.973-4.407-4.407 0-2.434 1.973-4.407 4.407-4.407h178.101c2.434 0 4.407 1.973 4.407 4.407.001 2.434-1.972 4.407-4.406 4.407z" fill="#808285"/></g></g><g><g><path d="m217.051 119.112h-.633c-.29 2.153-2.134 3.814-4.367 3.814h-177.469c-.026.194-.04.392-.04.593 0 2.434 1.973 4.407 4.407 4.407h178.102c2.434 0 4.407-1.973 4.407-4.407s-1.973-4.407-4.407-4.407z" fill="#58595b"/></g></g><g><g><g><g><g><path d="m187.226 67.604-29.443-6.586c-26.954-6.029-32.613-6.029-59.567 0l-29.443 6.586c-6.638 1.485-11.358 7.377-11.358 14.179 0 8.024 6.505 14.53 14.53 14.53h.061c5.416 0 10.224 3.465 11.936 8.603 1.713 5.138 6.521 8.603 11.936 8.603h64.243c5.416 0 10.224-3.465 11.936-8.603 1.713-5.138 6.521-8.603 11.936-8.603h.061c8.024 0 14.53-6.505 14.53-14.53.001-6.802-4.719-12.694-11.358-14.179z" fill="#76a34f"/></g></g><g><g><path d="m98.21 69.02c-.92 0-1.74-.66-1.95-1.56-.24-1.08.44-2.15 1.521-2.391 13.84-3.1 21.89-4.569 30.22-4.579 7.1 0 14.08 1.149 22.37 2.869 1.08.23 1.779 1.29 1.56 2.37-.229 1.061-1.32 1.771-2.37 1.55-9.649-2-15.7-2.789-21.56-2.789-7.92 0-16.101 1.51-29.351 4.479-.14.031-.291.051-.44.051zm59.57 0c-.141 0-.28-.02-.421-.05h-.01c-1.08-.24-1.76-1.31-1.52-2.39.239-1.061 1.319-1.75 2.39-1.511.521.11.97.431 1.25.881.29.449.38.989.26 1.51-.199.899-1.019 1.56-1.949 1.56z" fill="#91b56b"/></g></g><g><g><g><path d="m188.032 67.81c.361 1.269.553 2.603.553 3.974 0 8.024-6.505 14.53-14.53 14.53h-.061c-5.416 0-10.224 3.465-11.937 8.603-1.712 5.138-6.521 8.604-11.936 8.604h-64.242c-.898 0-1.779-.096-2.632-.278.269.535.502 1.094.696 1.675 1.712 5.138 6.521 8.604 11.936 8.604h64.243c5.416 0 10.224-3.466 11.936-8.604 1.713-5.138 6.521-8.603 11.937-8.603h.061c8.025 0 14.53-6.505 14.53-14.53-.002-6.525-4.343-12.211-10.554-13.975z" fill="#648940"/></g></g></g><g><g><g><path d="m191.518 69.315c1.318 2.199 2.066 4.761 2.066 7.468 0 8.024-6.505 14.53-14.53 14.53h-.061c-5.416 0-10.224 3.465-11.937 8.603-1.712 5.138-6.521 8.604-11.936 8.604h-64.241c-2.163 0-4.229-.553-6.04-1.545 2.177 3.983 6.384 6.545 11.04 6.545h64.243c5.416 0 10.224-3.466 11.936-8.604 1.713-5.138 6.521-8.603 11.937-8.603h.061c8.025 0 14.53-6.505 14.53-14.53-.002-5.217-2.778-9.899-7.068-12.468z" fill="#5a7a39"/></g></g></g><g><g><path d="m218.121 87.352h-180.242c-3.762 0-6.811-3.049-6.811-6.811 0-3.762 3.049-6.811 6.811-6.811h180.242c3.762 0 6.811 3.049 6.811 6.811 0 3.761-3.049 6.811-6.811 6.811z" fill="#e6e7e8"/></g></g><g><g><path d="m219.738 73.923c.126.519.194 1.06.194 1.617 0 3.762-3.049 6.811-6.811 6.811h-180.242c-.557 0-1.099-.067-1.617-.194.726 2.981 3.413 5.194 6.617 5.194h180.242c3.761 0 6.811-3.049 6.811-6.811 0-3.204-2.213-5.891-5.194-6.617z" fill="#d1d3d4"/></g></g></g></g></g><g><g><g><g><path d="m34.323 42.557h25.071v4h-25.071z" fill="#58595b"/></g></g><g><g><path d="m46.911 39.308c2.22 0 4.019 1.799 4.019 4.019v10.448h-8.038v-10.448c-.001-2.22 1.799-4.019 4.019-4.019z" fill="#808285"/></g></g><g><g><path d="m46.911 50.071c4.883 0 8.842 3.959 8.842 8.842v14.817h-17.685v-14.817c0-4.883 3.959-8.842 8.843-8.842z" fill="#e6e7e8"/></g></g><g><g><path d="m50.143 50.681c.393 1.001.61 2.091.61 3.232v14.816h-12.685v5h17.685v-14.816c0-3.743-2.325-6.942-5.61-8.232z" fill="#d1d3d4"/></g></g><g><g><path d="m18.691 50.123h13.76c3.074 0 5.566-2.492 5.566-5.566 0-3.074-2.492-5.566-5.566-5.566h-13.76c-3.074 0-5.566 2.492-5.566 5.566 0 3.074 2.492 5.566 5.566 5.566z" fill="#939598"/></g></g><g><g><path d="m32.99 39.017c.017.178.026.357.026.54 0 3.074-2.492 5.566-5.566 5.566h-13.76c-.182 0-.362-.009-.54-.026.272 2.821 2.648 5.026 5.54 5.026h13.76c3.074 0 5.566-2.492 5.566-5.566.001-2.892-2.205-5.269-5.026-5.54z" fill="#808285"/></g></g><g><g><path d="m61.267 50.123h13.76c3.074 0 5.566-2.492 5.566-5.566 0-3.074-2.492-5.566-5.566-5.566h-13.76c-3.074 0-5.566 2.492-5.566 5.566 0 3.074 2.492 5.566 5.566 5.566z" fill="#939598"/></g></g><g><g><path d="m75.567 39.017c.017.178.026.357.026.54 0 3.074-2.492 5.566-5.566 5.566h-13.76c-.182 0-.362-.009-.54-.026.271 2.821 2.648 5.026 5.54 5.026h13.76c3.074 0 5.566-2.492 5.566-5.566 0-2.892-2.205-5.269-5.026-5.54z" fill="#808285"/></g></g></g><g><g><g><path d="m196.605 42.557h25.071v4h-25.071z" fill="#58595b"/></g></g><g><g><path d="m209.193 39.308c2.22 0 4.019 1.799 4.019 4.019v10.448h-8.038v-10.448c0-2.22 1.799-4.019 4.019-4.019z" fill="#808285"/></g></g><g><g><path d="m209.193 50.071c4.883 0 8.842 3.959 8.842 8.842v14.817h-17.684v-14.817c0-4.883 3.958-8.842 8.842-8.842z" fill="#e6e7e8"/></g></g><g><g><path d="m212.425 50.68c.393 1.001.61 2.092.61 3.233v14.816h-12.684v5h17.684v-14.816c0-3.743-2.325-6.942-5.61-8.233z" fill="#d1d3d4"/></g></g><g><g><path d="m180.973 50.123h13.76c3.074 0 5.566-2.492 5.566-5.566 0-3.074-2.492-5.566-5.566-5.566h-13.76c-3.074 0-5.566 2.492-5.566 5.566 0 3.074 2.492 5.566 5.566 5.566z" fill="#939598"/></g></g><g><g><path d="m195.273 39.017c.017.178.026.357.026.54 0 3.074-2.492 5.566-5.566 5.566h-13.76c-.182 0-.362-.009-.54-.026.272 2.821 2.648 5.026 5.54 5.026h13.76c3.074 0 5.566-2.492 5.566-5.566 0-2.892-2.205-5.269-5.026-5.54z" fill="#808285"/></g></g><g><g><path d="m223.549 50.123h13.76c3.074 0 5.566-2.492 5.566-5.566 0-3.074-2.492-5.566-5.566-5.566h-13.76c-3.074 0-5.566 2.492-5.566 5.566 0 3.074 2.492 5.566 5.566 5.566z" fill="#939598"/></g></g><g><g><path d="m237.849 39.017c.017.178.026.357.026.54 0 3.074-2.492 5.566-5.566 5.566h-13.76c-.182 0-.362-.009-.54-.026.272 2.821 2.648 5.026 5.54 5.026h13.76c3.074 0 5.566-2.492 5.566-5.566 0-2.892-2.205-5.269-5.026-5.54z" fill="#808285"/></g></g></g></g><g><g><path d="m226.61 198.955h-197.221c-6.431 0-11.645 5.214-11.645 11.645 0 6.431 5.214 11.645 11.645 11.645h197.221c6.431 0 11.645-5.213 11.645-11.645 0-6.431-5.213-11.645-11.645-11.645z" fill="#8c3f0a"/></g></g><g><g><path d="m231.951 200.26c.828 1.601 1.304 3.414 1.304 5.341 0 6.431-5.214 11.645-11.645 11.645h-197.221c-1.927 0-3.74-.476-5.341-1.304 1.937 3.742 5.836 6.304 10.341 6.304h197.221c6.431 0 11.645-5.214 11.645-11.645 0-4.505-2.562-8.404-6.304-10.341z" fill="#7c3108"/></g></g><g><g><g><g><path d="m82.204 169.758c0 10.181-8.253 18.434-18.434 18.434s-18.434-8.253-18.434-18.434c0-7.094 8.95-23.85 14.377-33.36 1.796-3.146 6.317-3.146 8.113 0 5.428 9.51 14.378 26.267 14.378 33.36z" fill="#478cf7"/></g></g></g><g><g><path d="m67.827 136.399c-.79-1.385-2.108-2.16-3.49-2.326 5.427 9.716 12.867 24.217 12.867 30.685 0 10.181-8.253 18.434-18.434 18.434-3.812 0-7.354-1.158-10.294-3.14 3.312 4.911 8.926 8.14 15.294 8.14 10.181 0 18.434-8.253 18.434-18.434 0-7.093-8.95-23.85-14.377-33.359z" fill="#377de2"/></g></g><g><g><g><path d="m210.663 169.758c0 10.181-8.253 18.434-18.434 18.434s-18.434-8.253-18.434-18.434c0-7.094 8.95-23.85 14.377-33.36 1.796-3.146 6.317-3.146 8.113 0 5.428 9.51 14.378 26.267 14.378 33.36z" fill="#478cf7"/></g></g></g><g><g><path d="m196.286 136.399c-.79-1.385-2.108-2.16-3.49-2.326 5.427 9.717 12.867 24.217 12.867 30.685 0 10.181-8.253 18.434-18.434 18.434-3.812 0-7.354-1.158-10.294-3.14 3.312 4.911 8.926 8.14 15.294 8.14 10.181 0 18.434-8.253 18.434-18.434 0-7.093-8.95-23.85-14.377-33.359z" fill="#377de2"/></g></g></g><g><g><path d="m103.851 113.52 4.07 17.16c.92 3.879 4.385 6.618 8.371 6.618h23.61c3.986 0 7.451-2.739 8.371-6.618l4.07-17.16z" fill="#648940"/></g></g><g><g><path d="m146.157 113.52-2.884 12.16c-.92 3.879-4.385 6.618-8.371 6.618h-23.61c-1.066 0-2.094-.196-3.046-.557 1.25 3.308 4.434 5.557 8.046 5.557h23.61c3.986 0 7.451-2.739 8.371-6.618l4.07-17.16z" fill="#5a7a39"/></g></g><g><g><g><circle cx="128" cy="125.409" fill="#58595b" r="8.557"/></g></g><g><g><circle cx="128" cy="125.409" fill="#ffa91a" r="4.715"/></g></g></g></g></svg>