<svg id="Layer_1" enable-background="new 0 0 256 256" height="512" viewBox="0 0 256 256" width="512" xmlns="http://www.w3.org/2000/svg"><g><g><g><g><g><path d="m198.899 201.455c-1.381 0-2.5-1.119-2.5-2.5v-43.789c0-1.381 1.119-2.5 2.5-2.5s2.5 1.119 2.5 2.5v43.789c0 1.381-1.119 2.5-2.5 2.5z" fill="#5a7a39"/></g></g><g><g><path d="m198.899 194.899c-.663 0-1.299-.264-1.768-.732l-8.932-8.932c-.977-.977-.977-2.559 0-3.535s2.559-.977 3.535 0l7.164 7.164 7.163-7.164c.977-.977 2.559-.977 3.535 0 .977.976.977 2.559 0 3.535l-8.931 8.932c-.467.469-1.102.732-1.766.732z" fill="#5a7a39"/></g></g><g><g><path d="m198.899 177.955c-.663 0-1.299-.264-1.768-.732l-20.289-20.289c-.977-.977-.977-2.559 0-3.535s2.559-.977 3.535 0l18.521 18.521 18.521-18.521c.977-.977 2.559-.977 3.535 0 .977.976.977 2.559 0 3.535l-20.288 20.289c-.468.468-1.103.732-1.767.732z" fill="#5a7a39"/></g></g></g><g><g><g><g><path d="m175.54 167.579c-.812.03-1.458.676-1.487 1.487-.107 2.918.135 9.744 4.272 13.881s10.963 4.379 13.881 4.272c.812-.03 1.458-.676 1.487-1.487.107-2.918-.135-9.744-4.272-13.881s-10.964-4.379-13.881-4.272z" fill="#76a34f"/></g></g><g><g><path d="m189.421 171.852c-.864-.864-1.846-1.558-2.885-2.115 2.108 3.934 2.242 8.688 2.157 10.996-.03.812-.676 1.458-1.487 1.487-2.308.085-7.062-.049-10.996-2.157.557 1.039 1.25 2.021 2.115 2.885 4.137 4.137 10.963 4.379 13.881 4.272.812-.029 1.458-.675 1.487-1.487.107-2.918-.135-9.744-4.272-13.881z" fill="#648940"/></g></g><g><g><path d="m222.258 167.579c.812.03 1.458.676 1.487 1.487.107 2.918-.135 9.744-4.272 13.881s-10.963 4.379-13.881 4.272c-.812-.03-1.458-.676-1.487-1.487-.107-2.918.135-9.744 4.272-13.881s10.964-4.379 13.881-4.272z" fill="#76a34f"/></g></g><g><g><path d="m223.746 169.067c-.03-.812-.676-1.458-1.487-1.488-.899-.033-2.169-.032-3.617.104-.308 3.252-1.305 7.401-4.168 10.264s-7.012 3.86-10.264 4.168c-.137 1.448-.137 2.718-.104 3.617.03.812.676 1.458 1.488 1.487 2.917.107 9.743-.135 13.881-4.272s4.378-10.963 4.271-13.88z" fill="#648940"/></g></g></g><g><g><path d="m197.832 161.42c.588.526 1.47.526 2.057 0 2.789-2.497 10.287-10.041 10.287-18.958 0-8.918-7.498-16.461-10.287-18.958-.588-.526-1.47-.526-2.057 0-2.789 2.497-10.287 10.041-10.287 18.958s7.498 16.461 10.287 18.958z" fill="#76a34f"/></g></g><g><g><path d="m205.253 129.4c1.147 2.463 1.924 5.191 1.924 8.062 0 8.917-7.498 16.461-10.287 18.958-.588.526-1.47.526-2.057 0-1.224-1.097-3.357-3.166-5.364-5.896 2.416 5.189 6.472 9.203 8.364 10.896.588.526 1.47.526 2.057 0 2.789-2.497 10.287-10.041 10.287-18.958 0-5.003-2.36-9.572-4.924-13.062z" fill="#648940"/></g></g><g><g><g><path d="m231.409 141.457c.812.03 1.458.676 1.487 1.487.107 2.918-.135 9.744-4.272 13.881s-10.963 4.379-13.881 4.272c-.812-.03-1.458-.676-1.487-1.487-.107-2.918.135-9.744 4.272-13.881 4.138-4.137 10.964-4.379 13.881-4.272z" fill="#76a34f"/></g></g><g><g><path d="m232.897 142.944c-.03-.812-.676-1.458-1.488-1.487-.899-.033-2.169-.033-3.617.104-.308 3.252-1.305 7.401-4.168 10.264s-7.012 3.86-10.264 4.168c-.137 1.448-.137 2.718-.104 3.617.03.812.676 1.458 1.487 1.488 2.918.107 9.744-.135 13.881-4.272 4.138-4.138 4.38-10.964 4.273-13.882z" fill="#648940"/></g></g><g><g><path d="m166.389 141.457c-.812.03-1.458.676-1.487 1.487-.107 2.918.135 9.744 4.272 13.881s10.963 4.379 13.881 4.272c.812-.03 1.458-.676 1.487-1.487.107-2.918-.135-9.744-4.272-13.881-4.138-4.137-10.963-4.379-13.881-4.272z" fill="#76a34f"/></g></g><g><g><path d="m180.27 145.729c-.864-.864-1.846-1.558-2.885-2.115 2.108 3.934 2.242 8.688 2.157 10.996-.03.812-.676 1.458-1.488 1.488-2.308.084-7.062-.05-10.996-2.158.557 1.039 1.25 2.021 2.115 2.885 4.137 4.137 10.963 4.379 13.881 4.272.812-.03 1.458-.676 1.488-1.488.107-2.917-.135-9.742-4.272-13.88z" fill="#648940"/></g></g></g></g></g><g><g><g><g><path d="m93.298 136.073h-37.962c-4.116 0-7.453 3.337-7.453 7.453v55.43h52.868v-55.43c0-4.116-3.337-7.453-7.453-7.453z" fill="#808285"/></g></g></g><g><g><path d="m93.298 136.073h-2.547v52.882h-42.868v10h52.868v-55.43c0-4.115-3.337-7.452-7.453-7.452z" fill="#58595b"/></g></g><g><g><path d="m95.436 136.388c.203.678.315 1.394.315 2.138v55.43h-47.868v5h52.868v-55.43c0-3.373-2.242-6.219-5.315-7.138z" fill="#414042"/></g></g><g><g><path d="m59.063 48.412c0-8.095 6.562-14.657 14.657-14.657h84.419c8.095 0 14.657 6.562 14.657 14.657 0 8.095-6.562 14.657-14.657 14.657h-84.419c-8.095-.001-14.657-6.563-14.657-14.657z" fill="#939598"/></g></g><g><g><path d="m162.211 34.34c.374 1.294.585 2.657.585 4.072 0 8.095-6.562 14.657-14.657 14.657h-84.419c-1.414 0-2.778-.211-4.072-.585 1.766 6.112 7.391 10.585 14.072 10.585h84.419c8.095 0 14.657-6.562 14.657-14.657 0-6.681-4.474-12.306-10.585-14.072z" fill="#808285"/></g></g><g><g><path d="m147.81 38.048c5.724-5.724 15.004-5.724 20.728 0l40.553 40.552c5.724 5.724 5.724 15.004 0 20.728-5.724 5.724-15.004 5.724-20.728 0l-40.553-40.552c-5.724-5.724-5.724-15.004 0-20.728z" fill="#e6e7e8"/></g></g><g><g><path d="m209.091 78.6-10-10c5.724 5.724 5.724 15.004 0 20.728-5.724 5.724-15.004 5.724-20.728 0l10 10c5.724 5.724 15.004 5.724 20.728 0 5.723-5.724 5.723-15.004 0-20.728z" fill="#d1d3d4"/></g></g><g><g><path d="m73.72 33.755c8.095 0 14.657 6.562 14.657 14.657v87.661h-29.314v-87.661c0-8.095 6.562-14.657 14.657-14.657z" fill="#e6e7e8"/></g></g><g><g><path d="m77.791 34.34c.374 1.294.585 2.657.585 4.072v87.661h-19.313v10h29.314v-87.661c0-6.681-4.474-12.306-10.586-14.072z" fill="#d1d3d4"/></g></g><g><g><path d="m64.479 47.778c0 4.854 3.935 8.788 8.788 8.788s8.788-3.935 8.788-8.788-3.935-8.788-8.788-8.788-8.788 3.935-8.788 8.788z" fill="#bcbec0"/></g></g><g><g><path d="m68.659 47.778c0 2.545 2.063 4.609 4.609 4.609 2.545 0 4.609-2.063 4.609-4.609 0-2.545-2.063-4.609-4.609-4.609-2.546.001-4.609 2.064-4.609 4.609z" fill="#fff"/></g></g><g><g><g><path d="m149.408 47.778c0 4.854 3.935 8.788 8.788 8.788s8.788-3.935 8.788-8.788-3.935-8.788-8.788-8.788-8.788 3.935-8.788 8.788z" fill="#bcbec0"/></g></g><g><g><path d="m153.588 47.778c0 2.545 2.063 4.609 4.609 4.609 2.545 0 4.609-2.063 4.609-4.609 0-2.545-2.063-4.609-4.609-4.609-2.546.001-4.609 2.064-4.609 4.609z" fill="#fff"/></g></g></g><g><g><g><path d="m165.176 89.701v39.776c0 3.439 2.788 6.227 6.227 6.227 3.439 0 6.227-2.788 6.227-6.227v-19.625c0-2.327 1.886-4.213 4.213-4.213h34.113c2.327 0 4.213 1.886 4.213 4.213v19.625c0 3.439 2.788 6.227 6.227 6.227 3.439 0 6.227-2.788 6.227-6.227v-39.776c0-4.654-3.772-8.426-8.426-8.426h-50.593c-4.655 0-8.428 3.773-8.428 8.426z" fill="#808285"/></g></g><g><g><path d="m171.18 116.42c-1.11 0-2-.891-2-1.99 0-1.11.89-2 2-2 1.101 0 2 .89 2 2 0 1.099-.9 1.99-2 1.99zm0-8c-1.11 0-2-.891-2-1.99v-16.73c0-2.44 1.98-4.421 4.42-4.431l26.84.01c1.101 0 2 .891 2 1.99 0 1.11-.899 2-2 2h-26.84c-.229 0-.42.2-.42.431v16.729c0 1.1-.9 1.991-2 1.991z" fill="#939598"/></g></g><g><g><g><path d="m227.098 81.799c.333.906.524 1.88.524 2.902v39.776c0 3.439-2.788 6.226-6.227 6.226-.383 0-.756-.04-1.12-.106.528 2.903 3.065 5.106 6.12 5.106 3.439 0 6.227-2.788 6.227-6.226v-39.776c0-3.632-2.303-6.718-5.524-7.902z" fill="#58595b"/></g></g></g></g></g><g><g><g><g><path d="m226.61 198.955h-197.221c-6.431 0-11.645 5.214-11.645 11.645 0 6.431 5.214 11.645 11.645 11.645h197.221c6.431 0 11.645-5.213 11.645-11.645 0-6.431-5.213-11.645-11.645-11.645z" fill="#8c3f0a"/></g></g></g><g><g><path d="m231.951 200.26c.828 1.601 1.304 3.414 1.304 5.341 0 6.431-5.214 11.645-11.645 11.645h-197.221c-1.927 0-3.74-.476-5.341-1.304 1.937 3.742 5.836 6.304 10.341 6.304h197.221c6.431 0 11.645-5.214 11.645-11.645 0-4.505-2.562-8.404-6.304-10.341z" fill="#7c3108"/></g></g></g></g></svg>