<svg id="Layer_1" enable-background="new 0 0 256 256" height="512" viewBox="0 0 256 256" width="512" xmlns="http://www.w3.org/2000/svg"><g><g><g><g><g><g><circle cx="128" cy="128" fill="#ffa91a" r="106.137"/></g></g><g><g><path d="m197.885 48.115c16.346 18.67 26.253 43.12 26.253 69.885 0 58.618-47.519 106.137-106.137 106.137-26.764 0-51.215-9.907-69.885-26.253 19.455 22.22 48.031 36.253 79.885 36.253 58.618 0 106.137-47.519 106.137-106.137-.001-31.854-14.033-60.43-36.253-79.885z" fill="#f79219"/></g></g><g><g><path d="m200.509 50.491c17.757 18.974 28.629 44.472 28.629 72.509 0 58.618-47.519 106.137-106.137 106.137-28.037 0-53.535-10.871-72.509-28.628 19.368 20.695 46.928 33.628 77.509 33.628 58.618 0 106.137-47.519 106.137-106.137-.001-30.581-12.934-58.141-33.629-77.509z" fill="#ef7816"/></g></g><g><g><path d="m27.86 130c-1.1 0-2-.9-2-2s.9-2 2-2c1.11 0 2 .9 2 2s-.89 2-2 2zm.32-7.99c-.05 0-.1 0-.16 0-1.1-.09-1.92-1.06-1.84-2.16 2.03-25.5 13.53-49.18 32.38-66.69 18.96-17.6 43.62-27.29 69.44-27.3 1.1 0 2 .9 2 2 0 1.11-.9 2-2 2-50.85 0-93.82 39.67-97.83 90.31-.08 1.03-.95 1.84-1.99 1.84z" fill="#ffc91d"/></g></g></g></g></g><g><g><g><circle cx="128" cy="128" fill="#ef7816" r="82.222"/></g></g></g><g><g><g><circle cx="128" cy="157.325" fill="#ffc91d" r="52.911"/></g></g><g><g><path d="m141.109 106.05c12.074 9.698 19.802 24.583 19.802 41.274 0 29.222-23.689 52.911-52.911 52.911-4.525 0-8.917-.568-13.109-1.637 9.064 7.28 20.578 11.637 33.109 11.637 29.222 0 52.911-23.689 52.911-52.911 0-24.697-16.921-45.442-39.802-51.274z" fill="#ffa91a"/></g></g><g><g><g><path d="m127.999 70.061c-3.637 0-6.596 2.959-6.596 6.596v15.307c.308 8.726 12.882 8.732 13.192 0v-15.307c0-3.637-2.959-6.596-6.596-6.596z" fill="#ffc91d"/></g></g><g><g><path d="m190.242 95.843c-2.571-2.571-6.756-2.573-9.328 0l-10.824 10.824c-2.559 2.455-2.559 6.874 0 9.328 2.572 2.572 6.756 2.572 9.328 0l10.824-10.824c2.571-2.572 2.571-6.756 0-9.328z" fill="#ffc91d"/></g></g><g><g><path d="m85.908 106.667-10.825-10.824c-6.355-5.967-15.297 2.968-9.328 9.328 0 0 10.824 10.824 10.824 10.824 6.356 5.968 15.299-2.969 9.329-9.328z" fill="#ffc91d"/></g></g></g></g><g><g><g><path d="m127.999 210.222c-.191-45.246-36.929-81.867-82.22-81.867.191 45.246 36.929 81.866 82.22 81.867z" fill="#76a34f"/></g></g><g><g><path d="m98.702 147.65c11.971 14.218 19.212 32.55 19.297 52.572-20.158 0-38.622-7.255-52.923-19.295 15.082 17.913 37.673 29.295 62.923 29.295-.106-25.108-11.466-47.56-29.297-62.572z" fill="#648940"/></g></g><g><g><path d="m128.001 210.222c45.291-.001 82.029-36.621 82.22-81.867-45.291 0-82.029 36.621-82.22 81.867z" fill="#76a34f"/></g></g><g><g><path d="m199.485 129.05c-4.926 36.675-34.03 65.688-70.748 70.477-.47 3.5-.72 7.07-.736 10.695 45.291-.001 82.029-36.621 82.22-81.867-3.639 0-7.222.236-10.736.695z" fill="#648940"/></g></g></g></g></svg>