<svg id="Layer_1" enable-background="new 0 0 256 256" height="512" viewBox="0 0 256 256" width="512" xmlns="http://www.w3.org/2000/svg"><g><g><g><g><circle cx="128" cy="128" fill="#f1f2f2" r="103.976"/></g></g></g><g><g><path d="m30.02 130c-1.1 0-2-.9-2-2 0-1.101.9-2 2-2s1.99.89 2 1.99v.01c0 1.1-.89 2-2 2zm.33-7.99c-.06 0-.11 0-.16 0-1.1-.1-1.93-1.06-1.84-2.16 1.4-17.17 7.27-33.79 17-48.05 9.51-13.95 22.48-25.36 37.49-32.99 2.42-1.229 4.91-2.37 7.42-3.39 1-.41 2.2.1 2.61 1.09.41 1.02-.08 2.19-1.1 2.61-2.38.979-4.78 2.069-7.11 3.26-29.6 15.05-49.65 44.86-52.32 77.79v.01c-.09 1.03-.96 1.83-1.99 1.83z" fill="#fff"/></g></g><g><g><path d="m196.353 49.647c15.957 18.276 25.623 42.185 25.623 68.353 0 57.425-46.552 103.977-103.976 103.977-26.167 0-50.077-9.667-68.353-25.624 19.06 21.831 47.096 35.624 78.353 35.624 57.425 0 103.976-46.552 103.976-103.977 0-31.257-13.792-59.293-35.623-78.353z" fill="#e6e7e8"/></g></g><g><g><path d="m198.98 52.02c17.366 18.582 27.997 43.54 27.997 70.98 0 57.425-46.552 103.977-103.976 103.977-27.44 0-52.398-10.63-70.98-27.997 18.976 20.304 45.996 32.997 75.98 32.997 57.425 0 103.976-46.552 103.976-103.977-.001-29.984-12.693-57.004-32.997-75.98z" fill="#d1d3d4"/></g></g><g><g><path d="m184.721 98.688c1.13 5.031 1.608 10.308 1.34 15.739-1.465 29.701-25.606 53.758-55.311 55.127-33.357 1.537-60.885-25.052-60.885-58.071 0-4.426.495-8.736 1.432-12.878.513-2.267-2.665-3.422-3.721-1.352-4.994 9.794-7.676 20.963-7.329 32.788 1.058 36.005 30.663 65.176 66.679 65.733 37.926.586 68.855-29.982 68.855-67.774 0-11.049-2.644-21.481-7.333-30.697-1.072-2.108-4.245-.923-3.727 1.385z" fill="#76a34f"/></g></g><g><path d="m188.449 97.303c-.653-1.284-2.086-1.346-2.99-.677 3.427 8.106 5.323 17.019 5.323 26.374 0 37.792-30.929 68.36-68.855 67.774-16.929-.262-32.441-6.845-44.238-17.489 12.224 13.55 29.797 22.188 49.238 22.489 37.926.586 68.855-29.982 68.855-67.774 0-11.049-2.644-21.481-7.333-30.697z" fill="#648940"/></g><g><g><path d="m170.681 107.895c.326 2.487.44 5.041.323 7.643-1 22.184-19.132 40.18-41.322 41.025-24.541.934-44.729-18.684-44.729-43.016 0-1.921.126-3.813.37-5.667.303-2.307-2.94-3.196-3.818-1.041-2.634 6.46-3.961 13.593-3.652 21.069 1.073 25.942 22.235 47.033 48.18 48.025 28.618 1.094 52.162-21.781 52.162-50.155 0-6.682-1.306-13.059-3.676-18.89-.883-2.167-4.142-1.311-3.838 1.007z" fill="#648940"/></g></g><g><g><g><path d="m174.517 106.887c-.643-1.583-2.557-1.551-3.422-.516 1.365 4.563 2.098 9.399 2.098 14.406 0 28.374-23.544 51.25-52.162 50.155-11.75-.449-22.52-5.021-30.886-12.299 8.828 10.146 21.635 16.754 35.886 17.299 28.618 1.094 52.162-21.781 52.162-50.155 0-6.682-1.306-13.059-3.676-18.89z" fill="#5a7a39"/></g></g></g><g><g><path d="m155.858 121.416c-.002.115-.005.231-.009.347-.478 14.727-12.717 26.728-27.45 26.934-15.572.218-28.263-12.34-28.263-27.862 0-.05 0-.1 0-.149.011-2.079-2.93-2.527-3.478-.521-.919 3.361-1.311 6.94-1.084 10.642.992 16.121 14.006 29.243 30.119 30.355 18.986 1.31 34.795-13.703 34.795-32.409 0-2.688-.326-5.3-.942-7.798-.524-2.13-3.643-1.731-3.688.461z" fill="#76a34f"/></g></g><g><g><g><path d="m159.547 120.954c-.245-.996-1.059-1.438-1.86-1.403.524 2.316.802 4.726.802 7.201 0 18.706-15.809 33.719-34.795 32.409-7.514-.519-14.354-3.649-19.616-8.478 5.466 5.956 13.109 9.891 21.616 10.478 18.986 1.31 34.795-13.703 34.795-32.409 0-2.688-.327-5.3-.942-7.798z" fill="#648940"/></g></g></g><g><g><path d="m145.671 127.038c-.005.074-.011.148-.018.223-.709 8.314-7.34 15.135-15.634 16.052-10.69 1.182-19.738-7.156-19.738-17.608 0-.032 0-.063 0-.095.007-1.336-1.862-1.611-2.214-.323-.511 1.872-.765 3.849-.722 5.893.223 10.683 8.826 19.604 19.495 20.188 11.937.652 21.82-8.834 21.82-20.628 0-1.326-.125-2.623-.364-3.879-.292-1.54-2.511-1.386-2.625.177z" fill="#648940"/></g></g><g><g><g><path d="m148.296 126.86c-.184-.966-1.126-1.265-1.831-.967.128.931.195 1.881.195 2.846 0 11.795-9.883 21.281-21.82 20.628-4.706-.257-9.01-2.137-12.371-5.074 3.558 4.07 8.669 6.762 14.371 7.074 11.937.653 21.82-8.833 21.82-20.628 0-1.325-.125-2.622-.364-3.879z" fill="#5a7a39"/></g></g></g><g><g><path d="m126.294 131.03c.975.873 2.438.873 3.412 0 4.626-4.142 17.062-16.653 17.062-31.444s-12.436-27.302-17.062-31.444c-.975-.873-2.438-.873-3.412 0-4.626 4.142-17.062 16.653-17.062 31.444s12.436 27.302 17.062 31.444z" fill="#76a34f"/></g></g><g><g><path d="m129.706 68.142c-.409-.366-.904-.578-1.413-.637 4.371 5.838 8.476 13.583 8.476 22.081 0 14.791-12.436 27.302-17.062 31.444-.565.506-1.295.718-1.999.637 3.236 4.323 6.618 7.601 8.587 9.363.975.873 2.438.873 3.412 0 4.626-4.142 17.062-16.653 17.062-31.444-.001-14.791-12.437-27.302-17.063-31.444z" fill="#648940"/></g></g></g></svg>