<svg id="Layer_1" enable-background="new 0 0 256 256" height="512" viewBox="0 0 256 256" width="512" xmlns="http://www.w3.org/2000/svg"><g><g><g><g><path d="m128 45.423c-45.606 0-82.577 36.971-82.577 82.577s36.971 82.577 82.577 82.577 82.577-36.971 82.577-82.577-36.971-82.577-82.577-82.577z" fill="#478cf7"/></g></g><g><g><path d="m181.166 64.834c12.105 14.366 19.411 32.909 19.411 53.166 0 45.606-36.971 82.577-82.577 82.577-20.257 0-38.799-7.306-53.166-19.411 15.148 17.978 37.817 29.411 63.166 29.411 45.606 0 82.577-36.971 82.577-82.577 0-25.349-11.433-48.019-29.411-63.166z" fill="#377de2"/></g></g><g><g><path d="m183.831 67.17c13.499 14.7 21.745 34.3 21.745 55.83 0 45.606-36.971 82.577-82.577 82.577-21.531 0-41.131-8.247-55.831-21.746 15.094 16.437 36.756 26.746 60.831 26.746 45.606 0 82.577-36.971 82.577-82.577.001-24.075-10.308-45.736-26.745-60.83z" fill="#2266d3"/></g></g><g><g><g><path d="m208.431 109.222 20.076-17.711c3.023-2.667 3.748-7.094 1.731-10.586l-10.677-18.495c-2.015-3.491-6.212-5.077-10.033-3.793l-25.603 8.607c11.981 11.035 20.69 25.567 24.506 41.978z" fill="#2266d3"/></g></g><g><g><path d="m27.493 91.511 20.076 17.711c3.816-16.41 12.526-30.942 24.507-41.977l-25.603-8.607c-3.821-1.284-8.018.302-10.033 3.793l-10.679 18.494c-2.016 3.492-1.291 7.919 1.732 10.586z" fill="#377de2"/></g></g><g><g><path d="m128 45.424c8.413 0 16.531 1.259 24.179 3.598l-5.199-25.743c-.798-3.951-4.27-6.792-8.302-6.792h-21.356c-4.031 0-7.504 2.841-8.302 6.792l-5.199 25.743c7.648-2.34 15.766-3.598 24.179-3.598z" fill="#377de2"/></g></g><g><g><path d="m227.855 163.358-19.318-17.042c-3.684 16.27-12.172 30.716-23.894 41.77l24.233 8.147c3.821 1.284 8.018-.302 10.033-3.794l10.678-18.495c2.015-3.491 1.291-7.918-1.732-10.586z" fill="#2266d3"/></g></g><g><g><path d="m128 210.576c-8.413 0-16.531-1.259-24.179-3.598l5.199 25.743c.798 3.951 4.27 6.792 8.302 6.792h21.356c4.031 0 7.504-2.841 8.302-6.792l5.199-25.743c-7.648 2.34-15.766 3.598-24.179 3.598z" fill="#2266d3"/></g></g><g><g><path d="m47.463 146.316-19.318 17.042c-3.023 2.668-3.748 7.095-1.731 10.586l10.678 18.495c2.015 3.492 6.212 5.078 10.033 3.794l24.233-8.147c-11.723-11.055-20.211-25.5-23.895-41.77z" fill="#377de2"/></g></g></g><g><g><path d="m51.42 130c-1.101 0-2-.9-2-2 0-.01 0-.01.01-.021 0-1.09.9-1.979 1.99-1.979 1.11 0 2 .899 2 2 0 1.1-.89 2-2 2zm.42-7.98c-.07 0-.14-.01-.21-.01-.53-.06-1.01-.32-1.35-.73-.33-.42-.49-.939-.431-1.47 2-19.2 11.021-36.95 25.4-50 14.491-13.15 33.221-20.38 52.751-20.39 1.1 0 2 .899 2 2 0 1.109-.9 2-2 2-38.33 0-70.21 28.72-74.181 66.8-.099 1.03-.96 1.8-1.979 1.8z" fill="#5e9cf7"/></g></g></g><g><g><path d="m128 71.357c-31.283 0-56.643 25.36-56.643 56.643s25.36 56.643 56.643 56.643 56.643-25.36 56.643-56.643-25.36-56.643-56.643-56.643z" fill="#e6e7e8"/></g></g><g><g><path d="m162.741 83.259c7.459 9.593 11.902 21.648 11.902 34.741 0 31.283-25.36 56.643-56.643 56.643-13.093 0-25.148-4.442-34.741-11.902 10.364 13.327 26.551 21.902 44.741 21.902 31.283 0 56.643-25.36 56.643-56.643 0-18.19-8.575-34.377-21.902-44.741z" fill="#d1d3d4"/></g></g><g><g><path d="m75.337 148.897c8.316 20.94 28.761 35.746 52.663 35.746s44.347-14.805 52.663-35.746z" fill="#8c3f0a"/></g></g><g><g><path d="m165.481 148.897c-10.107 15.5-27.597 25.746-47.481 25.746-13.092 0-25.147-4.442-34.739-11.901 10.363 13.327 26.55 21.901 44.739 21.901 23.902 0 44.347-14.805 52.663-35.746z" fill="#7c3108"/></g></g><g><g><g><path d="m146.434 122.112c0 10.181-8.253 18.434-18.434 18.434s-18.434-8.253-18.434-18.434c0-7.094 8.95-23.85 14.377-33.36 1.796-3.146 6.317-3.146 8.113 0 5.428 9.509 14.378 26.266 14.378 33.36z" fill="#478cf7"/></g></g></g><g><g><path d="m132.056 88.752c-1.201-2.104-3.623-2.801-5.632-2.089 4.857 9.122 10.009 20.067 10.009 25.449 0 10.181-8.253 18.434-18.434 18.434-2.494 0-4.872-.496-7.041-1.393 2.766 6.688 9.354 11.393 17.041 11.393 10.181 0 18.434-8.253 18.434-18.434.001-7.094-8.949-23.851-14.377-33.36z" fill="#377de2"/></g></g><g><g><g><g><path d="m103.821 129.883c0 5.889-4.774 10.663-10.663 10.663s-10.663-4.774-10.663-10.663c0-4.103 5.177-13.796 8.316-19.296 1.039-1.82 3.654-1.82 4.693 0 3.14 5.5 8.317 15.193 8.317 19.296z" fill="#478cf7"/></g></g></g><g><g><path d="m95.505 110.586c-.633-1.109-1.852-1.542-2.943-1.299 2.936 5.433 6.259 12.308 6.259 15.596 0 5.889-4.774 10.663-10.663 10.663-1.653 0-3.218-.376-4.615-1.048 1.72 3.578 5.379 6.048 9.615 6.048 5.889 0 10.663-4.774 10.663-10.663 0-4.104-5.177-13.796-8.316-19.297z" fill="#377de2"/></g></g><g><g><g><path d="m173.504 129.883c0 5.889-4.774 10.663-10.663 10.663s-10.663-4.774-10.663-10.663c0-4.103 5.177-13.796 8.316-19.296 1.039-1.82 3.654-1.82 4.693 0 3.14 5.5 8.317 15.193 8.317 19.296z" fill="#478cf7"/></g></g></g><g><g><path d="m165.188 110.586c-.633-1.109-1.852-1.542-2.943-1.299 2.936 5.433 6.259 12.308 6.259 15.596 0 5.889-4.774 10.663-10.663 10.663-1.653 0-3.218-.376-4.615-1.048 1.72 3.578 5.379 6.048 9.615 6.048 5.889 0 10.663-4.774 10.663-10.663 0-4.104-5.177-13.796-8.316-19.297z" fill="#377de2"/></g></g></g></g></svg>