<svg id="Layer_1" enable-background="new 0 0 256 256" height="512" viewBox="0 0 256 256" width="512" xmlns="http://www.w3.org/2000/svg"><g><g><g><path d="m229.243 93.505-97.247-69.938c-2.387-1.717-5.605-1.717-7.992 0l-97.247 69.938c-1.788 1.286-2.848 3.354-2.848 5.557v25.58c0 3.78 3.064 6.844 6.844 6.844h194.494c3.78 0 6.844-3.064 6.844-6.844v-25.58c0-2.203-1.06-4.271-2.848-5.557z" fill="#8c3f0a"/></g></g><g><g><path d="m30.26 100.38c-.64 0-1.25-.32-1.62-.84-.32-.43-.44-.96-.35-1.49.08-.52.37-.99.8-1.3.87-.62 2.17-.4 2.79.46.65.89.44 2.15-.45 2.79-.34.25-.75.38-1.17.38zm6.5-4.68c-.65 0-1.25-.31-1.63-.83-.31-.43-.44-.96-.35-1.49.09-.52.37-.99.81-1.3l90.75-65.27c.87-.62 2.17-.4 2.79.46.64.9.44 2.15-.46 2.79l-90.75 65.27c-.34.24-.74.37-1.16.37z" fill="#995222"/></g></g><g><g><path d="m229.243 93.505-7.191-5.172c.026.241.04.484.04.728v25.58c0 3.78-3.064 6.844-6.844 6.844h-191.339v3.156c0 3.78 3.064 6.844 6.844 6.844h194.494c3.78 0 6.844-3.064 6.844-6.844v-25.58c0-2.202-1.06-4.27-2.848-5.556z" fill="#7c3108"/></g></g><g><g><path d="m229.243 93.505-2.596-1.867c.289.764.444 1.584.444 2.423v25.58c0 3.78-3.064 6.844-6.844 6.844h-194.494c-.567 0-1.118-.069-1.645-.199.737 2.985 3.432 5.199 6.645 5.199h194.494c3.78 0 6.844-3.064 6.844-6.844v-25.58c0-2.202-1.06-4.27-2.848-5.556z" fill="#6d2e03"/></g></g><g><g><path d="m207.566 240.568h-159.132c-3.78 0-6.844-3.064-6.844-6.844v-102.238h172.82v102.238c0 3.78-3.064 6.844-6.844 6.844z" fill="#8c3f0a"/></g></g><g><g><path d="m146.252 113.873h-36.503c-2.209 0-4-1.791-4-4v-36.503c0-2.209 1.791-4 4-4h36.503c2.209 0 4 1.791 4 4v36.503c0 2.209-1.791 4-4 4z" fill="#6d2e03"/></g></g><g><g><path d="m144.252 75.37v32.503h-32.503v-32.503zm2-6h-36.503c-2.209 0-4 1.791-4 4v36.503c0 2.209 1.791 4 4 4h36.503c2.209 0 4-1.791 4-4v-36.503c0-2.209-1.791-4-4-4z" fill="#f79219"/></g></g><g><g><path d="m185.838 137.586h-115.676c-2.209 0-4 1.791-4 4v98.982h123.675v-98.982c.001-2.209-1.79-4-3.999-4z" fill="#6d2e03"/></g></g><g><g><path d="m183.838 143.586v90.982h-111.676v-90.982zm2-6h-115.676c-2.209 0-4 1.791-4 4v98.982h123.675v-98.982c.001-2.209-1.79-4-3.999-4z" fill="#f79219"/></g></g><g><g><path d="m52.205 186.077h151.59v5.999h-151.59z" fill="#f79219" transform="matrix(.769 -.64 .64 .769 -91.351 125.681)"/></g></g><g><g><path d="m125 113.282h5.999v151.59h-5.999z" fill="#f79219" transform="matrix(.64 -.769 .769 .64 -99.205 166.453)"/></g></g><g><g><path d="m123 137.586h10v102.982h-10z" fill="#f79219"/></g></g></g></svg>