<svg id="Layer_1" enable-background="new 0 0 256 256" height="512" viewBox="0 0 256 256" width="512" xmlns="http://www.w3.org/2000/svg"><g><g><g><g><path d="m143.233 214.576h-30.466c-4.26-57.639-4.26-115.513 0-173.152h30.466c4.26 57.639 4.26 115.513 0 173.152z" fill="#8c3f0a"/></g></g><g><g><path d="m170.96 41.424h-27.727c4.26 57.639 4.26 115.513 0 173.152h27.727c12.015-57.092 12.015-116.06 0-173.152z" fill="#7c3108"/></g></g><g><g><path d="m112.767 41.424h-27.727c-12.015 57.092-12.015 116.06 0 173.152h27.727c-4.26-57.639-4.26-115.513 0-173.152z" fill="#995222"/></g></g><g><g><g><path d="m191.078 41.424h-20.118c12.015 57.092 12.015 116.06 0 173.152h20.118c17.64-56.369 17.64-116.783 0-173.152z" fill="#6d2e03"/></g></g><g><g><path d="m85.04 41.424h-20.118c-17.64 56.369-17.64 116.782 0 173.152h20.118c-12.015-57.092-12.015-116.06 0-173.152z" fill="#8c3f0a"/></g></g><g><g><path d="m64.34 191.12c-.94 0-1.76-.66-1.96-1.57-.11-.52-.02-1.05.27-1.5s.74-.77 1.26-.88c1.05-.23 2.15.47 2.38 1.52v.021c.11.51.02 1.04-.27 1.49-.29.449-.73.76-1.26.88-.14.028-.28.039-.42.039zm-1.61-7.83c-.96 0-1.79-.69-1.97-1.63-3.34-17.57-5.04-35.551-5.04-53.46 0-15.66 1.28-31.381 3.78-46.721.44-2.67.92-5.34 1.42-7.93.21-1.07 1.27-1.8 2.34-1.59 1.08.21 1.8 1.26 1.59 2.35-.51 2.63-.98 5.26-1.4 7.82-2.47 15.12-3.73 30.62-3.73 46.07 0 17.659 1.68 35.399 4.97 52.71.21 1.09-.5 2.13-1.59 2.34-.12.021-.25.041-.37.041z" fill="#995222"/></g></g></g></g><g><g><path d="m192.156 23.152h-128.312c-5.046 0-9.136 4.09-9.136 9.136 0 5.046 4.09 9.136 9.136 9.136h128.312c5.046 0 9.136-4.09 9.136-9.136 0-5.046-4.09-9.136-9.136-9.136z" fill="#8c3f0a"/></g></g><g><g><path d="m195.614 23.83c.437 1.067.678 2.234.678 3.458 0 5.046-4.09 9.136-9.136 9.136h-128.312c-1.224 0-2.391-.241-3.458-.678 1.363 3.331 4.636 5.678 8.458 5.678h128.312c5.046 0 9.136-4.09 9.136-9.136 0-3.822-2.347-7.095-5.678-8.458z" fill="#6d2e03"/></g></g><g><g><path d="m192.156 214.576h-128.312c-5.046 0-9.136 4.09-9.136 9.136 0 5.046 4.09 9.136 9.136 9.136h128.312c5.046 0 9.136-4.09 9.136-9.136 0-5.046-4.09-9.136-9.136-9.136z" fill="#8c3f0a"/></g></g><g><g><path d="m195.614 215.254c.437 1.067.678 2.234.678 3.458 0 5.046-4.09 9.136-9.136 9.136h-128.312c-1.224 0-2.391-.241-3.458-.678 1.363 3.331 4.636 5.678 8.458 5.678h128.312c5.046 0 9.136-4.09 9.136-9.136 0-3.822-2.347-7.095-5.678-8.458z" fill="#6d2e03"/></g></g><g><g><g><path d="m198.48 70.18h-140.96c1.06-5.27 2.28-10.51 3.65-15.72h133.66c1.37 5.21 2.59 10.45 3.65 15.72z" fill="#f79219"/></g></g><g><g><path d="m199.68 179.64c-.96 5.26-2.06 10.5-3.3 15.72h-136.76c-1.24-5.22-2.34-10.46-3.3-15.72z" fill="#f79219"/></g></g></g></g></svg>