<svg id="Layer_1" enable-background="new 0 0 256 256" height="512" viewBox="0 0 256 256" width="512" xmlns="http://www.w3.org/2000/svg"><g><g><g><path d="m142.085 152.387h-28.159l-14.08 24.386 14.08 24.387h28.159l14.08-24.387z" fill="#ffa91a"/></g></g><g><g><path d="m142.085 152.386h-4.226l8.306 14.387-14.08 24.387h-23.933l5.774 10h28.159l14.08-24.387z" fill="#f79219"/></g></g><g><g><path d="m99.837 79.227h-28.159l-14.08 24.386 14.08 24.387h28.159l14.08-24.387z" fill="#ffa91a"/></g></g><g><g><path d="m99.837 79.227h-4.226l8.306 14.386-14.08 24.387h-23.933l5.774 10h28.159l14.08-24.387z" fill="#f79219"/></g></g><g><g><path d="m57.581 103.613h-28.159l-14.08 24.387 14.08 24.387h28.159l14.08-24.387z" fill="#8c3f0a"/></g></g><g><g><path d="m57.581 103.613h-4.227l8.307 14.387-14.08 24.386h-23.933l5.774 10h28.159l14.08-24.386z" fill="#7c3108"/></g></g><g><g><path d="m99.837 128h-28.159l-14.08 24.387 14.08 24.386h28.159l14.08-24.386z" fill="#7c3108"/></g></g><g><g><path d="m99.837 128h-4.226l8.306 14.386-14.08 24.387h-23.933l5.774 10h28.159l14.08-24.387z" fill="#6d2e03"/></g></g><g><g><path d="m184.341 79.227h-28.159l-14.08 24.386 14.08 24.387h28.159l14.08-24.387z" fill="#ffa91a"/></g></g><g><g><path d="m184.341 79.227h-4.226l8.306 14.386-14.08 24.387h-23.933l5.774 10h28.159l14.08-24.387z" fill="#f79219"/></g></g><g><g><path d="m142.085 103.613h-28.159l-14.08 24.387 14.08 24.387h28.159l14.08-24.387z" fill="#8c3f0a"/></g></g><g><g><path d="m111.399 138.01c-.71 0-1.369-.38-1.729-1-.55-.95-.22-2.18.729-2.729.92-.53 2.2-.181 2.73.729.56.96.229 2.18-.73 2.74-.299.17-.649.26-1 .26zm-4-6.92c-.71 0-1.38-.39-1.729-1.01l-.63-1.08c-.351-.62-.351-1.38 0-2l10.62-18.391c.35-.609 1.02-1 1.729-1h14.28c1.1 0 2 .9 2 2 0 1.11-.9 2-2 2h-13.13l-9.459 16.391.05.08c.55.96.22 2.189-.73 2.739-.3.171-.65.271-1.001.271z" fill="#995222"/></g></g><g><g><path d="m142.085 103.613h-4.226l8.306 14.387-14.08 24.386h-23.933l5.774 10h28.159l14.08-24.386z" fill="#7c3108"/></g></g><g><g><path d="m142.085 103.613h-2.113l11.193 19.387-14.08 24.386h-26.046l2.887 5h28.159l14.08-24.386z" fill="#6d2e03"/></g></g><g><g><path d="m142.085 54.84h-28.159l-14.08 24.387 14.08 24.386h28.159l14.08-24.386z" fill="#7c3108"/></g></g><g><g><path d="m142.085 54.84h-4.226l8.306 14.387-14.08 24.386h-23.933l5.774 10h28.159l14.08-24.386z" fill="#6d2e03"/></g></g><g><g><path d="m226.578 103.613h-28.159l-14.08 24.387 14.08 24.387h28.159l14.08-24.387z" fill="#8c3f0a"/></g></g><g><g><path d="m226.578 103.613h-4.226l8.306 14.387-14.08 24.386h-23.932l5.773 10h28.159l14.08-24.386z" fill="#7c3108"/></g></g><g><g><path d="m184.341 128h-28.159l-14.08 24.387 14.08 24.386h28.159l14.08-24.386z" fill="#7c3108"/></g></g><g><g><path d="m184.341 128h-4.226l8.306 14.386-14.08 24.387h-23.933l5.774 10h28.159l14.08-24.387z" fill="#6d2e03"/></g></g></g></svg>