<svg id="Layer_1" enable-background="new 0 0 256 256" height="512" viewBox="0 0 256 256" width="512" xmlns="http://www.w3.org/2000/svg"><g><g><g><g><g><path d="m94.568 27.532h7.999v22.627h-7.999z" fill="#ef7816" transform="matrix(.707 -.707 .707 .707 1.402 81.075)"/></g></g><g><g><circle cx="90.567" cy="30.845" fill="#ffa91a" r="9.896"/></g></g><g><g><path d="m94.604 21.808c.552 1.233.859 2.599.859 4.037 0 5.465-4.43 9.896-9.896 9.896-1.438 0-2.804-.307-4.037-.859 1.545 3.453 5.01 5.859 9.037 5.859 5.465 0 9.896-4.431 9.896-9.896 0-4.027-2.406-7.492-5.859-9.037z" fill="#f79219"/></g></g></g><g><g><g><path d="m146.119 34.846h22.627v7.999h-22.627z" fill="#ef7816" transform="matrix(.707 -.707 .707 .707 18.643 122.699)"/></g></g><g><g><circle cx="165.433" cy="30.845" fill="#ffa91a" r="9.896"/></g></g><g><g><path d="m169.47 21.808c.552 1.233.859 2.599.859 4.037 0 5.465-4.431 9.896-9.896 9.896-1.438 0-2.804-.307-4.037-.859 1.545 3.453 5.01 5.859 9.037 5.859 5.465 0 9.896-4.431 9.896-9.896 0-4.027-2.406-7.492-5.859-9.037z" fill="#f79219"/></g></g></g></g><g><g><path d="m174.224 158.501c0 35.152-30.371 64.909-41.877 74.921-2.496 2.172-6.198 2.172-8.694 0-11.506-10.012-41.877-39.769-41.877-74.921s30.371-64.909 41.877-74.921c2.496-2.172 6.198-2.172 8.694 0 11.506 10.012 41.877 39.769 41.877 74.921z" fill="#ffa91a"/></g></g><g><g><path d="m132.347 83.58c-2.496-2.172-6.198-2.172-8.694 0-.15.131-.304.265-.461.403 13.474 14.182 31.032 37.79 31.032 64.518 0 34.693-29.583 64.13-41.416 74.518 4.247 4.47 8.088 8.003 10.845 10.403 2.496 2.172 6.198 2.172 8.694 0 11.506-10.012 41.877-39.769 41.877-74.921s-30.371-64.909-41.877-74.921z" fill="#ef7816"/></g></g><g><g><circle cx="128" cy="64.731" fill="#ffa91a" r="32.218"/></g></g><g><g><path d="m145.229 37.503c3.159 4.983 4.989 10.892 4.989 17.229 0 17.793-14.425 32.218-32.218 32.218-6.337 0-12.246-1.83-17.229-4.989 5.712 9.009 15.772 14.989 27.229 14.989 17.793 0 32.218-14.424 32.218-32.218 0-11.458-5.98-21.517-14.989-27.229z" fill="#f79219"/></g></g><g><g><path d="m148.145 39.587c4.426 5.517 7.073 12.522 7.073 20.145 0 17.793-14.425 32.218-32.218 32.218-7.623 0-14.627-2.647-20.144-7.073 5.904 7.359 14.974 12.072 25.144 12.072 17.793 0 32.218-14.424 32.218-32.218 0-10.17-4.713-19.24-12.073-25.144z" fill="#ef7816"/></g></g><g><g><path d="m83.013 146.056h89.975c-1.238-6.308-3.335-12.366-5.967-18.079h-78.041c-2.632 5.713-4.729 11.771-5.967 18.079z" fill="#8c3f0a"/></g></g><g><g><path d="m86.07 181.929h83.86c2.072-5.769 3.523-11.823 4.062-18.079h-91.984c.539 6.256 1.99 12.311 4.062 18.079z" fill="#8c3f0a"/></g></g><g><g><path d="m169.93 181.929c2.072-5.769 3.523-11.823 4.062-18.079h-21.639c-1.521 6.333-3.878 12.393-6.731 18.079z" fill="#6d2e03"/></g></g><g><g><path d="m108.066 217.803h39.868c4.522-5.203 9.209-11.298 13.351-18.079h-66.57c4.142 6.781 8.829 12.876 13.351 18.079z" fill="#8c3f0a"/></g></g><g><g><path d="m147.934 217.803c4.522-5.203 9.209-11.298 13.351-18.079h-26.81c-5.509 7.331-11.278 13.482-16.02 18.079z" fill="#6d2e03"/></g></g><g><g><g><path d="m99.666 162.562c-21.011 21.011-56.95 20.644-69.812 19.751-2.79-.194-5.003-2.407-5.197-5.197-.893-12.861-1.26-48.801 19.751-69.812s56.95-20.644 69.812-19.751c2.79.194 5.003 2.407 5.197 5.197.892 12.861 1.259 48.801-19.751 69.812z" fill="#e6e7e8"/></g></g><g><g><path d="m119.416 92.75c-.194-2.79-2.407-5.003-5.197-5.197-3.444-.239-8.544-.441-14.569-.204.512 15.417-1.111 46.338-19.985 65.212-15.384 15.384-38.771 19.307-55.242 19.954.058 1.745.143 3.292.234 4.6.194 2.79 2.407 5.003 5.197 5.197 12.861.893 48.801 1.26 69.811-19.751 21.011-21.01 20.644-56.95 19.751-69.811z" fill="#d1d3d4"/></g></g><g><g><path d="m30.62 178.35c-1.051 0-1.931-.819-2-1.859v-.011c-.03-.529.14-1.04.489-1.449.36-.4.841-.641 1.381-.671 1.09-.079 2.04.761 2.119 1.841 0 .01.011.01.011.02.069 1.1-.771 2.05-1.87 2.13-.05-.001-.09-.001-.13-.001zm-.261-7.991c-1.1 0-2-.899-2-2v-.109c.051-17.9 3.36-42.51 18.881-58.12 7.319-7.28 17.329-12.54 29.76-15.65 8.47-2.12 17.91-3.21 28.06-3.239 1.101 0 2 .899 2 2 0 1.109-.899 2-2 2h-.31c-11.15 0-38.8 1.729-54.69 17.72-16.06 15.96-17.729 43.979-17.7 55.29v.1c-.001 1.109-.9 1.999-2.001 2.008z" fill="#fff"/></g></g><g><g><path d="m156.334 162.562c21.011 21.011 56.95 20.644 69.812 19.751 2.79-.194 5.003-2.407 5.197-5.197.893-12.861 1.26-48.801-19.751-69.812s-56.95-20.644-69.811-19.751c-2.79.194-5.003 2.407-5.197 5.197-.893 12.861-1.26 48.801 19.75 69.812z" fill="#e6e7e8"/></g></g><g><g><path d="m211.592 107.304c-7.352-7.352-16.532-12.086-25.911-15.097 2.07 1.541 4.05 3.235 5.911 5.097 21.011 21.011 20.644 56.95 19.751 69.812-.194 2.79-2.407 5.003-5.197 5.197-8.361.58-26.475.938-43.9-4.654 21.288 15.845 52.178 15.468 63.9 14.654 2.79-.194 5.003-2.407 5.197-5.197.893-12.862 1.26-48.801-19.751-69.812z" fill="#d1d3d4"/></g></g></g></g></svg>