<svg id="Layer_1" enable-background="new 0 0 256 256" height="512" viewBox="0 0 256 256" width="512" xmlns="http://www.w3.org/2000/svg"><g><g><g><g><path d="m128 236.141c18.687 0 33.835-75.804 33.835-121.664s-15.148-44.413-33.835-44.413-33.835-1.449-33.835 44.412 15.149 121.665 33.835 121.665z" fill="#ffa91a"/></g></g><g><g><path d="m146.972 72.046c3.087 6.567 4.864 16.724 4.864 32.43 0 45.861-15.149 121.664-33.835 121.664-.644 0-1.284-.091-1.92-.266 3.707 6.445 7.724 10.266 11.92 10.266 18.687 0 33.835-75.804 33.835-121.664 0-28.606-5.894-38.805-14.864-42.43z" fill="#f79219"/></g></g><g><g><path d="m150.054 73.649c4.258 6.271 6.782 17.108 6.782 35.827 0 45.861-15.149 121.664-33.835 121.664-1.505 0-2.987-.492-4.44-1.42 2.996 4.09 6.163 6.42 9.44 6.42 18.687 0 33.835-75.804 33.835-121.664 0-25.184-4.569-36.101-11.782-40.827z" fill="#ef7816"/></g></g><g><g><path d="m129.756 73.9c6.753 0 13.378-2.065 18.813-6.073 10.74-7.346 26.313-26.898 20.921-31.956-5.24-5.267-25.449 10.024-32.947 20.277 2.126-12.376-1.02-36.895-8.544-36.772-7.533-.103-10.665 24.389-8.543 36.772-7.479-10.242-27.741-25.557-32.948-20.276-5.406 5.005 10.204 24.649 20.922 31.955 6.369 4.833 14.448 6.465 22.326 6.073z" fill="#76a34f"/></g></g><g><g><g><path d="m169.491 35.871c-.917-.921-2.292-1.213-3.976-1.013-1.085 7.717-13.139 21.946-21.945 27.969-5.435 4.008-12.06 6.073-18.813 6.073-7.878.392-15.957-1.24-22.325-6.073-1.726-1.176-3.578-2.673-5.45-4.376 3.448 3.764 7.177 7.145 10.45 9.376 6.368 4.833 14.447 6.466 22.325 6.073 6.753 0 13.378-2.065 18.813-6.073 10.739-7.346 26.312-26.899 20.921-31.956z" fill="#648940"/></g></g></g></g><g><g><path d="m127.038 92.282h-31.155c-.612 3.167-1.069 6.784-1.358 10.916h32.512c3.014 0 5.458-2.444 5.458-5.458s-2.443-5.458-5.457-5.458z" fill="#f79219"/></g></g><g><g><path d="m149.341 129.219h-38.819c-3.014 0-5.458-2.444-5.458-5.458 0-3.014 2.444-5.458 5.458-5.458h38.819c3.014 0 5.458 2.444 5.458 5.458 0 3.014-2.444 5.458-5.458 5.458z" fill="#f79219"/></g></g><g><g><path d="m142.426 142.3c-3.014 0-5.458 2.444-5.458 5.458s2.444 5.458 5.458 5.458h16.702c.467-3.664.877-7.314 1.229-10.916z" fill="#f79219"/></g></g><g><g><path d="m155.288 177.213c.698-3.593 1.348-7.242 1.945-10.916h-34.852c-3.014 0-5.458 2.444-5.458 5.458s2.444 5.458 5.458 5.458z" fill="#f79219"/></g></g><g><g><path d="m129.581 190.295h-26.044c.903 3.776 1.861 7.429 2.867 10.916h23.177c3.014 0 5.458-2.444 5.458-5.458s-2.444-5.458-5.458-5.458z" fill="#f79219"/></g></g><g><g><path d="m109.9 193.06c-.92 0-1.72-.62-1.94-1.52-.13-.51-.05-1.05.23-1.51.27-.46.71-.78 1.23-.91 1.05-.26 2.16.41 2.42 1.46.27 1.07-.39 2.16-1.46 2.42-.16.04-.32.06-.48.06zm-1.81-7.79h-.01c-.93 0-1.75-.67-1.95-1.58-4.91-22.55-7.96-49.08-7.96-69.21.03-9.3.63-16.6 1.83-22.33 1.26-6.04 3.19-10.39 5.89-13.29.74-.77 2.06-.79 2.83-.05.38.37.6.87.61 1.4.01.54-.18 1.04-.56 1.43-4.26 4.25-6.67 16.22-6.6 32.84-.01 19.87 3.01 46.06 7.87 68.36.23 1.08-.45 2.15-1.53 2.38-.14.03-.28.05-.42.05z" fill="#ffc91d"/></g></g><g><g><g><g><g><path d="m162.028 236.231c12.765 5.195 44.187-42.377 56.937-73.705s1.998-34.55-10.767-39.745-22.711-10.396-35.46 20.933-23.475 87.322-10.71 92.517z" fill="#ffa91a"/></g></g><g><g><path d="m214.063 125.238c1.531 5.468.409 13.756-5.099 27.289-11.371 27.942-37.596 68.805-52.19 73.627.758 5.298 2.432 8.93 5.254 10.078 12.765 5.195 44.187-42.377 56.937-73.705 10.716-26.334 4.829-32.809-4.902-37.289z" fill="#ef7816"/></g></g><g><g><path d="m208.331 125.89c4.613 1.877 9.713 2.308 14.54 1.081 9.379-2.032 25.453-11.06 23.175-16.013-2.115-5.055-20.171-.227-28.144 4.692 4.893-7.863 9.56-25.487 4.386-27.494-5.118-2.164-14.066 13.696-16.058 22.744-2.262-9.076-11.845-25.17-16.871-23.011-5.084 1.916.118 19.675 5.409 27.645 3.007 5.072 8.072 8.433 13.563 10.356z" fill="#76a34f"/></g></g><g><g><g><path d="m246.046 110.958c-.621-1.483-2.615-2.115-5.323-2.144-2.722 4.991-15.084 11.474-22.852 13.157-4.827 1.227-9.927.796-14.54-1.081-2.719-.952-5.332-2.256-7.644-3.947 3.062 4.293 7.679 7.208 12.644 8.947 4.613 1.877 9.713 2.308 14.54 1.081 9.379-2.033 25.453-11.06 23.175-16.013z" fill="#648940"/></g></g></g></g><g><g><path d="m201.363 137.691-21.282-8.661c-1.298 1.993-2.616 4.337-3.962 7.079l22.21 9.038c2.059.838 4.408-.152 5.246-2.211.837-2.058-.152-4.407-2.212-5.245z" fill="#f79219"/></g></g><g><g><path d="m206.331 169.123-26.518-10.792c-2.059-.838-3.049-3.187-2.211-5.246.838-2.059 3.187-3.049 5.246-2.211l26.518 10.792c2.059.838 3.049 3.187 2.211 5.246-.838 2.06-3.187 3.049-5.246 2.211z" fill="#f79219"/></g></g><g><g><path d="m197.971 176.137c-2.059-.838-4.408.152-5.246 2.211s.152 4.408 2.211 5.246l11.41 4.643c1.337-2.373 2.633-4.752 3.874-7.115z" fill="#f79219"/></g></g><g><g><path d="m197.051 203.563c1.476-2.26 2.934-4.573 4.363-6.916l-23.808-9.689c-2.059-.838-4.408.152-5.246 2.211s.152 4.408 2.211 5.246z" fill="#f79219"/></g></g><g><g><path d="m175.853 205.352-17.791-7.24c-.433 2.83-.794 5.592-1.076 8.254l15.833 6.443c2.059.838 4.408-.152 5.246-2.211s-.153-4.408-2.212-5.246z" fill="#f79219"/></g></g></g><g><g><g><g><path d="m93.972 236.231c-12.765 5.195-44.187-42.377-56.937-73.705s-1.998-34.55 10.767-39.745 22.711-10.396 35.46 20.933 23.475 87.322 10.71 92.517z" fill="#ffa91a"/></g></g><g><g><path d="m83.263 143.714c-6.02-14.791-11.414-21.44-16.775-23.79 2.187 3.516 4.434 8.037 6.775 13.79 12.749 31.328 23.475 87.323 10.709 92.518-2.907 1.183-6.782-.371-11.183-3.846 8.42 9.896 16.214 15.867 21.183 13.846 12.765-5.196 2.04-61.19-10.709-92.518z" fill="#ef7816"/></g></g><g><g><path d="m47.669 125.89c-4.613 1.877-9.713 2.308-14.54 1.081-9.379-2.032-25.453-11.06-23.175-16.013 2.115-5.055 20.171-.227 28.144 4.692-4.893-7.863-9.56-25.487-4.386-27.494 5.118-2.164 14.066 13.696 16.058 22.744 2.262-9.076 11.845-25.17 16.871-23.011 5.084 1.916-.118 19.675-5.409 27.645-3.007 5.072-8.072 8.433-13.563 10.356z" fill="#76a34f"/></g></g><g><g><g><path d="m66.64 87.889c-.862-.37-1.858-.204-2.928.372-.141 6.385-3.789 16.712-7.481 22.273-3.006 5.072-8.071 8.433-13.562 10.355-4.613 1.877-9.713 2.308-14.54 1.081-5.331-1.155-12.823-4.57-17.881-8.212 2.661 4.999 15.084 11.523 22.881 13.212 4.827 1.227 9.927.796 14.54-1.081 5.491-1.922 10.556-5.283 13.562-10.355 5.291-7.97 10.494-25.729 5.409-27.645z" fill="#648940"/></g></g></g></g><g><g><path d="m54.637 137.691 21.282-8.661c1.298 1.993 2.616 4.337 3.962 7.079l-22.21 9.038c-2.059.838-4.408-.152-5.246-2.211-.837-2.058.153-4.407 2.212-5.245z" fill="#f79219"/></g></g><g><g><path d="m49.669 169.123 26.518-10.792c2.059-.838 3.049-3.187 2.211-5.246-.838-2.059-3.187-3.049-5.246-2.211l-26.518 10.792c-2.059.838-3.049 3.187-2.211 5.246.838 2.06 3.187 3.049 5.246 2.211z" fill="#f79219"/></g></g><g><g><path d="m58.029 176.137c2.059-.838 4.408.152 5.246 2.211s-.152 4.408-2.211 5.246l-11.41 4.643c-1.337-2.373-2.633-4.752-3.874-7.115z" fill="#f79219"/></g></g><g><g><path d="m58.949 203.563c-1.476-2.26-2.934-4.573-4.363-6.916l23.808-9.689c2.059-.838 4.408.152 5.246 2.211s-.152 4.408-2.211 5.246z" fill="#f79219"/></g></g><g><g><path d="m80.147 205.352 17.791-7.24c.433 2.83.794 5.592 1.076 8.254l-15.833 6.443c-2.059.838-4.408-.152-5.246-2.211s.153-4.408 2.212-5.246z" fill="#f79219"/></g></g></g></g></g></svg>