<svg id="Layer_1" enable-background="new 0 0 512 512" height="512" viewBox="0 0 512 512" width="512" xmlns="http://www.w3.org/2000/svg"><g><g><g><g><g><g><path d="m190.7 136.1c12.7 36.8-6.8 77-43.6 89.7s-77-6.8-89.7-43.6c-10-28.6 14.6-87.9 26.1-112.9 2.9-6.4 10.6-9.1 16.9-5.9 24.4 12.6 80.4 44.1 90.3 72.7z" fill="#f2ad97"/></g></g><g><g><path d="m161.9 139.4c7.6 22-4.1 46.1-26.1 53.7s-46.1-4.1-53.7-26.1c-5.9-17.1 8.8-52.6 15.6-67.6 1.8-3.8 6.4-5.4 10.1-3.5 14.6 7.5 48.1 26.3 54.1 43.5z" fill="#7c3108"/></g></g><g><g><path d="m161.9 139.4c-2.8-8.1-11.7-16.5-21.8-23.9.8 1.3 1.4 2.6 1.8 3.9 7.6 22-4.1 46.1-26.1 53.7-10.9 3.8-22.3 2.8-31.9-1.8 9.1 19.2 31.4 28.9 51.9 21.8 22-7.6 33.7-31.7 26.1-53.7z" fill="#6d2e03"/></g></g></g></g><g><g><g><g><path d="m321.3 136.1c-12.7 36.8 6.8 77 43.6 89.7s77-6.8 89.7-43.6c9.9-28.6-14.7-87.9-26.1-112.9-2.9-6.4-10.6-9.1-16.9-5.9-24.4 12.6-80.4 44.1-90.3 72.7z" fill="#f2ad97"/></g></g><g><g><path d="m428.5 69.3c-1.7-3.7-5-6.1-8.6-6.9 11.9 26.5 34.3 82.4 24.8 109.9-12.7 36.8-52.9 56.4-89.7 43.6-8.1-2.8-15.3-6.9-21.6-12 8 9.8 18.7 17.6 31.6 22 36.8 12.7 77-6.8 89.7-43.6 9.9-28.7-14.7-88-26.2-113z" fill="#e59076"/></g></g><g><g><path d="m350.1 139.4c-7.6 22 4.1 46.1 26.1 53.7s46.1-4.1 53.7-26.1c5.9-17.1-8.8-52.6-15.6-67.6-1.8-3.8-6.4-5.4-10.1-3.5-14.6 7.5-48.1 26.3-54.1 43.5z" fill="#7c3108"/></g></g><g><g><path d="m414.3 99.4c-1.8-3.8-6.4-5.4-10.1-3.5-.8.4-1.6.8-2.4 1.3 6.3 16.7 12.4 37.8 8.2 49.8-7.6 22-31.7 33.7-53.7 26.1-1.5-.5-2.9-1.1-4.3-1.8 4.7 9.9 13.2 17.9 24.3 21.8 22 7.6 46.1-4.1 53.7-26.1 5.9-17.2-8.8-52.6-15.7-67.6z" fill="#6d2e03"/></g></g></g></g></g><g><g><circle cx="255.9" cy="285.1" fill="#fcc4ae" r="183.4"/></g></g><g><g><path d="m84.5 289.1c-2.2 0-4-1.8-4-4s1.8-4 4-4 4 1.8 4 4-1.8 4-4 4zm.7-16c-.1 0-.3 0-.4 0-1.1-.1-2-.6-2.7-1.4s-1-1.9-.9-2.9c2.8-30.3 13.6-59.5 31.2-84.5 17.2-24.4 40.5-44.2 67.4-57.2 1.9-.9 4.4-.1 5.3 1.9 1 2 .1 4.4-1.9 5.3-52.7 25.4-88.7 77.3-94.1 135.2-.1 2.1-1.8 3.6-3.9 3.6z" fill="#ffd2c0"/></g></g><g><g><path d="m104.9 389.2c33.1 47.9 88.4 79.3 151 79.3 62.7 0 118.1-31.5 151.2-79.6-17.8-66.8-78.7-116-151.1-116-72.5 0-133.5 49.3-151.1 116.3z" fill="#f2ad97"/></g></g><g><g><path d="m375.2 145.8c27.5 32.1 44.1 73.7 44.1 119.3 0 101.3-82.1 183.4-183.4 183.4-45.5 0-87.2-16.6-119.3-44.1 33.6 39.2 83.6 64.1 139.3 64.1 101.3 0 183.4-82.1 183.4-183.4-.1-55.7-24.9-105.6-64.1-139.3z" fill="#f2ad97"/></g></g><g><g><path d="m380.4 150.5c30.3 32.7 48.8 76.5 48.8 124.6 0 101.3-82.1 183.4-183.4 183.4-48.1 0-91.9-18.5-124.6-48.8 33.5 36.2 81.4 58.8 134.6 58.8 101.3 0 183.4-82.1 183.4-183.4 0-53.2-22.6-101.1-58.8-134.6z" fill="#e59076"/></g></g><g><g><path d="m286.7 275.8c0 16.9-13.7 30.6-30.6 30.6s-30.6-13.7-30.6-30.6 13.7-10.9 30.6-10.9 30.6-6 30.6 10.9z" fill="#8c3f0a"/></g></g><g><g><path d="m276.7 263.9c0 .6.1 1.2.1 1.8 0 16.9-13.7 30.6-30.6 30.6-5.9 0-11.4-1.7-16-4.5 5.4 8.7 15 14.5 26 14.5 16.9 0 30.6-13.7 30.6-30.6-.1-8.9-4-11.4-10.1-11.8z" fill="#7c3108"/></g></g><g><g><path d="m303.4 335.3c-20.7 0-38.6-11.8-47.4-29-8.8 17.2-26.7 29-47.4 29v14c0 26.2 21.2 47.4 47.4 47.4 26.2 0 47.4-21.2 47.4-47.4z" fill="#8c3f0a"/></g></g><g><g><g><g><g><path d="m199.6 301h-92.8c-2.2 0-4-1.8-4-4s1.8-4 4-4h92.8c2.2 0 4 1.8 4 4s-1.8 4-4 4z" fill="#e59076"/></g></g><g><g><path d="m199.6 286.3c-.4 0-.8-.1-1.2-.2l-92.8-29.9c-2.1-.7-3.3-2.9-2.6-5s2.9-3.3 5-2.6l92.8 29.9c2.1.7 3.3 2.9 2.6 5-.5 1.8-2.1 2.8-3.8 2.8z" fill="#e59076"/></g></g><g><g><path d="m106.9 339.5c-1.8 0-3.5-1.2-3.9-3.1-.5-2.1.8-4.3 3-4.8l92.8-22c2.1-.5 4.3.8 4.8 3 .5 2.1-.8 4.3-3 4.8l-92.8 22c-.3.1-.6.1-.9.1z" fill="#e59076"/></g></g></g></g><g><g><g><g><path d="m405.1 301h-92.8c-2.2 0-4-1.8-4-4s1.8-4 4-4h92.8c2.2 0 4 1.8 4 4s-1.7 4-4 4z" fill="#e59076"/></g></g><g><g><path d="m312.4 286.3c-1.7 0-3.3-1.1-3.8-2.8-.7-2.1.5-4.4 2.6-5l92.8-29.9c2.1-.7 4.4.5 5 2.6.7 2.1-.5 4.4-2.6 5l-92.8 29.9c-.4.2-.8.2-1.2.2z" fill="#e59076"/></g></g><g><g><path d="m405.1 339.5c-.3 0-.6 0-.9-.1l-92.8-22c-2.1-.5-3.5-2.7-3-4.8s2.7-3.5 4.8-3l92.8 22c2.1.5 3.5 2.7 3 4.8-.4 1.9-2 3.1-3.9 3.1z" fill="#e59076"/></g></g></g></g></g><g><g><path d="m293.8 378c-6.2-14.9-20.8-25.3-37.9-25.3-17 0-31.6 10.4-37.8 25.1 8.6 11.5 22.4 19 38 19 15.3 0 29-7.4 37.7-18.8z" fill="#e63950"/></g></g><g><g><path d="m255.9 101.7c-8.4 0-16.7.6-24.8 1.7.3 38.5 11.4 69.5 25.1 69.5s24.8-30.9 25.1-69.4c-8.3-1.2-16.8-1.8-25.4-1.8z" fill="#e59076"/></g></g><g><g><g><path d="m304.6 108.3c-.8 1.4-1.5 2.8-2.2 4.3-10.3 20.5-14.3 39.3-9 42s17.9-11.9 28.1-32.4c1.2-2.4 2.3-4.7 3.3-7-6.5-2.7-13.3-5-20.2-6.9z" fill="#e59076"/></g></g><g><g><path d="m190.5 122.2c10.3 20.6 22.9 35.1 28.1 32.4s1.2-21.4-9-42c-.7-1.5-1.5-3-2.3-4.4-6.9 1.9-13.6 4.2-20.2 6.8 1.1 2.4 2.2 4.8 3.4 7.2z" fill="#e59076"/></g></g></g><g><g><g><circle cx="180.5" cy="213.7" fill="#8c3f0a" r="24.7"/></g></g><g><g><path d="m192.2 191.9c1.9 3.5 3 7.5 3 11.7 0 13.6-11.1 24.7-24.7 24.7-4.2 0-8.2-1.1-11.7-3 4.2 7.7 12.3 13 21.7 13 13.6 0 24.7-11.1 24.7-24.7 0-9.3-5.3-17.5-13-21.7z" fill="#7c3108"/></g></g><g><g><circle cx="331.5" cy="213.7" fill="#8c3f0a" r="24.7"/></g></g><g><g><path d="m343.3 191.9c1.9 3.5 3 7.5 3 11.7 0 13.6-11.1 24.7-24.7 24.7-4.2 0-8.2-1.1-11.7-3 4.2 7.7 12.3 13 21.7 13 13.6 0 24.7-11.1 24.7-24.7-.1-9.3-5.3-17.5-13-21.7z" fill="#7c3108"/></g></g></g></g></svg>