<svg id="Layer_1" enable-background="new 0 0 256 256" height="512" viewBox="0 0 256 256" width="512" xmlns="http://www.w3.org/2000/svg"><g><g><g><circle cx="173.448" cy="175.95" fill="#e63950" r="37.69"/></g></g><g><g><path d="m194.627 144.77c4.108 6.036 6.51 13.327 6.51 21.18 0 20.815-16.875 37.69-37.69 37.69-7.852 0-15.144-2.402-21.18-6.51 6.782 9.965 18.217 16.51 31.18 16.51 20.816 0 37.69-16.875 37.69-37.69.001-12.963-6.544-24.398-16.51-31.18z" fill="#d10028"/></g></g><g><g><path d="m197.481 146.916c5.406 6.523 8.656 14.899 8.656 24.034 0 20.815-16.875 37.69-37.69 37.69-9.135 0-17.51-3.25-24.034-8.656 6.913 8.342 17.353 13.656 29.034 13.656 20.816 0 37.69-16.875 37.69-37.69.001-11.681-5.314-22.121-13.656-29.034z" fill="#b7022d"/></g></g><g><g><circle cx="82.552" cy="187.334" fill="#e63950" r="37.69"/></g></g><g><g><path d="m57.109 208.21c-.63 0-1.229-.311-1.609-.811-.32-.43-.45-.96-.37-1.489.08-.521.36-.99.79-1.311.85-.63 2.16-.439 2.79.41.32.43.46.96.38 1.49-.08.52-.36.99-.79 1.31-.35.26-.76.401-1.191.401zm-3.92-6.95c-.819 0-1.54-.49-1.85-1.25-1.65-4.03-2.48-8.29-2.48-12.68 0-6.48 1.86-12.79 5.37-18.23 3.42-5.29 8.23-9.52 13.9-12.21.979-.46 2.21-.02 2.67.94.23.489.26 1.029.08 1.529-.18.511-.55.91-1.03 1.141-10.319 4.91-16.99 15.439-16.99 26.83 0 3.859.74 7.62 2.181 11.16v.01c.42 1.02-.07 2.189-1.101 2.609-.239.101-.489.151-.75.151z" fill="#e8566f"/></g></g><g><g><path d="m103.732 156.155c4.108 6.037 6.51 13.328 6.51 21.18 0 20.815-16.874 37.69-37.69 37.69-7.853 0-15.144-2.402-21.18-6.51 6.782 9.965 18.217 16.51 31.18 16.51 20.816 0 37.69-16.875 37.69-37.69 0-12.964-6.544-24.398-16.51-31.18z" fill="#d10028"/></g></g><g><g><g><path d="m81.297 181.673c-1.21 0-2.273-.88-2.467-2.113-5.555-35.446-4.347-69.799 3.401-96.73 7.935-27.576 21.857-44.26 39.206-46.979 1.361-.208 2.643.718 2.856 2.083.214 1.363-.719 2.643-2.083 2.856-15.316 2.4-27.809 17.821-35.174 43.422-7.552 26.245-8.712 59.832-3.268 94.574.214 1.363-.719 2.643-2.083 2.856-.129.021-.259.031-.388.031z" fill="#8c3f0a"/></g></g><g><g><path d="m174.57 169.556c-.584 0-1.17-.203-1.645-.618-26.37-23.052-45.416-47.824-55.077-71.64-9.635-23.748-8.95-45.212 1.928-60.437.803-1.125 2.363-1.384 3.487-.581s1.384 2.364.581 3.487c-20.618 28.857.918 80.427 52.372 125.406 1.039.908 1.146 2.487.236 3.527-.493.567-1.185.856-1.882.856z" fill="#8c3f0a"/></g></g><g><g><path d="m181.999 69.567c2.055-.79 3.086-3.078 2.315-5.14-2.741-7.339-10.288-23.754-24.814-30.298s-31.821-1.318-39.134 1.493c-2.055.79-3.086 3.078-2.315 5.14 2.741 7.339 10.288 23.754 24.814 30.298s31.821 1.318 39.134-1.493z" fill="#76a34f"/></g></g><g><g><path d="m184.314 64.426c-2.357-6.311-8.268-19.334-19.116-27.02 4.701 6.324 7.622 13.02 9.116 17.02.77 2.063-.26 4.351-2.315 5.141-7.313 2.811-24.608 8.036-39.134 1.493-2.034-.916-3.932-2.026-5.698-3.277 3.924 5.28 9.089 10.3 15.698 13.277 14.526 6.543 31.821 1.318 39.134-1.493 2.055-.79 3.086-3.078 2.315-5.141z" fill="#648940"/></g></g><g><g><path d="m163.105 172.935c-1.631 0-3.284-.17-4.941-.523-1.351-.289-2.212-1.617-1.924-2.967.288-1.353 1.62-2.207 2.967-1.924 4.879 1.042 9.862.123 14.04-2.584 4.178-2.708 7.052-6.885 8.092-11.761.289-1.353 1.621-2.212 2.967-1.924 1.351.289 2.212 1.617 1.924 2.967-2.37 11.095-12.209 18.716-23.125 18.716z" fill="#d10028"/></g></g><g><g><path d="m77.981 181.933c-4.967 0-9.794-1.564-13.889-4.549-1.116-.813-1.361-2.378-.548-3.493.814-1.117 2.377-1.36 3.493-.548 4.028 2.937 8.949 4.136 13.875 3.36 4.918-.771 9.244-3.413 12.181-7.442.815-1.117 2.377-1.36 3.493-.548 1.116.813 1.361 2.378.548 3.493-3.725 5.108-9.211 8.46-15.448 9.438-1.237.193-2.475.289-3.705.289z" fill="#d10028"/></g></g></g></g></svg>