<svg id="Layer_1" enable-background="new 0 0 256 256" height="512" viewBox="0 0 256 256" width="512" xmlns="http://www.w3.org/2000/svg"><g><g><g><path d="m184.792 102.333c-5.22-26.6-28.662-46.668-56.792-46.668s-51.572 20.068-56.792 46.668c-14.142 14.377-22.866 34.098-22.866 55.857 0 43.994 35.664 79.658 79.658 79.658s79.658-35.664 79.658-79.658c0-21.758-8.725-41.48-22.866-55.857z" fill="#f1f2f2"/></g></g><g><g><path d="m54.34 160.19c-1.1 0-2-.9-2-2s.9-2 2-2c1.11 0 2 .9 2 2s-.89 2-2 2zm.43-7.99c-.07 0-.14 0-.21-.01-1.1-.11-1.9-1.1-1.78-2.2.9-8.42 3.19-16.55 6.8-24.16 3.61-7.64 8.49-14.6 14.48-20.69l.84-.86.23-1.18c2.5-12.71 9.54-24.11 19.83-32.1.85-.66 2.16-.49 2.81.36.68.87.52 2.13-.35 2.8-9.53 7.4-16.05 17.95-18.36 29.71l-.35 1.77c-.08.39-.26.74-.54 1.02l-1.26 1.28c-11.45 11.65-18.42 26.34-20.15 42.48-.11 1.02-.97 1.78-1.99 1.78z" fill="#fff"/></g></g><g><g><path d="m184.792 102.333c-2.727-13.897-10.428-26.011-21.173-34.412 5.488 7.018 9.392 15.334 11.173 24.412 14.142 14.377 22.866 34.098 22.866 55.857 0 43.994-35.664 79.658-79.658 79.658-19.451 0-37.273-6.972-51.105-18.552 14.612 17.453 36.563 28.552 61.105 28.552 43.994 0 79.658-35.664 79.658-79.658 0-21.758-8.725-41.48-22.866-55.857z" fill="#e6e7e8"/></g></g><g><g><path d="m184.792 102.333c-2.491-12.691-9.13-23.896-18.447-32.143 6.685 7.55 11.428 16.858 13.447 27.143 14.142 14.377 22.866 34.098 22.866 55.857 0 43.994-35.664 79.658-79.658 79.658-20.725 0-39.601-7.915-53.771-20.886 14.564 15.909 35.502 25.886 58.771 25.886 43.994 0 79.658-35.664 79.658-79.658 0-21.758-8.725-41.48-22.866-55.857z" fill="#d1d3d4"/></g></g><g><g><g><g><path d="m162.07 195.236c4.834 7.152 2.956 16.869-4.196 21.703s-16.869 2.956-21.703-4.196-13.243-32.087-6.091-36.921c7.152-4.835 27.156 12.262 31.99 19.414z" fill="#e63950"/></g></g></g><g><g><path d="m162.07 195.236c-1.824-2.699-5.809-6.814-10.448-10.632.161.218.311.429.448.632 4.834 7.152 2.956 16.869-4.196 21.703-4.254 2.875-9.415 3.376-13.917 1.804.773 1.618 1.529 2.987 2.214 3.999 4.834 7.152 14.551 9.031 21.703 4.196 7.152-4.833 9.031-14.55 4.196-21.702z" fill="#d10028"/></g></g><g><g><g><path d="m93.93 195.236c-4.834 7.152-2.956 16.869 4.196 21.703s16.869 2.956 21.703-4.196 13.243-32.087 6.091-36.921c-7.152-4.835-27.156 12.262-31.99 19.414z" fill="#e63950"/></g></g></g><g><g><path d="m125.92 175.821c-1.784-1.206-4.367-1.047-7.315-.019-.69 9.365-5.535 22.147-8.776 26.94-3.999 5.917-11.34 8.224-17.806 6.108 1.041 3.188 3.11 6.065 6.103 8.088 7.152 4.834 16.869 2.956 21.703-4.196 4.835-7.151 13.243-32.086 6.091-36.921z" fill="#d10028"/></g></g></g><g><g><path d="m157.04 30.888c-3.527-2.384-10.178.565-16.595 5.025-2.855-8.985-7.367-17.762-12.445-17.762s-9.59 8.777-12.445 17.762c-6.417-4.459-13.068-7.408-16.595-5.025-7.152 4.834 1.256 29.77 6.091 36.921 4.834 7.152 14.551 9.031 21.703 4.197.435-.294.851-.607 1.247-.935.396.329.811.641 1.247.935 7.152 4.834 16.869 2.956 21.703-4.197 4.833-7.151 13.241-32.086 6.089-36.921z" fill="#e63950"/></g></g><g><g><g><path d="m157.04 30.888c-1.784-1.206-4.367-1.047-7.315-.018-.69 9.364-5.535 22.146-8.776 26.94-4.834 7.152-14.551 9.031-21.703 4.197-.435-.294-.851-.607-1.247-.935-.396.329-.811.641-1.247.935-4.254 2.875-9.415 3.376-13.917 1.804.773 1.618 1.529 2.987 2.214 3.999 4.834 7.152 14.551 9.031 21.703 4.197.435-.294.851-.607 1.247-.935.396.329.811.641 1.247.935 7.152 4.834 16.869 2.956 21.703-4.197 4.835-7.152 13.243-32.087 6.091-36.922z" fill="#d10028"/></g></g></g><g><g><g><circle cx="86.009" cy="131.766" fill="#8c3f0a" r="8.557"/></g></g><g><g><path d="m89.021 123.754c.352.937.546 1.952.546 3.012 0 4.726-3.831 8.557-8.557 8.557-1.06 0-2.075-.193-3.012-.546 1.219 3.24 4.346 5.546 8.012 5.546 4.726 0 8.557-3.831 8.557-8.557-.001-3.666-2.306-6.793-5.546-8.012z" fill="#7c3108"/></g></g><g><g><circle cx="169.991" cy="131.766" fill="#8c3f0a" r="8.557"/></g></g><g><g><path d="m173.003 123.754c.352.937.546 1.952.546 3.012 0 4.726-3.831 8.557-8.557 8.557-1.06 0-2.075-.193-3.012-.546 1.219 3.24 4.346 5.546 8.012 5.546 4.726 0 8.557-3.831 8.557-8.557-.001-3.666-2.306-6.793-5.546-8.012z" fill="#7c3108"/></g></g></g><g><g><path d="m124.294 197.332-19.126-38.253c-.895-1.789-.383-3.963 1.216-5.165l19.126-14.375c1.474-1.108 3.504-1.108 4.978 0l19.126 14.375c1.599 1.202 2.111 3.375 1.216 5.165l-19.126 38.253c-1.525 3.054-5.883 3.054-7.41 0z" fill="#ffa91a"/></g></g><g><g><path d="m149.615 153.915-3.446-2.59c.202.904.102 1.875-.337 2.755l-19.126 38.252c-.774 1.548-2.275 2.311-3.767 2.289l1.356 2.711c1.527 3.054 5.884 3.054 7.411 0l19.126-38.252c.895-1.79.383-3.963-1.217-5.165z" fill="#f79219"/></g></g><g><g><path d="m149.615 153.915-19.126-14.375c-.931-.7-2.083-.957-3.177-.773v60.799c1.681.276 3.511-.468 4.393-2.234l19.126-38.252c.896-1.79.384-3.963-1.216-5.165z" fill="#f79219"/></g></g><g><g><path d="m149.615 153.915-3.446-2.59c.202.904.102 1.875-.337 2.755l-18.52 37.04v8.447c1.681.276 3.511-.468 4.393-2.234l19.126-38.252c.896-1.791.384-3.964-1.216-5.166z" fill="#ef7816"/></g></g></g></svg>