<svg id="Layer_1" enable-background="new 0 0 256 256" height="512" viewBox="0 0 256 256" width="512" xmlns="http://www.w3.org/2000/svg"><g><g><g><g><path d="m28.261 220.017 72.662-72.662 5.708 5.708-72.662 72.662c-.827.827-2.168.827-2.995 0l-2.713-2.713c-.827-.827-.827-2.168 0-2.995z" fill="#ef7816"/></g></g><g><g><path d="m38.868 209.41-5.708 5.708-4.21-4.21c-.827-.827-.827-2.168 0-2.995l2.713-2.712c.827-.827 2.168-.827 2.995 0z" fill="#f79219"/></g></g><g><g><path d="m54.332 193.946-5.708 5.708-4.21-4.21c-.827-.827-.827-2.168 0-2.995l2.713-2.713c.827-.827 2.168-.827 2.995 0z" fill="#f79219"/></g></g><g><g><path d="m69.796 178.482-5.708 5.708-4.21-4.21c-.827-.827-.827-2.168 0-2.995l2.713-2.712c.827-.827 2.168-.827 2.995 0z" fill="#f79219"/></g></g><g><g><path d="m85.26 163.018-5.708 5.708-4.21-4.21c-.827-.827-.827-2.168 0-2.995l2.713-2.713c.827-.827 2.168-.827 2.995 0z" fill="#f79219"/></g></g></g><g><g><path d="m220.799 120.621c-2.005.003-3.928-.794-5.344-2.213l-73.578-73.579-73.579 73.579c-2.97 2.932-7.754 2.902-10.686-.067-2.906-2.943-2.906-7.676 0-10.619l78.922-78.923c2.951-2.951 7.736-2.951 10.687 0l78.922 78.923c2.953 2.949 2.956 7.734.006 10.687-1.418 1.42-3.343 2.218-5.35 2.216z" fill="#f79219"/></g></g><g><g><path d="m66.7 109.13c-.54 0-1.04-.21-1.42-.59-.78-.78-.78-2.05 0-2.83.76-.75 2.08-.75 2.83 0 .38.38.59.88.59 1.42 0 .53-.21 1.03-.59 1.41s-.88.59-1.41.59zm5.65-5.66c-.53 0-1.03-.21-1.41-.58-.38-.38-.59-.89-.59-1.42s.21-1.04.59-1.41l62.919-62.93c.761-.76 2.08-.76 2.83 0 .38.37.591.88.591 1.41s-.211 1.04-.591 1.41l-62.919 62.93c-.38.38-.88.59-1.42.59z" fill="#ffc91d"/></g></g><g><g><path d="m204.407 167.4v-60.04l-62.53-62.531-62.53 62.53v60.041z" fill="#8c3f0a"/></g></g><g><g><path d="m141.877 44.829 52.53 52.531v60.04h-115.06v10h125.06v-60.04z" fill="#7c3108"/></g></g><g><g><path d="m141.877 44.829 57.53 57.531v60.04h-120.06v5h125.06v-60.04z" fill="#6d2e03"/></g></g><g><g><path d="m79.385 167.4h125.023v16.143h-125.023z" fill="#7c3108"/></g></g><g><g><path d="m79.347 227.297v-43.753h16.143v43.753c0 1.17-.948 2.118-2.118 2.118h-11.907c-1.17-.001-2.118-.949-2.118-2.118z" fill="#7c3108"/></g></g><g><g><path d="m188.264 227.297v-43.753h16.143v43.753c0 1.17-.948 2.118-2.118 2.118h-11.908c-1.169-.001-2.117-.949-2.117-2.118z" fill="#7c3108"/></g></g><g><g><path d="m79.347 131.454h125.06v12.429h-125.06z" fill="#6d2e03"/></g></g><g><g><path d="m85.793 100.913-6.446 6.446v5.983h125.06v-5.982l-6.446-6.447z" fill="#6d2e03"/></g></g><g><g><path d="m103.906 82.801h75.942l-12.428-12.429h-51.086z" fill="#6d2e03"/></g></g><g><g><g><path d="m161.223 138.879h-38.653c-2.339 0-4.236-1.896-4.236-4.236v-38.653c0-2.339 1.896-4.236 4.236-4.236h38.653c2.339 0 4.236 1.896 4.236 4.236v38.653c-.001 2.339-1.897 4.236-4.236 4.236z" fill="#6d2e03"/></g></g><g><g><path d="m159.458 97.754v35.124h-35.124v-35.124zm1.765-6h-38.653c-2.339 0-4.236 1.896-4.236 4.236v38.653c0 2.339 1.896 4.236 4.236 4.236h38.653c2.339 0 4.236-1.896 4.236-4.236v-38.653c-.001-2.339-1.897-4.236-4.236-4.236z" fill="#f79219"/></g></g></g></g></svg>