<svg id="Layer_1" enable-background="new 0 0 256 256" height="512" viewBox="0 0 256 256" width="512" xmlns="http://www.w3.org/2000/svg"><g><g><g><ellipse cx="162.461" cy="180.328" fill="#ffa91a" rx="53.368" ry="39.165" transform="matrix(.707 -.707 .707 .707 -79.928 167.694)"/></g></g><g><g><path d="m200.197 142.592c-1.707-1.707-3.589-3.167-5.614-4.386 9.701 16.115 4.086 41.302-14.429 59.817s-43.701 24.13-59.817 14.429c1.219 2.025 2.679 3.907 4.386 5.614 15.295 15.295 44.589 10.798 65.431-10.043 20.842-20.842 25.338-50.137 10.043-65.431z" fill="#f79219"/></g></g><g><g><path d="m186.299 134.747c-6.086-1.489-12.427-1.599-18.561-.321-13.383 8.454-26.411 21.618-22.836 39.873 2.783 14.226-16.059 24.876-27.97 30.1.776 2.847 1.948 5.571 3.481 8.093 11.294-4.556 34.27-15.857 31.217-31.466-4.658-23.8 18.897-38.947 34.669-46.279z" fill="#f79219"/></g></g><g><g><ellipse cx="166.861" cy="68.069" fill="#ffa91a" rx="39.165" ry="53.368" transform="matrix(.051 -.999 .999 .051 90.46 231.284)"/></g></g><g><g><path d="m203.983 40.794c4.267 5.995 6.539 12.823 6.178 19.968-1.091 21.603-25.839 37.909-55.276 36.422-13.709-.692-26.017-5.122-35.146-11.84 8.636 12.131 25.444 20.845 45.146 21.84 29.437 1.487 54.185-14.82 55.276-36.422.584-11.542-5.705-22.261-16.178-29.968z" fill="#f79219"/></g></g><g><g><path d="m206.875 43.09c5.614 6.606 8.703 14.429 8.286 22.672-1.091 21.603-25.839 37.909-55.276 36.422-15.216-.769-28.705-6.141-38.038-14.136 9.099 10.707 24.833 18.216 43.038 19.136 29.437 1.487 54.185-14.82 55.276-36.422.528-10.436-4.563-20.2-13.286-27.672z" fill="#ef7816"/></g></g><g><g><path d="m216.664 55.192c-2.976-5.514-7.147-10.292-12.208-13.985-15.245-4.26-33.747-5.1-44.893 9.8-8.688 11.6-29.223 4.766-41.086-.566-1.592 2.485-2.828 5.181-3.67 8.009 10.953 5.324 34.743 14.79 44.276 2.059 14.532-19.422 41.564-12.104 57.581-5.317z" fill="#f79219"/></g></g><g><g><ellipse cx="85.3" cy="141.566" fill="#ffa91a" rx="41.413" ry="56.432" transform="matrix(.707 -.707 .707 .707 -75.118 101.78)"/></g></g><g><g><path d="m60.26 168.609c-.54 0-1.04-.21-1.42-.59v-.01c-.38-.38-.58-.87-.58-1.4 0-.54.21-1.04.59-1.42.75-.75 2.07-.75 2.82 0 .78.78.78 2.051 0 2.83-.38.38-.88.59-1.41.59zm-5.33-5.96c-.62 0-1.189-.279-1.57-.75-7.01-8.79-11.52-18.63-13.029-28.449-.36-2.311-.54-4.601-.54-6.801 0-4.42.71-8.55 2.13-12.3 1.43-3.79 3.55-7.109 6.31-9.859.75-.75 2.07-.75 2.82 0 .78.779.78 2.05 0 2.829-4.74 4.74-7.25 11.421-7.26 19.33 0 1.99.17 4.07.49 6.19 1.399 9.13 5.619 18.31 12.21 26.56.689.86.54 2.12-.32 2.811-.352.29-.781.439-1.241.439z" fill="#ffc91d"/></g></g><g><g><path d="m114.583 112.282c-1.693-1.693-3.44-3.284-5.228-4.772 17.873 21.483 20.778 49.029 5.848 63.959s-42.476 12.025-63.959-5.848c1.488 1.788 3.079 3.534 4.772 5.228 22.038 22.038 53.014 26.793 69.187 10.62s11.418-47.148-10.62-69.187z" fill="#f79219"/></g></g><g><g><path d="m60.088 93.367c6.435-1.575 13.141-1.692 19.627-.34 14.151 8.939 27.927 22.859 24.147 42.163-2.942 15.042 16.981 26.3 29.576 31.829-.82 3.011-2.059 5.892-3.681 8.558-11.943-4.818-36.237-16.769-33.009-33.273 4.929-25.168-19.979-41.185-36.66-48.937z" fill="#f79219"/></g></g></g></svg>