<svg id="Layer_1" enable-background="new 0 0 256 256" height="512" viewBox="0 0 256 256" width="512" xmlns="http://www.w3.org/2000/svg"><g><g><g><g><g><circle cx="128" cy="128" fill="#ffa91a" r="103.976"/></g></g></g><g><g><path d="m30.73 118.18c-.08 0-.16 0-.24-.01-1.09-.141-1.88-1.13-1.74-2.23.13-1.08 1.13-1.88 2.22-1.739.53.06 1 .329 1.34.75.32.42.47.939.41 1.47-.12 1.009-.98 1.759-1.99 1.759zm1.29-7.89c-.13 0-.27-.011-.41-.04-1.08-.221-1.78-1.28-1.55-2.36 3.42-16.71 11.18-32.399 22.44-45.36 11.16-12.859 25.47-22.71 41.37-28.51.02 0 .04-.01.06-.02 2.54-.92 5.16-1.76 7.78-2.471 1.05-.289 2.17.36 2.46 1.4.28 1.07-.35 2.17-1.41 2.46-2.53.69-5.04 1.49-7.46 2.37-31.18 11.33-54.68 38.51-61.33 70.93-.19.931-1.01 1.601-1.95 1.601z" fill="#ffc91d"/></g></g><g><g><path d="m164.175 30.489c28.755 18.497 47.801 50.78 47.801 87.511 0 57.425-46.552 103.977-103.976 103.977-12.721 0-24.909-2.285-36.175-6.466 16.2 10.421 35.481 16.466 56.175 16.466 57.425 0 103.976-46.552 103.976-103.977 0-44.704-28.211-82.817-67.801-97.511z" fill="#f79219"/></g></g><g><g><g><g><path d="m128 180.457c-1.381 0-2.5-1.119-2.5-2.5v-89.398c0-1.381 1.119-2.5 2.5-2.5s2.5 1.119 2.5 2.5v89.398c0 1.381-1.119 2.5-2.5 2.5z" fill="#5a7a39"/></g></g><g><g><path d="m128 152.813c-.663 0-1.299-.264-1.768-.732l-14.813-14.813c-.977-.977-.977-2.559 0-3.535.976-.977 2.56-.977 3.535 0l13.046 13.045 13.045-13.046c.977-.977 2.559-.977 3.535 0 .977.976.977 2.559 0 3.535l-14.813 14.813c-.468.47-1.104.733-1.767.733z" fill="#5a7a39"/></g></g><g><g><path d="m128 124.709c-.64 0-1.28-.244-1.768-.732l-33.651-33.65c-.977-.977-.977-2.559 0-3.535.976-.977 2.56-.977 3.535 0l31.884 31.882 31.884-31.883c.977-.977 2.559-.977 3.535 0s.977 2.559 0 3.535l-33.651 33.65c-.489.489-1.128.733-1.768.733z" fill="#5a7a39"/></g></g></g><g><g><g><g><path d="m89.256 109.147c-1.346.049-2.418 1.121-2.467 2.467-.178 4.839.224 16.161 7.086 23.023s18.184 7.264 23.023 7.086c1.346-.049 2.418-1.121 2.467-2.467.178-4.839-.224-16.161-7.086-23.023s-18.184-7.263-23.023-7.086z" fill="#76a34f"/></g></g><g><g><path d="m112.279 116.233c-1.308-1.308-2.779-2.382-4.336-3.261 3.733 6.608 3.969 14.77 3.825 18.687-.049 1.346-1.121 2.418-2.467 2.467-3.916.144-12.079-.092-18.687-3.825.879 1.557 1.953 3.027 3.261 4.336 6.862 6.862 18.184 7.264 23.023 7.086 1.346-.049 2.418-1.121 2.467-2.467.178-4.839-.224-16.16-7.086-23.023z" fill="#648940"/></g></g><g><g><path d="m166.744 109.147c1.346.049 2.418 1.121 2.467 2.467.178 4.839-.224 16.161-7.086 23.023s-18.184 7.264-23.023 7.086c-1.346-.049-2.418-1.121-2.467-2.467-.178-4.839.224-16.161 7.086-23.023s18.184-7.263 23.023-7.086z" fill="#76a34f"/></g></g><g><g><path d="m169.211 111.614c-.049-1.346-1.121-2.418-2.467-2.467-1.331-.049-3.153-.054-5.237.107-.425 5.493-2.004 12.811-6.979 17.785-4.975 4.975-12.292 6.554-17.786 6.979-.161 2.084-.156 3.906-.107 5.238.049 1.346 1.121 2.418 2.467 2.467 4.839.178 16.161-.224 23.023-7.086s7.264-18.183 7.086-23.023z" fill="#648940"/></g></g></g><g><g><path d="m126.294 98.931c.975.873 2.438.873 3.412 0 4.626-4.142 17.062-16.653 17.062-31.444s-12.436-27.302-17.062-31.444c-.975-.873-2.438-.873-3.412 0-4.626 4.142-17.062 16.653-17.062 31.444s12.436 27.302 17.062 31.444z" fill="#76a34f"/></g></g><g><g><path d="m129.706 36.043c-.975-.872-2.438-.872-3.412 0-.719.644-1.626 1.489-2.645 2.514 4.159 5.744 7.925 13.193 7.925 21.333 0 12.493-8.873 23.36-14.417 28.931 3.398 4.693 7.057 8.248 9.137 10.11.974.873 2.438.873 3.412 0 4.626-4.142 17.062-16.653 17.062-31.444s-12.436-27.302-17.062-31.444z" fill="#648940"/></g></g><g><g><g><path d="m181.921 65.82c1.346.049 2.418 1.121 2.467 2.467.178 4.839-.224 16.161-7.086 23.023s-18.184 7.264-23.023 7.086c-1.346-.049-2.418-1.121-2.467-2.467-.178-4.839.224-16.161 7.086-23.023 6.863-6.862 18.184-7.263 23.023-7.086z" fill="#76a34f"/></g></g><g><g><path d="m184.388 68.287c-.049-1.346-1.121-2.418-2.467-2.467-1.331-.049-3.153-.054-5.237.107-.425 5.493-2.004 12.811-6.979 17.785-4.975 4.975-12.292 6.554-17.786 6.979-.161 2.084-.156 3.906-.107 5.238.049 1.346 1.121 2.418 2.467 2.467 4.839.178 16.161-.224 23.023-7.086s7.264-18.183 7.086-23.023z" fill="#648940"/></g></g><g><g><path d="m74.079 65.82c-1.346.049-2.418 1.121-2.467 2.467-.178 4.839.224 16.161 7.086 23.023s18.184 7.264 23.023 7.086c1.346-.049 2.418-1.121 2.467-2.467.178-4.839-.224-16.161-7.086-23.023-6.863-6.862-18.184-7.263-23.023-7.086z" fill="#76a34f"/></g></g><g><g><path d="m97.101 72.906c-1.308-1.308-2.779-2.382-4.336-3.261 3.733 6.608 3.969 14.77 3.825 18.687-.049 1.346-1.121 2.418-2.467 2.467-3.916.144-12.079-.092-18.687-3.825.879 1.557 1.953 3.027 3.261 4.336 6.862 6.862 18.184 7.264 23.023 7.086 1.346-.049 2.418-1.121 2.467-2.467.178-4.839-.223-16.16-7.086-23.023z" fill="#648940"/></g></g></g></g></g><g><g><g><path d="m128 231.975c-.242-57.218-46.699-103.527-103.974-103.528.242 57.217 46.7 103.527 103.974 103.528z" fill="#76a34f"/></g></g><g><g><path d="m25.42 145.067c7.247 43.878 41.965 78.489 85.897 85.575-7.246-43.878-41.964-78.489-85.897-85.575z" fill="#648940"/></g></g><g><g><path d="m30.086 163.06c10.503 29.329 33.809 52.564 63.184 62.972-10.503-29.329-33.81-52.565-63.184-62.972z" fill="#5a7a39"/></g></g><g><g><path d="m71.289 215.161c16.31 10.634 35.789 16.813 56.711 16.813 57.157 0 103.543-46.12 103.973-103.176-65.721 3.732-123.585 36.823-160.684 86.363z" fill="#76a34f"/></g></g><g><g><path d="m128 231.975c51.175 0 93.715-36.971 102.368-85.661-56.018 7.744-105.179 36.953-138.912 79.057 11.369 4.269 23.684 6.604 36.544 6.604z" fill="#648940"/></g></g><g><g><path d="m128 231.975c43.841 0 81.344-27.133 96.633-65.522-42.535 10.417-80.128 33.421-108.606 64.84 3.929.45 7.924.682 11.973.682z" fill="#5a7a39"/></g></g></g></g><g><g><g><circle cx="188.182" cy="199.213" fill="#f1f2f2" r="51.184"/></g></g><g><g><path d="m219.029 158.366c6.488 8.578 10.336 19.263 10.336 30.848 0 28.268-22.916 51.184-51.184 51.184-11.584 0-22.27-3.849-30.847-10.337 9.344 12.354 24.164 20.337 40.847 20.337 28.268 0 51.184-22.916 51.184-51.184.001-16.685-7.982-31.504-20.336-40.848z" fill="#e6e7e8"/></g></g><g><g><path d="m221.788 160.607c7.833 8.991 12.578 20.745 12.578 33.606 0 28.268-22.916 51.184-51.184 51.184-12.861 0-24.615-4.744-33.606-12.578 9.383 10.771 23.2 17.578 38.606 17.578 28.268 0 51.184-22.916 51.184-51.184 0-15.406-6.807-29.223-17.578-38.606z" fill="#d1d3d4"/></g></g></g><g><g><g><g><g><g><g><path d="m151.711 220.919c-7.548-7.548-7.548-19.829 0-27.376l12.24-12.24c7.548-7.548 19.829-7.548 27.376 0 7.548 7.548 7.548 19.829 0 27.376l-12.24 12.24c-7.547 7.548-19.828 7.548-27.376 0zm34.352-34.352c-4.645-4.645-12.202-4.645-16.847 0l-12.24 12.24c-4.645 4.645-4.645 12.202 0 16.847s12.202 4.645 16.847 0l12.24-12.24c4.645-4.645 4.645-12.202 0-16.847z" fill="#76a34f"/></g></g></g></g><g><g><g><path d="m188.686 183.944c-5.962-5.962-15.273-6.352-20.755-.87l-14.448 14.448c-5.482 5.482-5.092 14.793.87 20.755s15.273 6.352 20.755.87l14.448-14.448c5.483-5.482 5.092-14.793-.87-20.755zm-14.863 31.71c-4.645 4.645-12.202 4.645-16.847 0s-4.645-12.202 0-16.847l12.24-12.24c4.645-4.645 12.202-4.645 16.847 0s4.645 12.202 0 16.847z" fill="#648940"/></g></g></g><g><g><g><g><path d="m180.338 214.498c-7.548-7.548-7.548-19.829 0-27.376l12.24-12.24c7.548-7.548 19.829-7.548 27.376 0 7.548 7.548 7.548 19.829 0 27.376l-12.24 12.24c-7.548 7.548-19.829 7.548-27.376 0zm34.351-34.351c-4.645-4.645-12.202-4.645-16.847 0l-12.24 12.24c-4.645 4.645-4.645 12.202 0 16.847s12.202 4.645 16.847 0l12.24-12.24c4.645-4.645 4.645-12.203 0-16.847z" fill="#ffa91a"/></g></g></g></g><g><g><g><path d="m217.191 177.645c-6.021-6.021-15.348-6.491-20.792-1.047l-14.346 14.346c-5.444 5.444-4.974 14.771 1.048 20.792 6.021 6.021 15.349 6.491 20.792 1.048l14.346-14.346c5.444-5.445 4.974-14.772-1.048-20.793zm-14.742 31.589c-4.645 4.645-12.202 4.645-16.847 0s-4.645-12.202 0-16.847l12.24-12.24c4.645-4.645 12.202-4.645 16.847 0s4.645 12.202 0 16.847z" fill="#f79219"/></g></g></g><g><g><g><path d="m194.924 186.274-5.752 5.752c1.007 3.944-.028 8.307-3.109 11.388l-11.215 11.215 5.265 5.265 11.215-11.215c6.052-6.052 7.25-15.147 3.596-22.405z" fill="#76a34f"/></g></g></g><g><g><g><path d="m192.156 189.042-2.984 2.984c1.007 3.944-.028 8.307-3.109 11.388l-11.215 11.215 2.389 2.389 12.319-12.319c4.084-4.083 4.908-10.291 2.6-15.657z" fill="#648940"/></g></g></g></g></g></g></g></svg>