<svg id="Layer_1" enable-background="new 0 0 256 256" height="512" viewBox="0 0 256 256" width="512" xmlns="http://www.w3.org/2000/svg"><g><g><g><g><g><g><path d="m135.5 240.545h-15.335c-4.74 0-8.582-3.842-8.582-8.582v-10.379h32.499v10.379c0 4.739-3.842 8.582-8.582 8.582z" fill="#76a34f"/></g></g></g></g></g><g><g><path d="m139.082 221.583v5.379c0 4.74-3.842 8.582-8.582 8.582h-15.334c-1.067 0-2.089-.195-3.031-.551 1.225 3.244 4.358 5.551 8.031 5.551h15.334c4.74 0 8.582-3.843 8.582-8.582v-10.379z" fill="#648940"/></g></g><g><g><g><g><g><ellipse cx="127.833" cy="97.846" fill="#f79219" rx="40.365" ry="82.391"/></g></g></g></g></g><g><g><path d="m127.833 15.455c-.233 0-.466.004-.699.012 12.549 13.972 21.063 41.146 21.063 72.378 0 45.027-17.696 81.617-39.666 82.378 5.734 6.384 12.31 10.012 19.301 10.012 22.293 0 40.365-36.887 40.365-82.391 0-45.501-18.072-82.389-40.364-82.389z" fill="#ef7816"/></g></g><g><g><g><path d="m162.88 56.945c-.851-3.033-1.794-5.944-2.821-8.719-.464.888-.726 1.899-.726 2.97 0 2.515 1.444 4.692 3.547 5.749z" fill="#ffa91a"/></g></g><g><g><path d="m146.257 67.915h-8.672c-3.551 0-6.43 2.879-6.43 6.43 0 3.552 2.879 6.431 6.43 6.431h8.672c3.551 0 6.43-2.879 6.43-6.431.001-3.551-2.878-6.43-6.43-6.43z" fill="#ffa91a"/></g></g><g><g><path d="m146.257 91.064h-8.672c-3.551 0-6.43 2.879-6.43 6.43s2.879 6.43 6.43 6.43h8.672c3.551 0 6.43-2.879 6.43-6.43.001-3.551-2.878-6.43-6.43-6.43z" fill="#ffa91a"/></g></g><g><g><path d="m165.763 114.213c-3.551 0-6.43 2.879-6.43 6.431 0 3.491 2.783 6.333 6.251 6.428.769-4.137 1.38-8.433 1.817-12.858h-1.638z" fill="#ffa91a"/></g></g><g><g><path d="m146.257 44.766h-8.672c-3.551 0-6.43 2.879-6.43 6.43s2.879 6.43 6.43 6.43h8.672c3.551 0 6.43-2.879 6.43-6.43.001-3.551-2.878-6.43-6.43-6.43z" fill="#ffa91a"/></g></g><g><g><path d="m152.688 120.643c0-3.552-2.879-6.431-6.43-6.431h-8.672c-3.551 0-6.43 2.879-6.43 6.431 0 3.551 2.879 6.43 6.43 6.43h8.672c3.551.001 6.43-2.878 6.43-6.43z" fill="#ffa91a"/></g></g><g><g><path d="m131.155 28.047c0 3.552 2.879 6.431 6.43 6.431h8.672c2.309 0 4.334-1.217 5.467-3.045-2.625-3.941-5.493-7.25-8.549-9.816h-5.59c-3.551-.001-6.43 2.878-6.43 6.43z" fill="#ffa91a"/></g></g><g><g><path d="m159.333 74.345c0 3.552 2.879 6.431 6.43 6.431h1.567c-.457-4.426-1.088-8.721-1.877-12.853-3.407.162-6.12 2.975-6.12 6.422z" fill="#ffa91a"/></g></g><g><g><path d="m165.763 103.925h2.326c.072-2.007.108-4.034.108-6.079 0-2.284-.045-4.545-.135-6.782h-2.3c-3.551 0-6.43 2.879-6.43 6.43.001 3.551 2.88 6.431 6.431 6.431z" fill="#ffa91a"/></g></g><g><g><path d="m118.08 91.064h-8.672c-3.551 0-6.43 2.879-6.43 6.43s2.879 6.43 6.43 6.43h8.672c3.551 0 6.43-2.879 6.43-6.43s-2.879-6.43-6.43-6.43z" fill="#ffa91a"/></g></g><g><g><path d="m96.333 120.643c0-3.552-2.879-6.431-6.43-6.431h-1.638c.437 4.425 1.047 8.721 1.817 12.858 3.468-.094 6.251-2.935 6.251-6.427z" fill="#ffa91a"/></g></g><g><g><path d="m90.213 67.922c-.789 4.133-1.421 8.427-1.877 12.853h1.567c3.551 0 6.43-2.879 6.43-6.431 0-3.446-2.713-6.259-6.12-6.422z" fill="#ffa91a"/></g></g><g><g><path d="m103.941 31.432c1.134 1.828 3.159 3.045 5.468 3.045h8.672c3.551 0 6.43-2.879 6.43-6.431 0-3.551-2.879-6.43-6.43-6.43h-5.59c-3.057 2.566-5.925 5.875-8.55 9.816z" fill="#ffa91a"/></g></g><g><g><path d="m124.51 120.643c0-3.552-2.879-6.431-6.43-6.431h-8.672c-3.551 0-6.43 2.879-6.43 6.431 0 3.551 2.879 6.43 6.43 6.43h8.672c3.551.001 6.43-2.878 6.43-6.43z" fill="#ffa91a"/></g></g><g><g><path d="m96.333 97.494c0-3.551-2.879-6.43-6.43-6.43h-2.3c-.089 2.236-.135 4.498-.135 6.782 0 2.044.037 4.072.108 6.079h2.326c3.552 0 6.431-2.88 6.431-6.431z" fill="#ffa91a"/></g></g><g><g><path d="m96.333 51.196c0-1.071-.263-2.082-.726-2.97-1.027 2.775-1.97 5.686-2.821 8.719 2.103-1.057 3.547-3.234 3.547-5.749z" fill="#ffa91a"/></g></g><g><g><path d="m118.08 67.915h-8.672c-3.551 0-6.43 2.879-6.43 6.43 0 3.552 2.879 6.431 6.43 6.431h8.672c3.551 0 6.43-2.879 6.43-6.431 0-3.551-2.879-6.43-6.43-6.43z" fill="#ffa91a"/></g></g><g><g><path d="m118.08 44.766h-8.672c-3.551 0-6.43 2.879-6.43 6.43s2.879 6.43 6.43 6.43h8.672c3.551 0 6.43-2.879 6.43-6.43s-2.879-6.43-6.43-6.43z" fill="#ffa91a"/></g></g></g><g><g><path d="m186.089 167.65 6.163-66.792c.178-1.93-1.407-3.57-3.343-3.463-30.191 1.662-55.299 23.693-61.065 53.13-5.767-29.437-30.895-51.469-61.088-53.13-1.936-.107-3.521 1.533-3.343 3.463l6.163 66.792c2.682 29.466 24.718 53.327 53.339 58.779 4.061.807 8.254.498 12.249-.511 27.557-6.356 48.287-29.638 50.925-58.268z" fill="#76a34f"/></g></g><g><path d="m188.909 97.395c-2.482.136-4.93.412-7.336.817l-5.484 59.438c-2.638 28.631-23.368 51.912-50.925 58.268-3.995 1.009-8.188 1.318-12.249.511-10.854-2.067-20.76-6.783-29.024-13.447 9.628 11.94 23.337 20.459 39.024 23.447 4.061.807 8.254.498 12.249-.511 27.557-6.356 48.287-29.637 50.925-58.268l6.163-66.792c.178-1.93-1.407-3.569-3.343-3.463z" fill="#648940"/></g><g><path d="m188.909 97.395c-.606.033-1.209.076-1.811.125l-6.01 65.129c-2.638 28.631-23.368 51.912-50.925 58.268-3.995 1.009-8.188 1.318-12.249.511-12.061-2.298-22.953-7.865-31.72-15.743 9.455 10.519 22.245 17.985 36.72 20.743 4.061.807 8.254.498 12.249-.511 27.557-6.356 48.287-29.637 50.925-58.268l6.163-66.792c.179-1.929-1.406-3.568-3.342-3.462z" fill="#5a7a39"/></g><g><g><path d="m86.53 198.48c-.64 0-1.25-.32-1.63-.84-.31-.43-.43-.96-.34-1.49.08-.53.37-.99.8-1.3.87-.62 2.17-.4 2.79.46.65.9.44 2.15-.45 2.79-.35.25-.75.38-1.17.38zm-4.22-6.79c-.74 0-1.42-.41-1.76-1.06-3.89-7.3-6.24-15.15-6.99-23.35l-5.05-54.69c-.1-1.1.71-2.07 1.81-2.17s2.07.71 2.18 1.81l5.04 54.69c.7 7.66 2.9 15 6.53 21.83.52.97.15 2.18-.82 2.7-.29.16-.61.24-.94.24z" fill="#91b56b"/></g></g><g><g><g><path d="m127.84 150.507c-.002-.012-.005-.025-.007-.037.002.019.004.037.006.056 0-.007.001-.013.001-.019z" fill="#27c1e6"/></g></g></g><g><g><g><path d="m127.842 150.518c-.003-.016-.006-.032-.01-.049.003.019.006.037.009.056.001-.002.001-.005.001-.007z" fill="#009add"/></g></g></g><g><g><g><path d="m129.356 150.516c-.003-.016-.007-.031-.01-.047.003.019.006.037.008.056.001-.003.001-.006.002-.009z" fill="#009add"/></g></g></g></g></svg>