<svg id="Layer_1" enable-background="new 0 0 256 256" height="512" viewBox="0 0 256 256" width="512" xmlns="http://www.w3.org/2000/svg"><g><g><g><g><g><path d="m95.453 57.068c-2.783-.249-5.582-.747-8.366-1.561-14.773-4.319-25.501-15.792-29.525-29.543-1.161-3.969-6.612-4.424-8.425-.707-1.067 2.187-1.964 4.494-2.67 6.909-6.7 22.92 6.347 46.919 29.163 53.802z" fill="#808285"/></g></g><g><g><g><path d="m66.468 74.734c13.076 7.317 17.744 23.849 10.426 36.925-7.317 13.076-23.849 17.744-36.925 10.426-10.161-5.686-18.27-28.999-21.381-39.11-.799-2.598.731-5.332 3.363-6.009 10.245-2.637 34.356-7.919 44.517-2.232z" fill="#f1f2f2"/></g></g><g><g><path d="m59.03 83.052c7.827 4.38 10.621 14.275 6.241 22.102s-14.275 10.621-22.102 6.241c-6.082-3.404-10.936-17.358-12.798-23.41-.478-1.555.437-3.191 2.013-3.597 6.131-1.579 20.564-4.74 26.646-1.336z" fill="#808285"/></g></g><g><g><path d="m59.812 83.519c3.088 4.875 3.474 11.245.458 16.635-4.328 7.735-14.043 10.554-21.825 6.392 1.456 2.162 3.042 3.908 4.723 4.849 7.827 4.38 17.722 1.586 22.102-6.241 4.231-7.56 1.768-17.05-5.458-21.635z" fill="#58595b"/></g></g></g></g><g><g><g><path d="m160.547 57.068c2.783-.249 5.582-.747 8.366-1.561 14.773-4.319 25.501-15.792 29.525-29.543 1.161-3.969 6.612-4.424 8.425-.707 1.067 2.187 1.964 4.494 2.67 6.909 6.7 22.92-6.347 46.919-29.163 53.802z" fill="#808285"/></g></g><g><g><path d="m209.533 32.166c-.706-2.415-1.603-4.721-2.67-6.909-.809-1.658-2.341-2.485-3.894-2.541.594 1.438 1.117 2.922 1.564 4.45 6.573 22.485-5.859 46.007-27.875 53.391l3.712 5.411c22.816-6.884 35.863-30.883 29.163-53.802z" fill="#58595b"/></g></g><g><g><g><path d="m189.532 74.734c-13.076 7.317-17.744 23.849-10.426 36.925 7.317 13.076 23.849 17.744 36.925 10.426 10.161-5.686 18.27-28.999 21.381-39.11.799-2.598-.731-5.332-3.363-6.009-10.245-2.637-34.356-7.919-44.517-2.232z" fill="#f1f2f2"/></g></g><g><g><path d="m196.97 83.052c-7.827 4.38-10.621 14.275-6.241 22.102s14.275 10.621 22.102 6.241c6.082-3.404 10.936-17.358 12.798-23.41.478-1.555-.437-3.191-2.013-3.597-6.131-1.579-20.564-4.74-26.646-1.336z" fill="#808285"/></g></g><g><g><path d="m223.617 84.388c-.9-.232-1.979-.497-3.183-.771-1.991 6.34-6.722 19.488-12.601 22.778-5.389 3.016-11.76 2.63-16.635-.458 4.585 7.226 14.075 9.688 21.635 5.458 6.082-3.404 10.936-17.358 12.798-23.41.477-1.555-.439-3.192-2.014-3.597z" fill="#58595b"/></g></g></g></g></g><g><g><path d="m128 233.288c-37.93 0-68.679-30.749-68.679-68.679v-52.075c0-37.93 30.749-68.679 68.679-68.679 37.93 0 68.679 30.749 68.679 68.679v52.075c0 37.93-30.749 68.679-68.679 68.679z" fill="#f1f2f2"/></g></g><g><g><g><path d="m81.41 72.65c-.5 0-.97-.18-1.34-.51-.82-.74-.88-2.01-.15-2.83.71-.79 2.04-.86 2.83-.15.82.74.88 2.01.15 2.83-.38.42-.92.66-1.49.66zm91.05-2.26c-.54 0-1.05-.21-1.42-.59-11.5-11.57-26.78-17.95-43.04-17.95-14.51 0-28.56 5.23-39.57 14.72-.81.69-2.13.59-2.82-.21-.35-.4-.52-.92-.48-1.45.04-.54.28-1.02.69-1.37 5.74-4.95 12.24-8.83 19.3-11.51 7.31-2.77 15.01-4.18 22.88-4.18 8.76 0 17.25 1.73 25.26 5.14 7.73 3.3 14.67 8 20.62 13.99.37.38.58.88.58 1.42 0 .53-.21 1.03-.59 1.41-.38.37-.88.58-1.41.58z" fill="#fff"/></g></g></g><g><g><path d="m171.3 59.234c9.611 11.816 15.379 26.882 15.379 43.3v52.075c0 37.93-30.749 68.679-68.679 68.679-16.418 0-31.484-5.769-43.3-15.379 12.593 15.482 31.787 25.379 53.3 25.379 37.93 0 68.679-30.749 68.679-68.679v-52.075c0-21.513-9.897-40.707-25.379-53.3z" fill="#e6e7e8"/></g></g><g><g><path d="m173.995 61.538c10.989 12.176 17.684 28.303 17.684 45.996v52.075c0 37.93-30.749 68.679-68.679 68.679-17.693 0-33.82-6.694-45.996-17.683 12.569 13.927 30.758 22.683 50.996 22.683 37.93 0 68.679-30.749 68.679-68.679v-52.075c0-20.238-8.757-38.427-22.684-50.996z" fill="#d1d3d4"/></g></g><g><g><g><path d="m64.126 87.303c-.007-.001-.013-.003-.02-.004-3.088 7.812-4.785 16.325-4.785 25.235v52.075c0 8.681 1.611 16.986 4.549 24.632.006-.002.011-.004.017-.005 24.133-4.439 42.423-25.571 42.423-50.988 0-25.334-18.169-46.411-42.184-50.945z" fill="#808285"/></g></g><g><g><path d="m64.126 87.303c-.007-.001-.013-.003-.02-.004-.222.563-.437 1.129-.645 1.699 19.235 7.581 32.85 26.321 32.85 48.25 0 22.234-13.996 41.188-33.655 48.558.376 1.159.781 2.304 1.215 3.435.006-.002.011-.004.017-.005 24.133-4.439 42.423-25.571 42.423-50.988-.001-25.334-18.17-46.411-42.185-50.945z" fill="#58595b"/></g></g><g><g><path d="m149.69 138.247c0 25.417 18.29 46.548 42.423 50.988.005.003.01.006.016.009 2.939-7.647 4.551-15.953 4.551-24.635v-52.075c0-8.911-1.697-17.425-4.786-25.238-.006.002-.013.005-.019.007-24.016 4.534-42.185 25.611-42.185 50.944z" fill="#808285"/></g></g><g><g><path d="m191.893 87.296c-.006.002-.013.005-.019.007-2.231.421-4.411.985-6.531 1.682.876 4.38 1.336 8.911 1.336 13.549v52.075c0 8.682-1.611 16.988-4.551 24.635-.005-.003-.011-.006-.016-.009-8.119-1.494-15.577-4.877-21.899-9.676 7.662 10.092 18.938 17.292 31.899 19.676.005.003.01.006.016.009 2.939-7.647 4.551-15.953 4.551-24.635v-52.075c0-8.911-1.697-17.426-4.786-25.238z" fill="#58595b"/></g></g></g><g><g><g><g><circle cx="84.507" cy="123.278" fill="#f1f2f2" r="8.711"/></g></g></g><g><g><path d="m87.638 115.147c.374.972.58 2.027.58 3.131 0 4.811-3.9 8.711-8.711 8.711-1.104 0-2.159-.206-3.131-.58 1.258 3.264 4.423 5.58 8.131 5.58 4.811 0 8.711-3.9 8.711-8.711 0-3.707-2.316-6.873-5.58-8.131z" fill="#d1d3d4"/></g></g><g><g><g><circle cx="171.493" cy="123.278" fill="#f1f2f2" r="8.711"/></g></g></g><g><g><path d="m174.624 115.147c.374.972.58 2.027.58 3.131 0 4.811-3.9 8.711-8.711 8.711-1.104 0-2.159-.206-3.131-.58 1.258 3.264 4.424 5.58 8.131 5.58 4.811 0 8.711-3.9 8.711-8.711 0-3.707-2.316-6.873-5.58-8.131z" fill="#d1d3d4"/></g></g></g><g><g><path d="m155.247 186.727c4.73 0 8.254 4.464 7.052 9.039-3.997 15.207-17.838 26.423-34.299 26.423-16.461 0-30.303-11.216-34.299-26.423-1.202-4.575 2.322-9.039 7.052-9.039z" fill="#939598"/></g></g><g><g><path d="m157.265 187.009c.336 1.178.375 2.462.035 3.756-3.997 15.207-17.838 26.423-34.299 26.423-8.52 0-16.337-3.005-22.452-8.012 6.503 7.943 16.385 13.012 27.452 13.012 16.461 0 30.303-11.216 34.299-26.423 1.023-3.895-1.38-7.708-5.035-8.756z" fill="#808285"/></g></g><g><g><g><circle cx="110.053" cy="199.912" fill="#58595b" r="6.019"/></g></g><g><g><path d="m113.191 194.775c.559.914.881 1.988.881 3.137 0 3.324-2.695 6.019-6.019 6.019-1.149 0-2.224-.322-3.137-.881 1.058 1.728 2.963 2.881 5.137 2.881 3.324 0 6.019-2.695 6.019-6.019 0-2.175-1.153-4.08-2.881-5.137z" fill="#414042"/></g></g><g><g><circle cx="145.947" cy="199.912" fill="#58595b" r="6.019"/></g></g><g><g><path d="m149.084 194.775c.559.914.881 1.988.881 3.137 0 3.324-2.695 6.019-6.019 6.019-1.149 0-2.224-.322-3.137-.881 1.058 1.728 2.963 2.881 5.137 2.881 3.324 0 6.019-2.695 6.019-6.019 0-2.175-1.153-4.08-2.881-5.137z" fill="#414042"/></g></g></g></g></svg>