<svg id="Layer_1" enable-background="new 0 0 256 256" height="512" viewBox="0 0 256 256" width="512" xmlns="http://www.w3.org/2000/svg"><g><g><g><path d="m217.977 141.564c0 49.693-40.284 89.977-89.977 89.977s-89.977-40.284-89.977-89.977-20.137-106.58 89.977-106.58 89.977 56.887 89.977 106.58z" fill="#fcc4ae"/></g></g><g><g><path d="m199.36 50.891c15.274 21.148 8.617 52.1 8.617 80.673 0 49.693-40.284 89.977-89.977 89.977-22.301 0-42.707-8.114-58.428-21.549 16.503 19.309 41.036 31.549 68.428 31.549 49.693 0 89.977-40.284 89.977-89.977 0-33.499 9.151-70.266-18.617-90.673z" fill="#f2ad97"/></g></g><g><g><path d="m202.206 53.147c18.03 21.153 10.771 53.582 10.771 83.417 0 49.693-40.284 89.977-89.977 89.977-23.574 0-45.031-9.067-61.074-23.903 16.437 17.774 39.956 28.903 66.074 28.903 49.693 0 89.977-40.284 89.977-89.977 0-32.298 8.506-67.635-15.771-88.417z" fill="#e59076"/></g></g><g><g><g><path d="m83.12 24.459c-35.113 0-63.577 28.464-63.577 63.577v63.891c0 11.046 8.954 20 20 20h18.383c5.523 0 10-4.477 10-10v-73.891c0-20.785 9.974-39.24 25.397-50.841v-2.533c0-5.635-4.568-10.203-10.203-10.203z" fill="#8c3f0a"/></g></g><g><g><path d="m25.54 153.93c-1.101 0-2-.899-2-2 0-1.1.899-2 2-2 1.1 0 2 .9 2 2s-.9 2-2 2zm0-8c-1.101 0-2-.899-2-2v-55.89c0-9.48 2.17-18.54 6.45-26.95 4.079-8.01 10.029-15.12 17.22-20.56.85-.65 2.149-.471 2.8.38.32.43.46.949.39 1.479-.08.53-.35 1-.779 1.32-14.03 10.64-22.08 26.8-22.08 44.33v55.89c-.001 1.101-.901 2.001-2.001 2.001z" fill="#995222"/></g></g><g><g><path d="m83.12 24.459c-3.332 0-6.604.257-9.797.75v1.986c-15.423 11.601-25.398 30.056-25.398 50.841v73.892c0 5.523-4.477 10-10 10h-15.707c3.458 5.978 9.921 10 17.324 10h18.383c5.523 0 10-4.477 10-10v-73.892c0-20.785 9.974-39.24 25.397-50.841v-2.533c.001-5.635-4.567-10.203-10.202-10.203z" fill="#7c3108"/></g></g><g><g><path d="m172.88 24.459c35.113 0 63.577 28.464 63.577 63.577v63.891c0 11.046-8.954 20-20 20h-18.383c-5.523 0-10-4.477-10-10v-73.891c0-20.785-9.974-39.24-25.397-50.841v-2.533c0-5.635 4.568-10.203 10.203-10.203z" fill="#8c3f0a"/></g></g><g><g><path d="m190.842 27.032c15.547 11.59 25.615 30.121 25.615 51.004v63.892c0 11.045-8.954 20-20 20h-8.383c0 5.523 4.477 10 10 10h18.383c11.046 0 20-8.955 20-20v-63.892c.001-28.875-19.249-53.253-45.615-61.004z" fill="#7c3108"/></g></g></g><g><g><circle cx="128" cy="187.715" fill="#8c3f0a" r="25.193"/></g></g><g><g><path d="m143.139 167.576c3.173 4.215 5.054 9.457 5.054 15.139 0 13.914-11.279 25.193-25.193 25.193-5.682 0-10.924-1.881-15.139-5.054 4.597 6.106 11.907 10.054 20.139 10.054 13.914 0 25.193-11.279 25.193-25.193 0-8.232-3.948-15.541-10.054-20.139z" fill="#7c3108"/></g></g><g><g><path d="m151.707 152.364h-47.415c-14.705 0-26.626 11.921-26.626 26.626s11.921 26.626 26.626 26.626c10.335 0 19.295-5.888 23.707-14.493 4.413 8.604 13.372 14.493 23.707 14.493 14.705 0 26.626-11.921 26.626-26.626s-11.92-26.626-26.625-26.626z" fill="#f2ad97"/></g></g><g><g><g><path d="m164.862 155.836c2.209 3.88 3.472 8.37 3.472 13.154 0 14.705-11.921 26.626-26.626 26.626-4.785 0-9.274-1.262-13.155-3.472 4.581 8.046 13.234 13.472 23.155 13.472 14.705 0 26.626-11.921 26.626-26.626-.001-9.92-5.427-18.573-13.472-23.154z" fill="#e59076"/></g></g></g><g><g><path d="m147.57 154.499c0 10.808-8.762 19.57-19.57 19.57s-19.57-8.762-19.57-19.57 8.762-6.754 19.57-6.754 19.57-4.055 19.57 6.754z" fill="#8c3f0a"/></g></g><g><g><path d="m142.398 147.135c.114.695.173 1.479.173 2.364 0 10.808-8.762 19.571-19.571 19.571-4.127 0-7.956-1.278-11.112-3.459 3.531 5.11 9.43 8.459 16.112 8.459 10.808 0 19.571-8.762 19.571-19.571 0-5.114-1.962-6.9-5.173-7.364z" fill="#7c3108"/></g></g><g><g><g><circle cx="90.237" cy="106.654" fill="#8c3f0a" r="12.35"/></g></g><g><g><path d="m96.106 95.785c.945 1.746 1.481 3.745 1.481 5.869 0 6.821-5.529 12.35-12.35 12.35-2.124 0-4.123-.536-5.869-1.481 2.089 3.859 6.173 6.481 10.869 6.481 6.821 0 12.35-5.529 12.35-12.35 0-4.697-2.621-8.781-6.481-10.869z" fill="#7c3108"/></g></g><g><g><circle cx="165.763" cy="106.654" fill="#8c3f0a" r="12.35"/></g></g><g><g><path d="m171.632 95.784c.945 1.746 1.481 3.745 1.481 5.869 0 6.821-5.529 12.35-12.35 12.35-2.124 0-4.123-.536-5.869-1.481 2.089 3.86 6.173 6.481 10.869 6.481 6.821 0 12.35-5.529 12.35-12.35.001-4.696-2.621-8.78-6.481-10.869z" fill="#7c3108"/></g></g></g></g></svg>