<svg id="Layer_1" enable-background="new 0 0 256 256" height="512" viewBox="0 0 256 256" width="512" xmlns="http://www.w3.org/2000/svg"><g><g><g><path d="m193.839 65.301c-6.052-30.838-33.228-54.102-65.839-54.102s-59.787 23.264-65.839 54.102c-16.394 16.667-26.509 39.53-26.509 64.756 0 51.002 41.345 92.347 92.347 92.347s92.347-41.345 92.347-92.347c.001-25.226-10.113-48.089-26.507-64.756z" fill="#f1f2f2"/></g></g><g><g><g><path d="m41.65 132.06c-1.1 0-2-.9-2-2 0-1.11.9-2 2-2s2 .89 2 2c0 1.1-.9 2-2 2zm.37-7.99c-.06 0-.12-.01-.19-.01-.53-.05-1.01-.3-1.35-.71s-.5-.93-.46-1.47c.92-10.09 3.54-19.84 7.78-28.98 4.26-9.17 10.05-17.51 17.21-24.79l.84-.86.24-1.18c5.78-29.47 31.82-50.87 61.91-50.87 1.12 0 2.24.03 3.31.09 2.73.14 5.49.46 8.2.97 1.08.2 1.8 1.24 1.6 2.33-.2 1.07-1.25 1.8-2.33 1.6-2.52-.47-5.11-.78-7.68-.91-1.04-.05-2.08-.08-3.1-.08-28.19 0-52.57 20.04-57.99 47.64l-.35 1.77c-.07.38-.26.74-.53 1.02l-1.26 1.28c-13.83 14.05-22.08 31.81-23.86 51.34-.1 1.04-.95 1.82-1.99 1.82z" fill="#fff"/></g></g></g><g><g><path d="m193.839 65.301c-3.086-15.725-11.665-29.481-23.657-39.187 6.733 8.319 11.517 18.279 13.657 29.187 16.394 16.667 26.509 39.53 26.509 64.756 0 51.002-41.345 92.347-92.347 92.347-22.956 0-43.955-8.376-60.109-22.239 16.937 19.736 42.062 32.239 70.109 32.239 51.002 0 92.347-41.345 92.347-92.347-.001-25.226-10.115-48.089-26.509-64.756z" fill="#e6e7e8"/></g></g><g><g><path d="m193.839 65.301c-2.849-14.52-10.382-27.36-20.96-36.885 7.946 8.825 13.583 19.771 15.96 31.885 16.394 16.667 26.509 39.53 26.509 64.756 0 51.002-41.345 92.347-92.347 92.347-24.229 0-46.279-9.332-62.752-24.596 16.867 18.203 40.979 29.596 67.752 29.596 51.002 0 92.347-41.345 92.347-92.347-.001-25.226-10.115-48.089-26.509-64.756z" fill="#d1d3d4"/></g></g><g><g><g><g><circle cx="90.019" cy="86.352" fill="#8c3f0a" r="10.965"/></g></g></g><g><g><path d="m94.859 76.512c.719 1.46 1.124 3.103 1.124 4.84 0 6.056-4.909 10.965-10.965 10.965-1.738 0-3.38-.405-4.84-1.125 1.788 3.628 5.522 6.125 9.84 6.125 6.056 0 10.965-4.909 10.965-10.965 0-4.318-2.496-8.052-6.124-9.84z" fill="#7c3108"/></g></g><g><g><g><circle cx="165.981" cy="86.352" fill="#8c3f0a" r="10.965"/></g></g></g><g><g><path d="m170.822 76.511c.719 1.46 1.124 3.103 1.124 4.841 0 6.056-4.909 10.965-10.965 10.965-1.738 0-3.381-.405-4.84-1.125 1.788 3.628 5.522 6.125 9.84 6.125 6.056 0 10.965-4.909 10.965-10.965 0-4.318-2.496-8.052-6.124-9.841z" fill="#7c3108"/></g></g></g><g><g><g><path d="m159.297 121.846 32.858 65.716c2.514 5.028 1.076 11.135-3.418 14.512l-53.743 40.392c-4.143 3.114-9.845 3.114-13.988 0l-53.743-40.392c-4.494-3.377-5.932-9.484-3.418-14.512l32.858-65.716c12.895-25.79 49.699-25.79 62.594 0z" fill="#ffa91a"/></g></g><g><g><path d="m192.155 187.562-32.858-65.716c-2.971-5.942-7.212-10.516-12.137-13.72.769 1.174 1.484 2.414 2.137 3.72l32.858 65.716c2.514 5.028 1.076 11.135-3.418 14.512l-53.743 40.392c-4.143 3.114-9.845 3.114-13.988 0l-47.749-35.886c.737 2.13 2.095 4.059 4.005 5.494l53.743 40.392c4.143 3.114 9.845 3.114 13.988 0l53.743-40.392c4.495-3.377 5.933-9.484 3.419-14.512z" fill="#f79219"/></g></g><g><g><path d="m134.994 242.466 53.743-40.392c4.494-3.377 5.932-9.484 3.418-14.512l-32.858-65.716c-6.448-12.895-18.873-19.343-31.297-19.343v142.298c2.461 0 4.923-.778 6.994-2.335z" fill="#f79219"/></g></g><g><g><path d="m192.155 187.562-32.858-65.716c-2.971-5.943-7.212-10.516-12.137-13.72.769 1.174 1.484 2.414 2.137 3.72l32.858 65.716c2.514 5.028 1.076 11.135-3.418 14.512l-50.737 38.133v14.594c2.461 0 4.923-.779 6.994-2.335l53.743-40.392c4.494-3.377 5.932-9.484 3.418-14.512z" fill="#ef7816"/></g></g><g><g><g><path d="m110.276 145.805c-2.741 0-4.963-2.222-4.963-4.963v-12.194c0-2.741 2.222-4.963 4.963-4.963 2.741 0 4.963 2.222 4.963 4.963v12.194c0 2.741-2.222 4.963-4.963 4.963z" fill="#ef7816"/></g></g><g><g><path d="m145.724 145.805c-2.741 0-4.963-2.222-4.963-4.963v-12.194c0-2.741 2.222-4.963 4.963-4.963 2.741 0 4.963 2.222 4.963 4.963v12.194c0 2.741-2.222 4.963-4.963 4.963z" fill="#ef7816"/></g></g></g></g></g></svg>