<svg id="Layer_1" enable-background="new 0 0 256 256" height="512" viewBox="0 0 256 256" width="512" xmlns="http://www.w3.org/2000/svg"><g><g><g><g><path d="m181.014 79.035c-4.784 3.661-7.848 9.079-8.728 15.038-4.352 29.467-19.737 57.335-45.259 76.868-2.546 1.949-5.146 3.778-7.793 5.49-17.418 11.262-21.846 34.774-9.24 51.245l.156.204c9.86 12.883 27.231 17.349 42.108 10.878 8.106-3.526 15.926-8.018 23.295-13.499 43.375-32.258 58.304-88.265 40.572-136.293-5.269-14.273-23.028-19.179-35.111-9.931z" fill="#a54af4"/></g></g><g><g><path d="m216.126 88.967c-2.08-5.634-6.106-9.807-10.96-12.228.354.715.675 1.458.96 2.228 17.732 48.028 2.803 104.035-40.572 136.293-7.369 5.481-15.189 9.973-23.295 13.499-11.2 4.872-23.814 3.544-33.572-2.907.414.617.849 1.226 1.308 1.825l.156.204c9.86 12.883 27.231 17.349 42.108 10.878 8.106-3.526 15.926-8.018 23.295-13.499 43.375-32.258 58.305-88.265 40.572-136.293z" fill="#893add"/></g></g><g><g><path d="m216.126 88.967c-1.614-4.37-4.398-7.862-7.832-10.339 1.148 1.595 2.108 3.378 2.832 5.339 17.732 48.028 2.803 104.035-40.572 136.293-7.369 5.481-15.189 9.973-23.295 13.499-12.32 5.359-26.35 3.217-36.408-4.994 9.967 12.2 26.877 16.314 41.408 9.994 8.106-3.526 15.926-8.018 23.295-13.499 43.375-32.258 58.305-88.265 40.572-136.293z" fill="#6c2bc1"/></g></g><g><g><g><path d="m199.105 71.271h-8.509l-2.363-13.363c-.728-4.116 2.438-7.891 6.618-7.891 4.18 0 7.346 3.775 6.618 7.891z" fill="#8c3f0a"/></g></g><g><g><path d="m196.394 50.195c.203.86.24 1.778.074 2.714l-2.363 13.363h-4.393l.884 5h8.509l2.363-13.363c.636-3.592-1.693-6.923-5.074-7.714z" fill="#7c3108"/></g></g><g><g><path d="m221.635 76.512c-7.813-7.813-20.373-8.745-26.785-8.656-6.412-.089-18.973.844-26.785 8.656-8.178 8.178-8.818 21.558-8.638 27.643.055 1.852 1.545 3.342 3.397 3.397 3.897.115 10.785-.106 17.383-2.427 2.599 8.25 8.801 14.954 12.241 18.197 1.348 1.271 3.456 1.271 4.804 0 3.44-3.243 9.642-9.947 12.241-18.197 6.598 2.322 13.486 2.542 17.383 2.427 1.852-.055 3.342-1.545 3.397-3.397.18-6.085-.46-19.465-8.638-27.643z" fill="#76a34f"/></g></g><g><g><g><path d="m221.635 76.512c-1.728-1.728-3.688-3.119-5.762-4.237 4.174 7.744 4.542 17.081 4.4 21.88-.055 1.852-1.545 3.342-3.397 3.397-3.897.115-10.785-.106-17.383-2.427-2.599 8.25-8.801 14.954-12.241 18.197-.707.667-1.623.983-2.529.95 2.66 3.971 5.68 7.122 7.726 9.05 1.348 1.271 3.456 1.271 4.804 0 3.44-3.243 9.642-9.947 12.241-18.197 6.598 2.322 13.486 2.542 17.383 2.427 1.852-.055 3.342-1.545 3.397-3.397.179-6.085-.461-19.465-8.639-27.643z" fill="#648940"/></g></g></g></g></g><g><g><g><path d="m74.986 176.965c4.784-3.661 7.848-9.079 8.728-15.038 4.352-29.467 19.737-57.335 45.259-76.868 2.546-1.949 5.146-3.778 7.793-5.49 17.418-11.262 21.846-34.774 9.24-51.245l-.156-.204c-9.86-12.883-27.231-17.349-42.108-10.878-8.106 3.526-15.926 8.018-23.295 13.499-43.375 32.258-58.304 88.265-40.572 136.293 5.269 14.273 23.028 19.179 35.111 9.931z" fill="#a54af4"/></g></g><g><g><path d="m43.01 96.64c-.19 0-.37-.03-.55-.08-.521-.15-.94-.49-1.2-.96-.26-.46-.32-1.01-.17-1.52v-.01c.3-1.03 1.44-1.66 2.47-1.35 1.061.3 1.681 1.41 1.37 2.47-.241.85-1.031 1.45-1.92 1.45zm2.48-7.61c-.23 0-.46-.04-.681-.12-.51-.18-.91-.55-1.13-1.04-.229-.48-.25-1.02-.06-1.52 3.81-10.42 9.09-20.18 15.68-29 6.61-8.83 14.53-16.7 23.53-23.4 6.989-5.2 14.56-9.58 22.51-13.04.99-.43 2.2.06 2.63 1.04.44 1.01-.03 2.19-1.04 2.63-7.66 3.33-14.97 7.56-21.71 12.58-17.38 12.93-30.47 30.4-37.84 50.55 0 0 0 .01-.01.01-.289.79-1.039 1.31-1.879 1.31z" fill="#b171f4"/></g></g><g><g><path d="m146.005 28.323-.156-.204c-2.437-3.184-5.333-5.853-8.536-7.971 10.958 16.341 6.237 38.568-10.547 49.42-2.647 1.711-5.247 3.541-7.792 5.49-25.522 19.533-40.906 47.401-45.259 76.868-.88 5.959-3.944 11.377-8.728 15.038-7.314 5.598-16.708 6.01-24.153 2.297 6.211 12.534 22.722 16.452 34.153 7.703 4.784-3.661 7.848-9.079 8.728-15.038 4.352-29.467 19.737-57.335 45.259-76.868 2.546-1.949 5.146-3.778 7.792-5.49 17.417-11.261 21.845-34.774 9.239-51.245z" fill="#893add"/></g></g><g><g><g><path d="m56.895 184.729h8.509l2.363 13.363c.728 4.116-2.438 7.891-6.618 7.891-4.18 0-7.346-3.775-6.618-7.891z" fill="#8c3f0a"/></g></g><g><g><path d="m67.768 198.092-2.363-13.363h-4.116l1.479 8.363c.728 4.116-2.438 7.891-6.618 7.891-.533 0-1.05-.062-1.544-.178.69 2.924 3.314 5.178 6.544 5.178 4.18 0 7.346-3.775 6.618-7.891z" fill="#7c3108"/></g></g><g><g><path d="m96.573 151.845c-.055-1.852-1.545-3.342-3.397-3.397-3.897-.115-10.785.106-17.383 2.427-2.599-8.25-8.801-14.954-12.241-18.197-1.348-1.271-3.456-1.271-4.804 0-3.44 3.243-9.642 9.947-12.241 18.197-6.598-2.321-13.486-2.542-17.383-2.427-1.852.055-3.342 1.545-3.397 3.397-.18 6.085.46 19.465 8.638 27.643 7.813 7.813 20.373 8.745 26.785 8.656 6.412.089 18.973-.844 26.785-8.656 8.178-8.178 8.817-21.558 8.638-27.643z" fill="#76a34f"/></g></g><g><g><g><path d="m96.573 151.845c-.055-1.852-1.545-3.342-3.397-3.397-1.762-.052-4.135-.035-6.816.213-.609 6.58-2.615 15.016-8.425 20.827-7.813 7.813-20.373 8.745-26.785 8.656-4.994.069-13.717-.481-21.023-4.419 1.118 2.075 2.51 4.035 4.238 5.763 7.813 7.813 20.373 8.745 26.785 8.656 6.412.089 18.973-.844 26.785-8.656 8.178-8.178 8.817-21.558 8.638-27.643z" fill="#648940"/></g></g></g></g></g></g></svg>