<svg id="Layer_1" enable-background="new 0 0 256 256" height="512" viewBox="0 0 256 256" width="512" xmlns="http://www.w3.org/2000/svg"><g><g><g><g><g><path d="m128 218.105c-1.657 0-3-1.343-3-3v-139.778c0-1.657 1.343-3 3-3s3 1.343 3 3v139.778c0 1.657-1.343 3-3 3z" fill="#f2ad97"/></g></g></g></g><g><g><g><g><g><path d="m202.556 218.105c-1.657 0-3-1.343-3-3v-103.007c0-1.657 1.343-3 3-3s3 1.343 3 3v103.007c0 1.657-1.343 3-3 3z" fill="#f2ad97"/></g></g></g></g><g><g><g><g><path d="m53.444 218.105c-1.657 0-3-1.343-3-3v-103.007c0-1.657 1.343-3 3-3s3 1.343 3 3v103.007c0 1.657-1.343 3-3 3z" fill="#f2ad97"/></g></g></g></g></g><g><g><path d="m227.11 227.507h-198.22c-4.675 0-8.465-3.79-8.465-8.465 0-4.675 3.79-8.465 8.465-8.465h198.22c4.675 0 8.465 3.79 8.465 8.465.001 4.675-3.79 8.465-8.465 8.465z" fill="#76a34f"/></g></g><g><g><path d="m227.11 210.577h-1.674c-.722 3.942-4.175 6.93-8.326 6.93h-196.546c-.091.498-.139 1.011-.139 1.535 0 4.675 3.79 8.465 8.465 8.465h198.22c4.675 0 8.465-3.79 8.465-8.465.001-4.675-3.789-8.465-8.465-8.465z" fill="#648940"/></g></g><g><g><path d="m230.051 211.102c.339.916.525 1.906.525 2.94 0 4.675-3.79 8.465-8.465 8.465h-198.221c-1.034 0-2.024-.186-2.94-.525 1.195 3.226 4.299 5.525 7.94 5.525h198.22c4.675 0 8.465-3.79 8.465-8.465.001-3.641-2.299-6.746-5.524-7.94z" fill="#5a7a39"/></g></g><g><g><g><path d="m126.683 92.865c.753.666 1.881.666 2.634 0 4.01-3.545 15.8-15.137 15.8-28.889s-11.789-25.344-15.8-28.889c-.753-.666-1.881-.666-2.634 0-4.01 3.545-15.8 15.137-15.8 28.889s11.79 25.344 15.8 28.889z" fill="#76a34f"/></g></g><g><g><path d="m121.68 80.06c-.68 0-1.3-.34-1.67-.91-.61-.93-.34-2.17.58-2.77.9-.58 2.19-.31 2.77.59v.01c.29.44.39.97.28 1.49s-.42.97-.87 1.26c-.32.22-.7.33-1.09.33zm-3.56-7.14c-.86 0-1.62-.54-1.89-1.35-.9-2.58-1.35-5.14-1.35-7.59.06-7.5 3.99-15.33 11.69-23.27.75-.76 2.07-.77 2.83-.03.79.78.801 2.05.03 2.83-2.5 2.51-10.62 11.39-10.55 20.46 0 2.02.38 4.13 1.13 6.3.35 1.04-.2 2.18-1.24 2.54-.21.07-.43.11-.65.11z" fill="#91b56b"/></g></g><g><g><path d="m129.318 35.087c4.877 5.481 10.799 14.142 10.799 23.888 0 13.753-11.789 25.344-15.8 28.889-.753.666-1.881.666-2.634 0 0 0-.001 0-.001-.001 2.005 2.253 3.833 3.968 5.001 5.001.753.666 1.881.666 2.634 0 4.01-3.545 15.8-15.137 15.8-28.889 0-13.751-11.788-25.342-15.799-28.888z" fill="#648940"/></g></g><g><g><g><path d="m159.061 89.133c1.032.052 1.852.871 1.903 1.903.227 4.518.083 16.634-7.145 23.862-7.227 7.227-19.344 7.371-23.862 7.145-1.032-.052-1.852-.871-1.904-1.903-.227-4.518-.083-16.634 7.145-23.862 7.229-7.228 19.346-7.372 23.863-7.145z" fill="#76a34f"/></g></g><g><g><path d="m160.965 91.037c-.052-1.032-.871-1.852-1.904-1.904-.801-.04-1.84-.069-3.048-.048-.095 5.61-1.246 14.867-7.193 20.813s-15.203 7.098-20.813 7.193c-.02 1.208.008 2.248.048 3.048.052 1.032.871 1.852 1.904 1.904 4.518.227 16.634.083 23.862-7.145s7.371-19.344 7.144-23.861z" fill="#648940"/></g></g><g><g><path d="m96.939 89.133c-1.032.052-1.852.871-1.903 1.903-.227 4.518-.083 16.634 7.145 23.862 7.227 7.227 19.344 7.371 23.862 7.145 1.032-.052 1.852-.871 1.903-1.903.227-4.518.083-16.634-7.145-23.862s-19.344-7.372-23.862-7.145z" fill="#76a34f"/></g></g><g><g><path d="m120.8 96.278c-.85-.85-1.768-1.602-2.733-2.267 4.989 7.24 5.078 17.142 4.878 21.129-.052 1.032-.871 1.852-1.904 1.904-3.986.2-13.889.111-21.129-4.878.665.965 1.417 1.883 2.267 2.733 7.227 7.227 19.344 7.371 23.862 7.145 1.032-.052 1.852-.871 1.904-1.904.227-4.519.083-16.635-7.145-23.862z" fill="#648940"/></g></g></g><g><g><g><path d="m159.061 129.447c1.032.052 1.852.871 1.903 1.904.227 4.518.083 16.634-7.145 23.862s-19.344 7.371-23.862 7.145c-1.032-.052-1.852-.871-1.904-1.903-.227-4.518-.083-16.634 7.145-23.862 7.229-7.229 19.346-7.373 23.863-7.146z" fill="#76a34f"/></g></g><g><g><path d="m160.965 131.35c-.052-1.032-.871-1.852-1.904-1.903-.801-.04-1.84-.069-3.048-.048-.095 5.61-1.246 14.867-7.193 20.813-5.947 5.947-15.203 7.098-20.813 7.193-.02 1.208.008 2.248.048 3.048.052 1.032.871 1.852 1.904 1.904 4.518.227 16.634.083 23.862-7.145 7.227-7.228 7.371-19.344 7.144-23.862z" fill="#648940"/></g></g><g><g><path d="m96.939 129.447c-1.032.052-1.852.871-1.903 1.904-.227 4.518-.083 16.634 7.145 23.862 7.227 7.227 19.344 7.371 23.862 7.145 1.032-.052 1.852-.871 1.903-1.903.227-4.518.083-16.634-7.145-23.862-7.228-7.229-19.344-7.373-23.862-7.146z" fill="#76a34f"/></g></g><g><g><path d="m120.8 136.591c-.85-.85-1.768-1.602-2.733-2.267 4.989 7.24 5.078 17.142 4.878 21.129-.052 1.032-.871 1.852-1.904 1.904-3.986.2-13.889.111-21.129-4.878.665.965 1.417 1.883 2.267 2.733 7.227 7.227 19.344 7.371 23.862 7.145 1.032-.052 1.852-.871 1.904-1.904.227-4.518.083-16.634-7.145-23.862z" fill="#648940"/></g></g></g><g><g><g><path d="m159.061 169.76c1.032.052 1.852.871 1.903 1.904.227 4.518.083 16.634-7.145 23.862s-19.344 7.371-23.862 7.145c-1.032-.052-1.852-.871-1.904-1.903-.227-4.518-.083-16.634 7.145-23.862 7.229-7.229 19.346-7.372 23.863-7.146z" fill="#76a34f"/></g></g><g><g><path d="m160.965 171.664c-.052-1.032-.871-1.852-1.904-1.903-.801-.04-1.84-.069-3.048-.048-.095 5.61-1.246 14.867-7.193 20.813-5.947 5.947-15.203 7.098-20.813 7.193-.02 1.208.008 2.248.048 3.048.052 1.032.871 1.852 1.904 1.904 4.518.227 16.634.083 23.862-7.145 7.227-7.228 7.371-19.344 7.144-23.862z" fill="#648940"/></g></g><g><g><path d="m96.939 169.76c-1.032.052-1.852.871-1.903 1.904-.227 4.518-.083 16.634 7.145 23.862 7.227 7.227 19.344 7.371 23.862 7.145 1.032-.052 1.852-.871 1.903-1.903.227-4.518.083-16.634-7.145-23.862-7.228-7.229-19.344-7.372-23.862-7.146z" fill="#76a34f"/></g></g><g><g><path d="m120.8 176.905c-.85-.85-1.768-1.602-2.733-2.267 4.989 7.24 5.078 17.142 4.878 21.129-.052 1.032-.871 1.852-1.904 1.904-3.986.2-13.889.111-21.129-4.878.665.965 1.417 1.883 2.267 2.733 7.227 7.227 19.344 7.371 23.862 7.145 1.032-.052 1.852-.871 1.904-1.904.227-4.518.083-16.635-7.145-23.862z" fill="#648940"/></g></g></g><g><g><path d="m201.239 127.907c.753.666 1.881.666 2.634 0 4.01-3.545 15.8-15.137 15.8-28.889s-11.789-25.344-15.8-28.889c-.753-.666-1.881-.666-2.634 0-4.01 3.545-15.8 15.137-15.8 28.889s11.789 25.344 15.8 28.889z" fill="#76a34f"/></g></g><g><g><path d="m203.873 70.129c4.877 5.481 10.799 14.142 10.799 23.888 0 13.753-11.789 25.344-15.8 28.889-.753.666-1.881.666-2.634 0 0 0-.001 0-.001-.001 2.005 2.253 3.833 3.968 5.001 5.001.753.666 1.881.666 2.634 0 4.01-3.545 15.8-15.137 15.8-28.889 0-13.751-11.787-25.342-15.799-28.888z" fill="#648940"/></g></g><g><g><g><path d="m233.617 129.447c1.032.052 1.852.871 1.904 1.904.227 4.518.083 16.634-7.145 23.862-7.227 7.227-19.344 7.371-23.862 7.145-1.032-.052-1.852-.871-1.903-1.903-.227-4.518-.083-16.634 7.145-23.862s19.343-7.373 23.861-7.146z" fill="#76a34f"/></g></g><g><g><path d="m235.52 131.35c-.052-1.032-.871-1.852-1.904-1.903-.801-.04-1.84-.069-3.048-.048-.095 5.61-1.246 14.867-7.193 20.813-5.947 5.947-15.203 7.098-20.813 7.193-.02 1.208.008 2.248.048 3.048.052 1.032.871 1.852 1.904 1.904 4.518.227 16.634.083 23.862-7.145 7.227-7.228 7.371-19.344 7.144-23.862z" fill="#648940"/></g></g><g><g><path d="m171.494 129.447c-1.032.052-1.852.871-1.903 1.904-.227 4.518-.083 16.634 7.145 23.862s19.344 7.371 23.862 7.145c1.032-.052 1.852-.871 1.904-1.903.227-4.518.083-16.634-7.145-23.862-7.229-7.229-19.345-7.373-23.863-7.146z" fill="#76a34f"/></g></g><g><g><path d="m195.356 136.591c-.85-.85-1.768-1.602-2.733-2.267 4.989 7.24 5.078 17.142 4.878 21.129-.052 1.032-.871 1.852-1.903 1.904-3.987.2-13.889.111-21.129-4.878.665.965 1.417 1.883 2.267 2.733 7.227 7.227 19.344 7.371 23.862 7.145 1.032-.052 1.852-.871 1.903-1.904.226-4.518.082-16.634-7.145-23.862z" fill="#648940"/></g></g></g><g><g><g><path d="m233.617 169.76c1.032.052 1.852.871 1.904 1.904.227 4.518.083 16.634-7.145 23.862-7.227 7.227-19.344 7.371-23.862 7.145-1.032-.052-1.852-.871-1.903-1.903-.227-4.518-.083-16.634 7.145-23.862 7.227-7.229 19.343-7.372 23.861-7.146z" fill="#76a34f"/></g></g><g><g><path d="m235.52 171.664c-.052-1.032-.871-1.852-1.904-1.903-.801-.04-1.84-.069-3.048-.048-.095 5.61-1.246 14.867-7.193 20.813-5.947 5.947-15.203 7.098-20.813 7.193-.02 1.208.008 2.248.048 3.048.052 1.032.871 1.852 1.904 1.904 4.518.227 16.634.083 23.862-7.145 7.227-7.228 7.371-19.344 7.144-23.862z" fill="#648940"/></g></g><g><g><path d="m171.494 169.76c-1.032.052-1.852.871-1.903 1.904-.227 4.518-.083 16.634 7.145 23.862s19.344 7.371 23.862 7.145c1.032-.052 1.852-.871 1.904-1.903.227-4.518.083-16.634-7.145-23.862-7.229-7.229-19.345-7.372-23.863-7.146z" fill="#76a34f"/></g></g><g><g><path d="m195.356 176.905c-.85-.85-1.768-1.602-2.733-2.267 4.989 7.24 5.078 17.142 4.878 21.129-.052 1.032-.871 1.852-1.903 1.904-3.987.2-13.889.111-21.129-4.878.665.965 1.417 1.883 2.267 2.733 7.227 7.227 19.344 7.371 23.862 7.145 1.032-.052 1.852-.871 1.903-1.904.226-4.518.082-16.635-7.145-23.862z" fill="#648940"/></g></g></g><g><g><path d="m52.127 127.907c.753.666 1.881.666 2.634 0 4.01-3.545 15.8-15.137 15.8-28.889s-11.789-25.344-15.8-28.889c-.753-.666-1.881-.666-2.634 0-4.01 3.545-15.8 15.137-15.8 28.889s11.79 25.344 15.8 28.889z" fill="#76a34f"/></g></g><g><g><path d="m54.762 70.129c4.877 5.481 10.799 14.142 10.799 23.888 0 13.753-11.789 25.344-15.8 28.889-.753.666-1.881.666-2.634 0 0 0-.001 0-.001-.001 2.005 2.253 3.833 3.968 5.001 5.001.753.666 1.881.666 2.634 0 4.01-3.545 15.8-15.137 15.8-28.889 0-13.751-11.788-25.342-15.799-28.888z" fill="#648940"/></g></g><g><g><g><path d="m84.506 129.447c1.032.052 1.852.871 1.903 1.904.227 4.518.083 16.634-7.145 23.862-7.227 7.227-19.344 7.371-23.862 7.145-1.032-.052-1.852-.871-1.903-1.903-.227-4.518-.083-16.634 7.145-23.862s19.344-7.373 23.862-7.146z" fill="#76a34f"/></g></g><g><g><path d="m86.409 131.35c-.052-1.032-.871-1.852-1.904-1.903-.801-.04-1.84-.069-3.048-.048-.095 5.61-1.246 14.867-7.193 20.813-5.947 5.947-15.203 7.098-20.813 7.193-.02 1.208.008 2.248.048 3.048.052 1.032.871 1.852 1.903 1.904 4.518.227 16.634.083 23.862-7.145s7.372-19.344 7.145-23.862z" fill="#648940"/></g></g><g><g><path d="m22.383 129.447c-1.032.052-1.852.871-1.903 1.904-.227 4.518-.083 16.634 7.145 23.862s19.344 7.371 23.862 7.145c1.032-.052 1.852-.871 1.903-1.903.227-4.518.083-16.634-7.145-23.862s-19.344-7.373-23.862-7.146z" fill="#76a34f"/></g></g><g><g><path d="m46.245 136.591c-.85-.85-1.768-1.602-2.733-2.267 4.989 7.24 5.078 17.142 4.878 21.129-.052 1.032-.871 1.852-1.904 1.904-3.986.2-13.889.111-21.129-4.878.665.965 1.417 1.883 2.267 2.733 7.227 7.227 19.344 7.371 23.862 7.145 1.032-.052 1.852-.871 1.904-1.904.226-4.518.082-16.634-7.145-23.862z" fill="#648940"/></g></g></g><g><g><g><path d="m84.506 169.76c1.032.052 1.852.871 1.903 1.904.227 4.518.083 16.634-7.145 23.862-7.227 7.227-19.344 7.371-23.862 7.145-1.032-.052-1.852-.871-1.903-1.903-.227-4.518-.083-16.634 7.145-23.862 7.228-7.229 19.344-7.372 23.862-7.146z" fill="#76a34f"/></g></g><g><g><path d="m86.409 171.664c-.052-1.032-.871-1.852-1.904-1.903-.801-.04-1.84-.069-3.048-.048-.095 5.61-1.246 14.867-7.193 20.813-5.947 5.947-15.203 7.098-20.813 7.193-.02 1.208.008 2.248.048 3.048.052 1.032.871 1.852 1.903 1.904 4.518.227 16.634.083 23.862-7.145s7.372-19.344 7.145-23.862z" fill="#648940"/></g></g><g><g><path d="m22.383 169.76c-1.032.052-1.852.871-1.903 1.904-.227 4.518-.083 16.634 7.145 23.862s19.344 7.371 23.862 7.145c1.032-.052 1.852-.871 1.903-1.903.227-4.518.083-16.634-7.145-23.862-7.228-7.229-19.344-7.372-23.862-7.146z" fill="#76a34f"/></g></g><g><g><path d="m46.245 176.905c-.85-.85-1.768-1.602-2.733-2.267 4.989 7.24 5.078 17.142 4.878 21.129-.052 1.032-.871 1.852-1.904 1.904-3.986.2-13.889.111-21.129-4.878.665.965 1.417 1.883 2.267 2.733 7.227 7.227 19.344 7.371 23.862 7.145 1.032-.052 1.852-.871 1.904-1.904.226-4.518.082-16.635-7.145-23.862z" fill="#648940"/></g></g></g></g></g></svg>