<svg id="Layer_1" enable-background="new 0 0 256 256" height="512" viewBox="0 0 256 256" width="512" xmlns="http://www.w3.org/2000/svg"><g><g><g><path d="m237.853 128c0-17.189-12.974-31.342-29.663-33.216 10.476-13.126 9.642-32.307-2.512-44.462-12.155-12.155-31.336-12.988-44.462-2.512-1.874-16.688-16.027-29.663-33.216-29.663s-31.342 12.975-33.216 29.663c-13.126-10.476-32.307-9.642-44.462 2.512-12.154 12.155-12.987 31.337-2.512 44.462-16.688 1.874-29.663 16.027-29.663 33.216s12.974 31.342 29.663 33.216c-10.476 13.126-9.642 32.307 2.512 44.462 12.155 12.155 31.336 12.988 44.462 2.512 1.874 16.689 16.026 29.663 33.216 29.663s31.342-12.974 33.216-29.663c13.126 10.476 32.307 9.642 44.462-2.512 12.155-12.155 12.988-31.336 2.512-44.462 16.688-1.874 29.663-16.027 29.663-33.216z" fill="#e6e7e8"/></g></g><g><g><g><path d="m27.81 151.216c-.106-.012-.211-.03-.317-.043.065.068.128.138.193.205.043-.054.082-.109.124-.162z" fill="#d1d3d4"/></g></g><g><g><path d="m237.853 128c0-17.08-12.811-31.156-29.346-33.173 5.785 6.009 9.346 14.172 9.346 23.173 0 15.267-10.235 28.139-24.218 32.14-2.45.701-3.538 3.542-2.308 5.774 7.002 12.703 5.122 28.993-5.65 39.764-10.771 10.771-27.061 12.651-39.764 5.649-2.232-1.23-5.073-.142-5.774 2.308-4 13.982-16.872 24.218-32.14 24.218-1.382 0-2.741-.093-4.079-.255 6.08 6.318 14.617 10.255 24.079 10.255 17.189 0 31.342-12.974 33.216-29.663 13.126 10.476 32.307 9.642 44.462-2.512 12.155-12.155 12.988-31.336 2.512-44.462 16.689-1.874 29.664-16.027 29.664-33.216z" fill="#d1d3d4"/></g></g></g><g><g><path d="m124.771 167.409h-15.956c-1.381 0-2.5-1.119-2.5-2.5s1.119-2.5 2.5-2.5h15.956c1.381 0 2.5 1.119 2.5 2.5s-1.119 2.5-2.5 2.5z" fill="#ebe7f2"/></g></g><g><g><g><path d="m136.048 114.038c6.085-2.498 11.469-7.115 14.516-10.071 8.695-8.437 13.427-17.524 10.569-20.296-2.857-2.773-12.222 1.819-20.917 10.256-2.034 1.974-3.84 3.981-5.394 5.936.315-2.411.495-5.021.495-7.76 0-11.931-3.276-21.604-7.317-21.604s-7.317 9.672-7.317 21.604c0 2.739.18 5.349.495 7.76-1.554-1.956-3.36-3.963-5.394-5.936-8.695-8.437-18.059-13.028-20.917-10.256-2.857 2.773 1.875 11.86 10.569 20.296 3.047 2.956 8.432 7.573 14.516 10.072z" fill="#76a34f"/></g></g><g><g><g><path d="m161.133 83.67c-.914-.887-2.5-1.013-4.513-.507-1.15 4.145-5.197 10.118-11.056 15.803-3.047 2.956-8.432 7.573-14.516 10.071h-16.095c-5.029-2.065-9.558-5.567-12.706-8.392.992 1.108 2.055 2.22 3.189 3.321 3.047 2.956 8.432 7.573 14.516 10.072h16.095c6.085-2.498 11.469-7.115 14.516-10.071 8.695-8.438 13.427-17.525 10.57-20.297z" fill="#648940"/></g></g></g><g><g><path d="m128 185.502c9.424 0 18.157-2.943 25.346-7.948v-16.768c0-48.267-11.348-46.743-25.346-46.743s-25.346-1.525-25.346 46.743v16.768c7.189 5.005 15.922 7.948 25.346 7.948z" fill="#ffa91a"/></g></g><g><g><path d="m139.038 114.837c2.72 6.807 4.309 17.894 4.309 35.949v16.768c-7.19 5.005-15.922 7.948-25.346 7.948-5.396 0-10.564-.969-15.346-2.733v4.785c7.19 5.005 15.922 7.948 25.346 7.948s18.157-2.943 25.346-7.948v-16.768c-.001-34.625-5.841-43.626-14.309-45.949z" fill="#f79219"/></g></g><g><g><path d="m142.197 116.121c3.832 6.212 6.149 17.854 6.149 39.664v16.768c-7.19 5.005-15.922 7.948-25.346 7.948-7.336 0-14.25-1.79-20.346-4.941v1.993c7.19 5.005 15.922 7.948 25.346 7.948s18.157-2.943 25.346-7.948v-16.768c0-30.128-4.421-40.855-11.149-44.664z" fill="#ef7816"/></g></g><g><g><path d="m128 189.502c-26.702 0-48.426-21.724-48.426-48.426 0-2.209 1.791-4 4-4s4 1.791 4 4c0 22.291 18.135 40.426 40.426 40.426s40.426-18.135 40.426-40.426c0-2.209 1.791-4 4-4s4 1.791 4 4c0 26.703-21.724 48.426-48.426 48.426z" fill="#d1d3d4"/></g></g></g><g><g><g><path d="m52.5 93.04c-.61 0-1.18-.27-1.56-.75-.69-.86-.55-2.12.31-2.81.83-.66 2.14-.52 2.81.31.34.42.49.94.43 1.48-.06.53-.32 1-.74 1.33-.36.29-.79.44-1.25.44zm-4.02-6.88c-.82 0-1.55-.49-1.85-1.26-1.4-3.48-2.11-7.16-2.11-10.93-.01-7.86 3.06-15.25 8.63-20.82 5.55-5.56 12.94-8.62 20.79-8.62h.01c6.65 0 13.16 2.28 18.34 6.41l5.66 4.51.81-7.19c1.67-14.89 14.24-26.11 29.24-26.11h.01c5.89 0 11.58 1.73 16.44 5.01 2.38 1.6 4.51 3.54 6.33 5.76.699.85.569 2.11-.28 2.81-.83.67-2.141.54-2.82-.28-1.56-1.91-3.399-3.58-5.45-4.97-.01 0-.01 0-.01 0l-.05-.04c-4.2-2.81-9.101-4.29-14.17-4.29-12.96 0-23.82 9.7-25.27 22.55l-1.21 10.8c-.08.72-.55 1.35-1.22 1.63-.66.27-1.45.16-2.01-.29l-8.5-6.78c-4.46-3.56-10.09-5.53-15.84-5.53-6.78.01-13.17 2.65-17.97 7.45-4.81 4.81-7.46 11.2-7.46 17.99 0 3.25.61 6.43 1.82 9.44.2.5.19 1.04-.02 1.53s-.6.87-1.09 1.07c-.24.1-.49.15-.75.15z" fill="#fff"/></g></g></g><g><g><g><path d="m196.607 182.488c-3.383 7.359-9.323 13.299-16.682 16.682-2.649 1.218-2.649 4.948 0 6.165 7.359 3.383 13.299 9.323 16.682 16.682 1.218 2.649 4.948 2.649 6.165 0 3.383-7.359 9.323-13.299 16.682-16.682 2.649-1.218 2.649-4.948 0-6.165-7.359-3.383-13.299-9.323-16.682-16.682-1.217-2.649-4.947-2.649-6.165 0z" fill="#ffa91a"/></g></g></g><g><g><g><path d="m219.454 199.17c-1.042-.479-2.053-1.015-3.035-1.594-.106 1.124-.756 2.203-1.965 2.759-7.359 3.383-13.299 9.323-16.682 16.682-.556 1.209-1.635 1.859-2.759 1.965.579.982 1.114 1.993 1.594 3.035 1.218 2.649 4.948 2.649 6.165 0 3.383-7.359 9.323-13.299 16.682-16.682 2.649-1.217 2.649-4.948 0-6.165z" fill="#f79219"/></g></g></g><g><g><g><path d="m180.922 60.654c-2.34 5.09-6.449 9.199-11.539 11.539-1.832.842-1.832 3.423 0 4.265 5.09 2.34 9.199 6.448 11.539 11.539.842 1.832 3.423 1.832 4.265 0 2.34-5.09 6.449-9.199 11.539-11.539 1.832-.842 1.832-3.423 0-4.265-5.09-2.34-9.199-6.449-11.539-11.539-.842-1.833-3.423-1.833-4.265 0z" fill="#ffa91a"/></g></g></g><g><g><g><path d="m196.726 72.193c-1.319-.606-2.568-1.336-3.741-2.166-.184.593-.598 1.126-1.259 1.43-5.09 2.34-9.199 6.448-11.539 11.539-.304.661-.837 1.075-1.43 1.259.83 1.173 1.559 2.422 2.166 3.741.842 1.832 3.423 1.832 4.265 0 2.34-5.09 6.449-9.199 11.539-11.539 1.831-.842 1.831-3.422-.001-4.264z" fill="#f79219"/></g></g></g><g><g><g><path d="m51.754 115.205c-2.34 5.09-6.449 9.199-11.539 11.539-1.832.842-1.832 3.423 0 4.265 5.09 2.34 9.199 6.448 11.539 11.539.842 1.832 3.423 1.832 4.265 0 2.34-5.09 6.449-9.199 11.539-11.539 1.832-.842 1.832-3.423 0-4.265-5.09-2.34-9.199-6.449-11.539-11.539-.842-1.832-3.422-1.832-4.265 0z" fill="#ffa91a"/></g></g></g><g><g><g><path d="m67.558 126.744c-1.319-.606-2.568-1.336-3.741-2.166-.184.593-.598 1.126-1.259 1.43-5.09 2.34-9.199 6.448-11.539 11.539-.304.661-.837 1.075-1.43 1.259.83 1.173 1.56 2.422 2.166 3.741.842 1.832 3.422 1.832 4.265 0 2.34-5.09 6.449-9.199 11.539-11.539 1.831-.842 1.831-3.422-.001-4.264z" fill="#f79219"/></g></g></g></g></svg>