<svg id="Layer_1" enable-background="new 0 0 256 256" height="512" viewBox="0 0 256 256" width="512" xmlns="http://www.w3.org/2000/svg"><g><g><g><g><g><g><g><circle cx="128" cy="142.854" fill="#ffa91a" r="94.143"/></g></g></g></g></g><g><g><path d="m189.38 71.474c14.186 16.482 22.763 37.929 22.763 61.38 0 51.994-42.149 94.144-94.143 94.144-23.452 0-44.899-8.577-61.38-22.763 17.265 20.059 42.838 32.763 71.38 32.763 51.994 0 94.143-42.149 94.143-94.144 0-28.542-12.703-54.115-32.763-71.38z" fill="#f79219"/></g></g><g><g><path d="m192.018 73.836c15.589 16.799 25.125 39.293 25.125 64.018 0 51.994-42.149 94.144-94.143 94.144-24.725 0-47.219-9.536-64.018-25.125 17.193 18.527 41.749 30.125 69.018 30.125 51.994 0 94.143-42.149 94.143-94.144 0-27.269-11.598-51.825-30.125-69.018z" fill="#ef7816"/></g></g><g><g><g><g><path d="m128 213.922c-1.381 0-2.5-1.119-2.5-2.5v-130.06c0-1.381 1.119-2.5 2.5-2.5s2.5 1.119 2.5 2.5v130.06c0 1.381-1.119 2.5-2.5 2.5z" fill="#5a7a39"/></g></g><g><g><path d="m128 156.292c-.663 0-1.299-.263-1.768-.732l-17.373-17.374c-.977-.976-.977-2.559 0-3.535.976-.977 2.56-.977 3.535 0l15.606 15.605 15.605-15.605c.976-.977 2.56-.977 3.535 0 .977.976.977 2.559 0 3.535l-17.373 17.374c-.468.468-1.104.732-1.767.732z" fill="#5a7a39"/></g></g><g><g><path d="m128 123.33c-.64 0-1.28-.244-1.768-.732l-39.467-39.468c-.977-.976-.977-2.559 0-3.535.976-.977 2.56-.977 3.535 0l37.7 37.699 37.7-37.699c.976-.977 2.56-.977 3.535 0 .977.976.977 2.559 0 3.535l-39.467 39.467c-.488.488-1.128.733-1.768.733z" fill="#5a7a39"/></g></g></g><g><g><g><g><path d="m82.559 105.51c-1.579.058-2.836 1.314-2.894 2.894-.208 5.676.262 18.954 8.311 27.002s21.327 8.519 27.002 8.311c1.579-.058 2.836-1.314 2.894-2.894.208-5.676-.262-18.954-8.311-27.002s-21.326-8.52-27.002-8.311z" fill="#76a34f"/></g></g><g><g><path d="m109.562 113.821c-.849-.849-1.766-1.596-2.716-2.284 5.839 8.059 6.213 19.21 6.027 24.286-.058 1.579-1.314 2.836-2.893 2.894-5.077.187-16.228-.188-24.287-6.026.688.95 1.435 1.867 2.284 2.716 8.048 8.048 21.327 8.519 27.002 8.311 1.579-.058 2.836-1.314 2.893-2.894.209-5.677-.262-18.955-8.31-27.003z" fill="#648940"/></g></g><g><g><path d="m173.441 105.51c1.579.058 2.836 1.314 2.894 2.894.208 5.676-.262 18.954-8.311 27.002-8.048 8.048-21.327 8.519-27.002 8.311-1.579-.058-2.836-1.314-2.894-2.894-.208-5.676.262-18.954 8.311-27.002 8.048-8.049 21.326-8.52 27.002-8.311z" fill="#76a34f"/></g></g><g><g><path d="m176.334 108.403c-.058-1.579-1.315-2.835-2.894-2.893-.605-.022-1.312-.033-2.075-.032-.013 6.388-1.152 17.737-8.343 24.928s-18.539 8.329-24.928 8.343c-.002.762.01 1.469.032 2.074.058 1.579 1.314 2.836 2.893 2.894 5.676.208 18.954-.262 27.002-8.311s8.522-21.327 8.313-27.003z" fill="#648940"/></g></g></g><g><g><path d="m125.999 93.528c1.143 1.023 2.859 1.023 4.002 0 5.425-4.858 20.012-19.532 20.012-36.879s-14.586-32.021-20.012-36.879c-1.143-1.023-2.859-1.023-4.002 0-5.425 4.858-20.012 19.532-20.012 36.879s14.587 32.021 20.012 36.879z" fill="#76a34f"/></g></g><g><g><path d="m117.91 76.81c-.7 0-1.33-.35-1.7-.93 0-.01 0-.01 0-.01-.28-.45-.37-.99-.25-1.51s.43-.96.89-1.25c.91-.56 2.18-.27 2.75.64.59.94.3 2.18-.64 2.76-.32.2-.68.3-1.05.3zm-3.64-7.11c-.83 0-1.56-.5-1.86-1.26-1.61-4.02-2.42-7.99-2.42-11.79.02-5.58 1.73-11.39 5.07-17.3 2.34-4.13 5.49-8.32 9.38-12.47.73-.78 2.05-.81 2.83-.08.8.76.83 2.03.07 2.83-4.03 4.24-13.42 15.35-13.35 27.02 0 3.29.72 6.75 2.13 10.31 0 0 .01 0 .01.01.19.49.18 1.03-.03 1.52s-.6.87-1.1 1.07c-.23.09-.48.14-.73.14z" fill="#91b56b"/></g></g><g><g><path d="m130.001 19.77c-.351-.314-.757-.52-1.183-.641 5.565 7.001 11.194 16.743 11.194 27.52 0 17.347-14.586 32.021-20.012 36.879-.792.71-1.858.915-2.819.641 3.393 4.269 6.762 7.519 8.817 9.359 1.143 1.023 2.859 1.023 4.002 0 5.425-4.858 20.012-19.532 20.012-36.879s-14.586-32.021-20.011-36.879z" fill="#648940"/></g></g><g><g><g><path d="m191.242 54.694c1.579.058 2.836 1.314 2.894 2.894.208 5.676-.262 18.954-8.311 27.002-8.048 8.048-21.327 8.519-27.002 8.311-1.579-.058-2.836-1.314-2.894-2.894-.208-5.676.262-18.954 8.311-27.002 8.048-8.049 21.326-8.519 27.002-8.311z" fill="#76a34f"/></g></g><g><g><path d="m194.135 57.588c-.058-1.579-1.314-2.836-2.893-2.894-.605-.022-1.312-.033-2.075-.032-.013 6.389-1.152 17.737-8.343 24.928-7.19 7.19-18.539 8.329-24.928 8.343-.002.762.01 1.469.032 2.075.058 1.579 1.315 2.835 2.894 2.893 5.676.208 18.954-.262 27.002-8.311 8.049-8.048 8.519-21.327 8.311-27.002z" fill="#648940"/></g></g><g><g><path d="m64.758 54.694c-1.579.058-2.836 1.314-2.894 2.894-.208 5.676.262 18.954 8.311 27.002s21.327 8.519 27.002 8.311c1.579-.058 2.836-1.314 2.894-2.894.208-5.676-.262-18.954-8.311-27.002s-21.326-8.519-27.002-8.311z" fill="#76a34f"/></g></g><g><g><path d="m91.761 63.005c-.849-.849-1.766-1.596-2.716-2.284 5.839 8.059 6.213 19.209 6.027 24.287-.058 1.579-1.314 2.835-2.893 2.893-5.077.186-16.228-.188-24.287-6.027.688.95 1.435 1.867 2.284 2.716 8.048 8.048 21.327 8.519 27.002 8.311 1.579-.058 2.836-1.314 2.893-2.893.209-5.676-.262-18.955-8.31-27.003z" fill="#648940"/></g></g></g></g></g><g><g><g><path d="m127.999 215.785c-.17-40.133-32.755-72.616-72.929-72.616.17 40.133 32.756 72.615 72.929 72.616z" fill="#76a34f"/></g></g><g><g><path d="m101.379 159.757c10.32 12.525 16.546 28.549 16.62 46.028-17.584 0-33.714-6.224-46.309-16.588 13.376 16.234 33.632 26.588 56.309 26.588-.095-22.567-10.44-42.714-26.62-56.028z" fill="#648940"/></g></g><g><g><path d="m128.001 215.785c40.173-.001 72.759-32.483 72.929-72.616-40.173 0-72.759 32.482-72.929 72.616z" fill="#76a34f"/></g></g><g><g><path d="m190.082 143.976c-4.815 31.463-29.731 56.303-61.232 61.002-.54 3.526-.833 7.134-.848 10.807 40.173-.001 72.759-32.483 72.929-72.616-3.688 0-7.309.279-10.849.807z" fill="#648940"/></g></g></g></g><g><g><g><path d="m43.502 107.457h-20.333v99.907c0 1.133.918 2.051 2.051 2.051h16.231c1.133 0 2.051-.918 2.051-2.051z" fill="#e63950"/></g></g><g><g><path d="m33.502 107.457v89.907c0 1.133-.918 2.051-2.051 2.051h-8.282v7.949c0 1.133.918 2.051 2.051 2.051h16.231c1.133 0 2.051-.918 2.051-2.051v-99.907z" fill="#d10028"/></g></g><g><g><path d="m52.656 107.457h-38.64c-3.203 0-5.199-3.473-3.587-6.241l19.32-33.167c1.601-2.749 5.573-2.749 7.174 0l19.32 33.167c1.612 2.768-.384 6.241-3.587 6.241z" fill="#e63950"/></g></g><g><g><path d="m56.243 101.217-19.32-33.167c-1.115-1.913-3.376-2.491-5.189-1.741l14.509 24.908c1.612 2.767-.384 6.241-3.587 6.241h-30.038l-2.19 3.759c-1.612 2.767.384 6.241 3.587 6.241h38.64c3.204-.001 5.2-3.474 3.588-6.241z" fill="#d10028"/></g></g><g><g><path d="m232.831 107.457h-20.333v99.907c0 1.133.918 2.051 2.051 2.051h16.231c1.133 0 2.051-.918 2.051-2.051z" fill="#e63950"/></g></g><g><g><path d="m222.831 107.457v89.907c0 1.133-.918 2.051-2.051 2.051h-8.282v7.949c0 1.133.918 2.051 2.051 2.051h16.231c1.133 0 2.051-.918 2.051-2.051v-99.907z" fill="#d10028"/></g></g><g><g><path d="m241.984 107.457h-38.64c-3.203 0-5.199-3.473-3.587-6.241l19.32-33.167c1.601-2.749 5.573-2.749 7.174 0l19.32 33.167c1.612 2.768-.384 6.241-3.587 6.241z" fill="#e63950"/></g></g><g><g><path d="m245.571 101.217-19.32-33.167c-1.115-1.913-3.376-2.491-5.189-1.741l14.509 24.908c1.612 2.767-.384 6.24-3.587 6.24h-30.037l-2.19 3.76c-1.612 2.767.384 6.24 3.587 6.24h38.64c3.203 0 5.199-3.473 3.587-6.24z" fill="#d10028"/></g></g></g></g></svg>