<svg id="Layer_1" enable-background="new 0 0 256 256" height="512" viewBox="0 0 256 256" width="512" xmlns="http://www.w3.org/2000/svg"><g><g><g><g><g><g><g><path d="m211.199 106.299c-.18 0-.36.005-.538.01-1.79-6.631-7.847-11.511-15.045-11.511s-13.255 4.88-15.045 11.511c-.179-.005-.358-.01-.538-.01-8.607 0-15.584 6.977-15.584 15.584s6.977 15.583 15.584 15.583h31.166c8.607 0 15.584-6.977 15.584-15.583s-6.977-15.584-15.584-15.584z" fill="#e6e7e8"/></g></g></g></g></g><g><g><g><path d="m219.433 108.65c1.49 2.389 2.35 5.211 2.35 8.233 0 8.607-6.977 15.583-15.583 15.583h-31.166c-3.023 0-5.845-.861-8.234-2.35 2.752 4.413 7.65 7.35 13.234 7.35h31.166c8.607 0 15.583-6.977 15.583-15.583 0-5.584-2.937-10.482-7.35-13.233z" fill="#d1d3d4"/></g></g></g><g><g><g><g><g><path d="m166.383 100.104h-76.766c-1.88 0-3.643.914-4.727 2.451l-23.973 34.012c-1.35 1.915.02 4.557 2.363 4.557h129.44c2.343 0 3.713-2.642 2.363-4.557l-23.973-34.012c-1.084-1.536-2.847-2.451-4.727-2.451z" fill="#7c3108"/></g></g></g></g><g><g><path d="m195.083 136.568-23.973-34.012c-1.083-1.537-2.846-2.451-4.727-2.451h-9.953l18.653 26.464c1.35 1.915-.02 4.557-2.363 4.557h-107.967l-3.836 5.443c-1.35 1.915.02 4.557 2.363 4.557h129.44c2.343-.001 3.713-2.643 2.363-4.558z" fill="#6d2e03"/></g></g><g><g><g><g><path d="m64.21 141.125h127.579v69.451h-127.579z" fill="#8c3f0a"/></g></g><g><g><path d="m70.21 206.25c-1.101 0-2-.9-2-2v-48.8c0-1.1.899-2 2-2 1.1 0 2 .9 2 2v48.8c0 1.1-.9 2-2 2zm0-56.8c-1.101 0-2-.89-2-2 0-1.1.899-2 2-2 1.1 0 2 .9 2 2 0 1.11-.9 2-2 2z" fill="#995222"/></g></g></g></g><g><g><path d="m186.79 141.125v64.451h-122.579v5h127.579v-69.451z" fill="#8c3f0a"/></g></g></g><g><g><g><g><g><path d="m139.746 167.501h-23.492c-1.105 0-2 .895-2 2v41.076h27.492v-41.076c0-1.105-.896-2-2-2z" fill="#7c3108"/></g></g></g></g></g><g><g><path d="m139.746 167.501h-3v38.076h-22.492v5h27.492v-41.076c0-1.105-.896-2-2-2z" fill="#6d2e03"/></g></g><g><g><g><g><g><g><g><path d="m167.769 170.995h-14.314v-20.082c0-.885.718-1.603 1.603-1.603h11.109c.885 0 1.603.718 1.603 1.603v20.082z" fill="#f79219"/></g></g></g></g><g><g><path d="m166.167 149.31h-3.397v16.685h-9.314v5h14.314v-20.082c-.001-.886-.718-1.603-1.603-1.603z" fill="#ef7816"/></g></g><g><g><g><g><path d="m168.392 170.995h-15.559c-.965 0-1.747-.782-1.747-1.747 0-.965.782-1.747 1.747-1.747h15.559c.965 0 1.747.782 1.747 1.747 0 .965-.782 1.747-1.747 1.747z" fill="#7c3108"/></g></g></g></g></g><g><g><g><g><g><path d="m167.769 201.059h-14.314v-20.082c0-.885.718-1.603 1.603-1.603h11.109c.885 0 1.603.718 1.603 1.603v20.082z" fill="#f79219"/></g></g></g></g><g><g><path d="m166.167 179.374h-3.397v16.685h-9.314v5h14.314v-20.082c-.001-.885-.718-1.603-1.603-1.603z" fill="#ef7816"/></g></g><g><g><g><g><path d="m168.392 201.059h-15.559c-.965 0-1.747-.782-1.747-1.747 0-.965.782-1.747 1.747-1.747h15.559c.965 0 1.747.782 1.747 1.747 0 .965-.782 1.747-1.747 1.747z" fill="#7c3108"/></g></g></g></g></g></g><g><g><g><g><g><g><path d="m102.544 170.995h-14.314v-20.082c0-.885.718-1.603 1.603-1.603h11.109c.885 0 1.603.718 1.603 1.603v20.082z" fill="#f79219"/></g></g></g></g><g><g><path d="m100.942 149.31h-3.397v16.685h-9.315v5h14.314v-20.082c0-.886-.717-1.603-1.602-1.603z" fill="#ef7816"/></g></g><g><g><g><g><path d="m103.167 170.995h-15.559c-.965 0-1.747-.782-1.747-1.747 0-.965.782-1.747 1.747-1.747h15.559c.965 0 1.747.782 1.747 1.747 0 .965-.782 1.747-1.747 1.747z" fill="#7c3108"/></g></g></g></g></g><g><g><g><g><g><path d="m102.544 201.059h-14.314v-20.082c0-.885.718-1.603 1.603-1.603h11.109c.885 0 1.603.718 1.603 1.603v20.082z" fill="#f79219"/></g></g></g></g><g><g><path d="m100.942 179.374h-3.397v16.685h-9.315v5h14.314v-20.082c0-.885-.717-1.603-1.602-1.603z" fill="#ef7816"/></g></g><g><g><g><g><path d="m103.167 201.059h-15.559c-.965 0-1.747-.782-1.747-1.747 0-.965.782-1.747 1.747-1.747h15.559c.965 0 1.747.782 1.747 1.747 0 .965-.782 1.747-1.747 1.747z" fill="#7c3108"/></g></g></g></g></g></g></g><g><g><g><g><g><path d="m87.411 110.612c.112-.68.171-1.378.171-2.091 0-7.057-5.721-12.778-12.778-12.778-3.141 0-6.016 1.134-8.241 3.014-1.03-6.023-6.276-10.608-12.594-10.608-7.057 0-12.778 5.721-12.778 12.778 0 .926.099 1.829.286 2.698-.87-.187-1.773-.286-2.699-.286-7.057 0-12.778 5.721-12.778 12.778s5.721 12.778 12.778 12.778c.194 0 .388-.005.58-.014.045.009.092.014.139.014h46.033c5.101 0 9.237-4.136 9.237-9.237 0-4.458-3.156-8.177-7.356-9.046z" fill="#e6e7e8"/></g></g></g></g></g><g><g><g><path d="m89.066 111.122c.452 1.089.701 2.283.701 3.535 0 5.101-4.136 9.237-9.237 9.237h-46.032c-.048 0-.094-.005-.139-.014-.192.009-.385.014-.58.014-2.244 0-4.352-.578-6.184-1.594 2.179 3.932 6.371 6.594 11.184 6.594.194 0 .388-.005.58-.014.045.009.092.014.139.014h46.032c5.101 0 9.237-4.136 9.237-9.237 0-3.849-2.354-7.147-5.701-8.535z" fill="#d1d3d4"/></g></g></g></g><g><g><path d="m227.11 227.507h-198.22c-4.675 0-8.465-3.79-8.465-8.465 0-4.675 3.79-8.465 8.465-8.465h198.22c4.675 0 8.465 3.79 8.465 8.465.001 4.675-3.79 8.465-8.465 8.465z" fill="#76a34f"/></g></g><g><g><path d="m227.11 210.577h-1.674c-.722 3.942-4.175 6.93-8.326 6.93h-196.546c-.091.498-.139 1.011-.139 1.535 0 4.675 3.79 8.465 8.465 8.465h198.22c4.675 0 8.465-3.79 8.465-8.465.001-4.675-3.789-8.465-8.465-8.465z" fill="#648940"/></g></g><g><g><path d="m230.051 211.102c.339.916.525 1.906.525 2.94 0 4.675-3.79 8.465-8.465 8.465h-198.221c-1.034 0-2.024-.186-2.94-.525 1.195 3.226 4.299 5.525 7.94 5.525h198.22c4.675 0 8.465-3.79 8.465-8.465.001-3.641-2.299-6.746-5.524-7.94z" fill="#5a7a39"/></g></g><g><g><g><g><path d="m128 129.768c-1.381 0-2.5-1.119-2.5-2.5v-56.663c0-1.381 1.119-2.5 2.5-2.5s2.5 1.119 2.5 2.5v56.663c0 1.38-1.119 2.5-2.5 2.5z" fill="#5a7a39"/></g></g><g><g><path d="m128 121.284c-.64 0-1.279-.244-1.768-.732l-11.557-11.556c-.977-.976-.977-2.559 0-3.535.977-.977 2.559-.977 3.535 0l9.789 9.788 9.789-9.788c.977-.977 2.559-.977 3.535 0 .977.976.977 2.559 0 3.535l-11.557 11.556c-.487.488-1.126.732-1.766.732z" fill="#5a7a39"/></g></g><g><g><path d="m128 99.358c-.663 0-1.299-.263-1.768-.732l-26.253-26.253c-.977-.976-.977-2.559 0-3.535.977-.977 2.559-.977 3.535 0l24.486 24.485 24.485-24.485c.977-.977 2.559-.977 3.535 0 .977.976.977 2.559 0 3.535l-26.253 26.253c-.468.469-1.104.732-1.767.732z" fill="#5a7a39"/></g></g></g><g><g><g><g><path d="m97.774 86.668c-1.05.039-1.886.874-1.925 1.925-.139 3.775.175 12.608 5.528 17.962 5.354 5.354 14.186 5.667 17.962 5.528 1.05-.039 1.886-.874 1.925-1.925.139-3.775-.175-12.608-5.528-17.962-5.355-5.354-14.187-5.667-17.962-5.528z" fill="#76a34f"/></g></g><g><g><path d="m115.735 92.196c-.856-.856-1.801-1.583-2.8-2.2 3.242 5.249 3.445 11.99 3.329 15.161-.039 1.05-.874 1.886-1.925 1.925-3.172.116-9.912-.086-15.161-3.329.617.999 1.344 1.944 2.2 2.8 5.354 5.354 14.186 5.667 17.962 5.528 1.05-.039 1.886-.874 1.925-1.925.137-3.774-.176-12.606-5.53-17.96z" fill="#648940"/></g></g><g><g><path d="m158.226 86.668c1.05.039 1.886.874 1.925 1.925.139 3.775-.175 12.608-5.528 17.962-5.354 5.354-14.186 5.667-17.962 5.528-1.05-.039-1.886-.874-1.925-1.925-.139-3.775.175-12.608 5.528-17.962 5.355-5.354 14.187-5.667 17.962-5.528z" fill="#76a34f"/></g></g><g><g><path d="m160.151 88.592c-.039-1.05-.874-1.886-1.925-1.925-.822-.03-1.883-.039-3.096.021-.216 4.359-1.319 10.677-5.507 14.865s-10.506 5.292-14.865 5.507c-.06 1.213-.051 2.275-.021 3.096.039 1.05.874 1.886 1.925 1.925 3.775.139 12.608-.174 17.962-5.528 5.353-5.353 5.666-14.185 5.527-17.961z" fill="#648940"/></g></g></g><g><g><path d="m126.669 78.698c.76.681 1.902.681 2.662 0 3.609-3.231 13.311-12.992 13.311-24.531s-9.702-21.3-13.311-24.531c-.76-.681-1.902-.681-2.662 0-3.609 3.231-13.311 12.992-13.311 24.531s9.702 21.299 13.311 24.531z" fill="#76a34f"/></g></g><g><g><path d="m129.331 29.635c-.113-.101-.234-.186-.361-.257 4.05 4.708 8.672 11.825 8.672 19.789 0 11.539-9.702 21.3-13.311 24.531-.648.58-1.572.665-2.301.257 1.818 2.113 3.521 3.742 4.639 4.743.76.681 1.902.681 2.662 0 3.609-3.231 13.311-12.992 13.311-24.531 0-11.54-9.702-21.301-13.311-24.532z" fill="#648940"/></g></g><g><g><g><path d="m170.067 52.866c1.05.039 1.886.874 1.925 1.925.139 3.775-.175 12.608-5.528 17.962-5.354 5.354-14.186 5.667-17.962 5.528-1.05-.039-1.886-.874-1.925-1.925-.139-3.775.175-12.608 5.528-17.962 5.354-5.354 14.187-5.667 17.962-5.528z" fill="#76a34f"/></g></g><g><g><path d="m171.992 54.79c-.039-1.05-.874-1.886-1.925-1.925-.822-.03-1.883-.039-3.096.021-.216 4.359-1.319 10.677-5.507 14.865s-10.506 5.292-14.865 5.507c-.06 1.213-.051 2.275-.021 3.096.039 1.05.874 1.886 1.925 1.925 3.775.139 12.608-.174 17.962-5.528s5.666-14.185 5.527-17.961z" fill="#648940"/></g></g><g><g><path d="m85.933 52.866c-1.05.039-1.886.874-1.925 1.925-.139 3.775.175 12.608 5.528 17.962 5.354 5.354 14.186 5.667 17.962 5.528 1.05-.039 1.886-.874 1.925-1.925.139-3.775-.175-12.608-5.528-17.962-5.354-5.354-14.187-5.667-17.962-5.528z" fill="#76a34f"/></g></g><g><g><path d="m103.894 58.394c-.856-.856-1.801-1.583-2.8-2.2 3.242 5.249 3.445 11.99 3.329 15.161-.039 1.05-.874 1.886-1.925 1.925-3.172.116-9.912-.086-15.161-3.328.617.999 1.344 1.944 2.2 2.8 5.354 5.354 14.186 5.667 17.962 5.528 1.05-.039 1.886-.874 1.925-1.925.137-3.775-.176-12.607-5.53-17.961z" fill="#648940"/></g></g></g></g></g></g></svg>