<svg id="Layer_1" enable-background="new 0 0 256 256" height="512" viewBox="0 0 256 256" width="512" xmlns="http://www.w3.org/2000/svg"><g><g><g><path d="m85.034 82.108c-4.321 14.689-6.676 35.451-6.378 44.902.072 2.248.297 4.463.674 6.631 3.901 23.023 23.954 40.74 47.884 41.117 13.053.201 24.974-4.664 33.908-12.756 9.978-9.031 16.248-22.084 16.248-36.605 0-8.927-2.367-28.974-6.506-43.288h-85.83z" fill="#6d2e03"/></g></g><g><g><g><g><g><g><path d="m199.31 178.256v39.7c0 5.523-4.477 10-10 10h-122.62c-5.523 0-10-4.477-10-10v-39.7c0-16.569 13.431-30 30-30h82.62c16.569 0 30 13.432 30 30z" fill="#ffa91a"/></g></g></g><g><g><path d="m62.69 210.33c-1.1 0-2-.9-2-2s.9-2 2-2 2 .9 2 2-.9 2-2 2zm0-8c-1.1 0-2-.9-2-2v-22.07c0-5.58 1.75-10.9 5.05-15.39 3.23-4.39 7.67-7.61 12.82-9.31 1.04-.34 2.19.25 2.53 1.27.34 1.05-.23 2.18-1.27 2.52-9.06 2.99-15.13 11.39-15.13 20.91v22.07c0 1.1-.9 2-2 2z" fill="#ffc91d"/></g></g><g><g><path d="m171.759 148.355c4.698 5.296 7.551 12.265 7.551 19.901v39.7c0 5.523-4.477 10-10 10h-112.62c0 5.523 4.477 10 10 10h122.62c5.523 0 10-4.477 10-10v-39.7c0-15.744-12.128-28.654-27.551-29.901z" fill="#f79219"/></g></g><g><g><g><path d="m116.508 126.82v28.443c0 2.2.632 4.355 1.82 6.207 4.522 7.048 14.823 7.048 19.345 0 1.188-1.852 1.82-4.006 1.82-6.207v-28.443z" fill="#fcc4ae"/></g></g><g><g><g><path d="m116.508 135.714c3.612 1.208 7.473 1.872 11.492 1.872 4.019 0 7.881-.664 11.493-1.873v-8.893h-22.985z" fill="#f2ad97"/></g></g><g><g><path d="m128 132.586c-20.004 0-36.219-16.216-36.219-36.219v-18.801c0-20.003 16.216-36.219 36.219-36.219 20.003 0 36.219 16.216 36.219 36.219v18.801c0 20.003-16.216 36.219-36.219 36.219z" fill="#ffd2c0"/></g></g><g><g><path d="m150.988 49.577c5.142 6.254 8.231 14.26 8.231 22.988v18.801c0 20.003-16.216 36.219-36.219 36.219-8.728 0-16.735-3.089-22.988-8.231 6.643 8.078 16.713 13.231 27.988 13.231 20.003 0 36.219-16.216 36.219-36.219v-18.8c0-11.276-5.153-21.346-13.231-27.989z" fill="#fcc4ae"/></g></g><g><g><g><circle cx="110.979" cy="91.622" fill="#8c3f0a" r="4.388"/></g></g><g><g><circle cx="145.021" cy="91.622" fill="#8c3f0a" r="4.388"/></g></g></g></g></g></g></g></g><g><g><g><path d="m146.82 25.211-16.287 2.58c-3.417.896-17.649-2.223-21.288-2.58-10.035-1.59-19.289 6.484-20.67 18.035-.405-.255-.171 29.529-.171 29.529h79.258v-26.649c.089-12.688-9.944-22.729-20.842-20.915z" fill="#ffa91a"/></g></g><g><g><path d="m155.546 26.265c1.367 2.942 2.141 6.297 2.116 9.861v26.649h-69.313c.019 5.493.055 10 .055 10h79.258v-26.649c.064-9.144-5.13-16.914-12.116-19.861z" fill="#f79219"/></g></g><g><g><path d="m88.371 55.38h79.259v17.395h-79.259z" fill="#ef7816"/></g></g></g><g><g><path d="m192.391 82.108h-128.782c-2.577 0-4.666-2.089-4.666-4.666 0-2.577 2.089-4.666 4.666-4.666h128.781c2.577 0 4.667 2.089 4.667 4.666 0 2.577-2.089 4.666-4.666 4.666z" fill="#f79219"/></g></g><g><g><path d="m166.81 182.582h-77.62c-5.523 0-10 4.477-10 10v35.376h97.62v-35.376c0-5.522-4.477-10-10-10z" fill="#808285"/></g></g><g><g><path d="m166.81 182.582v35.377h-87.62v10h97.62v-35.377c0-5.522-4.477-10-10-10z" fill="#58595b"/></g></g><g><g><path d="m170.926 183.466c.568 1.255.884 2.649.884 4.116v35.377h-92.62v5h97.62v-35.377c0-4.055-2.414-7.547-5.884-9.116z" fill="#414042"/></g></g><g><g><path d="m89.52 148.256h14.861v34.326h-14.861z" fill="#808285"/></g></g><g><g><path d="m151.62 148.256h14.861v34.326h-14.861z" fill="#808285"/></g></g><g><g><circle cx="159.05" cy="188.106" fill="#58595b" r="4.229"/></g></g><g><g><circle cx="96.95" cy="188.106" fill="#58595b" r="4.229"/></g></g><g><g><path d="m134.44 109.715c.996 0 1.751.93 1.521 1.9-.857 3.603-4.096 6.283-7.961 6.283s-7.104-2.68-7.961-6.283c-.23-.969.524-1.9 1.521-1.9z" fill="#e59076"/></g></g></g></svg>