<svg id="Layer_1" enable-background="new 0 0 256 256" height="512" viewBox="0 0 256 256" width="512" xmlns="http://www.w3.org/2000/svg"><g><g><g><g><g><g><g><path d="m199.31 178.256v39.7c0 5.523-4.477 10-10 10h-122.62c-5.523 0-10-4.477-10-10v-39.7c0-16.569 13.431-30 30-30h82.62c16.569 0 30 13.432 30 30z" fill="#ffa91a"/></g></g></g><g><g><path d="m62.689 210.33c-1.1 0-2-.9-2-2s.9-2 2-2c1.101 0 2 .9 2 2s-.899 2-2 2zm0-8c-1.1 0-2-.9-2-2v-22.07c0-5.58 1.75-10.9 5.051-15.39 3.229-4.39 7.67-7.61 12.819-9.31 1.03-.34 2.19.25 2.53 1.27.34 1.05-.23 2.18-1.28 2.52-9.04 2.99-15.12 11.39-15.12 20.91v22.05.02c0 1.1-.899 2-2 2z" fill="#ffc91d"/></g></g><g><g><path d="m171.759 148.355c4.698 5.296 7.551 12.265 7.551 19.901v39.7c0 5.523-4.477 10-10 10h-112.62c0 5.523 4.477 10 10 10h122.62c5.523 0 10-4.477 10-10v-39.7c0-15.744-12.128-28.654-27.551-29.901z" fill="#f79219"/></g></g><g><g><g><path d="m116.508 126.82v28.443c0 2.2.632 4.355 1.82 6.207 4.522 7.048 14.823 7.048 19.345 0 1.188-1.852 1.82-4.006 1.82-6.207v-28.443z" fill="#fcc4ae"/></g></g><g><g><g><path d="m116.508 135.714c3.612 1.208 7.473 1.872 11.492 1.872 4.019 0 7.881-.664 11.493-1.873v-8.893h-22.985z" fill="#f2ad97"/></g></g><g><g><path d="m128 132.586c-20.004 0-36.219-16.216-36.219-36.219v-18.801c0-20.003 16.216-36.219 36.219-36.219 20.003 0 36.219 16.216 36.219 36.219v18.801c0 20.003-16.216 36.219-36.219 36.219z" fill="#ffd2c0"/></g></g><g><g><path d="m150.988 49.577c5.142 6.254 8.231 14.26 8.231 22.988v18.801c0 20.003-16.216 36.219-36.219 36.219-8.728 0-16.735-3.089-22.988-8.231 6.643 8.078 16.713 13.231 27.988 13.231 20.003 0 36.219-16.216 36.219-36.219v-18.8c0-11.276-5.153-21.346-13.231-27.989z" fill="#fcc4ae"/></g></g><g><g><path d="m91.781 96.367v-11.319c-6.443 0-11.667 5.223-11.667 11.667 0 6.443 5.223 11.667 11.667 11.667.679 0 1.341-.07 1.988-.181-1.282-3.711-1.988-7.689-1.988-11.834z" fill="#ffd2c0"/></g></g><g><g><path d="m164.219 85.048v11.319c0 4.145-.706 8.124-1.988 11.833.647.111 1.309.181 1.988.181 6.443 0 11.667-5.223 11.667-11.667 0-6.443-5.224-11.666-11.667-11.666z" fill="#ffd2c0"/></g></g><g><g><path d="m171.408 87.526c1.552 1.981 2.478 4.477 2.478 7.189 0 6.245-4.907 11.343-11.075 11.652-.178.618-.371 1.229-.58 1.833.647.111 1.309.182 1.988.182 6.443 0 11.667-5.223 11.667-11.667 0-3.732-1.752-7.054-4.478-9.189z" fill="#fcc4ae"/></g></g><g><g><g><circle cx="110.979" cy="91.622" fill="#8c3f0a" r="4.388"/></g></g><g><g><circle cx="145.021" cy="91.622" fill="#8c3f0a" r="4.388"/></g></g></g><g><g><g><path d="m91.781 96.367v-6.356c-3.703 0-6.704 3.002-6.704 6.704s3.002 6.704 6.704 6.704c.236 0 .458-.046.688-.069-.442-2.262-.688-4.593-.688-6.983z" fill="#f2ad97"/></g></g><g><g><path d="m164.225 96.367v-6.356c3.702 0 6.704 3.002 6.704 6.704s-3.002 6.704-6.704 6.704c-.236 0-.458-.046-.688-.069.442-2.262.688-4.593.688-6.983z" fill="#f2ad97"/></g></g></g></g></g></g><g><g><g><g><path d="m125.193 111.607v-5.485c0-.667-.605-1.169-1.26-1.048l-14.751 2.743c-1.161.216-1.161 1.879 0 2.095l14.751 2.743c.655.121 1.26-.382 1.26-1.048z" fill="#8c3f0a"/></g></g><g><g><path d="m130.807 111.607v-5.485c0-.667.605-1.169 1.26-1.048l14.751 2.743c1.161.216 1.161 1.879 0 2.095l-14.751 2.743c-.655.121-1.26-.382-1.26-1.048z" fill="#8c3f0a"/></g></g></g></g></g></g><g><g><g><path d="m146.82 25.211-16.287 2.58c-3.417.896-17.649-2.223-21.288-2.58-10.035-1.59-19.289 6.484-20.67 18.035-.405-.255-.171 29.529-.171 29.529h79.258v-26.649c.089-12.688-9.944-22.729-20.842-20.915z" fill="#ffa91a"/></g></g><g><g><path d="m155.546 26.265c1.367 2.942 2.141 6.297 2.116 9.861v26.649h-69.313c.019 5.493.055 10 .055 10h79.258v-26.649c.064-9.144-5.13-16.914-12.116-19.861z" fill="#f79219"/></g></g><g><g><path d="m88.371 55.38h79.259v17.395h-79.259z" fill="#ef7816"/></g></g></g><g><g><path d="m192.391 82.108h-128.782c-2.577 0-4.666-2.089-4.666-4.666 0-2.577 2.089-4.666 4.666-4.666h128.781c2.577 0 4.667 2.089 4.667 4.666 0 2.577-2.089 4.666-4.666 4.666z" fill="#f79219"/></g></g><g><g><path d="m166.81 182.582h-77.62c-5.523 0-10 4.477-10 10v35.376h97.62v-35.376c0-5.522-4.477-10-10-10z" fill="#808285"/></g></g><g><g><path d="m166.81 182.582v35.377h-87.62v10h97.62v-35.377c0-5.522-4.477-10-10-10z" fill="#58595b"/></g></g><g><g><path d="m170.926 183.466c.568 1.255.884 2.649.884 4.116v35.377h-92.62v5h97.62v-35.377c0-4.055-2.414-7.547-5.884-9.116z" fill="#414042"/></g></g><g><g><path d="m89.52 148.256h14.861v34.326h-14.861z" fill="#808285"/></g></g><g><g><path d="m151.62 148.256h14.861v34.326h-14.861z" fill="#808285"/></g></g><g><g><circle cx="159.05" cy="188.106" fill="#58595b" r="4.229"/></g></g><g><g><circle cx="96.95" cy="188.106" fill="#58595b" r="4.229"/></g></g></g></svg>