<svg id="Layer_1" enable-background="new 0 0 256 256" height="512" viewBox="0 0 256 256" width="512" xmlns="http://www.w3.org/2000/svg"><g><g><g><g><g><g><path d="m223.767 128.148h-191.534v99.645c0 7.586 6.15 13.736 13.736 13.736h164.064c7.586 0 13.736-6.15 13.736-13.736v-99.645z" fill="#ffa91a"/></g></g><g><g><path d="m38.23 226.37c-1.1 0-2-.89-2-2v-40.62c0-1.11.9-2 2-2s2 .89 2 2v40.62c0 1.11-.9 2-2 2zm0-48.62c-1.1 0-2-.9-2-2 0-1.11.9-2 2-2s2 .89 2 2c0 1.1-.9 2-2 2z" fill="#ffc91d"/></g></g><g><g><path d="m213.767 128.148v89.645c0 7.586-6.15 13.735-13.736 13.735h-164.063c-1.145 0-2.252-.156-3.316-.42 1.485 5.981 6.875 10.42 13.316 10.42h164.064c7.586 0 13.736-6.15 13.736-13.735v-99.645z" fill="#f79219"/></g></g><g><g><path d="m218.767 128.148v94.645c0 7.586-6.15 13.735-13.736 13.735h-164.063c-2.509 0-4.853-.684-6.877-1.858 2.377 4.096 6.8 6.858 11.877 6.858h164.064c7.586 0 13.736-6.15 13.736-13.735v-99.645z" fill="#ef7816"/></g></g><g><g><g><path d="m44.993 165.935c-11.461 0-20.752-9.291-20.752-20.752v-17.035h41.503v17.035c.001 11.461-9.29 20.752-20.751 20.752z" fill="#8c3f0a"/></g></g><g><g><path d="m55.745 128.148v7.035c0 11.461-9.291 20.752-20.752 20.752-3.143 0-6.112-.719-8.782-1.97 3.31 7.065 10.464 11.97 18.782 11.97 11.461 0 20.752-9.291 20.752-20.752v-17.035z" fill="#7c3108"/></g></g><g><g><path d="m86.497 165.935c-11.461 0-20.752-9.291-20.752-20.752v-17.035h41.503v17.035c0 11.461-9.291 20.752-20.751 20.752z" fill="#8c3f0a"/></g></g><g><g><path d="m97.248 128.148v7.035c0 11.461-9.291 20.752-20.752 20.752-3.143 0-6.112-.719-8.782-1.97 3.31 7.065 10.464 11.97 18.782 11.97 11.461 0 20.752-9.291 20.752-20.752v-17.035z" fill="#7c3108"/></g></g><g><g><path d="m128 165.935c-11.461 0-20.752-9.291-20.752-20.752v-17.035h41.503v17.035c.001 11.461-9.29 20.752-20.751 20.752z" fill="#8c3f0a"/></g></g><g><g><path d="m138.752 128.148v7.035c0 11.461-9.291 20.752-20.752 20.752-3.143 0-6.112-.719-8.782-1.97 3.31 7.065 10.464 11.97 18.782 11.97 11.461 0 20.752-9.291 20.752-20.752v-17.035z" fill="#7c3108"/></g></g><g><g><path d="m169.503 165.935c-11.461 0-20.752-9.291-20.752-20.752v-17.035h41.503v17.035c.001 11.461-9.29 20.752-20.751 20.752z" fill="#8c3f0a"/></g></g><g><g><path d="m180.255 128.148v7.035c0 11.461-9.291 20.752-20.752 20.752-3.143 0-6.112-.719-8.782-1.97 3.31 7.065 10.464 11.97 18.782 11.97 11.461 0 20.752-9.291 20.752-20.752v-17.035z" fill="#7c3108"/></g></g><g><g><path d="m211.007 165.935c-11.461 0-20.752-9.291-20.752-20.752v-17.035h41.503v17.035c0 11.461-9.29 20.752-20.751 20.752z" fill="#8c3f0a"/></g></g><g><g><path d="m221.758 128.148v7.035c0 11.461-9.291 20.752-20.752 20.752-3.143 0-6.112-.719-8.782-1.97 3.31 7.065 10.464 11.97 18.782 11.97 11.461 0 20.752-9.291 20.752-20.752v-17.035z" fill="#7c3108"/></g></g></g><g><g><path d="m221.443 86.08h-185.397l-11.804 42.068h207.516z" fill="#8c3f0a"/></g></g><g><g><path d="m221.443 86.08h-7.548l7.863 32.068h-194.71l-2.806 10h207.516z" fill="#7c3108"/></g></g><g><g><path d="m212.508 69.049h-167.527c-4.935 0-8.935 4-8.935 8.935v8.097h185.397v-8.097c0-4.935-4-8.935-8.935-8.935z" fill="#995222"/></g></g></g></g><g><g><path d="m183.599 177.949h-111.198c-4.95 0-8.962 4.013-8.962 8.962v54.618h129.122v-54.618c0-4.95-4.013-8.962-8.962-8.962z" fill="#8c3f0a"/></g></g><g><g><path d="m63.439 231.529h129.122v10h-129.122z" fill="#6d2e03"/></g></g></g><g><g><g><g><circle cx="128" cy="64.659" fill="#ef7816" r="49.898"/></g></g></g><g><g><g><circle cx="128" cy="82.455" fill="#ffc91d" r="32.11"/></g></g><g><g><path d="m145.144 55.31c3.14 4.962 4.966 10.838 4.966 17.145 0 17.734-14.376 32.11-32.11 32.11-6.306 0-12.183-1.825-17.145-4.966 5.691 8.991 15.717 14.966 27.145 14.966 17.734 0 32.11-14.376 32.11-32.11 0-11.428-5.975-21.454-14.966-27.145z" fill="#ffa91a"/></g></g><g><g><g><path d="m127.999 29.497c-2.207 0-4.003 1.796-4.003 4.003v9.289c.187 5.295 7.818 5.299 8.006 0v-9.289c0-2.207-1.796-4.003-4.003-4.003z" fill="#ffc91d"/></g></g><g><g><path d="m165.773 45.144c-1.56-1.56-4.1-1.562-5.661 0l-6.569 6.569c-1.553 1.49-1.553 4.172 0 5.661 1.561 1.561 4.1 1.561 5.661 0l6.569-6.569c1.56-1.561 1.56-4.101 0-5.661z" fill="#ffc91d"/></g></g><g><g><path d="m102.456 51.712-6.569-6.569c-3.856-3.621-9.283 1.801-5.661 5.661 0 0 6.569 6.569 6.569 6.569 3.856 3.622 9.283-1.801 5.661-5.661z" fill="#ffc91d"/></g></g></g></g><g><g><g><path d="m127.999 114.557c-.116-27.459-22.411-49.682-49.897-49.683.117 27.459 22.411 49.682 49.897 49.683z" fill="#76a34f"/></g></g><g><g><path d="m108.037 74.852c6.216 8.283 9.915 18.563 9.962 29.704-11.232 0-21.595-3.715-29.935-9.979 9.102 12.13 23.602 19.978 39.935 19.979-.068-16.237-7.895-30.64-19.962-39.704z" fill="#648940"/></g></g><g><g><path d="m128.001 114.557c27.486 0 49.781-22.224 49.897-49.683-27.487 0-49.781 22.224-49.897 49.683z" fill="#76a34f"/></g></g><g><g><path d="m166.544 66.187c-4.343 18.353-18.812 32.777-37.189 37.056-.86 3.635-1.337 7.419-1.354 11.313 27.486 0 49.781-22.224 49.897-49.683-3.908.001-7.705.465-11.354 1.314z" fill="#648940"/></g></g></g></g></g></svg>