<svg id="Layer_1" enable-background="new 0 0 256 256" height="512" viewBox="0 0 256 256" width="512" xmlns="http://www.w3.org/2000/svg"><g><g><g><g><g><g><circle cx="128" cy="128" fill="#ffa91a" r="106.137"/></g></g><g><g><path d="m197.885 48.115c16.346 18.67 26.253 43.12 26.253 69.885 0 58.618-47.519 106.137-106.137 106.137-26.764 0-51.215-9.907-69.885-26.253 19.455 22.22 48.031 36.253 79.885 36.253 58.618 0 106.137-47.519 106.137-106.137-.001-31.854-14.033-60.43-36.253-79.885z" fill="#f79219"/></g></g><g><g><path d="m200.509 50.491c17.757 18.974 28.629 44.472 28.629 72.509 0 58.618-47.519 106.137-106.137 106.137-28.037 0-53.535-10.871-72.509-28.628 19.368 20.695 46.928 33.628 77.509 33.628 58.618 0 106.137-47.519 106.137-106.137-.001-30.581-12.934-58.141-33.629-77.509z" fill="#ef7816"/></g></g><g><g><path d="m27.86 130c-1.1 0-2-.9-2-2s.9-2 2-2c1.11 0 2 .9 2 2s-.89 2-2 2zm.32-7.99c-.05 0-.11 0-.16 0-.53-.05-1.02-.29-1.36-.7-.35-.41-.52-.92-.48-1.46 2.03-25.5 13.53-49.18 32.38-66.69 18.96-17.6 43.62-27.29 69.44-27.3 1.1 0 2 .9 2 2 0 1.11-.9 2-2 2-50.85 0-93.81 39.67-97.83 90.31-.08 1.03-.95 1.84-1.99 1.84z" fill="#ffc91d"/></g></g></g></g></g><g><g><g><circle cx="128" cy="128" fill="#478cf7" r="82.222"/></g></g></g><g><g><g><g><g><g><path d="m128 163.707c-1.011 0-1.832-.82-1.832-1.832v-86.997c0-1.011.82-1.832 1.832-1.832s1.832.82 1.832 1.832v86.997c0 1.012-.821 1.832-1.832 1.832z" fill="#f79219"/></g></g></g></g></g><g><g><g><g><g><g><path d="m168.809 153.218c-1.011 0-1.832-.82-1.832-1.832v-56.381c0-1.011.82-1.832 1.832-1.832s1.832.82 1.832 1.832v56.382c0 1.011-.82 1.831-1.832 1.831z" fill="#f79219"/></g></g></g></g></g><g><g><g><g><g><path d="m87.191 153.218c-1.011 0-1.832-.82-1.832-1.832v-56.381c0-1.011.82-1.832 1.832-1.832s1.832.82 1.832 1.832v56.382c-.001 1.011-.821 1.831-1.832 1.831z" fill="#f79219"/></g></g></g></g></g></g><g><g><g><g><path d="m127.279 84.477c.412.364 1.029.364 1.442 0 2.195-1.94 8.648-8.285 8.648-15.813s-6.453-13.872-8.648-15.813c-.412-.364-1.029-.364-1.442 0-2.195 1.94-8.648 8.285-8.648 15.813s6.453 13.873 8.648 15.813z" fill="#ffa91a"/></g></g></g><g><g><path d="m128.721 52.851c-.181-.16-.402-.25-.628-.269 2.198 2.921 4.276 6.811 4.276 11.082 0 7.528-6.453 13.872-8.648 15.813-.231.204-.526.294-.814.269 1.676 2.227 3.423 3.891 4.372 4.731.412.364 1.029.364 1.442 0 2.195-1.94 8.648-8.285 8.648-15.813 0-7.527-6.453-13.872-8.648-15.813z" fill="#f79219"/></g></g><g><g><g><g><path d="m145.002 82.435c.565.028 1.014.477 1.042 1.042.124 2.473.045 9.105-3.911 13.061s-10.588 4.035-13.061 3.911c-.565-.028-1.014-.477-1.042-1.042-.124-2.473-.045-9.105 3.911-13.061 3.956-3.957 10.588-4.036 13.061-3.911z" fill="#ffa91a"/></g></g></g><g><g><path d="m146.044 83.476c-.028-.565-.477-1.014-1.042-1.042-.912-.046-2.388-.064-4.088.13-.331 2.911-1.283 6.475-3.781 8.973s-6.062 3.45-8.973 3.781c-.193 1.699-.175 3.176-.13 4.088.028.565.477 1.014 1.042 1.042 2.473.124 9.105.045 13.061-3.911s4.035-10.588 3.911-13.061z" fill="#f79219"/></g></g><g><g><g><path d="m110.998 82.435c-.565.028-1.014.477-1.042 1.042-.124 2.473-.045 9.105 3.911 13.061s10.588 4.035 13.061 3.911c.565-.028 1.014-.477 1.042-1.042.124-2.473.045-9.105-3.911-13.061s-10.588-4.036-13.061-3.911z" fill="#ffa91a"/></g></g></g><g><g><path d="m124.059 86.345c-.868-.868-1.864-1.549-2.918-2.082 1.898 3.748 1.925 8.213 1.828 10.143-.028.565-.477 1.014-1.042 1.042-1.93.097-6.395.07-10.143-1.828.533 1.053 1.215 2.05 2.082 2.918 3.956 3.956 10.588 4.035 13.061 3.911.565-.028 1.014-.477 1.042-1.042.125-2.474.046-9.106-3.91-13.062z" fill="#f79219"/></g></g></g><g><g><g><g><path d="m145.002 104.501c.565.028 1.014.477 1.042 1.042.124 2.473.045 9.105-3.911 13.061s-10.588 4.035-13.061 3.911c-.565-.028-1.014-.477-1.042-1.042-.124-2.473-.045-9.105 3.911-13.061 3.956-3.957 10.588-4.035 13.061-3.911z" fill="#ffa91a"/></g></g></g><g><g><path d="m146.044 105.543c-.028-.565-.477-1.014-1.042-1.042-.912-.046-2.388-.064-4.088.13-.331 2.911-1.283 6.475-3.781 8.973s-6.062 3.45-8.973 3.781c-.193 1.699-.175 3.176-.13 4.088.028.565.477 1.014 1.042 1.042 2.473.124 9.105.045 13.061-3.911 3.956-3.957 4.035-10.589 3.911-13.061z" fill="#f79219"/></g></g><g><g><g><path d="m110.998 104.501c-.565.028-1.014.477-1.042 1.042-.124 2.473-.045 9.105 3.911 13.061s10.588 4.035 13.061 3.911c.565-.028 1.014-.477 1.042-1.042.124-2.473.045-9.105-3.911-13.061-3.956-3.957-10.588-4.035-13.061-3.911z" fill="#ffa91a"/></g></g></g><g><g><path d="m124.059 108.411c-.868-.868-1.864-1.549-2.918-2.082 1.898 3.748 1.925 8.213 1.828 10.143-.028.565-.477 1.014-1.042 1.042-1.93.097-6.395.07-10.143-1.828.533 1.053 1.215 2.05 2.082 2.918 3.956 3.956 10.588 4.035 13.061 3.911.565-.028 1.014-.477 1.042-1.042.125-2.474.046-9.106-3.91-13.062z" fill="#f79219"/></g></g></g><g><g><g><g><path d="m145.002 126.567c.565.028 1.014.477 1.042 1.042.124 2.473.045 9.105-3.911 13.061s-10.588 4.035-13.061 3.911c-.565-.028-1.014-.477-1.042-1.042-.124-2.473-.045-9.105 3.911-13.061s10.588-4.035 13.061-3.911z" fill="#ffa91a"/></g></g></g><g><g><path d="m146.044 127.609c-.028-.565-.477-1.014-1.042-1.042-.912-.046-2.388-.064-4.088.13-.331 2.911-1.283 6.475-3.781 8.973s-6.062 3.45-8.973 3.781c-.193 1.699-.175 3.176-.13 4.088.028.565.477 1.014 1.042 1.042 2.473.124 9.105.045 13.061-3.911s4.035-10.588 3.911-13.061z" fill="#f79219"/></g></g><g><g><g><path d="m110.998 126.567c-.565.028-1.014.477-1.042 1.042-.124 2.473-.045 9.105 3.911 13.061s10.588 4.035 13.061 3.911c.565-.028 1.014-.477 1.042-1.042.124-2.473.045-9.105-3.911-13.061s-10.588-4.035-13.061-3.911z" fill="#ffa91a"/></g></g></g><g><g><path d="m124.059 130.478c-.868-.868-1.864-1.549-2.918-2.082 1.898 3.748 1.925 8.213 1.828 10.143-.028.565-.477 1.014-1.042 1.042-1.93.097-6.395.07-10.143-1.828.533 1.053 1.215 2.05 2.082 2.918 3.956 3.956 10.588 4.035 13.061 3.911.565-.028 1.014-.477 1.042-1.042.125-2.474.046-9.106-3.91-13.062z" fill="#f79219"/></g></g></g><g><g><g><path d="m168.088 103.658c.412.364 1.029.364 1.442 0 2.195-1.94 8.648-8.285 8.648-15.813s-6.453-13.872-8.648-15.813c-.412-.364-1.029-.364-1.442 0-2.195 1.94-8.648 8.285-8.648 15.813s6.453 13.872 8.648 15.813z" fill="#ffa91a"/></g></g></g><g><g><path d="m169.53 72.032c-.181-.16-.402-.25-.628-.269 2.198 2.921 4.276 6.811 4.276 11.082 0 7.528-6.453 13.872-8.648 15.813-.231.204-.526.294-.814.269 1.676 2.227 3.423 3.891 4.372 4.731.412.365 1.029.365 1.442 0 2.195-1.94 8.648-8.285 8.648-15.813s-6.453-13.872-8.648-15.813z" fill="#f79219"/></g></g><g><g><g><g><path d="m185.811 104.501c.565.028 1.014.477 1.042 1.042.124 2.473.045 9.105-3.911 13.061s-10.588 4.035-13.061 3.911c-.565-.028-1.014-.477-1.042-1.042-.124-2.473-.045-9.105 3.911-13.061 3.956-3.957 10.588-4.035 13.061-3.911z" fill="#ffa91a"/></g></g></g><g><g><path d="m186.853 105.543c-.028-.565-.477-1.014-1.042-1.042-.911-.046-2.388-.064-4.088.13-.331 2.911-1.283 6.475-3.781 8.973s-6.062 3.45-8.973 3.781c-.193 1.699-.175 3.176-.13 4.088.028.565.477 1.014 1.042 1.042 2.473.124 9.105.045 13.061-3.911 3.956-3.957 4.035-10.589 3.911-13.061z" fill="#f79219"/></g></g><g><g><g><path d="m151.807 104.501c-.565.028-1.014.477-1.042 1.042-.124 2.473-.045 9.105 3.911 13.061s10.588 4.035 13.061 3.911c.565-.028 1.014-.477 1.042-1.042.124-2.473.045-9.105-3.911-13.061-3.956-3.957-10.588-4.035-13.061-3.911z" fill="#ffa91a"/></g></g></g><g><g><path d="m164.868 108.411c-.868-.868-1.864-1.549-2.918-2.082 1.898 3.748 1.925 8.213 1.828 10.143-.028.565-.477 1.014-1.042 1.042-1.93.097-6.395.07-10.143-1.828.533 1.053 1.215 2.05 2.082 2.918 3.956 3.956 10.588 4.035 13.061 3.911.565-.028 1.013-.477 1.042-1.042.125-2.474.046-9.106-3.91-13.062z" fill="#f79219"/></g></g></g><g><g><g><g><path d="m185.811 126.567c.565.028 1.014.477 1.042 1.042.124 2.473.045 9.105-3.911 13.061s-10.588 4.035-13.061 3.911c-.565-.028-1.014-.477-1.042-1.042-.124-2.473-.045-9.105 3.911-13.061s10.588-4.035 13.061-3.911z" fill="#ffa91a"/></g></g></g><g><g><path d="m186.853 127.609c-.028-.565-.477-1.014-1.042-1.042-.911-.046-2.388-.064-4.088.13-.331 2.911-1.283 6.475-3.781 8.973s-6.062 3.45-8.973 3.781c-.193 1.699-.175 3.176-.13 4.088.028.565.477 1.014 1.042 1.042 2.473.124 9.105.045 13.061-3.911s4.035-10.588 3.911-13.061z" fill="#f79219"/></g></g><g><g><g><path d="m151.807 126.567c-.565.028-1.014.477-1.042 1.042-.124 2.473-.045 9.105 3.911 13.061s10.588 4.035 13.061 3.911c.565-.028 1.014-.477 1.042-1.042.124-2.473.045-9.105-3.911-13.061s-10.588-4.035-13.061-3.911z" fill="#ffa91a"/></g></g></g><g><g><path d="m164.868 130.478c-.868-.868-1.864-1.549-2.918-2.082 1.898 3.748 1.925 8.213 1.828 10.143-.028.565-.477 1.014-1.042 1.042-1.93.097-6.395.07-10.143-1.828.533 1.053 1.215 2.05 2.082 2.918 3.956 3.956 10.588 4.035 13.061 3.911.565-.028 1.013-.477 1.042-1.042.125-2.474.046-9.106-3.91-13.062z" fill="#f79219"/></g></g></g><g><g><g><path d="m86.47 103.658c.412.364 1.029.364 1.442 0 2.195-1.94 8.648-8.285 8.648-15.813s-6.453-13.872-8.648-15.813c-.412-.364-1.029-.364-1.442 0-2.195 1.94-8.648 8.285-8.648 15.813s6.453 13.872 8.648 15.813z" fill="#ffa91a"/></g></g></g><g><g><path d="m87.912 72.032c-.181-.16-.402-.25-.628-.269 2.198 2.921 4.276 6.811 4.276 11.082 0 7.528-6.453 13.872-8.648 15.813-.231.204-.526.294-.814.269 1.676 2.227 3.423 3.891 4.372 4.731.412.365 1.029.365 1.442 0 2.195-1.94 8.648-8.285 8.648-15.813s-6.453-13.872-8.648-15.813z" fill="#f79219"/></g></g><g><g><g><g><path d="m104.193 104.501c.565.028 1.014.477 1.042 1.042.124 2.473.045 9.105-3.911 13.061s-10.588 4.035-13.061 3.911c-.565-.028-1.014-.477-1.042-1.042-.124-2.473-.045-9.105 3.911-13.061 3.956-3.957 10.588-4.035 13.061-3.911z" fill="#ffa91a"/></g></g></g><g><g><path d="m105.235 105.543c-.028-.565-.477-1.014-1.042-1.042-.912-.046-2.388-.064-4.088.13-.331 2.911-1.283 6.475-3.781 8.973s-6.062 3.45-8.973 3.781c-.193 1.699-.175 3.176-.13 4.088.028.565.477 1.014 1.042 1.042 2.473.124 9.105.045 13.061-3.911 3.956-3.957 4.035-10.589 3.911-13.061z" fill="#f79219"/></g></g><g><g><g><path d="m70.189 104.501c-.565.028-1.014.477-1.042 1.042-.124 2.473-.045 9.105 3.911 13.061s10.588 4.035 13.061 3.911c.565-.028 1.014-.477 1.042-1.042.124-2.473.045-9.105-3.911-13.061-3.956-3.957-10.588-4.035-13.061-3.911z" fill="#ffa91a"/></g></g></g><g><g><path d="m83.25 108.411c-.868-.868-1.864-1.549-2.918-2.082 1.898 3.748 1.925 8.213 1.828 10.143-.028.565-.477 1.014-1.042 1.042-1.93.097-6.395.07-10.143-1.828.533 1.053 1.215 2.05 2.082 2.918 3.956 3.956 10.588 4.035 13.061 3.911.565-.028 1.014-.477 1.042-1.042.125-2.474.046-9.106-3.91-13.062z" fill="#f79219"/></g></g></g><g><g><g><g><path d="m104.193 126.567c.565.028 1.014.477 1.042 1.042.124 2.473.045 9.105-3.911 13.061s-10.588 4.035-13.061 3.911c-.565-.028-1.014-.477-1.042-1.042-.124-2.473-.045-9.105 3.911-13.061s10.588-4.035 13.061-3.911z" fill="#ffa91a"/></g></g></g><g><g><path d="m105.235 127.609c-.028-.565-.477-1.014-1.042-1.042-.912-.046-2.388-.064-4.088.13-.331 2.911-1.283 6.475-3.781 8.973s-6.062 3.45-8.973 3.781c-.193 1.699-.175 3.176-.13 4.088.028.565.477 1.014 1.042 1.042 2.473.124 9.105.045 13.061-3.911s4.035-10.588 3.911-13.061z" fill="#f79219"/></g></g><g><g><g><path d="m70.189 126.567c-.565.028-1.014.477-1.042 1.042-.124 2.473-.045 9.105 3.911 13.061s10.588 4.035 13.061 3.911c.565-.028 1.014-.477 1.042-1.042.124-2.473.045-9.105-3.911-13.061s-10.588-4.035-13.061-3.911z" fill="#ffa91a"/></g></g></g><g><g><path d="m83.25 130.478c-.868-.868-1.864-1.549-2.918-2.082 1.898 3.748 1.925 8.213 1.828 10.143-.028.565-.477 1.014-1.042 1.042-1.93.097-6.395.07-10.143-1.828.533 1.053 1.215 2.05 2.082 2.918 3.956 3.956 10.588 4.035 13.061 3.911.565-.028 1.014-.477 1.042-1.042.125-2.474.046-9.106-3.91-13.062z" fill="#f79219"/></g></g></g></g></g><g><g><g><g><path d="m128 210.221c-.191-45.246-36.929-81.867-82.22-81.867.191 45.246 36.929 81.866 82.22 81.867z" fill="#76a34f"/></g></g><g><g><path d="m46.883 141.496c5.73 34.698 33.185 62.067 67.925 67.671-5.731-34.698-33.185-62.067-67.925-67.671z" fill="#648940"/></g></g><g><g><path d="m50.572 155.725c8.306 23.193 26.736 41.567 49.964 49.796-8.305-23.193-26.735-41.567-49.964-49.796z" fill="#5a7a39"/></g></g><g><g><path d="m83.154 196.925c12.898 8.409 28.301 13.296 44.846 13.296 45.199 0 81.879-36.47 82.219-81.589-51.97 2.95-97.728 29.117-127.065 68.293z" fill="#76a34f"/></g></g><g><g><path d="m128 210.221c40.468 0 74.107-29.236 80.95-67.738-44.297 6.123-83.173 29.221-109.848 62.516 8.99 3.375 18.728 5.222 28.898 5.222z" fill="#648940"/></g></g><g><g><path d="m128 210.221c34.668 0 64.324-21.456 76.415-51.814-33.635 8.237-63.363 26.428-85.883 51.274 3.107.356 6.266.54 9.468.54z" fill="#5a7a39"/></g></g></g></g></g></svg>