<svg id="Layer_1" enable-background="new 0 0 256 256" height="512" viewBox="0 0 256 256" width="512" xmlns="http://www.w3.org/2000/svg"><g><g><g><g><path d="m37.402 222.204c0 5.523 4.477 10 10 10h161.197c5.523 0 10-4.477 10-10v-188.408c0-5.523-4.477-10-10-10h-161.197c-5.523 0-10 4.477-10 10z" fill="#808285"/></g></g><g><g><path d="m43.399 136.99c-1.1 0-2-.891-2-2 0-1.101.9-2 2-2 1.101 0 2 .899 2 2 0 1.11-.899 2-2 2zm0-8c-1.1 0-2-.891-2-2v-93.19c.011-3.31 2.7-6 6-6h28.521c1.1 0 2 .89 2 2 0 1.1-.9 1.99-2 1.99h-28.521c-1.1.01-2 .899-2 2.01v93.19c0 1.11-.899 2-2 2z" fill="#939598"/></g></g><g><g><path d="m208.598 23.796v188.408c0 5.523-4.477 10-10 10h-161.196c0 5.523 4.477 10 10 10h161.197c5.523 0 10-4.477 10-10v-188.408c-.001-5.523-4.478-10-10.001-10z" fill="#58595b"/></g></g><g><g><path d="m212.708 24.686c.567 1.255.89 2.643.89 4.11v188.408c0 5.523-4.477 10-10 10h-161.196c-1.466 0-2.855-.323-4.11-.89 1.569 3.471 5.053 5.89 9.11 5.89h161.197c5.523 0 10-4.477 10-10v-188.408c-.001-4.057-2.42-7.541-5.891-9.11z" fill="#414042"/></g></g><g><g><path d="m65.729 202.358c-2.209 0-4-1.791-4-4v-145.846c0-2.209 1.791-4 4-4h125.846c2.209 0 4 1.791 4 4v145.846c0 2.209-1.791 4-4 4z" fill="#f1f2f2"/></g></g><g><g><path d="m191.575 48.512h-6v139.846c0 2.209-1.791 4-4 4h-119.846v6c0 2.209 1.791 4 4 4h125.846c2.209 0 4-1.791 4-4v-145.846c0-2.209-1.791-4-4-4z" fill="#d1d3d4"/></g></g><g><g><path d="m144.938 216.515h-23.726c-2.002 0-3.625-1.623-3.625-3.625 0-2.002 1.623-3.625 3.625-3.625h23.726c2.002 0 3.625 1.623 3.625 3.625 0 2.002-1.623 3.625-3.625 3.625z" fill="#58595b"/></g></g><g><g><path d="m173.721 177.064h-91.442c-2.209 0-4-1.791-4-4v-28.912c0-2.209 1.791-4 4-4h91.442c2.209 0 4 1.791 4 4v28.912c0 2.21-1.791 4-4 4z" fill="#76a34f"/></g></g><g><g><path d="m173.721 140.152h-1v27.913c0 2.209-1.791 4-4 4h-90.442v1c0 2.209 1.791 4 4 4h91.442c2.209 0 4-1.791 4-4v-28.913c0-2.209-1.791-4-4-4z" fill="#648940"/></g></g><g><g><g><path d="m166.875 190.334-15.836-15.836 9.497-6.371c1.345-.902.973-2.974-.603-3.351l-32.328-7.739c-1.348-.323-2.563.891-2.24 2.24l7.739 32.328c.377 1.575 2.448 1.948 3.351.603l6.371-9.497 15.836 15.836c.726.726 1.902.726 2.628 0l5.585-5.585c.725-.726.725-1.902 0-2.628z" fill="#ffa91a"/></g></g></g><g><g><g><path d="m146.039 169.498 5 5 9.497-6.371c1.345-.902.973-2.974-.603-3.351l-5.053-1.209z" fill="#f79219"/></g></g><g><g><path d="m166.875 190.334-5-5c.726.726.726 1.902 0 2.628l-5.585 5.585c-.726.726-1.902.726-2.628 0l-15.836-15.836-5.931 8.841 1.21 5.053c.377 1.575 2.448 1.948 3.351.603l6.371-9.497 15.836 15.836c.726.726 1.902.726 2.628 0l5.585-5.585c.724-.726.724-1.902-.001-2.628z" fill="#f79219"/></g></g></g></g><g><g><g><g><path d="m128 135.82c-1.381 0-2.5-1.119-2.5-2.5v-43.79c0-1.381 1.119-2.5 2.5-2.5s2.5 1.119 2.5 2.5v43.79c0 1.381-1.119 2.5-2.5 2.5z" fill="#5a7a39"/></g></g><g><g><path d="m128 129.264c-.64 0-1.279-.244-1.768-.732l-8.931-8.931c-.977-.977-.977-2.559 0-3.535s2.559-.977 3.535 0l7.163 7.163 7.163-7.163c.977-.977 2.559-.977 3.535 0s.977 2.559 0 3.535l-8.931 8.931c-.487.488-1.126.732-1.766.732z" fill="#5a7a39"/></g></g><g><g><path d="m128 112.319c-.64 0-1.279-.244-1.768-.732l-20.289-20.289c-.977-.977-.977-2.559 0-3.535s2.559-.977 3.535 0l18.522 18.521 18.521-18.521c.977-.977 2.559-.977 3.535 0s.977 2.559 0 3.535l-20.289 20.289c-.488.488-1.127.732-1.767.732z" fill="#5a7a39"/></g></g></g><g><g><g><g><path d="m104.641 101.944c-.812.03-1.458.676-1.487 1.487-.107 2.918.135 9.744 4.272 13.881s10.963 4.379 13.881 4.272c.812-.03 1.458-.676 1.487-1.487.107-2.918-.135-9.744-4.272-13.881-4.138-4.137-10.964-4.379-13.881-4.272z" fill="#76a34f"/></g></g><g><g><path d="m118.522 106.216c-.864-.864-1.846-1.558-2.885-2.115 2.108 3.934 2.242 8.688 2.157 10.996-.03.812-.676 1.458-1.487 1.487-2.308.085-7.062-.049-10.996-2.157.557 1.039 1.25 2.021 2.115 2.885 4.137 4.137 10.963 4.379 13.881 4.272.812-.029 1.458-.675 1.487-1.487.107-2.918-.135-9.743-4.272-13.881z" fill="#648940"/></g></g><g><g><path d="m151.359 101.944c.812.03 1.458.676 1.487 1.487.107 2.918-.135 9.744-4.272 13.881s-10.963 4.379-13.881 4.272c-.812-.03-1.458-.676-1.487-1.487-.107-2.918.135-9.744 4.272-13.881 4.138-4.137 10.964-4.379 13.881-4.272z" fill="#76a34f"/></g></g><g><g><path d="m152.847 103.431c-.03-.812-.676-1.458-1.487-1.488-.899-.033-2.169-.032-3.617.104-.308 3.252-1.305 7.401-4.168 10.264s-7.012 3.86-10.264 4.168c-.137 1.448-.137 2.718-.104 3.617.03.812.676 1.458 1.488 1.487 2.917.107 9.743-.135 13.881-4.272s4.378-10.962 4.271-13.88z" fill="#648940"/></g></g></g><g><g><path d="m126.933 95.785c.588.526 1.47.526 2.057 0 2.789-2.497 10.287-10.041 10.287-18.958s-7.498-16.461-10.287-18.958c-.588-.526-1.47-.526-2.057 0-2.789 2.497-10.287 10.041-10.287 18.958s7.498 16.46 10.287 18.958z" fill="#76a34f"/></g></g><g><g><path d="m134.354 63.765c1.147 2.463 1.924 5.191 1.924 8.062 0 8.917-7.498 16.461-10.287 18.958-.588.526-1.47.526-2.057 0-1.224-1.097-3.357-3.166-5.364-5.896 2.416 5.189 6.472 9.203 8.364 10.896.588.526 1.47.526 2.057 0 2.789-2.497 10.287-10.041 10.287-18.958-.001-5.003-2.36-9.573-4.924-13.062z" fill="#648940"/></g></g><g><g><g><path d="m160.51 75.821c.812.03 1.458.676 1.487 1.487.107 2.918-.135 9.744-4.272 13.881s-10.963 4.379-13.881 4.272c-.812-.03-1.458-.676-1.487-1.487-.107-2.918.135-9.744 4.272-13.881s10.964-4.379 13.881-4.272z" fill="#76a34f"/></g></g><g><g><path d="m161.998 77.309c-.03-.812-.676-1.458-1.488-1.487-.899-.033-2.169-.033-3.617.104-.308 3.252-1.305 7.401-4.168 10.264s-7.012 3.86-10.264 4.168c-.137 1.448-.137 2.718-.104 3.617.03.812.676 1.458 1.487 1.488 2.918.107 9.744-.135 13.881-4.272 4.138-4.139 4.38-10.965 4.273-13.882z" fill="#648940"/></g></g><g><g><path d="m95.49 75.821c-.812.03-1.458.676-1.487 1.487-.107 2.918.135 9.744 4.272 13.881s10.963 4.379 13.881 4.272c.812-.03 1.458-.676 1.487-1.487.107-2.918-.135-9.744-4.272-13.881s-10.964-4.379-13.881-4.272z" fill="#76a34f"/></g></g><g><g><path d="m109.371 80.094c-.864-.864-1.846-1.558-2.885-2.115 2.108 3.934 2.242 8.688 2.157 10.996-.03.812-.676 1.458-1.488 1.488-2.308.084-7.062-.05-10.996-2.158.557 1.039 1.25 2.021 2.115 2.885 4.137 4.137 10.963 4.379 13.881 4.272.812-.03 1.458-.676 1.488-1.488.107-2.917-.135-9.743-4.272-13.88z" fill="#648940"/></g></g></g></g></g></g></svg>