<svg id="Layer_1" enable-background="new 0 0 256 256" height="512" viewBox="0 0 256 256" width="512" xmlns="http://www.w3.org/2000/svg"><g><g><g><path d="m192.089 203.361h-128.178c-21.933-50.24-21.933-100.481 0-150.721h128.177c21.934 50.24 21.934 100.48.001 150.721z" fill="#8c3f0a"/></g></g><g><g><path d="m62.2 184.93c-.87 0-1.63-.55-1.9-1.38 0-.01 0-.01 0-.01-.17-.51-.12-1.05.13-1.53.24-.47.66-.82 1.17-.98 1.03-.33 2.18.27 2.51 1.29v.01c.16.51.11 1.05-.13 1.52-.25.48-.66.83-1.17.99-.2.06-.4.09-.61.09zm-2.27-7.67c-.9 0-1.69-.6-1.93-1.47-4.34-15.84-6.54-31.86-6.54-47.62 0-10.64.98-21.42 2.92-32.04 1.94-10.64 4.89-21.41 8.77-32.02.37-1 1.55-1.56 2.57-1.19 1.03.38 1.57 1.53 1.19 2.57-7.6 20.74-11.45 41.83-11.45 62.68 0 15.4 2.15 31.07 6.4 46.56.29 1.07-.34 2.17-1.4 2.46-.17.05-.35.07-.53.07z" fill="#995222"/></g></g><g><g><path d="m192.089 52.639h-15.931c17.761 46.907 16.409 93.814-4.069 140.721h-112.247c1.262 3.333 2.614 6.667 4.069 10h128.177c21.934-50.24 21.934-100.48.001-150.721z" fill="#7c3108"/></g></g><g><g><path d="m197.998 25.516h-139.996c-5.567 0-9.432 5.544-7.506 10.767l4.101 11.124c1.159 3.144 4.155 5.233 7.506 5.233h131.793c3.351 0 6.347-2.089 7.506-5.233l4.101-11.124c1.926-5.223-1.939-10.767-7.505-10.767z" fill="#ffa91a"/></g></g><g><g><path d="m200.564 25.946c.566 1.653.613 3.512-.06 5.337l-4.101 11.124c-1.159 3.144-4.155 5.233-7.506 5.233h-131.793c-.897 0-1.765-.16-2.582-.439l.076.207c1.159 3.144 4.155 5.233 7.506 5.233h131.793c3.351 0 6.347-2.089 7.506-5.233l4.101-11.124c1.611-4.371-.839-8.954-4.94-10.338z" fill="#f79219"/></g></g><g><g><path d="m197.998 230.484h-139.996c-5.567 0-9.432-5.544-7.506-10.767l4.101-11.124c1.159-3.144 4.155-5.233 7.506-5.233h131.793c3.351 0 6.347 2.089 7.506 5.233l4.101 11.124c1.926 5.223-1.939 10.767-7.505 10.767z" fill="#ffa91a"/></g></g><g><g><path d="m205.504 219.717-4.101-11.124c-.849-2.302-2.687-4.028-4.924-4.793l4.025 10.917c1.926 5.223-1.939 10.767-7.506 10.767h-139.996c-.909 0-1.766-.161-2.566-.431 1.055 3.079 3.944 5.431 7.566 5.431h139.995c5.567 0 9.432-5.544 7.507-10.767z" fill="#f79219"/></g></g><g><g><circle cx="128" cy="128" fill="#ffa91a" r="49.424"/></g></g><g><g><path d="m157.59 88.41c6.176 8.249 9.834 18.492 9.834 29.59 0 27.296-22.128 49.424-49.424 49.424-11.098 0-21.341-3.658-29.59-9.834 9.014 12.041 23.392 19.834 39.59 19.834 27.296 0 49.424-22.128 49.424-49.424 0-16.198-7.793-30.576-19.834-39.59z" fill="#f79219"/></g></g><g><g><path d="m160.349 90.651c7.516 8.67 12.075 19.974 12.075 32.349 0 27.296-22.128 49.424-49.424 49.424-12.375 0-23.679-4.559-32.349-12.075 9.062 10.454 22.428 17.075 37.349 17.075 27.296 0 49.424-22.128 49.424-49.424 0-14.921-6.621-28.287-17.075-37.349z" fill="#ef7816"/></g></g><g><g><g><g><path d="m128 169.653c-1.381 0-2.5-1.119-2.5-2.5v-45.209c0-1.381 1.119-2.5 2.5-2.5s2.5 1.119 2.5 2.5v45.209c0 1.381-1.119 2.5-2.5 2.5z" fill="#5a7a39"/></g></g><g><g><path d="m128 162.884c-.64 0-1.28-.244-1.768-.732l-9.22-9.22c-.977-.976-.977-2.559 0-3.535.976-.977 2.56-.977 3.535 0l7.453 7.452 7.453-7.452c.976-.977 2.56-.977 3.535 0 .977.976.977 2.559 0 3.535l-9.22 9.22c-.488.488-1.128.732-1.768.732z" fill="#5a7a39"/></g></g><g><g><path d="m128 145.39c-.64 0-1.28-.244-1.768-.732l-20.947-20.946c-.977-.976-.977-2.559 0-3.535.976-.977 2.56-.977 3.535 0l19.18 19.177 19.179-19.178c.976-.977 2.56-.977 3.535 0 .977.976.977 2.559 0 3.535l-20.946 20.946c-.488.489-1.128.733-1.768.733z" fill="#5a7a39"/></g></g></g><g><g><g><g><path d="m103.883 134.759c-.838.031-1.505.698-1.536 1.536-.111 3.012.139 10.059 4.411 14.331s11.319 4.521 14.331 4.411c.838-.031 1.505-.698 1.536-1.536.111-3.012-.139-10.059-4.411-14.331-4.271-4.271-11.319-4.521-14.331-4.411z" fill="#76a34f"/></g></g><g><g><path d="m152.117 134.759c.838.031 1.505.698 1.536 1.536.111 3.012-.139 10.059-4.411 14.331s-11.319 4.521-14.331 4.411c-.838-.031-1.505-.698-1.536-1.536-.111-3.012.139-10.059 4.411-14.331 4.271-4.271 11.318-4.521 14.331-4.411z" fill="#76a34f"/></g></g></g><g><g><path d="m126.938 128.4c.607.543 1.517.543 2.124 0 2.879-2.578 10.621-10.366 10.621-19.573s-7.741-16.995-10.621-19.573c-.607-.543-1.517-.543-2.124 0-2.879 2.578-10.621 10.366-10.621 19.573s7.742 16.995 10.621 19.573z" fill="#76a34f"/></g></g><g><g><g><path d="m161.564 107.79c.838.031 1.505.698 1.536 1.536.111 3.012-.139 10.059-4.411 14.331s-11.319 4.521-14.331 4.411c-.838-.031-1.505-.698-1.536-1.536-.111-3.012.139-10.059 4.411-14.331s11.319-4.522 14.331-4.411z" fill="#76a34f"/></g></g><g><g><path d="m94.436 107.79c-.838.031-1.505.698-1.536 1.536-.111 3.012.139 10.059 4.411 14.331s11.319 4.521 14.331 4.411c.838-.031 1.505-.698 1.536-1.536.111-3.012-.139-10.059-4.411-14.331s-11.319-4.522-14.331-4.411z" fill="#76a34f"/></g></g></g></g></g></g></svg>