<svg id="Layer_1" enable-background="new 0 0 256 256" height="512" viewBox="0 0 256 256" width="512" xmlns="http://www.w3.org/2000/svg"><g><g><g><g><circle cx="128" cy="138" fill="#ffa91a" r="103.976"/></g></g></g><g><g><path d="m196.353 59.647c15.957 18.276 25.624 42.186 25.624 68.353 0 57.425-46.552 103.977-103.976 103.977-26.167 0-50.077-9.667-68.353-25.624 19.06 21.831 47.096 35.624 78.353 35.624 57.425 0 103.976-46.552 103.976-103.977-.001-31.257-13.793-59.293-35.624-78.353z" fill="#f79219"/></g></g><g><g><path d="m198.98 62.02c17.367 18.582 27.997 43.54 27.997 70.98 0 57.425-46.552 103.977-103.976 103.977-27.44 0-52.398-10.63-70.98-27.997 18.976 20.304 45.996 32.997 75.98 32.997 57.425 0 103.976-46.552 103.976-103.977-.001-29.984-12.693-57.004-32.997-75.98z" fill="#ef7816"/></g></g><g><g><path d="m30.74 128.18c-.08 0-.17 0-.25-.01-.53-.07-1-.33-1.33-.75s-.48-.95-.41-1.48v-.01c.14-1.08 1.14-1.86 2.22-1.729.53.06 1 .329 1.33.75.33.42.48.939.42 1.47-.12 1.009-.98 1.759-1.98 1.759zm1.28-7.89c-.14 0-.28-.011-.41-.04-.52-.101-.97-.41-1.26-.851-.3-.449-.4-.989-.29-1.51 3.43-16.72 11.19-32.42 22.46-45.39 11.17-12.85 25.49-22.709 41.41-28.499 2.55-.931 5.17-1.76 7.78-2.471 1.04-.289 2.17.36 2.45 1.41.14.511.08 1.051-.19 1.511-.27.47-.7.8-1.21.939-2.51.68-5.02 1.48-7.45 2.37-.01 0-.01 0-.01 0l-.05.02c-31.16 11.341-54.64 38.511-61.27 70.91-.19.931-1.02 1.601-1.96 1.601z" fill="#ffc91d"/></g></g><g><g><g><g><path d="m128 198.704c-1.381 0-2.5-1.119-2.5-2.5v-117.674c0-1.381 1.119-2.5 2.5-2.5s2.5 1.119 2.5 2.5v117.674c0 1.381-1.119 2.5-2.5 2.5z" fill="#5a7a39"/></g></g><g><g><path d="m128 162.316c-.64 0-1.28-.244-1.768-.732l-19.498-19.497c-.977-.977-.977-2.559 0-3.535.976-.977 2.56-.977 3.535 0l17.731 17.729 17.73-17.729c.976-.977 2.56-.977 3.535 0 .977.977.977 2.559 0 3.535l-19.498 19.497c-.487.488-1.127.732-1.767.732z" fill="#5a7a39"/></g></g><g><g><path d="m128 125.324c-.64 0-1.28-.244-1.768-.732l-44.294-44.294c-.977-.977-.977-2.559 0-3.535.976-.977 2.56-.977 3.535 0l42.527 42.526 42.526-42.526c.976-.977 2.56-.977 3.535 0 .977.977.977 2.559 0 3.535l-44.294 44.294c-.487.488-1.127.732-1.767.732z" fill="#5a7a39"/></g></g></g><g><g><g><g><path d="m77.002 105.631c-1.772.065-3.182 1.475-3.247 3.247-.234 6.37.294 21.272 9.327 30.305s23.935 9.561 30.305 9.327c1.772-.065 3.182-1.475 3.247-3.247.234-6.37-.294-21.272-9.327-30.305s-23.935-9.561-30.305-9.327z" fill="#76a34f"/></g></g><g><g><path d="m107.307 114.958c-1.722-1.722-3.658-3.135-5.707-4.292 4.913 8.698 5.224 19.442 5.034 24.597-.065 1.772-1.475 3.182-3.247 3.247-5.155.189-15.899-.121-24.597-5.034 1.158 2.049 2.57 3.985 4.293 5.707 9.033 9.033 23.935 9.562 30.305 9.327 1.772-.065 3.182-1.475 3.247-3.247.233-6.37-.295-21.272-9.328-30.305z" fill="#648940"/></g></g><g><g><path d="m178.998 105.631c1.772.065 3.182 1.475 3.247 3.247.234 6.37-.294 21.272-9.327 30.305s-23.935 9.561-30.305 9.327c-1.772-.065-3.182-1.475-3.247-3.247-.234-6.37.294-21.272 9.327-30.305s23.935-9.561 30.305-9.327z" fill="#76a34f"/></g></g><g><g><path d="m182.245 108.878c-.065-1.772-1.475-3.182-3.247-3.247-1.752-.064-4.15-.071-6.894.141-.559 7.23-2.638 16.863-9.186 23.411s-16.18 8.627-23.411 9.186c-.212 2.744-.206 5.142-.141 6.894.065 1.772 1.475 3.182 3.247 3.247 6.37.234 21.272-.294 30.305-9.327s9.561-23.935 9.327-30.305z" fill="#648940"/></g></g></g><g><g><path d="m125.754 92.184c1.283 1.149 3.209 1.149 4.491 0 6.089-5.452 22.459-21.92 22.459-41.389s-16.37-35.937-22.459-41.389c-1.283-1.149-3.209-1.149-4.491 0-6.089 5.452-22.459 21.92-22.459 41.389s16.37 35.937 22.459 41.389z" fill="#76a34f"/></g></g><g><g><path d="m130.246 9.405c-1.283-1.148-3.209-1.148-4.491 0-.946.847-2.14 1.96-3.482 3.309 5.474 7.561 10.432 17.366 10.432 28.081 0 16.445-11.679 30.749-18.977 38.081 4.472 6.177 9.289 10.857 12.027 13.308 1.283 1.149 3.209 1.149 4.491 0 6.089-5.452 22.459-21.92 22.459-41.389-.001-19.469-16.37-35.938-22.459-41.39z" fill="#648940"/></g></g><g><g><g><path d="m198.976 48.601c1.772.065 3.182 1.475 3.247 3.247.234 6.37-.294 21.272-9.327 30.305s-23.935 9.561-30.305 9.327c-1.772-.065-3.182-1.475-3.247-3.247-.234-6.37.294-21.272 9.327-30.305s23.935-9.561 30.305-9.327z" fill="#76a34f"/></g></g><g><g><path d="m202.223 51.848c-.065-1.772-1.475-3.182-3.247-3.247-1.752-.064-4.15-.071-6.894.141-.559 7.23-2.638 16.863-9.186 23.411s-16.18 8.627-23.411 9.186c-.212 2.744-.206 5.142-.141 6.894.065 1.772 1.475 3.182 3.247 3.247 6.37.234 21.272-.294 30.305-9.327s9.561-23.935 9.327-30.305z" fill="#648940"/></g></g><g><g><path d="m57.024 48.601c-1.772.065-3.182 1.475-3.247 3.247-.234 6.37.294 21.272 9.327 30.305s23.935 9.561 30.305 9.327c1.772-.065 3.182-1.475 3.247-3.247.234-6.37-.294-21.272-9.327-30.305s-23.935-9.561-30.305-9.327z" fill="#76a34f"/></g></g><g><g><path d="m87.329 57.928c-1.722-1.722-3.658-3.135-5.707-4.292 4.914 8.698 5.224 19.442 5.035 24.597-.065 1.772-1.475 3.182-3.247 3.247-5.155.189-15.899-.121-24.597-5.034 1.158 2.049 2.57 3.985 4.293 5.707 9.033 9.033 23.935 9.561 30.305 9.327 1.772-.065 3.182-1.475 3.247-3.247.232-6.37-.296-21.273-9.329-30.305z" fill="#648940"/></g></g></g></g></g><g><g><g><path d="m128 241.975c-.242-57.218-46.699-103.527-103.974-103.528.242 57.217 46.7 103.527 103.974 103.528z" fill="#76a34f"/></g></g><g><g><path d="m25.42 155.067c7.247 43.878 41.965 78.489 85.897 85.575-7.246-43.878-41.964-78.489-85.897-85.575z" fill="#648940"/></g></g><g><g><path d="m30.086 173.06c10.503 29.329 33.809 52.564 63.184 62.972-10.503-29.329-33.81-52.565-63.184-62.972z" fill="#5a7a39"/></g></g><g><g><path d="m71.289 225.161c16.31 10.634 35.789 16.813 56.711 16.813 57.157 0 103.543-46.12 103.973-103.176-65.721 3.732-123.585 36.823-160.684 86.363z" fill="#76a34f"/></g></g><g><g><path d="m128 241.975c51.175 0 93.715-36.971 102.368-85.661-56.018 7.744-105.179 36.953-138.912 79.057 11.369 4.269 23.684 6.604 36.544 6.604z" fill="#648940"/></g></g><g><g><path d="m128 241.975c43.841 0 81.344-27.133 96.633-65.522-42.535 10.417-80.128 33.421-108.606 64.84 3.929.45 7.924.682 11.973.682z" fill="#5a7a39"/></g></g></g></g></svg>