<svg id="Layer_1" enable-background="new 0 0 256 256" height="512" viewBox="0 0 256 256" width="512" xmlns="http://www.w3.org/2000/svg"><g><g><g><path d="m204.526 32.496h-153.052c-4.418 0-8 3.582-8 8v30.113c0 4.418 3.582 8 8 8h153.053c4.418 0 8-3.582 8-8v-30.113c-.001-4.419-3.582-8-8.001-8z" fill="#f79219"/></g></g><g><g><path d="m204.526 32.496h-12v28.113c0 4.418-3.582 8-8 8h-141.052v2c0 4.418 3.582 8 8 8h153.053c4.418 0 8-3.582 8-8v-30.113c-.001-4.419-3.582-8-8.001-8z" fill="#ef7816"/></g></g><g><g><g><path d="m202.994 78.608c-13.999 40.907-11.723 86.82 0 135.64h-149.988c11.723-48.82 13.999-94.733 0-135.64z" fill="#fcc4ae"/></g></g></g><g><g><path d="m63.21 197.229c-.12 0-.24-.01-.37-.029-.52-.101-.98-.391-1.28-.841-.3-.439-.41-.97-.32-1.489.01-.011.01-.011.01-.011.2-1.06 1.26-1.8 2.33-1.59 1.08.2 1.8 1.25 1.6 2.33-.18.951-1.01 1.63-1.97 1.63zm1.39-7.879c-.11 0-.22-.01-.33-.02-.53-.09-.99-.38-1.3-.811-.31-.439-.44-.97-.35-1.489 2.69-16.341 4.05-32.021 4.05-46.601 0-19.7-2.49-38.3-7.4-55.27-.15-.511-.09-1.051.17-1.521.25-.46.68-.8 1.19-.95 1.04-.31 2.18.33 2.48 1.36 2.51 8.68 4.42 17.81 5.67 27.15s1.89 19.17 1.89 29.229c0 14.8-1.38 30.69-4.1 47.23v.02c-.16.972-.99 1.673-1.97 1.673z" fill="#ffd2c0"/></g></g><g><g><path d="m202.994 78.608h-13.074c-10.495 38.336-7.703 80.76 3.074 125.64h-137.713c-.713 3.319-1.472 6.653-2.276 10h149.988c-11.722-48.82-13.998-94.733.001-135.64z" fill="#f2ad97"/></g></g><g><g><path d="m202.994 78.608h-6.622c-12.176 39.634-9.625 83.799 1.622 130.64h-143.819c-.379 1.663-.768 3.33-1.169 5h149.988c-11.723-48.82-13.999-94.733 0-135.64z" fill="#e59076"/></g></g><g><g><path d="m207.977 231.37h-159.954c-4.728 0-8.561-3.833-8.561-8.561 0-4.728 3.833-8.561 8.561-8.561h159.954c4.728 0 8.561 3.833 8.561 8.561 0 4.728-3.833 8.561-8.561 8.561z" fill="#f79219"/></g></g><g><g><path d="m210.991 214.794c.353.938.546 1.954.546 3.015 0 4.728-3.833 8.561-8.561 8.561h-159.953c-1.061 0-2.077-.194-3.014-.546 1.219 3.241 4.347 5.546 8.014 5.546h159.954c4.728 0 8.561-3.833 8.561-8.561 0-3.667-2.306-6.795-5.547-8.015z" fill="#ef7816"/></g></g><g><g><g><g><g><path d="m97.656 190.094c-.862 0-1.659-.563-1.917-1.432-.314-1.06.29-2.173 1.349-2.486 32.895-9.761 59.7-32.653 66.701-56.966.306-1.061 1.413-1.675 2.476-1.368 1.062.306 1.674 1.414 1.368 2.476-7.363 25.571-35.255 49.56-69.407 59.692-.19.056-.381.084-.57.084z" fill="#ef7816"/></g></g><g><g><g><g><path d="m161.607 118.269c-1.772 6.039-.269 12.213.933 15.665.518 1.486 2.346 2.023 3.585 1.052 2.877-2.254 7.478-6.637 9.25-12.676s.269-12.213-.933-15.665c-.518-1.486-2.346-2.023-3.585-1.052-2.877 2.254-7.477 6.636-9.25 12.676z" fill="#f79219"/></g></g><g><g><g><path d="m165.366 140.681c-6.144 2.229-9.433 8.7-9.433 8.7s6.673 2.856 12.817.627c3.927-1.425 6.688-4.583 8.169-6.676.722-1.02.204-2.446-1.004-2.766-2.478-.658-6.621-1.31-10.549.115z" fill="#f79219"/></g></g><g><g><path d="m147.233 139.947c2.229 6.144 8.7 9.433 8.7 9.433s2.856-6.673.627-12.817c-1.425-3.927-4.583-6.688-6.676-8.169-1.02-.722-2.446-.204-2.766 1.004-.657 2.479-1.31 6.622.115 10.549z" fill="#f79219"/></g></g></g><g><g><g><path d="m148.471 162.804c-6.51.58-11.348 5.992-11.348 5.992s5.718 4.471 12.228 3.891c4.162-.371 7.639-2.716 9.607-4.359.959-.801.824-2.312-.261-2.931-2.227-1.271-6.065-2.964-10.226-2.593z" fill="#f79219"/></g></g><g><g><path d="m131.131 157.448c.58 6.51 5.992 11.348 5.992 11.348s4.471-5.718 3.891-12.228c-.371-4.162-2.716-7.639-4.36-9.607-.801-.959-2.312-.824-2.931.261-1.27 2.226-2.963 6.064-2.592 10.226z" fill="#f79219"/></g></g></g><g><g><g><path d="m127.182 179.02c-6.401-1.324-12.594 2.461-12.594 2.461s4.184 5.931 10.585 7.255c4.091.846 8.098-.395 10.457-1.401 1.149-.49 1.457-1.976.596-2.882-1.767-1.858-4.953-4.587-9.044-5.433z" fill="#f79219"/></g></g><g><g><path d="m112.126 168.887c-1.324 6.401 2.461 12.594 2.461 12.594s5.931-4.184 7.255-10.585c.846-4.091-.395-8.098-1.401-10.457-.49-1.149-1.976-1.457-2.882-.596-1.858 1.767-4.587 4.953-5.433 9.044z" fill="#f79219"/></g></g></g></g></g></g></g><g><g><g><g><path d="m90.29 160.029c-.183 0-.37-.025-.554-.079-1.062-.306-1.674-1.414-1.369-2.476 7.363-25.571 35.256-49.561 69.406-59.693 1.063-.316 2.172.289 2.486 1.348.314 1.06-.289 2.173-1.348 2.486-32.896 9.761-59.7 32.653-66.701 56.967-.252.876-1.051 1.447-1.92 1.447z" fill="#ef7816"/></g></g><g><g><g><g><path d="m94.393 169.523c1.772-6.039.269-12.213-.933-15.665-.518-1.486-2.346-2.023-3.585-1.052-2.877 2.254-7.478 6.637-9.25 12.676s-.269 12.213.933 15.665c.518 1.486 2.346 2.023 3.585 1.052 2.877-2.255 7.477-6.637 9.25-12.676z" fill="#f79219"/></g></g><g><g><g><path d="m90.634 147.111c6.144-2.229 9.433-8.7 9.433-8.7s-6.673-2.856-12.817-.627c-3.927 1.425-6.688 4.583-8.169 6.676-.722 1.02-.204 2.446 1.004 2.766 2.478.657 6.621 1.31 10.549-.115z" fill="#f79219"/></g></g><g><g><path d="m108.767 147.844c-2.229-6.144-8.7-9.433-8.7-9.433s-2.856 6.673-.627 12.817c1.425 3.927 4.583 6.688 6.676 8.169 1.02.722 2.446.204 2.766-1.004.657-2.478 1.31-6.622-.115-10.549z" fill="#f79219"/></g></g></g><g><g><g><path d="m107.529 124.988c6.51-.58 11.348-5.992 11.348-5.992s-5.718-4.471-12.228-3.891c-4.162.371-7.639 2.716-9.607 4.36-.959.801-.824 2.312.261 2.931 2.227 1.269 6.065 2.962 10.226 2.592z" fill="#f79219"/></g></g><g><g><path d="m124.869 130.344c-.58-6.51-5.992-11.348-5.992-11.348s-4.471 5.718-3.891 12.228c.371 4.162 2.716 7.639 4.359 9.607.801.959 2.312.824 2.931-.261 1.271-2.227 2.964-6.065 2.593-10.226z" fill="#f79219"/></g></g></g><g><g><g><path d="m128.818 108.771c6.401 1.324 12.594-2.461 12.594-2.461s-4.184-5.931-10.585-7.255c-4.091-.846-8.098.395-10.457 1.401-1.149.49-1.457 1.976-.596 2.882 1.767 1.858 4.953 4.587 9.044 5.433z" fill="#f79219"/></g></g><g><g><path d="m143.874 118.904c1.324-6.401-2.461-12.594-2.461-12.594s-5.931 4.184-7.255 10.585c-.846 4.091.395 8.098 1.401 10.457.49 1.149 1.976 1.457 2.882.596 1.858-1.767 4.587-4.952 5.433-9.044z" fill="#f79219"/></g></g></g></g></g></g></g></g></g></svg>