<svg id="Layer_1" enable-background="new 0 0 256 256" height="512" viewBox="0 0 256 256" width="512" xmlns="http://www.w3.org/2000/svg"><g><g><g><g><g><path d="m181.854 58.41c-.005 0-.009 0-.014 0-1.381-.008-2.494-1.133-2.486-2.514l.023-4.194c.011-2.024-.815-4.004-2.39-5.724-.932-1.018-.862-2.6.156-3.531 1.019-.933 2.6-.862 3.532.156 2.438 2.664 3.719 5.819 3.701 9.125l-.023 4.195c-.007 1.377-1.124 2.487-2.499 2.487z" fill="#8c3f0a"/></g></g><g><g><g><path d="m193.539 39.396c-4.829.455-8.717 4.208-10.693 6.536-.866 1.02-.721 2.559.321 3.4 2.376 1.918 6.897 4.878 11.726 4.422 4.829-.455 8.717-4.208 10.693-6.536.866-1.02.721-2.559-.321-3.4-2.376-1.918-6.897-4.877-11.726-4.422z" fill="#76a34f"/></g></g></g><g><g><path d="m205.265 43.818c-1.031-.832-2.465-1.859-4.152-2.719-.072.4-.246.787-.527 1.119-1.976 2.328-5.863 6.081-10.693 6.536-2.735.258-5.37-.58-7.574-1.703-.148.829.146 1.713.848 2.28 2.376 1.918 6.897 4.877 11.726 4.422 4.829-.456 8.717-4.208 10.693-6.536.865-1.02.72-2.559-.321-3.399z" fill="#648940"/></g></g><g><g><path d="m200.648 73.653v-1.269c0-9.106-7.382-16.487-16.487-16.487-9.106 0-16.487 7.382-16.487 16.487v1.268c0 3.843-1.324 7.581-3.798 10.522-3.995 4.749-6.354 10.92-6.202 17.647.32 14.146 11.915 25.657 26.063 25.878 14.826.232 26.918-11.717 26.918-26.491 0-6.472-2.323-12.398-6.179-16.998-2.479-2.957-3.828-6.698-3.828-10.557z" fill="#76a34f"/></g></g><g><g><path d="m204.476 84.211c-2.479-2.958-3.828-6.699-3.828-10.558v-1.269c0-9.105-7.382-16.487-16.487-16.487-1.589 0-3.125.225-4.578.645.689 1.816 1.065 3.786 1.065 5.843v1.269c0 3.859 1.349 7.6 3.828 10.558 3.855 4.6 6.179 10.526 6.179 16.998 0 14.773-12.092 26.723-26.918 26.491-.091-.001-.182-.003-.273-.006 4.788 5.988 12.105 9.878 20.273 10.006 14.826.232 26.918-11.717 26.918-26.491 0-6.473-2.323-12.399-6.179-16.999z" fill="#648940"/></g></g></g><g><g><g><path d="m78.791 76.788c-1.064 0-1.928-.859-1.934-1.923l-.029-5.441c-.027-3.837 1.135-7.588 3.326-10.737.609-.878 1.814-1.096 2.692-.487s1.096 1.814.487 2.692c-1.738 2.496-2.659 5.469-2.639 8.51l.029 5.441c.006 1.068-.856 1.939-1.924 1.944z" fill="#8c3f0a"/></g></g><g><g><path d="m90.151 70.603c-4.171.024-8.198 1.531-11.36 4.251-3.191-2.686-7.234-4.149-11.405-4.127-9.918.053-17.914 8.377-17.859 18.592s8.232 35.267 18.15 35.214c4.321-.023 18.445.023 22.766 0 9.918-.053 17.822-25.315 17.767-35.531s-8.141-18.449-18.059-18.399z" fill="#e63950"/></g></g><g><g><path d="m108.209 89.002c-.056-10.216-8.14-18.449-18.058-18.399-1.267.007-2.52.152-3.74.425 1.138 2.411 1.782 5.115 1.798 7.974.056 10.215-7.848 35.478-17.767 35.531-2.529.013-8.418.003-13.733-.003 3.056 5.747 6.862 10.025 10.967 10.003 4.321-.023 18.445.023 22.766 0 9.919-.054 17.823-25.316 17.767-35.531z" fill="#d10028"/></g></g><g><g><path d="m74.149 55.401c3.196 2.056 4.471 6.152 4.939 8.333.176.825-.346 1.638-1.17 1.82-2.178.478-6.434 1.016-9.631-1.04-3.197-2.055-4.471-6.152-4.939-8.333-.176-.825.346-1.638 1.17-1.82 2.181-.478 6.437-1.016 9.631 1.04z" fill="#76a34f"/></g></g><g><g><path d="m79.088 63.733c-.468-2.181-1.743-6.276-4.939-8.333-.46-.296-.941-.538-1.436-.734.732 1.505 1.148 3.011 1.374 4.067.176.825-.346 1.638-1.17 1.82-1.865.409-5.254.862-8.196-.307.779 1.604 1.916 3.207 3.565 4.267 3.197 2.055 7.452 1.518 9.631 1.04.824-.181 1.347-.994 1.171-1.82z" fill="#648940"/></g></g><g><g><path d="m86.867 47.577c-4.744 3.052-6.434 9.344-6.968 12.149-.155.806.351 1.592 1.149 1.785 2.775.678 9.2 1.748 13.945-1.303s6.433-9.344 6.968-12.146c.155-.807-.35-1.593-1.149-1.786-2.775-.679-9.201-1.75-13.945 1.301z" fill="#76a34f"/></g></g><g><g><path d="m100.812 46.277c-1.056-.258-2.64-.574-4.459-.697-.909 3.109-2.75 7.307-6.36 9.629-2.94 1.89-6.524 2.198-9.486 1.998-.286.978-.48 1.848-.608 2.519-.155.806.351 1.592 1.149 1.786 2.775.678 9.201 1.748 13.945-1.303 4.745-3.051 6.433-9.344 6.968-12.146.155-.806-.351-1.593-1.149-1.786z" fill="#648940"/></g></g></g><g><g><g><g><path d="m135.034 85.033c-1.438 0-2.603-1.165-2.603-2.603v-3.18c0-9.882 3.848-19.173 10.836-26.161l3.522-3.522c1.016-1.016 2.665-1.016 3.681 0 1.017 1.016 1.017 2.665 0 3.681l-3.522 3.522c-6.004 6.004-9.311 13.988-9.311 22.48v3.18c0 1.438-1.165 2.603-2.603 2.603z" fill="#8c3f0a"/></g></g></g><g><g><g><circle cx="134.584" cy="143.464" fill="#a54af4" r="15.473"/></g></g><g><g><path d="m139.319 128.729c.479 1.492.738 3.083.738 4.735 0 8.546-6.928 15.473-15.473 15.473-1.652 0-3.243-.259-4.735-.738 2 6.229 7.841 10.738 14.735 10.738 8.546 0 15.473-6.927 15.473-15.473.001-6.895-4.508-12.735-10.738-14.735z" fill="#893add"/></g></g><g><g><g><circle cx="107.837" cy="107.482" fill="#a54af4" r="15.473"/></g></g><g><g><path d="m112.572 92.747c.479 1.492.738 3.083.738 4.735 0 8.546-6.928 15.473-15.473 15.473-1.652 0-3.243-.259-4.735-.738 2 6.229 7.841 10.738 14.735 10.738 8.546 0 15.473-6.927 15.473-15.473 0-6.894-4.508-12.735-10.738-14.735z" fill="#893add"/></g></g><g><g><circle cx="161.332" cy="107.482" fill="#a54af4" r="15.473"/></g></g><g><g><path d="m166.067 92.747c.479 1.492.738 3.083.738 4.735 0 8.546-6.928 15.473-15.473 15.473-1.652 0-3.243-.259-4.735-.738 2 6.229 7.841 10.738 14.735 10.738 8.546 0 15.473-6.927 15.473-15.473 0-6.894-4.509-12.735-10.738-14.735z" fill="#893add"/></g></g></g><g><g><g><circle cx="120.406" cy="124.188" fill="#a54af4" r="15.473"/></g></g><g><g><path d="m125.141 109.452c.479 1.493.738 3.084.738 4.735 0 8.546-6.928 15.473-15.473 15.473-1.652 0-3.243-.259-4.735-.738 2 6.229 7.841 10.738 14.735 10.738 8.546 0 15.473-6.927 15.473-15.473 0-6.894-4.509-12.734-10.738-14.735z" fill="#893add"/></g></g><g><g><circle cx="148.763" cy="124.188" fill="#a54af4" r="15.473"/></g></g><g><g><path d="m153.498 109.452c.479 1.493.738 3.084.738 4.735 0 8.546-6.928 15.473-15.473 15.473-1.652 0-3.243-.259-4.735-.738 2 6.229 7.841 10.738 14.735 10.738 8.546 0 15.473-6.927 15.473-15.473 0-6.894-4.509-12.734-10.738-14.735z" fill="#893add"/></g></g></g><g><g><circle cx="134.584" cy="102.339" fill="#a54af4" r="15.473"/></g></g><g><g><path d="m139.319 87.604c.479 1.492.738 3.083.738 4.735 0 8.545-6.928 15.473-15.473 15.473-1.652 0-3.243-.259-4.735-.738 2 6.229 7.841 10.738 14.735 10.738 8.546 0 15.473-6.928 15.473-15.473.001-6.894-4.508-12.735-10.738-14.735z" fill="#893add"/></g></g><g><g><g><circle cx="120.539" cy="86.461" fill="#a54af4" r="15.473"/></g></g><g><g><path d="m125.274 71.726c.479 1.493.738 3.084.738 4.735 0 8.546-6.928 15.473-15.473 15.473-1.652 0-3.243-.259-4.735-.738 2 6.229 7.841 10.738 14.735 10.738 8.546 0 15.473-6.927 15.473-15.473.001-6.894-4.508-12.735-10.738-14.735z" fill="#893add"/></g></g><g><g><circle cx="148.629" cy="86.461" fill="#a54af4" r="15.473"/></g></g><g><g><path d="m153.365 71.726c.479 1.492.738 3.083.738 4.735 0 8.546-6.928 15.473-15.473 15.473-1.652 0-3.243-.259-4.735-.738 2 6.229 7.841 10.738 14.735 10.738 8.546 0 15.473-6.927 15.473-15.473 0-6.894-4.509-12.735-10.738-14.735z" fill="#893add"/></g></g></g></g><g><g><g><path d="m138.027 62.674c-.031 1.034-.863 1.866-1.896 1.896-3.397.1-10.868-.257-15.433-4.823s-4.923-12.036-4.823-15.433c.031-1.034.863-1.866 1.896-1.896 3.397-.1 10.868.257 15.433 4.823s4.923 12.036 4.823 15.433z" fill="#76a34f"/></g></g></g><g><g><path d="m133.205 47.241c-.86-.86-1.823-1.571-2.843-2.157 2.527 4.393 2.747 9.833 2.665 12.59-.031 1.034-.863 1.866-1.896 1.896-2.757.082-8.198-.139-12.59-2.666.586 1.02 1.297 1.983 2.157 2.843 4.566 4.566 12.036 4.923 15.433 4.823 1.034-.03 1.866-.862 1.896-1.896.1-3.398-.257-10.868-4.822-15.433z" fill="#648940"/></g></g></g></g><g><g><path d="m213.26 223.355h-170.52c-3.314 0-6-2.686-6-6v-101.183c0-3.314 2.686-6 6-6h170.52c3.314 0 6 2.686 6 6v101.182c0 3.314-2.687 6.001-6 6.001z" fill="#8c3f0a"/></g></g><g><g><path d="m213.26 110.172h-4v97.182c0 3.313-2.686 6-6 6h-166.52v4c0 3.313 2.686 6 6 6h170.52c3.314 0 6-2.687 6-6v-101.182c0-3.314-2.687-6-6-6z" fill="#7c3108"/></g></g><g><g><path d="m214.188 110.244c.047.303.072.613.072.929v101.182c0 3.313-2.686 6-6 6h-170.52c-.316 0-.626-.024-.928-.072.446 2.873 2.931 5.072 5.928 5.072h170.52c3.314 0 6-2.687 6-6v-101.183c0-2.998-2.199-5.482-5.072-5.928z" fill="#6d2e03"/></g></g><g><g><g><path d="m36.74 118.964h182.519v17.684h-182.519z" fill="#7c3108"/></g></g><g><g><path d="m36.74 157.239h182.519v17.684h-182.519z" fill="#7c3108"/></g></g><g><g><path d="m36.74 190.935h182.519v17.684h-182.519z" fill="#7c3108"/></g></g></g><g><g><g><circle cx="128" cy="201.366" fill="#939598" r="47.571"/></g></g><g><g><path d="m159.045 165.322c7.183 8.332 11.526 19.181 11.526 31.044 0 26.272-21.298 47.571-47.57 47.571-11.864 0-22.713-4.343-31.045-11.526 8.724 10.119 21.636 16.526 36.045 16.526 26.272 0 47.57-21.298 47.57-47.571-.001-14.408-6.407-27.321-16.526-36.044z" fill="#808285"/></g></g><g><g><circle cx="128" cy="201.366" fill="#995222" r="34.108"/></g></g><g><g><circle cx="128" cy="201.366" fill="#7c3108" r="27.331"/></g></g><g><g><path d="m141.671 177.695c2.327 4.021 3.66 8.69 3.66 13.671 0 15.095-12.236 27.331-27.331 27.331-4.98 0-9.65-1.333-13.671-3.66 4.726 8.166 13.557 13.66 23.671 13.66 15.094 0 27.331-12.236 27.331-27.331 0-10.114-5.494-18.944-13.66-23.671z" fill="#6d2e03"/></g></g></g><g><g><path d="m18.899 131.006h17.841v-13.45h-17.841c-3.714 0-6.725 3.011-6.725 6.725 0 3.714 3.011 6.725 6.725 6.725z" fill="#8c3f0a"/></g></g><g><g><path d="m31.74 117.555v8.45h-17.841c-.532 0-1.05-.062-1.546-.179.699 2.969 3.364 5.179 6.546 5.179h17.841v-13.45z" fill="#7c3108"/></g></g><g><g><g><path d="m125.583 170.216h4.833v62.301h-4.833z" fill="#995222"/></g></g><g><g><path d="m125.583 170.216h4.833v62.301h-4.833z" fill="#995222" transform="matrix(0 1 -1 0 329.366 73.366)"/></g></g></g><g><g><g><path d="m125.583 170.216h4.833v62.301h-4.833z" fill="#995222" transform="matrix(.707 .707 -.707 .707 179.878 -31.531)"/></g></g><g><g><path d="m125.583 170.216h4.833v62.301h-4.833z" fill="#995222" transform="matrix(-.707 .707 -.707 -.707 360.897 253.244)"/></g></g></g><g><g><circle cx="128" cy="201.366" fill="#995222" r="11.892"/></g></g><g><g><path d="m133.53 190.837c.869 1.652 1.362 3.533 1.362 5.529 0 6.568-5.324 11.892-11.892 11.892-1.996 0-3.878-.493-5.53-1.362 1.99 3.782 5.958 6.362 10.53 6.362 6.568 0 11.892-5.324 11.892-11.892 0-4.571-2.58-8.539-6.362-10.529z" fill="#8c3f0a"/></g></g><g><g><path d="m42.74 206.149c-1.1 0-2-.899-2-2 0-1.1.9-2 2-2s2 .9 2 2c0 1.101-.9 2-2 2zm0-8c-1.1 0-2-.899-2-2v-66.77c0-1.101.9-2 2-2s2 .899 2 2v66.77c0 1.101-.9 2-2 2z" fill="#995222"/></g></g></g></svg>