<svg id="Layer_1" enable-background="new 0 0 256 256" height="512" viewBox="0 0 256 256" width="512" xmlns="http://www.w3.org/2000/svg"><g><g><g><g><path d="m194.281 58.465c-.004 0-.009 0-.014 0-1.38-.008-2.493-1.133-2.486-2.514l.031-5.864c.017-3.084-1.229-6.085-3.6-8.677-.933-1.019-.862-2.6.156-3.531 1.019-.935 2.602-.862 3.531.156 3.237 3.536 4.936 7.714 4.912 12.079l-.031 5.864c-.007 1.376-1.124 2.487-2.499 2.487z" fill="#8c3f0a"/></g></g><g><g><g><path d="m210.614 32.881c-6.75.637-12.184 5.882-14.946 9.136-1.21 1.426-1.007 3.577.448 4.752 3.321 2.68 9.64 6.818 16.39 6.181s12.184-5.882 14.946-9.136c1.21-1.426 1.007-3.577-.448-4.752-3.321-2.68-9.64-6.817-16.39-6.181z" fill="#76a34f"/></g></g></g><g><g><path d="m227.004 39.063c-1.006-.812-2.288-1.758-3.773-2.664.066.846-.187 1.718-.779 2.415-2.762 3.254-8.196 8.5-14.946 9.136-4.705.444-9.201-1.432-12.618-3.517.069.882.484 1.737 1.228 2.336 3.321 2.68 9.64 6.818 16.39 6.181 6.75-.636 12.184-5.882 14.946-9.136 1.21-1.426 1.008-3.577-.448-4.751z" fill="#648940"/></g></g><g><g><path d="m220.551 80.765v-1.774c0-12.728-10.318-23.046-23.046-23.046-12.728 0-23.046 10.318-23.046 23.046v1.773c0 5.372-1.85 10.597-5.308 14.708-5.584 6.638-8.881 15.263-8.669 24.666.447 19.773 16.654 35.862 36.43 36.172 20.724.324 37.625-16.378 37.625-37.028 0-9.046-3.247-17.33-8.636-23.759-3.464-4.135-5.35-9.364-5.35-14.758z" fill="#76a34f"/></g></g><g><g><path d="m225.902 95.522c-3.465-4.134-5.351-9.363-5.351-14.757v-1.774c0-12.728-10.318-23.045-23.046-23.045-.33 0-.659.007-.986.021 2.543 3.705 4.031 8.191 4.031 13.024v1.774c0 5.394 1.885 10.623 5.351 14.757 5.389 6.429 8.636 14.713 8.636 23.759 0 20.65-16.901 37.352-37.625 37.028-1.732-.027-3.437-.176-5.106-.437 6.546 6.329 15.396 10.285 25.106 10.437 20.724.324 37.625-16.378 37.625-37.028.001-9.046-3.246-17.33-8.635-23.759z" fill="#648940"/></g></g></g><g><g><g><path d="m62.367 88.727c-1.487 0-2.695-1.201-2.703-2.688l-.041-7.605c-.038-5.363 1.586-10.606 4.65-15.008.851-1.227 2.536-1.532 3.762-.681 1.227.851 1.532 2.536.681 3.762-2.429 3.489-3.717 7.644-3.688 11.895l.041 7.605c.008 1.493-1.196 2.71-2.689 2.717z" fill="#8c3f0a"/></g></g><g><g><path d="m78.246 80.082c-5.83.034-11.459 2.14-15.879 5.942-4.461-3.755-10.112-5.8-15.942-5.769-13.864.075-25.04 11.71-24.962 25.987.078 14.278 11.506 49.295 25.37 49.221 6.039-.032 25.782.032 31.821 0 13.864-.075 24.912-35.385 24.834-49.664-.079-14.279-11.378-25.787-25.242-25.717z" fill="#e63950"/></g></g><g><g><path d="m34.46 135.8c-.79 0-1.51-.47-1.83-1.2l-.01-.01c-.2-.49-.21-1.03-.021-1.521.2-.5.57-.89 1.061-1.1.989-.43 2.199.05 2.63 1.021l.01.01c.44 1.01-.03 2.189-1.04 2.64-.25.11-.52.16-.8.16zm-2.86-7.47c-.87 0-1.63-.55-1.899-1.36-2.57-7.67-4.19-15.6-4.24-20.71 0-.04 0-.09 0-.16 0-5.819 2.18-11.29 6.14-15.41 3.95-4.12 9.23-6.409 14.851-6.43h.01c1.09 0 1.99.89 2 1.99 0 .53-.21 1.03-.58 1.41-.38.38-.88.59-1.41.59-4.53.03-8.78 1.88-11.99 5.21-3.229 3.37-5.02 7.859-5.02 12.64v.05.051c.01 3.779 1.26 11.279 4.03 19.5.35 1.04-.21 2.18-1.261 2.529-.211.07-.421.1-.631.1z" fill="#e8566f"/></g></g><g><g><path d="m103.487 105.799c-.078-14.279-11.377-25.788-25.241-25.717-.012 0-.024 0-.035 0 3.279 4.342 5.244 9.791 5.277 15.717.078 14.279-10.97 49.59-24.834 49.664-4.473.024-16.465-.005-24.837-.009 3.816 5.953 8.273 10.034 13.016 10.009 6.039-.032 25.782.032 31.821 0 13.863-.075 24.911-35.385 24.833-49.664z" fill="#d10028"/></g></g><g><g><path d="m55.879 58.833c4.467 2.874 6.249 8.599 6.903 11.647.246 1.154-.484 2.29-1.636 2.544-3.045.668-8.993 1.42-13.461-1.453s-6.249-8.599-6.903-11.647c-.246-1.154.484-2.29 1.636-2.544 3.048-.669 8.996-1.421 13.461 1.453z" fill="#76a34f"/></g></g><g><g><path d="m62.782 70.48c-.654-3.048-2.436-8.773-6.903-11.647-.256-.165-.517-.317-.782-.459 1.511 2.541 2.297 5.295 2.686 7.106.246 1.154-.484 2.29-1.636 2.544-2.871.63-8.322 1.333-12.68-.995 1.033 1.738 2.404 3.375 4.219 4.542 4.468 2.873 10.416 2.122 13.461 1.453 1.151-.254 1.881-1.391 1.635-2.544z" fill="#648940"/></g></g><g><g><path d="m73.656 47.896c-6.631 4.266-8.993 13.06-9.739 16.982-.216 1.127.49 2.225 1.606 2.496 3.879.947 12.86 2.444 19.492-1.821s8.992-13.06 9.739-16.977c.217-1.127-.49-2.227-1.606-2.497-3.879-.95-12.862-2.446-19.492 1.817z" fill="#76a34f"/></g></g><g><g><path d="m93.148 46.08c-.976-.239-2.276-.513-3.78-.721-1.058 4.375-3.596 11.492-9.353 15.195-4.962 3.191-11.24 3.156-15.712 2.54-.161.665-.288 1.268-.386 1.785-.216 1.127.49 2.226 1.606 2.496 3.879.947 12.86 2.444 19.492-1.821s8.992-13.06 9.74-16.977c.215-1.128-.492-2.227-1.607-2.497z" fill="#648940"/></g></g></g><g><g><g><g><path d="m137.832 119.884c-2.01 0-3.638-1.629-3.638-3.638v-4.446c0-13.813 5.379-26.8 15.146-36.567l4.922-4.922c1.42-1.42 3.725-1.42 5.145 0 1.421 1.421 1.421 3.725 0 5.145l-4.922 4.922c-8.392 8.393-13.014 19.552-13.014 31.422v4.445c0 2.01-1.629 3.639-3.639 3.639z" fill="#8c3f0a"/></g></g></g><g><g><g><circle cx="137.203" cy="201.556" fill="#a54af4" r="21.628"/></g></g><g><g><path d="m146.66 182.1c1.391 2.857 2.172 6.065 2.172 9.456 0 11.945-9.683 21.628-21.628 21.628-3.391 0-6.6-.781-9.456-2.172 3.509 7.206 10.903 12.172 19.456 12.172 11.945 0 21.628-9.683 21.628-21.628 0-8.554-4.966-15.947-12.172-19.456z" fill="#893add"/></g></g><g><g><g><circle cx="99.817" cy="151.262" fill="#a54af4" r="21.628"/></g></g><g><g><path d="m109.273 131.806c1.391 2.857 2.172 6.065 2.172 9.456 0 11.945-9.683 21.628-21.628 21.628-3.391 0-6.6-.781-9.456-2.172 3.509 7.206 10.903 12.172 19.456 12.172 11.945 0 21.628-9.683 21.628-21.628 0-8.554-4.966-15.947-12.172-19.456z" fill="#893add"/></g></g><g><g><circle cx="174.59" cy="151.262" fill="#a54af4" r="21.628"/></g></g><g><g><path d="m184.046 131.806c1.391 2.857 2.172 6.065 2.172 9.456 0 11.945-9.683 21.628-21.628 21.628-3.391 0-6.6-.781-9.456-2.172 3.509 7.206 10.902 12.172 19.456 12.172 11.945 0 21.628-9.683 21.628-21.628 0-8.554-4.966-15.947-12.172-19.456z" fill="#893add"/></g></g></g><g><g><g><circle cx="117.385" cy="174.613" fill="#a54af4" r="21.628"/></g></g><g><g><path d="m126.841 155.156c1.391 2.857 2.172 6.065 2.172 9.456 0 11.945-9.683 21.628-21.628 21.628-3.391 0-6.6-.781-9.456-2.172 3.509 7.206 10.903 12.172 19.456 12.172 11.945 0 21.628-9.683 21.628-21.628 0-8.553-4.966-15.947-12.172-19.456z" fill="#893add"/></g></g><g><g><circle cx="157.022" cy="174.613" fill="#a54af4" r="21.628"/></g></g><g><g><path d="m166.478 155.156c1.391 2.857 2.172 6.065 2.172 9.456 0 11.945-9.683 21.628-21.628 21.628-3.391 0-6.6-.781-9.456-2.172 3.509 7.206 10.903 12.172 19.456 12.172 11.945 0 21.628-9.683 21.628-21.628 0-8.553-4.966-15.947-12.172-19.456z" fill="#893add"/></g></g></g><g><g><circle cx="137.203" cy="144.074" fill="#a54af4" r="21.628"/></g></g><g><g><path d="m146.66 124.618c1.391 2.857 2.172 6.065 2.172 9.457 0 11.945-9.683 21.628-21.628 21.628-3.391 0-6.6-.781-9.456-2.172 3.509 7.206 10.903 12.172 19.456 12.172 11.945 0 21.628-9.683 21.628-21.628 0-8.555-4.966-15.949-12.172-19.457z" fill="#893add"/></g></g><g><g><g><circle cx="117.572" cy="121.88" fill="#a54af4" r="21.628"/></g></g><g><g><path d="m127.028 102.423c1.391 2.857 2.172 6.065 2.172 9.456 0 11.945-9.683 21.628-21.628 21.628-3.391 0-6.6-.781-9.456-2.172 3.509 7.206 10.903 12.172 19.456 12.172 11.945 0 21.628-9.683 21.628-21.628 0-8.553-4.966-15.947-12.172-19.456z" fill="#893add"/></g></g><g><g><circle cx="156.835" cy="121.88" fill="#a54af4" r="21.628"/></g></g><g><g><path d="m166.291 102.423c1.391 2.857 2.172 6.065 2.172 9.456 0 11.945-9.683 21.628-21.628 21.628-3.391 0-6.6-.781-9.456-2.172 3.509 7.206 10.902 12.172 19.456 12.172 11.945 0 21.628-9.683 21.628-21.628 0-8.553-4.965-15.947-12.172-19.456z" fill="#893add"/></g></g></g></g><g><g><g><path d="m142.016 88.631c-.043 1.445-1.206 2.608-2.651 2.651-4.749.14-15.19-.359-21.572-6.741s-6.881-16.823-6.741-21.572c.043-1.445 1.206-2.608 2.651-2.651 4.749-.14 15.19.359 21.572 6.741 6.381 6.381 6.881 16.823 6.741 21.572z" fill="#76a34f"/></g></g></g><g><g><path d="m135.275 67.059c-1.751-1.751-3.807-3.059-5.968-4.032 2.575 5.715 2.81 12.158 2.708 15.604-.043 1.445-1.206 2.608-2.651 2.651-3.446.102-9.89-.133-15.604-2.708.974 2.16 2.281 4.217 4.032 5.968 6.382 6.382 16.823 6.881 21.572 6.741 1.445-.043 2.608-1.206 2.651-2.651.141-4.75-.359-15.192-6.74-21.573z" fill="#648940"/></g></g><g><g><path d="m135.275 67.059c-.851-.851-1.775-1.598-2.748-2.252 4.251 6.319 4.61 14.709 4.489 18.824-.043 1.445-1.206 2.608-2.651 2.651-4.115.121-12.506-.237-18.824-4.489.654.973 1.401 1.896 2.252 2.748 6.382 6.382 16.823 6.881 21.572 6.741 1.445-.043 2.608-1.206 2.651-2.651.14-4.749-.36-15.191-6.741-21.572z" fill="#5a7a39"/></g></g></g></g></svg>