<svg id="Layer_1" enable-background="new 0 0 256 256" height="512" viewBox="0 0 256 256" width="512" xmlns="http://www.w3.org/2000/svg"><g><g><g><g><path d="m128.864 97.961c-2.762 0-5-2.239-5-5v-6.109c0-18.983 7.393-36.831 20.815-50.254l6.765-6.765c1.951-1.952 5.119-1.952 7.07 0 1.953 1.953 1.953 5.119 0 7.071l-6.765 6.765c-11.533 11.534-17.886 26.87-17.886 43.183v6.109c.001 2.761-2.237 5-4.999 5z" fill="#8c3f0a"/></g></g></g><g><g><path d="m158.515 29.833c-.976-.976-2.255-1.464-3.535-1.464 0 1.28-.488 2.559-1.465 3.535l-6.765 6.765c-11.533 11.534-17.886 26.87-17.886 43.183v6.109c0 2.761-2.238 5-5 5 0 2.761 2.238 5 5 5s5-2.239 5-5v-6.109c0-16.313 6.353-31.648 17.886-43.183l6.765-6.765c1.953-1.952 1.953-5.118 0-7.071z" fill="#7c3108"/></g></g><g><g><g><circle cx="128" cy="210.203" fill="#a54af4" r="29.723"/></g></g><g><g><path d="m143.417 184.785c2.732 4.495 4.306 9.772 4.306 15.417 0 16.416-13.308 29.723-29.723 29.723-5.645 0-10.922-1.573-15.417-4.306 5.214 8.577 14.646 14.306 25.417 14.306 16.416 0 29.723-13.308 29.723-29.723 0-10.77-5.729-20.203-14.306-25.417z" fill="#893add"/></g></g><g><g><path d="m146.369 186.833c3.98 5.056 6.354 11.435 6.354 18.369 0 16.416-13.308 29.723-29.723 29.723-6.934 0-13.313-2.374-18.369-6.354 5.442 6.914 13.887 11.354 23.369 11.354 16.416 0 29.723-13.308 29.723-29.723 0-9.481-4.44-17.926-11.354-23.369z" fill="#6c2bc1"/></g></g><g><g><g><circle cx="76.62" cy="141.084" fill="#a54af4" r="29.723"/></g></g><g><g><path d="m92.037 115.667c2.732 4.495 4.306 9.772 4.306 15.417 0 16.416-13.308 29.723-29.723 29.723-5.645 0-10.922-1.573-15.417-4.306 5.214 8.577 14.646 14.306 25.417 14.306 16.416 0 29.723-13.308 29.723-29.723 0-10.771-5.729-20.204-14.306-25.417z" fill="#893add"/></g></g><g><g><circle cx="179.38" cy="141.084" fill="#a54af4" r="29.723"/></g></g><g><g><path d="m194.797 115.667c2.732 4.495 4.306 9.772 4.306 15.417 0 16.416-13.308 29.723-29.723 29.723-5.645 0-10.922-1.573-15.417-4.306 5.214 8.577 14.646 14.306 25.417 14.306 16.416 0 29.723-13.308 29.723-29.723 0-10.771-5.729-20.204-14.306-25.417z" fill="#893add"/></g></g></g><g><g><g><circle cx="100.764" cy="173.174" fill="#a54af4" r="29.723"/></g></g><g><g><path d="m116.181 147.757c2.732 4.495 4.306 9.772 4.306 15.417 0 16.416-13.308 29.723-29.723 29.723-5.645 0-10.922-1.574-15.417-4.306 5.214 8.577 14.646 14.306 25.417 14.306 16.416 0 29.723-13.308 29.723-29.723 0-10.77-5.729-20.203-14.306-25.417z" fill="#893add"/></g></g><g><g><circle cx="155.236" cy="173.174" fill="#a54af4" r="29.723"/></g></g><g><g><path d="m170.654 147.757c2.732 4.495 4.306 9.772 4.306 15.417 0 16.416-13.308 29.723-29.723 29.723-5.645 0-10.922-1.574-15.417-4.306 5.214 8.577 14.646 14.306 25.417 14.306 16.416 0 29.723-13.308 29.723-29.723 0-10.77-5.729-20.203-14.306-25.417z" fill="#893add"/></g></g></g><g><g><circle cx="128" cy="131.205" fill="#a54af4" r="29.723"/></g></g><g><g><path d="m143.417 105.788c2.732 4.495 4.306 9.772 4.306 15.417 0 16.416-13.308 29.723-29.723 29.723-5.645 0-10.922-1.573-15.417-4.306 5.214 8.577 14.646 14.306 25.417 14.306 16.416 0 29.723-13.308 29.723-29.723 0-10.77-5.729-20.203-14.306-25.417z" fill="#893add"/></g></g><g><g><g><circle cx="101.02" cy="100.704" fill="#a54af4" r="29.723"/></g></g><g><g><path d="m77.3 102.7c-1.11 0-2-.89-2-2 0-1.1.89-2 2-2 1.1 0 1.99.89 2 1.99v.01c0 1.11-.901 2-2 2zm1.33-7.85c-.22 0-.45-.03-.66-.11-.51-.18-.91-.54-1.14-1.02s-.261-1.02-.09-1.53c3.619-10.29 13.38-17.2 24.279-17.21 1.101 0 2 .9 2 2s-.899 2-2 2c-9.21 0-17.439 5.84-20.5 14.54-.279.8-1.04 1.33-1.889 1.33z" fill="#b171f4"/></g></g><g><g><path d="m116.437 75.286c2.732 4.495 4.306 9.772 4.306 15.417 0 16.416-13.308 29.723-29.723 29.723-5.645 0-10.922-1.573-15.417-4.306 5.214 8.577 14.646 14.306 25.417 14.306 16.416 0 29.723-13.308 29.723-29.723.001-10.77-5.728-20.203-14.306-25.417z" fill="#893add"/></g></g><g><g><circle cx="154.98" cy="100.704" fill="#a54af4" r="29.723"/></g></g><g><g><path d="m170.397 75.286c2.732 4.495 4.306 9.772 4.306 15.417 0 16.416-13.308 29.723-29.723 29.723-5.645 0-10.922-1.573-15.417-4.306 5.214 8.577 14.646 14.306 25.417 14.306 16.416 0 29.723-13.308 29.723-29.723 0-10.77-5.729-20.203-14.306-25.417z" fill="#893add"/></g></g></g></g><g><g><g><path d="m134.613 55.01c-.059 1.986-1.657 3.584-3.643 3.643-6.526.193-20.876-.494-29.646-9.264s-9.457-23.12-9.264-29.646c.059-1.986 1.657-3.584 3.643-3.643 6.526-.193 20.876.494 29.646 9.264s9.457 23.12 9.264 29.646z" fill="#76a34f"/></g></g></g><g><g><path d="m125.349 25.363c-1.723-1.723-3.661-3.134-5.713-4.287 4.719 8.393 5.132 18.689 4.977 23.934-.059 1.986-1.657 3.584-3.643 3.643-5.244.155-15.54-.258-23.934-4.977 1.154 2.052 2.564 3.99 4.287 5.713 8.77 8.771 23.12 9.457 29.646 9.264 1.986-.059 3.584-1.657 3.643-3.643.194-6.526-.492-20.876-9.263-29.647z" fill="#648940"/></g></g></g></svg>