<svg id="Layer_1" enable-background="new 0 0 256 256" height="512" viewBox="0 0 256 256" width="512" xmlns="http://www.w3.org/2000/svg"><g><g><g><g><path d="m219.789 143.989c-2.332.003-4.57-.923-6.217-2.575l-85.595-85.596-85.596 85.596c-3.454 3.411-9.02 3.376-12.432-.078-3.381-3.424-3.381-8.93 0-12.353l91.811-91.812c3.433-3.433 8.999-3.433 12.433 0l91.811 91.812c3.435 3.431 3.438 8.997.007 12.432-1.65 1.652-3.889 2.58-6.224 2.578v-.004z" fill="#f79219"/></g></g><g><g><path d="m44.35 125.06c-.53 0-1.03-.2-1.41-.58s-.59-.88-.59-1.42c0-.53.21-1.03.59-1.41.75-.76 2.07-.76 2.83 0 .78.78.78 2.05 0 2.83-.38.38-.88.58-1.42.58zm5.66-5.65c-.53 0-1.03-.21-1.41-.59s-.59-.88-.59-1.41c0-.54.21-1.04.59-1.42l66.53-66.53c.76-.76 2.07-.76 2.83 0 .38.38.59.88.58 1.41 0 .54-.2 1.04-.58 1.42l-66.54 66.53c-.37.38-.88.59-1.41.59z" fill="#ffc91d"/></g></g><g><g><path d="m200.721 229.04v-100.478l-72.743-72.744-72.742 72.743v100.479z" fill="#f1f2f2"/></g></g><g><g><path d="m127.978 55.818 62.743 62.744v100.477h-135.485v10h145.485v-100.477z" fill="#e6e7e8"/></g></g><g><g><path d="m127.978 55.818 67.743 67.744v100.477h-140.485v5h145.485v-100.477z" fill="#d1d3d4"/></g></g></g><g><g><g><g><path d="m128 212.839c-1.381 0-2.5-1.119-2.5-2.5v-68.214c0-1.381 1.119-2.5 2.5-2.5s2.5 1.119 2.5 2.5v68.214c0 1.381-1.119 2.5-2.5 2.5z" fill="#5a7a39"/></g></g><g><g><path d="m128 202.626c-.663 0-1.299-.263-1.768-.732l-13.912-13.913c-.977-.976-.977-2.559 0-3.535.977-.977 2.559-.977 3.535 0l12.145 12.144 12.145-12.145c.977-.977 2.559-.977 3.535 0 .977.976.977 2.559 0 3.535l-13.912 13.913c-.469.47-1.105.733-1.768.733z" fill="#5a7a39"/></g></g><g><g><path d="m128 176.23c-.64 0-1.279-.244-1.768-.732l-31.605-31.605c-.977-.976-.977-2.559 0-3.535.977-.977 2.559-.977 3.535 0l29.838 29.837 29.838-29.837c.977-.977 2.559-.977 3.535 0 .977.976.977 2.559 0 3.535l-31.605 31.605c-.489.488-1.128.732-1.768.732z" fill="#5a7a39"/></g></g></g><g><g><g><g><path d="m91.611 161.462c-1.264.046-2.271 1.053-2.317 2.317-.167 4.545.21 15.178 6.655 21.623s17.079 6.822 21.623 6.655c1.264-.046 2.271-1.053 2.317-2.317.167-4.545-.21-15.178-6.655-21.623s-17.078-6.822-21.623-6.655z" fill="#76a34f"/></g></g><g><g><path d="m113.235 168.117c-.852-.852-1.776-1.597-2.75-2.25 4.286 6.398 4.551 14.929 4.406 18.873-.046 1.265-1.052 2.271-2.317 2.317-3.944.145-12.475-.12-18.873-4.406.653.974 1.398 1.899 2.25 2.75 6.445 6.445 17.078 6.822 21.623 6.655 1.265-.046 2.271-1.053 2.317-2.317.166-4.543-.211-15.176-6.656-21.622z" fill="#648940"/></g></g><g><g><path d="m164.389 161.462c1.264.046 2.271 1.053 2.317 2.317.167 4.545-.21 15.178-6.655 21.623s-17.079 6.822-21.623 6.655c-1.264-.046-2.271-1.053-2.317-2.317-.167-4.545.21-15.178 6.655-21.623s17.078-6.822 21.623-6.655z" fill="#76a34f"/></g></g><g><g><path d="m166.706 163.779c-.047-1.265-1.053-2.271-2.317-2.317-.742-.027-1.647-.04-2.669-.014-.132 5.237-1.277 13.562-6.669 18.955-5.393 5.393-13.718 6.537-18.955 6.669-.026 1.022-.013 1.927.014 2.669.046 1.265 1.052 2.271 2.317 2.317 4.545.167 15.178-.21 21.623-6.655 6.446-6.445 6.823-17.079 6.656-21.624z" fill="#648940"/></g></g></g><g><g><path d="m126.398 151.867c.915.82 2.289.82 3.205 0 4.345-3.89 16.025-15.641 16.025-29.533s-11.68-25.642-16.025-29.533c-.915-.82-2.289-.82-3.205 0-4.345 3.89-16.025 15.641-16.025 29.533s11.68 25.643 16.025 29.533z" fill="#76a34f"/></g></g><g><g><path d="m129.602 92.802c-.033-.03-.071-.05-.105-.078 5.025 5.644 11.13 14.566 11.13 24.61 0 13.892-11.681 25.642-16.025 29.533-.882.79-2.187.811-3.1.078 1.925 2.162 3.692 3.845 4.895 4.922.915.82 2.289.82 3.205 0 4.345-3.89 16.025-15.641 16.025-29.533.001-13.891-11.68-25.642-16.025-29.532z" fill="#648940"/></g></g><g><g><g><path d="m178.644 120.769c1.264.046 2.271 1.053 2.317 2.317.167 4.545-.21 15.178-6.655 21.623s-17.079 6.822-21.623 6.655c-1.264-.046-2.271-1.053-2.317-2.317-.167-4.545.21-15.178 6.655-21.623 6.444-6.445 17.078-6.822 21.623-6.655z" fill="#76a34f"/></g></g><g><g><path d="m180.961 123.086c-.047-1.264-1.053-2.271-2.317-2.317-.742-.027-1.647-.04-2.669-.014-.132 5.237-1.277 13.562-6.67 18.955s-13.718 6.537-18.955 6.669c-.026 1.022-.013 1.927.014 2.669.046 1.265 1.053 2.271 2.317 2.317 4.545.167 15.178-.21 21.623-6.655 6.447-6.446 6.824-17.079 6.657-21.624z" fill="#648940"/></g></g><g><g><path d="m77.356 120.769c-1.264.046-2.271 1.053-2.317 2.317-.167 4.545.21 15.178 6.655 21.623s17.079 6.822 21.623 6.655c1.264-.046 2.271-1.053 2.317-2.317.167-4.545-.21-15.178-6.655-21.623-6.444-6.445-17.078-6.822-21.623-6.655z" fill="#76a34f"/></g></g><g><g><path d="m98.98 127.424c-.852-.852-1.776-1.597-2.75-2.25 4.286 6.398 4.551 14.929 4.406 18.873-.046 1.265-1.053 2.271-2.317 2.317-3.944.145-12.475-.12-18.873-4.406.653.974 1.398 1.899 2.25 2.75 6.445 6.445 17.078 6.822 21.623 6.655 1.265-.046 2.271-1.053 2.317-2.317.166-4.543-.211-15.177-6.656-21.622z" fill="#648940"/></g></g></g></g></g></g></svg>