<svg id="Layer_1" enable-background="new 0 0 256 256" height="512" viewBox="0 0 256 256" width="512" xmlns="http://www.w3.org/2000/svg"><g><g><g><path d="m59.234 47.113-9.113 28.637c-.528 1.66-2.07 2.787-3.812 2.787h-16.971c-3.898 0-7.228 2.809-7.885 6.651l-7.263 42.457c-.836 4.886 2.928 9.349 7.885 9.349h32.556c2.209 0 4 1.791 4 4v34.525h54.534v-128.406z" fill="#478cf7"/></g></g><g><g><path d="m20.1 130.66c-.109 0-.22-.01-.33-.03-.529-.09-.989-.38-1.3-.82-.31-.43-.43-.96-.34-1.49.18-1.07 1.22-1.82 2.31-1.63 1.091.18 1.82 1.22 1.63 2.3-.16.97-.99 1.67-1.97 1.67zm1.36-7.89c-.12 0-.23-.01-.351-.03-.52-.09-.979-.38-1.29-.81-.31-.44-.43-.97-.34-1.5l5.92-34.57c.32-1.92 1.98-3.32 3.931-3.32h16.98c3.5-.01 6.561-2.25 7.62-5.58l7.79-24.45c.32-1.03 1.46-1.63 2.51-1.3 1.051.33 1.63 1.46 1.301 2.51l-7.79 24.46c-1.58 5-6.171 8.36-11.421 8.36h-16.98l-5.92 34.57c-.16.96-.99 1.66-1.96 1.66z" fill="#5e9cf7"/></g></g><g><g><g><path d="m103.165 47.113v118.406h-44.534v10h54.534v-128.406z" fill="#377de2"/></g></g></g><g><g><g><path d="m108.165 47.113v123.406h-49.534v5h54.534v-128.406z" fill="#2266d3"/></g></g></g><g><g><path d="m185.076 126.437h-71.911v-79.324h92.867z" fill="#e6e7e8"/></g></g><g><g><path d="m183.39 47.113-18.314 69.324h-51.911v10h71.911l20.956-79.324z" fill="#d1d3d4"/></g></g><g><g><path d="m138.47 137.672h46.526c3.102 0 5.617-2.515 5.617-5.617 0-3.102-2.515-5.617-5.617-5.617h-46.526z" fill="#478cf7"/></g></g><g><g><path d="m185.583 126.468c.02.193.03.389.03.587 0 3.102-2.515 5.617-5.617 5.617h-41.526v5h46.526c3.102 0 5.617-2.515 5.617-5.617 0-2.905-2.204-5.294-5.03-5.587z" fill="#377de2"/></g></g><g><g><g><path d="m202.28 169.18c0-5.615-4.552-10.167-10.167-10.167-5.615 0-10.167 4.552-10.167 10.167v40.522c0 4.549 3.687 8.236 8.236 8.236h52.342c4.549 0 8.236-3.687 8.236-8.236 0-2.879-1.503-5.548-3.964-7.041l-38.979-23.648c-3.438-2.086-5.537-5.814-5.537-9.833z" fill="#f79219"/></g></g><g><g><g><path d="m246.795 202.66-1.609-.976c.373.947.573 1.968.573 3.017 0 4.549-3.687 8.236-8.236 8.236h-52.342c-.969 0-1.898-.168-2.761-.475 1.135 3.19 4.181 5.475 7.761 5.475h52.342c4.549 0 8.236-3.687 8.236-8.236 0-2.878-1.503-5.548-3.964-7.041z" fill="#ef7816"/></g></g></g><g><g><path d="m185.751 190.724-48.599-16.713c-5.718-1.966-8.759-8.196-6.793-13.914 1.966-5.718 8.196-8.759 13.914-6.793l48.599 16.713c5.718 1.966 8.759 8.196 6.793 13.914-1.966 5.718-8.196 8.759-13.914 6.793z" fill="#ffa91a"/></g></g><g><g><circle cx="187.881" cy="179.632" fill="#ef7816" r="5.47"/></g></g></g><g><g><g><path d="m148.815 111.54c-.295 0-.594-.052-.886-.163-1.291-.489-1.941-1.932-1.452-3.224l6.362-16.796c.49-1.292 1.934-1.94 3.224-1.452 1.291.489 1.941 1.932 1.452 3.224l-6.362 16.796c-.379 1-1.329 1.615-2.338 1.615z" fill="#58595b"/></g></g><g><g><path d="m159.6 105.522c-.248 0-.499-.037-.748-.115l-7.602-2.38c-1.317-.413-2.051-1.815-1.639-3.133.413-1.318 1.816-2.052 3.133-1.639l7.602 2.38c1.317.413 2.051 1.815 1.639 3.133-.336 1.069-1.322 1.754-2.385 1.754z" fill="#58595b"/></g></g><g><g><path d="m137.343 114.623h-19.824v-7.49h16.817c1.661 0 3.007 1.346 3.007 3.007z" fill="#ffa91a"/></g></g><g><g><path d="m113.165 114.623v-31.636h7.99c3.309 0 5.992 2.683 5.992 5.992v25.644z" fill="#ffa91a"/></g></g><g><g><path d="m121.155 82.987h-1.498v24.147h-6.492v7.49h13.981v-25.645c.001-3.309-2.682-5.992-5.991-5.992z" fill="#f79219"/></g></g></g><g><g><path d="m113.165 168.457h34.582v-49.833c0-2.209-1.791-4-4-4h-30.582z" fill="#377de2"/></g></g><g><g><path d="m143.748 114.623h-1v48.833h-29.582v5h34.582v-49.833c0-2.209-1.791-4-4-4z" fill="#2266d3"/></g></g><g><g><g><circle cx="48.237" cy="184.806" fill="#58595b" r="33.131"/></g></g><g><g><path d="m69.031 159.012c4.589 5.685 7.337 12.919 7.337 20.794 0 18.298-14.833 33.131-33.131 33.131-7.875 0-15.109-2.748-20.794-7.337 6.073 7.524 15.372 12.337 25.794 12.337 18.298 0 33.131-14.833 33.131-33.131 0-10.422-4.813-19.72-12.337-25.794z" fill="#414042"/></g></g><g><g><circle cx="48.237" cy="184.806" fill="#f1f2f2" r="20.259"/></g></g><g><g><path d="m59.843 168.2c2.302 3.287 3.652 7.289 3.652 11.606 0 11.189-9.07 20.259-20.259 20.259-4.317 0-8.319-1.351-11.606-3.652 3.663 5.231 9.735 8.652 16.606 8.652 11.189 0 20.259-9.07 20.259-20.259.001-6.871-3.42-12.943-8.652-16.606z" fill="#d1d3d4"/></g></g><g><g><circle cx="48.237" cy="184.806" fill="#808285" r="10.997"/></g></g><g><g><path d="m53.102 174.942c.725 1.467 1.133 3.118 1.133 4.865 0 6.074-4.924 10.997-10.997 10.997-1.747 0-3.398-.408-4.865-1.133 1.795 3.633 5.538 6.133 9.865 6.133 6.074 0 10.997-4.924 10.997-10.997-.001-4.328-2.5-8.07-6.133-9.865z" fill="#58595b"/></g></g></g><g><g><g><circle cx="134.443" cy="177.805" fill="#58595b" r="40.133"/></g></g><g><g><path d="m158.538 145.707c5.045 6.71 8.035 15.053 8.035 24.095 0 22.165-17.968 40.133-40.133 40.133-9.042 0-17.384-2.99-24.095-8.035 7.323 9.739 18.974 16.038 32.097 16.038 22.165 0 40.133-17.968 40.133-40.133.001-13.124-6.298-24.775-16.037-32.098z" fill="#414042"/></g></g><g><g><circle cx="134.443" cy="177.805" fill="#f1f2f2" r="20.827"/></g></g><g><g><path d="m147.033 161.213c2.658 3.497 4.235 7.859 4.235 12.591 0 11.503-9.325 20.827-20.827 20.827-4.731 0-9.094-1.578-12.59-4.235 3.804 5.005 9.82 8.237 16.592 8.237 11.503 0 20.827-9.325 20.827-20.827 0-6.773-3.231-12.789-8.237-16.593z" fill="#d1d3d4"/></g></g><g><g><circle cx="134.443" cy="177.805" fill="#808285" r="10.675"/></g></g><g><g><path d="m139.722 168.524c.888 1.557 1.395 3.359 1.395 5.279 0 5.896-4.779 10.675-10.675 10.675-1.92 0-3.722-.507-5.279-1.395 1.837 3.223 5.305 5.396 9.28 5.396 5.896 0 10.675-4.779 10.675-10.675 0-3.975-2.173-7.442-5.396-9.28z" fill="#58595b"/></g></g></g><g><g><path d="m206.767 35.878h-151.087c-3.102 0-5.617 2.515-5.617 5.617 0 3.102 2.515 5.617 5.617 5.617h151.087c3.102 0 5.617-2.515 5.617-5.617 0-3.102-2.515-5.617-5.617-5.617z" fill="#478cf7"/></g></g><g><g><path d="m207.354 35.909c.02.193.03.389.03.587 0 3.102-2.515 5.617-5.617 5.617h-151.087c-.198 0-.394-.01-.587-.03.293 2.827 2.683 5.03 5.587 5.03h151.087c3.102 0 5.617-2.515 5.617-5.617 0-2.905-2.204-5.294-5.03-5.587z" fill="#2266d3"/></g></g><g><g><path d="m159.599 100.082v26.356h25.477l8.019-30.356h-29.496c-2.21 0-4 1.791-4 4z" fill="#478cf7"/></g></g><g><g><path d="m186.774 96.082-6.698 25.355h-20.477v5h25.477l8.019-30.355z" fill="#377de2"/></g></g><g><g><g><path d="m34.541 125.305c-1.381 0-2.5-1.119-2.5-2.5v-9.336c0-1.381 1.119-2.5 2.5-2.5s2.5 1.119 2.5 2.5v9.336c0 1.381-1.119 2.5-2.5 2.5z" fill="#377de2"/></g></g><g><g><path d="m43.223 125.305c-1.381 0-2.5-1.119-2.5-2.5v-9.336c0-1.381 1.119-2.5 2.5-2.5s2.5 1.119 2.5 2.5v9.336c0 1.381-1.119 2.5-2.5 2.5z" fill="#377de2"/></g></g><g><g><path d="m51.905 125.305c-1.381 0-2.5-1.119-2.5-2.5v-9.336c0-1.381 1.119-2.5 2.5-2.5s2.5 1.119 2.5 2.5v9.336c0 1.381-1.119 2.5-2.5 2.5z" fill="#377de2"/></g></g></g></g></svg>