<svg id="Layer_1" enable-background="new 0 0 256 256" height="512" viewBox="0 0 256 256" width="512" xmlns="http://www.w3.org/2000/svg"><g><g><g><path d="m152.435 31.091h-109.755c-5.39 0-9.238 5.223-7.641 10.371l26.116 84.168c.479 1.544.479 3.197 0 4.742l-26.115 84.167c-1.597 5.148 2.25 10.371 7.641 10.371h109.755c5.39 0 9.238-5.223 7.641-10.371l-26.116-84.168c-.479-1.544-.479-3.197 0-4.742l26.116-84.168c1.596-5.148-2.252-10.37-7.642-10.37z" fill="#f79219"/></g></g><g><g><path d="m56.58 92.65c-.88 0-1.64-.56-1.91-1.41-.32-1.05.27-2.17 1.32-2.5 1.04-.32 2.18.28 2.51 1.32.32 1.05-.27 2.17-1.32 2.5-.2.06-.39.09-.6.09zm-2.37-7.64c-.88 0-1.65-.57-1.91-1.41l-13.44-43.32c-.12-.39-.19-.81-.19-1.2.01-1.08.44-1.88.79-2.36.52-.75 1.67-1.63 3.21-1.63h52.83c1.1 0 2 .9 2 2s-.9 2-2 2h-52.81s-.01 0-.01.01l13.44 43.31s0 .01.01.01c.32 1.05-.27 2.17-1.32 2.5-.2.06-.4.09-.6.09z" fill="#ffa91a"/></g></g><g><g><path d="m133.959 130.371c-.479-1.544-.479-3.197 0-4.742l26.116-84.168c1.597-5.148-2.25-10.371-7.641-10.371h-12.268c-.032.124-.053.247-.091.371l-26.116 84.168c-.479 1.544-.479 3.197 0 4.742l26.116 84.168c1.597 5.148-2.25 10.371-7.641 10.371h-97.485c-1.306 5.025 2.471 10 7.732 10h109.755c5.39 0 9.238-5.223 7.641-10.371z" fill="#ef7816"/></g></g><g><g><g><path d="m137.677 120.284h-80.239c-4.262 0-7.716-3.455-7.716-7.716 0-4.262 3.455-7.716 7.716-7.716h80.239c4.262 0 7.716 3.455 7.716 7.716 0 4.261-3.454 7.716-7.716 7.716z" fill="#8c3f0a"/></g></g><g><g><path d="m140.026 105.219c.237.741.367 1.53.367 2.349 0 4.261-3.455 7.716-7.716 7.716h-80.239c-.82 0-1.608-.13-2.349-.367.994 3.112 3.907 5.367 7.349 5.367h80.239c4.261 0 7.716-3.455 7.716-7.716 0-3.442-2.255-6.355-5.367-7.349z" fill="#7c3108"/></g></g><g><g><path d="m137.677 135.716h-80.239c-4.262 0-7.716-3.455-7.716-7.716 0-4.262 3.455-7.716 7.716-7.716h80.239c4.262 0 7.716 3.455 7.716 7.716 0 4.262-3.454 7.716-7.716 7.716z" fill="#8c3f0a"/></g></g><g><g><path d="m140.026 120.651c.237.741.367 1.53.367 2.349 0 4.261-3.455 7.716-7.716 7.716h-80.239c-.82 0-1.608-.13-2.349-.367.994 3.112 3.907 5.367 7.349 5.367h80.239c4.261 0 7.716-3.455 7.716-7.716 0-3.442-2.255-6.355-5.367-7.349z" fill="#7c3108"/></g></g><g><g><path d="m137.677 151.148h-80.239c-4.262 0-7.716-3.455-7.716-7.716 0-4.262 3.455-7.716 7.716-7.716h80.239c4.262 0 7.716 3.455 7.716 7.716 0 4.262-3.454 7.716-7.716 7.716z" fill="#8c3f0a"/></g></g><g><g><path d="m140.026 136.083c.237.741.367 1.53.367 2.349 0 4.261-3.455 7.716-7.716 7.716h-80.239c-.82 0-1.608-.13-2.349-.367.994 3.112 3.907 5.367 7.349 5.367h80.239c4.261 0 7.716-3.455 7.716-7.716 0-3.442-2.255-6.355-5.367-7.349z" fill="#7c3108"/></g></g></g><g><g><circle cx="163.294" cy="166.878" fill="#ffa91a" r="58.032"/></g></g><g><g><path d="m199.012 121.159c7.707 9.85 12.313 22.243 12.313 35.719 0 32.05-25.982 58.031-58.031 58.031-13.476 0-25.869-4.606-35.719-12.313 10.622 13.576 27.145 22.313 45.719 22.313 32.05 0 58.031-25.982 58.031-58.031 0-18.574-8.736-35.097-22.313-45.719z" fill="#f79219"/></g></g><g><g><path d="m201.743 123.428c9.068 10.239 14.582 23.697 14.582 38.449 0 32.05-25.982 58.031-58.031 58.031-14.752 0-28.21-5.514-38.449-14.582 10.632 12.005 26.152 19.582 43.449 19.582 32.05 0 58.031-25.982 58.031-58.031 0-17.296-7.577-32.817-19.582-43.449z" fill="#ef7816"/></g></g><g><g><circle cx="163.294" cy="166.878" fill="#f79219" r="38.878"/></g></g><g><g><path d="m188.168 137.003c5.619 6.742 9.003 15.412 9.003 24.875 0 21.472-17.406 38.878-38.878 38.878-9.463 0-18.133-3.384-24.875-9.003 7.132 8.556 17.866 14.003 29.875 14.003 21.472 0 38.878-17.406 38.878-38.878.001-12.009-5.447-22.743-14.003-29.875z" fill="#ef7816"/></g></g><g><g><circle cx="163.294" cy="166.878" fill="#ffa91a" r="24.647"/></g></g><g><g><path d="m178.042 147.129c3.076 4.113 4.898 9.218 4.898 14.749 0 13.612-11.035 24.647-24.647 24.647-5.531 0-10.636-1.822-14.749-4.898 4.495 6.009 11.668 9.898 19.749 9.898 13.612 0 24.647-11.035 24.647-24.647.001-8.081-3.889-15.254-9.898-19.749z" fill="#ef7816"/></g></g><g><g><circle cx="163.294" cy="166.878" fill="#f79219" r="11.822"/></g></g><g><g><path d="m168.767 156.405c.858 1.637 1.349 3.497 1.349 5.473 0 6.529-5.293 11.823-11.822 11.823-1.977 0-3.836-.491-5.474-1.349 1.975 3.772 5.921 6.349 10.474 6.349 6.529 0 11.822-5.293 11.822-11.823 0-4.553-2.577-8.498-6.349-10.473z" fill="#ef7816"/></g></g></g></svg>