<svg id="Layer_1" enable-background="new 0 0 256 256" height="512" viewBox="0 0 256 256" width="512" xmlns="http://www.w3.org/2000/svg"><g><g><g><g><path d="m83.244 230.896c-2.336 0-4.23-1.894-4.23-4.23v-50.398h8.459v50.398c0 2.336-1.893 4.23-4.229 4.23z" fill="#939598"/></g></g><g><g><path d="m85.291 176.267v48.216c0 2.336-1.894 4.23-4.23 4.23-.602 0-1.175-.126-1.694-.353.653 1.493 2.143 2.536 3.876 2.536 2.336 0 4.23-1.894 4.23-4.23v-50.398h-2.182z" fill="#808285"/></g></g><g><g><g><g><path d="m141.042 162.307h-26.083v-17.557c0-2.411 1.954-4.365 4.365-4.365h17.353c2.411 0 4.365 1.954 4.365 4.365z" fill="#808285"/></g></g><g><g><path d="m136.677 140.385h-5.635v11.922h-16.083v10h26.083v-17.557c0-2.411-1.955-4.365-4.365-4.365z" fill="#58595b"/></g></g><g><g><path d="m136.677 140.385h-1.091v16.466h-20.627v5.456h26.083v-17.557c0-2.411-1.955-4.365-4.365-4.365z" fill="#414042"/></g></g></g><g><g><path d="m176.986 176.267h-97.972v-5.231c0-4.821 3.908-8.73 8.73-8.73h80.513c4.821 0 8.73 3.908 8.73 8.73v5.231z" fill="#939598"/></g></g><g><g><path d="m171.067 162.769c.3.882.463 1.828.463 2.811v5.231h-92.513c-.002.075-.003.15-.003.225v5.231h97.972v-5.231c0-3.837-2.476-7.097-5.919-8.267z" fill="#58595b"/></g></g><g><g><path d="m105.622 230.896c-2.336 0-4.23-1.894-4.23-4.23v-50.398h8.459v50.398c.001 2.336-1.893 4.23-4.229 4.23z" fill="#939598"/></g></g><g><g><path d="m107.669 176.267v48.216c0 2.336-1.894 4.23-4.23 4.23-.602 0-1.175-.126-1.694-.353.653 1.493 2.143 2.536 3.877 2.536 2.336 0 4.23-1.894 4.23-4.23v-50.398h-2.183z" fill="#808285"/></g></g><g><g><path d="m128 230.896c-2.336 0-4.23-1.894-4.23-4.23v-50.398h8.459v50.398c.001 2.336-1.893 4.23-4.229 4.23z" fill="#939598"/></g></g><g><g><path d="m130.047 176.267v48.216c0 2.336-1.894 4.23-4.23 4.23-.602 0-1.175-.126-1.694-.353.653 1.493 2.143 2.536 3.877 2.536 2.336 0 4.23-1.894 4.23-4.23v-50.398h-2.183z" fill="#808285"/></g></g><g><g><path d="m150.378 230.896c-2.336 0-4.23-1.894-4.23-4.23v-50.398h8.46v50.398c0 2.336-1.894 4.23-4.23 4.23z" fill="#939598"/></g></g><g><g><path d="m152.425 176.267v48.216c0 2.336-1.894 4.23-4.23 4.23-.602 0-1.175-.126-1.694-.353.653 1.493 2.143 2.536 3.876 2.536 2.336 0 4.23-1.894 4.23-4.23v-50.398h-2.182z" fill="#808285"/></g></g><g><g><path d="m172.756 230.896c-2.336 0-4.23-1.894-4.23-4.23v-50.398h8.46v50.398c0 2.336-1.894 4.23-4.23 4.23z" fill="#939598"/></g></g><g><g><path d="m174.804 176.267v48.216c0 2.336-1.894 4.23-4.23 4.23-.602 0-1.175-.126-1.694-.353.653 1.493 2.143 2.536 3.877 2.536 2.336 0 4.23-1.894 4.23-4.23v-50.398h-2.183z" fill="#808285"/></g></g></g></g><g><g><g><path d="m119.739 62.078h16.521v78.306h-16.521z" fill="#ffa91a"/></g></g><g><g><path d="m125.74 130.57c-1.101 0-2-.9-2-2.01 0-1.1.899-2 2-2 1.1 0 2 .9 2 2 0 1.11-.9 2.01-2 2.01zm0-8.01c-1.101 0-2-.89-2-2v-50.99c0-1.1.899-2 2-2 1.1 0 2 .9 2 2v50.99c0 1.11-.9 2-2 2z" fill="#ffc91d"/></g></g><g><g><path d="m130.804 62.078v72.851h-11.065v5.456h16.522v-78.307z" fill="#ef7816"/></g></g><g><g><path d="m102.617 40.382v6.42c0 8.437 6.84 15.277 15.277 15.277h20.212c8.437 0 15.277-6.84 15.277-15.277v-6.42c0-8.437-6.84-15.277-15.277-15.277h-20.212c-8.437-.001-15.277 6.839-15.277 15.277zm34.277 11.413h-17.789c-2.411 0-4.365-1.954-4.365-4.365v-7.678c0-2.411 1.954-4.365 4.365-4.365h17.789c2.411 0 4.365 1.954 4.365 4.365v7.678c0 2.411-1.954 4.365-4.365 4.365z" fill="#ffa91a"/></g></g><g><g><g><path d="m145.832 27.199c1.331 2.267 2.095 4.907 2.095 7.726v6.42c0 8.437-6.84 15.277-15.277 15.277h-20.212c-2.819 0-5.459-.764-7.726-2.095 2.654 4.518 7.564 7.551 13.182 7.551h20.212c8.437 0 15.277-6.84 15.277-15.277v-6.42c0-5.618-3.033-10.528-7.551-13.182z" fill="#ef7816"/></g></g></g></g></g></svg>