<svg id="Layer_1" enable-background="new 0 0 256 256" height="512" viewBox="0 0 256 256" width="512" xmlns="http://www.w3.org/2000/svg"><g><g><g><path d="m219.033 148.36h-182.039l22.981-58.093c11.043-27.916 38.018-46.254 68.039-46.254 30.021 0 56.996 18.338 68.039 46.254z" fill="#f79219"/></g></g><g><g><g><g><path d="m105.152 85.711c1.738 1.738 4.555 1.738 6.293 0l6.973-6.973c1.738-1.738 1.738-4.555 0-6.293-1.738-1.738-4.555-1.738-6.293 0l-6.973 6.973c-1.738 1.738-1.738 4.555 0 6.293z" fill="#ffa91a"/></g></g><g><g><path d="m87.15 101.885c-1.738 1.738-4.555 1.738-6.293 0l-6.973-6.973c-1.738-1.738-1.738-4.555 0-6.293 1.738-1.738 4.555-1.738 6.293 0l6.973 6.973c1.738 1.738 1.738 4.556 0 6.293z" fill="#ffa91a"/></g></g><g><g><path d="m105.152 113.611c1.738 1.738 4.555 1.738 6.293 0l6.973-6.973c1.738-1.738 1.738-4.555 0-6.293-1.738-1.738-4.555-1.738-6.293 0l-6.973 6.973c-1.738 1.738-1.738 4.556 0 6.293z" fill="#ffa91a"/></g></g><g><g><path d="m87.15 129.786c-1.738 1.738-4.555 1.738-6.293 0l-6.973-6.973c-1.738-1.738-1.738-4.555 0-6.293 1.738-1.738 4.555-1.738 6.293 0l6.973 6.973c1.738 1.738 1.738 4.555 0 6.293z" fill="#ffa91a"/></g></g><g><g><path d="m105.152 141.512c1.738 1.738 4.555 1.738 6.293 0l6.973-6.973c1.738-1.738 1.738-4.555 0-6.293-1.738-1.738-4.555-1.738-6.293 0l-6.973 6.973c-1.738 1.738-1.738 4.555 0 6.293z" fill="#ffa91a"/></g></g></g><g><g><g><path d="m151.369 73.985c-1.738 1.738-4.555 1.738-6.293 0l-6.973-6.973c-1.738-1.738-1.738-4.555 0-6.293 1.738-1.738 4.555-1.738 6.293 0l6.973 6.973c1.738 1.738 1.738 4.555 0 6.293z" fill="#ffa91a"/></g></g><g><g><path d="m151.369 101.885c-1.738 1.738-4.555 1.738-6.293 0l-6.973-6.973c-1.738-1.738-1.738-4.555 0-6.293 1.738-1.738 4.555-1.738 6.293 0l6.973 6.973c1.738 1.738 1.738 4.556 0 6.293z" fill="#ffa91a"/></g></g><g><g><path d="m169.371 113.611c1.738 1.738 4.555 1.738 6.293 0l6.973-6.973c1.738-1.738 1.738-4.555 0-6.293-1.738-1.738-4.555-1.738-6.293 0l-6.973 6.973c-1.738 1.738-1.738 4.556 0 6.293z" fill="#ffa91a"/></g></g><g><g><path d="m151.369 129.786c-1.738 1.738-4.555 1.738-6.293 0l-6.973-6.973c-1.738-1.738-1.738-4.555 0-6.293 1.738-1.738 4.555-1.738 6.293 0l6.973 6.973c1.738 1.738 1.738 4.555 0 6.293z" fill="#ffa91a"/></g></g><g><g><path d="m169.371 141.512c1.738 1.738 4.555 1.738 6.293 0l6.973-6.973c1.738-1.738 1.738-4.555 0-6.293-1.738-1.738-4.555-1.738-6.293 0l-6.973 6.973c-1.738 1.738-1.738 4.555 0 6.293z" fill="#ffa91a"/></g></g></g></g><g><g><path d="m196.052 90.267c-8.206-20.744-25.212-36.191-45.725-42.763 11.324 8.028 20.389 19.272 25.725 32.763l22.981 58.093h-158.083l-3.956 10h182.039z" fill="#ef7816"/></g></g><g><g><g><path d="m52.6 127.23c-.25 0-.5-.05-.74-.14-1.02-.41-1.529-1.57-1.119-2.6.399-1 1.579-1.52 2.59-1.12.5.19.89.57 1.1 1.06.22.49.22 1.04.03 1.53-.312.77-1.041 1.27-1.861 1.27zm2.94-7.44c-.25 0-.5-.05-.74-.14-1.02-.41-1.53-1.57-1.12-2.6l10.01-25.31c5.13-12.95 13.92-23.93 25.44-31.76 11.51-7.83 24.95-11.97 38.87-11.97 5.84 0 11.64.73 17.229 2.17 1.07.27 1.721 1.37 1.45 2.43-.28 1.05-1.38 1.71-2.439 1.44-5.28-1.35-10.74-2.04-16.23-2.04-13.12 0-25.79 3.9-36.64 11.28s-19.13 17.72-23.96 29.92l-10.011 25.31c-.299.77-1.029 1.27-1.859 1.27z" fill="#ffa91a"/></g></g></g><g><g><path d="m224.347 211.987h-192.694c-2.209 0-4-1.791-4-4v-55.627c0-2.209 1.791-4 4-4h192.695c2.209 0 4 1.791 4 4v55.627c-.001 2.209-1.791 4-4.001 4z" fill="#8c3f0a"/></g></g><g><g><g><path d="m27.653 181.502h200.695v13.216h-200.695z" fill="#7c3108"/></g></g><g><g><path d="m27.653 159.733h200.695v13.216h-200.695z" fill="#7c3108"/></g></g></g><g><g><path d="m224.347 148.36h-6v49.627c0 2.209-1.791 4-4 4h-186.694v6c0 2.209 1.791 4 4 4h192.695c2.209 0 4-1.791 4-4v-55.627c-.001-2.209-1.791-4-4.001-4z" fill="#7c3108"/></g></g><g><g><path d="m224.347 148.36h-1v54.627c0 2.209-1.791 4-4 4h-191.694v1c0 2.209 1.791 4 4 4h192.695c2.209 0 4-1.791 4-4v-55.627c-.001-2.209-1.791-4-4.001-4z" fill="#6d2e03"/></g></g></g></svg>