<svg id="Layer_1" enable-background="new 0 0 256 256" height="512" viewBox="0 0 256 256" width="512" xmlns="http://www.w3.org/2000/svg"><g><g><g><path d="m120.982 204.231h-9.425l12.172-27.987h9.424z" fill="#808285"/></g></g><g><g><path d="m185.543 204.231h9.425l-12.172-27.987h-9.425z" fill="#808285"/></g></g><g><g><path d="m174.791 86.259h-35.89c-16.687 0-31.368 8.588-39.865 21.585-.73 1.117-1.985 1.778-3.32 1.778h-52.523c-1.562 0-2.982-.91-3.634-2.329l-7.468-16.244c-2.251-4.896-8.045-7.041-12.942-4.79-4.897 2.251-7.041 8.046-4.79 12.942l9.623 20.93c.511 1.111.485 2.396-.07 3.486l-6.535 12.836c-2.445 4.803-.534 10.678 4.269 13.123 4.803 2.445 10.678.534 13.123-4.269l3.742-7.35c.791-1.555 2.499-2.417 4.22-2.131l47.091 7.822c1.532.254 2.776 1.373 3.189 2.87 5.545 20.138 23.99 34.93 45.89 34.93h35.89c26.286 0 47.594-21.309 47.594-47.594.001-26.287-21.308-47.595-47.594-47.595z" fill="#76a34f"/></g></g><g><g><path d="m93.74 117.62c-1.101 0-2-.9-2-2s.899-2 2-2c1.109 0 2 .9 2 2s-.89 2-2 2zm-8 0h-41.24c-1.101 0-2-.9-2-2s.899-2 2-2h41.24c1.109 0 2 .9 2 2s-.89 2-2 2z" fill="#91b56b"/></g></g><g><g><g><path d="m203.071 95.574c5.851 7.907 9.315 17.687 9.315 28.279 0 26.286-21.309 47.594-47.594 47.594h-35.89c-10.594 0-20.377-3.465-28.285-9.319 8.669 11.719 22.589 19.319 38.285 19.319h35.89c26.285 0 47.594-21.309 47.594-47.594 0-15.694-7.599-29.61-19.315-38.279z" fill="#648940"/></g></g></g><g><g><path d="m160.837 50.888h-7.981c-2.209 0-4 1.791-4 4v31.371h15.981v-31.371c0-2.209-1.791-4-4-4z" fill="#808285"/></g></g><g><g><path d="m160.837 50.888h-1v30.371h-10.981v5h15.981v-31.371c0-2.209-1.791-4-4-4z" fill="#58595b"/></g></g><g><g><path d="m176.762 86.309v53.906c0 6.665 5.403 12.067 12.067 12.067h29.854c2.383-5.669 3.702-11.894 3.702-18.429.001-25.625-20.252-46.51-45.623-47.544z" fill="#f1f2f2"/></g></g><g><g><path d="m203.08 95.598c5.844 7.902 9.305 17.672 9.305 28.255 0 6.535-1.319 12.76-3.702 18.429h-29.853c-.649 0-1.281-.066-1.903-.164.914 5.758 5.888 10.164 11.903 10.164h29.854c2.383-5.669 3.702-11.894 3.702-18.429 0-15.687-7.598-29.588-19.306-38.255z" fill="#e6e7e8"/></g></g><g><g><path d="m205.826 97.775c7.2 8.337 11.56 19.195 11.56 31.077 0 6.535-1.319 12.76-3.702 18.429h-29.854c-2.045 0-3.969-.513-5.657-1.411 2.028 3.813 6.037 6.411 10.657 6.411h29.854c2.383-5.669 3.702-11.894 3.702-18.429 0-14.427-6.421-27.351-16.56-36.077z" fill="#d1d3d4"/></g></g><g><g><path d="m190.882 214h-95.589c-2.762 0-5-2.239-5-5s2.238-5 5-5h95.589c10.26 0 20.194-3.008 28.73-8.699 2.299-1.533 5.401-.91 6.934 1.387 1.532 2.297.911 5.402-1.387 6.934-10.183 6.79-22.037 10.378-34.277 10.378z" fill="#58595b"/></g></g><g><g><path d="m72.524 69.718h76.331v-8.315h-76.331c-2.296 0-4.158 1.861-4.158 4.158.001 2.296 1.862 4.157 4.158 4.157z" fill="#58595b"/></g></g><g><g><path d="m241.168 69.718h-76.331v-8.315h76.331c2.296 0 4.158 1.861 4.158 4.158 0 2.296-1.862 4.157-4.158 4.157z" fill="#58595b"/></g></g><g><g><g><path d="m117.925 117.644c-1.381 0-2.5-1.119-2.5-2.5v-9.337c0-1.381 1.119-2.5 2.5-2.5s2.5 1.119 2.5 2.5v9.337c0 1.38-1.119 2.5-2.5 2.5z" fill="#5a7a39"/></g></g><g><g><path d="m126.607 117.644c-1.381 0-2.5-1.119-2.5-2.5v-9.337c0-1.381 1.119-2.5 2.5-2.5s2.5 1.119 2.5 2.5v9.337c0 1.38-1.119 2.5-2.5 2.5z" fill="#5a7a39"/></g></g><g><g><path d="m135.29 117.644c-1.381 0-2.5-1.119-2.5-2.5v-9.337c0-1.381 1.119-2.5 2.5-2.5s2.5 1.119 2.5 2.5v9.337c0 1.38-1.119 2.5-2.5 2.5z" fill="#5a7a39"/></g></g></g></g></svg>