<svg id="Layer_1" enable-background="new 0 0 256 256" height="512" viewBox="0 0 256 256" width="512" xmlns="http://www.w3.org/2000/svg"><g><g><g><g><g><g><g><path d="m110.73 83.458v-21.634h-62.151c-5.974 0-10.817 4.843-10.817 10.817 0 5.974 4.843 10.817 10.817 10.817z" fill="#8c3f0a"/></g></g></g></g></g><g><g><path d="m100.73 61.824v11.633h-62.151c-.265 0-.528-.01-.788-.029.404 5.606 5.079 10.029 10.788 10.029h62.151v-21.633z" fill="#7c3108"/></g></g><g><g><g><g><g><path d="m137.607 87.568v-29.854c0-7.422-6.017-13.438-13.438-13.438-7.422 0-13.438 6.017-13.438 13.438v29.854c0 7.422 6.017 13.438 13.438 13.438 7.421 0 13.438-6.016 13.438-13.438z" fill="#fcc4ae"/></g></g></g></g></g><g><g><path d="m127.251 44.631c.232.99.356 2.022.356 3.083v29.854c0 7.422-6.017 13.438-13.439 13.438-1.061 0-2.093-.123-3.083-.355 1.393 5.936 6.722 10.355 13.083 10.355 7.422 0 13.439-6.017 13.439-13.438v-29.854c0-6.361-4.42-11.69-10.356-13.083z" fill="#f2ad97"/></g></g><g><g><g><g><g><path d="m218.238 87.568v-29.854c0-7.422-6.017-13.438-13.438-13.438-7.422 0-13.438 6.017-13.438 13.438v29.854c0 7.422 6.017 13.438 13.438 13.438 7.421 0 13.438-6.016 13.438-13.438z" fill="#fcc4ae"/></g></g></g></g></g><g><g><path d="m207.882 44.631c.232.99.356 2.022.356 3.083v29.854c0 7.422-6.017 13.438-13.439 13.438-1.061 0-2.093-.123-3.083-.355 1.393 5.936 6.722 10.355 13.083 10.355 7.422 0 13.439-6.017 13.439-13.438v-29.854c0-6.361-4.42-11.69-10.356-13.083z" fill="#f2ad97"/></g></g><g><g><g><g><g><path d="m164.484 97.318v-49.355c0-7.422-6.017-13.438-13.438-13.438-7.422 0-13.438 6.017-13.438 13.438v49.355c0 7.422 6.017 13.438 13.438 13.438 7.421.001 13.438-6.016 13.438-13.438z" fill="#fcc4ae"/></g></g></g></g></g><g><g><path d="m154.128 34.88c.232.99.356 2.022.356 3.083v49.355c0 7.422-6.017 13.438-13.438 13.438-1.061 0-2.093-.123-3.083-.355 1.393 5.936 6.722 10.355 13.083 10.355 7.422 0 13.438-6.017 13.438-13.438v-49.355c0-6.36-4.42-11.689-10.356-13.083z" fill="#f2ad97"/></g></g><g><g><g><g><g><path d="m191.361 97.318v-49.355c0-7.422-6.017-13.438-13.438-13.438-7.422 0-13.438 6.017-13.438 13.438v49.355c0 7.422 6.017 13.438 13.438 13.438 7.421.001 13.438-6.016 13.438-13.438z" fill="#fcc4ae"/></g></g></g></g></g><g><g><path d="m181.005 34.88c.232.99.356 2.022.356 3.083v49.355c0 7.422-6.017 13.438-13.438 13.438-1.061 0-2.093-.123-3.083-.355 1.393 5.936 6.722 10.355 13.083 10.355 7.422 0 13.438-6.017 13.438-13.438v-49.355c0-6.36-4.42-11.689-10.356-13.083z" fill="#f2ad97"/></g></g></g><g><g><g><path d="m203.736 199.513c0 21.794-17.667 39.461-39.461 39.461s-39.461-17.667-39.461-39.461c0-15.186 19.159-51.057 30.778-71.413 3.844-6.735 13.523-6.735 17.367 0 11.617 20.356 30.777 56.227 30.777 71.413z" fill="#ffa91a"/></g></g></g><g><g><g><path d="m112.72 159.106c0 15.471-12.542 28.013-28.013 28.013s-28.013-12.542-28.013-28.013c0-10.78 13.601-36.245 21.849-50.696 2.729-4.781 9.6-4.781 12.329 0 8.247 14.451 21.848 39.915 21.848 50.696z" fill="#ffa91a"/></g></g></g><g><g><path d="m90.871 108.41c-1.409-2.469-3.922-3.662-6.399-3.582 8.084 14.666 18.248 34.959 18.248 44.278 0 15.471-12.542 28.013-28.013 28.013-5.17 0-10.013-1.401-14.17-3.844 4.867 8.283 13.869 13.844 24.17 13.844 15.471 0 28.013-12.542 28.013-28.013 0-10.781-13.601-36.245-21.849-50.696z" fill="#f79219"/></g></g><g><g><path d="m135.87 219.18c-.7 0-1.33-.35-1.7-.939 0 0 0 0 0-.011-.28-.449-.37-.979-.25-1.5.12-.52.43-.96.89-1.239.91-.57 2.19-.271 2.75.63.01.01.01.01.01.01.28.46.37.99.25 1.51-.119.521-.439.96-.89 1.24-.321.199-.69.299-1.06.299zm-3.391-7.22c-.859 0-1.63-.55-1.899-1.38-1.17-3.561-1.771-7.29-1.771-11.07.04-5.39 2.62-13.79 8.12-26.41 5.23-11.93 12.88-26.8 22.13-43.02.53-.92 1.811-1.271 2.73-.74.47.26.8.69.939 1.21.141.51.07 1.05-.189 1.51-9.19 16.101-16.771 30.84-21.94 42.641-4.99 11.319-7.83 20.359-7.79 24.81 0 3.36.53 6.67 1.57 9.82v.02c.34 1.04-.23 2.16-1.271 2.51-.209.059-.419.099-.629.099z" fill="#ffc91d"/></g></g><g><g><path d="m172.958 128.1c-1.628-2.852-4.301-4.496-7.135-4.932 11.646 20.798 27.913 52.353 27.913 66.346 0 21.794-17.667 39.461-39.461 39.461-8.343 0-16.08-2.589-22.454-7.007 7.124 10.277 19.003 17.007 32.454 17.007 21.794 0 39.461-17.667 39.461-39.461 0-15.187-19.16-51.058-30.778-71.414z" fill="#f79219"/></g></g><g><g><path d="m172.958 128.1c-1.112-1.948-2.712-3.333-4.518-4.154 11.658 20.49 30.296 55.59 30.296 70.567 0 21.794-17.667 39.461-39.461 39.461-9.624 0-18.443-3.446-25.291-9.17 7.239 8.66 18.121 14.17 30.291 14.17 21.794 0 39.461-17.667 39.461-39.461 0-15.186-19.16-51.057-30.778-71.413z" fill="#ef7816"/></g></g></g></svg>