<svg id="Layer_1" enable-background="new 0 0 256 256" height="512" viewBox="0 0 256 256" width="512" xmlns="http://www.w3.org/2000/svg"><g><g><g><g><g><g><path d="m57.051 81.143c-13.727 40.889-13.727 81.778 0 122.667 3.277 9.762 12.589 16.352 23.073 16.352h97.746c10.484 0 19.796-6.59 23.073-16.352 13.727-40.889 13.727-81.778 0-122.667-3.277-9.762-12.589-16.352-23.073-16.352h-97.746c-10.484.001-19.796 6.591-23.073 16.352z" fill="#f1f2f2"/></g></g><g><g><path d="m61.3 200.359c-.88 0-1.65-.569-1.91-1.409-5.73-18.73-8.63-37.75-8.63-56.53 0-8.16.55-16.45 1.65-24.64.14-1.08 1.16-1.86 2.24-1.721.53.07 1 .34 1.33.771.32.42.46.95.39 1.479-1.07 8.021-1.62 16.13-1.62 24.11.01 18.38 2.85 37.01 8.46 55.36.16.51.11 1.05-.14 1.52s-.67.82-1.18.97c-.19.061-.39.09-.59.09zm-5.68-88.219c-.12 0-.24-.01-.35-.03-.53-.09-.99-.39-1.29-.819-.31-.44-.42-.971-.33-1.5.19-1.07 1.24-1.82 2.32-1.62 1.08.189 1.81 1.229 1.62 2.32-.17.948-1 1.649-1.97 1.649z" fill="#fff"/></g></g></g></g></g><g><g><path d="m200.943 81.144c-1.981-5.901-6.167-10.642-11.484-13.47.581 1.104 1.078 2.262 1.484 3.47 13.727 40.889 13.727 81.778 0 122.667-3.277 9.762-12.589 16.352-23.073 16.352h-97.746c-4.147 0-8.11-1.031-11.589-2.882 4.115 7.821 12.402 12.882 21.589 12.882h97.746c10.484 0 19.796-6.59 23.073-16.352 13.727-40.89 13.727-81.779 0-122.667z" fill="#e6e7e8"/></g></g><g><g><path d="m71.854 191.129c2.603 7.753 9.999 12.987 18.326 12.987h77.634c8.327 0 15.723-5.234 18.326-12.987 6.553-19.519 9.166-39.038 7.842-58.557-.316-4.663-4.198-8.285-8.872-8.285h-112.225c-4.674 0-8.555 3.622-8.872 8.285-1.325 19.519 1.289 39.038 7.841 58.557z" fill="#ffa91a"/></g></g><g><g><path d="m193.981 132.572c-.316-4.663-4.198-8.285-8.872-8.285h-1.022c1.062 18.947-1.587 37.895-7.947 56.842-2.603 7.753-9.999 12.987-18.326 12.987h-77.634c-2.749 0-5.396-.571-7.804-1.614 2.976 6.991 9.979 11.614 17.804 11.614h77.634c8.327 0 15.723-5.234 18.326-12.987 6.552-19.519 9.166-39.038 7.841-58.557z" fill="#f79219"/></g></g><g><g><path d="m193.981 132.572c-.238-3.513-2.5-6.435-5.6-7.663.329.832.536 1.726.6 2.663 1.324 19.519-1.289 39.038-7.842 58.557-2.603 7.753-9.999 12.987-18.326 12.987h-77.633c-4.052 0-7.883-1.24-11.049-3.405 3.517 5.162 9.494 8.405 16.049 8.405h77.634c8.327 0 15.723-5.234 18.326-12.987 6.552-19.519 9.166-39.038 7.841-58.557z" fill="#ef7816"/></g></g><g><g><g><g><g><g><path d="m184.109 35.838h-112.218c-10.86 0-19.664 8.804-19.664 19.664v8.143h151.546v-8.143c0-10.86-8.804-19.664-19.664-19.664z" fill="#8c3f0a"/></g></g></g></g></g><g><g><path d="m192.087 37.524c1.084 2.438 1.686 5.138 1.686 7.978v8.143h-141.459c-.057.611-.087 1.23-.087 1.857v8.143h151.546v-8.143c0-8.02-4.801-14.918-11.686-17.978z" fill="#7c3108"/></g></g><g><g><path d="m213.85 73.024h-171.7c-2.59 0-4.689-2.1-4.689-4.689 0-2.59 2.1-4.689 4.689-4.689h171.7c2.59 0 4.689 2.1 4.689 4.689.001 2.59-2.099 4.689-4.689 4.689z" fill="#e63950"/></g></g><g><g><path d="m213.85 63.646h-.321c-.16 2.445-2.193 4.379-4.679 4.379h-171.379c-.007.103-.01.206-.01.311 0 2.59 2.1 4.689 4.69 4.689h171.699c2.59 0 4.689-2.1 4.689-4.689s-2.099-4.69-4.689-4.69z" fill="#d10028"/></g></g><g><g><path d="m216.453 99.479h-176.906c-3.773 0-5.827-4.407-3.402-7.296l16.081-19.158h151.546l16.081 19.158c2.427 2.889.372 7.296-3.4 7.296z" fill="#8c3f0a"/></g></g><g><g><path d="m219.854 92.182-16.081-19.158h-11.606l7.687 9.158c2.426 2.89.371 7.296-3.402 7.296h-158.037l-2.269 2.704c-2.426 2.89-.371 7.296 3.402 7.296h176.905c3.772.001 5.827-4.406 3.401-7.296z" fill="#7c3108"/></g></g></g></g></svg>