<svg id="Layer_1" enable-background="new 0 0 256 256" height="512" viewBox="0 0 256 256" width="512" xmlns="http://www.w3.org/2000/svg"><g><g><g><path d="m188.287 228.541h-120.574c-5.45 0-9.305-5.33-7.597-10.506l8.566-25.967c9.131-27.681 14.835-56.377 16.985-85.446l2.543-34.384h79.583l2.543 34.384c2.15 29.069 7.854 57.765 16.985 85.446l8.566 25.967c1.705 5.175-2.15 10.506-7.6 10.506z" fill="#8c3f0a"/></g></g><g><g><path d="m195.885 218.035-8.566-25.967c-9.131-27.681-14.835-56.377-16.985-85.446l-2.543-34.384h-19.26l1.803 24.384c2.15 29.069 7.854 57.765 16.985 85.446l8.566 25.967c1.707 5.176-2.147 10.506-7.597 10.506h-108.306c-1.305 5.011 2.458 10 7.731 10h120.575c5.449 0 9.304-5.331 7.597-10.506z" fill="#7c3108"/></g></g><g><g><g><g><g><g><path d="m102.915 45.106c5.788 11.164 3.212 23.981-5.753 28.629s-20.924-.634-26.712-11.798c-4.498-8.675-1.826-27.511-.412-35.478.363-2.047 2.238-3.019 4.12-2.136 7.327 3.436 24.26 12.108 28.757 20.783z" fill="#fcc4ae"/></g></g><g><g><path d="m102.915 45.106c-1.324-2.555-3.731-5.108-6.65-7.528.653.84 1.212 1.684 1.65 2.528 5.788 11.164 3.212 23.981-5.753 28.629-5.936 3.077-13.183 1.798-19.083-2.656 6.301 8.251 16.315 11.683 24.083 7.656 8.965-4.648 11.541-17.465 5.753-28.629z" fill="#f2ad97"/></g></g><g><g><path d="m95.461 46.675c3.464 6.682 1.923 14.354-3.443 17.136s-12.524-.38-15.989-7.062c-2.692-5.193-1.093-16.467-.246-21.236.218-1.225 1.339-1.807 2.466-1.279 4.384 2.057 14.52 7.248 17.212 12.441z" fill="#8c3f0a"/></g></g><g><g><path d="m95.461 46.675c-.992-1.914-2.999-3.826-5.353-5.583.121.194.252.389.353.583 3.464 6.682 1.923 14.354-3.443 17.136-3.179 1.648-6.982 1.197-10.278-.822 3.664 5.822 10.255 8.426 15.278 5.822 5.366-2.782 6.907-10.454 3.443-17.136z" fill="#7c3108"/></g></g></g></g></g><g><g><g><g><g><path d="m153.085 45.106c-5.788 11.164-3.212 23.981 5.753 28.629s20.924-.634 26.712-11.798c4.498-8.675 1.826-27.511.412-35.478-.363-2.047-2.238-3.019-4.12-2.136-7.327 3.436-24.26 12.108-28.757 20.783z" fill="#fcc4ae"/></g></g><g><g><path d="m185.961 26.459c-.363-2.047-2.238-3.019-4.12-2.136-.119.056-.248.117-.373.176 1.413 8.998 3.078 24.728-.919 32.438-5.788 11.164-17.747 16.446-26.711 11.798-.321-.166-.615-.365-.919-.552 1.461 2.333 3.434 4.264 5.919 5.552 8.965 4.648 20.924-.634 26.711-11.798 4.498-8.675 1.826-27.511.412-35.478z" fill="#f2ad97"/></g></g><g><g><path d="m160.539 46.675c-3.464 6.682-1.923 14.354 3.443 17.136s12.524-.38 15.989-7.062c2.692-5.193 1.093-16.467.246-21.236-.218-1.225-1.339-1.807-2.466-1.279-4.384 2.057-14.52 7.248-17.212 12.441z" fill="#8c3f0a"/></g></g><g><g><path d="m180.218 35.513c-.218-1.225-1.339-1.807-2.466-1.278-.534.25-1.155.549-1.836.886.68 5.425 1.073 12.735-.945 16.628-3.308 6.382-9.982 9.538-15.25 7.388.884 2.012 2.318 3.667 4.262 4.674 5.366 2.782 12.524-.38 15.989-7.062 2.691-5.192 1.092-16.467.246-21.236z" fill="#7c3108"/></g></g></g></g></g></g><g><g><path d="m147.697 50.069h-39.395c-14.324 0-25.936 11.612-25.936 25.936v32.244c0 9.461 2.879 18.249 7.809 25.536 9.005 13.311 14.204 28.825 14.204 44.895v11.352c0 11.144 9.034 20.178 20.178 20.178h6.884c11.144 0 20.178-9.034 20.178-20.178v-11.352c0-16.07 5.199-31.585 14.204-44.895 4.93-7.287 7.809-16.075 7.809-25.536v-32.244c.001-14.324-11.611-25.936-25.935-25.936z" fill="#fcc4ae"/></g></g><g><g><path d="m88.37 100.19c-1.11 0-2-.9-2-2 0-1.11.89-2 2-2 1.1 0 2 .89 2 2 0 1.1-.9 2-2 2zm0-8c-1.11 0-2-.9-2-2v-14.18c0-5.27 1.899-10.36 5.34-14.34 3.42-3.95 8.109-6.55 13.229-7.34 1.07-.17 2.12.6 2.29 1.67.16 1.09-.59 2.11-1.67 2.28-8.67 1.34-15.2 8.96-15.189 17.73v14.18c0 1.1-.9 2-2 2z" fill="#ffd2c0"/></g></g><g><g><path d="m160.341 53.361c2.094 3.741 3.292 8.052 3.292 12.644v32.244c0 9.461-2.879 18.249-7.809 25.536-9.005 13.311-14.204 28.825-14.204 44.895v11.352c0 11.144-9.034 20.178-20.178 20.178h-6.884c-2.983 0-5.804-.664-8.352-1.826 3.178 6.971 10.191 11.826 18.352 11.826h6.884c11.144 0 20.178-9.034 20.178-20.178v-11.352c0-16.07 5.199-31.585 14.204-44.895 4.93-7.287 7.809-16.076 7.809-25.536v-32.244c0-9.732-5.363-18.207-13.292-22.644z" fill="#f2ad97"/></g></g><g><g><path d="m163.364 55.339c3.305 4.353 5.269 9.779 5.269 15.666v32.244c0 9.461-2.879 18.249-7.809 25.536-9.005 13.311-14.204 28.825-14.204 44.895v11.352c0 11.144-9.034 20.178-20.178 20.178h-6.884c-4.294 0-8.268-1.352-11.539-3.639 3.647 5.218 9.69 8.639 16.539 8.639h6.884c11.144 0 20.178-9.034 20.178-20.178v-11.352c0-16.07 5.199-31.585 14.204-44.895 4.93-7.287 7.809-16.076 7.809-25.536v-32.244c0-8.437-4.031-15.93-10.269-20.666z" fill="#e59076"/></g></g><g><g><g><path d="m118.128 190.891c-2.005 0-3.631-1.626-3.631-3.631v-5.851c0-2.005 1.626-3.631 3.631-3.631 2.005 0 3.631 1.626 3.631 3.631v5.851c0 2.005-1.625 3.631-3.631 3.631z" fill="#8c3f0a"/></g></g><g><g><path d="m119.49 178.047c.171.421.269.879.269 1.362v5.851c0 2.005-1.626 3.631-3.631 3.631-.482 0-.941-.099-1.362-.269.539 1.329 1.839 2.269 3.362 2.269 2.005 0 3.631-1.626 3.631-3.631v-5.851c0-1.523-.94-2.822-2.269-3.362z" fill="#7c3108"/></g></g><g><g><path d="m137.872 190.891c-2.005 0-3.631-1.626-3.631-3.631v-5.851c0-2.005 1.626-3.631 3.631-3.631 2.005 0 3.631 1.626 3.631 3.631v5.851c0 2.005-1.626 3.631-3.631 3.631z" fill="#8c3f0a"/></g></g><g><g><path d="m139.234 178.047c.171.421.269.879.269 1.362v5.851c0 2.005-1.626 3.631-3.631 3.631-.482 0-.941-.099-1.362-.269.539 1.329 1.839 2.269 3.362 2.269 2.005 0 3.631-1.626 3.631-3.631v-5.851c0-1.523-.94-2.822-2.269-3.362z" fill="#7c3108"/></g></g></g><g><g><g><g><ellipse cx="93.684" cy="116.098" fill="#8c3f0a" rx="5.299" ry="10.111" transform="matrix(.914 -.407 .407 .914 -39.124 48.146)"/></g></g></g><g><g><path d="m98.525 113.942c-1.151-2.585-2.748-4.67-4.391-5.947.895 1.108 1.72 2.44 2.391 3.947 2.271 5.101 1.945 10.202-.728 11.392-1.319.587-2.963.11-4.563-1.134 2.135 2.641 4.679 3.972 6.563 3.134 2.673-1.19 2.999-6.291.728-11.392z" fill="#7c3108"/></g></g><g><g><g><ellipse cx="162.316" cy="116.098" fill="#8c3f0a" rx="10.111" ry="5.299" transform="matrix(.407 -.914 .914 .407 -9.767 217.154)"/></g></g></g><g><g><path d="m166.429 106.861c-.095-.042-.195-.067-.293-.098.933 2.219.642 5.85-.979 9.49-2.191 4.92-5.995 8.032-8.661 7.179.375.891.941 1.561 1.707 1.902 2.674 1.19 6.682-1.98 8.954-7.081 2.271-5.101 1.946-10.202-.728-11.392z" fill="#7c3108"/></g></g></g><g><g><path d="m136.428 130.988-6.617 14.114c-.719 1.535-2.902 1.535-3.622 0l-6.617-14.114c-.252-.538-.252-1.16 0-1.698l6.617-14.114c.719-1.535 2.902-1.535 3.622 0l6.617 14.114c.252.538.252 1.161 0 1.698z" fill="#fff"/></g></g><g><g><path d="m136.428 129.291-6.617-14.114c-.57-1.217-2.051-1.453-3.003-.74l4.62 9.854c.252.538.252 1.16 0 1.698l-6.617 14.114c-.149.318-.37.554-.619.74l1.997 4.26c.719 1.535 2.902 1.535 3.622 0l6.617-14.114c.252-.539.252-1.161 0-1.698z" fill="#e6e7e8"/></g></g><g><g><g><path d="m135.2 50.069h-25.997c0 14.853 12.04 26.893 26.893 26.893 4.71 0 9.136-1.212 12.985-3.339 1.412-.781 1.394-2.777-.025-3.545-7.383-3.996-12.677-11.347-13.856-20.009z" fill="#8c3f0a"/></g></g><g><g><g><path d="m148.954 70.078c-1.419-.768-2.759-1.662-4.01-2.664-.138.484-.455.927-.966 1.209-3.849 2.127-8.276 3.339-12.985 3.339-6.152 0-11.817-2.07-16.348-5.545 4.915 6.409 12.647 10.545 21.348 10.545 4.71 0 9.136-1.212 12.985-3.339 1.413-.781 1.395-2.777-.024-3.545z" fill="#7c3108"/></g></g></g><g><g><path d="m146.56 50.069h-14.26c0 8.147 6.605 14.752 14.752 14.752 1.915 0 3.744-.365 5.422-1.029 1.505-.596 1.752-2.612.413-3.522-3.378-2.298-5.75-5.964-6.327-10.201z" fill="#8c3f0a"/></g></g><g><g><path d="m152.887 60.27c-3.379-2.298-5.75-5.963-6.327-10.2h-3.348c1.128 2.083 2.726 3.874 4.675 5.2 1.339.91 1.092 2.927-.413 3.522-1.678.664-3.508 1.029-5.422 1.029-2.791 0-5.391-.789-7.616-2.136 2.584 4.271 7.26 7.136 12.616 7.136 1.915 0 3.744-.365 5.422-1.029 1.505-.596 1.752-2.612.413-3.522z" fill="#7c3108"/></g></g></g></g></svg>