<svg id="Layer_1" enable-background="new 0 0 256 256" height="512" viewBox="0 0 256 256" width="512" xmlns="http://www.w3.org/2000/svg"><g><g><g><g><g><g><path d="m128 44.01-75.6 75.6v100.096c0 7.92 6.421 14.341 14.341 14.341h122.519c7.92 0 14.341-6.421 14.341-14.341v-100.095z" fill="#f1f2f2"/></g></g><g><g><path d="m128 44.01 65.6 65.601v100.095c0 7.92-6.421 14.341-14.341 14.341h-122.519c-1.322 0-2.597-.193-3.812-.528 1.672 6.066 7.214 10.528 13.812 10.528h122.52c7.92 0 14.341-6.42 14.341-14.341v-100.095z" fill="#e6e7e8"/></g></g><g><g><path d="m128 44.01 70.6 70.601v100.095c0 7.92-6.421 14.341-14.341 14.341h-122.519c-2.677 0-5.173-.747-7.317-2.023 2.501 4.2 7.074 7.023 12.317 7.023h122.52c7.92 0 14.341-6.42 14.341-14.341v-100.095z" fill="#d1d3d4"/></g></g><g><g><path d="m59.03 214.899c-1.101 0-2-.899-2-2v-78.479c0-1.101.899-2 2-2 1.1 0 2 .899 2 2v78.479c0 1.101-.9 2-2 2zm0-86.479c-1.101 0-2-.9-2-2 0-1.101.899-2 2-2 1.1 0 2 .899 2 2 0 1.1-.9 2-2 2z" fill="#fff"/></g></g><g><g><g><path d="m223.418 135.644c-2.339 0-4.676-.892-6.461-2.676l-88.957-88.958-88.958 88.959c-3.568 3.568-9.353 3.568-12.92 0-3.568-3.568-3.568-9.353 0-12.92l95.418-95.419c1.713-1.714 4.037-2.676 6.46-2.676s4.747.962 6.461 2.676l95.418 95.419c3.568 3.568 3.568 9.353 0 12.92-1.785 1.783-4.123 2.675-6.461 2.675z" fill="#939598"/></g></g></g><g><g><path d="m229.879 121.918c-1.785 1.784-4.123 2.676-6.461 2.676-2.339 0-4.676-.892-6.461-2.676l-88.957-88.958-88.958 88.959c-3.568 3.568-9.353 3.568-12.92 0-.297-.297-.569-.61-.817-.935-2.726 3.581-2.454 8.715.817 11.985 3.568 3.568 9.353 3.568 12.92 0l88.958-88.96 88.957 88.959c1.785 1.785 4.122 2.676 6.461 2.676 2.338 0 4.676-.892 6.461-2.676 3.27-3.27 3.542-8.404.817-11.985-.248.326-.52.638-.817.935z" fill="#808285"/></g></g></g></g></g><g><g><g><g><path d="m128 228.3c-1.381 0-2.5-1.119-2.5-2.5v-89.398c0-1.381 1.119-2.5 2.5-2.5s2.5 1.119 2.5 2.5v89.398c0 1.381-1.119 2.5-2.5 2.5z" fill="#5a7a39"/></g></g><g><g><path d="m128 200.656c-.64 0-1.279-.244-1.768-.732l-14.813-14.813c-.977-.977-.977-2.559 0-3.535s2.559-.977 3.535 0l13.046 13.045 13.045-13.045c.977-.977 2.559-.977 3.535 0s.977 2.559 0 3.535l-14.813 14.813c-.488.488-1.127.732-1.767.732z" fill="#5a7a39"/></g></g><g><g><path d="m128 172.552c-.64 0-1.279-.244-1.768-.732l-33.651-33.65c-.977-.977-.977-2.559 0-3.535s2.559-.977 3.535 0l31.884 31.882 31.884-31.883c.977-.977 2.559-.977 3.535 0s.977 2.559 0 3.535l-33.651 33.65c-.489.489-1.128.733-1.768.733z" fill="#5a7a39"/></g></g></g><g><g><g><g><path d="m89.256 156.99c-1.346.049-2.418 1.121-2.467 2.467-.178 4.839.224 16.161 7.086 23.023s18.184 7.264 23.023 7.086c1.346-.049 2.418-1.121 2.467-2.467.178-4.839-.224-16.161-7.086-23.023s-18.184-7.264-23.023-7.086z" fill="#76a34f"/></g></g><g><g><path d="m112.279 164.076c-1.308-1.308-2.779-2.382-4.336-3.261 3.733 6.608 3.969 14.77 3.825 18.687-.049 1.346-1.121 2.418-2.467 2.467-3.916.144-12.079-.092-18.687-3.825.879 1.557 1.953 3.027 3.261 4.336 6.862 6.862 18.184 7.264 23.023 7.086 1.346-.049 2.418-1.121 2.467-2.467.178-4.839-.224-16.161-7.086-23.023z" fill="#648940"/></g></g><g><g><path d="m166.744 156.99c1.346.049 2.418 1.121 2.467 2.467.178 4.839-.224 16.161-7.086 23.023s-18.184 7.264-23.023 7.086c-1.346-.049-2.418-1.121-2.467-2.467-.178-4.839.224-16.161 7.086-23.023s18.184-7.264 23.023-7.086z" fill="#76a34f"/></g></g><g><g><path d="m169.211 159.457c-.049-1.346-1.121-2.418-2.467-2.467-1.331-.049-3.153-.054-5.237.107-.425 5.493-2.004 12.811-6.979 17.785-4.975 4.975-12.292 6.554-17.786 6.979-.161 2.084-.156 3.906-.107 5.238.049 1.346 1.121 2.418 2.467 2.467 4.839.178 16.161-.224 23.023-7.086s7.264-18.184 7.086-23.023z" fill="#648940"/></g></g></g><g><g><path d="m126.294 146.774c.975.873 2.438.873 3.412 0 4.626-4.142 17.062-16.653 17.062-31.444s-12.436-27.302-17.062-31.444c-.975-.873-2.438-.873-3.412 0-4.626 4.142-17.062 16.653-17.062 31.444s12.436 27.302 17.062 31.444z" fill="#76a34f"/></g></g><g><g><path d="m129.706 83.886c-.975-.872-2.438-.872-3.412 0-.719.644-1.626 1.489-2.645 2.514 4.159 5.744 7.925 13.193 7.925 21.333 0 12.493-8.873 23.36-14.417 28.931 3.398 4.693 7.057 8.248 9.137 10.11.974.873 2.438.873 3.412 0 4.626-4.142 17.062-16.653 17.062-31.444s-12.436-27.302-17.062-31.444z" fill="#648940"/></g></g><g><g><g><path d="m181.921 113.663c1.346.049 2.418 1.121 2.467 2.467.178 4.839-.224 16.161-7.086 23.023s-18.184 7.264-23.023 7.086c-1.346-.049-2.418-1.121-2.467-2.467-.178-4.839.224-16.161 7.086-23.023 6.863-6.862 18.184-7.264 23.023-7.086z" fill="#76a34f"/></g></g><g><g><path d="m184.388 116.13c-.049-1.346-1.121-2.418-2.467-2.467-1.331-.049-3.153-.054-5.237.107-.425 5.493-2.004 12.811-6.979 17.785-4.975 4.975-12.292 6.554-17.786 6.979-.161 2.084-.156 3.906-.107 5.238.049 1.346 1.121 2.418 2.467 2.467 4.839.178 16.161-.224 23.023-7.086 6.863-6.862 7.264-18.184 7.086-23.023z" fill="#648940"/></g></g><g><g><path d="m74.079 113.663c-1.346.049-2.418 1.121-2.467 2.467-.178 4.839.224 16.161 7.086 23.023s18.184 7.264 23.023 7.086c1.346-.049 2.418-1.121 2.467-2.467.178-4.839-.224-16.161-7.086-23.023-6.863-6.862-18.184-7.264-23.023-7.086z" fill="#76a34f"/></g></g><g><g><path d="m97.101 120.749c-1.308-1.308-2.779-2.382-4.336-3.261 3.733 6.608 3.969 14.77 3.825 18.687-.049 1.346-1.121 2.418-2.467 2.467-3.916.144-12.079-.092-18.687-3.825.879 1.557 1.953 3.027 3.261 4.336 6.862 6.862 18.184 7.264 23.023 7.086 1.346-.049 2.418-1.121 2.467-2.467.178-4.839-.223-16.161-7.086-23.023z" fill="#648940"/></g></g></g></g></g></g></svg>