<svg id="Layer_1" enable-background="new 0 0 256 256" height="512" viewBox="0 0 256 256" width="512" xmlns="http://www.w3.org/2000/svg"><g><g><g><path d="m94.334 109.669c-.294 0-.593-.052-.885-.163-1.291-.489-1.941-1.932-1.452-3.224l8.495-22.427c.489-1.291 1.93-1.939 3.224-1.452 1.291.489 1.941 1.932 1.452 3.224l-8.495 22.427c-.379 1-1.329 1.615-2.339 1.615z" fill="#58595b"/></g></g><g><g><path d="m108.733 101.633c-.247 0-.499-.037-.748-.115l-10.15-3.178c-1.317-.413-2.051-1.815-1.639-3.133.413-1.317 1.813-2.052 3.133-1.639l10.15 3.178c1.317.413 2.051 1.815 1.639 3.133-.334 1.07-1.321 1.754-2.385 1.754z" fill="#58595b"/></g></g><g><g><path d="m170.262 168.457h-63.247v-75.502h53.247c5.523 0 10 4.477 10 10z" fill="#478cf7"/></g></g><g><g><path d="m153.35 100.95h-31.42c-1.11 0-2-.89-2-1.99 0-1.11.89-2 2-2h31.42c1.101 0 2 .89 2 2 0 1.1-.9 1.99-2 1.99zm-39.42 0c-1.11 0-2-.89-2-1.99 0-1.11.89-2 2-2 1.1 0 2 .89 2 2 0 1.1-.9 1.99-2 1.99z" fill="#5e9cf7"/></g></g><g><g><path d="m160.262 92.955v65.502h-53.247v10h63.247v-65.502c0-5.523-4.477-10-10-10z" fill="#377de2"/></g></g><g><g><path d="m164.378 93.839c.568 1.255.884 2.649.884 4.116v65.502h-58.247v5h63.247v-65.502c0-4.055-2.414-7.547-5.884-9.116z" fill="#2266d3"/></g></g><g><g><path d="m107.015 48.241h11.663v44.714h-11.663z" fill="#478cf7"/></g></g><g><g><path d="m113.678 48.241v39.714h-6.663v5h11.663v-44.714z" fill="#377de2"/></g></g><g><g><path d="m79.017 114.623h-26.415v-10h22.407c2.214 0 4.008 1.794 4.008 4.008z" fill="#ffa91a"/></g></g><g><g><path d="m35.105 114.623h71.91v53.833h-71.91z" fill="#377de2"/></g></g><g><g><path d="m97.015 114.623v43.834h-61.91v10h71.91v-53.834z" fill="#2266d3"/></g></g><g><g><path d="m127.391 38.062h-94.971c-2.811 0-5.089 2.279-5.089 5.089 0 2.811 2.279 5.089 5.089 5.089h90.191c3.057 0 5.948-1.389 7.857-3.776 2.065-2.579.228-6.402-3.077-6.402z" fill="#377de2"/></g></g><g><g><path d="m127.391 38.062h-1.196c-.137.487-.375.963-.727 1.402-1.91 2.387-4.801 3.776-7.857 3.776h-90.191c-.03 0-.059-.001-.088-.001.047 2.77 2.307 5.001 5.088 5.001h90.191c3.057 0 5.948-1.39 7.857-3.776 2.065-2.579.227-6.402-3.077-6.402z" fill="#2266d3"/></g></g><g><g><path d="m45.019 114.623v-42.24h12.385c4.418 0 8 3.582 8 8v34.24z" fill="#ffa91a"/></g></g><g><g><path d="m57.404 72.384h-2v32.24h-10.385v10h20.385v-34.24c0-4.419-3.582-8-8-8z" fill="#f79219"/></g></g><g><g><g><circle cx="144.48" cy="184.806" fill="#58595b" r="33.131"/></g></g><g><g><path d="m165.274 159.012c4.589 5.685 7.337 12.919 7.337 20.794 0 18.298-14.833 33.131-33.131 33.131-7.875 0-15.109-2.748-20.794-7.337 6.073 7.524 15.372 12.337 25.794 12.337 18.298 0 33.131-14.833 33.131-33.131 0-10.422-4.812-19.72-12.337-25.794z" fill="#414042"/></g></g><g><g><circle cx="144.48" cy="184.806" fill="#f1f2f2" r="20.259"/></g></g><g><g><path d="m156.086 168.2c2.302 3.287 3.652 7.289 3.652 11.606 0 11.189-9.07 20.259-20.259 20.259-4.317 0-8.319-1.351-11.606-3.652 3.663 5.231 9.735 8.652 16.606 8.652 11.189 0 20.259-9.07 20.259-20.259.001-6.871-3.42-12.943-8.652-16.606z" fill="#d1d3d4"/></g></g><g><g><circle cx="144.48" cy="184.806" fill="#808285" r="10.997"/></g></g><g><g><path d="m149.345 174.942c.725 1.467 1.133 3.118 1.133 4.865 0 6.074-4.924 10.997-10.997 10.997-1.747 0-3.398-.408-4.865-1.133 1.795 3.633 5.538 6.133 9.865 6.133 6.074 0 10.997-4.924 10.997-10.997-.001-4.328-2.5-8.07-6.133-9.865z" fill="#58595b"/></g></g></g><g><g><path d="m35.105 48.241h9.914v66.382h-9.914z" fill="#478cf7"/></g></g><g><g><path d="m40.019 48.241v61.382h-4.914v5h9.914v-66.382z" fill="#377de2"/></g></g><g><g><g><circle cx="48.41" cy="174.769" fill="#58595b" r="43.168"/></g></g><g><g><path d="m74.327 140.244c5.427 7.218 8.643 16.192 8.643 25.917 0 23.841-19.327 43.168-43.168 43.168-9.725 0-18.699-3.216-25.917-8.643 7.876 10.476 20.409 17.251 34.525 17.251 23.841 0 43.168-19.327 43.168-43.168 0-14.116-6.776-26.648-17.251-34.525z" fill="#414042"/></g></g><g><g><circle cx="48.41" cy="174.769" fill="#f1f2f2" r="22.403"/></g></g><g><g><path d="m61.952 156.922c2.859 3.761 4.556 8.454 4.556 13.543 0 12.373-10.03 22.403-22.403 22.403-5.089 0-9.781-1.697-13.543-4.556 4.092 5.384 10.563 8.86 17.847 8.86 12.373 0 22.403-10.03 22.403-22.403 0-7.284-3.476-13.755-8.86-17.847z" fill="#d1d3d4"/></g></g><g><g><circle cx="48.41" cy="174.769" fill="#808285" r="11.482"/></g></g><g><g><path d="m54.088 164.787c.955 1.675 1.5 3.613 1.5 5.678 0 6.342-5.141 11.482-11.482 11.482-2.066 0-4.004-.546-5.678-1.5 1.976 3.467 5.706 5.804 9.982 5.804 6.342 0 11.482-5.141 11.482-11.482 0-4.276-2.337-8.006-5.804-9.982z" fill="#58595b"/></g></g></g><g><g><path d="m89.508 125.681h-9.703c-1.143 0-2.07-.927-2.07-2.07v-1.898c0-1.143.927-2.07 2.07-2.07h9.703c1.143 0 2.07.927 2.07 2.07v1.898c0 1.143-.927 2.07-2.07 2.07z" fill="#478cf7"/></g></g><g><g><path d="m209.798 169.775v-33.187c0-7.691-6.235-13.927-13.927-13.927-7.691 0-13.927 6.235-13.927 13.927v73.349c0 4.418 3.582 8 8 8h58.813c1.105 0 2-.895 2-2v-21.584c0-3.498-2.272-6.59-5.61-7.635l-29.74-9.309c-3.336-1.044-5.609-4.136-5.609-7.634z" fill="#f79219"/></g></g><g><g><g><path d="m245.149 186.719-14.709-4.604c.208.715.319 1.467.319 2.239v21.584c0 1.105-.895 2-2 2h-46.813v2c0 4.418 3.582 8 8 8h58.813c1.105 0 2-.895 2-2v-21.584c0-3.498-2.272-6.59-5.61-7.635z" fill="#ef7816"/></g></g><g><g><path d="m189.798 126.588v33.187c0 3.498 2.272 6.59 5.61 7.635l14.709 4.604c-.208-.715-.319-1.467-.319-2.239v-33.187c0-7.691-6.235-13.927-13.927-13.927-2.261 0-4.397.539-6.285 1.496.14.79.212 1.602.212 2.431z" fill="#ef7816"/></g></g></g><g><g><path d="m193.441 149.867-48.599-16.713c-5.718-1.966-8.759-8.196-6.793-13.914 1.966-5.718 8.196-8.759 13.914-6.793l48.599 16.713c5.718 1.966 8.759 8.196 6.793 13.914-1.967 5.718-8.196 8.759-13.914 6.793z" fill="#ffa91a"/></g></g><g><g><circle cx="195.57" cy="138.775" fill="#ef7816" r="5.47"/></g></g><g><g><circle cx="149.12" cy="123.048" fill="#ef7816" r="5.47"/></g></g></g></svg>