<svg id="Layer_1" enable-background="new 0 0 256 256" height="512" viewBox="0 0 256 256" width="512" xmlns="http://www.w3.org/2000/svg"><g><g><g><path d="m128 14.761c-48.049 0-87 38.951-87 87 0 60.207 59.543 119.057 80.111 137.589 3.918 3.53 9.861 3.53 13.779 0 20.567-18.533 80.11-77.383 80.11-137.589 0-48.049-38.951-87-87-87z" fill="#ffa91a"/></g></g><g><g><path d="m47 103.76c-1.1 0-2-.9-2-2v-.01c.01-1.1.9-1.99 2-1.99s2 .9 2 2-.9 2-2 2zm.39-7.98c-.06 0-.13 0-.19-.01-1.1-.11-1.91-1.09-1.8-2.19 2-20.38 11.49-39.25 26.72-53.14 15.32-13.98 35.17-21.68 55.88-21.68 1.1 0 2 .9 2 2s-.9 2-2 2c-40.83 0-74.62 30.61-78.62 71.2v.01c-.1 1.03-.96 1.81-1.99 1.81z" fill="#ffc91d"/></g></g><g><g><path d="m184.312 35.449c12.9 15.176 20.688 34.833 20.688 56.312 0 60.207-59.543 119.057-80.111 137.589-3.918 3.53-9.861 3.53-13.779 0-2.184-1.968-4.81-4.394-7.754-7.223 7.071 7.354 13.319 13.227 17.754 17.223 3.918 3.53 9.861 3.53 13.779 0 20.568-18.533 80.111-77.383 80.111-137.589 0-26.57-11.915-50.354-30.688-66.312z" fill="#f79219"/></g></g><g><g><path d="m186.964 37.797c14.298 15.502 23.036 36.211 23.036 58.964 0 60.207-59.543 119.057-80.111 137.589-3.918 3.53-9.861 3.53-13.779 0-2.794-2.517-6.31-5.784-10.295-9.691 6.056 6.176 11.382 11.165 15.295 14.691 3.918 3.53 9.861 3.53 13.779 0 20.568-18.533 80.111-77.383 80.111-137.589 0-25.297-10.8-48.068-28.036-63.964z" fill="#ef7816"/></g></g><g><g><g><g><circle cx="128" cy="101.755" fill="#ef7816" r="64.115"/></g></g></g><g><g><g><circle cx="128" cy="124.622" fill="#ffc91d" r="41.259"/></g></g><g><g><path d="m138.222 84.639c9.415 7.562 15.441 19.17 15.441 32.185 0 22.787-18.472 41.259-41.259 41.259-3.528 0-6.953-.443-10.222-1.276 7.068 5.677 16.046 9.074 25.818 9.074 22.787 0 41.259-18.472 41.259-41.259 0-19.258-13.195-35.435-31.037-39.983z" fill="#ffa91a"/></g></g><g><g><g><path d="m127.999 56.576c-2.836 0-5.144 2.307-5.144 5.144v11.936c.24 6.804 10.045 6.809 10.287 0v-11.936c0-2.837-2.307-5.144-5.143-5.144z" fill="#ffc91d"/></g></g><g><g><path d="m176.535 76.68c-2.005-2.005-5.268-2.007-7.274 0l-8.441 8.44c-1.996 1.914-1.996 5.36 0 7.274 2.006 2.005 5.268 2.005 7.273 0l8.44-8.441c2.007-2.005 2.007-5.267.002-7.273z" fill="#ffc91d"/></g></g><g><g><path d="m95.177 85.12-8.441-8.44c-4.955-4.653-11.928 2.314-7.273 7.274 0 0 8.44 8.44 8.44 8.44 4.956 4.654 11.93-2.315 7.274-7.274z" fill="#ffc91d"/></g></g></g></g><g><g><g><path d="m127.999 165.87c-.149-35.282-28.796-63.838-64.113-63.839.149 35.283 28.796 63.839 64.113 63.839z" fill="#76a34f"/></g></g><g><g><path d="m105.154 117.078c9.335 11.087 14.981 25.382 15.047 40.995-15.719 0-30.117-5.657-41.268-15.046 11.761 13.968 29.377 22.844 49.066 22.844-.083-19.579-8.941-37.087-22.845-48.793z" fill="#648940"/></g></g><g><g><path d="m128.001 165.87c35.317 0 63.964-28.556 64.113-63.839-35.317.001-63.964 28.557-64.113 63.839z" fill="#76a34f"/></g></g><g><g><path d="m183.743 102.574c-3.841 28.598-26.536 51.223-55.168 54.957-.367 2.729-.562 5.513-.574 8.34 35.317 0 63.964-28.556 64.113-63.839-2.837 0-5.631.185-8.371.542z" fill="#648940"/></g></g></g></g></g></svg>