<svg id="Layer_1" enable-background="new 0 0 256 256" height="512" viewBox="0 0 256 256" width="512" xmlns="http://www.w3.org/2000/svg"><g><g><g><path d="m128 14.761c-48.049 0-87 38.951-87 87 0 60.207 59.543 119.057 80.111 137.589 3.918 3.53 9.861 3.53 13.779 0 20.567-18.533 80.11-77.383 80.11-137.589 0-48.049-38.951-87-87-87z" fill="#ffa91a"/></g></g><g><g><path d="m47 103.76c-1.101 0-2-.9-2-2s.899-2 2-2c1.1 0 2 .9 2 2s-.9 2-2 2zm.39-7.98c-.07 0-.13-.01-.2-.01-.529-.06-1.01-.31-1.35-.72-.34-.42-.49-.94-.44-1.47 2-20.38 11.49-39.25 26.721-53.14 15.318-13.98 35.169-21.68 55.879-21.68 1.1 0 2 .9 2 2s-.9 2-2 2c-40.84 0-74.63 30.61-78.62 71.21-.1 1.03-.96 1.81-1.99 1.81z" fill="#ffc91d"/></g></g><g><g><path d="m184.312 35.449c12.9 15.176 20.688 34.833 20.688 56.312 0 60.207-59.543 119.057-80.111 137.589-3.918 3.53-9.861 3.53-13.779 0-2.184-1.968-4.81-4.394-7.754-7.223 7.071 7.354 13.319 13.227 17.754 17.223 3.918 3.53 9.861 3.53 13.779 0 20.568-18.533 80.111-77.383 80.111-137.589 0-26.57-11.915-50.354-30.688-66.312z" fill="#f79219"/></g></g><g><g><path d="m186.964 37.797c14.298 15.502 23.036 36.211 23.036 58.964 0 60.207-59.543 119.057-80.111 137.589-3.918 3.53-9.861 3.53-13.779 0-2.794-2.517-6.31-5.784-10.295-9.691 6.056 6.176 11.382 11.165 15.295 14.691 3.918 3.53 9.861 3.53 13.779 0 20.568-18.533 80.111-77.383 80.111-137.589 0-25.297-10.8-48.068-28.036-63.964z" fill="#ef7816"/></g></g><g><g><g><g><circle cx="128" cy="101.755" fill="#ef7816" r="64.115"/></g></g></g><g><g><g><path d="m127.999 165.87c-.149-35.282-28.796-63.838-64.113-63.839.149 35.283 28.796 63.839 64.113 63.839z" fill="#76a34f"/></g></g><g><g><path d="m105.154 117.078c9.335 11.087 14.981 25.382 15.047 40.995-15.719 0-30.117-5.657-41.268-15.046 11.761 13.968 29.377 22.844 49.066 22.844-.083-19.579-8.941-37.087-22.845-48.793z" fill="#648940"/></g></g><g><g><path d="m128.001 165.87c35.317 0 63.964-28.556 64.113-63.839-35.317.001-63.964 28.557-64.113 63.839z" fill="#76a34f"/></g></g><g><g><path d="m183.743 102.574c-3.841 28.598-26.536 51.223-55.168 54.957-.367 2.729-.562 5.513-.574 8.34 35.317 0 63.964-28.556 64.113-63.839-2.837 0-5.631.185-8.371.542z" fill="#648940"/></g></g></g></g><g><g><g><g><path d="m128 162.37c-1.381 0-2.5-1.119-2.5-2.5v-78.508c0-1.381 1.119-2.5 2.5-2.5s2.5 1.119 2.5 2.5v78.507c0 1.381-1.119 2.501-2.5 2.501z" fill="#5a7a39"/></g></g><g><g><path d="m128 123.33c-.64 0-1.279-.244-1.768-.732l-39.467-39.468c-.977-.976-.977-2.559 0-3.535.977-.977 2.559-.977 3.535 0l37.7 37.699 37.7-37.699c.977-.977 2.559-.977 3.535 0 .977.976.977 2.559 0 3.535l-39.468 39.467c-.488.488-1.127.733-1.767.733z" fill="#5a7a39"/></g></g></g><g><g><g><path d="m125.999 93.528c1.143 1.023 2.859 1.023 4.002 0 5.425-4.858 20.012-19.532 20.012-36.879s-14.586-32.021-20.012-36.879c-1.143-1.023-2.859-1.023-4.002 0-5.425 4.858-20.012 19.532-20.012 36.879s14.587 32.021 20.012 36.879z" fill="#76a34f"/></g></g><g><g><path d="m130.001 19.77c-.351-.314-.757-.52-1.183-.641 5.565 7.001 11.194 16.743 11.194 27.52 0 17.347-14.586 32.021-20.012 36.879-.792.71-1.858.915-2.819.641 3.393 4.269 6.762 7.519 8.817 9.359 1.143 1.023 2.859 1.023 4.002 0 5.425-4.858 20.012-19.532 20.012-36.879s-14.586-32.021-20.011-36.879z" fill="#648940"/></g></g><g><g><g><path d="m191.242 54.694c1.579.058 2.836 1.314 2.894 2.894.208 5.676-.262 18.954-8.311 27.002-8.048 8.048-21.327 8.519-27.002 8.311-1.579-.058-2.836-1.314-2.894-2.894-.208-5.676.262-18.954 8.311-27.002 8.048-8.049 21.326-8.519 27.002-8.311z" fill="#76a34f"/></g></g><g><g><path d="m194.135 57.588c-.058-1.579-1.314-2.836-2.893-2.894-.605-.022-1.312-.033-2.075-.032-.013 6.389-1.152 17.737-8.343 24.928-7.19 7.19-18.539 8.329-24.928 8.343-.002.762.01 1.469.032 2.075.058 1.579 1.315 2.835 2.894 2.893 5.676.208 18.954-.262 27.002-8.311 8.049-8.048 8.519-21.327 8.311-27.002z" fill="#648940"/></g></g><g><g><path d="m64.758 54.694c-1.579.058-2.836 1.314-2.894 2.894-.208 5.676.262 18.954 8.311 27.002s21.327 8.519 27.002 8.311c1.579-.058 2.836-1.314 2.894-2.894.208-5.676-.262-18.954-8.311-27.002s-21.326-8.519-27.002-8.311z" fill="#76a34f"/></g></g><g><g><path d="m91.761 63.005c-.849-.849-1.766-1.596-2.716-2.284 5.839 8.059 6.213 19.209 6.027 24.287-.058 1.579-1.314 2.835-2.893 2.893-5.077.186-16.228-.188-24.287-6.027.688.95 1.435 1.867 2.284 2.716 8.048 8.048 21.327 8.519 27.002 8.311 1.579-.058 2.836-1.314 2.893-2.893.209-5.676-.262-18.955-8.31-27.003z" fill="#648940"/></g></g></g></g></g><g><g><g><path d="m134.326 199.469h-12.652v26.653c0 .705.571 1.276 1.276 1.276h10.099c.705 0 1.276-.571 1.276-1.276z" fill="#e63950"/></g></g><g><g><path d="m129.326 199.469v21.653c0 .705-.571 1.276-1.276 1.276h-6.376v3.724c0 .705.571 1.276 1.276 1.276h10.099c.705 0 1.276-.571 1.276-1.276v-26.653z" fill="#d10028"/></g></g><g><g><path d="m140.021 199.469h-24.043c-1.993 0-3.235-2.161-2.232-3.883l12.021-20.637c.996-1.71 3.467-1.71 4.464 0l12.021 20.637c1.004 1.722-.238 3.883-2.231 3.883z" fill="#e63950"/></g></g><g><g><path d="m142.253 195.586-12.022-20.637c-.415-.713-1.089-1.111-1.804-1.229l9.825 16.867c1.003 1.722-.239 3.883-2.232 3.883h-21.624l-.651 1.117c-1.003 1.722.239 3.883 2.232 3.883h24.043c1.994-.001 3.236-2.162 2.233-3.884z" fill="#d10028"/></g></g></g><g><g><g><g><path d="m158.096 188.89h-7.465v9.826c0 .416.337.753.753.753h5.959c.416 0 .753-.337.753-.753z" fill="#f1f2f2"/></g></g><g><g><path d="m161.457 188.89h-14.186c-1.176 0-1.909-1.275-1.317-2.291l7.093-12.177c.588-1.009 2.046-1.009 2.634 0l7.093 12.177c.592 1.016-.141 2.291-1.317 2.291z" fill="#f1f2f2"/></g></g></g><g><g><g><path d="m105.369 188.89h-7.465v9.826c0 .416.337.753.753.753h5.959c.416 0 .753-.337.753-.753z" fill="#f1f2f2"/></g></g><g><g><path d="m108.729 188.89h-14.186c-1.176 0-1.909-1.275-1.317-2.291l7.093-12.177c.588-1.009 2.046-1.009 2.634 0l7.093 12.177c.592 1.016-.141 2.291-1.317 2.291z" fill="#f1f2f2"/></g></g></g></g></g></svg>