<svg id="Layer_1" enable-background="new 0 0 256 256" height="512" viewBox="0 0 256 256" width="512" xmlns="http://www.w3.org/2000/svg"><g><g><g><g><path d="m151.216 48.241h11.663v49.105h-11.663z" fill="#478cf7"/></g></g><g><g><path d="m157.879 48.241v44.105h-6.663v5h11.663v-49.105z" fill="#377de2"/></g></g><g><g><path d="m110.769 114.623h-37.228v-10h33.221c2.213 0 4.007 1.794 4.007 4.007z" fill="#ffa91a"/></g></g><g><g><path d="m56.044 114.623h116.64v53.833h-116.64z" fill="#377de2"/></g></g><g><g><path d="m162.684 114.623v43.834h-106.64v10h116.64v-53.834z" fill="#2266d3"/></g></g><g><g><path d="m231.004 104.648-82.819-11.653c-1.923-.271-3.762.879-4.362 2.725l-6.141 18.904v53.833h100.242v-55.758c0-4.026-2.941-7.447-6.92-8.051z" fill="#478cf7"/></g></g><g><g><g><path d="m231.004 104.648-82.819-11.653c-1.923-.271-3.762.879-4.362 2.725l-6.141 18.904v53.833h100.242v-55.758c0-4.026-2.941-7.447-6.92-8.051z" fill="#478cf7"/></g></g></g><g><g><path d="m231.004 104.648-3.08-.433v54.243h-90.242v10h100.242v-55.758c0-4.027-2.941-7.448-6.92-8.052z" fill="#2266d3"/></g></g><g><g><path d="m178.331 38.062h-124.972c-2.811 0-5.089 2.279-5.089 5.089 0 2.811 2.279 5.089 5.089 5.089h120.191c3.057 0 5.948-1.389 7.857-3.776 2.065-2.579.228-6.402-3.076-6.402z" fill="#377de2"/></g></g><g><g><path d="m178.331 38.062h-1.196c-.137.487-.375.963-.727 1.402-1.91 2.387-4.801 3.776-7.857 3.776h-120.192c-.03 0-.059-.001-.088-.001.047 2.77 2.307 5.001 5.088 5.001h120.191c3.057 0 5.948-1.39 7.857-3.776 2.065-2.579.228-6.402-3.076-6.402z" fill="#2266d3"/></g></g><g><g><path d="m158.948 201.486h-33.03c-4.497 0-8.143-3.646-8.143-8.143v-24.886h49.316v24.886c.001 4.498-3.645 8.143-8.143 8.143z" fill="#377de2"/></g></g><g><g><path d="m162.092 168.457v19.886c0 4.497-3.646 8.143-8.143 8.143h-33.03c-.942 0-1.847-.161-2.688-.455 1.111 3.176 4.133 5.455 7.688 5.455h33.03c4.497 0 8.143-3.646 8.143-8.143v-24.886z" fill="#2266d3"/></g></g><g><g><path d="m237.924 147.136h-12.59c-2.209 0-4-1.791-4-4v-19.07c0-2.209 1.791-4 4-4h12.59z" fill="#f1f2f2"/></g></g><g><g><path d="m232.924 120.066v22.07h-11.59v1c0 2.209 1.791 4 4 4h12.59v-27.07z" fill="#e6e7e8"/></g></g><g><g><path d="m65.958 114.623v-42.24h12.385c4.418 0 8 3.582 8 8v34.24z" fill="#939598"/></g></g><g><g><path d="m78.343 72.384h-2v32.24h-10.385v10h20.385v-34.24c0-4.419-3.582-8-8-8z" fill="#808285"/></g></g><g><g><circle cx="210.649" cy="184.806" fill="#58595b" r="33.131"/></g></g><g><g><path d="m231.443 159.012c4.589 5.685 7.337 12.919 7.337 20.794 0 18.298-14.833 33.131-33.131 33.131-7.875 0-15.109-2.748-20.794-7.337 6.073 7.524 15.372 12.337 25.794 12.337 18.298 0 33.131-14.833 33.131-33.131 0-10.422-4.813-19.72-12.337-25.794z" fill="#414042"/></g></g><g><g><circle cx="210.649" cy="184.806" fill="#f1f2f2" r="20.259"/></g></g><g><g><path d="m222.255 168.2c2.302 3.287 3.652 7.289 3.652 11.606 0 11.189-9.07 20.259-20.259 20.259-4.317 0-8.319-1.351-11.606-3.652 3.663 5.231 9.735 8.652 16.606 8.652 11.189 0 20.259-9.07 20.259-20.259 0-6.871-3.421-12.943-8.652-16.606z" fill="#d1d3d4"/></g></g><g><g><circle cx="210.649" cy="184.806" fill="#808285" r="10.997"/></g></g><g><g><path d="m215.513 174.942c.725 1.467 1.133 3.118 1.133 4.865 0 6.074-4.924 10.997-10.997 10.997-1.747 0-3.398-.408-4.865-1.133 1.795 3.633 5.538 6.133 9.865 6.133 6.074 0 10.997-4.924 10.997-10.997 0-4.328-2.499-8.07-6.133-9.865z" fill="#58595b"/></g></g><g><g><g><path d="m149.893 137.874c-1.381 0-2.5-1.119-2.5-2.5v-9.337c0-1.381 1.119-2.5 2.5-2.5s2.5 1.119 2.5 2.5v9.337c0 1.381-1.12 2.5-2.5 2.5z" fill="#377de2"/></g></g><g><g><path d="m158.575 137.874c-1.381 0-2.5-1.119-2.5-2.5v-9.337c0-1.381 1.119-2.5 2.5-2.5s2.5 1.119 2.5 2.5v9.337c0 1.381-1.119 2.5-2.5 2.5z" fill="#377de2"/></g></g><g><g><path d="m167.258 137.874c-1.381 0-2.5-1.119-2.5-2.5v-9.337c0-1.381 1.119-2.5 2.5-2.5s2.5 1.119 2.5 2.5v9.337c0 1.381-1.119 2.5-2.5 2.5z" fill="#377de2"/></g></g></g><g><g><path d="m56.044 48.241h9.914v78.745h-9.914z" fill="#478cf7"/></g></g><g><g><path d="m60.958 48.241v73.745h-4.914v5h9.914v-78.745z" fill="#377de2"/></g></g><g><g><g><path d="m56.044 168.457h63.617c.003-.222.004-.445.004-.668 0-24.078-14.852-44.687-35.895-53.166h-27.726z" fill="#2266d3"/></g></g><g><g><circle cx="62.369" cy="167.789" fill="#58595b" r="50.149"/></g></g><g><g><path d="m92.477 127.681c6.304 8.385 10.041 18.81 10.041 30.108 0 27.696-22.452 50.148-50.148 50.148-11.298 0-21.723-3.737-30.108-10.041 9.15 12.17 23.709 20.041 40.108 20.041 27.696 0 50.148-22.452 50.148-50.148-.001-16.398-7.872-30.958-20.041-40.108z" fill="#414042"/></g></g><g><g><circle cx="62.369" cy="167.789" fill="#f1f2f2" r="26.025"/></g></g><g><g><path d="m78.101 147.056c3.321 4.37 5.292 9.821 5.292 15.733 0 14.373-11.652 26.025-26.025 26.025-5.912 0-11.363-1.971-15.733-5.292 4.753 6.254 12.271 10.292 20.733 10.292 14.373 0 26.025-11.652 26.025-26.025.001-8.461-4.037-15.979-10.292-20.733z" fill="#d1d3d4"/></g></g><g><g><circle cx="62.369" cy="167.789" fill="#808285" r="13.339"/></g></g><g><g><path d="m68.965 156.193c1.109 1.945 1.743 4.197 1.743 6.596 0 7.367-5.972 13.339-13.339 13.339-2.4 0-4.651-.634-6.596-1.743 2.296 4.027 6.629 6.743 11.596 6.743 7.367 0 13.339-5.972 13.339-13.339 0-4.967-2.716-9.301-6.743-11.596z" fill="#58595b"/></g></g></g><g><g><path d="m156.198 178.597h-27.624c-1.442 0-2.611-1.169-2.611-2.611 0-1.442 1.169-2.611 2.611-2.611h27.624c1.442 0 2.611 1.169 2.611 2.611 0 1.442-1.169 2.611-2.611 2.611z" fill="#2266d3"/></g></g><g><g><path d="m156.198 190.029h-27.624c-1.442 0-2.611-1.169-2.611-2.611 0-1.442 1.169-2.611 2.611-2.611h27.624c1.442 0 2.611 1.169 2.611 2.611 0 1.442-1.169 2.611-2.611 2.611z" fill="#2266d3"/></g></g></g><g><g><g><circle cx="126.998" cy="127.998" fill="#ffa91a" r="47.654"/></g></g><g><g><path d="m155.323 89.673c5.862 7.918 9.329 17.717 9.329 28.325 0 26.318-21.335 47.654-47.654 47.654-10.609 0-20.407-3.467-28.325-9.329 8.681 11.727 22.615 19.329 38.325 19.329 26.318 0 47.654-21.335 47.654-47.654 0-15.71-7.603-29.644-19.329-38.325z" fill="#f79219"/></g></g><g><g><path d="m158.102 91.894c7.198 8.347 11.55 19.217 11.55 31.104 0 26.318-21.335 47.654-47.654 47.654-11.887 0-22.757-4.353-31.104-11.55 8.739 10.135 21.672 16.55 36.104 16.55 26.318 0 47.654-21.335 47.654-47.654 0-14.432-6.416-27.365-16.55-36.104z" fill="#ef7816"/></g></g><g><g><path d="m151.158 115.86c.425.114.879-.007 1.19-.319l5.861-5.86c.311-.311.433-.765.319-1.19l-.478-1.783c-.176-.657-.852-1.047-1.509-.871-.209.056-.399.166-.552.319l-4.374 4.374c-.311.311-.765.433-1.19.319l-3.476-.931c-.425-.114-.757-.447-.871-.872l-.931-3.475c-.114-.425.008-.879.319-1.19l4.374-4.374c.481-.481.481-1.261-.001-1.742-.153-.153-.343-.263-.552-.319l-1.782-.478c-.425-.114-.879.008-1.19.319l-5.861 5.861c-.311.311-.432.765-.318 1.19l1.309 4.886-31.721 31.721-4.886-1.31c-.425-.114-.879.008-1.19.319l-5.861 5.862c-.311.311-.433.765-.319 1.19l.478 1.782c.176.657.851 1.048 1.509.872.209-.056.399-.166.552-.319l4.374-4.374c.311-.312.765-.433 1.19-.319l3.476.931c.425.114.757.446.871.871l.931 3.476c.114.425-.008.879-.319 1.19l-4.374 4.374c-.481.481-.481 1.261.001 1.742.153.153.344.263.552.319l1.782.477c.425.114.879-.007 1.19-.318l5.861-5.861c.311-.311.432-.765.318-1.19l-1.309-4.886 31.721-31.721z" fill="#f1f2f2"/></g></g><g><g><g><path d="m158.528 108.491-.478-1.783c-.176-.657-.852-1.047-1.509-.871-.059.016-.116.037-.172.061l.159.593c.114.425-.008.879-.319 1.19l-5.861 5.86c-.311.312-.765.433-1.19.319l-4.886-1.308-31.721 31.721 1.309 4.886c.114.425-.007.879-.318 1.19l-5.861 5.861c-.311.311-.765.432-1.19.318l-.593-.159c-.196.451-.11.995.259 1.363.153.153.344.263.552.318l1.782.477c.425.114.879-.007 1.19-.318l5.861-5.861c.311-.311.432-.765.318-1.19l-1.309-4.886 31.721-31.721 4.886 1.308c.425.114.879-.007 1.19-.319l5.861-5.86c.311-.31.433-.764.319-1.189z" fill="#d1d3d4"/></g></g></g><g><g><path d="m155.77 150.126-5.672 5.672c-.983.983-2.577.983-3.56 0l-22.14-22.14c-.983-.983-.983-2.577 0-3.56l5.672-5.672c.983-.983 2.577-.983 3.56 0l22.14 22.14c.983.983.983 2.577 0 3.56z" fill="#e63950"/></g></g><g><g><path d="m155.77 146.566-10-10c.983.983.983 2.577 0 3.56l-5.672 5.672c-.983.983-2.577.983-3.56 0l10 10c.983.983 2.577.983 3.56 0l5.672-5.672c.983-.983.983-2.577 0-3.56z" fill="#d10028"/></g></g><g><g><path d="m159.061 150.099-8.935 8.935c-.604.604-1.584.604-2.188 0l-1.983-1.983c-.604-.604-.604-1.584 0-2.188l8.935-8.935c.604-.604 1.584-.604 2.188 0l1.983 1.983c.604.604.604 1.583 0 2.188z" fill="#d10028"/></g></g><g><g><path d="m159.061 147.911-1.984-1.983c-.003-.002-.006-.005-.008-.008.596.604.593 1.578-.008 2.179l-8.935 8.935c-.601.601-1.575.604-2.179.008.003.003.005.006.008.009l1.983 1.983c.604.604 1.584.604 2.188 0l8.935-8.935c.604-.604.604-1.584 0-2.188z" fill="#b7022d"/></g></g><g><g><path d="m115.149 102.264h3.461v29.289h-3.461z" fill="#e6e7e8" transform="matrix(.707 -.707 .707 .707 -48.433 116.888)"/></g></g><g><g><path d="m96.634 99.262 2.6-2.6c.193-.193.502-.204.708-.025l5.147 4.46 2.676 4.215-2.481 2.481-4.214-2.677-4.461-5.147c-.179-.206-.168-.515.025-.707z" fill="#f1f2f2"/></g></g><g><g><path d="m101.175 105.183 4.109 2.61 2.481-2.481-2.609-4.11z" fill="#d1d3d4"/></g></g></g><g><g><path d="m18.22 169.79c-1.1 0-2-.9-2-2 0-1.101.9-2 2-2s1.99.89 2 1.979v.021c0 1.1-.901 2-2 2zm.719-7.96c-.12 0-.25-.011-.359-.03-1.09-.2-1.811-1.24-1.61-2.33 1.92-10.479 7.49-20.06 15.69-26.97 4.08-3.44 8.659-6.12 13.63-7.971 5.14-1.909 10.55-2.89 16.08-2.89 1.1 0 2 .9 2 2 0 1.101-.9 2-2 2-20.38 0-37.811 14.53-41.46 34.55-.181.96-1.011 1.641-1.971 1.641z" fill="#808285"/></g></g></g></svg>