<svg id="Layer_1" enable-background="new 0 0 256 256" height="512" viewBox="0 0 256 256" width="512" xmlns="http://www.w3.org/2000/svg"><g><g><g><g><path d="m145.629 41.708h8.331v35.076h-8.331z" fill="#478cf7"/></g></g><g><g><path d="m148.96 41.708v30.076h-3.331v5h8.331v-35.076z" fill="#377de2"/></g></g><g><g><path d="m129.843 87.752c-.295 0-.594-.053-.886-.163-1.291-.489-1.941-1.933-1.452-3.224l6.068-16.02c.49-1.291 1.934-1.938 3.224-1.452 1.291.489 1.941 1.933 1.452 3.224l-6.068 16.02c-.379.999-1.329 1.615-2.338 1.615z" fill="#58595b"/></g></g><g><g><path d="m140.128 82.012c-.248 0-.499-.037-.748-.115l-7.25-2.27c-1.317-.412-2.051-1.814-1.639-3.133.413-1.318 1.816-2.05 3.133-1.639l7.25 2.27c1.317.412 2.051 1.814 1.639 3.133-.335 1.069-1.322 1.754-2.385 1.754z" fill="#58595b"/></g></g><g><g><path d="m116.737 89.125h-26.592v-7.143h23.73c1.581 0 2.862 1.281 2.862 2.862z" fill="#ffa91a"/></g></g><g><g><path d="m77.647 89.125h83.317v38.454h-83.317z" fill="#377de2"/></g></g><g><g><path d="m153.821 89.125v31.311h-76.174v7.143h83.317v-38.454z" fill="#2266d3"/></g></g><g><g><path d="m202.622 81.999-59.158-8.324c-1.373-.193-2.687.628-3.116 1.947l-4.387 13.503v38.454h71.604v-39.829c0-2.875-2.1-5.319-4.943-5.751z" fill="#478cf7"/></g></g><g><g><g><path d="m202.622 81.999-59.158-8.324c-1.373-.193-2.687.628-3.116 1.947l-4.387 13.503v38.454h71.604v-39.829c0-2.875-2.1-5.319-4.943-5.751z" fill="#478cf7"/></g></g></g><g><g><path d="m202.622 82-5.057-.712v36.292h-61.604v10h71.604v-39.83c0-2.875-2.1-5.319-4.943-5.75z" fill="#377de2"/></g></g><g><g><path d="m202.622 82-.107-.015c.033.251.05.507.05.766v39.829h-66.604v5h71.604v-39.83c0-2.875-2.1-5.319-4.943-5.75z" fill="#2266d3"/></g></g><g><g><path d="m164.997 34.437h-89.268c-2.008 0-3.635 1.628-3.635 3.635 0 2.008 1.628 3.635 3.635 3.635h85.854c2.184 0 4.249-.993 5.613-2.698 1.474-1.842.162-4.572-2.199-4.572z" fill="#377de2"/></g></g><g><g><path d="m165.718 34.527c.22.809.086 1.722-.523 2.483-1.364 1.705-3.429 2.697-5.613 2.697h-85.853c-.484 0-.946-.095-1.369-.267.541 1.33 1.845 2.267 3.369 2.267h85.854c2.183 0 4.249-.993 5.613-2.697 1.316-1.645.411-3.998-1.478-4.483z" fill="#2266d3"/></g></g><g><g><path d="m151.152 151.172h-23.593c-3.213 0-5.817-2.604-5.817-5.817v-17.777h35.227v17.777c0 3.213-2.604 5.817-5.817 5.817z" fill="#377de2"/></g></g><g><g><path d="m151.969 127.579v12.776c0 3.213-2.604 5.817-5.817 5.817h-23.594c-.26 0-.516-.017-.767-.05.375 2.85 2.814 5.05 5.767 5.05h23.594c3.213 0 5.817-2.604 5.817-5.817v-17.776z" fill="#2266d3"/></g></g><g><g><path d="m207.565 112.349h-8.993c-1.578 0-2.857-1.279-2.857-2.857v-13.622c0-1.578 1.279-2.857 2.857-2.857h8.993z" fill="#ffa91a"/></g></g><g><g><path d="m202.565 93.013v14.336h-6.85v2.143c0 1.578 1.279 2.857 2.857 2.857h8.993v-19.336z" fill="#f79219"/></g></g><g><g><path d="m84.729 89.125v-30.172h8.847c3.156 0 5.714 2.558 5.714 5.714v24.458z" fill="#ffa91a"/></g></g><g><g><path d="m94.25 58.993c.026.221.04.446.04.675v24.458h-9.561v5h14.561v-24.459c0-2.927-2.202-5.341-5.04-5.674z" fill="#f79219"/></g></g><g><g><circle cx="188.082" cy="139.258" fill="#58595b" r="23.666"/></g></g><g><g><path d="m202.13 120.21c2.902 3.929 4.619 8.788 4.619 14.047 0 13.07-10.595 23.666-23.666 23.666-5.26 0-10.118-1.716-14.047-4.619 4.31 5.834 11.237 9.619 19.047 9.619 13.07 0 23.666-10.596 23.666-23.666-.001-7.81-3.785-14.736-9.619-19.047z" fill="#414042"/></g></g><g><g><circle cx="188.082" cy="139.258" fill="#f1f2f2" r="14.471"/></g></g><g><g><circle cx="188.082" cy="139.258" fill="#808285" r="7.855"/></g></g><g><g><path d="m190.544 131.796c.255.774.394 1.602.394 2.462 0 4.338-3.517 7.855-7.855 7.855-.86 0-1.687-.139-2.462-.394 1.033 3.132 3.983 5.394 7.462 5.394 4.339 0 7.855-3.517 7.855-7.855 0-3.479-2.261-6.429-5.394-7.462z" fill="#58595b"/></g></g><g><g><path d="m77.647 41.708h7.082v56.248h-7.082z" fill="#478cf7"/></g></g><g><g><path d="m79.729 41.708v51.248h-2.082v5h7.082v-56.248z" fill="#377de2"/></g></g><g><g><g><path d="m77.647 127.579h45.443c.002-.159.003-.318.003-.477 0-17.199-10.609-31.92-25.64-37.977h-19.806z" fill="#2266d3"/></g></g><g><g><circle cx="82.165" cy="127.102" fill="#58595b" r="35.822"/></g></g><g><g><path d="m52.34 129.1c-1.1 0-2-.899-2-2 0-1.1.9-2 2-2s1.99.891 2 1.99v.01c0 1.1-.89 2-2 2zm1.059-7.9c-.17 0-.35-.021-.529-.07-1.061-.3-1.69-1.4-1.391-2.46 1.811-6.59 5.801-12.54 11.24-16.75 5.62-4.34 12.34-6.641 19.44-6.641 1.109 0 2 .9 2 2 0 1.101-.891 2-2 2-12.48 0-23.511 8.41-26.83 20.45v.021c-.239.85-1.029 1.45-1.93 1.45z" fill="#808285"/></g></g><g><g><path d="m104.871 99.396c5.071 6.181 8.115 14.088 8.115 22.707 0 19.784-16.038 35.822-35.822 35.822-8.619 0-16.526-3.044-22.706-8.115 6.57 8.007 16.541 13.115 27.706 13.115 19.784 0 35.822-16.038 35.822-35.822 0-11.166-5.108-21.138-13.115-27.707z" fill="#414042"/></g></g><g><g><circle cx="82.165" cy="127.102" fill="#f1f2f2" r="18.59"/></g></g><g><g><circle cx="82.165" cy="127.102" fill="#808285" r="9.528"/></g></g><g><g><path d="m85.923 118.344c.495 1.153.77 2.424.77 3.758 0 5.262-4.266 9.528-9.528 9.528-1.335 0-2.605-.275-3.758-.771 1.458 3.394 4.83 5.771 8.758 5.771 5.262 0 9.528-4.266 9.528-9.528 0-3.928-2.377-7.3-5.77-8.758z" fill="#58595b"/></g></g></g><g><g><path d="m131.764 97.023h-6.931c-.817 0-1.479-.662-1.479-1.479v-1.355c0-.817.662-1.479 1.479-1.479h6.931c.817 0 1.479.662 1.479 1.479v1.355c0 .817-.662 1.479-1.479 1.479z" fill="#478cf7"/></g></g><g><g><path d="m149.187 134.822h-19.732c-1.03 0-1.865-.835-1.865-1.865 0-1.03.835-1.865 1.865-1.865h19.732c1.03 0 1.865.835 1.865 1.865.001 1.03-.834 1.865-1.865 1.865z" fill="#2266d3"/></g></g><g><g><path d="m149.187 142.988h-19.732c-1.03 0-1.865-.835-1.865-1.865 0-1.03.835-1.865 1.865-1.865h19.732c1.03 0 1.865.835 1.865 1.865.001 1.03-.834 1.865-1.865 1.865z" fill="#2266d3"/></g></g></g><g><g><g><g><g><path d="m236.62 163.745c-10.14 8.04-45.06 35.2-68.99 47.34-28.27 14.35-55.52 0-77.66-2.71-13.166-1.977-26.465 6.151-33.62 14.08l-.16.03-3.01.42v-54.86c13.269-19.776 33.337-17.14 54.95-19.229 15.215-1.948 30.021-6.476 43.54-13.761 2.687-1.985 5.578-.436 6.14 2.67 1.985 10.978-4.62 23.003-14.97 25.22 0 0-5.45 1.24-5.45 1.24-1.9.455-1.702 3.133.19 3.46 19 6.56 38.32 2.23 56.85-5.84 12.25-5.33 31.85-18.92 42.9-4.18 1.4 1.87 1.07 4.71-.71 6.12z" fill="#fcc4ae"/></g></g><g><path d="m237.33 157.625c-2.663-3.552-5.823-5.459-9.256-6.232-.216.917-.707 1.761-1.454 2.353-10.14 8.04-45.06 35.2-68.99 47.34-28.27 14.35-55.52 0-77.66-2.71-9.693-1.456-19.458 2.566-26.79 7.953v16.578l3.01-.42.16-.03c7.155-7.929 20.454-16.057 33.62-14.08 22.14 2.71 49.39 17.06 77.66 2.71 23.93-12.14 58.85-39.3 68.99-47.34 1.78-1.412 2.11-4.252.71-6.122z" fill="#f2ad97"/></g><g><g><g><g><g><path d="m67.793 220.858-11.441 1.601-.161.023-3.009.423-3.86.538c-2.489.35-4.784-1.389-5.134-3.878l-8.626-61.687c-.35-2.489 1.385-4.784 3.874-5.134l18.471-2.586c1.178-.161 2.319.138 3.225.778 1.003.69 1.721 1.79 1.909 3.101l.497 3.57 6.404 45.779 1.141 8.17.584 4.173c.35 2.484-1.389 4.779-3.874 5.129z" fill="#f1f2f2"/></g></g></g><g><g><path d="m71.667 215.728-.584-4.173-1.141-8.17-6.404-45.779-.497-3.57c-.189-1.311-.906-2.411-1.909-3.101-.831-.587-1.863-.868-2.936-.79l.342 2.46 6.404 45.779 1.141 8.17.584 4.173c.35 2.484-1.389 4.78-3.874 5.13l-11.441 1.601-.161.023-3.009.423-3.86.538c-.098.014-.192.004-.289.011l.155 1.111c.35 2.489 2.645 4.228 5.134 3.878l3.86-.538 3.009-.423.161-.023 11.441-1.601c2.485-.349 4.224-2.644 3.874-5.129z" fill="#e6e7e8"/></g></g><g><g><path d="m23.974 227.509h20.483c3.41 0 6.174-2.764 6.174-6.174v-72.121c0-3.41-2.764-6.174-6.174-6.174h-20.483c-3.41 0-6.174 2.764-6.174 6.174v72.121c-.001 3.409 2.764 6.174 6.174 6.174z" fill="#478cf7"/></g></g><g><g><path d="m45.532 143.138c.061.35.1.707.1 1.075v72.121c0 3.41-2.764 6.174-6.174 6.174h-20.484c-.367 0-.725-.038-1.075-.1.509 2.897 3.032 5.1 6.075 5.1h20.483c3.41 0 6.174-2.764 6.174-6.174v-72.121c0-3.042-2.203-5.565-5.099-6.075z" fill="#377de2"/></g></g></g><g><g><g><ellipse cx="34.215" cy="203.999" fill="#fff" rx="6.592" ry="6.592" transform="matrix(.23 -.973 .973 .23 -172.188 190.43)"/></g></g></g><g><g><path d="m37.764 198.45c.657 1.025 1.043 2.241 1.043 3.549 0 3.641-2.951 6.592-6.592 6.592-1.308 0-2.524-.386-3.549-1.043 1.172 1.828 3.216 3.043 5.549 3.043 3.641 0 6.592-2.951 6.592-6.592 0-2.332-1.215-4.377-3.043-5.549z" fill="#e6e7e8"/></g></g></g></g></g></g></g></svg>