<svg id="Layer_1" enable-background="new 0 0 256 256" height="512" viewBox="0 0 256 256" width="512" xmlns="http://www.w3.org/2000/svg"><g><g><g><g><g><g><g><path d="m150.08 40.129h-44.161c-2.209 0-4-1.791-4-4v-14.201c0-2.209 1.791-4 4-4h44.161c2.209 0 4 1.791 4 4v14.202c0 2.208-1.791 3.999-4 3.999z" fill="#478cf7"/></g></g></g><g><g><path d="m150.08 17.928h-6v8.201c0 2.209-1.791 4-4 4h-38.161v6c0 2.209 1.791 4 4 4h44.161c2.209 0 4-1.791 4-4v-14.201c0-2.209-1.791-4-4-4z" fill="#377de2"/></g></g><g><g><path d="m182.36 80.584-32.745-34.13v-6.324h-43.231v6.324l-32.744 34.13c-1.915 1.996-2.984 4.655-2.984 7.421v139.231c0 5.985 4.852 10.837 10.837 10.837h93.015c5.985 0 10.837-4.852 10.837-10.837v-139.232c-.001-2.766-1.07-5.425-2.985-7.42z" fill="#e6e7e8"/></g></g><g><g><path d="m76.649 90.01c-1.1 0-1.989-.9-1.989-2.01 0-1.101.89-2 1.989-2 1.11 0 2 .899 2 2 0 1.109-.889 2.01-2 2.01zm4.361-6.441c-.52 0-1.01-.199-1.39-.56-.38-.37-.601-.87-.61-1.4-.01-.54.18-1.04.55-1.43l29.71-30.96c.74-.77 2.061-.8 2.83-.06.79.77.82 2.04.05 2.83l-29.7 30.961c-.381.4-.89.619-1.44.619z" fill="#fff"/></g></g><g><g><path d="m182.36 80.584-32.745-34.13v-6.324h-16.473l29.218 30.454c1.915 1.996 2.984 4.655 2.984 7.421v139.231c0 5.985-4.852 10.837-10.837 10.837h-83.82c.427 5.594 5.101 10 10.805 10h93.015c5.985 0 10.837-4.852 10.837-10.837v-139.232c0-2.766-1.069-5.425-2.984-7.42z" fill="#d1d3d4"/></g></g></g><g><g><path d="m79.929 102.451v122.115c0 1.973 1.6 3.573 3.573 3.573h88.997c1.973 0 3.573-1.6 3.573-3.573v-122.115c0-.987-.8-1.786-1.786-1.786h-92.57c-.987 0-1.787.8-1.787 1.786z" fill="#fff"/></g></g><g><g><path d="m174.285 100.665h-18.213v113.902c0 1.973-1.6 3.573-3.573 3.573h-72.57v6.427c0 1.973 1.6 3.573 3.573 3.573h88.997c1.973 0 3.573-1.6 3.573-3.573v-122.115c-.001-.987-.801-1.787-1.787-1.787z" fill="#f1f2f2"/></g></g></g></g><g><g><g><path d="m159.491 177.594c0 17.392-14.099 31.491-31.491 31.491s-31.491-14.099-31.491-31.491c0-12.119 15.29-40.745 24.562-56.99 3.068-5.375 10.792-5.375 13.859 0 9.271 16.246 24.561 44.872 24.561 56.99z" fill="#478cf7"/></g></g></g><path d="m134.93 120.604c-1.478-2.59-4.039-3.932-6.638-4.025 9.187 16.563 21.199 40.273 21.199 51.015 0 17.392-14.099 31.491-31.491 31.491-6.135 0-11.861-1.755-16.702-4.789 5.568 8.883 15.445 14.789 26.702 14.789 17.392 0 31.491-14.099 31.491-31.491 0-12.118-15.29-40.744-24.561-56.99z" fill="#377de2"/><g><g><path d="m134.93 120.605c-1.002-1.756-2.502-2.938-4.173-3.547 9.325 16.448 23.735 43.771 23.735 55.536 0 17.392-14.099 31.491-31.491 31.491-7.422 0-14.244-2.568-19.627-6.864 5.77 7.23 14.657 11.864 24.627 11.864 17.392 0 31.491-14.099 31.491-31.491-.001-12.118-15.29-40.744-24.562-56.989z" fill="#2266d3"/></g></g></g></svg>