<svg id="Layer_1" enable-background="new 0 0 256 256" height="512" viewBox="0 0 256 256" width="512" xmlns="http://www.w3.org/2000/svg"><g><g><g><g><path d="m45.567 107.021h17.149v-62.016h-32.388c-3.207 0-5.451 3.169-4.388 6.194z" fill="#d1d3d4"/></g></g><g><g><path d="m176.592 64.72c-.428-3.757-.814-7.518-1.157-11.282-.435-4.78-4.453-8.433-9.253-8.433h-113.937l-13.638 114.713c-1.846 12.596 2.185 25.521 11.225 34.881l12.17 12.602c2.341 2.424 5.567 3.794 8.937 3.794h85.106c3.37 0 6.596-1.369 8.937-3.793l12.171-12.602c9.026-9.346 13.059-22.247 11.233-34.825z" fill="#e6e7e8"/></g></g><g><g><path d="m45.18 156.979c-.08 0-.16 0-.25-.01-.53-.07-1-.33-1.33-.75s-.48-.939-.42-1.47l9.39-78.99c.13-1.08 1.14-1.88 2.23-1.75.53.07 1 .33 1.33.75s.48.94.42 1.47l-9.39 78.99c-.12 1.01-.98 1.76-1.98 1.76zm10.33-86.919c-.08 0-.16-.01-.24-.02-.53-.061-1.01-.33-1.34-.75s-.47-.94-.41-1.471c.13-1.09 1.13-1.88 2.22-1.75.53.061 1.01.33 1.34.75.33.421.47.94.41 1.471-.12 1.01-.97 1.77-1.98 1.77z" fill="#fff"/></g></g><g><g><path d="m188.385 159.774-11.793-95.054c-.428-3.757-.814-7.518-1.157-11.282-.435-4.781-4.453-8.433-9.253-8.433h-.602c.305 3.241.642 6.479 1.011 9.715l11.793 95.053c1.826 12.578-2.206 25.479-11.233 34.825l-12.171 12.602c-2.341 2.424-5.567 3.793-8.937 3.793h-85.104c-2.538 0-4.993-.777-7.051-2.195l8.114 8.401c2.341 2.424 5.567 3.793 8.937 3.793h85.106c3.37 0 6.596-1.369 8.937-3.793l12.171-12.602c9.026-9.344 13.058-22.245 11.232-34.823z" fill="#d1d3d4"/></g></g><g><g><path d="m225.393 69.249c-3.373-3.5-8.156-5.285-13.016-5.285h-35.87c.028.252.056.504.085.756l1.61 12.975h34.679c1.567 0 2.498.888 2.914 1.417s1.057 1.641.687 3.164l-14.852 61.062c-.253 1.04-.943 1.919-1.893 2.412l-12.3 6.383.948 7.641c.344 2.371.48 4.754.414 7.122l17.264-8.959c4.473-2.32 7.721-6.46 8.91-11.356l14.852-61.059c1.416-5.817-.2-11.88-4.432-16.273z" fill="#e6e7e8"/></g></g><g><g><g><path d="m225.393 69.249c-.884-.917-1.865-1.717-2.919-2.397 2.646 4.029 3.505 8.931 2.351 13.671l-14.852 61.059c-1.19 4.896-4.438 9.035-8.91 11.356l-12.708 6.594.03.242c.344 2.371.48 4.754.414 7.122l17.264-8.959c4.473-2.32 7.721-6.46 8.91-11.356l14.852-61.059c1.416-5.817-.2-11.88-4.432-16.273z" fill="#d1d3d4"/></g></g></g></g><g><g><path d="m153.713 101.605h-80.591c-4.05 0-7.461 3.024-7.943 7.045-2.641 22.023-5.523 45.721-5.523 45.721-1.327 9.055 1.571 18.347 8.069 25.076l8.749 9.06c1.683 1.743 4.002 2.727 6.425 2.727h61.183c2.423 0 4.741-.984 6.424-2.727l8.75-9.06c6.489-6.719 9.388-15.994 8.075-25.036l-5.681-45.792c-.495-4.005-3.9-7.014-7.937-7.014z" fill="#fff"/></g></g><g><g><path d="m167.333 154.412-5.681-45.792c-.497-4.007-3.902-7.015-7.939-7.015h-1.691l5.311 42.807c1.313 9.042-1.586 18.317-8.075 25.036l-8.75 9.06c-1.683 1.743-4.002 2.727-6.424 2.727h-61.184c-1.716 0-3.379-.494-4.802-1.401l8.377 8.674c1.683 1.743 4.002 2.727 6.425 2.727h61.183c2.423 0 4.741-.984 6.424-2.727l8.75-9.06c6.49-6.719 9.389-15.994 8.076-25.036z" fill="#e6e7e8"/></g></g><g><g><path d="m167.333 154.412-5.681-45.792c-.387-3.116-2.531-5.627-5.364-6.59.172.508.296 1.04.364 1.59l5.681 45.792c1.313 9.042-1.586 18.317-8.075 25.036l-8.75 9.06c-1.683 1.743-4.002 2.727-6.424 2.727h-61.184c-1.925 0-3.785-.622-5.312-1.752l3.887 4.025c1.683 1.743 4.002 2.727 6.425 2.727h61.183c2.423 0 4.741-.984 6.424-2.727l8.75-9.06c6.49-6.719 9.389-15.994 8.076-25.036z" fill="#d1d3d4"/></g></g></g></svg>