<svg id="Layer_1" enable-background="new 0 0 256 256" height="512" viewBox="0 0 256 256" width="512" xmlns="http://www.w3.org/2000/svg"><g><g><g><g><path d="m110.705 107.383-8.787 54.953c-2.379 15.938 9.967 30.264 26.082 30.264 16.114 0 28.461-14.326 26.082-30.264l-8.787-54.953z" fill="#8c3f0a"/></g></g><g><g><path d="m154.082 162.336-8.787-54.953h-8.401l7.188 44.953c2.379 15.938-9.967 30.264-26.082 30.264-4.74 0-9.153-1.24-12.962-3.395 4.497 7.932 13.011 13.395 22.962 13.395 16.115 0 28.461-14.326 26.082-30.264z" fill="#7c3108"/></g></g><g><g><path d="m37.534 110.348c0 49.963 40.503 0 90.466 0s90.466 49.963 90.466 0-40.503-90.466-90.466-90.466-90.466 40.503-90.466 90.466z" fill="#76a34f"/></g></g><g><g><path d="m186.775 41.573c13.524 15.81 21.692 36.339 21.692 58.775 0 49.963-40.503 0-90.466 0-34.148 0-63.878 23.339-79.277 22.163 7.025 28.286 44.321-12.163 89.277-12.163 49.963 0 90.466 49.963 90.466 0-.001-27.527-12.295-52.182-31.692-68.775z" fill="#648940"/></g></g><g><g><path d="m189.42 43.928c14.925 16.132 24.046 37.711 24.046 61.42 0 49.963-40.503 0-90.466 0-36.963 0-68.749 27.345-82.787 21.345 9.806 19.63 45.391-16.345 87.787-16.345 49.963 0 90.466 49.963 90.466 0 0-26.253-11.183-49.895-29.046-66.42z" fill="#5a7a39"/></g></g></g><g><g><g><g><path d="m57.73 189.285-4.829 30.201c-1.307 8.759 5.478 16.632 14.334 16.632 8.856 0 15.641-7.873 14.334-16.632l-4.829-30.201z" fill="#8c3f0a"/></g></g><g><g><path d="m81.57 219.486-4.829-30.201h-8.401l3.23 20.201c1.307 8.759-5.478 16.632-14.334 16.632-1.374 0-2.699-.19-3.951-.543 1.706 6.012 7.232 10.543 13.951 10.543 8.856 0 15.641-7.873 14.334-16.632z" fill="#7c3108"/></g></g><g><g><path d="m17.517 190.914c0 27.459 22.26 0 49.719 0s49.719 27.459 49.719 0-22.26-49.719-49.719-49.719-49.719 22.26-49.719 49.719z" fill="#76a34f"/></g></g><g><g><path d="m24.54 183.5c-.14 0-.29-.021-.43-.05-.53-.11-.97-.431-1.26-.881-.29-.449-.38-.979-.27-1.5.24-1.05 1.33-1.76 2.39-1.529 1.07.24 1.76 1.31 1.52 2.39-.2.91-1.02 1.57-1.95 1.57zm2.43-7.61c-.27 0-.53-.06-.78-.16-1.02-.43-1.49-1.609-1.06-2.62 3.46-8.17 9.19-15.119 16.57-20.1 7.56-5.11 16.39-7.81 25.54-7.81 1.1 0 2 .89 2 2 0 1.1-.9 1.989-2 1.989-16.78 0-31.85 10-38.43 25.471v.01c-.31.74-1.04 1.22-1.84 1.22z" fill="#91b56b"/></g></g><g><g><path d="m97.036 151.113c6.228 8.304 9.918 18.622 9.918 29.801 0 27.459-22.26 0-49.719 0-16.211 0-30.609 9.57-39.685 11.761.965 24.483 22.841-1.761 49.685-1.761 27.459 0 49.719 27.459 49.719 0 0-16.28-7.825-30.732-19.918-39.801z" fill="#648940"/></g></g></g><g><g><g><path d="m179.26 189.285-4.829 30.201c-1.307 8.759 5.478 16.632 14.334 16.632 8.856 0 15.641-7.873 14.334-16.632l-4.829-30.201z" fill="#8c3f0a"/></g></g><g><g><path d="m203.099 219.486-4.829-30.201h-8.401l3.23 20.201c1.307 8.759-5.478 16.632-14.334 16.632-1.374 0-2.699-.19-3.951-.543 1.706 6.012 7.232 10.543 13.951 10.543 8.856 0 15.641-7.873 14.334-16.632z" fill="#7c3108"/></g></g><g><g><path d="m139.046 190.914c0 27.459 22.26 0 49.719 0s49.719 27.459 49.719 0-22.26-49.719-49.719-49.719-49.719 22.26-49.719 49.719z" fill="#76a34f"/></g></g><g><g><path d="m218.565 151.113c6.228 8.304 9.918 18.622 9.918 29.801 0 27.459-22.26 0-49.719 0-16.211 0-30.609 9.57-39.685 11.761.965 24.483 22.841-1.761 49.685-1.761 27.459 0 49.719 27.459 49.719 0 0-16.28-7.824-30.732-19.918-39.801z" fill="#648940"/></g></g></g></g><g><g><g><path d="m146.217 22.16c0-.149-.004-.298-.012-.446-5.881-1.202-11.97-1.833-18.206-1.833s-12.325.631-18.206 1.833c-.008.148-.012.297-.012.446 0 6.894 8.156 12.483 18.217 12.483s18.219-5.588 18.219-12.483z" fill="#ffa91a"/></g></g><g><g><path d="m146.206 21.715c-1.894-.387-3.81-.715-5.746-.981-2.242 5.153-9.211 8.91-17.46 8.91-4.637 0-8.87-1.187-12.085-3.142 2.573 4.754 9.252 8.142 17.085 8.142 10.061 0 18.217-5.589 18.217-12.483 0-.15-.004-.298-.011-.446z" fill="#f79219"/></g></g><g><g><ellipse cx="92.672" cy="50.198" fill="#ffa91a" rx="13.283" ry="10.104" transform="matrix(.934 -.358 .358 .934 -11.831 36.523)"/></g></g><g><g><path d="m105.073 45.44c-.85-2.217-2.638-3.869-4.939-4.834 1.854 5.178-2.067 11.425-8.844 14.025-3.935 1.51-7.976 1.46-11.082.158.02.055.04.111.061.166 1.999 5.21 9.171 7.304 16.02 4.676 6.851-2.627 10.783-8.981 8.784-14.191z" fill="#f79219"/></g></g><g><g><ellipse cx="163.328" cy="50.198" fill="#ffa91a" rx="10.104" ry="13.283" transform="matrix(.358 -.934 .934 .358 57.961 184.71)"/></g></g><g><g><path d="m169.835 42.19c1.446 2.492 1.855 5.261.895 7.765-1.999 5.21-9.171 7.304-16.02 4.676-1.032-.396-1.998-.877-2.888-1.426 1.561 2.692 4.331 5.061 7.888 6.426 6.849 2.628 14.022.534 16.02-4.676 1.697-4.424-.883-9.674-5.895-12.765z" fill="#f79219"/></g></g><g><g><g><ellipse cx="190.018" cy="78.973" fill="#ffa91a" rx="10.104" ry="13.283" transform="matrix(.358 -.934 .934 .358 48.225 228.098)"/></g></g><g><g><path d="m196.525 70.965c1.446 2.492 1.855 5.261.895 7.766-1.999 5.21-9.171 7.303-16.02 4.676-1.032-.396-1.998-.877-2.888-1.426 1.561 2.692 4.331 5.061 7.888 6.426 6.849 2.627 14.022.534 16.02-4.676 1.697-4.425-.883-9.675-5.895-12.766z" fill="#f79219"/></g></g><g><g><ellipse cx="65.982" cy="78.973" fill="#ffa91a" rx="13.283" ry="10.104" transform="matrix(.934 -.358 .358 .934 -23.909 28.873)"/></g></g><g><g><path d="m78.383 74.215c-.85-2.217-2.638-3.869-4.939-4.834 1.853 5.178-2.067 11.425-8.844 14.025-3.935 1.51-7.976 1.46-11.082.158.02.055.04.111.061.166 1.999 5.21 9.171 7.303 16.02 4.676 6.851-2.627 10.783-8.981 8.784-14.191z" fill="#f79219"/></g></g></g><g><g><ellipse cx="128" cy="59.864" fill="#ffa91a" rx="12.747" ry="8.585"/></g></g><g><g><path d="m135.402 52.874c.225.639.344 1.305.344 1.99 0 4.741-5.707 8.585-12.747 8.585-2.76 0-5.315-.591-7.402-1.595 1.333 3.782 6.379 6.595 12.402 6.595 7.04 0 12.747-3.844 12.747-8.585.001-2.883-2.109-5.433-5.344-6.99z" fill="#f79219"/></g></g><g><g><g><ellipse cx="105.709" cy="89.399" fill="#ffa91a" rx="13.824" ry="9.311" transform="matrix(.953 -.303 .303 .953 -22.14 36.284)"/></g></g><g><g><path d="m118.882 85.204c-.694-2.178-2.495-3.802-4.921-4.73 1.31 4.843-3.285 10.523-10.427 12.797-4.041 1.287-8.046 1.212-11.077.052.024.09.051.18.079.27 1.56 4.9 8.723 6.995 15.998 4.678 7.275-2.316 11.908-8.167 10.348-13.067z" fill="#f79219"/></g></g><g><g><ellipse cx="150.272" cy="89.399" fill="#ffa91a" rx="9.311" ry="13.824" transform="matrix(.303 -.953 .953 .303 19.497 205.466)"/></g></g><g><g><path d="m157.602 82.598c1.106 1.961 1.461 4.053.842 5.995-1.56 4.9-8.723 6.995-15.998 4.678-1.652-.526-3.168-1.234-4.506-2.072 1.685 2.988 5.114 5.674 9.506 7.072 7.275 2.316 14.438.222 15.998-4.678 1.207-3.788-1.287-8.143-5.842-10.995z" fill="#f79219"/></g></g></g></g></g></svg>