<svg id="Layer_1" enable-background="new 0 0 256 256" height="512" viewBox="0 0 256 256" width="512" xmlns="http://www.w3.org/2000/svg"><g><g><g><g><g><g><path d="m123.629 118.876c-.077 2.591-2.161 4.676-4.752 4.752-8.513.251-27.233-.644-38.674-12.085s-12.337-30.16-12.086-38.673c.076-2.591 2.161-4.676 4.752-4.752 8.513-.251 27.233.644 38.674 12.085s12.337 30.16 12.086 38.673z" fill="#648940"/></g></g></g><g><g><path d="m111.544 80.202c-1.708-1.708-3.581-3.176-5.555-4.445 7.233 11.25 7.853 25.877 7.64 33.119-.076 2.591-2.161 4.676-4.752 4.752-7.243.214-21.869-.407-33.119-7.64 1.269 1.974 2.737 3.847 4.445 5.555 11.441 11.441 30.161 12.336 38.674 12.085 2.591-.076 4.676-2.161 4.752-4.752.251-8.513-.644-27.233-12.085-38.674z" fill="#5a7a39"/></g></g><g><g><g><path d="m187.883 183.13c-.077 2.591-2.161 4.676-4.752 4.752-8.513.251-27.233-.644-38.674-12.085s-12.336-30.161-12.085-38.674c.076-2.591 2.161-4.676 4.752-4.752 8.513-.251 27.233.644 38.674 12.085s12.336 30.161 12.085 38.674z" fill="#648940"/></g></g></g><g><g><path d="m175.798 144.456c-1.708-1.708-3.58-3.176-5.555-4.445 7.233 11.25 7.853 25.877 7.64 33.119-.077 2.591-2.162 4.676-4.752 4.752-7.243.214-21.869-.407-33.12-7.64 1.269 1.974 2.738 3.847 4.446 5.555 11.441 11.441 30.16 12.336 38.674 12.085 2.591-.077 4.676-2.161 4.752-4.752.251-8.513-.644-27.233-12.085-38.674z" fill="#5a7a39"/></g></g></g><g><g><g><g><path d="m137.124 123.629c-2.591-.077-4.676-2.161-4.752-4.752-.251-8.513.644-27.233 12.085-38.674s30.161-12.336 38.674-12.085c2.591.076 4.676 2.161 4.752 4.752.251 8.513-.644 27.233-12.085 38.674s-30.161 12.336-38.674 12.085z" fill="#648940"/></g></g></g><g><g><path d="m187.883 72.87c-.077-2.591-2.162-4.676-4.752-4.752-1.478-.044-3.27-.051-5.272.024-.356 9.529-2.607 23.948-12.061 33.402s-23.874 11.705-33.402 12.061c-.075 2.002-.068 3.793-.024 5.272.076 2.591 2.161 4.676 4.752 4.752 8.513.251 27.233-.644 38.674-12.085s12.336-30.161 12.085-38.674z" fill="#5a7a39"/></g></g><g><g><g><path d="m72.87 187.883c-2.591-.077-4.676-2.161-4.752-4.752-.251-8.513.644-27.233 12.085-38.674s30.161-12.336 38.674-12.085c2.591.076 4.676 2.161 4.752 4.752.251 8.513-.644 27.233-12.085 38.674s-30.161 12.336-38.674 12.085z" fill="#648940"/></g></g></g><g><g><path d="m123.629 137.124c-.076-2.591-2.161-4.676-4.752-4.752-1.478-.044-3.27-.051-5.272.024-.356 9.529-2.607 23.948-12.061 33.402s-23.874 11.705-33.402 12.061c-.075 2.002-.068 3.793-.024 5.272.076 2.591 2.161 4.676 4.752 4.752 8.513.251 27.233-.644 38.674-12.085s12.336-30.161 12.085-38.674z" fill="#5a7a39"/></g></g></g></g><g><g><g><path d="m176.582 125.269c-1.445 1.533-1.445 3.929 0 5.461 4.747 5.036 16.018 15.278 29.166 15.278s24.419-10.242 29.166-15.278c1.445-1.533 1.445-3.929 0-5.461-4.747-5.036-16.018-15.278-29.166-15.278s-24.419 10.242-29.166 15.278z" fill="#76a34f"/></g></g></g><g><g><path d="m234.914 125.269c-1.974-2.094-5.077-5.086-8.972-7.869.178 1.172-.158 2.408-1.028 3.331-4.747 5.036-16.018 15.278-29.166 15.278-7.682 0-14.721-3.497-20.194-7.409.118.774.454 1.521 1.028 2.131 4.747 5.036 16.018 15.278 29.166 15.278s24.419-10.242 29.166-15.278c1.445-1.533 1.445-3.929 0-5.462z" fill="#648940"/></g></g><g><g><path d="m79.418 130.731c1.445-1.533 1.445-3.929 0-5.461-4.747-5.036-16.018-15.278-29.166-15.278s-24.419 10.242-29.166 15.278c-1.445 1.533-1.445 3.929 0 5.461 4.747 5.036 16.018 15.278 29.166 15.278s24.419-10.242 29.166-15.278z" fill="#76a34f"/></g></g><g><g><path d="m79.418 125.269c-1.974-2.094-5.077-5.086-8.972-7.869.178 1.172-.158 2.408-1.028 3.331-4.747 5.036-16.018 15.278-29.166 15.278-7.682 0-14.721-3.497-20.194-7.409.118.774.454 1.521 1.028 2.131 4.747 5.036 16.018 15.278 29.166 15.278s24.419-10.242 29.166-15.278c1.445-1.533 1.445-3.929 0-5.462z" fill="#648940"/></g></g><g><g><g><path d="m130.731 178.437c-1.533-1.445-3.929-1.445-5.461 0-5.036 4.747-15.278 16.018-15.278 29.166s10.242 24.419 15.278 29.166c1.533 1.445 3.929 1.445 5.461 0 5.036-4.747 15.278-16.018 15.278-29.166s-10.242-24.419-15.278-29.166z" fill="#76a34f"/></g></g></g><g><g><path d="m130.731 178.437c-.61-.575-1.357-.911-2.131-1.028 3.912 5.474 7.409 12.512 7.409 20.194 0 13.148-10.242 24.419-15.278 29.166-.923.87-2.158 1.206-3.331 1.028 2.783 3.895 5.776 6.998 7.869 8.972 1.533 1.445 3.929 1.445 5.461 0 5.036-4.747 15.278-16.018 15.278-29.166s-10.241-24.419-15.277-29.166z" fill="#648940"/></g></g><g><g><g><path d="m130.731 77.563c-1.533 1.445-3.929 1.445-5.461 0-5.036-4.747-15.278-16.018-15.278-29.166s10.242-24.419 15.278-29.166c1.533-1.445 3.929-1.445 5.461 0 5.036 4.747 15.278 16.018 15.278 29.166s-10.242 24.419-15.278 29.166z" fill="#76a34f"/></g></g></g><g><g><path d="m130.731 19.231c-.61-.575-1.357-.911-2.131-1.028 3.912 5.474 7.409 12.512 7.409 20.194 0 13.148-10.242 24.419-15.278 29.166-.923.87-2.158 1.206-3.331 1.028 2.783 3.895 5.776 6.998 7.869 8.972 1.533 1.445 3.929 1.445 5.461 0 5.036-4.747 15.278-16.018 15.278-29.166.001-13.148-10.241-24.419-15.277-29.166z" fill="#648940"/></g></g><g><g><g><circle cx="128" cy="128" fill="#ffa91a" r="37.856"/></g></g><g><g><path d="m149.297 96.703c4.137 6.068 6.559 13.399 6.559 21.297 0 20.907-16.949 37.856-37.856 37.856-7.898 0-15.229-2.422-21.297-6.559 6.814 9.995 18.288 16.559 31.297 16.559 20.907 0 37.856-16.949 37.856-37.856 0-13.009-6.564-24.483-16.559-31.297z" fill="#f79219"/></g></g><g><g><path d="m152.15 98.849c5.436 6.554 8.706 14.97 8.706 24.151 0 20.907-16.949 37.856-37.856 37.856-9.18 0-17.596-3.269-24.15-8.705 6.944 8.372 17.423 13.705 29.15 13.705 20.907 0 37.856-16.949 37.856-37.856 0-11.727-5.334-22.207-13.706-29.151z" fill="#ef7816"/></g></g><g><g><path d="m124.606 142.343c-1.061 0-2.078-.421-2.828-1.172l-11.236-11.237c-1.563-1.562-1.563-4.095 0-5.657s4.096-1.562 5.656 0l8.408 8.409 17.087-17.086c1.561-1.562 4.094-1.562 5.656 0 1.563 1.563 1.563 4.095 0 5.657l-19.915 19.915c-.749.75-1.767 1.171-2.828 1.171z" fill="#fff"/></g></g><g><g><path d="m96.14 130c-1.1 0-2-.9-2-2 0-.01.01-.01.01-.01 0-1.1.9-1.99 1.99-1.99 1.101 0 2 .89 2 1.99 0 0 .01 0 .01.01-.001 1.1-.9 2-2.01 2zm1-7.91c-.17 0-.33-.03-.5-.07-.52-.13-.95-.46-1.22-.92-.271-.46-.351-.99-.22-1.51 1.83-7.15 6.06-13.61 11.89-18.2 6.02-4.74 13.25-7.24 20.91-7.25 1.1 0 2 .9 2 2 0 1.11-.9 2-2 2h-.01c-13.641 0-25.521 9.23-28.91 22.44-.23.89-1.03 1.51-1.94 1.51z" fill="#ffc91d"/></g></g></g></g></svg>