<svg id="Layer_1" enable-background="new 0 0 256 256" height="512" viewBox="0 0 256 256" width="512" xmlns="http://www.w3.org/2000/svg"><g><g><g><g><g><path d="m118.186 41.226-3.926 22.029c-.296 1.661-1.601 2.971-3.267 3.239-39.052 6.27-68.462 33.686-68.462 66.578 0 31.982 27.808 58.787 65.247 66.01 4.656 11.524 11.97 18.99 20.222 18.99s15.566-7.466 20.222-18.99c37.439-7.223 65.247-34.029 65.247-66.01 0-32.892-29.41-60.308-68.462-66.578-1.666-.267-2.971-1.578-3.267-3.239l-3.926-22.029c-.34-1.908-2-3.298-3.938-3.298h-11.753c-1.938 0-3.597 1.39-3.937 3.298z" fill="#f79219"/></g></g></g><g><g><g><path d="m189.655 86.032c8.737 10.652 13.814 23.373 13.814 37.04 0 31.982-27.808 58.787-65.247 66.01-4.656 11.525-11.97 18.99-20.222 18.99-2.263 0-4.455-.562-6.541-1.614 4.448 7.232 10.219 11.614 16.541 11.614 8.252 0 15.566-7.466 20.222-18.99 37.439-7.223 65.247-34.028 65.247-66.01 0-18.262-9.066-34.836-23.814-47.04z" fill="#ef7816"/></g></g></g><g><g><g><path d="m123.646 37.928-2.13 25.327c-.14 1.661-.755 2.971-1.542 3.239-18.428 6.27-32.306 33.686-32.306 66.578 0 31.982 13.122 58.787 30.789 66.01 2.197 11.524 5.649 18.99 9.543 18.99s7.345-7.466 9.543-18.99c17.667-7.223 30.789-34.029 30.789-66.01 0-32.892-13.878-60.308-32.306-66.578-.786-.267-1.402-1.578-1.542-3.239l-2.13-25.327z" fill="#ffa91a"/></g></g></g><g><g><g><path d="m143.354 70.246c9.136 12.451 14.978 31.486 14.978 52.826 0 31.982-13.122 58.787-30.789 66.01-1.735 9.103-4.253 15.673-7.154 18.032 2.071 6.84 4.719 10.958 7.611 10.958 3.894 0 7.345-7.466 9.543-18.99 17.667-7.223 30.789-34.028 30.789-66.01 0-28.363-10.32-52.654-24.978-62.826z" fill="#f79219"/></g></g></g><g><g><g><path d="m146.013 72.285c10.467 12.269 17.319 32.676 17.319 55.787 0 31.982-13.122 58.787-30.789 66.01-2.197 11.525-5.649 18.99-9.543 18.99-.111 0-.221-.006-.331-.018 1.605 3.21 3.414 5.018 5.331 5.018 3.894 0 7.345-7.466 9.543-18.99 17.667-7.223 30.789-34.028 30.789-66.01 0-26.615-9.088-49.645-22.319-60.787z" fill="#ef7816"/></g></g></g></g><g><g><path d="m87.67 188.39c-.29 0-.57-.06-.84-.18-1-.47-1.44-1.66-.98-2.66.45-.97 1.68-1.43 2.66-.97 1 .46 1.44 1.649.97 2.649-.32.701-1.03 1.161-1.81 1.161zm-7.1-3.69c-.35 0-.7-.091-1.01-.271-5.87-3.41-11.12-7.42-15.62-11.899-11.4-11.351-17.42-25-17.41-39.461.01-11.5 4-22.819 11.55-32.72 7.36-9.66 17.84-17.66 30.29-23.12.99-.439 2.2.04 2.63 1.03.45 1.01-.02 2.19-1.02 2.63-24.35 10.7-39.47 30.7-39.45 52.18.01 13.36 5.62 26.03 16.23 36.631 4.25 4.229 9.23 8.02 14.8 11.27h.02c.95.561 1.27 1.78.72 2.74-.36.609-1.02.99-1.73.99z" fill="#ffa91a"/></g></g></g></svg>