<svg id="Layer_1" enable-background="new 0 0 256 256" height="512" viewBox="0 0 256 256" width="512" xmlns="http://www.w3.org/2000/svg"><g><g><g><path d="m223.622 128c5.973 0 10.558 5.196 9.938 11.137-5.566 53.384-50.703 95.001-105.56 95.001s-99.994-41.618-105.56-95.001c-.619-5.941 3.966-11.137 9.938-11.137z" fill="#ffa91a"/></g></g><g><g><path d="m223.622 128h-.007c.002.375-.014.754-.054 1.137-5.566 53.384-50.703 95.001-105.56 95.001-26.767 0-51.216-9.912-69.887-26.261 19.454 22.223 48.029 36.26 79.886 36.26 54.857 0 99.994-41.617 105.56-95.001.619-5.94-3.966-11.136-9.938-11.136z" fill="#f79219"/></g></g><g><g><path d="m227.709 128.876c.721 1.586 1.046 3.386.851 5.26-5.566 53.384-50.703 95.001-105.56 95.001-28.035 0-53.528-10.874-72.502-28.629 19.368 20.693 46.922 33.629 77.502 33.629 54.857 0 99.994-41.617 105.56-95.001.467-4.482-2.031-8.538-5.851-10.26z" fill="#ef7816"/></g></g><g><g><g><path d="m210.222 128c0 45.41-36.812 82.222-82.222 82.222s-82.222-36.812-82.222-82.222z" fill="#f79219"/></g></g></g><g><g><path d="m205.057 128c-2.586 43.08-38.327 77.222-82.057 77.222-21.433 0-40.945-8.207-55.58-21.642 15.03 16.373 36.603 26.642 60.58 26.642 45.41 0 82.222-36.812 82.222-82.222z" fill="#ef7816"/></g></g><g><g><g><g><path d="m128 188.554c-1.381 0-2.5-1.119-2.5-2.5v-96.035c0-1.381 1.119-2.5 2.5-2.5s2.5 1.119 2.5 2.5v96.035c0 1.381-1.119 2.5-2.5 2.5z" fill="#5a7a39"/></g></g><g><g><path d="m128 174.175c-.64 0-1.28-.244-1.768-.732l-19.586-19.586c-.977-.976-.977-2.559 0-3.535.976-.977 2.56-.977 3.535 0l17.819 17.818 17.819-17.818c.976-.977 2.56-.977 3.535 0 .977.976.977 2.559 0 3.535l-19.586 19.586c-.488.488-1.128.732-1.768.732z" fill="#5a7a39"/></g></g><g><g><path d="m128 137.014c-.64 0-1.28-.244-1.768-.732l-44.495-44.496c-.977-.976-.977-2.559 0-3.535.976-.977 2.56-.977 3.535 0l42.728 42.728 42.728-42.728c.976-.977 2.56-.977 3.535 0 .977.976.977 2.559 0 3.535l-44.496 44.496c-.487.488-1.127.732-1.767.732z" fill="#5a7a39"/></g></g></g><g><g><g><g><path d="m76.77 117.243c-1.78.065-3.197 1.482-3.262 3.262-.235 6.399.296 21.369 9.37 30.442 9.074 9.074 24.044 9.605 30.442 9.37 1.78-.065 3.197-1.482 3.262-3.262.235-6.399-.296-21.369-9.37-30.442s-24.043-9.605-30.442-9.37z" fill="#76a34f"/></g></g><g><g><path d="m107.213 126.612c-1.199-1.199-2.501-2.248-3.872-3.167 6.034 9.008 6.406 21.017 6.202 26.57-.065 1.78-1.482 3.197-3.262 3.262-5.553.204-17.562-.169-26.57-6.203.919 1.371 1.968 2.673 3.167 3.872 9.074 9.074 24.044 9.605 30.442 9.37 1.78-.065 3.197-1.482 3.262-3.262.235-6.398-.296-21.368-9.369-30.442z" fill="#648940"/></g></g><g><g><path d="m179.23 117.243c1.78.065 3.197 1.482 3.262 3.262.235 6.399-.296 21.369-9.37 30.442-9.074 9.074-24.044 9.605-30.442 9.37-1.78-.065-3.197-1.482-3.262-3.262-.235-6.399.296-21.369 9.37-30.442s24.043-9.605 30.442-9.37z" fill="#76a34f"/></g></g><g><g><path d="m182.492 120.505c-.065-1.78-1.482-3.197-3.262-3.262-1.045-.038-2.318-.056-3.757-.02-.186 7.373-1.797 19.093-9.39 26.685-7.592 7.592-19.312 9.203-26.685 9.39-.036 1.439-.019 2.712.02 3.757.065 1.78 1.482 3.197 3.262 3.262 6.399.235 21.369-.296 30.442-9.37 9.074-9.074 9.605-24.044 9.37-30.442z" fill="#648940"/></g></g></g><g><g><path d="m125.744 103.734c1.289 1.154 3.223 1.154 4.512 0 6.117-5.477 22.561-22.02 22.561-41.577s-16.444-36.101-22.561-41.577c-1.289-1.154-3.223-1.154-4.512 0-6.117 5.477-22.561 22.02-22.561 41.577s16.444 36.1 22.561 41.577z" fill="#76a34f"/></g></g><g><g><path d="m118.59 88.92c-.63 0-1.23-.31-1.61-.82 0 0-.01 0-.01-.01-.31-.43-.44-.96-.35-1.49.08-.52.36-.99.8-1.3.85-.63 2.16-.42 2.78.43.01.01.01.01.01.01.65.89.45 2.15-.44 2.8-.35.24-.75.38-1.18.38zm-4.29-6.75c-.73 0-1.4-.4-1.76-1.04-3.55-6.53-5.35-12.91-5.36-18.97.02-5.95 1.73-12.16 5.08-18.46 2.45-4.59 5.78-9.26 9.91-13.89.71-.79 2.03-.86 2.83-.15.82.74.88 2.01.15 2.83-5.24 5.79-14.02 17.35-13.97 29.67 0 5.38 1.64 11.12 4.88 17.05.52.97.17 2.19-.8 2.71-.29.16-.62.25-.96.25z" fill="#91b56b"/></g></g><g><g><path d="m130.256 20.579c-.305-.273-.648-.476-1.008-.62 6.566 7.958 13.569 19.435 13.569 32.198 0 19.557-16.444 36.101-22.561 41.577-.984.881-2.342 1.084-3.504.62 3.495 4.236 6.867 7.477 8.992 9.38 1.289 1.154 3.223 1.154 4.512 0 6.117-5.477 22.561-22.02 22.561-41.577s-16.445-36.101-22.561-41.578z" fill="#648940"/></g></g><g><g><g><path d="m199.298 59.953c1.78.065 3.197 1.482 3.262 3.262.235 6.399-.296 21.369-9.37 30.442-9.074 9.074-24.044 9.605-30.442 9.37-1.78-.065-3.197-1.482-3.262-3.262-.235-6.399.296-21.369 9.37-30.442 9.074-9.074 24.044-9.605 30.442-9.37z" fill="#76a34f"/></g></g><g><g><path d="m202.561 63.215c-.065-1.78-1.482-3.197-3.262-3.262-1.045-.038-2.318-.056-3.757-.02-.186 7.373-1.798 19.093-9.39 26.685s-19.312 9.203-26.685 9.39c-.036 1.439-.019 2.712.02 3.757.065 1.78 1.482 3.197 3.262 3.262 6.399.235 21.369-.296 30.442-9.37 9.074-9.073 9.604-24.043 9.37-30.442z" fill="#648940"/></g></g><g><g><path d="m56.702 59.953c-1.78.065-3.197 1.482-3.262 3.262-.235 6.399.296 21.369 9.37 30.442s24.044 9.605 30.442 9.37c1.78-.065 3.197-1.482 3.262-3.262.235-6.399-.296-21.369-9.37-30.442s-24.044-9.605-30.442-9.37z" fill="#76a34f"/></g></g><g><g><path d="m87.144 69.323c-1.199-1.199-2.501-2.248-3.872-3.167 6.034 9.008 6.406 21.017 6.203 26.57-.065 1.78-1.482 3.197-3.262 3.262-5.553.204-17.562-.169-26.57-6.203.919 1.371 1.968 2.673 3.167 3.872 9.074 9.074 24.044 9.605 30.442 9.37 1.78-.065 3.197-1.482 3.262-3.262.235-6.399-.296-21.369-9.37-30.442z" fill="#648940"/></g></g></g></g></g><g><g><g><circle cx="81.809" cy="41.408" fill="#f79219" r="10.715"/></g></g><g><g><path d="m86.454 31.763c.679 1.407 1.07 2.978 1.07 4.645 0 5.918-4.797 10.715-10.715 10.715-1.667 0-3.238-.392-4.645-1.07 1.732 3.588 5.394 6.07 9.645 6.07 5.918 0 10.715-4.797 10.715-10.715.001-4.252-2.481-7.913-6.07-9.645z" fill="#ef7816"/></g></g><g><g><circle cx="174.191" cy="41.408" fill="#f79219" r="10.715"/></g></g><g><g><path d="m178.836 31.763c.679 1.407 1.07 2.978 1.07 4.645 0 5.918-4.797 10.715-10.715 10.715-1.667 0-3.238-.391-4.645-1.07 1.732 3.588 5.394 6.07 9.645 6.07 5.918 0 10.715-4.797 10.715-10.715 0-4.251-2.482-7.913-6.07-9.645z" fill="#ef7816"/></g></g></g><g><g><g><circle cx="42.684" cy="103.067" fill="#f79219" r="10.715"/></g></g><g><g><path d="m47.329 93.422c.679 1.407 1.07 2.978 1.07 4.645 0 5.918-4.797 10.715-10.715 10.715-1.667 0-3.238-.392-4.645-1.07 1.732 3.588 5.394 6.07 9.645 6.07 5.918 0 10.715-4.797 10.715-10.715.001-4.251-2.481-7.913-6.07-9.645z" fill="#ef7816"/></g></g><g><g><circle cx="213.316" cy="103.067" fill="#f79219" r="10.715"/></g></g><g><g><path d="m217.961 93.422c.679 1.407 1.07 2.978 1.07 4.645 0 5.918-4.797 10.715-10.715 10.715-1.667 0-3.238-.392-4.645-1.07 1.732 3.588 5.394 6.07 9.645 6.07 5.918 0 10.715-4.797 10.715-10.715 0-4.251-2.482-7.913-6.07-9.645z" fill="#ef7816"/></g></g></g></g></svg>