<svg id="Layer_1" enable-background="new 0 0 256 256" height="512" viewBox="0 0 256 256" width="512" xmlns="http://www.w3.org/2000/svg"><g><g><g><path d="m232.396 107.992h-21.085l-23.849-55.735c-1.26-2.944-4.153-4.853-7.355-4.853h-58.52c-4.418 0-8 3.582-8 8v52.587h-95.061v37.136h223.092v-27.914c0-5.092-4.129-9.221-9.222-9.221z" fill="#478cf7"/></g></g><g><g><g><path d="m232.396 107.992h-.778v27.136h-213.092v10h223.092v-27.914c0-5.093-4.129-9.222-9.222-9.222z" fill="#377de2"/></g></g></g><g><g><path d="m119.59 101.73c-1.11 0-2-.89-2-2 0-1.1.89-2 2-2 1.1 0 2 .9 2 2 0 1.11-.9 2-2 2zm0-8c-1.11 0-2-.89-2-2v-36.32c0-2.21 1.8-4 4-4.01l26.42.01c1.1 0 2 .89 2 2 0 1.1-.9 1.99-2 1.99h-26.42v36.32.01c0 1.11-.9 2-2 2z" fill="#5e9cf7"/></g></g><g><g><path d="m186.087 94.662h-55.258c-1.668 0-3.02-1.352-3.02-3.02v-28.443c0-1.668 1.352-3.02 3.02-3.02h42.62c1.194 0 2.275.703 2.76 1.794l12.638 28.443c.888 1.996-.574 4.246-2.76 4.246z" fill="#f1f2f2"/></g></g><g><g><path d="m188.848 90.415-12.638-28.443c-.485-1.091-1.567-1.794-2.76-1.794h-3.594l8.992 20.236c.887 1.997-.575 4.247-2.76 4.247h-48.278v6.98c0 1.668 1.352 3.02 3.02 3.02h55.258c2.185.001 3.647-2.249 2.76-4.246z" fill="#e6e7e8"/></g></g><g><g><path d="m188.848 90.415-12.638-28.443c-.485-1.091-1.567-1.794-2.76-1.794h-.815l11.214 25.236c.887 1.997-.575 4.247-2.76 4.247h-53.278v1.98c0 1.668 1.352 3.02 3.02 3.02h55.258c2.184.001 3.646-2.249 2.759-4.246z" fill="#d1d3d4"/></g></g><g><g><path d="m144.988 117.315h-14.158c-1.668 0-3.02-1.352-3.02-3.02v-2.769c0-1.668 1.352-3.02 3.02-3.02h14.158c1.668 0 3.02 1.352 3.02 3.02v2.769c0 1.668-1.352 3.02-3.02 3.02z" fill="#377de2"/></g></g><g><g><g><path d="m232.396 180.056h-204.649c-5.093 0-9.222-4.129-9.222-9.222v-25.706h223.092v25.706c.001 5.093-4.128 9.222-9.221 9.222z" fill="#377de2"/></g></g></g><g><g><path d="m231.618 145.128v15.706c0 5.093-4.129 9.222-9.222 9.222h-203.87v.778c0 5.093 4.129 9.222 9.222 9.222h204.649c5.093 0 9.222-4.129 9.222-9.222v-25.706z" fill="#2266d3"/></g></g><g><g><g><ellipse cx="62.694" cy="180.055" fill="#58595b" rx="28.54" ry="28.54" transform="matrix(.707 -.707 .707 .707 -108.956 97.069)"/></g></g><g><g><path d="m80.22 157.53c3.769 4.837 6.014 10.919 6.014 17.526 0 15.762-12.778 28.54-28.54 28.54-6.607 0-12.689-2.245-17.526-6.014 5.222 6.703 13.37 11.014 22.526 11.014 15.762 0 28.54-12.778 28.54-28.54 0-9.156-4.311-17.304-11.014-22.526z" fill="#414042"/></g></g><g><g><circle cx="62.694" cy="180.056" fill="#f1f2f2" r="15.765"/></g></g><g><g><path d="m71.059 166.691c1.521 2.424 2.4 5.292 2.4 8.365 0 8.707-7.058 15.765-15.765 15.765-3.073 0-5.94-.879-8.365-2.4 2.788 4.445 7.731 7.4 13.365 7.4 8.707 0 15.765-7.058 15.765-15.765 0-5.634-2.955-10.578-7.4-13.365z" fill="#e6e7e8"/></g></g><g><g><path d="m71.019 180.056c0 4.597-3.727 8.324-8.324 8.324s-8.324-3.727-8.324-8.324 3.727-8.324 8.324-8.324c4.597-.001 8.324 3.726 8.324 8.324z" fill="#808285"/></g></g><g><g><path d="m65.525 172.225c.319.884.494 1.837.494 2.83 0 4.597-3.727 8.324-8.324 8.324-.994 0-1.947-.174-2.83-.494 1.158 3.204 4.227 5.494 7.83 5.494 4.597 0 8.324-3.727 8.324-8.324-.001-3.603-2.29-6.671-5.494-7.83z" fill="#58595b"/></g></g></g><g><g><g><ellipse cx="195.546" cy="180.055" fill="#58595b" rx="28.54" ry="28.54" transform="matrix(.924 -.383 .383 .924 -54.019 88.538)"/></g></g><g><g><path d="m213.072 157.53c3.769 4.837 6.014 10.919 6.014 17.526 0 15.762-12.778 28.54-28.54 28.54-6.607 0-12.689-2.245-17.526-6.014 5.222 6.703 13.37 11.014 22.526 11.014 15.762 0 28.54-12.778 28.54-28.54 0-9.156-4.311-17.304-11.014-22.526z" fill="#414042"/></g></g><g><g><circle cx="195.546" cy="180.056" fill="#f1f2f2" r="15.765"/></g></g><g><g><path d="m203.911 166.691c1.521 2.424 2.4 5.292 2.4 8.365 0 8.707-7.058 15.765-15.765 15.765-3.073 0-5.94-.879-8.365-2.4 2.788 4.445 7.731 7.4 13.365 7.4 8.707 0 15.765-7.058 15.765-15.765 0-5.634-2.955-10.578-7.4-13.365z" fill="#e6e7e8"/></g></g><g><g><path d="m203.87 180.056c0 4.597-3.727 8.324-8.324 8.324s-8.324-3.727-8.324-8.324 3.727-8.324 8.324-8.324c4.598-.001 8.324 3.726 8.324 8.324z" fill="#808285"/></g></g><g><g><path d="m198.377 172.225c.319.884.494 1.837.494 2.83 0 4.597-3.727 8.324-8.324 8.324-.994 0-1.947-.174-2.83-.494 1.158 3.204 4.227 5.494 7.83 5.494 4.597 0 8.324-3.727 8.324-8.324-.001-3.603-2.29-6.672-5.494-7.83z" fill="#58595b"/></g></g></g><g><g><g><path d="m18.526 70.856h95.062v16.518h-95.062z" fill="#8c3f0a"/></g></g><g><g><path d="m108.588 70.856v11.519h-90.062v5h95.062v-16.519z" fill="#7c3108"/></g></g><g><g><path d="m18.526 91.474h95.062v16.518h-95.062z" fill="#8c3f0a"/></g></g><g><g><path d="m108.588 91.474v11.518h-90.062v5h95.062v-16.518z" fill="#7c3108"/></g></g><g><g><g><path d="m75.53 107.992h-14.558v-40.292c0-2.209 1.791-4 4-4h6.558c2.209 0 4 1.791 4 4z" fill="#7c3108"/></g></g><g><g><path d="m71.53 63.7h-1v39.292h-9.558v5h14.558v-40.292c0-2.209-1.791-4-4-4z" fill="#6d2e03"/></g></g><g><g><path d="m33.084 107.992h-14.558v-40.292c0-2.209 1.791-4 4-4h6.558c2.209 0 4 1.791 4 4z" fill="#7c3108"/></g></g><g><g><path d="m29.084 63.7h-1v39.292h-9.558v5h14.558v-40.292c0-2.209-1.791-4-4-4z" fill="#6d2e03"/></g></g><g><g><path d="m113.588 107.992h-14.559v-40.292c0-2.209 1.791-4 4-4h6.558c2.209 0 4 1.791 4 4v40.292z" fill="#7c3108"/></g></g><g><g><path d="m109.588 63.7h-1v39.292h-9.558v5h14.558v-40.292c0-2.209-1.791-4-4-4z" fill="#6d2e03"/></g></g></g></g><g><g><path d="m242.845 169.585h-10.742c-2.546 0-4.611-2.064-4.611-4.611v-6.947c0-2.546 2.064-4.611 4.611-4.611h10.742c2.546 0 4.611 2.064 4.611 4.611v6.947c0 2.547-2.064 4.611-4.611 4.611z" fill="#e6e7e8"/></g></g><g><g><path d="m242.845 153.416h-.389v6.558c0 2.547-2.064 4.611-4.611 4.611h-10.353v.389c0 2.547 2.064 4.611 4.611 4.611h10.742c2.547 0 4.611-2.064 4.611-4.611v-6.947c0-2.546-2.064-4.611-4.611-4.611z" fill="#d1d3d4"/></g></g><g><g><path d="m23.897 169.585h-10.742c-2.546 0-4.611-2.064-4.611-4.611v-6.947c0-2.546 2.064-4.611 4.611-4.611h10.742c2.546 0 4.611 2.064 4.611 4.611v6.947c-.001 2.547-2.065 4.611-4.611 4.611z" fill="#e6e7e8"/></g></g><g><g><path d="m23.897 153.416h-.389v6.558c0 2.547-2.064 4.611-4.611 4.611h-10.353v.389c0 2.547 2.064 4.611 4.611 4.611h10.742c2.547 0 4.611-2.064 4.611-4.611v-6.947c0-2.546-2.065-4.611-4.611-4.611z" fill="#d1d3d4"/></g></g><g><g><path d="m27.678 145.128h-9.153v-23.135h9.153c2.209 0 4 1.791 4 4v15.135c0 2.209-1.79 4-4 4z" fill="#e63950"/></g></g><g><g><path d="m27.678 121.993h-1v14.135c0 2.209-1.791 4-4 4h-4.153v5h9.153c2.209 0 4-1.791 4-4v-15.135c0-2.209-1.79-4-4-4z" fill="#d10028"/></g></g><g><g><path d="m241.618 145.128h-9.153c-2.209 0-4-1.791-4-4v-15.135c0-2.209 1.791-4 4-4h9.153z" fill="#ffa91a"/></g></g><g><g><path d="m236.618 121.993v18.135h-8.153v1c0 2.209 1.791 4 4 4h9.153v-23.135z" fill="#f79219"/></g></g></g></svg>