<svg id="Layer_1" enable-background="new 0 0 256 256" height="512" viewBox="0 0 256 256" width="512" xmlns="http://www.w3.org/2000/svg"><g><g><g><g><g><path d="m79.996 43.956c12.368 12.368 12.368 32.422 0 44.79s-32.422 12.368-44.79 0c-9.611-9.611-11.327-38.374-11.614-50.719-.074-3.172 2.512-5.758 5.684-5.684 12.346.286 41.108 2.002 50.72 11.613z" fill="#fcc4ae"/></g></g><g><g><path d="m69.001 50.941c7.403 7.403 7.403 19.407 0 26.81s-19.407 7.403-26.81 0c-5.753-5.753-6.78-22.97-6.951-30.359-.044-1.899 1.504-3.447 3.402-3.402 7.389.172 24.606 1.198 30.359 6.951z" fill="#8c3f0a"/></g></g><g><g><path d="m69.001 50.941c-1.354-1.354-3.348-2.443-5.694-3.324 2.564 6.761 1.139 14.689-4.306 20.134s-13.373 6.87-20.134 4.306c.881 2.346 1.97 4.34 3.324 5.694 7.403 7.403 19.406 7.403 26.81 0s7.403-19.407 0-26.81z" fill="#7c3108"/></g></g></g><g><g><g><path d="m176.004 43.956c-12.368 12.368-12.368 32.422 0 44.79s32.422 12.368 44.79 0c9.611-9.611 11.327-38.374 11.614-50.719.074-3.172-2.512-5.758-5.684-5.684-12.346.286-41.109 2.002-50.72 11.613z" fill="#fcc4ae"/></g></g><g><g><path d="m227.381 32.369c.02.216.031.435.026.658-.287 12.345-2.002 41.108-11.614 50.719-11.523 11.523-29.713 12.305-42.148 2.358.73.912 1.512 1.797 2.358 2.642 12.368 12.368 32.422 12.368 44.79 0 9.611-9.612 11.326-38.374 11.614-50.719.069-2.95-2.162-5.389-5.026-5.658z" fill="#f2ad97"/></g></g><g><g><path d="m186.999 50.941c-7.403 7.403-7.403 19.407 0 26.81s19.407 7.403 26.81 0c5.753-5.753 6.78-22.97 6.951-30.359.044-1.899-1.504-3.447-3.402-3.402-7.389.172-24.606 1.198-30.359 6.951z" fill="#8c3f0a"/></g></g><g><g><path d="m217.358 43.99c-1.822.042-4.242.137-6.939.341-.624 8.244-2.275 19.085-6.61 23.42-5.634 5.634-13.929 6.968-20.836 4.026.924 2.169 2.257 4.205 4.026 5.974 7.403 7.403 19.406 7.403 26.81 0 5.753-5.753 6.78-22.969 6.952-30.359.044-1.899-1.504-3.446-3.403-3.402z" fill="#7c3108"/></g></g></g></g><g><g><circle cx="128" cy="131.172" fill="#fcc4ae" r="92.487"/></g></g><g><g><path d="m41.51 133.17c-1.1 0-2-.9-2-2s.9-2 2-2c1.11 0 2 .9 2 2s-.89 2-2 2zm.37-7.98c-.06 0-.12-.01-.19-.01-.53-.05-1.01-.3-1.35-.71s-.5-.93-.45-1.47c2.01-21.85 12.07-42.1 28.34-57.02 16.37-15.02 37.59-23.29 59.77-23.29 1.1 0 2 .89 2 2 0 1.1-.9 2-2 2-43.22-.01-80.18 33.68-84.13 76.68-.1 1.04-.95 1.82-1.99 1.82z" fill="#ffd2c0"/></g></g><g><g><path d="m188.205 60.968c13.887 16.179 22.282 37.211 22.282 60.205 0 51.079-41.408 92.487-92.487 92.487-22.994 0-44.026-8.394-60.205-22.282 16.962 19.761 42.12 32.282 70.205 32.282 51.079 0 92.487-41.408 92.487-92.487 0-28.085-12.521-53.243-32.282-70.205z" fill="#f2ad97"/></g></g><g><g><path d="m190.846 63.327c15.29 16.498 24.641 38.578 24.641 62.846 0 51.079-41.408 92.487-92.487 92.487-24.267 0-46.348-9.351-62.846-24.641 16.892 18.228 41.034 29.641 67.846 29.641 51.079 0 92.487-41.408 92.487-92.487 0-26.812-11.413-50.954-29.641-67.846z" fill="#e59076"/></g></g><g><g><path d="m171.99 157.18c0 24.295-19.695 43.99-43.99 43.99s-43.99-19.695-43.99-43.99 19.695-15.382 43.99-15.382 43.99-8.913 43.99 15.382z" fill="#f2ad97"/></g></g><g><g><path d="m165.101 141.936c1.225 2.479 1.889 5.802 1.889 10.244 0 24.295-19.695 43.99-43.99 43.99-10.875 0-20.82-3.954-28.498-10.492 8.069 9.475 20.077 15.492 33.498 15.492 24.295 0 43.99-19.695 43.99-43.99 0-8.697-2.534-13.126-6.889-15.244z" fill="#e59076"/></g></g><g><g><g><circle cx="107.827" cy="163.882" fill="#8c3f0a" r="10.339"/></g></g><g><g><path d="m112.19 154.519c.62 1.327.976 2.802.976 4.363 0 5.71-4.629 10.339-10.339 10.339-1.561 0-3.036-.356-4.363-.976 1.646 3.526 5.214 5.976 9.363 5.976 5.71 0 10.339-4.629 10.339-10.339 0-4.149-2.45-7.717-5.976-9.363z" fill="#7c3108"/></g></g><g><g><circle cx="148.173" cy="163.882" fill="#8c3f0a" r="10.339"/></g></g><g><g><path d="m152.536 154.519c.62 1.327.976 2.802.976 4.363 0 5.71-4.629 10.339-10.339 10.339-1.561 0-3.036-.356-4.363-.976 1.646 3.526 5.214 5.976 9.363 5.976 5.71 0 10.339-4.629 10.339-10.339 0-4.149-2.449-7.717-5.976-9.363z" fill="#7c3108"/></g></g></g><g><g><g><circle cx="77.164" cy="109.56" fill="#8c3f0a" r="9.432"/></g></g><g><g><path d="m80.848 100.876c.481 1.132.747 2.377.747 3.684 0 5.209-4.223 9.432-9.432 9.432-1.307 0-2.552-.267-3.684-.747 1.435 3.378 4.783 5.747 8.684 5.747 5.209 0 9.432-4.223 9.432-9.432 0-3.901-2.369-7.249-5.747-8.684z" fill="#7c3108"/></g></g><g><g><circle cx="178.836" cy="109.56" fill="#8c3f0a" r="9.432"/></g></g><g><g><path d="m182.521 100.876c.481 1.132.747 2.377.747 3.684 0 5.209-4.223 9.432-9.432 9.432-1.307 0-2.552-.267-3.684-.747 1.435 3.378 4.783 5.747 8.684 5.747 5.209 0 9.432-4.223 9.432-9.432 0-3.901-2.369-7.249-5.747-8.684z" fill="#7c3108"/></g></g></g></g></svg>