<svg id="Layer_1" enable-background="new 0 0 256 256" height="512" viewBox="0 0 256 256" width="512" xmlns="http://www.w3.org/2000/svg"><g><g><g><path d="m45.977 160.557h38.296v8.001h-38.296z" fill="#414042" transform="matrix(.707 -.707 .707 .707 -97.285 94.248)"/></g></g><g><g><g><path d="m239.254 140.846h-16.047v-12.537h16.047c3.462 0 6.268 2.806 6.268 6.268 0 3.463-2.806 6.269-6.268 6.269z" fill="#414042"/></g></g><g><g><path d="m204.085 112.751h-55.577c-7.348 0-13.305-5.957-13.305-13.305v-38.023l-99.587 54.46v26.241c0 7.348 5.957 13.305 13.305 13.305h155.163c11.785 0 21.339-9.554 21.339-21.339.001-11.785-9.553-21.339-21.338-21.339z" fill="#76a34f"/></g></g><g><g><path d="m55.47 113.87c-.73 0-1.41-.4-1.76-1.04-.25-.47-.31-1.01-.16-1.53.15-.51.49-.93.96-1.19.94-.51 2.2-.14 2.71.8.53.96.17 2.18-.79 2.71-.3.16-.63.25-.96.25zm7.02-3.84c-.73 0-1.41-.4-1.76-1.04-.26-.47-.31-1.01-.16-1.52.15-.52.49-.94.95-1.2l60.89-33.29c.94-.51 2.2-.14 2.71.79.26.47.32 1.01.17 1.53-.15.51-.49.93-.96 1.19l-60.88 33.29c-.3.16-.63.25-.96.25z" fill="#91b56b"/></g></g><g><g><g><path d="m216.453 116.722c2.491 3.491 3.971 7.752 3.971 12.368 0 11.785-9.554 21.339-21.339 21.339h-155.163c-2.389 0-4.626-.638-6.564-1.741 2.288 4.022 6.605 6.741 11.564 6.741h155.163c11.785 0 21.339-9.554 21.339-21.339 0-7.17-3.548-13.499-8.971-17.368z" fill="#648940"/></g></g></g><g><g><path d="m77.138 93.177-5.12-18.947c-1.279-4.732-5.572-8.018-10.473-8.018h-20.504c-2.996 0-5.425 2.429-5.425 5.425v44.247z" fill="#76a34f"/></g></g><g><g><path d="m72.018 74.23c-.838-3.101-2.974-5.573-5.724-6.914.295.607.543 1.244.724 1.914l5.121 18.947-36.521 19.972v7.734l41.521-22.706z" fill="#648940"/></g></g><g><g><path d="m53.1 136.682h-34.966c-4.228 0-7.656-3.428-7.656-7.656 0-4.228 3.428-7.656 7.656-7.656h34.966c4.228 0 7.656 3.428 7.656 7.656 0 4.228-3.428 7.656-7.656 7.656z" fill="#648940"/></g></g><g><g><path d="m55.402 121.723c.229.727.354 1.5.354 2.303 0 4.228-3.428 7.656-7.656 7.656h-34.966c-.803 0-1.576-.125-2.303-.354.978 3.103 3.877 5.354 7.303 5.354h34.966c4.228 0 7.656-3.428 7.656-7.656 0-3.426-2.251-6.326-5.354-7.303z" fill="#5a7a39"/></g></g><g><g><path d="m204.411 112.751h-55.903c-7.348 0-13.305-5.957-13.305-13.305v-38.023h17.88c28.348 0 51.328 22.98 51.328 51.328z" fill="#f1f2f2"/></g></g><g><g><path d="m184.029 71.805c6.513 8.605 10.382 19.322 10.382 30.946h-55.903c-1.02 0-2.008-.125-2.962-.343 1.348 5.92 6.634 10.343 12.962 10.343h55.903c0-16.724-8.002-31.575-20.382-40.946z" fill="#e6e7e8"/></g></g><g><g><path d="m186.782 74.053c7.859 9.018 12.63 20.797 12.63 33.698h-55.903c-2.389 0-4.626-.638-6.564-1.741 2.288 4.022 6.605 6.741 11.564 6.741h55.903c-.001-15.446-6.834-29.289-17.63-38.698z" fill="#d1d3d4"/></g></g><g><g><path d="m159.385 146.599h-57.235c-4.467 0-8.088-3.621-8.088-8.088 0-4.115 3.09-7.574 7.179-8.037l57.235-11.853c4.796-.542 8.997 3.21 8.997 8.037v11.853c0 4.466-3.621 8.088-8.088 8.088z" fill="#648940"/></g></g><g><g><path d="m162.03 119.018c.285.826.443 1.712.443 2.64v11.853c0 4.467-3.621 8.088-8.088 8.088h-57.234c-.925 0-1.811-.163-2.639-.449 1.095 3.169 4.097 5.449 7.639 5.449h57.235c4.467 0 8.088-3.621 8.088-8.088v-11.853c-.001-3.572-2.304-6.55-5.444-7.64z" fill="#5a7a39"/></g></g><g><g><path d="m234.364 169.233c-3.192 0-5.779-2.587-5.779-5.779v-57.752c0-3.192 2.587-5.779 5.779-5.779 3.192 0 5.779 2.587 5.779 5.779v57.752c.001 3.192-2.587 5.779-5.779 5.779z" fill="#58595b"/></g></g><g><g><path d="m235.093 99.973c.03.239.051.481.051.728v57.752c0 3.192-2.587 5.779-5.779 5.779-.247 0-.489-.021-.728-.051.359 2.847 2.784 5.051 5.728 5.051 3.192 0 5.779-2.587 5.779-5.779v-57.752c0-2.944-2.204-5.369-5.051-5.728z" fill="#414042"/></g></g></g><g><g><g><ellipse cx="174.853" cy="171.352" fill="#58595b" rx="23.165" ry="23.166" transform="matrix(.924 -.383 .383 .924 -52.264 79.957)"/></g></g><g><g><path d="m188.54 152.665c2.814 3.835 4.479 8.566 4.479 13.687 0 12.794-10.372 23.165-23.165 23.165-5.121 0-9.852-1.665-13.687-4.479 4.216 5.746 11.014 9.479 18.687 9.479 12.794 0 23.165-10.372 23.165-23.165 0-7.673-3.733-14.472-9.479-18.687z" fill="#414042"/></g></g><g><g><circle cx="174.853" cy="171.352" fill="#f1f2f2" r="12.796"/></g></g><g><g><path d="m181.047 160.158c1.018 1.836 1.602 3.946 1.602 6.194 0 7.067-5.729 12.796-12.796 12.796-2.248 0-4.358-.584-6.194-1.602 2.182 3.935 6.375 6.602 11.194 6.602 7.067 0 12.796-5.729 12.796-12.796 0-4.819-2.666-9.012-6.602-11.194z" fill="#e6e7e8"/></g></g><g><g><path d="m181.61 171.352c0 3.731-3.025 6.757-6.757 6.757s-6.757-3.025-6.757-6.757 3.025-6.757 6.757-6.757 6.757 3.025 6.757 6.757z" fill="#808285"/></g></g><g><g><path d="m176.42 164.785c.12.504.19 1.026.19 1.567 0 3.731-3.025 6.757-6.757 6.757-.54 0-1.063-.07-1.567-.19.708 2.975 3.375 5.19 6.567 5.19 3.732 0 6.757-3.025 6.757-6.757 0-3.192-2.215-5.859-5.19-6.567z" fill="#58595b"/></g></g></g><g><g><g><ellipse cx="51.585" cy="178.609" fill="#58595b" rx="15.968" ry="15.968" transform="matrix(.924 -.383 .383 .924 -64.424 33.337)"/></g></g><g><g><path d="m60.085 165.109c1.554 2.463 2.467 5.372 2.467 8.5 0 8.819-7.149 15.968-15.968 15.968-3.128 0-6.037-.913-8.5-2.467 2.828 4.481 7.81 7.467 13.5 7.467 8.819 0 15.968-7.149 15.968-15.968.001-5.691-2.985-10.672-7.467-13.5z" fill="#414042"/></g></g><g><g><circle cx="51.585" cy="178.609" fill="#f1f2f2" r="8.82"/></g></g><g><g><path d="m54.794 170.4c.39.996.611 2.076.611 3.209 0 4.871-3.949 8.82-8.82 8.82-1.134 0-2.214-.222-3.209-.611 1.284 3.283 4.472 5.611 8.209 5.611 4.871 0 8.82-3.949 8.82-8.82 0-3.738-2.329-6.925-5.611-8.209z" fill="#e6e7e8"/></g></g><g><g><path d="m56.242 178.609c0 2.572-2.085 4.657-4.657 4.657s-4.657-2.085-4.657-4.657 2.085-4.657 4.657-4.657 4.657 2.085 4.657 4.657z" fill="#808285"/></g></g><g><g><path d="m53.708 174.486c.33.639.534 1.354.534 2.123 0 2.572-2.085 4.657-4.657 4.657-.769 0-1.484-.204-2.123-.534.774 1.499 2.32 2.534 4.123 2.534 2.572 0 4.657-2.085 4.657-4.657 0-1.803-1.036-3.349-2.534-4.123z" fill="#58595b"/></g></g></g></g></svg>