<svg id="Layer_1" enable-background="new 0 0 256 256" height="512" viewBox="0 0 256 256" width="512" xmlns="http://www.w3.org/2000/svg"><g><g><g><g><ellipse cx="95.787" cy="86.969" fill="#ffa91a" rx="75.116" ry="50.646"/></g></g><g><g><path d="m132.774 41.426c12.18 9.143 18.129 21.694 18.129 35.543 0 27.971-24.266 50.646-75.116 50.646-14.461 0-26.773-1.834-36.987-5.102 12.419 9.323 31.315 15.102 56.987 15.102 50.85 0 75.116-22.675 75.116-50.646 0-20.016-12.427-37.32-38.129-45.543z" fill="#f79219"/></g></g><g><g><ellipse cx="160.213" cy="169.031" fill="#ffa91a" rx="75.116" ry="50.646"/></g></g><g><g><path d="m217.127 133.433c5.496 7.511 8.201 16.26 8.201 25.598 0 27.971-24.266 50.646-75.116 50.646-25.622 0-44.495-5.757-56.914-15.048 10.966 14.986 33.042 25.048 66.914 25.048 50.85 0 75.116-22.675 75.116-50.646.001-13.877-5.972-26.451-18.201-35.598z" fill="#f79219"/></g></g><g><g><path d="m219.977 135.723c6.942 8.082 10.352 17.823 10.352 28.308 0 27.971-24.266 50.646-75.116 50.646-27.666 0-47.463-6.712-59.764-17.338 11.577 13.477 32.976 22.338 64.764 22.338 50.85 0 75.116-22.675 75.116-50.646 0-12.753-5.045-24.405-15.352-33.308z" fill="#ef7816"/></g></g></g><g><g><path d="m91.1 171.03c-1.11 0-2-.9-2-2s.89-2 2-2c1.1 0 1.99.89 2 1.99v.01c0 1.1-.9 2-2 2zm.79-7.95c-.14 0-.27-.01-.4-.04-.53-.11-.98-.41-1.27-.86-.3-.45-.4-.98-.29-1.5 1.96-9.58 7.5-17.96 16.03-24.24 6.26-4.61 14.09-8.15 23.29-10.51 9.109-2.35 19.52-3.54 30.96-3.54 1.109 0 2 .89 2 2 0 1.1-.891 2-2 2h-.07c-22.149 0-40.06 4.58-51.81 13.27-7.81 5.77-12.68 13.12-14.48 21.83-.19.92-1.02 1.59-1.96 1.59z" fill="#ffc91d"/></g></g><g><g><g><g><path d="m39.969 82.668h-7.059c-2.417 0-4.376-1.959-4.376-4.376 0-2.417 1.959-4.376 4.376-4.376h7.058c2.417 0 4.376 1.959 4.376 4.376.001 2.417-1.959 4.376-4.375 4.376z" fill="#f79219"/></g></g><g><g><path d="m57.472 101.301h-7.058c-2.417 0-4.376-1.959-4.376-4.376 0-2.417 1.959-4.376 4.376-4.376h7.058c2.417 0 4.376 1.959 4.376 4.376 0 2.417-1.959 4.376-4.376 4.376z" fill="#f79219"/></g></g></g><g><g><g><path d="m61.051 64.035h-7.058c-2.417 0-4.376-1.959-4.376-4.376 0-2.417 1.959-4.376 4.376-4.376h7.058c2.417 0 4.376 1.959 4.376 4.376 0 2.416-1.96 4.376-4.376 4.376z" fill="#f79219"/></g></g><g><g><path d="m78.555 82.668h-7.058c-2.417 0-4.376-1.959-4.376-4.376 0-2.417 1.959-4.376 4.376-4.376h7.058c2.417 0 4.376 1.959 4.376 4.376 0 2.417-1.96 4.376-4.376 4.376z" fill="#f79219"/></g></g><g><g><path d="m96.059 101.301h-7.059c-2.417 0-4.376-1.959-4.376-4.376 0-2.417 1.959-4.376 4.376-4.376h7.058c2.417 0 4.376 1.959 4.376 4.376 0 2.417-1.959 4.376-4.375 4.376z" fill="#f79219"/></g></g></g><g><g><g><path d="m99.637 64.035h-7.058c-2.417 0-4.376-1.959-4.376-4.376 0-2.417 1.959-4.376 4.376-4.376h7.058c2.417 0 4.376 1.959 4.376 4.376 0 2.416-1.96 4.376-4.376 4.376z" fill="#f79219"/></g></g><g><g><path d="m117.141 82.668h-7.058c-2.417 0-4.376-1.959-4.376-4.376 0-2.417 1.959-4.376 4.376-4.376h7.058c2.417 0 4.376 1.959 4.376 4.376 0 2.417-1.96 4.376-4.376 4.376z" fill="#f79219"/></g></g><g><g><path d="m134.645 101.301h-7.058c-2.417 0-4.376-1.959-4.376-4.376 0-2.417 1.959-4.376 4.376-4.376h7.058c2.417 0 4.376 1.959 4.376 4.376 0 2.417-1.96 4.376-4.376 4.376z" fill="#f79219"/></g></g></g></g><g><g><g><g><path d="m122.406 159.459h-7.058c-2.417 0-4.376-1.959-4.376-4.376 0-2.417 1.959-4.376 4.376-4.376h7.058c2.417 0 4.376 1.959 4.376 4.376 0 2.417-1.959 4.376-4.376 4.376z" fill="#f79219"/></g></g><g><g><path d="m139.91 178.092h-7.058c-2.417 0-4.376-1.959-4.376-4.376 0-2.417 1.959-4.376 4.376-4.376h7.058c2.417 0 4.376 1.959 4.376 4.376 0 2.417-1.959 4.376-4.376 4.376z" fill="#f79219"/></g></g><g><g><path d="m157.414 196.726h-7.058c-2.417 0-4.376-1.959-4.376-4.376 0-2.417 1.959-4.376 4.376-4.376h7.058c2.417 0 4.376 1.959 4.376 4.376 0 2.417-1.959 4.376-4.376 4.376z" fill="#f79219"/></g></g></g><g><g><g><path d="m160.992 159.459h-7.058c-2.417 0-4.376-1.959-4.376-4.376 0-2.417 1.959-4.376 4.376-4.376h7.058c2.417 0 4.376 1.959 4.376 4.376 0 2.417-1.959 4.376-4.376 4.376z" fill="#f79219"/></g></g><g><g><path d="m178.496 178.092h-7.058c-2.417 0-4.376-1.959-4.376-4.376 0-2.417 1.959-4.376 4.376-4.376h7.058c2.417 0 4.376 1.959 4.376 4.376 0 2.417-1.959 4.376-4.376 4.376z" fill="#f79219"/></g></g><g><g><path d="m196 196.726h-7.058c-2.417 0-4.376-1.959-4.376-4.376 0-2.417 1.959-4.376 4.376-4.376h7.058c2.417 0 4.376 1.959 4.376 4.376 0 2.417-1.959 4.376-4.376 4.376z" fill="#f79219"/></g></g></g><g><g><g><path d="m199.579 159.459h-7.058c-2.417 0-4.376-1.959-4.376-4.376 0-2.417 1.959-4.376 4.376-4.376h7.058c2.417 0 4.376 1.959 4.376 4.376-.001 2.417-1.96 4.376-4.376 4.376z" fill="#f79219"/></g></g><g><g><path d="m217.082 178.092h-7.058c-2.417 0-4.376-1.959-4.376-4.376 0-2.417 1.959-4.376 4.376-4.376h7.058c2.417 0 4.376 1.959 4.376 4.376 0 2.417-1.959 4.376-4.376 4.376z" fill="#f79219"/></g></g></g></g></g></svg>