<svg id="Layer_1" enable-background="new 0 0 256 256" height="512" viewBox="0 0 256 256" width="512" xmlns="http://www.w3.org/2000/svg"><g><g><g><path d="m170.12 35.476h-84.24c-1.811 0-3.396 1.216-3.864 2.965l-42.978 160.514h177.924l-42.978-160.514c-.468-1.749-2.053-2.965-3.864-2.965z" fill="#f1f2f2"/></g></g><g><g><path d="m173.984 38.441c-.468-1.749-2.053-2.966-3.864-2.966h-4.253l41.094 153.479h-165.246l-2.677 10h177.924z" fill="#e6e7e8"/></g></g><g><g><path d="m173.984 38.441c-.468-1.749-2.053-2.966-3.864-2.966h-.591l42.433 158.479h-171.585l-1.339 5h177.924z" fill="#d1d3d4"/></g></g><g><g><g><g><path d="m128 201.455c-1.381 0-2.5-1.119-2.5-2.5v-43.789c0-1.381 1.119-2.5 2.5-2.5s2.5 1.119 2.5 2.5v43.789c0 1.381-1.119 2.5-2.5 2.5z" fill="#5a7a39"/></g></g><g><g><path d="m128 194.899c-.663 0-1.299-.264-1.768-.732l-8.931-8.932c-.976-.977-.976-2.56 0-3.535.976-.977 2.559-.977 3.536 0l7.163 7.163 7.163-7.163c.977-.977 2.559-.977 3.536 0 .977.976.977 2.559 0 3.535l-8.931 8.932c-.469.469-1.105.732-1.768.732z" fill="#5a7a39"/></g></g><g><g><path d="m128 177.955c-.663 0-1.299-.264-1.768-.732l-20.289-20.289c-.977-.977-.977-2.559 0-3.535.976-.977 2.56-.977 3.535 0l18.522 18.521 18.521-18.521c.976-.977 2.56-.977 3.535 0 .977.977.977 2.559 0 3.535l-20.289 20.289c-.468.468-1.104.732-1.767.732z" fill="#5a7a39"/></g></g></g><g><g><g><g><path d="m104.641 167.579c-.812.03-1.458.676-1.487 1.487-.107 2.918.135 9.744 4.272 13.881s10.963 4.379 13.881 4.272c.812-.03 1.458-.676 1.487-1.487.107-2.918-.135-9.744-4.272-13.881s-10.964-4.379-13.881-4.272z" fill="#76a34f"/></g></g><g><g><path d="m118.522 171.852c-.864-.864-1.846-1.558-2.885-2.115 2.108 3.934 2.242 8.688 2.157 10.996-.03.812-.676 1.458-1.487 1.487-2.308.085-7.062-.049-10.996-2.157.557 1.039 1.25 2.021 2.115 2.885 4.137 4.137 10.963 4.379 13.881 4.272.812-.029 1.458-.675 1.487-1.487.107-2.918-.135-9.744-4.272-13.881z" fill="#648940"/></g></g><g><g><path d="m151.359 167.579c.812.03 1.458.676 1.487 1.487.107 2.918-.135 9.744-4.272 13.881s-10.963 4.379-13.881 4.272c-.812-.03-1.458-.676-1.487-1.487-.107-2.918.135-9.744 4.272-13.881s10.964-4.379 13.881-4.272z" fill="#76a34f"/></g></g><g><g><path d="m152.847 169.067c-.03-.812-.676-1.458-1.487-1.488-.899-.033-2.169-.032-3.617.104-.308 3.252-1.305 7.401-4.168 10.264s-7.012 3.86-10.264 4.168c-.137 1.448-.137 2.718-.104 3.617.03.812.676 1.458 1.488 1.487 2.917.107 9.743-.135 13.881-4.272s4.378-10.963 4.271-13.88z" fill="#648940"/></g></g></g><g><g><g><path d="m126.971 161.42c.588.526 1.47.526 2.057 0 2.789-2.497 10.287-10.041 10.287-18.958 0-8.918-7.498-16.461-10.287-18.958-.588-.526-1.47-.526-2.057 0-2.789 2.497-10.287 10.041-10.287 18.958s7.498 16.461 10.287 18.958z" fill="#76a34f"/></g></g><g><g><path d="m134.392 129.4c1.147 2.463 1.924 5.191 1.924 8.062 0 8.917-7.498 16.461-10.287 18.958-.588.526-1.47.526-2.057 0-1.224-1.097-3.357-3.166-5.364-5.896 2.416 5.189 6.472 9.203 8.364 10.896.588.526 1.47.526 2.057 0 2.789-2.497 10.287-10.041 10.287-18.958 0-5.003-2.36-9.572-4.924-13.062z" fill="#648940"/></g></g></g><g><g><g><path d="m160.51 141.457c.812.03 1.458.676 1.487 1.487.107 2.918-.135 9.744-4.272 13.881s-10.963 4.379-13.881 4.272c-.812-.03-1.458-.676-1.487-1.487-.107-2.918.135-9.744 4.272-13.881 4.138-4.137 10.964-4.379 13.881-4.272z" fill="#76a34f"/></g></g><g><g><path d="m161.998 142.944c-.03-.812-.676-1.458-1.488-1.487-.899-.033-2.169-.033-3.617.104-.308 3.252-1.305 7.401-4.168 10.264s-7.012 3.86-10.264 4.168c-.137 1.448-.137 2.718-.104 3.617.03.812.676 1.458 1.487 1.488 2.918.107 9.744-.135 13.881-4.272 4.138-4.138 4.38-10.964 4.273-13.882z" fill="#648940"/></g></g><g><g><path d="m95.49 141.457c-.812.03-1.458.676-1.487 1.487-.107 2.918.135 9.744 4.272 13.881s10.963 4.379 13.881 4.272c.812-.03 1.458-.676 1.487-1.487.107-2.918-.135-9.744-4.272-13.881-4.138-4.137-10.964-4.379-13.881-4.272z" fill="#76a34f"/></g></g><g><g><path d="m109.371 145.729c-.864-.864-1.846-1.558-2.885-2.115 2.108 3.934 2.242 8.688 2.157 10.996-.03.812-.676 1.458-1.488 1.488-2.308.084-7.062-.05-10.996-2.158.557 1.039 1.25 2.021 2.115 2.885 4.137 4.137 10.963 4.379 13.881 4.272.812-.03 1.458-.676 1.488-1.488.107-2.917-.135-9.742-4.272-13.88z" fill="#648940"/></g></g></g></g></g><g><g><g><g><path d="m226.61 198.955h-197.221c-6.431 0-11.645 5.214-11.645 11.645 0 6.431 5.214 11.645 11.645 11.645h197.221c6.431 0 11.645-5.213 11.645-11.645 0-6.431-5.213-11.645-11.645-11.645z" fill="#8c3f0a"/></g></g></g><g><g><path d="m231.951 200.26c.828 1.601 1.304 3.414 1.304 5.341 0 6.431-5.214 11.645-11.645 11.645h-197.221c-1.927 0-3.74-.476-5.341-1.304 1.937 3.742 5.836 6.304 10.341 6.304h197.221c6.431 0 11.645-5.214 11.645-11.645 0-4.505-2.562-8.404-6.304-10.341z" fill="#7c3108"/></g></g></g><g><g><g><path d="m161.625 117.208c-3.172 1.489-5.378 4.696-5.42 8.422-.057 5.056 4.085 9.378 9.139 9.525 5.331.155 9.701-4.121 9.701-9.416 0-3.772-2.218-7.026-5.42-8.531v-13.917c0-1.105.895-2 2-2h19.187l-2.142-8h-23.045c-2.209 0-4 1.791-4 4z" fill="#d1d3d4"/></g></g><g><g><path d="m131 35.476h-8v30.344c0 2.209 1.791 4 4 4h55.386l-2.142-8h-47.244c-1.105 0-2-.895-2-2z" fill="#d1d3d4"/></g></g><g><g><path d="m205.267 155.277-2.142-8h-25.231c-2.209 0-4 1.791-4 4v15.646c-3.172 1.49-5.377 4.696-5.42 8.422-.057 5.056 4.084 9.378 9.139 9.526 5.331.155 9.702-4.12 9.702-9.416 0-3.772-2.218-7.026-5.421-8.531v-9.646c0-1.105.895-2 2-2h21.373z" fill="#d1d3d4"/></g></g><g><g><path d="m83.365 169.736v-39.478c0-1.105.895-2 2-2h2.264c1.49 3.172 4.695 5.377 8.421 5.42 5.056.058 9.379-4.084 9.526-9.138.156-5.331-4.12-9.702-9.416-9.702-3.773 0-7.027 2.218-8.531 5.42h-8.264c-2.209 0-4 1.791-4 4v39.478c0 1.105-.895 2-2 2h-25.433l-2.142 8h33.575c2.209 0 4-1.791 4-4z" fill="#d1d3d4"/></g></g><g><g><path d="m73.957 68.538-2.142 8h27.495c1.105 0 2 .895 2 2v22.753h30.858c1.49 3.172 4.695 5.378 8.421 5.42 5.056.058 9.378-4.084 9.526-9.138.156-5.331-4.12-9.703-9.416-9.703-3.772 0-7.027 2.218-8.531 5.42h-22.858v-20.752c0-2.209-1.791-4-4-4z" fill="#d1d3d4"/></g></g></g><g><g><path d="m55.03 163.649c-.18 0-.35-.029-.52-.069-.52-.141-.95-.471-1.22-.931-.26-.47-.33-1-.19-1.52l27.93-104.319c.28-1.05 1.4-1.7 2.45-1.42 1.06.29 1.7 1.38 1.41 2.45l-27.93 104.32c-.24.88-1.03 1.489-1.93 1.489zm30-112.059c-.17 0-.34-.021-.52-.07-.51-.13-.95-.46-1.21-.92-.27-.47-.34-1.01-.2-1.52.28-1.051 1.4-1.7 2.45-1.42 1.06.29 1.7 1.38 1.41 2.449-.23.87-1.02 1.481-1.93 1.481z" fill="#fff"/></g></g></g></svg>