<svg id="Layer_1" enable-background="new 0 0 256 256" height="512" viewBox="0 0 256 256" width="512" xmlns="http://www.w3.org/2000/svg"><g><g><g><path d="m203.636 103.594c0-41.773-33.863-75.636-75.636-75.636s-75.636 33.863-75.636 75.636c-16.598 0-30.054 13.455-30.054 30.054v64.341c0 16.598 13.455 30.054 30.054 30.054h151.272c16.598 0 30.054-13.455 30.054-30.054v-64.341c0-16.598-13.456-30.054-30.054-30.054z" fill="#e63950"/></g></g><g><g><path d="m58.359 105.59c-1.1 0-2-.89-2-1.99 0-1.11.9-2 2-2 1.11 0 2 .89 2 2 0 1.1-.889 1.99-2 1.99zm.46-7.97c-.079 0-.149-.01-.229-.02-.53-.06-1.01-.32-1.34-.74s-.48-.94-.42-1.47c1.989-17.34 10.279-33.35 23.35-45.09 13.16-11.82 30.15-18.34 47.82-18.34 1.1 0 2 .9 2 2s-.9 2-2 2c-34.4 0-63.29 25.74-67.2 59.88-.111 1.01-.96 1.78-1.981 1.78z" fill="#e8566f"/></g></g><g><g><g><path d="m219.292 107.991c2.789 4.56 4.397 9.92 4.397 15.656v64.341c0 16.598-13.455 30.054-30.054 30.054h-151.271c-5.736 0-11.096-1.609-15.656-4.397 5.28 8.634 14.794 14.397 25.656 14.397h151.272c16.598 0 30.054-13.455 30.054-30.054v-64.341c0-10.861-5.763-20.375-14.398-25.656z" fill="#d10028"/></g></g></g><g><g><g><path d="m222.235 110.049c4.038 5.117 6.455 11.574 6.455 18.598v64.341c0 16.598-13.455 30.054-30.054 30.054h-151.272c-7.025 0-13.481-2.417-18.598-6.455 5.504 6.974 14.025 11.455 23.598 11.455h151.272c16.598 0 30.054-13.455 30.054-30.054v-64.341c0-9.573-4.482-18.094-11.455-23.598z" fill="#b7022d"/></g></g></g><g><g><g><g><path d="m104.08 129.083v77.782c0 3.535 4.097 5.492 6.847 3.271l15.164-12.248c1.541-1.245 3.743-1.245 5.284 0l15.164 12.248c2.75 2.221 6.847.264 6.847-3.271v-77.782z" fill="#f79219"/></g></g><g><g><path d="m148.387 129.083v72.782c0 3.535-4.097 5.492-6.847 3.271l-15.164-12.248c-1.541-1.245-3.743-1.245-5.284 0l-15.164 12.248c-.573.463-1.206.735-1.847.859v.87c0 3.535 4.097 5.492 6.847 3.271l15.164-12.248c1.542-1.245 3.743-1.245 5.284 0l15.164 12.248c2.75 2.221 6.847.264 6.847-3.271v-77.782z" fill="#ef7816"/></g></g><g><g><path d="m133.814 56.201c6.272-2.389 13.361-.086 17.03 5.533 1.915 2.932 4.841 5.058 8.221 5.973 6.478 1.753 10.859 7.784 10.525 14.487-.174 3.497.943 6.937 3.14 9.664 4.21 5.226 4.21 12.68 0 17.907-2.197 2.727-3.314 6.167-3.14 9.664.334 6.703-4.047 12.733-10.525 14.487-3.38.915-6.306 3.041-8.221 5.973-3.67 5.619-10.758 7.923-17.03 5.533-3.272-1.247-6.889-1.247-10.161 0-6.272 2.389-13.361.086-17.03-5.533-1.915-2.932-4.841-5.058-8.221-5.973-6.478-1.753-10.859-7.784-10.525-14.487.174-3.498-.943-6.937-3.14-9.664-4.21-5.226-4.21-12.68 0-17.907 2.197-2.727 3.314-6.167 3.14-9.664-.334-6.703 4.047-12.733 10.525-14.487 3.38-.915 6.306-3.041 8.221-5.973 3.67-5.619 10.758-7.923 17.03-5.533 3.272 1.246 6.889 1.246 10.161 0z" fill="#ffc91d"/></g></g><g><g><g><path d="m172.731 91.858c-2.197-2.727-3.314-6.167-3.14-9.664.269-5.389-2.514-10.339-6.981-12.985 1.392 2.347 2.125 5.103 1.981 7.985-.174 3.497.943 6.937 3.14 9.664 4.21 5.226 4.21 12.68 0 17.907-2.197 2.727-3.314 6.167-3.14 9.664.334 6.703-4.047 12.733-10.525 14.487-3.38.915-6.306 3.041-8.221 5.973-3.67 5.619-10.758 7.923-17.03 5.533-3.272-1.247-6.889-1.247-10.161 0-4.214 1.605-8.794 1.084-12.461-1.131.145.198.296.391.43.598 3.669 5.619 10.759 7.923 17.03 5.533 3.272-1.247 6.889-1.247 10.161 0 6.272 2.389 13.361.086 17.03-5.533 1.915-2.932 4.84-5.058 8.221-5.973 6.478-1.754 10.859-7.784 10.525-14.487-.174-3.498.943-6.937 3.14-9.664 4.211-5.227 4.211-12.681.001-17.907z" fill="#ffa91a"/></g></g></g></g><g><g><g><path d="m131.592 72.526 4.628 14.244c.402 1.238 1.556 2.077 2.859 2.077h14.977c2.912 0 4.122 3.726 1.767 5.437l-12.117 8.803c-1.053.765-1.494 2.122-1.092 3.36l4.628 14.244c.9 2.769-2.27 5.072-4.625 3.36l-12.117-8.803c-1.053-.765-2.48-.765-3.533 0l-12.117 8.803c-2.356 1.711-5.525-.591-4.625-3.36l4.628-14.244c.402-1.238-.038-2.595-1.092-3.36l-12.117-8.803c-2.356-1.711-1.145-5.437 1.767-5.437h14.977c1.302 0 2.456-.838 2.859-2.077l4.628-14.244c.9-2.769 4.818-2.769 5.717 0z" fill="#fff"/></g></g></g><g><g><g><path d="m154.056 88.847h-2.754c-.141.155-.296.304-.479.437l-12.117 8.803c-1.053.765-1.494 2.122-1.092 3.36l4.628 14.244c.9 2.769-2.27 5.072-4.625 3.36l-12.117-8.803c-1.053-.765-2.48-.765-3.533 0l-10.929 7.94-.813 2.503c-.9 2.769 2.27 5.072 4.625 3.36l12.117-8.803c1.053-.765 2.48-.765 3.533 0l12.117 8.803c2.356 1.711 5.525-.591 4.625-3.36l-4.628-14.244c-.402-1.238.038-2.595 1.092-3.36l12.117-8.803c2.356-1.711 1.145-5.437-1.767-5.437z" fill="#e6e7e8"/></g></g></g></g><g><g><g><g><g><g><path d="m70.595 154.797c0 12.141-10.224 21.983-10.224 21.983s-10.224-9.842-10.224-21.983c0-8.673 5.218-16.173 8.198-19.75 1.052-1.263 2.999-1.263 4.051 0 2.982 3.577 8.199 11.077 8.199 19.75z" fill="#ffc91d"/></g></g><g><g><path d="m62.397 135.047c-.524-.629-1.27-.944-2.017-.946 2.59 3.99 5.215 9.544 5.215 15.696 0 10.52-7.671 19.309-9.721 21.469 2.335 3.429 4.498 5.514 4.498 5.514s10.224-9.842 10.224-21.983c-.001-8.673-5.218-16.173-8.199-19.75z" fill="#ffa91a"/></g></g><g><g><g><path d="m52.197 158.779c7.772 7.005 8.174 18.001 8.174 18.001s-12.2-.362-19.972-7.367c-5.014-4.519-6.96-10.698-7.711-14.515-.352-1.791 1.172-3.403 2.977-3.134 4.19.625 11.347 2.342 16.532 7.015z" fill="#f79219"/></g></g><g><g><path d="m52.198 158.779c-.609-.548-1.246-1.053-1.901-1.523 4.787 6.663 5.075 14.524 5.075 14.524s-10.356-.312-18.065-5.841c.874 1.216 1.893 2.393 3.092 3.474 7.772 7.005 19.972 7.367 19.972 7.367s-.401-10.995-8.173-18.001z" fill="#ef7816"/></g></g><g><g><path d="m80.344 169.413c-7.772 7.005-19.972 7.367-19.972 7.367s.402-10.996 8.174-18.001c5.186-4.674 12.342-6.39 16.531-7.015 1.805-.269 3.329 1.343 2.977 3.134-.75 3.817-2.697 9.996-7.71 14.515z" fill="#f79219"/></g></g><g><g><path d="m85.077 151.764c-.768.115-1.637.267-2.573.466-1.024 3.712-3.072 8.499-7.16 12.183-4.236 3.818-9.782 5.66-13.957 6.548-.923 3.346-1.015 5.819-1.015 5.819s12.2-.362 19.972-7.367c5.014-4.519 6.96-10.698 7.711-14.515.351-1.791-1.173-3.403-2.978-3.134z" fill="#ef7816"/></g></g></g></g></g></g><g><g><g><g><g><path d="m205.852 154.797c0 12.141-10.224 21.983-10.224 21.983s-10.224-9.842-10.224-21.983c0-8.673 5.218-16.173 8.198-19.75 1.052-1.263 2.999-1.263 4.051 0 2.981 3.577 8.199 11.077 8.199 19.75z" fill="#ffc91d"/></g></g><g><g><path d="m197.654 135.047c-.524-.629-1.27-.944-2.017-.946 2.59 3.99 5.215 9.544 5.215 15.696 0 10.52-7.672 19.309-9.721 21.469 2.335 3.429 4.498 5.514 4.498 5.514s10.224-9.842 10.224-21.983c-.001-8.673-5.219-16.173-8.199-19.75z" fill="#ffa91a"/></g></g><g><g><g><path d="m187.454 158.779c7.772 7.005 8.174 18.001 8.174 18.001s-12.2-.362-19.972-7.367c-5.014-4.519-6.96-10.698-7.711-14.515-.352-1.791 1.172-3.403 2.977-3.134 4.19.625 11.347 2.342 16.532 7.015z" fill="#f79219"/></g></g><g><g><path d="m187.454 158.779c-.609-.548-1.246-1.053-1.901-1.523 4.787 6.663 5.075 14.524 5.075 14.524s-10.356-.312-18.065-5.841c.874 1.216 1.893 2.393 3.093 3.474 7.772 7.005 19.972 7.367 19.972 7.367s-.401-10.995-8.174-18.001z" fill="#ef7816"/></g></g><g><g><path d="m215.6 169.413c-7.772 7.005-19.972 7.367-19.972 7.367s.402-10.996 8.174-18.001c5.186-4.674 12.342-6.39 16.531-7.015 1.805-.269 3.329 1.343 2.977 3.134-.749 3.817-2.696 9.996-7.71 14.515z" fill="#f79219"/></g></g><g><g><path d="m220.334 151.764c-.768.115-1.637.267-2.573.466-1.024 3.712-3.072 8.499-7.16 12.183-4.236 3.818-9.783 5.66-13.957 6.548-.923 3.346-1.015 5.819-1.015 5.819s12.2-.362 19.972-7.367c5.014-4.519 6.96-10.698 7.711-14.515.351-1.791-1.173-3.403-2.978-3.134z" fill="#ef7816"/></g></g></g></g></g></g></g><g><g><g><path d="m127.113 161.264c-1.778 3.868-4.9 6.99-8.768 8.768-1.392.64-1.392 2.601 0 3.241 3.868 1.778 6.99 4.9 8.768 8.768.64 1.392 2.601 1.392 3.241 0 1.778-3.868 4.9-6.99 8.768-8.768 1.392-.64 1.392-2.601 0-3.241-3.868-1.778-6.99-4.9-8.768-8.768-.64-1.392-2.601-1.392-3.241 0z" fill="#f1f2f2"/></g></g></g><g><g><g><path d="m139.122 170.033c-1.502-.69-2.887-1.588-4.129-2.649-.165.368-.445.693-.871.89-3.868 1.778-6.99 4.9-8.768 8.768-.196.426-.522.706-.889.871 1.061 1.242 1.958 2.627 2.649 4.129.64 1.392 2.601 1.392 3.241 0 1.778-3.868 4.9-6.99 8.768-8.768 1.392-.641 1.392-2.601-.001-3.241z" fill="#d1d3d4"/></g></g></g><g><g><g><path d="m194.008 189.257c-1.778 3.868-4.9 6.99-8.768 8.768-1.392.64-1.392 2.601 0 3.241 3.868 1.778 6.99 4.9 8.768 8.768.64 1.392 2.601 1.392 3.241 0 1.778-3.868 4.9-6.99 8.768-8.768 1.392-.64 1.392-2.601 0-3.241-3.868-1.778-6.99-4.9-8.768-8.768-.64-1.392-2.601-1.392-3.241 0z" fill="#f1f2f2"/></g></g></g><g><g><g><path d="m206.017 198.026c-1.502-.69-2.887-1.588-4.129-2.649-.165.368-.445.693-.871.89-3.868 1.778-6.99 4.9-8.768 8.768-.196.426-.522.706-.89.871 1.061 1.242 1.958 2.627 2.649 4.129.64 1.392 2.601 1.392 3.241 0 1.778-3.868 4.9-6.99 8.768-8.768 1.392-.641 1.392-2.601 0-3.241z" fill="#d1d3d4"/></g></g></g><g><g><g><path d="m58.751 189.257c-1.778 3.868-4.9 6.99-8.768 8.768-1.392.64-1.392 2.601 0 3.241 3.868 1.778 6.99 4.9 8.768 8.768.64 1.392 2.601 1.392 3.241 0 1.778-3.868 4.9-6.99 8.768-8.768 1.392-.64 1.392-2.601 0-3.241-3.868-1.778-6.99-4.9-8.768-8.768-.64-1.392-2.601-1.392-3.241 0z" fill="#f1f2f2"/></g></g></g><g><g><g><path d="m70.76 198.026c-1.502-.69-2.887-1.588-4.129-2.649-.165.368-.445.693-.871.89-3.868 1.778-6.99 4.9-8.768 8.768-.196.426-.522.706-.889.871 1.061 1.242 1.958 2.627 2.649 4.129.64 1.392 2.601 1.392 3.241 0 1.778-3.868 4.9-6.99 8.768-8.768 1.392-.641 1.392-2.601-.001-3.241z" fill="#d1d3d4"/></g></g></g></g></svg>