<svg id="Layer_1" enable-background="new 0 0 256 256" height="512" viewBox="0 0 256 256" width="512" xmlns="http://www.w3.org/2000/svg"><g><g><g><g><g><g><ellipse cx="158.62" cy="152.001" fill="#ffa91a" rx="61.239" ry="79.577"/></g></g></g></g></g><g><g><path d="m190.739 84.236c11.775 14.502 19.12 35.02 19.12 57.766 0 43.949-27.418 79.577-61.239 79.577-11.779 0-22.781-4.322-32.119-11.811 10.976 13.518 25.802 21.811 42.119 21.811 33.821 0 61.239-35.628 61.239-79.577 0-28.643-11.646-53.751-29.12-67.766z" fill="#f79219"/></g></g><g><g><path d="m193.387 86.484c13.142 14.595 21.472 36.292 21.472 60.518 0 43.949-27.418 79.577-61.239 79.577-12.912 0-24.891-5.193-34.767-14.059 10.7 11.883 24.588 19.059 39.767 19.059 33.821 0 61.239-35.628 61.239-79.577 0-27.171-10.479-51.161-26.472-65.518z" fill="#ef7816"/></g></g><g><g><g><g><g><ellipse cx="97.38" cy="152.001" fill="#ffa91a" rx="61.239" ry="79.577"/></g></g></g></g></g><g><g><path d="m58.1 205.68c-.64 0-1.24-.31-1.61-.81-.32-.431-.45-.96-.37-1.49.07-.53.35-.99.78-1.311.86-.64 2.17-.439 2.8.41.66.891.47 2.15-.41 2.801-.35.26-.76.4-1.19.4zm-4.4-6.69c-.71 0-1.37-.381-1.73-.99-3.76-6.47-6.69-13.641-8.7-21.311-2.08-7.93-3.13-16.229-3.13-24.689.01-14.681 3.2-28.9 9.22-41.141 5.91-11.979 14.23-21.5 24.07-27.51.92-.56 2.19-.25 2.75.66.57.95.27 2.18-.67 2.75-19.07 11.591-31.39 37.201-31.37 65.241 0 16.09 3.9 31.3 11.29 43.99.27.46.34 1 .21 1.51-.14.52-.47.95-.93 1.22-.31.179-.66.27-1.01.27z" fill="#ffc91d"/></g></g><g><g><path d="m129.5 84.236c11.775 14.502 19.12 35.02 19.12 57.766 0 43.949-27.418 79.577-61.239 79.577-11.779 0-22.781-4.322-32.119-11.811 10.976 13.518 25.802 21.811 42.119 21.811 33.821 0 61.239-35.628 61.239-79.577 0-28.643-11.646-53.751-29.12-67.766z" fill="#f79219"/></g></g><g><g><g><g><g><ellipse cx="110.567" cy="152.001" fill="#f79219" rx="48.053" ry="79.577"/></g></g></g></g></g><g><g><path d="m130.191 79.342c11.219 14.567 18.428 37.219 18.428 62.659 0 43.949-21.514 79.577-48.053 79.577-6.991 0-13.633-2.472-19.624-6.917 8.163 10.598 18.448 16.917 29.624 16.917 26.539 0 48.053-35.628 48.053-79.577.001-32.372-11.672-60.229-28.428-72.659z" fill="#ef7816"/></g></g><g><g><g><g><g><ellipse cx="145.433" cy="152.001" fill="#f79219" rx="48.053" ry="79.577"/></g></g></g></g></g><g><g><path d="m165.057 79.342c11.219 14.567 18.428 37.219 18.428 62.659 0 43.949-21.514 79.577-48.053 79.577-6.991 0-13.632-2.472-19.624-6.917 8.162 10.598 18.448 16.917 29.624 16.917 26.539 0 48.053-35.628 48.053-79.577.001-32.372-11.672-60.229-28.428-72.659z" fill="#ef7816"/></g></g><g><g><g><g><g><path d="m166.752 34.185c-18.104-17.44-34.312-9.816-41.471 9.466-9.518-5.309-16.438 8.052-6.676 12.359.024.008.048.017.071.025 1.992.706 3.303 2.648 3.246 4.76-.329 12.096 4.565 31.573 4.565 31.573l10.445-4.54c-.028-.084-2.766-22.278.2-35.031 1.735-7.46 5.255-13.156 8.758-14.174 3.66-1.062 8.506 3.005 11.07 5.525 6.813 6.254 16.164-3.256 9.792-9.963z" fill="#76a34f"/></g></g></g></g></g><g><g><g><path d="m166.752 34.185c-1.247-1.201-2.484-2.283-3.71-3.25 3.519 6.452-4.844 13.938-11.082 8.213-2.564-2.52-7.41-6.586-11.07-5.525-3.503 1.018-7.023 6.714-8.758 14.174-2.966 12.753-.228 34.947-.2 35.031l-6.92 3.008c.817 3.913 1.475 6.532 1.475 6.532l10.445-4.54c-.028-.084-2.766-22.278.2-35.031 1.735-7.46 5.255-13.156 8.758-14.174 3.66-1.062 8.506 3.005 11.07 5.525 6.813 6.254 16.164-3.256 9.792-9.963z" fill="#648940"/></g></g></g><g><g><g><g><g><ellipse cx="128" cy="152.001" fill="#ffa91a" rx="31.086" ry="79.577"/></g></g></g></g></g><g><g><path d="m134.139 73.977c8.962 13.963 14.947 39.205 14.947 68.025 0 43.949-13.918 79.577-31.086 79.577-2.102 0-4.155-.534-6.14-1.552 4.705 7.33 10.229 11.552 16.14 11.552 17.169 0 31.086-35.628 31.086-79.577 0-38.569-10.718-70.729-24.947-78.025z" fill="#ef7816"/></g></g></g></svg>