<svg id="Layer_1" enable-background="new 0 0 256 256" height="512" viewBox="0 0 256 256" width="512" xmlns="http://www.w3.org/2000/svg"><g><g><g><g><path d="m61.365 70.252h16.521v58.306h-16.521z" fill="#8c3f0a"/></g></g><g><g><path d="m67.359 118.74c-1.1 0-1.989-.9-1.989-2s.89-2 1.989-2c1.11 0 2 .9 2 2s-.889 2-2 2zm0-8c-1.1 0-1.989-.9-1.989-2v-31c0-1.1.89-2 1.989-2 1.11 0 2 .9 2 2v31c0 1.1-.889 2-2 2z" fill="#995222"/></g></g><g><g><path d="m72.43 70.252v52.85h-11.065v5.456h16.521v-58.306z" fill="#7c3108"/></g></g><g><g><path d="m82.667 150.217h-26.083v-17.557c0-2.411 1.954-4.365 4.365-4.365h17.353c2.411 0 4.365 1.954 4.365 4.365z" fill="#58595b"/></g></g><g><g><path d="m92.358 203.189-16.123 18.688c-3.482 4.036-9.737 4.036-13.22 0l-16.123-18.688c-1.709-1.981-2.65-4.511-2.65-7.128v-43.662c0-1.205.977-2.182 2.182-2.182h46.401c1.205 0 2.182.977 2.182 2.182v43.662c.001 2.617-.939 5.147-2.649 7.128z" fill="#808285"/></g></g><g><g><path d="m46.425 150.217c-1.205 0-2.182.977-2.182 2.182v43.662c0 2.617.94 5.147 2.65 7.128l16.123 18.688c1.741 2.018 4.175 3.027 6.61 3.027v-74.688h-23.201z" fill="#939598"/></g></g><path d="m92.826 150.217h-7.818v35.844c0 2.617-.94 5.147-2.65 7.128l-16.123 18.688c-2.499 2.896-6.425 3.714-9.73 2.454l6.51 7.546c3.482 4.036 9.737 4.036 13.22 0l16.123-18.688c1.709-1.981 2.65-4.511 2.65-7.128v-43.662c0-1.205-.977-2.182-2.182-2.182z" fill="#58595b"/><g><g><path d="m92.826 150.217h-3.274v40.388c0 2.617-.94 5.147-2.65 7.128l-16.123 18.688c-2.765 3.205-7.277 3.864-10.762 1.981l2.999 3.476c3.482 4.036 9.737 4.036 13.22 0l16.123-18.688c1.709-1.982 2.65-4.511 2.65-7.128v-43.662c-.001-1.206-.978-2.183-2.183-2.183z" fill="#414042"/></g></g><g><g><path d="m44.242 48.555v6.42c0 8.437 6.84 15.277 15.277 15.277h20.212c8.437 0 15.277-6.84 15.277-15.277v-6.42c0-8.437-6.84-15.277-15.277-15.277h-20.211c-8.438 0-15.278 6.84-15.278 15.277zm34.278 11.414h-17.789c-2.411 0-4.365-1.954-4.365-4.365v-7.678c0-2.411 1.954-4.365 4.365-4.365h17.789c2.411 0 4.365 1.954 4.365 4.365v7.678c0 2.411-1.954 4.365-4.365 4.365z" fill="#808285"/></g></g><g><g><g><path d="m87.457 35.373c1.331 2.267 2.095 4.907 2.095 7.726v6.42c0 8.437-6.84 15.277-15.277 15.277h-20.212c-2.819 0-5.459-.764-7.726-2.095 2.654 4.518 7.564 7.551 13.182 7.551h20.212c8.437 0 15.277-6.84 15.277-15.277v-6.42c0-5.619-3.033-10.528-7.551-13.182z" fill="#58595b"/></g></g></g></g><g><g><path d="m69.625 189.212c-1.944 0-3.52-1.576-3.52-3.52v-35.475h7.041v35.475c0 1.944-1.576 3.52-3.521 3.52z" fill="#58595b"/></g></g><g><g><g><path d="m118.015 224.905c-2.336 0-4.23-1.894-4.23-4.23v-30.398h8.459v30.398c.001 2.336-1.893 4.23-4.229 4.23z" fill="#939598"/></g></g><g><g><path d="m120.062 190.276v28.216c0 2.336-1.894 4.23-4.23 4.23-.602 0-1.175-.126-1.694-.353.653 1.493 2.143 2.536 3.876 2.536 2.336 0 4.23-1.894 4.23-4.23v-30.398h-2.182z" fill="#808285"/></g></g><g><g><g><g><path d="m154.511 70.252h16.521v84.405h-16.521z" fill="#8c3f0a"/></g></g><g><g><path d="m165.576 70.252v78.949h-11.065v5.456h16.521v-84.405z" fill="#7c3108"/></g></g><g><g><path d="m175.813 176.316h-26.083v-17.557c0-2.411 1.954-4.365 4.365-4.365h17.353c2.411 0 4.365 1.954 4.365 4.365z" fill="#58595b"/></g></g><g><g><path d="m171.448 154.394h-1.091v16.466h-20.627v5.456h26.083v-17.557c0-2.411-1.954-4.365-4.365-4.365z" fill="#414042"/></g></g><g><g><path d="m171.448 70.252h-17.353c-2.411 0-4.365-1.954-4.365-4.365v-30.427c0-2.411 1.954-4.365 4.365-4.365h17.353c2.411 0 4.365 1.954 4.365 4.365v30.427c0 2.411-1.954 4.365-4.365 4.365z" fill="#808285"/></g></g><g><g><path d="m171.448 31.095h-1.091v29.335c0 2.411-1.954 4.365-4.365 4.365h-16.262v1.091c0 2.411 1.954 4.365 4.365 4.365h17.353c2.411 0 4.365-1.954 4.365-4.365v-30.426c0-2.41-1.954-4.365-4.365-4.365z" fill="#58595b"/></g></g></g><g><g><path d="m211.758 190.276h-97.972v-5.231c0-4.821 3.908-8.73 8.73-8.73h80.513c4.821 0 8.73 3.908 8.73 8.73v5.231z" fill="#939598"/></g></g><g><g><path d="m205.839 176.778c.3.882.463 1.828.463 2.811v5.231h-92.513c-.002.075-.003.15-.003.225v5.231h97.972v-5.231c0-3.837-2.477-7.097-5.919-8.267z" fill="#58595b"/></g></g><g><g><path d="m140.393 224.905c-2.336 0-4.23-1.894-4.23-4.23v-30.398h8.459v30.398c.001 2.336-1.893 4.23-4.229 4.23z" fill="#939598"/></g></g><g><g><path d="m142.441 190.276v28.216c0 2.336-1.894 4.23-4.23 4.23-.602 0-1.175-.126-1.694-.353.653 1.493 2.143 2.536 3.876 2.536 2.336 0 4.23-1.894 4.23-4.23v-30.398h-2.182z" fill="#808285"/></g></g><g><g><path d="m162.771 224.905c-2.336 0-4.23-1.894-4.23-4.23v-30.398h8.459v30.398c.001 2.336-1.893 4.23-4.229 4.23z" fill="#939598"/></g></g><g><g><path d="m164.819 190.276v28.216c0 2.336-1.894 4.23-4.23 4.23-.602 0-1.175-.126-1.694-.353.653 1.493 2.143 2.536 3.876 2.536 2.336 0 4.23-1.894 4.23-4.23v-30.398h-2.182z" fill="#808285"/></g></g><g><g><path d="m185.15 224.905c-2.336 0-4.23-1.894-4.23-4.23v-30.398h8.459v30.398c0 2.336-1.893 4.23-4.229 4.23z" fill="#939598"/></g></g><g><g><path d="m187.197 190.276v28.216c0 2.336-1.894 4.23-4.23 4.23-.602 0-1.175-.126-1.694-.353.653 1.493 2.143 2.536 3.876 2.536 2.336 0 4.23-1.894 4.23-4.23v-30.398h-2.182z" fill="#808285"/></g></g><g><g><path d="m207.528 224.905c-2.336 0-4.23-1.894-4.23-4.23v-30.398h8.46v30.398c0 2.336-1.894 4.23-4.23 4.23z" fill="#939598"/></g></g><g><g><path d="m209.575 190.276v28.216c0 2.336-1.894 4.23-4.23 4.23-.602 0-1.175-.126-1.694-.353.653 1.493 2.143 2.536 3.877 2.536 2.336 0 4.23-1.894 4.23-4.23v-30.398h-2.183z" fill="#808285"/></g></g></g></g></g></svg>