<svg id="Layer_1" enable-background="new 0 0 256 256" height="512" viewBox="0 0 256 256" width="512" xmlns="http://www.w3.org/2000/svg"><g><g><g><g><g><g><g><path d="m231.103 197.238h-206.206v-148.534c0-4.338 3.517-7.855 7.855-7.855h190.497c4.338 0 7.855 3.517 7.855 7.855v148.534z" fill="#d1d3d4"/></g></g><g><g><path d="m217.422 192.175h-178.844c-1.826 0-3.307-1.481-3.307-3.307v-134.648c0-1.826 1.48-3.307 3.307-3.307h178.845c1.826 0 3.307 1.481 3.307 3.307v134.647c-.001 1.827-1.481 3.308-3.308 3.308z" fill="#76a34f"/></g></g><g><g><path d="m41.27 149.66c-1.1 0-2-.9-2-2 0-1.11.9-2 2-2s2 .89 2 2c0 1.1-.9 2-2 2zm0-8.011c-1.1 0-2-.89-2-1.989v-66.37c0-1.101.9-2 2-2s2 .899 2 2v66.37c0 1.1-.9 1.989-2 1.989z" fill="#91b56b"/></g></g><g><g><path d="m217.422 50.913h-178.844c-1.826 0-3.307 1.481-3.307 3.307v6.693h172.151c1.826 0 3.307 1.481 3.307 3.307v127.954h6.693c1.826 0 3.307-1.481 3.307-3.307v-134.647c0-1.826-1.48-3.307-3.307-3.307z" fill="#648940"/></g></g><g><g><path d="m217.422 50.913h-178.844c-1.826 0-3.307 1.481-3.307 3.307v1.693h177.151c1.826 0 3.307 1.481 3.307 3.307v132.954h1.693c1.826 0 3.307-1.481 3.307-3.307v-134.647c0-1.826-1.48-3.307-3.307-3.307z" fill="#5a7a39"/></g></g><g><g><path d="m237.677 215.15h-219.354c-4.946 0-8.956-4.01-8.956-8.956 0-4.946 4.01-8.956 8.956-8.956h219.353c4.946 0 8.956 4.01 8.956 8.956.001 4.947-4.009 8.956-8.955 8.956z" fill="#e6e7e8"/></g></g><g><g><path d="m240.992 197.879c.409 1.026.641 2.143.641 3.315 0 4.946-4.01 8.956-8.956 8.956h-219.354c-1.172 0-2.289-.232-3.315-.641 1.318 3.304 4.541 5.641 8.315 5.641h219.354c4.946 0 8.956-4.01 8.956-8.956 0-3.774-2.338-6.996-5.641-8.315z" fill="#d1d3d4"/></g></g></g></g></g><g><g><g><path d="m163.289 102.887v73.844c0 2.166 1.756 3.922 3.922 3.922h9.955c2.166 0 3.922-1.756 3.922-3.922v-73.844z" fill="#fff"/></g></g><g><g><path d="m176.088 102.887v68.844c0 2.166-1.756 3.922-3.922 3.922h-8.877v1.078c0 2.166 1.756 3.922 3.922 3.922h9.955c2.166 0 3.922-1.756 3.922-3.922v-73.844z" fill="#e6e7e8"/></g></g><g><g><path d="m78.432 140.431h-9.955c-2.166 0-3.922 1.756-3.922 3.922v32.379c0 2.166 1.756 3.922 3.922 3.922h9.955c2.166 0 3.922-1.756 3.922-3.922v-32.379c0-2.166-1.756-3.922-3.922-3.922z" fill="#fff"/></g></g><g><g><path d="m78.432 140.431h-1.078v31.301c0 2.166-1.756 3.922-3.922 3.922h-8.877v1.078c0 2.166 1.756 3.922 3.922 3.922h9.955c2.166 0 3.922-1.756 3.922-3.922v-32.379c0-2.166-1.756-3.922-3.922-3.922z" fill="#e6e7e8"/></g></g><g><g><path d="m111.343 131.053h-9.955c-2.166 0-3.922 1.756-3.922 3.922v41.756c0 2.166 1.756 3.922 3.922 3.922h9.955c2.166 0 3.922-1.756 3.922-3.922v-41.756c.001-2.166-1.755-3.922-3.922-3.922z" fill="#fff"/></g></g><g><g><path d="m111.343 131.053h-1.078v40.678c0 2.166-1.756 3.922-3.922 3.922h-8.877v1.078c0 2.166 1.756 3.922 3.922 3.922h9.955c2.166 0 3.922-1.756 3.922-3.922v-41.756c.001-2.166-1.755-3.922-3.922-3.922z" fill="#e6e7e8"/></g></g><g><g><path d="m144.255 117.179h-9.955c-2.166 0-3.922 1.756-3.922 3.922v55.63c0 2.166 1.756 3.922 3.922 3.922h9.955c2.166 0 3.922-1.756 3.922-3.922v-55.63c0-2.165-1.756-3.922-3.922-3.922z" fill="#fff"/></g></g><g><g><path d="m144.255 117.179h-1.078v54.552c0 2.166-1.756 3.922-3.922 3.922h-8.878v1.078c0 2.166 1.756 3.922 3.922 3.922h9.955c2.166 0 3.922-1.756 3.922-3.922v-55.63c.001-2.165-1.755-3.922-3.921-3.922z" fill="#e6e7e8"/></g></g><g><g><path d="m188.986 102.887h-33.595c-2.017 0-3.173-2.298-1.971-3.918l16.798-22.632c.982-1.322 2.961-1.322 3.942 0l16.798 22.632c1.202 1.62.045 3.918-1.972 3.918z" fill="#fff"/></g></g><g><g><path d="m190.958 98.969-16.798-22.631c-.502-.676-1.264-1.001-2.021-.986l13.819 18.618c1.202 1.62.046 3.918-1.971 3.918h-29.763l-.803 1.082c-1.202 1.62-.046 3.918 1.971 3.918h33.595c2.016-.001 3.173-2.299 1.971-3.919z" fill="#e6e7e8"/></g></g></g><g><g><g><circle cx="128" cy="46.045" fill="#ffc91d" r="32.604"/></g></g><g><g><path d="m148.414 20.631c4.494 5.588 7.19 12.685 7.19 20.414 0 18.007-14.597 32.604-32.604 32.604-7.729 0-14.826-2.695-20.414-7.19 5.976 7.43 15.137 12.19 25.414 12.19 18.007 0 32.604-14.597 32.604-32.604 0-10.277-4.76-19.438-12.19-25.414z" fill="#ffa91a"/></g></g></g></g><g><g><g><path d="m128 66.497c-1.104 0-2-.896-2-2s.896-2 2-2c10.203 0 18.504-8.301 18.504-18.504s-8.301-18.504-18.504-18.504-18.504 8.301-18.504 18.504c0 6.003 2.932 11.658 7.843 15.127.902.638 1.117 1.886.48 2.788-.637.9-1.884 1.115-2.788.479-5.971-4.218-9.536-11.094-9.536-18.395 0-12.409 10.095-22.504 22.504-22.504s22.504 10.095 22.504 22.504-10.094 22.505-22.503 22.505z" fill="#76a34f"/></g></g><g><g><path d="m118.467 52.464c-.641 0-1.27-.307-1.657-.877-.621-.914-.382-2.157.532-2.778l8.658-5.875v-9.85c0-1.104.896-2 2-2s2 .896 2 2v10.909c0 .663-.328 1.282-.877 1.655l-9.535 6.471c-.343.234-.734.345-1.121.345z" fill="#76a34f"/></g></g><g><g><path d="m129.638 71.004-7.99-6.124c-.699-.536-.699-1.59 0-2.126l7.99-6.124c.881-.675 2.154-.047 2.154 1.063v12.249c0 1.109-1.273 1.737-2.154 1.062z" fill="#76a34f"/></g></g><g><g><path d="m129.792 56.527v11.414c0 1.11-1.273 1.738-2.154 1.063l-6.499-4.981c.05.325.219.635.508.857l7.99 6.124c.881.675 2.154.047 2.154-1.063v-12.249c.001-1.046-1.132-1.664-1.999-1.165z" fill="#648940"/></g></g></g></g></svg>