<svg id="Layer_1" enable-background="new 0 0 256 256" height="512" viewBox="0 0 256 256" width="512" xmlns="http://www.w3.org/2000/svg"><g><g><g><g><g><g><g><g><path d="m191.871 192.144 14.513-14.513c.281-.281.587-.523.904-.739l-10.659-10.659c-4.649 6.072-10.084 11.507-16.156 16.156l10.659 10.659c.216-.317.458-.622.739-.904z" fill="#939598"/></g></g><g><g><path d="m216.913 225.948-25.042-25.042c-2.42-2.42-2.42-6.343 0-8.762l14.513-14.513c2.42-2.42 6.343-2.42 8.762 0l25.042 25.042c2.419 2.42 2.419 6.343 0 8.762l-14.513 14.513c-2.419 2.42-6.342 2.42-8.762 0z" fill="#8c3f0a"/></g></g><g><g><path d="m235.796 215.828c-2.42 2.42-6.343 2.42-8.762 0l-25.042-25.042c-2.42-2.42-2.42-6.343 0-8.762l4.401-4.401c-.003.003-.005.005-.008.008l-14.513 14.513c-2.42 2.42-2.42 6.343 0 8.763l25.042 25.042c2.42 2.42 6.343 2.42 8.762 0l14.513-14.513.006-.006z" fill="#7c3108"/></g></g><g><g><path d="m189.023 174.907c-2.681 2.675-5.536 5.176-8.549 7.482l10.659 10.659c.216-.317.457-.623.739-.904l7.194-7.194z" fill="#808285"/></g></g></g><g><g><g><path d="m128.034 27.438c-47.693 0-86.356 38.663-86.356 86.356s38.663 86.356 86.356 86.356 86.356-38.663 86.356-86.356-38.662-86.356-86.356-86.356zm0 151.502c-35.979 0-65.145-29.167-65.145-65.145s29.167-65.146 65.145-65.146 65.145 29.167 65.145 65.146-29.166 65.145-65.145 65.145z" fill="#939598"/></g></g><g><g><path d="m128.034 41.115c-40.14 0-72.679 32.54-72.679 72.679s32.54 72.679 72.679 72.679 72.679-32.54 72.679-72.679-32.539-72.679-72.679-72.679zm0 137.825c-35.979 0-65.145-29.167-65.145-65.145s29.167-65.146 65.145-65.146 65.145 29.167 65.145 65.146-29.166 65.145-65.145 65.145z" fill="#808285"/></g></g></g></g></g><g><g><circle cx="128.022" cy="113.795" fill="#f1f2f2" r="65.146"/></g></g><g><g><path d="m168.806 63.01c8.978 11.165 14.362 25.342 14.362 40.784 0 35.979-29.167 65.146-65.146 65.146-15.442 0-29.619-5.384-40.784-14.362 11.94 14.849 30.247 24.362 50.784 24.362 35.979 0 65.146-29.167 65.146-65.146 0-20.537-9.513-38.843-24.362-50.784z" fill="#e6e7e8"/></g></g><g><g><path d="m171.513 65.303c10.351 11.533 16.654 26.774 16.654 43.492 0 35.979-29.167 65.146-65.146 65.146-16.717 0-31.958-6.303-43.491-16.654 11.927 13.289 29.23 21.654 48.491 21.654 35.979 0 65.146-29.167 65.146-65.146.001-19.262-8.365-36.565-21.654-48.492z" fill="#d1d3d4"/></g></g></g><g><g><g><circle cx="128" cy="203.988" fill="#ffc91d" r="27.915"/></g></g><g><g><path d="m147.739 184.249c-.847-.847-1.74-1.621-2.663-2.337 8.491 10.95 7.717 26.761-2.337 36.815s-25.865 10.828-36.815 2.337c.716.923 1.489 1.816 2.337 2.663 10.902 10.901 28.576 10.901 39.478 0s10.902-28.576 0-39.478z" fill="#ffa91a"/></g></g><g><g><g><path d="m124.977 218.782c-1.252 0-2.504-.478-3.46-1.433l-9.634-9.634c-1.91-1.911-1.91-5.008 0-6.919 1.911-1.91 5.008-1.91 6.919 0l6.175 6.176 12.254-12.255c1.911-1.91 5.008-1.91 6.919 0 1.91 1.911 1.91 5.008 0 6.919l-15.714 15.714c-.955.955-2.207 1.432-3.459 1.432z" fill="#76a34f"/></g></g></g><g><g><g><path d="m144.15 194.717c-.35-.35-.749-.613-1.164-.835.988 1.851.724 4.194-.836 5.754l-15.714 15.714c-.955.955-2.207 1.433-3.459 1.433s-2.504-.478-3.459-1.433l2 2c.955.955 2.207 1.433 3.459 1.433s2.504-.478 3.459-1.433l15.714-15.714c1.91-1.911 1.91-5.008 0-6.919z" fill="#648940"/></g></g></g></g><g><g><path d="m68.88 115.79c-1.11 0-2-.891-2-2v-.011c.01-1.1.9-1.979 2-1.979s2 .89 2 1.99c0 1.109-.9 2-2 2zm.53-7.971c-.09 0-.18 0-.27-.02-1.09-.15-1.86-1.15-1.71-2.25 1.4-10.34 5.49-20.23 11.81-28.59 6.22-8.22 14.47-14.79 23.84-18.99.98-.44 2.21.03 2.64 1.01.46 1 .01 2.181-1 2.641-17.93 8.04-30.7 25.08-33.32 44.47-.14.99-.99 1.729-1.99 1.729z" fill="#fff"/></g></g></g><g><g><g><path d="m128.035 153.953c-2.209 0-4-1.791-4-4s1.791-4 4-4c20.047 0 36.356-16.31 36.356-36.356 0-20.048-16.31-36.357-36.356-36.357-20.047 0-36.357 16.31-36.357 36.357 0 11.795 5.761 22.905 15.411 29.72 1.804 1.274 2.234 3.771.96 5.575-1.274 1.806-3.771 2.235-5.575.96-11.77-8.312-18.796-21.865-18.796-36.255 0-24.459 19.898-44.357 44.357-44.357 24.458 0 44.356 19.898 44.356 44.357 0 24.458-19.898 44.356-44.356 44.356z" fill="#76a34f"/></g></g><g><g><path d="m109.271 126.332c-1.281 0-2.54-.614-3.313-1.754-1.24-1.828-.764-4.315 1.064-5.556l17.013-11.545v-19.354c0-2.209 1.791-4 4-4s4 1.791 4 4v21.474c0 1.326-.657 2.565-1.754 3.31l-18.767 12.735c-.688.466-1.469.69-2.243.69z" fill="#76a34f"/></g></g><g><g><path d="m131.258 162.76-15.727-12.054c-1.376-1.055-1.376-3.129 0-4.184l15.727-12.054c1.734-1.329 4.239-.093 4.239 2.092v24.109c0 2.184-2.505 3.42-4.239 2.091z" fill="#76a34f"/></g></g><g><g><path d="m131.258 134.468-.761.583v20.617c0 2.185-2.505 3.421-4.239 2.092l-11.756-9.01c.038.736.38 1.459 1.029 1.956l15.727 12.054c1.734 1.329 4.239.093 4.239-2.092v-24.108c0-2.185-2.505-3.421-4.239-2.092z" fill="#648940"/></g></g></g></g></svg>