<svg id="Layer_1" enable-background="new 0 0 256 256" height="512" viewBox="0 0 256 256" width="512" xmlns="http://www.w3.org/2000/svg"><g><g><g><g><g><g><path d="m93.298 136.073h-37.962c-4.116 0-7.453 3.337-7.453 7.453v55.43h52.868v-55.43c0-4.116-3.337-7.453-7.453-7.453z" fill="#808285"/></g></g></g><g><g><path d="m93.298 136.073h-2.547v52.882h-42.868v10h52.868v-55.43c0-4.115-3.337-7.452-7.453-7.452z" fill="#58595b"/></g></g><g><g><path d="m95.436 136.388c.203.678.315 1.394.315 2.138v55.43h-47.868v5h52.868v-55.43c0-3.373-2.242-6.219-5.315-7.138z" fill="#414042"/></g></g><g><g><path d="m59.063 48.412c0-8.095 6.562-14.657 14.657-14.657h84.419c8.095 0 14.657 6.562 14.657 14.657 0 8.095-6.562 14.657-14.657 14.657h-84.419c-8.095-.001-14.657-6.563-14.657-14.657z" fill="#939598"/></g></g><g><g><path d="m162.211 34.34c.374 1.294.585 2.657.585 4.072 0 8.095-6.562 14.657-14.657 14.657h-84.419c-1.414 0-2.778-.211-4.072-.585 1.766 6.112 7.391 10.585 14.072 10.585h84.419c8.095 0 14.657-6.562 14.657-14.657 0-6.681-4.474-12.306-10.585-14.072z" fill="#808285"/></g></g><g><g><path d="m147.81 38.048c5.724-5.724 15.004-5.724 20.728 0l40.553 40.552c5.724 5.724 5.724 15.004 0 20.728-5.724 5.724-15.004 5.724-20.728 0l-40.553-40.552c-5.724-5.724-5.724-15.004 0-20.728z" fill="#e6e7e8"/></g></g><g><g><path d="m209.091 78.6-10-10c5.724 5.724 5.724 15.004 0 20.728-5.724 5.724-15.004 5.724-20.728 0l10 10c5.724 5.724 15.004 5.724 20.728 0 5.723-5.724 5.723-15.004 0-20.728z" fill="#d1d3d4"/></g></g><g><g><path d="m73.72 33.755c8.095 0 14.657 6.562 14.657 14.657v87.661h-29.314v-87.661c0-8.095 6.562-14.657 14.657-14.657z" fill="#e6e7e8"/></g></g><g><g><path d="m77.791 34.34c.374 1.294.585 2.657.585 4.072v87.661h-19.313v10h29.314v-87.661c0-6.681-4.474-12.306-10.586-14.072z" fill="#d1d3d4"/></g></g><g><g><path d="m64.479 47.778c0 4.854 3.935 8.788 8.788 8.788s8.788-3.935 8.788-8.788-3.935-8.788-8.788-8.788-8.788 3.935-8.788 8.788z" fill="#bcbec0"/></g></g><g><g><path d="m68.659 47.778c0 2.545 2.063 4.609 4.609 4.609 2.545 0 4.609-2.063 4.609-4.609 0-2.545-2.063-4.609-4.609-4.609-2.546.001-4.609 2.064-4.609 4.609z" fill="#fff"/></g></g><g><g><g><path d="m149.408 47.778c0 4.854 3.935 8.788 8.788 8.788s8.788-3.935 8.788-8.788-3.935-8.788-8.788-8.788-8.788 3.935-8.788 8.788z" fill="#bcbec0"/></g></g><g><g><path d="m153.588 47.778c0 2.545 2.063 4.609 4.609 4.609 2.545 0 4.609-2.063 4.609-4.609 0-2.545-2.063-4.609-4.609-4.609-2.546.001-4.609 2.064-4.609 4.609z" fill="#fff"/></g></g></g><g><g><g><path d="m165.176 89.701v39.776c0 3.439 2.788 6.227 6.227 6.227 3.439 0 6.227-2.788 6.227-6.227v-19.625c0-2.327 1.886-4.213 4.213-4.213h34.113c2.327 0 4.213 1.886 4.213 4.213v19.625c0 3.439 2.788 6.227 6.227 6.227 3.439 0 6.227-2.788 6.227-6.227v-39.776c0-4.654-3.772-8.426-8.426-8.426h-50.593c-4.655 0-8.428 3.773-8.428 8.426z" fill="#808285"/></g></g><g><g><path d="m171.18 116.43c-1.11 0-2-.9-2-2 0-1.11.89-2 2-2 1.101 0 2 .89 2 2 0 1.099-.9 2-2 2zm0-8.01c-1.11 0-2-.891-2-1.99v-16.73c0-2.431 1.98-4.421 4.42-4.431l26.84.01c1.101 0 2 .891 2 2 0 1.101-.899 1.99-2 1.99h-26.84c-.229.01-.42.2-.42.431v16.71.02c0 1.099-.9 1.99-2 1.99z" fill="#939598"/></g></g><g><g><g><path d="m227.098 81.799c.333.906.524 1.88.524 2.902v39.776c0 3.439-2.788 6.226-6.227 6.226-.383 0-.756-.04-1.12-.106.528 2.903 3.065 5.106 6.12 5.106 3.439 0 6.227-2.788 6.227-6.226v-39.776c0-3.632-2.303-6.718-5.524-7.902z" fill="#58595b"/></g></g></g></g></g><g><g><g><g><path d="m226.61 198.955h-197.221c-6.431 0-11.645 5.214-11.645 11.645 0 6.431 5.214 11.645 11.645 11.645h197.221c6.431 0 11.645-5.213 11.645-11.645 0-6.431-5.213-11.645-11.645-11.645z" fill="#8c3f0a"/></g></g></g><g><g><path d="m231.951 200.26c.828 1.601 1.304 3.414 1.304 5.341 0 6.431-5.214 11.645-11.645 11.645h-197.221c-1.927 0-3.74-.476-5.341-1.304 1.937 3.742 5.836 6.304 10.341 6.304h197.221c6.431 0 11.645-5.214 11.645-11.645 0-4.505-2.562-8.404-6.304-10.341z" fill="#7c3108"/></g></g></g></g><g><g><g><path d="m195.804 156.074c-.955 0-1.731-.772-1.737-1.727l-.026-4.886c-.024-3.445 1.019-6.814 2.987-9.642.547-.788 1.629-.984 2.417-.437s.984 1.629.437 2.417c-1.56 2.241-2.388 4.911-2.37 7.642l.026 4.886c.005.959-.769 1.741-1.728 1.746z" fill="#8c3f0a"/></g></g><g><g><path d="m206.005 150.519c-3.746.022-7.362 1.375-10.202 3.817-2.866-2.412-6.496-3.726-10.242-3.706-8.907.048-16.088 7.523-16.038 16.696s7.393 31.671 16.299 31.623c3.88-.021 16.564.021 20.444 0 8.907-.048 16.005-22.734 15.955-31.908-.049-9.173-7.309-16.567-16.216-16.522z" fill="#e63950"/></g></g><g><g><path d="m211.229 151.381c.633 1.765.983 3.671.994 5.661.05 9.174-7.048 31.86-15.955 31.908-3.88.021-16.564-.021-20.444 0-.126.001-.253-.004-.378-.012 2.828 5.67 6.451 10.033 10.378 10.012 3.88-.021 16.564.021 20.444 0 8.907-.048 16.005-22.734 15.955-31.908-.041-7.293-4.637-13.461-10.994-15.661z" fill="#d10028"/></g></g><g><g><path d="m191.635 136.867c2.87 1.847 4.015 5.524 4.435 7.483.158.741-.311 1.471-1.051 1.635-1.956.429-5.778.912-8.649-.934s-4.015-5.524-4.435-7.483c-.158-.741.311-1.471 1.051-1.635 1.959-.429 5.781-.912 8.649.934z" fill="#76a34f"/></g></g><g><g><path d="m196.07 144.35c-.42-1.958-1.565-5.636-4.435-7.483-.514-.331-1.059-.586-1.618-.782.546 1.219.869 2.407 1.053 3.265.158.741-.311 1.471-1.051 1.635-1.606.353-4.469.741-7.031-.153.701 1.565 1.769 3.182 3.382 4.219 2.871 1.846 6.692 1.363 8.649.934.74-.164 1.21-.894 1.051-1.635z" fill="#648940"/></g></g><g><g><path d="m203.056 129.841c-4.26 2.741-5.778 8.391-6.257 10.911-.139.724.315 1.43 1.032 1.603 2.492.609 8.262 1.57 12.523-1.17s5.777-8.391 6.257-10.907c.139-.724-.315-1.43-1.032-1.604-2.492-.611-8.263-1.572-12.523 1.167z" fill="#76a34f"/></g></g><g><g><path d="m215.579 128.674c-1.073-.263-2.753-.59-4.658-.66-.861 2.731-2.506 6.203-5.567 8.171-2.427 1.561-5.343 1.92-7.865 1.828-.338 1.071-.555 2.029-.69 2.738-.139.724.315 1.43 1.032 1.604 2.492.608 8.262 1.57 12.523-1.17s5.777-8.391 6.257-10.907c.139-.724-.315-1.43-1.032-1.604z" fill="#648940"/></g></g></g><g><g><g><path d="m135.245 156.074c-.955 0-1.731-.772-1.737-1.727l-.026-4.886c-.024-3.445 1.019-6.814 2.987-9.642.547-.788 1.629-.984 2.417-.437s.984 1.629.437 2.417c-1.56 2.241-2.388 4.911-2.37 7.642l.026 4.886c.005.959-.769 1.741-1.728 1.746z" fill="#8c3f0a"/></g></g><g><g><path d="m145.447 150.519c-3.746.022-7.362 1.375-10.202 3.817-2.866-2.412-6.496-3.726-10.242-3.706-8.907.048-16.088 7.523-16.038 16.696s7.392 31.671 16.299 31.623c3.88-.021 16.564.021 20.444 0 8.907-.048 16.005-22.734 15.955-31.908-.049-9.173-7.309-16.567-16.216-16.522z" fill="#e63950"/></g></g><g><g><path d="m150.67 151.381c.633 1.765.983 3.671.994 5.661.05 9.174-7.048 31.86-15.955 31.908-3.88.021-16.564-.021-20.444 0-.126.001-.253-.004-.378-.012 2.828 5.67 6.451 10.033 10.378 10.012 3.88-.021 16.564.021 20.444 0 8.907-.048 16.005-22.734 15.955-31.908-.04-7.293-4.636-13.461-10.994-15.661z" fill="#d10028"/></g></g><g><g><path d="m131.077 136.867c2.87 1.847 4.015 5.524 4.435 7.483.158.741-.311 1.471-1.051 1.635-1.956.429-5.778.912-8.649-.934s-4.015-5.524-4.435-7.483c-.158-.741.311-1.471 1.051-1.635 1.959-.429 5.78-.912 8.649.934z" fill="#76a34f"/></g></g><g><g><path d="m135.512 144.35c-.42-1.958-1.565-5.636-4.435-7.483-.514-.331-1.059-.586-1.618-.782.546 1.219.869 2.407 1.053 3.265.158.741-.311 1.471-1.051 1.635-1.606.353-4.469.741-7.031-.153.701 1.565 1.769 3.182 3.382 4.219 2.871 1.846 6.692 1.363 8.649.934.74-.164 1.209-.894 1.051-1.635z" fill="#648940"/></g></g><g><g><path d="m142.498 129.841c-4.26 2.741-5.778 8.391-6.257 10.911-.139.724.315 1.43 1.032 1.603 2.492.609 8.262 1.57 12.523-1.17s5.777-8.391 6.257-10.907c.139-.724-.315-1.43-1.032-1.604-2.492-.611-8.263-1.572-12.523 1.167z" fill="#76a34f"/></g></g><g><g><path d="m155.021 128.674c-1.073-.263-2.753-.59-4.658-.66-.861 2.731-2.506 6.203-5.567 8.171-2.427 1.561-5.343 1.92-7.865 1.828-.338 1.071-.555 2.029-.69 2.738-.139.724.315 1.43 1.032 1.604 2.492.608 8.262 1.57 12.523-1.17s5.777-8.391 6.257-10.907c.139-.724-.315-1.43-1.032-1.604z" fill="#648940"/></g></g></g></g></svg>