<svg id="Layer_1" enable-background="new 0 0 256 256" height="512" viewBox="0 0 256 256" width="512" xmlns="http://www.w3.org/2000/svg"><g><g><g><g><g><path d="m138.507 73.394h-21.018c-2.299 0-4.163-1.864-4.163-4.163v-45.825c0-2.299 1.864-4.163 4.163-4.163h21.018c2.299 0 4.163 1.864 4.163 4.163v45.826c-.001 2.299-1.864 4.162-4.163 4.162z" fill="#e6e7e8"/></g></g><g><g><path d="m119.33 68.39c-1.11 0-2-.899-2-2 0-1.1.89-2 2-2 1.1 0 2 .9 2 2s-.9 2-2 2zm0-8c-1.11 0-2-.899-2-2v-32.14c0-1.11.89-2 2-2 1.1 0 2 .89 2 2v32.14c0 1.1-.9 2-2 2z" fill="#fff"/></g></g><g><g><path d="m138.025 19.235h-20.054c0-2.286 1.853-4.138 4.139-4.139h11.777c2.285.001 4.138 1.853 4.138 4.139z" fill="#377de2"/></g></g></g><g><g><path d="m123.536 73.394h8.923v4.698h-8.923z" fill="#377de2"/></g></g><g><g><g><path d="m76.284 61.154h26.461c1.509 0 2.731-1.223 2.731-2.731v-21.681c0-1.509-1.223-2.731-2.731-2.731h-26.461c-1.509 0-2.732 1.223-2.731 2.731v21.681c0 1.508 1.223 2.731 2.731 2.731z" fill="#478cf7"/></g></g><g><g><path d="m102.745 34.01h-7.268v14.413c0 1.508-1.223 2.731-2.732 2.731h-19.192v7.269c0 1.508 1.223 2.731 2.731 2.731h26.461c1.509 0 2.732-1.223 2.732-2.731v-21.681c0-1.509-1.223-2.732-2.732-2.732z" fill="#377de2"/></g></g><g><g><path d="m105.477 44.41h7.853v6.345h-7.853z" fill="#377de2" transform="matrix(-1 0 0 -1 218.807 95.165)"/></g></g><g><g><g><path d="m97.51 34.01h2.333v27.144h-2.333z" fill="#5e9cf7" transform="matrix(-1 0 0 -1 197.354 95.165)"/></g></g><g><g><path d="m88.348 34.01h2.333v27.144h-2.333z" fill="#5e9cf7" transform="matrix(-1 0 0 -1 179.029 95.167)"/></g></g><g><g><path d="m79.187 34.01h2.333v27.144h-2.333z" fill="#5e9cf7" transform="matrix(-1 0 0 -1 160.705 95.166)"/></g></g></g><g><g><g><path d="m88.348 22.459h2.333v31.924h-2.333z" fill="#5e9cf7" transform="matrix(0 1 -1 0 127.934 -51.095)"/></g></g><g><g><path d="m88.348 31.62h2.333v31.924h-2.333z" fill="#5e9cf7" transform="matrix(0 1 -1 0 137.099 -41.932)"/></g></g><g><g><path d="m88.348 40.782h2.333v31.924h-2.333z" fill="#5e9cf7" transform="matrix(0 1 -1 0 146.261 -32.77)"/></g></g></g></g><g><g><g><path d="m179.716 61.154h-26.461c-1.509 0-2.731-1.223-2.731-2.731v-21.681c0-1.509 1.223-2.731 2.731-2.731h26.461c1.509 0 2.731 1.223 2.731 2.731v21.681c0 1.508-1.223 2.731-2.731 2.731z" fill="#478cf7"/></g></g><g><g><path d="m179.716 34.01h-7.269v14.413c0 1.508-1.223 2.731-2.731 2.731h-19.192v7.269c0 1.508 1.223 2.731 2.731 2.731h26.461c1.509 0 2.731-1.223 2.731-2.731v-21.681c0-1.509-1.223-2.732-2.731-2.732z" fill="#377de2"/></g></g><g><g><path d="m142.67 44.41h7.853v6.345h-7.853z" fill="#377de2"/></g></g><g><g><g><path d="m156.157 34.01h2.333v27.144h-2.333z" fill="#5e9cf7"/></g></g><g><g><path d="m165.318 34.01h2.333v27.144h-2.333z" fill="#5e9cf7"/></g></g><g><g><path d="m174.48 34.01h2.333v27.144h-2.333z" fill="#5e9cf7"/></g></g></g><g><g><g><path d="m165.318 22.459h2.333v31.924h-2.333z" fill="#5e9cf7" transform="matrix(0 1 -1 0 204.906 -128.064)"/></g></g><g><g><path d="m165.318 31.62h2.333v31.924h-2.333z" fill="#5e9cf7" transform="matrix(0 1 -1 0 214.067 -118.903)"/></g></g><g><g><path d="m165.318 40.782h2.333v31.924h-2.333z" fill="#5e9cf7" transform="matrix(0 1 -1 0 223.233 -109.74)"/></g></g></g></g><g><g><g><path d="m144.881 102.399h-33.767c-2.176 0-3.941-1.764-3.941-3.941v-1.588c0-11.501 9.323-20.824 20.824-20.824 11.501 0 20.824 9.323 20.824 20.824v1.588c.001 2.177-1.763 3.941-3.94 3.941z" fill="#ffa91a"/></g></g><g><g><path d="m136.851 78.017c1.264 2.687 1.971 5.688 1.971 8.854v1.588c0 2.177-1.764 3.941-3.941 3.941h-27.227c-.315 1.44-.481 2.936-.481 4.471v1.588c0 2.177 1.764 3.941 3.941 3.941h33.767c2.176 0 3.941-1.764 3.941-3.941v-1.589c0-8.335-4.897-15.526-11.971-18.853z" fill="#f79219"/></g></g><g><g><path d="m140.01 79.858c2.401 3.394 3.812 7.538 3.812 12.012v1.588c0 2.177-1.764 3.941-3.941 3.941h-32.708v1.059c0 2.177 1.764 3.941 3.941 3.941h33.767c2.176 0 3.941-1.764 3.941-3.941v-1.588c0-7.027-3.481-13.241-8.812-17.012z" fill="#ef7816"/></g></g><g><g><path d="m124.603 102.399h6.789v6.789h-6.789z" fill="#377de2" transform="matrix(0 1 -1 0 233.79 -22.205)"/></g></g><g><g><circle cx="127.998" cy="111.869" fill="#478cf7" r="6.075"/></g></g><g><g><path d="m131.176 106.69c.569.925.897 2.013.897 3.178 0 3.355-2.72 6.075-6.075 6.075-1.165 0-2.254-.328-3.178-.897 1.069 1.738 2.988 2.897 5.178 2.897 3.355 0 6.075-2.72 6.075-6.075 0-2.189-1.159-4.108-2.897-5.178z" fill="#377de2"/></g></g></g></g><g><g><g><g><g><path d="m128 201.455c-1.381 0-2.5-1.119-2.5-2.5v-43.789c0-1.381 1.119-2.5 2.5-2.5s2.5 1.119 2.5 2.5v43.789c0 1.381-1.119 2.5-2.5 2.5z" fill="#5a7a39"/></g></g><g><g><path d="m128 194.899c-.663 0-1.299-.264-1.768-.732l-8.931-8.932c-.976-.977-.976-2.56 0-3.535.976-.977 2.559-.977 3.536 0l7.163 7.163 7.163-7.163c.977-.977 2.559-.977 3.536 0 .977.976.977 2.559 0 3.535l-8.931 8.932c-.469.469-1.105.732-1.768.732z" fill="#5a7a39"/></g></g><g><g><path d="m128 177.955c-.663 0-1.299-.264-1.768-.732l-20.289-20.289c-.977-.977-.977-2.559 0-3.535.976-.977 2.56-.977 3.535 0l18.522 18.521 18.521-18.521c.976-.977 2.56-.977 3.535 0 .977.977.977 2.559 0 3.535l-20.289 20.289c-.468.468-1.104.732-1.767.732z" fill="#5a7a39"/></g></g></g><g><g><g><g><path d="m104.641 167.579c-.812.03-1.458.676-1.487 1.487-.107 2.918.135 9.744 4.272 13.881s10.963 4.379 13.881 4.272c.812-.03 1.458-.676 1.487-1.487.107-2.918-.135-9.744-4.272-13.881s-10.964-4.379-13.881-4.272z" fill="#76a34f"/></g></g><g><g><path d="m118.522 171.852c-.864-.864-1.846-1.558-2.885-2.115 2.108 3.934 2.242 8.688 2.157 10.996-.03.812-.676 1.458-1.487 1.487-2.308.085-7.062-.049-10.996-2.157.557 1.039 1.25 2.021 2.115 2.885 4.137 4.137 10.963 4.379 13.881 4.272.812-.029 1.458-.675 1.487-1.487.107-2.918-.135-9.744-4.272-13.881z" fill="#648940"/></g></g><g><g><path d="m151.359 167.579c.812.03 1.458.676 1.487 1.487.107 2.918-.135 9.744-4.272 13.881s-10.963 4.379-13.881 4.272c-.812-.03-1.458-.676-1.487-1.487-.107-2.918.135-9.744 4.272-13.881s10.964-4.379 13.881-4.272z" fill="#76a34f"/></g></g><g><g><path d="m152.847 169.067c-.03-.812-.676-1.458-1.487-1.488-.899-.033-2.169-.032-3.617.104-.308 3.252-1.305 7.401-4.168 10.264s-7.012 3.86-10.264 4.168c-.137 1.448-.137 2.718-.104 3.617.03.812.676 1.458 1.488 1.487 2.917.107 9.743-.135 13.881-4.272s4.378-10.963 4.271-13.88z" fill="#648940"/></g></g></g><g><g><path d="m126.933 161.42c.588.526 1.47.526 2.057 0 2.789-2.497 10.287-10.041 10.287-18.958 0-8.918-7.498-16.461-10.287-18.958-.588-.526-1.47-.526-2.057 0-2.789 2.497-10.287 10.041-10.287 18.958s7.498 16.461 10.287 18.958z" fill="#76a34f"/></g></g><g><g><path d="m134.354 129.4c1.147 2.463 1.924 5.191 1.924 8.062 0 8.917-7.498 16.461-10.287 18.958-.588.526-1.47.526-2.057 0-1.224-1.097-3.357-3.166-5.364-5.896 2.416 5.189 6.472 9.203 8.364 10.896.588.526 1.47.526 2.057 0 2.789-2.497 10.287-10.041 10.287-18.958-.001-5.003-2.36-9.572-4.924-13.062z" fill="#648940"/></g></g><g><g><g><path d="m160.51 141.457c.812.03 1.458.676 1.487 1.487.107 2.918-.135 9.744-4.272 13.881s-10.963 4.379-13.881 4.272c-.812-.03-1.458-.676-1.487-1.487-.107-2.918.135-9.744 4.272-13.881 4.138-4.137 10.964-4.379 13.881-4.272z" fill="#76a34f"/></g></g><g><g><path d="m161.998 142.944c-.03-.812-.676-1.458-1.488-1.487-.899-.033-2.169-.033-3.617.104-.308 3.252-1.305 7.401-4.168 10.264s-7.012 3.86-10.264 4.168c-.137 1.448-.137 2.718-.104 3.617.03.812.676 1.458 1.487 1.488 2.918.107 9.744-.135 13.881-4.272 4.138-4.138 4.38-10.964 4.273-13.882z" fill="#648940"/></g></g><g><g><path d="m95.49 141.457c-.812.03-1.458.676-1.487 1.487-.107 2.918.135 9.744 4.272 13.881s10.963 4.379 13.881 4.272c.812-.03 1.458-.676 1.487-1.487.107-2.918-.135-9.744-4.272-13.881-4.138-4.137-10.964-4.379-13.881-4.272z" fill="#76a34f"/></g></g><g><g><path d="m109.371 145.729c-.864-.864-1.846-1.558-2.885-2.115 2.108 3.934 2.242 8.688 2.157 10.996-.03.812-.676 1.458-1.488 1.488-2.308.084-7.062-.05-10.996-2.158.557 1.039 1.25 2.021 2.115 2.885 4.137 4.137 10.963 4.379 13.881 4.272.812-.03 1.458-.676 1.488-1.488.107-2.917-.135-9.742-4.272-13.88z" fill="#648940"/></g></g></g></g></g><g><g><g><g><path d="m226.61 198.955h-197.221c-6.431 0-11.645 5.214-11.645 11.645 0 6.431 5.214 11.645 11.645 11.645h197.221c6.431 0 11.645-5.213 11.645-11.645 0-6.431-5.213-11.645-11.645-11.645z" fill="#8c3f0a"/></g></g></g><g><g><path d="m231.951 200.26c.828 1.601 1.304 3.414 1.304 5.341 0 6.431-5.214 11.645-11.645 11.645h-197.221c-1.927 0-3.74-.476-5.341-1.304 1.937 3.742 5.836 6.304 10.341 6.304h197.221c6.431 0 11.645-5.214 11.645-11.645 0-4.505-2.562-8.404-6.304-10.341z" fill="#7c3108"/></g></g></g></g><g><g><g><g><path d="m96.823 124.68c-1.095 0-2.197-.357-3.119-1.095-2.157-1.724-2.508-4.87-.783-7.027l6.244-7.811c1.724-2.156 4.87-2.509 7.027-.783 2.157 1.724 2.508 4.87.783 7.027l-6.244 7.811c-.986 1.235-2.44 1.878-3.908 1.878z" fill="#ffa91a"/></g></g><g><g><path d="m51.129 181.852c-1.094 0-2.197-.357-3.118-1.094-2.157-1.725-2.508-4.871-.784-7.028l11.423-14.293c1.723-2.156 4.87-2.509 7.027-.784s2.508 4.871.784 7.028l-11.423 14.293c-.987 1.235-2.441 1.878-3.909 1.878zm22.848-28.586c-1.094 0-2.197-.357-3.118-1.094-2.157-1.725-2.508-4.871-.784-7.028l11.423-14.293c1.723-2.156 4.871-2.509 7.027-.784 2.157 1.725 2.508 4.871.784 7.028l-11.423 14.293c-.988 1.235-2.442 1.878-3.909 1.878z" fill="#ffa91a"/></g></g><g><g><path d="m33.462 203.955c-1.095 0-2.197-.357-3.119-1.095-2.157-1.724-2.508-4.87-.784-7.027l6.243-7.811c1.724-2.156 4.87-2.509 7.028-.783 2.157 1.724 2.508 4.87.784 7.027l-6.243 7.811c-.987 1.236-2.441 1.878-3.909 1.878z" fill="#ffa91a"/></g></g></g><g><g><g><path d="m159.177 124.68c-1.468 0-2.921-.643-3.909-1.878l-6.244-7.811c-1.725-2.157-1.374-5.304.783-7.027 2.157-1.727 5.304-1.373 7.027.783l6.244 7.811c1.725 2.157 1.374 5.304-.783 7.027-.921.737-2.024 1.095-3.118 1.095z" fill="#ffa91a"/></g></g><g><g><path d="m204.871 181.852c-1.468 0-2.922-.643-3.909-1.878l-11.423-14.293c-1.724-2.157-1.373-5.304.784-7.028s5.304-1.372 7.027.784l11.423 14.293c1.724 2.157 1.373 5.304-.784 7.028-.922.736-2.024 1.094-3.118 1.094zm-22.848-28.586c-1.468 0-2.922-.643-3.909-1.878l-11.423-14.293c-1.724-2.157-1.373-5.304.784-7.028 2.158-1.725 5.305-1.372 7.027.784l11.423 14.293c1.724 2.157 1.373 5.304-.784 7.028-.921.736-2.023 1.094-3.118 1.094z" fill="#ffa91a"/></g></g><g><g><path d="m222.538 203.955c-1.468 0-2.921-.643-3.909-1.878l-6.243-7.811c-1.724-2.157-1.373-5.304.784-7.027 2.159-1.726 5.304-1.373 7.028.783l6.243 7.811c1.724 2.157 1.373 5.304-.784 7.027-.922.738-2.025 1.095-3.119 1.095z" fill="#ffa91a"/></g></g></g></g></g></svg>