<svg id="Layer_1" enable-background="new 0 0 256 256" height="512" viewBox="0 0 256 256" width="512" xmlns="http://www.w3.org/2000/svg"><g><g><g><path d="m151.542 118.347c0 14.597-14.241 32.093-20.571 39.148-1.588 1.77-4.354 1.77-5.942 0-6.329-7.055-20.571-24.551-20.571-39.148 0-18.767 10.54-25.635 23.542-25.635 13.002-.001 23.542 6.867 23.542 25.635z" fill="#ffa91a"/></g></g><g><g><path d="m139.032 94.793c1.605 3.582 2.51 8.057 2.51 13.553 0 14.597-14.241 32.093-20.571 39.148-.819.913-1.953 1.355-3.076 1.326 2.688 3.577 5.258 6.584 7.134 8.674 1.588 1.77 4.354 1.77 5.942 0 6.33-7.055 20.571-24.551 20.571-39.148 0-13.012-5.068-20.304-12.51-23.553z" fill="#f79219"/></g></g><g><g><path d="m142.228 96.545c2.717 3.996 4.313 9.497 4.313 16.801 0 14.597-14.241 32.093-20.571 39.148-1.123 1.252-2.837 1.618-4.305 1.098 1.252 1.511 2.399 2.827 3.363 3.902 1.588 1.77 4.354 1.77 5.942 0 6.33-7.055 20.571-24.551 20.571-39.148.001-11.05-3.654-17.974-9.313-21.801z" fill="#ef7816"/></g></g><g><g><path d="m216.552 92.711c-13.002 0-23.542 6.868-23.542 25.635 0 14.597 14.241 32.093 20.571 39.148 1.587 1.77 4.354 1.77 5.942 0 6.329-7.055 20.571-24.551 20.571-39.148-.001-18.767-10.541-25.635-23.542-25.635z" fill="#ffa91a"/></g></g><g><g><path d="m39.448 92.711c-13.002 0-23.542 6.868-23.542 25.635 0 14.597 14.241 32.093 20.571 39.148 1.588 1.77 4.355 1.77 5.942 0 6.329-7.055 20.571-24.551 20.571-39.148 0-18.767-10.54-25.635-23.542-25.635z" fill="#ffa91a"/></g></g><g><g><path d="m171.596 138.021c-13.002 0-23.542 6.868-23.542 25.636 0 14.597 14.241 32.093 20.571 39.148 1.588 1.77 4.354 1.77 5.942 0 6.329-7.055 20.571-24.551 20.571-39.148 0-18.768-10.54-25.636-23.542-25.636z" fill="#ffa91a"/></g></g><g><g><path d="m84.404 138.021c-13.002 0-23.542 6.868-23.542 25.636 0 14.597 14.241 32.093 20.571 39.148 1.587 1.77 4.354 1.77 5.942 0 6.329-7.055 20.571-24.551 20.571-39.148-.001-18.768-10.541-25.636-23.542-25.636z" fill="#ffa91a"/></g></g><g><g><path d="m174.568 116.651c6.329-7.055 20.571-24.551 20.571-39.148 0-18.767-10.54-25.635-23.542-25.635s-23.542 6.868-23.542 25.635c0 14.597 14.241 32.093 20.571 39.148 1.587 1.77 4.354 1.77 5.942 0z" fill="#ffa91a"/></g></g><g><g><path d="m87.375 116.651c6.329-7.055 20.571-24.551 20.571-39.148 0-18.767-10.54-25.635-23.542-25.635s-23.542 6.868-23.542 25.635c0 14.597 14.241 32.093 20.571 39.148 1.587 1.77 4.354 1.77 5.942 0z" fill="#ffa91a"/></g></g><g><g><path d="m227.584 94.793c1.605 3.582 2.51 8.057 2.51 13.553 0 14.597-14.241 32.093-20.571 39.148-.819.913-1.953 1.355-3.076 1.326 2.688 3.577 5.258 6.584 7.134 8.674 1.587 1.77 4.354 1.77 5.942 0 6.329-7.055 20.571-24.551 20.571-39.148-.001-13.012-5.068-20.304-12.51-23.553z" fill="#f79219"/></g></g><g><g><path d="m50.481 94.793c1.605 3.582 2.51 8.057 2.51 13.553 0 14.597-14.241 32.093-20.571 39.148-.819.913-1.953 1.355-3.076 1.326 2.688 3.577 5.258 6.584 7.134 8.674 1.588 1.77 4.355 1.77 5.942 0 6.329-7.055 20.571-24.551 20.571-39.148-.001-13.012-5.068-20.304-12.51-23.553z" fill="#f79219"/></g></g><g><g><path d="m182.629 140.104c1.605 3.582 2.51 8.057 2.51 13.553 0 14.597-14.241 32.093-20.571 39.148-.819.913-1.953 1.355-3.076 1.326 2.688 3.577 5.258 6.584 7.134 8.674 1.588 1.77 4.354 1.77 5.942 0 6.329-7.055 20.571-24.551 20.571-39.148-.001-13.013-5.068-20.305-12.51-23.553z" fill="#f79219"/></g></g><g><g><path d="m95.436 140.104c1.605 3.582 2.51 8.057 2.51 13.553 0 14.597-14.241 32.093-20.571 39.148-.819.913-1.953 1.355-3.076 1.326 2.688 3.577 5.258 6.584 7.134 8.674 1.587 1.77 4.354 1.77 5.942 0 6.329-7.055 20.571-24.551 20.571-39.148-.001-13.013-5.068-20.305-12.51-23.553z" fill="#f79219"/></g></g><g><g><path d="m182.629 53.95c1.605 3.582 2.51 8.057 2.51 13.553 0 14.597-14.241 32.093-20.571 39.148-.819.913-1.953 1.355-3.076 1.326 2.688 3.577 5.258 6.584 7.134 8.674 1.588 1.77 4.354 1.77 5.942 0 6.329-7.055 20.571-24.551 20.571-39.148-.001-13.013-5.068-20.304-12.51-23.553z" fill="#f79219"/></g></g><g><g><path d="m95.436 53.95c1.605 3.582 2.51 8.057 2.51 13.553 0 14.597-14.241 32.093-20.571 39.148-.819.913-1.953 1.355-3.076 1.326 2.688 3.577 5.258 6.584 7.134 8.674 1.587 1.77 4.354 1.77 5.942 0 6.329-7.055 20.571-24.551 20.571-39.148-.001-13.013-5.068-20.304-12.51-23.553z" fill="#f79219"/></g></g><g><g><path d="m117.77 140.1c-.689 0-1.33-.36-1.7-.95 0 0 0 0 0-.01-.569-.93-.279-2.16.65-2.74.91-.56 2.18-.27 2.74.63.01 0 .01.01.01.01.58.94.29 2.17-.64 2.76-.32.19-.681.3-1.06.3zm-3.84-7.01c-.77 0-1.49-.45-1.81-1.15-2.42-5.16-3.66-9.73-3.66-13.59 0-7.17 1.59-12.44 4.85-16.11 3.271-3.67 8.181-5.53 14.61-5.53h.08c1.1 0 2 .9 2 2s-.9 2-2 2c-5.36.02-9.19 1.39-11.71 4.2-2.54 2.83-3.83 7.36-3.83 13.44-.01 3.22 1.12 7.33 3.27 11.89.23.48.261 1.02.08 1.53-.18.5-.55.9-1.029 1.13-.271.12-.561.19-.851.19z" fill="#ffc91d"/></g></g></g></svg>