<svg id="Layer_1" enable-background="new 0 0 256 256" height="512" viewBox="0 0 256 256" width="512" xmlns="http://www.w3.org/2000/svg"><g><g><g><path d="m237.853 128c0-17.189-12.974-31.342-29.663-33.216 10.476-13.126 9.642-32.307-2.512-44.462-12.155-12.155-31.336-12.988-44.462-2.512-1.874-16.688-16.027-29.663-33.216-29.663s-31.342 12.975-33.216 29.663c-13.126-10.476-32.307-9.642-44.462 2.512-12.154 12.155-12.987 31.337-2.512 44.462-16.688 1.874-29.663 16.027-29.663 33.216s12.974 31.342 29.663 33.216c-10.476 13.126-9.642 32.307 2.512 44.462 12.155 12.155 31.336 12.988 44.462 2.512 1.874 16.689 16.026 29.663 33.216 29.663s31.342-12.974 33.216-29.663c13.126 10.476 32.307 9.642 44.462-2.512 12.155-12.155 12.988-31.336 2.512-44.462 16.688-1.874 29.663-16.027 29.663-33.216z" fill="#f1f2f2"/></g></g><g><g><g><path d="m188.19 84.784c7.852.882 14.88 4.483 20.123 9.838 10.342-13.121 9.47-32.194-2.635-44.3-5.487-5.487-12.406-8.658-19.554-9.532 11.719 12.174 12.409 31.034 2.066 43.994z" fill="#e6e7e8"/></g></g><g><g><path d="m237.853 128c0-17.08-12.811-31.156-29.346-33.173 5.785 6.009 9.346 14.172 9.346 23.173 0 17.189-12.974 31.342-29.663 33.216 10.476 13.126 9.642 32.307-2.512 44.462-12.155 12.155-31.336 12.988-44.462 2.512-1.874 16.689-16.026 29.663-33.216 29.663-1.382 0-2.741-.093-4.079-.255 6.08 6.318 14.617 10.255 24.079 10.255 17.189 0 31.342-12.974 33.216-29.663 13.126 10.476 32.307 9.642 44.462-2.512 12.155-12.155 12.988-31.336 2.512-44.462 16.688-1.874 29.663-16.027 29.663-33.216z" fill="#e6e7e8"/></g></g><g><g><path d="m27.81 151.216c-.106-.012-.211-.03-.317-.043.065.068.128.138.193.205.043-.054.082-.109.124-.162z" fill="#e6e7e8"/></g></g></g><g><g><g><g><path d="m61.977 69.008c10.973 6.141 14.891 20.014 8.75 30.988-6.141 10.973-20.014 14.891-30.988 8.75-8.527-4.772-15.333-24.336-17.943-32.821-.671-2.18.613-4.474 2.822-5.043 8.597-2.214 28.832-6.646 37.359-1.874z" fill="#e6e7e8"/></g></g><g><g><path d="m55.735 75.988c6.568 3.676 8.913 11.98 5.237 18.548s-11.98 8.913-18.548 5.237c-5.104-2.856-9.178-14.567-10.74-19.646-.401-1.305.367-2.678 1.689-3.019 5.146-1.323 17.257-3.976 22.362-1.12z" fill="#fcc4ae"/></g></g><g><g><path d="m55.87 76.073c2.317 4.022 2.533 9.119.102 13.463-3.558 6.358-11.449 8.741-17.909 5.554 1.329 2.095 2.795 3.808 4.361 4.684 6.568 3.676 14.872 1.331 18.548-5.237 3.649-6.522 1.359-14.749-5.102-18.464z" fill="#f2ad97"/></g></g></g><g><g><g><path d="m194.023 69.008c-10.973 6.141-14.891 20.014-8.75 30.988 6.141 10.973 20.014 14.891 30.988 8.75 8.527-4.772 15.333-24.336 17.943-32.821.671-2.18-.613-4.474-2.822-5.043-8.597-2.214-28.832-6.646-37.359-1.874z" fill="#e6e7e8"/></g></g><g><g><path d="m200.265 75.988c-6.568 3.676-8.913 11.98-5.237 18.548s11.98 8.913 18.548 5.237c5.104-2.856 9.178-14.567 10.74-19.646.401-1.305-.367-2.678-1.689-3.019-5.146-1.323-17.257-3.976-22.362-1.12z" fill="#fcc4ae"/></g></g><g><g><path d="m222.627 77.109c-.993-.256-2.25-.561-3.662-.866-1.766 5.504-5.628 15.866-10.389 18.531-4.344 2.431-9.441 2.215-13.463-.102 3.715 6.461 11.942 8.751 18.463 5.102 5.104-2.856 9.177-14.567 10.74-19.646.402-1.305-.367-2.678-1.689-3.019z" fill="#f2ad97"/></g></g></g></g><g><g><path d="m178.412 110.491c0-27.842-22.57-13.743-50.412-13.743s-50.412-14.099-50.412 13.743c0 17.349 8.766 32.649 22.108 41.719v16.32c0 15.631 12.672 28.303 28.303 28.303 15.632 0 28.303-12.672 28.303-28.303v-16.32c13.344-9.07 22.11-24.37 22.11-41.719z" fill="#fcc4ae"/></g></g><g><g><g><path d="m167.773 93.459c.418 1.977.639 4.3.639 7.032 0 17.349-8.766 32.649-22.108 41.719v16.32c0 15.631-12.672 28.303-28.303 28.303-5.25 0-10.163-1.435-14.378-3.926 4.926 8.333 13.996 13.926 24.378 13.926 15.632 0 28.303-12.672 28.303-28.303v-16.32c13.342-9.07 22.108-24.369 22.108-41.719 0-11.678-3.973-15.976-10.639-17.032z" fill="#f2ad97"/></g></g></g><g><g><g><path d="m171.484 94.539c1.255 2.594 1.927 6.149 1.927 10.952 0 17.349-8.766 32.649-22.108 41.719v16.32c0 15.631-12.672 28.303-28.303 28.303-6.541 0-12.559-2.225-17.352-5.951 5.178 6.661 13.262 10.951 22.352 10.951 15.632 0 28.303-12.672 28.303-28.303v-16.32c13.342-9.07 22.108-24.369 22.108-41.719.001-9.31-2.526-13.926-6.927-15.952z" fill="#e59076"/></g></g></g><g><g><path d="m159.139 65.908c-8.448 0-15.608 5.444-18.211 13.008-3.421-3.103-7.947-5.01-12.929-5.01s-9.508 1.907-12.929 5.01c-2.603-7.564-9.763-13.008-18.211-13.008-10.644 0-19.272 8.629-19.272 19.272 0 10.644 8.629 19.272 19.272 19.272 4.982 0 9.508-1.907 12.929-5.01 2.603 7.564 9.763 13.008 18.211 13.008s15.608-5.443 18.211-13.008c3.421 3.103 7.947 5.01 12.929 5.01 10.644 0 19.272-8.629 19.272-19.272.001-10.643-8.628-19.272-19.272-19.272z" fill="#f1f2f2"/></g></g><g><g><g><path d="m170.032 69.287c2.129 3.1 3.38 6.849 3.38 10.893 0 10.644-8.629 19.272-19.272 19.272-4.982 0-9.508-1.907-12.929-5.01-2.603 7.564-9.763 13.008-18.211 13.008-4.035 0-7.768-1.252-10.859-3.374 3.47 5.051 9.267 8.374 15.859 8.374 8.448 0 15.608-5.443 18.211-13.008 3.421 3.103 7.947 5.01 12.929 5.01 10.644 0 19.272-8.629 19.272-19.272 0-6.599-3.322-12.419-8.38-15.893z" fill="#e6e7e8"/></g></g></g><g><g><g><circle cx="98.776" cy="127.041" fill="#8c3f0a" r="5.956"/></g></g><g><g><path d="m101.867 121.949c.548.901.864 1.959.864 3.091 0 3.289-2.666 5.956-5.956 5.956-1.132 0-2.19-.316-3.091-.864 1.045 1.717 2.934 2.864 5.091 2.864 3.289 0 5.956-2.667 5.956-5.956 0-2.156-1.146-4.046-2.864-5.091z" fill="#7c3108"/></g></g><g><g><circle cx="157.224" cy="127.041" fill="#8c3f0a" r="5.956"/></g></g><g><g><path d="m160.315 121.949c.548.901.864 1.959.864 3.091 0 3.289-2.667 5.956-5.956 5.956-1.132 0-2.19-.316-3.091-.864 1.045 1.717 2.934 2.864 5.091 2.864 3.289 0 5.956-2.667 5.956-5.956.001-2.156-1.146-4.046-2.864-5.091z" fill="#7c3108"/></g></g></g><g><g><path d="m128 174.233c-.768 0-1.535-.293-2.121-.879l-8.011-8.011c-1.172-1.171-1.172-3.071 0-4.242 1.172-1.172 3.07-1.172 4.242 0l5.89 5.889 5.89-5.889c1.172-1.172 3.07-1.172 4.242 0 1.172 1.171 1.172 3.071 0 4.242l-8.011 8.011c-.586.586-1.353.879-2.121.879z" fill="#e59076"/></g></g><g><g><g><path d="m99.53 61.28c-.45 0-.891-.16-1.24-.44l-8.5-6.78c-4.46-3.56-10.09-5.53-15.84-5.53-4.28 0-8.33 1.02-12.051 3.03-.939.51-2.199.12-2.71-.81-.25-.47-.31-1.01-.149-1.52.149-.52.49-.94.96-1.19 4.24-2.3 9.069-3.51 13.95-3.51 6.649.01 13.159 2.28 18.34 6.41l5.66 4.51.81-7.19c1.67-14.89 14.24-26.11 29.24-26.11s27.569 11.22 29.24 26.11c.119 1.09-.671 2.09-1.761 2.21-1.1.11-2.09-.68-2.21-1.77-1.45-12.85-12.31-22.55-25.27-22.55s-23.82 9.7-25.271 22.55l-1.21 10.8c-.08.73-.55 1.35-1.22 1.63-.238.1-.498.15-.768.15zm-44.97-4.71c-.529 0-1.029-.21-1.41-.59-.38-.38-.59-.88-.59-1.41 0-.54.21-1.04.59-1.42 0 0 .011 0 .011-.01.75-.74 2.069-.74 2.819.01.38.38.59.88.59 1.42 0 .52-.21 1.02-.579 1.4l-.011.01c-.38.38-.88.59-1.42.59z" fill="#fff"/></g></g></g></g></svg>