<svg id="Layer_1" enable-background="new 0 0 256 256" height="512" viewBox="0 0 256 256" width="512" xmlns="http://www.w3.org/2000/svg"><g><g><g><g><path d="m136.389 172.954s-46.266-53.316-59.966-92.995c-8.299-24.036-8.497-44.854-7.473-57.108.327-3.912 5.48-5.087 7.449-1.691l80.307 138.552z" fill="#e6e7e8"/></g></g><g><g><path d="m76.398 21.16c-1.968-3.396-7.122-2.22-7.449 1.691-.224 2.685-.39 5.78-.425 9.231l68.18 117.63-12.607 8.217c7.249 9.213 12.292 15.024 12.292 15.024l20.316-13.241z" fill="#d1d3d4"/></g></g><g><g><path d="m157.916 148.749 38.273 58.719c6.073 9.317 3.443 21.794-5.875 27.867-9.317 6.073-21.794 3.443-27.867-5.875l-38.273-58.72c-1.206-1.851-.684-4.329 1.167-5.535l27.039-17.624c1.852-1.205 4.33-.683 5.536 1.168z" fill="#76a34f"/></g></g><g><g><path d="m196.189 207.468-38.273-58.719c-1.001-1.537-2.879-2.157-4.547-1.634l32.82 50.353c6.073 9.317 3.443 21.794-5.875 27.867-6.114 3.985-13.587 4.223-19.72 1.283l1.853 2.842c6.073 9.317 18.549 11.948 27.867 5.875 9.318-6.073 11.948-18.549 5.875-27.867z" fill="#648940"/></g></g><g><g><path d="m196.189 207.468-38.273-58.719c-.679-1.042-1.762-1.663-2.909-1.792l36.181 55.511c6.073 9.317 3.443 21.794-5.875 27.867-7.076 4.612-15.974 4.205-22.506-.34 6.195 8.881 18.369 11.295 27.506 5.34 9.319-6.073 11.949-18.549 5.876-27.867z" fill="#5a7a39"/></g></g></g><g><g><g><path d="m106.233 172.954s46.266-53.316 59.966-92.995c8.299-24.036 8.497-44.854 7.473-57.108-.327-3.912-5.48-5.087-7.449-1.691l-80.306 138.553z" fill="#f1f2f2"/></g></g><g><g><path d="m121.19 112.81c-.35 0-.69-.09-1-.26-.95-.56-1.28-1.79-.73-2.74.54-.92 1.81-1.26 2.74-.729.95.56 1.28 1.779.72 2.739-.35.61-1.02.99-1.73.99zm4.01-6.92c-.35 0-.69-.09-1-.27-.46-.261-.79-.7-.93-1.21-.13-.521-.06-1.061.21-1.521l30.46-52.56c.53-.92 1.81-1.261 2.73-.721.46.261.79.7.93 1.21.14.521.07 1.061-.2 1.521l-30.46 52.56c-.36.611-1.02.991-1.74.991z" fill="#fff"/></g></g><g><g><path d="m173.672 22.852c-.327-3.912-5.48-5.087-7.449-1.691l-2.128 3.671c-.125 12.001-1.886 27.721-7.897 45.128-13.7 39.679-59.966 92.995-59.966 92.995l-8.851-5.769-1.465 2.527 20.316 13.241s46.266-53.316 59.966-92.995c8.3-24.036 8.498-44.854 7.474-57.107z" fill="#e6e7e8"/></g></g><g><g><path d="m84.705 148.749-38.273 58.719c-6.073 9.317-3.443 21.794 5.875 27.867 9.317 6.073 21.794 3.443 27.867-5.875l38.273-58.72c1.206-1.851.684-4.329-1.167-5.535l-27.039-17.624c-1.851-1.205-4.329-.683-5.536 1.168z" fill="#76a34f"/></g></g><g><g><path d="m117.28 165.206-27.039-17.624c-1.851-1.206-4.329-.684-5.535 1.167l-.34.521 22.914 14.936c1.851 1.206 2.373 3.685 1.167 5.535l-38.273 58.719c-3.257 4.997-8.355 8.07-13.82 8.909 8.618 3.177 18.592.112 23.82-7.909l38.273-58.719c1.206-1.85.684-4.329-1.167-5.535z" fill="#648940"/></g></g><g><g><circle cx="121.194" cy="127.452" fill="#76a34f" r="6.661"/></g></g><g><g><path d="m122.687 120.959c.11.48.168.98.168 1.493 0 3.679-2.982 6.662-6.661 6.662-.513 0-1.013-.058-1.493-.168.678 2.96 3.328 5.168 6.493 5.168 3.679 0 6.661-2.982 6.661-6.662 0-3.165-2.208-5.815-5.168-6.493z" fill="#648940"/></g></g></g></g></svg>