<svg id="Layer_1" enable-background="new 0 0 256 256" height="512" viewBox="0 0 256 256" width="512" xmlns="http://www.w3.org/2000/svg"><g><g><g><path d="m115.075 71.982h74.405v164.958h-74.405z" fill="#8c3f0a"/></g></g><g><g><path d="m169.479 71.982v154.958h-54.404v10h74.404v-164.958z" fill="#7c3108"/></g></g><g><g><path d="m152.277 19.06c-20.546 0-37.202 16.656-37.202 37.202v15.719h74.405v-15.718c-.001-20.547-16.657-37.203-37.203-37.203z" fill="#ffa91a"/></g></g><g><g><path d="m121.08 58.26c-1.11 0-2.011-.89-2.011-2l.011-.01c0-1.1.899-1.99 2-1.99 1.1 0 1.989.9 1.989 2 0 1.11-.889 2-1.989 2zm1.01-7.91c-.17 0-.34-.02-.51-.06-.511-.14-.95-.47-1.221-.93-.27-.46-.34-1-.199-1.51 3.819-14.59 17.029-24.79 32.12-24.79 1.1 0 1.989.9 1.989 2s-.89 2-1.989 2h-.021c-13.26 0-24.87 8.96-28.24 21.8-.229.88-1.019 1.49-1.929 1.49z" fill="#ffc91d"/></g></g><g><g><path d="m158.138 19.52c6.993 6.764 11.341 16.245 11.341 26.742v15.719h-54.405v10h74.405v-15.718c0-18.552-13.579-33.932-31.341-36.743z" fill="#f79219"/></g></g><g><g><path d="m62.983 198.4 52.092-31.086v69.626h-52.092z" fill="#8c3f0a"/></g></g><g><g><path d="m105.075 173.282v53.658h-42.092v10h52.092v-69.626z" fill="#7c3108"/></g></g><g><g><path d="m110.075 170.298v61.642h-47.092v5h52.092v-69.626z" fill="#6d2e03"/></g></g><g><g><path d="m94.46 200.213h-10.827c-2.209 0-4 1.791-4 4v32.726h18.827v-32.726c0-2.209-1.791-4-4-4z" fill="#f79219"/></g></g><g><g><path d="m115.075 167.314-56.92 33.949c-2.666 1.59-6.049-.331-6.049-3.435 0-1.409.741-2.714 1.951-3.435l61.018-36.393z" fill="#f79219"/></g></g><g><g><circle cx="93.201" cy="219.647" fill="#ef7816" r="2.063"/></g></g><g><g><g><path d="m115.075 92.187h74.405v5.055h-74.405z" fill="#995222"/></g></g><g><g><path d="m115.075 123.956h74.405v5.055h-74.405z" fill="#995222"/></g></g><g><g><path d="m115.075 155.725h74.405v5.055h-74.405z" fill="#995222"/></g></g><g><g><path d="m115.075 187.494h74.405v5.055h-74.405z" fill="#995222"/></g></g><g><g><path d="m115.075 219.263h74.405v5.055h-74.405z" fill="#995222"/></g></g></g><g><g><path d="m189.479 224.318v-152.336h11.526v140.81c0 6.365-5.16 11.526-11.526 11.526z" fill="#f79219"/></g></g><g><g><path d="m198.005 63.156h-5.526l-3 8.826h11.526z" fill="#ffc91d"/></g></g><g><g><path d="m201.895 97.242h-12.415v-5.055h12.415c1.105 0 2 .895 2 2v1.055c0 1.105-.896 2-2 2z" fill="#ef7816"/></g></g><g><g><path d="m201.895 129.011h-12.415v-5.055h12.415c1.105 0 2 .895 2 2v1.055c0 1.104-.896 2-2 2z" fill="#ef7816"/></g></g><g><g><path d="m201.895 160.78h-12.415v-5.055h12.415c1.105 0 2 .895 2 2v1.055c0 1.104-.896 2-2 2z" fill="#ef7816"/></g></g><g><g><path d="m201.895 192.549h-12.415v-5.055h12.415c1.105 0 2 .895 2 2v1.055c0 1.104-.896 2-2 2z" fill="#ef7816"/></g></g></g></svg>