<svg id="Layer_1" enable-background="new 0 0 256 256" height="512" viewBox="0 0 256 256" width="512" xmlns="http://www.w3.org/2000/svg"><g><g><g><g><g><circle cx="128" cy="128" fill="#ffa91a" r="103.976"/></g></g></g><g><g><path d="m30.74 118.18c-.08 0-.17 0-.25-.01-1.09-.141-1.88-1.13-1.74-2.23.13-1.08 1.14-1.88 2.22-1.739.53.06 1.01.329 1.33.75.34.42.48.939.42 1.47-.13 1.009-.98 1.759-1.98 1.759zm1.28-7.89c-.13 0-.27-.011-.41-.04-1.08-.221-1.77-1.28-1.55-2.36 3.43-16.72 11.19-32.42 22.46-45.39 11.17-12.86 25.49-22.71 41.41-28.5 2.53-.92 5.15-1.75 7.78-2.471 1.04-.289 2.17.36 2.45 1.4.29 1.07-.34 2.17-1.4 2.46-2.52.69-5.04 1.49-7.46 2.37-31.18 11.33-54.68 38.5-61.32 70.92v.01c-.19.931-1.02 1.601-1.96 1.601z" fill="#ffc91d"/></g></g><g><g><path d="m164.175 30.489c28.755 18.497 47.801 50.78 47.801 87.511 0 57.425-46.552 103.977-103.976 103.977-12.721 0-24.909-2.285-36.175-6.466 16.2 10.421 35.481 16.466 56.175 16.466 57.425 0 103.976-46.552 103.976-103.977 0-44.704-28.211-82.817-67.801-97.511z" fill="#f79219"/></g></g><g><g><g><g><path d="m128 180.457c-1.381 0-2.5-1.119-2.5-2.5v-89.398c0-1.381 1.119-2.5 2.5-2.5s2.5 1.119 2.5 2.5v89.398c0 1.381-1.119 2.5-2.5 2.5z" fill="#5a7a39"/></g></g><g><g><path d="m128 152.813c-.663 0-1.299-.264-1.768-.732l-14.813-14.813c-.977-.977-.977-2.559 0-3.535.976-.977 2.56-.977 3.535 0l13.046 13.045 13.045-13.046c.976-.977 2.56-.977 3.535 0 .977.977.977 2.559 0 3.535l-14.813 14.813c-.468.47-1.104.733-1.767.733z" fill="#5a7a39"/></g></g><g><g><path d="m128 124.709c-.64 0-1.28-.244-1.768-.732l-33.651-33.65c-.977-.977-.977-2.559 0-3.535.976-.977 2.56-.977 3.535 0l31.884 31.882 31.883-31.883c.976-.977 2.56-.977 3.535 0 .977.977.977 2.559 0 3.535l-33.651 33.65c-.487.489-1.127.733-1.767.733z" fill="#5a7a39"/></g></g></g><g><g><g><g><path d="m89.256 109.147c-1.346.049-2.418 1.121-2.467 2.467-.178 4.839.224 16.161 7.086 23.023s18.184 7.264 23.023 7.086c1.346-.049 2.418-1.121 2.467-2.467.178-4.839-.224-16.161-7.086-23.023s-18.184-7.263-23.023-7.086z" fill="#76a34f"/></g></g><g><g><path d="m112.279 116.233c-1.308-1.308-2.779-2.382-4.336-3.261 3.733 6.608 3.969 14.77 3.825 18.687-.049 1.346-1.121 2.418-2.467 2.467-3.916.144-12.079-.092-18.687-3.825.879 1.557 1.953 3.027 3.261 4.336 6.862 6.862 18.184 7.264 23.023 7.086 1.346-.049 2.418-1.121 2.467-2.467.178-4.839-.224-16.16-7.086-23.023z" fill="#648940"/></g></g><g><g><path d="m166.744 109.147c1.346.049 2.418 1.121 2.467 2.467.178 4.839-.224 16.161-7.086 23.023s-18.184 7.264-23.023 7.086c-1.346-.049-2.418-1.121-2.467-2.467-.178-4.839.224-16.161 7.086-23.023s18.184-7.263 23.023-7.086z" fill="#76a34f"/></g></g><g><g><path d="m169.211 111.614c-.049-1.346-1.121-2.418-2.467-2.467-1.331-.049-3.153-.054-5.237.107-.425 5.493-2.004 12.811-6.979 17.785-4.975 4.975-12.292 6.554-17.786 6.979-.161 2.084-.156 3.906-.107 5.238.049 1.346 1.121 2.418 2.467 2.467 4.839.178 16.161-.224 23.023-7.086s7.264-18.183 7.086-23.023z" fill="#648940"/></g></g></g><g><g><path d="m126.294 98.931c.975.873 2.438.873 3.412 0 4.626-4.142 17.062-16.653 17.062-31.444s-12.436-27.302-17.062-31.444c-.975-.873-2.438-.873-3.412 0-4.626 4.142-17.062 16.653-17.062 31.444s12.436 27.302 17.062 31.444z" fill="#76a34f"/></g></g><g><g><path d="m129.706 36.043c-.975-.872-2.438-.872-3.412 0-.719.644-1.626 1.489-2.645 2.514 4.159 5.744 7.925 13.193 7.925 21.333 0 12.493-8.873 23.36-14.417 28.931 3.398 4.693 7.057 8.248 9.137 10.11.974.873 2.438.873 3.412 0 4.626-4.142 17.062-16.653 17.062-31.444s-12.436-27.302-17.062-31.444z" fill="#648940"/></g></g><g><g><g><path d="m181.921 65.82c1.346.049 2.418 1.121 2.467 2.467.178 4.839-.224 16.161-7.086 23.023s-18.184 7.264-23.023 7.086c-1.346-.049-2.418-1.121-2.467-2.467-.178-4.839.224-16.161 7.086-23.023 6.863-6.862 18.184-7.263 23.023-7.086z" fill="#76a34f"/></g></g><g><g><path d="m184.388 68.287c-.049-1.346-1.121-2.418-2.467-2.467-1.331-.049-3.153-.054-5.237.107-.425 5.493-2.004 12.811-6.979 17.785-4.975 4.975-12.292 6.554-17.786 6.979-.161 2.084-.156 3.906-.107 5.238.049 1.346 1.121 2.418 2.467 2.467 4.839.178 16.161-.224 23.023-7.086s7.264-18.183 7.086-23.023z" fill="#648940"/></g></g><g><g><path d="m74.079 65.82c-1.346.049-2.418 1.121-2.467 2.467-.178 4.839.224 16.161 7.086 23.023s18.184 7.264 23.023 7.086c1.346-.049 2.418-1.121 2.467-2.467.178-4.839-.224-16.161-7.086-23.023-6.863-6.862-18.184-7.263-23.023-7.086z" fill="#76a34f"/></g></g><g><g><path d="m97.101 72.906c-1.308-1.308-2.779-2.382-4.336-3.261 3.733 6.608 3.969 14.77 3.825 18.687-.049 1.346-1.121 2.418-2.467 2.467-3.916.144-12.079-.092-18.687-3.825.879 1.557 1.953 3.027 3.261 4.336 6.862 6.862 18.184 7.264 23.023 7.086 1.346-.049 2.418-1.121 2.467-2.467.178-4.839-.223-16.16-7.086-23.023z" fill="#648940"/></g></g></g></g></g><g><g><g><path d="m128 231.975c-.242-57.218-46.699-103.527-103.974-103.528.242 57.217 46.7 103.527 103.974 103.528z" fill="#76a34f"/></g></g><g><g><path d="m25.42 145.067c7.247 43.878 41.965 78.489 85.897 85.575-7.246-43.878-41.964-78.489-85.897-85.575z" fill="#648940"/></g></g><g><g><path d="m30.086 163.06c10.503 29.329 33.809 52.564 63.184 62.972-10.503-29.329-33.81-52.565-63.184-62.972z" fill="#5a7a39"/></g></g><g><g><path d="m71.289 215.161c16.31 10.634 35.789 16.813 56.711 16.813 57.157 0 103.543-46.12 103.973-103.176-65.721 3.732-123.585 36.823-160.684 86.363z" fill="#76a34f"/></g></g><g><g><path d="m128 231.975c51.175 0 93.715-36.971 102.368-85.661-56.018 7.744-105.179 36.953-138.912 79.057 11.369 4.269 23.684 6.604 36.544 6.604z" fill="#648940"/></g></g><g><g><path d="m128 231.975c43.841 0 81.344-27.133 96.633-65.522-42.535 10.417-80.128 33.421-108.606 64.84 3.929.45 7.924.682 11.973.682z" fill="#5a7a39"/></g></g></g></g><g><g><g><circle cx="188.182" cy="199.213" fill="#f1f2f2" r="51.184"/></g></g><g><g><path d="m219.029 158.366c6.488 8.578 10.336 19.263 10.336 30.848 0 28.268-22.916 51.184-51.184 51.184-11.584 0-22.27-3.849-30.847-10.337 9.344 12.354 24.164 20.337 40.847 20.337 28.268 0 51.184-22.916 51.184-51.184.001-16.685-7.982-31.504-20.336-40.848z" fill="#e6e7e8"/></g></g><g><g><path d="m221.788 160.607c7.833 8.991 12.578 20.745 12.578 33.606 0 28.268-22.916 51.184-51.184 51.184-12.861 0-24.615-4.744-33.606-12.578 9.383 10.771 23.2 17.578 38.606 17.578 28.268 0 51.184-22.916 51.184-51.184 0-15.406-6.807-29.223-17.578-38.606z" fill="#d1d3d4"/></g></g><g><g><g><path d="m197.18 223.4c0 5.135-4.163 9.298-9.298 9.298s-9.298-4.163-9.298-9.298 4.163-9.298 9.298-9.298 9.298 4.163 9.298 9.298z" fill="#76a34f"/></g></g><g><g><path d="m191.464 214.818c.461 1.103.716 2.313.716 3.582 0 5.135-4.163 9.298-9.298 9.298-1.27 0-2.48-.255-3.582-.716 1.403 3.357 4.717 5.716 8.582 5.716 5.135 0 9.298-4.163 9.298-9.298 0-3.865-2.359-7.179-5.716-8.582z" fill="#648940"/></g></g><g><g><path d="m206.123 209.622c-.909.829-2.298.834-3.213.011-8.47-7.551-21.256-7.551-29.726 0-.914.823-2.304.818-3.213-.011l-3.516-3.252c-.97-.89-1.034-2.398-.144-3.367.04-.044.081-.086.125-.126 12.207-11.26 31.015-11.26 43.222 0 .96.901 1.007 2.409.106 3.369-.04.043-.082.085-.126.125z" fill="#76a34f"/></g></g><g><g><path d="m209.659 202.877c-1.342-1.238-2.765-2.34-4.249-3.306.011.599-.202 1.203-.645 1.674-.04.043-.082.085-.126.125l-3.516 3.252c-.909.829-2.298.834-3.213.011-8.47-7.551-21.256-7.551-29.726 0-.685.617-1.636.769-2.452.458.097.476.338.926.723 1.279l3.516 3.252c.909.829 2.298.834 3.213.011 8.47-7.551 21.256-7.551 29.726 0 .914.823 2.304.818 3.213-.011l3.516-3.252c.044-.04.086-.081.126-.125.901-.959.853-2.467-.106-3.368z" fill="#648940"/></g></g><g><g><path d="m220.526 195.279c-.904.874-2.334.888-3.255.032-16.407-15.48-42.04-15.48-58.447 0-.921.856-2.351.842-3.255-.032l-3.45-3.299c-.955-.92-.983-2.441-.063-3.396.027-.028.055-.056.084-.083 20.119-19.122 51.694-19.122 71.813 0 .966.908 1.013 2.428.105 3.395-.027.029-.055.057-.083.084z" fill="#76a34f"/></g></g><g><g><path d="m223.954 188.501c-1.375-1.307-2.803-2.523-4.277-3.651.12.715-.083 1.477-.618 2.045-.027.029-.055.057-.083.084l-3.45 3.298c-.904.874-2.334.888-3.255.032-16.407-15.48-42.04-15.48-58.447 0-.657.61-1.572.778-2.371.508.104.428.326.833.667 1.162l3.45 3.298c.904.874 2.334.888 3.255.032 16.407-15.48 42.04-15.48 58.447 0 .921.856 2.351.842 3.255-.032l3.45-3.298c.028-.027.056-.056.083-.084.907-.965.86-2.485-.106-3.394z" fill="#648940"/></g></g></g></g></g></svg>