<svg id="Layer_1" enable-background="new 0 0 256 256" height="512" viewBox="0 0 256 256" width="512" xmlns="http://www.w3.org/2000/svg"><g><g><g><g><g><path d="m123.383 151.173h9.192v39.108h-9.192z" fill="#76a34f"/></g></g><g><g><path d="m114.704 199.362h26.549v5.452h-26.549z" fill="#58595b"/></g></g><g><g><g><path d="m146.539 190.281h-37.12v-21.093c0-6.865 5.585-12.45 12.45-12.45h12.22c6.865 0 12.45 5.585 12.45 12.45zm-31.374-5.746h25.628v-15.347c0-3.696-3.007-6.704-6.704-6.704h-12.22c-3.697 0-6.704 3.007-6.704 6.704z" fill="#808285"/></g></g></g><g><g><path d="m148.403 151.173h-40.847c-1.89 0-3.422-1.532-3.422-3.422 0-1.89 1.532-3.422 3.422-3.422h40.847c1.89 0 3.422 1.532 3.422 3.422 0 1.89-1.532 3.422-3.422 3.422z" fill="#939598"/></g></g><g><g><path d="m149.607 144.547c.141.375.218.78.218 1.204 0 1.89-1.532 3.422-3.422 3.422h-40.847c-.424 0-.829-.077-1.204-.218.487 1.296 1.738 2.218 3.204 2.218h40.847c1.89 0 3.422-1.532 3.422-3.422 0-1.466-.922-2.717-2.218-3.204z" fill="#808285"/></g></g><g><g><path d="m144.277 199.362h-32.597c-1.249 0-2.261-1.012-2.261-2.261v-6.82h37.12v6.82c0 1.249-1.013 2.261-2.262 2.261z" fill="#76a34f"/></g></g><g><g><path d="m141.539 190.226v1.82c0 1.249-1.013 2.261-2.261 2.261h-29.858v2.739c0 1.249 1.013 2.261 2.261 2.261h32.597c1.249 0 2.261-1.012 2.261-2.261v-6.82z" fill="#648940"/></g></g></g></g><g><g><g><g><g><path d="m194.646 207.314c-1.381 0-2.5-1.119-2.5-2.5v-43.789c0-1.381 1.119-2.5 2.5-2.5s2.5 1.119 2.5 2.5v43.789c0 1.381-1.119 2.5-2.5 2.5z" fill="#5a7a39"/></g></g><g><g><path d="m194.646 200.759c-.663 0-1.299-.264-1.768-.732l-8.931-8.932c-.977-.977-.977-2.56 0-3.535.977-.977 2.559-.977 3.535 0l7.163 7.163 7.163-7.163c.977-.977 2.559-.977 3.535 0 .977.976.977 2.559 0 3.535l-8.931 8.932c-.467.468-1.102.732-1.766.732z" fill="#5a7a39"/></g></g><g><g><path d="m194.646 183.814c-.663 0-1.299-.264-1.768-.732l-20.288-20.289c-.977-.977-.977-2.56 0-3.535.977-.977 2.559-.977 3.535 0l18.521 18.521 18.521-18.521c.977-.977 2.559-.977 3.535 0s.977 2.559 0 3.535l-20.289 20.289c-.468.469-1.103.732-1.767.732z" fill="#5a7a39"/></g></g></g><g><g><g><g><path d="m171.287 173.439c-.812.03-1.458.676-1.487 1.487-.107 2.918.135 9.744 4.272 13.881s10.963 4.379 13.881 4.272c.812-.03 1.458-.676 1.487-1.487.107-2.918-.135-9.744-4.272-13.881s-10.963-4.379-13.881-4.272z" fill="#76a34f"/></g></g><g><g><path d="m185.168 177.711c-.864-.864-1.846-1.558-2.885-2.115 2.108 3.934 2.242 8.688 2.157 10.996-.03.812-.676 1.458-1.487 1.487-2.308.085-7.062-.049-10.996-2.157.557 1.039 1.25 2.021 2.115 2.885 4.137 4.137 10.963 4.379 13.881 4.272.812-.029 1.458-.675 1.487-1.487.108-2.918-.134-9.743-4.272-13.881z" fill="#648940"/></g></g><g><g><path d="m218.006 173.439c.812.03 1.458.676 1.487 1.487.107 2.918-.135 9.744-4.272 13.881s-10.963 4.379-13.881 4.272c-.812-.03-1.458-.676-1.487-1.487-.107-2.918.135-9.744 4.272-13.881 4.138-4.137 10.963-4.379 13.881-4.272z" fill="#76a34f"/></g></g><g><g><path d="m219.493 174.926c-.03-.812-.676-1.458-1.487-1.488-.899-.033-2.169-.032-3.617.104-.308 3.252-1.305 7.401-4.168 10.264s-7.012 3.86-10.264 4.168c-.137 1.448-.137 2.718-.104 3.617.03.812.676 1.458 1.488 1.487 2.917.107 9.743-.135 13.881-4.272s4.379-10.962 4.271-13.88z" fill="#648940"/></g></g></g><g><g><path d="m193.58 167.279c.588.526 1.47.526 2.057 0 2.789-2.497 10.287-10.041 10.287-18.958 0-8.918-7.498-16.461-10.287-18.958-.588-.526-1.47-.526-2.057 0-2.789 2.497-10.287 10.041-10.287 18.958 0 8.918 7.498 16.461 10.287 18.958z" fill="#76a34f"/></g></g><g><g><path d="m201.001 135.26c1.147 2.463 1.924 5.191 1.924 8.062 0 8.917-7.498 16.461-10.287 18.958-.588.526-1.47.526-2.057 0-1.224-1.097-3.357-3.166-5.364-5.896 2.416 5.189 6.472 9.203 8.364 10.896.588.526 1.47.526 2.057 0 2.789-2.497 10.287-10.041 10.287-18.958-.001-5.003-2.36-9.573-4.924-13.062z" fill="#648940"/></g></g><g><g><g><path d="m227.157 147.316c.812.03 1.458.676 1.487 1.487.107 2.918-.135 9.744-4.272 13.881s-10.963 4.379-13.881 4.272c-.812-.03-1.458-.676-1.487-1.487-.107-2.918.135-9.744 4.272-13.881s10.963-4.379 13.881-4.272z" fill="#76a34f"/></g></g><g><g><path d="m228.644 148.804c-.03-.812-.676-1.458-1.488-1.487-.899-.033-2.169-.033-3.617.104-.308 3.252-1.305 7.401-4.168 10.264s-7.012 3.86-10.264 4.168c-.137 1.448-.137 2.718-.104 3.617.03.812.676 1.458 1.487 1.488 2.918.107 9.744-.135 13.881-4.272 4.138-4.139 4.38-10.965 4.273-13.882z" fill="#648940"/></g></g><g><g><path d="m162.137 147.316c-.812.03-1.458.676-1.487 1.487-.107 2.918.135 9.744 4.272 13.881s10.963 4.379 13.881 4.272c.812-.03 1.458-.676 1.487-1.487.107-2.918-.135-9.744-4.272-13.881-4.138-4.137-10.964-4.379-13.881-4.272z" fill="#76a34f"/></g></g><g><g><path d="m176.018 151.588c-.864-.864-1.846-1.558-2.885-2.115 2.108 3.934 2.242 8.688 2.157 10.996-.03.812-.676 1.458-1.488 1.488-2.308.084-7.062-.05-10.996-2.158.557 1.039 1.25 2.021 2.115 2.885 4.137 4.137 10.963 4.379 13.881 4.272.812-.03 1.458-.676 1.488-1.488.107-2.916-.135-9.742-4.272-13.88z" fill="#648940"/></g></g></g></g></g><g><g><g><g><path d="m61.353 207.314c-1.381 0-2.5-1.119-2.5-2.5v-43.789c0-1.381 1.119-2.5 2.5-2.5s2.5 1.119 2.5 2.5v43.789c0 1.381-1.119 2.5-2.5 2.5z" fill="#5a7a39"/></g></g><g><g><path d="m61.353 200.759c-.663 0-1.299-.264-1.768-.732l-8.931-8.932c-.976-.977-.976-2.56 0-3.535.976-.977 2.559-.977 3.536 0l7.163 7.163 7.164-7.163c.976-.977 2.56-.977 3.535 0 .977.976.977 2.559 0 3.535l-8.931 8.932c-.469.468-1.105.732-1.768.732z" fill="#5a7a39"/></g></g><g><g><path d="m61.353 183.814c-.663 0-1.299-.264-1.768-.732l-20.289-20.289c-.977-.977-.977-2.559 0-3.535.976-.977 2.56-.977 3.535 0l18.521 18.521 18.521-18.521c.976-.977 2.56-.977 3.535 0 .977.977.977 2.559 0 3.535l-20.289 20.289c-.467.469-1.103.732-1.766.732z" fill="#5a7a39"/></g></g></g><g><g><g><g><path d="m37.994 173.439c-.812.03-1.458.676-1.487 1.487-.107 2.918.135 9.744 4.272 13.881s10.963 4.379 13.881 4.272c.812-.03 1.458-.676 1.487-1.487.107-2.918-.135-9.744-4.272-13.881-4.138-4.137-10.964-4.379-13.881-4.272z" fill="#76a34f"/></g></g><g><g><path d="m51.875 177.711c-.864-.864-1.846-1.558-2.885-2.115 2.108 3.934 2.242 8.688 2.157 10.996-.03.812-.676 1.458-1.487 1.487-2.308.085-7.062-.049-10.996-2.157.557 1.039 1.25 2.021 2.115 2.885 4.137 4.137 10.963 4.379 13.881 4.272.812-.029 1.458-.675 1.487-1.487.107-2.918-.135-9.743-4.272-13.881z" fill="#648940"/></g></g><g><g><path d="m84.713 173.439c.812.03 1.458.676 1.487 1.487.107 2.918-.135 9.744-4.272 13.881s-10.963 4.379-13.881 4.272c-.812-.03-1.458-.676-1.487-1.487-.107-2.918.135-9.744 4.272-13.881s10.963-4.379 13.881-4.272z" fill="#76a34f"/></g></g><g><g><path d="m86.2 174.926c-.03-.812-.676-1.458-1.487-1.488-.899-.033-2.169-.032-3.617.104-.308 3.252-1.305 7.401-4.168 10.264s-7.012 3.86-10.264 4.168c-.137 1.448-.137 2.718-.104 3.617.03.812.676 1.458 1.488 1.487 2.917.107 9.743-.135 13.881-4.272s4.378-10.962 4.271-13.88z" fill="#648940"/></g></g></g><g><g><path d="m60.286 167.279c.588.526 1.47.526 2.057 0 2.789-2.497 10.287-10.041 10.287-18.958 0-8.918-7.498-16.461-10.287-18.958-.588-.526-1.47-.526-2.057 0-2.789 2.497-10.287 10.041-10.287 18.958 0 8.918 7.498 16.461 10.287 18.958z" fill="#76a34f"/></g></g><g><g><path d="m67.707 135.26c1.147 2.463 1.924 5.191 1.924 8.062 0 8.917-7.498 16.461-10.287 18.958-.588.526-1.47.526-2.057 0-1.224-1.097-3.357-3.166-5.364-5.896 2.416 5.189 6.472 9.203 8.364 10.896.588.526 1.47.526 2.057 0 2.789-2.497 10.287-10.041 10.287-18.958 0-5.003-2.36-9.573-4.924-13.062z" fill="#648940"/></g></g><g><g><g><path d="m93.863 147.316c.812.03 1.458.676 1.487 1.487.107 2.918-.135 9.744-4.272 13.881s-10.963 4.379-13.881 4.272c-.812-.03-1.458-.676-1.487-1.487-.107-2.918.135-9.744 4.272-13.881 4.138-4.137 10.964-4.379 13.881-4.272z" fill="#76a34f"/></g></g><g><g><path d="m95.351 148.804c-.03-.812-.676-1.458-1.488-1.487-.899-.033-2.169-.033-3.617.104-.308 3.252-1.305 7.401-4.168 10.264s-7.012 3.86-10.264 4.168c-.137 1.448-.137 2.718-.104 3.617.03.812.676 1.458 1.487 1.488 2.918.107 9.744-.135 13.881-4.272 4.138-4.139 4.38-10.965 4.273-13.882z" fill="#648940"/></g></g><g><g><path d="m28.843 147.316c-.812.03-1.458.676-1.487 1.487-.107 2.918.135 9.744 4.272 13.881s10.963 4.379 13.881 4.272c.812-.03 1.458-.676 1.487-1.487.107-2.918-.135-9.744-4.272-13.881s-10.963-4.379-13.881-4.272z" fill="#76a34f"/></g></g><g><g><path d="m42.724 151.588c-.864-.864-1.846-1.558-2.885-2.115 2.108 3.934 2.242 8.688 2.157 10.996-.03.812-.676 1.458-1.488 1.488-2.308.084-7.062-.05-10.996-2.158.557 1.039 1.25 2.021 2.115 2.885 4.137 4.137 10.963 4.379 13.881 4.272.812-.03 1.458-.676 1.488-1.488.107-2.916-.135-9.742-4.272-13.88z" fill="#648940"/></g></g></g></g></g></g><g><g><g><g><path d="m226.61 204.815h-197.221c-6.431 0-11.645 5.214-11.645 11.645 0 6.431 5.214 11.645 11.645 11.645h197.221c6.431 0 11.645-5.213 11.645-11.645 0-6.432-5.213-11.645-11.645-11.645z" fill="#8c3f0a"/></g></g></g><g><g><path d="m231.951 206.119c.828 1.601 1.304 3.414 1.304 5.341 0 6.431-5.214 11.645-11.645 11.645h-197.221c-1.927 0-3.74-.476-5.341-1.304 1.937 3.742 5.836 6.304 10.341 6.304h197.221c6.431 0 11.645-5.214 11.645-11.645 0-4.505-2.562-8.404-6.304-10.341z" fill="#7c3108"/></g></g></g><g><g><g><g><g><path d="m116.046 130.407c-2.762 0-5-2.238-5-5v-65.27c0-12.264-9.978-22.241-22.242-22.241s-22.241 9.978-22.241 22.241v19.015c0 2.762-2.238 5-5 5s-5-2.238-5-5v-19.015c0-17.778 14.463-32.241 32.241-32.241s32.242 14.463 32.242 32.241v65.271c0 2.761-2.238 4.999-5 4.999z" fill="#478cf7"/></g></g></g><g><g><g><path d="m108.956 34.986c4.434 5.523 7.09 12.532 7.09 20.15v65.271c0 2.762-2.238 5-5 5 0 2.762 2.238 5 5 5s5-2.238 5-5v-65.27c0-10.16-4.724-19.237-12.09-25.151z" fill="#377de2"/></g></g></g><g><g><g><path d="m73.049 111.75c0 6.344-5.143 11.487-11.487 11.487s-11.487-5.143-11.487-11.487c0-4.42 5.577-14.862 8.959-20.788 1.119-1.96 3.936-1.96 5.055 0 3.383 5.925 8.96 16.367 8.96 20.788z" fill="#478cf7"/></g></g></g><g><g><path d="m57.03 116.84c-.66 0-1.28-.33-1.65-.87-.63-.91-.39-2.16.52-2.78.88-.609 2.18-.359 2.78.511v.02c.3.44.41.96.31 1.49-.1.52-.39.979-.83 1.28-.34.219-.73.349-1.13.349zm.46-7.58c-.26 0-.52-.05-.76-.15-.5-.199-.88-.59-1.09-1.08-.2-.489-.2-1.029 0-1.529 1-2.431 2.4-5.34 4.16-8.641.5-.939 1.75-1.33 2.7-.83.97.521 1.34 1.73.83 2.7-1.7 3.19-3.04 5.98-3.99 8.3 0 0 0 0-.01 0-.31.749-1.03 1.23-1.84 1.23z" fill="#5e9cf7"/></g></g><g><g><path d="m64.09 90.962c-.651-1.141-1.878-1.618-3.01-1.431 3.216 5.913 6.969 13.592 6.969 17.218 0 6.344-5.143 11.487-11.487 11.487-1.884 0-3.661-.453-5.23-1.257 1.903 3.715 5.77 6.257 10.23 6.257 6.344 0 11.487-5.143 11.487-11.487 0-4.42-5.577-14.862-8.959-20.787z" fill="#377de2"/></g></g></g><g><g><g><g><path d="m139.954 130.407c-2.762 0-5-2.238-5-5v-65.27c0-17.778 14.464-32.241 32.242-32.241s32.241 14.463 32.241 32.241v19.015c0 2.762-2.238 5-5 5s-5-2.238-5-5v-19.015c0-12.264-9.978-22.241-22.241-22.241-12.265 0-22.242 9.978-22.242 22.241v65.271c0 2.761-2.238 4.999-5 4.999z" fill="#478cf7"/></g></g></g><g><g><g><path d="m187.347 34.986c4.434 5.523 7.09 12.533 7.09 20.151v19.015c0 2.762-2.238 5-5 5 0 2.762 2.238 5 5 5s5-2.238 5-5v-19.015c0-10.16-4.723-19.238-12.09-25.151z" fill="#377de2"/></g></g></g><g><g><g><path d="m181.951 111.75c0 6.344 5.143 11.487 11.487 11.487s11.487-5.143 11.487-11.487c0-4.42-5.577-14.862-8.959-20.788-1.119-1.96-3.936-1.96-5.055 0-3.383 5.925-8.96 16.367-8.96 20.788z" fill="#478cf7"/></g></g></g><g><g><path d="m195.965 90.962c-1.057-1.852-3.628-1.954-4.853-.309 2.101 4.353 3.812 8.648 3.812 11.097 0 6.344-5.143 11.487-11.487 11.487-.474 0-.942-.029-1.402-.085.692 5.683 5.532 10.085 11.402 10.085 6.344 0 11.487-5.143 11.487-11.487 0-4.421-5.577-14.863-8.959-20.788z" fill="#377de2"/></g></g><g><g><path d="m195.965 90.962c-.183-.321-.412-.589-.671-.805 3.135 5.819 6.63 13.093 6.63 16.592 0 6.344-5.143 11.487-11.487 11.487-3.126 0-5.96-1.249-8.031-3.275 1.39 4.781 5.802 8.275 11.031 8.275 6.344 0 11.487-5.143 11.487-11.487 0-4.42-5.577-14.862-8.959-20.787z" fill="#2266d3"/></g></g></g></g></g></svg>