<svg id="Layer_1" enable-background="new 0 0 256 256" height="512" viewBox="0 0 256 256" width="512" xmlns="http://www.w3.org/2000/svg"><g><g><g><path d="m222.973 111.509h-189.946c-4.418 0-8 3.582-8 8v100.455c0 4.418 3.582 8 8 8h189.946c4.418 0 8-3.582 8-8v-100.455c0-4.418-3.582-8-8-8z" fill="#8c3f0a"/></g></g><g><g><path d="m223.007 111.509h-2v98.455c0 4.418-3.582 8-8 8h-187.945v2c0 4.418 3.582 8 8 8h189.946c4.418 0 8-3.582 8-8v-100.455c-.001-4.418-3.582-8-8.001-8z" fill="#7c3108"/></g></g><g><g><path d="m25.027 181.009h205.946v22.781h-205.946z" fill="#f79219"/></g></g><g><g><path d="m221.007 181.009h10v22.781h-10z" fill="#ef7816"/></g></g><g><g><path d="m25.027 139.887h205.946v22.781h-205.946z" fill="#d1d3d4"/></g></g><g><g><path d="m221.007 139.887h10v22.781h-10z" fill="#939598"/></g></g><g><g><g><g><g><g><g><path d="m191.871 192.144 14.513-14.513c.281-.281.587-.523.904-.739l-10.659-10.659c-4.649 6.072-10.084 11.507-16.156 16.156l10.659 10.659c.216-.317.458-.622.739-.904z" fill="#939598"/></g></g><g><g><path d="m216.913 225.948-25.042-25.042c-2.42-2.42-2.42-6.343 0-8.762l14.513-14.513c2.42-2.42 6.343-2.42 8.762 0l25.042 25.042c2.419 2.42 2.419 6.343 0 8.762l-14.513 14.513c-2.419 2.42-6.342 2.42-8.762 0z" fill="#58595b"/></g></g><g><g><path d="m235.796 215.828c-2.42 2.42-6.343 2.42-8.762 0l-25.042-25.042c-2.42-2.42-2.42-6.343 0-8.762l4.401-4.401c-.003.003-.005.005-.008.008l-14.513 14.513c-2.42 2.42-2.42 6.343 0 8.763l25.042 25.042c2.42 2.42 6.343 2.42 8.762 0l14.513-14.513.006-.006z" fill="#414042"/></g></g><g><g><path d="m189.023 174.907c-2.681 2.675-5.536 5.176-8.549 7.482l10.659 10.659c.216-.317.457-.623.739-.904l7.194-7.194z" fill="#808285"/></g></g></g><g><g><g><path d="m128.034 27.438c-47.693 0-86.356 38.663-86.356 86.356s38.663 86.356 86.356 86.356 86.356-38.663 86.356-86.356-38.662-86.356-86.356-86.356zm0 151.502c-35.979 0-65.145-29.167-65.145-65.145s29.167-65.146 65.145-65.146 65.145 29.167 65.145 65.146-29.166 65.145-65.145 65.145z" fill="#939598"/></g></g><g><g><path d="m128.034 41.115c-40.14 0-72.679 32.54-72.679 72.679s32.54 72.679 72.679 72.679 72.679-32.54 72.679-72.679-32.539-72.679-72.679-72.679zm0 137.825c-35.979 0-65.145-29.167-65.145-65.145s29.167-65.146 65.145-65.146 65.145 29.167 65.145 65.146-29.166 65.145-65.145 65.145z" fill="#808285"/></g></g></g></g></g><g><g><circle cx="128.022" cy="113.795" fill="#f1f2f2" r="65.146"/></g></g><g><g><path d="m168.806 63.01c8.978 11.165 14.362 25.342 14.362 40.784 0 35.979-29.167 65.146-65.146 65.146-15.442 0-29.619-5.384-40.784-14.362 11.94 14.849 30.247 24.362 50.784 24.362 35.979 0 65.146-29.167 65.146-65.146 0-20.537-9.513-38.843-24.362-50.784z" fill="#e6e7e8"/></g></g><g><g><path d="m171.513 65.303c10.351 11.533 16.654 26.774 16.654 43.492 0 35.979-29.167 65.146-65.146 65.146-16.717 0-31.958-6.303-43.491-16.654 11.927 13.289 29.23 21.654 48.491 21.654 35.979 0 65.146-29.167 65.146-65.146.001-19.262-8.365-36.565-21.654-48.492z" fill="#d1d3d4"/></g></g></g><g><g><path d="m68.88 115.8c-1.11 0-2-.9-2-2.01v-.011c.01-1.1.9-1.989 2-1.989s2 .899 2 2c0 1.109-.9 2.01-2 2.01zm.53-7.981c-.09 0-.18-.01-.27-.02-1.09-.15-1.86-1.16-1.71-2.25 1.4-10.34 5.49-20.23 11.81-28.59 6.22-8.22 14.47-14.79 23.84-18.99.98-.44 2.21.03 2.64 1 .22.49.24 1.03.05 1.53s-.56.899-1.05 1.12c-17.94 8.041-30.71 25.081-33.32 44.471-.14.99-.99 1.729-1.99 1.729z" fill="#fff"/></g></g></g><g><g><g><path d="m121.368 141.609c-2.732 0-5.463-1.042-7.548-3.126l-21.019-21.019c-4.168-4.169-4.168-10.926 0-15.095 4.169-4.167 10.926-4.167 15.095 0l13.472 13.473 26.735-26.736c4.169-4.167 10.926-4.167 15.095 0 4.168 4.169 4.168 10.926 0 15.095l-34.283 34.283c-2.084 2.082-4.815 3.125-7.547 3.125z" fill="#ffa91a"/></g></g></g><g><g><g><path d="m163.198 89.105c-.876-.876-1.867-1.567-2.924-2.074 1.907 3.971 1.216 8.877-2.076 12.169l-34.283 34.283c-2.085 2.083-4.815 3.125-7.548 3.125-2.732 0-5.462-1.042-7.547-3.125l4.999 5c2.085 2.083 4.815 3.125 7.548 3.125s5.463-1.042 7.548-3.125l34.283-34.283c4.168-4.169 4.168-10.925 0-15.095z" fill="#f79219"/></g></g><g><g><path d="m116.368 110.842-8.472-8.473c-.006-.006-.012-.012-.018-.018z" fill="#f79219"/></g></g></g></g></svg>