<svg id="Layer_1" enable-background="new 0 0 256 256" height="512" viewBox="0 0 256 256" width="512" xmlns="http://www.w3.org/2000/svg"><g><g><g><g><g><g><path d="m54.225 50.359h-6v-12.87c0-1.338-.536-2.62-1.489-3.56l-6.33-6.245c-.786-.776-.795-2.042-.019-2.828l1.405-1.424c.776-.786 2.042-.795 2.828-.019l6.33 6.245c2.095 2.067 3.275 4.888 3.275 7.831z" fill="#76a34f"/></g></g></g><g><g><g><path d="m50.951 29.658-1.567-1.546c1.812 2.009 2.841 4.663 2.841 7.376v12.871h-4v2h6v-12.87c0-2.923-1.193-5.777-3.274-7.831z" fill="#648940"/></g></g></g><g><g><g><path d="m64.372 111.62-16.925-16.925c-2.063-2.063-3.222-4.861-3.222-7.778v-32.558c0-2.209 1.791-4 4-4h6c2.209 0 4 1.791 4 4v31.315l16.046 16.046z" fill="#58595b"/></g></g></g><g><g><g><path d="m53.225 80.674 5 5v-31.315c0-2.209-1.791-4-4-4h-1z" fill="#414042"/></g></g><g><g><path d="m59.822 100.635h14v7.071h-14z" fill="#414042" transform="matrix(.707 -.707 .707 .707 -54.088 77.761)"/></g></g></g></g></g><g><g><g><g><g><path d="m81.787 214.404h-21.638c-2.141 0-3.876-1.735-3.876-3.876v-54.698c0-2.141 1.735-3.876 3.876-3.876h21.638c2.141 0 3.876 1.735 3.876 3.876v54.697c0 2.141-1.735 3.877-3.876 3.877z" fill="#58595b"/></g></g></g></g></g><g><g><g><path d="m62.064 151.954h5.114v62.45h-5.114z" fill="#414042"/></g></g><g><g><path d="m74.758 151.954h5.114v62.45h-5.114z" fill="#414042"/></g></g></g><g><g><g><g><g><path d="m195.019 214.404h-21.638c-2.141 0-3.876-1.735-3.876-3.876v-54.698c0-2.141 1.735-3.876 3.876-3.876h21.638c2.141 0 3.876 1.735 3.876 3.876v54.697c0 2.141-1.735 3.877-3.876 3.877z" fill="#58595b"/></g></g></g></g></g><g><g><g><path d="m175.296 151.954h5.114v62.45h-5.114z" fill="#414042"/></g></g><g><g><path d="m187.99 151.954h5.114v62.45h-5.114z" fill="#414042"/></g></g></g><g><g><path d="m202.483 170.417h-148.966c-3.461 0-6.267-2.806-6.267-6.267v-12.196h161.5v12.196c0 3.461-2.806 6.267-6.267 6.267z" fill="#648940"/></g></g><g><g><path d="m198.75 151.954v2.196c0 3.461-2.806 6.267-6.267 6.267h-145.233v3.733c0 3.461 2.806 6.267 6.267 6.267h148.966c3.461 0 6.267-2.806 6.267-6.267v-12.196z" fill="#5a7a39"/></g></g><g><g><path d="m236.15 151.954h-216.3c-4.694 0-8.499-3.805-8.499-8.499 0-4.694 3.805-8.499 8.499-8.499h216.3c4.694 0 8.499 3.805 8.499 8.499 0 4.694-3.805 8.499-8.499 8.499z" fill="#58595b"/></g></g><g><g><path d="m239.109 135.496c.343.923.54 1.917.54 2.959 0 4.694-3.805 8.499-8.499 8.499h-216.3c-1.042 0-2.036-.197-2.959-.54 1.203 3.233 4.307 5.54 7.959 5.54h216.3c4.694 0 8.499-3.805 8.499-8.499 0-3.652-2.307-6.756-5.54-7.959z" fill="#414042"/></g></g><g><g><path d="m185.628 98.255h-115.256c-7.37 0-13.345 5.975-13.345 13.345v23.356h141.945v-23.356c0-7.37-5.974-13.345-13.344-13.345z" fill="#76a34f"/></g></g><g><g><g><circle cx="77.548" cy="118.972" fill="#f1f2f2" r="10.138"/></g></g><g><g><circle cx="178.452" cy="118.972" fill="#f1f2f2" r="10.138"/></g></g></g><g><g><path d="m180.2 31.07h-104.4c-2.209 0-4 1.791-4 4v5.941h112.4v-5.941c0-2.209-1.791-4-4-4z" fill="#76a34f"/></g></g><g><g><path d="m180.2 31.07h-1v4.941h-107.4v5h112.4v-5.941c0-2.209-1.791-4-4-4z" fill="#648940"/></g></g><g><g><path d="m71.8 41.01h112.4v57.245h-112.4z" fill="#f1f2f2"/></g></g><g><g><path d="m77.8 82.99c-1.1 0-2-.9-2-2s.9-2 2-2 2 .9 2 2-.9 2-2 2zm0-8c-1.1 0-2-.9-2-2v-25.98c0-.53.21-1.04.59-1.41.37-.38.88-.59 1.41-.59h71.35c1.1 0 2 .9 2 2s-.9 2-2 2h-69.35v23.98c0 1.1-.9 2-2 2z" fill="#fff"/></g></g><g><g><path d="m174.2 41.01v47.245h-102.4v10h112.4v-57.245z" fill="#e6e7e8"/></g></g><g><g><path d="m179.2 41.01v52.245h-107.4v5h112.4v-57.245z" fill="#d1d3d4"/></g></g><g><g><g><g><g><path d="m41.73 181.931c0 5.913-4.793 10.706-10.706 10.706s-10.706-4.793-10.706-10.706c0-4.12 5.198-13.852 8.35-19.375 1.043-1.827 3.669-1.827 4.712 0 3.152 5.523 8.35 15.255 8.35 19.375z" fill="#478cf7"/></g></g></g><g><g><path d="m33.38 162.556c-.634-1.11-1.85-1.535-2.942-1.297 2.95 5.457 6.292 12.367 6.292 15.672 0 5.913-4.793 10.706-10.706 10.706-1.664 0-3.233-.391-4.638-1.068 1.73 3.587 5.389 6.068 9.638 6.068 5.913 0 10.706-4.793 10.706-10.706 0-4.12-5.198-13.852-8.35-19.375z" fill="#377de2"/></g></g><g><g><g><path d="m41.73 221.15c0 5.913-4.793 10.706-10.706 10.706s-10.706-4.793-10.706-10.706c0-4.12 5.198-13.852 8.35-19.375 1.043-1.827 3.669-1.827 4.712 0 3.152 5.524 8.35 15.255 8.35 19.375z" fill="#478cf7"/></g></g></g><g><g><path d="m33.38 201.776c-.634-1.11-1.85-1.535-2.942-1.297 2.95 5.457 6.292 12.367 6.292 15.671 0 5.913-4.793 10.706-10.706 10.706-1.664 0-3.233-.391-4.638-1.068 1.73 3.587 5.389 6.068 9.638 6.068 5.913 0 10.706-4.793 10.706-10.706 0-4.119-5.198-13.851-8.35-19.374z" fill="#377de2"/></g></g></g><g><g><g><g><path d="m235.682 181.931c0 5.913-4.793 10.706-10.706 10.706s-10.706-4.793-10.706-10.706c0-4.12 5.198-13.852 8.35-19.375 1.043-1.827 3.669-1.827 4.712 0 3.152 5.523 8.35 15.255 8.35 19.375z" fill="#478cf7"/></g></g></g><g><g><path d="m227.332 162.556c-.634-1.11-1.85-1.535-2.942-1.297 2.95 5.457 6.292 12.367 6.292 15.672 0 5.913-4.793 10.706-10.706 10.706-1.664 0-3.233-.391-4.638-1.068 1.73 3.587 5.389 6.068 9.638 6.068 5.913 0 10.706-4.793 10.706-10.706 0-4.12-5.198-13.852-8.35-19.375z" fill="#377de2"/></g></g><g><g><g><path d="m235.682 221.15c0 5.913-4.793 10.706-10.706 10.706s-10.706-4.793-10.706-10.706c0-4.12 5.198-13.852 8.35-19.375 1.043-1.827 3.669-1.827 4.712 0 3.152 5.524 8.35 15.255 8.35 19.375z" fill="#478cf7"/></g></g></g><g><g><path d="m227.332 201.776c-.634-1.11-1.85-1.535-2.942-1.297 2.95 5.457 6.292 12.367 6.292 15.671 0 5.913-4.793 10.706-10.706 10.706-1.664 0-3.233-.391-4.638-1.068 1.73 3.587 5.389 6.068 9.638 6.068 5.913 0 10.706-4.793 10.706-10.706 0-4.119-5.198-13.851-8.35-19.374z" fill="#377de2"/></g></g></g></g><g><g><g><path d="m104.956 134.956h-7.96v-26.413c0-2.198 1.782-3.98 3.98-3.98 2.198 0 3.98 1.782 3.98 3.98z" fill="#648940"/></g></g><g><g><path d="m122.972 134.956h-7.96v-26.413c0-2.198 1.782-3.98 3.98-3.98 2.198 0 3.98 1.782 3.98 3.98z" fill="#648940"/></g></g><g><g><path d="m140.988 134.956h-7.96v-26.413c0-2.198 1.782-3.98 3.98-3.98 2.198 0 3.98 1.782 3.98 3.98z" fill="#648940"/></g></g><g><g><path d="m159.004 134.956h-7.96v-26.413c0-2.198 1.782-3.98 3.98-3.98 2.198 0 3.98 1.782 3.98 3.98z" fill="#648940"/></g></g></g><g><g><path d="m210.27 77.151h-11.82c-2.209 0-4-1.791-4-4v-18.792c0-2.209 1.791-4 4-4h11.82c2.209 0 4 1.791 4 4v18.792c0 2.21-1.791 4-4 4z" fill="#808285"/></g></g><g><g><path d="m210.27 50.359h-1v17.792c0 2.209-1.791 4-4 4h-10.82v1c0 2.209 1.791 4 4 4h11.82c2.209 0 4-1.791 4-4v-18.792c0-2.209-1.791-4-4-4z" fill="#58595b"/></g></g><g><g><path d="m207.36 50.359h-6v-5.108c0-2.757-2.243-5-5-5h-12.16v-6h12.16c6.065 0 11 4.935 11 11z" fill="#58595b"/></g></g><g><g><path d="m153.267 122.423h-50.534c-3.429 0-6.477 2.186-7.577 5.434l-8.16 24.097h82.009l-8.16-24.097c-1.101-3.248-4.148-5.434-7.578-5.434z" fill="#58595b"/></g></g><g><g><path d="m160.844 127.857c-1.1-3.248-4.148-5.434-7.577-5.434h-10.877l6.614 19.531h-58.622l-3.386 10h82.009z" fill="#414042"/></g></g></g></svg>