<svg id="Layer_1" enable-background="new 0 0 256 256" height="512" viewBox="0 0 256 256" width="512" xmlns="http://www.w3.org/2000/svg"><g><g><g><path d="m210.217 232.288h-164.434c-7.368 0-13.34-5.973-13.34-13.34 0-7.368 5.973-13.34 13.34-13.34h164.433c7.368 0 13.34 5.973 13.34 13.34.001 7.368-5.972 13.34-13.339 13.34z" fill="#8c3f0a"/></g></g><g><g><path d="m193.74 213.61h-123.48c-1.11 0-2-.9-2-2s.89-2 2-2h123.48c1.109 0 2 .9 2 2s-.89 2-2 2zm-131.48 0c-1.11 0-2-.9-2-2s.89-2 2-2c1.1 0 2 .9 2 2s-.901 2-2 2z" fill="#995222"/></g></g><g><g><path d="m213.208 205.956c.221.963.349 1.961.349 2.991 0 7.368-5.973 13.34-13.34 13.34h-164.434c-1.03 0-2.028-.128-2.991-.349 1.36 5.925 6.654 10.349 12.991 10.349h164.433c7.368 0 13.34-5.973 13.34-13.34.001-6.337-4.423-11.631-10.348-12.991z" fill="#7c3108"/></g></g><g><g><path d="m216.806 207.358c1.109 1.945 1.75 4.191 1.75 6.59 0 7.368-5.973 13.34-13.34 13.34h-164.433c-2.399 0-4.645-.642-6.59-1.75 2.296 4.029 6.621 6.75 11.59 6.75h164.433c7.368 0 13.34-5.973 13.34-13.34.001-4.969-2.721-9.294-6.75-11.59z" fill="#6d2e03"/></g></g><g><g><g><path d="m119.85 98.962h16.258v69.173h-16.258z" fill="#76a34f"/></g></g><g><g><path d="m131.108 98.871v64.173h-11.258v5h16.258v-69.173z" fill="#648940"/></g></g><g><g><path d="m104.499 184.198h46.96v21.41h-46.96z" fill="#808285"/></g></g><g><g><path d="m146.459 184.198v16.409h-41.96v5h46.96v-21.409z" fill="#58595b"/></g></g><g><g><g><path d="m160.807 168.134h-65.656v-37.309c0-12.142 9.879-22.021 22.021-22.021h21.615c12.142 0 22.021 9.878 22.021 22.021v37.309zm-55.493-10.163h45.33v-27.146c0-6.538-5.319-11.857-11.857-11.857h-21.615c-6.539 0-11.857 5.319-11.857 11.857v27.146z" fill="#808285"/></g></g></g><g><g><g><path d="m151.646 112.966c2.615 3.621 4.162 8.062 4.162 12.859v37.309h-60.657v5h65.656v-37.309c0-7.345-3.618-13.856-9.161-17.859z" fill="#58595b"/></g></g></g><g><g><path d="m164.104 98.962h-72.25c-3.343 0-6.053-2.71-6.053-6.053 0-3.343 2.71-6.053 6.053-6.053h72.25c3.343 0 6.053 2.71 6.053 6.053 0 3.342-2.71 6.053-6.053 6.053z" fill="#939598"/></g></g><g><g><path d="m165.073 86.94c.051.316.085.638.085.969 0 3.343-2.71 6.053-6.053 6.053h-72.25c-.33 0-.652-.034-.969-.085.465 2.882 2.956 5.085 5.969 5.085h72.25c3.343 0 6.053-2.71 6.053-6.053-.001-3.013-2.204-5.505-5.085-5.969z" fill="#808285"/></g></g><g><g><path d="m156.807 184.198h-57.656c-2.209 0-4-1.791-4-4v-12.063h65.656v12.063c0 2.209-1.791 4-4 4z" fill="#76a34f"/></g></g><g><g><path d="m155.807 168.135v7.063c0 2.209-1.791 4-4 4h-56.656v1c0 2.209 1.791 4 4 4h57.656c2.209 0 4-1.791 4-4v-12.063z" fill="#648940"/></g></g></g><g><g><g><g><g><path d="m116.17 35.542c0-6.534 5.297-11.83 11.83-11.83s11.83 5.297 11.83 11.83c0 4.553-5.744 15.306-9.227 21.409-1.152 2.019-4.054 2.019-5.206 0-3.483-6.103-9.227-16.856-9.227-21.409z" fill="#478cf7"/></g></g></g></g><g><g><path d="m133.479 25.063c.859 1.639 1.351 3.5 1.351 5.479 0 4.552-5.744 15.306-9.227 21.409-.495.868-1.316 1.339-2.18 1.461.697 1.28 1.37 2.482 1.974 3.539 1.152 2.019 4.054 2.019 5.207 0 3.483-6.103 9.227-16.856 9.227-21.409-.001-4.555-2.579-8.502-6.352-10.479z" fill="#377de2"/></g></g><g><g><g><g><path d="m205.366 81.078c6.534 0 11.83 5.297 11.83 11.83s-5.297 11.83-11.83 11.83c-4.553 0-15.306-5.744-21.409-9.227-2.019-1.152-2.019-4.054 0-5.206 6.103-3.483 16.857-9.227 21.409-9.227z" fill="#478cf7"/></g></g></g><g><g><path d="m210.846 82.429c.859 1.639 1.351 3.5 1.351 5.479 0 6.534-5.297 11.83-11.83 11.83-3.764 0-11.761-3.925-17.87-7.253-.162 1.146.31 2.369 1.461 3.026 6.103 3.483 16.857 9.227 21.409 9.227 6.534 0 11.83-5.297 11.83-11.83 0-4.555-2.578-8.502-6.351-10.479z" fill="#377de2"/></g></g><g><g><g><path d="m50.634 104.738c-6.534 0-11.83-5.297-11.83-11.83 0-6.534 5.297-11.83 11.83-11.83 4.553 0 15.306 5.744 21.409 9.227 2.019 1.152 2.019 4.054 0 5.206-6.103 3.484-16.857 9.227-21.409 9.227z" fill="#478cf7"/></g></g></g><g><g><path d="m72.043 90.305c-1.057-.603-2.259-1.276-3.539-1.974-.122.864-.593 1.685-1.461 2.18-6.103 3.483-16.857 9.227-21.409 9.227-1.979 0-3.84-.492-5.479-1.351 1.977 3.773 5.924 6.351 10.479 6.351 4.553 0 15.306-5.744 21.409-9.227 2.019-1.152 2.019-4.053 0-5.206z" fill="#377de2"/></g></g></g><g><g><g><g><path d="m170.199 43.979c4.62-4.62 12.11-4.62 16.73 0s4.62 12.11 0 16.73c-3.219 3.219-14.885 6.762-21.663 8.614-2.243.613-4.294-1.439-3.682-3.682 1.853-6.777 5.396-18.443 8.615-21.662z" fill="#478cf7"/></g></g></g></g><g><g><path d="m186.929 43.979c-.871-.871-1.844-1.577-2.881-2.119 2.335 4.462 1.63 10.101-2.119 13.85-2.947 2.947-12.961 6.16-19.835 8.105-.18.636-.353 1.254-.51 1.828-.613 2.243 1.439 4.294 3.682 3.682 6.778-1.852 18.444-5.395 21.663-8.614 4.62-4.622 4.62-12.112 0-16.732z" fill="#377de2"/></g></g><g><g><g><g><path d="m85.801 43.979c-4.62-4.62-12.11-4.62-16.73 0s-4.62 12.11 0 16.73c3.219 3.219 14.885 6.762 21.663 8.614 2.243.613 4.294-1.439 3.682-3.682-1.853-6.777-5.396-18.443-8.615-21.662z" fill="#478cf7"/></g></g></g></g><g><g><path d="m94.415 65.642c-1.852-6.778-5.395-18.444-8.614-21.663-.925-.925-1.968-1.656-3.077-2.21 2.625 4.841 5.203 13.429 6.691 18.873.613 2.243-1.439 4.294-3.682 3.682-5.444-1.488-14.032-4.066-18.873-6.691.555 1.109 1.286 2.152 2.21 3.077 3.219 3.219 14.885 6.762 21.663 8.614 2.243.612 4.295-1.44 3.682-3.682z" fill="#377de2"/></g></g></g></g></svg>