<svg id="Layer_1" enable-background="new 0 0 256 256" height="512" viewBox="0 0 256 256" width="512" xmlns="http://www.w3.org/2000/svg"><g><g><g><path d="m198.389 140.266c0 40.671-31.514 99.6-70.389 99.6s-70.389-58.929-70.389-99.6 31.514-73.641 70.389-73.641 70.389 32.97 70.389 73.641z" fill="#e63950"/></g></g><g><g><path d="m83.28 204.069c-.69 0-1.32-.34-1.69-.92-.29-.449-.38-.979-.271-1.5.11-.52.421-.97.87-1.26.9-.58 2.181-.3 2.761.59l.01.011c.29.449.38.989.27 1.51-.109.52-.42.97-.87 1.26-.33.2-.7.309-1.08.309zm-4.1-6.869c-.729 0-1.399-.391-1.75-1.03-4.86-8.79-8.87-18.5-11.6-28.09-2.75-9.69-4.21-19.311-4.221-27.811 0-14.83 4.4-28.99 12.721-40.96 1.569-2.26 3.29-4.439 5.1-6.47.7-.8 2.021-.88 2.82-.17.819.729.899 2 .17 2.82-1.71 1.92-3.32 3.979-4.8 6.1-7.851 11.29-12.011 24.67-12.011 38.68-.01 16.46 5.71 36.641 15.32 53.96.25.471.32 1.011.17 1.53-.149.51-.49.93-.95 1.19-.299.171-.629.251-.969.251z" fill="#e8566f"/></g></g><g><g><path d="m171.395 82.281c10.592 12.888 16.994 29.654 16.994 47.985 0 40.671-31.514 99.6-70.389 99.6-11.123 0-21.643-4.825-30.995-12.666 11.545 13.543 25.701 22.666 40.995 22.666 38.875 0 70.389-58.929 70.389-99.6 0-23.543-10.56-44.505-26.994-57.985z" fill="#d10028"/></g></g><g><g><path d="m174.068 84.586c11.974 13.202 19.32 31.043 19.32 50.679 0 40.671-31.514 99.6-70.389 99.6-12.151 0-23.582-5.757-33.557-14.915 11.075 12.013 24.323 19.915 38.557 19.915 38.875 0 70.389-58.929 70.389-99.6.001-22.239-9.423-42.176-24.32-55.679z" fill="#b7022d"/></g></g><g><g><path d="m128 77.871c-2.662 0-4.821-2.158-4.821-4.821v-13.042c0-14.689 7.42-28.134 19.847-35.966 2.252-1.421 5.229-.744 6.649 1.508 1.419 2.253.744 5.23-1.508 6.65-9.609 6.054-15.346 16.451-15.346 27.808v13.042c0 2.663-2.159 4.821-4.821 4.821z" fill="#5a7a39"/></g></g><g><g><path d="m183.198 80.904c2.71-1.314 3.031-5.069.582-6.822-5.151-3.688-14.049-8.828-24.571-9.723-2.852-.243-5.64-.158-8.301.15-1.034.12-1.537-1.235-.67-1.81.747-.495 1.485-1.025 2.209-1.594 5.858-4.601 9.539-10.718 11.665-15.288 1.376-2.958-1.194-6.231-4.394-5.595-4.944.982-11.759 3.108-17.617 7.709-4.369 3.431-8.121 8.982-10.656 13.282-1.549 2.628-5.339 2.628-6.888 0-2.534-4.301-6.287-9.851-10.656-13.282-5.858-4.601-12.673-6.727-17.617-7.709-3.2-.636-5.77 2.637-4.394 5.595 2.126 4.57 5.806 10.687 11.665 15.288.723.568 1.461 1.098 2.208 1.594.868.575.364 1.93-.67 1.81-2.662-.308-5.449-.393-8.301-.15-10.522.895-19.42 6.035-24.571 9.723-2.449 1.753-2.128 5.508.582 6.822 4.981 2.416 12.968 5.44 21.924 5.568-3.883 8.456-3.873 18.102-3.478 23.354.168 2.237 2.118 3.908 4.351 3.697 6.649-.629 20.221-3.063 28.165-12.485 1.778-2.108 3.163-4.435 4.236-6.851 1.074 2.417 2.459 4.743 4.236 6.851 7.944 9.421 21.515 11.856 28.165 12.485 2.233.211 4.183-1.46 4.351-3.697.395-5.252.405-14.898-3.478-23.354 8.955-.128 16.942-3.153 21.923-5.568z" fill="#76a34f"/></g></g><g><g><g><path d="m95.827 52.746c.111.161.223.322.337.483-.054-.18-.163-.349-.337-.483z" fill="#648940"/></g></g><g><g><path d="m183.778 74.08c-2.24-1.604-5.189-3.481-8.671-5.166-.356.828-.998 1.548-1.911 1.991-4.981 2.416-12.968 5.439-21.922 5.567 3.883 8.455 3.873 18.099 3.478 23.352-.168 2.238-2.119 3.91-4.354 3.699-4.885-.462-13.504-1.899-20.883-6.363.785 1.35 1.686 2.652 2.721 3.879 7.943 9.42 21.512 11.855 28.162 12.484 2.234.211 4.186-1.461 4.354-3.699.394-5.252.404-14.896-3.478-23.352 8.955-.127 16.941-3.151 21.922-5.567 2.711-1.315 3.032-5.071.582-6.825z" fill="#648940"/></g></g></g><g><g><g><g><circle cx="78.052" cy="132.848" fill="#d10028" r="7.066"/></g></g><g><g><circle cx="111.351" cy="132.848" fill="#d10028" r="7.066"/></g></g><g><g><circle cx="144.649" cy="132.848" fill="#d10028" r="7.066"/></g></g><g><g><circle cx="177.948" cy="132.848" fill="#d10028" r="7.066"/></g></g></g><g><g><g><circle cx="94.701" cy="156.644" fill="#d10028" r="7.066"/></g></g><g><g><circle cx="128" cy="156.644" fill="#d10028" r="7.066"/></g></g><g><g><circle cx="161.299" cy="156.644" fill="#d10028" r="7.066"/></g></g></g><g><g><g><circle cx="111.351" cy="182.323" fill="#d10028" r="7.066"/></g></g><g><g><circle cx="144.649" cy="182.323" fill="#d10028" r="7.066"/></g></g></g><g><g><g><circle cx="128" cy="206.119" fill="#d10028" r="7.066"/></g></g></g></g></g></svg>