<svg id="Layer_1" enable-background="new 0 0 256 256" height="512" viewBox="0 0 256 256" width="512" xmlns="http://www.w3.org/2000/svg"><g><g><g><path d="m152.261 48.241h11.663v49.105h-11.663z" fill="#478cf7"/></g></g><g><g><path d="m158.924 48.241v44.105h-6.663v5h11.663v-49.105z" fill="#377de2"/></g></g><g><g><path d="m130.162 111.7c-.294 0-.593-.052-.885-.163-1.291-.489-1.941-1.932-1.452-3.224l8.495-22.427c.489-1.291 1.932-1.94 3.224-1.452 1.291.489 1.941 1.932 1.452 3.224l-8.495 22.427c-.379 1-1.33 1.615-2.339 1.615z" fill="#58595b"/></g></g><g><g><path d="m144.56 103.665c-.248 0-.5-.037-.748-.115l-10.149-3.178c-1.317-.413-2.051-1.815-1.639-3.133s1.817-2.053 3.133-1.639l10.149 3.178c1.317.413 2.051 1.815 1.639 3.133-.335 1.069-1.321 1.754-2.385 1.754z" fill="#58595b"/></g></g><g><g><path d="m111.815 114.623h-37.228v-10h33.221c2.213 0 4.007 1.794 4.007 4.007z" fill="#ffa91a"/></g></g><g><g><path d="m57.09 114.623h116.64v53.833h-116.64z" fill="#377de2"/></g></g><g><g><path d="m163.73 114.623v43.834h-106.64v10h116.64v-53.834z" fill="#2266d3"/></g></g><g><g><path d="m232.049 104.648-82.819-11.654c-1.923-.271-3.762.879-4.362 2.725l-6.141 18.904v53.833h100.242v-55.758c0-4.025-2.94-7.446-6.92-8.05z" fill="#478cf7"/></g></g><g><g><g><path d="m232.049 104.648-82.819-11.654c-1.923-.271-3.762.879-4.362 2.725l-6.141 18.904v53.833h100.242v-55.758c0-4.025-2.94-7.446-6.92-8.05z" fill="#478cf7"/></g></g></g><g><g><path d="m219.23 110.9c-.09 0-.19 0-.28-.02l-61.25-8.62c-1.09-.15-1.86-1.16-1.7-2.26.15-1.07 1.18-1.85 2.26-1.7l61.25 8.62c.53.08.99.35 1.32.78.32.43.45.95.38 1.48-.14.98-.99 1.72-1.98 1.72zm-69.17-9.73c-.09 0-.19-.01-.28-.02-1.09-.15-1.86-1.17-1.7-2.26.15-1.07 1.18-1.85 2.25-1.7.53.07 1 .35 1.32.78.33.42.46.95.39 1.48-.14.98-.99 1.72-1.98 1.72z" fill="#5e9cf7"/></g></g><g><g><path d="m232.049 104.648-3.08-.433v54.243h-90.242v10h100.242v-55.758c0-4.027-2.94-7.448-6.92-8.052z" fill="#377de2"/></g></g><g><g><path d="m233.514 105.011c.295.844.455 1.75.455 2.688v55.758h-95.242v5h100.242v-55.758c0-3.513-2.24-6.566-5.455-7.688z" fill="#2266d3"/></g></g><g><g><path d="m179.376 38.062h-124.971c-2.811 0-5.089 2.279-5.089 5.089 0 2.811 2.279 5.089 5.089 5.089h120.191c3.057 0 5.948-1.389 7.857-3.776 2.065-2.579.227-6.402-3.077-6.402z" fill="#377de2"/></g></g><g><g><path d="m179.376 38.062h-1.196c-.137.487-.375.963-.727 1.402-1.91 2.387-4.801 3.776-7.857 3.776h-120.191c-.03 0-.059-.001-.088-.001.047 2.77 2.307 5.001 5.088 5.001h120.191c3.057 0 5.948-1.39 7.857-3.776 2.065-2.579.227-6.402-3.077-6.402z" fill="#2266d3"/></g></g><g><g><path d="m159.994 201.486h-33.03c-4.497 0-8.143-3.646-8.143-8.143v-24.886h49.316v24.886c0 4.498-3.646 8.143-8.143 8.143z" fill="#377de2"/></g></g><g><g><path d="m163.137 168.457v19.886c0 4.497-3.646 8.143-8.143 8.143h-33.03c-.942 0-1.847-.161-2.688-.455 1.111 3.176 4.133 5.455 7.688 5.455h33.03c4.497 0 8.143-3.646 8.143-8.143v-24.886z" fill="#2266d3"/></g></g><g><g><path d="m238.969 147.136h-12.59c-2.209 0-4-1.791-4-4v-19.07c0-2.209 1.791-4 4-4h12.59z" fill="#ffa91a"/></g></g><g><g><path d="m233.969 120.066v22.07h-11.59v1c0 2.209 1.791 4 4 4h12.59v-27.07z" fill="#f79219"/></g></g><g><g><path d="m67.004 114.623v-42.24h12.385c4.418 0 8 3.582 8 8v34.24z" fill="#ffa91a"/></g></g><g><g><path d="m79.389 72.384h-2v32.24h-10.385v10h20.385v-34.24c0-4.419-3.582-8-8-8z" fill="#f79219"/></g></g><g><g><circle cx="211.694" cy="184.806" fill="#58595b" r="33.131"/></g></g><g><g><path d="m232.488 159.012c4.589 5.685 7.337 12.919 7.337 20.794 0 18.298-14.833 33.131-33.131 33.131-7.875 0-15.109-2.748-20.794-7.337 6.073 7.524 15.372 12.337 25.794 12.337 18.298 0 33.131-14.833 33.131-33.131 0-10.422-4.812-19.72-12.337-25.794z" fill="#414042"/></g></g><g><g><circle cx="211.694" cy="184.806" fill="#f1f2f2" r="20.259"/></g></g><g><g><path d="m223.3 168.2c2.302 3.287 3.652 7.289 3.652 11.606 0 11.189-9.07 20.259-20.259 20.259-4.317 0-8.319-1.351-11.606-3.652 3.663 5.231 9.735 8.652 16.606 8.652 11.189 0 20.259-9.07 20.259-20.259.001-6.871-3.42-12.943-8.652-16.606z" fill="#d1d3d4"/></g></g><g><g><circle cx="211.694" cy="184.806" fill="#808285" r="10.997"/></g></g><g><g><path d="m216.559 174.942c.725 1.467 1.133 3.118 1.133 4.865 0 6.074-4.924 10.997-10.997 10.997-1.747 0-3.398-.408-4.865-1.133 1.795 3.633 5.538 6.133 9.865 6.133 6.074 0 10.997-4.924 10.997-10.997-.001-4.328-2.5-8.07-6.133-9.865z" fill="#58595b"/></g></g><g><g><g><path d="m150.938 137.875c-1.381 0-2.5-1.119-2.5-2.5v-9.337c0-1.381 1.119-2.5 2.5-2.5s2.5 1.119 2.5 2.5v9.337c0 1.38-1.119 2.5-2.5 2.5z" fill="#377de2"/></g></g><g><g><path d="m159.621 137.875c-1.381 0-2.5-1.119-2.5-2.5v-9.337c0-1.381 1.119-2.5 2.5-2.5s2.5 1.119 2.5 2.5v9.337c0 1.38-1.119 2.5-2.5 2.5z" fill="#377de2"/></g></g><g><g><path d="m168.303 137.875c-1.381 0-2.5-1.119-2.5-2.5v-9.337c0-1.381 1.119-2.5 2.5-2.5s2.5 1.119 2.5 2.5v9.337c0 1.38-1.119 2.5-2.5 2.5z" fill="#377de2"/></g></g></g><g><g><path d="m57.09 48.241h9.914v78.745h-9.914z" fill="#478cf7"/></g></g><g><g><path d="m62.004 48.241v73.745h-4.914v5h9.914v-78.745z" fill="#377de2"/></g></g><g><g><g><path d="m57.09 168.457h63.617c.003-.222.004-.445.004-.668 0-24.078-14.852-44.687-35.895-53.166h-27.726z" fill="#2266d3"/></g></g><g><g><circle cx="63.414" cy="167.789" fill="#58595b" r="50.149"/></g></g><g><g><path d="m93.522 127.681c6.304 8.385 10.041 18.81 10.041 30.108 0 27.696-22.452 50.148-50.148 50.148-11.298 0-21.723-3.737-30.108-10.041 9.15 12.17 23.709 20.041 40.108 20.041 27.696 0 50.148-22.452 50.148-50.148 0-16.398-7.871-30.958-20.041-40.108z" fill="#414042"/></g></g><g><g><circle cx="63.414" cy="167.789" fill="#f1f2f2" r="26.025"/></g></g><g><g><path d="m79.147 147.056c3.321 4.37 5.292 9.821 5.292 15.733 0 14.373-11.652 26.025-26.025 26.025-5.912 0-11.363-1.971-15.733-5.292 4.753 6.254 12.271 10.292 20.733 10.292 14.373 0 26.025-11.652 26.025-26.025 0-8.461-4.038-15.979-10.292-20.733z" fill="#d1d3d4"/></g></g><g><g><circle cx="63.414" cy="167.789" fill="#808285" r="13.339"/></g></g><g><g><path d="m70.011 156.193c1.109 1.945 1.743 4.197 1.743 6.596 0 7.367-5.972 13.339-13.339 13.339-2.4 0-4.651-.634-6.596-1.743 2.296 4.027 6.629 6.743 11.596 6.743 7.367 0 13.339-5.972 13.339-13.339 0-4.967-2.716-9.301-6.743-11.596z" fill="#58595b"/></g></g></g><g><g><path d="m132.852 125.681h-9.703c-1.143 0-2.07-.927-2.07-2.07v-1.898c0-1.143.927-2.07 2.07-2.07h9.703c1.143 0 2.07.927 2.07 2.07v1.898c0 1.143-.927 2.07-2.07 2.07z" fill="#478cf7"/></g></g><g><g><path d="m157.243 178.597h-27.624c-1.442 0-2.611-1.169-2.611-2.611 0-1.442 1.169-2.611 2.611-2.611h27.624c1.442 0 2.611 1.169 2.611 2.611.001 1.442-1.169 2.611-2.611 2.611z" fill="#2266d3"/></g></g><g><g><path d="m157.243 190.029h-27.624c-1.442 0-2.611-1.169-2.611-2.611 0-1.442 1.169-2.611 2.611-2.611h27.624c1.442 0 2.611 1.169 2.611 2.611.001 1.442-1.169 2.611-2.611 2.611z" fill="#2266d3"/></g></g></g></svg>