<svg id="Layer_1" enable-background="new 0 0 256 256" height="512" viewBox="0 0 256 256" width="512" xmlns="http://www.w3.org/2000/svg"><g><g><g><path d="m33.113 233.732c-4.593 0-8.277-3.862-7.993-8.447 3.809-61.461 48.862-109.976 103.88-109.976s100.071 48.515 103.88 109.976c.284 4.584-3.4 8.447-7.993 8.447z" fill="#8c3f0a"/></g></g><g><g><path d="m232.88 225.286c-3.045-49.134-32.448-89.993-72.229-104.408 29.336 19.091 49.721 53.943 52.229 94.408.284 4.584-3.4 8.447-7.993 8.447h-179.661c-.038.517-.073 1.034-.105 1.553-.284 4.584 3.4 8.447 7.993 8.447h191.773c4.593-.001 8.277-3.863 7.993-8.447z" fill="#7c3108"/></g></g><g><g><path d="m176.697 75.375c-4.476-28.037-24.577-49.188-48.697-49.188s-44.221 21.151-48.697 49.188c-12.126 15.153-19.607 35.939-19.607 58.874 0 46.369 30.581 83.959 68.304 83.959s68.304-37.59 68.304-83.959c0-22.935-7.481-43.721-19.607-58.874z" fill="#e63950"/></g></g><g><g><path d="m80.91 187.24c-.65 0-1.26-.32-1.64-.85 0 0 0-.01-.01-.01-.62-.91-.4-2.16.51-2.78.88-.61 2.18-.37 2.78.5.01 0 .01.01.01.01.62.91.39 2.15-.51 2.78-.34.23-.73.35-1.14.35zm-4.2-6.79h-.01c-.73 0-1.4-.4-1.75-1.04-7.36-13.34-11.25-28.95-11.25-45.16 0-6.58.64-13.12 1.9-19.43 1.26-6.28 3.13-12.35 5.58-18.05.42-.99 1.63-1.48 2.62-1.05.49.21.87.6 1.07 1.09.2.5.19 1.04-.02 1.53-4.68 10.93-7.15 23.35-7.15 35.91-.01 15.53 3.71 30.48 10.75 43.23.53.97.18 2.18-.78 2.72-.3.16-.63.25-.96.25z" fill="#e8566f"/></g></g><g><g><path d="m176.697 75.375c-2.704-16.938-11.111-31.362-22.662-40.129 6.329 8.213 10.82 18.587 12.662 30.129 12.126 15.153 19.607 35.939 19.607 58.874 0 46.369-30.581 83.959-68.304 83.959-14.015 0-27.044-5.188-37.885-14.088 12.327 14.897 29.233 24.088 47.885 24.088 37.723 0 68.304-37.59 68.304-83.959 0-22.935-7.481-43.721-19.607-58.874z" fill="#d10028"/></g></g><g><g><path d="m176.697 75.375c-2.489-15.59-9.809-29.051-19.965-37.93 7.541 8.594 12.906 20.034 14.965 32.93 12.126 15.153 19.607 35.939 19.607 58.874 0 46.369-30.581 83.959-68.304 83.959-15.172 0-29.189-6.081-40.526-16.368 12.083 13.288 28.037 21.368 45.526 21.368 37.723 0 68.304-37.59 68.304-83.959 0-22.935-7.481-43.721-19.607-58.874z" fill="#b7022d"/></g></g><g><g><g><ellipse cx="88.944" cy="86.935" fill="#8c3f0a" rx="8.036" ry="12.29"/></g></g><g><g><path d="m90.526 74.884c.916 1.996 1.454 4.427 1.454 7.051 0 6.787-3.598 12.29-8.036 12.29-.542 0-1.07-.082-1.582-.239 1.453 3.168 3.859 5.239 6.582 5.239 4.438 0 8.036-5.502 8.036-12.29 0-5.959-2.773-10.927-6.454-12.051z" fill="#7c3108"/></g></g><g><g><ellipse cx="167.056" cy="86.935" fill="#8c3f0a" rx="8.036" ry="12.29"/></g></g><g><g><path d="m168.637 74.884c.916 1.996 1.454 4.427 1.454 7.051 0 6.787-3.598 12.29-8.036 12.29-.542 0-1.07-.083-1.582-.239 1.453 3.168 3.859 5.239 6.582 5.239 4.438 0 8.036-5.502 8.036-12.29 0-5.959-2.773-10.928-6.454-12.051z" fill="#7c3108"/></g></g></g><g><g><g><path d="m108.974 29.542c0-6.817 8.518-12.343 19.025-12.343s19.025 5.526 19.025 12.343-8.518 26.849-19.025 26.849-19.025-20.032-19.025-26.849z" fill="#e8566f"/></g></g></g><g><g><path d="m136.976 18.657c.032.292.049.588.049.885 0 6.817-8.518 26.849-19.025 26.849-1.136 0-2.249-.235-3.33-.661 3.433 5.77 8.139 10.661 13.33 10.661 10.507 0 19.025-20.032 19.025-26.849 0-4.711-4.068-8.805-10.049-10.885z" fill="#d10028"/></g></g><g><g><g><path d="m145.466 201.493c0 15.929-7.82 28.841-17.466 28.841s-17.466-12.913-17.466-28.841c0-15.929 7.82-62.735 17.466-62.735 9.646-.001 17.466 46.806 17.466 62.735z" fill="#d10028"/></g></g></g><g><g><path d="m128 138.757c-.656 0-1.304.217-1.941.626 5.59 14.78 9.407 40.981 9.407 52.109 0 15.929-7.82 28.841-17.466 28.841-1.207 0-2.385-.202-3.523-.587 3.203 6.462 8.071 10.587 13.523 10.587 9.646 0 17.466-12.913 17.466-28.841s-7.82-62.735-17.466-62.735z" fill="#b7022d"/></g></g><g><g><g><path d="m123.49 157.698-23.28-46.56c-1.089-2.178-.466-4.823 1.481-6.286l23.28-17.497c1.795-1.349 4.265-1.349 6.059 0l23.28 17.497c1.947 1.463 2.57 4.108 1.481 6.286l-23.28 46.56c-1.859 3.717-7.163 3.717-9.021 0z" fill="#fcc4ae"/></g></g><g><g><path d="m154.31 104.852-3.195-2.401c.353 1.192.265 2.508-.324 3.687l-23.28 46.56c-1.039 2.079-3.157 2.995-5.147 2.748l1.126 2.252c1.858 3.717 7.162 3.717 9.021 0l23.28-46.56c1.088-2.178.465-4.823-1.481-6.286z" fill="#f2ad97"/></g></g><g><g><path d="m154.31 104.852-23.28-17.497c-1.133-.852-2.535-1.165-3.867-.941v74.003c2.046.336 4.273-.57 5.348-2.719l23.28-46.56c1.088-2.178.465-4.824-1.481-6.286z" fill="#f2ad97"/></g></g><g><g><path d="m154.31 104.852-3.195-2.401c.353 1.192.265 2.508-.324 3.688l-23.28 46.56c-.105.21-.222.408-.348.595v7.124c2.046.336 4.273-.57 5.348-2.719l23.28-46.56c1.088-2.18.465-4.825-1.481-6.287z" fill="#e59076"/></g></g></g></g></svg>