<svg id="Layer_1" enable-background="new 0 0 256 256" height="512" viewBox="0 0 256 256" width="512" xmlns="http://www.w3.org/2000/svg"><g><g><g><g><path d="m202.67 170.381c-1.657 0-3-1.343-3-3v-85.515c0-1.657 1.343-3 3-3s3 1.343 3 3v85.515c0 1.657-1.343 3-3 3z" fill="#648940"/></g></g><g><g><path d="m201.577 94.99c.625.553 1.561.553 2.187 0 3.329-2.943 13.117-12.566 13.117-23.984 0-11.417-9.787-21.04-13.117-23.984-.625-.553-1.561-.553-2.187 0-3.329 2.943-13.117 12.566-13.117 23.984s9.787 21.041 13.117 23.984z" fill="#76a34f"/></g></g><g><g><path d="m203.763 47.023c-.088-.078-.183-.145-.282-.201 3.927 4.569 8.399 11.467 8.399 19.184 0 11.417-9.787 21.04-13.117 23.983-.537.475-1.303.541-1.905.201 1.882 2.19 3.639 3.846 4.718 4.799.625.553 1.561.553 2.187 0 3.329-2.943 13.117-12.566 13.117-23.983s-9.787-21.04-13.117-23.983z" fill="#648940"/></g></g><g><g><path d="m228.457 96.269c.857.043 1.537.723 1.58 1.58.188 3.751.069 13.809-5.931 19.81-6 6-16.059 6.12-19.81 5.931-.857-.043-1.537-.723-1.58-1.58-.188-3.751-.069-13.809 5.931-19.81 6-6 16.059-6.12 19.81-5.931z" fill="#76a34f"/></g></g><g><g><path d="m230.037 97.849c-.043-.857-.723-1.537-1.58-1.58-.851-.043-2.026-.069-3.404-.016-.184 4.7-1.308 11.766-5.947 16.406s-11.705 5.763-16.405 5.947c-.054 1.378-.027 2.554.016 3.404.043.857.723 1.537 1.58 1.58 3.751.188 13.81.069 19.81-5.931s6.118-16.059 5.93-19.81z" fill="#648940"/></g></g><g><g><path d="m176.883 96.269c-.857.043-1.537.723-1.58 1.58-.188 3.751-.069 13.809 5.931 19.81 6 6 16.059 6.12 19.81 5.931.857-.043 1.537-.723 1.58-1.58.188-3.751.069-13.809-5.931-19.81-6-6-16.059-6.12-19.81-5.931z" fill="#76a34f"/></g></g><g><g><path d="m196.693 102.2c-.854-.854-1.791-1.589-2.779-2.221 3.807 5.957 3.872 13.814 3.711 17.031-.043.857-.723 1.537-1.58 1.58-3.217.162-11.074.096-17.03-3.711.632.989 1.367 1.925 2.221 2.779 6 6 16.059 6.12 19.81 5.931.857-.043 1.537-.723 1.58-1.58.187-3.75.067-13.809-5.933-19.809z" fill="#648940"/></g></g><g><g><path d="m228.457 129.737c.857.043 1.537.723 1.58 1.58.188 3.751.069 13.809-5.931 19.81-6 6-16.059 6.12-19.81 5.931-.857-.043-1.537-.723-1.58-1.58-.188-3.751-.069-13.809 5.931-19.81 6-6 16.059-6.12 19.81-5.931z" fill="#76a34f"/></g></g><g><g><path d="m230.037 131.317c-.043-.857-.723-1.537-1.58-1.58-.851-.042-2.026-.069-3.404-.015-.184 4.7-1.308 11.766-5.947 16.406-4.639 4.639-11.705 5.763-16.405 5.947-.054 1.379-.027 2.554.016 3.404.043.857.723 1.537 1.58 1.58 3.751.188 13.81.069 19.81-5.931 5.999-6.002 6.118-16.061 5.93-19.811z" fill="#648940"/></g></g><g><g><path d="m176.883 129.737c-.857.043-1.537.723-1.58 1.58-.188 3.751-.069 13.809 5.931 19.81 6 6 16.059 6.12 19.81 5.931.857-.043 1.537-.723 1.58-1.58.188-3.751.069-13.809-5.931-19.81-6-6-16.059-6.12-19.81-5.931z" fill="#76a34f"/></g></g><g><g><path d="m196.693 135.668c-.854-.854-1.791-1.589-2.779-2.221 3.807 5.957 3.872 13.813 3.711 17.03-.043.857-.723 1.537-1.58 1.58-3.217.161-11.074.096-17.03-3.711.632.989 1.367 1.925 2.221 2.779 6 6 16.059 6.12 19.81 5.931.857-.043 1.537-.723 1.58-1.58.187-3.749.067-13.808-5.933-19.808z" fill="#648940"/></g></g></g><g><g><g><g><path d="m129.246 236.083c18.687 0 33.835-75.804 33.835-121.664s-15.149-44.412-33.835-44.412-33.835-1.449-33.835 44.412 15.149 121.664 33.835 121.664z" fill="#ffa91a"/></g></g><g><g><path d="m148.218 71.988c3.087 6.567 4.864 16.724 4.864 32.43 0 45.861-15.149 121.664-33.835 121.664-.644 0-1.284-.091-1.92-.266 3.707 6.445 7.724 10.266 11.92 10.266 18.687 0 33.835-75.804 33.835-121.664 0-28.605-5.894-38.804-14.864-42.43z" fill="#f79219"/></g></g><g><g><path d="m151.3 73.592c4.258 6.271 6.782 17.108 6.782 35.827 0 45.861-15.149 121.664-33.835 121.664-1.505 0-2.987-.492-4.44-1.42 2.996 4.09 6.163 6.42 9.44 6.42 18.687 0 33.835-75.804 33.835-121.664 0-25.185-4.569-36.102-11.782-40.827z" fill="#ef7816"/></g></g><g><g><path d="m131.002 73.843c6.753 0 13.378-2.065 18.813-6.073 10.74-7.346 26.313-26.898 20.921-31.956-5.24-5.267-25.449 10.024-32.947 20.277 2.126-12.376-1.02-36.895-8.544-36.772-7.533-.103-10.665 24.389-8.543 36.772-7.479-10.242-27.741-25.557-32.948-20.276-5.406 5.005 10.204 24.649 20.922 31.955 6.369 4.833 14.448 6.465 22.326 6.073z" fill="#76a34f"/></g></g><g><g><g><path d="m170.737 35.814c-.917-.921-2.292-1.213-3.976-1.013-1.085 7.717-13.139 21.946-21.945 27.969-5.435 4.008-12.06 6.073-18.813 6.073-7.878.392-15.957-1.24-22.325-6.073-1.726-1.176-3.578-2.673-5.45-4.376 3.448 3.764 7.177 7.145 10.45 9.376 6.368 4.833 14.447 6.466 22.325 6.073 6.753 0 13.378-2.065 18.813-6.073 10.739-7.347 26.312-26.899 20.921-31.956z" fill="#648940"/></g></g></g></g><g><g><path d="m128.284 92.225h-31.155c-.612 3.167-1.069 6.784-1.358 10.916h32.512c3.014 0 5.458-2.444 5.458-5.458s-2.443-5.458-5.457-5.458z" fill="#f79219"/></g></g><g><g><path d="m150.587 129.161h-38.819c-3.014 0-5.458-2.444-5.458-5.458 0-3.014 2.444-5.458 5.458-5.458h38.819c3.014 0 5.458 2.444 5.458 5.458 0 3.014-2.444 5.458-5.458 5.458z" fill="#f79219"/></g></g><g><g><path d="m143.672 142.242c-3.014 0-5.458 2.444-5.458 5.458s2.444 5.458 5.458 5.458h16.702c.467-3.664.877-7.314 1.229-10.916z" fill="#f79219"/></g></g><g><g><path d="m156.534 177.156c.698-3.593 1.348-7.242 1.945-10.916h-34.852c-3.014 0-5.458 2.444-5.458 5.458s2.444 5.458 5.458 5.458z" fill="#f79219"/></g></g><g><g><path d="m130.827 190.237h-26.044c.903 3.776 1.861 7.429 2.867 10.916h23.177c3.014 0 5.458-2.444 5.458-5.458s-2.444-5.458-5.458-5.458z" fill="#f79219"/></g></g><g><g><path d="m111.14 193c-.92 0-1.71-.62-1.93-1.51-.01 0-.01 0-.01 0-.13-.521-.04-1.061.23-1.521.28-.46.71-.78 1.23-.91 1.06-.26 2.16.41 2.43 1.46v.021c.12.5.04 1.04-.23 1.49-.28.46-.72.789-1.24.92-.15.029-.32.05-.48.05zm-1.81-7.79c-.93 0-1.75-.66-1.95-1.58-4.91-22.561-7.97-49.08-7.97-69.21.04-9.29.64-16.601 1.83-22.33 1.26-6.04 3.19-10.38 5.9-13.28.74-.77 2.05-.8 2.82-.06.39.37.61.87.62 1.399.01.54-.19 1.04-.56 1.431-4.26 4.25-6.67 16.22-6.61 32.84 0 19.87 3.02 46.07 7.88 68.36.23 1.079-.46 2.149-1.53 2.38-.14.029-.28.05-.43.05z" fill="#ffc91d"/></g></g></g><g><g><g><path d="m35.781 114.141c-.622 4.678.682 9.376 3.495 13.164 13.912 18.733 20.826 42.691 17.509 67.648-.331 2.49-.757 4.943-1.276 7.357-3.41 15.886 7.161 31.363 23.268 33.504l.199.026c12.598 1.674 24.694-5.474 29.35-17.299 2.537-6.443 4.38-13.263 5.426-20.381 6.158-41.894-16.596-81.187-53.022-97.969-10.824-4.986-23.378 2.134-24.949 13.95z" fill="#a54af4"/></g></g><g><g><path d="m60.732 100.193c-1.733-.799-3.511-1.286-5.28-1.494 27.613 19.548 43.581 53.55 38.302 89.463-1.046 7.118-2.89 13.938-5.426 20.381-4.381 11.126-15.348 18.112-27.123 17.504 4.235 5.162 10.347 8.808 17.574 9.769l.199.027c12.598 1.674 24.694-5.474 29.35-17.299 2.537-6.443 4.38-13.263 5.426-20.381 6.158-41.896-16.596-81.189-53.022-97.97z" fill="#893add"/></g></g><g><g><g><path d="m41.502 99.819-4.713 4.713-8.711-6.093c-2.683-1.877-3.021-5.722-.705-8.037 2.315-2.315 6.16-1.978 8.037.705z" fill="#8c3f0a"/></g></g><g><g><path d="m35.409 91.108c-.745-1.066-1.802-1.761-2.949-2.068l4.042 5.779-4.713 4.713-5.779-4.042c.306 1.147 1.002 2.203 2.067 2.949l8.711 6.093 4.713-4.713z" fill="#7c3108"/></g></g><g><g><path d="m37.739 140.013c1.056.996 2.707.996 3.763 0 2.222-2.095 5.915-6.033 8.284-10.974 6.01 3.13 13.158 3.408 16.86 3.299 1.451-.043 2.618-1.21 2.661-2.661.109-3.702-.169-10.851-3.299-16.86 4.941-2.369 8.879-6.062 10.974-8.284.995-1.056.996-2.707 0-3.763-3.271-3.47-11.037-10.527-20.097-10.527-8.655 0-16.129 6.441-19.632 10.042-3.601 3.502-10.042 10.977-10.042 19.632 0 9.059 7.057 16.825 10.528 20.096z" fill="#76a34f"/></g></g><g><g><path d="m76.982 100.77c-1.858-1.971-5.167-5.1-9.34-7.436-.112.436-.331.85-.66 1.199-2.095 2.222-6.033 5.915-10.974 8.284 3.13 6.01 3.408 13.158 3.299 16.86-.043 1.451-1.21 2.618-2.661 2.661-3.702.109-10.851-.169-16.86-3.299-2.369 4.941-6.062 8.879-8.284 10.974-.349.329-.763.548-1.199.66 2.335 4.173 5.464 7.482 7.435 9.34 1.056.996 2.707.996 3.763 0 2.222-2.095 5.915-6.033 8.284-10.974 6.01 3.13 13.158 3.408 16.86 3.299 1.451-.043 2.618-1.21 2.661-2.661.109-3.702-.169-10.851-3.299-16.86 4.941-2.369 8.879-6.062 10.974-8.284.996-1.056.996-2.707.001-3.763z" fill="#648940"/></g></g></g></g><g><g><g><g><path d="m177.776 139.438-2.159 12.113c-.163.913-.88 1.634-1.796 1.781-21.474 3.448-37.646 18.523-37.646 36.61 0 17.586 15.291 32.325 35.878 36.297 2.56 6.337 6.582 10.442 11.12 10.442s8.559-4.105 11.12-10.442c20.587-3.972 35.877-18.711 35.877-36.297 0-18.086-16.172-33.162-37.646-36.61-.916-.147-1.634-.868-1.796-1.781l-2.159-12.113c-.187-1.049-1.099-1.814-2.165-1.814h-6.463c-1.065 0-1.978.764-2.165 1.814z" fill="#e6e7e8"/></g></g></g><g><g><g><path d="m214.445 162.061c3.65 5.31 5.725 11.402 5.725 17.88 0 17.586-15.291 32.325-35.878 36.297-2.56 6.337-6.582 10.442-11.12 10.442-.324 0-.645-.022-.963-.063 2.566 6.121 6.517 10.063 10.963 10.063 4.538 0 8.559-4.105 11.12-10.442 20.587-3.972 35.878-18.711 35.878-36.297 0-11.086-6.076-21.04-15.725-27.88z" fill="#d1d3d4"/></g></g></g><g><g><g><path d="m180.779 137.624-1.171 13.927c-.077.913-.415 1.634-.848 1.781-10.133 3.448-17.764 18.523-17.764 36.61 0 17.586 7.215 32.325 16.93 36.297 1.208 6.337 3.106 10.442 5.247 10.442s4.039-4.105 5.247-10.442c9.715-3.972 16.93-18.711 16.93-36.297 0-18.086-7.631-33.162-17.764-36.61-.432-.147-.771-.868-.848-1.781l-1.171-13.927z" fill="#f1f2f2"/></g></g></g><g><g><g><path d="m193.465 156.851c5.959 6.695 9.885 18.118 9.885 31.091 0 17.586-7.216 32.325-16.93 36.297-1.208 6.337-3.106 10.442-5.247 10.442-.194 0-.385-.034-.575-.1.791 1.351 1.661 2.1 2.575 2.1 2.141 0 4.039-4.105 5.247-10.442 9.715-3.972 16.93-18.711 16.93-36.297 0-14.374-4.82-26.846-11.885-33.091z" fill="#d1d3d4"/></g></g></g></g></g></svg>