<svg id="Layer_1" enable-background="new 0 0 256 256" height="512" viewBox="0 0 256 256" width="512" xmlns="http://www.w3.org/2000/svg"><g><g><g><g><path d="m103.346 196.614-82.173-82.173 15.313-15.312 97.853 66.492z" fill="#2266d3"/></g></g><g><g><path d="m199.177 179.638c-27.323 0-49.553-22.229-49.553-49.553s22.229-49.552 49.553-49.552 49.552 22.229 49.552 49.552-22.229 49.553-49.552 49.553zm0-89.105c-21.81 0-39.553 17.743-39.553 39.552 0 21.81 17.743 39.553 39.553 39.553 21.809 0 39.552-17.743 39.552-39.553 0-21.809-17.744-39.552-39.552-39.552z" fill="#2266d3"/></g></g><g><g><path d="m201.038 217.043h-117.732c-6.103 0-10.783-5.421-9.891-11.459l20.517-138.959h96.479l20.518 138.959c.892 6.038-3.788 11.459-9.891 11.459z" fill="#478cf7"/></g></g><g><g><path d="m81.5 193.47c-.1 0-.2-.01-.29-.02-1.09-.16-1.85-1.181-1.69-2.271.16-1.07 1.19-1.83 2.27-1.689 1.09.17 1.85 1.189 1.69 2.279-.15.971-1 1.701-1.98 1.701zm1.17-7.91c-.1 0-.2-.01-.3-.02-1.09-.17-1.84-1.181-1.68-2.271l15.77-106.849c.16-1.07 1.19-1.83 2.27-1.68 1.09.159 1.85 1.18 1.69 2.27l-15.78 106.84c-.14.969-.99 1.71-1.97 1.71z" fill="#5e9cf7"/></g></g><g><g><path d="m210.929 205.584-20.517-138.959h-18.523l19.041 128.959c.891 6.038-3.788 11.459-9.891 11.459h-107.733c-.011 5.425 4.393 10 10 10h117.732c6.103 0 10.783-5.421 9.891-11.459z" fill="#377de2"/></g></g><g><g><path d="m39.8 103.779-13.923 13.923c-3.112 3.112-8.159 3.112-11.271 0-3.112-3.112-3.112-8.159 0-11.271l13.923-13.923c3.112-3.112 8.159-3.112 11.271 0 3.112 3.113 3.112 8.159 0 11.271z" fill="#478cf7"/></g></g><g><g><path d="m39.8 92.508c-.898-.898-1.957-1.536-3.084-1.916.937 2.779.298 5.973-1.916 8.187l-13.923 13.923c-2.214 2.214-5.408 2.853-8.187 1.916.38 1.127 1.018 2.186 1.916 3.084 3.112 3.112 8.159 3.112 11.271 0l13.923-13.923c3.112-3.112 3.112-8.158 0-11.271z" fill="#377de2"/></g></g><g><g><path d="m191.118 38.957h-97.893c-7.64 0-13.834 6.194-13.834 13.834 0 7.64 6.194 13.834 13.834 13.834h97.893c7.64 0 13.834-6.194 13.834-13.834.001-7.64-6.193-13.834-13.834-13.834z" fill="#478cf7"/></g></g><g><g><path d="m194.529 39.381c.277 1.091.424 2.233.424 3.41 0 7.641-6.194 13.834-13.834 13.834h-97.894c-1.177 0-2.319-.147-3.41-.424 1.519 5.991 6.947 10.424 13.41 10.424h97.893c7.64 0 13.834-6.193 13.834-13.834.001-6.463-4.432-11.892-10.423-13.41z" fill="#377de2"/></g></g></g><g><g><g><path d="m170.933 146.177c0 15.884-12.877 28.761-28.761 28.761s-28.761-12.877-28.761-28.761c0-11.068 13.964-37.213 22.432-52.05 2.802-4.909 9.856-4.909 12.658 0 8.468 14.837 22.432 40.982 22.432 52.05z" fill="#f1f2f2"/></g></g></g><g><g><path d="m148.501 94.127c-1.424-2.495-3.947-3.721-6.451-3.68 8.323 15.077 18.884 36.104 18.884 45.729 0 15.884-12.877 28.761-28.761 28.761-5.378 0-10.411-1.477-14.716-4.045 5.019 8.412 14.209 14.045 24.716 14.045 15.885 0 28.761-12.877 28.761-28.761-.001-11.067-13.965-37.212-22.433-52.049z" fill="#e6e7e8"/></g></g><g><g><path d="m148.501 94.127c-.962-1.686-2.425-2.792-4.045-3.32 8.521 15.058 21.478 39.708 21.478 50.37 0 15.884-12.877 28.761-28.761 28.761-6.668 0-12.806-2.27-17.684-6.078 5.264 6.742 13.467 11.078 22.684 11.078 15.885 0 28.761-12.877 28.761-28.761-.001-11.068-13.965-37.213-22.433-52.05z" fill="#d1d3d4"/></g></g></g></svg>