<svg id="Layer_1" enable-background="new 0 0 256 256" height="512" viewBox="0 0 256 256" width="512" xmlns="http://www.w3.org/2000/svg"><g><g><g><g><path d="m185.83 184.448h-154.902c-3.868 0-7.004-3.136-7.004-7.004 0-3.868 3.136-7.004 7.004-7.004h154.902z" fill="#76a34f"/></g></g><g><g><path d="m180.83 170.44v9.009h-154.902c-.613 0-1.204-.087-1.77-.234.785 3.01 3.514 5.234 6.77 5.234h154.902v-14.009z" fill="#648940"/></g></g><g><g><g><path d="m72.048 170.44h-39.558l-7.26-11.859c-1.632-2.665.286-6.089 3.411-6.089h30.177c1.392 0 2.684.724 3.411 1.911z" fill="#ffa91a"/></g></g><g><g><path d="m62.23 154.404c-.672-1.097-1.827-1.791-3.096-1.891l7.914 12.927h-37.619l3.061 5h39.558z" fill="#f79219"/></g></g><g><g><path d="m28.641 202.396h30.177c1.392 0 2.684-.724 3.411-1.911l9.818-16.036h-39.557l-7.26 11.859c-1.632 2.665.286 6.088 3.411 6.088z" fill="#ffa91a"/></g></g><g><g><path d="m63.986 184.448-6.757 11.036c-.727 1.188-2.019 1.911-3.411 1.911h-29.051c-.636 2.423 1.163 5 3.874 5h30.177c1.392 0 2.684-.724 3.411-1.911l9.818-16.036z" fill="#f79219"/></g></g><g><g><path d="m185.83 196.567v-38.247c0-2.974 3.129-4.908 5.789-3.578l38.247 19.123c2.948 1.474 2.948 5.681 0 7.155l-38.247 19.123c-2.66 1.332-5.789-.602-5.789-3.576z" fill="#ffa91a"/></g></g><g><g><path d="m229.865 173.866-2.791-1.395c-.009 1.411-.745 2.818-2.209 3.551l-38.247 19.123c-.259.13-.524.22-.789.289v1.133c0 2.974 3.129 4.907 5.789 3.578l38.247-19.123c2.948-1.474 2.948-5.682 0-7.156z" fill="#f79219"/></g></g></g></g><g><g><path d="m135.004 132.871v65.935c6.18 2.703 10.503 8.864 10.503 16.041s-4.323 13.338-10.503 16.041v9.685h-14.009v-9.685c-6.18-2.703-10.503-8.863-10.503-16.041 0-7.177 4.323-13.338 10.503-16.041v-65.935z" fill="#58595b"/></g></g><g><g><g><path d="m137.636 200.25c1.813 2.755 2.871 6.051 2.871 9.597 0 7.177-4.323 13.338-10.503 16.041v9.685h-9.009v5h14.009v-9.685c6.18-2.703 10.503-8.863 10.503-16.041.001-6.105-3.133-11.465-7.871-14.597z" fill="#414042"/></g></g></g><g><g><g><path d="m183.877 57.006c2.725 4.031 1.666 9.507-2.365 12.231-4.031 2.725-9.507 1.666-12.231-2.365s-7.463-18.084-3.433-20.808 15.304 6.911 18.029 10.942z" fill="#e63950"/></g></g><g><g><path d="m183.877 57.006c-.973-1.44-3.039-3.594-5.474-5.645.176.226.339.445.474.645 2.725 4.031 1.666 9.507-2.365 12.231-2.523 1.706-5.613 1.928-8.239.867.351.699.693 1.302 1.008 1.768 2.725 4.031 8.201 5.089 12.231 2.365 4.031-2.724 5.09-8.2 2.365-12.231z" fill="#d10028"/></g></g><g><g><path d="m167.839 27.817 25.016 13.964c3.6 2.01 2.173 7.493-1.95 7.493h-25.665z" fill="#ffa91a"/></g></g><g><g><path d="m192.855 41.781-2.951-1.647c.047 2.065-1.463 4.14-3.999 4.14h-20.06l-.606 5h25.665c4.125 0 5.551-5.483 1.951-7.493z" fill="#f79219"/></g></g><g><g><g><path d="m93.75 99.298c-.91.133-1.83.056-2.704-.229-20.107-6.56-47.904-15.503-52.072-17.91-7.576-4.374-10.172-14.061-5.798-21.637s14.061-10.172 21.637-5.798c1.265.73 26.967 22.446 41.931 35.119 3.92 3.321 2.09 9.713-2.994 10.455z" fill="#76a34f"/></g></g><g><g><g><path d="m78.87 83.58c-.48 0-.94-.16-1.3-.47-19.01-16.11-24.94-21.05-26.55-22.35-1.936-1.209-4.228-1.358-6.41-.89-1.505.05-2.539-1.781-1.7-3.04.837-1.279 2.646-1.122 4-1.231 2.377.074 4.985.649 6.81 2.2 7.632 6.314 12.747 10.688 26.44 22.26 1.412 1.102.52 3.596-1.29 3.521zm-40.5-19.06c-1.492.033-2.512-1.711-1.73-3 1.413-2.2 4.696-.34 3.47 2-.36.62-1.02 1-1.74 1z" fill="#91b56b"/></g></g></g><g><g><path d="m93.293 103.287c-.774.496-1.645.804-2.559.905-21.025 2.301-50.038 5.598-54.827 5.121-8.705-.866-15.059-8.625-14.193-17.33s8.625-15.059 17.33-14.193c1.453.145 33.817 9.351 52.672 14.737 4.94 1.411 5.904 7.99 1.577 10.76z" fill="#648940"/></g></g><g><g><path d="m96.437 107.794c-.549.738-1.254 1.335-2.073 1.751-18.85 9.592-44.82 22.941-49.468 24.189-8.448 2.27-17.137-2.739-19.407-11.187s2.739-17.137 11.187-19.407c1.41-.379 34.938-3.22 54.479-4.853 5.12-.427 8.35 5.385 5.282 9.507z" fill="#5a7a39"/></g></g></g><g><g><path d="m165.24 81.022c4.507 5.456 8.534 15.89 8.534 22.849 0 19.39-20.283 35.109-45.304 35.109s-45.304-15.719-45.304-35.109c0-.073 0-.146.001-.218.081-10.258 9.015-18.161 19.246-17.418 1.406.102 2.831.154 4.272.154 9.978 0 19.202-2.5 26.687-6.735z" fill="#ffa91a"/></g></g><g><g><path d="m165.24 81.022-4.46-.192c1.804 4.471 2.994 9.266 2.994 13.041 0 19.39-20.283 35.109-45.304 35.109-11.616 0-22.206-3.391-30.225-8.962 7.544 11.262 22.719 18.962 40.225 18.962 25.021 0 45.304-15.719 45.304-35.109 0-6.959-4.027-17.392-8.534-22.849z" fill="#f79219"/></g></g><g><g><path d="m165.24 81.022-1.749-.075c3.026 5.558 5.283 12.715 5.283 17.924 0 19.39-20.283 35.109-45.304 35.109-13.099 0-24.893-4.313-33.164-11.201 8.052 9.74 22.13 16.201 38.164 16.201 25.021 0 45.304-15.719 45.304-35.109 0-6.959-4.027-17.392-8.534-22.849z" fill="#ef7816"/></g></g><g><g><path d="m169.218 48.415c10.695-13.044.878-33.106-15.945-32.987-11.239 0-20.35 9.111-20.35 20.35 0 2.365 2.18 13.751 3.934 22.532 1.145 5.694-.267 11.553-3.717 16.095-1.233 1.624-1.129 3.907.358 5.301 13.208 12.386 26.486 7.605 32.73 4.089 1.985-1.118 2.641-3.645 1.448-5.586-3.375-5.488-8.383-17.432 1.542-29.794z" fill="#76a34f"/></g></g><g><g><path d="m164.788 19c4.93 6.978 5.618 16.868-.571 24.415-9.925 12.361-4.916 24.306-1.542 29.794 1.193 1.94.537 4.468-1.448 5.586-5.625 3.167-16.957 7.354-28.804-.898.177.671.53 1.299 1.073 1.808 13.208 12.386 26.486 7.605 32.73 4.089 1.985-1.118 2.641-3.646 1.448-5.586-3.374-5.488-8.383-17.433 1.542-29.794 7.899-9.631 4.605-23.079-4.428-29.414z" fill="#648940"/></g></g><g><g><circle cx="155.687" cy="32.341" fill="#ffa91a" r="5.886"/></g></g><g><g><path d="m158.723 27.305c.536.887.85 1.924.85 3.036 0 3.251-2.635 5.886-5.886 5.886-1.112 0-2.149-.314-3.036-.85 1.031 1.706 2.897 2.85 5.036 2.85 3.251 0 5.886-2.635 5.886-5.886 0-2.139-1.144-4.005-2.85-5.036z" fill="#f79219"/></g></g></g></g></svg>