<svg id="Layer_1" enable-background="new 0 0 256 256" height="512" viewBox="0 0 256 256" width="512" xmlns="http://www.w3.org/2000/svg"><g><g><g><path d="m198.752 232.848h-141.504c-2.209 0-4-1.791-4-4v-58.596c0-4.418 3.582-8 8-8h133.503c4.418 0 8 3.582 8 8v58.596c.001 2.209-1.79 4-3.999 4z" fill="#e63950"/></g></g><g><g><path d="m59.25 220.26c-1.1 0-2-.9-2-2s.9-2 2-2 2 .9 2 2-.9 2-2 2zm0-8c-1.1 0-2-.9-2-2v-40.01c0-2.2 1.8-4 4-4h114.76c1.1 0 2 .899 2 2 0 1.109-.9 2-2 2h-114.76v40.01c0 1.099-.9 2-2 2z" fill="#e8566f"/></g></g><g><g><path d="m194.752 162.251h-2v56.596c0 2.209-1.791 4-4 4h-135.504v6c0 2.209 1.791 4 4 4h141.503c2.209 0 4-1.791 4-4v-58.596c.001-4.418-3.581-8-7.999-8z" fill="#d10028"/></g></g><g><g><path d="m197.328 162.676c.275.808.424 1.675.424 2.576v58.596c0 2.209-1.791 4-4 4h-140.504v1c0 2.209 1.791 4 4 4h141.503c2.209 0 4-1.791 4-4v-58.596c.001-3.517-2.269-6.504-5.423-7.576z" fill="#b7022d"/></g></g><g><g><path d="m196.828 86.169h-137.656c-2.834 0-4.769-2.866-3.71-5.494l16.778-41.662c.61-1.514 2.078-2.506 3.71-2.506h104.1c1.632 0 3.101.992 3.71 2.506l16.778 41.662c1.059 2.628-.876 5.494-3.71 5.494z" fill="#8c3f0a"/></g></g><g><g><path d="m200.539 80.674-16.778-41.662c-.61-1.514-2.078-2.506-3.71-2.506h-13.271l13.76 34.167c1.059 2.629-.877 5.494-3.71 5.494h-119.554l-1.815 4.506c-1.059 2.629.877 5.494 3.71 5.494h137.657c2.834.001 4.769-2.864 3.711-5.493z" fill="#7c3108"/></g></g><g><g><g><path d="m65.666 86.169h18.874v76.083h-18.874z" fill="#8c3f0a"/></g></g><g><g><path d="m79.54 86.168v71.083h-13.874v5h18.874v-76.083z" fill="#7c3108"/></g></g><g><g><path d="m171.46 86.169h18.874v76.083h-18.874z" fill="#8c3f0a"/></g></g><g><g><path d="m185.334 86.168v71.083h-13.874v5h18.874v-76.083z" fill="#7c3108"/></g></g></g><g><g><path d="m66.771 52.591h122.458l-3.973-9.864h-114.512z" fill="#7c3108"/></g></g><g><g><path d="m59.276 71.202h137.448l-3.972-9.864h-129.504z" fill="#7c3108"/></g></g><g><g><path d="m96.016 191.79h-26.35c-2.209 0-4-1.791-4-4v-8.215c0-2.209 1.791-4 4-4h26.35c2.209 0 4 1.791 4 4v8.215c0 2.21-1.791 4-4 4z" fill="#d10028"/></g></g><g><g><path d="m175.565 191.79h-26.35c-2.209 0-4-1.791-4-4v-8.215c0-2.209 1.791-4 4-4h26.35c2.209 0 4 1.791 4 4v8.215c0 2.21-1.79 4-4 4z" fill="#d10028"/></g></g><g><g><path d="m158.39 217.085h-26.35c-2.209 0-4-1.791-4-4v-8.215c0-2.209 1.791-4 4-4h26.35c2.209 0 4 1.791 4 4v8.215c0 2.21-1.791 4-4 4z" fill="#d10028"/></g></g><g><g><path d="m118.717 200.871h-26.35c-2.209 0-4-1.791-4-4v-8.215c0-2.209 1.791-4 4-4h26.35c2.209 0 4 1.791 4 4v8.215c0 2.209-1.791 4-4 4z" fill="#b7022d"/></g></g><g><g><path d="m84.54 96.964h86.92v4h-86.92z" fill="#58595b"/></g></g><g><g><path d="m155.559 104.482h-55.117c-1.105 0-2-.895-2-2v-7.035c0-1.105.895-2 2-2h55.117c1.105 0 2 .895 2 2v7.035c0 1.104-.896 2-2 2z" fill="#995222"/></g></g><g><g><path d="m141.738 129.475h-27.477c-2.558 0-4.458 2.368-3.905 4.865l5.487 24.777c.406 1.832 2.029 3.135 3.905 3.135h16.503c1.876 0 3.5-1.304 3.905-3.135l5.487-24.777c.554-2.498-1.347-4.865-3.905-4.865z" fill="#58595b"/></g></g><g><g><path d="m141.738 129.475h-7.232l-4.35 19.642c-.406 1.832-2.029 3.135-3.905 3.135h-11.929l1.52 6.865c.406 1.832 2.029 3.135 3.905 3.135h16.503c1.876 0 3.5-1.303 3.905-3.135l5.487-24.777c.555-2.498-1.346-4.865-3.904-4.865z" fill="#414042"/></g></g><g><g><path d="m138.951 129.475h-4v-2.476c0-3.832-3.118-6.95-6.951-6.95s-6.951 3.118-6.951 6.95v2.476h-4v-2.476c0-6.038 4.913-10.95 10.951-10.95s10.951 4.912 10.951 10.95z" fill="#414042"/></g></g><g><g><g><path d="m128 124.21c-1.105 0-2-.895-2-2v-17.729h4v17.729c0 1.105-.895 2-2 2z" fill="#ffa91a"/></g></g></g><g><g><g><g><path d="m104.307 106.481c-1.104 0-2-.896-2-2v-11.034c0-1.104.896-2 2-2s2 .896 2 2v11.034c0 1.105-.895 2-2 2z" fill="#ffa91a"/></g></g><g><g><path d="m112.649 106.481c-1.104 0-2-.896-2-2v-11.034c0-1.104.896-2 2-2s2 .896 2 2v11.034c0 1.105-.896 2-2 2z" fill="#ffa91a"/></g></g><g><g><path d="m120.991 106.481c-1.104 0-2-.896-2-2v-11.034c0-1.104.896-2 2-2s2 .896 2 2v11.034c0 1.105-.896 2-2 2z" fill="#ffa91a"/></g></g></g><g><g><g><path d="m135.009 106.481c-1.104 0-2-.896-2-2v-11.034c0-1.104.896-2 2-2s2 .896 2 2v11.034c0 1.105-.895 2-2 2z" fill="#ffa91a"/></g></g><g><g><path d="m143.351 106.481c-1.104 0-2-.896-2-2v-11.034c0-1.104.896-2 2-2s2 .896 2 2v11.034c0 1.105-.895 2-2 2z" fill="#ffa91a"/></g></g><g><g><path d="m151.693 106.481c-1.104 0-2-.896-2-2v-11.034c0-1.104.896-2 2-2s2 .896 2 2v11.034c0 1.105-.896 2-2 2z" fill="#ffa91a"/></g></g></g></g></g></svg>