<svg id="Layer_1" enable-background="new 0 0 256 256" height="512" viewBox="0 0 256 256" width="512" xmlns="http://www.w3.org/2000/svg"><g><g><g><g><g><path d="m60.392 231.477c-2.156 0-4.146-1.406-4.791-3.579-.786-2.647.724-5.43 3.371-6.216 73.122-21.696 132.698-72.554 148.247-126.554.765-2.653 3.532-4.187 6.188-3.421 2.653.764 4.186 3.535 3.421 6.188-8.405 29.191-28.275 57.475-57.463 81.794-27.209 22.67-61.853 40.989-97.55 51.58-.473.141-.953.208-1.423.208z" fill="#ef7816"/></g></g><g><g><g><g><path d="m202.88 70.901c-3.949 13.456-.6 27.212 2.079 34.902 1.154 3.311 5.228 4.507 7.988 2.344 6.41-5.023 16.661-14.787 20.611-28.244 3.949-13.456.6-27.212-2.079-34.902-1.154-3.311-5.228-4.507-7.988-2.344-6.411 5.023-16.662 14.787-20.611 28.244z" fill="#ffa91a"/></g></g><g><g><path d="m231.479 45.001c-1.13-3.244-5.063-4.457-7.818-2.472 1.781 7.653 2.767 17.593-.104 27.374-3.949 13.456-14.2 23.22-20.611 28.243-.056.044-.113.086-.17.127.669 2.875 1.451 5.428 2.182 7.528 1.154 3.312 5.228 4.507 7.988 2.344 6.41-5.023 16.661-14.787 20.611-28.243 3.949-13.455.601-27.21-2.078-34.901z" fill="#f79219"/></g></g><g><g><path d="m231.479 45.001c-.711-2.041-2.531-3.278-4.47-3.42 2.554 7.903 5.24 20.743 1.548 33.323-3.949 13.456-14.2 23.22-20.611 28.243-1.059.83-2.311 1.165-3.518 1.076.178.551.356 1.078.53 1.58 1.154 3.312 5.228 4.507 7.988 2.344 6.41-5.023 16.661-14.787 20.611-28.243 3.949-13.457.601-27.212-2.078-34.903z" fill="#ef7816"/></g></g><g><g><g><path d="m211.256 120.837c-13.69 4.967-21.018 19.384-21.018 19.384s14.868 6.363 28.558 1.396c8.751-3.175 14.902-10.211 18.202-14.875 1.608-2.273.455-5.45-2.236-6.163-5.523-1.463-14.755-2.917-23.506.258z" fill="#ffa91a"/></g></g><g><g><path d="m234.761 120.579c-.644-.171-1.34-.341-2.078-.504-.093.576-.316 1.146-.685 1.667-3.3 4.664-9.451 11.7-18.202 14.875-7.91 2.87-16.214 1.957-21.815.675-1.154 1.771-1.743 2.929-1.743 2.929s14.868 6.363 28.558 1.396c8.751-3.175 14.902-10.211 18.202-14.875 1.608-2.273.455-5.45-2.237-6.163z" fill="#f79219"/></g></g><g><g><path d="m170.854 119.203c4.967 13.69 19.384 21.018 19.384 21.018s6.363-14.868 1.396-28.558c-3.175-8.751-10.211-14.902-14.875-18.202-2.273-1.608-5.45-.455-6.163 2.236-1.463 5.523-2.918 14.755.258 23.506z" fill="#ffa91a"/></g></g><g><g><path d="m191.634 111.663c-2.397-6.605-6.992-11.729-11.108-15.263 2.442 2.873 4.671 6.302 6.108 10.263 4.967 13.69-1.396 28.558-1.396 28.558s-3.862-1.963-8.276-5.755c5.996 7.054 13.276 10.755 13.276 10.755s6.364-14.868 1.396-28.558z" fill="#f79219"/></g></g></g><g><g><g><path d="m173.611 170.129c-14.506 1.293-25.284 13.35-25.284 13.35s12.74 9.961 27.246 8.669c9.272-.826 17.021-6.051 21.406-9.713 2.137-1.785 1.837-5.152-.582-6.53-4.963-2.83-13.514-6.602-22.786-5.776z" fill="#ffa91a"/></g></g><g><g><path d="m196.397 175.904c-.886-.505-1.887-1.04-2.985-1.574.013 1.138-.454 2.287-1.433 3.104-4.385 3.663-12.134 8.887-21.406 9.713-8.291.739-16.005-2.199-21.093-4.852-.752.734-1.153 1.183-1.153 1.183s12.74 9.961 27.246 8.669c9.272-.826 17.021-6.051 21.406-9.713 2.137-1.784 1.837-5.151-.582-6.53z" fill="#f79219"/></g></g><g><g><path d="m134.976 158.195c1.293 14.506 13.35 25.284 13.35 25.284s9.961-12.74 8.669-27.246c-.826-9.272-6.051-17.021-9.713-21.406-1.785-2.137-5.152-1.837-6.53.582-2.83 4.963-6.602 13.514-5.776 22.786z" fill="#ffa91a"/></g></g><g><g><path d="m156.995 156.233c-.826-9.272-6.051-17.021-9.713-21.406-.603-.722-1.388-1.166-2.215-1.344 3.105 4.484 6.297 10.673 6.928 17.75 1.178 13.216-6.986 24.966-8.447 26.951 2.602 3.35 4.778 5.295 4.778 5.295s9.962-12.74 8.669-27.246z" fill="#f79219"/></g></g></g><g><g><g><path d="m126.177 206.261c-14.262-2.949-28.061 5.484-28.061 5.484s9.323 13.215 23.584 16.164c9.116 1.885 18.044-.88 23.299-3.121 2.561-1.092 3.246-4.402 1.328-6.42-3.936-4.142-11.034-10.222-20.15-12.107z" fill="#ffa91a"/></g></g><g><g><path d="m146.327 218.368c-1.173-1.234-2.627-2.641-4.331-4.057 1.012 1.984.195 4.542-1.997 5.477-5.255 2.241-14.183 5.006-23.299 3.121-6.85-1.417-12.561-5.202-16.646-8.753 3.434 3.955 11.22 11.597 21.646 13.753 9.116 1.885 18.044-.88 23.299-3.121 2.561-1.092 3.245-4.402 1.328-6.42z" fill="#f79219"/></g></g><g><g><path d="m92.632 183.684c-2.949 14.262 5.484 28.061 5.484 28.061s13.215-9.323 16.164-23.584c1.885-9.116-.88-18.044-3.121-23.299-1.092-2.561-4.402-3.246-6.42-1.328-4.142 3.935-10.222 11.033-12.107 20.15z" fill="#ffa91a"/></g></g><g><g><path d="m111.159 164.862c-.71-1.666-2.359-2.537-3.98-2.416 1.942 5.338 3.705 12.957 2.101 20.714-2.248 10.871-10.461 18.872-14.239 22.062 1.534 4.001 3.075 6.522 3.075 6.522s13.215-9.323 16.164-23.584c1.885-9.116-.88-18.043-3.121-23.298z" fill="#f79219"/></g></g></g></g></g></g></g><g><g><g><g><path d="m43.979 164.49c-.458 0-.923-.063-1.386-.197-2.653-.764-4.186-3.535-3.421-6.188 8.405-29.191 28.275-57.475 57.463-81.794 27.209-22.67 61.853-40.989 97.55-51.58 2.645-.786 5.43.724 6.215 3.371.786 2.647-.724 5.43-3.371 6.216-73.123 21.696-132.699 72.554-148.248 126.554-.631 2.191-2.631 3.618-4.802 3.618z" fill="#ef7816"/></g></g><g><g><g><g><path d="m53.12 185.099c3.949-13.456.6-27.212-2.079-34.902-1.154-3.311-5.228-4.507-7.988-2.344-6.41 5.023-16.661 14.787-20.611 28.244-3.949 13.456-.6 27.212 2.079 34.902 1.154 3.311 5.228 4.507 7.988 2.344 6.411-5.023 16.662-14.787 20.611-28.244z" fill="#ffa91a"/></g></g><g><g><path d="m28.319 204.69c-.92 0-1.72-.63-1.939-1.53-.26-1.07.4-2.16 1.47-2.42 1.061-.25 2.16.42 2.42 1.48.12.52.04 1.05-.239 1.51-.28.46-.721.78-1.24.9-.151.04-.312.06-.472.06zm-1.38-7.88c-1.02 0-1.88-.77-1.989-1.78-.21-1.96-.311-3.9-.311-5.76 0-4.28.55-8.34 1.641-12.05 2.369-8.02 7.449-15.66 15.1-22.7.78-.72 2.11-.67 2.83.12.359.39.55.9.52 1.43-.02.54-.25 1.03-.64 1.39-4.9 4.49-11.31 11.77-13.97 20.89-.99 3.34-1.49 7.01-1.49 10.92 0 1.73.1 3.53.3 5.33.12 1.09-.68 2.08-1.78 2.2-.07.01-.14.01-.211.01z" fill="#ffc91d"/></g></g><g><g><path d="m51.041 150.197c-.711-2.041-2.531-3.278-4.47-3.42 2.554 7.903 5.24 20.744 1.548 33.323-3.949 13.456-14.2 23.22-20.61 28.244-1.059.83-2.312 1.165-3.518 1.076.178.551.356 1.078.53 1.58 1.154 3.311 5.228 4.507 7.988 2.344 6.41-5.023 16.661-14.787 20.61-28.244 3.95-13.457.601-27.212-2.078-34.903z" fill="#f79219"/></g></g><g><g><g><path d="m44.744 135.163c13.69-4.967 21.018-19.384 21.018-19.384s-14.868-6.363-28.558-1.396c-8.751 3.175-14.902 10.211-18.202 14.875-1.608 2.273-.455 5.45 2.236 6.163 5.523 1.463 14.755 2.917 23.506-.258z" fill="#ffa91a"/></g></g><g><g><path d="m59.019 113.708c-2.92 4.482-9.464 12.895-19.275 16.456-7.73 2.805-15.834 1.997-21.427.762-.312 1.934.848 3.947 2.922 4.496 5.522 1.463 14.755 2.917 23.505-.258 13.69-4.968 21.018-19.385 21.018-19.385s-2.65-1.134-6.743-2.071z" fill="#f79219"/></g></g><g><g><path d="m85.146 136.797c-4.967-13.69-19.384-21.018-19.384-21.018s-6.363 14.868-1.396 28.558c3.175 8.751 10.211 14.902 14.875 18.202 2.273 1.608 5.45.455 6.163-2.236 1.463-5.523 2.918-14.755-.258-23.506z" fill="#ffa91a"/></g></g><g><g><path d="m85.146 136.797c-2.397-6.605-6.993-11.729-11.108-15.263 2.442 2.873 4.671 6.302 6.108 10.263 3.175 8.751 1.721 17.983.258 23.505-.713 2.692-3.89 3.844-6.163 2.236-1.144-.809-2.43-1.79-3.767-2.938 2.952 3.473 6.215 6.133 8.767 7.938 2.273 1.608 5.45.455 6.163-2.236 1.463-5.522 2.918-14.754-.258-23.505z" fill="#f79219"/></g></g></g><g><g><g><path d="m82.389 85.871c14.506-1.293 25.284-13.35 25.284-13.35s-12.74-9.961-27.246-8.669c-9.272.826-17.021 6.051-21.406 9.713-2.137 1.785-1.837 5.152.582 6.53 4.963 2.83 13.514 6.602 22.786 5.776z" fill="#ffa91a"/></g></g><g><g><path d="m101.52 68.703c-3.145 3.069-12.423 11.124-24.131 12.167-7.617.679-14.747-1.746-19.801-4.201.015 1.347.703 2.678 2.015 3.426 4.963 2.83 13.514 6.602 22.786 5.775 14.506-1.293 25.284-13.35 25.284-13.35s-2.338-1.828-6.153-3.817z" fill="#f79219"/></g></g><g><g><path d="m121.024 97.805c-1.293-14.506-13.35-25.284-13.35-25.284s-9.961 12.74-8.669 27.246c.826 9.272 6.051 17.021 9.713 21.406 1.785 2.137 5.152 1.837 6.53-.582 2.83-4.963 6.602-13.514 5.776-22.786z" fill="#ffa91a"/></g></g><g><g><path d="m121.024 97.805c-1.293-14.506-13.35-25.284-13.35-25.284s-.079.101-.222.295c3.523 4.535 7.828 11.646 8.572 19.989.826 9.272-2.946 17.823-5.775 22.787-.913 1.601-2.696 2.273-4.316 1.926.963 1.391 1.918 2.618 2.785 3.656 1.785 2.137 5.151 1.837 6.53-.582 2.83-4.964 6.602-13.515 5.776-22.787z" fill="#f79219"/></g></g></g><g><g><g><path d="m129.823 49.739c14.262 2.949 28.061-5.484 28.061-5.484s-9.322-13.215-23.584-16.164c-9.116-1.885-18.044.88-23.299 3.121-2.561 1.092-3.246 4.402-1.328 6.42 3.936 4.142 11.034 10.222 20.15 12.107z" fill="#ffa91a"/></g></g><g><g><path d="m150.947 36.844c1.263 1.455 1.938 2.411 1.938 2.411s-13.8 8.433-28.061 5.484c-6.399-1.323-11.804-4.714-15.819-8.05.171.334.393.652.669.943 3.935 4.142 11.034 10.221 20.15 12.106 14.261 2.949 28.061-5.484 28.061-5.484s-2.519-3.568-6.938-7.41z" fill="#f79219"/></g></g><g><g><path d="m163.368 72.316c2.949-14.262-5.484-28.061-5.484-28.061s-13.214 9.323-16.164 23.585c-1.885 9.116.88 18.044 3.121 23.299 1.092 2.561 4.402 3.246 6.42 1.328 4.142-3.936 10.222-11.034 12.107-20.151z" fill="#ffa91a"/></g></g><g><g><path d="m157.885 44.255s-.747.527-1.925 1.522c2.055 5.359 4.098 13.374 2.409 21.539-1.885 9.116-7.965 16.214-12.106 20.15-.706.671-1.569 1.022-2.441 1.088.34.935.686 1.801 1.02 2.584 1.092 2.561 4.402 3.246 6.42 1.328 4.141-3.935 10.221-11.033 12.106-20.15 2.95-14.261-5.483-28.061-5.483-28.061z" fill="#f79219"/></g></g></g></g></g></g></g></g></svg>