<svg id="Layer_1" enable-background="new 0 0 256 256" height="512" viewBox="0 0 256 256" width="512" xmlns="http://www.w3.org/2000/svg"><g><g><g><g><path d="m76.069 86.066 7.667-9.372c1.519-1.857 3.792-2.934 6.192-2.934h5.619c2.4 0 4.672-1.077 6.192-2.934l5.434-6.642c1.519-1.857 3.792-2.934 6.192-2.934h9.558c2.4 0 4.672-1.077 6.192-2.934l2.437-2.979c1.519-1.857 3.792-2.934 6.192-2.934h10.365c2.4 0 4.672 1.077 6.192 2.934l1.092 1.335c1.519 1.857 3.792 2.934 6.192 2.934h6.509c2.4 0 4.672 1.077 6.192 2.934l3.62 4.425c1.519 1.857 3.792 2.934 6.192 2.934h5.24c2.4 0 4.672 1.077 6.192 2.934l10.826 13.233z" fill="#ffa91a"/></g></g><g><g><g><path d="m195.529 72.832c-1.519-1.857-3.792-2.934-6.192-2.934h-5.24c-1.195 0-2.359-.267-3.414-.765l2.999 3.666c1.068 1.306.139 3.266-1.548 3.266l-97.824.001c-.201.198-.392.407-.573.628l-7.667 9.372 130.285-.001z" fill="#f79219"/></g></g></g><g><g><g><path d="m94.497 153.976v38.443c0 6.174 5.005 11.18 11.18 11.18h9.974c4.224 0 8.04-2.337 9.96-6.1l16.403-32.188-11.45-2.731-14.523 28.475c-.342.67-1.03 1.091-1.782 1.091h-6.309c-1.105 0-2-.895-2-2v-33.438z" fill="#58595b"/></g></g></g><g><g><g><path d="m135.284 163.706-14.674 28.793c-1.919 3.762-5.735 6.1-9.96 6.1h-9.974c-1.798 0-3.496-.425-5.001-1.179 1.836 3.664 5.624 6.179 10.001 6.179h9.974c4.224 0 8.04-2.337 9.96-6.1l16.403-32.188z" fill="#414042"/></g></g></g><g><g><path d="m208.889 151.549c-14.373 0-26.025 11.652-26.025 26.025s11.652 26.025 26.025 26.025 26.025-11.652 26.025-26.025-11.652-26.025-26.025-26.025z" fill="#808285"/></g></g><g><g><path d="m224.621 156.841c3.321 4.37 5.293 9.821 5.293 15.733 0 14.373-11.652 26.025-26.025 26.025-5.912 0-11.363-1.972-15.733-5.293 4.753 6.254 12.271 10.293 20.733 10.293 14.373 0 26.025-11.652 26.025-26.025 0-8.462-4.039-15.98-10.293-20.733z" fill="#58595b"/></g></g><g><g><path d="m208.889 160.58c-9.386 0-16.994 7.609-16.994 16.994 0 9.386 7.608 16.994 16.994 16.994s16.994-7.609 16.994-16.994c0-9.386-7.609-16.994-16.994-16.994z" fill="#58595b"/></g></g><g><g><path d="m219.928 164.654c1.248 2.365 1.955 5.06 1.955 7.92 0 9.386-7.609 16.994-16.994 16.994-4.214 0-8.07-1.534-11.04-4.074 2.848 5.396 8.514 9.074 15.04 9.074 9.386 0 16.994-7.609 16.994-16.994 0-5.172-2.31-9.803-5.955-12.92z" fill="#414042"/></g></g><g><g><path d="m208.889 170.999c-3.631 0-6.575 2.944-6.575 6.575s2.944 6.575 6.575 6.575 6.575-2.944 6.575-6.575-2.944-6.575-6.575-6.575z" fill="#ffa91a"/></g></g><g><g><path d="m210.309 171.153c.101.458.154.933.154 1.421 0 3.631-2.944 6.575-6.575 6.575-.488 0-.963-.054-1.421-.154.649 2.948 3.277 5.154 6.421 5.154 3.631 0 6.575-2.944 6.575-6.575.001-3.144-2.205-5.771-5.154-6.421z" fill="#f79219"/></g></g><path d="m208.888 151.549c.203 0 .405.003.607.007l-9.591-31.492-7.601 12.479 6.416 21.068c3.125-1.328 6.561-2.062 10.169-2.062z" fill="#58595b"/><path d="m196.913 147.678 1.807 5.933c3.124-1.327 6.561-2.062 10.169-2.062.203 0 .405.003.607.007l-9.591-31.492-2.318 3.806 6.909 22.687c-.202-.005-.404-.008-.607-.008-2.439 0-4.784.397-6.976 1.129z" fill="#414042"/><g><g><path d="m69.595 86.066h142.865c3.575 0 5.772 3.911 3.912 6.964l-41.871 68.738-80.371-19.058z" fill="#8c3f0a"/></g></g><g><g><path d="m93.8 128.85c-.8 0-1.52-.47-1.84-1.21-.21-.49-.22-1.03-.02-1.53.2-.49.57-.88 1.06-1.1 1-.43 2.21.06 2.63 1.04.22.49.23 1.04.03 1.53-.2.5-.58.89-1.07 1.1-.25.11-.52.17-.79.17zm-3.18-7.34c-.8 0-1.52-.47-1.84-1.21l-11.88-27.44c-.27-.62-.21-1.33.16-1.89.37-.57 1-.9 1.67-.9h97.31c1.1 0 2 .89 2 2 0 1.1-.9 2-2 2h-94.26l10.67 24.64c.22.49.23 1.04.03 1.53-.2.5-.58.89-1.07 1.1-.25.11-.52.17-.79.17z" fill="#995222"/></g></g><g><g><path d="m212.46 86.066h-7.937l-40.022 65.702-74.054-17.561 3.683 8.502 80.371 19.059 41.871-68.738c1.86-3.052-.338-6.964-3.912-6.964z" fill="#7c3108"/></g></g><g><g><path d="m212.46 86.066h-.431c-.061.663-.272 1.332-.657 1.964l-41.871 68.738-77.213-18.31 1.841 4.251 80.371 19.059 41.871-68.738c1.861-3.052-.337-6.964-3.911-6.964z" fill="#6d2e03"/></g></g></g><g><g><path d="m186.327 164.592-92.197-21.882-23.941-55.514c-.882-2.046-2.48-3.701-4.494-4.654l-36.769-17.447c-2.708-1.317-5.972-.189-7.289 2.519s-.189 5.971 2.519 7.288l32.607 15.406c1.022.482 1.83 1.325 2.268 2.366l22.938 54.498c1.132 2.69 3.479 4.68 6.319 5.358l94.701 22.48c.368-3.765 1.538-7.296 3.338-10.418z" fill="#58595b"/></g></g><g><g><g><path d="m179.676 163.014c-.87 2.201-1.448 4.549-1.688 6.996l-94.701-22.48c-.465-.111-.916-.258-1.352-.436l.033.079c1.133 2.69 3.479 4.68 6.319 5.358l94.701 22.48c.368-3.766 1.539-7.296 3.339-10.418z" fill="#414042"/></g></g></g></g></svg>