<svg id="Layer_1" enable-background="new 0 0 256 256" height="512" viewBox="0 0 256 256" width="512" xmlns="http://www.w3.org/2000/svg"><g><g><g><g><path d="m147.507 228.459h-39.014l13.006-145.206h13.002z" fill="#e6e7e8"/></g></g><g><g><path d="m116.14 212.11c-.06 0-.12 0-.18-.01-1.1-.1-1.91-1.07-1.82-2.17.1-1.1 1.05-1.91 2.17-1.81 1.1.1 1.92 1.07 1.82 2.17-.1 1.04-.95 1.82-1.99 1.82zm.71-7.97c-.06 0-.12 0-.18-.01-1.1-.09-1.91-1.07-1.81-2.17l5.52-61.65c.1-1.1 1.05-1.91 2.17-1.81.53.05 1.01.3 1.36.71.34.41.5.93.45 1.46l-5.52 61.65c-.09 1.04-.95 1.82-1.99 1.82z" fill="#fff"/></g></g><g><g><path d="m134.501 83.253h-9.104l12.11 135.206h-28.119l-.895 10h39.014z" fill="#d1d3d4"/></g></g><g><g><g><g><g><path d="m129.083 89.832c-4.214 0-7.846-2.518-8.693-6.026l-2.965-12.283c-2.143-6.946-2.447-14.209-.889-21.267l8.119-36.795c.595-2.696 3.365-4.65 6.593-4.65 3.705 0 6.708 2.552 6.708 5.701v67.778c.001 4.166-3.972 7.542-8.873 7.542z" fill="#f1f2f2"/></g></g></g></g><g><g><path d="m132.929 8.992c.018.171.028.345.028.52v67.779c0 4.165-3.973 7.541-8.874 7.541-1.269 0-2.485-.229-3.588-.644 1.01 3.307 4.529 5.644 8.588 5.644 4.901 0 8.874-3.376 8.874-7.541v-67.779c0-2.655-2.136-4.886-5.028-5.52z" fill="#d1d3d4"/></g></g><g><g><g><g><path d="m129.083 89.832c2.107 3.649 1.742 8.054-.872 10.541l-9.155 8.709c-4.944 5.329-11.082 9.224-17.973 11.404l-35.925 11.366c-2.632.833-5.71-.589-7.324-3.385-1.852-3.209-1.144-7.086 1.583-8.66l58.698-33.889c3.607-2.083 8.518-.331 10.968 3.914z" fill="#f1f2f2"/></g></g></g></g><g><g><path d="m129.083 89.832c-1.122-1.943-2.76-3.364-4.552-4.134 1.588 3.458 1.091 7.382-1.32 9.675l-9.155 8.709c-4.944 5.329-11.082 9.224-17.973 11.404l-35.925 11.366c-.977.309-2.015.307-3.017.04.167.534.397 1.063.693 1.575 1.614 2.796 4.691 4.218 7.324 3.385l35.925-11.366c6.891-2.18 13.029-6.075 17.973-11.404l9.155-8.709c2.615-2.487 2.979-6.892.872-10.541z" fill="#d1d3d4"/></g></g><g><g><g><g><path d="m129.083 89.832c2.107-3.649 6.104-5.536 9.565-4.516l12.12 3.574c7.087 1.617 13.529 4.985 18.862 9.863l27.806 25.429c2.038 1.863 2.344 5.239.73 8.035-1.852 3.209-5.565 4.533-8.291 2.959l-58.698-33.889c-3.607-2.082-4.544-7.211-2.094-11.455z" fill="#f1f2f2"/></g></g></g></g><g><g><path d="m197.435 124.182-3.91-3.576c.99 1.894.9 4.429-.359 6.611-1.852 3.209-5.565 4.534-8.291 2.959l-56.755-32.767c.527 1.629 1.562 3.015 3.057 3.878l58.698 33.889c2.727 1.574 6.439.249 8.291-2.959 1.614-2.795 1.307-6.171-.731-8.035z" fill="#d1d3d4"/></g></g><g><g><circle cx="128" cy="88.755" fill="#ffa91a" r="16.429"/></g></g><g><g><path d="m133.489 73.265c.608 1.717.94 3.564.94 5.49 0 9.074-7.356 16.429-16.429 16.429-1.925 0-3.773-.331-5.489-.94 2.259 6.374 8.341 10.94 15.489 10.94 9.074 0 16.429-7.356 16.429-16.429 0-7.149-4.565-13.231-10.94-15.49z" fill="#f79219"/></g></g><g><g><path d="m136.846 74.908c1.635 2.554 2.583 5.589 2.583 8.846 0 9.074-7.356 16.429-16.429 16.429-3.257 0-6.293-.948-8.846-2.583 2.92 4.56 8.03 7.583 13.846 7.583 9.074 0 16.429-7.356 16.429-16.429 0-5.816-3.022-10.926-7.583-13.846z" fill="#ef7816"/></g></g></g></g><g><g><path d="m187.262 241.839h-118.524c-3.695 0-6.69-2.995-6.69-6.69 0-3.695 2.995-6.69 6.69-6.69h118.525c3.695 0 6.69 2.995 6.69 6.69-.001 3.695-2.996 6.69-6.691 6.69z" fill="#808285"/></g></g><g><g><path d="m188.779 228.632c.113.487.173.995.173 1.517 0 3.695-2.995 6.69-6.69 6.69h-118.524c-.522 0-1.029-.06-1.517-.173.687 2.964 3.344 5.173 6.517 5.173h118.525c3.695 0 6.69-2.995 6.69-6.69-.001-3.173-2.21-5.83-5.174-6.517z" fill="#58595b"/></g></g></g></svg>