<svg id="Layer_1" enable-background="new 0 0 256 256" height="512" viewBox="0 0 256 256" width="512" xmlns="http://www.w3.org/2000/svg"><g><g><g><path d="m197.525 72.886h-38.929c-2.209 0-4-1.791-4-4s1.791-4 4-4h38.929c2.209 0 4 1.791 4 4s-1.791 4-4 4z" fill="#58595b"/></g></g><g><g><path d="m128 101.482c-17.974 0-32.596-14.623-32.596-32.596s14.622-32.596 32.596-32.596 32.596 14.623 32.596 32.596-14.622 32.596-32.596 32.596zm0-61.192c-15.768 0-28.596 12.828-28.596 28.596s12.828 28.596 28.596 28.596 28.596-12.828 28.596-28.596-12.828-28.596-28.596-28.596z" fill="#808285"/></g></g><g><g><path d="m128 232.459c-2.209 0-4-1.791-4-4v-130.723c0-2.209 1.791-4 4-4s4 1.791 4 4v130.724c0 2.208-1.791 3.999-4 3.999z" fill="#58595b"/></g></g><g><g><path d="m172.493 232.46c-1.942 0-3.646-1.417-3.949-3.396l-19.48-127.329h-42.126l-19.48 127.329c-.334 2.183-2.379 3.683-4.559 3.349-2.184-.334-3.683-2.375-3.349-4.559l20-130.724c.299-1.953 1.979-3.395 3.954-3.395h48.995c1.976 0 3.655 1.442 3.954 3.395l20 130.724c.334 2.184-1.166 4.225-3.349 4.559-.207.032-.41.047-.611.047z" fill="#f79219"/></g></g><g><g><g><path d="m94.186 164.674c-1.454 0-2.855-.795-3.563-2.178-1.007-1.966-.229-4.376 1.737-5.383l62.893-32.209c1.966-1.008 4.376-.229 5.383 1.737s.229 4.376-1.737 5.383l-62.893 32.209c-.584.3-1.207.441-1.82.441z" fill="#f79219"/></g></g><g><g><path d="m161.814 164.674c-.613 0-1.236-.142-1.82-.441l-62.893-32.209c-1.966-1.007-2.744-3.417-1.737-5.383s3.417-2.745 5.383-1.737l62.893 32.209c1.966 1.007 2.744 3.417 1.737 5.383-.708 1.383-2.109 2.178-3.563 2.178z" fill="#f79219"/></g></g></g><g><g><g><path d="m89.046 202.306c-1.454 0-2.855-.795-3.563-2.178-1.007-1.966-.229-4.376 1.737-5.383l72.453-37.104c1.966-1.009 4.377-.229 5.383 1.737 1.007 1.966.229 4.376-1.737 5.383l-72.453 37.104c-.584.3-1.207.441-1.82.441z" fill="#f79219"/></g></g><g><g><path d="m166.954 202.306c-.613 0-1.236-.142-1.82-.441l-72.453-37.104c-1.966-1.007-2.744-3.417-1.737-5.383 1.006-1.966 3.417-2.746 5.383-1.737l72.453 37.104c1.966 1.007 2.744 3.417 1.737 5.383-.707 1.383-2.109 2.178-3.563 2.178z" fill="#f79219"/></g></g></g><g><g><path d="m187.262 241.839h-118.524c-3.695 0-6.69-2.995-6.69-6.69 0-3.695 2.995-6.69 6.69-6.69h118.525c3.695 0 6.69 2.995 6.69 6.69-.001 3.695-2.996 6.69-6.691 6.69z" fill="#808285"/></g></g><g><g><path d="m188.779 228.632c.113.487.173.995.173 1.517 0 3.695-2.995 6.69-6.69 6.69h-118.524c-.522 0-1.029-.06-1.517-.173.687 2.964 3.344 5.173 6.517 5.173h118.525c3.695 0 6.69-2.995 6.69-6.69-.001-3.173-2.21-5.83-5.174-6.517z" fill="#58595b"/></g></g><g><g><g><path d="m126.749 68.601-43.839 30.886c-2.029 1.43-2.28 4.343-.525 6.098l8.916 8.916c1.755 1.755 4.669 1.505 6.098-.525l30.886-43.839c.264-.375.591-.702.966-.966l43.839-30.886c2.029-1.43 2.28-4.343.525-6.098l-8.916-8.916c-1.755-1.755-4.669-1.505-6.098.525l-30.886 43.839c-.265.375-.591.701-.966.966z" fill="#e63950"/></g></g><g><g><path d="m173.615 32.187-4.999-4.999c1.754 1.755 1.503 4.668-.526 6.097l-32.118 22.628-8.258 11.721c-.264.375-.591.702-.966.966l-11.722 8.258-22.628 32.117c-1.429 2.029-4.342 2.28-6.097.526l4.999 4.999c1.755 1.755 4.669 1.505 6.098-.525l30.886-43.839c.264-.375.591-.702.966-.966l43.839-30.886c2.031-1.429 2.281-4.342.526-6.097z" fill="#d10028"/></g></g><g><g><path d="m127.715 70.137 30.886 43.839c1.43 2.029 4.343 2.28 6.098.525l8.916-8.916c1.755-1.755 1.505-4.669-.525-6.098l-43.839-30.886c-.375-.264-.702-.591-.966-.966l-30.886-43.84c-1.43-2.029-4.343-2.28-6.098-.525l-8.916 8.916c-1.755 1.755-1.505 4.669.525 6.098l43.839 30.886c.375.265.702.592.966.967z" fill="#e63950"/></g></g><g><g><g><path d="m123.285 62.634c.264.375.591.702.966.966l2.366 1.667-29.218-41.472c-.653-.927-1.616-1.483-2.637-1.646z" fill="#d10028"/></g></g><g><g><path d="m173.09 99.487-3.354-2.363c.194 1.213-.168 2.508-1.121 3.462l-8.916 8.916c-.953.953-2.248 1.315-3.462 1.121l2.363 3.354c1.43 2.029 4.343 2.28 6.098.525l8.916-8.916c1.756-1.756 1.506-4.67-.524-6.099z" fill="#d10028"/></g></g><g><g><path d="m122.715 65.137c-.264-.375-.591-.702-.966-.966l-40.485-28.523c.163 1.021.719 1.984 1.646 2.637l41.472 29.219z" fill="#d10028"/></g></g></g><g><g><path d="m127.317 67.799-52.839-9.159c-2.446-.424-4.683 1.459-4.683 3.941v12.609c0 2.482 2.237 4.365 4.683 3.941l52.839-9.159c.452-.078.914-.078 1.366 0l52.839 9.159c2.446.424 4.683-1.459 4.683-3.941v-12.609c0-2.482-2.237-4.365-4.683-3.941l-52.839 9.159c-.452.079-.914.079-1.366 0z" fill="#e63950"/></g></g><g><g><path d="m181.522 58.64-.317.055v11.495c0 2.482-2.237 4.365-4.683 3.941l-42.185-7.312-5.654.98c-.452.078-.914.078-1.366 0l-10.654-1.847-46.868 8.124v1.114c0 2.482 2.237 4.365 4.683 3.941l52.839-9.159c.452-.078.914-.078 1.366 0l52.839 9.159c2.446.424 4.683-1.459 4.683-3.941v-12.609c0-2.482-2.237-4.365-4.683-3.941z" fill="#d10028"/></g></g><g><g><path d="m126.913 69.569-9.159 52.839c-.424 2.446 1.459 4.683 3.941 4.683h12.609c2.482 0 4.365-2.237 3.941-4.683l-9.159-52.839c-.078-.452-.078-.914 0-1.366l9.159-52.839c.424-2.446-1.459-4.683-3.941-4.683h-12.609c-2.482 0-4.365 2.237-3.941 4.683l9.159 52.839c.079.452.079.914 0 1.366z" fill="#e63950"/></g></g><g><g><path d="m129.087 69.569c-.078-.452-.078-.914 0-1.366l9.159-52.839c.424-2.446-1.459-4.683-3.941-4.683h-1.114l-8.124 46.868 1.847 10.654c.078.452.078.914 0 1.366l-.98 5.654 7.312 42.185c.424 2.446-1.459 4.683-3.941 4.683h-11.495l-.055.317c-.424 2.446 1.459 4.683 3.941 4.683h12.609c2.482 0 4.365-2.237 3.941-4.683z" fill="#d10028"/></g></g></g><g><g><circle cx="128" cy="68.886" fill="#f79219" r="20.926"/></g></g><g><g><path d="m128 85.81c-1.1 0-2-.9-2-2s.9-2 2-2 2 .9 2 2-.89 1.99-1.99 2c0 0 0 0-.01 0zm-7.62-2.09c-.36 0-.71-.1-1.02-.28-2.48-1.48-4.55-3.57-6-6.07-1.5-2.57-2.29-5.5-2.29-8.48.01-9.33 7.6-16.93 16.93-16.93 1.1 0 2 .9 2 2s-.9 2-2 2c-7.11.01-12.91 5.81-12.93 12.93 0 4.52 2.43 8.78 6.33 11.11.95.56 1.26 1.79.7 2.74-.36.6-1.02.98-1.72.98z" fill="#ffc91d"/></g></g><g><g><path d="m231.861 88.25-31.495-9.535c-1.687-.511-2.841-2.066-2.841-3.828v-12.002c0-1.763 1.154-3.318 2.841-3.828l31.495-9.535c2.569-.778 5.159 1.145 5.159 3.828v31.072c0 2.684-2.59 4.606-5.159 3.828z" fill="#808285"/></g></g><g><g><path d="m231.861 49.521-4.841 1.466v23.435c0 2.684-2.59 4.606-5.159 3.828l-24.336-7.368v4.004c0 1.763 1.154 3.318 2.841 3.828l31.495 9.535c2.569.778 5.159-1.145 5.159-3.828v-31.071c0-2.684-2.59-4.606-5.159-3.829z" fill="#58595b"/></g></g><g><g><path d="m232.02 49.477v29.945c0 2.684-2.59 4.606-5.159 3.828l-29.336-8.881v.518c0 1.763 1.154 3.318 2.841 3.828l31.495 9.535c2.569.778 5.159-1.145 5.159-3.828v-31.072c0-2.629-2.484-4.526-5-3.873z" fill="#414042"/></g></g></g></svg>