<svg id="Capa_1" enable-background="new 0 0 511.999 511.999" height="512" viewBox="0 0 511.999 511.999" width="512" xmlns="http://www.w3.org/2000/svg"><g><path d="m352.46 430.335c0-7.63 7.934-16.176 10.644-18.511l-288.069-11.489c-7.142 7.968-11.495 18.483-11.495 30s4.354 22.032 11.495 30l288.137-11.431c-2.779-2.392-10.712-10.939-10.712-18.569z" fill="#e6ffff"/><path d="m363.104 411.824-152.083-6.247v49.545l152.151-6.217c-2.779-2.393-10.712-10.94-10.712-18.569 0-7.63 7.933-16.177 10.644-18.512z" fill="#cbf0ff"/><path d="m88.539 415.335h77.461l45.021 10.001 44.977-10.001h107.462c8.284 0 15-6.715 15-15v-337.848c0-8.284-6.716-15-15-15h-274.921c-24.813 0-45 20.187-45 45v337.848c0 24.813 20.187 45 45 45h274.921c8.284 0 15-6.715 15-15 0-8.284-6.716-15-15-15h-274.921c-8.271 0-15-6.729-15-15 0-8.27 6.729-15 15-15z" fill="#78b4ff"/><path d="m363.46 445.335h-152.439v30h152.439c8.284 0 15-6.715 15-15 0-8.284-6.716-15-15-15z" fill="#6299f7"/><path d="m363.46 47.487h-152.439v377.849l44.977-10.001h107.462c8.284 0 15-6.715 15-15v-337.848c0-8.284-6.716-15-15-15z" fill="#6299f7"/><path d="m166 415.292v81.707c0 4.822 2.318 9.35 6.23 12.169 3.912 2.82 8.94 3.587 13.515 2.061l25.255-8.419 25.255 8.419c1.549.516 3.15.77 4.743.77 3.109 0 6.185-.967 8.771-2.832 3.912-2.819 6.23-7.347 6.23-12.169v-81.707h-89.999z" fill="#ffeb93"/><path d="m211.021 415.292v87.525l25.233 8.412c1.549.516 3.15.77 4.743.77 3.109 0 6.185-.967 8.771-2.832 3.912-2.819 6.23-7.347 6.23-12.169v-81.707h-44.977z" fill="#ffc072"/><g fill="#e6ffff"><path d="m195.999 197.496h-77.46c-8.284 0-15-6.716-15-15s6.716-15 15-15h77.46c8.284 0 15 6.716 15 15s-6.716 15-15 15z"/><path d="m195.999 137.491h-77.46c-8.284 0-15-6.716-15-15s6.716-15 15-15h77.46c8.284 0 15 6.716 15 15s-6.716 15-15 15z"/><path d="m303.46 227.5h-184.921c-8.284 0-15 6.716-15 15v60.004c0 8.284 6.716 15 15 15h184.921c3.978 0 7.793-1.58 10.607-4.393 2.813-2.813 4.393-6.628 4.393-10.607v-60.004c0-8.284-6.716-15-15-15z"/></g><path d="m303.46 227.5h-92.439v90.004h92.439c3.978 0 7.793-1.58 10.607-4.393 2.813-2.813 4.393-6.628 4.393-10.607v-60.004c0-8.284-6.716-15-15-15z" fill="#cbf0ff"/><circle cx="378.46" cy="90" fill="#dc7571" r="90"/><path d="m408.46 74.999h-15v-14.999c0-8.284-6.716-15-15-15s-15 6.716-15 15v14.999h-15c-8.284 0-15 6.716-15 15s6.716 15 15 15h15v15.001c0 8.284 6.716 15 15 15s15-6.716 15-15v-15.001h15c8.284 0 15-6.716 15-15s-6.716-15-15-15z" fill="#cbf0ff"/></g></svg>