<svg id="Capa_1" enable-background="new 0 0 511.999 511.999" height="512" viewBox="0 0 511.999 511.999" width="512" xmlns="http://www.w3.org/2000/svg"><g><path d="m90.003 449.333v-92.024l-30-11.024-21.159 6.621c-.156.049-.311.1-.466.154-21.52 7.514-38.378 31.257-38.378 54.052v89.887c0 8.284 6.716 15 15 15h107.65l.006-30c-18.005-.007-32.653-14.661-32.653-32.666z" fill="#ffd2c7"/><path d="m320.202 353.06c-.155-.054-21.625-6.775-21.625-6.775l-30 11.024v92.024c0 18.005-14.648 32.659-32.653 32.666l.006 30h104.577l3.073-10.001c8.284 0 15-6.716 15-15v-79.887c0-22.794-16.857-46.537-38.378-54.051z" fill="#ffbeaa"/><path d="m247.135 339.712.078-65.619s-9.539.185-14.307-2.053c-4.767-2.238-10.361-1.811-14.735 1.124-11.515 7.73-24.935 11.822-38.782 11.836h-.291c-13.824-.038-27.2-4.134-38.683-11.846-4.374-2.938-9.968-3.365-14.736-1.127-4.769 2.238-14.31 2.054-14.31 2.054l.078 65.632c-.562 5.498 1.946 10.859 6.525 13.953l52.922 35.755c2.537 1.714 5.467 2.571 8.397 2.571s5.86-.857 8.397-2.571l52.922-35.755c4.579-3.095 7.086-8.456 6.525-13.954z" fill="#ffbeaa"/><path d="m247.135 339.712.078-65.619s-9.539.185-14.307-2.053c-4.767-2.238-10.361-1.811-14.735 1.124-11.515 7.73-24.935 11.822-38.782 11.836h-.169v106.989c.023 0 .047.002.071.002 2.93 0 5.86-.857 8.397-2.571l52.922-35.755c4.579-3.094 7.086-8.455 6.525-13.953z" fill="#ffaa8e"/><path d="m246.13 329.874-66.839 39.015-66.839-39.015-52.448 16.411v103.048c0 34.54 28.101 62.652 62.647 62.666h113.28.006c34.541-.014 62.641-28.126 62.641-62.666v-103.048z" fill="#ff9b8b"/><path d="m246.13 329.874-66.839 39.015-.071-.041v143.151h56.711.006c34.541-.014 62.641-28.126 62.641-62.666v-103.048z" fill="#dc7571"/><path d="m264.522 162.493c-38.264-.585-72.747-48.205-73.077-48.667-2.814-3.962-7.372-6.314-12.229-6.314-.03 0-.061 0-.092 0-4.891.03-9.459 2.443-12.243 6.465-31.752 45.887-71.682 48.46-73.367 48.547-7.973.412-14.226 6.997-14.226 14.98v37.497c0 54.989 44.737 99.847 99.757 99.998h.32.025c55.086-.052 99.901-44.911 99.901-99.998v-37.51c.001-8.194-6.575-14.872-14.769-14.998z" fill="#ffd2c7"/><path d="m264.522 162.493c-38.264-.585-72.747-48.205-73.077-48.667-2.814-3.961-7.37-6.312-12.225-6.313v207.487h.146.025c55.086-.052 99.901-44.911 99.901-99.998v-37.51c0-8.195-6.576-14.873-14.77-14.999z" fill="#ffbeaa"/><circle cx="101.938" cy="52.5" fill="#4f5480" r="52.5"/><path d="m179.535 47.508h-.332c-55.093.047-99.915 44.906-99.915 99.998v29.999c46.943 0 99.927-54.992 99.927-54.992s53.133 54.979 100.077 54.979v-29.985c0-54.989-44.737-99.848-99.757-99.999z" fill="#5e638b"/><path d="m179.535 47.508h-.316v75.008c.167.173 53.203 54.975 100.073 54.975v-29.985c0-54.988-44.737-99.847-99.757-99.998z" fill="#4f5480"/><circle cx="179.22" cy="436.999" fill="#e6ffff" r="15"/><path d="m179.22 421.999v30c8.284 0 15-6.716 15-15s-6.716-15-15-15z" fill="#cbf0ff"/><g><g><path d="m333.58 256.986h133.419c16.568 0 30 13.431 30 30s-13.432 30-30 30c-.006 0-.013 0-.02 0h-133.399z" fill="#fff"/></g></g><g><path d="m466.999 256.986h-133.419l-15 15v30l15 15h133.399.02c16.568 0 30-13.431 30-30s-13.432-30-30-30z" fill="#cbf0ff"/><path d="m466.999 331.986c-.039 0-.08 0-.12 0l-65.379 10-67.92-10.001c-8.284 0-15-6.716-15-15s0-15 0-15h148.399.095c8.236-.041 14.925-6.754 14.925-15 0-8.271-6.729-15-15-15h-148.42s0-6.716 0-15 6.716-15 15-15h133.419c24.813 0 45 20.187 45 45 .001 24.814-20.186 45.001-44.999 45.001z" fill="#ffc072"/></g><g><g><path d="m333.58 346.995h133.419c16.568 0 30 13.431 30 30s-13.432 30-30 30c-.006 0-.013-.001-.02-.001h-133.399z" fill="#fff"/></g></g><g><path d="m466.999 346.995h-133.419l-15 15v29.999l15 15h133.399c.007 0 .013.001.02.001 16.568 0 30-13.431 30-30s-13.432-30-30-30z" fill="#cbf0ff"/><path d="m466.999 421.995c-.039 0-.08 0-.12-.001l-65.379 10.001-67.92-10.001c-8.284 0-15-6.716-15-15s0-15 0-15h148.399.095c8.236-.041 14.925-6.754 14.925-15 0-8.271-6.729-15-15-15h-148.419s0-6.716 0-15 6.716-15 15-15h133.419c24.813 0 45 20.187 45 45s-20.187 45.001-45 45.001z" fill="#87d186"/></g><g><g><path d="m333.58 436.999h133.419c16.568 0 30 13.431 30 30s-13.432 30-30 30c-.006 0-.013 0-.02 0h-133.399z" fill="#fff"/></g></g><g><path d="m466.999 436.999h-133.419l-15 15v30l15 15h133.399.02c16.568 0 30-13.431 30-30s-13.432-30-30-30z" fill="#cbf0ff"/><path d="m466.999 511.999c-.039 0-.08 0-.12 0h-133.299c-8.284 0-15-6.716-15-15s0-15 0-15h148.399.095c8.236-.041 14.925-6.754 14.925-15 0-8.271-6.729-15-15-15h-148.42s0-6.716 0-15 6.716-15 15-15h133.419c24.813 0 45 20.187 45 45s-20.186 45-44.999 45z" fill="#6299f7"/></g></g></svg>