<svg id="Capa_1" enable-background="new 0 0 512 512" height="512" viewBox="0 0 512 512" width="512" xmlns="http://www.w3.org/2000/svg"><g><path d="m436.996 60.004h-54.774l-25.609-25.609c-2.814-2.813-6.628-4.393-10.606-4.393h-180.01c-3.979 0-7.794 1.58-10.607 4.394l-25.607 25.609h-54.779c-8.284 0-15 6.716-15 15v421.995c0 8.284 6.716 15 15 15h361.992c8.284 0 15-6.716 15-15v-421.996c0-8.284-6.716-15-15-15z" fill="#78b4ff"/><path d="m436.996 60.004h-54.774l-25.609-25.609c-2.814-2.813-6.628-4.393-10.606-4.393h-90.007v481.998h180.996c8.284 0 15-6.716 15-15v-421.996c0-8.284-6.716-15-15-15z" fill="#6299f7"/><path d="m286 0h-60c-8.284 0-15 6.716-15 15v89.998h90v-89.998c0-8.284-6.716-15-15-15z" fill="#e6ffff"/><path d="m286 0h-30v104.998h45v-89.998c0-8.284-6.716-15-15-15z" fill="#cbf0ff"/><path d="m316.003 119.998h-120.006c-8.284 0-15-6.716-15-15s6.716-15 15-15h120.006c8.284 0 15 6.716 15 15s-6.716 15-15 15z" fill="#5e638b"/><path d="m316.003 89.998h-60.003v30h60.003c8.284 0 15-6.716 15-15s-6.716-15-15-15z" fill="#4f5480"/><path d="m256 225.999c-49.626 0-90 40.374-90 90 0 8.284 6.716 15 15 15l75 20.001 75-20.001c8.284 0 15-6.716 15-15 0-49.626-40.374-90-90-90z" fill="#ff9b8b"/><path d="m256 225.999v125.001l75-20.001c8.284 0 15-6.716 15-15 0-49.626-40.374-90-90-90z" fill="#dc7571"/><circle cx="256" cy="210.002" fill="#ffd2c7" r="60"/><path d="m256 150.002v120c33.084 0 60-26.916 60-60s-26.916-60-60-60z" fill="#ffbeaa"/><path d="m296.001 316c-17.402 0-32.518 9.935-40.001 24.426-7.483-14.491-22.599-24.426-40.001-24.426h-49.999v104.164c0 8.284 6.716 15 15 15h150c8.284 0 15-6.716 15-15v-104.165z" fill="#e6ffff"/><path d="m346 316h-49.999c-17.402 0-32.518 9.935-40.001 24.426v94.738h75c8.284 0 15-6.716 15-15z" fill="#cbf0ff"/><path d="m346.5 435.165c0 8.25-6.75 15-15 15h-150.5c-8.25 0-15-6.75-15-15 0-8.25 0-15 0-15h180.5z" fill="#ffeb93"/><path d="m256 420.165v30h75.5c8.25 0 15-6.75 15-15s0-15 0-15z" fill="#ffc072"/></g></svg>