<svg id="Capa_1" enable-background="new 0 0 512 512" height="512" viewBox="0 0 512 512" width="512" xmlns="http://www.w3.org/2000/svg"><g><path d="m382.461 399.922c0-7.63 7.934-16.177 10.645-18.511l-224.561-16.488c-24.813 0-45 10.186-45 34.999s20.187 34.999 45 34.999l224.561-16.488c-2.113-1.773-10.645-10.639-10.645-18.511z" fill="#e6ffff"/><path d="m382.461 399.922c0-7.63 7.934-16.177 10.645-18.511l-137.103-10.067v57.156l137.103-10.066c-2.113-1.774-10.645-10.64-10.645-18.512z" fill="#cbf0ff"/><path d="m383.461 67.078h-234.919c-24.813 0-45 20.187-45 45l10.001 174.925v112.919c0 24.813 20.186 45 45 45h224.918c8.284 0 15-6.716 15-15s-6.716-15-15-15h-224.918c-8.271 0-15-6.729-15-15s6.729-15 15-15h234.919c8.284 0 15-6.716 15-15l-10.001-144.925v-142.919c0-8.284-6.716-15-15-15z" fill="#5e638b"/><path d="m383.461 67.078h-127.459v317.844h137.46c8.284 0 15-6.716 15-15l-10.001-144.925v-142.919c0-8.284-6.716-15-15-15z" fill="#4f5480"/><path d="m383.461 414.922h-127.459v30h127.459c8.284 0 15-6.716 15-15s-6.716-15-15-15z" fill="#4f5480"/><path d="m296.609 223.144-30-30.002c-2.814-2.813-6.629-4.394-10.607-4.394-3.979 0-7.794 1.58-10.607 4.394l-30 30.002c-5.857 5.858-5.856 15.355.001 21.213 5.859 5.858 15.354 5.857 21.214-.001l4.393-4.393v38.288c0 8.284 6.716 15 15 15s15-6.716 15-15v-38.288l4.393 4.393c2.93 2.929 6.768 4.394 10.607 4.394s7.678-1.465 10.606-4.393c5.857-5.858 5.858-15.355 0-21.213z" fill="#ff9b8b"/><path d="m296.609 223.144-30-30.002c-2.814-2.813-6.629-4.394-10.607-4.394v104.502c8.284 0 15-6.716 15-15v-38.288l4.393 4.393c2.93 2.929 6.768 4.394 10.607 4.394s7.678-1.465 10.606-4.393c5.858-5.857 5.859-15.354.001-21.212z" fill="#dc7571"/><path d="m54.134 227.604 59.4 59.399-.001-138.075 38.711 38.71c11.717 11.716 30.71 11.715 42.427-.001 11.715-11.716 11.715-30.711-.001-42.426l-26.132-46.133-8.495-84.155c-.828-8.207-8.256-14.923-16.506-14.923h-85.011c-8.25 0-15 6.75-15 15v186.998c0 8.25 4.774 19.773 10.608 25.606z" fill="#ffd2c7"/><path d="m457.866 284.396-59.4-59.399.001 138.075-38.711-38.71c-11.717-11.716-30.71-11.715-42.427 0-11.715 11.716-11.715 30.711.001 42.426l26.132 46.133 8.495 84.155c.828 8.208 8.256 14.924 16.506 14.924h85.011c8.25 0 15-6.75 15-15v-186.998c0-8.25-4.774-19.773-10.608-25.606z" fill="#ffbeaa"/></g></svg>