<svg id="Capa_1" enable-background="new 0 0 511.999 511.999" height="512" viewBox="0 0 511.999 511.999" width="512" xmlns="http://www.w3.org/2000/svg"><g><path d="m400.323 144.325c0-79.581-64.745-144.325-144.326-144.325s-144.325 64.744-144.325 144.325v184.644c0 3.978 1.58 7.793 4.393 10.607 2.813 2.813 6.628 4.393 10.607 4.393h258.653c3.978 0 7.794-1.58 10.606-4.393 2.814-2.813 4.394-6.628 4.394-10.607z" fill="#5e638b"/><path d="m400.323 144.325c0-79.577-64.738-144.318-144.314-144.325v343.969h129.316c3.978 0 7.794-1.58 10.606-4.393 2.814-2.813 4.394-6.628 4.394-10.607z" fill="#4f5480"/><path d="m211.96 297.975c-3.823-2.81-8.75-3.644-13.285-2.253-.072.022-.145.044-.215.067l-82.907 25.941c-.156.049-.312.1-.466.155-21.521 7.516-38.379 31.258-38.379 54.052v90.061c0 8.284 6.716 15 15 15h111.369c8.284 0 15-6.716 15-15v-155.936c0-4.773-2.271-9.261-6.117-12.087z" fill="#ffeb93"/><path d="m396.911 321.886c-.154-.054-.311-.105-.466-.155l-83.045-25.985c-4.555-1.424-9.517-.598-13.362 2.229-3.846 2.826-6.117 7.314-6.117 12.087v155.936c0 8.284 6.716 15 15 15h111.367c8.284 0 15-6.716 15-15v-90.061c0-22.793-16.857-46.536-38.377-54.051z" fill="#ffc072"/><path d="m193.517 297.336-.018 168.662c0 8.284 6.716 15 15 15h95c8.283 0 15-6.716 15-15v-168.689z" fill="#ff9b8b"/><path d="m256.009 297.323v183.675h47.49c8.283 0 15-6.716 15-15v-168.689z" fill="#dc7571"/><path d="m318.499 236.865s-12.616 1.16-17.223-.532-9.765-.811-13.547 2.313c-8.923 7.368-20.197 11.434-31.73 11.454-11.533-.021-22.808-4.087-31.73-11.454-3.783-3.124-8.94-4.005-13.548-2.313-4.607 1.692-17.205.532-17.205.532v60.471s24.561 32.649 62.482 32.649 62.5-32.676 62.5-32.676v-60.444z" fill="#ffbeaa"/><path d="m318.499 236.865s-12.616 1.16-17.223-.532-9.765-.811-13.547 2.313c-8.92 7.366-20.191 11.431-31.721 11.454v79.884c37.916-.007 62.49-32.676 62.49-32.676v-60.443z" fill="#ffaa8e"/><path d="m326.499 130.883c-.619-.05-62.12-5.353-82.807-39.172-3.093-5.058-8.88-7.82-14.756-7.044-5.879.775-10.749 4.94-12.427 10.627-8.162 27.665-32.281 35.567-34.054 36.113-6.572 1.743-10.903 7.626-10.903 14.431v45.831c0 46.522 37.849 84.403 84.372 84.443h.025c46.523-.04 84.372-37.92 84.372-84.443v-45.831c.002-7.82-6.027-14.33-13.822-14.955z" fill="#ffd2c7"/><path d="m326.499 130.883c-.522-.042-44.367-3.823-70.49-25.305v170.531c46.496-.072 84.313-37.939 84.313-84.441v-45.831c.001-7.819-6.028-14.329-13.823-14.954z" fill="#ffbeaa"/><path d="m476.995 427c-42.126 0-68.45-7.069-93.908-13.905-21.254-5.707-41.329-11.098-67.089-11.098-24.508 0-46.306 11.818-59.999 30.051-13.695-18.234-35.492-30.051-60-30.051-25.761 0-45.836 5.391-67.09 11.098-25.458 6.836-51.783 13.905-93.908 13.905-8.285 0-15 6.716-15 15v54.999h471.994v-54.999c0-8.284-6.715-15-15-15z" fill="#e6ffff"/><path d="m476.995 427c-42.126 0-68.45-7.069-93.908-13.905-21.254-5.707-41.329-11.098-67.089-11.098-24.502 0-46.296 11.812-59.989 30.039v64.963h235.986v-54.999c0-8.284-6.715-15-15-15z" fill="#cbf0ff"/><path d="m496.998 511.999h-481.998c-8.284 0-15-6.716-15-15s6.716-15 15-15h481.998c8.284 0 15 6.716 15 15s-6.715 15-15 15z" fill="#78b4ff"/><path d="m496.998 481.999h-240.989v30h240.989c8.284 0 15-6.716 15-15s-6.715-15-15-15z" fill="#6299f7"/></g></svg>