<svg id="Capa_1" enable-background="new 0 0 511.999 511.999" height="512" viewBox="0 0 511.999 511.999" width="512" xmlns="http://www.w3.org/2000/svg"><g><path d="m396.912 312.885c-.138-.048-.277-.095-.416-.139l-71.568-20.737-137.857-.087-71.568 20.825c-.139.044-.278.09-.416.139-21.52 7.516-38.378 31.258-38.378 54.052v69.059c0 8.284 6.716 15 15 15h328.58c8.284 0 15-6.716 15-15v-69.059c0-22.795-16.857-46.538-38.377-54.053z" fill="#78b4ff"/><path d="m396.912 312.885c-.138-.048-.277-.095-.416-.139l-71.568-20.825h-137.857l-71.568 20.825c-.139.044-.278.09-.416.139-21.52 7.516-38.378 31.258-38.378 54.052v69.059c0 8.284 6.716 15 15 15h328.58c8.284 0 15-6.716 15-15v-69.059c0-22.794-16.857-46.537-38.377-54.052z" fill="#78b4ff"/><path d="m396.912 312.885c-.138-.048-.277-.095-.416-.139l-71.568-20.825h-68.918v159.074h164.279c8.284 0 15-6.716 15-15v-69.059c0-22.793-16.857-46.536-38.377-54.051z" fill="#6299f7"/><path d="m324.928 248.219s-14.831-8.557-19.258-10.425-9.481-1.502-13.593.984c-10.85 6.561-23.3 10.035-35.991 10.047h-.279c-12.655-.035-25.062-3.512-35.878-10.056-4.111-2.487-9.167-2.854-13.595-.986s-19.262 10.425-19.262 10.425v43.714s24.595 51.616 68.949 51.616c44.314 0 68.908-51.528 68.908-51.528v-43.791z" fill="#ffbeaa"/><path d="m324.928 248.219s-14.831-8.557-19.258-10.425-9.481-1.502-13.593.984c-10.85 6.561-23.3 10.035-35.991 10.047h-.076v94.712h.01c44.314 0 68.908-51.528 68.908-51.528z" fill="#ffaa8e"/><path d="m341.002 96.331-170.004 5c-8.284 0-15 6.716-15 15v62.496c0 54.989 44.737 99.848 99.768 99.998h.32.014c55.086-.052 99.902-44.911 99.902-99.998v-67.496c0-8.284-6.716-15-15-15z" fill="#ffd2c7"/><path d="m341.002 96.331-84.992 2.5v179.994h.076.014c55.086-.052 99.902-44.911 99.902-99.998v-67.496c0-8.284-6.716-15-15-15z" fill="#ffbeaa"/><path d="m385.001 0h-169.003c-33.084 0-60 26.916-60 60v56.331h185.004c18.938 0 34.574-7.559 45.217-21.861 9.016-12.116 13.782-28.416 13.782-47.139v-32.331c0-8.284-6.716-15-15-15z" fill="#5e638b"/><path d="m385.001 0h-128.992v116.331h84.992c18.938 0 34.574-7.559 45.217-21.861 9.016-12.116 13.782-28.416 13.782-47.139v-32.331c.001-8.284-6.715-15-14.999-15z" fill="#4f5480"/><path d="m476.996 427c-42.126 0-68.45-7.069-93.908-13.905-21.254-5.707-41.329-11.098-67.089-11.098-24.508 0-46.306 11.818-59.999 30.051-13.695-18.233-35.492-30.051-60-30.051-25.761 0-45.836 5.391-67.09 11.098-25.458 6.836-51.783 13.905-93.908 13.905-8.284 0-15 6.716-15 15v54.999h471.994v-54.999c0-8.284-6.716-15-15-15z" fill="#e6ffff"/><path d="m476.996 427c-42.126 0-68.45-7.069-93.908-13.905-21.254-5.707-41.329-11.098-67.089-11.098-24.502 0-46.296 11.812-59.989 30.039v64.963h235.986v-54.999c0-8.284-6.716-15-15-15z" fill="#cbf0ff"/><path d="m496.999 511.999h-481.998c-8.284 0-15-6.716-15-15s6.716-15 15-15h481.998c8.284 0 15 6.716 15 15s-6.716 15-15 15z" fill="#ffeb93"/><path d="m496.999 481.999h-240.99v30h240.989c8.284 0 15-6.716 15-15 .001-8.284-6.715-15-14.999-15z" fill="#ffc072"/></g></svg>