<svg id="Capa_1" enable-background="new 0 0 511.998 511.998" height="512" viewBox="0 0 511.998 511.998" width="512" xmlns="http://www.w3.org/2000/svg"><g><path d="m396.996 180.837h-281.994c-8.284 0-15 6.716-15 15v236.161c0 8.284 6.716 15 15 15h281.994c8.284 0 15-6.716 15-15v-236.161c0-8.284-6.716-15-15-15z" fill="#cbf0ff"/><path d="m396.996 180.837h-140.996v266.161h140.996c8.284 0 15-6.716 15-15v-236.161c0-8.284-6.716-15-15-15z" fill="#b1e1ff"/><path d="m396.996 356.995h-110.997c-8.284 0-15 6.716-15 15v60.003c0 8.284 6.716 15 15 15h110.997c8.284 0 15-6.716 15-15v-60.003c0-8.284-6.716-15-15-15z" fill="#4d7eee"/><path d="m225.999 356.995h-110.997c-8.284 0-15 6.716-15 15v60.003c0 8.284 6.716 15 15 15h110.997c8.284 0 15-6.716 15-15v-60.003c0-8.284-6.716-15-15-15z" fill="#6299f7"/><path d="m255.999 311.995c-24.813 0-45 20.187-45 45v60.003c0 8.284 6.716 15 15 15h60c8.284 0 15-6.716 15-15v-60.003c0-24.813-20.187-45-45-45z" fill="#b1e1ff"/><path d="m256 311.995v120.003h29.999c8.284 0 15-6.716 15-15v-60.003c0-24.813-20.186-45-44.999-45z" fill="#96d2ff"/><path d="m316.992 180.836h-121.986c-8.284 0-15 6.716-15 15v60c0 8.284 6.716 15 15 15h121.986c8.284 0 15-6.716 15-15v-60c0-8.284-6.716-15-15-15z" fill="#e6ffff"/><path d="m316.992 180.836h-60.992v90h60.992c8.284 0 15-6.716 15-15v-60c0-8.284-6.716-15-15-15z" fill="#cbf0ff"/><path d="m456.996 180.837h-60c-8.284 0-15 6.716-15 15v236.161c0 8.284 6.716 15 15 15h60c8.284 0 15-6.716 15-15v-236.161c0-8.284-6.716-15-15-15z" fill="#cbf0ff"/><path d="m115.002 180.837h-60c-8.284 0-15 6.716-15 15v236.161c0 8.284 6.716 15 15 15h60c8.284 0 15-6.716 15-15v-236.161c0-8.284-6.716-15-15-15z" fill="#e6ffff"/><path d="m496.998 416.998h-481.998c-8.284 0-15 6.716-15 15v45c0 8.284 6.716 15 15 15h481.998c8.284 0 15-6.716 15-15v-45c0-8.284-6.716-15-15-15z" fill="#5e638b"/><path d="m496.998 416.998h-240.998v75h240.998c8.284 0 15-6.716 15-15v-45c0-8.284-6.716-15-15-15z" fill="#4f5480"/><path d="m501.619 121.564-165.999-53.751c-1.492-.483-3.052-.729-4.621-.729h-150c-1.569 0-3.128.246-4.621.729l-165.997 53.751c-6.188 2.003-10.379 7.767-10.379 14.27v60.003c0 8.284 6.716 15 15 15h481.996c8.284 0 15-6.716 15-15v-60.003c0-6.503-4.191-12.267-10.379-14.27z" fill="#5e638b"/><path d="m501.619 121.564-165.999-53.751c-1.492-.483-3.052-.729-4.621-.729h-74.999v143.754h240.998c8.284 0 15-6.716 15-15v-60.003c0-6.504-4.191-12.268-10.379-14.271z" fill="#4f5480"/><path d="m330.999 20h-34.999c-17.402 0-32.517 9.936-40.001 24.425-7.483-14.489-22.599-24.425-40-24.425h-35c-8.284 0-15 6.716-15 15v85.833c0 8.284 6.716 15 15 15h150c8.284 0 15-6.716 15-15v-85.833c0-8.284-6.716-15-15-15z" fill="#e6ffff"/><path d="m330.999 20h-34.999c-17.401 0-32.516 9.934-40 24.423v91.41h74.999c8.284 0 15-6.716 15-15v-85.833c0-8.284-6.716-15-15-15z" fill="#cbf0ff"/></g><path d="m346.499 135.834c0 8.25-6.75 15-15 15h-150.5c-8.25 0-15-6.75-15-15 0-8.25 0-15 0-15h180.5z" fill="#6299f7"/><path d="m255.999 120.834v30h75.5c8.25 0 15-6.75 15-15s0-15 0-15z" fill="#4d7eee"/></svg>