<svg id="Capa_1" enable-background="new 0 0 512 512" height="512" viewBox="0 0 512 512" width="512" xmlns="http://www.w3.org/2000/svg"><path d="m230.895 363.789c-21.622-20.012-49.751-32.282-80.395-35.303v-235.741c0-8.284-6.716-15-15-15h-120.5c-8.284 0-15 6.716-15 15v320.012c0 8.284 6.716 15 15 15h196c16.542 0 30-1.543 30 14.999h30v-1c0-36.015-14.243-54.031-40.105-77.967z" fill="#e6ffff"/><path d="m497 77.745h-181c-33.084 0-60 26.916-60 60l-10.001 126.005 10.001 169.384v9.622l45-14.999h196c8.284 0 15-6.716 15-15v-320.012c0-8.284-6.716-15-15-15z" fill="#b1e1ff"/><path d="m301 412.757c-17.908 0-33.997 7.896-45 20.378-11.003-12.482-27.093-20.378-45-20.378h-211v61.003c0 8.284 6.716 15 15 15h482c8.284 0 15-6.716 15-15v-61.003z" fill="#b1e1ff"/><path d="m301 412.757c-17.908 0-33.997 7.896-45 20.378v55.625h241c8.284 0 15-6.716 15-15v-61.003z" fill="#96d2ff"/><g fill="#5e638b"><path d="m135.5 177.745h-60c-8.284 0-15-6.716-15-15s6.716-15 15-15h60c8.284 0 15 6.716 15 15s-6.716 15-15 15z"/><path d="m135.5 237.748h-60c-8.284 0-15-6.716-15-15s6.716-15 15-15h60c8.284 0 15 6.716 15 15s-6.716 15-15 15z"/><path d="m135.5 297.75h-60c-8.284 0-15-6.716-15-15s6.716-15 15-15h60c8.284 0 15 6.716 15 15 0 8.285-6.716 15-15 15z"/><path d="m135.5 357.753h-60c-8.284 0-15-6.716-15-15s6.716-15 15-15h60c8.284 0 15 6.716 15 15 0 8.285-6.716 15-15 15z"/></g><path d="m436.499 177.745h-100.998c-8.284 0-15-6.716-15-15s6.716-15 15-15h100.998c8.284 0 15 6.716 15 15s-6.716 15-15 15z" fill="#4f5480"/><path d="m436.499 237.748h-100.998c-8.284 0-15-6.716-15-15s6.716-15 15-15h100.998c8.284 0 15 6.716 15 15s-6.716 15-15 15z" fill="#4f5480"/><path d="m436.499 297.75h-100.998c-8.284 0-15-6.716-15-15s6.716-15 15-15h100.998c8.284 0 15 6.716 15 15 0 8.285-6.716 15-15 15z" fill="#4f5480"/><path d="m436.499 357.753h-100.998c-8.284 0-15-6.716-15-15s6.716-15 15-15h100.998c8.284 0 15 6.716 15 15 0 8.285-6.716 15-15 15z" fill="#4f5480"/><path d="m219.893 44.778c-22.607-23.238-53.109-36.036-85.888-36.036-7.458 0-13.505 6.716-13.505 15v319.011c0 8.284 6.046 15 13.505 15 54.15 0 121.995 50.164 121.995 75.382v-295.39c0-36.015-12.823-69.031-36.107-92.967z" fill="#cbf0ff"/><path d="m512 488.258c0 8.25-6.75 15-15 15h-482c-8.25 0-15-6.75-15-15 0-8.25 0-15 0-15h512z" fill="#ff9b8b"/><path d="m256 473.258v30h241c8.25 0 15-6.75 15-15s0-15 0-15z" fill="#dc7571"/></svg>