<svg id="Capa_1" enable-background="new 0 0 511.999 511.999" height="512" viewBox="0 0 511.999 511.999" width="512" xmlns="http://www.w3.org/2000/svg"><g><path d="m318.921 396.259c0-7.629 7.934-16.177 10.645-18.511l-284.566-16.488c-24.813 0-34.999 10.186-34.999 34.999s10.186 35 34.999 35l284.633-16.431c-2.779-2.392-10.712-10.939-10.712-18.569z" fill="#e6ffff"/><path d="m329.565 377.748-162.084-9.392v55.832l162.151-9.36c-2.778-2.392-10.712-10.939-10.712-18.569.001-7.629 7.934-16.177 10.645-18.511z" fill="#cbf0ff"/><path d="m45 381.259h17.455l43.877 10.001 46.121-10.001h167.468c8.284 0 15-6.716 15-15v-337.847c0-8.284-6.716-15-15-15h-274.921c-24.813 0-45 20.187-45 45v337.848c0 24.813 20.187 45 45 45h274.921c8.284 0 15-6.716 15-15s-6.716-15-15-15h-274.921c-8.271 0-15-6.729-15-15 0-8.272 6.729-15.001 15-15.001z" fill="#78b4ff"/><path d="m319.921 411.259h-152.44v30h152.439c8.284 0 15-6.716 15-15 .001-8.284-6.715-15-14.999-15z" fill="#6299f7"/><path d="m319.921 13.412h-152.44v367.848h152.439c8.284 0 15-6.716 15-15v-337.848c.001-8.285-6.715-15-14.999-15z" fill="#6299f7"/><path d="m229.917 73.415h-124.915c-8.284 0-15 6.716-15 15v60.004c0 8.284 6.716 15 15 15h124.915c8.284 0 15-6.716 15-15v-60.004c0-8.284-6.716-15-15-15z" fill="#e6ffff"/><path d="m152.453 223.424h-47.451c-8.284 0-15-6.716-15-15s6.716-15 15-15h47.451c8.284 0 15 6.716 15 15s-6.716 15-15 15z" fill="#e6ffff"/><path d="m62.455 381.259v81.664c0 4.822 2.318 9.35 6.229 12.169s8.942 3.586 13.515 2.061l25.255-8.419 25.255 8.419c1.55.517 3.15.77 4.743.77 3.109 0 6.185-.967 8.771-2.831 3.911-2.819 6.229-7.347 6.229-12.169v-81.664z" fill="#ff9b8b"/><path d="m143.925 283.428h-38.923c-8.284 0-15-6.716-15-15s6.716-15 15-15h38.923c8.284 0 15 6.716 15 15s-6.716 15-15 15z" fill="#e6ffff"/><path d="m229.917 73.415h-62.436v90.004h62.436c8.284 0 15-6.716 15-15v-60.004c0-8.284-6.716-15-15-15z" fill="#cbf0ff"/><path d="m507.605 430.554-73.981-73.981c-3.276-3.278-7.887-4.855-12.483-4.276-4.599.581-8.671 3.255-11.031 7.243-9.037 15.271-21.886 28.12-37.156 37.156-3.988 2.36-6.664 6.433-7.243 11.031-.58 4.598.998 9.207 4.275 12.484l73.982 73.981c2.813 2.814 6.628 4.394 10.607 4.394 3.978 0 7.793-1.581 10.605-4.394l42.426-42.426c5.858-5.857 5.857-15.354-.001-21.212z" fill="#4f5480"/><path d="m421.141 352.297c-4.599.581-8.671 3.255-11.031 7.243-4.519 7.636-9.989 14.665-16.24 20.916l92.523 92.524 21.213-21.213c5.858-5.858 5.857-15.355 0-21.213l-73.981-73.981c-3.277-3.278-7.888-4.855-12.484-4.276z" fill="#404576"/><ellipse cx="319.672" cy="306.259" fill="#5e638b" rx="135" ry="135" transform="matrix(.707 -.707 .707 .707 -122.928 315.744)"/><path d="m319.672 171.259c-37.22 0-70.969 15.14-95.415 39.585l190.83 190.83c24.445-24.446 39.585-58.195 39.585-95.415 0-74.44-60.561-135-135-135z" fill="#4f5480"/><path d="m319.672 231.259c-41.355 0-75 33.644-75 75.001 0 41.354 33.645 74.999 75 74.999s74.999-33.645 75-75c0-41.355-33.645-75-75-75z" fill="#e6ffff"/><path d="m319.672 231.259c-20.678.001-39.428 8.411-53.008 21.992l106.016 106.017c13.581-13.582 21.991-32.331 21.992-53.008 0-41.356-33.645-75.001-75-75.001z" fill="#cbf0ff"/></g></svg>