<svg id="Capa_1" enable-background="new 0 0 512 512" height="512" viewBox="0 0 512 512" width="512" xmlns="http://www.w3.org/2000/svg"><g><path d="m227 104.165h-167c-8.284 0-15 6.716-15 15v90c0 8.284 6.716 15 15 15h167c8.284 0 15-6.716 15-15v-90c0-8.284-6.716-15-15-15z" fill="#ff9b8b"/><path d="m139.992 164.162c-8.284 0-15-6.716-15-15v-59.998c0-8.284 6.716-15 15-15s15 6.716 15 15v59.999c0 8.284-6.716 14.999-15 14.999z" fill="#e6ffff"/><path d="m380.002 224.165h-52.992c-4.721 0-9.167 2.223-12 5.999l-18.003 24.003-18.003-24.003c-2.833-3.777-7.279-5.999-12-5.999h-25.004v-15h-197v287.834l290.002 15c33.085 0 60-26.916 60-60v-212.834c0-8.284-6.716-15-15-15z" fill="#e6ffff"/><path d="m380.002 224.165h-52.992c-4.721 0-9.167 2.223-12 5.999l-18.003 24.003-18.003-24.003c-2.833-3.777-7.279-5.999-12-5.999h-25.004v-15h-11.998l-10.001 30v266.886l115.001 5.948c33.085 0 60-26.916 60-60v-212.834c0-8.284-6.716-15-15-15z" fill="#cbf0ff"/><path d="m277.501 451.999v-30.001c0-8.284-6.717-15-15-15h-247.501c-8.284 0-15 6.716-15 15v30.001c0 33.084 26.916 60 60 60h275.002c.282 0 .558-.027.836-.042-32.316-.886-58.337-27.431-58.337-59.958z" fill="#cbf0ff"/><path d="m277.501 451.999v-30.001c0-8.284-6.717-15-15-15h-42.5v105.001h115.001c.282 0 .558-.027.836-.042-32.316-.886-58.337-27.431-58.337-59.958z" fill="#b1e1ff"/><path d="m230.002 314.17h-20.002c-8.284 0-15-6.716-15-15s6.716-15 15-15h20.002c8.284 0 15 6.716 15 15s-6.716 15-15 15z" fill="#78b4ff"/><path d="m230.002 284.17h-10.001v30h10.001c8.284 0 15-6.716 15-15s-6.716-15-15-15z" fill="#6299f7"/><path d="m230.002 374.173h-20.002c-8.284 0-15-6.716-15-15s6.716-15 15-15h20.002c8.284 0 15 6.716 15 15s-6.716 15-15 15z" fill="#78b4ff"/><path d="m230.002 344.173h-10.001v30h10.001c8.284 0 15-6.716 15-15 0-8.285-6.716-15-15-15z" fill="#6299f7"/><path d="m149.994 374.173h-20.002c-8.284 0-15-6.716-15-15s6.716-15 15-15h20.002c8.284 0 15 6.716 15 15s-6.716 15-15 15z" fill="#78b4ff"/><path d="m310.01 374.173h-20.002c-8.284 0-15-6.716-15-15s6.716-15 15-15h20.002c8.284 0 15 6.716 15 15s-6.716 15-15 15z" fill="#6299f7"/><path d="m149.994 314.17h-20.002c-8.284 0-15-6.716-15-15s6.716-15 15-15h20.002c8.284 0 15 6.716 15 15s-6.716 15-15 15z" fill="#78b4ff"/><path d="m497 .001h-261.999c-8.284 0-15 6.716-15 15v224.165c0 8.284 6.716 15 15 15h24.503l25.503 34.001c2.833 3.777 7.279 6 12 6s9.167-2.223 12-6l25.503-34.001h162.49c8.284 0 15-6.716 15-15v-224.165c0-8.284-6.716-15-15-15z" fill="#ffc072"/><path d="m441.001 60.001h-34.999c-17.403 0-32.519 9.935-40.001 24.426-7.483-14.491-22.599-24.426-40.001-24.426h-34.999c-8.284 0-15 6.716-15 15v89.164c0 8.284 6.716 15 15 15h150c8.283 0 15-6.716 15-15v-89.164c0-8.284-6.717-15-15-15z" fill="#cbf0ff"/><path d="m441.001 60.001h-34.999c-17.403 0-32.519 9.935-40.001 24.426v94.738h75c8.283 0 15-6.716 15-15v-89.164c0-8.284-6.717-15-15-15z" fill="#b1e1ff"/><path d="m456.251 179.165c0 8.25-6.75 15-15 15h-150.5c-8.25 0-15-6.75-15-15 0-8.25 0-15 0-15h180.5z" fill="#5e638b"/><path d="m365.751 164.165v30h75.5c8.25 0 15-6.75 15-15s0-15 0-15z" fill="#4f5480"/></g></svg>