<svg id="Capa_1" enable-background="new 0 0 512.006 512.006" height="512" viewBox="0 0 512.006 512.006" width="512" xmlns="http://www.w3.org/2000/svg"><g><path d="m75.003 46.001h362v401.001h-362z" fill="#ffc57d"/><path d="m256.003 46.001h181v401.001h-181z" fill="#ff9e66"/><path d="m241.003 122.005h-25.333c-8.284 0-15 6.716-15 15v104.998c0 8.284 6.716 15 15 15h25.333c8.284 0 15-6.716 15-15l10-52.499-10-52.499c0-8.284-6.716-15-15-15z" fill="#ff9b8b"/><path d="m130.003 122.005h-25.333c-8.284 0-15 6.716-15 15l-9.668 52.499 9.668 52.499c0 8.284 6.716 15 15 15h25.333c8.284 0 15-6.716 15-15v-104.998c0-8.284-6.716-15-15-15z" fill="#78b4ff"/><path d="m296.337 122.005h-25.333c-8.284 0-15 6.716-15 15v104.998c0 8.284 6.716 15 15 15h25.333c8.284 0 15-6.716 15-15l10-52.499-10-52.499c0-8.284-6.716-15-15-15z" fill="#cbf0ff"/><path d="m351.67 122.005h-25.333c-8.284 0-15 6.716-15 15v104.998c0 8.284 6.716 15 15 15h25.333c8.284 0 15-6.716 15-15l10-52.499-10-52.499c0-8.284-6.716-15-15-15z" fill="#4f5480"/><path d="m407.003 122.005h-25.334c-8.284 0-15 6.716-15 15v104.998c0 8.284 6.716 15 15 15h25.334c8.284 0 15-6.716 15-15l10-52.499-10-52.499c0-8.284-6.716-15-15-15z" fill="#cbf0ff"/><path d="m271.003 312.005h25.333c8.284 0 15 6.716 15 15v104.998c0 8.284-6.716 15-15 15h-25.333c-8.284 0-15-6.716-15-15l-10.001-52.499 10.001-52.499c0-8.284 6.716-15 15-15z" fill="#cbf0ff"/><path d="m382.003 312.005h25.333c8.284 0 15 6.716 15 15l9.667 52.499-9.667 52.499c0 8.284-6.716 15-15 15h-25.333c-8.284 0-15-6.716-15-15v-104.998c0-8.284 6.716-15 15-15z" fill="#4f5480"/><path d="m215.67 312.005h25.333c8.284 0 15 6.716 15 15v104.998c0 8.284-6.716 15-15 15h-25.333c-8.284 0-15-6.716-15-15l-10-52.499 10-52.499c0-8.284 6.715-15 15-15z" fill="#ff9b8b"/><path d="m160.337 312.005h25.334c8.284 0 15 6.716 15 15v104.998c0 8.284-6.716 15-15 15h-25.334c-8.284 0-15-6.716-15-15l-10-52.499 10-52.499c0-8.284 6.715-15 15-15z" fill="#e6ffff"/><path d="m105.003 312.005h25.334c8.284 0 15 6.716 15 15v104.998c0 8.284-6.716 15-15 15h-25.334c-8.284 0-15-6.716-15-15l-10.001-52.499 10.001-52.499c0-8.284 6.716-15 15-15z" fill="#ff9b8b"/><path d="m467.611 446.398-15.608-14.395v-386.002c0-8.284-6.716-15-15-15h-362c-8.284 0-15 6.716-15 15v386.002l-15.695 14.816c-2.76 2.806-4.306 6.583-4.306 10.519v39.668c0 8.284 6.716 15 15 15h402.002c8.284 0 15-6.716 15-15v-40.002c0-3.978-1.58-7.793-4.393-10.606zm-45.608-385.397v181.001h-332v-181.001zm-332 371.001v-160h332v160z" fill="#ffeb93"/><path d="m467.611 446.398-15.608-14.395v-386.002c0-8.284-6.716-15-15-15h-181v30h166v181.001h-166v30h166v160h-166v80.004h201.001c8.284 0 15-6.716 15-15v-40.002c0-3.978-1.58-7.793-4.393-10.606z" fill="#ffc57d"/><path d="m331.005 0h-150.004c-8.284 0-15 6.716-15 15v62.002c0 8.284 6.716 15 15 15h150.004c8.284 0 15-6.716 15-15v-62.002c0-8.284-6.716-15-15-15z" fill="#e6ffff"/><path d="m331.005 0h-75.002v92.002h75.002c8.284 0 15-6.716 15-15v-62.002c0-8.284-6.716-15-15-15z" fill="#cbf0ff"/></g></svg>