<svg id="Capa_1" enable-background="new 0 0 512 512" height="512" viewBox="0 0 512 512" width="512" xmlns="http://www.w3.org/2000/svg"><g><path d="m403.181 0h-39.999c-8.284 0-15 6.716-15 15v135.001h69.999l10.001-72.993-10.001-62.008c0-8.284-6.715-15-15-15z" fill="#cbf0ff"/><path d="m473.18 0h-39.999c-8.284 0-15 6.716-15 15v135.001h69.999v-135.001c0-8.284-6.715-15-15-15z" fill="#78b4ff"/><path d="m496.999 165.001h-158.817c-8.284 0-15-6.716-15-15s6.716-15 15-15h158.817c8.284 0 15 6.716 15 15s-6.716 15-15 15z" fill="#ffc57d"/><path d="m403.181 194.993h-39.999c-8.284 0-15 6.716-15 15v24.262l-10 61.246 10 49.493h69.999l10.001-72.994-10.001-62.007c0-8.285-6.715-15-15-15z" fill="#cbf0ff"/><path d="m473.18 194.993h-39.999c-8.284 0-15 6.716-15 15v135h69.999v-135c0-8.285-6.715-15-15-15z" fill="#78b4ff"/><path d="m496.999 354.992h-148.817c-8.284 0-15-6.716-15-15s6.716-15 15-15h148.817c8.284 0 15 6.716 15 15s-6.716 15-15 15z" fill="#ffc57d"/><path d="m333.182 309.992h-45c-8.284 0-15 6.716-15 15v30 5.007c0 4.4-3.6 8-8 8.001l-172.832.009c-1.407 0-15 .588-15 .588l-43.013 15.545c-.263.076-.525.159-.784.25-19.773 6.903-33.553 33.079-33.553 52.254v60.354c0 8.284 6.716 15 15 15h231.335c8.284 0 15-6.716 15-15v-55.003h41.847c24.813 0 45-20.187 45-45v-72.004c0-8.285-6.716-15.001-15-15.001z" fill="#ff9b8b"/><path d="m333.182 309.992h-45c-8.284 0-15 6.716-15 15v30 5.007c0 4.4-3.6 8-8 8.001l-128.911.007v143.993h110.063c8.284 0 15-6.716 15-15v-55.003h41.847c24.813 0 45-20.187 45-45v-72.004c.001-8.285-6.715-15.001-14.999-15.001z" fill="#dc7571"/><path d="m325.683 234.254c-28.949 0-52.5 23.551-52.5 52.5v38.238h74.999v-90.738z" fill="#ffbeaa"/><path d="m195.192 339.629s-7.565-9.989-12.405-12.252-10.519-1.779-14.908 1.267c-9.315 6.469-20.245 9.888-31.607 9.888-11.351 0-22.271-3.412-31.579-9.868-4.389-3.044-10.066-3.524-14.905-1.26-4.838 2.264-12.437 12.25-12.437 12.25v28.894c.002 15.765 6.196 30.439 17.434 41.32 11.045 10.695 25.778 16.585 41.487 16.585 15.711 0 30.447-5.892 41.493-16.589 11.239-10.885 17.428-25.564 17.428-41.332-.001-.446-.001-28.903-.001-28.903z" fill="#ffbeaa"/><path d="m195.192 339.629s-7.565-9.989-12.405-12.252-10.519-1.779-14.908 1.267c-9.315 6.469-20.245 9.888-31.607 9.888v87.921c15.711 0 30.447-5.892 41.493-16.589 11.239-10.885 17.428-25.564 17.428-41.332-.001-.446-.001-28.903-.001-28.903z" fill="#ffaa8e"/><path d="m206.786 208.597h-141.01c-8.284 0-15 6.716-15 15v58.649c-.013.255-.02.514-.02.772 0 47.153 38.362 85.515 85.515 85.515s85.515-38.362 85.515-85.515v-61.503c0-8.284-6.716-12.918-15-12.918z" fill="#ffd2c7"/><path d="m206.786 208.597h-70.515v159.936c47.153 0 85.515-38.362 85.515-85.515v-61.503c0-8.284-6.716-12.918-15-12.918z" fill="#ffbeaa"/><path d="m243.306 136.979h-140.2c-28.855 0-52.33 23.476-52.33 52.332v34.286h156.029c30.804 0 51.501-24.03 51.501-59.796v-11.822c0-8.285-6.715-15-15-15z" fill="#5e638b"/><path d="m243.306 136.979h-107.035v86.618h70.534c30.804 0 51.501-24.03 51.501-59.796v-11.822c0-8.285-6.715-15-15-15z" fill="#4f5480"/></g></svg>