<svg id="Capa_1" enable-background="new 0 0 512 512" height="512" viewBox="0 0 512 512" width="512" xmlns="http://www.w3.org/2000/svg"><g><path d="m185.004 90.005h-40c-8.284 0-15 6.716-15 15l-10 48.662 10 66.333c0 8.284 6.716 15 15 15h40c8.284 0 15-6.716 15-15l10.001-62.335-10.001-52.66c0-8.284-6.715-15-15-15z" fill="#e6ffff"/><path d="m200.004 105.005c0-8.284-6.716-15-15-15h-20v144.995h20c8.284 0 15-6.716 15-15l10.001-62.335z" fill="#cbf0ff"/><path d="m115.004 60.004h-40.001c-8.284 0-15 6.716-15 15v144.996c0 8.284 6.716 15 15 15h40.001c8.284 0 15-6.716 15-15v-144.996c0-8.285-6.715-15-15-15z" fill="#ff9b8b"/><path d="m255.003 60.004h-39.999c-8.284 0-15 6.716-15 15v144.996c0 8.284 6.716 15 15 15h39.999c8.285 0 15.001-6.716 15.001-15v-144.996c0-8.285-6.716-15-15.001-15z" fill="#dc7571"/><path d="m496.999 0h-481.999c-8.284 0-15 6.716-15 15v219.996c0 8.284 6.716 15 15 15h481.999c8.284 0 15-6.716 15-15v-94.997l-10.001-14.999 10.001-15.002v-94.998c0-8.284-6.716-15-15-15zm-466.999 30h270.01v79.998l10.001 13.002-10.001 16.999v79.998h-270.01z" fill="#ffeb93"/><path d="m511.999 15c0-8.284-6.716-15-15-15h-331.995v30h135.006v79.998l10.001 13.002-10.001 16.999v79.998h-135.006v30h331.995c8.284 0 15-6.716 15-15v-94.997l-10.001-15 10.001-15.002z" fill="#ffc57d"/><path d="m300 109.999h212v30h-212z" fill="#ff9e66"/><path d="m426.992 70h-37.492c-8.284 0-15-6.716-15-15s6.716-15 15-15h37.492c8.284 0 15 6.716 15 15s-6.716 15-15 15z" fill="#ff9e66"/><path d="m263.508 339.999h-200.008c-8.285 0-15 6.716-15 15v142.001c0 8.284 6.715 15 15 15h200.008c8.284 0 15-6.716 15-15v-142.001c0-8.284-6.716-15-15-15z" fill="#4f5480"/><path d="m263.508 339.999h-98.503v172.001h98.503c8.284 0 15-6.716 15-15v-142.001c0-8.284-6.716-15-15-15z" fill="#404576"/><path d="m263.51 280h-200.012c-24.813 0-45 20.186-45 44.999v30c0 8.284 6.716 15 15 15h260.01c8.284 0 15-6.716 15-15v-30c0-24.813-20.186-44.999-44.998-44.999z" fill="#5e638b"/><path d="m263.51 280h-98.505v89.999h128.503c8.284 0 15-6.716 15-15v-30c0-24.813-20.186-44.999-44.998-44.999z" fill="#4f5480"/><path d="m424.504 407.994c-8.284 0-15 6.716-15 15v74.006h30v-74.005c0-8.285-6.716-15.001-15-15.001z" fill="#b1e1ff"/><path d="m478.249 512h-107.49c-8.284 0-15-6.716-15-15s6.716-15 15-15h107.49c8.284 0 15 6.716 15 15s-6.716 15-15 15z" fill="#cbf0ff"/><path d="m481.996 205.494c-16.542 0-30 13.458-30 30v127.5h-84.984c-16.543 0-30.001 13.458-30.001 30v15c0 8.25 6.75 15 15 15h129.985c16.542 0 30-13.458 30-30v-157.5c0-16.542-13.458-30-30-30z" fill="#4f5480"/></g></svg>