<svg id="Capa_1" enable-background="new 0 0 511.999 511.999" height="512" viewBox="0 0 511.999 511.999" width="512" xmlns="http://www.w3.org/2000/svg"><g><path d="m416.612 456.391c-5.857-5.857-15.355-5.857-21.213.001l-4.393 4.394v-47.937c0-8.284-6.716-15-15-15s-15 6.716-15 15v47.937l-4.394-4.394c-5.857-5.858-15.355-5.857-21.213-.001-5.858 5.858-5.858 15.355 0 21.213l30 30.002c2.813 2.813 6.628 4.393 10.607 4.393 3.978 0 7.794-1.581 10.606-4.393l30-30.002c5.858-5.858 5.858-15.355 0-21.213z" fill="#dc7571"/><path d="m155.387 456.391-4.394 4.394v-47.937c0-8.284-6.716-15-15-15s-15 6.716-15 15v47.937l-4.394-4.394c-5.856-5.858-15.354-5.857-21.213-.001-5.858 5.858-5.858 15.355 0 21.213l30 30.002c2.813 2.813 6.628 4.393 10.606 4.393 3.979 0 7.794-1.581 10.606-4.393l30-30.002c5.858-5.858 5.858-15.355 0-21.213-5.855-5.857-15.353-5.856-21.211.001z" fill="#ff9b8b"/><path d="m275.393 456.391-4.393 4.394v-47.937c0-8.284-6.716-15-15-15s-15 6.716-15 15v47.937l-4.394-4.394c-5.856-5.858-15.354-5.857-21.213-.001-5.858 5.858-5.858 15.355 0 21.213l30 30.002c2.813 2.813 6.628 4.393 10.606 4.393s7.794-1.581 10.606-4.393l30-30.002c5.858-5.858 5.858-15.355 0-21.213-5.856-5.857-15.355-5.856-21.212.001z" fill="#ff9b8b"/><path d="m296.606 456.391c-5.857-5.857-15.355-5.857-21.213.001l-4.393 4.393v-47.937c0-8.277-6.705-14.988-14.98-14.999v114.149c3.971-.005 7.778-1.584 10.586-4.392l30-30.002c5.858-5.858 5.858-15.355 0-21.213z" fill="#dc7571"/><path d="m374.852 322.845c0-7.629 7.934-16.177 10.645-18.512l-229.351-16.488c-24.813 0-34.999 10.186-34.999 34.999s10.186 35 34.999 35l229.418-16.431c-2.778-2.391-10.712-10.938-10.712-18.568z" fill="#e6ffff"/><path d="m385.497 304.333-127.141-9.447v55.943l127.208-9.416c-2.778-2.392-10.712-10.939-10.712-18.569 0-7.629 7.934-16.176 10.645-18.511z" fill="#cbf0ff"/><path d="m156.146 307.845h229.707c8.284 0 15-6.716 15-15v-277.845c0-8.284-6.716-15-15-15h-229.707c-24.813 0-45 20.187-45 45v277.845c0 24.813 20.187 45 45 45h229.707c8.284 0 15-6.716 15-15s-6.716-15-15-15h-229.707c-8.271 0-15-6.729-15-15s6.728-15 15-15z" fill="#78b4ff"/><path d="m385.853 0h-127.497v307.845h127.497c8.284 0 15-6.716 15-15v-277.845c0-8.284-6.716-15-15-15z" fill="#6299f7"/><path d="m385.853 337.845h-127.497v30h127.497c8.284 0 15-6.716 15-15s-6.716-15-15-15z" fill="#6299f7"/><path d="m305.74 125.596c-5.823-22.02-25.916-38.3-49.74-38.3s-43.918 16.281-49.741 38.3c-20.245 5.792-35.107 24.467-35.107 46.548 0 26.691 21.715 48.405 48.405 48.405h72.884c26.691 0 48.406-21.714 48.406-48.405 0-22.081-14.861-40.756-35.107-46.548z" fill="#e6ffff"/><path d="m305.74 125.596c-5.821-22.013-25.904-38.29-49.72-38.299v133.252h36.421c26.691 0 48.406-21.714 48.406-48.405 0-22.081-14.861-40.756-35.107-46.548z" fill="#cbf0ff"/></g></svg>