<svg id="Capa_1" enable-background="new 0 0 511.998 511.998" height="512" viewBox="0 0 511.998 511.998" width="512" xmlns="http://www.w3.org/2000/svg"><g><path d="m15 46.493h390.996v450.006h-390.996z" fill="#ffc072"/><path d="m120.006 46.493h285.99v450.006h-285.99z" fill="#ff9e66"/><path d="m315.996 90.874h-29.999c-8.284 0-15 6.716-15 15l-10.001 41.961 10.001 33.036c0 8.284 6.716 15 15 15h29.999c8.284 0 15-6.716 15-15l10.001-37.036-10.001-37.961c0-8.284-6.716-15-15-15z" fill="#4f5480"/><g fill="#87d186"><path d="m255.997 90.874h-29.998c-8.284 0-15 6.716-15 15v74.996c0 8.284 6.716 15 15 15h29.998c8.284 0 15-6.716 15-15v-74.996c0-8.284-6.716-15-15-15z"/><path d="m375.996 90.874h-30c-8.284 0-15 6.716-15 15v74.996c0 8.284 6.716 15 15 15h30c8.284 0 15-6.716 15-15l10.001-35.036-10.001-39.961c0-8.283-6.716-14.999-15-14.999z"/><path d="m315.996 241.504h-29.999c-8.284 0-15 6.716-15 15l-10.001 41.961 10.001 33.036c0 8.284 6.716 15 15 15h29.999c8.284 0 15-6.716 15-15l10.001-37.036-10.001-37.961c0-8.284-6.716-15-15-15z"/></g><path d="m255.997 241.504h-29.998c-8.284 0-15 6.716-15 15v74.997c0 8.284 6.716 15 15 15h29.998c8.284 0 15-6.716 15-15v-74.997c0-8.284-6.716-15-15-15z" fill="#4f5480"/><path d="m375.996 241.504h-30c-8.284 0-15 6.716-15 15v74.997c0 8.284 6.716 15 15 15h30c8.284 0 15-6.716 15-15l10.001-35.036-10.001-39.961c0-8.284-6.716-15-15-15z" fill="#cbf0ff"/><path d="m315.996 391.505h-29.999c-8.284 0-15 6.716-15 15l-10.001 41.961 10.001 33.036c0 8.284 6.716 15 15 15h29.999c8.284 0 15-6.716 15-15l10.001-37.036-10.001-37.961c0-8.284-6.716-15-15-15z" fill="#cbf0ff"/><path d="m255.997 391.505h-29.998c-8.284 0-15 6.716-15 15v74.997c0 8.284 6.716 15 15 15h29.998c8.284 0 15-6.716 15-15v-74.997c0-8.284-6.716-15-15-15z" fill="#87d186"/><path d="m375.996 391.505h-30c-8.284 0-15 6.716-15 15v74.997c0 8.284 6.716 15 15 15h30c8.284 0 15-6.716 15-15l10.001-35.036-10.001-39.961c0-8.284-6.716-15-15-15z" fill="#4f5480"/><path d="m496.998 31.493h-316.985l-60.014 10-59.992-10h-45.007c-8.284 0-15 6.716-15 15v450.006c0 8.284 6.716 15 15 15h481.998c8.284 0 15-6.716 15-15v-450.006c0-8.284-6.716-15-15-15zm-106.002 450.006h-360.996v-120.003h360.996zm0-150.003h-360.996v-121.006h360.996zm0-151.006h-360.996v-118.997h360.996z" fill="#ffeb93"/><path d="m496.998 31.493h-316.985l-60.007 9.999v20h270.99v118.998h-270.99v30h270.99v121.006h-270.99v30h270.99v120.003h-270.99v30h376.992c8.284 0 15-6.716 15-15v-450.006c0-8.284-6.716-15-15-15z" fill="#ffc072"/><path d="m165.006.497c-8.284 0-15 6.716-15 15v15.996h-60v-15.996c0-8.284-6.716-15-15-15s-15 6.716-15 15v481.004c0 8.284 6.716 15 15 15s15-6.716 15-15v-60.003h60v60.003c0 8.284 6.716 15 15 15s15-6.716 15-15v-481.004c0-8.284-6.716-15-15-15zm-75 179.993v-44.499h60v44.499zm60 30v45.503h-60v-45.503zm-60 75.503h60v45.503h-60zm60-224.5v44.499h-60v-44.499zm-60 345.005v-45.001h60v45.001z" fill="#e6ffff"/><path d="m165.006.497c-8.284 0-15 6.716-15 15v15.996h-30v30h30v44.499h-30v30h30v44.499h-30v30h30v45.503h-30v30h30v45.503h-30v30h30v45.001h-30v30h30v60.003c0 8.284 6.716 15 15 15s15-6.716 15-15v-481.004c0-8.284-6.716-15-15-15z" fill="#cbf0ff"/></g></svg>