<svg id="Capa_1" enable-background="new 0 0 512.002 512.002" height="512" viewBox="0 0 512.002 512.002" width="512" xmlns="http://www.w3.org/2000/svg"><g><path d="m497.001 145.99h-186c-24.575 0-45.736 14.857-55 36.056-9.265-21.199-30.425-36.056-55.001-36.056h-185.999c-8.284 0-15 6.716-15 15v260.009c0 8.284 6.716 15 15 15h196c16.542 0 30 13.458 30 30 0 8.284 6.716 15 15 15s15-6.716 15-15c0-16.542 13.458-30 30-30h196c8.284 0 15-6.716 15-15v-260.009c0-8.284-6.716-15-15-15z" fill="#e6ffff"/><path d="m497.001 145.99h-186c-24.575 0-45.736 14.857-55 36.056l10 126.956-10 156.997c8.284 0 15 8.285 15 0 0-16.542 13.458-30 30-30h196c8.284 0 15-6.716 15-15v-260.009c0-8.284-6.716-15-15-15z" fill="#cbf0ff"/><path d="m301.001 420.999c-17.901 0-33.997 7.881-45 20.354-11.003-12.474-27.099-20.354-45-20.354l-211-.001v61.002c0 8.284 6.716 15 15 15h482c8.284 0 15-6.716 15-15v-61.002z" fill="#cbf0ff"/><path d="m301.001 420.999c-17.901 0-33.997 7.881-45 20.354v55.647h241c8.284 0 15-6.716 15-15v-61.002z" fill="#b1e1ff"/><path d="m434.5 245.99h-58.494c-8.284 0-15-6.715-15-15 0-8.284 6.716-15 15-15h58.494c8.284 0 15 6.716 15 15 0 8.285-6.716 15-15 15z" fill="#404576"/><path d="m178.499 245.99h-100.996c-8.284 0-15-6.715-15-15 0-8.284 6.716-15 15-15h100.996c8.284 0 15 6.716 15 15 0 8.285-6.716 15-15 15z" fill="#5e638b"/><path d="m434.5 305.993h-58.494c-8.284 0-15-6.716-15-15s6.716-15 15-15h58.494c8.284 0 15 6.716 15 15s-6.716 15-15 15z" fill="#404576"/><path d="m178.499 305.993h-100.996c-8.284 0-15-6.716-15-15s6.716-15 15-15h100.996c8.284 0 15 6.716 15 15s-6.716 15-15 15z" fill="#5e638b"/><path d="m434.5 365.996h-58.494c-8.284 0-15-6.716-15-15s6.716-15 15-15h58.494c8.284 0 15 6.716 15 15s-6.716 15-15 15z" fill="#404576"/><path d="m178.499 365.996h-100.996c-8.284 0-15-6.716-15-15s6.716-15 15-15h100.996c8.284 0 15 6.716 15 15s-6.716 15-15 15z" fill="#5e638b"/><path d="m386.613 120.383-30.001-30.001c-2.813-2.813-6.629-4.394-10.607-4.394h-45.002c-3.978 0-7.793 1.58-10.607 4.394l-30.001 30.001c-2.813 2.813-4.393 6.628-4.393 10.606v310.365c0 8.284 6.716 15 15 15h105.005c8.284 0 15-6.716 15-15v-310.365c0-3.978-1.581-7.793-4.394-10.606z" fill="#87d186"/><g fill="#cbf0ff"><path d="m350.793 1.892c-7.239-4.023-16.373-1.417-20.398 5.823l-6.89 12.396-6.89-12.396c-4.025-7.241-13.159-9.848-20.398-5.823-7.241 4.025-9.848 13.158-5.823 20.398l18.112 32.584v73.129c0 8.284 6.716 15 15 15s15-6.716 15-15v-73.129l18.112-32.584c4.023-7.24 1.415-16.373-5.825-20.398z"/><path d="m323.506 315.993c-8.284 0-15-6.716-15-15v-52.983c0-8.284 6.716-15 15-15s15 6.716 15 15v52.983c0 8.284-6.716 15-15 15z"/><circle cx="323.503" cy="188.002" r="15"/><circle cx="323.503" cy="360.992" r="15"/></g><path d="m512.001 497.002c0 8.25-6.75 15-15 15h-482c-8.25 0-15-6.75-15-15 0-8.25 0-15 0-15h512z" fill="#ff9b8b"/><path d="m256.001 482.002v30h241c8.25 0 15-6.75 15-15s0-15 0-15z" fill="#dc7571"/></g></svg>