<svg id="Capa_1" enable-background="new 0 0 511.662 511.662" height="512" viewBox="0 0 511.662 511.662" width="512" xmlns="http://www.w3.org/2000/svg"><g><path d="m349.159 334.855h-270.4c-16.568 0-30 13.431-30 30 0 16.568 13.432 30 30 30h270.4" fill="#e6ffff"/><path d="m191.458 334.855h157.7v60h-157.7z" fill="#cbf0ff"/><path d="m78.758 349.855h255.39 15.01v-30-304.855c0-8.284-6.716-15-15-15h-255.4c-24.813 0-45 20.187-45 45v319.855c0 24.813 20.187 45 45 45h270.4v-30h-270.4c-8.271 0-15-6.729-15-15s6.729-15 15-15z" fill="#78b4ff"/><path d="m191.29 379.855h157.869v30h-157.869z" fill="#6299f7"/><path d="m349.158 319.855v-304.855c0-8.284-6.716-15-15-15h-142.868v349.855h142.858 15.01z" fill="#6299f7"/><path d="m214.213 270.009h-106.723c-8.284 0-15-6.716-15-15s6.716-15 15-15h106.723c8.284 0 15 6.716 15 15s-6.716 15-15 15z" fill="#e6ffff"/><path d="m214.213 270.009c8.284 0 15-6.716 15-15s-6.716-15-15-15h-22.754v30z" fill="#cbf0ff"/><path d="m214.213 210.006h-106.723c-8.284 0-15-6.716-15-15s6.716-15 15-15h106.723c8.284 0 15 6.716 15 15s-6.716 15-15 15z" fill="#e6ffff"/><path d="m214.213 210.006c8.284 0 15-6.716 15-15s-6.716-15-15-15h-22.754v30z" fill="#cbf0ff"/><path d="m275.09 60h-167.6c-8.284 0-15 6.716-15 15v60.003c0 8.284 6.716 15 15 15h167.6c8.284 0 15-6.716 15-15v-60.003c0-8.284-6.715-15-15-15z" fill="#e6ffff"/><path d="m275.09 60h-83.632v90.003h83.632c8.284 0 15-6.716 15-15v-60.003c0-8.284-6.715-15-15-15z" fill="#cbf0ff"/><path d="m433.505 272.516c-8.235-7.532-28.299-17.508-28.299-17.508l-56.047-10.001-56.721 10.001s-20.065 9.976-28.3 17.508c-20.254 18.526-44.398 51.894-44.398 105.651v88.495c0 24.813 20.187 45 45 45h168.163c24.813 0 45-20.187 45-45v-88.495c.001-53.757-24.143-87.125-44.398-105.651z" fill="#ffeb93"/><path d="m433.505 272.516c-8.235-7.532-28.299-17.508-28.299-17.508l-56.047-10.001v266.654h83.745c24.813 0 45-20.187 45-45v-88.495c0-53.756-24.144-87.124-44.399-105.65z" fill="#ffc57d"/><path d="m405.206 255.008c8.909-13.947 20.617-36.756 20.617-60.339 0-8.284-6.716-15-15-15h-124.002c-8.284 0-15 6.716-15 15 0 23.583 11.708 46.392 20.617 60.339z" fill="#ffc57d"/><path d="m410.823 179.669h-61.664v75.339h56.047c8.909-13.947 20.617-36.756 20.617-60.339 0-8.284-6.716-15-15-15z" fill="#ff9e66"/><path d="m361.339 364.497c-9.788-3.61-18.951-7.524-22.533-9.083-.214-.285-.379-.722-.28-1.406.216-1.51 1.628-2.763 3.871-3.44 10.167-3.061 18.914 3.976 19.502 4.463 6.216 5.396 15.632 4.775 21.084-1.411 5.477-6.215 4.88-15.693-1.335-21.171-3.77-3.323-10.093-7.355-17.975-9.956v-3.513c0-8.284-6.716-15-15-15s-15 6.716-15 15v2.887c-13.443 4.078-22.961 14.754-24.844 27.88-1.785 12.44 3.613 24.408 14.087 31.235.662.432 1.357.811 2.08 1.133.503.225 12.48 5.556 25.96 10.528 5.428 2.002 8.956 4.878 8.578 6.994-.471 2.638-4.507 6.292-10.861 6.292-7.378 0-14.436-2.928-18.879-7.831-5.563-6.14-15.049-6.606-21.188-1.044-6.139 5.563-6.606 15.049-1.044 21.188 6.899 7.613 16.003 13.018 26.111 15.72v2.841c0 8.284 6.716 15 15 15s15-6.716 15-15v-3.415c13.139-4.63 23.024-15.207 25.394-28.478 2.333-13.063-3.529-31.487-27.728-40.413z" fill="#a5f0a3"/><g fill="#87d186"><path d="m349.159 349.865c7.023.56 12.289 4.793 12.74 5.167 6.216 5.396 15.632 4.775 21.084-1.411 5.477-6.215 4.88-15.693-1.335-21.171-3.77-3.323-10.093-7.355-17.975-9.956v-3.513c0-8.12-6.457-14.717-14.515-14.975v45.859z"/><path d="m361.339 364.497c-4.326-1.596-8.526-3.25-12.18-4.734v32.212c.596.223 1.195.446 1.798.669 5.428 2.002 8.956 4.878 8.578 6.994-.459 2.569-4.306 6.093-10.376 6.274v45.867c8.058-.258 14.515-6.855 14.515-14.976v-3.415c13.139-4.63 23.024-15.207 25.394-28.478 2.332-13.063-3.53-31.487-27.729-40.413z"/></g></g></svg>