<svg id="Capa_1" enable-background="new 0 0 512 512" height="512" viewBox="0 0 512 512" width="512" xmlns="http://www.w3.org/2000/svg"><g><path d="m396.913 306.885c-.126-.044-.253-.086-.38-.127l-79.505-25.404c-2.454-1.164-5.243-1.672-8.112-1.347-7.421.843-13.092 7.018-13.301 14.484-.605 21.615-17.997 38.547-39.594 38.547-21.567 0-38.976-16.882-39.632-38.433-.144-4.706-2.488-9.071-6.331-11.789-3.844-2.719-8.739-3.473-13.226-2.043l-81.362 25.984c-.128.041-.255.083-.382.128-21.521 7.516-38.378 31.258-38.378 54.052v106.062c0 24.813 20.187 45 45 45h134.291l31-10 29.49 10h103.799c8.284 0 15-6.716 15-15v-136.062c0-22.794-16.858-46.537-38.377-54.052z" fill="#e6ffff"/><path d="m325.603 256.696s-14.035-8.428-18.504-10.18c-4.47-1.751-9.506-1.257-13.551 1.327-11.222 7.172-24.181 10.971-37.462 10.982h-.279c-13.246-.036-26.163-3.837-37.35-10.99-4.047-2.587-9.087-3.081-13.56-1.326-4.472 1.755-17.287 5.544-18.494 10.194v27.4c.553 18.157 8.038 35.471 21.076 48.147 13.07 12.707 30.309 19.706 48.543 19.706 18.264 0 35.52-7.023 48.588-19.777 13.028-12.715 20.484-29.862 20.994-48.055.039-1.417-.001-27.428-.001-27.428z" fill="#ffbeaa"/><path d="m396.913 306.885c-.126-.044-.253-.086-.38-.127l-79.505-25.404c-2.454-1.164-5.243-1.672-8.112-1.347-7.421.843-13.092 7.018-13.301 14.484-.605 21.615-17.997 38.547-39.594 38.547-.006 0-.012-.001-.018-.001v178.96l30.998-10 29.49 10h103.799c8.284 0 15-6.716 15-15v-136.06c0-22.794-16.858-46.537-38.377-54.052z" fill="#cbf0ff"/><path d="m325.603 256.696s-14.035-8.428-18.504-10.18c-4.47-1.751-9.506-1.257-13.551 1.327-11.222 7.172-24.181 10.971-37.462 10.982h-.083v93.13c.006 0 .012.001.018.001 18.264 0 35.52-7.023 48.588-19.777 13.028-12.715 20.484-29.862 20.994-48.055.04-1.417 0-27.428 0-27.428z" fill="#ffaa8e"/><path d="m341.003 90.004h-170.004c-8.284 0-15 6.716-15 15v83.823c0 54.989 44.737 99.848 99.768 99.998h.32.014c55.087-.052 99.902-44.911 99.902-99.998v-83.823c0-8.284-6.716-15-15-15z" fill="#ffd2c7"/><path d="m341.003 90.004h-85v198.821h.083.014c55.087-.052 99.902-44.911 99.902-99.998v-83.823c.001-8.284-6.715-15-14.999-15z" fill="#ffbeaa"/><path d="m390.992 14.357c-.345-8.027-6.952-14.357-14.986-14.357h-160.007c-33.084 0-60 26.916-60 60v45.004h200.004c14.79-4.793 27.498-24.005 31.615-46.875 4.037-22.426 3.411-42.909 3.374-43.772z" fill="#4f5480"/><path d="m390.992 14.357c-.345-8.027-6.952-14.357-14.986-14.357h-120.003v105.004h100c14.79-4.793 27.498-24.005 31.615-46.875 4.037-22.426 3.411-42.909 3.374-43.772z" fill="#404576"/><path d="m318.001 333.039h-94c-24.813 0-45 20.187-45 45v51.791c0 8.284 6.716 15 15 15h124c8.284 0 15-6.716 15-15v-81.791c0-8.285-6.716-15-15-15z" fill="#ff9b8b"/><path d="m318.001 333.039h-61.998v111.791h61.998c8.284 0 15-6.716 15-15v-81.791c0-8.285-6.716-15-15-15z" fill="#dc7571"/><path d="m164 429.83c-8.284 0-15 6.716-15 15s6.716 15 15 15h92.001l10.001-16.496-10.001-13.504z" fill="#cbf0ff"/><path d="m348.004 429.83h-92.003v82.17h60.489c25.647 0 46.514-20.866 46.514-46.513v-20.657c0-8.284-6.716-15-15-15z" fill="#ffbeaa"/><path d="m256.001 141c0 26.74-21.677 48.417-48.416 48.417-26.74 0-48.417-21.677-48.417-48.417s21.677-48.416 48.417-48.416c26.739 0 48.416 21.676 48.416 48.416z" fill="#e6ffff"/><path d="m352.832 141c0 26.74-21.678 48.417-48.417 48.417s-48.416-21.677-48.416-48.417 21.677-48.416 48.416-48.416 48.417 21.676 48.417 48.416z" fill="#cbf0ff"/><path d="m304.415 77.584c-19.395 0-36.773 8.761-48.415 22.522-11.642-13.762-29.02-22.522-48.415-22.522-34.969 0-63.417 28.449-63.417 63.416 0 34.968 28.448 63.417 63.417 63.417 19.395 0 36.773-8.76 48.415-22.522 11.642 13.762 29.021 22.522 48.415 22.522 34.968 0 63.417-28.449 63.417-63.417s-28.449-63.416-63.417-63.416zm-96.83 96.833c-18.427 0-33.417-14.991-33.417-33.417s14.99-33.416 33.417-33.416c18.413 0 33.394 14.97 33.415 33.378 0 .013-.001.025-.001.039s.001.026.001.039c-.021 18.407-15.002 33.377-33.415 33.377zm96.83 0c-18.413 0-33.395-14.97-33.415-33.378 0-.013.001-.025.001-.039s-.001-.026-.001-.039c.021-18.408 15.002-33.378 33.415-33.378 18.426 0 33.417 14.991 33.417 33.416 0 18.427-14.991 33.418-33.417 33.418z" fill="#5e638b"/><path d="m304.415 77.584c-19.393 0-36.77 8.759-48.412 22.518v81.797c11.642 13.76 29.019 22.518 48.412 22.518 34.968 0 63.417-28.449 63.417-63.417s-28.449-63.416-63.417-63.416zm0 96.833c-18.413 0-33.395-14.97-33.415-33.378 0-.013.001-.025.001-.039s-.001-.026-.001-.039c.021-18.408 15.002-33.378 33.415-33.378 18.426 0 33.417 14.991 33.417 33.416 0 18.427-14.991 33.418-33.417 33.418z" fill="#4f5480"/></g></svg>