<svg id="Capa_1" enable-background="new 0 0 511.999 511.999" height="512" viewBox="0 0 511.999 511.999" width="512" xmlns="http://www.w3.org/2000/svg"><g><path d="m425.597 345.979-276.099-12.311c-41.355 0-64.999 23.645-64.999 64.999s23.644 65 64.999 65l276.099-12.311c-.108-.192-8.792-16.282-11.957-37.689l-11.138-15 11.132-14.999c3.161-21.483 11.872-37.526 11.963-37.689z" fill="#e6ffff"/><path d="m402.502 398.667 11.132-14.999c3.161-21.483 11.872-37.525 11.963-37.689l-169.598-7.729v120.833l169.598-7.728c-.108-.192-8.792-16.282-11.957-37.689z" fill="#cbf0ff"/><path d="m149.499 353.667h273.001c8.284 0 15-6.716 15-15v-323.667c0-8.284-6.716-15-15-15h-273.001c-41.355 0-75 33.645-75 75.001v323.667c0 41.355 33.645 75 75 75h273.001c8.284 0 15-6.716 15-15s-6.716-15-15-15h-273.001c-24.814 0-45-20.187-45-45-.001-24.814 20.186-45.001 45-45.001z" fill="#ff9b8b"/><path d="m422.5 443.667h-166.501l9.682 15-9.682 15h166.501c8.284 0 15-6.716 15-15s-6.715-15-15-15z" fill="#dc7571"/><path d="m422.5 0h-166.501v353.667h166.501c8.284 0 15-6.716 15-15v-323.667c0-8.284-6.715-15-15-15z" fill="#dc7571"/><g><path d="m307.496 272.168h-102.993c-8.284 0-15-6.716-15-15s6.716-15 15-15h102.992c8.284 0 15 6.716 15 15 .001 8.284-6.715 15-14.999 15z" fill="#dc7571"/><path d="m307.496 242.168h-51.496v30h51.495c8.284 0 15-6.716 15-15 .001-8.284-6.715-15-14.999-15z" fill="#b94e56"/><path d="m280.63 71.499c-8.67 0-17.028 1.956-24.631 5.718-7.602-3.762-15.961-5.718-24.631-5.718-30.741 0-55.751 25.009-55.751 55.75 0 21.846 12.998 42.772 38.632 62.195 17.518 13.273 34.907 21.094 35.639 21.42 1.945.868 4.028 1.301 6.111 1.301s4.166-.434 6.111-1.301c.731-.326 18.121-8.146 35.639-21.42 25.634-19.423 38.632-40.349 38.632-62.195 0-30.741-25.009-55.75-55.751-55.75z" fill="#e6ffff"/><path d="m280.63 71.499c-8.67 0-17.027 1.956-24.63 5.717v134.949c2.083 0 4.165-.434 6.11-1.301.731-.326 18.121-8.146 35.639-21.42 25.634-19.423 38.632-40.349 38.632-62.195 0-30.741-25.009-55.75-55.751-55.75z" fill="#cbf0ff"/></g><path d="m256 398.667v98.332c0 5.273 2.769 10.158 7.291 12.868 2.369 1.419 5.037 2.132 7.709 2.132 2.43 0 4.863-.59 7.077-1.774l24.715-13.226 26.436 13.383c4.649 2.353 10.186 2.125 14.629-.604 4.44-2.729 7.145-7.567 7.145-12.779v-98.332z" fill="#4f5480"/><path d="m413.644 413.667c-.706-4.776-1.141-9.812-1.141-15 0-5.193.433-10.229 1.135-15h-264.134c-8.284 0-15 6.716-15 15s6.716 15 15 15z" fill="#cbf0ff"/><path d="m255.999 383.667v30h157.645c-.706-4.776-1.141-9.812-1.141-15 0-5.193.433-10.229 1.135-15z" fill="#b1e1ff"/></g></svg>