<svg id="Capa_1" enable-background="new 0 0 512 512" height="512" viewBox="0 0 512 512" width="512" xmlns="http://www.w3.org/2000/svg"><g><path d="m466.998 205.99h-155.998c-24.574 0-45.735 14.857-55 36.056-9.266-21.199-30.426-36.056-55-36.056h-155.998c-8.285 0-15 6.716-15 15v216.006c0 8.284 6.715 15 15 15h165.998c16.542 0 30 13.46 30 30.002h30c0-16.542 13.458-30.002 30-30.002h165.998c8.285 0 15-6.716 15-15v-216.006c0-8.284-6.715-15-15-15z" fill="#e6ffff"/><path d="m466.998 205.99h-155.998c-24.574 0-45.735 14.857-55 36.056v239.952h15c0-16.542 13.458-30.002 30-30.002h165.998c8.285 0 15-6.716 15-15v-216.006c0-8.284-6.715-15-15-15z" fill="#cbf0ff"/><path d="m301 436.997c-17.908 0-33.997 7.896-45 20.377-11.003-12.481-27.092-20.377-45-20.377l-180.998-.001v45.004c0 8.284 6.715 15 15 15h421.996c8.285 0 15-6.716 15-15v-45.004z" fill="#cbf0ff"/><g fill="#b1e1ff"><path d="m301 436.997c-17.908 0-33.997 7.896-45 20.377v39.626h210.998c8.285 0 15-6.716 15-15v-45.004z"/><path d="m406.996 313.991h-63.994s-41.999-6.716-41.999-15 6.716-15 15-15h90.993c8.283 0 15 6.716 15 15s-6.717 15-15 15z"/><path d="m406.996 373.995h-90.993c-8.284 0-15-6.716-15-15s6.716-15 15-15h90.993c8.283 0 15 6.716 15 15s-6.717 15-15 15z"/></g><path d="m168.998 313.991h-63.994c-8.283 0-15-6.716-15-15s6.717-15 15-15h90.993c8.284 0 15 6.716 15 15s-41.999 15-41.999 15z" fill="#cbf0ff"/><path d="m195.997 373.995h-90.993c-8.283 0-15-6.716-15-15s6.717-15 15-15h90.993c8.284 0 15 6.716 15 15s-6.716 15-15 15z" fill="#cbf0ff"/><path d="m481.998 497c0 8.25-6.75 15-15 15h-421.996c-8.25 0-15-6.75-15-15 0-8.25 0-15 0-15h451.996z" fill="#ff9b8b"/><path d="m256 482v30h210.998c8.25 0 15-6.75 15-15s0-15 0-15z" fill="#dc7571"/><path d="m390.822 217.752-74.822-122.166v-80.586h-120v80.586l-74.822 122.166c-13.545 17.884-15.962 42.822-6.115 63.028 9.981 20.48 31.152 33.211 53.936 33.211h174.004c22.783 0 43.954-13.233 53.937-33.715 9.843-20.204 7.426-44.64-6.118-62.524z" fill="#87d186"/><path d="m390.822 217.752-74.822-122.166v-80.586h-60v298.991h87.002c22.783 0 43.954-13.233 53.937-33.715 9.844-20.204 7.427-44.64-6.117-62.524z" fill="#69b169"/><g><path d="m321.002 30h-130.004c-8.284 0-15-6.716-15-15s6.716-15 15-15h130.004c8.283 0 15 6.716 15 15s-6.717 15-15 15z" fill="#a5f0a3"/></g><path d="m321.002 0h-65.002v30h65.002c8.283 0 15-6.716 15-15s-6.717-15-15-15z" fill="#87d186"/><path d="m327.883 231.563-39.905-70.004c-2.668-4.681-7.642-7.571-13.031-7.571h-37.893c-5.389 0-10.363 2.89-13.031 7.571l-39.905 70.004c-2.646 4.643-2.623 10.343.062 14.964s7.625 7.464 12.97 7.464h117.703c5.345 0 10.285-2.843 12.97-7.464 2.683-4.621 2.706-10.321.06-14.964z" fill="#ffeb93"/><path d="m327.883 231.563-39.905-70.004c-2.668-4.681-7.642-7.571-13.031-7.571h-18.947v100.003h58.852c5.345 0 10.285-2.843 12.97-7.464 2.684-4.621 2.707-10.321.061-14.964z" fill="#ffc072"/></g></svg>