<svg id="Capa_1" enable-background="new 0 0 511.999 511.999" height="512" viewBox="0 0 511.999 511.999" width="512" xmlns="http://www.w3.org/2000/svg"><g><path d="m466.998 205.99h-155.998c-24.575 0-45.736 14.857-55 36.056-9.265-21.199-30.426-36.056-55.001-36.056h-155.998c-8.284 0-15 6.716-15 15v216.006c0 8.284 6.716 15 15 15h165.999c16.542 0 30 13.46 30 30.002h30c0-16.542 13.458-30.002 30-30.002h165.998c8.284 0 15-6.716 15-15v-216.006c0-8.285-6.716-15-15-15z" fill="#e6ffff"/><path d="m466.998 205.99h-155.998c-24.575 0-45.736 14.857-55 36.056v239.952h15c0-16.542 13.458-30.002 30-30.002h165.998c8.284 0 15-6.716 15-15v-216.006c0-8.285-6.716-15-15-15z" fill="#cbf0ff"/><path d="m300.999 436.996c-17.908 0-33.997 7.896-45 20.377-11.003-12.481-27.092-20.377-45-20.377h-180.999v45.004c0 8.284 6.716 15 15 15h421.997c8.284 0 15-6.716 15-15v-45.004z" fill="#cbf0ff"/><path d="m300.999 436.996c-17.908 0-33.997 7.896-45 20.377v39.627h210.998c8.284 0 15-6.716 15-15v-45.004z" fill="#b1e1ff"/><path d="m406.995 373.994h-90.993c-8.284 0-15-6.716-15-15s6.716-15 15-15h90.993c8.284 0 15 6.716 15 15s-6.716 15-15 15z" fill="#b1e1ff"/><path d="m195.997 313.991h-90.993c-8.284 0-15-6.716-15-15s6.716-15 15-15h90.993c8.284 0 15 6.716 15 15s-6.716 15-15 15z" fill="#cbf0ff"/><path d="m195.997 373.994h-90.993c-8.284 0-15-6.716-15-15s6.716-15 15-15h90.993c8.284 0 15 6.716 15 15s-6.716 15-15 15z" fill="#cbf0ff"/><path d="m481.998 496.999c0 8.25-6.75 15-15 15h-421.997c-8.25 0-15-6.75-15-15 0-8.25 0-15 0-15h451.997z" fill="#5e638b"/><path d="m255.999 481.999v30h210.998c8.25 0 15-6.75 15-15s0-15 0-15z" fill="#4f5480"/><path d="m368.644 1.811c-4.457-2.414-9.834-2.414-14.291 0-2.771 1.501-67.854 37.758-67.854 124.186s65.083 122.685 67.854 124.186c2.229 1.208 4.688 1.812 7.146 1.812s4.917-.604 7.146-1.812c2.771-1.501 67.854-37.758 67.854-124.186-.001-86.428-65.084-122.685-67.855-124.186z" fill="#ffc57d"/><path d="m361.498 311.997c-8.284 0-15-6.716-15-15v-201.994c0-8.284 6.716-15 15-15s15 6.716 15 15v201.994c0 8.284-6.715 15-15 15z" fill="#4f5480"/></g></svg>