<svg id="Capa_1" enable-background="new 0 0 512 512" height="512" viewBox="0 0 512 512" width="512" xmlns="http://www.w3.org/2000/svg"><g><path d="m466.998 205.99h-155.998c-24.575 0-45.736 14.857-55 36.056-9.265-21.199-30.426-36.056-55.001-36.056h-155.998c-8.284 0-15 6.716-15 15v216.006c0 8.284 6.716 15 15 15h165.999c16.542 0 30 13.46 30 30.002h30c0-16.542 13.458-30.002 30-30.002h165.999c8.284 0 15-6.716 15-15v-216.006c-.001-8.284-6.717-15-15.001-15z" fill="#e6ffff"/><path d="m466.998 205.99h-155.998c-24.575 0-45.736 14.857-55 36.056v239.952h15c0-16.542 13.458-30.002 30-30.002h165.999c8.284 0 15-6.716 15-15v-216.006c-.001-8.284-6.717-15-15.001-15z" fill="#cbf0ff"/><path d="m301 436.997c-17.908 0-33.997 7.896-45 20.377-11.003-12.481-27.092-20.377-45-20.377l-180.999-.001v45.004c0 8.284 6.716 15 15 15h421.997c8.284 0 15-6.716 15-15v-45.004z" fill="#cbf0ff"/><g fill="#b1e1ff"><path d="m301 436.997c-17.908 0-33.997 7.896-45 20.377v39.626h210.999c8.284 0 15-6.716 15-15v-45.004z"/><path d="m406.995 313.991h-90.993c-8.284 0-15-6.716-15-15s6.716-15 15-15h90.993c8.284 0 15 6.716 15 15s-6.715 15-15 15z"/><path d="m406.995 373.995h-90.993c-8.284 0-15-6.716-15-15s6.716-15 15-15h90.993c8.284 0 15 6.716 15 15s-6.715 15-15 15z"/></g><path d="m195.997 313.991h-90.993c-8.284 0-15-6.716-15-15s6.716-15 15-15h90.993c8.284 0 15 6.716 15 15s-6.716 15-15 15z" fill="#cbf0ff"/><path d="m195.997 373.995h-90.993c-8.284 0-15-6.716-15-15s6.716-15 15-15h90.993c8.284 0 15 6.716 15 15s-6.716 15-15 15z" fill="#cbf0ff"/><path d="m351.634 334.698-43.202-191.863c-1.541-6.844-7.619-11.705-14.634-11.705h-75.596c-7.015 0-13.093 4.861-14.634 11.705l-43.202 191.863c-.244 1.082-.366 2.187-.366 3.296.002 30.506 49.64 50.999 96 50.999s95.998-20.493 96-50.999c0-1.109-.123-2.214-.366-3.296z" fill="#ffeb93"/><path d="m351.634 334.698-43.202-191.863c-1.541-6.844-7.619-11.705-14.634-11.705h-37.798v257.863c46.36 0 95.998-20.493 96-50.999 0-1.109-.123-2.214-.366-3.296z" fill="#ffc57d"/><path d="m346.573 51.631c-24.437-10.08-56.603-15.631-90.573-15.631s-66.136 5.552-90.573 15.632c-28.649 11.818-44.427 29.173-44.427 48.869s15.778 37.051 44.427 48.87c24.437 10.081 56.603 15.632 90.573 15.632s66.136-5.552 90.573-15.632c28.649-11.819 44.427-29.174 44.427-48.87s-15.778-37.051-44.427-48.87z" fill="#6299f7"/><path d="m346.573 51.631c-24.437-10.08-56.603-15.631-90.573-15.631v129.003c33.97 0 66.136-5.552 90.573-15.632 28.649-11.819 44.427-29.174 44.427-48.87s-15.778-37.051-44.427-48.87z" fill="#4d7eee"/><path d="m256 0c-33.084 0-60 26.916-60 60 0 25.234 26.355 45 60 45s60-19.766 60-45c0-33.084-26.916-60-60-60z" fill="#e6ffff"/><path d="m256 0v105c33.645 0 60-19.766 60-45 0-33.084-26.916-60-60-60z" fill="#cbf0ff"/><path d="m481.998 497c0 8.25-6.75 15-15 15h-421.997c-8.25 0-15-6.75-15-15 0-8.25 0-15 0-15h451.997z" fill="#ff9b8b"/><path d="m256 482v30h210.999c8.25 0 15-6.75 15-15s0-15 0-15z" fill="#dc7571"/></g></svg>