<svg id="Capa_1" enable-background="new 0 0 512 512" height="512" viewBox="0 0 512 512" width="512" xmlns="http://www.w3.org/2000/svg"><g><path d="m324.703 3.301c-4.951-4.402-12.414-4.402-17.367 0-4.311 3.834-42.126 38.438-42.126 72.672 0 28.018 22.792 50.811 50.81 50.811s50.812-22.793 50.812-50.811c-.001-34.233-37.816-68.838-42.129-72.672z" fill="#ffc57d"/><path d="m466.998 205.991h-155.998c-24.574 0-45.735 14.857-55 36.056-9.265-21.199-30.426-36.056-55-36.056h-155.998c-8.285 0-15 6.716-15 15v216.006c0 8.284 6.715 15 15 15h165.998c16.542 0 30 13.46 30 30.002h30c0-16.542 13.458-30.002 30-30.002h165.998c8.285 0 15-6.716 15-15v-216.006c0-8.284-6.715-15-15-15z" fill="#e6ffff"/><path d="m466.998 205.991h-155.998c-24.574 0-45.735 14.857-55 36.056v239.952h15c0-16.542 13.458-30.002 30-30.002h165.998c8.285 0 15-6.716 15-15v-216.006c0-8.284-6.715-15-15-15z" fill="#cbf0ff"/><path d="m301 436.997c-17.908 0-33.997 7.896-45 20.377-11.003-12.481-27.093-20.377-45-20.377h-180.998v45.004c0 8.284 6.715 15 15 15h421.997c8.285 0 15-6.716 15-15v-45.004z" fill="#cbf0ff"/><g fill="#b1e1ff"><path d="m301 436.997c-17.908 0-33.997 7.896-45 20.377v39.626h210.998c8.285 0 15-6.716 15-15v-45.004z"/><path d="m406.996 283.992h-90.993l60.14 30h30.853c8.283 0 15-6.716 15-15s-6.716-15-15-15z"/><path d="m406.996 373.996h-90.993c-8.284 0-15-6.716-15-15s6.716-15 15-15h90.993c8.283 0 15 6.716 15 15s-6.716 15-15 15z"/></g><path d="m105.005 283.992c-8.284 0-15 6.716-15 15s6.716 15 15 15h56.576l34.417-30z" fill="#cbf0ff"/><path d="m195.997 373.996h-90.993c-8.284 0-15-6.716-15-15s6.716-15 15-15h90.993c8.284 0 15 6.716 15 15s-6.715 15-15 15z" fill="#cbf0ff"/><path d="m481.998 497c0 8.25-6.75 15-15 15h-421.996c-8.25 0-15-6.75-15-15 0-8.25 0-15 0-15h451.997c-.001 0-.001 6.75-.001 15z" fill="#ffeb93"/><path d="m256 482v30h210.998c8.25 0 15-6.75 15-15s0-15 0-15z" fill="#ffc072"/><path d="m376.143 115.552h-120.243c-8.284 0-15 6.716-15 15l47.162 183.439h88.081c8.284 0 15-6.716 15-15v-168.439c0-8.284-6.716-15-15-15z" fill="#a5f0a3"/><path d="m294.694 257.256c21.5-19.607 34.091-47.703 34.091-76.929 0-57.303-46.618-103.956-103.931-103.996-.039 0-.081 0-.123 0-57.279.068-103.874 46.71-103.874 103.996 0 29.225 12.59 57.321 34.091 76.929l-8.052 38.679c-.92 4.419.199 9.019 3.047 12.522 2.849 3.502 7.123 5.536 11.638 5.536h49.24l14.847-10 15.153 10h47.241c4.515 0 8.789-2.033 11.638-5.536s3.968-8.102 3.047-12.521z" fill="#5e638b"/><path d="m294.694 257.256c21.5-19.607 34.091-47.703 34.091-76.929 0-46.458-30.644-85.913-72.784-99.205v232.87h32.061c4.515 0 8.789-2.033 11.638-5.536s3.968-8.102 3.047-12.521z" fill="#4f5480"/><path d="m255.9 164.876c-8.284 0-15 6.716-15 15v9.889c0 8.284 6.716 15 15 15s15-6.716 15-15v-9.889c0-8.284-6.716-15-15-15z" fill="#ff9b8b"/><path d="m195.748 164.876c-8.284 0-15 6.716-15 15v9.889c0 8.284 6.716 15 15 15s15-6.716 15-15v-9.889c0-8.284-6.716-15-15-15z" fill="#ff9b8b"/><path d="m225.821 254.324c-8.284 0-15 6.716-15 15v44.668h30v-44.668c0-8.284-6.715-15-15-15z" fill="#ff9b8b"/><path d="m256 164.881v39.879c8.237-.055 14.899-6.745 14.899-14.995v-9.889c.001-8.25-6.661-14.94-14.899-14.995z" fill="#dc7571"/></g></svg>