<svg id="Capa_1" enable-background="new 0 0 512 512" height="512" viewBox="0 0 512 512" width="512" xmlns="http://www.w3.org/2000/svg"><g><path d="m466.998 205.991h-155.998c-24.574 0-45.735 14.857-55 36.056-9.265-21.199-30.426-36.056-55-36.056h-155.998c-8.285 0-15 6.716-15 15v216.006c0 8.284 6.715 15 15 15h165.998c16.542 0 30 13.46 30 30.002h30c0-16.542 13.458-30.002 30-30.002h165.998c8.285 0 15-6.716 15-15v-216.006c0-8.284-6.715-15-15-15z" fill="#e6ffff"/><path d="m466.998 205.991h-155.998c-24.574 0-45.735 14.857-55 36.056v239.952h15c0-16.542 13.458-30.002 30-30.002h165.998c8.285 0 15-6.716 15-15v-216.006c0-8.284-6.715-15-15-15z" fill="#cbf0ff"/><path d="m301 436.998c-17.908 0-33.997 7.896-45 20.377-11.003-12.481-27.092-20.377-45-20.377h-180.998v45.004c0 8.284 6.715 15 15 15h421.996c8.285 0 15-6.716 15-15v-45.004z" fill="#cbf0ff"/><g fill="#b1e1ff"><path d="m301 436.998c-17.908 0-33.997 7.896-45 20.377v39.626h210.998c8.285 0 15-6.716 15-15v-45.004z"/><path d="m406.996 313.992h-90.993c-8.284 0-15-6.716-15-15s6.716-15 15-15h90.993c8.283 0 15 6.716 15 15s-6.716 15-15 15z"/><path d="m406.996 373.996h-90.993c-8.284 0-15-6.716-15-15s6.716-15 15-15h90.993c8.283 0 15 6.716 15 15s-6.716 15-15 15z"/></g><path d="m195.997 313.992h-90.993c-8.283 0-15-6.716-15-15s6.717-15 15-15h90.993c8.284 0 15 6.716 15 15s-6.715 15-15 15z" fill="#cbf0ff"/><path d="m195.997 373.996h-90.993c-8.283 0-15-6.716-15-15s6.717-15 15-15h90.993c8.284 0 15 6.716 15 15s-6.715 15-15 15z" fill="#cbf0ff"/><path d="m481.998 497c0 8.25-6.75 15-15 15h-421.996c-8.25 0-15-6.75-15-15 0-8.25 0-15 0-15h451.996z" fill="#78b4ff"/><path d="m256 482v30h210.998c8.25 0 15-6.75 15-15s0-15 0-15z" fill="#6299f7"/><path d="m317.701 12.128-224.399 140.999c-.196 3.265-.296 6.555-.296 9.868 0 89.876 73.119 162.996 162.994 162.996 18.028 0 35.383-2.942 51.607-8.371l107.568-119.469c2.5-11.326 3.818-23.09 3.818-35.156.001-68.052-41.919-126.496-101.292-150.867z" fill="#78b4ff"/><path d="m317.701 12.128-61.584 38.696v275.166c17.986-.013 35.301-2.953 51.49-8.37l107.568-119.469c2.5-11.326 3.818-23.09 3.818-35.156.001-68.052-41.919-126.496-101.292-150.867z" fill="#6299f7"/><circle cx="186.8" cy="217.29" fill="#a5f0a3" r="15"/><path d="m190.296 104.48c58.001-27.363 130.523 29.296 130.523-69.669 0-7.861-1.1-15.46-3.126-22.674-19.039-7.815-39.87-12.137-61.693-12.137-86.562 0-157.568 67.831-162.687 153.13 57.694 13.481 64.834-33.482 96.983-48.65z" fill="#a5f0a3"/><path d="m415.164 198.15c-12.685-6.555-26.756-11.637-41.365-15.39-117.815-30.267-140.712 61.134-97.227 97.227 15.139 12.565 24.561 25.414 31.033 37.625 53.801-18.003 95.176-63.351 107.559-119.462z" fill="#87d186"/><path d="m317.694 12.137c-19.006-7.801-39.796-12.12-61.576-12.136v96.471c35.856 1.269 64.702.753 64.702-61.661 0-7.86-1.101-15.46-3.126-22.674z" fill="#87d186"/></g></svg>