<svg id="Capa_1" enable-background="new 0 0 512 512" height="512" viewBox="0 0 512 512" width="512" xmlns="http://www.w3.org/2000/svg"><g><path d="m466.998 205.99h-155.998c-24.574 0-45.735 14.857-55 36.056-9.266-21.199-30.426-36.056-55-36.056h-155.998c-8.285 0-15 6.716-15 15v216.006c0 8.284 6.715 15 15 15h165.998c16.542 0 30 13.46 30 30.002h30c0-16.542 13.458-30.002 30-30.002h165.998c8.285 0 15-6.716 15-15v-216.006c0-8.284-6.715-15-15-15z" fill="#e6ffff"/><path d="m466.998 205.99h-155.998c-24.574 0-45.735 14.857-55 36.056v239.952h15c0-16.542 13.458-30.002 30-30.002h165.998c8.285 0 15-6.716 15-15v-216.006c0-8.284-6.715-15-15-15z" fill="#cbf0ff"/><path d="m301 436.997c-17.908 0-33.997 7.896-45 20.377-11.003-12.481-27.092-20.377-45-20.377l-180.998-.001v45.004c0 8.284 6.715 15 15 15h421.996c8.285 0 15-6.716 15-15v-45.004z" fill="#cbf0ff"/><g fill="#b1e1ff"><path d="m301 436.997c-17.908 0-33.997 7.896-45 20.377v39.626h210.998c8.285 0 15-6.716 15-15v-45.004z"/><path d="m406.996 313.991h-90.993c-8.284 0-15-6.716-15-15s6.716-15 15-15h90.993c8.283 0 15 6.716 15 15s-6.717 15-15 15z"/><path d="m406.996 373.995h-90.993c-8.284 0-15-6.716-15-15s6.716-15 15-15h90.993c8.283 0 15 6.716 15 15s-6.717 15-15 15z"/></g><path d="m195.997 313.991h-90.993c-8.283 0-15-6.716-15-15s6.717-15 15-15h90.993c8.284 0 15 6.716 15 15s-6.716 15-15 15z" fill="#cbf0ff"/><path d="m195.997 373.995h-90.993c-8.283 0-15-6.716-15-15s6.717-15 15-15h90.993c8.284 0 15 6.716 15 15s-6.716 15-15 15z" fill="#cbf0ff"/><path d="m481.998 497c0 8.25-6.75 15-15 15h-421.996c-8.25 0-15-6.75-15-15 0-8.25 0-15 0-15h451.996z" fill="#a5f0a3"/><path d="m256 482v30h210.998c8.25 0 15-6.75 15-15s0-15 0-15z" fill="#87d186"/><path d="m181 135.003v195.987c0 41.355 33.645 75 75 75s75-33.645 75-75v-195.987z" fill="#6299f7"/><path d="m256 135.003v270.987c41.355 0 75-33.645 75-75v-195.987z" fill="#4d7eee"/><path d="m256 345.99c-8.284 0-15-6.716-15-15v-267c0-8.284 6.716-15 15-15 8.283 0 15 6.716 15 15v267c0 8.284-6.717 15-15 15z" fill="#87d186"/><path d="m256 48.991v297c8.283 0 15-6.716 15-15v-267c0-8.284-6.717-15-15-15z" fill="#69b169"/><path d="m316 0h-19.999c-17.404 0-32.519 9.936-40.001 24.426-7.484-14.49-22.599-24.426-40.001-24.426h-19.999c-8.284 0-15 6.716-15 15v30c0 24.813 20.186 45 45 45h60c24.814 0 45-20.187 45-45v-30c0-8.284-6.717-15-15-15z" fill="#a5f0a3"/><path d="m316 0h-19.999c-17.404 0-32.519 9.936-40.001 24.426v65.574h30c24.814 0 45-20.187 45-45v-30c0-8.284-6.717-15-15-15z" fill="#87d186"/><path d="m336.002 150.003h-160.004c-8.284 0-15-6.716-15-15s6.716-15 15-15h160.004c8.283 0 15 6.716 15 15s-6.717 15-15 15z" fill="#78b4ff"/><path d="m336.002 120.003h-80.002v30h80.002c8.283 0 15-6.716 15-15s-6.717-15-15-15z" fill="#6299f7"/></g></svg>