<svg id="Capa_1" enable-background="new 0 0 511.998 511.998" height="512" viewBox="0 0 511.998 511.998" width="512" xmlns="http://www.w3.org/2000/svg"><g><path d="m466.997 205.988h-155.997c-24.575 0-45.736 14.857-55.001 36.057-9.265-21.199-30.426-36.057-55.001-36.057h-155.997c-8.284 0-15 6.717-15 15v216.006c0 8.285 6.716 15 15 15h165.999c16.542 0 30 13.461 30 30.002h30c0-16.541 13.458-30.002 30-30.002h165.999c8.284 0 15-6.715 15-15v-216.006c-.002-8.283-6.717-15-15.002-15z" fill="#e6ffff"/><path d="m466.997 205.988h-155.997c-24.575 0-45.736 14.857-55.001 36.057v239.951h15c0-16.541 13.458-30.002 30-30.002h165.999c8.284 0 15-6.715 15-15v-216.006c-.001-8.283-6.716-15-15.001-15z" fill="#cbf0ff"/><path d="m300.999 436.995c-17.908 0-33.997 7.896-45 20.378-11.003-12.482-27.092-20.378-45-20.378l-180.999-.001v45.006c0 8.283 6.716 15 15 15h421.997c8.284 0 15-6.717 15-15v-45.006z" fill="#cbf0ff"/><g fill="#b1e1ff"><path d="m300.999 436.995c-17.908 0-33.997 7.896-45 20.378v39.627h210.998c8.284 0 15-6.717 15-15v-45.006z"/><path d="m406.995 313.99h-90.993c-8.284 0-15-6.717-15-15 0-8.285 6.716-15 15-15h90.993c8.284 0 15 6.715 15 15 0 8.283-6.716 15-15 15z"/><path d="m406.995 373.994h-90.993c-8.284 0-15-6.717-15-15 0-8.285 6.716-15 15-15h90.993c8.284 0 15 6.715 15 15 0 8.283-6.716 15-15 15z"/></g><path d="m195.996 313.99h-90.993c-8.284 0-15-6.717-15-15 0-8.285 6.716-15 15-15h90.993c8.284 0 15 6.715 15 15 0 8.283-6.716 15-15 15z" fill="#cbf0ff"/><path d="m195.996 373.994h-90.993c-8.284 0-15-6.717-15-15 0-8.285 6.716-15 15-15h90.993c8.284 0 15 6.715 15 15 0 8.283-6.716 15-15 15z" fill="#cbf0ff"/><path d="m481.997 496.998c0 8.25-6.75 15-15 15h-421.996c-8.25 0-15-6.75-15-15 0-8.25 0-15 0-15h451.997c-.001 0-.001 6.75-.001 15z" fill="#78b4ff"/><path d="m255.999 481.998v30h210.998c8.25 0 15-6.75 15-15s0-15 0-15z" fill="#6299f7"/><circle cx="255.999" cy="162.891" fill="#78b4ff" r="162.891"/><path d="m255.999 0v325.782c89.819 0 162.892-73.073 162.892-162.892 0-89.818-73.073-162.89-162.892-162.89z" fill="#6299f7"/><path d="m308.999 196.5c-6.771 0-12.279-5.508-12.279-12.278l-.001-52.188h12.28c8.284 0 15-6.716 15-15 0-8.283-6.716-15-15-15h-106c-8.284 0-15 6.717-15 15 0 8.284 6.716 15 15 15h.744v27c0 30.055-8.354 39.2-9.347 40.179-6.401 4.471-8.338 13.2-4.263 20 2.811 4.691 7.782 7.29 12.88 7.29 2.624 0 5.283-.689 7.697-2.136 3.846-2.306 23.032-16.29 23.032-65.333v-27h32.976l.001 52.188c0 23.313 18.966 42.278 42.279 42.278 8.284 0 15-6.716 15-15 .001-8.284-6.715-15-14.999-15z" fill="#e6ffff"/><path d="m308.999 196.5c-6.771 0-12.279-5.508-12.279-12.278l-.001-52.188h12.28c8.284 0 15-6.716 15-15 0-8.283-6.716-15-15-15h-53v30h10.72l.001 52.188c0 23.313 18.966 42.278 42.279 42.278 8.284 0 15-6.716 15-15s-6.716-15-15-15z" fill="#cbf0ff"/></g></svg>