<svg id="Capa_1" enable-background="new 0 0 511.997 511.997" height="512" viewBox="0 0 511.997 511.997" width="512" xmlns="http://www.w3.org/2000/svg"><g><path d="m466.997 205.987h-155.998c-24.575 0-45.736 14.857-55 36.057-9.265-21.199-30.426-36.057-55.001-36.057h-155.998c-8.284 0-15 6.717-15 15v216.006c0 8.285 6.716 15 15 15h165.999c16.542 0 30 13.461 30 30.002h30c0-16.541 13.458-30.002 30-30.002h165.999c8.284 0 15-6.715 15-15v-216.006c-.001-8.283-6.717-15-15.001-15z" fill="#e6ffff"/><path d="m466.997 205.987h-155.998c-24.575 0-45.736 14.857-55 36.057v239.951h15c0-16.541 13.458-30.002 30-30.002h165.999c8.284 0 15-6.715 15-15v-216.006c-.001-8.283-6.717-15-15.001-15z" fill="#cbf0ff"/><path d="m300.999 436.994c-17.908 0-33.997 7.895-45 20.378-11.003-12.482-27.092-20.378-45-20.378l-180.999-.001v45.005c0 8.284 6.716 15 15 15h421.997c8.284 0 15-6.716 15-15v-45.005z" fill="#cbf0ff"/><g fill="#b1e1ff"><path d="m300.999 436.994c-17.908 0-33.997 7.895-45 20.378v39.626h210.999c8.284 0 15-6.716 15-15v-45.005z"/><path d="m406.994 313.989h-90.993c-8.284 0-15-6.717-15-15 0-8.285 6.716-15 15-15h90.993c8.284 0 15 6.715 15 15 0 8.283-6.716 15-15 15z"/><path d="m406.994 373.993h-90.993c-8.284 0-15-6.717-15-15 0-8.285 6.716-15 15-15h90.993c8.284 0 15 6.715 15 15 0 8.283-6.716 15-15 15z"/></g><path d="m195.996 313.989h-90.993c-8.284 0-15-6.717-15-15 0-8.285 6.716-15 15-15h90.993c8.284 0 15 6.715 15 15 0 8.283-6.716 15-15 15z" fill="#cbf0ff"/><path d="m195.996 373.993h-90.993c-8.284 0-15-6.717-15-15 0-8.285 6.716-15 15-15h90.993c8.284 0 15 6.715 15 15 0 8.283-6.716 15-15 15z" fill="#cbf0ff"/><path d="m481.997 496.997c0 8.25-6.75 15-15 15h-421.997c-8.25 0-15-6.75-15-15 0-8.25 0-15 0-15h451.997z" fill="#a5f0a3"/><path d="m255.999 481.997v30h210.999c8.25 0 15-6.75 15-15s0-15 0-15z" fill="#87d186"/><circle cx="255.999" cy="162.89" fill="#a5f0a3" r="162.891"/><path d="m255.999 0v325.781c89.819 0 162.892-73.073 162.892-162.892s-73.074-162.889-162.892-162.889z" fill="#87d186"/><path d="m324.471 162.891c3.727-6.391 6.835-12.76 9.209-18.973 11.787-30.85 2.02-46.983-4.852-53.854-6.769-6.769-16.222-10.346-27.339-10.346-13.413 0-29.292 5.293-45.488 14.72-16.196-9.428-32.076-14.722-45.49-14.722-11.117 0-20.57 3.577-27.339 10.346-6.872 6.871-16.639 23.005-4.852 53.854 2.374 6.213 5.482 12.582 9.209 18.975-3.727 6.392-6.835 12.761-9.208 18.973-11.787 30.85-2.02 46.984 4.852 53.855 6.768 6.769 16.221 10.346 27.338 10.346 13.415 0 29.294-5.293 45.49-14.721 16.196 9.426 32.075 14.719 45.487 14.719 11.117 0 20.57-3.577 27.338-10.346 6.871-6.871 16.638-23.004 4.852-53.854-2.373-6.213-5.481-12.581-9.207-18.972zm-22.983-53.173c2.903 0 5.136.568 6.126 1.559 1.868 1.868 2.887 9.25-1.959 21.935-.292.766-.612 1.541-.937 2.318-3.256-3.76-6.688-7.459-10.294-11.064-3.604-3.604-7.288-7.026-11.02-10.26 7.22-3.02 13.448-4.488 18.084-4.488zm-45.488 85.511c-5.653-4.33-11.443-9.357-17.213-15.126-5.877-5.878-10.887-11.651-15.155-17.212 4.268-5.561 9.278-11.334 15.155-17.212 5.77-5.77 11.561-10.796 17.214-15.126 5.653 4.33 11.442 9.355 17.211 15.125 5.518 5.518 10.606 11.329 15.121 17.213-4.516 5.883-9.604 11.695-15.122 17.213-5.769 5.769-11.558 10.794-17.211 15.125zm-51.616-83.955c.991-.99 3.224-1.559 6.126-1.559 4.637 0 10.866 1.468 18.086 4.489-3.733 3.232-7.418 6.654-11.023 10.26-3.583 3.584-6.996 7.26-10.234 10.994-5.218-12.634-5.483-21.655-2.955-24.184zm6.127 104.79c-2.902 0-5.135-.568-6.125-1.559-2.529-2.529-2.264-11.549 2.955-24.184 3.238 3.734 6.65 7.41 10.233 10.994 3.605 3.605 7.289 7.026 11.022 10.26-7.22 3.022-13.448 4.489-18.085 4.489zm97.103-1.56c-.991.99-3.224 1.559-6.126 1.559-4.636 0-10.865-1.467-18.083-4.487 3.731-3.233 7.415-6.654 11.019-10.259 3.605-3.605 7.038-7.305 10.294-11.064.325.777.644 1.552.936 2.317 4.846 12.684 3.827 20.067 1.96 21.934z" fill="#e6ffff"/><path d="m324.471 162.891c3.727-6.391 6.835-12.76 9.209-18.973 11.787-30.85 2.02-46.983-4.852-53.854-6.769-6.769-16.222-10.346-27.339-10.346-13.413 0-29.292 5.294-45.487 14.72 0-.001-.001-.002-.002-.002v.003 36.112.002s.001 0 .001-.001c5.653 4.33 11.443 9.357 17.212 15.126 5.518 5.518 10.606 11.329 15.121 17.213-4.516 5.883-9.604 11.695-15.122 17.213-5.769 5.77-11.559 10.795-17.211 15.125 0 0-.001 0-.001-.001v.002 36.112.004c.001 0 .002-.002.003-.002 16.196 9.426 32.074 14.719 45.486 14.719 11.117 0 20.57-3.577 27.338-10.346 6.871-6.871 16.638-23.004 4.852-53.854-2.374-6.213-5.482-12.581-9.208-18.972zm-30.047-38.426c-3.602-3.602-7.283-7.02-11.012-10.25 7.212-3.018 13.443-4.497 18.076-4.497 2.903 0 5.136.568 6.126 1.559 1.868 1.868 2.887 9.25-1.959 21.935-.292.766-.612 1.541-.937 2.318-3.256-3.76-6.688-7.46-10.294-11.065zm13.19 90.039c-.991.99-3.224 1.559-6.126 1.559-4.633 0-10.863-1.479-18.075-4.496 3.729-3.23 7.409-6.649 11.011-10.25 3.605-3.605 7.038-7.305 10.294-11.064.325.777.644 1.552.936 2.317 4.846 12.684 3.827 20.067 1.96 21.934z" fill="#cbf0ff"/></g></svg>