<svg id="Capa_1" enable-background="new 0 0 512 512" height="512" viewBox="0 0 512 512" width="512" xmlns="http://www.w3.org/2000/svg"><g><path d="m466.998 205.99h-155.998c-24.574 0-45.735 14.857-55 36.057-9.265-21.199-30.426-36.057-55-36.057h-155.998c-8.285 0-15 6.717-15 15v216.006c0 8.285 6.715 15 15 15h165.998c16.542 0 30 13.461 30 30.002h30c0-16.541 13.458-30.002 30-30.002h165.998c8.285 0 15-6.715 15-15v-216.006c0-8.283-6.715-15-15-15z" fill="#e6ffff"/><path d="m466.998 205.99h-155.998c-24.574 0-45.735 14.857-55 36.057v239.951h15c0-16.541 13.458-30.002 30-30.002h165.998c8.285 0 15-6.715 15-15v-216.006c0-8.283-6.715-15-15-15z" fill="#cbf0ff"/><path d="m301 436.997c-17.908 0-33.997 7.896-45 20.378-11.003-12.482-27.093-20.378-45-20.378l-180.998-.001v45.006c0 8.283 6.715 15 15 15h421.997c8.285 0 15-6.717 15-15v-45.006z" fill="#cbf0ff"/><g fill="#b1e1ff"><path d="m301 436.997c-17.908 0-33.997 7.896-45 20.378v39.627h210.998c8.285 0 15-6.717 15-15v-45.006z"/><path d="m406.996 313.992h-90.993c-8.284 0-15-6.717-15-15 0-8.285 6.716-15 15-15h90.993c8.283 0 15 6.715 15 15 0 8.283-6.716 15-15 15z"/><path d="m406.996 373.996h-90.993c-8.284 0-15-6.717-15-15 0-8.285 6.716-15 15-15h90.993c8.283 0 15 6.715 15 15 0 8.283-6.716 15-15 15z"/></g><path d="m195.997 313.992h-90.993c-8.284 0-15-6.717-15-15 0-8.285 6.716-15 15-15h90.993c8.284 0 15 6.715 15 15 0 8.283-6.715 15-15 15z" fill="#cbf0ff"/><path d="m195.997 373.996h-90.993c-8.284 0-15-6.717-15-15 0-8.285 6.716-15 15-15h90.993c8.284 0 15 6.715 15 15 0 8.283-6.715 15-15 15z" fill="#cbf0ff"/><path d="m481.998 497c0 8.25-6.75 15-15 15h-421.996c-8.25 0-15-6.75-15-15 0-8.25 0-15 0-15h451.997c-.001 0-.001 6.75-.001 15z" fill="#ff9b8b"/><path d="m256 482v30h210.998c8.25 0 15-6.75 15-15s0-15 0-15z" fill="#dc7571"/><circle cx="256" cy="162.995" fill="#ff9b8b" r="162.995"/><path d="m256 0v325.99c89.875 0 162.994-73.12 162.994-162.996 0-89.875-73.119-162.994-162.994-162.994z" fill="#dc7571"/><path d="m256 147.998c-27.47 0-45 32.575-45 55.001 0 13.171 5.919 23.617 16.665 29.414 7.063 3.811 16.067 5.585 28.335 5.585 12.269 0 21.272-1.774 28.335-5.585 10.747-5.797 16.665-16.243 16.665-29.414 0-22.426-17.53-55.001-45-55.001z" fill="#ffeb93"/><path d="m256 147.998v90c12.269 0 21.272-1.774 28.335-5.585 10.747-5.797 16.665-16.243 16.665-29.414 0-22.426-17.53-55.001-45-55.001z" fill="#ffc072"/><circle cx="196.06" cy="131.89" fill="#ffeb93" r="15"/><circle cx="315.94" cy="131.89" fill="#ffc072" r="15"/><circle cx="256" cy="102.99" fill="#ffeb93" r="15"/><path d="m256 87.99v30c8.284 0 15-6.716 15-15s-6.716-15-15-15z" fill="#ffc072"/></g></svg>