<svg id="Capa_1" enable-background="new 0 0 512 512" height="512" viewBox="0 0 512 512" width="512" xmlns="http://www.w3.org/2000/svg"><g><path d="m331.462 410.671c0-7.63 7.934-16.177 10.645-18.512l-272.565-16.487c-24.813 0-34.999 10.185-34.999 34.999s10.186 34.999 34.999 34.999l272.633-16.43c-2.779-2.392-10.713-10.939-10.713-18.569z" fill="#e6ffff"/><path d="m342.106 392.159-182.654-11.049v59.142l182.723-11.012c-2.779-2.393-10.713-10.939-10.713-18.569s7.934-16.177 10.644-18.512z" fill="#cbf0ff"/><path d="m354.942 60.816c0-8.284-6.716-15-15-15h-270.4c-24.813 0-45 20.187-45 45v319.854c0 24.814 20.187 45 45 45h262.92c8.284 0 15-6.716 15-15s-6.716-15-15-15h-262.92c-8.271 0-15-6.728-15-15 0-8.271 6.729-15 15-15h270.4c8.284 0 15-6.716 15-15 0-.001 0-.001 0-.001z" fill="#78b4ff"/><path d="m339.942 45.816h-180.49v349.854h180.49c8.284 0 15-6.716 15-15 0-.001 0-.001 0-.001v-319.853c0-8.284-6.715-15-15-15z" fill="#6299f7"/><path d="m332.462 425.671h-173.01v30h173.01c8.284 0 15-6.716 15-15s-6.716-15-15-15z" fill="#6299f7"/><path d="m159.452 170.66c11.527 0 22.038 4.34 30 11.468v-152.128c0-16.568-13.432-30-30-30s-30 13.432-30 30v152.127c7.962-7.127 18.472-11.467 30-11.467z" fill="#ffeb93"/><path d="m159.452 0v170.66c11.527 0 22.038 4.34 30 11.468v-152.128c0-16.568-13.432-30-30-30z" fill="#ffc072"/><path d="m159.452 155.66c-33.084 0-60 26.916-60 60 0 28.861 17.133 42.973 29.643 53.275 11.146 9.181 15.357 13.433 15.357 21.727 0 5.566 3.083 10.676 8.008 13.27 2.196 1.157 4.597 1.73 6.991 1.73 2.975 0 5.938-.884 8.482-2.628 21.006-14.4 51.519-55.598 51.519-87.374 0-33.084-26.916-60-60-60z" fill="#5e638b"/><path d="m159.452 155.66v150.002c2.975 0 5.938-.884 8.481-2.628 21.006-14.4 51.519-55.598 51.519-87.374 0-33.084-26.916-60-60-60z" fill="#4f5480"/><path d="m324.458 186c-41.355 0-75 33.645-75 75v27.992c0 24.613 19.861 44.676 44.399 44.996.199.008.399.012.601.012h12.069c8.271 0 15 6.728 15 15s-6.729 15-15 15h-12.185c-24.75.063-44.885 20.249-44.885 44.998v28.002c0 41.355 33.645 75 75 75 89.879 0 163-73.121 163-163s-73.12-163-162.999-163z" fill="#ffc072"/><circle cx="324.46" cy="258.83" fill="#dc7571" r="15"/><circle cx="383.79" cy="284.166" fill="#cbf0ff" r="15"/><circle cx="412.46" cy="346.83" fill="#dc7571" r="15"/><circle cx="383.79" cy="411.5" fill="#cbf0ff" r="15"/><circle cx="324.46" cy="434.83" fill="#dc7571" r="15"/></g></svg>