<svg id="Capa_1" enable-background="new 0 0 511.998 511.998" height="512" viewBox="0 0 511.998 511.998" width="512" xmlns="http://www.w3.org/2000/svg"><g><path d="m495.998 437.836c0-7.629 7.934-16.177 10.644-18.511l-431.639-16.488c-24.813 0-34.999 10.185-34.999 34.999s10.186 34.999 34.999 34.999l431.708-16.43c-2.779-2.392-10.713-10.939-10.713-18.569z" fill="#e6ffff"/><path d="m506.642 419.325-235.62-9.001v55.051l235.689-8.97c-2.779-2.393-10.713-10.939-10.713-18.569 0-7.629 7.934-16.177 10.644-18.511z" fill="#cbf0ff"/><path d="m75.003 422.836h421.995c8.284 0 15-6.716 15-15v-363.674c0-8.284-6.716-15-15-15h-421.995c-24.813 0-45 20.186-45 45v363.674c0 24.814 20.187 45 45 45h421.995c8.284 0 15-6.716 15-15s-6.716-15-15-15h-421.995c-8.271 0-15-6.729-15-15 0-8.272 6.728-15 15-15z" fill="#5e638b"/><path d="m496.998 29.162h-225.976v393.674h225.976c8.284 0 15-6.716 15-15v-363.674c0-8.284-6.716-15-15-15z" fill="#4f5480"/><path d="m496.998 452.836h-225.976v30h225.976c8.284 0 15-6.716 15-15s-6.716-15-15-15z" fill="#4f5480"/><g fill="#e6ffff"><path d="m60.005 158.49h-45.005c-8.284 0-15-6.716-15-15s6.716-15 15-15h45.005c8.284 0 15 6.716 15 15s-6.716 15-15 15z"/><path d="m60.005 248.5h-45.005c-8.284 0-15-6.716-15-15s6.716-15 15-15h45.005c8.284 0 15 6.716 15 15s-6.716 15-15 15z"/><path d="m60.005 338.508h-45.005c-8.284 0-15-6.716-15-15s6.716-15 15-15h45.005c8.284 0 15 6.716 15 15s-6.716 15-15 15z"/></g><path d="m321.666 89.168h-101.331c-38.967 0-70.668 31.7-70.668 70.666 0 55.849 41.368 100.881 43.296 102.988 2.842 3.107 10.79 15 15 15h126.075c4.21 0 12.158-11.893 15-15 1.928-2.107 43.295-47.14 43.295-102.988 0-38.966-31.701-70.666-70.667-70.666z" fill="#cbf0ff"/><path d="m321.666 89.168h-50.644v188.654h63.017c4.21 0 12.158-11.893 15-15 1.928-2.107 43.295-47.14 43.295-102.988-.001-38.966-31.702-70.666-70.668-70.666z" fill="#b1e1ff"/><path d="m302.018 281.825c-.975 0-1.964-.096-2.957-.294-8.124-1.625-13.392-9.527-11.768-17.65l10.001-50.006c1.625-8.123 9.523-13.392 17.65-11.768 8.124 1.625 13.392 9.527 11.768 17.65l-10.001 50.006c-1.427 7.132-7.689 12.062-14.693 12.062z" fill="#6299f7"/><path d="m240.981 281.825c-7.003 0-13.266-4.931-14.692-12.061l-10.001-50.006c-1.624-8.123 3.643-16.025 11.768-17.65 8.123-1.623 16.025 3.645 17.65 11.768l10.001 50.006c1.624 8.123-3.643 16.025-11.768 17.65-.993.197-1.982.293-2.958.293z" fill="#78b4ff"/><path d="m192.963 262.822v85.008c0 8.284 6.716 15 15 15h126.075c8.284 0 15-6.716 15-15v-85.008z" fill="#e6ffff"/><path d="m271.022 262.822v100.008h63.017c8.284 0 15-6.716 15-15v-85.008z" fill="#cbf0ff"/></g></svg>