<svg id="Capa_1" enable-background="new 0 0 511.999 511.999" height="512" viewBox="0 0 511.999 511.999" width="512" xmlns="http://www.w3.org/2000/svg"><g><path d="m330.999.001h-67.499l-2.501 47.998 10.001 42.002h59.999c8.284 0 15-6.716 15-15v-60c0-8.285-6.716-15-15-15z" fill="#dc7571"/><path d="m255.999 7.398v144.567c8.284 0 15-6.715 15-15v-129.567c0-4.086-3.312-7.399-7.398-7.398-.067 0-.133 0-.201 0-4.085.001-7.401 3.313-7.401 7.398z" fill="#cbf0ff"/><path d="m255.999 121.965c-24.813 0-45 20.187-45 45v30.001c0 8.284 6.716 15 15 15h60c8.284 0 15-6.716 15-15v-30.001c0-24.813-20.187-45-45-45z" fill="#cbf0ff"/><path d="m255.999 121.965v90.001h30c8.284 0 15-6.716 15-15v-30.001c0-24.813-20.187-45-45-45z" fill="#b1e1ff"/><path d="m466.002 271.485h-420.006c-8.284 0-15 6.716-15 15v90.503c0 8.284 6.716 15 15 15h420.006c8.284 0 15-6.716 15-15v-90.503c0-8.284-6.716-15-15-15z" fill="#e6ffff"/><path d="m466.002 271.485h-210.003v120.503h210.003c8.284 0 15-6.716 15-15v-90.503c0-8.284-6.716-15-15-15z" fill="#cbf0ff"/><path d="m165.999 271.485h180v120.503h-180z" fill="#cbf0ff"/><path d="m255.999 271.485h90v120.503h-90z" fill="#b1e1ff"/><path d="m98.498 391.988c-8.284 0-15-6.716-15-15v-90.503c0-8.284 6.716-15 15-15s15 6.716 15 15v90.503c0 8.284-6.716 15-15 15z" fill="#b1e1ff"/><path d="m165.999 391.988c-8.284 0-15-6.716-15-15v-90.503c0-8.284 6.716-15 15-15s15 6.716 15 15v90.503c0 8.284-6.716 15-15 15z" fill="#5e638b"/><path d="m345.999 391.988c-8.284 0-15-6.716-15-15v-90.503c0-8.284 6.716-15 15-15s15 6.716 15 15v90.503c0 8.284-6.716 15-15 15z" fill="#4f5480"/><path d="m225.999 391.988c-8.284 0-15-6.716-15-15v-90.503c0-8.284 6.716-15 15-15s15 6.716 15 15v90.503c0 8.284-6.716 15-15 15z" fill="#5e638b"/><path d="m285.999 391.988c-8.284 0-15-6.716-15-15v-90.503c0-8.284 6.716-15 15-15s15 6.716 15 15v90.503c0 8.284-6.716 15-15 15z" fill="#4f5480"/><path d="m413.5 391.988c-8.284 0-15-6.716-15-15v-90.503c0-8.284 6.716-15 15-15s15 6.716 15 15v90.503c0 8.284-6.716 15-15 15z" fill="#96d2ff"/><path d="m466.003 181.966-10.072-.001c-6.191-17.461-22.874-30-42.43-30s-36.239 12.539-42.43 30.001h-25.072c-8.284 0-15 6.716-15 15v79.518l15 10.001h52.501l15.998-10.001 14.002 10.001h52.502v-89.519c0-8.284-6.715-15-14.999-15z" fill="#b1e1ff"/><path d="m166 181.966-25.072-.001c-6.191-17.461-22.873-30-42.43-30-19.556 0-36.239 12.539-42.43 30.001h-10.072c-8.284 0-15 6.716-15 15v89.519h52.501l15-10.001 15 10.001h52.501l15.001-10.001v-79.518c0-8.284-6.715-15-14.999-15z" fill="#cbf0ff"/><path d="m345.999 181.966h-180l.001 104.519h74.999l14.667-10.001 15.333 10.001h75z" fill="#e6ffff"/><path d="m255.999 181.966v94.736l15 9.783h75v-104.519z" fill="#cbf0ff"/><path d="m98.497 241.482c-8.284 0-15 6.716-15 15v30.003h30v-30.003c0-8.284-6.716-15-15-15z" fill="#5e638b"/><path d="m413.501 241.482c-8.284 0-15 6.716-15 15v30.003h30v-30.003c0-8.284-6.716-15-15-15z" fill="#4f5480"/><path d="m255.999 241.482c-8.284 0-15 6.716-15 15v30.003h30v-30.003c0-8.284-6.716-15-15-15z" fill="#5e638b"/><path d="m255.999 241.482v45.003h15v-30.003c0-8.284-6.716-15-15-15z" fill="#4f5480"/><path d="m165.999 376.989-135.003-.001v120.011c0 8.284 6.716 15 15 15h37.501l15.001-10 14.999 10h52.502c8.284 0 15-6.716 15-15v-105.01c0-8.284-6.716-15-15-15z" fill="#cbf0ff"/><path d="m345.999 376.989c-8.284 0-15 6.716-15 15v105.01c0 8.284 6.716 15 15 15h52.501l14.998-10 15.002 10h37.501c8.284 0 15-6.716 15-15v-120.011z" fill="#b1e1ff"/><path d="m98.497 466.995c-8.284 0-15 6.716-15 15v30.004h30v-30.004c0-8.285-6.716-15-15-15z" fill="#5e638b"/><path d="m413.5 466.995c-8.284 0-15 6.716-15 15v30.004h30v-30.004c0-8.285-6.716-15-15-15z" fill="#4f5480"/><path d="m165.999 376.988h180v105.013h-180z" fill="#e6ffff"/><path d="m255.999 376.988h90v105.013h-90z" fill="#cbf0ff"/><path d="m315.999 452.001c-16.568 0-30 13.432-30 30l-10.001 19.998 10 10h60.001v-29.998c0-16.569-13.431-30-30-30z" fill="#404576"/><path d="m195.999 452.001c-16.568 0-30 13.432-30 30v29.998h60l10-10-10-19.998c0-16.569-13.431-30-30-30z" fill="#4f5480"/><path d="m255.999 452.001c-16.568 0-30 13.432-30 30v29.998h60v-29.998c0-16.569-13.431-30-30-30z" fill="#5e638b"/><path d="m255.999 452.001v59.998h30v-29.998c0-16.569-13.431-30-30-30z" fill="#4f5480"/></g></svg>