<svg id="Capa_1" enable-background="new 0 0 511.998 511.998" height="512" viewBox="0 0 511.998 511.998" width="512" xmlns="http://www.w3.org/2000/svg"><path d="m255.999 50.001c-8.284 0-15-6.716-15-15v-20.001c0-8.284 6.716-15 15-15s15 6.716 15 15v20.001c0 8.284-6.716 15-15 15z" fill="#e6ffff"/><path d="m255.999 0v50.001c8.284 0 15-6.716 15-15v-20.001c0-8.284-6.716-15-15-15z" fill="#cbf0ff"/><path d="m285.999 79.998-30-10.002-30 10.002c-33.35 8.827-65.095 40.008-73.081 71.995l8.081 15.007-10.001 15v45.006c0 8.285 6.716 15 15 15h180c8.284 0 15-6.715 15-15v-45.006l-10-15 8.083-15.002c-7.984-31.989-39.73-63.173-73.082-72z" fill="#e6ffff"/><path d="m350.999 167 8.083-15.002c-7.984-31.989-39.731-63.173-73.083-72l-30-10.002v172.01h90c8.284 0 15-6.715 15-15v-45.006z" fill="#cbf0ff"/><path d="m150.999 167v15h210v-15c0-4.965-.688-9.992-1.938-15h-206.125c-1.249 5.008-1.937 10.035-1.937 15z" fill="#cbf0ff"/><path d="m359.061 152h-103.062v30h105v-15c0-4.965-.688-9.992-1.938-15z" fill="#b1e1ff"/><path d="m225.999 79.998v-19.997c0-16.542 13.458-30 30-30s30 13.458 30 30v19.997z" fill="#cbf0ff"/><path d="m255.999 30.001v49.997h30v-19.997c0-16.542-13.458-30-30-30z" fill="#b1e1ff"/><path d="m195.996 212.006h-90c-8.284 0-15 6.716-15 15v52.497l10 15.995-10 14.006v52.497c0 8.284 6.716 15 15 15h90c8.284 0 15-6.716 15-15v-134.995c0-8.284-6.716-15-15-15z" fill="#b1e1ff"/><path d="m406.002 212.006h-90c-8.284 0-15 6.716-15 15v134.995c0 8.284 6.716 15 15 15h90c8.284 0 15-6.716 15-15v-52.497l-10-15.172 10-14.828v-52.498c0-8.284-6.716-15-15-15z" fill="#96d2ff"/><path d="m391.006 279.504c-8.284 0-15 6.716-15 15s6.716 15 15 15h29.996v-30z" fill="#4f5480"/><path d="m120.992 279.504h-29.996v30h29.996c8.284 0 15-6.716 15-15s-6.716-15-15-15z" fill="#5e638b"/><path d="m195.996 212.006h120.006v164.995h-120.006z" fill="#cbf0ff"/><path d="m255.999 212.006h60.003v164.995h-60.003z" fill="#b1e1ff"/><path d="m255.999 316.995c-8.284 0-15-6.716-15-15v-14.983c0-8.284 6.716-15 15-15s15 6.716 15 15v14.983c0 8.284-6.716 15-15 15z" fill="#5e638b"/><path d="m255.999 272.012v44.983c8.284 0 15-6.716 15-15v-14.983c0-8.284-6.716-15-15-15z" fill="#4f5480"/><path d="m180.997 362.002-90-.001v134.995c0 8.25 6.75 15 15 15h75c8.284 0 15-6.717 15-15v-119.994c0-8.284-6.716-15-15-15z" fill="#cbf0ff"/><g><path d="m331.002 362.002c-8.284 0-15 6.716-15 15v119.994c0 8.283 6.716 15 15 15h75c8.25 0 15-6.75 15-15v-134.995z" fill="#b1e1ff"/></g><path d="m406.002 467.005c0-16.568-13.432-30-30-30s-30 13.432-30 30v44.991h60z" fill="#4f5480"/><path d="m165.996 467.005c0-16.568-13.432-30-30-30s-30 13.432-30 30v44.991h60z" fill="#5e638b"/><path d="m180.997 362.002h150.003v149.994h-150.003z" fill="#e6ffff"/><path d="m255.999 362.002h75.002v149.994h-75.002z" fill="#cbf0ff"/><path d="m285.999 467.005c0-16.568-13.432-30-30-30s-30 13.432-30 30v44.991h29.884c.039 0 .077.002.116.002s.077-.002.116-.002h29.884z" fill="#5e638b"/><path d="m255.999 437.005v74.993c.039 0 .077-.002.116-.002h29.884v-44.991c0-16.569-13.432-30-30-30z" fill="#4f5480"/></svg>