<svg id="Capa_1" enable-background="new 0 0 511.999 511.999" height="512" viewBox="0 0 511.999 511.999" width="512" xmlns="http://www.w3.org/2000/svg"><g><path d="m496.999 391.987h-406.997c-8.285 0-15 6.716-15 15v90.012c0 8.284 6.715 15 15 15h75.991l17.675-10 12.325 10h30.003l15.672-10 14.328 10h30.004l15.334-10 14.666 10h30.006l18.994-10 11.006 10h30.006l15.488-10 14.512 10h60.987c8.284 0 15-6.716 15-15v-90.012c0-8.284-6.716-15-15-15z" fill="#cbf0ff"/><path d="m496.999 391.987h-195.999v110.228l.334-.217 14.666 10h30.006l18.994-10 11.006 10h30.006l15.488-10 14.512 10h60.987c8.284 0 15-6.716 15-15v-90.012c0-8.283-6.716-14.999-15-14.999z" fill="#b1e1ff"/><path d="m301 211.986c-8.284 0-15-6.716-15-15v-20.002c0-8.284 6.716-15 15-15s15 6.716 15 15v20.002c0 8.284-6.716 15-15 15z" fill="#cbf0ff"/><path d="m301 161.984v50.002c8.284 0 15-6.716 15-15v-20.002c0-8.284-6.716-15-15-15z" fill="#b1e1ff"/><path d="m301 181.986c-24.814 0-45 20.187-45 45v31.011c0 8.284 6.716 15 15 15h60c8.284 0 15-6.716 15-15v-31.011c0-24.813-20.186-45-45-45z" fill="#e6ffff"/><path d="m301 181.986v91.011h30c8.284 0 15-6.716 15-15v-31.011c0-24.813-20.186-45-45-45z" fill="#cbf0ff"/><path d="m507.605 307.399-60.005-60.005c-2.813-2.814-6.628-4.394-10.606-4.394h-271.989c-3.979 0-7.794 1.58-10.607 4.394l-60.003 60.005c-4.289 4.29-5.573 10.741-3.251 16.347 2.321 5.605 7.791 9.26 13.858 9.26h391.997c6.067 0 11.536-3.654 13.858-9.26s1.039-12.057-3.252-16.347z" fill="#5e638b"/><path d="m507.605 307.399-60.005-60.005c-2.813-2.814-6.628-4.394-10.606-4.394h-135.994v90.005h195.999c6.067 0 11.536-3.654 13.858-9.26 2.322-5.605 1.039-12.056-3.252-16.346z" fill="#4f5480"/><path d="m75.002 318.005v88.982h90.99l14.008-10.001 15.991 10.001h30.004l16.004-10.001 13.996 10.001h30.005l13-10.001 17 10.001h30.006l14.494-10.001 15.506 10.001h30.006l13.488-10.001 16.512 10.001h75.987v-88.982z" fill="#e6ffff"/><path d="m301 318.005v80.158l15 8.824h30.006l14.494-10.001 15.506 10.001h30.006l13.488-10.001 16.512 10.001h75.987v-88.982z" fill="#cbf0ff"/><path d="m240.995 466.996c-8.284 0-15 6.716-15 15v30.003h30v-30.003c0-8.284-6.716-15-15-15z" fill="#5e638b"/><path d="m180.992 466.996c-8.284 0-15 6.716-15 15v30.003h30v-30.003c0-8.284-6.716-15-15-15z" fill="#5e638b"/><path d="m361.006 466.996c-8.284 0-15 6.716-15 15v30.003h30v-30.003c0-8.284-6.716-15-15-15z" fill="#4f5480"/><path d="m421.012 466.996c-8.284 0-15 6.716-15 15v30.003h30v-30.003c0-8.284-6.716-15-15-15z" fill="#4f5480"/><path d="m301 466.996c-8.284 0-15 6.716-15 15v30.003h30v-30.003c0-8.284-6.716-15-15-15z" fill="#5e638b"/><path d="m301 466.996v45.003h15v-30.003c0-8.284-6.716-15-15-15z" fill="#4f5480"/><path d="m301 361.982c-8.284 0-15 6.716-15 15v30.003h30v-30.003c0-8.284-6.716-15-15-15z" fill="#5e638b"/><path d="m301 361.982v45.003h15v-30.003c0-8.284-6.716-15-15-15z" fill="#4f5480"/><path d="m240.995 361.982c-8.284 0-15 6.716-15 15v30.003h30v-30.003c0-8.284-6.716-15-15-15z" fill="#5e638b"/><path d="m180.992 361.982c-8.284 0-15 6.716-15 15v30.003h30v-30.003c0-8.284-6.716-15-15-15z" fill="#5e638b"/><path d="m361.006 361.982c-8.284 0-15 6.716-15 15v30.003h30v-30.003c0-8.284-6.716-15-15-15z" fill="#4f5480"/><path d="m421.012 361.982c-8.284 0-15 6.716-15 15v30.003h30v-30.003c0-8.284-6.716-15-15-15z" fill="#4f5480"/><path d="m87.002 96.01-27.002-41.006v-40.003c0-8.284-6.715-15-15-15-8.284 0-15 6.716-15 15v40.003l-27 41.006c-1.947 2.596-3 5.754-3 8.999v40.003c0 8.284 6.716 15 15 15h60.001c8.284 0 15-6.716 15-15v-40.003c0-3.245-1.053-6.403-2.999-8.999z" fill="#5e638b"/><path d="m75.001 200.019h-60.001c-8.284 0-15 6.716-15 15v281.979c0 8.284 6.716 15 15 15h75.001v-296.979c0-8.284-6.716-15-15-15z" fill="#b1e1ff"/><path d="m0 145.012h90.001v70.007h-90.001z" fill="#e6ffff"/></g></svg>