<svg id="Capa_1" enable-background="new 0 0 511.998 511.998" height="512" viewBox="0 0 511.998 511.998" width="512" xmlns="http://www.w3.org/2000/svg"><g><path d="m443.506 170.008h-375.014c-8.284 0-15 6.716-15 15v226.988c0 8.284 6.716 15 15 15h375.014c8.284 0 15-6.716 15-15v-226.988c0-8.284-6.716-15-15-15z" fill="#cbf0ff"/><path d="m443.506 170.008h-187.507v256.988h187.507c8.284 0 15-6.716 15-15v-226.988c0-8.284-6.716-15-15-15z" fill="#b1e1ff"/><path d="m368.499 177.509h-225c-8.284 0-15 6.716-15 15v120.269l10.001 99.219c0 8.284 6.716 15 15 15h204.998c8.284 0 15-6.716 15-15l10.001-99.219v-120.269c0-8.284-6.716-15-15-15z" fill="#5e638b"/><g fill="#4f5480"><path d="m368.499 177.509h-112.5v249.487h102.499c8.284 0 15-6.716 15-15l10.001-99.219v-120.268c0-8.284-6.716-15-15-15z"/><path d="m160.999 280.278c-17.949 0-32.5 14.551-32.5 32.5v109.218h75.001s-10.001-102.411-10.001-109.218c0-17.949-14.551-32.5-32.5-32.5z"/><path d="m256.009 280.278c-17.949 0-32.5 14.551-32.5 32.5 0 6.807-10.001 109.218-10.001 109.218h85.002s-10.001-102.411-10.001-109.218c0-17.949-14.551-32.5-32.5-32.5z"/></g><path d="m351.018 280.278c-17.949 0-32.5 14.551-32.5 32.5 0 6.807-10.001 109.218-10.001 109.218h75.001s0-102.411 0-109.218c0-17.949-14.55-32.5-32.5-32.5z" fill="#404576"/><path d="m255.999 421.996h42.511s-10.001-102.411-10.001-109.218c0-17.949-14.551-32.5-32.5-32.5-.004 0-.006 0-.01 0z" fill="#404576"/><path d="m443.827 85.793-182.469-69.803c-3.451-1.32-7.268-1.32-10.719 0l-182.993 70.004c-6.756 2.584-10.705 9.622-9.391 16.734 1.313 7.113 7.517 12.275 14.75 12.275h365.988.021c8.284 0 15-6.716 15-15 0-6.6-4.264-12.204-10.187-14.21z" fill="#cbf0ff"/><path d="m443.827 85.793-182.469-69.803c-1.726-.66-3.543-.99-5.359-.99v100.004h182.994.021c8.284 0 15-6.716 15-15 0-6.601-4.264-12.205-10.187-14.211z" fill="#b1e1ff"/><path d="m208.499 426.995c-8.285 0-15-6.716-15-15v-226.987c0-8.284 6.715-15 15-15 8.284 0 15 6.716 15 15v226.987c0 8.284-6.716 15-15 15z" fill="#cbf0ff"/><path d="m303.499 426.995c-8.284 0-15-6.716-15-15v-226.987c0-8.284 6.716-15 15-15s15 6.716 15 15v226.987c0 8.284-6.716 15-15 15z" fill="#b1e1ff"/><path d="m476.996 85.004h-441.994c-8.284 0-15 6.716-15 15v52.666c0 4.069 1.653 7.964 4.581 10.791l28.988 27.836 44.928-.001 13.144-10.001 16.874 10.001 64.982-.002 14.501-10.002 15.499 10.001 65-.002 13.833-10 16.163 10 65.004-.002 12.842-10.001 17.158 9.999 44.94-.001 29.004-28.015c2.911-2.825 4.554-6.708 4.554-10.765v-52.503c-.001-8.283-6.717-14.999-15.001-14.999z" fill="#e6ffff"/><path d="m496.998 439.496h-13.002v-12.501c0-8.284-6.716-15-15-15h-425.994c-8.284 0-15 6.716-15 15v12.501h-13.002c-8.284 0-15 6.716-15 15v27.502c0 8.284 6.716 15 15 15h481.998c8.284 0 15-6.716 15-15v-27.502c0-8.284-6.716-15-15-15z" fill="#e6ffff"/><path d="m496.998 439.496h-13.002v-12.501c0-8.284-6.716-15-15-15h-212.997v85.003h240.999c8.284 0 15-6.716 15-15v-27.502c0-8.284-6.716-15-15-15z" fill="#cbf0ff"/><path d="m476.996 85.004h-220.997v106.288l32.5-.001 13.833-10 16.163 10 65.004-.002 12.842-10.001 17.158 9.999 44.94-.001 29.004-28.015c2.911-2.825 4.554-6.708 4.554-10.765v-52.503c-.001-8.283-6.717-14.999-15.001-14.999z" fill="#cbf0ff"/><path d="m113.499 151.301c-8.284 0-15 6.716-15 15v24.996h30v-24.996c0-8.284-6.716-15-15-15z" fill="#5e638b"/><path d="m208.499 151.301c-8.284 0-15 6.716-15 15v24.996h30v-24.996c0-8.284-6.716-15-15-15z" fill="#5e638b"/><path d="m303.499 151.301c-8.284 0-15 6.716-15 15v24.996h30v-24.996c0-8.284-6.716-15-15-15z" fill="#4f5480"/><path d="m398.499 151.301c-8.284 0-15 6.716-15 15v24.996h30v-24.996c0-8.284-6.716-15-15-15z" fill="#4f5480"/></g></svg>