<svg id="Capa_1" enable-background="new 0 0 511.998 511.998" height="512" viewBox="0 0 511.998 511.998" width="512" xmlns="http://www.w3.org/2000/svg"><g><path d="m255.999 242c-8.284 0-15-6.717-15-15v-30.005c0-8.284 6.716-15 15-15 8.283 0 15 6.716 15 15v30.005c0 8.283-6.717 15-15 15z" fill="#cbf0ff"/><path d="m255.999 181.995v60.005c8.283 0 15-6.717 15-15v-30.005c0-8.284-6.717-15-15-15z" fill="#b1e1ff"/><path d="m322.706 243.585-59.998-30.001c-4.225-2.112-9.193-2.112-13.418 0l-59.998 30.001c-5.081 2.541-8.291 7.734-8.291 13.416v239.997c0 8.284 6.715 15 15 15h45.002l14.996-10 15 10h44.998c8.284 0 15-6.716 15-15v-239.997c0-5.682-3.21-10.875-8.291-13.416z" fill="#e6ffff"/><path d="m322.706 243.585-59.998-30.001c-2.112-1.057-4.41-1.584-6.709-1.584v289.998l15 10h44.998c8.284 0 15-6.716 15-15v-239.997c0-5.682-3.21-10.875-8.291-13.416z" fill="#cbf0ff"/><g fill="#4f5480"><path d="m255.999 301.978c-8.284 0-15 6.716-15 15v30.003h30v-30.003c0-8.284-6.717-15-15-15z"/><path d="m255.999 301.978v45.003h15v-30.003c0-8.284-6.717-15-15-15z"/><path d="m255.999 451.993c-8.284 0-15 6.716-15 15v45.005h30v-45.005c0-8.284-6.717-15-15-15z"/><path d="m255.999 451.993v60.005h15v-45.005c0-8.284-6.717-15-15-15z"/><circle cx="255.999" cy="406.988" r="15"/><path d="m255.999 391.988v30c8.283 0 15-6.716 15-15s-6.717-15-15-15z"/></g><path d="m183.666 331.981h144.666v30h-144.666z" fill="#cbf0ff"/><path d="m255.999 331.981h72.333v30h-72.333z" fill="#b1e1ff"/><path d="m146.003 20.001h-5.002v-5.001c0-8.284-6.716-15-15-15-8.285 0-15 6.716-15 15v5.001h-5.002c-8.284 0-15 6.716-15 15s6.716 15 15 15h5.002v25.988c0 8.284 6.715 15 15 15 8.284 0 15-6.716 15-15v-25.988h5.002c8.284 0 15-6.716 15-15s-6.716-15-15-15z" fill="#e6ffff"/><path d="m83.582 125.989c-1.713-4.827-2.581-9.874-2.581-15.001 0-24.813 20.187-45 45-45s45 20.187 45 45c0 5.127-.869 10.174-2.581 15.001z" fill="#4f5480"/><path d="m175.999 120.99h-99.996c-8.284 0-15 6.717-15 15v361.008c0 8.284 6.716 15 15 15h34.991l15.331-10 14.674 10h50v-150.017l-10.001-16.981 10.001-13.018v-90.014l-10.001-14.968 10.001-15.032v-75.978c0-8.283-6.717-15-15-15z" fill="#cbf0ff"/><path d="m126.003 451.993c-8.284 0-15 6.716-15 15v45.005h30v-45.005c0-8.284-6.716-15-15-15z" fill="#4f5480"/><path d="m126.003 181.995c-8.284 0-15 6.716-15 15v30.005h30v-30.005c0-8.284-6.716-15-15-15z" fill="#4f5480"/><path d="m56.001 211.97c-8.285 0-15 6.716-15 15s6.715 15 15 15h134.998v-30z" fill="#e6ffff"/><circle cx="126" cy="406.988" fill="#4f5480" r="15"/><circle cx="126" cy="286.978" fill="#4f5480" r="15"/><path d="m56.001 331.981c-8.285 0-15 6.716-15 15s6.715 15 15 15h134.998v-30z" fill="#e6ffff"/><path d="m405.999 20.001h-5.002v-5.001c0-8.284-6.716-15-15-15s-15 6.716-15 15v5.001h-5.002c-8.284 0-15 6.716-15 15s6.716 15 15 15h5.002v25.988c0 8.284 6.716 15 15 15s15-6.716 15-15v-25.988h5.002c8.283 0 15-6.716 15-15s-6.717-15-15-15z" fill="#cbf0ff"/><path d="m343.578 125.989c-1.713-4.827-2.581-9.874-2.581-15.001 0-24.813 20.187-45 45-45s45 20.187 45 45c0 5.127-.868 10.174-2.581 15.001z" fill="#4f5480"/><path d="m435.995 120.99h-99.996c-8.284 0-15 6.717-15 15v75.979l10.001 13.029-10.001 16.972v90.012l10.001 15.35-10.001 14.65v150.016h50l16-10 14.001 10h34.995c8.284 0 15-6.716 15-15v-361.008c0-8.283-6.716-15-15-15z" fill="#b1e1ff"/><path d="m385.995 451.993c-8.284 0-15 6.716-15 15v45.005h30v-45.005c0-8.284-6.716-15-15-15z" fill="#4f5480"/><path d="m385.997 181.995c-8.284 0-15 6.716-15 15v30.005h30v-30.005c0-8.284-6.716-15-15-15z" fill="#4f5480"/><path d="m455.997 211.97h-134.998v30h134.998c8.284 0 15-6.716 15-15s-6.716-15-15-15z" fill="#cbf0ff"/><circle cx="385.998" cy="406.988" fill="#4f5480" r="15"/><circle cx="385.998" cy="286.978" fill="#4f5480" r="15"/><path d="m455.997 331.981h-134.998v30h134.998c8.284 0 15-6.716 15-15s-6.716-15-15-15z" fill="#cbf0ff"/></g></svg>