<svg id="Capa_1" enable-background="new 0 0 513.001 513.001" height="512" viewBox="0 0 513.001 513.001" width="512" xmlns="http://www.w3.org/2000/svg"><g><path d="m421.858 429.701c-8.284 0-15-6.716-15-15v-79.119c0-8.284 6.716-15 15-15s15 6.716 15 15v79.119c0 8.284-6.716 15-15 15z" fill="#69b169"/><path d="m421.858 140.908c-52.573 0-71.142 110.865-71.142 139.198 0 39.227 31.914 71.142 71.142 71.142s71.142-31.914 71.142-71.142c0-28.333-18.569-139.198-71.142-139.198z" fill="#87d186"/><path d="m437.788 397.559c-7.386 0-14.75 1.102-21.798 3.234-17.333-24.57-45.416-39.358-76.119-39.358-22.215 0-43.747 7.962-60.629 22.418-3.328 2.85-5.244 7.013-5.244 11.394v42.257c0 5.569 3.085 10.68 8.014 13.273l29.988 15.785v30.945c0 8.284 6.716 15 15 15h171.001c8.284 0 15-6.716 15-15v-24.735c0-41.472-33.74-75.213-75.213-75.213z" fill="#87d186"/><path d="m168.937 15.494-119.933 74.813v347.198h239.994v-347.198z" fill="#ffc57d"/><path d="m168.937 15.494v182.022l10.001 33.993-10.001 40.985v75.028l-10 41.978 10 48.005h120.061v-347.198z" fill="#ff9e66"/><path d="m258.999 182.511h-22.5c-8.284 0-15 6.716-15 15l-10 34.746 10 40.232c0 8.284 6.716 15 15 15h22.5c8.284 0 15-6.716 15-15v-74.979c0-8.284-6.716-14.999-15-14.999z" fill="#e6ffff"/><path d="m206.5 182.511h-22.499c-8.284 0-15 6.716-15 15v74.979c0 8.284 6.716 15 15 15h22.499c8.284 0 15-6.716 15-15v-74.979c0-8.285-6.716-15-15-15z" fill="#4f5480"/><path d="m101.438 182.511h-22.499c-8.284 0-15 6.716-15 15l-10 38.992 10 35.986c0 8.284 6.716 15 15 15h22.498c8.284 0 15-6.716 15-15v-74.979c.001-8.284-6.715-14.999-14.999-14.999z" fill="#ff9b8b"/><path d="m78.939 332.527h22.499c8.284 0 15 6.716 15 15l10 34.746-10 40.233c0 8.283-6.716 15-15 15h-22.499c-8.284 0-15-6.717-15-15v-74.979c0-8.284 6.716-15 15-15z" fill="#e6ffff"/><path d="m131.439 332.527h22.499c8.284 0 15 6.716 15 15v74.979c0 8.283-6.716 15-15 15h-22.499c-8.284 0-15-6.717-15-15v-74.979c0-8.284 6.715-15 15-15z" fill="#5e638b"/><path d="m236.501 332.527h22.499c8.284 0 15 6.716 15 15l10 38.992-10 35.987c0 8.283-6.716 15-15 15h-22.499c-8.284 0-15-6.717-15-15v-74.979c0-8.284 6.715-15 15-15z" fill="#4f5480"/><path d="m296.934 87.58-119.997-74.814c-4.857-3.029-11.015-3.029-15.872 0l-119.997 74.814c-4.394 2.739-7.064 7.552-7.064 12.729v352.198c0 8.283 6.716 15 15 15h239.994c8.284 0 15-6.717 15-15v-352.199c0-5.176-2.67-9.989-7.064-12.728zm-232.93 64.925h209.994v120.002h-209.994v-39.5zm104.997-129.334 104.997 65.461v33.873h-209.994v-33.873zm-104.997 399.334v-119.998h209.994v119.998z" fill="#ffeb93"/><path d="m296.934 87.58-119.997-74.814c-2.447-1.526-5.225-2.281-8-2.269v12.713l.064-.039 104.997 65.461v33.873h-105.061v30h105.061v120.002h-105.061v30h105.061v119.998h-105.061v45.002h120.061c8.284 0 15-6.717 15-15v-352.199c0-5.176-2.67-9.989-7.064-12.728z" fill="#ffc57d"/><path d="m329.988 472.507-25.99-19.602h-269.994l-26.7 20.333c-4.529 2.709-7.301 7.598-7.301 12.874v11.395c0 8.284 6.716 15 15 15h307.999c8.284 0 15-6.716 15-15v-11.727c0-5.569-3.086-10.68-8.014-13.273z" fill="#ffc57d"/><path d="m329.988 472.507-25.99-19.602h-135.061v59.603h154.064c8.284 0 15-6.716 15-15v-11.728c.001-5.569-3.085-10.68-8.013-13.273z" fill="#ff9e66"/><path d="m322.986 126.509c-2.711 0-5.453-.733-7.922-2.273l-146.063-91.065-146.063 91.064c-7.029 4.383-16.282 2.238-20.665-4.793-4.383-7.029-2.237-16.281 4.792-20.664l154-96.013c4.857-3.029 11.015-3.029 15.872 0l153.999 96.013c7.03 4.383 9.176 13.635 4.792 20.664-2.843 4.561-7.736 7.067-12.742 7.067z" fill="#ff9b8b"/><path d="m330.936 98.778-153.999-96.013c-2.447-1.526-5.225-2.282-8-2.27v32.715l.064-.04 146.063 91.064c2.469 1.54 5.211 2.273 7.922 2.273 5.006 0 9.899-2.506 12.743-7.066 4.383-7.028 2.237-16.28-4.793-20.663z" fill="#dc7571"/></g></svg>