<svg id="Capa_1" enable-background="new 0 0 511.998 511.998" height="512" viewBox="0 0 511.998 511.998" width="512" xmlns="http://www.w3.org/2000/svg"><g><path d="m67.997 296.994c-8.284 0-15-6.716-15-15v-15.002c0-40.38 11.837-79.396 34.231-112.833 4.61-6.882 13.926-8.725 20.81-4.115 6.883 4.61 8.726 13.927 4.116 20.811-19.075 28.48-29.157 61.724-29.157 96.138v15.002c0 8.283-6.715 14.999-15 14.999z" fill="#4f5480"/><path d="m444 296.994c-8.284 0-15-6.716-15-15v-15.002c0-34.414-10.083-67.657-29.157-96.138-4.61-6.884-2.768-16.2 4.116-20.811 6.883-4.609 16.2-2.767 20.81 4.115 22.395 33.438 34.231 72.454 34.231 112.834v15.002c0 8.284-6.715 15-15 15z" fill="#404576"/><path d="m90.996 266.994h-30.994c-33.085 0-60.002 26.917-60.002 60.002v91.009c0 33.086 26.917 60.003 60.002 60.003h30.994c24.813 0 45-20.187 45-45v-121.014c0-24.813-20.187-45-45-45z" fill="#5e638b"/><path d="m451.996 266.994h-30.994c-24.813 0-45 20.186-45 45v121.014c0 24.813 20.187 45 45 45h30.994c33.085 0 60.002-26.917 60.002-60.003v-91.009c0-33.085-26.917-60.002-60.002-60.002z" fill="#4f5480"/><path d="m426.634 108.35c-21.574-23.197-47.134-41.468-75.97-54.307-29.887-13.306-61.737-20.053-94.665-20.053s-64.777 6.747-94.665 20.053c-28.836 12.839-54.396 31.11-75.97 54.307-8.186 8.802-12.455 20.264-12.019 32.276.435 12.012 5.522 23.136 14.325 31.322 8.354 7.77 19.234 12.048 30.635 12.048h.006c12.461-.002 24.474-5.233 32.957-14.354 27.38-29.439 64.574-45.652 104.732-45.652s77.352 16.213 104.732 45.652c8.484 9.122 20.497 14.354 32.958 14.354 11.404 0 22.286-4.279 30.64-12.049 8.801-8.186 13.888-19.31 14.324-31.321.434-12.013-3.834-23.475-12.02-32.276z" fill="#78b4ff"/><path d="m426.634 108.35c-21.574-23.197-47.134-41.468-75.97-54.307-29.887-13.306-61.737-20.053-94.665-20.053v90c40.158 0 77.352 16.213 104.732 45.652 8.484 9.122 20.497 14.354 32.958 14.354 11.404 0 22.286-4.279 30.64-12.049 8.801-8.186 13.888-19.31 14.324-31.321.435-12.013-3.833-23.475-12.019-32.276z" fill="#6299f7"/><path d="m270.829 417.192-9.839-77.648c-.465-24.413-20.469-44.127-44.992-44.127h-34.999c-8.284 0-15 6.716-15 15v109.167c0 8.283 6.716 15 15 15h75 .02c8.284 0 15-6.717 15-15-.001-.814-.065-1.613-.19-2.392z" fill="#e6ffff"/><path d="m330.999 295.418h-35c-17.4 0-32.516 9.931-40 24.418v114.749h75c8.284 0 15-6.717 15-15v-109.167c0-8.284-6.716-15-15-15z" fill="#cbf0ff"/><path d="m345.999 434.585c0 8.25-6.75 15-15 15h-150c-8.25 0-15-6.75-15-15 0-8.25 0-15 0-15h180z" fill="#ffeb93"/><path d="m255.999 419.585v30h75c8.25 0 15-6.75 15-15s0-15 0-15z" fill="#ffc57d"/></g></svg>