<svg id="Capa_1" enable-background="new 0 0 511.998 511.998" height="512" viewBox="0 0 511.998 511.998" width="512" xmlns="http://www.w3.org/2000/svg"><g><path d="m40.993 346.208h-25.993c-8.284 0-15-6.716-15-15v-192.752c0-34.554 28.112-62.666 62.666-62.666 31.366 0 56.189 20.246 57.23 21.107 6.381 5.282 7.273 14.738 1.991 21.12-5.271 6.365-14.693 7.269-21.074 2.028-.379-.305-17.897-14.256-38.147-14.256-18.012.001-32.666 14.655-32.666 32.667v177.752h10.993c8.284 0 15 6.716 15 15s-6.716 15-15 15z" fill="#4f5480"/><path d="m496.998 346.208h-25.993c-8.284 0-15-6.716-15-15s6.716-15 15-15h10.993v-177.752c0-18.012-14.654-32.666-32.666-32.666-15.471 0-31.421 16.164-35.789 21.826-5.061 6.559-14.481 7.772-21.039 2.715-6.56-5.06-7.774-14.479-2.715-21.039 2.646-3.429 26.79-33.502 59.543-33.502 34.554 0 62.666 28.112 62.666 62.666v192.752c0 8.284-6.716 15-15 15z" fill="#404576"/><path d="m204.591 419.807c-3.839 0-7.678-1.465-10.606-4.394l-9.988-9.988c-5.858-5.857-5.858-15.355 0-21.213 5.857-5.857 15.355-5.857 21.213 0l9.988 9.988c5.858 5.857 5.858 15.355 0 21.213-2.93 2.929-6.768 4.394-10.607 4.394z" fill="#4f5480"/><path d="m307.447 419.807c-3.839 0-7.678-1.465-10.607-4.394-5.857-5.858-5.856-15.356.001-21.214l9.989-9.988c5.857-5.855 15.354-5.856 21.214.001 5.857 5.858 5.856 15.356-.001 21.214l-9.989 9.989c-2.929 2.927-6.769 4.392-10.607 4.392z" fill="#404576"/><path d="m210.996 305.46c-1.572 0-3.172-.249-4.746-.773-7.859-2.62-12.107-11.114-9.487-18.974.548-1.645 13.941-40.26 59.235-40.26 45.291 0 58.684 38.615 59.231 40.26l-28.461 9.486.059.171c-.737-2.037-7.87-19.917-30.829-19.917-23.916 0-30.709 19.549-30.774 19.746-2.095 6.285-7.948 10.261-14.228 10.261z" fill="#4f5480"/><path d="m315.23 285.713c-.548-1.645-13.94-40.26-59.231-40.26-.133 0-.257.01-.389.011v29.999c.131-.001.256-.01.389-.01 22.959 0 30.092 17.88 30.829 19.917l-.059-.171z" fill="#404576"/><circle cx="130.993" cy="331.208" fill="#e6ffff" r="90"/><path d="m130.993 436.208c-57.897 0-105-47.103-105-105 0-57.898 47.103-105 105-105s105 47.102 105 105c0 57.897-47.103 105-105 105zm0-180c-41.355 0-75 33.645-75 75s33.645 75 75 75 75-33.645 75-75-33.645-75-75-75z" fill="#5e638b"/><path d="m381.004 421.208c-49.628 0-90.004-40.373-90.004-90 0-49.625 40.376-90 90.004-90 49.627 0 90.001 40.375 90.001 90 0 49.627-40.374 90-90.001 90z" fill="#cbf0ff"/><path d="m381.004 436.208c-57.899 0-105.004-47.103-105.004-105 0-57.898 47.104-105 105.004-105 57.897 0 105.001 47.102 105.001 105 0 57.897-47.104 105-105.001 105zm0-180c-41.357 0-75.004 33.645-75.004 75s33.647 75 75.004 75c41.355 0 75.001-33.645 75.001-75s-33.646-75-75.001-75z" fill="#5e638b"/></g></svg>