<svg id="Capa_1" enable-background="new 0 0 512 512" height="512" viewBox="0 0 512 512" width="512" xmlns="http://www.w3.org/2000/svg"><g><path d="m144.67 369.337c-24.814 0-35.002 10.188-35.002 35.002s10.188 35.002 35.002 35.002l277.315-4.999v-60.006z" fill="#e6ffff"/><path d="m256 371.344v65.991l165.984-2.993v-60.006z" fill="#cbf0ff"/><path d="m406.984 419.342h-252.313c-8.272 0-15.003-6.73-15.003-15.003 0-8.272 6.73-15.003 15.003-15.003h252.314c8.284 0 15-6.716 15-15l-10.001-216.413v-142.922c0-8.284-6.716-15-15-15h-236.983c-33.084 0-60 26.916-60 60v97.922l-10.156 115.079 9.822 131.337c0 24.814 20.188 45.003 45.003 45.003h262.315c8.284 0 15-6.716 15-15s-6.716-15-15.001-15z" fill="#5e638b"/><path d="m256 389.336h150.984c8.284 0 15-6.716 15-15l-10.001-216.413v-142.922c0-8.284-6.716-15-15-15h-140.983z" fill="#4f5480"/><path d="m406.984 419.342h-150.984v30h150.984c8.284 0 15-6.716 15-15s-6.715-15-15-15z" fill="#4f5480"/><path d="m286.978 60.001h-121.978c-8.284 0-15 6.716-15 15v90.008c0 8.284 6.716 15 15 15h121.978c8.284 0 15-6.716 15-15v-90.008c0-8.284-6.715-15-15-15z" fill="#e6ffff"/><path d="m286.978 60.001h-30.978v120.008h30.978c8.284 0 15-6.716 15-15v-90.008c0-8.284-6.715-15-15-15z" fill="#cbf0ff"/><path d="m346.984 60.001h-60.006v120.008h60.006c8.284 0 15-6.716 15-15v-90.008c0-8.284-6.715-15-15-15z" fill="#dc7571"/><path d="m491.998 252.925c0-8.25-4.773-19.773-10.607-25.607l-69.4-69.399.002 145.075-31.967-31.966c-11.717-11.716-30.711-11.716-42.428 0-11.715 11.716-11.283 30.078-4.648 45.26 14.35 32.833 69.041 113.633 69.041 113.633v67.078c0 8.25 6.75 15 15 15h80.009c8.25 0 15-6.75 15-15v-67.078z" fill="#ffbeaa"/><path d="m20.002 252.925c0-8.25 4.773-19.773 10.607-25.607l69.4-69.399-.002 145.075 31.967-31.966c11.717-11.716 30.711-11.716 42.428 0 11.715 11.716 11.283 30.078 4.648 45.26-14.35 32.833-69.041 113.633-69.041 113.633v67.078c0 8.25-6.75 15-15 15h-80.009c-8.25 0-15-6.75-15-15v-67.078z" fill="#ffd2c7"/></g></svg>