<svg id="Capa_1" enable-background="new 0 0 512 512" height="512" viewBox="0 0 512 512" width="512" xmlns="http://www.w3.org/2000/svg"><g><path d="m497 167.75h-482l-15 15.014c.003 2.867.826 5.726 2.455 8.21.862 1.314 21.584 32.554 63.164 63.77 38.283 28.741 102.389 63.003 190.381 63.003s152.098-34.262 190.381-63.003c41.58-31.217 62.301-62.456 63.164-63.77 1.629-2.484 2.452-5.343 2.455-8.21z" fill="#dc7571"/><path d="m497 167.75h-241v149.997c87.992 0 152.098-34.262 190.381-63.003 41.58-31.217 62.301-62.456 63.164-63.77 1.629-2.484 2.452-5.343 2.455-8.21z" fill="#b94e56"/><path d="m512 182.723v.004c-.006-3.533-1.26-7.025-3.664-9.8-4.253-4.907-105.383-120.188-212.337-120.188-2.813 0-5.569.791-7.954 2.282l-32.045 20.042-32.045-20.041c-2.385-1.491-5.142-2.282-7.954-2.282-106.954 0-208.084 115.28-212.337 120.188-2.403 2.772-3.657 6.262-3.664 9.795z" fill="#ff9b8b"/><path d="m295.999 52.739c-2.813 0-5.569.791-7.954 2.282l-32.045 20.042v107.66h256c-.007-3.531-1.261-7.023-3.664-9.796-4.253-4.907-105.383-120.188-212.337-120.188z" fill="#dc7571"/><path d="m256 137.726c-8.283 0-15 6.716-15 15v64.104c0 21.56-20.186 39.1-45 39.1-8.283 0-15 6.716-15 15v173.332c0 8.284 6.717 15 15 15h120c8.285 0 15-6.716 15-15v-231.536c0-41.356-33.645-75-75-75z" fill="#ffd2c7"/><path d="m256 137.726-10.001 28.27 10.001 35.832v257.433h60c8.285 0 15-6.716 15-15v-231.535c0-41.356-33.645-75-75-75z" fill="#ffbeaa"/><path d="m196 137.726c-8.283 0-15 6.716-15 15v118.202c41.355 0 75-30.998 75-69.1v-64.102z" fill="#e6ffff"/></g></svg>