<svg id="Capa_1" enable-background="new 0 0 511.999 511.999" height="512" viewBox="0 0 511.999 511.999" width="512" xmlns="http://www.w3.org/2000/svg"><g><path d="m344.389 289.537c-3.839 0-7.678-1.465-10.606-4.394l-14.143-14.142c-5.858-5.858-5.858-15.356 0-21.213 5.857-5.857 15.355-5.857 21.213 0l14.143 14.143c5.858 5.857 5.858 15.355 0 21.213-2.929 2.928-6.768 4.393-10.607 4.393z" fill="#ffeb93"/><path d="m354.996 263.93-14.143-14.143c-5.857-5.857-15.355-5.857-21.213 0l35.355 35.355c5.859-5.856 5.859-15.354.001-21.212z" fill="#ffc57d"/><path d="m256 326.149c-8.284 0-15-6.716-15-15v-20.002c0-8.284 6.716-15 15-15s15 6.716 15 15v20.002c0 8.284-6.716 15-15 15z" fill="#ffeb93"/><path d="m381.002 201.147h-20c-8.284 0-15-6.716-15-15s6.716-15 15-15h20c8.284 0 15 6.716 15 15s-6.716 15-15 15z" fill="#ffc57d"/><path d="m115.018 354.903c-4.969 0-9.829-2.467-12.685-6.975l-70.003-110.496c-3.134-4.946-3.103-11.264.08-16.18l75.321-116.337c4.502-6.954 13.789-8.941 20.744-4.439 6.954 4.503 8.941 13.79 4.439 20.744l-70.1 108.272 64.862 102.381c4.434 6.998 2.355 16.265-4.643 20.698-2.491 1.579-5.27 2.332-8.015 2.332z" fill="#5e638b"/><circle cx="45" cy="229.406" fill="#ff9b8b" r="45"/><path d="m145.004 324.901h-60c-8.284 0-15 6.716-15 15v71.325c0 4.378 1.913 8.538 5.236 11.388 2.738 2.347 6.207 3.612 9.763 3.612.762 0 1.527-.058 2.291-.176 19.189-2.964 35.254-7.277 49.428-11.082 4.149-1.114 8.069-2.166 12.001-3.173 6.638-1.698 11.281-7.68 11.281-14.531v-57.363c0-8.284-6.716-15-15-15z" fill="#ff9b8b"/><path d="m476.996 399.909c-42.126 0-68.451-7.069-93.909-13.905-21.254-5.707-31.328-11.098-57.088-11.098-31.884 0-59.168 20.008-70 48.122-10.832-28.114-38.116-48.122-70-48.122-25.76 0-35.834 5.391-57.088 11.098-25.458 6.836-51.783 13.905-93.909 13.905-8.284 0-15 6.716-15 15v54.999h471.995v-54.999c-.001-8.284-6.717-15-15.001-15z" fill="#e6ffff"/><path d="m476.996 399.909c-42.126 0-68.451-7.069-93.909-13.905-21.254-5.707-31.328-11.098-57.088-11.098-31.884 0-59.168 20.008-70 48.122v46.88h235.998v-54.999c-.001-8.284-6.717-15-15.001-15z" fill="#cbf0ff"/><path d="m496.999 484.908h-481.998c-8.284 0-15-6.716-15-15s6.716-15 15-15h481.998c8.284 0 15 6.716 15 15s-6.716 15-15 15z" fill="#78b4ff"/><path d="m496.999 454.908h-241v30h241c8.284 0 15-6.716 15-15s-6.716-15-15-15z" fill="#6299f7"/><path d="m298.493 143.656-10.604-10.604c-5.857-5.857-15.355-5.856-21.212.001l-63.64 63.639c-5.858 5.857-5.858 15.355 0 21.213l10.605 10.605c11.332 11.333 26.4 17.573 42.426 17.574h.001c16.025 0 31.093-6.242 42.426-17.574 23.392-23.394 23.392-61.459-.002-84.854z" fill="#ffeb93"/><path d="m298.494 228.51c23.394-23.395 23.394-61.46-.001-84.854l-10.604-10.604c-5.857-5.857-15.355-5.856-21.212.001l-31.885 31.885 63.636 63.636c.021-.022.044-.042.066-.064z" fill="#ffc57d"/><path d="m316.174 104.766-14.142-14.14c-21.881-21.882-70.713-14.143-70.713-14.143l-19.271 2.939-63.642 63.641-1.94 18.272s-20.302 36.27 14.142 70.714l14.142 14.142c2.813 2.813 6.628 4.394 10.606 4.394s7.794-1.58 10.607-4.394l120.211-120.211c2.813-2.813 4.394-6.628 4.394-10.606s-1.581-7.794-4.394-10.608z" fill="#ff9b8b"/><path d="m316.174 125.98c2.813-2.813 4.394-6.628 4.394-10.606s-1.581-7.794-4.394-10.607l-14.142-14.14c-21.881-21.882-70.713-14.143-70.713-14.143l-19.271 2.939-31.386 31.386 75.342 75.342z" fill="#dc7571"/><path d="m199.501 44.665c-11.333-11.333-26.4-17.574-42.426-17.574-16.027 0-31.094 6.241-42.427 17.574-11.332 11.331-17.573 26.398-17.573 42.426s6.241 31.095 17.573 42.426l31.819 31.82 84.853-84.853z" fill="#dc7571"/><path d="m231.32 76.484-31.819-31.819c-11.333-11.333-26.4-17.574-42.426-17.574-16.027 0-31.094 6.241-42.427 17.574-.022.021-.041.045-.063.066l74.244 74.244z" fill="#b94e56"/></g></svg>