<svg id="Capa_1" enable-background="new 0 0 511.998 511.998" height="512" viewBox="0 0 511.998 511.998" width="512" xmlns="http://www.w3.org/2000/svg"><g><path d="m346.001 164.683c-16.568 0-30 13.432-30 30s13.432 30 30 30l86.182-15v-30z" fill="#cbf0ff"/><path d="m432.184 209.683h-86.182c-8.271 0-15-6.729-15-15s6.729-15 15-15h86.182s0-6.716 0-15-6.716-15-15-15h-71.182c-24.813 0-45 20.186-45 45 0 24.813 20.187 45 45 45l31.998 10.001 24.749-9.999 14.436-.002c8.284 0 15-6.716 15-15-.001-8.284-.001-15-.001-15z" fill="#87d186"/><path d="m124.815 74.68c-16.568 0-30 13.432-30 30s13.432 30 30 30h71.181v-60z" fill="#e6ffff"/><path d="m124.814 74.68c-16.568 0-30 13.432-30 30s13.432 30 30 30l86.182-15v-30z" fill="#e6ffff"/><path d="m210.997 119.68h-86.182c-8.271 0-15-6.729-15-15s6.729-15 15-15h86.182s0-6.716 0-15-6.716-15-15-15h-71.182c-24.813 0-45 20.187-45 45 0 24.814 20.187 45 45 45l30.685 10.001 40.498-10.001c8.284 0 15-6.716 15-15-.001-8.284-.001-15-.001-15z" fill="#78b4ff"/><path d="m124.814 164.683c-16.568 0-30 13.432-30 30s13.432 30 30 30l86.182-15v-30z" fill="#e6ffff"/><path d="m210.997 209.683h-86.182c-8.271 0-15-6.729-15-15s6.729-15 15-15h86.182s0-6.716 0-15-6.716-15-15-15h-71.182c-24.813 0-45 20.186-45 45 0 24.813 20.187 45 45 45l30.852 10.001 40.331-10.001c8.284 0 15-6.716 15-15-.001-8.284-.001-15-.001-15z" fill="#ff9b8b"/><path d="m53.745 359.69h30v85.747h-30z" fill="#5e638b"/><path d="m122.49 460.437h-107.49c-8.284 0-15-6.716-15-15s6.716-15 15-15h107.49c8.284 0 15 6.716 15 15s-6.716 15-15 15z" fill="#ffeb93"/><path d="m122.49 374.69h-106.239c-8.284 0-15-6.716-15-15v-135.755c0-8.284 6.716-15 15-15s15 6.716 15 15v120.755h91.239c8.284 0 15 6.716 15 15s-6.716 15-15 15z" fill="#ffeb93"/><path d="m428.253 359.69h30v85.747h-30z" fill="#4f5480"/><path d="m496.998 460.437h-107.49c-8.284 0-15-6.716-15-15s6.716-15 15-15h107.49c8.284 0 15 6.716 15 15s-6.716 15-15 15z" fill="#ffc57d"/><path d="m495.747 374.69h-106.239c-8.284 0-15-6.716-15-15s6.716-15 15-15h91.239v-120.755c0-8.284 6.716-15 15-15s15 6.716 15 15v135.755c0 8.284-6.716 15-15 15z" fill="#ffc57d"/><path d="m255.999 254.684c-8.284 0-15-6.716-15-15v-173.123c0-8.284 6.716-15 15-15s15 6.716 15 15v173.123c0 8.284-6.716 15-15 15z" fill="#5e638b"/><path d="m256 51.561v203.123c8.284-.001 14.999-6.716 14.999-15v-173.123c0-8.284-6.715-14.999-14.999-15z" fill="#4f5480"/><path d="m256 284.684c-8.284 0-15 6.716-15 15v145.753h30v-145.753c0-8.284-6.716-15-15-15z" fill="#5e638b"/><path d="m256 284.684v160.753h15v-145.753c0-8.284-6.716-15-15-15z" fill="#4f5480"/><path d="m309.744 460.437h-107.49c-8.284 0-15-6.716-15-15s6.716-15 15-15h107.49c8.284 0 15 6.716 15 15s-6.716 15-15 15z" fill="#ffeb93"/><path d="m309.744 430.437h-53.744v30h53.744c8.284 0 15-6.716 15-15s-6.716-15-15-15z" fill="#ffc57d"/><path d="m402.747 239.685h-293.496c-24.813 0-45 20.186-45 45v14.999c0 8.284 6.716 15 15 15h353.496c8.284 0 15-6.716 15-15v-14.999c0-24.814-20.187-45-45-45z" fill="#ffeb93"/><path d="m402.747 239.685h-146.747v74.999h176.747c8.284 0 15-6.716 15-15v-14.999c0-24.814-20.187-45-45-45z" fill="#ffc57d"/></g></svg>