<svg id="Capa_1" enable-background="new 0 0 512 512" height="512" viewBox="0 0 512 512" width="512" xmlns="http://www.w3.org/2000/svg"><g><path d="m458.495 181.981h-124.993c-24.814 0-45 20.187-45 45v30c0 8.284 6.716 15 15 15h154.993c8.284 0 15-6.716 15-15v-60c0-8.284-6.716-15-15-15z" fill="#cbf0ff"/><path d="m208.495 181.981h-124.993c-24.813 0-45 20.187-45 45v30c0 8.284 6.716 15 15 15h154.993c8.284 0 15-6.716 15-15v-60c0-8.284-6.716-15-15-15z" fill="#e6ffff"/><path d="m225.995 241.987h-189.994c-8.285 0-15 6.716-15 15v240.012h219.994v-240.012c0-8.284-6.716-15-15-15z" fill="#ff9b8b"/><g fill="#dc7571"><path d="m165.997 391.993h-69.995c-8.285 0-15-6.716-15-15s6.715-15 15-15h69.996c8.284 0 15 6.716 15 15-.001 8.284-6.717 15-15.001 15z"/><path d="m165.997 331.987h-69.995c-8.285 0-15-6.716-15-15s6.715-15 15-15h69.996c8.284 0 15 6.716 15 15s-6.717 15-15.001 15z"/><path d="m475.997 241.987h-189.997c-8.284 0-15 6.716-15 15v240.012h219.997v-240.012c0-8.284-6.716-15-15-15z"/></g><path d="m415.997 391.993h-69.997c-8.284 0-15-6.716-15-15s6.716-15 15-15h69.997c8.284 0 15 6.716 15 15s-6.716 15-15 15z" fill="#b94e56"/><path d="m415.997 331.987h-69.997c-8.284 0-15-6.716-15-15s6.716-15 15-15h69.997c8.284 0 15 6.716 15 15s-6.716 15-15 15z" fill="#b94e56"/><circle cx="131" cy="437" fill="#dc7571" r="15"/><circle cx="380.998" cy="437" fill="#b94e56" r="15"/><path d="m497 511.999h-482c-8.284 0-15-6.716-15-15s6.716-15 15-15h482c8.284 0 15 6.716 15 15s-6.716 15-15 15z" fill="#ffeb93"/><path d="m497 481.999h-241v30h241c8.284 0 15-6.716 15-15s-6.716-15-15-15z" fill="#ffc57d"/><path d="m190.032 123.699-42.415-112.392c-.052-.138-.105-.274-.162-.41-2.723-6.62-9.104-10.894-16.261-10.894-.005 0-.012 0-.017 0-7.163.007-13.545 4.295-16.258 10.926-.046.113-.091.227-.135.341l-42.804 112.386c-2.949 7.742.937 16.408 8.679 19.356 7.741 2.949 16.407-.936 19.356-8.679l6.981-18.33h48.065l6.901 18.287c2.268 6.007 7.975 9.708 14.036 9.708 1.76 0 3.55-.311 5.294-.97 7.753-2.923 11.665-11.578 8.74-19.329zm-71.609-37.695 12.717-33.392 12.602 33.392z" fill="#5e638b"/><path d="m419.021 113.994h-48.368l59.165-90.805c3.005-4.611 3.243-10.497.62-15.336-2.622-4.839-7.684-7.852-13.188-7.852h-71.936c-8.284 0-15 6.716-15 15s6.716 15 15 15h44.26l-59.165 90.805c-3.005 4.611-3.243 10.497-.62 15.336 2.622 4.839 7.684 7.852 13.188 7.852h76.045c8.284 0 15-6.716 15-15-.001-8.284-6.717-15-15.001-15z" fill="#4f5480"/><path d="m271 86.998h-30c-8.284 0-15-6.716-15-15s6.716-15 15-15h30c8.284 0 15 6.716 15 15s-6.716 15-15 15z" fill="#5e638b"/><path d="m271 56.998h-15v30h15c8.284 0 15-6.716 15-15s-6.716-15-15-15z" fill="#4f5480"/></g></svg>