<svg id="Capa_1" enable-background="new 0 0 512.342 512.342" height="512" viewBox="0 0 512.342 512.342" width="512" xmlns="http://www.w3.org/2000/svg"><g><path d="m497.17.205h-482c-8.284 0-15 6.716-15 15v214.108c0 8.284 6.716 15 15 15h51.755l20.602 24.625c2.851 3.407 7.063 5.375 11.505 5.375h.028c4.452-.009 8.67-1.994 11.514-5.419l20.404-24.581h250.322l20.602 24.625c2.851 3.407 7.064 5.375 11.505 5.375h.028c4.452-.009 8.67-1.994 11.514-5.419l20.404-24.581h51.817c8.284 0 15-6.716 15-15v-214.108c0-8.285-6.716-15-15-15z" fill="#e6ffff"/><g fill="#cbf0ff"><path d="m497.17.205h-241v244.108h125.13l20.602 24.625c2.851 3.407 7.064 5.375 11.505 5.375h.028c4.452-.009 8.67-1.994 11.514-5.419l20.404-24.581h51.817c8.284 0 15-6.716 15-15v-214.108c0-8.285-6.716-15-15-15z"/><path d="m122.892 167.226h-47.722c-8.284 0-15-6.716-15-15s6.716-15 15-15h47.722c8.284 0 15 6.716 15 15s-6.716 15-15 15z"/><path d="m122.892 107.22h-47.722c-8.284 0-15-6.716-15-15s6.716-15 15-15h47.722c8.284 0 15 6.716 15 15s-6.716 15-15 15z"/></g><path d="m437.17 107.22h-47.722c-8.284 0-15-6.716-15-15s6.716-15 15-15h47.722c8.284 0 15 6.716 15 15s-6.716 15-15 15z" fill="#b1e1ff"/><path d="m437.17 167.226h-47.722c-8.284 0-15-6.716-15-15s6.716-15 15-15h47.722c8.284 0 15 6.716 15 15s-6.716 15-15 15z" fill="#b1e1ff"/><path d="m331.17 45.209h-34.999c-17.402 0-32.518 9.936-40.001 24.426-7.483-14.49-22.599-24.426-40.001-24.426h-34.999c-8.284 0-15 6.716-15 15v109.098c0 8.284 6.716 15 15 15h150c8.284 0 15-6.716 15-15v-109.098c0-8.284-6.716-15-15-15z" fill="#cbf0ff"/><path d="m331.17 45.209h-34.999c-17.402 0-32.518 9.936-40.001 24.426v114.672h75c8.284 0 15-6.716 15-15v-109.098c0-8.284-6.716-15-15-15z" fill="#b1e1ff"/><path d="m346.42 184.308c0 8.25-6.75 15-15 15h-150.5c-8.25 0-15-6.75-15-15 0-8.25 0-15 0-15h180.5z" fill="#78b4ff"/><path d="m255.92 169.308v30h75.5c8.25 0 15-6.75 15-15s0-15 0-15z" fill="#6299f7"/><path d="m177.136 374.862h-136.963c-8.284 0-15 6.716-15 15v38.794c0 46.032 37.45 83.481 83.482 83.481 46.031 0 83.48-37.449 83.48-83.481v-38.794c.001-8.284-6.715-15-14.999-15z" fill="#ffd2c7"/><path d="m142.897 304.316h-127.726c-8.28 0-14.995 6.71-15 14.991-.001 2.056-3.851 40.34 25.002 70.555h166.963v-36.306c0-27.151-22.089-49.24-49.239-49.24z" fill="#5e638b"/><path d="m472.168 374.862h-136.962c-8.284 0-15 6.716-15 15v38.794c0 46.032 37.449 83.481 83.48 83.481 46.032 0 83.482-37.449 83.482-83.481v-38.794c0-8.284-6.715-15-15-15z" fill="#ffbeaa"/><path d="m497.17 304.316h-127.725c-27.15 0-49.239 22.089-49.239 49.24v36.306h166.963c28.853-30.215 25.003-68.499 25.002-70.555-.006-8.281-6.72-14.991-15.001-14.991z" fill="#4f5480"/></g></svg>