<svg id="Capa_1" enable-background="new 0 0 511.999 511.999" height="512" viewBox="0 0 511.999 511.999" width="512" xmlns="http://www.w3.org/2000/svg"><g><path d="m496.999 0h-334.299c-8.284 0-15 6.716-15 15v354.648c0 8.284 6.716 15 15 15h193.286v39.999c0 5.948 3.515 11.335 8.96 13.73 1.941.854 3.996 1.27 6.037 1.27 3.683 0 7.316-1.357 10.139-3.942l55.699-51.057h60.178c8.283 0 15-6.716 15-15v-354.648c0-8.284-6.717-15-15-15z" fill="#cbf0ff"/><g fill="#b1e1ff"><path d="m437.741 100.002h-215.783c-8.284 0-15-6.716-15-15s6.716-15 15-15h215.783c8.284 0 15 6.716 15 15s-6.716 15-15 15z"/><path d="m437.741 160.008h-136.555c-8.284 0-15-6.716-15-15s6.716-15 15-15h136.555c8.284 0 15 6.716 15 15s-6.716 15-15 15z"/><path d="m437.741 190.014h-33.277c-17.401 0-32.518 9.936-40 24.426-7.483-14.49-22.599-24.426-40.001-24.426h-33.277c-8.284 0-15 6.716-15 15v90.521c0 8.284 6.716 15 15 15h146.556c8.284 0 15-6.716 15-15v-90.521c-.001-8.284-6.717-15-15.001-15z"/></g><path d="m437.741 190.014h-33.277c-17.401 0-32.518 9.936-40 24.426v96.096h73.277c8.284 0 15-6.716 15-15v-90.521c0-8.285-6.716-15.001-15-15.001z" fill="#96d2ff"/><path d="m452.741 310.536c0 8.25-6.75 15-15 15h-146.556c-8.25 0-15-6.75-15-15 0-8.25 0-15 0-15h176.556z" fill="#5e638b"/><path d="m364.464 295.536v30h73.277c8.25 0 15-6.75 15-15s0-15 0-15z" fill="#4f5480"/><path d="m208.147 368.016.102-61.4s-13.011.835-17.617-1.196c-4.602-2.031-9.92-1.618-14.155 1.101-8.61 5.526-18.563 8.448-28.778 8.448-10.218 0-20.17-2.922-28.779-8.449-4.236-2.718-9.554-3.131-14.157-1.102-4.606 2.031-17.729 1.197-17.729 1.197l.215 61.401c-.936 5.479 1.234 11.027 5.641 14.416l45.664 35.124c2.696 2.073 5.921 3.11 9.146 3.11s6.449-1.037 9.146-3.11l45.664-35.124c4.403-3.389 6.573-8.937 5.637-14.416z" fill="#ffbeaa"/><path d="m208.147 368.016.215-61.4s-13.124.835-17.73-1.196c-4.602-2.031-9.92-1.618-14.155 1.101-8.61 5.526-18.563 8.448-28.778 8.448h-.001v105.698c3.225 0 6.449-1.037 9.146-3.11l45.664-35.124c4.405-3.39 6.575-8.938 5.639-14.417z" fill="#ffaa8e"/><path d="m255.983 373.708-49.401-14.854-58.885 32.888-58.886-32.888-49.401 14.854c-22.098 6.645-39.41 29.926-39.41 53.002v70.289c0 8.284 6.716 15 15 15h265.395c8.284 0 15-6.716 15-15v-70.289c0-23.076-17.312-46.358-39.412-53.002z" fill="#78b4ff"/><path d="m255.983 373.708-49.401-14.854-58.885 32.888v120.257h132.697c8.284 0 15-6.716 15-15v-70.289c.001-23.076-17.311-46.358-39.411-53.002z" fill="#6299f7"/><path d="m216.18 197.54h-136.964c-8.284 0-15 6.716-15 15v48.946c0 46.032 37.45 83.482 83.482 83.482 46.031 0 83.482-37.449 83.482-83.482v-48.946c0-8.284-6.716-15-15-15z" fill="#ffd2c7"/><path d="m216.18 197.54h-68.482v147.428h.001c46.031 0 83.482-37.449 83.482-83.482v-48.946c-.001-8.284-6.717-15-15.001-15z" fill="#ffbeaa"/><path d="m241.181 130.008h-127.726c-27.15 0-49.239 22.089-49.239 49.24v33.292h166.964c28.852-30.216 25.001-65.609 25.001-67.542-.006-8.28-6.72-14.99-15-14.99z" fill="#5e638b"/><path d="m256.181 144.998c-.006-8.28-6.72-14.99-15-14.99h-93.483v82.532h83.482c28.852-30.216 25.001-65.609 25.001-67.542z" fill="#4f5480"/></g></svg>