<svg id="Capa_1" enable-background="new 0 0 511.999 511.999" height="512" viewBox="0 0 511.999 511.999" width="512" xmlns="http://www.w3.org/2000/svg"><g><path d="m345.181 332.847h-164.915v60h164.915c16.568 0 30-13.432 30-30 0-16.569-13.431-30-30-30z" fill="#cbf0ff"/><path d="m345.181 30.003h-164.915c-8.284 0-15 6.716-15 15v287.844c0 8.284 6.716 15 15 15h164.915c8.271 0 15 6.728 15 15 0 8.271-6.729 15-15 15h-164.915c-8.284 0-15 6.716-15 15s6.716 15 15 15h164.915c24.813 0 45-20.187 45-45v-204.931-82.913c0-24.814-20.187-45-45-45z" fill="#6299f7"/><path d="m315.181 90.003h-134.915c-8.284 0-15 6.716-15 15v60.006c0 3.979 1.581 7.794 4.393 10.606 2.813 2.813 6.628 4.394 10.607 4.394l134.915-.001c8.284 0 15-6.716 15-15v-60.005c0-8.284-6.715-15-15-15z" fill="#cbf0ff"/><path d="m180.266 0h-143.498c-8.284 0-15 6.716-15 15v481.998c0 8.284 6.716 15 15 15h143.499c8.284 0 15-6.716 15-15v-481.998c-.001-8.284-6.716-15-15.001-15z" fill="#ffeb93"/><path d="m180.266 0h-71.75v511.998h71.75c8.284 0 15-6.716 15-15v-481.998c0-8.284-6.715-15-15-15z" fill="#ffc57d"/><path d="m108.517 451.998c-8.284 0-15-6.716-15-15v-361.998c0-8.284 6.716-15 15-15s15 6.716 15 15v361.998c0 8.284-6.716 15-15 15z" fill="#ffc57d"/><path d="m108.517 60v391.998c8.284 0 15-6.716 15-15v-361.998c0-8.284-6.716-15-15-15z" fill="#ff9e66"/><path d="m470.23 252.925c0-8.25-4.773-19.773-10.608-25.607l-69.401-69.399.001 145.075-31.967-31.966c-11.717-11.716-30.71-11.716-42.427 0-11.715 11.716-11.284 30.078-4.649 45.26 14.35 32.833 69.04 113.633 69.04 113.633v67.078c0 8.25 6.75 15 15 15h80.01c8.25 0 15-6.75 15-15v-67.078z" fill="#ffbeaa"/></g></svg>