<svg id="Capa_1" enable-background="new 0 0 511.999 511.999" height="512" viewBox="0 0 511.999 511.999" width="512" xmlns="http://www.w3.org/2000/svg"><g><path d="m444.469 316.643-19.184-19.185c-3.683-3.683-9.015-5.192-14.082-3.985s-9.146 4.956-10.774 9.904c-15.042 45.728-51.323 82.009-97.052 97.051-4.948 1.628-8.698 5.706-9.905 10.773-1.207 5.068.302 10.398 3.985 14.082l19.185 19.185c17.072 17.072 39.77 26.474 63.913 26.474s46.842-9.401 63.914-26.474c35.241-35.242 35.241-92.584 0-127.825z" fill="#dc7571"/><circle cx="451.999" cy="451.999" fill="#ffbeaa" r="60"/><path d="m303.376 111.572c45.729 15.041 82.01 51.321 97.052 97.05 1.628 4.948 5.706 8.697 10.774 9.904 1.152.274 2.317.408 3.475.408 3.931 0 7.761-1.548 10.607-4.394l19.184-19.185c35.242-35.241 35.242-92.583 0-127.825-17.072-17.072-39.77-26.474-63.913-26.474s-46.841 9.401-63.913 26.474l-19.186 19.186c-3.684 3.684-5.192 9.015-3.985 14.082 1.207 5.068 4.957 9.146 9.905 10.774z" fill="#6299f7"/><circle cx="451.999" cy="60" fill="#ffbeaa" r="60"/><path d="m208.622 400.428c-45.729-15.042-82.01-51.322-97.052-97.051-1.628-4.948-5.706-8.697-10.774-9.904-5.068-1.206-10.398.302-14.082 3.985l-19.184 19.185c-35.242 35.241-35.242 92.583 0 127.825 17.072 17.072 39.771 26.474 63.914 26.474s46.841-9.401 63.913-26.474l19.185-19.185c3.684-3.684 5.192-9.014 3.985-14.082-1.207-5.067-4.957-9.145-9.905-10.773z" fill="#78b4ff"/><circle cx="60" cy="451.999" fill="#ffd2c7" r="60"/><path d="m195.357 67.531c-17.072-17.072-39.77-26.474-63.913-26.474-24.144 0-46.842 9.401-63.914 26.474-35.241 35.242-35.241 92.584 0 127.825l19.185 19.185c2.846 2.846 6.675 4.394 10.607 4.394 1.157 0 2.323-.134 3.475-.408 5.067-1.207 9.146-4.956 10.774-9.904 15.043-45.729 51.324-82.009 97.052-97.05 4.949-1.628 8.698-5.706 9.905-10.773s-.302-10.398-3.985-14.082z" fill="#ff9b8b"/><circle cx="60" cy="60" fill="#ffd2c7" r="60"/><circle cx="255.999" cy="256" fill="#ffeb93" r="181.998"/><path d="m255.999 74.002v363.995c100.355 0 181.999-81.643 181.999-181.998.001-100.353-81.644-181.997-181.999-181.997z" fill="#ffc57d"/><path d="m331 181.417h-35c-17.402 0-32.517 9.936-40.001 24.425-7.483-14.489-22.599-24.425-40.001-24.425h-34.999c-8.284 0-15 6.716-15 15v104.164c0 8.284 6.716 15 15 15h150c8.284 0 15-6.716 15-15v-104.164c.001-8.285-6.715-15-14.999-15z" fill="#e6ffff"/><path d="m331 181.417h-35c-17.402 0-32.517 9.936-40.001 24.425v109.739h75c8.284 0 15-6.716 15-15v-104.164c.001-8.285-6.715-15-14.999-15z" fill="#cbf0ff"/><path d="m165.999 300.582v15c0 8.25 6.75 15 15 15h150c8.25 0 15-6.75 15-15s0-15 0-15z" fill="#78b4ff"/><path d="m256 300.582v30h75c8.25 0 15-6.75 15-15s0-15 0-15z" fill="#6299f7"/></g></svg>