<svg id="Capa_1" enable-background="new 0 0 511.998 511.998" height="512" viewBox="0 0 511.998 511.998" width="512" xmlns="http://www.w3.org/2000/svg"><g><path d="m240.997 245.011v67.989c0 8.284 6.716 15 15 15s15-6.716 15-15v-67.989z" fill="#4f5480"/><path d="m255.997 245.011v82.989c8.284 0 15-6.716 15-15v-67.989z" fill="#404576"/><path d="m476.997 301.992h-441.997c-8.284 0-15 6.716-15 15v150.003c0 3.979 1.58 7.793 4.393 10.606l30.002 30.003c2.813 2.813 6.628 4.393 10.607 4.393h381.993c3.979 0 7.794-1.58 10.607-4.393l30.003-30.003c2.814-2.813 4.393-6.628 4.393-10.606v-150.003c-.001-8.284-6.716-15-15.001-15z" fill="#5e638b"/><path d="m476.997 301.992h-220.998v210.006h190.995c3.979 0 7.794-1.58 10.607-4.393l30.003-30.003c2.814-2.813 4.393-6.628 4.393-10.606v-150.004c0-8.284-6.715-15-15-15z" fill="#4f5480"/><path d="m105.991 391.992h-10.99c-8.284 0-15-6.716-15-15s6.716-15 15-15h10.99c8.284 0 15 6.716 15 15s-6.716 15-15 15z" fill="#e6ffff"/><path d="m416.997 391.992h-10.986c-8.284 0-15-6.716-15-15s6.716-15 15-15h10.986c8.284 0 15 6.716 15 15s-6.715 15-15 15z" fill="#cbf0ff"/><path d="m416.997 451.998h-30.003c-8.284 0-15-6.716-15-15s6.716-15 15-15h30.003c8.284 0 15 6.716 15 15s-6.715 15-15 15z" fill="#cbf0ff"/><g fill="#e6ffff"><path d="m125.002 451.998h-30.001c-8.284 0-15-6.716-15-15s6.716-15 15-15h30.001c8.284 0 15 6.716 15 15s-6.716 15-15 15z"/><circle cx="165.989" cy="376.988" r="15"/><circle cx="225.999" cy="376.988" r="15"/></g><circle cx="285.984" cy="376.988" fill="#cbf0ff" r="15"/><circle cx="345.995" cy="376.988" fill="#cbf0ff" r="15"/><path d="m326.989 451.998h-141.984c-8.284 0-15-6.716-15-15s6.716-15 15-15h141.984c8.284 0 15 6.716 15 15s-6.716 15-15 15z" fill="#e6ffff"/><path d="m326.989 421.998h-70.989v30h70.989c8.284 0 15-6.716 15-15s-6.716-15-15-15z" fill="#cbf0ff"/><path d="m290.999 45.003h-70.002c-8.284 0-15 6.716-15 15l-10 115.004h120.003l-10.001-115.004c0-8.284-6.716-15-15-15z" fill="#a5f0a3"/><path d="m255.997 175.007h60.003l-10.001-115.004c0-8.284-6.716-15-15-15h-35.002z" fill="#87d186"/><path d="m264.312 137.523c-5.038-3.358-11.603-3.36-16.642 0l-41.674 37.483-10 15.496 10 24.508c0 8.284 6.716 15 15 15l35.003 10.001 34.999-10.001c8.284 0 15-6.716 15-15l10.002-22.013-10.001-17.99z" fill="#ffeb93"/><path d="m305.999 175.007-41.686-37.483c-2.518-1.678-5.416-2.519-8.315-2.52v105.007l.003.001 34.999-10.001c8.284 0 15-6.716 15-15l10-22.014z" fill="#ffc57d"/><path d="m391 15.001h-70.002c-8.284 0-15 6.716-15 15v50.005c0 8.284 6.716 15 15 15h70.002c8.284 0 15-6.716 15-15v-50.005c0-8.284-6.715-15-15-15z" fill="#dc7571"/><path d="m391 150.006h-70.002c-8.284 0-15 6.716-15 15v50.005c0 8.284 6.716 15 15 15l35.002 10.001 35-10.001c8.284 0 15-6.716 15-15v-50.005c0-8.284-6.715-15-15-15z" fill="#dc7571"/><path d="m305.999 80.006h100.002v85h-100.002z" fill="#b94e56"/><path d="m105.994 39.723h100.003v150.564h-100.003z" fill="#cbf0ff"/><path d="m205.996 39.723v-24.723c0-8.284-6.716-15-15-15h-70.002c-8.284 0-15 6.716-15 15v24.723c12.966 12.535 30.586 20.283 50.001 20.283s37.035-7.748 50.001-20.283z" fill="#78b4ff"/><path d="m105.994 190.287v24.724c0 8.284 6.716 15 15 15l35.001 10.001 35.001-10.001c8.284 0 15-6.716 15-15v-24.724c-12.966-12.534-30.586-20.282-50.001-20.282s-37.035 7.748-50.001 20.282z" fill="#78b4ff"/><path d="m421.008 260.011h-330.016c-8.285 0-15-6.716-15-15s6.715-15 15-15h330.016c8.284 0 15 6.716 15 15s-6.715 15-15 15z" fill="#5e638b"/><path d="m421.008 230.011h-165.011v30h165.012c8.284 0 15-6.716 15-15-.001-8.284-6.716-15-15.001-15z" fill="#4f5480"/></g></svg>