<svg id="Capa_1" enable-background="new 0 0 511.998 511.998" height="512" viewBox="0 0 511.998 511.998" width="512" xmlns="http://www.w3.org/2000/svg"><g><path d="m351.418 382.525h-48.838c-8.284 0-15 6.716-15 15v71.004h78.838v-71.004c0-8.284-6.716-15-15-15z" fill="#404576"/><path d="m381.421 483.529h-78.841c-8.284 0-15-6.716-15-15s6.716-15 15-15h78.841c8.284 0 15 6.716 15 15s-6.716 15-15 15z" fill="#4f5480"/><path d="m496.998 111.538h-260.192c-8.284 0-15 6.716-15 15v93.404c0 26.95-10.315 52.622-29.047 72.287-3.575 3.753-4.959 9.086-3.66 14.105 1.298 5.017 5.096 9.009 10.042 10.557l60.185 18.832c3.763 1.384 7.698 4.97 10.311 9.407 2.696 4.578 7.612 7.389 12.926 7.389h214.435c8.284 0 15-6.716 15-15v-210.981c0-8.284-6.716-15-15-15z" fill="#cbf0ff"/><path d="m269.637 345.129c1.898 3.224 2.943 6.583 2.943 9.458v42.938c0 8.284 6.716 15 15 15h209.418c8.284 0 15-6.716 15-15v-60.006h-244.433c0 2.632.69 5.263 2.072 7.61z" fill="#4f5480"/><path d="m447.681 156.543h-27.934c-17.402 0-32.518 9.936-40.001 24.426-7.483-14.49-22.599-24.426-40.001-24.426h-27.933c-8.284 0-15 6.716-15 15v90.969c0 8.284 6.716 15 15 15h135.868c8.284 0 15-6.716 15-15v-90.969c.001-8.284-6.715-15-14.999-15z" fill="#b1e1ff"/><path d="m447.681 156.543h-27.934c-17.402 0-32.518 9.936-40.001 24.426v96.543h67.935c8.284 0 15-6.716 15-15v-90.969c0-8.284-6.716-15-15-15z" fill="#96d2ff"/><path d="m302.58 483.529v-128.942c0-19.929-14.737-40.686-33.551-47.253-.154-.055-.31-.105-.465-.154l-68.892-21.557c-1.45-.454-2.961-.685-4.482-.685l-87.836.01c-1.519 0-3.028.23-4.478.685l-68.858 21.547c-.155.049-.311.1-.465.154-18.815 6.568-33.553 27.325-33.553 47.253v113.941c0 8.284 6.716 15 15 15" fill="#ff9b8b"/><path d="m249.626 388.942-22.055-94.588-27.899-8.73c-1.45-.454-2.961-.685-4.482-.685l-41.455.005v198.585h73.84s22.206-94.538 22.051-94.587z" fill="#dc7571"/><path d="m269.029 307.334c-.154-.055-.31-.105-.465-.154l-40.99-12.826v189.175h75.006v-128.942c0-19.928-14.737-40.685-33.551-47.253z" fill="#b94e56"/><path d="m75.006 294.354-40.988 12.826c-.155.049-.311.1-.465.154-18.815 6.568-33.553 27.325-33.553 47.253v113.941c0 8.284 6.716 15 15 15h60.006z" fill="#dc7571"/><path d="m153.735 28.469c-54.075 0-98.069 43.994-98.069 98.069v213.404c0 8.284 6.716 15 15 15h46.14c74.439 0 135-60.561 135-135v-93.404c0-54.075-43.995-98.069-98.071-98.069z" fill="#5e638b"/><path d="m153.735 28.469v321.34c56.545-16.102 98.07-68.227 98.07-129.866v-93.404c.001-54.076-43.994-98.07-98.07-98.07z" fill="#4f5480"/><path d="m296.813 262.513v15c0 8.25 6.75 15 15 15h135.868c8.25 0 15-6.75 15-15s0-15 0-15z" fill="#a5f0a3"/><path d="m379.746 262.513v30h67.935c8.25 0 15-6.75 15-15s0-15 0-15z" fill="#87d186"/></g></svg>