<svg id="color_copy" height="512" viewBox="0 0 256 256" width="512" xmlns="http://www.w3.org/2000/svg" data-name="color copy"><path d="m48.58 36.8369h161.068a27.7412 27.7412 0 0 1 27.742 27.7412v104.1632a0 0 0 0 1 0 0h-216.5507a0 0 0 0 1 0 0v-104.1632a27.7412 27.7412 0 0 1 27.7407-27.7412z" fill="#ff7c1e"/><path d="m129.404 197.012h20.864v-143.06h-4.637l-9.852-31.876h-13.329l-9.853 31.876h-4.636v143.06h20.864z" fill="#1da441"/><path d="m112.597 53.952h-4.636v143.06h20.864.579 20.864v-143.06h-4.637z" fill="#1da441"/><path d="m104.632 69.44h48.965v146.385h-48.965z" fill="#56cc56"/><path d="m104.632 89.545h48.965v13.871h-48.965z" fill="#1da441"/><ellipse cx="129.114" cy="152.292" fill="#1da441" rx="12.445" ry="37.31"/><path d="m62.826 197.012h20.863v-143.06h-4.636l-9.853-31.876h-13.329l-9.852 31.876h-4.637v143.06h20.864z" fill="#b22d28"/><path d="m46.019 53.952h-4.637v143.06h20.864.58 20.863v-143.06h-4.636z" fill="#b22d28"/><path d="m38.053 69.44h48.965v146.385h-48.965z" fill="#ff4a44"/><path d="m38.053 89.545h48.965v13.871h-48.965z" fill="#b22d28"/><ellipse cx="62.536" cy="152.292" fill="#b22d28" rx="12.445" ry="37.31"/><path d="m195.983 197.012h20.864v-143.06h-4.637l-9.852-31.876h-13.329l-9.853 31.876h-4.636v143.06h20.863z" fill="#0e5f87"/><path d="m179.176 53.952h-4.636v143.06h20.863.58 20.864v-143.06h-4.637z" fill="#0e5f87"/><path d="m171.211 69.44h48.965v146.385h-48.965z" fill="#2a8bbe"/><path d="m171.211 89.545h48.965v13.871h-48.965z" fill="#0e5f87"/><ellipse cx="195.693" cy="152.292" fill="#0e5f87" rx="12.445" ry="37.31"/><path d="m20.8393 100.6416v125.0229a11.0965 11.0965 0 0 0 11.0964 11.0965h194.3574a11.0965 11.0965 0 0 0 11.0969-11.0965v-125.0229zm167.1639 59.7005h-117.7775a19.1414 19.1414 0 0 1 -19.1414-19.1414 19.1414 19.1414 0 0 1 19.1414-19.1414h117.7774a19.1414 19.1414 0 0 1 19.1414 19.1414 19.1414 19.1414 0 0 1 -19.1414 19.1414z" fill="#ffc139"/><g fill="#ff7c1e"><path d="m129.114 176.395 6.779 13.734 15.157 2.203-10.968 10.691 2.589 15.095-13.557-7.127-13.556 7.127 2.589-15.095-10.968-10.691 15.157-2.203z"/><path d="m66.419 181.672 5.064 10.26 11.323 1.646-8.193 7.986 1.934 11.277-10.128-5.324-10.127 5.324 1.934-11.277-8.193-7.986 11.323-1.646z"/><path d="m191.81 181.672 5.063 10.26 11.323 1.646-8.193 7.986 1.934 11.277-10.127-5.324-10.128 5.324 1.934-11.277-8.193-7.986 11.323-1.646z"/></g></svg>