<svg id="color_copy" height="512" viewBox="0 0 256 256" width="512" xmlns="http://www.w3.org/2000/svg" data-name="color copy"><path d="m119.671 129.886h16.61v107.976h-16.61z" fill="#ff7c1e"/><path d="m82.744 53.76h90.464v90.464h-90.464z" fill="#0e5f87" transform="matrix(.707 -.707 .707 .707 -32.514 119.487)"/><g fill="#2a8bbe"><path d="m127.9782 98.9938h-61.4082a16.61 16.61 0 0 1 -16.61-16.61v-61.4087z"/><path d="m127.9743 98.9938v-61.4086a16.61 16.61 0 0 1 16.61-16.61h61.4086z"/><path d="m127.9782 98.99v61.4086a16.61 16.61 0 0 1 -16.61 16.61h-61.4087z"/><path d="m127.9743 98.99h61.4086a16.61 16.61 0 0 1 16.61 16.61v61.4086z"/></g><circle cx="127.976" cy="98.992" fill="#ffc139" r="18.124"/></svg>