<svg id="color_copy" height="512" viewBox="0 0 256 256" width="512" xmlns="http://www.w3.org/2000/svg" data-name="color copy"><path d="m53.89 211.2121 18.1966 10.5058a44.285 44.285 0 0 0 60.4261-16.1911l35.9409-62.2515-9.5772-5.5294-35.9409 62.2515a33.2139 33.2139 0 0 1 -45.32 12.1433l-18.1955-10.5057z" fill="#b22d28"/><path d="m119.8436 28.198 25.19 4.9978a37.0194 37.0194 0 0 1 28.8607 44.6629l-55.9733-10.7272-47.432 82.1545-31.909-18.4228 51.9789-89.4368a27.6469 27.6469 0 0 1 29.2847-13.2284z" fill="#ff7c1e"/><path d="m50.6043 234.0744 58.5689-101.5554-14.37-8.287-58.5686 101.5551a8.2941 8.2941 0 0 0 3.0413 11.3286 8.2941 8.2941 0 0 0 11.3284-3.0413z" fill="#ff7c1e"/><path d="m114.1328 20.6108 2.0847.37a25.5441 25.5441 0 0 1 20.6187 29.9765l32.76 6.5876a38.7056 38.7056 0 0 1 27.4488 21.5883l22.675 48.6268a30.75 30.75 0 0 1 -14.8734 40.8644 30.75 30.75 0 0 1 -40.8644-14.8734l-4.305-9.2321-20.5661-3.7814-20.0106 34.6055-63.0805-37.1918 53.1728-91.8593z" fill="#ffc139"/><path d="m127.3893 143.9288a44.0185 44.0185 0 0 0 13.9907 5.1642l21.2617 3.9463 2.0183-10.8729-21.2617-3.9464a33.245 33.245 0 0 1 -26.7038-27.3693l-9.6045-59.9267a5.5294 5.5294 0 0 0 -6.3348-4.5846 5.5294 5.5294 0 0 0 -4.5846 6.3347l9.6046 59.927a44.3334 44.3334 0 0 0 21.6141 31.3277z" fill="#b22d28"/><circle cx="175.718" cy="100.844" fill="#0e5f87" r="6.444" transform="matrix(.187 -.982 .982 .187 43.83 254.636)"/><path d="m53.803 144.149h73.356v15.482h-73.356z" fill="#2a8bbe" transform="matrix(-.866 -.5 .5 -.866 92.895 328.671)"/><rect fill="#b22d28" height="11.059" rx="5.529" transform="matrix(.906 -.423 .423 .906 -38.652 92.045)" width="72.559" x="151.992" y="127.668"/><circle cx="160.247" cy="145.879" fill="#ff7c1e" r="13.823" transform="matrix(.5 -.866 .866 .5 -46.212 211.717)"/></svg>