<svg id="color_copy" height="512" viewBox="0 0 256 256" width="512" xmlns="http://www.w3.org/2000/svg" data-name="color copy"><path d="m231.415 68.3389a2.99 2.99 0 0 1 -2.1211-.8789l-40.2265-40.2271a3 3 0 0 1 4.2422-4.2422l40.2266 40.2271a3 3 0 0 1 -2.1211 5.1211z" fill="#0e5f87"/><path d="m221.1348 76.8306a2.99 2.99 0 0 1 -2.1211-.8789l-38.4385-38.4385a3 3 0 0 1 4.2422-4.2422l38.4385 38.4385a3 3 0 0 1 -2.1211 5.1211z" fill="#0e5f87"/><path d="m138.1358 196.7517c4.1438-20.6376 5.0457-20.8467 20.6989-31.8417 13.5968-9.5507 16.7388-23.4016 7.1481-39.1887-3.8372-6.3163-10.8014-13.6638-17.0084-18.9166-5.2528-6.207-12.6-13.1713-18.9166-17.0084-15.7871-9.5907-29.638-6.4487-39.1887 7.1481-10.993 15.65-11.2019 16.5526-31.8311 20.6967-112.1038 22.5211 55.4154 197.0563 79.0978 79.1106z" fill="#2a8bbe"/><path d="m209.8908 68.2745 25.1162-18.6758a62.7856 62.7856 0 0 0 -28.0787-28.0787l-18.6759 25.1161a7.2951 7.2951 0 0 0 -1.3606 2.7936l-1.0624 7.9667-76.4775 66.37 23.4088 23.4088 66.37-76.4775 7.9667-1.0624a7.2945 7.2945 0 0 0 2.7934-1.3608z" fill="#ffc139"/><circle cx="102.392" cy="154.135" fill="#0e5f87" r="28.447" transform="matrix(.707 -.707 .707 .707 -79 117.547)"/><path d="m77.8072 178.72a34.7684 34.7684 0 1 1 49.1695 0 34.8076 34.8076 0 0 1 -49.1695 0zm40.2307-40.2307a22.1263 22.1263 0 1 0 0 31.2914 22.1516 22.1516 0 0 0 0-31.2917z" fill="#ff7c1e"/></svg>