<svg id="color_copy" height="512" viewBox="0 0 256 256" width="512" xmlns="http://www.w3.org/2000/svg" data-name="color copy"><g fill="#ff7c1e"><path d="m107.1406 47.7564 13.3135-23.06a2.75 2.75 0 0 1 4.7631 0l13.3135 23.06z"/><path d="m138.0226 47.729 22.6148-14.0558a2.75 2.75 0 0 1 4.2 2.2463l.8652 26.6129z"/><path d="m164.9725 61.9424 26.5737 1.6834a2.75 2.75 0 0 1 2.116 4.2673l-14.7447 22.1718z"/><path d="m178.0416 89.233 23.07 13.2946a2.75 2.75 0 0 1 .0039 4.7631l-23.0487 13.3323z"/><path d="m178.0416 119.8157 23.07 13.2946a2.75 2.75 0 0 1 .0039 4.7631l-23.0487 13.3323z"/><path d="m177.2321 150.7035 22.8713 10.2365a2.75 2.75 0 0 1 .4887 4.738l-20.3 14.6891z"/><path d="m181.085 180.0427 21.0814 3.6909a2.75 2.75 0 0 1 1.76 4.3118l-12.7858 17.8228z"/><path d="m191.0139 205.6133 17.3689-2.1522a2.75 2.75 0 0 1 2.9615 3.554l-5.4843 17.4413z"/><path d="m207.5376 223.2174 13.6025-5.13a2.8267 2.8267 0 0 1 3.8221 2.7528l-.5565 14.574-12.3557-2.9122z"/></g><path d="m224.6228 235.5152a85.2051 85.2051 0 0 1 -44.175-74.6755v-67.0728a48.5439 48.5439 0 0 0 -48.544-48.5439h-67.0938a33.9808 33.9808 0 0 0 -33.9807 33.9807v9.709a43.69 43.69 0 0 0 43.69 43.69h22.4328l-18.63 28.4107a48.1123 48.1123 0 0 0 2.5991 56.3488l-9.8523 1.87a16.5745 16.5745 0 0 0 -13.4845 16.2839h60.7269c.0428 0 .0848-.003.1276-.0032.04 0 .08.0032.1207.0032z" fill="#56cc56"/><circle cx="103.889" cy="72.999" fill="#fff" r="15.534"/><circle cx="98.064" cy="75.912" fill="#ff7c1e" r="7.934"/><path d="m89.9688 105.8208a3 3 0 0 0 -3-3h-53.8653a43.4107 43.4107 0 0 0 2.5293 6h51.336a3 3 0 0 0 3-3z" fill="#ff7c1e"/><path d="m142.584 204.6865a3 3 0 0 0 -3 3v6.8569a21.2875 21.2875 0 0 1 -17.8579 20.9717h13.998a27.2254 27.2254 0 0 0 9.86-20.9717v-6.8569a3 3 0 0 0 -3.0001-3z" fill="#1da441"/><path d="m142.584 162.8291h-11.4607l-.0042-1.8306 11.4717-.0254a3 3 0 0 0 -.0068-6h-.0068l-14.4717.0322a3 3 0 0 0 -2.9932 3.0068l.0166 7.2349a7.1372 7.1372 0 0 1 -7.1133 7.1455h-.0156a7.1379 7.1379 0 0 1 -7.13-7.1133l-.0293-13.0244a11.4818 11.4818 0 0 1 11.4435-11.4948l20.2607-.0459a3 3 0 0 0 -.0068-6h-.0068l-20.2607.0459a17.4887 17.4887 0 0 0 -17.43 17.5083l.0237 10.5605h-2.3108a27.2731 27.2731 0 0 0 -26.6562 33.0371l4.3371 20.0541a3 3 0 0 0 5.8656-1.2686l-4.3369-20.0537a21.2711 21.2711 0 0 1 20.791-25.7686h2.8221a13.143 13.143 0 0 0 12.6238 9.5635h.0293a13.1441 13.1441 0 0 0 12.5952-9.5635h11.9595a3 3 0 1 0 0-6z" fill="#1da441"/></svg>