<svg id="color_copy" height="512" viewBox="0 0 256 256" width="512" xmlns="http://www.w3.org/2000/svg" data-name="color copy"><rect fill="#2a8bbe" height="72.378" rx="6.635" transform="matrix(0 1 -1 0 270.904 156.664)" width="21.51" x="46.365" y="177.595"/><rect fill="#ff4a44" height="72.378" rx="6.635" transform="matrix(0 1 -1 0 343.093 84.475)" width="21.51" x="118.554" y="177.595"/><rect fill="#56cc56" height="72.378" rx="6.635" transform="matrix(0 1 -1 0 415.281 12.286)" width="21.51" x="190.743" y="177.595"/><path d="m38.743 77.5959 54.0457-41.0454a11.0589 11.0589 0 0 1 13.3771 0l54.0457 41.0454a6.6354 6.6354 0 0 1 -4.0131 11.92h-113.4423a6.6354 6.6354 0 0 1 -4.0131-11.92z" fill="#56cc56"/><rect fill="#ffc139" height="72.262" rx="6.635" width="35.622" x="36.884" y="130.827"/><rect fill="#ffc139" height="72.262" rx="6.635" width="35.622" x="126.448" y="130.827"/><path d="m36.8844 96.3935v27.6855a6.6354 6.6354 0 0 0 6.6354 6.6354h23.1228a6.6832 6.6832 0 0 0 6.5009-5.3093 26.968 26.968 0 0 1 52.6676 0 6.6832 6.6832 0 0 0 6.5009 5.3093h23.1228a6.6354 6.6354 0 0 0 6.6354-6.6354v-27.6855a6.6354 6.6354 0 0 0 -6.6354-6.6354h-111.9148a6.6354 6.6354 0 0 0 -6.6356 6.6354z" fill="#2a8bbe"/><path d="m163.6335 134.1545 22.5251-28.2781a6.6354 6.6354 0 0 1 10.38 0l22.5251 28.2781a6.6354 6.6354 0 0 1 -5.19 10.77h-45.05a6.6354 6.6354 0 0 1 -5.1902-10.77z" fill="#ff4a44"/><path d="m162.29 151.6068v44.847a6.6354 6.6354 0 0 0 6.6354 6.6354h44.847a6.6354 6.6354 0 0 0 6.6354-6.6354v-44.847a6.6354 6.6354 0 0 0 -6.6354-6.6354h-44.847a6.6354 6.6354 0 0 0 -6.6354 6.6354z" fill="#2a8bbe"/><circle cx="191.349" cy="174.03" fill="#fff" r="18.247"/></svg>