<svg id="color_copy" height="512" viewBox="0 0 256 256" width="512" xmlns="http://www.w3.org/2000/svg" data-name="color copy"><path d="m90.445 183.661h77.339v53.801h-77.339z" fill="#ff7c1e"/><path d="m231.4767 110.48a20.6407 20.6407 0 0 0 -29.19 0l-31.8128 31.8128c-10.9828-12.8165-25.4731-18.021-41.3592-18.021s-30.3764 5.2046-41.3592 18.021l-31.813-31.8128a20.6407 20.6407 0 0 0 -29.19 0 20.6407 20.6407 0 0 0 0 29.19l27.23 27.23a41.2284 41.2284 0 0 1 11.3657 37.2346 86.6411 86.6411 0 0 0 -1.8917 17.199h131.3164a86.6411 86.6411 0 0 0 -1.8917-17.199 41.2284 41.2284 0 0 1 11.3657-37.2346l27.23-27.23a20.6407 20.6407 0 0 0 -.0002-29.19z" fill="#ffc139"/><path d="m192.9655 62.4285h18.0456c0-11.7281-12.8439-21.2357-24.5719-21.2364h8.618a21.2364 21.2364 0 0 0 -21.2364-21.2364h-34.0708a10.636 10.636 0 0 0 -10.6359 10.6359 10.6359 10.6359 0 0 0 -10.6359-10.6359h-34.07a21.2364 21.2364 0 0 0 -21.2365 21.2363h8.6183c-11.728.0007-24.5719 9.5083-24.5719 21.2364h18.0453c-11.7285 0-18.0456 9.5078-18.0456 21.2364h24.4271c-11.7285 0-19.641 9.5078-19.641 21.2364h26.0226c-11.7285 0-19.641 9.5079-19.641 21.2364h29.2133c-11.7285 0-18.0456 9.5078-18.0456 21.2364h119.1225c0-11.7285-6.3171-21.2364-18.0456-21.2364h29.2133c0-11.7285-7.9125-21.2364-19.641-21.2364h26.0226c0-11.7285-7.9125-21.2364-19.641-21.2364h24.4272c-.0001-11.7285-6.3172-21.2363-18.0457-21.2363z" fill="#b22d28"/><path d="m105.4762 34.2813a14.6451 14.6451 0 0 1 14.6451 14.6451v21.9677a0 0 0 0 1 0 0h-29.29a0 0 0 0 1 0 0v-21.9677a14.6451 14.6451 0 0 1 14.6449-14.6451z" fill="#ffc139"/><path d="m138.1075 34.2813h29.29a0 0 0 0 1 0 0v21.9677a14.6451 14.6451 0 0 1 -14.6451 14.6451 14.6451 14.6451 0 0 1 -14.6449-14.6451v-21.9677a0 0 0 0 1 0 0z" fill="#ffc139" transform="matrix(-1 0 0 -1 305.505 105.175)"/><path d="m95.0913 132.8127h68.0463a0 0 0 0 1 0 0v10.8706a11.8347 11.8347 0 0 1 -11.8347 11.8347h-44.3769a11.8347 11.8347 0 0 1 -11.8347-11.8347v-10.8706a0 0 0 0 1 0 0z" fill="#b22d28"/><path d="m99.3476 126.1391h59.5336a0 0 0 0 1 0 0v11.6356a11.07 11.07 0 0 1 -11.07 11.07h-37.3939a11.07 11.07 0 0 1 -11.07-11.07v-11.6356a0 0 0 0 1 .0003 0z" fill="#ffc139"/><path d="m168.9623 118.658 4.2237-47.8762a16.6841 16.6841 0 0 0 -16.62-18.15h-54.9036a16.6841 16.6841 0 0 0 -16.62 18.15l4.2237 47.8762a5.5614 5.5614 0 0 0 5.54 5.0726h68.616a5.5614 5.5614 0 0 0 5.5402-5.0726z" fill="#ffc139"/><circle cx="108.731" cy="87.162" fill="#0e5f87" r="5.16"/><circle cx="149.498" cy="87.162" fill="#0e5f87" r="5.16"/><path d="m129.1144 123.547v.8616a19.7821 19.7821 0 0 0 19.7821 19.7821 19.7821 19.7821 0 0 0 19.709-18.0832l.1443-1.6742a10.3206 10.3206 0 0 0 -10.2824-11.2069h-19.0324a10.3206 10.3206 0 0 0 -10.3206 10.3206z" fill="#ff7c1e"/><path d="m89.479 124.4333.1443 1.6742a19.7821 19.7821 0 0 0 19.709 18.0832 19.7821 19.7821 0 0 0 19.7821-19.7821v-.8616a10.3206 10.3206 0 0 0 -10.3206-10.3206h-19.0324a10.3206 10.3206 0 0 0 -10.2824 11.2069z" fill="#ff7c1e"/><path d="m129.1144 139.2324a11.5632 11.5632 0 0 1 -11.2916-9.0717l-1.2586-5.7038a5.16 5.16 0 0 1 5.0391-6.2722h15.0222a5.16 5.16 0 0 1 5.0391 6.2722l-1.2586 5.7038a11.5632 11.5632 0 0 1 -11.2916 9.0717z" fill="#0e5f87"/></svg>