<svg id="color_copy" height="512" viewBox="0 0 256 256" width="512" xmlns="http://www.w3.org/2000/svg" data-name="color copy"><path d="m215.5937 98.1728a50.2589 50.2589 0 0 0 -20.8973-8.8938l-.6289 4.5928a33.0045 33.0045 0 0 0 -16.932-5.0437l1.9868-4.1883a50.2589 50.2589 0 0 0 -22.3577-3.991c-9.55.4307-22.6585 3.7437-34.9452 15.9647a10.0011 10.0011 0 0 0 1.1516 15.1965 9.9768 9.9768 0 0 0 12.8934-.999 35.3441 35.3441 0 0 1 12.9009-8.4439 41.0091 41.0091 0 0 0 -7.76 14.5483c-6.06 20.3448 4.2344 41.3676 22.9939 46.9557s38.88-6.3746 44.94-26.7194a41.0083 41.0083 0 0 0 1.4648-16.43 35.3193 35.3193 0 0 1 6.179 14.1328 9.976 9.976 0 0 0 10.2448 7.8922 10.0006 10.0006 0 0 0 9.279-12.0886c-3.5968-16.9528-12.755-26.8987-20.5131-32.4853z" fill="#ffc139"/><g fill="#ff7c1e"><path d="m221.2158 88.0482c-5.8163 19.5256-22.9068 23.055-41.08 17.6417s-30.5458-17.7199-24.7294-37.2451c4.5148-15.1565 22.9068-23.055 41.08-17.6417s29.2442 22.0886 24.7294 37.2451z"/><circle cx="175.349" cy="44.352" r="11.54" transform="matrix(.285 -.958 .958 .285 82.784 199.742)"/><circle cx="216.173" cy="56.512" r="11.54" transform="matrix(.285 -.958 .958 .285 100.298 247.555)"/></g><path d="m222.4858 83.3085c-5.8163 19.5256-22.9068 23.055-41.08 17.6417s-30.5462-17.7194-24.73-37.245c4.5148-15.1565 22.9068-23.055 41.08-17.6417s29.2448 22.0884 24.73 37.245z" fill="#ffc139"/><path d="m185.4631 70.2312h4.0563a13.9565 13.9565 0 0 1 13.9565 13.9565 8.7228 8.7228 0 0 1 -8.7228 8.7228h-14.5237a8.7228 8.7228 0 0 1 -8.7228-8.7228 13.9565 13.9565 0 0 1 13.9565-13.9565z" fill="#b22d28" transform="matrix(.958 .286 -.286 .958 31.09 -50.131)"/><path d="m189.6456 74.5328a7.2445 7.2445 0 0 0 -4.0521-.0721 4.544 4.544 0 0 0 -3.21 3.0084c-.782 2.6261 1.1824 5.451 4.4721 6.431a7.7733 7.7733 0 0 0 2.2086.3274 6.5538 6.5538 0 0 0 1.8435-.2552 4.5437 4.5437 0 0 0 3.21-3.0082c.7823-2.626-1.1821-5.4509-4.4721-6.4313z" fill="#ff7c1e"/><path d="m207.4 66.9545a4.1411 4.1411 0 1 0 -4.825 5.9388 4.1162 4.1162 0 0 0 3.1531-.3263 4.1411 4.1411 0 0 0 1.6719-5.6125z" fill="#2a8bbe"/><path d="m180.9739 57.7224a4.1412 4.1412 0 0 0 -2.3639 7.9376 4.1154 4.1154 0 0 0 3.1525-.3267 4.1411 4.1411 0 0 0 -.7884-7.6111z" fill="#2a8bbe"/><circle cx="122.598" cy="138.11" fill="#ff7c1e" r="47.84" transform="matrix(.996 -.086 .086 .996 -11.418 11.049)"/><path d="m106.8356 113.0161s-9.1356-7.6843-22.7356-3.3029a47.8477 47.8477 0 0 0 .4822 57.4477l42.8066-25.4172z" fill="#1da441"/><path d="m109.92 110.3666 7.8189 34.4468 51.693-16.4675a47.8841 47.8841 0 0 0 -37.9387-37.2527c-14.6732.1627-21.5732 19.2734-21.5732 19.2734z" fill="#1da441"/><path d="m163.7139 113.6342c-9.6576-9.7756-37.3721-9.6959-50.5279 8.3653l35.8734 55.975a47.8774 47.8774 0 0 0 14.6545-64.34z" fill="#ff4a44"/><path d="m113.3612 123.1849c-19.5235-1.9007-30.8206 10.66-37.358 25.7825a47.8482 47.8482 0 0 0 50.7068 36.8059c1.3908-.12 2.761-.3018 4.1114-.5359z" fill="#ff4a44"/><path d="m158.7547 169.4319c-9.3083-50.6839-45.5869-48.49-45.5869-48.49s-22.6659 31.8917 4.2372 64.7312a47.89 47.89 0 0 0 41.35-16.2416z" fill="#ff7c1e"/><circle cx="111.372" cy="119.307" fill="#0e5f87" r="12.945" transform="matrix(.996 -.086 .086 .996 -9.843 10.015)"/><path d="m27.8608 34.7889h16.8092a0 0 0 0 1 0 0v40.0756a5.655 5.655 0 0 1 -5.655 5.655h-5.4992a5.655 5.655 0 0 1 -5.655-5.655v-40.0756a0 0 0 0 1 0 0z" fill="#b22d28" transform="matrix(-.866 .5 -.5 -.866 96.5 89.452)"/><path d="m127.8633 173.9924-69.1075-99.4617-9.56 5.5195 69.8723 121.0223z" fill="#0e5f87"/><path d="m91.2185 195.1493 27.85 5.9232-69.8727-121.0225-9.56 5.5195z" fill="#2a8bbe"/><path d="m31.7108 66.8676h28.7934a0 0 0 0 1 0 0v7.1983a8.4686 8.4686 0 0 1 -8.4686 8.4686h-11.8561a8.4686 8.4686 0 0 1 -8.4686-8.4686v-7.1983a0 0 0 0 1 -.0001 0z" fill="#ff4a44" transform="matrix(-.866 .5 -.5 -.866 123.388 116.34)"/><path d="m40.99 84.132 15.844-9.1478a23.408 23.408 0 0 1 31.976 8.5679 5.655 5.655 0 0 1 -2.07 7.7248 5.655 5.655 0 0 1 -7.7248-2.07 12.098 12.098 0 0 0 -16.5262-4.4282l-15.8445 9.148a12.098 12.098 0 0 0 -4.4282 16.5262 5.655 5.655 0 0 1 -2.07 7.7248 5.655 5.655 0 0 1 -7.7248-2.07 23.408 23.408 0 0 1 8.5685-31.9757z" fill="#b22d28"/><path d="m205.41 124.9454h-152.6775a5.4522 5.4522 0 0 0 -5.4522 5.4522v77.8537a16.3565 16.3565 0 0 0 16.3565 16.3565h130.8685a16.3565 16.3565 0 0 0 16.3565-16.3565v-77.8537a5.4522 5.4522 0 0 0 -5.4518-5.4522zm-56.1659 33.3146h-40.346a8.1783 8.1783 0 0 1 0-16.3565h40.3461a8.1783 8.1783 0 0 1 0 16.3565z" fill="#56cc56"/><path d="m126.919 170.219 6.661 13.496 14.894 2.165-10.778 10.505 2.545 14.834-13.322-7.003-13.322 7.003 2.544-14.834-10.777-10.505 14.894-2.165z" fill="#0e5f87"/><path d="m75.123 176.936 4.479 9.074 10.014 1.455-7.246 7.064 1.71 9.973-8.957-4.709-8.957 4.709 1.711-9.973-7.247-7.064 10.015-1.455z" fill="#0e5f87"/><path d="m178.714 176.936 4.479 9.074 10.014 1.455-7.246 7.064 1.71 9.973-8.957-4.709-8.957 4.709 1.711-9.973-7.246-7.064 10.014-1.455z" fill="#0e5f87"/></svg>