<svg id="color_copy" height="512" viewBox="0 0 256 256" width="512" xmlns="http://www.w3.org/2000/svg" data-name="color copy"><path d="m69.084 178h22.026a0 0 0 0 1 0 0v54.3753a5.5485 5.5485 0 0 1 -5.5485 5.5485h-10.929a5.5485 5.5485 0 0 1 -5.5485-5.5485v-54.3753a0 0 0 0 1 0 0z" fill="#b22d28" transform="matrix(.866 .5 -.5 .866 114.712 -12.187)"/><path d="m152.1058 27.7925-67.5923 143.59 12.5271 7.2325 91.5584-158.584z" fill="#2a8bbe"/><path d="m200.124 55.5158-11.525-35.4848-91.5584 158.5838 12.5271 7.2325z" fill="#0e5f87"/><path d="m76.352 171.5089h37.73a0 0 0 0 1 0 0v9.4325a11.097 11.097 0 0 1 -11.097 11.097h-15.536a11.097 11.097 0 0 1 -11.097-11.097v-9.4325a0 0 0 0 1 0 0z" fill="#ff4a44" transform="matrix(.866 .5 -.5 .866 103.644 -23.255)"/><path d="m108.9714 184.2239-22.7538-13.1369a22.9672 22.9672 0 0 1 -8.4066-31.3738 5.5485 5.5485 0 0 1 7.5794-2.0309 5.5485 5.5485 0 0 1 2.0309 7.5794 11.87 11.87 0 0 0 4.3448 16.215l22.7539 13.1369a11.87 11.87 0 0 0 16.215-4.3448 5.5485 5.5485 0 0 1 7.5794-2.0309 5.5485 5.5485 0 0 1 2.0309 7.5794 22.9672 22.9672 0 0 1 -31.3739 8.4066z" fill="#b22d28"/><g fill="#ffc139"><path d="m82.0767 186.3433a2.975 2.975 0 0 0 -1.4156-1.3846l-3.2181 5.574 11.6359 23.8988 3.62-6.2708z"/><path d="m73.0708 199.3a3 3 0 0 0 -.364-.5645l-3.572 6.187 11.6359 23.8988 3.62-6.2708z"/><path d="m64.447 213.0421-3.62 6.2708 8.2082 16.8589.814.47a5.5441 5.5441 0 0 0 5.9583-.267z"/></g></svg>