<svg id="color_copy" height="512" viewBox="0 0 256 256" width="512" xmlns="http://www.w3.org/2000/svg" data-name="color copy"><path d="m77.7272 237.1791c-3.2369-1.8688 1.7449-16.5575 3.6137-19.7944l19.9675-34.5847 11.7218 6.7676-19.9674 34.5848c-1.8688 3.2369-12.0987 14.8956-15.3356 13.0267z" fill="#b22d28"/><path d="m178.7823 19.0221h10.9787a5.5519 5.5519 0 0 1 5.5519 5.5519v61.6815a0 0 0 0 1 0 0h-22.0829a0 0 0 0 1 0 0v-61.6815a5.5519 5.5519 0 0 1 5.5519-5.5519z" fill="#b22d28" transform="matrix(.866 .5 -.5 .866 51.007 -85.084)"/><path d="m186.0055 180.6721c-22.1635 38.3879-81.958 45.3589-96.8709 36.7489s-38.7734-63.8789-16.61-102.2671z" fill="#2a8bbe"/><path d="m49.3359 81.35a32.2718 32.2718 0 0 0 -23.2031 40.1889 50.6464 50.6464 0 0 0 23.3683 29.9256l116.5706 67.302a50.6464 50.6464 0 0 0 37.6005 5.2747 32.2718 32.2718 0 0 0 23.2031-40.1889 50.6464 50.6464 0 0 0 -23.3683-29.9256l-116.5706-67.3024a50.6464 50.6464 0 0 0 -37.6005-5.2743z" fill="#56cc56"/><g fill="#0e5f87"><path d="m216.1006 164.8865-14.0815-21.099a67.6761 67.6761 0 0 1 -10.3263-49.4942l.3213-1.7949a13.5352 13.5352 0 0 0 -6.5558-14.107l-24.0824-13.904a13.5352 13.5352 0 0 0 -15.4949 1.376l-1.3937 1.1757a67.6761 67.6761 0 0 1 -48.0264 15.8043l-25.3132-1.6455 43.53 25.1322-5.3138 9.2037 57.8925 33.4243 5.3138-9.2037z"/><path d="m133.203 141.091-.814 12.483 9.822 7.748-12.124 3.083-4.333 11.734-6.679-10.577-12.499-.495 7.996-9.62-3.392-12.041 11.62 4.632z"/><path d="m74.304 107.086-.814 12.483 9.821 7.747-12.123 3.083-4.333 11.735-6.679-10.578-12.499-.495 7.996-9.62-3.392-12.04 11.62 4.632z"/><path d="m192.103 175.097-.815 12.483 9.822 7.747-12.124 3.083-4.333 11.735-6.678-10.578-12.5-.495 7.996-9.62-3.392-12.04 11.62 4.632z"/></g><path d="m190.7081 109.3092-58.7326-33.9092a67.6793 67.6793 0 0 1 -26.4079 7.417l91.9211 53.0706a67.6793 67.6793 0 0 1 -6.7806-26.5784z" fill="#56cc56"/></svg>