<svg id="color_copy" height="512" viewBox="0 0 256 256" width="512" xmlns="http://www.w3.org/2000/svg" data-name="color copy"><path d="m42.3014 128.8674h-10.6075l-6.3284-55.5018a11.7075 11.7075 0 0 1 11.6322-13.0338 11.7075 11.7075 0 0 1 11.6323 13.0338z" fill="#ff7c1e"/><path d="m42.3014 128.55h-10.6075l-6.3284 55.5018a11.7075 11.7075 0 0 0 11.6321 13.0338 11.7075 11.7075 0 0 0 11.6324-13.0341z" fill="#ff7c1e"/><g fill="#0e5f87"><path d="m32.6451 119.08h15.3509a0 0 0 0 1 0 0v19.2562a0 0 0 0 1 0 0h-15.3509a9.487 9.487 0 0 1 -9.487-9.487v-.2821a9.487 9.487 0 0 1 9.487-9.4871z"/><path d="m215.1537 63.9883a10.97 10.97 0 0 0 -9.2331 5.0464l-36.6721 57.162h50.51l6.2792-49.8681a10.97 10.97 0 0 0 -10.884-12.3403z"/><path d="m215.1537 193.4288a10.97 10.97 0 0 1 -9.2331-5.0464l-36.6722-57.1624h50.51l6.2792 49.8681a10.97 10.97 0 0 1 -10.8839 12.3407z"/><path d="m141.7213 106.6262h-57.5329l24.6743-73.999a16.5 16.5 0 0 1 15.6528-11.2807h11.7057a5.5 5.5 0 0 1 5.5 5.5z"/><path d="m141.7213 150.7909h-57.5329l24.6743 73.999a16.5 16.5 0 0 0 15.6528 11.2807h11.7057a5.5 5.5 0 0 0 5.5-5.5z"/></g><path d="m220.9556 128.7085a23.9506 23.9506 0 0 1 -21.7423 23.8486l-114.554 10.6078a34.6037 34.6037 0 0 1 -37.7943-34.4563 34.6037 34.6037 0 0 1 37.7943-34.4564l114.5541 10.6078a23.9506 23.9506 0 0 1 21.7422 23.8485z" fill="#2a8bbe"/><rect fill="#0e5f87" height="11.164" rx="5.5" width="40.193" x="195.835" y="123.127"/><rect fill="#ff7c1e" height="35.169" rx="17.584" width="67.114" x="81.055" y="111.124"/></svg>