<svg id="color_copy" height="512" viewBox="0 0 256 256" width="512" xmlns="http://www.w3.org/2000/svg" data-name="color copy"><path d="m103.335 112.657h-35.381l-7.697-42.839h50.775z" fill="#56cc56"/><path d="m103.335 51.397h-35.381l-7.697 18.421h50.775z" fill="#2a8bbe"/><path d="m52.9411 105.8713h98.8758a0 0 0 0 1 0 0v91.8328a0 0 0 0 1 0 0h-112.6485a19.2818 19.2818 0 0 1 -19.2818-19.2818v-39.4965a33.0545 33.0545 0 0 1 33.0545-33.0545z" fill="#0e5f87"/><path d="m53.394 105.871h64.501v91.833h-64.501z" fill="#2a8bbe"/><path d="m142.759 58.013h83.427v139.691h-83.427z" fill="#2a8bbe" transform="matrix(-1 0 0 -1 368.945 255.717)"/><path d="m158.279 71.956h52.387v42.693h-52.387z" fill="#fff" transform="matrix(-1 0 0 -1 368.945 186.606)"/><path d="m133.0587 31.4564h102.828a0 0 0 0 1 0 0v.3443a27.5454 27.5454 0 0 1 -27.5454 27.5454h-47.7373a27.5454 27.5454 0 0 1 -27.5454-27.5454v-.3443a0 0 0 0 1 0 0z" fill="#56cc56" transform="matrix(-1 0 0 -1 368.945 90.803)"/><circle cx="184.473" cy="177.206" fill="#ff7c1e" r="48.754"/><circle cx="184.473" cy="177.206" fill="#fff" r="11.035"/><circle cx="85.645" cy="194.668" fill="#ff7c1e" r="31.293"/><circle cx="85.645" cy="194.668" fill="#fff" r="11.035"/></svg>