<svg id="color_copy" height="512" viewBox="0 0 256 256" width="512" xmlns="http://www.w3.org/2000/svg" data-name="color copy"><path d="m118.9354 61.47v-5.0777a5.5143 5.5143 0 0 0 -5.5143-5.5143h-42.1273a5.5143 5.5143 0 0 0 -5.5138 5.5143v17.6458l-.8707 72.7887 24.6323-.4606h141.115a5.5143 5.5143 0 0 0 5.5143-5.5143v-62.8391a11.0286 11.0286 0 0 0 -11.0286-11.0286h-100.6923a5.5143 5.5143 0 0 1 -5.5146-5.5142z" fill="#56cc56"/><path d="m89.7725 136.12v-63.6215a5.5143 5.5143 0 0 0 -5.5143-5.5143h-13.4848a51.2692 51.2692 0 0 0 -51.2692 51.2692v54.0051a11.0286 11.0286 0 0 0 11.0286 11.0285h178.9179a11.0286 11.0286 0 0 0 11.0286-11.0286v-25.8845h-120.453a10.2538 10.2538 0 0 1 -10.2538-10.2539z" fill="#ff7c1e"/><circle cx="67.649" cy="182.853" fill="#ffc139" r="23.686"/><circle cx="175.643" cy="182.853" fill="#ffc139" r="23.686"/><path d="m74.47 133.0138c-.041-11.4539-.0672-37.4722-.0758-47.0354a3.6176 3.6176 0 0 0 -3.6214-3.6137 35.8884 35.8884 0 0 0 -35.8884 35.8884v14.7769a5.5143 5.5143 0 0 0 5.5143 5.5143h28.5597a5.5109 5.5109 0 0 0 5.5116-5.5305z" fill="#fff"/><g fill="#1da441"><rect height="55.888" rx="6.409" width="12.817" x="106.64" y="79.718"/><rect height="55.888" rx="6.409" width="12.817" x="131.762" y="79.718"/><rect height="55.888" rx="6.409" width="12.817" x="156.883" y="79.718"/><rect height="55.888" rx="6.409" width="12.817" x="182.005" y="79.718"/><rect height="55.888" rx="6.409" width="12.817" x="207.127" y="79.718"/></g></svg>