<svg id="color_copy" height="512" viewBox="0 0 256 256" width="512" xmlns="http://www.w3.org/2000/svg" data-name="color copy"><path d="m236.3311 240.1323a3.0008 3.0008 0 0 1 -2.8955-2.2246l-19.11-71.3188a16.0995 16.0995 0 0 0 -19.6956-11.3706l-10.417 2.7915a16.0991 16.0991 0 0 0 -11.3711 19.6943l3.65 13.623a22.08 22.08 0 1 1 -42.6562 11.43l-15.2441-56.894a3 3 0 1 1 5.7949-1.5527l15.2441 56.894a16.0812 16.0812 0 0 0 31.0664-8.3242l-3.65-13.623a22.0812 22.0812 0 0 1 15.6133-27.043l10.417-2.7915a22.1072 22.1072 0 0 1 27.043 15.6138l19.11 71.3188a3.0026 3.0026 0 0 1 -2.8994 3.7773z" fill="#0e5f87"/><path d="m155.81 62.9271-28.459 87.74a5.5309 5.5309 0 0 1 -8.9641 2.4019l-68.5158-61.7556a5.5309 5.5309 0 0 1 -1.0843-6.8784l35.52-61.3873a5.5309 5.5309 0 0 1 7.5482-2.0225l61.455 35.4029a5.5309 5.5309 0 0 1 2.5 6.499z" fill="#ff4a44"/><path d="m153.4868 56.5517-49.498 13.263-13.1988-49.2606a5.5354 5.5354 0 0 0 -5.7952 1.5525l13.199 49.2608-49.4985 13.2632a5.5168 5.5168 0 0 0 .5894 6.054l50.4621-13.5213 20.6479 77.0591a5.5578 5.5578 0 0 0 5.7949-1.553l-20.6479-77.0589 50.4617-13.5212a5.5163 5.5163 0 0 0 -2.5166-5.5376z" fill="#b22d28"/><g fill="#2a8bbe"><path d="m49.1926 85.5179a1.3837 1.3837 0 0 0 -1.4643-.643l-24.3392 5.01a1.3828 1.3828 0 0 0 -.8923 2.0895l8.69 13.84a1.3826 1.3826 0 0 0 1.08.6446c.03.0019.061.003.0913.003a1.3827 1.3827 0 0 0 1.0641-.5l15.65-18.85a1.383 1.383 0 0 0 .1204-1.5941z"/><path d="m57.2686 109.2628-8.0214-23.52a1.3825 1.3825 0 0 0 -1.2968-.9363 1.358 1.358 0 0 0 -1.3125.9136l-8.3136 23.0464a1.3826 1.3826 0 0 0 1.2607 1.8513l16.3351.4732.04.0005a1.3829 1.3829 0 0 0 1.3087-1.8291z"/><path d="m179.2955 48.6554a1.3837 1.3837 0 0 0 -1.2655-.2061l-23.5836 7.83a1.3826 1.3826 0 0 0 -.0438 2.6091l22.9781 8.5a1.3825 1.3825 0 0 0 1.8613-1.2455l.6055-16.3308a1.3824 1.3824 0 0 0 -.552-1.1567z"/><path d="m174.5364 72.2687-18.723-15.802a1.383 1.383 0 0 0 -2.2486 1.3247l4.8131 24.3792a1.3831 1.3831 0 0 0 2.0827.909l13.91-8.5772a1.3828 1.3828 0 0 0 .1658-2.2337z"/><path d="m97.2076 152.2139 5.5878 20.854a2.7655 2.7655 0 0 0 4.6267 1.24l16.3506-16.3507a2.7655 2.7655 0 0 0 -1.3994-4.6644l-21.9384-4.5033a2.7655 2.7655 0 0 0 -3.2273 3.4244z"/><path d="m125.1312 157.5929 22.3353 5.9848a2.7655 2.7655 0 0 0 3.387-3.387l-5.5878-20.854a2.7655 2.7655 0 0 0 -4.5073-1.3522l-16.7475 14.8692a2.7655 2.7655 0 0 0 1.1203 4.7392z"/></g></svg>