<svg id="color_copy" height="512" viewBox="0 0 256 256" width="512" xmlns="http://www.w3.org/2000/svg" data-name="color copy"><g fill="#0e5f87"><circle cx="101.675" cy="211.724" r="24.888"/><circle cx="156.554" cy="211.724" r="24.888"/><circle cx="46.797" cy="211.724" r="24.888"/><circle cx="211.432" cy="211.724" r="24.888"/></g><path d="m129.3252 200.8962a29.8078 29.8078 0 0 0 -24.7677 13.5011 5.127 5.127 0 0 1 -8.6054 0 29.4759 29.4759 0 0 0 -49.6336.1408 2.6223 2.6223 0 0 1 -4.8185-1.6375c.537-13.6163 4.5246-35.2388 23.307-44.859h128.6149c18.7824 9.62 22.77 31.2427 23.307 44.859a2.6223 2.6223 0 0 1 -4.8185 1.6375 29.4759 29.4759 0 0 0 -49.6336-.1408 5.127 5.127 0 0 1 -8.6054 0 29.8078 29.8078 0 0 0 -24.7677-13.5011z" fill="#2a8bbe"/><path d="m135.7242 50.7136h-82.3442v-16.9036a5.7186 5.7186 0 0 1 3.3523-5.2061l8.0212-3.6459a28.593 28.593 0 0 1 15.661-2.3052l50.3566 6.8054a5.7186 5.7186 0 0 1 4.9527 5.6671z" fill="#1da441"/><path d="m219.8161 150.4255-83.2138-33.7355v-53.11h-85.8338l-18.1221 70.6373a57.1877 57.1877 0 0 0 3.7452 32.5127l.8258 1.9268a17.1558 17.1558 0 0 0 15.7686 10.3971h160.2048a13.7654 13.7654 0 0 0 13.7654-13.7654v-4.2637a11.4373 11.4373 0 0 0 -7.1401-10.5993z" fill="#56cc56"/><path d="m34.7716 105.5777 14.5524-59.95a5 5 0 0 1 4.8589-3.8205h80.8506a5 5 0 0 1 5 5v31.2807a5 5 0 0 1 -4.276 4.9473l-24.9756 3.6548a28.593 28.593 0 0 0 -23.0865 19.5586l-5.1564 16.0761a17.1558 17.1558 0 0 1 -28.7758 6.5743l-17.7582-18.699a5 5 0 0 1 -1.2334-4.6223z" fill="#ffc139"/><rect fill="#ff7c1e" height="17.156" rx="5.5" width="76.629" x="67.979" y="55.532"/><rect fill="#0e5f87" height="17.156" rx="5.5" transform="matrix(.866 -.5 .5 .866 -46.515 76.786)" width="60.759" x="89.648" y="116.614"/><path d="m170.0589 160.9208a5.7185 5.7185 0 0 1 -3.1614-7.4436l8.468-20.9718 10.6051 4.2823-8.4679 20.9717a5.7185 5.7185 0 0 1 -7.4438 3.1614z" fill="#0e5f87"/><path d="m149.5987 152.4462a5.7185 5.7185 0 0 1 -3.1614-7.4436l8.468-20.9718 10.6047 4.2822-8.4679 20.9717a5.7185 5.7185 0 0 1 -7.4434 3.1615z" fill="#0e5f87"/><circle cx="101.675" cy="211.724" fill="#2a8bbe" r="9.955"/><circle cx="156.554" cy="211.724" fill="#2a8bbe" r="9.955"/><circle cx="46.797" cy="211.724" fill="#2a8bbe" r="9.955"/><circle cx="211.432" cy="211.724" fill="#2a8bbe" r="9.955"/></svg>