<svg id="color_copy" height="512" viewBox="0 0 256 256" width="512" xmlns="http://www.w3.org/2000/svg" data-name="color copy"><path d="m187.4816 207.4431v-17.9657a8.2928 8.2928 0 0 0 -8.2928-8.2928h-36.4888v11.0571h33.7241v17.9656a8.2928 8.2928 0 0 0 8.2928 8.2928h21.2287v-11.057z" fill="#ff7c1e"/><path d="m72.4184 141.9559-9.5757 5.5285-35.5911-61.6455a5.5285 5.5285 0 0 1 2.0236-7.5521 5.5285 5.5285 0 0 1 7.5521 2.0232z" fill="#ff7c1e"/><path d="m137.6377 144.9375c-.9233-3.6259-4.6937-6.0223-10.2522-6.6257-1.0113-2.15-3.1344-4.0266-6.1693-5.4354a10.9666 10.9666 0 0 0 -3.498-6.2212 9.6392 9.6392 0 0 0 -.9829-6.0708 8.584 8.584 0 0 0 1.137-5.12 7.6808 7.6808 0 0 0 2.6221-3.725 8.9774 8.9774 0 0 0 1.8631.23 6.9731 6.9731 0 0 0 3.4575-.8789c5.3979-3.0273 5.2983-12.7451-.231-22.6045a31.942 31.942 0 0 0 -8.694-10.2233c-3.8491-2.7646-7.5693-3.3887-10.4736-1.7617a7.4562 7.4562 0 0 0 -3.3433 4.199 7.4575 7.4575 0 0 0 -5.327.6629c-2.982 1.6727-4.3444 5.3067-3.9333 10.0858a7.6591 7.6591 0 0 0 -5.7751 2.0343c-2.606 2.5412-2.831 6.8423-.7946 11.7453a7.485 7.485 0 0 0 -4.4266 3.2762c-2.0093 3.3829-.8615 7.926 2.95 12.4109a7.3144 7.3144 0 0 0 -2.9132 3.9622c-1.1278 4.0072 1.5665 8.4078 7.0014 11.8423a7.1781 7.1781 0 0 0 -1.4443 4.1479c-.0554 4.475 4.1282 8.1583 10.9527 9.9534a7.066 7.066 0 0 0 -.1568 3.9011c1.0991 4.3174 6.2852 6.7813 13.1934 6.78a35.5688 35.5688 0 0 0 8.7007-1.1533c10.9548-2.789 18.0642-9.4154 16.5373-15.4115zm-44.7144-25.3262c-4.5435-3.9209-5.4648-7.1729-4.9487-8.042.2357-.3972 1.0347-.7593 2.3555-.8462a37.4663 37.4663 0 0 0 3.7817 4.5347c5.4038 5.54 11.4185 8.6543 16.1294 8.6543a9.6859 9.6859 0 0 0 1.364-.1009 2.4978 2.4978 0 0 1 .1556 1.8714l-.05.0713c-.9647 1.3174-6.8867 1.4741-14.3271-2.9473a31.2489 31.2489 0 0 1 -4.4595-3.1943zm16.4282-37.8779c.5635-.3145 2.0688-.0117 4.0376 1.4023a26.2586 26.2586 0 0 1 6.9614 8.2852c4.1963 7.4814 4.0225 13.5986 2.5293 14.4365a2.419 2.419 0 0 1 -1.8239-.17 34.97 34.97 0 0 0 -12.5109-22.3074 2.4161 2.4161 0 0 1 .8066-1.6466zm-8.67 4.8633a2.42 2.42 0 0 1 1.8245.17 34.9655 34.9655 0 0 0 12.5109 22.3078 2.405 2.405 0 0 1 -.81 1.6459.8381.8381 0 0 1 -.2378.084c-1.9277.3978-6.8719-2.8425-10.7578-9.7716a30.2949 30.2949 0 0 1 -2.7539-6.5518c-1.2782-4.5757-.6224-7.4097.2238-7.8843zm-8.4544 11.1816c.3669-.3569 1.41-.4832 2.9487-.1a36.8212 36.8212 0 0 0 2.8018 6.29c3.8737 6.9071 9.2042 11.6312 13.9091 12.6469a1.606 1.606 0 0 1 -.347.9605.7233.7233 0 0 1 -.1138.0869l-.002.001c-1.396.9238-7.0957-.5264-13.0166-6.5957a30.6772 30.6772 0 0 1 -3.9414-4.9395c-2.918-4.5984-2.898-7.7065-2.2388-8.3501zm-3.5981 28.7246c.1084-.3847.6657-.8741 1.6757-1.2811a38.0654 38.0654 0 0 0 4.0143 2.743c4.6548 2.7656 10.0332 4.5957 14.5107 4.5957a11.2137 11.2137 0 0 0 5.1765-1.1166c1.0552 1.1754 1.3659 2.097 1.259 2.5073l-.0173.0518c-.4863 1.6367-6.4067 3.2295-14.6221.9189a31.8261 31.8261 0 0 1 -4.3389-1.5605c-5.9469-2.6505-7.9485-5.8243-7.658-6.8585zm5.7817 14.44c.0038-.3286.2979-.8592 1.0225-1.4631 1.1593.4525 2.3436.8727 3.5679 1.217a35.5283 35.5283 0 0 0 9.5313 1.415c4.7287 0 8.5548-1.226 10.7487-3.5011 1.9565 1.026 2.762 2.0935 2.7792 2.6456l1.5441-.0478-1.5436.0644.0034.0625c-.1177 1.72-5.39 4.7344-13.8857 4.6348a32.7287 32.7287 0 0 1 -3.6865-.2548c-6.742-.859-10.097-3.523-10.0814-4.772zm25.2093 13.5923c-8.3135 2.1162-14.1768.3652-14.5991-1.293a2.0559 2.0559 0 0 1 .4272-1.4069c.8818.072 1.7678.1242 2.6548.1354.1694.002.3379.0029.5063.0029 9.1526 0 16.4216-3.1017 18.6976-7.6188 2.82.4011 4.3361 1.3561 4.5162 2.0632.4226 1.6582-3.8899 6-12.203 8.1172z" fill="#0e5f87"/><rect fill="#2a8bbe" height="99.542" rx="11.057" width="108.378" x="48.057" y="138.324"/><rect fill="#ffc139" height="73.75" rx="5.529" width="80.295" x="62.098" y="151.221"/><path d="m102.246 165.959 6.754 13.685 15.103 2.195-10.928 10.653 2.58 15.042-13.509-7.102-13.508 7.102 2.579-15.042-10.928-10.653 15.103-2.195z" fill="#0e5f87"/><path d="m182.2945 106.7488c-6.0926-13.3218-19.27-20.0926-20.1964-20.5556a24.8362 24.8362 0 0 1 2.7542-6.6538c3.7943-6.211 14.3483-13.728 21.7977-9.5093 5.7192 3.24 1.4525 9.72 3.2694 12.9521.0552.0982 2.5665 3.6642 2.5665 3.6642s16.3118-10.6619.8434-29.7554c-17.0048-18.7455-41.1-4.109-47.5318.3709l-.0951-.1692s1.23-13.0037-5.1617-24.8659a20.2886 20.2886 0 0 0 -4.2725-5.5071c-18.3922-16.4891-37.4027 8.8209-37.4027 8.8209l5.2877 4.26c-.4422-.3563 8.9519-4.6676 10.084-4.8172 5.5162-.7291 11.7859 3.24 10.8551 10.1621-.82 6.0975-9.43 9.5943-14.4853 11.2837l16.6854 29.6842.39.6947 16.6854 29.6842c4.0709-3.44 11.5339-8.9781 17.169-6.5091 6.3973 2.803 6.529 10.2223 3.0387 14.5557-.7163.8894-9.2826 6.6735-9.357 6.1105.0139.1052.8909 6.7318.8909 6.7318s34.2835-3.3554 26.1851-30.6324z" fill="#b22d28"/><g fill="#1da441"><circle cx="188.82" cy="88.61" r="9.083" transform="matrix(.872 -.49 .49 .872 -19.198 103.887)"/><circle cx="152.868" cy="135.546" r="9.083" transform="matrix(.872 -.49 .49 .872 -46.808 92.291)"/><circle cx="98.749" cy="39.265" r="9.083" transform="matrix(.872 -.49 .49 .872 -6.573 53.423)"/><path d="m97.9915 66.5692c8.8785 5.9767 16.9785 16.2308 21.0994 24.6118 5.0175 7.8773 9.5668 20.1272 10.0576 30.8184a4.4834 4.4834 0 0 0 6.9783 3.5l5.0726-3.399 8.0772-6.23-8.53-5.5309 7.1643-7.1852-9.5064-3.597 5.8048-8.3383-9.9559-2.009 4.4027-9.0269-10-.9316 3.46-9.5483-10.1407.6245 1.8687-9.991-9.8624 2.3852-.2917-10.1619-9.521 3.6617-5.54 2.5666a4.4834 4.4834 0 0 0 -.6375 7.7809z"/></g><path d="m196.8794 221.255v-16.8433h24.1414a8.4217 8.4217 0 0 1 8.4217 8.4217 8.4217 8.4217 0 0 1 -8.4217 8.4217z" fill="#0e5f87"/></svg>