<svg id="color_copy" height="512" viewBox="0 0 256 256" width="512" xmlns="http://www.w3.org/2000/svg" data-name="color copy"><path d="m125.361 164.992h30.659v12.264h-30.659z" fill="#ff7c1e"/><path d="m157.1914 185.8964h-5.6306v-29.5443h5.6306a5.5182 5.5182 0 0 1 5.5186 5.5179v18.5079a5.5182 5.5182 0 0 1 -5.5186 5.5185z" fill="#ffc139"/><path d="m162.499 53.771h22.821v20.79h-22.821z" fill="#1da441"/><path d="m179.2944 53.5086v21.593a5.2765 5.2765 0 0 0 5.1948 5.3545h3.3762v19.2753h12.4669v-46.2228a5.2765 5.2765 0 0 0 -5.1948-5.3545h-10.6482a5.2765 5.2765 0 0 0 -5.1949 5.3545z" fill="#0e5f87"/><path d="m54.5871 99.9525h10.87a0 0 0 0 1 0 0v36.69a0 0 0 0 1 0 0h-10.87a10.87 10.87 0 0 1 -10.87-10.87v-14.9497a10.87 10.87 0 0 1 10.87-10.8703z" fill="#0e5f87"/><path d="m237.128 110.263-22.007-6.728v29.525l22.007-6.729z" fill="#ff7c1e"/><path d="m222.6555 128.3386v-20.0826a16.7232 16.7232 0 0 0 -16.7232-16.7232h-133.2288a16.7232 16.7232 0 0 0 -16.7235 16.7232v25.657a11.1488 11.1488 0 0 0 11.1488 11.1488h8.9487a11.1488 11.1488 0 0 1 10.7689 14.0343l-11.7742 43.9433a11.1488 11.1488 0 0 0 7.8823 13.6542l37.1381 9.955a8.6933 8.6933 0 0 0 10.704-6.3681 8.6934 8.6934 0 0 0 -6.2033-10.4259l-2.739-.7339 13.8433-51.664a16.7232 16.7232 0 0 1 16.1534-12.3949h54.0812a16.7232 16.7232 0 0 0 16.7233-16.7232z" fill="#2a8bbe"/><rect fill="#ffc139" height="28.41" rx="5.574" width="63.848" x="141.527" y="104.092"/><rect fill="#56cc56" height="54.574" rx="26.877" transform="matrix(-1 0 0 -1 187.915 128.332)" width="146.706" x="20.605" y="36.879"/><path d="m81.596 32.06h-19.741v59.393h32.209z" fill="#0e5f87"/><path d="m120.5895 37.5778v53.9239h11.0364v-53.9239a5.5182 5.5182 0 0 0 -5.5182-5.5182 5.5182 5.5182 0 0 0 -5.5182 5.5182z" fill="#0e5f87"/><path d="m90.5533 128.3385h-34.5733v5.5744a11.1488 11.1488 0 0 0 11.1488 11.1488h8.9487a11.1488 11.1488 0 0 1 10.7689 14.0343l-9.0264 33.6889 5.346 1.4269a11.1488 11.1488 0 0 0 13.644-7.8862l9.8969-36.9356a16.7232 16.7232 0 0 0 -16.1536-21.0515z" fill="#ff7c1e"/></svg>