<svg id="color_copy" height="512" viewBox="0 0 256 256" width="512" xmlns="http://www.w3.org/2000/svg" data-name="color copy"><path d="m165.1782 126.3857-140.27 25.3761a5.5 5.5 0 0 1 -6.4792-5.4118v-5.5891a5.5 5.5 0 0 1 4.5209-5.4121l140.5051-25.419a8.263 8.263 0 0 1 1.4687-.1316h64.1553a5.5 5.5 0 0 1 5.5 5.5v5.5a5.5 5.5 0 0 1 -5.5 5.5h-62.9217a5.5 5.5 0 0 0 -.9791.0875z" fill="#ff4a44"/><path d="m165.1782 65.1525-140.2701-25.3761a5.5 5.5 0 0 0 -6.4791 5.4121v5.5891a5.5 5.5 0 0 0 4.521 5.4124l140.505 25.4188a8.263 8.263 0 0 0 1.4687.1316h64.1553a5.5 5.5 0 0 0 5.5-5.5v-5.5a5.5 5.5 0 0 0 -5.5-5.5h-62.9217a5.5 5.5 0 0 1 -.9791-.0879z" fill="#ff4a44"/><rect fill="#2a8bbe" height="33.076" rx="11" transform="matrix(0 1 -1 0 262.802 -71.264)" width="94.058" x="120.004" y="79.231"/><rect fill="#ff7c1e" height="33.076" rx="11" transform="matrix(0 1 -1 0 146.52 45.019)" width="143.558" x="-21.028" y="79.231"/><rect fill="#0e5f87" height="33.076" rx="11" transform="matrix(0 1 -1 0 301.563 -110.024)" width="87.458" x="162.065" y="79.231"/><rect fill="#56cc56" height="33.076" rx="11" transform="matrix(0 1 -1 0 224.041 -32.503)" width="110.558" x="72.993" y="79.231"/><rect fill="#ffc139" height="33.076" rx="11" transform="matrix(0 1 -1 0 185.281 6.258)" width="127.058" x="25.983" y="79.231"/><g fill="#fff"><circle cx="205.793" cy="68.404" r="6.419"/><circle cx="167.033" cy="68.404" r="6.419"/><circle cx="128.272" cy="63.454" r="6.419"/><circle cx="89.511" cy="55.204" r="6.419"/><circle cx="50.751" cy="46.954" r="6.419"/><circle cx="205.793" cy="123.135" r="6.419"/><circle cx="167.033" cy="123.135" r="6.419"/><circle cx="128.272" cy="128.084" r="6.419"/><circle cx="89.511" cy="136.335" r="6.419"/><circle cx="50.751" cy="144.585" r="6.419"/></g><path d="m185.2015 193.2665h-124.8628a5.5 5.5 0 0 1 -5.5-5.5 5.5 5.5 0 0 1 5.5-5.5h124.8628z" fill="#b22d28"/><circle cx="186.027" cy="187.767" fill="#ff4a44" r="14.252"/><path d="m69.9159 226.2645h124.8629a5.5 5.5 0 0 0 5.5-5.5 5.5 5.5 0 0 0 -5.5-5.5h-124.8629z" fill="#b22d28"/><circle cx="69.091" cy="220.765" fill="#ff4a44" r="14.252"/></svg>