<svg id="color_copy" height="512" viewBox="0 0 256 256" width="512" xmlns="http://www.w3.org/2000/svg" data-name="color copy"><path d="m184.46 89.5869.2775 33.1659h12.261l-.1606-22.8189a7.6531 7.6531 0 0 1 7.6524-7.7524 7.6531 7.6531 0 0 1 7.6531 7.6531v21.8179a15.2025 15.2025 0 0 0 15.2025 15.2025v-47.53a21.4437 21.4437 0 0 0 -21.4437-21.4437 21.4437 21.4437 0 0 0 -21.4422 21.7056z" fill="#ff4a44"/><path d="m187.4594 208.043 14.2093-6.626-17.2209-45.2837a26.1132 26.1132 0 0 0 12.8265-22.4887v-21.3118a26.13 26.13 0 0 0 -26.13-26.13h-6.6913a7.5265 7.5265 0 0 0 -7.5265 7.5265h-44.0798l-19.5812-56.2028v-16.5941a16.4613 16.4613 0 0 0 -16.4614 16.4613h-14.3619a26.1305 26.1305 0 0 0 -20.9511 10.5149l-11.8451 15.8921a17.1208 17.1208 0 0 0 25.8028 22.3684l.2183-.2172h12.7861v47.6927a26.0431 26.0431 0 0 0 7.5327 18.35l-18.7947 49.4224 14.2093 6.626 26.9525-48.2679h62.1538z" fill="#ffc139"/><path d="m112.7182 93.7085h44.2079a0 0 0 0 1 0 0v36.4788a11.0787 11.0787 0 0 1 -11.0787 11.0787h-22.0505a11.0787 11.0787 0 0 1 -11.0787-11.0787v-36.4788a0 0 0 0 1 0 0z" fill="#ff7c1e"/><g fill="#ff4a44"><path d="m129.5927 238.0745a129.4259 129.4259 0 0 1 -102.2527-50.241 5.5414 5.5414 0 0 1 1.201-7.9152l4.3245-3.0449a5.544 5.544 0 0 1 7.5731 1.1492 112.8117 112.8117 0 0 0 178.3089 0 5.544 5.544 0 0 1 7.5731-1.1492l4.3245 3.0449a5.5414 5.5414 0 0 1 1.201 7.9152 129.4264 129.4264 0 0 1 -102.2534 50.241z"/><circle cx="56.945" cy="56.96" r="4.827"/><path d="m31.4614 61.3651-1.8153 2.4355a17.1208 17.1208 0 0 0 25.8027 22.3685l-23.3275-24.7991c-.1491 0-.3745-.0018-.6599-.0049z"/></g><path d="m55.45 89.1689a2.996 2.996 0 0 1 -2.1865-.9443l-23.328-24.7988a3 3 0 1 1 4.3711-4.1113l23.3282 24.7988a3 3 0 0 1 -2.1848 5.0556z" fill="#0e5f87"/><path d="m93.3086 99.9961a52.3467 52.3467 0 0 1 -28.5947-8.4932 3 3 0 0 1 -.37-4.5576l33.2361-33.2363a3 3 0 0 1 4.2422 4.2422l-30.5292 30.5288a46.5366 46.5366 0 0 0 42.6162.6533 3 3 0 1 1 2.6055 5.4043 52.9794 52.9794 0 0 1 -23.2061 5.4585z" fill="#0e5f87"/></svg>