<svg id="color_copy" height="512" viewBox="0 0 256 256" width="512" xmlns="http://www.w3.org/2000/svg" data-name="color copy"><g fill="#2a8bbe"><path d="m90.022 94.941h11v117.036h-11z"/><path d="m152.8569 162.1394a62.8347 62.8347 0 1 1 62.8348-62.8348 62.9058 62.9058 0 0 1 -62.8348 62.8348zm0-114.6694a51.8347 51.8347 0 1 0 51.8348 51.8345 51.8932 51.8932 0 0 0 -51.8348-51.8345z"/><path d="m215.692 94.941v117.036h-11v-117.036"/></g><path d="m136.993 143.846h25.6v25.6h-25.6z" fill="#1da441" transform="matrix(.995 .098 -.098 .995 16.148 -13.985)"/><rect fill="#b22d28" height="29.53" rx="9.464" transform="matrix(.886 .463 -.463 .886 83.429 -41.467)" width="18.929" x="116.678" y="134.365"/><path d="m168.6662 211.9767h-11v-90.4831a21.0769 21.0769 0 0 0 -21.0528-21.0531h-65.7385a21.077 21.077 0 0 0 -21.0531 21.0531v90.4831h-11v-90.4831a32.0894 32.0894 0 0 1 32.0531-32.053h65.7384a32.0893 32.0893 0 0 1 32.0528 32.0531z" fill="#0e5f87"/><rect fill="#ff7c1e" height="23.819" rx="11.909" width="23.819" x="198.37" y="181.788"/><path d="m31.528 180.245h25.6v25.6h-25.6z" fill="#1da441"/><rect fill="#ff7c1e" height="27.392" rx="13.696" width="27.392" x="30.632" y="152.942"/><rect fill="#b22d28" height="29.53" rx="9.464" transform="matrix(1 .013 -.013 1 1.211 -1.358)" width="18.929" x="98.253" y="80.098"/><rect fill="#b22d28" height="29.53" rx="9.464" transform="matrix(.01 1 -1 .01 380.507 -39.639)" width="18.929" x="200.815" y="157.648"/><path d="m82.5243 87.5577-13.3271-9.2307a2.75 2.75 0 0 0 -4.3158 2.2607v28.6649a2.75 2.75 0 0 0 4.2742 2.289l13.2855-8.8467a5.5 5.5 0 0 0 2.4516-4.5779v-6.0379a5.5 5.5 0 0 0 -2.3684-4.5214z" fill="#ff4a44"/><path d="m192.0656 47.9961-6.9262-14.6576a2.75 2.75 0 0 0 -4.868-.2l-14.3324 24.8244a2.75 2.75 0 0 0 2.5571 4.1194l15.9289-1.0188a5.5 5.5 0 0 0 4.4121-2.7388l3.0189-5.2289a5.5 5.5 0 0 0 .2096-5.0997z" fill="#ff4a44"/><rect fill="#ff4a44" height="215.542" rx="6.6" transform="matrix(0 1 -1 0 344.384 88.709)" width="21.395" x="117.14" y="108.775"/></svg>