<svg id="color_copy" height="512" viewBox="0 0 256 256" width="512" xmlns="http://www.w3.org/2000/svg" data-name="color copy"><path d="m111.504 219.556h-31.678l8.639-42.43h23.039z" fill="#2a8bbe"/><path d="m70.191 217.0811h39.1983a8.2976 8.2976 0 0 1 8.2976 8.2976v12.6286a0 0 0 0 1 0 0h-55.7935a0 0 0 0 1 0 0v-12.6285a8.2976 8.2976 0 0 1 8.2976-8.2977z" fill="#0e5f87"/><path d="m147.114 219.556h31.678l-8.639-42.43h-23.039z" fill="#2a8bbe"/><path d="m140.9307 217.0811h55.7936a0 0 0 0 1 0 0v12.6289a8.2976 8.2976 0 0 1 -8.2976 8.2976h-39.1983a8.2976 8.2976 0 0 1 -8.2976-8.2976v-12.6289a0 0 0 0 1 -.0001 0z" fill="#0e5f87" transform="matrix(-1 0 0 -1 337.655 455.088)"/><path d="m56.304 53.614h146.01v10.756h-146.01z" fill="#ffc139"/><path d="m51.718 120.66h155.181v12.593h-155.181z" fill="#ff7c1e"/><rect fill="#ff7c1e" height="24.376" rx="5.532" width="111.84" x="73.389" y="46.804"/><path d="m108.527 69.933h41.565v45.648h-41.565z" fill="#0e5f87"/><rect fill="#2a8bbe" height="75.985" rx="11.064" width="90.034" x="84.292" y="21"/><circle cx="109.286" cy="48.081" fill="#ffc139" r="16.334"/><circle cx="109.286" cy="48.081" fill="#0e5f87" r="6.376"/><circle cx="149.332" cy="48.081" fill="#ffc139" r="16.334"/><circle cx="149.332" cy="48.081" fill="#0e5f87" r="6.376"/><circle cx="51.867" cy="58.992" fill="#0e5f87" r="9.68"/><circle cx="206.75" cy="58.992" fill="#0e5f87" r="9.68"/><rect fill="#ff7c1e" height="13.714" rx="5.532" width="54.854" x="101.882" y="73.518"/><rect fill="#ffc139" height="74.219" rx="11.064" width="104.371" x="77.123" y="107.577"/><g fill="#ff7c1e"><path d="m162.9863 127.9453h-69.5586a3 3 0 0 1 0-6h69.5586a3 3 0 1 1 0 6z"/><path d="m162.9863 141.1055h-69.5586a3 3 0 0 1 0-6h69.5586a3 3 0 0 1 0 6z"/><path d="m162.9863 154.2666h-69.5586a3 3 0 0 1 0-6h69.5586a3 3 0 0 1 0 6z"/><path d="m162.9863 167.4277h-69.5586a3 3 0 0 1 0-6h69.5586a3 3 0 0 1 0 6z"/></g><path d="m55.4172 181.3619v-3.5019a3.7939 3.7939 0 0 1 3.7939-3.7939h4.0858a3.7939 3.7939 0 0 0 3.7939-3.7939v-51.9481a11.3818 11.3818 0 0 0 -11.3818-11.3818 11.3818 11.3818 0 0 0 -11.3818 11.3818v70.6259a11.3818 11.3818 0 0 0 11.3818 11.3816h7.5879a3.7939 3.7939 0 0 0 3.7939-3.7939v-7.5877a3.7939 3.7939 0 0 0 -3.7939-3.7939h-4.0857a3.7939 3.7939 0 0 1 -3.794-3.7942z" fill="#0e5f87"/><path d="m203.2 181.3619v-3.5019a3.7939 3.7939 0 0 0 -3.7939-3.7939h-4.0858a3.7939 3.7939 0 0 1 -3.7939-3.7939v-51.9481a11.3818 11.3818 0 0 1 11.3818-11.3818 11.3818 11.3818 0 0 1 11.3818 11.3818v70.6259a11.3818 11.3818 0 0 1 -11.3818 11.3818 11.3818 11.3818 0 0 1 -11.3814-11.3818 3.7939 3.7939 0 0 1 3.7939-3.7939h4.0858a3.7939 3.7939 0 0 0 3.7935-3.7942z" fill="#0e5f87"/></svg>