<svg id="color_copy" height="512" viewBox="0 0 256 256" width="512" xmlns="http://www.w3.org/2000/svg" data-name="color copy"><g fill="#b22d28"><path d="m138.028 59.97h22.189v12.204h-22.189z"/><path d="m29.672 59.97h22.189v12.204h-22.189z"/><path d="m102.156 41.11h-14.423l-3.328-19.97h21.08z"/></g><path d="m45.143 53.6321v50.562a16.6417 16.6417 0 0 0 16.6417 16.6417h66.32a16.6417 16.6417 0 0 0 16.6417-16.6417v-50.562z" fill="#ff4a44"/><path d="m45.143 53.6321a15.4432 15.4432 0 0 1 12.8983-15.2321l18.69-3.1227a110.522 110.522 0 0 1 36.4269 0l18.69 3.1227a15.4432 15.4432 0 0 1 12.8982 15.232h-99.6034z" fill="#b22d28"/><path d="m185.883 136.42h11.095v28.512h-11.095z" fill="#56cc56" transform="matrix(.707 -.707 .707 .707 -50.476 179.494)"/><path d="m197.92 145.129h28.512v11.095h-28.512z" fill="#56cc56" transform="matrix(.707 -.707 .707 .707 -44.399 194.163)"/><path d="m196.256 131.982h11.095v28.512h-11.095z" fill="#56cc56"/><path d="m201.8033 239.0849a10.3458 10.3458 0 0 1 -10.26-9.0172l-7.1744-55.4019a17.58 17.58 0 0 1 17.4345-19.8378 17.58 17.58 0 0 1 17.4345 19.8378l-7.1744 55.4019a10.3458 10.3458 0 0 1 -10.2602 9.0172z" fill="#ff7c1e"/><path d="m228.5565 47.8929c0 12.2181-11.9778 17.4925-26.7532 17.4925s-26.7533-5.2744-26.7533-17.4925 11.9779-22.1229 26.7533-22.1229 26.7532 9.9048 26.7532 22.1229z" fill="#56cc56"/><path d="m206.9482 26.1861v-5.0461h-10.29v5.0464a28.6322 28.6322 0 0 0 -14.3017 6.5226 26.504 26.504 0 0 0 38.8932 0 28.6322 28.6322 0 0 0 -14.3015-6.5229z" fill="#1da441"/><path d="m228.5565 102.9427c0 12.2181-11.9778 17.4925-26.7532 17.4925s-26.7533-5.2744-26.7533-17.4925 11.9779-22.1227 26.7533-22.1227 26.7532 9.9046 26.7532 22.1227z" fill="#56cc56"/><path d="m206.9482 81.2359v-5.0459h-10.29v5.0464a28.6322 28.6322 0 0 0 -14.3017 6.5226 26.504 26.504 0 0 0 38.8932 0 28.6322 28.6322 0 0 0 -14.3015-6.5231z" fill="#1da441"/><path d="m50.2148 132.3821a8.499 8.499 0 0 0 -7.9738 5.5579l-12.0359 32.6291a8.499 8.499 0 0 0 7.9738 11.44h.9411a8.499 8.499 0 0 1 8.499 8.499v25.2782h11.0948v-74.9052a8.499 8.499 0 0 0 -8.499-8.499z" fill="#2a8bbe"/><path d="m62.469 229.7827v-24.7527a5.5472 5.5472 0 0 0 -5.5472-5.5472h-7.51a5.5472 5.5472 0 0 0 -5.5472 5.5472v24.7523a9.3022 9.3022 0 0 0 9.3022 9.3022 9.3022 9.3022 0 0 0 9.3022-9.3018z" fill="#b22d28"/><path d="m85.15 168.141h11.095v47.645h-11.095z" fill="#2a8bbe"/><path d="m95.412 137.9292v16.9908a4.7151 4.7151 0 0 1 -4.7151 4.7151 4.7151 4.7151 0 0 1 -4.7151-4.7151v-16.9908a5.5472 5.5472 0 0 0 -5.5472-5.5472 5.5472 5.5472 0 0 0 -5.5472 5.5472v23.4629a15.81 15.81 0 0 0 15.81 15.81 15.81 15.81 0 0 0 15.81-15.81v-23.4629a5.5472 5.5472 0 0 0 -5.5472-5.5472 5.5472 5.5472 0 0 0 -5.5482 5.5472z" fill="#2a8bbe"/><path d="m99.999 229.7827v-24.7527a5.5472 5.5472 0 0 0 -5.5472-5.5472h-7.51a5.5472 5.5472 0 0 0 -5.5472 5.5472v24.7523a9.3022 9.3022 0 0 0 9.3022 9.3022 9.3022 9.3022 0 0 0 9.3022-9.3018z" fill="#b22d28"/><path d="m133.971 168.141h11.095v47.645h-11.095z" fill="#2a8bbe"/><path d="m118.9417 145.1064 3.3612 22.6308a11.0945 11.0945 0 0 0 10.9741 9.4646h12.4824a11.0945 11.0945 0 0 0 10.9741-9.4646l3.3612-22.6308a11.0945 11.0945 0 0 0 -10.9741-12.7243h-19.2048a11.0945 11.0945 0 0 0 -10.9741 12.7243z" fill="#2a8bbe"/><path d="m148.82 229.7827v-24.7527a5.5472 5.5472 0 0 0 -5.5472-5.5472h-7.51a5.5472 5.5472 0 0 0 -5.5472 5.5472v24.7523a9.3022 9.3022 0 0 0 9.3022 9.3022 9.3022 9.3022 0 0 0 9.3022-9.3018z" fill="#b22d28"/></svg>