<svg id="color_copy" height="512" viewBox="0 0 256 256" width="512" xmlns="http://www.w3.org/2000/svg" data-name="color copy"><circle cx="205.888" cy="196.079" fill="#0e5f87" r="30.492"/><circle cx="205.888" cy="196.079" fill="#ffc139" r="15.674"/><circle cx="58.419" cy="195.126" fill="#0e5f87" r="30.492"/><circle cx="58.419" cy="195.126" fill="#ffc139" r="15.674"/><g fill="#1da441"><path d="m102.4127 205.8739a5.5283 5.5283 0 0 1 -5.4913-6.1763 38.7774 38.7774 0 0 0 -67.6694-30.117 5.5233 5.5233 0 0 1 -8.3138-7.2739 49.8234 49.8234 0 0 1 86.9518 38.6962 5.5235 5.5235 0 0 1 -5.4773 4.871z"/><path d="m149.02 209.684h-72.9978a6.9046 6.9046 0 0 1 -2.7394-.5669l-17.6539-7.632a6.9038 6.9038 0 1 1 5.4789-12.674l16.3422 7.0652h67.5154l42.2537-60.885a6.9038 6.9038 0 1 1 12.058 6.7269l-44.2289 64.4254a6.9035 6.9035 0 0 1 -6.0282 3.5404z"/><path d="m205.7666 203.1345a6.907 6.907 0 0 1 -6.7442-5.4605l-31.82-148.6756h-22.884a5.4156 5.4156 0 0 1 -4.4909-2.3063c-3.7923-5.5662.1053-11.5015 5.3885-11.5015h27.5685a6.9044 6.9044 0 0 1 6.7512 5.4589l32.9891 154.1345a6.91 6.91 0 0 1 -6.7582 8.35z"/></g><path d="m130.7529 39.0991a5.5231 5.5231 0 0 1 5.5463-5.4453l36.2514.156a8.4386 8.4386 0 0 1 8.5092 7.884 8.285 8.285 0 0 1 -8.2752 8.6852h-36.5892a5.5231 5.5231 0 0 1 -5.5225-5.6008z" fill="#0e5f87"/></svg>