<svg id="color_copy" height="512" viewBox="0 0 256 256" width="512" xmlns="http://www.w3.org/2000/svg" data-name="color copy"><path d="m215.3406 135.6247h-186.4253a5.5124 5.5124 0 0 1 -5.5124-5.5124 5.5124 5.5124 0 0 1 5.5124-5.5123h186.4253z" fill="#2a8bbe"/><g fill="#0e5f87"><path d="m57.68 127.1384-6.875-14.6657h-30.0875l6.8624 14.64h29.8401c.0889-.0004.1727.0182.26.0257z"/><path d="m27.58 133.1123-6.8624 14.64h30.0874l6.875-14.6661c-.087.0076-.1707.0261-.26.0261z"/><rect height="39.687" rx="5.512" width="11.025" x="225.99" y="110.269"/><path d="m219.683 115.766-14.861 14.346 14.861 14.346z"/></g><path d="m134.4866 238.8232a6.89 6.89 0 0 1 -6.89-6.89v-2.4241a34.4943 34.4943 0 0 1 11.4549-25.6531l29.9085-26.813a42.7763 42.7763 0 0 0 14.2041-31.81v-30.2416a42.7726 42.7726 0 0 0 -14.2041-31.81l-29.909-26.8124a34.4969 34.4969 0 0 1 -11.4549-25.6531v-2.4241a6.89 6.89 0 0 1 6.89-6.89 6.89 6.89 0 0 1 6.89 6.89v2.4241a20.6983 20.6983 0 0 0 6.8739 15.3916l29.9089 26.8125a56.5018 56.5018 0 0 1 18.7862 42.0712v30.2417a56.5749 56.5749 0 0 1 -18.7863 42.0713l-29.9088 26.8129a20.6955 20.6955 0 0 0 -6.8727 15.3916v2.4241a6.89 6.89 0 0 1 -6.8907 6.8904z" fill="#b22d28"/><path d="m150.1528 218.8662a2.9918 2.9918 0 0 1 -2.2778-1.0459l-73.52-85.6631a3.001 3.001 0 0 1 0-3.9092l73.7358-85.8447a3 3 0 0 1 4.5518 3.91l-72.0567 83.8908 71.8418 83.708a3 3 0 0 1 -2.2749 4.9541z" fill="#ffc139"/></svg>