<svg id="color_copy" height="512" viewBox="0 0 256 256" width="512" xmlns="http://www.w3.org/2000/svg" data-name="color copy"><rect fill="#2a8bbe" height="158.024" rx="9.576" width="81.885" x="148.347" y="80.6"/><path d="m221.13 162.6123h-63.6818a3 3 0 0 1 0-6h63.6818a3 3 0 0 1 0 6z" fill="#fff"/><g fill="#ffc139"><circle cx="171.573" cy="136.629" r="8.14"/><circle cx="207.005" cy="101.197" r="8.14"/><circle cx="168.7" cy="201.269" r="6.919"/><circle cx="209.878" cy="201.269" r="6.919"/><circle cx="168.7" cy="180.416" r="6.919"/><circle cx="209.878" cy="180.416" r="6.919"/><circle cx="168.7" cy="222.121" r="6.919"/><circle cx="209.878" cy="222.121" r="6.919"/></g><rect fill="#0e5f87" height="158.024" rx="9.576" transform="matrix(.906 .423 -.423 .906 57.945 -46.641)" width="81.885" x="93.221" y="28.353"/><path d="m163.019 123.8232a2.9885 2.9885 0 0 1 -1.2661-.2822l-57.7158-26.914a3 3 0 0 1 2.5361-5.4375l57.7158 26.9141a3.0007 3.0007 0 0 1 -1.27 5.72z" fill="#fff"/><circle cx="124.002" cy="80.438" fill="#ff7c1e" r="8.14" transform="matrix(.423 -.906 .906 .423 -1.305 158.828)"/><circle cx="151.363" cy="70.479" fill="#ff7c1e" r="8.14" transform="matrix(.423 -.906 .906 .423 23.518 177.875)"/><circle cx="178.725" cy="60.521" fill="#ff7c1e" r="8.14" transform="matrix(.423 -.906 .906 .423 48.342 196.923)"/><circle cx="116.558" cy="145.119" fill="#ff7c1e" r="8.14" transform="matrix(.423 -.906 .906 .423 -64.224 189.427)"/><circle cx="106.195" cy="118.626" fill="#ff7c1e" r="8.14" transform="matrix(.423 -.906 .906 .423 -46.197 164.738)"/><circle cx="143.515" cy="136.028" fill="#ff7c1e" r="8.14" transform="matrix(.423 -.906 .906 .423 -40.421 208.609)"/><circle cx="89.602" cy="154.21" fill="#fff" r="8.14" transform="matrix(.423 -.906 .906 .423 -88.027 170.245)"/><path d="m89.5957 165.3555a11.1638 11.1638 0 1 1 3.8159-.6768 11.094 11.094 0 0 1 -3.8159.6768zm.0083-16.2881a5.15 5.15 0 1 0 2.17.4844 5.1321 5.1321 0 0 0 -2.17-.4844z"/><circle cx="126.922" cy="171.613" fill="#ff7c1e" r="8.14" transform="matrix(.423 -.906 .906 .423 -82.252 214.116)"/><rect fill="#2a8bbe" height="158.024" rx="9.576" width="81.885" x="22.776" y="35.736"/><path d="m95.56 117.748h-63.6826a3 3 0 0 1 0-6h63.6826a3 3 0 0 1 0 6z" fill="#fff"/><circle cx="43.13" cy="94.638" fill="#ffc139" r="8.14"/><circle cx="63.719" cy="74.049" fill="#ffc139" r="8.14"/><circle cx="84.308" cy="53.46" fill="#ffc139" r="8.14"/><circle cx="43.13" cy="136.774" fill="#ffc139" r="8.14"/><circle cx="84.308" cy="136.774" fill="#ffc139" r="8.14"/><circle cx="43.13" cy="176.036" fill="#ffc139" r="8.14"/><circle cx="84.308" cy="176.036" fill="#ffc139" r="8.14"/></svg>