<svg id="color_copy" height="512" viewBox="0 0 256 256" width="512" xmlns="http://www.w3.org/2000/svg" data-name="color copy"><path d="m129.5929 238.1893c-24.9118 0-48.4321-4.2-66.2278-11.8268-19.5272-8.3686-30.2811-20.1628-30.2811-33.209s10.7539-24.84 30.2811-33.209c17.7958-7.6265 41.3161-11.8268 66.2278-11.8268s48.4321 4.2 66.2278 11.8268c19.5269 8.3686 30.2808 20.1628 30.2808 33.209s-10.7539 24.84-30.2808 33.209c-17.7957 7.6264-41.316 11.8268-66.2278 11.8268z" fill="#b22d28"/><path d="m219.67 111.8632c0-21.3208-40.3292-38.6046-90.0776-38.6046s-90.0771 17.2838-90.0771 38.6046v74.6357c0 21.3208 40.3292 38.6047 90.0776 38.6047s90.0771-17.2836 90.0771-38.6047z" fill="#ff4a44"/><path d="m46.505 130.899 17.233 80.657 36.247-59.376 29.608 71.912 29.605-71.911 36.252 59.374 17.231-80.656" fill="#1da441"/><ellipse cx="129.593" cy="114.629" fill="#56cc56" rx="90.078" ry="38.605"/><path d="m129.5929 159.6649c-24.9118 0-48.4321-4.2-66.2278-11.8268-19.5272-8.3686-30.2811-20.1628-30.2811-33.209s10.7539-24.84 30.2811-33.209c17.7958-7.6265 41.3161-11.8268 66.2278-11.8268s48.4321 4.2 66.2278 11.8268c19.5269 8.3686 30.2808 20.1628 30.2808 33.209s-10.7539 24.84-30.2808 33.209c-17.7957 7.6264-41.316 11.8268-66.2278 11.8268zm0-77.2093c-49.2942 0-83.6465 16.9557-83.6465 32.1735s34.3523 32.1735 83.6465 32.1735 83.6463-16.9557 83.6463-32.1735-34.3523-32.1735-83.6463-32.1735z" fill="#b22d28"/><ellipse cx="129.593" cy="114.629" fill="#1da441" rx="36.031" ry="15.442"/><path d="m133.513 117.7911-4.19 8.4105-103.6793-52.5283a8.4683 8.4683 0 0 1 -3.5727-11.2906 7.7519 7.7519 0 0 1 10.8934-3.4039z" fill="#ff4a44"/><path d="m139.0678 112.7978c7.1048 3.8734 10.5193 11.72 7.6266 17.527s-10.9973 7.3736-18.1021 3.5-10.5193-11.72-7.6266-17.527 10.9973-7.3734 18.1021-3.5z" fill="#b22d28"/><path d="m114.2866 43.0386 1.0608 9.3364 115.3924-13.9a8.4683 8.4683 0 0 0 7.2189-9.3877 7.7519 7.7519 0 0 0 -9.0722-6.9244z" fill="#ff4a44"/><path d="m110.7746 36.4466c-8.0011 1.21-13.8936 7.4158-13.1613 13.8615s7.8122 10.69 15.8132 9.48 13.8935-7.4154 13.1613-13.8611-7.8121-10.6903-15.8132-9.4804z" fill="#b22d28"/></svg>