<svg id="color_copy" height="512" viewBox="0 0 256 256" width="512" xmlns="http://www.w3.org/2000/svg" data-name="color copy"><path d="m57.9847 58.7731h21.5583a5.521 5.521 0 0 1 5.521 5.521v17.6943a0 0 0 0 1 0 0h-32.6a0 0 0 0 1 0 0v-17.6943a5.521 5.521 0 0 1 5.5207-5.521z" fill="#b22d28"/><path d="m176.23 58.7731h21.5582a5.521 5.521 0 0 1 5.521 5.521v17.6943a0 0 0 0 1 0 0h-32.6a0 0 0 0 1 0 0v-17.6943a5.521 5.521 0 0 1 5.5208-5.521z" fill="#b22d28"/><rect fill="#2a8bbe" height="128.191" rx="16.563" width="216.611" x="19.581" y="73.261"/><rect fill="#ffc139" height="93.931" rx="11.042" width="93.068" x="81.353" y="90.391"/><path d="m67.3022 129.7009h-6.44a2.7605 2.7605 0 0 1 -2.7605-2.7605v-6.4404a2.7605 2.7605 0 0 0 -2.7605-2.7605h-9.7898a2.7605 2.7605 0 0 0 -2.7605 2.7605v6.44a2.7605 2.7605 0 0 1 -2.7605 2.7605h-6.4404a2.7605 2.7605 0 0 0 -2.7605 2.7605v9.79a2.7605 2.7605 0 0 0 2.7605 2.7605h6.44a2.7605 2.7605 0 0 1 2.7605 2.7605v6.44a2.7605 2.7605 0 0 0 2.7605 2.7605h9.7895a2.7605 2.7605 0 0 0 2.7605-2.7605v-6.44a2.7605 2.7605 0 0 1 2.7605-2.7605h6.44a2.7605 2.7605 0 0 0 2.7605-2.7605v-9.79a2.7605 2.7605 0 0 0 -2.7598-2.7601z" fill="#b22d28"/><circle cx="205.244" cy="120.245" fill="#b22d28" r="7.753"/><circle cx="205.244" cy="154.467" fill="#b22d28" r="7.753"/><circle cx="220.698" cy="137.356" fill="#b22d28" r="7.753"/><circle cx="189.789" cy="137.356" fill="#b22d28" r="7.753"/><g fill="#ff7c1e"><path d="m101.4054 122.6335h.0474a8.5282 8.5282 0 0 1 8.5282 8.5282v10.1791a0 0 0 0 1 0 0h-17.1038a0 0 0 0 1 0 0v-10.1791a8.5282 8.5282 0 0 1 8.5282-8.5282z"/><path d="m92.877 163.583a3 3 0 0 1 -3-3v-10.05a3 3 0 0 1 6 0v10.05a3 3 0 0 1 -3 3z"/><path d="m109.9814 163.583a3 3 0 0 1 -3-3v-10.05a3 3 0 0 1 6 0v10.05a3 3 0 0 1 -3 3z"/><path d="m101.4287 167.8057a3 3 0 0 1 -3-3v-10.05a3 3 0 1 1 6 0v10.05a3 3 0 0 1 -3 3z"/><path d="m154.32 132.7889h.0474a8.5282 8.5282 0 0 1 8.5282 8.5282v10.1791a0 0 0 0 1 0 0h-17.1034a0 0 0 0 1 0 0v-10.1791a8.5282 8.5282 0 0 1 8.5278-8.5282z"/><path d="m145.792 173.7383a3 3 0 0 1 -3-3v-10.05a3 3 0 0 1 6 0v10.05a3 3 0 0 1 -3 3z"/><path d="m162.8965 173.7383a3 3 0 0 1 -3-3v-10.05a3 3 0 0 1 6 0v10.05a3 3 0 0 1 -3 3z"/><path d="m154.3438 177.9609a3 3 0 0 1 -3-3v-10.05a3 3 0 0 1 6 0v10.05a3 3 0 0 1 -3 3z"/><path d="m127.8629 101.1271h.0474a8.5282 8.5282 0 0 1 8.5282 8.5282v10.1791a0 0 0 0 1 0 0h-17.1038a0 0 0 0 1 0 0v-10.1791a8.5282 8.5282 0 0 1 8.5282-8.5282z"/><path d="m119.335 142.0762a3 3 0 0 1 -3-3v-10.05a3 3 0 1 1 6 0v10.05a3 3 0 0 1 -3 3z"/><path d="m136.4385 142.0762a3 3 0 0 1 -3-3v-10.05a3 3 0 1 1 6 0v10.05a3 3 0 0 1 -3 3z"/><path d="m127.8867 146.3a3 3 0 0 1 -3-3v-10.05a3 3 0 0 1 6 0v10.05a3 3 0 0 1 -3 3z"/></g></svg>