<svg id="color_copy" height="512" viewBox="0 0 256 256" width="512" xmlns="http://www.w3.org/2000/svg" data-name="color copy"><rect fill="#0e5f87" height="124.305" rx="6.631" transform="matrix(0 1 -1 0 305.87 127.201)" width="21.496" x="78.587" y="154.383"/><path d="m80.924 52.158h16.821v83.05h-16.821z" fill="#2a8bbe"/><path d="m99.3157 63.1966h-19.9625a5.5259 5.5259 0 0 1 -5.5259-5.5259v-9.14a15.4421 15.4421 0 0 1 3.8627-10.2165l.13-.1475a15.4421 15.4421 0 0 1 23.328.1956 15.4421 15.4421 0 0 1 3.6933 10.0212v9.2873a5.5259 5.5259 0 0 1 -5.5256 5.5258z" fill="#0e5f87"/><rect fill="#ff4a44" height="30.143" rx="15.071" width="117.079" x="30.795" y="143.697"/><rect fill="#56cc56" height="26.581" rx="13.29" width="90.363" x="44.153" y="117.164"/><rect fill="#56cc56" height="31.882" rx="15.941" width="139.86" x="19.405" y="173.854"/><rect fill="#ff4a44" height="24.24" rx="12.12" width="59.815" x="176.455" y="203.043"/><rect fill="#56cc56" height="27.182" rx="13.591" transform="matrix(.707 .707 -.707 .707 173.78 -76.393)" width="77.973" x="140.118" y="157.983"/></svg>