<svg id="color_copy" height="512" viewBox="0 0 256 256" width="512" xmlns="http://www.w3.org/2000/svg" data-name="color copy"><path d="m199.405 197.389-46.13-16.79 15.678-66.603 61.253 22.294z" fill="#2a8bbe"/><rect fill="#ffc139" height="78.852" rx="5.536" transform="matrix(.342 -.94 .94 .342 16.567 269.123)" width="11.073" x="194.921" y="83.306"/><path d="m192.249 145.283 1.115 10.151 8.994 4.836-9.309 4.197-1.821 10.049-6.868-7.557-10.119 1.374 5.064-8.868-4.433-9.199 9.998 2.076z" fill="#56cc56"/><path d="m222.5879 177.71c-.0225 0-.0449 0-.0674-.001-5.3994-.1211-10.2129-2.72-14.3057-7.7236-10.2881-12.5752-13.4316-37.5684-12.0664-45.2021a3 3 0 1 1 5.9063 1.0566c-1.0234 5.7256 1.8262 29.3721 10.8037 40.3467 2.8838 3.5244 5.9834 5.33 9.4668 5.5117a5.1506 5.1506 0 0 0 2.7646-2.2891c3.3955-5.0146 4.3975-15.6621 2.3818-25.3174a3 3 0 0 1 5.873-1.2266c2.3535 11.2754 1.002 23.5742-3.2861 29.9082a10.7386 10.7386 0 0 1 -6.95 4.8906 2.9982 2.9982 0 0 1 -.5206.046z" fill="#0e5f87"/><path d="m207.656 224.1813c0-44.3459-41.8343-80.2953-93.44-80.2953-51.6052 0-93.44 35.9494-93.44 80.2953z" fill="#ffc139"/><g fill="#ff7c1e"><circle cx="139.259" cy="163.091" r="4.71"/><circle cx="148.968" cy="176.684" r="4.71"/><circle cx="65.814" cy="207.348" r="4.71"/><circle cx="56.881" cy="198.416" r="4.71"/><circle cx="45.618" cy="208.125" r="4.71"/><circle cx="165.256" cy="177.105" r="4.844"/><circle cx="160.231" cy="191.831" r="4.71"/><circle cx="133.837" cy="178.212" r="4.71"/></g><path d="m72.8114 122.1584-13.1136 6.1184-38.2405-81.9368a7.2354 7.2354 0 0 1 3.4973-9.6168 7.2354 7.2354 0 0 1 9.6154 3.4968z" fill="#1da441"/><path d="m56.9452 116.7684h21.6931a5.5364 5.5364 0 0 1 5.5364 5.5364v18.0281a0 0 0 0 1 0 0h-32.7659a0 0 0 0 1 0 0v-18.0281a5.5364 5.5364 0 0 1 5.5364-5.5364z" fill="#56cc56" transform="matrix(.906 -.423 .423 .906 -47.995 40.719)"/><path d="m111.3762 170.8461-5.7936 13.5174a15.987 15.987 0 0 1 -19.3091 9.0085l-14.0795-4.2448a26.6451 26.6451 0 0 1 -16.4548-14.245l-12.6329-27.0763a5.329 5.329 0 0 1 2.5761-7.0824l45.6346-21.2916a5.329 5.329 0 0 1 7.0824 2.5761l12.6326 27.0756a26.6451 26.6451 0 0 1 .3442 21.7625z" fill="#2a8bbe"/><path d="m73.519 127.7312 12.9468 27.7644a5.5364 5.5364 0 0 1 -2.6779 7.3575 5.5364 5.5364 0 0 1 -7.3575-2.6779l-12.9468-27.7644z" fill="#0e5f87"/></svg>