<svg id="Capa_1" enable-background="new 0 0 512 512" height="512" viewBox="0 0 512 512" width="512" xmlns="http://www.w3.org/2000/svg"><g><path d="m226.442 458.012h-148.802v-109.487c-.822-13.844-27.87-37.2-38.767-64.718-12.851-32.452-21.237-59.793-37.753-94.335-4.785-10.007 6.219-21.9 24.155-13.618 21.49 9.923 27.683 29.557 36.953 49.481 4.451 9.567 15.412 3.404 15.412-3.877v-133.337c0-10.273 8.328-18.6 18.6-18.6 10.273 0 18.6 8.328 18.6 18.6v-37.2c0-10.273 8.328-18.6 18.6-18.6 10.273 0 18.6 8.328 18.6 18.6v18.6c0-10.273 8.328-18.6 18.6-18.6 10.273 0 18.6 8.328 18.6 18.6v55.801c0-10.273 8.328-18.6 18.6-18.6 10.273 0 18.6 8.328 18.6 18.6v332.69z" fill="#9cf8d2"/><path d="m135.415 218.323v-167.402c0-6.469 3.302-12.166 8.313-15.499-2.946-1.96-6.483-3.102-10.287-3.102-10.273 0-18.6 8.328-18.6 18.6v167.402c-.001 11.912 20.574 11.912 20.574.001z" fill="#91deb6"/><path d="m170.641 50.921c-10.273 0-18.6 8.328-18.6 18.6v148.802c0 11.911 20.574 11.911 20.574 0v-167.298c-.648-.069-1.307-.104-1.974-.104z" fill="#91deb6"/><path d="m207.842 106.722c-10.273 0-18.6 8.328-18.6 18.6v93.001c0 11.911 20.574 11.911 20.574 0v-111.498c-.649-.068-1.308-.103-1.974-.103z" fill="#91deb6"/><path d="m285.558 458.012h148.802v-109.487c.822-13.844 27.87-37.2 38.767-64.718 12.851-32.452 21.237-59.793 37.753-94.335 4.785-10.007-6.219-21.9-24.155-13.618-21.49 9.923-26.741 30.023-36.953 49.481-4.604 8.773-15.18 5.633-15.412-3.877v-133.337c0-10.273-8.328-18.6-18.6-18.6-10.273 0-18.6 8.328-18.6 18.6v-37.2c0-10.273-8.328-18.6-18.6-18.6-10.273 0-18.6 8.328-18.6 18.6v18.6c0-10.273-8.328-18.6-18.6-18.6-10.273 0-18.6 8.328-18.6 18.6v55.801c0-10.273-8.328-18.6-18.6-18.6-10.273 0-18.6 8.328-18.6 18.6v332.69z" fill="#9cf8d2"/><g fill="#91deb6"><path d="m380.533 218.323v-167.402c0-6.469 3.302-12.166 8.313-15.499-2.946-1.96-6.483-3.102-10.287-3.102-10.273 0-18.6 8.328-18.6 18.6v167.402c0 11.912 20.574 11.912 20.574.001z"/><path d="m343.333 218.323v-167.298c-.649-.068-1.307-.104-1.974-.104-10.273 0-18.6 8.328-18.6 18.6v148.802c0 11.911 20.574 11.911 20.574 0z"/><path d="m397.16 88.121v130.202c0 11.911 20.574 11.911 20.574 0v-148.698c-.649-.068-1.307-.104-1.974-.104-10.273 0-18.6 8.328-18.6 18.6z"/><path d="m454.934 221.458c.231 9.51 10.807 12.65 15.412 3.877 10.212-19.458 15.463-39.558 36.953-49.481.019-.009.037-.017.056-.026-4.392-3.208-11.64-4.126-20.631.026-17.616 8.134-24.32 23.108-31.79 38.96z"/><path d="m314.446 109.823c-2.946-1.96-6.483-3.102-10.287-3.102-10.273 0-18.6 8.328-18.6 18.6v332.69h20.574v-332.69c0-6.468 3.302-12.165 8.313-15.498z"/><path d="m98.214 221.458v-133.337c0-6.469 3.302-12.166 8.313-15.499-2.946-1.959-6.483-3.102-10.287-3.102-10.273 0-18.6 8.328-18.6 18.6v133.337c0 3.333-2.298 6.432-5.216 7.895 7.409 6.315 25.79 5.648 25.79-7.894z"/><path d="m59.447 283.807c-12.851-32.452-21.237-59.793-37.753-94.335-2.386-4.991-.845-10.451 3.525-13.643-17.903-8.231-28.879 3.646-24.099 13.643 16.516 34.543 24.901 61.883 37.753 94.335 10.897 27.517 37.945 50.873 38.767 64.718v109.488h20.574v-109.489c-.822-13.844-27.869-37.2-38.767-64.717z"/></g><path d="m226.442 479.679h-148.802c-8.824 0-15.977-7.153-15.977-15.977 0-8.824 7.153-15.977 15.977-15.977h148.802c8.824 0 15.977 7.153 15.977 15.977 0 8.824-7.153 15.977-15.977 15.977z" fill="#fee97d"/><path d="m92.524 463.702c0-8.824 7.153-15.977 15.977-15.977h-30.861c-8.824 0-15.977 7.153-15.977 15.977s7.153 15.977 15.977 15.977h30.861c-8.823 0-15.977-7.153-15.977-15.977z" fill="#fed402"/><path d="m285.558 479.679h148.802c8.824 0 15.977-7.153 15.977-15.977 0-8.824-7.153-15.977-15.977-15.977h-148.802c-8.824 0-15.977 7.153-15.977 15.977 0 8.824 7.153 15.977 15.977 15.977z" fill="#fee97d"/><path d="m300.443 463.702c0-8.824 7.153-15.977 15.977-15.977h-30.861c-8.824 0-15.977 7.153-15.977 15.977s7.153 15.977 15.977 15.977h30.861c-8.824 0-15.977-7.153-15.977-15.977z" fill="#fed402"/></g></svg>