<svg id="Capa_1" enable-background="new 0 0 512 512" height="512" viewBox="0 0 512 512" width="512" xmlns="http://www.w3.org/2000/svg"><g><path d="m450.029 490.073h-388.058v-317.56l194.029-129.353 194.029 129.353z" fill="#e9f1ff"/><path d="m256 62.802-194.029 132.565v294.706h32.338v-291.583l161.691-110.471 194.029 132.565v-25.217z" fill="#d7e4f7"/><path d="m83.899 490.072v-229.49c0-9.759 7.939-17.698 17.698-17.698h114.778c9.759 0 17.698 7.939 17.698 17.698v229.49z" fill="#d7e4f7"/><path d="m223.662 479.662h-129.353v-219.08c0-4.025 3.263-7.288 7.288-7.288h114.778c4.025 0 7.288 3.263 7.288 7.288v219.08z" fill="#f1b0a2"/><path d="m94.309 260.582v219.08h32.338v-226.367h-25.051c-4.024 0-7.287 3.262-7.287 7.287z" fill="#eb9c8d"/><path d="m508.823 196.373-244.004-166.709c-5.34-3.649-12.297-3.649-17.637 0l-244.005 166.709c-3.27 2.234-4.157 6.671-1.998 9.991l9.688 14.892c2.23 3.428 6.843 4.35 10.22 2.043l40.884-27.933 194.029-132.564 194.029 132.565 40.884 27.933c3.377 2.307 7.99 1.385 10.22-2.043l9.688-14.892c2.159-3.321 1.272-7.757-1.998-9.992z" fill="#3e4f55"/><path d="m295.625 393.058c-9.759 0-17.698-7.939-17.698-17.698v-114.778c0-9.759 7.939-17.698 17.698-17.698h114.778c9.759 0 17.698 7.939 17.698 17.698v114.778c0 9.759-7.939 17.698-17.698 17.698z" fill="#d7e4f7"/><path d="m417.69 260.582v114.779c0 4.029-3.259 7.288-7.288 7.288h-114.779c-4.019 0-7.288-3.259-7.288-7.288v-114.779c0-4.029 3.269-7.288 7.288-7.288h114.779c4.029.001 7.288 3.259 7.288 7.288z" fill="#b3dafe"/><path d="m288.338 260.582v114.778c0 4.025 3.263 7.288 7.288 7.288h23.945v-129.353h-23.945c-4.025 0-7.288 3.262-7.288 7.287z" fill="#8ac9fe"/><path d="m417.69 310.158v15.616h-56.864v56.874h-15.616v-56.874h-56.874v-15.616h56.874v-56.863h15.616v56.863z" fill="#d7e4f7"/><path d="m288.336 310.158h.002v15.616h-.002z" fill="#8ac9fe"/><path d="m288.338 310.158h31.232v15.616h-31.232z" fill="#bed2ee"/><path d="m126.647 342.501c-4.312 0-7.808 3.496-7.808 7.808v32.338c0 4.312 3.496 7.808 7.808 7.808s7.808-3.496 7.808-7.808v-32.338c0-4.312-3.495-7.808-7.808-7.808z" fill="#3e4f55"/><path d="m475.08 512h-438.16c-4.025 0-7.288-3.263-7.288-7.288v-17.763c0-4.025 3.263-7.288 7.288-7.288h438.16c4.025 0 7.288 3.263 7.288 7.288v17.763c-.001 4.025-3.264 7.288-7.288 7.288z" fill="#3e4f55"/><path d="m29.633 486.949v17.763c0 4.025 3.263 7.288 7.288 7.288h23.945v-32.338h-23.946c-4.024 0-7.287 3.263-7.287 7.287z" fill="#303d42"/><g><path d="m453.343 27.326c-.915-3.383-5.713-3.383-6.628 0-4.513 15.3-15.207 30.704-28.854 37.588-2.42 1.221-2.506 4.616-.178 6.004 13.767 8.21 23.991 21.407 28.431 37l.638 2.043c1.003 3.213 5.55 3.213 6.554 0l.638-2.043c4.44-15.593 14.664-28.789 28.431-37 2.328-1.388 2.242-4.784-.178-6.004-13.647-6.884-24.342-22.287-28.854-37.588z" fill="#b3dafe"/><path d="m446.715 27.326c-4.513 15.3-15.207 30.704-28.854 37.588-2.42 1.221-2.506 4.616-.178 6.004 13.767 8.21 23.991 21.407 28.431 37l.638 2.043c.502 1.606 1.889 2.409 3.277 2.409v-87.581c-1.428 0-2.857.846-3.314 2.537z" fill="#8ac9fe"/></g><g><path d="m259.314 135.38c-.915-3.383-5.713-3.383-6.628 0-4.513 15.3-15.207 30.704-28.854 37.588-2.42 1.221-2.506 4.616-.178 6.004 13.767 8.21 23.991 21.407 28.431 37l.638 2.043c1.003 3.213 5.55 3.213 6.554 0l.638-2.043c4.44-15.593 14.664-28.789 28.431-37 2.328-1.388 2.242-4.784-.178-6.004-13.647-6.884-24.342-22.288-28.854-37.588z" fill="#b3dafe"/><path d="m252.686 135.38c-4.513 15.3-15.207 30.704-28.854 37.588-2.42 1.221-2.506 4.616-.178 6.004 13.767 8.21 23.991 21.407 28.431 37l.638 2.043c.502 1.606 1.889 2.409 3.277 2.409v-87.581c-1.428 0-2.857.846-3.314 2.537z" fill="#8ac9fe"/></g><g><path d="m65.285 2.537c-.915-3.383-5.713-3.383-6.628 0-4.513 15.3-15.207 30.704-28.854 37.588-2.42 1.221-2.506 4.616-.178 6.004 13.767 8.21 23.991 21.407 28.431 37l.638 2.043c1.003 3.213 5.55 3.213 6.554 0l.638-2.043c4.44-15.593 14.664-28.789 28.431-37 2.328-1.388 2.242-4.784-.178-6.004-13.647-6.884-24.342-22.288-28.854-37.588z" fill="#b3dafe"/><path d="m58.657 2.537c-4.513 15.3-15.207 30.704-28.854 37.588-2.42 1.221-2.506 4.616-.178 6.004 13.767 8.21 23.991 21.407 28.431 37l.638 2.043c.502 1.606 1.889 2.409 3.277 2.409v-87.581c-1.428 0-2.857.846-3.314 2.537z" fill="#8ac9fe"/></g></g></svg>