<svg id="Capa_1" enable-background="new 0 0 512 512" height="512" viewBox="0 0 512 512" width="512" xmlns="http://www.w3.org/2000/svg"><g><path d="m256.003 119.602c-.715 0-1.423.031-2.123.091 1.374-3.855 2.123-8.008 2.123-12.335 0-20.287-16.445-36.732-36.732-36.732-19.589 0-35.596 15.334-36.674 34.654-13.391.155-24.199 11.058-24.199 24.486 0 9.079 4.941 17.005 12.281 21.233-.253 1.742-.385 3.523-.385 5.335 0 20.287 16.446 36.732 36.732 36.732 17.403 0 31.979-12.102 35.771-28.35 3.81 2.444 8.342 3.862 13.205 3.862 13.524 0 24.488-10.964 24.488-24.488.001-13.524-10.963-24.488-24.487-24.488z" fill="#d7e4f7"/><path d="m347.461 253.756 99.277-99.277c4.473-4.473 1.305-12.121-5.021-12.121h-24.476c-1.883 0-3.689.748-5.021 2.08l-87.039 87.039 1.269 21.556z" fill="#e9f1ff"/><path d="m350.489 226.455 84.098-84.098h-17.346c-1.883 0-3.689.748-5.021 2.08l-87.039 87.039 1.269 21.556 21.011.724 10.144-10.144-7.115-7.115c-2.774-2.773-2.774-7.269-.001-10.042z" fill="#d7e4f7"/><path d="m347.48 253.756-44.569 44.568-17.284 3.004-18.45-18.45 2.305-17.983 55.709-33.429z" fill="#e9f1ff"/><path d="m307.71 260.216 28.893-17.338-11.412-11.412-55.709 33.429-2.305 17.982 18.45 18.45 17.284-3.003 15.215-15.215-11.783-11.783c-3.266-3.267-2.594-8.733 1.367-11.11z" fill="#d7e4f7"/><path d="m46.685 376.294 20.287-10.144 23.966-23.966.305-10.448-17.259-17.259c-2.773-2.773-7.269-2.773-10.042 0l-34.517 34.517c-2.773 2.773-2.773 7.269 0 10.042z" fill="#b3dafe"/><path d="m49.713 348.993 29.394-29.393-5.123-5.123c-2.773-2.773-7.269-2.773-10.042 0l-34.517 34.517c-2.773 2.773-2.773 7.269 0 10.042l17.259 17.259 20.287-10.144h-10.144l-7.115-7.115c-2.772-2.774-2.772-7.27.001-10.043z" fill="#8ac9fe"/><path d="m261.029 256.44c-1.68-1.68-4.09-2.41-6.42-1.94l-82.62 16.53-22.94 4.59c-1.37.27-2.64.95-3.63 1.94l-130.991 130.99c-19.1 19.1-19.1 50.07 0 69.17l19.96 19.95c9.55 9.56 22.07 14.33 34.59 14.33.79 0 1.57-.02 2.35-.06 1.63-.08 3.26-.24 4.87-.47.32-.05.64-.1.96-.16.36-.06.73-.12 1.09-.2.29-.05.58-.11.87-.17 8.96-1.89 17.49-6.32 24.44-13.27l199.35-199.35zm-130.25 169.44-51.06 51.05c-5.93 5.95-15.57 5.95-21.51 0l-23.05-23.03c-5.93-5.95-5.93-15.59 0-21.53l51.06-51.05c2.78-2.78 7.27-2.78 10.05 0l34.51 34.52c2.78 2.77 2.78 7.27 0 10.04z" fill="#fe646f"/><path d="m34.709 477.72c-19.1-19.1-19.1-50.07 0-69.17l137.28-137.52-22.94 4.59c-1.37.27-2.64.95-3.63 1.94l-130.991 130.99c-19.1 19.1-19.1 50.07 0 69.17l19.96 19.95c9.55 9.56 22.07 14.33 34.59 14.33.79 0 1.57-.02 2.35-.06 1.63-.08 3.26-.24 4.87-.47.32-.05.64-.1.96-.16.36-.06.73-.12 1.09-.2.29-.05.58-.11.87-.17-8.96-1.89-17.49-6.31-24.44-13.27z" fill="#e53950"/><path d="m208.026 359.397-39.185 39.174 16.909 16.909-10.762 10.762-89.122-89.132 10.752-10.752 16.909 16.909 39.185-39.185c2.972-2.972 7.79-2.972 10.762 0s2.972 7.79 0 10.762l-39.185 39.175 11.513 11.523 39.185-39.185c2.972-2.972 7.79-2.972 10.762 0s2.972 7.79 0 10.762l-39.185 39.175 11.513 11.523 39.185-39.185c2.972-2.972 7.79-2.972 10.762 0 2.974 2.975 2.974 7.793.002 10.765z" fill="#e53950"/><g fill="#d7e4f7"><path d="m472.755 31.51c-4.355 0-8.541.726-12.458 2.044-8.409-20.139-28.08-33.554-50.586-33.554-22.344 0-41.994 13.328-50.477 33.316-3.712-1.171-7.66-1.806-11.753-1.806-21.583 0-39.142 17.559-39.142 39.141 0 4.202 3.406 7.608 7.608 7.608s7.608-3.406 7.608-7.608c0-13.193 10.733-23.926 23.927-23.926 13.193 0 23.926 10.733 23.926 23.926 0 4.202 3.406 7.608 7.608 7.608s7.608-3.406 7.608-7.608c0-12.002-5.434-22.753-13.966-29.939 5.778-15.231 20.378-25.497 37.055-25.497 16.925 0 31.627 10.493 37.252 26.032-8.175 7.179-13.35 17.696-13.35 29.405 0 4.202 3.406 7.608 7.608 7.608s7.608-3.406 7.608-7.608c0-13.193 10.733-23.926 23.927-23.926s23.927 10.733 23.927 23.926-10.733 23.927-23.927 23.927c-4.202 0-7.608 3.406-7.608 7.608s3.406 7.608 7.608 7.608c21.583 0 39.142-17.559 39.142-39.142s-17.563-39.143-39.145-39.143z"/><path d="m478.434 64.987c3.136 3.136 3.136 8.222 0 11.358-3.136 3.136-8.221 3.136-11.358 0-3.136-3.136-3.136-8.221 0-11.358 3.136-3.136 8.221-3.136 11.358 0z"/><path d="m478.408 190.98c3.136 3.136 3.136 8.222 0 11.358-3.136 3.136-8.221 3.136-11.358 0-3.136-3.136-3.136-8.221 0-11.358 3.136-3.136 8.222-3.136 11.358 0z"/><path d="m415.796 33.439c3.136 3.136 3.136 8.222 0 11.358-3.136 3.136-8.221 3.136-11.358 0-3.136-3.136-3.136-8.221 0-11.358 3.137-3.136 8.222-3.136 11.358 0z"/><path d="m415.796 96.507c3.136 3.136 3.136 8.222 0 11.358-3.136 3.136-8.221 3.136-11.358 0-3.136-3.136-3.136-8.221 0-11.358 3.137-3.136 8.222-3.136 11.358 0z"/></g><path d="m226.342 96.456c3.136 3.136 3.136 8.222 0 11.358-3.136 3.136-8.221 3.136-11.358 0-3.136-3.136-3.136-8.221 0-11.358 3.136-3.137 8.221-3.137 11.358 0z" fill="#fff"/><path d="m320.867 127.964c3.136 3.136 3.136 8.222 0 11.358-3.136 3.136-8.221 3.136-11.358 0-3.136-3.136-3.136-8.221 0-11.358 3.136-3.137 8.221-3.137 11.358 0z" fill="#d7e4f7"/><path d="m320.867 190.98c3.136 3.136 3.136 8.222 0 11.358-3.136 3.136-8.221 3.136-11.358 0-3.136-3.136-3.136-8.221 0-11.358 3.136-3.136 8.221-3.136 11.358 0z" fill="#d7e4f7"/><path d="m210.588 143.718c3.136 3.136 3.136 8.222 0 11.358-3.136 3.136-8.221 3.136-11.358 0-3.136-3.136-3.136-8.221 0-11.358 3.136-3.136 8.221-3.137 11.358 0z" fill="#fff"/><path d="m352.375 64.987c3.136 3.136 3.136 8.222 0 11.358-3.136 3.136-8.221 3.136-11.358 0-3.136-3.136-3.136-8.221 0-11.358 3.136-3.136 8.221-3.136 11.358 0z" fill="#d7e4f7"/></g></svg>