<svg id="Capa_1" enable-background="new 0 0 512 512" height="512" viewBox="0 0 512 512" width="512" xmlns="http://www.w3.org/2000/svg"><g><path d="m304 111.076-16 52.321c0 6.45 5.229 11.679 11.679 11.679 2.788 0 5.484-.997 7.601-2.812l34.053-29.188-11.031-42.302z" fill="#fee97d"/><path d="m308.604 163.396 14.552-47.587 7.146-15.036-26.302 10.303-16 52.321c0 6.45 5.229 11.679 11.679 11.679 2.788 0 5.484-.997 7.601-2.812l3.107-2.663c-1.129-1.798-1.783-3.925-1.783-6.205z" fill="#fed402"/><path d="m282.302 102.788h-35.091c-3.983 0-7.211-3.229-7.211-7.211v-17.577c0-3.983 3.229-7.211 7.211-7.211h35.091z" fill="#fee97d"/><path d="m430.563 111.076c-16.88 0-30.563 13.684-30.563 30.563v17.437l-27.415 10.302-20.585-10.302-32-48h-40.789c-3.983 0-7.211-3.229-7.211-7.211v-33.473c0-3.983 3.229-7.211 7.211-7.211h117.806c1.91 0 3.742.758 5.094 2.107l33.546 33.473c4.551 4.539 1.335 12.315-5.094 12.315z" fill="#fe646f"/><g fill="#e53950"><path d="m320 111.076 32 48 20.585 10.302 10.321-10.302-27.413-41.119c-2.866-4.299-7.691-6.881-12.858-6.881z"/><path d="m272 70.392v33.473c0 3.983 3.229 7.211 7.211 7.211h23.694v-47.896h-23.694c-3.982 0-7.211 3.229-7.211 7.212z"/></g><path d="m352 159.076h48v42.302h-48z" fill="#e53950"/><path d="m379.815 174.528h20.185v-15.453h-48v42.302h20.604v-19.637c0-3.983 3.228-7.212 7.211-7.212z" fill="#a60042"/><path d="m336 198.287v51.091h90.496l21.504-10.302v-1.111c0-25.896-20.993-46.889-46.889-46.889h-57.9c-3.982 0-7.211 3.228-7.211 7.211z" fill="#e9f1ff"/><path d="m336 198.287v51.091h30.906v-58.302h-23.694c-3.983 0-7.212 3.228-7.212 7.211z" fill="#d7e4f7"/><path d="m189.852 126.501-22.641 3.178-33.763-19.493.979-15.684 41.943-43.378c2.3-2.379 5.924-2.887 8.79-1.233l17.961 10.37c2.866 1.655 4.238 5.047 3.328 8.229z" fill="#9cf8d2"/><path d="m174.504 85.016 25.613-26.489-14.958-8.636c-2.866-1.655-6.49-1.146-8.79 1.232l-41.943 43.378-.979 15.684 33.763 19.493 22.641-3.178 4.381-15.314-17.474-10.089c-5.803-3.35-6.913-11.263-2.254-16.081z" fill="#91deb6"/><path d="m187.709 162.214-24.526 2.09-50.459-29.133-8.153-20.957 12.394-21.468c1.991-3.449 6.402-4.631 9.851-2.64l70.648 40.789c3.449 1.991 4.631 6.402 2.64 9.851z" fill="#9cf8d2"/><path d="m139.082 107.969 4.668-8.085-16.934-9.777c-3.449-1.991-7.859-.81-9.851 2.64l-12.394 21.468 8.154 20.957 50.459 29.133 24.526-2.09 7.726-13.383-53.714-31.012c-3.45-1.992-4.632-6.402-2.64-9.851z" fill="#91deb6"/><path d="m104.57 114.214 91.139 52.62c17.504 10.106 28.287 28.783 28.287 48.994v33.549h-176v-78.589c0-31.245 25.329-56.574 56.574-56.574z" fill="#b3dafe"/><path d="m123.026 124.869-18.455-10.656c-31.245 0-56.574 25.329-56.574 56.574v78.589h51.509v-78.589c-.001-18.905 9.273-35.644 23.52-45.918z" fill="#8ac9fe"/><path d="m480 260.774h-448v170.366c0 17.638 14.298 31.936 31.936 31.936h384.128c17.638 0 31.936-14.298 31.936-31.936z" fill="#fe646f"/><path d="m171.653 387.423c1.987 16.715 15.284 30.013 31.999 32 2.157 18.142 17.635 32.256 36.347 32.256 20.183 0 36.604-16.42 36.604-36.603v-11.685c18.019-2.27 32-17.691 32-36.316v-34.304c6.693 4.453 14.548 6.844 22.771 6.844 11.012 0 21.365-4.289 29.154-12.076 15.474-15.474 16.052-40.291 1.734-56.463h-222.866v80c0 18.712 14.115 34.19 32.257 36.347z" fill="#e53950"/><path d="m480 291.679v-30.906h-448v170.367c0 17.638 14.298 31.936 31.936 31.936h51.509c-17.638 0-31.936-14.298-31.936-31.936v-108.555c0-17.069 13.837-30.906 30.906-30.906z" fill="#e53950"/><path d="m496 271.076h-480c-8.837 0-16-7.163-16-16 0-8.837 7.163-16 16-16h144l15.453 10.302h110.423l14.272-10.302h195.852c8.837 0 16 7.163 16 16 0 8.836-7.163 16-16 16z" fill="#fe646f"/><path d="m51.509 255.076c0-8.837 7.164-16 16-16h-51.509c-8.836 0-16 7.163-16 16s7.164 16 16 16h51.509c-8.836 0-16-7.164-16-16z" fill="#e53950"/><path d="m345.959 283.802-45.812-44.726h-140.147v112c0 8.837 7.163 16 16 16s16-7.163 16-16v-16 48c0 8.837 7.163 16 16 16s16-7.163 16-16v-16 48c0 8.837 7.163 16 16 16s16-7.163 16-16v-64 16c0 8.837 7.163 16 16 16s16-7.163 16-16v-81.81l28.791 27.705c8.055 8.055 21.114 8.055 29.168 0 8.055-8.056 8.055-21.115 0-29.169z" fill="#9cf8d2"/><g fill="#91deb6"><path d="m332.244 312.97-28.791-27.705c-9.508-9.21-15.453-5-15.453 0l28.791 27.705c6.031 6.031 14.867 7.546 22.307 4.546.001 0 .002-.001.003-.001-2.495-1.007-4.834-2.522-6.857-4.545z"/><path d="m175.453 351.076v-112h-15.453v112c0 8.837 7.164 16 16 16 2.802 0 5.436-.721 7.726-1.986-4.932-2.726-8.273-7.98-8.273-14.014z"/><path d="m192 351.076v-16 16.006z"/><path d="m192 303.076v32 16 .007 31.993c0 8.653 6.87 15.702 15.453 15.99v-95.99c0-9.594-15.453-9.465-15.453 0z"/><path d="m192 335.076v16.01z"/><path d="m239.453 303.076c0-9.593-15.453-9.465-15.453 0v112.008c.004 8.833 7.166 15.992 16 15.992.281 0 .561-.007.839-.022-.891-7.207-1.386-13.655-1.386-15.978z"/><path d="m255.99 303.076.01 48v16c0 8.65 6.865 15.697 15.443 15.99v-79.99c0-9.594-15.453-9.465-15.453 0z"/></g></g></svg>