<svg id="Capa_1" enable-background="new 0 0 512 512" height="512" viewBox="0 0 512 512" width="512" xmlns="http://www.w3.org/2000/svg"><g><circle cx="241.357" cy="268.724" fill="#e9f1ff" r="210.909"/><path d="m72.235 268.723c0-109.431 83.343-199.389 190.016-209.88-6.874-.676-13.842-1.029-20.893-1.029-116.482 0-210.909 94.427-210.909 210.909s94.427 210.91 210.909 210.91c7.051 0 14.02-.353 20.893-1.029-106.673-10.492-190.016-100.45-190.016-209.881z" fill="#d7e4f7"/><g><g><path d="m241.358 422.568c-84.831 0-153.846-69.014-153.846-153.845s69.014-153.845 153.846-153.845c84.83 0 153.845 69.015 153.845 153.845s-69.015 153.845-153.845 153.845zm0-292.019c-76.19 0-138.176 61.985-138.176 138.175s61.985 138.175 138.176 138.175c76.189 0 138.175-61.985 138.175-138.175s-61.986-138.175-138.175-138.175z" fill="#d7e4f7"/></g></g><path d="m379.862 382.27h-147.431c-4.039 0-7.313-3.274-7.313-7.313v-212.467c0-4.039 3.274-7.313 7.313-7.313h147.431c4.039 0 7.313 3.274 7.313 7.313v212.468c0 4.038-3.274 7.312-7.313 7.312z" fill="#fee97d"/><path d="m225.119 162.49v212.468c0 4.039 3.274 7.313 7.313 7.313h24.027v-227.094h-24.027c-4.039 0-7.313 3.274-7.313 7.313z" fill="#fed402"/><path d="m361.983 512c-4.039 0-7.313-3.274-7.313-7.313v-56.967c-.864-33.813-29.103-15.423-33.873-72.801-3.036-36.508-16.332-73.317-32.987-102.332-15.09-26.287-1.842-36.469 13.213-28.022 19.016 10.669 30.65 28.761 40.182 46.758 4.555 8.6 13.258 7.897 13.466-3.387v-116.506c0-8.976 7.276-16.252 16.252-16.252h.002c8.976 0 16.251 7.277 16.25 16.252v-32.505c0-8.976 7.276-16.252 16.252-16.252 8.976 0 16.252 7.276 16.252 16.252v16.252c0-8.976 7.276-16.252 16.252-16.252 8.976 0 16.252 7.276 16.252 16.252v48.757c0-8.976 7.276-16.252 16.252-16.252 8.976 0 16.252 7.276 16.252 16.252v113.767 77.443c0 8.723-2.826 17.346-8.54 24.798-6.393 8.337-6.869 17.246-7.658 27.78v56.965c0 4.039-3.274 7.313-7.313 7.313z" fill="#f1b0a2"/><g fill="#eb9c8d"><path d="m402.845 285.196v-154.429c0-2.918.769-5.656 2.116-8.023-.505-.047-1.017-.072-1.534-.072-8.973 0-16.247 7.271-16.252 16.242v146.281c0 10.499 15.67 10.369 15.67.001z"/><path d="m435.35 285.196v-146.261c-8.703.306-15.665 7.455-15.67 16.232v130.029c0 10.498 15.67 10.368 15.67 0z"/><path d="m452.184 203.934v81.262c0 10.498 15.67 10.368 15.67 0v-97.504c-8.706.307-15.67 7.461-15.67 16.242z"/><path d="m336.466 374.919c-3.036-36.508-16.332-73.318-32.987-102.332-8.422-14.672-8.017-24.327-3.396-28.526-14.656-7.512-27.049 2.787-12.274 28.526 16.655 29.014 29.952 65.824 32.987 102.332 4.771 57.377 33.01 38.988 33.874 72.801v56.967c0 4.039 3.274 7.313 7.313 7.313h8.357v-64.28c-.864-33.813-29.103-15.423-33.874-72.801z"/><path d="m370.34 287.936v-116.507c0-6.135 3.4-11.476 8.417-14.242 0 0 0 0 0-.001-2.323-1.281-4.993-2.009-7.833-2.009h-.002c-8.976 0-16.252 7.276-16.252 16.252v116.506c-.098 5.321-2.085 8.288-4.635 9.038 6.465 5.449 20.305 4.105 20.305-9.037z"/></g><g><path d="m66.332 2.65c-.955-3.534-5.969-3.534-6.924 0-4.714 15.984-15.886 32.075-30.143 39.267-2.528 1.275-2.618 4.822-.186 6.273 14.382 8.577 25.063 22.364 29.701 38.653l.667 2.134c1.048 3.356 5.798 3.356 6.846 0l.666-2.134c4.638-16.289 15.319-30.075 29.701-38.653 2.432-1.45 2.342-4.997-.186-6.273-14.256-7.191-25.428-23.283-30.142-39.267z" fill="#b3dafe"/><path d="m59.408 2.65c-4.714 15.984-15.886 32.075-30.143 39.267-2.528 1.275-2.618 4.822-.186 6.273 14.382 8.577 25.063 22.364 29.701 38.653l.667 2.134c.524 1.678 1.974 2.517 3.423 2.517v-91.494c-1.492 0-2.984.884-3.462 2.65z" fill="#8ac9fe"/></g><g><path d="m131.231 290.499c-.955-3.534-5.969-3.534-6.924 0-4.714 15.984-15.886 32.075-30.143 39.267-2.528 1.275-2.618 4.822-.186 6.273 14.382 8.577 25.063 22.364 29.701 38.653l.667 2.134c1.048 3.356 5.798 3.356 6.846 0l.666-2.134c4.638-16.289 15.319-30.075 29.701-38.653 2.432-1.45 2.342-4.997-.186-6.273-14.255-7.191-25.427-23.283-30.142-39.267z" fill="#b3dafe"/><path d="m124.308 290.499c-4.714 15.984-15.886 32.075-30.143 39.267-2.528 1.275-2.618 4.822-.186 6.273 14.382 8.577 25.063 22.364 29.701 38.653l.667 2.134c.524 1.678 1.974 2.517 3.423 2.517v-91.493c-1.493-.001-2.985.882-3.462 2.649z" fill="#8ac9fe"/></g></g></svg>