<svg id="Capa_1" enable-background="new 0 0 512 512" height="512" viewBox="0 0 512 512" width="512" xmlns="http://www.w3.org/2000/svg"><g><path d="m63.992 21.699h384.016v468.602h-384.016z" fill="#f1b0a2"/><path d="m409.007 240.01h-130.006c-3.866 0-7-3.134-7-7v-162.007c0-3.866 3.134-7 7-7h130.006c3.866 0 7 3.134 7 7v162.007c0 3.866-3.134 7-7 7z" fill="#b3dafe"/><path d="m232.999 448.008h-130.006c-3.866 0-7-3.134-7-7v-162.007c0-3.866 3.134-7 7-7h130.006c3.866 0 7 3.134 7 7v162.007c0 3.866-3.134 7-7 7z" fill="#b3dafe"/><path d="m95.993 64.003h352.015v-42.304h-384.016v468.602h32.001z" fill="#eb9c8d"/><path d="m232.999 240.01h-130.006c-3.866 0-7-3.134-7-7v-162.007c0-3.866 3.134-7 7-7h130.006c3.866 0 7 3.134 7 7v162.007c0 3.866-3.134 7-7 7z" fill="#b3dafe"/><g fill="#8ac9fe"><path d="m132.052 84.607h107.948v-13.604c0-3.866-3.134-7-7-7h-130.007c-3.866 0-7 3.134-7 7v162.007c0 3.866 3.134 7 7 7h13.605v-139.949c0-8.535 6.919-15.454 15.454-15.454z"/><path d="m308.059 84.607h107.948v-13.604c0-3.866-3.134-7-7-7h-130.006c-3.866 0-7 3.134-7 7v162.007c0 3.866 3.134 7 7 7h13.605v-139.949c-.001-8.535 6.918-15.454 15.453-15.454z"/><path d="m132.052 292.605h107.948v-13.605c0-3.866-3.134-7-7-7h-130.007c-3.866 0-7 3.134-7 7v162.007c0 3.866 3.134 7 7 7h13.605v-139.948c0-8.535 6.919-15.454 15.454-15.454z"/></g><path d="m409.007 448.008h-130.006c-3.866 0-7-3.134-7-7v-162.007c0-3.866 3.134-7 7-7h130.006c3.866 0 7 3.134 7 7v162.007c0 3.866-3.134 7-7 7z" fill="#b3dafe"/><path d="m308.059 292.605h107.948v-13.605c0-3.866-3.134-7-7-7h-130.006c-3.866 0-7 3.134-7 7v162.007c0 3.866 3.134 7 7 7h13.605v-139.948c-.001-8.535 6.918-15.454 15.453-15.454z" fill="#8ac9fe"/><g><g><path d="m127.995 199.735c-1.977 0-3.955-.755-5.464-2.263-3.018-3.017-3.018-7.91 0-10.927l80.003-80.003c3.017-3.017 7.91-3.017 10.927 0 3.018 3.017 3.018 7.91 0 10.927l-80.003 80.003c-1.508 1.508-3.486 2.263-5.463 2.263z" fill="#e9f1ff"/></g></g><g><g><path d="m127.995 135.732c-1.977 0-3.955-.754-5.464-2.263-3.018-3.017-3.018-7.91 0-10.927l32.002-32.001c3.018-3.018 7.91-3.018 10.927 0 3.018 3.017 3.018 7.91 0 10.927l-32.002 32.001c-1.508 1.508-3.486 2.263-5.463 2.263z" fill="#e9f1ff"/></g></g><g><g><path d="m175.997 215.735c-1.977 0-3.955-.755-5.464-2.263-3.018-3.017-3.018-7.91 0-10.927l32.002-32.002c3.017-3.017 7.91-3.017 10.927 0 3.018 3.017 3.018 7.91 0 10.927l-32.002 32.002c-1.508 1.509-3.486 2.263-5.463 2.263z" fill="#e9f1ff"/></g></g><g><g><path d="m304.002 407.733c-1.977 0-3.955-.755-5.464-2.263-3.018-3.017-3.018-7.91 0-10.927l80.003-80.003c3.017-3.017 7.91-3.017 10.927 0 3.018 3.017 3.018 7.91 0 10.927l-80.003 80.003c-1.508 1.508-3.486 2.263-5.463 2.263z" fill="#e9f1ff"/></g></g><g><g><path d="m304.002 343.73c-1.977 0-3.955-.755-5.464-2.263-3.018-3.017-3.018-7.91 0-10.927l32.002-32.002c3.017-3.017 7.91-3.017 10.927 0 3.018 3.017 3.018 7.91 0 10.927l-32.002 32.002c-1.508 1.508-3.486 2.263-5.463 2.263z" fill="#e9f1ff"/></g></g><g><g><path d="m352.004 423.733c-1.977 0-3.955-.755-5.464-2.263-3.018-3.017-3.018-7.91 0-10.927l32.002-32.002c3.017-3.017 7.91-3.017 10.927 0 3.018 3.017 3.018 7.91 0 10.927l-32.002 32.002c-1.508 1.509-3.486 2.263-5.463 2.263z" fill="#e9f1ff"/></g></g><path d="m456.797 512h-401.594c-3.983 0-7.212-3.229-7.212-7.212v-17.578c0-3.983 3.229-7.212 7.212-7.212h401.594c3.983 0 7.212 3.229 7.212 7.212v17.578c-.001 3.983-3.229 7.212-7.212 7.212z" fill="#3e4f55"/><path d="m47.992 487.21v17.578c0 3.983 3.229 7.212 7.212 7.212h33.695v-32.001h-33.696c-3.983 0-7.211 3.228-7.211 7.211z" fill="#303d42"/><path d="m456.797 32.001h-401.594c-3.983 0-7.212-3.229-7.212-7.212v-17.577c.001-3.983 3.229-7.212 7.212-7.212h401.594c3.983 0 7.212 3.229 7.212 7.212v17.578c-.001 3.983-3.229 7.211-7.212 7.211z" fill="#3e4f55"/><path d="m47.992 7.212v17.578c0 3.983 3.229 7.212 7.212 7.212h44.3v-32.002h-44.3c-3.984 0-7.212 3.229-7.212 7.212z" fill="#303d42"/><g><path d="m347.591 106.893c-.915-3.383-5.713-3.383-6.628 0-4.513 15.3-15.207 30.704-28.854 37.588-2.42 1.221-2.506 4.616-.178 6.004 13.767 8.21 23.991 21.407 28.431 37l.638 2.043c1.003 3.213 5.55 3.213 6.554 0l.638-2.043c4.44-15.593 14.664-28.789 28.431-37 2.328-1.388 2.242-4.784-.178-6.004-13.647-6.884-24.342-22.288-28.854-37.588z" fill="#e9f1ff"/><path d="m340.963 106.893c-4.513 15.3-15.207 30.704-28.854 37.588-2.42 1.221-2.506 4.616-.178 6.004 13.767 8.21 23.991 21.407 28.431 37l.638 2.043c.502 1.606 1.889 2.409 3.277 2.409v-87.581c-1.429 0-2.857.846-3.314 2.537z" fill="#d7e4f7"/></g><g><path d="m171.584 318.751c-.915-3.383-5.713-3.383-6.628 0-4.513 15.3-15.207 30.704-28.854 37.588-2.42 1.221-2.506 4.616-.178 6.004 13.767 8.21 23.991 21.407 28.431 37l.638 2.043c1.003 3.213 5.55 3.213 6.554 0l.638-2.043c4.44-15.593 14.664-28.789 28.431-37 2.328-1.388 2.242-4.784-.178-6.004-13.647-6.884-24.342-22.288-28.854-37.588z" fill="#e9f1ff"/><path d="m164.956 318.751c-4.513 15.3-15.207 30.704-28.854 37.588-2.42 1.221-2.506 4.616-.178 6.004 13.767 8.21 23.991 21.407 28.431 37l.638 2.043c.502 1.606 1.889 2.409 3.277 2.409v-87.581c-1.429 0-2.857.846-3.314 2.537z" fill="#d7e4f7"/></g></g></svg>