<svg id="Capa_1" enable-background="new 0 0 512 512" height="512" viewBox="0 0 512 512" width="512" xmlns="http://www.w3.org/2000/svg"><g><path d="m135.998 15.999v282.291h-31.998v-282.291c0-8.643 6.871-15.7 15.453-15.988.186-.011.361-.011.547-.011 4.419 0 8.417 1.793 11.311 4.687 2.895 2.895 4.687 6.892 4.687 11.312z" fill="#f1b0a2"/><path d="m119.454.01v298.28h-15.453v-282.291c0-8.643 6.871-15.7 15.453-15.989z" fill="#eb9c8d"/><path d="m215.99 287.99 35.52-10.302h151.362l37.128 10.302-15.522 217.312c-.27 3.774-3.41 6.698-7.193 6.698h-154.379l-20.604-10.302-12.59-21.719z" fill="#fe646f"/><path d="m115.044 431.951v-90.252h-43.043v106.194c0 35.406 28.702 64.107 64.107 64.107h47.941l-21.562-32.021h-17.777c-16.384 0-29.666-31.644-29.666-48.028z" fill="#e9f1ff"/><path d="m152 330.297h-64v-35.08c0-3.983 3.229-7.211 7.211-7.211h49.577c3.983 0 7.211 3.229 7.211 7.211v35.08z" fill="#f1b0a2"/><path d="m88.001 295.217v35.08h25.755v-42.291h-18.544c-3.983 0-7.211 3.229-7.211 7.211z" fill="#eb9c8d"/><g fill="#b3dafe"><circle cx="216" cy="160.001" r="16"/><circle cx="296" cy="112.002" r="16"/><path d="m407.957 209.66c0-29.141-21.448-49.658-47.958-49.658-15.99 0-30.145 7.826-38.868 19.849-23.514-11.163-52.154 3.664-56.547 29.367-29.779-6.523-48.595 19.362-48.595 46.783l35.52 10.302h154.109l34.192-10.302c.189-25.69-8.437-46.341-31.853-46.341z"/></g><path d="m295.595 204.834c3.54-12.122 12.65-21.337 23.719-25.79-23.149-9.589-50.449 5.13-54.73 30.174-29.779-6.523-48.595 19.362-48.595 46.783l35.52 10.302h30l-35.52-10.302c0-26.029 16.954-50.674 44.146-47.53 2.477.287 4.761-1.244 5.46-3.637z" fill="#8ac9fe"/><path d="m439.999 287.99-36.441-10.302h-152.048l-35.52 10.302 13.722 191.989 12.59 21.719 20.604 10.302-13.354-186.841c-.639-8.945 6.445-16.554 15.413-16.554h173.562z" fill="#e53950"/><path d="m263.999 416.029h-47.78c-26.323 0-47.662-21.339-47.662-47.662l-32.741-.366c0 44.208 35.841 80.044 80.049 80.037l48.137-.007c8.835-.001 15.998-7.165 15.998-16.001 0-8.837-7.164-16.001-16.001-16.001z" fill="#e9f1ff"/><path d="m263.999 447.985h-47.78c-26.323 0-47.662-21.339-47.662-47.662l-32.741-.366c0 44.208 35.841 80.044 80.049 80.037l48.137-.007c8.836-.001 15.999-7.165 15.999-16.001-.001-8.837-7.165-16.001-16.002-16.001z" fill="#bed2ee"/><path d="m146.859 431.951v-90.252h-43.043v106.194c0 35.406 28.702 64.107 64.107 64.107h47.941l-21.562-32.021h-17.778c-16.384 0-29.665-31.644-29.665-48.028z" fill="#bed2ee"/><path d="m288.789 320.001h-17.577c-3.983 0-7.211-3.229-7.211-7.211v-35.09h32v35.09c-.001 3.982-3.23 7.211-7.212 7.211z" fill="#e9f1ff"/><g><g><path d="m428.571 455.716h-20.582c-74.834 0-135.715-60.882-135.715-135.715 0-4.267 3.459-7.726 7.726-7.726s7.726 3.459 7.726 7.726c0 66.313 53.949 120.263 120.263 120.263h20.582c4.267 0 7.726 3.459 7.726 7.726s-3.459 7.726-7.726 7.726z" fill="#e9f1ff"/></g></g><path d="m263.999 479.979h-47.78c-26.323 0-47.662-21.339-47.662-47.662v-80.316l-32.741-10.302v90.252c0 44.208 35.841 80.044 80.049 80.037l48.137-.007c8.835-.001 15.998-7.164 15.998-16.001 0-8.837-7.164-16.001-16.001-16.001z" fill="#e9f1ff"/><path d="m168 351.995h-96c-8.837 0-16-7.163-16-16 0-8.837 7.163-16 16-16h96c8.837 0 16 7.163 16 16 0 8.837-7.163 16-16 16z" fill="#fe646f"/><path d="m97.208 335.996c0-8.837 7.163-16 16-16h-41.207c-8.837 0-16 7.164-16 16s7.163 16 16 16h41.207c-8.836-.001-16-7.164-16-16z" fill="#e53950"/><path d="m448.788 288.001h-241.576c-3.983 0-7.211-3.229-7.211-7.211v-17.577c0-3.983 3.229-7.211 7.211-7.211h241.576c3.983 0 7.211 3.229 7.211 7.211v17.577c0 3.982-3.228 7.211-7.211 7.211z" fill="#fe646f"/><path d="m200 263.212v17.577c0 3.983 3.229 7.211 7.211 7.211h44.298v-32h-44.298c-3.982.001-7.211 3.23-7.211 7.212z" fill="#e53950"/></g></svg>