<svg id="Capa_1" enable-background="new 0 0 512 512" height="512" viewBox="0 0 512 512" width="512" xmlns="http://www.w3.org/2000/svg"><g><path d="m472.789 512h-433.578c-3.983 0-7.211-3.229-7.211-7.211v-497.578c0-3.982 3.229-7.211 7.211-7.211h56.789l57.291 10.302h205.418l57.291-10.302h56.789c3.982 0 7.211 3.229 7.211 7.211v497.577c0 3.983-3.229 7.212-7.211 7.212z" fill="#bed2ee"/><path d="m416 0h-320v160l30.906 10.302h248.939l40.155-10.302z" fill="#e9f1ff"/><path d="m415.999 159.997v88.782c0 3.983-3.229 7.211-7.211 7.211h-305.575c-3.983 0-7.211-3.229-7.211-7.211v-88.782z" fill="#3e4f55"/><path d="m96 160v88.778c0 3.983 3.229 7.211 7.211 7.211h23.694v-95.989z" fill="#303d42"/><g><g><path d="m96.001 184.278h319.997v15.453h-319.997z" fill="#303d42"/></g></g><path d="m312.789 287.995h-113.578c-3.983 0-7.211-3.229-7.211-7.211v-49.572c0-3.983 3.229-7.211 7.211-7.211h113.577c3.983 0 7.211 3.229 7.211 7.211v49.572c.001 3.982-3.228 7.211-7.21 7.211z" fill="#fe646f"/><path d="m192 231.211v49.572c0 3.983 3.229 7.211 7.211 7.211h13.392v-63.994h-13.392c-3.982 0-7.211 3.229-7.211 7.211z" fill="#e53950"/><path d="m264.211 245.696h-17.578c-9.657 0-17.513 7.856-17.513 17.513v24.786h52.604v-24.786c.001-9.657-7.856-17.513-17.513-17.513z" fill="#e53950"/><path d="m246.634 255.997h17.577c3.983 0 7.211 3.229 7.211 7.211v99.093h-32v-99.093c0-3.982 3.229-7.211 7.212-7.211z" fill="#f1b0a2"/><path d="m239.422 263.209v99.093h15.453v-106.305h-8.242c-3.982 0-7.211 3.229-7.211 7.212z" fill="#eb9c8d"/><path d="m256 480c-13.255 0-24-10.745-24-24v-96.794c0-3.983 3.229-7.211 7.211-7.211h33.577c3.983 0 7.211 3.229 7.211 7.211v96.794c.001 13.255-10.744 24-23.999 24z" fill="#3e4f55"/><path d="m252.604 456v-104.005h-13.392c-3.983 0-7.211 3.229-7.211 7.211v96.22c0 13.235 10.824 24.606 24.059 24.574 3.666-.009 7.138-.84 10.243-2.318-8.101-3.855-13.699-12.114-13.699-21.682z" fill="#303d42"/><g><g><path d="m176 423.724c-13.083 0-23.726-10.643-23.726-23.726v-63.998c0-4.562-3.712-8.274-8.274-8.274s-8.274 3.712-8.274 8.274v15.99c0 13.081-10.642 23.725-23.723 23.726-.002 0-.003 0-.004 0-6.337 0-12.294-2.467-16.775-6.948-4.482-4.481-6.95-10.44-6.95-16.778v-64c0-4.267 3.459-7.726 7.726-7.726s7.726 3.459 7.726 7.726v64c0 2.21.861 4.288 2.424 5.851 1.563 1.562 3.641 2.423 5.851 2.423 4.562-.001 8.273-3.712 8.273-8.273v-15.991c0-13.083 10.643-23.727 23.727-23.727s23.727 10.643 23.727 23.727v63.997c0 4.562 3.711 8.273 8.273 8.273s8.274-3.711 8.274-8.273v-48.007c0-4.267 3.459-7.726 7.726-7.726s7.726 3.459 7.726 7.726v48.008c-.001 13.082-10.644 23.726-23.727 23.726z" fill="#e9f1ff"/></g></g><g><g><path d="m336.003 391.726c-13.087 0-23.73-10.642-23.73-23.724v-48.002c0-4.267 3.459-7.726 7.726-7.726s7.726 3.459 7.726 7.726v48.002c0 4.561 3.71 8.271 8.272 8.271 4.565 0 8.276-3.71 8.276-8.271v-32.005c0-13.082 10.643-23.724 23.725-23.724 13.087 0 23.729 10.642 23.729 23.724 0 4.56 3.71 8.271 8.271 8.271 4.566 0 8.277-3.71 8.277-8.271v-48.007c0-4.267 3.459-7.726 7.726-7.726s7.726 3.459 7.726 7.726v48.008c0 13.081-10.643 23.724-23.725 23.724-13.087 0-23.729-10.642-23.729-23.724 0-4.561-3.71-8.271-8.271-8.271-4.566 0-8.277 3.71-8.277 8.271v32.005c.001 13.081-10.641 23.723-23.722 23.723z" fill="#e9f1ff"/></g></g><g><path d="m323.414 9.642c-.942-3.485-5.886-3.485-6.828 0-4.649 15.762-15.666 31.631-29.725 38.723-2.493 1.258-2.582 4.755-.183 6.186 14.182 8.458 24.716 22.054 29.289 38.117l.657 2.104c1.034 3.31 5.718 3.31 6.751 0l.657-2.104c4.574-16.063 15.107-29.659 29.289-38.117 2.398-1.43 2.31-4.928-.183-6.186-14.058-7.093-25.075-22.961-29.724-38.723z" fill="#b3dafe"/><path d="m316.586 9.642c-4.649 15.762-15.666 31.631-29.725 38.723-2.493 1.258-2.582 4.756-.183 6.186 14.182 8.458 24.716 22.054 29.289 38.117l.657 2.104c.517 1.655 1.946 2.482 3.376 2.482v-90.226c-1.471 0-2.943.871-3.414 2.614z" fill="#8ac9fe"/></g><g><path d="m195.414 65.253c-.942-3.485-5.886-3.485-6.828 0-4.649 15.762-15.666 31.631-29.725 38.723-2.493 1.258-2.582 4.755-.183 6.186 14.182 8.458 24.716 22.054 29.289 38.117l.657 2.104c1.034 3.31 5.718 3.31 6.751 0l.657-2.104c4.574-16.063 15.107-29.659 29.289-38.117 2.398-1.43 2.31-4.928-.183-6.186-14.058-7.093-25.075-22.961-29.724-38.723z" fill="#b3dafe"/><path d="m188.586 65.253c-4.649 15.762-15.666 31.631-29.725 38.723-2.493 1.258-2.582 4.756-.183 6.186 14.182 8.458 24.716 22.054 29.289 38.117l.657 2.104c.517 1.655 1.946 2.482 3.376 2.482v-90.226c-1.471 0-2.943.871-3.414 2.614z" fill="#8ac9fe"/></g></g></svg>