<svg id="Capa_1" enable-background="new 0 0 512 512" height="512" viewBox="0 0 512 512" width="512" xmlns="http://www.w3.org/2000/svg"><g><path d="m121.351 25.32h32.446v42.892h-32.446z" fill="#fee97d"/><path d="m162.495 116.881h-49.841v-51.803c0-4.038 3.274-7.312 7.312-7.312h35.217c4.038 0 7.312 3.274 7.312 7.312z" fill="#9cf8d2"/><path d="m112.654 65.078v51.803h26.114v-59.114h-18.802c-4.038 0-7.312 3.273-7.312 7.311z" fill="#91deb6"/><g><path d="m164.385 33.155h-53.969c-4.327 0-7.834-3.508-7.834-7.834s3.507-7.834 7.834-7.834h53.969c4.327 0 7.834 3.508 7.834 7.834s-3.507 7.834-7.834 7.834z" fill="#9cf8d2"/></g><circle cx="279.749" cy="309.218" fill="#e9f1ff" r="202.782"/><path d="m255.804 466.651c10.187-32.205 13.207-66.795 8.725-100.266-4.636-34.618-17.328-68.278-36.702-97.339l-.704-1.056-.826-.963c-6.499-7.57-6.064-19.027.992-26.082l28.516-28.517v-41.034c0-22.977-9.074-43.874-23.826-59.298-88.942 21.477-155.012 101.584-155.012 197.122 0 100.877 73.659 184.548 170.126 200.165 5.502-8.29 8.711-18.228 8.711-28.902z" fill="#d7e4f7"/><g><g><path d="m279.749 457.436c-81.727 0-148.218-66.49-148.218-148.218s66.49-148.218 148.218-148.218 148.218 66.49 148.218 148.218-66.491 148.218-148.218 148.218zm0-280.767c-73.088 0-132.549 59.462-132.549 132.549s59.461 132.549 132.549 132.549 132.549-59.462 132.549-132.549-59.461-132.549-132.549-132.549z" fill="#d7e4f7"/></g></g><path d="m203.405 511.99h-131.661c-17.402 0-31.508-14.107-31.508-31.508v-17.137c-20.472-61.417-11.443-128.845 24.468-182.711 13.653-15.904 12.751-39.64-2.07-54.462l-22.398-22.398 10.446-32.381c0-5.62-9.732-11.073-8.39-16.274 7.223-27.999 32.647-48.683 62.902-48.683h64.762c30.255 0 55.679 20.684 62.902 48.683 1.342 5.201-8.39 10.654-8.39 16.274l10.446 32.381-22.398 22.398c-14.821 14.821-15.724 38.558-2.07 54.462 35.91 53.866 44.94 121.294 24.468 182.71v17.137c-.001 17.402-14.108 31.509-31.509 31.509z" fill="#9cf8d2"/><path d="m92.464 480.482v-17.137c-20.472-61.416-11.442-128.844 24.468-182.71 13.653-15.904 12.751-39.641-2.07-54.462l-22.398-22.398v-32.381c0-35.875 29.082-64.957 64.957-64.957h-52.228c-30.255 0-55.679 20.684-62.902 48.683-1.342 5.201 8.39 10.654 8.39 16.274l-10.446 32.381 22.398 22.398c14.821 14.821 15.724 38.558 2.07 54.462-35.91 53.866-44.94 121.294-24.468 182.71v17.137c0 17.402 14.107 31.508 31.508 31.508h52.228c-17.401 0-31.507-14.107-31.507-31.508z" fill="#91deb6"/><g fill="#fee97d"><path d="m234.913 171.393c0-5.62-.714-11.073-2.056-16.274h-190.565-.001c-1.342 5.201-2.055 10.654-2.055 16.274v32.381h194.677z"/><path d="m72.93 471.984v-13.945l-1.678-5.034c-8.479-25.438-11.08-52.931-7.521-79.508 3.489-26.047 12.915-51.384 27.29-73.386 23.045-28.689 70.061-28.689 93.106 0 14.375 22.002 23.801 47.34 27.29 73.386 3.559 26.576.958 54.07-7.521 79.508l-1.678 5.034v13.945c0 4.038-3.274 7.312-7.312 7.312h-114.664c-4.038-.001-7.312-3.274-7.312-7.312z"/><path d="m42.291 155.119-.001.004z"/></g><path d="m94.519 155.119h-52.227c-1.365 5.312-2.056 10.789-2.056 16.274v32.381h52.228v-32.381c0-5.62.713-11.073 2.055-16.274z" fill="#fed402"/><path d="m91.021 300.111c-14.375 22.002-23.801 47.34-27.29 73.386-3.559 26.576-.958 54.07 7.521 79.508l1.678 5.034v13.945c0 4.038 3.274 7.312 7.312 7.312h12.221v-15.951c-20.24-60.718-11.644-127.312 23.254-180.868-9.454 3.504-18.067 9.382-24.696 17.634z" fill="#fed402"/><g fill="#b3dafe"><path d="m288.447 244.61c-4.327 0-7.834 3.508-7.834 7.834v16.223c0 4.327 3.507 7.834 7.834 7.834s7.834-3.508 7.834-7.834v-16.223c.001-4.327-3.506-7.834-7.834-7.834z"/><path d="m288.447 293.279c-4.327 0-7.834 3.508-7.834 7.834v16.223c0 4.327 3.507 7.834 7.834 7.834s7.834-3.508 7.834-7.834v-16.223c.001-4.326-3.506-7.834-7.834-7.834z"/><path d="m320.893 277.056h-16.222c-4.327 0-7.834 3.508-7.834 7.834 0 4.327 3.507 7.834 7.834 7.834h16.222c4.327 0 7.834-3.508 7.834-7.834 0-4.327-3.507-7.834-7.834-7.834z"/><path d="m272.224 277.056h-16.223c-4.327 0-7.834 3.508-7.834 7.834 0 4.327 3.507 7.834 7.834 7.834h16.223c4.327 0 7.834-3.508 7.834-7.834 0-4.327-3.507-7.834-7.834-7.834z"/></g><g><path d="m389.247 2.65c-.955-3.533-5.968-3.533-6.923 0-4.714 15.982-15.884 32.072-30.139 39.263-2.528 1.275-2.618 4.822-.186 6.272 14.38 8.576 25.06 22.361 29.698 38.648l.666 2.134c1.048 3.356 5.797 3.356 6.846 0l.666-2.134c4.638-16.287 15.318-30.072 29.698-38.648 2.432-1.45 2.342-4.997-.186-6.272-14.255-7.191-25.426-23.281-30.14-39.263z" fill="#b3dafe"/><path d="m382.324 2.65c-4.714 15.982-15.884 32.072-30.139 39.262-2.528 1.275-2.618 4.822-.186 6.272 14.38 8.576 25.06 22.361 29.698 38.648l.666 2.134c.524 1.678 1.973 2.517 3.423 2.517v-91.483c-1.492 0-2.984.884-3.462 2.65z" fill="#8ac9fe"/></g></g></svg>