<svg id="Capa_1" enable-background="new 0 0 512 512" height="512" viewBox="0 0 512 512" width="512" xmlns="http://www.w3.org/2000/svg"><g><path d="m245.968 39.612h-35.094c-3.983 0-7.212-3.229-7.212-7.212v-17.579c0-3.983 3.229-7.212 7.212-7.212h35.094z" fill="#fee97d"/><path d="m267.669 47.9-15.552 52.326c0 6.451 5.23 11.681 11.681 11.681 2.788 0 5.485-.997 7.602-2.812l34.056-29.191-11.033-42.306z" fill="#fee97d"/><path d="m272.723 100.226 14.271-48.015 7.429-14.613-26.754 10.302-15.552 52.326c0 6.451 5.229 11.681 11.681 11.681 2.788 0 5.485-.997 7.602-2.812l3.107-2.663c-1.131-1.799-1.784-3.926-1.784-6.206z" fill="#fed402"/><path d="m395.618 47.9c-17.64 0-31.939 14.3-31.939 31.939v16.066l-16.646 10.303h-16.451l-14.458-10.303-32.004-48.005h-41.242c-3.983 0-7.212-3.229-7.212-7.212v-33.476c0-3.983 3.229-7.212 7.212-7.212h118.426c1.809 0 3.544.718 4.824 1.995l34.314 34.24c4.31 4.301 1.264 11.665-4.824 11.665z" fill="#fe646f"/><g fill="#e53950"><path d="m235.665 7.212v33.476c0 3.983 3.229 7.212 7.212 7.212h23.697v-47.9h-23.697c-3.983 0-7.212 3.229-7.212 7.212z"/><path d="m284.12 47.9 32.003 48.005 14.458 10.303 16.451-10.303-27.415-41.123c-2.866-4.299-7.692-6.882-12.859-6.882z"/></g><path d="m316.123 95.905h47.555v42.306h-47.555z" fill="#e53950"/><path d="m343.941 111.36h19.737v-15.455h-47.555v42.306h20.606v-19.64c0-3.982 3.229-7.211 7.212-7.211z" fill="#a60042"/><g><path d="m171.659 23.677h-64.007c-4.268 0-7.727-3.46-7.727-7.727s3.459-7.727 7.727-7.727h64.007c4.268 0 7.727 3.46 7.727 7.727s-3.459 7.727-7.727 7.727z" fill="#b3dafe"/></g><g><path d="m107.658 87.632c-2.834 0-5.564-1.565-6.917-4.273-1.909-3.817-.361-8.459 3.455-10.367l64.007-32.004c3.82-1.908 8.46-.361 10.367 3.456 1.909 3.817.361 8.459-3.455 10.367l-64.007 32.004c-1.11.555-2.289.817-3.45.817z" fill="#b3dafe"/></g><path d="m267.65 47.9-15.552 52.326c0 6.451 5.23 11.681 11.681 11.681 2.788 0 5.485-.997 7.602-2.812l34.056-29.191-21.336-32.004z" fill="#fee97d"/><path d="m272.704 100.226 14.271-48.015-2.874-4.31h-16.451l-15.552 52.326c0 6.451 5.229 11.681 11.681 11.681 2.788 0 5.485-.997 7.602-2.812l3.107-2.663c-1.13-1.8-1.784-3.927-1.784-6.207z" fill="#fed402"/><path d="m299.653 134.911v65.932c0 14.943-5.239 29.414-14.806 40.894l-38.281 45.937s3.494 20.49 3.494 35.433v136.953c0 17.639 14.3 31.939 31.939 31.939h78.138c17.654 0 31.96-14.322 31.939-31.977l19.775-172.047-.131-112.304c-.031-26.364-21.404-47.723-47.768-47.738l-57.297-.023c-3.866 0-7.002 3.134-7.002 7.001z" fill="#e9f1ff"/><path d="m219.645 343.107v136.953c0 17.639 14.3 31.939 31.939 31.939h128.553c17.654 0 31.96-14.323 31.939-31.977l-.225-192.047-165.28-.298-.006-.003-12.115 14.538c-9.566 11.481-14.805 25.952-14.805 40.895z" fill="#b3dafe"/><path d="m286.733 287.751 38.345-46.014c9.567-11.48 14.806-25.951 14.806-40.894v-72.918l-33.228-.014c-3.867-.002-7.003 3.133-7.003 7v65.932c0 14.944-5.239 29.414-14.806 40.894l-38.282 45.938.006.003z" fill="#d7e4f7"/><path d="m259.876 480.061v-136.953c0-14.944 5.239-29.414 14.806-40.894l12.052-14.463-40.162-.072-.006-.003-12.115 14.538c-9.567 11.48-14.806 25.95-14.806 40.894v136.953c0 17.639 14.3 31.939 31.939 31.939h40.231c-17.64 0-31.939-14.3-31.939-31.939z" fill="#8ac9fe"/><g><g><path d="m347.63 127.929v351.804c0 4.266-3.462 7.727-7.727 7.727s-7.727-3.462-7.727-7.727v-351.804z" fill="#bed2ee"/></g></g><path d="m339.901 487.456c4.268 0 7.727-3.46 7.727-7.727v-191.868l-15.454-.028v191.895c0 4.268 3.459 7.728 7.727 7.728z" fill="#8ac9fe"/></g></svg>