<svg id="Capa_1" enable-background="new 0 0 512 512" height="512" viewBox="0 0 512 512" width="512" xmlns="http://www.w3.org/2000/svg"><g><path d="m163.2 264.061 12.8-10.302 16 10.302v96l-16 10.302-16-10.302z" fill="#e9f1ff"/><path d="m76.8 264.061 14.713-10.302 14.087 10.302-9.6 96-16.162 10.302-15.838-10.302z" fill="#d7e4f7"/><path d="m48 264.061 14.906-10.302 13.894 10.302-12.8 96-16.547 10.302-15.453-10.302z" fill="#e9f1ff"/><path d="m105.6 264.061 14.072-10.302 14.728 10.302-6.4 96-16 10.302-16-10.302z" fill="#e9f1ff"/><path d="m134.4 264.061 11.2-10.302 17.6 10.302-3.2 96-14.4 10.302-17.6-10.302z" fill="#d7e4f7"/><path d="m192 264.061 16-10.302 12.8 10.302 3.2 96-16 10.302-16-10.302z" fill="#d7e4f7"/><path d="m220.8 264.061 17.6-10.302 11.2 10.302 6.4 96-17.6 10.302-14.4-10.302z" fill="#e9f1ff"/><path d="m249.6 264.061 14.985-10.302 13.815 10.302 9.6 96-16 10.302-16-10.302z" fill="#d7e4f7"/><path d="m278.4 264.061 15.03-10.302 13.77 10.302 12.8 96-15.581 10.302-16.419-10.302z" fill="#e9f1ff"/><path d="m307.2 264.061 13.529-10.302 15.271 10.302 16 96-12.403 10.302-19.597-10.302z" fill="#d7e4f7"/><path d="m480.056 313.719c0-29.141-21.448-49.658-47.958-49.658-15.99 0-30.145 7.826-38.868 19.849-23.514-11.163-52.154 3.664-56.547 29.367-29.779-6.523-48.595 19.363-48.595 46.783l31.912 10.303h160l31.909-10.302c.189-25.691-8.437-46.342-31.853-46.342z" fill="#b3dafe"/><path d="m366.683 313.278c2.44-14.277 12.362-25.199 24.73-30.174-23.149-9.589-50.449 5.129-54.73 30.174-29.779-6.523-48.595 19.362-48.595 46.783l31.912 10.302h30l-31.912-10.302c0-27.421 18.816-53.306 48.595-46.783z" fill="#8ac9fe"/><circle cx="399.764" cy="215.825" fill="#b3dafe" r="15.764"/><circle cx="480" cy="231.589" fill="#b3dafe" r="15.764"/><path d="m121.998 189.625 16.727-33.455c1.222-2.443 3.719-3.986 6.45-3.986h113.579c8.904 0 16.122-7.218 16.122-16.122 0-8.904-7.218-16.122-16.122-16.122h-128c-6.107 0-11.689 3.45-14.42 8.912l-35.605 71.21c-9.239 0-16.729 7.49-16.729 16.729v25.573h256.729v-25.574c0-9.239-7.49-16.729-16.729-16.729h-175.552c-5.361 0-8.848-5.641-6.45-10.436z" fill="#fe646f"/><path d="m101.333 200.061 35.605-71.21c2.731-5.462 8.314-8.912 14.42-8.912h-20.604c-6.107 0-11.689 3.45-14.42 8.912l-35.605 71.21c-9.239 0-16.729 7.49-16.729 16.729v25.573h20.604v-25.573c0-9.239 7.49-16.729 16.729-16.729z" fill="#e53950"/><path d="m64 221.759h256.729v20.604h-256.729z" fill="#e53950"/><path d="m344.789 264.061h-305.578c-3.983 0-7.211-3.229-7.211-7.211v-17.577c0-3.983 3.229-7.211 7.211-7.211h305.577c3.983 0 7.211 3.229 7.211 7.211v17.577c.001 3.982-3.228 7.211-7.21 7.211z" fill="#fe646f"/><path d="m32 239.272v17.577c0 3.983 3.229 7.211 7.211 7.211h23.694v-32h-23.694c-3.982.001-7.211 3.23-7.211 7.212z" fill="#e53950"/><path d="m504.789 392.061h-497.578c-3.983 0-7.211-3.229-7.211-7.211v-17.577c0-3.983 3.229-7.211 7.211-7.211h504.789v24.789c0 3.981-3.229 7.21-7.211 7.21z" fill="#f1b0a2"/><path d="m0 367.272v17.577c0 3.983 3.229 7.211 7.211 7.211h44.299v-32h-44.299c-3.982.001-7.211 3.23-7.211 7.212z" fill="#eb9c8d"/></g></svg>