<svg id="Capa_1" enable-background="new 0 0 512 512" height="512" viewBox="0 0 512 512" width="512" xmlns="http://www.w3.org/2000/svg"><g><path d="m384 480-64-10.302h-128l-64 10.302v25c0 3.866 3.134 7 7 7h242c3.866 0 7-3.134 7-7z" fill="#e9f1ff"/><path d="m128 480v25c0 3.866 3.134 7 7 7h23.906l5.112-42.302h-20.564z" fill="#d7e4f7"/><path d="m400 128-64.005 10.302h-159.995l-64.185-10.302 15.388-121.693c.455-3.605 3.521-6.307 7.154-6.307h41.643l30.456 10.302h95.903l33.636-10.302h41.639c3.637 0 6.705 2.708 7.156 6.317z" fill="#9cf8d2"/><path d="m397.425 107.396h-234.569c-9.304 0-16.498-8.161-15.331-17.391l11.381-90.005h-24.549c-3.633 0-6.699 2.702-7.154 6.307l-15.388 121.693 64.185 10.302h159.995l64.005-10.302z" fill="#91deb6"/><path d="m335.995 0h-159.995v88.789c0 3.983 3.229 7.211 7.211 7.211h145.572c3.983 0 7.211-3.229 7.211-7.211v-88.789z" fill="#e9f1ff"/><path d="m384 480h-256l-7.111-128 9.111-16-10.889-16-7.111-128 64-10.302h159.995l64.005 10.302-7.111 128-10.889 16 9.111 16z" fill="#9cf8d2"/><path d="m400 192-64.005-10.302h-159.995l-64 10.302 7.111 128 10.889 16-9.111 16 7.111 128h30.906l-13.949-251.086c-.492-8.858 6.558-16.31 15.429-16.31h238.47z" fill="#91deb6"/><path d="m120.889 352h270.222l1.778-32h-273.778z" fill="#e9f1ff"/><path d="m119.111 320 1.778 32h30.906l-1.778-32z" fill="#d7e4f7"/><path d="m188.628 408.699-8.033-144.598c-.23-4.134 3.06-7.611 7.2-7.611h136.41c4.14 0 7.43 3.478 7.2 7.611l-8.033 144.598c-.212 3.821-3.373 6.811-7.2 6.811h-120.344c-3.827 0-6.988-2.99-7.2-6.811z" fill="#e9f1ff"/><path d="m408.789 192h-305.578c-3.983 0-7.211-3.229-7.211-7.211v-49.577c0-3.983 3.229-7.211 7.211-7.211h305.577c3.983 0 7.211 3.229 7.211 7.211v49.577c.001 3.982-3.228 7.211-7.21 7.211z" fill="#e9f1ff"/><path d="m96 135.211v49.577c0 3.983 3.229 7.211 7.211 7.211h23.694v-64h-23.694c-3.982.001-7.211 3.23-7.211 7.212z" fill="#d7e4f7"/></g></svg>