<svg id="Capa_1" enable-background="new 0 0 512 512" height="512" viewBox="0 0 512 512" width="512" xmlns="http://www.w3.org/2000/svg"><g><g fill="#b3dafe"><circle cx="463.886" cy="125.756" r="15.996"/><circle cx="383.906" cy="77.767" r="15.996"/><path d="m258.096 177.678c0-29.134 22.994-49.646 51.414-49.646 17.143 0 32.317 7.824 41.669 19.844 25.209-11.161 55.912 3.663 60.622 29.36 31.925-6.521 52.096 19.358 52.096 46.772l-50.253 10.299h-157.833l-31.863-10.299c-.203-25.684 9.045-46.33 34.148-46.33z"/></g><path d="m309.593 177.678c0-19.452 10.251-35.059 25.522-43.285-7.539-4.046-16.281-6.361-25.605-6.361-28.42 0-51.414 20.512-51.414 49.646-25.103 0-34.351 20.646-34.148 46.33l32.115 10.299 19.382-10.299c-.203-25.684 9.045-46.33 34.148-46.33z" fill="#8ac9fe"/><path d="m480.463 287.992-16.083 217.268c-.279 3.765-3.415 6.677-7.19 6.677h-169.197l-197.713-10.299-17.187-86.121-9.109-127.525 35.501-10.299h339.563z" fill="#fe646f"/><path d="m480.463 287.992-41.415-10.299h-339.563l-35.501 10.299 9.109 127.525 17.187 86.121 41.197 10.299-13.342-186.797c-.639-8.943 6.444-16.55 15.41-16.55h345.394z" fill="#e53950"/><path d="m55.198 287.992h433.471c3.982 0 7.21-3.228 7.21-7.21v-49.565c0-3.982-3.228-7.21-7.21-7.21h-433.471c-3.982 0-7.21 3.228-7.21 7.21v49.565c0 3.982 3.228 7.21 7.21 7.21z" fill="#fe646f"/><path d="m47.988 231.217v49.565c0 3.982 3.228 7.21 7.21 7.21h44.287v-63.984h-44.287c-3.982 0-7.21 3.228-7.21 7.209z" fill="#e53950"/><path d="m31.928 511.937h256.065c17.633 0 31.928-14.295 31.928-31.928v-32.61c0-17.633-14.295-31.928-31.928-31.928l-64.048-10.299h-127.969l-64.048 10.299c-17.633 0-31.928 14.295-31.928 31.928v32.61c0 17.633 14.295 31.928 31.928 31.928z" fill="#b3dafe"/><path d="m51.497 480.009v-32.61c0-17.633 14.295-31.928 31.928-31.928h-51.497c-17.633 0-31.928 14.295-31.928 31.928v32.61c0 17.633 14.295 31.928 31.928 31.928h51.497c-17.633 0-31.928-14.295-31.928-31.928z" fill="#8ac9fe"/><g><path d="m287.93 455.677h-255.938c-4.266 0-7.725-3.458-7.725-7.725s3.458-7.725 7.725-7.725h255.938c4.267 0 7.725 3.458 7.725 7.725s-3.459 7.725-7.725 7.725z" fill="#8ac9fe"/></g><g><path d="m287.93 487.669h-255.938c-4.266 0-7.725-3.458-7.725-7.725s3.458-7.725 7.725-7.725h255.938c4.267 0 7.725 3.458 7.725 7.725s-3.459 7.725-7.725 7.725z" fill="#8ac9fe"/></g><path d="m24.267 447.953c0 4.266 3.458 7.725 7.725 7.725h19.505v-8.278c0-2.466.28-4.866.809-7.171h-20.314c-4.266-.001-7.725 3.458-7.725 7.724z" fill="#51aaed"/><path d="m51.497 472.22h-19.505c-4.266 0-7.725 3.458-7.725 7.725s3.458 7.725 7.725 7.725h20.43c-.604-2.454-.925-5.02-.925-7.66z" fill="#51aaed"/><path d="m95.976 394.268h127.969v-67.074c0-3.982-3.228-7.21-7.21-7.21h-113.549c-3.982 0-7.21 3.228-7.21 7.21z" fill="#9cf8d2"/><path d="m95.976 327.194v67.074h30.898v-74.284h-23.689c-3.981 0-7.209 3.228-7.209 7.21z" fill="#91deb6"/><path d="m143.965 298.292h31.992v-291.02c0-3.982-3.228-7.21-7.21-7.21h-17.573c-3.982 0-7.21 3.228-7.21 7.21v291.02z" fill="#e9f1ff"/><path d="m143.965 7.272v291.019h15.449v-298.228h-8.239c-3.983 0-7.21 3.228-7.21 7.209z" fill="#d7e4f7"/><g><g><path d="m495.865 384.339c5.918 0 11.614-3.271 14.436-8.926 3.974-7.966.738-17.645-7.227-21.619l-223.945-111.728c-7.966-3.973-17.646-.737-21.619 7.227-3.974 7.966-.738 17.645 7.227 21.619l223.945 111.728c2.31 1.153 4.766 1.699 7.183 1.699z" fill="#e9f1ff"/></g></g><path d="m159.961 351.976c13.607 0 24.638-11.031 24.638-24.638v-32.136c0-3.982-3.228-7.21-7.21-7.21h-34.858c-3.982 0-7.21 3.228-7.21 7.21v32.136c.001 13.607 11.032 24.638 24.64 24.638z" fill="#9cf8d2"/><path d="m161.071 327.338v-39.346h-18.539c-3.982 0-7.21 3.228-7.21 7.21v32.136c0 13.607 11.031 24.638 24.638 24.638 4.719 0 9.128-1.327 12.874-3.628-7.056-4.333-11.763-12.121-11.763-21.01z" fill="#91deb6"/><path d="m7.21 415.471h305.502c3.982 0 7.21-3.228 7.21-7.21v-17.083c0-3.982-3.228-7.21-7.21-7.21h-305.502c-3.982 0-7.21 3.228-7.21 7.21v17.083c0 3.982 3.228 7.21 7.21 7.21z" fill="#9cf8d2"/><path d="m0 391.178v17.083c0 3.982 3.228 7.21 7.21 7.21h44.287v-31.503h-44.287c-3.982.001-7.21 3.228-7.21 7.21z" fill="#91deb6"/></g></svg>