<svg id="Capa_1" enable-background="new 0 0 512 512" height="512" viewBox="0 0 512 512" width="512" xmlns="http://www.w3.org/2000/svg"><g><path d="m253.716.371-185.071 61.69c-2.949.983-4.938 3.743-4.938 6.852v179.093c0 119.609 76.537 225.799 190.009 263.623 1.483.494 3.085.494 4.568 0 113.471-37.824 190.009-144.014 190.009-263.623v-179.093c0-3.109-1.989-5.869-4.938-6.852l-185.071-61.69c-1.483-.495-3.085-.495-4.568 0z" fill="#e9f1ff"/><path d="m108.33 130.992c-4.55-4.55-12.329-1.327-12.329 5.107v109.5c0 102.736 62.688 194.096 157.362 231.481 1.691.668 3.583.668 5.274 0 43.062-17.004 79.506-45.175 106.444-80.504 2.19-2.872 1.905-6.928-.649-9.482l-64.247-64.247-67.511-46.875-43.522-64.157z" fill="#9cf8d2"/><path d="m253.716 34.412-136.396 45.465c-5.093 1.698-6.619 8.162-2.823 11.959l97.317 97.317 65.834 45.199 45.199 65.834 56.445 56.445c3.514 3.514 9.44 2.509 11.616-1.959 16.178-33.218 25.09-70.336 25.09-109.072v-153.411c0-3.109-1.989-5.869-4.938-6.852l-152.776-50.925c-1.483-.494-3.085-.494-4.568 0z" fill="#9cf8d2"/><g fill="#e53950"><path d="m283.7 189.126c.968.401 1.971.591 2.958.591 3.037 0 5.918-1.799 7.152-4.779l12.264-29.609c1.636-3.948-.239-8.475-4.188-10.111-3.946-1.635-8.474.239-10.11 4.188l-12.264 29.609c-1.635 3.949.24 8.476 4.188 10.111z"/><path d="m228.3 322.874c-3.945-1.633-8.474.239-10.11 4.188l-12.264 29.609c-1.636 3.948.239 8.475 4.188 10.111.968.401 1.971.591 2.958.591 3.037 0 5.918-1.799 7.152-4.779l12.264-29.609c1.635-3.949-.24-8.475-4.188-10.111z"/><path d="m218.19 184.938c1.234 2.98 4.115 4.779 7.152 4.779.986 0 1.99-.19 2.958-.591 3.949-1.635 5.824-6.162 4.188-10.111l-12.264-29.609c-1.635-3.948-6.162-5.824-10.11-4.188-3.949 1.635-5.824 6.162-4.188 10.111z"/><path d="m293.81 327.062c-1.635-3.948-6.161-5.824-10.11-4.188s-5.824 6.162-4.188 10.111l12.264 29.609c1.234 2.98 4.115 4.779 7.152 4.779.986 0 1.99-.19 2.958-.591 3.949-1.636 5.824-6.162 4.188-10.111z"/><path d="m149.406 220.223 29.61 12.264c.968.401 1.971.591 2.958.591 3.037 0 5.918-1.799 7.152-4.779 1.636-3.949-.239-8.475-4.188-10.111l-29.61-12.264c-3.947-1.634-8.474.239-10.11 4.188-1.636 3.95.239 8.476 4.188 10.111z"/><path d="m362.594 291.777-29.61-12.265c-3.945-1.635-8.474.239-10.11 4.188-1.636 3.948.239 8.475 4.188 10.111l29.61 12.265c.968.401 1.971.591 2.958.591 3.037 0 5.918-1.799 7.152-4.779 1.636-3.949-.239-8.476-4.188-10.111z"/><path d="m152.37 306.666c.986 0 1.99-.19 2.958-.591l29.61-12.265c3.949-1.636 5.824-6.162 4.188-10.111-1.635-3.948-6.162-5.824-10.11-4.188l-29.61 12.265c-3.949 1.636-5.824 6.162-4.188 10.111 1.235 2.98 4.116 4.779 7.152 4.779z"/><path d="m356.671 205.925-29.61 12.264c-3.949 1.635-5.824 6.162-4.188 10.111 1.234 2.98 4.115 4.779 7.152 4.779.986 0 1.99-.19 2.958-.591l29.61-12.264c3.949-1.635 5.824-6.162 4.188-10.111-1.635-3.948-6.161-5.825-10.11-4.188z"/></g><path d="m110.136 248.006v-179.093c0-3.109 1.989-5.869 4.938-6.852l164.14-54.713-20.931-6.977c-1.483-.494-3.085-.494-4.568 0l-185.07 61.69c-2.949.983-4.938 3.743-4.938 6.852v179.093c0 119.609 76.537 225.799 190.009 263.623 1.483.494 3.085.494 4.568 0 7.126-2.375 14.106-5.02 20.93-7.921-101.851-43.293-169.078-143.604-169.078-255.702z" fill="#d7e4f7"/><path d="m110.136 132.798-1.806-1.806c-4.55-4.55-12.329-1.327-12.329 5.107v109.5c0 72.804 31.481 139.894 83.517 186.112-43.686-49.605-69.382-114.402-69.382-183.705z" fill="#91deb6"/><path d="m322.847 300.185c8.389-12.666 13.275-27.855 13.275-44.185 0-44.25-35.872-80.122-80.122-80.122-16.33 0-31.519 4.886-44.185 13.275z" fill="#fe646f"/><path d="m189.153 211.815c-8.389 12.666-13.275 27.855-13.275 44.185 0 44.25 35.872 80.122 80.122 80.122 16.33 0 31.519-4.886 44.185-13.275z" fill="#fe646f"/><path d="m277.801 202.15c3.19 3.19 3.19 8.363 0 11.553-3.19 3.19-8.362 3.19-11.553 0-3.19-3.19-3.19-8.363 0-11.553 3.19-3.19 8.363-3.19 11.553 0z" fill="#e53950"/><path d="m213.703 266.248c3.19 3.19 3.19 8.363 0 11.553-3.19 3.19-8.363 3.19-11.553 0-3.19-3.19-3.19-8.363 0-11.553 3.191-3.19 8.363-3.19 11.553 0z" fill="#e53950"/><path d="m309.85 234.564c3.19 3.19 3.19 8.363 0 11.553-3.19 3.19-8.362 3.19-11.553 0-3.19-3.19-3.19-8.363 0-11.553 3.19-3.19 8.362-3.191 11.553 0z" fill="#e53950"/><path d="m245.752 298.297c3.19 3.19 3.19 8.363 0 11.553-3.19 3.19-8.363 3.19-11.553 0-3.19-3.19-3.19-8.363 0-11.553 3.19-3.19 8.363-3.19 11.553 0z" fill="#e53950"/><path d="m272.025 376.457h-8.286v-40.335c0-4.274-3.464-7.738-7.738-7.738s-7.738 3.465-7.738 7.738v40.335h-8.286c-4.274 0-7.738 3.465-7.738 7.738s3.464 7.738 7.738 7.738h32.049c4.274 0 7.738-3.465 7.738-7.738s-3.465-7.738-7.739-7.738z" fill="#fe646f"/><path d="m239.975 135.543h8.286v40.335c0 4.274 3.464 7.738 7.738 7.738s7.738-3.465 7.738-7.738v-40.335h8.286c4.274 0 7.738-3.465 7.738-7.738 0-4.274-3.464-7.738-7.738-7.738h-32.049c-4.274 0-7.738 3.465-7.738 7.738.001 4.273 3.465 7.738 7.739 7.738z" fill="#fe646f"/><path d="m204.817 307.183c-3.023-3.022-7.922-3.022-10.944 0l-28.521 28.521-5.859-5.859c-3.023-3.022-7.922-3.022-10.944 0s-3.022 7.922 0 10.943l11.321 11.321.01.01c.003.003.007.006.01.01l11.321 11.321c1.511 1.511 3.492 2.267 5.472 2.267s3.961-.756 5.472-2.267c3.022-3.022 3.022-7.922 0-10.943l-5.859-5.859 28.521-28.521c3.022-3.022 3.022-7.922 0-10.944z" fill="#fe646f"/><path d="m352.507 182.155c1.511 1.511 3.492 2.267 5.472 2.267s3.961-.756 5.472-2.267c3.022-3.022 3.022-7.922 0-10.943l-11.321-11.322c-.003-.003-.007-.007-.01-.01s-.007-.006-.01-.01l-11.321-11.321c-3.023-3.022-7.922-3.022-10.944 0s-3.022 7.922 0 10.943l5.859 5.859-28.521 28.521c-3.022 3.022-3.022 7.922 0 10.943 1.511 1.511 3.492 2.267 5.472 2.267s3.961-.756 5.472-2.267l28.521-28.521z" fill="#fe646f"/><path d="m175.878 263.738c4.274 0 7.738-3.465 7.738-7.738 0-4.274-3.464-7.738-7.738-7.738h-40.335v-8.286c0-4.274-3.464-7.738-7.738-7.738s-7.738 3.465-7.738 7.738v32.049c0 4.274 3.464 7.738 7.738 7.738s7.738-3.465 7.738-7.738v-8.286h40.335z" fill="#fe646f"/><path d="m384.195 232.237c-4.274 0-7.738 3.465-7.738 7.738v8.286h-40.335c-4.274 0-7.738 3.465-7.738 7.738 0 4.274 3.464 7.738 7.738 7.738h40.335v8.286c0 4.274 3.464 7.738 7.738 7.738s7.738-3.465 7.738-7.738v-32.049c.001-4.272-3.464-7.737-7.738-7.737z" fill="#fe646f"/></g></svg>