<svg id="Capa_1" enable-background="new 0 0 512 512" height="512" viewBox="0 0 512 512" width="512" xmlns="http://www.w3.org/2000/svg"><g><g><g><path d="m91.483 115.88c-4.388 0-7.945-3.557-7.945-7.945v-16.451c0-4.388 3.556-7.945 7.945-7.945 4.388 0 7.945 3.557 7.945 7.945v16.451c0 4.388-3.557 7.945-7.945 7.945z" fill="#b3dafe"/></g><g><path d="m91.483 165.235c-4.388 0-7.945-3.557-7.945-7.945v-18.74c0-4.388 3.556-7.945 7.945-7.945 4.388 0 7.945 3.557 7.945 7.945v18.74c0 4.388-3.557 7.945-7.945 7.945z" fill="#b3dafe"/></g><g><path d="m124.387 132.331h-16.452c-4.388 0-7.945-3.557-7.945-7.945s3.556-7.945 7.945-7.945h16.452c4.388 0 7.945 3.557 7.945 7.945s-3.557 7.945-7.945 7.945z" fill="#b3dafe"/></g><g><path d="m75.032 132.331h-16.451c-4.388 0-7.945-3.557-7.945-7.945s3.556-7.945 7.945-7.945h16.451c4.388 0 7.945 3.557 7.945 7.945s-3.557 7.945-7.945 7.945z" fill="#b3dafe"/></g></g><g><g><path d="m420.517 379.311c-4.388 0-7.945-3.557-7.945-7.945v-16.452c0-4.388 3.556-7.945 7.945-7.945 4.388 0 7.945 3.557 7.945 7.945v16.452c-.001 4.388-3.557 7.945-7.945 7.945z" fill="#b3dafe"/></g><g><path d="m420.517 428.665c-4.388 0-7.945-3.557-7.945-7.945v-18.74c0-4.388 3.556-7.945 7.945-7.945 4.388 0 7.945 3.557 7.945 7.945v18.74c-.001 4.389-3.557 7.945-7.945 7.945z" fill="#b3dafe"/></g><g><path d="m453.419 395.762h-16.451c-4.388 0-7.945-3.557-7.945-7.945s3.556-7.945 7.945-7.945h16.451c4.388 0 7.945 3.557 7.945 7.945 0 4.389-3.557 7.945-7.945 7.945z" fill="#b3dafe"/></g><g><path d="m404.065 395.762h-16.452c-4.388 0-7.945-3.557-7.945-7.945s3.556-7.945 7.945-7.945h16.452c4.388 0 7.945 3.557 7.945 7.945-.001 4.389-3.557 7.945-7.945 7.945z" fill="#b3dafe"/></g></g><g><g><path d="m256 247.493c-4.388 0-7.945-3.557-7.945-7.945v-16.451c0-4.388 3.556-7.945 7.945-7.945 4.388 0 7.945 3.557 7.945 7.945v16.451c0 4.388-3.557 7.945-7.945 7.945z" fill="#b3dafe"/></g><g><path d="m256 296.848c-4.388 0-7.945-3.557-7.945-7.945v-18.739c0-4.388 3.556-7.945 7.945-7.945 4.388 0 7.945 3.557 7.945 7.945v18.739c0 4.388-3.557 7.945-7.945 7.945z" fill="#b3dafe"/></g><g><path d="m288.904 263.945h-16.452c-4.388 0-7.945-3.557-7.945-7.945s3.556-7.945 7.945-7.945h16.452c4.388 0 7.945 3.557 7.945 7.945-.001 4.388-3.557 7.945-7.945 7.945z" fill="#b3dafe"/></g><g><path d="m239.548 263.945h-16.452c-4.388 0-7.945-3.557-7.945-7.945s3.556-7.945 7.945-7.945h16.452c4.388 0 7.945 3.557 7.945 7.945s-3.557 7.945-7.945 7.945z" fill="#b3dafe"/></g></g><g><path d="m226.105 2.687c-.969-3.583-6.052-3.583-7.021 0-4.78 16.207-16.108 32.524-30.564 39.816-2.563 1.293-2.654 4.89-.189 6.36 14.583 8.697 25.413 22.676 30.116 39.193l.676 2.164c1.063 3.403 5.879 3.403 6.942 0l.676-2.164c4.703-16.517 15.534-30.496 30.116-39.193 2.466-1.471 2.375-5.067-.189-6.36-14.455-7.292-25.784-23.608-30.563-39.816z" fill="#b3dafe"/><path d="m219.084 2.687c-4.78 16.207-16.108 32.524-30.564 39.816-2.563 1.293-2.654 4.89-.189 6.36 14.583 8.697 25.413 22.676 30.116 39.193l.676 2.164c.531 1.701 2.001 2.552 3.471 2.552v-92.772c-1.513 0-3.026.896-3.51 2.687z" fill="#8ac9fe"/></g><g><path d="m292.916 421.915c-.969-3.583-6.052-3.583-7.021 0-4.78 16.207-16.108 32.524-30.564 39.816-2.563 1.293-2.654 4.89-.189 6.36 14.583 8.697 25.413 22.676 30.116 39.193l.676 2.164c1.063 3.403 5.879 3.403 6.942 0l.676-2.164c4.703-16.517 15.534-30.496 30.116-39.193 2.466-1.471 2.375-5.067-.189-6.36-14.455-7.292-25.783-23.609-30.563-39.816z" fill="#b3dafe"/><path d="m285.895 421.915c-4.78 16.207-16.108 32.524-30.564 39.816-2.563 1.293-2.654 4.89-.189 6.36 14.583 8.697 25.413 22.676 30.116 39.193l.676 2.164c.531 1.701 2.001 2.552 3.471 2.552v-92.772c-1.512 0-3.025.896-3.51 2.687z" fill="#8ac9fe"/></g><g><path d="m130.703 276.079c-1.743-6.447-10.89-6.447-12.633 0-8.601 29.163-28.985 58.523-54.997 71.644-4.613 2.327-4.776 8.798-.339 11.445 26.24 15.649 45.729 40.803 54.191 70.524l1.216 3.893c1.913 6.123 10.579 6.123 12.491 0l1.216-3.893c8.462-29.72 27.951-54.874 54.191-70.524 4.437-2.646 4.273-9.118-.339-11.445-26.012-13.121-46.396-42.481-54.997-71.644z" fill="#b3dafe"/><path d="m118.07 276.079c-8.601 29.163-28.985 58.523-54.997 71.644-4.613 2.327-4.776 8.799-.339 11.445 26.24 15.649 45.729 40.803 54.191 70.524l1.216 3.893c.956 3.062 3.601 4.592 6.246 4.592v-166.934c-2.723 0-5.445 1.612-6.317 4.836z" fill="#8ac9fe"/></g><g><path d="m393.93 76.674c-1.743-6.447-10.89-6.447-12.633 0-8.601 29.163-28.985 58.523-54.997 71.644-4.613 2.327-4.776 8.798-.339 11.445 26.24 15.649 45.729 40.803 54.191 70.524l1.216 3.893c1.913 6.123 10.579 6.123 12.491 0l1.216-3.893c8.462-29.72 27.951-54.874 54.191-70.524 4.437-2.646 4.273-9.118-.339-11.445-26.012-13.121-46.396-42.481-54.997-71.644z" fill="#b3dafe"/><path d="m381.297 76.674c-8.601 29.163-28.985 58.523-54.997 71.644-4.613 2.327-4.776 8.799-.339 11.445 26.24 15.649 45.729 40.803 54.191 70.524l1.216 3.893c.956 3.062 3.601 4.592 6.246 4.592v-166.934c-2.723 0-5.446 1.612-6.317 4.836z" fill="#8ac9fe"/></g></g></svg>