<svg id="Capa_1" enable-background="new 0 0 512 512" height="512" viewBox="0 0 512 512" width="512" xmlns="http://www.w3.org/2000/svg"><g><path d="m170.302 99.984h-74.366c-17.638 0-31.936 14.299-31.936 31.936v138.366h32v-122.849c0-8.534 6.918-15.453 15.453-15.453h58.849z" fill="#9cf8d2"/><path d="m111.389 99.984h-15.453c-17.638 0-31.936 14.298-31.936 31.936v138.366h15.453v-138.366c0-17.638 14.298-31.936 31.936-31.936z" fill="#91deb6"/><path d="m304 195.984c0 8.837-7.163 16-16 16s-16-7.163-16-16c0-5.096 5.322-14.958 9.827-22.394 2.812-4.641 9.533-4.641 12.346 0 4.505 7.436 9.827 17.298 9.827 22.394z" fill="#b3dafe"/><path d="m192 142.286 73.71-9.492c3.597-.463 6.29-3.526 6.29-7.152v-19.316c0-3.627-2.693-6.689-6.29-7.152l-73.71-9.492-10.302 10.302v32.45z" fill="#3e4f55"/><path d="m212.604 92.336-20.604-2.654-10.302 10.302v31.42l10.302 10.882 20.604-2.653z" fill="#303d42"/><path d="m184.789 147.984h-17.577c-3.983 0-7.211-3.229-7.211-7.211v-49.577c0-3.983 3.229-7.211 7.211-7.211h17.577c3.983 0 7.211 3.229 7.211 7.211v49.577c0 3.983-3.229 7.211-7.211 7.211z" fill="#3e4f55"/><path d="m160 91.196v49.577c0 3.983 3.229 7.211 7.211 7.211h8.242v-64h-8.242c-3.982 0-7.211 3.229-7.211 7.212z" fill="#303d42"/><path d="m490.302 419.943h-474.302c-8.837 0-16-7.163-16-16 0-8.837 7.163-16 16-16h474.302z" fill="#9cf8d2"/><path d="m1.992 396.216c-1.267 2.291-1.992 4.923-1.992 7.727 0 8.837 7.163 16 16 16h474.302v-15.453h-474.302c-6.033 0-11.282-3.343-14.008-8.274z" fill="#91deb6"/><path d="m432 387.922h-416c-8.837 0-16-7.163-16-16 0-8.837 7.163-16 16-16h416c8.837 0 16 7.163 16 16 0 8.836-7.163 16-16 16z" fill="#9cf8d2"/><path d="m432 372.469h-416c-6.033 0-11.282-3.342-14.008-8.274-1.267 2.291-1.992 4.923-1.992 7.727 0 8.837 7.163 16 16 16h416c8.837 0 16-7.163 16-16 0-2.803-.725-5.435-1.992-7.726-2.726 4.931-7.975 8.273-14.008 8.273z" fill="#91deb6"/><path d="m432 355.901h-384c-8.837 0-16-7.163-16-16 0-8.837 7.163-16 16-16h384c8.837 0 16 7.163 16 16 0 8.836-7.163 16-16 16z" fill="#9cf8d2"/><path d="m432 340.448h-384c-6.033 0-11.282-3.342-14.008-8.274-1.267 2.291-1.992 4.923-1.992 7.726 0 8.837 7.163 16 16 16h384c8.837 0 16-7.163 16-16 0-2.803-.725-5.435-1.992-7.726-2.726 4.932-7.975 8.274-14.008 8.274z" fill="#91deb6"/><path d="m432 323.88h-384c-8.837 0-16-7.163-16-16 0-8.837 7.163-16 16-16h384c8.837 0 16 7.163 16 16 0 8.836-7.163 16-16 16z" fill="#9cf8d2"/><path d="m432 308.427h-384c-6.033 0-11.282-3.342-14.008-8.274-1.267 2.292-1.992 4.924-1.992 7.727 0 8.837 7.163 16 16 16h384c8.837 0 16-7.163 16-16 0-2.803-.725-5.435-1.992-7.726-2.726 4.931-7.975 8.273-14.008 8.273z" fill="#91deb6"/><path d="m432 291.859h-384c-8.837 0-16-7.163-16-16 0-8.837 7.163-16 16-16h384c8.837 0 16 7.163 16 16 0 8.837-7.163 16-16 16z" fill="#9cf8d2"/><path d="m432 276.406h-384c-6.033 0-11.282-3.342-14.008-8.274-1.267 2.291-1.992 4.923-1.992 7.726 0 8.837 7.163 16 16 16h384c8.837 0 16-7.163 16-16 0-2.803-.725-5.435-1.992-7.726-2.726 4.932-7.975 8.274-14.008 8.274z" fill="#91deb6"/><path d="m504.789 428.016h-17.577c-3.983 0-7.211-3.229-7.211-7.211v-33.64c0-3.983 3.229-7.211 7.211-7.211h17.577c3.983 0 7.211 3.229 7.211 7.211v33.64c0 3.982-3.229 7.211-7.211 7.211z" fill="#3e4f55"/><path d="m480 387.164v33.64c0 3.983 3.229 7.211 7.211 7.211h8.242v-48.063h-8.242c-3.982.001-7.211 3.23-7.211 7.212z" fill="#303d42"/></g></svg>