<svg id="Capa_1" enable-background="new 0 0 512 512" height="512" viewBox="0 0 512 512" width="512" xmlns="http://www.w3.org/2000/svg"><g><path d="m303.996 31.936v42.372h-95.993v-42.372c0-2.668.33-5.254.948-7.726 3.452-13.908 16.02-24.21 30.988-24.21h32.121c14.969 0 27.537 10.302 30.988 24.209.619 2.473.948 5.059.948 7.727z" fill="#fe646f"/><path d="m271.936.002h-32c-17.638 0-31.936 14.298-31.936 31.936v32.064h32v-32.064c0-17.638 14.298-31.936 31.936-31.936z" fill="#e53950"/><path d="m303.996 31.936v7.726h-24.271v24.323c0 4.265-3.461 7.726-7.726 7.726s-7.726-3.461-7.726-7.726v-24.323h-16.545v24.323c0 4.265-3.461 7.726-7.726 7.726s-7.726-3.461-7.726-7.726v-24.323h-24.271v-7.726c0-2.668.33-5.254.948-7.726h94.097c.617 2.472.946 5.058.946 7.726z" fill="#e53950"/><path d="m240 31.938c0-2.665.327-5.254.942-7.728h-31.991c-.007.029-.018.058-.031.088-.601 2.448-.92 5.007-.92 7.641v7.723l.003.001h24.271v24.323.017h7.726z" fill="#a60042"/><path d="m354.969 173.057-31.612-20.781c-11.742-5.032-19.355-16.578-19.355-29.353v-37.244h-96.003v37.244c0 12.775-7.613 24.321-19.355 29.353l-31.758 20.793c-18.024 11.801-28.885 31.893-28.885 53.437v61.37l10 30.127v137.707l-10 24.354c0 17.638 14.298 31.936 31.936 31.936h191.883c17.638 0 31.936-14.298 31.936-31.936l-10-24.354v-135.73l10-32.104v-61.447c-.001-21.502-10.82-41.561-28.787-53.372zm-3.214 114.987c0 17.638-14.298 41.936-31.936 41.936h-15.884c-17.638 0-31.936-24.298-31.936-41.936v-98.047c0-5.177 5.294-8.668 10.052-6.628l50.348 21.578c11.742 5.032 19.355 16.578 19.355 29.353v53.744z" fill="#9cf8d2"/><path d="m304.002 85.679h-96.003v37.244c0 12.775-7.613 24.321-19.355 29.353l-31.758 20.793c-18.024 11.801-28.885 31.893-28.885 53.437v61.37l10 32.104v135.73l-10 24.354c0 17.638 14.298 31.936 31.936 31.936h30.906c-17.638 0-31.936-14.298-31.936-31.936v-253.559c0-21.544 10.861-41.636 28.885-53.437l31.758-20.793c11.742-5.032 19.355-16.578 19.355-29.353 0-3.5 2.838-6.338 6.338-6.338h58.76v-30.905z" fill="#91deb6"/><path d="m128.001 287.876 143.999.125v.043c0 17.638 14.298 31.936 31.936 31.936h15.884c17.638 0 31.936-14.298 31.936-31.936v-.168h32.244v192.124h-255.999z" fill="#e9f1ff"/><path d="m158.906 287.902-30.905-.026v192.124h30.905z" fill="#d7e4f7"/><path d="m283.247 367.207c-4.393-13.519-16.948-22.106-30.436-22.076-4.14-12.838-16.186-22.125-30.401-22.125s-26.261 9.287-30.401 22.125c-13.489-.029-26.044 8.557-30.436 22.076-4.393 13.519.718 27.845 11.647 35.75-4.196 12.82.09 27.413 11.59 35.769 11.5 8.355 26.704 7.922 37.6-.03 10.895 7.952 26.099 8.385 37.6.03 11.5-8.355 15.787-22.949 11.59-35.769 10.93-7.904 16.04-22.23 11.647-35.75z" fill="#fee97d"/><path d="m312.788 95.981h-113.576c-3.983 0-7.211-3.229-7.211-7.211v-17.578c0-3.983 3.229-7.211 7.211-7.211h113.577c3.983 0 7.211 3.229 7.211 7.211v17.577c0 3.983-3.229 7.212-7.212 7.212z" fill="#fe646f"/><path d="m192 71.192v17.577c0 3.983 3.229 7.211 7.211 7.211h33.996v-32h-33.996c-3.982.001-7.211 3.229-7.211 7.212z" fill="#e53950"/><circle cx="222.41" cy="387.006" fill="#fe646f" r="16"/><path d="m344.788 415.938h-17.577c-3.983 0-7.211-3.229-7.211-7.211v-17.515c0-3.983 3.229-7.211 7.211-7.211h17.577c3.983 0 7.211 3.229 7.211 7.211v17.515c.001 3.982-3.228 7.211-7.211 7.211z" fill="#9cf8d2"/><g><path d="m351.999 455.71c-.002 0-.004 0-.006 0l-32-.025c-4.267-.004-7.724-3.465-7.72-7.732.004-4.265 3.462-7.72 7.726-7.72h.006l32 .025c4.267.004 7.724 3.465 7.72 7.732-.003 4.265-3.461 7.72-7.726 7.72z" fill="#fe646f"/></g></g></svg>