<svg id="Capa_1" enable-background="new 0 0 512 512" height="512" viewBox="0 0 512 512" width="512" xmlns="http://www.w3.org/2000/svg"><g><path d="m96 469.698h64v35.302c0 3.866-3.134 7-7 7h-50c-3.866 0-7-3.134-7-7z" fill="#3e4f55"/><path d="m96 469.698v35.302c0 3.866 3.134 7 7 7h23.906v-42.302z" fill="#303d42"/><path d="m352 469.698h64v35.302c0 3.866-3.134 7-7 7h-50c-3.866 0-7-3.134-7-7z" fill="#3e4f55"/><path d="m352 469.698v35.302c0 3.866 3.134 7 7 7h23.906v-42.302z" fill="#303d42"/><path d="m416.064 480h-320.128c-17.638 0-31.936-14.298-31.936-31.936v-352.085l10.302-53.741c0-17.638 14.298-31.936 31.936-31.936h299.524c17.638 0 31.936 14.298 31.936 31.936l10.302 53.741v352.085c0 17.638-14.298 31.936-31.936 31.936z" fill="#e9f1ff"/><circle cx="256" cy="287.875" fill="#3e4f55" r="127.874"/><circle cx="255.874" cy="288" fill="#e9f1ff" r="96"/><path d="m159.874 288c0-43.729 29.239-80.624 69.232-92.213 15.881-15.298 35.704-26.532 57.8-32.017-9.898-2.457-20.248-3.77-30.906-3.77-70.623 0-127.874 57.251-127.874 127.874s57.251 127.875 127.874 127.875c10.658 0 21.008-1.312 30.906-3.769-21.922-5.442-41.609-16.541-57.426-31.655-40.185-11.467-69.606-48.46-69.606-92.325z" fill="#303d42"/><path d="m255.874 384c53.019 0 96-42.981 96-96 0-.043-.001-.086-.002-.129-6.616-13.046-25.299-13.024-31.86.094l-.057.113c-6.575 13.146-25.337 13.146-31.912 0l-.088-.176c-6.575-13.147-25.337-13.147-31.912 0l-.088.176c-6.575 13.146-25.337 13.146-31.912 0l-.119-.239c-6.57-13.135-25.309-13.15-31.899-.025l-.113.226c-6.602 13.148-25.385 13.103-31.924-.075l-.11.324c.156 52.886 43.073 95.711 95.996 95.711z" fill="#b3dafe"/><path d="m189.979 291.091c-.026-1.069-.042-2.141-.042-3.216 0-36.173 15.025-68.83 39.169-92.088-39.993 11.59-69.232 48.485-69.232 92.213 0 .095.006.188.006.282l.107-.318c5.986 12.062 22.22 13.114 29.992 3.127z" fill="#d7e4f7"/><path d="m229.48 380.325c-23.643-22.592-38.635-54.158-39.501-89.233-7.772 9.986-24.006 8.935-29.992-3.127l-.107.318c.127 43.74 29.502 80.6 69.6 92.042z" fill="#8ac9fe"/><path d="m416.064 0h-320.128c-17.638 0-31.936 14.298-31.936 31.936v64.043h384v-64.043c0-17.638-14.298-31.936-31.936-31.936z" fill="#3e4f55"/><path d="m64 95.979v352.085c0 17.638 14.298 31.936 31.936 31.936h51.51c-17.638 0-31.936-14.298-31.936-31.936v-352.085z" fill="#d7e4f7"/><path d="m115.51 31.936c0-17.638 14.298-31.936 31.935-31.936h-51.51c-17.637 0-31.935 14.298-31.935 31.936v64.043h51.51z" fill="#303d42"/><path d="m185 63.979h-50c-3.866 0-7-3.134-7-7v-17.979c0-3.866 3.134-7 7-7h50c3.866 0 7 3.134 7 7v17.979c0 3.866-3.134 7-7 7z" fill="#9cf8d2"/><path d="m128 39v17.979c0 3.866 3.134 7 7 7h23.906v-31.979h-23.906c-3.866 0-7 3.134-7 7z" fill="#91deb6"/><circle cx="367.874" cy="47.936" fill="#9cf8d2" r="16"/><circle cx="304" cy="47.936" fill="#9cf8d2" r="16"/><g><path d="m256 39.727h-32c-4.267 0-7.726-3.459-7.726-7.726s3.459-7.726 7.726-7.726h32c4.268 0 7.726 3.459 7.726 7.726s-3.458 7.726-7.726 7.726z" fill="#9cf8d2"/></g><g><path d="m256 71.663h-32c-4.267 0-7.726-3.459-7.726-7.726s3.459-7.726 7.726-7.726h32c4.268 0 7.726 3.459 7.726 7.726s-3.458 7.726-7.726 7.726z" fill="#9cf8d2"/></g></g></svg>