<svg id="Capa_1" enable-background="new 0 0 512 512" height="512" viewBox="0 0 512 512" width="512" xmlns="http://www.w3.org/2000/svg"><g><path d="m448 96.198c0 17.673-14.327 32-32 32l-158.817 10.302-177.183-10.302c-8.837 0-16-7.163-16-16 0-8.837 7.163-16 16-16-8.837 0-16-7.163-16-16 0-8.837 7.163-16 16-16h336c17.673 0 32 14.327 32 32z" fill="#fee97d"/><path d="m115.509 112.198c0-8.837 7.164-16 16-16-8.836 0-16-7.163-16-16 0-8.837 7.164-16 16-16h-51.509c-8.837 0-16 7.163-16 16 0 8.837 7.163 16 16 16-8.837 0-16 7.163-16 16 0 8.837 7.163 16 16 16h51.509c-8.836 0-16-7.163-16-16z" fill="#fed402"/><path d="m64 159.802c0 17.673 14.327 32 32 32l168.436 10.302 167.564-10.302c8.837 0 16-7.163 16-16 0-8.837-7.163-16-16-16 8.837 0 16-7.163 16-16 0-8.837-7.163-16-16-16h-336c-17.673 0-32 14.327-32 32z" fill="#b3dafe"/><path d="m115.509 159.802c0-17.673 14.327-32 32-32h-51.509c-17.673 0-32 14.327-32 32 0 17.673 14.327 32 32 32h51.509c-17.673 0-32-14.327-32-32z" fill="#8ac9fe"/><path d="m32 223.76 28.083 196.622c2.247 15.734 15.722 27.42 31.615 27.42h328.603c15.893 0 29.368-11.687 31.615-27.42l28.084-196.622-36.053-10.302h-360.438zm36.418 54.125c-2.285-11.424 6.452-22.083 18.103-22.083h31.038c9.295 0 17.14 6.91 18.314 16.13 1.405 11.032-7.192 20.793-18.314 20.793h-31.039c-8.799 0-16.376-6.212-18.102-14.84zm13.602 67.992c-1.965-9.822 5.548-18.987 15.565-18.987h31.304c7.991 0 14.737 5.941 15.746 13.868 1.208 9.485-6.184 17.878-15.746 17.878h-31.305c-7.566 0-14.08-5.34-15.564-12.759zm56.501 69.883h-31.214c-6.575 0-12.236-4.641-13.525-11.087-1.708-8.535 4.821-16.499 13.525-16.499h31.214c6.944 0 12.806 5.163 13.683 12.051 1.049 8.243-5.373 15.535-13.683 15.535zm32.037-139.825c-.983-10.811 7.529-20.133 18.385-20.133h31.473c10.065 0 18.275 8.062 18.458 18.126.188 10.326-8.131 18.797-18.458 18.797h-31.473c-9.548 0-17.52-7.281-18.385-16.79zm6.208 68.266c-.845-9.296 6.474-17.311 15.808-17.311h31.678c8.654 0 15.713 6.932 15.87 15.584.161 8.878-6.991 16.162-15.87 16.162h-31.678c-8.21 0-15.065-6.26-15.808-14.435zm50.642 71.559h-31.54c-7.134 0-13.091-5.44-13.737-12.544-.734-8.078 5.626-15.042 13.737-15.042h31.54c7.52 0 13.654 6.024 13.791 13.542.14 7.715-6.075 14.044-13.791 14.044zm102.46-12.544c-.646 7.104-6.603 12.544-13.737 12.544h-31.54c-7.716 0-13.931-6.329-13.791-14.044.137-7.519 6.271-13.542 13.791-13.542h31.54c8.111 0 14.471 6.964 13.737 15.042zm5.366-59.016c-.743 8.176-7.598 14.436-15.808 14.436h-31.678c-8.879 0-16.032-7.284-15.87-16.162.157-8.652 7.216-15.584 15.87-15.584h31.678c9.335 0 16.654 8.015 15.808 17.31zm6.208-68.265c-.865 9.509-8.837 16.79-18.385 16.79h-31.473c-10.327 0-18.646-8.472-18.458-18.797.183-10.063 8.393-18.126 18.458-18.126h31.473c10.856 0 19.368 9.322 18.385 20.133zm76.776 128.738c-1.29 6.447-6.951 11.087-13.525 11.087h-31.214c-8.309 0-14.732-7.292-13.683-15.535.877-6.889 6.738-12.051 13.683-12.051h31.214c8.704 0 15.233 7.963 13.525 16.499zm11.762-58.796c-1.484 7.419-7.999 12.759-15.565 12.759h-31.304c-9.562 0-16.953-8.392-15.746-17.878 1.009-7.927 7.755-13.868 15.746-13.868h31.304c10.018 0 17.53 9.164 15.565 18.987zm13.602-67.992c-1.726 8.629-9.303 14.84-18.103 14.84h-31.038c-11.121 0-19.718-9.761-18.314-20.793 1.174-9.22 9.019-16.13 18.314-16.13h31.038c11.651 0 20.389 10.659 18.103 22.083z" fill="#fe646f"/><path d="m88.09 255.8h-1.57c-.26 0-.51.01-.77.02-11.2.45-19.48 10.78-17.37 21.89 1.59 8.34 8.83 14.34 17.2 14.95.01.01.02.01.02.01.46.03.93.05 1.4.05h6.36l4.88 34.17h-.66c-.29 0-.58.01-.87.02-.19.01-.38.03-.57.04-9.41.84-16.18 9.84-14.03 19.33 1.55 6.88 7.62 11.74 14.57 12.3.02.01.04.01.06.01.2.02.4.03.6.04.23.01.46.01.7.01h4.73l4.23 29.54c-7.62.16-13.49 6.43-13.49 13.75 0 .9.09 1.82.27 2.74 1.29 6.45 6.95 11.09 13.53 11.09h3.62l.66 4.62c2.25 15.74 15.72 27.42 31.62 27.42h-51.51c-15.89 0-29.37-11.69-31.62-27.42l-25.13-175.97-2.95-20.65 51.51-10.3h360.44l36.05 10.3-2.95 20.65h-379.08c-6.08 0-10.74 5.38-9.88 11.39z" fill="#e53950"/><g><path d="m416 167.528h-320c-4.268 0-7.726-3.459-7.726-7.726s3.459-7.726 7.726-7.726h320c4.268 0 7.726 3.459 7.726 7.726s-3.458 7.726-7.726 7.726z" fill="#8ac9fe"/></g><g><path d="m416 103.925h-320c-4.268 0-7.726-3.459-7.726-7.726s3.459-7.726 7.726-7.726h320c4.268 0 7.726 3.459 7.726 7.726s-3.458 7.726-7.726 7.726z" fill="#fed402"/></g><path d="m496 223.802h-480c-8.837 0-16-7.163-16-16 0-8.837 7.163-16 16-16h480c8.837 0 16 7.163 16 16 0 8.836-7.163 16-16 16z" fill="#fe646f"/><path d="m51.509 207.802c0-8.837 7.164-16 16-16h-51.509c-8.836 0-16 7.163-16 16 0 8.837 7.164 16 16 16h51.509c-8.836 0-16-7.164-16-16z" fill="#e53950"/></g></svg>