<svg id="Capa_1" enable-background="new 0 0 512 512" height="512" viewBox="0 0 512 512" width="512" xmlns="http://www.w3.org/2000/svg"><g><path d="m189.991 110.47-48.021 10.302-48.021-10.302c-8.825 0-15.979-7.154-15.979-15.979 0-8.825 7.154-15.979 15.979-15.979h96.042c8.825 0 15.979 7.154 15.979 15.979 0 8.825-7.154 15.979-15.979 15.979z" fill="#9cf8d2"/><path d="m129.479 94.491c0-8.825 7.154-15.979 15.979-15.979h-51.509c-8.825 0-15.979 7.154-15.979 15.979 0 8.825 7.154 15.979 15.979 15.979l48.021 10.302 3.489-10.302c-8.826 0-15.98-7.154-15.98-15.979z" fill="#91deb6"/><path d="m208.021 142.47-64.021 10.302-64.021-10.302c-8.825 0-15.979-7.154-15.979-15.979 0-8.825 7.154-15.979 15.979-15.979h128.042c8.825 0 15.979 7.154 15.979 15.979 0 8.825-7.154 15.979-15.979 15.979z" fill="#fee97d"/><path d="m115.509 126.491c0-8.825 7.154-15.979 15.979-15.979h-51.509c-8.825 0-15.979 7.154-15.979 15.979 0 8.825 7.154 15.979 15.979 15.979l64.021 10.302-12.511-10.302c-8.825 0-15.98-7.154-15.98-15.979z" fill="#fed402"/><path d="m208.021 174.251-64.021 10.302-64.021-10.302c-8.825 0-15.979-7.154-15.979-15.979 0-8.825 7.154-15.979 15.979-15.979h128.042c8.825 0 15.979 7.154 15.979 15.979 0 8.825-7.154 15.979-15.979 15.979z" fill="#b3dafe"/><path d="m115.509 158.272c0-8.825 7.154-15.979 15.979-15.979h-51.509c-8.825 0-15.979 7.154-15.979 15.979 0 8.825 7.154 15.979 15.979 15.979l64.021 10.302-12.511-10.302c-8.825 0-15.98-7.154-15.98-15.979z" fill="#8ac9fe"/><path d="m391.883 131.991h48.234v52.802h-48.234z" fill="#fee97d"/><path d="m391.883 131.991h24.725v52.802h-24.725z" fill="#fed402"/><path d="m440.789 142.292h-49.577c-3.983 0-7.211-3.229-7.211-7.211v-18.483c0-24.29 9.565-47.603 26.624-64.895l.046-.047c2.809-2.848 7.4-2.864 10.23-.037 17.351 17.332 27.1 40.85 27.1 65.375v18.088c-.001 3.982-3.23 7.21-7.212 7.21z" fill="#3e4f55"/><path d="m404.604 135.081v-18.483c0-21.756 7.673-42.728 21.532-59.292-1.659-1.961-3.405-3.858-5.236-5.687-2.83-2.827-7.421-2.81-10.23.037l-.046.047c-17.06 17.291-26.624 40.605-26.624 64.895v18.483c0 3.983 3.229 7.211 7.211 7.211h20.604c-3.983 0-7.211-3.228-7.211-7.211z" fill="#303d42"/><g><g><path d="m138.637 446.491 277.597-208.199-24.351-10.212-29.655 10.411-256 192z" fill="#d7e4f7"/></g></g><g><g><path d="m373.363 446.491-277.597-208.199 29.401-10.194 24.605 10.393 256 192z" fill="#e9f1ff"/></g></g><path d="m480 206.292-39.883-10.302h-356.608l-51.509 10.302v24.789c0 3.983 3.229 7.211 7.211 7.211h433.577c3.983 0 7.211-3.229 7.211-7.211v-24.789z" fill="#fe646f"/><path d="m32 206.292v24.789c0 3.983 3.229 7.211 7.211 7.211h44.298v-42.302z" fill="#e53950"/><path d="m496 206.292h-480c-8.837 0-16-7.163-16-16 0-8.837 7.163-16 16-16h480c8.837 0 16 7.163 16 16 0 8.837-7.163 16-16 16z" fill="#e9f1ff"/><path d="m51.509 190.292c0-8.837 7.164-16 16-16h-51.509c-8.836 0-16 7.163-16 16 0 8.837 7.164 16 16 16h51.509c-8.836 0-16-7.163-16-16z" fill="#d7e4f7"/><path d="m384.234 414.491c17.673 0 32 14.327 32 32v8.789c0 3.983-3.229 7.211-7.211 7.211h-49.577c-3.983 0-7.211-3.229-7.211-7.211v-8.789c-.001-17.673 14.326-32 31.999-32z" fill="#fe646f"/><path d="m399.687 418.468c-4.582-2.532-9.848-3.977-15.453-3.977-17.673 0-32 14.327-32 32v8.789c0 3.983 3.229 7.211 7.211 7.211h23.694v-16c.001-12.068 6.684-22.572 16.548-28.023z" fill="#e53950"/><path d="m127.766 414.491c-17.673 0-32 14.327-32 32v8.789c0 3.983 3.229 7.211 7.211 7.211h49.577c3.983 0 7.211-3.229 7.211-7.211v-8.789c.001-17.673-14.326-32-31.999-32z" fill="#fe646f"/><path d="m143.219 418.468c-4.582-2.532-9.848-3.977-15.453-3.977-17.673 0-32 14.327-32 32v8.789c0 3.983 3.229 7.211 7.211 7.211h23.694v-16c.001-12.068 6.683-22.572 16.548-28.023z" fill="#e53950"/></g></svg>