<svg id="Capa_1" enable-background="new 0 0 512 512" height="512" viewBox="0 0 512 512" width="512" xmlns="http://www.w3.org/2000/svg"><g><g><path d="m48.468 445.423h-40.979c-4.136 0-7.489-3.353-7.489-7.489s3.353-7.489 7.489-7.489h40.979c4.136 0 7.489 3.353 7.489 7.489s-3.353 7.489-7.489 7.489z" fill="#e9f1ff"/></g><path d="m79.484 422.427-22.957-3.556c-4.236-.656-8.059 2.621-8.059 6.907v24.843c0 4.35 3.932 7.644 8.215 6.881l22.801-4.06 9.985-15.079z" fill="#b3dafe"/><path d="m79.484 422.427h56.509v31.016h-56.509z" fill="#8ac9fe"/><path d="m160.279 319.675-38.25 10.249c-8.976 2.405-18.202-2.922-20.608-11.898l-7.345-27.413c-2.405-8.976 2.922-18.202 11.898-20.608l38.25-10.249z" fill="#b3dafe"/><path d="m348.276 400.005-34.413-8.594-19.093-33.991-51.818-193.389-1.083-41.304 17.918-52.966 24.178 52.966 61.649 230.077z" fill="#b3dafe"/><path d="m328.841 391.411-71.994-268.684 9.56-28.26 17.558 28.26-24.178-52.966-17.918 52.966 1.083 41.304 51.818 193.389 19.093 33.991 34.413 8.594-1.074-4.009z" fill="#8ac9fe"/><path d="m182.517 460.837h-39.129c-12.649 0-22.903-10.254-22.903-22.903 0-12.649 10.254-22.903 22.903-22.903h39.129z" fill="#3e4f55"/><path d="m241.869 122.727c-82.729 22.168-131.825 107.203-109.657 189.933l18.258 68.14c8.347 31.151 9.326 63.777 2.911 95.303-.879 4.32 2.439 8.355 6.848 8.355h127.358c2.187 0 4.248-1.024 5.57-2.767l31.105-41.03c1.304-1.72 1.74-3.947 1.181-6.032zm-26.646 257.728c-3.672 0-6.706-2.842-6.965-6.505-1.212-17.147-4.06-34.138-8.531-50.825l-7.139-26.643c-9.081-30.771 2.633-72.761 27.76-94.519 3.9-3.377 9.994-1.502 11.329 3.482l30.498 113.821c8.273 30.872-14.99 61.189-46.952 61.189z" fill="#fe646f"/><path d="m180.425 380.8-18.258-68.14c-19.608-73.177 16.547-148.149 82.41-179.83l-2.707-10.103c-82.73 22.168-131.826 107.203-109.658 189.933l18.258 68.14c8.347 31.151 9.326 63.777 2.911 95.303-.879 4.32 2.439 8.355 6.848 8.355h21.228c8.409-34.086 8.055-69.746-1.032-103.658z" fill="#e53950"/><g><path d="m291.822 447.855c-3.307 0-6.332-2.207-7.229-5.552l-12.605-47.041c-1.07-3.996 1.3-8.102 5.295-9.172 3.996-1.068 8.102 1.301 9.172 5.295l12.605 47.041c1.07 3.995-1.3 8.102-5.295 9.172-.649.173-1.301.257-1.943.257z" fill="#e53950"/></g><g><path d="m261.863 455.882c-3.307 0-6.332-2.207-7.229-5.553l-8.028-29.959c-1.07-3.995 1.3-8.101 5.296-9.172 3.994-1.069 8.101 1.301 9.172 5.296l8.028 29.959c1.07 3.995-1.3 8.101-5.296 9.172-.649.174-1.302.257-1.943.257z" fill="#e53950"/></g><g><g><path d="m331.383 116.154c-3.307 0-6.332-2.207-7.229-5.553-1.07-3.995 1.301-8.101 5.296-9.172l14.98-4.014c12.531-3.358 19.994-16.284 16.636-28.814-1.07-3.995 1.3-8.102 5.295-9.172 3.997-1.068 8.102 1.3 9.172 5.295 2.662 9.935 1.296 20.311-3.847 29.219-5.142 8.907-13.446 15.278-23.38 17.94l-14.98 4.014c-.649.173-1.301.257-1.943.257z" fill="#e9f1ff"/></g></g><g><g><path d="m392.377 164.031c-3.307 0-6.332-2.207-7.229-5.553-1.626-6.07-5.519-11.144-10.962-14.286-5.443-3.141-11.782-3.978-17.853-2.35l-14.98 4.014c-3.995 1.067-8.101-1.3-9.172-5.296-1.07-3.995 1.301-8.101 5.296-9.172l14.98-4.014c9.934-2.663 20.311-1.296 29.218 3.847 8.907 5.142 15.278 13.446 17.94 23.381 1.07 3.995-1.301 8.101-5.296 9.172-.648.174-1.301.257-1.942.257z" fill="#e9f1ff"/></g></g><g><g><path d="m400.404 193.99c-3.307 0-6.332-2.207-7.229-5.553-1.07-3.995 1.301-8.101 5.296-9.172 11.154-2.988 21.743-11.256 26.978-21.063 3.746-7.018 4.465-14.039 2.139-20.869-1.133-3.323.196-6.987 3.195-8.812 13.686-8.331 20.606-22.416 17.221-35.05s-16.421-21.372-32.439-21.744c-3.51-.081-6.492-2.59-7.173-6.034-1.404-7.097-5.53-12.822-12.266-17.016-9.434-5.874-22.748-7.734-33.917-4.74-3.994 1.067-8.101-1.3-9.172-5.295-1.07-3.995 1.3-8.102 5.296-9.172 15.214-4.075 32.73-1.588 45.71 6.494 8.471 5.274 14.438 12.525 17.501 21.187 20.14 2.388 36.235 14.933 40.928 32.445 4.692 17.511-2.976 36.424-19.224 48.562 1.67 9.02.119 18.284-4.585 27.098-7.203 13.494-21.118 24.406-36.315 28.478-.65.172-1.302.256-1.944.256z" fill="#e9f1ff"/></g></g><g><g><path d="m379.548 295.908c-3.307 0-6.332-2.207-7.229-5.553-1.07-3.995 1.301-8.101 5.296-9.172l14.98-4.014c6.07-1.626 11.143-5.519 14.286-10.962 3.142-5.443 3.977-11.783 2.35-17.853-1.07-3.995 1.301-8.101 5.296-9.172 3.993-1.068 8.101 1.3 9.172 5.296 5.495 20.508-6.719 41.663-27.227 47.159l-14.98 4.014c-.65.174-1.302.257-1.944.257z" fill="#e9f1ff"/></g></g><g><g><path d="m440.542 343.785c-3.307 0-6.332-2.207-7.229-5.553-1.626-6.07-5.519-11.144-10.962-14.286-5.443-3.143-11.784-3.979-17.852-2.35l-14.98 4.014c-3.992 1.067-8.101-1.3-9.172-5.296-1.07-3.995 1.301-8.101 5.296-9.172l14.98-4.014c9.932-2.663 20.31-1.297 29.218 3.847 8.907 5.142 15.278 13.446 17.94 23.381 1.07 3.995-1.301 8.101-5.296 9.172-.649.174-1.302.257-1.943.257z" fill="#e9f1ff"/></g></g><g><g><path d="m448.569 373.745c-3.307 0-6.332-2.207-7.229-5.552-1.07-3.995 1.3-8.102 5.295-9.172 11.154-2.989 21.744-11.257 26.979-21.064 3.746-7.018 4.465-14.039 2.139-20.869-1.132-3.323.196-6.987 3.195-8.812 13.686-8.331 20.606-22.416 17.221-35.05-3.386-12.634-16.422-21.372-32.439-21.743-3.51-.081-6.492-2.59-7.173-6.034-1.404-7.097-5.53-12.822-12.266-17.016-9.433-5.873-22.748-7.736-33.917-4.74-3.994 1.067-8.101-1.3-9.172-5.296-1.07-3.995 1.301-8.101 5.296-9.172 15.214-4.075 32.729-1.588 45.71 6.494 8.471 5.274 14.438 12.525 17.501 21.187 20.139 2.388 36.235 14.932 40.928 32.444 4.692 17.512-2.977 36.425-19.224 48.563 1.67 9.02.12 18.283-4.585 27.098-7.203 13.494-21.118 24.406-36.315 28.478-.65.172-1.302.256-1.944.256z" fill="#e9f1ff"/></g></g><path d="m367.083 410.277c-8.273 2.217-16.777-2.693-18.993-10.966l-88.303-329.55c-2.217-8.273 2.693-16.777 10.966-18.993 8.273-2.217 16.777 2.693 18.993 10.966l88.303 329.55c2.217 8.273-2.693 16.776-10.966 18.993z" fill="#3e4f55"/><path d="m363.068 399.311-88.303-329.55c-1.884-7.032 1.392-14.216 7.494-17.579-3.388-1.872-7.472-2.495-11.506-1.414-8.273 2.217-13.182 10.72-10.966 18.993l88.303 329.55c2.217 8.273 10.72 13.182 18.993 10.966 1.241-.332 2.395-.821 3.471-1.414-3.559-1.967-6.351-5.313-7.486-9.552z" fill="#303d42"/></g></svg>