<svg id="Capa_1" enable-background="new 0 0 512 512" height="512" viewBox="0 0 512 512" width="512" xmlns="http://www.w3.org/2000/svg"><g><g><g><path d="m344 384.121c-30.946 0-56.122-25.176-56.122-56.122v-144c0-30.811-25.066-55.877-55.877-55.877s-55.877 25.066-55.877 55.877v50.302h-32.245v-50.302c0-48.591 39.531-88.122 88.122-88.122s88.122 39.531 88.122 88.122v144c0 13.166 10.712 23.877 23.878 23.877s23.877-10.711 23.877-23.877v-274.301h32.245v274.301c-.001 30.946-25.177 56.122-56.123 56.122z" fill="#e9f1ff"/></g></g><g><g fill="#d7e4f7"><path d="m359.453 351.876c13.166 0 23.877-10.711 23.877-23.877v-274.301h-15.453v274.301c0 10.462-6.767 19.368-16.151 22.587 2.425.832 5.023 1.29 7.727 1.29z"/><path d="m239.726 96.236c-2.548-.223-5.121-.359-7.726-.359-48.59 0-88.122 39.531-88.122 88.122v50.302h15.453v-50.302c0-45.985 35.412-83.834 80.395-87.763z"/><path d="m303.33 327.999v-144c0-30.811-25.066-55.877-55.877-55.877-2.622 0-5.199.195-7.726.547 27.165 3.776 48.151 27.142 48.151 55.331v144c0 30.946 25.176 56.122 56.122 56.122 2.622 0 5.199-.195 7.726-.545-27.301-3.779-48.396-27.255-48.396-55.578z"/></g></g><path d="m192.129 266.301h-64.128v-35.09c0-3.983 3.229-7.211 7.211-7.211h49.705c3.983 0 7.211 3.229 7.211 7.211v35.09z" fill="#fee97d"/><path d="m128.001 231.21v35.09h30.906v-42.302h-23.694c-3.984.001-7.212 3.23-7.212 7.212z" fill="#fed402"/><path d="m256 383.998-39.726 10.302h-121.368l-30.906-10.302v-64.128c0-35.275 28.596-63.871 63.871-63.871h64.256c35.275 0 63.871 28.596 63.871 63.871v64.128z" fill="#3e4f55"/><path d="m158.778 255.999h-30.906c-35.275 0-63.871 28.596-63.871 63.871v64.128l30.905 10.302v-74.43c0-35.275 28.597-63.871 63.872-63.871z" fill="#303d42"/><path d="m64.001 511.998h-16.547c-8.534 0-15.453-6.918-15.453-15.453v-65.094c0-8.534 6.918-15.453 15.453-15.453h26.849v71.726z" fill="#3e4f55"/><path d="m47.454 496.545v-65.094c0-8.534 6.918-15.453 15.453-15.453h-15.453c-8.534 0-15.453 6.918-15.453 15.453v65.094c0 8.534 6.918 15.453 15.453 15.453h15.453c-8.535 0-15.453-6.919-15.453-15.453z" fill="#303d42"/><path d="m272.547 511.998h-16.547l-10.302-24.274v-71.726h26.849c8.534 0 15.453 6.918 15.453 15.453v65.094c0 8.535-6.919 15.453-15.453 15.453z" fill="#3e4f55"/><path d="m245.698 415.998v71.726l10.302 24.274h15.453v-96z" fill="#303d42"/><path d="m64.004 384h191.996v128.001h-191.996z" fill="#fee97d"/><path d="m64.001 383.999h30.906v127.999h-30.906z" fill="#fed402"/><circle cx="160" cy="447.998" fill="#3e4f55" r="32"/><path d="m158.906 447.998c0-12.068 6.683-22.572 16.547-28.023-4.582-2.532-9.848-3.977-15.453-3.977-17.673 0-32 14.327-32 32s14.327 32 32 32c5.605 0 10.871-1.445 15.453-3.977-9.864-5.451-16.547-15.955-16.547-28.023z" fill="#303d42"/><g><path d="m103.728 415.997c0 4.265-3.461 7.726-7.726 7.726h-31.998v-15.453h31.998c4.265.001 7.726 3.462 7.726 7.727z" fill="#fed402"/></g><g><path d="m103.728 447.995c0 4.275-3.461 7.726-7.726 7.726h-31.998v-15.453h31.998c4.265 0 7.726 3.462 7.726 7.727z" fill="#fed402"/></g><g><path d="m103.728 480.002c0 4.265-3.461 7.726-7.726 7.726h-31.998v-15.453h31.998c4.265.001 7.726 3.452 7.726 7.727z" fill="#fed402"/></g><g fill="#fdb441"><path d="m64.004 408.271h30.902v15.453h-30.902z"/><path d="m64.004 440.268h30.902v15.453h-30.902z"/><path d="m64.004 472.276h30.902v15.453h-30.902z"/></g><g><path d="m256 408.271v15.453h-31.998c-4.265 0-7.726-3.461-7.726-7.726s3.461-7.726 7.726-7.726h31.998z" fill="#fed402"/></g><g><path d="m256 440.268v15.453h-31.998c-4.265 0-7.726-3.451-7.726-7.726 0-4.265 3.461-7.726 7.726-7.726h31.998z" fill="#fed402"/></g><g><path d="m256 472.276v15.453h-31.998c-4.265 0-7.726-3.461-7.726-7.726 0-4.275 3.461-7.726 7.726-7.726h31.998z" fill="#fed402"/></g><path d="m192 383.998h-64v-32c0-17.673 14.327-32 32-32 17.673 0 32 14.327 32 32z" fill="#fee97d"/><path d="m175.453 323.976c-4.582-2.532-9.848-3.977-15.453-3.977-17.673 0-32 14.327-32 32v32h30.906v-32c0-12.068 6.683-22.572 16.547-28.023z" fill="#fed402"/><g><path d="m192.129 295.477h-64.128c-4.267 0-7.726-3.459-7.726-7.726s3.459-7.726 7.726-7.726h64.128c4.267 0 7.726 3.459 7.726 7.726s-3.459 7.726-7.726 7.726z" fill="#e9f1ff"/></g><path d="m352 21.698h64v35.09c0 3.983-3.229 7.211-7.211 7.211h-49.577c-3.983 0-7.211-3.229-7.211-7.211v-35.09z" fill="#fee97d"/><path d="m352 21.698v35.09c0 3.983 3.229 7.211 7.211 7.211h23.694v-42.301z" fill="#fed402"/><path d="m295.211 32h177.577c3.983 0 7.211-3.229 7.211-7.211v-17.578c0-3.983-3.229-7.211-7.211-7.211h-177.577c-3.983 0-7.211 3.229-7.211 7.211v17.577c0 3.983 3.228 7.212 7.211 7.212z" fill="#3e4f55"/><path d="m288 7.211v17.577c0 3.983 3.229 7.211 7.211 7.211h33.996v-31.999h-33.996c-3.983 0-7.211 3.229-7.211 7.211z" fill="#303d42"/></g></svg>