<svg id="Capa_1" enable-background="new 0 0 512 512" height="512" viewBox="0 0 512 512" width="512" xmlns="http://www.w3.org/2000/svg"><g><path d="m368.001 352h-288.002c-8.836 0-15.999-7.163-15.999-15.999v-320.002c0-8.836 7.163-15.999 15.999-15.999h336.001-16.001c-8.836 0-15.999 7.163-15.999 15.999v320.002c0 8.836-7.163 15.999-15.999 15.999z" fill="#fee97d"/><path d="m312.305 139.789v-11.734c0-20.198-16.433-36.631-36.631-36.631-.589 0-1.172.014-1.754.041-6.598-9.691-17.719-16.068-30.301-16.068-18.736 0-34.232 14.139-36.377 32.308-18.169 2.145-32.308 17.641-32.308 36.378v71.706c-6.209-6.588-13.478-12.648-22.219-17.553-6.41-3.596-13.234-5.497-19.736-5.497-11.084 0-20.892 5.511-26.236 14.741-4.987 8.612-8.169 23.69 4.991 46.616 16.488 28.723 27.374 62.388 29.866 92.363.159 1.909.342 3.756.55 5.542h202.207l.001-175.864c.002-18.65-14.006-34.089-32.053-36.348z" fill="#fed402"/><path d="m94.906 336.001v-320.002c0-8.836 7.163-15.999 15.999-15.999h-30.906c-8.836 0-15.999 7.163-15.999 15.999v320.002c0 8.836 7.163 15.999 15.999 15.999h30.906c-8.836 0-15.999-7.163-15.999-15.999z" fill="#fed402"/><path d="m307.783 504.789v-88.244c.777-10.388 1.248-19.174 7.552-27.395 5.635-7.349 8.421-15.852 8.421-24.454v-76.37-112.19c0-8.852-7.176-16.027-16.027-16.027-8.852 0-16.027 7.176-16.027 16.027v-48.081c0-8.852-7.176-16.027-16.027-16.027-8.852 0-16.027 7.176-16.027 16.027v-16.027c0-8.852-7.176-16.027-16.027-16.027-8.852 0-16.027 7.176-16.027 16.027v32.054c.001-8.851-7.174-16.027-16.025-16.027h-.002c-8.852 0-16.027 7.176-16.027 16.027v114.892c-.191 10.548-8.779 11.12-13.28 3.34-10.056-17.384-20.873-35.588-39.625-46.11-14.846-8.33-27.91 1.711-13.03 27.634 16.424 28.612 29.537 64.912 32.53 100.914 4.705 56.582 32.552 38.448 33.404 71.792v88.246c0 3.983 3.229 7.211 7.211 7.211h97.822c3.982-.001 7.211-3.23 7.211-7.212z" fill="#f1b0a2"/><path d="m432 352c-8.837 0-16-7.163-16-16v-16 16c0 8.837-7.163 16-16 16-8.837 0-16-7.163-16-16v-320.001c0-8.836 7.163-15.999 15.999-15.999h32.002c8.836 0 15.999 7.163 15.999 15.999v320.001c0 8.837-7.163 16-16 16z" fill="#fed402"/><g><path d="m416 327.726c-4.268 0-7.726-3.459-7.726-7.726v-288c0-4.267 3.459-7.726 7.726-7.726s7.726 3.459 7.726 7.726v288c.001 4.267-3.458 7.726-7.726 7.726z" fill="#fdb441"/></g><g fill="#eb9c8d"><path d="m243.046 256.401v-159.193c0-.403.015-.803.045-1.199-8.606.279-15.497 7.344-15.497 16.018v143.973c-.001 11.25 15.261 10.949 15.452.401z"/><path d="m259.647 128.054v127.946c0 11.25 15.262 10.949 15.453.401v-144.364c-8.586.303-15.453 7.358-15.453 16.017z"/><path d="m291.701 176.136v79.864c0 11.25 15.262 10.949 15.453.401v-96.282c-8.585.302-15.453 7.357-15.453 16.017z"/><path d="m210.991 258.973v-114.892c0-6.05 3.352-11.317 8.301-14.045-.013-.007-.025-.014-.038-.022-2.282-1.25-4.901-1.96-7.686-1.96h-.002c-8.852 0-16.027 7.176-16.027 16.027v114.892c-.084 4.627-1.783 7.334-4.044 8.259 6.756 6.768 19.305 2.289 19.496-8.259z"/><path d="m177.587 344.751c-2.994-36.002-16.106-72.301-32.53-100.914-8.306-14.469-7.905-23.99-3.349-28.13-14.453-7.408-26.674 2.748-12.104 28.13 16.424 28.612 29.537 64.912 32.53 100.914 4.705 56.582 32.552 38.448 33.404 71.792v88.246c0 3.983 3.229 7.211 7.211 7.211h8.242v-95.457c-.852-33.344-28.699-15.21-33.404-71.792z"/></g><g><g><g><path d="m96 448c-4.267 0-7.726-3.459-7.726-7.726v-63.878c0-4.267 3.459-7.726 7.726-7.726s7.726 3.459 7.726 7.726v63.878c.001 4.267-3.459 7.726-7.726 7.726z" fill="#d7e4f7"/></g><g><path d="m128 480c-4.267 0-7.726-3.459-7.726-7.726v-63.939c0-4.267 3.459-7.726 7.726-7.726s7.726 3.459 7.726 7.726v63.939c0 4.266-3.459 7.726-7.726 7.726z" fill="#d7e4f7"/></g><g><path d="m416 448c-4.268 0-7.726-3.459-7.726-7.726v-63.878c0-4.267 3.459-7.726 7.726-7.726s7.726 3.459 7.726 7.726v63.878c.001 4.267-3.458 7.726-7.726 7.726z" fill="#d7e4f7"/></g><g><path d="m384 480c-4.268 0-7.726-3.459-7.726-7.726v-64c0-4.267 3.459-7.726 7.726-7.726s7.726 3.459 7.726 7.726v64c0 4.266-3.458 7.726-7.726 7.726z" fill="#d7e4f7"/></g><g><path d="m352 512c-4.268 0-7.726-3.459-7.726-7.726v-64c0-4.267 3.459-7.726 7.726-7.726s7.726 3.459 7.726 7.726v64c0 4.267-3.459 7.726-7.726 7.726z" fill="#d7e4f7"/></g><g><path d="m159.937 512c-.006 0-.011 0-.016 0-4.267-.009-7.72-3.474-7.711-7.742l.126-63.969c.009-4.262 3.466-7.711 7.726-7.711h.016c4.267.009 7.72 3.474 7.711 7.741l-.126 63.969c-.008 4.263-3.466 7.712-7.726 7.712z" fill="#d7e4f7"/></g></g></g></g></svg>