<svg id="Capa_1" enable-background="new 0 0 512 512" height="512" viewBox="0 0 512 512" width="512" xmlns="http://www.w3.org/2000/svg"><g><path d="m330.516 43.443h41.831c31.094 0 56.301 25.207 56.301 56.301v53.535h-28.938l-69.785-67.259z" fill="#303d42"/><path d="m244.672 116.167v37.112h-29.265v-42.218c0-43.663 35.396-79.06 79.06-79.06h53.671c17.306 0 31.335 14.029 31.335 31.335v31.23c-.001 0-45.087 38.979-134.801 21.601z" fill="#3e4f55"/><path d="m215.407 189.907h213.241v141.969h-213.241z" fill="#303d42"/><path d="m254.974 140.822h-24.744c-11.067 0-20.038 8.971-20.038 20.038v15.015c0 11.067 8.971 20.038 20.038 20.038h24.744z" fill="#f1b0a2"/><path d="m389.408 140.821h24.744c11.067 0 20.038 8.972 20.038 20.038v15.015c0 11.067-8.972 20.038-20.038 20.038h-24.744z" fill="#eb9c8d"/><path d="m168.162 415.999h-127.999l-16 95.999h159.999z" fill="#e9f1ff"/><path d="m64.163 511.998 8-95.999h-32l-16 95.999z" fill="#d7e4f7"/><path d="m439.854 335.597-11.172-3.821-213.275.1-10.879 3.721c-28.699 9.817-47.983 36.793-47.983 67.125v98.974l19.108 10.302h8.509 31.246l42.784-10.302h127.999l42.458 10.302h59.189v-109.276c-.001-30.332-19.285-57.308-47.984-67.125z" fill="#3e4f55"/><path d="m245.736 335.597 72.487-24.794h-41.207l-72.487 24.794c-28.7 9.817-47.983 36.793-47.983 67.125v98.974l19.108 10.302h22.1v-109.276c-.001-30.332 19.282-57.308 47.982-67.125z" fill="#303d42"/><path d="m277.015 321.104v-85.595h90.352v85.595l-45.176 13.254z" fill="#d78878"/><path d="m307.92 310.802v-75.293h-30.905v85.595l45.176 13.254 15.453-8.057z" fill="#ca6e59"/><path d="m175.653 512h-142.973c-4.456 0-7.846-4.001-7.113-8.397l14.599-87.606 16.267-10.302h95.456l16.277 10.302 14.599 87.606c.734 4.396-2.656 8.397-7.112 8.397z" fill="#e9f1ff"/><path d="m367.367 310.803-45.176 23.555c0 15.657 16.97 25.424 30.508 17.559l49.977-29.036z" fill="#eef5f6"/><path d="m244.672 116.494v88.149c0 42.812 34.706 77.519 77.519 77.519 42.812 0 77.519-34.706 77.519-77.519v-88.149c0-12.11-9.817-21.927-21.927-21.927h-111.184c-12.11-.001-21.927 9.817-21.927 21.927z" fill="#f1b0a2"/><path d="m265.276 204.643v-88.15c0-12.11 9.817-21.927 21.927-21.927h-20.604c-12.11 0-21.927 9.817-21.927 21.927v88.15c0 42.812 34.706 77.519 77.519 77.519 3.493 0 6.931-.231 10.302-.679-37.943-5.038-67.217-37.52-67.217-76.84z" fill="#eb9c8d"/><g><g><path d="m296.93 155.174h-24.597c-4.268 0-7.726-3.459-7.726-7.726s3.459-7.726 7.726-7.726h24.597c4.268 0 7.726 3.459 7.726 7.726 0 4.266-3.459 7.726-7.726 7.726z" fill="#3e4f55"/></g></g><g><g><path d="m288.831 192.159c-4.268 0-7.726-3.459-7.726-7.726v-10.141c0-4.267 3.459-7.726 7.726-7.726s7.726 3.459 7.726 7.726v10.141c0 4.267-3.458 7.726-7.726 7.726z" fill="#3e4f55"/></g></g><g><g><path d="m371.897 155.174h-24.597c-4.268 0-7.726-3.459-7.726-7.726s3.459-7.726 7.726-7.726h24.597c4.268 0 7.726 3.459 7.726 7.726.001 4.266-3.458 7.726-7.726 7.726z" fill="#3e4f55"/></g></g><g><g><path d="m355.399 192.159c-4.268 0-7.726-3.459-7.726-7.726v-10.141c0-4.267 3.459-7.726 7.726-7.726 4.268 0 7.726 3.459 7.726 7.726v10.141c.001 4.267-3.458 7.726-7.726 7.726z" fill="#3e4f55"/></g></g><g><path d="m322.191 249.456c-14.945 0-27.103-12.158-27.103-27.103 0-4.267 3.459-7.726 7.726-7.726s7.726 3.459 7.726 7.726c0 6.424 5.226 11.65 11.65 11.65s11.65-5.226 11.65-11.65c0-4.267 3.459-7.726 7.726-7.726s7.726 3.459 7.726 7.726c.002 14.944-12.156 27.103-27.101 27.103z" fill="#ca6e59"/></g><path d="m367.367 310.803-45.176 23.555c0 15.657 16.97 25.424 30.508 17.559l49.977-29.036z" fill="#e9f1ff"/><path d="m277.015 310.803 45.176 23.555c0 15.657-16.97 25.424-30.508 17.559l-49.977-29.036z" fill="#eef5f6"/><path d="m277.015 310.803 45.176 23.555c0 15.657-16.97 25.424-30.508 17.559l-49.977-29.036z" fill="#e9f1ff"/><path d="m277.015 310.802-35.309 12.078 15.27 8.872 36.363-12.438z" fill="#d7e4f7"/><g fill="#e9f1ff"><path d="m379.467 31.936v24.858c0 3.983-3.229 7.211-7.211 7.211h-100.134c-3.983 0-7.211-3.229-7.211-7.211v-24.858c0-2.668.33-5.254.948-7.726 3.451-13.908 16.019-24.21 30.988-24.21h50.685c14.979 0 27.547 10.302 30.988 24.209.618 2.473.947 5.058.947 7.727z"/><path d="m215.407 511.998v-180.122l26.298-8.995 16.486 9.578v51.666c0 17.638 14.298 31.936 31.936 31.936h63.935c17.712 0 32.041-14.415 31.935-32.127l-.307-51.184 16.986-9.869 25.972 8.995v180.122z"/><path d="m215.407 331.876 17.692-6.052z"/></g><path d="m245.736 335.597 11.24-3.845-15.27-8.872-8.607 2.944-17.691 6.051v24.014c7.984-9.089 18.333-16.189 30.328-20.292z" fill="#d7e4f7"/><g><g><path d="m379.467 31.936v7.726h-114.556v-7.726c0-2.668.33-5.254.948-7.726h112.66c.619 2.472.948 5.057.948 7.726z" fill="#3e4f55"/></g></g><path d="m386.191 511.998h-127.999v-24.773c0-3.983 3.229-7.211 7.211-7.211h113.576c3.983 0 7.211 3.229 7.211 7.211v24.773z" fill="#3e4f55"/><g><g><path d="m79.86 416.636-7.943 95.364h-15.484c0-.206.01-.433.031-.639l8.005-96.003c.35-4.255 4.079-7.417 8.334-7.057 4.255.351 7.417 4.091 7.057 8.335z" fill="#bed2ee"/></g></g><g><g><path d="m111.888 415.997v96.003h-15.453v-96.003c0-4.265 3.461-7.726 7.726-7.726 4.266 0 7.727 3.461 7.727 7.726z" fill="#bed2ee"/></g></g><g><g><path d="m151.89 512h-15.484l-7.943-95.364c-.361-4.244 2.802-7.984 7.057-8.334 4.244-.35 7.984 2.802 8.344 7.057l7.994 96.003c.022.205.032.432.032.638z" fill="#bed2ee"/></g></g><path d="m120.162 394.423h-32v-42.424l10.302-16-10.302-16v-48c0-8.836 7.163-16 16-16 8.836 0 16 7.163 16 16v48l-10.302 16 10.302 16z" fill="#f1b0a2"/><path d="m111.889 257.986c-2.29-1.266-4.924-1.986-7.726-1.986-8.837 0-16 7.163-16 16v48l10.302 16-10.302 16v42.424h15.453v-122.424c-.001-6.035 3.34-11.288 8.273-14.014z" fill="#eb9c8d"/><path d="m168.162 415.999h-127.999v-.064c0-17.638 14.298-31.936 31.936-31.936h64.128c17.638 0 31.936 14.298 31.936 31.936v.064z" fill="#fe646f"/><path d="m103.004 383.999h-30.905c-17.638 0-31.936 14.298-31.936 31.936v.064h30.905v-.064c0-17.638 14.298-31.936 31.936-31.936z" fill="#e53950"/><path d="m88.163 319.999h32v32h-32z" fill="#fe646f"/><path d="m88.163 320h15.453v32h-15.453z" fill="#e53950"/></g></svg>