<svg id="Capa_1" enable-background="new 0 0 512 512" height="512" viewBox="0 0 512 512" width="512" xmlns="http://www.w3.org/2000/svg"><g><path d="m271.996 334.279h-31.992v-78.34l10.299-15.996-10.299-15.996v-207.951c0-8.834 7.162-15.996 15.996-15.996 8.834 0 15.996 7.162 15.996 15.996v207.95l-10.299 15.996 10.299 15.996z" fill="#f1b0a2"/><path d="m263.725 1.986c-2.29-1.266-4.924-1.986-7.725-1.986-8.834 0-15.996 7.162-15.996 15.996v318.283h15.449v-318.283c0-6.033 3.34-11.286 8.272-14.01z" fill="#eb9c8d"/><path d="m240.004 223.947h31.992v31.992h-31.992z" fill="#fe646f"/><path d="m240.004 223.947h15.449v31.992h-15.449z" fill="#e53950"/><path d="m335.981 351.916-29.98 10.299h-104.78l-25.202-10.299 5.373-8.06c16.63-24.945 44.627-39.929 74.608-39.929 29.981 0 57.978 14.983 74.608 39.929z" fill="#fe646f"/><path d="m330.608 343.856c-.504-.756-1.019-1.503-1.543-2.24h-89.28c-6.43 0-9.699-7.837-5.088-12.319 11.635-11.31 26.13-19.25 41.902-22.973-6.678-1.576-13.584-2.397-20.599-2.397-29.752 0-57.55 14.756-74.225 39.359-.128.189-.256.379-.383.569l-5.373 8.06 25.202 10.299h104.78l29.98-10.299z" fill="#e53950"/><path d="m345.002 384.031h-9.021l-31.992 10.299h-102.768l-25.202-10.299h-8.787c-3.982 0-7.21-3.228-7.21-7.21v-17.695c0-3.982 3.228-7.21 7.21-7.21h177.769c3.982 0 7.21 3.228 7.21 7.21v17.695c0 3.982-3.228 7.21-7.209 7.21z" fill="#fe646f"/><path d="m160.023 359.126v17.695c0 3.982 3.228 7.21 7.21 7.21h8.787l25.202 10.299v-10.299-32.115h-33.988c-3.983 0-7.211 3.228-7.211 7.21z" fill="#e53950"/><g><g fill="#d7e4f7"><path d="m271.996 384.03h-31.992l-13.499 63.985 7.1 63.985h44.79l7.1-63.985z"/><path d="m335.981 384.03h-31.992l-.702 63.985 19.897 63.985h35.555c4.69 0 8.132-4.408 6.994-8.958z"/><path d="m208.011 384.03h-31.992l-29.753 119.011c-1.138 4.55 2.304 8.958 6.994 8.958h35.555l19.897-63.985z"/></g><path d="m240.004 384.03h-31.993l-19.195 127.97h44.789z" fill="#e9f1ff"/><path d="m303.989 384.03h-31.993l6.399 127.97h44.789z" fill="#e9f1ff"/></g></g></svg>