<svg id="Capa_1" enable-background="new 0 0 512 512" height="512" viewBox="0 0 512 512" width="512" xmlns="http://www.w3.org/2000/svg"><g><path d="m272 298.302h-32v-74.302l10.302-16-10.302-16v-176c0-8.837 7.163-16 16-16 8.837 0 16 7.163 16 16v176l-10.302 16 10.302 16z" fill="#f1b0a2"/><path d="m263.726 1.986c-2.29-1.265-4.924-1.986-7.726-1.986-8.837 0-16 7.163-16 16v282.302h15.453v-282.302c0-6.034 3.341-11.288 8.273-14.014z" fill="#eb9c8d"/><path d="m240 192h32v32h-32z" fill="#fe646f"/><path d="m240 192h15.453v32h-15.453z" fill="#e53950"/><path d="m304 330.302h-96v-35.091c0-3.983 3.229-7.211 7.211-7.211h81.577c3.983 0 7.211 3.229 7.211 7.211v35.091z" fill="#fe646f"/><path d="m208 295.211v35.091h51.51v-42.302h-44.298c-3.983 0-7.212 3.229-7.212 7.211z" fill="#e53950"/><path d="m352.126 512c1.774 0 3.503-.638 4.814-1.833 9.008-8.211 8.226-23.119-2.347-30.167-11.417-7.611-11.417-24.388 0-32 11.417-7.612 11.417-24.388 0-32-11.417-7.612-11.417-24.388 0-32 11.417-7.612 11.417-24.388 0-32l-19.719-10.302-19.718 10.302c11.417 7.611 11.417 24.388 0 32-11.417 7.611-11.417 24.388 0 32 11.417 7.611 11.417 24.388 0 32-11.417 7.612-11.417 24.388 0 32 11.417 7.611 11.417 24.388 0 32z" fill="#e9f1ff"/><path d="m315.156 512c11.417-7.611 11.417-24.388 0-32-11.417-7.611-11.417-24.388 0-32 11.417-7.611 11.417-24.388 0-32-11.417-7.612-11.417-24.388 0-32 11.417-7.612 11.417-24.388 0-32l-19.719-10.302-19.718 10.302c11.417 7.611 11.417 24.388 0 32-11.417 7.611-11.417 24.388 0 32 11.417 7.611 11.417 24.388 0 32-11.417 7.611-11.417 24.388 0 32 11.417 7.611 11.417 24.388 0 32z" fill="#d7e4f7"/><path d="m275.719 512c11.417-7.611 11.417-24.388 0-32-11.417-7.611-11.417-24.388 0-32 11.417-7.611 11.417-24.388 0-32-11.417-7.612-11.417-24.388 0-32 11.417-7.612 11.417-24.388 0-32l-20.266-10.302-19.171 10.302c11.417 7.611 11.417 24.388 0 32-11.417 7.611-11.417 24.388 0 32 11.417 7.611 11.417 24.388 0 32-11.417 7.611-11.417 24.388 0 32 11.417 7.611 11.417 24.388 0 32z" fill="#e9f1ff"/><path d="m236.282 512c11.417-7.611 11.417-24.388 0-32-11.417-7.611-11.417-24.388 0-32 11.417-7.611 11.417-24.388 0-32-11.417-7.612-11.417-24.388 0-32 11.417-7.612 11.417-24.388 0-32l-19.719-10.302-19.719 10.302c11.417 7.611 11.417 24.388 0 32-11.417 7.611-11.417 24.388 0 32 11.417 7.611 11.417 24.388 0 32-11.417 7.611-11.417 24.388 0 32 11.417 7.611 11.417 24.388 0 32z" fill="#d7e4f7"/><path d="m196.844 512c11.417-7.611 11.417-24.388 0-32-11.417-7.611-11.417-24.388 0-32 11.417-7.612 11.417-24.388 0-32-11.417-7.612-11.417-24.388 0-32 11.417-7.612 11.417-24.388 0-32l-16.048-10.302-23.389 10.302c11.417 7.611 11.417 24.388 0 32-11.417 7.611-11.417 24.388 0 32 11.417 7.611 11.417 24.388 0 32-11.417 7.612-11.417 24.388 0 32 7.767 5.178 10.25 14.598 7.45 22.488-1.65 4.648 1.896 9.512 6.828 9.512z" fill="#e9f1ff"/><path d="m360 352h-208c-8.837 0-16-7.163-16-16 0-8.837 7.163-16 16-16h208c8.837 0 16 7.163 16 16 0 8.837-7.163 16-16 16z" fill="#fe646f"/><path d="m177.208 336c0-8.837 7.163-16 16-16h-41.208c-8.837 0-16 7.163-16 16 0 8.837 7.163 16 16 16h41.208c-8.837 0-16-7.163-16-16z" fill="#e53950"/></g></svg>