<svg id="Capa_1" enable-background="new 0 0 512 512" height="512" viewBox="0 0 512 512" width="512" xmlns="http://www.w3.org/2000/svg"><g><path d="m160 128h-64v-32c0-17.673 14.327-32 32-32h10c17.673 0 32 14.327 32 32z" fill="#8ac9fe"/><path d="m170 150h-74v170l10 16-10 16v15c0 3.866 3.134 7 7 7h67v-22z" fill="#8ac9fe"/><path d="m57 176.504h-35.302v-65.007h35.302c3.866 0 7 3.134 7 7v51.007c0 3.866-3.134 7-7 7z" fill="#e9f1ff"/><path d="m21.698 111.496h25.755v65.007h-25.755z" fill="#d7e4f7"/><path d="m53.698 128h404.604v32h-404.604z" fill="#e9f1ff"/><path d="m409 448h-241.936c-3.866 0-7-3.134-7-7v-25l10-16-10-16v-288-.002c0-17.672-14.326-31.998-31.998-31.998h-.066 256.002c17.672 0 31.998 14.326 31.998 31.998v288.002l-10 16 10 16v25c0 3.866-3.134 7-7 7z" fill="#b3dafe"/><path d="m160 384h256v32h-256z" fill="#e9f1ff"/><path d="m96 320h64.064v32h-64.064z" fill="#d7e4f7"/><path d="m490.302 176.504h-35.302c-3.866 0-7-3.134-7-7v-51.007c0-3.866 3.134-7 7-7h35.302z" fill="#e9f1ff"/><path d="m448 118.496v51.007c0 3.866 3.134 7 7 7h8.453v-65.007h-8.453c-3.866 0-7 3.134-7 7z" fill="#d7e4f7"/><path d="m505 208.504h-18c-3.866 0-7-3.134-7-7v-115.008c0-3.866 3.134-7 7-7h18c3.866 0 7 3.134 7 7v115.007c0 3.867-3.134 7.001-7 7.001z" fill="#e9f1ff"/><path d="m480 86.496v115.007c0 3.866 3.134 7 7 7h8.453v-129.007h-8.453c-3.866 0-7 3.134-7 7z" fill="#d7e4f7"/><path d="m25 208.504h-18c-3.866 0-7-3.134-7-7v-115.008c0-3.866 3.134-7 7-7h18c3.866 0 7 3.134 7 7v115.007c0 3.867-3.134 7.001-7 7.001z" fill="#e9f1ff"/><path d="m0 86.496v115.007c0 3.866 3.134 7 7 7h8.453v-129.007h-8.453c-3.866 0-7 3.134-7 7z" fill="#d7e4f7"/></g></svg>