<svg id="Capa_1" enable-background="new 0 0 512 512" height="512" viewBox="0 0 512 512" width="512" xmlns="http://www.w3.org/2000/svg"><g><path d="m225.624 127.908v129.393c0 19.405-8.821 37.758-23.974 49.881l-32.061 25.648c-15.153 12.122-23.974 30.475-23.974 49.881v1.302l10.303 85.745c0 17.639 14.3 31.939 31.939 31.939h107.948c17.654 0 31.96-14.322 31.939-31.977l10.196-85.707-.107-96.036 10.276-23.977-.085-76.148-10.334-27.862c-.031-26.364-21.404-32.041-47.768-32.056z" fill="#e9f1ff"/><path d="m197.131 382.711c0-19.405 16.548-37.758 31.701-49.881l32.061-25.648c15.153-12.122 28.739-30.475 28.739-49.881v-129.372l-64.007-.021v129.393c0 19.405-8.821 37.758-23.974 49.881l-32.06 25.648c-15.153 12.122-23.974 30.475-23.974 49.881v1.302l16.002 10.303h22.344l13.169-10.303v-1.302z" fill="#d7e4f7"/><path d="m233.625 239.998h-48.005c-13.256 0-24.002-10.746-24.002-24.002 0-13.256 10.746-24.002 24.002-24.002h48.005c13.256 0 24.002 10.746 24.002 24.002.001 13.256-10.746 24.002-24.002 24.002z" fill="#f1b0a2"/><path d="m233.625 219.392h-48.005c-9.568 0-17.829-5.599-21.684-13.7-1.486 3.122-2.318 6.615-2.318 10.303 0 13.256 10.746 24.002 24.002 24.002h48.005c13.256 0 24.002-10.746 24.002-24.002 0-3.688-.832-7.181-2.318-10.303-3.855 8.101-12.115 13.7-21.684 13.7z" fill="#eb9c8d"/><path d="m233.625 288.003h-48.005c-13.256 0-24.002-10.746-24.002-24.002 0-13.256 10.746-24.002 24.002-24.002h48.005c13.256 0 24.002 10.746 24.002 24.002.001 13.256-10.746 24.002-24.002 24.002z" fill="#f1b0a2"/><path d="m233.625 267.397h-48.005c-9.568 0-17.829-5.599-21.684-13.699-1.486 3.122-2.318 6.615-2.318 10.303 0 13.256 10.746 24.002 24.002 24.002h48.005c13.256 0 24.002-10.746 24.002-24.002 0-3.688-.832-7.181-2.318-10.303-3.855 8.1-12.115 13.699-21.684 13.699z" fill="#eb9c8d"/><path d="m233.625 191.993h-48.005c-13.256 0-24.002-10.746-24.002-24.002 0-13.256 10.746-24.002 24.002-24.002h48.005c13.256 0 24.002 10.746 24.002 24.002.001 13.256-10.746 24.002-24.002 24.002z" fill="#f1b0a2"/><path d="m233.625 171.388h-48.005c-9.568 0-17.829-5.599-21.684-13.7-1.486 3.122-2.318 6.615-2.318 10.303 0 13.256 10.746 24.002 24.002 24.002h48.005c13.256 0 24.002-10.746 24.002-24.002 0-3.688-.832-7.181-2.318-10.303-3.855 8.1-12.115 13.7-21.684 13.7z" fill="#eb9c8d"/><path d="m177.555 512h128.554c17.654 0 31.96-14.323 31.939-31.977l-.107-96.01h-192.325v96.048c0 17.639 14.3 31.939 31.939 31.939z" fill="#b3dafe"/><g><path d="m289.631 487.455c-4.268 0-7.727-3.459-7.727-7.727v-351.82c0-4.268 3.459-7.727 7.727-7.727s7.727 3.459 7.727 7.727v351.819c0 4.269-3.459 7.728-7.727 7.728z" fill="#bed2ee"/></g><path d="m289.631 487.455c4.268 0 7.727-3.459 7.727-7.727v-95.715h-15.454v95.715c0 4.268 3.459 7.727 7.727 7.727z" fill="#8ac9fe"/><path d="m197.131 480.061v-96.048h-51.515v96.048c0 17.64 14.3 31.939 31.939 31.939h51.515c-17.639 0-31.939-14.3-31.939-31.939z" fill="#8ac9fe"/><path d="m171.921 39.612h-35.094c-3.983 0-7.212-3.229-7.212-7.212v-17.579c0-3.983 3.229-7.212 7.212-7.212h35.094z" fill="#fee97d"/><path d="m267.931 144.492h-162.067c-13.395 0-24.254-10.859-24.254-24.254 0-13.395 10.859-24.254 24.254-24.254h162.067z" fill="#f1b0a2"/><path d="m83.901 109.935c-1.469 3.127-2.291 6.619-2.291 10.303 0 13.395 10.859 24.254 24.254 24.254h162.067v-20.606h-162.067c-9.711 0-18.089-5.707-21.963-13.951z" fill="#eb9c8d"/><path d="m193.621 47.9-15.552 52.326c0 6.451 5.23 11.681 11.681 11.681 2.788 0 5.485-.997 7.602-2.812l34.056-29.191-11.033-42.306z" fill="#fee97d"/><g><path d="m97.612 23.677h-64.007c-4.268 0-7.727-3.459-7.727-7.727s3.46-7.727 7.727-7.727h64.007c4.268 0 7.727 3.459 7.727 7.727s-3.46 7.727-7.727 7.727z" fill="#b3dafe"/></g><g><path d="m33.611 87.632c-2.835 0-5.563-1.566-6.917-4.273-1.909-3.817-.362-8.459 3.456-10.367l64.007-32.003c3.817-1.909 8.459-.361 10.367 3.455 1.909 3.817.362 8.459-3.456 10.367l-64.007 32.003c-1.11.555-2.289.818-3.45.818z" fill="#b3dafe"/></g><path d="m478.912 143.989h-32.41c-18.029 0-34.864-9.01-44.865-24.011-9.994-14.991-26.816-24-44.833-24.011l-35.169-.021-26.613-10.319-29.849 10.286c-8.42-.005-16.501 3.316-22.484 9.241l-33.047 32.727c-12.76 12.636-13.132 33.691-.213 46.164 12.497 12.066 32.409 11.933 44.742-.4l23.655-23.655h59.866l.394 127.987h56.938c14.484 0 28.376-5.751 38.622-15.989 10.246-10.237 24.137-15.988 38.622-15.988h6.644c3.983 0 7.212-3.229 7.212-7.212v-97.587c0-3.983-3.229-7.212-7.212-7.212z" fill="#f1b0a2"/><g fill="#eb9c8d"><path d="m240.337 184.046c-12.919-12.474-12.547-33.528.213-46.164l33.047-32.727c5.731-5.676 13.388-8.962 21.424-9.224l-29.849-.017c-8.42-.005-16.501 3.316-22.484 9.241l-33.047 32.727c-12.76 12.636-13.132 33.691-.213 46.164 10.301 9.946 25.641 11.603 37.621 4.97-2.393-1.326-4.653-2.983-6.712-4.97z"/><path d="m337.692 159.99.394 127.987h30.909l-.372-120.797c-.012-3.974-3.238-7.19-7.212-7.19z"/></g><path d="m353.573 47.9c-17.64 0-31.939 14.3-31.939 31.939v16.066h-26.613-22.037-30.909l-32.003-48.005h-41.242c-3.983 0-7.212-3.229-7.212-7.212v-33.476c0-3.983 3.229-7.212 7.212-7.212h150.271c1.91 0 3.742.758 5.094 2.107l34.203 34.128c4.31 4.301 1.264 11.665-4.825 11.665z" fill="#fe646f"/><g fill="#e53950"><path d="m161.618 7.212v33.476c0 3.983 3.229 7.212 7.212 7.212h23.697v-47.9h-23.697c-3.983 0-7.212 3.229-7.212 7.212z"/><path d="m210.072 47.9 32.003 48.005h30.909l-29.862-44.793c-1.338-2.006-3.589-3.212-6.001-3.212z"/></g><g><path d="m69.023 197.495c-.942-3.485-5.886-3.485-6.829 0-4.649 15.764-15.668 31.634-29.728 38.727-2.493 1.258-2.582 4.756-.183 6.186 14.184 8.459 24.718 22.056 29.292 38.121l.657 2.104c1.034 3.31 5.718 3.31 6.752 0l.657-2.104c4.574-16.065 15.109-29.662 29.292-38.121 2.398-1.43 2.31-4.929-.183-6.186-14.06-7.093-25.078-22.963-29.727-38.727z" fill="#b3dafe"/><path d="m62.194 197.495c-4.649 15.764-15.668 31.634-29.728 38.726-2.493 1.258-2.582 4.756-.183 6.186 14.184 8.459 24.718 22.056 29.292 38.121l.657 2.105c.517 1.655 1.946 2.482 3.376 2.482v-90.235c-1.471.001-2.943.873-3.414 2.615z" fill="#8ac9fe"/></g></g></svg>