<svg id="Capa_1" enable-background="new 0 0 512 512" height="512" viewBox="0 0 512 512" width="512" xmlns="http://www.w3.org/2000/svg"><g><path d="m0 307.164c0 17.673 14.327 32 32 32h48c8.837 0 16 7.163 16 16 0 8.837-7.163 16-16 16h-16c-17.673 0-32 14.327-32 32 0 17.673 14.327 32 32 32h224c17.673 0 32-14.327 32-32 0-17.673-14.327-32-32-32h-64c-17.673 0-32-14.327-32-32 0-17.673 14.327-32 32-32h95.912c17.722 0 32.088 14.366 32.088 32.088 0 17.739 14.393 32.112 32.132 32.088l95.89-.132c17.668-.025 31.978-14.354 31.978-32.022 0-17.685-14.337-32.022-32.022-32.022h-63.978v-32h-384c-17.673 0-32 14.326-32 32z" fill="#b3dafe"/><g fill="#8ac9fe"><path d="m62.906 339.164c-17.673 0-32-14.327-32-32 0-17.673 14.327-32 32-32h-30.906c-17.673 0-32 14.327-32 32 0 17.673 14.327 32 32 32z"/><path d="m62.906 403.164c0-17.673 14.327-32 32-32h16c8.836 0 16-7.163 16-16s-7.163-16-16-16h-30.906c8.837 0 16 7.163 16 16s-7.163 16-16 16h-16c-17.673 0-32 14.327-32 32 0 17.673 14.327 32 32 32h30.906c-17.674 0-32-14.327-32-32z"/><path d="m382.906 339.252c0-17.722-14.366-32.088-32.088-32.088h-30.906c17.722 0 32.088 14.366 32.088 32.088 0 17.739 14.393 32.112 32.132 32.088l29.241-.04c-16.966-.844-30.467-14.868-30.467-32.048z"/></g><path d="m64 179.382v57.237c0 65.576 60.724 114.287 124.739 100.062l45.025-10.006c14.645-3.255 29.827-3.255 44.472 0l45.025 10.006c64.015 14.225 124.739-34.486 124.739-100.062v-57.237z" fill="#fed402"/><path d="m323.261 279.444-45.025-10.006c-14.645-3.255-29.827-3.255-44.472 0l-45.025 10.006c-64.015 14.225-124.739-34.486-124.739-100.062 0-65.716 60.969-114.457 125.072-99.987l44.359 10.013c14.859 3.354 30.279 3.354 45.138 0l44.359-10.013c64.103-14.47 125.072 34.271 125.072 99.987 0 65.576-60.724 114.287-124.739 100.062z" fill="#fee97d"/><circle cx="176" cy="195.164" fill="#fed402" r="16"/><circle cx="336" cy="195.164" fill="#fed402" r="16"/><circle cx="384" cy="147.162" fill="#fed402" r="16"/><circle cx="128" cy="147.162" fill="#fed402" r="16"/><circle cx="256" cy="131.162" fill="#fed402" r="16"/><circle cx="256" cy="227.164" fill="#fed402" r="16"/><circle cx="368" cy="419.164" fill="#b3dafe" r="16"/><g fill="#fed402"><path d="m167.959 109.396c3.185 3.185 3.185 8.35 0 11.535-3.185 3.185-8.35 3.185-11.535 0-3.185-3.185-3.185-8.35 0-11.535 3.185-3.185 8.35-3.185 11.535 0z"/><path d="m357.768 109.394c3.185 3.185 3.185 8.35 0 11.535-3.185 3.185-8.35 3.185-11.535 0-3.185-3.185-3.185-8.35 0-11.535 3.185-3.185 8.349-3.185 11.535 0z"/><path d="m309.768 141.396c3.185 3.185 3.185 8.35 0 11.535-3.185 3.185-8.35 3.185-11.535 0-3.185-3.185-3.185-8.35 0-11.535 3.185-3.185 8.349-3.185 11.535 0z"/><path d="m215.959 141.396c3.185 3.185 3.185 8.35 0 11.535-3.185 3.185-8.35 3.185-11.535 0-3.185-3.185-3.185-8.35 0-11.535 3.185-3.185 8.35-3.185 11.535 0z"/><path d="m263.959 173.395c3.185 3.185 3.185 8.35 0 11.535-3.185 3.185-8.35 3.185-11.535 0-3.185-3.185-3.185-8.35 0-11.535 3.185-3.185 8.35-3.185 11.535 0z"/><path d="m165.768 237.396c3.185 3.185 3.185 8.35 0 11.535-3.185 3.185-8.35 3.185-11.535 0-3.185-3.185-3.185-8.35 0-11.535 3.185-3.185 8.349-3.185 11.535 0z"/><path d="m357.768 237.396c3.185 3.185 3.185 8.35 0 11.535-3.185 3.185-8.35 3.185-11.535 0-3.185-3.185-3.185-8.35 0-11.535 3.185-3.185 8.349-3.185 11.535 0z"/><path d="m117.768 189.396c3.185 3.185 3.185 8.35 0 11.535-3.185 3.185-8.35 3.185-11.535 0-3.185-3.185-3.185-8.35 0-11.535 3.185-3.185 8.349-3.185 11.535 0z"/><path d="m405.768 189.396c3.185 3.185 3.185 8.35 0 11.535-3.185 3.185-8.35 3.185-11.535 0-3.185-3.185-3.185-8.35 0-11.535 3.185-3.185 8.349-3.185 11.535 0z"/></g></g></svg>