<svg id="Capa_1" enable-background="new 0 0 512 512" height="512" viewBox="0 0 512 512" width="512" xmlns="http://www.w3.org/2000/svg"><g><g fill="#b3dafe"><circle cx="336" cy="144" r="16"/><circle cx="336" cy="304" r="16"/><circle cx="390.418" cy="217.582" r="25.582"/></g><path d="m385.44 217.582c0-10.463 6.282-19.459 15.28-23.422-3.152-1.388-6.637-2.159-10.302-2.159-14.128 0-25.582 11.453-25.582 25.582 0 14.128 11.453 25.582 25.582 25.582 3.665 0 7.15-.771 10.302-2.159-8.998-3.965-15.28-12.961-15.28-23.424z" fill="#8ac9fe"/><path d="m176 21.698h32v84.604h-32z" fill="#fe646f"/><path d="m176 21.698h15.453v84.604h-15.453z" fill="#e53950"/><path d="m240 138.302h-96v-35.091c0-3.983 3.229-7.211 7.211-7.211h81.577c3.983 0 7.211 3.229 7.211 7.211v35.091z" fill="#9cf8d2"/><path d="m144 103.211v35.091h41.208v-42.302h-33.996c-3.983 0-7.212 3.229-7.212 7.211z" fill="#91deb6"/><path d="m256.064 512h-128.128c-17.638 0-31.936-14.298-31.936-31.936v-64.064l10.302-48v-96l-10.302-48v-47.357c0-26.865 21.778-48.643 48.643-48.643h94.713c26.866 0 48.644 21.778 48.644 48.643v47.357l-10.302 48v96l10.302 48v64.064c0 17.638-14.298 31.936-31.936 31.936z" fill="#9cf8d2"/><path d="m137.208 480.064v-303.421c0-26.865 21.778-48.643 48.643-48.643h-41.208c-26.865 0-48.643 21.778-48.643 48.643v47.357l10.302 48v96l-10.302 48v64.064c0 17.638 14.298 31.936 31.936 31.936h41.208c-17.638 0-31.936-14.298-31.936-31.936z" fill="#91deb6"/><path d="m96 224h192v192h-192z" fill="#e9f1ff"/><path d="m96 224h41.208v192h-41.208z" fill="#d7e4f7"/><path d="m224 304c-8.837 0-16-7.163-16-16 0-8.837-7.163-16-16-16-8.837 0-16 7.163-16 16 0 8.837-7.163 16-16 16-8.837 0-16 7.163-16 16 0 8.837 7.163 16 16 16 8.837 0 16 7.163 16 16 0 8.837 7.163 16 16 16 8.837 0 16-7.163 16-16 0-8.837 7.163-16 16-16 8.837 0 16-7.163 16-16 0-8.837-7.163-16-16-16z" fill="#fe646f"/><g><g><path d="m224 455.726h-64c-4.268 0-7.726-3.459-7.726-7.726s3.459-7.726 7.726-7.726h64c4.268 0 7.726 3.459 7.726 7.726s-3.459 7.726-7.726 7.726z" fill="#e9f1ff"/></g></g><g><g><path d="m224 199.727h-64c-4.268 0-7.726-3.459-7.726-7.726s3.459-7.726 7.726-7.726h64c4.268 0 7.726 3.459 7.726 7.726s-3.459 7.726-7.726 7.726z" fill="#e9f1ff"/></g></g><path d="m128 7.211v17.577c0 3.983 3.229 7.211 7.211 7.211h169.336c8.535.001 15.453 6.919 15.453 15.454v9.336c0 3.983 3.229 7.211 7.211 7.211h17.577c3.983 0 7.211-3.229 7.211-7.211v-24.791c.001-17.672-14.325-31.998-31.997-31.998h-184.791c-3.982 0-7.211 3.229-7.211 7.211z" fill="#fe646f"/><g fill="#e53950"><path d="m128 7.211v17.577c0 3.983 3.229 7.211 7.211 7.211h9.272v-31.999h-9.272c-3.982 0-7.211 3.229-7.211 7.211z"/><path d="m321.03 32h-16.483c8.534 0 15.453 6.918 15.453 15.453v9.336c0 3.983 3.229 7.211 7.211 7.211h9.272v-16.547c0-8.535-6.918-15.453-15.453-15.453z"/></g></g></svg>