<svg id="Capa_1" enable-background="new 0 0 512 512" height="512" viewBox="0 0 512 512" width="512" xmlns="http://www.w3.org/2000/svg"><g><path d="m368.123 288.592v212.332c0 5.453-5.811 8.939-10.622 6.373l-16.027-8.547c-2.124-1.133-4.674-1.133-6.798 0l-23.25 12.4c-2.124 1.133-4.674 1.133-6.798 0l-23.25-12.4c-2.124-1.133-4.674-1.133-6.798 0l-23.251 12.4c-2.124 1.133-4.673 1.133-6.797 0l-23.261-12.401c-2.124-1.133-4.673-1.132-6.797 0l-23.251 12.4c-2.124 1.133-4.674 1.133-6.798 0l-23.25-12.4c-2.124-1.133-4.674-1.133-6.798 0l-16.027 8.547c-4.811 2.566-10.622-.921-10.622-6.373v-212.331z" fill="#e9f1ff"/><path d="m127.729 288.594v65.137c12.402 12.159 29.38 19.666 48.079 19.666h192.314v-84.803z" fill="#bed2ee"/><g><path d="m448.378 240.7h-42.496v-32.298h26.77c8.548 0 15.478-6.93 15.478-15.478v-145.147c0-8.548-6.93-15.478-15.478-15.478h-393.857c-3.989 0-7.223-3.234-7.223-7.223v-17.853c0-3.989 3.234-7.223 7.223-7.223h409.582c17.701 0 32.05 14.349 32.05 32.05v176.6c.001 17.7-14.349 32.05-32.049 32.05z" fill="#b3dafe"/></g><g fill="#8ac9fe"><path d="m448.378 224.19h-42.496v16.51h42.496c17.701 0 32.05-14.349 32.05-32.05v-16.51c0 17.7-14.35 32.05-32.05 32.05z"/><path d="m448.13 47.777v-16.51c0-8.548-6.93-15.478-15.478-15.478h-401.08v9.287c0 3.989 3.234 7.223 7.223 7.223h393.857c8.548-.001 15.478 6.929 15.478 15.478z"/></g><path d="m368.122 96.342h-192.314v256.418h192.314c26.553 0 48.078-21.526 48.078-48.078v-160.262c.001-26.553-21.525-48.078-48.078-48.078z" fill="#e9f1ff"/><path d="m175.808 352.76c-26.553 0-48.079-21.525-48.079-48.078v-160.262c0-26.553 21.525-48.078 48.078-48.078 26.553 0 48.078 21.525 48.078 48.078v160.262c.001 26.553-21.524 48.078-48.077 48.078z" fill="#d7e4f7"/><path d="m175.808 272.63c-8.851 0-16.026-7.175-16.026-16.026v-64.105c0-8.851 7.175-16.026 16.026-16.026 8.851 0 16.026 7.175 16.026 16.026v15.903l-10.319 15.788 10.319 16.51v15.904c0 8.85-7.175 16.026-16.026 16.026z" fill="#fed2a4"/><g><g><path d="m167.517 448.852c0 4.282-3.457 7.739-7.739 7.739h-32.05v-15.478h32.05c4.282 0 7.739 3.467 7.739 7.739z" fill="#d7e4f7"/></g></g><g><g><path d="m223.886 456.595h-32.053c-4.274 0-7.739-3.464-7.739-7.739s3.465-7.739 7.739-7.739h32.053c4.274 0 7.739 3.464 7.739 7.739s-3.464 7.739-7.739 7.739z" fill="#d7e4f7"/></g></g><g><g><path d="m287.991 456.595h-32.053c-4.274 0-7.739-3.464-7.739-7.739s3.465-7.739 7.739-7.739h32.053c4.274 0 7.739 3.464 7.739 7.739s-3.465 7.739-7.739 7.739z" fill="#d7e4f7"/></g></g><g><g><path d="m368.123 441.113v15.478h-48.085c-4.272 0-7.739-3.457-7.739-7.739 0-4.272 3.467-7.739 7.739-7.739z" fill="#d7e4f7"/></g></g><g><path d="m79.528 208.401h112.306v32.298h-112.306z" fill="#b3dafe"/></g><path d="m79.528 224.19h112.306v16.51h-112.306z" fill="#8ac9fe"/><circle cx="63.625" cy="224.551" fill="#fe646f" r="32.052"/><path d="m62.529 224.551c0-12.088 6.694-22.609 16.574-28.069-4.589-2.536-9.864-3.984-15.478-3.984-17.702 0-32.052 14.35-32.052 32.052s14.35 32.052 32.052 32.052c5.614 0 10.889-1.448 15.478-3.984-9.881-5.458-16.574-15.979-16.574-28.067z" fill="#e53950"/></g></svg>