<svg id="Capa_1" enable-background="new 0 0 512 512" height="512" viewBox="0 0 512 512" width="512" xmlns="http://www.w3.org/2000/svg"><g><path d="m432.755 342.215v17.16l-10.362 7.772 10.362 7.772v16.642l-10.362 7.772 10.362 7.772v16.641l-10.362 7.772 10.362 7.772v16.641l-10.362 7.772 10.362 7.772v17.17c0 4.006-3.247 7.253-7.253 7.253h-67.415v-160.936h67.415c4.006 0 7.253 3.247 7.253 7.253z" fill="#e9f1ff"/><path d="m358.091 334.957h31.086v160.934h-31.086z" fill="#d7e4f7"/><g><g><path d="m432.755 455.928v15.543h-64.307c-4.29 0-7.772-3.471-7.772-7.772 0-4.29 3.482-7.772 7.772-7.772h64.307z" fill="#d7e4f7"/></g></g><g><g><path d="m432.755 423.744v15.543h-64.307c-4.29 0-7.772-3.471-7.772-7.772 0-4.29 3.482-7.772 7.772-7.772h64.307z" fill="#d7e4f7"/></g></g><g><g><path d="m432.755 391.559v15.543h-64.307c-4.29 0-7.772-3.482-7.772-7.772s3.482-7.772 7.772-7.772h64.307z" fill="#d7e4f7"/></g></g><g><g><path d="m432.755 359.375v15.543h-64.307c-4.29 0-7.772-3.482-7.772-7.772s3.482-7.772 7.772-7.772h64.307z" fill="#d7e4f7"/></g></g><path d="m368.45 309.97v194.76c0 4.01-3.24 7.25-7.25 7.25h-24.5c-17.72 0-32.08-14.36-32.08-32.07v-225.39l10.36-16.11-10.36-16.11v-177.24c0-19.618 31.76-21.898 31.76 0v177.24l-10.36 16.11 10.36 16.11v23.37c1.42 15.127 9.693 23.4 24.82 24.82 4.01 0 7.25 3.25 7.25 7.26z" fill="#f1b0a2"/><path d="m320.164 479.91v-434.85c0-6.716 3.722-11.4 8.619-13.778-9.395-4.915-24.163.4-24.163 13.778v177.24l10.36 16.11-10.36 16.11v225.39c0 17.71 14.36 32.07 32.08 32.07h15.544c-17.72 0-32.08-14.36-32.08-32.07z" fill="#eb9c8d"/><path d="m304.621 222.303h31.756v32.218h-31.756z" fill="#fe646f"/><path d="m304.621 222.303h15.543v32.218h-15.543z" fill="#e53950"/><path d="m260.003 81.53-50.395-50.395-20.924 4.326-20.27 20.27-4.326 20.924 31.803 31.803c7.747 7.747 12.099 18.254 12.099 29.21 0 12.781-5.916 24.842-16.022 32.665l-75.349 58.331c-23.576 18.251-37.376 46.387-37.376 76.201v175.012c0 17.742 14.383 32.124 32.125 32.122l128.855-.012c17.748-.002 32.131-14.396 32.119-32.143l-.242-369.131c-.005-10.947-4.356-21.443-12.097-29.183z" fill="#9cf8d2"/><path d="m111.678 479.878v-175.012c0-29.815 13.8-57.95 37.376-76.201l75.349-58.331c10.106-7.824 16.022-19.885 16.022-32.665 0-10.956-4.352-21.463-12.099-29.21l-20.813-20.813c-6.07-6.07-6.07-15.911 0-21.981l18.312-18.312-16.216-16.216-20.924 4.326-20.27 20.27-4.326 20.924 31.803 31.803c7.747 7.747 12.099 18.254 12.099 29.21 0 12.781-5.916 24.842-16.022 32.665l-75.349 58.331c-23.576 18.251-37.376 46.387-37.376 76.201v175.012c0 17.742 14.383 32.124 32.125 32.122l31.995-.003c-17.539-.234-31.686-14.525-31.686-32.12z" fill="#91deb6"/><path d="m111.678 306.443c0-20.775 9.616-40.379 26.043-53.096l41.07-31.794c20.977-17.836 61.389-29.925 60.903.751l.191 225.407c.015 17.584-14.234 31.846-31.818 31.848l-64.564.006c-17.575.002-31.824-14.246-31.824-31.821z" fill="#fee97d"/><circle cx="175.805" cy="351.051" fill="#3e4f55" r="32.187"/><g><g><path d="m207.992 423.196h-64.374c-4.292 0-7.772-3.479-7.772-7.772s3.479-7.772 7.772-7.772h64.374c4.292 0 7.772 3.479 7.772 7.772s-3.48 7.772-7.772 7.772z" fill="#3e4f55"/></g></g><g><g><path d="m191.898 455.382h-32.187c-4.292 0-7.772-3.479-7.772-7.772s3.479-7.772 7.772-7.772h32.187c4.292 0 7.772 3.479 7.772 7.772s-3.479 7.772-7.772 7.772z" fill="#3e4f55"/></g></g><path d="m175.469 19.755-2.035 22.76h-20.724l-17.631-17.631c-2.833-2.833-2.833-7.425 0-10.258l12.502-12.502c2.833-2.833 7.425-2.833 10.258 0z" fill="#fe646f"/><path d="m155.803 14.626 7.269-7.269-5.233-5.233c-2.833-2.833-7.425-2.833-10.258 0l-12.502 12.502c-2.833 2.833-2.833 7.425 0 10.258l17.631 17.631h20.724l-10.362-10.362-7.269-7.269c-2.833-2.833-2.833-7.425 0-10.258z" fill="#e53950"/><path d="m209.63 31.2-45.475 45.475c-6.297 6.297-16.506 6.297-22.803 0-6.297-6.297-6.297-16.506 0-22.803l45.475-45.475c6.297-6.297 16.506-6.297 22.803 0 6.297 6.297 6.297 16.506 0 22.803z" fill="#fe646f"/><path d="m162.076 76.676c-6.297-6.297-6.297-16.506 0-22.803l45.475-45.475c.336-.336.683-.653 1.04-.953-6.335-5.325-15.802-5.008-21.764.953l-45.475 45.475c-6.297 6.297-6.297 16.506 0 22.803 5.961 5.961 15.429 6.279 21.764.953-.357-.3-.704-.618-1.04-.953z" fill="#e53950"/></g></svg>