<svg id="Capa_1" enable-background="new 0 0 512 512" height="512" viewBox="0 0 512 512" width="512" xmlns="http://www.w3.org/2000/svg"><g><path d="m415.502 496.065-15.034-481.095c-.261-8.342-7.099-14.97-15.445-14.97h-258.046c-8.346 0-15.185 6.628-15.445 14.97l-15.034 481.095c-.273 8.719 6.722 15.935 15.445 15.935h48.843c8.44 0 15.319-6.772 15.451-15.211l.621-17.609c.132-8.439 7.011-15.211 15.451-15.211h127.382c8.44 0 15.319 6.772 15.451 15.211l.621 17.609c.132 8.439 7.011 15.211 15.451 15.211h48.843c8.723 0 15.718-7.216 15.445-15.935zm-108.606-393.011h-101.792c-12.487 0-22.555-10.226-22.36-22.712.191-12.213 10.146-22.013 22.36-22.013h101.791c12.214 0 22.169 9.8 22.36 22.013.196 12.486-9.872 22.712-22.359 22.712z" fill="#fee97d"/><path d="m366.668 496.789-.621-17.609c-.132-8.439-7.011-15.211-15.451-15.211h-30.906c8.44 0 15.319 6.772 15.451 15.211l.621 17.609c.132 8.439 7.011 15.211 15.451 15.211h30.906c-8.44 0-15.319-6.772-15.451-15.211z" fill="#fed402"/><path d="m127.404 496.065 15.034-481.095c.261-8.342 7.099-14.97 15.445-14.97h-30.906c-8.346 0-15.185 6.628-15.445 14.97l-15.034 481.095c-.273 8.719 6.722 15.935 15.445 15.935h30.906c-8.724 0-15.718-7.216-15.445-15.935z" fill="#fed402"/><path d="m358.565 407.779h-205.13c-3.926 0-7.084-3.228-6.998-7.153l5.368-245.375c.083-3.805 3.192-6.847 6.998-6.847h194.396c3.806 0 6.915 3.041 6.998 6.847l5.368 245.375c.085 3.925-3.074 7.153-7 7.153z" fill="#e9f1ff"/><g fill="#3e4f55"><path d="m317.764 296.235-31.999-32c-1.45-1.449-3.415-2.262-5.464-2.262h-27.225l-8.274-16.547h19.499c1.199 0 2.382-.28 3.456-.816l31.999-16c3.816-1.908 5.363-6.549 3.455-10.366-1.908-3.816-6.546-5.362-10.366-3.455l-30.367 15.184h-26.13c4.58-3.827 7.499-9.58 7.499-16.001 0-11.495-9.351-20.846-20.846-20.846s-20.846 9.352-20.846 20.846c0 10.763 11.228 21.447 22.09 20.809l-29.957 29.404c-1.48 1.453-2.314 3.44-2.314 5.514v32c0 4.268 3.459 7.726 7.726 7.726s7.726-3.459 7.726-7.726v-28.758l22.712-22.292 10.962 21.924 8.374 27.472-23.197 28.877c-2.673 3.327-2.142 8.19 1.185 10.863 3.783 2.613 7.404 2.218 10.862-1.185l25.755-32.063c1.6-1.993 2.112-4.648 1.366-7.092l-6.712-22.021h18.367l29.736 29.738c3.642 3.017 7.285 3.017 10.927 0 3.018-3.018 3.018-7.909.001-10.927z"/><path d="m280.301 357.972h-64.001c-4.267 0-7.726 3.459-7.726 7.726 0 4.268 3.459 7.726 7.726 7.726h64.001c4.268 0 7.726-3.459 7.726-7.726 0-4.268-3.458-7.726-7.726-7.726z"/></g></g></svg>