<svg id="Capa_1" enable-background="new 0 0 512 512" height="512" viewBox="0 0 512 512" width="512" xmlns="http://www.w3.org/2000/svg"><g><path d="m357.698 96h58.302c8.837 0 16 7.163 16 16 0 8.837-7.163 16-16 16h-58.302z" fill="#b3dafe"/><path d="m357.698 96h30.906v32h-30.906z" fill="#8ac9fe"/><path d="m360.789 144h-35.091v-64h35.091c3.983 0 7.211 3.229 7.211 7.211v49.577c0 3.983-3.229 7.212-7.211 7.212z" fill="#d7e4f7"/><path d="m325.698 80h25.755v64h-25.755z" fill="#bed2ee"/><path d="m112 37.698h224v164.604h-224z" fill="#e9f1ff"/><path d="m173.811 68.604h162.189v-30.906h-224v164.604h30.906v-102.793c0-17.068 13.837-30.905 30.905-30.905z" fill="#d7e4f7"/><path d="m192 368h64v41.373c0 14.488 5.755 28.383 16 38.627 10.245 10.245 16 24.139 16 38.627v18.161c0 3.983-3.229 7.211-7.211 7.211h-113.578c-3.983 0-7.211-3.229-7.211-7.211v-18.161c0-14.488 5.755-28.383 16-38.627 10.245-10.245 16-24.139 16-38.627z" fill="#d7e4f7"/><path d="m206.906 448c4.796-4.796 8.608-10.392 11.306-16.474 2.934-6.615 9.165-11.162 16.382-11.683 7.489-.541 16.507-1.373 21.994-2.479-.389-2.63-.588-5.3-.588-7.991v-41.373h-64v41.373c0 14.488-5.755 28.383-16 38.627-10.245 10.245-16 24.139-16 38.627v18.161c0 3.983 3.229 7.211 7.211 7.211h23.694v-25.373c.001-14.487 5.756-28.381 16.001-38.626z" fill="#bed2ee"/><path d="m80 224 17.007-10.302h254.445l16.548 10.302v32c0 79.529-64.471 144-144 144-79.529 0-144-64.471-144-144z" fill="#e9f1ff"/><path d="m110.906 256v-32l-13.898-10.302-17.008 10.302v32c0 79.529 64.471 144 144 144 5.22 0 10.376-.278 15.453-.82-72.263-7.709-128.547-68.871-128.547-143.18z" fill="#d7e4f7"/><path d="m368 224h-288c0-17.673 14.327-32 32-32h224c17.673 0 32 14.327 32 32z" fill="#b3dafe"/><path d="m142.906 192h-30.906c-17.673 0-32 14.327-32 32h30.906c0-17.673 14.327-32 32-32z" fill="#8ac9fe"/><path d="m360.789 48h-273.578c-3.982 0-7.211-3.229-7.211-7.211v-8.853c0-17.638 14.298-31.936 31.936-31.936h224.128c17.638 0 31.936 14.298 31.936 31.936v8.853c0 3.982-3.229 7.211-7.211 7.211z" fill="#b3dafe"/><path d="m142.842 0h-30.906c-17.638 0-31.936 14.298-31.936 31.936v8.853c0 3.982 3.229 7.211 7.211 7.211h23.694v-16.064c.001-17.638 14.299-31.936 31.937-31.936z" fill="#8ac9fe"/></g></svg>