<svg id="Capa_1" enable-background="new 0 0 512 512" height="512" viewBox="0 0 512 512" width="512" xmlns="http://www.w3.org/2000/svg"><g><path d="m272 362.302h-32v-74.302l10-16-10-16v-240c0-8.837 7.163-16 16-16 8.837 0 16 7.163 16 16v240l-10 16 10 16z" fill="#f1b0a2"/><path d="m263.726 1.986c-2.29-1.265-4.924-1.986-7.726-1.986-8.837 0-16 7.163-16 16v240l10 16-10 16v74.302h15.453v-346.302c0-6.034 3.341-11.288 8.273-14.014z" fill="#eb9c8d"/><path d="m288 394.302h-64v-35.302c0-3.866 3.134-7 7-7h50c3.866 0 7 3.134 7 7z" fill="#fe646f"/><path d="m224 359v35.302h30.906v-42.302h-23.906c-3.866 0-7 3.134-7 7z" fill="#e53950"/><path d="m240 256h32v32h-32z" fill="#fe646f"/><path d="m240 256h15.453v32h-15.453z" fill="#e53950"/><path d="m352 490.302h-192v-38.475c0-37.46 30.367-67.826 67.826-67.826h56.347c37.46 0 67.826 30.367 67.826 67.826v38.475z" fill="#fe646f"/><path d="m269.034 384h-41.208c-37.459 0-67.826 30.367-67.826 67.826v38.475h41.208v-38.475c0-37.459 30.367-67.826 67.826-67.826z" fill="#e53950"/><path d="m352 512h-192c-8.837 0-16-7.163-16-16 0-8.837 7.163-16 16-16h192c8.837 0 16 7.163 16 16 0 8.837-7.163 16-16 16z" fill="#fe646f"/><path d="m185.208 496c0-8.837 7.163-16 16-16h-41.208c-8.837 0-16 7.163-16 16 0 8.836 7.163 16 16 16h41.208c-8.837 0-16-7.164-16-16z" fill="#e53950"/></g></svg>