<svg id="Capa_1" enable-background="new 0 0 512 512" height="512" viewBox="0 0 512 512" width="512" xmlns="http://www.w3.org/2000/svg"><g><path d="m384.015 198.637-23.997 10.301h-207.949l-24.023-10.301-91.985-122.557c-2.39-3.184-1.788-7.759 1.435-10.096 17.686-12.822 42.561-11.265 58.501 4.675 17.667 17.667 46.31 17.667 63.977 0l.015-.015c17.667-17.667 46.31-17.667 63.977 0l.015.015c17.667 17.667 46.31 17.667 63.977 0l.015-.015c17.667-17.667 46.31-17.667 63.977 0l.015.015c17.667 17.667 46.31 17.667 63.977 0l.015-.015c15.935-15.935 40.799-17.497 58.485-4.687 3.223 2.335 3.827 6.908 1.44 10.093z" fill="#e9f1ff"/><g><path d="m256.033 209.452c-4.263 0-7.721-3.453-7.726-7.717l-.079-79.99c-.004-4.267 3.451-7.73 7.718-7.734h.008c4.264 0 7.721 3.453 7.725 7.717l.079 79.99c.004 4.267-3.451 7.73-7.718 7.734-.002 0-.004 0-.007 0z" fill="#d7e4f7"/></g><g><path d="m296.045 209.454c-.733 0-1.479-.106-2.217-.326-4.088-1.223-6.41-5.528-5.188-9.616l23.927-79.99c1.223-4.087 5.528-6.409 9.616-5.188 4.088 1.223 6.41 5.528 5.188 9.616l-23.927 79.99c-1.002 3.349-4.073 5.514-7.399 5.514z" fill="#d7e4f7"/></g><g><path d="m336.044 209.453c-1.351 0-2.72-.354-3.963-1.099-3.66-2.193-4.849-6.938-2.656-10.598l47.934-79.99c2.192-3.659 6.937-4.849 10.597-2.656s4.849 6.938 2.656 10.598l-47.934 79.99c-1.448 2.416-4.008 3.755-6.634 3.755z" fill="#d7e4f7"/></g><g><path d="m216.072 209.454c-3.321 0-6.39-2.159-7.395-5.502l-24.054-79.99c-1.229-4.086 1.087-8.394 5.173-9.624 4.084-1.224 8.394 1.087 9.623 5.173l24.054 79.99c1.229 4.086-1.087 8.394-5.173 9.624-.742.222-1.491.329-2.228.329z" fill="#d7e4f7"/></g><g><path d="m176.099 209.453c-2.623 0-5.181-1.336-6.63-3.749l-48.045-79.99c-2.197-3.658-1.013-8.403 2.645-10.6 3.658-2.195 8.404-1.012 10.6 2.646l48.045 79.99c2.197 3.658 1.013 8.403-2.645 10.6-1.245.747-2.617 1.103-3.97 1.103z" fill="#d7e4f7"/></g><path d="m31.966 412.309h64.053v35.086c0 3.982-3.228 7.21-7.21 7.21h-49.633c-3.982 0-7.21-3.228-7.21-7.21z" fill="#3e4f55"/><path d="m31.966 412.309v35.086c0 3.982 3.228 7.21 7.21 7.21h23.692v-42.297h-30.902z" fill="#303d42"/><path d="m415.95 412.309h64.053v35.086c0 3.982-3.228 7.21-7.21 7.21h-49.633c-3.982 0-7.21-3.228-7.21-7.21z" fill="#3e4f55"/><path d="m415.95 412.309v35.086c0 3.982 3.228 7.21 7.21 7.21h23.692v-42.297h-30.902z" fill="#303d42"/><path d="m480.065 400.914h-448.13v-170.345c0-17.636 14.296-31.932 31.932-31.932h384.266c17.636 0 31.932 14.296 31.932 31.932z" fill="#9cf8d2"/><path d="m98.889 380.313c-8.533 0-15.451-6.918-15.451-15.451v-134.294c0-17.635 14.296-31.932 31.932-31.932h-51.503c-17.636 0-31.932 14.296-31.932 31.932v170.346h448.13v-20.601z" fill="#91deb6"/><path d="m504.79 422.61h-497.58c-3.982 0-7.21-3.228-7.21-7.21v-17.575c0-3.982 3.228-7.21 7.21-7.21h497.58c3.982 0 7.21 3.228 7.21 7.21v17.575c0 3.982-3.228 7.21-7.21 7.21z" fill="#9cf8d2"/><g fill="#91deb6"><path d="m0 397.824v17.575c0 3.982 3.228 7.21 7.21 7.21h44.293v-31.996h-44.293c-3.982.001-7.21 3.229-7.21 7.211z"/><path d="m376.805 326.621h-241.61c-3.982 0-7.21-3.228-7.21-7.21v-49.571c0-3.982 3.228-7.21 7.21-7.21h241.61c3.982 0 7.21 3.228 7.21 7.21v49.571c0 3.982-3.228 7.21-7.21 7.21z"/></g></g></svg>