<svg id="Capa_1" enable-background="new 0 0 512 512" height="512" viewBox="0 0 512 512" width="512" xmlns="http://www.w3.org/2000/svg"><g><path d="m320 400 35.412 80 28.588 32-25.724-128.621c-3.649-18.246-19.669-31.379-38.276-31.379l-10.302 24z" fill="#d7e4f7"/><path d="m192 400-35.412 80-28.588 32 25.724-128.621c3.649-18.246 19.669-31.379 38.276-31.379l10.302 24z" fill="#d7e4f7"/><path d="m272 330.302h-32v-74.302l10.302-16.413-10.302-15.587v-208c0-8.837 7.163-16 16-16 8.837 0 16 7.163 16 16v208l-10.302 16 10.302 16z" fill="#f1b0a2"/><path d="m263.726 1.986c-2.29-1.265-4.924-1.986-7.726-1.986-8.837 0-16 7.163-16 16v314.302h15.453v-314.302c0-6.034 3.341-11.288 8.273-14.014z" fill="#eb9c8d"/><path d="m240 224h32v32h-32z" fill="#fe646f"/><path d="m240 224h15.453v32h-15.453z" fill="#e53950"/><path d="m304 352-19.498 10.302h-61.125l-15.377-10.302c0-17.673 14.327-32 32-32h32c17.673 0 32 14.327 32 32z" fill="#fe646f"/><path d="m270.906 320h-30.906c-17.673 0-32 14.327-32 32l15.377 10.302 15.529-10.302c0-17.673 14.327-32 32-32z" fill="#e53950"/><path d="m320 400-64 10.302-64-10.302v-48h128z" fill="#bed2ee"/><path d="m192 400-45.714 80 29.327 10.302h151.47l38.631-10.302-45.714-80z" fill="#e9f1ff"/><path d="m146.286 480-18.286 32h256l-18.286-32z" fill="#d7e4f7"/></g></svg>