<svg id="Capa_1" enable-background="new 0 0 512.004 512.004" height="512" viewBox="0 0 512.004 512.004" width="512" xmlns="http://www.w3.org/2000/svg"><g><g><g><path d="m480.019 258.364h-32.23v-170.283c0-8.715-7.09-15.805-15.805-15.805h-32.112c-8.715 0-15.805 7.09-15.805 15.805v32.171h-32.23v-32.171c0-26.486 21.549-48.035 48.035-48.035h32.112c26.486 0 48.035 21.549 48.035 48.035z" fill="#e9f1ff"/></g></g><g><g fill="#d7e4f7"><path d="m447.429 72.276h-15.445c8.715 0 15.805 7.09 15.805 15.805v170.283h15.445v-170.283c.001-8.715-7.089-15.805-15.805-15.805z"/><path d="m415.317 40.046h-15.445c-26.486 0-48.035 21.549-48.035 48.035v32.171h15.445v-32.171c0-26.486 21.549-48.035 48.035-48.035z"/></g></g><path d="m120.86 471.958h-49.553c-3.981 0-7.208-3.227-7.208-7.208v-56.761h63.969v56.761c0 3.981-3.227 7.208-7.208 7.208z" fill="#b3dafe"/><path d="m64.099 407.989v56.761c0 3.981 3.227 7.208 7.208 7.208h23.683v-63.969z" fill="#8ac9fe"/><path d="m440.705 471.958h-49.295c-3.981 0-7.208-3.227-7.208-7.208v-56.761h63.711v56.761c-.001 3.981-3.228 7.208-7.208 7.208z" fill="#b3dafe"/><path d="m384.202 407.989v56.761c0 3.981 3.227 7.208 7.208 7.208h23.683v-63.969z" fill="#8ac9fe"/><path d="m384.202 439.974h-256.393c-52.851 0-95.695-42.844-95.695-95.695v-112.204l95.953 37.68h351.829v74.524c.001 52.851-42.843 95.695-95.694 95.695z" fill="#e9f1ff"/><path d="m95.663 296.895c5.071 2.534 10.746 3.873 16.412 3.873h367.821v-31.013h-351.828l-95.953-37.68v112.204c0 52.851 42.844 95.695 95.695 95.695h51.485c-52.851 0-95.695-42.844-95.695-95.695v-39.928c-.001-6.197 6.52-10.228 12.063-7.456z" fill="#d7e4f7"/><path d="m340.691 389.391v-109.339h-169.248v109.339c0 3.981 3.227 7.208 7.208 7.208h154.832c3.98 0 7.208-3.228 7.208-7.208z" fill="#d7e4f7"/><path d="m512.004 264.062c0 8.9-7.21 16.11-16.12 16.11h-383.81c-2.5 0-4.97-.58-7.21-1.7l-95.95-47.98c-7.96-3.98-11.19-13.66-7.21-21.62 3.99-7.96 13.66-11.18 21.63-7.2l92.55 46.27h76.16l62.29 13.23 65.76-13.23h175.79c8.91 0 16.12 7.22 16.12 16.12z" fill="#b3dafe"/><path d="m340.694 247.942v32.23h-169.25v-32.23h20.6l62.29 13.23 65.76-13.23z" fill="#8ac9fe"/><path d="m495.889 264.729h-383.814c-2.502 0-4.969-.583-7.207-1.701l-95.953-47.977c-3.058-1.529-5.417-3.899-6.938-6.69-.092.169-.182.341-.269.515-3.98 7.96-.753 17.64 7.207 21.62l95.953 47.977c2.238 1.118 4.705 1.701 7.207 1.701h383.814c8.9 0 16.115-7.215 16.115-16.115 0-2.798-.713-5.43-1.968-7.723-2.735 5.002-8.045 8.393-14.147 8.393z" fill="#8ac9fe"/><path d="m367.706 104.137c17.529 0 31.739 14.21 31.739 31.739v9.029c0 3.981-3.227 7.208-7.208 7.208h-49.063c-3.981 0-7.208-3.227-7.208-7.208v-9.029c.001-17.529 14.211-31.739 31.74-31.739z" fill="#b3dafe"/><path d="m378.003 105.845c-3.229-1.107-6.693-1.708-10.297-1.708-17.529 0-31.739 14.21-31.739 31.739v9.03c0 3.981 3.227 7.208 7.208 7.208h13.386v-16.237c0-13.926 8.967-25.756 21.442-30.032z" fill="#8ac9fe"/><path d="m320.093 247.945v120.855c0 3.981-3.227 7.208-7.208 7.208h-113.636c-3.981 0-7.208-3.227-7.208-7.208v-120.855z" fill="#fee97d"/><path d="m192.037 247.945v120.852c0 3.981 3.227 7.208 7.208 7.208h13.386v-128.06z" fill="#fed402"/><g><path d="m192.041 336.302h128.052v15.445h-128.052z" fill="#fed402"/></g><path d="m192.041 336.302h20.589v15.445h-20.589z" fill="#fdb441"/><g fill="#b3dafe"><path d="m373.471 178.333c3.184 3.184 3.184 8.346 0 11.53-3.184 3.184-8.346 3.184-11.529 0-3.184-3.184-3.184-8.346 0-11.529 3.183-3.184 8.345-3.185 11.529-.001z"/><path d="m405.701 178.333c3.184 3.184 3.184 8.346 0 11.53-3.184 3.184-8.346 3.184-11.529 0-3.184-3.184-3.184-8.346 0-11.529 3.183-3.184 8.345-3.185 11.529-.001z"/><path d="m341.732 178.333c3.184 3.184 3.184 8.346 0 11.53-3.184 3.184-8.346 3.184-11.529 0-3.184-3.184-3.184-8.346 0-11.529 3.183-3.184 8.345-3.185 11.529-.001z"/><path d="m373.471 210.318c3.184 3.184 3.184 8.346 0 11.53-3.184 3.184-8.346 3.184-11.529 0-3.184-3.184-3.184-8.346 0-11.529 3.183-3.185 8.345-3.185 11.529-.001z"/><path d="m405.701 210.318c3.184 3.184 3.184 8.346 0 11.53-3.184 3.184-8.346 3.184-11.529 0-3.184-3.184-3.184-8.346 0-11.529 3.183-3.185 8.345-3.185 11.529-.001z"/><path d="m341.732 210.318c3.184 3.184 3.184 8.346 0 11.53-3.184 3.184-8.346 3.184-11.529 0-3.184-3.184-3.184-8.346 0-11.529 3.183-3.185 8.345-3.185 11.529-.001z"/></g></g></svg>