<svg id="Capa_1" enable-background="new 0 0 512 512" height="512" viewBox="0 0 512 512" width="512" xmlns="http://www.w3.org/2000/svg"><g><path d="m216 53.7h80v52.604h-80z" fill="#3e4f55"/><path d="m216 53.7h30.906v52.604h-30.906z" fill="#303d42"/><path d="m144 181.573h223.999v244.603h-223.999z" fill="#b3dafe"/><path d="m328.788 384h-145.576c-3.983 0-7.211-3.229-7.211-7.211v-56.788l10.302-16-10.302-16v-56.789c0-3.983 3.229-7.211 7.211-7.211h145.577c3.983 0 7.211 3.229 7.211 7.211v56.789l-10.302 16 10.302 16v56.788c0 3.983-3.229 7.211-7.212 7.211z" fill="#fee97d"/><path d="m368 181.573h-224v244.603h51.509v-42.176h-12.298c-3.983 0-7.211-3.229-7.211-7.211v-145.577c0-3.983 3.229-7.211 7.211-7.211h12.298c0-8.309 6.736-15.045 15.045-15.045h157.446z" fill="#8ac9fe"/><path d="m183.212 384h12.298v-63.999h-19.51v56.788c0 3.983 3.229 7.211 7.212 7.211z" fill="#fed402"/><path d="m195.51 224.001h-12.298c-3.983 0-7.211 3.229-7.211 7.211v56.789h19.51v-64z" fill="#fed402"/><path d="m319.995 7.211v49.583c0 3.983-3.229 7.211-7.211 7.211h-113.568c-3.983 0-7.211-3.229-7.211-7.211v-49.583c0-3.983 3.229-7.211 7.211-7.211h113.568c3.982 0 7.211 3.229 7.211 7.211z" fill="#3e4f55"/><path d="m192 7.213v49.577c0 3.983 3.229 7.211 7.211 7.211h17.064v-64h-17.064c-3.982.001-7.211 3.23-7.211 7.212z" fill="#303d42"/><path d="m379.543 512h-247.086c-2.731 0-5.228-1.543-6.45-3.986l-13.245-26.491c-.501-1.001-.761-2.105-.761-3.225v-28.595c0-1.12.261-2.224.761-3.225l13.245-26.491c1.222-2.443 3.719-3.986 6.45-3.986h247.085c2.731 0 5.228 1.543 6.45 3.986l13.245 26.491c.501 1.001.761 2.105.761 3.225v28.595c0 1.12-.261 2.224-.761 3.225l-13.245 26.491c-1.221 2.443-3.718 3.986-6.449 3.986z" fill="#b3dafe"/><path d="m163.51 448 16-32h-47.052c-2.731 0-5.228 1.543-6.45 3.986l-13.245 26.491c-.501 1.001-.761 2.105-.761 3.225v28.595c0 1.12.261 2.224.761 3.225l13.245 26.491c1.222 2.443 3.719 3.986 6.45 3.986h47.052l-16-32z" fill="#8ac9fe"/><path d="m369.249 181.573h-226.498c-2.727 0-5.221-1.539-6.445-3.976l-13.238-26.371c-.504-1.004-.766-2.112-.766-3.235l-10.302-4.553v-13.735c0-1.12.261-2.224.761-3.225l13.245-26.491c1.222-2.443 3.719-3.986 6.45-3.986h247.085c2.731 0 5.228 1.543 6.45 3.986l13.245 26.491c.501 1.001.761 2.105.761 3.225v13.735l-10.302 4.553c0 1.123-.262 2.231-.766 3.235l-13.238 26.371c-1.221 2.438-3.715 3.976-6.442 3.976z" fill="#e9f1ff"/><path d="m163.51 128.002 16-32h-47.052c-2.731 0-5.228 1.543-6.45 3.986l-13.245 26.491c-.501 1.001-.761 2.105-.761 3.225v13.735l10.302 4.553c0 1.123.262 2.231.766 3.235l13.238 26.371c1.224 2.437 3.718 3.976 6.445 3.976l36.758 10.302-16-31.874v-32z" fill="#d7e4f7"/><path d="m142.751 181.573 36.758 10.302h200.041c2.727 0 5.221-1.539 6.445-3.976l13.238-26.371c.504-1.004.766-2.112.766-3.235v-14.855c-7.611-11.417-24.388-11.417-32 0-7.611 11.417-24.388 11.417-32 0-7.611-11.417-24.388-11.417-32 0-7.611 11.417-24.388 11.417-32 0-7.611-11.417-24.388-11.417-32 0-7.611 11.417-24.388 11.417-32 0-7.612-11.417-24.388-11.417-32 0-7.612 11.417-24.388 11.417-32 0-7.612-11.417-24.388-11.417-32 0l10.302 4.553c0 1.123.262 2.231.766 3.235l13.238 26.371c1.225 2.438 3.719 3.976 6.446 3.976z" fill="#b3dafe"/><path d="m163.51 151.683c-7.171 1.313-14.97-1.435-19.51-8.244-7.612-11.417-24.388-11.417-32 0v14.855c0 1.123.262 2.231.766 3.235l13.238 26.371c1.224 2.437 3.718 3.976 6.445 3.976h47.06l-16-31.874v-8.319z" fill="#8ac9fe"/><g><g><path d="m216.276 0h15.453v64.005h-15.453z" fill="#303d42"/></g></g><g><g><path d="m280.271 0h15.453v64.005h-15.453z" fill="#303d42"/></g></g><g><g><path d="m248.335 0h15.453v64.005h-15.453z" fill="#303d42"/></g></g><path d="m176 288.001h159.999v32h-159.999z" fill="#e9f1ff"/><path d="m176 288.001h19.51v32h-19.51z" fill="#d7e4f7"/></g></svg>