<svg id="Capa_1" enable-background="new 0 0 512 512" height="512" viewBox="0 0 512 512" width="512" xmlns="http://www.w3.org/2000/svg"><g><path d="m192.004 88.268h-79.996c-4.267 0-7.726 3.459-7.726 7.726s3.459 7.726 7.726 7.726h24.272v24.272c0 4.267 3.459 7.726 7.726 7.726s7.726-3.459 7.726-7.726v-24.272h32.546v8.273c0 4.267 3.459 7.726 7.726 7.726s7.726-3.459 7.726-7.726v-15.999c0-4.267-3.458-7.726-7.726-7.726z" fill="#3e4f55"/><path d="m240.001 437.702h31.998v67.087c0 3.982-3.228 7.211-7.211 7.211h-17.576c-3.982 0-7.211-3.228-7.211-7.211z" fill="#d7e4f7"/><path d="m240.001 437.703v67.087c0 3.982 3.228 7.211 7.211 7.211h8.241v-74.297h-15.452z" fill="#bed2ee"/><path d="m280.787 448.004h-49.574c-3.982 0-7.211-3.228-7.211-7.211v-40.786h63.996v40.786c0 3.982-3.228 7.211-7.211 7.211z" fill="#b3dafe"/><path d="m224.002 400.007v40.786c0 3.982 3.228 7.211 7.211 7.211h23.693v-47.997z" fill="#8ac9fe"/><path d="m271.999 416.006h-31.998c-88.36 0-159.99-71.63-159.99-159.99l23.999-10.301h291.573l36.407 10.301c-.001 88.36-71.631 159.99-159.991 159.99z" fill="#e9f1ff"/><path d="m131.517 256.015-27.508-10.301-23.999 10.301c0 88.36 71.63 159.99 159.99 159.99h31.998c3.275 0 6.527-.099 9.754-.293-83.817-5.04-150.235-74.612-150.235-159.697z" fill="#d7e4f7"/><path d="m176.005 234.318h-63.996v-99.115c0-3.982 3.228-7.211 7.211-7.211h49.574c3.982 0 7.211 3.228 7.211 7.211z" fill="#9cf8d2"/><path d="m112.009 135.203v99.115h30.904v-106.326h-23.693c-3.983 0-7.211 3.229-7.211 7.211z" fill="#91deb6"/><path d="m287.998 21.697h32.03v52.57h-32.03z" fill="#d7e4f7"/><path d="m287.998 21.697h15.452v52.57h-15.452z" fill="#bed2ee"/><g><g><path d="m272.122 202.351h-32.244v-90.33c0-26.498 21.558-48.056 48.056-48.056h32.094c26.498 0 48.056 21.558 48.056 48.056v26.364h-32.244v-26.364c0-8.719-7.093-15.812-15.812-15.812h-32.094c-8.719 0-15.812 7.093-15.812 15.812z" fill="#e9f1ff"/></g></g><g><g fill="#d7e4f7"><path d="m303.386 63.965h-15.452c-26.498 0-48.056 21.558-48.056 48.056v90.33h15.452v-90.33c0-26.497 21.558-48.056 48.056-48.056z"/><path d="m335.48 96.209h-15.452c8.719 0 15.812 7.093 15.812 15.812v26.364h15.452v-26.364c0-8.719-7.093-15.812-15.812-15.812z"/></g></g><path d="m287.998 234.318h-63.996v-35.088c0-3.982 3.228-7.211 7.211-7.211h49.574c3.982 0 7.211 3.228 7.211 7.211z" fill="#d7e4f7"/><path d="m225.032 199.23v35.088h29.874v-42.299h-22.663c-3.983 0-7.211 3.229-7.211 7.211z" fill="#bed2ee"/><path d="m431.989 256.015h-351.978c-8.836 0-15.999-7.163-15.999-15.999 0-8.836 7.163-15.999 15.999-15.999h351.979c8.836 0 15.999 7.163 15.999 15.999-.001 8.836-7.164 15.999-16 15.999z" fill="#b3dafe"/><path d="m115.518 240.016c0-8.836 7.163-15.999 15.999-15.999h-51.506c-8.836 0-15.999 7.163-15.999 15.999s7.163 15.999 15.999 15.999h51.506c-8.836 0-15.999-7.163-15.999-15.999z" fill="#8ac9fe"/><path d="m376.781 128.084h-49.574c-3.982 0-7.211 3.228-7.211 7.211v17.576c0 3.982 3.228 7.211 7.211 7.211h49.574c3.982 0 7.211-3.228 7.211-7.211v-17.576c0-3.982-3.228-7.211-7.211-7.211z" fill="#b3dafe"/><path d="m319.996 135.295v17.576c0 3.982 3.228 7.211 7.211 7.211h23.693v-31.998h-23.693c-3.982 0-7.211 3.229-7.211 7.211z" fill="#8ac9fe"/><path d="m328.784 31.998h-49.574c-3.982 0-7.211-3.228-7.211-7.211v-17.576c0-3.982 3.228-7.211 7.211-7.211h49.574c3.982 0 7.211 3.228 7.211 7.211v17.576c0 3.983-3.228 7.211-7.211 7.211z" fill="#b3dafe"/><path d="m271.999 7.211v17.576c0 3.982 3.228 7.211 7.211 7.211h23.693v-31.998h-23.693c-3.983 0-7.211 3.228-7.211 7.211z" fill="#8ac9fe"/></g></svg>