<svg id="Capa_1" enable-background="new 0 0 512 512" height="512" viewBox="0 0 512 512" width="512" xmlns="http://www.w3.org/2000/svg"><g><g><g><path d="m303.954 90.502v-42.27c0-8.803-7.11-15.912-15.849-15.912h-64.21c-8.739 0-15.849 7.11-15.849 15.849v42.303l-32.318.064v-42.368c0-26.559 21.607-48.168 48.167-48.168h64.21c26.559 0 48.168 21.609 48.168 48.168v42.271z" fill="#e9f1ff"/></g></g><g><g fill="#d7e4f7"><path d="m319.442 90.472v-42.24c0-8.803-7.11-15.912-15.849-15.912h-15.488c8.739 0 15.849 7.11 15.849 15.912v42.271z"/><path d="m191.216 48.168c0-26.559 21.607-48.168 48.167-48.168h-15.488c-26.56 0-48.168 21.609-48.168 48.168v42.366l15.488-.031v-42.335z"/></g></g><path d="m432.4 127.189-42.434 10.325h-274.776l-35.59-10.325 12.992-19.07c11.923-17.501 31.729-27.973 52.906-27.973h220.995c21.169 0 40.969 10.465 52.894 27.956z" fill="#e9f1ff"/><path d="m197.124 80.145h-51.627c-21.177 0-40.983 10.472-52.906 27.973l-12.991 19.071 35.59 10.325 16.036-10.325 12.992-19.07c11.924-17.501 31.73-27.974 52.906-27.974z" fill="#d7e4f7"/><path d="m432.4 159.199-42.434-10.325h-274.776l-35.59 10.325 14.648 322.246c.776 17.095 14.862 30.555 31.975 30.555h259.555c17.113 0 31.198-13.46 31.975-30.555z" fill="#e9f1ff"/><path d="m432.4 159.199-42.434-10.325h-274.776l-35.59 10.325 14.648 322.246c.776 17.095 14.862 30.555 31.975 30.555h30.976c-17.113 0-31.198-13.46-31.975-30.555l-12.97-285.341c-.401-8.821 6.642-16.191 15.472-16.191h303.734z" fill="#d7e4f7"/><g fill="#bed2ee"><path d="m144.826 467.715c-7.988 0-14.54-6.326-14.821-14.309l-7.962-226.648c-.295-8.389 6.426-15.35 14.821-15.35h1.875c8.035 0 14.609 6.399 14.824 14.432l6.087 226.648c.224 8.343-6.478 15.227-14.824 15.227z"/><path d="m218.942 467.715c-8.11 0-14.717-6.512-14.835-14.621l-3.279-226.636c-.12-8.277 6.557-15.051 14.835-15.051h1.875c8.158 0 14.785 6.586 14.836 14.744l1.404 226.636c.051 8.23-6.607 14.928-14.836 14.928z"/><path d="m293.069 467.715c-8.23 0-14.887-6.699-14.836-14.928l1.405-226.636c.051-8.158 6.678-14.744 14.836-14.744h1.875c8.278 0 14.954 6.774 14.835 15.051l-3.279 226.636c-.119 8.109-6.726 14.621-14.836 14.621z"/><path d="m367.175 467.715c-8.346 0-15.048-6.885-14.824-15.228l6.087-226.648c.216-8.032 6.789-14.432 14.824-14.432h1.875c8.394 0 15.115 6.961 14.821 15.35l-7.962 226.648c-.281 7.984-6.834 14.31-14.821 14.31z"/></g><path d="m448.437 159.262h-384.874c-8.857 0-16.036-7.18-16.036-16.036 0-8.857 7.18-16.036 16.036-16.036h384.873c8.857 0 16.036 7.18 16.036 16.036.001 8.856-7.179 16.036-16.035 16.036z" fill="#b3dafe"/><path d="m99.154 143.226c0-8.857 7.18-16.037 16.036-16.037h-51.627c-8.857 0-16.036 7.18-16.036 16.037s7.18 16.037 16.036 16.037h51.627c-8.857-.001-16.036-7.181-16.036-16.037z" fill="#8ac9fe"/></g></svg>