<svg id="Capa_1" enable-background="new 0 0 512 512" height="512" viewBox="0 0 512 512" width="512" xmlns="http://www.w3.org/2000/svg"><g><path d="m376.229 512h-130.509l-24.321-10.44-24.321 10.44h-130.509c-4.036 0-7.308-3.272-7.308-7.308v-354.435c0-4.036 3.272-7.308 7.308-7.308h316.968v361.743c0 4.036-3.272 7.308-7.308 7.308z" fill="#fee97d"/><path d="m197.078 414.469h48.641v97.531h-48.641z" fill="#fed402"/><path d="m411.552 481.506h-130.51l-24.321-10.44-24.321 10.44h-130.51c-4.036 0-7.308-3.272-7.308-7.308v-354.435c0-4.036 3.272-7.308 7.308-7.308h316.97v361.743c0 4.036-3.272 7.308-7.308 7.308z" fill="#9cf8d2"/><path d="m232.401 383.975h48.641v97.531h-48.641z" fill="#91deb6"/><path d="m443.98 448.83h-109.631l-20.879-10.44h-48.641l-20.879 10.44h-109.63c-4.036 0-7.308-3.272-7.308-7.308v-358.301c0-4.036 3.272-7.308 7.308-7.308h309.66c4.036 0 7.308 3.272 7.308 7.308v106.184l-10.44 24.606v80.884l10.44 24.222v122.406c-.001 4.036-3.273 7.307-7.308 7.307z" fill="#b3dafe"/><path d="m362.435 184.388 61.937-108.475h-113.689l-8.084 11.549h-26.899l-8.084-11.549h-113.69l61.939 108.475c2.529 4.428 8.701 4.971 11.963 1.051l16.122-19.372v282.763h90.399v-282.764l16.123 19.373c3.262 3.92 9.435 3.377 11.963-1.051z" fill="#8ac9fe"/><path d="m127.011 83.221v358.302c0 4.036 3.272 7.308 7.308 7.308h24.011v-372.918h-24.011c-4.036 0-7.308 3.272-7.308 7.308z" fill="#8ac9fe"/><path d="m302.599 87.462 8.084-11.549h-43.068l8.085 11.549z" fill="#b3dafe"/><path d="m264.829 108.341 24.32 10.439 24.321-10.439 38.814-30.095 17.934-50.974h-162.138l19.302 52.927z" fill="#bed2ee"/><path d="m451.291 189.405v129.711h-89.978c-4.036 0-7.308-3.272-7.308-7.308v-115.096c0-4.036 3.272-7.308 7.308-7.308h89.978z" fill="#e9f1ff"/><path d="m354.004 196.717v115.095c0 4.036 3.272 7.308 7.308 7.308h24.011v-129.71h-24.011c-4.036 0-7.308 3.271-7.308 7.307z" fill="#d7e4f7"/><g><g><path d="m354.005 214.011h97.286v15.659h-97.286z" fill="#d7e4f7"/></g></g><path d="m354.005 214.011h31.318v15.659h-31.318z" fill="#bed2ee"/><g><path d="m64.168 2.649c-.955-3.531-5.964-3.531-6.919 0-4.711 15.973-15.875 32.053-30.122 39.24-2.526 1.274-2.616 4.819-.186 6.268 14.372 8.571 25.046 22.348 29.681 38.626l.666 2.132c1.048 3.354 5.794 3.354 6.842 0l.666-2.132c4.635-16.278 15.309-30.055 29.681-38.626 2.43-1.449 2.34-4.994-.186-6.268-14.248-7.187-25.412-23.268-30.123-39.24z" fill="#b3dafe"/><path d="m57.249 2.649c-4.711 15.973-15.875 32.053-30.122 39.24-2.526 1.274-2.616 4.819-.186 6.268 14.372 8.571 25.046 22.348 29.681 38.626l.666 2.132c.524 1.677 1.972 2.515 3.421 2.515v-91.43c-1.492 0-2.983.883-3.46 2.649z" fill="#8ac9fe"/></g><g><path d="m454.751 373.336c-.955-3.531-5.964-3.531-6.919 0-4.711 15.973-15.875 32.053-30.122 39.24-2.526 1.274-2.616 4.819-.186 6.268 14.372 8.571 25.046 22.348 29.681 38.626l.666 2.132c1.048 3.354 5.794 3.354 6.842 0l.666-2.132c4.635-16.278 15.309-30.055 29.681-38.626 2.43-1.449 2.34-4.994-.186-6.268-14.248-7.187-25.412-23.267-30.123-39.24z" fill="#b3dafe"/><path d="m447.832 373.336c-4.711 15.973-15.875 32.053-30.122 39.24-2.526 1.274-2.616 4.819-.186 6.268 14.372 8.571 25.046 22.348 29.681 38.626l.666 2.132c.524 1.677 1.972 2.515 3.421 2.515v-91.431c-1.492.001-2.983.884-3.46 2.65z" fill="#8ac9fe"/></g><path d="m370.218 27.272 30.111 48.641-41.101 71.984c-2.529 4.428-8.701 4.971-11.963 1.051l-33.795-40.607z" fill="#e9f1ff"/><path d="m208.08 27.272-30.111 48.641 41.101 71.984c2.529 4.428 8.701 4.971 11.963 1.051l33.795-40.607z" fill="#e9f1ff"/><path d="m264.829 108.341h48.641v340.49h-48.641z" fill="#e9f1ff"/><g fill="#bed2ee"><path d="m294.994 151.201c3.228 3.228 3.228 8.461 0 11.689-3.228 3.228-8.461 3.228-11.689 0-3.228-3.228-3.228-8.461 0-11.689 3.228-3.228 8.461-3.228 11.689 0z"/><path d="m294.994 280.784c3.228 3.228 3.228 8.461 0 11.689-3.228 3.228-8.461 3.228-11.689 0-3.228-3.228-3.228-8.461 0-11.689 3.228-3.228 8.461-3.228 11.689 0z"/><path d="m294.994 215.993c3.228 3.228 3.228 8.461 0 11.689-3.228 3.228-8.461 3.228-11.689 0-3.228-3.228-3.228-8.461 0-11.689 3.228-3.228 8.461-3.228 11.689 0z"/><path d="m294.994 345.576c3.228 3.228 3.228 8.461 0 11.689-3.228 3.228-8.461 3.228-11.689 0-3.228-3.228-3.228-8.461 0-11.689 3.228-3.228 8.461-3.228 11.689 0z"/><path d="m294.994 410.558c3.228 3.228 3.228 8.461 0 11.689-3.228 3.228-8.461 3.228-11.689 0-3.228-3.228-3.228-8.461 0-11.689 3.228-3.228 8.461-3.228 11.689 0z"/></g></g></svg>