<svg id="Capa_1" enable-background="new 0 0 512 512" height="512" viewBox="0 0 512 512" width="512" xmlns="http://www.w3.org/2000/svg"><g><circle cx="442.374" cy="325.626" fill="#e9f1ff" r="15.531"/><path d="m395.835 350.265c0-23.573-20.82-40.169-46.553-40.169-15.522 0-29.262 6.331-37.729 16.056-22.825-9.03-50.626 2.964-54.89 23.756-28.907-5.276-47.171 15.663-47.171 37.844l50 10h143.902l23.36-10c.184-20.782-8.19-37.487-30.919-37.487z" fill="#e9f1ff"/><path d="m307.731 346.115c6.356-17.598 30.17-27.522 50.945-20.983 1.756.553 3.65.098 4.958-1.197 3.082-3.051 6.716-5.7 10.774-7.842-7.245-3.849-15.868-5.997-25.126-5.997-15.522 0-29.262 6.331-37.729 16.057-22.825-9.03-50.626 2.964-54.89 23.756-28.907-5.276-47.171 15.663-47.171 37.844l50 10v-10c0-21.165 16.63-41.199 43.267-38.406 2.205.229 4.219-1.147 4.972-3.232z" fill="#d7e4f7"/><path d="m473.44 61.098v140.84l-10 7.5 10 7.5v16.53c0 3.86-3.14 7-7 7h-48.13c-3.86 0-7-3.14-7-7v-16.53l10-7.5-10-7.5v-54.75c0-4.26-1.73-8.11-4.51-10.9-2.79-2.78-6.64-4.51-10.89-4.51-8.51 0-15.41 6.9-15.41 15.41v54.75l-10 7.5 10 7.5v16.53c0 3.86-3.13 7-7 7h-48.38c-3.86 0-7-3.14-7-7v-16.53l10-7.5-10-7.5v-140.84c0-3.87 3.14-7 7-7h141.32c3.86 0 7 3.13 7 7z" fill="#b3dafe"/><path d="m338.125 54.094h-13c-3.866 0-7 3.134-7 7v140.844l10 7.5-10 7.5v16.529c0 3.866 3.134 7 7 7h13z" fill="#8ac9fe"/><path d="m416.697 131.799c-4.124-.206-7.915 1.21-10.791 3.667 3.308 2.826 5.406 7.027 5.406 11.719v54.753l10 7.5-10 7.5v16.529c0 3.866 3.134 7 7 7h13v-92.881c-.001-8.271-6.354-15.374-14.615-15.787z" fill="#8ac9fe"/><path d="m54.095 54.094-41.643 41.643c-2.734 2.734-2.734 7.166 0 9.899l41.644 41.644 10-46.593z" fill="#fee97d"/><path d="m240.469 54.094 41.644 41.644c2.734 2.734 2.734 7.166 0 9.899l-41.644 41.644-10-46.593z" fill="#fed402"/><path d="m240.47 54.098v194.4l-10 7.5 10 7.5v16.56c0 3.87-3.14 7-7 7h-172.37c-3.87 0-7-3.13-7-7v-16.56l10-7.5-10-7.5v-194.4h62.12l31.065 10 31.059-10z" fill="#fee97d"/><path d="m74.1 280.058v-16.56l10-7.5-10-7.5v-194.4h-20v194.4l10 7.5-10 7.5v16.56c0 3.87 3.13 7 7 7h20c-3.87 0-7-3.13-7-7z" fill="#fed402"/><path d="m116.22 54.094h62.125v15.531c0 17.155-13.907 31.062-31.062 31.062-17.155 0-31.062-13.907-31.062-31.062v-15.531z" fill="#fed402"/><g><g><path d="m504.498 30.531h-496.996c-4.142 0-7.5-3.357-7.5-7.5s3.358-7.5 7.5-7.5h496.996c4.143 0 7.5 3.357 7.5 7.5s-3.357 7.5-7.5 7.5z" fill="#e9f1ff"/></g></g><g><g><path d="m86.495 77.125c-4.142 0-7.5-3.357-7.5-7.5v-62.125c0-4.143 3.358-7.5 7.5-7.5s7.5 3.357 7.5 7.5v62.125c0 4.143-3.358 7.5-7.5 7.5z" fill="#d7e4f7"/></g></g><g><g><path d="m209.407 77.125c-4.142 0-7.5-3.357-7.5-7.5v-62.125c0-4.143 3.358-7.5 7.5-7.5s7.5 3.357 7.5 7.5v62.125c0 4.143-3.358 7.5-7.5 7.5z" fill="#d7e4f7"/></g></g><g><path d="m54.1 248.498h186.37v15h-186.37z" fill="#e9f1ff"/></g><path d="m54.1 248.498h20v15h-20z" fill="#d7e4f7"/><g><g><path d="m349.187 77.125c-4.143 0-7.5-3.357-7.5-7.5v-62.125c0-4.143 3.357-7.5 7.5-7.5s7.5 3.357 7.5 7.5v62.125c0 4.143-3.358 7.5-7.5 7.5z" fill="#d7e4f7"/></g></g><g><g><path d="m442.437 77.125c-4.143 0-7.5-3.357-7.5-7.5v-62.125c0-4.143 3.357-7.5 7.5-7.5s7.5 3.357 7.5 7.5v62.125c0 4.143-3.358 7.5-7.5 7.5z" fill="#d7e4f7"/></g></g><g fill="#e9f1ff"><path d="m416.91 288.936c3.092 3.092 3.092 8.105 0 11.197-3.092 3.092-8.105 3.092-11.197 0-3.092-3.092-3.092-8.105 0-11.197 3.092-3.092 8.105-3.092 11.197 0z"/><path d="m230.536 351.09c3.092 3.092 3.092 8.105 0 11.197-3.092 3.092-8.105 3.092-11.197 0-3.092-3.092-3.092-8.105 0-11.197 3.092-3.092 8.105-3.092 11.197 0z"/><path d="m479.034 351.09c3.092 3.092 3.092 8.105 0 11.197-3.092 3.092-8.105 3.092-11.197 0-3.092-3.092-3.092-8.105 0-11.197 3.092-3.092 8.105-3.092 11.197 0z"/><path d="m199.474 335.544c3.092 3.092 3.092 8.105 0 11.197-3.092 3.092-8.105 3.092-11.197 0-3.092-3.092-3.092-8.105 0-11.197 3.092-3.092 8.105-3.092 11.197 0z"/></g><g><g><path d="m318.12 201.938h62.38v15h-62.38z" fill="#e9f1ff"/></g></g><path d="m318.12 201.938h.005v15h-.005z" fill="#e9f1ff"/><path d="m318.125 201.938h20v15h-20z" fill="#d7e4f7"/><g><g><path d="m411.31 201.938h62.13v15h-62.13z" fill="#e9f1ff"/></g></g><path d="m411.31 201.938h.001v15h-.001z" fill="#e9f1ff"/><path d="m411.311 201.938h20v15h-20z" fill="#d7e4f7"/><path d="m442.374 418.813-31.062-10h-186.374l-31.062 10 11.214 67.283c2.491 14.948 15.424 25.904 30.578 25.904h164.264c15.044 0 27.917-10.802 30.529-25.618z" fill="#fe646f"/><path d="m442.374 418.813-31.062-10h-186.374l-31.062 10 11.214 67.283c2.491 14.948 15.424 25.904 30.578 25.904h50c-15.154 0-28.087-10.956-30.578-25.904l-4.969-29.817c-1.524-9.143 5.527-17.466 14.796-17.466h173.932z" fill="#e53950"/><path d="m442.373 418.814h-248.497c-8.578 0-15.531-6.954-15.531-15.531 0-8.578 6.954-15.531 15.531-15.531h248.498c8.578 0 15.531 6.954 15.531 15.531 0 8.577-6.954 15.531-15.532 15.531z" fill="#fe646f"/><path d="m228.344 403.282c0-8.578 6.954-15.531 15.531-15.531h-50c-8.578 0-15.531 6.954-15.531 15.531 0 8.578 6.954 15.531 15.531 15.531h50c-8.577.001-15.531-6.953-15.531-15.531z" fill="#e53950"/></g></svg>