<svg id="Capa_1" enable-background="new 0 0 512 512" height="512" viewBox="0 0 512 512" width="512" xmlns="http://www.w3.org/2000/svg"><g><circle cx="205.687" cy="64.035" fill="#b3dafe" r="16.009"/><circle cx="285.731" cy="16.009" fill="#b3dafe" r="16.009"/><path d="m394.417 114.091c0-29.157-21.46-49.685-47.984-49.685-15.999 0-30.162 7.83-38.89 19.86-23.527-11.169-52.182 3.666-56.578 29.383-29.795-6.526-48.621 19.373-48.621 46.809l27.356 10.308h164.764l31.823-10.308c.19-25.704-8.441-46.367-31.87-46.367z" fill="#b3dafe"/><path d="m281.976 109.266c3.543-12.133 12.661-21.356 23.741-25.81-23.16-9.588-50.469 5.138-54.752 30.194-29.795-6.526-48.621 19.373-48.621 46.809l27.356 10.308h30l-27.356-10.308c0-26.044 16.964-50.703 44.173-47.555 2.476.285 4.76-1.245 5.459-3.638z" fill="#8ac9fe"/><path d="m178.243 192.135 35.529-10.308h212.518l24.101 10.308-15.631 281.682c-.212 3.824-3.375 6.815-7.204 6.815h-232.1z" fill="#fe646f"/><path d="m262.603 212.75h186.644l1.144-20.615-24.101-10.308h-212.518l-35.529 10.308 17.213 288.497h50.307l-14.028-235.118c-1.06-17.77 13.066-32.764 30.868-32.764z" fill="#e53950"/><g fill="#d7e4f7"><path d="m61.609 431.957 14.914-10.307 13.101 10.307 5.077 34.868-17.084 45.175h-23.216c-4.553 0-7.968-4.166-7.075-8.63z"/><path d="m117.639 431.957 15.348-10.308 12.667 10.308 8.565 34.868-12.567 45.175h-32.017l-5.79-45.175z"/><path d="m173.67 431.957 14.333-10.308 13.682 10.308 11.924 32.326-7.922 47.717h-32.017l-10.308-47.717z"/><path d="m229.7 431.957 13.16-10.308 14.855 10.308 15.538 34.868-3.531 45.175h-32.018l-14.825-45.175z"/></g><path d="m257.715 431.957 16.58-10.307 11.435 10.307 14.283 71.413c.893 4.465-2.522 8.63-7.075 8.63h-23.216z" fill="#e9f1ff"/><path d="m77.617 351.464v58.764h32.017v-43.208c0-8.539 6.922-15.461 15.461-15.461h97.147c8.539 0 15.461 6.922 15.461 15.461v43.207h32.017v-58.764c0-17.647-14.306-31.953-31.953-31.953h-128.196c-17.648 0-31.954 14.306-31.954 31.954z" fill="#9cf8d2"/><g fill="#91deb6"><path d="m125.032 319.51h-15.461c-17.647 0-31.953 14.306-31.953 31.953v58.764h15.461v-58.764c0-17.647 14.306-31.953 31.953-31.953z"/><path d="m237.704 351.559h-15.461c8.539 0 15.461 6.922 15.461 15.461v43.207h15.461v-43.207c.001-8.539-6.922-15.461-15.461-15.461z"/></g><path d="m459.185 192.135h-152.872l-16.009 2.552-16.009-2.552h-104.845c-3.985 0-7.215-3.23-7.215-7.215v-17.247c0-3.985 3.23-7.215 7.215-7.215h289.735c3.985 0 7.215 3.23 7.215 7.215v17.247c0 3.985-3.23 7.215-7.215 7.215z" fill="#fe646f"/><path d="m162.235 167.674v17.246c0 3.985 3.23 7.215 7.215 7.215h44.322v-31.677h-44.322c-3.985 0-7.215 3.231-7.215 7.216z" fill="#e53950"/><path d="m145.654 431.957 16.275-10.308 11.741 10.308v80.043h-32.018z" fill="#e9f1ff"/><path d="m201.685 431.957 14.567-10.308 13.448 10.308 8.004 80.043h-32.017z" fill="#e9f1ff"/><path d="m89.624 431.957 11.701-10.308 16.314 10.308-8.004 80.043h-32.018z" fill="#e9f1ff"/><path d="m294.524 431.957h-241.709c-3.985 0-7.215-3.23-7.215-7.215v-17.587c0-3.985 3.23-7.215 7.215-7.215h241.709c3.985 0 7.215 3.23 7.215 7.215v17.587c0 3.984-3.23 7.215-7.215 7.215z" fill="#9cf8d2"/><path d="m45.6 407.155v17.587c0 3.985 3.23 7.215 7.215 7.215h23.707v-32.017h-23.707c-3.985-.001-7.215 3.23-7.215 7.215z" fill="#91deb6"/><path d="m438.956 344.827h-20.593c-66.349 0-120.328-53.979-120.328-120.328h4.372c2.157 0 3.906-1.749 3.906-3.906v-28.458h-32.017v28.458c0 2.157 1.749 3.906 3.906 3.906h4.373c0 74.874 60.915 135.789 135.789 135.789h20.593c4.27 0 7.731-3.461 7.731-7.73-.001-4.271-3.462-7.731-7.732-7.731z" fill="#e9f1ff"/></g></svg>