<svg id="Capa_1" enable-background="new 0 0 512 512" height="512" viewBox="0 0 512 512" width="512" xmlns="http://www.w3.org/2000/svg"><g><path d="m512 50.332c0-5.506-5.955-8.951-10.728-6.206l-169.898 97.693c-29.092 15.82-27.323-17.125-78.307 6.917-32.44 15.297-70.158 22.043-102.912 22.124-29.674.074-31.822 16.29-17.291 24.92 18.355 10.9 39.377 11.011 59.314 11.18 7.165.061 9.838 9.343 3.657 12.967l.063.109-98.782 57.032c-7.61 4.394-10.218 14.125-5.824 21.736l.001.002c4.394 7.61 14.125 10.217 21.735 5.822l-27.56 15.912c-7.61 4.394-10.218 14.125-5.824 21.736 4.394 7.61 14.125 10.218 21.736 5.824l13.78-7.956c-7.61 4.394-10.218 14.125-5.824 21.736 4.394 7.61 14.125 10.218 21.736 5.824l41.34-23.867c-7.61 4.394-10.218 14.125-5.824 21.736 4.394 7.61 14.125 10.218 21.736 5.824l96.459-55.691 65.661-37.91c7.396-4.27 13.324-10.887 16.845-19.379 3.94-9.501 11.259-14.266 19.805-20.092l121.327-70.048c2.215-1.279 3.58-3.642 3.58-6.2v-111.745z" fill="#f1b0a2"/><path d="m367.288 237.96c-3.521 8.492-9.449 15.11-16.845 19.38l-65.661 37.91-96.459 55.691c-6.795 3.923-15.282 2.264-20.149-3.554-4.176 4.979-5.024 12.231-1.587 18.185 4.394 7.61 14.125 10.218 21.736 5.824l96.459-55.691 65.661-37.91c7.396-4.27 13.324-10.887 16.845-19.38 3.94-9.501 11.259-14.266 19.805-20.091l121.327-70.048c2.215-1.279 3.58-3.642 3.58-6.2v-16.322l-124.906 72.115c-8.546 5.825-15.866 10.59-19.806 20.091z" fill="#eb9c8d"/><path d="m132.864 195.78c18.355 10.9 39.377 11.011 59.314 11.18 7.165.061 9.838 9.342 3.657 12.967l.063.109-98.782 57.032c-7.61 4.394-10.218 14.125-5.824 21.736 4.394 7.611 14.125 10.218 21.736 5.824l-27.56 15.912c-7.61 4.394-10.218 14.125-5.824 21.736 4.394 7.61 14.125 10.218 21.736 5.824l13.78-7.956c-7.61 4.394-10.218 14.125-5.824 21.736s14.125 10.218 21.736 5.824l41.34-23.867c-7.611 4.394-10.218 14.125-5.824 21.736 4.394 7.61 14.125 10.218 21.736 5.824l96.459-55.691 65.661-37.91c7.198-4.156 13.006-10.536 16.557-18.703-5.626-1.276-12.021-2.256-19.349-2.865-23.56-1.959-49.415-9.14-73.314-20.169-11.06-33.529-42.684-57.795-79.87-57.795-13.075 0-25.712 2.96-37.199 8.648-9.618-5.054-20.276-8.025-31.19-8.637-4.273 5.427-1.372 12.661 6.785 17.505z" fill="#eb9c8d"/><circle cx="194.468" cy="119.375" fill="#e9f1ff" r="15.885"/><circle cx="106.941" cy="111.432" fill="#e9f1ff" r="23.827"/><path d="m103.569 111.432c0-9.499 5.558-17.699 13.599-21.526-3.099-1.475-6.567-2.301-10.228-2.301-13.159 0-23.827 10.668-23.827 23.827s10.668 23.827 23.827 23.827c3.661 0 7.128-.826 10.228-2.301-8.041-3.827-13.599-12.027-13.599-21.526z" fill="#d7e4f7"/><circle cx="35.459" cy="182.913" fill="#e9f1ff" r="15.885"/><path d="m289.614 325.876c0-21.597-14.367-39.839-34.065-45.689 1.652-5.663 2.539-11.653 2.539-17.85 0-35.136-28.483-63.62-63.62-63.62-14.069 0-27.072 4.567-37.606 12.3-9.557-7.758-21.739-12.408-35.007-12.408-30.046 0-54.524 23.841-55.549 53.637-18.284 9.102-30.846 27.978-30.846 49.788 0 4.668.575 9.201 1.659 13.533-21.906 10.051-37.119 32.176-37.119 57.855 0 35.136 28.484 63.62 63.62 63.62 3.94 0 7.796-.358 11.537-1.044 10.846 19.583 31.72 32.84 55.691 32.84 23.684 0 44.346-12.942 55.298-32.14 35.729-3.449 64.536-30.57 70.545-65.488 19.109-6.206 32.923-24.157 32.923-45.334z" fill="#e9f1ff"/><circle cx="160.692" cy="262.337" fill="#d7e4f7" r="15.885"/><path d="m504.841 421.211h-87.608c-10.314.772-19.035 1.239-27.198 7.497-7.296 5.594-15.738 8.361-24.278 8.361h-75.819-111.382c-8.788 0-15.912-7.124-15.912-15.912 0-8.788 7.124-15.912 15.912-15.912h-47.735c-8.788 0-15.912-7.124-15.912-15.912 0-8.788 7.124-15.912 15.912-15.912h-15.911c-8.788 0-15.912-7.124-15.912-15.912 0-8.788 7.124-15.912 15.912-15.912h31.823c-8.787.001-15.912-7.122-15.912-15.91v-.002c0-8.788 7.124-15.912 15.912-15.912h114.063v-.126c7.165-.048 9.491-9.423 3.316-13.058-17.182-10.115-35.332-20.722-45.777-39.339-8.27-14.739 1.699-27.709 27.434-12.936 28.406 16.306 64.444 29.324 100.186 32.296 56.175 4.671 38.171 32.318 71.275 33.163h87.61c3.954 0 7.159 3.205 7.159 7.159v97.117c.001 3.956-3.204 7.162-7.158 7.162z" fill="#f1b0a2"/><g fill="#eb9c8d"><path d="m260.454 294.434h.343v-.126c7.165-.048 9.491-9.423 3.316-13.058-17.182-10.115-35.332-20.722-45.777-39.339-.172-.307-.337-.614-.493-.919-3.254 3.581-3.161 9.748.493 16.26 9.706 17.3 26.065 27.683 42.118 37.182z"/><path d="m390.035 413.366c-7.296 5.594-15.738 8.361-24.278 8.361h-75.819-111.382c-6.007 0-11.235-3.328-13.944-8.241-1.339 2.428-2.062 5.244-1.958 8.236.299 8.638 7.695 15.347 16.339 15.347h110.945 75.819c8.54 0 16.982-2.767 24.278-8.361 8.162-6.258 16.884-6.725 27.198-7.497h87.608c3.954 0 7.159-3.205 7.159-7.159v-8.182h-94.767c-10.314.771-19.036 1.238-27.198 7.496z"/><path d="m258.697 389.895h-143.777c.29 8.354 7.02 15.072 15.379 15.341h128.398c8.54 0 8.54-15.341 0-15.341z"/><path d="m258.697 358.076h-159.689c.294 8.404 7.104 15.15 15.534 15.341h144.155c8.54 0 8.54-15.341 0-15.341z"/><path d="m146.733 341.599h111.964c8.54 0 8.54-15.341 0-15.341h-127.865c.3 8.523 7.304 15.341 15.901 15.341z"/></g><circle cx="160.692" cy="262.337" fill="#d7e4f7" r="15.885"/><circle cx="51.344" cy="373.422" fill="#d7e4f7" r="15.885"/></g></svg>