<svg id="Capa_1" enable-background="new 0 0 512 512" height="512" viewBox="0 0 512 512" width="512" xmlns="http://www.w3.org/2000/svg"><g><path d="m248.13 273.969-6.556-2.716c-60.648-25.121-89.448-94.651-64.327-155.299 1.5-3.621 5.651-5.34 9.272-3.84 60.648 25.121 89.448 94.651 64.327 155.299z" fill="#fed402"/><path d="m265.621 273.969 6.556-2.716c60.648-25.121 89.448-94.651 64.327-155.299-1.5-3.621-5.651-5.34-9.272-3.84-60.648 25.121-89.448 94.651-64.327 155.299z" fill="#fdb441"/><path d="m232.383 307.299h47.234v62.999l-10.138 15.745 10.138 15.745v86.596c0 13.042-10.574 23.616-23.617 23.616-13.043 0-23.617-10.574-23.617-23.617v-86.596l10.137-15.745-10.137-15.745z" fill="#f1b0a2"/><path d="m252.658 488.383v-181.084h-20.275v62.999l10.137 15.745-10.137 15.745v86.596c0 13.042 10.574 23.616 23.617 23.616 3.628 0 7.066-.819 10.137-2.281-7.97-3.794-13.479-11.921-13.479-21.336z" fill="#eb9c8d"/><path d="m232.383 370.298h47.234v31.489h-47.234z" fill="#fe646f"/><path d="m232.383 370.298h20.275v31.49h-20.275z" fill="#e53950"/><path d="m287.489 275.81h-62.979v32.028c0 8.398 6.808 15.206 15.206 15.206h32.566c8.398 0 15.206-6.808 15.206-15.206v-32.028z" fill="#fe646f"/><path d="m244.786 307.837v-32.027h-20.275v32.028c0 8.398 6.808 15.206 15.206 15.206h20.275c-8.398 0-15.206-6.808-15.206-15.207z" fill="#e53950"/><path d="m256 280.749-5.018-5.018c-55.114-55.114-55.114-144.47 0-199.584 2.771-2.771 7.264-2.771 10.036 0 55.114 55.114 55.114 144.47 0 199.584z" fill="#fed402"/><path d="m271.206 87.483c-3.156-3.915-6.552-7.7-10.188-11.336-2.771-2.771-7.264-2.771-10.036 0-55.114 55.113-55.114 144.47 0 199.584l5.018 5.018 5.018-5.018c3.636-3.636 7.032-7.421 10.188-11.336-41.528-51.505-41.528-125.407 0-176.912z" fill="#fdb441"/><path d="m256 291.585v-7.096c0-65.645 53.216-118.861 118.861-118.861 3.919 0 7.096 3.177 7.096 7.096 0 65.645-53.216 118.861-118.861 118.861z" fill="#fee97d"/><path d="m286.413 284.488c0-57.101 40.265-104.797 93.951-116.246-1.301-1.596-3.283-2.615-5.502-2.615-65.646 0-118.862 53.216-118.862 118.861v7.096h7.096c7.98 0 15.777-.787 23.316-2.286v-4.81z" fill="#fed402"/><path d="m256 291.585v-7.096c0-65.645-53.216-118.861-118.861-118.861-3.919 0-7.096 3.177-7.096 7.096 0 65.645 53.216 118.861 118.861 118.861z" fill="#fee97d"/><path d="m160.455 172.724c0-1.7.598-3.26 1.594-4.481-8.033-1.713-16.366-2.615-24.91-2.615-3.919 0-7.096 3.177-7.096 7.096 0 65.645 53.216 118.861 118.861 118.861h7.096v-2.286c-54.481-10.837-95.545-58.911-95.545-116.575z" fill="#fed402"/><g><g><g><path d="m382.562 267.674c-4.199 0-7.603-3.404-7.603-7.603 0-4.2 3.404-7.603 7.603-7.603 21.852 0 39.631-17.778 39.631-39.631 0-.735-.021-1.488-.063-2.241-.188-3.379 1.88-6.475 5.073-7.596 16.563-5.813 27.425-22.129 26.413-39.677-.922-16.008-11.292-29.793-26.418-35.119-3.188-1.123-5.252-4.215-5.067-7.59.041-.742.062-1.488.062-2.215 0-21.852-17.779-39.63-39.631-39.63-4.199 0-7.603-3.404-7.603-7.603s3.404-7.603 7.603-7.603c29.415 0 53.494 23.281 54.783 52.382 18.133 8.488 30.283 26.203 31.453 46.503 1.292 22.426-11.434 43.398-31.451 52.81-1.27 29.119-25.358 52.416-54.785 52.416z" fill="#e9f1ff"/></g><g><path d="m392.451 343.97c-10.792 0-21.582-4.107-29.798-12.322-2.969-2.969-2.969-7.783 0-10.752 2.97-2.97 7.783-2.969 10.753-.001 10.503 10.502 27.591 10.502 38.093 0 .36-.36.71-.732 1.049-1.11 2.258-2.522 5.909-3.245 8.957-1.783 10.752 5.164 23.814 2.543 31.762-6.376 7.25-8.137 8.891-19.746 4.181-29.575-1.46-3.046-.735-6.69 1.78-8.946.373-.335.739-.68 1.097-1.038 5.091-5.09 7.892-11.854 7.892-19.048 0-7.195-2.802-13.959-7.889-19.047-2.969-2.969-2.969-7.782 0-10.752 2.969-2.968 7.783-2.969 10.752.001 7.96 7.96 12.343 18.542 12.343 29.799 0 10.214-3.609 19.873-10.224 27.521 4.675 14.168 1.54 29.846-8.579 41.202-11.206 12.578-28.916 17.147-44.628 12.006-7.883 6.814-17.712 10.221-27.541 10.221z" fill="#e9f1ff"/></g><g><path d="m129.438 267.674c-29.427 0-53.515-23.297-54.784-52.417-20.018-9.412-32.744-30.384-31.451-52.81 1.17-20.3 13.32-38.015 31.453-46.503 1.289-29.102 25.368-52.382 54.783-52.382 4.199 0 7.603 3.404 7.603 7.603s-3.404 7.603-7.603 7.603c-21.853 0-39.631 17.778-39.631 39.63 0 .727.021 1.472.062 2.215.186 3.375-1.879 6.468-5.067 7.59-15.126 5.326-25.496 19.111-26.418 35.119-1.012 17.548 9.85 33.864 26.413 39.677 3.193 1.122 5.261 4.217 5.073 7.596-.042.753-.063 1.507-.063 2.241 0 21.853 17.779 39.631 39.631 39.631 4.199 0 7.603 3.404 7.603 7.603-.001 4.2-3.405 7.604-7.604 7.604z" fill="#e9f1ff"/></g><g><path d="m119.548 343.97c-9.83 0-19.658-3.408-27.541-10.223-15.71 5.143-33.421.572-44.627-12.006-10.118-11.356-13.252-27.035-8.579-41.202-6.614-7.646-10.224-17.306-10.224-27.521 0-11.256 4.384-21.839 12.343-29.799 2.969-2.97 7.783-2.969 10.752-.001 2.969 2.97 2.969 7.783 0 10.752-5.087 5.089-7.889 11.852-7.889 19.047 0 7.194 2.802 13.959 7.889 19.045.361.361.727.707 1.1 1.041 2.515 2.255 3.24 5.899 1.78 8.946-4.71 9.829-3.069 21.438 4.181 29.575 7.948 8.92 21.011 11.541 31.762 6.376 3.051-1.463 6.701-.739 8.957 1.783.339.378.689.749 1.052 1.113 10.499 10.5 27.588 10.499 38.09-.003 2.969-2.968 7.783-2.969 10.753.001 2.969 2.969 2.968 7.783-.001 10.752-8.214 8.216-19.008 12.324-29.798 12.324z" fill="#e9f1ff"/></g></g></g><g><g><path d="m325.067 72.771c-4.199 0-7.603-3.404-7.603-7.603 0-14.853-12.083-26.936-26.936-26.936-.513 0-1.022.015-1.528.043-3.367.193-6.473-1.881-7.594-5.073-3.952-11.257-15.043-18.634-26.968-17.951-10.88.627-20.249 7.675-23.869 17.956-1.122 3.185-4.217 5.24-7.584 5.067-.501-.028-1.006-.042-1.514-.042-14.852 0-26.936 12.083-26.936 26.936 0 4.2-3.404 7.603-7.603 7.603s-7.603-3.404-7.603-7.603c0-22.192 17.241-40.432 39.032-42.028 6.713-13.324 20.017-22.196 35.202-23.07 16.803-.977 32.573 8.321 40.045 23.068 21.803 1.584 39.06 19.829 39.06 42.03.002 4.199-3.402 7.603-7.601 7.603z" fill="#e9f1ff"/></g></g></g></svg>