<svg id="Capa_1" enable-background="new 0 0 512 512" height="512" viewBox="0 0 512 512" width="512" xmlns="http://www.w3.org/2000/svg"><g><g fill="#e9f1ff"><circle cx="47.613" cy="111.43" r="15.613"/><circle cx="160" cy="79.817" r="15.613"/><circle cx="368.387" cy="95.43" r="15.613"/></g><circle cx="368.387" cy="431.817" fill="#b3dafe" r="15.613"/><path d="m0 319.796c0 17.673 14.327 32 32 32h48c8.837 0 16 7.163 16 16 0 8.837-7.163 16-16 16h-16c-17.673 0-32 14.327-32 32 0 17.673 14.327 32 32 32h224c17.673 0 32-14.327 32-32 0-17.673-14.327-32-32-32h-64c-17.673 0-32-14.327-32-32 0-17.673 14.327-32 32-32h95.912c17.722 0 32.088 14.366 32.088 32.088 0 17.739 14.393 32.112 32.132 32.088l95.89-.132c17.668-.024 31.978-14.354 31.978-32.022 0-17.685-14.337-32.022-32.022-32.022h-63.978v-32h-384c-17.673 0-32 14.327-32 32z" fill="#b3dafe"/><g fill="#8ac9fe"><path d="m62.906 351.796c-17.673 0-32-14.327-32-32 0-17.673 14.327-32 32-32h-30.906c-17.673 0-32 14.327-32 32 0 17.673 14.327 32 32 32z"/><path d="m382.906 351.884c0-17.722-14.366-32.088-32.088-32.088h-30.906c17.722 0 32.088 14.366 32.088 32.088 0 17.739 14.393 32.112 32.132 32.088l29.24-.04c-16.965-.844-30.466-14.867-30.466-32.048z"/><path d="m62.906 415.796c0-17.673 14.327-32 32-32h16c8.837 0 16-7.164 16-16 0-8.837-7.163-16-16-16h-30.906c8.837 0 16 7.163 16 16s-7.163 16-16 16h-16c-17.673 0-32 14.327-32 32 0 17.673 14.327 32 32 32h30.906c-17.673 0-32-14.326-32-32z"/></g><path d="m183.692 351.305 54.585-10.637c11.725-2.285 23.722-2.285 35.447 0l54.585 10.637c62.439 12.168 119.691-40.864 119.691-110.87 0-70.477-57.983-123.627-120.726-110.663l-52.518 10.851c-12.397 2.561-25.117 2.561-37.514 0l-52.518-10.851c-62.741-12.964-120.724 40.186-120.724 110.663 0 70.006 57.252 123.038 119.692 110.87z" fill="#fe646f"/><path d="m94.906 240.435c0-57.287 38.309-103.125 86.345-111.314-61.392-10.341-117.251 42.14-117.251 111.314 0 69.095 55.771 121.654 117.257 111.312-48.084-8.191-86.351-54.078-86.351-111.312z" fill="#e53950"/><path d="m326.9 300.941c-3.211 0-6.47-.318-9.687-.944l-42.885-8.357c-6.034-1.176-12.2-1.772-18.328-1.772s-12.294.596-18.328 1.772l-42.885 8.357c-3.217.627-6.475.944-9.683.944-.001 0-.002 0-.003 0-30.114-.002-54.615-27.145-54.615-60.506 0-33.365 24.498-60.508 54.611-60.508 3.398 0 6.845.356 10.245 1.059l41.261 8.525c6.38 1.319 12.906 1.987 19.396 1.987s13.016-.668 19.396-1.987l41.261-8.525c3.401-.703 6.848-1.059 10.246-1.059 30.112 0 54.611 27.143 54.611 60.508 0 33.362-24.499 60.506-54.613 60.506z" fill="#e53950"/><path d="m488 128.482c-2.829 0-5.544.49-8.065 1.389.043-.679.065-1.364.065-2.054 0-17.673-14.327-32-32-32s-32 14.327-32 32c-17.673 0-32 14.327-32 32s14.327 32 32 32 32-14.327 32-32c5.903 0 11.432-1.599 16.18-4.386 1.454 11.864 11.564 21.051 23.82 21.051 13.255 0 24-10.745 24-24s-10.745-24-24-24z" fill="#e9f1ff"/><circle cx="128" cy="155.506" fill="#e9f1ff" r="40"/><path d="m296.789 224.433h-17.577c-3.983 0-7.211-3.229-7.211-7.211v-17.577c0-3.983-3.229-7.211-7.211-7.211h-17.577c-3.983 0-7.211 3.229-7.211 7.211v17.577c0 3.983-3.229 7.211-7.211 7.211h-17.577c-3.983 0-7.211 3.229-7.211 7.211v17.577c0 3.983 3.229 7.211 7.211 7.211h17.577c3.983 0 7.211 3.229 7.211 7.211v17.577c0 3.983 3.229 7.211 7.211 7.211h17.577c3.983 0 7.211-3.229 7.211-7.211v-17.577c0-3.983 3.229-7.211 7.211-7.211h17.577c3.983 0 7.211-3.229 7.211-7.211v-17.577c0-3.982-3.229-7.211-7.211-7.211z" fill="#e9f1ff"/></g></svg>