<svg id="Capa_1" enable-background="new 0 0 512 512" height="512" viewBox="0 0 512 512" width="512" xmlns="http://www.w3.org/2000/svg"><g><path d="m271.967 265.746h-31.933v-74.147l10.28-15.967-10.28-15.967v-143.7c-.001-8.817 7.148-15.965 15.966-15.965 8.818 0 15.967 7.148 15.967 15.967v143.7l-10.28 15.967 10.28 15.967z" fill="#f1b0a2"/><path d="m263.71 1.982c-2.286-1.263-4.914-1.982-7.71-1.982-8.818 0-15.967 7.149-15.967 15.967v249.78h15.421v-249.78c0-6.022 3.334-11.265 8.256-13.985z" fill="#eb9c8d"/><path d="m240.033 159.666h31.933v31.933h-31.933z" fill="#fe646f"/><path d="m240.033 159.666h15.421v31.933h-15.421z" fill="#e53950"/><path d="m287.933 287.399-21.139 10.281h-22.166l-20.561-10.281 15.966-31.933h31.934z" fill="#fe646f"/><path d="m240.033 255.466-15.966 31.933 20.561 10.281v-10.281l15.966-31.933z" fill="#e53950"/><path d="m256 510.932c-44.091 0-79.833-35.742-79.833-79.833v-136.504c0-3.974 3.222-7.196 7.196-7.196h145.274c3.974 0 7.196 3.222 7.196 7.196v136.503c0 44.091-35.742 79.834-79.833 79.834z" fill="#fee97d"/><path d="m207.008 431.099v-143.7h-23.645c-3.974 0-7.196 3.222-7.196 7.196v136.503c0 44.091 35.742 79.833 79.833 79.833 5.275 0 10.431-.512 15.421-1.488-36.712-7.184-64.413-39.529-64.413-78.344z" fill="#fed402"/><g><path d="m208.188 327.042h-55.97c-4.258 0-7.71-3.452-7.71-7.71s3.452-7.71 7.71-7.71h55.97c4.258 0 7.71 3.452 7.71 7.71s-3.452 7.71-7.71 7.71z" fill="#fed402"/></g><g><path d="m359.783 327.042h-55.883c-4.259 0-7.71-3.452-7.71-7.71s3.452-7.71 7.71-7.71h55.883c4.259 0 7.71 3.452 7.71 7.71s-3.451 7.71-7.71 7.71z" fill="#fed402"/></g><g><path d="m208.188 358.976h-55.97c-4.258 0-7.71-3.452-7.71-7.71 0-4.259 3.452-7.71 7.71-7.71h55.97c4.258 0 7.71 3.452 7.71 7.71s-3.452 7.71-7.71 7.71z" fill="#fed402"/></g><g><path d="m359.783 358.976h-55.883c-4.259 0-7.71-3.452-7.71-7.71 0-4.259 3.452-7.71 7.71-7.71h55.883c4.259 0 7.71 3.452 7.71 7.71s-3.451 7.71-7.71 7.71z" fill="#fed402"/></g><g><path d="m208.188 390.909h-55.97c-4.258 0-7.71-3.452-7.71-7.71s3.452-7.71 7.71-7.71h55.97c4.258 0 7.71 3.452 7.71 7.71s-3.452 7.71-7.71 7.71z" fill="#fed402"/></g><g><path d="m359.783 390.909h-55.883c-4.259 0-7.71-3.452-7.71-7.71s3.452-7.71 7.71-7.71h55.883c4.259 0 7.71 3.452 7.71 7.71s-3.451 7.71-7.71 7.71z" fill="#fed402"/></g><g><path d="m208.188 422.843h-55.97c-4.258 0-7.71-3.452-7.71-7.71 0-4.259 3.452-7.71 7.71-7.71h55.97c4.258 0 7.71 3.452 7.71 7.71s-3.452 7.71-7.71 7.71z" fill="#fed402"/></g><g><path d="m359.783 422.843h-55.883c-4.259 0-7.71-3.452-7.71-7.71 0-4.259 3.452-7.71 7.71-7.71h55.883c4.259 0 7.71 3.452 7.71 7.71s-3.451 7.71-7.71 7.71z" fill="#fed402"/></g><g><path d="m208.188 454.775h-54.103c-4.258 0-7.71-3.452-7.71-7.71s3.452-7.71 7.71-7.71h54.103c4.258 0 7.71 3.452 7.71 7.71s-3.452 7.71-7.71 7.71z" fill="#fed402"/></g><g fill="#fdb441"><path d="m176.167 311.622h30.841v15.421h-30.841z"/><path d="m176.167 343.555h30.841v15.421h-30.841z"/><path d="m176.167 375.489h30.841v15.421h-30.841z"/><path d="m176.167 407.422h30.841v15.421h-30.841z"/><path d="m210.472 454.431c-1.479-4.846-2.509-9.888-3.042-15.077h-30.841c.546 5.312 1.612 10.469 3.148 15.421h28.451c.795 0 1.562-.12 2.284-.344z"/></g><g><path d="m181.601 512c-1.973 0-3.947-.753-5.452-2.258-3.011-3.012-3.011-7.893 0-10.905l32.74-32.74c3.011-3.01 7.893-3.01 10.904 0 3.011 3.012 3.011 7.893 0 10.905l-32.74 32.74c-1.506 1.505-3.479 2.258-5.452 2.258z" fill="#fed402"/></g><path d="m220.732 475.865c-2.569-3.786-4.821-7.804-6.718-12.017-1.863.079-3.703.828-5.125 2.25l-15.071 15.071c3.234 4.011 6.848 7.703 10.788 11.021l15.187-15.187c.354-.356.667-.737.939-1.138z" fill="#fdb441"/><g><path d="m330.625 512c-1.973 0-3.947-.753-5.452-2.258l-32.74-32.74c-3.011-3.012-3.011-7.893 0-10.905 3.012-3.01 7.893-3.01 10.905 0l32.74 32.74c3.011 3.012 3.011 7.893 0 10.905-1.506 1.505-3.48 2.258-5.453 2.258z" fill="#fed402"/></g><g><path d="m357.919 454.775h-54.019c-4.259 0-7.71-3.452-7.71-7.71s3.452-7.71 7.71-7.71h54.018c4.259 0 7.71 3.452 7.71 7.71s-3.451 7.71-7.709 7.71z" fill="#fed402"/></g><g fill="#fed402"><path d="m261.756 313.564c3.179 3.179 3.179 8.332 0 11.511-3.179 3.179-8.332 3.179-11.511 0-3.179-3.179-3.179-8.332 0-11.511 3.178-3.179 8.332-3.179 11.511 0z"/><path d="m261.756 377.349c3.179 3.179 3.179 8.332 0 11.511-3.179 3.179-8.332 3.179-11.511 0-3.179-3.179-3.179-8.332 0-11.511 3.178-3.179 8.332-3.179 11.511 0z"/><path d="m261.756 441.31c3.179 3.179 3.179 8.332 0 11.511-3.179 3.179-8.332 3.179-11.511 0-3.179-3.179-3.179-8.332 0-11.511 3.178-3.179 8.332-3.179 11.511 0z"/><path d="m261.756 345.456c3.179 3.179 3.179 8.332 0 11.511-3.179 3.179-8.332 3.179-11.511 0-3.179-3.179-3.179-8.332 0-11.511 3.178-3.178 8.332-3.178 11.511 0z"/><path d="m261.756 409.241c3.179 3.179 3.179 8.332 0 11.511-3.179 3.179-8.332 3.179-11.511 0-3.179-3.179-3.179-8.332 0-11.511 3.178-3.179 8.332-3.179 11.511 0z"/><path d="m261.756 473.379c3.179 3.179 3.179 8.332 0 11.511-3.179 3.179-8.332 3.179-11.511 0-3.179-3.179-3.179-8.332 0-11.511 3.178-3.179 8.332-3.179 11.511 0z"/></g></g></svg>