<svg id="Capa_1" enable-background="new 0 0 512 512" height="512" viewBox="0 0 512 512" width="512" xmlns="http://www.w3.org/2000/svg"><g><path d="m336.188 405.695v99.093c0 3.983-3.229 7.211-7.211 7.211h-40.795l-32.193-10.302-31.803 10.303h-40.795c-3.983 0-7.211-3.229-7.211-7.211v-99.093h160.008z" fill="#fe646f"/><path d="m176.184 415.998v88.788c0 3.983 3.229 7.211 7.211 7.211h23.694v-96h-30.905z" fill="#e53950"/><path d="m354.176 412.012c-1.222 2.443-3.719 3.986-6.45 3.986h-183.085c-2.731 0-5.228-1.543-6.45-3.986l-.367-.734c-19.384-38.769-27.711-82.13-24.065-125.321l23.582-279.352c.315-3.735 3.438-6.605 7.185-6.605h181.071c3.73 0 6.844 2.844 7.182 6.558l25.329 278.619c3.971 43.681-4.316 87.604-23.932 126.835z" fill="#9cf8d2"/><path d="m189.096 412.012-.367-.734c-19.384-38.769-27.711-82.13-24.065-125.321l23.582-279.352c.316-3.735 3.439-6.605 7.186-6.605h-30.906c-3.747 0-6.87 2.87-7.186 6.605l-23.582 279.352c-3.646 43.191 4.68 86.552 24.065 125.321l.367.734c1.222 2.443 3.719 3.986 6.45 3.986h30.906c-2.731 0-5.228-1.543-6.45-3.986z" fill="#91deb6"/><circle cx="256.184" cy="240.015" fill="#fee97d" r="64.015"/><path d="m199.395 31.969h113.593c3.983 0 7.211 3.229 7.211 7.211v17.609c0 3.983-3.229 7.211-7.211 7.211h-113.593c-3.983 0-7.211-3.229-7.211-7.211v-17.609c0-3.983 3.228-7.211 7.211-7.211z" fill="#fee97d"/><path d="m288.183 511.998h-64v-24.789c0-3.983 3.229-7.211 7.211-7.211h49.577c3.983 0 7.211 3.229 7.211 7.211v24.789z" fill="#9cf8d2"/><g><path d="m176.179 440.268h160.008v15.453h-160.008z" fill="#e53950"/></g><path d="m176.179 440.268h.004v15.453h-.004z" fill="#e53950"/><path d="m176.184 440.268h30.906v15.453h-30.906z" fill="#a60042"/><g><g><path d="m304.184 103.726h-96c-4.268 0-7.726-3.459-7.726-7.726 0-4.268 3.459-7.726 7.726-7.726h96c4.268 0 7.726 3.459 7.726 7.726s-3.459 7.726-7.726 7.726z" fill="#e9f1ff"/></g></g><g><g><path d="m288.184 135.726h-64c-4.268 0-7.726-3.459-7.726-7.726s3.459-7.726 7.726-7.726h64c4.268 0 7.726 3.459 7.726 7.726s-3.459 7.726-7.726 7.726z" fill="#e9f1ff"/></g></g><g><g><path d="m320.199 391.725h-128.015c-4.268 0-7.726-3.459-7.726-7.726 0-4.268 3.459-7.726 7.726-7.726h128.015c4.268 0 7.726 3.459 7.726 7.726s-3.459 7.726-7.726 7.726z" fill="#e9f1ff"/></g></g><g><g><path d="m288.184 359.725h-64c-4.268 0-7.726-3.459-7.726-7.726 0-4.268 3.459-7.726 7.726-7.726h64c4.268 0 7.726 3.459 7.726 7.726s-3.459 7.726-7.726 7.726z" fill="#e9f1ff"/></g></g></g></svg>