<svg id="Capa_1" enable-background="new 0 0 512 512" height="512" viewBox="0 0 512 512" width="512" xmlns="http://www.w3.org/2000/svg"><g><path d="m335.981 456.287h-24.268v-24.267c0-4.267-3.458-7.725-7.725-7.725s-7.725 3.458-7.725 7.725v63.984c0 4.267 3.458 7.725 7.725 7.725s7.725-3.458 7.725-7.725v-24.268h24.268c4.267 0 7.725-3.458 7.725-7.725-.001-4.266-3.459-7.724-7.725-7.724z" fill="#d7e4f7"/><g><g><path d="m392.879 512h-17.819c-3.982 0-7.21-3.228-7.21-7.21v-456.743c0-8.731-7.078-15.809-15.809-15.809h-128.098c-8.731 0-15.809 7.078-15.809 15.809v48.175h-32.238v-48.175c0-26.536 21.511-48.047 48.047-48.047h128.098c26.536 0 48.047 21.511 48.047 48.047v456.743c0 3.982-3.227 7.21-7.209 7.21z" fill="#e9f1ff"/></g></g><g><g fill="#d7e4f7"><path d="m367.49 32.238h-15.449c8.717 0 15.809 7.092 15.809 15.809v456.743c0 3.982 3.228 7.21 7.21 7.21h8.24v-463.953c0-8.731-7.078-15.809-15.81-15.809z"/><path d="m239.392 0h-15.449c-26.493 0-48.047 21.554-48.047 48.047v48.175h15.449v-48.175c0-26.493 21.554-48.047 48.047-48.047z"/></g></g><path d="m271.996 128.092-23.721 10.299h-112.52l-23.721-10.299 5.373-8.06c16.63-24.945 44.627-39.929 74.608-39.929 29.981 0 57.977 14.983 74.608 39.929z" fill="#b3dafe"/><path d="m212.614 82.5c-6.678-1.576-13.584-2.397-20.599-2.397-29.98 0-57.977 14.983-74.608 39.929l-5.373 8.06 23.721 10.299 17.477-10.299 5.373-8.06c12.739-19.108 32.148-32.371 54.009-37.532z" fill="#8ac9fe"/><g><path d="m128.031 423.748c-4.267 0-7.725-3.458-7.725-7.725v-31.993c0-4.267 3.458-7.725 7.725-7.725s7.725 3.458 7.725 7.725v31.993c-.001 4.267-3.459 7.725-7.725 7.725z" fill="#b3dafe"/></g><g><path d="m256 423.748c-4.267 0-7.725-3.458-7.725-7.725v-31.993c0-4.267 3.458-7.725 7.725-7.725s7.725 3.458 7.725 7.725v31.993c0 4.267-3.458 7.725-7.725 7.725z" fill="#b3dafe"/></g><g><path d="m192.015 423.748c-4.267 0-7.725-3.458-7.725-7.725v-31.993c0-4.267 3.458-7.725 7.725-7.725s7.725 3.458 7.725 7.725v31.993c0 4.267-3.458 7.725-7.725 7.725z" fill="#b3dafe"/></g><g><path d="m96.038 359.763c-4.267 0-7.725-3.458-7.725-7.725v-31.993c0-4.267 3.458-7.725 7.725-7.725s7.725 3.458 7.725 7.725v31.993c0 4.267-3.458 7.725-7.725 7.725z" fill="#b3dafe"/></g><g><path d="m224.008 359.763c-4.267 0-7.725-3.458-7.725-7.725v-31.993c0-4.267 3.458-7.725 7.725-7.725s7.725 3.458 7.725 7.725v31.993c-.001 4.267-3.459 7.725-7.725 7.725z" fill="#b3dafe"/></g><g><path d="m287.993 359.763c-4.267 0-7.725-3.458-7.725-7.725v-31.993c0-4.267 3.458-7.725 7.725-7.725s7.725 3.458 7.725 7.725v31.993c-.001 4.267-3.459 7.725-7.725 7.725z" fill="#b3dafe"/></g><g><path d="m160.023 359.763c-4.267 0-7.725-3.458-7.725-7.725v-31.993c0-4.267 3.458-7.725 7.725-7.725s7.725 3.458 7.725 7.725v31.993c0 4.267-3.458 7.725-7.725 7.725z" fill="#b3dafe"/></g><g><path d="m128.031 295.779c-4.267 0-7.725-3.458-7.725-7.725v-31.993c0-4.267 3.458-7.725 7.725-7.725s7.725 3.458 7.725 7.725v31.993c-.001 4.267-3.459 7.725-7.725 7.725z" fill="#b3dafe"/></g><g><path d="m256 295.779c-4.267 0-7.725-3.458-7.725-7.725v-31.993c0-4.267 3.458-7.725 7.725-7.725s7.725 3.458 7.725 7.725v31.993c0 4.267-3.458 7.725-7.725 7.725z" fill="#b3dafe"/></g><g><path d="m192.015 295.779c-4.267 0-7.725-3.458-7.725-7.725v-31.993c0-4.267 3.458-7.725 7.725-7.725s7.725 3.458 7.725 7.725v31.993c0 4.267-3.458 7.725-7.725 7.725z" fill="#b3dafe"/></g><g><path d="m96.038 231.793c-4.267 0-7.725-3.458-7.725-7.725v-31.992c0-4.267 3.458-7.725 7.725-7.725s7.725 3.458 7.725 7.725v31.992c0 4.267-3.458 7.725-7.725 7.725z" fill="#b3dafe"/></g><g><path d="m224.008 231.793c-4.267 0-7.725-3.458-7.725-7.725v-31.992c0-4.267 3.458-7.725 7.725-7.725s7.725 3.458 7.725 7.725v31.992c-.001 4.267-3.459 7.725-7.725 7.725z" fill="#b3dafe"/></g><g><path d="m287.993 231.793c-4.267 0-7.725-3.458-7.725-7.725v-31.992c0-4.267 3.458-7.725 7.725-7.725s7.725 3.458 7.725 7.725v31.992c-.001 4.267-3.459 7.725-7.725 7.725z" fill="#b3dafe"/></g><g><path d="m160.023 231.793c-4.267 0-7.725-3.458-7.725-7.725v-31.992c0-4.267 3.458-7.725 7.725-7.725s7.725 3.458 7.725 7.725v31.992c0 4.267-3.458 7.725-7.725 7.725z" fill="#b3dafe"/></g><path d="m424.748 480.008h-81.558c-3.982 0-7.21-3.228-7.21-7.21v-17.573c0-3.982 3.228-7.21 7.21-7.21h81.558c3.982 0 7.21 3.228 7.21 7.21v17.573c0 3.982-3.228 7.21-7.21 7.21z" fill="#b3dafe"/><path d="m335.981 455.225v17.573c0 3.982 3.228 7.21 7.21 7.21h23.689v-31.992h-23.69c-3.981-.001-7.209 3.227-7.209 7.209z" fill="#8ac9fe"/><path d="m296.779 160.084h-209.527c-3.982 0-7.21-3.228-7.21-7.21v-17.573c0-3.982 3.228-7.21 7.21-7.21h209.527c3.982 0 7.21 3.228 7.21 7.21v17.573c-.001 3.983-3.228 7.21-7.21 7.21z" fill="#b3dafe"/><path d="m80.042 135.302v17.573c0 3.982 3.228 7.21 7.21 7.21h33.988v-31.992h-33.988c-3.982-.001-7.21 3.227-7.21 7.209z" fill="#8ac9fe"/></g></svg>